{
  "header": {
    "keySignatures": [],
    "meta": [],
    "name": "",
    "ppq": 43,
    "tempos": [
      {
        "bpm": 120,
        "ticks": 0
      }
    ],
    "timeSignatures": []
  },
  "tracks": [
    {
      "channel": 0,
      "controlChanges": {},
      "pitchBends": [],
      "instrument": {
        "family": "piano",
        "number": 0,
        "name": "acoustic grand piano"
      },
      "name": "",
      "notes": [
        {
          "duration": 0.20930232558139536,
          "durationTicks": 18,
          "midi": 64,
          "name": "E4",
          "ticks": 0,
          "time": 0,
          "velocity": 0.23622047244094488
        },
        {
          "duration": 0.023255813953488372,
          "durationTicks": 2,
          "midi": 39,
          "name": "D#2",
          "ticks": 1,
          "time": 0.011627906976744186,
          "velocity": 0.33858267716535434
        },
        {
          "duration": 0.03488372093023256,
          "durationTicks": 3,
          "midi": 40,
          "name": "E2",
          "ticks": 3,
          "time": 0.03488372093023256,
          "velocity": 0.3464566929133858
        },
        {
          "duration": 0.03488372093023256,
          "durationTicks": 3,
          "midi": 67,
          "name": "G4",
          "ticks": 3,
          "time": 0.03488372093023256,
          "velocity": 0.11023622047244094
        },
        {
          "duration": 0.13953488372093023,
          "durationTicks": 12,
          "midi": 40,
          "name": "E2",
          "ticks": 7,
          "time": 0.08139534883720931,
          "velocity": 0.36220472440944884
        },
        {
          "duration": 0.2441860465116279,
          "durationTicks": 21,
          "midi": 59,
          "name": "B3",
          "ticks": 10,
          "time": 0.11627906976744186,
          "velocity": 0.2047244094488189
        },
        {
          "duration": 0.046511627906976744,
          "durationTicks": 4,
          "midi": 47,
          "name": "B2",
          "ticks": 18,
          "time": 0.20930232558139536,
          "velocity": 0.33070866141732286
        },
        {
          "duration": 0.06976744186046513,
          "durationTicks": 6,
          "midi": 99,
          "name": "D#7",
          "ticks": 19,
          "time": 0.22093023255813954,
          "velocity": 0.13385826771653545
        },
        {
          "duration": 0.03488372093023254,
          "durationTicks": 3,
          "midi": 40,
          "name": "E2",
          "ticks": 20,
          "time": 0.23255813953488372,
          "velocity": 0.3700787401574803
        },
        {
          "duration": 0.18604651162790697,
          "durationTicks": 16,
          "midi": 40,
          "name": "E2",
          "ticks": 24,
          "time": 0.27906976744186046,
          "velocity": 0.3700787401574803
        },
        {
          "duration": 0.08139534883720934,
          "durationTicks": 7,
          "midi": 78,
          "name": "F#5",
          "ticks": 31,
          "time": 0.36046511627906974,
          "velocity": 0.11811023622047244
        },
        {
          "duration": 0.08139534883720934,
          "durationTicks": 7,
          "midi": 72,
          "name": "C5",
          "ticks": 38,
          "time": 0.4418604651162791,
          "velocity": 0.2283464566929134
        },
        {
          "duration": 0.45348837209302323,
          "durationTicks": 39,
          "midi": 40,
          "name": "E2",
          "ticks": 41,
          "time": 0.47674418604651164,
          "velocity": 0.3464566929133858
        },
        {
          "duration": 0.023255813953488358,
          "durationTicks": 2,
          "midi": 47,
          "name": "B2",
          "ticks": 41,
          "time": 0.47674418604651164,
          "velocity": 0.25196850393700787
        },
        {
          "duration": 0.05813953488372092,
          "durationTicks": 5,
          "midi": 71,
          "name": "B4",
          "ticks": 47,
          "time": 0.5465116279069767,
          "velocity": 0.11811023622047244
        },
        {
          "duration": 0.12790697674418605,
          "durationTicks": 11,
          "midi": 78,
          "name": "F#5",
          "ticks": 49,
          "time": 0.5697674418604651,
          "velocity": 0.14960629921259844
        },
        {
          "duration": 0.08139534883720922,
          "durationTicks": 7,
          "midi": 59,
          "name": "B3",
          "ticks": 51,
          "time": 0.5930232558139535,
          "velocity": 0.10236220472440945
        },
        {
          "duration": 0.046511627906976716,
          "durationTicks": 4,
          "midi": 88,
          "name": "E6",
          "ticks": 59,
          "time": 0.686046511627907,
          "velocity": 0.07086614173228346
        },
        {
          "duration": 0.046511627906976716,
          "durationTicks": 4,
          "midi": 71,
          "name": "B4",
          "ticks": 69,
          "time": 0.8023255813953488,
          "velocity": 0.09448818897637795
        },
        {
          "duration": 0.10465116279069764,
          "durationTicks": 9,
          "midi": 78,
          "name": "F#5",
          "ticks": 70,
          "time": 0.813953488372093,
          "velocity": 0.14173228346456693
        },
        {
          "duration": 0.08139534883720934,
          "durationTicks": 7,
          "midi": 71,
          "name": "B4",
          "ticks": 78,
          "time": 0.9069767441860465,
          "velocity": 0.1968503937007874
        },
        {
          "duration": 0.03488372093023262,
          "durationTicks": 3,
          "midi": 99,
          "name": "D#7",
          "ticks": 79,
          "time": 0.9186046511627907,
          "velocity": 0.11023622047244094
        },
        {
          "duration": 0.2093023255813954,
          "durationTicks": 18,
          "midi": 40,
          "name": "E2",
          "ticks": 81,
          "time": 0.9418604651162791,
          "velocity": 0.3228346456692913
        },
        {
          "duration": 0.046511627906976605,
          "durationTicks": 4,
          "midi": 71,
          "name": "B4",
          "ticks": 88,
          "time": 1.0232558139534884,
          "velocity": 0.09448818897637795
        },
        {
          "duration": 0.06976744186046502,
          "durationTicks": 6,
          "midi": 59,
          "name": "B3",
          "ticks": 90,
          "time": 1.0465116279069768,
          "velocity": 0.12598425196850394
        },
        {
          "duration": 0.11627906976744184,
          "durationTicks": 10,
          "midi": 78,
          "name": "F#5",
          "ticks": 90,
          "time": 1.0465116279069768,
          "velocity": 0.14173228346456693
        },
        {
          "duration": 0.09302325581395343,
          "durationTicks": 8,
          "midi": 67,
          "name": "G4",
          "ticks": 98,
          "time": 1.1395348837209303,
          "velocity": 0.1889763779527559
        },
        {
          "duration": 0.11627906976744184,
          "durationTicks": 10,
          "midi": 40,
          "name": "E2",
          "ticks": 100,
          "time": 1.1627906976744187,
          "velocity": 0.33070866141732286
        },
        {
          "duration": 0.0348837209302324,
          "durationTicks": 3,
          "midi": 59,
          "name": "B3",
          "ticks": 110,
          "time": 1.2790697674418605,
          "velocity": 0.11023622047244094
        },
        {
          "duration": 0.06976744186046502,
          "durationTicks": 6,
          "midi": 78,
          "name": "F#5",
          "ticks": 110,
          "time": 1.2790697674418605,
          "velocity": 0.10236220472440945
        },
        {
          "duration": 0.11627906976744184,
          "durationTicks": 10,
          "midi": 40,
          "name": "E2",
          "ticks": 111,
          "time": 1.2906976744186047,
          "velocity": 0.31496062992125984
        },
        {
          "duration": 0.06976744186046502,
          "durationTicks": 6,
          "midi": 81,
          "name": "A5",
          "ticks": 118,
          "time": 1.372093023255814,
          "velocity": 0.09448818897637795
        },
        {
          "duration": 0.17441860465116266,
          "durationTicks": 15,
          "midi": 40,
          "name": "E2",
          "ticks": 122,
          "time": 1.4186046511627908,
          "velocity": 0.3228346456692913
        },
        {
          "duration": 0.08139534883720922,
          "durationTicks": 7,
          "midi": 69,
          "name": "A4",
          "ticks": 122,
          "time": 1.4186046511627908,
          "velocity": 0.14960629921259844
        },
        {
          "duration": 0.04651162790697683,
          "durationTicks": 4,
          "midi": 71,
          "name": "B4",
          "ticks": 129,
          "time": 1.5,
          "velocity": 0.11811023622047244
        },
        {
          "duration": 0.2441860465116279,
          "durationTicks": 21,
          "midi": 78,
          "name": "F#5",
          "ticks": 130,
          "time": 1.5116279069767442,
          "velocity": 0.25196850393700787
        },
        {
          "duration": 0.046511627906976605,
          "durationTicks": 4,
          "midi": 59,
          "name": "B3",
          "ticks": 131,
          "time": 1.5232558139534884,
          "velocity": 0.11023622047244094
        },
        {
          "duration": 0.10465116279069764,
          "durationTicks": 9,
          "midi": 41,
          "name": "F2",
          "ticks": 137,
          "time": 1.5930232558139534,
          "velocity": 0.25196850393700787
        },
        {
          "duration": 0.09302325581395343,
          "durationTicks": 8,
          "midi": 66,
          "name": "F#4",
          "ticks": 139,
          "time": 1.6162790697674418,
          "velocity": 0.12598425196850394
        },
        {
          "duration": 0.08139534883720922,
          "durationTicks": 7,
          "midi": 85,
          "name": "C#6",
          "ticks": 139,
          "time": 1.6162790697674418,
          "velocity": 0.15748031496062992
        },
        {
          "duration": 0.27906976744186074,
          "durationTicks": 24,
          "midi": 78,
          "name": "F#5",
          "ticks": 158,
          "time": 1.8372093023255813,
          "velocity": 0.15748031496062992
        },
        {
          "duration": 0.33720930232558133,
          "durationTicks": 29,
          "midi": 67,
          "name": "G4",
          "ticks": 160,
          "time": 1.8604651162790697,
          "velocity": 0.2204724409448819
        },
        {
          "duration": 0.023255813953488413,
          "durationTicks": 2,
          "midi": 38,
          "name": "D2",
          "ticks": 161,
          "time": 1.872093023255814,
          "velocity": 0.3543307086614173
        },
        {
          "duration": 0.023255813953488413,
          "durationTicks": 2,
          "midi": 47,
          "name": "B2",
          "ticks": 162,
          "time": 1.8837209302325582,
          "velocity": 0.3228346456692913
        },
        {
          "duration": 0.046511627906976605,
          "durationTicks": 4,
          "midi": 40,
          "name": "E2",
          "ticks": 164,
          "time": 1.9069767441860466,
          "velocity": 0.3543307086614173
        },
        {
          "duration": 0.13953488372093026,
          "durationTicks": 12,
          "midi": 64,
          "name": "E4",
          "ticks": 164,
          "time": 1.9069767441860466,
          "velocity": 0.14960629921259844
        },
        {
          "duration": 0.023255813953488413,
          "durationTicks": 2,
          "midi": 47,
          "name": "B2",
          "ticks": 167,
          "time": 1.941860465116279,
          "velocity": 0.31496062992125984
        },
        {
          "duration": 0.03488372093023262,
          "durationTicks": 3,
          "midi": 40,
          "name": "E2",
          "ticks": 169,
          "time": 1.9651162790697674,
          "velocity": 0.3700787401574803
        },
        {
          "duration": 0.09302325581395365,
          "durationTicks": 8,
          "midi": 59,
          "name": "B3",
          "ticks": 170,
          "time": 1.9767441860465116,
          "velocity": 0.12598425196850394
        },
        {
          "duration": 0.20930232558139528,
          "durationTicks": 18,
          "midi": 40,
          "name": "E2",
          "ticks": 173,
          "time": 2.011627906976744,
          "velocity": 0.3700787401574803
        },
        {
          "duration": 0.0697674418604648,
          "durationTicks": 6,
          "midi": 71,
          "name": "B4",
          "ticks": 178,
          "time": 2.0697674418604652,
          "velocity": 0.11811023622047244
        },
        {
          "duration": 0.03488372093023262,
          "durationTicks": 3,
          "midi": 71,
          "name": "B4",
          "ticks": 190,
          "time": 2.2093023255813953,
          "velocity": 0.07086614173228346
        },
        {
          "duration": 0.10465116279069786,
          "durationTicks": 9,
          "midi": 59,
          "name": "B3",
          "ticks": 191,
          "time": 2.2209302325581395,
          "velocity": 0.1889763779527559
        },
        {
          "duration": 0.2325581395348837,
          "durationTicks": 20,
          "midi": 40,
          "name": "E2",
          "ticks": 192,
          "time": 2.2325581395348837,
          "velocity": 0.3543307086614173
        },
        {
          "duration": 0.058139534883721034,
          "durationTicks": 5,
          "midi": 78,
          "name": "F#5",
          "ticks": 192,
          "time": 2.2325581395348837,
          "velocity": 0.10236220472440945
        },
        {
          "duration": 0.023255813953488413,
          "durationTicks": 2,
          "midi": 51,
          "name": "D#3",
          "ticks": 197,
          "time": 2.2906976744186047,
          "velocity": 0.25984251968503935
        },
        {
          "duration": 0.06976744186046524,
          "durationTicks": 6,
          "midi": 72,
          "name": "C5",
          "ticks": 198,
          "time": 2.302325581395349,
          "velocity": 0.2283464566929134
        },
        {
          "duration": 0.22093023255813948,
          "durationTicks": 19,
          "midi": 59,
          "name": "B3",
          "ticks": 201,
          "time": 2.3372093023255816,
          "velocity": 0.2125984251968504
        },
        {
          "duration": 0.11627906976744207,
          "durationTicks": 10,
          "midi": 40,
          "name": "E2",
          "ticks": 213,
          "time": 2.4767441860465116,
          "velocity": 0.33070866141732286
        },
        {
          "duration": 0.058139534883721034,
          "durationTicks": 5,
          "midi": 78,
          "name": "F#5",
          "ticks": 213,
          "time": 2.4767441860465116,
          "velocity": 0.07874015748031496
        },
        {
          "duration": 0.04651162790697683,
          "durationTicks": 4,
          "midi": 88,
          "name": "E6",
          "ticks": 219,
          "time": 2.546511627906977,
          "velocity": 0.07086614173228346
        },
        {
          "duration": 0.2325581395348837,
          "durationTicks": 20,
          "midi": 40,
          "name": "E2",
          "ticks": 224,
          "time": 2.604651162790698,
          "velocity": 0.3228346456692913
        },
        {
          "duration": 0.04651162790697683,
          "durationTicks": 4,
          "midi": 71,
          "name": "B4",
          "ticks": 229,
          "time": 2.6627906976744184,
          "velocity": 0.10236220472440945
        },
        {
          "duration": 0.03488372093023262,
          "durationTicks": 3,
          "midi": 59,
          "name": "B3",
          "ticks": 230,
          "time": 2.6744186046511627,
          "velocity": 0.09448818897637795
        },
        {
          "duration": 0.06976744186046524,
          "durationTicks": 6,
          "midi": 78,
          "name": "F#5",
          "ticks": 231,
          "time": 2.686046511627907,
          "velocity": 0.10236220472440945
        },
        {
          "duration": 0.09302325581395365,
          "durationTicks": 8,
          "midi": 71,
          "name": "B4",
          "ticks": 238,
          "time": 2.7674418604651163,
          "velocity": 0.23622047244094488
        },
        {
          "duration": 0.04651162790697683,
          "durationTicks": 4,
          "midi": 99,
          "name": "D#7",
          "ticks": 239,
          "time": 2.7790697674418605,
          "velocity": 0.12598425196850394
        },
        {
          "duration": 0.05813953488372059,
          "durationTicks": 5,
          "midi": 40,
          "name": "E2",
          "ticks": 245,
          "time": 2.8488372093023258,
          "velocity": 0.31496062992125984
        },
        {
          "duration": 0.058139534883721034,
          "durationTicks": 5,
          "midi": 71,
          "name": "B4",
          "ticks": 248,
          "time": 2.883720930232558,
          "velocity": 0.12598425196850394
        },
        {
          "duration": 0.08139534883720945,
          "durationTicks": 7,
          "midi": 78,
          "name": "F#5",
          "ticks": 250,
          "time": 2.9069767441860463,
          "velocity": 0.13385826771653545
        },
        {
          "duration": 0.04651162790697683,
          "durationTicks": 4,
          "midi": 40,
          "name": "E2",
          "ticks": 251,
          "time": 2.9186046511627906,
          "velocity": 0.30708661417322836
        },
        {
          "duration": 0.16279069767441845,
          "durationTicks": 14,
          "midi": 40,
          "name": "E2",
          "ticks": 256,
          "time": 2.9767441860465116,
          "velocity": 0.31496062992125984
        },
        {
          "duration": 0.10465116279069786,
          "durationTicks": 9,
          "midi": 67,
          "name": "G4",
          "ticks": 258,
          "time": 3,
          "velocity": 0.1889763779527559
        },
        {
          "duration": 0.03488372093023262,
          "durationTicks": 3,
          "midi": 86,
          "name": "D6",
          "ticks": 259,
          "time": 3.011627906976744,
          "velocity": 0.08661417322834646
        },
        {
          "duration": 0.058139534883721034,
          "durationTicks": 5,
          "midi": 71,
          "name": "B4",
          "ticks": 269,
          "time": 3.127906976744186,
          "velocity": 0.09448818897637795
        },
        {
          "duration": 0.06976744186046524,
          "durationTicks": 6,
          "midi": 78,
          "name": "F#5",
          "ticks": 270,
          "time": 3.13953488372093,
          "velocity": 0.11811023622047244
        },
        {
          "duration": 0.10465116279069786,
          "durationTicks": 9,
          "midi": 40,
          "name": "E2",
          "ticks": 271,
          "time": 3.1511627906976742,
          "velocity": 0.31496062992125984
        },
        {
          "duration": 0.04651162790697683,
          "durationTicks": 4,
          "midi": 59,
          "name": "B3",
          "ticks": 271,
          "time": 3.1511627906976742,
          "velocity": 0.09448818897637795
        },
        {
          "duration": 0.058139534883721034,
          "durationTicks": 5,
          "midi": 81,
          "name": "A5",
          "ticks": 277,
          "time": 3.2209302325581395,
          "velocity": 0.07874015748031496
        },
        {
          "duration": 0.03488372093023262,
          "durationTicks": 3,
          "midi": 40,
          "name": "E2",
          "ticks": 281,
          "time": 3.2674418604651163,
          "velocity": 0.33070866141732286
        },
        {
          "duration": 0.08139534883720945,
          "durationTicks": 7,
          "midi": 69,
          "name": "A4",
          "ticks": 282,
          "time": 3.2790697674418605,
          "velocity": 0.15748031496062992
        },
        {
          "duration": 0.09302325581395321,
          "durationTicks": 8,
          "midi": 40,
          "name": "E2",
          "ticks": 285,
          "time": 3.313953488372093,
          "velocity": 0.30708661417322836
        },
        {
          "duration": 0.09302325581395321,
          "durationTicks": 8,
          "midi": 59,
          "name": "B3",
          "ticks": 289,
          "time": 3.36046511627907,
          "velocity": 0.16535433070866143
        },
        {
          "duration": 0.32558139534883734,
          "durationTicks": 28,
          "midi": 78,
          "name": "F#5",
          "ticks": 291,
          "time": 3.383720930232558,
          "velocity": 0.25984251968503935
        },
        {
          "duration": 0.04651162790697683,
          "durationTicks": 4,
          "midi": 40,
          "name": "E2",
          "ticks": 294,
          "time": 3.4186046511627906,
          "velocity": 0.30708661417322836
        },
        {
          "duration": 0.10465116279069786,
          "durationTicks": 9,
          "midi": 66,
          "name": "F#4",
          "ticks": 297,
          "time": 3.453488372093023,
          "velocity": 0.11811023622047244
        },
        {
          "duration": 0.09302325581395365,
          "durationTicks": 8,
          "midi": 85,
          "name": "C#6",
          "ticks": 297,
          "time": 3.453488372093023,
          "velocity": 0.11811023622047244
        },
        {
          "duration": 0.09302325581395365,
          "durationTicks": 8,
          "midi": 40,
          "name": "E2",
          "ticks": 299,
          "time": 3.4767441860465116,
          "velocity": 0.3228346456692913
        },
        {
          "duration": 0.09302325581395321,
          "durationTicks": 8,
          "midi": 41,
          "name": "F2",
          "ticks": 310,
          "time": 3.604651162790698,
          "velocity": 0.2125984251968504
        },
        {
          "duration": 0.081395348837209,
          "durationTicks": 7,
          "midi": 59,
          "name": "B3",
          "ticks": 310,
          "time": 3.604651162790698,
          "velocity": 0.11023622047244094
        },
        {
          "duration": 0.03488372093023262,
          "durationTicks": 3,
          "midi": 74,
          "name": "D5",
          "ticks": 318,
          "time": 3.697674418604651,
          "velocity": 0.13385826771653545
        },
        {
          "duration": 0.03488372093023262,
          "durationTicks": 3,
          "midi": 81,
          "name": "A5",
          "ticks": 318,
          "time": 3.697674418604651,
          "velocity": 0.15748031496062992
        },
        {
          "duration": 0.058139534883721034,
          "durationTicks": 5,
          "midi": 99,
          "name": "D#7",
          "ticks": 319,
          "time": 3.7093023255813953,
          "velocity": 0.08661417322834646
        },
        {
          "duration": 0.22093023255813948,
          "durationTicks": 19,
          "midi": 78,
          "name": "F#5",
          "ticks": 320,
          "time": 3.7209302325581395,
          "velocity": 0.15748031496062992
        },
        {
          "duration": 0.03488372093023262,
          "durationTicks": 3,
          "midi": 56,
          "name": "G#3",
          "ticks": 321,
          "time": 3.7325581395348837,
          "velocity": 0.2125984251968504
        },
        {
          "duration": 0.11627906976744207,
          "durationTicks": 10,
          "midi": 67,
          "name": "G4",
          "ticks": 321,
          "time": 3.7325581395348837,
          "velocity": 0.2125984251968504
        },
        {
          "duration": 0.023255813953488413,
          "durationTicks": 2,
          "midi": 38,
          "name": "D2",
          "ticks": 322,
          "time": 3.744186046511628,
          "velocity": 0.3700787401574803
        },
        {
          "duration": 0.16279069767441845,
          "durationTicks": 14,
          "midi": 40,
          "name": "E2",
          "ticks": 325,
          "time": 3.7790697674418605,
          "velocity": 0.3779527559055118
        },
        {
          "duration": 0.081395348837209,
          "durationTicks": 7,
          "midi": 59,
          "name": "B3",
          "ticks": 329,
          "time": 3.8255813953488373,
          "velocity": 0.13385826771653545
        },
        {
          "duration": 0.034883720930232176,
          "durationTicks": 3,
          "midi": 67,
          "name": "G4",
          "ticks": 332,
          "time": 3.86046511627907,
          "velocity": 0.15748031496062992
        },
        {
          "duration": 0.058139534883721034,
          "durationTicks": 5,
          "midi": 47,
          "name": "B2",
          "ticks": 334,
          "time": 3.883720930232558,
          "velocity": 0.30708661417322836
        },
        {
          "duration": 0.06976744186046524,
          "durationTicks": 6,
          "midi": 64,
          "name": "E4",
          "ticks": 334,
          "time": 3.883720930232558,
          "velocity": 0.07874015748031496
        },
        {
          "duration": 0.03488372093023262,
          "durationTicks": 3,
          "midi": 67,
          "name": "G4",
          "ticks": 336,
          "time": 3.9069767441860463,
          "velocity": 0.11023622047244094
        },
        {
          "duration": 0.20930232558139572,
          "durationTicks": 18,
          "midi": 71,
          "name": "B4",
          "ticks": 338,
          "time": 3.9302325581395348,
          "velocity": 0.13385826771653545
        },
        {
          "duration": 0.08139534883720945,
          "durationTicks": 7,
          "midi": 99,
          "name": "D#7",
          "ticks": 338,
          "time": 3.9302325581395348,
          "velocity": 0.14173228346456693
        },
        {
          "duration": 0.1627906976744189,
          "durationTicks": 14,
          "midi": 40,
          "name": "E2",
          "ticks": 340,
          "time": 3.953488372093023,
          "velocity": 0.3779527559055118
        },
        {
          "duration": 0.39534883720930214,
          "durationTicks": 34,
          "midi": 59,
          "name": "B3",
          "ticks": 351,
          "time": 4.0813953488372094,
          "velocity": 0.2047244094488189
        },
        {
          "duration": 0.023255813953488413,
          "durationTicks": 2,
          "midi": 47,
          "name": "B2",
          "ticks": 353,
          "time": 4.104651162790698,
          "velocity": 0.25196850393700787
        },
        {
          "duration": 0.058139534883721034,
          "durationTicks": 5,
          "midi": 78,
          "name": "F#5",
          "ticks": 353,
          "time": 4.104651162790698,
          "velocity": 0.09448818897637795
        },
        {
          "duration": 0.058139534883721034,
          "durationTicks": 5,
          "midi": 40,
          "name": "E2",
          "ticks": 355,
          "time": 4.127906976744186,
          "velocity": 0.33070866141732286
        },
        {
          "duration": 0.08139534883720945,
          "durationTicks": 7,
          "midi": 72,
          "name": "C5",
          "ticks": 358,
          "time": 4.162790697674419,
          "velocity": 0.25196850393700787
        },
        {
          "duration": 0.11627906976744118,
          "durationTicks": 10,
          "midi": 40,
          "name": "E2",
          "ticks": 361,
          "time": 4.1976744186046515,
          "velocity": 0.3464566929133858
        },
        {
          "duration": 0.03488372093023262,
          "durationTicks": 3,
          "midi": 72,
          "name": "C5",
          "ticks": 368,
          "time": 4.27906976744186,
          "velocity": 0.08661417322834646
        },
        {
          "duration": 0.23255813953488413,
          "durationTicks": 20,
          "midi": 40,
          "name": "E2",
          "ticks": 372,
          "time": 4.325581395348837,
          "velocity": 0.33070866141732286
        },
        {
          "duration": 0.06976744186046524,
          "durationTicks": 6,
          "midi": 78,
          "name": "F#5",
          "ticks": 373,
          "time": 4.337209302325581,
          "velocity": 0.10236220472440945
        },
        {
          "duration": 0.058139534883721034,
          "durationTicks": 5,
          "midi": 59,
          "name": "B3",
          "ticks": 390,
          "time": 4.534883720930233,
          "velocity": 0.11811023622047244
        },
        {
          "duration": 0.06976744186046524,
          "durationTicks": 6,
          "midi": 78,
          "name": "F#5",
          "ticks": 391,
          "time": 4.546511627906977,
          "velocity": 0.10236220472440945
        },
        {
          "duration": 0.03488372093023262,
          "durationTicks": 3,
          "midi": 40,
          "name": "E2",
          "ticks": 393,
          "time": 4.569767441860465,
          "velocity": 0.3228346456692913
        },
        {
          "duration": 0.25581395348837166,
          "durationTicks": 22,
          "midi": 40,
          "name": "E2",
          "ticks": 397,
          "time": 4.616279069767442,
          "velocity": 0.3228346456692913
        },
        {
          "duration": 0.08139534883720945,
          "durationTicks": 7,
          "midi": 71,
          "name": "B4",
          "ticks": 398,
          "time": 4.627906976744186,
          "velocity": 0.2283464566929134
        },
        {
          "duration": 0.04651162790697683,
          "durationTicks": 4,
          "midi": 99,
          "name": "D#7",
          "ticks": 399,
          "time": 4.6395348837209305,
          "velocity": 0.11811023622047244
        },
        {
          "duration": 0.08139534883720945,
          "durationTicks": 7,
          "midi": 59,
          "name": "B3",
          "ticks": 410,
          "time": 4.767441860465116,
          "velocity": 0.14173228346456693
        },
        {
          "duration": 0.08139534883720945,
          "durationTicks": 7,
          "midi": 78,
          "name": "F#5",
          "ticks": 411,
          "time": 4.77906976744186,
          "velocity": 0.13385826771653545
        },
        {
          "duration": 0.09302325581395365,
          "durationTicks": 8,
          "midi": 67,
          "name": "G4",
          "ticks": 418,
          "time": 4.8604651162790695,
          "velocity": 0.1889763779527559
        },
        {
          "duration": 0.04651162790697683,
          "durationTicks": 4,
          "midi": 40,
          "name": "E2",
          "ticks": 420,
          "time": 4.883720930232558,
          "velocity": 0.3228346456692913
        },
        {
          "duration": 0.1860465116279073,
          "durationTicks": 16,
          "midi": 40,
          "name": "E2",
          "ticks": 425,
          "time": 4.941860465116279,
          "velocity": 0.33858267716535434
        },
        {
          "duration": 0.03488372093023262,
          "durationTicks": 3,
          "midi": 71,
          "name": "B4",
          "ticks": 430,
          "time": 5,
          "velocity": 0.07086614173228346
        },
        {
          "duration": 0.058139534883721034,
          "durationTicks": 5,
          "midi": 59,
          "name": "B3",
          "ticks": 431,
          "time": 5.011627906976744,
          "velocity": 0.11811023622047244
        },
        {
          "duration": 0.04651162790697683,
          "durationTicks": 4,
          "midi": 78,
          "name": "F#5",
          "ticks": 432,
          "time": 5.023255813953488,
          "velocity": 0.08661417322834646
        },
        {
          "duration": 0.023255813953488413,
          "durationTicks": 2,
          "midi": 39,
          "name": "D#2",
          "ticks": 441,
          "time": 5.127906976744186,
          "velocity": 0.2755905511811024
        },
        {
          "duration": 0.03488372093023262,
          "durationTicks": 3,
          "midi": 93,
          "name": "A6",
          "ticks": 442,
          "time": 5.1395348837209305,
          "velocity": 0.14960629921259844
        },
        {
          "duration": 0.19767441860465063,
          "durationTicks": 17,
          "midi": 40,
          "name": "E2",
          "ticks": 443,
          "time": 5.151162790697675,
          "velocity": 0.33070866141732286
        },
        {
          "duration": 0.09302325581395277,
          "durationTicks": 8,
          "midi": 59,
          "name": "B3",
          "ticks": 449,
          "time": 5.22093023255814,
          "velocity": 0.1732283464566929
        },
        {
          "duration": 0.3372093023255811,
          "durationTicks": 29,
          "midi": 78,
          "name": "F#5",
          "ticks": 451,
          "time": 5.244186046511628,
          "velocity": 0.2125984251968504
        },
        {
          "duration": 0.09302325581395365,
          "durationTicks": 8,
          "midi": 66,
          "name": "F#4",
          "ticks": 458,
          "time": 5.325581395348837,
          "velocity": 0.11811023622047244
        },
        {
          "duration": 0.09302325581395365,
          "durationTicks": 8,
          "midi": 85,
          "name": "C#6",
          "ticks": 458,
          "time": 5.325581395348837,
          "velocity": 0.08661417322834646
        },
        {
          "duration": 0.1627906976744189,
          "durationTicks": 14,
          "midi": 40,
          "name": "E2",
          "ticks": 461,
          "time": 5.3604651162790695,
          "velocity": 0.31496062992125984
        },
        {
          "duration": 0.08139534883720945,
          "durationTicks": 7,
          "midi": 59,
          "name": "B3",
          "ticks": 470,
          "time": 5.465116279069767,
          "velocity": 0.12598425196850394
        },
        {
          "duration": 0.03488372093023262,
          "durationTicks": 3,
          "midi": 41,
          "name": "F2",
          "ticks": 475,
          "time": 5.523255813953488,
          "velocity": 0.25196850393700787
        },
        {
          "duration": 0.058139534883721034,
          "durationTicks": 5,
          "midi": 67,
          "name": "G4",
          "ticks": 477,
          "time": 5.546511627906977,
          "velocity": 0.23622047244094488
        },
        {
          "duration": 0.023255813953488413,
          "durationTicks": 2,
          "midi": 36,
          "name": "C2",
          "ticks": 480,
          "time": 5.5813953488372094,
          "velocity": 0.3464566929133858
        },
        {
          "duration": 0.25581395348837166,
          "durationTicks": 22,
          "midi": 59,
          "name": "B3",
          "ticks": 481,
          "time": 5.593023255813954,
          "velocity": 0.25984251968503935
        },
        {
          "duration": 0.1511627906976738,
          "durationTicks": 13,
          "midi": 40,
          "name": "E2",
          "ticks": 483,
          "time": 5.616279069767442,
          "velocity": 0.3464566929133858
        },
        {
          "duration": 0.09302325581395277,
          "durationTicks": 8,
          "midi": 78,
          "name": "F#5",
          "ticks": 492,
          "time": 5.72093023255814,
          "velocity": 0.09448818897637795
        },
        {
          "duration": 0.023255813953488413,
          "durationTicks": 2,
          "midi": 52,
          "name": "E3",
          "ticks": 496,
          "time": 5.767441860465116,
          "velocity": 0.2755905511811024
        },
        {
          "duration": 0.03488372093023262,
          "durationTicks": 3,
          "midi": 40,
          "name": "E2",
          "ticks": 497,
          "time": 5.77906976744186,
          "velocity": 0.3228346456692913
        },
        {
          "duration": 0.26744186046511675,
          "durationTicks": 23,
          "midi": 64,
          "name": "E4",
          "ticks": 499,
          "time": 5.8023255813953485,
          "velocity": 0.2125984251968504
        },
        {
          "duration": 0.06976744186046524,
          "durationTicks": 6,
          "midi": 98,
          "name": "D7",
          "ticks": 499,
          "time": 5.8023255813953485,
          "velocity": 0.07086614173228346
        },
        {
          "duration": 0.13953488372093048,
          "durationTicks": 12,
          "midi": 40,
          "name": "E2",
          "ticks": 501,
          "time": 5.825581395348837,
          "velocity": 0.33858267716535434
        },
        {
          "duration": 0.4651162790697674,
          "durationTicks": 40,
          "midi": 59,
          "name": "B3",
          "ticks": 506,
          "time": 5.883720930232558,
          "velocity": 0.23622047244094488
        },
        {
          "duration": 0.3139534883720927,
          "durationTicks": 27,
          "midi": 78,
          "name": "F#5",
          "ticks": 511,
          "time": 5.941860465116279,
          "velocity": 0.23622047244094488
        },
        {
          "duration": 0.06976744186046524,
          "durationTicks": 6,
          "midi": 85,
          "name": "C#6",
          "ticks": 519,
          "time": 6.034883720930233,
          "velocity": 0.13385826771653545
        },
        {
          "duration": 0.08139534883720945,
          "durationTicks": 7,
          "midi": 52,
          "name": "E3",
          "ticks": 520,
          "time": 6.046511627906977,
          "velocity": 0.33858267716535434
        },
        {
          "duration": 0.10465116279069786,
          "durationTicks": 9,
          "midi": 40,
          "name": "E2",
          "ticks": 522,
          "time": 6.069767441860465,
          "velocity": 0.3228346456692913
        },
        {
          "duration": 0.10465116279069697,
          "durationTicks": 9,
          "midi": 40,
          "name": "E2",
          "ticks": 532,
          "time": 6.186046511627907,
          "velocity": 0.3228346456692913
        },
        {
          "duration": 0.10465116279069786,
          "durationTicks": 9,
          "midi": 75,
          "name": "D#5",
          "ticks": 538,
          "time": 6.255813953488372,
          "velocity": 0.16535433070866143
        },
        {
          "duration": 0.04651162790697683,
          "durationTicks": 4,
          "midi": 99,
          "name": "D#7",
          "ticks": 541,
          "time": 6.290697674418604,
          "velocity": 0.07086614173228346
        },
        {
          "duration": 0.11627906976744207,
          "durationTicks": 10,
          "midi": 40,
          "name": "E2",
          "ticks": 542,
          "time": 6.3023255813953485,
          "velocity": 0.33070866141732286
        },
        {
          "duration": 0.03488372093023262,
          "durationTicks": 3,
          "midi": 59,
          "name": "B3",
          "ticks": 548,
          "time": 6.372093023255814,
          "velocity": 0.09448818897637795
        },
        {
          "duration": 0.06976744186046524,
          "durationTicks": 6,
          "midi": 71,
          "name": "B4",
          "ticks": 551,
          "time": 6.406976744186046,
          "velocity": 0.08661417322834646
        },
        {
          "duration": 0.058139534883721034,
          "durationTicks": 5,
          "midi": 59,
          "name": "B3",
          "ticks": 552,
          "time": 6.4186046511627906,
          "velocity": 0.11811023622047244
        },
        {
          "duration": 0.09302325581395365,
          "durationTicks": 8,
          "midi": 78,
          "name": "F#5",
          "ticks": 552,
          "time": 6.4186046511627906,
          "velocity": 0.12598425196850394
        },
        {
          "duration": 0.023255813953488413,
          "durationTicks": 2,
          "midi": 40,
          "name": "E2",
          "ticks": 553,
          "time": 6.430232558139535,
          "velocity": 0.29133858267716534
        },
        {
          "duration": 0.03488372093023262,
          "durationTicks": 3,
          "midi": 41,
          "name": "F2",
          "ticks": 555,
          "time": 6.453488372093023,
          "velocity": 0.29133858267716534
        },
        {
          "duration": 0.058139534883721034,
          "durationTicks": 5,
          "midi": 76,
          "name": "E5",
          "ticks": 558,
          "time": 6.488372093023256,
          "velocity": 0.13385826771653545
        },
        {
          "duration": 0.06976744186046524,
          "durationTicks": 6,
          "midi": 64,
          "name": "E4",
          "ticks": 560,
          "time": 6.511627906976744,
          "velocity": 0.1889763779527559
        },
        {
          "duration": 0.20930232558139572,
          "durationTicks": 18,
          "midi": 52,
          "name": "E3",
          "ticks": 562,
          "time": 6.534883720930233,
          "velocity": 0.30708661417322836
        },
        {
          "duration": 0.023255813953488413,
          "durationTicks": 2,
          "midi": 39,
          "name": "D#2",
          "ticks": 563,
          "time": 6.546511627906977,
          "velocity": 0.30708661417322836
        },
        {
          "duration": 0.03488372093023262,
          "durationTicks": 3,
          "midi": 40,
          "name": "E2",
          "ticks": 565,
          "time": 6.569767441860465,
          "velocity": 0.3228346456692913
        },
        {
          "duration": 0.162790697674418,
          "durationTicks": 14,
          "midi": 40,
          "name": "E2",
          "ticks": 569,
          "time": 6.616279069767442,
          "velocity": 0.33070866141732286
        },
        {
          "duration": 0.25581395348837166,
          "durationTicks": 22,
          "midi": 59,
          "name": "B3",
          "ticks": 571,
          "time": 6.6395348837209305,
          "velocity": 0.2047244094488189
        },
        {
          "duration": 0.23255813953488325,
          "durationTicks": 20,
          "midi": 78,
          "name": "F#5",
          "ticks": 571,
          "time": 6.6395348837209305,
          "velocity": 0.1968503937007874
        },
        {
          "duration": 0.1627906976744189,
          "durationTicks": 14,
          "midi": 40,
          "name": "E2",
          "ticks": 584,
          "time": 6.790697674418604,
          "velocity": 0.3228346456692913
        },
        {
          "duration": 0.04651162790697683,
          "durationTicks": 4,
          "midi": 83,
          "name": "B5",
          "ticks": 597,
          "time": 6.941860465116279,
          "velocity": 0.15748031496062992
        },
        {
          "duration": 0.24418604651162834,
          "durationTicks": 21,
          "midi": 64,
          "name": "E4",
          "ticks": 599,
          "time": 6.965116279069767,
          "velocity": 0.18110236220472442
        },
        {
          "duration": 0.06976744186046524,
          "durationTicks": 6,
          "midi": 72,
          "name": "C5",
          "ticks": 599,
          "time": 6.965116279069767,
          "velocity": 0.11811023622047244
        },
        {
          "duration": 0.20930232558139572,
          "durationTicks": 18,
          "midi": 59,
          "name": "B3",
          "ticks": 601,
          "time": 6.988372093023256,
          "velocity": 0.1889763779527559
        },
        {
          "duration": 0.26744186046511587,
          "durationTicks": 23,
          "midi": 67,
          "name": "G4",
          "ticks": 601,
          "time": 6.988372093023256,
          "velocity": 0.2125984251968504
        },
        {
          "duration": 0.04651162790697683,
          "durationTicks": 4,
          "midi": 47,
          "name": "B2",
          "ticks": 602,
          "time": 7,
          "velocity": 0.29133858267716534
        },
        {
          "duration": 0.03488372093023262,
          "durationTicks": 3,
          "midi": 40,
          "name": "E2",
          "ticks": 605,
          "time": 7.034883720930233,
          "velocity": 0.29133858267716534
        },
        {
          "duration": 0.03488372093023262,
          "durationTicks": 3,
          "midi": 90,
          "name": "F#6",
          "ticks": 606,
          "time": 7.046511627906977,
          "velocity": 0.12598425196850394
        },
        {
          "duration": 0.03488372093023262,
          "durationTicks": 3,
          "midi": 40,
          "name": "E2",
          "ticks": 609,
          "time": 7.0813953488372094,
          "velocity": 0.2992125984251969
        },
        {
          "duration": 0.04651162790697683,
          "durationTicks": 4,
          "midi": 47,
          "name": "B2",
          "ticks": 611,
          "time": 7.104651162790698,
          "velocity": 0.28346456692913385
        },
        {
          "duration": 0.04651162790697683,
          "durationTicks": 4,
          "midi": 78,
          "name": "F#5",
          "ticks": 614,
          "time": 7.1395348837209305,
          "velocity": 0.07086614173228346
        },
        {
          "duration": 0.03488372093023262,
          "durationTicks": 3,
          "midi": 40,
          "name": "E2",
          "ticks": 617,
          "time": 7.174418604651163,
          "velocity": 0.2992125984251969
        },
        {
          "duration": 0.023255813953488413,
          "durationTicks": 2,
          "midi": 52,
          "name": "E3",
          "ticks": 620,
          "time": 7.209302325581396,
          "velocity": 0.2677165354330709
        },
        {
          "duration": 0.03488372093023173,
          "durationTicks": 3,
          "midi": 40,
          "name": "E2",
          "ticks": 621,
          "time": 7.22093023255814,
          "velocity": 0.30708661417322836
        },
        {
          "duration": 0.03488372093023173,
          "durationTicks": 3,
          "midi": 57,
          "name": "A3",
          "ticks": 623,
          "time": 7.244186046511628,
          "velocity": 0.2125984251968504
        },
        {
          "duration": 0.03488372093023262,
          "durationTicks": 3,
          "midi": 52,
          "name": "E3",
          "ticks": 624,
          "time": 7.255813953488372,
          "velocity": 0.23622047244094488
        },
        {
          "duration": 0.04651162790697683,
          "durationTicks": 4,
          "midi": 40,
          "name": "E2",
          "ticks": 625,
          "time": 7.267441860465116,
          "velocity": 0.30708661417322836
        },
        {
          "duration": 0.023255813953488413,
          "durationTicks": 2,
          "midi": 51,
          "name": "D#3",
          "ticks": 627,
          "time": 7.290697674418604,
          "velocity": 0.2440944881889764
        },
        {
          "duration": 0.023255813953488413,
          "durationTicks": 2,
          "midi": 47,
          "name": "B2",
          "ticks": 629,
          "time": 7.313953488372093,
          "velocity": 0.25984251968503935
        },
        {
          "duration": 0.03488372093023262,
          "durationTicks": 3,
          "midi": 55,
          "name": "G3",
          "ticks": 631,
          "time": 7.337209302325581,
          "velocity": 0.2755905511811024
        },
        {
          "duration": 0.023255813953488413,
          "durationTicks": 2,
          "midi": 45,
          "name": "A2",
          "ticks": 638,
          "time": 7.4186046511627906,
          "velocity": 0.33858267716535434
        },
        {
          "duration": 0.058139534883721034,
          "durationTicks": 5,
          "midi": 71,
          "name": "B4",
          "ticks": 638,
          "time": 7.4186046511627906,
          "velocity": 0.10236220472440945
        },
        {
          "duration": 0.03488372093023262,
          "durationTicks": 3,
          "midi": 76,
          "name": "E5",
          "ticks": 638,
          "time": 7.4186046511627906,
          "velocity": 0.25196850393700787
        },
        {
          "duration": 0.1511627906976747,
          "durationTicks": 13,
          "midi": 78,
          "name": "F#5",
          "ticks": 639,
          "time": 7.430232558139535,
          "velocity": 0.18110236220472442
        },
        {
          "duration": 0.023255813953488413,
          "durationTicks": 2,
          "midi": 53,
          "name": "F3",
          "ticks": 640,
          "time": 7.441860465116279,
          "velocity": 0.31496062992125984
        },
        {
          "duration": 0.023255813953488413,
          "durationTicks": 2,
          "midi": 33,
          "name": "A1",
          "ticks": 641,
          "time": 7.453488372093023,
          "velocity": 0.33070866141732286
        },
        {
          "duration": 0.10465116279069786,
          "durationTicks": 9,
          "midi": 66,
          "name": "F#4",
          "ticks": 641,
          "time": 7.453488372093023,
          "velocity": 0.10236220472440945
        },
        {
          "duration": 0.04651162790697683,
          "durationTicks": 4,
          "midi": 47,
          "name": "B2",
          "ticks": 642,
          "time": 7.465116279069767,
          "velocity": 0.2125984251968504
        },
        {
          "duration": 0.12790697674418627,
          "durationTicks": 11,
          "midi": 54,
          "name": "F#3",
          "ticks": 642,
          "time": 7.465116279069767,
          "velocity": 0.30708661417322836
        },
        {
          "duration": 0.11627906976744207,
          "durationTicks": 10,
          "midi": 59,
          "name": "B3",
          "ticks": 642,
          "time": 7.465116279069767,
          "velocity": 0.2204724409448819
        },
        {
          "duration": 0.2790697674418601,
          "durationTicks": 24,
          "midi": 35,
          "name": "B1",
          "ticks": 643,
          "time": 7.476744186046512,
          "velocity": 0.31496062992125984
        },
        {
          "duration": 0.058139534883721034,
          "durationTicks": 5,
          "midi": 54,
          "name": "F#3",
          "ticks": 654,
          "time": 7.604651162790698,
          "velocity": 0.2047244094488189
        },
        {
          "duration": 0.03488372093023262,
          "durationTicks": 3,
          "midi": 67,
          "name": "G4",
          "ticks": 658,
          "time": 7.651162790697675,
          "velocity": 0.08661417322834646
        },
        {
          "duration": 0.09302325581395365,
          "durationTicks": 8,
          "midi": 71,
          "name": "B4",
          "ticks": 658,
          "time": 7.651162790697675,
          "velocity": 0.2047244094488189
        },
        {
          "duration": 0.023255813953488413,
          "durationTicks": 2,
          "midi": 35,
          "name": "B1",
          "ticks": 668,
          "time": 7.767441860465116,
          "velocity": 0.28346456692913385
        },
        {
          "duration": 0.03488372093023262,
          "durationTicks": 3,
          "midi": 66,
          "name": "F#4",
          "ticks": 668,
          "time": 7.767441860465116,
          "velocity": 0.09448818897637795
        },
        {
          "duration": 0.023255813953488413,
          "durationTicks": 2,
          "midi": 35,
          "name": "B1",
          "ticks": 671,
          "time": 7.8023255813953485,
          "velocity": 0.28346456692913385
        },
        {
          "duration": 0.06976744186046524,
          "durationTicks": 6,
          "midi": 78,
          "name": "F#5",
          "ticks": 671,
          "time": 7.8023255813953485,
          "velocity": 0.14960629921259844
        },
        {
          "duration": 0.04651162790697683,
          "durationTicks": 4,
          "midi": 35,
          "name": "B1",
          "ticks": 674,
          "time": 7.837209302325581,
          "velocity": 0.2677165354330709
        },
        {
          "duration": 0.023255813953488413,
          "durationTicks": 2,
          "midi": 40,
          "name": "E2",
          "ticks": 679,
          "time": 7.895348837209302,
          "velocity": 0.31496062992125984
        },
        {
          "duration": 0.08139534883720945,
          "durationTicks": 7,
          "midi": 72,
          "name": "C5",
          "ticks": 679,
          "time": 7.895348837209302,
          "velocity": 0.2440944881889764
        },
        {
          "duration": 0.023255813953488413,
          "durationTicks": 2,
          "midi": 36,
          "name": "C2",
          "ticks": 682,
          "time": 7.930232558139535,
          "velocity": 0.3700787401574803
        },
        {
          "duration": 0.04651162790697683,
          "durationTicks": 4,
          "midi": 71,
          "name": "B4",
          "ticks": 690,
          "time": 8.023255813953488,
          "velocity": 0.11811023622047244
        },
        {
          "duration": 0.10465116279069875,
          "durationTicks": 9,
          "midi": 78,
          "name": "F#5",
          "ticks": 691,
          "time": 8.034883720930232,
          "velocity": 0.16535433070866143
        },
        {
          "duration": 0.03488372093023351,
          "durationTicks": 3,
          "midi": 58,
          "name": "A#3",
          "ticks": 695,
          "time": 8.081395348837209,
          "velocity": 0.1968503937007874
        },
        {
          "duration": 0.03488372093023351,
          "durationTicks": 3,
          "midi": 47,
          "name": "B2",
          "ticks": 701,
          "time": 8.151162790697674,
          "velocity": 0.33858267716535434
        },
        {
          "duration": 0.023255813953488413,
          "durationTicks": 2,
          "midi": 31,
          "name": "G1",
          "ticks": 703,
          "time": 8.174418604651162,
          "velocity": 0.2440944881889764
        },
        {
          "duration": 0.023255813953488413,
          "durationTicks": 2,
          "midi": 47,
          "name": "B2",
          "ticks": 708,
          "time": 8.232558139534884,
          "velocity": 0.28346456692913385
        },
        {
          "duration": 0.05813953488372192,
          "durationTicks": 5,
          "midi": 47,
          "name": "B2",
          "ticks": 711,
          "time": 8.267441860465116,
          "velocity": 0.3228346456692913
        },
        {
          "duration": 0.08139534883720856,
          "durationTicks": 7,
          "midi": 66,
          "name": "F#4",
          "ticks": 712,
          "time": 8.279069767441861,
          "velocity": 0.13385826771653545
        },
        {
          "duration": 0.12790697674418716,
          "durationTicks": 11,
          "midi": 54,
          "name": "F#3",
          "ticks": 719,
          "time": 8.36046511627907,
          "velocity": 0.2677165354330709
        },
        {
          "duration": 0.03488372093023351,
          "durationTicks": 3,
          "midi": 67,
          "name": "G4",
          "ticks": 719,
          "time": 8.36046511627907,
          "velocity": 0.15748031496062992
        },
        {
          "duration": 0.05813953488372192,
          "durationTicks": 5,
          "midi": 99,
          "name": "D#7",
          "ticks": 719,
          "time": 8.36046511627907,
          "velocity": 0.10236220472440945
        },
        {
          "duration": 0.023255813953488413,
          "durationTicks": 2,
          "midi": 44,
          "name": "G#2",
          "ticks": 720,
          "time": 8.372093023255815,
          "velocity": 0.3700787401574803
        },
        {
          "duration": 0.058139534883720145,
          "durationTicks": 5,
          "midi": 71,
          "name": "B4",
          "ticks": 720,
          "time": 8.372093023255815,
          "velocity": 0.13385826771653545
        },
        {
          "duration": 0.09302325581395365,
          "durationTicks": 8,
          "midi": 59,
          "name": "B3",
          "ticks": 721,
          "time": 8.383720930232558,
          "velocity": 0.2204724409448819
        },
        {
          "duration": 0.3023255813953476,
          "durationTicks": 26,
          "midi": 35,
          "name": "B1",
          "ticks": 724,
          "time": 8.418604651162791,
          "velocity": 0.29133858267716534
        },
        {
          "duration": 0.058139534883720145,
          "durationTicks": 5,
          "midi": 71,
          "name": "B4",
          "ticks": 729,
          "time": 8.476744186046512,
          "velocity": 0.13385826771653545
        },
        {
          "duration": 0.10465116279069697,
          "durationTicks": 9,
          "midi": 59,
          "name": "B3",
          "ticks": 730,
          "time": 8.488372093023257,
          "velocity": 0.2677165354330709
        },
        {
          "duration": 0.06976744186046524,
          "durationTicks": 6,
          "midi": 54,
          "name": "F#3",
          "ticks": 732,
          "time": 8.511627906976743,
          "velocity": 0.14960629921259844
        },
        {
          "duration": 0.08139534883721034,
          "durationTicks": 7,
          "midi": 78,
          "name": "F#5",
          "ticks": 732,
          "time": 8.511627906976743,
          "velocity": 0.14173228346456693
        },
        {
          "duration": 0.04651162790697683,
          "durationTicks": 4,
          "midi": 54,
          "name": "F#3",
          "ticks": 739,
          "time": 8.593023255813954,
          "velocity": 0.12598425196850394
        },
        {
          "duration": 0.03488372093023351,
          "durationTicks": 3,
          "midi": 67,
          "name": "G4",
          "ticks": 742,
          "time": 8.627906976744185,
          "velocity": 0.18110236220472442
        },
        {
          "duration": 0.06976744186046524,
          "durationTicks": 6,
          "midi": 57,
          "name": "A3",
          "ticks": 743,
          "time": 8.63953488372093,
          "velocity": 0.15748031496062992
        },
        {
          "duration": 0.058139534883720145,
          "durationTicks": 5,
          "midi": 35,
          "name": "B1",
          "ticks": 751,
          "time": 8.732558139534884,
          "velocity": 0.25984251968503935
        },
        {
          "duration": 0.058139534883720145,
          "durationTicks": 5,
          "midi": 71,
          "name": "B4",
          "ticks": 751,
          "time": 8.732558139534884,
          "velocity": 0.07874015748031496
        },
        {
          "duration": 0.04651162790697683,
          "durationTicks": 4,
          "midi": 78,
          "name": "F#5",
          "ticks": 752,
          "time": 8.744186046511627,
          "velocity": 0.11023622047244094
        },
        {
          "duration": 0.06976744186046524,
          "durationTicks": 6,
          "midi": 63,
          "name": "D#4",
          "ticks": 753,
          "time": 8.755813953488373,
          "velocity": 0.07086614173228346
        },
        {
          "duration": 0.023255813953488413,
          "durationTicks": 2,
          "midi": 40,
          "name": "E2",
          "ticks": 756,
          "time": 8.790697674418604,
          "velocity": 0.2755905511811024
        },
        {
          "duration": 0.05813953488372192,
          "durationTicks": 5,
          "midi": 88,
          "name": "E6",
          "ticks": 760,
          "time": 8.837209302325581,
          "velocity": 0.07086614173228346
        },
        {
          "duration": 0.10465116279069697,
          "durationTicks": 9,
          "midi": 71,
          "name": "B4",
          "ticks": 770,
          "time": 8.953488372093023,
          "velocity": 0.11811023622047244
        },
        {
          "duration": 0.08139534883720856,
          "durationTicks": 7,
          "midi": 78,
          "name": "F#5",
          "ticks": 771,
          "time": 8.965116279069768,
          "velocity": 0.1732283464566929
        },
        {
          "duration": 0.04651162790697505,
          "durationTicks": 4,
          "midi": 63,
          "name": "D#4",
          "ticks": 773,
          "time": 8.988372093023257,
          "velocity": 0.10236220472440945
        },
        {
          "duration": 0.03488372093023173,
          "durationTicks": 3,
          "midi": 57,
          "name": "A3",
          "ticks": 774,
          "time": 9,
          "velocity": 0.23622047244094488
        },
        {
          "duration": 0.023255813953488413,
          "durationTicks": 2,
          "midi": 45,
          "name": "A2",
          "ticks": 777,
          "time": 9.034883720930232,
          "velocity": 0.3779527559055118
        },
        {
          "duration": 0.03488372093023173,
          "durationTicks": 3,
          "midi": 70,
          "name": "A#4",
          "ticks": 778,
          "time": 9.046511627906977,
          "velocity": 0.18110236220472442
        },
        {
          "duration": 0.023255813953488413,
          "durationTicks": 2,
          "midi": 53,
          "name": "F3",
          "ticks": 780,
          "time": 9.069767441860465,
          "velocity": 0.25196850393700787
        },
        {
          "duration": 0.08139534883720856,
          "durationTicks": 7,
          "midi": 85,
          "name": "C#6",
          "ticks": 780,
          "time": 9.069767441860465,
          "velocity": 0.07874015748031496
        },
        {
          "duration": 0.4767441860465116,
          "durationTicks": 41,
          "midi": 78,
          "name": "F#5",
          "ticks": 781,
          "time": 9.081395348837209,
          "velocity": 0.2283464566929134
        },
        {
          "duration": 0.023255813953488413,
          "durationTicks": 2,
          "midi": 45,
          "name": "A2",
          "ticks": 787,
          "time": 9.151162790697674,
          "velocity": 0.4094488188976378
        },
        {
          "duration": 0.023255813953488413,
          "durationTicks": 2,
          "midi": 32,
          "name": "G#1",
          "ticks": 789,
          "time": 9.174418604651162,
          "velocity": 0.2755905511811024
        },
        {
          "duration": 0.023255813953488413,
          "durationTicks": 2,
          "midi": 47,
          "name": "B2",
          "ticks": 791,
          "time": 9.19767441860465,
          "velocity": 0.23622047244094488
        },
        {
          "duration": 0.06976744186046524,
          "durationTicks": 6,
          "midi": 66,
          "name": "F#4",
          "ticks": 793,
          "time": 9.220930232558139,
          "velocity": 0.11811023622047244
        },
        {
          "duration": 0.023255813953488413,
          "durationTicks": 2,
          "midi": 54,
          "name": "F#3",
          "ticks": 799,
          "time": 9.290697674418604,
          "velocity": 0.2440944881889764
        },
        {
          "duration": 0.023255813953488413,
          "durationTicks": 2,
          "midi": 47,
          "name": "B2",
          "ticks": 800,
          "time": 9.30232558139535,
          "velocity": 0.36220472440944884
        },
        {
          "duration": 0.13953488372093048,
          "durationTicks": 12,
          "midi": 66,
          "name": "F#4",
          "ticks": 801,
          "time": 9.313953488372093,
          "velocity": 0.14173228346456693
        },
        {
          "duration": 0.023255813953488413,
          "durationTicks": 2,
          "midi": 46,
          "name": "A#2",
          "ticks": 802,
          "time": 9.325581395348838,
          "velocity": 0.33858267716535434
        },
        {
          "duration": 0.058139534883720145,
          "durationTicks": 5,
          "midi": 54,
          "name": "F#3",
          "ticks": 802,
          "time": 9.325581395348838,
          "velocity": 0.23622047244094488
        },
        {
          "duration": 0.1860465116279073,
          "durationTicks": 16,
          "midi": 35,
          "name": "B1",
          "ticks": 803,
          "time": 9.337209302325581,
          "velocity": 0.3543307086614173
        },
        {
          "duration": 0.023255813953488413,
          "durationTicks": 2,
          "midi": 58,
          "name": "A#3",
          "ticks": 811,
          "time": 9.430232558139535,
          "velocity": 0.2283464566929134
        },
        {
          "duration": 0.04651162790697683,
          "durationTicks": 4,
          "midi": 54,
          "name": "F#3",
          "ticks": 815,
          "time": 9.476744186046512,
          "velocity": 0.13385826771653545
        },
        {
          "duration": 0.09302325581395365,
          "durationTicks": 8,
          "midi": 71,
          "name": "B4",
          "ticks": 819,
          "time": 9.523255813953488,
          "velocity": 0.1732283464566929
        },
        {
          "duration": 0.023255813953488413,
          "durationTicks": 2,
          "midi": 35,
          "name": "B1",
          "ticks": 820,
          "time": 9.534883720930232,
          "velocity": 0.2755905511811024
        },
        {
          "duration": 0.023255813953488413,
          "durationTicks": 2,
          "midi": 46,
          "name": "A#2",
          "ticks": 820,
          "time": 9.534883720930232,
          "velocity": 0.25196850393700787
        },
        {
          "duration": 0.06976744186046524,
          "durationTicks": 6,
          "midi": 99,
          "name": "D#7",
          "ticks": 820,
          "time": 9.534883720930232,
          "velocity": 0.10236220472440945
        },
        {
          "duration": 0.03488372093023351,
          "durationTicks": 3,
          "midi": 35,
          "name": "B1",
          "ticks": 824,
          "time": 9.581395348837209,
          "velocity": 0.25984251968503935
        },
        {
          "duration": 0.023255813953488413,
          "durationTicks": 2,
          "midi": 35,
          "name": "B1",
          "ticks": 828,
          "time": 9.627906976744185,
          "velocity": 0.2677165354330709
        },
        {
          "duration": 0.08139534883721034,
          "durationTicks": 7,
          "midi": 78,
          "name": "F#5",
          "ticks": 830,
          "time": 9.651162790697674,
          "velocity": 0.11023622047244094
        },
        {
          "duration": 0.09302325581395365,
          "durationTicks": 8,
          "midi": 35,
          "name": "B1",
          "ticks": 831,
          "time": 9.662790697674419,
          "velocity": 0.25984251968503935
        },
        {
          "duration": 0.03488372093023173,
          "durationTicks": 3,
          "midi": 71,
          "name": "B4",
          "ticks": 831,
          "time": 9.662790697674419,
          "velocity": 0.07086614173228346
        },
        {
          "duration": 0.08139534883721034,
          "durationTicks": 7,
          "midi": 72,
          "name": "C5",
          "ticks": 840,
          "time": 9.767441860465116,
          "velocity": 0.25984251968503935
        },
        {
          "duration": 0.023255813953488413,
          "durationTicks": 2,
          "midi": 44,
          "name": "G#2",
          "ticks": 842,
          "time": 9.790697674418604,
          "velocity": 0.2440944881889764
        },
        {
          "duration": 0.03488372093023173,
          "durationTicks": 3,
          "midi": 72,
          "name": "C5",
          "ticks": 849,
          "time": 9.872093023255815,
          "velocity": 0.14173228346456693
        },
        {
          "duration": 0.03488372093023351,
          "durationTicks": 3,
          "midi": 56,
          "name": "G#3",
          "ticks": 850,
          "time": 9.883720930232558,
          "velocity": 0.16535433070866143
        },
        {
          "duration": 0.09302325581395365,
          "durationTicks": 8,
          "midi": 71,
          "name": "B4",
          "ticks": 852,
          "time": 9.906976744186046,
          "velocity": 0.12598425196850394
        },
        {
          "duration": 0.08139534883720856,
          "durationTicks": 7,
          "midi": 78,
          "name": "F#5",
          "ticks": 853,
          "time": 9.918604651162791,
          "velocity": 0.14960629921259844
        },
        {
          "duration": 0.03488372093023351,
          "durationTicks": 3,
          "midi": 57,
          "name": "A3",
          "ticks": 856,
          "time": 9.953488372093023,
          "velocity": 0.1968503937007874
        },
        {
          "duration": 0.023255813953486637,
          "durationTicks": 2,
          "midi": 55,
          "name": "G3",
          "ticks": 859,
          "time": 9.988372093023257,
          "velocity": 0.2283464566929134
        },
        {
          "duration": 0.06976744186046524,
          "durationTicks": 6,
          "midi": 48,
          "name": "C3",
          "ticks": 862,
          "time": 10.023255813953488,
          "velocity": 0.1889763779527559
        },
        {
          "duration": 0.04651162790697683,
          "durationTicks": 4,
          "midi": 57,
          "name": "A3",
          "ticks": 864,
          "time": 10.046511627906977,
          "velocity": 0.11811023622047244
        },
        {
          "duration": 0.04651162790697683,
          "durationTicks": 4,
          "midi": 63,
          "name": "D#4",
          "ticks": 868,
          "time": 10.093023255813954,
          "velocity": 0.11811023622047244
        },
        {
          "duration": 0.023255813953488413,
          "durationTicks": 2,
          "midi": 45,
          "name": "A2",
          "ticks": 870,
          "time": 10.116279069767442,
          "velocity": 0.3858267716535433
        },
        {
          "duration": 0.04651162790697683,
          "durationTicks": 4,
          "midi": 71,
          "name": "B4",
          "ticks": 870,
          "time": 10.116279069767442,
          "velocity": 0.08661417322834646
        },
        {
          "duration": 0.08139534883720856,
          "durationTicks": 7,
          "midi": 59,
          "name": "B3",
          "ticks": 872,
          "time": 10.13953488372093,
          "velocity": 0.13385826771653545
        },
        {
          "duration": 0.06976744186046524,
          "durationTicks": 6,
          "midi": 78,
          "name": "F#5",
          "ticks": 872,
          "time": 10.13953488372093,
          "velocity": 0.11023622047244094
        },
        {
          "duration": 0.023255813953488413,
          "durationTicks": 2,
          "midi": 47,
          "name": "B2",
          "ticks": 873,
          "time": 10.151162790697674,
          "velocity": 0.2677165354330709
        },
        {
          "duration": 0.03488372093023351,
          "durationTicks": 3,
          "midi": 45,
          "name": "A2",
          "ticks": 879,
          "time": 10.220930232558139,
          "velocity": 0.4015748031496063
        },
        {
          "duration": 0.08139534883721034,
          "durationTicks": 7,
          "midi": 71,
          "name": "B4",
          "ticks": 879,
          "time": 10.220930232558139,
          "velocity": 0.1968503937007874
        },
        {
          "duration": 0.20930232558139572,
          "durationTicks": 18,
          "midi": 54,
          "name": "F#3",
          "ticks": 881,
          "time": 10.244186046511627,
          "velocity": 0.2755905511811024
        },
        {
          "duration": 0.023255813953488413,
          "durationTicks": 2,
          "midi": 47,
          "name": "B2",
          "ticks": 882,
          "time": 10.255813953488373,
          "velocity": 0.28346456692913385
        },
        {
          "duration": 0.24418604651162745,
          "durationTicks": 21,
          "midi": 47,
          "name": "B2",
          "ticks": 885,
          "time": 10.290697674418604,
          "velocity": 0.28346456692913385
        },
        {
          "duration": 0.03488372093023173,
          "durationTicks": 3,
          "midi": 35,
          "name": "B1",
          "ticks": 886,
          "time": 10.30232558139535,
          "velocity": 0.28346456692913385
        },
        {
          "duration": 0.12790697674418539,
          "durationTicks": 11,
          "midi": 35,
          "name": "B1",
          "ticks": 890,
          "time": 10.348837209302326,
          "velocity": 0.2755905511811024
        },
        {
          "duration": 0.10465116279069697,
          "durationTicks": 9,
          "midi": 78,
          "name": "F#5",
          "ticks": 892,
          "time": 10.372093023255815,
          "velocity": 0.14173228346456693
        },
        {
          "duration": 0.09302325581395365,
          "durationTicks": 8,
          "midi": 67,
          "name": "G4",
          "ticks": 899,
          "time": 10.453488372093023,
          "velocity": 0.2204724409448819
        },
        {
          "duration": 0.023255813953486637,
          "durationTicks": 2,
          "midi": 35,
          "name": "B1",
          "ticks": 902,
          "time": 10.488372093023257,
          "velocity": 0.2677165354330709
        },
        {
          "duration": 0.023255813953488413,
          "durationTicks": 2,
          "midi": 35,
          "name": "B1",
          "ticks": 905,
          "time": 10.523255813953488,
          "velocity": 0.25984251968503935
        },
        {
          "duration": 0.13953488372093048,
          "durationTicks": 12,
          "midi": 47,
          "name": "B2",
          "ticks": 907,
          "time": 10.546511627906977,
          "velocity": 0.30708661417322836
        },
        {
          "duration": 0.05813953488372192,
          "durationTicks": 5,
          "midi": 35,
          "name": "B1",
          "ticks": 908,
          "time": 10.55813953488372,
          "velocity": 0.25196850393700787
        },
        {
          "duration": 0.04651162790697683,
          "durationTicks": 4,
          "midi": 71,
          "name": "B4",
          "ticks": 911,
          "time": 10.593023255813954,
          "velocity": 0.11023622047244094
        },
        {
          "duration": 0.06976744186046524,
          "durationTicks": 6,
          "midi": 78,
          "name": "F#5",
          "ticks": 912,
          "time": 10.604651162790697,
          "velocity": 0.12598425196850394
        },
        {
          "duration": 0.03488372093023173,
          "durationTicks": 3,
          "midi": 54,
          "name": "F#3",
          "ticks": 913,
          "time": 10.616279069767442,
          "velocity": 0.2125984251968504
        },
        {
          "duration": 0.03488372093023351,
          "durationTicks": 3,
          "midi": 35,
          "name": "B1",
          "ticks": 916,
          "time": 10.651162790697674,
          "velocity": 0.2440944881889764
        },
        {
          "duration": 0.03488372093023173,
          "durationTicks": 3,
          "midi": 54,
          "name": "F#3",
          "ticks": 917,
          "time": 10.662790697674419,
          "velocity": 0.14960629921259844
        },
        {
          "duration": 0.03488372093023173,
          "durationTicks": 3,
          "midi": 48,
          "name": "C3",
          "ticks": 919,
          "time": 10.686046511627907,
          "velocity": 0.25196850393700787
        },
        {
          "duration": 0.03488372093023173,
          "durationTicks": 3,
          "midi": 81,
          "name": "A5",
          "ticks": 919,
          "time": 10.686046511627907,
          "velocity": 0.14960629921259844
        },
        {
          "duration": 0.03488372093023351,
          "durationTicks": 3,
          "midi": 93,
          "name": "A6",
          "ticks": 924,
          "time": 10.744186046511627,
          "velocity": 0.11811023622047244
        },
        {
          "duration": 0.08139534883721034,
          "durationTicks": 7,
          "midi": 71,
          "name": "B4",
          "ticks": 930,
          "time": 10.813953488372093,
          "velocity": 0.12598425196850394
        },
        {
          "duration": 0.08139534883720856,
          "durationTicks": 7,
          "midi": 78,
          "name": "F#5",
          "ticks": 931,
          "time": 10.825581395348838,
          "velocity": 0.14960629921259844
        },
        {
          "duration": 0.03488372093023173,
          "durationTicks": 3,
          "midi": 63,
          "name": "D#4",
          "ticks": 933,
          "time": 10.848837209302326,
          "velocity": 0.08661417322834646
        },
        {
          "duration": 0.03488372093023351,
          "durationTicks": 3,
          "midi": 57,
          "name": "A3",
          "ticks": 934,
          "time": 10.86046511627907,
          "velocity": 0.14960629921259844
        },
        {
          "duration": 0.023255813953488413,
          "durationTicks": 2,
          "midi": 64,
          "name": "E4",
          "ticks": 939,
          "time": 10.918604651162791,
          "velocity": 0.23622047244094488
        },
        {
          "duration": 0.22093023255813904,
          "durationTicks": 19,
          "midi": 78,
          "name": "F#5",
          "ticks": 940,
          "time": 10.930232558139535,
          "velocity": 0.2283464566929134
        },
        {
          "duration": 0.08139534883720856,
          "durationTicks": 7,
          "midi": 85,
          "name": "C#6",
          "ticks": 940,
          "time": 10.930232558139535,
          "velocity": 0.09448818897637795
        },
        {
          "duration": 0.03488372093023173,
          "durationTicks": 3,
          "midi": 63,
          "name": "D#4",
          "ticks": 941,
          "time": 10.94186046511628,
          "velocity": 0.14960629921259844
        },
        {
          "duration": 0.09302325581395188,
          "durationTicks": 8,
          "midi": 66,
          "name": "F#4",
          "ticks": 941,
          "time": 10.94186046511628,
          "velocity": 0.1732283464566929
        },
        {
          "duration": 0.06976744186046346,
          "durationTicks": 6,
          "midi": 57,
          "name": "A3",
          "ticks": 945,
          "time": 10.988372093023257,
          "velocity": 0.2204724409448819
        },
        {
          "duration": 0.03488372093023351,
          "durationTicks": 3,
          "midi": 47,
          "name": "B2",
          "ticks": 951,
          "time": 11.05813953488372,
          "velocity": 0.33858267716535434
        },
        {
          "duration": 0.023255813953488413,
          "durationTicks": 2,
          "midi": 48,
          "name": "C3",
          "ticks": 954,
          "time": 11.093023255813954,
          "velocity": 0.25984251968503935
        },
        {
          "duration": 0.023255813953488413,
          "durationTicks": 2,
          "midi": 57,
          "name": "A3",
          "ticks": 959,
          "time": 11.151162790697674,
          "velocity": 0.2283464566929134
        },
        {
          "duration": 0.03488372093023173,
          "durationTicks": 3,
          "midi": 71,
          "name": "B4",
          "ticks": 960,
          "time": 11.162790697674419,
          "velocity": 0.12598425196850394
        },
        {
          "duration": 0.023255813953488413,
          "durationTicks": 2,
          "midi": 53,
          "name": "F3",
          "ticks": 961,
          "time": 11.174418604651162,
          "velocity": 0.23622047244094488
        },
        {
          "duration": 0.23255813953488413,
          "durationTicks": 20,
          "midi": 78,
          "name": "F#5",
          "ticks": 961,
          "time": 11.174418604651162,
          "velocity": 0.18110236220472442
        },
        {
          "duration": 0.24418604651162745,
          "durationTicks": 21,
          "midi": 47,
          "name": "B2",
          "ticks": 962,
          "time": 11.186046511627907,
          "velocity": 0.33070866141732286
        },
        {
          "duration": 0.11627906976744207,
          "durationTicks": 10,
          "midi": 35,
          "name": "B1",
          "ticks": 965,
          "time": 11.220930232558139,
          "velocity": 0.3228346456692913
        },
        {
          "duration": 0.27906976744186096,
          "durationTicks": 24,
          "midi": 66,
          "name": "F#4",
          "ticks": 967,
          "time": 11.244186046511627,
          "velocity": 0.14173228346456693
        },
        {
          "duration": 0.04651162790697683,
          "durationTicks": 4,
          "midi": 54,
          "name": "F#3",
          "ticks": 970,
          "time": 11.279069767441861,
          "velocity": 0.14960629921259844
        },
        {
          "duration": 0.03488372093023173,
          "durationTicks": 3,
          "midi": 71,
          "name": "B4",
          "ticks": 972,
          "time": 11.30232558139535,
          "velocity": 0.07086614173228346
        },
        {
          "duration": 0.023255813953488413,
          "durationTicks": 2,
          "midi": 35,
          "name": "B1",
          "ticks": 976,
          "time": 11.348837209302326,
          "velocity": 0.28346456692913385
        },
        {
          "duration": 0.04651162790697683,
          "durationTicks": 4,
          "midi": 54,
          "name": "F#3",
          "ticks": 977,
          "time": 11.36046511627907,
          "velocity": 0.10236220472440945
        },
        {
          "duration": 0.023255813953488413,
          "durationTicks": 2,
          "midi": 35,
          "name": "B1",
          "ticks": 979,
          "time": 11.383720930232558,
          "velocity": 0.2755905511811024
        },
        {
          "duration": 0.09302325581395365,
          "durationTicks": 8,
          "midi": 71,
          "name": "B4",
          "ticks": 980,
          "time": 11.395348837209303,
          "velocity": 0.18110236220472442
        },
        {
          "duration": 0.06976744186046524,
          "durationTicks": 6,
          "midi": 99,
          "name": "D#7",
          "ticks": 980,
          "time": 11.395348837209303,
          "velocity": 0.07086614173228346
        },
        {
          "duration": 0.11627906976744029,
          "durationTicks": 10,
          "midi": 35,
          "name": "B1",
          "ticks": 982,
          "time": 11.418604651162791,
          "velocity": 0.2755905511811024
        },
        {
          "duration": 0.023255813953488413,
          "durationTicks": 2,
          "midi": 46,
          "name": "A#2",
          "ticks": 983,
          "time": 11.430232558139535,
          "velocity": 0.23622047244094488
        },
        {
          "duration": 0.09302325581395365,
          "durationTicks": 8,
          "midi": 78,
          "name": "F#5",
          "ticks": 992,
          "time": 11.534883720930232,
          "velocity": 0.12598425196850394
        },
        {
          "duration": 0.09302325581395365,
          "durationTicks": 8,
          "midi": 35,
          "name": "B1",
          "ticks": 993,
          "time": 11.546511627906977,
          "velocity": 0.25984251968503935
        },
        {
          "duration": 0.03488372093023351,
          "durationTicks": 3,
          "midi": 59,
          "name": "B3",
          "ticks": 994,
          "time": 11.55813953488372,
          "velocity": 0.2283464566929134
        },
        {
          "duration": 0.06976744186046524,
          "durationTicks": 6,
          "midi": 72,
          "name": "C5",
          "ticks": 1000,
          "time": 11.627906976744185,
          "velocity": 0.2440944881889764
        },
        {
          "duration": 0.03488372093023173,
          "durationTicks": 3,
          "midi": 57,
          "name": "A3",
          "ticks": 1001,
          "time": 11.63953488372093,
          "velocity": 0.23622047244094488
        },
        {
          "duration": 0.03488372093023173,
          "durationTicks": 3,
          "midi": 42,
          "name": "F#2",
          "ticks": 1005,
          "time": 11.686046511627907,
          "velocity": 0.14173228346456693
        },
        {
          "duration": 0.03488372093023351,
          "durationTicks": 3,
          "midi": 71,
          "name": "B4",
          "ticks": 1006,
          "time": 11.69767441860465,
          "velocity": 0.15748031496062992
        },
        {
          "duration": 0.03488372093023173,
          "durationTicks": 3,
          "midi": 72,
          "name": "C5",
          "ticks": 1009,
          "time": 11.732558139534884,
          "velocity": 0.13385826771653545
        },
        {
          "duration": 0.06976744186046524,
          "durationTicks": 6,
          "midi": 59,
          "name": "B3",
          "ticks": 1012,
          "time": 11.767441860465116,
          "velocity": 0.18110236220472442
        },
        {
          "duration": 0.11627906976744207,
          "durationTicks": 10,
          "midi": 78,
          "name": "F#5",
          "ticks": 1012,
          "time": 11.767441860465116,
          "velocity": 0.1732283464566929
        },
        {
          "duration": 0.04651162790697683,
          "durationTicks": 4,
          "midi": 63,
          "name": "D#4",
          "ticks": 1019,
          "time": 11.848837209302326,
          "velocity": 0.15748031496062992
        },
        {
          "duration": 0.03488372093023351,
          "durationTicks": 3,
          "midi": 48,
          "name": "C3",
          "ticks": 1020,
          "time": 11.86046511627907,
          "velocity": 0.23622047244094488
        },
        {
          "duration": 0.03488372093023173,
          "durationTicks": 3,
          "midi": 44,
          "name": "G#2",
          "ticks": 1027,
          "time": 11.94186046511628,
          "velocity": 0.3858267716535433
        },
        {
          "duration": 0.023255813953488413,
          "durationTicks": 2,
          "midi": 34,
          "name": "A#1",
          "ticks": 1032,
          "time": 12,
          "velocity": 0.3464566929133858
        },
        {
          "duration": 0.06976744186046524,
          "durationTicks": 6,
          "midi": 78,
          "name": "F#5",
          "ticks": 1032,
          "time": 12,
          "velocity": 0.11811023622047244
        },
        {
          "duration": 0.04651162790697683,
          "durationTicks": 4,
          "midi": 36,
          "name": "C2",
          "ticks": 1035,
          "time": 12.034883720930232,
          "velocity": 0.29133858267716534
        },
        {
          "duration": 0.058139534883720145,
          "durationTicks": 5,
          "midi": 71,
          "name": "B4",
          "ticks": 1040,
          "time": 12.093023255813954,
          "velocity": 0.14960629921259844
        },
        {
          "duration": 0.10465116279069875,
          "durationTicks": 9,
          "midi": 54,
          "name": "F#3",
          "ticks": 1041,
          "time": 12.104651162790697,
          "velocity": 0.28346456692913385
        },
        {
          "duration": 0.03488372093023351,
          "durationTicks": 3,
          "midi": 99,
          "name": "D#7",
          "ticks": 1041,
          "time": 12.104651162790697,
          "velocity": 0.07874015748031496
        },
        {
          "duration": 0.25581395348837255,
          "durationTicks": 22,
          "midi": 47,
          "name": "B2",
          "ticks": 1042,
          "time": 12.116279069767442,
          "velocity": 0.3464566929133858
        },
        {
          "duration": 0.05813953488372192,
          "durationTicks": 5,
          "midi": 35,
          "name": "B1",
          "ticks": 1045,
          "time": 12.151162790697674,
          "velocity": 0.29133858267716534
        },
        {
          "duration": 0.12790697674418716,
          "durationTicks": 11,
          "midi": 54,
          "name": "F#3",
          "ticks": 1051,
          "time": 12.220930232558139,
          "velocity": 0.25196850393700787
        },
        {
          "duration": 0.04651162790697683,
          "durationTicks": 4,
          "midi": 71,
          "name": "B4",
          "ticks": 1051,
          "time": 12.220930232558139,
          "velocity": 0.09448818897637795
        },
        {
          "duration": 0.12790697674418539,
          "durationTicks": 11,
          "midi": 78,
          "name": "F#5",
          "ticks": 1052,
          "time": 12.232558139534884,
          "velocity": 0.18110236220472442
        },
        {
          "duration": 0.1860465116279073,
          "durationTicks": 16,
          "midi": 35,
          "name": "B1",
          "ticks": 1053,
          "time": 12.244186046511627,
          "velocity": 0.2755905511811024
        },
        {
          "duration": 0.08139534883721034,
          "durationTicks": 7,
          "midi": 67,
          "name": "G4",
          "ticks": 1061,
          "time": 12.337209302325581,
          "velocity": 0.1968503937007874
        },
        {
          "duration": 0.1860465116279073,
          "durationTicks": 16,
          "midi": 47,
          "name": "B2",
          "ticks": 1065,
          "time": 12.383720930232558,
          "velocity": 0.2992125984251969
        },
        {
          "duration": 0.03488372093023351,
          "durationTicks": 3,
          "midi": 57,
          "name": "A3",
          "ticks": 1065,
          "time": 12.383720930232558,
          "velocity": 0.1968503937007874
        },
        {
          "duration": 0.12790697674418539,
          "durationTicks": 11,
          "midi": 35,
          "name": "B1",
          "ticks": 1070,
          "time": 12.44186046511628,
          "velocity": 0.25196850393700787
        },
        {
          "duration": 0.10465116279069697,
          "durationTicks": 9,
          "midi": 78,
          "name": "F#5",
          "ticks": 1070,
          "time": 12.44186046511628,
          "velocity": 0.13385826771653545
        },
        {
          "duration": 0.03488372093023351,
          "durationTicks": 3,
          "midi": 58,
          "name": "A#3",
          "ticks": 1071,
          "time": 12.453488372093023,
          "velocity": 0.2047244094488189
        },
        {
          "duration": 0.06976744186046346,
          "durationTicks": 6,
          "midi": 71,
          "name": "B4",
          "ticks": 1072,
          "time": 12.465116279069768,
          "velocity": 0.07086614173228346
        },
        {
          "duration": 0.06976744186046524,
          "durationTicks": 6,
          "midi": 63,
          "name": "D#4",
          "ticks": 1073,
          "time": 12.476744186046512,
          "velocity": 0.07874015748031496
        },
        {
          "duration": 0.03488372093023351,
          "durationTicks": 3,
          "midi": 58,
          "name": "A#3",
          "ticks": 1078,
          "time": 12.534883720930232,
          "velocity": 0.14173228346456693
        },
        {
          "duration": 0.023255813953488413,
          "durationTicks": 2,
          "midi": 34,
          "name": "A#1",
          "ticks": 1081,
          "time": 12.569767441860465,
          "velocity": 0.25196850393700787
        },
        {
          "duration": 0.05813953488372192,
          "durationTicks": 5,
          "midi": 69,
          "name": "A4",
          "ticks": 1086,
          "time": 12.627906976744185,
          "velocity": 0.08661417322834646
        },
        {
          "duration": 0.023255813953488413,
          "durationTicks": 2,
          "midi": 56,
          "name": "G#3",
          "ticks": 1090,
          "time": 12.674418604651162,
          "velocity": 0.25196850393700787
        },
        {
          "duration": 0.08139534883720856,
          "durationTicks": 7,
          "midi": 71,
          "name": "B4",
          "ticks": 1091,
          "time": 12.686046511627907,
          "velocity": 0.12598425196850394
        },
        {
          "duration": 0.09302325581395365,
          "durationTicks": 8,
          "midi": 57,
          "name": "A3",
          "ticks": 1092,
          "time": 12.69767441860465,
          "velocity": 0.1968503937007874
        },
        {
          "duration": 0.3372093023255811,
          "durationTicks": 29,
          "midi": 78,
          "name": "F#5",
          "ticks": 1093,
          "time": 12.709302325581396,
          "velocity": 0.23622047244094488
        },
        {
          "duration": 0.058139534883720145,
          "durationTicks": 5,
          "midi": 66,
          "name": "F#4",
          "ticks": 1095,
          "time": 12.732558139534884,
          "velocity": 0.1732283464566929
        },
        {
          "duration": 0.1511627906976738,
          "durationTicks": 13,
          "midi": 66,
          "name": "F#4",
          "ticks": 1101,
          "time": 12.80232558139535,
          "velocity": 0.1968503937007874
        },
        {
          "duration": 0.06976744186046524,
          "durationTicks": 6,
          "midi": 85,
          "name": "C#6",
          "ticks": 1101,
          "time": 12.80232558139535,
          "velocity": 0.11023622047244094
        },
        {
          "duration": 0.023255813953488413,
          "durationTicks": 2,
          "midi": 31,
          "name": "G1",
          "ticks": 1103,
          "time": 12.825581395348838,
          "velocity": 0.2755905511811024
        },
        {
          "duration": 0.03488372093023351,
          "durationTicks": 3,
          "midi": 48,
          "name": "C3",
          "ticks": 1104,
          "time": 12.837209302325581,
          "velocity": 0.14960629921259844
        },
        {
          "duration": 0.03488372093023351,
          "durationTicks": 3,
          "midi": 54,
          "name": "F#3",
          "ticks": 1104,
          "time": 12.837209302325581,
          "velocity": 0.16535433070866143
        },
        {
          "duration": 0.058139534883720145,
          "durationTicks": 5,
          "midi": 59,
          "name": "B3",
          "ticks": 1109,
          "time": 12.895348837209303,
          "velocity": 0.16535433070866143
        },
        {
          "duration": 0.03488372093023173,
          "durationTicks": 3,
          "midi": 32,
          "name": "G#1",
          "ticks": 1113,
          "time": 12.94186046511628,
          "velocity": 0.2755905511811024
        },
        {
          "duration": 0.03488372093023173,
          "durationTicks": 3,
          "midi": 59,
          "name": "B3",
          "ticks": 1115,
          "time": 12.965116279069768,
          "velocity": 0.1968503937007874
        },
        {
          "duration": 0.023255813953488413,
          "durationTicks": 2,
          "midi": 53,
          "name": "F3",
          "ticks": 1119,
          "time": 13.011627906976743,
          "velocity": 0.2283464566929134
        },
        {
          "duration": 0.04651162790697683,
          "durationTicks": 4,
          "midi": 67,
          "name": "G4",
          "ticks": 1120,
          "time": 13.023255813953488,
          "velocity": 0.23622047244094488
        },
        {
          "duration": 0.11627906976744207,
          "durationTicks": 10,
          "midi": 54,
          "name": "F#3",
          "ticks": 1121,
          "time": 13.034883720930232,
          "velocity": 0.23622047244094488
        },
        {
          "duration": 0.12790697674418716,
          "durationTicks": 11,
          "midi": 47,
          "name": "B2",
          "ticks": 1123,
          "time": 13.05813953488372,
          "velocity": 0.2677165354330709
        },
        {
          "duration": 0.1860465116279073,
          "durationTicks": 16,
          "midi": 78,
          "name": "F#5",
          "ticks": 1124,
          "time": 13.069767441860465,
          "velocity": 0.16535433070866143
        },
        {
          "duration": 0.4069767441860481,
          "durationTicks": 35,
          "midi": 35,
          "name": "B1",
          "ticks": 1125,
          "time": 13.081395348837209,
          "velocity": 0.2992125984251969
        },
        {
          "duration": 0.09302325581395365,
          "durationTicks": 8,
          "midi": 71,
          "name": "B4",
          "ticks": 1131,
          "time": 13.151162790697674,
          "velocity": 0.12598425196850394
        },
        {
          "duration": 0.09302325581395365,
          "durationTicks": 8,
          "midi": 54,
          "name": "F#3",
          "ticks": 1132,
          "time": 13.162790697674419,
          "velocity": 0.2047244094488189
        },
        {
          "duration": 0.06976744186046524,
          "durationTicks": 6,
          "midi": 76,
          "name": "E5",
          "ticks": 1140,
          "time": 13.255813953488373,
          "velocity": 0.1732283464566929
        },
        {
          "duration": 0.09302325581395365,
          "durationTicks": 8,
          "midi": 64,
          "name": "E4",
          "ticks": 1141,
          "time": 13.267441860465116,
          "velocity": 0.2125984251968504
        },
        {
          "duration": 0.058139534883720145,
          "durationTicks": 5,
          "midi": 71,
          "name": "B4",
          "ticks": 1152,
          "time": 13.395348837209303,
          "velocity": 0.09448818897637795
        },
        {
          "duration": 0.04651162790697683,
          "durationTicks": 4,
          "midi": 54,
          "name": "F#3",
          "ticks": 1153,
          "time": 13.406976744186046,
          "velocity": 0.18110236220472442
        },
        {
          "duration": 0.3139534883720927,
          "durationTicks": 27,
          "midi": 78,
          "name": "F#5",
          "ticks": 1153,
          "time": 13.406976744186046,
          "velocity": 0.23622047244094488
        },
        {
          "duration": 0.03488372093023173,
          "durationTicks": 3,
          "midi": 85,
          "name": "C#6",
          "ticks": 1156,
          "time": 13.44186046511628,
          "velocity": 0.09448818897637795
        },
        {
          "duration": 0.023255813953486637,
          "durationTicks": 2,
          "midi": 36,
          "name": "C2",
          "ticks": 1160,
          "time": 13.488372093023257,
          "velocity": 0.2440944881889764
        },
        {
          "duration": 0.08139534883720856,
          "durationTicks": 7,
          "midi": 85,
          "name": "C#6",
          "ticks": 1160,
          "time": 13.488372093023257,
          "velocity": 0.12598425196850394
        },
        {
          "duration": 0.058139534883720145,
          "durationTicks": 5,
          "midi": 66,
          "name": "F#4",
          "ticks": 1163,
          "time": 13.523255813953488,
          "velocity": 0.11811023622047244
        },
        {
          "duration": 0.09302325581395365,
          "durationTicks": 8,
          "midi": 66,
          "name": "F#4",
          "ticks": 1171,
          "time": 13.616279069767442,
          "velocity": 0.11811023622047244
        },
        {
          "duration": 0.10465116279069875,
          "durationTicks": 9,
          "midi": 57,
          "name": "A3",
          "ticks": 1172,
          "time": 13.627906976744185,
          "velocity": 0.1889763779527559
        },
        {
          "duration": 0.06976744186046524,
          "durationTicks": 6,
          "midi": 63,
          "name": "D#4",
          "ticks": 1172,
          "time": 13.627906976744185,
          "velocity": 0.09448818897637795
        },
        {
          "duration": 0.06976744186046524,
          "durationTicks": 6,
          "midi": 71,
          "name": "B4",
          "ticks": 1172,
          "time": 13.627906976744185,
          "velocity": 0.10236220472440945
        },
        {
          "duration": 0.09302325581395365,
          "durationTicks": 8,
          "midi": 75,
          "name": "D#5",
          "ticks": 1179,
          "time": 13.709302325581396,
          "velocity": 0.11023622047244094
        },
        {
          "duration": 0.023255813953488413,
          "durationTicks": 2,
          "midi": 31,
          "name": "G1",
          "ticks": 1183,
          "time": 13.755813953488373,
          "velocity": 0.25984251968503935
        },
        {
          "duration": 0.04651162790697683,
          "durationTicks": 4,
          "midi": 57,
          "name": "A3",
          "ticks": 1183,
          "time": 13.755813953488373,
          "velocity": 0.15748031496062992
        },
        {
          "duration": 0.06976744186046524,
          "durationTicks": 6,
          "midi": 71,
          "name": "B4",
          "ticks": 1190,
          "time": 13.837209302325581,
          "velocity": 0.09448818897637795
        },
        {
          "duration": 0.03488372093023351,
          "durationTicks": 3,
          "midi": 47,
          "name": "B2",
          "ticks": 1192,
          "time": 13.86046511627907,
          "velocity": 0.30708661417322836
        },
        {
          "duration": 0.06976744186046524,
          "durationTicks": 6,
          "midi": 78,
          "name": "F#5",
          "ticks": 1192,
          "time": 13.86046511627907,
          "velocity": 0.13385826771653545
        },
        {
          "duration": 0.058139534883720145,
          "durationTicks": 5,
          "midi": 76,
          "name": "E5",
          "ticks": 1200,
          "time": 13.953488372093023,
          "velocity": 0.12598425196850394
        },
        {
          "duration": 0.023255813953488413,
          "durationTicks": 2,
          "midi": 67,
          "name": "G4",
          "ticks": 1201,
          "time": 13.965116279069768,
          "velocity": 0.2283464566929134
        },
        {
          "duration": 0.023255813953488413,
          "durationTicks": 2,
          "midi": 32,
          "name": "G#1",
          "ticks": 1202,
          "time": 13.976744186046512,
          "velocity": 0.3228346456692913
        },
        {
          "duration": 0.023255813953488413,
          "durationTicks": 2,
          "midi": 47,
          "name": "B2",
          "ticks": 1202,
          "time": 13.976744186046512,
          "velocity": 0.3228346456692913
        },
        {
          "duration": 0.03488372093023173,
          "durationTicks": 3,
          "midi": 57,
          "name": "A3",
          "ticks": 1203,
          "time": 13.988372093023257,
          "velocity": 0.12598425196850394
        },
        {
          "duration": 0.023255813953488413,
          "durationTicks": 2,
          "midi": 34,
          "name": "A#1",
          "ticks": 1204,
          "time": 14,
          "velocity": 0.33070866141732286
        },
        {
          "duration": 0.1976744186046524,
          "durationTicks": 17,
          "midi": 47,
          "name": "B2",
          "ticks": 1205,
          "time": 14.011627906976743,
          "velocity": 0.29133858267716534
        },
        {
          "duration": 0.023255813953488413,
          "durationTicks": 2,
          "midi": 35,
          "name": "B1",
          "ticks": 1206,
          "time": 14.023255813953488,
          "velocity": 0.30708661417322836
        },
        {
          "duration": 0.15116279069767558,
          "durationTicks": 13,
          "midi": 35,
          "name": "B1",
          "ticks": 1209,
          "time": 14.05813953488372,
          "velocity": 0.28346456692913385
        },
        {
          "duration": 0.06976744186046524,
          "durationTicks": 6,
          "midi": 66,
          "name": "F#4",
          "ticks": 1215,
          "time": 14.127906976744185,
          "velocity": 0.07086614173228346
        },
        {
          "duration": 0.03488372093023173,
          "durationTicks": 3,
          "midi": 100,
          "name": "E7",
          "ticks": 1220,
          "time": 14.186046511627907,
          "velocity": 0.07086614173228346
        },
        {
          "duration": 0.023255813953488413,
          "durationTicks": 2,
          "midi": 45,
          "name": "A2",
          "ticks": 1223,
          "time": 14.220930232558139,
          "velocity": 0.2755905511811024
        },
        {
          "duration": 0.08139534883720856,
          "durationTicks": 7,
          "midi": 67,
          "name": "G4",
          "ticks": 1224,
          "time": 14.232558139534884,
          "velocity": 0.13385826771653545
        },
        {
          "duration": 0.023255813953488413,
          "durationTicks": 2,
          "midi": 35,
          "name": "B1",
          "ticks": 1227,
          "time": 14.267441860465116,
          "velocity": 0.2283464566929134
        },
        {
          "duration": 0.023255813953488413,
          "durationTicks": 2,
          "midi": 51,
          "name": "D#3",
          "ticks": 1229,
          "time": 14.290697674418604,
          "velocity": 0.3464566929133858
        },
        {
          "duration": 0.03488372093023173,
          "durationTicks": 3,
          "midi": 57,
          "name": "A3",
          "ticks": 1230,
          "time": 14.30232558139535,
          "velocity": 0.23622047244094488
        },
        {
          "duration": 0.023255813953488413,
          "durationTicks": 2,
          "midi": 52,
          "name": "E3",
          "ticks": 1231,
          "time": 14.313953488372093,
          "velocity": 0.31496062992125984
        },
        {
          "duration": 0.03488372093023351,
          "durationTicks": 3,
          "midi": 45,
          "name": "A2",
          "ticks": 1233,
          "time": 14.337209302325581,
          "velocity": 0.2440944881889764
        },
        {
          "duration": 0.058139534883720145,
          "durationTicks": 5,
          "midi": 64,
          "name": "E4",
          "ticks": 1234,
          "time": 14.348837209302326,
          "velocity": 0.12598425196850394
        },
        {
          "duration": 0.03488372093023351,
          "durationTicks": 3,
          "midi": 49,
          "name": "C#3",
          "ticks": 1239,
          "time": 14.406976744186046,
          "velocity": 0.2440944881889764
        },
        {
          "duration": 0.05813953488372192,
          "durationTicks": 5,
          "midi": 64,
          "name": "E4",
          "ticks": 1241,
          "time": 14.430232558139535,
          "velocity": 0.16535433070866143
        },
        {
          "duration": 0.023255813953488413,
          "durationTicks": 2,
          "midi": 44,
          "name": "G#2",
          "ticks": 1242,
          "time": 14.44186046511628,
          "velocity": 0.2755905511811024
        },
        {
          "duration": 0.09302325581395188,
          "durationTicks": 8,
          "midi": 50,
          "name": "D3",
          "ticks": 1242,
          "time": 14.44186046511628,
          "velocity": 0.2283464566929134
        },
        {
          "duration": 0.08139534883720856,
          "durationTicks": 7,
          "midi": 57,
          "name": "A3",
          "ticks": 1244,
          "time": 14.465116279069768,
          "velocity": 0.14173228346456693
        },
        {
          "duration": 0.10465116279069697,
          "durationTicks": 9,
          "midi": 38,
          "name": "D2",
          "ticks": 1245,
          "time": 14.476744186046512,
          "velocity": 0.2755905511811024
        },
        {
          "duration": 0.10465116279069697,
          "durationTicks": 9,
          "midi": 78,
          "name": "F#5",
          "ticks": 1251,
          "time": 14.546511627906977,
          "velocity": 0.16535433070866143
        },
        {
          "duration": 0.03488372093023351,
          "durationTicks": 3,
          "midi": 51,
          "name": "D#3",
          "ticks": 1252,
          "time": 14.55813953488372,
          "velocity": 0.2125984251968504
        },
        {
          "duration": 0.03488372093023173,
          "durationTicks": 3,
          "midi": 58,
          "name": "A#3",
          "ticks": 1253,
          "time": 14.569767441860465,
          "velocity": 0.14960629921259844
        },
        {
          "duration": 0.06976744186046524,
          "durationTicks": 6,
          "midi": 66,
          "name": "F#4",
          "ticks": 1253,
          "time": 14.569767441860465,
          "velocity": 0.12598425196850394
        },
        {
          "duration": 0.04651162790697683,
          "durationTicks": 4,
          "midi": 71,
          "name": "B4",
          "ticks": 1253,
          "time": 14.569767441860465,
          "velocity": 0.07086614173228346
        },
        {
          "duration": 0.023255813953488413,
          "durationTicks": 2,
          "midi": 39,
          "name": "D#2",
          "ticks": 1254,
          "time": 14.581395348837209,
          "velocity": 0.29133858267716534
        },
        {
          "duration": 0.05813953488372192,
          "durationTicks": 5,
          "midi": 40,
          "name": "E2",
          "ticks": 1256,
          "time": 14.604651162790697,
          "velocity": 0.33858267716535434
        },
        {
          "duration": 0.023255813953488413,
          "durationTicks": 2,
          "midi": 48,
          "name": "C3",
          "ticks": 1258,
          "time": 14.627906976744185,
          "velocity": 0.23622047244094488
        },
        {
          "duration": 0.03488372093023351,
          "durationTicks": 3,
          "midi": 58,
          "name": "A#3",
          "ticks": 1260,
          "time": 14.651162790697674,
          "velocity": 0.25196850393700787
        },
        {
          "duration": 0.05813953488372192,
          "durationTicks": 5,
          "midi": 63,
          "name": "D#4",
          "ticks": 1260,
          "time": 14.651162790697674,
          "velocity": 0.1968503937007874
        },
        {
          "duration": 0.023255813953488413,
          "durationTicks": 2,
          "midi": 37,
          "name": "C#2",
          "ticks": 1261,
          "time": 14.662790697674419,
          "velocity": 0.33858267716535434
        },
        {
          "duration": 0.10465116279069697,
          "durationTicks": 9,
          "midi": 51,
          "name": "D#3",
          "ticks": 1261,
          "time": 14.662790697674419,
          "velocity": 0.2677165354330709
        },
        {
          "duration": 0.023255813953488413,
          "durationTicks": 2,
          "midi": 40,
          "name": "E2",
          "ticks": 1263,
          "time": 14.686046511627907,
          "velocity": 0.3464566929133858
        },
        {
          "duration": 0.05813953488372192,
          "durationTicks": 5,
          "midi": 39,
          "name": "D#2",
          "ticks": 1266,
          "time": 14.720930232558139,
          "velocity": 0.30708661417322836
        },
        {
          "duration": 0.058139534883720145,
          "durationTicks": 5,
          "midi": 58,
          "name": "A#3",
          "ticks": 1267,
          "time": 14.732558139534884,
          "velocity": 0.25196850393700787
        },
        {
          "duration": 0.058139534883720145,
          "durationTicks": 5,
          "midi": 81,
          "name": "A5",
          "ticks": 1267,
          "time": 14.732558139534884,
          "velocity": 0.07874015748031496
        },
        {
          "duration": 0.04651162790697683,
          "durationTicks": 4,
          "midi": 39,
          "name": "D#2",
          "ticks": 1272,
          "time": 14.790697674418604,
          "velocity": 0.30708661417322836
        },
        {
          "duration": 0.08139534883721034,
          "durationTicks": 7,
          "midi": 64,
          "name": "E4",
          "ticks": 1272,
          "time": 14.790697674418604,
          "velocity": 0.16535433070866143
        },
        {
          "duration": 0.023255813953488413,
          "durationTicks": 2,
          "midi": 50,
          "name": "D3",
          "ticks": 1273,
          "time": 14.80232558139535,
          "velocity": 0.2755905511811024
        },
        {
          "duration": 0.04651162790697683,
          "durationTicks": 4,
          "midi": 40,
          "name": "E2",
          "ticks": 1276,
          "time": 14.837209302325581,
          "velocity": 0.31496062992125984
        },
        {
          "duration": 0.023255813953488413,
          "durationTicks": 2,
          "midi": 55,
          "name": "G3",
          "ticks": 1276,
          "time": 14.837209302325581,
          "velocity": 0.2283464566929134
        },
        {
          "duration": 0.03488372093023351,
          "durationTicks": 3,
          "midi": 53,
          "name": "F3",
          "ticks": 1278,
          "time": 14.86046511627907,
          "velocity": 0.2047244094488189
        },
        {
          "duration": 0.10465116279069697,
          "durationTicks": 9,
          "midi": 71,
          "name": "B4",
          "ticks": 1279,
          "time": 14.872093023255815,
          "velocity": 0.14173228346456693
        },
        {
          "duration": 0.023255813953488413,
          "durationTicks": 2,
          "midi": 41,
          "name": "F2",
          "ticks": 1280,
          "time": 14.883720930232558,
          "velocity": 0.3937007874015748
        },
        {
          "duration": 0.19767441860465063,
          "durationTicks": 17,
          "midi": 64,
          "name": "E4",
          "ticks": 1280,
          "time": 14.883720930232558,
          "velocity": 0.16535433070866143
        },
        {
          "duration": 0.04651162790697683,
          "durationTicks": 4,
          "midi": 90,
          "name": "F#6",
          "ticks": 1280,
          "time": 14.883720930232558,
          "velocity": 0.11811023622047244
        },
        {
          "duration": 0.3372093023255811,
          "durationTicks": 29,
          "midi": 52,
          "name": "E3",
          "ticks": 1281,
          "time": 14.895348837209303,
          "velocity": 0.3543307086614173
        },
        {
          "duration": 0.325581395348836,
          "durationTicks": 28,
          "midi": 59,
          "name": "B3",
          "ticks": 1281,
          "time": 14.895348837209303,
          "velocity": 0.2755905511811024
        },
        {
          "duration": 0.2790697674418592,
          "durationTicks": 24,
          "midi": 40,
          "name": "E2",
          "ticks": 1285,
          "time": 14.94186046511628,
          "velocity": 0.33070866141732286
        },
        {
          "duration": 0.04651162790697683,
          "durationTicks": 4,
          "midi": 78,
          "name": "F#5",
          "ticks": 1297,
          "time": 15.081395348837209,
          "velocity": 0.10236220472440945
        },
        {
          "duration": 0.04651162790697683,
          "durationTicks": 4,
          "midi": 99,
          "name": "D#7",
          "ticks": 1303,
          "time": 15.151162790697674,
          "velocity": 0.09448818897637795
        },
        {
          "duration": 0.023255813953488413,
          "durationTicks": 2,
          "midi": 52,
          "name": "E3",
          "ticks": 1311,
          "time": 15.244186046511627,
          "velocity": 0.2992125984251969
        },
        {
          "duration": 0.11627906976744207,
          "durationTicks": 10,
          "midi": 67,
          "name": "G4",
          "ticks": 1311,
          "time": 15.244186046511627,
          "velocity": 0.14960629921259844
        },
        {
          "duration": 0.058139534883720145,
          "durationTicks": 5,
          "midi": 52,
          "name": "E3",
          "ticks": 1314,
          "time": 15.279069767441861,
          "velocity": 0.2440944881889764
        },
        {
          "duration": 0.05813953488372192,
          "durationTicks": 5,
          "midi": 78,
          "name": "F#5",
          "ticks": 1315,
          "time": 15.290697674418604,
          "velocity": 0.07874015748031496
        },
        {
          "duration": 0.09302325581395365,
          "durationTicks": 8,
          "midi": 72,
          "name": "C5",
          "ticks": 1319,
          "time": 15.337209302325581,
          "velocity": 0.2204724409448819
        },
        {
          "duration": 0.11627906976744207,
          "durationTicks": 10,
          "midi": 52,
          "name": "E3",
          "ticks": 1320,
          "time": 15.348837209302326,
          "velocity": 0.2677165354330709
        },
        {
          "duration": 0.03488372093023173,
          "durationTicks": 3,
          "midi": 37,
          "name": "C#2",
          "ticks": 1322,
          "time": 15.372093023255815,
          "velocity": 0.1732283464566929
        },
        {
          "duration": 0.06976744186046524,
          "durationTicks": 6,
          "midi": 71,
          "name": "B4",
          "ticks": 1329,
          "time": 15.453488372093023,
          "velocity": 0.12598425196850394
        },
        {
          "duration": 0.023255813953488413,
          "durationTicks": 2,
          "midi": 37,
          "name": "C#2",
          "ticks": 1331,
          "time": 15.476744186046512,
          "velocity": 0.4015748031496063
        },
        {
          "duration": 0.03488372093023173,
          "durationTicks": 3,
          "midi": 52,
          "name": "E3",
          "ticks": 1331,
          "time": 15.476744186046512,
          "velocity": 0.30708661417322836
        },
        {
          "duration": 0.09302325581395365,
          "durationTicks": 8,
          "midi": 78,
          "name": "F#5",
          "ticks": 1333,
          "time": 15.5,
          "velocity": 0.09448818897637795
        },
        {
          "duration": 0.023255813953488413,
          "durationTicks": 2,
          "midi": 41,
          "name": "F2",
          "ticks": 1335,
          "time": 15.523255813953488,
          "velocity": 0.33858267716535434
        },
        {
          "duration": 0.05813953488372192,
          "durationTicks": 5,
          "midi": 52,
          "name": "E3",
          "ticks": 1336,
          "time": 15.534883720930232,
          "velocity": 0.28346456692913385
        },
        {
          "duration": 0.023255813953488413,
          "durationTicks": 2,
          "midi": 40,
          "name": "E2",
          "ticks": 1337,
          "time": 15.546511627906977,
          "velocity": 0.30708661417322836
        },
        {
          "duration": 0.023255813953488413,
          "durationTicks": 2,
          "midi": 42,
          "name": "F#2",
          "ticks": 1340,
          "time": 15.581395348837209,
          "velocity": 0.3858267716535433
        },
        {
          "duration": 0.06976744186046524,
          "durationTicks": 6,
          "midi": 52,
          "name": "E3",
          "ticks": 1342,
          "time": 15.604651162790697,
          "velocity": 0.28346456692913385
        },
        {
          "duration": 0.03488372093023351,
          "durationTicks": 3,
          "midi": 40,
          "name": "E2",
          "ticks": 1344,
          "time": 15.627906976744185,
          "velocity": 0.3543307086614173
        },
        {
          "duration": 0.023255813953488413,
          "durationTicks": 2,
          "midi": 41,
          "name": "F2",
          "ticks": 1347,
          "time": 15.662790697674419,
          "velocity": 0.29133858267716534
        },
        {
          "duration": 0.023255813953488413,
          "durationTicks": 2,
          "midi": 43,
          "name": "G2",
          "ticks": 1349,
          "time": 15.686046511627907,
          "velocity": 0.33858267716535434
        },
        {
          "duration": 0.11627906976744207,
          "durationTicks": 10,
          "midi": 52,
          "name": "E3",
          "ticks": 1349,
          "time": 15.686046511627907,
          "velocity": 0.33858267716535434
        },
        {
          "duration": 0.09302325581395365,
          "durationTicks": 8,
          "midi": 67,
          "name": "G4",
          "ticks": 1350,
          "time": 15.69767441860465,
          "velocity": 0.09448818897637795
        },
        {
          "duration": 0.023255813953488413,
          "durationTicks": 2,
          "midi": 37,
          "name": "C#2",
          "ticks": 1351,
          "time": 15.709302325581396,
          "velocity": 0.36220472440944884
        },
        {
          "duration": 0.04651162790697683,
          "durationTicks": 4,
          "midi": 71,
          "name": "B4",
          "ticks": 1351,
          "time": 15.709302325581396,
          "velocity": 0.08661417322834646
        },
        {
          "duration": 0.09302325581395365,
          "durationTicks": 8,
          "midi": 78,
          "name": "F#5",
          "ticks": 1353,
          "time": 15.732558139534884,
          "velocity": 0.11811023622047244
        },
        {
          "duration": 0.04651162790697683,
          "durationTicks": 4,
          "midi": 40,
          "name": "E2",
          "ticks": 1354,
          "time": 15.744186046511627,
          "velocity": 0.31496062992125984
        },
        {
          "duration": 0.023255813953488413,
          "durationTicks": 2,
          "midi": 41,
          "name": "F2",
          "ticks": 1358,
          "time": 15.790697674418604,
          "velocity": 0.28346456692913385
        },
        {
          "duration": 0.3488372093023262,
          "durationTicks": 30,
          "midi": 59,
          "name": "B3",
          "ticks": 1359,
          "time": 15.80232558139535,
          "velocity": 0.2755905511811024
        },
        {
          "duration": 0.03488372093023173,
          "durationTicks": 3,
          "midi": 67,
          "name": "G4",
          "ticks": 1359,
          "time": 15.80232558139535,
          "velocity": 0.2047244094488189
        },
        {
          "duration": 0.05813953488372192,
          "durationTicks": 5,
          "midi": 52,
          "name": "E3",
          "ticks": 1362,
          "time": 15.837209302325581,
          "velocity": 0.2440944881889764
        },
        {
          "duration": 0.023255813953488413,
          "durationTicks": 2,
          "midi": 40,
          "name": "E2",
          "ticks": 1363,
          "time": 15.848837209302326,
          "velocity": 0.33070866141732286
        },
        {
          "duration": 0.174418604651164,
          "durationTicks": 15,
          "midi": 40,
          "name": "E2",
          "ticks": 1366,
          "time": 15.883720930232558,
          "velocity": 0.2992125984251969
        },
        {
          "duration": 0.1046511627906952,
          "durationTicks": 9,
          "midi": 78,
          "name": "F#5",
          "ticks": 1373,
          "time": 15.965116279069768,
          "velocity": 0.13385826771653545
        },
        {
          "duration": 0.08139534883720856,
          "durationTicks": 7,
          "midi": 67,
          "name": "G4",
          "ticks": 1380,
          "time": 16.046511627906977,
          "velocity": 0.14960629921259844
        },
        {
          "duration": 0.023255813953486637,
          "durationTicks": 2,
          "midi": 39,
          "name": "D#2",
          "ticks": 1381,
          "time": 16.058139534883722,
          "velocity": 0.2677165354330709
        },
        {
          "duration": 0.1046511627906952,
          "durationTicks": 9,
          "midi": 52,
          "name": "E3",
          "ticks": 1381,
          "time": 16.058139534883722,
          "velocity": 0.2755905511811024
        },
        {
          "duration": 0.06976744186046702,
          "durationTicks": 6,
          "midi": 40,
          "name": "E2",
          "ticks": 1383,
          "time": 16.08139534883721,
          "velocity": 0.30708661417322836
        },
        {
          "duration": 0.02325581395349019,
          "durationTicks": 2,
          "midi": 51,
          "name": "D#3",
          "ticks": 1391,
          "time": 16.174418604651162,
          "velocity": 0.2755905511811024
        },
        {
          "duration": 0.3139534883720927,
          "durationTicks": 27,
          "midi": 64,
          "name": "E4",
          "ticks": 1391,
          "time": 16.174418604651162,
          "velocity": 0.16535433070866143
        },
        {
          "duration": 0.13953488372093048,
          "durationTicks": 12,
          "midi": 67,
          "name": "G4",
          "ticks": 1391,
          "time": 16.174418604651162,
          "velocity": 0.1968503937007874
        },
        {
          "duration": 0.08139534883720856,
          "durationTicks": 7,
          "midi": 52,
          "name": "E3",
          "ticks": 1393,
          "time": 16.197674418604652,
          "velocity": 0.29133858267716534
        },
        {
          "duration": 0.03488372093023173,
          "durationTicks": 3,
          "midi": 74,
          "name": "D5",
          "ticks": 1399,
          "time": 16.267441860465116,
          "velocity": 0.16535433070866143
        },
        {
          "duration": 0.02325581395349019,
          "durationTicks": 2,
          "midi": 42,
          "name": "F#2",
          "ticks": 1402,
          "time": 16.302325581395348,
          "velocity": 0.25196850393700787
        },
        {
          "duration": 0.04651162790697683,
          "durationTicks": 4,
          "midi": 69,
          "name": "A4",
          "ticks": 1405,
          "time": 16.337209302325583,
          "velocity": 0.13385826771653545
        },
        {
          "duration": 0.02325581395349019,
          "durationTicks": 2,
          "midi": 51,
          "name": "D#3",
          "ticks": 1410,
          "time": 16.3953488372093,
          "velocity": 0.31496062992125984
        },
        {
          "duration": 0.12790697674418539,
          "durationTicks": 11,
          "midi": 67,
          "name": "G4",
          "ticks": 1411,
          "time": 16.406976744186046,
          "velocity": 0.1732283464566929
        },
        {
          "duration": 0.05813953488372192,
          "durationTicks": 5,
          "midi": 71,
          "name": "B4",
          "ticks": 1411,
          "time": 16.406976744186046,
          "velocity": 0.11023622047244094
        },
        {
          "duration": 0.03488372093023173,
          "durationTicks": 3,
          "midi": 37,
          "name": "C#2",
          "ticks": 1412,
          "time": 16.41860465116279,
          "velocity": 0.36220472440944884
        },
        {
          "duration": 0.023255813953486637,
          "durationTicks": 2,
          "midi": 52,
          "name": "E3",
          "ticks": 1412,
          "time": 16.41860465116279,
          "velocity": 0.2283464566929134
        },
        {
          "duration": 0.23255813953488413,
          "durationTicks": 20,
          "midi": 78,
          "name": "F#5",
          "ticks": 1412,
          "time": 16.41860465116279,
          "velocity": 0.2283464566929134
        },
        {
          "duration": 0.05813953488372192,
          "durationTicks": 5,
          "midi": 59,
          "name": "B3",
          "ticks": 1414,
          "time": 16.441860465116278,
          "velocity": 0.12598425196850394
        },
        {
          "duration": 0.03488372093023173,
          "durationTicks": 3,
          "midi": 41,
          "name": "F2",
          "ticks": 1416,
          "time": 16.46511627906977,
          "velocity": 0.2047244094488189
        },
        {
          "duration": 0.08139534883720856,
          "durationTicks": 7,
          "midi": 85,
          "name": "C#6",
          "ticks": 1420,
          "time": 16.511627906976745,
          "velocity": 0.11023622047244094
        },
        {
          "duration": 0.05813953488372192,
          "durationTicks": 5,
          "midi": 52,
          "name": "E3",
          "ticks": 1422,
          "time": 16.53488372093023,
          "velocity": 0.25984251968503935
        },
        {
          "duration": 0.06976744186046702,
          "durationTicks": 6,
          "midi": 66,
          "name": "F#4",
          "ticks": 1422,
          "time": 16.53488372093023,
          "velocity": 0.12598425196850394
        },
        {
          "duration": 0.023255813953486637,
          "durationTicks": 2,
          "midi": 39,
          "name": "D#2",
          "ticks": 1423,
          "time": 16.546511627906977,
          "velocity": 0.3228346456692913
        },
        {
          "duration": 0.04651162790697683,
          "durationTicks": 4,
          "midi": 59,
          "name": "B3",
          "ticks": 1425,
          "time": 16.569767441860463,
          "velocity": 0.08661417322834646
        },
        {
          "duration": 0.02325581395349019,
          "durationTicks": 2,
          "midi": 51,
          "name": "D#3",
          "ticks": 1430,
          "time": 16.627906976744185,
          "velocity": 0.28346456692913385
        },
        {
          "duration": 0.06976744186046346,
          "durationTicks": 6,
          "midi": 52,
          "name": "E3",
          "ticks": 1432,
          "time": 16.651162790697676,
          "velocity": 0.30708661417322836
        },
        {
          "duration": 0.39534883720930125,
          "durationTicks": 34,
          "midi": 59,
          "name": "B3",
          "ticks": 1432,
          "time": 16.651162790697676,
          "velocity": 0.25984251968503935
        },
        {
          "duration": 0.06976744186046346,
          "durationTicks": 6,
          "midi": 64,
          "name": "E4",
          "ticks": 1439,
          "time": 16.732558139534884,
          "velocity": 0.14173228346456693
        },
        {
          "duration": 0.023255813953486637,
          "durationTicks": 2,
          "midi": 51,
          "name": "D#3",
          "ticks": 1440,
          "time": 16.74418604651163,
          "velocity": 0.3543307086614173
        },
        {
          "duration": 0.22093023255813904,
          "durationTicks": 19,
          "midi": 52,
          "name": "E3",
          "ticks": 1442,
          "time": 16.767441860465116,
          "velocity": 0.33070866141732286
        },
        {
          "duration": 0.22093023255813904,
          "durationTicks": 19,
          "midi": 78,
          "name": "F#5",
          "ticks": 1442,
          "time": 16.767441860465116,
          "velocity": 0.15748031496062992
        },
        {
          "duration": 0.22093023255813904,
          "durationTicks": 19,
          "midi": 40,
          "name": "E2",
          "ticks": 1444,
          "time": 16.790697674418606,
          "velocity": 0.3543307086614173
        },
        {
          "duration": 0.03488372093023173,
          "durationTicks": 3,
          "midi": 76,
          "name": "E5",
          "ticks": 1459,
          "time": 16.96511627906977,
          "velocity": 0.16535433070866143
        },
        {
          "duration": 0.09302325581395365,
          "durationTicks": 8,
          "midi": 64,
          "name": "E4",
          "ticks": 1461,
          "time": 16.988372093023255,
          "velocity": 0.08661417322834646
        },
        {
          "duration": 0.034883720930235285,
          "durationTicks": 3,
          "midi": 40,
          "name": "E2",
          "ticks": 1464,
          "time": 17.023255813953487,
          "velocity": 0.33070866141732286
        },
        {
          "duration": 0.09302325581395365,
          "durationTicks": 8,
          "midi": 67,
          "name": "G4",
          "ticks": 1465,
          "time": 17.03488372093023,
          "velocity": 0.11811023622047244
        },
        {
          "duration": 0.02325581395349019,
          "durationTicks": 2,
          "midi": 40,
          "name": "E2",
          "ticks": 1468,
          "time": 17.069767441860463,
          "velocity": 0.31496062992125984
        },
        {
          "duration": 0.04651162790697683,
          "durationTicks": 4,
          "midi": 71,
          "name": "B4",
          "ticks": 1469,
          "time": 17.08139534883721,
          "velocity": 0.11811023622047244
        },
        {
          "duration": 0.06976744186046346,
          "durationTicks": 6,
          "midi": 64,
          "name": "E4",
          "ticks": 1470,
          "time": 17.093023255813954,
          "velocity": 0.15748031496062992
        },
        {
          "duration": 0.08139534883720856,
          "durationTicks": 7,
          "midi": 59,
          "name": "B3",
          "ticks": 1471,
          "time": 17.1046511627907,
          "velocity": 0.18110236220472442
        },
        {
          "duration": 0.03488372093023173,
          "durationTicks": 3,
          "midi": 47,
          "name": "B2",
          "ticks": 1478,
          "time": 17.186046511627907,
          "velocity": 0.2283464566929134
        },
        {
          "duration": 0.06976744186046346,
          "durationTicks": 6,
          "midi": 72,
          "name": "C5",
          "ticks": 1479,
          "time": 17.197674418604652,
          "velocity": 0.23622047244094488
        },
        {
          "duration": 0.023255813953486637,
          "durationTicks": 2,
          "midi": 44,
          "name": "G#2",
          "ticks": 1482,
          "time": 17.232558139534884,
          "velocity": 0.3779527559055118
        },
        {
          "duration": 0.03488372093023173,
          "durationTicks": 3,
          "midi": 44,
          "name": "G#2",
          "ticks": 1485,
          "time": 17.267441860465116,
          "velocity": 0.28346456692913385
        },
        {
          "duration": 0.04651162790697683,
          "durationTicks": 4,
          "midi": 71,
          "name": "B4",
          "ticks": 1485,
          "time": 17.267441860465116,
          "velocity": 0.14173228346456693
        },
        {
          "duration": 0.04651162790697683,
          "durationTicks": 4,
          "midi": 51,
          "name": "D#3",
          "ticks": 1489,
          "time": 17.313953488372093,
          "velocity": 0.25984251968503935
        },
        {
          "duration": 0.05813953488371837,
          "durationTicks": 5,
          "midi": 71,
          "name": "B4",
          "ticks": 1491,
          "time": 17.337209302325583,
          "velocity": 0.11811023622047244
        },
        {
          "duration": 0.02325581395349019,
          "durationTicks": 2,
          "midi": 37,
          "name": "C#2",
          "ticks": 1492,
          "time": 17.348837209302324,
          "velocity": 0.3543307086614173
        },
        {
          "duration": 0.10465116279069875,
          "durationTicks": 9,
          "midi": 67,
          "name": "G4",
          "ticks": 1492,
          "time": 17.348837209302324,
          "velocity": 0.1968503937007874
        },
        {
          "duration": 0.06976744186046346,
          "durationTicks": 6,
          "midi": 78,
          "name": "F#5",
          "ticks": 1494,
          "time": 17.372093023255815,
          "velocity": 0.10236220472440945
        },
        {
          "duration": 0.02325581395349019,
          "durationTicks": 2,
          "midi": 45,
          "name": "A2",
          "ticks": 1500,
          "time": 17.441860465116278,
          "velocity": 0.29133858267716534
        },
        {
          "duration": 0.08139534883720856,
          "durationTicks": 7,
          "midi": 52,
          "name": "E3",
          "ticks": 1501,
          "time": 17.453488372093023,
          "velocity": 0.29133858267716534
        },
        {
          "duration": 0.046511627906973274,
          "durationTicks": 4,
          "midi": 37,
          "name": "C#2",
          "ticks": 1503,
          "time": 17.476744186046513,
          "velocity": 0.3228346456692913
        },
        {
          "duration": 0.03488372093023173,
          "durationTicks": 3,
          "midi": 93,
          "name": "A6",
          "ticks": 1506,
          "time": 17.511627906976745,
          "velocity": 0.09448818897637795
        },
        {
          "duration": 0.08139534883720856,
          "durationTicks": 7,
          "midi": 64,
          "name": "E4",
          "ticks": 1509,
          "time": 17.546511627906977,
          "velocity": 0.11023622047244094
        },
        {
          "duration": 0.06976744186046702,
          "durationTicks": 6,
          "midi": 52,
          "name": "E3",
          "ticks": 1512,
          "time": 17.58139534883721,
          "velocity": 0.25196850393700787
        },
        {
          "duration": 0.06976744186046702,
          "durationTicks": 6,
          "midi": 78,
          "name": "F#5",
          "ticks": 1512,
          "time": 17.58139534883721,
          "velocity": 0.12598425196850394
        },
        {
          "duration": 0.03488372093023173,
          "durationTicks": 3,
          "midi": 40,
          "name": "E2",
          "ticks": 1516,
          "time": 17.627906976744185,
          "velocity": 0.15748031496062992
        },
        {
          "duration": 0.2558139534883743,
          "durationTicks": 22,
          "midi": 59,
          "name": "B3",
          "ticks": 1519,
          "time": 17.662790697674417,
          "velocity": 0.1732283464566929
        },
        {
          "duration": 0.20930232558139394,
          "durationTicks": 18,
          "midi": 64,
          "name": "E4",
          "ticks": 1521,
          "time": 17.686046511627907,
          "velocity": 0.2047244094488189
        },
        {
          "duration": 0.19767441860464885,
          "durationTicks": 17,
          "midi": 40,
          "name": "E2",
          "ticks": 1526,
          "time": 17.74418604651163,
          "velocity": 0.36220472440944884
        },
        {
          "duration": 0.06976744186046346,
          "durationTicks": 6,
          "midi": 78,
          "name": "F#5",
          "ticks": 1533,
          "time": 17.825581395348838,
          "velocity": 0.11811023622047244
        },
        {
          "duration": 0.1744186046511622,
          "durationTicks": 15,
          "midi": 67,
          "name": "G4",
          "ticks": 1540,
          "time": 17.906976744186046,
          "velocity": 0.2677165354330709
        },
        {
          "duration": 0.06976744186046346,
          "durationTicks": 6,
          "midi": 64,
          "name": "E4",
          "ticks": 1541,
          "time": 17.91860465116279,
          "velocity": 0.12598425196850394
        },
        {
          "duration": 0.04651162790697683,
          "durationTicks": 4,
          "midi": 86,
          "name": "D6",
          "ticks": 1541,
          "time": 17.91860465116279,
          "velocity": 0.08661417322834646
        },
        {
          "duration": 0.0930232558139501,
          "durationTicks": 8,
          "midi": 59,
          "name": "B3",
          "ticks": 1542,
          "time": 17.930232558139537,
          "velocity": 0.1889763779527559
        },
        {
          "duration": 0.03488372093023173,
          "durationTicks": 3,
          "midi": 40,
          "name": "E2",
          "ticks": 1544,
          "time": 17.953488372093023,
          "velocity": 0.3228346456692913
        },
        {
          "duration": 0.023255813953486637,
          "durationTicks": 2,
          "midi": 40,
          "name": "E2",
          "ticks": 1548,
          "time": 18,
          "velocity": 0.3228346456692913
        },
        {
          "duration": 0.02325581395349019,
          "durationTicks": 2,
          "midi": 41,
          "name": "F2",
          "ticks": 1550,
          "time": 18.023255813953487,
          "velocity": 0.33070866141732286
        },
        {
          "duration": 0.04651162790697683,
          "durationTicks": 4,
          "midi": 71,
          "name": "B4",
          "ticks": 1551,
          "time": 18.03488372093023,
          "velocity": 0.12598425196850394
        },
        {
          "duration": 0.05813953488371837,
          "durationTicks": 5,
          "midi": 78,
          "name": "F#5",
          "ticks": 1553,
          "time": 18.058139534883722,
          "velocity": 0.08661417322834646
        },
        {
          "duration": 0.023255813953486637,
          "durationTicks": 2,
          "midi": 48,
          "name": "C3",
          "ticks": 1560,
          "time": 18.13953488372093,
          "velocity": 0.2440944881889764
        },
        {
          "duration": 0.034883720930235285,
          "durationTicks": 3,
          "midi": 53,
          "name": "F3",
          "ticks": 1562,
          "time": 18.162790697674417,
          "velocity": 0.2440944881889764
        },
        {
          "duration": 0.06976744186046346,
          "durationTicks": 6,
          "midi": 69,
          "name": "A4",
          "ticks": 1565,
          "time": 18.197674418604652,
          "velocity": 0.14960629921259844
        },
        {
          "duration": 0.05813953488372192,
          "durationTicks": 5,
          "midi": 64,
          "name": "E4",
          "ticks": 1571,
          "time": 18.267441860465116,
          "velocity": 0.11811023622047244
        },
        {
          "duration": 0.12790697674418539,
          "durationTicks": 11,
          "midi": 67,
          "name": "G4",
          "ticks": 1571,
          "time": 18.267441860465116,
          "velocity": 0.18110236220472442
        },
        {
          "duration": 0.04651162790697683,
          "durationTicks": 4,
          "midi": 71,
          "name": "B4",
          "ticks": 1571,
          "time": 18.267441860465116,
          "velocity": 0.10236220472440945
        },
        {
          "duration": 0.09302325581395365,
          "durationTicks": 8,
          "midi": 52,
          "name": "E3",
          "ticks": 1573,
          "time": 18.290697674418606,
          "velocity": 0.28346456692913385
        },
        {
          "duration": 0.3023255813953476,
          "durationTicks": 26,
          "midi": 78,
          "name": "F#5",
          "ticks": 1573,
          "time": 18.290697674418606,
          "velocity": 0.25196850393700787
        },
        {
          "duration": 0.02325581395349019,
          "durationTicks": 2,
          "midi": 37,
          "name": "C#2",
          "ticks": 1574,
          "time": 18.302325581395348,
          "velocity": 0.2755905511811024
        },
        {
          "duration": 0.034883720930235285,
          "durationTicks": 3,
          "midi": 59,
          "name": "B3",
          "ticks": 1574,
          "time": 18.302325581395348,
          "velocity": 0.09448818897637795
        },
        {
          "duration": 0.03488372093023173,
          "durationTicks": 3,
          "midi": 41,
          "name": "F2",
          "ticks": 1577,
          "time": 18.337209302325583,
          "velocity": 0.10236220472440945
        },
        {
          "duration": 0.03488372093023173,
          "durationTicks": 3,
          "midi": 70,
          "name": "A#4",
          "ticks": 1580,
          "time": 18.372093023255815,
          "velocity": 0.16535433070866143
        },
        {
          "duration": 0.09302325581395365,
          "durationTicks": 8,
          "midi": 85,
          "name": "C#6",
          "ticks": 1580,
          "time": 18.372093023255815,
          "velocity": 0.09448818897637795
        },
        {
          "duration": 0.05813953488372192,
          "durationTicks": 5,
          "midi": 36,
          "name": "C2",
          "ticks": 1582,
          "time": 18.3953488372093,
          "velocity": 0.3228346456692913
        },
        {
          "duration": 0.04651162790697683,
          "durationTicks": 4,
          "midi": 52,
          "name": "E3",
          "ticks": 1583,
          "time": 18.406976744186046,
          "velocity": 0.2047244094488189
        },
        {
          "duration": 0.05813953488372192,
          "durationTicks": 5,
          "midi": 66,
          "name": "F#4",
          "ticks": 1584,
          "time": 18.41860465116279,
          "velocity": 0.14173228346456693
        },
        {
          "duration": 0.03488372093023173,
          "durationTicks": 3,
          "midi": 57,
          "name": "A3",
          "ticks": 1589,
          "time": 18.476744186046513,
          "velocity": 0.1889763779527559
        },
        {
          "duration": 0.11627906976744029,
          "durationTicks": 10,
          "midi": 67,
          "name": "G4",
          "ticks": 1591,
          "time": 18.5,
          "velocity": 0.16535433070866143
        },
        {
          "duration": 0.034883720930235285,
          "durationTicks": 3,
          "midi": 37,
          "name": "C#2",
          "ticks": 1593,
          "time": 18.523255813953487,
          "velocity": 0.3779527559055118
        },
        {
          "duration": 0.06976744186046702,
          "durationTicks": 6,
          "midi": 52,
          "name": "E3",
          "ticks": 1593,
          "time": 18.523255813953487,
          "velocity": 0.25196850393700787
        },
        {
          "duration": 0.06976744186046702,
          "durationTicks": 6,
          "midi": 59,
          "name": "B3",
          "ticks": 1593,
          "time": 18.523255813953487,
          "velocity": 0.15748031496062992
        },
        {
          "duration": 0.034883720930235285,
          "durationTicks": 3,
          "midi": 40,
          "name": "E2",
          "ticks": 1597,
          "time": 18.569767441860463,
          "velocity": 0.28346456692913385
        },
        {
          "duration": 0.05813953488371837,
          "durationTicks": 5,
          "midi": 71,
          "name": "B4",
          "ticks": 1600,
          "time": 18.6046511627907,
          "velocity": 0.11811023622047244
        },
        {
          "duration": 0.3255813953488378,
          "durationTicks": 28,
          "midi": 59,
          "name": "B3",
          "ticks": 1601,
          "time": 18.61627906976744,
          "velocity": 0.29133858267716534
        },
        {
          "duration": 0.24418604651162923,
          "durationTicks": 21,
          "midi": 78,
          "name": "F#5",
          "ticks": 1601,
          "time": 18.61627906976744,
          "velocity": 0.18110236220472442
        },
        {
          "duration": 0.05813953488372192,
          "durationTicks": 5,
          "midi": 99,
          "name": "D#7",
          "ticks": 1601,
          "time": 18.61627906976744,
          "velocity": 0.07874015748031496
        },
        {
          "duration": 0.11627906976744029,
          "durationTicks": 10,
          "midi": 52,
          "name": "E3",
          "ticks": 1603,
          "time": 18.63953488372093,
          "velocity": 0.2047244094488189
        },
        {
          "duration": 0.02325581395349019,
          "durationTicks": 2,
          "midi": 39,
          "name": "D#2",
          "ticks": 1606,
          "time": 18.674418604651162,
          "velocity": 0.3228346456692913
        },
        {
          "duration": 0.16279069767441712,
          "durationTicks": 14,
          "midi": 40,
          "name": "E2",
          "ticks": 1608,
          "time": 18.697674418604652,
          "velocity": 0.3464566929133858
        },
        {
          "duration": 0.09302325581395365,
          "durationTicks": 8,
          "midi": 99,
          "name": "D#7",
          "ticks": 1620,
          "time": 18.837209302325583,
          "velocity": 0.14960629921259844
        },
        {
          "duration": 0.04651162790697683,
          "durationTicks": 4,
          "midi": 67,
          "name": "G4",
          "ticks": 1626,
          "time": 18.906976744186046,
          "velocity": 0.07874015748031496
        },
        {
          "duration": 0.03488372093023173,
          "durationTicks": 3,
          "midi": 40,
          "name": "E2",
          "ticks": 1627,
          "time": 18.91860465116279,
          "velocity": 0.33858267716535434
        },
        {
          "duration": 0.03488372093023173,
          "durationTicks": 3,
          "midi": 40,
          "name": "E2",
          "ticks": 1631,
          "time": 18.96511627906977,
          "velocity": 0.3464566929133858
        },
        {
          "duration": 0.04651162790697683,
          "durationTicks": 4,
          "midi": 59,
          "name": "B3",
          "ticks": 1633,
          "time": 18.988372093023255,
          "velocity": 0.10236220472440945
        },
        {
          "duration": 0.06976744186046346,
          "durationTicks": 6,
          "midi": 52,
          "name": "E3",
          "ticks": 1635,
          "time": 19.011627906976745,
          "velocity": 0.2125984251968504
        },
        {
          "duration": 0.08139534883720856,
          "durationTicks": 7,
          "midi": 78,
          "name": "F#5",
          "ticks": 1635,
          "time": 19.011627906976745,
          "velocity": 0.09448818897637795
        },
        {
          "duration": 0.09302325581395365,
          "durationTicks": 8,
          "midi": 72,
          "name": "C5",
          "ticks": 1640,
          "time": 19.069767441860463,
          "velocity": 0.30708661417322836
        },
        {
          "duration": 0.1046511627906952,
          "durationTicks": 9,
          "midi": 71,
          "name": "B4",
          "ticks": 1647,
          "time": 19.151162790697676,
          "velocity": 0.16535433070866143
        },
        {
          "duration": 0.034883720930235285,
          "durationTicks": 3,
          "midi": 52,
          "name": "E3",
          "ticks": 1652,
          "time": 19.209302325581394,
          "velocity": 0.29133858267716534
        },
        {
          "duration": 0.02325581395349019,
          "durationTicks": 2,
          "midi": 37,
          "name": "C#2",
          "ticks": 1653,
          "time": 19.22093023255814,
          "velocity": 0.3858267716535433
        },
        {
          "duration": 0.06976744186046346,
          "durationTicks": 6,
          "midi": 78,
          "name": "F#5",
          "ticks": 1655,
          "time": 19.24418604651163,
          "velocity": 0.11023622047244094
        },
        {
          "duration": 0.05813953488372192,
          "durationTicks": 5,
          "midi": 41,
          "name": "F2",
          "ticks": 1656,
          "time": 19.25581395348837,
          "velocity": 0.2755905511811024
        },
        {
          "duration": 0.04651162790697683,
          "durationTicks": 4,
          "midi": 67,
          "name": "G4",
          "ticks": 1660,
          "time": 19.302325581395348,
          "velocity": 0.11811023622047244
        },
        {
          "duration": 0.02325581395349019,
          "durationTicks": 2,
          "midi": 50,
          "name": "D3",
          "ticks": 1661,
          "time": 19.313953488372093,
          "velocity": 0.30708661417322836
        },
        {
          "duration": 0.03488372093023173,
          "durationTicks": 3,
          "midi": 37,
          "name": "C#2",
          "ticks": 1662,
          "time": 19.325581395348838,
          "velocity": 0.4015748031496063
        },
        {
          "duration": 0.03488372093023173,
          "durationTicks": 3,
          "midi": 52,
          "name": "E3",
          "ticks": 1665,
          "time": 19.36046511627907,
          "velocity": 0.10236220472440945
        },
        {
          "duration": 0.04651162790697683,
          "durationTicks": 4,
          "midi": 67,
          "name": "G4",
          "ticks": 1669,
          "time": 19.406976744186046,
          "velocity": 0.11811023622047244
        },
        {
          "duration": 0.05813953488371837,
          "durationTicks": 5,
          "midi": 52,
          "name": "E3",
          "ticks": 1671,
          "time": 19.430232558139537,
          "velocity": 0.2125984251968504
        },
        {
          "duration": 0.04651162790697683,
          "durationTicks": 4,
          "midi": 71,
          "name": "B4",
          "ticks": 1671,
          "time": 19.430232558139537,
          "velocity": 0.11023622047244094
        },
        {
          "duration": 0.04651162790697683,
          "durationTicks": 4,
          "midi": 59,
          "name": "B3",
          "ticks": 1673,
          "time": 19.453488372093023,
          "velocity": 0.13385826771653545
        },
        {
          "duration": 0.05813953488372192,
          "durationTicks": 5,
          "midi": 78,
          "name": "F#5",
          "ticks": 1673,
          "time": 19.453488372093023,
          "velocity": 0.07874015748031496
        },
        {
          "duration": 0.04651162790697683,
          "durationTicks": 4,
          "midi": 53,
          "name": "F3",
          "ticks": 1676,
          "time": 19.488372093023255,
          "velocity": 0.2204724409448819
        },
        {
          "duration": 0.08139534883720856,
          "durationTicks": 7,
          "midi": 71,
          "name": "B4",
          "ticks": 1680,
          "time": 19.53488372093023,
          "velocity": 0.2125984251968504
        },
        {
          "duration": 0.023255813953486637,
          "durationTicks": 2,
          "midi": 37,
          "name": "C#2",
          "ticks": 1681,
          "time": 19.546511627906977,
          "velocity": 0.3543307086614173
        },
        {
          "duration": 0.023255813953486637,
          "durationTicks": 2,
          "midi": 52,
          "name": "E3",
          "ticks": 1681,
          "time": 19.546511627906977,
          "velocity": 0.33070866141732286
        },
        {
          "duration": 0.1976744186046524,
          "durationTicks": 17,
          "midi": 40,
          "name": "E2",
          "ticks": 1684,
          "time": 19.58139534883721,
          "velocity": 0.3228346456692913
        },
        {
          "duration": 0.3837209302325597,
          "durationTicks": 33,
          "midi": 59,
          "name": "B3",
          "ticks": 1687,
          "time": 19.61627906976744,
          "velocity": 0.2125984251968504
        },
        {
          "duration": 0.09302325581395365,
          "durationTicks": 8,
          "midi": 78,
          "name": "F#5",
          "ticks": 1693,
          "time": 19.686046511627907,
          "velocity": 0.11811023622047244
        },
        {
          "duration": 0.15116279069767558,
          "durationTicks": 13,
          "midi": 67,
          "name": "G4",
          "ticks": 1700,
          "time": 19.767441860465116,
          "velocity": 0.2440944881889764
        },
        {
          "duration": 0.03488372093023173,
          "durationTicks": 3,
          "midi": 40,
          "name": "E2",
          "ticks": 1702,
          "time": 19.790697674418606,
          "velocity": 0.31496062992125984
        },
        {
          "duration": 0.06976744186046346,
          "durationTicks": 6,
          "midi": 40,
          "name": "E2",
          "ticks": 1706,
          "time": 19.837209302325583,
          "velocity": 0.2992125984251969
        },
        {
          "duration": 0.05813953488371837,
          "durationTicks": 5,
          "midi": 78,
          "name": "F#5",
          "ticks": 1714,
          "time": 19.930232558139537,
          "velocity": 0.07874015748031496
        },
        {
          "duration": 0.10465116279069875,
          "durationTicks": 9,
          "midi": 67,
          "name": "G4",
          "ticks": 1715,
          "time": 19.941860465116278,
          "velocity": 0.09448818897637795
        },
        {
          "duration": 0.03488372093023173,
          "durationTicks": 3,
          "midi": 52,
          "name": "E3",
          "ticks": 1716,
          "time": 19.953488372093023,
          "velocity": 0.07874015748031496
        },
        {
          "duration": 0.034883720930235285,
          "durationTicks": 3,
          "midi": 42,
          "name": "F#2",
          "ticks": 1722,
          "time": 20.023255813953487,
          "velocity": 0.18110236220472442
        },
        {
          "duration": 0.04651162790697683,
          "durationTicks": 4,
          "midi": 93,
          "name": "A6",
          "ticks": 1725,
          "time": 20.058139534883722,
          "velocity": 0.14173228346456693
        },
        {
          "duration": 0.02325581395349019,
          "durationTicks": 2,
          "midi": 51,
          "name": "D#3",
          "ticks": 1730,
          "time": 20.11627906976744,
          "velocity": 0.2992125984251969
        },
        {
          "duration": 0.12790697674418539,
          "durationTicks": 11,
          "midi": 59,
          "name": "B3",
          "ticks": 1731,
          "time": 20.127906976744185,
          "velocity": 0.1889763779527559
        },
        {
          "duration": 0.023255813953486637,
          "durationTicks": 2,
          "midi": 37,
          "name": "C#2",
          "ticks": 1732,
          "time": 20.13953488372093,
          "velocity": 0.4015748031496063
        },
        {
          "duration": 0.04651162790697683,
          "durationTicks": 4,
          "midi": 52,
          "name": "E3",
          "ticks": 1732,
          "time": 20.13953488372093,
          "velocity": 0.2677165354330709
        },
        {
          "duration": 0.08139534883720856,
          "durationTicks": 7,
          "midi": 67,
          "name": "G4",
          "ticks": 1733,
          "time": 20.151162790697676,
          "velocity": 0.15748031496062992
        },
        {
          "duration": 0.3139534883720927,
          "durationTicks": 27,
          "midi": 78,
          "name": "F#5",
          "ticks": 1733,
          "time": 20.151162790697676,
          "velocity": 0.2283464566929134
        },
        {
          "duration": 0.02325581395349019,
          "durationTicks": 2,
          "midi": 40,
          "name": "E2",
          "ticks": 1735,
          "time": 20.174418604651162,
          "velocity": 0.33858267716535434
        },
        {
          "duration": 0.04651162790697683,
          "durationTicks": 4,
          "midi": 41,
          "name": "F2",
          "ticks": 1737,
          "time": 20.197674418604652,
          "velocity": 0.2992125984251969
        },
        {
          "duration": 0.05813953488372192,
          "durationTicks": 5,
          "midi": 64,
          "name": "E4",
          "ticks": 1739,
          "time": 20.22093023255814,
          "velocity": 0.2125984251968504
        },
        {
          "duration": 0.023255813953486637,
          "durationTicks": 2,
          "midi": 70,
          "name": "A#4",
          "ticks": 1740,
          "time": 20.232558139534884,
          "velocity": 0.23622047244094488
        },
        {
          "duration": 0.03488372093023173,
          "durationTicks": 3,
          "midi": 67,
          "name": "G4",
          "ticks": 1741,
          "time": 20.24418604651163,
          "velocity": 0.14173228346456693
        },
        {
          "duration": 0.12790697674418539,
          "durationTicks": 11,
          "midi": 64,
          "name": "E4",
          "ticks": 1745,
          "time": 20.290697674418606,
          "velocity": 0.16535433070866143
        },
        {
          "duration": 0.06976744186046702,
          "durationTicks": 6,
          "midi": 52,
          "name": "E3",
          "ticks": 1751,
          "time": 20.36046511627907,
          "velocity": 0.23622047244094488
        },
        {
          "duration": 0.20930232558139394,
          "durationTicks": 18,
          "midi": 67,
          "name": "G4",
          "ticks": 1751,
          "time": 20.36046511627907,
          "velocity": 0.1968503937007874
        },
        {
          "duration": 0.03488372093023173,
          "durationTicks": 3,
          "midi": 59,
          "name": "B3",
          "ticks": 1757,
          "time": 20.430232558139537,
          "velocity": 0.11023622047244094
        },
        {
          "duration": 0.05813953488372192,
          "durationTicks": 5,
          "midi": 37,
          "name": "C#2",
          "ticks": 1758,
          "time": 20.441860465116278,
          "velocity": 0.31496062992125984
        },
        {
          "duration": 0.023255813953486637,
          "durationTicks": 2,
          "midi": 58,
          "name": "A#3",
          "ticks": 1760,
          "time": 20.46511627906977,
          "velocity": 0.2440944881889764
        },
        {
          "duration": 0.3488372093023244,
          "durationTicks": 30,
          "midi": 52,
          "name": "E3",
          "ticks": 1761,
          "time": 20.476744186046513,
          "velocity": 0.3464566929133858
        },
        {
          "duration": 0.22093023255813904,
          "durationTicks": 19,
          "midi": 59,
          "name": "B3",
          "ticks": 1762,
          "time": 20.488372093023255,
          "velocity": 0.1732283464566929
        },
        {
          "duration": 0.03488372093023173,
          "durationTicks": 3,
          "midi": 39,
          "name": "D#2",
          "ticks": 1763,
          "time": 20.5,
          "velocity": 0.2992125984251969
        },
        {
          "duration": 0.1860465116279073,
          "durationTicks": 16,
          "midi": 40,
          "name": "E2",
          "ticks": 1766,
          "time": 20.53488372093023,
          "velocity": 0.3228346456692913
        },
        {
          "duration": 0.06976744186046702,
          "durationTicks": 6,
          "midi": 78,
          "name": "F#5",
          "ticks": 1774,
          "time": 20.627906976744185,
          "velocity": 0.11811023622047244
        },
        {
          "duration": 0.06976744186046702,
          "durationTicks": 6,
          "midi": 98,
          "name": "D7",
          "ticks": 1781,
          "time": 20.709302325581394,
          "velocity": 0.07874015748031496
        },
        {
          "duration": 0.02325581395349019,
          "durationTicks": 2,
          "midi": 39,
          "name": "D#2",
          "ticks": 1782,
          "time": 20.72093023255814,
          "velocity": 0.31496062992125984
        },
        {
          "duration": 0.023255813953486637,
          "durationTicks": 2,
          "midi": 41,
          "name": "F2",
          "ticks": 1784,
          "time": 20.74418604651163,
          "velocity": 0.33858267716535434
        },
        {
          "duration": 0.02325581395349019,
          "durationTicks": 2,
          "midi": 39,
          "name": "D#2",
          "ticks": 1786,
          "time": 20.767441860465116,
          "velocity": 0.2992125984251969
        },
        {
          "duration": 0.03488372093023173,
          "durationTicks": 3,
          "midi": 40,
          "name": "E2",
          "ticks": 1788,
          "time": 20.790697674418606,
          "velocity": 0.30708661417322836
        },
        {
          "duration": 0.09302325581395365,
          "durationTicks": 8,
          "midi": 59,
          "name": "B3",
          "ticks": 1792,
          "time": 20.837209302325583,
          "velocity": 0.10236220472440945
        },
        {
          "duration": 0.11627906976744029,
          "durationTicks": 10,
          "midi": 67,
          "name": "G4",
          "ticks": 1792,
          "time": 20.837209302325583,
          "velocity": 0.18110236220472442
        },
        {
          "duration": 0.3255813953488378,
          "durationTicks": 28,
          "midi": 78,
          "name": "F#5",
          "ticks": 1793,
          "time": 20.848837209302324,
          "velocity": 0.25984251968503935
        },
        {
          "duration": 0.08139534883720856,
          "durationTicks": 7,
          "midi": 64,
          "name": "E4",
          "ticks": 1794,
          "time": 20.86046511627907,
          "velocity": 0.1889763779527559
        },
        {
          "duration": 0.03488372093023173,
          "durationTicks": 3,
          "midi": 72,
          "name": "C5",
          "ticks": 1800,
          "time": 20.930232558139537,
          "velocity": 0.16535433070866143
        },
        {
          "duration": 0.08139534883720856,
          "durationTicks": 7,
          "midi": 85,
          "name": "C#6",
          "ticks": 1801,
          "time": 20.941860465116278,
          "velocity": 0.16535433070866143
        },
        {
          "duration": 0.02325581395349019,
          "durationTicks": 2,
          "midi": 52,
          "name": "E3",
          "ticks": 1802,
          "time": 20.953488372093023,
          "velocity": 0.25984251968503935
        },
        {
          "duration": 0.03488372093023173,
          "durationTicks": 3,
          "midi": 42,
          "name": "F#2",
          "ticks": 1804,
          "time": 20.976744186046513,
          "velocity": 0.13385826771653545
        },
        {
          "duration": 0.03488372093023173,
          "durationTicks": 3,
          "midi": 66,
          "name": "F#4",
          "ticks": 1805,
          "time": 20.988372093023255,
          "velocity": 0.11023622047244094
        },
        {
          "duration": 0.02325581395349019,
          "durationTicks": 2,
          "midi": 51,
          "name": "D#3",
          "ticks": 1809,
          "time": 21.03488372093023,
          "velocity": 0.28346456692913385
        },
        {
          "duration": 0.023255813953486637,
          "durationTicks": 2,
          "midi": 37,
          "name": "C#2",
          "ticks": 1811,
          "time": 21.058139534883722,
          "velocity": 0.3937007874015748
        },
        {
          "duration": 0.023255813953486637,
          "durationTicks": 2,
          "midi": 52,
          "name": "E3",
          "ticks": 1811,
          "time": 21.058139534883722,
          "velocity": 0.25196850393700787
        },
        {
          "duration": 0.09302325581395365,
          "durationTicks": 8,
          "midi": 71,
          "name": "B4",
          "ticks": 1812,
          "time": 21.069767441860463,
          "velocity": 0.10236220472440945
        },
        {
          "duration": 0.10465116279069875,
          "durationTicks": 9,
          "midi": 67,
          "name": "G4",
          "ticks": 1813,
          "time": 21.08139534883721,
          "velocity": 0.18110236220472442
        },
        {
          "duration": 0.04651162790697683,
          "durationTicks": 4,
          "midi": 41,
          "name": "F2",
          "ticks": 1815,
          "time": 21.1046511627907,
          "velocity": 0.30708661417322836
        },
        {
          "duration": 0.10465116279069875,
          "durationTicks": 9,
          "midi": 75,
          "name": "D#5",
          "ticks": 1820,
          "time": 21.162790697674417,
          "velocity": 0.14173228346456693
        },
        {
          "duration": 0.02325581395349019,
          "durationTicks": 2,
          "midi": 37,
          "name": "C#2",
          "ticks": 1821,
          "time": 21.174418604651162,
          "velocity": 0.3543307086614173
        },
        {
          "duration": 0.09302325581395365,
          "durationTicks": 8,
          "midi": 59,
          "name": "B3",
          "ticks": 1821,
          "time": 21.174418604651162,
          "velocity": 0.11811023622047244
        },
        {
          "duration": 0.04651162790697683,
          "durationTicks": 4,
          "midi": 93,
          "name": "A6",
          "ticks": 1823,
          "time": 21.197674418604652,
          "velocity": 0.07874015748031496
        },
        {
          "duration": 0.03488372093023173,
          "durationTicks": 3,
          "midi": 40,
          "name": "E2",
          "ticks": 1825,
          "time": 21.22093023255814,
          "velocity": 0.33858267716535434
        },
        {
          "duration": 0.04651162790697683,
          "durationTicks": 4,
          "midi": 63,
          "name": "D#4",
          "ticks": 1825,
          "time": 21.22093023255814,
          "velocity": 0.11811023622047244
        },
        {
          "duration": 0.09302325581395365,
          "durationTicks": 8,
          "midi": 52,
          "name": "E3",
          "ticks": 1831,
          "time": 21.290697674418606,
          "velocity": 0.25196850393700787
        },
        {
          "duration": 0.034883720930235285,
          "durationTicks": 3,
          "midi": 67,
          "name": "G4",
          "ticks": 1832,
          "time": 21.302325581395348,
          "velocity": 0.11023622047244094
        },
        {
          "duration": 0.04651162790697683,
          "durationTicks": 4,
          "midi": 71,
          "name": "B4",
          "ticks": 1833,
          "time": 21.313953488372093,
          "velocity": 0.08661417322834646
        },
        {
          "duration": 0.06976744186046346,
          "durationTicks": 6,
          "midi": 78,
          "name": "F#5",
          "ticks": 1834,
          "time": 21.325581395348838,
          "velocity": 0.11023622047244094
        },
        {
          "duration": 0.02325581395349019,
          "durationTicks": 2,
          "midi": 48,
          "name": "C3",
          "ticks": 1840,
          "time": 21.3953488372093,
          "velocity": 0.2283464566929134
        },
        {
          "duration": 0.034883720930235285,
          "durationTicks": 3,
          "midi": 76,
          "name": "E5",
          "ticks": 1840,
          "time": 21.3953488372093,
          "velocity": 0.11023622047244094
        },
        {
          "duration": 0.16279069767441712,
          "durationTicks": 14,
          "midi": 64,
          "name": "E4",
          "ticks": 1841,
          "time": 21.406976744186046,
          "velocity": 0.28346456692913385
        },
        {
          "duration": 0.03488372093023173,
          "durationTicks": 3,
          "midi": 39,
          "name": "D#2",
          "ticks": 1843,
          "time": 21.430232558139537,
          "velocity": 0.36220472440944884
        },
        {
          "duration": 0.13953488372092693,
          "durationTicks": 12,
          "midi": 52,
          "name": "E3",
          "ticks": 1843,
          "time": 21.430232558139537,
          "velocity": 0.31496062992125984
        },
        {
          "duration": 0.1860465116279073,
          "durationTicks": 16,
          "midi": 59,
          "name": "B3",
          "ticks": 1844,
          "time": 21.441860465116278,
          "velocity": 0.2047244094488189
        },
        {
          "duration": 0.05813953488371837,
          "durationTicks": 5,
          "midi": 40,
          "name": "E2",
          "ticks": 1846,
          "time": 21.46511627906977,
          "velocity": 0.3228346456692913
        },
        {
          "duration": 0.2558139534883743,
          "durationTicks": 22,
          "midi": 78,
          "name": "F#5",
          "ticks": 1852,
          "time": 21.53488372093023,
          "velocity": 0.2047244094488189
        },
        {
          "duration": 0.04651162790697683,
          "durationTicks": 4,
          "midi": 47,
          "name": "B2",
          "ticks": 1856,
          "time": 21.58139534883721,
          "velocity": 0.2283464566929134
        },
        {
          "duration": 0.16279069767441712,
          "durationTicks": 14,
          "midi": 64,
          "name": "E4",
          "ticks": 1861,
          "time": 21.63953488372093,
          "velocity": 0.14173228346456693
        },
        {
          "duration": 0.16279069767441712,
          "durationTicks": 14,
          "midi": 52,
          "name": "E3",
          "ticks": 1862,
          "time": 21.651162790697676,
          "velocity": 0.30708661417322836
        },
        {
          "duration": 0.06976744186046346,
          "durationTicks": 6,
          "midi": 59,
          "name": "B3",
          "ticks": 1862,
          "time": 21.651162790697676,
          "velocity": 0.12598425196850394
        },
        {
          "duration": 0.02325581395349019,
          "durationTicks": 2,
          "midi": 40,
          "name": "E2",
          "ticks": 1864,
          "time": 21.674418604651162,
          "velocity": 0.36220472440944884
        },
        {
          "duration": 0.09302325581395365,
          "durationTicks": 8,
          "midi": 40,
          "name": "E2",
          "ticks": 1867,
          "time": 21.709302325581394,
          "velocity": 0.3464566929133858
        },
        {
          "duration": 0.03488372093023173,
          "durationTicks": 3,
          "midi": 59,
          "name": "B3",
          "ticks": 1872,
          "time": 21.767441860465116,
          "velocity": 0.16535433070866143
        },
        {
          "duration": 0.04651162790697683,
          "durationTicks": 4,
          "midi": 41,
          "name": "F2",
          "ticks": 1875,
          "time": 21.802325581395348,
          "velocity": 0.3464566929133858
        },
        {
          "duration": 0.03488372093023173,
          "durationTicks": 3,
          "midi": 54,
          "name": "F#3",
          "ticks": 1877,
          "time": 21.825581395348838,
          "velocity": 0.13385826771653545
        },
        {
          "duration": 0.03488372093023173,
          "durationTicks": 3,
          "midi": 64,
          "name": "E4",
          "ticks": 1878,
          "time": 21.837209302325583,
          "velocity": 0.07086614173228346
        },
        {
          "duration": 0.02325581395349019,
          "durationTicks": 2,
          "midi": 42,
          "name": "F#2",
          "ticks": 1879,
          "time": 21.848837209302324,
          "velocity": 0.30708661417322836
        },
        {
          "duration": 0.11627906976744029,
          "durationTicks": 10,
          "midi": 72,
          "name": "C5",
          "ticks": 1881,
          "time": 21.872093023255815,
          "velocity": 0.2125984251968504
        },
        {
          "duration": 0.09302325581395365,
          "durationTicks": 8,
          "midi": 50,
          "name": "D3",
          "ticks": 1884,
          "time": 21.906976744186046,
          "velocity": 0.25196850393700787
        },
        {
          "duration": 0.09302325581395365,
          "durationTicks": 8,
          "midi": 38,
          "name": "D2",
          "ticks": 1888,
          "time": 21.953488372093023,
          "velocity": 0.3228346456692913
        },
        {
          "duration": 0.08139534883720856,
          "durationTicks": 7,
          "midi": 71,
          "name": "B4",
          "ticks": 1891,
          "time": 21.988372093023255,
          "velocity": 0.12598425196850394
        },
        {
          "duration": 0.06976744186046346,
          "durationTicks": 6,
          "midi": 59,
          "name": "B3",
          "ticks": 1893,
          "time": 22.011627906976745,
          "velocity": 0.13385826771653545
        },
        {
          "duration": 0.09302325581395365,
          "durationTicks": 8,
          "midi": 67,
          "name": "G4",
          "ticks": 1894,
          "time": 22.023255813953487,
          "velocity": 0.14173228346456693
        },
        {
          "duration": 0.023255813953486637,
          "durationTicks": 2,
          "midi": 36,
          "name": "C2",
          "ticks": 1900,
          "time": 22.093023255813954,
          "velocity": 0.29133858267716534
        },
        {
          "duration": 0.023255813953486637,
          "durationTicks": 2,
          "midi": 57,
          "name": "A3",
          "ticks": 1901,
          "time": 22.1046511627907,
          "velocity": 0.30708661417322836
        },
        {
          "duration": 0.06976744186046702,
          "durationTicks": 6,
          "midi": 48,
          "name": "C3",
          "ticks": 1902,
          "time": 22.11627906976744,
          "velocity": 0.31496062992125984
        },
        {
          "duration": 0.10465116279069875,
          "durationTicks": 9,
          "midi": 64,
          "name": "E4",
          "ticks": 1902,
          "time": 22.11627906976744,
          "velocity": 0.2125984251968504
        },
        {
          "duration": 0.06976744186046702,
          "durationTicks": 6,
          "midi": 93,
          "name": "A6",
          "ticks": 1902,
          "time": 22.11627906976744,
          "velocity": 0.15748031496062992
        },
        {
          "duration": 0.03488372093023173,
          "durationTicks": 3,
          "midi": 35,
          "name": "B1",
          "ticks": 1903,
          "time": 22.127906976744185,
          "velocity": 0.2992125984251969
        },
        {
          "duration": 0.023255813953486637,
          "durationTicks": 2,
          "midi": 56,
          "name": "G#3",
          "ticks": 1905,
          "time": 22.151162790697676,
          "velocity": 0.2283464566929134
        },
        {
          "duration": 0.12790697674418894,
          "durationTicks": 11,
          "midi": 36,
          "name": "C2",
          "ticks": 1906,
          "time": 22.162790697674417,
          "velocity": 0.30708661417322836
        },
        {
          "duration": 0.04651162790697683,
          "durationTicks": 4,
          "midi": 60,
          "name": "C4",
          "ticks": 1911,
          "time": 22.22093023255814,
          "velocity": 0.08661417322834646
        },
        {
          "duration": 0.023255813953486637,
          "durationTicks": 2,
          "midi": 53,
          "name": "F3",
          "ticks": 1912,
          "time": 22.232558139534884,
          "velocity": 0.2440944881889764
        },
        {
          "duration": 0.12790697674418539,
          "durationTicks": 11,
          "midi": 74,
          "name": "D5",
          "ticks": 1912,
          "time": 22.232558139534884,
          "velocity": 0.14173228346456693
        },
        {
          "duration": 0.06976744186046702,
          "durationTicks": 6,
          "midi": 67,
          "name": "G4",
          "ticks": 1914,
          "time": 22.25581395348837,
          "velocity": 0.10236220472440945
        },
        {
          "duration": 0.03488372093023173,
          "durationTicks": 3,
          "midi": 47,
          "name": "B2",
          "ticks": 1916,
          "time": 22.27906976744186,
          "velocity": 0.1732283464566929
        },
        {
          "duration": 0.023255813953486637,
          "durationTicks": 2,
          "midi": 45,
          "name": "A2",
          "ticks": 1921,
          "time": 22.337209302325583,
          "velocity": 0.33070866141732286
        },
        {
          "duration": 0.034883720930235285,
          "durationTicks": 3,
          "midi": 71,
          "name": "B4",
          "ticks": 1922,
          "time": 22.348837209302324,
          "velocity": 0.1732283464566929
        },
        {
          "duration": 0.22093023255813904,
          "durationTicks": 19,
          "midi": 78,
          "name": "F#5",
          "ticks": 1922,
          "time": 22.348837209302324,
          "velocity": 0.16535433070866143
        },
        {
          "duration": 0.16279069767441712,
          "durationTicks": 14,
          "midi": 54,
          "name": "F#3",
          "ticks": 1923,
          "time": 22.36046511627907,
          "velocity": 0.2992125984251969
        },
        {
          "duration": 0.023255813953486637,
          "durationTicks": 2,
          "midi": 46,
          "name": "A#2",
          "ticks": 1924,
          "time": 22.372093023255815,
          "velocity": 0.2677165354330709
        },
        {
          "duration": 0.05813953488372192,
          "durationTicks": 5,
          "midi": 59,
          "name": "B3",
          "ticks": 1924,
          "time": 22.372093023255815,
          "velocity": 0.09448818897637795
        },
        {
          "duration": 0.10465116279069875,
          "durationTicks": 9,
          "midi": 35,
          "name": "B1",
          "ticks": 1926,
          "time": 22.3953488372093,
          "velocity": 0.28346456692913385
        },
        {
          "duration": 0.1744186046511622,
          "durationTicks": 15,
          "midi": 35,
          "name": "B1",
          "ticks": 1936,
          "time": 22.511627906976745,
          "velocity": 0.2755905511811024
        },
        {
          "duration": 0.09302325581395365,
          "durationTicks": 8,
          "midi": 71,
          "name": "B4",
          "ticks": 1940,
          "time": 22.558139534883722,
          "velocity": 0.1968503937007874
        },
        {
          "duration": 0.10465116279069875,
          "durationTicks": 9,
          "midi": 78,
          "name": "F#5",
          "ticks": 1951,
          "time": 22.686046511627907,
          "velocity": 0.10236220472440945
        },
        {
          "duration": 0.023255813953486637,
          "durationTicks": 2,
          "midi": 35,
          "name": "B1",
          "ticks": 1952,
          "time": 22.697674418604652,
          "velocity": 0.2677165354330709
        },
        {
          "duration": 0.03488372093023173,
          "durationTicks": 3,
          "midi": 55,
          "name": "G3",
          "ticks": 1952,
          "time": 22.697674418604652,
          "velocity": 0.16535433070866143
        },
        {
          "duration": 0.09302325581395365,
          "durationTicks": 8,
          "midi": 63,
          "name": "D#4",
          "ticks": 1953,
          "time": 22.709302325581394,
          "velocity": 0.10236220472440945
        },
        {
          "duration": 0.03488372093023173,
          "durationTicks": 3,
          "midi": 47,
          "name": "B2",
          "ticks": 1955,
          "time": 22.732558139534884,
          "velocity": 0.30708661417322836
        },
        {
          "duration": 0.09302325581395365,
          "durationTicks": 8,
          "midi": 66,
          "name": "F#4",
          "ticks": 1955,
          "time": 22.732558139534884,
          "velocity": 0.09448818897637795
        },
        {
          "duration": 0.04651162790697683,
          "durationTicks": 4,
          "midi": 59,
          "name": "B3",
          "ticks": 1958,
          "time": 22.767441860465116,
          "velocity": 0.11023622047244094
        },
        {
          "duration": 0.09302325581395365,
          "durationTicks": 8,
          "midi": 72,
          "name": "C5",
          "ticks": 1961,
          "time": 22.802325581395348,
          "velocity": 0.25196850393700787
        },
        {
          "duration": 0.023255813953486637,
          "durationTicks": 2,
          "midi": 47,
          "name": "B2",
          "ticks": 1963,
          "time": 22.825581395348838,
          "velocity": 0.2283464566929134
        },
        {
          "duration": 0.04651162790697683,
          "durationTicks": 4,
          "midi": 71,
          "name": "B4",
          "ticks": 1972,
          "time": 22.930232558139537,
          "velocity": 0.10236220472440945
        },
        {
          "duration": 0.10465116279069875,
          "durationTicks": 9,
          "midi": 78,
          "name": "F#5",
          "ticks": 1973,
          "time": 22.941860465116278,
          "velocity": 0.15748031496062992
        },
        {
          "duration": 0.08139534883720856,
          "durationTicks": 7,
          "midi": 48,
          "name": "C3",
          "ticks": 1974,
          "time": 22.953488372093023,
          "velocity": 0.2125984251968504
        },
        {
          "duration": 0.03488372093023173,
          "durationTicks": 3,
          "midi": 36,
          "name": "C2",
          "ticks": 1978,
          "time": 23,
          "velocity": 0.1889763779527559
        },
        {
          "duration": 0.02325581395349019,
          "durationTicks": 2,
          "midi": 63,
          "name": "D#4",
          "ticks": 1980,
          "time": 23.023255813953487,
          "velocity": 0.2283464566929134
        },
        {
          "duration": 0.04651162790697683,
          "durationTicks": 4,
          "midi": 70,
          "name": "A#4",
          "ticks": 1980,
          "time": 23.023255813953487,
          "velocity": 0.25984251968503935
        },
        {
          "duration": 0.16279069767441712,
          "durationTicks": 14,
          "midi": 66,
          "name": "F#4",
          "ticks": 1982,
          "time": 23.046511627906977,
          "velocity": 0.13385826771653545
        },
        {
          "duration": 0.023255813953486637,
          "durationTicks": 2,
          "midi": 46,
          "name": "A#2",
          "ticks": 1983,
          "time": 23.058139534883722,
          "velocity": 0.28346456692913385
        },
        {
          "duration": 0.02325581395349019,
          "durationTicks": 2,
          "midi": 36,
          "name": "C2",
          "ticks": 1992,
          "time": 23.162790697674417,
          "velocity": 0.36220472440944884
        },
        {
          "duration": 0.06976744186046702,
          "durationTicks": 6,
          "midi": 71,
          "name": "B4",
          "ticks": 1992,
          "time": 23.162790697674417,
          "velocity": 0.11811023622047244
        },
        {
          "duration": 0.03488372093023173,
          "durationTicks": 3,
          "midi": 47,
          "name": "B2",
          "ticks": 1995,
          "time": 23.197674418604652,
          "velocity": 0.12598425196850394
        },
        {
          "duration": 0.04651162790697683,
          "durationTicks": 4,
          "midi": 59,
          "name": "B3",
          "ticks": 2000,
          "time": 23.25581395348837,
          "velocity": 0.16535433070866143
        },
        {
          "duration": 0.06976744186046702,
          "durationTicks": 6,
          "midi": 71,
          "name": "B4",
          "ticks": 2001,
          "time": 23.267441860465116,
          "velocity": 0.1889763779527559
        },
        {
          "duration": 0.05813953488372192,
          "durationTicks": 5,
          "midi": 99,
          "name": "D#7",
          "ticks": 2001,
          "time": 23.267441860465116,
          "velocity": 0.12598425196850394
        },
        {
          "duration": 0.023255813953486637,
          "durationTicks": 2,
          "midi": 44,
          "name": "G#2",
          "ticks": 2002,
          "time": 23.27906976744186,
          "velocity": 0.4409448818897638
        },
        {
          "duration": 0.1744186046511622,
          "durationTicks": 15,
          "midi": 47,
          "name": "B2",
          "ticks": 2005,
          "time": 23.313953488372093,
          "velocity": 0.25984251968503935
        },
        {
          "duration": 0.02325581395349019,
          "durationTicks": 2,
          "midi": 35,
          "name": "B1",
          "ticks": 2008,
          "time": 23.348837209302324,
          "velocity": 0.25984251968503935
        },
        {
          "duration": 0.1744186046511622,
          "durationTicks": 15,
          "midi": 54,
          "name": "F#3",
          "ticks": 2011,
          "time": 23.38372093023256,
          "velocity": 0.1889763779527559
        },
        {
          "duration": 0.05813953488372192,
          "durationTicks": 5,
          "midi": 71,
          "name": "B4",
          "ticks": 2012,
          "time": 23.3953488372093,
          "velocity": 0.13385826771653545
        },
        {
          "duration": 0.05813953488372192,
          "durationTicks": 5,
          "midi": 35,
          "name": "B1",
          "ticks": 2013,
          "time": 23.406976744186046,
          "velocity": 0.25196850393700787
        },
        {
          "duration": 0.12790697674418539,
          "durationTicks": 11,
          "midi": 78,
          "name": "F#5",
          "ticks": 2013,
          "time": 23.406976744186046,
          "velocity": 0.1732283464566929
        },
        {
          "duration": 0.023255813953486637,
          "durationTicks": 2,
          "midi": 35,
          "name": "B1",
          "ticks": 2019,
          "time": 23.476744186046513,
          "velocity": 0.2440944881889764
        },
        {
          "duration": 0.03488372093023173,
          "durationTicks": 3,
          "midi": 76,
          "name": "E5",
          "ticks": 2021,
          "time": 23.5,
          "velocity": 0.12598425196850394
        },
        {
          "duration": 0.023255813953486637,
          "durationTicks": 2,
          "midi": 35,
          "name": "B1",
          "ticks": 2022,
          "time": 23.511627906976745,
          "velocity": 0.2440944881889764
        },
        {
          "duration": 0.06976744186046346,
          "durationTicks": 6,
          "midi": 67,
          "name": "G4",
          "ticks": 2022,
          "time": 23.511627906976745,
          "velocity": 0.2204724409448819
        },
        {
          "duration": 0.023255813953486637,
          "durationTicks": 2,
          "midi": 45,
          "name": "A2",
          "ticks": 2025,
          "time": 23.546511627906977,
          "velocity": 0.28346456692913385
        },
        {
          "duration": 0.04651162790697683,
          "durationTicks": 4,
          "midi": 71,
          "name": "B4",
          "ticks": 2032,
          "time": 23.627906976744185,
          "velocity": 0.11023622047244094
        },
        {
          "duration": 0.05813953488372192,
          "durationTicks": 5,
          "midi": 78,
          "name": "F#5",
          "ticks": 2033,
          "time": 23.63953488372093,
          "velocity": 0.07874015748031496
        },
        {
          "duration": 0.03488372093023173,
          "durationTicks": 3,
          "midi": 41,
          "name": "F2",
          "ticks": 2036,
          "time": 23.674418604651162,
          "velocity": 0.18110236220472442
        },
        {
          "duration": 0.05813953488372192,
          "durationTicks": 5,
          "midi": 57,
          "name": "A3",
          "ticks": 2037,
          "time": 23.686046511627907,
          "velocity": 0.12598425196850394
        },
        {
          "duration": 0.03488372093023173,
          "durationTicks": 3,
          "midi": 80,
          "name": "G#5",
          "ticks": 2041,
          "time": 23.732558139534884,
          "velocity": 0.16535433070866143
        },
        {
          "duration": 0.05813953488371837,
          "durationTicks": 5,
          "midi": 88,
          "name": "E6",
          "ticks": 2042,
          "time": 23.74418604651163,
          "velocity": 0.07874015748031496
        },
        {
          "duration": 0.034883720930235285,
          "durationTicks": 3,
          "midi": 61,
          "name": "C#4",
          "ticks": 2051,
          "time": 23.848837209302324,
          "velocity": 0.16535433070866143
        },
        {
          "duration": 0.02325581395349019,
          "durationTicks": 2,
          "midi": 40,
          "name": "E2",
          "ticks": 2052,
          "time": 23.86046511627907,
          "velocity": 0.4094488188976378
        },
        {
          "duration": 0.08139534883720856,
          "durationTicks": 7,
          "midi": 54,
          "name": "F#3",
          "ticks": 2052,
          "time": 23.86046511627907,
          "velocity": 0.25196850393700787
        },
        {
          "duration": 0.06976744186046346,
          "durationTicks": 6,
          "midi": 71,
          "name": "B4",
          "ticks": 2053,
          "time": 23.872093023255815,
          "velocity": 0.11811023622047244
        },
        {
          "duration": 0.05813953488372192,
          "durationTicks": 5,
          "midi": 42,
          "name": "F#2",
          "ticks": 2055,
          "time": 23.8953488372093,
          "velocity": 0.36220472440944884
        },
        {
          "duration": 0.30232558139535115,
          "durationTicks": 26,
          "midi": 78,
          "name": "F#5",
          "ticks": 2055,
          "time": 23.8953488372093,
          "velocity": 0.2204724409448819
        },
        {
          "duration": 0.03488372093023173,
          "durationTicks": 3,
          "midi": 60,
          "name": "C4",
          "ticks": 2060,
          "time": 23.953488372093023,
          "velocity": 0.2047244094488189
        },
        {
          "duration": 0.03488372093023173,
          "durationTicks": 3,
          "midi": 54,
          "name": "F#3",
          "ticks": 2062,
          "time": 23.976744186046513,
          "velocity": 0.25196850393700787
        },
        {
          "duration": 0.06976744186046346,
          "durationTicks": 6,
          "midi": 85,
          "name": "C#6",
          "ticks": 2062,
          "time": 23.976744186046513,
          "velocity": 0.12598425196850394
        },
        {
          "duration": 0.06976744186046702,
          "durationTicks": 6,
          "midi": 42,
          "name": "F#2",
          "ticks": 2066,
          "time": 24.023255813953487,
          "velocity": 0.36220472440944884
        },
        {
          "duration": 0.04651162790697683,
          "durationTicks": 4,
          "midi": 57,
          "name": "A3",
          "ticks": 2066,
          "time": 24.023255813953487,
          "velocity": 0.2204724409448819
        },
        {
          "duration": 0.023255813953486637,
          "durationTicks": 2,
          "midi": 39,
          "name": "D#2",
          "ticks": 2072,
          "time": 24.093023255813954,
          "velocity": 0.36220472440944884
        },
        {
          "duration": 0.04651162790697683,
          "durationTicks": 4,
          "midi": 61,
          "name": "C#4",
          "ticks": 2072,
          "time": 24.093023255813954,
          "velocity": 0.12598425196850394
        },
        {
          "duration": 0.03488372093023173,
          "durationTicks": 3,
          "midi": 71,
          "name": "B4",
          "ticks": 2073,
          "time": 24.1046511627907,
          "velocity": 0.07874015748031496
        },
        {
          "duration": 0.06976744186046702,
          "durationTicks": 6,
          "midi": 42,
          "name": "F#2",
          "ticks": 2075,
          "time": 24.127906976744185,
          "velocity": 0.3543307086614173
        },
        {
          "duration": 0.04651162790697683,
          "durationTicks": 4,
          "midi": 53,
          "name": "F3",
          "ticks": 2079,
          "time": 24.174418604651162,
          "velocity": 0.1732283464566929
        },
        {
          "duration": 0.03488372093023173,
          "durationTicks": 3,
          "midi": 61,
          "name": "C#4",
          "ticks": 2079,
          "time": 24.174418604651162,
          "velocity": 0.08661417322834646
        },
        {
          "duration": 0.034883720930235285,
          "durationTicks": 3,
          "midi": 42,
          "name": "F#2",
          "ticks": 2082,
          "time": 24.209302325581394,
          "velocity": 0.3937007874015748
        },
        {
          "duration": 0.034883720930235285,
          "durationTicks": 3,
          "midi": 67,
          "name": "G4",
          "ticks": 2082,
          "time": 24.209302325581394,
          "velocity": 0.2047244094488189
        },
        {
          "duration": 0.04651162790697683,
          "durationTicks": 4,
          "midi": 71,
          "name": "B4",
          "ticks": 2082,
          "time": 24.209302325581394,
          "velocity": 0.07874015748031496
        },
        {
          "duration": 0.2093023255813975,
          "durationTicks": 18,
          "midi": 78,
          "name": "F#5",
          "ticks": 2083,
          "time": 24.22093023255814,
          "velocity": 0.2125984251968504
        },
        {
          "duration": 0.03488372093023173,
          "durationTicks": 3,
          "midi": 53,
          "name": "F3",
          "ticks": 2084,
          "time": 24.232558139534884,
          "velocity": 0.23622047244094488
        },
        {
          "duration": 0.1860465116279073,
          "durationTicks": 16,
          "midi": 66,
          "name": "F#4",
          "ticks": 2085,
          "time": 24.24418604651163,
          "velocity": 0.15748031496062992
        },
        {
          "duration": 0.034883720930235285,
          "durationTicks": 3,
          "midi": 35,
          "name": "B1",
          "ticks": 2086,
          "time": 24.25581395348837,
          "velocity": 0.23622047244094488
        },
        {
          "duration": 0.27906976744186096,
          "durationTicks": 24,
          "midi": 59,
          "name": "B3",
          "ticks": 2088,
          "time": 24.27906976744186,
          "velocity": 0.25196850393700787
        },
        {
          "duration": 0.02325581395349019,
          "durationTicks": 2,
          "midi": 35,
          "name": "B1",
          "ticks": 2090,
          "time": 24.302325581395348,
          "velocity": 0.25196850393700787
        },
        {
          "duration": 0.023255813953486637,
          "durationTicks": 2,
          "midi": 35,
          "name": "B1",
          "ticks": 2093,
          "time": 24.337209302325583,
          "velocity": 0.25984251968503935
        },
        {
          "duration": 0.04651162790697683,
          "durationTicks": 4,
          "midi": 35,
          "name": "B1",
          "ticks": 2096,
          "time": 24.372093023255815,
          "velocity": 0.2440944881889764
        },
        {
          "duration": 0.023255813953486637,
          "durationTicks": 2,
          "midi": 35,
          "name": "B1",
          "ticks": 2101,
          "time": 24.430232558139537,
          "velocity": 0.2440944881889764
        },
        {
          "duration": 0.06976744186046702,
          "durationTicks": 6,
          "midi": 99,
          "name": "D#7",
          "ticks": 2102,
          "time": 24.441860465116278,
          "velocity": 0.11023622047244094
        },
        {
          "duration": 0.023255813953486637,
          "durationTicks": 2,
          "midi": 35,
          "name": "B1",
          "ticks": 2104,
          "time": 24.46511627906977,
          "velocity": 0.2440944881889764
        },
        {
          "duration": 0.03488372093023173,
          "durationTicks": 3,
          "midi": 52,
          "name": "E3",
          "ticks": 2104,
          "time": 24.46511627906977,
          "velocity": 0.11023622047244094
        },
        {
          "duration": 0.08139534883720856,
          "durationTicks": 7,
          "midi": 66,
          "name": "F#4",
          "ticks": 2105,
          "time": 24.476744186046513,
          "velocity": 0.07086614173228346
        },
        {
          "duration": 0.05813953488372192,
          "durationTicks": 5,
          "midi": 35,
          "name": "B1",
          "ticks": 2107,
          "time": 24.5,
          "velocity": 0.2440944881889764
        },
        {
          "duration": 0.03488372093023173,
          "durationTicks": 3,
          "midi": 58,
          "name": "A#3",
          "ticks": 2112,
          "time": 24.558139534883722,
          "velocity": 0.1732283464566929
        },
        {
          "duration": 0.034883720930235285,
          "durationTicks": 3,
          "midi": 71,
          "name": "B4",
          "ticks": 2113,
          "time": 24.569767441860463,
          "velocity": 0.07874015748031496
        },
        {
          "duration": 0.02325581395349019,
          "durationTicks": 2,
          "midi": 47,
          "name": "B2",
          "ticks": 2114,
          "time": 24.58139534883721,
          "velocity": 0.2992125984251969
        },
        {
          "duration": 0.09302325581395365,
          "durationTicks": 8,
          "midi": 63,
          "name": "D#4",
          "ticks": 2114,
          "time": 24.58139534883721,
          "velocity": 0.11811023622047244
        },
        {
          "duration": 0.09302325581395365,
          "durationTicks": 8,
          "midi": 66,
          "name": "F#4",
          "ticks": 2115,
          "time": 24.593023255813954,
          "velocity": 0.1968503937007874
        },
        {
          "duration": 0.02325581395349019,
          "durationTicks": 2,
          "midi": 46,
          "name": "A#2",
          "ticks": 2117,
          "time": 24.61627906976744,
          "velocity": 0.2755905511811024
        },
        {
          "duration": 0.09302325581395365,
          "durationTicks": 8,
          "midi": 72,
          "name": "C5",
          "ticks": 2120,
          "time": 24.651162790697676,
          "velocity": 0.25984251968503935
        },
        {
          "duration": 0.03488372093023173,
          "durationTicks": 3,
          "midi": 71,
          "name": "B4",
          "ticks": 2128,
          "time": 24.74418604651163,
          "velocity": 0.12598425196850394
        },
        {
          "duration": 0.023255813953486637,
          "durationTicks": 2,
          "midi": 45,
          "name": "A2",
          "ticks": 2131,
          "time": 24.77906976744186,
          "velocity": 0.3937007874015748
        },
        {
          "duration": 0.04651162790697683,
          "durationTicks": 4,
          "midi": 55,
          "name": "G3",
          "ticks": 2131,
          "time": 24.77906976744186,
          "velocity": 0.2125984251968504
        },
        {
          "duration": 0.08139534883721211,
          "durationTicks": 7,
          "midi": 71,
          "name": "B4",
          "ticks": 2133,
          "time": 24.802325581395348,
          "velocity": 0.10236220472440945
        },
        {
          "duration": 0.06976744186046702,
          "durationTicks": 6,
          "midi": 63,
          "name": "D#4",
          "ticks": 2134,
          "time": 24.813953488372093,
          "velocity": 0.14960629921259844
        },
        {
          "duration": 0.09302325581395365,
          "durationTicks": 8,
          "midi": 78,
          "name": "F#5",
          "ticks": 2134,
          "time": 24.813953488372093,
          "velocity": 0.14173228346456693
        },
        {
          "duration": 0.02325581395349019,
          "durationTicks": 2,
          "midi": 35,
          "name": "B1",
          "ticks": 2138,
          "time": 24.86046511627907,
          "velocity": 0.2440944881889764
        },
        {
          "duration": 0.03488372093023173,
          "durationTicks": 3,
          "midi": 57,
          "name": "A3",
          "ticks": 2139,
          "time": 24.872093023255815,
          "velocity": 0.14960629921259844
        },
        {
          "duration": 0.11627906976744029,
          "durationTicks": 10,
          "midi": 66,
          "name": "F#4",
          "ticks": 2139,
          "time": 24.872093023255815,
          "velocity": 0.14173228346456693
        },
        {
          "duration": 0.023255813953486637,
          "durationTicks": 2,
          "midi": 48,
          "name": "C3",
          "ticks": 2140,
          "time": 24.88372093023256,
          "velocity": 0.2992125984251969
        },
        {
          "duration": 0.03488372093023173,
          "durationTicks": 3,
          "midi": 59,
          "name": "B3",
          "ticks": 2142,
          "time": 24.906976744186046,
          "velocity": 0.07874015748031496
        },
        {
          "duration": 0.04651162790697683,
          "durationTicks": 4,
          "midi": 48,
          "name": "C3",
          "ticks": 2147,
          "time": 24.96511627906977,
          "velocity": 0.18110236220472442
        },
        {
          "duration": 0.03488372093023173,
          "durationTicks": 3,
          "midi": 63,
          "name": "D#4",
          "ticks": 2148,
          "time": 24.976744186046513,
          "velocity": 0.2755905511811024
        },
        {
          "duration": 0.03488372093023173,
          "durationTicks": 3,
          "midi": 72,
          "name": "C5",
          "ticks": 2149,
          "time": 24.988372093023255,
          "velocity": 0.15748031496062992
        },
        {
          "duration": 0.023255813953486637,
          "durationTicks": 2,
          "midi": 60,
          "name": "C4",
          "ticks": 2150,
          "time": 25,
          "velocity": 0.2283464566929134
        },
        {
          "duration": 0.02325581395349019,
          "durationTicks": 2,
          "midi": 53,
          "name": "F3",
          "ticks": 2152,
          "time": 25.023255813953487,
          "velocity": 0.2283464566929134
        },
        {
          "duration": 0.04651162790697683,
          "durationTicks": 4,
          "midi": 71,
          "name": "B4",
          "ticks": 2152,
          "time": 25.023255813953487,
          "velocity": 0.07874015748031496
        },
        {
          "duration": 0.09302325581395365,
          "durationTicks": 8,
          "midi": 78,
          "name": "F#5",
          "ticks": 2153,
          "time": 25.03488372093023,
          "velocity": 0.11811023622047244
        },
        {
          "duration": 0.03488372093023173,
          "durationTicks": 3,
          "midi": 47,
          "name": "B2",
          "ticks": 2154,
          "time": 25.046511627906977,
          "velocity": 0.28346456692913385
        },
        {
          "duration": 0.12790697674418539,
          "durationTicks": 11,
          "midi": 59,
          "name": "B3",
          "ticks": 2159,
          "time": 25.1046511627907,
          "velocity": 0.2125984251968504
        },
        {
          "duration": 0.023255813953486637,
          "durationTicks": 2,
          "midi": 54,
          "name": "F#3",
          "ticks": 2163,
          "time": 25.151162790697676,
          "velocity": 0.2440944881889764
        },
        {
          "duration": 0.23255813953488413,
          "durationTicks": 20,
          "midi": 47,
          "name": "B2",
          "ticks": 2165,
          "time": 25.174418604651162,
          "velocity": 0.33858267716535434
        },
        {
          "duration": 0.24418604651162923,
          "durationTicks": 21,
          "midi": 35,
          "name": "B1",
          "ticks": 2168,
          "time": 25.209302325581394,
          "velocity": 0.2440944881889764
        },
        {
          "duration": 0.06976744186046702,
          "durationTicks": 6,
          "midi": 54,
          "name": "F#3",
          "ticks": 2169,
          "time": 25.22093023255814,
          "velocity": 0.2204724409448819
        },
        {
          "duration": 0.03488372093023173,
          "durationTicks": 3,
          "midi": 71,
          "name": "B4",
          "ticks": 2173,
          "time": 25.267441860465116,
          "velocity": 0.09448818897637795
        },
        {
          "duration": 0.10465116279069875,
          "durationTicks": 9,
          "midi": 78,
          "name": "F#5",
          "ticks": 2173,
          "time": 25.267441860465116,
          "velocity": 0.16535433070866143
        },
        {
          "duration": 0.06976744186046702,
          "durationTicks": 6,
          "midi": 66,
          "name": "F#4",
          "ticks": 2176,
          "time": 25.302325581395348,
          "velocity": 0.1968503937007874
        },
        {
          "duration": 0.08139534883720856,
          "durationTicks": 7,
          "midi": 67,
          "name": "G4",
          "ticks": 2182,
          "time": 25.372093023255815,
          "velocity": 0.2283464566929134
        },
        {
          "duration": 0.03488372093023173,
          "durationTicks": 3,
          "midi": 59,
          "name": "B3",
          "ticks": 2185,
          "time": 25.406976744186046,
          "velocity": 0.09448818897637795
        },
        {
          "duration": 0.04651162790697683,
          "durationTicks": 4,
          "midi": 47,
          "name": "B2",
          "ticks": 2186,
          "time": 25.41860465116279,
          "velocity": 0.2677165354330709
        },
        {
          "duration": 0.023255813953486637,
          "durationTicks": 2,
          "midi": 42,
          "name": "F#2",
          "ticks": 2191,
          "time": 25.476744186046513,
          "velocity": 0.2755905511811024
        },
        {
          "duration": 0.10465116279069875,
          "durationTicks": 9,
          "midi": 66,
          "name": "F#4",
          "ticks": 2192,
          "time": 25.488372093023255,
          "velocity": 0.15748031496062992
        },
        {
          "duration": 0.10465116279069875,
          "durationTicks": 9,
          "midi": 47,
          "name": "B2",
          "ticks": 2193,
          "time": 25.5,
          "velocity": 0.2755905511811024
        },
        {
          "duration": 0.04651162790697683,
          "durationTicks": 4,
          "midi": 71,
          "name": "B4",
          "ticks": 2193,
          "time": 25.5,
          "velocity": 0.10236220472440945
        },
        {
          "duration": 0.03488372093023173,
          "durationTicks": 3,
          "midi": 36,
          "name": "C2",
          "ticks": 2194,
          "time": 25.511627906976745,
          "velocity": 0.13385826771653545
        },
        {
          "duration": 0.03488372093023173,
          "durationTicks": 3,
          "midi": 53,
          "name": "F3",
          "ticks": 2198,
          "time": 25.558139534883722,
          "velocity": 0.13385826771653545
        },
        {
          "duration": 0.034883720930235285,
          "durationTicks": 3,
          "midi": 57,
          "name": "A3",
          "ticks": 2199,
          "time": 25.569767441860463,
          "velocity": 0.15748031496062992
        },
        {
          "duration": 0.03488372093023173,
          "durationTicks": 3,
          "midi": 88,
          "name": "E6",
          "ticks": 2201,
          "time": 25.593023255813954,
          "velocity": 0.10236220472440945
        },
        {
          "duration": 0.03488372093023173,
          "durationTicks": 3,
          "midi": 40,
          "name": "E2",
          "ticks": 2202,
          "time": 25.6046511627907,
          "velocity": 0.3228346456692913
        },
        {
          "duration": 0.03488372093023173,
          "durationTicks": 3,
          "midi": 42,
          "name": "F#2",
          "ticks": 2205,
          "time": 25.63953488372093,
          "velocity": 0.31496062992125984
        },
        {
          "duration": 0.03488372093023173,
          "durationTicks": 3,
          "midi": 93,
          "name": "A6",
          "ticks": 2206,
          "time": 25.651162790697676,
          "velocity": 0.11811023622047244
        },
        {
          "duration": 0.08139534883721211,
          "durationTicks": 7,
          "midi": 71,
          "name": "B4",
          "ticks": 2211,
          "time": 25.709302325581394,
          "velocity": 0.12598425196850394
        },
        {
          "duration": 0.04651162790697683,
          "durationTicks": 4,
          "midi": 59,
          "name": "B3",
          "ticks": 2212,
          "time": 25.72093023255814,
          "velocity": 0.15748031496062992
        },
        {
          "duration": 0.1860465116279073,
          "durationTicks": 16,
          "midi": 66,
          "name": "F#4",
          "ticks": 2213,
          "time": 25.732558139534884,
          "velocity": 0.1732283464566929
        },
        {
          "duration": 0.04651162790697683,
          "durationTicks": 4,
          "midi": 63,
          "name": "D#4",
          "ticks": 2216,
          "time": 25.767441860465116,
          "velocity": 0.11023622047244094
        },
        {
          "duration": 0.023255813953486637,
          "durationTicks": 2,
          "midi": 64,
          "name": "E4",
          "ticks": 2221,
          "time": 25.825581395348838,
          "velocity": 0.2440944881889764
        },
        {
          "duration": 0.03488372093023173,
          "durationTicks": 3,
          "midi": 70,
          "name": "A#4",
          "ticks": 2221,
          "time": 25.825581395348838,
          "velocity": 0.1732283464566929
        },
        {
          "duration": 0.09302325581395365,
          "durationTicks": 8,
          "midi": 85,
          "name": "C#6",
          "ticks": 2221,
          "time": 25.825581395348838,
          "velocity": 0.11811023622047244
        },
        {
          "duration": 0.023255813953486637,
          "durationTicks": 2,
          "midi": 38,
          "name": "D2",
          "ticks": 2222,
          "time": 25.837209302325583,
          "velocity": 0.2677165354330709
        },
        {
          "duration": 0.4767441860465098,
          "durationTicks": 41,
          "midi": 78,
          "name": "F#5",
          "ticks": 2222,
          "time": 25.837209302325583,
          "velocity": 0.2125984251968504
        },
        {
          "duration": 0.04651162790697683,
          "durationTicks": 4,
          "midi": 54,
          "name": "F#3",
          "ticks": 2223,
          "time": 25.848837209302324,
          "velocity": 0.30708661417322836
        },
        {
          "duration": 0.05813953488372192,
          "durationTicks": 5,
          "midi": 61,
          "name": "C#4",
          "ticks": 2224,
          "time": 25.86046511627907,
          "velocity": 0.2125984251968504
        },
        {
          "duration": 0.03488372093023173,
          "durationTicks": 3,
          "midi": 42,
          "name": "F#2",
          "ticks": 2226,
          "time": 25.88372093023256,
          "velocity": 0.36220472440944884
        },
        {
          "duration": 0.02325581395349019,
          "durationTicks": 2,
          "midi": 41,
          "name": "F2",
          "ticks": 2231,
          "time": 25.941860465116278,
          "velocity": 0.36220472440944884
        },
        {
          "duration": 0.08139534883720856,
          "durationTicks": 7,
          "midi": 42,
          "name": "F#2",
          "ticks": 2235,
          "time": 25.988372093023255,
          "velocity": 0.33858267716535434
        },
        {
          "duration": 0.03488372093023173,
          "durationTicks": 3,
          "midi": 61,
          "name": "C#4",
          "ticks": 2239,
          "time": 26.03488372093023,
          "velocity": 0.15748031496062992
        },
        {
          "duration": 0.034883720930235285,
          "durationTicks": 3,
          "midi": 99,
          "name": "D#7",
          "ticks": 2242,
          "time": 26.069767441860463,
          "velocity": 0.08661417322834646
        },
        {
          "duration": 0.10465116279069875,
          "durationTicks": 9,
          "midi": 59,
          "name": "B3",
          "ticks": 2243,
          "time": 26.08139534883721,
          "velocity": 0.2047244094488189
        },
        {
          "duration": 0.023255813953486637,
          "durationTicks": 2,
          "midi": 44,
          "name": "G#2",
          "ticks": 2244,
          "time": 26.093023255813954,
          "velocity": 0.25984251968503935
        },
        {
          "duration": 0.16279069767441712,
          "durationTicks": 14,
          "midi": 66,
          "name": "F#4",
          "ticks": 2245,
          "time": 26.1046511627907,
          "velocity": 0.2125984251968504
        },
        {
          "duration": 0.15116279069767202,
          "durationTicks": 13,
          "midi": 35,
          "name": "B1",
          "ticks": 2249,
          "time": 26.151162790697676,
          "velocity": 0.25984251968503935
        },
        {
          "duration": 0.04651162790697683,
          "durationTicks": 4,
          "midi": 71,
          "name": "B4",
          "ticks": 2253,
          "time": 26.197674418604652,
          "velocity": 0.09448818897637795
        },
        {
          "duration": 0.02325581395349019,
          "durationTicks": 2,
          "midi": 48,
          "name": "C3",
          "ticks": 2262,
          "time": 26.302325581395348,
          "velocity": 0.2283464566929134
        },
        {
          "duration": 0.09302325581395365,
          "durationTicks": 8,
          "midi": 71,
          "name": "B4",
          "ticks": 2262,
          "time": 26.302325581395348,
          "velocity": 0.18110236220472442
        },
        {
          "duration": 0.03488372093023173,
          "durationTicks": 3,
          "midi": 53,
          "name": "F3",
          "ticks": 2263,
          "time": 26.313953488372093,
          "velocity": 0.1732283464566929
        },
        {
          "duration": 0.023255813953486637,
          "durationTicks": 2,
          "midi": 45,
          "name": "A2",
          "ticks": 2264,
          "time": 26.325581395348838,
          "velocity": 0.30708661417322836
        },
        {
          "duration": 0.05813953488372192,
          "durationTicks": 5,
          "midi": 99,
          "name": "D#7",
          "ticks": 2264,
          "time": 26.325581395348838,
          "velocity": 0.07874015748031496
        },
        {
          "duration": 0.09302325581395365,
          "durationTicks": 8,
          "midi": 35,
          "name": "B1",
          "ticks": 2266,
          "time": 26.348837209302324,
          "velocity": 0.25984251968503935
        },
        {
          "duration": 0.06976744186046702,
          "durationTicks": 6,
          "midi": 57,
          "name": "A3",
          "ticks": 2266,
          "time": 26.348837209302324,
          "velocity": 0.1732283464566929
        },
        {
          "duration": 0.05813953488372192,
          "durationTicks": 5,
          "midi": 47,
          "name": "B2",
          "ticks": 2268,
          "time": 26.372093023255815,
          "velocity": 0.2755905511811024
        },
        {
          "duration": 0.13953488372093048,
          "durationTicks": 12,
          "midi": 78,
          "name": "F#5",
          "ticks": 2271,
          "time": 26.406976744186046,
          "velocity": 0.13385826771653545
        },
        {
          "duration": 0.03488372093023173,
          "durationTicks": 3,
          "midi": 53,
          "name": "F3",
          "ticks": 2273,
          "time": 26.430232558139537,
          "velocity": 0.18110236220472442
        },
        {
          "duration": 0.04651162790697683,
          "durationTicks": 4,
          "midi": 66,
          "name": "F#4",
          "ticks": 2274,
          "time": 26.441860465116278,
          "velocity": 0.1732283464566929
        },
        {
          "duration": 0.02325581395349019,
          "durationTicks": 2,
          "midi": 48,
          "name": "C3",
          "ticks": 2278,
          "time": 26.488372093023255,
          "velocity": 0.2677165354330709
        },
        {
          "duration": 0.02325581395349019,
          "durationTicks": 2,
          "midi": 46,
          "name": "A#2",
          "ticks": 2281,
          "time": 26.523255813953487,
          "velocity": 0.25196850393700787
        },
        {
          "duration": 0.08139534883721211,
          "durationTicks": 7,
          "midi": 72,
          "name": "C5",
          "ticks": 2281,
          "time": 26.523255813953487,
          "velocity": 0.2992125984251969
        },
        {
          "duration": 0.08139534883721211,
          "durationTicks": 7,
          "midi": 59,
          "name": "B3",
          "ticks": 2293,
          "time": 26.662790697674417,
          "velocity": 0.2047244094488189
        },
        {
          "duration": 0.09302325581395365,
          "durationTicks": 8,
          "midi": 63,
          "name": "D#4",
          "ticks": 2293,
          "time": 26.662790697674417,
          "velocity": 0.08661417322834646
        },
        {
          "duration": 0.11627906976744384,
          "durationTicks": 10,
          "midi": 78,
          "name": "F#5",
          "ticks": 2294,
          "time": 26.674418604651162,
          "velocity": 0.13385826771653545
        },
        {
          "duration": 0.02325581395349019,
          "durationTicks": 2,
          "midi": 32,
          "name": "G#1",
          "ticks": 2297,
          "time": 26.709302325581394,
          "velocity": 0.30708661417322836
        },
        {
          "duration": 0.034883720930235285,
          "durationTicks": 3,
          "midi": 48,
          "name": "C3",
          "ticks": 2297,
          "time": 26.709302325581394,
          "velocity": 0.2283464566929134
        },
        {
          "duration": 0.04651162790697683,
          "durationTicks": 4,
          "midi": 66,
          "name": "F#4",
          "ticks": 2303,
          "time": 26.77906976744186,
          "velocity": 0.11023622047244094
        },
        {
          "duration": 0.034883720930235285,
          "durationTicks": 3,
          "midi": 41,
          "name": "F2",
          "ticks": 2305,
          "time": 26.802325581395348,
          "velocity": 0.3700787401574803
        },
        {
          "duration": 0.06976744186046346,
          "durationTicks": 6,
          "midi": 57,
          "name": "A3",
          "ticks": 2307,
          "time": 26.825581395348838,
          "velocity": 0.18110236220472442
        },
        {
          "duration": 0.023255813953486637,
          "durationTicks": 2,
          "midi": 35,
          "name": "B1",
          "ticks": 2308,
          "time": 26.837209302325583,
          "velocity": 0.2992125984251969
        },
        {
          "duration": 0.08139534883720856,
          "durationTicks": 7,
          "midi": 78,
          "name": "F#5",
          "ticks": 2314,
          "time": 26.906976744186046,
          "velocity": 0.13385826771653545
        },
        {
          "duration": 0.03488372093023173,
          "durationTicks": 3,
          "midi": 47,
          "name": "B2",
          "ticks": 2316,
          "time": 26.930232558139537,
          "velocity": 0.2755905511811024
        },
        {
          "duration": 0.03488372093023173,
          "durationTicks": 3,
          "midi": 57,
          "name": "A3",
          "ticks": 2316,
          "time": 26.930232558139537,
          "velocity": 0.14960629921259844
        },
        {
          "duration": 0.03488372093023173,
          "durationTicks": 3,
          "midi": 59,
          "name": "B3",
          "ticks": 2321,
          "time": 26.988372093023255,
          "velocity": 0.1968503937007874
        },
        {
          "duration": 0.023255813953486637,
          "durationTicks": 2,
          "midi": 53,
          "name": "F3",
          "ticks": 2322,
          "time": 27,
          "velocity": 0.31496062992125984
        },
        {
          "duration": 0.03488372093023173,
          "durationTicks": 3,
          "midi": 99,
          "name": "D#7",
          "ticks": 2323,
          "time": 27.011627906976745,
          "velocity": 0.07086614173228346
        },
        {
          "duration": 0.1860465116279073,
          "durationTicks": 16,
          "midi": 54,
          "name": "F#3",
          "ticks": 2324,
          "time": 27.023255813953487,
          "velocity": 0.29133858267716534
        },
        {
          "duration": 0.04651162790697683,
          "durationTicks": 4,
          "midi": 47,
          "name": "B2",
          "ticks": 2325,
          "time": 27.03488372093023,
          "velocity": 0.2992125984251969
        },
        {
          "duration": 0.02325581395349019,
          "durationTicks": 2,
          "midi": 35,
          "name": "B1",
          "ticks": 2328,
          "time": 27.069767441860463,
          "velocity": 0.2677165354330709
        },
        {
          "duration": 0.1744186046511622,
          "durationTicks": 15,
          "midi": 47,
          "name": "B2",
          "ticks": 2330,
          "time": 27.093023255813954,
          "velocity": 0.25984251968503935
        },
        {
          "duration": 0.023255813953486637,
          "durationTicks": 2,
          "midi": 58,
          "name": "A#3",
          "ticks": 2331,
          "time": 27.1046511627907,
          "velocity": 0.25984251968503935
        },
        {
          "duration": 0.11627906976744029,
          "durationTicks": 10,
          "midi": 78,
          "name": "F#5",
          "ticks": 2334,
          "time": 27.13953488372093,
          "velocity": 0.15748031496062992
        },
        {
          "duration": 0.06976744186046346,
          "durationTicks": 6,
          "midi": 35,
          "name": "B1",
          "ticks": 2335,
          "time": 27.151162790697676,
          "velocity": 0.25196850393700787
        },
        {
          "duration": 0.023255813953486637,
          "durationTicks": 2,
          "midi": 35,
          "name": "B1",
          "ticks": 2342,
          "time": 27.232558139534884,
          "velocity": 0.25196850393700787
        },
        {
          "duration": 0.08139534883720856,
          "durationTicks": 7,
          "midi": 67,
          "name": "G4",
          "ticks": 2343,
          "time": 27.24418604651163,
          "velocity": 0.2125984251968504
        },
        {
          "duration": 0.04651162790697683,
          "durationTicks": 4,
          "midi": 35,
          "name": "B1",
          "ticks": 2345,
          "time": 27.267441860465116,
          "velocity": 0.2440944881889764
        },
        {
          "duration": 0.02325581395349019,
          "durationTicks": 2,
          "midi": 46,
          "name": "A#2",
          "ticks": 2345,
          "time": 27.267441860465116,
          "velocity": 0.2440944881889764
        },
        {
          "duration": 0.03488372093023173,
          "durationTicks": 3,
          "midi": 35,
          "name": "B1",
          "ticks": 2350,
          "time": 27.325581395348838,
          "velocity": 0.25196850393700787
        },
        {
          "duration": 0.03488372093023173,
          "durationTicks": 3,
          "midi": 54,
          "name": "F#3",
          "ticks": 2350,
          "time": 27.325581395348838,
          "velocity": 0.13385826771653545
        },
        {
          "duration": 0.06976744186046702,
          "durationTicks": 6,
          "midi": 71,
          "name": "B4",
          "ticks": 2352,
          "time": 27.348837209302324,
          "velocity": 0.11811023622047244
        },
        {
          "duration": 0.02325581395349019,
          "durationTicks": 2,
          "midi": 40,
          "name": "E2",
          "ticks": 2353,
          "time": 27.36046511627907,
          "velocity": 0.2992125984251969
        },
        {
          "duration": 0.02325581395349019,
          "durationTicks": 2,
          "midi": 53,
          "name": "F3",
          "ticks": 2353,
          "time": 27.36046511627907,
          "velocity": 0.2440944881889764
        },
        {
          "duration": 0.08139534883720856,
          "durationTicks": 7,
          "midi": 78,
          "name": "F#5",
          "ticks": 2353,
          "time": 27.36046511627907,
          "velocity": 0.13385826771653545
        },
        {
          "duration": 0.05813953488372192,
          "durationTicks": 5,
          "midi": 59,
          "name": "B3",
          "ticks": 2354,
          "time": 27.372093023255815,
          "velocity": 0.13385826771653545
        },
        {
          "duration": 0.03488372093023173,
          "durationTicks": 3,
          "midi": 81,
          "name": "A5",
          "ticks": 2361,
          "time": 27.453488372093023,
          "velocity": 0.13385826771653545
        },
        {
          "duration": 0.04651162790697683,
          "durationTicks": 4,
          "midi": 69,
          "name": "A4",
          "ticks": 2367,
          "time": 27.523255813953487,
          "velocity": 0.09448818897637795
        },
        {
          "duration": 0.06976744186046702,
          "durationTicks": 6,
          "midi": 71,
          "name": "B4",
          "ticks": 2372,
          "time": 27.58139534883721,
          "velocity": 0.11023622047244094
        },
        {
          "duration": 0.1046511627906952,
          "durationTicks": 9,
          "midi": 63,
          "name": "D#4",
          "ticks": 2374,
          "time": 27.6046511627907,
          "velocity": 0.12598425196850394
        },
        {
          "duration": 0.4418604651162781,
          "durationTicks": 38,
          "midi": 78,
          "name": "F#5",
          "ticks": 2374,
          "time": 27.6046511627907,
          "velocity": 0.23622047244094488
        },
        {
          "duration": 0.06976744186046702,
          "durationTicks": 6,
          "midi": 57,
          "name": "A3",
          "ticks": 2376,
          "time": 27.627906976744185,
          "velocity": 0.2283464566929134
        },
        {
          "duration": 0.023255813953486637,
          "durationTicks": 2,
          "midi": 35,
          "name": "B1",
          "ticks": 2377,
          "time": 27.63953488372093,
          "velocity": 0.2992125984251969
        },
        {
          "duration": 0.05813953488372192,
          "durationTicks": 5,
          "midi": 36,
          "name": "C2",
          "ticks": 2381,
          "time": 27.686046511627907,
          "velocity": 0.36220472440944884
        },
        {
          "duration": 0.09302325581395365,
          "durationTicks": 8,
          "midi": 66,
          "name": "F#4",
          "ticks": 2381,
          "time": 27.686046511627907,
          "velocity": 0.23622047244094488
        },
        {
          "duration": 0.03488372093023173,
          "durationTicks": 3,
          "midi": 70,
          "name": "A#4",
          "ticks": 2381,
          "time": 27.686046511627907,
          "velocity": 0.2204724409448819
        },
        {
          "duration": 0.03488372093023173,
          "durationTicks": 3,
          "midi": 59,
          "name": "B3",
          "ticks": 2382,
          "time": 27.697674418604652,
          "velocity": 0.18110236220472442
        },
        {
          "duration": 0.08139534883720856,
          "durationTicks": 7,
          "midi": 85,
          "name": "C#6",
          "ticks": 2382,
          "time": 27.697674418604652,
          "velocity": 0.08661417322834646
        },
        {
          "duration": 0.05813953488371837,
          "durationTicks": 5,
          "midi": 57,
          "name": "A3",
          "ticks": 2386,
          "time": 27.74418604651163,
          "velocity": 0.2204724409448819
        },
        {
          "duration": 0.05813953488371837,
          "durationTicks": 5,
          "midi": 71,
          "name": "B4",
          "ticks": 2394,
          "time": 27.837209302325583,
          "velocity": 0.11811023622047244
        },
        {
          "duration": 0.034883720930235285,
          "durationTicks": 3,
          "midi": 46,
          "name": "A#2",
          "ticks": 2395,
          "time": 27.848837209302324,
          "velocity": 0.2204724409448819
        },
        {
          "duration": 0.04651162790697683,
          "durationTicks": 4,
          "midi": 67,
          "name": "G4",
          "ticks": 2402,
          "time": 27.930232558139537,
          "velocity": 0.2125984251968504
        },
        {
          "duration": 0.02325581395349019,
          "durationTicks": 2,
          "midi": 45,
          "name": "A2",
          "ticks": 2403,
          "time": 27.941860465116278,
          "velocity": 0.3700787401574803
        },
        {
          "duration": 0.06976744186046702,
          "durationTicks": 6,
          "midi": 54,
          "name": "F#3",
          "ticks": 2403,
          "time": 27.941860465116278,
          "velocity": 0.2125984251968504
        },
        {
          "duration": 0.24418604651162568,
          "durationTicks": 21,
          "midi": 47,
          "name": "B2",
          "ticks": 2405,
          "time": 27.96511627906977,
          "velocity": 0.33070866141732286
        },
        {
          "duration": 0.03488372093023173,
          "durationTicks": 3,
          "midi": 35,
          "name": "B1",
          "ticks": 2406,
          "time": 27.976744186046513,
          "velocity": 0.2283464566929134
        },
        {
          "duration": 0.06976744186046346,
          "durationTicks": 6,
          "midi": 54,
          "name": "F#3",
          "ticks": 2412,
          "time": 28.046511627906977,
          "velocity": 0.2283464566929134
        },
        {
          "duration": 0.06976744186046346,
          "durationTicks": 6,
          "midi": 71,
          "name": "B4",
          "ticks": 2413,
          "time": 28.058139534883722,
          "velocity": 0.11023622047244094
        },
        {
          "duration": 0.02325581395349019,
          "durationTicks": 2,
          "midi": 35,
          "name": "B1",
          "ticks": 2419,
          "time": 28.127906976744185,
          "velocity": 0.23622047244094488
        },
        {
          "duration": 0.02325581395349019,
          "durationTicks": 2,
          "midi": 35,
          "name": "B1",
          "ticks": 2422,
          "time": 28.162790697674417,
          "velocity": 0.2283464566929134
        },
        {
          "duration": 0.10465116279069875,
          "durationTicks": 9,
          "midi": 64,
          "name": "E4",
          "ticks": 2422,
          "time": 28.162790697674417,
          "velocity": 0.1968503937007874
        },
        {
          "duration": 0.02325581395349019,
          "durationTicks": 2,
          "midi": 35,
          "name": "B1",
          "ticks": 2426,
          "time": 28.209302325581394,
          "velocity": 0.2283464566929134
        },
        {
          "duration": 0.04651162790697683,
          "durationTicks": 4,
          "midi": 47,
          "name": "B2",
          "ticks": 2428,
          "time": 28.232558139534884,
          "velocity": 0.2125984251968504
        },
        {
          "duration": 0.05813953488372192,
          "durationTicks": 5,
          "midi": 35,
          "name": "B1",
          "ticks": 2430,
          "time": 28.25581395348837,
          "velocity": 0.2283464566929134
        },
        {
          "duration": 0.05813953488372192,
          "durationTicks": 5,
          "midi": 71,
          "name": "B4",
          "ticks": 2434,
          "time": 28.302325581395348,
          "velocity": 0.12598425196850394
        },
        {
          "duration": 0.29069767441860606,
          "durationTicks": 25,
          "midi": 78,
          "name": "F#5",
          "ticks": 2435,
          "time": 28.313953488372093,
          "velocity": 0.2440944881889764
        },
        {
          "duration": 0.13953488372093048,
          "durationTicks": 12,
          "midi": 85,
          "name": "C#6",
          "ticks": 2437,
          "time": 28.337209302325583,
          "velocity": 0.12598425196850394
        },
        {
          "duration": 0.03488372093023173,
          "durationTicks": 3,
          "midi": 72,
          "name": "C5",
          "ticks": 2441,
          "time": 28.38372093023256,
          "velocity": 0.18110236220472442
        },
        {
          "duration": 0.03488372093023173,
          "durationTicks": 3,
          "midi": 47,
          "name": "B2",
          "ticks": 2443,
          "time": 28.406976744186046,
          "velocity": 0.25196850393700787
        },
        {
          "duration": 0.05813953488372192,
          "durationTicks": 5,
          "midi": 66,
          "name": "F#4",
          "ticks": 2444,
          "time": 28.41860465116279,
          "velocity": 0.12598425196850394
        },
        {
          "duration": 0.04651162790697683,
          "durationTicks": 4,
          "midi": 48,
          "name": "C3",
          "ticks": 2446,
          "time": 28.441860465116278,
          "velocity": 0.15748031496062992
        },
        {
          "duration": 0.04651162790697683,
          "durationTicks": 4,
          "midi": 71,
          "name": "B4",
          "ticks": 2453,
          "time": 28.523255813953487,
          "velocity": 0.11811023622047244
        },
        {
          "duration": 0.03488372093023173,
          "durationTicks": 3,
          "midi": 57,
          "name": "A3",
          "ticks": 2456,
          "time": 28.558139534883722,
          "velocity": 0.12598425196850394
        },
        {
          "duration": 0.02325581395349019,
          "durationTicks": 2,
          "midi": 34,
          "name": "A#1",
          "ticks": 2457,
          "time": 28.569767441860463,
          "velocity": 0.3543307086614173
        },
        {
          "duration": 0.023255813953486637,
          "durationTicks": 2,
          "midi": 36,
          "name": "C2",
          "ticks": 2460,
          "time": 28.6046511627907,
          "velocity": 0.2440944881889764
        },
        {
          "duration": 0.02325581395349019,
          "durationTicks": 2,
          "midi": 47,
          "name": "B2",
          "ticks": 2461,
          "time": 28.61627906976744,
          "velocity": 0.33070866141732286
        },
        {
          "duration": 0.02325581395349019,
          "durationTicks": 2,
          "midi": 63,
          "name": "D#4",
          "ticks": 2461,
          "time": 28.61627906976744,
          "velocity": 0.25196850393700787
        },
        {
          "duration": 0.034883720930235285,
          "durationTicks": 3,
          "midi": 70,
          "name": "A#4",
          "ticks": 2461,
          "time": 28.61627906976744,
          "velocity": 0.2125984251968504
        },
        {
          "duration": 0.12790697674418539,
          "durationTicks": 11,
          "midi": 66,
          "name": "F#4",
          "ticks": 2464,
          "time": 28.651162790697676,
          "velocity": 0.11023622047244094
        },
        {
          "duration": 0.04651162790697683,
          "durationTicks": 4,
          "midi": 57,
          "name": "A3",
          "ticks": 2467,
          "time": 28.686046511627907,
          "velocity": 0.14173228346456693
        },
        {
          "duration": 0.023255813953486637,
          "durationTicks": 2,
          "midi": 51,
          "name": "D#3",
          "ticks": 2471,
          "time": 28.732558139534884,
          "velocity": 0.2440944881889764
        },
        {
          "duration": 0.034883720930235285,
          "durationTicks": 3,
          "midi": 71,
          "name": "B4",
          "ticks": 2473,
          "time": 28.75581395348837,
          "velocity": 0.08661417322834646
        },
        {
          "duration": 0.05813953488372192,
          "durationTicks": 5,
          "midi": 78,
          "name": "F#5",
          "ticks": 2475,
          "time": 28.77906976744186,
          "velocity": 0.11023622047244094
        },
        {
          "duration": 0.023255813953486637,
          "durationTicks": 2,
          "midi": 46,
          "name": "A#2",
          "ticks": 2476,
          "time": 28.790697674418606,
          "velocity": 0.2755905511811024
        },
        {
          "duration": 0.02325581395349019,
          "durationTicks": 2,
          "midi": 47,
          "name": "B2",
          "ticks": 2478,
          "time": 28.813953488372093,
          "velocity": 0.2283464566929134
        },
        {
          "duration": 0.05813953488372192,
          "durationTicks": 5,
          "midi": 76,
          "name": "E5",
          "ticks": 2481,
          "time": 28.848837209302324,
          "velocity": 0.11023622047244094
        },
        {
          "duration": 0.02325581395349019,
          "durationTicks": 2,
          "midi": 41,
          "name": "F2",
          "ticks": 2482,
          "time": 28.86046511627907,
          "velocity": 0.2992125984251969
        },
        {
          "duration": 0.10465116279069875,
          "durationTicks": 9,
          "midi": 59,
          "name": "B3",
          "ticks": 2482,
          "time": 28.86046511627907,
          "velocity": 0.23622047244094488
        },
        {
          "duration": 0.04651162790697683,
          "durationTicks": 4,
          "midi": 54,
          "name": "F#3",
          "ticks": 2483,
          "time": 28.872093023255815,
          "velocity": 0.28346456692913385
        },
        {
          "duration": 0.03488372093023173,
          "durationTicks": 3,
          "midi": 35,
          "name": "B1",
          "ticks": 2488,
          "time": 28.930232558139537,
          "velocity": 0.2440944881889764
        },
        {
          "duration": 0.03488372093023173,
          "durationTicks": 3,
          "midi": 54,
          "name": "F#3",
          "ticks": 2488,
          "time": 28.930232558139537,
          "velocity": 0.23622047244094488
        },
        {
          "duration": 0.05813953488371837,
          "durationTicks": 5,
          "midi": 47,
          "name": "B2",
          "ticks": 2495,
          "time": 29.011627906976745,
          "velocity": 0.23622047244094488
        },
        {
          "duration": 0.05813953488372192,
          "durationTicks": 5,
          "midi": 35,
          "name": "B1",
          "ticks": 2496,
          "time": 29.023255813953487,
          "velocity": 0.25196850393700787
        },
        {
          "duration": 0.03488372093023173,
          "durationTicks": 3,
          "midi": 47,
          "name": "B2",
          "ticks": 2501,
          "time": 29.08139534883721,
          "velocity": 0.2755905511811024
        },
        {
          "duration": 0.03488372093023173,
          "durationTicks": 3,
          "midi": 100,
          "name": "E7",
          "ticks": 2501,
          "time": 29.08139534883721,
          "velocity": 0.08661417322834646
        },
        {
          "duration": 0.023255813953486637,
          "durationTicks": 2,
          "midi": 53,
          "name": "F3",
          "ticks": 2502,
          "time": 29.093023255813954,
          "velocity": 0.23622047244094488
        },
        {
          "duration": 0.08139534883721211,
          "durationTicks": 7,
          "midi": 54,
          "name": "F#3",
          "ticks": 2504,
          "time": 29.11627906976744,
          "velocity": 0.15748031496062992
        },
        {
          "duration": 0.03488372093023173,
          "durationTicks": 3,
          "midi": 67,
          "name": "G4",
          "ticks": 2505,
          "time": 29.127906976744185,
          "velocity": 0.16535433070866143
        },
        {
          "duration": 0.05813953488371837,
          "durationTicks": 5,
          "midi": 35,
          "name": "B1",
          "ticks": 2507,
          "time": 29.151162790697676,
          "velocity": 0.25196850393700787
        },
        {
          "duration": 0.034883720930235285,
          "durationTicks": 3,
          "midi": 47,
          "name": "B2",
          "ticks": 2508,
          "time": 29.162790697674417,
          "velocity": 0.25196850393700787
        },
        {
          "duration": 0.023255813953486637,
          "durationTicks": 2,
          "midi": 48,
          "name": "C3",
          "ticks": 2511,
          "time": 29.197674418604652,
          "velocity": 0.25984251968503935
        },
        {
          "duration": 0.02325581395349019,
          "durationTicks": 2,
          "midi": 36,
          "name": "C2",
          "ticks": 2512,
          "time": 29.209302325581394,
          "velocity": 0.2440944881889764
        },
        {
          "duration": 0.09302325581395365,
          "durationTicks": 8,
          "midi": 64,
          "name": "E4",
          "ticks": 2512,
          "time": 29.209302325581394,
          "velocity": 0.18110236220472442
        },
        {
          "duration": 0.06976744186046346,
          "durationTicks": 6,
          "midi": 64,
          "name": "E4",
          "ticks": 2522,
          "time": 29.325581395348838,
          "velocity": 0.16535433070866143
        },
        {
          "duration": 0.04651162790697683,
          "durationTicks": 4,
          "midi": 47,
          "name": "B2",
          "ticks": 2526,
          "time": 29.372093023255815,
          "velocity": 0.18110236220472442
        },
        {
          "duration": 0.11627906976744384,
          "durationTicks": 10,
          "midi": 78,
          "name": "F#5",
          "ticks": 2532,
          "time": 29.441860465116278,
          "velocity": 0.1732283464566929
        },
        {
          "duration": 0.03488372093023173,
          "durationTicks": 3,
          "midi": 63,
          "name": "D#4",
          "ticks": 2534,
          "time": 29.46511627906977,
          "velocity": 0.10236220472440945
        },
        {
          "duration": 0.05813953488371837,
          "durationTicks": 5,
          "midi": 71,
          "name": "B4",
          "ticks": 2534,
          "time": 29.46511627906977,
          "velocity": 0.07874015748031496
        },
        {
          "duration": 0.034883720930235285,
          "durationTicks": 3,
          "midi": 57,
          "name": "A3",
          "ticks": 2539,
          "time": 29.523255813953487,
          "velocity": 0.16535433070866143
        },
        {
          "duration": 0.03488372093023173,
          "durationTicks": 3,
          "midi": 67,
          "name": "G4",
          "ticks": 2540,
          "time": 29.53488372093023,
          "velocity": 0.15748031496062992
        },
        {
          "duration": 0.04651162790697683,
          "durationTicks": 4,
          "midi": 71,
          "name": "B4",
          "ticks": 2541,
          "time": 29.546511627906977,
          "velocity": 0.2283464566929134
        },
        {
          "duration": 0.04651162790697683,
          "durationTicks": 4,
          "midi": 63,
          "name": "D#4",
          "ticks": 2542,
          "time": 29.558139534883722,
          "velocity": 0.14173228346456693
        },
        {
          "duration": 0.09302325581395365,
          "durationTicks": 8,
          "midi": 59,
          "name": "B3",
          "ticks": 2543,
          "time": 29.569767441860463,
          "velocity": 0.1968503937007874
        },
        {
          "duration": 0.03488372093023173,
          "durationTicks": 3,
          "midi": 47,
          "name": "B2",
          "ticks": 2546,
          "time": 29.6046511627907,
          "velocity": 0.30708661417322836
        },
        {
          "duration": 0.023255813953486637,
          "durationTicks": 2,
          "midi": 53,
          "name": "F3",
          "ticks": 2546,
          "time": 29.6046511627907,
          "velocity": 0.25196850393700787
        },
        {
          "duration": 0.1744186046511622,
          "durationTicks": 15,
          "midi": 35,
          "name": "B1",
          "ticks": 2548,
          "time": 29.627906976744185,
          "velocity": 0.3228346456692913
        },
        {
          "duration": 0.11627906976744029,
          "durationTicks": 10,
          "midi": 64,
          "name": "E4",
          "ticks": 2549,
          "time": 29.63953488372093,
          "velocity": 0.11811023622047244
        },
        {
          "duration": 0.023255813953486637,
          "durationTicks": 2,
          "midi": 46,
          "name": "A#2",
          "ticks": 2554,
          "time": 29.697674418604652,
          "velocity": 0.2755905511811024
        },
        {
          "duration": 0.05813953488372192,
          "durationTicks": 5,
          "midi": 54,
          "name": "F#3",
          "ticks": 2555,
          "time": 29.709302325581394,
          "velocity": 0.30708661417322836
        },
        {
          "duration": 0.04651162790697683,
          "durationTicks": 4,
          "midi": 64,
          "name": "E4",
          "ticks": 2563,
          "time": 29.802325581395348,
          "velocity": 0.14173228346456693
        },
        {
          "duration": 0.13953488372093048,
          "durationTicks": 12,
          "midi": 59,
          "name": "B3",
          "ticks": 2564,
          "time": 29.813953488372093,
          "velocity": 0.15748031496062992
        },
        {
          "duration": 0.09302325581395365,
          "durationTicks": 8,
          "midi": 52,
          "name": "E3",
          "ticks": 2565,
          "time": 29.825581395348838,
          "velocity": 0.30708661417322836
        },
        {
          "duration": 0.02325581395349019,
          "durationTicks": 2,
          "midi": 38,
          "name": "D2",
          "ticks": 2567,
          "time": 29.848837209302324,
          "velocity": 0.2440944881889764
        },
        {
          "duration": 0.08139534883720856,
          "durationTicks": 7,
          "midi": 40,
          "name": "E2",
          "ticks": 2570,
          "time": 29.88372093023256,
          "velocity": 0.3464566929133858
        },
        {
          "duration": 0.08139534883720856,
          "durationTicks": 7,
          "midi": 40,
          "name": "E2",
          "ticks": 2578,
          "time": 29.976744186046513,
          "velocity": 0.3228346456692913
        },
        {
          "duration": 0.023255813953486637,
          "durationTicks": 2,
          "midi": 39,
          "name": "D#2",
          "ticks": 2585,
          "time": 30.058139534883722,
          "velocity": 0.2992125984251969
        },
        {
          "duration": 0.04651162790697683,
          "durationTicks": 4,
          "midi": 40,
          "name": "E2",
          "ticks": 2589,
          "time": 30.1046511627907,
          "velocity": 0.29133858267716534
        },
        {
          "duration": 0.12790697674418539,
          "durationTicks": 11,
          "midi": 67,
          "name": "G4",
          "ticks": 2592,
          "time": 30.13953488372093,
          "velocity": 0.1968503937007874
        },
        {
          "duration": 0.034883720930235285,
          "durationTicks": 3,
          "midi": 47,
          "name": "B2",
          "ticks": 2594,
          "time": 30.162790697674417,
          "velocity": 0.16535433070866143
        },
        {
          "duration": 0.30232558139535115,
          "durationTicks": 26,
          "midi": 64,
          "name": "E4",
          "ticks": 2595,
          "time": 30.174418604651162,
          "velocity": 0.1889763779527559
        },
        {
          "duration": 0.06976744186046346,
          "durationTicks": 6,
          "midi": 52,
          "name": "E3",
          "ticks": 2597,
          "time": 30.197674418604652,
          "velocity": 0.2125984251968504
        },
        {
          "duration": 0.05813953488372192,
          "durationTicks": 5,
          "midi": 52,
          "name": "E3",
          "ticks": 2607,
          "time": 30.313953488372093,
          "velocity": 0.11811023622047244
        },
        {
          "duration": 0.034883720930235285,
          "durationTicks": 3,
          "midi": 37,
          "name": "C#2",
          "ticks": 2614,
          "time": 30.3953488372093,
          "velocity": 0.3858267716535433
        },
        {
          "duration": 0.034883720930235285,
          "durationTicks": 3,
          "midi": 52,
          "name": "E3",
          "ticks": 2614,
          "time": 30.3953488372093,
          "velocity": 0.2047244094488189
        },
        {
          "duration": 0.03488372093023173,
          "durationTicks": 3,
          "midi": 67,
          "name": "G4",
          "ticks": 2621,
          "time": 30.476744186046513,
          "velocity": 0.14173228346456693
        },
        {
          "duration": 0.03488372093023173,
          "durationTicks": 3,
          "midi": 70,
          "name": "A#4",
          "ticks": 2621,
          "time": 30.476744186046513,
          "velocity": 0.2204724409448819
        },
        {
          "duration": 0.08139534883720856,
          "durationTicks": 7,
          "midi": 59,
          "name": "B3",
          "ticks": 2624,
          "time": 30.511627906976745,
          "velocity": 0.1732283464566929
        },
        {
          "duration": 0.02325581395349019,
          "durationTicks": 2,
          "midi": 52,
          "name": "E3",
          "ticks": 2625,
          "time": 30.523255813953487,
          "velocity": 0.2440944881889764
        },
        {
          "duration": 0.05813953488372192,
          "durationTicks": 5,
          "midi": 67,
          "name": "G4",
          "ticks": 2625,
          "time": 30.523255813953487,
          "velocity": 0.09448818897637795
        },
        {
          "duration": 0.023255813953486637,
          "durationTicks": 2,
          "midi": 46,
          "name": "A#2",
          "ticks": 2627,
          "time": 30.546511627906977,
          "velocity": 0.2283464566929134
        },
        {
          "duration": 0.05813953488371837,
          "durationTicks": 5,
          "midi": 52,
          "name": "E3",
          "ticks": 2628,
          "time": 30.558139534883722,
          "velocity": 0.25196850393700787
        },
        {
          "duration": 0.06976744186046702,
          "durationTicks": 6,
          "midi": 52,
          "name": "E3",
          "ticks": 2634,
          "time": 30.627906976744185,
          "velocity": 0.3228346456692913
        },
        {
          "duration": 0.04651162790697683,
          "durationTicks": 4,
          "midi": 53,
          "name": "F3",
          "ticks": 2640,
          "time": 30.697674418604652,
          "velocity": 0.2125984251968504
        },
        {
          "duration": 0.034883720930235285,
          "durationTicks": 3,
          "midi": 68,
          "name": "G#4",
          "ticks": 2641,
          "time": 30.709302325581394,
          "velocity": 0.07874015748031496
        },
        {
          "duration": 0.1860465116279073,
          "durationTicks": 16,
          "midi": 64,
          "name": "E4",
          "ticks": 2643,
          "time": 30.732558139534884,
          "velocity": 0.11811023622047244
        },
        {
          "duration": 0.10465116279069875,
          "durationTicks": 9,
          "midi": 52,
          "name": "E3",
          "ticks": 2645,
          "time": 30.75581395348837,
          "velocity": 0.25196850393700787
        },
        {
          "duration": 0.02325581395349019,
          "durationTicks": 2,
          "midi": 40,
          "name": "E2",
          "ticks": 2646,
          "time": 30.767441860465116,
          "velocity": 0.3543307086614173
        },
        {
          "duration": 0.2093023255813975,
          "durationTicks": 18,
          "midi": 40,
          "name": "E2",
          "ticks": 2649,
          "time": 30.802325581395348,
          "velocity": 0.3228346456692913
        },
        {
          "duration": 0.3720930232558146,
          "durationTicks": 32,
          "midi": 59,
          "name": "B3",
          "ticks": 2650,
          "time": 30.813953488372093,
          "velocity": 0.2125984251968504
        },
        {
          "duration": 0.10465116279069875,
          "durationTicks": 9,
          "midi": 67,
          "name": "G4",
          "ticks": 2662,
          "time": 30.953488372093023,
          "velocity": 0.2283464566929134
        },
        {
          "duration": 0.06976744186046346,
          "durationTicks": 6,
          "midi": 95,
          "name": "B6",
          "ticks": 2663,
          "time": 30.96511627906977,
          "velocity": 0.09448818897637795
        },
        {
          "duration": 0.03488372093023173,
          "durationTicks": 3,
          "midi": 41,
          "name": "F2",
          "ticks": 2667,
          "time": 31.011627906976745,
          "velocity": 0.30708661417322836
        },
        {
          "duration": 0.03488372093023173,
          "durationTicks": 3,
          "midi": 52,
          "name": "E3",
          "ticks": 2670,
          "time": 31.046511627906977,
          "velocity": 0.2204724409448819
        },
        {
          "duration": 0.06976744186046346,
          "durationTicks": 6,
          "midi": 67,
          "name": "G4",
          "ticks": 2678,
          "time": 31.13953488372093,
          "velocity": 0.09448818897637795
        },
        {
          "duration": 0.08139534883720856,
          "durationTicks": 7,
          "midi": 71,
          "name": "B4",
          "ticks": 2682,
          "time": 31.186046511627907,
          "velocity": 0.1889763779527559
        },
        {
          "duration": 0.023255813953486637,
          "durationTicks": 2,
          "midi": 45,
          "name": "A2",
          "ticks": 2683,
          "time": 31.197674418604652,
          "velocity": 0.3700787401574803
        },
        {
          "duration": 0.06976744186046346,
          "durationTicks": 6,
          "midi": 59,
          "name": "B3",
          "ticks": 2683,
          "time": 31.197674418604652,
          "velocity": 0.14960629921259844
        },
        {
          "duration": 0.04651162790697683,
          "durationTicks": 4,
          "midi": 52,
          "name": "E3",
          "ticks": 2684,
          "time": 31.209302325581394,
          "velocity": 0.2755905511811024
        },
        {
          "duration": 0.02325581395349019,
          "durationTicks": 2,
          "midi": 40,
          "name": "E2",
          "ticks": 2689,
          "time": 31.267441860465116,
          "velocity": 0.31496062992125984
        },
        {
          "duration": 0.023255813953486637,
          "durationTicks": 2,
          "midi": 52,
          "name": "E3",
          "ticks": 2691,
          "time": 31.290697674418606,
          "velocity": 0.23622047244094488
        },
        {
          "duration": 0.10465116279069875,
          "durationTicks": 9,
          "midi": 72,
          "name": "C5",
          "ticks": 2692,
          "time": 31.302325581395348,
          "velocity": 0.2125984251968504
        },
        {
          "duration": 0.03488372093023173,
          "durationTicks": 3,
          "midi": 44,
          "name": "G#2",
          "ticks": 2695,
          "time": 31.337209302325583,
          "velocity": 0.11023622047244094
        },
        {
          "duration": 0.023255813953486637,
          "durationTicks": 2,
          "midi": 37,
          "name": "C#2",
          "ticks": 2702,
          "time": 31.41860465116279,
          "velocity": 0.33858267716535434
        },
        {
          "duration": 0.03488372093023173,
          "durationTicks": 3,
          "midi": 52,
          "name": "E3",
          "ticks": 2702,
          "time": 31.41860465116279,
          "velocity": 0.3228346456692913
        },
        {
          "duration": 0.08139534883720856,
          "durationTicks": 7,
          "midi": 59,
          "name": "B3",
          "ticks": 2702,
          "time": 31.41860465116279,
          "velocity": 0.2204724409448819
        },
        {
          "duration": 0.02325581395349019,
          "durationTicks": 2,
          "midi": 40,
          "name": "E2",
          "ticks": 2705,
          "time": 31.453488372093023,
          "velocity": 0.3543307086614173
        },
        {
          "duration": 0.05813953488372192,
          "durationTicks": 5,
          "midi": 67,
          "name": "G4",
          "ticks": 2705,
          "time": 31.453488372093023,
          "velocity": 0.11811023622047244
        },
        {
          "duration": 0.02325581395349019,
          "durationTicks": 2,
          "midi": 40,
          "name": "E2",
          "ticks": 2708,
          "time": 31.488372093023255,
          "velocity": 0.33858267716535434
        },
        {
          "duration": 0.034883720930235285,
          "durationTicks": 3,
          "midi": 40,
          "name": "E2",
          "ticks": 2711,
          "time": 31.523255813953487,
          "velocity": 0.3464566929133858
        },
        {
          "duration": 0.02325581395349019,
          "durationTicks": 2,
          "midi": 42,
          "name": "F#2",
          "ticks": 2715,
          "time": 31.569767441860463,
          "velocity": 0.31496062992125984
        },
        {
          "duration": 0.03488372093023173,
          "durationTicks": 3,
          "midi": 42,
          "name": "F#2",
          "ticks": 2718,
          "time": 31.6046511627907,
          "velocity": 0.3464566929133858
        },
        {
          "duration": 0.9186046511627914,
          "durationTicks": 79,
          "midi": 78,
          "name": "F#5",
          "ticks": 2721,
          "time": 31.63953488372093,
          "velocity": 0.25196850393700787
        },
        {
          "duration": 0.4418604651162781,
          "durationTicks": 38,
          "midi": 66,
          "name": "F#4",
          "ticks": 2723,
          "time": 31.662790697674417,
          "velocity": 0.2125984251968504
        },
        {
          "duration": 0.023255813953486637,
          "durationTicks": 2,
          "midi": 34,
          "name": "A#1",
          "ticks": 2725,
          "time": 31.686046511627907,
          "velocity": 0.28346456692913385
        },
        {
          "duration": 0.20930232558139394,
          "durationTicks": 18,
          "midi": 47,
          "name": "B2",
          "ticks": 2726,
          "time": 31.697674418604652,
          "velocity": 0.2992125984251969
        },
        {
          "duration": 0.023255813953486637,
          "durationTicks": 2,
          "midi": 35,
          "name": "B1",
          "ticks": 2729,
          "time": 31.732558139534884,
          "velocity": 0.2677165354330709
        },
        {
          "duration": 0.02325581395349019,
          "durationTicks": 2,
          "midi": 35,
          "name": "B1",
          "ticks": 2732,
          "time": 31.767441860465116,
          "velocity": 0.25984251968503935
        },
        {
          "duration": 0.04651162790697683,
          "durationTicks": 4,
          "midi": 35,
          "name": "B1",
          "ticks": 2735,
          "time": 31.802325581395348,
          "velocity": 0.25984251968503935
        },
        {
          "duration": 0.05813953488372192,
          "durationTicks": 5,
          "midi": 35,
          "name": "B1",
          "ticks": 2740,
          "time": 31.86046511627907,
          "velocity": 0.2677165354330709
        },
        {
          "duration": 0.023255813953486637,
          "durationTicks": 2,
          "midi": 35,
          "name": "B1",
          "ticks": 2746,
          "time": 31.930232558139537,
          "velocity": 0.2440944881889764
        },
        {
          "duration": 0.03488372093023173,
          "durationTicks": 3,
          "midi": 53,
          "name": "F3",
          "ticks": 2755,
          "time": 32.03488372093023,
          "velocity": 0.18110236220472442
        },
        {
          "duration": 0.03488372093023173,
          "durationTicks": 3,
          "midi": 47,
          "name": "B2",
          "ticks": 2758,
          "time": 32.06976744186046,
          "velocity": 0.18110236220472442
        },
        {
          "duration": 0.023255813953483084,
          "durationTicks": 2,
          "midi": 54,
          "name": "F#3",
          "ticks": 2762,
          "time": 32.116279069767444,
          "velocity": 0.2283464566929134
        },
        {
          "duration": 0.06976744186046346,
          "durationTicks": 6,
          "midi": 61,
          "name": "C#4",
          "ticks": 2762,
          "time": 32.116279069767444,
          "velocity": 0.10236220472440945
        },
        {
          "duration": 0.17441860465115866,
          "durationTicks": 15,
          "midi": 54,
          "name": "F#3",
          "ticks": 2765,
          "time": 32.151162790697676,
          "velocity": 0.1968503937007874
        },
        {
          "duration": 0.1860465116279073,
          "durationTicks": 16,
          "midi": 42,
          "name": "F#2",
          "ticks": 2766,
          "time": 32.16279069767442,
          "velocity": 0.4015748031496063
        },
        {
          "duration": 0.03488372093023884,
          "durationTicks": 3,
          "midi": 70,
          "name": "A#4",
          "ticks": 2780,
          "time": 32.325581395348834,
          "velocity": 0.1968503937007874
        },
        {
          "duration": 0.03488372093023173,
          "durationTicks": 3,
          "midi": 47,
          "name": "B2",
          "ticks": 2784,
          "time": 32.372093023255815,
          "velocity": 0.2440944881889764
        },
        {
          "duration": 0.02325581395349019,
          "durationTicks": 2,
          "midi": 58,
          "name": "A#3",
          "ticks": 2788,
          "time": 32.41860465116279,
          "velocity": 0.2440944881889764
        },
        {
          "duration": 0.11627906976744384,
          "durationTicks": 10,
          "midi": 47,
          "name": "B2",
          "ticks": 2790,
          "time": 32.44186046511628,
          "velocity": 0.25984251968503935
        },
        {
          "duration": 0.23255813953488058,
          "durationTicks": 20,
          "midi": 54,
          "name": "F#3",
          "ticks": 2803,
          "time": 32.593023255813954,
          "velocity": 0.16535433070866143
        },
        {
          "duration": 0.02325581395349019,
          "durationTicks": 2,
          "midi": 35,
          "name": "B1",
          "ticks": 2804,
          "time": 32.604651162790695,
          "velocity": 0.31496062992125984
        },
        {
          "duration": 0.13953488372092693,
          "durationTicks": 12,
          "midi": 59,
          "name": "B3",
          "ticks": 2805,
          "time": 32.616279069767444,
          "velocity": 0.10236220472440945
        },
        {
          "duration": 0.05813953488372192,
          "durationTicks": 5,
          "midi": 35,
          "name": "B1",
          "ticks": 2807,
          "time": 32.63953488372093,
          "velocity": 0.28346456692913385
        },
        {
          "duration": 0.023255813953483084,
          "durationTicks": 2,
          "midi": 35,
          "name": "B1",
          "ticks": 2813,
          "time": 32.7093023255814,
          "velocity": 0.2755905511811024
        },
        {
          "duration": 0.046511627906973274,
          "durationTicks": 4,
          "midi": 35,
          "name": "B1",
          "ticks": 2816,
          "time": 32.74418604651163,
          "velocity": 0.2755905511811024
        },
        {
          "duration": 0.023255813953483084,
          "durationTicks": 2,
          "midi": 35,
          "name": "B1",
          "ticks": 2821,
          "time": 32.80232558139535,
          "velocity": 0.2677165354330709
        },
        {
          "duration": 0.12790697674418539,
          "durationTicks": 11,
          "midi": 78,
          "name": "F#5",
          "ticks": 2822,
          "time": 32.81395348837209,
          "velocity": 0.1968503937007874
        },
        {
          "duration": 0.03488372093023173,
          "durationTicks": 3,
          "midi": 35,
          "name": "B1",
          "ticks": 2825,
          "time": 32.848837209302324,
          "velocity": 0.25984251968503935
        },
        {
          "duration": 0.02325581395349019,
          "durationTicks": 2,
          "midi": 34,
          "name": "A#1",
          "ticks": 2828,
          "time": 32.883720930232556,
          "velocity": 0.2992125984251969
        },
        {
          "duration": 0.03488372093023173,
          "durationTicks": 3,
          "midi": 58,
          "name": "A#3",
          "ticks": 2829,
          "time": 32.895348837209305,
          "velocity": 0.18110236220472442
        },
        {
          "duration": 0.1046511627906952,
          "durationTicks": 9,
          "midi": 66,
          "name": "F#4",
          "ticks": 2834,
          "time": 32.95348837209303,
          "velocity": 0.14173228346456693
        },
        {
          "duration": 0.02325581395349019,
          "durationTicks": 2,
          "midi": 44,
          "name": "G#2",
          "ticks": 2835,
          "time": 32.96511627906977,
          "velocity": 0.2440944881889764
        },
        {
          "duration": 0.03488372093023173,
          "durationTicks": 3,
          "midi": 74,
          "name": "D5",
          "ticks": 2841,
          "time": 33.03488372093023,
          "velocity": 0.14960629921259844
        },
        {
          "duration": 0.02325581395349019,
          "durationTicks": 2,
          "midi": 40,
          "name": "E2",
          "ticks": 2843,
          "time": 33.05813953488372,
          "velocity": 0.4330708661417323
        },
        {
          "duration": 0.1046511627906952,
          "durationTicks": 9,
          "midi": 54,
          "name": "F#3",
          "ticks": 2843,
          "time": 33.05813953488372,
          "velocity": 0.2125984251968504
        },
        {
          "duration": 0.2093023255813904,
          "durationTicks": 18,
          "midi": 42,
          "name": "F#2",
          "ticks": 2845,
          "time": 33.08139534883721,
          "velocity": 0.3858267716535433
        },
        {
          "duration": 0.09302325581395365,
          "durationTicks": 8,
          "midi": 71,
          "name": "B4",
          "ticks": 2853,
          "time": 33.174418604651166,
          "velocity": 0.14173228346456693
        },
        {
          "duration": 0.03488372093023173,
          "durationTicks": 3,
          "midi": 67,
          "name": "G4",
          "ticks": 2855,
          "time": 33.19767441860465,
          "velocity": 0.10236220472440945
        },
        {
          "duration": 0.08139534883721211,
          "durationTicks": 7,
          "midi": 63,
          "name": "D#4",
          "ticks": 2863,
          "time": 33.2906976744186,
          "velocity": 0.07874015748031496
        },
        {
          "duration": 0.09302325581395365,
          "durationTicks": 8,
          "midi": 66,
          "name": "F#4",
          "ticks": 2863,
          "time": 33.2906976744186,
          "velocity": 0.15748031496062992
        },
        {
          "duration": 0.05813953488372192,
          "durationTicks": 5,
          "midi": 59,
          "name": "B3",
          "ticks": 2864,
          "time": 33.30232558139535,
          "velocity": 0.13385826771653545
        },
        {
          "duration": 0.12790697674418539,
          "durationTicks": 11,
          "midi": 47,
          "name": "B2",
          "ticks": 2865,
          "time": 33.31395348837209,
          "velocity": 0.2992125984251969
        },
        {
          "duration": 0.05813953488372192,
          "durationTicks": 5,
          "midi": 67,
          "name": "G4",
          "ticks": 2871,
          "time": 33.383720930232556,
          "velocity": 0.1732283464566929
        },
        {
          "duration": 0.1046511627906952,
          "durationTicks": 9,
          "midi": 78,
          "name": "F#5",
          "ticks": 2873,
          "time": 33.406976744186046,
          "velocity": 0.2204724409448819
        },
        {
          "duration": 0.06976744186047057,
          "durationTicks": 6,
          "midi": 85,
          "name": "C#6",
          "ticks": 2874,
          "time": 33.41860465116279,
          "velocity": 0.07086614173228346
        },
        {
          "duration": 0.046511627906973274,
          "durationTicks": 4,
          "midi": 47,
          "name": "B2",
          "ticks": 2877,
          "time": 33.45348837209303,
          "velocity": 0.2755905511811024
        },
        {
          "duration": 0.03488372093023173,
          "durationTicks": 3,
          "midi": 67,
          "name": "G4",
          "ticks": 2877,
          "time": 33.45348837209303,
          "velocity": 0.14173228346456693
        },
        {
          "duration": 0.02325581395349019,
          "durationTicks": 2,
          "midi": 51,
          "name": "D#3",
          "ticks": 2882,
          "time": 33.51162790697674,
          "velocity": 0.29133858267716534
        },
        {
          "duration": 0.15116279069767558,
          "durationTicks": 13,
          "midi": 59,
          "name": "B3",
          "ticks": 2882,
          "time": 33.51162790697674,
          "velocity": 0.16535433070866143
        },
        {
          "duration": 0.05813953488372192,
          "durationTicks": 5,
          "midi": 64,
          "name": "E4",
          "ticks": 2882,
          "time": 33.51162790697674,
          "velocity": 0.1968503937007874
        },
        {
          "duration": 0.5,
          "durationTicks": 43,
          "midi": 67,
          "name": "G4",
          "ticks": 2882,
          "time": 33.51162790697674,
          "velocity": 0.23622047244094488
        },
        {
          "duration": 0.06976744186046346,
          "durationTicks": 6,
          "midi": 52,
          "name": "E3",
          "ticks": 2884,
          "time": 33.53488372093023,
          "velocity": 0.25196850393700787
        },
        {
          "duration": 0.3372093023255829,
          "durationTicks": 29,
          "midi": 40,
          "name": "E2",
          "ticks": 2887,
          "time": 33.56976744186046,
          "velocity": 0.3464566929133858
        },
        {
          "duration": 0.06976744186046346,
          "durationTicks": 6,
          "midi": 64,
          "name": "E4",
          "ticks": 2916,
          "time": 33.906976744186046,
          "velocity": 0.11811023622047244
        },
        {
          "duration": 0.05813953488372192,
          "durationTicks": 5,
          "midi": 47,
          "name": "B2",
          "ticks": 2917,
          "time": 33.91860465116279,
          "velocity": 0.1968503937007874
        },
        {
          "duration": 0.22093023255813904,
          "durationTicks": 19,
          "midi": 59,
          "name": "B3",
          "ticks": 2924,
          "time": 34,
          "velocity": 0.14960629921259844
        },
        {
          "duration": 0.12790697674418539,
          "durationTicks": 11,
          "midi": 67,
          "name": "G4",
          "ticks": 2926,
          "time": 34.02325581395349,
          "velocity": 0.1889763779527559
        },
        {
          "duration": 0.1860465116279073,
          "durationTicks": 16,
          "midi": 47,
          "name": "B2",
          "ticks": 2928,
          "time": 34.04651162790697,
          "velocity": 0.25196850393700787
        },
        {
          "duration": 0.09302325581395365,
          "durationTicks": 8,
          "midi": 67,
          "name": "G4",
          "ticks": 2940,
          "time": 34.18604651162791,
          "velocity": 0.10236220472440945
        },
        {
          "duration": 0.22093023255814614,
          "durationTicks": 19,
          "midi": 64,
          "name": "E4",
          "ticks": 2944,
          "time": 34.23255813953488,
          "velocity": 0.23622047244094488
        },
        {
          "duration": 0.2093023255813975,
          "durationTicks": 18,
          "midi": 52,
          "name": "E3",
          "ticks": 2946,
          "time": 34.25581395348837,
          "velocity": 0.28346456692913385
        },
        {
          "duration": 0.25581395348837077,
          "durationTicks": 22,
          "midi": 67,
          "name": "G4",
          "ticks": 2949,
          "time": 34.2906976744186,
          "velocity": 0.3228346456692913
        },
        {
          "duration": 0.02325581395349019,
          "durationTicks": 2,
          "midi": 51,
          "name": "D#3",
          "ticks": 2964,
          "time": 34.46511627906977,
          "velocity": 0.33858267716535434
        },
        {
          "duration": 0.04651162790698038,
          "durationTicks": 4,
          "midi": 64,
          "name": "E4",
          "ticks": 2965,
          "time": 34.47674418604651,
          "velocity": 0.11811023622047244
        },
        {
          "duration": 0.058139534883714816,
          "durationTicks": 5,
          "midi": 52,
          "name": "E3",
          "ticks": 2966,
          "time": 34.48837209302326,
          "velocity": 0.2755905511811024
        },
        {
          "duration": 0.2093023255813975,
          "durationTicks": 18,
          "midi": 40,
          "name": "E2",
          "ticks": 2967,
          "time": 34.5,
          "velocity": 0.3464566929133858
        },
        {
          "duration": 0.13953488372092693,
          "durationTicks": 12,
          "midi": 67,
          "name": "G4",
          "ticks": 2982,
          "time": 34.674418604651166,
          "velocity": 0.1889763779527559
        },
        {
          "duration": 0.1046511627907023,
          "durationTicks": 9,
          "midi": 59,
          "name": "B3",
          "ticks": 2984,
          "time": 34.69767441860465,
          "velocity": 0.10236220472440945
        },
        {
          "duration": 0.023255813953483084,
          "durationTicks": 2,
          "midi": 39,
          "name": "D#2",
          "ticks": 2985,
          "time": 34.7093023255814,
          "velocity": 0.33070866141732286
        },
        {
          "duration": 0.05813953488372192,
          "durationTicks": 5,
          "midi": 40,
          "name": "E2",
          "ticks": 2988,
          "time": 34.74418604651163,
          "velocity": 0.3543307086614173
        },
        {
          "duration": 0.023255813953483084,
          "durationTicks": 2,
          "midi": 41,
          "name": "F2",
          "ticks": 2993,
          "time": 34.80232558139535,
          "velocity": 0.3543307086614173
        },
        {
          "duration": 0.081395348837205,
          "durationTicks": 7,
          "midi": 52,
          "name": "E3",
          "ticks": 2996,
          "time": 34.83720930232558,
          "velocity": 0.2677165354330709
        },
        {
          "duration": 0.03488372093023173,
          "durationTicks": 3,
          "midi": 71,
          "name": "B4",
          "ticks": 3004,
          "time": 34.93023255813954,
          "velocity": 0.1968503937007874
        },
        {
          "duration": 0.12790697674418539,
          "durationTicks": 11,
          "midi": 47,
          "name": "B2",
          "ticks": 3006,
          "time": 34.95348837209303,
          "velocity": 0.2677165354330709
        },
        {
          "duration": 0.09302325581395365,
          "durationTicks": 8,
          "midi": 72,
          "name": "C5",
          "ticks": 3012,
          "time": 35.02325581395349,
          "velocity": 0.2283464566929134
        },
        {
          "duration": 0.1046511627906952,
          "durationTicks": 9,
          "midi": 67,
          "name": "G4",
          "ticks": 3015,
          "time": 35.05813953488372,
          "velocity": 0.18110236220472442
        },
        {
          "duration": 0.1046511627906952,
          "durationTicks": 9,
          "midi": 71,
          "name": "B4",
          "ticks": 3020,
          "time": 35.116279069767444,
          "velocity": 0.1889763779527559
        },
        {
          "duration": 0.02325581395349019,
          "durationTicks": 2,
          "midi": 58,
          "name": "A#3",
          "ticks": 3021,
          "time": 35.127906976744185,
          "velocity": 0.2283464566929134
        },
        {
          "duration": 0.13953488372092693,
          "durationTicks": 12,
          "midi": 59,
          "name": "B3",
          "ticks": 3023,
          "time": 35.151162790697676,
          "velocity": 0.23622047244094488
        },
        {
          "duration": 0.08139534883721211,
          "durationTicks": 7,
          "midi": 64,
          "name": "E4",
          "ticks": 3024,
          "time": 35.16279069767442,
          "velocity": 0.08661417322834646
        },
        {
          "duration": 0.081395348837205,
          "durationTicks": 7,
          "midi": 47,
          "name": "B2",
          "ticks": 3025,
          "time": 35.174418604651166,
          "velocity": 0.2440944881889764
        },
        {
          "duration": 0.11627906976744384,
          "durationTicks": 10,
          "midi": 67,
          "name": "G4",
          "ticks": 3031,
          "time": 35.24418604651163,
          "velocity": 0.12598425196850394
        },
        {
          "duration": 0.1046511627906952,
          "durationTicks": 9,
          "midi": 47,
          "name": "B2",
          "ticks": 3034,
          "time": 35.27906976744186,
          "velocity": 0.33070866141732286
        },
        {
          "duration": 0.16279069767441712,
          "durationTicks": 14,
          "midi": 66,
          "name": "F#4",
          "ticks": 3042,
          "time": 35.372093023255815,
          "velocity": 0.18110236220472442
        },
        {
          "duration": 0.5581395348837219,
          "durationTicks": 48,
          "midi": 78,
          "name": "F#5",
          "ticks": 3043,
          "time": 35.383720930232556,
          "velocity": 0.25196850393700787
        },
        {
          "duration": 0.05813953488372192,
          "durationTicks": 5,
          "midi": 54,
          "name": "F#3",
          "ticks": 3044,
          "time": 35.395348837209305,
          "velocity": 0.1968503937007874
        },
        {
          "duration": 0.22093023255813904,
          "durationTicks": 19,
          "midi": 59,
          "name": "B3",
          "ticks": 3044,
          "time": 35.395348837209305,
          "velocity": 0.1732283464566929
        },
        {
          "duration": 0.22093023255813904,
          "durationTicks": 19,
          "midi": 35,
          "name": "B1",
          "ticks": 3050,
          "time": 35.46511627906977,
          "velocity": 0.28346456692913385
        },
        {
          "duration": 0.23255813953488058,
          "durationTicks": 20,
          "midi": 66,
          "name": "F#4",
          "ticks": 3063,
          "time": 35.616279069767444,
          "velocity": 0.16535433070866143
        },
        {
          "duration": 0.04651162790698038,
          "durationTicks": 4,
          "midi": 35,
          "name": "B1",
          "ticks": 3070,
          "time": 35.69767441860465,
          "velocity": 0.25984251968503935
        },
        {
          "duration": 0.04651162790698038,
          "durationTicks": 4,
          "midi": 53,
          "name": "F3",
          "ticks": 3073,
          "time": 35.73255813953488,
          "velocity": 0.2677165354330709
        },
        {
          "duration": 0.12790697674418539,
          "durationTicks": 11,
          "midi": 61,
          "name": "C#4",
          "ticks": 3083,
          "time": 35.848837209302324,
          "velocity": 0.13385826771653545
        },
        {
          "duration": 0.02325581395349019,
          "durationTicks": 2,
          "midi": 41,
          "name": "F2",
          "ticks": 3085,
          "time": 35.872093023255815,
          "velocity": 0.4566929133858268
        },
        {
          "duration": 0.08139534883721211,
          "durationTicks": 7,
          "midi": 54,
          "name": "F#3",
          "ticks": 3086,
          "time": 35.883720930232556,
          "velocity": 0.14960629921259844
        },
        {
          "duration": 0.17441860465115866,
          "durationTicks": 15,
          "midi": 42,
          "name": "F#2",
          "ticks": 3087,
          "time": 35.895348837209305,
          "velocity": 0.3779527559055118
        },
        {
          "duration": 0.046511627906973274,
          "durationTicks": 4,
          "midi": 63,
          "name": "D#4",
          "ticks": 3095,
          "time": 35.98837209302326,
          "velocity": 0.07086614173228346
        },
        {
          "duration": 0.046511627906973274,
          "durationTicks": 4,
          "midi": 78,
          "name": "F#5",
          "ticks": 3095,
          "time": 35.98837209302326,
          "velocity": 0.07874015748031496
        },
        {
          "duration": 0.05813953488372192,
          "durationTicks": 5,
          "midi": 57,
          "name": "A3",
          "ticks": 3096,
          "time": 36,
          "velocity": 0.23622047244094488
        },
        {
          "duration": 0.03488372093023173,
          "durationTicks": 3,
          "midi": 70,
          "name": "A#4",
          "ticks": 3102,
          "time": 36.06976744186046,
          "velocity": 0.14173228346456693
        },
        {
          "duration": 0.1860465116279073,
          "durationTicks": 16,
          "midi": 47,
          "name": "B2",
          "ticks": 3107,
          "time": 36.127906976744185,
          "velocity": 0.33858267716535434
        },
        {
          "duration": 0.03488372093023173,
          "durationTicks": 3,
          "midi": 66,
          "name": "F#4",
          "ticks": 3110,
          "time": 36.16279069767442,
          "velocity": 0.07874015748031496
        },
        {
          "duration": 0.03488372093023173,
          "durationTicks": 3,
          "midi": 63,
          "name": "D#4",
          "ticks": 3114,
          "time": 36.2093023255814,
          "velocity": 0.07874015748031496
        },
        {
          "duration": 0.09302325581395365,
          "durationTicks": 8,
          "midi": 66,
          "name": "F#4",
          "ticks": 3116,
          "time": 36.23255813953488,
          "velocity": 0.14173228346456693
        },
        {
          "duration": 0.19767441860464885,
          "durationTicks": 17,
          "midi": 47,
          "name": "B2",
          "ticks": 3126,
          "time": 36.348837209302324,
          "velocity": 0.36220472440944884
        },
        {
          "duration": 0.17441860465116577,
          "durationTicks": 15,
          "midi": 35,
          "name": "B1",
          "ticks": 3129,
          "time": 36.383720930232556,
          "velocity": 0.29133858267716534
        },
        {
          "duration": 0.11627906976744384,
          "durationTicks": 10,
          "midi": 66,
          "name": "F#4",
          "ticks": 3131,
          "time": 36.406976744186046,
          "velocity": 0.10236220472440945
        },
        {
          "duration": 0.08139534883721211,
          "durationTicks": 7,
          "midi": 78,
          "name": "F#5",
          "ticks": 3143,
          "time": 36.54651162790697,
          "velocity": 0.1732283464566929
        },
        {
          "duration": 0.05813953488372192,
          "durationTicks": 5,
          "midi": 35,
          "name": "B1",
          "ticks": 3145,
          "time": 36.56976744186046,
          "velocity": 0.2677165354330709
        },
        {
          "duration": 0.023255813953483084,
          "durationTicks": 2,
          "midi": 46,
          "name": "A#2",
          "ticks": 3146,
          "time": 36.58139534883721,
          "velocity": 0.2440944881889764
        },
        {
          "duration": 0.081395348837205,
          "durationTicks": 7,
          "midi": 59,
          "name": "B3",
          "ticks": 3154,
          "time": 36.674418604651166,
          "velocity": 0.09448818897637795
        },
        {
          "duration": 0.03488372093023173,
          "durationTicks": 3,
          "midi": 67,
          "name": "G4",
          "ticks": 3154,
          "time": 36.674418604651166,
          "velocity": 0.23622047244094488
        },
        {
          "duration": 0.02325581395349019,
          "durationTicks": 2,
          "midi": 45,
          "name": "A2",
          "ticks": 3156,
          "time": 36.69767441860465,
          "velocity": 0.2283464566929134
        },
        {
          "duration": 0.04651162790698038,
          "durationTicks": 4,
          "midi": 66,
          "name": "F#4",
          "ticks": 3159,
          "time": 36.73255813953488,
          "velocity": 0.07874015748031496
        },
        {
          "duration": 0.02325581395349019,
          "durationTicks": 2,
          "midi": 55,
          "name": "G3",
          "ticks": 3161,
          "time": 36.75581395348837,
          "velocity": 0.2283464566929134
        },
        {
          "duration": 0.02325581395349019,
          "durationTicks": 2,
          "midi": 40,
          "name": "E2",
          "ticks": 3163,
          "time": 36.77906976744186,
          "velocity": 0.4330708661417323
        },
        {
          "duration": 0.04651162790698038,
          "durationTicks": 4,
          "midi": 61,
          "name": "C#4",
          "ticks": 3164,
          "time": 36.7906976744186,
          "velocity": 0.07086614173228346
        },
        {
          "duration": 0.2093023255813975,
          "durationTicks": 18,
          "midi": 42,
          "name": "F#2",
          "ticks": 3166,
          "time": 36.81395348837209,
          "velocity": 0.3700787401574803
        },
        {
          "duration": 0.023255813953483084,
          "durationTicks": 2,
          "midi": 53,
          "name": "F3",
          "ticks": 3173,
          "time": 36.895348837209305,
          "velocity": 0.23622047244094488
        },
        {
          "duration": 0.04651162790698038,
          "durationTicks": 4,
          "midi": 71,
          "name": "B4",
          "ticks": 3174,
          "time": 36.906976744186046,
          "velocity": 0.11811023622047244
        },
        {
          "duration": 0.081395348837205,
          "durationTicks": 7,
          "midi": 67,
          "name": "G4",
          "ticks": 3176,
          "time": 36.93023255813954,
          "velocity": 0.12598425196850394
        },
        {
          "duration": 0.03488372093023173,
          "durationTicks": 3,
          "midi": 81,
          "name": "A5",
          "ticks": 3183,
          "time": 37.01162790697674,
          "velocity": 0.10236220472440945
        },
        {
          "duration": 0.08139534883721211,
          "durationTicks": 7,
          "midi": 93,
          "name": "A6",
          "ticks": 3183,
          "time": 37.01162790697674,
          "velocity": 0.15748031496062992
        },
        {
          "duration": 0.08139534883721211,
          "durationTicks": 7,
          "midi": 47,
          "name": "B2",
          "ticks": 3186,
          "time": 37.04651162790697,
          "velocity": 0.2677165354330709
        },
        {
          "duration": 0.04651162790698038,
          "durationTicks": 4,
          "midi": 57,
          "name": "A3",
          "ticks": 3188,
          "time": 37.06976744186046,
          "velocity": 0.15748031496062992
        },
        {
          "duration": 0.11627906976744384,
          "durationTicks": 10,
          "midi": 66,
          "name": "F#4",
          "ticks": 3190,
          "time": 37.093023255813954,
          "velocity": 0.14960629921259844
        },
        {
          "duration": 0.13953488372093403,
          "durationTicks": 12,
          "midi": 78,
          "name": "F#5",
          "ticks": 3193,
          "time": 37.127906976744185,
          "velocity": 0.2204724409448819
        },
        {
          "duration": 0.02325581395349019,
          "durationTicks": 2,
          "midi": 53,
          "name": "F3",
          "ticks": 3194,
          "time": 37.13953488372093,
          "velocity": 0.2440944881889764
        },
        {
          "duration": 0.04651162790698038,
          "durationTicks": 4,
          "midi": 41,
          "name": "F2",
          "ticks": 3196,
          "time": 37.16279069767442,
          "velocity": 0.3858267716535433
        },
        {
          "duration": 0.023255813953483084,
          "durationTicks": 2,
          "midi": 40,
          "name": "E2",
          "ticks": 3200,
          "time": 37.2093023255814,
          "velocity": 0.25984251968503935
        },
        {
          "duration": 0.13953488372093403,
          "durationTicks": 12,
          "midi": 64,
          "name": "E4",
          "ticks": 3202,
          "time": 37.23255813953488,
          "velocity": 0.09448818897637795
        },
        {
          "duration": 0.13953488372093403,
          "durationTicks": 12,
          "midi": 95,
          "name": "B6",
          "ticks": 3202,
          "time": 37.23255813953488,
          "velocity": 0.07874015748031496
        },
        {
          "duration": 0.03488372093023173,
          "durationTicks": 3,
          "midi": 58,
          "name": "A#3",
          "ticks": 3203,
          "time": 37.24418604651163,
          "velocity": 0.10236220472440945
        },
        {
          "duration": 0.11627906976744384,
          "durationTicks": 10,
          "midi": 52,
          "name": "E3",
          "ticks": 3204,
          "time": 37.25581395348837,
          "velocity": 0.29133858267716534
        },
        {
          "duration": 0.023255813953483084,
          "durationTicks": 2,
          "midi": 38,
          "name": "D2",
          "ticks": 3205,
          "time": 37.26744186046512,
          "velocity": 0.3543307086614173
        },
        {
          "duration": 0.1860465116279073,
          "durationTicks": 16,
          "midi": 67,
          "name": "G4",
          "ticks": 3205,
          "time": 37.26744186046512,
          "velocity": 0.1968503937007874
        },
        {
          "duration": 0.36046511627906597,
          "durationTicks": 31,
          "midi": 40,
          "name": "E2",
          "ticks": 3208,
          "time": 37.30232558139535,
          "velocity": 0.33858267716535434
        },
        {
          "duration": 0.27906976744186096,
          "durationTicks": 24,
          "midi": 59,
          "name": "B3",
          "ticks": 3219,
          "time": 37.43023255813954,
          "velocity": 0.2047244094488189
        },
        {
          "duration": 0.12790697674418539,
          "durationTicks": 11,
          "midi": 67,
          "name": "G4",
          "ticks": 3222,
          "time": 37.46511627906977,
          "velocity": 0.2047244094488189
        },
        {
          "duration": 0.03488372093023173,
          "durationTicks": 3,
          "midi": 52,
          "name": "E3",
          "ticks": 3239,
          "time": 37.66279069767442,
          "velocity": 0.2204724409448819
        },
        {
          "duration": 0.16279069767442422,
          "durationTicks": 14,
          "midi": 59,
          "name": "B3",
          "ticks": 3245,
          "time": 37.73255813953488,
          "velocity": 0.14960629921259844
        },
        {
          "duration": 0.16279069767441712,
          "durationTicks": 14,
          "midi": 47,
          "name": "B2",
          "ticks": 3247,
          "time": 37.75581395348837,
          "velocity": 0.2677165354330709
        },
        {
          "duration": 0.1046511627906952,
          "durationTicks": 9,
          "midi": 72,
          "name": "C5",
          "ticks": 3252,
          "time": 37.81395348837209,
          "velocity": 0.2677165354330709
        },
        {
          "duration": 0.1046511627906952,
          "durationTicks": 9,
          "midi": 67,
          "name": "G4",
          "ticks": 3254,
          "time": 37.83720930232558,
          "velocity": 0.2125984251968504
        },
        {
          "duration": 0.02325581395349019,
          "durationTicks": 2,
          "midi": 48,
          "name": "C3",
          "ticks": 3261,
          "time": 37.91860465116279,
          "velocity": 0.25984251968503935
        },
        {
          "duration": 0.02325581395349019,
          "durationTicks": 2,
          "midi": 70,
          "name": "A#4",
          "ticks": 3262,
          "time": 37.93023255813954,
          "velocity": 0.23622047244094488
        },
        {
          "duration": 0.081395348837205,
          "durationTicks": 7,
          "midi": 83,
          "name": "B5",
          "ticks": 3262,
          "time": 37.93023255813954,
          "velocity": 0.13385826771653545
        },
        {
          "duration": 0.09302325581395365,
          "durationTicks": 8,
          "midi": 71,
          "name": "B4",
          "ticks": 3263,
          "time": 37.94186046511628,
          "velocity": 0.2047244094488189
        },
        {
          "duration": 0.046511627906973274,
          "durationTicks": 4,
          "midi": 52,
          "name": "E3",
          "ticks": 3265,
          "time": 37.96511627906977,
          "velocity": 0.23622047244094488
        },
        {
          "duration": 0.081395348837205,
          "durationTicks": 7,
          "midi": 67,
          "name": "G4",
          "ticks": 3265,
          "time": 37.96511627906977,
          "velocity": 0.11811023622047244
        },
        {
          "duration": 0.09302325581395365,
          "durationTicks": 8,
          "midi": 52,
          "name": "E3",
          "ticks": 3270,
          "time": 38.02325581395349,
          "velocity": 0.25984251968503935
        },
        {
          "duration": 0.11627906976744384,
          "durationTicks": 10,
          "midi": 67,
          "name": "G4",
          "ticks": 3274,
          "time": 38.06976744186046,
          "velocity": 0.14960629921259844
        },
        {
          "duration": 0.081395348837205,
          "durationTicks": 7,
          "midi": 40,
          "name": "E2",
          "ticks": 3275,
          "time": 38.08139534883721,
          "velocity": 0.3228346456692913
        },
        {
          "duration": 0.09302325581395365,
          "durationTicks": 8,
          "midi": 57,
          "name": "A3",
          "ticks": 3276,
          "time": 38.093023255813954,
          "velocity": 0.2204724409448819
        },
        {
          "duration": 0.2093023255813975,
          "durationTicks": 18,
          "midi": 78,
          "name": "F#5",
          "ticks": 3282,
          "time": 38.16279069767442,
          "velocity": 0.23622047244094488
        },
        {
          "duration": 0.1860465116279073,
          "durationTicks": 16,
          "midi": 66,
          "name": "F#4",
          "ticks": 3284,
          "time": 38.18604651162791,
          "velocity": 0.13385826771653545
        },
        {
          "duration": 0.02325581395349019,
          "durationTicks": 2,
          "midi": 54,
          "name": "F#3",
          "ticks": 3285,
          "time": 38.19767441860465,
          "velocity": 0.28346456692913385
        },
        {
          "duration": 0.023255813953483084,
          "durationTicks": 2,
          "midi": 33,
          "name": "A1",
          "ticks": 3286,
          "time": 38.2093023255814,
          "velocity": 0.33070866141732286
        },
        {
          "duration": 0.04651162790698038,
          "durationTicks": 4,
          "midi": 47,
          "name": "B2",
          "ticks": 3287,
          "time": 38.22093023255814,
          "velocity": 0.29133858267716534
        },
        {
          "duration": 0.05813953488372192,
          "durationTicks": 5,
          "midi": 54,
          "name": "F#3",
          "ticks": 3288,
          "time": 38.23255813953488,
          "velocity": 0.2204724409448819
        },
        {
          "duration": 0.12790697674418539,
          "durationTicks": 11,
          "midi": 35,
          "name": "B1",
          "ticks": 3289,
          "time": 38.24418604651163,
          "velocity": 0.29133858267716534
        },
        {
          "duration": 0.02325581395349019,
          "durationTicks": 2,
          "midi": 35,
          "name": "B1",
          "ticks": 3301,
          "time": 38.383720930232556,
          "velocity": 0.29133858267716534
        },
        {
          "duration": 0.1860465116279073,
          "durationTicks": 16,
          "midi": 78,
          "name": "F#5",
          "ticks": 3302,
          "time": 38.395348837209305,
          "velocity": 0.2677165354330709
        },
        {
          "duration": 0.11627906976744384,
          "durationTicks": 10,
          "midi": 66,
          "name": "F#4",
          "ticks": 3303,
          "time": 38.406976744186046,
          "velocity": 0.12598425196850394
        },
        {
          "duration": 0.02325581395349019,
          "durationTicks": 2,
          "midi": 35,
          "name": "B1",
          "ticks": 3309,
          "time": 38.47674418604651,
          "velocity": 0.2755905511811024
        },
        {
          "duration": 0.05813953488372192,
          "durationTicks": 5,
          "midi": 35,
          "name": "B1",
          "ticks": 3312,
          "time": 38.51162790697674,
          "velocity": 0.28346456692913385
        },
        {
          "duration": 0.02325581395349019,
          "durationTicks": 2,
          "midi": 35,
          "name": "B1",
          "ticks": 3320,
          "time": 38.604651162790695,
          "velocity": 0.2755905511811024
        },
        {
          "duration": 0.03488372093023173,
          "durationTicks": 3,
          "midi": 66,
          "name": "F#4",
          "ticks": 3321,
          "time": 38.616279069767444,
          "velocity": 0.08661417322834646
        },
        {
          "duration": 0.03488372093023173,
          "durationTicks": 3,
          "midi": 41,
          "name": "F2",
          "ticks": 3324,
          "time": 38.651162790697676,
          "velocity": 0.3937007874015748
        },
        {
          "duration": 0.1046511627907023,
          "durationTicks": 9,
          "midi": 61,
          "name": "C#4",
          "ticks": 3325,
          "time": 38.66279069767442,
          "velocity": 0.09448818897637795
        },
        {
          "duration": 0.09302325581395365,
          "durationTicks": 8,
          "midi": 54,
          "name": "F#3",
          "ticks": 3326,
          "time": 38.674418604651166,
          "velocity": 0.2047244094488189
        },
        {
          "duration": 0.19767441860464885,
          "durationTicks": 17,
          "midi": 42,
          "name": "F#2",
          "ticks": 3327,
          "time": 38.68604651162791,
          "velocity": 0.3858267716535433
        },
        {
          "duration": 0.03488372093023173,
          "durationTicks": 3,
          "midi": 59,
          "name": "B3",
          "ticks": 3334,
          "time": 38.76744186046512,
          "velocity": 0.07874015748031496
        },
        {
          "duration": 0.081395348837205,
          "durationTicks": 7,
          "midi": 71,
          "name": "B4",
          "ticks": 3334,
          "time": 38.76744186046512,
          "velocity": 0.18110236220472442
        },
        {
          "duration": 0.03488372093023173,
          "durationTicks": 3,
          "midi": 67,
          "name": "G4",
          "ticks": 3341,
          "time": 38.848837209302324,
          "velocity": 0.11023622047244094
        },
        {
          "duration": 0.12790697674418539,
          "durationTicks": 11,
          "midi": 47,
          "name": "B2",
          "ticks": 3346,
          "time": 38.906976744186046,
          "velocity": 0.29133858267716534
        },
        {
          "duration": 0.12790697674418539,
          "durationTicks": 11,
          "midi": 78,
          "name": "F#5",
          "ticks": 3353,
          "time": 38.98837209302326,
          "velocity": 0.2440944881889764
        },
        {
          "duration": 0.046511627906973274,
          "durationTicks": 4,
          "midi": 85,
          "name": "C#6",
          "ticks": 3353,
          "time": 38.98837209302326,
          "velocity": 0.09448818897637795
        },
        {
          "duration": 0.046511627906973274,
          "durationTicks": 4,
          "midi": 66,
          "name": "F#4",
          "ticks": 3354,
          "time": 39,
          "velocity": 0.1889763779527559
        },
        {
          "duration": 0.03488372093023173,
          "durationTicks": 3,
          "midi": 57,
          "name": "A3",
          "ticks": 3359,
          "time": 39.05813953488372,
          "velocity": 0.10236220472440945
        },
        {
          "duration": 0.02325581395349019,
          "durationTicks": 2,
          "midi": 50,
          "name": "D3",
          "ticks": 3362,
          "time": 39.093023255813954,
          "velocity": 0.25196850393700787
        },
        {
          "duration": 0.24418604651162923,
          "durationTicks": 21,
          "midi": 59,
          "name": "B3",
          "ticks": 3364,
          "time": 39.116279069767444,
          "velocity": 0.2047244094488189
        },
        {
          "duration": 0.11627906976743674,
          "durationTicks": 10,
          "midi": 67,
          "name": "G4",
          "ticks": 3364,
          "time": 39.116279069767444,
          "velocity": 0.2047244094488189
        },
        {
          "duration": 0.1860465116279073,
          "durationTicks": 16,
          "midi": 64,
          "name": "E4",
          "ticks": 3366,
          "time": 39.13953488372093,
          "velocity": 0.13385826771653545
        },
        {
          "duration": 0.30232558139534405,
          "durationTicks": 26,
          "midi": 40,
          "name": "E2",
          "ticks": 3369,
          "time": 39.174418604651166,
          "velocity": 0.3543307086614173
        },
        {
          "duration": 0.11627906976744384,
          "durationTicks": 10,
          "midi": 79,
          "name": "G5",
          "ticks": 3383,
          "time": 39.33720930232558,
          "velocity": 0.12598425196850394
        },
        {
          "duration": 0.08139534883721211,
          "durationTicks": 7,
          "midi": 67,
          "name": "G4",
          "ticks": 3384,
          "time": 39.348837209302324,
          "velocity": 0.1968503937007874
        },
        {
          "duration": 0.11627906976744384,
          "durationTicks": 10,
          "midi": 64,
          "name": "E4",
          "ticks": 3395,
          "time": 39.47674418604651,
          "velocity": 0.10236220472440945
        },
        {
          "duration": 0.06976744186047057,
          "durationTicks": 6,
          "midi": 40,
          "name": "E2",
          "ticks": 3398,
          "time": 39.51162790697674,
          "velocity": 0.33858267716535434
        },
        {
          "duration": 0.046511627906973274,
          "durationTicks": 4,
          "midi": 74,
          "name": "D5",
          "ticks": 3402,
          "time": 39.55813953488372,
          "velocity": 0.2125984251968504
        },
        {
          "duration": 0.09302325581395365,
          "durationTicks": 8,
          "midi": 71,
          "name": "B4",
          "ticks": 3403,
          "time": 39.56976744186046,
          "velocity": 0.2125984251968504
        },
        {
          "duration": 0.03488372093023173,
          "durationTicks": 3,
          "midi": 45,
          "name": "A2",
          "ticks": 3405,
          "time": 39.593023255813954,
          "velocity": 0.2992125984251969
        },
        {
          "duration": 0.17441860465116577,
          "durationTicks": 15,
          "midi": 47,
          "name": "B2",
          "ticks": 3408,
          "time": 39.627906976744185,
          "velocity": 0.25984251968503935
        },
        {
          "duration": 0.12790697674418539,
          "durationTicks": 11,
          "midi": 72,
          "name": "C5",
          "ticks": 3411,
          "time": 39.66279069767442,
          "velocity": 0.25984251968503935
        },
        {
          "duration": 0.04651162790698038,
          "durationTicks": 4,
          "midi": 67,
          "name": "G4",
          "ticks": 3417,
          "time": 39.73255813953488,
          "velocity": 0.09448818897637795
        },
        {
          "duration": 0.03488372093023173,
          "durationTicks": 3,
          "midi": 70,
          "name": "A#4",
          "ticks": 3422,
          "time": 39.7906976744186,
          "velocity": 0.18110236220472442
        },
        {
          "duration": 0.023255813953483084,
          "durationTicks": 2,
          "midi": 40,
          "name": "E2",
          "ticks": 3423,
          "time": 39.80232558139535,
          "velocity": 0.3464566929133858
        },
        {
          "duration": 0.081395348837205,
          "durationTicks": 7,
          "midi": 83,
          "name": "B5",
          "ticks": 3423,
          "time": 39.80232558139535,
          "velocity": 0.12598425196850394
        },
        {
          "duration": 0.09302325581395365,
          "durationTicks": 8,
          "midi": 59,
          "name": "B3",
          "ticks": 3424,
          "time": 39.81395348837209,
          "velocity": 0.1732283464566929
        },
        {
          "duration": 0.12790697674418539,
          "durationTicks": 11,
          "midi": 71,
          "name": "B4",
          "ticks": 3424,
          "time": 39.81395348837209,
          "velocity": 0.2204724409448819
        },
        {
          "duration": 0.06976744186047057,
          "durationTicks": 6,
          "midi": 52,
          "name": "E3",
          "ticks": 3425,
          "time": 39.825581395348834,
          "velocity": 0.2677165354330709
        },
        {
          "duration": 0.081395348837205,
          "durationTicks": 7,
          "midi": 67,
          "name": "G4",
          "ticks": 3426,
          "time": 39.83720930232558,
          "velocity": 0.11023622047244094
        },
        {
          "duration": 0.046511627906973274,
          "durationTicks": 4,
          "midi": 40,
          "name": "E2",
          "ticks": 3431,
          "time": 39.895348837209305,
          "velocity": 0.33858267716535434
        },
        {
          "duration": 0.1046511627906952,
          "durationTicks": 9,
          "midi": 64,
          "name": "E4",
          "ticks": 3432,
          "time": 39.906976744186046,
          "velocity": 0.14960629921259844
        },
        {
          "duration": 0.081395348837205,
          "durationTicks": 7,
          "midi": 57,
          "name": "A3",
          "ticks": 3436,
          "time": 39.95348837209303,
          "velocity": 0.16535433070866143
        },
        {
          "duration": 0.1046511627906952,
          "durationTicks": 9,
          "midi": 67,
          "name": "G4",
          "ticks": 3436,
          "time": 39.95348837209303,
          "velocity": 0.13385826771653545
        },
        {
          "duration": 0.05813953488372192,
          "durationTicks": 5,
          "midi": 52,
          "name": "E3",
          "ticks": 3437,
          "time": 39.96511627906977,
          "velocity": 0.15748031496062992
        },
        {
          "duration": 0.03488372093023173,
          "durationTicks": 3,
          "midi": 45,
          "name": "A2",
          "ticks": 3443,
          "time": 40.03488372093023,
          "velocity": 0.44881889763779526
        },
        {
          "duration": 0.1860465116279073,
          "durationTicks": 16,
          "midi": 78,
          "name": "F#5",
          "ticks": 3443,
          "time": 40.03488372093023,
          "velocity": 0.2204724409448819
        },
        {
          "duration": 0.03488372093023884,
          "durationTicks": 3,
          "midi": 59,
          "name": "B3",
          "ticks": 3444,
          "time": 40.04651162790697,
          "velocity": 0.11811023622047244
        },
        {
          "duration": 0.023255813953483084,
          "durationTicks": 2,
          "midi": 53,
          "name": "F3",
          "ticks": 3447,
          "time": 40.08139534883721,
          "velocity": 0.2283464566929134
        },
        {
          "duration": 0.03488372093023173,
          "durationTicks": 3,
          "midi": 35,
          "name": "B1",
          "ticks": 3448,
          "time": 40.093023255813954,
          "velocity": 0.29133858267716534
        },
        {
          "duration": 0.2093023255813975,
          "durationTicks": 18,
          "midi": 66,
          "name": "F#4",
          "ticks": 3453,
          "time": 40.151162790697676,
          "velocity": 0.1732283464566929
        },
        {
          "duration": 0.06976744186046346,
          "durationTicks": 6,
          "midi": 35,
          "name": "B1",
          "ticks": 3454,
          "time": 40.16279069767442,
          "velocity": 0.28346456692913385
        },
        {
          "duration": 0.02325581395349019,
          "durationTicks": 2,
          "midi": 35,
          "name": "B1",
          "ticks": 3461,
          "time": 40.24418604651163,
          "velocity": 0.29133858267716534
        },
        {
          "duration": 0.1860465116279073,
          "durationTicks": 16,
          "midi": 78,
          "name": "F#5",
          "ticks": 3463,
          "time": 40.26744186046512,
          "velocity": 0.2677165354330709
        },
        {
          "duration": 0.02325581395349019,
          "durationTicks": 2,
          "midi": 35,
          "name": "B1",
          "ticks": 3464,
          "time": 40.27906976744186,
          "velocity": 0.28346456692913385
        },
        {
          "duration": 0.03488372093023173,
          "durationTicks": 3,
          "midi": 53,
          "name": "F3",
          "ticks": 3464,
          "time": 40.27906976744186,
          "velocity": 0.16535433070866143
        },
        {
          "duration": 0.06976744186047057,
          "durationTicks": 6,
          "midi": 85,
          "name": "C#6",
          "ticks": 3465,
          "time": 40.2906976744186,
          "velocity": 0.07086614173228346
        },
        {
          "duration": 0.06976744186047057,
          "durationTicks": 6,
          "midi": 47,
          "name": "B2",
          "ticks": 3468,
          "time": 40.325581395348834,
          "velocity": 0.1889763779527559
        },
        {
          "duration": 0.02325581395349019,
          "durationTicks": 2,
          "midi": 35,
          "name": "B1",
          "ticks": 3469,
          "time": 40.33720930232558,
          "velocity": 0.2755905511811024
        },
        {
          "duration": 0.02325581395349019,
          "durationTicks": 2,
          "midi": 35,
          "name": "B1",
          "ticks": 3472,
          "time": 40.372093023255815,
          "velocity": 0.2755905511811024
        },
        {
          "duration": 0.02325581395349019,
          "durationTicks": 2,
          "midi": 35,
          "name": "B1",
          "ticks": 3475,
          "time": 40.406976744186046,
          "velocity": 0.2677165354330709
        },
        {
          "duration": 0.09302325581395365,
          "durationTicks": 8,
          "midi": 63,
          "name": "D#4",
          "ticks": 3476,
          "time": 40.41860465116279,
          "velocity": 0.10236220472440945
        },
        {
          "duration": 0.03488372093023884,
          "durationTicks": 3,
          "midi": 66,
          "name": "F#4",
          "ticks": 3476,
          "time": 40.41860465116279,
          "velocity": 0.11811023622047244
        },
        {
          "duration": 0.04651162790698038,
          "durationTicks": 4,
          "midi": 35,
          "name": "B1",
          "ticks": 3478,
          "time": 40.44186046511628,
          "velocity": 0.2677165354330709
        },
        {
          "duration": 0.058139534883714816,
          "durationTicks": 5,
          "midi": 67,
          "name": "G4",
          "ticks": 3479,
          "time": 40.45348837209303,
          "velocity": 0.15748031496062992
        },
        {
          "duration": 0.023255813953483084,
          "durationTicks": 2,
          "midi": 34,
          "name": "A#1",
          "ticks": 3482,
          "time": 40.48837209302326,
          "velocity": 0.2992125984251969
        },
        {
          "duration": 0.09302325581395365,
          "durationTicks": 8,
          "midi": 54,
          "name": "F#3",
          "ticks": 3487,
          "time": 40.54651162790697,
          "velocity": 0.11811023622047244
        },
        {
          "duration": 0.13953488372092693,
          "durationTicks": 12,
          "midi": 42,
          "name": "F#2",
          "ticks": 3488,
          "time": 40.55813953488372,
          "velocity": 0.36220472440944884
        },
        {
          "duration": 0.08139534883721211,
          "durationTicks": 7,
          "midi": 71,
          "name": "B4",
          "ticks": 3494,
          "time": 40.627906976744185,
          "velocity": 0.16535433070866143
        },
        {
          "duration": 0.03488372093023173,
          "durationTicks": 3,
          "midi": 90,
          "name": "F#6",
          "ticks": 3494,
          "time": 40.627906976744185,
          "velocity": 0.07086614173228346
        },
        {
          "duration": 0.03488372093023173,
          "durationTicks": 3,
          "midi": 70,
          "name": "A#4",
          "ticks": 3502,
          "time": 40.72093023255814,
          "velocity": 0.16535433070866143
        },
        {
          "duration": 0.2325581395348877,
          "durationTicks": 20,
          "midi": 47,
          "name": "B2",
          "ticks": 3505,
          "time": 40.75581395348837,
          "velocity": 0.3228346456692913
        },
        {
          "duration": 0.06976744186046346,
          "durationTicks": 6,
          "midi": 66,
          "name": "F#4",
          "ticks": 3505,
          "time": 40.75581395348837,
          "velocity": 0.13385826771653545
        },
        {
          "duration": 0.17441860465116577,
          "durationTicks": 15,
          "midi": 35,
          "name": "B1",
          "ticks": 3508,
          "time": 40.7906976744186,
          "velocity": 0.2755905511811024
        },
        {
          "duration": 0.03488372093023884,
          "durationTicks": 3,
          "midi": 69,
          "name": "A4",
          "ticks": 3511,
          "time": 40.825581395348834,
          "velocity": 0.07086614173228346
        },
        {
          "duration": 0.16279069767441712,
          "durationTicks": 14,
          "midi": 78,
          "name": "F#5",
          "ticks": 3512,
          "time": 40.83720930232558,
          "velocity": 0.23622047244094488
        },
        {
          "duration": 0.05813953488372192,
          "durationTicks": 5,
          "midi": 66,
          "name": "F#4",
          "ticks": 3515,
          "time": 40.872093023255815,
          "velocity": 0.13385826771653545
        },
        {
          "duration": 0.046511627906973274,
          "durationTicks": 4,
          "midi": 85,
          "name": "C#6",
          "ticks": 3517,
          "time": 40.895348837209305,
          "velocity": 0.07874015748031496
        },
        {
          "duration": 1.2325581395348806,
          "durationTicks": 106,
          "midi": 64,
          "name": "E4",
          "ticks": 3523,
          "time": 40.96511627906977,
          "velocity": 0.25196850393700787
        },
        {
          "duration": 0.023255813953483084,
          "durationTicks": 2,
          "midi": 48,
          "name": "C3",
          "ticks": 3525,
          "time": 40.98837209302326,
          "velocity": 0.25984251968503935
        },
        {
          "duration": 0.3139534883720927,
          "durationTicks": 27,
          "midi": 67,
          "name": "G4",
          "ticks": 3525,
          "time": 40.98837209302326,
          "velocity": 0.1732283464566929
        },
        {
          "duration": 0.3372093023255829,
          "durationTicks": 29,
          "midi": 40,
          "name": "E2",
          "ticks": 3528,
          "time": 41.02325581395349,
          "velocity": 0.3543307086614173
        },
        {
          "duration": 0.03488372093023884,
          "durationTicks": 3,
          "midi": 59,
          "name": "B3",
          "ticks": 3554,
          "time": 41.325581395348834,
          "velocity": 0.07086614173228346
        },
        {
          "duration": 0.24418604651162923,
          "durationTicks": 21,
          "midi": 67,
          "name": "G4",
          "ticks": 3556,
          "time": 41.348837209302324,
          "velocity": 0.15748031496062992
        },
        {
          "duration": 0.08139534883721211,
          "durationTicks": 7,
          "midi": 40,
          "name": "E2",
          "ticks": 3558,
          "time": 41.372093023255815,
          "velocity": 0.3700787401574803
        },
        {
          "duration": 0.02325581395349019,
          "durationTicks": 2,
          "midi": 44,
          "name": "G#2",
          "ticks": 3567,
          "time": 41.47674418604651,
          "velocity": 0.2992125984251969
        },
        {
          "duration": 0.12790697674418539,
          "durationTicks": 11,
          "midi": 47,
          "name": "B2",
          "ticks": 3571,
          "time": 41.52325581395349,
          "velocity": 0.23622047244094488
        },
        {
          "duration": 0.046511627906973274,
          "durationTicks": 4,
          "midi": 44,
          "name": "G#2",
          "ticks": 3584,
          "time": 41.674418604651166,
          "velocity": 0.3937007874015748
        },
        {
          "duration": 0.03488372093023173,
          "durationTicks": 3,
          "midi": 52,
          "name": "E3",
          "ticks": 3585,
          "time": 41.68604651162791,
          "velocity": 0.23622047244094488
        },
        {
          "duration": 0.25581395348837077,
          "durationTicks": 22,
          "midi": 67,
          "name": "G4",
          "ticks": 3587,
          "time": 41.7093023255814,
          "velocity": 0.18110236220472442
        },
        {
          "duration": 0.04651162790698038,
          "durationTicks": 4,
          "midi": 45,
          "name": "A2",
          "ticks": 3588,
          "time": 41.72093023255814,
          "velocity": 0.2992125984251969
        },
        {
          "duration": 0.09302325581395365,
          "durationTicks": 8,
          "midi": 59,
          "name": "B3",
          "ticks": 3593,
          "time": 41.77906976744186,
          "velocity": 0.14173228346456693
        },
        {
          "duration": 0.03488372093023173,
          "durationTicks": 3,
          "midi": 52,
          "name": "E3",
          "ticks": 3599,
          "time": 41.848837209302324,
          "velocity": 0.11811023622047244
        },
        {
          "duration": 0.19767441860464885,
          "durationTicks": 17,
          "midi": 59,
          "name": "B3",
          "ticks": 3603,
          "time": 41.895348837209305,
          "velocity": 0.14960629921259844
        },
        {
          "duration": 0.15116279069767558,
          "durationTicks": 13,
          "midi": 52,
          "name": "E3",
          "ticks": 3607,
          "time": 41.94186046511628,
          "velocity": 0.25984251968503935
        },
        {
          "duration": 0.27906976744185386,
          "durationTicks": 24,
          "midi": 40,
          "name": "E2",
          "ticks": 3608,
          "time": 41.95348837209303,
          "velocity": 0.3543307086614173
        },
        {
          "duration": 0.15116279069767558,
          "durationTicks": 13,
          "midi": 67,
          "name": "G4",
          "ticks": 3620,
          "time": 42.093023255813954,
          "velocity": 0.16535433070866143
        },
        {
          "duration": 0.03488372093023173,
          "durationTicks": 3,
          "midi": 40,
          "name": "E2",
          "ticks": 3633,
          "time": 42.24418604651163,
          "velocity": 0.3228346456692913
        },
        {
          "duration": 0.4418604651162781,
          "durationTicks": 38,
          "midi": 64,
          "name": "E4",
          "ticks": 3634,
          "time": 42.25581395348837,
          "velocity": 0.23622047244094488
        },
        {
          "duration": 0.046511627906973274,
          "durationTicks": 4,
          "midi": 47,
          "name": "B2",
          "ticks": 3635,
          "time": 42.26744186046512,
          "velocity": 0.29133858267716534
        },
        {
          "duration": 0.02325581395349019,
          "durationTicks": 2,
          "midi": 48,
          "name": "C3",
          "ticks": 3639,
          "time": 42.31395348837209,
          "velocity": 0.23622047244094488
        },
        {
          "duration": 0.02325581395349019,
          "durationTicks": 2,
          "midi": 47,
          "name": "B2",
          "ticks": 3641,
          "time": 42.33720930232558,
          "velocity": 0.23622047244094488
        },
        {
          "duration": 0.02325581395349019,
          "durationTicks": 2,
          "midi": 45,
          "name": "A2",
          "ticks": 3644,
          "time": 42.372093023255815,
          "velocity": 0.3779527559055118
        },
        {
          "duration": 0.023255813953483084,
          "durationTicks": 2,
          "midi": 47,
          "name": "B2",
          "ticks": 3646,
          "time": 42.395348837209305,
          "velocity": 0.23622047244094488
        },
        {
          "duration": 0.03488372093023173,
          "durationTicks": 3,
          "midi": 54,
          "name": "F#3",
          "ticks": 3646,
          "time": 42.395348837209305,
          "velocity": 0.14173228346456693
        },
        {
          "duration": 0.02325581395349019,
          "durationTicks": 2,
          "midi": 46,
          "name": "A#2",
          "ticks": 3648,
          "time": 42.41860465116279,
          "velocity": 0.25196850393700787
        },
        {
          "duration": 0.16279069767441712,
          "durationTicks": 14,
          "midi": 35,
          "name": "B1",
          "ticks": 3649,
          "time": 42.43023255813954,
          "velocity": 0.29133858267716534
        },
        {
          "duration": 0.06976744186046346,
          "durationTicks": 6,
          "midi": 54,
          "name": "F#3",
          "ticks": 3653,
          "time": 42.47674418604651,
          "velocity": 0.14173228346456693
        },
        {
          "duration": 0.03488372093023173,
          "durationTicks": 3,
          "midi": 70,
          "name": "A#4",
          "ticks": 3661,
          "time": 42.56976744186046,
          "velocity": 0.1968503937007874
        },
        {
          "duration": 0.02325581395349019,
          "durationTicks": 2,
          "midi": 49,
          "name": "C#3",
          "ticks": 3663,
          "time": 42.593023255813954,
          "velocity": 0.2440944881889764
        },
        {
          "duration": 0.02325581395349019,
          "durationTicks": 2,
          "midi": 33,
          "name": "A1",
          "ticks": 3667,
          "time": 42.63953488372093,
          "velocity": 0.31496062992125984
        },
        {
          "duration": 0.02325581395349019,
          "durationTicks": 2,
          "midi": 46,
          "name": "A#2",
          "ticks": 3667,
          "time": 42.63953488372093,
          "velocity": 0.30708661417322836
        },
        {
          "duration": 0.09302325581395365,
          "durationTicks": 8,
          "midi": 67,
          "name": "G4",
          "ticks": 3669,
          "time": 42.66279069767442,
          "velocity": 0.2125984251968504
        },
        {
          "duration": 0.11627906976743674,
          "durationTicks": 10,
          "midi": 46,
          "name": "A#2",
          "ticks": 3670,
          "time": 42.674418604651166,
          "velocity": 0.30708661417322836
        },
        {
          "duration": 0.03488372093023173,
          "durationTicks": 3,
          "midi": 53,
          "name": "F3",
          "ticks": 3670,
          "time": 42.674418604651166,
          "velocity": 0.1732283464566929
        },
        {
          "duration": 0.08139534883721211,
          "durationTicks": 7,
          "midi": 34,
          "name": "A#1",
          "ticks": 3671,
          "time": 42.68604651162791,
          "velocity": 0.2677165354330709
        },
        {
          "duration": 0.11627906976744384,
          "durationTicks": 10,
          "midi": 64,
          "name": "E4",
          "ticks": 3683,
          "time": 42.825581395348834,
          "velocity": 0.2125984251968504
        },
        {
          "duration": 0.046511627906973274,
          "durationTicks": 4,
          "midi": 57,
          "name": "A3",
          "ticks": 3686,
          "time": 42.86046511627907,
          "velocity": 0.16535433070866143
        },
        {
          "duration": 0.02325581395349019,
          "durationTicks": 2,
          "midi": 52,
          "name": "E3",
          "ticks": 3687,
          "time": 42.872093023255815,
          "velocity": 0.2283464566929134
        },
        {
          "duration": 0.3720930232558146,
          "durationTicks": 32,
          "midi": 45,
          "name": "A2",
          "ticks": 3688,
          "time": 42.883720930232556,
          "velocity": 0.33858267716535434
        },
        {
          "duration": 0.13953488372093403,
          "durationTicks": 12,
          "midi": 67,
          "name": "G4",
          "ticks": 3688,
          "time": 42.883720930232556,
          "velocity": 0.1732283464566929
        },
        {
          "duration": 0.05813953488372192,
          "durationTicks": 5,
          "midi": 33,
          "name": "A1",
          "ticks": 3690,
          "time": 42.906976744186046,
          "velocity": 0.23622047244094488
        },
        {
          "duration": 0.05813953488372192,
          "durationTicks": 5,
          "midi": 52,
          "name": "E3",
          "ticks": 3690,
          "time": 42.906976744186046,
          "velocity": 0.23622047244094488
        },
        {
          "duration": 0.12790697674418539,
          "durationTicks": 11,
          "midi": 33,
          "name": "A1",
          "ticks": 3696,
          "time": 42.97674418604651,
          "velocity": 0.2440944881889764
        },
        {
          "duration": 0.1860465116279073,
          "durationTicks": 16,
          "midi": 67,
          "name": "G4",
          "ticks": 3703,
          "time": 43.05813953488372,
          "velocity": 0.2677165354330709
        },
        {
          "duration": 0.08139534883721211,
          "durationTicks": 7,
          "midi": 64,
          "name": "E4",
          "ticks": 3706,
          "time": 43.093023255813954,
          "velocity": 0.08661417322834646
        },
        {
          "duration": 0.03488372093023173,
          "durationTicks": 3,
          "midi": 52,
          "name": "E3",
          "ticks": 3708,
          "time": 43.116279069767444,
          "velocity": 0.11811023622047244
        },
        {
          "duration": 0.09302325581395365,
          "durationTicks": 8,
          "midi": 33,
          "name": "A1",
          "ticks": 3710,
          "time": 43.13953488372093,
          "velocity": 0.23622047244094488
        },
        {
          "duration": 0.09302325581395365,
          "durationTicks": 8,
          "midi": 64,
          "name": "E4",
          "ticks": 3716,
          "time": 43.2093023255814,
          "velocity": 0.11023622047244094
        },
        {
          "duration": 0.03488372093023173,
          "durationTicks": 3,
          "midi": 52,
          "name": "E3",
          "ticks": 3720,
          "time": 43.25581395348837,
          "velocity": 0.2204724409448819
        },
        {
          "duration": 0.023255813953483084,
          "durationTicks": 2,
          "midi": 45,
          "name": "A2",
          "ticks": 3724,
          "time": 43.30232558139535,
          "velocity": 0.36220472440944884
        },
        {
          "duration": 0.05813953488372192,
          "durationTicks": 5,
          "midi": 83,
          "name": "B5",
          "ticks": 3724,
          "time": 43.30232558139535,
          "velocity": 0.13385826771653545
        },
        {
          "duration": 0.05813953488372192,
          "durationTicks": 5,
          "midi": 90,
          "name": "F#6",
          "ticks": 3724,
          "time": 43.30232558139535,
          "velocity": 0.11811023622047244
        },
        {
          "duration": 0.02325581395349019,
          "durationTicks": 2,
          "midi": 34,
          "name": "A#1",
          "ticks": 3726,
          "time": 43.325581395348834,
          "velocity": 0.3700787401574803
        },
        {
          "duration": 0.03488372093023884,
          "durationTicks": 3,
          "midi": 55,
          "name": "G3",
          "ticks": 3726,
          "time": 43.325581395348834,
          "velocity": 0.2125984251968504
        },
        {
          "duration": 0.08139534883721211,
          "durationTicks": 7,
          "midi": 71,
          "name": "B4",
          "ticks": 3726,
          "time": 43.325581395348834,
          "velocity": 0.1732283464566929
        },
        {
          "duration": 0.16279069767441712,
          "durationTicks": 14,
          "midi": 36,
          "name": "C2",
          "ticks": 3728,
          "time": 43.348837209302324,
          "velocity": 0.33858267716535434
        },
        {
          "duration": 0.11627906976744384,
          "durationTicks": 10,
          "midi": 72,
          "name": "C5",
          "ticks": 3733,
          "time": 43.406976744186046,
          "velocity": 0.1889763779527559
        },
        {
          "duration": 0.1046511627906952,
          "durationTicks": 9,
          "midi": 96,
          "name": "C7",
          "ticks": 3733,
          "time": 43.406976744186046,
          "velocity": 0.09448818897637795
        },
        {
          "duration": 0.11627906976744384,
          "durationTicks": 10,
          "midi": 84,
          "name": "C6",
          "ticks": 3734,
          "time": 43.41860465116279,
          "velocity": 0.1889763779527559
        },
        {
          "duration": 0.046511627906973274,
          "durationTicks": 4,
          "midi": 55,
          "name": "G3",
          "ticks": 3735,
          "time": 43.43023255813954,
          "velocity": 0.13385826771653545
        },
        {
          "duration": 0.058139534883714816,
          "durationTicks": 5,
          "midi": 91,
          "name": "G6",
          "ticks": 3737,
          "time": 43.45348837209303,
          "velocity": 0.07874015748031496
        },
        {
          "duration": 0.04651162790698038,
          "durationTicks": 4,
          "midi": 63,
          "name": "D#4",
          "ticks": 3742,
          "time": 43.51162790697674,
          "velocity": 0.14960629921259844
        },
        {
          "duration": 0.2674418604651194,
          "durationTicks": 23,
          "midi": 67,
          "name": "G4",
          "ticks": 3742,
          "time": 43.51162790697674,
          "velocity": 0.18110236220472442
        },
        {
          "duration": 0.03488372093023173,
          "durationTicks": 3,
          "midi": 70,
          "name": "A#4",
          "ticks": 3742,
          "time": 43.51162790697674,
          "velocity": 0.1968503937007874
        },
        {
          "duration": 0.08139534883721211,
          "durationTicks": 7,
          "midi": 52,
          "name": "E3",
          "ticks": 3745,
          "time": 43.54651162790697,
          "velocity": 0.33070866141732286
        },
        {
          "duration": 0.02325581395349019,
          "durationTicks": 2,
          "midi": 38,
          "name": "D2",
          "ticks": 3746,
          "time": 43.55813953488372,
          "velocity": 0.36220472440944884
        },
        {
          "duration": 0.081395348837205,
          "durationTicks": 7,
          "midi": 59,
          "name": "B3",
          "ticks": 3746,
          "time": 43.55813953488372,
          "velocity": 0.15748031496062992
        },
        {
          "duration": 0.03488372093023173,
          "durationTicks": 3,
          "midi": 40,
          "name": "E2",
          "ticks": 3749,
          "time": 43.593023255813954,
          "velocity": 0.3543307086614173
        },
        {
          "duration": 0.04651162790698038,
          "durationTicks": 4,
          "midi": 52,
          "name": "E3",
          "ticks": 3753,
          "time": 43.63953488372093,
          "velocity": 0.25984251968503935
        },
        {
          "duration": 0.32558139534883423,
          "durationTicks": 28,
          "midi": 71,
          "name": "B4",
          "ticks": 3754,
          "time": 43.651162790697676,
          "velocity": 0.18110236220472442
        },
        {
          "duration": 0.2906976744186025,
          "durationTicks": 25,
          "midi": 90,
          "name": "F#6",
          "ticks": 3754,
          "time": 43.651162790697676,
          "velocity": 0.18110236220472442
        },
        {
          "duration": 0.023255813953483084,
          "durationTicks": 2,
          "midi": 40,
          "name": "E2",
          "ticks": 3756,
          "time": 43.674418604651166,
          "velocity": 0.3464566929133858
        },
        {
          "duration": 0.03488372093023173,
          "durationTicks": 3,
          "midi": 55,
          "name": "G3",
          "ticks": 3762,
          "time": 43.74418604651163,
          "velocity": 0.16535433070866143
        },
        {
          "duration": 0.058139534883714816,
          "durationTicks": 5,
          "midi": 50,
          "name": "D3",
          "ticks": 3764,
          "time": 43.76744186046512,
          "velocity": 0.2283464566929134
        },
        {
          "duration": 0.3372093023255829,
          "durationTicks": 29,
          "midi": 57,
          "name": "A3",
          "ticks": 3766,
          "time": 43.7906976744186,
          "velocity": 0.25984251968503935
        },
        {
          "duration": 0.046511627906973274,
          "durationTicks": 4,
          "midi": 38,
          "name": "D2",
          "ticks": 3773,
          "time": 43.872093023255815,
          "velocity": 0.29133858267716534
        },
        {
          "duration": 0.09302325581395365,
          "durationTicks": 8,
          "midi": 38,
          "name": "D2",
          "ticks": 3778,
          "time": 43.93023255813954,
          "velocity": 0.30708661417322836
        },
        {
          "duration": 0.02325581395349019,
          "durationTicks": 2,
          "midi": 38,
          "name": "D2",
          "ticks": 3787,
          "time": 44.03488372093023,
          "velocity": 0.28346456692913385
        },
        {
          "duration": 0.06976744186046346,
          "durationTicks": 6,
          "midi": 66,
          "name": "F#4",
          "ticks": 3787,
          "time": 44.03488372093023,
          "velocity": 0.10236220472440945
        },
        {
          "duration": 0.08139534883721211,
          "durationTicks": 7,
          "midi": 81,
          "name": "A5",
          "ticks": 3787,
          "time": 44.03488372093023,
          "velocity": 0.14173228346456693
        },
        {
          "duration": 0.04651162790698038,
          "durationTicks": 4,
          "midi": 88,
          "name": "E6",
          "ticks": 3788,
          "time": 44.04651162790697,
          "velocity": 0.09448818897637795
        },
        {
          "duration": 0.06976744186046346,
          "durationTicks": 6,
          "midi": 38,
          "name": "D2",
          "ticks": 3790,
          "time": 44.06976744186046,
          "velocity": 0.29133858267716534
        },
        {
          "duration": 0.1046511627906952,
          "durationTicks": 9,
          "midi": 66,
          "name": "F#4",
          "ticks": 3795,
          "time": 44.127906976744185,
          "velocity": 0.16535433070866143
        },
        {
          "duration": 0.03488372093023173,
          "durationTicks": 3,
          "midi": 38,
          "name": "D2",
          "ticks": 3797,
          "time": 44.151162790697676,
          "velocity": 0.29133858267716534
        },
        {
          "duration": 0.05813953488372192,
          "durationTicks": 5,
          "midi": 57,
          "name": "A3",
          "ticks": 3797,
          "time": 44.151162790697676,
          "velocity": 0.11811023622047244
        },
        {
          "duration": 0.09302325581395365,
          "durationTicks": 8,
          "midi": 72,
          "name": "C5",
          "ticks": 3798,
          "time": 44.16279069767442,
          "velocity": 0.11811023622047244
        },
        {
          "duration": 0.12790697674418539,
          "durationTicks": 11,
          "midi": 61,
          "name": "C#4",
          "ticks": 3803,
          "time": 44.22093023255814,
          "velocity": 0.1732283464566929
        },
        {
          "duration": 0.03488372093023884,
          "durationTicks": 3,
          "midi": 41,
          "name": "F2",
          "ticks": 3804,
          "time": 44.23255813953488,
          "velocity": 0.3779527559055118
        },
        {
          "duration": 0.16279069767442422,
          "durationTicks": 14,
          "midi": 67,
          "name": "G4",
          "ticks": 3804,
          "time": 44.23255813953488,
          "velocity": 0.25196850393700787
        },
        {
          "duration": 0.09302325581395365,
          "durationTicks": 8,
          "midi": 42,
          "name": "F#2",
          "ticks": 3807,
          "time": 44.26744186046512,
          "velocity": 0.3543307086614173
        },
        {
          "duration": 0.046511627906973274,
          "durationTicks": 4,
          "midi": 41,
          "name": "F2",
          "ticks": 3815,
          "time": 44.36046511627907,
          "velocity": 0.30708661417322836
        },
        {
          "duration": 0.03488372093023173,
          "durationTicks": 3,
          "midi": 55,
          "name": "G3",
          "ticks": 3817,
          "time": 44.383720930232556,
          "velocity": 0.07086614173228346
        },
        {
          "duration": 0.03488372093023173,
          "durationTicks": 3,
          "midi": 42,
          "name": "F#2",
          "ticks": 3821,
          "time": 44.43023255813954,
          "velocity": 0.1889763779527559
        },
        {
          "duration": 0.03488372093023173,
          "durationTicks": 3,
          "midi": 70,
          "name": "A#4",
          "ticks": 3822,
          "time": 44.44186046511628,
          "velocity": 0.2047244094488189
        },
        {
          "duration": 0.023255813953483084,
          "durationTicks": 2,
          "midi": 63,
          "name": "D#4",
          "ticks": 3823,
          "time": 44.45348837209303,
          "velocity": 0.2283464566929134
        },
        {
          "duration": 0.02325581395349019,
          "durationTicks": 2,
          "midi": 56,
          "name": "G#3",
          "ticks": 3824,
          "time": 44.46511627906977,
          "velocity": 0.25196850393700787
        },
        {
          "duration": 0.02325581395349019,
          "durationTicks": 2,
          "midi": 44,
          "name": "G#2",
          "ticks": 3825,
          "time": 44.47674418604651,
          "velocity": 0.3937007874015748
        },
        {
          "duration": 0.03488372093023173,
          "durationTicks": 3,
          "midi": 64,
          "name": "E4",
          "ticks": 3825,
          "time": 44.47674418604651,
          "velocity": 0.1889763779527559
        },
        {
          "duration": 0.09302325581395365,
          "durationTicks": 8,
          "midi": 57,
          "name": "A3",
          "ticks": 3826,
          "time": 44.48837209302326,
          "velocity": 0.2125984251968504
        },
        {
          "duration": 0.11627906976743674,
          "durationTicks": 10,
          "midi": 78,
          "name": "F#5",
          "ticks": 3826,
          "time": 44.48837209302326,
          "velocity": 0.1889763779527559
        },
        {
          "duration": 0.09302325581395365,
          "durationTicks": 8,
          "midi": 45,
          "name": "A2",
          "ticks": 3827,
          "time": 44.5,
          "velocity": 0.3543307086614173
        },
        {
          "duration": 0.05813953488372192,
          "durationTicks": 5,
          "midi": 66,
          "name": "F#4",
          "ticks": 3827,
          "time": 44.5,
          "velocity": 0.11811023622047244
        },
        {
          "duration": 0.02325581395349019,
          "durationTicks": 2,
          "midi": 44,
          "name": "G#2",
          "ticks": 3835,
          "time": 44.593023255813954,
          "velocity": 0.33070866141732286
        },
        {
          "duration": 0.2325581395348877,
          "durationTicks": 20,
          "midi": 67,
          "name": "G4",
          "ticks": 3844,
          "time": 44.69767441860465,
          "velocity": 0.2125984251968504
        },
        {
          "duration": 0.12790697674418539,
          "durationTicks": 11,
          "midi": 74,
          "name": "D5",
          "ticks": 3844,
          "time": 44.69767441860465,
          "velocity": 0.15748031496062992
        },
        {
          "duration": 0.22093023255813904,
          "durationTicks": 19,
          "midi": 55,
          "name": "G3",
          "ticks": 3846,
          "time": 44.72093023255814,
          "velocity": 0.2125984251968504
        },
        {
          "duration": 0.06976744186047057,
          "durationTicks": 6,
          "midi": 43,
          "name": "G2",
          "ticks": 3847,
          "time": 44.73255813953488,
          "velocity": 0.3700787401574803
        },
        {
          "duration": 0.05813953488372192,
          "durationTicks": 5,
          "midi": 62,
          "name": "D4",
          "ticks": 3848,
          "time": 44.74418604651163,
          "velocity": 0.10236220472440945
        },
        {
          "duration": 0.1046511627906952,
          "durationTicks": 9,
          "midi": 43,
          "name": "G2",
          "ticks": 3854,
          "time": 44.81395348837209,
          "velocity": 0.30708661417322836
        },
        {
          "duration": 0.06976744186047057,
          "durationTicks": 6,
          "midi": 64,
          "name": "E4",
          "ticks": 3855,
          "time": 44.825581395348834,
          "velocity": 0.18110236220472442
        },
        {
          "duration": 0.03488372093023884,
          "durationTicks": 3,
          "midi": 42,
          "name": "F#2",
          "ticks": 3863,
          "time": 44.91860465116279,
          "velocity": 0.30708661417322836
        },
        {
          "duration": 0.03488372093023173,
          "durationTicks": 3,
          "midi": 66,
          "name": "F#4",
          "ticks": 3864,
          "time": 44.93023255813954,
          "velocity": 0.14173228346456693
        },
        {
          "duration": 0.05813953488372192,
          "durationTicks": 5,
          "midi": 50,
          "name": "D3",
          "ticks": 3867,
          "time": 44.96511627906977,
          "velocity": 0.2440944881889764
        },
        {
          "duration": 0.05813953488372192,
          "durationTicks": 5,
          "midi": 38,
          "name": "D2",
          "ticks": 3868,
          "time": 44.97674418604651,
          "velocity": 0.31496062992125984
        },
        {
          "duration": 0.046511627906973274,
          "durationTicks": 4,
          "midi": 57,
          "name": "A3",
          "ticks": 3869,
          "time": 44.98837209302326,
          "velocity": 0.15748031496062992
        },
        {
          "duration": 0.03488372093023173,
          "durationTicks": 3,
          "midi": 49,
          "name": "C#3",
          "ticks": 3872,
          "time": 45.02325581395349,
          "velocity": 0.2283464566929134
        },
        {
          "duration": 0.02325581395349019,
          "durationTicks": 2,
          "midi": 37,
          "name": "C#2",
          "ticks": 3873,
          "time": 45.03488372093023,
          "velocity": 0.28346456692913385
        },
        {
          "duration": 0.08139534883721211,
          "durationTicks": 7,
          "midi": 67,
          "name": "G4",
          "ticks": 3874,
          "time": 45.04651162790697,
          "velocity": 0.14173228346456693
        },
        {
          "duration": 0.03488372093023173,
          "durationTicks": 3,
          "midi": 101,
          "name": "F7",
          "ticks": 3875,
          "time": 45.05813953488372,
          "velocity": 0.07086614173228346
        },
        {
          "duration": 0.046511627906973274,
          "durationTicks": 4,
          "midi": 55,
          "name": "G3",
          "ticks": 3877,
          "time": 45.08139534883721,
          "velocity": 0.16535433070866143
        },
        {
          "duration": 0.03488372093023884,
          "durationTicks": 3,
          "midi": 55,
          "name": "G3",
          "ticks": 3882,
          "time": 45.13953488372093,
          "velocity": 0.2125984251968504
        },
        {
          "duration": 0.05813953488372192,
          "durationTicks": 5,
          "midi": 63,
          "name": "D#4",
          "ticks": 3884,
          "time": 45.16279069767442,
          "velocity": 0.12598425196850394
        },
        {
          "duration": 0.04651162790698038,
          "durationTicks": 4,
          "midi": 81,
          "name": "A5",
          "ticks": 3884,
          "time": 45.16279069767442,
          "velocity": 0.14960629921259844
        },
        {
          "duration": 0.023255813953483084,
          "durationTicks": 2,
          "midi": 44,
          "name": "G#2",
          "ticks": 3885,
          "time": 45.174418604651166,
          "velocity": 0.3779527559055118
        },
        {
          "duration": 0.03488372093023173,
          "durationTicks": 3,
          "midi": 88,
          "name": "E6",
          "ticks": 3885,
          "time": 45.174418604651166,
          "velocity": 0.10236220472440945
        },
        {
          "duration": 0.08139534883721211,
          "durationTicks": 7,
          "midi": 54,
          "name": "F#3",
          "ticks": 3887,
          "time": 45.19767441860465,
          "velocity": 0.1732283464566929
        },
        {
          "duration": 0.06976744186047057,
          "durationTicks": 6,
          "midi": 59,
          "name": "B3",
          "ticks": 3887,
          "time": 45.19767441860465,
          "velocity": 0.09448818897637795
        },
        {
          "duration": 0.06976744186046346,
          "durationTicks": 6,
          "midi": 35,
          "name": "B1",
          "ticks": 3889,
          "time": 45.22093023255814,
          "velocity": 0.25196850393700787
        },
        {
          "duration": 0.11627906976744384,
          "durationTicks": 10,
          "midi": 71,
          "name": "B4",
          "ticks": 3894,
          "time": 45.27906976744186,
          "velocity": 0.16535433070866143
        },
        {
          "duration": 0.09302325581395365,
          "durationTicks": 8,
          "midi": 90,
          "name": "F#6",
          "ticks": 3895,
          "time": 45.2906976744186,
          "velocity": 0.15748031496062992
        },
        {
          "duration": 0.05813953488372192,
          "durationTicks": 5,
          "midi": 57,
          "name": "A3",
          "ticks": 3905,
          "time": 45.406976744186046,
          "velocity": 0.2755905511811024
        },
        {
          "duration": 0.03488372093023173,
          "durationTicks": 3,
          "midi": 36,
          "name": "C2",
          "ticks": 3907,
          "time": 45.43023255813954,
          "velocity": 0.3543307086614173
        },
        {
          "duration": 0.11627906976743674,
          "durationTicks": 10,
          "midi": 50,
          "name": "D3",
          "ticks": 3907,
          "time": 45.43023255813954,
          "velocity": 0.29133858267716534
        },
        {
          "duration": 0.06976744186046346,
          "durationTicks": 6,
          "midi": 86,
          "name": "D6",
          "ticks": 3907,
          "time": 45.43023255813954,
          "velocity": 0.13385826771653545
        },
        {
          "duration": 0.05813953488372192,
          "durationTicks": 5,
          "midi": 67,
          "name": "G4",
          "ticks": 3908,
          "time": 45.44186046511628,
          "velocity": 0.10236220472440945
        },
        {
          "duration": 0.09302325581395365,
          "durationTicks": 8,
          "midi": 38,
          "name": "D2",
          "ticks": 3910,
          "time": 45.46511627906977,
          "velocity": 0.3228346456692913
        },
        {
          "duration": 0.09302325581395365,
          "durationTicks": 8,
          "midi": 57,
          "name": "A3",
          "ticks": 3911,
          "time": 45.47674418604651,
          "velocity": 0.1968503937007874
        },
        {
          "duration": 0.1046511627906952,
          "durationTicks": 9,
          "midi": 64,
          "name": "E4",
          "ticks": 3915,
          "time": 45.52325581395349,
          "velocity": 0.10236220472440945
        },
        {
          "duration": 0.02325581395349019,
          "durationTicks": 2,
          "midi": 37,
          "name": "C#2",
          "ticks": 3918,
          "time": 45.55813953488372,
          "velocity": 0.28346456692913385
        },
        {
          "duration": 0.23255813953488058,
          "durationTicks": 20,
          "midi": 67,
          "name": "G4",
          "ticks": 3918,
          "time": 45.55813953488372,
          "velocity": 0.13385826771653545
        },
        {
          "duration": 0.48837209302325846,
          "durationTicks": 42,
          "midi": 60,
          "name": "C4",
          "ticks": 3924,
          "time": 45.627906976744185,
          "velocity": 0.2283464566929134
        },
        {
          "duration": 0.15116279069767558,
          "durationTicks": 13,
          "midi": 81,
          "name": "A5",
          "ticks": 3924,
          "time": 45.627906976744185,
          "velocity": 0.07086614173228346
        },
        {
          "duration": 0.03488372093023173,
          "durationTicks": 3,
          "midi": 48,
          "name": "C3",
          "ticks": 3929,
          "time": 45.68604651162791,
          "velocity": 0.18110236220472442
        },
        {
          "duration": 0.3372093023255829,
          "durationTicks": 29,
          "midi": 55,
          "name": "G3",
          "ticks": 3929,
          "time": 45.68604651162791,
          "velocity": 0.16535433070866143
        },
        {
          "duration": 0.3953488372092977,
          "durationTicks": 34,
          "midi": 36,
          "name": "C2",
          "ticks": 3931,
          "time": 45.7093023255814,
          "velocity": 0.28346456692913385
        },
        {
          "duration": 0.1046511627906952,
          "durationTicks": 9,
          "midi": 101,
          "name": "F7",
          "ticks": 3944,
          "time": 45.86046511627907,
          "velocity": 0.10236220472440945
        },
        {
          "duration": 0.23255813953488058,
          "durationTicks": 20,
          "midi": 67,
          "name": "G4",
          "ticks": 3945,
          "time": 45.872093023255815,
          "velocity": 0.2440944881889764
        },
        {
          "duration": 0.03488372093023173,
          "durationTicks": 3,
          "midi": 52,
          "name": "E3",
          "ticks": 3959,
          "time": 46.03488372093023,
          "velocity": 0.15748031496062992
        },
        {
          "duration": 0.09302325581395365,
          "durationTicks": 8,
          "midi": 66,
          "name": "F#4",
          "ticks": 3965,
          "time": 46.104651162790695,
          "velocity": 0.15748031496062992
        },
        {
          "duration": 0.17441860465115866,
          "durationTicks": 15,
          "midi": 59,
          "name": "B3",
          "ticks": 3966,
          "time": 46.116279069767444,
          "velocity": 0.13385826771653545
        },
        {
          "duration": 0.02325581395349019,
          "durationTicks": 2,
          "midi": 40,
          "name": "E2",
          "ticks": 3967,
          "time": 46.127906976744185,
          "velocity": 0.3937007874015748
        },
        {
          "duration": 0.12790697674418539,
          "durationTicks": 11,
          "midi": 78,
          "name": "F#5",
          "ticks": 3967,
          "time": 46.127906976744185,
          "velocity": 0.16535433070866143
        },
        {
          "duration": 0.09302325581395365,
          "durationTicks": 8,
          "midi": 40,
          "name": "E2",
          "ticks": 3970,
          "time": 46.16279069767442,
          "velocity": 0.3228346456692913
        },
        {
          "duration": 0.02325581395349019,
          "durationTicks": 2,
          "midi": 39,
          "name": "D#2",
          "ticks": 3978,
          "time": 46.25581395348837,
          "velocity": 0.2992125984251969
        },
        {
          "duration": 0.03488372093023173,
          "durationTicks": 3,
          "midi": 63,
          "name": "D#4",
          "ticks": 3983,
          "time": 46.31395348837209,
          "velocity": 0.13385826771653545
        },
        {
          "duration": 0.15116279069767558,
          "durationTicks": 13,
          "midi": 67,
          "name": "G4",
          "ticks": 3983,
          "time": 46.31395348837209,
          "velocity": 0.18110236220472442
        },
        {
          "duration": 0.04651162790698038,
          "durationTicks": 4,
          "midi": 70,
          "name": "A#4",
          "ticks": 3983,
          "time": 46.31395348837209,
          "velocity": 0.1889763779527559
        },
        {
          "duration": 0.1279069767441925,
          "durationTicks": 11,
          "midi": 76,
          "name": "E5",
          "ticks": 3984,
          "time": 46.325581395348834,
          "velocity": 0.14173228346456693
        },
        {
          "duration": 0.06976744186046346,
          "durationTicks": 6,
          "midi": 64,
          "name": "E4",
          "ticks": 3986,
          "time": 46.348837209302324,
          "velocity": 0.18110236220472442
        },
        {
          "duration": 0.03488372093023173,
          "durationTicks": 3,
          "midi": 55,
          "name": "G3",
          "ticks": 3987,
          "time": 46.36046511627907,
          "velocity": 0.11811023622047244
        },
        {
          "duration": 0.12790697674418539,
          "durationTicks": 11,
          "midi": 43,
          "name": "G2",
          "ticks": 3991,
          "time": 46.406976744186046,
          "velocity": 0.33070866141732286
        },
        {
          "duration": 0.09302325581395365,
          "durationTicks": 8,
          "midi": 72,
          "name": "C5",
          "ticks": 4004,
          "time": 46.55813953488372,
          "velocity": 0.18110236220472442
        },
        {
          "duration": 0.03488372093023173,
          "durationTicks": 3,
          "midi": 44,
          "name": "G#2",
          "ticks": 4006,
          "time": 46.58139534883721,
          "velocity": 0.4094488188976378
        },
        {
          "duration": 0.058139534883714816,
          "durationTicks": 5,
          "midi": 52,
          "name": "E3",
          "ticks": 4006,
          "time": 46.58139534883721,
          "velocity": 0.1968503937007874
        },
        {
          "duration": 0.2093023255813975,
          "durationTicks": 18,
          "midi": 57,
          "name": "A3",
          "ticks": 4007,
          "time": 46.593023255813954,
          "velocity": 0.1968503937007874
        },
        {
          "duration": 0.023255813953483084,
          "durationTicks": 2,
          "midi": 32,
          "name": "G#1",
          "ticks": 4009,
          "time": 46.616279069767444,
          "velocity": 0.2677165354330709
        },
        {
          "duration": 0.4186046511627879,
          "durationTicks": 36,
          "midi": 45,
          "name": "A2",
          "ticks": 4009,
          "time": 46.616279069767444,
          "velocity": 0.4015748031496063
        },
        {
          "duration": 0.046511627906973274,
          "durationTicks": 4,
          "midi": 52,
          "name": "E3",
          "ticks": 4012,
          "time": 46.651162790697676,
          "velocity": 0.1968503937007874
        },
        {
          "duration": 0.03488372093023173,
          "durationTicks": 3,
          "midi": 33,
          "name": "A1",
          "ticks": 4013,
          "time": 46.66279069767442,
          "velocity": 0.23622047244094488
        },
        {
          "duration": 0.06976744186046346,
          "durationTicks": 6,
          "midi": 74,
          "name": "D5",
          "ticks": 4015,
          "time": 46.68604651162791,
          "velocity": 0.13385826771653545
        },
        {
          "duration": 0.05813953488372192,
          "durationTicks": 5,
          "midi": 62,
          "name": "D4",
          "ticks": 4016,
          "time": 46.69767441860465,
          "velocity": 0.08661417322834646
        },
        {
          "duration": 0.16279069767441712,
          "durationTicks": 14,
          "midi": 52,
          "name": "E3",
          "ticks": 4017,
          "time": 46.7093023255814,
          "velocity": 0.23622047244094488
        },
        {
          "duration": 0.03488372093023173,
          "durationTicks": 3,
          "midi": 33,
          "name": "A1",
          "ticks": 4020,
          "time": 46.74418604651163,
          "velocity": 0.2283464566929134
        },
        {
          "duration": 0.03488372093023173,
          "durationTicks": 3,
          "midi": 52,
          "name": "E3",
          "ticks": 4032,
          "time": 46.883720930232556,
          "velocity": 0.2047244094488189
        },
        {
          "duration": 0.03488372093023884,
          "durationTicks": 3,
          "midi": 66,
          "name": "F#4",
          "ticks": 4035,
          "time": 46.91860465116279,
          "velocity": 0.12598425196850394
        },
        {
          "duration": 0.12790697674418539,
          "durationTicks": 11,
          "midi": 78,
          "name": "F#5",
          "ticks": 4035,
          "time": 46.91860465116279,
          "velocity": 0.14960629921259844
        },
        {
          "duration": 0.06976744186047057,
          "durationTicks": 6,
          "midi": 97,
          "name": "C#7",
          "ticks": 4035,
          "time": 46.91860465116279,
          "velocity": 0.11023622047244094
        },
        {
          "duration": 0.05813953488372192,
          "durationTicks": 5,
          "midi": 33,
          "name": "A1",
          "ticks": 4037,
          "time": 46.94186046511628,
          "velocity": 0.2204724409448819
        },
        {
          "duration": 0.13953488372092693,
          "durationTicks": 12,
          "midi": 67,
          "name": "G4",
          "ticks": 4038,
          "time": 46.95348837209303,
          "velocity": 0.14960629921259844
        },
        {
          "duration": 0.08139534883721211,
          "durationTicks": 7,
          "midi": 52,
          "name": "E3",
          "ticks": 4046,
          "time": 47.04651162790697,
          "velocity": 0.2440944881889764
        },
        {
          "duration": 0.15116279069767558,
          "durationTicks": 13,
          "midi": 40,
          "name": "E2",
          "ticks": 4050,
          "time": 47.093023255813954,
          "velocity": 0.3464566929133858
        },
        {
          "duration": 0.05813953488372192,
          "durationTicks": 5,
          "midi": 59,
          "name": "B3",
          "ticks": 4052,
          "time": 47.116279069767444,
          "velocity": 0.13385826771653545
        },
        {
          "duration": 0.06976744186046346,
          "durationTicks": 6,
          "midi": 81,
          "name": "A5",
          "ticks": 4055,
          "time": 47.151162790697676,
          "velocity": 0.07086614173228346
        },
        {
          "duration": 0.03488372093023173,
          "durationTicks": 3,
          "midi": 64,
          "name": "E4",
          "ticks": 4063,
          "time": 47.24418604651163,
          "velocity": 0.1889763779527559
        },
        {
          "duration": 0.046511627906973274,
          "durationTicks": 4,
          "midi": 67,
          "name": "G4",
          "ticks": 4063,
          "time": 47.24418604651163,
          "velocity": 0.11811023622047244
        },
        {
          "duration": 0.03488372093023173,
          "durationTicks": 3,
          "midi": 70,
          "name": "A#4",
          "ticks": 4063,
          "time": 47.24418604651163,
          "velocity": 0.14173228346456693
        },
        {
          "duration": 0.023255813953483084,
          "durationTicks": 2,
          "midi": 44,
          "name": "G#2",
          "ticks": 4065,
          "time": 47.26744186046512,
          "velocity": 0.30708661417322836
        },
        {
          "duration": 0.05813953488372192,
          "durationTicks": 5,
          "midi": 34,
          "name": "A#1",
          "ticks": 4069,
          "time": 47.31395348837209,
          "velocity": 0.2677165354330709
        },
        {
          "duration": 0.06976744186046346,
          "durationTicks": 6,
          "midi": 45,
          "name": "A2",
          "ticks": 4069,
          "time": 47.31395348837209,
          "velocity": 0.30708661417322836
        },
        {
          "duration": 0.03488372093023173,
          "durationTicks": 3,
          "midi": 46,
          "name": "A#2",
          "ticks": 4075,
          "time": 47.383720930232556,
          "velocity": 0.1968503937007874
        },
        {
          "duration": 0.25581395348837077,
          "durationTicks": 22,
          "midi": 67,
          "name": "G4",
          "ticks": 4075,
          "time": 47.383720930232556,
          "velocity": 0.2204724409448819
        },
        {
          "duration": 0.023255813953483084,
          "durationTicks": 2,
          "midi": 33,
          "name": "A1",
          "ticks": 4076,
          "time": 47.395348837209305,
          "velocity": 0.23622047244094488
        },
        {
          "duration": 0.02325581395349019,
          "durationTicks": 2,
          "midi": 34,
          "name": "A#1",
          "ticks": 4078,
          "time": 47.41860465116279,
          "velocity": 0.2440944881889764
        },
        {
          "duration": 0.023255813953483084,
          "durationTicks": 2,
          "midi": 39,
          "name": "D#2",
          "ticks": 4084,
          "time": 47.48837209302326,
          "velocity": 0.31496062992125984
        },
        {
          "duration": 0.02325581395349019,
          "durationTicks": 2,
          "midi": 45,
          "name": "A2",
          "ticks": 4086,
          "time": 47.51162790697674,
          "velocity": 0.4015748031496063
        },
        {
          "duration": 0.023255813953483084,
          "durationTicks": 2,
          "midi": 33,
          "name": "A1",
          "ticks": 4087,
          "time": 47.52325581395349,
          "velocity": 0.3228346456692913
        },
        {
          "duration": 0.05813953488372192,
          "durationTicks": 5,
          "midi": 54,
          "name": "F#3",
          "ticks": 4088,
          "time": 47.53488372093023,
          "velocity": 0.2125984251968504
        },
        {
          "duration": 0.19767441860465595,
          "durationTicks": 17,
          "midi": 47,
          "name": "B2",
          "ticks": 4089,
          "time": 47.54651162790697,
          "velocity": 0.31496062992125984
        },
        {
          "duration": 0.02325581395349019,
          "durationTicks": 2,
          "midi": 35,
          "name": "B1",
          "ticks": 4090,
          "time": 47.55813953488372,
          "velocity": 0.2992125984251969
        },
        {
          "duration": 0.08139534883721211,
          "durationTicks": 7,
          "midi": 35,
          "name": "B1",
          "ticks": 4096,
          "time": 47.627906976744185,
          "velocity": 0.29133858267716534
        },
        {
          "duration": 0.08139534883721211,
          "durationTicks": 7,
          "midi": 54,
          "name": "F#3",
          "ticks": 4105,
          "time": 47.73255813953488,
          "velocity": 0.12598425196850394
        },
        {
          "duration": 0.13953488372093403,
          "durationTicks": 12,
          "midi": 97,
          "name": "C#7",
          "ticks": 4105,
          "time": 47.73255813953488,
          "velocity": 0.13385826771653545
        },
        {
          "duration": 0.16279069767441712,
          "durationTicks": 14,
          "midi": 78,
          "name": "F#5",
          "ticks": 4106,
          "time": 47.74418604651163,
          "velocity": 0.16535433070866143
        },
        {
          "duration": 0.02325581395349019,
          "durationTicks": 2,
          "midi": 35,
          "name": "B1",
          "ticks": 4107,
          "time": 47.75581395348837,
          "velocity": 0.28346456692913385
        },
        {
          "duration": 0.02325581395349019,
          "durationTicks": 2,
          "midi": 35,
          "name": "B1",
          "ticks": 4110,
          "time": 47.7906976744186,
          "velocity": 0.2677165354330709
        },
        {
          "duration": 0.04651162790698038,
          "durationTicks": 4,
          "midi": 67,
          "name": "G4",
          "ticks": 4115,
          "time": 47.848837209302324,
          "velocity": 0.11023622047244094
        },
        {
          "duration": 0.023255813953483084,
          "durationTicks": 2,
          "midi": 45,
          "name": "A2",
          "ticks": 4116,
          "time": 47.86046511627907,
          "velocity": 0.33070866141732286
        },
        {
          "duration": 0.023255813953483084,
          "durationTicks": 2,
          "midi": 53,
          "name": "F3",
          "ticks": 4116,
          "time": 47.86046511627907,
          "velocity": 0.2677165354330709
        },
        {
          "duration": 0.04651162790698038,
          "durationTicks": 4,
          "midi": 54,
          "name": "F#3",
          "ticks": 4118,
          "time": 47.883720930232556,
          "velocity": 0.14173228346456693
        },
        {
          "duration": 0.02325581395349019,
          "durationTicks": 2,
          "midi": 44,
          "name": "G#2",
          "ticks": 4120,
          "time": 47.906976744186046,
          "velocity": 0.2283464566929134
        },
        {
          "duration": 0.03488372093023173,
          "durationTicks": 3,
          "midi": 53,
          "name": "F3",
          "ticks": 4124,
          "time": 47.95348837209303,
          "velocity": 0.29133858267716534
        },
        {
          "duration": 0.09302325581394655,
          "durationTicks": 8,
          "midi": 61,
          "name": "C#4",
          "ticks": 4124,
          "time": 47.95348837209303,
          "velocity": 0.11811023622047244
        },
        {
          "duration": 0.1046511627906952,
          "durationTicks": 9,
          "midi": 64,
          "name": "E4",
          "ticks": 4125,
          "time": 47.96511627906977,
          "velocity": 0.14960629921259844
        },
        {
          "duration": 0.02325581395349019,
          "durationTicks": 2,
          "midi": 40,
          "name": "E2",
          "ticks": 4126,
          "time": 47.97674418604651,
          "velocity": 0.3779527559055118
        },
        {
          "duration": 0.1046511627906952,
          "durationTicks": 9,
          "midi": 54,
          "name": "F#3",
          "ticks": 4127,
          "time": 47.98837209302326,
          "velocity": 0.18110236220472442
        },
        {
          "duration": 0.19767441860464885,
          "durationTicks": 17,
          "midi": 42,
          "name": "F#2",
          "ticks": 4128,
          "time": 48,
          "velocity": 0.3700787401574803
        },
        {
          "duration": 0.03488372093023173,
          "durationTicks": 3,
          "midi": 61,
          "name": "C#4",
          "ticks": 4135,
          "time": 48.08139534883721,
          "velocity": 0.09448818897637795
        },
        {
          "duration": 0.03488372093023173,
          "durationTicks": 3,
          "midi": 70,
          "name": "A#4",
          "ticks": 4143,
          "time": 48.174418604651166,
          "velocity": 0.1732283464566929
        },
        {
          "duration": 0.09302325581395365,
          "durationTicks": 8,
          "midi": 75,
          "name": "D#5",
          "ticks": 4144,
          "time": 48.18604651162791,
          "velocity": 0.2047244094488189
        },
        {
          "duration": 0.046511627906973274,
          "durationTicks": 4,
          "midi": 63,
          "name": "D#4",
          "ticks": 4146,
          "time": 48.2093023255814,
          "velocity": 0.10236220472440945
        },
        {
          "duration": 0.04651162790698038,
          "durationTicks": 4,
          "midi": 47,
          "name": "B2",
          "ticks": 4147,
          "time": 48.22093023255814,
          "velocity": 0.2125984251968504
        },
        {
          "duration": 0.03488372093023173,
          "durationTicks": 3,
          "midi": 57,
          "name": "A3",
          "ticks": 4147,
          "time": 48.22093023255814,
          "velocity": 0.25196850393700787
        },
        {
          "duration": 0.023255813953483084,
          "durationTicks": 2,
          "midi": 46,
          "name": "A#2",
          "ticks": 4151,
          "time": 48.26744186046512,
          "velocity": 0.2440944881889764
        },
        {
          "duration": 0.02325581395349019,
          "durationTicks": 2,
          "midi": 45,
          "name": "A2",
          "ticks": 4153,
          "time": 48.2906976744186,
          "velocity": 0.25196850393700787
        },
        {
          "duration": 0.03488372093023173,
          "durationTicks": 3,
          "midi": 62,
          "name": "D4",
          "ticks": 4154,
          "time": 48.30232558139535,
          "velocity": 0.14960629921259844
        },
        {
          "duration": 0.03488372093023173,
          "durationTicks": 3,
          "midi": 37,
          "name": "C#2",
          "ticks": 4157,
          "time": 48.33720930232558,
          "velocity": 0.3700787401574803
        },
        {
          "duration": 0.03488372093023884,
          "durationTicks": 3,
          "midi": 51,
          "name": "D#3",
          "ticks": 4164,
          "time": 48.41860465116279,
          "velocity": 0.3228346456692913
        },
        {
          "duration": 0.34883720930233153,
          "durationTicks": 30,
          "midi": 76,
          "name": "E5",
          "ticks": 4164,
          "time": 48.41860465116279,
          "velocity": 0.14960629921259844
        },
        {
          "duration": 0.2674418604651123,
          "durationTicks": 23,
          "midi": 52,
          "name": "E3",
          "ticks": 4167,
          "time": 48.45348837209303,
          "velocity": 0.31496062992125984
        },
        {
          "duration": 0.16279069767441712,
          "durationTicks": 14,
          "midi": 40,
          "name": "E2",
          "ticks": 4170,
          "time": 48.48837209302326,
          "velocity": 0.33858267716535434
        },
        {
          "duration": 0.27906976744186096,
          "durationTicks": 24,
          "midi": 59,
          "name": "B3",
          "ticks": 4171,
          "time": 48.5,
          "velocity": 0.1889763779527559
        },
        {
          "duration": 0.03488372093023173,
          "durationTicks": 3,
          "midi": 41,
          "name": "F2",
          "ticks": 4190,
          "time": 48.72093023255814,
          "velocity": 0.3228346456692913
        },
        {
          "duration": 0.03488372093023173,
          "durationTicks": 3,
          "midi": 67,
          "name": "G4",
          "ticks": 4195,
          "time": 48.77906976744186,
          "velocity": 0.12598425196850394
        },
        {
          "duration": 0.1046511627907023,
          "durationTicks": 9,
          "midi": 52,
          "name": "E3",
          "ticks": 4196,
          "time": 48.7906976744186,
          "velocity": 0.25984251968503935
        },
        {
          "duration": 0.023255813953483084,
          "durationTicks": 2,
          "midi": 38,
          "name": "D2",
          "ticks": 4197,
          "time": 48.80232558139535,
          "velocity": 0.3858267716535433
        },
        {
          "duration": 0.05813953488372192,
          "durationTicks": 5,
          "midi": 40,
          "name": "E2",
          "ticks": 4200,
          "time": 48.83720930232558,
          "velocity": 0.33858267716535434
        },
        {
          "duration": 0.09302325581395365,
          "durationTicks": 8,
          "midi": 76,
          "name": "E5",
          "ticks": 4204,
          "time": 48.883720930232556,
          "velocity": 0.14173228346456693
        },
        {
          "duration": 0.03488372093023173,
          "durationTicks": 3,
          "midi": 41,
          "name": "F2",
          "ticks": 4205,
          "time": 48.895348837209305,
          "velocity": 0.30708661417322836
        },
        {
          "duration": 0.06976744186046346,
          "durationTicks": 6,
          "midi": 64,
          "name": "E4",
          "ticks": 4206,
          "time": 48.906976744186046,
          "velocity": 0.1889763779527559
        },
        {
          "duration": 0.046511627906973274,
          "durationTicks": 4,
          "midi": 52,
          "name": "E3",
          "ticks": 4208,
          "time": 48.93023255813954,
          "velocity": 0.15748031496062992
        },
        {
          "duration": 0.03488372093023173,
          "durationTicks": 3,
          "midi": 37,
          "name": "C#2",
          "ticks": 4212,
          "time": 48.97674418604651,
          "velocity": 0.28346456692913385
        },
        {
          "duration": 0.2093023255813904,
          "durationTicks": 18,
          "midi": 67,
          "name": "G4",
          "ticks": 4216,
          "time": 49.02325581395349,
          "velocity": 0.2283464566929134
        },
        {
          "duration": 0.03488372093023173,
          "durationTicks": 3,
          "midi": 85,
          "name": "C#6",
          "ticks": 4217,
          "time": 49.03488372093023,
          "velocity": 0.07874015748031496
        },
        {
          "duration": 0.08139534883721211,
          "durationTicks": 7,
          "midi": 78,
          "name": "F#5",
          "ticks": 4218,
          "time": 49.04651162790697,
          "velocity": 0.13385826771653545
        },
        {
          "duration": 0.02325581395349019,
          "durationTicks": 2,
          "midi": 45,
          "name": "A2",
          "ticks": 4225,
          "time": 49.127906976744185,
          "velocity": 0.3779527559055118
        },
        {
          "duration": 0.02325581395349019,
          "durationTicks": 2,
          "midi": 47,
          "name": "B2",
          "ticks": 4227,
          "time": 49.151162790697676,
          "velocity": 0.25984251968503935
        },
        {
          "duration": 0.02325581395349019,
          "durationTicks": 2,
          "midi": 34,
          "name": "A#1",
          "ticks": 4228,
          "time": 49.16279069767442,
          "velocity": 0.33858267716535434
        },
        {
          "duration": 0.08139534883721211,
          "durationTicks": 7,
          "midi": 35,
          "name": "B1",
          "ticks": 4230,
          "time": 49.18604651162791,
          "velocity": 0.2992125984251969
        },
        {
          "duration": 0.03488372093023173,
          "durationTicks": 3,
          "midi": 70,
          "name": "A#4",
          "ticks": 4233,
          "time": 49.22093023255814,
          "velocity": 0.2440944881889764
        },
        {
          "duration": 0.9534883720930196,
          "durationTicks": 82,
          "midi": 68,
          "name": "G#4",
          "ticks": 4235,
          "time": 49.24418604651163,
          "velocity": 0.2440944881889764
        },
        {
          "duration": 0.02325581395349019,
          "durationTicks": 2,
          "midi": 50,
          "name": "D3",
          "ticks": 4244,
          "time": 49.348837209302324,
          "velocity": 0.2755905511811024
        },
        {
          "duration": 0.03488372093023173,
          "durationTicks": 3,
          "midi": 60,
          "name": "C4",
          "ticks": 4244,
          "time": 49.348837209302324,
          "velocity": 0.16535433070866143
        },
        {
          "duration": 0.2325581395348877,
          "durationTicks": 20,
          "midi": 64,
          "name": "E4",
          "ticks": 4247,
          "time": 49.383720930232556,
          "velocity": 0.11811023622047244
        },
        {
          "duration": 0.023255813953483084,
          "durationTicks": 2,
          "midi": 41,
          "name": "F2",
          "ticks": 4248,
          "time": 49.395348837209305,
          "velocity": 0.41732283464566927
        },
        {
          "duration": 0.02325581395349019,
          "durationTicks": 2,
          "midi": 39,
          "name": "D#2",
          "ticks": 4250,
          "time": 49.41860465116279,
          "velocity": 0.33070866141732286
        },
        {
          "duration": 0.19767441860464885,
          "durationTicks": 17,
          "midi": 40,
          "name": "E2",
          "ticks": 4252,
          "time": 49.44186046511628,
          "velocity": 0.3464566929133858
        },
        {
          "duration": 0.02325581395349019,
          "durationTicks": 2,
          "midi": 41,
          "name": "F2",
          "ticks": 4271,
          "time": 49.66279069767442,
          "velocity": 0.2283464566929134
        },
        {
          "duration": 0.03488372093023173,
          "durationTicks": 3,
          "midi": 52,
          "name": "E3",
          "ticks": 4278,
          "time": 49.74418604651163,
          "velocity": 0.2755905511811024
        },
        {
          "duration": 0.03488372093023884,
          "durationTicks": 3,
          "midi": 74,
          "name": "D5",
          "ticks": 4285,
          "time": 49.825581395348834,
          "velocity": 0.16535433070866143
        },
        {
          "duration": 0.02325581395349019,
          "durationTicks": 2,
          "midi": 48,
          "name": "C3",
          "ticks": 4286,
          "time": 49.83720930232558,
          "velocity": 0.28346456692913385
        },
        {
          "duration": 0.02325581395349019,
          "durationTicks": 2,
          "midi": 45,
          "name": "A2",
          "ticks": 4289,
          "time": 49.872093023255815,
          "velocity": 0.31496062992125984
        },
        {
          "duration": 0.15116279069767558,
          "durationTicks": 13,
          "midi": 35,
          "name": "B1",
          "ticks": 4290,
          "time": 49.883720930232556,
          "velocity": 0.28346456692913385
        },
        {
          "duration": 0.03488372093023173,
          "durationTicks": 3,
          "midi": 53,
          "name": "F3",
          "ticks": 4295,
          "time": 49.94186046511628,
          "velocity": 0.1732283464566929
        },
        {
          "duration": 0.09302325581395365,
          "durationTicks": 8,
          "midi": 59,
          "name": "B3",
          "ticks": 4306,
          "time": 50.06976744186046,
          "velocity": 0.2283464566929134
        },
        {
          "duration": 0.046511627906973274,
          "durationTicks": 4,
          "midi": 93,
          "name": "A6",
          "ticks": 4308,
          "time": 50.093023255813954,
          "velocity": 0.07086614173228346
        },
        {
          "duration": 0.06976744186046346,
          "durationTicks": 6,
          "midi": 52,
          "name": "E3",
          "ticks": 4310,
          "time": 50.116279069767444,
          "velocity": 0.2283464566929134
        },
        {
          "duration": 0.05813953488372192,
          "durationTicks": 5,
          "midi": 40,
          "name": "E2",
          "ticks": 4311,
          "time": 50.127906976744185,
          "velocity": 0.33858267716535434
        },
        {
          "duration": 0.03488372093023173,
          "durationTicks": 3,
          "midi": 40,
          "name": "E2",
          "ticks": 4317,
          "time": 50.19767441860465,
          "velocity": 0.3228346456692913
        },
        {
          "duration": 0.06976744186047057,
          "durationTicks": 6,
          "midi": 76,
          "name": "E5",
          "ticks": 4325,
          "time": 50.2906976744186,
          "velocity": 0.10236220472440945
        },
        {
          "duration": 0.02325581395349019,
          "durationTicks": 2,
          "midi": 44,
          "name": "G#2",
          "ticks": 4328,
          "time": 50.325581395348834,
          "velocity": 0.33070866141732286
        },
        {
          "duration": 0.13953488372092693,
          "durationTicks": 12,
          "midi": 52,
          "name": "E3",
          "ticks": 4329,
          "time": 50.33720930232558,
          "velocity": 0.2992125984251969
        },
        {
          "duration": 0.05813953488372192,
          "durationTicks": 5,
          "midi": 67,
          "name": "G4",
          "ticks": 4329,
          "time": 50.33720930232558,
          "velocity": 0.10236220472440945
        },
        {
          "duration": 0.04651162790698038,
          "durationTicks": 4,
          "midi": 33,
          "name": "A1",
          "ticks": 4330,
          "time": 50.348837209302324,
          "velocity": 0.29133858267716534
        },
        {
          "duration": 0.13953488372092693,
          "durationTicks": 12,
          "midi": 45,
          "name": "A2",
          "ticks": 4335,
          "time": 50.406976744186046,
          "velocity": 0.2755905511811024
        },
        {
          "duration": 0.13953488372093403,
          "durationTicks": 12,
          "midi": 78,
          "name": "F#5",
          "ticks": 4336,
          "time": 50.41860465116279,
          "velocity": 0.2125984251968504
        },
        {
          "duration": 0.05813953488372192,
          "durationTicks": 5,
          "midi": 66,
          "name": "F#4",
          "ticks": 4337,
          "time": 50.43023255813954,
          "velocity": 0.13385826771653545
        },
        {
          "duration": 0.1860465116279073,
          "durationTicks": 16,
          "midi": 33,
          "name": "A1",
          "ticks": 4341,
          "time": 50.47674418604651,
          "velocity": 0.2677165354330709
        },
        {
          "duration": 0.2558139534883779,
          "durationTicks": 22,
          "midi": 67,
          "name": "G4",
          "ticks": 4344,
          "time": 50.51162790697674,
          "velocity": 0.29133858267716534
        },
        {
          "duration": 0.06976744186046346,
          "durationTicks": 6,
          "midi": 52,
          "name": "E3",
          "ticks": 4345,
          "time": 50.52325581395349,
          "velocity": 0.2204724409448819
        },
        {
          "duration": 0.09302325581395365,
          "durationTicks": 8,
          "midi": 45,
          "name": "A2",
          "ticks": 4348,
          "time": 50.55813953488372,
          "velocity": 0.31496062992125984
        },
        {
          "duration": 0.03488372093023884,
          "durationTicks": 3,
          "midi": 64,
          "name": "E4",
          "ticks": 4355,
          "time": 50.63953488372093,
          "velocity": 0.08661417322834646
        },
        {
          "duration": 0.023255813953483084,
          "durationTicks": 2,
          "midi": 35,
          "name": "B1",
          "ticks": 4358,
          "time": 50.674418604651166,
          "velocity": 0.2755905511811024
        },
        {
          "duration": 0.046511627906973274,
          "durationTicks": 4,
          "midi": 81,
          "name": "A5",
          "ticks": 4358,
          "time": 50.674418604651166,
          "velocity": 0.09448818897637795
        },
        {
          "duration": 0.05813953488372192,
          "durationTicks": 5,
          "midi": 52,
          "name": "E3",
          "ticks": 4359,
          "time": 50.68604651162791,
          "velocity": 0.2755905511811024
        },
        {
          "duration": 0.02325581395349019,
          "durationTicks": 2,
          "midi": 51,
          "name": "D#3",
          "ticks": 4364,
          "time": 50.74418604651163,
          "velocity": 0.29133858267716534
        },
        {
          "duration": 0.081395348837205,
          "durationTicks": 7,
          "midi": 71,
          "name": "B4",
          "ticks": 4364,
          "time": 50.74418604651163,
          "velocity": 0.1968503937007874
        },
        {
          "duration": 0.058139534883714816,
          "durationTicks": 5,
          "midi": 99,
          "name": "D#7",
          "ticks": 4366,
          "time": 50.76744186046512,
          "velocity": 0.07086614173228346
        },
        {
          "duration": 0.12790697674418539,
          "durationTicks": 11,
          "midi": 48,
          "name": "C3",
          "ticks": 4367,
          "time": 50.77906976744186,
          "velocity": 0.2992125984251969
        },
        {
          "duration": 0.13953488372093403,
          "durationTicks": 12,
          "midi": 36,
          "name": "C2",
          "ticks": 4370,
          "time": 50.81395348837209,
          "velocity": 0.3228346456692913
        },
        {
          "duration": 0.16279069767442422,
          "durationTicks": 14,
          "midi": 72,
          "name": "C5",
          "ticks": 4371,
          "time": 50.825581395348834,
          "velocity": 0.2047244094488189
        },
        {
          "duration": 0.03488372093023173,
          "durationTicks": 3,
          "midi": 47,
          "name": "B2",
          "ticks": 4378,
          "time": 50.906976744186046,
          "velocity": 0.1889763779527559
        },
        {
          "duration": 0.03488372093023173,
          "durationTicks": 3,
          "midi": 60,
          "name": "C4",
          "ticks": 4380,
          "time": 50.93023255813954,
          "velocity": 0.07874015748031496
        },
        {
          "duration": 0.04651162790698038,
          "durationTicks": 4,
          "midi": 67,
          "name": "G4",
          "ticks": 4384,
          "time": 50.97674418604651,
          "velocity": 0.18110236220472442
        },
        {
          "duration": 0.03488372093023173,
          "durationTicks": 3,
          "midi": 37,
          "name": "C#2",
          "ticks": 4385,
          "time": 50.98837209302326,
          "velocity": 0.3779527559055118
        },
        {
          "duration": 0.023255813953483084,
          "durationTicks": 2,
          "midi": 40,
          "name": "E2",
          "ticks": 4388,
          "time": 51.02325581395349,
          "velocity": 0.4015748031496063
        },
        {
          "duration": 0.06976744186046346,
          "durationTicks": 6,
          "midi": 40,
          "name": "E2",
          "ticks": 4391,
          "time": 51.05813953488372,
          "velocity": 0.36220472440944884
        },
        {
          "duration": 0.04651162790698038,
          "durationTicks": 4,
          "midi": 59,
          "name": "B3",
          "ticks": 4392,
          "time": 51.06976744186046,
          "velocity": 0.10236220472440945
        },
        {
          "duration": 0.05813953488372192,
          "durationTicks": 5,
          "midi": 72,
          "name": "C5",
          "ticks": 4395,
          "time": 51.104651162790695,
          "velocity": 0.25196850393700787
        },
        {
          "duration": 0.05813953488372192,
          "durationTicks": 5,
          "midi": 73,
          "name": "C#5",
          "ticks": 4400,
          "time": 51.16279069767442,
          "velocity": 0.2283464566929134
        },
        {
          "duration": 0.046511627906973274,
          "durationTicks": 4,
          "midi": 37,
          "name": "C#2",
          "ticks": 4402,
          "time": 51.18604651162791,
          "velocity": 0.28346456692913385
        },
        {
          "duration": 0.2093023255813975,
          "durationTicks": 18,
          "midi": 57,
          "name": "A3",
          "ticks": 4405,
          "time": 51.22093023255814,
          "velocity": 0.1889763779527559
        },
        {
          "duration": 0.09302325581395365,
          "durationTicks": 8,
          "midi": 74,
          "name": "D5",
          "ticks": 4405,
          "time": 51.22093023255814,
          "velocity": 0.16535433070866143
        },
        {
          "duration": 0.1046511627906952,
          "durationTicks": 9,
          "midi": 66,
          "name": "F#4",
          "ticks": 4413,
          "time": 51.31395348837209,
          "velocity": 0.09448818897637795
        },
        {
          "duration": 0.046511627906973274,
          "durationTicks": 4,
          "midi": 38,
          "name": "D2",
          "ticks": 4415,
          "time": 51.33720930232558,
          "velocity": 0.33070866141732286
        },
        {
          "duration": 0.11627906976743674,
          "durationTicks": 10,
          "midi": 72,
          "name": "C5",
          "ticks": 4423,
          "time": 51.43023255813954,
          "velocity": 0.2125984251968504
        },
        {
          "duration": 0.02325581395349019,
          "durationTicks": 2,
          "midi": 40,
          "name": "E2",
          "ticks": 4426,
          "time": 51.46511627906977,
          "velocity": 0.3543307086614173
        },
        {
          "duration": 0.2093023255813975,
          "durationTicks": 18,
          "midi": 54,
          "name": "F#3",
          "ticks": 4427,
          "time": 51.47674418604651,
          "velocity": 0.25196850393700787
        },
        {
          "duration": 0.02325581395349019,
          "durationTicks": 2,
          "midi": 43,
          "name": "G2",
          "ticks": 4429,
          "time": 51.5,
          "velocity": 0.31496062992125984
        },
        {
          "duration": 0.08139534883721211,
          "durationTicks": 7,
          "midi": 61,
          "name": "C#4",
          "ticks": 4429,
          "time": 51.5,
          "velocity": 0.15748031496062992
        },
        {
          "duration": 0.02325581395349019,
          "durationTicks": 2,
          "midi": 42,
          "name": "F#2",
          "ticks": 4438,
          "time": 51.604651162790695,
          "velocity": 0.2755905511811024
        },
        {
          "duration": 0.046511627906973274,
          "durationTicks": 4,
          "midi": 83,
          "name": "B5",
          "ticks": 4444,
          "time": 51.674418604651166,
          "velocity": 0.12598425196850394
        },
        {
          "duration": 0.11627906976744384,
          "durationTicks": 10,
          "midi": 64,
          "name": "E4",
          "ticks": 4445,
          "time": 51.68604651162791,
          "velocity": 0.12598425196850394
        },
        {
          "duration": 0.11627906976744384,
          "durationTicks": 10,
          "midi": 71,
          "name": "B4",
          "ticks": 4445,
          "time": 51.68604651162791,
          "velocity": 0.2047244094488189
        },
        {
          "duration": 0.15116279069767558,
          "durationTicks": 13,
          "midi": 57,
          "name": "A3",
          "ticks": 4446,
          "time": 51.69767441860465,
          "velocity": 0.2677165354330709
        },
        {
          "duration": 0.1046511627906952,
          "durationTicks": 9,
          "midi": 90,
          "name": "F#6",
          "ticks": 4447,
          "time": 51.7093023255814,
          "velocity": 0.10236220472440945
        },
        {
          "duration": 0.13953488372093403,
          "durationTicks": 12,
          "midi": 45,
          "name": "A2",
          "ticks": 4448,
          "time": 51.72093023255814,
          "velocity": 0.33858267716535434
        },
        {
          "duration": 0.03488372093023173,
          "durationTicks": 3,
          "midi": 41,
          "name": "F2",
          "ticks": 4463,
          "time": 51.895348837209305,
          "velocity": 0.33858267716535434
        },
        {
          "duration": 0.03488372093023173,
          "durationTicks": 3,
          "midi": 70,
          "name": "A#4",
          "ticks": 4463,
          "time": 51.895348837209305,
          "velocity": 0.15748031496062992
        },
        {
          "duration": 0.03488372093023173,
          "durationTicks": 3,
          "midi": 61,
          "name": "C#4",
          "ticks": 4464,
          "time": 51.906976744186046,
          "velocity": 0.18110236220472442
        },
        {
          "duration": 0.06976744186046346,
          "durationTicks": 6,
          "midi": 67,
          "name": "G4",
          "ticks": 4466,
          "time": 51.93023255813954,
          "velocity": 0.14960629921259844
        },
        {
          "duration": 0.081395348837205,
          "durationTicks": 7,
          "midi": 93,
          "name": "A6",
          "ticks": 4466,
          "time": 51.93023255813954,
          "velocity": 0.13385826771653545
        },
        {
          "duration": 0.023255813953483084,
          "durationTicks": 2,
          "midi": 42,
          "name": "F#2",
          "ticks": 4468,
          "time": 51.95348837209303,
          "velocity": 0.3464566929133858
        },
        {
          "duration": 0.03488372093023173,
          "durationTicks": 3,
          "midi": 61,
          "name": "C#4",
          "ticks": 4469,
          "time": 51.96511627906977,
          "velocity": 0.12598425196850394
        },
        {
          "duration": 0.04651162790698038,
          "durationTicks": 4,
          "midi": 54,
          "name": "F#3",
          "ticks": 4470,
          "time": 51.97674418604651,
          "velocity": 0.1889763779527559
        },
        {
          "duration": 0.023255813953483084,
          "durationTicks": 2,
          "midi": 42,
          "name": "F#2",
          "ticks": 4471,
          "time": 51.98837209302326,
          "velocity": 0.33070866141732286
        },
        {
          "duration": 0.06976744186046346,
          "durationTicks": 6,
          "midi": 42,
          "name": "F#2",
          "ticks": 4474,
          "time": 52.02325581395349,
          "velocity": 0.33858267716535434
        },
        {
          "duration": 0.11627906976743674,
          "durationTicks": 10,
          "midi": 67,
          "name": "G4",
          "ticks": 4474,
          "time": 52.02325581395349,
          "velocity": 0.18110236220472442
        },
        {
          "duration": 0.03488372093023173,
          "durationTicks": 3,
          "midi": 44,
          "name": "G#2",
          "ticks": 4481,
          "time": 52.104651162790695,
          "velocity": 0.2125984251968504
        },
        {
          "duration": 0.06976744186047057,
          "durationTicks": 6,
          "midi": 74,
          "name": "D5",
          "ticks": 4484,
          "time": 52.13953488372093,
          "velocity": 0.11811023622047244
        },
        {
          "duration": 0.1046511627906952,
          "durationTicks": 9,
          "midi": 55,
          "name": "G3",
          "ticks": 4485,
          "time": 52.151162790697676,
          "velocity": 0.25984251968503935
        },
        {
          "duration": 0.023255813953483084,
          "durationTicks": 2,
          "midi": 42,
          "name": "F#2",
          "ticks": 4487,
          "time": 52.174418604651166,
          "velocity": 0.3700787401574803
        },
        {
          "duration": 0.081395348837205,
          "durationTicks": 7,
          "midi": 62,
          "name": "D4",
          "ticks": 4487,
          "time": 52.174418604651166,
          "velocity": 0.12598425196850394
        },
        {
          "duration": 0.08139534883721211,
          "durationTicks": 7,
          "midi": 43,
          "name": "G2",
          "ticks": 4489,
          "time": 52.19767441860465,
          "velocity": 0.3937007874015748
        },
        {
          "duration": 0.06976744186046346,
          "durationTicks": 6,
          "midi": 64,
          "name": "E4",
          "ticks": 4494,
          "time": 52.25581395348837,
          "velocity": 0.1732283464566929
        },
        {
          "duration": 0.06976744186046346,
          "durationTicks": 6,
          "midi": 67,
          "name": "G4",
          "ticks": 4494,
          "time": 52.25581395348837,
          "velocity": 0.07874015748031496
        },
        {
          "duration": 0.09302325581395365,
          "durationTicks": 8,
          "midi": 55,
          "name": "G3",
          "ticks": 4496,
          "time": 52.27906976744186,
          "velocity": 0.14173228346456693
        },
        {
          "duration": 0.04651162790698038,
          "durationTicks": 4,
          "midi": 43,
          "name": "G2",
          "ticks": 4499,
          "time": 52.31395348837209,
          "velocity": 0.3858267716535433
        },
        {
          "duration": 0.02325581395349019,
          "durationTicks": 2,
          "midi": 43,
          "name": "G2",
          "ticks": 4504,
          "time": 52.372093023255815,
          "velocity": 0.2755905511811024
        },
        {
          "duration": 0.06976744186046346,
          "durationTicks": 6,
          "midi": 66,
          "name": "F#4",
          "ticks": 4504,
          "time": 52.372093023255815,
          "velocity": 0.15748031496062992
        },
        {
          "duration": 0.023255813953483084,
          "durationTicks": 2,
          "midi": 37,
          "name": "C#2",
          "ticks": 4506,
          "time": 52.395348837209305,
          "velocity": 0.30708661417322836
        },
        {
          "duration": 0.03488372093023173,
          "durationTicks": 3,
          "midi": 50,
          "name": "D3",
          "ticks": 4506,
          "time": 52.395348837209305,
          "velocity": 0.23622047244094488
        },
        {
          "duration": 0.04651162790698038,
          "durationTicks": 4,
          "midi": 57,
          "name": "A3",
          "ticks": 4507,
          "time": 52.406976744186046,
          "velocity": 0.11023622047244094
        },
        {
          "duration": 0.03488372093023173,
          "durationTicks": 3,
          "midi": 67,
          "name": "G4",
          "ticks": 4510,
          "time": 52.44186046511628,
          "velocity": 0.13385826771653545
        },
        {
          "duration": 0.058139534883714816,
          "durationTicks": 5,
          "midi": 37,
          "name": "C#2",
          "ticks": 4511,
          "time": 52.45348837209303,
          "velocity": 0.28346456692913385
        },
        {
          "duration": 0.12790697674418539,
          "durationTicks": 11,
          "midi": 67,
          "name": "G4",
          "ticks": 4515,
          "time": 52.5,
          "velocity": 0.2677165354330709
        },
        {
          "duration": 0.02325581395349019,
          "durationTicks": 2,
          "midi": 45,
          "name": "A2",
          "ticks": 4518,
          "time": 52.53488372093023,
          "velocity": 0.25196850393700787
        },
        {
          "duration": 0.05813953488372192,
          "durationTicks": 5,
          "midi": 44,
          "name": "G#2",
          "ticks": 4520,
          "time": 52.55813953488372,
          "velocity": 0.2440944881889764
        },
        {
          "duration": 0.023255813953483084,
          "durationTicks": 2,
          "midi": 45,
          "name": "A2",
          "ticks": 4525,
          "time": 52.616279069767444,
          "velocity": 0.3700787401574803
        },
        {
          "duration": 0.05813953488372192,
          "durationTicks": 5,
          "midi": 81,
          "name": "A5",
          "ticks": 4525,
          "time": 52.616279069767444,
          "velocity": 0.09448818897637795
        },
        {
          "duration": 0.09302325581395365,
          "durationTicks": 8,
          "midi": 54,
          "name": "F#3",
          "ticks": 4526,
          "time": 52.627906976744185,
          "velocity": 0.1732283464566929
        },
        {
          "duration": 0.1046511627907023,
          "durationTicks": 9,
          "midi": 47,
          "name": "B2",
          "ticks": 4527,
          "time": 52.63953488372093,
          "velocity": 0.29133858267716534
        },
        {
          "duration": 0.023255813953483084,
          "durationTicks": 2,
          "midi": 35,
          "name": "B1",
          "ticks": 4530,
          "time": 52.674418604651166,
          "velocity": 0.2677165354330709
        },
        {
          "duration": 0.09302325581395365,
          "durationTicks": 8,
          "midi": 35,
          "name": "B1",
          "ticks": 4533,
          "time": 52.7093023255814,
          "velocity": 0.2677165354330709
        },
        {
          "duration": 0.1046511627906952,
          "durationTicks": 9,
          "midi": 71,
          "name": "B4",
          "ticks": 4534,
          "time": 52.72093023255814,
          "velocity": 0.1732283464566929
        },
        {
          "duration": 0.09302325581395365,
          "durationTicks": 8,
          "midi": 99,
          "name": "D#7",
          "ticks": 4535,
          "time": 52.73255813953488,
          "velocity": 0.09448818897637795
        },
        {
          "duration": 0.081395348837205,
          "durationTicks": 7,
          "midi": 90,
          "name": "F#6",
          "ticks": 4536,
          "time": 52.74418604651163,
          "velocity": 0.09448818897637795
        },
        {
          "duration": 0.08139534883721211,
          "durationTicks": 7,
          "midi": 59,
          "name": "B3",
          "ticks": 4537,
          "time": 52.75581395348837,
          "velocity": 0.11811023622047244
        },
        {
          "duration": 0.03488372093023173,
          "durationTicks": 3,
          "midi": 55,
          "name": "G3",
          "ticks": 4538,
          "time": 52.76744186046512,
          "velocity": 0.08661417322834646
        },
        {
          "duration": 0.09302325581395365,
          "durationTicks": 8,
          "midi": 67,
          "name": "G4",
          "ticks": 4538,
          "time": 52.76744186046512,
          "velocity": 0.2047244094488189
        },
        {
          "duration": 0.03488372093023884,
          "durationTicks": 3,
          "midi": 64,
          "name": "E4",
          "ticks": 4543,
          "time": 52.825581395348834,
          "velocity": 0.2047244094488189
        },
        {
          "duration": 0.1046511627907023,
          "durationTicks": 9,
          "midi": 59,
          "name": "B3",
          "ticks": 4545,
          "time": 52.848837209302324,
          "velocity": 0.18110236220472442
        },
        {
          "duration": 0.023255813953483084,
          "durationTicks": 2,
          "midi": 50,
          "name": "D3",
          "ticks": 4546,
          "time": 52.86046511627907,
          "velocity": 0.33070866141732286
        },
        {
          "duration": 0.02325581395349019,
          "durationTicks": 2,
          "midi": 36,
          "name": "C2",
          "ticks": 4547,
          "time": 52.872093023255815,
          "velocity": 0.3779527559055118
        },
        {
          "duration": 0.023255813953483084,
          "durationTicks": 2,
          "midi": 38,
          "name": "D2",
          "ticks": 4549,
          "time": 52.895348837209305,
          "velocity": 0.33070866141732286
        },
        {
          "duration": 0.1046511627906952,
          "durationTicks": 9,
          "midi": 38,
          "name": "D2",
          "ticks": 4552,
          "time": 52.93023255813954,
          "velocity": 0.31496062992125984
        },
        {
          "duration": 0.11627906976744384,
          "durationTicks": 10,
          "midi": 81,
          "name": "A5",
          "ticks": 4555,
          "time": 52.96511627906977,
          "velocity": 0.07874015748031496
        },
        {
          "duration": 0.1046511627906952,
          "durationTicks": 9,
          "midi": 88,
          "name": "E6",
          "ticks": 4555,
          "time": 52.96511627906977,
          "velocity": 0.12598425196850394
        },
        {
          "duration": 0.2674418604651194,
          "durationTicks": 23,
          "midi": 97,
          "name": "C#7",
          "ticks": 4556,
          "time": 52.97674418604651,
          "velocity": 0.15748031496062992
        },
        {
          "duration": 0.17441860465116577,
          "durationTicks": 15,
          "midi": 67,
          "name": "G4",
          "ticks": 4562,
          "time": 53.04651162790697,
          "velocity": 0.16535433070866143
        },
        {
          "duration": 0.023255813953483084,
          "durationTicks": 2,
          "midi": 45,
          "name": "A2",
          "ticks": 4565,
          "time": 53.08139534883721,
          "velocity": 0.4015748031496063
        },
        {
          "duration": 0.02325581395349019,
          "durationTicks": 2,
          "midi": 44,
          "name": "G#2",
          "ticks": 4567,
          "time": 53.104651162790695,
          "velocity": 0.30708661417322836
        },
        {
          "duration": 0.24418604651162923,
          "durationTicks": 21,
          "midi": 55,
          "name": "G3",
          "ticks": 4567,
          "time": 53.104651162790695,
          "velocity": 0.2047244094488189
        },
        {
          "duration": 0.19767441860465595,
          "durationTicks": 17,
          "midi": 60,
          "name": "C4",
          "ticks": 4567,
          "time": 53.104651162790695,
          "velocity": 0.14960629921259844
        },
        {
          "duration": 0.02325581395349019,
          "durationTicks": 2,
          "midi": 35,
          "name": "B1",
          "ticks": 4569,
          "time": 53.127906976744185,
          "velocity": 0.2992125984251969
        },
        {
          "duration": 0.04651162790698038,
          "durationTicks": 4,
          "midi": 36,
          "name": "C2",
          "ticks": 4577,
          "time": 53.22093023255814,
          "velocity": 0.2992125984251969
        },
        {
          "duration": 0.02325581395349019,
          "durationTicks": 2,
          "midi": 36,
          "name": "C2",
          "ticks": 4582,
          "time": 53.27906976744186,
          "velocity": 0.2992125984251969
        },
        {
          "duration": 0.02325581395349019,
          "durationTicks": 2,
          "midi": 36,
          "name": "C2",
          "ticks": 4585,
          "time": 53.31395348837209,
          "velocity": 0.2992125984251969
        },
        {
          "duration": 0.09302325581395365,
          "durationTicks": 8,
          "midi": 79,
          "name": "G5",
          "ticks": 4585,
          "time": 53.31395348837209,
          "velocity": 0.12598425196850394
        },
        {
          "duration": 0.04651162790698038,
          "durationTicks": 4,
          "midi": 36,
          "name": "C2",
          "ticks": 4588,
          "time": 53.348837209302324,
          "velocity": 0.29133858267716534
        },
        {
          "duration": 0.046511627906973274,
          "durationTicks": 4,
          "midi": 55,
          "name": "G3",
          "ticks": 4589,
          "time": 53.36046511627907,
          "velocity": 0.15748031496062992
        },
        {
          "duration": 0.11627906976744384,
          "durationTicks": 10,
          "midi": 36,
          "name": "C2",
          "ticks": 4593,
          "time": 53.406976744186046,
          "velocity": 0.29133858267716534
        },
        {
          "duration": 0.15116279069767558,
          "durationTicks": 13,
          "midi": 60,
          "name": "C4",
          "ticks": 4594,
          "time": 53.41860465116279,
          "velocity": 0.14173228346456693
        },
        {
          "duration": 0.09302325581395365,
          "durationTicks": 8,
          "midi": 67,
          "name": "G4",
          "ticks": 4598,
          "time": 53.46511627906977,
          "velocity": 0.1968503937007874
        },
        {
          "duration": 0.02325581395349019,
          "durationTicks": 2,
          "midi": 41,
          "name": "F2",
          "ticks": 4606,
          "time": 53.55813953488372,
          "velocity": 0.31496062992125984
        },
        {
          "duration": 0.05813953488372192,
          "durationTicks": 5,
          "midi": 66,
          "name": "F#4",
          "ticks": 4606,
          "time": 53.55813953488372,
          "velocity": 0.14173228346456693
        },
        {
          "duration": 0.08139534883721211,
          "durationTicks": 7,
          "midi": 52,
          "name": "E3",
          "ticks": 4607,
          "time": 53.56976744186046,
          "velocity": 0.2125984251968504
        },
        {
          "duration": 0.02325581395349019,
          "durationTicks": 2,
          "midi": 41,
          "name": "F2",
          "ticks": 4610,
          "time": 53.604651162790695,
          "velocity": 0.33070866141732286
        },
        {
          "duration": 0.04651162790698038,
          "durationTicks": 4,
          "midi": 59,
          "name": "B3",
          "ticks": 4610,
          "time": 53.604651162790695,
          "velocity": 0.09448818897637795
        },
        {
          "duration": 0.04651162790698038,
          "durationTicks": 4,
          "midi": 40,
          "name": "E2",
          "ticks": 4612,
          "time": 53.627906976744185,
          "velocity": 0.30708661417322836
        },
        {
          "duration": 0.02325581395349019,
          "durationTicks": 2,
          "midi": 39,
          "name": "D#2",
          "ticks": 4618,
          "time": 53.69767441860465,
          "velocity": 0.2283464566929134
        },
        {
          "duration": 0.1046511627907023,
          "durationTicks": 9,
          "midi": 64,
          "name": "E4",
          "ticks": 4623,
          "time": 53.75581395348837,
          "velocity": 0.2047244094488189
        },
        {
          "duration": 0.04651162790698038,
          "durationTicks": 4,
          "midi": 67,
          "name": "G4",
          "ticks": 4623,
          "time": 53.75581395348837,
          "velocity": 0.15748031496062992
        },
        {
          "duration": 0.03488372093023173,
          "durationTicks": 3,
          "midi": 70,
          "name": "A#4",
          "ticks": 4623,
          "time": 53.75581395348837,
          "velocity": 0.2283464566929134
        },
        {
          "duration": 0.046511627906973274,
          "durationTicks": 4,
          "midi": 61,
          "name": "C#4",
          "ticks": 4624,
          "time": 53.76744186046512,
          "velocity": 0.2047244094488189
        },
        {
          "duration": 0.03488372093023173,
          "durationTicks": 3,
          "midi": 41,
          "name": "F2",
          "ticks": 4626,
          "time": 53.7906976744186,
          "velocity": 0.3937007874015748
        },
        {
          "duration": 0.04651162790698038,
          "durationTicks": 4,
          "midi": 67,
          "name": "G4",
          "ticks": 4629,
          "time": 53.825581395348834,
          "velocity": 0.11811023622047244
        },
        {
          "duration": 0.1046511627906952,
          "durationTicks": 9,
          "midi": 43,
          "name": "G2",
          "ticks": 4630,
          "time": 53.83720930232558,
          "velocity": 0.36220472440944884
        },
        {
          "duration": 0.04651162790698038,
          "durationTicks": 4,
          "midi": 44,
          "name": "G#2",
          "ticks": 4639,
          "time": 53.94186046511628,
          "velocity": 0.3543307086614173
        },
        {
          "duration": 0.058139534883714816,
          "durationTicks": 5,
          "midi": 45,
          "name": "A2",
          "ticks": 4643,
          "time": 53.98837209302326,
          "velocity": 0.3228346456692913
        },
        {
          "duration": 0.08139534883721211,
          "durationTicks": 7,
          "midi": 60,
          "name": "C4",
          "ticks": 4644,
          "time": 54,
          "velocity": 0.13385826771653545
        },
        {
          "duration": 0.02325581395349019,
          "durationTicks": 2,
          "midi": 53,
          "name": "F3",
          "ticks": 4645,
          "time": 54.01162790697674,
          "velocity": 0.30708661417322836
        },
        {
          "duration": 0.09302325581395365,
          "durationTicks": 8,
          "midi": 72,
          "name": "C5",
          "ticks": 4645,
          "time": 54.01162790697674,
          "velocity": 0.16535433070866143
        },
        {
          "duration": 0.04651162790698038,
          "durationTicks": 4,
          "midi": 52,
          "name": "E3",
          "ticks": 4647,
          "time": 54.03488372093023,
          "velocity": 0.2992125984251969
        },
        {
          "duration": 0.04651162790698038,
          "durationTicks": 4,
          "midi": 45,
          "name": "A2",
          "ticks": 4650,
          "time": 54.06976744186046,
          "velocity": 0.3464566929133858
        },
        {
          "duration": 0.03488372093023173,
          "durationTicks": 3,
          "midi": 34,
          "name": "A#1",
          "ticks": 4651,
          "time": 54.08139534883721,
          "velocity": 0.2677165354330709
        },
        {
          "duration": 0.17441860465116577,
          "durationTicks": 15,
          "midi": 52,
          "name": "E3",
          "ticks": 4652,
          "time": 54.093023255813954,
          "velocity": 0.2992125984251969
        },
        {
          "duration": 0.24418604651162923,
          "durationTicks": 21,
          "midi": 45,
          "name": "A2",
          "ticks": 4655,
          "time": 54.127906976744185,
          "velocity": 0.3779527559055118
        },
        {
          "duration": 0.03488372093023173,
          "durationTicks": 3,
          "midi": 74,
          "name": "D5",
          "ticks": 4657,
          "time": 54.151162790697676,
          "velocity": 0.09448818897637795
        },
        {
          "duration": 0.03488372093023173,
          "durationTicks": 3,
          "midi": 33,
          "name": "A1",
          "ticks": 4661,
          "time": 54.19767441860465,
          "velocity": 0.23622047244094488
        },
        {
          "duration": 0.06976744186047057,
          "durationTicks": 6,
          "midi": 76,
          "name": "E5",
          "ticks": 4664,
          "time": 54.23255813953488,
          "velocity": 0.18110236220472442
        },
        {
          "duration": 0.06976744186046346,
          "durationTicks": 6,
          "midi": 52,
          "name": "E3",
          "ticks": 4668,
          "time": 54.27906976744186,
          "velocity": 0.11023622047244094
        },
        {
          "duration": 0.05813953488372192,
          "durationTicks": 5,
          "midi": 67,
          "name": "G4",
          "ticks": 4668,
          "time": 54.27906976744186,
          "velocity": 0.08661417322834646
        },
        {
          "duration": 0.08139534883721211,
          "durationTicks": 7,
          "midi": 33,
          "name": "A1",
          "ticks": 4669,
          "time": 54.2906976744186,
          "velocity": 0.2204724409448819
        },
        {
          "duration": 0.081395348837205,
          "durationTicks": 7,
          "midi": 78,
          "name": "F#5",
          "ticks": 4675,
          "time": 54.36046511627907,
          "velocity": 0.15748031496062992
        },
        {
          "duration": 0.03488372093023173,
          "durationTicks": 3,
          "midi": 85,
          "name": "C#6",
          "ticks": 4675,
          "time": 54.36046511627907,
          "velocity": 0.07086614173228346
        },
        {
          "duration": 0.06976744186046346,
          "durationTicks": 6,
          "midi": 100,
          "name": "E7",
          "ticks": 4675,
          "time": 54.36046511627907,
          "velocity": 0.07874015748031496
        },
        {
          "duration": 0.06976744186047057,
          "durationTicks": 6,
          "midi": 45,
          "name": "A2",
          "ticks": 4677,
          "time": 54.383720930232556,
          "velocity": 0.2992125984251969
        },
        {
          "duration": 0.12790697674418539,
          "durationTicks": 11,
          "midi": 79,
          "name": "G5",
          "ticks": 4682,
          "time": 54.44186046511628,
          "velocity": 0.1968503937007874
        },
        {
          "duration": 0.02325581395349019,
          "durationTicks": 2,
          "midi": 41,
          "name": "F2",
          "ticks": 4685,
          "time": 54.47674418604651,
          "velocity": 0.25984251968503935
        },
        {
          "duration": 0.046511627906973274,
          "durationTicks": 4,
          "midi": 67,
          "name": "G4",
          "ticks": 4686,
          "time": 54.48837209302326,
          "velocity": 0.07874015748031496
        },
        {
          "duration": 0.19767441860464885,
          "durationTicks": 17,
          "midi": 40,
          "name": "E2",
          "ticks": 4687,
          "time": 54.5,
          "velocity": 0.3543307086614173
        },
        {
          "duration": 0.04651162790698038,
          "durationTicks": 4,
          "midi": 59,
          "name": "B3",
          "ticks": 4696,
          "time": 54.604651162790695,
          "velocity": 0.14173228346456693
        },
        {
          "duration": 0.05813953488372192,
          "durationTicks": 5,
          "midi": 88,
          "name": "E6",
          "ticks": 4696,
          "time": 54.604651162790695,
          "velocity": 0.13385826771653545
        },
        {
          "duration": 0.04651162790698038,
          "durationTicks": 4,
          "midi": 93,
          "name": "A6",
          "ticks": 4696,
          "time": 54.604651162790695,
          "velocity": 0.08661417322834646
        },
        {
          "duration": 0.02325581395349019,
          "durationTicks": 2,
          "midi": 39,
          "name": "D#2",
          "ticks": 4704,
          "time": 54.69767441860465,
          "velocity": 0.33858267716535434
        },
        {
          "duration": 0.03488372093023173,
          "durationTicks": 3,
          "midi": 69,
          "name": "A4",
          "ticks": 4704,
          "time": 54.69767441860465,
          "velocity": 0.2047244094488189
        },
        {
          "duration": 0.09302325581395365,
          "durationTicks": 8,
          "midi": 57,
          "name": "A3",
          "ticks": 4705,
          "time": 54.7093023255814,
          "velocity": 0.2125984251968504
        },
        {
          "duration": 0.03488372093023173,
          "durationTicks": 3,
          "midi": 63,
          "name": "D#4",
          "ticks": 4705,
          "time": 54.7093023255814,
          "velocity": 0.1732283464566929
        },
        {
          "duration": 0.03488372093023173,
          "durationTicks": 3,
          "midi": 44,
          "name": "G#2",
          "ticks": 4706,
          "time": 54.72093023255814,
          "velocity": 0.3700787401574803
        },
        {
          "duration": 0.08139534883721211,
          "durationTicks": 7,
          "midi": 67,
          "name": "G4",
          "ticks": 4707,
          "time": 54.73255813953488,
          "velocity": 0.14960629921259844
        },
        {
          "duration": 0.12790697674418539,
          "durationTicks": 11,
          "midi": 45,
          "name": "A2",
          "ticks": 4709,
          "time": 54.75581395348837,
          "velocity": 0.2992125984251969
        },
        {
          "duration": 0.023255813953483084,
          "durationTicks": 2,
          "midi": 33,
          "name": "A1",
          "ticks": 4710,
          "time": 54.76744186046512,
          "velocity": 0.2283464566929134
        },
        {
          "duration": 0.081395348837205,
          "durationTicks": 7,
          "midi": 33,
          "name": "A1",
          "ticks": 4713,
          "time": 54.80232558139535,
          "velocity": 0.2440944881889764
        },
        {
          "duration": 0.13953488372093403,
          "durationTicks": 12,
          "midi": 67,
          "name": "G4",
          "ticks": 4715,
          "time": 54.825581395348834,
          "velocity": 0.16535433070866143
        },
        {
          "duration": 0.24418604651162923,
          "durationTicks": 21,
          "midi": 79,
          "name": "G5",
          "ticks": 4716,
          "time": 54.83720930232558,
          "velocity": 0.2283464566929134
        },
        {
          "duration": 0.02325581395349019,
          "durationTicks": 2,
          "midi": 34,
          "name": "A#1",
          "ticks": 4720,
          "time": 54.883720930232556,
          "velocity": 0.23622047244094488
        },
        {
          "duration": 0.03488372093023173,
          "durationTicks": 3,
          "midi": 45,
          "name": "A2",
          "ticks": 4725,
          "time": 54.94186046511628,
          "velocity": 0.3464566929133858
        },
        {
          "duration": 0.03488372093023173,
          "durationTicks": 3,
          "midi": 53,
          "name": "F3",
          "ticks": 4726,
          "time": 54.95348837209303,
          "velocity": 0.2204724409448819
        },
        {
          "duration": 0.02325581395349019,
          "durationTicks": 2,
          "midi": 35,
          "name": "B1",
          "ticks": 4731,
          "time": 55.01162790697674,
          "velocity": 0.29133858267716534
        },
        {
          "duration": 0.03488372093023173,
          "durationTicks": 3,
          "midi": 35,
          "name": "B1",
          "ticks": 4738,
          "time": 55.093023255813954,
          "velocity": 0.28346456692913385
        },
        {
          "duration": 0.03488372093023173,
          "durationTicks": 3,
          "midi": 54,
          "name": "F#3",
          "ticks": 4738,
          "time": 55.093023255813954,
          "velocity": 0.11811023622047244
        },
        {
          "duration": 0.09302325581395365,
          "durationTicks": 8,
          "midi": 79,
          "name": "G5",
          "ticks": 4738,
          "time": 55.093023255813954,
          "velocity": 0.14173228346456693
        },
        {
          "duration": 0.2093023255813975,
          "durationTicks": 18,
          "midi": 66,
          "name": "F#4",
          "ticks": 4739,
          "time": 55.104651162790695,
          "velocity": 0.16535433070866143
        },
        {
          "duration": 0.02325581395349019,
          "durationTicks": 2,
          "midi": 35,
          "name": "B1",
          "ticks": 4742,
          "time": 55.13953488372093,
          "velocity": 0.28346456692913385
        },
        {
          "duration": 0.023255813953483084,
          "durationTicks": 2,
          "midi": 35,
          "name": "B1",
          "ticks": 4745,
          "time": 55.174418604651166,
          "velocity": 0.29133858267716534
        },
        {
          "duration": 0.023255813953483084,
          "durationTicks": 2,
          "midi": 35,
          "name": "B1",
          "ticks": 4748,
          "time": 55.2093023255814,
          "velocity": 0.2755905511811024
        },
        {
          "duration": 0.03488372093023173,
          "durationTicks": 3,
          "midi": 85,
          "name": "C#6",
          "ticks": 4748,
          "time": 55.2093023255814,
          "velocity": 0.07086614173228346
        },
        {
          "duration": 0.05813953488372192,
          "durationTicks": 5,
          "midi": 100,
          "name": "E7",
          "ticks": 4748,
          "time": 55.2093023255814,
          "velocity": 0.12598425196850394
        },
        {
          "duration": 0.03488372093023884,
          "durationTicks": 3,
          "midi": 54,
          "name": "F#3",
          "ticks": 4750,
          "time": 55.23255813953488,
          "velocity": 0.07086614173228346
        },
        {
          "duration": 0.03488372093023173,
          "durationTicks": 3,
          "midi": 35,
          "name": "B1",
          "ticks": 4757,
          "time": 55.31395348837209,
          "velocity": 0.25984251968503935
        },
        {
          "duration": 0.02325581395349019,
          "durationTicks": 2,
          "midi": 53,
          "name": "F3",
          "ticks": 4758,
          "time": 55.325581395348834,
          "velocity": 0.25984251968503935
        },
        {
          "duration": 0.09302325581395365,
          "durationTicks": 8,
          "midi": 66,
          "name": "F#4",
          "ticks": 4758,
          "time": 55.325581395348834,
          "velocity": 0.12598425196850394
        },
        {
          "duration": 0.04651162790698038,
          "durationTicks": 4,
          "midi": 54,
          "name": "F#3",
          "ticks": 4760,
          "time": 55.348837209302324,
          "velocity": 0.1732283464566929
        },
        {
          "duration": 0.046511627906973274,
          "durationTicks": 4,
          "midi": 35,
          "name": "B1",
          "ticks": 4761,
          "time": 55.36046511627907,
          "velocity": 0.25984251968503935
        },
        {
          "duration": 0.03488372093023173,
          "durationTicks": 3,
          "midi": 53,
          "name": "F3",
          "ticks": 4764,
          "time": 55.395348837209305,
          "velocity": 0.23622047244094488
        },
        {
          "duration": 0.02325581395349019,
          "durationTicks": 2,
          "midi": 37,
          "name": "C#2",
          "ticks": 4765,
          "time": 55.406976744186046,
          "velocity": 0.3858267716535433
        },
        {
          "duration": 0.09302325581395365,
          "durationTicks": 8,
          "midi": 76,
          "name": "E5",
          "ticks": 4768,
          "time": 55.44186046511628,
          "velocity": 0.14960629921259844
        },
        {
          "duration": 0.081395348837205,
          "durationTicks": 7,
          "midi": 64,
          "name": "E4",
          "ticks": 4769,
          "time": 55.45348837209303,
          "velocity": 0.14960629921259844
        },
        {
          "duration": 0.1860465116279073,
          "durationTicks": 16,
          "midi": 42,
          "name": "F#2",
          "ticks": 4770,
          "time": 55.46511627906977,
          "velocity": 0.36220472440944884
        },
        {
          "duration": 0.08139534883721211,
          "durationTicks": 7,
          "midi": 75,
          "name": "D#5",
          "ticks": 4785,
          "time": 55.63953488372093,
          "velocity": 0.1732283464566929
        },
        {
          "duration": 0.02325581395349019,
          "durationTicks": 2,
          "midi": 41,
          "name": "F2",
          "ticks": 4786,
          "time": 55.651162790697676,
          "velocity": 0.33070866141732286
        },
        {
          "duration": 0.081395348837205,
          "durationTicks": 7,
          "midi": 63,
          "name": "D#4",
          "ticks": 4786,
          "time": 55.651162790697676,
          "velocity": 0.14960629921259844
        },
        {
          "duration": 0.06976744186046346,
          "durationTicks": 6,
          "midi": 67,
          "name": "G4",
          "ticks": 4787,
          "time": 55.66279069767442,
          "velocity": 0.11811023622047244
        },
        {
          "duration": 0.03488372093023173,
          "durationTicks": 3,
          "midi": 47,
          "name": "B2",
          "ticks": 4788,
          "time": 55.674418604651166,
          "velocity": 0.2677165354330709
        },
        {
          "duration": 0.16279069767442422,
          "durationTicks": 14,
          "midi": 35,
          "name": "B1",
          "ticks": 4790,
          "time": 55.69767441860465,
          "velocity": 0.29133858267716534
        },
        {
          "duration": 0.02325581395349019,
          "durationTicks": 2,
          "midi": 69,
          "name": "A4",
          "ticks": 4794,
          "time": 55.74418604651163,
          "velocity": 0.25196850393700787
        },
        {
          "duration": 0.02325581395349019,
          "durationTicks": 2,
          "midi": 64,
          "name": "E4",
          "ticks": 4795,
          "time": 55.75581395348837,
          "velocity": 0.2283464566929134
        },
        {
          "duration": 0.09302325581395365,
          "durationTicks": 8,
          "midi": 67,
          "name": "G4",
          "ticks": 4797,
          "time": 55.77906976744186,
          "velocity": 0.2047244094488189
        },
        {
          "duration": 0.11627906976743674,
          "durationTicks": 10,
          "midi": 75,
          "name": "D#5",
          "ticks": 4804,
          "time": 55.86046511627907,
          "velocity": 0.1968503937007874
        },
        {
          "duration": 0.19767441860464885,
          "durationTicks": 17,
          "midi": 64,
          "name": "E4",
          "ticks": 4807,
          "time": 55.895348837209305,
          "velocity": 0.2440944881889764
        },
        {
          "duration": 0.11627906976744384,
          "durationTicks": 10,
          "midi": 59,
          "name": "B3",
          "ticks": 4808,
          "time": 55.906976744186046,
          "velocity": 0.11811023622047244
        },
        {
          "duration": 0.16279069767442422,
          "durationTicks": 14,
          "midi": 52,
          "name": "E3",
          "ticks": 4809,
          "time": 55.91860465116279,
          "velocity": 0.30708661417322836
        },
        {
          "duration": 0.02325581395349019,
          "durationTicks": 2,
          "midi": 41,
          "name": "F2",
          "ticks": 4811,
          "time": 55.94186046511628,
          "velocity": 0.2992125984251969
        },
        {
          "duration": 0.15116279069767558,
          "durationTicks": 13,
          "midi": 40,
          "name": "E2",
          "ticks": 4813,
          "time": 55.96511627906977,
          "velocity": 0.28346456692913385
        },
        {
          "duration": 0.03488372093023173,
          "durationTicks": 3,
          "midi": 52,
          "name": "E3",
          "ticks": 4826,
          "time": 56.116279069767444,
          "velocity": 0.2440944881889764
        },
        {
          "duration": 0.03488372093023173,
          "durationTicks": 3,
          "midi": 40,
          "name": "E2",
          "ticks": 4827,
          "time": 56.127906976744185,
          "velocity": 0.2992125984251969
        },
        {
          "duration": 0.48837209302325846,
          "durationTicks": 42,
          "midi": 64,
          "name": "E4",
          "ticks": 4827,
          "time": 56.127906976744185,
          "velocity": 0.31496062992125984
        },
        {
          "duration": 0.06976744186046346,
          "durationTicks": 6,
          "midi": 52,
          "name": "E3",
          "ticks": 4830,
          "time": 56.16279069767442,
          "velocity": 0.23622047244094488
        },
        {
          "duration": 0.03488372093023173,
          "durationTicks": 3,
          "midi": 67,
          "name": "G4",
          "ticks": 4830,
          "time": 56.16279069767442,
          "velocity": 0.08661417322834646
        },
        {
          "duration": 0.03488372093023173,
          "durationTicks": 3,
          "midi": 40,
          "name": "E2",
          "ticks": 4831,
          "time": 56.174418604651166,
          "velocity": 0.2992125984251969
        },
        {
          "duration": 0.03488372093023173,
          "durationTicks": 3,
          "midi": 40,
          "name": "E2",
          "ticks": 4835,
          "time": 56.22093023255814,
          "velocity": 0.28346456692913385
        },
        {
          "duration": 0.04651162790698038,
          "durationTicks": 4,
          "midi": 71,
          "name": "B4",
          "ticks": 4835,
          "time": 56.22093023255814,
          "velocity": 0.10236220472440945
        },
        {
          "duration": 0.03488372093023173,
          "durationTicks": 3,
          "midi": 39,
          "name": "D#2",
          "ticks": 4838,
          "time": 56.25581395348837,
          "velocity": 0.2283464566929134
        },
        {
          "duration": 0.02325581395349019,
          "durationTicks": 2,
          "midi": 39,
          "name": "D#2",
          "ticks": 4844,
          "time": 56.325581395348834,
          "velocity": 0.29133858267716534
        },
        {
          "duration": 0.1046511627906952,
          "durationTicks": 9,
          "midi": 57,
          "name": "A3",
          "ticks": 4845,
          "time": 56.33720930232558,
          "velocity": 0.18110236220472442
        },
        {
          "duration": 0.023255813953483084,
          "durationTicks": 2,
          "midi": 35,
          "name": "B1",
          "ticks": 4847,
          "time": 56.36046511627907,
          "velocity": 0.3228346456692913
        },
        {
          "duration": 0.081395348837205,
          "durationTicks": 7,
          "midi": 50,
          "name": "D3",
          "ticks": 4847,
          "time": 56.36046511627907,
          "velocity": 0.2440944881889764
        },
        {
          "duration": 0.06976744186046346,
          "durationTicks": 6,
          "midi": 38,
          "name": "D2",
          "ticks": 4851,
          "time": 56.406976744186046,
          "velocity": 0.29133858267716534
        },
        {
          "duration": 0.02325581395349019,
          "durationTicks": 2,
          "midi": 37,
          "name": "C#2",
          "ticks": 4857,
          "time": 56.47674418604651,
          "velocity": 0.25196850393700787
        },
        {
          "duration": 0.04651162790698038,
          "durationTicks": 4,
          "midi": 51,
          "name": "D#3",
          "ticks": 4857,
          "time": 56.47674418604651,
          "velocity": 0.18110236220472442
        },
        {
          "duration": 0.04651162790698038,
          "durationTicks": 4,
          "midi": 74,
          "name": "D5",
          "ticks": 4860,
          "time": 56.51162790697674,
          "velocity": 0.08661417322834646
        },
        {
          "duration": 0.03488372093023173,
          "durationTicks": 3,
          "midi": 67,
          "name": "G4",
          "ticks": 4864,
          "time": 56.55813953488372,
          "velocity": 0.11023622047244094
        },
        {
          "duration": 0.15116279069767558,
          "durationTicks": 13,
          "midi": 60,
          "name": "C4",
          "ticks": 4865,
          "time": 56.56976744186046,
          "velocity": 0.23622047244094488
        },
        {
          "duration": 0.16279069767441712,
          "durationTicks": 14,
          "midi": 55,
          "name": "G3",
          "ticks": 4866,
          "time": 56.58139534883721,
          "velocity": 0.2125984251968504
        },
        {
          "duration": 0.13953488372093403,
          "durationTicks": 12,
          "midi": 48,
          "name": "C3",
          "ticks": 4868,
          "time": 56.604651162790695,
          "velocity": 0.33070866141732286
        },
        {
          "duration": 0.1046511627906952,
          "durationTicks": 9,
          "midi": 36,
          "name": "C2",
          "ticks": 4872,
          "time": 56.651162790697676,
          "velocity": 0.2755905511811024
        },
        {
          "duration": 0.23255813953488058,
          "durationTicks": 20,
          "midi": 64,
          "name": "E4",
          "ticks": 4872,
          "time": 56.651162790697676,
          "velocity": 0.2204724409448819
        },
        {
          "duration": 0.05813953488372192,
          "durationTicks": 5,
          "midi": 67,
          "name": "G4",
          "ticks": 4877,
          "time": 56.7093023255814,
          "velocity": 0.2125984251968504
        },
        {
          "duration": 0.03488372093023173,
          "durationTicks": 3,
          "midi": 59,
          "name": "B3",
          "ticks": 4878,
          "time": 56.72093023255814,
          "velocity": 0.1968503937007874
        },
        {
          "duration": 0.02325581395349019,
          "durationTicks": 2,
          "midi": 60,
          "name": "C4",
          "ticks": 4881,
          "time": 56.75581395348837,
          "velocity": 0.2283464566929134
        },
        {
          "duration": 0.08139534883721211,
          "durationTicks": 7,
          "midi": 71,
          "name": "B4",
          "ticks": 4886,
          "time": 56.81395348837209,
          "velocity": 0.12598425196850394
        },
        {
          "duration": 0.02325581395349019,
          "durationTicks": 2,
          "midi": 54,
          "name": "F#3",
          "ticks": 4888,
          "time": 56.83720930232558,
          "velocity": 0.2283464566929134
        },
        {
          "duration": 0.06976744186046346,
          "durationTicks": 6,
          "midi": 59,
          "name": "B3",
          "ticks": 4888,
          "time": 56.83720930232558,
          "velocity": 0.14173228346456693
        },
        {
          "duration": 0.11627906976744384,
          "durationTicks": 10,
          "midi": 47,
          "name": "B2",
          "ticks": 4889,
          "time": 56.848837209302324,
          "velocity": 0.33858267716535434
        },
        {
          "duration": 0.023255813953483084,
          "durationTicks": 2,
          "midi": 36,
          "name": "C2",
          "ticks": 4890,
          "time": 56.86046511627907,
          "velocity": 0.28346456692913385
        },
        {
          "duration": 0.05813953488372192,
          "durationTicks": 5,
          "midi": 35,
          "name": "B1",
          "ticks": 4894,
          "time": 56.906976744186046,
          "velocity": 0.2440944881889764
        },
        {
          "duration": 0.03488372093023884,
          "durationTicks": 3,
          "midi": 54,
          "name": "F#3",
          "ticks": 4895,
          "time": 56.91860465116279,
          "velocity": 0.2047244094488189
        },
        {
          "duration": 0.081395348837205,
          "durationTicks": 7,
          "midi": 64,
          "name": "E4",
          "ticks": 4896,
          "time": 56.93023255813954,
          "velocity": 0.11811023622047244
        },
        {
          "duration": 0.04651162790698038,
          "durationTicks": 4,
          "midi": 35,
          "name": "B1",
          "ticks": 4900,
          "time": 56.97674418604651,
          "velocity": 0.25196850393700787
        },
        {
          "duration": 0.1046511627907023,
          "durationTicks": 9,
          "midi": 57,
          "name": "A3",
          "ticks": 4906,
          "time": 57.04651162790697,
          "velocity": 0.2283464566929134
        },
        {
          "duration": 0.03488372093023173,
          "durationTicks": 3,
          "midi": 52,
          "name": "E3",
          "ticks": 4909,
          "time": 57.08139534883721,
          "velocity": 0.2440944881889764
        },
        {
          "duration": 0.04651162790698038,
          "durationTicks": 4,
          "midi": 33,
          "name": "A1",
          "ticks": 4913,
          "time": 57.127906976744185,
          "velocity": 0.2047244094488189
        },
        {
          "duration": 0.03488372093023173,
          "durationTicks": 3,
          "midi": 45,
          "name": "A2",
          "ticks": 4913,
          "time": 57.127906976744185,
          "velocity": 0.30708661417322836
        },
        {
          "duration": 0.02325581395349019,
          "durationTicks": 2,
          "midi": 52,
          "name": "E3",
          "ticks": 4913,
          "time": 57.127906976744185,
          "velocity": 0.23622047244094488
        },
        {
          "duration": 0.13953488372092693,
          "durationTicks": 12,
          "midi": 67,
          "name": "G4",
          "ticks": 4918,
          "time": 57.18604651162791,
          "velocity": 0.25196850393700787
        },
        {
          "duration": 0.02325581395349019,
          "durationTicks": 2,
          "midi": 45,
          "name": "A2",
          "ticks": 4919,
          "time": 57.19767441860465,
          "velocity": 0.25984251968503935
        },
        {
          "duration": 0.03488372093023173,
          "durationTicks": 3,
          "midi": 52,
          "name": "E3",
          "ticks": 4921,
          "time": 57.22093023255814,
          "velocity": 0.15748031496062992
        },
        {
          "duration": 0.03488372093023173,
          "durationTicks": 3,
          "midi": 55,
          "name": "G3",
          "ticks": 4924,
          "time": 57.25581395348837,
          "velocity": 0.15748031496062992
        },
        {
          "duration": 0.02325581395349019,
          "durationTicks": 2,
          "midi": 41,
          "name": "F2",
          "ticks": 4926,
          "time": 57.27906976744186,
          "velocity": 0.4094488188976378
        },
        {
          "duration": 0.05813953488372192,
          "durationTicks": 5,
          "midi": 50,
          "name": "D3",
          "ticks": 4927,
          "time": 57.2906976744186,
          "velocity": 0.2677165354330709
        },
        {
          "duration": 0.09302325581395365,
          "durationTicks": 8,
          "midi": 43,
          "name": "G2",
          "ticks": 4929,
          "time": 57.31395348837209,
          "velocity": 0.2755905511811024
        },
        {
          "duration": 0.03488372093023173,
          "durationTicks": 3,
          "midi": 31,
          "name": "G1",
          "ticks": 4932,
          "time": 57.348837209302324,
          "velocity": 0.2125984251968504
        },
        {
          "duration": 0.058139534883714816,
          "durationTicks": 5,
          "midi": 50,
          "name": "D3",
          "ticks": 4933,
          "time": 57.36046511627907,
          "velocity": 0.2204724409448819
        },
        {
          "duration": 0.058139534883714816,
          "durationTicks": 5,
          "midi": 54,
          "name": "F#3",
          "ticks": 4941,
          "time": 57.45348837209303,
          "velocity": 0.1732283464566929
        },
        {
          "duration": 0.08139534883721211,
          "durationTicks": 7,
          "midi": 64,
          "name": "E4",
          "ticks": 4946,
          "time": 57.51162790697674,
          "velocity": 0.15748031496062992
        },
        {
          "duration": 0.03488372093023173,
          "durationTicks": 3,
          "midi": 41,
          "name": "F2",
          "ticks": 4947,
          "time": 57.52325581395349,
          "velocity": 0.4094488188976378
        },
        {
          "duration": 0.081395348837205,
          "durationTicks": 7,
          "midi": 42,
          "name": "F#2",
          "ticks": 4950,
          "time": 57.55813953488372,
          "velocity": 0.3700787401574803
        },
        {
          "duration": 0.023255813953483084,
          "durationTicks": 2,
          "midi": 50,
          "name": "D3",
          "ticks": 4952,
          "time": 57.58139534883721,
          "velocity": 0.25196850393700787
        },
        {
          "duration": 0.046511627906973274,
          "durationTicks": 4,
          "midi": 70,
          "name": "A#4",
          "ticks": 4955,
          "time": 57.616279069767444,
          "velocity": 0.1968503937007874
        },
        {
          "duration": 0.02325581395349019,
          "durationTicks": 2,
          "midi": 41,
          "name": "F2",
          "ticks": 4959,
          "time": 57.66279069767442,
          "velocity": 0.30708661417322836
        },
        {
          "duration": 0.12790697674418539,
          "durationTicks": 11,
          "midi": 67,
          "name": "G4",
          "ticks": 4959,
          "time": 57.66279069767442,
          "velocity": 0.1889763779527559
        },
        {
          "duration": 0.046511627906973274,
          "durationTicks": 4,
          "midi": 40,
          "name": "E2",
          "ticks": 4961,
          "time": 57.68604651162791,
          "velocity": 0.2204724409448819
        },
        {
          "duration": 0.1860465116279073,
          "durationTicks": 16,
          "midi": 64,
          "name": "E4",
          "ticks": 4967,
          "time": 57.75581395348837,
          "velocity": 0.18110236220472442
        },
        {
          "duration": 0.02325581395349019,
          "durationTicks": 2,
          "midi": 39,
          "name": "D#2",
          "ticks": 4969,
          "time": 57.77906976744186,
          "velocity": 0.33070866141732286
        },
        {
          "duration": 0.05813953488372192,
          "durationTicks": 5,
          "midi": 52,
          "name": "E3",
          "ticks": 4969,
          "time": 57.77906976744186,
          "velocity": 0.29133858267716534
        },
        {
          "duration": 0.09302325581395365,
          "durationTicks": 8,
          "midi": 40,
          "name": "E2",
          "ticks": 4971,
          "time": 57.80232558139535,
          "velocity": 0.3464566929133858
        },
        {
          "duration": 0.05813953488372192,
          "durationTicks": 5,
          "midi": 40,
          "name": "E2",
          "ticks": 4980,
          "time": 57.906976744186046,
          "velocity": 0.3228346456692913
        },
        {
          "duration": 0.2093023255813904,
          "durationTicks": 18,
          "midi": 52,
          "name": "E3",
          "ticks": 4984,
          "time": 57.95348837209303,
          "velocity": 0.33070866141732286
        },
        {
          "duration": 0.02325581395349019,
          "durationTicks": 2,
          "midi": 41,
          "name": "F2",
          "ticks": 4986,
          "time": 57.97674418604651,
          "velocity": 0.33070866141732286
        },
        {
          "duration": 0.16279069767441712,
          "durationTicks": 14,
          "midi": 59,
          "name": "B3",
          "ticks": 4987,
          "time": 57.98837209302326,
          "velocity": 0.1968503937007874
        },
        {
          "duration": 0.02325581395349019,
          "durationTicks": 2,
          "midi": 39,
          "name": "D#2",
          "ticks": 4988,
          "time": 58,
          "velocity": 0.33070866141732286
        },
        {
          "duration": 0.12790697674418539,
          "durationTicks": 11,
          "midi": 40,
          "name": "E2",
          "ticks": 4990,
          "time": 58.02325581395349,
          "velocity": 0.3464566929133858
        },
        {
          "duration": 0.03488372093023884,
          "durationTicks": 3,
          "midi": 67,
          "name": "G4",
          "ticks": 4992,
          "time": 58.04651162790697,
          "velocity": 0.14173228346456693
        },
        {
          "duration": 0.046511627906973274,
          "durationTicks": 4,
          "midi": 41,
          "name": "F2",
          "ticks": 5001,
          "time": 58.151162790697676,
          "velocity": 0.3228346456692913
        },
        {
          "duration": 0.1046511627907023,
          "durationTicks": 9,
          "midi": 69,
          "name": "A4",
          "ticks": 5005,
          "time": 58.19767441860465,
          "velocity": 0.10236220472440945
        },
        {
          "duration": 0.13953488372092693,
          "durationTicks": 12,
          "midi": 57,
          "name": "A3",
          "ticks": 5006,
          "time": 58.2093023255814,
          "velocity": 0.18110236220472442
        },
        {
          "duration": 0.1046511627906952,
          "durationTicks": 9,
          "midi": 74,
          "name": "D5",
          "ticks": 5006,
          "time": 58.2093023255814,
          "velocity": 0.09448818897637795
        },
        {
          "duration": 0.04651162790698038,
          "durationTicks": 4,
          "midi": 88,
          "name": "E6",
          "ticks": 5007,
          "time": 58.22093023255814,
          "velocity": 0.07086614173228346
        },
        {
          "duration": 0.02325581395349019,
          "durationTicks": 2,
          "midi": 37,
          "name": "C#2",
          "ticks": 5009,
          "time": 58.24418604651163,
          "velocity": 0.30708661417322836
        },
        {
          "duration": 0.046511627906973274,
          "durationTicks": 4,
          "midi": 50,
          "name": "D3",
          "ticks": 5009,
          "time": 58.24418604651163,
          "velocity": 0.14173228346456693
        },
        {
          "duration": 0.15116279069767558,
          "durationTicks": 13,
          "midi": 62,
          "name": "D4",
          "ticks": 5010,
          "time": 58.25581395348837,
          "velocity": 0.2047244094488189
        },
        {
          "duration": 0.1046511627906952,
          "durationTicks": 9,
          "midi": 38,
          "name": "D2",
          "ticks": 5011,
          "time": 58.26744186046512,
          "velocity": 0.2992125984251969
        },
        {
          "duration": 0.09302325581395365,
          "durationTicks": 8,
          "midi": 67,
          "name": "G4",
          "ticks": 5019,
          "time": 58.36046511627907,
          "velocity": 0.18110236220472442
        },
        {
          "duration": 0.03488372093023173,
          "durationTicks": 3,
          "midi": 37,
          "name": "C#2",
          "ticks": 5020,
          "time": 58.372093023255815,
          "velocity": 0.25984251968503935
        },
        {
          "duration": 0.16279069767441712,
          "durationTicks": 14,
          "midi": 60,
          "name": "C4",
          "ticks": 5027,
          "time": 58.45348837209303,
          "velocity": 0.23622047244094488
        },
        {
          "duration": 0.046511627906973274,
          "durationTicks": 4,
          "midi": 48,
          "name": "C3",
          "ticks": 5028,
          "time": 58.46511627906977,
          "velocity": 0.30708661417322836
        },
        {
          "duration": 0.046511627906973274,
          "durationTicks": 4,
          "midi": 36,
          "name": "C2",
          "ticks": 5033,
          "time": 58.52325581395349,
          "velocity": 0.2047244094488189
        },
        {
          "duration": 0.023255813953483084,
          "durationTicks": 2,
          "midi": 52,
          "name": "E3",
          "ticks": 5033,
          "time": 58.52325581395349,
          "velocity": 0.2440944881889764
        },
        {
          "duration": 0.046511627906973274,
          "durationTicks": 4,
          "midi": 55,
          "name": "G3",
          "ticks": 5036,
          "time": 58.55813953488372,
          "velocity": 0.14173228346456693
        },
        {
          "duration": 0.02325581395349019,
          "durationTicks": 2,
          "midi": 35,
          "name": "B1",
          "ticks": 5037,
          "time": 58.56976744186046,
          "velocity": 0.2283464566929134
        },
        {
          "duration": 0.03488372093023173,
          "durationTicks": 3,
          "midi": 48,
          "name": "C3",
          "ticks": 5038,
          "time": 58.58139534883721,
          "velocity": 0.2755905511811024
        },
        {
          "duration": 0.1046511627906952,
          "durationTicks": 9,
          "midi": 67,
          "name": "G4",
          "ticks": 5038,
          "time": 58.58139534883721,
          "velocity": 0.1889763779527559
        },
        {
          "duration": 0.02325581395349019,
          "durationTicks": 2,
          "midi": 36,
          "name": "C2",
          "ticks": 5039,
          "time": 58.593023255813954,
          "velocity": 0.23622047244094488
        },
        {
          "duration": 0.03488372093023173,
          "durationTicks": 3,
          "midi": 59,
          "name": "B3",
          "ticks": 5041,
          "time": 58.616279069767444,
          "velocity": 0.1732283464566929
        },
        {
          "duration": 0.09302325581395365,
          "durationTicks": 8,
          "midi": 71,
          "name": "B4",
          "ticks": 5045,
          "time": 58.66279069767442,
          "velocity": 0.12598425196850394
        },
        {
          "duration": 0.023255813953483084,
          "durationTicks": 2,
          "midi": 54,
          "name": "F#3",
          "ticks": 5046,
          "time": 58.674418604651166,
          "velocity": 0.29133858267716534
        },
        {
          "duration": 0.081395348837205,
          "durationTicks": 7,
          "midi": 59,
          "name": "B3",
          "ticks": 5046,
          "time": 58.674418604651166,
          "velocity": 0.1968503937007874
        },
        {
          "duration": 0.03488372093023173,
          "durationTicks": 3,
          "midi": 63,
          "name": "D#4",
          "ticks": 5046,
          "time": 58.674418604651166,
          "velocity": 0.11811023622047244
        },
        {
          "duration": 0.09302325581395365,
          "durationTicks": 8,
          "midi": 66,
          "name": "F#4",
          "ticks": 5048,
          "time": 58.69767441860465,
          "velocity": 0.12598425196850394
        },
        {
          "duration": 0.09302325581395365,
          "durationTicks": 8,
          "midi": 52,
          "name": "E3",
          "ticks": 5049,
          "time": 58.7093023255814,
          "velocity": 0.2992125984251969
        },
        {
          "duration": 0.02325581395349019,
          "durationTicks": 2,
          "midi": 35,
          "name": "B1",
          "ticks": 5053,
          "time": 58.75581395348837,
          "velocity": 0.23622047244094488
        },
        {
          "duration": 0.03488372093023173,
          "durationTicks": 3,
          "midi": 35,
          "name": "B1",
          "ticks": 5056,
          "time": 58.7906976744186,
          "velocity": 0.2204724409448819
        },
        {
          "duration": 0.03488372093023173,
          "durationTicks": 3,
          "midi": 47,
          "name": "B2",
          "ticks": 5056,
          "time": 58.7906976744186,
          "velocity": 0.2755905511811024
        },
        {
          "duration": 0.03488372093023884,
          "durationTicks": 3,
          "midi": 52,
          "name": "E3",
          "ticks": 5059,
          "time": 58.825581395348834,
          "velocity": 0.25196850393700787
        },
        {
          "duration": 0.08139534883721211,
          "durationTicks": 7,
          "midi": 59,
          "name": "B3",
          "ticks": 5059,
          "time": 58.825581395348834,
          "velocity": 0.11811023622047244
        },
        {
          "duration": 0.02325581395349019,
          "durationTicks": 2,
          "midi": 35,
          "name": "B1",
          "ticks": 5060,
          "time": 58.83720930232558,
          "velocity": 0.23622047244094488
        },
        {
          "duration": 0.023255813953483084,
          "durationTicks": 2,
          "midi": 36,
          "name": "C2",
          "ticks": 5062,
          "time": 58.86046511627907,
          "velocity": 0.25984251968503935
        },
        {
          "duration": 0.023255813953483084,
          "durationTicks": 2,
          "midi": 44,
          "name": "G#2",
          "ticks": 5065,
          "time": 58.895348837209305,
          "velocity": 0.30708661417322836
        },
        {
          "duration": 0.12790697674418539,
          "durationTicks": 11,
          "midi": 52,
          "name": "E3",
          "ticks": 5065,
          "time": 58.895348837209305,
          "velocity": 0.2677165354330709
        },
        {
          "duration": 0.15116279069767558,
          "durationTicks": 13,
          "midi": 45,
          "name": "A2",
          "ticks": 5067,
          "time": 58.91860465116279,
          "velocity": 0.3464566929133858
        },
        {
          "duration": 0.03488372093023173,
          "durationTicks": 3,
          "midi": 32,
          "name": "G#1",
          "ticks": 5068,
          "time": 58.93023255813954,
          "velocity": 0.2204724409448819
        },
        {
          "duration": 0.081395348837205,
          "durationTicks": 7,
          "midi": 66,
          "name": "F#4",
          "ticks": 5068,
          "time": 58.93023255813954,
          "velocity": 0.11023622047244094
        },
        {
          "duration": 0.03488372093023173,
          "durationTicks": 3,
          "midi": 64,
          "name": "E4",
          "ticks": 5076,
          "time": 59.02325581395349,
          "velocity": 0.14173228346456693
        },
        {
          "duration": 0.04651162790698038,
          "durationTicks": 4,
          "midi": 44,
          "name": "G#2",
          "ticks": 5080,
          "time": 59.06976744186046,
          "velocity": 0.25984251968503935
        },
        {
          "duration": 0.03488372093023173,
          "durationTicks": 3,
          "midi": 64,
          "name": "E4",
          "ticks": 5080,
          "time": 59.06976744186046,
          "velocity": 0.11023622047244094
        },
        {
          "duration": 0.046511627906973274,
          "durationTicks": 4,
          "midi": 32,
          "name": "G#1",
          "ticks": 5081,
          "time": 59.08139534883721,
          "velocity": 0.15748031496062992
        },
        {
          "duration": 0.058139534883714816,
          "durationTicks": 5,
          "midi": 52,
          "name": "E3",
          "ticks": 5081,
          "time": 59.08139534883721,
          "velocity": 0.11023622047244094
        },
        {
          "duration": 0.04651162790698038,
          "durationTicks": 4,
          "midi": 62,
          "name": "D4",
          "ticks": 5085,
          "time": 59.127906976744185,
          "velocity": 0.13385826771653545
        },
        {
          "duration": 0.02325581395349019,
          "durationTicks": 2,
          "midi": 41,
          "name": "F2",
          "ticks": 5086,
          "time": 59.13953488372093,
          "velocity": 0.33070866141732286
        },
        {
          "duration": 0.058139534883714816,
          "durationTicks": 5,
          "midi": 43,
          "name": "G2",
          "ticks": 5089,
          "time": 59.174418604651166,
          "velocity": 0.25984251968503935
        },
        {
          "duration": 0.06976744186046346,
          "durationTicks": 6,
          "midi": 50,
          "name": "D3",
          "ticks": 5090,
          "time": 59.18604651162791,
          "velocity": 0.1889763779527559
        },
        {
          "duration": 0.03488372093023173,
          "durationTicks": 3,
          "midi": 31,
          "name": "G1",
          "ticks": 5091,
          "time": 59.19767441860465,
          "velocity": 0.1968503937007874
        },
        {
          "duration": 0.05813953488372192,
          "durationTicks": 5,
          "midi": 43,
          "name": "G2",
          "ticks": 5095,
          "time": 59.24418604651163,
          "velocity": 0.30708661417322836
        },
        {
          "duration": 0.03488372093023173,
          "durationTicks": 3,
          "midi": 62,
          "name": "D4",
          "ticks": 5096,
          "time": 59.25581395348837,
          "velocity": 0.07874015748031496
        },
        {
          "duration": 0.06976744186046346,
          "durationTicks": 6,
          "midi": 67,
          "name": "G4",
          "ticks": 5098,
          "time": 59.27906976744186,
          "velocity": 0.14960629921259844
        },
        {
          "duration": 0.03488372093023173,
          "durationTicks": 3,
          "midi": 42,
          "name": "F#2",
          "ticks": 5100,
          "time": 59.30232558139535,
          "velocity": 0.1889763779527559
        },
        {
          "duration": 0.03488372093023173,
          "durationTicks": 3,
          "midi": 50,
          "name": "D3",
          "ticks": 5104,
          "time": 59.348837209302324,
          "velocity": 0.2755905511811024
        },
        {
          "duration": 0.03488372093023173,
          "durationTicks": 3,
          "midi": 55,
          "name": "G3",
          "ticks": 5104,
          "time": 59.348837209302324,
          "velocity": 0.2440944881889764
        },
        {
          "duration": 0.04651162790698038,
          "durationTicks": 4,
          "midi": 70,
          "name": "A#4",
          "ticks": 5104,
          "time": 59.348837209302324,
          "velocity": 0.2440944881889764
        },
        {
          "duration": 0.02325581395349019,
          "durationTicks": 2,
          "midi": 53,
          "name": "F3",
          "ticks": 5107,
          "time": 59.383720930232556,
          "velocity": 0.29133858267716534
        },
        {
          "duration": 0.023255813953483084,
          "durationTicks": 2,
          "midi": 41,
          "name": "F2",
          "ticks": 5108,
          "time": 59.395348837209305,
          "velocity": 0.41732283464566927
        },
        {
          "duration": 0.02325581395349019,
          "durationTicks": 2,
          "midi": 50,
          "name": "D3",
          "ticks": 5109,
          "time": 59.406976744186046,
          "velocity": 0.29133858267716534
        },
        {
          "duration": 0.04651162790698038,
          "durationTicks": 4,
          "midi": 61,
          "name": "C#4",
          "ticks": 5109,
          "time": 59.406976744186046,
          "velocity": 0.12598425196850394
        },
        {
          "duration": 0.11627906976744384,
          "durationTicks": 10,
          "midi": 42,
          "name": "F#2",
          "ticks": 5110,
          "time": 59.41860465116279,
          "velocity": 0.3543307086614173
        },
        {
          "duration": 0.023255813953483084,
          "durationTicks": 2,
          "midi": 51,
          "name": "D#3",
          "ticks": 5113,
          "time": 59.45348837209303,
          "velocity": 0.28346456692913385
        },
        {
          "duration": 0.09302325581395365,
          "durationTicks": 8,
          "midi": 67,
          "name": "G4",
          "ticks": 5117,
          "time": 59.5,
          "velocity": 0.2047244094488189
        },
        {
          "duration": 0.06976744186047057,
          "durationTicks": 6,
          "midi": 59,
          "name": "B3",
          "ticks": 5118,
          "time": 59.51162790697674,
          "velocity": 0.07086614173228346
        },
        {
          "duration": 0.43023255813952943,
          "durationTicks": 37,
          "midi": 64,
          "name": "E4",
          "ticks": 5124,
          "time": 59.58139534883721,
          "velocity": 0.2204724409448819
        },
        {
          "duration": 0.023255813953483084,
          "durationTicks": 2,
          "midi": 37,
          "name": "C#2",
          "ticks": 5127,
          "time": 59.616279069767444,
          "velocity": 0.33070866141732286
        },
        {
          "duration": 0.03488372093023173,
          "durationTicks": 3,
          "midi": 67,
          "name": "G4",
          "ticks": 5128,
          "time": 59.627906976744185,
          "velocity": 0.15748031496062992
        },
        {
          "duration": 0.03488372093023173,
          "durationTicks": 3,
          "midi": 40,
          "name": "E2",
          "ticks": 5130,
          "time": 59.651162790697676,
          "velocity": 0.3228346456692913
        },
        {
          "duration": 0.03488372093023173,
          "durationTicks": 3,
          "midi": 56,
          "name": "G#3",
          "ticks": 5133,
          "time": 59.68604651162791,
          "velocity": 0.12598425196850394
        },
        {
          "duration": 0.11627906976744384,
          "durationTicks": 10,
          "midi": 40,
          "name": "E2",
          "ticks": 5134,
          "time": 59.69767441860465,
          "velocity": 0.33070866141732286
        },
        {
          "duration": 0.1046511627907023,
          "durationTicks": 9,
          "midi": 59,
          "name": "B3",
          "ticks": 5137,
          "time": 59.73255813953488,
          "velocity": 0.16535433070866143
        },
        {
          "duration": 0.04651162790698038,
          "durationTicks": 4,
          "midi": 40,
          "name": "E2",
          "ticks": 5145,
          "time": 59.825581395348834,
          "velocity": 0.31496062992125984
        },
        {
          "duration": 0.06976744186046346,
          "durationTicks": 6,
          "midi": 52,
          "name": "E3",
          "ticks": 5149,
          "time": 59.872093023255815,
          "velocity": 0.25196850393700787
        },
        {
          "duration": 0.13953488372092693,
          "durationTicks": 12,
          "midi": 40,
          "name": "E2",
          "ticks": 5151,
          "time": 59.895348837209305,
          "velocity": 0.33070866141732286
        },
        {
          "duration": 0.05813953488372192,
          "durationTicks": 5,
          "midi": 59,
          "name": "B3",
          "ticks": 5155,
          "time": 59.94186046511628,
          "velocity": 0.14173228346456693
        },
        {
          "duration": 0.11627906976743674,
          "durationTicks": 10,
          "midi": 67,
          "name": "G4",
          "ticks": 5156,
          "time": 59.95348837209303,
          "velocity": 0.25984251968503935
        },
        {
          "duration": 0.02325581395349019,
          "durationTicks": 2,
          "midi": 41,
          "name": "F2",
          "ticks": 5163,
          "time": 60.03488372093023,
          "velocity": 0.30708661417322836
        },
        {
          "duration": 0.15116279069767558,
          "durationTicks": 13,
          "midi": 57,
          "name": "A3",
          "ticks": 5166,
          "time": 60.06976744186046,
          "velocity": 0.2283464566929134
        },
        {
          "duration": 0.06976744186046346,
          "durationTicks": 6,
          "midi": 62,
          "name": "D4",
          "ticks": 5167,
          "time": 60.08139534883721,
          "velocity": 0.11811023622047244
        },
        {
          "duration": 0.058139534883714816,
          "durationTicks": 5,
          "midi": 88,
          "name": "E6",
          "ticks": 5167,
          "time": 60.08139534883721,
          "velocity": 0.09448818897637795
        },
        {
          "duration": 0.03488372093023173,
          "durationTicks": 3,
          "midi": 38,
          "name": "D2",
          "ticks": 5168,
          "time": 60.093023255813954,
          "velocity": 0.2755905511811024
        },
        {
          "duration": 0.15116279069767558,
          "durationTicks": 13,
          "midi": 74,
          "name": "D5",
          "ticks": 5169,
          "time": 60.104651162790695,
          "velocity": 0.11811023622047244
        },
        {
          "duration": 0.02325581395349019,
          "durationTicks": 2,
          "midi": 38,
          "name": "D2",
          "ticks": 5174,
          "time": 60.16279069767442,
          "velocity": 0.25984251968503935
        },
        {
          "duration": 0.04651162790698038,
          "durationTicks": 4,
          "midi": 38,
          "name": "D2",
          "ticks": 5177,
          "time": 60.19767441860465,
          "velocity": 0.2440944881889764
        },
        {
          "duration": 0.11627906976744384,
          "durationTicks": 10,
          "midi": 67,
          "name": "G4",
          "ticks": 5184,
          "time": 60.27906976744186,
          "velocity": 0.14173228346456693
        },
        {
          "duration": 0.02325581395349019,
          "durationTicks": 2,
          "midi": 45,
          "name": "A2",
          "ticks": 5185,
          "time": 60.2906976744186,
          "velocity": 0.3464566929133858
        },
        {
          "duration": 0.15116279069767558,
          "durationTicks": 13,
          "midi": 55,
          "name": "G3",
          "ticks": 5187,
          "time": 60.31395348837209,
          "velocity": 0.2125984251968504
        },
        {
          "duration": 0.02325581395349019,
          "durationTicks": 2,
          "midi": 36,
          "name": "C2",
          "ticks": 5188,
          "time": 60.325581395348834,
          "velocity": 0.25984251968503935
        },
        {
          "duration": 0.1279069767441925,
          "durationTicks": 11,
          "midi": 48,
          "name": "C3",
          "ticks": 5188,
          "time": 60.325581395348834,
          "velocity": 0.30708661417322836
        },
        {
          "duration": 0.1279069767441925,
          "durationTicks": 11,
          "midi": 64,
          "name": "E4",
          "ticks": 5188,
          "time": 60.325581395348834,
          "velocity": 0.1889763779527559
        },
        {
          "duration": 0.15116279069766847,
          "durationTicks": 13,
          "midi": 36,
          "name": "C2",
          "ticks": 5191,
          "time": 60.36046511627907,
          "velocity": 0.2440944881889764
        },
        {
          "duration": 0.03488372093023173,
          "durationTicks": 3,
          "midi": 59,
          "name": "B3",
          "ticks": 5199,
          "time": 60.45348837209303,
          "velocity": 0.09448818897637795
        },
        {
          "duration": 0.058139534883714816,
          "durationTicks": 5,
          "midi": 60,
          "name": "C4",
          "ticks": 5202,
          "time": 60.48837209302326,
          "velocity": 0.16535433070866143
        },
        {
          "duration": 0.02325581395349019,
          "durationTicks": 2,
          "midi": 41,
          "name": "F2",
          "ticks": 5204,
          "time": 60.51162790697674,
          "velocity": 0.33070866141732286
        },
        {
          "duration": 0.081395348837205,
          "durationTicks": 7,
          "midi": 71,
          "name": "B4",
          "ticks": 5205,
          "time": 60.52325581395349,
          "velocity": 0.11811023622047244
        },
        {
          "duration": 0.09302325581395365,
          "durationTicks": 8,
          "midi": 59,
          "name": "B3",
          "ticks": 5207,
          "time": 60.54651162790697,
          "velocity": 0.2047244094488189
        },
        {
          "duration": 0.046511627906973274,
          "durationTicks": 4,
          "midi": 66,
          "name": "F#4",
          "ticks": 5210,
          "time": 60.58139534883721,
          "velocity": 0.14173228346456693
        },
        {
          "duration": 0.03488372093023173,
          "durationTicks": 3,
          "midi": 35,
          "name": "B1",
          "ticks": 5211,
          "time": 60.593023255813954,
          "velocity": 0.1968503937007874
        },
        {
          "duration": 0.05813953488372192,
          "durationTicks": 5,
          "midi": 35,
          "name": "B1",
          "ticks": 5215,
          "time": 60.63953488372093,
          "velocity": 0.1968503937007874
        },
        {
          "duration": 0.08139534883721211,
          "durationTicks": 7,
          "midi": 47,
          "name": "B2",
          "ticks": 5217,
          "time": 60.66279069767442,
          "velocity": 0.28346456692913385
        },
        {
          "duration": 0.03488372093023173,
          "durationTicks": 3,
          "midi": 36,
          "name": "C2",
          "ticks": 5222,
          "time": 60.72093023255814,
          "velocity": 0.1889763779527559
        },
        {
          "duration": 0.11627906976744384,
          "durationTicks": 10,
          "midi": 64,
          "name": "E4",
          "ticks": 5225,
          "time": 60.75581395348837,
          "velocity": 0.1889763779527559
        },
        {
          "duration": 0.046511627906973274,
          "durationTicks": 4,
          "midi": 57,
          "name": "A3",
          "ticks": 5227,
          "time": 60.77906976744186,
          "velocity": 0.1732283464566929
        },
        {
          "duration": 0.02325581395349019,
          "durationTicks": 2,
          "midi": 44,
          "name": "G#2",
          "ticks": 5228,
          "time": 60.7906976744186,
          "velocity": 0.3779527559055118
        },
        {
          "duration": 0.15116279069767558,
          "durationTicks": 13,
          "midi": 52,
          "name": "E3",
          "ticks": 5229,
          "time": 60.80232558139535,
          "velocity": 0.2677165354330709
        },
        {
          "duration": 0.09302325581395365,
          "durationTicks": 8,
          "midi": 45,
          "name": "A2",
          "ticks": 5230,
          "time": 60.81395348837209,
          "velocity": 0.33070866141732286
        },
        {
          "duration": 0.15116279069767558,
          "durationTicks": 13,
          "midi": 33,
          "name": "A1",
          "ticks": 5232,
          "time": 60.83720930232558,
          "velocity": 0.25984251968503935
        },
        {
          "duration": 0.05813953488372192,
          "durationTicks": 5,
          "midi": 69,
          "name": "A4",
          "ticks": 5238,
          "time": 60.906976744186046,
          "velocity": 0.09448818897637795
        },
        {
          "duration": 0.05813953488372192,
          "durationTicks": 5,
          "midi": 45,
          "name": "A2",
          "ticks": 5239,
          "time": 60.91860465116279,
          "velocity": 0.31496062992125984
        },
        {
          "duration": 0.06976744186047057,
          "durationTicks": 6,
          "midi": 67,
          "name": "G4",
          "ticks": 5239,
          "time": 60.91860465116279,
          "velocity": 0.18110236220472442
        },
        {
          "duration": 0.02325581395349019,
          "durationTicks": 2,
          "midi": 54,
          "name": "F#3",
          "ticks": 5246,
          "time": 61,
          "velocity": 0.2677165354330709
        },
        {
          "duration": 0.06976744186046346,
          "durationTicks": 6,
          "midi": 55,
          "name": "G3",
          "ticks": 5248,
          "time": 61.02325581395349,
          "velocity": 0.2677165354330709
        },
        {
          "duration": 0.02325581395349019,
          "durationTicks": 2,
          "midi": 42,
          "name": "F#2",
          "ticks": 5249,
          "time": 61.03488372093023,
          "velocity": 0.3700787401574803
        },
        {
          "duration": 0.04651162790698038,
          "durationTicks": 4,
          "midi": 50,
          "name": "D3",
          "ticks": 5250,
          "time": 61.04651162790697,
          "velocity": 0.2125984251968504
        },
        {
          "duration": 0.12790697674418539,
          "durationTicks": 11,
          "midi": 43,
          "name": "G2",
          "ticks": 5251,
          "time": 61.05813953488372,
          "velocity": 0.30708661417322836
        },
        {
          "duration": 0.1046511627906952,
          "durationTicks": 9,
          "midi": 31,
          "name": "G1",
          "ticks": 5256,
          "time": 61.116279069767444,
          "velocity": 0.2047244094488189
        },
        {
          "duration": 0.16279069767441712,
          "durationTicks": 14,
          "midi": 67,
          "name": "G4",
          "ticks": 5259,
          "time": 61.151162790697676,
          "velocity": 0.2047244094488189
        },
        {
          "duration": 0.03488372093023173,
          "durationTicks": 3,
          "midi": 44,
          "name": "G#2",
          "ticks": 5262,
          "time": 61.18604651162791,
          "velocity": 0.2047244094488189
        },
        {
          "duration": 0.03488372093023173,
          "durationTicks": 3,
          "midi": 32,
          "name": "G#1",
          "ticks": 5265,
          "time": 61.22093023255814,
          "velocity": 0.12598425196850394
        },
        {
          "duration": 0.04651162790698038,
          "durationTicks": 4,
          "midi": 70,
          "name": "A#4",
          "ticks": 5265,
          "time": 61.22093023255814,
          "velocity": 0.1968503937007874
        },
        {
          "duration": 0.03488372093023173,
          "durationTicks": 3,
          "midi": 41,
          "name": "F2",
          "ticks": 5269,
          "time": 61.26744186046512,
          "velocity": 0.3779527559055118
        },
        {
          "duration": 0.03488372093023173,
          "durationTicks": 3,
          "midi": 58,
          "name": "A#3",
          "ticks": 5269,
          "time": 61.26744186046512,
          "velocity": 0.09448818897637795
        },
        {
          "duration": 0.11627906976744384,
          "durationTicks": 10,
          "midi": 61,
          "name": "C#4",
          "ticks": 5271,
          "time": 61.2906976744186,
          "velocity": 0.13385826771653545
        },
        {
          "duration": 0.081395348837205,
          "durationTicks": 7,
          "midi": 42,
          "name": "F#2",
          "ticks": 5272,
          "time": 61.30232558139535,
          "velocity": 0.33858267716535434
        },
        {
          "duration": 0.03488372093023173,
          "durationTicks": 3,
          "midi": 54,
          "name": "F#3",
          "ticks": 5279,
          "time": 61.383720930232556,
          "velocity": 0.18110236220472442
        },
        {
          "duration": 0.05813953488372192,
          "durationTicks": 5,
          "midi": 40,
          "name": "E2",
          "ticks": 5280,
          "time": 61.395348837209305,
          "velocity": 0.2677165354330709
        },
        {
          "duration": 0.1046511627906952,
          "durationTicks": 9,
          "midi": 67,
          "name": "G4",
          "ticks": 5280,
          "time": 61.395348837209305,
          "velocity": 0.2125984251968504
        },
        {
          "duration": 0.03488372093023884,
          "durationTicks": 3,
          "midi": 53,
          "name": "F3",
          "ticks": 5282,
          "time": 61.41860465116279,
          "velocity": 0.16535433070866143
        },
        {
          "duration": 0.02325581395349019,
          "durationTicks": 2,
          "midi": 40,
          "name": "E2",
          "ticks": 5286,
          "time": 61.46511627906977,
          "velocity": 0.29133858267716534
        },
        {
          "duration": 0.11627906976744384,
          "durationTicks": 10,
          "midi": 52,
          "name": "E3",
          "ticks": 5287,
          "time": 61.47674418604651,
          "velocity": 0.2992125984251969
        },
        {
          "duration": 0.1860465116279073,
          "durationTicks": 16,
          "midi": 59,
          "name": "B3",
          "ticks": 5289,
          "time": 61.5,
          "velocity": 0.12598425196850394
        },
        {
          "duration": 0.02325581395349019,
          "durationTicks": 2,
          "midi": 40,
          "name": "E2",
          "ticks": 5290,
          "time": 61.51162790697674,
          "velocity": 0.2677165354330709
        },
        {
          "duration": 0.03488372093023173,
          "durationTicks": 3,
          "midi": 47,
          "name": "B2",
          "ticks": 5298,
          "time": 61.604651162790695,
          "velocity": 0.14960629921259844
        },
        {
          "duration": 0.03488372093023173,
          "durationTicks": 3,
          "midi": 52,
          "name": "E3",
          "ticks": 5298,
          "time": 61.604651162790695,
          "velocity": 0.13385826771653545
        },
        {
          "duration": 0.04651162790698038,
          "durationTicks": 4,
          "midi": 51,
          "name": "D#3",
          "ticks": 5306,
          "time": 61.69767441860465,
          "velocity": 0.2283464566929134
        },
        {
          "duration": 0.09302325581395365,
          "durationTicks": 8,
          "midi": 47,
          "name": "B2",
          "ticks": 5309,
          "time": 61.73255813953488,
          "velocity": 0.2047244094488189
        },
        {
          "duration": 0.03488372093023173,
          "durationTicks": 3,
          "midi": 67,
          "name": "G4",
          "ticks": 5314,
          "time": 61.7906976744186,
          "velocity": 0.2283464566929134
        },
        {
          "duration": 0.1279069767441925,
          "durationTicks": 11,
          "midi": 64,
          "name": "E4",
          "ticks": 5317,
          "time": 61.825581395348834,
          "velocity": 0.2677165354330709
        },
        {
          "duration": 0.11627906976744384,
          "durationTicks": 10,
          "midi": 71,
          "name": "B4",
          "ticks": 5317,
          "time": 61.825581395348834,
          "velocity": 0.2047244094488189
        },
        {
          "duration": 0.02325581395349019,
          "durationTicks": 2,
          "midi": 41,
          "name": "F2",
          "ticks": 5318,
          "time": 61.83720930232558,
          "velocity": 0.29133858267716534
        },
        {
          "duration": 0.1046511627907023,
          "durationTicks": 9,
          "midi": 67,
          "name": "G4",
          "ticks": 5319,
          "time": 61.848837209302324,
          "velocity": 0.1968503937007874
        },
        {
          "duration": 0.06976744186046346,
          "durationTicks": 6,
          "midi": 52,
          "name": "E3",
          "ticks": 5320,
          "time": 61.86046511627907,
          "velocity": 0.2283464566929134
        },
        {
          "duration": 0.046511627906973274,
          "durationTicks": 4,
          "midi": 69,
          "name": "A4",
          "ticks": 5328,
          "time": 61.95348837209303,
          "velocity": 0.10236220472440945
        },
        {
          "duration": 0.081395348837205,
          "durationTicks": 7,
          "midi": 74,
          "name": "D5",
          "ticks": 5328,
          "time": 61.95348837209303,
          "velocity": 0.11811023622047244
        },
        {
          "duration": 0.11627906976744384,
          "durationTicks": 10,
          "midi": 69,
          "name": "A4",
          "ticks": 5336,
          "time": 62.04651162790697,
          "velocity": 0.18110236220472442
        },
        {
          "duration": 0.1046511627907023,
          "durationTicks": 9,
          "midi": 74,
          "name": "D5",
          "ticks": 5336,
          "time": 62.04651162790697,
          "velocity": 0.12598425196850394
        },
        {
          "duration": 0.1046511627906952,
          "durationTicks": 9,
          "midi": 62,
          "name": "D4",
          "ticks": 5337,
          "time": 62.05813953488372,
          "velocity": 0.2204724409448819
        },
        {
          "duration": 0.06976744186046346,
          "durationTicks": 6,
          "midi": 50,
          "name": "D3",
          "ticks": 5338,
          "time": 62.06976744186046,
          "velocity": 0.25196850393700787
        },
        {
          "duration": 0.03488372093023173,
          "durationTicks": 3,
          "midi": 73,
          "name": "C#5",
          "ticks": 5345,
          "time": 62.151162790697676,
          "velocity": 0.10236220472440945
        },
        {
          "duration": 0.02325581395349019,
          "durationTicks": 2,
          "midi": 61,
          "name": "C#4",
          "ticks": 5346,
          "time": 62.16279069767442,
          "velocity": 0.2283464566929134
        },
        {
          "duration": 0.05813953488372192,
          "durationTicks": 5,
          "midi": 60,
          "name": "C4",
          "ticks": 5348,
          "time": 62.18604651162791,
          "velocity": 0.2125984251968504
        },
        {
          "duration": 0.06976744186046346,
          "durationTicks": 6,
          "midi": 67,
          "name": "G4",
          "ticks": 5348,
          "time": 62.18604651162791,
          "velocity": 0.16535433070866143
        },
        {
          "duration": 0.03488372093023173,
          "durationTicks": 3,
          "midi": 63,
          "name": "D#4",
          "ticks": 5354,
          "time": 62.25581395348837,
          "velocity": 0.25984251968503935
        },
        {
          "duration": 0.13953488372092693,
          "durationTicks": 12,
          "midi": 67,
          "name": "G4",
          "ticks": 5355,
          "time": 62.26744186046512,
          "velocity": 0.23622047244094488
        },
        {
          "duration": 0.02325581395349019,
          "durationTicks": 2,
          "midi": 70,
          "name": "A#4",
          "ticks": 5356,
          "time": 62.27906976744186,
          "velocity": 0.2283464566929134
        },
        {
          "duration": 0.11627906976744384,
          "durationTicks": 10,
          "midi": 72,
          "name": "C5",
          "ticks": 5357,
          "time": 62.2906976744186,
          "velocity": 0.16535433070866143
        },
        {
          "duration": 0.09302325581395365,
          "durationTicks": 8,
          "midi": 76,
          "name": "E5",
          "ticks": 5357,
          "time": 62.2906976744186,
          "velocity": 0.07874015748031496
        },
        {
          "duration": 0.081395348837205,
          "durationTicks": 7,
          "midi": 48,
          "name": "C3",
          "ticks": 5358,
          "time": 62.30232558139535,
          "velocity": 0.2755905511811024
        },
        {
          "duration": 0.03488372093023173,
          "durationTicks": 3,
          "midi": 55,
          "name": "G3",
          "ticks": 5361,
          "time": 62.33720930232558,
          "velocity": 0.07086614173228346
        },
        {
          "duration": 0.23255813953488058,
          "durationTicks": 20,
          "midi": 59,
          "name": "B3",
          "ticks": 5367,
          "time": 62.406976744186046,
          "velocity": 0.23622047244094488
        },
        {
          "duration": 0.02325581395349019,
          "durationTicks": 2,
          "midi": 47,
          "name": "B2",
          "ticks": 5368,
          "time": 62.41860465116279,
          "velocity": 0.25984251968503935
        },
        {
          "duration": 0.03488372093023173,
          "durationTicks": 3,
          "midi": 52,
          "name": "E3",
          "ticks": 5369,
          "time": 62.43023255813954,
          "velocity": 0.2440944881889764
        },
        {
          "duration": 0.046511627906973274,
          "durationTicks": 4,
          "midi": 66,
          "name": "F#4",
          "ticks": 5369,
          "time": 62.43023255813954,
          "velocity": 0.1968503937007874
        },
        {
          "duration": 0.02325581395349019,
          "durationTicks": 2,
          "midi": 51,
          "name": "D#3",
          "ticks": 5375,
          "time": 62.5,
          "velocity": 0.2440944881889764
        },
        {
          "duration": 0.1046511627907023,
          "durationTicks": 9,
          "midi": 66,
          "name": "F#4",
          "ticks": 5376,
          "time": 62.51162790697674,
          "velocity": 0.16535433070866143
        },
        {
          "duration": 0.06976744186046346,
          "durationTicks": 6,
          "midi": 47,
          "name": "B2",
          "ticks": 5378,
          "time": 62.53488372093023,
          "velocity": 0.25196850393700787
        },
        {
          "duration": 0.05813953488372192,
          "durationTicks": 5,
          "midi": 52,
          "name": "E3",
          "ticks": 5384,
          "time": 62.604651162790695,
          "velocity": 0.2677165354330709
        },
        {
          "duration": 0.13953488372092693,
          "durationTicks": 12,
          "midi": 69,
          "name": "A4",
          "ticks": 5385,
          "time": 62.616279069767444,
          "velocity": 0.12598425196850394
        },
        {
          "duration": 0.081395348837205,
          "durationTicks": 7,
          "midi": 57,
          "name": "A3",
          "ticks": 5388,
          "time": 62.651162790697676,
          "velocity": 0.1968503937007874
        },
        {
          "duration": 0.02325581395349019,
          "durationTicks": 2,
          "midi": 46,
          "name": "A#2",
          "ticks": 5389,
          "time": 62.66279069767442,
          "velocity": 0.23622047244094488
        },
        {
          "duration": 0.02325581395349019,
          "durationTicks": 2,
          "midi": 44,
          "name": "G#2",
          "ticks": 5391,
          "time": 62.68604651162791,
          "velocity": 0.31496062992125984
        },
        {
          "duration": 0.03488372093023173,
          "durationTicks": 3,
          "midi": 45,
          "name": "A2",
          "ticks": 5393,
          "time": 62.7093023255814,
          "velocity": 0.3543307086614173
        },
        {
          "duration": 0.05813953488372192,
          "durationTicks": 5,
          "midi": 67,
          "name": "G4",
          "ticks": 5393,
          "time": 62.7093023255814,
          "velocity": 0.2047244094488189
        },
        {
          "duration": 0.1046511627907023,
          "durationTicks": 9,
          "midi": 64,
          "name": "E4",
          "ticks": 5397,
          "time": 62.75581395348837,
          "velocity": 0.2677165354330709
        },
        {
          "duration": 0.046511627906973274,
          "durationTicks": 4,
          "midi": 57,
          "name": "A3",
          "ticks": 5398,
          "time": 62.76744186046512,
          "velocity": 0.1889763779527559
        },
        {
          "duration": 0.08139534883721211,
          "durationTicks": 7,
          "midi": 45,
          "name": "A2",
          "ticks": 5399,
          "time": 62.77906976744186,
          "velocity": 0.2992125984251969
        },
        {
          "duration": 0.03488372093023173,
          "durationTicks": 3,
          "midi": 72,
          "name": "C5",
          "ticks": 5405,
          "time": 62.848837209302324,
          "velocity": 0.1732283464566929
        },
        {
          "duration": 0.023255813953483084,
          "durationTicks": 2,
          "midi": 43,
          "name": "G2",
          "ticks": 5409,
          "time": 62.895348837209305,
          "velocity": 0.2992125984251969
        },
        {
          "duration": 0.02325581395349019,
          "durationTicks": 2,
          "midi": 43,
          "name": "G2",
          "ticks": 5412,
          "time": 62.93023255813954,
          "velocity": 0.25196850393700787
        },
        {
          "duration": 0.081395348837205,
          "durationTicks": 7,
          "midi": 55,
          "name": "G3",
          "ticks": 5417,
          "time": 62.98837209302326,
          "velocity": 0.2440944881889764
        },
        {
          "duration": 0.13953488372092693,
          "durationTicks": 12,
          "midi": 62,
          "name": "D4",
          "ticks": 5417,
          "time": 62.98837209302326,
          "velocity": 0.28346456692913385
        },
        {
          "duration": 0.02325581395349019,
          "durationTicks": 2,
          "midi": 41,
          "name": "F2",
          "ticks": 5418,
          "time": 63,
          "velocity": 0.36220472440944884
        },
        {
          "duration": 0.11627906976743674,
          "durationTicks": 10,
          "midi": 43,
          "name": "G2",
          "ticks": 5420,
          "time": 63.02325581395349,
          "velocity": 0.33070866141732286
        },
        {
          "duration": 0.058139534883714816,
          "durationTicks": 5,
          "midi": 70,
          "name": "A#4",
          "ticks": 5425,
          "time": 63.08139534883721,
          "velocity": 0.1732283464566929
        },
        {
          "duration": 0.081395348837205,
          "durationTicks": 7,
          "midi": 54,
          "name": "F#3",
          "ticks": 5428,
          "time": 63.116279069767444,
          "velocity": 0.2755905511811024
        },
        {
          "duration": 0.05813953488372192,
          "durationTicks": 5,
          "midi": 61,
          "name": "C#4",
          "ticks": 5429,
          "time": 63.127906976744185,
          "velocity": 0.16535433070866143
        },
        {
          "duration": 0.04651162790698038,
          "durationTicks": 4,
          "midi": 42,
          "name": "F#2",
          "ticks": 5430,
          "time": 63.13953488372093,
          "velocity": 0.29133858267716534
        },
        {
          "duration": 0.03488372093023884,
          "durationTicks": 3,
          "midi": 67,
          "name": "G4",
          "ticks": 5430,
          "time": 63.13953488372093,
          "velocity": 0.14960629921259844
        },
        {
          "duration": 0.02325581395349019,
          "durationTicks": 2,
          "midi": 43,
          "name": "G2",
          "ticks": 5434,
          "time": 63.18604651162791,
          "velocity": 0.25984251968503935
        },
        {
          "duration": 0.03488372093023173,
          "durationTicks": 3,
          "midi": 41,
          "name": "F2",
          "ticks": 5437,
          "time": 63.22093023255814,
          "velocity": 0.33070866141732286
        },
        {
          "duration": 0.1046511627906952,
          "durationTicks": 9,
          "midi": 61,
          "name": "C#4",
          "ticks": 5437,
          "time": 63.22093023255814,
          "velocity": 0.2440944881889764
        },
        {
          "duration": 0.09302325581395365,
          "durationTicks": 8,
          "midi": 66,
          "name": "F#4",
          "ticks": 5437,
          "time": 63.22093023255814,
          "velocity": 0.12598425196850394
        },
        {
          "duration": 0.08139534883721211,
          "durationTicks": 7,
          "midi": 54,
          "name": "F#3",
          "ticks": 5438,
          "time": 63.23255813953488,
          "velocity": 0.25196850393700787
        },
        {
          "duration": 0.05813953488372192,
          "durationTicks": 5,
          "midi": 42,
          "name": "F#2",
          "ticks": 5440,
          "time": 63.25581395348837,
          "velocity": 0.30708661417322836
        },
        {
          "duration": 0.04651162790698038,
          "durationTicks": 4,
          "midi": 44,
          "name": "G#2",
          "ticks": 5446,
          "time": 63.325581395348834,
          "velocity": 0.33070866141732286
        },
        {
          "duration": 0.03488372093023884,
          "durationTicks": 3,
          "midi": 60,
          "name": "C4",
          "ticks": 5446,
          "time": 63.325581395348834,
          "velocity": 0.18110236220472442
        },
        {
          "duration": 0.3139534883720927,
          "durationTicks": 27,
          "midi": 59,
          "name": "B3",
          "ticks": 5449,
          "time": 63.36046511627907,
          "velocity": 0.1732283464566929
        },
        {
          "duration": 0.03488372093023173,
          "durationTicks": 3,
          "midi": 66,
          "name": "F#4",
          "ticks": 5450,
          "time": 63.372093023255815,
          "velocity": 0.12598425196850394
        },
        {
          "duration": 0.09302325581395365,
          "durationTicks": 8,
          "midi": 67,
          "name": "G4",
          "ticks": 5453,
          "time": 63.406976744186046,
          "velocity": 0.2283464566929134
        },
        {
          "duration": 0.03488372093023884,
          "durationTicks": 3,
          "midi": 40,
          "name": "E2",
          "ticks": 5454,
          "time": 63.41860465116279,
          "velocity": 0.2440944881889764
        },
        {
          "duration": 0.09302325581395365,
          "durationTicks": 8,
          "midi": 40,
          "name": "E2",
          "ticks": 5458,
          "time": 63.46511627906977,
          "velocity": 0.2440944881889764
        },
        {
          "duration": 0.046511627906973274,
          "durationTicks": 4,
          "midi": 52,
          "name": "E3",
          "ticks": 5458,
          "time": 63.46511627906977,
          "velocity": 0.2440944881889764
        },
        {
          "duration": 0.12790697674418539,
          "durationTicks": 11,
          "midi": 83,
          "name": "B5",
          "ticks": 5459,
          "time": 63.47674418604651,
          "velocity": 0.09448818897637795
        },
        {
          "duration": 0.1860465116279073,
          "durationTicks": 16,
          "midi": 90,
          "name": "F#6",
          "ticks": 5460,
          "time": 63.48837209302326,
          "velocity": 0.18110236220472442
        },
        {
          "duration": 0.16279069767441712,
          "durationTicks": 14,
          "midi": 52,
          "name": "E3",
          "ticks": 5463,
          "time": 63.52325581395349,
          "velocity": 0.25984251968503935
        },
        {
          "duration": 0.02325581395349019,
          "durationTicks": 2,
          "midi": 40,
          "name": "E2",
          "ticks": 5467,
          "time": 63.56976744186046,
          "velocity": 0.25196850393700787
        },
        {
          "duration": 0.08139534883721211,
          "durationTicks": 7,
          "midi": 67,
          "name": "G4",
          "ticks": 5469,
          "time": 63.593023255813954,
          "velocity": 0.12598425196850394
        },
        {
          "duration": 0.17441860465116577,
          "durationTicks": 15,
          "midi": 79,
          "name": "G5",
          "ticks": 5469,
          "time": 63.593023255813954,
          "velocity": 0.16535433070866143
        },
        {
          "duration": 0.02325581395349019,
          "durationTicks": 2,
          "midi": 40,
          "name": "E2",
          "ticks": 5470,
          "time": 63.604651162790695,
          "velocity": 0.2283464566929134
        },
        {
          "duration": 0.03488372093023884,
          "durationTicks": 3,
          "midi": 40,
          "name": "E2",
          "ticks": 5473,
          "time": 63.63953488372093,
          "velocity": 0.2440944881889764
        },
        {
          "duration": 0.1046511627906952,
          "durationTicks": 9,
          "midi": 40,
          "name": "E2",
          "ticks": 5477,
          "time": 63.68604651162791,
          "velocity": 0.2440944881889764
        },
        {
          "duration": 0.03488372093023173,
          "durationTicks": 3,
          "midi": 72,
          "name": "C5",
          "ticks": 5477,
          "time": 63.68604651162791,
          "velocity": 0.07874015748031496
        },
        {
          "duration": 0.24418604651162923,
          "durationTicks": 21,
          "midi": 67,
          "name": "G4",
          "ticks": 5478,
          "time": 63.69767441860465,
          "velocity": 0.23622047244094488
        },
        {
          "duration": 0.06976744186046346,
          "durationTicks": 6,
          "midi": 52,
          "name": "E3",
          "ticks": 5480,
          "time": 63.72093023255814,
          "velocity": 0.25984251968503935
        },
        {
          "duration": 0.13953488372093403,
          "durationTicks": 12,
          "midi": 71,
          "name": "B4",
          "ticks": 5480,
          "time": 63.72093023255814,
          "velocity": 0.11023622047244094
        },
        {
          "duration": 0.1046511627907023,
          "durationTicks": 9,
          "midi": 90,
          "name": "F#6",
          "ticks": 5481,
          "time": 63.73255813953488,
          "velocity": 0.09448818897637795
        },
        {
          "duration": 0.05813953488372192,
          "durationTicks": 5,
          "midi": 95,
          "name": "B6",
          "ticks": 5481,
          "time": 63.73255813953488,
          "velocity": 0.08661417322834646
        },
        {
          "duration": 0.023255813953483084,
          "durationTicks": 2,
          "midi": 40,
          "name": "E2",
          "ticks": 5487,
          "time": 63.80232558139535,
          "velocity": 0.31496062992125984
        },
        {
          "duration": 0.36046511627906597,
          "durationTicks": 31,
          "midi": 40,
          "name": "E2",
          "ticks": 5490,
          "time": 63.83720930232558,
          "velocity": 0.3228346456692913
        },
        {
          "duration": 0.081395348837205,
          "durationTicks": 7,
          "midi": 86,
          "name": "D6",
          "ticks": 5492,
          "time": 63.86046511627907,
          "velocity": 0.07874015748031496
        },
        {
          "duration": 0.09302325581396076,
          "durationTicks": 8,
          "midi": 83,
          "name": "B5",
          "ticks": 5499,
          "time": 63.94186046511628,
          "velocity": 0.07086614173228346
        },
        {
          "duration": 0.11627906976744384,
          "durationTicks": 10,
          "midi": 90,
          "name": "F#6",
          "ticks": 5499,
          "time": 63.94186046511628,
          "velocity": 0.14173228346456693
        },
        {
          "duration": 0.04651162790698038,
          "durationTicks": 4,
          "midi": 95,
          "name": "B6",
          "ticks": 5499,
          "time": 63.94186046511628,
          "velocity": 0.08661417322834646
        },
        {
          "duration": 0.11627906976743674,
          "durationTicks": 10,
          "midi": 71,
          "name": "B4",
          "ticks": 5500,
          "time": 63.95348837209303,
          "velocity": 0.13385826771653545
        },
        {
          "duration": 0.13953488372092693,
          "durationTicks": 12,
          "midi": 67,
          "name": "G4",
          "ticks": 5507,
          "time": 64.03488372093024,
          "velocity": 0.18110236220472442
        },
        {
          "duration": 0.06976744186046346,
          "durationTicks": 6,
          "midi": 71,
          "name": "B4",
          "ticks": 5519,
          "time": 64.17441860465117,
          "velocity": 0.12598425196850394
        },
        {
          "duration": 0.03488372093023884,
          "durationTicks": 3,
          "midi": 52,
          "name": "E3",
          "ticks": 5521,
          "time": 64.19767441860465,
          "velocity": 0.11811023622047244
        },
        {
          "duration": 0.06976744186046346,
          "durationTicks": 6,
          "midi": 40,
          "name": "E2",
          "ticks": 5522,
          "time": 64.20930232558139,
          "velocity": 0.30708661417322836
        },
        {
          "duration": 0.034883720930224626,
          "durationTicks": 3,
          "midi": 72,
          "name": "C5",
          "ticks": 5525,
          "time": 64.24418604651163,
          "velocity": 0.1968503937007874
        },
        {
          "duration": 0.22093023255814614,
          "durationTicks": 19,
          "midi": 78,
          "name": "F#5",
          "ticks": 5526,
          "time": 64.25581395348837,
          "velocity": 0.1968503937007874
        },
        {
          "duration": 0.11627906976744384,
          "durationTicks": 10,
          "midi": 52,
          "name": "E3",
          "ticks": 5528,
          "time": 64.27906976744185,
          "velocity": 0.25984251968503935
        },
        {
          "duration": 0.30232558139533694,
          "durationTicks": 26,
          "midi": 59,
          "name": "B3",
          "ticks": 5529,
          "time": 64.29069767441861,
          "velocity": 0.11811023622047244
        },
        {
          "duration": 0.2093023255813904,
          "durationTicks": 18,
          "midi": 40,
          "name": "E2",
          "ticks": 5531,
          "time": 64.31395348837209,
          "velocity": 0.28346456692913385
        },
        {
          "duration": 0.03488372093023884,
          "durationTicks": 3,
          "midi": 67,
          "name": "G4",
          "ticks": 5533,
          "time": 64.33720930232558,
          "velocity": 0.09448818897637795
        },
        {
          "duration": 0.1046511627907023,
          "durationTicks": 9,
          "midi": 78,
          "name": "F#5",
          "ticks": 5548,
          "time": 64.51162790697674,
          "velocity": 0.14173228346456693
        },
        {
          "duration": 0.034883720930224626,
          "durationTicks": 3,
          "midi": 40,
          "name": "E2",
          "ticks": 5550,
          "time": 64.53488372093024,
          "velocity": 0.2755905511811024
        },
        {
          "duration": 0.05813953488372192,
          "durationTicks": 5,
          "midi": 66,
          "name": "F#4",
          "ticks": 5551,
          "time": 64.54651162790698,
          "velocity": 0.10236220472440945
        },
        {
          "duration": 0.05813953488372192,
          "durationTicks": 5,
          "midi": 40,
          "name": "E2",
          "ticks": 5554,
          "time": 64.5813953488372,
          "velocity": 0.2440944881889764
        },
        {
          "duration": 0.04651162790696617,
          "durationTicks": 4,
          "midi": 47,
          "name": "B2",
          "ticks": 5556,
          "time": 64.6046511627907,
          "velocity": 0.25984251968503935
        },
        {
          "duration": 0.09302325581394655,
          "durationTicks": 8,
          "midi": 67,
          "name": "G4",
          "ticks": 5557,
          "time": 64.61627906976744,
          "velocity": 0.2204724409448819
        },
        {
          "duration": 0.03488372093023884,
          "durationTicks": 3,
          "midi": 52,
          "name": "E3",
          "ticks": 5560,
          "time": 64.65116279069767,
          "velocity": 0.23622047244094488
        },
        {
          "duration": 0.034883720930224626,
          "durationTicks": 3,
          "midi": 40,
          "name": "E2",
          "ticks": 5561,
          "time": 64.66279069767442,
          "velocity": 0.2047244094488189
        },
        {
          "duration": 0.04651162790696617,
          "durationTicks": 4,
          "midi": 93,
          "name": "A6",
          "ticks": 5561,
          "time": 64.66279069767442,
          "velocity": 0.07086614173228346
        },
        {
          "duration": 0.023255813953497295,
          "durationTicks": 2,
          "midi": 41,
          "name": "F2",
          "ticks": 5564,
          "time": 64.69767441860465,
          "velocity": 0.23622047244094488
        },
        {
          "duration": 0.03488372093023884,
          "durationTicks": 3,
          "midi": 74,
          "name": "D5",
          "ticks": 5565,
          "time": 64.70930232558139,
          "velocity": 0.15748031496062992
        },
        {
          "duration": 0.15116279069766847,
          "durationTicks": 13,
          "midi": 78,
          "name": "F#5",
          "ticks": 5566,
          "time": 64.72093023255815,
          "velocity": 0.14173228346456693
        },
        {
          "duration": 0.04651162790696617,
          "durationTicks": 4,
          "midi": 50,
          "name": "D3",
          "ticks": 5567,
          "time": 64.73255813953489,
          "velocity": 0.2283464566929134
        },
        {
          "duration": 0.023255813953483084,
          "durationTicks": 2,
          "midi": 40,
          "name": "E2",
          "ticks": 5568,
          "time": 64.74418604651163,
          "velocity": 0.3858267716535433
        },
        {
          "duration": 0.03488372093023884,
          "durationTicks": 3,
          "midi": 55,
          "name": "G3",
          "ticks": 5569,
          "time": 64.75581395348837,
          "velocity": 0.18110236220472442
        },
        {
          "duration": 0.06976744186047767,
          "durationTicks": 6,
          "midi": 43,
          "name": "G2",
          "ticks": 5571,
          "time": 64.77906976744185,
          "velocity": 0.33858267716535434
        },
        {
          "duration": 0.04651162790696617,
          "durationTicks": 4,
          "midi": 50,
          "name": "D3",
          "ticks": 5572,
          "time": 64.79069767441861,
          "velocity": 0.23622047244094488
        },
        {
          "duration": 0.09302325581394655,
          "durationTicks": 8,
          "midi": 59,
          "name": "B3",
          "ticks": 5577,
          "time": 64.84883720930233,
          "velocity": 0.14960629921259844
        },
        {
          "duration": 0.04651162790696617,
          "durationTicks": 4,
          "midi": 43,
          "name": "G2",
          "ticks": 5582,
          "time": 64.90697674418605,
          "velocity": 0.3228346456692913
        },
        {
          "duration": 0.034883720930224626,
          "durationTicks": 3,
          "midi": 50,
          "name": "D3",
          "ticks": 5582,
          "time": 64.90697674418605,
          "velocity": 0.2125984251968504
        },
        {
          "duration": 0.03488372093023884,
          "durationTicks": 3,
          "midi": 31,
          "name": "G1",
          "ticks": 5585,
          "time": 64.94186046511628,
          "velocity": 0.2125984251968504
        },
        {
          "duration": 0.12790697674418539,
          "durationTicks": 11,
          "midi": 78,
          "name": "F#5",
          "ticks": 5586,
          "time": 64.95348837209302,
          "velocity": 0.14960629921259844
        },
        {
          "duration": 0.023255813953483084,
          "durationTicks": 2,
          "midi": 45,
          "name": "A2",
          "ticks": 5589,
          "time": 64.98837209302326,
          "velocity": 0.2677165354330709
        },
        {
          "duration": 0.05813953488372192,
          "durationTicks": 5,
          "midi": 67,
          "name": "G4",
          "ticks": 5589,
          "time": 64.98837209302326,
          "velocity": 0.11811023622047244
        },
        {
          "duration": 0.023255813953497295,
          "durationTicks": 2,
          "midi": 53,
          "name": "F3",
          "ticks": 5591,
          "time": 65.01162790697674,
          "velocity": 0.2440944881889764
        },
        {
          "duration": 0.023255813953483084,
          "durationTicks": 2,
          "midi": 53,
          "name": "F3",
          "ticks": 5595,
          "time": 65.05813953488372,
          "velocity": 0.23622047244094488
        },
        {
          "duration": 0.1046511627907023,
          "durationTicks": 9,
          "midi": 67,
          "name": "G4",
          "ticks": 5596,
          "time": 65.06976744186046,
          "velocity": 0.28346456692913385
        },
        {
          "duration": 0.03488372093023884,
          "durationTicks": 3,
          "midi": 35,
          "name": "B1",
          "ticks": 5597,
          "time": 65.0813953488372,
          "velocity": 0.2047244094488189
        },
        {
          "duration": 0.09302325581396076,
          "durationTicks": 8,
          "midi": 47,
          "name": "B2",
          "ticks": 5597,
          "time": 65.0813953488372,
          "velocity": 0.2440944881889764
        },
        {
          "duration": 0.19767441860464885,
          "durationTicks": 17,
          "midi": 76,
          "name": "E5",
          "ticks": 5606,
          "time": 65.18604651162791,
          "velocity": 0.16535433070866143
        },
        {
          "duration": 0.03488372093023884,
          "durationTicks": 3,
          "midi": 52,
          "name": "E3",
          "ticks": 5608,
          "time": 65.20930232558139,
          "velocity": 0.29133858267716534
        },
        {
          "duration": 0.023255813953483084,
          "durationTicks": 2,
          "midi": 37,
          "name": "C#2",
          "ticks": 5609,
          "time": 65.22093023255815,
          "velocity": 0.2677165354330709
        },
        {
          "duration": 0.15116279069766847,
          "durationTicks": 13,
          "midi": 64,
          "name": "E4",
          "ticks": 5611,
          "time": 65.24418604651163,
          "velocity": 0.11811023622047244
        },
        {
          "duration": 0.04651162790698038,
          "durationTicks": 4,
          "midi": 40,
          "name": "E2",
          "ticks": 5612,
          "time": 65.25581395348837,
          "velocity": 0.29133858267716534
        },
        {
          "duration": 0.034883720930224626,
          "durationTicks": 3,
          "midi": 52,
          "name": "E3",
          "ticks": 5616,
          "time": 65.30232558139535,
          "velocity": 0.1968503937007874
        },
        {
          "duration": 0.09302325581396076,
          "durationTicks": 8,
          "midi": 91,
          "name": "G6",
          "ticks": 5617,
          "time": 65.31395348837209,
          "velocity": 0.07086614173228346
        },
        {
          "duration": 0.09302325581396076,
          "durationTicks": 8,
          "midi": 95,
          "name": "B6",
          "ticks": 5618,
          "time": 65.32558139534883,
          "velocity": 0.07086614173228346
        },
        {
          "duration": 0.05813953488372192,
          "durationTicks": 5,
          "midi": 52,
          "name": "E3",
          "ticks": 5620,
          "time": 65.34883720930233,
          "velocity": 0.1732283464566929
        },
        {
          "duration": 0.2093023255813904,
          "durationTicks": 18,
          "midi": 40,
          "name": "E2",
          "ticks": 5621,
          "time": 65.36046511627907,
          "velocity": 0.31496062992125984
        },
        {
          "duration": 0.11627906976744384,
          "durationTicks": 10,
          "midi": 76,
          "name": "E5",
          "ticks": 5627,
          "time": 65.43023255813954,
          "velocity": 0.14960629921259844
        },
        {
          "duration": 0.05813953488372192,
          "durationTicks": 5,
          "midi": 67,
          "name": "G4",
          "ticks": 5630,
          "time": 65.46511627906976,
          "velocity": 0.1889763779527559
        },
        {
          "duration": 0.2093023255813904,
          "durationTicks": 18,
          "midi": 79,
          "name": "G5",
          "ticks": 5636,
          "time": 65.53488372093024,
          "velocity": 0.13385826771653545
        },
        {
          "duration": 0.12790697674418539,
          "durationTicks": 11,
          "midi": 67,
          "name": "G4",
          "ticks": 5639,
          "time": 65.56976744186046,
          "velocity": 0.1889763779527559
        },
        {
          "duration": 0.034883720930224626,
          "durationTicks": 3,
          "midi": 64,
          "name": "E4",
          "ticks": 5643,
          "time": 65.61627906976744,
          "velocity": 0.09448818897637795
        },
        {
          "duration": 0.19767441860466306,
          "durationTicks": 17,
          "midi": 76,
          "name": "E5",
          "ticks": 5646,
          "time": 65.65116279069767,
          "velocity": 0.14960629921259844
        },
        {
          "duration": 0.06976744186046346,
          "durationTicks": 6,
          "midi": 55,
          "name": "G3",
          "ticks": 5648,
          "time": 65.67441860465117,
          "velocity": 0.1732283464566929
        },
        {
          "duration": 0.023255813953483084,
          "durationTicks": 2,
          "midi": 44,
          "name": "G#2",
          "ticks": 5649,
          "time": 65.68604651162791,
          "velocity": 0.33858267716535434
        },
        {
          "duration": 0.1860465116279073,
          "durationTicks": 16,
          "midi": 43,
          "name": "G2",
          "ticks": 5651,
          "time": 65.70930232558139,
          "velocity": 0.33858267716535434
        },
        {
          "duration": 0.034883720930224626,
          "durationTicks": 3,
          "midi": 31,
          "name": "G1",
          "ticks": 5653,
          "time": 65.73255813953489,
          "velocity": 0.2125984251968504
        },
        {
          "duration": 0.09302325581396076,
          "durationTicks": 8,
          "midi": 64,
          "name": "E4",
          "ticks": 5655,
          "time": 65.75581395348837,
          "velocity": 0.07086614173228346
        },
        {
          "duration": 0.03488372093023884,
          "durationTicks": 3,
          "midi": 50,
          "name": "D3",
          "ticks": 5657,
          "time": 65.77906976744185,
          "velocity": 0.1968503937007874
        },
        {
          "duration": 0.2674418604651123,
          "durationTicks": 23,
          "midi": 79,
          "name": "G5",
          "ticks": 5661,
          "time": 65.82558139534883,
          "velocity": 0.11023622047244094
        },
        {
          "duration": 0.034883720930224626,
          "durationTicks": 3,
          "midi": 70,
          "name": "A#4",
          "ticks": 5664,
          "time": 65.86046511627907,
          "velocity": 0.1968503937007874
        },
        {
          "duration": 0.03488372093023884,
          "durationTicks": 3,
          "midi": 60,
          "name": "C4",
          "ticks": 5665,
          "time": 65.87209302325581,
          "velocity": 0.11023622047244094
        },
        {
          "duration": 0.19767441860464885,
          "durationTicks": 17,
          "midi": 76,
          "name": "E5",
          "ticks": 5666,
          "time": 65.88372093023256,
          "velocity": 0.18110236220472442
        },
        {
          "duration": 0.16279069767441,
          "durationTicks": 14,
          "midi": 59,
          "name": "B3",
          "ticks": 5668,
          "time": 65.90697674418605,
          "velocity": 0.14173228346456693
        },
        {
          "duration": 0.17441860465116577,
          "durationTicks": 15,
          "midi": 47,
          "name": "B2",
          "ticks": 5670,
          "time": 65.93023255813954,
          "velocity": 0.2440944881889764
        },
        {
          "duration": 0.11627906976744384,
          "durationTicks": 10,
          "midi": 67,
          "name": "G4",
          "ticks": 5677,
          "time": 66.01162790697674,
          "velocity": 0.1889763779527559
        },
        {
          "duration": 0.04651162790698038,
          "durationTicks": 4,
          "midi": 78,
          "name": "F#5",
          "ticks": 5684,
          "time": 66.09302325581395,
          "velocity": 0.10236220472440945
        },
        {
          "duration": 0.16279069767441,
          "durationTicks": 14,
          "midi": 74,
          "name": "D5",
          "ticks": 5685,
          "time": 66.1046511627907,
          "velocity": 0.1889763779527559
        },
        {
          "duration": 0.023255813953497295,
          "durationTicks": 2,
          "midi": 37,
          "name": "C#2",
          "ticks": 5689,
          "time": 66.15116279069767,
          "velocity": 0.33070866141732286
        },
        {
          "duration": 0.05813953488372192,
          "durationTicks": 5,
          "midi": 59,
          "name": "B3",
          "ticks": 5689,
          "time": 66.15116279069767,
          "velocity": 0.11811023622047244
        },
        {
          "duration": 0.034883720930224626,
          "durationTicks": 3,
          "midi": 52,
          "name": "E3",
          "ticks": 5690,
          "time": 66.16279069767442,
          "velocity": 0.23622047244094488
        },
        {
          "duration": 0.03488372093023884,
          "durationTicks": 3,
          "midi": 67,
          "name": "G4",
          "ticks": 5692,
          "time": 66.18604651162791,
          "velocity": 0.10236220472440945
        },
        {
          "duration": 0.03488372093023884,
          "durationTicks": 3,
          "midi": 52,
          "name": "E3",
          "ticks": 5694,
          "time": 66.20930232558139,
          "velocity": 0.1968503937007874
        },
        {
          "duration": 0.05813953488372192,
          "durationTicks": 5,
          "midi": 90,
          "name": "F#6",
          "ticks": 5697,
          "time": 66.24418604651163,
          "velocity": 0.11023622047244094
        },
        {
          "duration": 0.09302325581396076,
          "durationTicks": 8,
          "midi": 40,
          "name": "E2",
          "ticks": 5700,
          "time": 66.27906976744185,
          "velocity": 0.3228346456692913
        },
        {
          "duration": 0.12790697674418539,
          "durationTicks": 11,
          "midi": 74,
          "name": "D5",
          "ticks": 5707,
          "time": 66.36046511627907,
          "velocity": 0.12598425196850394
        },
        {
          "duration": 0.12790697674418539,
          "durationTicks": 11,
          "midi": 78,
          "name": "F#5",
          "ticks": 5716,
          "time": 66.46511627906976,
          "velocity": 0.16535433070866143
        },
        {
          "duration": 0.06976744186046346,
          "durationTicks": 6,
          "midi": 66,
          "name": "F#4",
          "ticks": 5717,
          "time": 66.47674418604652,
          "velocity": 0.07874015748031496
        },
        {
          "duration": 0.10465116279068809,
          "durationTicks": 9,
          "midi": 85,
          "name": "C#6",
          "ticks": 5718,
          "time": 66.48837209302326,
          "velocity": 0.10236220472440945
        },
        {
          "duration": 0.023255813953483084,
          "durationTicks": 2,
          "midi": 40,
          "name": "E2",
          "ticks": 5722,
          "time": 66.53488372093024,
          "velocity": 0.29133858267716534
        },
        {
          "duration": 0.03488372093023884,
          "durationTicks": 3,
          "midi": 73,
          "name": "C#5",
          "ticks": 5726,
          "time": 66.5813953488372,
          "velocity": 0.1732283464566929
        },
        {
          "duration": 0.023255813953483084,
          "durationTicks": 2,
          "midi": 41,
          "name": "F2",
          "ticks": 5728,
          "time": 66.6046511627907,
          "velocity": 0.33858267716535434
        },
        {
          "duration": 0.15116279069766847,
          "durationTicks": 13,
          "midi": 43,
          "name": "G2",
          "ticks": 5730,
          "time": 66.62790697674419,
          "velocity": 0.31496062992125984
        },
        {
          "duration": 0.06976744186046346,
          "durationTicks": 6,
          "midi": 50,
          "name": "D3",
          "ticks": 5730,
          "time": 66.62790697674419,
          "velocity": 0.1968503937007874
        },
        {
          "duration": 0.3720930232558146,
          "durationTicks": 32,
          "midi": 74,
          "name": "D5",
          "ticks": 5730,
          "time": 66.62790697674419,
          "velocity": 0.14960629921259844
        },
        {
          "duration": 0.09302325581394655,
          "durationTicks": 8,
          "midi": 78,
          "name": "F#5",
          "ticks": 5738,
          "time": 66.72093023255815,
          "velocity": 0.08661417322834646
        },
        {
          "duration": 0.081395348837205,
          "durationTicks": 7,
          "midi": 90,
          "name": "F#6",
          "ticks": 5739,
          "time": 66.73255813953489,
          "velocity": 0.16535433070866143
        },
        {
          "duration": 0.04651162790698038,
          "durationTicks": 4,
          "midi": 31,
          "name": "G1",
          "ticks": 5740,
          "time": 66.74418604651163,
          "velocity": 0.2283464566929134
        },
        {
          "duration": 0.023255813953497295,
          "durationTicks": 2,
          "midi": 44,
          "name": "G#2",
          "ticks": 5743,
          "time": 66.77906976744185,
          "velocity": 0.2755905511811024
        },
        {
          "duration": 0.034883720930224626,
          "durationTicks": 3,
          "midi": 32,
          "name": "G#1",
          "ticks": 5744,
          "time": 66.79069767441861,
          "velocity": 0.2283464566929134
        },
        {
          "duration": 0.023255813953483084,
          "durationTicks": 2,
          "midi": 62,
          "name": "D4",
          "ticks": 5745,
          "time": 66.80232558139535,
          "velocity": 0.2440944881889764
        },
        {
          "duration": 0.034883720930224626,
          "durationTicks": 3,
          "midi": 70,
          "name": "A#4",
          "ticks": 5745,
          "time": 66.80232558139535,
          "velocity": 0.2047244094488189
        },
        {
          "duration": 0.06976744186047767,
          "durationTicks": 6,
          "midi": 64,
          "name": "E4",
          "ticks": 5748,
          "time": 66.83720930232558,
          "velocity": 0.07874015748031496
        },
        {
          "duration": 0.023255813953483084,
          "durationTicks": 2,
          "midi": 44,
          "name": "G#2",
          "ticks": 5749,
          "time": 66.84883720930233,
          "velocity": 0.33858267716535434
        },
        {
          "duration": 0.081395348837205,
          "durationTicks": 7,
          "midi": 45,
          "name": "A2",
          "ticks": 5751,
          "time": 66.87209302325581,
          "velocity": 0.31496062992125984
        },
        {
          "duration": 0.05813953488372192,
          "durationTicks": 5,
          "midi": 33,
          "name": "A1",
          "ticks": 5753,
          "time": 66.8953488372093,
          "velocity": 0.2677165354330709
        },
        {
          "duration": 0.04651162790696617,
          "durationTicks": 4,
          "midi": 62,
          "name": "D4",
          "ticks": 5755,
          "time": 66.9186046511628,
          "velocity": 0.10236220472440945
        },
        {
          "duration": 0.27906976744186807,
          "durationTicks": 24,
          "midi": 67,
          "name": "G4",
          "ticks": 5757,
          "time": 66.94186046511628,
          "velocity": 0.2125984251968504
        },
        {
          "duration": 0.034883720930224626,
          "durationTicks": 3,
          "midi": 56,
          "name": "G#3",
          "ticks": 5765,
          "time": 67.03488372093024,
          "velocity": 0.2204724409448819
        },
        {
          "duration": 0.023255813953483084,
          "durationTicks": 2,
          "midi": 50,
          "name": "D3",
          "ticks": 5766,
          "time": 67.04651162790698,
          "velocity": 0.25196850393700787
        },
        {
          "duration": 0.2093023255814046,
          "durationTicks": 18,
          "midi": 48,
          "name": "C3",
          "ticks": 5770,
          "time": 67.09302325581395,
          "velocity": 0.28346456692913385
        },
        {
          "duration": 0.1046511627907023,
          "durationTicks": 9,
          "midi": 36,
          "name": "C2",
          "ticks": 5772,
          "time": 67.11627906976744,
          "velocity": 0.2992125984251969
        },
        {
          "duration": 0.10465116279068809,
          "durationTicks": 9,
          "midi": 36,
          "name": "C2",
          "ticks": 5782,
          "time": 67.23255813953489,
          "velocity": 0.30708661417322836
        },
        {
          "duration": 0.1279069767441996,
          "durationTicks": 11,
          "midi": 64,
          "name": "E4",
          "ticks": 5786,
          "time": 67.27906976744185,
          "velocity": 0.1732283464566929
        },
        {
          "duration": 0.023255813953483084,
          "durationTicks": 2,
          "midi": 55,
          "name": "G3",
          "ticks": 5788,
          "time": 67.30232558139535,
          "velocity": 0.2755905511811024
        },
        {
          "duration": 0.03488372093023884,
          "durationTicks": 3,
          "midi": 60,
          "name": "C4",
          "ticks": 5789,
          "time": 67.31395348837209,
          "velocity": 0.07086614173228346
        },
        {
          "duration": 0.05813953488372192,
          "durationTicks": 5,
          "midi": 67,
          "name": "G4",
          "ticks": 5791,
          "time": 67.33720930232558,
          "velocity": 0.08661417322834646
        },
        {
          "duration": 0.06976744186046346,
          "durationTicks": 6,
          "midi": 36,
          "name": "C2",
          "ticks": 5792,
          "time": 67.34883720930233,
          "velocity": 0.29133858267716534
        },
        {
          "duration": 0.03488372093023884,
          "durationTicks": 3,
          "midi": 47,
          "name": "B2",
          "ticks": 5796,
          "time": 67.3953488372093,
          "velocity": 0.30708661417322836
        },
        {
          "duration": 0.13953488372092693,
          "durationTicks": 12,
          "midi": 67,
          "name": "G4",
          "ticks": 5797,
          "time": 67.40697674418605,
          "velocity": 0.2047244094488189
        },
        {
          "duration": 0.034883720930224626,
          "durationTicks": 3,
          "midi": 69,
          "name": "A4",
          "ticks": 5797,
          "time": 67.40697674418605,
          "velocity": 0.09448818897637795
        },
        {
          "duration": 0.1046511627907023,
          "durationTicks": 9,
          "midi": 60,
          "name": "C4",
          "ticks": 5800,
          "time": 67.44186046511628,
          "velocity": 0.1968503937007874
        },
        {
          "duration": 0.2674418604651123,
          "durationTicks": 23,
          "midi": 64,
          "name": "E4",
          "ticks": 5804,
          "time": 67.48837209302326,
          "velocity": 0.1889763779527559
        },
        {
          "duration": 0.03488372093023884,
          "durationTicks": 3,
          "midi": 35,
          "name": "B1",
          "ticks": 5806,
          "time": 67.51162790697674,
          "velocity": 0.30708661417322836
        },
        {
          "duration": 0.081395348837205,
          "durationTicks": 7,
          "midi": 52,
          "name": "E3",
          "ticks": 5809,
          "time": 67.54651162790698,
          "velocity": 0.18110236220472442
        },
        {
          "duration": 0.12790697674418539,
          "durationTicks": 11,
          "midi": 60,
          "name": "C4",
          "ticks": 5816,
          "time": 67.62790697674419,
          "velocity": 0.1889763779527559
        },
        {
          "duration": 0.023255813953483084,
          "durationTicks": 2,
          "midi": 54,
          "name": "F#3",
          "ticks": 5826,
          "time": 67.74418604651163,
          "velocity": 0.3228346456692913
        },
        {
          "duration": 0.3604651162790731,
          "durationTicks": 31,
          "midi": 67,
          "name": "G4",
          "ticks": 5826,
          "time": 67.74418604651163,
          "velocity": 0.2125984251968504
        },
        {
          "duration": 0.03488372093023884,
          "durationTicks": 3,
          "midi": 70,
          "name": "A#4",
          "ticks": 5827,
          "time": 67.75581395348837,
          "velocity": 0.1732283464566929
        },
        {
          "duration": 0.023255813953497295,
          "durationTicks": 2,
          "midi": 41,
          "name": "F2",
          "ticks": 5828,
          "time": 67.76744186046511,
          "velocity": 0.3858267716535433
        },
        {
          "duration": 0.023255813953497295,
          "durationTicks": 2,
          "midi": 55,
          "name": "G3",
          "ticks": 5828,
          "time": 67.76744186046511,
          "velocity": 0.30708661417322836
        },
        {
          "duration": 0.06976744186047767,
          "durationTicks": 6,
          "midi": 60,
          "name": "C4",
          "ticks": 5829,
          "time": 67.77906976744185,
          "velocity": 0.1732283464566929
        },
        {
          "duration": 0.023255813953483084,
          "durationTicks": 2,
          "midi": 43,
          "name": "G2",
          "ticks": 5830,
          "time": 67.79069767441861,
          "velocity": 0.29133858267716534
        },
        {
          "duration": 0.05813953488372192,
          "durationTicks": 5,
          "midi": 64,
          "name": "E4",
          "ticks": 5831,
          "time": 67.80232558139535,
          "velocity": 0.09448818897637795
        },
        {
          "duration": 0.023255813953483084,
          "durationTicks": 2,
          "midi": 44,
          "name": "G#2",
          "ticks": 5832,
          "time": 67.81395348837209,
          "velocity": 0.3464566929133858
        },
        {
          "duration": 0.03488372093023884,
          "durationTicks": 3,
          "midi": 55,
          "name": "G3",
          "ticks": 5833,
          "time": 67.82558139534883,
          "velocity": 0.2204724409448819
        },
        {
          "duration": 0.17441860465116577,
          "durationTicks": 15,
          "midi": 43,
          "name": "G2",
          "ticks": 5834,
          "time": 67.83720930232558,
          "velocity": 0.36220472440944884
        },
        {
          "duration": 0.11627906976744384,
          "durationTicks": 10,
          "midi": 60,
          "name": "C4",
          "ticks": 5836,
          "time": 67.86046511627907,
          "velocity": 0.16535433070866143
        },
        {
          "duration": 0.45348837209303383,
          "durationTicks": 39,
          "midi": 64,
          "name": "E4",
          "ticks": 5839,
          "time": 67.8953488372093,
          "velocity": 0.12598425196850394
        },
        {
          "duration": 0.023255813953497295,
          "durationTicks": 2,
          "midi": 45,
          "name": "A2",
          "ticks": 5849,
          "time": 68.01162790697674,
          "velocity": 0.33070866141732286
        },
        {
          "duration": 0.15116279069768268,
          "durationTicks": 13,
          "midi": 60,
          "name": "C4",
          "ticks": 5849,
          "time": 68.01162790697674,
          "velocity": 0.13385826771653545
        },
        {
          "duration": 0.03488372093023884,
          "durationTicks": 3,
          "midi": 36,
          "name": "C2",
          "ticks": 5850,
          "time": 68.02325581395348,
          "velocity": 0.33070866141732286
        },
        {
          "duration": 0.023255813953483084,
          "durationTicks": 2,
          "midi": 36,
          "name": "C2",
          "ticks": 5859,
          "time": 68.12790697674419,
          "velocity": 0.3228346456692913
        },
        {
          "duration": 0.04651162790696617,
          "durationTicks": 4,
          "midi": 36,
          "name": "C2",
          "ticks": 5862,
          "time": 68.16279069767442,
          "velocity": 0.3228346456692913
        },
        {
          "duration": 0.023255813953483084,
          "durationTicks": 2,
          "midi": 36,
          "name": "C2",
          "ticks": 5867,
          "time": 68.22093023255815,
          "velocity": 0.3228346456692913
        },
        {
          "duration": 0.04651162790696617,
          "durationTicks": 4,
          "midi": 55,
          "name": "G3",
          "ticks": 5868,
          "time": 68.23255813953489,
          "velocity": 0.2755905511811024
        },
        {
          "duration": 0.023255813953483084,
          "durationTicks": 2,
          "midi": 36,
          "name": "C2",
          "ticks": 5875,
          "time": 68.31395348837209,
          "velocity": 0.30708661417322836
        },
        {
          "duration": 0.023255813953497295,
          "durationTicks": 2,
          "midi": 53,
          "name": "F3",
          "ticks": 5877,
          "time": 68.33720930232558,
          "velocity": 0.28346456692913385
        },
        {
          "duration": 0.04651162790698038,
          "durationTicks": 4,
          "midi": 52,
          "name": "E3",
          "ticks": 5879,
          "time": 68.36046511627907,
          "velocity": 0.2047244094488189
        },
        {
          "duration": 0.03488372093023884,
          "durationTicks": 3,
          "midi": 42,
          "name": "F#2",
          "ticks": 5881,
          "time": 68.38372093023256,
          "velocity": 0.2755905511811024
        },
        {
          "duration": 0.03488372093023884,
          "durationTicks": 3,
          "midi": 67,
          "name": "G4",
          "ticks": 5886,
          "time": 68.44186046511628,
          "velocity": 0.11023622047244094
        },
        {
          "duration": 0.023255813953497295,
          "durationTicks": 2,
          "midi": 40,
          "name": "E2",
          "ticks": 5887,
          "time": 68.45348837209302,
          "velocity": 0.25196850393700787
        },
        {
          "duration": 0.023255813953483084,
          "durationTicks": 2,
          "midi": 41,
          "name": "F2",
          "ticks": 5891,
          "time": 68.5,
          "velocity": 0.33858267716535434
        },
        {
          "duration": 0.081395348837205,
          "durationTicks": 7,
          "midi": 52,
          "name": "E3",
          "ticks": 5891,
          "time": 68.5,
          "velocity": 0.18110236220472442
        },
        {
          "duration": 0.10465116279068809,
          "durationTicks": 9,
          "midi": 40,
          "name": "E2",
          "ticks": 5894,
          "time": 68.53488372093024,
          "velocity": 0.33858267716535434
        },
        {
          "duration": 0.08139534883721922,
          "durationTicks": 7,
          "midi": 60,
          "name": "C4",
          "ticks": 5899,
          "time": 68.59302325581395,
          "velocity": 0.11023622047244094
        },
        {
          "duration": 0.034883720930224626,
          "durationTicks": 3,
          "midi": 55,
          "name": "G3",
          "ticks": 5900,
          "time": 68.6046511627907,
          "velocity": 0.09448818897637795
        },
        {
          "duration": 0.09302325581394655,
          "durationTicks": 8,
          "midi": 64,
          "name": "E4",
          "ticks": 5901,
          "time": 68.61627906976744,
          "velocity": 0.2125984251968504
        },
        {
          "duration": 0.09302325581394655,
          "durationTicks": 8,
          "midi": 67,
          "name": "G4",
          "ticks": 5907,
          "time": 68.68604651162791,
          "velocity": 0.16535433070866143
        },
        {
          "duration": 0.023255813953497295,
          "durationTicks": 2,
          "midi": 40,
          "name": "E2",
          "ticks": 5908,
          "time": 68.69767441860465,
          "velocity": 0.36220472440944884
        },
        {
          "duration": 0.1860465116279073,
          "durationTicks": 16,
          "midi": 43,
          "name": "G2",
          "ticks": 5910,
          "time": 68.72093023255815,
          "velocity": 0.36220472440944884
        },
        {
          "duration": 0.19767441860466306,
          "durationTicks": 17,
          "midi": 64,
          "name": "E4",
          "ticks": 5920,
          "time": 68.83720930232558,
          "velocity": 0.12598425196850394
        },
        {
          "duration": 0.023255813953483084,
          "durationTicks": 2,
          "midi": 44,
          "name": "G#2",
          "ticks": 5926,
          "time": 68.90697674418605,
          "velocity": 0.3858267716535433
        },
        {
          "duration": 0.11627906976744384,
          "durationTicks": 10,
          "midi": 48,
          "name": "C3",
          "ticks": 5930,
          "time": 68.95348837209302,
          "velocity": 0.2125984251968504
        },
        {
          "duration": 0.2906976744185954,
          "durationTicks": 25,
          "midi": 36,
          "name": "C2",
          "ticks": 5932,
          "time": 68.97674418604652,
          "velocity": 0.30708661417322836
        },
        {
          "duration": 0.04651162790698038,
          "durationTicks": 4,
          "midi": 64,
          "name": "E4",
          "ticks": 5946,
          "time": 69.13953488372093,
          "velocity": 0.1968503937007874
        },
        {
          "duration": 0.05813953488372192,
          "durationTicks": 5,
          "midi": 67,
          "name": "G4",
          "ticks": 5949,
          "time": 69.17441860465117,
          "velocity": 0.11023622047244094
        },
        {
          "duration": 0.1046511627907023,
          "durationTicks": 9,
          "midi": 67,
          "name": "G4",
          "ticks": 5957,
          "time": 69.26744186046511,
          "velocity": 0.09448818897637795
        },
        {
          "duration": 0.034883720930224626,
          "durationTicks": 3,
          "midi": 60,
          "name": "C4",
          "ticks": 5959,
          "time": 69.29069767441861,
          "velocity": 0.13385826771653545
        },
        {
          "duration": 0.023255813953483084,
          "durationTicks": 2,
          "midi": 44,
          "name": "G#2",
          "ticks": 5960,
          "time": 69.30232558139535,
          "velocity": 0.2677165354330709
        },
        {
          "duration": 0.03488372093023884,
          "durationTicks": 3,
          "midi": 55,
          "name": "G3",
          "ticks": 5961,
          "time": 69.31395348837209,
          "velocity": 0.11811023622047244
        },
        {
          "duration": 0.09302325581396076,
          "durationTicks": 8,
          "midi": 64,
          "name": "E4",
          "ticks": 5961,
          "time": 69.31395348837209,
          "velocity": 0.11811023622047244
        },
        {
          "duration": 0.023255813953497295,
          "durationTicks": 2,
          "midi": 45,
          "name": "A2",
          "ticks": 5962,
          "time": 69.32558139534883,
          "velocity": 0.31496062992125984
        },
        {
          "duration": 0.034883720930224626,
          "durationTicks": 3,
          "midi": 43,
          "name": "G2",
          "ticks": 5964,
          "time": 69.34883720930233,
          "velocity": 0.2992125984251969
        },
        {
          "duration": 0.023255813953483084,
          "durationTicks": 2,
          "midi": 44,
          "name": "G#2",
          "ticks": 5969,
          "time": 69.40697674418605,
          "velocity": 0.33070866141732286
        },
        {
          "duration": 0.034883720930224626,
          "durationTicks": 3,
          "midi": 52,
          "name": "E3",
          "ticks": 5971,
          "time": 69.43023255813954,
          "velocity": 0.08661417322834646
        },
        {
          "duration": 0.023255813953483084,
          "durationTicks": 2,
          "midi": 41,
          "name": "F2",
          "ticks": 5976,
          "time": 69.48837209302326,
          "velocity": 0.25196850393700787
        },
        {
          "duration": 0.081395348837205,
          "durationTicks": 7,
          "midi": 60,
          "name": "C4",
          "ticks": 5978,
          "time": 69.51162790697674,
          "velocity": 0.07874015748031496
        },
        {
          "duration": 0.05813953488372192,
          "durationTicks": 5,
          "midi": 55,
          "name": "G3",
          "ticks": 5979,
          "time": 69.52325581395348,
          "velocity": 0.13385826771653545
        },
        {
          "duration": 0.023255813953497295,
          "durationTicks": 2,
          "midi": 47,
          "name": "B2",
          "ticks": 5984,
          "time": 69.5813953488372,
          "velocity": 0.28346456692913385
        },
        {
          "duration": 0.24418604651162923,
          "durationTicks": 21,
          "midi": 55,
          "name": "G3",
          "ticks": 5985,
          "time": 69.59302325581395,
          "velocity": 0.2755905511811024
        },
        {
          "duration": 0.034883720930224626,
          "durationTicks": 3,
          "midi": 41,
          "name": "F2",
          "ticks": 5986,
          "time": 69.6046511627907,
          "velocity": 0.4015748031496063
        },
        {
          "duration": 0.034883720930224626,
          "durationTicks": 3,
          "midi": 61,
          "name": "C#4",
          "ticks": 5986,
          "time": 69.6046511627907,
          "velocity": 0.09448818897637795
        },
        {
          "duration": 0.05813953488372192,
          "durationTicks": 5,
          "midi": 69,
          "name": "A4",
          "ticks": 5988,
          "time": 69.62790697674419,
          "velocity": 0.12598425196850394
        },
        {
          "duration": 0.03488372093023884,
          "durationTicks": 3,
          "midi": 43,
          "name": "G2",
          "ticks": 5989,
          "time": 69.63953488372093,
          "velocity": 0.3543307086614173
        },
        {
          "duration": 0.16279069767442422,
          "durationTicks": 14,
          "midi": 43,
          "name": "G2",
          "ticks": 5993,
          "time": 69.68604651162791,
          "velocity": 0.3858267716535433
        },
        {
          "duration": 0.081395348837205,
          "durationTicks": 7,
          "midi": 62,
          "name": "D4",
          "ticks": 5997,
          "time": 69.73255813953489,
          "velocity": 0.07874015748031496
        },
        {
          "duration": 0.03488372093023884,
          "durationTicks": 3,
          "midi": 72,
          "name": "C5",
          "ticks": 6004,
          "time": 69.81395348837209,
          "velocity": 0.18110236220472442
        },
        {
          "duration": 0.19767441860464885,
          "durationTicks": 17,
          "midi": 55,
          "name": "G3",
          "ticks": 6008,
          "time": 69.86046511627907,
          "velocity": 0.14960629921259844
        },
        {
          "duration": 0.2093023255813904,
          "durationTicks": 18,
          "midi": 60,
          "name": "C4",
          "ticks": 6008,
          "time": 69.86046511627907,
          "velocity": 0.16535433070866143
        },
        {
          "duration": 0.22093023255813193,
          "durationTicks": 19,
          "midi": 48,
          "name": "C3",
          "ticks": 6009,
          "time": 69.87209302325581,
          "velocity": 0.3700787401574803
        },
        {
          "duration": 0.081395348837205,
          "durationTicks": 7,
          "midi": 36,
          "name": "C2",
          "ticks": 6012,
          "time": 69.90697674418605,
          "velocity": 0.30708661417322836
        },
        {
          "duration": 0.09302325581394655,
          "durationTicks": 8,
          "midi": 36,
          "name": "C2",
          "ticks": 6020,
          "time": 70,
          "velocity": 0.30708661417322836
        },
        {
          "duration": 0.06976744186047767,
          "durationTicks": 6,
          "midi": 60,
          "name": "C4",
          "ticks": 6028,
          "time": 70.09302325581395,
          "velocity": 0.08661417322834646
        },
        {
          "duration": 0.023255813953483084,
          "durationTicks": 2,
          "midi": 43,
          "name": "G2",
          "ticks": 6029,
          "time": 70.1046511627907,
          "velocity": 0.31496062992125984
        },
        {
          "duration": 0.05813953488372192,
          "durationTicks": 5,
          "midi": 36,
          "name": "C2",
          "ticks": 6032,
          "time": 70.13953488372093,
          "velocity": 0.31496062992125984
        },
        {
          "duration": 0.11627906976744384,
          "durationTicks": 10,
          "midi": 64,
          "name": "E4",
          "ticks": 6037,
          "time": 70.19767441860465,
          "velocity": 0.14173228346456693
        },
        {
          "duration": 0.11627906976744384,
          "durationTicks": 10,
          "midi": 67,
          "name": "G4",
          "ticks": 6037,
          "time": 70.19767441860465,
          "velocity": 0.15748031496062992
        },
        {
          "duration": 0.04651162790698038,
          "durationTicks": 4,
          "midi": 44,
          "name": "G#2",
          "ticks": 6038,
          "time": 70.20930232558139,
          "velocity": 0.3228346456692913
        },
        {
          "duration": 0.023255813953497295,
          "durationTicks": 2,
          "midi": 53,
          "name": "F3",
          "ticks": 6038,
          "time": 70.20930232558139,
          "velocity": 0.36220472440944884
        },
        {
          "duration": 0.10465116279068809,
          "durationTicks": 9,
          "midi": 60,
          "name": "C4",
          "ticks": 6039,
          "time": 70.22093023255815,
          "velocity": 0.15748031496062992
        },
        {
          "duration": 0.023255813953483084,
          "durationTicks": 2,
          "midi": 37,
          "name": "C#2",
          "ticks": 6047,
          "time": 70.31395348837209,
          "velocity": 0.4015748031496063
        },
        {
          "duration": 0.023255813953483084,
          "durationTicks": 2,
          "midi": 50,
          "name": "D3",
          "ticks": 6047,
          "time": 70.31395348837209,
          "velocity": 0.29133858267716534
        },
        {
          "duration": 0.05813953488372192,
          "durationTicks": 5,
          "midi": 40,
          "name": "E2",
          "ticks": 6050,
          "time": 70.34883720930233,
          "velocity": 0.3543307086614173
        },
        {
          "duration": 0.04651162790696617,
          "durationTicks": 4,
          "midi": 52,
          "name": "E3",
          "ticks": 6055,
          "time": 70.40697674418605,
          "velocity": 0.15748031496062992
        },
        {
          "duration": 0.03488372093023884,
          "durationTicks": 3,
          "midi": 60,
          "name": "C4",
          "ticks": 6060,
          "time": 70.46511627906976,
          "velocity": 0.14173228346456693
        },
        {
          "duration": 0.03488372093023884,
          "durationTicks": 3,
          "midi": 64,
          "name": "E4",
          "ticks": 6065,
          "time": 70.52325581395348,
          "velocity": 0.2125984251968504
        },
        {
          "duration": 0.023255813953497295,
          "durationTicks": 2,
          "midi": 70,
          "name": "A#4",
          "ticks": 6065,
          "time": 70.52325581395348,
          "velocity": 0.2440944881889764
        },
        {
          "duration": 0.023255813953483084,
          "durationTicks": 2,
          "midi": 40,
          "name": "E2",
          "ticks": 6067,
          "time": 70.54651162790698,
          "velocity": 0.3779527559055118
        },
        {
          "duration": 0.034883720930224626,
          "durationTicks": 3,
          "midi": 55,
          "name": "G3",
          "ticks": 6067,
          "time": 70.54651162790698,
          "velocity": 0.33070866141732286
        },
        {
          "duration": 0.034883720930224626,
          "durationTicks": 3,
          "midi": 93,
          "name": "A6",
          "ticks": 6068,
          "time": 70.55813953488372,
          "velocity": 0.10236220472440945
        },
        {
          "duration": 0.023255813953483084,
          "durationTicks": 2,
          "midi": 43,
          "name": "G2",
          "ticks": 6069,
          "time": 70.56976744186046,
          "velocity": 0.3700787401574803
        },
        {
          "duration": 0.03488372093023884,
          "durationTicks": 3,
          "midi": 44,
          "name": "G#2",
          "ticks": 6071,
          "time": 70.59302325581395,
          "velocity": 0.3937007874015748
        },
        {
          "duration": 0.19767441860466306,
          "durationTicks": 17,
          "midi": 55,
          "name": "G3",
          "ticks": 6071,
          "time": 70.59302325581395,
          "velocity": 0.25196850393700787
        },
        {
          "duration": 0.06976744186046346,
          "durationTicks": 6,
          "midi": 43,
          "name": "G2",
          "ticks": 6074,
          "time": 70.62790697674419,
          "velocity": 0.3464566929133858
        },
        {
          "duration": 0.04651162790698038,
          "durationTicks": 4,
          "midi": 43,
          "name": "G2",
          "ticks": 6081,
          "time": 70.70930232558139,
          "velocity": 0.33070866141732286
        },
        {
          "duration": 0.03488372093023884,
          "durationTicks": 3,
          "midi": 78,
          "name": "F#5",
          "ticks": 6086,
          "time": 70.76744186046511,
          "velocity": 0.18110236220472442
        },
        {
          "duration": 0.023255813953497295,
          "durationTicks": 2,
          "midi": 41,
          "name": "F2",
          "ticks": 6087,
          "time": 70.77906976744185,
          "velocity": 0.33070866141732286
        },
        {
          "duration": 0.023255813953483084,
          "durationTicks": 2,
          "midi": 35,
          "name": "B1",
          "ticks": 6088,
          "time": 70.79069767441861,
          "velocity": 0.3228346456692913
        },
        {
          "duration": 0.22093023255813193,
          "durationTicks": 19,
          "midi": 60,
          "name": "C4",
          "ticks": 6088,
          "time": 70.79069767441861,
          "velocity": 0.15748031496062992
        },
        {
          "duration": 0.15116279069766847,
          "durationTicks": 13,
          "midi": 67,
          "name": "G4",
          "ticks": 6088,
          "time": 70.79069767441861,
          "velocity": 0.28346456692913385
        },
        {
          "duration": 0.03488372093023884,
          "durationTicks": 3,
          "midi": 36,
          "name": "C2",
          "ticks": 6090,
          "time": 70.81395348837209,
          "velocity": 0.2992125984251969
        },
        {
          "duration": 0.09302325581396076,
          "durationTicks": 8,
          "midi": 55,
          "name": "G3",
          "ticks": 6090,
          "time": 70.81395348837209,
          "velocity": 0.09448818897637795
        },
        {
          "duration": 0.023255813953483084,
          "durationTicks": 2,
          "midi": 48,
          "name": "C3",
          "ticks": 6093,
          "time": 70.84883720930233,
          "velocity": 0.25196850393700787
        },
        {
          "duration": 0.25581395348837077,
          "durationTicks": 22,
          "midi": 36,
          "name": "C2",
          "ticks": 6094,
          "time": 70.86046511627907,
          "velocity": 0.31496062992125984
        },
        {
          "duration": 0.34883720930233153,
          "durationTicks": 30,
          "midi": 72,
          "name": "C5",
          "ticks": 6097,
          "time": 70.8953488372093,
          "velocity": 0.2047244094488189
        },
        {
          "duration": 0.03488372093023884,
          "durationTicks": 3,
          "midi": 52,
          "name": "E3",
          "ticks": 6117,
          "time": 71.12790697674419,
          "velocity": 0.14960629921259844
        },
        {
          "duration": 0.03488372093023884,
          "durationTicks": 3,
          "midi": 43,
          "name": "G2",
          "ticks": 6122,
          "time": 71.18604651162791,
          "velocity": 0.2047244094488189
        },
        {
          "duration": 0.023255813953483084,
          "durationTicks": 2,
          "midi": 37,
          "name": "C#2",
          "ticks": 6128,
          "time": 71.25581395348837,
          "velocity": 0.4015748031496063
        },
        {
          "duration": 0.09302325581396076,
          "durationTicks": 8,
          "midi": 40,
          "name": "E2",
          "ticks": 6130,
          "time": 71.27906976744185,
          "velocity": 0.4094488188976378
        },
        {
          "duration": 0.034883720930224626,
          "durationTicks": 3,
          "midi": 100,
          "name": "E7",
          "ticks": 6132,
          "time": 71.30232558139535,
          "velocity": 0.07086614173228346
        },
        {
          "duration": 0.10465116279068809,
          "durationTicks": 9,
          "midi": 72,
          "name": "C5",
          "ticks": 6137,
          "time": 71.36046511627907,
          "velocity": 0.1968503937007874
        },
        {
          "duration": 0.05813953488372192,
          "durationTicks": 5,
          "midi": 91,
          "name": "G6",
          "ticks": 6140,
          "time": 71.3953488372093,
          "velocity": 0.07086614173228346
        },
        {
          "duration": 0.03488372093023884,
          "durationTicks": 3,
          "midi": 69,
          "name": "A4",
          "ticks": 6145,
          "time": 71.45348837209302,
          "velocity": 0.28346456692913385
        },
        {
          "duration": 0.10465116279068809,
          "durationTicks": 9,
          "midi": 67,
          "name": "G4",
          "ticks": 6147,
          "time": 71.47674418604652,
          "velocity": 0.13385826771653545
        },
        {
          "duration": 0.023255813953483084,
          "durationTicks": 2,
          "midi": 41,
          "name": "F2",
          "ticks": 6149,
          "time": 71.5,
          "velocity": 0.4409448818897638
        },
        {
          "duration": 0.1046511627907023,
          "durationTicks": 9,
          "midi": 100,
          "name": "E7",
          "ticks": 6150,
          "time": 71.51162790697674,
          "velocity": 0.11811023622047244
        },
        {
          "duration": 0.2093023255814046,
          "durationTicks": 18,
          "midi": 43,
          "name": "G2",
          "ticks": 6151,
          "time": 71.52325581395348,
          "velocity": 0.3858267716535433
        },
        {
          "duration": 0.04651162790698038,
          "durationTicks": 4,
          "midi": 62,
          "name": "D4",
          "ticks": 6156,
          "time": 71.5813953488372,
          "velocity": 0.07086614173228346
        },
        {
          "duration": 0.06976744186047767,
          "durationTicks": 6,
          "midi": 72,
          "name": "C5",
          "ticks": 6157,
          "time": 71.59302325581395,
          "velocity": 0.1732283464566929
        },
        {
          "duration": 0.081395348837205,
          "durationTicks": 7,
          "midi": 71,
          "name": "B4",
          "ticks": 6163,
          "time": 71.66279069767442,
          "velocity": 0.2204724409448819
        },
        {
          "duration": 0.13953488372094114,
          "durationTicks": 12,
          "midi": 79,
          "name": "G5",
          "ticks": 6167,
          "time": 71.70930232558139,
          "velocity": 0.16535433070866143
        },
        {
          "duration": 0.023255813953483084,
          "durationTicks": 2,
          "midi": 44,
          "name": "G#2",
          "ticks": 6169,
          "time": 71.73255813953489,
          "velocity": 0.36220472440944884
        },
        {
          "duration": 0.3488372093023173,
          "durationTicks": 30,
          "midi": 67,
          "name": "G4",
          "ticks": 6170,
          "time": 71.74418604651163,
          "velocity": 0.2283464566929134
        },
        {
          "duration": 0.081395348837205,
          "durationTicks": 7,
          "midi": 86,
          "name": "D6",
          "ticks": 6171,
          "time": 71.75581395348837,
          "velocity": 0.08661417322834646
        },
        {
          "duration": 0.04651162790698038,
          "durationTicks": 4,
          "midi": 83,
          "name": "B5",
          "ticks": 6178,
          "time": 71.83720930232558,
          "velocity": 0.07874015748031496
        },
        {
          "duration": 0.11627906976744384,
          "durationTicks": 10,
          "midi": 71,
          "name": "B4",
          "ticks": 6180,
          "time": 71.86046511627907,
          "velocity": 0.10236220472440945
        },
        {
          "duration": 0.10465116279068809,
          "durationTicks": 9,
          "midi": 90,
          "name": "F#6",
          "ticks": 6180,
          "time": 71.86046511627907,
          "velocity": 0.10236220472440945
        },
        {
          "duration": 0.023255813953483084,
          "durationTicks": 2,
          "midi": 36,
          "name": "C2",
          "ticks": 6181,
          "time": 71.87209302325581,
          "velocity": 0.31496062992125984
        },
        {
          "duration": 0.023255813953483084,
          "durationTicks": 2,
          "midi": 36,
          "name": "C2",
          "ticks": 6184,
          "time": 71.90697674418605,
          "velocity": 0.3228346456692913
        },
        {
          "duration": 0.04651162790698038,
          "durationTicks": 4,
          "midi": 36,
          "name": "C2",
          "ticks": 6187,
          "time": 71.94186046511628,
          "velocity": 0.31496062992125984
        },
        {
          "duration": 0.03488372093023884,
          "durationTicks": 3,
          "midi": 76,
          "name": "E5",
          "ticks": 6187,
          "time": 71.94186046511628,
          "velocity": 0.1968503937007874
        },
        {
          "duration": 0.12790697674418539,
          "durationTicks": 11,
          "midi": 86,
          "name": "D6",
          "ticks": 6188,
          "time": 71.95348837209302,
          "velocity": 0.11023622047244094
        },
        {
          "duration": 0.06976744186046346,
          "durationTicks": 6,
          "midi": 48,
          "name": "C3",
          "ticks": 6191,
          "time": 71.98837209302326,
          "velocity": 0.1968503937007874
        },
        {
          "duration": 0.023255813953483084,
          "durationTicks": 2,
          "midi": 36,
          "name": "C2",
          "ticks": 6192,
          "time": 72,
          "velocity": 0.2992125984251969
        },
        {
          "duration": 0.034883720930224626,
          "durationTicks": 3,
          "midi": 36,
          "name": "C2",
          "ticks": 6195,
          "time": 72.03488372093024,
          "velocity": 0.30708661417322836
        },
        {
          "duration": 0.08139534883721922,
          "durationTicks": 7,
          "midi": 83,
          "name": "B5",
          "ticks": 6199,
          "time": 72.0813953488372,
          "velocity": 0.08661417322834646
        },
        {
          "duration": 0.09302325581396076,
          "durationTicks": 8,
          "midi": 71,
          "name": "B4",
          "ticks": 6200,
          "time": 72.09302325581395,
          "velocity": 0.11023622047244094
        },
        {
          "duration": 0.09302325581394655,
          "durationTicks": 8,
          "midi": 90,
          "name": "F#6",
          "ticks": 6201,
          "time": 72.1046511627907,
          "velocity": 0.11023622047244094
        },
        {
          "duration": 0.081395348837205,
          "durationTicks": 7,
          "midi": 60,
          "name": "C4",
          "ticks": 6203,
          "time": 72.12790697674419,
          "velocity": 0.2204724409448819
        },
        {
          "duration": 0.03488372093023884,
          "durationTicks": 3,
          "midi": 44,
          "name": "G#2",
          "ticks": 6204,
          "time": 72.13953488372093,
          "velocity": 0.1968503937007874
        },
        {
          "duration": 0.12790697674418539,
          "durationTicks": 11,
          "midi": 67,
          "name": "G4",
          "ticks": 6206,
          "time": 72.16279069767442,
          "velocity": 0.18110236220472442
        },
        {
          "duration": 0.023255813953497295,
          "durationTicks": 2,
          "midi": 37,
          "name": "C#2",
          "ticks": 6209,
          "time": 72.19767441860465,
          "velocity": 0.3543307086614173
        },
        {
          "duration": 0.081395348837205,
          "durationTicks": 7,
          "midi": 52,
          "name": "E3",
          "ticks": 6209,
          "time": 72.19767441860465,
          "velocity": 0.2755905511811024
        },
        {
          "duration": 0.06976744186046346,
          "durationTicks": 6,
          "midi": 86,
          "name": "D6",
          "ticks": 6213,
          "time": 72.24418604651163,
          "velocity": 0.07874015748031496
        },
        {
          "duration": 0.04651162790698038,
          "durationTicks": 4,
          "midi": 40,
          "name": "E2",
          "ticks": 6215,
          "time": 72.26744186046511,
          "velocity": 0.33858267716535434
        },
        {
          "duration": 0.1860465116279073,
          "durationTicks": 16,
          "midi": 71,
          "name": "B4",
          "ticks": 6217,
          "time": 72.29069767441861,
          "velocity": 0.23622047244094488
        },
        {
          "duration": 0.03488372093023884,
          "durationTicks": 3,
          "midi": 53,
          "name": "F3",
          "ticks": 6219,
          "time": 72.31395348837209,
          "velocity": 0.13385826771653545
        },
        {
          "duration": 0.1046511627907023,
          "durationTicks": 9,
          "midi": 90,
          "name": "F#6",
          "ticks": 6219,
          "time": 72.31395348837209,
          "velocity": 0.11023622047244094
        },
        {
          "duration": 0.06976744186046346,
          "durationTicks": 6,
          "midi": 67,
          "name": "G4",
          "ticks": 6220,
          "time": 72.32558139534883,
          "velocity": 0.07874015748031496
        },
        {
          "duration": 0.034883720930224626,
          "durationTicks": 3,
          "midi": 36,
          "name": "C2",
          "ticks": 6223,
          "time": 72.36046511627907,
          "velocity": 0.13385826771653545
        },
        {
          "duration": 0.03488372093023884,
          "durationTicks": 3,
          "midi": 63,
          "name": "D#4",
          "ticks": 6226,
          "time": 72.3953488372093,
          "velocity": 0.1889763779527559
        },
        {
          "duration": 0.034883720930224626,
          "durationTicks": 3,
          "midi": 60,
          "name": "C4",
          "ticks": 6227,
          "time": 72.40697674418605,
          "velocity": 0.14173228346456693
        },
        {
          "duration": 0.22093023255813193,
          "durationTicks": 19,
          "midi": 67,
          "name": "G4",
          "ticks": 6227,
          "time": 72.40697674418605,
          "velocity": 0.1889763779527559
        },
        {
          "duration": 0.023255813953483084,
          "durationTicks": 2,
          "midi": 41,
          "name": "F2",
          "ticks": 6229,
          "time": 72.43023255813954,
          "velocity": 0.4330708661417323
        },
        {
          "duration": 0.1860465116279073,
          "durationTicks": 16,
          "midi": 55,
          "name": "G3",
          "ticks": 6230,
          "time": 72.44186046511628,
          "velocity": 0.2677165354330709
        },
        {
          "duration": 0.17441860465116577,
          "durationTicks": 15,
          "midi": 43,
          "name": "G2",
          "ticks": 6231,
          "time": 72.45348837209302,
          "velocity": 0.3779527559055118
        },
        {
          "duration": 0.06976744186046346,
          "durationTicks": 6,
          "midi": 86,
          "name": "D6",
          "ticks": 6234,
          "time": 72.48837209302326,
          "velocity": 0.10236220472440945
        },
        {
          "duration": 0.04651162790696617,
          "durationTicks": 4,
          "midi": 83,
          "name": "B5",
          "ticks": 6239,
          "time": 72.54651162790698,
          "velocity": 0.07086614173228346
        },
        {
          "duration": 0.05813953488372192,
          "durationTicks": 5,
          "midi": 71,
          "name": "B4",
          "ticks": 6240,
          "time": 72.55813953488372,
          "velocity": 0.08661417322834646
        },
        {
          "duration": 0.2093023255814046,
          "durationTicks": 18,
          "midi": 78,
          "name": "F#5",
          "ticks": 6247,
          "time": 72.63953488372093,
          "velocity": 0.15748031496062992
        },
        {
          "duration": 0.06976744186046346,
          "durationTicks": 6,
          "midi": 67,
          "name": "G4",
          "ticks": 6249,
          "time": 72.66279069767442,
          "velocity": 0.1889763779527559
        },
        {
          "duration": 0.023255813953483084,
          "durationTicks": 2,
          "midi": 35,
          "name": "B1",
          "ticks": 6250,
          "time": 72.67441860465117,
          "velocity": 0.31496062992125984
        },
        {
          "duration": 0.3372093023255758,
          "durationTicks": 29,
          "midi": 48,
          "name": "C3",
          "ticks": 6250,
          "time": 72.67441860465117,
          "velocity": 0.33858267716535434
        },
        {
          "duration": 0.3139534883720927,
          "durationTicks": 27,
          "midi": 36,
          "name": "C2",
          "ticks": 6252,
          "time": 72.69767441860465,
          "velocity": 0.3228346456692913
        },
        {
          "duration": 0.13953488372092693,
          "durationTicks": 12,
          "midi": 55,
          "name": "G3",
          "ticks": 6262,
          "time": 72.81395348837209,
          "velocity": 0.14960629921259844
        },
        {
          "duration": 0.15116279069768268,
          "durationTicks": 13,
          "midi": 78,
          "name": "F#5",
          "ticks": 6269,
          "time": 72.8953488372093,
          "velocity": 0.13385826771653545
        },
        {
          "duration": 0.06976744186046346,
          "durationTicks": 6,
          "midi": 67,
          "name": "G4",
          "ticks": 6274,
          "time": 72.95348837209302,
          "velocity": 0.11811023622047244
        },
        {
          "duration": 0.034883720930224626,
          "durationTicks": 3,
          "midi": 55,
          "name": "G3",
          "ticks": 6276,
          "time": 72.97674418604652,
          "velocity": 0.14173228346456693
        },
        {
          "duration": 0.1046511627907023,
          "durationTicks": 9,
          "midi": 60,
          "name": "C4",
          "ticks": 6280,
          "time": 73.02325581395348,
          "velocity": 0.15748031496062992
        },
        {
          "duration": 0.09302325581396076,
          "durationTicks": 8,
          "midi": 64,
          "name": "E4",
          "ticks": 6280,
          "time": 73.02325581395348,
          "velocity": 0.12598425196850394
        },
        {
          "duration": 0.023255813953483084,
          "durationTicks": 2,
          "midi": 43,
          "name": "G2",
          "ticks": 6282,
          "time": 73.04651162790698,
          "velocity": 0.2755905511811024
        },
        {
          "duration": 0.2093023255813904,
          "durationTicks": 18,
          "midi": 78,
          "name": "F#5",
          "ticks": 6288,
          "time": 73.11627906976744,
          "velocity": 0.15748031496062992
        },
        {
          "duration": 0.06976744186046346,
          "durationTicks": 6,
          "midi": 52,
          "name": "E3",
          "ticks": 6290,
          "time": 73.13953488372093,
          "velocity": 0.1889763779527559
        },
        {
          "duration": 0.09302325581394655,
          "durationTicks": 8,
          "midi": 40,
          "name": "E2",
          "ticks": 6292,
          "time": 73.16279069767442,
          "velocity": 0.3700787401574803
        },
        {
          "duration": 0.03488372093023884,
          "durationTicks": 3,
          "midi": 51,
          "name": "D#3",
          "ticks": 6296,
          "time": 73.20930232558139,
          "velocity": 0.14960629921259844
        },
        {
          "duration": 0.03488372093023884,
          "durationTicks": 3,
          "midi": 48,
          "name": "C3",
          "ticks": 6306,
          "time": 73.32558139534883,
          "velocity": 0.11023622047244094
        },
        {
          "duration": 0.04651162790698038,
          "durationTicks": 4,
          "midi": 67,
          "name": "G4",
          "ticks": 6306,
          "time": 73.32558139534883,
          "velocity": 0.15748031496062992
        },
        {
          "duration": 0.11627906976744384,
          "durationTicks": 10,
          "midi": 64,
          "name": "E4",
          "ticks": 6307,
          "time": 73.33720930232558,
          "velocity": 0.23622047244094488
        },
        {
          "duration": 0.03488372093023884,
          "durationTicks": 3,
          "midi": 70,
          "name": "A#4",
          "ticks": 6307,
          "time": 73.33720930232558,
          "velocity": 0.2283464566929134
        },
        {
          "duration": 0.12790697674418539,
          "durationTicks": 11,
          "midi": 78,
          "name": "F#5",
          "ticks": 6308,
          "time": 73.34883720930233,
          "velocity": 0.12598425196850394
        },
        {
          "duration": 0.034883720930224626,
          "durationTicks": 3,
          "midi": 41,
          "name": "F2",
          "ticks": 6309,
          "time": 73.36046511627907,
          "velocity": 0.4330708661417323
        },
        {
          "duration": 0.16279069767441,
          "durationTicks": 14,
          "midi": 43,
          "name": "G2",
          "ticks": 6313,
          "time": 73.40697674418605,
          "velocity": 0.3543307086614173
        },
        {
          "duration": 0.03488372093023884,
          "durationTicks": 3,
          "midi": 64,
          "name": "E4",
          "ticks": 6321,
          "time": 73.5,
          "velocity": 0.09448818897637795
        },
        {
          "duration": 0.19767441860464885,
          "durationTicks": 17,
          "midi": 76,
          "name": "E5",
          "ticks": 6328,
          "time": 73.5813953488372,
          "velocity": 0.15748031496062992
        },
        {
          "duration": 0.023255813953483084,
          "durationTicks": 2,
          "midi": 47,
          "name": "B2",
          "ticks": 6330,
          "time": 73.6046511627907,
          "velocity": 0.3228346456692913
        },
        {
          "duration": 0.023255813953483084,
          "durationTicks": 2,
          "midi": 35,
          "name": "B1",
          "ticks": 6331,
          "time": 73.61627906976744,
          "velocity": 0.2992125984251969
        },
        {
          "duration": 0.023255813953483084,
          "durationTicks": 2,
          "midi": 48,
          "name": "C3",
          "ticks": 6332,
          "time": 73.62790697674419,
          "velocity": 0.29133858267716534
        },
        {
          "duration": 0.16279069767442422,
          "durationTicks": 14,
          "midi": 64,
          "name": "E4",
          "ticks": 6332,
          "time": 73.62790697674419,
          "velocity": 0.13385826771653545
        },
        {
          "duration": 0.08139534883721922,
          "durationTicks": 7,
          "midi": 36,
          "name": "C2",
          "ticks": 6333,
          "time": 73.63953488372093,
          "velocity": 0.30708661417322836
        },
        {
          "duration": 0.09302325581396076,
          "durationTicks": 8,
          "midi": 55,
          "name": "G3",
          "ticks": 6333,
          "time": 73.63953488372093,
          "velocity": 0.2283464566929134
        },
        {
          "duration": 0.04651162790696617,
          "durationTicks": 4,
          "midi": 48,
          "name": "C3",
          "ticks": 6340,
          "time": 73.72093023255815,
          "velocity": 0.23622047244094488
        },
        {
          "duration": 0.081395348837205,
          "durationTicks": 7,
          "midi": 91,
          "name": "G6",
          "ticks": 6340,
          "time": 73.72093023255815,
          "velocity": 0.07086614173228346
        },
        {
          "duration": 0.081395348837205,
          "durationTicks": 7,
          "midi": 36,
          "name": "C2",
          "ticks": 6341,
          "time": 73.73255813953489,
          "velocity": 0.31496062992125984
        },
        {
          "duration": 0.05813953488372192,
          "durationTicks": 5,
          "midi": 55,
          "name": "G3",
          "ticks": 6344,
          "time": 73.76744186046511,
          "velocity": 0.12598425196850394
        },
        {
          "duration": 0.034883720930224626,
          "durationTicks": 3,
          "midi": 47,
          "name": "B2",
          "ticks": 6347,
          "time": 73.80232558139535,
          "velocity": 0.2755905511811024
        },
        {
          "duration": 0.1860465116279073,
          "durationTicks": 16,
          "midi": 76,
          "name": "E5",
          "ticks": 6348,
          "time": 73.81395348837209,
          "velocity": 0.1732283464566929
        },
        {
          "duration": 0.05813953488372192,
          "durationTicks": 5,
          "midi": 36,
          "name": "C2",
          "ticks": 6349,
          "time": 73.82558139534883,
          "velocity": 0.2992125984251969
        },
        {
          "duration": 0.418604651162795,
          "durationTicks": 36,
          "midi": 64,
          "name": "E4",
          "ticks": 6350,
          "time": 73.83720930232558,
          "velocity": 0.2047244094488189
        },
        {
          "duration": 0.04651162790698038,
          "durationTicks": 4,
          "midi": 52,
          "name": "E3",
          "ticks": 6353,
          "time": 73.87209302325581,
          "velocity": 0.13385826771653545
        },
        {
          "duration": 0.023255813953483084,
          "durationTicks": 2,
          "midi": 45,
          "name": "A2",
          "ticks": 6358,
          "time": 73.93023255813954,
          "velocity": 0.3779527559055118
        },
        {
          "duration": 0.05813953488372192,
          "durationTicks": 5,
          "midi": 60,
          "name": "C4",
          "ticks": 6359,
          "time": 73.94186046511628,
          "velocity": 0.10236220472440945
        },
        {
          "duration": 0.03488372093023884,
          "durationTicks": 3,
          "midi": 55,
          "name": "G3",
          "ticks": 6360,
          "time": 73.95348837209302,
          "velocity": 0.2125984251968504
        },
        {
          "duration": 0.1046511627907023,
          "durationTicks": 9,
          "midi": 91,
          "name": "G6",
          "ticks": 6360,
          "time": 73.95348837209302,
          "velocity": 0.07086614173228346
        },
        {
          "duration": 0.04651162790698038,
          "durationTicks": 4,
          "midi": 48,
          "name": "C3",
          "ticks": 6361,
          "time": 73.96511627906976,
          "velocity": 0.30708661417322836
        },
        {
          "duration": 0.081395348837205,
          "durationTicks": 7,
          "midi": 79,
          "name": "G5",
          "ticks": 6362,
          "time": 73.97674418604652,
          "velocity": 0.15748031496062992
        },
        {
          "duration": 0.023255813953483084,
          "durationTicks": 2,
          "midi": 36,
          "name": "C2",
          "ticks": 6363,
          "time": 73.98837209302326,
          "velocity": 0.29133858267716534
        },
        {
          "duration": 0.023255813953497295,
          "durationTicks": 2,
          "midi": 38,
          "name": "D2",
          "ticks": 6365,
          "time": 74.01162790697674,
          "velocity": 0.2283464566929134
        },
        {
          "duration": 0.034883720930224626,
          "durationTicks": 3,
          "midi": 55,
          "name": "G3",
          "ticks": 6368,
          "time": 74.04651162790698,
          "velocity": 0.2125984251968504
        },
        {
          "duration": 0.034883720930224626,
          "durationTicks": 3,
          "midi": 35,
          "name": "B1",
          "ticks": 6369,
          "time": 74.05813953488372,
          "velocity": 0.3464566929133858
        },
        {
          "duration": 0.023255813953497295,
          "durationTicks": 2,
          "midi": 49,
          "name": "C#3",
          "ticks": 6371,
          "time": 74.0813953488372,
          "velocity": 0.2440944881889764
        },
        {
          "duration": 0.1860465116279073,
          "durationTicks": 16,
          "midi": 37,
          "name": "C#2",
          "ticks": 6373,
          "time": 74.1046511627907,
          "velocity": 0.33070866141732286
        },
        {
          "duration": 0.05813953488372192,
          "durationTicks": 5,
          "midi": 60,
          "name": "C4",
          "ticks": 6378,
          "time": 74.16279069767442,
          "velocity": 0.10236220472440945
        },
        {
          "duration": 0.05813953488372192,
          "durationTicks": 5,
          "midi": 55,
          "name": "G3",
          "ticks": 6382,
          "time": 74.20930232558139,
          "velocity": 0.12598425196850394
        },
        {
          "duration": 0.023255813953497295,
          "durationTicks": 2,
          "midi": 70,
          "name": "A#4",
          "ticks": 6387,
          "time": 74.26744186046511,
          "velocity": 0.2283464566929134
        },
        {
          "duration": 0.13953488372094114,
          "durationTicks": 12,
          "midi": 76,
          "name": "E5",
          "ticks": 6388,
          "time": 74.27906976744185,
          "velocity": 0.1732283464566929
        },
        {
          "duration": 0.10465116279068809,
          "durationTicks": 9,
          "midi": 67,
          "name": "G4",
          "ticks": 6389,
          "time": 74.29069767441861,
          "velocity": 0.2125984251968504
        },
        {
          "duration": 0.034883720930224626,
          "durationTicks": 3,
          "midi": 35,
          "name": "B1",
          "ticks": 6390,
          "time": 74.30232558139535,
          "velocity": 0.29133858267716534
        },
        {
          "duration": 0.023255813953483084,
          "durationTicks": 2,
          "midi": 50,
          "name": "D3",
          "ticks": 6391,
          "time": 74.31395348837209,
          "velocity": 0.25196850393700787
        },
        {
          "duration": 0.15116279069766847,
          "durationTicks": 13,
          "midi": 37,
          "name": "C#2",
          "ticks": 6394,
          "time": 74.34883720930233,
          "velocity": 0.31496062992125984
        },
        {
          "duration": 0.034883720930224626,
          "durationTicks": 3,
          "midi": 91,
          "name": "G6",
          "ticks": 6399,
          "time": 74.40697674418605,
          "velocity": 0.07874015748031496
        },
        {
          "duration": 0.034883720930224626,
          "durationTicks": 3,
          "midi": 67,
          "name": "G4",
          "ticks": 6400,
          "time": 74.4186046511628,
          "velocity": 0.16535433070866143
        },
        {
          "duration": 0.023255813953483084,
          "durationTicks": 2,
          "midi": 48,
          "name": "C3",
          "ticks": 6402,
          "time": 74.44186046511628,
          "velocity": 0.2440944881889764
        },
        {
          "duration": 0.7209302325581319,
          "durationTicks": 62,
          "midi": 74,
          "name": "D5",
          "ticks": 6406,
          "time": 74.48837209302326,
          "velocity": 0.13385826771653545
        },
        {
          "duration": 0.2093023255814046,
          "durationTicks": 18,
          "midi": 57,
          "name": "A3",
          "ticks": 6409,
          "time": 74.52325581395348,
          "velocity": 0.2047244094488189
        },
        {
          "duration": 0.023255813953483084,
          "durationTicks": 2,
          "midi": 50,
          "name": "D3",
          "ticks": 6410,
          "time": 74.53488372093024,
          "velocity": 0.25196850393700787
        },
        {
          "duration": 0.1046511627907023,
          "durationTicks": 9,
          "midi": 90,
          "name": "F#6",
          "ticks": 6412,
          "time": 74.55813953488372,
          "velocity": 0.15748031496062992
        },
        {
          "duration": 0.04651162790698038,
          "durationTicks": 4,
          "midi": 50,
          "name": "D3",
          "ticks": 6413,
          "time": 74.56976744186046,
          "velocity": 0.18110236220472442
        },
        {
          "duration": 0.1860465116279073,
          "durationTicks": 16,
          "midi": 38,
          "name": "D2",
          "ticks": 6414,
          "time": 74.5813953488372,
          "velocity": 0.31496062992125984
        },
        {
          "duration": 0.1046511627907023,
          "durationTicks": 9,
          "midi": 66,
          "name": "F#4",
          "ticks": 6430,
          "time": 74.76744186046511,
          "velocity": 0.09448818897637795
        },
        {
          "duration": 0.1046511627907023,
          "durationTicks": 9,
          "midi": 38,
          "name": "D2",
          "ticks": 6431,
          "time": 74.77906976744185,
          "velocity": 0.30708661417322836
        },
        {
          "duration": 0.11627906976744384,
          "durationTicks": 10,
          "midi": 62,
          "name": "D4",
          "ticks": 6431,
          "time": 74.77906976744185,
          "velocity": 0.15748031496062992
        },
        {
          "duration": 0.081395348837205,
          "durationTicks": 7,
          "midi": 44,
          "name": "G#2",
          "ticks": 6440,
          "time": 74.88372093023256,
          "velocity": 0.3228346456692913
        },
        {
          "duration": 0.023255813953497295,
          "durationTicks": 2,
          "midi": 52,
          "name": "E3",
          "ticks": 6440,
          "time": 74.88372093023256,
          "velocity": 0.23622047244094488
        },
        {
          "duration": 0.13953488372092693,
          "durationTicks": 12,
          "midi": 66,
          "name": "F#4",
          "ticks": 6440,
          "time": 74.88372093023256,
          "velocity": 0.16535433070866143
        },
        {
          "duration": 0.05813953488372192,
          "durationTicks": 5,
          "midi": 62,
          "name": "D4",
          "ticks": 6443,
          "time": 74.9186046511628,
          "velocity": 0.13385826771653545
        },
        {
          "duration": 0.023255813953497295,
          "durationTicks": 2,
          "midi": 42,
          "name": "F#2",
          "ticks": 6447,
          "time": 74.96511627906976,
          "velocity": 0.25196850393700787
        },
        {
          "duration": 0.023255813953483084,
          "durationTicks": 2,
          "midi": 40,
          "name": "E2",
          "ticks": 6449,
          "time": 74.98837209302326,
          "velocity": 0.4330708661417323
        },
        {
          "duration": 0.05813953488370771,
          "durationTicks": 5,
          "midi": 42,
          "name": "F#2",
          "ticks": 6453,
          "time": 75.03488372093024,
          "velocity": 0.3464566929133858
        },
        {
          "duration": 0.06976744186046346,
          "durationTicks": 6,
          "midi": 62,
          "name": "D4",
          "ticks": 6454,
          "time": 75.04651162790698,
          "velocity": 0.10236220472440945
        },
        {
          "duration": 0.06976744186046346,
          "durationTicks": 6,
          "midi": 60,
          "name": "C4",
          "ticks": 6460,
          "time": 75.11627906976744,
          "velocity": 0.14960629921259844
        },
        {
          "duration": 0.023255813953497295,
          "durationTicks": 2,
          "midi": 45,
          "name": "A2",
          "ticks": 6467,
          "time": 75.19767441860465,
          "velocity": 0.3779527559055118
        },
        {
          "duration": 0.03488372093023884,
          "durationTicks": 3,
          "midi": 64,
          "name": "E4",
          "ticks": 6468,
          "time": 75.20930232558139,
          "velocity": 0.23622047244094488
        },
        {
          "duration": 0.034883720930224626,
          "durationTicks": 3,
          "midi": 54,
          "name": "F#3",
          "ticks": 6471,
          "time": 75.24418604651163,
          "velocity": 0.13385826771653545
        },
        {
          "duration": 0.19767441860464885,
          "durationTicks": 17,
          "midi": 45,
          "name": "A2",
          "ticks": 6472,
          "time": 75.25581395348837,
          "velocity": 0.3937007874015748
        },
        {
          "duration": 0.15116279069768268,
          "durationTicks": 13,
          "midi": 74,
          "name": "D5",
          "ticks": 6473,
          "time": 75.26744186046511,
          "velocity": 0.09448818897637795
        },
        {
          "duration": 0.08139534883721922,
          "durationTicks": 7,
          "midi": 62,
          "name": "D4",
          "ticks": 6478,
          "time": 75.32558139534883,
          "velocity": 0.07086614173228346
        },
        {
          "duration": 0.04651162790696617,
          "durationTicks": 4,
          "midi": 66,
          "name": "F#4",
          "ticks": 6485,
          "time": 75.40697674418605,
          "velocity": 0.13385826771653545
        },
        {
          "duration": 0.12790697674418539,
          "durationTicks": 11,
          "midi": 57,
          "name": "A3",
          "ticks": 6496,
          "time": 75.53488372093024,
          "velocity": 0.11811023622047244
        },
        {
          "duration": 0.04651162790696617,
          "durationTicks": 4,
          "midi": 38,
          "name": "D2",
          "ticks": 6497,
          "time": 75.54651162790698,
          "velocity": 0.31496062992125984
        },
        {
          "duration": 0.034883720930224626,
          "durationTicks": 3,
          "midi": 64,
          "name": "E4",
          "ticks": 6497,
          "time": 75.54651162790698,
          "velocity": 0.07874015748031496
        },
        {
          "duration": 0.06976744186046346,
          "durationTicks": 6,
          "midi": 38,
          "name": "D2",
          "ticks": 6502,
          "time": 75.6046511627907,
          "velocity": 0.3228346456692913
        },
        {
          "duration": 0.081395348837205,
          "durationTicks": 7,
          "midi": 66,
          "name": "F#4",
          "ticks": 6510,
          "time": 75.69767441860465,
          "velocity": 0.12598425196850394
        },
        {
          "duration": 0.04651162790698038,
          "durationTicks": 4,
          "midi": 38,
          "name": "D2",
          "ticks": 6514,
          "time": 75.74418604651163,
          "velocity": 0.30708661417322836
        },
        {
          "duration": 0.04651162790698038,
          "durationTicks": 4,
          "midi": 64,
          "name": "E4",
          "ticks": 6516,
          "time": 75.76744186046511,
          "velocity": 0.1732283464566929
        },
        {
          "duration": 0.06976744186047767,
          "durationTicks": 6,
          "midi": 69,
          "name": "A4",
          "ticks": 6517,
          "time": 75.77906976744185,
          "velocity": 0.1968503937007874
        },
        {
          "duration": 0.06976744186046346,
          "durationTicks": 6,
          "midi": 45,
          "name": "A2",
          "ticks": 6519,
          "time": 75.80232558139535,
          "velocity": 0.3543307086614173
        },
        {
          "duration": 0.05813953488372192,
          "durationTicks": 5,
          "midi": 66,
          "name": "F#4",
          "ticks": 6524,
          "time": 75.86046511627907,
          "velocity": 0.07086614173228346
        },
        {
          "duration": 0.05813953488372192,
          "durationTicks": 5,
          "midi": 57,
          "name": "A3",
          "ticks": 6525,
          "time": 75.87209302325581,
          "velocity": 0.1889763779527559
        },
        {
          "duration": 0.05813953488372192,
          "durationTicks": 5,
          "midi": 44,
          "name": "G#2",
          "ticks": 6529,
          "time": 75.9186046511628,
          "velocity": 0.41732283464566927
        },
        {
          "duration": 0.22093023255813193,
          "durationTicks": 19,
          "midi": 45,
          "name": "A2",
          "ticks": 6534,
          "time": 75.97674418604652,
          "velocity": 0.3858267716535433
        },
        {
          "duration": 0.081395348837205,
          "durationTicks": 7,
          "midi": 60,
          "name": "C4",
          "ticks": 6539,
          "time": 76.03488372093024,
          "velocity": 0.15748031496062992
        },
        {
          "duration": 0.03488372093023884,
          "durationTicks": 3,
          "midi": 64,
          "name": "E4",
          "ticks": 6548,
          "time": 76.13953488372093,
          "velocity": 0.25984251968503935
        },
        {
          "duration": 0.05813953488372192,
          "durationTicks": 5,
          "midi": 69,
          "name": "A4",
          "ticks": 6549,
          "time": 76.15116279069767,
          "velocity": 0.1889763779527559
        },
        {
          "duration": 0.034883720930224626,
          "durationTicks": 3,
          "midi": 50,
          "name": "D3",
          "ticks": 6550,
          "time": 76.16279069767442,
          "velocity": 0.2677165354330709
        },
        {
          "duration": 0.05813953488372192,
          "durationTicks": 5,
          "midi": 62,
          "name": "D4",
          "ticks": 6553,
          "time": 76.19767441860465,
          "velocity": 0.10236220472440945
        },
        {
          "duration": 0.12790697674418539,
          "durationTicks": 11,
          "midi": 50,
          "name": "D3",
          "ticks": 6554,
          "time": 76.20930232558139,
          "velocity": 0.2992125984251969
        },
        {
          "duration": 0.034883720930224626,
          "durationTicks": 3,
          "midi": 74,
          "name": "D5",
          "ticks": 6567,
          "time": 76.36046511627907,
          "velocity": 0.11811023622047244
        },
        {
          "duration": 0.19767441860464885,
          "durationTicks": 17,
          "midi": 57,
          "name": "A3",
          "ticks": 6568,
          "time": 76.37209302325581,
          "velocity": 0.11023622047244094
        },
        {
          "duration": 0.023255813953497295,
          "durationTicks": 2,
          "midi": 45,
          "name": "A2",
          "ticks": 6569,
          "time": 76.38372093023256,
          "velocity": 0.3700787401574803
        },
        {
          "duration": 0.023255813953497295,
          "durationTicks": 2,
          "midi": 36,
          "name": "C2",
          "ticks": 6570,
          "time": 76.3953488372093,
          "velocity": 0.3700787401574803
        },
        {
          "duration": 0.03488372093023884,
          "durationTicks": 3,
          "midi": 50,
          "name": "D3",
          "ticks": 6570,
          "time": 76.3953488372093,
          "velocity": 0.3228346456692913
        },
        {
          "duration": 0.023255813953483084,
          "durationTicks": 2,
          "midi": 38,
          "name": "D2",
          "ticks": 6574,
          "time": 76.44186046511628,
          "velocity": 0.3228346456692913
        },
        {
          "duration": 0.023255813953497295,
          "durationTicks": 2,
          "midi": 38,
          "name": "D2",
          "ticks": 6581,
          "time": 76.52325581395348,
          "velocity": 0.31496062992125984
        },
        {
          "duration": 0.04651162790698038,
          "durationTicks": 4,
          "midi": 38,
          "name": "D2",
          "ticks": 6584,
          "time": 76.55813953488372,
          "velocity": 0.31496062992125984
        },
        {
          "duration": 0.023255813953497295,
          "durationTicks": 2,
          "midi": 51,
          "name": "D#3",
          "ticks": 6587,
          "time": 76.59302325581395,
          "velocity": 0.2440944881889764
        },
        {
          "duration": 0.023255813953483084,
          "durationTicks": 2,
          "midi": 49,
          "name": "C#3",
          "ticks": 6589,
          "time": 76.61627906976744,
          "velocity": 0.2440944881889764
        },
        {
          "duration": 0.11627906976744384,
          "durationTicks": 10,
          "midi": 66,
          "name": "F#4",
          "ticks": 6590,
          "time": 76.62790697674419,
          "velocity": 0.16535433070866143
        },
        {
          "duration": 0.023255813953497295,
          "durationTicks": 2,
          "midi": 50,
          "name": "D3",
          "ticks": 6591,
          "time": 76.63953488372093,
          "velocity": 0.25196850393700787
        },
        {
          "duration": 0.023255813953483084,
          "durationTicks": 2,
          "midi": 38,
          "name": "D2",
          "ticks": 6595,
          "time": 76.68604651162791,
          "velocity": 0.30708661417322836
        },
        {
          "duration": 0.023255813953497295,
          "durationTicks": 2,
          "midi": 39,
          "name": "D#2",
          "ticks": 6597,
          "time": 76.70930232558139,
          "velocity": 0.30708661417322836
        },
        {
          "duration": 0.023255813953483084,
          "durationTicks": 2,
          "midi": 57,
          "name": "A3",
          "ticks": 6598,
          "time": 76.72093023255815,
          "velocity": 0.25984251968503935
        },
        {
          "duration": 0.03488372093023884,
          "durationTicks": 3,
          "midi": 53,
          "name": "F3",
          "ticks": 6602,
          "time": 76.76744186046511,
          "velocity": 0.11023622047244094
        },
        {
          "duration": 0.023255813953483084,
          "durationTicks": 2,
          "midi": 45,
          "name": "A2",
          "ticks": 6606,
          "time": 76.81395348837209,
          "velocity": 0.2440944881889764
        },
        {
          "duration": 0.023255813953483084,
          "durationTicks": 2,
          "midi": 40,
          "name": "E2",
          "ticks": 6609,
          "time": 76.84883720930233,
          "velocity": 0.41732283464566927
        },
        {
          "duration": 0.11627906976744384,
          "durationTicks": 10,
          "midi": 42,
          "name": "F#2",
          "ticks": 6613,
          "time": 76.8953488372093,
          "velocity": 0.36220472440944884
        },
        {
          "duration": 0.15116279069766847,
          "durationTicks": 13,
          "midi": 57,
          "name": "A3",
          "ticks": 6627,
          "time": 77.05813953488372,
          "velocity": 0.30708661417322836
        },
        {
          "duration": 0.034883720930224626,
          "durationTicks": 3,
          "midi": 64,
          "name": "E4",
          "ticks": 6627,
          "time": 77.05813953488372,
          "velocity": 0.18110236220472442
        },
        {
          "duration": 0.023255813953483084,
          "durationTicks": 2,
          "midi": 45,
          "name": "A2",
          "ticks": 6631,
          "time": 77.1046511627907,
          "velocity": 0.3937007874015748
        },
        {
          "duration": 0.15116279069768268,
          "durationTicks": 13,
          "midi": 45,
          "name": "A2",
          "ticks": 6634,
          "time": 77.13953488372093,
          "velocity": 0.36220472440944884
        },
        {
          "duration": 0.27906976744185386,
          "durationTicks": 24,
          "midi": 64,
          "name": "E4",
          "ticks": 6649,
          "time": 77.31395348837209,
          "velocity": 0.23622047244094488
        },
        {
          "duration": 0.023255813953497295,
          "durationTicks": 2,
          "midi": 37,
          "name": "C#2",
          "ticks": 6650,
          "time": 77.32558139534883,
          "velocity": 0.30708661417322836
        },
        {
          "duration": 0.034883720930224626,
          "durationTicks": 3,
          "midi": 38,
          "name": "D2",
          "ticks": 6652,
          "time": 77.34883720930233,
          "velocity": 0.2992125984251969
        },
        {
          "duration": 0.16279069767442422,
          "durationTicks": 14,
          "midi": 38,
          "name": "D2",
          "ticks": 6656,
          "time": 77.3953488372093,
          "velocity": 0.30708661417322836
        },
        {
          "duration": 0.03488372093023884,
          "durationTicks": 3,
          "midi": 49,
          "name": "C#3",
          "ticks": 6667,
          "time": 77.52325581395348,
          "velocity": 0.1889763779527559
        },
        {
          "duration": 0.034883720930224626,
          "durationTicks": 3,
          "midi": 69,
          "name": "A4",
          "ticks": 6669,
          "time": 77.54651162790698,
          "velocity": 0.10236220472440945
        },
        {
          "duration": 0.04651162790698038,
          "durationTicks": 4,
          "midi": 57,
          "name": "A3",
          "ticks": 6670,
          "time": 77.55813953488372,
          "velocity": 0.07874015748031496
        },
        {
          "duration": 0.05813953488372192,
          "durationTicks": 5,
          "midi": 38,
          "name": "D2",
          "ticks": 6671,
          "time": 77.56976744186046,
          "velocity": 0.30708661417322836
        },
        {
          "duration": 0.05813953488372192,
          "durationTicks": 5,
          "midi": 69,
          "name": "A4",
          "ticks": 6678,
          "time": 77.65116279069767,
          "velocity": 0.2047244094488189
        },
        {
          "duration": 0.023255813953483084,
          "durationTicks": 2,
          "midi": 44,
          "name": "G#2",
          "ticks": 6681,
          "time": 77.68604651162791,
          "velocity": 0.36220472440944884
        },
        {
          "duration": 0.03488372093023884,
          "durationTicks": 3,
          "midi": 45,
          "name": "A2",
          "ticks": 6683,
          "time": 77.70930232558139,
          "velocity": 0.2440944881889764
        },
        {
          "duration": 0.023255813953483084,
          "durationTicks": 2,
          "midi": 44,
          "name": "G#2",
          "ticks": 6686,
          "time": 77.74418604651163,
          "velocity": 0.2283464566929134
        },
        {
          "duration": 0.03488372093023884,
          "durationTicks": 3,
          "midi": 72,
          "name": "C5",
          "ticks": 6688,
          "time": 77.76744186046511,
          "velocity": 0.1732283464566929
        },
        {
          "duration": 0.05813953488372192,
          "durationTicks": 5,
          "midi": 61,
          "name": "C#4",
          "ticks": 6689,
          "time": 77.77906976744185,
          "velocity": 0.09448818897637795
        },
        {
          "duration": 0.023255813953483084,
          "durationTicks": 2,
          "midi": 40,
          "name": "E2",
          "ticks": 6690,
          "time": 77.79069767441861,
          "velocity": 0.4251968503937008
        },
        {
          "duration": 0.1046511627907023,
          "durationTicks": 9,
          "midi": 54,
          "name": "F#3",
          "ticks": 6693,
          "time": 77.82558139534883,
          "velocity": 0.18110236220472442
        },
        {
          "duration": 0.11627906976744384,
          "durationTicks": 10,
          "midi": 42,
          "name": "F#2",
          "ticks": 6694,
          "time": 77.83720930232558,
          "velocity": 0.36220472440944884
        },
        {
          "duration": 0.023255813953483084,
          "durationTicks": 2,
          "midi": 50,
          "name": "D3",
          "ticks": 6708,
          "time": 78,
          "velocity": 0.2755905511811024
        },
        {
          "duration": 0.023255813953483084,
          "durationTicks": 2,
          "midi": 64,
          "name": "E4",
          "ticks": 6708,
          "time": 78,
          "velocity": 0.25196850393700787
        },
        {
          "duration": 0.03488372093023884,
          "durationTicks": 3,
          "midi": 69,
          "name": "A4",
          "ticks": 6709,
          "time": 78.01162790697674,
          "velocity": 0.08661417322834646
        },
        {
          "duration": 0.023255813953483084,
          "durationTicks": 2,
          "midi": 45,
          "name": "A2",
          "ticks": 6711,
          "time": 78.03488372093024,
          "velocity": 0.3543307086614173
        },
        {
          "duration": 0.023255813953483084,
          "durationTicks": 2,
          "midi": 53,
          "name": "F3",
          "ticks": 6711,
          "time": 78.03488372093024,
          "velocity": 0.2440944881889764
        },
        {
          "duration": 0.12790697674418539,
          "durationTicks": 11,
          "midi": 66,
          "name": "F#4",
          "ticks": 6718,
          "time": 78.11627906976744,
          "velocity": 0.14960629921259844
        },
        {
          "duration": 0.023255813953483084,
          "durationTicks": 2,
          "midi": 44,
          "name": "G#2",
          "ticks": 6719,
          "time": 78.12790697674419,
          "velocity": 0.41732283464566927
        },
        {
          "duration": 0.03488372093023884,
          "durationTicks": 3,
          "midi": 57,
          "name": "A3",
          "ticks": 6719,
          "time": 78.12790697674419,
          "velocity": 0.15748031496062992
        },
        {
          "duration": 0.03488372093023884,
          "durationTicks": 3,
          "midi": 64,
          "name": "E4",
          "ticks": 6719,
          "time": 78.12790697674419,
          "velocity": 0.07086614173228346
        },
        {
          "duration": 0.09302325581396076,
          "durationTicks": 8,
          "midi": 45,
          "name": "A2",
          "ticks": 6721,
          "time": 78.15116279069767,
          "velocity": 0.3779527559055118
        },
        {
          "duration": 0.034883720930224626,
          "durationTicks": 3,
          "midi": 76,
          "name": "E5",
          "ticks": 6728,
          "time": 78.23255813953489,
          "velocity": 0.1732283464566929
        },
        {
          "duration": 0.30232558139535115,
          "durationTicks": 26,
          "midi": 57,
          "name": "A3",
          "ticks": 6730,
          "time": 78.25581395348837,
          "velocity": 0.2204724409448819
        },
        {
          "duration": 0.023255813953497295,
          "durationTicks": 2,
          "midi": 36,
          "name": "C2",
          "ticks": 6731,
          "time": 78.26744186046511,
          "velocity": 0.31496062992125984
        },
        {
          "duration": 0.04651162790698038,
          "durationTicks": 4,
          "midi": 64,
          "name": "E4",
          "ticks": 6734,
          "time": 78.30232558139535,
          "velocity": 0.07874015748031496
        },
        {
          "duration": 0.04651162790698038,
          "durationTicks": 4,
          "midi": 66,
          "name": "F#4",
          "ticks": 6734,
          "time": 78.30232558139535,
          "velocity": 0.08661417322834646
        },
        {
          "duration": 0.023255813953483084,
          "durationTicks": 2,
          "midi": 38,
          "name": "D2",
          "ticks": 6739,
          "time": 78.36046511627907,
          "velocity": 0.2992125984251969
        },
        {
          "duration": 0.12790697674418539,
          "durationTicks": 11,
          "midi": 64,
          "name": "E4",
          "ticks": 6739,
          "time": 78.36046511627907,
          "velocity": 0.09448818897637795
        },
        {
          "duration": 0.12790697674418539,
          "durationTicks": 11,
          "midi": 93,
          "name": "A6",
          "ticks": 6743,
          "time": 78.40697674418605,
          "velocity": 0.08661417322834646
        },
        {
          "duration": 0.023255813953483084,
          "durationTicks": 2,
          "midi": 38,
          "name": "D2",
          "ticks": 6746,
          "time": 78.44186046511628,
          "velocity": 0.29133858267716534
        },
        {
          "duration": 0.15116279069768268,
          "durationTicks": 13,
          "midi": 78,
          "name": "F#5",
          "ticks": 6748,
          "time": 78.46511627906976,
          "velocity": 0.1732283464566929
        },
        {
          "duration": 0.034883720930224626,
          "durationTicks": 3,
          "midi": 76,
          "name": "E5",
          "ticks": 6749,
          "time": 78.47674418604652,
          "velocity": 0.13385826771653545
        },
        {
          "duration": 0.023255813953483084,
          "durationTicks": 2,
          "midi": 38,
          "name": "D2",
          "ticks": 6751,
          "time": 78.5,
          "velocity": 0.28346456692913385
        },
        {
          "duration": 0.023255813953497295,
          "durationTicks": 2,
          "midi": 45,
          "name": "A2",
          "ticks": 6752,
          "time": 78.51162790697674,
          "velocity": 0.23622047244094488
        },
        {
          "duration": 0.034883720930224626,
          "durationTicks": 3,
          "midi": 38,
          "name": "D2",
          "ticks": 6754,
          "time": 78.53488372093024,
          "velocity": 0.2992125984251969
        },
        {
          "duration": 0.13953488372092693,
          "durationTicks": 12,
          "midi": 66,
          "name": "F#4",
          "ticks": 6754,
          "time": 78.53488372093024,
          "velocity": 0.1968503937007874
        },
        {
          "duration": 0.023255813953497295,
          "durationTicks": 2,
          "midi": 44,
          "name": "G#2",
          "ticks": 6758,
          "time": 78.5813953488372,
          "velocity": 0.3700787401574803
        },
        {
          "duration": 0.081395348837205,
          "durationTicks": 7,
          "midi": 45,
          "name": "A2",
          "ticks": 6760,
          "time": 78.6046511627907,
          "velocity": 0.30708661417322836
        },
        {
          "duration": 0.023255813953483084,
          "durationTicks": 2,
          "midi": 53,
          "name": "F3",
          "ticks": 6761,
          "time": 78.61627906976744,
          "velocity": 0.2755905511811024
        },
        {
          "duration": 0.04651162790698038,
          "durationTicks": 4,
          "midi": 54,
          "name": "F#3",
          "ticks": 6763,
          "time": 78.63953488372093,
          "velocity": 0.1889763779527559
        },
        {
          "duration": 0.05813953488372192,
          "durationTicks": 5,
          "midi": 61,
          "name": "C#4",
          "ticks": 6769,
          "time": 78.70930232558139,
          "velocity": 0.11811023622047244
        },
        {
          "duration": 0.15116279069768268,
          "durationTicks": 13,
          "midi": 78,
          "name": "F#5",
          "ticks": 6769,
          "time": 78.70930232558139,
          "velocity": 0.1889763779527559
        },
        {
          "duration": 0.081395348837205,
          "durationTicks": 7,
          "midi": 42,
          "name": "F#2",
          "ticks": 6772,
          "time": 78.74418604651163,
          "velocity": 0.3464566929133858
        },
        {
          "duration": 0.03488372093023884,
          "durationTicks": 3,
          "midi": 90,
          "name": "F#6",
          "ticks": 6785,
          "time": 78.8953488372093,
          "velocity": 0.07874015748031496
        },
        {
          "duration": 0.034883720930224626,
          "durationTicks": 3,
          "midi": 69,
          "name": "A4",
          "ticks": 6788,
          "time": 78.93023255813954,
          "velocity": 0.2283464566929134
        },
        {
          "duration": 0.023255813953483084,
          "durationTicks": 2,
          "midi": 46,
          "name": "A#2",
          "ticks": 6789,
          "time": 78.94186046511628,
          "velocity": 0.3700787401574803
        },
        {
          "duration": 0.13953488372092693,
          "durationTicks": 12,
          "midi": 78,
          "name": "F#5",
          "ticks": 6789,
          "time": 78.94186046511628,
          "velocity": 0.14173228346456693
        },
        {
          "duration": 0.19767441860464885,
          "durationTicks": 17,
          "midi": 45,
          "name": "A2",
          "ticks": 6793,
          "time": 78.98837209302326,
          "velocity": 0.36220472440944884
        },
        {
          "duration": 0.11627906976744384,
          "durationTicks": 10,
          "midi": 66,
          "name": "F#4",
          "ticks": 6798,
          "time": 79.04651162790698,
          "velocity": 0.13385826771653545
        },
        {
          "duration": 0.11627906976742963,
          "durationTicks": 10,
          "midi": 64,
          "name": "E4",
          "ticks": 6808,
          "time": 79.16279069767442,
          "velocity": 0.14173228346456693
        },
        {
          "duration": 0.22093023255813193,
          "durationTicks": 19,
          "midi": 76,
          "name": "E5",
          "ticks": 6808,
          "time": 79.16279069767442,
          "velocity": 0.1968503937007874
        },
        {
          "duration": 0.023255813953483084,
          "durationTicks": 2,
          "midi": 44,
          "name": "G#2",
          "ticks": 6810,
          "time": 79.18604651162791,
          "velocity": 0.3700787401574803
        },
        {
          "duration": 0.04651162790698038,
          "durationTicks": 4,
          "midi": 38,
          "name": "D2",
          "ticks": 6816,
          "time": 79.25581395348837,
          "velocity": 0.31496062992125984
        },
        {
          "duration": 0.2093023255813904,
          "durationTicks": 18,
          "midi": 79,
          "name": "G5",
          "ticks": 6819,
          "time": 79.29069767441861,
          "velocity": 0.13385826771653545
        },
        {
          "duration": 0.04651162790698038,
          "durationTicks": 4,
          "midi": 38,
          "name": "D2",
          "ticks": 6823,
          "time": 79.33720930232558,
          "velocity": 0.31496062992125984
        },
        {
          "duration": 0.2093023255813904,
          "durationTicks": 18,
          "midi": 76,
          "name": "E5",
          "ticks": 6829,
          "time": 79.40697674418605,
          "velocity": 0.1889763779527559
        },
        {
          "duration": 0.09302325581394655,
          "durationTicks": 8,
          "midi": 38,
          "name": "D2",
          "ticks": 6830,
          "time": 79.4186046511628,
          "velocity": 0.3228346456692913
        },
        {
          "duration": 0.16279069767441,
          "durationTicks": 14,
          "midi": 64,
          "name": "E4",
          "ticks": 6830,
          "time": 79.4186046511628,
          "velocity": 0.12598425196850394
        },
        {
          "duration": 0.06976744186046346,
          "durationTicks": 6,
          "midi": 44,
          "name": "G#2",
          "ticks": 6839,
          "time": 79.52325581395348,
          "velocity": 0.31496062992125984
        },
        {
          "duration": 0.13953488372094114,
          "durationTicks": 12,
          "midi": 91,
          "name": "G6",
          "ticks": 6839,
          "time": 79.52325581395348,
          "velocity": 0.11023622047244094
        },
        {
          "duration": 0.10465116279068809,
          "durationTicks": 9,
          "midi": 79,
          "name": "G5",
          "ticks": 6840,
          "time": 79.53488372093024,
          "velocity": 0.11023622047244094
        },
        {
          "duration": 0.03488372093023884,
          "durationTicks": 3,
          "midi": 66,
          "name": "F#4",
          "ticks": 6843,
          "time": 79.56976744186046,
          "velocity": 0.11811023622047244
        },
        {
          "duration": 0.03488372093023884,
          "durationTicks": 3,
          "midi": 73,
          "name": "C#5",
          "ticks": 6848,
          "time": 79.62790697674419,
          "velocity": 0.2283464566929134
        },
        {
          "duration": 0.023255813953497295,
          "durationTicks": 2,
          "midi": 41,
          "name": "F2",
          "ticks": 6849,
          "time": 79.63953488372093,
          "velocity": 0.41732283464566927
        },
        {
          "duration": 0.1046511627907023,
          "durationTicks": 9,
          "midi": 54,
          "name": "F#3",
          "ticks": 6849,
          "time": 79.63953488372093,
          "velocity": 0.2283464566929134
        },
        {
          "duration": 0.13953488372092693,
          "durationTicks": 12,
          "midi": 76,
          "name": "E5",
          "ticks": 6849,
          "time": 79.63953488372093,
          "velocity": 0.16535433070866143
        },
        {
          "duration": 0.03488372093023884,
          "durationTicks": 3,
          "midi": 61,
          "name": "C#4",
          "ticks": 6850,
          "time": 79.65116279069767,
          "velocity": 0.10236220472440945
        },
        {
          "duration": 0.023255813953483084,
          "durationTicks": 2,
          "midi": 42,
          "name": "F#2",
          "ticks": 6851,
          "time": 79.66279069767442,
          "velocity": 0.3700787401574803
        },
        {
          "duration": 0.03488372093023884,
          "durationTicks": 3,
          "midi": 41,
          "name": "F2",
          "ticks": 6853,
          "time": 79.68604651162791,
          "velocity": 0.33070866141732286
        },
        {
          "duration": 0.06976744186046346,
          "durationTicks": 6,
          "midi": 42,
          "name": "F#2",
          "ticks": 6856,
          "time": 79.72093023255815,
          "velocity": 0.3464566929133858
        },
        {
          "duration": 0.04651162790698038,
          "durationTicks": 4,
          "midi": 55,
          "name": "G3",
          "ticks": 6858,
          "time": 79.74418604651163,
          "velocity": 0.11023622047244094
        },
        {
          "duration": 0.03488372093023884,
          "durationTicks": 3,
          "midi": 60,
          "name": "C4",
          "ticks": 6859,
          "time": 79.75581395348837,
          "velocity": 0.11811023622047244
        },
        {
          "duration": 0.12790697674418539,
          "durationTicks": 11,
          "midi": 79,
          "name": "G5",
          "ticks": 6859,
          "time": 79.75581395348837,
          "velocity": 0.13385826771653545
        },
        {
          "duration": 0.023255813953483084,
          "durationTicks": 2,
          "midi": 41,
          "name": "F2",
          "ticks": 6868,
          "time": 79.86046511627907,
          "velocity": 0.30708661417322836
        },
        {
          "duration": 0.16279069767441,
          "durationTicks": 14,
          "midi": 76,
          "name": "E5",
          "ticks": 6868,
          "time": 79.86046511627907,
          "velocity": 0.15748031496062992
        },
        {
          "duration": 0.19767441860464885,
          "durationTicks": 17,
          "midi": 45,
          "name": "A2",
          "ticks": 6872,
          "time": 79.90697674418605,
          "velocity": 0.3858267716535433
        },
        {
          "duration": 0.081395348837205,
          "durationTicks": 7,
          "midi": 64,
          "name": "E4",
          "ticks": 6872,
          "time": 79.90697674418605,
          "velocity": 0.13385826771653545
        },
        {
          "duration": 0.11627906976742963,
          "durationTicks": 10,
          "midi": 78,
          "name": "F#5",
          "ticks": 6883,
          "time": 80.03488372093024,
          "velocity": 0.14173228346456693
        },
        {
          "duration": 0.034883720930224626,
          "durationTicks": 3,
          "midi": 44,
          "name": "G#2",
          "ticks": 6889,
          "time": 80.1046511627907,
          "velocity": 0.4015748031496063
        },
        {
          "duration": 0.32558139534883423,
          "durationTicks": 28,
          "midi": 57,
          "name": "A3",
          "ticks": 6890,
          "time": 80.11627906976744,
          "velocity": 0.25196850393700787
        },
        {
          "duration": 0.081395348837205,
          "durationTicks": 7,
          "midi": 74,
          "name": "D5",
          "ticks": 6891,
          "time": 80.12790697674419,
          "velocity": 0.12598425196850394
        },
        {
          "duration": 0.023255813953497295,
          "durationTicks": 2,
          "midi": 38,
          "name": "D2",
          "ticks": 6893,
          "time": 80.15116279069767,
          "velocity": 0.30708661417322836
        },
        {
          "duration": 0.17441860465116577,
          "durationTicks": 15,
          "midi": 50,
          "name": "D3",
          "ticks": 6895,
          "time": 80.17441860465117,
          "velocity": 0.2204724409448819
        },
        {
          "duration": 0.06976744186046346,
          "durationTicks": 6,
          "midi": 38,
          "name": "D2",
          "ticks": 6896,
          "time": 80.18604651162791,
          "velocity": 0.31496062992125984
        },
        {
          "duration": 0.13953488372092693,
          "durationTicks": 12,
          "midi": 90,
          "name": "F#6",
          "ticks": 6899,
          "time": 80.22093023255815,
          "velocity": 0.14173228346456693
        },
        {
          "duration": 0.06976744186046346,
          "durationTicks": 6,
          "midi": 66,
          "name": "F#4",
          "ticks": 6900,
          "time": 80.23255813953489,
          "velocity": 0.07086614173228346
        },
        {
          "duration": 0.1860465116279073,
          "durationTicks": 16,
          "midi": 38,
          "name": "D2",
          "ticks": 6903,
          "time": 80.26744186046511,
          "velocity": 0.31496062992125984
        },
        {
          "duration": 0.04651162790698038,
          "durationTicks": 4,
          "midi": 78,
          "name": "F#5",
          "ticks": 6907,
          "time": 80.31395348837209,
          "velocity": 0.11811023622047244
        },
        {
          "duration": 0.05813953488372192,
          "durationTicks": 5,
          "midi": 62,
          "name": "D4",
          "ticks": 6910,
          "time": 80.34883720930233,
          "velocity": 0.09448818897637795
        },
        {
          "duration": 0.16279069767442422,
          "durationTicks": 14,
          "midi": 74,
          "name": "D5",
          "ticks": 6912,
          "time": 80.37209302325581,
          "velocity": 0.12598425196850394
        },
        {
          "duration": 0.034883720930224626,
          "durationTicks": 3,
          "midi": 64,
          "name": "E4",
          "ticks": 6916,
          "time": 80.4186046511628,
          "velocity": 0.12598425196850394
        },
        {
          "duration": 0.03488372093023884,
          "durationTicks": 3,
          "midi": 53,
          "name": "F3",
          "ticks": 6919,
          "time": 80.45348837209302,
          "velocity": 0.1968503937007874
        },
        {
          "duration": 0.023255813953497295,
          "durationTicks": 2,
          "midi": 39,
          "name": "D#2",
          "ticks": 6920,
          "time": 80.46511627906976,
          "velocity": 0.30708661417322836
        },
        {
          "duration": 0.11627906976744384,
          "durationTicks": 10,
          "midi": 78,
          "name": "F#5",
          "ticks": 6920,
          "time": 80.46511627906976,
          "velocity": 0.11023622047244094
        },
        {
          "duration": 0.05813953488372192,
          "durationTicks": 5,
          "midi": 62,
          "name": "D4",
          "ticks": 6921,
          "time": 80.47674418604652,
          "velocity": 0.10236220472440945
        },
        {
          "duration": 0.11627906976742963,
          "durationTicks": 10,
          "midi": 90,
          "name": "F#6",
          "ticks": 6921,
          "time": 80.47674418604652,
          "velocity": 0.14173228346456693
        },
        {
          "duration": 0.023255813953483084,
          "durationTicks": 2,
          "midi": 40,
          "name": "E2",
          "ticks": 6929,
          "time": 80.56976744186046,
          "velocity": 0.4251968503937008
        },
        {
          "duration": 0.03488372093023884,
          "durationTicks": 3,
          "midi": 61,
          "name": "C#4",
          "ticks": 6929,
          "time": 80.56976744186046,
          "velocity": 0.11811023622047244
        },
        {
          "duration": 0.13953488372092693,
          "durationTicks": 12,
          "midi": 74,
          "name": "D5",
          "ticks": 6929,
          "time": 80.56976744186046,
          "velocity": 0.2283464566929134
        },
        {
          "duration": 0.03488372093023884,
          "durationTicks": 3,
          "midi": 53,
          "name": "F3",
          "ticks": 6931,
          "time": 80.59302325581395,
          "velocity": 0.11023622047244094
        },
        {
          "duration": 0.16279069767441,
          "durationTicks": 14,
          "midi": 42,
          "name": "F#2",
          "ticks": 6932,
          "time": 80.6046511627907,
          "velocity": 0.3700787401574803
        },
        {
          "duration": 0.04651162790698038,
          "durationTicks": 4,
          "midi": 60,
          "name": "C4",
          "ticks": 6940,
          "time": 80.69767441860465,
          "velocity": 0.16535433070866143
        },
        {
          "duration": 0.09302325581396076,
          "durationTicks": 8,
          "midi": 78,
          "name": "F#5",
          "ticks": 6940,
          "time": 80.69767441860465,
          "velocity": 0.09448818897637795
        },
        {
          "duration": 0.06976744186046346,
          "durationTicks": 6,
          "midi": 85,
          "name": "C#6",
          "ticks": 6942,
          "time": 80.72093023255815,
          "velocity": 0.09448818897637795
        },
        {
          "duration": 0.05813953488372192,
          "durationTicks": 5,
          "midi": 90,
          "name": "F#6",
          "ticks": 6944,
          "time": 80.74418604651163,
          "velocity": 0.14960629921259844
        },
        {
          "duration": 0.034883720930224626,
          "durationTicks": 3,
          "midi": 62,
          "name": "D4",
          "ticks": 6949,
          "time": 80.80232558139535,
          "velocity": 0.1968503937007874
        },
        {
          "duration": 0.034883720930224626,
          "durationTicks": 3,
          "midi": 70,
          "name": "A#4",
          "ticks": 6949,
          "time": 80.80232558139535,
          "velocity": 0.2204724409448819
        },
        {
          "duration": 0.11627906976744384,
          "durationTicks": 10,
          "midi": 57,
          "name": "A3",
          "ticks": 6950,
          "time": 80.81395348837209,
          "velocity": 0.23622047244094488
        },
        {
          "duration": 0.023255813953497295,
          "durationTicks": 2,
          "midi": 44,
          "name": "G#2",
          "ticks": 6951,
          "time": 80.82558139534883,
          "velocity": 0.41732283464566927
        },
        {
          "duration": 0.1860465116279073,
          "durationTicks": 16,
          "midi": 45,
          "name": "A2",
          "ticks": 6953,
          "time": 80.84883720930233,
          "velocity": 0.3858267716535433
        },
        {
          "duration": 0.05813953488372192,
          "durationTicks": 5,
          "midi": 62,
          "name": "D4",
          "ticks": 6959,
          "time": 80.9186046511628,
          "velocity": 0.11811023622047244
        },
        {
          "duration": 0.034883720930224626,
          "durationTicks": 3,
          "midi": 78,
          "name": "F#5",
          "ticks": 6959,
          "time": 80.9186046511628,
          "velocity": 0.14173228346456693
        },
        {
          "duration": 0.1046511627907023,
          "durationTicks": 9,
          "midi": 72,
          "name": "C5",
          "ticks": 6968,
          "time": 81.02325581395348,
          "velocity": 0.14960629921259844
        },
        {
          "duration": 0.023255813953483084,
          "durationTicks": 2,
          "midi": 50,
          "name": "D3",
          "ticks": 6969,
          "time": 81.03488372093024,
          "velocity": 0.3228346456692913
        },
        {
          "duration": 0.034883720930224626,
          "durationTicks": 3,
          "midi": 64,
          "name": "E4",
          "ticks": 6969,
          "time": 81.03488372093024,
          "velocity": 0.11023622047244094
        },
        {
          "duration": 0.05813953488372192,
          "durationTicks": 5,
          "midi": 57,
          "name": "A3",
          "ticks": 6970,
          "time": 81.04651162790698,
          "velocity": 0.11023622047244094
        },
        {
          "duration": 0.034883720930224626,
          "durationTicks": 3,
          "midi": 37,
          "name": "C#2",
          "ticks": 6971,
          "time": 81.05813953488372,
          "velocity": 0.3228346456692913
        },
        {
          "duration": 0.15116279069766847,
          "durationTicks": 13,
          "midi": 66,
          "name": "F#4",
          "ticks": 6971,
          "time": 81.05813953488372,
          "velocity": 0.12598425196850394
        },
        {
          "duration": 0.05813953488372192,
          "durationTicks": 5,
          "midi": 79,
          "name": "G5",
          "ticks": 6972,
          "time": 81.06976744186046,
          "velocity": 0.08661417322834646
        },
        {
          "duration": 0.03488372093023884,
          "durationTicks": 3,
          "midi": 50,
          "name": "D3",
          "ticks": 6973,
          "time": 81.0813953488372,
          "velocity": 0.23622047244094488
        },
        {
          "duration": 0.04651162790698038,
          "durationTicks": 4,
          "midi": 38,
          "name": "D2",
          "ticks": 6976,
          "time": 81.11627906976744,
          "velocity": 0.3228346456692913
        },
        {
          "duration": 0.11627906976744384,
          "durationTicks": 10,
          "midi": 76,
          "name": "E5",
          "ticks": 6979,
          "time": 81.15116279069767,
          "velocity": 0.12598425196850394
        },
        {
          "duration": 0.034883720930224626,
          "durationTicks": 3,
          "midi": 37,
          "name": "C#2",
          "ticks": 6980,
          "time": 81.16279069767442,
          "velocity": 0.31496062992125984
        },
        {
          "duration": 0.04651162790696617,
          "durationTicks": 4,
          "midi": 64,
          "name": "E4",
          "ticks": 6980,
          "time": 81.16279069767442,
          "velocity": 0.07874015748031496
        },
        {
          "duration": 0.023255813953497295,
          "durationTicks": 2,
          "midi": 39,
          "name": "D#2",
          "ticks": 6984,
          "time": 81.20930232558139,
          "velocity": 0.28346456692913385
        },
        {
          "duration": 0.034883720930224626,
          "durationTicks": 3,
          "midi": 64,
          "name": "E4",
          "ticks": 6985,
          "time": 81.22093023255815,
          "velocity": 0.10236220472440945
        },
        {
          "duration": 0.05813953488372192,
          "durationTicks": 5,
          "midi": 39,
          "name": "D#2",
          "ticks": 6987,
          "time": 81.24418604651163,
          "velocity": 0.29133858267716534
        },
        {
          "duration": 0.03488372093023884,
          "durationTicks": 3,
          "midi": 73,
          "name": "C#5",
          "ticks": 6988,
          "time": 81.25581395348837,
          "velocity": 0.10236220472440945
        },
        {
          "duration": 0.24418604651162923,
          "durationTicks": 21,
          "midi": 66,
          "name": "F#4",
          "ticks": 6989,
          "time": 81.26744186046511,
          "velocity": 0.1889763779527559
        },
        {
          "duration": 0.023255813953497295,
          "durationTicks": 2,
          "midi": 50,
          "name": "D3",
          "ticks": 6990,
          "time": 81.27906976744185,
          "velocity": 0.2677165354330709
        },
        {
          "duration": 0.09302325581396076,
          "durationTicks": 8,
          "midi": 72,
          "name": "C5",
          "ticks": 6990,
          "time": 81.27906976744185,
          "velocity": 0.14173228346456693
        },
        {
          "duration": 0.05813953488372192,
          "durationTicks": 5,
          "midi": 50,
          "name": "D3",
          "ticks": 6993,
          "time": 81.31395348837209,
          "velocity": 0.1889763779527559
        },
        {
          "duration": 0.023255813953497295,
          "durationTicks": 2,
          "midi": 37,
          "name": "C#2",
          "ticks": 6994,
          "time": 81.32558139534883,
          "velocity": 0.2992125984251969
        },
        {
          "duration": 0.034883720930224626,
          "durationTicks": 3,
          "midi": 79,
          "name": "G5",
          "ticks": 6997,
          "time": 81.36046511627907,
          "velocity": 0.11811023622047244
        },
        {
          "duration": 0.023255813953483084,
          "durationTicks": 2,
          "midi": 39,
          "name": "D#2",
          "ticks": 6998,
          "time": 81.37209302325581,
          "velocity": 0.2440944881889764
        },
        {
          "duration": 0.05813953488372192,
          "durationTicks": 5,
          "midi": 37,
          "name": "C#2",
          "ticks": 7000,
          "time": 81.3953488372093,
          "velocity": 0.30708661417322836
        },
        {
          "duration": 0.11627906976742963,
          "durationTicks": 10,
          "midi": 76,
          "name": "E5",
          "ticks": 7001,
          "time": 81.40697674418605,
          "velocity": 0.11023622047244094
        },
        {
          "duration": 0.034883720930224626,
          "durationTicks": 3,
          "midi": 60,
          "name": "C4",
          "ticks": 7002,
          "time": 81.4186046511628,
          "velocity": 0.09448818897637795
        },
        {
          "duration": 0.06976744186046346,
          "durationTicks": 6,
          "midi": 73,
          "name": "C#5",
          "ticks": 7002,
          "time": 81.4186046511628,
          "velocity": 0.09448818897637795
        },
        {
          "duration": 0.03488372093023884,
          "durationTicks": 3,
          "midi": 50,
          "name": "D3",
          "ticks": 7005,
          "time": 81.45348837209302,
          "velocity": 0.18110236220472442
        },
        {
          "duration": 0.03488372093023884,
          "durationTicks": 3,
          "midi": 54,
          "name": "F#3",
          "ticks": 7009,
          "time": 81.5,
          "velocity": 0.2204724409448819
        },
        {
          "duration": 0.13953488372092693,
          "durationTicks": 12,
          "midi": 79,
          "name": "G5",
          "ticks": 7009,
          "time": 81.5,
          "velocity": 0.08661417322834646
        },
        {
          "duration": 0.11627906976744384,
          "durationTicks": 10,
          "midi": 84,
          "name": "C6",
          "ticks": 7009,
          "time": 81.5,
          "velocity": 0.14173228346456693
        },
        {
          "duration": 0.34883720930233153,
          "durationTicks": 30,
          "midi": 72,
          "name": "C5",
          "ticks": 7010,
          "time": 81.51162790697674,
          "velocity": 0.2047244094488189
        },
        {
          "duration": 0.023255813953497295,
          "durationTicks": 2,
          "midi": 44,
          "name": "G#2",
          "ticks": 7011,
          "time": 81.52325581395348,
          "velocity": 0.29133858267716534
        },
        {
          "duration": 0.04651162790696617,
          "durationTicks": 4,
          "midi": 50,
          "name": "D3",
          "ticks": 7013,
          "time": 81.54651162790698,
          "velocity": 0.16535433070866143
        },
        {
          "duration": 0.05813953488372192,
          "durationTicks": 5,
          "midi": 54,
          "name": "F#3",
          "ticks": 7015,
          "time": 81.56976744186046,
          "velocity": 0.23622047244094488
        },
        {
          "duration": 0.023255813953497295,
          "durationTicks": 2,
          "midi": 37,
          "name": "C#2",
          "ticks": 7016,
          "time": 81.5813953488372,
          "velocity": 0.29133858267716534
        },
        {
          "duration": 0.03488372093023884,
          "durationTicks": 3,
          "midi": 65,
          "name": "F4",
          "ticks": 7020,
          "time": 81.62790697674419,
          "velocity": 0.1968503937007874
        },
        {
          "duration": 0.1046511627907023,
          "durationTicks": 9,
          "midi": 83,
          "name": "B5",
          "ticks": 7020,
          "time": 81.62790697674419,
          "velocity": 0.07874015748031496
        },
        {
          "duration": 0.023255813953497295,
          "durationTicks": 2,
          "midi": 50,
          "name": "D3",
          "ticks": 7021,
          "time": 81.63953488372093,
          "velocity": 0.29133858267716534
        },
        {
          "duration": 0.023255813953483084,
          "durationTicks": 2,
          "midi": 36,
          "name": "C2",
          "ticks": 7023,
          "time": 81.66279069767442,
          "velocity": 0.28346456692913385
        },
        {
          "duration": 0.05813953488372192,
          "durationTicks": 5,
          "midi": 49,
          "name": "C#3",
          "ticks": 7023,
          "time": 81.66279069767442,
          "velocity": 0.2440944881889764
        },
        {
          "duration": 0.1860465116279073,
          "durationTicks": 16,
          "midi": 76,
          "name": "E5",
          "ticks": 7023,
          "time": 81.66279069767442,
          "velocity": 0.10236220472440945
        },
        {
          "duration": 0.034883720930224626,
          "durationTicks": 3,
          "midi": 60,
          "name": "C4",
          "ticks": 7024,
          "time": 81.67441860465117,
          "velocity": 0.14960629921259844
        },
        {
          "duration": 0.04651162790698038,
          "durationTicks": 4,
          "midi": 64,
          "name": "E4",
          "ticks": 7027,
          "time": 81.70930232558139,
          "velocity": 0.23622047244094488
        },
        {
          "duration": 0.023255813953483084,
          "durationTicks": 2,
          "midi": 37,
          "name": "C#2",
          "ticks": 7029,
          "time": 81.73255813953489,
          "velocity": 0.25984251968503935
        },
        {
          "duration": 0.023255813953483084,
          "durationTicks": 2,
          "midi": 36,
          "name": "C2",
          "ticks": 7031,
          "time": 81.75581395348837,
          "velocity": 0.28346456692913385
        },
        {
          "duration": 0.1046511627907023,
          "durationTicks": 9,
          "midi": 79,
          "name": "G5",
          "ticks": 7031,
          "time": 81.75581395348837,
          "velocity": 0.10236220472440945
        },
        {
          "duration": 0.023255813953483084,
          "durationTicks": 2,
          "midi": 36,
          "name": "C2",
          "ticks": 7034,
          "time": 81.79069767441861,
          "velocity": 0.23622047244094488
        },
        {
          "duration": 0.04651162790696617,
          "durationTicks": 4,
          "midi": 65,
          "name": "F4",
          "ticks": 7034,
          "time": 81.79069767441861,
          "velocity": 0.1968503937007874
        },
        {
          "duration": 0.023255813953483084,
          "durationTicks": 2,
          "midi": 36,
          "name": "C2",
          "ticks": 7041,
          "time": 81.87209302325581,
          "velocity": 0.29133858267716534
        },
        {
          "duration": 0.09302325581394655,
          "durationTicks": 8,
          "midi": 67,
          "name": "G4",
          "ticks": 7041,
          "time": 81.87209302325581,
          "velocity": 0.1732283464566929
        },
        {
          "duration": 0.023255813953483084,
          "durationTicks": 2,
          "midi": 37,
          "name": "C#2",
          "ticks": 7045,
          "time": 81.9186046511628,
          "velocity": 0.25984251968503935
        },
        {
          "duration": 0.03488372093023884,
          "durationTicks": 3,
          "midi": 72,
          "name": "C5",
          "ticks": 7047,
          "time": 81.94186046511628,
          "velocity": 0.14173228346456693
        },
        {
          "duration": 0.03488372093023884,
          "durationTicks": 3,
          "midi": 75,
          "name": "D#5",
          "ticks": 7047,
          "time": 81.94186046511628,
          "velocity": 0.13385826771653545
        },
        {
          "duration": 0.023255813953497295,
          "durationTicks": 2,
          "midi": 41,
          "name": "F2",
          "ticks": 7048,
          "time": 81.95348837209302,
          "velocity": 0.28346456692913385
        },
        {
          "duration": 0.06976744186046346,
          "durationTicks": 6,
          "midi": 64,
          "name": "E4",
          "ticks": 7048,
          "time": 81.95348837209302,
          "velocity": 0.15748031496062992
        },
        {
          "duration": 0.06976744186046346,
          "durationTicks": 6,
          "midi": 67,
          "name": "G4",
          "ticks": 7052,
          "time": 82,
          "velocity": 0.10236220472440945
        },
        {
          "duration": 0.023255813953497295,
          "durationTicks": 2,
          "midi": 47,
          "name": "B2",
          "ticks": 7053,
          "time": 82.01162790697674,
          "velocity": 0.29133858267716534
        },
        {
          "duration": 0.04651162790698038,
          "durationTicks": 4,
          "midi": 48,
          "name": "C3",
          "ticks": 7054,
          "time": 82.02325581395348,
          "velocity": 0.2755905511811024
        },
        {
          "duration": 0.22093023255813193,
          "durationTicks": 19,
          "midi": 64,
          "name": "E4",
          "ticks": 7055,
          "time": 82.03488372093024,
          "velocity": 0.1889763779527559
        },
        {
          "duration": 0.3139534883720927,
          "durationTicks": 27,
          "midi": 60,
          "name": "C4",
          "ticks": 7059,
          "time": 82.0813953488372,
          "velocity": 0.2440944881889764
        },
        {
          "duration": 0.023255813953497295,
          "durationTicks": 2,
          "midi": 36,
          "name": "C2",
          "ticks": 7065,
          "time": 82.15116279069767,
          "velocity": 0.29133858267716534
        },
        {
          "duration": 0.04651162790698038,
          "durationTicks": 4,
          "midi": 36,
          "name": "C2",
          "ticks": 7068,
          "time": 82.18604651162791,
          "velocity": 0.28346456692913385
        },
        {
          "duration": 0.034883720930224626,
          "durationTicks": 3,
          "midi": 36,
          "name": "C2",
          "ticks": 7073,
          "time": 82.24418604651163,
          "velocity": 0.2440944881889764
        },
        {
          "duration": 0.05813953488372192,
          "durationTicks": 5,
          "midi": 48,
          "name": "C3",
          "ticks": 7076,
          "time": 82.27906976744185,
          "velocity": 0.29133858267716534
        },
        {
          "duration": 0.04651162790696617,
          "durationTicks": 4,
          "midi": 48,
          "name": "C3",
          "ticks": 7082,
          "time": 82.34883720930233,
          "velocity": 0.3228346456692913
        },
        {
          "duration": 0.05813953488372192,
          "durationTicks": 5,
          "midi": 72,
          "name": "C5",
          "ticks": 7088,
          "time": 82.4186046511628,
          "velocity": 0.13385826771653545
        },
        {
          "duration": 0.4534883720930196,
          "durationTicks": 39,
          "midi": 64,
          "name": "E4",
          "ticks": 7089,
          "time": 82.43023255813954,
          "velocity": 0.25196850393700787
        },
        {
          "duration": 0.023255813953483084,
          "durationTicks": 2,
          "midi": 41,
          "name": "F2",
          "ticks": 7090,
          "time": 82.44186046511628,
          "velocity": 0.3858267716535433
        },
        {
          "duration": 0.13953488372092693,
          "durationTicks": 12,
          "midi": 52,
          "name": "E3",
          "ticks": 7090,
          "time": 82.44186046511628,
          "velocity": 0.2440944881889764
        },
        {
          "duration": 0.1046511627907023,
          "durationTicks": 9,
          "midi": 60,
          "name": "C4",
          "ticks": 7092,
          "time": 82.46511627906976,
          "velocity": 0.1732283464566929
        },
        {
          "duration": 0.1046511627907023,
          "durationTicks": 9,
          "midi": 40,
          "name": "E2",
          "ticks": 7096,
          "time": 82.51162790697674,
          "velocity": 0.3464566929133858
        },
        {
          "duration": 0.30232558139535115,
          "durationTicks": 26,
          "midi": 60,
          "name": "C4",
          "ticks": 7102,
          "time": 82.5813953488372,
          "velocity": 0.2047244094488189
        },
        {
          "duration": 0.27906976744186807,
          "durationTicks": 24,
          "midi": 67,
          "name": "G4",
          "ticks": 7102,
          "time": 82.5813953488372,
          "velocity": 0.2125984251968504
        },
        {
          "duration": 0.034883720930224626,
          "durationTicks": 3,
          "midi": 39,
          "name": "D#2",
          "ticks": 7105,
          "time": 82.61627906976744,
          "velocity": 0.28346456692913385
        },
        {
          "duration": 0.03488372093023884,
          "durationTicks": 3,
          "midi": 70,
          "name": "A#4",
          "ticks": 7107,
          "time": 82.63953488372093,
          "velocity": 0.1968503937007874
        },
        {
          "duration": 0.03488372093023884,
          "durationTicks": 3,
          "midi": 52,
          "name": "E3",
          "ticks": 7108,
          "time": 82.65116279069767,
          "velocity": 0.2047244094488189
        },
        {
          "duration": 0.023255813953483084,
          "durationTicks": 2,
          "midi": 41,
          "name": "F2",
          "ticks": 7111,
          "time": 82.68604651162791,
          "velocity": 0.41732283464566927
        },
        {
          "duration": 0.1860465116279073,
          "durationTicks": 16,
          "midi": 55,
          "name": "G3",
          "ticks": 7111,
          "time": 82.68604651162791,
          "velocity": 0.2047244094488189
        },
        {
          "duration": 0.17441860465115155,
          "durationTicks": 15,
          "midi": 43,
          "name": "G2",
          "ticks": 7114,
          "time": 82.72093023255815,
          "velocity": 0.3937007874015748
        },
        {
          "duration": 0.03488372093023884,
          "durationTicks": 3,
          "midi": 61,
          "name": "C#4",
          "ticks": 7128,
          "time": 82.88372093023256,
          "velocity": 0.11811023622047244
        },
        {
          "duration": 0.08139534883721922,
          "durationTicks": 7,
          "midi": 55,
          "name": "G3",
          "ticks": 7129,
          "time": 82.8953488372093,
          "velocity": 0.1968503937007874
        },
        {
          "duration": 0.3139534883720927,
          "durationTicks": 27,
          "midi": 36,
          "name": "C2",
          "ticks": 7131,
          "time": 82.9186046511628,
          "velocity": 0.3228346456692913
        },
        {
          "duration": 0.09302325581394655,
          "durationTicks": 8,
          "midi": 60,
          "name": "C4",
          "ticks": 7131,
          "time": 82.9186046511628,
          "velocity": 0.08661417322834646
        },
        {
          "duration": 0.1046511627907023,
          "durationTicks": 9,
          "midi": 78,
          "name": "F#5",
          "ticks": 7151,
          "time": 83.15116279069767,
          "velocity": 0.12598425196850394
        },
        {
          "duration": 0.04651162790698038,
          "durationTicks": 4,
          "midi": 94,
          "name": "A#6",
          "ticks": 7153,
          "time": 83.17441860465117,
          "velocity": 0.07086614173228346
        },
        {
          "duration": 0.04651162790698038,
          "durationTicks": 4,
          "midi": 66,
          "name": "F#4",
          "ticks": 7155,
          "time": 83.19767441860465,
          "velocity": 0.18110236220472442
        },
        {
          "duration": 0.023255813953483084,
          "durationTicks": 2,
          "midi": 51,
          "name": "D#3",
          "ticks": 7157,
          "time": 83.22093023255815,
          "velocity": 0.31496062992125984
        },
        {
          "duration": 0.023255813953483084,
          "durationTicks": 2,
          "midi": 52,
          "name": "E3",
          "ticks": 7159,
          "time": 83.24418604651163,
          "velocity": 0.2677165354330709
        },
        {
          "duration": 0.11627906976744384,
          "durationTicks": 10,
          "midi": 67,
          "name": "G4",
          "ticks": 7159,
          "time": 83.24418604651163,
          "velocity": 0.2440944881889764
        },
        {
          "duration": 0.05813953488372192,
          "durationTicks": 5,
          "midi": 52,
          "name": "E3",
          "ticks": 7164,
          "time": 83.30232558139535,
          "velocity": 0.1968503937007874
        },
        {
          "duration": 0.023255813953483084,
          "durationTicks": 2,
          "midi": 43,
          "name": "G2",
          "ticks": 7168,
          "time": 83.34883720930233,
          "velocity": 0.31496062992125984
        },
        {
          "duration": 0.09302325581394655,
          "durationTicks": 8,
          "midi": 100,
          "name": "E7",
          "ticks": 7169,
          "time": 83.36046511627907,
          "velocity": 0.11023622047244094
        },
        {
          "duration": 0.081395348837205,
          "durationTicks": 7,
          "midi": 52,
          "name": "E3",
          "ticks": 7170,
          "time": 83.37209302325581,
          "velocity": 0.2677165354330709
        },
        {
          "duration": 0.023255813953497295,
          "durationTicks": 2,
          "midi": 39,
          "name": "D#2",
          "ticks": 7172,
          "time": 83.3953488372093,
          "velocity": 0.3228346456692913
        },
        {
          "duration": 0.023255813953483084,
          "durationTicks": 2,
          "midi": 40,
          "name": "E2",
          "ticks": 7176,
          "time": 83.44186046511628,
          "velocity": 0.33858267716535434
        },
        {
          "duration": 0.09302325581394655,
          "durationTicks": 8,
          "midi": 67,
          "name": "G4",
          "ticks": 7179,
          "time": 83.47674418604652,
          "velocity": 0.2047244094488189
        },
        {
          "duration": 0.03488372093023884,
          "durationTicks": 3,
          "midi": 60,
          "name": "C4",
          "ticks": 7187,
          "time": 83.56976744186046,
          "velocity": 0.18110236220472442
        },
        {
          "duration": 0.03488372093023884,
          "durationTicks": 3,
          "midi": 64,
          "name": "E4",
          "ticks": 7187,
          "time": 83.56976744186046,
          "velocity": 0.25196850393700787
        },
        {
          "duration": 0.03488372093023884,
          "durationTicks": 3,
          "midi": 70,
          "name": "A#4",
          "ticks": 7187,
          "time": 83.56976744186046,
          "velocity": 0.1732283464566929
        },
        {
          "duration": 0.08139534883721922,
          "durationTicks": 7,
          "midi": 78,
          "name": "F#5",
          "ticks": 7189,
          "time": 83.59302325581395,
          "velocity": 0.14173228346456693
        },
        {
          "duration": 0.034883720930224626,
          "durationTicks": 3,
          "midi": 41,
          "name": "F2",
          "ticks": 7190,
          "time": 83.6046511627907,
          "velocity": 0.4409448818897638
        },
        {
          "duration": 0.034883720930224626,
          "durationTicks": 3,
          "midi": 66,
          "name": "F#4",
          "ticks": 7190,
          "time": 83.6046511627907,
          "velocity": 0.13385826771653545
        },
        {
          "duration": 0.12790697674418539,
          "durationTicks": 11,
          "midi": 55,
          "name": "G3",
          "ticks": 7191,
          "time": 83.61627906976744,
          "velocity": 0.1889763779527559
        },
        {
          "duration": 0.17441860465116577,
          "durationTicks": 15,
          "midi": 43,
          "name": "G2",
          "ticks": 7194,
          "time": 83.65116279069767,
          "velocity": 0.3779527559055118
        },
        {
          "duration": 0.05813953488372192,
          "durationTicks": 5,
          "midi": 60,
          "name": "C4",
          "ticks": 7196,
          "time": 83.67441860465117,
          "velocity": 0.13385826771653545
        },
        {
          "duration": 0.16279069767441,
          "durationTicks": 14,
          "midi": 64,
          "name": "E4",
          "ticks": 7196,
          "time": 83.67441860465117,
          "velocity": 0.11023622047244094
        },
        {
          "duration": 0.05813953488372192,
          "durationTicks": 5,
          "midi": 100,
          "name": "E7",
          "ticks": 7199,
          "time": 83.70930232558139,
          "velocity": 0.09448818897637795
        },
        {
          "duration": 0.2093023255813904,
          "durationTicks": 18,
          "midi": 79,
          "name": "G5",
          "ticks": 7208,
          "time": 83.81395348837209,
          "velocity": 0.14173228346456693
        },
        {
          "duration": 0.04651162790698038,
          "durationTicks": 4,
          "midi": 86,
          "name": "D6",
          "ticks": 7208,
          "time": 83.81395348837209,
          "velocity": 0.12598425196850394
        },
        {
          "duration": 0.9302325581395365,
          "durationTicks": 80,
          "midi": 67,
          "name": "G4",
          "ticks": 7209,
          "time": 83.82558139534883,
          "velocity": 0.2992125984251969
        },
        {
          "duration": 0.05813953488372192,
          "durationTicks": 5,
          "midi": 48,
          "name": "C3",
          "ticks": 7211,
          "time": 83.84883720930233,
          "velocity": 0.2677165354330709
        },
        {
          "duration": 0.32558139534883423,
          "durationTicks": 28,
          "midi": 55,
          "name": "G3",
          "ticks": 7211,
          "time": 83.84883720930233,
          "velocity": 0.16535433070866143
        },
        {
          "duration": 0.023255813953497295,
          "durationTicks": 2,
          "midi": 36,
          "name": "C2",
          "ticks": 7215,
          "time": 83.8953488372093,
          "velocity": 0.30708661417322836
        },
        {
          "duration": 0.023255813953483084,
          "durationTicks": 2,
          "midi": 48,
          "name": "C3",
          "ticks": 7217,
          "time": 83.9186046511628,
          "velocity": 0.25984251968503935
        },
        {
          "duration": 0.04651162790698038,
          "durationTicks": 4,
          "midi": 36,
          "name": "C2",
          "ticks": 7218,
          "time": 83.93023255813954,
          "velocity": 0.30708661417322836
        },
        {
          "duration": 0.023255813953483084,
          "durationTicks": 2,
          "midi": 36,
          "name": "C2",
          "ticks": 7223,
          "time": 83.98837209302326,
          "velocity": 0.31496062992125984
        },
        {
          "duration": 0.15116279069768268,
          "durationTicks": 13,
          "midi": 36,
          "name": "C2",
          "ticks": 7226,
          "time": 84.02325581395348,
          "velocity": 0.31496062992125984
        },
        {
          "duration": 0.023255813953497295,
          "durationTicks": 2,
          "midi": 43,
          "name": "G2",
          "ticks": 7248,
          "time": 84.27906976744185,
          "velocity": 0.30708661417322836
        },
        {
          "duration": 0.023255813953483084,
          "durationTicks": 2,
          "midi": 37,
          "name": "C#2",
          "ticks": 7251,
          "time": 84.31395348837209,
          "velocity": 0.3937007874015748
        },
        {
          "duration": 0.06976744186046346,
          "durationTicks": 6,
          "midi": 52,
          "name": "E3",
          "ticks": 7251,
          "time": 84.31395348837209,
          "velocity": 0.2125984251968504
        },
        {
          "duration": 0.06976744186046346,
          "durationTicks": 6,
          "midi": 40,
          "name": "E2",
          "ticks": 7254,
          "time": 84.34883720930233,
          "velocity": 0.3228346456692913
        },
        {
          "duration": 0.17441860465116577,
          "durationTicks": 15,
          "midi": 60,
          "name": "C4",
          "ticks": 7261,
          "time": 84.43023255813954,
          "velocity": 0.2204724409448819
        },
        {
          "duration": 0.04651162790698038,
          "durationTicks": 4,
          "midi": 70,
          "name": "A#4",
          "ticks": 7267,
          "time": 84.5,
          "velocity": 0.2440944881889764
        },
        {
          "duration": 0.023255813953497295,
          "durationTicks": 2,
          "midi": 40,
          "name": "E2",
          "ticks": 7269,
          "time": 84.52325581395348,
          "velocity": 0.33070866141732286
        },
        {
          "duration": 0.04651162790696617,
          "durationTicks": 4,
          "midi": 55,
          "name": "G3",
          "ticks": 7270,
          "time": 84.53488372093024,
          "velocity": 0.25196850393700787
        },
        {
          "duration": 0.023255813953483084,
          "durationTicks": 2,
          "midi": 41,
          "name": "F2",
          "ticks": 7271,
          "time": 84.54651162790698,
          "velocity": 0.4330708661417323
        },
        {
          "duration": 0.2325581395348877,
          "durationTicks": 20,
          "midi": 43,
          "name": "G2",
          "ticks": 7273,
          "time": 84.56976744186046,
          "velocity": 0.3937007874015748
        },
        {
          "duration": 0.13953488372092693,
          "durationTicks": 12,
          "midi": 60,
          "name": "C4",
          "ticks": 7278,
          "time": 84.62790697674419,
          "velocity": 0.1968503937007874
        },
        {
          "duration": 0.023255813953497295,
          "durationTicks": 2,
          "midi": 54,
          "name": "F#3",
          "ticks": 7290,
          "time": 84.76744186046511,
          "velocity": 0.2755905511811024
        },
        {
          "duration": 0.023255813953497295,
          "durationTicks": 2,
          "midi": 36,
          "name": "C2",
          "ticks": 7301,
          "time": 84.8953488372093,
          "velocity": 0.30708661417322836
        },
        {
          "duration": 0.09302325581396076,
          "durationTicks": 8,
          "midi": 48,
          "name": "C3",
          "ticks": 7305,
          "time": 84.94186046511628,
          "velocity": 0.2677165354330709
        },
        {
          "duration": 0.023255813953497295,
          "durationTicks": 2,
          "midi": 36,
          "name": "C2",
          "ticks": 7306,
          "time": 84.95348837209302,
          "velocity": 0.30708661417322836
        },
        {
          "duration": 0.023255813953483084,
          "durationTicks": 2,
          "midi": 36,
          "name": "C2",
          "ticks": 7309,
          "time": 84.98837209302326,
          "velocity": 0.2992125984251969
        },
        {
          "duration": 0.08139534883721922,
          "durationTicks": 7,
          "midi": 36,
          "name": "C2",
          "ticks": 7312,
          "time": 85.02325581395348,
          "velocity": 0.2992125984251969
        },
        {
          "duration": 0.1046511627907023,
          "durationTicks": 9,
          "midi": 78,
          "name": "F#5",
          "ticks": 7312,
          "time": 85.02325581395348,
          "velocity": 0.13385826771653545
        },
        {
          "duration": 0.06976744186046346,
          "durationTicks": 6,
          "midi": 100,
          "name": "E7",
          "ticks": 7312,
          "time": 85.02325581395348,
          "velocity": 0.07874015748031496
        },
        {
          "duration": 0.06976744186046346,
          "durationTicks": 6,
          "midi": 36,
          "name": "C2",
          "ticks": 7320,
          "time": 85.11627906976744,
          "velocity": 0.29133858267716534
        },
        {
          "duration": 0.12790697674418539,
          "durationTicks": 11,
          "midi": 67,
          "name": "G4",
          "ticks": 7322,
          "time": 85.13953488372093,
          "velocity": 0.2677165354330709
        },
        {
          "duration": 0.023255813953483084,
          "durationTicks": 2,
          "midi": 52,
          "name": "E3",
          "ticks": 7324,
          "time": 85.16279069767442,
          "velocity": 0.25984251968503935
        },
        {
          "duration": 0.023255813953497295,
          "durationTicks": 2,
          "midi": 36,
          "name": "C2",
          "ticks": 7327,
          "time": 85.19767441860465,
          "velocity": 0.3228346456692913
        },
        {
          "duration": 0.023255813953497295,
          "durationTicks": 2,
          "midi": 52,
          "name": "E3",
          "ticks": 7327,
          "time": 85.19767441860465,
          "velocity": 0.28346456692913385
        },
        {
          "duration": 0.05813953488372192,
          "durationTicks": 5,
          "midi": 100,
          "name": "E7",
          "ticks": 7330,
          "time": 85.23255813953489,
          "velocity": 0.08661417322834646
        },
        {
          "duration": 0.023255813953497295,
          "durationTicks": 2,
          "midi": 41,
          "name": "F2",
          "ticks": 7334,
          "time": 85.27906976744185,
          "velocity": 0.3543307086614173
        },
        {
          "duration": 0.04651162790698038,
          "durationTicks": 4,
          "midi": 52,
          "name": "E3",
          "ticks": 7334,
          "time": 85.27906976744185,
          "velocity": 0.14960629921259844
        },
        {
          "duration": 0.03488372093023884,
          "durationTicks": 3,
          "midi": 40,
          "name": "E2",
          "ticks": 7338,
          "time": 85.32558139534883,
          "velocity": 0.28346456692913385
        },
        {
          "duration": 0.11627906976744384,
          "durationTicks": 10,
          "midi": 60,
          "name": "C4",
          "ticks": 7341,
          "time": 85.36046511627907,
          "velocity": 0.11811023622047244
        },
        {
          "duration": 0.09302325581394655,
          "durationTicks": 8,
          "midi": 67,
          "name": "G4",
          "ticks": 7341,
          "time": 85.36046511627907,
          "velocity": 0.18110236220472442
        },
        {
          "duration": 0.1860465116279073,
          "durationTicks": 16,
          "midi": 55,
          "name": "G3",
          "ticks": 7350,
          "time": 85.46511627906976,
          "velocity": 0.31496062992125984
        },
        {
          "duration": 0.04651162790698038,
          "durationTicks": 4,
          "midi": 78,
          "name": "F#5",
          "ticks": 7350,
          "time": 85.46511627906976,
          "velocity": 0.14173228346456693
        },
        {
          "duration": 0.09302325581394655,
          "durationTicks": 8,
          "midi": 62,
          "name": "D4",
          "ticks": 7351,
          "time": 85.47674418604652,
          "velocity": 0.1968503937007874
        },
        {
          "duration": 0.1860465116279073,
          "durationTicks": 16,
          "midi": 43,
          "name": "G2",
          "ticks": 7354,
          "time": 85.51162790697674,
          "velocity": 0.3543307086614173
        },
        {
          "duration": 0.09302325581394655,
          "durationTicks": 8,
          "midi": 64,
          "name": "E4",
          "ticks": 7358,
          "time": 85.55813953488372,
          "velocity": 0.28346456692913385
        },
        {
          "duration": 0.05813953488372192,
          "durationTicks": 5,
          "midi": 100,
          "name": "E7",
          "ticks": 7361,
          "time": 85.59302325581395,
          "velocity": 0.08661417322834646
        },
        {
          "duration": 1.0697674418604635,
          "durationTicks": 92,
          "midi": 67,
          "name": "G4",
          "ticks": 7368,
          "time": 85.67441860465117,
          "velocity": 0.2992125984251969
        },
        {
          "duration": 0.023255813953497295,
          "durationTicks": 2,
          "midi": 45,
          "name": "A2",
          "ticks": 7371,
          "time": 85.70930232558139,
          "velocity": 0.3937007874015748
        },
        {
          "duration": 0.023255813953483084,
          "durationTicks": 2,
          "midi": 35,
          "name": "B1",
          "ticks": 7374,
          "time": 85.74418604651163,
          "velocity": 0.31496062992125984
        },
        {
          "duration": 0.19767441860464885,
          "durationTicks": 17,
          "midi": 48,
          "name": "C3",
          "ticks": 7376,
          "time": 85.76744186046511,
          "velocity": 0.2755905511811024
        },
        {
          "duration": 0.023255813953483084,
          "durationTicks": 2,
          "midi": 36,
          "name": "C2",
          "ticks": 7378,
          "time": 85.79069767441861,
          "velocity": 0.2992125984251969
        },
        {
          "duration": 0.023255813953497295,
          "durationTicks": 2,
          "midi": 36,
          "name": "C2",
          "ticks": 7381,
          "time": 85.82558139534883,
          "velocity": 0.30708661417322836
        },
        {
          "duration": 0.04651162790698038,
          "durationTicks": 4,
          "midi": 36,
          "name": "C2",
          "ticks": 7384,
          "time": 85.86046511627907,
          "velocity": 0.30708661417322836
        },
        {
          "duration": 0.04651162790696617,
          "durationTicks": 4,
          "midi": 36,
          "name": "C2",
          "ticks": 7389,
          "time": 85.9186046511628,
          "velocity": 0.30708661417322836
        },
        {
          "duration": 0.06976744186046346,
          "durationTicks": 6,
          "midi": 36,
          "name": "C2",
          "ticks": 7394,
          "time": 85.97674418604652,
          "velocity": 0.30708661417322836
        },
        {
          "duration": 0.023255813953497295,
          "durationTicks": 2,
          "midi": 41,
          "name": "F2",
          "ticks": 7404,
          "time": 86.09302325581395,
          "velocity": 0.3543307086614173
        },
        {
          "duration": 0.023255813953497295,
          "durationTicks": 2,
          "midi": 52,
          "name": "E3",
          "ticks": 7409,
          "time": 86.15116279069767,
          "velocity": 0.2283464566929134
        },
        {
          "duration": 0.023255813953483084,
          "durationTicks": 2,
          "midi": 37,
          "name": "C#2",
          "ticks": 7410,
          "time": 86.16279069767442,
          "velocity": 0.36220472440944884
        },
        {
          "duration": 0.09302325581396076,
          "durationTicks": 8,
          "midi": 52,
          "name": "E3",
          "ticks": 7413,
          "time": 86.19767441860465,
          "velocity": 0.1889763779527559
        },
        {
          "duration": 0.05813953488372192,
          "durationTicks": 5,
          "midi": 40,
          "name": "E2",
          "ticks": 7416,
          "time": 86.23255813953489,
          "velocity": 0.33070866141732286
        },
        {
          "duration": 0.09302325581394655,
          "durationTicks": 8,
          "midi": 60,
          "name": "C4",
          "ticks": 7421,
          "time": 86.29069767441861,
          "velocity": 0.12598425196850394
        },
        {
          "duration": 0.034883720930224626,
          "durationTicks": 3,
          "midi": 38,
          "name": "D2",
          "ticks": 7426,
          "time": 86.34883720930233,
          "velocity": 0.07874015748031496
        },
        {
          "duration": 0.023255813953497295,
          "durationTicks": 2,
          "midi": 46,
          "name": "A#2",
          "ticks": 7429,
          "time": 86.38372093023256,
          "velocity": 0.2992125984251969
        },
        {
          "duration": 0.04651162790698038,
          "durationTicks": 4,
          "midi": 63,
          "name": "D#4",
          "ticks": 7429,
          "time": 86.38372093023256,
          "velocity": 0.25196850393700787
        },
        {
          "duration": 0.023255813953483084,
          "durationTicks": 2,
          "midi": 41,
          "name": "F2",
          "ticks": 7431,
          "time": 86.40697674418605,
          "velocity": 0.4094488188976378
        },
        {
          "duration": 0.034883720930224626,
          "durationTicks": 3,
          "midi": 52,
          "name": "E3",
          "ticks": 7432,
          "time": 86.4186046511628,
          "velocity": 0.2204724409448819
        },
        {
          "duration": 0.17441860465116577,
          "durationTicks": 15,
          "midi": 43,
          "name": "G2",
          "ticks": 7433,
          "time": 86.43023255813954,
          "velocity": 0.3464566929133858
        },
        {
          "duration": 0.09302325581396076,
          "durationTicks": 8,
          "midi": 55,
          "name": "G3",
          "ticks": 7450,
          "time": 86.62790697674419,
          "velocity": 0.1968503937007874
        },
        {
          "duration": 0.034883720930224626,
          "durationTicks": 3,
          "midi": 68,
          "name": "G#4",
          "ticks": 7460,
          "time": 86.74418604651163,
          "velocity": 0.14173228346456693
        },
        {
          "duration": 0.04651162790698038,
          "durationTicks": 4,
          "midi": 67,
          "name": "G4",
          "ticks": 7463,
          "time": 86.77906976744185,
          "velocity": 0.1732283464566929
        },
        {
          "duration": 0.023255813953483084,
          "durationTicks": 2,
          "midi": 36,
          "name": "C2",
          "ticks": 7466,
          "time": 86.81395348837209,
          "velocity": 0.3228346456692913
        },
        {
          "duration": 0.023255813953483084,
          "durationTicks": 2,
          "midi": 36,
          "name": "C2",
          "ticks": 7469,
          "time": 86.84883720930233,
          "velocity": 0.3228346456692913
        },
        {
          "duration": 0.034883720930224626,
          "durationTicks": 3,
          "midi": 67,
          "name": "G4",
          "ticks": 7470,
          "time": 86.86046511627907,
          "velocity": 0.2047244094488189
        },
        {
          "duration": 0.06976744186046346,
          "durationTicks": 6,
          "midi": 60,
          "name": "C4",
          "ticks": 7471,
          "time": 86.87209302325581,
          "velocity": 0.12598425196850394
        },
        {
          "duration": 0.11627906976744384,
          "durationTicks": 10,
          "midi": 78,
          "name": "F#5",
          "ticks": 7471,
          "time": 86.87209302325581,
          "velocity": 0.11811023622047244
        },
        {
          "duration": 0.06976744186046346,
          "durationTicks": 6,
          "midi": 100,
          "name": "E7",
          "ticks": 7471,
          "time": 86.87209302325581,
          "velocity": 0.11023622047244094
        },
        {
          "duration": 0.1046511627907023,
          "durationTicks": 9,
          "midi": 48,
          "name": "C3",
          "ticks": 7472,
          "time": 86.88372093023256,
          "velocity": 0.30708661417322836
        },
        {
          "duration": 0.05813953488372192,
          "durationTicks": 5,
          "midi": 66,
          "name": "F#4",
          "ticks": 7473,
          "time": 86.8953488372093,
          "velocity": 0.2125984251968504
        },
        {
          "duration": 0.023255813953483084,
          "durationTicks": 2,
          "midi": 36,
          "name": "C2",
          "ticks": 7474,
          "time": 86.90697674418605,
          "velocity": 0.2992125984251969
        },
        {
          "duration": 0.023255813953483084,
          "durationTicks": 2,
          "midi": 36,
          "name": "C2",
          "ticks": 7477,
          "time": 86.94186046511628,
          "velocity": 0.2992125984251969
        },
        {
          "duration": 0.06976744186046346,
          "durationTicks": 6,
          "midi": 36,
          "name": "C2",
          "ticks": 7480,
          "time": 86.97674418604652,
          "velocity": 0.2992125984251969
        },
        {
          "duration": 0.023255813953483084,
          "durationTicks": 2,
          "midi": 47,
          "name": "B2",
          "ticks": 7481,
          "time": 86.98837209302326,
          "velocity": 0.3228346456692913
        },
        {
          "duration": 0.09302325581394655,
          "durationTicks": 8,
          "midi": 67,
          "name": "G4",
          "ticks": 7482,
          "time": 87,
          "velocity": 0.16535433070866143
        },
        {
          "duration": 0.023255813953483084,
          "durationTicks": 2,
          "midi": 51,
          "name": "D#3",
          "ticks": 7488,
          "time": 87.06976744186046,
          "velocity": 0.2755905511811024
        },
        {
          "duration": 0.08139534883721922,
          "durationTicks": 7,
          "midi": 100,
          "name": "E7",
          "ticks": 7490,
          "time": 87.09302325581395,
          "velocity": 0.15748031496062992
        },
        {
          "duration": 0.034883720930224626,
          "durationTicks": 3,
          "midi": 40,
          "name": "E2",
          "ticks": 7491,
          "time": 87.1046511627907,
          "velocity": 0.3779527559055118
        },
        {
          "duration": 0.023255813953497295,
          "durationTicks": 2,
          "midi": 39,
          "name": "D#2",
          "ticks": 7494,
          "time": 87.13953488372093,
          "velocity": 0.3228346456692913
        },
        {
          "duration": 0.04651162790696617,
          "durationTicks": 4,
          "midi": 40,
          "name": "E2",
          "ticks": 7496,
          "time": 87.16279069767442,
          "velocity": 0.3543307086614173
        },
        {
          "duration": 0.09302325581396076,
          "durationTicks": 8,
          "midi": 67,
          "name": "G4",
          "ticks": 7500,
          "time": 87.20930232558139,
          "velocity": 0.1889763779527559
        },
        {
          "duration": 0.023255813953483084,
          "durationTicks": 2,
          "midi": 40,
          "name": "E2",
          "ticks": 7501,
          "time": 87.22093023255815,
          "velocity": 0.3228346456692913
        },
        {
          "duration": 0.023255813953497295,
          "durationTicks": 2,
          "midi": 56,
          "name": "G#3",
          "ticks": 7510,
          "time": 87.32558139534883,
          "velocity": 0.23622047244094488
        },
        {
          "duration": 0.03488372093023884,
          "durationTicks": 3,
          "midi": 66,
          "name": "F#4",
          "ticks": 7510,
          "time": 87.32558139534883,
          "velocity": 0.18110236220472442
        },
        {
          "duration": 0.09302325581394655,
          "durationTicks": 8,
          "midi": 55,
          "name": "G3",
          "ticks": 7512,
          "time": 87.34883720930233,
          "velocity": 0.25196850393700787
        },
        {
          "duration": 0.17441860465116577,
          "durationTicks": 15,
          "midi": 43,
          "name": "G2",
          "ticks": 7516,
          "time": 87.3953488372093,
          "velocity": 0.3464566929133858
        },
        {
          "duration": 0.023255813953483084,
          "durationTicks": 2,
          "midi": 63,
          "name": "D#4",
          "ticks": 7517,
          "time": 87.40697674418605,
          "velocity": 0.28346456692913385
        },
        {
          "duration": 0.03488372093023884,
          "durationTicks": 3,
          "midi": 69,
          "name": "A4",
          "ticks": 7520,
          "time": 87.44186046511628,
          "velocity": 0.13385826771653545
        },
        {
          "duration": 0.05813953488372192,
          "durationTicks": 5,
          "midi": 100,
          "name": "E7",
          "ticks": 7520,
          "time": 87.44186046511628,
          "velocity": 0.14960629921259844
        },
        {
          "duration": 0.09302325581396076,
          "durationTicks": 8,
          "midi": 64,
          "name": "E4",
          "ticks": 7522,
          "time": 87.46511627906976,
          "velocity": 0.15748031496062992
        },
        {
          "duration": 0.12790697674418539,
          "durationTicks": 11,
          "midi": 79,
          "name": "G5",
          "ticks": 7529,
          "time": 87.54651162790698,
          "velocity": 0.2047244094488189
        },
        {
          "duration": 0.12790697674418539,
          "durationTicks": 11,
          "midi": 67,
          "name": "G4",
          "ticks": 7530,
          "time": 87.55813953488372,
          "velocity": 0.2047244094488189
        },
        {
          "duration": 0.034883720930224626,
          "durationTicks": 3,
          "midi": 86,
          "name": "D6",
          "ticks": 7530,
          "time": 87.55813953488372,
          "velocity": 0.07086614173228346
        },
        {
          "duration": 0.023255813953483084,
          "durationTicks": 2,
          "midi": 42,
          "name": "F#2",
          "ticks": 7531,
          "time": 87.56976744186046,
          "velocity": 0.3858267716535433
        },
        {
          "duration": 0.19767441860464885,
          "durationTicks": 17,
          "midi": 60,
          "name": "C4",
          "ticks": 7531,
          "time": 87.56976744186046,
          "velocity": 0.15748031496062992
        },
        {
          "duration": 0.06976744186046346,
          "durationTicks": 6,
          "midi": 36,
          "name": "C2",
          "ticks": 7534,
          "time": 87.6046511627907,
          "velocity": 0.30708661417322836
        },
        {
          "duration": 0.023255813953483084,
          "durationTicks": 2,
          "midi": 36,
          "name": "C2",
          "ticks": 7541,
          "time": 87.68604651162791,
          "velocity": 0.31496062992125984
        },
        {
          "duration": 0.081395348837205,
          "durationTicks": 7,
          "midi": 36,
          "name": "C2",
          "ticks": 7544,
          "time": 87.72093023255815,
          "velocity": 0.3228346456692913
        },
        {
          "duration": 0.05813953488372192,
          "durationTicks": 5,
          "midi": 52,
          "name": "E3",
          "ticks": 7546,
          "time": 87.74418604651163,
          "velocity": 0.18110236220472442
        },
        {
          "duration": 0.03488372093023884,
          "durationTicks": 3,
          "midi": 76,
          "name": "E5",
          "ticks": 7548,
          "time": 87.76744186046511,
          "velocity": 0.11811023622047244
        },
        {
          "duration": 0.11627906976744384,
          "durationTicks": 10,
          "midi": 78,
          "name": "F#5",
          "ticks": 7549,
          "time": 87.77906976744185,
          "velocity": 0.14960629921259844
        },
        {
          "duration": 0.05813953488372192,
          "durationTicks": 5,
          "midi": 66,
          "name": "F#4",
          "ticks": 7550,
          "time": 87.79069767441861,
          "velocity": 0.14960629921259844
        },
        {
          "duration": 0.11627906976744384,
          "durationTicks": 10,
          "midi": 36,
          "name": "C2",
          "ticks": 7552,
          "time": 87.81395348837209,
          "velocity": 0.30708661417322836
        },
        {
          "duration": 0.04651162790696617,
          "durationTicks": 4,
          "midi": 67,
          "name": "G4",
          "ticks": 7555,
          "time": 87.84883720930233,
          "velocity": 0.2440944881889764
        },
        {
          "duration": 0.081395348837205,
          "durationTicks": 7,
          "midi": 55,
          "name": "G3",
          "ticks": 7561,
          "time": 87.9186046511628,
          "velocity": 0.18110236220472442
        },
        {
          "duration": 0.10465116279068809,
          "durationTicks": 9,
          "midi": 67,
          "name": "G4",
          "ticks": 7561,
          "time": 87.9186046511628,
          "velocity": 0.23622047244094488
        },
        {
          "duration": 0.05813953488372192,
          "durationTicks": 5,
          "midi": 86,
          "name": "D6",
          "ticks": 7562,
          "time": 87.93023255813954,
          "velocity": 0.10236220472440945
        },
        {
          "duration": 0.05813953488372192,
          "durationTicks": 5,
          "midi": 36,
          "name": "C2",
          "ticks": 7563,
          "time": 87.94186046511628,
          "velocity": 0.2992125984251969
        },
        {
          "duration": 0.081395348837205,
          "durationTicks": 7,
          "midi": 100,
          "name": "E7",
          "ticks": 7569,
          "time": 88.01162790697674,
          "velocity": 0.14173228346456693
        },
        {
          "duration": 0.023255813953483084,
          "durationTicks": 2,
          "midi": 39,
          "name": "D#2",
          "ticks": 7571,
          "time": 88.03488372093024,
          "velocity": 0.3464566929133858
        },
        {
          "duration": 0.081395348837205,
          "durationTicks": 7,
          "midi": 52,
          "name": "E3",
          "ticks": 7572,
          "time": 88.04651162790698,
          "velocity": 0.18110236220472442
        },
        {
          "duration": 0.09302325581394655,
          "durationTicks": 8,
          "midi": 40,
          "name": "E2",
          "ticks": 7573,
          "time": 88.05813953488372,
          "velocity": 0.3464566929133858
        },
        {
          "duration": 0.09302325581396076,
          "durationTicks": 8,
          "midi": 60,
          "name": "C4",
          "ticks": 7580,
          "time": 88.13953488372093,
          "velocity": 0.11811023622047244
        },
        {
          "duration": 0.12790697674418539,
          "durationTicks": 11,
          "midi": 67,
          "name": "G4",
          "ticks": 7580,
          "time": 88.13953488372093,
          "velocity": 0.25196850393700787
        },
        {
          "duration": 0.034883720930224626,
          "durationTicks": 3,
          "midi": 58,
          "name": "A#3",
          "ticks": 7588,
          "time": 88.23255813953489,
          "velocity": 0.15748031496062992
        },
        {
          "duration": 0.023255813953483084,
          "durationTicks": 2,
          "midi": 48,
          "name": "C3",
          "ticks": 7589,
          "time": 88.24418604651163,
          "velocity": 0.2440944881889764
        },
        {
          "duration": 0.09302325581394655,
          "durationTicks": 8,
          "midi": 78,
          "name": "F#5",
          "ticks": 7589,
          "time": 88.24418604651163,
          "velocity": 0.14173228346456693
        },
        {
          "duration": 0.023255813953497295,
          "durationTicks": 2,
          "midi": 41,
          "name": "F2",
          "ticks": 7592,
          "time": 88.27906976744185,
          "velocity": 0.4330708661417323
        },
        {
          "duration": 0.19767441860466306,
          "durationTicks": 17,
          "midi": 55,
          "name": "G3",
          "ticks": 7592,
          "time": 88.27906976744185,
          "velocity": 0.2047244094488189
        },
        {
          "duration": 0.04651162790698038,
          "durationTicks": 4,
          "midi": 43,
          "name": "G2",
          "ticks": 7594,
          "time": 88.30232558139535,
          "velocity": 0.3228346456692913
        },
        {
          "duration": 0.11627906976744384,
          "durationTicks": 10,
          "midi": 43,
          "name": "G2",
          "ticks": 7599,
          "time": 88.36046511627907,
          "velocity": 0.3464566929133858
        },
        {
          "duration": 0.06976744186046346,
          "durationTicks": 6,
          "midi": 100,
          "name": "E7",
          "ticks": 7599,
          "time": 88.36046511627907,
          "velocity": 0.13385826771653545
        },
        {
          "duration": 0.15116279069768268,
          "durationTicks": 13,
          "midi": 67,
          "name": "G4",
          "ticks": 7608,
          "time": 88.46511627906976,
          "velocity": 0.2125984251968504
        },
        {
          "duration": 0.10465116279068809,
          "durationTicks": 9,
          "midi": 55,
          "name": "G3",
          "ticks": 7610,
          "time": 88.48837209302326,
          "velocity": 0.2204724409448819
        },
        {
          "duration": 0.22093023255814614,
          "durationTicks": 19,
          "midi": 60,
          "name": "C4",
          "ticks": 7612,
          "time": 88.51162790697674,
          "velocity": 0.11811023622047244
        },
        {
          "duration": 0.05813953488372192,
          "durationTicks": 5,
          "midi": 86,
          "name": "D6",
          "ticks": 7613,
          "time": 88.52325581395348,
          "velocity": 0.09448818897637795
        },
        {
          "duration": 0.023255813953483084,
          "durationTicks": 2,
          "midi": 48,
          "name": "C3",
          "ticks": 7614,
          "time": 88.53488372093024,
          "velocity": 0.29133858267716534
        },
        {
          "duration": 0.04651162790698038,
          "durationTicks": 4,
          "midi": 36,
          "name": "C2",
          "ticks": 7616,
          "time": 88.55813953488372,
          "velocity": 0.2677165354330709
        },
        {
          "duration": 0.2674418604651123,
          "durationTicks": 23,
          "midi": 48,
          "name": "C3",
          "ticks": 7617,
          "time": 88.56976744186046,
          "velocity": 0.28346456692913385
        },
        {
          "duration": 0.023255813953483084,
          "durationTicks": 2,
          "midi": 36,
          "name": "C2",
          "ticks": 7621,
          "time": 88.61627906976744,
          "velocity": 0.2677165354330709
        },
        {
          "duration": 0.04651162790698038,
          "durationTicks": 4,
          "midi": 36,
          "name": "C2",
          "ticks": 7624,
          "time": 88.65116279069767,
          "velocity": 0.28346456692913385
        },
        {
          "duration": 0.08139534883721922,
          "durationTicks": 7,
          "midi": 36,
          "name": "C2",
          "ticks": 7629,
          "time": 88.70930232558139,
          "velocity": 0.2755905511811024
        },
        {
          "duration": 0.09302325581394655,
          "durationTicks": 8,
          "midi": 55,
          "name": "G3",
          "ticks": 7632,
          "time": 88.74418604651163,
          "velocity": 0.16535433070866143
        },
        {
          "duration": 0.17441860465116577,
          "durationTicks": 15,
          "midi": 67,
          "name": "G4",
          "ticks": 7632,
          "time": 88.74418604651163,
          "velocity": 0.25984251968503935
        },
        {
          "duration": 0.034883720930224626,
          "durationTicks": 3,
          "midi": 78,
          "name": "F#5",
          "ticks": 7636,
          "time": 88.79069767441861,
          "velocity": 0.07874015748031496
        },
        {
          "duration": 0.023255813953483084,
          "durationTicks": 2,
          "midi": 36,
          "name": "C2",
          "ticks": 7637,
          "time": 88.80232558139535,
          "velocity": 0.2677165354330709
        },
        {
          "duration": 0.11627906976744384,
          "durationTicks": 10,
          "midi": 36,
          "name": "C2",
          "ticks": 7640,
          "time": 88.83720930232558,
          "velocity": 0.25984251968503935
        },
        {
          "duration": 0.04651162790698038,
          "durationTicks": 4,
          "midi": 52,
          "name": "E3",
          "ticks": 7643,
          "time": 88.87209302325581,
          "velocity": 0.25984251968503935
        },
        {
          "duration": 0.023255813953483084,
          "durationTicks": 2,
          "midi": 52,
          "name": "E3",
          "ticks": 7648,
          "time": 88.93023255813954,
          "velocity": 0.28346456692913385
        },
        {
          "duration": 0.03488372093023884,
          "durationTicks": 3,
          "midi": 64,
          "name": "E4",
          "ticks": 7650,
          "time": 88.95348837209302,
          "velocity": 0.11811023622047244
        },
        {
          "duration": 0.06976744186046346,
          "durationTicks": 6,
          "midi": 100,
          "name": "E7",
          "ticks": 7650,
          "time": 88.95348837209302,
          "velocity": 0.13385826771653545
        },
        {
          "duration": 0.1046511627907023,
          "durationTicks": 9,
          "midi": 52,
          "name": "E3",
          "ticks": 7651,
          "time": 88.96511627906976,
          "velocity": 0.25984251968503935
        },
        {
          "duration": 0.023255813953483084,
          "durationTicks": 2,
          "midi": 39,
          "name": "D#2",
          "ticks": 7653,
          "time": 88.98837209302326,
          "velocity": 0.3228346456692913
        },
        {
          "duration": 0.081395348837205,
          "durationTicks": 7,
          "midi": 40,
          "name": "E2",
          "ticks": 7655,
          "time": 89.01162790697674,
          "velocity": 0.3543307086614173
        },
        {
          "duration": 0.09302325581396076,
          "durationTicks": 8,
          "midi": 67,
          "name": "G4",
          "ticks": 7660,
          "time": 89.06976744186046,
          "velocity": 0.1889763779527559
        },
        {
          "duration": 0.023255813953483084,
          "durationTicks": 2,
          "midi": 37,
          "name": "C#2",
          "ticks": 7669,
          "time": 89.17441860465117,
          "velocity": 0.2283464566929134
        },
        {
          "duration": 0.06976744186046346,
          "durationTicks": 6,
          "midi": 78,
          "name": "F#5",
          "ticks": 7669,
          "time": 89.17441860465117,
          "velocity": 0.1732283464566929
        },
        {
          "duration": 0.04651162790698038,
          "durationTicks": 4,
          "midi": 100,
          "name": "E7",
          "ticks": 7670,
          "time": 89.18604651162791,
          "velocity": 0.09448818897637795
        },
        {
          "duration": 0.03488372093023884,
          "durationTicks": 3,
          "midi": 41,
          "name": "F2",
          "ticks": 7671,
          "time": 89.19767441860465,
          "velocity": 0.4330708661417323
        },
        {
          "duration": 0.16279069767442422,
          "durationTicks": 14,
          "midi": 55,
          "name": "G3",
          "ticks": 7671,
          "time": 89.19767441860465,
          "velocity": 0.25984251968503935
        },
        {
          "duration": 0.04651162790698038,
          "durationTicks": 4,
          "midi": 62,
          "name": "D4",
          "ticks": 7672,
          "time": 89.20930232558139,
          "velocity": 0.07874015748031496
        },
        {
          "duration": 0.11627906976744384,
          "durationTicks": 10,
          "midi": 43,
          "name": "G2",
          "ticks": 7674,
          "time": 89.23255813953489,
          "velocity": 0.33858267716535434
        },
        {
          "duration": 0.034883720930224626,
          "durationTicks": 3,
          "midi": 93,
          "name": "A6",
          "ticks": 7674,
          "time": 89.23255813953489,
          "velocity": 0.09448818897637795
        },
        {
          "duration": 0.034883720930224626,
          "durationTicks": 3,
          "midi": 62,
          "name": "D4",
          "ticks": 7680,
          "time": 89.30232558139535,
          "velocity": 0.07086614173228346
        },
        {
          "duration": 0.081395348837205,
          "durationTicks": 7,
          "midi": 69,
          "name": "A4",
          "ticks": 7680,
          "time": 89.30232558139535,
          "velocity": 0.12598425196850394
        },
        {
          "duration": 0.05813953488372192,
          "durationTicks": 5,
          "midi": 100,
          "name": "E7",
          "ticks": 7681,
          "time": 89.31395348837209,
          "velocity": 0.11811023622047244
        },
        {
          "duration": 0.034883720930224626,
          "durationTicks": 3,
          "midi": 42,
          "name": "F#2",
          "ticks": 7684,
          "time": 89.34883720930233,
          "velocity": 0.33070866141732286
        },
        {
          "duration": 0.023255813953483084,
          "durationTicks": 2,
          "midi": 45,
          "name": "A2",
          "ticks": 7689,
          "time": 89.40697674418605,
          "velocity": 0.3543307086614173
        },
        {
          "duration": 0.023255813953483084,
          "durationTicks": 2,
          "midi": 33,
          "name": "A1",
          "ticks": 7690,
          "time": 89.4186046511628,
          "velocity": 0.2677165354330709
        },
        {
          "duration": 0.05813953488372192,
          "durationTicks": 5,
          "midi": 84,
          "name": "C6",
          "ticks": 7690,
          "time": 89.4186046511628,
          "velocity": 0.08661417322834646
        },
        {
          "duration": 0.2674418604651123,
          "durationTicks": 23,
          "midi": 47,
          "name": "B2",
          "ticks": 7691,
          "time": 89.43023255813954,
          "velocity": 0.2755905511811024
        },
        {
          "duration": 0.24418604651162923,
          "durationTicks": 21,
          "midi": 54,
          "name": "F#3",
          "ticks": 7691,
          "time": 89.43023255813954,
          "velocity": 0.25196850393700787
        },
        {
          "duration": 0.04651162790698038,
          "durationTicks": 4,
          "midi": 63,
          "name": "D#4",
          "ticks": 7693,
          "time": 89.45348837209302,
          "velocity": 0.07874015748031496
        },
        {
          "duration": 0.09302325581396076,
          "durationTicks": 8,
          "midi": 35,
          "name": "B1",
          "ticks": 7694,
          "time": 89.46511627906976,
          "velocity": 0.2677165354330709
        },
        {
          "duration": 0.11627906976744384,
          "durationTicks": 10,
          "midi": 35,
          "name": "B1",
          "ticks": 7703,
          "time": 89.56976744186046,
          "velocity": 0.2677165354330709
        },
        {
          "duration": 0.023255813953497295,
          "durationTicks": 2,
          "midi": 35,
          "name": "B1",
          "ticks": 7714,
          "time": 89.69767441860465,
          "velocity": 0.25984251968503935
        },
        {
          "duration": 0.16279069767442422,
          "durationTicks": 14,
          "midi": 47,
          "name": "B2",
          "ticks": 7715,
          "time": 89.70930232558139,
          "velocity": 0.2992125984251969
        },
        {
          "duration": 0.023255813953483084,
          "durationTicks": 2,
          "midi": 35,
          "name": "B1",
          "ticks": 7717,
          "time": 89.73255813953489,
          "velocity": 0.25984251968503935
        },
        {
          "duration": 0.023255813953497295,
          "durationTicks": 2,
          "midi": 35,
          "name": "B1",
          "ticks": 7720,
          "time": 89.76744186046511,
          "velocity": 0.25984251968503935
        },
        {
          "duration": 0.081395348837205,
          "durationTicks": 7,
          "midi": 66,
          "name": "F#4",
          "ticks": 7722,
          "time": 89.79069767441861,
          "velocity": 0.25196850393700787
        },
        {
          "duration": 0.023255813953483084,
          "durationTicks": 2,
          "midi": 35,
          "name": "B1",
          "ticks": 7723,
          "time": 89.80232558139535,
          "velocity": 0.25196850393700787
        },
        {
          "duration": 0.034883720930224626,
          "durationTicks": 3,
          "midi": 35,
          "name": "B1",
          "ticks": 7728,
          "time": 89.86046511627907,
          "velocity": 0.25196850393700787
        },
        {
          "duration": 0.03488372093023884,
          "durationTicks": 3,
          "midi": 60,
          "name": "C4",
          "ticks": 7729,
          "time": 89.87209302325581,
          "velocity": 0.15748031496062992
        },
        {
          "duration": 0.03488372093023884,
          "durationTicks": 3,
          "midi": 67,
          "name": "G4",
          "ticks": 7729,
          "time": 89.87209302325581,
          "velocity": 0.08661417322834646
        },
        {
          "duration": 0.09302325581394655,
          "durationTicks": 8,
          "midi": 66,
          "name": "F#4",
          "ticks": 7732,
          "time": 89.90697674418605,
          "velocity": 0.1732283464566929
        },
        {
          "duration": 0.11627906976744384,
          "durationTicks": 10,
          "midi": 51,
          "name": "D#3",
          "ticks": 7734,
          "time": 89.93023255813954,
          "velocity": 0.2440944881889764
        },
        {
          "duration": 0.09302325581396076,
          "durationTicks": 8,
          "midi": 39,
          "name": "D#2",
          "ticks": 7735,
          "time": 89.94186046511628,
          "velocity": 0.30708661417322836
        },
        {
          "duration": 0.03488372093023884,
          "durationTicks": 3,
          "midi": 65,
          "name": "F4",
          "ticks": 7740,
          "time": 90,
          "velocity": 0.07086614173228346
        },
        {
          "duration": 0.023255813953483084,
          "durationTicks": 2,
          "midi": 57,
          "name": "A3",
          "ticks": 7744,
          "time": 90.04651162790698,
          "velocity": 0.2283464566929134
        },
        {
          "duration": 0.1860465116279073,
          "durationTicks": 16,
          "midi": 64,
          "name": "E4",
          "ticks": 7749,
          "time": 90.1046511627907,
          "velocity": 0.25984251968503935
        },
        {
          "duration": 0.034883720930224626,
          "durationTicks": 3,
          "midi": 83,
          "name": "B5",
          "ticks": 7749,
          "time": 90.1046511627907,
          "velocity": 0.11023622047244094
        },
        {
          "duration": 0.034883720930224626,
          "durationTicks": 3,
          "midi": 100,
          "name": "E7",
          "ticks": 7749,
          "time": 90.1046511627907,
          "velocity": 0.08661417322834646
        },
        {
          "duration": 0.023255813953497295,
          "durationTicks": 2,
          "midi": 40,
          "name": "E2",
          "ticks": 7753,
          "time": 90.15116279069767,
          "velocity": 0.41732283464566927
        },
        {
          "duration": 0.13953488372092693,
          "durationTicks": 12,
          "midi": 42,
          "name": "F#2",
          "ticks": 7755,
          "time": 90.17441860465117,
          "velocity": 0.36220472440944884
        },
        {
          "duration": 0.04651162790698038,
          "durationTicks": 4,
          "midi": 59,
          "name": "B3",
          "ticks": 7768,
          "time": 90.32558139534883,
          "velocity": 0.14173228346456693
        },
        {
          "duration": 0.023255813953497295,
          "durationTicks": 2,
          "midi": 52,
          "name": "E3",
          "ticks": 7769,
          "time": 90.33720930232558,
          "velocity": 0.2283464566929134
        },
        {
          "duration": 0.1046511627907023,
          "durationTicks": 9,
          "midi": 75,
          "name": "D#5",
          "ticks": 7769,
          "time": 90.33720930232558,
          "velocity": 0.2125984251968504
        },
        {
          "duration": 0.023255813953483084,
          "durationTicks": 2,
          "midi": 48,
          "name": "C3",
          "ticks": 7771,
          "time": 90.36046511627907,
          "velocity": 0.2677165354330709
        },
        {
          "duration": 0.023255813953483084,
          "durationTicks": 2,
          "midi": 32,
          "name": "G#1",
          "ticks": 7772,
          "time": 90.37209302325581,
          "velocity": 0.23622047244094488
        },
        {
          "duration": 0.17441860465116577,
          "durationTicks": 15,
          "midi": 54,
          "name": "F#3",
          "ticks": 7772,
          "time": 90.37209302325581,
          "velocity": 0.2440944881889764
        },
        {
          "duration": 0.023255813953497295,
          "durationTicks": 2,
          "midi": 47,
          "name": "B2",
          "ticks": 7773,
          "time": 90.38372093023256,
          "velocity": 0.30708661417322836
        },
        {
          "duration": 0.05813953488372192,
          "durationTicks": 5,
          "midi": 63,
          "name": "D#4",
          "ticks": 7773,
          "time": 90.38372093023256,
          "velocity": 0.13385826771653545
        },
        {
          "duration": 0.03488372093023884,
          "durationTicks": 3,
          "midi": 34,
          "name": "A#1",
          "ticks": 7774,
          "time": 90.3953488372093,
          "velocity": 0.2992125984251969
        },
        {
          "duration": 0.11627906976744384,
          "durationTicks": 10,
          "midi": 47,
          "name": "B2",
          "ticks": 7779,
          "time": 90.45348837209302,
          "velocity": 0.25984251968503935
        },
        {
          "duration": 0.023255813953483084,
          "durationTicks": 2,
          "midi": 35,
          "name": "B1",
          "ticks": 7782,
          "time": 90.48837209302326,
          "velocity": 0.2755905511811024
        },
        {
          "duration": 0.09302325581396076,
          "durationTicks": 8,
          "midi": 76,
          "name": "E5",
          "ticks": 7790,
          "time": 90.5813953488372,
          "velocity": 0.14960629921259844
        },
        {
          "duration": 0.09302325581396076,
          "durationTicks": 8,
          "midi": 64,
          "name": "E4",
          "ticks": 7791,
          "time": 90.59302325581395,
          "velocity": 0.1968503937007874
        },
        {
          "duration": 0.09302325581396076,
          "durationTicks": 8,
          "midi": 83,
          "name": "B5",
          "ticks": 7791,
          "time": 90.59302325581395,
          "velocity": 0.08661417322834646
        },
        {
          "duration": 0.023255813953497295,
          "durationTicks": 2,
          "midi": 35,
          "name": "B1",
          "ticks": 7796,
          "time": 90.65116279069767,
          "velocity": 0.25984251968503935
        },
        {
          "duration": 0.023255813953483084,
          "durationTicks": 2,
          "midi": 35,
          "name": "B1",
          "ticks": 7799,
          "time": 90.68604651162791,
          "velocity": 0.25984251968503935
        },
        {
          "duration": 0.05813953488372192,
          "durationTicks": 5,
          "midi": 47,
          "name": "B2",
          "ticks": 7799,
          "time": 90.68604651162791,
          "velocity": 0.31496062992125984
        },
        {
          "duration": 0.13953488372092693,
          "durationTicks": 12,
          "midi": 66,
          "name": "F#4",
          "ticks": 7800,
          "time": 90.69767441860465,
          "velocity": 0.10236220472440945
        },
        {
          "duration": 0.05813953488372192,
          "durationTicks": 5,
          "midi": 35,
          "name": "B1",
          "ticks": 7805,
          "time": 90.75581395348837,
          "velocity": 0.23622047244094488
        },
        {
          "duration": 0.06976744186046346,
          "durationTicks": 6,
          "midi": 47,
          "name": "B2",
          "ticks": 7805,
          "time": 90.75581395348837,
          "velocity": 0.31496062992125984
        },
        {
          "duration": 0.04651162790698038,
          "durationTicks": 4,
          "midi": 58,
          "name": "A#3",
          "ticks": 7811,
          "time": 90.82558139534883,
          "velocity": 0.12598425196850394
        },
        {
          "duration": 0.08139534883721922,
          "durationTicks": 7,
          "midi": 78,
          "name": "F#5",
          "ticks": 7811,
          "time": 90.82558139534883,
          "velocity": 0.14173228346456693
        },
        {
          "duration": 0.023255813953497295,
          "durationTicks": 2,
          "midi": 37,
          "name": "C#2",
          "ticks": 7812,
          "time": 90.83720930232558,
          "velocity": 0.2992125984251969
        },
        {
          "duration": 0.04651162790698038,
          "durationTicks": 4,
          "midi": 66,
          "name": "F#4",
          "ticks": 7814,
          "time": 90.86046511627907,
          "velocity": 0.11023622047244094
        },
        {
          "duration": 0.023255813953483084,
          "durationTicks": 2,
          "midi": 40,
          "name": "E2",
          "ticks": 7815,
          "time": 90.87209302325581,
          "velocity": 0.33858267716535434
        },
        {
          "duration": 0.023255813953497295,
          "durationTicks": 2,
          "midi": 39,
          "name": "D#2",
          "ticks": 7817,
          "time": 90.8953488372093,
          "velocity": 0.2755905511811024
        },
        {
          "duration": 0.023255813953483084,
          "durationTicks": 2,
          "midi": 38,
          "name": "D2",
          "ticks": 7819,
          "time": 90.9186046511628,
          "velocity": 0.23622047244094488
        },
        {
          "duration": 0.03488372093023884,
          "durationTicks": 3,
          "midi": 71,
          "name": "B4",
          "ticks": 7821,
          "time": 90.94186046511628,
          "velocity": 0.07086614173228346
        },
        {
          "duration": 0.034883720930224626,
          "durationTicks": 3,
          "midi": 59,
          "name": "B3",
          "ticks": 7824,
          "time": 90.97674418604652,
          "velocity": 0.15748031496062992
        },
        {
          "duration": 0.04651162790698038,
          "durationTicks": 4,
          "midi": 57,
          "name": "A3",
          "ticks": 7828,
          "time": 91.02325581395348,
          "velocity": 0.23622047244094488
        },
        {
          "duration": 0.023255813953483084,
          "durationTicks": 2,
          "midi": 46,
          "name": "A#2",
          "ticks": 7830,
          "time": 91.04651162790698,
          "velocity": 0.28346456692913385
        },
        {
          "duration": 0.11627906976744384,
          "durationTicks": 10,
          "midi": 79,
          "name": "G5",
          "ticks": 7830,
          "time": 91.04651162790698,
          "velocity": 0.14960629921259844
        },
        {
          "duration": 0.11627906976744384,
          "durationTicks": 10,
          "midi": 67,
          "name": "G4",
          "ticks": 7831,
          "time": 91.05813953488372,
          "velocity": 0.2755905511811024
        },
        {
          "duration": 0.17441860465115155,
          "durationTicks": 15,
          "midi": 42,
          "name": "F#2",
          "ticks": 7835,
          "time": 91.1046511627907,
          "velocity": 0.33858267716535434
        },
        {
          "duration": 0.034883720930224626,
          "durationTicks": 3,
          "midi": 53,
          "name": "F3",
          "ticks": 7840,
          "time": 91.16279069767442,
          "velocity": 0.2440944881889764
        },
        {
          "duration": 0.034883720930224626,
          "durationTicks": 3,
          "midi": 59,
          "name": "B3",
          "ticks": 7846,
          "time": 91.23255813953489,
          "velocity": 0.2047244094488189
        },
        {
          "duration": 0.04651162790696617,
          "durationTicks": 4,
          "midi": 45,
          "name": "A2",
          "ticks": 7851,
          "time": 91.29069767441861,
          "velocity": 0.3858267716535433
        },
        {
          "duration": 0.15116279069766847,
          "durationTicks": 13,
          "midi": 66,
          "name": "F#4",
          "ticks": 7851,
          "time": 91.29069767441861,
          "velocity": 0.2440944881889764
        },
        {
          "duration": 0.04651162790698038,
          "durationTicks": 4,
          "midi": 100,
          "name": "E7",
          "ticks": 7852,
          "time": 91.30232558139535,
          "velocity": 0.07874015748031496
        },
        {
          "duration": 0.1046511627907023,
          "durationTicks": 9,
          "midi": 54,
          "name": "F#3",
          "ticks": 7853,
          "time": 91.31395348837209,
          "velocity": 0.18110236220472442
        },
        {
          "duration": 0.023255813953497295,
          "durationTicks": 2,
          "midi": 33,
          "name": "A1",
          "ticks": 7855,
          "time": 91.33720930232558,
          "velocity": 0.2992125984251969
        },
        {
          "duration": 0.023255813953483084,
          "durationTicks": 2,
          "midi": 35,
          "name": "B1",
          "ticks": 7857,
          "time": 91.36046511627907,
          "velocity": 0.30708661417322836
        },
        {
          "duration": 0.16279069767441,
          "durationTicks": 14,
          "midi": 59,
          "name": "B3",
          "ticks": 7857,
          "time": 91.36046511627907,
          "velocity": 0.2125984251968504
        },
        {
          "duration": 0.023255813953483084,
          "durationTicks": 2,
          "midi": 35,
          "name": "B1",
          "ticks": 7864,
          "time": 91.44186046511628,
          "velocity": 0.28346456692913385
        },
        {
          "duration": 0.023255813953497295,
          "durationTicks": 2,
          "midi": 36,
          "name": "C2",
          "ticks": 7866,
          "time": 91.46511627906976,
          "velocity": 0.2755905511811024
        },
        {
          "duration": 0.11627906976744384,
          "durationTicks": 10,
          "midi": 79,
          "name": "G5",
          "ticks": 7871,
          "time": 91.52325581395348,
          "velocity": 0.16535433070866143
        },
        {
          "duration": 0.09302325581394655,
          "durationTicks": 8,
          "midi": 67,
          "name": "G4",
          "ticks": 7872,
          "time": 91.53488372093024,
          "velocity": 0.2204724409448819
        },
        {
          "duration": 0.023255813953483084,
          "durationTicks": 2,
          "midi": 35,
          "name": "B1",
          "ticks": 7874,
          "time": 91.55813953488372,
          "velocity": 0.25984251968503935
        },
        {
          "duration": 0.03488372093023884,
          "durationTicks": 3,
          "midi": 98,
          "name": "D7",
          "ticks": 7875,
          "time": 91.56976744186046,
          "velocity": 0.08661417322834646
        },
        {
          "duration": 0.08139534883721922,
          "durationTicks": 7,
          "midi": 35,
          "name": "B1",
          "ticks": 7877,
          "time": 91.59302325581395,
          "velocity": 0.2677165354330709
        },
        {
          "duration": 0.09302325581394655,
          "durationTicks": 8,
          "midi": 59,
          "name": "B3",
          "ticks": 7884,
          "time": 91.67441860465117,
          "velocity": 0.18110236220472442
        },
        {
          "duration": 0.06976744186046346,
          "durationTicks": 6,
          "midi": 35,
          "name": "B1",
          "ticks": 7885,
          "time": 91.68604651162791,
          "velocity": 0.25984251968503935
        },
        {
          "duration": 0.05813953488372192,
          "durationTicks": 5,
          "midi": 58,
          "name": "A#3",
          "ticks": 7892,
          "time": 91.76744186046511,
          "velocity": 0.16535433070866143
        },
        {
          "duration": 0.05813953488372192,
          "durationTicks": 5,
          "midi": 100,
          "name": "E7",
          "ticks": 7892,
          "time": 91.76744186046511,
          "velocity": 0.13385826771653545
        },
        {
          "duration": 0.05813953488372192,
          "durationTicks": 5,
          "midi": 39,
          "name": "D#2",
          "ticks": 7895,
          "time": 91.80232558139535,
          "velocity": 0.30708661417322836
        },
        {
          "duration": 0.023255813953497295,
          "durationTicks": 2,
          "midi": 53,
          "name": "F3",
          "ticks": 7902,
          "time": 91.88372093023256,
          "velocity": 0.2283464566929134
        },
        {
          "duration": 0.04651162790698038,
          "durationTicks": 4,
          "midi": 71,
          "name": "B4",
          "ticks": 7902,
          "time": 91.88372093023256,
          "velocity": 0.10236220472440945
        },
        {
          "duration": 0.023255813953497295,
          "durationTicks": 2,
          "midi": 40,
          "name": "E2",
          "ticks": 7908,
          "time": 91.95348837209302,
          "velocity": 0.23622047244094488
        },
        {
          "duration": 0.10465116279068809,
          "durationTicks": 9,
          "midi": 67,
          "name": "G4",
          "ticks": 7911,
          "time": 91.98837209302326,
          "velocity": 0.18110236220472442
        },
        {
          "duration": 0.03488372093023884,
          "durationTicks": 3,
          "midi": 59,
          "name": "B3",
          "ticks": 7912,
          "time": 92,
          "velocity": 0.1732283464566929
        },
        {
          "duration": 0.03488372093023884,
          "durationTicks": 3,
          "midi": 41,
          "name": "F2",
          "ticks": 7913,
          "time": 92.01162790697674,
          "velocity": 0.41732283464566927
        },
        {
          "duration": 0.12790697674418539,
          "durationTicks": 11,
          "midi": 42,
          "name": "F#2",
          "ticks": 7916,
          "time": 92.04651162790698,
          "velocity": 0.33858267716535434
        },
        {
          "duration": 0.023255813953483084,
          "durationTicks": 2,
          "midi": 58,
          "name": "A#3",
          "ticks": 7918,
          "time": 92.06976744186046,
          "velocity": 0.23622047244094488
        },
        {
          "duration": 0.023255813953483084,
          "durationTicks": 2,
          "midi": 59,
          "name": "B3",
          "ticks": 7923,
          "time": 92.12790697674419,
          "velocity": 0.2283464566929134
        },
        {
          "duration": 0.023255813953483084,
          "durationTicks": 2,
          "midi": 59,
          "name": "B3",
          "ticks": 7926,
          "time": 92.16279069767442,
          "velocity": 0.2283464566929134
        },
        {
          "duration": 0.05813953488372192,
          "durationTicks": 5,
          "midi": 63,
          "name": "D#4",
          "ticks": 7926,
          "time": 92.16279069767442,
          "velocity": 0.10236220472440945
        },
        {
          "duration": 0.023255813953483084,
          "durationTicks": 2,
          "midi": 58,
          "name": "A#3",
          "ticks": 7928,
          "time": 92.18604651162791,
          "velocity": 0.2440944881889764
        },
        {
          "duration": 0.034883720930224626,
          "durationTicks": 3,
          "midi": 44,
          "name": "G#2",
          "ticks": 7931,
          "time": 92.22093023255815,
          "velocity": 0.4330708661417323
        },
        {
          "duration": 0.05813953488370771,
          "durationTicks": 5,
          "midi": 100,
          "name": "E7",
          "ticks": 7931,
          "time": 92.22093023255815,
          "velocity": 0.12598425196850394
        },
        {
          "duration": 0.081395348837205,
          "durationTicks": 7,
          "midi": 59,
          "name": "B3",
          "ticks": 7934,
          "time": 92.25581395348837,
          "velocity": 0.1968503937007874
        },
        {
          "duration": 0.023255813953483084,
          "durationTicks": 2,
          "midi": 35,
          "name": "B1",
          "ticks": 7938,
          "time": 92.30232558139535,
          "velocity": 0.29133858267716534
        },
        {
          "duration": 0.023255813953497295,
          "durationTicks": 2,
          "midi": 35,
          "name": "B1",
          "ticks": 7941,
          "time": 92.33720930232558,
          "velocity": 0.29133858267716534
        },
        {
          "duration": 0.03488372093023884,
          "durationTicks": 3,
          "midi": 71,
          "name": "B4",
          "ticks": 7941,
          "time": 92.33720930232558,
          "velocity": 0.07874015748031496
        },
        {
          "duration": 0.05813953488372192,
          "durationTicks": 5,
          "midi": 59,
          "name": "B3",
          "ticks": 7942,
          "time": 92.34883720930233,
          "velocity": 0.16535433070866143
        },
        {
          "duration": 0.023255813953483084,
          "durationTicks": 2,
          "midi": 36,
          "name": "C2",
          "ticks": 7944,
          "time": 92.37209302325581,
          "velocity": 0.2992125984251969
        },
        {
          "duration": 0.04651162790698038,
          "durationTicks": 4,
          "midi": 83,
          "name": "B5",
          "ticks": 7950,
          "time": 92.44186046511628,
          "velocity": 0.1889763779527559
        },
        {
          "duration": 0.023255813953497295,
          "durationTicks": 2,
          "midi": 50,
          "name": "D3",
          "ticks": 7951,
          "time": 92.45348837209302,
          "velocity": 0.2440944881889764
        },
        {
          "duration": 0.023255813953497295,
          "durationTicks": 2,
          "midi": 34,
          "name": "A#1",
          "ticks": 7952,
          "time": 92.46511627906976,
          "velocity": 0.2755905511811024
        },
        {
          "duration": 0.05813953488372192,
          "durationTicks": 5,
          "midi": 58,
          "name": "A#3",
          "ticks": 7952,
          "time": 92.46511627906976,
          "velocity": 0.15748031496062992
        },
        {
          "duration": 0.09302325581396076,
          "durationTicks": 8,
          "midi": 71,
          "name": "B4",
          "ticks": 7952,
          "time": 92.46511627906976,
          "velocity": 0.1889763779527559
        },
        {
          "duration": 0.04651162790698038,
          "durationTicks": 4,
          "midi": 39,
          "name": "D#2",
          "ticks": 7955,
          "time": 92.5,
          "velocity": 0.33070866141732286
        },
        {
          "duration": 0.023255813953483084,
          "durationTicks": 2,
          "midi": 39,
          "name": "D#2",
          "ticks": 7960,
          "time": 92.55813953488372,
          "velocity": 0.33070866141732286
        },
        {
          "duration": 0.09302325581396076,
          "durationTicks": 8,
          "midi": 59,
          "name": "B3",
          "ticks": 7962,
          "time": 92.5813953488372,
          "velocity": 0.2677165354330709
        },
        {
          "duration": 0.023255813953483084,
          "durationTicks": 2,
          "midi": 38,
          "name": "D2",
          "ticks": 7966,
          "time": 92.62790697674419,
          "velocity": 0.2440944881889764
        },
        {
          "duration": 0.023255813953497295,
          "durationTicks": 2,
          "midi": 40,
          "name": "E2",
          "ticks": 7968,
          "time": 92.65116279069767,
          "velocity": 0.33070866141732286
        },
        {
          "duration": 0.06976744186046346,
          "durationTicks": 6,
          "midi": 100,
          "name": "E7",
          "ticks": 7971,
          "time": 92.68604651162791,
          "velocity": 0.15748031496062992
        },
        {
          "duration": 0.023255813953497295,
          "durationTicks": 2,
          "midi": 41,
          "name": "F2",
          "ticks": 7972,
          "time": 92.69767441860465,
          "velocity": 0.3700787401574803
        },
        {
          "duration": 0.023255813953483084,
          "durationTicks": 2,
          "midi": 43,
          "name": "G2",
          "ticks": 7975,
          "time": 92.73255813953489,
          "velocity": 0.3779527559055118
        },
        {
          "duration": 0.06976744186046346,
          "durationTicks": 6,
          "midi": 54,
          "name": "F#3",
          "ticks": 7975,
          "time": 92.73255813953489,
          "velocity": 0.11811023622047244
        },
        {
          "duration": 0.1046511627907023,
          "durationTicks": 9,
          "midi": 42,
          "name": "F#2",
          "ticks": 7977,
          "time": 92.75581395348837,
          "velocity": 0.36220472440944884
        },
        {
          "duration": 0.023255813953483084,
          "durationTicks": 2,
          "midi": 58,
          "name": "A#3",
          "ticks": 7981,
          "time": 92.80232558139535,
          "velocity": 0.2440944881889764
        },
        {
          "duration": 0.05813953488372192,
          "durationTicks": 5,
          "midi": 59,
          "name": "B3",
          "ticks": 7983,
          "time": 92.82558139534883,
          "velocity": 0.29133858267716534
        },
        {
          "duration": 0.08139534883721922,
          "durationTicks": 7,
          "midi": 67,
          "name": "G4",
          "ticks": 7983,
          "time": 92.82558139534883,
          "velocity": 0.09448818897637795
        },
        {
          "duration": 0.023255813953497295,
          "durationTicks": 2,
          "midi": 53,
          "name": "F3",
          "ticks": 7989,
          "time": 92.8953488372093,
          "velocity": 0.23622047244094488
        },
        {
          "duration": 0.17441860465115155,
          "durationTicks": 15,
          "midi": 51,
          "name": "D#3",
          "ticks": 7991,
          "time": 92.9186046511628,
          "velocity": 0.2677165354330709
        },
        {
          "duration": 0.081395348837205,
          "durationTicks": 7,
          "midi": 71,
          "name": "B4",
          "ticks": 7991,
          "time": 92.9186046511628,
          "velocity": 0.16535433070866143
        },
        {
          "duration": 0.023255813953483084,
          "durationTicks": 2,
          "midi": 37,
          "name": "C#2",
          "ticks": 7992,
          "time": 92.93023255813954,
          "velocity": 0.30708661417322836
        },
        {
          "duration": 0.19767441860464885,
          "durationTicks": 17,
          "midi": 67,
          "name": "G4",
          "ticks": 7993,
          "time": 92.94186046511628,
          "velocity": 0.15748031496062992
        },
        {
          "duration": 0.04651162790698038,
          "durationTicks": 4,
          "midi": 88,
          "name": "E6",
          "ticks": 7993,
          "time": 92.94186046511628,
          "velocity": 0.07086614173228346
        },
        {
          "duration": 0.023255813953497295,
          "durationTicks": 2,
          "midi": 39,
          "name": "D#2",
          "ticks": 7994,
          "time": 92.95348837209302,
          "velocity": 0.31496062992125984
        },
        {
          "duration": 0.03488372093023884,
          "durationTicks": 3,
          "midi": 99,
          "name": "D#7",
          "ticks": 7994,
          "time": 92.95348837209302,
          "velocity": 0.07086614173228346
        },
        {
          "duration": 0.04651162790698038,
          "durationTicks": 4,
          "midi": 58,
          "name": "A#3",
          "ticks": 7995,
          "time": 92.96511627906976,
          "velocity": 0.1968503937007874
        },
        {
          "duration": 0.03488372093023884,
          "durationTicks": 3,
          "midi": 39,
          "name": "D#2",
          "ticks": 7999,
          "time": 93.01162790697674,
          "velocity": 0.30708661417322836
        },
        {
          "duration": 0.04651162790696617,
          "durationTicks": 4,
          "midi": 58,
          "name": "A#3",
          "ticks": 8001,
          "time": 93.03488372093024,
          "velocity": 0.2047244094488189
        },
        {
          "duration": 0.034883720930224626,
          "durationTicks": 3,
          "midi": 71,
          "name": "B4",
          "ticks": 8002,
          "time": 93.04651162790698,
          "velocity": 0.13385826771653545
        },
        {
          "duration": 0.04651162790698038,
          "durationTicks": 4,
          "midi": 39,
          "name": "D#2",
          "ticks": 8003,
          "time": 93.05813953488372,
          "velocity": 0.28346456692913385
        },
        {
          "duration": 0.04651162790698038,
          "durationTicks": 4,
          "midi": 76,
          "name": "E5",
          "ticks": 8005,
          "time": 93.0813953488372,
          "velocity": 0.15748031496062992
        },
        {
          "duration": 0.03488372093023884,
          "durationTicks": 3,
          "midi": 40,
          "name": "E2",
          "ticks": 8009,
          "time": 93.12790697674419,
          "velocity": 0.2992125984251969
        },
        {
          "duration": 0.023255813953497295,
          "durationTicks": 2,
          "midi": 76,
          "name": "E5",
          "ticks": 8010,
          "time": 93.13953488372093,
          "velocity": 0.2440944881889764
        },
        {
          "duration": 0.06976744186046346,
          "durationTicks": 6,
          "midi": 84,
          "name": "C6",
          "ticks": 8012,
          "time": 93.16279069767442,
          "velocity": 0.10236220472440945
        },
        {
          "duration": 0.06976744186046346,
          "durationTicks": 6,
          "midi": 100,
          "name": "E7",
          "ticks": 8012,
          "time": 93.16279069767442,
          "velocity": 0.08661417322834646
        },
        {
          "duration": 0.3139534883720927,
          "durationTicks": 27,
          "midi": 52,
          "name": "E3",
          "ticks": 8013,
          "time": 93.17441860465117,
          "velocity": 0.29133858267716534
        },
        {
          "duration": 0.023255813953483084,
          "durationTicks": 2,
          "midi": 40,
          "name": "E2",
          "ticks": 8014,
          "time": 93.18604651162791,
          "velocity": 0.3228346456692913
        },
        {
          "duration": 0.081395348837205,
          "durationTicks": 7,
          "midi": 88,
          "name": "E6",
          "ticks": 8014,
          "time": 93.18604651162791,
          "velocity": 0.11811023622047244
        },
        {
          "duration": 0.023255813953497295,
          "durationTicks": 2,
          "midi": 39,
          "name": "D#2",
          "ticks": 8016,
          "time": 93.20930232558139,
          "velocity": 0.2677165354330709
        },
        {
          "duration": 0.1860465116279073,
          "durationTicks": 16,
          "midi": 59,
          "name": "B3",
          "ticks": 8016,
          "time": 93.20930232558139,
          "velocity": 0.14960629921259844
        },
        {
          "duration": 0.03488372093023884,
          "durationTicks": 3,
          "midi": 67,
          "name": "G4",
          "ticks": 8016,
          "time": 93.20930232558139,
          "velocity": 0.12598425196850394
        },
        {
          "duration": 0.16279069767441,
          "durationTicks": 14,
          "midi": 40,
          "name": "E2",
          "ticks": 8018,
          "time": 93.23255813953489,
          "velocity": 0.2992125984251969
        },
        {
          "duration": 0.05813953488372192,
          "durationTicks": 5,
          "midi": 78,
          "name": "F#5",
          "ticks": 8026,
          "time": 93.32558139534883,
          "velocity": 0.10236220472440945
        },
        {
          "duration": 0.05813953488372192,
          "durationTicks": 5,
          "midi": 99,
          "name": "D#7",
          "ticks": 8032,
          "time": 93.3953488372093,
          "velocity": 0.12598425196850394
        },
        {
          "duration": 0.2093023255813904,
          "durationTicks": 18,
          "midi": 40,
          "name": "E2",
          "ticks": 8033,
          "time": 93.40697674418605,
          "velocity": 0.2992125984251969
        },
        {
          "duration": 0.04651162790698038,
          "durationTicks": 4,
          "midi": 71,
          "name": "B4",
          "ticks": 8040,
          "time": 93.48837209302326,
          "velocity": 0.10236220472440945
        },
        {
          "duration": 0.09302325581396076,
          "durationTicks": 8,
          "midi": 78,
          "name": "F#5",
          "ticks": 8042,
          "time": 93.51162790697674,
          "velocity": 0.14173228346456693
        },
        {
          "duration": 0.081395348837205,
          "durationTicks": 7,
          "midi": 72,
          "name": "C5",
          "ticks": 8050,
          "time": 93.6046511627907,
          "velocity": 0.2440944881889764
        },
        {
          "duration": 0.023255813953483084,
          "durationTicks": 2,
          "midi": 39,
          "name": "D#2",
          "ticks": 8051,
          "time": 93.61627906976744,
          "velocity": 0.2677165354330709
        },
        {
          "duration": 0.2093023255814046,
          "durationTicks": 18,
          "midi": 40,
          "name": "E2",
          "ticks": 8053,
          "time": 93.63953488372093,
          "velocity": 0.30708661417322836
        },
        {
          "duration": 0.25581395348837077,
          "durationTicks": 22,
          "midi": 59,
          "name": "B3",
          "ticks": 8058,
          "time": 93.69767441860465,
          "velocity": 0.1968503937007874
        },
        {
          "duration": 0.12790697674418539,
          "durationTicks": 11,
          "midi": 78,
          "name": "F#5",
          "ticks": 8061,
          "time": 93.73255813953489,
          "velocity": 0.14173228346456693
        },
        {
          "duration": 0.034883720930224626,
          "durationTicks": 3,
          "midi": 88,
          "name": "E6",
          "ticks": 8071,
          "time": 93.84883720930233,
          "velocity": 0.07086614173228346
        },
        {
          "duration": 0.23255813953487348,
          "durationTicks": 20,
          "midi": 40,
          "name": "E2",
          "ticks": 8072,
          "time": 93.86046511627907,
          "velocity": 0.30708661417322836
        },
        {
          "duration": 0.05813953488372192,
          "durationTicks": 5,
          "midi": 71,
          "name": "B4",
          "ticks": 8080,
          "time": 93.95348837209302,
          "velocity": 0.11023622047244094
        },
        {
          "duration": 0.10465116279068809,
          "durationTicks": 9,
          "midi": 78,
          "name": "F#5",
          "ticks": 8082,
          "time": 93.97674418604652,
          "velocity": 0.14960629921259844
        },
        {
          "duration": 0.081395348837205,
          "durationTicks": 7,
          "midi": 71,
          "name": "B4",
          "ticks": 8090,
          "time": 94.06976744186046,
          "velocity": 0.2047244094488189
        },
        {
          "duration": 0.04651162790698038,
          "durationTicks": 4,
          "midi": 99,
          "name": "D#7",
          "ticks": 8090,
          "time": 94.06976744186046,
          "velocity": 0.11811023622047244
        },
        {
          "duration": 0.24418604651162923,
          "durationTicks": 21,
          "midi": 40,
          "name": "E2",
          "ticks": 8093,
          "time": 94.1046511627907,
          "velocity": 0.30708661417322836
        },
        {
          "duration": 0.19767441860464885,
          "durationTicks": 17,
          "midi": 59,
          "name": "B3",
          "ticks": 8100,
          "time": 94.18604651162791,
          "velocity": 0.15748031496062992
        },
        {
          "duration": 0.11627906976742963,
          "durationTicks": 10,
          "midi": 78,
          "name": "F#5",
          "ticks": 8103,
          "time": 94.22093023255815,
          "velocity": 0.11023622047244094
        },
        {
          "duration": 0.1046511627907023,
          "durationTicks": 9,
          "midi": 67,
          "name": "G4",
          "ticks": 8110,
          "time": 94.30232558139535,
          "velocity": 0.1889763779527559
        },
        {
          "duration": 0.22093023255813193,
          "durationTicks": 19,
          "midi": 40,
          "name": "E2",
          "ticks": 8115,
          "time": 94.36046511627907,
          "velocity": 0.30708661417322836
        },
        {
          "duration": 0.04651162790698038,
          "durationTicks": 4,
          "midi": 71,
          "name": "B4",
          "ticks": 8121,
          "time": 94.43023255813954,
          "velocity": 0.07874015748031496
        },
        {
          "duration": 0.081395348837205,
          "durationTicks": 7,
          "midi": 78,
          "name": "F#5",
          "ticks": 8122,
          "time": 94.44186046511628,
          "velocity": 0.11023622047244094
        },
        {
          "duration": 0.06976744186046346,
          "durationTicks": 6,
          "midi": 81,
          "name": "A5",
          "ticks": 8130,
          "time": 94.53488372093024,
          "velocity": 0.10236220472440945
        },
        {
          "duration": 0.08139534883721922,
          "durationTicks": 7,
          "midi": 40,
          "name": "E2",
          "ticks": 8135,
          "time": 94.59302325581395,
          "velocity": 0.2992125984251969
        },
        {
          "duration": 0.05813953488372192,
          "durationTicks": 5,
          "midi": 69,
          "name": "A4",
          "ticks": 8135,
          "time": 94.59302325581395,
          "velocity": 0.14960629921259844
        },
        {
          "duration": 0.09302325581394655,
          "durationTicks": 8,
          "midi": 59,
          "name": "B3",
          "ticks": 8141,
          "time": 94.66279069767442,
          "velocity": 0.1732283464566929
        },
        {
          "duration": 0.081395348837205,
          "durationTicks": 7,
          "midi": 40,
          "name": "E2",
          "ticks": 8143,
          "time": 94.68604651162791,
          "velocity": 0.2992125984251969
        },
        {
          "duration": 0.2325581395348877,
          "durationTicks": 20,
          "midi": 78,
          "name": "F#5",
          "ticks": 8143,
          "time": 94.68604651162791,
          "velocity": 0.25196850393700787
        },
        {
          "duration": 0.023255813953497295,
          "durationTicks": 2,
          "midi": 39,
          "name": "D#2",
          "ticks": 8150,
          "time": 94.76744186046511,
          "velocity": 0.2755905511811024
        },
        {
          "duration": 0.09302325581396076,
          "durationTicks": 8,
          "midi": 66,
          "name": "F#4",
          "ticks": 8150,
          "time": 94.76744186046511,
          "velocity": 0.12598425196850394
        },
        {
          "duration": 0.09302325581396076,
          "durationTicks": 8,
          "midi": 85,
          "name": "C#6",
          "ticks": 8150,
          "time": 94.76744186046511,
          "velocity": 0.14960629921259844
        },
        {
          "duration": 0.06976744186046346,
          "durationTicks": 6,
          "midi": 50,
          "name": "D3",
          "ticks": 8152,
          "time": 94.79069767441861,
          "velocity": 0.14173228346456693
        },
        {
          "duration": 0.023255813953483084,
          "durationTicks": 2,
          "midi": 39,
          "name": "D#2",
          "ticks": 8153,
          "time": 94.80232558139535,
          "velocity": 0.2440944881889764
        },
        {
          "duration": 0.04651162790698038,
          "durationTicks": 4,
          "midi": 38,
          "name": "D2",
          "ticks": 8155,
          "time": 94.82558139534883,
          "velocity": 0.25196850393700787
        },
        {
          "duration": 0.04651162790698038,
          "durationTicks": 4,
          "midi": 37,
          "name": "C#2",
          "ticks": 8159,
          "time": 94.87209302325581,
          "velocity": 0.2440944881889764
        },
        {
          "duration": 0.034883720930224626,
          "durationTicks": 3,
          "midi": 63,
          "name": "D#4",
          "ticks": 8162,
          "time": 94.90697674418605,
          "velocity": 0.10236220472440945
        },
        {
          "duration": 0.023255813953483084,
          "durationTicks": 2,
          "midi": 36,
          "name": "C2",
          "ticks": 8163,
          "time": 94.9186046511628,
          "velocity": 0.2283464566929134
        },
        {
          "duration": 0.04651162790698038,
          "durationTicks": 4,
          "midi": 59,
          "name": "B3",
          "ticks": 8164,
          "time": 94.93023255813954,
          "velocity": 0.12598425196850394
        },
        {
          "duration": 0.04651162790698038,
          "durationTicks": 4,
          "midi": 35,
          "name": "B1",
          "ticks": 8165,
          "time": 94.94186046511628,
          "velocity": 0.2047244094488189
        },
        {
          "duration": 0.034883720930224626,
          "durationTicks": 3,
          "midi": 34,
          "name": "A#1",
          "ticks": 8169,
          "time": 94.98837209302326,
          "velocity": 0.15748031496062992
        },
        {
          "duration": 0.03488372093023884,
          "durationTicks": 3,
          "midi": 74,
          "name": "D5",
          "ticks": 8170,
          "time": 95,
          "velocity": 0.14960629921259844
        },
        {
          "duration": 0.04651162790698038,
          "durationTicks": 4,
          "midi": 84,
          "name": "C6",
          "ticks": 8170,
          "time": 95,
          "velocity": 0.1889763779527559
        },
        {
          "duration": 0.023255813953497295,
          "durationTicks": 2,
          "midi": 72,
          "name": "C5",
          "ticks": 8171,
          "time": 95.01162790697674,
          "velocity": 0.2677165354330709
        },
        {
          "duration": 0.33720930232559,
          "durationTicks": 29,
          "midi": 67,
          "name": "G4",
          "ticks": 8172,
          "time": 95.02325581395348,
          "velocity": 0.25196850393700787
        },
        {
          "duration": 0.19767441860464885,
          "durationTicks": 17,
          "midi": 78,
          "name": "F#5",
          "ticks": 8174,
          "time": 95.04651162790698,
          "velocity": 0.1732283464566929
        },
        {
          "duration": 0.034883720930224626,
          "durationTicks": 3,
          "midi": 47,
          "name": "B2",
          "ticks": 8175,
          "time": 95.05813953488372,
          "velocity": 0.2992125984251969
        },
        {
          "duration": 0.12790697674418539,
          "durationTicks": 11,
          "midi": 40,
          "name": "E2",
          "ticks": 8177,
          "time": 95.0813953488372,
          "velocity": 0.3464566929133858
        },
        {
          "duration": 0.17441860465116577,
          "durationTicks": 15,
          "midi": 64,
          "name": "E4",
          "ticks": 8177,
          "time": 95.0813953488372,
          "velocity": 0.15748031496062992
        },
        {
          "duration": 0.034883720930224626,
          "durationTicks": 3,
          "midi": 59,
          "name": "B3",
          "ticks": 8179,
          "time": 95.1046511627907,
          "velocity": 0.10236220472440945
        },
        {
          "duration": 0.05813953488372192,
          "durationTicks": 5,
          "midi": 47,
          "name": "B2",
          "ticks": 8181,
          "time": 95.12790697674419,
          "velocity": 0.2992125984251969
        },
        {
          "duration": 0.1860465116279073,
          "durationTicks": 16,
          "midi": 71,
          "name": "B4",
          "ticks": 8181,
          "time": 95.12790697674419,
          "velocity": 0.14960629921259844
        },
        {
          "duration": 0.04651162790698038,
          "durationTicks": 4,
          "midi": 47,
          "name": "B2",
          "ticks": 8187,
          "time": 95.19767441860465,
          "velocity": 0.28346456692913385
        },
        {
          "duration": 0.034883720930224626,
          "durationTicks": 3,
          "midi": 40,
          "name": "E2",
          "ticks": 8189,
          "time": 95.22093023255815,
          "velocity": 0.3228346456692913
        },
        {
          "duration": 0.13953488372094114,
          "durationTicks": 12,
          "midi": 40,
          "name": "E2",
          "ticks": 8193,
          "time": 95.26744186046511,
          "velocity": 0.33070866141732286
        },
        {
          "duration": 0.09302325581394655,
          "durationTicks": 8,
          "midi": 64,
          "name": "E4",
          "ticks": 8202,
          "time": 95.37209302325581,
          "velocity": 0.07874015748031496
        },
        {
          "duration": 0.04651162790698038,
          "durationTicks": 4,
          "midi": 71,
          "name": "B4",
          "ticks": 8202,
          "time": 95.37209302325581,
          "velocity": 0.07874015748031496
        },
        {
          "duration": 0.03488372093023884,
          "durationTicks": 3,
          "midi": 47,
          "name": "B2",
          "ticks": 8204,
          "time": 95.3953488372093,
          "velocity": 0.2204724409448819
        },
        {
          "duration": 0.08139534883721922,
          "durationTicks": 7,
          "midi": 72,
          "name": "C5",
          "ticks": 8209,
          "time": 95.45348837209302,
          "velocity": 0.2047244094488189
        },
        {
          "duration": 0.2674418604651265,
          "durationTicks": 23,
          "midi": 40,
          "name": "E2",
          "ticks": 8210,
          "time": 95.46511627906976,
          "velocity": 0.33070866141732286
        },
        {
          "duration": 0.1046511627907023,
          "durationTicks": 9,
          "midi": 59,
          "name": "B3",
          "ticks": 8213,
          "time": 95.5,
          "velocity": 0.07086614173228346
        },
        {
          "duration": 0.05813953488370771,
          "durationTicks": 5,
          "midi": 71,
          "name": "B4",
          "ticks": 8216,
          "time": 95.53488372093024,
          "velocity": 0.09448818897637795
        },
        {
          "duration": 0.09302325581394655,
          "durationTicks": 8,
          "midi": 71,
          "name": "B4",
          "ticks": 8222,
          "time": 95.6046511627907,
          "velocity": 0.2204724409448819
        },
        {
          "duration": 0.22093023255814614,
          "durationTicks": 19,
          "midi": 78,
          "name": "F#5",
          "ticks": 8230,
          "time": 95.69767441860465,
          "velocity": 0.2125984251968504
        },
        {
          "duration": 0.04651162790696617,
          "durationTicks": 4,
          "midi": 85,
          "name": "C#6",
          "ticks": 8233,
          "time": 95.73255813953489,
          "velocity": 0.07874015748031496
        },
        {
          "duration": 0.15116279069766847,
          "durationTicks": 13,
          "midi": 40,
          "name": "E2",
          "ticks": 8234,
          "time": 95.74418604651163,
          "velocity": 0.3228346456692913
        },
        {
          "duration": 0.04651162790698038,
          "durationTicks": 4,
          "midi": 71,
          "name": "B4",
          "ticks": 8241,
          "time": 95.82558139534883,
          "velocity": 0.11811023622047244
        },
        {
          "duration": 0.1046511627907023,
          "durationTicks": 9,
          "midi": 59,
          "name": "B3",
          "ticks": 8242,
          "time": 95.83720930232558,
          "velocity": 0.14960629921259844
        },
        {
          "duration": 0.04651162790696617,
          "durationTicks": 4,
          "midi": 40,
          "name": "E2",
          "ticks": 8248,
          "time": 95.90697674418605,
          "velocity": 0.30708661417322836
        },
        {
          "duration": 0.06976744186046346,
          "durationTicks": 6,
          "midi": 67,
          "name": "G4",
          "ticks": 8252,
          "time": 95.95348837209302,
          "velocity": 0.14960629921259844
        },
        {
          "duration": 0.05813953488372192,
          "durationTicks": 5,
          "midi": 71,
          "name": "B4",
          "ticks": 8252,
          "time": 95.95348837209302,
          "velocity": 0.11811023622047244
        },
        {
          "duration": 0.03488372093023884,
          "durationTicks": 3,
          "midi": 40,
          "name": "E2",
          "ticks": 8253,
          "time": 95.96511627906976,
          "velocity": 0.33070866141732286
        },
        {
          "duration": 0.05813953488372192,
          "durationTicks": 5,
          "midi": 40,
          "name": "E2",
          "ticks": 8257,
          "time": 96.01162790697674,
          "velocity": 0.3228346456692913
        },
        {
          "duration": 0.1046511627907023,
          "durationTicks": 9,
          "midi": 59,
          "name": "B3",
          "ticks": 8261,
          "time": 96.05813953488372,
          "velocity": 0.14173228346456693
        },
        {
          "duration": 0.13953488372092693,
          "durationTicks": 12,
          "midi": 78,
          "name": "F#5",
          "ticks": 8261,
          "time": 96.05813953488372,
          "velocity": 0.2283464566929134
        },
        {
          "duration": 0.04651162790698038,
          "durationTicks": 4,
          "midi": 40,
          "name": "E2",
          "ticks": 8263,
          "time": 96.0813953488372,
          "velocity": 0.3228346456692913
        },
        {
          "duration": 0.04651162790698038,
          "durationTicks": 4,
          "midi": 40,
          "name": "E2",
          "ticks": 8268,
          "time": 96.13953488372093,
          "velocity": 0.3228346456692913
        },
        {
          "duration": 0.081395348837205,
          "durationTicks": 7,
          "midi": 67,
          "name": "G4",
          "ticks": 8271,
          "time": 96.17441860465117,
          "velocity": 0.13385826771653545
        },
        {
          "duration": 0.06976744186046346,
          "durationTicks": 6,
          "midi": 64,
          "name": "E4",
          "ticks": 8272,
          "time": 96.18604651162791,
          "velocity": 0.12598425196850394
        },
        {
          "duration": 0.04651162790698038,
          "durationTicks": 4,
          "midi": 40,
          "name": "E2",
          "ticks": 8273,
          "time": 96.19767441860465,
          "velocity": 0.3228346456692913
        },
        {
          "duration": 0.04651162790698038,
          "durationTicks": 4,
          "midi": 40,
          "name": "E2",
          "ticks": 8278,
          "time": 96.25581395348837,
          "velocity": 0.31496062992125984
        },
        {
          "duration": 0.06976744186046346,
          "durationTicks": 6,
          "midi": 71,
          "name": "B4",
          "ticks": 8281,
          "time": 96.29069767441861,
          "velocity": 0.14173228346456693
        },
        {
          "duration": 0.32558139534883423,
          "durationTicks": 28,
          "midi": 78,
          "name": "F#5",
          "ticks": 8282,
          "time": 96.30232558139535,
          "velocity": 0.2283464566929134
        },
        {
          "duration": 0.1046511627907023,
          "durationTicks": 9,
          "midi": 40,
          "name": "E2",
          "ticks": 8283,
          "time": 96.31395348837209,
          "velocity": 0.3228346456692913
        },
        {
          "duration": 0.034883720930224626,
          "durationTicks": 3,
          "midi": 40,
          "name": "E2",
          "ticks": 8293,
          "time": 96.43023255813954,
          "velocity": 0.33070866141732286
        },
        {
          "duration": 0.06976744186046346,
          "durationTicks": 6,
          "midi": 40,
          "name": "E2",
          "ticks": 8297,
          "time": 96.47674418604652,
          "velocity": 0.30708661417322836
        },
        {
          "duration": 0.06976744186046346,
          "durationTicks": 6,
          "midi": 59,
          "name": "B3",
          "ticks": 8303,
          "time": 96.54651162790698,
          "velocity": 0.18110236220472442
        },
        {
          "duration": 0.1046511627907023,
          "durationTicks": 9,
          "midi": 40,
          "name": "E2",
          "ticks": 8304,
          "time": 96.55813953488372,
          "velocity": 0.31496062992125984
        },
        {
          "duration": 0.09302325581396076,
          "durationTicks": 8,
          "midi": 66,
          "name": "F#4",
          "ticks": 8311,
          "time": 96.63953488372093,
          "velocity": 0.07086614173228346
        },
        {
          "duration": 0.16279069767442422,
          "durationTicks": 14,
          "midi": 78,
          "name": "F#5",
          "ticks": 8311,
          "time": 96.63953488372093,
          "velocity": 0.2283464566929134
        },
        {
          "duration": 0.09302325581394655,
          "durationTicks": 8,
          "midi": 40,
          "name": "E2",
          "ticks": 8314,
          "time": 96.67441860465117,
          "velocity": 0.30708661417322836
        },
        {
          "duration": 0.09302325581396076,
          "durationTicks": 8,
          "midi": 59,
          "name": "B3",
          "ticks": 8322,
          "time": 96.76744186046511,
          "velocity": 0.14960629921259844
        },
        {
          "duration": 0.05813953488372192,
          "durationTicks": 5,
          "midi": 40,
          "name": "E2",
          "ticks": 8323,
          "time": 96.77906976744185,
          "velocity": 0.31496062992125984
        },
        {
          "duration": 0.034883720930224626,
          "durationTicks": 3,
          "midi": 40,
          "name": "E2",
          "ticks": 8329,
          "time": 96.84883720930233,
          "velocity": 0.28346456692913385
        },
        {
          "duration": 0.04651162790698038,
          "durationTicks": 4,
          "midi": 76,
          "name": "E5",
          "ticks": 8330,
          "time": 96.86046511627907,
          "velocity": 0.25984251968503935
        },
        {
          "duration": 0.081395348837205,
          "durationTicks": 7,
          "midi": 84,
          "name": "C6",
          "ticks": 8331,
          "time": 96.87209302325581,
          "velocity": 0.11811023622047244
        },
        {
          "duration": 0.22093023255814614,
          "durationTicks": 19,
          "midi": 78,
          "name": "F#5",
          "ticks": 8332,
          "time": 96.88372093023256,
          "velocity": 0.1732283464566929
        },
        {
          "duration": 0.081395348837205,
          "durationTicks": 7,
          "midi": 99,
          "name": "D#7",
          "ticks": 8332,
          "time": 96.88372093023256,
          "velocity": 0.08661417322834646
        },
        {
          "duration": 0.03488372093023884,
          "durationTicks": 3,
          "midi": 50,
          "name": "D3",
          "ticks": 8333,
          "time": 96.8953488372093,
          "velocity": 0.2440944881889764
        },
        {
          "duration": 0.2093023255814046,
          "durationTicks": 18,
          "midi": 67,
          "name": "G4",
          "ticks": 8333,
          "time": 96.8953488372093,
          "velocity": 0.25984251968503935
        },
        {
          "duration": 0.023255813953483084,
          "durationTicks": 2,
          "midi": 37,
          "name": "C#2",
          "ticks": 8334,
          "time": 96.90697674418605,
          "velocity": 0.30708661417322836
        },
        {
          "duration": 0.023255813953483084,
          "durationTicks": 2,
          "midi": 58,
          "name": "A#3",
          "ticks": 8335,
          "time": 96.9186046511628,
          "velocity": 0.2440944881889764
        },
        {
          "duration": 0.04651162790696617,
          "durationTicks": 4,
          "midi": 64,
          "name": "E4",
          "ticks": 8335,
          "time": 96.9186046511628,
          "velocity": 0.09448818897637795
        },
        {
          "duration": 0.034883720930224626,
          "durationTicks": 3,
          "midi": 38,
          "name": "D2",
          "ticks": 8336,
          "time": 96.93023255813954,
          "velocity": 0.2755905511811024
        },
        {
          "duration": 0.03488372093023884,
          "durationTicks": 3,
          "midi": 51,
          "name": "D#3",
          "ticks": 8338,
          "time": 96.95348837209302,
          "velocity": 0.25196850393700787
        },
        {
          "duration": 0.04651162790698038,
          "durationTicks": 4,
          "midi": 39,
          "name": "D#2",
          "ticks": 8339,
          "time": 96.96511627906976,
          "velocity": 0.3228346456692913
        },
        {
          "duration": 0.33720930232559,
          "durationTicks": 29,
          "midi": 40,
          "name": "E2",
          "ticks": 8343,
          "time": 97.01162790697674,
          "velocity": 0.3464566929133858
        },
        {
          "duration": 0.11627906976744384,
          "durationTicks": 10,
          "midi": 71,
          "name": "B4",
          "ticks": 8350,
          "time": 97.09302325581395,
          "velocity": 0.18110236220472442
        },
        {
          "duration": 0.081395348837205,
          "durationTicks": 7,
          "midi": 99,
          "name": "D#7",
          "ticks": 8351,
          "time": 97.1046511627907,
          "velocity": 0.15748031496062992
        },
        {
          "duration": 0.034883720930224626,
          "durationTicks": 3,
          "midi": 67,
          "name": "G4",
          "ticks": 8352,
          "time": 97.11627906976744,
          "velocity": 0.11023622047244094
        },
        {
          "duration": 0.5348837209302388,
          "durationTicks": 46,
          "midi": 59,
          "name": "B3",
          "ticks": 8355,
          "time": 97.15116279069767,
          "velocity": 0.2440944881889764
        },
        {
          "duration": 0.06976744186046346,
          "durationTicks": 6,
          "midi": 78,
          "name": "F#5",
          "ticks": 8364,
          "time": 97.25581395348837,
          "velocity": 0.09448818897637795
        },
        {
          "duration": 0.30232558139535115,
          "durationTicks": 26,
          "midi": 64,
          "name": "E4",
          "ticks": 8370,
          "time": 97.32558139534883,
          "velocity": 0.08661417322834646
        },
        {
          "duration": 0.08139534883721922,
          "durationTicks": 7,
          "midi": 72,
          "name": "C5",
          "ticks": 8370,
          "time": 97.32558139534883,
          "velocity": 0.25196850393700787
        },
        {
          "duration": 0.8255813953488342,
          "durationTicks": 71,
          "midi": 40,
          "name": "E2",
          "ticks": 8373,
          "time": 97.36046511627907,
          "velocity": 0.3464566929133858
        },
        {
          "duration": 0.05813953488372192,
          "durationTicks": 5,
          "midi": 78,
          "name": "F#5",
          "ticks": 8384,
          "time": 97.48837209302326,
          "velocity": 0.11811023622047244
        },
        {
          "duration": 0.03488372093023884,
          "durationTicks": 3,
          "midi": 71,
          "name": "B4",
          "ticks": 8402,
          "time": 97.69767441860465,
          "velocity": 0.08661417322834646
        },
        {
          "duration": 0.05813953488372192,
          "durationTicks": 5,
          "midi": 78,
          "name": "F#5",
          "ticks": 8403,
          "time": 97.70930232558139,
          "velocity": 0.09448818897637795
        },
        {
          "duration": 0.09302325581394655,
          "durationTicks": 8,
          "midi": 71,
          "name": "B4",
          "ticks": 8410,
          "time": 97.79069767441861,
          "velocity": 0.23622047244094488
        },
        {
          "duration": 0.04651162790698038,
          "durationTicks": 4,
          "midi": 99,
          "name": "D#7",
          "ticks": 8411,
          "time": 97.80232558139535,
          "velocity": 0.11811023622047244
        },
        {
          "duration": 0.1046511627907023,
          "durationTicks": 9,
          "midi": 59,
          "name": "B3",
          "ticks": 8423,
          "time": 97.94186046511628,
          "velocity": 0.16535433070866143
        },
        {
          "duration": 0.06976744186046346,
          "durationTicks": 6,
          "midi": 78,
          "name": "F#5",
          "ticks": 8424,
          "time": 97.95348837209302,
          "velocity": 0.13385826771653545
        },
        {
          "duration": 0.1046511627907023,
          "durationTicks": 9,
          "midi": 67,
          "name": "G4",
          "ticks": 8430,
          "time": 98.02325581395348,
          "velocity": 0.1889763779527559
        },
        {
          "duration": 0.06976744186046346,
          "durationTicks": 6,
          "midi": 59,
          "name": "B3",
          "ticks": 8440,
          "time": 98.13953488372093,
          "velocity": 0.13385826771653545
        },
        {
          "duration": 0.05813953488372192,
          "durationTicks": 5,
          "midi": 78,
          "name": "F#5",
          "ticks": 8444,
          "time": 98.18604651162791,
          "velocity": 0.09448818897637795
        },
        {
          "duration": 0.09302325581396076,
          "durationTicks": 8,
          "midi": 40,
          "name": "E2",
          "ticks": 8445,
          "time": 98.19767441860465,
          "velocity": 0.30708661417322836
        },
        {
          "duration": 0.27906976744185386,
          "durationTicks": 24,
          "midi": 40,
          "name": "E2",
          "ticks": 8454,
          "time": 98.30232558139535,
          "velocity": 0.33070866141732286
        },
        {
          "duration": 0.03488372093023884,
          "durationTicks": 3,
          "midi": 93,
          "name": "A6",
          "ticks": 8455,
          "time": 98.31395348837209,
          "velocity": 0.14173228346456693
        },
        {
          "duration": 0.05813953488372192,
          "durationTicks": 5,
          "midi": 71,
          "name": "B4",
          "ticks": 8462,
          "time": 98.3953488372093,
          "velocity": 0.11811023622047244
        },
        {
          "duration": 0.06976744186046346,
          "durationTicks": 6,
          "midi": 78,
          "name": "F#5",
          "ticks": 8463,
          "time": 98.40697674418605,
          "velocity": 0.13385826771653545
        },
        {
          "duration": 0.09302325581394655,
          "durationTicks": 8,
          "midi": 59,
          "name": "B3",
          "ticks": 8465,
          "time": 98.43023255813954,
          "velocity": 0.08661417322834646
        },
        {
          "duration": 0.10465116279068809,
          "durationTicks": 9,
          "midi": 66,
          "name": "F#4",
          "ticks": 8470,
          "time": 98.48837209302326,
          "velocity": 0.13385826771653545
        },
        {
          "duration": 0.24418604651162923,
          "durationTicks": 21,
          "midi": 78,
          "name": "F#5",
          "ticks": 8470,
          "time": 98.48837209302326,
          "velocity": 0.2283464566929134
        },
        {
          "duration": 0.09302325581394655,
          "durationTicks": 8,
          "midi": 85,
          "name": "C#6",
          "ticks": 8471,
          "time": 98.5,
          "velocity": 0.11023622047244094
        },
        {
          "duration": 0.08139534883721922,
          "durationTicks": 7,
          "midi": 39,
          "name": "D#2",
          "ticks": 8478,
          "time": 98.5813953488372,
          "velocity": 0.28346456692913385
        },
        {
          "duration": 0.03488372093023884,
          "durationTicks": 3,
          "midi": 71,
          "name": "B4",
          "ticks": 8483,
          "time": 98.63953488372093,
          "velocity": 0.08661417322834646
        },
        {
          "duration": 0.05813953488372192,
          "durationTicks": 5,
          "midi": 59,
          "name": "B3",
          "ticks": 8484,
          "time": 98.65116279069767,
          "velocity": 0.11023622047244094
        },
        {
          "duration": 0.04651162790696617,
          "durationTicks": 4,
          "midi": 38,
          "name": "D2",
          "ticks": 8485,
          "time": 98.66279069767442,
          "velocity": 0.25196850393700787
        },
        {
          "duration": 0.03488372093023884,
          "durationTicks": 3,
          "midi": 74,
          "name": "D5",
          "ticks": 8489,
          "time": 98.70930232558139,
          "velocity": 0.12598425196850394
        },
        {
          "duration": 0.03488372093023884,
          "durationTicks": 3,
          "midi": 81,
          "name": "A5",
          "ticks": 8489,
          "time": 98.70930232558139,
          "velocity": 0.14960629921259844
        },
        {
          "duration": 0.03488372093023884,
          "durationTicks": 3,
          "midi": 83,
          "name": "B5",
          "ticks": 8489,
          "time": 98.70930232558139,
          "velocity": 0.12598425196850394
        },
        {
          "duration": 0.10465116279068809,
          "durationTicks": 9,
          "midi": 67,
          "name": "G4",
          "ticks": 8491,
          "time": 98.73255813953489,
          "velocity": 0.25984251968503935
        },
        {
          "duration": 0.12790697674418539,
          "durationTicks": 11,
          "midi": 59,
          "name": "B3",
          "ticks": 8493,
          "time": 98.75581395348837,
          "velocity": 0.1889763779527559
        },
        {
          "duration": 0.023255813953483084,
          "durationTicks": 2,
          "midi": 40,
          "name": "E2",
          "ticks": 8497,
          "time": 98.80232558139535,
          "velocity": 0.3700787401574803
        },
        {
          "duration": 0.034883720930224626,
          "durationTicks": 3,
          "midi": 47,
          "name": "B2",
          "ticks": 8497,
          "time": 98.80232558139535,
          "velocity": 0.2992125984251969
        },
        {
          "duration": 0.03488372093023884,
          "durationTicks": 3,
          "midi": 78,
          "name": "F#5",
          "ticks": 8499,
          "time": 98.82558139534883,
          "velocity": 0.07874015748031496
        },
        {
          "duration": 0.13953488372094114,
          "durationTicks": 12,
          "midi": 40,
          "name": "E2",
          "ticks": 8500,
          "time": 98.83720930232558,
          "velocity": 0.3700787401574803
        },
        {
          "duration": 0.11627906976744384,
          "durationTicks": 10,
          "midi": 78,
          "name": "F#5",
          "ticks": 8504,
          "time": 98.88372093023256,
          "velocity": 0.14960629921259844
        },
        {
          "duration": 0.05813953488372192,
          "durationTicks": 5,
          "midi": 76,
          "name": "E5",
          "ticks": 8511,
          "time": 98.96511627906976,
          "velocity": 0.1968503937007874
        },
        {
          "duration": 0.1860465116279073,
          "durationTicks": 16,
          "midi": 59,
          "name": "B3",
          "ticks": 8512,
          "time": 98.97674418604652,
          "velocity": 0.16535433070866143
        },
        {
          "duration": 0.17441860465115155,
          "durationTicks": 15,
          "midi": 64,
          "name": "E4",
          "ticks": 8512,
          "time": 98.97674418604652,
          "velocity": 0.1968503937007874
        },
        {
          "duration": 0.034883720930224626,
          "durationTicks": 3,
          "midi": 40,
          "name": "E2",
          "ticks": 8513,
          "time": 98.98837209302326,
          "velocity": 0.3464566929133858
        },
        {
          "duration": 0.04651162790698038,
          "durationTicks": 4,
          "midi": 47,
          "name": "B2",
          "ticks": 8515,
          "time": 99.01162790697674,
          "velocity": 0.29133858267716534
        },
        {
          "duration": 0.1046511627907023,
          "durationTicks": 9,
          "midi": 40,
          "name": "E2",
          "ticks": 8519,
          "time": 99.05813953488372,
          "velocity": 0.33070866141732286
        },
        {
          "duration": 0.3139534883720927,
          "durationTicks": 27,
          "midi": 78,
          "name": "F#5",
          "ticks": 8524,
          "time": 99.11627906976744,
          "velocity": 0.2283464566929134
        },
        {
          "duration": 0.03488372093023884,
          "durationTicks": 3,
          "midi": 41,
          "name": "F2",
          "ticks": 8530,
          "time": 99.18604651162791,
          "velocity": 0.23622047244094488
        },
        {
          "duration": 0.03488372093023884,
          "durationTicks": 3,
          "midi": 70,
          "name": "A#4",
          "ticks": 8530,
          "time": 99.18604651162791,
          "velocity": 0.2440944881889764
        },
        {
          "duration": 0.03488372093023884,
          "durationTicks": 3,
          "midi": 81,
          "name": "A5",
          "ticks": 8530,
          "time": 99.18604651162791,
          "velocity": 0.1732283464566929
        },
        {
          "duration": 0.03488372093023884,
          "durationTicks": 3,
          "midi": 66,
          "name": "F#4",
          "ticks": 8531,
          "time": 99.19767441860465,
          "velocity": 0.11811023622047244
        },
        {
          "duration": 0.081395348837205,
          "durationTicks": 7,
          "midi": 85,
          "name": "C#6",
          "ticks": 8531,
          "time": 99.19767441860465,
          "velocity": 0.14960629921259844
        },
        {
          "duration": 0.023255813953483084,
          "durationTicks": 2,
          "midi": 38,
          "name": "D2",
          "ticks": 8534,
          "time": 99.23255813953489,
          "velocity": 0.3464566929133858
        },
        {
          "duration": 0.09302325581396076,
          "durationTicks": 8,
          "midi": 40,
          "name": "E2",
          "ticks": 8537,
          "time": 99.26744186046511,
          "velocity": 0.36220472440944884
        },
        {
          "duration": 0.03488372093023884,
          "durationTicks": 3,
          "midi": 59,
          "name": "B3",
          "ticks": 8537,
          "time": 99.26744186046511,
          "velocity": 0.10236220472440945
        },
        {
          "duration": 0.03488372093023884,
          "durationTicks": 3,
          "midi": 67,
          "name": "G4",
          "ticks": 8538,
          "time": 99.27906976744185,
          "velocity": 0.07086614173228346
        },
        {
          "duration": 0.12790697674418539,
          "durationTicks": 11,
          "midi": 64,
          "name": "E4",
          "ticks": 8541,
          "time": 99.31395348837209,
          "velocity": 0.15748031496062992
        },
        {
          "duration": 0.04651162790698038,
          "durationTicks": 4,
          "midi": 84,
          "name": "C6",
          "ticks": 8541,
          "time": 99.31395348837209,
          "velocity": 0.2125984251968504
        },
        {
          "duration": 0.06976744186046346,
          "durationTicks": 6,
          "midi": 56,
          "name": "G#3",
          "ticks": 8544,
          "time": 99.34883720930233,
          "velocity": 0.13385826771653545
        },
        {
          "duration": 0.04651162790696617,
          "durationTicks": 4,
          "midi": 71,
          "name": "B4",
          "ticks": 8544,
          "time": 99.34883720930233,
          "velocity": 0.08661417322834646
        },
        {
          "duration": 0.1046511627907023,
          "durationTicks": 9,
          "midi": 40,
          "name": "E2",
          "ticks": 8546,
          "time": 99.37209302325581,
          "velocity": 0.3779527559055118
        },
        {
          "duration": 0.04651162790698038,
          "durationTicks": 4,
          "midi": 47,
          "name": "B2",
          "ticks": 8548,
          "time": 99.3953488372093,
          "velocity": 0.30708661417322836
        },
        {
          "duration": 0.10465116279068809,
          "durationTicks": 9,
          "midi": 75,
          "name": "D#5",
          "ticks": 8550,
          "time": 99.4186046511628,
          "velocity": 0.16535433070866143
        },
        {
          "duration": 0.09302325581396076,
          "durationTicks": 8,
          "midi": 59,
          "name": "B3",
          "ticks": 8554,
          "time": 99.46511627906976,
          "velocity": 0.13385826771653545
        },
        {
          "duration": 0.10465116279068809,
          "durationTicks": 9,
          "midi": 40,
          "name": "E2",
          "ticks": 8556,
          "time": 99.48837209302326,
          "velocity": 0.36220472440944884
        },
        {
          "duration": 0.034883720930224626,
          "durationTicks": 3,
          "midi": 70,
          "name": "A#4",
          "ticks": 8562,
          "time": 99.55813953488372,
          "velocity": 0.15748031496062992
        },
        {
          "duration": 0.09302325581396076,
          "durationTicks": 8,
          "midi": 77,
          "name": "F5",
          "ticks": 8563,
          "time": 99.56976744186046,
          "velocity": 0.15748031496062992
        },
        {
          "duration": 0.03488372093023884,
          "durationTicks": 3,
          "midi": 78,
          "name": "F#5",
          "ticks": 8564,
          "time": 99.5813953488372,
          "velocity": 0.12598425196850394
        },
        {
          "duration": 0.034883720930224626,
          "durationTicks": 3,
          "midi": 40,
          "name": "E2",
          "ticks": 8566,
          "time": 99.6046511627907,
          "velocity": 0.2755905511811024
        },
        {
          "duration": 0.12790697674418539,
          "durationTicks": 11,
          "midi": 64,
          "name": "E4",
          "ticks": 8566,
          "time": 99.6046511627907,
          "velocity": 0.16535433070866143
        },
        {
          "duration": 0.023255813953497295,
          "durationTicks": 2,
          "midi": 41,
          "name": "F2",
          "ticks": 8569,
          "time": 99.63953488372093,
          "velocity": 0.23622047244094488
        },
        {
          "duration": 0.04651162790698038,
          "durationTicks": 4,
          "midi": 74,
          "name": "D5",
          "ticks": 8570,
          "time": 99.65116279069767,
          "velocity": 0.14960629921259844
        },
        {
          "duration": 0.03488372093023884,
          "durationTicks": 3,
          "midi": 78,
          "name": "F#5",
          "ticks": 8570,
          "time": 99.65116279069767,
          "velocity": 0.11811023622047244
        },
        {
          "duration": 0.03488372093023884,
          "durationTicks": 3,
          "midi": 81,
          "name": "A5",
          "ticks": 8570,
          "time": 99.65116279069767,
          "velocity": 0.1732283464566929
        },
        {
          "duration": 0.034883720930224626,
          "durationTicks": 3,
          "midi": 57,
          "name": "A3",
          "ticks": 8571,
          "time": 99.66279069767442,
          "velocity": 0.14960629921259844
        },
        {
          "duration": 0.04651162790698038,
          "durationTicks": 4,
          "midi": 67,
          "name": "G4",
          "ticks": 8574,
          "time": 99.69767441860465,
          "velocity": 0.15748031496062992
        },
        {
          "duration": 0.023255813953497295,
          "durationTicks": 2,
          "midi": 39,
          "name": "D#2",
          "ticks": 8575,
          "time": 99.70930232558139,
          "velocity": 0.3464566929133858
        },
        {
          "duration": 0.03488372093023884,
          "durationTicks": 3,
          "midi": 47,
          "name": "B2",
          "ticks": 8575,
          "time": 99.70930232558139,
          "velocity": 0.2755905511811024
        },
        {
          "duration": 0.04651162790696617,
          "durationTicks": 4,
          "midi": 56,
          "name": "G#3",
          "ticks": 8576,
          "time": 99.72093023255815,
          "velocity": 0.14960629921259844
        },
        {
          "duration": 0.034883720930224626,
          "durationTicks": 3,
          "midi": 40,
          "name": "E2",
          "ticks": 8577,
          "time": 99.73255813953489,
          "velocity": 0.3464566929133858
        },
        {
          "duration": 0.04651162790698038,
          "durationTicks": 4,
          "midi": 47,
          "name": "B2",
          "ticks": 8579,
          "time": 99.75581395348837,
          "velocity": 0.2992125984251969
        },
        {
          "duration": 0.16279069767442422,
          "durationTicks": 14,
          "midi": 40,
          "name": "E2",
          "ticks": 8581,
          "time": 99.77906976744185,
          "velocity": 0.3700787401574803
        },
        {
          "duration": 0.05813953488372192,
          "durationTicks": 5,
          "midi": 71,
          "name": "B4",
          "ticks": 8581,
          "time": 99.77906976744185,
          "velocity": 0.12598425196850394
        },
        {
          "duration": 0.24418604651162923,
          "durationTicks": 21,
          "midi": 64,
          "name": "E4",
          "ticks": 8582,
          "time": 99.79069767441861,
          "velocity": 0.11023622047244094
        },
        {
          "duration": 0.081395348837205,
          "durationTicks": 7,
          "midi": 78,
          "name": "F#5",
          "ticks": 8582,
          "time": 99.79069767441861,
          "velocity": 0.1732283464566929
        },
        {
          "duration": 0.05813953488372192,
          "durationTicks": 5,
          "midi": 56,
          "name": "G#3",
          "ticks": 8584,
          "time": 99.81395348837209,
          "velocity": 0.14960629921259844
        },
        {
          "duration": 0.081395348837205,
          "durationTicks": 7,
          "midi": 56,
          "name": "G#3",
          "ticks": 8590,
          "time": 99.88372093023256,
          "velocity": 0.14173228346456693
        },
        {
          "duration": 0.04651162790698038,
          "durationTicks": 4,
          "midi": 71,
          "name": "B4",
          "ticks": 8591,
          "time": 99.8953488372093,
          "velocity": 0.12598425196850394
        },
        {
          "duration": 0.2325581395348877,
          "durationTicks": 20,
          "midi": 78,
          "name": "F#5",
          "ticks": 8591,
          "time": 99.8953488372093,
          "velocity": 0.2204724409448819
        },
        {
          "duration": 0.13953488372092693,
          "durationTicks": 12,
          "midi": 40,
          "name": "E2",
          "ticks": 8596,
          "time": 99.95348837209302,
          "velocity": 0.33858267716535434
        },
        {
          "duration": 0.034883720930224626,
          "durationTicks": 3,
          "midi": 56,
          "name": "G#3",
          "ticks": 8598,
          "time": 99.97674418604652,
          "velocity": 0.11023622047244094
        },
        {
          "duration": 0.081395348837205,
          "durationTicks": 7,
          "midi": 59,
          "name": "B3",
          "ticks": 8603,
          "time": 100.03488372093024,
          "velocity": 0.16535433070866143
        },
        {
          "duration": 0.03488372093023884,
          "durationTicks": 3,
          "midi": 64,
          "name": "E4",
          "ticks": 8607,
          "time": 100.0813953488372,
          "velocity": 0.07086614173228346
        },
        {
          "duration": 0.023255813953497295,
          "durationTicks": 2,
          "midi": 41,
          "name": "F2",
          "ticks": 8608,
          "time": 100.09302325581395,
          "velocity": 0.28346456692913385
        },
        {
          "duration": 0.11627906976744384,
          "durationTicks": 10,
          "midi": 72,
          "name": "C5",
          "ticks": 8609,
          "time": 100.1046511627907,
          "velocity": 0.23622047244094488
        },
        {
          "duration": 0.19767441860464885,
          "durationTicks": 17,
          "midi": 64,
          "name": "E4",
          "ticks": 8611,
          "time": 100.12790697674419,
          "velocity": 0.2204724409448819
        },
        {
          "duration": 0.03488372093023884,
          "durationTicks": 3,
          "midi": 76,
          "name": "E5",
          "ticks": 8611,
          "time": 100.12790697674419,
          "velocity": 0.28346456692913385
        },
        {
          "duration": 0.023255813953497295,
          "durationTicks": 2,
          "midi": 51,
          "name": "D#3",
          "ticks": 8612,
          "time": 100.13953488372093,
          "velocity": 0.25196850393700787
        },
        {
          "duration": 0.03488372093023884,
          "durationTicks": 3,
          "midi": 59,
          "name": "B3",
          "ticks": 8612,
          "time": 100.13953488372093,
          "velocity": 0.2047244094488189
        },
        {
          "duration": 0.2674418604651265,
          "durationTicks": 23,
          "midi": 67,
          "name": "G4",
          "ticks": 8613,
          "time": 100.15116279069767,
          "velocity": 0.23622047244094488
        },
        {
          "duration": 0.13953488372092693,
          "durationTicks": 12,
          "midi": 52,
          "name": "E3",
          "ticks": 8614,
          "time": 100.16279069767442,
          "velocity": 0.28346456692913385
        },
        {
          "duration": 0.03488372093023884,
          "durationTicks": 3,
          "midi": 45,
          "name": "A2",
          "ticks": 8616,
          "time": 100.18604651162791,
          "velocity": 0.33858267716535434
        },
        {
          "duration": 0.04651162790696617,
          "durationTicks": 4,
          "midi": 45,
          "name": "A2",
          "ticks": 8620,
          "time": 100.23255813953489,
          "velocity": 0.3543307086614173
        },
        {
          "duration": 0.023255813953497295,
          "durationTicks": 2,
          "midi": 44,
          "name": "G#2",
          "ticks": 8624,
          "time": 100.27906976744185,
          "velocity": 0.30708661417322836
        },
        {
          "duration": 0.04651162790696617,
          "durationTicks": 4,
          "midi": 77,
          "name": "F5",
          "ticks": 8625,
          "time": 100.29069767441861,
          "velocity": 0.07874015748031496
        },
        {
          "duration": 0.034883720930224626,
          "durationTicks": 3,
          "midi": 45,
          "name": "A2",
          "ticks": 8626,
          "time": 100.30232558139535,
          "velocity": 0.33858267716535434
        },
        {
          "duration": 0.04651162790698038,
          "durationTicks": 4,
          "midi": 59,
          "name": "B3",
          "ticks": 8626,
          "time": 100.30232558139535,
          "velocity": 0.18110236220472442
        },
        {
          "duration": 0.023255813953483084,
          "durationTicks": 2,
          "midi": 35,
          "name": "B1",
          "ticks": 8630,
          "time": 100.34883720930233,
          "velocity": 0.2440944881889764
        },
        {
          "duration": 0.023255813953483084,
          "durationTicks": 2,
          "midi": 44,
          "name": "G#2",
          "ticks": 8632,
          "time": 100.37209302325581,
          "velocity": 0.33858267716535434
        },
        {
          "duration": 0.023255813953497295,
          "durationTicks": 2,
          "midi": 57,
          "name": "A3",
          "ticks": 8633,
          "time": 100.38372093023256,
          "velocity": 0.2440944881889764
        },
        {
          "duration": 0.023255813953483084,
          "durationTicks": 2,
          "midi": 46,
          "name": "A#2",
          "ticks": 8635,
          "time": 100.40697674418605,
          "velocity": 0.2677165354330709
        },
        {
          "duration": 0.034883720930224626,
          "durationTicks": 3,
          "midi": 53,
          "name": "F3",
          "ticks": 8635,
          "time": 100.40697674418605,
          "velocity": 0.15748031496062992
        },
        {
          "duration": 0.04651162790698038,
          "durationTicks": 4,
          "midi": 33,
          "name": "A1",
          "ticks": 8637,
          "time": 100.43023255813954,
          "velocity": 0.2283464566929134
        },
        {
          "duration": 0.06976744186046346,
          "durationTicks": 6,
          "midi": 46,
          "name": "A#2",
          "ticks": 8638,
          "time": 100.44186046511628,
          "velocity": 0.2755905511811024
        },
        {
          "duration": 0.04651162790696617,
          "durationTicks": 4,
          "midi": 34,
          "name": "A#1",
          "ticks": 8641,
          "time": 100.47674418604652,
          "velocity": 0.23622047244094488
        },
        {
          "duration": 0.12790697674418539,
          "durationTicks": 11,
          "midi": 67,
          "name": "G4",
          "ticks": 8642,
          "time": 100.48837209302326,
          "velocity": 0.14960629921259844
        },
        {
          "duration": 0.023255813953483084,
          "durationTicks": 2,
          "midi": 53,
          "name": "F3",
          "ticks": 8643,
          "time": 100.5,
          "velocity": 0.28346456692913385
        },
        {
          "duration": 0.023255813953497295,
          "durationTicks": 2,
          "midi": 46,
          "name": "A#2",
          "ticks": 8645,
          "time": 100.52325581395348,
          "velocity": 0.25196850393700787
        },
        {
          "duration": 0.034883720930224626,
          "durationTicks": 3,
          "midi": 34,
          "name": "A#1",
          "ticks": 8646,
          "time": 100.53488372093024,
          "velocity": 0.2047244094488189
        },
        {
          "duration": 0.05813953488372192,
          "durationTicks": 5,
          "midi": 70,
          "name": "A#4",
          "ticks": 8649,
          "time": 100.56976744186046,
          "velocity": 0.33858267716535434
        },
        {
          "duration": 0.03488372093023884,
          "durationTicks": 3,
          "midi": 58,
          "name": "A#3",
          "ticks": 8650,
          "time": 100.5813953488372,
          "velocity": 0.2125984251968504
        },
        {
          "duration": 0.04651162790698038,
          "durationTicks": 4,
          "midi": 64,
          "name": "E4",
          "ticks": 8650,
          "time": 100.5813953488372,
          "velocity": 0.2283464566929134
        },
        {
          "duration": 0.023255813953497295,
          "durationTicks": 2,
          "midi": 36,
          "name": "C2",
          "ticks": 8651,
          "time": 100.59302325581395,
          "velocity": 0.30708661417322836
        },
        {
          "duration": 0.023255813953497295,
          "durationTicks": 2,
          "midi": 54,
          "name": "F#3",
          "ticks": 8651,
          "time": 100.59302325581395,
          "velocity": 0.2755905511811024
        },
        {
          "duration": 0.255813953488385,
          "durationTicks": 22,
          "midi": 78,
          "name": "F#5",
          "ticks": 8651,
          "time": 100.59302325581395,
          "velocity": 0.1732283464566929
        },
        {
          "duration": 0.1046511627907023,
          "durationTicks": 9,
          "midi": 59,
          "name": "B3",
          "ticks": 8653,
          "time": 100.61627906976744,
          "velocity": 0.1889763779527559
        },
        {
          "duration": 0.081395348837205,
          "durationTicks": 7,
          "midi": 54,
          "name": "F#3",
          "ticks": 8654,
          "time": 100.62790697674419,
          "velocity": 0.2992125984251969
        },
        {
          "duration": 0.04651162790698038,
          "durationTicks": 4,
          "midi": 35,
          "name": "B1",
          "ticks": 8656,
          "time": 100.65116279069767,
          "velocity": 0.25984251968503935
        },
        {
          "duration": 0.04651162790698038,
          "durationTicks": 4,
          "midi": 35,
          "name": "B1",
          "ticks": 8661,
          "time": 100.70930232558139,
          "velocity": 0.2677165354330709
        },
        {
          "duration": 0.12790697674418539,
          "durationTicks": 11,
          "midi": 54,
          "name": "F#3",
          "ticks": 8664,
          "time": 100.74418604651163,
          "velocity": 0.2204724409448819
        },
        {
          "duration": 0.04651162790698038,
          "durationTicks": 4,
          "midi": 59,
          "name": "B3",
          "ticks": 8665,
          "time": 100.75581395348837,
          "velocity": 0.2047244094488189
        },
        {
          "duration": 0.023255813953497295,
          "durationTicks": 2,
          "midi": 35,
          "name": "B1",
          "ticks": 8666,
          "time": 100.76744186046511,
          "velocity": 0.2677165354330709
        },
        {
          "duration": 0.09302325581394655,
          "durationTicks": 8,
          "midi": 35,
          "name": "B1",
          "ticks": 8669,
          "time": 100.80232558139535,
          "velocity": 0.2677165354330709
        },
        {
          "duration": 0.06976744186046346,
          "durationTicks": 6,
          "midi": 59,
          "name": "B3",
          "ticks": 8670,
          "time": 100.81395348837209,
          "velocity": 0.1732283464566929
        },
        {
          "duration": 0.081395348837205,
          "durationTicks": 7,
          "midi": 71,
          "name": "B4",
          "ticks": 8670,
          "time": 100.81395348837209,
          "velocity": 0.2047244094488189
        },
        {
          "duration": 0.03488372093023884,
          "durationTicks": 3,
          "midi": 76,
          "name": "E5",
          "ticks": 8671,
          "time": 100.82558139534883,
          "velocity": 0.1889763779527559
        },
        {
          "duration": 0.03488372093023884,
          "durationTicks": 3,
          "midi": 54,
          "name": "F#3",
          "ticks": 8676,
          "time": 100.88372093023256,
          "velocity": 0.14173228346456693
        },
        {
          "duration": 0.04651162790696617,
          "durationTicks": 4,
          "midi": 35,
          "name": "B1",
          "ticks": 8678,
          "time": 100.90697674418605,
          "velocity": 0.2677165354330709
        },
        {
          "duration": 0.05813953488372192,
          "durationTicks": 5,
          "midi": 59,
          "name": "B3",
          "ticks": 8681,
          "time": 100.94186046511628,
          "velocity": 0.18110236220472442
        },
        {
          "duration": 0.023255813953497295,
          "durationTicks": 2,
          "midi": 35,
          "name": "B1",
          "ticks": 8683,
          "time": 100.96511627906976,
          "velocity": 0.2755905511811024
        },
        {
          "duration": 0.08139534883721922,
          "durationTicks": 7,
          "midi": 78,
          "name": "F#5",
          "ticks": 8683,
          "time": 100.96511627906976,
          "velocity": 0.14173228346456693
        },
        {
          "duration": 0.081395348837205,
          "durationTicks": 7,
          "midi": 63,
          "name": "D#4",
          "ticks": 8685,
          "time": 100.98837209302326,
          "velocity": 0.12598425196850394
        },
        {
          "duration": 0.023255813953497295,
          "durationTicks": 2,
          "midi": 35,
          "name": "B1",
          "ticks": 8687,
          "time": 101.01162790697674,
          "velocity": 0.2440944881889764
        },
        {
          "duration": 0.023255813953483084,
          "durationTicks": 2,
          "midi": 39,
          "name": "D#2",
          "ticks": 8690,
          "time": 101.04651162790698,
          "velocity": 0.23622047244094488
        },
        {
          "duration": 0.034883720930224626,
          "durationTicks": 3,
          "midi": 66,
          "name": "F#4",
          "ticks": 8690,
          "time": 101.04651162790698,
          "velocity": 0.11023622047244094
        },
        {
          "duration": 0.09302325581394655,
          "durationTicks": 8,
          "midi": 72,
          "name": "C5",
          "ticks": 8691,
          "time": 101.05813953488372,
          "velocity": 0.2440944881889764
        },
        {
          "duration": 0.023255813953483084,
          "durationTicks": 2,
          "midi": 38,
          "name": "D2",
          "ticks": 8695,
          "time": 101.1046511627907,
          "velocity": 0.2992125984251969
        },
        {
          "duration": 0.03488372093023884,
          "durationTicks": 3,
          "midi": 71,
          "name": "B4",
          "ticks": 8703,
          "time": 101.19767441860465,
          "velocity": 0.09448818897637795
        },
        {
          "duration": 0.13953488372092693,
          "durationTicks": 12,
          "midi": 78,
          "name": "F#5",
          "ticks": 8703,
          "time": 101.19767441860465,
          "velocity": 0.16535433070866143
        },
        {
          "duration": 0.05813953488372192,
          "durationTicks": 5,
          "midi": 59,
          "name": "B3",
          "ticks": 8704,
          "time": 101.20930232558139,
          "velocity": 0.2204724409448819
        },
        {
          "duration": 0.1046511627907023,
          "durationTicks": 9,
          "midi": 61,
          "name": "C#4",
          "ticks": 8712,
          "time": 101.30232558139535,
          "velocity": 0.12598425196850394
        },
        {
          "duration": 0.1860465116279073,
          "durationTicks": 16,
          "midi": 42,
          "name": "F#2",
          "ticks": 8715,
          "time": 101.33720930232558,
          "velocity": 0.36220472440944884
        },
        {
          "duration": 0.034883720930224626,
          "durationTicks": 3,
          "midi": 58,
          "name": "A#3",
          "ticks": 8721,
          "time": 101.40697674418605,
          "velocity": 0.18110236220472442
        },
        {
          "duration": 0.1046511627907023,
          "durationTicks": 9,
          "midi": 66,
          "name": "F#4",
          "ticks": 8723,
          "time": 101.43023255813954,
          "velocity": 0.14173228346456693
        },
        {
          "duration": 0.034883720930224626,
          "durationTicks": 3,
          "midi": 71,
          "name": "B4",
          "ticks": 8723,
          "time": 101.43023255813954,
          "velocity": 0.08661417322834646
        },
        {
          "duration": 0.05813953488372192,
          "durationTicks": 5,
          "midi": 99,
          "name": "D#7",
          "ticks": 8731,
          "time": 101.52325581395348,
          "velocity": 0.11023622047244094
        },
        {
          "duration": 0.023255813953483084,
          "durationTicks": 2,
          "midi": 40,
          "name": "E2",
          "ticks": 8732,
          "time": 101.53488372093024,
          "velocity": 0.30708661417322836
        },
        {
          "duration": 0.034883720930224626,
          "durationTicks": 3,
          "midi": 67,
          "name": "G4",
          "ticks": 8732,
          "time": 101.53488372093024,
          "velocity": 0.16535433070866143
        },
        {
          "duration": 0.04651162790696617,
          "durationTicks": 4,
          "midi": 71,
          "name": "B4",
          "ticks": 8733,
          "time": 101.54651162790698,
          "velocity": 0.18110236220472442
        },
        {
          "duration": 0.06976744186046346,
          "durationTicks": 6,
          "midi": 59,
          "name": "B3",
          "ticks": 8734,
          "time": 101.55813953488372,
          "velocity": 0.2283464566929134
        },
        {
          "duration": 0.09302325581396076,
          "durationTicks": 8,
          "midi": 35,
          "name": "B1",
          "ticks": 8736,
          "time": 101.5813953488372,
          "velocity": 0.29133858267716534
        },
        {
          "duration": 0.1046511627907023,
          "durationTicks": 9,
          "midi": 66,
          "name": "F#4",
          "ticks": 8742,
          "time": 101.65116279069767,
          "velocity": 0.12598425196850394
        },
        {
          "duration": 0.034883720930224626,
          "durationTicks": 3,
          "midi": 71,
          "name": "B4",
          "ticks": 8743,
          "time": 101.66279069767442,
          "velocity": 0.10236220472440945
        },
        {
          "duration": 0.09302325581394655,
          "durationTicks": 8,
          "midi": 78,
          "name": "F#5",
          "ticks": 8743,
          "time": 101.66279069767442,
          "velocity": 0.18110236220472442
        },
        {
          "duration": 0.081395348837205,
          "durationTicks": 7,
          "midi": 35,
          "name": "B1",
          "ticks": 8745,
          "time": 101.68604651162791,
          "velocity": 0.25984251968503935
        },
        {
          "duration": 0.05813953488372192,
          "durationTicks": 5,
          "midi": 54,
          "name": "F#3",
          "ticks": 8747,
          "time": 101.70930232558139,
          "velocity": 0.12598425196850394
        },
        {
          "duration": 0.04651162790698038,
          "durationTicks": 4,
          "midi": 59,
          "name": "B3",
          "ticks": 8747,
          "time": 101.70930232558139,
          "velocity": 0.14960629921259844
        },
        {
          "duration": 0.06976744186046346,
          "durationTicks": 6,
          "midi": 67,
          "name": "G4",
          "ticks": 8752,
          "time": 101.76744186046511,
          "velocity": 0.25196850393700787
        },
        {
          "duration": 0.08139534883721922,
          "durationTicks": 7,
          "midi": 35,
          "name": "B1",
          "ticks": 8753,
          "time": 101.77906976744185,
          "velocity": 0.25984251968503935
        },
        {
          "duration": 0.05813953488372192,
          "durationTicks": 5,
          "midi": 78,
          "name": "F#5",
          "ticks": 8762,
          "time": 101.88372093023256,
          "velocity": 0.10236220472440945
        },
        {
          "duration": 0.023255813953497295,
          "durationTicks": 2,
          "midi": 48,
          "name": "C3",
          "ticks": 8763,
          "time": 101.8953488372093,
          "velocity": 0.28346456692913385
        },
        {
          "duration": 0.13953488372094114,
          "durationTicks": 12,
          "midi": 63,
          "name": "D#4",
          "ticks": 8763,
          "time": 101.8953488372093,
          "velocity": 0.12598425196850394
        },
        {
          "duration": 0.04651162790698038,
          "durationTicks": 4,
          "midi": 71,
          "name": "B4",
          "ticks": 8763,
          "time": 101.8953488372093,
          "velocity": 0.07874015748031496
        },
        {
          "duration": 0.05813953488370771,
          "durationTicks": 5,
          "midi": 59,
          "name": "B3",
          "ticks": 8764,
          "time": 101.90697674418605,
          "velocity": 0.15748031496062992
        },
        {
          "duration": 0.03488372093023884,
          "durationTicks": 3,
          "midi": 47,
          "name": "B2",
          "ticks": 8769,
          "time": 101.96511627906976,
          "velocity": 0.2677165354330709
        },
        {
          "duration": 0.05813953488372192,
          "durationTicks": 5,
          "midi": 88,
          "name": "E6",
          "ticks": 8771,
          "time": 101.98837209302326,
          "velocity": 0.07874015748031496
        },
        {
          "duration": 0.081395348837205,
          "durationTicks": 7,
          "midi": 51,
          "name": "D#3",
          "ticks": 8773,
          "time": 102.01162790697674,
          "velocity": 0.28346456692913385
        },
        {
          "duration": 0.05813953488370771,
          "durationTicks": 5,
          "midi": 39,
          "name": "D#2",
          "ticks": 8775,
          "time": 102.03488372093024,
          "velocity": 0.3228346456692913
        },
        {
          "duration": 0.034883720930224626,
          "durationTicks": 3,
          "midi": 93,
          "name": "A6",
          "ticks": 8776,
          "time": 102.04651162790698,
          "velocity": 0.11023622047244094
        },
        {
          "duration": 0.081395348837205,
          "durationTicks": 7,
          "midi": 71,
          "name": "B4",
          "ticks": 8782,
          "time": 102.11627906976744,
          "velocity": 0.13385826771653545
        },
        {
          "duration": 0.32558139534883423,
          "durationTicks": 28,
          "midi": 78,
          "name": "F#5",
          "ticks": 8783,
          "time": 102.12790697674419,
          "velocity": 0.2204724409448819
        },
        {
          "duration": 0.08139534883721922,
          "durationTicks": 7,
          "midi": 57,
          "name": "A3",
          "ticks": 8785,
          "time": 102.15116279069767,
          "velocity": 0.23622047244094488
        },
        {
          "duration": 0.04651162790698038,
          "durationTicks": 4,
          "midi": 63,
          "name": "D#4",
          "ticks": 8785,
          "time": 102.15116279069767,
          "velocity": 0.08661417322834646
        },
        {
          "duration": 0.11627906976742963,
          "durationTicks": 10,
          "midi": 66,
          "name": "F#4",
          "ticks": 8791,
          "time": 102.22093023255815,
          "velocity": 0.1732283464566929
        },
        {
          "duration": 0.06976744186046346,
          "durationTicks": 6,
          "midi": 85,
          "name": "C#6",
          "ticks": 8792,
          "time": 102.23255813953489,
          "velocity": 0.09448818897637795
        },
        {
          "duration": 0.023255813953483084,
          "durationTicks": 2,
          "midi": 40,
          "name": "E2",
          "ticks": 8793,
          "time": 102.24418604651163,
          "velocity": 0.4251968503937008
        },
        {
          "duration": 0.034883720930224626,
          "durationTicks": 3,
          "midi": 54,
          "name": "F#3",
          "ticks": 8793,
          "time": 102.24418604651163,
          "velocity": 0.2125984251968504
        },
        {
          "duration": 0.06976744186046346,
          "durationTicks": 6,
          "midi": 61,
          "name": "C#4",
          "ticks": 8794,
          "time": 102.25581395348837,
          "velocity": 0.09448818897637795
        },
        {
          "duration": 0.19767441860466306,
          "durationTicks": 17,
          "midi": 42,
          "name": "F#2",
          "ticks": 8796,
          "time": 102.27906976744185,
          "velocity": 0.3543307086614173
        },
        {
          "duration": 0.034883720930224626,
          "durationTicks": 3,
          "midi": 61,
          "name": "C#4",
          "ticks": 8802,
          "time": 102.34883720930233,
          "velocity": 0.07874015748031496
        },
        {
          "duration": 0.10465116279068809,
          "durationTicks": 9,
          "midi": 71,
          "name": "B4",
          "ticks": 8802,
          "time": 102.34883720930233,
          "velocity": 0.11811023622047244
        },
        {
          "duration": 0.24418604651162923,
          "durationTicks": 21,
          "midi": 78,
          "name": "F#5",
          "ticks": 8812,
          "time": 102.46511627906976,
          "velocity": 0.2047244094488189
        },
        {
          "duration": 0.023255813953483084,
          "durationTicks": 2,
          "midi": 41,
          "name": "F2",
          "ticks": 8813,
          "time": 102.47674418604652,
          "velocity": 0.2992125984251969
        },
        {
          "duration": 0.13953488372092693,
          "durationTicks": 12,
          "midi": 54,
          "name": "F#3",
          "ticks": 8814,
          "time": 102.48837209302326,
          "velocity": 0.2755905511811024
        },
        {
          "duration": 0.09302325581396076,
          "durationTicks": 8,
          "midi": 35,
          "name": "B1",
          "ticks": 8816,
          "time": 102.51162790697674,
          "velocity": 0.30708661417322836
        },
        {
          "duration": 0.023255813953483084,
          "durationTicks": 2,
          "midi": 35,
          "name": "B1",
          "ticks": 8825,
          "time": 102.61627906976744,
          "velocity": 0.2755905511811024
        },
        {
          "duration": 0.05813953488372192,
          "durationTicks": 5,
          "midi": 54,
          "name": "F#3",
          "ticks": 8827,
          "time": 102.63953488372093,
          "velocity": 0.15748031496062992
        },
        {
          "duration": 0.06976744186047767,
          "durationTicks": 6,
          "midi": 35,
          "name": "B1",
          "ticks": 8828,
          "time": 102.65116279069767,
          "velocity": 0.2677165354330709
        },
        {
          "duration": 0.09302325581396076,
          "durationTicks": 8,
          "midi": 71,
          "name": "B4",
          "ticks": 8832,
          "time": 102.69767441860465,
          "velocity": 0.18110236220472442
        },
        {
          "duration": 0.06976744186046346,
          "durationTicks": 6,
          "midi": 99,
          "name": "D#7",
          "ticks": 8833,
          "time": 102.70930232558139,
          "velocity": 0.11023622047244094
        },
        {
          "duration": 0.05813953488372192,
          "durationTicks": 5,
          "midi": 35,
          "name": "B1",
          "ticks": 8836,
          "time": 102.74418604651163,
          "velocity": 0.2677165354330709
        },
        {
          "duration": 0.03488372093023884,
          "durationTicks": 3,
          "midi": 54,
          "name": "F#3",
          "ticks": 8837,
          "time": 102.75581395348837,
          "velocity": 0.11811023622047244
        },
        {
          "duration": 0.1046511627907023,
          "durationTicks": 9,
          "midi": 78,
          "name": "F#5",
          "ticks": 8842,
          "time": 102.81395348837209,
          "velocity": 0.11023622047244094
        },
        {
          "duration": 0.023255813953483084,
          "durationTicks": 2,
          "midi": 58,
          "name": "A#3",
          "ticks": 8845,
          "time": 102.84883720930233,
          "velocity": 0.2283464566929134
        },
        {
          "duration": 0.09302325581394655,
          "durationTicks": 8,
          "midi": 72,
          "name": "C5",
          "ticks": 8851,
          "time": 102.9186046511628,
          "velocity": 0.2440944881889764
        },
        {
          "duration": 0.081395348837205,
          "durationTicks": 7,
          "midi": 51,
          "name": "D#3",
          "ticks": 8853,
          "time": 102.94186046511628,
          "velocity": 0.28346456692913385
        },
        {
          "duration": 0.023255813953483084,
          "durationTicks": 2,
          "midi": 40,
          "name": "E2",
          "ticks": 8857,
          "time": 102.98837209302326,
          "velocity": 0.3228346456692913
        },
        {
          "duration": 0.03488372093023884,
          "durationTicks": 3,
          "midi": 72,
          "name": "C5",
          "ticks": 8860,
          "time": 103.02325581395348,
          "velocity": 0.13385826771653545
        },
        {
          "duration": 0.09302325581394655,
          "durationTicks": 8,
          "midi": 71,
          "name": "B4",
          "ticks": 8863,
          "time": 103.05813953488372,
          "velocity": 0.13385826771653545
        },
        {
          "duration": 0.081395348837205,
          "durationTicks": 7,
          "midi": 78,
          "name": "F#5",
          "ticks": 8864,
          "time": 103.06976744186046,
          "velocity": 0.15748031496062992
        },
        {
          "duration": 0.03488372093023884,
          "durationTicks": 3,
          "midi": 38,
          "name": "D2",
          "ticks": 8869,
          "time": 103.12790697674419,
          "velocity": 0.28346456692913385
        },
        {
          "duration": 0.023255813953483084,
          "durationTicks": 2,
          "midi": 40,
          "name": "E2",
          "ticks": 8872,
          "time": 103.16279069767442,
          "velocity": 0.4015748031496063
        },
        {
          "duration": 0.05813953488372192,
          "durationTicks": 5,
          "midi": 54,
          "name": "F#3",
          "ticks": 8872,
          "time": 103.16279069767442,
          "velocity": 0.2440944881889764
        },
        {
          "duration": 0.19767441860464885,
          "durationTicks": 17,
          "midi": 42,
          "name": "F#2",
          "ticks": 8875,
          "time": 103.19767441860465,
          "velocity": 0.3543307086614173
        },
        {
          "duration": 0.03488372093023884,
          "durationTicks": 3,
          "midi": 63,
          "name": "D#4",
          "ticks": 8876,
          "time": 103.20930232558139,
          "velocity": 0.11023622047244094
        },
        {
          "duration": 0.03488372093023884,
          "durationTicks": 3,
          "midi": 63,
          "name": "D#4",
          "ticks": 8881,
          "time": 103.26744186046511,
          "velocity": 0.09448818897637795
        },
        {
          "duration": 0.034883720930224626,
          "durationTicks": 3,
          "midi": 71,
          "name": "B4",
          "ticks": 8883,
          "time": 103.29069767441861,
          "velocity": 0.08661417322834646
        },
        {
          "duration": 0.06976744186046346,
          "durationTicks": 6,
          "midi": 78,
          "name": "F#5",
          "ticks": 8884,
          "time": 103.30232558139535,
          "velocity": 0.12598425196850394
        },
        {
          "duration": 0.04651162790696617,
          "durationTicks": 4,
          "midi": 61,
          "name": "C#4",
          "ticks": 8888,
          "time": 103.34883720930233,
          "velocity": 0.07086614173228346
        },
        {
          "duration": 0.023255813953483084,
          "durationTicks": 2,
          "midi": 43,
          "name": "G2",
          "ticks": 8893,
          "time": 103.40697674418605,
          "velocity": 0.3543307086614173
        },
        {
          "duration": 0.05813953488370771,
          "durationTicks": 5,
          "midi": 71,
          "name": "B4",
          "ticks": 8893,
          "time": 103.40697674418605,
          "velocity": 0.14173228346456693
        },
        {
          "duration": 0.17441860465116577,
          "durationTicks": 15,
          "midi": 66,
          "name": "F#4",
          "ticks": 8895,
          "time": 103.43023255813954,
          "velocity": 0.08661417322834646
        },
        {
          "duration": 0.05813953488372192,
          "durationTicks": 5,
          "midi": 35,
          "name": "B1",
          "ticks": 8896,
          "time": 103.44186046511628,
          "velocity": 0.2755905511811024
        },
        {
          "duration": 0.19767441860464885,
          "durationTicks": 17,
          "midi": 59,
          "name": "B3",
          "ticks": 8896,
          "time": 103.44186046511628,
          "velocity": 0.2204724409448819
        },
        {
          "duration": 0.03488372093023884,
          "durationTicks": 3,
          "midi": 54,
          "name": "F#3",
          "ticks": 8897,
          "time": 103.45348837209302,
          "velocity": 0.15748031496062992
        },
        {
          "duration": 0.023255813953483084,
          "durationTicks": 2,
          "midi": 47,
          "name": "B2",
          "ticks": 8901,
          "time": 103.5,
          "velocity": 0.2440944881889764
        },
        {
          "duration": 0.15116279069768268,
          "durationTicks": 13,
          "midi": 35,
          "name": "B1",
          "ticks": 8902,
          "time": 103.51162790697674,
          "velocity": 0.2677165354330709
        },
        {
          "duration": 0.10465116279068809,
          "durationTicks": 9,
          "midi": 78,
          "name": "F#5",
          "ticks": 8904,
          "time": 103.53488372093024,
          "velocity": 0.1732283464566929
        },
        {
          "duration": 0.081395348837205,
          "durationTicks": 7,
          "midi": 67,
          "name": "G4",
          "ticks": 8912,
          "time": 103.62790697674419,
          "velocity": 0.2283464566929134
        },
        {
          "duration": 0.034883720930224626,
          "durationTicks": 3,
          "midi": 54,
          "name": "F#3",
          "ticks": 8915,
          "time": 103.66279069767442,
          "velocity": 0.14173228346456693
        },
        {
          "duration": 0.06976744186046346,
          "durationTicks": 6,
          "midi": 35,
          "name": "B1",
          "ticks": 8916,
          "time": 103.67441860465117,
          "velocity": 0.25984251968503935
        },
        {
          "duration": 0.05813953488372192,
          "durationTicks": 5,
          "midi": 47,
          "name": "B2",
          "ticks": 8918,
          "time": 103.69767441860465,
          "velocity": 0.30708661417322836
        },
        {
          "duration": 0.081395348837205,
          "durationTicks": 7,
          "midi": 78,
          "name": "F#5",
          "ticks": 8923,
          "time": 103.75581395348837,
          "velocity": 0.13385826771653545
        },
        {
          "duration": 0.04651162790698038,
          "durationTicks": 4,
          "midi": 71,
          "name": "B4",
          "ticks": 8924,
          "time": 103.76744186046511,
          "velocity": 0.07086614173228346
        },
        {
          "duration": 0.023255813953483084,
          "durationTicks": 2,
          "midi": 58,
          "name": "A#3",
          "ticks": 8926,
          "time": 103.79069767441861,
          "velocity": 0.2283464566929134
        },
        {
          "duration": 0.034883720930224626,
          "durationTicks": 3,
          "midi": 81,
          "name": "A5",
          "ticks": 8931,
          "time": 103.84883720930233,
          "velocity": 0.10236220472440945
        },
        {
          "duration": 0.023255813953483084,
          "durationTicks": 2,
          "midi": 37,
          "name": "C#2",
          "ticks": 8933,
          "time": 103.87209302325581,
          "velocity": 0.3779527559055118
        },
        {
          "duration": 0.03488372093023884,
          "durationTicks": 3,
          "midi": 74,
          "name": "D5",
          "ticks": 8933,
          "time": 103.87209302325581,
          "velocity": 0.18110236220472442
        },
        {
          "duration": 0.034883720930224626,
          "durationTicks": 3,
          "midi": 93,
          "name": "A6",
          "ticks": 8936,
          "time": 103.90697674418605,
          "velocity": 0.10236220472440945
        },
        {
          "duration": 0.081395348837205,
          "durationTicks": 7,
          "midi": 71,
          "name": "B4",
          "ticks": 8942,
          "time": 103.97674418604652,
          "velocity": 0.11023622047244094
        },
        {
          "duration": 0.32558139534883423,
          "durationTicks": 28,
          "midi": 78,
          "name": "F#5",
          "ticks": 8943,
          "time": 103.98837209302326,
          "velocity": 0.2204724409448819
        },
        {
          "duration": 0.03488372093023884,
          "durationTicks": 3,
          "midi": 59,
          "name": "B3",
          "ticks": 8944,
          "time": 104,
          "velocity": 0.2283464566929134
        },
        {
          "duration": 0.05813953488372192,
          "durationTicks": 5,
          "midi": 63,
          "name": "D#4",
          "ticks": 8945,
          "time": 104.01162790697674,
          "velocity": 0.07874015748031496
        },
        {
          "duration": 0.04651162790698038,
          "durationTicks": 4,
          "midi": 54,
          "name": "F#3",
          "ticks": 8950,
          "time": 104.06976744186046,
          "velocity": 0.31496062992125984
        },
        {
          "duration": 0.03488372093023884,
          "durationTicks": 3,
          "midi": 40,
          "name": "E2",
          "ticks": 8951,
          "time": 104.0813953488372,
          "velocity": 0.4330708661417323
        },
        {
          "duration": 0.08139534883721922,
          "durationTicks": 7,
          "midi": 85,
          "name": "C#6",
          "ticks": 8951,
          "time": 104.0813953488372,
          "velocity": 0.11811023622047244
        },
        {
          "duration": 0.24418604651162923,
          "durationTicks": 21,
          "midi": 42,
          "name": "F#2",
          "ticks": 8955,
          "time": 104.12790697674419,
          "velocity": 0.3779527559055118
        },
        {
          "duration": 0.06976744186046346,
          "durationTicks": 6,
          "midi": 61,
          "name": "C#4",
          "ticks": 8956,
          "time": 104.13953488372093,
          "velocity": 0.12598425196850394
        },
        {
          "duration": 0.023255813953497295,
          "durationTicks": 2,
          "midi": 64,
          "name": "E4",
          "ticks": 8962,
          "time": 104.20930232558139,
          "velocity": 0.23622047244094488
        },
        {
          "duration": 0.05813953488372192,
          "durationTicks": 5,
          "midi": 59,
          "name": "B3",
          "ticks": 8966,
          "time": 104.25581395348837,
          "velocity": 0.1732283464566929
        },
        {
          "duration": 0.03488372093023884,
          "durationTicks": 3,
          "midi": 99,
          "name": "D#7",
          "ticks": 8972,
          "time": 104.32558139534883,
          "velocity": 0.08661417322834646
        },
        {
          "duration": 0.2325581395348877,
          "durationTicks": 20,
          "midi": 78,
          "name": "F#5",
          "ticks": 8973,
          "time": 104.33720930232558,
          "velocity": 0.1968503937007874
        },
        {
          "duration": 0.10465116279068809,
          "durationTicks": 9,
          "midi": 59,
          "name": "B3",
          "ticks": 8974,
          "time": 104.34883720930233,
          "velocity": 0.2283464566929134
        },
        {
          "duration": 0.32558139534883423,
          "durationTicks": 28,
          "midi": 66,
          "name": "F#4",
          "ticks": 8975,
          "time": 104.36046511627907,
          "velocity": 0.15748031496062992
        },
        {
          "duration": 0.04651162790698038,
          "durationTicks": 4,
          "midi": 54,
          "name": "F#3",
          "ticks": 8977,
          "time": 104.38372093023256,
          "velocity": 0.14960629921259844
        },
        {
          "duration": 0.023255813953483084,
          "durationTicks": 2,
          "midi": 35,
          "name": "B1",
          "ticks": 8980,
          "time": 104.4186046511628,
          "velocity": 0.2677165354330709
        },
        {
          "duration": 0.04651162790698038,
          "durationTicks": 4,
          "midi": 71,
          "name": "B4",
          "ticks": 8983,
          "time": 104.45348837209302,
          "velocity": 0.09448818897637795
        },
        {
          "duration": 0.081395348837205,
          "durationTicks": 7,
          "midi": 35,
          "name": "B1",
          "ticks": 8988,
          "time": 104.51162790697674,
          "velocity": 0.2677165354330709
        },
        {
          "duration": 0.05813953488372192,
          "durationTicks": 5,
          "midi": 54,
          "name": "F#3",
          "ticks": 8988,
          "time": 104.51162790697674,
          "velocity": 0.14960629921259844
        },
        {
          "duration": 0.081395348837205,
          "durationTicks": 7,
          "midi": 71,
          "name": "B4",
          "ticks": 8992,
          "time": 104.55813953488372,
          "velocity": 0.18110236220472442
        },
        {
          "duration": 0.081395348837205,
          "durationTicks": 7,
          "midi": 99,
          "name": "D#7",
          "ticks": 8992,
          "time": 104.55813953488372,
          "velocity": 0.10236220472440945
        },
        {
          "duration": 0.03488372093023884,
          "durationTicks": 3,
          "midi": 59,
          "name": "B3",
          "ticks": 8995,
          "time": 104.59302325581395,
          "velocity": 0.12598425196850394
        },
        {
          "duration": 0.081395348837205,
          "durationTicks": 7,
          "midi": 35,
          "name": "B1",
          "ticks": 8996,
          "time": 104.6046511627907,
          "velocity": 0.25984251968503935
        },
        {
          "duration": 0.034883720930224626,
          "durationTicks": 3,
          "midi": 54,
          "name": "F#3",
          "ticks": 9001,
          "time": 104.66279069767442,
          "velocity": 0.16535433070866143
        },
        {
          "duration": 0.05813953488372192,
          "durationTicks": 5,
          "midi": 71,
          "name": "B4",
          "ticks": 9002,
          "time": 104.67441860465117,
          "velocity": 0.15748031496062992
        },
        {
          "duration": 0.11627906976744384,
          "durationTicks": 10,
          "midi": 78,
          "name": "F#5",
          "ticks": 9003,
          "time": 104.68604651162791,
          "velocity": 0.11023622047244094
        },
        {
          "duration": 0.023255813953497295,
          "durationTicks": 2,
          "midi": 44,
          "name": "G#2",
          "ticks": 9004,
          "time": 104.69767441860465,
          "velocity": 0.28346456692913385
        },
        {
          "duration": 0.04651162790698038,
          "durationTicks": 4,
          "midi": 52,
          "name": "E3",
          "ticks": 9005,
          "time": 104.70930232558139,
          "velocity": 0.2204724409448819
        },
        {
          "duration": 0.034883720930224626,
          "durationTicks": 3,
          "midi": 59,
          "name": "B3",
          "ticks": 9007,
          "time": 104.73255813953489,
          "velocity": 0.2047244094488189
        },
        {
          "duration": 0.081395348837205,
          "durationTicks": 7,
          "midi": 66,
          "name": "F#4",
          "ticks": 9007,
          "time": 104.73255813953489,
          "velocity": 0.08661417322834646
        },
        {
          "duration": 0.04651162790698038,
          "durationTicks": 4,
          "midi": 57,
          "name": "A3",
          "ticks": 9011,
          "time": 104.77906976744185,
          "velocity": 0.1968503937007874
        },
        {
          "duration": 0.034883720930224626,
          "durationTicks": 3,
          "midi": 63,
          "name": "D#4",
          "ticks": 9012,
          "time": 104.79069767441861,
          "velocity": 0.12598425196850394
        },
        {
          "duration": 0.081395348837205,
          "durationTicks": 7,
          "midi": 72,
          "name": "C5",
          "ticks": 9012,
          "time": 104.79069767441861,
          "velocity": 0.2283464566929134
        },
        {
          "duration": 0.09302325581396076,
          "durationTicks": 8,
          "midi": 51,
          "name": "D#3",
          "ticks": 9014,
          "time": 104.81395348837209,
          "velocity": 0.25984251968503935
        },
        {
          "duration": 0.023255813953483084,
          "durationTicks": 2,
          "midi": 40,
          "name": "E2",
          "ticks": 9017,
          "time": 104.84883720930233,
          "velocity": 0.33070866141732286
        },
        {
          "duration": 0.03488372093023884,
          "durationTicks": 3,
          "midi": 39,
          "name": "D#2",
          "ticks": 9019,
          "time": 104.87209302325581,
          "velocity": 0.30708661417322836
        },
        {
          "duration": 0.03488372093023884,
          "durationTicks": 3,
          "midi": 71,
          "name": "B4",
          "ticks": 9019,
          "time": 104.87209302325581,
          "velocity": 0.15748031496062992
        },
        {
          "duration": 0.023255813953483084,
          "durationTicks": 2,
          "midi": 38,
          "name": "D2",
          "ticks": 9022,
          "time": 104.90697674418605,
          "velocity": 0.2677165354330709
        },
        {
          "duration": 0.034883720930224626,
          "durationTicks": 3,
          "midi": 72,
          "name": "C5",
          "ticks": 9022,
          "time": 104.90697674418605,
          "velocity": 0.11811023622047244
        },
        {
          "duration": 0.081395348837205,
          "durationTicks": 7,
          "midi": 71,
          "name": "B4",
          "ticks": 9025,
          "time": 104.94186046511628,
          "velocity": 0.11811023622047244
        },
        {
          "duration": 0.15116279069766847,
          "durationTicks": 13,
          "midi": 78,
          "name": "F#5",
          "ticks": 9025,
          "time": 104.94186046511628,
          "velocity": 0.16535433070866143
        },
        {
          "duration": 0.09302325581396076,
          "durationTicks": 8,
          "midi": 63,
          "name": "D#4",
          "ticks": 9027,
          "time": 104.96511627906976,
          "velocity": 0.18110236220472442
        },
        {
          "duration": 0.03488372093023884,
          "durationTicks": 3,
          "midi": 69,
          "name": "A4",
          "ticks": 9032,
          "time": 105.02325581395348,
          "velocity": 0.1968503937007874
        },
        {
          "duration": 0.023255813953483084,
          "durationTicks": 2,
          "midi": 40,
          "name": "E2",
          "ticks": 9034,
          "time": 105.04651162790698,
          "velocity": 0.41732283464566927
        },
        {
          "duration": 0.04651162790698038,
          "durationTicks": 4,
          "midi": 57,
          "name": "A3",
          "ticks": 9035,
          "time": 105.05813953488372,
          "velocity": 0.14960629921259844
        },
        {
          "duration": 0.17441860465116577,
          "durationTicks": 15,
          "midi": 42,
          "name": "F#2",
          "ticks": 9037,
          "time": 105.0813953488372,
          "velocity": 0.3543307086614173
        },
        {
          "duration": 0.05813953488372192,
          "durationTicks": 5,
          "midi": 61,
          "name": "C#4",
          "ticks": 9037,
          "time": 105.0813953488372,
          "velocity": 0.11811023622047244
        },
        {
          "duration": 0.03488372093023884,
          "durationTicks": 3,
          "midi": 93,
          "name": "A6",
          "ticks": 9037,
          "time": 105.0813953488372,
          "velocity": 0.09448818897637795
        },
        {
          "duration": 0.034883720930224626,
          "durationTicks": 3,
          "midi": 71,
          "name": "B4",
          "ticks": 9044,
          "time": 105.16279069767442,
          "velocity": 0.10236220472440945
        },
        {
          "duration": 0.06976744186046346,
          "durationTicks": 6,
          "midi": 78,
          "name": "F#5",
          "ticks": 9045,
          "time": 105.17441860465117,
          "velocity": 0.09448818897637795
        },
        {
          "duration": 0.023255813953483084,
          "durationTicks": 2,
          "midi": 41,
          "name": "F2",
          "ticks": 9052,
          "time": 105.25581395348837,
          "velocity": 0.2992125984251969
        },
        {
          "duration": 0.03488372093023884,
          "durationTicks": 3,
          "midi": 67,
          "name": "G4",
          "ticks": 9053,
          "time": 105.26744186046511,
          "velocity": 0.1968503937007874
        },
        {
          "duration": 0.04651162790698038,
          "durationTicks": 4,
          "midi": 71,
          "name": "B4",
          "ticks": 9053,
          "time": 105.26744186046511,
          "velocity": 0.2125984251968504
        },
        {
          "duration": 0.03488372093023884,
          "durationTicks": 3,
          "midi": 99,
          "name": "D#7",
          "ticks": 9053,
          "time": 105.26744186046511,
          "velocity": 0.08661417322834646
        },
        {
          "duration": 0.023255813953497295,
          "durationTicks": 2,
          "midi": 53,
          "name": "F3",
          "ticks": 9054,
          "time": 105.27906976744185,
          "velocity": 0.25196850393700787
        },
        {
          "duration": 0.06976744186046346,
          "durationTicks": 6,
          "midi": 54,
          "name": "F#3",
          "ticks": 9056,
          "time": 105.30232558139535,
          "velocity": 0.2440944881889764
        },
        {
          "duration": 0.2093023255813904,
          "durationTicks": 18,
          "midi": 47,
          "name": "B2",
          "ticks": 9057,
          "time": 105.31395348837209,
          "velocity": 0.3228346456692913
        },
        {
          "duration": 0.2906976744186096,
          "durationTicks": 25,
          "midi": 35,
          "name": "B1",
          "ticks": 9059,
          "time": 105.33720930232558,
          "velocity": 0.2677165354330709
        },
        {
          "duration": 0.04651162790698038,
          "durationTicks": 4,
          "midi": 71,
          "name": "B4",
          "ticks": 9063,
          "time": 105.38372093023256,
          "velocity": 0.09448818897637795
        },
        {
          "duration": 0.11627906976742963,
          "durationTicks": 10,
          "midi": 78,
          "name": "F#5",
          "ticks": 9065,
          "time": 105.40697674418605,
          "velocity": 0.16535433070866143
        },
        {
          "duration": 0.09302325581394655,
          "durationTicks": 8,
          "midi": 67,
          "name": "G4",
          "ticks": 9073,
          "time": 105.5,
          "velocity": 0.1968503937007874
        },
        {
          "duration": 0.023255813953497295,
          "durationTicks": 2,
          "midi": 46,
          "name": "A#2",
          "ticks": 9075,
          "time": 105.52325581395348,
          "velocity": 0.25984251968503935
        },
        {
          "duration": 0.1046511627907023,
          "durationTicks": 9,
          "midi": 57,
          "name": "A3",
          "ticks": 9075,
          "time": 105.52325581395348,
          "velocity": 0.1889763779527559
        },
        {
          "duration": 0.023255813953483084,
          "durationTicks": 2,
          "midi": 48,
          "name": "C3",
          "ticks": 9083,
          "time": 105.61627906976744,
          "velocity": 0.31496062992125984
        },
        {
          "duration": 0.081395348837205,
          "durationTicks": 7,
          "midi": 71,
          "name": "B4",
          "ticks": 9084,
          "time": 105.62790697674419,
          "velocity": 0.07086614173228346
        },
        {
          "duration": 0.09302325581396076,
          "durationTicks": 8,
          "midi": 78,
          "name": "F#5",
          "ticks": 9084,
          "time": 105.62790697674419,
          "velocity": 0.12598425196850394
        },
        {
          "duration": 0.034883720930224626,
          "durationTicks": 3,
          "midi": 57,
          "name": "A3",
          "ticks": 9088,
          "time": 105.67441860465117,
          "velocity": 0.14173228346456693
        },
        {
          "duration": 0.034883720930224626,
          "durationTicks": 3,
          "midi": 72,
          "name": "C5",
          "ticks": 9092,
          "time": 105.72093023255815,
          "velocity": 0.2047244094488189
        },
        {
          "duration": 0.06976744186046346,
          "durationTicks": 6,
          "midi": 51,
          "name": "D#3",
          "ticks": 9095,
          "time": 105.75581395348837,
          "velocity": 0.2677165354330709
        },
        {
          "duration": 0.03488372093023884,
          "durationTicks": 3,
          "midi": 58,
          "name": "A#3",
          "ticks": 9097,
          "time": 105.77906976744185,
          "velocity": 0.10236220472440945
        },
        {
          "duration": 0.04651162790696617,
          "durationTicks": 4,
          "midi": 39,
          "name": "D#2",
          "ticks": 9098,
          "time": 105.79069767441861,
          "velocity": 0.3228346456692913
        },
        {
          "duration": 0.034883720930224626,
          "durationTicks": 3,
          "midi": 69,
          "name": "A4",
          "ticks": 9099,
          "time": 105.80232558139535,
          "velocity": 0.07086614173228346
        },
        {
          "duration": 0.11627906976744384,
          "durationTicks": 10,
          "midi": 57,
          "name": "A3",
          "ticks": 9102,
          "time": 105.83720930232558,
          "velocity": 0.25196850393700787
        },
        {
          "duration": 0.034883720930224626,
          "durationTicks": 3,
          "midi": 36,
          "name": "C2",
          "ticks": 9104,
          "time": 105.86046511627907,
          "velocity": 0.14960629921259844
        },
        {
          "duration": 0.06976744186046346,
          "durationTicks": 6,
          "midi": 71,
          "name": "B4",
          "ticks": 9104,
          "time": 105.86046511627907,
          "velocity": 0.11811023622047244
        },
        {
          "duration": 0.081395348837205,
          "durationTicks": 7,
          "midi": 78,
          "name": "F#5",
          "ticks": 9106,
          "time": 105.88372093023256,
          "velocity": 0.15748031496062992
        },
        {
          "duration": 0.03488372093023884,
          "durationTicks": 3,
          "midi": 34,
          "name": "A#1",
          "ticks": 9107,
          "time": 105.8953488372093,
          "velocity": 0.07086614173228346
        },
        {
          "duration": 0.16279069767442422,
          "durationTicks": 14,
          "midi": 66,
          "name": "F#4",
          "ticks": 9107,
          "time": 105.8953488372093,
          "velocity": 0.18110236220472442
        },
        {
          "duration": 0.023255813953497295,
          "durationTicks": 2,
          "midi": 61,
          "name": "C#4",
          "ticks": 9112,
          "time": 105.95348837209302,
          "velocity": 0.29133858267716534
        },
        {
          "duration": 0.03488372093023884,
          "durationTicks": 3,
          "midi": 40,
          "name": "E2",
          "ticks": 9113,
          "time": 105.96511627906976,
          "velocity": 0.3858267716535433
        },
        {
          "duration": 0.023255813953497295,
          "durationTicks": 2,
          "midi": 54,
          "name": "F#3",
          "ticks": 9113,
          "time": 105.96511627906976,
          "velocity": 0.29133858267716534
        },
        {
          "duration": 0.06976744186047767,
          "durationTicks": 6,
          "midi": 85,
          "name": "C#6",
          "ticks": 9113,
          "time": 105.96511627906976,
          "velocity": 0.07874015748031496
        },
        {
          "duration": 0.23255813953487348,
          "durationTicks": 20,
          "midi": 78,
          "name": "F#5",
          "ticks": 9114,
          "time": 105.97674418604652,
          "velocity": 0.2283464566929134
        },
        {
          "duration": 0.11627906976744384,
          "durationTicks": 10,
          "midi": 54,
          "name": "F#3",
          "ticks": 9116,
          "time": 106,
          "velocity": 0.25196850393700787
        },
        {
          "duration": 0.1860465116279073,
          "durationTicks": 16,
          "midi": 42,
          "name": "F#2",
          "ticks": 9117,
          "time": 106.01162790697674,
          "velocity": 0.33858267716535434
        },
        {
          "duration": 0.08139534883721922,
          "durationTicks": 7,
          "midi": 71,
          "name": "B4",
          "ticks": 9124,
          "time": 106.09302325581395,
          "velocity": 0.09448818897637795
        },
        {
          "duration": 0.05813953488372192,
          "durationTicks": 5,
          "midi": 59,
          "name": "B3",
          "ticks": 9125,
          "time": 106.1046511627907,
          "velocity": 0.2204724409448819
        },
        {
          "duration": 0.25581395348837077,
          "durationTicks": 22,
          "midi": 47,
          "name": "B2",
          "ticks": 9133,
          "time": 106.19767441860465,
          "velocity": 0.33858267716535434
        },
        {
          "duration": 0.04651162790698038,
          "durationTicks": 4,
          "midi": 67,
          "name": "G4",
          "ticks": 9133,
          "time": 106.19767441860465,
          "velocity": 0.25196850393700787
        },
        {
          "duration": 0.023255813953483084,
          "durationTicks": 2,
          "midi": 35,
          "name": "B1",
          "ticks": 9136,
          "time": 106.23255813953489,
          "velocity": 0.29133858267716534
        },
        {
          "duration": 0.2093023255813904,
          "durationTicks": 18,
          "midi": 78,
          "name": "F#5",
          "ticks": 9136,
          "time": 106.23255813953489,
          "velocity": 0.15748031496062992
        },
        {
          "duration": 0.1860465116279073,
          "durationTicks": 16,
          "midi": 35,
          "name": "B1",
          "ticks": 9139,
          "time": 106.26744186046511,
          "velocity": 0.2677165354330709
        },
        {
          "duration": 0.03488372093023884,
          "durationTicks": 3,
          "midi": 66,
          "name": "F#4",
          "ticks": 9139,
          "time": 106.26744186046511,
          "velocity": 0.07874015748031496
        },
        {
          "duration": 0.06976744186046346,
          "durationTicks": 6,
          "midi": 76,
          "name": "E5",
          "ticks": 9152,
          "time": 106.4186046511628,
          "velocity": 0.10236220472440945
        },
        {
          "duration": 0.09302325581394655,
          "durationTicks": 8,
          "midi": 64,
          "name": "E4",
          "ticks": 9153,
          "time": 106.43023255813954,
          "velocity": 0.1889763779527559
        },
        {
          "duration": 0.05813953488372192,
          "durationTicks": 5,
          "midi": 35,
          "name": "B1",
          "ticks": 9158,
          "time": 106.48837209302326,
          "velocity": 0.25196850393700787
        },
        {
          "duration": 0.05813953488372192,
          "durationTicks": 5,
          "midi": 47,
          "name": "B2",
          "ticks": 9158,
          "time": 106.48837209302326,
          "velocity": 0.2755905511811024
        },
        {
          "duration": 0.05813953488372192,
          "durationTicks": 5,
          "midi": 57,
          "name": "A3",
          "ticks": 9158,
          "time": 106.48837209302326,
          "velocity": 0.18110236220472442
        },
        {
          "duration": 0.023255813953483084,
          "durationTicks": 2,
          "midi": 53,
          "name": "F3",
          "ticks": 9165,
          "time": 106.56976744186046,
          "velocity": 0.25196850393700787
        },
        {
          "duration": 0.023255813953483084,
          "durationTicks": 2,
          "midi": 58,
          "name": "A#3",
          "ticks": 9165,
          "time": 106.56976744186046,
          "velocity": 0.2283464566929134
        },
        {
          "duration": 0.05813953488372192,
          "durationTicks": 5,
          "midi": 71,
          "name": "B4",
          "ticks": 9165,
          "time": 106.56976744186046,
          "velocity": 0.10236220472440945
        },
        {
          "duration": 0.3139534883720927,
          "durationTicks": 27,
          "midi": 78,
          "name": "F#5",
          "ticks": 9166,
          "time": 106.5813953488372,
          "velocity": 0.23622047244094488
        },
        {
          "duration": 0.04651162790696617,
          "durationTicks": 4,
          "midi": 85,
          "name": "C#6",
          "ticks": 9168,
          "time": 106.6046511627907,
          "velocity": 0.11811023622047244
        },
        {
          "duration": 0.06976744186046346,
          "durationTicks": 6,
          "midi": 51,
          "name": "D#3",
          "ticks": 9173,
          "time": 106.66279069767442,
          "velocity": 0.2677165354330709
        },
        {
          "duration": 0.023255813953483084,
          "durationTicks": 2,
          "midi": 36,
          "name": "C2",
          "ticks": 9174,
          "time": 106.67441860465117,
          "velocity": 0.3228346456692913
        },
        {
          "duration": 0.06976744186046346,
          "durationTicks": 6,
          "midi": 85,
          "name": "C#6",
          "ticks": 9174,
          "time": 106.67441860465117,
          "velocity": 0.10236220472440945
        },
        {
          "duration": 0.05813953488372192,
          "durationTicks": 5,
          "midi": 66,
          "name": "F#4",
          "ticks": 9175,
          "time": 106.68604651162791,
          "velocity": 0.09448818897637795
        },
        {
          "duration": 0.06976744186046346,
          "durationTicks": 6,
          "midi": 66,
          "name": "F#4",
          "ticks": 9185,
          "time": 106.80232558139535,
          "velocity": 0.11811023622047244
        },
        {
          "duration": 0.034883720930224626,
          "durationTicks": 3,
          "midi": 71,
          "name": "B4",
          "ticks": 9185,
          "time": 106.80232558139535,
          "velocity": 0.09448818897637795
        },
        {
          "duration": 0.03488372093023884,
          "durationTicks": 3,
          "midi": 70,
          "name": "A#4",
          "ticks": 9192,
          "time": 106.88372093023256,
          "velocity": 0.1732283464566929
        },
        {
          "duration": 0.09302325581396076,
          "durationTicks": 8,
          "midi": 75,
          "name": "D#5",
          "ticks": 9193,
          "time": 106.8953488372093,
          "velocity": 0.13385826771653545
        },
        {
          "duration": 0.023255813953483084,
          "durationTicks": 2,
          "midi": 41,
          "name": "F2",
          "ticks": 9194,
          "time": 106.90697674418605,
          "velocity": 0.4409448818897638
        },
        {
          "duration": 0.034883720930224626,
          "durationTicks": 3,
          "midi": 54,
          "name": "F#3",
          "ticks": 9194,
          "time": 106.90697674418605,
          "velocity": 0.2204724409448819
        },
        {
          "duration": 0.05813953488372192,
          "durationTicks": 5,
          "midi": 63,
          "name": "D#4",
          "ticks": 9195,
          "time": 106.9186046511628,
          "velocity": 0.10236220472440945
        },
        {
          "duration": 0.1860465116279073,
          "durationTicks": 16,
          "midi": 42,
          "name": "F#2",
          "ticks": 9196,
          "time": 106.93023255813954,
          "velocity": 0.3464566929133858
        },
        {
          "duration": 0.06976744186046346,
          "durationTicks": 6,
          "midi": 59,
          "name": "B3",
          "ticks": 9203,
          "time": 107.01162790697674,
          "velocity": 0.1968503937007874
        },
        {
          "duration": 0.06976744186046346,
          "durationTicks": 6,
          "midi": 78,
          "name": "F#5",
          "ticks": 9205,
          "time": 107.03488372093024,
          "velocity": 0.11811023622047244
        },
        {
          "duration": 0.034883720930224626,
          "durationTicks": 3,
          "midi": 64,
          "name": "E4",
          "ticks": 9211,
          "time": 107.1046511627907,
          "velocity": 0.11023622047244094
        },
        {
          "duration": 0.023255813953483084,
          "durationTicks": 2,
          "midi": 42,
          "name": "F#2",
          "ticks": 9213,
          "time": 107.12790697674419,
          "velocity": 0.25984251968503935
        },
        {
          "duration": 0.034883720930224626,
          "durationTicks": 3,
          "midi": 35,
          "name": "B1",
          "ticks": 9216,
          "time": 107.16279069767442,
          "velocity": 0.2677165354330709
        },
        {
          "duration": 0.16279069767442422,
          "durationTicks": 14,
          "midi": 66,
          "name": "F#4",
          "ticks": 9219,
          "time": 107.19767441860465,
          "velocity": 0.09448818897637795
        },
        {
          "duration": 0.15116279069768268,
          "durationTicks": 13,
          "midi": 35,
          "name": "B1",
          "ticks": 9220,
          "time": 107.20930232558139,
          "velocity": 0.25984251968503935
        },
        {
          "duration": 0.034883720930224626,
          "durationTicks": 3,
          "midi": 54,
          "name": "F#3",
          "ticks": 9222,
          "time": 107.23255813953489,
          "velocity": 0.1968503937007874
        },
        {
          "duration": 0.05813953488372192,
          "durationTicks": 5,
          "midi": 71,
          "name": "B4",
          "ticks": 9223,
          "time": 107.24418604651163,
          "velocity": 0.11811023622047244
        },
        {
          "duration": 0.30232558139535115,
          "durationTicks": 26,
          "midi": 78,
          "name": "F#5",
          "ticks": 9224,
          "time": 107.25581395348837,
          "velocity": 0.1889763779527559
        },
        {
          "duration": 0.04651162790696617,
          "durationTicks": 4,
          "midi": 54,
          "name": "F#3",
          "ticks": 9227,
          "time": 107.29069767441861,
          "velocity": 0.14960629921259844
        },
        {
          "duration": 0.034883720930224626,
          "durationTicks": 3,
          "midi": 71,
          "name": "B4",
          "ticks": 9233,
          "time": 107.36046511627907,
          "velocity": 0.08661417322834646
        },
        {
          "duration": 0.023255813953497295,
          "durationTicks": 2,
          "midi": 45,
          "name": "A2",
          "ticks": 9235,
          "time": 107.38372093023256,
          "velocity": 0.2755905511811024
        },
        {
          "duration": 0.09302325581396076,
          "durationTicks": 8,
          "midi": 54,
          "name": "F#3",
          "ticks": 9235,
          "time": 107.38372093023256,
          "velocity": 0.1732283464566929
        },
        {
          "duration": 0.1046511627907023,
          "durationTicks": 9,
          "midi": 59,
          "name": "B3",
          "ticks": 9235,
          "time": 107.38372093023256,
          "velocity": 0.1968503937007874
        },
        {
          "duration": 0.04651162790696617,
          "durationTicks": 4,
          "midi": 47,
          "name": "B2",
          "ticks": 9237,
          "time": 107.40697674418605,
          "velocity": 0.23622047244094488
        },
        {
          "duration": 0.034883720930224626,
          "durationTicks": 3,
          "midi": 35,
          "name": "B1",
          "ticks": 9239,
          "time": 107.43023255813954,
          "velocity": 0.2440944881889764
        },
        {
          "duration": 0.034883720930224626,
          "durationTicks": 3,
          "midi": 59,
          "name": "B3",
          "ticks": 9248,
          "time": 107.53488372093024,
          "velocity": 0.13385826771653545
        },
        {
          "duration": 0.023255813953483084,
          "durationTicks": 2,
          "midi": 54,
          "name": "F#3",
          "ticks": 9251,
          "time": 107.56976744186046,
          "velocity": 0.25196850393700787
        },
        {
          "duration": 0.023255813953497295,
          "durationTicks": 2,
          "midi": 45,
          "name": "A2",
          "ticks": 9252,
          "time": 107.5813953488372,
          "velocity": 0.2992125984251969
        },
        {
          "duration": 0.08139534883721922,
          "durationTicks": 7,
          "midi": 63,
          "name": "D#4",
          "ticks": 9252,
          "time": 107.5813953488372,
          "velocity": 0.13385826771653545
        },
        {
          "duration": 0.09302325581396076,
          "durationTicks": 8,
          "midi": 72,
          "name": "C5",
          "ticks": 9252,
          "time": 107.5813953488372,
          "velocity": 0.1732283464566929
        },
        {
          "duration": 0.03488372093023884,
          "durationTicks": 3,
          "midi": 100,
          "name": "E7",
          "ticks": 9253,
          "time": 107.59302325581395,
          "velocity": 0.07874015748031496
        },
        {
          "duration": 0.023255813953483084,
          "durationTicks": 2,
          "midi": 36,
          "name": "C2",
          "ticks": 9254,
          "time": 107.6046511627907,
          "velocity": 0.3464566929133858
        },
        {
          "duration": 0.09302325581394655,
          "durationTicks": 8,
          "midi": 51,
          "name": "D#3",
          "ticks": 9255,
          "time": 107.61627906976744,
          "velocity": 0.2440944881889764
        },
        {
          "duration": 0.023255813953483084,
          "durationTicks": 2,
          "midi": 37,
          "name": "C#2",
          "ticks": 9256,
          "time": 107.62790697674419,
          "velocity": 0.2992125984251969
        },
        {
          "duration": 0.09302325581396076,
          "durationTicks": 8,
          "midi": 58,
          "name": "A#3",
          "ticks": 9257,
          "time": 107.63953488372093,
          "velocity": 0.14173228346456693
        },
        {
          "duration": 0.05813953488372192,
          "durationTicks": 5,
          "midi": 39,
          "name": "D#2",
          "ticks": 9260,
          "time": 107.67441860465117,
          "velocity": 0.30708661417322836
        },
        {
          "duration": 0.08139534883721922,
          "durationTicks": 7,
          "midi": 71,
          "name": "B4",
          "ticks": 9263,
          "time": 107.70930232558139,
          "velocity": 0.14960629921259844
        },
        {
          "duration": 0.10465116279068809,
          "durationTicks": 9,
          "midi": 78,
          "name": "F#5",
          "ticks": 9264,
          "time": 107.72093023255815,
          "velocity": 0.15748031496062992
        },
        {
          "duration": 0.06976744186046346,
          "durationTicks": 6,
          "midi": 66,
          "name": "F#4",
          "ticks": 9265,
          "time": 107.73255813953489,
          "velocity": 0.10236220472440945
        },
        {
          "duration": 0.04651162790698038,
          "durationTicks": 4,
          "midi": 40,
          "name": "E2",
          "ticks": 9272,
          "time": 107.81395348837209,
          "velocity": 0.3858267716535433
        },
        {
          "duration": 0.03488372093023884,
          "durationTicks": 3,
          "midi": 67,
          "name": "G4",
          "ticks": 9274,
          "time": 107.83720930232558,
          "velocity": 0.11811023622047244
        },
        {
          "duration": 0.081395348837205,
          "durationTicks": 7,
          "midi": 57,
          "name": "A3",
          "ticks": 9275,
          "time": 107.84883720930233,
          "velocity": 0.2440944881889764
        },
        {
          "duration": 0.06976744186046346,
          "durationTicks": 6,
          "midi": 76,
          "name": "E5",
          "ticks": 9275,
          "time": 107.84883720930233,
          "velocity": 0.13385826771653545
        },
        {
          "duration": 0.13953488372092693,
          "durationTicks": 12,
          "midi": 42,
          "name": "F#2",
          "ticks": 9277,
          "time": 107.87209302325581,
          "velocity": 0.33858267716535434
        },
        {
          "duration": 0.1046511627907023,
          "durationTicks": 9,
          "midi": 64,
          "name": "E4",
          "ticks": 9278,
          "time": 107.88372093023256,
          "velocity": 0.11811023622047244
        },
        {
          "duration": 0.13953488372092693,
          "durationTicks": 12,
          "midi": 67,
          "name": "G4",
          "ticks": 9282,
          "time": 107.93023255813954,
          "velocity": 0.13385826771653545
        },
        {
          "duration": 0.023255813953483084,
          "durationTicks": 2,
          "midi": 55,
          "name": "G3",
          "ticks": 9287,
          "time": 107.98837209302326,
          "velocity": 0.2755905511811024
        },
        {
          "duration": 0.04651162790698038,
          "durationTicks": 4,
          "midi": 74,
          "name": "D5",
          "ticks": 9289,
          "time": 108.01162790697674,
          "velocity": 0.07086614173228346
        },
        {
          "duration": 0.06976744186046346,
          "durationTicks": 6,
          "midi": 71,
          "name": "B4",
          "ticks": 9291,
          "time": 108.03488372093024,
          "velocity": 0.1968503937007874
        },
        {
          "duration": 0.023255813953483084,
          "durationTicks": 2,
          "midi": 51,
          "name": "D#3",
          "ticks": 9293,
          "time": 108.05813953488372,
          "velocity": 0.25984251968503935
        },
        {
          "duration": 0.3372093023255758,
          "durationTicks": 29,
          "midi": 59,
          "name": "B3",
          "ticks": 9293,
          "time": 108.05813953488372,
          "velocity": 0.2677165354330709
        },
        {
          "duration": 0.40697674418603924,
          "durationTicks": 35,
          "midi": 64,
          "name": "E4",
          "ticks": 9293,
          "time": 108.05813953488372,
          "velocity": 0.11023622047244094
        },
        {
          "duration": 0.1860465116279073,
          "durationTicks": 16,
          "midi": 78,
          "name": "F#5",
          "ticks": 9293,
          "time": 108.05813953488372,
          "velocity": 0.15748031496062992
        },
        {
          "duration": 0.17441860465116577,
          "durationTicks": 15,
          "midi": 52,
          "name": "E3",
          "ticks": 9295,
          "time": 108.0813953488372,
          "velocity": 0.28346456692913385
        },
        {
          "duration": 0.23255813953487348,
          "durationTicks": 20,
          "midi": 40,
          "name": "E2",
          "ticks": 9297,
          "time": 108.1046511627907,
          "velocity": 0.3228346456692913
        },
        {
          "duration": 0.13953488372092693,
          "durationTicks": 12,
          "midi": 79,
          "name": "G5",
          "ticks": 9310,
          "time": 108.25581395348837,
          "velocity": 0.2125984251968504
        },
        {
          "duration": 0.09302325581396076,
          "durationTicks": 8,
          "midi": 83,
          "name": "B5",
          "ticks": 9311,
          "time": 108.26744186046511,
          "velocity": 0.1889763779527559
        },
        {
          "duration": 0.03488372093023884,
          "durationTicks": 3,
          "midi": 41,
          "name": "F2",
          "ticks": 9317,
          "time": 108.33720930232558,
          "velocity": 0.2755905511811024
        },
        {
          "duration": 0.04651162790696617,
          "durationTicks": 4,
          "midi": 52,
          "name": "E3",
          "ticks": 9318,
          "time": 108.34883720930233,
          "velocity": 0.2047244094488189
        },
        {
          "duration": 0.023255813953497295,
          "durationTicks": 2,
          "midi": 53,
          "name": "F3",
          "ticks": 9322,
          "time": 108.3953488372093,
          "velocity": 0.28346456692913385
        },
        {
          "duration": 0.13953488372094114,
          "durationTicks": 12,
          "midi": 67,
          "name": "G4",
          "ticks": 9322,
          "time": 108.3953488372093,
          "velocity": 0.14173228346456693
        },
        {
          "duration": 0.034883720930224626,
          "durationTicks": 3,
          "midi": 60,
          "name": "C4",
          "ticks": 9323,
          "time": 108.40697674418605,
          "velocity": 0.12598425196850394
        },
        {
          "duration": 0.023255813953483084,
          "durationTicks": 2,
          "midi": 37,
          "name": "C#2",
          "ticks": 9324,
          "time": 108.4186046511628,
          "velocity": 0.3937007874015748
        },
        {
          "duration": 0.034883720930224626,
          "durationTicks": 3,
          "midi": 52,
          "name": "E3",
          "ticks": 9324,
          "time": 108.4186046511628,
          "velocity": 0.2440944881889764
        },
        {
          "duration": 0.023255813953483084,
          "durationTicks": 2,
          "midi": 40,
          "name": "E2",
          "ticks": 9326,
          "time": 108.44186046511628,
          "velocity": 0.3700787401574803
        },
        {
          "duration": 0.11627906976744384,
          "durationTicks": 10,
          "midi": 55,
          "name": "G3",
          "ticks": 9332,
          "time": 108.51162790697674,
          "velocity": 0.1732283464566929
        },
        {
          "duration": 0.09302325581396076,
          "durationTicks": 8,
          "midi": 81,
          "name": "A5",
          "ticks": 9332,
          "time": 108.51162790697674,
          "velocity": 0.15748031496062992
        },
        {
          "duration": 0.023255813953483084,
          "durationTicks": 2,
          "midi": 41,
          "name": "F2",
          "ticks": 9334,
          "time": 108.53488372093024,
          "velocity": 0.4251968503937008
        },
        {
          "duration": 0.081395348837205,
          "durationTicks": 7,
          "midi": 43,
          "name": "G2",
          "ticks": 9336,
          "time": 108.55813953488372,
          "velocity": 0.3543307086614173
        },
        {
          "duration": 0.04651162790696617,
          "durationTicks": 4,
          "midi": 45,
          "name": "A2",
          "ticks": 9345,
          "time": 108.66279069767442,
          "velocity": 0.14173228346456693
        },
        {
          "duration": 0.06976744186046346,
          "durationTicks": 6,
          "midi": 67,
          "name": "G4",
          "ticks": 9346,
          "time": 108.67441860465117,
          "velocity": 0.08661417322834646
        },
        {
          "duration": 0.023255813953483084,
          "durationTicks": 2,
          "midi": 44,
          "name": "G#2",
          "ticks": 9352,
          "time": 108.74418604651163,
          "velocity": 0.3937007874015748
        },
        {
          "duration": 0.034883720930224626,
          "durationTicks": 3,
          "midi": 70,
          "name": "A#4",
          "ticks": 9352,
          "time": 108.74418604651163,
          "velocity": 0.14960629921259844
        },
        {
          "duration": 0.13953488372092693,
          "durationTicks": 12,
          "midi": 78,
          "name": "F#5",
          "ticks": 9352,
          "time": 108.74418604651163,
          "velocity": 0.1889763779527559
        },
        {
          "duration": 0.2093023255813904,
          "durationTicks": 18,
          "midi": 59,
          "name": "B3",
          "ticks": 9353,
          "time": 108.75581395348837,
          "velocity": 0.15748031496062992
        },
        {
          "duration": 0.05813953488372192,
          "durationTicks": 5,
          "midi": 81,
          "name": "A5",
          "ticks": 9354,
          "time": 108.76744186046511,
          "velocity": 0.07874015748031496
        },
        {
          "duration": 0.023255813953497295,
          "durationTicks": 2,
          "midi": 47,
          "name": "B2",
          "ticks": 9355,
          "time": 108.77906976744185,
          "velocity": 0.29133858267716534
        },
        {
          "duration": 0.05813953488372192,
          "durationTicks": 5,
          "midi": 67,
          "name": "G4",
          "ticks": 9355,
          "time": 108.77906976744185,
          "velocity": 0.09448818897637795
        },
        {
          "duration": 0.15116279069766847,
          "durationTicks": 13,
          "midi": 47,
          "name": "B2",
          "ticks": 9358,
          "time": 108.81395348837209,
          "velocity": 0.2755905511811024
        },
        {
          "duration": 0.06976744186046346,
          "durationTicks": 6,
          "midi": 67,
          "name": "G4",
          "ticks": 9362,
          "time": 108.86046511627907,
          "velocity": 0.1732283464566929
        },
        {
          "duration": 0.081395348837205,
          "durationTicks": 7,
          "midi": 64,
          "name": "E4",
          "ticks": 9364,
          "time": 108.88372093023256,
          "velocity": 0.10236220472440945
        },
        {
          "duration": 0.05813953488372192,
          "durationTicks": 5,
          "midi": 67,
          "name": "G4",
          "ticks": 9369,
          "time": 108.94186046511628,
          "velocity": 0.18110236220472442
        },
        {
          "duration": 0.023255813953497295,
          "durationTicks": 2,
          "midi": 53,
          "name": "F3",
          "ticks": 9371,
          "time": 108.96511627906976,
          "velocity": 0.2755905511811024
        },
        {
          "duration": 0.06976744186047767,
          "durationTicks": 6,
          "midi": 83,
          "name": "B5",
          "ticks": 9371,
          "time": 108.96511627906976,
          "velocity": 0.25196850393700787
        },
        {
          "duration": 0.10465116279068809,
          "durationTicks": 9,
          "midi": 79,
          "name": "G5",
          "ticks": 9372,
          "time": 108.97674418604652,
          "velocity": 0.1968503937007874
        },
        {
          "duration": 0.023255813953483084,
          "durationTicks": 2,
          "midi": 52,
          "name": "E3",
          "ticks": 9373,
          "time": 108.98837209302326,
          "velocity": 0.2440944881889764
        },
        {
          "duration": 0.25581395348837077,
          "durationTicks": 22,
          "midi": 59,
          "name": "B3",
          "ticks": 9373,
          "time": 108.98837209302326,
          "velocity": 0.2283464566929134
        },
        {
          "duration": 0.023255813953483084,
          "durationTicks": 2,
          "midi": 38,
          "name": "D2",
          "ticks": 9374,
          "time": 109,
          "velocity": 0.2992125984251969
        },
        {
          "duration": 0.3139534883720927,
          "durationTicks": 27,
          "midi": 64,
          "name": "E4",
          "ticks": 9375,
          "time": 109.01162790697674,
          "velocity": 0.1968503937007874
        },
        {
          "duration": 0.03488372093023884,
          "durationTicks": 3,
          "midi": 40,
          "name": "E2",
          "ticks": 9376,
          "time": 109.02325581395348,
          "velocity": 0.3464566929133858
        },
        {
          "duration": 0.16279069767442422,
          "durationTicks": 14,
          "midi": 40,
          "name": "E2",
          "ticks": 9380,
          "time": 109.06976744186046,
          "velocity": 0.3464566929133858
        },
        {
          "duration": 0.13953488372092693,
          "durationTicks": 12,
          "midi": 79,
          "name": "G5",
          "ticks": 9391,
          "time": 109.19767441860465,
          "velocity": 0.2677165354330709
        },
        {
          "duration": 0.023255813953497295,
          "durationTicks": 2,
          "midi": 50,
          "name": "D3",
          "ticks": 9402,
          "time": 109.32558139534883,
          "velocity": 0.31496062992125984
        },
        {
          "duration": 0.09302325581394655,
          "durationTicks": 8,
          "midi": 52,
          "name": "E3",
          "ticks": 9404,
          "time": 109.34883720930233,
          "velocity": 0.30708661417322836
        },
        {
          "duration": 0.12790697674418539,
          "durationTicks": 11,
          "midi": 67,
          "name": "G4",
          "ticks": 9404,
          "time": 109.34883720930233,
          "velocity": 0.14960629921259844
        },
        {
          "duration": 0.12790697674418539,
          "durationTicks": 11,
          "midi": 78,
          "name": "F#5",
          "ticks": 9412,
          "time": 109.44186046511628,
          "velocity": 0.1968503937007874
        },
        {
          "duration": 0.023255813953497295,
          "durationTicks": 2,
          "midi": 42,
          "name": "F#2",
          "ticks": 9414,
          "time": 109.46511627906976,
          "velocity": 0.4251968503937008
        },
        {
          "duration": 0.04651162790696617,
          "durationTicks": 4,
          "midi": 81,
          "name": "A5",
          "ticks": 9415,
          "time": 109.47674418604652,
          "velocity": 0.09448818897637795
        },
        {
          "duration": 0.081395348837205,
          "durationTicks": 7,
          "midi": 43,
          "name": "G2",
          "ticks": 9416,
          "time": 109.48837209302326,
          "velocity": 0.33858267716535434
        },
        {
          "duration": 0.11627906976744384,
          "durationTicks": 10,
          "midi": 67,
          "name": "G4",
          "ticks": 9424,
          "time": 109.5813953488372,
          "velocity": 0.1968503937007874
        },
        {
          "duration": 0.034883720930224626,
          "durationTicks": 3,
          "midi": 45,
          "name": "A2",
          "ticks": 9432,
          "time": 109.67441860465117,
          "velocity": 0.4409448818897638
        },
        {
          "duration": 0.16279069767441,
          "durationTicks": 14,
          "midi": 78,
          "name": "F#5",
          "ticks": 9432,
          "time": 109.67441860465117,
          "velocity": 0.1968503937007874
        },
        {
          "duration": 0.034883720930224626,
          "durationTicks": 3,
          "midi": 47,
          "name": "B2",
          "ticks": 9438,
          "time": 109.74418604651163,
          "velocity": 0.25984251968503935
        },
        {
          "duration": 0.03488372093023884,
          "durationTicks": 3,
          "midi": 70,
          "name": "A#4",
          "ticks": 9440,
          "time": 109.76744186046511,
          "velocity": 0.14960629921259844
        },
        {
          "duration": 0.10465116279068809,
          "durationTicks": 9,
          "midi": 47,
          "name": "B2",
          "ticks": 9442,
          "time": 109.79069767441861,
          "velocity": 0.25196850393700787
        },
        {
          "duration": 0.06976744186046346,
          "durationTicks": 6,
          "midi": 67,
          "name": "G4",
          "ticks": 9447,
          "time": 109.84883720930233,
          "velocity": 0.07874015748031496
        },
        {
          "duration": 0.05813953488372192,
          "durationTicks": 5,
          "midi": 52,
          "name": "E3",
          "ticks": 9453,
          "time": 109.9186046511628,
          "velocity": 0.25984251968503935
        },
        {
          "duration": 0.034883720930224626,
          "durationTicks": 3,
          "midi": 40,
          "name": "E2",
          "ticks": 9454,
          "time": 109.93023255813954,
          "velocity": 0.3543307086614173
        },
        {
          "duration": 0.32558139534883423,
          "durationTicks": 28,
          "midi": 59,
          "name": "B3",
          "ticks": 9455,
          "time": 109.94186046511628,
          "velocity": 0.2047244094488189
        },
        {
          "duration": 0.19767441860464885,
          "durationTicks": 17,
          "midi": 40,
          "name": "E2",
          "ticks": 9458,
          "time": 109.97674418604652,
          "velocity": 0.30708661417322836
        },
        {
          "duration": 0.1046511627907023,
          "durationTicks": 9,
          "midi": 83,
          "name": "B5",
          "ticks": 9472,
          "time": 110.13953488372093,
          "velocity": 0.2283464566929134
        },
        {
          "duration": 0.13953488372094114,
          "durationTicks": 12,
          "midi": 79,
          "name": "G5",
          "ticks": 9473,
          "time": 110.15116279069767,
          "velocity": 0.2677165354330709
        },
        {
          "duration": 0.05813953488372192,
          "durationTicks": 5,
          "midi": 40,
          "name": "E2",
          "ticks": 9476,
          "time": 110.18604651162791,
          "velocity": 0.30708661417322836
        },
        {
          "duration": 0.034883720930224626,
          "durationTicks": 3,
          "midi": 67,
          "name": "G4",
          "ticks": 9481,
          "time": 110.24418604651163,
          "velocity": 0.11811023622047244
        },
        {
          "duration": 0.03488372093023884,
          "durationTicks": 3,
          "midi": 76,
          "name": "E5",
          "ticks": 9484,
          "time": 110.27906976744185,
          "velocity": 0.08661417322834646
        },
        {
          "duration": 0.023255813953483084,
          "durationTicks": 2,
          "midi": 37,
          "name": "C#2",
          "ticks": 9485,
          "time": 110.29069767441861,
          "velocity": 0.3700787401574803
        },
        {
          "duration": 0.081395348837205,
          "durationTicks": 7,
          "midi": 59,
          "name": "B3",
          "ticks": 9486,
          "time": 110.30232558139535,
          "velocity": 0.08661417322834646
        },
        {
          "duration": 0.04651162790698038,
          "durationTicks": 4,
          "midi": 52,
          "name": "E3",
          "ticks": 9489,
          "time": 110.33720930232558,
          "velocity": 0.2440944881889764
        },
        {
          "duration": 0.03488372093023884,
          "durationTicks": 3,
          "midi": 74,
          "name": "D5",
          "ticks": 9492,
          "time": 110.37209302325581,
          "velocity": 0.1889763779527559
        },
        {
          "duration": 0.06976744186046346,
          "durationTicks": 6,
          "midi": 81,
          "name": "A5",
          "ticks": 9494,
          "time": 110.3953488372093,
          "velocity": 0.10236220472440945
        },
        {
          "duration": 0.11627906976742963,
          "durationTicks": 10,
          "midi": 55,
          "name": "G3",
          "ticks": 9495,
          "time": 110.40697674418605,
          "velocity": 0.16535433070866143
        },
        {
          "duration": 0.12790697674418539,
          "durationTicks": 11,
          "midi": 43,
          "name": "G2",
          "ticks": 9496,
          "time": 110.4186046511628,
          "velocity": 0.4015748031496063
        },
        {
          "duration": 0.13953488372094114,
          "durationTicks": 12,
          "midi": 67,
          "name": "G4",
          "ticks": 9505,
          "time": 110.52325581395348,
          "velocity": 0.18110236220472442
        },
        {
          "duration": 0.023255813953497295,
          "durationTicks": 2,
          "midi": 71,
          "name": "B4",
          "ticks": 9511,
          "time": 110.59302325581395,
          "velocity": 0.2283464566929134
        },
        {
          "duration": 0.11627906976744384,
          "durationTicks": 10,
          "midi": 78,
          "name": "F#5",
          "ticks": 9512,
          "time": 110.6046511627907,
          "velocity": 0.18110236220472442
        },
        {
          "duration": 0.04651162790698038,
          "durationTicks": 4,
          "midi": 93,
          "name": "A6",
          "ticks": 9513,
          "time": 110.61627906976744,
          "velocity": 0.11023622047244094
        },
        {
          "duration": 0.023255813953483084,
          "durationTicks": 2,
          "midi": 45,
          "name": "A2",
          "ticks": 9514,
          "time": 110.62790697674419,
          "velocity": 0.4094488188976378
        },
        {
          "duration": 0.19767441860464885,
          "durationTicks": 17,
          "midi": 59,
          "name": "B3",
          "ticks": 9515,
          "time": 110.63953488372093,
          "velocity": 0.14173228346456693
        },
        {
          "duration": 0.15116279069766847,
          "durationTicks": 13,
          "midi": 47,
          "name": "B2",
          "ticks": 9518,
          "time": 110.67441860465117,
          "velocity": 0.30708661417322836
        },
        {
          "duration": 0.081395348837205,
          "durationTicks": 7,
          "midi": 64,
          "name": "E4",
          "ticks": 9522,
          "time": 110.72093023255815,
          "velocity": 0.18110236220472442
        },
        {
          "duration": 0.034883720930224626,
          "durationTicks": 3,
          "midi": 67,
          "name": "G4",
          "ticks": 9524,
          "time": 110.74418604651163,
          "velocity": 0.14960629921259844
        },
        {
          "duration": 0.04651162790696617,
          "durationTicks": 4,
          "midi": 67,
          "name": "G4",
          "ticks": 9528,
          "time": 110.79069767441861,
          "velocity": 0.12598425196850394
        },
        {
          "duration": 0.023255813953497295,
          "durationTicks": 2,
          "midi": 51,
          "name": "D#3",
          "ticks": 9531,
          "time": 110.82558139534883,
          "velocity": 0.2283464566929134
        },
        {
          "duration": 0.04651162790698038,
          "durationTicks": 4,
          "midi": 64,
          "name": "E4",
          "ticks": 9531,
          "time": 110.82558139534883,
          "velocity": 0.11811023622047244
        },
        {
          "duration": 0.11627906976744384,
          "durationTicks": 10,
          "midi": 79,
          "name": "G5",
          "ticks": 9532,
          "time": 110.83720930232558,
          "velocity": 0.2204724409448819
        },
        {
          "duration": 0.08139534883721922,
          "durationTicks": 7,
          "midi": 83,
          "name": "B5",
          "ticks": 9532,
          "time": 110.83720930232558,
          "velocity": 0.25196850393700787
        },
        {
          "duration": 0.034883720930224626,
          "durationTicks": 3,
          "midi": 41,
          "name": "F2",
          "ticks": 9533,
          "time": 110.84883720930233,
          "velocity": 0.3937007874015748
        },
        {
          "duration": 0.1046511627907023,
          "durationTicks": 9,
          "midi": 52,
          "name": "E3",
          "ticks": 9537,
          "time": 110.8953488372093,
          "velocity": 0.28346456692913385
        },
        {
          "duration": 0.023255813953483084,
          "durationTicks": 2,
          "midi": 40,
          "name": "E2",
          "ticks": 9538,
          "time": 110.90697674418605,
          "velocity": 0.3228346456692913
        },
        {
          "duration": 0.03488372093023884,
          "durationTicks": 3,
          "midi": 40,
          "name": "E2",
          "ticks": 9541,
          "time": 110.94186046511628,
          "velocity": 0.31496062992125984
        },
        {
          "duration": 0.15116279069766847,
          "durationTicks": 13,
          "midi": 40,
          "name": "E2",
          "ticks": 9545,
          "time": 110.98837209302326,
          "velocity": 0.3228346456692913
        },
        {
          "duration": 0.04651162790698038,
          "durationTicks": 4,
          "midi": 76,
          "name": "E5",
          "ticks": 9552,
          "time": 111.06976744186046,
          "velocity": 0.11811023622047244
        },
        {
          "duration": 0.15116279069768268,
          "durationTicks": 13,
          "midi": 79,
          "name": "G5",
          "ticks": 9552,
          "time": 111.06976744186046,
          "velocity": 0.23622047244094488
        },
        {
          "duration": 0.04651162790698038,
          "durationTicks": 4,
          "midi": 47,
          "name": "B2",
          "ticks": 9559,
          "time": 111.15116279069767,
          "velocity": 0.14960629921259844
        },
        {
          "duration": 0.06976744186047767,
          "durationTicks": 6,
          "midi": 67,
          "name": "G4",
          "ticks": 9559,
          "time": 111.15116279069767,
          "velocity": 0.09448818897637795
        },
        {
          "duration": 0.023255813953483084,
          "durationTicks": 2,
          "midi": 37,
          "name": "C#2",
          "ticks": 9565,
          "time": 111.22093023255815,
          "velocity": 0.36220472440944884
        },
        {
          "duration": 0.081395348837205,
          "durationTicks": 7,
          "midi": 64,
          "name": "E4",
          "ticks": 9565,
          "time": 111.22093023255815,
          "velocity": 0.11023622047244094
        },
        {
          "duration": 0.04651162790698038,
          "durationTicks": 4,
          "midi": 52,
          "name": "E3",
          "ticks": 9568,
          "time": 111.25581395348837,
          "velocity": 0.1889763779527559
        },
        {
          "duration": 0.023255813953483084,
          "durationTicks": 2,
          "midi": 41,
          "name": "F2",
          "ticks": 9573,
          "time": 111.31395348837209,
          "velocity": 0.4015748031496063
        },
        {
          "duration": 0.13953488372092693,
          "durationTicks": 12,
          "midi": 78,
          "name": "F#5",
          "ticks": 9573,
          "time": 111.31395348837209,
          "velocity": 0.15748031496062992
        },
        {
          "duration": 0.04651162790698038,
          "durationTicks": 4,
          "midi": 93,
          "name": "A6",
          "ticks": 9573,
          "time": 111.31395348837209,
          "velocity": 0.09448818897637795
        },
        {
          "duration": 0.12790697674418539,
          "durationTicks": 11,
          "midi": 55,
          "name": "G3",
          "ticks": 9578,
          "time": 111.37209302325581,
          "velocity": 0.18110236220472442
        },
        {
          "duration": 0.13953488372092693,
          "durationTicks": 12,
          "midi": 43,
          "name": "G2",
          "ticks": 9579,
          "time": 111.38372093023256,
          "velocity": 0.33858267716535434
        },
        {
          "duration": 0.15116279069768268,
          "durationTicks": 13,
          "midi": 67,
          "name": "G4",
          "ticks": 9585,
          "time": 111.45348837209302,
          "velocity": 0.2047244094488189
        },
        {
          "duration": 0.023255813953483084,
          "durationTicks": 2,
          "midi": 45,
          "name": "A2",
          "ticks": 9593,
          "time": 111.54651162790698,
          "velocity": 0.36220472440944884
        },
        {
          "duration": 0.12790697674418539,
          "durationTicks": 11,
          "midi": 78,
          "name": "F#5",
          "ticks": 9593,
          "time": 111.54651162790698,
          "velocity": 0.2283464566929134
        },
        {
          "duration": 0.17441860465116577,
          "durationTicks": 15,
          "midi": 47,
          "name": "B2",
          "ticks": 9596,
          "time": 111.5813953488372,
          "velocity": 0.25984251968503935
        },
        {
          "duration": 0.034883720930224626,
          "durationTicks": 3,
          "midi": 63,
          "name": "D#4",
          "ticks": 9603,
          "time": 111.66279069767442,
          "velocity": 0.2125984251968504
        },
        {
          "duration": 0.13953488372092693,
          "durationTicks": 12,
          "midi": 67,
          "name": "G4",
          "ticks": 9603,
          "time": 111.66279069767442,
          "velocity": 0.2047244094488189
        },
        {
          "duration": 0.034883720930224626,
          "durationTicks": 3,
          "midi": 70,
          "name": "A#4",
          "ticks": 9603,
          "time": 111.66279069767442,
          "velocity": 0.2204724409448819
        },
        {
          "duration": 0.034883720930224626,
          "durationTicks": 3,
          "midi": 77,
          "name": "F5",
          "ticks": 9603,
          "time": 111.66279069767442,
          "velocity": 0.16535433070866143
        },
        {
          "duration": 0.22093023255814614,
          "durationTicks": 19,
          "midi": 64,
          "name": "E4",
          "ticks": 9611,
          "time": 111.75581395348837,
          "velocity": 0.1889763779527559
        },
        {
          "duration": 0.023255813953483084,
          "durationTicks": 2,
          "midi": 40,
          "name": "E2",
          "ticks": 9614,
          "time": 111.79069767441861,
          "velocity": 0.3464566929133858
        },
        {
          "duration": 0.32558139534883423,
          "durationTicks": 28,
          "midi": 59,
          "name": "B3",
          "ticks": 9616,
          "time": 111.81395348837209,
          "velocity": 0.2204724409448819
        },
        {
          "duration": 0.17441860465116577,
          "durationTicks": 15,
          "midi": 40,
          "name": "E2",
          "ticks": 9620,
          "time": 111.86046511627907,
          "velocity": 0.33858267716535434
        },
        {
          "duration": 0.13953488372094114,
          "durationTicks": 12,
          "midi": 79,
          "name": "G5",
          "ticks": 9634,
          "time": 112.02325581395348,
          "velocity": 0.25196850393700787
        },
        {
          "duration": 0.09302325581394655,
          "durationTicks": 8,
          "midi": 83,
          "name": "B5",
          "ticks": 9635,
          "time": 112.03488372093024,
          "velocity": 0.2125984251968504
        },
        {
          "duration": 0.034883720930224626,
          "durationTicks": 3,
          "midi": 52,
          "name": "E3",
          "ticks": 9636,
          "time": 112.04651162790698,
          "velocity": 0.23622047244094488
        },
        {
          "duration": 0.12790697674418539,
          "durationTicks": 11,
          "midi": 67,
          "name": "G4",
          "ticks": 9637,
          "time": 112.05813953488372,
          "velocity": 0.12598425196850394
        },
        {
          "duration": 0.03488372093023884,
          "durationTicks": 3,
          "midi": 40,
          "name": "E2",
          "ticks": 9638,
          "time": 112.06976744186046,
          "velocity": 0.29133858267716534
        },
        {
          "duration": 0.023255813953497295,
          "durationTicks": 2,
          "midi": 43,
          "name": "G2",
          "ticks": 9644,
          "time": 112.13953488372093,
          "velocity": 0.29133858267716534
        },
        {
          "duration": 0.023255813953497295,
          "durationTicks": 2,
          "midi": 51,
          "name": "D#3",
          "ticks": 9645,
          "time": 112.15116279069767,
          "velocity": 0.30708661417322836
        },
        {
          "duration": 0.05813953488372192,
          "durationTicks": 5,
          "midi": 59,
          "name": "B3",
          "ticks": 9648,
          "time": 112.18604651162791,
          "velocity": 0.13385826771653545
        },
        {
          "duration": 0.03488372093023884,
          "durationTicks": 3,
          "midi": 52,
          "name": "E3",
          "ticks": 9650,
          "time": 112.20930232558139,
          "velocity": 0.12598425196850394
        },
        {
          "duration": 0.1046511627907023,
          "durationTicks": 9,
          "midi": 81,
          "name": "A5",
          "ticks": 9653,
          "time": 112.24418604651163,
          "velocity": 0.1732283464566929
        },
        {
          "duration": 0.11627906976744384,
          "durationTicks": 10,
          "midi": 55,
          "name": "G3",
          "ticks": 9654,
          "time": 112.25581395348837,
          "velocity": 0.2125984251968504
        },
        {
          "duration": 0.1860465116279073,
          "durationTicks": 16,
          "midi": 43,
          "name": "G2",
          "ticks": 9657,
          "time": 112.29069767441861,
          "velocity": 0.3543307086614173
        },
        {
          "duration": 0.034883720930224626,
          "durationTicks": 3,
          "midi": 67,
          "name": "G4",
          "ticks": 9673,
          "time": 112.47674418604652,
          "velocity": 0.11811023622047244
        },
        {
          "duration": 0.12790697674418539,
          "durationTicks": 11,
          "midi": 78,
          "name": "F#5",
          "ticks": 9673,
          "time": 112.47674418604652,
          "velocity": 0.2047244094488189
        },
        {
          "duration": 0.04651162790696617,
          "durationTicks": 4,
          "midi": 93,
          "name": "A6",
          "ticks": 9673,
          "time": 112.47674418604652,
          "velocity": 0.11023622047244094
        },
        {
          "duration": 0.1860465116279073,
          "durationTicks": 16,
          "midi": 47,
          "name": "B2",
          "ticks": 9677,
          "time": 112.52325581395348,
          "velocity": 0.2677165354330709
        },
        {
          "duration": 0.081395348837205,
          "durationTicks": 7,
          "midi": 67,
          "name": "G4",
          "ticks": 9681,
          "time": 112.56976744186046,
          "velocity": 0.2125984251968504
        },
        {
          "duration": 0.023255813953497295,
          "durationTicks": 2,
          "midi": 63,
          "name": "D#4",
          "ticks": 9682,
          "time": 112.5813953488372,
          "velocity": 0.28346456692913385
        },
        {
          "duration": 0.03488372093023884,
          "durationTicks": 3,
          "midi": 70,
          "name": "A#4",
          "ticks": 9682,
          "time": 112.5813953488372,
          "velocity": 0.2283464566929134
        },
        {
          "duration": 0.04651162790696617,
          "durationTicks": 4,
          "midi": 64,
          "name": "E4",
          "ticks": 9684,
          "time": 112.6046511627907,
          "velocity": 0.13385826771653545
        },
        {
          "duration": 0.034883720930224626,
          "durationTicks": 3,
          "midi": 67,
          "name": "G4",
          "ticks": 9690,
          "time": 112.67441860465117,
          "velocity": 0.10236220472440945
        },
        {
          "duration": 0.11627906976744384,
          "durationTicks": 10,
          "midi": 79,
          "name": "G5",
          "ticks": 9692,
          "time": 112.69767441860465,
          "velocity": 0.2283464566929134
        },
        {
          "duration": 0.09302325581396076,
          "durationTicks": 8,
          "midi": 83,
          "name": "B5",
          "ticks": 9692,
          "time": 112.69767441860465,
          "velocity": 0.2204724409448819
        },
        {
          "duration": 0.023255813953497295,
          "durationTicks": 2,
          "midi": 48,
          "name": "C3",
          "ticks": 9693,
          "time": 112.70930232558139,
          "velocity": 0.33858267716535434
        },
        {
          "duration": 0.3372093023255758,
          "durationTicks": 29,
          "midi": 59,
          "name": "B3",
          "ticks": 9695,
          "time": 112.73255813953489,
          "velocity": 0.2125984251968504
        },
        {
          "duration": 0.27906976744185386,
          "durationTicks": 24,
          "midi": 64,
          "name": "E4",
          "ticks": 9695,
          "time": 112.73255813953489,
          "velocity": 0.1732283464566929
        },
        {
          "duration": 0.023255813953483084,
          "durationTicks": 2,
          "midi": 39,
          "name": "D#2",
          "ticks": 9696,
          "time": 112.74418604651163,
          "velocity": 0.31496062992125984
        },
        {
          "duration": 0.03488372093023884,
          "durationTicks": 3,
          "midi": 52,
          "name": "E3",
          "ticks": 9697,
          "time": 112.75581395348837,
          "velocity": 0.14960629921259844
        },
        {
          "duration": 0.2325581395348877,
          "durationTicks": 20,
          "midi": 40,
          "name": "E2",
          "ticks": 9698,
          "time": 112.76744186046511,
          "velocity": 0.3228346456692913
        },
        {
          "duration": 0.13953488372092693,
          "durationTicks": 12,
          "midi": 79,
          "name": "G5",
          "ticks": 9712,
          "time": 112.93023255813954,
          "velocity": 0.2755905511811024
        },
        {
          "duration": 0.22093023255813193,
          "durationTicks": 19,
          "midi": 67,
          "name": "G4",
          "ticks": 9717,
          "time": 112.98837209302326,
          "velocity": 0.15748031496062992
        },
        {
          "duration": 0.04651162790696617,
          "durationTicks": 4,
          "midi": 59,
          "name": "B3",
          "ticks": 9727,
          "time": 113.1046511627907,
          "velocity": 0.07874015748031496
        },
        {
          "duration": 0.05813953488372192,
          "durationTicks": 5,
          "midi": 52,
          "name": "E3",
          "ticks": 9728,
          "time": 113.11627906976744,
          "velocity": 0.1732283464566929
        },
        {
          "duration": 0.12790697674418539,
          "durationTicks": 11,
          "midi": 78,
          "name": "F#5",
          "ticks": 9732,
          "time": 113.16279069767442,
          "velocity": 0.1889763779527559
        },
        {
          "duration": 0.023255813953483084,
          "durationTicks": 2,
          "midi": 41,
          "name": "F2",
          "ticks": 9734,
          "time": 113.18604651162791,
          "velocity": 0.44881889763779526
        },
        {
          "duration": 0.11627906976744384,
          "durationTicks": 10,
          "midi": 55,
          "name": "G3",
          "ticks": 9734,
          "time": 113.18604651162791,
          "velocity": 0.18110236220472442
        },
        {
          "duration": 0.1860465116279073,
          "durationTicks": 16,
          "midi": 43,
          "name": "G2",
          "ticks": 9736,
          "time": 113.20930232558139,
          "velocity": 0.3858267716535433
        },
        {
          "duration": 0.10465116279068809,
          "durationTicks": 9,
          "midi": 64,
          "name": "E4",
          "ticks": 9743,
          "time": 113.29069767441861,
          "velocity": 0.15748031496062992
        },
        {
          "duration": 0.16279069767442422,
          "durationTicks": 14,
          "midi": 67,
          "name": "G4",
          "ticks": 9745,
          "time": 113.31395348837209,
          "velocity": 0.16535433070866143
        },
        {
          "duration": 0.03488372093023884,
          "durationTicks": 3,
          "midi": 44,
          "name": "G#2",
          "ticks": 9752,
          "time": 113.3953488372093,
          "velocity": 0.3700787401574803
        },
        {
          "duration": 0.15116279069768268,
          "durationTicks": 13,
          "midi": 78,
          "name": "F#5",
          "ticks": 9752,
          "time": 113.3953488372093,
          "velocity": 0.2204724409448819
        },
        {
          "duration": 0.10465116279068809,
          "durationTicks": 9,
          "midi": 64,
          "name": "E4",
          "ticks": 9754,
          "time": 113.4186046511628,
          "velocity": 0.25984251968503935
        },
        {
          "duration": 0.22093023255814614,
          "durationTicks": 19,
          "midi": 47,
          "name": "B2",
          "ticks": 9757,
          "time": 113.45348837209302,
          "velocity": 0.29133858267716534
        },
        {
          "duration": 0.12790697674418539,
          "durationTicks": 11,
          "midi": 67,
          "name": "G4",
          "ticks": 9762,
          "time": 113.51162790697674,
          "velocity": 0.13385826771653545
        },
        {
          "duration": 0.03488372093023884,
          "durationTicks": 3,
          "midi": 93,
          "name": "A6",
          "ticks": 9762,
          "time": 113.51162790697674,
          "velocity": 0.08661417322834646
        },
        {
          "duration": 0.03488372093023884,
          "durationTicks": 3,
          "midi": 63,
          "name": "D#4",
          "ticks": 9763,
          "time": 113.52325581395348,
          "velocity": 0.2992125984251969
        },
        {
          "duration": 0.12790697674418539,
          "durationTicks": 11,
          "midi": 79,
          "name": "G5",
          "ticks": 9772,
          "time": 113.62790697674419,
          "velocity": 0.25984251968503935
        },
        {
          "duration": 0.023255813953483084,
          "durationTicks": 2,
          "midi": 37,
          "name": "C#2",
          "ticks": 9775,
          "time": 113.66279069767442,
          "velocity": 0.31496062992125984
        },
        {
          "duration": 0.2093023255813904,
          "durationTicks": 18,
          "midi": 64,
          "name": "E4",
          "ticks": 9775,
          "time": 113.66279069767442,
          "velocity": 0.14173228346456693
        },
        {
          "duration": 0.22093023255814614,
          "durationTicks": 19,
          "midi": 40,
          "name": "E2",
          "ticks": 9777,
          "time": 113.68604651162791,
          "velocity": 0.3700787401574803
        },
        {
          "duration": 0.04651162790698038,
          "durationTicks": 4,
          "midi": 83,
          "name": "B5",
          "ticks": 9793,
          "time": 113.87209302325581,
          "velocity": 0.10236220472440945
        },
        {
          "duration": 0.03488372093023884,
          "durationTicks": 3,
          "midi": 76,
          "name": "E5",
          "ticks": 9794,
          "time": 113.88372093023256,
          "velocity": 0.07086614173228346
        },
        {
          "duration": 0.023255813953483084,
          "durationTicks": 2,
          "midi": 41,
          "name": "F2",
          "ticks": 9796,
          "time": 113.90697674418605,
          "velocity": 0.3543307086614173
        },
        {
          "duration": 0.034883720930224626,
          "durationTicks": 3,
          "midi": 57,
          "name": "A3",
          "ticks": 9803,
          "time": 113.98837209302326,
          "velocity": 0.18110236220472442
        },
        {
          "duration": 0.023255813953483084,
          "durationTicks": 2,
          "midi": 41,
          "name": "F2",
          "ticks": 9804,
          "time": 114,
          "velocity": 0.36220472440944884
        },
        {
          "duration": 0.1046511627907023,
          "durationTicks": 9,
          "midi": 67,
          "name": "G4",
          "ticks": 9805,
          "time": 114.01162790697674,
          "velocity": 0.14960629921259844
        },
        {
          "duration": 0.04651162790698038,
          "durationTicks": 4,
          "midi": 83,
          "name": "B5",
          "ticks": 9805,
          "time": 114.01162790697674,
          "velocity": 0.11811023622047244
        },
        {
          "duration": 0.034883720930224626,
          "durationTicks": 3,
          "midi": 52,
          "name": "E3",
          "ticks": 9808,
          "time": 114.04651162790698,
          "velocity": 0.1889763779527559
        },
        {
          "duration": 0.034883720930224626,
          "durationTicks": 3,
          "midi": 73,
          "name": "C#5",
          "ticks": 9813,
          "time": 114.1046511627907,
          "velocity": 0.13385826771653545
        },
        {
          "duration": 0.09302325581394655,
          "durationTicks": 8,
          "midi": 78,
          "name": "F#5",
          "ticks": 9813,
          "time": 114.1046511627907,
          "velocity": 0.2047244094488189
        },
        {
          "duration": 0.1046511627907023,
          "durationTicks": 9,
          "midi": 55,
          "name": "G3",
          "ticks": 9815,
          "time": 114.12790697674419,
          "velocity": 0.2677165354330709
        },
        {
          "duration": 0.16279069767442422,
          "durationTicks": 14,
          "midi": 43,
          "name": "G2",
          "ticks": 9816,
          "time": 114.13953488372093,
          "velocity": 0.33858267716535434
        },
        {
          "duration": 0.13953488372092693,
          "durationTicks": 12,
          "midi": 59,
          "name": "B3",
          "ticks": 9832,
          "time": 114.32558139534883,
          "velocity": 0.1968503937007874
        },
        {
          "duration": 0.06976744186047767,
          "durationTicks": 6,
          "midi": 75,
          "name": "D#5",
          "ticks": 9833,
          "time": 114.33720930232558,
          "velocity": 0.14960629921259844
        },
        {
          "duration": 0.03488372093023884,
          "durationTicks": 3,
          "midi": 93,
          "name": "A6",
          "ticks": 9836,
          "time": 114.37209302325581,
          "velocity": 0.07086614173228346
        },
        {
          "duration": 0.17441860465116577,
          "durationTicks": 15,
          "midi": 47,
          "name": "B2",
          "ticks": 9837,
          "time": 114.38372093023256,
          "velocity": 0.28346456692913385
        },
        {
          "duration": 0.08139534883721922,
          "durationTicks": 7,
          "midi": 64,
          "name": "E4",
          "ticks": 9843,
          "time": 114.45348837209302,
          "velocity": 0.1732283464566929
        },
        {
          "duration": 0.03488372093023884,
          "durationTicks": 3,
          "midi": 67,
          "name": "G4",
          "ticks": 9844,
          "time": 114.46511627906976,
          "velocity": 0.1732283464566929
        },
        {
          "duration": 0.04651162790698038,
          "durationTicks": 4,
          "midi": 83,
          "name": "B5",
          "ticks": 9844,
          "time": 114.46511627906976,
          "velocity": 0.10236220472440945
        },
        {
          "duration": 0.1860465116279073,
          "durationTicks": 16,
          "midi": 52,
          "name": "E3",
          "ticks": 9854,
          "time": 114.5813953488372,
          "velocity": 0.28346456692913385
        },
        {
          "duration": 0.023255813953497295,
          "durationTicks": 2,
          "midi": 39,
          "name": "D#2",
          "ticks": 9855,
          "time": 114.59302325581395,
          "velocity": 0.3543307086614173
        },
        {
          "duration": 0.2093023255813904,
          "durationTicks": 18,
          "midi": 59,
          "name": "B3",
          "ticks": 9856,
          "time": 114.6046511627907,
          "velocity": 0.1732283464566929
        },
        {
          "duration": 0.023255813953483084,
          "durationTicks": 2,
          "midi": 40,
          "name": "E2",
          "ticks": 9857,
          "time": 114.61627906976744,
          "velocity": 0.3543307086614173
        },
        {
          "duration": 0.05813953488372192,
          "durationTicks": 5,
          "midi": 66,
          "name": "F#4",
          "ticks": 9858,
          "time": 114.62790697674419,
          "velocity": 0.10236220472440945
        },
        {
          "duration": 0.1046511627907023,
          "durationTicks": 9,
          "midi": 40,
          "name": "E2",
          "ticks": 9860,
          "time": 114.65116279069767,
          "velocity": 0.33858267716535434
        },
        {
          "duration": 0.04651162790698038,
          "durationTicks": 4,
          "midi": 66,
          "name": "F#4",
          "ticks": 9864,
          "time": 114.69767441860465,
          "velocity": 0.11023622047244094
        },
        {
          "duration": 0.023255813953483084,
          "durationTicks": 2,
          "midi": 41,
          "name": "F2",
          "ticks": 9869,
          "time": 114.75581395348837,
          "velocity": 0.23622047244094488
        },
        {
          "duration": 0.03488372093023884,
          "durationTicks": 3,
          "midi": 51,
          "name": "D#3",
          "ticks": 9870,
          "time": 114.76744186046511,
          "velocity": 0.25984251968503935
        },
        {
          "duration": 0.03488372093023884,
          "durationTicks": 3,
          "midi": 64,
          "name": "E4",
          "ticks": 9871,
          "time": 114.77906976744185,
          "velocity": 0.08661417322834646
        },
        {
          "duration": 0.09302325581394655,
          "durationTicks": 8,
          "midi": 79,
          "name": "G5",
          "ticks": 9872,
          "time": 114.79069767441861,
          "velocity": 0.16535433070866143
        },
        {
          "duration": 0.023255813953483084,
          "durationTicks": 2,
          "midi": 41,
          "name": "F2",
          "ticks": 9874,
          "time": 114.81395348837209,
          "velocity": 0.3700787401574803
        },
        {
          "duration": 0.12790697674418539,
          "durationTicks": 11,
          "midi": 55,
          "name": "G3",
          "ticks": 9875,
          "time": 114.82558139534883,
          "velocity": 0.2283464566929134
        },
        {
          "duration": 0.023255813953497295,
          "durationTicks": 2,
          "midi": 44,
          "name": "G#2",
          "ticks": 9880,
          "time": 114.88372093023256,
          "velocity": 0.36220472440944884
        },
        {
          "duration": 0.023255813953483084,
          "durationTicks": 2,
          "midi": 43,
          "name": "G2",
          "ticks": 9882,
          "time": 114.90697674418605,
          "velocity": 0.31496062992125984
        },
        {
          "duration": 0.09302325581396076,
          "durationTicks": 8,
          "midi": 64,
          "name": "E4",
          "ticks": 9886,
          "time": 114.95348837209302,
          "velocity": 0.11023622047244094
        },
        {
          "duration": 0.023255813953497295,
          "durationTicks": 2,
          "midi": 44,
          "name": "G#2",
          "ticks": 9887,
          "time": 114.96511627906976,
          "velocity": 0.33858267716535434
        },
        {
          "duration": 0.023255813953483084,
          "durationTicks": 2,
          "midi": 52,
          "name": "E3",
          "ticks": 9888,
          "time": 114.97674418604652,
          "velocity": 0.2755905511811024
        },
        {
          "duration": 0.023255813953483084,
          "durationTicks": 2,
          "midi": 43,
          "name": "G2",
          "ticks": 9889,
          "time": 114.98837209302326,
          "velocity": 0.3464566929133858
        },
        {
          "duration": 0.023255813953497295,
          "durationTicks": 2,
          "midi": 42,
          "name": "F#2",
          "ticks": 9892,
          "time": 115.02325581395348,
          "velocity": 0.2992125984251969
        },
        {
          "duration": 0.09302325581394655,
          "durationTicks": 8,
          "midi": 72,
          "name": "C5",
          "ticks": 9893,
          "time": 115.03488372093024,
          "velocity": 0.1968503937007874
        },
        {
          "duration": 0.2093023255813904,
          "durationTicks": 18,
          "midi": 50,
          "name": "D3",
          "ticks": 9895,
          "time": 115.05813953488372,
          "velocity": 0.2125984251968504
        },
        {
          "duration": 0.023255813953497295,
          "durationTicks": 2,
          "midi": 40,
          "name": "E2",
          "ticks": 9897,
          "time": 115.0813953488372,
          "velocity": 0.3543307086614173
        },
        {
          "duration": 0.12790697674418539,
          "durationTicks": 11,
          "midi": 38,
          "name": "D2",
          "ticks": 9905,
          "time": 115.17441860465117,
          "velocity": 0.33070866141732286
        },
        {
          "duration": 0.06976744186046346,
          "durationTicks": 6,
          "midi": 64,
          "name": "E4",
          "ticks": 9905,
          "time": 115.17441860465117,
          "velocity": 0.10236220472440945
        },
        {
          "duration": 0.04651162790698038,
          "durationTicks": 4,
          "midi": 83,
          "name": "B5",
          "ticks": 9905,
          "time": 115.17441860465117,
          "velocity": 0.09448818897637795
        },
        {
          "duration": 0.05813953488372192,
          "durationTicks": 5,
          "midi": 67,
          "name": "G4",
          "ticks": 9907,
          "time": 115.19767441860465,
          "velocity": 0.11811023622047244
        },
        {
          "duration": 0.081395348837205,
          "durationTicks": 7,
          "midi": 93,
          "name": "A6",
          "ticks": 9915,
          "time": 115.29069767441861,
          "velocity": 0.13385826771653545
        },
        {
          "duration": 0.06976744186046346,
          "durationTicks": 6,
          "midi": 43,
          "name": "G2",
          "ticks": 9918,
          "time": 115.32558139534883,
          "velocity": 0.33070866141732286
        },
        {
          "duration": 0.06976744186046346,
          "durationTicks": 6,
          "midi": 64,
          "name": "E4",
          "ticks": 9918,
          "time": 115.32558139534883,
          "velocity": 0.07874015748031496
        },
        {
          "duration": 0.034883720930224626,
          "durationTicks": 3,
          "midi": 43,
          "name": "G2",
          "ticks": 9925,
          "time": 115.40697674418605,
          "velocity": 0.33070866141732286
        },
        {
          "duration": 0.023255813953483084,
          "durationTicks": 2,
          "midi": 52,
          "name": "E3",
          "ticks": 9927,
          "time": 115.43023255813954,
          "velocity": 0.2283464566929134
        },
        {
          "duration": 0.03488372093023884,
          "durationTicks": 3,
          "midi": 43,
          "name": "G2",
          "ticks": 9929,
          "time": 115.45348837209302,
          "velocity": 0.33070866141732286
        },
        {
          "duration": 0.03488372093023884,
          "durationTicks": 3,
          "midi": 74,
          "name": "D5",
          "ticks": 9933,
          "time": 115.5,
          "velocity": 0.14173228346456693
        },
        {
          "duration": 0.04651162790698038,
          "durationTicks": 4,
          "midi": 53,
          "name": "F3",
          "ticks": 9934,
          "time": 115.51162790697674,
          "velocity": 0.29133858267716534
        },
        {
          "duration": 0.04651162790698038,
          "durationTicks": 4,
          "midi": 71,
          "name": "B4",
          "ticks": 9934,
          "time": 115.51162790697674,
          "velocity": 0.12598425196850394
        },
        {
          "duration": 0.13953488372094114,
          "durationTicks": 12,
          "midi": 66,
          "name": "F#4",
          "ticks": 9935,
          "time": 115.52325581395348,
          "velocity": 0.18110236220472442
        },
        {
          "duration": 0.25581395348837077,
          "durationTicks": 22,
          "midi": 78,
          "name": "F#5",
          "ticks": 9935,
          "time": 115.52325581395348,
          "velocity": 0.2204724409448819
        },
        {
          "duration": 0.03488372093023884,
          "durationTicks": 3,
          "midi": 99,
          "name": "D#7",
          "ticks": 9935,
          "time": 115.52325581395348,
          "velocity": 0.07086614173228346
        },
        {
          "duration": 0.023255813953483084,
          "durationTicks": 2,
          "midi": 34,
          "name": "A#1",
          "ticks": 9936,
          "time": 115.53488372093024,
          "velocity": 0.2755905511811024
        },
        {
          "duration": 0.10465116279068809,
          "durationTicks": 9,
          "midi": 59,
          "name": "B3",
          "ticks": 9936,
          "time": 115.53488372093024,
          "velocity": 0.1732283464566929
        },
        {
          "duration": 0.023255813953483084,
          "durationTicks": 2,
          "midi": 45,
          "name": "A2",
          "ticks": 9937,
          "time": 115.54651162790698,
          "velocity": 0.28346456692913385
        },
        {
          "duration": 0.12790697674418539,
          "durationTicks": 11,
          "midi": 54,
          "name": "F#3",
          "ticks": 9938,
          "time": 115.55813953488372,
          "velocity": 0.25984251968503935
        },
        {
          "duration": 0.17441860465116577,
          "durationTicks": 15,
          "midi": 47,
          "name": "B2",
          "ticks": 9939,
          "time": 115.56976744186046,
          "velocity": 0.2755905511811024
        },
        {
          "duration": 0.06976744186047767,
          "durationTicks": 6,
          "midi": 35,
          "name": "B1",
          "ticks": 9941,
          "time": 115.59302325581395,
          "velocity": 0.25196850393700787
        },
        {
          "duration": 0.023255813953483084,
          "durationTicks": 2,
          "midi": 35,
          "name": "B1",
          "ticks": 9948,
          "time": 115.67441860465117,
          "velocity": 0.25196850393700787
        },
        {
          "duration": 0.1046511627907023,
          "durationTicks": 9,
          "midi": 35,
          "name": "B1",
          "ticks": 9951,
          "time": 115.70930232558139,
          "velocity": 0.28346456692913385
        },
        {
          "duration": 0.11627906976744384,
          "durationTicks": 10,
          "midi": 66,
          "name": "F#4",
          "ticks": 9953,
          "time": 115.73255813953489,
          "velocity": 0.08661417322834646
        },
        {
          "duration": 0.09302325581394655,
          "durationTicks": 8,
          "midi": 71,
          "name": "B4",
          "ticks": 9954,
          "time": 115.74418604651163,
          "velocity": 0.16535433070866143
        },
        {
          "duration": 0.05813953488372192,
          "durationTicks": 5,
          "midi": 47,
          "name": "B2",
          "ticks": 9955,
          "time": 115.75581395348837,
          "velocity": 0.2992125984251969
        },
        {
          "duration": 0.06976744186046346,
          "durationTicks": 6,
          "midi": 99,
          "name": "D#7",
          "ticks": 9955,
          "time": 115.75581395348837,
          "velocity": 0.11811023622047244
        },
        {
          "duration": 0.04651162790698038,
          "durationTicks": 4,
          "midi": 59,
          "name": "B3",
          "ticks": 9962,
          "time": 115.83720930232558,
          "velocity": 0.15748031496062992
        },
        {
          "duration": 0.11627906976744384,
          "durationTicks": 10,
          "midi": 63,
          "name": "D#4",
          "ticks": 9965,
          "time": 115.87209302325581,
          "velocity": 0.09448818897637795
        },
        {
          "duration": 0.05813953488372192,
          "durationTicks": 5,
          "midi": 71,
          "name": "B4",
          "ticks": 9966,
          "time": 115.88372093023256,
          "velocity": 0.11811023622047244
        },
        {
          "duration": 0.03488372093023884,
          "durationTicks": 3,
          "midi": 59,
          "name": "B3",
          "ticks": 9967,
          "time": 115.8953488372093,
          "velocity": 0.18110236220472442
        },
        {
          "duration": 0.04651162790696617,
          "durationTicks": 4,
          "midi": 78,
          "name": "F#5",
          "ticks": 9968,
          "time": 115.90697674418605,
          "velocity": 0.07874015748031496
        },
        {
          "duration": 0.04651162790698038,
          "durationTicks": 4,
          "midi": 59,
          "name": "B3",
          "ticks": 9971,
          "time": 115.94186046511628,
          "velocity": 0.12598425196850394
        },
        {
          "duration": 0.09302325581396076,
          "durationTicks": 8,
          "midi": 72,
          "name": "C5",
          "ticks": 9973,
          "time": 115.96511627906976,
          "velocity": 0.23622047244094488
        },
        {
          "duration": 0.09302325581394655,
          "durationTicks": 8,
          "midi": 58,
          "name": "A#3",
          "ticks": 9975,
          "time": 115.98837209302326,
          "velocity": 0.11023622047244094
        },
        {
          "duration": 0.09302325581394655,
          "durationTicks": 8,
          "midi": 51,
          "name": "D#3",
          "ticks": 9976,
          "time": 116,
          "velocity": 0.25196850393700787
        },
        {
          "duration": 0.04651162790698038,
          "durationTicks": 4,
          "midi": 39,
          "name": "D#2",
          "ticks": 9981,
          "time": 116.05813953488372,
          "velocity": 0.31496062992125984
        },
        {
          "duration": 0.034883720930224626,
          "durationTicks": 3,
          "midi": 38,
          "name": "D2",
          "ticks": 9985,
          "time": 116.1046511627907,
          "velocity": 0.25196850393700787
        },
        {
          "duration": 0.034883720930224626,
          "durationTicks": 3,
          "midi": 71,
          "name": "B4",
          "ticks": 9985,
          "time": 116.1046511627907,
          "velocity": 0.07086614173228346
        },
        {
          "duration": 0.12790697674418539,
          "durationTicks": 11,
          "midi": 78,
          "name": "F#5",
          "ticks": 9986,
          "time": 116.11627906976744,
          "velocity": 0.15748031496062992
        },
        {
          "duration": 0.04651162790698038,
          "durationTicks": 4,
          "midi": 63,
          "name": "D#4",
          "ticks": 9991,
          "time": 116.17441860465117,
          "velocity": 0.2125984251968504
        },
        {
          "duration": 0.04651162790698038,
          "durationTicks": 4,
          "midi": 67,
          "name": "G4",
          "ticks": 9992,
          "time": 116.18604651162791,
          "velocity": 0.12598425196850394
        },
        {
          "duration": 0.03488372093023884,
          "durationTicks": 3,
          "midi": 61,
          "name": "C#4",
          "ticks": 9994,
          "time": 116.20930232558139,
          "velocity": 0.15748031496062992
        },
        {
          "duration": 0.034883720930224626,
          "durationTicks": 3,
          "midi": 41,
          "name": "F2",
          "ticks": 9996,
          "time": 116.23255813953489,
          "velocity": 0.4330708661417323
        },
        {
          "duration": 0.22093023255813193,
          "durationTicks": 19,
          "midi": 54,
          "name": "F#3",
          "ticks": 9996,
          "time": 116.23255813953489,
          "velocity": 0.2677165354330709
        },
        {
          "duration": 0.16279069767442422,
          "durationTicks": 14,
          "midi": 42,
          "name": "F#2",
          "ticks": 9999,
          "time": 116.26744186046511,
          "velocity": 0.3543307086614173
        },
        {
          "duration": 0.04651162790698038,
          "durationTicks": 4,
          "midi": 71,
          "name": "B4",
          "ticks": 10005,
          "time": 116.33720930232558,
          "velocity": 0.07874015748031496
        },
        {
          "duration": 0.04651162790698038,
          "durationTicks": 4,
          "midi": 78,
          "name": "F#5",
          "ticks": 10007,
          "time": 116.36046511627907,
          "velocity": 0.07874015748031496
        },
        {
          "duration": 0.05813953488372192,
          "durationTicks": 5,
          "midi": 59,
          "name": "B3",
          "ticks": 10008,
          "time": 116.37209302325581,
          "velocity": 0.15748031496062992
        },
        {
          "duration": 0.023255813953483084,
          "durationTicks": 2,
          "midi": 43,
          "name": "G2",
          "ticks": 10013,
          "time": 116.43023255813954,
          "velocity": 0.29133858267716534
        },
        {
          "duration": 0.06976744186046346,
          "durationTicks": 6,
          "midi": 99,
          "name": "D#7",
          "ticks": 10013,
          "time": 116.43023255813954,
          "velocity": 0.10236220472440945
        },
        {
          "duration": 0.05813953488372192,
          "durationTicks": 5,
          "midi": 71,
          "name": "B4",
          "ticks": 10014,
          "time": 116.44186046511628,
          "velocity": 0.18110236220472442
        },
        {
          "duration": 0.1860465116279073,
          "durationTicks": 16,
          "midi": 54,
          "name": "F#3",
          "ticks": 10016,
          "time": 116.46511627906976,
          "velocity": 0.2204724409448819
        },
        {
          "duration": 0.05813953488372192,
          "durationTicks": 5,
          "midi": 35,
          "name": "B1",
          "ticks": 10017,
          "time": 116.47674418604652,
          "velocity": 0.30708661417322836
        },
        {
          "duration": 0.15116279069766847,
          "durationTicks": 13,
          "midi": 35,
          "name": "B1",
          "ticks": 10023,
          "time": 116.54651162790698,
          "velocity": 0.28346456692913385
        },
        {
          "duration": 0.034883720930224626,
          "durationTicks": 3,
          "midi": 46,
          "name": "A#2",
          "ticks": 10024,
          "time": 116.55813953488372,
          "velocity": 0.14173228346456693
        },
        {
          "duration": 0.06976744186046346,
          "durationTicks": 6,
          "midi": 71,
          "name": "B4",
          "ticks": 10024,
          "time": 116.55813953488372,
          "velocity": 0.12598425196850394
        },
        {
          "duration": 0.081395348837205,
          "durationTicks": 7,
          "midi": 59,
          "name": "B3",
          "ticks": 10025,
          "time": 116.56976744186046,
          "velocity": 0.16535433070866143
        },
        {
          "duration": 0.1046511627907023,
          "durationTicks": 9,
          "midi": 78,
          "name": "F#5",
          "ticks": 10025,
          "time": 116.56976744186046,
          "velocity": 0.14960629921259844
        },
        {
          "duration": 0.05813953488372192,
          "durationTicks": 5,
          "midi": 54,
          "name": "F#3",
          "ticks": 10034,
          "time": 116.67441860465117,
          "velocity": 0.14173228346456693
        },
        {
          "duration": 0.06976744186046346,
          "durationTicks": 6,
          "midi": 67,
          "name": "G4",
          "ticks": 10034,
          "time": 116.67441860465117,
          "velocity": 0.2047244094488189
        },
        {
          "duration": 0.023255813953483084,
          "durationTicks": 2,
          "midi": 35,
          "name": "B1",
          "ticks": 10040,
          "time": 116.74418604651163,
          "velocity": 0.2677165354330709
        },
        {
          "duration": 0.09302325581396076,
          "durationTicks": 8,
          "midi": 78,
          "name": "F#5",
          "ticks": 10043,
          "time": 116.77906976744185,
          "velocity": 0.16535433070866143
        },
        {
          "duration": 0.04651162790696617,
          "durationTicks": 4,
          "midi": 67,
          "name": "G4",
          "ticks": 10044,
          "time": 116.79069767441861,
          "velocity": 0.16535433070866143
        },
        {
          "duration": 0.04651162790696617,
          "durationTicks": 4,
          "midi": 71,
          "name": "B4",
          "ticks": 10044,
          "time": 116.79069767441861,
          "velocity": 0.09448818897637795
        },
        {
          "duration": 0.023255813953497295,
          "durationTicks": 2,
          "midi": 53,
          "name": "F3",
          "ticks": 10048,
          "time": 116.83720930232558,
          "velocity": 0.23622047244094488
        },
        {
          "duration": 0.05813953488372192,
          "durationTicks": 5,
          "midi": 88,
          "name": "E6",
          "ticks": 10053,
          "time": 116.8953488372093,
          "velocity": 0.07086614173228346
        },
        {
          "duration": 0.09302325581394655,
          "durationTicks": 8,
          "midi": 58,
          "name": "A#3",
          "ticks": 10054,
          "time": 116.90697674418605,
          "velocity": 0.1889763779527559
        },
        {
          "duration": 0.023255813953483084,
          "durationTicks": 2,
          "midi": 50,
          "name": "D3",
          "ticks": 10055,
          "time": 116.9186046511628,
          "velocity": 0.31496062992125984
        },
        {
          "duration": 0.09302325581396076,
          "durationTicks": 8,
          "midi": 51,
          "name": "D#3",
          "ticks": 10057,
          "time": 116.94186046511628,
          "velocity": 0.2204724409448819
        },
        {
          "duration": 0.023255813953497295,
          "durationTicks": 2,
          "midi": 40,
          "name": "E2",
          "ticks": 10058,
          "time": 116.95348837209302,
          "velocity": 0.3700787401574803
        },
        {
          "duration": 0.023255813953483084,
          "durationTicks": 2,
          "midi": 39,
          "name": "D#2",
          "ticks": 10060,
          "time": 116.97674418604652,
          "velocity": 0.33070866141732286
        },
        {
          "duration": 0.023255813953497295,
          "durationTicks": 2,
          "midi": 39,
          "name": "D#2",
          "ticks": 10063,
          "time": 117.01162790697674,
          "velocity": 0.28346456692913385
        },
        {
          "duration": 0.09302325581394655,
          "durationTicks": 8,
          "midi": 71,
          "name": "B4",
          "ticks": 10065,
          "time": 117.03488372093024,
          "velocity": 0.10236220472440945
        },
        {
          "duration": 0.081395348837205,
          "durationTicks": 7,
          "midi": 78,
          "name": "F#5",
          "ticks": 10066,
          "time": 117.04651162790698,
          "velocity": 0.16535433070866143
        },
        {
          "duration": 0.023255813953483084,
          "durationTicks": 2,
          "midi": 53,
          "name": "F3",
          "ticks": 10073,
          "time": 117.12790697674419,
          "velocity": 0.2440944881889764
        },
        {
          "duration": 0.023255813953497295,
          "durationTicks": 2,
          "midi": 40,
          "name": "E2",
          "ticks": 10074,
          "time": 117.13953488372093,
          "velocity": 0.4251968503937008
        },
        {
          "duration": 0.22093023255814614,
          "durationTicks": 19,
          "midi": 78,
          "name": "F#5",
          "ticks": 10074,
          "time": 117.13953488372093,
          "velocity": 0.23622047244094488
        },
        {
          "duration": 0.06976744186046346,
          "durationTicks": 6,
          "midi": 85,
          "name": "C#6",
          "ticks": 10074,
          "time": 117.13953488372093,
          "velocity": 0.07874015748031496
        },
        {
          "duration": 0.023255813953483084,
          "durationTicks": 2,
          "midi": 41,
          "name": "F2",
          "ticks": 10076,
          "time": 117.16279069767442,
          "velocity": 0.41732283464566927
        },
        {
          "duration": 0.1860465116279073,
          "durationTicks": 16,
          "midi": 42,
          "name": "F#2",
          "ticks": 10078,
          "time": 117.18604651162791,
          "velocity": 0.3464566929133858
        },
        {
          "duration": 0.034883720930224626,
          "durationTicks": 3,
          "midi": 70,
          "name": "A#4",
          "ticks": 10083,
          "time": 117.24418604651163,
          "velocity": 0.2440944881889764
        },
        {
          "duration": 0.04651162790698038,
          "durationTicks": 4,
          "midi": 71,
          "name": "B4",
          "ticks": 10085,
          "time": 117.26744186046511,
          "velocity": 0.12598425196850394
        },
        {
          "duration": 0.023255813953483084,
          "durationTicks": 2,
          "midi": 57,
          "name": "A3",
          "ticks": 10093,
          "time": 117.36046511627907,
          "velocity": 0.25196850393700787
        },
        {
          "duration": 0.023255813953483084,
          "durationTicks": 2,
          "midi": 41,
          "name": "F2",
          "ticks": 10094,
          "time": 117.37209302325581,
          "velocity": 0.36220472440944884
        },
        {
          "duration": 0.023255813953497295,
          "durationTicks": 2,
          "midi": 67,
          "name": "G4",
          "ticks": 10095,
          "time": 117.38372093023256,
          "velocity": 0.23622047244094488
        },
        {
          "duration": 0.19767441860464885,
          "durationTicks": 17,
          "midi": 78,
          "name": "F#5",
          "ticks": 10096,
          "time": 117.3953488372093,
          "velocity": 0.2125984251968504
        },
        {
          "duration": 0.023255813953483084,
          "durationTicks": 2,
          "midi": 53,
          "name": "F3",
          "ticks": 10097,
          "time": 117.40697674418605,
          "velocity": 0.2755905511811024
        },
        {
          "duration": 0.25581395348837077,
          "durationTicks": 22,
          "midi": 59,
          "name": "B3",
          "ticks": 10097,
          "time": 117.40697674418605,
          "velocity": 0.25196850393700787
        },
        {
          "duration": 0.1860465116278931,
          "durationTicks": 16,
          "midi": 66,
          "name": "F#4",
          "ticks": 10097,
          "time": 117.40697674418605,
          "velocity": 0.2125984251968504
        },
        {
          "duration": 0.15116279069766847,
          "durationTicks": 13,
          "midi": 35,
          "name": "B1",
          "ticks": 10098,
          "time": 117.4186046511628,
          "velocity": 0.28346456692913385
        },
        {
          "duration": 0.05813953488372192,
          "durationTicks": 5,
          "midi": 54,
          "name": "F#3",
          "ticks": 10099,
          "time": 117.43023255813954,
          "velocity": 0.2283464566929134
        },
        {
          "duration": 0.09302325581396076,
          "durationTicks": 8,
          "midi": 35,
          "name": "B1",
          "ticks": 10112,
          "time": 117.5813953488372,
          "velocity": 0.2677165354330709
        },
        {
          "duration": 0.081395348837205,
          "durationTicks": 7,
          "midi": 99,
          "name": "D#7",
          "ticks": 10114,
          "time": 117.6046511627907,
          "velocity": 0.13385826771653545
        },
        {
          "duration": 0.1046511627907023,
          "durationTicks": 9,
          "midi": 78,
          "name": "F#5",
          "ticks": 10123,
          "time": 117.70930232558139,
          "velocity": 0.11023622047244094
        },
        {
          "duration": 0.11627906976744384,
          "durationTicks": 10,
          "midi": 66,
          "name": "F#4",
          "ticks": 10125,
          "time": 117.73255813953489,
          "velocity": 0.15748031496062992
        },
        {
          "duration": 0.03488372093023884,
          "durationTicks": 3,
          "midi": 59,
          "name": "B3",
          "ticks": 10127,
          "time": 117.75581395348837,
          "velocity": 0.12598425196850394
        },
        {
          "duration": 0.08139534883721922,
          "durationTicks": 7,
          "midi": 63,
          "name": "D#4",
          "ticks": 10128,
          "time": 117.76744186046511,
          "velocity": 0.14173228346456693
        },
        {
          "duration": 0.04651162790698038,
          "durationTicks": 4,
          "midi": 59,
          "name": "B3",
          "ticks": 10131,
          "time": 117.80232558139535,
          "velocity": 0.08661417322834646
        },
        {
          "duration": 0.09302325581396076,
          "durationTicks": 8,
          "midi": 72,
          "name": "C5",
          "ticks": 10133,
          "time": 117.82558139534883,
          "velocity": 0.2283464566929134
        },
        {
          "duration": 0.03488372093023884,
          "durationTicks": 3,
          "midi": 74,
          "name": "D5",
          "ticks": 10134,
          "time": 117.83720930232558,
          "velocity": 0.1732283464566929
        },
        {
          "duration": 0.034883720930224626,
          "durationTicks": 3,
          "midi": 37,
          "name": "C#2",
          "ticks": 10135,
          "time": 117.84883720930233,
          "velocity": 0.3858267716535433
        },
        {
          "duration": 0.11627906976742963,
          "durationTicks": 10,
          "midi": 51,
          "name": "D#3",
          "ticks": 10135,
          "time": 117.84883720930233,
          "velocity": 0.29133858267716534
        },
        {
          "duration": 0.081395348837205,
          "durationTicks": 7,
          "midi": 58,
          "name": "A#3",
          "ticks": 10135,
          "time": 117.84883720930233,
          "velocity": 0.11811023622047244
        },
        {
          "duration": 0.034883720930224626,
          "durationTicks": 3,
          "midi": 39,
          "name": "D#2",
          "ticks": 10141,
          "time": 117.9186046511628,
          "velocity": 0.30708661417322836
        },
        {
          "duration": 0.06976744186047767,
          "durationTicks": 6,
          "midi": 71,
          "name": "B4",
          "ticks": 10145,
          "time": 117.96511627906976,
          "velocity": 0.13385826771653545
        },
        {
          "duration": 0.023255813953483084,
          "durationTicks": 2,
          "midi": 59,
          "name": "B3",
          "ticks": 10146,
          "time": 117.97674418604652,
          "velocity": 0.2440944881889764
        },
        {
          "duration": 0.06976744186046346,
          "durationTicks": 6,
          "midi": 66,
          "name": "F#4",
          "ticks": 10146,
          "time": 117.97674418604652,
          "velocity": 0.07874015748031496
        },
        {
          "duration": 0.081395348837205,
          "durationTicks": 7,
          "midi": 78,
          "name": "F#5",
          "ticks": 10146,
          "time": 117.97674418604652,
          "velocity": 0.13385826771653545
        },
        {
          "duration": 0.05813953488372192,
          "durationTicks": 5,
          "midi": 63,
          "name": "D#4",
          "ticks": 10147,
          "time": 117.98837209302326,
          "velocity": 0.10236220472440945
        },
        {
          "duration": 0.023255813953483084,
          "durationTicks": 2,
          "midi": 62,
          "name": "D4",
          "ticks": 10152,
          "time": 118.04651162790698,
          "velocity": 0.25984251968503935
        },
        {
          "duration": 0.03488372093023884,
          "durationTicks": 3,
          "midi": 61,
          "name": "C#4",
          "ticks": 10154,
          "time": 118.06976744186046,
          "velocity": 0.2125984251968504
        },
        {
          "duration": 0.15116279069768268,
          "durationTicks": 13,
          "midi": 54,
          "name": "F#3",
          "ticks": 10155,
          "time": 118.0813953488372,
          "velocity": 0.28346456692913385
        },
        {
          "duration": 0.19767441860464885,
          "durationTicks": 17,
          "midi": 42,
          "name": "F#2",
          "ticks": 10157,
          "time": 118.1046511627907,
          "velocity": 0.3779527559055118
        },
        {
          "duration": 0.04651162790698038,
          "durationTicks": 4,
          "midi": 64,
          "name": "E4",
          "ticks": 10161,
          "time": 118.15116279069767,
          "velocity": 0.08661417322834646
        },
        {
          "duration": 0.03488372093023884,
          "durationTicks": 3,
          "midi": 58,
          "name": "A#3",
          "ticks": 10164,
          "time": 118.18604651162791,
          "velocity": 0.1889763779527559
        },
        {
          "duration": 0.04651162790698038,
          "durationTicks": 4,
          "midi": 71,
          "name": "B4",
          "ticks": 10164,
          "time": 118.18604651162791,
          "velocity": 0.10236220472440945
        },
        {
          "duration": 0.06976744186046346,
          "durationTicks": 6,
          "midi": 78,
          "name": "F#5",
          "ticks": 10166,
          "time": 118.20930232558139,
          "velocity": 0.10236220472440945
        },
        {
          "duration": 0.06976744186046346,
          "durationTicks": 6,
          "midi": 71,
          "name": "B4",
          "ticks": 10175,
          "time": 118.31395348837209,
          "velocity": 0.1732283464566929
        },
        {
          "duration": 0.034883720930224626,
          "durationTicks": 3,
          "midi": 34,
          "name": "A#1",
          "ticks": 10178,
          "time": 118.34883720930233,
          "velocity": 0.2677165354330709
        },
        {
          "duration": 0.15116279069766847,
          "durationTicks": 13,
          "midi": 47,
          "name": "B2",
          "ticks": 10180,
          "time": 118.37209302325581,
          "velocity": 0.2992125984251969
        },
        {
          "duration": 0.17441860465115155,
          "durationTicks": 15,
          "midi": 35,
          "name": "B1",
          "ticks": 10183,
          "time": 118.40697674418605,
          "velocity": 0.2677165354330709
        },
        {
          "duration": 0.11627906976744384,
          "durationTicks": 10,
          "midi": 78,
          "name": "F#5",
          "ticks": 10186,
          "time": 118.44186046511628,
          "velocity": 0.15748031496062992
        },
        {
          "duration": 0.04651162790698038,
          "durationTicks": 4,
          "midi": 54,
          "name": "F#3",
          "ticks": 10193,
          "time": 118.52325581395348,
          "velocity": 0.15748031496062992
        },
        {
          "duration": 0.081395348837205,
          "durationTicks": 7,
          "midi": 67,
          "name": "G4",
          "ticks": 10194,
          "time": 118.53488372093024,
          "velocity": 0.23622047244094488
        },
        {
          "duration": 0.034883720930224626,
          "durationTicks": 3,
          "midi": 86,
          "name": "D6",
          "ticks": 10194,
          "time": 118.53488372093024,
          "velocity": 0.08661417322834646
        },
        {
          "duration": 0.05813953488372192,
          "durationTicks": 5,
          "midi": 35,
          "name": "B1",
          "ticks": 10199,
          "time": 118.59302325581395,
          "velocity": 0.25196850393700787
        },
        {
          "duration": 0.08139534883721922,
          "durationTicks": 7,
          "midi": 78,
          "name": "F#5",
          "ticks": 10204,
          "time": 118.65116279069767,
          "velocity": 0.11023622047244094
        },
        {
          "duration": 0.034883720930224626,
          "durationTicks": 3,
          "midi": 71,
          "name": "B4",
          "ticks": 10205,
          "time": 118.66279069767442,
          "velocity": 0.07086614173228346
        },
        {
          "duration": 0.081395348837205,
          "durationTicks": 7,
          "midi": 66,
          "name": "F#4",
          "ticks": 10207,
          "time": 118.68604651162791,
          "velocity": 0.14960629921259844
        },
        {
          "duration": 0.034883720930224626,
          "durationTicks": 3,
          "midi": 47,
          "name": "B2",
          "ticks": 10210,
          "time": 118.72093023255815,
          "velocity": 0.2204724409448819
        },
        {
          "duration": 0.03488372093023884,
          "durationTicks": 3,
          "midi": 81,
          "name": "A5",
          "ticks": 10213,
          "time": 118.75581395348837,
          "velocity": 0.15748031496062992
        },
        {
          "duration": 0.03488372093023884,
          "durationTicks": 3,
          "midi": 50,
          "name": "D3",
          "ticks": 10214,
          "time": 118.76744186046511,
          "velocity": 0.30708661417322836
        },
        {
          "duration": 0.05813953488372192,
          "durationTicks": 5,
          "midi": 39,
          "name": "D#2",
          "ticks": 10217,
          "time": 118.80232558139535,
          "velocity": 0.33858267716535434
        },
        {
          "duration": 0.04651162790698038,
          "durationTicks": 4,
          "midi": 58,
          "name": "A#3",
          "ticks": 10217,
          "time": 118.80232558139535,
          "velocity": 0.09448818897637795
        },
        {
          "duration": 0.03488372093023884,
          "durationTicks": 3,
          "midi": 93,
          "name": "A6",
          "ticks": 10218,
          "time": 118.81395348837209,
          "velocity": 0.10236220472440945
        },
        {
          "duration": 0.03488372093023884,
          "durationTicks": 3,
          "midi": 36,
          "name": "C2",
          "ticks": 10225,
          "time": 118.8953488372093,
          "velocity": 0.18110236220472442
        },
        {
          "duration": 0.04651162790698038,
          "durationTicks": 4,
          "midi": 66,
          "name": "F#4",
          "ticks": 10225,
          "time": 118.8953488372093,
          "velocity": 0.07874015748031496
        },
        {
          "duration": 0.08139534883721922,
          "durationTicks": 7,
          "midi": 71,
          "name": "B4",
          "ticks": 10225,
          "time": 118.8953488372093,
          "velocity": 0.11811023622047244
        },
        {
          "duration": 0.034883720930224626,
          "durationTicks": 3,
          "midi": 57,
          "name": "A3",
          "ticks": 10227,
          "time": 118.9186046511628,
          "velocity": 0.14960629921259844
        },
        {
          "duration": 0.32558139534883423,
          "durationTicks": 28,
          "midi": 78,
          "name": "F#5",
          "ticks": 10227,
          "time": 118.9186046511628,
          "velocity": 0.2283464566929134
        },
        {
          "duration": 0.03488372093023884,
          "durationTicks": 3,
          "midi": 63,
          "name": "D#4",
          "ticks": 10229,
          "time": 118.94186046511628,
          "velocity": 0.11023622047244094
        },
        {
          "duration": 0.10465116279068809,
          "durationTicks": 9,
          "midi": 66,
          "name": "F#4",
          "ticks": 10232,
          "time": 118.97674418604652,
          "velocity": 0.1968503937007874
        },
        {
          "duration": 0.081395348837205,
          "durationTicks": 7,
          "midi": 85,
          "name": "C#6",
          "ticks": 10233,
          "time": 118.98837209302326,
          "velocity": 0.12598425196850394
        },
        {
          "duration": 0.04651162790698038,
          "durationTicks": 4,
          "midi": 61,
          "name": "C#4",
          "ticks": 10234,
          "time": 119,
          "velocity": 0.14173228346456693
        },
        {
          "duration": 0.023255813953497295,
          "durationTicks": 2,
          "midi": 40,
          "name": "E2",
          "ticks": 10235,
          "time": 119.01162790697674,
          "velocity": 0.41732283464566927
        },
        {
          "duration": 0.06976744186046346,
          "durationTicks": 6,
          "midi": 57,
          "name": "A3",
          "ticks": 10237,
          "time": 119.03488372093024,
          "velocity": 0.2204724409448819
        },
        {
          "duration": 0.06976744186046346,
          "durationTicks": 6,
          "midi": 42,
          "name": "F#2",
          "ticks": 10238,
          "time": 119.04651162790698,
          "velocity": 0.3464566929133858
        },
        {
          "duration": 0.034883720930224626,
          "durationTicks": 3,
          "midi": 70,
          "name": "A#4",
          "ticks": 10244,
          "time": 119.11627906976744,
          "velocity": 0.14960629921259844
        },
        {
          "duration": 0.1046511627907023,
          "durationTicks": 9,
          "midi": 42,
          "name": "F#2",
          "ticks": 10245,
          "time": 119.12790697674419,
          "velocity": 0.33070866141732286
        },
        {
          "duration": 0.03488372093023884,
          "durationTicks": 3,
          "midi": 64,
          "name": "E4",
          "ticks": 10245,
          "time": 119.12790697674419,
          "velocity": 0.14960629921259844
        },
        {
          "duration": 0.034883720930224626,
          "durationTicks": 3,
          "midi": 58,
          "name": "A#3",
          "ticks": 10253,
          "time": 119.22093023255815,
          "velocity": 0.15748031496062992
        },
        {
          "duration": 0.04651162790696617,
          "durationTicks": 4,
          "midi": 71,
          "name": "B4",
          "ticks": 10253,
          "time": 119.22093023255815,
          "velocity": 0.11023622047244094
        },
        {
          "duration": 0.023255813953483084,
          "durationTicks": 2,
          "midi": 67,
          "name": "G4",
          "ticks": 10255,
          "time": 119.24418604651163,
          "velocity": 0.23622047244094488
        },
        {
          "duration": 0.2325581395348877,
          "durationTicks": 20,
          "midi": 78,
          "name": "F#5",
          "ticks": 10256,
          "time": 119.25581395348837,
          "velocity": 0.1968503937007874
        },
        {
          "duration": 0.13953488372094114,
          "durationTicks": 12,
          "midi": 66,
          "name": "F#4",
          "ticks": 10257,
          "time": 119.26744186046511,
          "velocity": 0.2283464566929134
        },
        {
          "duration": 0.023255813953483084,
          "durationTicks": 2,
          "midi": 35,
          "name": "B1",
          "ticks": 10259,
          "time": 119.29069767441861,
          "velocity": 0.2677165354330709
        },
        {
          "duration": 0.17441860465115155,
          "durationTicks": 15,
          "midi": 47,
          "name": "B2",
          "ticks": 10259,
          "time": 119.29069767441861,
          "velocity": 0.2677165354330709
        },
        {
          "duration": 0.05813953488372192,
          "durationTicks": 5,
          "midi": 54,
          "name": "F#3",
          "ticks": 10259,
          "time": 119.29069767441861,
          "velocity": 0.15748031496062992
        },
        {
          "duration": 0.15116279069768268,
          "durationTicks": 13,
          "midi": 35,
          "name": "B1",
          "ticks": 10262,
          "time": 119.32558139534883,
          "velocity": 0.2677165354330709
        },
        {
          "duration": 0.05813953488372192,
          "durationTicks": 5,
          "midi": 54,
          "name": "F#3",
          "ticks": 10265,
          "time": 119.36046511627907,
          "velocity": 0.11023622047244094
        },
        {
          "duration": 0.05813953488372192,
          "durationTicks": 5,
          "midi": 71,
          "name": "B4",
          "ticks": 10265,
          "time": 119.36046511627907,
          "velocity": 0.10236220472440945
        },
        {
          "duration": 0.05813953488372192,
          "durationTicks": 5,
          "midi": 54,
          "name": "F#3",
          "ticks": 10274,
          "time": 119.46511627906976,
          "velocity": 0.13385826771653545
        },
        {
          "duration": 0.09302325581396076,
          "durationTicks": 8,
          "midi": 71,
          "name": "B4",
          "ticks": 10274,
          "time": 119.46511627906976,
          "velocity": 0.18110236220472442
        },
        {
          "duration": 0.06976744186046346,
          "durationTicks": 6,
          "midi": 99,
          "name": "D#7",
          "ticks": 10275,
          "time": 119.47674418604652,
          "velocity": 0.09448818897637795
        },
        {
          "duration": 0.023255813953483084,
          "durationTicks": 2,
          "midi": 35,
          "name": "B1",
          "ticks": 10276,
          "time": 119.48837209302326,
          "velocity": 0.28346456692913385
        },
        {
          "duration": 0.03488372093023884,
          "durationTicks": 3,
          "midi": 57,
          "name": "A3",
          "ticks": 10278,
          "time": 119.51162790697674,
          "velocity": 0.18110236220472442
        },
        {
          "duration": 0.03488372093023884,
          "durationTicks": 3,
          "midi": 35,
          "name": "B1",
          "ticks": 10279,
          "time": 119.52325581395348,
          "velocity": 0.25984251968503935
        },
        {
          "duration": 0.04651162790698038,
          "durationTicks": 4,
          "midi": 66,
          "name": "F#4",
          "ticks": 10283,
          "time": 119.56976744186046,
          "velocity": 0.12598425196850394
        },
        {
          "duration": 0.05813953488372192,
          "durationTicks": 5,
          "midi": 59,
          "name": "B3",
          "ticks": 10287,
          "time": 119.61627906976744,
          "velocity": 0.18110236220472442
        },
        {
          "duration": 0.081395348837205,
          "durationTicks": 7,
          "midi": 78,
          "name": "F#5",
          "ticks": 10288,
          "time": 119.62790697674419,
          "velocity": 0.11023622047244094
        },
        {
          "duration": 0.034883720930224626,
          "durationTicks": 3,
          "midi": 47,
          "name": "B2",
          "ticks": 10291,
          "time": 119.66279069767442,
          "velocity": 0.2283464566929134
        },
        {
          "duration": 0.03488372093023884,
          "durationTicks": 3,
          "midi": 63,
          "name": "D#4",
          "ticks": 10294,
          "time": 119.69767441860465,
          "velocity": 0.10236220472440945
        },
        {
          "duration": 0.06976744186046346,
          "durationTicks": 6,
          "midi": 72,
          "name": "C5",
          "ticks": 10294,
          "time": 119.69767441860465,
          "velocity": 0.2992125984251969
        },
        {
          "duration": 0.023255813953483084,
          "durationTicks": 2,
          "midi": 36,
          "name": "C2",
          "ticks": 10296,
          "time": 119.72093023255815,
          "velocity": 0.3700787401574803
        },
        {
          "duration": 0.10465116279068809,
          "durationTicks": 9,
          "midi": 51,
          "name": "D#3",
          "ticks": 10296,
          "time": 119.72093023255815,
          "velocity": 0.25984251968503935
        },
        {
          "duration": 0.06976744186046346,
          "durationTicks": 6,
          "midi": 58,
          "name": "A#3",
          "ticks": 10297,
          "time": 119.73255813953489,
          "velocity": 0.08661417322834646
        },
        {
          "duration": 0.081395348837205,
          "durationTicks": 7,
          "midi": 39,
          "name": "D#2",
          "ticks": 10299,
          "time": 119.75581395348837,
          "velocity": 0.31496062992125984
        },
        {
          "duration": 0.03488372093023884,
          "durationTicks": 3,
          "midi": 71,
          "name": "B4",
          "ticks": 10300,
          "time": 119.76744186046511,
          "velocity": 0.15748031496062992
        },
        {
          "duration": 0.1046511627907023,
          "durationTicks": 9,
          "midi": 71,
          "name": "B4",
          "ticks": 10305,
          "time": 119.82558139534883,
          "velocity": 0.1968503937007874
        },
        {
          "duration": 0.06976744186047767,
          "durationTicks": 6,
          "midi": 59,
          "name": "B3",
          "ticks": 10306,
          "time": 119.83720930232558,
          "velocity": 0.1968503937007874
        },
        {
          "duration": 0.034883720930224626,
          "durationTicks": 3,
          "midi": 36,
          "name": "C2",
          "ticks": 10307,
          "time": 119.84883720930233,
          "velocity": 0.1732283464566929
        },
        {
          "duration": 0.034883720930224626,
          "durationTicks": 3,
          "midi": 63,
          "name": "D#4",
          "ticks": 10307,
          "time": 119.84883720930233,
          "velocity": 0.09448818897637795
        },
        {
          "duration": 0.09302325581394655,
          "durationTicks": 8,
          "midi": 78,
          "name": "F#5",
          "ticks": 10307,
          "time": 119.84883720930233,
          "velocity": 0.14173228346456693
        },
        {
          "duration": 0.034883720930224626,
          "durationTicks": 3,
          "midi": 64,
          "name": "E4",
          "ticks": 10313,
          "time": 119.9186046511628,
          "velocity": 0.2755905511811024
        },
        {
          "duration": 0.034883720930224626,
          "durationTicks": 3,
          "midi": 70,
          "name": "A#4",
          "ticks": 10314,
          "time": 119.93023255813954,
          "velocity": 0.16535433070866143
        },
        {
          "duration": 0.023255813953497295,
          "durationTicks": 2,
          "midi": 40,
          "name": "E2",
          "ticks": 10316,
          "time": 119.95348837209302,
          "velocity": 0.4015748031496063
        },
        {
          "duration": 0.09302325581396076,
          "durationTicks": 8,
          "midi": 57,
          "name": "A3",
          "ticks": 10317,
          "time": 119.96511627906976,
          "velocity": 0.2204724409448819
        },
        {
          "duration": 0.04651162790696617,
          "durationTicks": 4,
          "midi": 61,
          "name": "C#4",
          "ticks": 10318,
          "time": 119.97674418604652,
          "velocity": 0.07874015748031496
        },
        {
          "duration": 0.13953488372092693,
          "durationTicks": 12,
          "midi": 42,
          "name": "F#2",
          "ticks": 10319,
          "time": 119.98837209302326,
          "velocity": 0.3464566929133858
        },
        {
          "duration": 0.023255813953483084,
          "durationTicks": 2,
          "midi": 58,
          "name": "A#3",
          "ticks": 10325,
          "time": 120.05813953488372,
          "velocity": 0.23622047244094488
        },
        {
          "duration": 0.034883720930224626,
          "durationTicks": 3,
          "midi": 71,
          "name": "B4",
          "ticks": 10325,
          "time": 120.05813953488372,
          "velocity": 0.11811023622047244
        },
        {
          "duration": 0.06976744186046346,
          "durationTicks": 6,
          "midi": 78,
          "name": "F#5",
          "ticks": 10326,
          "time": 120.06976744186046,
          "velocity": 0.10236220472440945
        },
        {
          "duration": 0.05813953488372192,
          "durationTicks": 5,
          "midi": 71,
          "name": "B4",
          "ticks": 10333,
          "time": 120.15116279069767,
          "velocity": 0.1732283464566929
        },
        {
          "duration": 0.023255813953483084,
          "durationTicks": 2,
          "midi": 53,
          "name": "F3",
          "ticks": 10334,
          "time": 120.16279069767442,
          "velocity": 0.2992125984251969
        },
        {
          "duration": 0.13953488372092693,
          "durationTicks": 12,
          "midi": 54,
          "name": "F#3",
          "ticks": 10336,
          "time": 120.18604651162791,
          "velocity": 0.28346456692913385
        },
        {
          "duration": 0.023255813953497295,
          "durationTicks": 2,
          "midi": 35,
          "name": "B1",
          "ticks": 10337,
          "time": 120.19767441860465,
          "velocity": 0.2992125984251969
        },
        {
          "duration": 0.05813953488372192,
          "durationTicks": 5,
          "midi": 35,
          "name": "B1",
          "ticks": 10340,
          "time": 120.23255813953489,
          "velocity": 0.25196850393700787
        },
        {
          "duration": 0.023255813953483084,
          "durationTicks": 2,
          "midi": 47,
          "name": "B2",
          "ticks": 10345,
          "time": 120.29069767441861,
          "velocity": 0.23622047244094488
        },
        {
          "duration": 0.034883720930224626,
          "durationTicks": 3,
          "midi": 71,
          "name": "B4",
          "ticks": 10345,
          "time": 120.29069767441861,
          "velocity": 0.08661417322834646
        },
        {
          "duration": 0.1046511627907023,
          "durationTicks": 9,
          "midi": 78,
          "name": "F#5",
          "ticks": 10346,
          "time": 120.30232558139535,
          "velocity": 0.18110236220472442
        },
        {
          "duration": 0.1046511627907023,
          "durationTicks": 9,
          "midi": 47,
          "name": "B2",
          "ticks": 10348,
          "time": 120.32558139534883,
          "velocity": 0.2440944881889764
        },
        {
          "duration": 0.13953488372094114,
          "durationTicks": 12,
          "midi": 35,
          "name": "B1",
          "ticks": 10349,
          "time": 120.33720930232558,
          "velocity": 0.25196850393700787
        },
        {
          "duration": 0.03488372093023884,
          "durationTicks": 3,
          "midi": 54,
          "name": "F#3",
          "ticks": 10349,
          "time": 120.33720930232558,
          "velocity": 0.18110236220472442
        },
        {
          "duration": 0.03488372093023884,
          "durationTicks": 3,
          "midi": 76,
          "name": "E5",
          "ticks": 10353,
          "time": 120.38372093023256,
          "velocity": 0.13385826771653545
        },
        {
          "duration": 0.08139534883721922,
          "durationTicks": 7,
          "midi": 67,
          "name": "G4",
          "ticks": 10354,
          "time": 120.3953488372093,
          "velocity": 0.1889763779527559
        },
        {
          "duration": 0.023255813953483084,
          "durationTicks": 2,
          "midi": 46,
          "name": "A#2",
          "ticks": 10357,
          "time": 120.43023255813954,
          "velocity": 0.2283464566929134
        },
        {
          "duration": 0.034883720930224626,
          "durationTicks": 3,
          "midi": 35,
          "name": "B1",
          "ticks": 10362,
          "time": 120.48837209302326,
          "velocity": 0.2755905511811024
        },
        {
          "duration": 0.11627906976744384,
          "durationTicks": 10,
          "midi": 78,
          "name": "F#5",
          "ticks": 10364,
          "time": 120.51162790697674,
          "velocity": 0.12598425196850394
        },
        {
          "duration": 0.034883720930224626,
          "durationTicks": 3,
          "midi": 53,
          "name": "F3",
          "ticks": 10366,
          "time": 120.53488372093024,
          "velocity": 0.2125984251968504
        },
        {
          "duration": 0.06976744186046346,
          "durationTicks": 6,
          "midi": 71,
          "name": "B4",
          "ticks": 10366,
          "time": 120.53488372093024,
          "velocity": 0.09448818897637795
        },
        {
          "duration": 0.04651162790698038,
          "durationTicks": 4,
          "midi": 59,
          "name": "B3",
          "ticks": 10368,
          "time": 120.55813953488372,
          "velocity": 0.08661417322834646
        },
        {
          "duration": 0.03488372093023884,
          "durationTicks": 3,
          "midi": 54,
          "name": "F#3",
          "ticks": 10369,
          "time": 120.56976744186046,
          "velocity": 0.11811023622047244
        },
        {
          "duration": 0.034883720930224626,
          "durationTicks": 3,
          "midi": 41,
          "name": "F2",
          "ticks": 10373,
          "time": 120.61627906976744,
          "velocity": 0.33070866141732286
        },
        {
          "duration": 0.1046511627907023,
          "durationTicks": 9,
          "midi": 51,
          "name": "D#3",
          "ticks": 10376,
          "time": 120.65116279069767,
          "velocity": 0.28346456692913385
        },
        {
          "duration": 0.04651162790698038,
          "durationTicks": 4,
          "midi": 39,
          "name": "D#2",
          "ticks": 10378,
          "time": 120.67441860465117,
          "velocity": 0.3543307086614173
        },
        {
          "duration": 0.05813953488372192,
          "durationTicks": 5,
          "midi": 58,
          "name": "A#3",
          "ticks": 10378,
          "time": 120.67441860465117,
          "velocity": 0.11023622047244094
        },
        {
          "duration": 0.034883720930224626,
          "durationTicks": 3,
          "midi": 39,
          "name": "D#2",
          "ticks": 10383,
          "time": 120.73255813953489,
          "velocity": 0.3228346456692913
        },
        {
          "duration": 0.04651162790698038,
          "durationTicks": 4,
          "midi": 59,
          "name": "B3",
          "ticks": 10384,
          "time": 120.74418604651163,
          "velocity": 0.15748031496062992
        },
        {
          "duration": 0.03488372093023884,
          "durationTicks": 3,
          "midi": 52,
          "name": "E3",
          "ticks": 10385,
          "time": 120.75581395348837,
          "velocity": 0.14960629921259844
        },
        {
          "duration": 0.3139534883720927,
          "durationTicks": 27,
          "midi": 78,
          "name": "F#5",
          "ticks": 10385,
          "time": 120.75581395348837,
          "velocity": 0.23622047244094488
        },
        {
          "duration": 0.08139534883721922,
          "durationTicks": 7,
          "midi": 63,
          "name": "D#4",
          "ticks": 10386,
          "time": 120.76744186046511,
          "velocity": 0.10236220472440945
        },
        {
          "duration": 0.04651162790698038,
          "durationTicks": 4,
          "midi": 66,
          "name": "F#4",
          "ticks": 10387,
          "time": 120.77906976744185,
          "velocity": 0.07874015748031496
        },
        {
          "duration": 0.05813953488372192,
          "durationTicks": 5,
          "midi": 57,
          "name": "A3",
          "ticks": 10389,
          "time": 120.80232558139535,
          "velocity": 0.2047244094488189
        },
        {
          "duration": 0.04651162790698038,
          "durationTicks": 4,
          "midi": 61,
          "name": "C#4",
          "ticks": 10394,
          "time": 120.86046511627907,
          "velocity": 0.14960629921259844
        },
        {
          "duration": 0.06976744186046346,
          "durationTicks": 6,
          "midi": 85,
          "name": "C#6",
          "ticks": 10394,
          "time": 120.86046511627907,
          "velocity": 0.11811023622047244
        },
        {
          "duration": 0.023255813953483084,
          "durationTicks": 2,
          "midi": 55,
          "name": "G3",
          "ticks": 10395,
          "time": 120.87209302325581,
          "velocity": 0.29133858267716534
        },
        {
          "duration": 0.03488372093023884,
          "durationTicks": 3,
          "midi": 54,
          "name": "F#3",
          "ticks": 10397,
          "time": 120.8953488372093,
          "velocity": 0.25196850393700787
        },
        {
          "duration": 0.1860465116279073,
          "durationTicks": 16,
          "midi": 42,
          "name": "F#2",
          "ticks": 10399,
          "time": 120.9186046511628,
          "velocity": 0.36220472440944884
        },
        {
          "duration": 0.03488372093023884,
          "durationTicks": 3,
          "midi": 70,
          "name": "A#4",
          "ticks": 10403,
          "time": 120.96511627906976,
          "velocity": 0.2440944881889764
        },
        {
          "duration": 0.034883720930224626,
          "durationTicks": 3,
          "midi": 64,
          "name": "E4",
          "ticks": 10404,
          "time": 120.97674418604652,
          "velocity": 0.12598425196850394
        },
        {
          "duration": 0.06976744186046346,
          "durationTicks": 6,
          "midi": 71,
          "name": "B4",
          "ticks": 10405,
          "time": 120.98837209302326,
          "velocity": 0.11023622047244094
        },
        {
          "duration": 0.03488372093023884,
          "durationTicks": 3,
          "midi": 63,
          "name": "D#4",
          "ticks": 10407,
          "time": 121.01162790697674,
          "velocity": 0.08661417322834646
        },
        {
          "duration": 0.034883720930224626,
          "durationTicks": 3,
          "midi": 67,
          "name": "G4",
          "ticks": 10415,
          "time": 121.1046511627907,
          "velocity": 0.2440944881889764
        },
        {
          "duration": 0.03488372093023884,
          "durationTicks": 3,
          "midi": 54,
          "name": "F#3",
          "ticks": 10417,
          "time": 121.12790697674419,
          "velocity": 0.14173228346456693
        },
        {
          "duration": 0.08139534883721922,
          "durationTicks": 7,
          "midi": 66,
          "name": "F#4",
          "ticks": 10418,
          "time": 121.13953488372093,
          "velocity": 0.2047244094488189
        },
        {
          "duration": 0.04651162790696617,
          "durationTicks": 4,
          "midi": 35,
          "name": "B1",
          "ticks": 10420,
          "time": 121.16279069767442,
          "velocity": 0.25984251968503935
        },
        {
          "duration": 0.2325581395348877,
          "durationTicks": 20,
          "midi": 59,
          "name": "B3",
          "ticks": 10424,
          "time": 121.20930232558139,
          "velocity": 0.2440944881889764
        },
        {
          "duration": 0.05813953488370771,
          "durationTicks": 5,
          "midi": 35,
          "name": "B1",
          "ticks": 10425,
          "time": 121.22093023255815,
          "velocity": 0.25196850393700787
        },
        {
          "duration": 0.023255813953483084,
          "durationTicks": 2,
          "midi": 35,
          "name": "B1",
          "ticks": 10431,
          "time": 121.29069767441861,
          "velocity": 0.25196850393700787
        },
        {
          "duration": 0.06976744186046346,
          "durationTicks": 6,
          "midi": 76,
          "name": "E5",
          "ticks": 10434,
          "time": 121.32558139534883,
          "velocity": 0.15748031496062992
        },
        {
          "duration": 0.05813953488372192,
          "durationTicks": 5,
          "midi": 54,
          "name": "F#3",
          "ticks": 10435,
          "time": 121.33720930232558,
          "velocity": 0.1732283464566929
        },
        {
          "duration": 0.09302325581396076,
          "durationTicks": 8,
          "midi": 64,
          "name": "E4",
          "ticks": 10435,
          "time": 121.33720930232558,
          "velocity": 0.2204724409448819
        },
        {
          "duration": 0.04651162790698038,
          "durationTicks": 4,
          "midi": 35,
          "name": "B1",
          "ticks": 10438,
          "time": 121.37209302325581,
          "velocity": 0.25196850393700787
        },
        {
          "duration": 0.023255813953483084,
          "durationTicks": 2,
          "midi": 48,
          "name": "C3",
          "ticks": 10444,
          "time": 121.44186046511628,
          "velocity": 0.2755905511811024
        },
        {
          "duration": 0.023255813953497295,
          "durationTicks": 2,
          "midi": 37,
          "name": "C#2",
          "ticks": 10445,
          "time": 121.45348837209302,
          "velocity": 0.3779527559055118
        },
        {
          "duration": 0.06976744186046346,
          "durationTicks": 6,
          "midi": 71,
          "name": "B4",
          "ticks": 10445,
          "time": 121.45348837209302,
          "velocity": 0.09448818897637795
        },
        {
          "duration": 0.32558139534883423,
          "durationTicks": 28,
          "midi": 78,
          "name": "F#5",
          "ticks": 10445,
          "time": 121.45348837209302,
          "velocity": 0.25984251968503935
        },
        {
          "duration": 0.04651162790696617,
          "durationTicks": 4,
          "midi": 53,
          "name": "F3",
          "ticks": 10447,
          "time": 121.47674418604652,
          "velocity": 0.2204724409448819
        },
        {
          "duration": 0.03488372093023884,
          "durationTicks": 3,
          "midi": 85,
          "name": "C#6",
          "ticks": 10449,
          "time": 121.5,
          "velocity": 0.14173228346456693
        },
        {
          "duration": 0.023255813953483084,
          "durationTicks": 2,
          "midi": 50,
          "name": "D3",
          "ticks": 10453,
          "time": 121.54651162790698,
          "velocity": 0.30708661417322836
        },
        {
          "duration": 0.12790697674418539,
          "durationTicks": 11,
          "midi": 51,
          "name": "D#3",
          "ticks": 10455,
          "time": 121.56976744186046,
          "velocity": 0.2992125984251969
        },
        {
          "duration": 0.06976744186046346,
          "durationTicks": 6,
          "midi": 85,
          "name": "C#6",
          "ticks": 10455,
          "time": 121.56976744186046,
          "velocity": 0.11023622047244094
        },
        {
          "duration": 0.09302325581396076,
          "durationTicks": 8,
          "midi": 58,
          "name": "A#3",
          "ticks": 10457,
          "time": 121.59302325581395,
          "velocity": 0.10236220472440945
        },
        {
          "duration": 0.05813953488372192,
          "durationTicks": 5,
          "midi": 66,
          "name": "F#4",
          "ticks": 10457,
          "time": 121.59302325581395,
          "velocity": 0.10236220472440945
        },
        {
          "duration": 0.023255813953483084,
          "durationTicks": 2,
          "midi": 40,
          "name": "E2",
          "ticks": 10460,
          "time": 121.62790697674419,
          "velocity": 0.33858267716535434
        },
        {
          "duration": 0.05813953488372192,
          "durationTicks": 5,
          "midi": 39,
          "name": "D#2",
          "ticks": 10462,
          "time": 121.65116279069767,
          "velocity": 0.31496062992125984
        },
        {
          "duration": 0.081395348837205,
          "durationTicks": 7,
          "midi": 71,
          "name": "B4",
          "ticks": 10465,
          "time": 121.68604651162791,
          "velocity": 0.11023622047244094
        },
        {
          "duration": 0.03488372093023884,
          "durationTicks": 3,
          "midi": 59,
          "name": "B3",
          "ticks": 10466,
          "time": 121.69767441860465,
          "velocity": 0.23622047244094488
        },
        {
          "duration": 0.034883720930224626,
          "durationTicks": 3,
          "midi": 36,
          "name": "C2",
          "ticks": 10469,
          "time": 121.73255813953489,
          "velocity": 0.18110236220472442
        },
        {
          "duration": 0.13953488372094114,
          "durationTicks": 12,
          "midi": 75,
          "name": "D#5",
          "ticks": 10473,
          "time": 121.77906976744185,
          "velocity": 0.1732283464566929
        },
        {
          "duration": 0.023255813953483084,
          "durationTicks": 2,
          "midi": 53,
          "name": "F3",
          "ticks": 10474,
          "time": 121.79069767441861,
          "velocity": 0.25984251968503935
        },
        {
          "duration": 0.04651162790696617,
          "durationTicks": 4,
          "midi": 61,
          "name": "C#4",
          "ticks": 10474,
          "time": 121.79069767441861,
          "velocity": 0.2047244094488189
        },
        {
          "duration": 0.16279069767442422,
          "durationTicks": 14,
          "midi": 42,
          "name": "F#2",
          "ticks": 10478,
          "time": 121.83720930232558,
          "velocity": 0.36220472440944884
        },
        {
          "duration": 0.04651162790698038,
          "durationTicks": 4,
          "midi": 57,
          "name": "A3",
          "ticks": 10481,
          "time": 121.87209302325581,
          "velocity": 0.15748031496062992
        },
        {
          "duration": 0.034883720930224626,
          "durationTicks": 3,
          "midi": 66,
          "name": "F#4",
          "ticks": 10484,
          "time": 121.90697674418605,
          "velocity": 0.07874015748031496
        },
        {
          "duration": 0.081395348837205,
          "durationTicks": 7,
          "midi": 71,
          "name": "B4",
          "ticks": 10485,
          "time": 121.9186046511628,
          "velocity": 0.15748031496062992
        },
        {
          "duration": 0.081395348837205,
          "durationTicks": 7,
          "midi": 78,
          "name": "F#5",
          "ticks": 10486,
          "time": 121.93023255813954,
          "velocity": 0.12598425196850394
        },
        {
          "duration": 0.05813953488372192,
          "durationTicks": 5,
          "midi": 59,
          "name": "B3",
          "ticks": 10489,
          "time": 121.96511627906976,
          "velocity": 0.16535433070866143
        },
        {
          "duration": 0.023255813953497295,
          "durationTicks": 2,
          "midi": 53,
          "name": "F3",
          "ticks": 10494,
          "time": 122.02325581395348,
          "velocity": 0.25196850393700787
        },
        {
          "duration": 0.03488372093023884,
          "durationTicks": 3,
          "midi": 98,
          "name": "D7",
          "ticks": 10494,
          "time": 122.02325581395348,
          "velocity": 0.07874015748031496
        },
        {
          "duration": 0.023255813953483084,
          "durationTicks": 2,
          "midi": 34,
          "name": "A#1",
          "ticks": 10496,
          "time": 122.04651162790698,
          "velocity": 0.29133858267716534
        },
        {
          "duration": 0.034883720930224626,
          "durationTicks": 3,
          "midi": 54,
          "name": "F#3",
          "ticks": 10496,
          "time": 122.04651162790698,
          "velocity": 0.2992125984251969
        },
        {
          "duration": 0.034883720930224626,
          "durationTicks": 3,
          "midi": 76,
          "name": "E5",
          "ticks": 10496,
          "time": 122.04651162790698,
          "velocity": 0.07086614173228346
        },
        {
          "duration": 0.034883720930224626,
          "durationTicks": 3,
          "midi": 59,
          "name": "B3",
          "ticks": 10497,
          "time": 122.05813953488372,
          "velocity": 0.18110236220472442
        },
        {
          "duration": 0.03488372093023884,
          "durationTicks": 3,
          "midi": 35,
          "name": "B1",
          "ticks": 10499,
          "time": 122.0813953488372,
          "velocity": 0.2677165354330709
        },
        {
          "duration": 0.023255813953497295,
          "durationTicks": 2,
          "midi": 54,
          "name": "F#3",
          "ticks": 10500,
          "time": 122.09302325581395,
          "velocity": 0.2755905511811024
        },
        {
          "duration": 0.04651162790698038,
          "durationTicks": 4,
          "midi": 59,
          "name": "B3",
          "ticks": 10502,
          "time": 122.11627906976744,
          "velocity": 0.16535433070866143
        },
        {
          "duration": 0.023255813953483084,
          "durationTicks": 2,
          "midi": 35,
          "name": "B1",
          "ticks": 10503,
          "time": 122.12790697674419,
          "velocity": 0.2677165354330709
        },
        {
          "duration": 0.023255813953483084,
          "durationTicks": 2,
          "midi": 54,
          "name": "F#3",
          "ticks": 10503,
          "time": 122.12790697674419,
          "velocity": 0.25196850393700787
        },
        {
          "duration": 0.15116279069766847,
          "durationTicks": 13,
          "midi": 35,
          "name": "B1",
          "ticks": 10506,
          "time": 122.16279069767442,
          "velocity": 0.25984251968503935
        },
        {
          "duration": 0.04651162790698038,
          "durationTicks": 4,
          "midi": 59,
          "name": "B3",
          "ticks": 10507,
          "time": 122.17441860465117,
          "velocity": 0.14960629921259844
        },
        {
          "duration": 0.034883720930224626,
          "durationTicks": 3,
          "midi": 54,
          "name": "F#3",
          "ticks": 10512,
          "time": 122.23255813953489,
          "velocity": 0.1968503937007874
        },
        {
          "duration": 0.034883720930224626,
          "durationTicks": 3,
          "midi": 100,
          "name": "E7",
          "ticks": 10512,
          "time": 122.23255813953489,
          "velocity": 0.07086614173228346
        },
        {
          "duration": 0.05813953488372192,
          "durationTicks": 5,
          "midi": 54,
          "name": "F#3",
          "ticks": 10516,
          "time": 122.27906976744185,
          "velocity": 0.16535433070866143
        },
        {
          "duration": 0.034883720930224626,
          "durationTicks": 3,
          "midi": 67,
          "name": "G4",
          "ticks": 10517,
          "time": 122.29069767441861,
          "velocity": 0.14960629921259844
        },
        {
          "duration": 0.04651162790698038,
          "durationTicks": 4,
          "midi": 53,
          "name": "F3",
          "ticks": 10521,
          "time": 122.33720930232558,
          "velocity": 0.1889763779527559
        },
        {
          "duration": 0.05813953488372192,
          "durationTicks": 5,
          "midi": 64,
          "name": "E4",
          "ticks": 10526,
          "time": 122.3953488372093,
          "velocity": 0.08661417322834646
        },
        {
          "duration": 0.03488372093023884,
          "durationTicks": 3,
          "midi": 59,
          "name": "B3",
          "ticks": 10530,
          "time": 122.44186046511628,
          "velocity": 0.10236220472440945
        },
        {
          "duration": 0.11627906976744384,
          "durationTicks": 10,
          "midi": 58,
          "name": "A#3",
          "ticks": 10535,
          "time": 122.5,
          "velocity": 0.16535433070866143
        },
        {
          "duration": 0.03488372093023884,
          "durationTicks": 3,
          "midi": 64,
          "name": "E4",
          "ticks": 10535,
          "time": 122.5,
          "velocity": 0.2440944881889764
        },
        {
          "duration": 0.023255813953497295,
          "durationTicks": 2,
          "midi": 36,
          "name": "C2",
          "ticks": 10536,
          "time": 122.51162790697674,
          "velocity": 0.3700787401574803
        },
        {
          "duration": 0.06976744186046346,
          "durationTicks": 6,
          "midi": 63,
          "name": "D#4",
          "ticks": 10537,
          "time": 122.52325581395348,
          "velocity": 0.1732283464566929
        },
        {
          "duration": 0.081395348837205,
          "durationTicks": 7,
          "midi": 39,
          "name": "D#2",
          "ticks": 10538,
          "time": 122.53488372093024,
          "velocity": 0.3543307086614173
        },
        {
          "duration": 0.11627906976744384,
          "durationTicks": 10,
          "midi": 78,
          "name": "F#5",
          "ticks": 10543,
          "time": 122.59302325581395,
          "velocity": 0.16535433070866143
        },
        {
          "duration": 0.04651162790698038,
          "durationTicks": 4,
          "midi": 67,
          "name": "G4",
          "ticks": 10552,
          "time": 122.69767441860465,
          "velocity": 0.10236220472440945
        },
        {
          "duration": 0.023255813953483084,
          "durationTicks": 2,
          "midi": 44,
          "name": "G#2",
          "ticks": 10554,
          "time": 122.72093023255815,
          "velocity": 0.30708661417322836
        },
        {
          "duration": 0.034883720930224626,
          "durationTicks": 3,
          "midi": 59,
          "name": "B3",
          "ticks": 10554,
          "time": 122.72093023255815,
          "velocity": 0.1968503937007874
        },
        {
          "duration": 0.23255813953487348,
          "durationTicks": 20,
          "midi": 64,
          "name": "E4",
          "ticks": 10554,
          "time": 122.72093023255815,
          "velocity": 0.2440944881889764
        },
        {
          "duration": 0.034883720930224626,
          "durationTicks": 3,
          "midi": 70,
          "name": "A#4",
          "ticks": 10554,
          "time": 122.72093023255815,
          "velocity": 0.13385826771653545
        },
        {
          "duration": 0.06976744186046346,
          "durationTicks": 6,
          "midi": 52,
          "name": "E3",
          "ticks": 10555,
          "time": 122.73255813953489,
          "velocity": 0.2204724409448819
        },
        {
          "duration": 0.023255813953483084,
          "durationTicks": 2,
          "midi": 44,
          "name": "G#2",
          "ticks": 10557,
          "time": 122.75581395348837,
          "velocity": 0.2283464566929134
        },
        {
          "duration": 0.034883720930224626,
          "durationTicks": 3,
          "midi": 70,
          "name": "A#4",
          "ticks": 10565,
          "time": 122.84883720930233,
          "velocity": 0.15748031496062992
        },
        {
          "duration": 0.34883720930233153,
          "durationTicks": 30,
          "midi": 59,
          "name": "B3",
          "ticks": 10574,
          "time": 122.95348837209302,
          "velocity": 0.2125984251968504
        },
        {
          "duration": 0.023255813953497295,
          "durationTicks": 2,
          "midi": 37,
          "name": "C#2",
          "ticks": 10575,
          "time": 122.96511627906976,
          "velocity": 0.2992125984251969
        },
        {
          "duration": 0.3604651162790731,
          "durationTicks": 31,
          "midi": 52,
          "name": "E3",
          "ticks": 10575,
          "time": 122.96511627906976,
          "velocity": 0.3858267716535433
        },
        {
          "duration": 0.27906976744185386,
          "durationTicks": 24,
          "midi": 40,
          "name": "E2",
          "ticks": 10581,
          "time": 123.03488372093024,
          "velocity": 0.3228346456692913
        },
        {
          "duration": 0.11627906976744384,
          "durationTicks": 10,
          "midi": 67,
          "name": "G4",
          "ticks": 10605,
          "time": 123.31395348837209,
          "velocity": 0.14173228346456693
        },
        {
          "duration": 0.03488372093023884,
          "durationTicks": 3,
          "midi": 52,
          "name": "E3",
          "ticks": 10607,
          "time": 123.33720930232558,
          "velocity": 0.3700787401574803
        },
        {
          "duration": 0.09302325581396076,
          "durationTicks": 8,
          "midi": 52,
          "name": "E3",
          "ticks": 10611,
          "time": 123.38372093023256,
          "velocity": 0.25984251968503935
        },
        {
          "duration": 0.023255813953497295,
          "durationTicks": 2,
          "midi": 41,
          "name": "F2",
          "ticks": 10617,
          "time": 123.45348837209302,
          "velocity": 0.3228346456692913
        },
        {
          "duration": 0.13953488372092693,
          "durationTicks": 12,
          "midi": 47,
          "name": "B2",
          "ticks": 10621,
          "time": 123.5,
          "velocity": 0.2283464566929134
        },
        {
          "duration": 0.13953488372094114,
          "durationTicks": 12,
          "midi": 35,
          "name": "B1",
          "ticks": 10623,
          "time": 123.52325581395348,
          "velocity": 0.23622047244094488
        },
        {
          "duration": 0.034883720930224626,
          "durationTicks": 3,
          "midi": 53,
          "name": "F3",
          "ticks": 10626,
          "time": 123.55813953488372,
          "velocity": 0.23622047244094488
        },
        {
          "duration": 0.06976744186046346,
          "durationTicks": 6,
          "midi": 67,
          "name": "G4",
          "ticks": 10628,
          "time": 123.5813953488372,
          "velocity": 0.07086614173228346
        },
        {
          "duration": 0.03488372093023884,
          "durationTicks": 3,
          "midi": 45,
          "name": "A2",
          "ticks": 10634,
          "time": 123.65116279069767,
          "velocity": 0.31496062992125984
        },
        {
          "duration": 0.034883720930224626,
          "durationTicks": 3,
          "midi": 51,
          "name": "D#3",
          "ticks": 10636,
          "time": 123.67441860465117,
          "velocity": 0.3228346456692913
        },
        {
          "duration": 0.12790697674418539,
          "durationTicks": 11,
          "midi": 38,
          "name": "D2",
          "ticks": 10641,
          "time": 123.73255813953489,
          "velocity": 0.29133858267716534
        },
        {
          "duration": 0.023255813953483084,
          "durationTicks": 2,
          "midi": 51,
          "name": "D#3",
          "ticks": 10642,
          "time": 123.74418604651163,
          "velocity": 0.28346456692913385
        },
        {
          "duration": 0.3139534883720927,
          "durationTicks": 27,
          "midi": 64,
          "name": "E4",
          "ticks": 10643,
          "time": 123.75581395348837,
          "velocity": 0.1732283464566929
        },
        {
          "duration": 0.023255813953483084,
          "durationTicks": 2,
          "midi": 51,
          "name": "D#3",
          "ticks": 10646,
          "time": 123.79069767441861,
          "velocity": 0.28346456692913385
        },
        {
          "duration": 0.05813953488372192,
          "durationTicks": 5,
          "midi": 57,
          "name": "A3",
          "ticks": 10646,
          "time": 123.79069767441861,
          "velocity": 0.1732283464566929
        },
        {
          "duration": 0.19767441860464885,
          "durationTicks": 17,
          "midi": 52,
          "name": "E3",
          "ticks": 10653,
          "time": 123.87209302325581,
          "velocity": 0.30708661417322836
        },
        {
          "duration": 0.023255813953497295,
          "durationTicks": 2,
          "midi": 41,
          "name": "F2",
          "ticks": 10655,
          "time": 123.8953488372093,
          "velocity": 0.33858267716535434
        },
        {
          "duration": 0.16279069767441,
          "durationTicks": 14,
          "midi": 40,
          "name": "E2",
          "ticks": 10662,
          "time": 123.97674418604652,
          "velocity": 0.30708661417322836
        },
        {
          "duration": 0.22093023255813193,
          "durationTicks": 19,
          "midi": 59,
          "name": "B3",
          "ticks": 10663,
          "time": 123.98837209302326,
          "velocity": 0.16535433070866143
        },
        {
          "duration": 0.15116279069766847,
          "durationTicks": 13,
          "midi": 79,
          "name": "G5",
          "ticks": 10675,
          "time": 124.12790697674419,
          "velocity": 0.14173228346456693
        },
        {
          "duration": 0.09302325581396076,
          "durationTicks": 8,
          "midi": 67,
          "name": "G4",
          "ticks": 10676,
          "time": 124.13953488372093,
          "velocity": 0.25196850393700787
        },
        {
          "duration": 0.023255813953497295,
          "durationTicks": 2,
          "midi": 39,
          "name": "D#2",
          "ticks": 10677,
          "time": 124.15116279069767,
          "velocity": 0.2755905511811024
        },
        {
          "duration": 0.034883720930224626,
          "durationTicks": 3,
          "midi": 41,
          "name": "F2",
          "ticks": 10679,
          "time": 124.17441860465117,
          "velocity": 0.3228346456692913
        },
        {
          "duration": 0.034883720930224626,
          "durationTicks": 3,
          "midi": 64,
          "name": "E4",
          "ticks": 10683,
          "time": 124.22093023255815,
          "velocity": 0.16535433070866143
        },
        {
          "duration": 0.04651162790696617,
          "durationTicks": 4,
          "midi": 52,
          "name": "E3",
          "ticks": 10684,
          "time": 124.23255813953489,
          "velocity": 0.2283464566929134
        },
        {
          "duration": 0.04651162790698038,
          "durationTicks": 4,
          "midi": 93,
          "name": "A6",
          "ticks": 10686,
          "time": 124.25581395348837,
          "velocity": 0.10236220472440945
        },
        {
          "duration": 0.023255813953497295,
          "durationTicks": 2,
          "midi": 40,
          "name": "E2",
          "ticks": 10687,
          "time": 124.26744186046511,
          "velocity": 0.30708661417322836
        },
        {
          "duration": 0.11627906976744384,
          "durationTicks": 10,
          "midi": 67,
          "name": "G4",
          "ticks": 10687,
          "time": 124.26744186046511,
          "velocity": 0.08661417322834646
        },
        {
          "duration": 0.023255813953483084,
          "durationTicks": 2,
          "midi": 41,
          "name": "F2",
          "ticks": 10690,
          "time": 124.30232558139535,
          "velocity": 0.30708661417322836
        },
        {
          "duration": 0.04651162790698038,
          "durationTicks": 4,
          "midi": 59,
          "name": "B3",
          "ticks": 10691,
          "time": 124.31395348837209,
          "velocity": 0.1732283464566929
        },
        {
          "duration": 0.11627906976742963,
          "durationTicks": 10,
          "midi": 71,
          "name": "B4",
          "ticks": 10694,
          "time": 124.34883720930233,
          "velocity": 0.2204724409448819
        },
        {
          "duration": 0.081395348837205,
          "durationTicks": 7,
          "midi": 83,
          "name": "B5",
          "ticks": 10694,
          "time": 124.34883720930233,
          "velocity": 0.2204724409448819
        },
        {
          "duration": 0.081395348837205,
          "durationTicks": 7,
          "midi": 90,
          "name": "F#6",
          "ticks": 10694,
          "time": 124.34883720930233,
          "velocity": 0.1889763779527559
        },
        {
          "duration": 0.023255813953483084,
          "durationTicks": 2,
          "midi": 53,
          "name": "F3",
          "ticks": 10695,
          "time": 124.36046511627907,
          "velocity": 0.2283464566929134
        },
        {
          "duration": 0.05813953488372192,
          "durationTicks": 5,
          "midi": 99,
          "name": "D#7",
          "ticks": 10696,
          "time": 124.37209302325581,
          "velocity": 0.09448818897637795
        },
        {
          "duration": 0.06976744186046346,
          "durationTicks": 6,
          "midi": 35,
          "name": "B1",
          "ticks": 10700,
          "time": 124.4186046511628,
          "velocity": 0.1968503937007874
        },
        {
          "duration": 0.16279069767441,
          "durationTicks": 14,
          "midi": 47,
          "name": "B2",
          "ticks": 10700,
          "time": 124.4186046511628,
          "velocity": 0.25984251968503935
        },
        {
          "duration": 0.04651162790696617,
          "durationTicks": 4,
          "midi": 54,
          "name": "F#3",
          "ticks": 10700,
          "time": 124.4186046511628,
          "velocity": 0.11811023622047244
        },
        {
          "duration": 0.12790697674418539,
          "durationTicks": 11,
          "midi": 72,
          "name": "C5",
          "ticks": 10704,
          "time": 124.46511627906976,
          "velocity": 0.2755905511811024
        },
        {
          "duration": 0.09302325581394655,
          "durationTicks": 8,
          "midi": 91,
          "name": "G6",
          "ticks": 10706,
          "time": 124.48837209302326,
          "velocity": 0.11023622047244094
        },
        {
          "duration": 0.04651162790698038,
          "durationTicks": 4,
          "midi": 35,
          "name": "B1",
          "ticks": 10707,
          "time": 124.5,
          "velocity": 0.1889763779527559
        },
        {
          "duration": 0.06976744186046346,
          "durationTicks": 6,
          "midi": 67,
          "name": "G4",
          "ticks": 10707,
          "time": 124.5,
          "velocity": 0.11023622047244094
        },
        {
          "duration": 0.03488372093023884,
          "durationTicks": 3,
          "midi": 52,
          "name": "E3",
          "ticks": 10713,
          "time": 124.56976744186046,
          "velocity": 0.1889763779527559
        },
        {
          "duration": 0.03488372093023884,
          "durationTicks": 3,
          "midi": 57,
          "name": "A3",
          "ticks": 10713,
          "time": 124.56976744186046,
          "velocity": 0.14960629921259844
        },
        {
          "duration": 0.03488372093023884,
          "durationTicks": 3,
          "midi": 90,
          "name": "F#6",
          "ticks": 10714,
          "time": 124.5813953488372,
          "velocity": 0.07874015748031496
        },
        {
          "duration": 0.05813953488372192,
          "durationTicks": 5,
          "midi": 99,
          "name": "D#7",
          "ticks": 10714,
          "time": 124.5813953488372,
          "velocity": 0.11023622047244094
        },
        {
          "duration": 0.09302325581396076,
          "durationTicks": 8,
          "midi": 71,
          "name": "B4",
          "ticks": 10715,
          "time": 124.59302325581395,
          "velocity": 0.23622047244094488
        },
        {
          "duration": 0.023255813953483084,
          "durationTicks": 2,
          "midi": 38,
          "name": "D2",
          "ticks": 10716,
          "time": 124.6046511627907,
          "velocity": 0.25196850393700787
        },
        {
          "duration": 0.023255813953483084,
          "durationTicks": 2,
          "midi": 37,
          "name": "C#2",
          "ticks": 10718,
          "time": 124.62790697674419,
          "velocity": 0.31496062992125984
        },
        {
          "duration": 0.09302325581396076,
          "durationTicks": 8,
          "midi": 38,
          "name": "D2",
          "ticks": 10720,
          "time": 124.65116279069767,
          "velocity": 0.29133858267716534
        },
        {
          "duration": 0.13953488372094114,
          "durationTicks": 12,
          "midi": 57,
          "name": "A3",
          "ticks": 10720,
          "time": 124.65116279069767,
          "velocity": 0.2125984251968504
        },
        {
          "duration": 0.10465116279068809,
          "durationTicks": 9,
          "midi": 79,
          "name": "G5",
          "ticks": 10726,
          "time": 124.72093023255815,
          "velocity": 0.11811023622047244
        },
        {
          "duration": 0.05813953488370771,
          "durationTicks": 5,
          "midi": 95,
          "name": "B6",
          "ticks": 10726,
          "time": 124.72093023255815,
          "velocity": 0.11811023622047244
        },
        {
          "duration": 0.05813953488372192,
          "durationTicks": 5,
          "midi": 64,
          "name": "E4",
          "ticks": 10727,
          "time": 124.73255813953489,
          "velocity": 0.11811023622047244
        },
        {
          "duration": 0.10465116279068809,
          "durationTicks": 9,
          "midi": 67,
          "name": "G4",
          "ticks": 10727,
          "time": 124.73255813953489,
          "velocity": 0.2125984251968504
        },
        {
          "duration": 0.023255813953483084,
          "durationTicks": 2,
          "midi": 38,
          "name": "D2",
          "ticks": 10729,
          "time": 124.75581395348837,
          "velocity": 0.28346456692913385
        },
        {
          "duration": 0.03488372093023884,
          "durationTicks": 3,
          "midi": 39,
          "name": "D#2",
          "ticks": 10731,
          "time": 124.77906976744185,
          "velocity": 0.2992125984251969
        },
        {
          "duration": 0.023255813953497295,
          "durationTicks": 2,
          "midi": 53,
          "name": "F3",
          "ticks": 10735,
          "time": 124.82558139534883,
          "velocity": 0.23622047244094488
        },
        {
          "duration": 1.2325581395348877,
          "durationTicks": 106,
          "midi": 66,
          "name": "F#4",
          "ticks": 10735,
          "time": 124.82558139534883,
          "velocity": 0.1968503937007874
        },
        {
          "duration": 0.5581395348837219,
          "durationTicks": 48,
          "midi": 78,
          "name": "F#5",
          "ticks": 10735,
          "time": 124.82558139534883,
          "velocity": 0.25196850393700787
        },
        {
          "duration": 0.16279069767441,
          "durationTicks": 14,
          "midi": 54,
          "name": "F#3",
          "ticks": 10737,
          "time": 124.84883720930233,
          "velocity": 0.18110236220472442
        },
        {
          "duration": 0.23255813953487348,
          "durationTicks": 20,
          "midi": 59,
          "name": "B3",
          "ticks": 10737,
          "time": 124.84883720930233,
          "velocity": 0.1889763779527559
        },
        {
          "duration": 0.05813953488372192,
          "durationTicks": 5,
          "midi": 35,
          "name": "B1",
          "ticks": 10740,
          "time": 124.88372093023256,
          "velocity": 0.2440944881889764
        },
        {
          "duration": 0.04651162790698038,
          "durationTicks": 4,
          "midi": 35,
          "name": "B1",
          "ticks": 10749,
          "time": 124.98837209302326,
          "velocity": 0.23622047244094488
        },
        {
          "duration": 0.023255813953483084,
          "durationTicks": 2,
          "midi": 35,
          "name": "B1",
          "ticks": 10754,
          "time": 125.04651162790698,
          "velocity": 0.2440944881889764
        },
        {
          "duration": 0.023255813953497295,
          "durationTicks": 2,
          "midi": 35,
          "name": "B1",
          "ticks": 10757,
          "time": 125.0813953488372,
          "velocity": 0.2283464566929134
        },
        {
          "duration": 0.023255813953483084,
          "durationTicks": 2,
          "midi": 35,
          "name": "B1",
          "ticks": 10760,
          "time": 125.11627906976744,
          "velocity": 0.23622047244094488
        },
        {
          "duration": 0.023255813953497295,
          "durationTicks": 2,
          "midi": 45,
          "name": "A2",
          "ticks": 10763,
          "time": 125.15116279069767,
          "velocity": 0.33858267716535434
        },
        {
          "duration": 0.023255813953483084,
          "durationTicks": 2,
          "midi": 50,
          "name": "D3",
          "ticks": 10764,
          "time": 125.16279069767442,
          "velocity": 0.30708661417322836
        },
        {
          "duration": 0.023255813953483084,
          "durationTicks": 2,
          "midi": 36,
          "name": "C2",
          "ticks": 10766,
          "time": 125.18604651162791,
          "velocity": 0.2992125984251969
        },
        {
          "duration": 0.03488372093023884,
          "durationTicks": 3,
          "midi": 44,
          "name": "G#2",
          "ticks": 10772,
          "time": 125.25581395348837,
          "velocity": 0.16535433070866143
        },
        {
          "duration": 0.03488372093023884,
          "durationTicks": 3,
          "midi": 71,
          "name": "B4",
          "ticks": 10773,
          "time": 125.26744186046511,
          "velocity": 0.14960629921259844
        },
        {
          "duration": 0.034883720930224626,
          "durationTicks": 3,
          "midi": 41,
          "name": "F2",
          "ticks": 10775,
          "time": 125.29069767441861,
          "velocity": 0.4251968503937008
        },
        {
          "duration": 0.10465116279068809,
          "durationTicks": 9,
          "midi": 54,
          "name": "F#3",
          "ticks": 10775,
          "time": 125.29069767441861,
          "velocity": 0.2440944881889764
        },
        {
          "duration": 0.09302325581394655,
          "durationTicks": 8,
          "midi": 61,
          "name": "C#4",
          "ticks": 10775,
          "time": 125.29069767441861,
          "velocity": 0.07086614173228346
        },
        {
          "duration": 0.081395348837205,
          "durationTicks": 7,
          "midi": 42,
          "name": "F#2",
          "ticks": 10780,
          "time": 125.34883720930233,
          "velocity": 0.3464566929133858
        },
        {
          "duration": 0.05813953488372192,
          "durationTicks": 5,
          "midi": 57,
          "name": "A3",
          "ticks": 10791,
          "time": 125.47674418604652,
          "velocity": 0.23622047244094488
        },
        {
          "duration": 0.034883720930224626,
          "durationTicks": 3,
          "midi": 63,
          "name": "D#4",
          "ticks": 10792,
          "time": 125.48837209302326,
          "velocity": 0.10236220472440945
        },
        {
          "duration": 0.023255813953497295,
          "durationTicks": 2,
          "midi": 45,
          "name": "A2",
          "ticks": 10795,
          "time": 125.52325581395348,
          "velocity": 0.3858267716535433
        },
        {
          "duration": 0.1860465116279073,
          "durationTicks": 16,
          "midi": 47,
          "name": "B2",
          "ticks": 10798,
          "time": 125.55813953488372,
          "velocity": 0.30708661417322836
        },
        {
          "duration": 0.04651162790696617,
          "durationTicks": 4,
          "midi": 54,
          "name": "F#3",
          "ticks": 10818,
          "time": 125.79069767441861,
          "velocity": 0.07874015748031496
        },
        {
          "duration": 0.023255813953483084,
          "durationTicks": 2,
          "midi": 45,
          "name": "A2",
          "ticks": 10819,
          "time": 125.80232558139535,
          "velocity": 0.25196850393700787
        },
        {
          "duration": 0.05813953488372192,
          "durationTicks": 5,
          "midi": 35,
          "name": "B1",
          "ticks": 10820,
          "time": 125.81395348837209,
          "velocity": 0.2677165354330709
        },
        {
          "duration": 0.12790697674418539,
          "durationTicks": 11,
          "midi": 47,
          "name": "B2",
          "ticks": 10824,
          "time": 125.86046511627907,
          "velocity": 0.28346456692913385
        },
        {
          "duration": 0.023255813953497295,
          "durationTicks": 2,
          "midi": 35,
          "name": "B1",
          "ticks": 10826,
          "time": 125.88372093023256,
          "velocity": 0.2677165354330709
        },
        {
          "duration": 0.023255813953483084,
          "durationTicks": 2,
          "midi": 35,
          "name": "B1",
          "ticks": 10829,
          "time": 125.9186046511628,
          "velocity": 0.25984251968503935
        },
        {
          "duration": 0.04651162790698038,
          "durationTicks": 4,
          "midi": 54,
          "name": "F#3",
          "ticks": 10831,
          "time": 125.94186046511628,
          "velocity": 0.12598425196850394
        },
        {
          "duration": 0.04651162790698038,
          "durationTicks": 4,
          "midi": 35,
          "name": "B1",
          "ticks": 10832,
          "time": 125.95348837209302,
          "velocity": 0.25984251968503935
        },
        {
          "duration": 0.15116279069766847,
          "durationTicks": 13,
          "midi": 78,
          "name": "F#5",
          "ticks": 10834,
          "time": 125.97674418604652,
          "velocity": 0.1968503937007874
        },
        {
          "duration": 0.09302325581394655,
          "durationTicks": 8,
          "midi": 47,
          "name": "B2",
          "ticks": 10836,
          "time": 126,
          "velocity": 0.2992125984251969
        },
        {
          "duration": 0.06976744186046346,
          "durationTicks": 6,
          "midi": 85,
          "name": "C#6",
          "ticks": 10836,
          "time": 126,
          "velocity": 0.07086614173228346
        },
        {
          "duration": 0.023255813953497295,
          "durationTicks": 2,
          "midi": 35,
          "name": "B1",
          "ticks": 10837,
          "time": 126.01162790697674,
          "velocity": 0.2440944881889764
        },
        {
          "duration": 0.023255813953483084,
          "durationTicks": 2,
          "midi": 35,
          "name": "B1",
          "ticks": 10840,
          "time": 126.04651162790698,
          "velocity": 0.23622047244094488
        },
        {
          "duration": 0.023255813953483084,
          "durationTicks": 2,
          "midi": 53,
          "name": "F3",
          "ticks": 10845,
          "time": 126.1046511627907,
          "velocity": 0.28346456692913385
        },
        {
          "duration": 0.034883720930224626,
          "durationTicks": 3,
          "midi": 61,
          "name": "C#4",
          "ticks": 10845,
          "time": 126.1046511627907,
          "velocity": 0.08661417322834646
        },
        {
          "duration": 0.05813953488372192,
          "durationTicks": 5,
          "midi": 67,
          "name": "G4",
          "ticks": 10845,
          "time": 126.1046511627907,
          "velocity": 0.2677165354330709
        },
        {
          "duration": 0.05813953488372192,
          "durationTicks": 5,
          "midi": 66,
          "name": "F#4",
          "ticks": 10850,
          "time": 126.16279069767442,
          "velocity": 0.15748031496062992
        },
        {
          "duration": 0.03488372093023884,
          "durationTicks": 3,
          "midi": 59,
          "name": "B3",
          "ticks": 10853,
          "time": 126.19767441860465,
          "velocity": 0.15748031496062992
        },
        {
          "duration": 0.04651162790696617,
          "durationTicks": 4,
          "midi": 61,
          "name": "C#4",
          "ticks": 10856,
          "time": 126.23255813953489,
          "velocity": 0.11023622047244094
        },
        {
          "duration": 0.03488372093023884,
          "durationTicks": 3,
          "midi": 42,
          "name": "F#2",
          "ticks": 10859,
          "time": 126.26744186046511,
          "velocity": 0.3700787401574803
        },
        {
          "duration": 0.034883720930224626,
          "durationTicks": 3,
          "midi": 41,
          "name": "F2",
          "ticks": 10862,
          "time": 126.30232558139535,
          "velocity": 0.3228346456692913
        },
        {
          "duration": 0.081395348837205,
          "durationTicks": 7,
          "midi": 71,
          "name": "B4",
          "ticks": 10863,
          "time": 126.31395348837209,
          "velocity": 0.25984251968503935
        },
        {
          "duration": 0.05813953488372192,
          "durationTicks": 5,
          "midi": 90,
          "name": "F#6",
          "ticks": 10864,
          "time": 126.32558139534883,
          "velocity": 0.1732283464566929
        },
        {
          "duration": 0.04651162790698038,
          "durationTicks": 4,
          "midi": 99,
          "name": "D#7",
          "ticks": 10865,
          "time": 126.33720930232558,
          "velocity": 0.15748031496062992
        },
        {
          "duration": 0.034883720930224626,
          "durationTicks": 3,
          "midi": 67,
          "name": "G4",
          "ticks": 10867,
          "time": 126.36046511627907,
          "velocity": 0.11023622047244094
        },
        {
          "duration": 0.11627906976744384,
          "durationTicks": 10,
          "midi": 84,
          "name": "C6",
          "ticks": 10869,
          "time": 126.38372093023256,
          "velocity": 0.1889763779527559
        },
        {
          "duration": 0.1046511627907023,
          "durationTicks": 9,
          "midi": 72,
          "name": "C5",
          "ticks": 10870,
          "time": 126.3953488372093,
          "velocity": 0.2992125984251969
        },
        {
          "duration": 0.06976744186046346,
          "durationTicks": 6,
          "midi": 63,
          "name": "D#4",
          "ticks": 10872,
          "time": 126.4186046511628,
          "velocity": 0.15748031496062992
        },
        {
          "duration": 0.023255813953483084,
          "durationTicks": 2,
          "midi": 44,
          "name": "G#2",
          "ticks": 10873,
          "time": 126.43023255813954,
          "velocity": 0.3937007874015748
        },
        {
          "duration": 0.05813953488372192,
          "durationTicks": 5,
          "midi": 54,
          "name": "F#3",
          "ticks": 10875,
          "time": 126.45348837209302,
          "velocity": 0.10236220472440945
        },
        {
          "duration": 0.04651162790698038,
          "durationTicks": 4,
          "midi": 59,
          "name": "B3",
          "ticks": 10875,
          "time": 126.45348837209302,
          "velocity": 0.16535433070866143
        },
        {
          "duration": 0.034883720930224626,
          "durationTicks": 3,
          "midi": 47,
          "name": "B2",
          "ticks": 10877,
          "time": 126.47674418604652,
          "velocity": 0.2677165354330709
        },
        {
          "duration": 0.081395348837205,
          "durationTicks": 7,
          "midi": 71,
          "name": "B4",
          "ticks": 10879,
          "time": 126.5,
          "velocity": 0.2283464566929134
        },
        {
          "duration": 0.03488372093023884,
          "durationTicks": 3,
          "midi": 48,
          "name": "C3",
          "ticks": 10880,
          "time": 126.51162790697674,
          "velocity": 0.2047244094488189
        },
        {
          "duration": 0.034883720930224626,
          "durationTicks": 3,
          "midi": 44,
          "name": "G#2",
          "ticks": 10884,
          "time": 126.55813953488372,
          "velocity": 0.3858267716535433
        },
        {
          "duration": 0.081395348837205,
          "durationTicks": 7,
          "midi": 66,
          "name": "F#4",
          "ticks": 10885,
          "time": 126.56976744186046,
          "velocity": 0.2047244094488189
        },
        {
          "duration": 0.04651162790698038,
          "durationTicks": 4,
          "midi": 59,
          "name": "B3",
          "ticks": 10886,
          "time": 126.5813953488372,
          "velocity": 0.1732283464566929
        },
        {
          "duration": 0.1860465116279073,
          "durationTicks": 16,
          "midi": 78,
          "name": "F#5",
          "ticks": 10886,
          "time": 126.5813953488372,
          "velocity": 0.25196850393700787
        },
        {
          "duration": 0.05813953488372192,
          "durationTicks": 5,
          "midi": 47,
          "name": "B2",
          "ticks": 10889,
          "time": 126.61627906976744,
          "velocity": 0.25984251968503935
        },
        {
          "duration": 0.023255813953483084,
          "durationTicks": 2,
          "midi": 45,
          "name": "A2",
          "ticks": 10894,
          "time": 126.67441860465117,
          "velocity": 0.33070866141732286
        },
        {
          "duration": 0.034883720930224626,
          "durationTicks": 3,
          "midi": 66,
          "name": "F#4",
          "ticks": 10894,
          "time": 126.67441860465117,
          "velocity": 0.11811023622047244
        },
        {
          "duration": 0.034883720930224626,
          "durationTicks": 3,
          "midi": 85,
          "name": "C#6",
          "ticks": 10894,
          "time": 126.67441860465117,
          "velocity": 0.08661417322834646
        },
        {
          "duration": 0.15116279069768268,
          "durationTicks": 13,
          "midi": 52,
          "name": "E3",
          "ticks": 10896,
          "time": 126.69767441860465,
          "velocity": 0.25984251968503935
        },
        {
          "duration": 0.023255813953497295,
          "durationTicks": 2,
          "midi": 41,
          "name": "F2",
          "ticks": 10897,
          "time": 126.70930232558139,
          "velocity": 0.3543307086614173
        },
        {
          "duration": 1.0232558139534973,
          "durationTicks": 88,
          "midi": 67,
          "name": "G4",
          "ticks": 10897,
          "time": 126.70930232558139,
          "velocity": 0.33070866141732286
        },
        {
          "duration": 0.023255813953483084,
          "durationTicks": 2,
          "midi": 39,
          "name": "D#2",
          "ticks": 10899,
          "time": 126.73255813953489,
          "velocity": 0.2992125984251969
        },
        {
          "duration": 0.2674418604651123,
          "durationTicks": 23,
          "midi": 40,
          "name": "E2",
          "ticks": 10901,
          "time": 126.75581395348837,
          "velocity": 0.33070866141732286
        },
        {
          "duration": 0.03488372093023884,
          "durationTicks": 3,
          "midi": 57,
          "name": "A3",
          "ticks": 10924,
          "time": 127.02325581395348,
          "velocity": 0.13385826771653545
        },
        {
          "duration": 0.023255813953483084,
          "durationTicks": 2,
          "midi": 48,
          "name": "C3",
          "ticks": 10925,
          "time": 127.03488372093024,
          "velocity": 0.2440944881889764
        },
        {
          "duration": 0.04651162790698038,
          "durationTicks": 4,
          "midi": 52,
          "name": "E3",
          "ticks": 10929,
          "time": 127.0813953488372,
          "velocity": 0.2125984251968504
        },
        {
          "duration": 0.023255813953497295,
          "durationTicks": 2,
          "midi": 52,
          "name": "E3",
          "ticks": 10934,
          "time": 127.13953488372093,
          "velocity": 0.25196850393700787
        },
        {
          "duration": 0.03488372093023884,
          "durationTicks": 3,
          "midi": 72,
          "name": "C5",
          "ticks": 10934,
          "time": 127.13953488372093,
          "velocity": 0.16535433070866143
        },
        {
          "duration": 0.03488372093023884,
          "durationTicks": 3,
          "midi": 74,
          "name": "D5",
          "ticks": 10934,
          "time": 127.13953488372093,
          "velocity": 0.15748031496062992
        },
        {
          "duration": 0.023255813953483084,
          "durationTicks": 2,
          "midi": 60,
          "name": "C4",
          "ticks": 10954,
          "time": 127.37209302325581,
          "velocity": 0.2283464566929134
        },
        {
          "duration": 0.03488372093023884,
          "durationTicks": 3,
          "midi": 70,
          "name": "A#4",
          "ticks": 10954,
          "time": 127.37209302325581,
          "velocity": 0.14173228346456693
        },
        {
          "duration": 0.09302325581396076,
          "durationTicks": 8,
          "midi": 59,
          "name": "B3",
          "ticks": 10956,
          "time": 127.3953488372093,
          "velocity": 0.23622047244094488
        },
        {
          "duration": 0.05813953488370771,
          "durationTicks": 5,
          "midi": 47,
          "name": "B2",
          "ticks": 10957,
          "time": 127.40697674418605,
          "velocity": 0.33858267716535434
        },
        {
          "duration": 0.03488372093023884,
          "durationTicks": 3,
          "midi": 48,
          "name": "C3",
          "ticks": 10962,
          "time": 127.46511627906976,
          "velocity": 0.2677165354330709
        },
        {
          "duration": 0.11627906976744384,
          "durationTicks": 10,
          "midi": 59,
          "name": "B3",
          "ticks": 10966,
          "time": 127.51162790697674,
          "velocity": 0.1732283464566929
        },
        {
          "duration": 0.06976744186046346,
          "durationTicks": 6,
          "midi": 47,
          "name": "B2",
          "ticks": 10968,
          "time": 127.53488372093024,
          "velocity": 0.2440944881889764
        },
        {
          "duration": 0.023255813953483084,
          "durationTicks": 2,
          "midi": 52,
          "name": "E3",
          "ticks": 10976,
          "time": 127.62790697674419,
          "velocity": 0.29133858267716534
        },
        {
          "duration": 0.1860465116279073,
          "durationTicks": 16,
          "midi": 40,
          "name": "E2",
          "ticks": 10981,
          "time": 127.68604651162791,
          "velocity": 0.3464566929133858
        },
        {
          "duration": 0.034883720930224626,
          "durationTicks": 3,
          "midi": 66,
          "name": "F#4",
          "ticks": 10985,
          "time": 127.73255813953489,
          "velocity": 0.13385826771653545
        },
        {
          "duration": 0.10465116279068809,
          "durationTicks": 9,
          "midi": 67,
          "name": "G4",
          "ticks": 10996,
          "time": 127.86046511627907,
          "velocity": 0.23622047244094488
        },
        {
          "duration": 0.023255813953483084,
          "durationTicks": 2,
          "midi": 41,
          "name": "F2",
          "ticks": 10997,
          "time": 127.87209302325581,
          "velocity": 0.3543307086614173
        },
        {
          "duration": 0.023255813953483084,
          "durationTicks": 2,
          "midi": 41,
          "name": "F2",
          "ticks": 11001,
          "time": 127.9186046511628,
          "velocity": 0.2677165354330709
        },
        {
          "duration": 0.023255813953497295,
          "durationTicks": 2,
          "midi": 37,
          "name": "C#2",
          "ticks": 11005,
          "time": 127.96511627906976,
          "velocity": 0.33858267716535434
        },
        {
          "duration": 0.023255813953497295,
          "durationTicks": 2,
          "midi": 52,
          "name": "E3",
          "ticks": 11005,
          "time": 127.96511627906976,
          "velocity": 0.28346456692913385
        },
        {
          "duration": 0.09302325581394655,
          "durationTicks": 8,
          "midi": 59,
          "name": "B3",
          "ticks": 11005,
          "time": 127.96511627906976,
          "velocity": 0.15748031496062992
        },
        {
          "duration": 0.034883720930224626,
          "durationTicks": 3,
          "midi": 39,
          "name": "D#2",
          "ticks": 11007,
          "time": 127.98837209302326,
          "velocity": 0.31496062992125984
        },
        {
          "duration": 0.06976744186047767,
          "durationTicks": 6,
          "midi": 52,
          "name": "E3",
          "ticks": 11009,
          "time": 128.01162790697674,
          "velocity": 0.2992125984251969
        },
        {
          "duration": 0.05813953488373613,
          "durationTicks": 5,
          "midi": 40,
          "name": "E2",
          "ticks": 11010,
          "time": 128.02325581395348,
          "velocity": 0.3228346456692913
        },
        {
          "duration": 0.034883720930224626,
          "durationTicks": 3,
          "midi": 74,
          "name": "D5",
          "ticks": 11014,
          "time": 128.06976744186048,
          "velocity": 0.14173228346456693
        },
        {
          "duration": 0.034883720930224626,
          "durationTicks": 3,
          "midi": 51,
          "name": "D#3",
          "ticks": 11015,
          "time": 128.08139534883722,
          "velocity": 0.28346456692913385
        },
        {
          "duration": 0.05813953488370771,
          "durationTicks": 5,
          "midi": 83,
          "name": "B5",
          "ticks": 11015,
          "time": 128.08139534883722,
          "velocity": 0.13385826771653545
        },
        {
          "duration": 0.1046511627907023,
          "durationTicks": 9,
          "midi": 71,
          "name": "B4",
          "ticks": 11016,
          "time": 128.09302325581396,
          "velocity": 0.2125984251968504
        },
        {
          "duration": 0.034883720930224626,
          "durationTicks": 3,
          "midi": 99,
          "name": "D#7",
          "ticks": 11016,
          "time": 128.09302325581396,
          "velocity": 0.10236220472440945
        },
        {
          "duration": 0.08139534883721922,
          "durationTicks": 7,
          "midi": 40,
          "name": "E2",
          "ticks": 11018,
          "time": 128.11627906976744,
          "velocity": 0.3464566929133858
        },
        {
          "duration": 0.04651162790696617,
          "durationTicks": 4,
          "midi": 52,
          "name": "E3",
          "ticks": 11025,
          "time": 128.19767441860466,
          "velocity": 0.14960629921259844
        },
        {
          "duration": 0.06976744186044925,
          "durationTicks": 6,
          "midi": 72,
          "name": "C5",
          "ticks": 11025,
          "time": 128.19767441860466,
          "velocity": 0.25984251968503935
        },
        {
          "duration": 0.04651162790696617,
          "durationTicks": 4,
          "midi": 91,
          "name": "G6",
          "ticks": 11026,
          "time": 128.2093023255814,
          "velocity": 0.08661417322834646
        },
        {
          "duration": 0.04651162790696617,
          "durationTicks": 4,
          "midi": 67,
          "name": "G4",
          "ticks": 11029,
          "time": 128.24418604651163,
          "velocity": 0.09448818897637795
        },
        {
          "duration": 0.05813953488373613,
          "durationTicks": 5,
          "midi": 83,
          "name": "B5",
          "ticks": 11030,
          "time": 128.25581395348837,
          "velocity": 0.10236220472440945
        },
        {
          "duration": 0.1046511627907023,
          "durationTicks": 9,
          "midi": 71,
          "name": "B4",
          "ticks": 11031,
          "time": 128.2674418604651,
          "velocity": 0.2755905511811024
        },
        {
          "duration": 0.0813953488371908,
          "durationTicks": 7,
          "midi": 52,
          "name": "E3",
          "ticks": 11037,
          "time": 128.3372093023256,
          "velocity": 0.33070866141732286
        },
        {
          "duration": 0.034883720930224626,
          "durationTicks": 3,
          "midi": 39,
          "name": "D#2",
          "ticks": 11038,
          "time": 128.34883720930233,
          "velocity": 0.36220472440944884
        },
        {
          "duration": 0.05813953488373613,
          "durationTicks": 5,
          "midi": 40,
          "name": "E2",
          "ticks": 11041,
          "time": 128.38372093023256,
          "velocity": 0.3543307086614173
        },
        {
          "duration": 0.13953488372092693,
          "durationTicks": 12,
          "midi": 67,
          "name": "G4",
          "ticks": 11042,
          "time": 128.3953488372093,
          "velocity": 0.25984251968503935
        },
        {
          "duration": 0.05813953488373613,
          "durationTicks": 5,
          "midi": 91,
          "name": "G6",
          "ticks": 11045,
          "time": 128.43023255813952,
          "velocity": 0.09448818897637795
        },
        {
          "duration": 0.6627906976744384,
          "durationTicks": 57,
          "midi": 90,
          "name": "F#6",
          "ticks": 11054,
          "time": 128.53488372093022,
          "velocity": 0.13385826771653545
        },
        {
          "duration": 0.03488372093025305,
          "durationTicks": 3,
          "midi": 45,
          "name": "A2",
          "ticks": 11055,
          "time": 128.54651162790697,
          "velocity": 0.4330708661417323
        },
        {
          "duration": 0.5465116279069946,
          "durationTicks": 47,
          "midi": 78,
          "name": "F#5",
          "ticks": 11055,
          "time": 128.54651162790697,
          "velocity": 0.23622047244094488
        },
        {
          "duration": 0.05813953488370771,
          "durationTicks": 5,
          "midi": 54,
          "name": "F#3",
          "ticks": 11057,
          "time": 128.56976744186048,
          "velocity": 0.2283464566929134
        },
        {
          "duration": 0.4534883720930054,
          "durationTicks": 39,
          "midi": 66,
          "name": "F#4",
          "ticks": 11057,
          "time": 128.56976744186048,
          "velocity": 0.2440944881889764
        },
        {
          "duration": 0.2674418604651123,
          "durationTicks": 23,
          "midi": 47,
          "name": "B2",
          "ticks": 11060,
          "time": 128.6046511627907,
          "velocity": 0.28346456692913385
        },
        {
          "duration": 0.09302325581396076,
          "durationTicks": 8,
          "midi": 35,
          "name": "B1",
          "ticks": 11061,
          "time": 128.61627906976744,
          "velocity": 0.2755905511811024
        },
        {
          "duration": 0.034883720930224626,
          "durationTicks": 3,
          "midi": 54,
          "name": "F#3",
          "ticks": 11063,
          "time": 128.63953488372093,
          "velocity": 0.18110236220472442
        },
        {
          "duration": 0.08139534883721922,
          "durationTicks": 7,
          "midi": 54,
          "name": "F#3",
          "ticks": 11067,
          "time": 128.6860465116279,
          "velocity": 0.15748031496062992
        },
        {
          "duration": 0.023255813953483084,
          "durationTicks": 2,
          "midi": 35,
          "name": "B1",
          "ticks": 11070,
          "time": 128.72093023255815,
          "velocity": 0.2677165354330709
        },
        {
          "duration": 0.08139534883721922,
          "durationTicks": 7,
          "midi": 35,
          "name": "B1",
          "ticks": 11073,
          "time": 128.75581395348837,
          "velocity": 0.2677165354330709
        },
        {
          "duration": 0.034883720930224626,
          "durationTicks": 3,
          "midi": 35,
          "name": "B1",
          "ticks": 11081,
          "time": 128.84883720930233,
          "velocity": 0.25196850393700787
        },
        {
          "duration": 0.04651162790696617,
          "durationTicks": 4,
          "midi": 54,
          "name": "F#3",
          "ticks": 11089,
          "time": 128.9418604651163,
          "velocity": 0.11811023622047244
        },
        {
          "duration": 0.034883720930224626,
          "durationTicks": 3,
          "midi": 55,
          "name": "G3",
          "ticks": 11094,
          "time": 129,
          "velocity": 0.2204724409448819
        },
        {
          "duration": 0.023255813953483084,
          "durationTicks": 2,
          "midi": 38,
          "name": "D2",
          "ticks": 11096,
          "time": 129.02325581395348,
          "velocity": 0.3779527559055118
        },
        {
          "duration": 0.19767441860466306,
          "durationTicks": 17,
          "midi": 66,
          "name": "F#4",
          "ticks": 11097,
          "time": 129.03488372093022,
          "velocity": 0.1968503937007874
        },
        {
          "duration": 0.023255813953483084,
          "durationTicks": 2,
          "midi": 42,
          "name": "F#2",
          "ticks": 11100,
          "time": 129.06976744186048,
          "velocity": 0.3464566929133858
        },
        {
          "duration": 0.03488372093025305,
          "durationTicks": 3,
          "midi": 57,
          "name": "A3",
          "ticks": 11110,
          "time": 129.1860465116279,
          "velocity": 0.12598425196850394
        },
        {
          "duration": 0.05813953488370771,
          "durationTicks": 5,
          "midi": 59,
          "name": "B3",
          "ticks": 11115,
          "time": 129.24418604651163,
          "velocity": 0.2440944881889764
        },
        {
          "duration": 0.5697674418604777,
          "durationTicks": 49,
          "midi": 66,
          "name": "F#4",
          "ticks": 11115,
          "time": 129.24418604651163,
          "velocity": 0.2440944881889764
        },
        {
          "duration": 0.034883720930224626,
          "durationTicks": 3,
          "midi": 47,
          "name": "B2",
          "ticks": 11117,
          "time": 129.2674418604651,
          "velocity": 0.30708661417322836
        },
        {
          "duration": 0.03488372093025305,
          "durationTicks": 3,
          "midi": 48,
          "name": "C3",
          "ticks": 11120,
          "time": 129.30232558139534,
          "velocity": 0.2755905511811024
        },
        {
          "duration": 0.1046511627907023,
          "durationTicks": 9,
          "midi": 59,
          "name": "B3",
          "ticks": 11125,
          "time": 129.36046511627907,
          "velocity": 0.1889763779527559
        },
        {
          "duration": 0.05813953488373613,
          "durationTicks": 5,
          "midi": 47,
          "name": "B2",
          "ticks": 11127,
          "time": 129.38372093023256,
          "velocity": 0.23622047244094488
        },
        {
          "duration": 0.023255813953483084,
          "durationTicks": 2,
          "midi": 48,
          "name": "C3",
          "ticks": 11136,
          "time": 129.48837209302326,
          "velocity": 0.29133858267716534
        },
        {
          "duration": 0.023255813953483084,
          "durationTicks": 2,
          "midi": 45,
          "name": "A2",
          "ticks": 11138,
          "time": 129.51162790697674,
          "velocity": 0.36220472440944884
        },
        {
          "duration": 0.08139534883721922,
          "durationTicks": 7,
          "midi": 54,
          "name": "F#3",
          "ticks": 11138,
          "time": 129.51162790697674,
          "velocity": 0.25196850393700787
        },
        {
          "duration": 0.05813953488373613,
          "durationTicks": 5,
          "midi": 35,
          "name": "B1",
          "ticks": 11142,
          "time": 129.5581395348837,
          "velocity": 0.25196850393700787
        },
        {
          "duration": 0.1511627906976969,
          "durationTicks": 13,
          "midi": 47,
          "name": "B2",
          "ticks": 11142,
          "time": 129.5581395348837,
          "velocity": 0.25984251968503935
        },
        {
          "duration": 0.034883720930224626,
          "durationTicks": 3,
          "midi": 35,
          "name": "B1",
          "ticks": 11148,
          "time": 129.62790697674419,
          "velocity": 0.25984251968503935
        },
        {
          "duration": 0.04651162790696617,
          "durationTicks": 4,
          "midi": 35,
          "name": "B1",
          "ticks": 11154,
          "time": 129.69767441860466,
          "velocity": 0.2440944881889764
        },
        {
          "duration": 0.034883720930224626,
          "durationTicks": 3,
          "midi": 47,
          "name": "B2",
          "ticks": 11158,
          "time": 129.74418604651163,
          "velocity": 0.15748031496062992
        },
        {
          "duration": 0.023255813953483084,
          "durationTicks": 2,
          "midi": 35,
          "name": "B1",
          "ticks": 11159,
          "time": 129.75581395348837,
          "velocity": 0.2440944881889764
        },
        {
          "duration": 0.05813953488373613,
          "durationTicks": 5,
          "midi": 57,
          "name": "A3",
          "ticks": 11160,
          "time": 129.7674418604651,
          "velocity": 0.10236220472440945
        },
        {
          "duration": 0.023255813953511506,
          "durationTicks": 2,
          "midi": 35,
          "name": "B1",
          "ticks": 11162,
          "time": 129.7906976744186,
          "velocity": 0.2440944881889764
        },
        {
          "duration": 0.023255813953483084,
          "durationTicks": 2,
          "midi": 50,
          "name": "D3",
          "ticks": 11164,
          "time": 129.8139534883721,
          "velocity": 0.2283464566929134
        },
        {
          "duration": 0.13953488372092693,
          "durationTicks": 12,
          "midi": 67,
          "name": "G4",
          "ticks": 11167,
          "time": 129.84883720930233,
          "velocity": 0.2440944881889764
        },
        {
          "duration": 0.08139534883721922,
          "durationTicks": 7,
          "midi": 57,
          "name": "A3",
          "ticks": 11168,
          "time": 129.86046511627907,
          "velocity": 0.18110236220472442
        },
        {
          "duration": 0.023255813953511506,
          "durationTicks": 2,
          "midi": 51,
          "name": "D#3",
          "ticks": 11174,
          "time": 129.93023255813952,
          "velocity": 0.25984251968503935
        },
        {
          "duration": 0.1860465116278931,
          "durationTicks": 16,
          "midi": 42,
          "name": "F#2",
          "ticks": 11179,
          "time": 129.98837209302326,
          "velocity": 0.3779527559055118
        },
        {
          "duration": 0.034883720930224626,
          "durationTicks": 3,
          "midi": 63,
          "name": "D#4",
          "ticks": 11186,
          "time": 130.06976744186048,
          "velocity": 0.11023622047244094
        },
        {
          "duration": 0.04651162790696617,
          "durationTicks": 4,
          "midi": 71,
          "name": "B4",
          "ticks": 11186,
          "time": 130.06976744186048,
          "velocity": 0.2125984251968504
        },
        {
          "duration": 0.04651162790696617,
          "durationTicks": 4,
          "midi": 90,
          "name": "F#6",
          "ticks": 11186,
          "time": 130.06976744186048,
          "velocity": 0.14173228346456693
        },
        {
          "duration": 0.1046511627907023,
          "durationTicks": 9,
          "midi": 67,
          "name": "G4",
          "ticks": 11188,
          "time": 130.09302325581396,
          "velocity": 0.14960629921259844
        },
        {
          "duration": 0.1046511627907023,
          "durationTicks": 9,
          "midi": 72,
          "name": "C5",
          "ticks": 11190,
          "time": 130.11627906976744,
          "velocity": 0.2755905511811024
        },
        {
          "duration": 0.03488372093025305,
          "durationTicks": 3,
          "midi": 69,
          "name": "A4",
          "ticks": 11194,
          "time": 130.1627906976744,
          "velocity": 0.15748031496062992
        },
        {
          "duration": 0.09302325581396076,
          "durationTicks": 8,
          "midi": 93,
          "name": "A6",
          "ticks": 11196,
          "time": 130.1860465116279,
          "velocity": 0.16535433070866143
        },
        {
          "duration": 0.04651162790696617,
          "durationTicks": 4,
          "midi": 47,
          "name": "B2",
          "ticks": 11197,
          "time": 130.19767441860466,
          "velocity": 0.25196850393700787
        },
        {
          "duration": 0.06976744186044925,
          "durationTicks": 6,
          "midi": 71,
          "name": "B4",
          "ticks": 11199,
          "time": 130.22093023255815,
          "velocity": 0.2283464566929134
        },
        {
          "duration": 0.023255813953483084,
          "durationTicks": 2,
          "midi": 45,
          "name": "A2",
          "ticks": 11202,
          "time": 130.25581395348837,
          "velocity": 0.2677165354330709
        },
        {
          "duration": 0.13953488372092693,
          "durationTicks": 12,
          "midi": 66,
          "name": "F#4",
          "ticks": 11203,
          "time": 130.2674418604651,
          "velocity": 0.23622047244094488
        },
        {
          "duration": 0.023255813953483084,
          "durationTicks": 2,
          "midi": 45,
          "name": "A2",
          "ticks": 11215,
          "time": 130.40697674418604,
          "velocity": 0.3464566929133858
        },
        {
          "duration": 0.03488372093025305,
          "durationTicks": 3,
          "midi": 67,
          "name": "G4",
          "ticks": 11215,
          "time": 130.40697674418604,
          "velocity": 0.1968503937007874
        },
        {
          "duration": 0.08139534883721922,
          "durationTicks": 7,
          "midi": 52,
          "name": "E3",
          "ticks": 11217,
          "time": 130.43023255813952,
          "velocity": 0.25984251968503935
        },
        {
          "duration": 0.023255813953483084,
          "durationTicks": 2,
          "midi": 41,
          "name": "F2",
          "ticks": 11218,
          "time": 130.4418604651163,
          "velocity": 0.3858267716535433
        },
        {
          "duration": 0.1860465116278931,
          "durationTicks": 16,
          "midi": 67,
          "name": "G4",
          "ticks": 11219,
          "time": 130.45348837209303,
          "velocity": 0.25984251968503935
        },
        {
          "duration": 0.023255813953483084,
          "durationTicks": 2,
          "midi": 39,
          "name": "D#2",
          "ticks": 11220,
          "time": 130.46511627906978,
          "velocity": 0.30708661417322836
        },
        {
          "duration": 0.30232558139533694,
          "durationTicks": 26,
          "midi": 40,
          "name": "E2",
          "ticks": 11222,
          "time": 130.48837209302326,
          "velocity": 0.33070866141732286
        },
        {
          "duration": 0.11627906976744384,
          "durationTicks": 10,
          "midi": 64,
          "name": "E4",
          "ticks": 11234,
          "time": 130.62790697674419,
          "velocity": 0.10236220472440945
        },
        {
          "duration": 0.3604651162790731,
          "durationTicks": 31,
          "midi": 59,
          "name": "B3",
          "ticks": 11235,
          "time": 130.63953488372093,
          "velocity": 0.1732283464566929
        },
        {
          "duration": 0.08139534883721922,
          "durationTicks": 7,
          "midi": 67,
          "name": "G4",
          "ticks": 11237,
          "time": 130.6627906976744,
          "velocity": 0.23622047244094488
        },
        {
          "duration": 0.06976744186047767,
          "durationTicks": 6,
          "midi": 69,
          "name": "A4",
          "ticks": 11246,
          "time": 130.7674418604651,
          "velocity": 0.07874015748031496
        },
        {
          "duration": 0.06976744186047767,
          "durationTicks": 6,
          "midi": 100,
          "name": "E7",
          "ticks": 11246,
          "time": 130.7674418604651,
          "velocity": 0.11023622047244094
        },
        {
          "duration": 0.08139534883721922,
          "durationTicks": 7,
          "midi": 97,
          "name": "C#7",
          "ticks": 11247,
          "time": 130.77906976744185,
          "velocity": 0.10236220472440945
        },
        {
          "duration": 0.08139534883721922,
          "durationTicks": 7,
          "midi": 40,
          "name": "E2",
          "ticks": 11249,
          "time": 130.80232558139534,
          "velocity": 0.3543307086614173
        },
        {
          "duration": 0.08139534883721922,
          "durationTicks": 7,
          "midi": 83,
          "name": "B5",
          "ticks": 11255,
          "time": 130.87209302325581,
          "velocity": 0.16535433070866143
        },
        {
          "duration": 0.05813953488373613,
          "durationTicks": 5,
          "midi": 90,
          "name": "F#6",
          "ticks": 11256,
          "time": 130.88372093023256,
          "velocity": 0.11023622047244094
        },
        {
          "duration": 0.08139534883721922,
          "durationTicks": 7,
          "midi": 71,
          "name": "B4",
          "ticks": 11257,
          "time": 130.8953488372093,
          "velocity": 0.18110236220472442
        },
        {
          "duration": 0.06976744186044925,
          "durationTicks": 6,
          "midi": 47,
          "name": "B2",
          "ticks": 11261,
          "time": 130.9418604651163,
          "velocity": 0.2677165354330709
        },
        {
          "duration": 0.09302325581396076,
          "durationTicks": 8,
          "midi": 72,
          "name": "C5",
          "ticks": 11264,
          "time": 130.97674418604652,
          "velocity": 0.25196850393700787
        },
        {
          "duration": 0.034883720930224626,
          "durationTicks": 3,
          "midi": 100,
          "name": "E7",
          "ticks": 11265,
          "time": 130.98837209302326,
          "velocity": 0.08661417322834646
        },
        {
          "duration": 0.034883720930224626,
          "durationTicks": 3,
          "midi": 59,
          "name": "B3",
          "ticks": 11267,
          "time": 131.01162790697674,
          "velocity": 0.08661417322834646
        },
        {
          "duration": 0.1046511627907023,
          "durationTicks": 9,
          "midi": 67,
          "name": "G4",
          "ticks": 11267,
          "time": 131.01162790697674,
          "velocity": 0.2125984251968504
        },
        {
          "duration": 0.034883720930224626,
          "durationTicks": 3,
          "midi": 47,
          "name": "B2",
          "ticks": 11268,
          "time": 131.02325581395348,
          "velocity": 0.25984251968503935
        },
        {
          "duration": 0.03488372093025305,
          "durationTicks": 3,
          "midi": 91,
          "name": "G6",
          "ticks": 11269,
          "time": 131.03488372093022,
          "velocity": 0.08661417322834646
        },
        {
          "duration": 0.10465116279067388,
          "durationTicks": 9,
          "midi": 71,
          "name": "B4",
          "ticks": 11272,
          "time": 131.06976744186048,
          "velocity": 0.2125984251968504
        },
        {
          "duration": 0.13953488372092693,
          "durationTicks": 12,
          "midi": 64,
          "name": "E4",
          "ticks": 11273,
          "time": 131.08139534883722,
          "velocity": 0.14173228346456693
        },
        {
          "duration": 0.06976744186044925,
          "durationTicks": 6,
          "midi": 59,
          "name": "B3",
          "ticks": 11275,
          "time": 131.1046511627907,
          "velocity": 0.1889763779527559
        },
        {
          "duration": 0.06976744186047767,
          "durationTicks": 6,
          "midi": 52,
          "name": "E3",
          "ticks": 11277,
          "time": 131.12790697674419,
          "velocity": 0.25984251968503935
        },
        {
          "duration": 0.023255813953483084,
          "durationTicks": 2,
          "midi": 40,
          "name": "E2",
          "ticks": 11278,
          "time": 131.13953488372093,
          "velocity": 0.4094488188976378
        },
        {
          "duration": 0.06976744186047767,
          "durationTicks": 6,
          "midi": 67,
          "name": "G4",
          "ticks": 11279,
          "time": 131.15116279069767,
          "velocity": 0.10236220472440945
        },
        {
          "duration": 0.1046511627907023,
          "durationTicks": 9,
          "midi": 67,
          "name": "G4",
          "ticks": 11286,
          "time": 131.2325581395349,
          "velocity": 0.30708661417322836
        },
        {
          "duration": 0.023255813953483084,
          "durationTicks": 2,
          "midi": 41,
          "name": "F2",
          "ticks": 11287,
          "time": 131.24418604651163,
          "velocity": 0.33070866141732286
        },
        {
          "duration": 0.04651162790696617,
          "durationTicks": 4,
          "midi": 91,
          "name": "G6",
          "ticks": 11287,
          "time": 131.24418604651163,
          "velocity": 0.07086614173228346
        },
        {
          "duration": 0.05813953488373613,
          "durationTicks": 5,
          "midi": 42,
          "name": "F#2",
          "ticks": 11289,
          "time": 131.2674418604651,
          "velocity": 0.3464566929133858
        },
        {
          "duration": 0.04651162790696617,
          "durationTicks": 4,
          "midi": 57,
          "name": "A3",
          "ticks": 11293,
          "time": 131.3139534883721,
          "velocity": 0.10236220472440945
        },
        {
          "duration": 0.023255813953483084,
          "durationTicks": 2,
          "midi": 46,
          "name": "A#2",
          "ticks": 11295,
          "time": 131.3372093023256,
          "velocity": 0.33858267716535434
        },
        {
          "duration": 0.04651162790696617,
          "durationTicks": 4,
          "midi": 66,
          "name": "F#4",
          "ticks": 11295,
          "time": 131.3372093023256,
          "velocity": 0.15748031496062992
        },
        {
          "duration": 0.4186046511627808,
          "durationTicks": 36,
          "midi": 78,
          "name": "F#5",
          "ticks": 11295,
          "time": 131.3372093023256,
          "velocity": 0.2755905511811024
        },
        {
          "duration": 0.19767441860466306,
          "durationTicks": 17,
          "midi": 59,
          "name": "B3",
          "ticks": 11298,
          "time": 131.37209302325581,
          "velocity": 0.11811023622047244
        },
        {
          "duration": 0.023255813953511506,
          "durationTicks": 2,
          "midi": 35,
          "name": "B1",
          "ticks": 11302,
          "time": 131.41860465116278,
          "velocity": 0.2992125984251969
        },
        {
          "duration": 0.12790697674418539,
          "durationTicks": 11,
          "midi": 66,
          "name": "F#4",
          "ticks": 11303,
          "time": 131.43023255813952,
          "velocity": 0.15748031496062992
        },
        {
          "duration": 0.023255813953483084,
          "durationTicks": 2,
          "midi": 35,
          "name": "B1",
          "ticks": 11308,
          "time": 131.48837209302326,
          "velocity": 0.2755905511811024
        },
        {
          "duration": 0.023255813953483084,
          "durationTicks": 2,
          "midi": 35,
          "name": "B1",
          "ticks": 11311,
          "time": 131.52325581395348,
          "velocity": 0.28346456692913385
        },
        {
          "duration": 0.05813953488373613,
          "durationTicks": 5,
          "midi": 35,
          "name": "B1",
          "ticks": 11314,
          "time": 131.5581395348837,
          "velocity": 0.29133858267716534
        },
        {
          "duration": 0.06976744186044925,
          "durationTicks": 6,
          "midi": 54,
          "name": "F#3",
          "ticks": 11316,
          "time": 131.58139534883722,
          "velocity": 0.13385826771653545
        },
        {
          "duration": 0.10465116279067388,
          "durationTicks": 9,
          "midi": 66,
          "name": "F#4",
          "ticks": 11316,
          "time": 131.58139534883722,
          "velocity": 0.13385826771653545
        },
        {
          "duration": 0.09302325581393234,
          "durationTicks": 8,
          "midi": 85,
          "name": "C#6",
          "ticks": 11317,
          "time": 131.59302325581396,
          "velocity": 0.07874015748031496
        },
        {
          "duration": 0.06976744186047767,
          "durationTicks": 6,
          "midi": 47,
          "name": "B2",
          "ticks": 11320,
          "time": 131.62790697674419,
          "velocity": 0.23622047244094488
        },
        {
          "duration": 0.04651162790699459,
          "durationTicks": 4,
          "midi": 35,
          "name": "B1",
          "ticks": 11322,
          "time": 131.65116279069767,
          "velocity": 0.28346456692913385
        },
        {
          "duration": 0.0813953488371908,
          "durationTicks": 7,
          "midi": 67,
          "name": "G4",
          "ticks": 11326,
          "time": 131.69767441860466,
          "velocity": 0.2992125984251969
        },
        {
          "duration": 0.023255813953483084,
          "durationTicks": 2,
          "midi": 52,
          "name": "E3",
          "ticks": 11327,
          "time": 131.7093023255814,
          "velocity": 0.2440944881889764
        },
        {
          "duration": 0.04651162790699459,
          "durationTicks": 4,
          "midi": 66,
          "name": "F#4",
          "ticks": 11332,
          "time": 131.7674418604651,
          "velocity": 0.15748031496062992
        },
        {
          "duration": 0.03488372093025305,
          "durationTicks": 3,
          "midi": 62,
          "name": "D4",
          "ticks": 11335,
          "time": 131.80232558139534,
          "velocity": 0.10236220472440945
        },
        {
          "duration": 0.04651162790696617,
          "durationTicks": 4,
          "midi": 100,
          "name": "E7",
          "ticks": 11337,
          "time": 131.82558139534885,
          "velocity": 0.07086614173228346
        },
        {
          "duration": 0.034883720930224626,
          "durationTicks": 3,
          "midi": 41,
          "name": "F2",
          "ticks": 11338,
          "time": 131.8372093023256,
          "velocity": 0.4015748031496063
        },
        {
          "duration": 0.04651162790696617,
          "durationTicks": 4,
          "midi": 61,
          "name": "C#4",
          "ticks": 11338,
          "time": 131.8372093023256,
          "velocity": 0.07874015748031496
        },
        {
          "duration": 0.06976744186044925,
          "durationTicks": 6,
          "midi": 54,
          "name": "F#3",
          "ticks": 11339,
          "time": 131.84883720930233,
          "velocity": 0.15748031496062992
        },
        {
          "duration": 0.04651162790696617,
          "durationTicks": 4,
          "midi": 97,
          "name": "C#7",
          "ticks": 11339,
          "time": 131.84883720930233,
          "velocity": 0.07874015748031496
        },
        {
          "duration": 0.17441860465115155,
          "durationTicks": 15,
          "midi": 42,
          "name": "F#2",
          "ticks": 11341,
          "time": 131.87209302325581,
          "velocity": 0.33858267716535434
        },
        {
          "duration": 0.05813953488373613,
          "durationTicks": 5,
          "midi": 71,
          "name": "B4",
          "ticks": 11345,
          "time": 131.91860465116278,
          "velocity": 0.23622047244094488
        },
        {
          "duration": 0.04651162790699459,
          "durationTicks": 4,
          "midi": 90,
          "name": "F#6",
          "ticks": 11345,
          "time": 131.91860465116278,
          "velocity": 0.14960629921259844
        },
        {
          "duration": 0.023255813953511506,
          "durationTicks": 2,
          "midi": 53,
          "name": "F3",
          "ticks": 11346,
          "time": 131.93023255813952,
          "velocity": 0.2283464566929134
        },
        {
          "duration": 0.05813953488370771,
          "durationTicks": 5,
          "midi": 63,
          "name": "D#4",
          "ticks": 11348,
          "time": 131.95348837209303,
          "velocity": 0.07874015748031496
        },
        {
          "duration": 0.1046511627907023,
          "durationTicks": 9,
          "midi": 72,
          "name": "C5",
          "ticks": 11350,
          "time": 131.97674418604652,
          "velocity": 0.2755905511811024
        },
        {
          "duration": 0.034883720930224626,
          "durationTicks": 3,
          "midi": 67,
          "name": "G4",
          "ticks": 11353,
          "time": 132.01162790697674,
          "velocity": 0.12598425196850394
        },
        {
          "duration": 0.05813953488370771,
          "durationTicks": 5,
          "midi": 66,
          "name": "F#4",
          "ticks": 11358,
          "time": 132.06976744186048,
          "velocity": 0.08661417322834646
        },
        {
          "duration": 0.034883720930224626,
          "durationTicks": 3,
          "midi": 47,
          "name": "B2",
          "ticks": 11359,
          "time": 132.08139534883722,
          "velocity": 0.23622047244094488
        },
        {
          "duration": 0.06976744186044925,
          "durationTicks": 6,
          "midi": 71,
          "name": "B4",
          "ticks": 11359,
          "time": 132.08139534883722,
          "velocity": 0.2204724409448819
        },
        {
          "duration": 0.04651162790696617,
          "durationTicks": 4,
          "midi": 47,
          "name": "B2",
          "ticks": 11363,
          "time": 132.12790697674419,
          "velocity": 0.25984251968503935
        },
        {
          "duration": 0.04651162790696617,
          "durationTicks": 4,
          "midi": 69,
          "name": "A4",
          "ticks": 11364,
          "time": 132.13953488372093,
          "velocity": 0.13385826771653545
        },
        {
          "duration": 0.08139534883721922,
          "durationTicks": 7,
          "midi": 66,
          "name": "F#4",
          "ticks": 11368,
          "time": 132.1860465116279,
          "velocity": 0.13385826771653545
        },
        {
          "duration": 0.1511627906976969,
          "durationTicks": 13,
          "midi": 78,
          "name": "F#5",
          "ticks": 11368,
          "time": 132.1860465116279,
          "velocity": 0.2755905511811024
        },
        {
          "duration": 0.023255813953483084,
          "durationTicks": 2,
          "midi": 45,
          "name": "A2",
          "ticks": 11369,
          "time": 132.19767441860466,
          "velocity": 0.2283464566929134
        },
        {
          "duration": 0.034883720930224626,
          "durationTicks": 3,
          "midi": 53,
          "name": "F3",
          "ticks": 11369,
          "time": 132.19767441860466,
          "velocity": 0.13385826771653545
        },
        {
          "duration": 0.0813953488371908,
          "durationTicks": 7,
          "midi": 85,
          "name": "C#6",
          "ticks": 11369,
          "time": 132.19767441860466,
          "velocity": 0.11811023622047244
        },
        {
          "duration": 0.034883720930224626,
          "durationTicks": 3,
          "midi": 57,
          "name": "A3",
          "ticks": 11371,
          "time": 132.22093023255815,
          "velocity": 0.08661417322834646
        },
        {
          "duration": 0.6279069767441854,
          "durationTicks": 54,
          "midi": 59,
          "name": "B3",
          "ticks": 11376,
          "time": 132.27906976744185,
          "velocity": 0.2047244094488189
        },
        {
          "duration": 0.22093023255814614,
          "durationTicks": 19,
          "midi": 52,
          "name": "E3",
          "ticks": 11377,
          "time": 132.2906976744186,
          "velocity": 0.29133858267716534
        },
        {
          "duration": 0.18604651162792152,
          "durationTicks": 16,
          "midi": 67,
          "name": "G4",
          "ticks": 11377,
          "time": 132.2906976744186,
          "velocity": 0.25196850393700787
        },
        {
          "duration": 0.023255813953483084,
          "durationTicks": 2,
          "midi": 40,
          "name": "E2",
          "ticks": 11381,
          "time": 132.3372093023256,
          "velocity": 0.3228346456692913
        },
        {
          "duration": 0.25581395348837077,
          "durationTicks": 22,
          "midi": 40,
          "name": "E2",
          "ticks": 11384,
          "time": 132.37209302325581,
          "velocity": 0.3543307086614173
        },
        {
          "duration": 0.11627906976744384,
          "durationTicks": 10,
          "midi": 67,
          "name": "G4",
          "ticks": 11396,
          "time": 132.51162790697674,
          "velocity": 0.2204724409448819
        },
        {
          "duration": 0.08139534883721922,
          "durationTicks": 7,
          "midi": 69,
          "name": "A4",
          "ticks": 11406,
          "time": 132.62790697674419,
          "velocity": 0.09448818897637795
        },
        {
          "duration": 0.09302325581396076,
          "durationTicks": 8,
          "midi": 100,
          "name": "E7",
          "ticks": 11406,
          "time": 132.62790697674419,
          "velocity": 0.13385826771653545
        },
        {
          "duration": 0.023255813953483084,
          "durationTicks": 2,
          "midi": 40,
          "name": "E2",
          "ticks": 11413,
          "time": 132.7093023255814,
          "velocity": 0.30708661417322836
        },
        {
          "duration": 0.023255813953483084,
          "durationTicks": 2,
          "midi": 51,
          "name": "D#3",
          "ticks": 11415,
          "time": 132.7325581395349,
          "velocity": 0.25196850393700787
        },
        {
          "duration": 0.06976744186044925,
          "durationTicks": 6,
          "midi": 83,
          "name": "B5",
          "ticks": 11415,
          "time": 132.7325581395349,
          "velocity": 0.1732283464566929
        },
        {
          "duration": 0.05813953488370771,
          "durationTicks": 5,
          "midi": 90,
          "name": "F#6",
          "ticks": 11416,
          "time": 132.74418604651163,
          "velocity": 0.08661417322834646
        },
        {
          "duration": 0.023255813953483084,
          "durationTicks": 2,
          "midi": 45,
          "name": "A2",
          "ticks": 11418,
          "time": 132.7674418604651,
          "velocity": 0.33858267716535434
        },
        {
          "duration": 0.04651162790696617,
          "durationTicks": 4,
          "midi": 47,
          "name": "B2",
          "ticks": 11422,
          "time": 132.8139534883721,
          "velocity": 0.23622047244094488
        },
        {
          "duration": 0.11627906976744384,
          "durationTicks": 10,
          "midi": 72,
          "name": "C5",
          "ticks": 11426,
          "time": 132.86046511627907,
          "velocity": 0.25196850393700787
        },
        {
          "duration": 0.08139534883721922,
          "durationTicks": 7,
          "midi": 91,
          "name": "G6",
          "ticks": 11427,
          "time": 132.87209302325581,
          "velocity": 0.14173228346456693
        },
        {
          "duration": 0.05813953488373613,
          "durationTicks": 5,
          "midi": 67,
          "name": "G4",
          "ticks": 11429,
          "time": 132.8953488372093,
          "velocity": 0.13385826771653545
        },
        {
          "duration": 0.06976744186044925,
          "durationTicks": 6,
          "midi": 83,
          "name": "B5",
          "ticks": 11433,
          "time": 132.9418604651163,
          "velocity": 0.12598425196850394
        },
        {
          "duration": 0.023255813953483084,
          "durationTicks": 2,
          "midi": 50,
          "name": "D3",
          "ticks": 11434,
          "time": 132.95348837209303,
          "velocity": 0.2677165354330709
        },
        {
          "duration": 0.05813953488370771,
          "durationTicks": 5,
          "midi": 59,
          "name": "B3",
          "ticks": 11434,
          "time": 132.95348837209303,
          "velocity": 0.13385826771653545
        },
        {
          "duration": 0.05813953488370771,
          "durationTicks": 5,
          "midi": 90,
          "name": "F#6",
          "ticks": 11434,
          "time": 132.95348837209303,
          "velocity": 0.08661417322834646
        },
        {
          "duration": 0.09302325581393234,
          "durationTicks": 8,
          "midi": 71,
          "name": "B4",
          "ticks": 11435,
          "time": 132.96511627906978,
          "velocity": 0.2204724409448819
        },
        {
          "duration": 0.023255813953483084,
          "durationTicks": 2,
          "midi": 40,
          "name": "E2",
          "ticks": 11437,
          "time": 132.98837209302326,
          "velocity": 0.4015748031496063
        },
        {
          "duration": 0.023255813953483084,
          "durationTicks": 2,
          "midi": 39,
          "name": "D#2",
          "ticks": 11439,
          "time": 133.01162790697674,
          "velocity": 0.33858267716535434
        },
        {
          "duration": 0.05813953488373613,
          "durationTicks": 5,
          "midi": 67,
          "name": "G4",
          "ticks": 11439,
          "time": 133.01162790697674,
          "velocity": 0.11023622047244094
        },
        {
          "duration": 0.023255813953483084,
          "durationTicks": 2,
          "midi": 40,
          "name": "E2",
          "ticks": 11444,
          "time": 133.06976744186048,
          "velocity": 0.33070866141732286
        },
        {
          "duration": 0.06976744186044925,
          "durationTicks": 6,
          "midi": 67,
          "name": "G4",
          "ticks": 11445,
          "time": 133.08139534883722,
          "velocity": 0.11023622047244094
        },
        {
          "duration": 0.034883720930224626,
          "durationTicks": 3,
          "midi": 42,
          "name": "F#2",
          "ticks": 11447,
          "time": 133.1046511627907,
          "velocity": 0.36220472440944884
        },
        {
          "duration": 0.04651162790699459,
          "durationTicks": 4,
          "midi": 42,
          "name": "F#2",
          "ticks": 11451,
          "time": 133.15116279069767,
          "velocity": 0.36220472440944884
        },
        {
          "duration": 0.023255813953483084,
          "durationTicks": 2,
          "midi": 55,
          "name": "G3",
          "ticks": 11456,
          "time": 133.2093023255814,
          "velocity": 0.25196850393700787
        },
        {
          "duration": 0.1046511627907023,
          "durationTicks": 9,
          "midi": 66,
          "name": "F#4",
          "ticks": 11456,
          "time": 133.2093023255814,
          "velocity": 0.12598425196850394
        },
        {
          "duration": 0.2325581395348877,
          "durationTicks": 20,
          "midi": 78,
          "name": "F#5",
          "ticks": 11456,
          "time": 133.2093023255814,
          "velocity": 0.23622047244094488
        },
        {
          "duration": 0.034883720930224626,
          "durationTicks": 3,
          "midi": 35,
          "name": "B1",
          "ticks": 11458,
          "time": 133.2325581395349,
          "velocity": 0.2755905511811024
        },
        {
          "duration": 0.04651162790696617,
          "durationTicks": 4,
          "midi": 47,
          "name": "B2",
          "ticks": 11458,
          "time": 133.2325581395349,
          "velocity": 0.33070866141732286
        },
        {
          "duration": 0.04651162790696617,
          "durationTicks": 4,
          "midi": 54,
          "name": "F#3",
          "ticks": 11458,
          "time": 133.2325581395349,
          "velocity": 0.2204724409448819
        },
        {
          "duration": 0.25581395348837077,
          "durationTicks": 22,
          "midi": 47,
          "name": "B2",
          "ticks": 11463,
          "time": 133.2906976744186,
          "velocity": 0.31496062992125984
        },
        {
          "duration": 0.08139534883721922,
          "durationTicks": 7,
          "midi": 54,
          "name": "F#3",
          "ticks": 11463,
          "time": 133.2906976744186,
          "velocity": 0.1732283464566929
        },
        {
          "duration": 0.04651162790696617,
          "durationTicks": 4,
          "midi": 35,
          "name": "B1",
          "ticks": 11465,
          "time": 133.3139534883721,
          "velocity": 0.25984251968503935
        },
        {
          "duration": 0.023255813953483084,
          "durationTicks": 2,
          "midi": 35,
          "name": "B1",
          "ticks": 11470,
          "time": 133.37209302325581,
          "velocity": 0.25984251968503935
        },
        {
          "duration": 0.06976744186047767,
          "durationTicks": 6,
          "midi": 66,
          "name": "F#4",
          "ticks": 11470,
          "time": 133.37209302325581,
          "velocity": 0.14960629921259844
        },
        {
          "duration": 0.023255813953483084,
          "durationTicks": 2,
          "midi": 35,
          "name": "B1",
          "ticks": 11473,
          "time": 133.40697674418604,
          "velocity": 0.25984251968503935
        },
        {
          "duration": 0.03488372093025305,
          "durationTicks": 3,
          "midi": 54,
          "name": "F#3",
          "ticks": 11475,
          "time": 133.43023255813952,
          "velocity": 0.11023622047244094
        },
        {
          "duration": 0.11627906976741542,
          "durationTicks": 10,
          "midi": 35,
          "name": "B1",
          "ticks": 11476,
          "time": 133.4418604651163,
          "velocity": 0.2755905511811024
        },
        {
          "duration": 0.0813953488371908,
          "durationTicks": 7,
          "midi": 78,
          "name": "F#5",
          "ticks": 11478,
          "time": 133.46511627906978,
          "velocity": 0.2047244094488189
        },
        {
          "duration": 0.023255813953511506,
          "durationTicks": 2,
          "midi": 48,
          "name": "C3",
          "ticks": 11485,
          "time": 133.54651162790697,
          "velocity": 0.2755905511811024
        },
        {
          "duration": 0.11627906976744384,
          "durationTicks": 10,
          "midi": 67,
          "name": "G4",
          "ticks": 11485,
          "time": 133.54651162790697,
          "velocity": 0.2992125984251969
        },
        {
          "duration": 0.05813953488373613,
          "durationTicks": 5,
          "midi": 95,
          "name": "B6",
          "ticks": 11486,
          "time": 133.5581395348837,
          "velocity": 0.08661417322834646
        },
        {
          "duration": 0.06976744186044925,
          "durationTicks": 6,
          "midi": 47,
          "name": "B2",
          "ticks": 11489,
          "time": 133.59302325581396,
          "velocity": 0.2047244094488189
        },
        {
          "duration": 0.03488372093025305,
          "durationTicks": 3,
          "midi": 72,
          "name": "C5",
          "ticks": 11495,
          "time": 133.6627906976744,
          "velocity": 0.2125984251968504
        },
        {
          "duration": 0.05813953488373613,
          "durationTicks": 5,
          "midi": 61,
          "name": "C#4",
          "ticks": 11496,
          "time": 133.67441860465115,
          "velocity": 0.16535433070866143
        },
        {
          "duration": 0.023255813953511506,
          "durationTicks": 2,
          "midi": 40,
          "name": "E2",
          "ticks": 11497,
          "time": 133.6860465116279,
          "velocity": 0.3700787401574803
        },
        {
          "duration": 0.19767441860463464,
          "durationTicks": 17,
          "midi": 42,
          "name": "F#2",
          "ticks": 11500,
          "time": 133.72093023255815,
          "velocity": 0.3700787401574803
        },
        {
          "duration": 0.034883720930224626,
          "durationTicks": 3,
          "midi": 97,
          "name": "C#7",
          "ticks": 11501,
          "time": 133.7325581395349,
          "velocity": 0.08661417322834646
        },
        {
          "duration": 0.05813953488373613,
          "durationTicks": 5,
          "midi": 71,
          "name": "B4",
          "ticks": 11505,
          "time": 133.77906976744185,
          "velocity": 0.2047244094488189
        },
        {
          "duration": 0.05813953488373613,
          "durationTicks": 5,
          "midi": 90,
          "name": "F#6",
          "ticks": 11505,
          "time": 133.77906976744185,
          "velocity": 0.18110236220472442
        },
        {
          "duration": 0.09302325581393234,
          "durationTicks": 8,
          "midi": 72,
          "name": "C5",
          "ticks": 11510,
          "time": 133.8372093023256,
          "velocity": 0.2992125984251969
        },
        {
          "duration": 0.0813953488371908,
          "durationTicks": 7,
          "midi": 96,
          "name": "C7",
          "ticks": 11511,
          "time": 133.84883720930233,
          "velocity": 0.08661417322834646
        },
        {
          "duration": 0.034883720930224626,
          "durationTicks": 3,
          "midi": 67,
          "name": "G4",
          "ticks": 11512,
          "time": 133.86046511627907,
          "velocity": 0.09448818897637795
        },
        {
          "duration": 0.03488372093025305,
          "durationTicks": 3,
          "midi": 58,
          "name": "A#3",
          "ticks": 11517,
          "time": 133.91860465116278,
          "velocity": 0.1889763779527559
        },
        {
          "duration": 0.11627906976744384,
          "durationTicks": 10,
          "midi": 66,
          "name": "F#4",
          "ticks": 11517,
          "time": 133.91860465116278,
          "velocity": 0.1732283464566929
        },
        {
          "duration": 0.04651162790699459,
          "durationTicks": 4,
          "midi": 71,
          "name": "B4",
          "ticks": 11518,
          "time": 133.93023255813952,
          "velocity": 0.2125984251968504
        },
        {
          "duration": 0.04651162790696617,
          "durationTicks": 4,
          "midi": 47,
          "name": "B2",
          "ticks": 11521,
          "time": 133.96511627906978,
          "velocity": 0.1889763779527559
        },
        {
          "duration": 0.034883720930224626,
          "durationTicks": 3,
          "midi": 69,
          "name": "A4",
          "ticks": 11526,
          "time": 134.02325581395348,
          "velocity": 0.07874015748031496
        },
        {
          "duration": 0.04651162790696617,
          "durationTicks": 4,
          "midi": 66,
          "name": "F#4",
          "ticks": 11530,
          "time": 134.06976744186048,
          "velocity": 0.11811023622047244
        },
        {
          "duration": 0.05813953488370771,
          "durationTicks": 5,
          "midi": 78,
          "name": "F#5",
          "ticks": 11530,
          "time": 134.06976744186048,
          "velocity": 0.2440944881889764
        },
        {
          "duration": 0.034883720930224626,
          "durationTicks": 3,
          "midi": 41,
          "name": "F2",
          "ticks": 11535,
          "time": 134.12790697674419,
          "velocity": 0.3228346456692913
        },
        {
          "duration": 0.023255813953483084,
          "durationTicks": 2,
          "midi": 51,
          "name": "D#3",
          "ticks": 11535,
          "time": 134.12790697674419,
          "velocity": 0.30708661417322836
        },
        {
          "duration": 1.8720930232558146,
          "durationTicks": 161,
          "midi": 64,
          "name": "E4",
          "ticks": 11535,
          "time": 134.12790697674419,
          "velocity": 0.2755905511811024
        },
        {
          "duration": 0.023255813953483084,
          "durationTicks": 2,
          "midi": 52,
          "name": "E3",
          "ticks": 11537,
          "time": 134.15116279069767,
          "velocity": 0.2677165354330709
        },
        {
          "duration": 0.2674418604651123,
          "durationTicks": 23,
          "midi": 59,
          "name": "B3",
          "ticks": 11538,
          "time": 134.1627906976744,
          "velocity": 0.1889763779527559
        },
        {
          "duration": 0.023255813953511506,
          "durationTicks": 2,
          "midi": 39,
          "name": "D#2",
          "ticks": 11539,
          "time": 134.17441860465115,
          "velocity": 0.3228346456692913
        },
        {
          "duration": 0.03488372093025305,
          "durationTicks": 3,
          "midi": 52,
          "name": "E3",
          "ticks": 11540,
          "time": 134.1860465116279,
          "velocity": 0.13385826771653545
        },
        {
          "duration": 0.4186046511627808,
          "durationTicks": 36,
          "midi": 40,
          "name": "E2",
          "ticks": 11541,
          "time": 134.19767441860466,
          "velocity": 0.33858267716535434
        },
        {
          "duration": 0.16279069767443843,
          "durationTicks": 14,
          "midi": 47,
          "name": "B2",
          "ticks": 11582,
          "time": 134.67441860465115,
          "velocity": 0.29133858267716534
        },
        {
          "duration": 0.08139534883721922,
          "durationTicks": 7,
          "midi": 67,
          "name": "G4",
          "ticks": 11589,
          "time": 134.75581395348837,
          "velocity": 0.11023622047244094
        },
        {
          "duration": 0.034883720930224626,
          "durationTicks": 3,
          "midi": 70,
          "name": "A#4",
          "ticks": 11594,
          "time": 134.8139534883721,
          "velocity": 0.14173228346456693
        },
        {
          "duration": 0.09302325581396076,
          "durationTicks": 8,
          "midi": 59,
          "name": "B3",
          "ticks": 11599,
          "time": 134.87209302325581,
          "velocity": 0.12598425196850394
        },
        {
          "duration": 0.17441860465117998,
          "durationTicks": 15,
          "midi": 47,
          "name": "B2",
          "ticks": 11601,
          "time": 134.8953488372093,
          "velocity": 0.28346456692913385
        },
        {
          "duration": 0.15116279069766847,
          "durationTicks": 13,
          "midi": 35,
          "name": "B1",
          "ticks": 11602,
          "time": 134.90697674418604,
          "velocity": 0.28346456692913385
        },
        {
          "duration": 0.04651162790699459,
          "durationTicks": 4,
          "midi": 67,
          "name": "G4",
          "ticks": 11615,
          "time": 135.0581395348837,
          "velocity": 0.13385826771653545
        },
        {
          "duration": 0.023255813953483084,
          "durationTicks": 2,
          "midi": 43,
          "name": "G2",
          "ticks": 11616,
          "time": 135.06976744186048,
          "velocity": 0.3464566929133858
        },
        {
          "duration": 0.19767441860466306,
          "durationTicks": 17,
          "midi": 40,
          "name": "E2",
          "ticks": 11621,
          "time": 135.12790697674419,
          "velocity": 0.33858267716535434
        },
        {
          "duration": 0.12790697674418539,
          "durationTicks": 11,
          "midi": 59,
          "name": "B3",
          "ticks": 11623,
          "time": 135.15116279069767,
          "velocity": 0.07086614173228346
        },
        {
          "duration": 0.034883720930224626,
          "durationTicks": 3,
          "midi": 40,
          "name": "E2",
          "ticks": 11639,
          "time": 135.3372093023256,
          "velocity": 0.33858267716535434
        },
        {
          "duration": 0.1046511627907023,
          "durationTicks": 9,
          "midi": 67,
          "name": "G4",
          "ticks": 11642,
          "time": 135.37209302325581,
          "velocity": 0.13385826771653545
        },
        {
          "duration": 0.023255813953511506,
          "durationTicks": 2,
          "midi": 35,
          "name": "B1",
          "ticks": 11646,
          "time": 135.41860465116278,
          "velocity": 0.33070866141732286
        },
        {
          "duration": 0.05813953488370771,
          "durationTicks": 5,
          "midi": 36,
          "name": "C2",
          "ticks": 11650,
          "time": 135.46511627906978,
          "velocity": 0.29133858267716534
        },
        {
          "duration": 0.06976744186044925,
          "durationTicks": 6,
          "midi": 52,
          "name": "E3",
          "ticks": 11650,
          "time": 135.46511627906978,
          "velocity": 0.23622047244094488
        },
        {
          "duration": 0.023255813953483084,
          "durationTicks": 2,
          "midi": 44,
          "name": "G#2",
          "ticks": 11655,
          "time": 135.52325581395348,
          "velocity": 0.2992125984251969
        },
        {
          "duration": 0.023255813953511506,
          "durationTicks": 2,
          "midi": 46,
          "name": "A#2",
          "ticks": 11658,
          "time": 135.5581395348837,
          "velocity": 0.2755905511811024
        },
        {
          "duration": 0.034883720930224626,
          "durationTicks": 3,
          "midi": 53,
          "name": "F3",
          "ticks": 11659,
          "time": 135.56976744186048,
          "velocity": 0.08661417322834646
        },
        {
          "duration": 0.12790697674418539,
          "durationTicks": 11,
          "midi": 35,
          "name": "B1",
          "ticks": 11660,
          "time": 135.58139534883722,
          "velocity": 0.29133858267716534
        },
        {
          "duration": 0.023255813953483084,
          "durationTicks": 2,
          "midi": 36,
          "name": "C2",
          "ticks": 11671,
          "time": 135.7093023255814,
          "velocity": 0.2677165354330709
        },
        {
          "duration": 0.034883720930224626,
          "durationTicks": 3,
          "midi": 70,
          "name": "A#4",
          "ticks": 11674,
          "time": 135.74418604651163,
          "velocity": 0.18110236220472442
        },
        {
          "duration": 0.023255813953483084,
          "durationTicks": 2,
          "midi": 46,
          "name": "A#2",
          "ticks": 11675,
          "time": 135.75581395348837,
          "velocity": 0.3464566929133858
        },
        {
          "duration": 0.03488372093025305,
          "durationTicks": 3,
          "midi": 31,
          "name": "G1",
          "ticks": 11678,
          "time": 135.7906976744186,
          "velocity": 0.23622047244094488
        },
        {
          "duration": 0.09302325581393234,
          "durationTicks": 8,
          "midi": 67,
          "name": "G4",
          "ticks": 11680,
          "time": 135.8139534883721,
          "velocity": 0.1732283464566929
        },
        {
          "duration": 0.05813953488370771,
          "durationTicks": 5,
          "midi": 46,
          "name": "A#2",
          "ticks": 11681,
          "time": 135.82558139534885,
          "velocity": 0.28346456692913385
        },
        {
          "duration": 0.04651162790696617,
          "durationTicks": 4,
          "midi": 34,
          "name": "A#1",
          "ticks": 11682,
          "time": 135.8372093023256,
          "velocity": 0.25196850393700787
        },
        {
          "duration": 0.023255813953483084,
          "durationTicks": 2,
          "midi": 52,
          "name": "E3",
          "ticks": 11686,
          "time": 135.88372093023256,
          "velocity": 0.2440944881889764
        },
        {
          "duration": 0.04651162790699459,
          "durationTicks": 4,
          "midi": 34,
          "name": "A#1",
          "ticks": 11687,
          "time": 135.8953488372093,
          "velocity": 0.23622047244094488
        },
        {
          "duration": 0.023255813953483084,
          "durationTicks": 2,
          "midi": 44,
          "name": "G#2",
          "ticks": 11695,
          "time": 135.98837209302326,
          "velocity": 0.2440944881889764
        },
        {
          "duration": 0.08139534883721922,
          "durationTicks": 7,
          "midi": 57,
          "name": "A3",
          "ticks": 11696,
          "time": 136,
          "velocity": 0.2755905511811024
        },
        {
          "duration": 0.12790697674418539,
          "durationTicks": 11,
          "midi": 76,
          "name": "E5",
          "ticks": 11696,
          "time": 136,
          "velocity": 0.1968503937007874
        },
        {
          "duration": 0.11627906976744384,
          "durationTicks": 10,
          "midi": 52,
          "name": "E3",
          "ticks": 11697,
          "time": 136.01162790697674,
          "velocity": 0.33858267716535434
        },
        {
          "duration": 0.023255813953483084,
          "durationTicks": 2,
          "midi": 41,
          "name": "F2",
          "ticks": 11698,
          "time": 136.02325581395348,
          "velocity": 0.2755905511811024
        },
        {
          "duration": 0.06976744186047767,
          "durationTicks": 6,
          "midi": 67,
          "name": "G4",
          "ticks": 11700,
          "time": 136.04651162790697,
          "velocity": 0.12598425196850394
        },
        {
          "duration": 0.17441860465115155,
          "durationTicks": 15,
          "midi": 33,
          "name": "A1",
          "ticks": 11703,
          "time": 136.08139534883722,
          "velocity": 0.2125984251968504
        },
        {
          "duration": 0.19767441860466306,
          "durationTicks": 17,
          "midi": 57,
          "name": "A3",
          "ticks": 11706,
          "time": 136.11627906976744,
          "velocity": 0.25984251968503935
        },
        {
          "duration": 0.09302325581396076,
          "durationTicks": 8,
          "midi": 52,
          "name": "E3",
          "ticks": 11708,
          "time": 136.13953488372093,
          "velocity": 0.31496062992125984
        },
        {
          "duration": 0.18604651162792152,
          "durationTicks": 16,
          "midi": 67,
          "name": "G4",
          "ticks": 11708,
          "time": 136.13953488372093,
          "velocity": 0.14173228346456693
        },
        {
          "duration": 0.034883720930224626,
          "durationTicks": 3,
          "midi": 44,
          "name": "G#2",
          "ticks": 11709,
          "time": 136.15116279069767,
          "velocity": 0.14173228346456693
        },
        {
          "duration": 0.04651162790696617,
          "durationTicks": 4,
          "midi": 52,
          "name": "E3",
          "ticks": 11717,
          "time": 136.24418604651163,
          "velocity": 0.1889763779527559
        },
        {
          "duration": 0.034883720930224626,
          "durationTicks": 3,
          "midi": 33,
          "name": "A1",
          "ticks": 11719,
          "time": 136.2674418604651,
          "velocity": 0.1889763779527559
        },
        {
          "duration": 0.05813953488373613,
          "durationTicks": 5,
          "midi": 34,
          "name": "A#1",
          "ticks": 11722,
          "time": 136.30232558139534,
          "velocity": 0.1968503937007874
        },
        {
          "duration": 0.023255813953483084,
          "durationTicks": 2,
          "midi": 53,
          "name": "F3",
          "ticks": 11726,
          "time": 136.34883720930233,
          "velocity": 0.25196850393700787
        },
        {
          "duration": 0.04651162790696617,
          "durationTicks": 4,
          "midi": 52,
          "name": "E3",
          "ticks": 11728,
          "time": 136.37209302325581,
          "velocity": 0.2677165354330709
        },
        {
          "duration": 0.023255813953483084,
          "durationTicks": 2,
          "midi": 45,
          "name": "A2",
          "ticks": 11731,
          "time": 136.40697674418604,
          "velocity": 0.25984251968503935
        },
        {
          "duration": 0.023255813953483084,
          "durationTicks": 2,
          "midi": 36,
          "name": "C2",
          "ticks": 11735,
          "time": 136.45348837209303,
          "velocity": 0.25196850393700787
        },
        {
          "duration": 0.05813953488370771,
          "durationTicks": 5,
          "midi": 83,
          "name": "B5",
          "ticks": 11736,
          "time": 136.46511627906978,
          "velocity": 0.1732283464566929
        },
        {
          "duration": 0.1046511627907023,
          "durationTicks": 9,
          "midi": 71,
          "name": "B4",
          "ticks": 11737,
          "time": 136.47674418604652,
          "velocity": 0.1889763779527559
        },
        {
          "duration": 0.034883720930224626,
          "durationTicks": 3,
          "midi": 99,
          "name": "D#7",
          "ticks": 11737,
          "time": 136.47674418604652,
          "velocity": 0.07874015748031496
        },
        {
          "duration": 0.15116279069766847,
          "durationTicks": 13,
          "midi": 36,
          "name": "C2",
          "ticks": 11740,
          "time": 136.51162790697674,
          "velocity": 0.33070866141732286
        },
        {
          "duration": 0.05813953488373613,
          "durationTicks": 5,
          "midi": 55,
          "name": "G3",
          "ticks": 11741,
          "time": 136.52325581395348,
          "velocity": 0.11023622047244094
        },
        {
          "duration": 0.12790697674418539,
          "durationTicks": 11,
          "midi": 64,
          "name": "E4",
          "ticks": 11745,
          "time": 136.56976744186048,
          "velocity": 0.12598425196850394
        },
        {
          "duration": 0.12790697674418539,
          "durationTicks": 11,
          "midi": 72,
          "name": "C5",
          "ticks": 11746,
          "time": 136.58139534883722,
          "velocity": 0.2125984251968504
        },
        {
          "duration": 0.09302325581393234,
          "durationTicks": 8,
          "midi": 96,
          "name": "C7",
          "ticks": 11746,
          "time": 136.58139534883722,
          "velocity": 0.09448818897637795
        },
        {
          "duration": 0.09302325581393234,
          "durationTicks": 8,
          "midi": 91,
          "name": "G6",
          "ticks": 11747,
          "time": 136.59302325581396,
          "velocity": 0.08661417322834646
        },
        {
          "duration": 0.17441860465117998,
          "durationTicks": 15,
          "midi": 59,
          "name": "B3",
          "ticks": 11755,
          "time": 136.6860465116279,
          "velocity": 0.2047244094488189
        },
        {
          "duration": 0.023255813953483084,
          "durationTicks": 2,
          "midi": 37,
          "name": "C#2",
          "ticks": 11756,
          "time": 136.69767441860466,
          "velocity": 0.28346456692913385
        },
        {
          "duration": 0.04651162790696617,
          "durationTicks": 4,
          "midi": 52,
          "name": "E3",
          "ticks": 11757,
          "time": 136.7093023255814,
          "velocity": 0.28346456692913385
        },
        {
          "duration": 0.22093023255814614,
          "durationTicks": 19,
          "midi": 67,
          "name": "G4",
          "ticks": 11758,
          "time": 136.72093023255815,
          "velocity": 0.15748031496062992
        },
        {
          "duration": 0.023255813953483084,
          "durationTicks": 2,
          "midi": 40,
          "name": "E2",
          "ticks": 11759,
          "time": 136.7325581395349,
          "velocity": 0.33070866141732286
        },
        {
          "duration": 0.023255813953483084,
          "durationTicks": 2,
          "midi": 39,
          "name": "D#2",
          "ticks": 11761,
          "time": 136.75581395348837,
          "velocity": 0.3228346456692913
        },
        {
          "duration": 0.023255813953483084,
          "durationTicks": 2,
          "midi": 40,
          "name": "E2",
          "ticks": 11763,
          "time": 136.77906976744185,
          "velocity": 0.3543307086614173
        },
        {
          "duration": 0.04651162790699459,
          "durationTicks": 4,
          "midi": 64,
          "name": "E4",
          "ticks": 11765,
          "time": 136.80232558139534,
          "velocity": 0.12598425196850394
        },
        {
          "duration": 0.2906976744186238,
          "durationTicks": 25,
          "midi": 83,
          "name": "B5",
          "ticks": 11765,
          "time": 136.80232558139534,
          "velocity": 0.14173228346456693
        },
        {
          "duration": 0.05813953488370771,
          "durationTicks": 5,
          "midi": 40,
          "name": "E2",
          "ticks": 11766,
          "time": 136.8139534883721,
          "velocity": 0.3464566929133858
        },
        {
          "duration": 0.2906976744185954,
          "durationTicks": 25,
          "midi": 90,
          "name": "F#6",
          "ticks": 11766,
          "time": 136.8139534883721,
          "velocity": 0.1968503937007874
        },
        {
          "duration": 0.023255813953483084,
          "durationTicks": 2,
          "midi": 39,
          "name": "D#2",
          "ticks": 11771,
          "time": 136.87209302325581,
          "velocity": 0.2992125984251969
        },
        {
          "duration": 0.023255813953483084,
          "durationTicks": 2,
          "midi": 39,
          "name": "D#2",
          "ticks": 11774,
          "time": 136.90697674418604,
          "velocity": 0.25984251968503935
        },
        {
          "duration": 0.03488372093025305,
          "durationTicks": 3,
          "midi": 55,
          "name": "G3",
          "ticks": 11774,
          "time": 136.90697674418604,
          "velocity": 0.08661417322834646
        },
        {
          "duration": 0.27906976744185386,
          "durationTicks": 24,
          "midi": 57,
          "name": "A3",
          "ticks": 11778,
          "time": 136.95348837209303,
          "velocity": 0.23622047244094488
        },
        {
          "duration": 0.06976744186044925,
          "durationTicks": 6,
          "midi": 50,
          "name": "D3",
          "ticks": 11779,
          "time": 136.96511627906978,
          "velocity": 0.28346456692913385
        },
        {
          "duration": 0.023255813953483084,
          "durationTicks": 2,
          "midi": 37,
          "name": "C#2",
          "ticks": 11780,
          "time": 136.97674418604652,
          "velocity": 0.2992125984251969
        },
        {
          "duration": 0.023255813953483084,
          "durationTicks": 2,
          "midi": 38,
          "name": "D2",
          "ticks": 11782,
          "time": 137,
          "velocity": 0.2992125984251969
        },
        {
          "duration": 0.06976744186047767,
          "durationTicks": 6,
          "midi": 50,
          "name": "D3",
          "ticks": 11786,
          "time": 137.04651162790697,
          "velocity": 0.2755905511811024
        },
        {
          "duration": 0.023255813953511506,
          "durationTicks": 2,
          "midi": 38,
          "name": "D2",
          "ticks": 11787,
          "time": 137.0581395348837,
          "velocity": 0.29133858267716534
        },
        {
          "duration": 0.034883720930224626,
          "durationTicks": 3,
          "midi": 38,
          "name": "D2",
          "ticks": 11790,
          "time": 137.09302325581396,
          "velocity": 0.29133858267716534
        },
        {
          "duration": 0.034883720930224626,
          "durationTicks": 3,
          "midi": 37,
          "name": "C#2",
          "ticks": 11793,
          "time": 137.12790697674419,
          "velocity": 0.3228346456692913
        },
        {
          "duration": 0.04651162790696617,
          "durationTicks": 4,
          "midi": 50,
          "name": "D3",
          "ticks": 11793,
          "time": 137.12790697674419,
          "velocity": 0.2440944881889764
        },
        {
          "duration": 0.08139534883721922,
          "durationTicks": 7,
          "midi": 88,
          "name": "E6",
          "ticks": 11798,
          "time": 137.1860465116279,
          "velocity": 0.09448818897637795
        },
        {
          "duration": 0.0813953488371908,
          "durationTicks": 7,
          "midi": 66,
          "name": "F#4",
          "ticks": 11799,
          "time": 137.19767441860466,
          "velocity": 0.12598425196850394
        },
        {
          "duration": 0.0813953488371908,
          "durationTicks": 7,
          "midi": 81,
          "name": "A5",
          "ticks": 11800,
          "time": 137.2093023255814,
          "velocity": 0.11023622047244094
        },
        {
          "duration": 0.034883720930224626,
          "durationTicks": 3,
          "midi": 54,
          "name": "F#3",
          "ticks": 11801,
          "time": 137.22093023255815,
          "velocity": 0.13385826771653545
        },
        {
          "duration": 0.13953488372092693,
          "durationTicks": 12,
          "midi": 61,
          "name": "C#4",
          "ticks": 11802,
          "time": 137.2325581395349,
          "velocity": 0.18110236220472442
        },
        {
          "duration": 0.023255813953483084,
          "durationTicks": 2,
          "midi": 41,
          "name": "F2",
          "ticks": 11803,
          "time": 137.24418604651163,
          "velocity": 0.3228346456692913
        },
        {
          "duration": 0.12790697674418539,
          "durationTicks": 11,
          "midi": 42,
          "name": "F#2",
          "ticks": 11805,
          "time": 137.2674418604651,
          "velocity": 0.33070866141732286
        },
        {
          "duration": 0.03488372093025305,
          "durationTicks": 3,
          "midi": 67,
          "name": "G4",
          "ticks": 11806,
          "time": 137.27906976744185,
          "velocity": 0.14960629921259844
        },
        {
          "duration": 0.0813953488371908,
          "durationTicks": 7,
          "midi": 66,
          "name": "F#4",
          "ticks": 11809,
          "time": 137.3139534883721,
          "velocity": 0.1889763779527559
        },
        {
          "duration": 0.0813953488371908,
          "durationTicks": 7,
          "midi": 72,
          "name": "C5",
          "ticks": 11811,
          "time": 137.3372093023256,
          "velocity": 0.14173228346456693
        },
        {
          "duration": 0.16279069767441,
          "durationTicks": 14,
          "midi": 67,
          "name": "G4",
          "ticks": 11816,
          "time": 137.3953488372093,
          "velocity": 0.25196850393700787
        },
        {
          "duration": 0.11627906976744384,
          "durationTicks": 10,
          "midi": 57,
          "name": "A3",
          "ticks": 11818,
          "time": 137.41860465116278,
          "velocity": 0.2047244094488189
        },
        {
          "duration": 0.023255813953511506,
          "durationTicks": 2,
          "midi": 44,
          "name": "G#2",
          "ticks": 11819,
          "time": 137.43023255813952,
          "velocity": 0.3700787401574803
        },
        {
          "duration": 0.13953488372092693,
          "durationTicks": 12,
          "midi": 45,
          "name": "A2",
          "ticks": 11821,
          "time": 137.45348837209303,
          "velocity": 0.33070866141732286
        },
        {
          "duration": 0.05813953488373613,
          "durationTicks": 5,
          "midi": 64,
          "name": "E4",
          "ticks": 11827,
          "time": 137.52325581395348,
          "velocity": 0.11023622047244094
        },
        {
          "duration": 0.023255813953483084,
          "durationTicks": 2,
          "midi": 44,
          "name": "G#2",
          "ticks": 11833,
          "time": 137.59302325581396,
          "velocity": 0.29133858267716534
        },
        {
          "duration": 0.04651162790696617,
          "durationTicks": 4,
          "midi": 64,
          "name": "E4",
          "ticks": 11834,
          "time": 137.6046511627907,
          "velocity": 0.1732283464566929
        },
        {
          "duration": 0.04651162790696617,
          "durationTicks": 4,
          "midi": 70,
          "name": "A#4",
          "ticks": 11834,
          "time": 137.6046511627907,
          "velocity": 0.18110236220472442
        },
        {
          "duration": 0.18604651162792152,
          "durationTicks": 16,
          "midi": 61,
          "name": "C#4",
          "ticks": 11837,
          "time": 137.63953488372093,
          "velocity": 0.15748031496062992
        },
        {
          "duration": 0.023255813953483084,
          "durationTicks": 2,
          "midi": 39,
          "name": "D#2",
          "ticks": 11838,
          "time": 137.65116279069767,
          "velocity": 0.25196850393700787
        },
        {
          "duration": 0.12790697674418539,
          "durationTicks": 11,
          "midi": 78,
          "name": "F#5",
          "ticks": 11839,
          "time": 137.6627906976744,
          "velocity": 0.2125984251968504
        },
        {
          "duration": 0.13953488372095535,
          "durationTicks": 12,
          "midi": 42,
          "name": "F#2",
          "ticks": 11841,
          "time": 137.6860465116279,
          "velocity": 0.29133858267716534
        },
        {
          "duration": 0.034883720930224626,
          "durationTicks": 3,
          "midi": 66,
          "name": "F#4",
          "ticks": 11844,
          "time": 137.72093023255815,
          "velocity": 0.15748031496062992
        },
        {
          "duration": 0.034883720930224626,
          "durationTicks": 3,
          "midi": 53,
          "name": "F3",
          "ticks": 11846,
          "time": 137.74418604651163,
          "velocity": 0.14173228346456693
        },
        {
          "duration": 0.034883720930224626,
          "durationTicks": 3,
          "midi": 55,
          "name": "G3",
          "ticks": 11852,
          "time": 137.8139534883721,
          "velocity": 0.11023622047244094
        },
        {
          "duration": 0.034883720930224626,
          "durationTicks": 3,
          "midi": 43,
          "name": "G2",
          "ticks": 11853,
          "time": 137.82558139534885,
          "velocity": 0.2755905511811024
        },
        {
          "duration": 0.034883720930224626,
          "durationTicks": 3,
          "midi": 57,
          "name": "A3",
          "ticks": 11855,
          "time": 137.84883720930233,
          "velocity": 0.1968503937007874
        },
        {
          "duration": 0.04651162790696617,
          "durationTicks": 4,
          "midi": 44,
          "name": "G#2",
          "ticks": 11856,
          "time": 137.86046511627907,
          "velocity": 0.36220472440944884
        },
        {
          "duration": 0.023255813953483084,
          "durationTicks": 2,
          "midi": 61,
          "name": "C#4",
          "ticks": 11856,
          "time": 137.86046511627907,
          "velocity": 0.23622047244094488
        },
        {
          "duration": 0.2093023255814046,
          "durationTicks": 18,
          "midi": 67,
          "name": "G4",
          "ticks": 11857,
          "time": 137.87209302325581,
          "velocity": 0.25984251968503935
        },
        {
          "duration": 0.06976744186047767,
          "durationTicks": 6,
          "midi": 74,
          "name": "D5",
          "ticks": 11857,
          "time": 137.87209302325581,
          "velocity": 0.13385826771653545
        },
        {
          "duration": 0.2906976744185954,
          "durationTicks": 25,
          "midi": 62,
          "name": "D4",
          "ticks": 11858,
          "time": 137.88372093023256,
          "velocity": 0.25984251968503935
        },
        {
          "duration": 0.05813953488373613,
          "durationTicks": 5,
          "midi": 43,
          "name": "G2",
          "ticks": 11860,
          "time": 137.90697674418604,
          "velocity": 0.3228346456692913
        },
        {
          "duration": 0.05813953488370771,
          "durationTicks": 5,
          "midi": 43,
          "name": "G2",
          "ticks": 11866,
          "time": 137.97674418604652,
          "velocity": 0.29133858267716534
        },
        {
          "duration": 0.034883720930224626,
          "durationTicks": 3,
          "midi": 50,
          "name": "D3",
          "ticks": 11866,
          "time": 137.97674418604652,
          "velocity": 0.12598425196850394
        },
        {
          "duration": 0.08139534883721922,
          "durationTicks": 7,
          "midi": 76,
          "name": "E5",
          "ticks": 11867,
          "time": 137.98837209302326,
          "velocity": 0.13385826771653545
        },
        {
          "duration": 0.08139534883721922,
          "durationTicks": 7,
          "midi": 43,
          "name": "G2",
          "ticks": 11872,
          "time": 138.04651162790697,
          "velocity": 0.3464566929133858
        },
        {
          "duration": 0.04651162790696617,
          "durationTicks": 4,
          "midi": 57,
          "name": "A3",
          "ticks": 11886,
          "time": 138.2093023255814,
          "velocity": 0.2125984251968504
        },
        {
          "duration": 0.034883720930224626,
          "durationTicks": 3,
          "midi": 49,
          "name": "C#3",
          "ticks": 11888,
          "time": 138.2325581395349,
          "velocity": 0.30708661417322836
        },
        {
          "duration": 0.05813953488373613,
          "durationTicks": 5,
          "midi": 55,
          "name": "G3",
          "ticks": 11890,
          "time": 138.25581395348837,
          "velocity": 0.2047244094488189
        },
        {
          "duration": 0.023255813953483084,
          "durationTicks": 2,
          "midi": 38,
          "name": "D2",
          "ticks": 11891,
          "time": 138.2674418604651,
          "velocity": 0.30708661417322836
        },
        {
          "duration": 0.03488372093025305,
          "durationTicks": 3,
          "midi": 79,
          "name": "G5",
          "ticks": 11892,
          "time": 138.27906976744185,
          "velocity": 0.07874015748031496
        },
        {
          "duration": 0.03488372093025305,
          "durationTicks": 3,
          "midi": 37,
          "name": "C#2",
          "ticks": 11893,
          "time": 138.2906976744186,
          "velocity": 0.28346456692913385
        },
        {
          "duration": 0.11627906976744384,
          "durationTicks": 10,
          "midi": 54,
          "name": "F#3",
          "ticks": 11897,
          "time": 138.3372093023256,
          "velocity": 0.2283464566929134
        },
        {
          "duration": 0.04651162790696617,
          "durationTicks": 4,
          "midi": 88,
          "name": "E6",
          "ticks": 11897,
          "time": 138.3372093023256,
          "velocity": 0.08661417322834646
        },
        {
          "duration": 0.04651162790696617,
          "durationTicks": 4,
          "midi": 47,
          "name": "B2",
          "ticks": 11899,
          "time": 138.36046511627907,
          "velocity": 0.1889763779527559
        },
        {
          "duration": 0.03488372093025305,
          "durationTicks": 3,
          "midi": 47,
          "name": "B2",
          "ticks": 11904,
          "time": 138.41860465116278,
          "velocity": 0.1732283464566929
        },
        {
          "duration": 0.05813953488373613,
          "durationTicks": 5,
          "midi": 35,
          "name": "B1",
          "ticks": 11905,
          "time": 138.43023255813952,
          "velocity": 0.16535433070866143
        },
        {
          "duration": 0.10465116279067388,
          "durationTicks": 9,
          "midi": 71,
          "name": "B4",
          "ticks": 11906,
          "time": 138.4418604651163,
          "velocity": 0.1889763779527559
        },
        {
          "duration": 0.09302325581393234,
          "durationTicks": 8,
          "midi": 90,
          "name": "F#6",
          "ticks": 11907,
          "time": 138.45348837209303,
          "velocity": 0.14960629921259844
        },
        {
          "duration": 0.034883720930224626,
          "durationTicks": 3,
          "midi": 46,
          "name": "A#2",
          "ticks": 11909,
          "time": 138.47674418604652,
          "velocity": 0.2047244094488189
        },
        {
          "duration": 0.034883720930224626,
          "durationTicks": 3,
          "midi": 48,
          "name": "C3",
          "ticks": 11912,
          "time": 138.51162790697674,
          "velocity": 0.16535433070866143
        },
        {
          "duration": 0.03488372093025305,
          "durationTicks": 3,
          "midi": 47,
          "name": "B2",
          "ticks": 11915,
          "time": 138.54651162790697,
          "velocity": 0.23622047244094488
        },
        {
          "duration": 0.12790697674418539,
          "durationTicks": 11,
          "midi": 67,
          "name": "G4",
          "ticks": 11915,
          "time": 138.54651162790697,
          "velocity": 0.13385826771653545
        },
        {
          "duration": 0.03488372093025305,
          "durationTicks": 3,
          "midi": 70,
          "name": "A#4",
          "ticks": 11915,
          "time": 138.54651162790697,
          "velocity": 0.1732283464566929
        },
        {
          "duration": 0.023255813953483084,
          "durationTicks": 2,
          "midi": 48,
          "name": "C3",
          "ticks": 11918,
          "time": 138.58139534883722,
          "velocity": 0.31496062992125984
        },
        {
          "duration": 0.13953488372092693,
          "durationTicks": 12,
          "midi": 57,
          "name": "A3",
          "ticks": 11918,
          "time": 138.58139534883722,
          "velocity": 0.23622047244094488
        },
        {
          "duration": 0.11627906976744384,
          "durationTicks": 10,
          "midi": 62,
          "name": "D4",
          "ticks": 11918,
          "time": 138.58139534883722,
          "velocity": 0.14173228346456693
        },
        {
          "duration": 0.023255813953483084,
          "durationTicks": 2,
          "midi": 37,
          "name": "C#2",
          "ticks": 11920,
          "time": 138.6046511627907,
          "velocity": 0.3543307086614173
        },
        {
          "duration": 0.11627906976744384,
          "durationTicks": 10,
          "midi": 50,
          "name": "D3",
          "ticks": 11920,
          "time": 138.6046511627907,
          "velocity": 0.2677165354330709
        },
        {
          "duration": 0.04651162790696617,
          "durationTicks": 4,
          "midi": 86,
          "name": "D6",
          "ticks": 11921,
          "time": 138.61627906976744,
          "velocity": 0.07874015748031496
        },
        {
          "duration": 0.06976744186047767,
          "durationTicks": 6,
          "midi": 38,
          "name": "D2",
          "ticks": 11922,
          "time": 138.62790697674419,
          "velocity": 0.30708661417322836
        },
        {
          "duration": 0.04651162790699459,
          "durationTicks": 4,
          "midi": 88,
          "name": "E6",
          "ticks": 11927,
          "time": 138.6860465116279,
          "velocity": 0.08661417322834646
        },
        {
          "duration": 0.05813953488370771,
          "durationTicks": 5,
          "midi": 67,
          "name": "G4",
          "ticks": 11930,
          "time": 138.72093023255815,
          "velocity": 0.07874015748031496
        },
        {
          "duration": 0.0813953488371908,
          "durationTicks": 7,
          "midi": 81,
          "name": "A5",
          "ticks": 11930,
          "time": 138.72093023255815,
          "velocity": 0.09448818897637795
        },
        {
          "duration": 0.24418604651162923,
          "durationTicks": 21,
          "midi": 60,
          "name": "C4",
          "ticks": 11936,
          "time": 138.7906976744186,
          "velocity": 0.1889763779527559
        },
        {
          "duration": 0.4186046511627808,
          "durationTicks": 36,
          "midi": 55,
          "name": "G3",
          "ticks": 11938,
          "time": 138.8139534883721,
          "velocity": 0.25984251968503935
        },
        {
          "duration": 0.24418604651162923,
          "durationTicks": 21,
          "midi": 48,
          "name": "C3",
          "ticks": 11939,
          "time": 138.82558139534885,
          "velocity": 0.3464566929133858
        },
        {
          "duration": 0.06976744186047767,
          "durationTicks": 6,
          "midi": 36,
          "name": "C2",
          "ticks": 11943,
          "time": 138.87209302325581,
          "velocity": 0.2677165354330709
        },
        {
          "duration": 0.08139534883721922,
          "durationTicks": 7,
          "midi": 36,
          "name": "C2",
          "ticks": 11953,
          "time": 138.98837209302326,
          "velocity": 0.2755905511811024
        },
        {
          "duration": 0.1046511627907023,
          "durationTicks": 9,
          "midi": 101,
          "name": "F7",
          "ticks": 11956,
          "time": 139.02325581395348,
          "velocity": 0.11023622047244094
        },
        {
          "duration": 0.10465116279067388,
          "durationTicks": 9,
          "midi": 48,
          "name": "C3",
          "ticks": 11961,
          "time": 139.08139534883722,
          "velocity": 0.23622047244094488
        },
        {
          "duration": 0.16279069767441,
          "durationTicks": 14,
          "midi": 36,
          "name": "C2",
          "ticks": 11962,
          "time": 139.09302325581396,
          "velocity": 0.2677165354330709
        },
        {
          "duration": 0.034883720930224626,
          "durationTicks": 3,
          "midi": 55,
          "name": "G3",
          "ticks": 11977,
          "time": 139.2674418604651,
          "velocity": 0.16535433070866143
        },
        {
          "duration": 0.09302325581396076,
          "durationTicks": 8,
          "midi": 66,
          "name": "F#4",
          "ticks": 11977,
          "time": 139.2674418604651,
          "velocity": 0.1732283464566929
        },
        {
          "duration": 0.19767441860466306,
          "durationTicks": 17,
          "midi": 40,
          "name": "E2",
          "ticks": 11980,
          "time": 139.30232558139534,
          "velocity": 0.3543307086614173
        },
        {
          "duration": 0.03488372093025305,
          "durationTicks": 3,
          "midi": 59,
          "name": "B3",
          "ticks": 11990,
          "time": 139.41860465116278,
          "velocity": 0.10236220472440945
        },
        {
          "duration": 0.1046511627907023,
          "durationTicks": 9,
          "midi": 67,
          "name": "G4",
          "ticks": 11997,
          "time": 139.5,
          "velocity": 0.09448818897637795
        },
        {
          "duration": 0.034883720930224626,
          "durationTicks": 3,
          "midi": 70,
          "name": "A#4",
          "ticks": 11997,
          "time": 139.5,
          "velocity": 0.18110236220472442
        },
        {
          "duration": 0.1046511627907023,
          "durationTicks": 9,
          "midi": 76,
          "name": "E5",
          "ticks": 11997,
          "time": 139.5,
          "velocity": 0.13385826771653545
        },
        {
          "duration": 0.1046511627907023,
          "durationTicks": 9,
          "midi": 64,
          "name": "E4",
          "ticks": 11999,
          "time": 139.52325581395348,
          "velocity": 0.1968503937007874
        },
        {
          "duration": 0.09302325581396076,
          "durationTicks": 8,
          "midi": 55,
          "name": "G3",
          "ticks": 12000,
          "time": 139.53488372093022,
          "velocity": 0.16535433070866143
        },
        {
          "duration": 0.11627906976741542,
          "durationTicks": 10,
          "midi": 43,
          "name": "G2",
          "ticks": 12003,
          "time": 139.56976744186048,
          "velocity": 0.33858267716535434
        },
        {
          "duration": 0.03488372093025305,
          "durationTicks": 3,
          "midi": 44,
          "name": "G#2",
          "ticks": 12013,
          "time": 139.6860465116279,
          "velocity": 0.3464566929133858
        },
        {
          "duration": 0.09302325581396076,
          "durationTicks": 8,
          "midi": 72,
          "name": "C5",
          "ticks": 12016,
          "time": 139.72093023255815,
          "velocity": 0.18110236220472442
        },
        {
          "duration": 0.034883720930224626,
          "durationTicks": 3,
          "midi": 57,
          "name": "A3",
          "ticks": 12017,
          "time": 139.7325581395349,
          "velocity": 0.12598425196850394
        },
        {
          "duration": 0.4186046511628092,
          "durationTicks": 36,
          "midi": 45,
          "name": "A2",
          "ticks": 12021,
          "time": 139.77906976744185,
          "velocity": 0.3700787401574803
        },
        {
          "duration": 0.06976744186044925,
          "durationTicks": 6,
          "midi": 74,
          "name": "D5",
          "ticks": 12027,
          "time": 139.84883720930233,
          "velocity": 0.14173228346456693
        },
        {
          "duration": 0.04651162790696617,
          "durationTicks": 4,
          "midi": 62,
          "name": "D4",
          "ticks": 12028,
          "time": 139.86046511627907,
          "velocity": 0.12598425196850394
        },
        {
          "duration": 0.03488372093025305,
          "durationTicks": 3,
          "midi": 52,
          "name": "E3",
          "ticks": 12034,
          "time": 139.93023255813952,
          "velocity": 0.12598425196850394
        },
        {
          "duration": 0.06976744186044925,
          "durationTicks": 6,
          "midi": 64,
          "name": "E4",
          "ticks": 12037,
          "time": 139.96511627906978,
          "velocity": 0.12598425196850394
        },
        {
          "duration": 0.03488372093025305,
          "durationTicks": 3,
          "midi": 67,
          "name": "G4",
          "ticks": 12045,
          "time": 140.0581395348837,
          "velocity": 0.08661417322834646
        },
        {
          "duration": 0.11627906976741542,
          "durationTicks": 10,
          "midi": 52,
          "name": "E3",
          "ticks": 12046,
          "time": 140.06976744186048,
          "velocity": 0.2992125984251969
        },
        {
          "duration": 0.0813953488371908,
          "durationTicks": 7,
          "midi": 97,
          "name": "C#7",
          "ticks": 12047,
          "time": 140.08139534883722,
          "velocity": 0.13385826771653545
        },
        {
          "duration": 0.04651162790696617,
          "durationTicks": 4,
          "midi": 33,
          "name": "A1",
          "ticks": 12048,
          "time": 140.09302325581396,
          "velocity": 0.2125984251968504
        },
        {
          "duration": 0.1046511627907023,
          "durationTicks": 9,
          "midi": 78,
          "name": "F#5",
          "ticks": 12048,
          "time": 140.09302325581396,
          "velocity": 0.15748031496062992
        },
        {
          "duration": 0.13953488372092693,
          "durationTicks": 12,
          "midi": 67,
          "name": "G4",
          "ticks": 12051,
          "time": 140.12790697674419,
          "velocity": 0.1968503937007874
        },
        {
          "duration": 0.023255813953483084,
          "durationTicks": 2,
          "midi": 46,
          "name": "A#2",
          "ticks": 12057,
          "time": 140.19767441860466,
          "velocity": 0.25984251968503935
        },
        {
          "duration": 0.06976744186047767,
          "durationTicks": 6,
          "midi": 53,
          "name": "F3",
          "ticks": 12061,
          "time": 140.24418604651163,
          "velocity": 0.1889763779527559
        },
        {
          "duration": 0.2093023255814046,
          "durationTicks": 18,
          "midi": 46,
          "name": "A#2",
          "ticks": 12062,
          "time": 140.25581395348837,
          "velocity": 0.30708661417322836
        },
        {
          "duration": 0.06976744186047767,
          "durationTicks": 6,
          "midi": 34,
          "name": "A#1",
          "ticks": 12065,
          "time": 140.2906976744186,
          "velocity": 0.2047244094488189
        },
        {
          "duration": 0.05813953488370771,
          "durationTicks": 5,
          "midi": 53,
          "name": "F3",
          "ticks": 12071,
          "time": 140.36046511627907,
          "velocity": 0.1889763779527559
        },
        {
          "duration": 0.034883720930224626,
          "durationTicks": 3,
          "midi": 81,
          "name": "A5",
          "ticks": 12071,
          "time": 140.36046511627907,
          "velocity": 0.08661417322834646
        },
        {
          "duration": 0.034883720930224626,
          "durationTicks": 3,
          "midi": 60,
          "name": "C4",
          "ticks": 12073,
          "time": 140.38372093023256,
          "velocity": 0.1889763779527559
        },
        {
          "duration": 0.03488372093025305,
          "durationTicks": 3,
          "midi": 64,
          "name": "E4",
          "ticks": 12075,
          "time": 140.40697674418604,
          "velocity": 0.1889763779527559
        },
        {
          "duration": 0.03488372093025305,
          "durationTicks": 3,
          "midi": 70,
          "name": "A#4",
          "ticks": 12075,
          "time": 140.40697674418604,
          "velocity": 0.18110236220472442
        },
        {
          "duration": 0.04651162790696617,
          "durationTicks": 4,
          "midi": 45,
          "name": "A2",
          "ticks": 12080,
          "time": 140.46511627906978,
          "velocity": 0.3464566929133858
        },
        {
          "duration": 0.023255813953483084,
          "durationTicks": 2,
          "midi": 46,
          "name": "A#2",
          "ticks": 12084,
          "time": 140.51162790697674,
          "velocity": 0.29133858267716534
        },
        {
          "duration": 0.034883720930224626,
          "durationTicks": 3,
          "midi": 52,
          "name": "E3",
          "ticks": 12084,
          "time": 140.51162790697674,
          "velocity": 0.2283464566929134
        },
        {
          "duration": 0.08139534883721922,
          "durationTicks": 7,
          "midi": 53,
          "name": "F3",
          "ticks": 12087,
          "time": 140.54651162790697,
          "velocity": 0.25196850393700787
        },
        {
          "duration": 0.023255813953511506,
          "durationTicks": 2,
          "midi": 46,
          "name": "A#2",
          "ticks": 12088,
          "time": 140.5581395348837,
          "velocity": 0.30708661417322836
        },
        {
          "duration": 0.2325581395348877,
          "durationTicks": 20,
          "midi": 79,
          "name": "G5",
          "ticks": 12088,
          "time": 140.5581395348837,
          "velocity": 0.16535433070866143
        },
        {
          "duration": 0.27906976744185386,
          "durationTicks": 24,
          "midi": 67,
          "name": "G4",
          "ticks": 12089,
          "time": 140.56976744186048,
          "velocity": 0.1968503937007874
        },
        {
          "duration": 0.034883720930224626,
          "durationTicks": 3,
          "midi": 46,
          "name": "A#2",
          "ticks": 12091,
          "time": 140.59302325581396,
          "velocity": 0.2755905511811024
        },
        {
          "duration": 0.023255813953483084,
          "durationTicks": 2,
          "midi": 47,
          "name": "B2",
          "ticks": 12094,
          "time": 140.62790697674419,
          "velocity": 0.25196850393700787
        },
        {
          "duration": 0.2093023255814046,
          "durationTicks": 18,
          "midi": 59,
          "name": "B3",
          "ticks": 12098,
          "time": 140.67441860465115,
          "velocity": 0.16535433070866143
        },
        {
          "duration": 0.06976744186047767,
          "durationTicks": 6,
          "midi": 54,
          "name": "F#3",
          "ticks": 12099,
          "time": 140.6860465116279,
          "velocity": 0.2440944881889764
        },
        {
          "duration": 0.19767441860463464,
          "durationTicks": 17,
          "midi": 47,
          "name": "B2",
          "ticks": 12101,
          "time": 140.7093023255814,
          "velocity": 0.30708661417322836
        },
        {
          "duration": 0.023255813953483084,
          "durationTicks": 2,
          "midi": 34,
          "name": "A#1",
          "ticks": 12104,
          "time": 140.74418604651163,
          "velocity": 0.25984251968503935
        },
        {
          "duration": 0.023255813953483084,
          "durationTicks": 2,
          "midi": 35,
          "name": "B1",
          "ticks": 12111,
          "time": 140.82558139534885,
          "velocity": 0.25984251968503935
        },
        {
          "duration": 0.034883720930224626,
          "durationTicks": 3,
          "midi": 54,
          "name": "F#3",
          "ticks": 12113,
          "time": 140.84883720930233,
          "velocity": 0.07086614173228346
        },
        {
          "duration": 0.023255813953483084,
          "durationTicks": 2,
          "midi": 35,
          "name": "B1",
          "ticks": 12114,
          "time": 140.86046511627907,
          "velocity": 0.2677165354330709
        },
        {
          "duration": 0.023255813953483084,
          "durationTicks": 2,
          "midi": 34,
          "name": "A#1",
          "ticks": 12118,
          "time": 140.90697674418604,
          "velocity": 0.2440944881889764
        },
        {
          "duration": 0.11627906976744384,
          "durationTicks": 10,
          "midi": 66,
          "name": "F#4",
          "ticks": 12118,
          "time": 140.90697674418604,
          "velocity": 0.14960629921259844
        },
        {
          "duration": 0.03488372093025305,
          "durationTicks": 3,
          "midi": 54,
          "name": "F#3",
          "ticks": 12119,
          "time": 140.91860465116278,
          "velocity": 0.1732283464566929
        },
        {
          "duration": 0.17441860465117998,
          "durationTicks": 15,
          "midi": 97,
          "name": "C#7",
          "ticks": 12119,
          "time": 140.91860465116278,
          "velocity": 0.14173228346456693
        },
        {
          "duration": 0.04651162790699459,
          "durationTicks": 4,
          "midi": 47,
          "name": "B2",
          "ticks": 12120,
          "time": 140.93023255813952,
          "velocity": 0.2440944881889764
        },
        {
          "duration": 0.1511627906976969,
          "durationTicks": 13,
          "midi": 78,
          "name": "F#5",
          "ticks": 12120,
          "time": 140.93023255813952,
          "velocity": 0.1732283464566929
        },
        {
          "duration": 0.023255813953483084,
          "durationTicks": 2,
          "midi": 35,
          "name": "B1",
          "ticks": 12122,
          "time": 140.95348837209303,
          "velocity": 0.25196850393700787
        },
        {
          "duration": 0.05813953488370771,
          "durationTicks": 5,
          "midi": 54,
          "name": "F#3",
          "ticks": 12123,
          "time": 140.96511627906978,
          "velocity": 0.14960629921259844
        },
        {
          "duration": 0.023255813953483084,
          "durationTicks": 2,
          "midi": 35,
          "name": "B1",
          "ticks": 12125,
          "time": 140.98837209302326,
          "velocity": 0.25196850393700787
        },
        {
          "duration": 0.04651162790696617,
          "durationTicks": 4,
          "midi": 47,
          "name": "B2",
          "ticks": 12125,
          "time": 140.98837209302326,
          "velocity": 0.25196850393700787
        },
        {
          "duration": 0.034883720930224626,
          "durationTicks": 3,
          "midi": 67,
          "name": "G4",
          "ticks": 12128,
          "time": 141.02325581395348,
          "velocity": 0.15748031496062992
        },
        {
          "duration": 0.03488372093025305,
          "durationTicks": 3,
          "midi": 35,
          "name": "B1",
          "ticks": 12130,
          "time": 141.04651162790697,
          "velocity": 0.25196850393700787
        },
        {
          "duration": 0.04651162790699459,
          "durationTicks": 4,
          "midi": 54,
          "name": "F#3",
          "ticks": 12131,
          "time": 141.0581395348837,
          "velocity": 0.1732283464566929
        },
        {
          "duration": 0.04651162790696617,
          "durationTicks": 4,
          "midi": 47,
          "name": "B2",
          "ticks": 12133,
          "time": 141.08139534883722,
          "velocity": 0.25196850393700787
        },
        {
          "duration": 0.08139534883721922,
          "durationTicks": 7,
          "midi": 61,
          "name": "C#4",
          "ticks": 12136,
          "time": 141.11627906976744,
          "velocity": 0.15748031496062992
        },
        {
          "duration": 0.11627906976744384,
          "durationTicks": 10,
          "midi": 76,
          "name": "E5",
          "ticks": 12137,
          "time": 141.12790697674419,
          "velocity": 0.12598425196850394
        },
        {
          "duration": 0.11627906976744384,
          "durationTicks": 10,
          "midi": 64,
          "name": "E4",
          "ticks": 12138,
          "time": 141.13953488372093,
          "velocity": 0.16535433070866143
        },
        {
          "duration": 0.09302325581396076,
          "durationTicks": 8,
          "midi": 54,
          "name": "F#3",
          "ticks": 12140,
          "time": 141.1627906976744,
          "velocity": 0.15748031496062992
        },
        {
          "duration": 0.17441860465115155,
          "durationTicks": 15,
          "midi": 42,
          "name": "F#2",
          "ticks": 12143,
          "time": 141.19767441860466,
          "velocity": 0.3464566929133858
        },
        {
          "duration": 0.08139534883721922,
          "durationTicks": 7,
          "midi": 66,
          "name": "F#4",
          "ticks": 12148,
          "time": 141.25581395348837,
          "velocity": 0.14173228346456693
        },
        {
          "duration": 0.034883720930224626,
          "durationTicks": 3,
          "midi": 67,
          "name": "G4",
          "ticks": 12157,
          "time": 141.36046511627907,
          "velocity": 0.11811023622047244
        },
        {
          "duration": 0.1046511627907023,
          "durationTicks": 9,
          "midi": 75,
          "name": "D#5",
          "ticks": 12157,
          "time": 141.36046511627907,
          "velocity": 0.2125984251968504
        },
        {
          "duration": 0.05813953488370771,
          "durationTicks": 5,
          "midi": 63,
          "name": "D#4",
          "ticks": 12158,
          "time": 141.37209302325581,
          "velocity": 0.12598425196850394
        },
        {
          "duration": 0.023255813953483084,
          "durationTicks": 2,
          "midi": 47,
          "name": "B2",
          "ticks": 12159,
          "time": 141.38372093023256,
          "velocity": 0.31496062992125984
        },
        {
          "duration": 0.023255813953483084,
          "durationTicks": 2,
          "midi": 47,
          "name": "B2",
          "ticks": 12164,
          "time": 141.4418604651163,
          "velocity": 0.2755905511811024
        },
        {
          "duration": 0.034883720930224626,
          "durationTicks": 3,
          "midi": 46,
          "name": "A#2",
          "ticks": 12166,
          "time": 141.46511627906978,
          "velocity": 0.29133858267716534
        },
        {
          "duration": 0.023255813953483084,
          "durationTicks": 2,
          "midi": 44,
          "name": "G#2",
          "ticks": 12170,
          "time": 141.51162790697674,
          "velocity": 0.25984251968503935
        },
        {
          "duration": 0.20930232558137618,
          "durationTicks": 18,
          "midi": 59,
          "name": "B3",
          "ticks": 12175,
          "time": 141.56976744186048,
          "velocity": 0.15748031496062992
        },
        {
          "duration": 0.3604651162790731,
          "durationTicks": 31,
          "midi": 64,
          "name": "E4",
          "ticks": 12177,
          "time": 141.59302325581396,
          "velocity": 0.25984251968503935
        },
        {
          "duration": 0.32558139534882,
          "durationTicks": 28,
          "midi": 52,
          "name": "E3",
          "ticks": 12178,
          "time": 141.6046511627907,
          "velocity": 0.31496062992125984
        },
        {
          "duration": 0.023255813953483084,
          "durationTicks": 2,
          "midi": 39,
          "name": "D#2",
          "ticks": 12180,
          "time": 141.62790697674419,
          "velocity": 0.31496062992125984
        },
        {
          "duration": 0.16279069767443843,
          "durationTicks": 14,
          "midi": 40,
          "name": "E2",
          "ticks": 12184,
          "time": 141.67441860465115,
          "velocity": 0.3228346456692913
        },
        {
          "duration": 0.023255813953483084,
          "durationTicks": 2,
          "midi": 39,
          "name": "D#2",
          "ticks": 12198,
          "time": 141.8372093023256,
          "velocity": 0.29133858267716534
        },
        {
          "duration": 0.023255813953483084,
          "durationTicks": 2,
          "midi": 40,
          "name": "E2",
          "ticks": 12201,
          "time": 141.87209302325581,
          "velocity": 0.31496062992125984
        },
        {
          "duration": 0.03488372093025305,
          "durationTicks": 3,
          "midi": 40,
          "name": "E2",
          "ticks": 12204,
          "time": 141.90697674418604,
          "velocity": 0.30708661417322836
        },
        {
          "duration": 0.12790697674418539,
          "durationTicks": 11,
          "midi": 67,
          "name": "G4",
          "ticks": 12204,
          "time": 141.90697674418604,
          "velocity": 0.11811023622047244
        },
        {
          "duration": 0.023255813953483084,
          "durationTicks": 2,
          "midi": 38,
          "name": "D2",
          "ticks": 12209,
          "time": 141.96511627906978,
          "velocity": 0.33858267716535434
        },
        {
          "duration": 0.034883720930224626,
          "durationTicks": 3,
          "midi": 47,
          "name": "B2",
          "ticks": 12209,
          "time": 141.96511627906978,
          "velocity": 0.3228346456692913
        },
        {
          "duration": 0.023255813953483084,
          "durationTicks": 2,
          "midi": 48,
          "name": "C3",
          "ticks": 12212,
          "time": 142,
          "velocity": 0.2283464566929134
        },
        {
          "duration": 0.023255813953511506,
          "durationTicks": 2,
          "midi": 48,
          "name": "C3",
          "ticks": 12216,
          "time": 142.04651162790697,
          "velocity": 0.30708661417322836
        },
        {
          "duration": 0.09302325581396076,
          "durationTicks": 8,
          "midi": 76,
          "name": "E5",
          "ticks": 12217,
          "time": 142.0581395348837,
          "velocity": 0.18110236220472442
        },
        {
          "duration": 0.023255813953483084,
          "durationTicks": 2,
          "midi": 45,
          "name": "A2",
          "ticks": 12218,
          "time": 142.06976744186048,
          "velocity": 0.3700787401574803
        },
        {
          "duration": 0.09302325581393234,
          "durationTicks": 8,
          "midi": 64,
          "name": "E4",
          "ticks": 12218,
          "time": 142.06976744186048,
          "velocity": 0.1732283464566929
        },
        {
          "duration": 0.05813953488370771,
          "durationTicks": 5,
          "midi": 83,
          "name": "B5",
          "ticks": 12218,
          "time": 142.06976744186048,
          "velocity": 0.09448818897637795
        },
        {
          "duration": 0.023255813953483084,
          "durationTicks": 2,
          "midi": 34,
          "name": "A#1",
          "ticks": 12221,
          "time": 142.1046511627907,
          "velocity": 0.2755905511811024
        },
        {
          "duration": 0.15116279069766847,
          "durationTicks": 13,
          "midi": 47,
          "name": "B2",
          "ticks": 12221,
          "time": 142.1046511627907,
          "velocity": 0.2125984251968504
        },
        {
          "duration": 0.16279069767441,
          "durationTicks": 14,
          "midi": 35,
          "name": "B1",
          "ticks": 12223,
          "time": 142.12790697674419,
          "velocity": 0.25984251968503935
        },
        {
          "duration": 0.20930232558137618,
          "durationTicks": 18,
          "midi": 67,
          "name": "G4",
          "ticks": 12229,
          "time": 142.19767441860466,
          "velocity": 0.2755905511811024
        },
        {
          "duration": 0.05813953488370771,
          "durationTicks": 5,
          "midi": 78,
          "name": "F#5",
          "ticks": 12231,
          "time": 142.22093023255815,
          "velocity": 0.13385826771653545
        },
        {
          "duration": 0.023255813953511506,
          "durationTicks": 2,
          "midi": 44,
          "name": "G#2",
          "ticks": 12237,
          "time": 142.2906976744186,
          "velocity": 0.33070866141732286
        },
        {
          "duration": 0.03488372093025305,
          "durationTicks": 3,
          "midi": 55,
          "name": "G3",
          "ticks": 12237,
          "time": 142.2906976744186,
          "velocity": 0.23622047244094488
        },
        {
          "duration": 0.034883720930224626,
          "durationTicks": 3,
          "midi": 47,
          "name": "B2",
          "ticks": 12239,
          "time": 142.3139534883721,
          "velocity": 0.25984251968503935
        },
        {
          "duration": 0.04651162790696617,
          "durationTicks": 4,
          "midi": 54,
          "name": "F#3",
          "ticks": 12240,
          "time": 142.32558139534885,
          "velocity": 0.18110236220472442
        },
        {
          "duration": 0.06976744186044925,
          "durationTicks": 6,
          "midi": 35,
          "name": "B1",
          "ticks": 12242,
          "time": 142.34883720930233,
          "velocity": 0.2440944881889764
        },
        {
          "duration": 0.6046511627907023,
          "durationTicks": 52,
          "midi": 68,
          "name": "G#4",
          "ticks": 12247,
          "time": 142.40697674418604,
          "velocity": 0.23622047244094488
        },
        {
          "duration": 0.08139534883721922,
          "durationTicks": 7,
          "midi": 35,
          "name": "B1",
          "ticks": 12249,
          "time": 142.43023255813952,
          "velocity": 0.28346456692913385
        },
        {
          "duration": 0.034883720930224626,
          "durationTicks": 3,
          "midi": 54,
          "name": "F#3",
          "ticks": 12253,
          "time": 142.47674418604652,
          "velocity": 0.14960629921259844
        },
        {
          "duration": 0.023255813953483084,
          "durationTicks": 2,
          "midi": 38,
          "name": "D2",
          "ticks": 12262,
          "time": 142.58139534883722,
          "velocity": 0.25984251968503935
        },
        {
          "duration": 0.034883720930224626,
          "durationTicks": 3,
          "midi": 52,
          "name": "E3",
          "ticks": 12262,
          "time": 142.58139534883722,
          "velocity": 0.1968503937007874
        },
        {
          "duration": 0.023255813953483084,
          "durationTicks": 2,
          "midi": 41,
          "name": "F2",
          "ticks": 12264,
          "time": 142.6046511627907,
          "velocity": 0.30708661417322836
        },
        {
          "duration": 0.034883720930224626,
          "durationTicks": 3,
          "midi": 52,
          "name": "E3",
          "ticks": 12266,
          "time": 142.62790697674419,
          "velocity": 0.2047244094488189
        },
        {
          "duration": 0.034883720930224626,
          "durationTicks": 3,
          "midi": 40,
          "name": "E2",
          "ticks": 12268,
          "time": 142.65116279069767,
          "velocity": 0.30708661417322836
        },
        {
          "duration": 0.10465116279067388,
          "durationTicks": 9,
          "midi": 40,
          "name": "E2",
          "ticks": 12272,
          "time": 142.69767441860466,
          "velocity": 0.33070866141732286
        },
        {
          "duration": 0.06976744186044925,
          "durationTicks": 6,
          "midi": 40,
          "name": "E2",
          "ticks": 12282,
          "time": 142.8139534883721,
          "velocity": 0.33858267716535434
        },
        {
          "duration": 0.03488372093025305,
          "durationTicks": 3,
          "midi": 47,
          "name": "B2",
          "ticks": 12290,
          "time": 142.90697674418604,
          "velocity": 0.28346456692913385
        },
        {
          "duration": 0.023255813953483084,
          "durationTicks": 2,
          "midi": 45,
          "name": "A2",
          "ticks": 12297,
          "time": 142.98837209302326,
          "velocity": 0.33070866141732286
        },
        {
          "duration": 0.023255813953483084,
          "durationTicks": 2,
          "midi": 46,
          "name": "A#2",
          "ticks": 12299,
          "time": 143.01162790697674,
          "velocity": 0.3543307086614173
        },
        {
          "duration": 0.19767441860466306,
          "durationTicks": 17,
          "midi": 68,
          "name": "G#4",
          "ticks": 12301,
          "time": 143.03488372093022,
          "velocity": 0.1732283464566929
        },
        {
          "duration": 0.12790697674418539,
          "durationTicks": 11,
          "midi": 35,
          "name": "B1",
          "ticks": 12304,
          "time": 143.06976744186048,
          "velocity": 0.2440944881889764
        },
        {
          "duration": 0.09302325581393234,
          "durationTicks": 8,
          "midi": 54,
          "name": "F#3",
          "ticks": 12305,
          "time": 143.08139534883722,
          "velocity": 0.18110236220472442
        },
        {
          "duration": 0.034883720930224626,
          "durationTicks": 3,
          "midi": 53,
          "name": "F3",
          "ticks": 12319,
          "time": 143.24418604651163,
          "velocity": 0.25196850393700787
        },
        {
          "duration": 0.05813953488373613,
          "durationTicks": 5,
          "midi": 46,
          "name": "A#2",
          "ticks": 12322,
          "time": 143.27906976744185,
          "velocity": 0.30708661417322836
        },
        {
          "duration": 0.08139534883721922,
          "durationTicks": 7,
          "midi": 68,
          "name": "G#4",
          "ticks": 12322,
          "time": 143.27906976744185,
          "velocity": 0.14173228346456693
        },
        {
          "duration": 0.03488372093025305,
          "durationTicks": 3,
          "midi": 53,
          "name": "F3",
          "ticks": 12323,
          "time": 143.2906976744186,
          "velocity": 0.12598425196850394
        },
        {
          "duration": 0.023255813953511506,
          "durationTicks": 2,
          "midi": 34,
          "name": "A#1",
          "ticks": 12324,
          "time": 143.30232558139534,
          "velocity": 0.25196850393700787
        },
        {
          "duration": 0.0813953488371908,
          "durationTicks": 7,
          "midi": 34,
          "name": "A#1",
          "ticks": 12327,
          "time": 143.3372093023256,
          "velocity": 0.25984251968503935
        },
        {
          "duration": 0.023255813953483084,
          "durationTicks": 2,
          "midi": 45,
          "name": "A2",
          "ticks": 12327,
          "time": 143.3372093023256,
          "velocity": 0.2992125984251969
        },
        {
          "duration": 0.034883720930224626,
          "durationTicks": 3,
          "midi": 58,
          "name": "A#3",
          "ticks": 12329,
          "time": 143.36046511627907,
          "velocity": 0.13385826771653545
        },
        {
          "duration": 0.034883720930224626,
          "durationTicks": 3,
          "midi": 67,
          "name": "G4",
          "ticks": 12329,
          "time": 143.36046511627907,
          "velocity": 0.14960629921259844
        },
        {
          "duration": 0.04651162790696617,
          "durationTicks": 4,
          "midi": 53,
          "name": "F3",
          "ticks": 12331,
          "time": 143.38372093023256,
          "velocity": 0.15748031496062992
        },
        {
          "duration": 0.023255813953511506,
          "durationTicks": 2,
          "midi": 35,
          "name": "B1",
          "ticks": 12334,
          "time": 143.41860465116278,
          "velocity": 0.23622047244094488
        },
        {
          "duration": 0.15116279069766847,
          "durationTicks": 13,
          "midi": 64,
          "name": "E4",
          "ticks": 12336,
          "time": 143.4418604651163,
          "velocity": 0.2440944881889764
        },
        {
          "duration": 0.034883720930224626,
          "durationTicks": 3,
          "midi": 91,
          "name": "G6",
          "ticks": 12337,
          "time": 143.45348837209303,
          "velocity": 0.18110236220472442
        },
        {
          "duration": 0.2674418604651123,
          "durationTicks": 23,
          "midi": 57,
          "name": "A3",
          "ticks": 12338,
          "time": 143.46511627906978,
          "velocity": 0.1889763779527559
        },
        {
          "duration": 0.05813953488370771,
          "durationTicks": 5,
          "midi": 67,
          "name": "G4",
          "ticks": 12341,
          "time": 143.5,
          "velocity": 0.08661417322834646
        },
        {
          "duration": 0.03488372093025305,
          "durationTicks": 3,
          "midi": 33,
          "name": "A1",
          "ticks": 12345,
          "time": 143.54651162790697,
          "velocity": 0.2992125984251969
        },
        {
          "duration": 0.23255813953485927,
          "durationTicks": 20,
          "midi": 52,
          "name": "E3",
          "ticks": 12347,
          "time": 143.56976744186048,
          "velocity": 0.2125984251968504
        },
        {
          "duration": 0.034883720930224626,
          "durationTicks": 3,
          "midi": 66,
          "name": "F#4",
          "ticks": 12348,
          "time": 143.58139534883722,
          "velocity": 0.14960629921259844
        },
        {
          "duration": 0.15116279069766847,
          "durationTicks": 13,
          "midi": 78,
          "name": "F#5",
          "ticks": 12348,
          "time": 143.58139534883722,
          "velocity": 0.2125984251968504
        },
        {
          "duration": 0.16279069767441,
          "durationTicks": 14,
          "midi": 33,
          "name": "A1",
          "ticks": 12349,
          "time": 143.59302325581396,
          "velocity": 0.2677165354330709
        },
        {
          "duration": 0.24418604651162923,
          "durationTicks": 21,
          "midi": 67,
          "name": "G4",
          "ticks": 12357,
          "time": 143.6860465116279,
          "velocity": 0.2755905511811024
        },
        {
          "duration": 0.034883720930224626,
          "durationTicks": 3,
          "midi": 34,
          "name": "A#1",
          "ticks": 12363,
          "time": 143.75581395348837,
          "velocity": 0.2204724409448819
        },
        {
          "duration": 0.03488372093025305,
          "durationTicks": 3,
          "midi": 45,
          "name": "A2",
          "ticks": 12366,
          "time": 143.7906976744186,
          "velocity": 0.3937007874015748
        },
        {
          "duration": 0.023255813953483084,
          "durationTicks": 2,
          "midi": 44,
          "name": "G#2",
          "ticks": 12369,
          "time": 143.82558139534885,
          "velocity": 0.4015748031496063
        },
        {
          "duration": 0.034883720930224626,
          "durationTicks": 3,
          "midi": 81,
          "name": "A5",
          "ticks": 12371,
          "time": 143.84883720930233,
          "velocity": 0.08661417322834646
        },
        {
          "duration": 0.034883720930224626,
          "durationTicks": 3,
          "midi": 52,
          "name": "E3",
          "ticks": 12373,
          "time": 143.87209302325581,
          "velocity": 0.2440944881889764
        },
        {
          "duration": 0.06976744186047767,
          "durationTicks": 6,
          "midi": 83,
          "name": "B5",
          "ticks": 12377,
          "time": 143.91860465116278,
          "velocity": 0.14173228346456693
        },
        {
          "duration": 0.17441860465115155,
          "durationTicks": 15,
          "midi": 48,
          "name": "C3",
          "ticks": 12379,
          "time": 143.9418604651163,
          "velocity": 0.25196850393700787
        },
        {
          "duration": 0.17441860465115155,
          "durationTicks": 15,
          "midi": 55,
          "name": "G3",
          "ticks": 12379,
          "time": 143.9418604651163,
          "velocity": 0.11811023622047244
        },
        {
          "duration": 0.04651162790696617,
          "durationTicks": 4,
          "midi": 99,
          "name": "D#7",
          "ticks": 12379,
          "time": 143.9418604651163,
          "velocity": 0.07874015748031496
        },
        {
          "duration": 0.04651162790696617,
          "durationTicks": 4,
          "midi": 71,
          "name": "B4",
          "ticks": 12380,
          "time": 143.95348837209303,
          "velocity": 0.08661417322834646
        },
        {
          "duration": 0.16279069767441,
          "durationTicks": 14,
          "midi": 36,
          "name": "C2",
          "ticks": 12381,
          "time": 143.96511627906978,
          "velocity": 0.33858267716535434
        },
        {
          "duration": 0.15116279069766847,
          "durationTicks": 13,
          "midi": 72,
          "name": "C5",
          "ticks": 12384,
          "time": 144,
          "velocity": 0.2283464566929134
        },
        {
          "duration": 0.11627906976744384,
          "durationTicks": 10,
          "midi": 64,
          "name": "E4",
          "ticks": 12397,
          "time": 144.15116279069767,
          "velocity": 0.1889763779527559
        },
        {
          "duration": 0.1279069767442138,
          "durationTicks": 11,
          "midi": 52,
          "name": "E3",
          "ticks": 12400,
          "time": 144.1860465116279,
          "velocity": 0.2677165354330709
        },
        {
          "duration": 0.05813953488370771,
          "durationTicks": 5,
          "midi": 40,
          "name": "E2",
          "ticks": 12401,
          "time": 144.19767441860466,
          "velocity": 0.3464566929133858
        },
        {
          "duration": 0.05813953488373613,
          "durationTicks": 5,
          "midi": 59,
          "name": "B3",
          "ticks": 12406,
          "time": 144.25581395348837,
          "velocity": 0.13385826771653545
        },
        {
          "duration": 0.06976744186047767,
          "durationTicks": 6,
          "midi": 72,
          "name": "C5",
          "ticks": 12407,
          "time": 144.2674418604651,
          "velocity": 0.2755905511811024
        },
        {
          "duration": 0.04651162790699459,
          "durationTicks": 4,
          "midi": 40,
          "name": "E2",
          "ticks": 12409,
          "time": 144.2906976744186,
          "velocity": 0.3228346456692913
        },
        {
          "duration": 0.034883720930224626,
          "durationTicks": 3,
          "midi": 51,
          "name": "D#3",
          "ticks": 12411,
          "time": 144.3139534883721,
          "velocity": 0.18110236220472442
        },
        {
          "duration": 0.04651162790696617,
          "durationTicks": 4,
          "midi": 64,
          "name": "E4",
          "ticks": 12413,
          "time": 144.3372093023256,
          "velocity": 0.07086614173228346
        },
        {
          "duration": 0.034883720930224626,
          "durationTicks": 3,
          "midi": 73,
          "name": "C#5",
          "ticks": 12413,
          "time": 144.3372093023256,
          "velocity": 0.2283464566929134
        },
        {
          "duration": 0.11627906976744384,
          "durationTicks": 10,
          "midi": 74,
          "name": "D5",
          "ticks": 12415,
          "time": 144.36046511627907,
          "velocity": 0.16535433070866143
        },
        {
          "duration": 0.023255813953483084,
          "durationTicks": 2,
          "midi": 47,
          "name": "B2",
          "ticks": 12416,
          "time": 144.37209302325581,
          "velocity": 0.2755905511811024
        },
        {
          "duration": 0.2674418604651123,
          "durationTicks": 23,
          "midi": 57,
          "name": "A3",
          "ticks": 12418,
          "time": 144.3953488372093,
          "velocity": 0.2204724409448819
        },
        {
          "duration": 0.11627906976744384,
          "durationTicks": 10,
          "midi": 66,
          "name": "F#4",
          "ticks": 12420,
          "time": 144.41860465116278,
          "velocity": 0.09448818897637795
        },
        {
          "duration": 0.03488372093025305,
          "durationTicks": 3,
          "midi": 44,
          "name": "G#2",
          "ticks": 12421,
          "time": 144.43023255813952,
          "velocity": 0.3543307086614173
        },
        {
          "duration": 0.13953488372092693,
          "durationTicks": 12,
          "midi": 62,
          "name": "D4",
          "ticks": 12426,
          "time": 144.48837209302326,
          "velocity": 0.08661417322834646
        },
        {
          "duration": 0.023255813953483084,
          "durationTicks": 2,
          "midi": 38,
          "name": "D2",
          "ticks": 12430,
          "time": 144.53488372093022,
          "velocity": 0.28346456692913385
        },
        {
          "duration": 0.023255813953483084,
          "durationTicks": 2,
          "midi": 37,
          "name": "C#2",
          "ticks": 12436,
          "time": 144.6046511627907,
          "velocity": 0.29133858267716534
        },
        {
          "duration": 0.12790697674418539,
          "durationTicks": 11,
          "midi": 72,
          "name": "C5",
          "ticks": 12436,
          "time": 144.6046511627907,
          "velocity": 0.2283464566929134
        },
        {
          "duration": 0.034883720930224626,
          "durationTicks": 3,
          "midi": 40,
          "name": "E2",
          "ticks": 12439,
          "time": 144.63953488372093,
          "velocity": 0.3700787401574803
        },
        {
          "duration": 0.13953488372092693,
          "durationTicks": 12,
          "midi": 61,
          "name": "C#4",
          "ticks": 12440,
          "time": 144.65116279069767,
          "velocity": 0.1889763779527559
        },
        {
          "duration": 0.023255813953511506,
          "durationTicks": 2,
          "midi": 43,
          "name": "G2",
          "ticks": 12442,
          "time": 144.67441860465115,
          "velocity": 0.28346456692913385
        },
        {
          "duration": 0.04651162790696617,
          "durationTicks": 4,
          "midi": 54,
          "name": "F#3",
          "ticks": 12444,
          "time": 144.69767441860466,
          "velocity": 0.14960629921259844
        },
        {
          "duration": 0.023255813953483084,
          "durationTicks": 2,
          "midi": 41,
          "name": "F2",
          "ticks": 12445,
          "time": 144.7093023255814,
          "velocity": 0.23622047244094488
        },
        {
          "duration": 0.023255813953483084,
          "durationTicks": 2,
          "midi": 44,
          "name": "G#2",
          "ticks": 12447,
          "time": 144.7325581395349,
          "velocity": 0.33858267716535434
        },
        {
          "duration": 0.034883720930224626,
          "durationTicks": 3,
          "midi": 53,
          "name": "F3",
          "ticks": 12449,
          "time": 144.75581395348837,
          "velocity": 0.10236220472440945
        },
        {
          "duration": 0.03488372093025305,
          "durationTicks": 3,
          "midi": 41,
          "name": "F2",
          "ticks": 12451,
          "time": 144.77906976744185,
          "velocity": 0.2440944881889764
        },
        {
          "duration": 0.04651162790699459,
          "durationTicks": 4,
          "midi": 54,
          "name": "F#3",
          "ticks": 12452,
          "time": 144.7906976744186,
          "velocity": 0.18110236220472442
        },
        {
          "duration": 0.023255813953483084,
          "durationTicks": 2,
          "midi": 42,
          "name": "F#2",
          "ticks": 12457,
          "time": 144.84883720930233,
          "velocity": 0.41732283464566927
        },
        {
          "duration": 0.15116279069766847,
          "durationTicks": 13,
          "midi": 64,
          "name": "E4",
          "ticks": 12457,
          "time": 144.84883720930233,
          "velocity": 0.12598425196850394
        },
        {
          "duration": 0.034883720930224626,
          "durationTicks": 3,
          "midi": 69,
          "name": "A4",
          "ticks": 12457,
          "time": 144.84883720930233,
          "velocity": 0.09448818897637795
        },
        {
          "duration": 0.12790697674418539,
          "durationTicks": 11,
          "midi": 71,
          "name": "B4",
          "ticks": 12457,
          "time": 144.84883720930233,
          "velocity": 0.2047244094488189
        },
        {
          "duration": 0.11627906976744384,
          "durationTicks": 10,
          "midi": 90,
          "name": "F#6",
          "ticks": 12459,
          "time": 144.87209302325581,
          "velocity": 0.09448818897637795
        },
        {
          "duration": 0.08139534883721922,
          "durationTicks": 7,
          "midi": 57,
          "name": "A3",
          "ticks": 12460,
          "time": 144.88372093023256,
          "velocity": 0.18110236220472442
        },
        {
          "duration": 0.11627906976744384,
          "durationTicks": 10,
          "midi": 45,
          "name": "A2",
          "ticks": 12462,
          "time": 144.90697674418604,
          "velocity": 0.3464566929133858
        },
        {
          "duration": 0.023255813953483084,
          "durationTicks": 2,
          "midi": 55,
          "name": "G3",
          "ticks": 12478,
          "time": 145.09302325581396,
          "velocity": 0.2677165354330709
        },
        {
          "duration": 0.13953488372092693,
          "durationTicks": 12,
          "midi": 61,
          "name": "C#4",
          "ticks": 12478,
          "time": 145.09302325581396,
          "velocity": 0.2047244094488189
        },
        {
          "duration": 0.0813953488371908,
          "durationTicks": 7,
          "midi": 93,
          "name": "A6",
          "ticks": 12479,
          "time": 145.1046511627907,
          "velocity": 0.12598425196850394
        },
        {
          "duration": 0.034883720930224626,
          "durationTicks": 3,
          "midi": 54,
          "name": "F#3",
          "ticks": 12482,
          "time": 145.13953488372093,
          "velocity": 0.2204724409448819
        },
        {
          "duration": 0.04651162790699459,
          "durationTicks": 4,
          "midi": 42,
          "name": "F#2",
          "ticks": 12485,
          "time": 145.17441860465115,
          "velocity": 0.30708661417322836
        },
        {
          "duration": 0.05813953488373613,
          "durationTicks": 5,
          "midi": 69,
          "name": "A4",
          "ticks": 12485,
          "time": 145.17441860465115,
          "velocity": 0.16535433070866143
        },
        {
          "duration": 0.3488372093023031,
          "durationTicks": 30,
          "midi": 67,
          "name": "G4",
          "ticks": 12488,
          "time": 145.2093023255814,
          "velocity": 0.2125984251968504
        },
        {
          "duration": 0.023255813953483084,
          "durationTicks": 2,
          "midi": 43,
          "name": "G2",
          "ticks": 12490,
          "time": 145.2325581395349,
          "velocity": 0.2992125984251969
        },
        {
          "duration": 0.034883720930224626,
          "durationTicks": 3,
          "midi": 54,
          "name": "F#3",
          "ticks": 12490,
          "time": 145.2325581395349,
          "velocity": 0.2283464566929134
        },
        {
          "duration": 0.034883720930224626,
          "durationTicks": 3,
          "midi": 61,
          "name": "C#4",
          "ticks": 12491,
          "time": 145.24418604651163,
          "velocity": 0.13385826771653545
        },
        {
          "duration": 0.023255813953483084,
          "durationTicks": 2,
          "midi": 42,
          "name": "F#2",
          "ticks": 12492,
          "time": 145.25581395348837,
          "velocity": 0.28346456692913385
        },
        {
          "duration": 0.034883720930224626,
          "durationTicks": 3,
          "midi": 55,
          "name": "G3",
          "ticks": 12493,
          "time": 145.2674418604651,
          "velocity": 0.2204724409448819
        },
        {
          "duration": 0.023255813953511506,
          "durationTicks": 2,
          "midi": 43,
          "name": "G2",
          "ticks": 12495,
          "time": 145.2906976744186,
          "velocity": 0.28346456692913385
        },
        {
          "duration": 0.023255813953511506,
          "durationTicks": 2,
          "midi": 54,
          "name": "F#3",
          "ticks": 12496,
          "time": 145.30232558139534,
          "velocity": 0.23622047244094488
        },
        {
          "duration": 0.0813953488371908,
          "durationTicks": 7,
          "midi": 74,
          "name": "D5",
          "ticks": 12497,
          "time": 145.3139534883721,
          "velocity": 0.13385826771653545
        },
        {
          "duration": 0.23255813953485927,
          "durationTicks": 20,
          "midi": 55,
          "name": "G3",
          "ticks": 12498,
          "time": 145.32558139534885,
          "velocity": 0.25984251968503935
        },
        {
          "duration": 0.09302325581396076,
          "durationTicks": 8,
          "midi": 59,
          "name": "B3",
          "ticks": 12500,
          "time": 145.34883720930233,
          "velocity": 0.14173228346456693
        },
        {
          "duration": 0.023255813953483084,
          "durationTicks": 2,
          "midi": 42,
          "name": "F#2",
          "ticks": 12504,
          "time": 145.3953488372093,
          "velocity": 0.2677165354330709
        },
        {
          "duration": 0.023255813953511506,
          "durationTicks": 2,
          "midi": 44,
          "name": "G#2",
          "ticks": 12506,
          "time": 145.41860465116278,
          "velocity": 0.25984251968503935
        },
        {
          "duration": 0.05813953488370771,
          "durationTicks": 5,
          "midi": 64,
          "name": "E4",
          "ticks": 12508,
          "time": 145.4418604651163,
          "velocity": 0.1889763779527559
        },
        {
          "duration": 0.04651162790696617,
          "durationTicks": 4,
          "midi": 62,
          "name": "D4",
          "ticks": 12514,
          "time": 145.51162790697674,
          "velocity": 0.12598425196850394
        },
        {
          "duration": 0.023255813953511506,
          "durationTicks": 2,
          "midi": 41,
          "name": "F2",
          "ticks": 12518,
          "time": 145.5581395348837,
          "velocity": 0.2677165354330709
        },
        {
          "duration": 0.08139534883721922,
          "durationTicks": 7,
          "midi": 66,
          "name": "F#4",
          "ticks": 12518,
          "time": 145.5581395348837,
          "velocity": 0.2204724409448819
        },
        {
          "duration": 0.06976744186044925,
          "durationTicks": 6,
          "midi": 57,
          "name": "A3",
          "ticks": 12520,
          "time": 145.58139534883722,
          "velocity": 0.14173228346456693
        },
        {
          "duration": 0.023255813953483084,
          "durationTicks": 2,
          "midi": 38,
          "name": "D2",
          "ticks": 12524,
          "time": 145.62790697674419,
          "velocity": 0.2755905511811024
        },
        {
          "duration": 0.04651162790699459,
          "durationTicks": 4,
          "midi": 38,
          "name": "D2",
          "ticks": 12527,
          "time": 145.6627906976744,
          "velocity": 0.25984251968503935
        },
        {
          "duration": 0.12790697674418539,
          "durationTicks": 11,
          "midi": 67,
          "name": "G4",
          "ticks": 12527,
          "time": 145.6627906976744,
          "velocity": 0.2283464566929134
        },
        {
          "duration": 0.08139534883721922,
          "durationTicks": 7,
          "midi": 62,
          "name": "D4",
          "ticks": 12529,
          "time": 145.6860465116279,
          "velocity": 0.10236220472440945
        },
        {
          "duration": 0.034883720930224626,
          "durationTicks": 3,
          "midi": 56,
          "name": "G#3",
          "ticks": 12530,
          "time": 145.69767441860466,
          "velocity": 0.13385826771653545
        },
        {
          "duration": 0.023255813953483084,
          "durationTicks": 2,
          "midi": 37,
          "name": "C#2",
          "ticks": 12531,
          "time": 145.7093023255814,
          "velocity": 0.2677165354330709
        },
        {
          "duration": 0.1046511627907023,
          "durationTicks": 9,
          "midi": 59,
          "name": "B3",
          "ticks": 12538,
          "time": 145.7906976744186,
          "velocity": 0.11811023622047244
        },
        {
          "duration": 0.16279069767443843,
          "durationTicks": 14,
          "midi": 54,
          "name": "F#3",
          "ticks": 12539,
          "time": 145.80232558139534,
          "velocity": 0.2440944881889764
        },
        {
          "duration": 0.12790697674418539,
          "durationTicks": 11,
          "midi": 47,
          "name": "B2",
          "ticks": 12542,
          "time": 145.8372093023256,
          "velocity": 0.1968503937007874
        },
        {
          "duration": 0.13953488372092693,
          "durationTicks": 12,
          "midi": 35,
          "name": "B1",
          "ticks": 12543,
          "time": 145.84883720930233,
          "velocity": 0.23622047244094488
        },
        {
          "duration": 0.1046511627907023,
          "durationTicks": 9,
          "midi": 71,
          "name": "B4",
          "ticks": 12548,
          "time": 145.90697674418604,
          "velocity": 0.1732283464566929
        },
        {
          "duration": 0.09302325581396076,
          "durationTicks": 8,
          "midi": 99,
          "name": "D#7",
          "ticks": 12548,
          "time": 145.90697674418604,
          "velocity": 0.09448818897637795
        },
        {
          "duration": 0.0813953488371908,
          "durationTicks": 7,
          "midi": 67,
          "name": "G4",
          "ticks": 12552,
          "time": 145.95348837209303,
          "velocity": 0.18110236220472442
        },
        {
          "duration": 0.034883720930224626,
          "durationTicks": 3,
          "midi": 48,
          "name": "C3",
          "ticks": 12553,
          "time": 145.96511627906978,
          "velocity": 0.16535433070866143
        },
        {
          "duration": 0.034883720930224626,
          "durationTicks": 3,
          "midi": 36,
          "name": "C2",
          "ticks": 12555,
          "time": 145.98837209302326,
          "velocity": 0.25984251968503935
        },
        {
          "duration": 0.1511627906976969,
          "durationTicks": 13,
          "midi": 50,
          "name": "D3",
          "ticks": 12560,
          "time": 146.04651162790697,
          "velocity": 0.30708661417322836
        },
        {
          "duration": 0.023255813953483084,
          "durationTicks": 2,
          "midi": 38,
          "name": "D2",
          "ticks": 12563,
          "time": 146.08139534883722,
          "velocity": 0.31496062992125984
        },
        {
          "duration": 0.1046511627907023,
          "durationTicks": 9,
          "midi": 38,
          "name": "D2",
          "ticks": 12566,
          "time": 146.11627906976744,
          "velocity": 0.30708661417322836
        },
        {
          "duration": 0.05813953488370771,
          "durationTicks": 5,
          "midi": 57,
          "name": "A3",
          "ticks": 12567,
          "time": 146.12790697674419,
          "velocity": 0.2125984251968504
        },
        {
          "duration": 0.11627906976744384,
          "durationTicks": 10,
          "midi": 81,
          "name": "A5",
          "ticks": 12568,
          "time": 146.13953488372093,
          "velocity": 0.08661417322834646
        },
        {
          "duration": 0.034883720930224626,
          "durationTicks": 3,
          "midi": 88,
          "name": "E6",
          "ticks": 12568,
          "time": 146.13953488372093,
          "velocity": 0.08661417322834646
        },
        {
          "duration": 0.25581395348837077,
          "durationTicks": 22,
          "midi": 97,
          "name": "C#7",
          "ticks": 12570,
          "time": 146.1627906976744,
          "velocity": 0.16535433070866143
        },
        {
          "duration": 0.2790697674418823,
          "durationTicks": 24,
          "midi": 67,
          "name": "G4",
          "ticks": 12571,
          "time": 146.17441860465115,
          "velocity": 0.18110236220472442
        },
        {
          "duration": 0.04651162790696617,
          "durationTicks": 4,
          "midi": 56,
          "name": "G#3",
          "ticks": 12575,
          "time": 146.22093023255815,
          "velocity": 0.1732283464566929
        },
        {
          "duration": 0.023255813953483084,
          "durationTicks": 2,
          "midi": 48,
          "name": "C3",
          "ticks": 12576,
          "time": 146.2325581395349,
          "velocity": 0.2283464566929134
        },
        {
          "duration": 0.2093023255814046,
          "durationTicks": 18,
          "midi": 60,
          "name": "C4",
          "ticks": 12579,
          "time": 146.2674418604651,
          "velocity": 0.1889763779527559
        },
        {
          "duration": 0.19767441860466306,
          "durationTicks": 17,
          "midi": 48,
          "name": "C3",
          "ticks": 12581,
          "time": 146.2906976744186,
          "velocity": 0.3228346456692913
        },
        {
          "duration": 0.2325581395348877,
          "durationTicks": 20,
          "midi": 55,
          "name": "G3",
          "ticks": 12581,
          "time": 146.2906976744186,
          "velocity": 0.2125984251968504
        },
        {
          "duration": 0.023255813953483084,
          "durationTicks": 2,
          "midi": 36,
          "name": "C2",
          "ticks": 12594,
          "time": 146.4418604651163,
          "velocity": 0.2755905511811024
        },
        {
          "duration": 0.04651162790696617,
          "durationTicks": 4,
          "midi": 36,
          "name": "C2",
          "ticks": 12597,
          "time": 146.47674418604652,
          "velocity": 0.2677165354330709
        },
        {
          "duration": 0.12790697674418539,
          "durationTicks": 11,
          "midi": 79,
          "name": "G5",
          "ticks": 12598,
          "time": 146.48837209302326,
          "velocity": 0.15748031496062992
        },
        {
          "duration": 0.023255813953483084,
          "durationTicks": 2,
          "midi": 36,
          "name": "C2",
          "ticks": 12602,
          "time": 146.53488372093022,
          "velocity": 0.25984251968503935
        },
        {
          "duration": 0.05813953488373613,
          "durationTicks": 5,
          "midi": 55,
          "name": "G3",
          "ticks": 12602,
          "time": 146.53488372093022,
          "velocity": 0.18110236220472442
        },
        {
          "duration": 0.1511627906976969,
          "durationTicks": 13,
          "midi": 60,
          "name": "C4",
          "ticks": 12603,
          "time": 146.54651162790697,
          "velocity": 0.16535433070866143
        },
        {
          "duration": 0.0813953488371908,
          "durationTicks": 7,
          "midi": 36,
          "name": "C2",
          "ticks": 12605,
          "time": 146.56976744186048,
          "velocity": 0.25984251968503935
        },
        {
          "duration": 0.05813953488370771,
          "durationTicks": 5,
          "midi": 64,
          "name": "E4",
          "ticks": 12610,
          "time": 146.62790697674419,
          "velocity": 0.08661417322834646
        },
        {
          "duration": 0.1046511627907023,
          "durationTicks": 9,
          "midi": 67,
          "name": "G4",
          "ticks": 12611,
          "time": 146.63953488372093,
          "velocity": 0.14173228346456693
        },
        {
          "duration": 0.023255813953483084,
          "durationTicks": 2,
          "midi": 36,
          "name": "C2",
          "ticks": 12613,
          "time": 146.6627906976744,
          "velocity": 0.25196850393700787
        },
        {
          "duration": 0.04651162790696617,
          "durationTicks": 4,
          "midi": 55,
          "name": "G3",
          "ticks": 12617,
          "time": 146.7093023255814,
          "velocity": 0.28346456692913385
        },
        {
          "duration": 0.034883720930224626,
          "durationTicks": 3,
          "midi": 50,
          "name": "D3",
          "ticks": 12620,
          "time": 146.74418604651163,
          "velocity": 0.2204724409448819
        },
        {
          "duration": 0.023255813953483084,
          "durationTicks": 2,
          "midi": 42,
          "name": "F#2",
          "ticks": 12621,
          "time": 146.75581395348837,
          "velocity": 0.30708661417322836
        },
        {
          "duration": 0.04651162790696617,
          "durationTicks": 4,
          "midi": 66,
          "name": "F#4",
          "ticks": 12621,
          "time": 146.75581395348837,
          "velocity": 0.10236220472440945
        },
        {
          "duration": 0.06976744186047767,
          "durationTicks": 6,
          "midi": 55,
          "name": "G3",
          "ticks": 12622,
          "time": 146.7674418604651,
          "velocity": 0.1732283464566929
        },
        {
          "duration": 0.16279069767443843,
          "durationTicks": 14,
          "midi": 43,
          "name": "G2",
          "ticks": 12623,
          "time": 146.77906976744185,
          "velocity": 0.3228346456692913
        },
        {
          "duration": 0.04651162790696617,
          "durationTicks": 4,
          "midi": 50,
          "name": "D3",
          "ticks": 12627,
          "time": 146.82558139534885,
          "velocity": 0.2283464566929134
        },
        {
          "duration": 0.06976744186044925,
          "durationTicks": 6,
          "midi": 59,
          "name": "B3",
          "ticks": 12628,
          "time": 146.8372093023256,
          "velocity": 0.11023622047244094
        },
        {
          "duration": 0.03488372093025305,
          "durationTicks": 3,
          "midi": 67,
          "name": "G4",
          "ticks": 12636,
          "time": 146.93023255813952,
          "velocity": 0.14173228346456693
        },
        {
          "duration": 0.03488372093025305,
          "durationTicks": 3,
          "midi": 70,
          "name": "A#4",
          "ticks": 12636,
          "time": 146.93023255813952,
          "velocity": 0.1889763779527559
        },
        {
          "duration": 0.09302325581393234,
          "durationTicks": 8,
          "midi": 76,
          "name": "E5",
          "ticks": 12638,
          "time": 146.95348837209303,
          "velocity": 0.15748031496062992
        },
        {
          "duration": 0.05813953488370771,
          "durationTicks": 5,
          "midi": 93,
          "name": "A6",
          "ticks": 12638,
          "time": 146.95348837209303,
          "velocity": 0.13385826771653545
        },
        {
          "duration": 0.04651162790696617,
          "durationTicks": 4,
          "midi": 48,
          "name": "C3",
          "ticks": 12639,
          "time": 146.96511627906978,
          "velocity": 0.2204724409448819
        },
        {
          "duration": 0.034883720930224626,
          "durationTicks": 3,
          "midi": 55,
          "name": "G3",
          "ticks": 12639,
          "time": 146.96511627906978,
          "velocity": 0.1732283464566929
        },
        {
          "duration": 0.1046511627907023,
          "durationTicks": 9,
          "midi": 64,
          "name": "E4",
          "ticks": 12639,
          "time": 146.96511627906978,
          "velocity": 0.1889763779527559
        },
        {
          "duration": 0.04651162790699459,
          "durationTicks": 4,
          "midi": 48,
          "name": "C3",
          "ticks": 12645,
          "time": 147.03488372093022,
          "velocity": 0.2204724409448819
        },
        {
          "duration": 0.04651162790699459,
          "durationTicks": 4,
          "midi": 55,
          "name": "G3",
          "ticks": 12645,
          "time": 147.03488372093022,
          "velocity": 0.16535433070866143
        },
        {
          "duration": 0.023255813953483084,
          "durationTicks": 2,
          "midi": 36,
          "name": "C2",
          "ticks": 12648,
          "time": 147.06976744186048,
          "velocity": 0.25984251968503935
        },
        {
          "duration": 0.04651162790696617,
          "durationTicks": 4,
          "midi": 49,
          "name": "C#3",
          "ticks": 12649,
          "time": 147.08139534883722,
          "velocity": 0.2440944881889764
        },
        {
          "duration": 0.05813953488370771,
          "durationTicks": 5,
          "midi": 37,
          "name": "C#2",
          "ticks": 12652,
          "time": 147.11627906976744,
          "velocity": 0.28346456692913385
        },
        {
          "duration": 0.023255813953483084,
          "durationTicks": 2,
          "midi": 55,
          "name": "G3",
          "ticks": 12656,
          "time": 147.1627906976744,
          "velocity": 0.2283464566929134
        },
        {
          "duration": 0.03488372093025305,
          "durationTicks": 3,
          "midi": 91,
          "name": "G6",
          "ticks": 12657,
          "time": 147.17441860465115,
          "velocity": 0.14960629921259844
        },
        {
          "duration": 0.03488372093025305,
          "durationTicks": 3,
          "midi": 42,
          "name": "F#2",
          "ticks": 12658,
          "time": 147.1860465116279,
          "velocity": 0.2992125984251969
        },
        {
          "duration": 0.1511627906976969,
          "durationTicks": 13,
          "midi": 64,
          "name": "E4",
          "ticks": 12658,
          "time": 147.1860465116279,
          "velocity": 0.14173228346456693
        },
        {
          "duration": 0.09302325581396076,
          "durationTicks": 8,
          "midi": 72,
          "name": "C5",
          "ticks": 12658,
          "time": 147.1860465116279,
          "velocity": 0.1732283464566929
        },
        {
          "duration": 0.24418604651162923,
          "durationTicks": 21,
          "midi": 52,
          "name": "E3",
          "ticks": 12659,
          "time": 147.19767441860466,
          "velocity": 0.3464566929133858
        },
        {
          "duration": 0.16279069767441,
          "durationTicks": 14,
          "midi": 33,
          "name": "A1",
          "ticks": 12663,
          "time": 147.24418604651163,
          "velocity": 0.2125984251968504
        },
        {
          "duration": 0.05813953488370771,
          "durationTicks": 5,
          "midi": 74,
          "name": "D5",
          "ticks": 12669,
          "time": 147.3139534883721,
          "velocity": 0.11811023622047244
        },
        {
          "duration": 0.03488372093025305,
          "durationTicks": 3,
          "midi": 44,
          "name": "G#2",
          "ticks": 12677,
          "time": 147.40697674418604,
          "velocity": 0.23622047244094488
        },
        {
          "duration": 0.0813953488371908,
          "durationTicks": 7,
          "midi": 52,
          "name": "E3",
          "ticks": 12681,
          "time": 147.45348837209303,
          "velocity": 0.25984251968503935
        },
        {
          "duration": 0.05813953488370771,
          "durationTicks": 5,
          "midi": 67,
          "name": "G4",
          "ticks": 12681,
          "time": 147.45348837209303,
          "velocity": 0.07086614173228346
        },
        {
          "duration": 0.05813953488370771,
          "durationTicks": 5,
          "midi": 45,
          "name": "A2",
          "ticks": 12683,
          "time": 147.47674418604652,
          "velocity": 0.25196850393700787
        },
        {
          "duration": 0.1046511627907023,
          "durationTicks": 9,
          "midi": 33,
          "name": "A1",
          "ticks": 12684,
          "time": 147.48837209302326,
          "velocity": 0.1889763779527559
        },
        {
          "duration": 0.09302325581396076,
          "durationTicks": 8,
          "midi": 78,
          "name": "F#5",
          "ticks": 12687,
          "time": 147.52325581395348,
          "velocity": 0.1732283464566929
        },
        {
          "duration": 0.08139534883721922,
          "durationTicks": 7,
          "midi": 100,
          "name": "E7",
          "ticks": 12687,
          "time": 147.52325581395348,
          "velocity": 0.08661417322834646
        },
        {
          "duration": 0.04651162790699459,
          "durationTicks": 4,
          "midi": 57,
          "name": "A3",
          "ticks": 12690,
          "time": 147.5581395348837,
          "velocity": 0.14173228346456693
        },
        {
          "duration": 0.09302325581393234,
          "durationTicks": 8,
          "midi": 67,
          "name": "G4",
          "ticks": 12691,
          "time": 147.56976744186048,
          "velocity": 0.1732283464566929
        },
        {
          "duration": 0.034883720930224626,
          "durationTicks": 3,
          "midi": 44,
          "name": "G#2",
          "ticks": 12697,
          "time": 147.63953488372093,
          "velocity": 0.3700787401574803
        },
        {
          "duration": 0.15116279069766847,
          "durationTicks": 13,
          "midi": 58,
          "name": "A#3",
          "ticks": 12697,
          "time": 147.63953488372093,
          "velocity": 0.1732283464566929
        },
        {
          "duration": 0.1046511627907023,
          "durationTicks": 9,
          "midi": 79,
          "name": "G5",
          "ticks": 12698,
          "time": 147.65116279069767,
          "velocity": 0.2047244094488189
        },
        {
          "duration": 0.2093023255814046,
          "durationTicks": 18,
          "midi": 34,
          "name": "A#1",
          "ticks": 12701,
          "time": 147.6860465116279,
          "velocity": 0.2677165354330709
        },
        {
          "duration": 0.17441860465117998,
          "durationTicks": 15,
          "midi": 46,
          "name": "A#2",
          "ticks": 12701,
          "time": 147.6860465116279,
          "velocity": 0.29133858267716534
        },
        {
          "duration": 0.17441860465117998,
          "durationTicks": 15,
          "midi": 53,
          "name": "F3",
          "ticks": 12701,
          "time": 147.6860465116279,
          "velocity": 0.18110236220472442
        },
        {
          "duration": 0.05813953488373613,
          "durationTicks": 5,
          "midi": 88,
          "name": "E6",
          "ticks": 12709,
          "time": 147.77906976744185,
          "velocity": 0.13385826771653545
        },
        {
          "duration": 0.034883720930224626,
          "durationTicks": 3,
          "midi": 46,
          "name": "A#2",
          "ticks": 12717,
          "time": 147.87209302325581,
          "velocity": 0.2677165354330709
        },
        {
          "duration": 0.023255813953483084,
          "durationTicks": 2,
          "midi": 45,
          "name": "A2",
          "ticks": 12720,
          "time": 147.90697674418604,
          "velocity": 0.29133858267716534
        },
        {
          "duration": 0.023255813953511506,
          "durationTicks": 2,
          "midi": 46,
          "name": "A#2",
          "ticks": 12722,
          "time": 147.93023255813952,
          "velocity": 0.2440944881889764
        },
        {
          "duration": 0.04651162790696617,
          "durationTicks": 4,
          "midi": 34,
          "name": "A#1",
          "ticks": 12723,
          "time": 147.9418604651163,
          "velocity": 0.2204724409448819
        },
        {
          "duration": 0.023255813953483084,
          "durationTicks": 2,
          "midi": 46,
          "name": "A#2",
          "ticks": 12725,
          "time": 147.96511627906978,
          "velocity": 0.25196850393700787
        },
        {
          "duration": 0.034883720930224626,
          "durationTicks": 3,
          "midi": 66,
          "name": "F#4",
          "ticks": 12726,
          "time": 147.97674418604652,
          "velocity": 0.11023622047244094
        },
        {
          "duration": 0.08139534883721922,
          "durationTicks": 7,
          "midi": 34,
          "name": "A#1",
          "ticks": 12728,
          "time": 148,
          "velocity": 0.23622047244094488
        },
        {
          "duration": 0.04651162790696617,
          "durationTicks": 4,
          "midi": 46,
          "name": "A#2",
          "ticks": 12728,
          "time": 148,
          "velocity": 0.30708661417322836
        },
        {
          "duration": 0.25581395348837077,
          "durationTicks": 22,
          "midi": 79,
          "name": "G5",
          "ticks": 12728,
          "time": 148,
          "velocity": 0.25196850393700787
        },
        {
          "duration": 0.05813953488373613,
          "durationTicks": 5,
          "midi": 53,
          "name": "F3",
          "ticks": 12729,
          "time": 148.01162790697674,
          "velocity": 0.2047244094488189
        },
        {
          "duration": 0.2906976744185954,
          "durationTicks": 25,
          "midi": 67,
          "name": "G4",
          "ticks": 12729,
          "time": 148.01162790697674,
          "velocity": 0.1732283464566929
        },
        {
          "duration": 0.023255813953511506,
          "durationTicks": 2,
          "midi": 45,
          "name": "A2",
          "ticks": 12732,
          "time": 148.04651162790697,
          "velocity": 0.28346456692913385
        },
        {
          "duration": 0.023255813953483084,
          "durationTicks": 2,
          "midi": 55,
          "name": "G3",
          "ticks": 12738,
          "time": 148.11627906976744,
          "velocity": 0.2283464566929134
        },
        {
          "duration": 0.04651162790696617,
          "durationTicks": 4,
          "midi": 34,
          "name": "A#1",
          "ticks": 12740,
          "time": 148.13953488372093,
          "velocity": 0.2992125984251969
        },
        {
          "duration": 0.1046511627907023,
          "durationTicks": 9,
          "midi": 54,
          "name": "F#3",
          "ticks": 12740,
          "time": 148.13953488372093,
          "velocity": 0.2992125984251969
        },
        {
          "duration": 0.05813953488373613,
          "durationTicks": 5,
          "midi": 59,
          "name": "B3",
          "ticks": 12740,
          "time": 148.13953488372093,
          "velocity": 0.15748031496062992
        },
        {
          "duration": 0.04651162790699459,
          "durationTicks": 4,
          "midi": 47,
          "name": "B2",
          "ticks": 12741,
          "time": 148.15116279069767,
          "velocity": 0.23622047244094488
        },
        {
          "duration": 0.023255813953483084,
          "durationTicks": 2,
          "midi": 35,
          "name": "B1",
          "ticks": 12746,
          "time": 148.2093023255814,
          "velocity": 0.28346456692913385
        },
        {
          "duration": 0.023255813953483084,
          "durationTicks": 2,
          "midi": 35,
          "name": "B1",
          "ticks": 12749,
          "time": 148.24418604651163,
          "velocity": 0.28346456692913385
        },
        {
          "duration": 0.03488372093025305,
          "durationTicks": 3,
          "midi": 35,
          "name": "B1",
          "ticks": 12752,
          "time": 148.27906976744185,
          "velocity": 0.2755905511811024
        },
        {
          "duration": 0.09302325581396076,
          "durationTicks": 8,
          "midi": 54,
          "name": "F#3",
          "ticks": 12758,
          "time": 148.34883720930233,
          "velocity": 0.10236220472440945
        },
        {
          "duration": 0.06976744186044925,
          "durationTicks": 6,
          "midi": 100,
          "name": "E7",
          "ticks": 12758,
          "time": 148.34883720930233,
          "velocity": 0.12598425196850394
        },
        {
          "duration": 0.12790697674418539,
          "durationTicks": 11,
          "midi": 78,
          "name": "F#5",
          "ticks": 12759,
          "time": 148.36046511627907,
          "velocity": 0.14173228346456693
        },
        {
          "duration": 0.023255813953483084,
          "durationTicks": 2,
          "midi": 35,
          "name": "B1",
          "ticks": 12760,
          "time": 148.37209302325581,
          "velocity": 0.2677165354330709
        },
        {
          "duration": 0.11627906976744384,
          "durationTicks": 10,
          "midi": 47,
          "name": "B2",
          "ticks": 12760,
          "time": 148.37209302325581,
          "velocity": 0.2677165354330709
        },
        {
          "duration": 0.023255813953483084,
          "durationTicks": 2,
          "midi": 35,
          "name": "B1",
          "ticks": 12763,
          "time": 148.40697674418604,
          "velocity": 0.2677165354330709
        },
        {
          "duration": 0.023255813953483084,
          "durationTicks": 2,
          "midi": 35,
          "name": "B1",
          "ticks": 12766,
          "time": 148.4418604651163,
          "velocity": 0.2677165354330709
        },
        {
          "duration": 0.023255813953483084,
          "durationTicks": 2,
          "midi": 47,
          "name": "B2",
          "ticks": 12773,
          "time": 148.52325581395348,
          "velocity": 0.2440944881889764
        },
        {
          "duration": 0.023255813953483084,
          "durationTicks": 2,
          "midi": 36,
          "name": "C2",
          "ticks": 12774,
          "time": 148.53488372093022,
          "velocity": 0.29133858267716534
        },
        {
          "duration": 0.023255813953483084,
          "durationTicks": 2,
          "midi": 50,
          "name": "D3",
          "ticks": 12778,
          "time": 148.58139534883722,
          "velocity": 0.2755905511811024
        },
        {
          "duration": 0.10465116279067388,
          "durationTicks": 9,
          "midi": 76,
          "name": "E5",
          "ticks": 12778,
          "time": 148.58139534883722,
          "velocity": 0.14173228346456693
        },
        {
          "duration": 0.05813953488370771,
          "durationTicks": 5,
          "midi": 83,
          "name": "B5",
          "ticks": 12778,
          "time": 148.58139534883722,
          "velocity": 0.07086614173228346
        },
        {
          "duration": 0.06976744186044925,
          "durationTicks": 6,
          "midi": 64,
          "name": "E4",
          "ticks": 12781,
          "time": 148.61627906976744,
          "velocity": 0.14173228346456693
        },
        {
          "duration": 0.023255813953483084,
          "durationTicks": 2,
          "midi": 43,
          "name": "G2",
          "ticks": 12782,
          "time": 148.62790697674419,
          "velocity": 0.33858267716535434
        },
        {
          "duration": 0.08139534883721922,
          "durationTicks": 7,
          "midi": 61,
          "name": "C#4",
          "ticks": 12782,
          "time": 148.62790697674419,
          "velocity": 0.07874015748031496
        },
        {
          "duration": 0.3139534883721069,
          "durationTicks": 27,
          "midi": 42,
          "name": "F#2",
          "ticks": 12784,
          "time": 148.65116279069767,
          "velocity": 0.3779527559055118
        },
        {
          "duration": 0.03488372093025305,
          "durationTicks": 3,
          "midi": 70,
          "name": "A#4",
          "ticks": 12797,
          "time": 148.80232558139534,
          "velocity": 0.16535433070866143
        },
        {
          "duration": 0.0813953488371908,
          "durationTicks": 7,
          "midi": 67,
          "name": "G4",
          "ticks": 12798,
          "time": 148.8139534883721,
          "velocity": 0.12598425196850394
        },
        {
          "duration": 0.0813953488371908,
          "durationTicks": 7,
          "midi": 75,
          "name": "D#5",
          "ticks": 12798,
          "time": 148.8139534883721,
          "velocity": 0.1732283464566929
        },
        {
          "duration": 0.04651162790696617,
          "durationTicks": 4,
          "midi": 63,
          "name": "D#4",
          "ticks": 12800,
          "time": 148.8372093023256,
          "velocity": 0.15748031496062992
        },
        {
          "duration": 0.11627906976744384,
          "durationTicks": 10,
          "midi": 59,
          "name": "B3",
          "ticks": 12807,
          "time": 148.91860465116278,
          "velocity": 0.13385826771653545
        },
        {
          "duration": 0.03488372093025305,
          "durationTicks": 3,
          "midi": 51,
          "name": "D#3",
          "ticks": 12808,
          "time": 148.93023255813952,
          "velocity": 0.10236220472440945
        },
        {
          "duration": 0.11627906976744384,
          "durationTicks": 10,
          "midi": 67,
          "name": "G4",
          "ticks": 12808,
          "time": 148.93023255813952,
          "velocity": 0.2047244094488189
        },
        {
          "duration": 0.023255813953483084,
          "durationTicks": 2,
          "midi": 41,
          "name": "F2",
          "ticks": 12811,
          "time": 148.96511627906978,
          "velocity": 0.2677165354330709
        },
        {
          "duration": 0.04651162790696617,
          "durationTicks": 4,
          "midi": 51,
          "name": "D#3",
          "ticks": 12813,
          "time": 148.98837209302326,
          "velocity": 0.14173228346456693
        },
        {
          "duration": 0.023255813953483084,
          "durationTicks": 2,
          "midi": 45,
          "name": "A2",
          "ticks": 12816,
          "time": 149.02325581395348,
          "velocity": 0.25196850393700787
        },
        {
          "duration": 0.023255813953483084,
          "durationTicks": 2,
          "midi": 60,
          "name": "C4",
          "ticks": 12817,
          "time": 149.03488372093022,
          "velocity": 0.23622047244094488
        },
        {
          "duration": 0.03488372093025305,
          "durationTicks": 3,
          "midi": 64,
          "name": "E4",
          "ticks": 12817,
          "time": 149.03488372093022,
          "velocity": 0.11023622047244094
        },
        {
          "duration": 0.023255813953511506,
          "durationTicks": 2,
          "midi": 43,
          "name": "G2",
          "ticks": 12818,
          "time": 149.04651162790697,
          "velocity": 0.33858267716535434
        },
        {
          "duration": 0.1046511627907023,
          "durationTicks": 9,
          "midi": 75,
          "name": "D#5",
          "ticks": 12818,
          "time": 149.04651162790697,
          "velocity": 0.18110236220472442
        },
        {
          "duration": 0.2790697674418823,
          "durationTicks": 24,
          "midi": 59,
          "name": "B3",
          "ticks": 12819,
          "time": 149.0581395348837,
          "velocity": 0.2125984251968504
        },
        {
          "duration": 0.04651162790696617,
          "durationTicks": 4,
          "midi": 52,
          "name": "E3",
          "ticks": 12820,
          "time": 149.06976744186048,
          "velocity": 0.28346456692913385
        },
        {
          "duration": 0.034883720930224626,
          "durationTicks": 3,
          "midi": 41,
          "name": "F2",
          "ticks": 12821,
          "time": 149.08139534883722,
          "velocity": 0.3700787401574803
        },
        {
          "duration": 0.034883720930224626,
          "durationTicks": 3,
          "midi": 63,
          "name": "D#4",
          "ticks": 12823,
          "time": 149.1046511627907,
          "velocity": 0.1889763779527559
        },
        {
          "duration": 0.023255813953483084,
          "durationTicks": 2,
          "midi": 39,
          "name": "D#2",
          "ticks": 12824,
          "time": 149.11627906976744,
          "velocity": 0.30708661417322836
        },
        {
          "duration": 0.023255813953483084,
          "durationTicks": 2,
          "midi": 52,
          "name": "E3",
          "ticks": 12825,
          "time": 149.12790697674419,
          "velocity": 0.2677165354330709
        },
        {
          "duration": 0.16279069767441,
          "durationTicks": 14,
          "midi": 40,
          "name": "E2",
          "ticks": 12826,
          "time": 149.13953488372093,
          "velocity": 0.3228346456692913
        },
        {
          "duration": 0.034883720930224626,
          "durationTicks": 3,
          "midi": 51,
          "name": "D#3",
          "ticks": 12827,
          "time": 149.15116279069767,
          "velocity": 0.2677165354330709
        },
        {
          "duration": 0.034883720930224626,
          "durationTicks": 3,
          "midi": 64,
          "name": "E4",
          "ticks": 12827,
          "time": 149.15116279069767,
          "velocity": 0.08661417322834646
        },
        {
          "duration": 0.5,
          "durationTicks": 43,
          "midi": 76,
          "name": "E5",
          "ticks": 12827,
          "time": 149.15116279069767,
          "velocity": 0.16535433070866143
        },
        {
          "duration": 0.5116279069767415,
          "durationTicks": 44,
          "midi": 64,
          "name": "E4",
          "ticks": 12838,
          "time": 149.27906976744185,
          "velocity": 0.30708661417322836
        },
        {
          "duration": 0.06976744186044925,
          "durationTicks": 6,
          "midi": 40,
          "name": "E2",
          "ticks": 12843,
          "time": 149.3372093023256,
          "velocity": 0.3228346456692913
        },
        {
          "duration": 0.034883720930224626,
          "durationTicks": 3,
          "midi": 71,
          "name": "B4",
          "ticks": 12848,
          "time": 149.3953488372093,
          "velocity": 0.10236220472440945
        },
        {
          "duration": 0.034883720930224626,
          "durationTicks": 3,
          "midi": 46,
          "name": "A#2",
          "ticks": 12856,
          "time": 149.48837209302326,
          "velocity": 0.23622047244094488
        },
        {
          "duration": 0.023255813953483084,
          "durationTicks": 2,
          "midi": 46,
          "name": "A#2",
          "ticks": 12860,
          "time": 149.53488372093022,
          "velocity": 0.23622047244094488
        },
        {
          "duration": 0.05813953488370771,
          "durationTicks": 5,
          "midi": 35,
          "name": "B1",
          "ticks": 12863,
          "time": 149.56976744186048,
          "velocity": 0.2755905511811024
        },
        {
          "duration": 0.023255813953483084,
          "durationTicks": 2,
          "midi": 48,
          "name": "C3",
          "ticks": 12865,
          "time": 149.59302325581396,
          "velocity": 0.25196850393700787
        },
        {
          "duration": 0.09302325581396076,
          "durationTicks": 8,
          "midi": 35,
          "name": "B1",
          "ticks": 12869,
          "time": 149.63953488372093,
          "velocity": 0.25196850393700787
        },
        {
          "duration": 0.023255813953483084,
          "durationTicks": 2,
          "midi": 47,
          "name": "B2",
          "ticks": 12869,
          "time": 149.63953488372093,
          "velocity": 0.25196850393700787
        },
        {
          "duration": 0.06976744186047767,
          "durationTicks": 6,
          "midi": 74,
          "name": "D5",
          "ticks": 12871,
          "time": 149.6627906976744,
          "velocity": 0.09448818897637795
        },
        {
          "duration": 0.023255813953483084,
          "durationTicks": 2,
          "midi": 35,
          "name": "B1",
          "ticks": 12878,
          "time": 149.74418604651163,
          "velocity": 0.25196850393700787
        },
        {
          "duration": 0.034883720930224626,
          "durationTicks": 3,
          "midi": 50,
          "name": "D3",
          "ticks": 12878,
          "time": 149.74418604651163,
          "velocity": 0.2677165354330709
        },
        {
          "duration": 0.1046511627907023,
          "durationTicks": 9,
          "midi": 60,
          "name": "C4",
          "ticks": 12881,
          "time": 149.77906976744185,
          "velocity": 0.2047244094488189
        },
        {
          "duration": 0.023255813953511506,
          "durationTicks": 2,
          "midi": 38,
          "name": "D2",
          "ticks": 12883,
          "time": 149.80232558139534,
          "velocity": 0.29133858267716534
        },
        {
          "duration": 0.38372093023255616,
          "durationTicks": 33,
          "midi": 64,
          "name": "E4",
          "ticks": 12883,
          "time": 149.80232558139534,
          "velocity": 0.2047244094488189
        },
        {
          "duration": 0.11627906976744384,
          "durationTicks": 10,
          "midi": 38,
          "name": "D2",
          "ticks": 12886,
          "time": 149.8372093023256,
          "velocity": 0.28346456692913385
        },
        {
          "duration": 0.08139534883721922,
          "durationTicks": 7,
          "midi": 67,
          "name": "G4",
          "ticks": 12889,
          "time": 149.87209302325581,
          "velocity": 0.23622047244094488
        },
        {
          "duration": 0.04651162790699459,
          "durationTicks": 4,
          "midi": 60,
          "name": "C4",
          "ticks": 12891,
          "time": 149.8953488372093,
          "velocity": 0.23622047244094488
        },
        {
          "duration": 0.04651162790696617,
          "durationTicks": 4,
          "midi": 59,
          "name": "B3",
          "ticks": 12895,
          "time": 149.9418604651163,
          "velocity": 0.14173228346456693
        },
        {
          "duration": 0.023255813953483084,
          "durationTicks": 2,
          "midi": 39,
          "name": "D#2",
          "ticks": 12896,
          "time": 149.95348837209303,
          "velocity": 0.30708661417322836
        },
        {
          "duration": 0.034883720930224626,
          "durationTicks": 3,
          "midi": 38,
          "name": "D2",
          "ticks": 12898,
          "time": 149.97674418604652,
          "velocity": 0.2755905511811024
        },
        {
          "duration": 0.09302325581396076,
          "durationTicks": 8,
          "midi": 71,
          "name": "B4",
          "ticks": 12898,
          "time": 149.97674418604652,
          "velocity": 0.16535433070866143
        },
        {
          "duration": 0.023255813953483084,
          "durationTicks": 2,
          "midi": 51,
          "name": "D#3",
          "ticks": 12899,
          "time": 149.98837209302326,
          "velocity": 0.2283464566929134
        },
        {
          "duration": 0.05813953488373613,
          "durationTicks": 5,
          "midi": 59,
          "name": "B3",
          "ticks": 12903,
          "time": 150.03488372093022,
          "velocity": 0.15748031496062992
        },
        {
          "duration": 0.04651162790699459,
          "durationTicks": 4,
          "midi": 40,
          "name": "E2",
          "ticks": 12904,
          "time": 150.04651162790697,
          "velocity": 0.30708661417322836
        },
        {
          "duration": 0.13953488372092693,
          "durationTicks": 12,
          "midi": 40,
          "name": "E2",
          "ticks": 12909,
          "time": 150.1046511627907,
          "velocity": 0.31496062992125984
        },
        {
          "duration": 0.09302325581396076,
          "durationTicks": 8,
          "midi": 59,
          "name": "B3",
          "ticks": 12913,
          "time": 150.15116279069767,
          "velocity": 0.1732283464566929
        },
        {
          "duration": 0.11627906976744384,
          "durationTicks": 10,
          "midi": 64,
          "name": "E4",
          "ticks": 12921,
          "time": 150.24418604651163,
          "velocity": 0.1889763779527559
        },
        {
          "duration": 0.12790697674418539,
          "durationTicks": 11,
          "midi": 69,
          "name": "A4",
          "ticks": 12921,
          "time": 150.24418604651163,
          "velocity": 0.14960629921259844
        },
        {
          "duration": 0.04651162790699459,
          "durationTicks": 4,
          "midi": 57,
          "name": "A3",
          "ticks": 12923,
          "time": 150.2674418604651,
          "velocity": 0.18110236220472442
        },
        {
          "duration": 0.06976744186047767,
          "durationTicks": 6,
          "midi": 52,
          "name": "E3",
          "ticks": 12924,
          "time": 150.27906976744185,
          "velocity": 0.25196850393700787
        },
        {
          "duration": 0.05813953488373613,
          "durationTicks": 5,
          "midi": 40,
          "name": "E2",
          "ticks": 12926,
          "time": 150.30232558139534,
          "velocity": 0.33070866141732286
        },
        {
          "duration": 0.0813953488371908,
          "durationTicks": 7,
          "midi": 57,
          "name": "A3",
          "ticks": 12930,
          "time": 150.34883720930233,
          "velocity": 0.1732283464566929
        },
        {
          "duration": 0.13953488372092693,
          "durationTicks": 12,
          "midi": 67,
          "name": "G4",
          "ticks": 12930,
          "time": 150.34883720930233,
          "velocity": 0.2440944881889764
        },
        {
          "duration": 0.023255813953483084,
          "durationTicks": 2,
          "midi": 41,
          "name": "F2",
          "ticks": 12932,
          "time": 150.37209302325581,
          "velocity": 0.31496062992125984
        },
        {
          "duration": 0.06976744186047767,
          "durationTicks": 6,
          "midi": 64,
          "name": "E4",
          "ticks": 12932,
          "time": 150.37209302325581,
          "velocity": 0.18110236220472442
        },
        {
          "duration": 0.03488372093025305,
          "durationTicks": 3,
          "midi": 52,
          "name": "E3",
          "ticks": 12937,
          "time": 150.43023255813952,
          "velocity": 0.2125984251968504
        },
        {
          "duration": 0.023255813953483084,
          "durationTicks": 2,
          "midi": 33,
          "name": "A1",
          "ticks": 12941,
          "time": 150.47674418604652,
          "velocity": 0.3228346456692913
        },
        {
          "duration": 0.04651162790696617,
          "durationTicks": 4,
          "midi": 64,
          "name": "E4",
          "ticks": 12943,
          "time": 150.5,
          "velocity": 0.09448818897637795
        },
        {
          "duration": 0.05813953488373613,
          "durationTicks": 5,
          "midi": 35,
          "name": "B1",
          "ticks": 12947,
          "time": 150.54651162790697,
          "velocity": 0.28346456692913385
        },
        {
          "duration": 0.023255813953483084,
          "durationTicks": 2,
          "midi": 35,
          "name": "B1",
          "ticks": 12954,
          "time": 150.62790697674419,
          "velocity": 0.29133858267716534
        },
        {
          "duration": 0.034883720930224626,
          "durationTicks": 3,
          "midi": 54,
          "name": "F#3",
          "ticks": 12954,
          "time": 150.62790697674419,
          "velocity": 0.1968503937007874
        },
        {
          "duration": 0.04651162790696617,
          "durationTicks": 4,
          "midi": 64,
          "name": "E4",
          "ticks": 12954,
          "time": 150.62790697674419,
          "velocity": 0.07874015748031496
        },
        {
          "duration": 0.04651162790699459,
          "durationTicks": 4,
          "midi": 50,
          "name": "D3",
          "ticks": 12957,
          "time": 150.6627906976744,
          "velocity": 0.23622047244094488
        },
        {
          "duration": 0.03488372093025305,
          "durationTicks": 3,
          "midi": 67,
          "name": "G4",
          "ticks": 12957,
          "time": 150.6627906976744,
          "velocity": 0.13385826771653545
        },
        {
          "duration": 0.05813953488370771,
          "durationTicks": 5,
          "midi": 57,
          "name": "A3",
          "ticks": 12960,
          "time": 150.69767441860466,
          "velocity": 0.2125984251968504
        },
        {
          "duration": 0.034883720930224626,
          "durationTicks": 3,
          "midi": 37,
          "name": "C#2",
          "ticks": 12962,
          "time": 150.72093023255815,
          "velocity": 0.30708661417322836
        },
        {
          "duration": 0.034883720930224626,
          "durationTicks": 3,
          "midi": 38,
          "name": "D2",
          "ticks": 12965,
          "time": 150.75581395348837,
          "velocity": 0.2755905511811024
        },
        {
          "duration": 0.04651162790699459,
          "durationTicks": 4,
          "midi": 38,
          "name": "D2",
          "ticks": 12969,
          "time": 150.80232558139534,
          "velocity": 0.28346456692913385
        },
        {
          "duration": 0.12790697674418539,
          "durationTicks": 11,
          "midi": 67,
          "name": "G4",
          "ticks": 12971,
          "time": 150.82558139534885,
          "velocity": 0.1968503937007874
        },
        {
          "duration": 0.023255813953483084,
          "durationTicks": 2,
          "midi": 38,
          "name": "D2",
          "ticks": 12974,
          "time": 150.86046511627907,
          "velocity": 0.25196850393700787
        },
        {
          "duration": 0.023255813953511506,
          "durationTicks": 2,
          "midi": 51,
          "name": "D#3",
          "ticks": 12979,
          "time": 150.91860465116278,
          "velocity": 0.3464566929133858
        },
        {
          "duration": 0.16279069767443843,
          "durationTicks": 14,
          "midi": 64,
          "name": "E4",
          "ticks": 12979,
          "time": 150.91860465116278,
          "velocity": 0.1889763779527559
        },
        {
          "duration": 0.13953488372095535,
          "durationTicks": 12,
          "midi": 59,
          "name": "B3",
          "ticks": 12980,
          "time": 150.93023255813952,
          "velocity": 0.1968503937007874
        },
        {
          "duration": 0.15116279069766847,
          "durationTicks": 13,
          "midi": 52,
          "name": "E3",
          "ticks": 12981,
          "time": 150.9418604651163,
          "velocity": 0.3464566929133858
        },
        {
          "duration": 0.15116279069766847,
          "durationTicks": 13,
          "midi": 40,
          "name": "E2",
          "ticks": 12984,
          "time": 150.97674418604652,
          "velocity": 0.30708661417322836
        },
        {
          "duration": 0.034883720930224626,
          "durationTicks": 3,
          "midi": 60,
          "name": "C4",
          "ticks": 12994,
          "time": 151.09302325581396,
          "velocity": 0.12598425196850394
        },
        {
          "duration": 0.04651162790696617,
          "durationTicks": 4,
          "midi": 52,
          "name": "E3",
          "ticks": 12996,
          "time": 151.11627906976744,
          "velocity": 0.3543307086614173
        },
        {
          "duration": 0.034883720930224626,
          "durationTicks": 3,
          "midi": 71,
          "name": "B4",
          "ticks": 12999,
          "time": 151.15116279069767,
          "velocity": 0.13385826771653545
        },
        {
          "duration": 0.2093023255814046,
          "durationTicks": 18,
          "midi": 59,
          "name": "B3",
          "ticks": 13000,
          "time": 151.1627906976744,
          "velocity": 0.1732283464566929
        },
        {
          "duration": 0.17441860465117998,
          "durationTicks": 15,
          "midi": 52,
          "name": "E3",
          "ticks": 13001,
          "time": 151.17441860465115,
          "velocity": 0.3779527559055118
        },
        {
          "duration": 0.13953488372092693,
          "durationTicks": 12,
          "midi": 40,
          "name": "E2",
          "ticks": 13004,
          "time": 151.2093023255814,
          "velocity": 0.3228346456692913
        },
        {
          "duration": 0.023255813953483084,
          "durationTicks": 2,
          "midi": 39,
          "name": "D#2",
          "ticks": 13016,
          "time": 151.34883720930233,
          "velocity": 0.23622047244094488
        },
        {
          "duration": 0.1046511627907023,
          "durationTicks": 9,
          "midi": 69,
          "name": "A4",
          "ticks": 13018,
          "time": 151.37209302325581,
          "velocity": 0.12598425196850394
        },
        {
          "duration": 0.22093023255814614,
          "durationTicks": 19,
          "midi": 74,
          "name": "D5",
          "ticks": 13018,
          "time": 151.37209302325581,
          "velocity": 0.13385826771653545
        },
        {
          "duration": 0.04651162790696617,
          "durationTicks": 4,
          "midi": 88,
          "name": "E6",
          "ticks": 13019,
          "time": 151.38372093023256,
          "velocity": 0.08661417322834646
        },
        {
          "duration": 0.17441860465117998,
          "durationTicks": 15,
          "midi": 62,
          "name": "D4",
          "ticks": 13020,
          "time": 151.3953488372093,
          "velocity": 0.23622047244094488
        },
        {
          "duration": 0.17441860465117998,
          "durationTicks": 15,
          "midi": 57,
          "name": "A3",
          "ticks": 13021,
          "time": 151.40697674418604,
          "velocity": 0.2204724409448819
        },
        {
          "duration": 0.12790697674418539,
          "durationTicks": 11,
          "midi": 38,
          "name": "D2",
          "ticks": 13024,
          "time": 151.4418604651163,
          "velocity": 0.2677165354330709
        },
        {
          "duration": 0.1046511627907023,
          "durationTicks": 9,
          "midi": 67,
          "name": "G4",
          "ticks": 13031,
          "time": 151.52325581395348,
          "velocity": 0.16535433070866143
        },
        {
          "duration": 0.034883720930224626,
          "durationTicks": 3,
          "midi": 64,
          "name": "E4",
          "ticks": 13036,
          "time": 151.58139534883722,
          "velocity": 0.16535433070866143
        },
        {
          "duration": 0.05813953488370771,
          "durationTicks": 5,
          "midi": 60,
          "name": "C4",
          "ticks": 13037,
          "time": 151.59302325581396,
          "velocity": 0.2283464566929134
        },
        {
          "duration": 0.023255813953483084,
          "durationTicks": 2,
          "midi": 48,
          "name": "C3",
          "ticks": 13040,
          "time": 151.62790697674419,
          "velocity": 0.30708661417322836
        },
        {
          "duration": 0.13953488372092693,
          "durationTicks": 12,
          "midi": 36,
          "name": "C2",
          "ticks": 13043,
          "time": 151.6627906976744,
          "velocity": 0.2992125984251969
        },
        {
          "duration": 0.12790697674418539,
          "durationTicks": 11,
          "midi": 48,
          "name": "C3",
          "ticks": 13043,
          "time": 151.6627906976744,
          "velocity": 0.30708661417322836
        },
        {
          "duration": 0.05813953488370771,
          "durationTicks": 5,
          "midi": 55,
          "name": "G3",
          "ticks": 13048,
          "time": 151.72093023255815,
          "velocity": 0.2125984251968504
        },
        {
          "duration": 0.04651162790699459,
          "durationTicks": 4,
          "midi": 37,
          "name": "C#2",
          "ticks": 13055,
          "time": 151.80232558139534,
          "velocity": 0.29133858267716534
        },
        {
          "duration": 0.09302325581393234,
          "durationTicks": 8,
          "midi": 71,
          "name": "B4",
          "ticks": 13057,
          "time": 151.82558139534885,
          "velocity": 0.16535433070866143
        },
        {
          "duration": 0.023255813953483084,
          "durationTicks": 2,
          "midi": 53,
          "name": "F3",
          "ticks": 13060,
          "time": 151.86046511627907,
          "velocity": 0.30708661417322836
        },
        {
          "duration": 0.05813953488373613,
          "durationTicks": 5,
          "midi": 66,
          "name": "F#4",
          "ticks": 13062,
          "time": 151.88372093023256,
          "velocity": 0.07874015748031496
        },
        {
          "duration": 0.04651162790699459,
          "durationTicks": 4,
          "midi": 47,
          "name": "B2",
          "ticks": 13063,
          "time": 151.8953488372093,
          "velocity": 0.28346456692913385
        },
        {
          "duration": 0.1046511627907023,
          "durationTicks": 9,
          "midi": 35,
          "name": "B1",
          "ticks": 13065,
          "time": 151.91860465116278,
          "velocity": 0.1968503937007874
        },
        {
          "duration": 0.04651162790696617,
          "durationTicks": 4,
          "midi": 47,
          "name": "B2",
          "ticks": 13068,
          "time": 151.95348837209303,
          "velocity": 0.29133858267716534
        },
        {
          "duration": 0.06976744186047767,
          "durationTicks": 6,
          "midi": 52,
          "name": "E3",
          "ticks": 13072,
          "time": 152,
          "velocity": 0.2283464566929134
        },
        {
          "duration": 0.03488372093025305,
          "durationTicks": 3,
          "midi": 60,
          "name": "C4",
          "ticks": 13077,
          "time": 152.0581395348837,
          "velocity": 0.09448818897637795
        },
        {
          "duration": 0.05813953488370771,
          "durationTicks": 5,
          "midi": 66,
          "name": "F#4",
          "ticks": 13080,
          "time": 152.09302325581396,
          "velocity": 0.08661417322834646
        },
        {
          "duration": 0.1860465116278931,
          "durationTicks": 16,
          "midi": 69,
          "name": "A4",
          "ticks": 13080,
          "time": 152.09302325581396,
          "velocity": 0.15748031496062992
        },
        {
          "duration": 0.0813953488371908,
          "durationTicks": 7,
          "midi": 52,
          "name": "E3",
          "ticks": 13081,
          "time": 152.1046511627907,
          "velocity": 0.2677165354330709
        },
        {
          "duration": 0.16279069767441,
          "durationTicks": 14,
          "midi": 57,
          "name": "A3",
          "ticks": 13081,
          "time": 152.1046511627907,
          "velocity": 0.2204724409448819
        },
        {
          "duration": 0.023255813953483084,
          "durationTicks": 2,
          "midi": 31,
          "name": "G1",
          "ticks": 13082,
          "time": 152.11627906976744,
          "velocity": 0.2283464566929134
        },
        {
          "duration": 0.11627906976744384,
          "durationTicks": 10,
          "midi": 45,
          "name": "A2",
          "ticks": 13083,
          "time": 152.12790697674419,
          "velocity": 0.33858267716535434
        },
        {
          "duration": 0.08139534883721922,
          "durationTicks": 7,
          "midi": 33,
          "name": "A1",
          "ticks": 13086,
          "time": 152.1627906976744,
          "velocity": 0.2440944881889764
        },
        {
          "duration": 0.034883720930224626,
          "durationTicks": 3,
          "midi": 44,
          "name": "G#2",
          "ticks": 13093,
          "time": 152.24418604651163,
          "velocity": 0.31496062992125984
        },
        {
          "duration": 0.034883720930224626,
          "durationTicks": 3,
          "midi": 32,
          "name": "G#1",
          "ticks": 13095,
          "time": 152.2674418604651,
          "velocity": 0.2047244094488189
        },
        {
          "duration": 0.023255813953511506,
          "durationTicks": 2,
          "midi": 43,
          "name": "G2",
          "ticks": 13097,
          "time": 152.2906976744186,
          "velocity": 0.29133858267716534
        },
        {
          "duration": 0.034883720930224626,
          "durationTicks": 3,
          "midi": 50,
          "name": "D3",
          "ticks": 13099,
          "time": 152.3139534883721,
          "velocity": 0.31496062992125984
        },
        {
          "duration": 0.023255813953483084,
          "durationTicks": 2,
          "midi": 42,
          "name": "F#2",
          "ticks": 13100,
          "time": 152.32558139534885,
          "velocity": 0.3700787401574803
        },
        {
          "duration": 0.1046511627907023,
          "durationTicks": 9,
          "midi": 43,
          "name": "G2",
          "ticks": 13102,
          "time": 152.34883720930233,
          "velocity": 0.3779527559055118
        },
        {
          "duration": 0.03488372093025305,
          "durationTicks": 3,
          "midi": 54,
          "name": "F#3",
          "ticks": 13107,
          "time": 152.40697674418604,
          "velocity": 0.18110236220472442
        },
        {
          "duration": 0.04651162790699459,
          "durationTicks": 4,
          "midi": 62,
          "name": "D4",
          "ticks": 13107,
          "time": 152.40697674418604,
          "velocity": 0.13385826771653545
        },
        {
          "duration": 0.13953488372092693,
          "durationTicks": 12,
          "midi": 67,
          "name": "G4",
          "ticks": 13110,
          "time": 152.4418604651163,
          "velocity": 0.15748031496062992
        },
        {
          "duration": 0.023255813953483084,
          "durationTicks": 2,
          "midi": 42,
          "name": "F#2",
          "ticks": 13111,
          "time": 152.45348837209303,
          "velocity": 0.2677165354330709
        },
        {
          "duration": 0.023255813953483084,
          "durationTicks": 2,
          "midi": 41,
          "name": "F2",
          "ticks": 13113,
          "time": 152.47674418604652,
          "velocity": 0.2755905511811024
        },
        {
          "duration": 0.023255813953483084,
          "durationTicks": 2,
          "midi": 42,
          "name": "F#2",
          "ticks": 13115,
          "time": 152.5,
          "velocity": 0.28346456692913385
        },
        {
          "duration": 0.023255813953511506,
          "durationTicks": 2,
          "midi": 41,
          "name": "F2",
          "ticks": 13120,
          "time": 152.5581395348837,
          "velocity": 0.3543307086614173
        },
        {
          "duration": 0.09302325581393234,
          "durationTicks": 8,
          "midi": 42,
          "name": "F#2",
          "ticks": 13122,
          "time": 152.58139534883722,
          "velocity": 0.33070866141732286
        },
        {
          "duration": 0.034883720930224626,
          "durationTicks": 3,
          "midi": 61,
          "name": "C#4",
          "ticks": 13122,
          "time": 152.58139534883722,
          "velocity": 0.07874015748031496
        },
        {
          "duration": 0.023255813953483084,
          "durationTicks": 2,
          "midi": 51,
          "name": "D#3",
          "ticks": 13125,
          "time": 152.61627906976744,
          "velocity": 0.2992125984251969
        },
        {
          "duration": 0.1046511627907023,
          "durationTicks": 9,
          "midi": 67,
          "name": "G4",
          "ticks": 13128,
          "time": 152.65116279069767,
          "velocity": 0.1968503937007874
        },
        {
          "duration": 0.023255813953511506,
          "durationTicks": 2,
          "midi": 41,
          "name": "F2",
          "ticks": 13130,
          "time": 152.67441860465115,
          "velocity": 0.2677165354330709
        },
        {
          "duration": 0.023255813953483084,
          "durationTicks": 2,
          "midi": 40,
          "name": "E2",
          "ticks": 13132,
          "time": 152.69767441860466,
          "velocity": 0.3228346456692913
        },
        {
          "duration": 0.023255813953483084,
          "durationTicks": 2,
          "midi": 41,
          "name": "F2",
          "ticks": 13134,
          "time": 152.72093023255815,
          "velocity": 0.2677165354330709
        },
        {
          "duration": 0.034883720930224626,
          "durationTicks": 3,
          "midi": 41,
          "name": "F2",
          "ticks": 13137,
          "time": 152.75581395348837,
          "velocity": 0.3543307086614173
        },
        {
          "duration": 0.22093023255814614,
          "durationTicks": 19,
          "midi": 59,
          "name": "B3",
          "ticks": 13138,
          "time": 152.7674418604651,
          "velocity": 0.1889763779527559
        },
        {
          "duration": 0.32558139534884845,
          "durationTicks": 28,
          "midi": 64,
          "name": "E4",
          "ticks": 13139,
          "time": 152.77906976744185,
          "velocity": 0.1968503937007874
        },
        {
          "duration": 0.023255813953511506,
          "durationTicks": 2,
          "midi": 52,
          "name": "E3",
          "ticks": 13140,
          "time": 152.7906976744186,
          "velocity": 0.2283464566929134
        },
        {
          "duration": 0.12790697674418539,
          "durationTicks": 11,
          "midi": 40,
          "name": "E2",
          "ticks": 13142,
          "time": 152.8139534883721,
          "velocity": 0.33858267716535434
        },
        {
          "duration": 0.05813953488370771,
          "durationTicks": 5,
          "midi": 51,
          "name": "D#3",
          "ticks": 13142,
          "time": 152.8139534883721,
          "velocity": 0.25196850393700787
        },
        {
          "duration": 0.023255813953483084,
          "durationTicks": 2,
          "midi": 40,
          "name": "E2",
          "ticks": 13154,
          "time": 152.95348837209303,
          "velocity": 0.3543307086614173
        },
        {
          "duration": 0.023255813953483084,
          "durationTicks": 2,
          "midi": 53,
          "name": "F3",
          "ticks": 13157,
          "time": 152.98837209302326,
          "velocity": 0.29133858267716534
        },
        {
          "duration": 0.05813953488370771,
          "durationTicks": 5,
          "midi": 71,
          "name": "B4",
          "ticks": 13157,
          "time": 152.98837209302326,
          "velocity": 0.13385826771653545
        },
        {
          "duration": 0.1860465116278931,
          "durationTicks": 16,
          "midi": 59,
          "name": "B3",
          "ticks": 13158,
          "time": 153,
          "velocity": 0.15748031496062992
        },
        {
          "duration": 0.13953488372092693,
          "durationTicks": 12,
          "midi": 52,
          "name": "E3",
          "ticks": 13161,
          "time": 153.03488372093022,
          "velocity": 0.30708661417322836
        },
        {
          "duration": 0.13953488372092693,
          "durationTicks": 12,
          "midi": 40,
          "name": "E2",
          "ticks": 13162,
          "time": 153.04651162790697,
          "velocity": 0.36220472440944884
        },
        {
          "duration": 0.034883720930224626,
          "durationTicks": 3,
          "midi": 66,
          "name": "F#4",
          "ticks": 13166,
          "time": 153.09302325581396,
          "velocity": 0.07086614173228346
        },
        {
          "duration": 0.11627906976744384,
          "durationTicks": 10,
          "midi": 67,
          "name": "G4",
          "ticks": 13169,
          "time": 153.12790697674419,
          "velocity": 0.2283464566929134
        },
        {
          "duration": 0.1860465116278931,
          "durationTicks": 16,
          "midi": 74,
          "name": "D5",
          "ticks": 13178,
          "time": 153.2325581395349,
          "velocity": 0.11023622047244094
        },
        {
          "duration": 0.19767441860466306,
          "durationTicks": 17,
          "midi": 57,
          "name": "A3",
          "ticks": 13179,
          "time": 153.24418604651163,
          "velocity": 0.1732283464566929
        },
        {
          "duration": 0.05813953488370771,
          "durationTicks": 5,
          "midi": 88,
          "name": "E6",
          "ticks": 13179,
          "time": 153.24418604651163,
          "velocity": 0.11023622047244094
        },
        {
          "duration": 0.18604651162792152,
          "durationTicks": 16,
          "midi": 38,
          "name": "D2",
          "ticks": 13182,
          "time": 153.27906976744185,
          "velocity": 0.3228346456692913
        },
        {
          "duration": 0.13953488372092693,
          "durationTicks": 12,
          "midi": 62,
          "name": "D4",
          "ticks": 13182,
          "time": 153.27906976744185,
          "velocity": 0.13385826771653545
        },
        {
          "duration": 0.06976744186044925,
          "durationTicks": 6,
          "midi": 67,
          "name": "G4",
          "ticks": 13196,
          "time": 153.4418604651163,
          "velocity": 0.2125984251968504
        },
        {
          "duration": 0.034883720930224626,
          "durationTicks": 3,
          "midi": 59,
          "name": "B3",
          "ticks": 13197,
          "time": 153.45348837209303,
          "velocity": 0.1968503937007874
        },
        {
          "duration": 0.04651162790696617,
          "durationTicks": 4,
          "midi": 70,
          "name": "A#4",
          "ticks": 13197,
          "time": 153.45348837209303,
          "velocity": 0.2047244094488189
        },
        {
          "duration": 0.034883720930224626,
          "durationTicks": 3,
          "midi": 48,
          "name": "C3",
          "ticks": 13198,
          "time": 153.46511627906978,
          "velocity": 0.2204724409448819
        },
        {
          "duration": 0.17441860465115155,
          "durationTicks": 15,
          "midi": 36,
          "name": "C2",
          "ticks": 13199,
          "time": 153.47674418604652,
          "velocity": 0.31496062992125984
        },
        {
          "duration": 0.12790697674418539,
          "durationTicks": 11,
          "midi": 60,
          "name": "C4",
          "ticks": 13200,
          "time": 153.48837209302326,
          "velocity": 0.23622047244094488
        },
        {
          "duration": 0.034883720930224626,
          "durationTicks": 3,
          "midi": 55,
          "name": "G3",
          "ticks": 13201,
          "time": 153.5,
          "velocity": 0.13385826771653545
        },
        {
          "duration": 0.03488372093025305,
          "durationTicks": 3,
          "midi": 66,
          "name": "F#4",
          "ticks": 13206,
          "time": 153.5581395348837,
          "velocity": 0.07874015748031496
        },
        {
          "duration": 0.05813953488370771,
          "durationTicks": 5,
          "midi": 55,
          "name": "G3",
          "ticks": 13208,
          "time": 153.58139534883722,
          "velocity": 0.12598425196850394
        },
        {
          "duration": 0.11627906976744384,
          "durationTicks": 10,
          "midi": 67,
          "name": "G4",
          "ticks": 13210,
          "time": 153.6046511627907,
          "velocity": 0.1889763779527559
        },
        {
          "duration": 0.034883720930224626,
          "durationTicks": 3,
          "midi": 59,
          "name": "B3",
          "ticks": 13211,
          "time": 153.61627906976744,
          "velocity": 0.11023622047244094
        },
        {
          "duration": 0.09302325581396076,
          "durationTicks": 8,
          "midi": 59,
          "name": "B3",
          "ticks": 13217,
          "time": 153.6860465116279,
          "velocity": 0.1968503937007874
        },
        {
          "duration": 0.034883720930224626,
          "durationTicks": 3,
          "midi": 53,
          "name": "F3",
          "ticks": 13218,
          "time": 153.69767441860466,
          "velocity": 0.25984251968503935
        },
        {
          "duration": 0.023255813953483084,
          "durationTicks": 2,
          "midi": 33,
          "name": "A1",
          "ticks": 13220,
          "time": 153.72093023255815,
          "velocity": 0.2755905511811024
        },
        {
          "duration": 0.09302325581396076,
          "durationTicks": 8,
          "midi": 47,
          "name": "B2",
          "ticks": 13221,
          "time": 153.7325581395349,
          "velocity": 0.2677165354330709
        },
        {
          "duration": 0.034883720930224626,
          "durationTicks": 3,
          "midi": 64,
          "name": "E4",
          "ticks": 13221,
          "time": 153.7325581395349,
          "velocity": 0.07086614173228346
        },
        {
          "duration": 0.04651162790696617,
          "durationTicks": 4,
          "midi": 66,
          "name": "F#4",
          "ticks": 13222,
          "time": 153.74418604651163,
          "velocity": 0.15748031496062992
        },
        {
          "duration": 0.13953488372092693,
          "durationTicks": 12,
          "midi": 35,
          "name": "B1",
          "ticks": 13223,
          "time": 153.75581395348837,
          "velocity": 0.2440944881889764
        },
        {
          "duration": 0.034883720930224626,
          "durationTicks": 3,
          "midi": 52,
          "name": "E3",
          "ticks": 13231,
          "time": 153.84883720930233,
          "velocity": 0.28346456692913385
        },
        {
          "duration": 0.04651162790699459,
          "durationTicks": 4,
          "midi": 52,
          "name": "E3",
          "ticks": 13237,
          "time": 153.91860465116278,
          "velocity": 0.25984251968503935
        },
        {
          "duration": 0.023255813953483084,
          "durationTicks": 2,
          "midi": 44,
          "name": "G#2",
          "ticks": 13239,
          "time": 153.9418604651163,
          "velocity": 0.3858267716535433
        },
        {
          "duration": 0.09302325581393234,
          "durationTicks": 8,
          "midi": 69,
          "name": "A4",
          "ticks": 13241,
          "time": 153.96511627906978,
          "velocity": 0.15748031496062992
        },
        {
          "duration": 0.023255813953483084,
          "durationTicks": 2,
          "midi": 52,
          "name": "E3",
          "ticks": 13242,
          "time": 153.97674418604652,
          "velocity": 0.25196850393700787
        },
        {
          "duration": 0.05813953488370771,
          "durationTicks": 5,
          "midi": 45,
          "name": "A2",
          "ticks": 13243,
          "time": 153.98837209302326,
          "velocity": 0.33858267716535434
        },
        {
          "duration": 0.023255813953483084,
          "durationTicks": 2,
          "midi": 52,
          "name": "E3",
          "ticks": 13247,
          "time": 154.03488372093022,
          "velocity": 0.2440944881889764
        },
        {
          "duration": 0.03488372093025305,
          "durationTicks": 3,
          "midi": 44,
          "name": "G#2",
          "ticks": 13248,
          "time": 154.04651162790697,
          "velocity": 0.33858267716535434
        },
        {
          "duration": 0.03488372093025305,
          "durationTicks": 3,
          "midi": 67,
          "name": "G4",
          "ticks": 13248,
          "time": 154.04651162790697,
          "velocity": 0.13385826771653545
        },
        {
          "duration": 0.03488372093025305,
          "durationTicks": 3,
          "midi": 57,
          "name": "A3",
          "ticks": 13249,
          "time": 154.0581395348837,
          "velocity": 0.1889763779527559
        },
        {
          "duration": 0.05813953488370771,
          "durationTicks": 5,
          "midi": 67,
          "name": "G4",
          "ticks": 13252,
          "time": 154.09302325581396,
          "velocity": 0.1889763779527559
        },
        {
          "duration": 0.1046511627907023,
          "durationTicks": 9,
          "midi": 62,
          "name": "D4",
          "ticks": 13257,
          "time": 154.15116279069767,
          "velocity": 0.2125984251968504
        },
        {
          "duration": 0.04651162790699459,
          "durationTicks": 4,
          "midi": 50,
          "name": "D3",
          "ticks": 13260,
          "time": 154.1860465116279,
          "velocity": 0.23622047244094488
        },
        {
          "duration": 0.023255813953483084,
          "durationTicks": 2,
          "midi": 42,
          "name": "F#2",
          "ticks": 13261,
          "time": 154.19767441860466,
          "velocity": 0.2992125984251969
        },
        {
          "duration": 0.034883720930224626,
          "durationTicks": 3,
          "midi": 30,
          "name": "F#1",
          "ticks": 13263,
          "time": 154.22093023255815,
          "velocity": 0.2440944881889764
        },
        {
          "duration": 0.04651162790696617,
          "durationTicks": 4,
          "midi": 43,
          "name": "G2",
          "ticks": 13263,
          "time": 154.22093023255815,
          "velocity": 0.25984251968503935
        },
        {
          "duration": 0.04651162790696617,
          "durationTicks": 4,
          "midi": 50,
          "name": "D3",
          "ticks": 13265,
          "time": 154.24418604651163,
          "velocity": 0.2204724409448819
        },
        {
          "duration": 0.04651162790696617,
          "durationTicks": 4,
          "midi": 31,
          "name": "G1",
          "ticks": 13266,
          "time": 154.25581395348837,
          "velocity": 0.1968503937007874
        },
        {
          "duration": 0.03488372093025305,
          "durationTicks": 3,
          "midi": 43,
          "name": "G2",
          "ticks": 13268,
          "time": 154.27906976744185,
          "velocity": 0.25196850393700787
        },
        {
          "duration": 0.04651162790699459,
          "durationTicks": 4,
          "midi": 55,
          "name": "G3",
          "ticks": 13268,
          "time": 154.27906976744185,
          "velocity": 0.2677165354330709
        },
        {
          "duration": 0.023255813953483084,
          "durationTicks": 2,
          "midi": 42,
          "name": "F#2",
          "ticks": 13271,
          "time": 154.3139534883721,
          "velocity": 0.25984251968503935
        },
        {
          "duration": 0.04651162790696617,
          "durationTicks": 4,
          "midi": 53,
          "name": "F3",
          "ticks": 13276,
          "time": 154.37209302325581,
          "velocity": 0.2755905511811024
        },
        {
          "duration": 0.034883720930224626,
          "durationTicks": 3,
          "midi": 48,
          "name": "C3",
          "ticks": 13277,
          "time": 154.38372093023256,
          "velocity": 0.2677165354330709
        },
        {
          "duration": 0.034883720930224626,
          "durationTicks": 3,
          "midi": 61,
          "name": "C#4",
          "ticks": 13277,
          "time": 154.38372093023256,
          "velocity": 0.18110236220472442
        },
        {
          "duration": 0.04651162790696617,
          "durationTicks": 4,
          "midi": 70,
          "name": "A#4",
          "ticks": 13277,
          "time": 154.38372093023256,
          "velocity": 0.2204724409448819
        },
        {
          "duration": 0.06976744186047767,
          "durationTicks": 6,
          "midi": 54,
          "name": "F#3",
          "ticks": 13280,
          "time": 154.41860465116278,
          "velocity": 0.25984251968503935
        },
        {
          "duration": 0.023255813953483084,
          "durationTicks": 2,
          "midi": 42,
          "name": "F#2",
          "ticks": 13282,
          "time": 154.4418604651163,
          "velocity": 0.3228346456692913
        },
        {
          "duration": 0.04651162790696617,
          "durationTicks": 4,
          "midi": 42,
          "name": "F#2",
          "ticks": 13285,
          "time": 154.47674418604652,
          "velocity": 0.3228346456692913
        },
        {
          "duration": 0.06976744186047767,
          "durationTicks": 6,
          "midi": 61,
          "name": "C#4",
          "ticks": 13288,
          "time": 154.51162790697674,
          "velocity": 0.13385826771653545
        },
        {
          "duration": 0.06976744186047767,
          "durationTicks": 6,
          "midi": 40,
          "name": "E2",
          "ticks": 13290,
          "time": 154.53488372093022,
          "velocity": 0.33070866141732286
        },
        {
          "duration": 0.1046511627907023,
          "durationTicks": 9,
          "midi": 67,
          "name": "G4",
          "ticks": 13292,
          "time": 154.5581395348837,
          "velocity": 0.1889763779527559
        },
        {
          "duration": 0.023255813953483084,
          "durationTicks": 2,
          "midi": 47,
          "name": "B2",
          "ticks": 13298,
          "time": 154.62790697674419,
          "velocity": 0.29133858267716534
        },
        {
          "duration": 0.16279069767443843,
          "durationTicks": 14,
          "midi": 59,
          "name": "B3",
          "ticks": 13301,
          "time": 154.6627906976744,
          "velocity": 0.1889763779527559
        },
        {
          "duration": 0.18604651162792152,
          "durationTicks": 16,
          "midi": 64,
          "name": "E4",
          "ticks": 13302,
          "time": 154.67441860465115,
          "velocity": 0.15748031496062992
        },
        {
          "duration": 0.08139534883721922,
          "durationTicks": 7,
          "midi": 40,
          "name": "E2",
          "ticks": 13303,
          "time": 154.6860465116279,
          "velocity": 0.31496062992125984
        },
        {
          "duration": 0.023255813953483084,
          "durationTicks": 2,
          "midi": 40,
          "name": "E2",
          "ticks": 13311,
          "time": 154.77906976744185,
          "velocity": 0.31496062992125984
        },
        {
          "duration": 0.04651162790696617,
          "durationTicks": 4,
          "midi": 59,
          "name": "B3",
          "ticks": 13318,
          "time": 154.86046511627907,
          "velocity": 0.08661417322834646
        },
        {
          "duration": 0.1046511627907023,
          "durationTicks": 9,
          "midi": 71,
          "name": "B4",
          "ticks": 13318,
          "time": 154.86046511627907,
          "velocity": 0.25984251968503935
        },
        {
          "duration": 0.09302325581396076,
          "durationTicks": 8,
          "midi": 47,
          "name": "B2",
          "ticks": 13319,
          "time": 154.87209302325581,
          "velocity": 0.2755905511811024
        },
        {
          "duration": 0.1046511627907023,
          "durationTicks": 9,
          "midi": 64,
          "name": "E4",
          "ticks": 13319,
          "time": 154.87209302325581,
          "velocity": 0.31496062992125984
        },
        {
          "duration": 0.023255813953483084,
          "durationTicks": 2,
          "midi": 39,
          "name": "D#2",
          "ticks": 13322,
          "time": 154.90697674418604,
          "velocity": 0.2677165354330709
        },
        {
          "duration": 0.023255813953483084,
          "durationTicks": 2,
          "midi": 40,
          "name": "E2",
          "ticks": 13328,
          "time": 154.97674418604652,
          "velocity": 0.2755905511811024
        },
        {
          "duration": 0.023255813953483084,
          "durationTicks": 2,
          "midi": 45,
          "name": "A2",
          "ticks": 13330,
          "time": 155,
          "velocity": 0.30708661417322836
        },
        {
          "duration": 0.08139534883721922,
          "durationTicks": 7,
          "midi": 59,
          "name": "B3",
          "ticks": 13330,
          "time": 155,
          "velocity": 0.10236220472440945
        },
        {
          "duration": 0.08139534883721922,
          "durationTicks": 7,
          "midi": 71,
          "name": "B4",
          "ticks": 13330,
          "time": 155,
          "velocity": 0.18110236220472442
        },
        {
          "duration": 0.08139534883721922,
          "durationTicks": 7,
          "midi": 52,
          "name": "E3",
          "ticks": 13331,
          "time": 155.01162790697674,
          "velocity": 0.3228346456692913
        },
        {
          "duration": 0.06976744186047767,
          "durationTicks": 6,
          "midi": 67,
          "name": "G4",
          "ticks": 13331,
          "time": 155.01162790697674,
          "velocity": 0.1889763779527559
        },
        {
          "duration": 0.023255813953483084,
          "durationTicks": 2,
          "midi": 39,
          "name": "D#2",
          "ticks": 13332,
          "time": 155.02325581395348,
          "velocity": 0.2283464566929134
        },
        {
          "duration": 0.034883720930224626,
          "durationTicks": 3,
          "midi": 40,
          "name": "E2",
          "ticks": 13337,
          "time": 155.08139534883722,
          "velocity": 0.28346456692913385
        },
        {
          "duration": 0.11627906976744384,
          "durationTicks": 10,
          "midi": 74,
          "name": "D5",
          "ticks": 13337,
          "time": 155.08139534883722,
          "velocity": 0.14173228346456693
        },
        {
          "duration": 0.12790697674418539,
          "durationTicks": 11,
          "midi": 62,
          "name": "D4",
          "ticks": 13338,
          "time": 155.09302325581396,
          "velocity": 0.2125984251968504
        },
        {
          "duration": 0.09302325581393234,
          "durationTicks": 8,
          "midi": 69,
          "name": "A4",
          "ticks": 13338,
          "time": 155.09302325581396,
          "velocity": 0.1732283464566929
        },
        {
          "duration": 0.04651162790696617,
          "durationTicks": 4,
          "midi": 88,
          "name": "E6",
          "ticks": 13338,
          "time": 155.09302325581396,
          "velocity": 0.09448818897637795
        },
        {
          "duration": 0.05813953488370771,
          "durationTicks": 5,
          "midi": 50,
          "name": "D3",
          "ticks": 13339,
          "time": 155.1046511627907,
          "velocity": 0.3228346456692913
        },
        {
          "duration": 0.023255813953483084,
          "durationTicks": 2,
          "midi": 41,
          "name": "F2",
          "ticks": 13340,
          "time": 155.11627906976744,
          "velocity": 0.2677165354330709
        },
        {
          "duration": 0.023255813953483084,
          "durationTicks": 2,
          "midi": 41,
          "name": "F2",
          "ticks": 13344,
          "time": 155.1627906976744,
          "velocity": 0.28346456692913385
        },
        {
          "duration": 0.023255813953483084,
          "durationTicks": 2,
          "midi": 51,
          "name": "D#3",
          "ticks": 13344,
          "time": 155.1627906976744,
          "velocity": 0.28346456692913385
        },
        {
          "duration": 0.023255813953511506,
          "durationTicks": 2,
          "midi": 49,
          "name": "C#3",
          "ticks": 13346,
          "time": 155.1860465116279,
          "velocity": 0.2440944881889764
        },
        {
          "duration": 0.05813953488370771,
          "durationTicks": 5,
          "midi": 40,
          "name": "E2",
          "ticks": 13348,
          "time": 155.2093023255814,
          "velocity": 0.25984251968503935
        },
        {
          "duration": 0.034883720930224626,
          "durationTicks": 3,
          "midi": 51,
          "name": "D#3",
          "ticks": 13348,
          "time": 155.2093023255814,
          "velocity": 0.28346456692913385
        },
        {
          "duration": 0.11627906976744384,
          "durationTicks": 10,
          "midi": 69,
          "name": "A4",
          "ticks": 13349,
          "time": 155.22093023255815,
          "velocity": 0.23622047244094488
        },
        {
          "duration": 0.04651162790696617,
          "durationTicks": 4,
          "midi": 62,
          "name": "D4",
          "ticks": 13350,
          "time": 155.2325581395349,
          "velocity": 0.15748031496062992
        },
        {
          "duration": 0.04651162790696617,
          "durationTicks": 4,
          "midi": 88,
          "name": "E6",
          "ticks": 13350,
          "time": 155.2325581395349,
          "velocity": 0.08661417322834646
        },
        {
          "duration": 0.04651162790699459,
          "durationTicks": 4,
          "midi": 40,
          "name": "E2",
          "ticks": 13354,
          "time": 155.27906976744185,
          "velocity": 0.31496062992125984
        },
        {
          "duration": 0.023255813953483084,
          "durationTicks": 2,
          "midi": 51,
          "name": "D#3",
          "ticks": 13354,
          "time": 155.27906976744185,
          "velocity": 0.2440944881889764
        },
        {
          "duration": 0.04651162790699459,
          "durationTicks": 4,
          "midi": 62,
          "name": "D4",
          "ticks": 13355,
          "time": 155.2906976744186,
          "velocity": 0.2440944881889764
        },
        {
          "duration": 0.023255813953483084,
          "durationTicks": 2,
          "midi": 47,
          "name": "B2",
          "ticks": 13357,
          "time": 155.3139534883721,
          "velocity": 0.25196850393700787
        },
        {
          "duration": 0.1860465116278931,
          "durationTicks": 16,
          "midi": 67,
          "name": "G4",
          "ticks": 13358,
          "time": 155.32558139534885,
          "velocity": 0.2125984251968504
        },
        {
          "duration": 0.023255813953483084,
          "durationTicks": 2,
          "midi": 61,
          "name": "C#4",
          "ticks": 13359,
          "time": 155.3372093023256,
          "velocity": 0.2283464566929134
        },
        {
          "duration": 0.08139534883721922,
          "durationTicks": 7,
          "midi": 60,
          "name": "C4",
          "ticks": 13361,
          "time": 155.36046511627907,
          "velocity": 0.2440944881889764
        },
        {
          "duration": 0.1046511627907023,
          "durationTicks": 9,
          "midi": 48,
          "name": "C3",
          "ticks": 13365,
          "time": 155.40697674418604,
          "velocity": 0.2755905511811024
        },
        {
          "duration": 0.034883720930224626,
          "durationTicks": 3,
          "midi": 72,
          "name": "C5",
          "ticks": 13368,
          "time": 155.4418604651163,
          "velocity": 0.09448818897637795
        },
        {
          "duration": 0.13953488372095535,
          "durationTicks": 12,
          "midi": 59,
          "name": "B3",
          "ticks": 13378,
          "time": 155.5581395348837,
          "velocity": 0.25196850393700787
        },
        {
          "duration": 0.023255813953483084,
          "durationTicks": 2,
          "midi": 46,
          "name": "A#2",
          "ticks": 13379,
          "time": 155.56976744186048,
          "velocity": 0.33858267716535434
        },
        {
          "duration": 0.023255813953483084,
          "durationTicks": 2,
          "midi": 47,
          "name": "B2",
          "ticks": 13381,
          "time": 155.59302325581396,
          "velocity": 0.2755905511811024
        },
        {
          "duration": 0.05813953488370771,
          "durationTicks": 5,
          "midi": 66,
          "name": "F#4",
          "ticks": 13382,
          "time": 155.6046511627907,
          "velocity": 0.1968503937007874
        },
        {
          "duration": 0.13953488372092693,
          "durationTicks": 12,
          "midi": 47,
          "name": "B2",
          "ticks": 13384,
          "time": 155.62790697674419,
          "velocity": 0.28346456692913385
        },
        {
          "duration": 0.06976744186044925,
          "durationTicks": 6,
          "midi": 66,
          "name": "F#4",
          "ticks": 13390,
          "time": 155.69767441860466,
          "velocity": 0.16535433070866143
        },
        {
          "duration": 0.023255813953483084,
          "durationTicks": 2,
          "midi": 56,
          "name": "G#3",
          "ticks": 13397,
          "time": 155.77906976744185,
          "velocity": 0.25984251968503935
        },
        {
          "duration": 0.2325581395348877,
          "durationTicks": 20,
          "midi": 69,
          "name": "A4",
          "ticks": 13397,
          "time": 155.77906976744185,
          "velocity": 0.1732283464566929
        },
        {
          "duration": 0.13953488372092693,
          "durationTicks": 12,
          "midi": 64,
          "name": "E4",
          "ticks": 13398,
          "time": 155.7906976744186,
          "velocity": 0.2204724409448819
        },
        {
          "duration": 0.06976744186047767,
          "durationTicks": 6,
          "midi": 57,
          "name": "A3",
          "ticks": 13399,
          "time": 155.80232558139534,
          "velocity": 0.23622047244094488
        },
        {
          "duration": 0.05813953488370771,
          "durationTicks": 5,
          "midi": 45,
          "name": "A2",
          "ticks": 13400,
          "time": 155.8139534883721,
          "velocity": 0.36220472440944884
        },
        {
          "duration": 0.023255813953483084,
          "durationTicks": 2,
          "midi": 44,
          "name": "G#2",
          "ticks": 13405,
          "time": 155.87209302325581,
          "velocity": 0.3464566929133858
        },
        {
          "duration": 0.04651162790699459,
          "durationTicks": 4,
          "midi": 45,
          "name": "A2",
          "ticks": 13407,
          "time": 155.8953488372093,
          "velocity": 0.33858267716535434
        },
        {
          "duration": 0.06976744186044925,
          "durationTicks": 6,
          "midi": 64,
          "name": "E4",
          "ticks": 13411,
          "time": 155.9418604651163,
          "velocity": 0.15748031496062992
        },
        {
          "duration": 0.034883720930224626,
          "durationTicks": 3,
          "midi": 45,
          "name": "A2",
          "ticks": 13412,
          "time": 155.95348837209303,
          "velocity": 0.33858267716535434
        },
        {
          "duration": 0.034883720930224626,
          "durationTicks": 3,
          "midi": 66,
          "name": "F#4",
          "ticks": 13413,
          "time": 155.96511627906978,
          "velocity": 0.08661417322834646
        },
        {
          "duration": 0.023255813953483084,
          "durationTicks": 2,
          "midi": 44,
          "name": "G#2",
          "ticks": 13415,
          "time": 155.98837209302326,
          "velocity": 0.31496062992125984
        },
        {
          "duration": 0.12790697674418539,
          "durationTicks": 11,
          "midi": 55,
          "name": "G3",
          "ticks": 13417,
          "time": 156.01162790697674,
          "velocity": 0.29133858267716534
        },
        {
          "duration": 0.023255813953483084,
          "durationTicks": 2,
          "midi": 43,
          "name": "G2",
          "ticks": 13422,
          "time": 156.06976744186048,
          "velocity": 0.31496062992125984
        },
        {
          "duration": 0.1046511627907023,
          "durationTicks": 9,
          "midi": 62,
          "name": "D4",
          "ticks": 13425,
          "time": 156.1046511627907,
          "velocity": 0.1889763779527559
        },
        {
          "duration": 0.023255813953483084,
          "durationTicks": 2,
          "midi": 54,
          "name": "F#3",
          "ticks": 13428,
          "time": 156.13953488372093,
          "velocity": 0.25196850393700787
        },
        {
          "duration": 0.03488372093025305,
          "durationTicks": 3,
          "midi": 55,
          "name": "G3",
          "ticks": 13430,
          "time": 156.1627906976744,
          "velocity": 0.2440944881889764
        },
        {
          "duration": 0.22093023255811772,
          "durationTicks": 19,
          "midi": 61,
          "name": "C#4",
          "ticks": 13434,
          "time": 156.2093023255814,
          "velocity": 0.2125984251968504
        },
        {
          "duration": 0.023255813953483084,
          "durationTicks": 2,
          "midi": 53,
          "name": "F3",
          "ticks": 13437,
          "time": 156.24418604651163,
          "velocity": 0.25196850393700787
        },
        {
          "duration": 0.08139534883721922,
          "durationTicks": 7,
          "midi": 70,
          "name": "A#4",
          "ticks": 13437,
          "time": 156.24418604651163,
          "velocity": 0.2204724409448819
        },
        {
          "duration": 0.034883720930224626,
          "durationTicks": 3,
          "midi": 41,
          "name": "F2",
          "ticks": 13439,
          "time": 156.2674418604651,
          "velocity": 0.33070866141732286
        },
        {
          "duration": 0.1046511627907023,
          "durationTicks": 9,
          "midi": 67,
          "name": "G4",
          "ticks": 13439,
          "time": 156.2674418604651,
          "velocity": 0.2047244094488189
        },
        {
          "duration": 0.03488372093025305,
          "durationTicks": 3,
          "midi": 54,
          "name": "F#3",
          "ticks": 13441,
          "time": 156.2906976744186,
          "velocity": 0.2047244094488189
        },
        {
          "duration": 0.05813953488373613,
          "durationTicks": 5,
          "midi": 42,
          "name": "F#2",
          "ticks": 13442,
          "time": 156.30232558139534,
          "velocity": 0.3228346456692913
        },
        {
          "duration": 0.04651162790696617,
          "durationTicks": 4,
          "midi": 42,
          "name": "F#2",
          "ticks": 13448,
          "time": 156.37209302325581,
          "velocity": 0.31496062992125984
        },
        {
          "duration": 0.034883720930224626,
          "durationTicks": 3,
          "midi": 66,
          "name": "F#4",
          "ticks": 13448,
          "time": 156.37209302325581,
          "velocity": 0.09448818897637795
        },
        {
          "duration": 0.04651162790699459,
          "durationTicks": 4,
          "midi": 41,
          "name": "F2",
          "ticks": 13452,
          "time": 156.41860465116278,
          "velocity": 0.2992125984251969
        },
        {
          "duration": 0.1860465116278931,
          "durationTicks": 16,
          "midi": 52,
          "name": "E3",
          "ticks": 13459,
          "time": 156.5,
          "velocity": 0.29133858267716534
        },
        {
          "duration": 0.04651162790696617,
          "durationTicks": 4,
          "midi": 59,
          "name": "B3",
          "ticks": 13460,
          "time": 156.51162790697674,
          "velocity": 0.10236220472440945
        },
        {
          "duration": 0.023255813953511506,
          "durationTicks": 2,
          "midi": 41,
          "name": "F2",
          "ticks": 13464,
          "time": 156.5581395348837,
          "velocity": 0.33070866141732286
        },
        {
          "duration": 0.1046511627907023,
          "durationTicks": 9,
          "midi": 67,
          "name": "G4",
          "ticks": 13464,
          "time": 156.5581395348837,
          "velocity": 0.2440944881889764
        },
        {
          "duration": 0.20930232558137618,
          "durationTicks": 18,
          "midi": 40,
          "name": "E2",
          "ticks": 13467,
          "time": 156.59302325581396,
          "velocity": 0.33070866141732286
        },
        {
          "duration": 0.19767441860466306,
          "durationTicks": 17,
          "midi": 83,
          "name": "B5",
          "ticks": 13471,
          "time": 156.63953488372093,
          "velocity": 0.10236220472440945
        },
        {
          "duration": 0.19767441860466306,
          "durationTicks": 17,
          "midi": 90,
          "name": "F#6",
          "ticks": 13472,
          "time": 156.65116279069767,
          "velocity": 0.16535433070866143
        },
        {
          "duration": 0.06976744186047767,
          "durationTicks": 6,
          "midi": 71,
          "name": "B4",
          "ticks": 13473,
          "time": 156.6627906976744,
          "velocity": 0.10236220472440945
        },
        {
          "duration": 0.03488372093025305,
          "durationTicks": 3,
          "midi": 67,
          "name": "G4",
          "ticks": 13474,
          "time": 156.67441860465115,
          "velocity": 0.14960629921259844
        },
        {
          "duration": 0.3604651162790731,
          "durationTicks": 31,
          "midi": 67,
          "name": "G4",
          "ticks": 13481,
          "time": 156.75581395348837,
          "velocity": 0.2283464566929134
        },
        {
          "duration": 0.15116279069766847,
          "durationTicks": 13,
          "midi": 40,
          "name": "E2",
          "ticks": 13486,
          "time": 156.8139534883721,
          "velocity": 0.31496062992125984
        },
        {
          "duration": 0.13953488372092693,
          "durationTicks": 12,
          "midi": 71,
          "name": "B4",
          "ticks": 13492,
          "time": 156.88372093023256,
          "velocity": 0.14173228346456693
        },
        {
          "duration": 0.1046511627907023,
          "durationTicks": 9,
          "midi": 90,
          "name": "F#6",
          "ticks": 13493,
          "time": 156.8953488372093,
          "velocity": 0.11023622047244094
        },
        {
          "duration": 0.05813953488373613,
          "durationTicks": 5,
          "midi": 95,
          "name": "B6",
          "ticks": 13494,
          "time": 156.90697674418604,
          "velocity": 0.08661417322834646
        },
        {
          "duration": 0.023255813953483084,
          "durationTicks": 2,
          "midi": 36,
          "name": "C2",
          "ticks": 13501,
          "time": 156.98837209302326,
          "velocity": 0.25196850393700787
        },
        {
          "duration": 0.19767441860466306,
          "durationTicks": 17,
          "midi": 35,
          "name": "B1",
          "ticks": 13503,
          "time": 157.01162790697674,
          "velocity": 0.25196850393700787
        },
        {
          "duration": 0.09302325581396076,
          "durationTicks": 8,
          "midi": 86,
          "name": "D6",
          "ticks": 13504,
          "time": 157.02325581395348,
          "velocity": 0.09448818897637795
        },
        {
          "duration": 0.06976744186047767,
          "durationTicks": 6,
          "midi": 54,
          "name": "F#3",
          "ticks": 13505,
          "time": 157.03488372093022,
          "velocity": 0.11023622047244094
        },
        {
          "duration": 0.22093023255814614,
          "durationTicks": 19,
          "midi": 83,
          "name": "B5",
          "ticks": 13510,
          "time": 157.09302325581396,
          "velocity": 0.09448818897637795
        },
        {
          "duration": 0.11627906976744384,
          "durationTicks": 10,
          "midi": 90,
          "name": "F#6",
          "ticks": 13511,
          "time": 157.1046511627907,
          "velocity": 0.14960629921259844
        },
        {
          "duration": 0.0813953488371908,
          "durationTicks": 7,
          "midi": 95,
          "name": "B6",
          "ticks": 13511,
          "time": 157.1046511627907,
          "velocity": 0.09448818897637795
        },
        {
          "duration": 0.09302325581396076,
          "durationTicks": 8,
          "midi": 71,
          "name": "B4",
          "ticks": 13512,
          "time": 157.11627906976744,
          "velocity": 0.15748031496062992
        },
        {
          "duration": 0.04651162790699459,
          "durationTicks": 4,
          "midi": 46,
          "name": "A#2",
          "ticks": 13516,
          "time": 157.1627906976744,
          "velocity": 0.16535433070866143
        },
        {
          "duration": 0.03488372093025305,
          "durationTicks": 3,
          "midi": 52,
          "name": "E3",
          "ticks": 13518,
          "time": 157.1860465116279,
          "velocity": 0.12598425196850394
        },
        {
          "duration": 0.09302325581393234,
          "durationTicks": 8,
          "midi": 67,
          "name": "G4",
          "ticks": 13520,
          "time": 157.2093023255814,
          "velocity": 0.1732283464566929
        },
        {
          "duration": 0.09302325581396076,
          "durationTicks": 8,
          "midi": 57,
          "name": "A3",
          "ticks": 13521,
          "time": 157.22093023255815,
          "velocity": 0.08661417322834646
        },
        {
          "duration": 0.023255813953483084,
          "durationTicks": 2,
          "midi": 50,
          "name": "D3",
          "ticks": 13522,
          "time": 157.2325581395349,
          "velocity": 0.25196850393700787
        },
        {
          "duration": 0.11627906976744384,
          "durationTicks": 10,
          "midi": 38,
          "name": "D2",
          "ticks": 13525,
          "time": 157.2674418604651,
          "velocity": 0.28346456692913385
        },
        {
          "duration": 0.0813953488371908,
          "durationTicks": 7,
          "midi": 71,
          "name": "B4",
          "ticks": 13531,
          "time": 157.3372093023256,
          "velocity": 0.13385826771653545
        },
        {
          "duration": 0.2093023255814046,
          "durationTicks": 18,
          "midi": 78,
          "name": "F#5",
          "ticks": 13539,
          "time": 157.43023255813952,
          "velocity": 0.1889763779527559
        },
        {
          "duration": 0.25581395348837077,
          "durationTicks": 22,
          "midi": 52,
          "name": "E3",
          "ticks": 13540,
          "time": 157.4418604651163,
          "velocity": 0.29133858267716534
        },
        {
          "duration": 0.2906976744185954,
          "durationTicks": 25,
          "midi": 59,
          "name": "B3",
          "ticks": 13542,
          "time": 157.46511627906978,
          "velocity": 0.14960629921259844
        },
        {
          "duration": 0.22093023255814614,
          "durationTicks": 19,
          "midi": 40,
          "name": "E2",
          "ticks": 13544,
          "time": 157.48837209302326,
          "velocity": 0.3700787401574803
        },
        {
          "duration": 0.1046511627907023,
          "durationTicks": 9,
          "midi": 78,
          "name": "F#5",
          "ticks": 13560,
          "time": 157.67441860465115,
          "velocity": 0.13385826771653545
        },
        {
          "duration": 0.034883720930224626,
          "durationTicks": 3,
          "midi": 52,
          "name": "E3",
          "ticks": 13563,
          "time": 157.7093023255814,
          "velocity": 0.1732283464566929
        },
        {
          "duration": 0.034883720930224626,
          "durationTicks": 3,
          "midi": 40,
          "name": "E2",
          "ticks": 13564,
          "time": 157.72093023255815,
          "velocity": 0.3464566929133858
        },
        {
          "duration": 0.04651162790696617,
          "durationTicks": 4,
          "midi": 66,
          "name": "F#4",
          "ticks": 13564,
          "time": 157.72093023255815,
          "velocity": 0.09448818897637795
        },
        {
          "duration": 0.1046511627907023,
          "durationTicks": 9,
          "midi": 67,
          "name": "G4",
          "ticks": 13568,
          "time": 157.7674418604651,
          "velocity": 0.2125984251968504
        },
        {
          "duration": 0.023255813953483084,
          "durationTicks": 2,
          "midi": 40,
          "name": "E2",
          "ticks": 13572,
          "time": 157.8139534883721,
          "velocity": 0.30708661417322836
        },
        {
          "duration": 0.023255813953483084,
          "durationTicks": 2,
          "midi": 45,
          "name": "A2",
          "ticks": 13578,
          "time": 157.88372093023256,
          "velocity": 0.3779527559055118
        },
        {
          "duration": 0.15116279069766847,
          "durationTicks": 13,
          "midi": 78,
          "name": "F#5",
          "ticks": 13579,
          "time": 157.8953488372093,
          "velocity": 0.14173228346456693
        },
        {
          "duration": 0.12790697674418539,
          "durationTicks": 11,
          "midi": 35,
          "name": "B1",
          "ticks": 13583,
          "time": 157.9418604651163,
          "velocity": 0.2755905511811024
        },
        {
          "duration": 0.09302325581393234,
          "durationTicks": 8,
          "midi": 66,
          "name": "F#4",
          "ticks": 13583,
          "time": 157.9418604651163,
          "velocity": 0.07086614173228346
        },
        {
          "duration": 0.03488372093025305,
          "durationTicks": 3,
          "midi": 55,
          "name": "G3",
          "ticks": 13591,
          "time": 158.03488372093022,
          "velocity": 0.14960629921259844
        },
        {
          "duration": 0.04651162790696617,
          "durationTicks": 4,
          "midi": 35,
          "name": "B1",
          "ticks": 13595,
          "time": 158.08139534883722,
          "velocity": 0.25196850393700787
        },
        {
          "duration": 0.04651162790696617,
          "durationTicks": 4,
          "midi": 59,
          "name": "B3",
          "ticks": 13595,
          "time": 158.08139534883722,
          "velocity": 0.11023622047244094
        },
        {
          "duration": 0.16279069767441,
          "durationTicks": 14,
          "midi": 78,
          "name": "F#5",
          "ticks": 13598,
          "time": 158.11627906976744,
          "velocity": 0.15748031496062992
        },
        {
          "duration": 0.034883720930224626,
          "durationTicks": 3,
          "midi": 67,
          "name": "G4",
          "ticks": 13601,
          "time": 158.15116279069767,
          "velocity": 0.13385826771653545
        },
        {
          "duration": 0.04651162790699459,
          "durationTicks": 4,
          "midi": 51,
          "name": "D#3",
          "ticks": 13603,
          "time": 158.17441860465115,
          "velocity": 0.2677165354330709
        },
        {
          "duration": 0.04651162790699459,
          "durationTicks": 4,
          "midi": 38,
          "name": "D2",
          "ticks": 13604,
          "time": 158.1860465116279,
          "velocity": 0.2992125984251969
        },
        {
          "duration": 0.11627906976744384,
          "durationTicks": 10,
          "midi": 67,
          "name": "G4",
          "ticks": 13607,
          "time": 158.22093023255815,
          "velocity": 0.2755905511811024
        },
        {
          "duration": 0.08139534883721922,
          "durationTicks": 7,
          "midi": 38,
          "name": "D2",
          "ticks": 13609,
          "time": 158.24418604651163,
          "velocity": 0.2755905511811024
        },
        {
          "duration": 0.1860465116278931,
          "durationTicks": 16,
          "midi": 76,
          "name": "E5",
          "ticks": 13619,
          "time": 158.36046511627907,
          "velocity": 0.1732283464566929
        },
        {
          "duration": 0.2906976744185954,
          "durationTicks": 25,
          "midi": 52,
          "name": "E3",
          "ticks": 13620,
          "time": 158.37209302325581,
          "velocity": 0.30708661417322836
        },
        {
          "duration": 0.023255813953483084,
          "durationTicks": 2,
          "midi": 40,
          "name": "E2",
          "ticks": 13622,
          "time": 158.3953488372093,
          "velocity": 0.3228346456692913
        },
        {
          "duration": 0.08139534883721922,
          "durationTicks": 7,
          "midi": 40,
          "name": "E2",
          "ticks": 13625,
          "time": 158.43023255813952,
          "velocity": 0.31496062992125984
        },
        {
          "duration": 0.15116279069766847,
          "durationTicks": 13,
          "midi": 59,
          "name": "B3",
          "ticks": 13628,
          "time": 158.46511627906978,
          "velocity": 0.09448818897637795
        },
        {
          "duration": 0.08139534883721922,
          "durationTicks": 7,
          "midi": 95,
          "name": "B6",
          "ticks": 13631,
          "time": 158.5,
          "velocity": 0.07086614173228346
        },
        {
          "duration": 0.16279069767441,
          "durationTicks": 14,
          "midi": 40,
          "name": "E2",
          "ticks": 13633,
          "time": 158.52325581395348,
          "velocity": 0.3228346456692913
        },
        {
          "duration": 0.03488372093025305,
          "durationTicks": 3,
          "midi": 79,
          "name": "G5",
          "ticks": 13636,
          "time": 158.5581395348837,
          "velocity": 0.07874015748031496
        },
        {
          "duration": 0.11627906976744384,
          "durationTicks": 10,
          "midi": 76,
          "name": "E5",
          "ticks": 13639,
          "time": 158.59302325581396,
          "velocity": 0.14960629921259844
        },
        {
          "duration": 0.08139534883721922,
          "durationTicks": 7,
          "midi": 67,
          "name": "G4",
          "ticks": 13641,
          "time": 158.61627906976744,
          "velocity": 0.2047244094488189
        },
        {
          "duration": 0.19767441860463464,
          "durationTicks": 17,
          "midi": 79,
          "name": "G5",
          "ticks": 13649,
          "time": 158.7093023255814,
          "velocity": 0.12598425196850394
        },
        {
          "duration": 0.12790697674418539,
          "durationTicks": 11,
          "midi": 67,
          "name": "G4",
          "ticks": 13652,
          "time": 158.74418604651163,
          "velocity": 0.1889763779527559
        },
        {
          "duration": 0.023255813953483084,
          "durationTicks": 2,
          "midi": 40,
          "name": "E2",
          "ticks": 13653,
          "time": 158.75581395348837,
          "velocity": 0.2992125984251969
        },
        {
          "duration": 0.20930232558137618,
          "durationTicks": 18,
          "midi": 76,
          "name": "E5",
          "ticks": 13658,
          "time": 158.8139534883721,
          "velocity": 0.15748031496062992
        },
        {
          "duration": 0.06976744186044925,
          "durationTicks": 6,
          "midi": 95,
          "name": "B6",
          "ticks": 13659,
          "time": 158.82558139534885,
          "velocity": 0.07874015748031496
        },
        {
          "duration": 0.023255813953483084,
          "durationTicks": 2,
          "midi": 45,
          "name": "A2",
          "ticks": 13660,
          "time": 158.8372093023256,
          "velocity": 0.41732283464566927
        },
        {
          "duration": 0.17441860465115155,
          "durationTicks": 15,
          "midi": 35,
          "name": "B1",
          "ticks": 13664,
          "time": 158.88372093023256,
          "velocity": 0.28346456692913385
        },
        {
          "duration": 0.09302325581396076,
          "durationTicks": 8,
          "midi": 64,
          "name": "E4",
          "ticks": 13668,
          "time": 158.93023255813952,
          "velocity": 0.08661417322834646
        },
        {
          "duration": 0.33720930232559,
          "durationTicks": 29,
          "midi": 79,
          "name": "G5",
          "ticks": 13668,
          "time": 158.93023255813952,
          "velocity": 0.12598425196850394
        },
        {
          "duration": 0.034883720930224626,
          "durationTicks": 3,
          "midi": 67,
          "name": "G4",
          "ticks": 13676,
          "time": 159.02325581395348,
          "velocity": 0.14173228346456693
        },
        {
          "duration": 0.1046511627907023,
          "durationTicks": 9,
          "midi": 64,
          "name": "E4",
          "ticks": 13677,
          "time": 159.03488372093022,
          "velocity": 0.12598425196850394
        },
        {
          "duration": 0.03488372093025305,
          "durationTicks": 3,
          "midi": 70,
          "name": "A#4",
          "ticks": 13677,
          "time": 159.03488372093022,
          "velocity": 0.2047244094488189
        },
        {
          "duration": 0.19767441860466306,
          "durationTicks": 17,
          "midi": 76,
          "name": "E5",
          "ticks": 13678,
          "time": 159.04651162790697,
          "velocity": 0.1732283464566929
        },
        {
          "duration": 0.03488372093025305,
          "durationTicks": 3,
          "midi": 51,
          "name": "D#3",
          "ticks": 13679,
          "time": 159.0581395348837,
          "velocity": 0.2283464566929134
        },
        {
          "duration": 0.023255813953483084,
          "durationTicks": 2,
          "midi": 37,
          "name": "C#2",
          "ticks": 13681,
          "time": 159.08139534883722,
          "velocity": 0.2755905511811024
        },
        {
          "duration": 0.1046511627907023,
          "durationTicks": 9,
          "midi": 50,
          "name": "D3",
          "ticks": 13682,
          "time": 159.09302325581396,
          "velocity": 0.25984251968503935
        },
        {
          "duration": 0.11627906976744384,
          "durationTicks": 10,
          "midi": 38,
          "name": "D2",
          "ticks": 13685,
          "time": 159.12790697674419,
          "velocity": 0.29133858267716534
        },
        {
          "duration": 0.12790697674418539,
          "durationTicks": 11,
          "midi": 67,
          "name": "G4",
          "ticks": 13688,
          "time": 159.1627906976744,
          "velocity": 0.1968503937007874
        },
        {
          "duration": 0.034883720930224626,
          "durationTicks": 3,
          "midi": 52,
          "name": "E3",
          "ticks": 13695,
          "time": 159.24418604651163,
          "velocity": 0.15748031496062992
        },
        {
          "duration": 0.034883720930224626,
          "durationTicks": 3,
          "midi": 40,
          "name": "E2",
          "ticks": 13696,
          "time": 159.25581395348837,
          "velocity": 0.25196850393700787
        },
        {
          "duration": 0.04651162790699459,
          "durationTicks": 4,
          "midi": 78,
          "name": "F#5",
          "ticks": 13697,
          "time": 159.2674418604651,
          "velocity": 0.10236220472440945
        },
        {
          "duration": 0.2093023255814046,
          "durationTicks": 18,
          "midi": 74,
          "name": "D5",
          "ticks": 13698,
          "time": 159.27906976744185,
          "velocity": 0.18110236220472442
        },
        {
          "duration": 0.023255813953511506,
          "durationTicks": 2,
          "midi": 42,
          "name": "F#2",
          "ticks": 13699,
          "time": 159.2906976744186,
          "velocity": 0.3228346456692913
        },
        {
          "duration": 0.32558139534882,
          "durationTicks": 28,
          "midi": 52,
          "name": "E3",
          "ticks": 13701,
          "time": 159.3139534883721,
          "velocity": 0.29133858267716534
        },
        {
          "duration": 0.023255813953483084,
          "durationTicks": 2,
          "midi": 39,
          "name": "D#2",
          "ticks": 13703,
          "time": 159.3372093023256,
          "velocity": 0.33070866141732286
        },
        {
          "duration": 0.2906976744185954,
          "durationTicks": 25,
          "midi": 40,
          "name": "E2",
          "ticks": 13705,
          "time": 159.36046511627907,
          "velocity": 0.3543307086614173
        },
        {
          "duration": 0.05813953488373613,
          "durationTicks": 5,
          "midi": 90,
          "name": "F#6",
          "ticks": 13710,
          "time": 159.41860465116278,
          "velocity": 0.11811023622047244
        },
        {
          "duration": 0.12790697674418539,
          "durationTicks": 11,
          "midi": 74,
          "name": "D5",
          "ticks": 13719,
          "time": 159.52325581395348,
          "velocity": 0.13385826771653545
        },
        {
          "duration": 0.12790697674418539,
          "durationTicks": 11,
          "midi": 78,
          "name": "F#5",
          "ticks": 13728,
          "time": 159.62790697674419,
          "velocity": 0.13385826771653545
        },
        {
          "duration": 0.1046511627907023,
          "durationTicks": 9,
          "midi": 90,
          "name": "F#6",
          "ticks": 13730,
          "time": 159.65116279069767,
          "velocity": 0.14173228346456693
        },
        {
          "duration": 0.1046511627907023,
          "durationTicks": 9,
          "midi": 85,
          "name": "C#6",
          "ticks": 13731,
          "time": 159.6627906976744,
          "velocity": 0.10236220472440945
        },
        {
          "duration": 0.03488372093025305,
          "durationTicks": 3,
          "midi": 62,
          "name": "D4",
          "ticks": 13732,
          "time": 159.67441860465115,
          "velocity": 0.07874015748031496
        },
        {
          "duration": 0.023255813953483084,
          "durationTicks": 2,
          "midi": 40,
          "name": "E2",
          "ticks": 13735,
          "time": 159.7093023255814,
          "velocity": 0.23622047244094488
        },
        {
          "duration": 0.13953488372092693,
          "durationTicks": 12,
          "midi": 47,
          "name": "B2",
          "ticks": 13742,
          "time": 159.7906976744186,
          "velocity": 0.2755905511811024
        },
        {
          "duration": 0.09302325581396076,
          "durationTicks": 8,
          "midi": 54,
          "name": "F#3",
          "ticks": 13742,
          "time": 159.7906976744186,
          "velocity": 0.16535433070866143
        },
        {
          "duration": 0.13953488372095535,
          "durationTicks": 12,
          "midi": 74,
          "name": "D5",
          "ticks": 13743,
          "time": 159.80232558139534,
          "velocity": 0.13385826771653545
        },
        {
          "duration": 0.034883720930224626,
          "durationTicks": 3,
          "midi": 35,
          "name": "B1",
          "ticks": 13745,
          "time": 159.82558139534885,
          "velocity": 0.1968503937007874
        },
        {
          "duration": 0.04651162790696617,
          "durationTicks": 4,
          "midi": 62,
          "name": "D4",
          "ticks": 13746,
          "time": 159.8372093023256,
          "velocity": 0.10236220472440945
        },
        {
          "duration": 0.1046511627907023,
          "durationTicks": 9,
          "midi": 78,
          "name": "F#5",
          "ticks": 13750,
          "time": 159.88372093023256,
          "velocity": 0.08661417322834646
        },
        {
          "duration": 0.08139534883721922,
          "durationTicks": 7,
          "midi": 90,
          "name": "F#6",
          "ticks": 13751,
          "time": 159.8953488372093,
          "velocity": 0.16535433070866143
        },
        {
          "duration": 0.023255813953511506,
          "durationTicks": 2,
          "midi": 36,
          "name": "C2",
          "ticks": 13754,
          "time": 159.93023255813952,
          "velocity": 0.25196850393700787
        },
        {
          "duration": 0.023255813953483084,
          "durationTicks": 2,
          "midi": 35,
          "name": "B1",
          "ticks": 13756,
          "time": 159.95348837209303,
          "velocity": 0.2283464566929134
        },
        {
          "duration": 0.19767441860463464,
          "durationTicks": 17,
          "midi": 74,
          "name": "D5",
          "ticks": 13757,
          "time": 159.96511627906978,
          "velocity": 0.16535433070866143
        },
        {
          "duration": 0.034883720930224626,
          "durationTicks": 3,
          "midi": 70,
          "name": "A#4",
          "ticks": 13758,
          "time": 159.97674418604652,
          "velocity": 0.1732283464566929
        },
        {
          "duration": 0.023255813953483084,
          "durationTicks": 2,
          "midi": 44,
          "name": "G#2",
          "ticks": 13759,
          "time": 159.98837209302326,
          "velocity": 0.3779527559055118
        },
        {
          "duration": 0.023255813953483084,
          "durationTicks": 2,
          "midi": 45,
          "name": "A2",
          "ticks": 13761,
          "time": 160.01162790697674,
          "velocity": 0.30708661417322836
        },
        {
          "duration": 0.13953488372092693,
          "durationTicks": 12,
          "midi": 35,
          "name": "B1",
          "ticks": 13764,
          "time": 160.04651162790697,
          "velocity": 0.2677165354330709
        },
        {
          "duration": 0.05813953488370771,
          "durationTicks": 5,
          "midi": 62,
          "name": "D4",
          "ticks": 13767,
          "time": 160.08139534883722,
          "velocity": 0.12598425196850394
        },
        {
          "duration": 0.25581395348837077,
          "durationTicks": 22,
          "midi": 67,
          "name": "G4",
          "ticks": 13771,
          "time": 160.12790697674419,
          "velocity": 0.1968503937007874
        },
        {
          "duration": 0.034883720930224626,
          "durationTicks": 3,
          "midi": 56,
          "name": "G#3",
          "ticks": 13778,
          "time": 160.2093023255814,
          "velocity": 0.25984251968503935
        },
        {
          "duration": 0.034883720930224626,
          "durationTicks": 3,
          "midi": 91,
          "name": "G6",
          "ticks": 13778,
          "time": 160.2093023255814,
          "velocity": 0.16535433070866143
        },
        {
          "duration": 0.12790697674418539,
          "durationTicks": 11,
          "midi": 55,
          "name": "G3",
          "ticks": 13781,
          "time": 160.24418604651163,
          "velocity": 0.29133858267716534
        },
        {
          "duration": 0.17441860465115155,
          "durationTicks": 15,
          "midi": 48,
          "name": "C3",
          "ticks": 13782,
          "time": 160.25581395348837,
          "velocity": 0.25196850393700787
        },
        {
          "duration": 0.03488372093025305,
          "durationTicks": 3,
          "midi": 36,
          "name": "C2",
          "ticks": 13784,
          "time": 160.27906976744185,
          "velocity": 0.31496062992125984
        },
        {
          "duration": 0.023255813953483084,
          "durationTicks": 2,
          "midi": 36,
          "name": "C2",
          "ticks": 13788,
          "time": 160.32558139534885,
          "velocity": 0.30708661417322836
        },
        {
          "duration": 0.12790697674418539,
          "durationTicks": 11,
          "midi": 36,
          "name": "C2",
          "ticks": 13791,
          "time": 160.36046511627907,
          "velocity": 0.2992125984251969
        },
        {
          "duration": 0.16279069767443843,
          "durationTicks": 14,
          "midi": 64,
          "name": "E4",
          "ticks": 13796,
          "time": 160.41860465116278,
          "velocity": 0.14960629921259844
        },
        {
          "duration": 0.0813953488371908,
          "durationTicks": 7,
          "midi": 60,
          "name": "C4",
          "ticks": 13801,
          "time": 160.47674418604652,
          "velocity": 0.09448818897637795
        },
        {
          "duration": 0.08139534883721922,
          "durationTicks": 7,
          "midi": 36,
          "name": "C2",
          "ticks": 13803,
          "time": 160.5,
          "velocity": 0.2992125984251969
        },
        {
          "duration": 0.05813953488370771,
          "durationTicks": 5,
          "midi": 67,
          "name": "G4",
          "ticks": 13803,
          "time": 160.5,
          "velocity": 0.09448818897637795
        },
        {
          "duration": 0.12790697674418539,
          "durationTicks": 11,
          "midi": 67,
          "name": "G4",
          "ticks": 13811,
          "time": 160.59302325581396,
          "velocity": 0.1968503937007874
        },
        {
          "duration": 0.034883720930224626,
          "durationTicks": 3,
          "midi": 43,
          "name": "G2",
          "ticks": 13813,
          "time": 160.61627906976744,
          "velocity": 0.3779527559055118
        },
        {
          "duration": 0.30232558139533694,
          "durationTicks": 26,
          "midi": 64,
          "name": "E4",
          "ticks": 13813,
          "time": 160.61627906976744,
          "velocity": 0.18110236220472442
        },
        {
          "duration": 0.38372093023255616,
          "durationTicks": 33,
          "midi": 60,
          "name": "C4",
          "ticks": 13816,
          "time": 160.65116279069767,
          "velocity": 0.2440944881889764
        },
        {
          "duration": 0.034883720930224626,
          "durationTicks": 3,
          "midi": 44,
          "name": "G#2",
          "ticks": 13820,
          "time": 160.69767441860466,
          "velocity": 0.33858267716535434
        },
        {
          "duration": 0.034883720930224626,
          "durationTicks": 3,
          "midi": 45,
          "name": "A2",
          "ticks": 13823,
          "time": 160.7325581395349,
          "velocity": 0.23622047244094488
        },
        {
          "duration": 0.034883720930224626,
          "durationTicks": 3,
          "midi": 46,
          "name": "A#2",
          "ticks": 13826,
          "time": 160.7674418604651,
          "velocity": 0.09448818897637795
        },
        {
          "duration": 0.04651162790696617,
          "durationTicks": 4,
          "midi": 48,
          "name": "C3",
          "ticks": 13830,
          "time": 160.8139534883721,
          "velocity": 0.33858267716535434
        },
        {
          "duration": 0.023255813953483084,
          "durationTicks": 2,
          "midi": 37,
          "name": "C#2",
          "ticks": 13837,
          "time": 160.8953488372093,
          "velocity": 0.2440944881889764
        },
        {
          "duration": 0.023255813953511506,
          "durationTicks": 2,
          "midi": 55,
          "name": "G3",
          "ticks": 13840,
          "time": 160.93023255813952,
          "velocity": 0.30708661417322836
        },
        {
          "duration": 0.04651162790696617,
          "durationTicks": 4,
          "midi": 54,
          "name": "F#3",
          "ticks": 13842,
          "time": 160.95348837209303,
          "velocity": 0.1732283464566929
        },
        {
          "duration": 0.3139534883720785,
          "durationTicks": 27,
          "midi": 64,
          "name": "E4",
          "ticks": 13843,
          "time": 160.96511627906978,
          "velocity": 0.15748031496062992
        },
        {
          "duration": 0.023255813953511506,
          "durationTicks": 2,
          "midi": 45,
          "name": "A2",
          "ticks": 13850,
          "time": 161.04651162790697,
          "velocity": 0.3779527559055118
        },
        {
          "duration": 0.11627906976744384,
          "durationTicks": 10,
          "midi": 60,
          "name": "C4",
          "ticks": 13850,
          "time": 161.04651162790697,
          "velocity": 0.16535433070866143
        },
        {
          "duration": 0.06976744186044925,
          "durationTicks": 6,
          "midi": 55,
          "name": "G3",
          "ticks": 13852,
          "time": 161.06976744186048,
          "velocity": 0.13385826771653545
        },
        {
          "duration": 0.05813953488370771,
          "durationTicks": 5,
          "midi": 48,
          "name": "C3",
          "ticks": 13854,
          "time": 161.09302325581396,
          "velocity": 0.2677165354330709
        },
        {
          "duration": 0.03488372093025305,
          "durationTicks": 3,
          "midi": 47,
          "name": "B2",
          "ticks": 13860,
          "time": 161.1627906976744,
          "velocity": 0.33858267716535434
        },
        {
          "duration": 0.22093023255814614,
          "durationTicks": 19,
          "midi": 55,
          "name": "G3",
          "ticks": 13861,
          "time": 161.17441860465115,
          "velocity": 0.2440944881889764
        },
        {
          "duration": 0.023255813953483084,
          "durationTicks": 2,
          "midi": 48,
          "name": "C3",
          "ticks": 13863,
          "time": 161.19767441860466,
          "velocity": 0.31496062992125984
        },
        {
          "duration": 0.13953488372092693,
          "durationTicks": 12,
          "midi": 48,
          "name": "C3",
          "ticks": 13868,
          "time": 161.25581395348837,
          "velocity": 0.31496062992125984
        },
        {
          "duration": 0.023255813953511506,
          "durationTicks": 2,
          "midi": 36,
          "name": "C2",
          "ticks": 13871,
          "time": 161.2906976744186,
          "velocity": 0.30708661417322836
        },
        {
          "duration": 0.1860465116278931,
          "durationTicks": 16,
          "midi": 64,
          "name": "E4",
          "ticks": 13873,
          "time": 161.3139534883721,
          "velocity": 0.15748031496062992
        },
        {
          "duration": 0.023255813953483084,
          "durationTicks": 2,
          "midi": 36,
          "name": "C2",
          "ticks": 13874,
          "time": 161.32558139534885,
          "velocity": 0.30708661417322836
        },
        {
          "duration": 0.03488372093025305,
          "durationTicks": 3,
          "midi": 55,
          "name": "G3",
          "ticks": 13881,
          "time": 161.40697674418604,
          "velocity": 0.29133858267716534
        },
        {
          "duration": 0.023255813953483084,
          "durationTicks": 2,
          "midi": 40,
          "name": "E2",
          "ticks": 13887,
          "time": 161.47674418604652,
          "velocity": 0.2677165354330709
        },
        {
          "duration": 0.06976744186047767,
          "durationTicks": 6,
          "midi": 60,
          "name": "C4",
          "ticks": 13890,
          "time": 161.51162790697674,
          "velocity": 0.25984251968503935
        },
        {
          "duration": 0.023255813953483084,
          "durationTicks": 2,
          "midi": 40,
          "name": "E2",
          "ticks": 13891,
          "time": 161.52325581395348,
          "velocity": 0.3543307086614173
        },
        {
          "duration": 0.08139534883721922,
          "durationTicks": 7,
          "midi": 64,
          "name": "E4",
          "ticks": 13893,
          "time": 161.54651162790697,
          "velocity": 0.14173228346456693
        },
        {
          "duration": 0.03488372093025305,
          "durationTicks": 3,
          "midi": 48,
          "name": "C3",
          "ticks": 13894,
          "time": 161.5581395348837,
          "velocity": 0.2440944881889764
        },
        {
          "duration": 0.023255813953483084,
          "durationTicks": 2,
          "midi": 44,
          "name": "G#2",
          "ticks": 13897,
          "time": 161.59302325581396,
          "velocity": 0.2677165354330709
        },
        {
          "duration": 0.023255813953483084,
          "durationTicks": 2,
          "midi": 41,
          "name": "F2",
          "ticks": 13901,
          "time": 161.63953488372093,
          "velocity": 0.2283464566929134
        },
        {
          "duration": 0.18604651162792152,
          "durationTicks": 16,
          "midi": 64,
          "name": "E4",
          "ticks": 13902,
          "time": 161.65116279069767,
          "velocity": 0.08661417322834646
        },
        {
          "duration": 0.023255813953483084,
          "durationTicks": 2,
          "midi": 47,
          "name": "B2",
          "ticks": 13911,
          "time": 161.75581395348837,
          "velocity": 0.25196850393700787
        },
        {
          "duration": 0.034883720930224626,
          "durationTicks": 3,
          "midi": 55,
          "name": "G3",
          "ticks": 13911,
          "time": 161.75581395348837,
          "velocity": 0.1889763779527559
        },
        {
          "duration": 0.08139534883721922,
          "durationTicks": 7,
          "midi": 60,
          "name": "C4",
          "ticks": 13912,
          "time": 161.7674418604651,
          "velocity": 0.08661417322834646
        },
        {
          "duration": 0.034883720930224626,
          "durationTicks": 3,
          "midi": 70,
          "name": "A#4",
          "ticks": 13918,
          "time": 161.8372093023256,
          "velocity": 0.1889763779527559
        },
        {
          "duration": 0.023255813953483084,
          "durationTicks": 2,
          "midi": 55,
          "name": "G3",
          "ticks": 13919,
          "time": 161.84883720930233,
          "velocity": 0.25984251968503935
        },
        {
          "duration": 0.023255813953483084,
          "durationTicks": 2,
          "midi": 47,
          "name": "B2",
          "ticks": 13920,
          "time": 161.86046511627907,
          "velocity": 0.3937007874015748
        },
        {
          "duration": 0.06976744186047767,
          "durationTicks": 6,
          "midi": 67,
          "name": "G4",
          "ticks": 13921,
          "time": 161.87209302325581,
          "velocity": 0.11811023622047244
        },
        {
          "duration": 0.023255813953483084,
          "durationTicks": 2,
          "midi": 45,
          "name": "A2",
          "ticks": 13922,
          "time": 161.88372093023256,
          "velocity": 0.29133858267716534
        },
        {
          "duration": 0.13953488372092693,
          "durationTicks": 12,
          "midi": 64,
          "name": "E4",
          "ticks": 13929,
          "time": 161.96511627906978,
          "velocity": 0.11023622047244094
        },
        {
          "duration": 0.06976744186047767,
          "durationTicks": 6,
          "midi": 67,
          "name": "G4",
          "ticks": 13933,
          "time": 162.01162790697674,
          "velocity": 0.10236220472440945
        },
        {
          "duration": 0.023255813953483084,
          "durationTicks": 2,
          "midi": 45,
          "name": "A2",
          "ticks": 13939,
          "time": 162.08139534883722,
          "velocity": 0.41732283464566927
        },
        {
          "duration": 0.2325581395348877,
          "durationTicks": 20,
          "midi": 60,
          "name": "C4",
          "ticks": 13939,
          "time": 162.08139534883722,
          "velocity": 0.14173228346456693
        },
        {
          "duration": 0.0813953488371908,
          "durationTicks": 7,
          "midi": 55,
          "name": "G3",
          "ticks": 13940,
          "time": 162.09302325581396,
          "velocity": 0.18110236220472442
        },
        {
          "duration": 0.023255813953483084,
          "durationTicks": 2,
          "midi": 33,
          "name": "A1",
          "ticks": 13941,
          "time": 162.1046511627907,
          "velocity": 0.33858267716535434
        },
        {
          "duration": 0.2325581395348877,
          "durationTicks": 20,
          "midi": 48,
          "name": "C3",
          "ticks": 13941,
          "time": 162.1046511627907,
          "velocity": 0.3228346456692913
        },
        {
          "duration": 0.27906976744185386,
          "durationTicks": 24,
          "midi": 36,
          "name": "C2",
          "ticks": 13943,
          "time": 162.12790697674419,
          "velocity": 0.33858267716535434
        },
        {
          "duration": 0.09302325581396076,
          "durationTicks": 8,
          "midi": 64,
          "name": "E4",
          "ticks": 13945,
          "time": 162.15116279069767,
          "velocity": 0.10236220472440945
        },
        {
          "duration": 0.1046511627907023,
          "durationTicks": 9,
          "midi": 55,
          "name": "G3",
          "ticks": 13952,
          "time": 162.2325581395349,
          "velocity": 0.2677165354330709
        },
        {
          "duration": 0.034883720930224626,
          "durationTicks": 3,
          "midi": 64,
          "name": "E4",
          "ticks": 13959,
          "time": 162.3139534883721,
          "velocity": 0.1732283464566929
        },
        {
          "duration": 0.023255813953483084,
          "durationTicks": 2,
          "midi": 47,
          "name": "B2",
          "ticks": 13961,
          "time": 162.3372093023256,
          "velocity": 0.31496062992125984
        },
        {
          "duration": 0.04651162790696617,
          "durationTicks": 4,
          "midi": 60,
          "name": "C4",
          "ticks": 13961,
          "time": 162.3372093023256,
          "velocity": 0.1732283464566929
        },
        {
          "duration": 0.06976744186044925,
          "durationTicks": 6,
          "midi": 67,
          "name": "G4",
          "ticks": 13961,
          "time": 162.3372093023256,
          "velocity": 0.11811023622047244
        },
        {
          "duration": 0.023255813953483084,
          "durationTicks": 2,
          "midi": 45,
          "name": "A2",
          "ticks": 13970,
          "time": 162.4418604651163,
          "velocity": 0.44881889763779526
        },
        {
          "duration": 0.023255813953483084,
          "durationTicks": 2,
          "midi": 44,
          "name": "G#2",
          "ticks": 13972,
          "time": 162.46511627906978,
          "velocity": 0.36220472440944884
        },
        {
          "duration": 0.05813953488370771,
          "durationTicks": 5,
          "midi": 67,
          "name": "G4",
          "ticks": 13973,
          "time": 162.47674418604652,
          "velocity": 0.08661417322834646
        },
        {
          "duration": 0.023255813953483084,
          "durationTicks": 2,
          "midi": 45,
          "name": "A2",
          "ticks": 13974,
          "time": 162.48837209302326,
          "velocity": 0.3464566929133858
        },
        {
          "duration": 0.034883720930224626,
          "durationTicks": 3,
          "midi": 60,
          "name": "C4",
          "ticks": 13974,
          "time": 162.48837209302326,
          "velocity": 0.07086614173228346
        },
        {
          "duration": 0.05813953488373613,
          "durationTicks": 5,
          "midi": 64,
          "name": "E4",
          "ticks": 13976,
          "time": 162.51162790697674,
          "velocity": 0.08661417322834646
        },
        {
          "duration": 0.034883720930224626,
          "durationTicks": 3,
          "midi": 55,
          "name": "G3",
          "ticks": 13977,
          "time": 162.52325581395348,
          "velocity": 0.25196850393700787
        },
        {
          "duration": 0.03488372093025305,
          "durationTicks": 3,
          "midi": 42,
          "name": "F#2",
          "ticks": 13979,
          "time": 162.54651162790697,
          "velocity": 0.4645669291338583
        },
        {
          "duration": 0.034883720930224626,
          "durationTicks": 3,
          "midi": 53,
          "name": "F3",
          "ticks": 13988,
          "time": 162.65116279069767,
          "velocity": 0.30708661417322836
        },
        {
          "duration": 0.03488372093025305,
          "durationTicks": 3,
          "midi": 60,
          "name": "C4",
          "ticks": 13989,
          "time": 162.6627906976744,
          "velocity": 0.15748031496062992
        },
        {
          "duration": 0.023255813953511506,
          "durationTicks": 2,
          "midi": 52,
          "name": "E3",
          "ticks": 13991,
          "time": 162.6860465116279,
          "velocity": 0.2283464566929134
        },
        {
          "duration": 0.05813953488373613,
          "durationTicks": 5,
          "midi": 67,
          "name": "G4",
          "ticks": 13997,
          "time": 162.75581395348837,
          "velocity": 0.1889763779527559
        },
        {
          "duration": 0.023255813953483084,
          "durationTicks": 2,
          "midi": 62,
          "name": "D4",
          "ticks": 13998,
          "time": 162.7674418604651,
          "velocity": 0.2283464566929134
        },
        {
          "duration": 0.023255813953511506,
          "durationTicks": 2,
          "midi": 41,
          "name": "F2",
          "ticks": 14001,
          "time": 162.80232558139534,
          "velocity": 0.44881889763779526
        },
        {
          "duration": 0.04651162790699459,
          "durationTicks": 4,
          "midi": 55,
          "name": "G3",
          "ticks": 14001,
          "time": 162.80232558139534,
          "velocity": 0.2677165354330709
        },
        {
          "duration": 0.034883720930224626,
          "durationTicks": 3,
          "midi": 43,
          "name": "G2",
          "ticks": 14003,
          "time": 162.82558139534885,
          "velocity": 0.36220472440944884
        },
        {
          "duration": 0.11627906976744384,
          "durationTicks": 10,
          "midi": 55,
          "name": "G3",
          "ticks": 14009,
          "time": 162.8953488372093,
          "velocity": 0.2992125984251969
        },
        {
          "duration": 0.023255813953483084,
          "durationTicks": 2,
          "midi": 40,
          "name": "E2",
          "ticks": 14010,
          "time": 162.90697674418604,
          "velocity": 0.41732283464566927
        },
        {
          "duration": 0.09302325581396076,
          "durationTicks": 8,
          "midi": 62,
          "name": "D4",
          "ticks": 14010,
          "time": 162.90697674418604,
          "velocity": 0.14960629921259844
        },
        {
          "duration": 0.034883720930224626,
          "durationTicks": 3,
          "midi": 43,
          "name": "G2",
          "ticks": 14013,
          "time": 162.9418604651163,
          "velocity": 0.3228346456692913
        },
        {
          "duration": 0.023255813953483084,
          "durationTicks": 2,
          "midi": 42,
          "name": "F#2",
          "ticks": 14017,
          "time": 162.98837209302326,
          "velocity": 0.2992125984251969
        },
        {
          "duration": 0.023255813953483084,
          "durationTicks": 2,
          "midi": 43,
          "name": "G2",
          "ticks": 14019,
          "time": 163.01162790697674,
          "velocity": 0.30708661417322836
        },
        {
          "duration": 0.2093023255814046,
          "durationTicks": 18,
          "midi": 60,
          "name": "C4",
          "ticks": 14020,
          "time": 163.02325581395348,
          "velocity": 0.2125984251968504
        },
        {
          "duration": 0.24418604651162923,
          "durationTicks": 21,
          "midi": 55,
          "name": "G3",
          "ticks": 14022,
          "time": 163.04651162790697,
          "velocity": 0.28346456692913385
        },
        {
          "duration": 0.023255813953511506,
          "durationTicks": 2,
          "midi": 35,
          "name": "B1",
          "ticks": 14023,
          "time": 163.0581395348837,
          "velocity": 0.29133858267716534
        },
        {
          "duration": 0.04651162790696617,
          "durationTicks": 4,
          "midi": 36,
          "name": "C2",
          "ticks": 14025,
          "time": 163.08139534883722,
          "velocity": 0.2992125984251969
        },
        {
          "duration": 0.023255813953483084,
          "durationTicks": 2,
          "midi": 36,
          "name": "C2",
          "ticks": 14030,
          "time": 163.13953488372093,
          "velocity": 0.30708661417322836
        },
        {
          "duration": 0.09302325581396076,
          "durationTicks": 8,
          "midi": 36,
          "name": "C2",
          "ticks": 14033,
          "time": 163.17441860465115,
          "velocity": 0.2992125984251969
        },
        {
          "duration": 0.023255813953483084,
          "durationTicks": 2,
          "midi": 44,
          "name": "G#2",
          "ticks": 14041,
          "time": 163.2674418604651,
          "velocity": 0.33070866141732286
        },
        {
          "duration": 0.05813953488370771,
          "durationTicks": 5,
          "midi": 36,
          "name": "C2",
          "ticks": 14045,
          "time": 163.3139534883721,
          "velocity": 0.2755905511811024
        },
        {
          "duration": 0.11627906976744384,
          "durationTicks": 10,
          "midi": 67,
          "name": "G4",
          "ticks": 14049,
          "time": 163.36046511627907,
          "velocity": 0.18110236220472442
        },
        {
          "duration": 0.09302325581396076,
          "durationTicks": 8,
          "midi": 64,
          "name": "E4",
          "ticks": 14050,
          "time": 163.37209302325581,
          "velocity": 0.11023622047244094
        },
        {
          "duration": 0.023255813953483084,
          "durationTicks": 2,
          "midi": 46,
          "name": "A#2",
          "ticks": 14051,
          "time": 163.38372093023256,
          "velocity": 0.36220472440944884
        },
        {
          "duration": 0.023255813953511506,
          "durationTicks": 2,
          "midi": 51,
          "name": "D#3",
          "ticks": 14054,
          "time": 163.41860465116278,
          "velocity": 0.23622047244094488
        },
        {
          "duration": 0.034883720930224626,
          "durationTicks": 3,
          "midi": 55,
          "name": "G3",
          "ticks": 14070,
          "time": 163.6046511627907,
          "velocity": 0.2440944881889764
        },
        {
          "duration": 0.023255813953483084,
          "durationTicks": 2,
          "midi": 47,
          "name": "B2",
          "ticks": 14071,
          "time": 163.61627906976744,
          "velocity": 0.33858267716535434
        },
        {
          "duration": 0.04651162790696617,
          "durationTicks": 4,
          "midi": 60,
          "name": "C4",
          "ticks": 14072,
          "time": 163.62790697674419,
          "velocity": 0.10236220472440945
        },
        {
          "duration": 0.04651162790696617,
          "durationTicks": 4,
          "midi": 48,
          "name": "C3",
          "ticks": 14073,
          "time": 163.63953488372093,
          "velocity": 0.2125984251968504
        },
        {
          "duration": 0.023255813953483084,
          "durationTicks": 2,
          "midi": 48,
          "name": "C3",
          "ticks": 14080,
          "time": 163.72093023255815,
          "velocity": 0.3464566929133858
        },
        {
          "duration": 0.023255813953483084,
          "durationTicks": 2,
          "midi": 55,
          "name": "G3",
          "ticks": 14080,
          "time": 163.72093023255815,
          "velocity": 0.2755905511811024
        },
        {
          "duration": 0.034883720930224626,
          "durationTicks": 3,
          "midi": 93,
          "name": "A6",
          "ticks": 14080,
          "time": 163.72093023255815,
          "velocity": 0.12598425196850394
        },
        {
          "duration": 0.023255813953483084,
          "durationTicks": 2,
          "midi": 36,
          "name": "C2",
          "ticks": 14081,
          "time": 163.7325581395349,
          "velocity": 0.3464566929133858
        },
        {
          "duration": 0.19767441860466306,
          "durationTicks": 17,
          "midi": 67,
          "name": "G4",
          "ticks": 14082,
          "time": 163.74418604651163,
          "velocity": 0.1732283464566929
        },
        {
          "duration": 0.034883720930224626,
          "durationTicks": 3,
          "midi": 45,
          "name": "A2",
          "ticks": 14083,
          "time": 163.75581395348837,
          "velocity": 0.30708661417322836
        },
        {
          "duration": 0.034883720930224626,
          "durationTicks": 3,
          "midi": 70,
          "name": "A#4",
          "ticks": 14088,
          "time": 163.8139534883721,
          "velocity": 0.15748031496062992
        },
        {
          "duration": 0.023255813953483084,
          "durationTicks": 2,
          "midi": 47,
          "name": "B2",
          "ticks": 14092,
          "time": 163.86046511627907,
          "velocity": 0.25984251968503935
        },
        {
          "duration": 0.03488372093025305,
          "durationTicks": 3,
          "midi": 48,
          "name": "C3",
          "ticks": 14096,
          "time": 163.90697674418604,
          "velocity": 0.2283464566929134
        },
        {
          "duration": 0.03488372093025305,
          "durationTicks": 3,
          "midi": 78,
          "name": "F#5",
          "ticks": 14098,
          "time": 163.93023255813952,
          "velocity": 0.2125984251968504
        },
        {
          "duration": 0.034883720930224626,
          "durationTicks": 3,
          "midi": 47,
          "name": "B2",
          "ticks": 14100,
          "time": 163.95348837209303,
          "velocity": 0.33858267716535434
        },
        {
          "duration": 0.32558139534882,
          "durationTicks": 28,
          "midi": 55,
          "name": "G3",
          "ticks": 14100,
          "time": 163.95348837209303,
          "velocity": 0.2125984251968504
        },
        {
          "duration": 0.13953488372092693,
          "durationTicks": 12,
          "midi": 67,
          "name": "G4",
          "ticks": 14101,
          "time": 163.96511627906978,
          "velocity": 0.2755905511811024
        },
        {
          "duration": 0.023255813953483084,
          "durationTicks": 2,
          "midi": 48,
          "name": "C3",
          "ticks": 14103,
          "time": 163.98837209302326,
          "velocity": 0.2992125984251969
        },
        {
          "duration": 0.04651162790696617,
          "durationTicks": 4,
          "midi": 36,
          "name": "C2",
          "ticks": 14104,
          "time": 164,
          "velocity": 0.29133858267716534
        },
        {
          "duration": 0.2325581395348877,
          "durationTicks": 20,
          "midi": 48,
          "name": "C3",
          "ticks": 14106,
          "time": 164.02325581395348,
          "velocity": 0.3228346456692913
        },
        {
          "duration": 0.04651162790699459,
          "durationTicks": 4,
          "midi": 36,
          "name": "C2",
          "ticks": 14109,
          "time": 164.0581395348837,
          "velocity": 0.2992125984251969
        },
        {
          "duration": 0.2325581395348877,
          "durationTicks": 20,
          "midi": 72,
          "name": "C5",
          "ticks": 14109,
          "time": 164.0581395348837,
          "velocity": 0.18110236220472442
        },
        {
          "duration": 0.20930232558137618,
          "durationTicks": 18,
          "midi": 84,
          "name": "C6",
          "ticks": 14110,
          "time": 164.06976744186048,
          "velocity": 0.2047244094488189
        },
        {
          "duration": 0.023255813953483084,
          "durationTicks": 2,
          "midi": 36,
          "name": "C2",
          "ticks": 14114,
          "time": 164.11627906976744,
          "velocity": 0.29133858267716534
        },
        {
          "duration": 0.11627906976744384,
          "durationTicks": 10,
          "midi": 36,
          "name": "C2",
          "ticks": 14117,
          "time": 164.15116279069767,
          "velocity": 0.28346456692913385
        },
        {
          "duration": 0.03488372093025305,
          "durationTicks": 3,
          "midi": 48,
          "name": "C3",
          "ticks": 14128,
          "time": 164.27906976744185,
          "velocity": 0.36220472440944884
        },
        {
          "duration": 0.03488372093025305,
          "durationTicks": 3,
          "midi": 36,
          "name": "C2",
          "ticks": 14130,
          "time": 164.30232558139534,
          "velocity": 0.3700787401574803
        },
        {
          "duration": 0.1046511627907023,
          "durationTicks": 9,
          "midi": 72,
          "name": "C5",
          "ticks": 14130,
          "time": 164.30232558139534,
          "velocity": 0.15748031496062992
        },
        {
          "duration": 0.03488372093025305,
          "durationTicks": 3,
          "midi": 74,
          "name": "D5",
          "ticks": 14139,
          "time": 164.40697674418604,
          "velocity": 0.14173228346456693
        },
        {
          "duration": 0.023255813953483084,
          "durationTicks": 2,
          "midi": 37,
          "name": "C#2",
          "ticks": 14142,
          "time": 164.4418604651163,
          "velocity": 0.33070866141732286
        },
        {
          "duration": 0.04651162790696617,
          "durationTicks": 4,
          "midi": 100,
          "name": "E7",
          "ticks": 14144,
          "time": 164.46511627906978,
          "velocity": 0.07086614173228346
        },
        {
          "duration": 0.03488372093025305,
          "durationTicks": 3,
          "midi": 53,
          "name": "F3",
          "ticks": 14150,
          "time": 164.53488372093022,
          "velocity": 0.2755905511811024
        },
        {
          "duration": 0.04651162790699459,
          "durationTicks": 4,
          "midi": 61,
          "name": "C#4",
          "ticks": 14150,
          "time": 164.53488372093022,
          "velocity": 0.12598425196850394
        },
        {
          "duration": 0.08139534883721922,
          "durationTicks": 7,
          "midi": 72,
          "name": "C5",
          "ticks": 14150,
          "time": 164.53488372093022,
          "velocity": 0.18110236220472442
        },
        {
          "duration": 0.023255813953511506,
          "durationTicks": 2,
          "midi": 37,
          "name": "C#2",
          "ticks": 14152,
          "time": 164.5581395348837,
          "velocity": 0.33858267716535434
        },
        {
          "duration": 0.034883720930224626,
          "durationTicks": 3,
          "midi": 91,
          "name": "G6",
          "ticks": 14155,
          "time": 164.59302325581396,
          "velocity": 0.07086614173228346
        },
        {
          "duration": 0.034883720930224626,
          "durationTicks": 3,
          "midi": 43,
          "name": "G2",
          "ticks": 14158,
          "time": 164.62790697674419,
          "velocity": 0.36220472440944884
        },
        {
          "duration": 0.05813953488373613,
          "durationTicks": 5,
          "midi": 62,
          "name": "D4",
          "ticks": 14159,
          "time": 164.63953488372093,
          "velocity": 0.2755905511811024
        },
        {
          "duration": 0.034883720930224626,
          "durationTicks": 3,
          "midi": 69,
          "name": "A4",
          "ticks": 14159,
          "time": 164.63953488372093,
          "velocity": 0.1889763779527559
        },
        {
          "duration": 0.1046511627907023,
          "durationTicks": 9,
          "midi": 100,
          "name": "E7",
          "ticks": 14162,
          "time": 164.67441860465115,
          "velocity": 0.11811023622047244
        },
        {
          "duration": 0.04651162790696617,
          "durationTicks": 4,
          "midi": 52,
          "name": "E3",
          "ticks": 14165,
          "time": 164.7093023255814,
          "velocity": 0.1732283464566929
        },
        {
          "duration": 0.034883720930224626,
          "durationTicks": 3,
          "midi": 44,
          "name": "G#2",
          "ticks": 14166,
          "time": 164.72093023255815,
          "velocity": 0.2992125984251969
        },
        {
          "duration": 0.1046511627907023,
          "durationTicks": 9,
          "midi": 55,
          "name": "G3",
          "ticks": 14170,
          "time": 164.7674418604651,
          "velocity": 0.25196850393700787
        },
        {
          "duration": 0.06976744186047767,
          "durationTicks": 6,
          "midi": 62,
          "name": "D4",
          "ticks": 14170,
          "time": 164.7674418604651,
          "velocity": 0.12598425196850394
        },
        {
          "duration": 0.06976744186047767,
          "durationTicks": 6,
          "midi": 72,
          "name": "C5",
          "ticks": 14170,
          "time": 164.7674418604651,
          "velocity": 0.1732283464566929
        },
        {
          "duration": 0.09302325581396076,
          "durationTicks": 8,
          "midi": 43,
          "name": "G2",
          "ticks": 14172,
          "time": 164.7906976744186,
          "velocity": 0.33858267716535434
        },
        {
          "duration": 0.06976744186044925,
          "durationTicks": 6,
          "midi": 71,
          "name": "B4",
          "ticks": 14176,
          "time": 164.8372093023256,
          "velocity": 0.2204724409448819
        },
        {
          "duration": 0.13953488372092693,
          "durationTicks": 12,
          "midi": 79,
          "name": "G5",
          "ticks": 14179,
          "time": 164.87209302325581,
          "velocity": 0.16535433070866143
        },
        {
          "duration": 0.034883720930224626,
          "durationTicks": 3,
          "midi": 34,
          "name": "A#1",
          "ticks": 14180,
          "time": 164.88372093023256,
          "velocity": 0.2677165354330709
        },
        {
          "duration": 0.19767441860466306,
          "durationTicks": 17,
          "midi": 60,
          "name": "C4",
          "ticks": 14181,
          "time": 164.8953488372093,
          "velocity": 0.14173228346456693
        },
        {
          "duration": 0.19767441860466306,
          "durationTicks": 17,
          "midi": 55,
          "name": "G3",
          "ticks": 14182,
          "time": 164.90697674418604,
          "velocity": 0.1732283464566929
        },
        {
          "duration": 0.5465116279069946,
          "durationTicks": 47,
          "midi": 67,
          "name": "G4",
          "ticks": 14182,
          "time": 164.90697674418604,
          "velocity": 0.2204724409448819
        },
        {
          "duration": 0.023255813953511506,
          "durationTicks": 2,
          "midi": 35,
          "name": "B1",
          "ticks": 14183,
          "time": 164.91860465116278,
          "velocity": 0.30708661417322836
        },
        {
          "duration": 0.08139534883721922,
          "durationTicks": 7,
          "midi": 86,
          "name": "D6",
          "ticks": 14183,
          "time": 164.91860465116278,
          "velocity": 0.08661417322834646
        },
        {
          "duration": 0.023255813953483084,
          "durationTicks": 2,
          "midi": 41,
          "name": "F2",
          "ticks": 14186,
          "time": 164.95348837209303,
          "velocity": 0.31496062992125984
        },
        {
          "duration": 0.034883720930224626,
          "durationTicks": 3,
          "midi": 83,
          "name": "B5",
          "ticks": 14191,
          "time": 165.01162790697674,
          "velocity": 0.07086614173228346
        },
        {
          "duration": 0.11627906976744384,
          "durationTicks": 10,
          "midi": 90,
          "name": "F#6",
          "ticks": 14192,
          "time": 165.02325581395348,
          "velocity": 0.10236220472440945
        },
        {
          "duration": 0.023255813953483084,
          "durationTicks": 2,
          "midi": 48,
          "name": "C3",
          "ticks": 14193,
          "time": 165.03488372093022,
          "velocity": 0.23622047244094488
        },
        {
          "duration": 0.1046511627907023,
          "durationTicks": 9,
          "midi": 71,
          "name": "B4",
          "ticks": 14193,
          "time": 165.03488372093022,
          "velocity": 0.09448818897637795
        },
        {
          "duration": 0.023255813953511506,
          "durationTicks": 2,
          "midi": 36,
          "name": "C2",
          "ticks": 14195,
          "time": 165.0581395348837,
          "velocity": 0.2992125984251969
        },
        {
          "duration": 0.04651162790696617,
          "durationTicks": 4,
          "midi": 36,
          "name": "C2",
          "ticks": 14198,
          "time": 165.09302325581396,
          "velocity": 0.29133858267716534
        },
        {
          "duration": 0.1046511627907023,
          "durationTicks": 9,
          "midi": 55,
          "name": "G3",
          "ticks": 14200,
          "time": 165.11627906976744,
          "velocity": 0.2125984251968504
        },
        {
          "duration": 0.12790697674418539,
          "durationTicks": 11,
          "midi": 86,
          "name": "D6",
          "ticks": 14201,
          "time": 165.12790697674419,
          "velocity": 0.11023622047244094
        },
        {
          "duration": 0.023255813953483084,
          "durationTicks": 2,
          "midi": 36,
          "name": "C2",
          "ticks": 14203,
          "time": 165.15116279069767,
          "velocity": 0.28346456692913385
        },
        {
          "duration": 0.04651162790699459,
          "durationTicks": 4,
          "midi": 36,
          "name": "C2",
          "ticks": 14206,
          "time": 165.1860465116279,
          "velocity": 0.29133858267716534
        },
        {
          "duration": 0.023255813953483084,
          "durationTicks": 2,
          "midi": 35,
          "name": "B1",
          "ticks": 14210,
          "time": 165.2325581395349,
          "velocity": 0.2755905511811024
        },
        {
          "duration": 0.09302325581396076,
          "durationTicks": 8,
          "midi": 83,
          "name": "B5",
          "ticks": 14211,
          "time": 165.24418604651163,
          "velocity": 0.11023622047244094
        },
        {
          "duration": 0.023255813953483084,
          "durationTicks": 2,
          "midi": 40,
          "name": "E2",
          "ticks": 14212,
          "time": 165.25581395348837,
          "velocity": 0.29133858267716534
        },
        {
          "duration": 0.034883720930224626,
          "durationTicks": 3,
          "midi": 60,
          "name": "C4",
          "ticks": 14212,
          "time": 165.25581395348837,
          "velocity": 0.2047244094488189
        },
        {
          "duration": 0.09302325581396076,
          "durationTicks": 8,
          "midi": 71,
          "name": "B4",
          "ticks": 14212,
          "time": 165.25581395348837,
          "velocity": 0.11023622047244094
        },
        {
          "duration": 0.023255813953483084,
          "durationTicks": 2,
          "midi": 48,
          "name": "C3",
          "ticks": 14213,
          "time": 165.2674418604651,
          "velocity": 0.23622047244094488
        },
        {
          "duration": 0.1046511627907023,
          "durationTicks": 9,
          "midi": 90,
          "name": "F#6",
          "ticks": 14213,
          "time": 165.2674418604651,
          "velocity": 0.10236220472440945
        },
        {
          "duration": 0.03488372093025305,
          "durationTicks": 3,
          "midi": 55,
          "name": "G3",
          "ticks": 14215,
          "time": 165.2906976744186,
          "velocity": 0.11811023622047244
        },
        {
          "duration": 0.023255813953483084,
          "durationTicks": 2,
          "midi": 47,
          "name": "B2",
          "ticks": 14219,
          "time": 165.3372093023256,
          "velocity": 0.23622047244094488
        },
        {
          "duration": 0.034883720930224626,
          "durationTicks": 3,
          "midi": 72,
          "name": "C5",
          "ticks": 14220,
          "time": 165.34883720930233,
          "velocity": 0.14960629921259844
        },
        {
          "duration": 0.09302325581396076,
          "durationTicks": 8,
          "midi": 86,
          "name": "D6",
          "ticks": 14223,
          "time": 165.38372093023256,
          "velocity": 0.09448818897637795
        },
        {
          "duration": 0.04651162790699459,
          "durationTicks": 4,
          "midi": 44,
          "name": "G#2",
          "ticks": 14224,
          "time": 165.3953488372093,
          "velocity": 0.25984251968503935
        },
        {
          "duration": 0.1046511627907023,
          "durationTicks": 9,
          "midi": 71,
          "name": "B4",
          "ticks": 14230,
          "time": 165.46511627906978,
          "velocity": 0.16535433070866143
        },
        {
          "duration": 0.06976744186044925,
          "durationTicks": 6,
          "midi": 48,
          "name": "C3",
          "ticks": 14231,
          "time": 165.47674418604652,
          "velocity": 0.33070866141732286
        },
        {
          "duration": 0.1046511627907023,
          "durationTicks": 9,
          "midi": 90,
          "name": "F#6",
          "ticks": 14232,
          "time": 165.48837209302326,
          "velocity": 0.09448818897637795
        },
        {
          "duration": 0.04651162790696617,
          "durationTicks": 4,
          "midi": 67,
          "name": "G4",
          "ticks": 14233,
          "time": 165.5,
          "velocity": 0.07086614173228346
        },
        {
          "duration": 0.03488372093025305,
          "durationTicks": 3,
          "midi": 37,
          "name": "C#2",
          "ticks": 14236,
          "time": 165.53488372093022,
          "velocity": 0.2440944881889764
        },
        {
          "duration": 0.19767441860463464,
          "durationTicks": 17,
          "midi": 79,
          "name": "G5",
          "ticks": 14239,
          "time": 165.56976744186048,
          "velocity": 0.16535433070866143
        },
        {
          "duration": 0.023255813953483084,
          "durationTicks": 2,
          "midi": 48,
          "name": "C3",
          "ticks": 14241,
          "time": 165.59302325581396,
          "velocity": 0.3228346456692913
        },
        {
          "duration": 0.22093023255814614,
          "durationTicks": 19,
          "midi": 67,
          "name": "G4",
          "ticks": 14241,
          "time": 165.59302325581396,
          "velocity": 0.23622047244094488
        },
        {
          "duration": 0.06976744186047767,
          "durationTicks": 6,
          "midi": 86,
          "name": "D6",
          "ticks": 14246,
          "time": 165.65116279069767,
          "velocity": 0.11811023622047244
        },
        {
          "duration": 0.034883720930224626,
          "durationTicks": 3,
          "midi": 55,
          "name": "G3",
          "ticks": 14250,
          "time": 165.69767441860466,
          "velocity": 0.2204724409448819
        },
        {
          "duration": 0.023255813953483084,
          "durationTicks": 2,
          "midi": 47,
          "name": "B2",
          "ticks": 14251,
          "time": 165.7093023255814,
          "velocity": 0.2755905511811024
        },
        {
          "duration": 0.023255813953483084,
          "durationTicks": 2,
          "midi": 35,
          "name": "B1",
          "ticks": 14252,
          "time": 165.72093023255815,
          "velocity": 0.33858267716535434
        },
        {
          "duration": 0.04651162790696617,
          "durationTicks": 4,
          "midi": 48,
          "name": "C3",
          "ticks": 14253,
          "time": 165.7325581395349,
          "velocity": 0.2125984251968504
        },
        {
          "duration": 0.04651162790696617,
          "durationTicks": 4,
          "midi": 71,
          "name": "B4",
          "ticks": 14253,
          "time": 165.7325581395349,
          "velocity": 0.08661417322834646
        },
        {
          "duration": 0.034883720930224626,
          "durationTicks": 3,
          "midi": 90,
          "name": "F#6",
          "ticks": 14253,
          "time": 165.7325581395349,
          "velocity": 0.07086614173228346
        },
        {
          "duration": 0.023255813953483084,
          "durationTicks": 2,
          "midi": 45,
          "name": "A2",
          "ticks": 14260,
          "time": 165.8139534883721,
          "velocity": 0.4251968503937008
        },
        {
          "duration": 0.11627906976741542,
          "durationTicks": 10,
          "midi": 78,
          "name": "F#5",
          "ticks": 14260,
          "time": 165.8139534883721,
          "velocity": 0.13385826771653545
        },
        {
          "duration": 0.06976744186044925,
          "durationTicks": 6,
          "midi": 67,
          "name": "G4",
          "ticks": 14261,
          "time": 165.82558139534885,
          "velocity": 0.15748031496062992
        },
        {
          "duration": 0.023255813953483084,
          "durationTicks": 2,
          "midi": 33,
          "name": "A1",
          "ticks": 14262,
          "time": 165.8372093023256,
          "velocity": 0.29133858267716534
        },
        {
          "duration": 0.27906976744185386,
          "durationTicks": 24,
          "midi": 55,
          "name": "G3",
          "ticks": 14262,
          "time": 165.8372093023256,
          "velocity": 0.18110236220472442
        },
        {
          "duration": 0.27906976744185386,
          "durationTicks": 24,
          "midi": 48,
          "name": "C3",
          "ticks": 14263,
          "time": 165.84883720930233,
          "velocity": 0.3464566929133858
        },
        {
          "duration": 0.08139534883721922,
          "durationTicks": 7,
          "midi": 36,
          "name": "C2",
          "ticks": 14264,
          "time": 165.86046511627907,
          "velocity": 0.28346456692913385
        },
        {
          "duration": 0.0813953488371908,
          "durationTicks": 7,
          "midi": 36,
          "name": "C2",
          "ticks": 14272,
          "time": 165.95348837209303,
          "velocity": 0.2992125984251969
        },
        {
          "duration": 0.09302325581396076,
          "durationTicks": 8,
          "midi": 36,
          "name": "C2",
          "ticks": 14280,
          "time": 166.04651162790697,
          "velocity": 0.28346456692913385
        },
        {
          "duration": 0.17441860465117998,
          "durationTicks": 15,
          "midi": 78,
          "name": "F#5",
          "ticks": 14281,
          "time": 166.0581395348837,
          "velocity": 0.13385826771653545
        },
        {
          "duration": 0.034883720930224626,
          "durationTicks": 3,
          "midi": 67,
          "name": "G4",
          "ticks": 14286,
          "time": 166.11627906976744,
          "velocity": 0.11811023622047244
        },
        {
          "duration": 0.05813953488373613,
          "durationTicks": 5,
          "midi": 62,
          "name": "D4",
          "ticks": 14289,
          "time": 166.15116279069767,
          "velocity": 0.2047244094488189
        },
        {
          "duration": 0.023255813953511506,
          "durationTicks": 2,
          "midi": 42,
          "name": "F#2",
          "ticks": 14291,
          "time": 166.17441860465115,
          "velocity": 0.3858267716535433
        },
        {
          "duration": 0.05813953488373613,
          "durationTicks": 5,
          "midi": 55,
          "name": "G3",
          "ticks": 14291,
          "time": 166.17441860465115,
          "velocity": 0.25984251968503935
        },
        {
          "duration": 0.023255813953483084,
          "durationTicks": 2,
          "midi": 43,
          "name": "G2",
          "ticks": 14293,
          "time": 166.19767441860466,
          "velocity": 0.4015748031496063
        },
        {
          "duration": 0.06976744186044925,
          "durationTicks": 6,
          "midi": 60,
          "name": "C4",
          "ticks": 14294,
          "time": 166.2093023255814,
          "velocity": 0.11811023622047244
        },
        {
          "duration": 0.06976744186044925,
          "durationTicks": 6,
          "midi": 64,
          "name": "E4",
          "ticks": 14295,
          "time": 166.22093023255815,
          "velocity": 0.10236220472440945
        },
        {
          "duration": 0.023255813953483084,
          "durationTicks": 2,
          "midi": 43,
          "name": "G2",
          "ticks": 14296,
          "time": 166.2325581395349,
          "velocity": 0.3700787401574803
        },
        {
          "duration": 0.2093023255814046,
          "durationTicks": 18,
          "midi": 78,
          "name": "F#5",
          "ticks": 14300,
          "time": 166.27906976744185,
          "velocity": 0.1732283464566929
        },
        {
          "duration": 0.023255813953511506,
          "durationTicks": 2,
          "midi": 44,
          "name": "G#2",
          "ticks": 14302,
          "time": 166.30232558139534,
          "velocity": 0.29133858267716534
        },
        {
          "duration": 0.04651162790699459,
          "durationTicks": 4,
          "midi": 48,
          "name": "C3",
          "ticks": 14310,
          "time": 166.3953488372093,
          "velocity": 0.3464566929133858
        },
        {
          "duration": 0.023255813953483084,
          "durationTicks": 2,
          "midi": 35,
          "name": "B1",
          "ticks": 14311,
          "time": 166.40697674418604,
          "velocity": 0.33070866141732286
        },
        {
          "duration": 0.04651162790696617,
          "durationTicks": 4,
          "midi": 37,
          "name": "C#2",
          "ticks": 14315,
          "time": 166.45348837209303,
          "velocity": 0.25984251968503935
        },
        {
          "duration": 0.023255813953483084,
          "durationTicks": 2,
          "midi": 44,
          "name": "G#2",
          "ticks": 14319,
          "time": 166.5,
          "velocity": 0.3700787401574803
        },
        {
          "duration": 0.08139534883721922,
          "durationTicks": 7,
          "midi": 64,
          "name": "E4",
          "ticks": 14319,
          "time": 166.5,
          "velocity": 0.2047244094488189
        },
        {
          "duration": 0.034883720930224626,
          "durationTicks": 3,
          "midi": 70,
          "name": "A#4",
          "ticks": 14319,
          "time": 166.5,
          "velocity": 0.2125984251968504
        },
        {
          "duration": 0.034883720930224626,
          "durationTicks": 3,
          "midi": 67,
          "name": "G4",
          "ticks": 14320,
          "time": 166.51162790697674,
          "velocity": 0.11811023622047244
        },
        {
          "duration": 0.12790697674418539,
          "durationTicks": 11,
          "midi": 78,
          "name": "F#5",
          "ticks": 14321,
          "time": 166.52325581395348,
          "velocity": 0.11811023622047244
        },
        {
          "duration": 0.03488372093025305,
          "durationTicks": 3,
          "midi": 48,
          "name": "C3",
          "ticks": 14322,
          "time": 166.53488372093022,
          "velocity": 0.25984251968503935
        },
        {
          "duration": 0.023255813953483084,
          "durationTicks": 2,
          "midi": 45,
          "name": "A2",
          "ticks": 14325,
          "time": 166.56976744186048,
          "velocity": 0.25196850393700787
        },
        {
          "duration": 0.034883720930224626,
          "durationTicks": 3,
          "midi": 55,
          "name": "G3",
          "ticks": 14326,
          "time": 166.58139534883722,
          "velocity": 0.16535433070866143
        },
        {
          "duration": 0.08139534883721922,
          "durationTicks": 7,
          "midi": 64,
          "name": "E4",
          "ticks": 14329,
          "time": 166.61627906976744,
          "velocity": 0.11811023622047244
        },
        {
          "duration": 0.034883720930224626,
          "durationTicks": 3,
          "midi": 36,
          "name": "C2",
          "ticks": 14332,
          "time": 166.65116279069767,
          "velocity": 0.2992125984251969
        },
        {
          "duration": 0.06976744186047767,
          "durationTicks": 6,
          "midi": 48,
          "name": "C3",
          "ticks": 14333,
          "time": 166.6627906976744,
          "velocity": 0.30708661417322836
        },
        {
          "duration": 0.023255813953483084,
          "durationTicks": 2,
          "midi": 47,
          "name": "B2",
          "ticks": 14339,
          "time": 166.7325581395349,
          "velocity": 0.2992125984251969
        },
        {
          "duration": 0.24418604651162923,
          "durationTicks": 21,
          "midi": 76,
          "name": "E5",
          "ticks": 14340,
          "time": 166.74418604651163,
          "velocity": 0.1732283464566929
        },
        {
          "duration": 0.023255813953483084,
          "durationTicks": 2,
          "midi": 48,
          "name": "C3",
          "ticks": 14343,
          "time": 166.77906976744185,
          "velocity": 0.28346456692913385
        },
        {
          "duration": 0.16279069767443843,
          "durationTicks": 14,
          "midi": 64,
          "name": "E4",
          "ticks": 14343,
          "time": 166.77906976744185,
          "velocity": 0.13385826771653545
        },
        {
          "duration": 0.10465116279067388,
          "durationTicks": 9,
          "midi": 48,
          "name": "C3",
          "ticks": 14346,
          "time": 166.8139534883721,
          "velocity": 0.31496062992125984
        },
        {
          "duration": 0.2325581395348877,
          "durationTicks": 20,
          "midi": 67,
          "name": "G4",
          "ticks": 14350,
          "time": 166.86046511627907,
          "velocity": 0.1968503937007874
        },
        {
          "duration": 0.08139534883721922,
          "durationTicks": 7,
          "midi": 91,
          "name": "G6",
          "ticks": 14352,
          "time": 166.88372093023256,
          "velocity": 0.08661417322834646
        },
        {
          "duration": 0.023255813953483084,
          "durationTicks": 2,
          "midi": 44,
          "name": "G#2",
          "ticks": 14358,
          "time": 166.95348837209303,
          "velocity": 0.33858267716535434
        },
        {
          "duration": 0.2674418604651123,
          "durationTicks": 23,
          "midi": 71,
          "name": "B4",
          "ticks": 14358,
          "time": 166.95348837209303,
          "velocity": 0.18110236220472442
        },
        {
          "duration": 0.3139534883720785,
          "durationTicks": 27,
          "midi": 64,
          "name": "E4",
          "ticks": 14359,
          "time": 166.96511627906978,
          "velocity": 0.25984251968503935
        },
        {
          "duration": 0.09302325581396076,
          "durationTicks": 8,
          "midi": 55,
          "name": "G3",
          "ticks": 14362,
          "time": 167,
          "velocity": 0.16535433070866143
        },
        {
          "duration": 0.09302325581396076,
          "durationTicks": 8,
          "midi": 36,
          "name": "C2",
          "ticks": 14363,
          "time": 167.01162790697674,
          "velocity": 0.23622047244094488
        },
        {
          "duration": 0.023255813953483084,
          "durationTicks": 2,
          "midi": 48,
          "name": "C3",
          "ticks": 14363,
          "time": 167.01162790697674,
          "velocity": 0.23622047244094488
        },
        {
          "duration": 0.1046511627907023,
          "durationTicks": 9,
          "midi": 48,
          "name": "C3",
          "ticks": 14366,
          "time": 167.04651162790697,
          "velocity": 0.23622047244094488
        },
        {
          "duration": 0.05813953488370771,
          "durationTicks": 5,
          "midi": 36,
          "name": "C2",
          "ticks": 14372,
          "time": 167.11627906976744,
          "velocity": 0.2283464566929134
        },
        {
          "duration": 0.11627906976744384,
          "durationTicks": 10,
          "midi": 91,
          "name": "G6",
          "ticks": 14372,
          "time": 167.11627906976744,
          "velocity": 0.08661417322834646
        },
        {
          "duration": 0.08139534883721922,
          "durationTicks": 7,
          "midi": 79,
          "name": "G5",
          "ticks": 14374,
          "time": 167.13953488372093,
          "velocity": 0.14960629921259844
        },
        {
          "duration": 0.08139534883721922,
          "durationTicks": 7,
          "midi": 36,
          "name": "C2",
          "ticks": 14384,
          "time": 167.25581395348837,
          "velocity": 0.2204724409448819
        },
        {
          "duration": 0.034883720930224626,
          "durationTicks": 3,
          "midi": 52,
          "name": "E3",
          "ticks": 14385,
          "time": 167.2674418604651,
          "velocity": 0.2204724409448819
        },
        {
          "duration": 0.034883720930224626,
          "durationTicks": 3,
          "midi": 52,
          "name": "E3",
          "ticks": 14389,
          "time": 167.3139534883721,
          "velocity": 0.2283464566929134
        },
        {
          "duration": 0.034883720930224626,
          "durationTicks": 3,
          "midi": 60,
          "name": "C4",
          "ticks": 14390,
          "time": 167.32558139534885,
          "velocity": 0.09448818897637795
        },
        {
          "duration": 0.023255813953483084,
          "durationTicks": 2,
          "midi": 53,
          "name": "F3",
          "ticks": 14392,
          "time": 167.34883720930233,
          "velocity": 0.2440944881889764
        },
        {
          "duration": 0.023255813953483084,
          "durationTicks": 2,
          "midi": 49,
          "name": "C#3",
          "ticks": 14394,
          "time": 167.37209302325581,
          "velocity": 0.2283464566929134
        },
        {
          "duration": 0.05813953488370771,
          "durationTicks": 5,
          "midi": 64,
          "name": "E4",
          "ticks": 14394,
          "time": 167.37209302325581,
          "velocity": 0.18110236220472442
        },
        {
          "duration": 0.06976744186047767,
          "durationTicks": 6,
          "midi": 37,
          "name": "C#2",
          "ticks": 14396,
          "time": 167.3953488372093,
          "velocity": 0.33858267716535434
        },
        {
          "duration": 0.034883720930224626,
          "durationTicks": 3,
          "midi": 55,
          "name": "G3",
          "ticks": 14401,
          "time": 167.45348837209303,
          "velocity": 0.16535433070866143
        },
        {
          "duration": 0.11627906976744384,
          "durationTicks": 10,
          "midi": 67,
          "name": "G4",
          "ticks": 14401,
          "time": 167.45348837209303,
          "velocity": 0.2204724409448819
        },
        {
          "duration": 0.1860465116278931,
          "durationTicks": 16,
          "midi": 37,
          "name": "C#2",
          "ticks": 14404,
          "time": 167.48837209302326,
          "velocity": 0.30708661417322836
        },
        {
          "duration": 0.03488372093025305,
          "durationTicks": 3,
          "midi": 64,
          "name": "E4",
          "ticks": 14409,
          "time": 167.54651162790697,
          "velocity": 0.2440944881889764
        },
        {
          "duration": 0.034883720930224626,
          "durationTicks": 3,
          "midi": 53,
          "name": "F3",
          "ticks": 14411,
          "time": 167.56976744186048,
          "velocity": 0.2283464566929134
        },
        {
          "duration": 0.034883720930224626,
          "durationTicks": 3,
          "midi": 67,
          "name": "G4",
          "ticks": 14413,
          "time": 167.59302325581396,
          "velocity": 0.14173228346456693
        },
        {
          "duration": 0.6395348837209269,
          "durationTicks": 55,
          "midi": 74,
          "name": "D5",
          "ticks": 14419,
          "time": 167.6627906976744,
          "velocity": 0.16535433070866143
        },
        {
          "duration": 0.19767441860466306,
          "durationTicks": 17,
          "midi": 66,
          "name": "F#4",
          "ticks": 14420,
          "time": 167.67441860465115,
          "velocity": 0.18110236220472442
        },
        {
          "duration": 0.023255813953511506,
          "durationTicks": 2,
          "midi": 44,
          "name": "G#2",
          "ticks": 14421,
          "time": 167.6860465116279,
          "velocity": 0.29133858267716534
        },
        {
          "duration": 0.22093023255814614,
          "durationTicks": 19,
          "midi": 50,
          "name": "D3",
          "ticks": 14421,
          "time": 167.6860465116279,
          "velocity": 0.25984251968503935
        },
        {
          "duration": 0.023255813953483084,
          "durationTicks": 2,
          "midi": 37,
          "name": "C#2",
          "ticks": 14423,
          "time": 167.7093023255814,
          "velocity": 0.33858267716535434
        },
        {
          "duration": 0.09302325581396076,
          "durationTicks": 8,
          "midi": 90,
          "name": "F#6",
          "ticks": 14425,
          "time": 167.7325581395349,
          "velocity": 0.15748031496062992
        },
        {
          "duration": 0.12790697674418539,
          "durationTicks": 11,
          "midi": 38,
          "name": "D2",
          "ticks": 14427,
          "time": 167.75581395348837,
          "velocity": 0.29133858267716534
        },
        {
          "duration": 0.11627906976744384,
          "durationTicks": 10,
          "midi": 57,
          "name": "A3",
          "ticks": 14429,
          "time": 167.77906976744185,
          "velocity": 0.16535433070866143
        },
        {
          "duration": 0.034883720930224626,
          "durationTicks": 3,
          "midi": 90,
          "name": "F#6",
          "ticks": 14438,
          "time": 167.88372093023256,
          "velocity": 0.07874015748031496
        },
        {
          "duration": 0.023255813953483084,
          "durationTicks": 2,
          "midi": 57,
          "name": "A3",
          "ticks": 14440,
          "time": 167.90697674418604,
          "velocity": 0.25196850393700787
        },
        {
          "duration": 0.023255813953511506,
          "durationTicks": 2,
          "midi": 38,
          "name": "D2",
          "ticks": 14441,
          "time": 167.91860465116278,
          "velocity": 0.25984251968503935
        },
        {
          "duration": 0.023255813953511506,
          "durationTicks": 2,
          "midi": 45,
          "name": "A2",
          "ticks": 14441,
          "time": 167.91860465116278,
          "velocity": 0.2677165354330709
        },
        {
          "duration": 0.023255813953483084,
          "durationTicks": 2,
          "midi": 41,
          "name": "F2",
          "ticks": 14443,
          "time": 167.9418604651163,
          "velocity": 0.33858267716535434
        },
        {
          "duration": 0.05813953488370771,
          "durationTicks": 5,
          "midi": 57,
          "name": "A3",
          "ticks": 14443,
          "time": 167.9418604651163,
          "velocity": 0.1732283464566929
        },
        {
          "duration": 0.19767441860463464,
          "durationTicks": 17,
          "midi": 62,
          "name": "D4",
          "ticks": 14443,
          "time": 167.9418604651163,
          "velocity": 0.13385826771653545
        },
        {
          "duration": 0.06976744186044925,
          "durationTicks": 6,
          "midi": 38,
          "name": "D2",
          "ticks": 14444,
          "time": 167.95348837209303,
          "velocity": 0.2992125984251969
        },
        {
          "duration": 0.05813953488370771,
          "durationTicks": 5,
          "midi": 50,
          "name": "D3",
          "ticks": 14448,
          "time": 168,
          "velocity": 0.31496062992125984
        },
        {
          "duration": 0.15116279069766847,
          "durationTicks": 13,
          "midi": 66,
          "name": "F#4",
          "ticks": 14450,
          "time": 168.02325581395348,
          "velocity": 0.16535433070866143
        },
        {
          "duration": 0.023255813953483084,
          "durationTicks": 2,
          "midi": 38,
          "name": "D2",
          "ticks": 14458,
          "time": 168.11627906976744,
          "velocity": 0.28346456692913385
        },
        {
          "duration": 0.023255813953483084,
          "durationTicks": 2,
          "midi": 45,
          "name": "A2",
          "ticks": 14460,
          "time": 168.13953488372093,
          "velocity": 0.33070866141732286
        },
        {
          "duration": 0.05813953488373613,
          "durationTicks": 5,
          "midi": 45,
          "name": "A2",
          "ticks": 14464,
          "time": 168.1860465116279,
          "velocity": 0.3228346456692913
        },
        {
          "duration": 0.0813953488371908,
          "durationTicks": 7,
          "midi": 62,
          "name": "D4",
          "ticks": 14465,
          "time": 168.19767441860466,
          "velocity": 0.08661417322834646
        },
        {
          "duration": 0.04651162790696617,
          "durationTicks": 4,
          "midi": 45,
          "name": "A2",
          "ticks": 14470,
          "time": 168.25581395348837,
          "velocity": 0.2283464566929134
        },
        {
          "duration": 0.08139534883721922,
          "durationTicks": 7,
          "midi": 60,
          "name": "C4",
          "ticks": 14472,
          "time": 168.27906976744185,
          "velocity": 0.14173228346456693
        },
        {
          "duration": 0.023255813953511506,
          "durationTicks": 2,
          "midi": 46,
          "name": "A#2",
          "ticks": 14474,
          "time": 168.30232558139534,
          "velocity": 0.23622047244094488
        },
        {
          "duration": 0.034883720930224626,
          "durationTicks": 3,
          "midi": 44,
          "name": "G#2",
          "ticks": 14480,
          "time": 168.37209302325581,
          "velocity": 0.4251968503937008
        },
        {
          "duration": 0.11627906976744384,
          "durationTicks": 10,
          "midi": 64,
          "name": "E4",
          "ticks": 14480,
          "time": 168.37209302325581,
          "velocity": 0.2440944881889764
        },
        {
          "duration": 0.11627906976744384,
          "durationTicks": 10,
          "midi": 57,
          "name": "A3",
          "ticks": 14481,
          "time": 168.38372093023256,
          "velocity": 0.2047244094488189
        },
        {
          "duration": 0.19767441860466306,
          "durationTicks": 17,
          "midi": 45,
          "name": "A2",
          "ticks": 14483,
          "time": 168.40697674418604,
          "velocity": 0.4251968503937008
        },
        {
          "duration": 0.16279069767443843,
          "durationTicks": 14,
          "midi": 74,
          "name": "D5",
          "ticks": 14485,
          "time": 168.43023255813952,
          "velocity": 0.09448818897637795
        },
        {
          "duration": 0.04651162790696617,
          "durationTicks": 4,
          "midi": 54,
          "name": "F#3",
          "ticks": 14492,
          "time": 168.51162790697674,
          "velocity": 0.2125984251968504
        },
        {
          "duration": 0.034883720930224626,
          "durationTicks": 3,
          "midi": 66,
          "name": "F#4",
          "ticks": 14498,
          "time": 168.58139534883722,
          "velocity": 0.09448818897637795
        },
        {
          "duration": 0.17441860465115155,
          "durationTicks": 15,
          "midi": 57,
          "name": "A3",
          "ticks": 14502,
          "time": 168.62790697674419,
          "velocity": 0.2283464566929134
        },
        {
          "duration": 0.034883720930224626,
          "durationTicks": 3,
          "midi": 38,
          "name": "D2",
          "ticks": 14503,
          "time": 168.63953488372093,
          "velocity": 0.30708661417322836
        },
        {
          "duration": 0.09302325581396076,
          "durationTicks": 8,
          "midi": 62,
          "name": "D4",
          "ticks": 14504,
          "time": 168.65116279069767,
          "velocity": 0.11811023622047244
        },
        {
          "duration": 0.06976744186047767,
          "durationTicks": 6,
          "midi": 38,
          "name": "D2",
          "ticks": 14507,
          "time": 168.6860465116279,
          "velocity": 0.30708661417322836
        },
        {
          "duration": 0.08139534883721922,
          "durationTicks": 7,
          "midi": 38,
          "name": "D2",
          "ticks": 14514,
          "time": 168.7674418604651,
          "velocity": 0.2992125984251969
        },
        {
          "duration": 0.04651162790699459,
          "durationTicks": 4,
          "midi": 50,
          "name": "D3",
          "ticks": 14517,
          "time": 168.80232558139534,
          "velocity": 0.30708661417322836
        },
        {
          "duration": 0.034883720930224626,
          "durationTicks": 3,
          "midi": 55,
          "name": "G3",
          "ticks": 14521,
          "time": 168.84883720930233,
          "velocity": 0.1968503937007874
        },
        {
          "duration": 0.023255813953483084,
          "durationTicks": 2,
          "midi": 40,
          "name": "E2",
          "ticks": 14522,
          "time": 168.86046511627907,
          "velocity": 0.36220472440944884
        },
        {
          "duration": 0.023255813953483084,
          "durationTicks": 2,
          "midi": 49,
          "name": "C#3",
          "ticks": 14522,
          "time": 168.86046511627907,
          "velocity": 0.25984251968503935
        },
        {
          "duration": 0.06976744186047767,
          "durationTicks": 6,
          "midi": 66,
          "name": "F#4",
          "ticks": 14523,
          "time": 168.87209302325581,
          "velocity": 0.11023622047244094
        },
        {
          "duration": 0.023255813953483084,
          "durationTicks": 2,
          "midi": 50,
          "name": "D3",
          "ticks": 14524,
          "time": 168.88372093023256,
          "velocity": 0.25196850393700787
        },
        {
          "duration": 0.04651162790696617,
          "durationTicks": 4,
          "midi": 64,
          "name": "E4",
          "ticks": 14529,
          "time": 168.9418604651163,
          "velocity": 0.1889763779527559
        },
        {
          "duration": 0.0813953488371908,
          "durationTicks": 7,
          "midi": 69,
          "name": "A4",
          "ticks": 14529,
          "time": 168.9418604651163,
          "velocity": 0.1732283464566929
        },
        {
          "duration": 0.023255813953483084,
          "durationTicks": 2,
          "midi": 51,
          "name": "D#3",
          "ticks": 14530,
          "time": 168.95348837209303,
          "velocity": 0.28346456692913385
        },
        {
          "duration": 0.023255813953483084,
          "durationTicks": 2,
          "midi": 45,
          "name": "A2",
          "ticks": 14531,
          "time": 168.96511627906978,
          "velocity": 0.33858267716535434
        },
        {
          "duration": 0.09302325581396076,
          "durationTicks": 8,
          "midi": 66,
          "name": "F#4",
          "ticks": 14532,
          "time": 168.97674418604652,
          "velocity": 0.07874015748031496
        },
        {
          "duration": 0.023255813953483084,
          "durationTicks": 2,
          "midi": 45,
          "name": "A2",
          "ticks": 14534,
          "time": 169,
          "velocity": 0.2992125984251969
        },
        {
          "duration": 0.034883720930224626,
          "durationTicks": 3,
          "midi": 64,
          "name": "E4",
          "ticks": 14540,
          "time": 169.06976744186048,
          "velocity": 0.07874015748031496
        },
        {
          "duration": 0.023255813953483084,
          "durationTicks": 2,
          "midi": 41,
          "name": "F2",
          "ticks": 14541,
          "time": 169.08139534883722,
          "velocity": 0.4330708661417323
        },
        {
          "duration": 0.03488372093025305,
          "durationTicks": 3,
          "midi": 45,
          "name": "A2",
          "ticks": 14548,
          "time": 169.1627906976744,
          "velocity": 0.3228346456692913
        },
        {
          "duration": 0.05813953488370771,
          "durationTicks": 5,
          "midi": 60,
          "name": "C4",
          "ticks": 14554,
          "time": 169.2325581395349,
          "velocity": 0.18110236220472442
        },
        {
          "duration": 0.04651162790699459,
          "durationTicks": 4,
          "midi": 69,
          "name": "A4",
          "ticks": 14560,
          "time": 169.30232558139534,
          "velocity": 0.11811023622047244
        },
        {
          "duration": 0.05813953488370771,
          "durationTicks": 5,
          "midi": 57,
          "name": "A3",
          "ticks": 14561,
          "time": 169.3139534883721,
          "velocity": 0.23622047244094488
        },
        {
          "duration": 0.023255813953483084,
          "durationTicks": 2,
          "midi": 44,
          "name": "G#2",
          "ticks": 14562,
          "time": 169.32558139534885,
          "velocity": 0.4330708661417323
        },
        {
          "duration": 0.04651162790696617,
          "durationTicks": 4,
          "midi": 45,
          "name": "A2",
          "ticks": 14564,
          "time": 169.34883720930233,
          "velocity": 0.4015748031496063
        },
        {
          "duration": 0.023255813953483084,
          "durationTicks": 2,
          "midi": 41,
          "name": "F2",
          "ticks": 14572,
          "time": 169.4418604651163,
          "velocity": 0.4330708661417323
        },
        {
          "duration": 0.0813953488371908,
          "durationTicks": 7,
          "midi": 57,
          "name": "A3",
          "ticks": 14573,
          "time": 169.45348837209303,
          "velocity": 0.2204724409448819
        },
        {
          "duration": 0.0813953488371908,
          "durationTicks": 7,
          "midi": 64,
          "name": "E4",
          "ticks": 14573,
          "time": 169.45348837209303,
          "velocity": 0.13385826771653545
        },
        {
          "duration": 0.06976744186044925,
          "durationTicks": 6,
          "midi": 45,
          "name": "A2",
          "ticks": 14575,
          "time": 169.47674418604652,
          "velocity": 0.3700787401574803
        },
        {
          "duration": 0.03488372093025305,
          "durationTicks": 3,
          "midi": 44,
          "name": "G#2",
          "ticks": 14581,
          "time": 169.54651162790697,
          "velocity": 0.3543307086614173
        },
        {
          "duration": 0.09302325581396076,
          "durationTicks": 8,
          "midi": 57,
          "name": "A3",
          "ticks": 14582,
          "time": 169.5581395348837,
          "velocity": 0.11023622047244094
        },
        {
          "duration": 0.023255813953483084,
          "durationTicks": 2,
          "midi": 38,
          "name": "D2",
          "ticks": 14591,
          "time": 169.6627906976744,
          "velocity": 0.28346456692913385
        },
        {
          "duration": 0.023255813953483084,
          "durationTicks": 2,
          "midi": 38,
          "name": "D2",
          "ticks": 14598,
          "time": 169.74418604651163,
          "velocity": 0.29133858267716534
        },
        {
          "duration": 0.06976744186047767,
          "durationTicks": 6,
          "midi": 57,
          "name": "A3",
          "ticks": 14603,
          "time": 169.80232558139534,
          "velocity": 0.12598425196850394
        },
        {
          "duration": 0.06976744186047767,
          "durationTicks": 6,
          "midi": 66,
          "name": "F#4",
          "ticks": 14603,
          "time": 169.80232558139534,
          "velocity": 0.10236220472440945
        },
        {
          "duration": 0.023255813953483084,
          "durationTicks": 2,
          "midi": 38,
          "name": "D2",
          "ticks": 14605,
          "time": 169.82558139534885,
          "velocity": 0.2755905511811024
        },
        {
          "duration": 0.05813953488373613,
          "durationTicks": 5,
          "midi": 64,
          "name": "E4",
          "ticks": 14610,
          "time": 169.88372093023256,
          "velocity": 0.15748031496062992
        },
        {
          "duration": 0.034883720930224626,
          "durationTicks": 3,
          "midi": 69,
          "name": "A4",
          "ticks": 14610,
          "time": 169.88372093023256,
          "velocity": 0.09448818897637795
        },
        {
          "duration": 0.04651162790699459,
          "durationTicks": 4,
          "midi": 44,
          "name": "G#2",
          "ticks": 14612,
          "time": 169.90697674418604,
          "velocity": 0.28346456692913385
        },
        {
          "duration": 0.03488372093025305,
          "durationTicks": 3,
          "midi": 53,
          "name": "F3",
          "ticks": 14613,
          "time": 169.91860465116278,
          "velocity": 0.10236220472440945
        },
        {
          "duration": 0.034883720930224626,
          "durationTicks": 3,
          "midi": 57,
          "name": "A3",
          "ticks": 14619,
          "time": 169.98837209302326,
          "velocity": 0.11023622047244094
        },
        {
          "duration": 0.023255813953511506,
          "durationTicks": 2,
          "midi": 45,
          "name": "A2",
          "ticks": 14625,
          "time": 170.0581395348837,
          "velocity": 0.2755905511811024
        },
        {
          "duration": 0.09302325581393234,
          "durationTicks": 8,
          "midi": 57,
          "name": "A3",
          "ticks": 14627,
          "time": 170.08139534883722,
          "velocity": 0.18110236220472442
        },
        {
          "duration": 0.11627906976744384,
          "durationTicks": 10,
          "midi": 45,
          "name": "A2",
          "ticks": 14628,
          "time": 170.09302325581396,
          "velocity": 0.2992125984251969
        },
        {
          "duration": 0.04651162790699459,
          "durationTicks": 4,
          "midi": 60,
          "name": "C4",
          "ticks": 14634,
          "time": 170.1627906976744,
          "velocity": 0.12598425196850394
        },
        {
          "duration": 0.20930232558137618,
          "durationTicks": 18,
          "midi": 64,
          "name": "E4",
          "ticks": 14638,
          "time": 170.2093023255814,
          "velocity": 0.25984251968503935
        },
        {
          "duration": 0.034883720930224626,
          "durationTicks": 3,
          "midi": 47,
          "name": "B2",
          "ticks": 14639,
          "time": 170.22093023255815,
          "velocity": 0.3464566929133858
        },
        {
          "duration": 0.034883720930224626,
          "durationTicks": 3,
          "midi": 70,
          "name": "A#4",
          "ticks": 14639,
          "time": 170.22093023255815,
          "velocity": 0.2047244094488189
        },
        {
          "duration": 0.023255813953483084,
          "durationTicks": 2,
          "midi": 58,
          "name": "A#3",
          "ticks": 14641,
          "time": 170.24418604651163,
          "velocity": 0.23622047244094488
        },
        {
          "duration": 0.023255813953483084,
          "durationTicks": 2,
          "midi": 44,
          "name": "G#2",
          "ticks": 14642,
          "time": 170.25581395348837,
          "velocity": 0.4251968503937008
        },
        {
          "duration": 0.16279069767441,
          "durationTicks": 14,
          "midi": 57,
          "name": "A3",
          "ticks": 14643,
          "time": 170.2674418604651,
          "velocity": 0.2677165354330709
        },
        {
          "duration": 0.2093023255814046,
          "durationTicks": 18,
          "midi": 45,
          "name": "A2",
          "ticks": 14646,
          "time": 170.30232558139534,
          "velocity": 0.3464566929133858
        },
        {
          "duration": 0.19767441860463464,
          "durationTicks": 17,
          "midi": 64,
          "name": "E4",
          "ticks": 14662,
          "time": 170.48837209302326,
          "velocity": 0.12598425196850394
        },
        {
          "duration": 0.18604651162792152,
          "durationTicks": 16,
          "midi": 38,
          "name": "D2",
          "ticks": 14665,
          "time": 170.52325581395348,
          "velocity": 0.30708661417322836
        },
        {
          "duration": 0.05813953488370771,
          "durationTicks": 5,
          "midi": 64,
          "name": "E4",
          "ticks": 14680,
          "time": 170.69767441860466,
          "velocity": 0.2440944881889764
        },
        {
          "duration": 0.04651162790696617,
          "durationTicks": 4,
          "midi": 69,
          "name": "A4",
          "ticks": 14681,
          "time": 170.7093023255814,
          "velocity": 0.09448818897637795
        },
        {
          "duration": 0.0813953488371908,
          "durationTicks": 7,
          "midi": 38,
          "name": "D2",
          "ticks": 14682,
          "time": 170.72093023255815,
          "velocity": 0.30708661417322836
        },
        {
          "duration": 0.05813953488370771,
          "durationTicks": 5,
          "midi": 62,
          "name": "D4",
          "ticks": 14690,
          "time": 170.8139534883721,
          "velocity": 0.2283464566929134
        },
        {
          "duration": 0.09302325581393234,
          "durationTicks": 8,
          "midi": 69,
          "name": "A4",
          "ticks": 14690,
          "time": 170.8139534883721,
          "velocity": 0.25984251968503935
        },
        {
          "duration": 0.023255813953483084,
          "durationTicks": 2,
          "midi": 49,
          "name": "C#3",
          "ticks": 14692,
          "time": 170.8372093023256,
          "velocity": 0.3464566929133858
        },
        {
          "duration": 0.034883720930224626,
          "durationTicks": 3,
          "midi": 50,
          "name": "D3",
          "ticks": 14694,
          "time": 170.86046511627907,
          "velocity": 0.23622047244094488
        },
        {
          "duration": 0.023255813953511506,
          "durationTicks": 2,
          "midi": 41,
          "name": "F2",
          "ticks": 14699,
          "time": 170.91860465116278,
          "velocity": 0.25984251968503935
        },
        {
          "duration": 0.023255813953511506,
          "durationTicks": 2,
          "midi": 50,
          "name": "D3",
          "ticks": 14700,
          "time": 170.93023255813952,
          "velocity": 0.2283464566929134
        },
        {
          "duration": 0.04651162790699459,
          "durationTicks": 4,
          "midi": 50,
          "name": "D3",
          "ticks": 14710,
          "time": 171.04651162790697,
          "velocity": 0.2992125984251969
        },
        {
          "duration": 0.03488372093025305,
          "durationTicks": 3,
          "midi": 57,
          "name": "A3",
          "ticks": 14710,
          "time": 171.04651162790697,
          "velocity": 0.16535433070866143
        },
        {
          "duration": 0.023255813953483084,
          "durationTicks": 2,
          "midi": 36,
          "name": "C2",
          "ticks": 14712,
          "time": 171.06976744186048,
          "velocity": 0.3937007874015748
        },
        {
          "duration": 0.034883720930224626,
          "durationTicks": 3,
          "midi": 39,
          "name": "D#2",
          "ticks": 14717,
          "time": 171.12790697674419,
          "velocity": 0.2992125984251969
        },
        {
          "duration": 0.04651162790699459,
          "durationTicks": 4,
          "midi": 69,
          "name": "A4",
          "ticks": 14720,
          "time": 171.1627906976744,
          "velocity": 0.25196850393700787
        },
        {
          "duration": 0.023255813953511506,
          "durationTicks": 2,
          "midi": 50,
          "name": "D3",
          "ticks": 14721,
          "time": 171.17441860465115,
          "velocity": 0.3464566929133858
        },
        {
          "duration": 0.023255813953511506,
          "durationTicks": 2,
          "midi": 43,
          "name": "G2",
          "ticks": 14722,
          "time": 171.1860465116279,
          "velocity": 0.31496062992125984
        },
        {
          "duration": 0.023255813953483084,
          "durationTicks": 2,
          "midi": 53,
          "name": "F3",
          "ticks": 14723,
          "time": 171.19767441860466,
          "velocity": 0.25984251968503935
        },
        {
          "duration": 0.023255813953483084,
          "durationTicks": 2,
          "midi": 41,
          "name": "F2",
          "ticks": 14724,
          "time": 171.2093023255814,
          "velocity": 0.3700787401574803
        },
        {
          "duration": 0.023255813953511506,
          "durationTicks": 2,
          "midi": 37,
          "name": "C#2",
          "ticks": 14732,
          "time": 171.30232558139534,
          "velocity": 0.3779527559055118
        },
        {
          "duration": 0.1046511627907023,
          "durationTicks": 9,
          "midi": 66,
          "name": "F#4",
          "ticks": 14732,
          "time": 171.30232558139534,
          "velocity": 0.12598425196850394
        },
        {
          "duration": 0.023255813953483084,
          "durationTicks": 2,
          "midi": 38,
          "name": "D2",
          "ticks": 14735,
          "time": 171.3372093023256,
          "velocity": 0.2992125984251969
        },
        {
          "duration": 0.023255813953483084,
          "durationTicks": 2,
          "midi": 39,
          "name": "D#2",
          "ticks": 14737,
          "time": 171.36046511627907,
          "velocity": 0.30708661417322836
        },
        {
          "duration": 0.023255813953483084,
          "durationTicks": 2,
          "midi": 56,
          "name": "G#3",
          "ticks": 14741,
          "time": 171.40697674418604,
          "velocity": 0.25196850393700787
        },
        {
          "duration": 0.03488372093025305,
          "durationTicks": 3,
          "midi": 64,
          "name": "E4",
          "ticks": 14741,
          "time": 171.40697674418604,
          "velocity": 0.1968503937007874
        },
        {
          "duration": 0.023255813953511506,
          "durationTicks": 2,
          "midi": 50,
          "name": "D3",
          "ticks": 14742,
          "time": 171.41860465116278,
          "velocity": 0.29133858267716534
        },
        {
          "duration": 0.34883720930233153,
          "durationTicks": 30,
          "midi": 57,
          "name": "A3",
          "ticks": 14743,
          "time": 171.43023255813952,
          "velocity": 0.23622047244094488
        },
        {
          "duration": 0.023255813953483084,
          "durationTicks": 2,
          "midi": 38,
          "name": "D2",
          "ticks": 14744,
          "time": 171.4418604651163,
          "velocity": 0.3228346456692913
        },
        {
          "duration": 0.034883720930224626,
          "durationTicks": 3,
          "midi": 65,
          "name": "F4",
          "ticks": 14744,
          "time": 171.4418604651163,
          "velocity": 0.11811023622047244
        },
        {
          "duration": 0.034883720930224626,
          "durationTicks": 3,
          "midi": 38,
          "name": "D2",
          "ticks": 14747,
          "time": 171.47674418604652,
          "velocity": 0.3464566929133858
        },
        {
          "duration": 0.04651162790696617,
          "durationTicks": 4,
          "midi": 64,
          "name": "E4",
          "ticks": 14749,
          "time": 171.5,
          "velocity": 0.13385826771653545
        },
        {
          "duration": 0.023255813953483084,
          "durationTicks": 2,
          "midi": 50,
          "name": "D3",
          "ticks": 14750,
          "time": 171.51162790697674,
          "velocity": 0.23622047244094488
        },
        {
          "duration": 0.023255813953483084,
          "durationTicks": 2,
          "midi": 38,
          "name": "D2",
          "ticks": 14751,
          "time": 171.52325581395348,
          "velocity": 0.31496062992125984
        },
        {
          "duration": 0.03488372093025305,
          "durationTicks": 3,
          "midi": 38,
          "name": "D2",
          "ticks": 14754,
          "time": 171.5581395348837,
          "velocity": 0.33858267716535434
        },
        {
          "duration": 0.023255813953483084,
          "durationTicks": 2,
          "midi": 50,
          "name": "D3",
          "ticks": 14757,
          "time": 171.59302325581396,
          "velocity": 0.2283464566929134
        },
        {
          "duration": 0.11627906976744384,
          "durationTicks": 10,
          "midi": 93,
          "name": "A6",
          "ticks": 14757,
          "time": 171.59302325581396,
          "velocity": 0.08661417322834646
        },
        {
          "duration": 0.023255813953483084,
          "durationTicks": 2,
          "midi": 38,
          "name": "D2",
          "ticks": 14758,
          "time": 171.6046511627907,
          "velocity": 0.31496062992125984
        },
        {
          "duration": 0.034883720930224626,
          "durationTicks": 3,
          "midi": 64,
          "name": "E4",
          "ticks": 14760,
          "time": 171.62790697674419,
          "velocity": 0.07086614173228346
        },
        {
          "duration": 0.04651162790696617,
          "durationTicks": 4,
          "midi": 38,
          "name": "D2",
          "ticks": 14761,
          "time": 171.63953488372093,
          "velocity": 0.3543307086614173
        },
        {
          "duration": 0.12790697674418539,
          "durationTicks": 11,
          "midi": 78,
          "name": "F#5",
          "ticks": 14761,
          "time": 171.63953488372093,
          "velocity": 0.13385826771653545
        },
        {
          "duration": 0.034883720930224626,
          "durationTicks": 3,
          "midi": 38,
          "name": "D2",
          "ticks": 14766,
          "time": 171.69767441860466,
          "velocity": 0.31496062992125984
        },
        {
          "duration": 0.05813953488370771,
          "durationTicks": 5,
          "midi": 66,
          "name": "F#4",
          "ticks": 14766,
          "time": 171.69767441860466,
          "velocity": 0.12598425196850394
        },
        {
          "duration": 0.023255813953483084,
          "durationTicks": 2,
          "midi": 44,
          "name": "G#2",
          "ticks": 14772,
          "time": 171.7674418604651,
          "velocity": 0.3543307086614173
        },
        {
          "duration": 0.06976744186047767,
          "durationTicks": 6,
          "midi": 66,
          "name": "F#4",
          "ticks": 14772,
          "time": 171.7674418604651,
          "velocity": 0.15748031496062992
        },
        {
          "duration": 0.11627906976744384,
          "durationTicks": 10,
          "midi": 45,
          "name": "A2",
          "ticks": 14774,
          "time": 171.7906976744186,
          "velocity": 0.36220472440944884
        },
        {
          "duration": 0.16279069767441,
          "durationTicks": 14,
          "midi": 78,
          "name": "F#5",
          "ticks": 14781,
          "time": 171.87209302325581,
          "velocity": 0.1968503937007874
        },
        {
          "duration": 0.04651162790699459,
          "durationTicks": 4,
          "midi": 45,
          "name": "A2",
          "ticks": 14786,
          "time": 171.93023255813952,
          "velocity": 0.1889763779527559
        },
        {
          "duration": 0.023255813953483084,
          "durationTicks": 2,
          "midi": 46,
          "name": "A#2",
          "ticks": 14790,
          "time": 171.97674418604652,
          "velocity": 0.3543307086614173
        },
        {
          "duration": 0.023255813953483084,
          "durationTicks": 2,
          "midi": 44,
          "name": "G#2",
          "ticks": 14792,
          "time": 172,
          "velocity": 0.3937007874015748
        },
        {
          "duration": 0.05813953488373613,
          "durationTicks": 5,
          "midi": 45,
          "name": "A2",
          "ticks": 14794,
          "time": 172.02325581395348,
          "velocity": 0.3228346456692913
        },
        {
          "duration": 0.04651162790699459,
          "durationTicks": 4,
          "midi": 60,
          "name": "C4",
          "ticks": 14795,
          "time": 172.03488372093022,
          "velocity": 0.14960629921259844
        },
        {
          "duration": 0.023255813953483084,
          "durationTicks": 2,
          "midi": 44,
          "name": "G#2",
          "ticks": 14799,
          "time": 172.08139534883722,
          "velocity": 0.3937007874015748
        },
        {
          "duration": 0.034883720930224626,
          "durationTicks": 3,
          "midi": 61,
          "name": "C#4",
          "ticks": 14799,
          "time": 172.08139534883722,
          "velocity": 0.11811023622047244
        },
        {
          "duration": 0.034883720930224626,
          "durationTicks": 3,
          "midi": 69,
          "name": "A4",
          "ticks": 14800,
          "time": 172.09302325581396,
          "velocity": 0.16535433070866143
        },
        {
          "duration": 0.05813953488370771,
          "durationTicks": 5,
          "midi": 57,
          "name": "A3",
          "ticks": 14801,
          "time": 172.1046511627907,
          "velocity": 0.2125984251968504
        },
        {
          "duration": 0.1046511627907023,
          "durationTicks": 9,
          "midi": 78,
          "name": "F#5",
          "ticks": 14802,
          "time": 172.11627906976744,
          "velocity": 0.13385826771653545
        },
        {
          "duration": 0.034883720930224626,
          "durationTicks": 3,
          "midi": 45,
          "name": "A2",
          "ticks": 14803,
          "time": 172.12790697674419,
          "velocity": 0.3464566929133858
        },
        {
          "duration": 0.1046511627907023,
          "durationTicks": 9,
          "midi": 57,
          "name": "A3",
          "ticks": 14810,
          "time": 172.2093023255814,
          "velocity": 0.25984251968503935
        },
        {
          "duration": 0.05813953488370771,
          "durationTicks": 5,
          "midi": 64,
          "name": "E4",
          "ticks": 14811,
          "time": 172.22093023255815,
          "velocity": 0.1968503937007874
        },
        {
          "duration": 0.023255813953483084,
          "durationTicks": 2,
          "midi": 44,
          "name": "G#2",
          "ticks": 14812,
          "time": 172.2325581395349,
          "velocity": 0.41732283464566927
        },
        {
          "duration": 0.06976744186047767,
          "durationTicks": 6,
          "midi": 45,
          "name": "A2",
          "ticks": 14814,
          "time": 172.25581395348837,
          "velocity": 0.33858267716535434
        },
        {
          "duration": 0.05813953488373613,
          "durationTicks": 5,
          "midi": 66,
          "name": "F#4",
          "ticks": 14815,
          "time": 172.2674418604651,
          "velocity": 0.12598425196850394
        },
        {
          "duration": 0.023255813953483084,
          "durationTicks": 2,
          "midi": 46,
          "name": "A#2",
          "ticks": 14820,
          "time": 172.32558139534885,
          "velocity": 0.2440944881889764
        },
        {
          "duration": 0.22093023255811772,
          "durationTicks": 19,
          "midi": 76,
          "name": "E5",
          "ticks": 14820,
          "time": 172.32558139534885,
          "velocity": 0.1968503937007874
        },
        {
          "duration": 0.04651162790696617,
          "durationTicks": 4,
          "midi": 57,
          "name": "A3",
          "ticks": 14821,
          "time": 172.3372093023256,
          "velocity": 0.1732283464566929
        },
        {
          "duration": 0.09302325581396076,
          "durationTicks": 8,
          "midi": 64,
          "name": "E4",
          "ticks": 14822,
          "time": 172.34883720930233,
          "velocity": 0.16535433070866143
        },
        {
          "duration": 0.034883720930224626,
          "durationTicks": 3,
          "midi": 67,
          "name": "G4",
          "ticks": 14822,
          "time": 172.34883720930233,
          "velocity": 0.07874015748031496
        },
        {
          "duration": 0.023255813953483084,
          "durationTicks": 2,
          "midi": 38,
          "name": "D2",
          "ticks": 14825,
          "time": 172.38372093023256,
          "velocity": 0.2992125984251969
        },
        {
          "duration": 0.03488372093025305,
          "durationTicks": 3,
          "midi": 38,
          "name": "D2",
          "ticks": 14828,
          "time": 172.41860465116278,
          "velocity": 0.3228346456692913
        },
        {
          "duration": 0.023255813953483084,
          "durationTicks": 2,
          "midi": 38,
          "name": "D2",
          "ticks": 14832,
          "time": 172.46511627906978,
          "velocity": 0.2992125984251969
        },
        {
          "duration": 0.1860465116278931,
          "durationTicks": 16,
          "midi": 79,
          "name": "G5",
          "ticks": 14833,
          "time": 172.47674418604652,
          "velocity": 0.13385826771653545
        },
        {
          "duration": 0.034883720930224626,
          "durationTicks": 3,
          "midi": 38,
          "name": "D2",
          "ticks": 14835,
          "time": 172.5,
          "velocity": 0.31496062992125984
        },
        {
          "duration": 0.04651162790699459,
          "durationTicks": 4,
          "midi": 50,
          "name": "D3",
          "ticks": 14838,
          "time": 172.53488372093022,
          "velocity": 0.25196850393700787
        },
        {
          "duration": 0.023255813953511506,
          "durationTicks": 2,
          "midi": 38,
          "name": "D2",
          "ticks": 14839,
          "time": 172.54651162790697,
          "velocity": 0.30708661417322836
        },
        {
          "duration": 0.20930232558137618,
          "durationTicks": 18,
          "midi": 76,
          "name": "E5",
          "ticks": 14841,
          "time": 172.56976744186048,
          "velocity": 0.1889763779527559
        },
        {
          "duration": 0.09302325581393234,
          "durationTicks": 8,
          "midi": 38,
          "name": "D2",
          "ticks": 14842,
          "time": 172.58139534883722,
          "velocity": 0.30708661417322836
        },
        {
          "duration": 0.10465116279067388,
          "durationTicks": 9,
          "midi": 64,
          "name": "E4",
          "ticks": 14842,
          "time": 172.58139534883722,
          "velocity": 0.11811023622047244
        },
        {
          "duration": 0.03488372093025305,
          "durationTicks": 3,
          "midi": 61,
          "name": "C#4",
          "ticks": 14851,
          "time": 172.6860465116279,
          "velocity": 0.2125984251968504
        },
        {
          "duration": 0.2093023255814046,
          "durationTicks": 18,
          "midi": 79,
          "name": "G5",
          "ticks": 14851,
          "time": 172.6860465116279,
          "velocity": 0.13385826771653545
        },
        {
          "duration": 0.04651162790696617,
          "durationTicks": 4,
          "midi": 64,
          "name": "E4",
          "ticks": 14852,
          "time": 172.69767441860466,
          "velocity": 0.10236220472440945
        },
        {
          "duration": 0.06976744186044925,
          "durationTicks": 6,
          "midi": 66,
          "name": "F#4",
          "ticks": 14855,
          "time": 172.7325581395349,
          "velocity": 0.12598425196850394
        },
        {
          "duration": 0.034883720930224626,
          "durationTicks": 3,
          "midi": 50,
          "name": "D3",
          "ticks": 14857,
          "time": 172.75581395348837,
          "velocity": 0.16535433070866143
        },
        {
          "duration": 0.023255813953511506,
          "durationTicks": 2,
          "midi": 40,
          "name": "E2",
          "ticks": 14860,
          "time": 172.7906976744186,
          "velocity": 0.2677165354330709
        },
        {
          "duration": 0.023255813953511506,
          "durationTicks": 2,
          "midi": 73,
          "name": "C#5",
          "ticks": 14861,
          "time": 172.80232558139534,
          "velocity": 0.23622047244094488
        },
        {
          "duration": 0.023255813953483084,
          "durationTicks": 2,
          "midi": 39,
          "name": "D#2",
          "ticks": 14862,
          "time": 172.8139534883721,
          "velocity": 0.28346456692913385
        },
        {
          "duration": 0.12790697674418539,
          "durationTicks": 11,
          "midi": 76,
          "name": "E5",
          "ticks": 14862,
          "time": 172.8139534883721,
          "velocity": 0.1732283464566929
        },
        {
          "duration": 0.09302325581393234,
          "durationTicks": 8,
          "midi": 64,
          "name": "E4",
          "ticks": 14863,
          "time": 172.82558139534885,
          "velocity": 0.10236220472440945
        },
        {
          "duration": 0.023255813953483084,
          "durationTicks": 2,
          "midi": 42,
          "name": "F#2",
          "ticks": 14864,
          "time": 172.8372093023256,
          "velocity": 0.33858267716535434
        },
        {
          "duration": 0.03488372093025305,
          "durationTicks": 3,
          "midi": 60,
          "name": "C4",
          "ticks": 14871,
          "time": 172.91860465116278,
          "velocity": 0.14960629921259844
        },
        {
          "duration": 0.11627906976744384,
          "durationTicks": 10,
          "midi": 79,
          "name": "G5",
          "ticks": 14872,
          "time": 172.93023255813952,
          "velocity": 0.13385826771653545
        },
        {
          "duration": 0.023255813953483084,
          "durationTicks": 2,
          "midi": 36,
          "name": "C2",
          "ticks": 14873,
          "time": 172.9418604651163,
          "velocity": 0.4409448818897638
        },
        {
          "duration": 0.034883720930224626,
          "durationTicks": 3,
          "midi": 51,
          "name": "D#3",
          "ticks": 14875,
          "time": 172.96511627906978,
          "velocity": 0.11811023622047244
        },
        {
          "duration": 0.06976744186044925,
          "durationTicks": 6,
          "midi": 60,
          "name": "C4",
          "ticks": 14875,
          "time": 172.96511627906978,
          "velocity": 0.14173228346456693
        },
        {
          "duration": 0.05813953488370771,
          "durationTicks": 5,
          "midi": 40,
          "name": "E2",
          "ticks": 14877,
          "time": 172.98837209302326,
          "velocity": 0.31496062992125984
        },
        {
          "duration": 0.034883720930224626,
          "durationTicks": 3,
          "midi": 70,
          "name": "A#4",
          "ticks": 14880,
          "time": 173.02325581395348,
          "velocity": 0.18110236220472442
        },
        {
          "duration": 0.15116279069766847,
          "durationTicks": 13,
          "midi": 76,
          "name": "E5",
          "ticks": 14881,
          "time": 173.03488372093022,
          "velocity": 0.16535433070866143
        },
        {
          "duration": 0.023255813953511506,
          "durationTicks": 2,
          "midi": 37,
          "name": "C#2",
          "ticks": 14883,
          "time": 173.0581395348837,
          "velocity": 0.3700787401574803
        },
        {
          "duration": 0.023255813953511506,
          "durationTicks": 2,
          "midi": 50,
          "name": "D3",
          "ticks": 14883,
          "time": 173.0581395348837,
          "velocity": 0.2755905511811024
        },
        {
          "duration": 0.05813953488370771,
          "durationTicks": 5,
          "midi": 64,
          "name": "E4",
          "ticks": 14885,
          "time": 173.08139534883722,
          "velocity": 0.10236220472440945
        },
        {
          "duration": 0.023255813953483084,
          "durationTicks": 2,
          "midi": 37,
          "name": "C#2",
          "ticks": 14887,
          "time": 173.1046511627907,
          "velocity": 0.28346456692913385
        },
        {
          "duration": 0.04651162790699459,
          "durationTicks": 4,
          "midi": 66,
          "name": "F#4",
          "ticks": 14894,
          "time": 173.1860465116279,
          "velocity": 0.07874015748031496
        },
        {
          "duration": 0.1046511627907023,
          "durationTicks": 9,
          "midi": 78,
          "name": "F#5",
          "ticks": 14896,
          "time": 173.2093023255814,
          "velocity": 0.11023622047244094
        },
        {
          "duration": 0.023255813953483084,
          "durationTicks": 2,
          "midi": 38,
          "name": "D2",
          "ticks": 14897,
          "time": 173.22093023255815,
          "velocity": 0.2677165354330709
        },
        {
          "duration": 0.27906976744185386,
          "durationTicks": 24,
          "midi": 57,
          "name": "A3",
          "ticks": 14901,
          "time": 173.2674418604651,
          "velocity": 0.28346456692913385
        },
        {
          "duration": 0.034883720930224626,
          "durationTicks": 3,
          "midi": 62,
          "name": "D4",
          "ticks": 14901,
          "time": 173.2674418604651,
          "velocity": 0.07086614173228346
        },
        {
          "duration": 0.11627906976744384,
          "durationTicks": 10,
          "midi": 50,
          "name": "D3",
          "ticks": 14903,
          "time": 173.2906976744186,
          "velocity": 0.2755905511811024
        },
        {
          "duration": 0.09302325581396076,
          "durationTicks": 8,
          "midi": 74,
          "name": "D5",
          "ticks": 14903,
          "time": 173.2906976744186,
          "velocity": 0.13385826771653545
        },
        {
          "duration": 0.2906976744185954,
          "durationTicks": 25,
          "midi": 38,
          "name": "D2",
          "ticks": 14905,
          "time": 173.3139534883721,
          "velocity": 0.31496062992125984
        },
        {
          "duration": 0.06976744186047767,
          "durationTicks": 6,
          "midi": 66,
          "name": "F#4",
          "ticks": 14912,
          "time": 173.3953488372093,
          "velocity": 0.07874015748031496
        },
        {
          "duration": 0.12790697674418539,
          "durationTicks": 11,
          "midi": 90,
          "name": "F#6",
          "ticks": 14912,
          "time": 173.3953488372093,
          "velocity": 0.14173228346456693
        },
        {
          "duration": 0.04651162790696617,
          "durationTicks": 4,
          "midi": 78,
          "name": "F#5",
          "ticks": 14920,
          "time": 173.48837209302326,
          "velocity": 0.10236220472440945
        },
        {
          "duration": 0.023255813953483084,
          "durationTicks": 2,
          "midi": 45,
          "name": "A2",
          "ticks": 14931,
          "time": 173.61627906976744,
          "velocity": 0.33858267716535434
        },
        {
          "duration": 0.05813953488373613,
          "durationTicks": 5,
          "midi": 64,
          "name": "E4",
          "ticks": 14933,
          "time": 173.63953488372093,
          "velocity": 0.18110236220472442
        },
        {
          "duration": 0.11627906976744384,
          "durationTicks": 10,
          "midi": 78,
          "name": "F#5",
          "ticks": 14933,
          "time": 173.63953488372093,
          "velocity": 0.10236220472440945
        },
        {
          "duration": 0.05813953488373613,
          "durationTicks": 5,
          "midi": 57,
          "name": "A3",
          "ticks": 14934,
          "time": 173.65116279069767,
          "velocity": 0.23622047244094488
        },
        {
          "duration": 0.08139534883721922,
          "durationTicks": 7,
          "midi": 45,
          "name": "A2",
          "ticks": 14935,
          "time": 173.6627906976744,
          "velocity": 0.3858267716535433
        },
        {
          "duration": 0.04651162790699459,
          "durationTicks": 4,
          "midi": 90,
          "name": "F#6",
          "ticks": 14937,
          "time": 173.6860465116279,
          "velocity": 0.11023622047244094
        },
        {
          "duration": 0.12790697674418539,
          "durationTicks": 11,
          "midi": 74,
          "name": "D5",
          "ticks": 14942,
          "time": 173.74418604651163,
          "velocity": 0.2440944881889764
        },
        {
          "duration": 0.04651162790696617,
          "durationTicks": 4,
          "midi": 62,
          "name": "D4",
          "ticks": 14950,
          "time": 173.8372093023256,
          "velocity": 0.15748031496062992
        },
        {
          "duration": 0.08139534883721922,
          "durationTicks": 7,
          "midi": 78,
          "name": "F#5",
          "ticks": 14953,
          "time": 173.87209302325581,
          "velocity": 0.08661417322834646
        },
        {
          "duration": 0.06976744186047767,
          "durationTicks": 6,
          "midi": 85,
          "name": "C#6",
          "ticks": 14954,
          "time": 173.88372093023256,
          "velocity": 0.08661417322834646
        },
        {
          "duration": 0.05813953488373613,
          "durationTicks": 5,
          "midi": 90,
          "name": "F#6",
          "ticks": 14956,
          "time": 173.90697674418604,
          "velocity": 0.14960629921259844
        },
        {
          "duration": 0.023255813953511506,
          "durationTicks": 2,
          "midi": 40,
          "name": "E2",
          "ticks": 14958,
          "time": 173.93023255813952,
          "velocity": 0.30708661417322836
        },
        {
          "duration": 0.023255813953483084,
          "durationTicks": 2,
          "midi": 39,
          "name": "D#2",
          "ticks": 14960,
          "time": 173.95348837209303,
          "velocity": 0.2992125984251969
        },
        {
          "duration": 0.034883720930224626,
          "durationTicks": 3,
          "midi": 63,
          "name": "D#4",
          "ticks": 14960,
          "time": 173.95348837209303,
          "velocity": 0.2204724409448819
        },
        {
          "duration": 0.034883720930224626,
          "durationTicks": 3,
          "midi": 70,
          "name": "A#4",
          "ticks": 14960,
          "time": 173.95348837209303,
          "velocity": 0.2047244094488189
        },
        {
          "duration": 0.11627906976744384,
          "durationTicks": 10,
          "midi": 74,
          "name": "D5",
          "ticks": 14962,
          "time": 173.97674418604652,
          "velocity": 0.16535433070866143
        },
        {
          "duration": 0.04651162790696617,
          "durationTicks": 4,
          "midi": 54,
          "name": "F#3",
          "ticks": 14965,
          "time": 174.01162790697674,
          "velocity": 0.16535433070866143
        },
        {
          "duration": 0.023255813953511506,
          "durationTicks": 2,
          "midi": 39,
          "name": "D#2",
          "ticks": 14968,
          "time": 174.04651162790697,
          "velocity": 0.3228346456692913
        },
        {
          "duration": 0.023255813953483084,
          "durationTicks": 2,
          "midi": 40,
          "name": "E2",
          "ticks": 14971,
          "time": 174.08139534883722,
          "velocity": 0.30708661417322836
        },
        {
          "duration": 0.034883720930224626,
          "durationTicks": 3,
          "midi": 50,
          "name": "D3",
          "ticks": 14975,
          "time": 174.12790697674419,
          "velocity": 0.11811023622047244
        },
        {
          "duration": 0.06976744186047767,
          "durationTicks": 6,
          "midi": 38,
          "name": "D2",
          "ticks": 14977,
          "time": 174.15116279069767,
          "velocity": 0.31496062992125984
        },
        {
          "duration": 0.034883720930224626,
          "durationTicks": 3,
          "midi": 61,
          "name": "C#4",
          "ticks": 14981,
          "time": 174.19767441860466,
          "velocity": 0.11811023622047244
        },
        {
          "duration": 0.10465116279067388,
          "durationTicks": 9,
          "midi": 72,
          "name": "C5",
          "ticks": 14981,
          "time": 174.19767441860466,
          "velocity": 0.14960629921259844
        },
        {
          "duration": 0.0813953488371908,
          "durationTicks": 7,
          "midi": 64,
          "name": "E4",
          "ticks": 14982,
          "time": 174.2093023255814,
          "velocity": 0.11811023622047244
        },
        {
          "duration": 0.034883720930224626,
          "durationTicks": 3,
          "midi": 37,
          "name": "C#2",
          "ticks": 14983,
          "time": 174.22093023255815,
          "velocity": 0.3543307086614173
        },
        {
          "duration": 0.04651162790696617,
          "durationTicks": 4,
          "midi": 50,
          "name": "D3",
          "ticks": 14983,
          "time": 174.22093023255815,
          "velocity": 0.30708661417322836
        },
        {
          "duration": 0.06976744186044925,
          "durationTicks": 6,
          "midi": 79,
          "name": "G5",
          "ticks": 14984,
          "time": 174.2325581395349,
          "velocity": 0.07874015748031496
        },
        {
          "duration": 0.25581395348837077,
          "durationTicks": 22,
          "midi": 38,
          "name": "D2",
          "ticks": 14986,
          "time": 174.25581395348837,
          "velocity": 0.3228346456692913
        },
        {
          "duration": 0.03488372093025305,
          "durationTicks": 3,
          "midi": 57,
          "name": "A3",
          "ticks": 14988,
          "time": 174.27906976744185,
          "velocity": 0.11811023622047244
        },
        {
          "duration": 0.05813953488373613,
          "durationTicks": 5,
          "midi": 66,
          "name": "F#4",
          "ticks": 14989,
          "time": 174.2906976744186,
          "velocity": 0.11811023622047244
        },
        {
          "duration": 0.16279069767441,
          "durationTicks": 14,
          "midi": 76,
          "name": "E5",
          "ticks": 14992,
          "time": 174.32558139534885,
          "velocity": 0.2283464566929134
        },
        {
          "duration": 0.05813953488370771,
          "durationTicks": 5,
          "midi": 72,
          "name": "C5",
          "ticks": 14994,
          "time": 174.34883720930233,
          "velocity": 0.08661417322834646
        },
        {
          "duration": 0.05813953488370771,
          "durationTicks": 5,
          "midi": 57,
          "name": "A3",
          "ticks": 14995,
          "time": 174.36046511627907,
          "velocity": 0.12598425196850394
        },
        {
          "duration": 0.04651162790696617,
          "durationTicks": 4,
          "midi": 64,
          "name": "E4",
          "ticks": 14995,
          "time": 174.36046511627907,
          "velocity": 0.10236220472440945
        },
        {
          "duration": 0.09302325581393234,
          "durationTicks": 8,
          "midi": 72,
          "name": "C5",
          "ticks": 15002,
          "time": 174.4418604651163,
          "velocity": 0.08661417322834646
        },
        {
          "duration": 0.023255813953483084,
          "durationTicks": 2,
          "midi": 49,
          "name": "C#3",
          "ticks": 15003,
          "time": 174.45348837209303,
          "velocity": 0.2283464566929134
        },
        {
          "duration": 0.09302325581393234,
          "durationTicks": 8,
          "midi": 84,
          "name": "C6",
          "ticks": 15003,
          "time": 174.45348837209303,
          "velocity": 0.10236220472440945
        },
        {
          "duration": 0.09302325581393234,
          "durationTicks": 8,
          "midi": 57,
          "name": "A3",
          "ticks": 15004,
          "time": 174.46511627906978,
          "velocity": 0.14960629921259844
        },
        {
          "duration": 0.11627906976744384,
          "durationTicks": 10,
          "midi": 38,
          "name": "D2",
          "ticks": 15009,
          "time": 174.52325581395348,
          "velocity": 0.31496062992125984
        },
        {
          "duration": 0.034883720930224626,
          "durationTicks": 3,
          "midi": 79,
          "name": "G5",
          "ticks": 15009,
          "time": 174.52325581395348,
          "velocity": 0.12598425196850394
        },
        {
          "duration": 0.12790697674418539,
          "durationTicks": 11,
          "midi": 76,
          "name": "E5",
          "ticks": 15013,
          "time": 174.56976744186048,
          "velocity": 0.10236220472440945
        },
        {
          "duration": 0.1511627906976969,
          "durationTicks": 13,
          "midi": 79,
          "name": "G5",
          "ticks": 15021,
          "time": 174.6627906976744,
          "velocity": 0.08661417322834646
        },
        {
          "duration": 0.11627906976744384,
          "durationTicks": 10,
          "midi": 84,
          "name": "C6",
          "ticks": 15021,
          "time": 174.6627906976744,
          "velocity": 0.14173228346456693
        },
        {
          "duration": 0.1511627906976969,
          "durationTicks": 13,
          "midi": 72,
          "name": "C5",
          "ticks": 15022,
          "time": 174.67441860465115,
          "velocity": 0.11023622047244094
        },
        {
          "duration": 0.023255813953483084,
          "durationTicks": 2,
          "midi": 44,
          "name": "G#2",
          "ticks": 15024,
          "time": 174.69767441860466,
          "velocity": 0.3700787401574803
        },
        {
          "duration": 0.06976744186044925,
          "durationTicks": 6,
          "midi": 57,
          "name": "A3",
          "ticks": 15025,
          "time": 174.7093023255814,
          "velocity": 0.1732283464566929
        },
        {
          "duration": 0.1860465116278931,
          "durationTicks": 16,
          "midi": 45,
          "name": "A2",
          "ticks": 15026,
          "time": 174.72093023255815,
          "velocity": 0.36220472440944884
        },
        {
          "duration": 0.08139534883721922,
          "durationTicks": 7,
          "midi": 83,
          "name": "B5",
          "ticks": 15033,
          "time": 174.80232558139534,
          "velocity": 0.07874015748031496
        },
        {
          "duration": 0.17441860465115155,
          "durationTicks": 15,
          "midi": 76,
          "name": "E5",
          "ticks": 15037,
          "time": 174.84883720930233,
          "velocity": 0.11811023622047244
        },
        {
          "duration": 0.034883720930224626,
          "durationTicks": 3,
          "midi": 70,
          "name": "A#4",
          "ticks": 15040,
          "time": 174.88372093023256,
          "velocity": 0.13385826771653545
        },
        {
          "duration": 0.12790697674418539,
          "durationTicks": 11,
          "midi": 84,
          "name": "C6",
          "ticks": 15041,
          "time": 174.8953488372093,
          "velocity": 0.12598425196850394
        },
        {
          "duration": 0.04651162790699459,
          "durationTicks": 4,
          "midi": 44,
          "name": "G#2",
          "ticks": 15042,
          "time": 174.90697674418604,
          "velocity": 0.36220472440944884
        },
        {
          "duration": 0.15116279069766847,
          "durationTicks": 13,
          "midi": 72,
          "name": "C5",
          "ticks": 15042,
          "time": 174.90697674418604,
          "velocity": 0.11811023622047244
        },
        {
          "duration": 0.11627906976744384,
          "durationTicks": 10,
          "midi": 79,
          "name": "G5",
          "ticks": 15043,
          "time": 174.91860465116278,
          "velocity": 0.10236220472440945
        },
        {
          "duration": 0.04651162790699459,
          "durationTicks": 4,
          "midi": 67,
          "name": "G4",
          "ticks": 15044,
          "time": 174.93023255813952,
          "velocity": 0.07874015748031496
        },
        {
          "duration": 0.023255813953483084,
          "durationTicks": 2,
          "midi": 49,
          "name": "C#3",
          "ticks": 15046,
          "time": 174.95348837209303,
          "velocity": 0.23622047244094488
        },
        {
          "duration": 0.034883720930224626,
          "durationTicks": 3,
          "midi": 50,
          "name": "D3",
          "ticks": 15048,
          "time": 174.97674418604652,
          "velocity": 0.2755905511811024
        },
        {
          "duration": 0.04651162790696617,
          "durationTicks": 4,
          "midi": 64,
          "name": "E4",
          "ticks": 15051,
          "time": 175.01162790697674,
          "velocity": 0.13385826771653545
        },
        {
          "duration": 0.034883720930224626,
          "durationTicks": 3,
          "midi": 44,
          "name": "G#2",
          "ticks": 15052,
          "time": 175.02325581395348,
          "velocity": 0.4015748031496063
        },
        {
          "duration": 0.05813953488373613,
          "durationTicks": 5,
          "midi": 57,
          "name": "A3",
          "ticks": 15052,
          "time": 175.02325581395348,
          "velocity": 0.2283464566929134
        },
        {
          "duration": 0.09302325581396076,
          "durationTicks": 8,
          "midi": 67,
          "name": "G4",
          "ticks": 15053,
          "time": 175.03488372093022,
          "velocity": 0.1732283464566929
        },
        {
          "duration": 0.03488372093025305,
          "durationTicks": 3,
          "midi": 45,
          "name": "A2",
          "ticks": 15055,
          "time": 175.0581395348837,
          "velocity": 0.3228346456692913
        },
        {
          "duration": 0.06976744186044925,
          "durationTicks": 6,
          "midi": 64,
          "name": "E4",
          "ticks": 15060,
          "time": 175.11627906976744,
          "velocity": 0.08661417322834646
        },
        {
          "duration": 0.034883720930224626,
          "durationTicks": 3,
          "midi": 75,
          "name": "D#5",
          "ticks": 15060,
          "time": 175.11627906976744,
          "velocity": 0.14960629921259844
        },
        {
          "duration": 0.04651162790696617,
          "durationTicks": 4,
          "midi": 56,
          "name": "G#3",
          "ticks": 15061,
          "time": 175.12790697674419,
          "velocity": 0.23622047244094488
        },
        {
          "duration": 0.023255813953483084,
          "durationTicks": 2,
          "midi": 45,
          "name": "A2",
          "ticks": 15062,
          "time": 175.13953488372093,
          "velocity": 0.33858267716535434
        },
        {
          "duration": 0.023255813953483084,
          "durationTicks": 2,
          "midi": 35,
          "name": "B1",
          "ticks": 15064,
          "time": 175.1627906976744,
          "velocity": 0.31496062992125984
        },
        {
          "duration": 0.18604651162792152,
          "durationTicks": 16,
          "midi": 55,
          "name": "G3",
          "ticks": 15065,
          "time": 175.17441860465115,
          "velocity": 0.1968503937007874
        },
        {
          "duration": 0.03488372093025305,
          "durationTicks": 3,
          "midi": 59,
          "name": "B3",
          "ticks": 15066,
          "time": 175.1860465116279,
          "velocity": 0.2047244094488189
        },
        {
          "duration": 0.034883720930224626,
          "durationTicks": 3,
          "midi": 36,
          "name": "C2",
          "ticks": 15067,
          "time": 175.19767441860466,
          "velocity": 0.28346456692913385
        },
        {
          "duration": 0.1860465116278931,
          "durationTicks": 16,
          "midi": 64,
          "name": "E4",
          "ticks": 15067,
          "time": 175.19767441860466,
          "velocity": 0.1732283464566929
        },
        {
          "duration": 0.13953488372092693,
          "durationTicks": 12,
          "midi": 48,
          "name": "C3",
          "ticks": 15069,
          "time": 175.22093023255815,
          "velocity": 0.28346456692913385
        },
        {
          "duration": 0.023255813953483084,
          "durationTicks": 2,
          "midi": 36,
          "name": "C2",
          "ticks": 15071,
          "time": 175.24418604651163,
          "velocity": 0.2992125984251969
        },
        {
          "duration": 0.023255813953511506,
          "durationTicks": 2,
          "midi": 36,
          "name": "C2",
          "ticks": 15076,
          "time": 175.30232558139534,
          "velocity": 0.30708661417322836
        },
        {
          "duration": 0.04651162790696617,
          "durationTicks": 4,
          "midi": 36,
          "name": "C2",
          "ticks": 15079,
          "time": 175.3372093023256,
          "velocity": 0.30708661417322836
        },
        {
          "duration": 0.034883720930224626,
          "durationTicks": 3,
          "midi": 55,
          "name": "G3",
          "ticks": 15082,
          "time": 175.37209302325581,
          "velocity": 0.14960629921259844
        },
        {
          "duration": 0.034883720930224626,
          "durationTicks": 3,
          "midi": 76,
          "name": "E5",
          "ticks": 15083,
          "time": 175.38372093023256,
          "velocity": 0.08661417322834646
        },
        {
          "duration": 0.023255813953483084,
          "durationTicks": 2,
          "midi": 36,
          "name": "C2",
          "ticks": 15084,
          "time": 175.3953488372093,
          "velocity": 0.30708661417322836
        },
        {
          "duration": 0.023255813953511506,
          "durationTicks": 2,
          "midi": 36,
          "name": "C2",
          "ticks": 15087,
          "time": 175.43023255813952,
          "velocity": 0.30708661417322836
        },
        {
          "duration": 0.023255813953483084,
          "durationTicks": 2,
          "midi": 37,
          "name": "C#2",
          "ticks": 15091,
          "time": 175.47674418604652,
          "velocity": 0.29133858267716534
        },
        {
          "duration": 0.04651162790696617,
          "durationTicks": 4,
          "midi": 55,
          "name": "G3",
          "ticks": 15094,
          "time": 175.51162790697674,
          "velocity": 0.1968503937007874
        },
        {
          "duration": 0.03488372093025305,
          "durationTicks": 3,
          "midi": 43,
          "name": "G2",
          "ticks": 15096,
          "time": 175.53488372093022,
          "velocity": 0.2677165354330709
        },
        {
          "duration": 0.023255813953483084,
          "durationTicks": 2,
          "midi": 44,
          "name": "G#2",
          "ticks": 15099,
          "time": 175.56976744186048,
          "velocity": 0.2440944881889764
        },
        {
          "duration": 0.12790697674418539,
          "durationTicks": 11,
          "midi": 72,
          "name": "C5",
          "ticks": 15100,
          "time": 175.58139534883722,
          "velocity": 0.14173228346456693
        },
        {
          "duration": 0.11627906976744384,
          "durationTicks": 10,
          "midi": 60,
          "name": "C4",
          "ticks": 15101,
          "time": 175.59302325581396,
          "velocity": 0.13385826771653545
        },
        {
          "duration": 0.22093023255814614,
          "durationTicks": 19,
          "midi": 64,
          "name": "E4",
          "ticks": 15101,
          "time": 175.59302325581396,
          "velocity": 0.1732283464566929
        },
        {
          "duration": 0.034883720930224626,
          "durationTicks": 3,
          "midi": 56,
          "name": "G#3",
          "ticks": 15102,
          "time": 175.6046511627907,
          "velocity": 0.14960629921259844
        },
        {
          "duration": 0.023255813953483084,
          "durationTicks": 2,
          "midi": 43,
          "name": "G2",
          "ticks": 15104,
          "time": 175.62790697674419,
          "velocity": 0.2283464566929134
        },
        {
          "duration": 0.023255813953483084,
          "durationTicks": 2,
          "midi": 47,
          "name": "B2",
          "ticks": 15111,
          "time": 175.7093023255814,
          "velocity": 0.3937007874015748
        },
        {
          "duration": 0.09302325581396076,
          "durationTicks": 8,
          "midi": 60,
          "name": "C4",
          "ticks": 15112,
          "time": 175.72093023255815,
          "velocity": 0.14960629921259844
        },
        {
          "duration": 0.04651162790696617,
          "durationTicks": 4,
          "midi": 67,
          "name": "G4",
          "ticks": 15115,
          "time": 175.75581395348837,
          "velocity": 0.07874015748031496
        },
        {
          "duration": 0.04651162790699459,
          "durationTicks": 4,
          "midi": 37,
          "name": "C#2",
          "ticks": 15116,
          "time": 175.7674418604651,
          "velocity": 0.29133858267716534
        },
        {
          "duration": 0.03488372093025305,
          "durationTicks": 3,
          "midi": 55,
          "name": "G3",
          "ticks": 15119,
          "time": 175.80232558139534,
          "velocity": 0.15748031496062992
        },
        {
          "duration": 0.36046511627904465,
          "durationTicks": 31,
          "midi": 67,
          "name": "G4",
          "ticks": 15121,
          "time": 175.82558139534885,
          "velocity": 0.2047244094488189
        },
        {
          "duration": 0.1860465116278931,
          "durationTicks": 16,
          "midi": 64,
          "name": "E4",
          "ticks": 15123,
          "time": 175.84883720930233,
          "velocity": 0.14173228346456693
        },
        {
          "duration": 0.2093023255814046,
          "durationTicks": 18,
          "midi": 60,
          "name": "C4",
          "ticks": 15124,
          "time": 175.86046511627907,
          "velocity": 0.2125984251968504
        },
        {
          "duration": 0.023255813953483084,
          "durationTicks": 2,
          "midi": 37,
          "name": "C#2",
          "ticks": 15125,
          "time": 175.87209302325581,
          "velocity": 0.23622047244094488
        },
        {
          "duration": 0.03488372093025305,
          "durationTicks": 3,
          "midi": 57,
          "name": "A3",
          "ticks": 15129,
          "time": 175.91860465116278,
          "velocity": 0.14173228346456693
        },
        {
          "duration": 0.04651162790696617,
          "durationTicks": 4,
          "midi": 48,
          "name": "C3",
          "ticks": 15134,
          "time": 175.97674418604652,
          "velocity": 0.28346456692913385
        },
        {
          "duration": 0.023255813953511506,
          "durationTicks": 2,
          "midi": 45,
          "name": "A2",
          "ticks": 15140,
          "time": 176.04651162790697,
          "velocity": 0.3543307086614173
        },
        {
          "duration": 0.26744186046514073,
          "durationTicks": 23,
          "midi": 55,
          "name": "G3",
          "ticks": 15141,
          "time": 176.0581395348837,
          "velocity": 0.31496062992125984
        },
        {
          "duration": 0.2674418604651123,
          "durationTicks": 23,
          "midi": 48,
          "name": "C3",
          "ticks": 15143,
          "time": 176.08139534883722,
          "velocity": 0.3228346456692913
        },
        {
          "duration": 0.2325581395348877,
          "durationTicks": 20,
          "midi": 36,
          "name": "C2",
          "ticks": 15144,
          "time": 176.09302325581396,
          "velocity": 0.30708661417322836
        },
        {
          "duration": 0.10465116279067388,
          "durationTicks": 9,
          "midi": 78,
          "name": "F#5",
          "ticks": 15163,
          "time": 176.3139534883721,
          "velocity": 0.15748031496062992
        },
        {
          "duration": 0.04651162790696617,
          "durationTicks": 4,
          "midi": 36,
          "name": "C2",
          "ticks": 15165,
          "time": 176.3372093023256,
          "velocity": 0.2992125984251969
        },
        {
          "duration": 0.034883720930224626,
          "durationTicks": 3,
          "midi": 66,
          "name": "F#4",
          "ticks": 15167,
          "time": 176.36046511627907,
          "velocity": 0.1732283464566929
        },
        {
          "duration": 0.023255813953483084,
          "durationTicks": 2,
          "midi": 43,
          "name": "G2",
          "ticks": 15170,
          "time": 176.3953488372093,
          "velocity": 0.3464566929133858
        },
        {
          "duration": 0.034883720930224626,
          "durationTicks": 3,
          "midi": 42,
          "name": "F#2",
          "ticks": 15176,
          "time": 176.46511627906978,
          "velocity": 0.3700787401574803
        },
        {
          "duration": 0.034883720930224626,
          "durationTicks": 3,
          "midi": 60,
          "name": "C4",
          "ticks": 15180,
          "time": 176.51162790697674,
          "velocity": 0.16535433070866143
        },
        {
          "duration": 0.08139534883721922,
          "durationTicks": 7,
          "midi": 100,
          "name": "E7",
          "ticks": 15182,
          "time": 176.53488372093022,
          "velocity": 0.12598425196850394
        },
        {
          "duration": 0.023255813953483084,
          "durationTicks": 2,
          "midi": 45,
          "name": "A2",
          "ticks": 15186,
          "time": 176.58139534883722,
          "velocity": 0.2283464566929134
        },
        {
          "duration": 0.1046511627907023,
          "durationTicks": 9,
          "midi": 67,
          "name": "G4",
          "ticks": 15191,
          "time": 176.63953488372093,
          "velocity": 0.1968503937007874
        },
        {
          "duration": 0.034883720930224626,
          "durationTicks": 3,
          "midi": 37,
          "name": "C#2",
          "ticks": 15197,
          "time": 176.7093023255814,
          "velocity": 0.2677165354330709
        },
        {
          "duration": 0.034883720930224626,
          "durationTicks": 3,
          "midi": 66,
          "name": "F#4",
          "ticks": 15201,
          "time": 176.75581395348837,
          "velocity": 0.1732283464566929
        },
        {
          "duration": 0.034883720930224626,
          "durationTicks": 3,
          "midi": 69,
          "name": "A4",
          "ticks": 15201,
          "time": 176.75581395348837,
          "velocity": 0.1889763779527559
        },
        {
          "duration": 0.034883720930224626,
          "durationTicks": 3,
          "midi": 37,
          "name": "C#2",
          "ticks": 15206,
          "time": 176.8139534883721,
          "velocity": 0.2204724409448819
        },
        {
          "duration": 0.06976744186044925,
          "durationTicks": 6,
          "midi": 67,
          "name": "G4",
          "ticks": 15207,
          "time": 176.82558139534885,
          "velocity": 0.18110236220472442
        },
        {
          "duration": 0.06976744186047767,
          "durationTicks": 6,
          "midi": 100,
          "name": "E7",
          "ticks": 15211,
          "time": 176.87209302325581,
          "velocity": 0.08661417322834646
        },
        {
          "duration": 0.05813953488373613,
          "durationTicks": 5,
          "midi": 60,
          "name": "C4",
          "ticks": 15213,
          "time": 176.8953488372093,
          "velocity": 0.12598425196850394
        },
        {
          "duration": 0.1046511627907023,
          "durationTicks": 9,
          "midi": 64,
          "name": "E4",
          "ticks": 15213,
          "time": 176.8953488372093,
          "velocity": 0.10236220472440945
        },
        {
          "duration": 0.05813953488373613,
          "durationTicks": 5,
          "midi": 48,
          "name": "C3",
          "ticks": 15214,
          "time": 176.90697674418604,
          "velocity": 0.2992125984251969
        },
        {
          "duration": 0.22093023255814614,
          "durationTicks": 19,
          "midi": 79,
          "name": "G5",
          "ticks": 15220,
          "time": 176.97674418604652,
          "velocity": 0.13385826771653545
        },
        {
          "duration": 0.034883720930224626,
          "durationTicks": 3,
          "midi": 86,
          "name": "D6",
          "ticks": 15220,
          "time": 176.97674418604652,
          "velocity": 0.11023622047244094
        },
        {
          "duration": 0.023255813953483084,
          "durationTicks": 2,
          "midi": 45,
          "name": "A2",
          "ticks": 15221,
          "time": 176.98837209302326,
          "velocity": 0.3779527559055118
        },
        {
          "duration": 0.2093023255814046,
          "durationTicks": 18,
          "midi": 60,
          "name": "C4",
          "ticks": 15221,
          "time": 176.98837209302326,
          "velocity": 0.18110236220472442
        },
        {
          "duration": 0.7209302325581461,
          "durationTicks": 62,
          "midi": 67,
          "name": "G4",
          "ticks": 15221,
          "time": 176.98837209302326,
          "velocity": 0.29133858267716534
        },
        {
          "duration": 0.3139534883721069,
          "durationTicks": 27,
          "midi": 55,
          "name": "G3",
          "ticks": 15222,
          "time": 177,
          "velocity": 0.18110236220472442
        },
        {
          "duration": 0.023255813953483084,
          "durationTicks": 2,
          "midi": 36,
          "name": "C2",
          "ticks": 15229,
          "time": 177.08139534883722,
          "velocity": 0.29133858267716534
        },
        {
          "duration": 0.04651162790696617,
          "durationTicks": 4,
          "midi": 48,
          "name": "C3",
          "ticks": 15232,
          "time": 177.11627906976744,
          "velocity": 0.25196850393700787
        },
        {
          "duration": 0.023255813953483084,
          "durationTicks": 2,
          "midi": 36,
          "name": "C2",
          "ticks": 15234,
          "time": 177.13953488372093,
          "velocity": 0.2992125984251969
        },
        {
          "duration": 0.023255813953511506,
          "durationTicks": 2,
          "midi": 36,
          "name": "C2",
          "ticks": 15237,
          "time": 177.17441860465115,
          "velocity": 0.29133858267716534
        },
        {
          "duration": 0.1046511627907023,
          "durationTicks": 9,
          "midi": 36,
          "name": "C2",
          "ticks": 15242,
          "time": 177.2325581395349,
          "velocity": 0.28346456692913385
        },
        {
          "duration": 0.09302325581393234,
          "durationTicks": 8,
          "midi": 55,
          "name": "G3",
          "ticks": 15250,
          "time": 177.32558139534885,
          "velocity": 0.25196850393700787
        },
        {
          "duration": 0.04651162790696617,
          "durationTicks": 4,
          "midi": 62,
          "name": "D4",
          "ticks": 15252,
          "time": 177.34883720930233,
          "velocity": 0.13385826771653545
        },
        {
          "duration": 0.023255813953483084,
          "durationTicks": 2,
          "midi": 43,
          "name": "G2",
          "ticks": 15255,
          "time": 177.38372093023256,
          "velocity": 0.2677165354330709
        },
        {
          "duration": 0.04651162790696617,
          "durationTicks": 4,
          "midi": 44,
          "name": "G#2",
          "ticks": 15262,
          "time": 177.46511627906978,
          "velocity": 0.31496062992125984
        },
        {
          "duration": 0.034883720930224626,
          "durationTicks": 3,
          "midi": 55,
          "name": "G3",
          "ticks": 15271,
          "time": 177.56976744186048,
          "velocity": 0.10236220472440945
        },
        {
          "duration": 0.11627906976744384,
          "durationTicks": 10,
          "midi": 60,
          "name": "C4",
          "ticks": 15272,
          "time": 177.58139534883722,
          "velocity": 0.10236220472440945
        },
        {
          "duration": 0.023255813953483084,
          "durationTicks": 2,
          "midi": 34,
          "name": "A#1",
          "ticks": 15273,
          "time": 177.59302325581396,
          "velocity": 0.3700787401574803
        },
        {
          "duration": 0.034883720930224626,
          "durationTicks": 3,
          "midi": 37,
          "name": "C#2",
          "ticks": 15276,
          "time": 177.62790697674419,
          "velocity": 0.28346456692913385
        },
        {
          "duration": 0.023255813953483084,
          "durationTicks": 2,
          "midi": 36,
          "name": "C2",
          "ticks": 15279,
          "time": 177.6627906976744,
          "velocity": 0.25196850393700787
        },
        {
          "duration": 0.034883720930224626,
          "durationTicks": 3,
          "midi": 64,
          "name": "E4",
          "ticks": 15282,
          "time": 177.69767441860466,
          "velocity": 0.1968503937007874
        },
        {
          "duration": 0.034883720930224626,
          "durationTicks": 3,
          "midi": 70,
          "name": "A#4",
          "ticks": 15282,
          "time": 177.69767441860466,
          "velocity": 0.18110236220472442
        },
        {
          "duration": 0.19767441860463464,
          "durationTicks": 17,
          "midi": 67,
          "name": "G4",
          "ticks": 15284,
          "time": 177.72093023255815,
          "velocity": 0.25196850393700787
        },
        {
          "duration": 0.06976744186044925,
          "durationTicks": 6,
          "midi": 52,
          "name": "E3",
          "ticks": 15285,
          "time": 177.7325581395349,
          "velocity": 0.2125984251968504
        },
        {
          "duration": 0.06976744186044925,
          "durationTicks": 6,
          "midi": 60,
          "name": "C4",
          "ticks": 15285,
          "time": 177.7325581395349,
          "velocity": 0.11811023622047244
        },
        {
          "duration": 0.023255813953483084,
          "durationTicks": 2,
          "midi": 37,
          "name": "C#2",
          "ticks": 15288,
          "time": 177.7674418604651,
          "velocity": 0.2283464566929134
        },
        {
          "duration": 0.12790697674418539,
          "durationTicks": 11,
          "midi": 60,
          "name": "C4",
          "ticks": 15293,
          "time": 177.82558139534885,
          "velocity": 0.2283464566929134
        },
        {
          "duration": 0.0813953488371908,
          "durationTicks": 7,
          "midi": 48,
          "name": "C3",
          "ticks": 15294,
          "time": 177.8372093023256,
          "velocity": 0.33070866141732286
        },
        {
          "duration": 0.023255813953483084,
          "durationTicks": 2,
          "midi": 44,
          "name": "G#2",
          "ticks": 15304,
          "time": 177.95348837209303,
          "velocity": 0.36220472440944884
        },
        {
          "duration": 0.17441860465115155,
          "durationTicks": 15,
          "midi": 67,
          "name": "G4",
          "ticks": 15304,
          "time": 177.95348837209303,
          "velocity": 0.16535433070866143
        },
        {
          "duration": 0.023255813953483084,
          "durationTicks": 2,
          "midi": 35,
          "name": "B1",
          "ticks": 15305,
          "time": 177.96511627906978,
          "velocity": 0.2677165354330709
        },
        {
          "duration": 0.04651162790699459,
          "durationTicks": 4,
          "midi": 48,
          "name": "C3",
          "ticks": 15310,
          "time": 178.02325581395348,
          "velocity": 0.31496062992125984
        },
        {
          "duration": 0.11627906976744384,
          "durationTicks": 10,
          "midi": 55,
          "name": "G3",
          "ticks": 15313,
          "time": 178.0581395348837,
          "velocity": 0.13385826771653545
        },
        {
          "duration": 0.0813953488371908,
          "durationTicks": 7,
          "midi": 48,
          "name": "C3",
          "ticks": 15315,
          "time": 178.08139534883722,
          "velocity": 0.28346456692913385
        },
        {
          "duration": 0.023255813953483084,
          "durationTicks": 2,
          "midi": 36,
          "name": "C2",
          "ticks": 15317,
          "time": 178.1046511627907,
          "velocity": 0.29133858267716534
        },
        {
          "duration": 0.023255813953483084,
          "durationTicks": 2,
          "midi": 36,
          "name": "C2",
          "ticks": 15320,
          "time": 178.13953488372093,
          "velocity": 0.28346456692913385
        },
        {
          "duration": 0.023255813953511506,
          "durationTicks": 2,
          "midi": 48,
          "name": "C3",
          "ticks": 15323,
          "time": 178.17441860465115,
          "velocity": 0.25196850393700787
        },
        {
          "duration": 0.08139534883721922,
          "durationTicks": 7,
          "midi": 67,
          "name": "G4",
          "ticks": 15324,
          "time": 178.1860465116279,
          "velocity": 0.25196850393700787
        },
        {
          "duration": 0.09302325581396076,
          "durationTicks": 8,
          "midi": 78,
          "name": "F#5",
          "ticks": 15324,
          "time": 178.1860465116279,
          "velocity": 0.13385826771653545
        },
        {
          "duration": 0.06976744186047767,
          "durationTicks": 6,
          "midi": 100,
          "name": "E7",
          "ticks": 15324,
          "time": 178.1860465116279,
          "velocity": 0.07874015748031496
        },
        {
          "duration": 0.023255813953483084,
          "durationTicks": 2,
          "midi": 47,
          "name": "B2",
          "ticks": 15325,
          "time": 178.19767441860466,
          "velocity": 0.2283464566929134
        },
        {
          "duration": 0.04651162790696617,
          "durationTicks": 4,
          "midi": 66,
          "name": "F#4",
          "ticks": 15330,
          "time": 178.25581395348837,
          "velocity": 0.11023622047244094
        },
        {
          "duration": 0.03488372093025305,
          "durationTicks": 3,
          "midi": 61,
          "name": "C#4",
          "ticks": 15332,
          "time": 178.27906976744185,
          "velocity": 0.14960629921259844
        },
        {
          "duration": 0.12790697674418539,
          "durationTicks": 11,
          "midi": 67,
          "name": "G4",
          "ticks": 15334,
          "time": 178.30232558139534,
          "velocity": 0.2755905511811024
        },
        {
          "duration": 0.034883720930224626,
          "durationTicks": 3,
          "midi": 52,
          "name": "E3",
          "ticks": 15337,
          "time": 178.3372093023256,
          "velocity": 0.2204724409448819
        },
        {
          "duration": 0.023255813953511506,
          "durationTicks": 2,
          "midi": 43,
          "name": "G2",
          "ticks": 15345,
          "time": 178.43023255813952,
          "velocity": 0.2283464566929134
        },
        {
          "duration": 0.08139534883721922,
          "durationTicks": 7,
          "midi": 67,
          "name": "G4",
          "ticks": 15353,
          "time": 178.52325581395348,
          "velocity": 0.1968503937007874
        },
        {
          "duration": 0.08139534883721922,
          "durationTicks": 7,
          "midi": 60,
          "name": "C4",
          "ticks": 15355,
          "time": 178.54651162790697,
          "velocity": 0.1732283464566929
        },
        {
          "duration": 0.034883720930224626,
          "durationTicks": 3,
          "midi": 71,
          "name": "B4",
          "ticks": 15362,
          "time": 178.62790697674419,
          "velocity": 0.11811023622047244
        },
        {
          "duration": 0.04651162790696617,
          "durationTicks": 4,
          "midi": 78,
          "name": "F#5",
          "ticks": 15362,
          "time": 178.62790697674419,
          "velocity": 0.12598425196850394
        },
        {
          "duration": 1.2674418604651123,
          "durationTicks": 109,
          "midi": 67,
          "name": "G4",
          "ticks": 15363,
          "time": 178.63953488372093,
          "velocity": 0.29133858267716534
        },
        {
          "duration": 0.034883720930224626,
          "durationTicks": 3,
          "midi": 62,
          "name": "D4",
          "ticks": 15364,
          "time": 178.65116279069767,
          "velocity": 0.11811023622047244
        },
        {
          "duration": 0.03488372093025305,
          "durationTicks": 3,
          "midi": 43,
          "name": "G2",
          "ticks": 15365,
          "time": 178.6627906976744,
          "velocity": 0.3700787401574803
        },
        {
          "duration": 0.034883720930224626,
          "durationTicks": 3,
          "midi": 44,
          "name": "G#2",
          "ticks": 15368,
          "time": 178.69767441860466,
          "velocity": 0.31496062992125984
        },
        {
          "duration": 0.023255813953483084,
          "durationTicks": 2,
          "midi": 45,
          "name": "A2",
          "ticks": 15371,
          "time": 178.7325581395349,
          "velocity": 0.30708661417322836
        },
        {
          "duration": 0.06976744186047767,
          "durationTicks": 6,
          "midi": 55,
          "name": "G3",
          "ticks": 15373,
          "time": 178.75581395348837,
          "velocity": 0.2283464566929134
        },
        {
          "duration": 0.05813953488373613,
          "durationTicks": 5,
          "midi": 100,
          "name": "E7",
          "ticks": 15373,
          "time": 178.75581395348837,
          "velocity": 0.09448818897637795
        },
        {
          "duration": 0.03488372093025305,
          "durationTicks": 3,
          "midi": 43,
          "name": "G2",
          "ticks": 15376,
          "time": 178.7906976744186,
          "velocity": 0.3464566929133858
        },
        {
          "duration": 0.2674418604651123,
          "durationTicks": 23,
          "midi": 55,
          "name": "G3",
          "ticks": 15382,
          "time": 178.86046511627907,
          "velocity": 0.2125984251968504
        },
        {
          "duration": 0.023255813953483084,
          "durationTicks": 2,
          "midi": 45,
          "name": "A2",
          "ticks": 15383,
          "time": 178.87209302325581,
          "velocity": 0.3937007874015748
        },
        {
          "duration": 0.023255813953483084,
          "durationTicks": 2,
          "midi": 43,
          "name": "G2",
          "ticks": 15385,
          "time": 178.8953488372093,
          "velocity": 0.28346456692913385
        },
        {
          "duration": 0.023255813953511506,
          "durationTicks": 2,
          "midi": 36,
          "name": "C2",
          "ticks": 15388,
          "time": 178.93023255813952,
          "velocity": 0.29133858267716534
        },
        {
          "duration": 0.023255813953483084,
          "durationTicks": 2,
          "midi": 48,
          "name": "C3",
          "ticks": 15390,
          "time": 178.95348837209303,
          "velocity": 0.23622047244094488
        },
        {
          "duration": 0.023255813953483084,
          "durationTicks": 2,
          "midi": 36,
          "name": "C2",
          "ticks": 15392,
          "time": 178.97674418604652,
          "velocity": 0.30708661417322836
        },
        {
          "duration": 0.023255813953483084,
          "durationTicks": 2,
          "midi": 36,
          "name": "C2",
          "ticks": 15395,
          "time": 179.01162790697674,
          "velocity": 0.30708661417322836
        },
        {
          "duration": 0.17441860465117998,
          "durationTicks": 15,
          "midi": 48,
          "name": "C3",
          "ticks": 15398,
          "time": 179.04651162790697,
          "velocity": 0.28346456692913385
        },
        {
          "duration": 0.023255813953483084,
          "durationTicks": 2,
          "midi": 36,
          "name": "C2",
          "ticks": 15400,
          "time": 179.06976744186048,
          "velocity": 0.2992125984251969
        },
        {
          "duration": 0.034883720930224626,
          "durationTicks": 3,
          "midi": 76,
          "name": "E5",
          "ticks": 15401,
          "time": 179.08139534883722,
          "velocity": 0.14960629921259844
        },
        {
          "duration": 0.11627906976744384,
          "durationTicks": 10,
          "midi": 36,
          "name": "C2",
          "ticks": 15403,
          "time": 179.1046511627907,
          "velocity": 0.30708661417322836
        },
        {
          "duration": 0.04651162790696617,
          "durationTicks": 4,
          "midi": 60,
          "name": "C4",
          "ticks": 15413,
          "time": 179.22093023255815,
          "velocity": 0.18110236220472442
        },
        {
          "duration": 0.023255813953483084,
          "durationTicks": 2,
          "midi": 45,
          "name": "A2",
          "ticks": 15414,
          "time": 179.2325581395349,
          "velocity": 0.3543307086614173
        },
        {
          "duration": 0.023255813953483084,
          "durationTicks": 2,
          "midi": 48,
          "name": "C3",
          "ticks": 15421,
          "time": 179.3139534883721,
          "velocity": 0.2283464566929134
        },
        {
          "duration": 0.023255813953483084,
          "durationTicks": 2,
          "midi": 45,
          "name": "A2",
          "ticks": 15423,
          "time": 179.3372093023256,
          "velocity": 0.3543307086614173
        },
        {
          "duration": 0.034883720930224626,
          "durationTicks": 3,
          "midi": 55,
          "name": "G3",
          "ticks": 15432,
          "time": 179.4418604651163,
          "velocity": 0.16535433070866143
        },
        {
          "duration": 0.10465116279067388,
          "durationTicks": 9,
          "midi": 60,
          "name": "C4",
          "ticks": 15432,
          "time": 179.4418604651163,
          "velocity": 0.11023622047244094
        },
        {
          "duration": 0.023255813953483084,
          "durationTicks": 2,
          "midi": 34,
          "name": "A#1",
          "ticks": 15434,
          "time": 179.46511627906978,
          "velocity": 0.3543307086614173
        },
        {
          "duration": 0.04651162790696617,
          "durationTicks": 4,
          "midi": 37,
          "name": "C#2",
          "ticks": 15437,
          "time": 179.5,
          "velocity": 0.2677165354330709
        },
        {
          "duration": 0.03488372093025305,
          "durationTicks": 3,
          "midi": 35,
          "name": "B1",
          "ticks": 15441,
          "time": 179.54651162790697,
          "velocity": 0.3228346456692913
        },
        {
          "duration": 0.023255813953511506,
          "durationTicks": 2,
          "midi": 63,
          "name": "D#4",
          "ticks": 15441,
          "time": 179.54651162790697,
          "velocity": 0.2283464566929134
        },
        {
          "duration": 0.03488372093025305,
          "durationTicks": 3,
          "midi": 70,
          "name": "A#4",
          "ticks": 15441,
          "time": 179.54651162790697,
          "velocity": 0.2283464566929134
        },
        {
          "duration": 0.04651162790696617,
          "durationTicks": 4,
          "midi": 48,
          "name": "C3",
          "ticks": 15444,
          "time": 179.58139534883722,
          "velocity": 0.29133858267716534
        },
        {
          "duration": 0.034883720930224626,
          "durationTicks": 3,
          "midi": 37,
          "name": "C#2",
          "ticks": 15447,
          "time": 179.61627906976744,
          "velocity": 0.2755905511811024
        },
        {
          "duration": 0.023255813953483084,
          "durationTicks": 2,
          "midi": 36,
          "name": "C2",
          "ticks": 15450,
          "time": 179.65116279069767,
          "velocity": 0.29133858267716534
        },
        {
          "duration": 0.04651162790699459,
          "durationTicks": 4,
          "midi": 47,
          "name": "B2",
          "ticks": 15453,
          "time": 179.6860465116279,
          "velocity": 0.2677165354330709
        },
        {
          "duration": 0.023255813953483084,
          "durationTicks": 2,
          "midi": 35,
          "name": "B1",
          "ticks": 15454,
          "time": 179.69767441860466,
          "velocity": 0.33070866141732286
        },
        {
          "duration": 0.25581395348837077,
          "durationTicks": 22,
          "midi": 60,
          "name": "C4",
          "ticks": 15461,
          "time": 179.77906976744185,
          "velocity": 0.18110236220472442
        },
        {
          "duration": 0.2790697674418823,
          "durationTicks": 24,
          "midi": 55,
          "name": "G3",
          "ticks": 15462,
          "time": 179.7906976744186,
          "velocity": 0.2440944881889764
        },
        {
          "duration": 0.023255813953483084,
          "durationTicks": 2,
          "midi": 35,
          "name": "B1",
          "ticks": 15465,
          "time": 179.82558139534885,
          "velocity": 0.28346456692913385
        },
        {
          "duration": 0.03488372093025305,
          "durationTicks": 3,
          "midi": 68,
          "name": "G#4",
          "ticks": 15472,
          "time": 179.90697674418604,
          "velocity": 0.14173228346456693
        },
        {
          "duration": 0.023255813953483084,
          "durationTicks": 2,
          "midi": 48,
          "name": "C3",
          "ticks": 15480,
          "time": 180,
          "velocity": 0.2440944881889764
        },
        {
          "duration": 0.023255813953483084,
          "durationTicks": 2,
          "midi": 36,
          "name": "C2",
          "ticks": 15483,
          "time": 180.03488372093022,
          "velocity": 0.2755905511811024
        },
        {
          "duration": 0.08139534883721922,
          "durationTicks": 7,
          "midi": 78,
          "name": "F#5",
          "ticks": 15483,
          "time": 180.03488372093022,
          "velocity": 0.12598425196850394
        },
        {
          "duration": 0.06976744186047767,
          "durationTicks": 6,
          "midi": 100,
          "name": "E7",
          "ticks": 15483,
          "time": 180.03488372093022,
          "velocity": 0.11023622047244094
        },
        {
          "duration": 0.06976744186047767,
          "durationTicks": 6,
          "midi": 66,
          "name": "F#4",
          "ticks": 15484,
          "time": 180.04651162790697,
          "velocity": 0.2125984251968504
        },
        {
          "duration": 0.04651162790696617,
          "durationTicks": 4,
          "midi": 48,
          "name": "C3",
          "ticks": 15486,
          "time": 180.06976744186048,
          "velocity": 0.2677165354330709
        },
        {
          "duration": 0.023255813953483084,
          "durationTicks": 2,
          "midi": 36,
          "name": "C2",
          "ticks": 15488,
          "time": 180.09302325581396,
          "velocity": 0.2677165354330709
        },
        {
          "duration": 0.15116279069766847,
          "durationTicks": 13,
          "midi": 67,
          "name": "G4",
          "ticks": 15490,
          "time": 180.11627906976744,
          "velocity": 0.1968503937007874
        },
        {
          "duration": 0.023255813953483084,
          "durationTicks": 2,
          "midi": 54,
          "name": "F#3",
          "ticks": 15492,
          "time": 180.13953488372093,
          "velocity": 0.2755905511811024
        },
        {
          "duration": 0.023255813953483084,
          "durationTicks": 2,
          "midi": 55,
          "name": "G3",
          "ticks": 15494,
          "time": 180.1627906976744,
          "velocity": 0.25196850393700787
        },
        {
          "duration": 0.023255813953511506,
          "durationTicks": 2,
          "midi": 43,
          "name": "G2",
          "ticks": 15495,
          "time": 180.17441860465115,
          "velocity": 0.3779527559055118
        },
        {
          "duration": 0.023255813953483084,
          "durationTicks": 2,
          "midi": 45,
          "name": "A2",
          "ticks": 15500,
          "time": 180.2325581395349,
          "velocity": 0.2283464566929134
        },
        {
          "duration": 0.034883720930224626,
          "durationTicks": 3,
          "midi": 60,
          "name": "C4",
          "ticks": 15501,
          "time": 180.24418604651163,
          "velocity": 0.11811023622047244
        },
        {
          "duration": 0.034883720930224626,
          "durationTicks": 3,
          "midi": 72,
          "name": "C5",
          "ticks": 15501,
          "time": 180.24418604651163,
          "velocity": 0.2204724409448819
        },
        {
          "duration": 0.09302325581396076,
          "durationTicks": 8,
          "midi": 100,
          "name": "E7",
          "ticks": 15502,
          "time": 180.25581395348837,
          "velocity": 0.16535433070866143
        },
        {
          "duration": 0.034883720930224626,
          "durationTicks": 3,
          "midi": 47,
          "name": "B2",
          "ticks": 15512,
          "time": 180.37209302325581,
          "velocity": 0.3543307086614173
        },
        {
          "duration": 0.09302325581396076,
          "durationTicks": 8,
          "midi": 67,
          "name": "G4",
          "ticks": 15512,
          "time": 180.37209302325581,
          "velocity": 0.16535433070866143
        },
        {
          "duration": 0.034883720930224626,
          "durationTicks": 3,
          "midi": 55,
          "name": "G3",
          "ticks": 15513,
          "time": 180.38372093023256,
          "velocity": 0.23622047244094488
        },
        {
          "duration": 0.023255813953511506,
          "durationTicks": 2,
          "midi": 49,
          "name": "C#3",
          "ticks": 15516,
          "time": 180.41860465116278,
          "velocity": 0.2755905511811024
        },
        {
          "duration": 0.04651162790696617,
          "durationTicks": 4,
          "midi": 37,
          "name": "C#2",
          "ticks": 15518,
          "time": 180.4418604651163,
          "velocity": 0.2992125984251969
        },
        {
          "duration": 0.023255813953483084,
          "durationTicks": 2,
          "midi": 45,
          "name": "A2",
          "ticks": 15522,
          "time": 180.48837209302326,
          "velocity": 0.36220472440944884
        },
        {
          "duration": 0.06976744186044925,
          "durationTicks": 6,
          "midi": 78,
          "name": "F#5",
          "ticks": 15522,
          "time": 180.48837209302326,
          "velocity": 0.11811023622047244
        },
        {
          "duration": 0.034883720930224626,
          "durationTicks": 3,
          "midi": 66,
          "name": "F#4",
          "ticks": 15523,
          "time": 180.5,
          "velocity": 0.14173228346456693
        },
        {
          "duration": 0.034883720930224626,
          "durationTicks": 3,
          "midi": 93,
          "name": "A6",
          "ticks": 15523,
          "time": 180.5,
          "velocity": 0.09448818897637795
        },
        {
          "duration": 0.034883720930224626,
          "durationTicks": 3,
          "midi": 52,
          "name": "E3",
          "ticks": 15525,
          "time": 180.52325581395348,
          "velocity": 0.1732283464566929
        },
        {
          "duration": 0.06976744186047767,
          "durationTicks": 6,
          "midi": 67,
          "name": "G4",
          "ticks": 15527,
          "time": 180.54651162790697,
          "velocity": 0.2047244094488189
        },
        {
          "duration": 0.03488372093025305,
          "durationTicks": 3,
          "midi": 36,
          "name": "C2",
          "ticks": 15528,
          "time": 180.5581395348837,
          "velocity": 0.2125984251968504
        },
        {
          "duration": 0.04651162790696617,
          "durationTicks": 4,
          "midi": 52,
          "name": "E3",
          "ticks": 15529,
          "time": 180.56976744186048,
          "velocity": 0.25196850393700787
        },
        {
          "duration": 0.023255813953483084,
          "durationTicks": 2,
          "midi": 41,
          "name": "F2",
          "ticks": 15532,
          "time": 180.6046511627907,
          "velocity": 0.36220472440944884
        },
        {
          "duration": 0.05813953488370771,
          "durationTicks": 5,
          "midi": 100,
          "name": "E7",
          "ticks": 15532,
          "time": 180.6046511627907,
          "velocity": 0.16535433070866143
        },
        {
          "duration": 0.09302325581396076,
          "durationTicks": 8,
          "midi": 64,
          "name": "E4",
          "ticks": 15534,
          "time": 180.62790697674419,
          "velocity": 0.10236220472440945
        },
        {
          "duration": 0.04651162790699459,
          "durationTicks": 4,
          "midi": 48,
          "name": "C3",
          "ticks": 15536,
          "time": 180.65116279069767,
          "velocity": 0.25984251968503935
        },
        {
          "duration": 0.04651162790699459,
          "durationTicks": 4,
          "midi": 67,
          "name": "G4",
          "ticks": 15536,
          "time": 180.65116279069767,
          "velocity": 0.12598425196850394
        },
        {
          "duration": 0.04651162790696617,
          "durationTicks": 4,
          "midi": 36,
          "name": "C2",
          "ticks": 15541,
          "time": 180.7093023255814,
          "velocity": 0.25984251968503935
        },
        {
          "duration": 0.12790697674418539,
          "durationTicks": 11,
          "midi": 79,
          "name": "G5",
          "ticks": 15541,
          "time": 180.7093023255814,
          "velocity": 0.1732283464566929
        },
        {
          "duration": 0.22093023255814614,
          "durationTicks": 19,
          "midi": 55,
          "name": "G3",
          "ticks": 15542,
          "time": 180.72093023255815,
          "velocity": 0.2992125984251969
        },
        {
          "duration": 0.034883720930224626,
          "durationTicks": 3,
          "midi": 86,
          "name": "D6",
          "ticks": 15542,
          "time": 180.72093023255815,
          "velocity": 0.09448818897637795
        },
        {
          "duration": 0.034883720930224626,
          "durationTicks": 3,
          "midi": 47,
          "name": "B2",
          "ticks": 15543,
          "time": 180.7325581395349,
          "velocity": 0.4094488188976378
        },
        {
          "duration": 0.19767441860466306,
          "durationTicks": 17,
          "midi": 60,
          "name": "C4",
          "ticks": 15544,
          "time": 180.74418604651163,
          "velocity": 0.2047244094488189
        },
        {
          "duration": 0.05813953488370771,
          "durationTicks": 5,
          "midi": 64,
          "name": "E4",
          "ticks": 15544,
          "time": 180.74418604651163,
          "velocity": 0.08661417322834646
        },
        {
          "duration": 0.023255813953483084,
          "durationTicks": 2,
          "midi": 34,
          "name": "A#1",
          "ticks": 15545,
          "time": 180.75581395348837,
          "velocity": 0.2755905511811024
        },
        {
          "duration": 0.2093023255814046,
          "durationTicks": 18,
          "midi": 48,
          "name": "C3",
          "ticks": 15546,
          "time": 180.7674418604651,
          "velocity": 0.3700787401574803
        },
        {
          "duration": 0.023255813953483084,
          "durationTicks": 2,
          "midi": 36,
          "name": "C2",
          "ticks": 15547,
          "time": 180.77906976744185,
          "velocity": 0.28346456692913385
        },
        {
          "duration": 0.04651162790696617,
          "durationTicks": 4,
          "midi": 36,
          "name": "C2",
          "ticks": 15550,
          "time": 180.8139534883721,
          "velocity": 0.2677165354330709
        },
        {
          "duration": 0.08139534883721922,
          "durationTicks": 7,
          "midi": 36,
          "name": "C2",
          "ticks": 15555,
          "time": 180.87209302325581,
          "velocity": 0.28346456692913385
        },
        {
          "duration": 0.05813953488370771,
          "durationTicks": 5,
          "midi": 66,
          "name": "F#4",
          "ticks": 15562,
          "time": 180.95348837209303,
          "velocity": 0.13385826771653545
        },
        {
          "duration": 0.06976744186044925,
          "durationTicks": 6,
          "midi": 36,
          "name": "C2",
          "ticks": 15563,
          "time": 180.96511627906978,
          "velocity": 0.29133858267716534
        },
        {
          "duration": 0.05813953488373613,
          "durationTicks": 5,
          "midi": 67,
          "name": "G4",
          "ticks": 15567,
          "time": 181.01162790697674,
          "velocity": 0.2440944881889764
        },
        {
          "duration": 0.023255813953483084,
          "durationTicks": 2,
          "midi": 37,
          "name": "C#2",
          "ticks": 15569,
          "time": 181.03488372093022,
          "velocity": 0.2755905511811024
        },
        {
          "duration": 0.023255813953483084,
          "durationTicks": 2,
          "midi": 44,
          "name": "G#2",
          "ticks": 15572,
          "time": 181.06976744186048,
          "velocity": 0.3700787401574803
        },
        {
          "duration": 0.09302325581393234,
          "durationTicks": 8,
          "midi": 60,
          "name": "C4",
          "ticks": 15573,
          "time": 181.08139534883722,
          "velocity": 0.2677165354330709
        },
        {
          "duration": 0.023255813953483084,
          "durationTicks": 2,
          "midi": 37,
          "name": "C#2",
          "ticks": 15574,
          "time": 181.09302325581396,
          "velocity": 0.30708661417322836
        },
        {
          "duration": 0.09302325581393234,
          "durationTicks": 8,
          "midi": 67,
          "name": "G4",
          "ticks": 15574,
          "time": 181.09302325581396,
          "velocity": 0.2440944881889764
        },
        {
          "duration": 0.023255813953483084,
          "durationTicks": 2,
          "midi": 48,
          "name": "C3",
          "ticks": 15575,
          "time": 181.1046511627907,
          "velocity": 0.23622047244094488
        },
        {
          "duration": 0.05813953488370771,
          "durationTicks": 5,
          "midi": 86,
          "name": "D6",
          "ticks": 15575,
          "time": 181.1046511627907,
          "velocity": 0.09448818897637795
        },
        {
          "duration": 0.06976744186047767,
          "durationTicks": 6,
          "midi": 69,
          "name": "A4",
          "ticks": 15581,
          "time": 181.17441860465115,
          "velocity": 0.12598425196850394
        },
        {
          "duration": 0.08139534883721922,
          "durationTicks": 7,
          "midi": 100,
          "name": "E7",
          "ticks": 15582,
          "time": 181.1860465116279,
          "velocity": 0.14173228346456693
        },
        {
          "duration": 0.09302325581396076,
          "durationTicks": 8,
          "midi": 48,
          "name": "C3",
          "ticks": 15592,
          "time": 181.30232558139534,
          "velocity": 0.33858267716535434
        },
        {
          "duration": 0.18604651162792152,
          "durationTicks": 16,
          "midi": 67,
          "name": "G4",
          "ticks": 15592,
          "time": 181.30232558139534,
          "velocity": 0.2283464566929134
        },
        {
          "duration": 0.023255813953483084,
          "durationTicks": 2,
          "midi": 37,
          "name": "C#2",
          "ticks": 15598,
          "time": 181.37209302325581,
          "velocity": 0.2755905511811024
        },
        {
          "duration": 0.08139534883721922,
          "durationTicks": 7,
          "midi": 78,
          "name": "F#5",
          "ticks": 15602,
          "time": 181.41860465116278,
          "velocity": 0.11023622047244094
        },
        {
          "duration": 0.03488372093025305,
          "durationTicks": 3,
          "midi": 55,
          "name": "G3",
          "ticks": 15603,
          "time": 181.43023255813952,
          "velocity": 0.1968503937007874
        },
        {
          "duration": 0.034883720930224626,
          "durationTicks": 3,
          "midi": 48,
          "name": "C3",
          "ticks": 15605,
          "time": 181.45348837209303,
          "velocity": 0.25984251968503935
        },
        {
          "duration": 0.06976744186047767,
          "durationTicks": 6,
          "midi": 67,
          "name": "G4",
          "ticks": 15611,
          "time": 181.52325581395348,
          "velocity": 0.16535433070866143
        },
        {
          "duration": 0.06976744186047767,
          "durationTicks": 6,
          "midi": 100,
          "name": "E7",
          "ticks": 15611,
          "time": 181.52325581395348,
          "velocity": 0.14960629921259844
        },
        {
          "duration": 0.03488372093025305,
          "durationTicks": 3,
          "midi": 41,
          "name": "F2",
          "ticks": 15613,
          "time": 181.54651162790697,
          "velocity": 0.3858267716535433
        },
        {
          "duration": 0.08139534883721922,
          "durationTicks": 7,
          "midi": 55,
          "name": "G3",
          "ticks": 15613,
          "time": 181.54651162790697,
          "velocity": 0.16535433070866143
        },
        {
          "duration": 0.023255813953483084,
          "durationTicks": 2,
          "midi": 33,
          "name": "A1",
          "ticks": 15615,
          "time": 181.56976744186048,
          "velocity": 0.25196850393700787
        },
        {
          "duration": 0.023255813953483084,
          "durationTicks": 2,
          "midi": 37,
          "name": "C#2",
          "ticks": 15618,
          "time": 181.6046511627907,
          "velocity": 0.2283464566929134
        },
        {
          "duration": 0.023255813953483084,
          "durationTicks": 2,
          "midi": 36,
          "name": "C2",
          "ticks": 15620,
          "time": 181.62790697674419,
          "velocity": 0.25984251968503935
        },
        {
          "duration": 0.11627906976744384,
          "durationTicks": 10,
          "midi": 67,
          "name": "G4",
          "ticks": 15620,
          "time": 181.62790697674419,
          "velocity": 0.1968503937007874
        },
        {
          "duration": 0.19767441860466306,
          "durationTicks": 17,
          "midi": 60,
          "name": "C4",
          "ticks": 15622,
          "time": 181.65116279069767,
          "velocity": 0.2125984251968504
        },
        {
          "duration": 0.04651162790699459,
          "durationTicks": 4,
          "midi": 55,
          "name": "G3",
          "ticks": 15623,
          "time": 181.6627906976744,
          "velocity": 0.16535433070866143
        },
        {
          "duration": 0.023255813953511506,
          "durationTicks": 2,
          "midi": 47,
          "name": "B2",
          "ticks": 15624,
          "time": 181.67441860465115,
          "velocity": 0.3700787401574803
        },
        {
          "duration": 0.023255813953511506,
          "durationTicks": 2,
          "midi": 35,
          "name": "B1",
          "ticks": 15625,
          "time": 181.6860465116279,
          "velocity": 0.29133858267716534
        },
        {
          "duration": 0.023255813953483084,
          "durationTicks": 2,
          "midi": 48,
          "name": "C3",
          "ticks": 15626,
          "time": 181.69767441860466,
          "velocity": 0.33858267716535434
        },
        {
          "duration": 0.04651162790696617,
          "durationTicks": 4,
          "midi": 86,
          "name": "D6",
          "ticks": 15626,
          "time": 181.69767441860466,
          "velocity": 0.07874015748031496
        },
        {
          "duration": 0.04651162790696617,
          "durationTicks": 4,
          "midi": 36,
          "name": "C2",
          "ticks": 15627,
          "time": 181.7093023255814,
          "velocity": 0.29133858267716534
        },
        {
          "duration": 0.2325581395348877,
          "durationTicks": 20,
          "midi": 48,
          "name": "C3",
          "ticks": 15629,
          "time": 181.7325581395349,
          "velocity": 0.33858267716535434
        },
        {
          "duration": 0.023255813953483084,
          "durationTicks": 2,
          "midi": 36,
          "name": "C2",
          "ticks": 15632,
          "time": 181.7674418604651,
          "velocity": 0.29133858267716534
        },
        {
          "duration": 0.04651162790699459,
          "durationTicks": 4,
          "midi": 36,
          "name": "C2",
          "ticks": 15635,
          "time": 181.80232558139534,
          "velocity": 0.2992125984251969
        },
        {
          "duration": 0.06976744186047767,
          "durationTicks": 6,
          "midi": 55,
          "name": "G3",
          "ticks": 15635,
          "time": 181.80232558139534,
          "velocity": 0.12598425196850394
        },
        {
          "duration": 0.023255813953483084,
          "durationTicks": 2,
          "midi": 36,
          "name": "C2",
          "ticks": 15640,
          "time": 181.86046511627907,
          "velocity": 0.2992125984251969
        },
        {
          "duration": 0.034883720930224626,
          "durationTicks": 3,
          "midi": 66,
          "name": "F#4",
          "ticks": 15642,
          "time": 181.88372093023256,
          "velocity": 0.11811023622047244
        },
        {
          "duration": 0.05813953488373613,
          "durationTicks": 5,
          "midi": 36,
          "name": "C2",
          "ticks": 15643,
          "time": 181.8953488372093,
          "velocity": 0.29133858267716534
        },
        {
          "duration": 0.16279069767443843,
          "durationTicks": 14,
          "midi": 67,
          "name": "G4",
          "ticks": 15646,
          "time": 181.93023255813952,
          "velocity": 0.28346456692913385
        },
        {
          "duration": 0.034883720930224626,
          "durationTicks": 3,
          "midi": 37,
          "name": "C#2",
          "ticks": 15648,
          "time": 181.95348837209303,
          "velocity": 0.2677165354330709
        },
        {
          "duration": 0.034883720930224626,
          "durationTicks": 3,
          "midi": 36,
          "name": "C2",
          "ticks": 15651,
          "time": 181.98837209302326,
          "velocity": 0.33858267716535434
        },
        {
          "duration": 0.04651162790696617,
          "durationTicks": 4,
          "midi": 47,
          "name": "B2",
          "ticks": 15651,
          "time": 181.98837209302326,
          "velocity": 0.3228346456692913
        },
        {
          "duration": 0.023255813953483084,
          "durationTicks": 2,
          "midi": 35,
          "name": "B1",
          "ticks": 15654,
          "time": 182.02325581395348,
          "velocity": 0.2755905511811024
        },
        {
          "duration": 0.04651162790699459,
          "durationTicks": 4,
          "midi": 52,
          "name": "E3",
          "ticks": 15657,
          "time": 182.0581395348837,
          "velocity": 0.2047244094488189
        },
        {
          "duration": 0.034883720930224626,
          "durationTicks": 3,
          "midi": 60,
          "name": "C4",
          "ticks": 15661,
          "time": 182.1046511627907,
          "velocity": 0.11811023622047244
        },
        {
          "duration": 0.08139534883721922,
          "durationTicks": 7,
          "midi": 100,
          "name": "E7",
          "ticks": 15662,
          "time": 182.11627906976744,
          "velocity": 0.13385826771653545
        },
        {
          "duration": 0.12790697674418539,
          "durationTicks": 11,
          "midi": 50,
          "name": "D3",
          "ticks": 15663,
          "time": 182.12790697674419,
          "velocity": 0.3228346456692913
        },
        {
          "duration": 0.16279069767443843,
          "durationTicks": 14,
          "midi": 38,
          "name": "D2",
          "ticks": 15666,
          "time": 182.1627906976744,
          "velocity": 0.31496062992125984
        },
        {
          "duration": 0.05813953488373613,
          "durationTicks": 5,
          "midi": 57,
          "name": "A3",
          "ticks": 15668,
          "time": 182.1860465116279,
          "velocity": 0.13385826771653545
        },
        {
          "duration": 0.09302325581396076,
          "durationTicks": 8,
          "midi": 67,
          "name": "G4",
          "ticks": 15672,
          "time": 182.2325581395349,
          "velocity": 0.1732283464566929
        },
        {
          "duration": 0.023255813953483084,
          "durationTicks": 2,
          "midi": 39,
          "name": "D#2",
          "ticks": 15680,
          "time": 182.32558139534885,
          "velocity": 0.2677165354330709
        },
        {
          "duration": 0.05813953488370771,
          "durationTicks": 5,
          "midi": 78,
          "name": "F#5",
          "ticks": 15682,
          "time": 182.34883720930233,
          "velocity": 0.18110236220472442
        },
        {
          "duration": 0.04651162790696617,
          "durationTicks": 4,
          "midi": 100,
          "name": "E7",
          "ticks": 15682,
          "time": 182.34883720930233,
          "velocity": 0.10236220472440945
        },
        {
          "duration": 0.1860465116278931,
          "durationTicks": 16,
          "midi": 55,
          "name": "G3",
          "ticks": 15683,
          "time": 182.36046511627907,
          "velocity": 0.25196850393700787
        },
        {
          "duration": 0.04651162790696617,
          "durationTicks": 4,
          "midi": 66,
          "name": "F#4",
          "ticks": 15683,
          "time": 182.36046511627907,
          "velocity": 0.09448818897637795
        },
        {
          "duration": 0.023255813953483084,
          "durationTicks": 2,
          "midi": 34,
          "name": "A#1",
          "ticks": 15684,
          "time": 182.37209302325581,
          "velocity": 0.2992125984251969
        },
        {
          "duration": 0.034883720930224626,
          "durationTicks": 3,
          "midi": 48,
          "name": "C3",
          "ticks": 15685,
          "time": 182.38372093023256,
          "velocity": 0.29133858267716534
        },
        {
          "duration": 0.05813953488373613,
          "durationTicks": 5,
          "midi": 93,
          "name": "A6",
          "ticks": 15685,
          "time": 182.38372093023256,
          "velocity": 0.11811023622047244
        },
        {
          "duration": 0.034883720930224626,
          "durationTicks": 3,
          "midi": 74,
          "name": "D5",
          "ticks": 15686,
          "time": 182.3953488372093,
          "velocity": 0.07086614173228346
        },
        {
          "duration": 0.16279069767443843,
          "durationTicks": 14,
          "midi": 36,
          "name": "C2",
          "ticks": 15687,
          "time": 182.40697674418604,
          "velocity": 0.29133858267716534
        },
        {
          "duration": 0.09302325581393234,
          "durationTicks": 8,
          "midi": 69,
          "name": "A4",
          "ticks": 15692,
          "time": 182.46511627906978,
          "velocity": 0.1889763779527559
        },
        {
          "duration": 0.06976744186044925,
          "durationTicks": 6,
          "midi": 60,
          "name": "C4",
          "ticks": 15693,
          "time": 182.47674418604652,
          "velocity": 0.11811023622047244
        },
        {
          "duration": 0.06976744186044925,
          "durationTicks": 6,
          "midi": 100,
          "name": "E7",
          "ticks": 15693,
          "time": 182.47674418604652,
          "velocity": 0.11811023622047244
        },
        {
          "duration": 0.023255813953483084,
          "durationTicks": 2,
          "midi": 46,
          "name": "A#2",
          "ticks": 15701,
          "time": 182.56976744186048,
          "velocity": 0.2677165354330709
        },
        {
          "duration": 0.023255813953483084,
          "durationTicks": 2,
          "midi": 53,
          "name": "F3",
          "ticks": 15702,
          "time": 182.58139534883722,
          "velocity": 0.23622047244094488
        },
        {
          "duration": 0.06976744186044925,
          "durationTicks": 6,
          "midi": 84,
          "name": "C6",
          "ticks": 15702,
          "time": 182.58139534883722,
          "velocity": 0.13385826771653545
        },
        {
          "duration": 0.11627906976744384,
          "durationTicks": 10,
          "midi": 63,
          "name": "D#4",
          "ticks": 15705,
          "time": 182.61627906976744,
          "velocity": 0.12598425196850394
        },
        {
          "duration": 0.19767441860466306,
          "durationTicks": 17,
          "midi": 59,
          "name": "B3",
          "ticks": 15706,
          "time": 182.62790697674419,
          "velocity": 0.1968503937007874
        },
        {
          "duration": 0.22093023255814614,
          "durationTicks": 19,
          "midi": 47,
          "name": "B2",
          "ticks": 15707,
          "time": 182.63953488372093,
          "velocity": 0.2755905511811024
        },
        {
          "duration": 0.04651162790699459,
          "durationTicks": 4,
          "midi": 35,
          "name": "B1",
          "ticks": 15709,
          "time": 182.6627906976744,
          "velocity": 0.1968503937007874
        },
        {
          "duration": 0.3604651162790731,
          "durationTicks": 31,
          "midi": 66,
          "name": "F#4",
          "ticks": 15710,
          "time": 182.67441860465115,
          "velocity": 0.2677165354330709
        },
        {
          "duration": 0.0813953488371908,
          "durationTicks": 7,
          "midi": 35,
          "name": "B1",
          "ticks": 15714,
          "time": 182.72093023255815,
          "velocity": 0.2125984251968504
        },
        {
          "duration": 0.08139534883721922,
          "durationTicks": 7,
          "midi": 54,
          "name": "F#3",
          "ticks": 15716,
          "time": 182.74418604651163,
          "velocity": 0.15748031496062992
        },
        {
          "duration": 0.05813953488370771,
          "durationTicks": 5,
          "midi": 47,
          "name": "B2",
          "ticks": 15727,
          "time": 182.87209302325581,
          "velocity": 0.25196850393700787
        },
        {
          "duration": 0.034883720930224626,
          "durationTicks": 3,
          "midi": 53,
          "name": "F3",
          "ticks": 15729,
          "time": 182.8953488372093,
          "velocity": 0.18110236220472442
        },
        {
          "duration": 0.11627906976744384,
          "durationTicks": 10,
          "midi": 59,
          "name": "B3",
          "ticks": 15732,
          "time": 182.93023255813952,
          "velocity": 0.1889763779527559
        },
        {
          "duration": 0.09302325581393234,
          "durationTicks": 8,
          "midi": 47,
          "name": "B2",
          "ticks": 15733,
          "time": 182.9418604651163,
          "velocity": 0.3464566929133858
        },
        {
          "duration": 0.03488372093025305,
          "durationTicks": 3,
          "midi": 67,
          "name": "G4",
          "ticks": 15741,
          "time": 183.03488372093022,
          "velocity": 0.13385826771653545
        },
        {
          "duration": 0.06976744186044925,
          "durationTicks": 6,
          "midi": 66,
          "name": "F#4",
          "ticks": 15747,
          "time": 183.1046511627907,
          "velocity": 0.18110236220472442
        },
        {
          "duration": 0.03488372093025305,
          "durationTicks": 3,
          "midi": 59,
          "name": "B3",
          "ticks": 15753,
          "time": 183.17441860465115,
          "velocity": 0.18110236220472442
        },
        {
          "duration": 0.023255813953483084,
          "durationTicks": 2,
          "midi": 32,
          "name": "G#1",
          "ticks": 15756,
          "time": 183.2093023255814,
          "velocity": 0.30708661417322836
        },
        {
          "duration": 0.023255813953483084,
          "durationTicks": 2,
          "midi": 36,
          "name": "C2",
          "ticks": 15759,
          "time": 183.24418604651163,
          "velocity": 0.25984251968503935
        },
        {
          "duration": 0.11627906976744384,
          "durationTicks": 10,
          "midi": 76,
          "name": "E5",
          "ticks": 15761,
          "time": 183.2674418604651,
          "velocity": 0.14173228346456693
        },
        {
          "duration": 0.18604651162792152,
          "durationTicks": 16,
          "midi": 64,
          "name": "E4",
          "ticks": 15762,
          "time": 183.27906976744185,
          "velocity": 0.23622047244094488
        },
        {
          "duration": 0.03488372093025305,
          "durationTicks": 3,
          "midi": 100,
          "name": "E7",
          "ticks": 15762,
          "time": 183.27906976744185,
          "velocity": 0.09448818897637795
        },
        {
          "duration": 0.023255813953511506,
          "durationTicks": 2,
          "midi": 45,
          "name": "A2",
          "ticks": 15763,
          "time": 183.2906976744186,
          "velocity": 0.4094488188976378
        },
        {
          "duration": 0.04651162790699459,
          "durationTicks": 4,
          "midi": 59,
          "name": "B3",
          "ticks": 15763,
          "time": 183.2906976744186,
          "velocity": 0.1889763779527559
        },
        {
          "duration": 0.023255813953483084,
          "durationTicks": 2,
          "midi": 33,
          "name": "A1",
          "ticks": 15765,
          "time": 183.3139534883721,
          "velocity": 0.2755905511811024
        },
        {
          "duration": 0.023255813953483084,
          "durationTicks": 2,
          "midi": 34,
          "name": "A#1",
          "ticks": 15767,
          "time": 183.3372093023256,
          "velocity": 0.2677165354330709
        },
        {
          "duration": 0.023255813953483084,
          "durationTicks": 2,
          "midi": 35,
          "name": "B1",
          "ticks": 15769,
          "time": 183.36046511627907,
          "velocity": 0.2677165354330709
        },
        {
          "duration": 0.023255813953483084,
          "durationTicks": 2,
          "midi": 44,
          "name": "G#2",
          "ticks": 15772,
          "time": 183.3953488372093,
          "velocity": 0.3937007874015748
        },
        {
          "duration": 0.034883720930224626,
          "durationTicks": 3,
          "midi": 70,
          "name": "A#4",
          "ticks": 15772,
          "time": 183.3953488372093,
          "velocity": 0.15748031496062992
        },
        {
          "duration": 0.08139534883721922,
          "durationTicks": 7,
          "midi": 47,
          "name": "B2",
          "ticks": 15775,
          "time": 183.43023255813952,
          "velocity": 0.25196850393700787
        },
        {
          "duration": 0.1046511627907023,
          "durationTicks": 9,
          "midi": 75,
          "name": "D#5",
          "ticks": 15781,
          "time": 183.5,
          "velocity": 0.1968503937007874
        },
        {
          "duration": 0.034883720930224626,
          "durationTicks": 3,
          "midi": 53,
          "name": "F3",
          "ticks": 15782,
          "time": 183.51162790697674,
          "velocity": 0.2283464566929134
        },
        {
          "duration": 0.06976744186047767,
          "durationTicks": 6,
          "midi": 63,
          "name": "D#4",
          "ticks": 15783,
          "time": 183.52325581395348,
          "velocity": 0.12598425196850394
        },
        {
          "duration": 0.023255813953511506,
          "durationTicks": 2,
          "midi": 47,
          "name": "B2",
          "ticks": 15785,
          "time": 183.54651162790697,
          "velocity": 0.30708661417322836
        },
        {
          "duration": 0.09302325581396076,
          "durationTicks": 8,
          "midi": 54,
          "name": "F#3",
          "ticks": 15785,
          "time": 183.54651162790697,
          "velocity": 0.2125984251968504
        },
        {
          "duration": 0.023255813953483084,
          "durationTicks": 2,
          "midi": 47,
          "name": "B2",
          "ticks": 15791,
          "time": 183.61627906976744,
          "velocity": 0.2677165354330709
        },
        {
          "duration": 0.023255813953483084,
          "durationTicks": 2,
          "midi": 47,
          "name": "B2",
          "ticks": 15794,
          "time": 183.65116279069767,
          "velocity": 0.25196850393700787
        },
        {
          "duration": 0.17441860465117998,
          "durationTicks": 15,
          "midi": 54,
          "name": "F#3",
          "ticks": 15794,
          "time": 183.65116279069767,
          "velocity": 0.1968503937007874
        },
        {
          "duration": 0.034883720930224626,
          "durationTicks": 3,
          "midi": 64,
          "name": "E4",
          "ticks": 15799,
          "time": 183.7093023255814,
          "velocity": 0.13385826771653545
        },
        {
          "duration": 0.023255813953483084,
          "durationTicks": 2,
          "midi": 47,
          "name": "B2",
          "ticks": 15800,
          "time": 183.72093023255815,
          "velocity": 0.2283464566929134
        },
        {
          "duration": 0.08139534883721922,
          "durationTicks": 7,
          "midi": 76,
          "name": "E5",
          "ticks": 15803,
          "time": 183.75581395348837,
          "velocity": 0.1732283464566929
        },
        {
          "duration": 0.023255813953483084,
          "durationTicks": 2,
          "midi": 35,
          "name": "B1",
          "ticks": 15804,
          "time": 183.7674418604651,
          "velocity": 0.2440944881889764
        },
        {
          "duration": 0.1046511627907023,
          "durationTicks": 9,
          "midi": 64,
          "name": "E4",
          "ticks": 15804,
          "time": 183.7674418604651,
          "velocity": 0.2047244094488189
        },
        {
          "duration": 0.04651162790699459,
          "durationTicks": 4,
          "midi": 83,
          "name": "B5",
          "ticks": 15804,
          "time": 183.7674418604651,
          "velocity": 0.08661417322834646
        },
        {
          "duration": 0.034883720930224626,
          "durationTicks": 3,
          "midi": 45,
          "name": "A2",
          "ticks": 15812,
          "time": 183.86046511627907,
          "velocity": 0.33858267716535434
        },
        {
          "duration": 0.15116279069766847,
          "durationTicks": 13,
          "midi": 66,
          "name": "F#4",
          "ticks": 15812,
          "time": 183.86046511627907,
          "velocity": 0.1732283464566929
        },
        {
          "duration": 0.034883720930224626,
          "durationTicks": 3,
          "midi": 58,
          "name": "A#3",
          "ticks": 15814,
          "time": 183.88372093023256,
          "velocity": 0.12598425196850394
        },
        {
          "duration": 0.05813953488373613,
          "durationTicks": 5,
          "midi": 35,
          "name": "B1",
          "ticks": 15817,
          "time": 183.91860465116278,
          "velocity": 0.29133858267716534
        },
        {
          "duration": 0.03488372093025305,
          "durationTicks": 3,
          "midi": 54,
          "name": "F#3",
          "ticks": 15817,
          "time": 183.91860465116278,
          "velocity": 0.13385826771653545
        },
        {
          "duration": 0.023255813953483084,
          "durationTicks": 2,
          "midi": 47,
          "name": "B2",
          "ticks": 15824,
          "time": 184,
          "velocity": 0.29133858267716534
        },
        {
          "duration": 0.06976744186047767,
          "durationTicks": 6,
          "midi": 54,
          "name": "F#3",
          "ticks": 15824,
          "time": 184,
          "velocity": 0.25196850393700787
        },
        {
          "duration": 0.11627906976744384,
          "durationTicks": 10,
          "midi": 47,
          "name": "B2",
          "ticks": 15828,
          "time": 184.04651162790697,
          "velocity": 0.2283464566929134
        },
        {
          "duration": 0.11627906976741542,
          "durationTicks": 10,
          "midi": 35,
          "name": "B1",
          "ticks": 15830,
          "time": 184.06976744186048,
          "velocity": 0.2204724409448819
        },
        {
          "duration": 0.023255813953483084,
          "durationTicks": 2,
          "midi": 48,
          "name": "C3",
          "ticks": 15838,
          "time": 184.1627906976744,
          "velocity": 0.2283464566929134
        },
        {
          "duration": 0.03488372093025305,
          "durationTicks": 3,
          "midi": 57,
          "name": "A3",
          "ticks": 15840,
          "time": 184.1860465116279,
          "velocity": 0.2204724409448819
        },
        {
          "duration": 0.11627906976744384,
          "durationTicks": 10,
          "midi": 67,
          "name": "G4",
          "ticks": 15843,
          "time": 184.22093023255815,
          "velocity": 0.2283464566929134
        },
        {
          "duration": 0.09302325581396076,
          "durationTicks": 8,
          "midi": 47,
          "name": "B2",
          "ticks": 15844,
          "time": 184.2325581395349,
          "velocity": 0.25196850393700787
        },
        {
          "duration": 0.023255813953483084,
          "durationTicks": 2,
          "midi": 35,
          "name": "B1",
          "ticks": 15845,
          "time": 184.24418604651163,
          "velocity": 0.25196850393700787
        },
        {
          "duration": 0.05813953488370771,
          "durationTicks": 5,
          "midi": 54,
          "name": "F#3",
          "ticks": 15845,
          "time": 184.24418604651163,
          "velocity": 0.1968503937007874
        },
        {
          "duration": 0.17441860465117998,
          "durationTicks": 15,
          "midi": 35,
          "name": "B1",
          "ticks": 15848,
          "time": 184.27906976744185,
          "velocity": 0.2440944881889764
        },
        {
          "duration": 0.034883720930224626,
          "durationTicks": 3,
          "midi": 53,
          "name": "F3",
          "ticks": 15852,
          "time": 184.32558139534885,
          "velocity": 0.2283464566929134
        },
        {
          "duration": 0.06976744186044925,
          "durationTicks": 6,
          "midi": 59,
          "name": "B3",
          "ticks": 15855,
          "time": 184.36046511627907,
          "velocity": 0.23622047244094488
        },
        {
          "duration": 0.04651162790696617,
          "durationTicks": 4,
          "midi": 47,
          "name": "B2",
          "ticks": 15857,
          "time": 184.38372093023256,
          "velocity": 0.2440944881889764
        },
        {
          "duration": 0.023255813953511506,
          "durationTicks": 2,
          "midi": 58,
          "name": "A#3",
          "ticks": 15861,
          "time": 184.43023255813952,
          "velocity": 0.2283464566929134
        },
        {
          "duration": 0.11627906976744384,
          "durationTicks": 10,
          "midi": 66,
          "name": "F#4",
          "ticks": 15863,
          "time": 184.45348837209303,
          "velocity": 0.2677165354330709
        },
        {
          "duration": 0.04651162790696617,
          "durationTicks": 4,
          "midi": 61,
          "name": "C#4",
          "ticks": 15864,
          "time": 184.46511627906978,
          "velocity": 0.10236220472440945
        },
        {
          "duration": 0.04651162790696617,
          "durationTicks": 4,
          "midi": 100,
          "name": "E7",
          "ticks": 15864,
          "time": 184.46511627906978,
          "velocity": 0.09448818897637795
        },
        {
          "duration": 0.023255813953483084,
          "durationTicks": 2,
          "midi": 33,
          "name": "A1",
          "ticks": 15865,
          "time": 184.47674418604652,
          "velocity": 0.2440944881889764
        },
        {
          "duration": 0.023255813953483084,
          "durationTicks": 2,
          "midi": 47,
          "name": "B2",
          "ticks": 15865,
          "time": 184.47674418604652,
          "velocity": 0.23622047244094488
        },
        {
          "duration": 0.023255813953483084,
          "durationTicks": 2,
          "midi": 35,
          "name": "B1",
          "ticks": 15867,
          "time": 184.5,
          "velocity": 0.2992125984251969
        },
        {
          "duration": 0.034883720930224626,
          "durationTicks": 3,
          "midi": 71,
          "name": "B4",
          "ticks": 15875,
          "time": 184.59302325581396,
          "velocity": 0.08661417322834646
        },
        {
          "duration": 0.0813953488371908,
          "durationTicks": 7,
          "midi": 54,
          "name": "F#3",
          "ticks": 15876,
          "time": 184.6046511627907,
          "velocity": 0.09448818897637795
        },
        {
          "duration": 0.0813953488371908,
          "durationTicks": 7,
          "midi": 59,
          "name": "B3",
          "ticks": 15876,
          "time": 184.6046511627907,
          "velocity": 0.1968503937007874
        },
        {
          "duration": 0.03488372093025305,
          "durationTicks": 3,
          "midi": 76,
          "name": "E5",
          "ticks": 15883,
          "time": 184.6860465116279,
          "velocity": 0.2125984251968504
        },
        {
          "duration": 0.11627906976744384,
          "durationTicks": 10,
          "midi": 67,
          "name": "G4",
          "ticks": 15884,
          "time": 184.69767441860466,
          "velocity": 0.2204724409448819
        },
        {
          "duration": 0.04651162790696617,
          "durationTicks": 4,
          "midi": 35,
          "name": "B1",
          "ticks": 15885,
          "time": 184.7093023255814,
          "velocity": 0.25984251968503935
        },
        {
          "duration": 0.034883720930224626,
          "durationTicks": 3,
          "midi": 59,
          "name": "B3",
          "ticks": 15886,
          "time": 184.72093023255815,
          "velocity": 0.07086614173228346
        },
        {
          "duration": 0.023255813953483084,
          "durationTicks": 2,
          "midi": 46,
          "name": "A#2",
          "ticks": 15887,
          "time": 184.7325581395349,
          "velocity": 0.2283464566929134
        },
        {
          "duration": 0.034883720930224626,
          "durationTicks": 3,
          "midi": 98,
          "name": "D7",
          "ticks": 15887,
          "time": 184.7325581395349,
          "velocity": 0.07874015748031496
        },
        {
          "duration": 0.023255813953483084,
          "durationTicks": 2,
          "midi": 35,
          "name": "B1",
          "ticks": 15890,
          "time": 184.7674418604651,
          "velocity": 0.25984251968503935
        },
        {
          "duration": 0.05813953488373613,
          "durationTicks": 5,
          "midi": 35,
          "name": "B1",
          "ticks": 15893,
          "time": 184.80232558139534,
          "velocity": 0.25196850393700787
        },
        {
          "duration": 0.023255813953483084,
          "durationTicks": 2,
          "midi": 58,
          "name": "A#3",
          "ticks": 15894,
          "time": 184.8139534883721,
          "velocity": 0.23622047244094488
        },
        {
          "duration": 0.034883720930224626,
          "durationTicks": 3,
          "midi": 51,
          "name": "D#3",
          "ticks": 15895,
          "time": 184.82558139534885,
          "velocity": 0.1732283464566929
        },
        {
          "duration": 0.0813953488371908,
          "durationTicks": 7,
          "midi": 59,
          "name": "B3",
          "ticks": 15896,
          "time": 184.8372093023256,
          "velocity": 0.2283464566929134
        },
        {
          "duration": 0.023255813953483084,
          "durationTicks": 2,
          "midi": 35,
          "name": "B1",
          "ticks": 15899,
          "time": 184.87209302325581,
          "velocity": 0.25196850393700787
        },
        {
          "duration": 0.06976744186047767,
          "durationTicks": 6,
          "midi": 100,
          "name": "E7",
          "ticks": 15904,
          "time": 184.93023255813952,
          "velocity": 0.14173228346456693
        },
        {
          "duration": 0.023255813953483084,
          "durationTicks": 2,
          "midi": 45,
          "name": "A2",
          "ticks": 15905,
          "time": 184.9418604651163,
          "velocity": 0.31496062992125984
        },
        {
          "duration": 0.06976744186044925,
          "durationTicks": 6,
          "midi": 47,
          "name": "B2",
          "ticks": 15908,
          "time": 184.97674418604652,
          "velocity": 0.1732283464566929
        },
        {
          "duration": 0.12790697674418539,
          "durationTicks": 11,
          "midi": 35,
          "name": "B1",
          "ticks": 15910,
          "time": 185,
          "velocity": 0.2677165354330709
        },
        {
          "duration": 0.03488372093025305,
          "durationTicks": 3,
          "midi": 71,
          "name": "B4",
          "ticks": 15915,
          "time": 185.0581395348837,
          "velocity": 0.09448818897637795
        },
        {
          "duration": 0.05813953488370771,
          "durationTicks": 5,
          "midi": 57,
          "name": "A3",
          "ticks": 15917,
          "time": 185.08139534883722,
          "velocity": 0.2047244094488189
        },
        {
          "duration": 0.023255813953483084,
          "durationTicks": 2,
          "midi": 36,
          "name": "C2",
          "ticks": 15921,
          "time": 185.12790697674419,
          "velocity": 0.28346456692913385
        },
        {
          "duration": 0.034883720930224626,
          "durationTicks": 3,
          "midi": 58,
          "name": "A#3",
          "ticks": 15922,
          "time": 185.13953488372093,
          "velocity": 0.2204724409448819
        },
        {
          "duration": 0.1046511627907023,
          "durationTicks": 9,
          "midi": 67,
          "name": "G4",
          "ticks": 15924,
          "time": 185.1627906976744,
          "velocity": 0.1968503937007874
        },
        {
          "duration": 0.06976744186044925,
          "durationTicks": 6,
          "midi": 47,
          "name": "B2",
          "ticks": 15928,
          "time": 185.2093023255814,
          "velocity": 0.2755905511811024
        },
        {
          "duration": 0.05813953488373613,
          "durationTicks": 5,
          "midi": 63,
          "name": "D#4",
          "ticks": 15933,
          "time": 185.2674418604651,
          "velocity": 0.16535433070866143
        },
        {
          "duration": 0.023255813953511506,
          "durationTicks": 2,
          "midi": 47,
          "name": "B2",
          "ticks": 15935,
          "time": 185.2906976744186,
          "velocity": 0.2440944881889764
        },
        {
          "duration": 0.06976744186047767,
          "durationTicks": 6,
          "midi": 59,
          "name": "B3",
          "ticks": 15935,
          "time": 185.2906976744186,
          "velocity": 0.2755905511811024
        },
        {
          "duration": 0.04651162790696617,
          "durationTicks": 4,
          "midi": 63,
          "name": "D#4",
          "ticks": 15941,
          "time": 185.36046511627907,
          "velocity": 0.14173228346456693
        },
        {
          "duration": 0.06976744186047767,
          "durationTicks": 6,
          "midi": 100,
          "name": "E7",
          "ticks": 15943,
          "time": 185.38372093023256,
          "velocity": 0.14960629921259844
        },
        {
          "duration": 0.12790697674418539,
          "durationTicks": 11,
          "midi": 54,
          "name": "F#3",
          "ticks": 15944,
          "time": 185.3953488372093,
          "velocity": 0.2992125984251969
        },
        {
          "duration": 0.034883720930224626,
          "durationTicks": 3,
          "midi": 47,
          "name": "B2",
          "ticks": 15948,
          "time": 185.4418604651163,
          "velocity": 0.2283464566929134
        },
        {
          "duration": 0.034883720930224626,
          "durationTicks": 3,
          "midi": 69,
          "name": "A4",
          "ticks": 15950,
          "time": 185.46511627906978,
          "velocity": 0.07874015748031496
        },
        {
          "duration": 0.023255813953483084,
          "durationTicks": 2,
          "midi": 46,
          "name": "A#2",
          "ticks": 15951,
          "time": 185.47674418604652,
          "velocity": 0.2677165354330709
        },
        {
          "duration": 0.034883720930224626,
          "durationTicks": 3,
          "midi": 59,
          "name": "B3",
          "ticks": 15954,
          "time": 185.51162790697674,
          "velocity": 0.09448818897637795
        },
        {
          "duration": 0.034883720930224626,
          "durationTicks": 3,
          "midi": 47,
          "name": "B2",
          "ticks": 15955,
          "time": 185.52325581395348,
          "velocity": 0.2283464566929134
        },
        {
          "duration": 0.023255813953511506,
          "durationTicks": 2,
          "midi": 34,
          "name": "A#1",
          "ticks": 15957,
          "time": 185.54651162790697,
          "velocity": 0.2440944881889764
        },
        {
          "duration": 0.023255813953483084,
          "durationTicks": 2,
          "midi": 35,
          "name": "B1",
          "ticks": 15960,
          "time": 185.58139534883722,
          "velocity": 0.23622047244094488
        },
        {
          "duration": 0.0813953488371908,
          "durationTicks": 7,
          "midi": 71,
          "name": "B4",
          "ticks": 15962,
          "time": 185.6046511627907,
          "velocity": 0.18110236220472442
        },
        {
          "duration": 0.04651162790696617,
          "durationTicks": 4,
          "midi": 83,
          "name": "B5",
          "ticks": 15962,
          "time": 185.6046511627907,
          "velocity": 0.1968503937007874
        },
        {
          "duration": 0.04651162790696617,
          "durationTicks": 4,
          "midi": 59,
          "name": "B3",
          "ticks": 15964,
          "time": 185.62790697674419,
          "velocity": 0.13385826771653545
        },
        {
          "duration": 0.023255813953483084,
          "durationTicks": 2,
          "midi": 33,
          "name": "A1",
          "ticks": 15965,
          "time": 185.63953488372093,
          "velocity": 0.28346456692913385
        },
        {
          "duration": 0.04651162790699459,
          "durationTicks": 4,
          "midi": 47,
          "name": "B2",
          "ticks": 15968,
          "time": 185.67441860465115,
          "velocity": 0.28346456692913385
        },
        {
          "duration": 0.023255813953483084,
          "durationTicks": 2,
          "midi": 47,
          "name": "B2",
          "ticks": 15973,
          "time": 185.7325581395349,
          "velocity": 0.30708661417322836
        },
        {
          "duration": 0.023255813953483084,
          "durationTicks": 2,
          "midi": 36,
          "name": "C2",
          "ticks": 15975,
          "time": 185.75581395348837,
          "velocity": 0.23622047244094488
        },
        {
          "duration": 0.023255813953483084,
          "durationTicks": 2,
          "midi": 46,
          "name": "A#2",
          "ticks": 15975,
          "time": 185.75581395348837,
          "velocity": 0.2992125984251969
        },
        {
          "duration": 0.023255813953483084,
          "durationTicks": 2,
          "midi": 47,
          "name": "B2",
          "ticks": 15980,
          "time": 185.8139534883721,
          "velocity": 0.25196850393700787
        },
        {
          "duration": 0.06976744186044925,
          "durationTicks": 6,
          "midi": 100,
          "name": "E7",
          "ticks": 15983,
          "time": 185.84883720930233,
          "velocity": 0.14960629921259844
        },
        {
          "duration": 0.023255813953483084,
          "durationTicks": 2,
          "midi": 50,
          "name": "D3",
          "ticks": 15984,
          "time": 185.86046511627907,
          "velocity": 0.33858267716535434
        },
        {
          "duration": 0.1046511627907023,
          "durationTicks": 9,
          "midi": 57,
          "name": "A3",
          "ticks": 15984,
          "time": 185.86046511627907,
          "velocity": 0.2047244094488189
        },
        {
          "duration": 0.09302325581396076,
          "durationTicks": 8,
          "midi": 50,
          "name": "D3",
          "ticks": 15987,
          "time": 185.8953488372093,
          "velocity": 0.25984251968503935
        },
        {
          "duration": 0.09302325581393234,
          "durationTicks": 8,
          "midi": 38,
          "name": "D2",
          "ticks": 15991,
          "time": 185.9418604651163,
          "velocity": 0.2755905511811024
        },
        {
          "duration": 0.034883720930224626,
          "durationTicks": 3,
          "midi": 71,
          "name": "B4",
          "ticks": 15994,
          "time": 185.97674418604652,
          "velocity": 0.09448818897637795
        },
        {
          "duration": 0.04651162790696617,
          "durationTicks": 4,
          "midi": 59,
          "name": "B3",
          "ticks": 15996,
          "time": 186,
          "velocity": 0.2677165354330709
        },
        {
          "duration": 0.04651162790696617,
          "durationTicks": 4,
          "midi": 51,
          "name": "D#3",
          "ticks": 15997,
          "time": 186.01162790697674,
          "velocity": 0.25984251968503935
        },
        {
          "duration": 0.05813953488373613,
          "durationTicks": 5,
          "midi": 67,
          "name": "G4",
          "ticks": 15997,
          "time": 186.01162790697674,
          "velocity": 0.11023622047244094
        },
        {
          "duration": 0.023255813953483084,
          "durationTicks": 2,
          "midi": 40,
          "name": "E2",
          "ticks": 15999,
          "time": 186.03488372093022,
          "velocity": 0.23622047244094488
        },
        {
          "duration": 0.10465116279067388,
          "durationTicks": 9,
          "midi": 83,
          "name": "B5",
          "ticks": 16003,
          "time": 186.08139534883722,
          "velocity": 0.15748031496062992
        },
        {
          "duration": 0.06976744186044925,
          "durationTicks": 6,
          "midi": 71,
          "name": "B4",
          "ticks": 16004,
          "time": 186.09302325581396,
          "velocity": 0.16535433070866143
        },
        {
          "duration": 0.05813953488370771,
          "durationTicks": 5,
          "midi": 39,
          "name": "D#2",
          "ticks": 16005,
          "time": 186.1046511627907,
          "velocity": 0.30708661417322836
        },
        {
          "duration": 0.04651162790696617,
          "durationTicks": 4,
          "midi": 88,
          "name": "E6",
          "ticks": 16006,
          "time": 186.11627906976744,
          "velocity": 0.07874015748031496
        },
        {
          "duration": 0.034883720930224626,
          "durationTicks": 3,
          "midi": 99,
          "name": "D#7",
          "ticks": 16006,
          "time": 186.11627906976744,
          "velocity": 0.07086614173228346
        },
        {
          "duration": 0.05813953488373613,
          "durationTicks": 5,
          "midi": 67,
          "name": "G4",
          "ticks": 16009,
          "time": 186.15116279069767,
          "velocity": 0.13385826771653545
        },
        {
          "duration": 0.03488372093025305,
          "durationTicks": 3,
          "midi": 39,
          "name": "D#2",
          "ticks": 16011,
          "time": 186.17441860465115,
          "velocity": 0.31496062992125984
        },
        {
          "duration": 0.03488372093025305,
          "durationTicks": 3,
          "midi": 57,
          "name": "A3",
          "ticks": 16012,
          "time": 186.1860465116279,
          "velocity": 0.14173228346456693
        },
        {
          "duration": 0.05813953488370771,
          "durationTicks": 5,
          "midi": 40,
          "name": "E2",
          "ticks": 16015,
          "time": 186.22093023255815,
          "velocity": 0.3464566929133858
        },
        {
          "duration": 0.05813953488370771,
          "durationTicks": 5,
          "midi": 59,
          "name": "B3",
          "ticks": 16016,
          "time": 186.2325581395349,
          "velocity": 0.15748031496062992
        },
        {
          "duration": 0.04651162790699459,
          "durationTicks": 4,
          "midi": 64,
          "name": "E4",
          "ticks": 16022,
          "time": 186.30232558139534,
          "velocity": 0.16535433070866143
        },
        {
          "duration": 0.05813953488373613,
          "durationTicks": 5,
          "midi": 76,
          "name": "E5",
          "ticks": 16022,
          "time": 186.30232558139534,
          "velocity": 0.29133858267716534
        },
        {
          "duration": 0.023255813953483084,
          "durationTicks": 2,
          "midi": 46,
          "name": "A#2",
          "ticks": 16023,
          "time": 186.3139534883721,
          "velocity": 0.30708661417322836
        },
        {
          "duration": 0.04651162790696617,
          "durationTicks": 4,
          "midi": 52,
          "name": "E3",
          "ticks": 16024,
          "time": 186.32558139534885,
          "velocity": 0.2677165354330709
        },
        {
          "duration": 0.06976744186044925,
          "durationTicks": 6,
          "midi": 100,
          "name": "E7",
          "ticks": 16024,
          "time": 186.32558139534885,
          "velocity": 0.07874015748031496
        },
        {
          "duration": 0.04651162790696617,
          "durationTicks": 4,
          "midi": 67,
          "name": "G4",
          "ticks": 16027,
          "time": 186.36046511627907,
          "velocity": 0.11811023622047244
        },
        {
          "duration": 0.04651162790696617,
          "durationTicks": 4,
          "midi": 59,
          "name": "B3",
          "ticks": 16028,
          "time": 186.37209302325581,
          "velocity": 0.15748031496062992
        },
        {
          "duration": 0.13953488372092693,
          "durationTicks": 12,
          "midi": 40,
          "name": "E2",
          "ticks": 16031,
          "time": 186.40697674418604,
          "velocity": 0.33858267716535434
        },
        {
          "duration": 0.05813953488370771,
          "durationTicks": 5,
          "midi": 59,
          "name": "B3",
          "ticks": 16035,
          "time": 186.45348837209303,
          "velocity": 0.11811023622047244
        },
        {
          "duration": 0.034883720930224626,
          "durationTicks": 3,
          "midi": 47,
          "name": "B2",
          "ticks": 16038,
          "time": 186.48837209302326,
          "velocity": 0.28346456692913385
        },
        {
          "duration": 0.023255813953483084,
          "durationTicks": 2,
          "midi": 47,
          "name": "B2",
          "ticks": 16042,
          "time": 186.53488372093022,
          "velocity": 0.2992125984251969
        },
        {
          "duration": 0.04651162790699459,
          "durationTicks": 4,
          "midi": 71,
          "name": "B4",
          "ticks": 16043,
          "time": 186.54651162790697,
          "velocity": 0.12598425196850394
        },
        {
          "duration": 0.03488372093025305,
          "durationTicks": 3,
          "midi": 40,
          "name": "E2",
          "ticks": 16044,
          "time": 186.5581395348837,
          "velocity": 0.3543307086614173
        },
        {
          "duration": 0.034883720930224626,
          "durationTicks": 3,
          "midi": 59,
          "name": "B3",
          "ticks": 16046,
          "time": 186.58139534883722,
          "velocity": 0.09448818897637795
        },
        {
          "duration": 0.2093023255814046,
          "durationTicks": 18,
          "midi": 40,
          "name": "E2",
          "ticks": 16048,
          "time": 186.6046511627907,
          "velocity": 0.3464566929133858
        },
        {
          "duration": 0.034883720930224626,
          "durationTicks": 3,
          "midi": 51,
          "name": "D#3",
          "ticks": 16052,
          "time": 186.65116279069767,
          "velocity": 0.2440944881889764
        },
        {
          "duration": 0.08139534883721922,
          "durationTicks": 7,
          "midi": 59,
          "name": "B3",
          "ticks": 16054,
          "time": 186.67441860465115,
          "velocity": 0.13385826771653545
        },
        {
          "duration": 0.034883720930224626,
          "durationTicks": 3,
          "midi": 83,
          "name": "B5",
          "ticks": 16058,
          "time": 186.72093023255815,
          "velocity": 0.07874015748031496
        },
        {
          "duration": 0.08139534883721922,
          "durationTicks": 7,
          "midi": 72,
          "name": "C5",
          "ticks": 16062,
          "time": 186.7674418604651,
          "velocity": 0.18110236220472442
        },
        {
          "duration": 0.1046511627907023,
          "durationTicks": 9,
          "midi": 60,
          "name": "C4",
          "ticks": 16064,
          "time": 186.7906976744186,
          "velocity": 0.2283464566929134
        },
        {
          "duration": 0.03488372093025305,
          "durationTicks": 3,
          "midi": 79,
          "name": "G5",
          "ticks": 16065,
          "time": 186.80232558139534,
          "velocity": 0.07874015748031496
        },
        {
          "duration": 0.38372093023255616,
          "durationTicks": 33,
          "midi": 40,
          "name": "E2",
          "ticks": 16067,
          "time": 186.82558139534885,
          "velocity": 0.33858267716535434
        },
        {
          "duration": 0.1046511627907023,
          "durationTicks": 9,
          "midi": 83,
          "name": "B5",
          "ticks": 16073,
          "time": 186.8953488372093,
          "velocity": 0.13385826771653545
        },
        {
          "duration": 0.09302325581396076,
          "durationTicks": 8,
          "midi": 76,
          "name": "E5",
          "ticks": 16082,
          "time": 187,
          "velocity": 0.14960629921259844
        },
        {
          "duration": 0.11627906976744384,
          "durationTicks": 10,
          "midi": 57,
          "name": "A3",
          "ticks": 16084,
          "time": 187.02325581395348,
          "velocity": 0.25984251968503935
        },
        {
          "duration": 0.08139534883721922,
          "durationTicks": 7,
          "midi": 83,
          "name": "B5",
          "ticks": 16094,
          "time": 187.13953488372093,
          "velocity": 0.11023622047244094
        },
        {
          "duration": 0.06976744186044925,
          "durationTicks": 6,
          "midi": 40,
          "name": "E2",
          "ticks": 16101,
          "time": 187.22093023255815,
          "velocity": 0.3228346456692913
        },
        {
          "duration": 0.06976744186044925,
          "durationTicks": 6,
          "midi": 71,
          "name": "B4",
          "ticks": 16102,
          "time": 187.2325581395349,
          "velocity": 0.18110236220472442
        },
        {
          "duration": 0.05813953488373613,
          "durationTicks": 5,
          "midi": 59,
          "name": "B3",
          "ticks": 16104,
          "time": 187.25581395348837,
          "velocity": 0.16535433070866143
        },
        {
          "duration": 0.2093023255814046,
          "durationTicks": 18,
          "midi": 40,
          "name": "E2",
          "ticks": 16108,
          "time": 187.30232558139534,
          "velocity": 0.33070866141732286
        },
        {
          "duration": 0.08139534883721922,
          "durationTicks": 7,
          "midi": 83,
          "name": "B5",
          "ticks": 16113,
          "time": 187.36046511627907,
          "velocity": 0.12598425196850394
        },
        {
          "duration": 0.13953488372092693,
          "durationTicks": 12,
          "midi": 74,
          "name": "D5",
          "ticks": 16122,
          "time": 187.46511627906978,
          "velocity": 0.14173228346456693
        },
        {
          "duration": 0.0813953488371908,
          "durationTicks": 7,
          "midi": 55,
          "name": "G3",
          "ticks": 16123,
          "time": 187.47674418604652,
          "velocity": 0.2992125984251969
        },
        {
          "duration": 0.27906976744185386,
          "durationTicks": 24,
          "midi": 40,
          "name": "E2",
          "ticks": 16127,
          "time": 187.52325581395348,
          "velocity": 0.3228346456692913
        },
        {
          "duration": 0.0813953488371908,
          "durationTicks": 7,
          "midi": 83,
          "name": "B5",
          "ticks": 16133,
          "time": 187.59302325581396,
          "velocity": 0.11023622047244094
        },
        {
          "duration": 0.06976744186044925,
          "durationTicks": 6,
          "midi": 76,
          "name": "E5",
          "ticks": 16142,
          "time": 187.69767441860466,
          "velocity": 0.15748031496062992
        },
        {
          "duration": 0.06976744186044925,
          "durationTicks": 6,
          "midi": 57,
          "name": "A3",
          "ticks": 16144,
          "time": 187.72093023255815,
          "velocity": 0.2992125984251969
        },
        {
          "duration": 0.04651162790699459,
          "durationTicks": 4,
          "midi": 56,
          "name": "G#3",
          "ticks": 16150,
          "time": 187.7906976744186,
          "velocity": 0.12598425196850394
        },
        {
          "duration": 0.3720930232557862,
          "durationTicks": 32,
          "midi": 40,
          "name": "E2",
          "ticks": 16152,
          "time": 187.8139534883721,
          "velocity": 0.3228346456692913
        },
        {
          "duration": 0.0813953488371908,
          "durationTicks": 7,
          "midi": 83,
          "name": "B5",
          "ticks": 16154,
          "time": 187.8372093023256,
          "velocity": 0.11023622047244094
        },
        {
          "duration": 0.05813953488370771,
          "durationTicks": 5,
          "midi": 78,
          "name": "F#5",
          "ticks": 16157,
          "time": 187.87209302325581,
          "velocity": 0.08661417322834646
        },
        {
          "duration": 0.09302325581396076,
          "durationTicks": 8,
          "midi": 73,
          "name": "C#5",
          "ticks": 16162,
          "time": 187.93023255813952,
          "velocity": 0.11811023622047244
        },
        {
          "duration": 0.023255813953483084,
          "durationTicks": 2,
          "midi": 53,
          "name": "F3",
          "ticks": 16163,
          "time": 187.9418604651163,
          "velocity": 0.3464566929133858
        },
        {
          "duration": 0.023255813953483084,
          "durationTicks": 2,
          "midi": 53,
          "name": "F3",
          "ticks": 16167,
          "time": 187.98837209302326,
          "velocity": 0.28346456692913385
        },
        {
          "duration": 0.023255813953483084,
          "durationTicks": 2,
          "midi": 53,
          "name": "F3",
          "ticks": 16171,
          "time": 188.03488372093022,
          "velocity": 0.23622047244094488
        },
        {
          "duration": 0.03488372093025305,
          "durationTicks": 3,
          "midi": 70,
          "name": "A#4",
          "ticks": 16172,
          "time": 188.04651162790697,
          "velocity": 0.14960629921259844
        },
        {
          "duration": 0.0813953488371908,
          "durationTicks": 7,
          "midi": 83,
          "name": "B5",
          "ticks": 16174,
          "time": 188.06976744186048,
          "velocity": 0.12598425196850394
        },
        {
          "duration": 0.15116279069766847,
          "durationTicks": 13,
          "midi": 78,
          "name": "F#5",
          "ticks": 16179,
          "time": 188.12790697674419,
          "velocity": 0.08661417322834646
        },
        {
          "duration": 0.06976744186047767,
          "durationTicks": 6,
          "midi": 76,
          "name": "E5",
          "ticks": 16182,
          "time": 188.1627906976744,
          "velocity": 0.1889763779527559
        },
        {
          "duration": 0.023255813953511506,
          "durationTicks": 2,
          "midi": 70,
          "name": "A#4",
          "ticks": 16183,
          "time": 188.17441860465115,
          "velocity": 0.2755905511811024
        },
        {
          "duration": 0.03488372093025305,
          "durationTicks": 3,
          "midi": 99,
          "name": "D#7",
          "ticks": 16183,
          "time": 188.17441860465115,
          "velocity": 0.10236220472440945
        },
        {
          "duration": 0.03488372093025305,
          "durationTicks": 3,
          "midi": 51,
          "name": "D#3",
          "ticks": 16184,
          "time": 188.1860465116279,
          "velocity": 0.31496062992125984
        },
        {
          "duration": 0.06976744186047767,
          "durationTicks": 6,
          "midi": 71,
          "name": "B4",
          "ticks": 16184,
          "time": 188.1860465116279,
          "velocity": 0.1968503937007874
        },
        {
          "duration": 0.2906976744185954,
          "durationTicks": 25,
          "midi": 67,
          "name": "G4",
          "ticks": 16186,
          "time": 188.2093023255814,
          "velocity": 0.25196850393700787
        },
        {
          "duration": 0.19767441860463464,
          "durationTicks": 17,
          "midi": 59,
          "name": "B3",
          "ticks": 16187,
          "time": 188.22093023255815,
          "velocity": 0.25196850393700787
        },
        {
          "duration": 0.023255813953483084,
          "durationTicks": 2,
          "midi": 40,
          "name": "E2",
          "ticks": 16188,
          "time": 188.2325581395349,
          "velocity": 0.31496062992125984
        },
        {
          "duration": 0.04651162790699459,
          "durationTicks": 4,
          "midi": 40,
          "name": "E2",
          "ticks": 16191,
          "time": 188.2674418604651,
          "velocity": 0.29133858267716534
        },
        {
          "duration": 0.17441860465117998,
          "durationTicks": 15,
          "midi": 64,
          "name": "E4",
          "ticks": 16191,
          "time": 188.2674418604651,
          "velocity": 0.18110236220472442
        },
        {
          "duration": 0.0813953488371908,
          "durationTicks": 7,
          "midi": 40,
          "name": "E2",
          "ticks": 16196,
          "time": 188.32558139534885,
          "velocity": 0.31496062992125984
        },
        {
          "duration": 0.05813953488370771,
          "durationTicks": 5,
          "midi": 78,
          "name": "F#5",
          "ticks": 16196,
          "time": 188.32558139534885,
          "velocity": 0.11811023622047244
        },
        {
          "duration": 0.023255813953483084,
          "durationTicks": 2,
          "midi": 51,
          "name": "D#3",
          "ticks": 16197,
          "time": 188.3372093023256,
          "velocity": 0.25984251968503935
        },
        {
          "duration": 0.03488372093025305,
          "durationTicks": 3,
          "midi": 40,
          "name": "E2",
          "ticks": 16204,
          "time": 188.41860465116278,
          "velocity": 0.33070866141732286
        },
        {
          "duration": 0.09302325581393234,
          "durationTicks": 8,
          "midi": 40,
          "name": "E2",
          "ticks": 16208,
          "time": 188.46511627906978,
          "velocity": 0.31496062992125984
        },
        {
          "duration": 0.04651162790699459,
          "durationTicks": 4,
          "midi": 59,
          "name": "B3",
          "ticks": 16216,
          "time": 188.5581395348837,
          "velocity": 0.10236220472440945
        },
        {
          "duration": 0.32558139534882,
          "durationTicks": 28,
          "midi": 40,
          "name": "E2",
          "ticks": 16217,
          "time": 188.56976744186048,
          "velocity": 0.33070866141732286
        },
        {
          "duration": 0.3604651162790731,
          "durationTicks": 31,
          "midi": 59,
          "name": "B3",
          "ticks": 16223,
          "time": 188.63953488372093,
          "velocity": 0.25196850393700787
        },
        {
          "duration": 0.06976744186047767,
          "durationTicks": 6,
          "midi": 72,
          "name": "C5",
          "ticks": 16223,
          "time": 188.63953488372093,
          "velocity": 0.2283464566929134
        },
        {
          "duration": 0.2790697674418823,
          "durationTicks": 24,
          "midi": 78,
          "name": "F#5",
          "ticks": 16236,
          "time": 188.7906976744186,
          "velocity": 0.2125984251968504
        },
        {
          "duration": 0.22093023255814614,
          "durationTicks": 19,
          "midi": 40,
          "name": "E2",
          "ticks": 16246,
          "time": 188.90697674418604,
          "velocity": 0.33070866141732286
        },
        {
          "duration": 0.08139534883721922,
          "durationTicks": 7,
          "midi": 59,
          "name": "B3",
          "ticks": 16256,
          "time": 189.02325581395348,
          "velocity": 0.1889763779527559
        },
        {
          "duration": 0.08139534883721922,
          "durationTicks": 7,
          "midi": 67,
          "name": "G4",
          "ticks": 16264,
          "time": 189.11627906976744,
          "velocity": 0.14173228346456693
        },
        {
          "duration": 0.034883720930224626,
          "durationTicks": 3,
          "midi": 90,
          "name": "F#6",
          "ticks": 16264,
          "time": 189.11627906976744,
          "velocity": 0.09448818897637795
        },
        {
          "duration": 0.05813953488370771,
          "durationTicks": 5,
          "midi": 71,
          "name": "B4",
          "ticks": 16265,
          "time": 189.12790697674419,
          "velocity": 0.14960629921259844
        },
        {
          "duration": 0.2093023255814046,
          "durationTicks": 18,
          "midi": 40,
          "name": "E2",
          "ticks": 16266,
          "time": 189.13953488372093,
          "velocity": 0.33858267716535434
        },
        {
          "duration": 0.11627906976744384,
          "durationTicks": 10,
          "midi": 71,
          "name": "B4",
          "ticks": 16274,
          "time": 189.2325581395349,
          "velocity": 0.18110236220472442
        },
        {
          "duration": 0.08139534883721922,
          "durationTicks": 7,
          "midi": 78,
          "name": "F#5",
          "ticks": 16276,
          "time": 189.25581395348837,
          "velocity": 0.14960629921259844
        },
        {
          "duration": 0.09302325581396076,
          "durationTicks": 8,
          "midi": 59,
          "name": "B3",
          "ticks": 16278,
          "time": 189.27906976744185,
          "velocity": 0.10236220472440945
        },
        {
          "duration": 0.1046511627907023,
          "durationTicks": 9,
          "midi": 67,
          "name": "G4",
          "ticks": 16283,
          "time": 189.3372093023256,
          "velocity": 0.1732283464566929
        },
        {
          "duration": 0.034883720930224626,
          "durationTicks": 3,
          "midi": 86,
          "name": "D6",
          "ticks": 16284,
          "time": 189.34883720930233,
          "velocity": 0.07874015748031496
        },
        {
          "duration": 0.2325581395348877,
          "durationTicks": 20,
          "midi": 40,
          "name": "E2",
          "ticks": 16285,
          "time": 189.36046511627907,
          "velocity": 0.33070866141732286
        },
        {
          "duration": 0.05813953488370771,
          "durationTicks": 5,
          "midi": 71,
          "name": "B4",
          "ticks": 16294,
          "time": 189.46511627906978,
          "velocity": 0.11023622047244094
        },
        {
          "duration": 0.1046511627907023,
          "durationTicks": 9,
          "midi": 59,
          "name": "B3",
          "ticks": 16295,
          "time": 189.47674418604652,
          "velocity": 0.2204724409448819
        },
        {
          "duration": 0.5,
          "durationTicks": 43,
          "midi": 78,
          "name": "F#5",
          "ticks": 16299,
          "time": 189.52325581395348,
          "velocity": 0.2677165354330709
        },
        {
          "duration": 0.32558139534882,
          "durationTicks": 28,
          "midi": 40,
          "name": "E2",
          "ticks": 16306,
          "time": 189.6046511627907,
          "velocity": 0.33858267716535434
        },
        {
          "duration": 0.04651162790696617,
          "durationTicks": 4,
          "midi": 69,
          "name": "A4",
          "ticks": 16309,
          "time": 189.63953488372093,
          "velocity": 0.09448818897637795
        },
        {
          "duration": 0.10465116279067388,
          "durationTicks": 9,
          "midi": 71,
          "name": "B4",
          "ticks": 16314,
          "time": 189.69767441860466,
          "velocity": 0.15748031496062992
        },
        {
          "duration": 0.1046511627907023,
          "durationTicks": 9,
          "midi": 66,
          "name": "F#4",
          "ticks": 16322,
          "time": 189.7906976744186,
          "velocity": 0.09448818897637795
        },
        {
          "duration": 0.09302325581396076,
          "durationTicks": 8,
          "midi": 85,
          "name": "C#6",
          "ticks": 16322,
          "time": 189.7906976744186,
          "velocity": 0.09448818897637795
        },
        {
          "duration": 0.09302325581396076,
          "durationTicks": 8,
          "midi": 59,
          "name": "B3",
          "ticks": 16334,
          "time": 189.93023255813952,
          "velocity": 0.13385826771653545
        },
        {
          "duration": 0.04651162790696617,
          "durationTicks": 4,
          "midi": 40,
          "name": "E2",
          "ticks": 16335,
          "time": 189.9418604651163,
          "velocity": 0.31496062992125984
        },
        {
          "duration": 0.034883720930224626,
          "durationTicks": 3,
          "midi": 74,
          "name": "D5",
          "ticks": 16342,
          "time": 190.02325581395348,
          "velocity": 0.14960629921259844
        },
        {
          "duration": 0.034883720930224626,
          "durationTicks": 3,
          "midi": 81,
          "name": "A5",
          "ticks": 16342,
          "time": 190.02325581395348,
          "velocity": 0.15748031496062992
        },
        {
          "duration": 0.03488372093025305,
          "durationTicks": 3,
          "midi": 38,
          "name": "D2",
          "ticks": 16344,
          "time": 190.04651162790697,
          "velocity": 0.3464566929133858
        },
        {
          "duration": 0.03488372093025305,
          "durationTicks": 3,
          "midi": 76,
          "name": "E5",
          "ticks": 16344,
          "time": 190.04651162790697,
          "velocity": 0.2677165354330709
        },
        {
          "duration": 0.2558139534883992,
          "durationTicks": 22,
          "midi": 67,
          "name": "G4",
          "ticks": 16345,
          "time": 190.0581395348837,
          "velocity": 0.1968503937007874
        },
        {
          "duration": 0.03488372093025305,
          "durationTicks": 3,
          "midi": 71,
          "name": "B4",
          "ticks": 16345,
          "time": 190.0581395348837,
          "velocity": 0.07086614173228346
        },
        {
          "duration": 0.19767441860466306,
          "durationTicks": 17,
          "midi": 78,
          "name": "F#5",
          "ticks": 16345,
          "time": 190.0581395348837,
          "velocity": 0.15748031496062992
        },
        {
          "duration": 0.0813953488371908,
          "durationTicks": 7,
          "midi": 59,
          "name": "B3",
          "ticks": 16346,
          "time": 190.06976744186048,
          "velocity": 0.1732283464566929
        },
        {
          "duration": 0.034883720930224626,
          "durationTicks": 3,
          "midi": 40,
          "name": "E2",
          "ticks": 16347,
          "time": 190.08139534883722,
          "velocity": 0.33858267716535434
        },
        {
          "duration": 0.023255813953483084,
          "durationTicks": 2,
          "midi": 39,
          "name": "D#2",
          "ticks": 16350,
          "time": 190.11627906976744,
          "velocity": 0.2992125984251969
        },
        {
          "duration": 0.18604651162792152,
          "durationTicks": 16,
          "midi": 40,
          "name": "E2",
          "ticks": 16352,
          "time": 190.13953488372093,
          "velocity": 0.30708661417322836
        },
        {
          "duration": 0.32558139534884845,
          "durationTicks": 28,
          "midi": 59,
          "name": "B3",
          "ticks": 16355,
          "time": 190.17441860465115,
          "velocity": 0.1732283464566929
        },
        {
          "duration": 0.09302325581396076,
          "durationTicks": 8,
          "midi": 99,
          "name": "D#7",
          "ticks": 16363,
          "time": 190.2674418604651,
          "velocity": 0.12598425196850394
        },
        {
          "duration": 0.023255813953483084,
          "durationTicks": 2,
          "midi": 51,
          "name": "D#3",
          "ticks": 16364,
          "time": 190.27906976744185,
          "velocity": 0.2755905511811024
        },
        {
          "duration": 0.0813953488371908,
          "durationTicks": 7,
          "midi": 40,
          "name": "E2",
          "ticks": 16369,
          "time": 190.3372093023256,
          "velocity": 0.2992125984251969
        },
        {
          "duration": 0.09302325581396076,
          "durationTicks": 8,
          "midi": 40,
          "name": "E2",
          "ticks": 16377,
          "time": 190.43023255813952,
          "velocity": 0.2992125984251969
        },
        {
          "duration": 0.06976744186047767,
          "durationTicks": 6,
          "midi": 78,
          "name": "F#5",
          "ticks": 16377,
          "time": 190.43023255813952,
          "velocity": 0.10236220472440945
        },
        {
          "duration": 0.09302325581396076,
          "durationTicks": 8,
          "midi": 64,
          "name": "E4",
          "ticks": 16382,
          "time": 190.48837209302326,
          "velocity": 0.08661417322834646
        },
        {
          "duration": 0.08139534883721922,
          "durationTicks": 7,
          "midi": 72,
          "name": "C5",
          "ticks": 16383,
          "time": 190.5,
          "velocity": 0.2677165354330709
        },
        {
          "duration": 0.2790697674418823,
          "durationTicks": 24,
          "midi": 40,
          "name": "E2",
          "ticks": 16386,
          "time": 190.53488372093022,
          "velocity": 0.2992125984251969
        },
        {
          "duration": 0.034883720930224626,
          "durationTicks": 3,
          "midi": 71,
          "name": "B4",
          "ticks": 16390,
          "time": 190.58139534883722,
          "velocity": 0.12598425196850394
        },
        {
          "duration": 0.08139534883721922,
          "durationTicks": 7,
          "midi": 59,
          "name": "B3",
          "ticks": 16393,
          "time": 190.61627906976744,
          "velocity": 0.15748031496062992
        },
        {
          "duration": 0.034883720930224626,
          "durationTicks": 3,
          "midi": 72,
          "name": "C5",
          "ticks": 16393,
          "time": 190.61627906976744,
          "velocity": 0.09448818897637795
        },
        {
          "duration": 0.06976744186047767,
          "durationTicks": 6,
          "midi": 78,
          "name": "F#5",
          "ticks": 16397,
          "time": 190.6627906976744,
          "velocity": 0.12598425196850394
        },
        {
          "duration": 0.09302325581393234,
          "durationTicks": 8,
          "midi": 40,
          "name": "E2",
          "ticks": 16411,
          "time": 190.82558139534885,
          "velocity": 0.29133858267716534
        },
        {
          "duration": 0.034883720930224626,
          "durationTicks": 3,
          "midi": 59,
          "name": "B3",
          "ticks": 16411,
          "time": 190.82558139534885,
          "velocity": 0.11023622047244094
        },
        {
          "duration": 0.04651162790696617,
          "durationTicks": 4,
          "midi": 71,
          "name": "B4",
          "ticks": 16414,
          "time": 190.86046511627907,
          "velocity": 0.11811023622047244
        },
        {
          "duration": 0.08139534883721922,
          "durationTicks": 7,
          "midi": 59,
          "name": "B3",
          "ticks": 16415,
          "time": 190.87209302325581,
          "velocity": 0.16535433070866143
        },
        {
          "duration": 0.06976744186047767,
          "durationTicks": 6,
          "midi": 78,
          "name": "F#5",
          "ticks": 16416,
          "time": 190.88372093023256,
          "velocity": 0.11811023622047244
        },
        {
          "duration": 0.03488372093025305,
          "durationTicks": 3,
          "midi": 52,
          "name": "E3",
          "ticks": 16419,
          "time": 190.91860465116278,
          "velocity": 0.1732283464566929
        },
        {
          "duration": 0.05813953488373613,
          "durationTicks": 5,
          "midi": 40,
          "name": "E2",
          "ticks": 16420,
          "time": 190.93023255813952,
          "velocity": 0.2992125984251969
        },
        {
          "duration": 0.09302325581393234,
          "durationTicks": 8,
          "midi": 71,
          "name": "B4",
          "ticks": 16423,
          "time": 190.96511627906978,
          "velocity": 0.23622047244094488
        },
        {
          "duration": 0.04651162790696617,
          "durationTicks": 4,
          "midi": 99,
          "name": "D#7",
          "ticks": 16424,
          "time": 190.97674418604652,
          "velocity": 0.12598425196850394
        },
        {
          "duration": 0.034883720930224626,
          "durationTicks": 3,
          "midi": 40,
          "name": "E2",
          "ticks": 16426,
          "time": 191,
          "velocity": 0.2755905511811024
        },
        {
          "duration": 0.06976744186047767,
          "durationTicks": 6,
          "midi": 40,
          "name": "E2",
          "ticks": 16430,
          "time": 191.04651162790697,
          "velocity": 0.2992125984251969
        },
        {
          "duration": 0.05813953488370771,
          "durationTicks": 5,
          "midi": 71,
          "name": "B4",
          "ticks": 16434,
          "time": 191.09302325581396,
          "velocity": 0.13385826771653545
        },
        {
          "duration": 0.09302325581396076,
          "durationTicks": 8,
          "midi": 78,
          "name": "F#5",
          "ticks": 16435,
          "time": 191.1046511627907,
          "velocity": 0.14173228346456693
        },
        {
          "duration": 0.05813953488370771,
          "durationTicks": 5,
          "midi": 40,
          "name": "E2",
          "ticks": 16437,
          "time": 191.12790697674419,
          "velocity": 0.28346456692913385
        },
        {
          "duration": 0.04651162790696617,
          "durationTicks": 4,
          "midi": 59,
          "name": "B3",
          "ticks": 16437,
          "time": 191.12790697674419,
          "velocity": 0.08661417322834646
        },
        {
          "duration": 0.10465116279067388,
          "durationTicks": 9,
          "midi": 67,
          "name": "G4",
          "ticks": 16443,
          "time": 191.19767441860466,
          "velocity": 0.1968503937007874
        },
        {
          "duration": 0.034883720930224626,
          "durationTicks": 3,
          "midi": 40,
          "name": "E2",
          "ticks": 16445,
          "time": 191.22093023255815,
          "velocity": 0.30708661417322836
        },
        {
          "duration": 0.06976744186047767,
          "durationTicks": 6,
          "midi": 40,
          "name": "E2",
          "ticks": 16449,
          "time": 191.2674418604651,
          "velocity": 0.29133858267716534
        },
        {
          "duration": 0.05813953488370771,
          "durationTicks": 5,
          "midi": 71,
          "name": "B4",
          "ticks": 16454,
          "time": 191.32558139534885,
          "velocity": 0.11023622047244094
        },
        {
          "duration": 0.023255813953483084,
          "durationTicks": 2,
          "midi": 39,
          "name": "D#2",
          "ticks": 16455,
          "time": 191.3372093023256,
          "velocity": 0.25196850393700787
        },
        {
          "duration": 0.1046511627907023,
          "durationTicks": 9,
          "midi": 59,
          "name": "B3",
          "ticks": 16455,
          "time": 191.3372093023256,
          "velocity": 0.18110236220472442
        },
        {
          "duration": 0.0813953488371908,
          "durationTicks": 7,
          "midi": 78,
          "name": "F#5",
          "ticks": 16456,
          "time": 191.34883720930233,
          "velocity": 0.10236220472440945
        },
        {
          "duration": 0.06976744186044925,
          "durationTicks": 6,
          "midi": 40,
          "name": "E2",
          "ticks": 16457,
          "time": 191.36046511627907,
          "velocity": 0.2992125984251969
        },
        {
          "duration": 0.034883720930224626,
          "durationTicks": 3,
          "midi": 40,
          "name": "E2",
          "ticks": 16464,
          "time": 191.4418604651163,
          "velocity": 0.2992125984251969
        },
        {
          "duration": 0.023255813953483084,
          "durationTicks": 2,
          "midi": 39,
          "name": "D#2",
          "ticks": 16467,
          "time": 191.47674418604652,
          "velocity": 0.2755905511811024
        },
        {
          "duration": 0.04651162790696617,
          "durationTicks": 4,
          "midi": 93,
          "name": "A6",
          "ticks": 16467,
          "time": 191.47674418604652,
          "velocity": 0.14960629921259844
        },
        {
          "duration": 0.1046511627907023,
          "durationTicks": 9,
          "midi": 40,
          "name": "E2",
          "ticks": 16469,
          "time": 191.5,
          "velocity": 0.2992125984251969
        },
        {
          "duration": 0.034883720930224626,
          "durationTicks": 3,
          "midi": 69,
          "name": "A4",
          "ticks": 16470,
          "time": 191.51162790697674,
          "velocity": 0.07086614173228346
        },
        {
          "duration": 0.08139534883721922,
          "durationTicks": 7,
          "midi": 71,
          "name": "B4",
          "ticks": 16474,
          "time": 191.5581395348837,
          "velocity": 0.12598425196850394
        },
        {
          "duration": 0.06976744186044925,
          "durationTicks": 6,
          "midi": 59,
          "name": "B3",
          "ticks": 16475,
          "time": 191.56976744186048,
          "velocity": 0.14173228346456693
        },
        {
          "duration": 0.23255813953485927,
          "durationTicks": 20,
          "midi": 78,
          "name": "F#5",
          "ticks": 16475,
          "time": 191.56976744186048,
          "velocity": 0.25984251968503935
        },
        {
          "duration": 0.05813953488370771,
          "durationTicks": 5,
          "midi": 40,
          "name": "E2",
          "ticks": 16479,
          "time": 191.61627906976744,
          "velocity": 0.29133858267716534
        },
        {
          "duration": 0.1046511627907023,
          "durationTicks": 9,
          "midi": 66,
          "name": "F#4",
          "ticks": 16482,
          "time": 191.65116279069767,
          "velocity": 0.14173228346456693
        },
        {
          "duration": 0.08139534883721922,
          "durationTicks": 7,
          "midi": 85,
          "name": "C#6",
          "ticks": 16483,
          "time": 191.6627906976744,
          "velocity": 0.11023622047244094
        },
        {
          "duration": 0.11627906976744384,
          "durationTicks": 10,
          "midi": 40,
          "name": "E2",
          "ticks": 16485,
          "time": 191.6860465116279,
          "velocity": 0.2992125984251969
        },
        {
          "duration": 0.04651162790699459,
          "durationTicks": 4,
          "midi": 71,
          "name": "B4",
          "ticks": 16493,
          "time": 191.77906976744185,
          "velocity": 0.09448818897637795
        },
        {
          "duration": 0.08139534883721922,
          "durationTicks": 7,
          "midi": 59,
          "name": "B3",
          "ticks": 16495,
          "time": 191.80232558139534,
          "velocity": 0.11811023622047244
        },
        {
          "duration": 0.034883720930224626,
          "durationTicks": 3,
          "midi": 40,
          "name": "E2",
          "ticks": 16496,
          "time": 191.8139534883721,
          "velocity": 0.28346456692913385
        },
        {
          "duration": 0.04651162790696617,
          "durationTicks": 4,
          "midi": 78,
          "name": "F#5",
          "ticks": 16497,
          "time": 191.82558139534885,
          "velocity": 0.07874015748031496
        },
        {
          "duration": 0.023255813953483084,
          "durationTicks": 2,
          "midi": 40,
          "name": "E2",
          "ticks": 16500,
          "time": 191.86046511627907,
          "velocity": 0.28346456692913385
        },
        {
          "duration": 0.034883720930224626,
          "durationTicks": 3,
          "midi": 51,
          "name": "D#3",
          "ticks": 16500,
          "time": 191.86046511627907,
          "velocity": 0.2283464566929134
        },
        {
          "duration": 0.05813953488373613,
          "durationTicks": 5,
          "midi": 39,
          "name": "D#2",
          "ticks": 16502,
          "time": 191.88372093023256,
          "velocity": 0.3464566929133858
        },
        {
          "duration": 0.09302325581396076,
          "durationTicks": 8,
          "midi": 58,
          "name": "A#3",
          "ticks": 16502,
          "time": 191.88372093023256,
          "velocity": 0.2283464566929134
        },
        {
          "duration": 0.04651162790696617,
          "durationTicks": 4,
          "midi": 67,
          "name": "G4",
          "ticks": 16502,
          "time": 191.88372093023256,
          "velocity": 0.1732283464566929
        },
        {
          "duration": 0.023255813953483084,
          "durationTicks": 2,
          "midi": 38,
          "name": "D2",
          "ticks": 16507,
          "time": 191.9418604651163,
          "velocity": 0.2440944881889764
        },
        {
          "duration": 0.023255813953483084,
          "durationTicks": 2,
          "midi": 52,
          "name": "E3",
          "ticks": 16508,
          "time": 191.95348837209303,
          "velocity": 0.28346456692913385
        },
        {
          "duration": 0.023255813953483084,
          "durationTicks": 2,
          "midi": 39,
          "name": "D#2",
          "ticks": 16509,
          "time": 191.96511627906978,
          "velocity": 0.28346456692913385
        },
        {
          "duration": 0.38372093023255616,
          "durationTicks": 33,
          "midi": 59,
          "name": "B3",
          "ticks": 16510,
          "time": 191.97674418604652,
          "velocity": 0.2283464566929134
        },
        {
          "duration": 0.3953488372092977,
          "durationTicks": 34,
          "midi": 40,
          "name": "E2",
          "ticks": 16511,
          "time": 191.98837209302326,
          "velocity": 0.33070866141732286
        },
        {
          "duration": 0.1046511627907023,
          "durationTicks": 9,
          "midi": 78,
          "name": "F#5",
          "ticks": 16515,
          "time": 192.03488372093022,
          "velocity": 0.14960629921259844
        },
        {
          "duration": 0.06976744186044925,
          "durationTicks": 6,
          "midi": 76,
          "name": "E5",
          "ticks": 16522,
          "time": 192.11627906976744,
          "velocity": 0.10236220472440945
        },
        {
          "duration": 0.06976744186047767,
          "durationTicks": 6,
          "midi": 98,
          "name": "D7",
          "ticks": 16523,
          "time": 192.12790697674419,
          "velocity": 0.09448818897637795
        },
        {
          "duration": 0.32558139534884845,
          "durationTicks": 28,
          "midi": 78,
          "name": "F#5",
          "ticks": 16535,
          "time": 192.2674418604651,
          "velocity": 0.25984251968503935
        },
        {
          "duration": 0.034883720930224626,
          "durationTicks": 3,
          "midi": 76,
          "name": "E5",
          "ticks": 16542,
          "time": 192.34883720930233,
          "velocity": 0.2047244094488189
        },
        {
          "duration": 0.034883720930224626,
          "durationTicks": 3,
          "midi": 81,
          "name": "A5",
          "ticks": 16542,
          "time": 192.34883720930233,
          "velocity": 0.14960629921259844
        },
        {
          "duration": 0.08139534883721922,
          "durationTicks": 7,
          "midi": 66,
          "name": "F#4",
          "ticks": 16543,
          "time": 192.36046511627907,
          "velocity": 0.14173228346456693
        },
        {
          "duration": 0.06976744186044925,
          "durationTicks": 6,
          "midi": 85,
          "name": "C#6",
          "ticks": 16543,
          "time": 192.36046511627907,
          "velocity": 0.18110236220472442
        },
        {
          "duration": 0.22093023255814614,
          "durationTicks": 19,
          "midi": 40,
          "name": "E2",
          "ticks": 16546,
          "time": 192.3953488372093,
          "velocity": 0.33070866141732286
        },
        {
          "duration": 0.27906976744185386,
          "durationTicks": 24,
          "midi": 59,
          "name": "B3",
          "ticks": 16546,
          "time": 192.3953488372093,
          "velocity": 0.2283464566929134
        },
        {
          "duration": 0.034883720930224626,
          "durationTicks": 3,
          "midi": 66,
          "name": "F#4",
          "ticks": 16552,
          "time": 192.46511627906978,
          "velocity": 0.08661417322834646
        },
        {
          "duration": 0.1046511627907023,
          "durationTicks": 9,
          "midi": 66,
          "name": "F#4",
          "ticks": 16556,
          "time": 192.51162790697674,
          "velocity": 0.07874015748031496
        },
        {
          "duration": 0.10465116279067388,
          "durationTicks": 9,
          "midi": 75,
          "name": "D#5",
          "ticks": 16562,
          "time": 192.58139534883722,
          "velocity": 0.1889763779527559
        },
        {
          "duration": 0.04651162790696617,
          "durationTicks": 4,
          "midi": 99,
          "name": "D#7",
          "ticks": 16565,
          "time": 192.61627906976744,
          "velocity": 0.09448818897637795
        },
        {
          "duration": 0.13953488372092693,
          "durationTicks": 12,
          "midi": 40,
          "name": "E2",
          "ticks": 16566,
          "time": 192.62790697674419,
          "velocity": 0.33858267716535434
        },
        {
          "duration": 0.19767441860463464,
          "durationTicks": 17,
          "midi": 64,
          "name": "E4",
          "ticks": 16572,
          "time": 192.69767441860466,
          "velocity": 0.1732283464566929
        },
        {
          "duration": 0.09302325581396076,
          "durationTicks": 8,
          "midi": 71,
          "name": "B4",
          "ticks": 16575,
          "time": 192.7325581395349,
          "velocity": 0.14173228346456693
        },
        {
          "duration": 0.08139534883721922,
          "durationTicks": 7,
          "midi": 78,
          "name": "F#5",
          "ticks": 16576,
          "time": 192.74418604651163,
          "velocity": 0.14960629921259844
        },
        {
          "duration": 0.04651162790699459,
          "durationTicks": 4,
          "midi": 59,
          "name": "B3",
          "ticks": 16579,
          "time": 192.77906976744185,
          "velocity": 0.11023622047244094
        },
        {
          "duration": 0.034883720930224626,
          "durationTicks": 3,
          "midi": 81,
          "name": "A5",
          "ticks": 16582,
          "time": 192.8139534883721,
          "velocity": 0.16535433070866143
        },
        {
          "duration": 0.034883720930224626,
          "durationTicks": 3,
          "midi": 54,
          "name": "F#3",
          "ticks": 16585,
          "time": 192.84883720930233,
          "velocity": 0.1968503937007874
        },
        {
          "duration": 0.1860465116278931,
          "durationTicks": 16,
          "midi": 47,
          "name": "B2",
          "ticks": 16587,
          "time": 192.87209302325581,
          "velocity": 0.31496062992125984
        },
        {
          "duration": 0.09302325581396076,
          "durationTicks": 8,
          "midi": 35,
          "name": "B1",
          "ticks": 16588,
          "time": 192.88372093023256,
          "velocity": 0.2992125984251969
        },
        {
          "duration": 0.03488372093025305,
          "durationTicks": 3,
          "midi": 54,
          "name": "F#3",
          "ticks": 16590,
          "time": 192.90697674418604,
          "velocity": 0.1889763779527559
        },
        {
          "duration": 0.19767441860463464,
          "durationTicks": 17,
          "midi": 64,
          "name": "E4",
          "ticks": 16593,
          "time": 192.9418604651163,
          "velocity": 0.18110236220472442
        },
        {
          "duration": 0.33720930232556157,
          "durationTicks": 29,
          "midi": 78,
          "name": "F#5",
          "ticks": 16595,
          "time": 192.96511627906978,
          "velocity": 0.2047244094488189
        },
        {
          "duration": 0.034883720930224626,
          "durationTicks": 3,
          "midi": 35,
          "name": "B1",
          "ticks": 16597,
          "time": 192.98837209302326,
          "velocity": 0.25984251968503935
        },
        {
          "duration": 0.023255813953511506,
          "durationTicks": 2,
          "midi": 45,
          "name": "A2",
          "ticks": 16603,
          "time": 193.0581395348837,
          "velocity": 0.2755905511811024
        },
        {
          "duration": 0.034883720930224626,
          "durationTicks": 3,
          "midi": 35,
          "name": "B1",
          "ticks": 16609,
          "time": 193.12790697674419,
          "velocity": 0.2047244094488189
        },
        {
          "duration": 0.034883720930224626,
          "durationTicks": 3,
          "midi": 54,
          "name": "F#3",
          "ticks": 16609,
          "time": 193.12790697674419,
          "velocity": 0.14173228346456693
        },
        {
          "duration": 0.03488372093025305,
          "durationTicks": 3,
          "midi": 35,
          "name": "B1",
          "ticks": 16613,
          "time": 193.17441860465115,
          "velocity": 0.2125984251968504
        },
        {
          "duration": 0.04651162790696617,
          "durationTicks": 4,
          "midi": 47,
          "name": "B2",
          "ticks": 16616,
          "time": 193.2093023255814,
          "velocity": 0.18110236220472442
        },
        {
          "duration": 0.04651162790696617,
          "durationTicks": 4,
          "midi": 35,
          "name": "B1",
          "ticks": 16617,
          "time": 193.22093023255815,
          "velocity": 0.2125984251968504
        },
        {
          "duration": 0.04651162790699459,
          "durationTicks": 4,
          "midi": 83,
          "name": "B5",
          "ticks": 16621,
          "time": 193.2674418604651,
          "velocity": 0.14960629921259844
        },
        {
          "duration": 0.06976744186047767,
          "durationTicks": 6,
          "midi": 72,
          "name": "C5",
          "ticks": 16623,
          "time": 193.2906976744186,
          "velocity": 0.10236220472440945
        },
        {
          "duration": 0.1046511627907023,
          "durationTicks": 9,
          "midi": 64,
          "name": "E4",
          "ticks": 16624,
          "time": 193.30232558139534,
          "velocity": 0.2204724409448819
        },
        {
          "duration": 0.2674418604651123,
          "durationTicks": 23,
          "midi": 67,
          "name": "G4",
          "ticks": 16625,
          "time": 193.3139534883721,
          "velocity": 0.25196850393700787
        },
        {
          "duration": 0.023255813953483084,
          "durationTicks": 2,
          "midi": 46,
          "name": "A#2",
          "ticks": 16627,
          "time": 193.3372093023256,
          "velocity": 0.33858267716535434
        },
        {
          "duration": 0.023255813953483084,
          "durationTicks": 2,
          "midi": 44,
          "name": "G#2",
          "ticks": 16630,
          "time": 193.37209302325581,
          "velocity": 0.28346456692913385
        },
        {
          "duration": 0.034883720930224626,
          "durationTicks": 3,
          "midi": 90,
          "name": "F#6",
          "ticks": 16630,
          "time": 193.37209302325581,
          "velocity": 0.11023622047244094
        },
        {
          "duration": 0.023255813953483084,
          "durationTicks": 2,
          "midi": 45,
          "name": "A2",
          "ticks": 16632,
          "time": 193.3953488372093,
          "velocity": 0.3543307086614173
        },
        {
          "duration": 0.023255813953483084,
          "durationTicks": 2,
          "midi": 44,
          "name": "G#2",
          "ticks": 16636,
          "time": 193.4418604651163,
          "velocity": 0.28346456692913385
        },
        {
          "duration": 0.06976744186044925,
          "durationTicks": 6,
          "midi": 78,
          "name": "F#5",
          "ticks": 16637,
          "time": 193.45348837209303,
          "velocity": 0.07874015748031496
        },
        {
          "duration": 0.023255813953483084,
          "durationTicks": 2,
          "midi": 45,
          "name": "A2",
          "ticks": 16638,
          "time": 193.46511627906978,
          "velocity": 0.3700787401574803
        },
        {
          "duration": 0.034883720930224626,
          "durationTicks": 3,
          "midi": 47,
          "name": "B2",
          "ticks": 16641,
          "time": 193.5,
          "velocity": 0.31496062992125984
        },
        {
          "duration": 0.023255813953483084,
          "durationTicks": 2,
          "midi": 58,
          "name": "A#3",
          "ticks": 16643,
          "time": 193.52325581395348,
          "velocity": 0.2283464566929134
        },
        {
          "duration": 0.04651162790699459,
          "durationTicks": 4,
          "midi": 64,
          "name": "E4",
          "ticks": 16643,
          "time": 193.52325581395348,
          "velocity": 0.11811023622047244
        },
        {
          "duration": 0.023255813953511506,
          "durationTicks": 2,
          "midi": 45,
          "name": "A2",
          "ticks": 16645,
          "time": 193.54651162790697,
          "velocity": 0.33858267716535434
        },
        {
          "duration": 0.03488372093025305,
          "durationTicks": 3,
          "midi": 53,
          "name": "F3",
          "ticks": 16646,
          "time": 193.5581395348837,
          "velocity": 0.2204724409448819
        },
        {
          "duration": 0.11627906976741542,
          "durationTicks": 10,
          "midi": 46,
          "name": "A#2",
          "ticks": 16647,
          "time": 193.56976744186048,
          "velocity": 0.2992125984251969
        },
        {
          "duration": 0.023255813953483084,
          "durationTicks": 2,
          "midi": 34,
          "name": "A#1",
          "ticks": 16649,
          "time": 193.59302325581396,
          "velocity": 0.25196850393700787
        },
        {
          "duration": 0.034883720930224626,
          "durationTicks": 3,
          "midi": 34,
          "name": "A#1",
          "ticks": 16652,
          "time": 193.62790697674419,
          "velocity": 0.2677165354330709
        },
        {
          "duration": 0.09302325581396076,
          "durationTicks": 8,
          "midi": 67,
          "name": "G4",
          "ticks": 16654,
          "time": 193.65116279069767,
          "velocity": 0.14173228346456693
        },
        {
          "duration": 0.023255813953511506,
          "durationTicks": 2,
          "midi": 53,
          "name": "F3",
          "ticks": 16656,
          "time": 193.67441860465115,
          "velocity": 0.2992125984251969
        },
        {
          "duration": 0.023255813953483084,
          "durationTicks": 2,
          "midi": 46,
          "name": "A#2",
          "ticks": 16658,
          "time": 193.69767441860466,
          "velocity": 0.2755905511811024
        },
        {
          "duration": 0.034883720930224626,
          "durationTicks": 3,
          "midi": 35,
          "name": "B1",
          "ticks": 16660,
          "time": 193.72093023255815,
          "velocity": 0.2677165354330709
        },
        {
          "duration": 0.2093023255814046,
          "durationTicks": 18,
          "midi": 78,
          "name": "F#5",
          "ticks": 16662,
          "time": 193.74418604651163,
          "velocity": 0.2283464566929134
        },
        {
          "duration": 0.023255813953483084,
          "durationTicks": 2,
          "midi": 53,
          "name": "F3",
          "ticks": 16664,
          "time": 193.7674418604651,
          "velocity": 0.2440944881889764
        },
        {
          "duration": 0.08139534883721922,
          "durationTicks": 7,
          "midi": 54,
          "name": "F#3",
          "ticks": 16666,
          "time": 193.7906976744186,
          "velocity": 0.25984251968503935
        },
        {
          "duration": 0.09302325581396076,
          "durationTicks": 8,
          "midi": 59,
          "name": "B3",
          "ticks": 16666,
          "time": 193.7906976744186,
          "velocity": 0.2283464566929134
        },
        {
          "duration": 0.06976744186044925,
          "durationTicks": 6,
          "midi": 47,
          "name": "B2",
          "ticks": 16668,
          "time": 193.8139534883721,
          "velocity": 0.1732283464566929
        },
        {
          "duration": 0.08139534883721922,
          "durationTicks": 7,
          "midi": 54,
          "name": "F#3",
          "ticks": 16674,
          "time": 193.88372093023256,
          "velocity": 0.25984251968503935
        },
        {
          "duration": 0.09302325581393234,
          "durationTicks": 8,
          "midi": 59,
          "name": "B3",
          "ticks": 16679,
          "time": 193.9418604651163,
          "velocity": 0.18110236220472442
        },
        {
          "duration": 0.04651162790696617,
          "durationTicks": 4,
          "midi": 47,
          "name": "B2",
          "ticks": 16684,
          "time": 194,
          "velocity": 0.1968503937007874
        },
        {
          "duration": 0.06976744186047767,
          "durationTicks": 6,
          "midi": 75,
          "name": "D#5",
          "ticks": 16684,
          "time": 194,
          "velocity": 0.07086614173228346
        },
        {
          "duration": 0.04651162790696617,
          "durationTicks": 4,
          "midi": 99,
          "name": "D#7",
          "ticks": 16684,
          "time": 194,
          "velocity": 0.11811023622047244
        },
        {
          "duration": 0.034883720930224626,
          "durationTicks": 3,
          "midi": 35,
          "name": "B1",
          "ticks": 16686,
          "time": 194.02325581395348,
          "velocity": 0.1732283464566929
        },
        {
          "duration": 0.04651162790699459,
          "durationTicks": 4,
          "midi": 54,
          "name": "F#3",
          "ticks": 16688,
          "time": 194.04651162790697,
          "velocity": 0.11811023622047244
        },
        {
          "duration": 0.04651162790699459,
          "durationTicks": 4,
          "midi": 47,
          "name": "B2",
          "ticks": 16689,
          "time": 194.0581395348837,
          "velocity": 0.2755905511811024
        },
        {
          "duration": 0.04651162790696617,
          "durationTicks": 4,
          "midi": 61,
          "name": "C#4",
          "ticks": 16693,
          "time": 194.1046511627907,
          "velocity": 0.13385826771653545
        },
        {
          "duration": 0.034883720930224626,
          "durationTicks": 3,
          "midi": 44,
          "name": "G#2",
          "ticks": 16694,
          "time": 194.11627906976744,
          "velocity": 0.28346456692913385
        },
        {
          "duration": 0.11627906976744384,
          "durationTicks": 10,
          "midi": 78,
          "name": "F#5",
          "ticks": 16694,
          "time": 194.11627906976744,
          "velocity": 0.18110236220472442
        },
        {
          "duration": 0.05813953488370771,
          "durationTicks": 5,
          "midi": 71,
          "name": "B4",
          "ticks": 16695,
          "time": 194.12790697674419,
          "velocity": 0.11023622047244094
        },
        {
          "duration": 0.023255813953483084,
          "durationTicks": 2,
          "midi": 53,
          "name": "F3",
          "ticks": 16696,
          "time": 194.13953488372093,
          "velocity": 0.25196850393700787
        },
        {
          "duration": 0.03488372093025305,
          "durationTicks": 3,
          "midi": 66,
          "name": "F#4",
          "ticks": 16700,
          "time": 194.1860465116279,
          "velocity": 0.07874015748031496
        },
        {
          "duration": 0.0813953488371908,
          "durationTicks": 7,
          "midi": 72,
          "name": "C5",
          "ticks": 16703,
          "time": 194.22093023255815,
          "velocity": 0.28346456692913385
        },
        {
          "duration": 0.09302325581396076,
          "durationTicks": 8,
          "midi": 76,
          "name": "E5",
          "ticks": 16703,
          "time": 194.22093023255815,
          "velocity": 0.10236220472440945
        },
        {
          "duration": 0.023255813953483084,
          "durationTicks": 2,
          "midi": 40,
          "name": "E2",
          "ticks": 16704,
          "time": 194.2325581395349,
          "velocity": 0.3543307086614173
        },
        {
          "duration": 0.034883720930224626,
          "durationTicks": 3,
          "midi": 61,
          "name": "C#4",
          "ticks": 16704,
          "time": 194.2325581395349,
          "velocity": 0.1732283464566929
        },
        {
          "duration": 0.023255813953483084,
          "durationTicks": 2,
          "midi": 41,
          "name": "F2",
          "ticks": 16708,
          "time": 194.27906976744185,
          "velocity": 0.2992125984251969
        },
        {
          "duration": 0.06976744186044925,
          "durationTicks": 6,
          "midi": 45,
          "name": "A2",
          "ticks": 16713,
          "time": 194.3372093023256,
          "velocity": 0.15748031496062992
        },
        {
          "duration": 0.06976744186044925,
          "durationTicks": 6,
          "midi": 71,
          "name": "B4",
          "ticks": 16714,
          "time": 194.34883720930233,
          "velocity": 0.10236220472440945
        },
        {
          "duration": 0.12790697674418539,
          "durationTicks": 11,
          "midi": 78,
          "name": "F#5",
          "ticks": 16714,
          "time": 194.34883720930233,
          "velocity": 0.1968503937007874
        },
        {
          "duration": 0.023255813953483084,
          "durationTicks": 2,
          "midi": 59,
          "name": "B3",
          "ticks": 16716,
          "time": 194.37209302325581,
          "velocity": 0.2283464566929134
        },
        {
          "duration": 0.034883720930224626,
          "durationTicks": 3,
          "midi": 70,
          "name": "A#4",
          "ticks": 16722,
          "time": 194.4418604651163,
          "velocity": 0.15748031496062992
        },
        {
          "duration": 0.023255813953483084,
          "durationTicks": 2,
          "midi": 39,
          "name": "D#2",
          "ticks": 16723,
          "time": 194.45348837209303,
          "velocity": 0.3543307086614173
        },
        {
          "duration": 0.023255813953483084,
          "durationTicks": 2,
          "midi": 53,
          "name": "F3",
          "ticks": 16723,
          "time": 194.45348837209303,
          "velocity": 0.3543307086614173
        },
        {
          "duration": 0.034883720930224626,
          "durationTicks": 3,
          "midi": 63,
          "name": "D#4",
          "ticks": 16723,
          "time": 194.45348837209303,
          "velocity": 0.25984251968503935
        },
        {
          "duration": 0.034883720930224626,
          "durationTicks": 3,
          "midi": 54,
          "name": "F#3",
          "ticks": 16725,
          "time": 194.47674418604652,
          "velocity": 0.29133858267716534
        },
        {
          "duration": 0.04651162790696617,
          "durationTicks": 4,
          "midi": 61,
          "name": "C#4",
          "ticks": 16725,
          "time": 194.47674418604652,
          "velocity": 0.1889763779527559
        },
        {
          "duration": 0.06976744186044925,
          "durationTicks": 6,
          "midi": 72,
          "name": "C5",
          "ticks": 16725,
          "time": 194.47674418604652,
          "velocity": 0.14173228346456693
        },
        {
          "duration": 0.05813953488370771,
          "durationTicks": 5,
          "midi": 42,
          "name": "F#2",
          "ticks": 16727,
          "time": 194.5,
          "velocity": 0.3779527559055118
        },
        {
          "duration": 0.06976744186047767,
          "durationTicks": 6,
          "midi": 57,
          "name": "A3",
          "ticks": 16727,
          "time": 194.5,
          "velocity": 0.2204724409448819
        },
        {
          "duration": 0.13953488372095535,
          "durationTicks": 12,
          "midi": 66,
          "name": "F#4",
          "ticks": 16732,
          "time": 194.5581395348837,
          "velocity": 0.11811023622047244
        },
        {
          "duration": 0.06976744186044925,
          "durationTicks": 6,
          "midi": 71,
          "name": "B4",
          "ticks": 16734,
          "time": 194.58139534883722,
          "velocity": 0.14173228346456693
        },
        {
          "duration": 0.0813953488371908,
          "durationTicks": 7,
          "midi": 61,
          "name": "C#4",
          "ticks": 16735,
          "time": 194.59302325581396,
          "velocity": 0.18110236220472442
        },
        {
          "duration": 0.05813953488370771,
          "durationTicks": 5,
          "midi": 42,
          "name": "F#2",
          "ticks": 16738,
          "time": 194.62790697674419,
          "velocity": 0.33858267716535434
        },
        {
          "duration": 0.03488372093025305,
          "durationTicks": 3,
          "midi": 55,
          "name": "G3",
          "ticks": 16743,
          "time": 194.6860465116279,
          "velocity": 0.1889763779527559
        },
        {
          "duration": 0.06976744186047767,
          "durationTicks": 6,
          "midi": 99,
          "name": "D#7",
          "ticks": 16743,
          "time": 194.6860465116279,
          "velocity": 0.12598425196850394
        },
        {
          "duration": 0.023255813953483084,
          "durationTicks": 2,
          "midi": 44,
          "name": "G#2",
          "ticks": 16744,
          "time": 194.69767441860466,
          "velocity": 0.3858267716535433
        },
        {
          "duration": 0.034883720930224626,
          "durationTicks": 3,
          "midi": 75,
          "name": "D#5",
          "ticks": 16744,
          "time": 194.69767441860466,
          "velocity": 0.15748031496062992
        },
        {
          "duration": 0.04651162790696617,
          "durationTicks": 4,
          "midi": 71,
          "name": "B4",
          "ticks": 16745,
          "time": 194.7093023255814,
          "velocity": 0.12598425196850394
        },
        {
          "duration": 0.023255813953483084,
          "durationTicks": 2,
          "midi": 43,
          "name": "G2",
          "ticks": 16746,
          "time": 194.72093023255815,
          "velocity": 0.30708661417322836
        },
        {
          "duration": 0.023255813953483084,
          "durationTicks": 2,
          "midi": 53,
          "name": "F3",
          "ticks": 16746,
          "time": 194.72093023255815,
          "velocity": 0.2992125984251969
        },
        {
          "duration": 0.023255813953483084,
          "durationTicks": 2,
          "midi": 45,
          "name": "A2",
          "ticks": 16748,
          "time": 194.74418604651163,
          "velocity": 0.2440944881889764
        },
        {
          "duration": 0.19767441860466306,
          "durationTicks": 17,
          "midi": 54,
          "name": "F#3",
          "ticks": 16748,
          "time": 194.74418604651163,
          "velocity": 0.2755905511811024
        },
        {
          "duration": 0.2674418604651123,
          "durationTicks": 23,
          "midi": 35,
          "name": "B1",
          "ticks": 16751,
          "time": 194.77906976744185,
          "velocity": 0.25984251968503935
        },
        {
          "duration": 0.24418604651162923,
          "durationTicks": 21,
          "midi": 59,
          "name": "B3",
          "ticks": 16753,
          "time": 194.80232558139534,
          "velocity": 0.23622047244094488
        },
        {
          "duration": 0.09302325581393234,
          "durationTicks": 8,
          "midi": 78,
          "name": "F#5",
          "ticks": 16755,
          "time": 194.82558139534885,
          "velocity": 0.18110236220472442
        },
        {
          "duration": 0.03488372093025305,
          "durationTicks": 3,
          "midi": 76,
          "name": "E5",
          "ticks": 16763,
          "time": 194.91860465116278,
          "velocity": 0.2204724409448819
        },
        {
          "duration": 0.04651162790696617,
          "durationTicks": 4,
          "midi": 67,
          "name": "G4",
          "ticks": 16767,
          "time": 194.96511627906978,
          "velocity": 0.18110236220472442
        },
        {
          "duration": 0.03488372093025305,
          "durationTicks": 3,
          "midi": 57,
          "name": "A3",
          "ticks": 16774,
          "time": 195.04651162790697,
          "velocity": 0.16535433070866143
        },
        {
          "duration": 0.09302325581396076,
          "durationTicks": 8,
          "midi": 78,
          "name": "F#5",
          "ticks": 16774,
          "time": 195.04651162790697,
          "velocity": 0.13385826771653545
        },
        {
          "duration": 0.06976744186044925,
          "durationTicks": 6,
          "midi": 44,
          "name": "G#2",
          "ticks": 16776,
          "time": 195.06976744186048,
          "velocity": 0.30708661417322836
        },
        {
          "duration": 0.023255813953483084,
          "durationTicks": 2,
          "midi": 53,
          "name": "F3",
          "ticks": 16777,
          "time": 195.08139534883722,
          "velocity": 0.25984251968503935
        },
        {
          "duration": 0.1046511627907023,
          "durationTicks": 9,
          "midi": 61,
          "name": "C#4",
          "ticks": 16784,
          "time": 195.1627906976744,
          "velocity": 0.15748031496062992
        },
        {
          "duration": 0.04651162790699459,
          "durationTicks": 4,
          "midi": 72,
          "name": "C5",
          "ticks": 16784,
          "time": 195.1627906976744,
          "velocity": 0.23622047244094488
        },
        {
          "duration": 0.22093023255811772,
          "durationTicks": 19,
          "midi": 42,
          "name": "F#2",
          "ticks": 16787,
          "time": 195.19767441860466,
          "velocity": 0.3543307086614173
        },
        {
          "duration": 0.5813953488372192,
          "durationTicks": 50,
          "midi": 78,
          "name": "F#5",
          "ticks": 16795,
          "time": 195.2906976744186,
          "velocity": 0.2283464566929134
        },
        {
          "duration": 0.023255813953483084,
          "durationTicks": 2,
          "midi": 53,
          "name": "F3",
          "ticks": 16803,
          "time": 195.38372093023256,
          "velocity": 0.2440944881889764
        },
        {
          "duration": 0.034883720930224626,
          "durationTicks": 3,
          "midi": 70,
          "name": "A#4",
          "ticks": 16803,
          "time": 195.38372093023256,
          "velocity": 0.2440944881889764
        },
        {
          "duration": 0.023255813953483084,
          "durationTicks": 2,
          "midi": 63,
          "name": "D#4",
          "ticks": 16804,
          "time": 195.3953488372093,
          "velocity": 0.23622047244094488
        },
        {
          "duration": 0.12790697674418539,
          "durationTicks": 11,
          "midi": 66,
          "name": "F#4",
          "ticks": 16804,
          "time": 195.3953488372093,
          "velocity": 0.2283464566929134
        },
        {
          "duration": 0.08139534883721922,
          "durationTicks": 7,
          "midi": 85,
          "name": "C#6",
          "ticks": 16804,
          "time": 195.3953488372093,
          "velocity": 0.07874015748031496
        },
        {
          "duration": 0.034883720930224626,
          "durationTicks": 3,
          "midi": 59,
          "name": "B3",
          "ticks": 16809,
          "time": 195.45348837209303,
          "velocity": 0.23622047244094488
        },
        {
          "duration": 0.023255813953483084,
          "durationTicks": 2,
          "midi": 59,
          "name": "B3",
          "ticks": 16813,
          "time": 195.5,
          "velocity": 0.2283464566929134
        },
        {
          "duration": 0.1046511627907023,
          "durationTicks": 9,
          "midi": 66,
          "name": "F#4",
          "ticks": 16816,
          "time": 195.53488372093022,
          "velocity": 0.14173228346456693
        },
        {
          "duration": 0.023255813953511506,
          "durationTicks": 2,
          "midi": 47,
          "name": "B2",
          "ticks": 16818,
          "time": 195.5581395348837,
          "velocity": 0.25196850393700787
        },
        {
          "duration": 0.034883720930224626,
          "durationTicks": 3,
          "midi": 58,
          "name": "A#3",
          "ticks": 16821,
          "time": 195.59302325581396,
          "velocity": 0.2047244094488189
        },
        {
          "duration": 0.023255813953483084,
          "durationTicks": 2,
          "midi": 47,
          "name": "B2",
          "ticks": 16823,
          "time": 195.61627906976744,
          "velocity": 0.3228346456692913
        },
        {
          "duration": 0.034883720930224626,
          "durationTicks": 3,
          "midi": 71,
          "name": "B4",
          "ticks": 16824,
          "time": 195.62790697674419,
          "velocity": 0.07086614173228346
        },
        {
          "duration": 0.1046511627907023,
          "durationTicks": 9,
          "midi": 59,
          "name": "B3",
          "ticks": 16825,
          "time": 195.63953488372093,
          "velocity": 0.2047244094488189
        },
        {
          "duration": 0.30232558139536536,
          "durationTicks": 26,
          "midi": 47,
          "name": "B2",
          "ticks": 16826,
          "time": 195.65116279069767,
          "velocity": 0.33858267716535434
        },
        {
          "duration": 0.12790697674418539,
          "durationTicks": 11,
          "midi": 54,
          "name": "F#3",
          "ticks": 16827,
          "time": 195.6627906976744,
          "velocity": 0.25984251968503935
        },
        {
          "duration": 0.11627906976744384,
          "durationTicks": 10,
          "midi": 35,
          "name": "B1",
          "ticks": 16828,
          "time": 195.67441860465115,
          "velocity": 0.28346456692913385
        },
        {
          "duration": 0.1511627906976969,
          "durationTicks": 13,
          "midi": 35,
          "name": "B1",
          "ticks": 16839,
          "time": 195.80232558139534,
          "velocity": 0.23622047244094488
        },
        {
          "duration": 0.05813953488370771,
          "durationTicks": 5,
          "midi": 54,
          "name": "F#3",
          "ticks": 16842,
          "time": 195.8372093023256,
          "velocity": 0.18110236220472442
        },
        {
          "duration": 0.09302325581396076,
          "durationTicks": 8,
          "midi": 99,
          "name": "D#7",
          "ticks": 16844,
          "time": 195.86046511627907,
          "velocity": 0.18110236220472442
        },
        {
          "duration": 0.03488372093025305,
          "durationTicks": 3,
          "midi": 57,
          "name": "A3",
          "ticks": 16850,
          "time": 195.93023255813952,
          "velocity": 0.16535433070866143
        },
        {
          "duration": 0.023255813953483084,
          "durationTicks": 2,
          "midi": 47,
          "name": "B2",
          "ticks": 16853,
          "time": 195.96511627906978,
          "velocity": 0.3464566929133858
        },
        {
          "duration": 0.034883720930224626,
          "durationTicks": 3,
          "midi": 57,
          "name": "A3",
          "ticks": 16854,
          "time": 195.97674418604652,
          "velocity": 0.2125984251968504
        },
        {
          "duration": 0.1046511627907023,
          "durationTicks": 9,
          "midi": 71,
          "name": "B4",
          "ticks": 16855,
          "time": 195.98837209302326,
          "velocity": 0.13385826771653545
        },
        {
          "duration": 0.04651162790696617,
          "durationTicks": 4,
          "midi": 78,
          "name": "F#5",
          "ticks": 16857,
          "time": 196.01162790697674,
          "velocity": 0.08661417322834646
        },
        {
          "duration": 0.034883720930224626,
          "durationTicks": 3,
          "midi": 58,
          "name": "A#3",
          "ticks": 16858,
          "time": 196.02325581395348,
          "velocity": 0.18110236220472442
        },
        {
          "duration": 0.09302325581393234,
          "durationTicks": 8,
          "midi": 76,
          "name": "E5",
          "ticks": 16863,
          "time": 196.08139534883722,
          "velocity": 0.14173228346456693
        },
        {
          "duration": 0.0813953488371908,
          "durationTicks": 7,
          "midi": 72,
          "name": "C5",
          "ticks": 16864,
          "time": 196.09302325581396,
          "velocity": 0.2283464566929134
        },
        {
          "duration": 0.034883720930224626,
          "durationTicks": 3,
          "midi": 53,
          "name": "F3",
          "ticks": 16865,
          "time": 196.1046511627907,
          "velocity": 0.13385826771653545
        },
        {
          "duration": 0.034883720930224626,
          "durationTicks": 3,
          "midi": 72,
          "name": "C5",
          "ticks": 16873,
          "time": 196.19767441860466,
          "velocity": 0.14173228346456693
        },
        {
          "duration": 0.04651162790696617,
          "durationTicks": 4,
          "midi": 52,
          "name": "E3",
          "ticks": 16874,
          "time": 196.2093023255814,
          "velocity": 0.14960629921259844
        },
        {
          "duration": 0.1046511627907023,
          "durationTicks": 9,
          "midi": 78,
          "name": "F#5",
          "ticks": 16875,
          "time": 196.22093023255815,
          "velocity": 0.15748031496062992
        },
        {
          "duration": 0.09302325581396076,
          "durationTicks": 8,
          "midi": 71,
          "name": "B4",
          "ticks": 16876,
          "time": 196.2325581395349,
          "velocity": 0.1889763779527559
        },
        {
          "duration": 0.023255813953483084,
          "durationTicks": 2,
          "midi": 40,
          "name": "E2",
          "ticks": 16884,
          "time": 196.32558139534885,
          "velocity": 0.4015748031496063
        },
        {
          "duration": 0.023255813953483084,
          "durationTicks": 2,
          "midi": 54,
          "name": "F#3",
          "ticks": 16884,
          "time": 196.32558139534885,
          "velocity": 0.2677165354330709
        },
        {
          "duration": 0.0813953488371908,
          "durationTicks": 7,
          "midi": 72,
          "name": "C5",
          "ticks": 16884,
          "time": 196.32558139534885,
          "velocity": 0.2283464566929134
        },
        {
          "duration": 0.2093023255814046,
          "durationTicks": 18,
          "midi": 42,
          "name": "F#2",
          "ticks": 16887,
          "time": 196.36046511627907,
          "velocity": 0.3779527559055118
        },
        {
          "duration": 0.16279069767441,
          "durationTicks": 14,
          "midi": 61,
          "name": "C#4",
          "ticks": 16887,
          "time": 196.36046511627907,
          "velocity": 0.1732283464566929
        },
        {
          "duration": 0.1046511627907023,
          "durationTicks": 9,
          "midi": 71,
          "name": "B4",
          "ticks": 16893,
          "time": 196.43023255813952,
          "velocity": 0.14960629921259844
        },
        {
          "duration": 0.04651162790696617,
          "durationTicks": 4,
          "midi": 78,
          "name": "F#5",
          "ticks": 16897,
          "time": 196.47674418604652,
          "velocity": 0.07086614173228346
        },
        {
          "duration": 0.03488372093025305,
          "durationTicks": 3,
          "midi": 53,
          "name": "F3",
          "ticks": 16903,
          "time": 196.54651162790697,
          "velocity": 0.18110236220472442
        },
        {
          "duration": 0.03488372093025305,
          "durationTicks": 3,
          "midi": 75,
          "name": "D#5",
          "ticks": 16904,
          "time": 196.5581395348837,
          "velocity": 0.14960629921259844
        },
        {
          "duration": 0.04651162790699459,
          "durationTicks": 4,
          "midi": 99,
          "name": "D#7",
          "ticks": 16904,
          "time": 196.5581395348837,
          "velocity": 0.07874015748031496
        },
        {
          "duration": 0.023255813953483084,
          "durationTicks": 2,
          "midi": 35,
          "name": "B1",
          "ticks": 16907,
          "time": 196.59302325581396,
          "velocity": 0.2440944881889764
        },
        {
          "duration": 0.034883720930224626,
          "durationTicks": 3,
          "midi": 54,
          "name": "F#3",
          "ticks": 16907,
          "time": 196.59302325581396,
          "velocity": 0.2283464566929134
        },
        {
          "duration": 0.04651162790696617,
          "durationTicks": 4,
          "midi": 59,
          "name": "B3",
          "ticks": 16908,
          "time": 196.6046511627907,
          "velocity": 0.11811023622047244
        },
        {
          "duration": 0.17441860465117998,
          "durationTicks": 15,
          "midi": 47,
          "name": "B2",
          "ticks": 16911,
          "time": 196.63953488372093,
          "velocity": 0.28346456692913385
        },
        {
          "duration": 0.04651162790696617,
          "durationTicks": 4,
          "midi": 54,
          "name": "F#3",
          "ticks": 16911,
          "time": 196.63953488372093,
          "velocity": 0.2204724409448819
        },
        {
          "duration": 0.023255813953483084,
          "durationTicks": 2,
          "midi": 35,
          "name": "B1",
          "ticks": 16912,
          "time": 196.65116279069767,
          "velocity": 0.23622047244094488
        },
        {
          "duration": 0.22093023255814614,
          "durationTicks": 19,
          "midi": 35,
          "name": "B1",
          "ticks": 16915,
          "time": 196.6860465116279,
          "velocity": 0.23622047244094488
        },
        {
          "duration": 0.06976744186047767,
          "durationTicks": 6,
          "midi": 71,
          "name": "B4",
          "ticks": 16915,
          "time": 196.6860465116279,
          "velocity": 0.11023622047244094
        },
        {
          "duration": 0.034883720930224626,
          "durationTicks": 3,
          "midi": 54,
          "name": "F#3",
          "ticks": 16916,
          "time": 196.69767441860466,
          "velocity": 0.1732283464566929
        },
        {
          "duration": 0.11627906976744384,
          "durationTicks": 10,
          "midi": 78,
          "name": "F#5",
          "ticks": 16916,
          "time": 196.69767441860466,
          "velocity": 0.14960629921259844
        },
        {
          "duration": 0.08139534883721922,
          "durationTicks": 7,
          "midi": 67,
          "name": "G4",
          "ticks": 16924,
          "time": 196.7906976744186,
          "velocity": 0.1889763779527559
        },
        {
          "duration": 0.06976744186044925,
          "durationTicks": 6,
          "midi": 57,
          "name": "A3",
          "ticks": 16928,
          "time": 196.8372093023256,
          "velocity": 0.14173228346456693
        },
        {
          "duration": 0.023255813953511506,
          "durationTicks": 2,
          "midi": 48,
          "name": "C3",
          "ticks": 16935,
          "time": 196.91860465116278,
          "velocity": 0.2440944881889764
        },
        {
          "duration": 0.1046511627907023,
          "durationTicks": 9,
          "midi": 59,
          "name": "B3",
          "ticks": 16935,
          "time": 196.91860465116278,
          "velocity": 0.1889763779527559
        },
        {
          "duration": 0.1046511627907023,
          "durationTicks": 9,
          "midi": 78,
          "name": "F#5",
          "ticks": 16935,
          "time": 196.91860465116278,
          "velocity": 0.1732283464566929
        },
        {
          "duration": 0.1046511627907023,
          "durationTicks": 9,
          "midi": 54,
          "name": "F#3",
          "ticks": 16940,
          "time": 196.97674418604652,
          "velocity": 0.2440944881889764
        },
        {
          "duration": 0.09302325581396076,
          "durationTicks": 8,
          "midi": 72,
          "name": "C5",
          "ticks": 16944,
          "time": 197.02325581395348,
          "velocity": 0.1968503937007874
        },
        {
          "duration": 0.04651162790699459,
          "durationTicks": 4,
          "midi": 61,
          "name": "C#4",
          "ticks": 16945,
          "time": 197.03488372093022,
          "velocity": 0.1732283464566929
        },
        {
          "duration": 0.023255813953483084,
          "durationTicks": 2,
          "midi": 42,
          "name": "F#2",
          "ticks": 16948,
          "time": 197.06976744186048,
          "velocity": 0.30708661417322836
        },
        {
          "duration": 0.04651162790696617,
          "durationTicks": 4,
          "midi": 45,
          "name": "A2",
          "ticks": 16953,
          "time": 197.12790697674419,
          "velocity": 0.15748031496062992
        },
        {
          "duration": 0.32558139534884845,
          "durationTicks": 28,
          "midi": 78,
          "name": "F#5",
          "ticks": 16955,
          "time": 197.15116279069767,
          "velocity": 0.23622047244094488
        },
        {
          "duration": 0.08139534883721922,
          "durationTicks": 7,
          "midi": 63,
          "name": "D#4",
          "ticks": 16957,
          "time": 197.17441860465115,
          "velocity": 0.14173228346456693
        },
        {
          "duration": 0.15116279069766847,
          "durationTicks": 13,
          "midi": 61,
          "name": "C#4",
          "ticks": 16964,
          "time": 197.25581395348837,
          "velocity": 0.16535433070866143
        },
        {
          "duration": 0.2093023255814046,
          "durationTicks": 18,
          "midi": 42,
          "name": "F#2",
          "ticks": 16968,
          "time": 197.30232558139534,
          "velocity": 0.3779527559055118
        },
        {
          "duration": 0.06976744186047767,
          "durationTicks": 6,
          "midi": 71,
          "name": "B4",
          "ticks": 16974,
          "time": 197.37209302325581,
          "velocity": 0.12598425196850394
        },
        {
          "duration": 0.05813953488370771,
          "durationTicks": 5,
          "midi": 71,
          "name": "B4",
          "ticks": 16984,
          "time": 197.48837209302326,
          "velocity": 0.1732283464566929
        },
        {
          "duration": 0.32558139534884845,
          "durationTicks": 28,
          "midi": 66,
          "name": "F#4",
          "ticks": 16985,
          "time": 197.5,
          "velocity": 0.13385826771653545
        },
        {
          "duration": 0.023255813953483084,
          "durationTicks": 2,
          "midi": 53,
          "name": "F3",
          "ticks": 16986,
          "time": 197.51162790697674,
          "velocity": 0.2755905511811024
        },
        {
          "duration": 0.023255813953483084,
          "durationTicks": 2,
          "midi": 46,
          "name": "A#2",
          "ticks": 16987,
          "time": 197.52325581395348,
          "velocity": 0.30708661417322836
        },
        {
          "duration": 0.12790697674418539,
          "durationTicks": 11,
          "midi": 54,
          "name": "F#3",
          "ticks": 16988,
          "time": 197.53488372093022,
          "velocity": 0.28346456692913385
        },
        {
          "duration": 0.023255813953511506,
          "durationTicks": 2,
          "midi": 47,
          "name": "B2",
          "ticks": 16989,
          "time": 197.54651162790697,
          "velocity": 0.2283464566929134
        },
        {
          "duration": 0.023255813953483084,
          "durationTicks": 2,
          "midi": 35,
          "name": "B1",
          "ticks": 16991,
          "time": 197.56976744186048,
          "velocity": 0.25984251968503935
        },
        {
          "duration": 0.22093023255811772,
          "durationTicks": 19,
          "midi": 47,
          "name": "B2",
          "ticks": 16992,
          "time": 197.58139534883722,
          "velocity": 0.2677165354330709
        },
        {
          "duration": 0.023255813953483084,
          "durationTicks": 2,
          "midi": 35,
          "name": "B1",
          "ticks": 16994,
          "time": 197.6046511627907,
          "velocity": 0.25196850393700787
        },
        {
          "duration": 0.1046511627907023,
          "durationTicks": 9,
          "midi": 71,
          "name": "B4",
          "ticks": 16995,
          "time": 197.61627906976744,
          "velocity": 0.13385826771653545
        },
        {
          "duration": 0.034883720930224626,
          "durationTicks": 3,
          "midi": 35,
          "name": "B1",
          "ticks": 16998,
          "time": 197.65116279069767,
          "velocity": 0.25196850393700787
        },
        {
          "duration": 0.05813953488373613,
          "durationTicks": 5,
          "midi": 54,
          "name": "F#3",
          "ticks": 17000,
          "time": 197.67441860465115,
          "velocity": 0.16535433070866143
        },
        {
          "duration": 0.023255813953483084,
          "durationTicks": 2,
          "midi": 35,
          "name": "B1",
          "ticks": 17002,
          "time": 197.69767441860466,
          "velocity": 0.25196850393700787
        },
        {
          "duration": 0.05813953488370771,
          "durationTicks": 5,
          "midi": 35,
          "name": "B1",
          "ticks": 17005,
          "time": 197.7325581395349,
          "velocity": 0.23622047244094488
        },
        {
          "duration": 0.08139534883721922,
          "durationTicks": 7,
          "midi": 71,
          "name": "B4",
          "ticks": 17005,
          "time": 197.7325581395349,
          "velocity": 0.14173228346456693
        },
        {
          "duration": 0.06976744186044925,
          "durationTicks": 6,
          "midi": 99,
          "name": "D#7",
          "ticks": 17005,
          "time": 197.7325581395349,
          "velocity": 0.12598425196850394
        },
        {
          "duration": 0.034883720930224626,
          "durationTicks": 3,
          "midi": 75,
          "name": "D#5",
          "ticks": 17006,
          "time": 197.74418604651163,
          "velocity": 0.09448818897637795
        },
        {
          "duration": 0.05813953488373613,
          "durationTicks": 5,
          "midi": 57,
          "name": "A3",
          "ticks": 17008,
          "time": 197.7674418604651,
          "velocity": 0.15748031496062992
        },
        {
          "duration": 0.023255813953511506,
          "durationTicks": 2,
          "midi": 35,
          "name": "B1",
          "ticks": 17011,
          "time": 197.80232558139534,
          "velocity": 0.23622047244094488
        },
        {
          "duration": 0.12790697674418539,
          "durationTicks": 11,
          "midi": 71,
          "name": "B4",
          "ticks": 17014,
          "time": 197.8372093023256,
          "velocity": 0.1889763779527559
        },
        {
          "duration": 0.09302325581396076,
          "durationTicks": 8,
          "midi": 78,
          "name": "F#5",
          "ticks": 17015,
          "time": 197.84883720930233,
          "velocity": 0.14960629921259844
        },
        {
          "duration": 0.023255813953483084,
          "durationTicks": 2,
          "midi": 36,
          "name": "C2",
          "ticks": 17016,
          "time": 197.86046511627907,
          "velocity": 0.3228346456692913
        },
        {
          "duration": 0.1046511627907023,
          "durationTicks": 9,
          "midi": 66,
          "name": "F#4",
          "ticks": 17018,
          "time": 197.88372093023256,
          "velocity": 0.11023622047244094
        },
        {
          "duration": 0.05813953488370771,
          "durationTicks": 5,
          "midi": 52,
          "name": "E3",
          "ticks": 17025,
          "time": 197.96511627906978,
          "velocity": 0.2440944881889764
        },
        {
          "duration": 0.034883720930224626,
          "durationTicks": 3,
          "midi": 60,
          "name": "C4",
          "ticks": 17025,
          "time": 197.96511627906978,
          "velocity": 0.11023622047244094
        },
        {
          "duration": 0.06976744186044925,
          "durationTicks": 6,
          "midi": 72,
          "name": "C5",
          "ticks": 17025,
          "time": 197.96511627906978,
          "velocity": 0.23622047244094488
        },
        {
          "duration": 0.11627906976744384,
          "durationTicks": 10,
          "midi": 76,
          "name": "E5",
          "ticks": 17025,
          "time": 197.96511627906978,
          "velocity": 0.12598425196850394
        },
        {
          "duration": 0.03488372093025305,
          "durationTicks": 3,
          "midi": 71,
          "name": "B4",
          "ticks": 17031,
          "time": 198.03488372093022,
          "velocity": 0.14173228346456693
        },
        {
          "duration": 0.023255813953483084,
          "durationTicks": 2,
          "midi": 59,
          "name": "B3",
          "ticks": 17036,
          "time": 198.09302325581396,
          "velocity": 0.28346456692913385
        },
        {
          "duration": 0.12790697674418539,
          "durationTicks": 11,
          "midi": 78,
          "name": "F#5",
          "ticks": 17036,
          "time": 198.09302325581396,
          "velocity": 0.1889763779527559
        },
        {
          "duration": 0.023255813953483084,
          "durationTicks": 2,
          "midi": 59,
          "name": "B3",
          "ticks": 17039,
          "time": 198.12790697674419,
          "velocity": 0.28346456692913385
        },
        {
          "duration": 0.023255813953483084,
          "durationTicks": 2,
          "midi": 53,
          "name": "F3",
          "ticks": 17045,
          "time": 198.19767441860466,
          "velocity": 0.3464566929133858
        },
        {
          "duration": 0.09302325581393234,
          "durationTicks": 8,
          "midi": 72,
          "name": "C5",
          "ticks": 17045,
          "time": 198.19767441860466,
          "velocity": 0.1889763779527559
        },
        {
          "duration": 0.023255813953483084,
          "durationTicks": 2,
          "midi": 40,
          "name": "E2",
          "ticks": 17046,
          "time": 198.2093023255814,
          "velocity": 0.4251968503937008
        },
        {
          "duration": 0.20930232558137618,
          "durationTicks": 18,
          "midi": 61,
          "name": "C#4",
          "ticks": 17046,
          "time": 198.2093023255814,
          "velocity": 0.2283464566929134
        },
        {
          "duration": 0.04651162790696617,
          "durationTicks": 4,
          "midi": 54,
          "name": "F#3",
          "ticks": 17047,
          "time": 198.22093023255815,
          "velocity": 0.31496062992125984
        },
        {
          "duration": 0.1860465116278931,
          "durationTicks": 16,
          "midi": 42,
          "name": "F#2",
          "ticks": 17049,
          "time": 198.24418604651163,
          "velocity": 0.3937007874015748
        },
        {
          "duration": 0.023255813953511506,
          "durationTicks": 2,
          "midi": 55,
          "name": "G3",
          "ticks": 17054,
          "time": 198.30232558139534,
          "velocity": 0.2283464566929134
        },
        {
          "duration": 0.04651162790696617,
          "durationTicks": 4,
          "midi": 78,
          "name": "F#5",
          "ticks": 17056,
          "time": 198.32558139534885,
          "velocity": 0.07874015748031496
        },
        {
          "duration": 0.03488372093025305,
          "durationTicks": 3,
          "midi": 45,
          "name": "A2",
          "ticks": 17065,
          "time": 198.43023255813952,
          "velocity": 0.29133858267716534
        },
        {
          "duration": 0.023255813953511506,
          "durationTicks": 2,
          "midi": 53,
          "name": "F3",
          "ticks": 17065,
          "time": 198.43023255813952,
          "velocity": 0.2283464566929134
        },
        {
          "duration": 0.04651162790699459,
          "durationTicks": 4,
          "midi": 71,
          "name": "B4",
          "ticks": 17065,
          "time": 198.43023255813952,
          "velocity": 0.16535433070866143
        },
        {
          "duration": 0.03488372093025305,
          "durationTicks": 3,
          "midi": 99,
          "name": "D#7",
          "ticks": 17065,
          "time": 198.43023255813952,
          "velocity": 0.12598425196850394
        },
        {
          "duration": 0.19767441860463464,
          "durationTicks": 17,
          "midi": 54,
          "name": "F#3",
          "ticks": 17067,
          "time": 198.45348837209303,
          "velocity": 0.2677165354330709
        },
        {
          "duration": 0.3139534883720785,
          "durationTicks": 27,
          "midi": 47,
          "name": "B2",
          "ticks": 17068,
          "time": 198.46511627906978,
          "velocity": 0.29133858267716534
        },
        {
          "duration": 0.13953488372092693,
          "durationTicks": 12,
          "midi": 35,
          "name": "B1",
          "ticks": 17070,
          "time": 198.48837209302326,
          "velocity": 0.25196850393700787
        },
        {
          "duration": 0.09302325581393234,
          "durationTicks": 8,
          "midi": 78,
          "name": "F#5",
          "ticks": 17077,
          "time": 198.56976744186048,
          "velocity": 0.13385826771653545
        },
        {
          "duration": 0.05813953488373613,
          "durationTicks": 5,
          "midi": 54,
          "name": "F#3",
          "ticks": 17085,
          "time": 198.6627906976744,
          "velocity": 0.18110236220472442
        },
        {
          "duration": 0.08139534883721922,
          "durationTicks": 7,
          "midi": 67,
          "name": "G4",
          "ticks": 17085,
          "time": 198.6627906976744,
          "velocity": 0.18110236220472442
        },
        {
          "duration": 0.05813953488373613,
          "durationTicks": 5,
          "midi": 35,
          "name": "B1",
          "ticks": 17086,
          "time": 198.67441860465115,
          "velocity": 0.2283464566929134
        },
        {
          "duration": 0.04651162790699459,
          "durationTicks": 4,
          "midi": 71,
          "name": "B4",
          "ticks": 17086,
          "time": 198.67441860465115,
          "velocity": 0.07086614173228346
        },
        {
          "duration": 0.023255813953483084,
          "durationTicks": 2,
          "midi": 35,
          "name": "B1",
          "ticks": 17092,
          "time": 198.74418604651163,
          "velocity": 0.2283464566929134
        },
        {
          "duration": 0.06976744186044925,
          "durationTicks": 6,
          "midi": 54,
          "name": "F#3",
          "ticks": 17098,
          "time": 198.8139534883721,
          "velocity": 0.1889763779527559
        },
        {
          "duration": 0.023255813953483084,
          "durationTicks": 2,
          "midi": 45,
          "name": "A2",
          "ticks": 17103,
          "time": 198.87209302325581,
          "velocity": 0.28346456692913385
        },
        {
          "duration": 0.034883720930224626,
          "durationTicks": 3,
          "midi": 53,
          "name": "F3",
          "ticks": 17104,
          "time": 198.88372093023256,
          "velocity": 0.23622047244094488
        },
        {
          "duration": 0.08139534883721922,
          "durationTicks": 7,
          "midi": 61,
          "name": "C#4",
          "ticks": 17104,
          "time": 198.88372093023256,
          "velocity": 0.16535433070866143
        },
        {
          "duration": 0.09302325581396076,
          "durationTicks": 8,
          "midi": 72,
          "name": "C5",
          "ticks": 17104,
          "time": 198.88372093023256,
          "velocity": 0.1889763779527559
        },
        {
          "duration": 0.04651162790699459,
          "durationTicks": 4,
          "midi": 54,
          "name": "F#3",
          "ticks": 17107,
          "time": 198.91860465116278,
          "velocity": 0.14173228346456693
        },
        {
          "duration": 0.034883720930224626,
          "durationTicks": 3,
          "midi": 42,
          "name": "F#2",
          "ticks": 17109,
          "time": 198.9418604651163,
          "velocity": 0.31496062992125984
        },
        {
          "duration": 0.16279069767441,
          "durationTicks": 14,
          "midi": 71,
          "name": "B4",
          "ticks": 17112,
          "time": 198.97674418604652,
          "velocity": 0.2283464566929134
        },
        {
          "duration": 0.023255813953483084,
          "durationTicks": 2,
          "midi": 57,
          "name": "A3",
          "ticks": 17114,
          "time": 199,
          "velocity": 0.2283464566929134
        },
        {
          "duration": 0.09302325581396076,
          "durationTicks": 8,
          "midi": 78,
          "name": "F#5",
          "ticks": 17116,
          "time": 199.02325581395348,
          "velocity": 0.1889763779527559
        },
        {
          "duration": 0.05813953488373613,
          "durationTicks": 5,
          "midi": 63,
          "name": "D#4",
          "ticks": 17117,
          "time": 199.03488372093022,
          "velocity": 0.10236220472440945
        },
        {
          "duration": 0.034883720930224626,
          "durationTicks": 3,
          "midi": 44,
          "name": "G#2",
          "ticks": 17122,
          "time": 199.09302325581396,
          "velocity": 0.1968503937007874
        },
        {
          "duration": 0.034883720930224626,
          "durationTicks": 3,
          "midi": 67,
          "name": "G4",
          "ticks": 17123,
          "time": 199.1046511627907,
          "velocity": 0.11811023622047244
        },
        {
          "duration": 0.05813953488370771,
          "durationTicks": 5,
          "midi": 94,
          "name": "A#6",
          "ticks": 17123,
          "time": 199.1046511627907,
          "velocity": 0.07086614173228346
        },
        {
          "duration": 0.25581395348837077,
          "durationTicks": 22,
          "midi": 78,
          "name": "F#5",
          "ticks": 17125,
          "time": 199.12790697674419,
          "velocity": 0.2204724409448819
        },
        {
          "duration": 0.06976744186047767,
          "durationTicks": 6,
          "midi": 85,
          "name": "C#6",
          "ticks": 17126,
          "time": 199.13953488372093,
          "velocity": 0.10236220472440945
        },
        {
          "duration": 0.023255813953483084,
          "durationTicks": 2,
          "midi": 54,
          "name": "F#3",
          "ticks": 17127,
          "time": 199.15116279069767,
          "velocity": 0.2677165354330709
        },
        {
          "duration": 0.19767441860466306,
          "durationTicks": 17,
          "midi": 61,
          "name": "C#4",
          "ticks": 17127,
          "time": 199.15116279069767,
          "velocity": 0.1732283464566929
        },
        {
          "duration": 0.17441860465117998,
          "durationTicks": 15,
          "midi": 42,
          "name": "F#2",
          "ticks": 17129,
          "time": 199.17441860465115,
          "velocity": 0.36220472440944884
        },
        {
          "duration": 0.023255813953511506,
          "durationTicks": 2,
          "midi": 55,
          "name": "G3",
          "ticks": 17130,
          "time": 199.1860465116279,
          "velocity": 0.25196850393700787
        },
        {
          "duration": 0.05813953488370771,
          "durationTicks": 5,
          "midi": 66,
          "name": "F#4",
          "ticks": 17131,
          "time": 199.19767441860466,
          "velocity": 0.10236220472440945
        },
        {
          "duration": 0.16279069767441,
          "durationTicks": 14,
          "midi": 71,
          "name": "B4",
          "ticks": 17136,
          "time": 199.25581395348837,
          "velocity": 0.15748031496062992
        },
        {
          "duration": 0.023255813953483084,
          "durationTicks": 2,
          "midi": 41,
          "name": "F2",
          "ticks": 17144,
          "time": 199.34883720930233,
          "velocity": 0.31496062992125984
        },
        {
          "duration": 0.2093023255814046,
          "durationTicks": 18,
          "midi": 54,
          "name": "F#3",
          "ticks": 17146,
          "time": 199.37209302325581,
          "velocity": 0.2677165354330709
        },
        {
          "duration": 0.05813953488373613,
          "durationTicks": 5,
          "midi": 35,
          "name": "B1",
          "ticks": 17148,
          "time": 199.3953488372093,
          "velocity": 0.25984251968503935
        },
        {
          "duration": 0.17441860465117998,
          "durationTicks": 15,
          "midi": 59,
          "name": "B3",
          "ticks": 17148,
          "time": 199.3953488372093,
          "velocity": 0.1968503937007874
        },
        {
          "duration": 0.16279069767443843,
          "durationTicks": 14,
          "midi": 78,
          "name": "F#5",
          "ticks": 17151,
          "time": 199.43023255813952,
          "velocity": 0.15748031496062992
        },
        {
          "duration": 0.023255813953483084,
          "durationTicks": 2,
          "midi": 35,
          "name": "B1",
          "ticks": 17154,
          "time": 199.46511627906978,
          "velocity": 0.2440944881889764
        },
        {
          "duration": 0.22093023255814614,
          "durationTicks": 19,
          "midi": 35,
          "name": "B1",
          "ticks": 17157,
          "time": 199.5,
          "velocity": 0.25196850393700787
        },
        {
          "duration": 0.09302325581393234,
          "durationTicks": 8,
          "midi": 64,
          "name": "E4",
          "ticks": 17164,
          "time": 199.58139534883722,
          "velocity": 0.1968503937007874
        },
        {
          "duration": 0.06976744186044925,
          "durationTicks": 6,
          "midi": 76,
          "name": "E5",
          "ticks": 17164,
          "time": 199.58139534883722,
          "velocity": 0.2125984251968504
        },
        {
          "duration": 0.05813953488370771,
          "durationTicks": 5,
          "midi": 67,
          "name": "G4",
          "ticks": 17165,
          "time": 199.59302325581396,
          "velocity": 0.11811023622047244
        },
        {
          "duration": 0.023255813953483084,
          "durationTicks": 2,
          "midi": 48,
          "name": "C3",
          "ticks": 17175,
          "time": 199.7093023255814,
          "velocity": 0.2677165354330709
        },
        {
          "duration": 0.09302325581396076,
          "durationTicks": 8,
          "midi": 71,
          "name": "B4",
          "ticks": 17176,
          "time": 199.72093023255815,
          "velocity": 0.13385826771653545
        },
        {
          "duration": 0.4767441860465169,
          "durationTicks": 41,
          "midi": 78,
          "name": "F#5",
          "ticks": 17177,
          "time": 199.7325581395349,
          "velocity": 0.2440944881889764
        },
        {
          "duration": 0.04651162790696617,
          "durationTicks": 4,
          "midi": 54,
          "name": "F#3",
          "ticks": 17178,
          "time": 199.74418604651163,
          "velocity": 0.23622047244094488
        },
        {
          "duration": 0.12790697674418539,
          "durationTicks": 11,
          "midi": 85,
          "name": "C#6",
          "ticks": 17180,
          "time": 199.7674418604651,
          "velocity": 0.10236220472440945
        },
        {
          "duration": 0.023255813953483084,
          "durationTicks": 2,
          "midi": 35,
          "name": "B1",
          "ticks": 17184,
          "time": 199.8139534883721,
          "velocity": 0.25984251968503935
        },
        {
          "duration": 0.0813953488371908,
          "durationTicks": 7,
          "midi": 61,
          "name": "C#4",
          "ticks": 17184,
          "time": 199.8139534883721,
          "velocity": 0.1889763779527559
        },
        {
          "duration": 0.034883720930224626,
          "durationTicks": 3,
          "midi": 69,
          "name": "A4",
          "ticks": 17184,
          "time": 199.8139534883721,
          "velocity": 0.1732283464566929
        },
        {
          "duration": 0.023255813953483084,
          "durationTicks": 2,
          "midi": 40,
          "name": "E2",
          "ticks": 17186,
          "time": 199.8372093023256,
          "velocity": 0.3858267716535433
        },
        {
          "duration": 0.06976744186044925,
          "durationTicks": 6,
          "midi": 54,
          "name": "F#3",
          "ticks": 17186,
          "time": 199.8372093023256,
          "velocity": 0.15748031496062992
        },
        {
          "duration": 0.04651162790696617,
          "durationTicks": 4,
          "midi": 42,
          "name": "F#2",
          "ticks": 17189,
          "time": 199.87209302325581,
          "velocity": 0.33070866141732286
        },
        {
          "duration": 0.05813953488373613,
          "durationTicks": 5,
          "midi": 45,
          "name": "A2",
          "ticks": 17194,
          "time": 199.93023255813952,
          "velocity": 0.16535433070866143
        },
        {
          "duration": 0.05813953488370771,
          "durationTicks": 5,
          "midi": 63,
          "name": "D#4",
          "ticks": 17197,
          "time": 199.96511627906978,
          "velocity": 0.16535433070866143
        },
        {
          "duration": 0.034883720930224626,
          "durationTicks": 3,
          "midi": 76,
          "name": "E5",
          "ticks": 17199,
          "time": 199.98837209302326,
          "velocity": 0.16535433070866143
        },
        {
          "duration": 0.023255813953483084,
          "durationTicks": 2,
          "midi": 41,
          "name": "F2",
          "ticks": 17201,
          "time": 200.01162790697674,
          "velocity": 0.28346456692913385
        },
        {
          "duration": 0.03488372093025305,
          "durationTicks": 3,
          "midi": 53,
          "name": "F3",
          "ticks": 17204,
          "time": 200.04651162790697,
          "velocity": 0.2992125984251969
        },
        {
          "duration": 0.08139534883721922,
          "durationTicks": 7,
          "midi": 75,
          "name": "D#5",
          "ticks": 17204,
          "time": 200.04651162790697,
          "velocity": 0.11023622047244094
        },
        {
          "duration": 0.023255813953483084,
          "durationTicks": 2,
          "midi": 40,
          "name": "E2",
          "ticks": 17206,
          "time": 200.06976744186048,
          "velocity": 0.4094488188976378
        },
        {
          "duration": 0.10465116279067388,
          "durationTicks": 9,
          "midi": 61,
          "name": "C#4",
          "ticks": 17206,
          "time": 200.06976744186048,
          "velocity": 0.1968503937007874
        },
        {
          "duration": 0.15116279069766847,
          "durationTicks": 13,
          "midi": 66,
          "name": "F#4",
          "ticks": 17206,
          "time": 200.06976744186048,
          "velocity": 0.16535433070866143
        },
        {
          "duration": 0.0813953488371908,
          "durationTicks": 7,
          "midi": 54,
          "name": "F#3",
          "ticks": 17207,
          "time": 200.08139534883722,
          "velocity": 0.2440944881889764
        },
        {
          "duration": 0.16279069767441,
          "durationTicks": 14,
          "midi": 42,
          "name": "F#2",
          "ticks": 17209,
          "time": 200.1046511627907,
          "velocity": 0.3779527559055118
        },
        {
          "duration": 0.11627906976744384,
          "durationTicks": 10,
          "midi": 71,
          "name": "B4",
          "ticks": 17215,
          "time": 200.17441860465115,
          "velocity": 0.16535433070866143
        },
        {
          "duration": 0.06976744186044925,
          "durationTicks": 6,
          "midi": 78,
          "name": "F#5",
          "ticks": 17219,
          "time": 200.22093023255815,
          "velocity": 0.10236220472440945
        },
        {
          "duration": 0.04651162790699459,
          "durationTicks": 4,
          "midi": 59,
          "name": "B3",
          "ticks": 17224,
          "time": 200.27906976744185,
          "velocity": 0.14173228346456693
        },
        {
          "duration": 0.05813953488373613,
          "durationTicks": 5,
          "midi": 76,
          "name": "E5",
          "ticks": 17224,
          "time": 200.27906976744185,
          "velocity": 0.2992125984251969
        },
        {
          "duration": 0.023255813953511506,
          "durationTicks": 2,
          "midi": 54,
          "name": "F#3",
          "ticks": 17225,
          "time": 200.2906976744186,
          "velocity": 0.2677165354330709
        },
        {
          "duration": 0.05813953488373613,
          "durationTicks": 5,
          "midi": 64,
          "name": "E4",
          "ticks": 17226,
          "time": 200.30232558139534,
          "velocity": 0.12598425196850394
        },
        {
          "duration": 0.034883720930224626,
          "durationTicks": 3,
          "midi": 54,
          "name": "F#3",
          "ticks": 17228,
          "time": 200.32558139534885,
          "velocity": 0.31496062992125984
        },
        {
          "duration": 0.023255813953483084,
          "durationTicks": 2,
          "midi": 35,
          "name": "B1",
          "ticks": 17231,
          "time": 200.36046511627907,
          "velocity": 0.25196850393700787
        },
        {
          "duration": 0.15116279069766847,
          "durationTicks": 13,
          "midi": 66,
          "name": "F#4",
          "ticks": 17231,
          "time": 200.36046511627907,
          "velocity": 0.13385826771653545
        },
        {
          "duration": 0.034883720930224626,
          "durationTicks": 3,
          "midi": 54,
          "name": "F#3",
          "ticks": 17233,
          "time": 200.38372093023256,
          "velocity": 0.25984251968503935
        },
        {
          "duration": 0.08139534883721922,
          "durationTicks": 7,
          "midi": 35,
          "name": "B1",
          "ticks": 17234,
          "time": 200.3953488372093,
          "velocity": 0.2440944881889764
        },
        {
          "duration": 0.05813953488370771,
          "durationTicks": 5,
          "midi": 48,
          "name": "C3",
          "ticks": 17240,
          "time": 200.46511627906978,
          "velocity": 0.23622047244094488
        },
        {
          "duration": 0.023255813953483084,
          "durationTicks": 2,
          "midi": 36,
          "name": "C2",
          "ticks": 17243,
          "time": 200.5,
          "velocity": 0.2283464566929134
        },
        {
          "duration": 0.034883720930224626,
          "durationTicks": 3,
          "midi": 58,
          "name": "A#3",
          "ticks": 17244,
          "time": 200.51162790697674,
          "velocity": 0.14173228346456693
        },
        {
          "duration": 0.023255813953483084,
          "durationTicks": 2,
          "midi": 77,
          "name": "F5",
          "ticks": 17244,
          "time": 200.51162790697674,
          "velocity": 0.33858267716535434
        },
        {
          "duration": 0.023255813953483084,
          "durationTicks": 2,
          "midi": 45,
          "name": "A2",
          "ticks": 17246,
          "time": 200.53488372093022,
          "velocity": 0.3779527559055118
        },
        {
          "duration": 0.06976744186047767,
          "durationTicks": 6,
          "midi": 76,
          "name": "E5",
          "ticks": 17246,
          "time": 200.53488372093022,
          "velocity": 0.25984251968503935
        },
        {
          "duration": 0.04651162790699459,
          "durationTicks": 4,
          "midi": 64,
          "name": "E4",
          "ticks": 17247,
          "time": 200.54651162790697,
          "velocity": 0.14173228346456693
        },
        {
          "duration": 0.09302325581393234,
          "durationTicks": 8,
          "midi": 35,
          "name": "B1",
          "ticks": 17249,
          "time": 200.56976744186048,
          "velocity": 0.2677165354330709
        },
        {
          "duration": 0.034883720930224626,
          "durationTicks": 3,
          "midi": 67,
          "name": "G4",
          "ticks": 17249,
          "time": 200.56976744186048,
          "velocity": 0.08661417322834646
        },
        {
          "duration": 0.023255813953483084,
          "durationTicks": 2,
          "midi": 46,
          "name": "A#2",
          "ticks": 17250,
          "time": 200.58139534883722,
          "velocity": 0.2283464566929134
        },
        {
          "duration": 0.034883720930224626,
          "durationTicks": 3,
          "midi": 63,
          "name": "D#4",
          "ticks": 17251,
          "time": 200.59302325581396,
          "velocity": 0.14960629921259844
        },
        {
          "duration": 0.06976744186047767,
          "durationTicks": 6,
          "midi": 64,
          "name": "E4",
          "ticks": 17255,
          "time": 200.63953488372093,
          "velocity": 0.15748031496062992
        },
        {
          "duration": 0.023255813953483084,
          "durationTicks": 2,
          "midi": 54,
          "name": "F#3",
          "ticks": 17256,
          "time": 200.65116279069767,
          "velocity": 0.28346456692913385
        },
        {
          "duration": 0.06976744186047767,
          "durationTicks": 6,
          "midi": 35,
          "name": "B1",
          "ticks": 17258,
          "time": 200.67441860465115,
          "velocity": 0.25984251968503935
        },
        {
          "duration": 0.08139534883721922,
          "durationTicks": 7,
          "midi": 71,
          "name": "B4",
          "ticks": 17258,
          "time": 200.67441860465115,
          "velocity": 0.13385826771653545
        },
        {
          "duration": 0.18604651162792152,
          "durationTicks": 16,
          "midi": 78,
          "name": "F#5",
          "ticks": 17258,
          "time": 200.67441860465115,
          "velocity": 0.14173228346456693
        },
        {
          "duration": 0.04651162790699459,
          "durationTicks": 4,
          "midi": 54,
          "name": "F#3",
          "ticks": 17259,
          "time": 200.6860465116279,
          "velocity": 0.2440944881889764
        },
        {
          "duration": 0.023255813953483084,
          "durationTicks": 2,
          "midi": 48,
          "name": "C3",
          "ticks": 17265,
          "time": 200.75581395348837,
          "velocity": 0.2677165354330709
        },
        {
          "duration": 0.06976744186047767,
          "durationTicks": 6,
          "midi": 54,
          "name": "F#3",
          "ticks": 17268,
          "time": 200.7906976744186,
          "velocity": 0.1968503937007874
        },
        {
          "duration": 0.16279069767443843,
          "durationTicks": 14,
          "midi": 42,
          "name": "F#2",
          "ticks": 17269,
          "time": 200.80232558139534,
          "velocity": 0.3543307086614173
        },
        {
          "duration": 0.06976744186044925,
          "durationTicks": 6,
          "midi": 76,
          "name": "E5",
          "ticks": 17272,
          "time": 200.8372093023256,
          "velocity": 0.11811023622047244
        },
        {
          "duration": 0.034883720930224626,
          "durationTicks": 3,
          "midi": 57,
          "name": "A3",
          "ticks": 17274,
          "time": 200.86046511627907,
          "velocity": 0.1889763779527559
        },
        {
          "duration": 0.023255813953483084,
          "durationTicks": 2,
          "midi": 59,
          "name": "B3",
          "ticks": 17282,
          "time": 200.95348837209303,
          "velocity": 0.25196850393700787
        },
        {
          "duration": 0.023255813953483084,
          "durationTicks": 2,
          "midi": 71,
          "name": "B4",
          "ticks": 17282,
          "time": 200.95348837209303,
          "velocity": 0.2992125984251969
        },
        {
          "duration": 0.023255813953483084,
          "durationTicks": 2,
          "midi": 39,
          "name": "D#2",
          "ticks": 17284,
          "time": 200.97674418604652,
          "velocity": 0.30708661417322836
        },
        {
          "duration": 0.023255813953483084,
          "durationTicks": 2,
          "midi": 53,
          "name": "F3",
          "ticks": 17284,
          "time": 200.97674418604652,
          "velocity": 0.23622047244094488
        },
        {
          "duration": 0.05813953488370771,
          "durationTicks": 5,
          "midi": 64,
          "name": "E4",
          "ticks": 17284,
          "time": 200.97674418604652,
          "velocity": 0.2283464566929134
        },
        {
          "duration": 0.023255813953483084,
          "durationTicks": 2,
          "midi": 70,
          "name": "A#4",
          "ticks": 17284,
          "time": 200.97674418604652,
          "velocity": 0.2677165354330709
        },
        {
          "duration": 0.034883720930224626,
          "durationTicks": 3,
          "midi": 77,
          "name": "F5",
          "ticks": 17284,
          "time": 200.97674418604652,
          "velocity": 0.11023622047244094
        },
        {
          "duration": 0.05813953488373613,
          "durationTicks": 5,
          "midi": 41,
          "name": "F2",
          "ticks": 17287,
          "time": 201.01162790697674,
          "velocity": 0.3464566929133858
        },
        {
          "duration": 0.05813953488373613,
          "durationTicks": 5,
          "midi": 59,
          "name": "B3",
          "ticks": 17287,
          "time": 201.01162790697674,
          "velocity": 0.2047244094488189
        },
        {
          "duration": 0.034883720930224626,
          "durationTicks": 3,
          "midi": 53,
          "name": "F3",
          "ticks": 17288,
          "time": 201.02325581395348,
          "velocity": 0.3543307086614173
        },
        {
          "duration": 0.05813953488373613,
          "durationTicks": 5,
          "midi": 67,
          "name": "G4",
          "ticks": 17290,
          "time": 201.04651162790697,
          "velocity": 0.13385826771653545
        },
        {
          "duration": 0.023255813953483084,
          "durationTicks": 2,
          "midi": 71,
          "name": "B4",
          "ticks": 17292,
          "time": 201.06976744186048,
          "velocity": 0.2992125984251969
        },
        {
          "duration": 0.09302325581393234,
          "durationTicks": 8,
          "midi": 41,
          "name": "F2",
          "ticks": 17293,
          "time": 201.08139534883722,
          "velocity": 0.30708661417322836
        },
        {
          "duration": 0.10465116279067388,
          "durationTicks": 9,
          "midi": 77,
          "name": "F5",
          "ticks": 17293,
          "time": 201.08139534883722,
          "velocity": 0.1732283464566929
        },
        {
          "duration": 0.04651162790696617,
          "durationTicks": 4,
          "midi": 84,
          "name": "C6",
          "ticks": 17293,
          "time": 201.08139534883722,
          "velocity": 0.14960629921259844
        },
        {
          "duration": 0.034883720930224626,
          "durationTicks": 3,
          "midi": 70,
          "name": "A#4",
          "ticks": 17294,
          "time": 201.09302325581396,
          "velocity": 0.25196850393700787
        },
        {
          "duration": 0.34883720930233153,
          "durationTicks": 30,
          "midi": 64,
          "name": "E4",
          "ticks": 17298,
          "time": 201.13953488372093,
          "velocity": 0.18110236220472442
        },
        {
          "duration": 0.2093023255814046,
          "durationTicks": 18,
          "midi": 67,
          "name": "G4",
          "ticks": 17298,
          "time": 201.13953488372093,
          "velocity": 0.18110236220472442
        },
        {
          "duration": 0.023255813953511506,
          "durationTicks": 2,
          "midi": 40,
          "name": "E2",
          "ticks": 17301,
          "time": 201.17441860465115,
          "velocity": 0.2755905511811024
        },
        {
          "duration": 0.04651162790696617,
          "durationTicks": 4,
          "midi": 91,
          "name": "G6",
          "ticks": 17303,
          "time": 201.19767441860466,
          "velocity": 0.1732283464566929
        },
        {
          "duration": 0.023255813953483084,
          "durationTicks": 2,
          "midi": 53,
          "name": "F3",
          "ticks": 17304,
          "time": 201.2093023255814,
          "velocity": 0.23622047244094488
        },
        {
          "duration": 0.034883720930224626,
          "durationTicks": 3,
          "midi": 76,
          "name": "E5",
          "ticks": 17304,
          "time": 201.2093023255814,
          "velocity": 0.2992125984251969
        },
        {
          "duration": 0.15116279069766847,
          "durationTicks": 13,
          "midi": 59,
          "name": "B3",
          "ticks": 17305,
          "time": 201.22093023255815,
          "velocity": 0.14960629921259844
        },
        {
          "duration": 0.06976744186044925,
          "durationTicks": 6,
          "midi": 52,
          "name": "E3",
          "ticks": 17306,
          "time": 201.2325581395349,
          "velocity": 0.2204724409448819
        },
        {
          "duration": 2.697674418604663,
          "durationTicks": 232,
          "midi": 40,
          "name": "E2",
          "ticks": 17307,
          "time": 201.24418604651163,
          "velocity": 0.30708661417322836
        },
        {
          "duration": 0.04651162790696617,
          "durationTicks": 4,
          "midi": 90,
          "name": "F#6",
          "ticks": 17319,
          "time": 201.38372093023256,
          "velocity": 0.08661417322834646
        },
        {
          "duration": 0.83720930232559,
          "durationTicks": 72,
          "midi": 59,
          "name": "B3",
          "ticks": 17341,
          "time": 201.63953488372093,
          "velocity": 0.10236220472440945
        },
        {
          "duration": 1.976744186046517,
          "durationTicks": 170,
          "midi": 64,
          "name": "E4",
          "ticks": 17360,
          "time": 201.86046511627907,
          "velocity": 0.16535433070866143
        }
      ],
      "endOfTrackTicks": 17539
    }
  ]
}