{
  "header": {
    "keySignatures": [],
    "meta": [],
    "name": "",
    "ppq": 43,
    "tempos": [
      {
        "bpm": 120,
        "ticks": 0
      }
    ],
    "timeSignatures": []
  },
  "tracks": [
    {
      "channel": 0,
      "controlChanges": {},
      "pitchBends": [],
      "instrument": {
        "family": "piano",
        "number": 0,
        "name": "acoustic grand piano"
      },
      "name": "",
      "notes": [
        {
          "duration": 0.09302325581395349,
          "durationTicks": 8,
          "midi": 44,
          "name": "G#2",
          "ticks": 0,
          "time": 0,
          "velocity": 0.2440944881889764
        },
        {
          "duration": 0.4186046511627907,
          "durationTicks": 36,
          "midi": 57,
          "name": "A3",
          "ticks": 0,
          "time": 0,
          "velocity": 0.2204724409448819
        },
        {
          "duration": 0.046511627906976744,
          "durationTicks": 4,
          "midi": 45,
          "name": "A2",
          "ticks": 8,
          "time": 0.09302325581395349,
          "velocity": 0.1968503937007874
        },
        {
          "duration": 1.5232558139534884,
          "durationTicks": 131,
          "midi": 45,
          "name": "A2",
          "ticks": 13,
          "time": 0.1511627906976744,
          "velocity": 0.2047244094488189
        },
        {
          "duration": 0.3023255813953489,
          "durationTicks": 26,
          "midi": 69,
          "name": "A4",
          "ticks": 40,
          "time": 0.46511627906976744,
          "velocity": 0.14960629921259844
        },
        {
          "duration": 0.034883720930232565,
          "durationTicks": 3,
          "midi": 56,
          "name": "G#3",
          "ticks": 41,
          "time": 0.47674418604651164,
          "velocity": 0.09448818897637795
        },
        {
          "duration": 0.2441860465116279,
          "durationTicks": 21,
          "midi": 60,
          "name": "C4",
          "ticks": 88,
          "time": 1.0232558139534884,
          "velocity": 0.08661417322834646
        },
        {
          "duration": 0.2093023255813955,
          "durationTicks": 18,
          "midi": 55,
          "name": "G3",
          "ticks": 148,
          "time": 1.7209302325581395,
          "velocity": 0.2125984251968504
        },
        {
          "duration": 0.13953488372093026,
          "durationTicks": 12,
          "midi": 43,
          "name": "G2",
          "ticks": 150,
          "time": 1.744186046511628,
          "velocity": 0.2283464566929134
        },
        {
          "duration": 0.06976744186046502,
          "durationTicks": 6,
          "midi": 43,
          "name": "G2",
          "ticks": 164,
          "time": 1.9069767441860466,
          "velocity": 0.2283464566929134
        },
        {
          "duration": 0.18604651162790686,
          "durationTicks": 16,
          "midi": 43,
          "name": "G2",
          "ticks": 171,
          "time": 1.9883720930232558,
          "velocity": 0.2204724409448819
        },
        {
          "duration": 0.03488372093023262,
          "durationTicks": 3,
          "midi": 42,
          "name": "F#2",
          "ticks": 187,
          "time": 2.1744186046511627,
          "velocity": 0.14960629921259844
        },
        {
          "duration": 0.058139534883721034,
          "durationTicks": 5,
          "midi": 43,
          "name": "G2",
          "ticks": 190,
          "time": 2.2093023255813953,
          "velocity": 0.2125984251968504
        },
        {
          "duration": 0.04651162790697683,
          "durationTicks": 4,
          "midi": 43,
          "name": "G2",
          "ticks": 197,
          "time": 2.2906976744186047,
          "velocity": 0.15748031496062992
        },
        {
          "duration": 0.05813953488372059,
          "durationTicks": 5,
          "midi": 43,
          "name": "G2",
          "ticks": 203,
          "time": 2.36046511627907,
          "velocity": 0.1889763779527559
        },
        {
          "duration": 0.058139534883721034,
          "durationTicks": 5,
          "midi": 43,
          "name": "G2",
          "ticks": 210,
          "time": 2.441860465116279,
          "velocity": 0.1732283464566929
        },
        {
          "duration": 0.058139534883721034,
          "durationTicks": 5,
          "midi": 43,
          "name": "G2",
          "ticks": 217,
          "time": 2.5232558139534884,
          "velocity": 0.1889763779527559
        },
        {
          "duration": 0.04651162790697638,
          "durationTicks": 4,
          "midi": 43,
          "name": "G2",
          "ticks": 224,
          "time": 2.604651162790698,
          "velocity": 0.1732283464566929
        },
        {
          "duration": 0.058139534883721034,
          "durationTicks": 5,
          "midi": 43,
          "name": "G2",
          "ticks": 230,
          "time": 2.6744186046511627,
          "velocity": 0.1732283464566929
        },
        {
          "duration": 0.03488372093023262,
          "durationTicks": 3,
          "midi": 44,
          "name": "G#2",
          "ticks": 238,
          "time": 2.7674418604651163,
          "velocity": 0.14960629921259844
        },
        {
          "duration": 0.05813953488372059,
          "durationTicks": 5,
          "midi": 42,
          "name": "F#2",
          "ticks": 247,
          "time": 2.872093023255814,
          "velocity": 0.1732283464566929
        },
        {
          "duration": 0.03488372093023262,
          "durationTicks": 3,
          "midi": 42,
          "name": "F#2",
          "ticks": 254,
          "time": 2.953488372093023,
          "velocity": 0.13385826771653545
        },
        {
          "duration": 0.04651162790697683,
          "durationTicks": 4,
          "midi": 42,
          "name": "F#2",
          "ticks": 258,
          "time": 3,
          "velocity": 0.14173228346456693
        },
        {
          "duration": 0.03488372093023262,
          "durationTicks": 3,
          "midi": 42,
          "name": "F#2",
          "ticks": 263,
          "time": 3.058139534883721,
          "velocity": 0.14173228346456693
        },
        {
          "duration": 0.19767441860465107,
          "durationTicks": 17,
          "midi": 59,
          "name": "B3",
          "ticks": 275,
          "time": 3.197674418604651,
          "velocity": 0.09448818897637795
        },
        {
          "duration": 0.16279069767441845,
          "durationTicks": 14,
          "midi": 52,
          "name": "E3",
          "ticks": 278,
          "time": 3.2325581395348837,
          "velocity": 0.15748031496062992
        },
        {
          "duration": 0.04651162790697683,
          "durationTicks": 4,
          "midi": 55,
          "name": "G3",
          "ticks": 293,
          "time": 3.4069767441860463,
          "velocity": 0.1889763779527559
        },
        {
          "duration": 0.03488372093023262,
          "durationTicks": 3,
          "midi": 55,
          "name": "G3",
          "ticks": 307,
          "time": 3.5697674418604652,
          "velocity": 0.14173228346456693
        },
        {
          "duration": 0.081395348837209,
          "durationTicks": 7,
          "midi": 59,
          "name": "B3",
          "ticks": 310,
          "time": 3.604651162790698,
          "velocity": 0.10236220472440945
        },
        {
          "duration": 0.03488372093023262,
          "durationTicks": 3,
          "midi": 56,
          "name": "G#3",
          "ticks": 348,
          "time": 4.046511627906977,
          "velocity": 0.28346456692913385
        },
        {
          "duration": 0.41860465116279055,
          "durationTicks": 36,
          "midi": 57,
          "name": "A3",
          "ticks": 351,
          "time": 4.0813953488372094,
          "velocity": 0.23622047244094488
        },
        {
          "duration": 0.6395348837209305,
          "durationTicks": 55,
          "midi": 55,
          "name": "G3",
          "ticks": 392,
          "time": 4.558139534883721,
          "velocity": 0.25984251968503935
        },
        {
          "duration": 0.09302325581395277,
          "durationTicks": 8,
          "midi": 44,
          "name": "G#2",
          "ticks": 448,
          "time": 5.209302325581396,
          "velocity": 0.2440944881889764
        },
        {
          "duration": 0.24418604651162745,
          "durationTicks": 21,
          "midi": 57,
          "name": "A3",
          "ticks": 451,
          "time": 5.244186046511628,
          "velocity": 0.14173228346456693
        },
        {
          "duration": 0.058139534883721034,
          "durationTicks": 5,
          "midi": 45,
          "name": "A2",
          "ticks": 456,
          "time": 5.3023255813953485,
          "velocity": 0.2204724409448819
        },
        {
          "duration": 1.5348837209302326,
          "durationTicks": 132,
          "midi": 45,
          "name": "A2",
          "ticks": 462,
          "time": 5.372093023255814,
          "velocity": 0.2204724409448819
        },
        {
          "duration": 0.06976744186046524,
          "durationTicks": 6,
          "midi": 44,
          "name": "G#2",
          "ticks": 598,
          "time": 6.953488372093023,
          "velocity": 0.23622047244094488
        },
        {
          "duration": 0.1627906976744189,
          "durationTicks": 14,
          "midi": 57,
          "name": "A3",
          "ticks": 600,
          "time": 6.976744186046512,
          "velocity": 0.18110236220472442
        },
        {
          "duration": 0.04651162790697683,
          "durationTicks": 4,
          "midi": 45,
          "name": "A2",
          "ticks": 606,
          "time": 7.046511627906977,
          "velocity": 0.1732283464566929
        },
        {
          "duration": 0.6046511627906979,
          "durationTicks": 52,
          "midi": 45,
          "name": "A2",
          "ticks": 611,
          "time": 7.104651162790698,
          "velocity": 0.2047244094488189
        },
        {
          "duration": 0.023255813953488413,
          "durationTicks": 2,
          "midi": 56,
          "name": "G#3",
          "ticks": 664,
          "time": 7.72093023255814,
          "velocity": 0.2440944881889764
        },
        {
          "duration": 0.1395348837209296,
          "durationTicks": 12,
          "midi": 57,
          "name": "A3",
          "ticks": 666,
          "time": 7.744186046511628,
          "velocity": 0.2047244094488189
        },
        {
          "duration": 0.8604651162790704,
          "durationTicks": 74,
          "midi": 45,
          "name": "A2",
          "ticks": 667,
          "time": 7.755813953488372,
          "velocity": 0.1889763779527559
        },
        {
          "duration": 0.04651162790697683,
          "durationTicks": 4,
          "midi": 56,
          "name": "G#3",
          "ticks": 721,
          "time": 8.383720930232558,
          "velocity": 0.11023622047244094
        },
        {
          "duration": 0.43023255813953476,
          "durationTicks": 37,
          "midi": 55,
          "name": "G3",
          "ticks": 745,
          "time": 8.662790697674419,
          "velocity": 0.1732283464566929
        },
        {
          "duration": 0.04651162790697683,
          "durationTicks": 4,
          "midi": 44,
          "name": "G#2",
          "ticks": 750,
          "time": 8.720930232558139,
          "velocity": 0.2440944881889764
        },
        {
          "duration": 0.03488372093023173,
          "durationTicks": 3,
          "midi": 44,
          "name": "G#2",
          "ticks": 771,
          "time": 8.965116279069768,
          "velocity": 0.18110236220472442
        },
        {
          "duration": 0.03488372093023173,
          "durationTicks": 3,
          "midi": 44,
          "name": "G#2",
          "ticks": 778,
          "time": 9.046511627906977,
          "velocity": 0.2047244094488189
        },
        {
          "duration": 0.058139534883720145,
          "durationTicks": 5,
          "midi": 59,
          "name": "B3",
          "ticks": 786,
          "time": 9.13953488372093,
          "velocity": 0.07874015748031496
        },
        {
          "duration": 0.04651162790697683,
          "durationTicks": 4,
          "midi": 44,
          "name": "G#2",
          "ticks": 791,
          "time": 9.19767441860465,
          "velocity": 0.2204724409448819
        },
        {
          "duration": 0.03488372093023173,
          "durationTicks": 3,
          "midi": 44,
          "name": "G#2",
          "ticks": 798,
          "time": 9.279069767441861,
          "velocity": 0.1732283464566929
        },
        {
          "duration": 0.04651162790697683,
          "durationTicks": 4,
          "midi": 44,
          "name": "G#2",
          "ticks": 804,
          "time": 9.348837209302326,
          "velocity": 0.1968503937007874
        },
        {
          "duration": 0.03488372093023351,
          "durationTicks": 3,
          "midi": 44,
          "name": "G#2",
          "ticks": 811,
          "time": 9.430232558139535,
          "velocity": 0.1732283464566929
        },
        {
          "duration": 0.03488372093023173,
          "durationTicks": 3,
          "midi": 44,
          "name": "G#2",
          "ticks": 817,
          "time": 9.5,
          "velocity": 0.1732283464566929
        },
        {
          "duration": 0.05813953488372192,
          "durationTicks": 5,
          "midi": 45,
          "name": "A2",
          "ticks": 820,
          "time": 9.534883720930232,
          "velocity": 0.12598425196850394
        },
        {
          "duration": 0.1860465116279073,
          "durationTicks": 16,
          "midi": 54,
          "name": "F#3",
          "ticks": 826,
          "time": 9.604651162790697,
          "velocity": 0.09448818897637795
        },
        {
          "duration": 0.06976744186046524,
          "durationTicks": 6,
          "midi": 42,
          "name": "F#2",
          "ticks": 827,
          "time": 9.616279069767442,
          "velocity": 0.16535433070866143
        },
        {
          "duration": 0.03488372093023173,
          "durationTicks": 3,
          "midi": 43,
          "name": "G2",
          "ticks": 835,
          "time": 9.709302325581396,
          "velocity": 0.18110236220472442
        },
        {
          "duration": 0.03488372093023173,
          "durationTicks": 3,
          "midi": 42,
          "name": "F#2",
          "ticks": 841,
          "time": 9.779069767441861,
          "velocity": 0.13385826771653545
        },
        {
          "duration": 0.23255813953488236,
          "durationTicks": 20,
          "midi": 52,
          "name": "E3",
          "ticks": 849,
          "time": 9.872093023255815,
          "velocity": 0.1732283464566929
        },
        {
          "duration": 0.16279069767441712,
          "durationTicks": 14,
          "midi": 59,
          "name": "B3",
          "ticks": 849,
          "time": 9.872093023255815,
          "velocity": 0.08661417322834646
        },
        {
          "duration": 0.04651162790697683,
          "durationTicks": 4,
          "midi": 55,
          "name": "G3",
          "ticks": 870,
          "time": 10.116279069767442,
          "velocity": 0.2047244094488189
        },
        {
          "duration": 0.04651162790697683,
          "durationTicks": 4,
          "midi": 52,
          "name": "E3",
          "ticks": 911,
          "time": 10.593023255813954,
          "velocity": 0.11811023622047244
        },
        {
          "duration": 0.03488372093023351,
          "durationTicks": 3,
          "midi": 56,
          "name": "G#3",
          "ticks": 912,
          "time": 10.604651162790697,
          "velocity": 0.09448818897637795
        },
        {
          "duration": 0.04651162790697683,
          "durationTicks": 4,
          "midi": 52,
          "name": "E3",
          "ticks": 916,
          "time": 10.651162790697674,
          "velocity": 0.18110236220472442
        },
        {
          "duration": 0.023255813953488413,
          "durationTicks": 2,
          "midi": 56,
          "name": "G#3",
          "ticks": 919,
          "time": 10.686046511627907,
          "velocity": 0.25984251968503935
        },
        {
          "duration": 0.23255813953488413,
          "durationTicks": 20,
          "midi": 57,
          "name": "A3",
          "ticks": 921,
          "time": 10.709302325581396,
          "velocity": 0.2440944881889764
        },
        {
          "duration": 0.15116279069767558,
          "durationTicks": 13,
          "midi": 55,
          "name": "G3",
          "ticks": 947,
          "time": 11.011627906976743,
          "velocity": 0.2204724409448819
        },
        {
          "duration": 0.1627906976744189,
          "durationTicks": 14,
          "midi": 55,
          "name": "G3",
          "ticks": 963,
          "time": 11.19767441860465,
          "velocity": 0.2677165354330709
        },
        {
          "duration": 0.03488372093023351,
          "durationTicks": 3,
          "midi": 56,
          "name": "G#3",
          "ticks": 977,
          "time": 11.36046511627907,
          "velocity": 0.2204724409448819
        },
        {
          "duration": 0.25581395348837255,
          "durationTicks": 22,
          "midi": 69,
          "name": "A4",
          "ticks": 977,
          "time": 11.36046511627907,
          "velocity": 0.10236220472440945
        },
        {
          "duration": 0.19767441860465063,
          "durationTicks": 17,
          "midi": 57,
          "name": "A3",
          "ticks": 980,
          "time": 11.395348837209303,
          "velocity": 0.11811023622047244
        },
        {
          "duration": 0.08139534883721034,
          "durationTicks": 7,
          "midi": 44,
          "name": "G#2",
          "ticks": 1051,
          "time": 12.220930232558139,
          "velocity": 0.16535433070866143
        },
        {
          "duration": 0.03488372093023173,
          "durationTicks": 3,
          "midi": 45,
          "name": "A2",
          "ticks": 1058,
          "time": 12.30232558139535,
          "velocity": 0.10236220472440945
        },
        {
          "duration": 0.058139534883720145,
          "durationTicks": 5,
          "midi": 45,
          "name": "A2",
          "ticks": 1064,
          "time": 12.372093023255815,
          "velocity": 0.16535433070866143
        },
        {
          "duration": 0.03488372093023173,
          "durationTicks": 3,
          "midi": 45,
          "name": "A2",
          "ticks": 1070,
          "time": 12.44186046511628,
          "velocity": 0.10236220472440945
        },
        {
          "duration": 0.06976744186046524,
          "durationTicks": 6,
          "midi": 45,
          "name": "A2",
          "ticks": 1077,
          "time": 12.523255813953488,
          "velocity": 0.11811023622047244
        },
        {
          "duration": 0.1860465116279073,
          "durationTicks": 16,
          "midi": 57,
          "name": "A3",
          "ticks": 1084,
          "time": 12.604651162790697,
          "velocity": 0.2440944881889764
        },
        {
          "duration": 0.20930232558139394,
          "durationTicks": 18,
          "midi": 55,
          "name": "G3",
          "ticks": 1189,
          "time": 13.825581395348838,
          "velocity": 0.2204724409448819
        },
        {
          "duration": 0.11627906976744207,
          "durationTicks": 10,
          "midi": 43,
          "name": "G2",
          "ticks": 1191,
          "time": 13.848837209302326,
          "velocity": 0.2047244094488189
        },
        {
          "duration": 0.12790697674418539,
          "durationTicks": 11,
          "midi": 43,
          "name": "G2",
          "ticks": 1203,
          "time": 13.988372093023257,
          "velocity": 0.18110236220472442
        },
        {
          "duration": 0.3023255813953494,
          "durationTicks": 26,
          "midi": 69,
          "name": "A4",
          "ticks": 1206,
          "time": 14.023255813953488,
          "velocity": 0.13385826771653545
        },
        {
          "duration": 0.03488372093023173,
          "durationTicks": 3,
          "midi": 44,
          "name": "G#2",
          "ticks": 1214,
          "time": 14.116279069767442,
          "velocity": 0.07874015748031496
        },
        {
          "duration": 0.08139534883720856,
          "durationTicks": 7,
          "midi": 44,
          "name": "G#2",
          "ticks": 1220,
          "time": 14.186046511627907,
          "velocity": 0.14173228346456693
        },
        {
          "duration": 0.1627906976744189,
          "durationTicks": 14,
          "midi": 55,
          "name": "G3",
          "ticks": 1221,
          "time": 14.19767441860465,
          "velocity": 0.15748031496062992
        },
        {
          "duration": 0.06976744186046524,
          "durationTicks": 6,
          "midi": 44,
          "name": "G#2",
          "ticks": 1237,
          "time": 14.383720930232558,
          "velocity": 0.2440944881889764
        },
        {
          "duration": 0.25581395348837255,
          "durationTicks": 22,
          "midi": 57,
          "name": "A3",
          "ticks": 1237,
          "time": 14.383720930232558,
          "velocity": 0.1968503937007874
        },
        {
          "duration": 0.058139534883720145,
          "durationTicks": 5,
          "midi": 45,
          "name": "A2",
          "ticks": 1243,
          "time": 14.453488372093023,
          "velocity": 0.1968503937007874
        },
        {
          "duration": 0.31395348837209447,
          "durationTicks": 27,
          "midi": 45,
          "name": "A2",
          "ticks": 1250,
          "time": 14.534883720930232,
          "velocity": 0.2440944881889764
        },
        {
          "duration": 0.12790697674418716,
          "durationTicks": 11,
          "midi": 69,
          "name": "A4",
          "ticks": 1266,
          "time": 14.720930232558139,
          "velocity": 0.12598425196850394
        },
        {
          "duration": 0.04651162790697683,
          "durationTicks": 4,
          "midi": 44,
          "name": "G#2",
          "ticks": 1277,
          "time": 14.848837209302326,
          "velocity": 0.11023622047244094
        },
        {
          "duration": 0.41860465116278966,
          "durationTicks": 36,
          "midi": 47,
          "name": "B2",
          "ticks": 1285,
          "time": 14.94186046511628,
          "velocity": 0.13385826771653545
        },
        {
          "duration": 0.4418604651162781,
          "durationTicks": 38,
          "midi": 55,
          "name": "G3",
          "ticks": 1300,
          "time": 15.116279069767442,
          "velocity": 0.13385826771653545
        },
        {
          "duration": 0.03488372093023351,
          "durationTicks": 3,
          "midi": 47,
          "name": "B2",
          "ticks": 1327,
          "time": 15.430232558139535,
          "velocity": 0.10236220472440945
        },
        {
          "duration": 0.13953488372093048,
          "durationTicks": 12,
          "midi": 47,
          "name": "B2",
          "ticks": 1331,
          "time": 15.476744186046512,
          "velocity": 0.11811023622047244
        },
        {
          "duration": 0.10465116279069697,
          "durationTicks": 9,
          "midi": 60,
          "name": "C4",
          "ticks": 1353,
          "time": 15.732558139534884,
          "velocity": 0.11811023622047244
        },
        {
          "duration": 0.4534883720930214,
          "durationTicks": 39,
          "midi": 48,
          "name": "C3",
          "ticks": 1367,
          "time": 15.895348837209303,
          "velocity": 0.14960629921259844
        },
        {
          "duration": 0.3720930232558146,
          "durationTicks": 32,
          "midi": 55,
          "name": "G3",
          "ticks": 1387,
          "time": 16.127906976744185,
          "velocity": 0.15748031496062992
        },
        {
          "duration": 0.06976744186046702,
          "durationTicks": 6,
          "midi": 48,
          "name": "C3",
          "ticks": 1407,
          "time": 16.36046511627907,
          "velocity": 0.14960629921259844
        },
        {
          "duration": 0.03488372093023173,
          "durationTicks": 3,
          "midi": 47,
          "name": "B2",
          "ticks": 1413,
          "time": 16.430232558139537,
          "velocity": 0.12598425196850394
        },
        {
          "duration": 0.23255813953488413,
          "durationTicks": 20,
          "midi": 69,
          "name": "A4",
          "ticks": 1428,
          "time": 16.6046511627907,
          "velocity": 0.10236220472440945
        },
        {
          "duration": 0.03488372093023173,
          "durationTicks": 3,
          "midi": 60,
          "name": "C4",
          "ticks": 1432,
          "time": 16.651162790697676,
          "velocity": 0.09448818897637795
        },
        {
          "duration": 0.24418604651162568,
          "durationTicks": 21,
          "midi": 60,
          "name": "C4",
          "ticks": 1436,
          "time": 16.697674418604652,
          "velocity": 0.11023622047244094
        },
        {
          "duration": 0.13953488372093048,
          "durationTicks": 12,
          "midi": 86,
          "name": "D6",
          "ticks": 1477,
          "time": 17.174418604651162,
          "velocity": 0.07874015748031496
        },
        {
          "duration": 0.5581395348837184,
          "durationTicks": 48,
          "midi": 52,
          "name": "E3",
          "ticks": 1530,
          "time": 17.790697674418606,
          "velocity": 0.15748031496062992
        },
        {
          "duration": 0.05813953488371837,
          "durationTicks": 5,
          "midi": 44,
          "name": "G#2",
          "ticks": 1565,
          "time": 18.197674418604652,
          "velocity": 0.07086614173228346
        },
        {
          "duration": 0.33720930232557933,
          "durationTicks": 29,
          "midi": 60,
          "name": "C4",
          "ticks": 1565,
          "time": 18.197674418604652,
          "velocity": 0.11023622047244094
        },
        {
          "duration": 0.3255813953488378,
          "durationTicks": 28,
          "midi": 59,
          "name": "B3",
          "ticks": 1621,
          "time": 18.848837209302324,
          "velocity": 0.15748031496062992
        },
        {
          "duration": 0.8255813953488378,
          "durationTicks": 71,
          "midi": 52,
          "name": "E3",
          "ticks": 1646,
          "time": 19.13953488372093,
          "velocity": 0.09448818897637795
        },
        {
          "duration": 0.03488372093023173,
          "durationTicks": 3,
          "midi": 56,
          "name": "G#3",
          "ticks": 1743,
          "time": 20.267441860465116,
          "velocity": 0.1889763779527559
        },
        {
          "duration": 0.04651162790697683,
          "durationTicks": 4,
          "midi": 44,
          "name": "G#2",
          "ticks": 1744,
          "time": 20.27906976744186,
          "velocity": 0.2283464566929134
        },
        {
          "duration": 0.13953488372093048,
          "durationTicks": 12,
          "midi": 57,
          "name": "A3",
          "ticks": 1746,
          "time": 20.302325581395348,
          "velocity": 0.14960629921259844
        },
        {
          "duration": 0.08139534883720856,
          "durationTicks": 7,
          "midi": 45,
          "name": "A2",
          "ticks": 1748,
          "time": 20.325581395348838,
          "velocity": 0.2204724409448819
        },
        {
          "duration": 0.5232558139534866,
          "durationTicks": 45,
          "midi": 45,
          "name": "A2",
          "ticks": 1756,
          "time": 20.41860465116279,
          "velocity": 0.2283464566929134
        },
        {
          "duration": 0.05813953488372192,
          "durationTicks": 5,
          "midi": 56,
          "name": "G#3",
          "ticks": 1758,
          "time": 20.441860465116278,
          "velocity": 0.11811023622047244
        },
        {
          "duration": 0.2906976744186025,
          "durationTicks": 25,
          "midi": 69,
          "name": "A4",
          "ticks": 1760,
          "time": 20.46511627906977,
          "velocity": 0.11023622047244094
        },
        {
          "duration": 0.03488372093023173,
          "durationTicks": 3,
          "midi": 56,
          "name": "G#3",
          "ticks": 1791,
          "time": 20.825581395348838,
          "velocity": 0.2125984251968504
        },
        {
          "duration": 0.22093023255813904,
          "durationTicks": 19,
          "midi": 69,
          "name": "A4",
          "ticks": 1792,
          "time": 20.837209302325583,
          "velocity": 0.08661417322834646
        },
        {
          "duration": 0.13953488372093048,
          "durationTicks": 12,
          "midi": 57,
          "name": "A3",
          "ticks": 1794,
          "time": 20.86046511627907,
          "velocity": 0.2283464566929134
        },
        {
          "duration": 0.04651162790697683,
          "durationTicks": 4,
          "midi": 44,
          "name": "G#2",
          "ticks": 1801,
          "time": 20.941860465116278,
          "velocity": 0.12598425196850394
        },
        {
          "duration": 0.023255813953486637,
          "durationTicks": 2,
          "midi": 56,
          "name": "G#3",
          "ticks": 1806,
          "time": 21,
          "velocity": 0.23622047244094488
        },
        {
          "duration": 0.30232558139535115,
          "durationTicks": 26,
          "midi": 57,
          "name": "A3",
          "ticks": 1808,
          "time": 21.023255813953487,
          "velocity": 0.15748031496062992
        },
        {
          "duration": 0.04651162790697683,
          "durationTicks": 4,
          "midi": 44,
          "name": "G#2",
          "ticks": 1809,
          "time": 21.03488372093023,
          "velocity": 0.25196850393700787
        },
        {
          "duration": 0.6279069767441854,
          "durationTicks": 54,
          "midi": 45,
          "name": "A2",
          "ticks": 1813,
          "time": 21.08139534883721,
          "velocity": 0.23622047244094488
        },
        {
          "duration": 0.03488372093023173,
          "durationTicks": 3,
          "midi": 42,
          "name": "F#2",
          "ticks": 1869,
          "time": 21.732558139534884,
          "velocity": 0.15748031496062992
        },
        {
          "duration": 0.04651162790697683,
          "durationTicks": 4,
          "midi": 55,
          "name": "G3",
          "ticks": 1869,
          "time": 21.732558139534884,
          "velocity": 0.11811023622047244
        },
        {
          "duration": 0.02325581395349019,
          "durationTicks": 2,
          "midi": 43,
          "name": "G2",
          "ticks": 1872,
          "time": 21.767441860465116,
          "velocity": 0.2440944881889764
        },
        {
          "duration": 0.03488372093023173,
          "durationTicks": 3,
          "midi": 44,
          "name": "G#2",
          "ticks": 1874,
          "time": 21.790697674418606,
          "velocity": 0.25196850393700787
        },
        {
          "duration": 0.04651162790697683,
          "durationTicks": 4,
          "midi": 43,
          "name": "G2",
          "ticks": 1880,
          "time": 21.86046511627907,
          "velocity": 0.18110236220472442
        },
        {
          "duration": 0.03488372093023173,
          "durationTicks": 3,
          "midi": 43,
          "name": "G2",
          "ticks": 1886,
          "time": 21.930232558139537,
          "velocity": 0.2125984251968504
        },
        {
          "duration": 0.05813953488371837,
          "durationTicks": 5,
          "midi": 43,
          "name": "G2",
          "ticks": 1893,
          "time": 22.011627906976745,
          "velocity": 0.1889763779527559
        },
        {
          "duration": 0.05813953488372192,
          "durationTicks": 5,
          "midi": 43,
          "name": "G2",
          "ticks": 1899,
          "time": 22.08139534883721,
          "velocity": 0.14173228346456693
        },
        {
          "duration": 0.1860465116279073,
          "durationTicks": 16,
          "midi": 55,
          "name": "G3",
          "ticks": 1902,
          "time": 22.11627906976744,
          "velocity": 0.14960629921259844
        },
        {
          "duration": 0.04651162790697683,
          "durationTicks": 4,
          "midi": 44,
          "name": "G#2",
          "ticks": 1907,
          "time": 22.174418604651162,
          "velocity": 0.1968503937007874
        },
        {
          "duration": 0.04651162790697683,
          "durationTicks": 4,
          "midi": 54,
          "name": "F#3",
          "ticks": 1922,
          "time": 22.348837209302324,
          "velocity": 0.11023622047244094
        },
        {
          "duration": 0.03488372093023173,
          "durationTicks": 3,
          "midi": 42,
          "name": "F#2",
          "ticks": 1928,
          "time": 22.41860465116279,
          "velocity": 0.11023622047244094
        },
        {
          "duration": 0.034883720930235285,
          "durationTicks": 3,
          "midi": 55,
          "name": "G3",
          "ticks": 1930,
          "time": 22.441860465116278,
          "velocity": 0.12598425196850394
        },
        {
          "duration": 0.03488372093023173,
          "durationTicks": 3,
          "midi": 42,
          "name": "F#2",
          "ticks": 1938,
          "time": 22.53488372093023,
          "velocity": 0.14173228346456693
        },
        {
          "duration": 0.03488372093023173,
          "durationTicks": 3,
          "midi": 43,
          "name": "G2",
          "ticks": 1947,
          "time": 22.63953488372093,
          "velocity": 0.14960629921259844
        },
        {
          "duration": 0.03488372093023173,
          "durationTicks": 3,
          "midi": 69,
          "name": "A4",
          "ticks": 1960,
          "time": 22.790697674418606,
          "velocity": 0.12598425196850394
        },
        {
          "duration": 0.03488372093023173,
          "durationTicks": 3,
          "midi": 55,
          "name": "G3",
          "ticks": 1962,
          "time": 22.813953488372093,
          "velocity": 0.11811023622047244
        },
        {
          "duration": 0.29069767441860606,
          "durationTicks": 25,
          "midi": 59,
          "name": "B3",
          "ticks": 1962,
          "time": 22.813953488372093,
          "velocity": 0.11811023622047244
        },
        {
          "duration": 0.13953488372093048,
          "durationTicks": 12,
          "midi": 69,
          "name": "A4",
          "ticks": 1978,
          "time": 23,
          "velocity": 0.16535433070866143
        },
        {
          "duration": 0.13953488372093048,
          "durationTicks": 12,
          "midi": 59,
          "name": "B3",
          "ticks": 1997,
          "time": 23.22093023255814,
          "velocity": 0.07874015748031496
        },
        {
          "duration": 0.08139534883721211,
          "durationTicks": 7,
          "midi": 57,
          "name": "A3",
          "ticks": 2012,
          "time": 23.3953488372093,
          "velocity": 0.2047244094488189
        },
        {
          "duration": 0.05813953488372192,
          "durationTicks": 5,
          "midi": 55,
          "name": "G3",
          "ticks": 2025,
          "time": 23.546511627906977,
          "velocity": 0.23622047244094488
        },
        {
          "duration": 0.03488372093023173,
          "durationTicks": 3,
          "midi": 55,
          "name": "G3",
          "ticks": 2034,
          "time": 23.651162790697676,
          "velocity": 0.14960629921259844
        },
        {
          "duration": 0.3023255813953476,
          "durationTicks": 26,
          "midi": 69,
          "name": "A4",
          "ticks": 2040,
          "time": 23.72093023255814,
          "velocity": 0.16535433070866143
        },
        {
          "duration": 0.023255813953486637,
          "durationTicks": 2,
          "midi": 56,
          "name": "G#3",
          "ticks": 2041,
          "time": 23.732558139534884,
          "velocity": 0.2440944881889764
        },
        {
          "duration": 0.16279069767442067,
          "durationTicks": 14,
          "midi": 57,
          "name": "A3",
          "ticks": 2043,
          "time": 23.75581395348837,
          "velocity": 0.2283464566929134
        },
        {
          "duration": 0.2906976744186025,
          "durationTicks": 25,
          "midi": 52,
          "name": "E3",
          "ticks": 2057,
          "time": 23.91860465116279,
          "velocity": 0.15748031496062992
        },
        {
          "duration": 0.04651162790697683,
          "durationTicks": 4,
          "midi": 59,
          "name": "B3",
          "ticks": 2076,
          "time": 24.13953488372093,
          "velocity": 0.10236220472440945
        },
        {
          "duration": 0.12790697674418539,
          "durationTicks": 11,
          "midi": 59,
          "name": "B3",
          "ticks": 2092,
          "time": 24.325581395348838,
          "velocity": 0.11811023622047244
        },
        {
          "duration": 0.023255813953486637,
          "durationTicks": 2,
          "midi": 56,
          "name": "G#3",
          "ticks": 2104,
          "time": 24.46511627906977,
          "velocity": 0.25984251968503935
        },
        {
          "duration": 0.15116279069767202,
          "durationTicks": 13,
          "midi": 69,
          "name": "A4",
          "ticks": 2105,
          "time": 24.476744186046513,
          "velocity": 0.10236220472440945
        },
        {
          "duration": 0.44186046511628163,
          "durationTicks": 38,
          "midi": 57,
          "name": "A3",
          "ticks": 2106,
          "time": 24.488372093023255,
          "velocity": 0.23622047244094488
        },
        {
          "duration": 0.05813953488371837,
          "durationTicks": 5,
          "midi": 44,
          "name": "G#2",
          "ticks": 2120,
          "time": 24.651162790697676,
          "velocity": 0.2047244094488189
        },
        {
          "duration": 0.03488372093023173,
          "durationTicks": 3,
          "midi": 45,
          "name": "A2",
          "ticks": 2140,
          "time": 24.88372093023256,
          "velocity": 0.07874015748031496
        },
        {
          "duration": 0.04651162790697683,
          "durationTicks": 4,
          "midi": 45,
          "name": "A2",
          "ticks": 2144,
          "time": 24.930232558139537,
          "velocity": 0.13385826771653545
        },
        {
          "duration": 0.03488372093023173,
          "durationTicks": 3,
          "midi": 56,
          "name": "G#3",
          "ticks": 2150,
          "time": 25,
          "velocity": 0.23622047244094488
        },
        {
          "duration": 1.5348837209302317,
          "durationTicks": 132,
          "midi": 69,
          "name": "A4",
          "ticks": 2151,
          "time": 25.011627906976745,
          "velocity": 0.2204724409448819
        },
        {
          "duration": 0.4534883720930232,
          "durationTicks": 39,
          "midi": 57,
          "name": "A3",
          "ticks": 2153,
          "time": 25.03488372093023,
          "velocity": 0.2125984251968504
        },
        {
          "duration": 0.05813953488371837,
          "durationTicks": 5,
          "midi": 44,
          "name": "G#2",
          "ticks": 2167,
          "time": 25.197674418604652,
          "velocity": 0.1732283464566929
        },
        {
          "duration": 0.04651162790697683,
          "durationTicks": 4,
          "midi": 45,
          "name": "A2",
          "ticks": 2174,
          "time": 25.27906976744186,
          "velocity": 0.14960629921259844
        },
        {
          "duration": 0.2093023255813975,
          "durationTicks": 18,
          "midi": 45,
          "name": "A2",
          "ticks": 2180,
          "time": 25.348837209302324,
          "velocity": 0.15748031496062992
        },
        {
          "duration": 0.10465116279069875,
          "durationTicks": 9,
          "midi": 45,
          "name": "A2",
          "ticks": 2199,
          "time": 25.569767441860463,
          "velocity": 0.11023622047244094
        },
        {
          "duration": 0.3139534883720927,
          "durationTicks": 27,
          "midi": 57,
          "name": "A3",
          "ticks": 2208,
          "time": 25.674418604651162,
          "velocity": 0.2125984251968504
        },
        {
          "duration": 0.12790697674418539,
          "durationTicks": 11,
          "midi": 45,
          "name": "A2",
          "ticks": 2216,
          "time": 25.767441860465116,
          "velocity": 0.09448818897637795
        },
        {
          "duration": 0.04651162790697683,
          "durationTicks": 4,
          "midi": 45,
          "name": "A2",
          "ticks": 2232,
          "time": 25.953488372093023,
          "velocity": 0.10236220472440945
        },
        {
          "duration": 0.15116279069767558,
          "durationTicks": 13,
          "midi": 44,
          "name": "G#2",
          "ticks": 2236,
          "time": 26,
          "velocity": 0.2283464566929134
        },
        {
          "duration": 0.04651162790697683,
          "durationTicks": 4,
          "midi": 45,
          "name": "A2",
          "ticks": 2249,
          "time": 26.151162790697676,
          "velocity": 0.1889763779527559
        },
        {
          "duration": 0.5232558139534902,
          "durationTicks": 45,
          "midi": 45,
          "name": "A2",
          "ticks": 2254,
          "time": 26.209302325581394,
          "velocity": 0.2125984251968504
        },
        {
          "duration": 0.1744186046511622,
          "durationTicks": 15,
          "midi": 69,
          "name": "A4",
          "ticks": 2288,
          "time": 26.6046511627907,
          "velocity": 0.1732283464566929
        },
        {
          "duration": 0.034883720930235285,
          "durationTicks": 3,
          "midi": 56,
          "name": "G#3",
          "ticks": 2289,
          "time": 26.61627906976744,
          "velocity": 0.09448818897637795
        },
        {
          "duration": 0.15116279069767558,
          "durationTicks": 13,
          "midi": 44,
          "name": "G#2",
          "ticks": 2299,
          "time": 26.732558139534884,
          "velocity": 0.11023622047244094
        },
        {
          "duration": 0.3720930232558146,
          "durationTicks": 32,
          "midi": 57,
          "name": "A3",
          "ticks": 2299,
          "time": 26.732558139534884,
          "velocity": 0.25196850393700787
        },
        {
          "duration": 0.05813953488371837,
          "durationTicks": 5,
          "midi": 44,
          "name": "G#2",
          "ticks": 2320,
          "time": 26.976744186046513,
          "velocity": 0.10236220472440945
        },
        {
          "duration": 0.04651162790697683,
          "durationTicks": 4,
          "midi": 44,
          "name": "G#2",
          "ticks": 2351,
          "time": 27.337209302325583,
          "velocity": 0.08661417322834646
        },
        {
          "duration": 0.1744186046511622,
          "durationTicks": 15,
          "midi": 55,
          "name": "G3",
          "ticks": 2365,
          "time": 27.5,
          "velocity": 0.18110236220472442
        },
        {
          "duration": 0.06976744186046346,
          "durationTicks": 6,
          "midi": 43,
          "name": "G2",
          "ticks": 2370,
          "time": 27.558139534883722,
          "velocity": 0.1968503937007874
        },
        {
          "duration": 0.04651162790697683,
          "durationTicks": 4,
          "midi": 43,
          "name": "G2",
          "ticks": 2378,
          "time": 27.651162790697676,
          "velocity": 0.1889763779527559
        },
        {
          "duration": 0.05813953488372192,
          "durationTicks": 5,
          "midi": 43,
          "name": "G2",
          "ticks": 2384,
          "time": 27.72093023255814,
          "velocity": 0.2125984251968504
        },
        {
          "duration": 0.034883720930235285,
          "durationTicks": 3,
          "midi": 43,
          "name": "G2",
          "ticks": 2391,
          "time": 27.802325581395348,
          "velocity": 0.1732283464566929
        },
        {
          "duration": 0.06976744186046702,
          "durationTicks": 6,
          "midi": 43,
          "name": "G2",
          "ticks": 2400,
          "time": 27.906976744186046,
          "velocity": 0.1968503937007874
        },
        {
          "duration": 0.03488372093023173,
          "durationTicks": 3,
          "midi": 44,
          "name": "G#2",
          "ticks": 2406,
          "time": 27.976744186046513,
          "velocity": 0.1889763779527559
        },
        {
          "duration": 0.03488372093023173,
          "durationTicks": 3,
          "midi": 55,
          "name": "G3",
          "ticks": 2409,
          "time": 28.011627906976745,
          "velocity": 0.16535433070866143
        },
        {
          "duration": 0.04651162790697683,
          "durationTicks": 4,
          "midi": 54,
          "name": "F#3",
          "ticks": 2412,
          "time": 28.046511627906977,
          "velocity": 0.2047244094488189
        },
        {
          "duration": 0.09302325581395365,
          "durationTicks": 8,
          "midi": 42,
          "name": "F#2",
          "ticks": 2413,
          "time": 28.058139534883722,
          "velocity": 0.14960629921259844
        },
        {
          "duration": 0.04651162790697683,
          "durationTicks": 4,
          "midi": 42,
          "name": "F#2",
          "ticks": 2422,
          "time": 28.162790697674417,
          "velocity": 0.14960629921259844
        },
        {
          "duration": 0.03488372093023173,
          "durationTicks": 3,
          "midi": 42,
          "name": "F#2",
          "ticks": 2427,
          "time": 28.22093023255814,
          "velocity": 0.12598425196850394
        },
        {
          "duration": 0.4767441860465098,
          "durationTicks": 41,
          "midi": 69,
          "name": "A4",
          "ticks": 2428,
          "time": 28.232558139534884,
          "velocity": 0.11811023622047244
        },
        {
          "duration": 0.03488372093023173,
          "durationTicks": 3,
          "midi": 42,
          "name": "F#2",
          "ticks": 2432,
          "time": 28.27906976744186,
          "velocity": 0.14173228346456693
        },
        {
          "duration": 0.03488372093023173,
          "durationTicks": 3,
          "midi": 42,
          "name": "F#2",
          "ticks": 2437,
          "time": 28.337209302325583,
          "velocity": 0.14960629921259844
        },
        {
          "duration": 0.034883720930235285,
          "durationTicks": 3,
          "midi": 42,
          "name": "F#2",
          "ticks": 2442,
          "time": 28.3953488372093,
          "velocity": 0.11023622047244094
        },
        {
          "duration": 0.04651162790697683,
          "durationTicks": 4,
          "midi": 42,
          "name": "F#2",
          "ticks": 2446,
          "time": 28.441860465116278,
          "velocity": 0.13385826771653545
        },
        {
          "duration": 0.03488372093023173,
          "durationTicks": 3,
          "midi": 54,
          "name": "F#3",
          "ticks": 2448,
          "time": 28.46511627906977,
          "velocity": 0.14173228346456693
        },
        {
          "duration": 0.06976744186046702,
          "durationTicks": 6,
          "midi": 55,
          "name": "G3",
          "ticks": 2453,
          "time": 28.523255813953487,
          "velocity": 0.10236220472440945
        },
        {
          "duration": 0.3023255813953476,
          "durationTicks": 26,
          "midi": 59,
          "name": "B3",
          "ticks": 2459,
          "time": 28.593023255813954,
          "velocity": 0.11811023622047244
        },
        {
          "duration": 0.03488372093023173,
          "durationTicks": 3,
          "midi": 44,
          "name": "G#2",
          "ticks": 2475,
          "time": 28.77906976744186,
          "velocity": 0.13385826771653545
        },
        {
          "duration": 0.16279069767441712,
          "durationTicks": 14,
          "midi": 52,
          "name": "E3",
          "ticks": 2492,
          "time": 28.976744186046513,
          "velocity": 0.13385826771653545
        },
        {
          "duration": 0.04651162790697683,
          "durationTicks": 4,
          "midi": 44,
          "name": "G#2",
          "ticks": 2505,
          "time": 29.127906976744185,
          "velocity": 0.15748031496062992
        },
        {
          "duration": 0.1046511627906952,
          "durationTicks": 9,
          "midi": 69,
          "name": "A4",
          "ticks": 2507,
          "time": 29.151162790697676,
          "velocity": 0.11811023622047244
        },
        {
          "duration": 0.09302325581395365,
          "durationTicks": 8,
          "midi": 57,
          "name": "A3",
          "ticks": 2508,
          "time": 29.162790697674417,
          "velocity": 0.2047244094488189
        },
        {
          "duration": 0.12790697674418539,
          "durationTicks": 11,
          "midi": 55,
          "name": "G3",
          "ticks": 2521,
          "time": 29.313953488372093,
          "velocity": 0.2047244094488189
        },
        {
          "duration": 0.03488372093023173,
          "durationTicks": 3,
          "midi": 56,
          "name": "G#3",
          "ticks": 2536,
          "time": 29.488372093023255,
          "velocity": 0.2047244094488189
        },
        {
          "duration": 0.3372093023255829,
          "durationTicks": 29,
          "midi": 69,
          "name": "A4",
          "ticks": 2536,
          "time": 29.488372093023255,
          "velocity": 0.15748031496062992
        },
        {
          "duration": 0.27906976744186096,
          "durationTicks": 24,
          "midi": 57,
          "name": "A3",
          "ticks": 2539,
          "time": 29.523255813953487,
          "velocity": 0.1889763779527559
        },
        {
          "duration": 0.22093023255813904,
          "durationTicks": 19,
          "midi": 52,
          "name": "E3",
          "ticks": 2556,
          "time": 29.72093023255814,
          "velocity": 0.11811023622047244
        },
        {
          "duration": 0.03488372093023173,
          "durationTicks": 3,
          "midi": 52,
          "name": "E3",
          "ticks": 2576,
          "time": 29.953488372093023,
          "velocity": 0.13385826771653545
        },
        {
          "duration": 0.19767441860464885,
          "durationTicks": 17,
          "midi": 59,
          "name": "B3",
          "ticks": 2581,
          "time": 30.011627906976745,
          "velocity": 0.16535433070866143
        },
        {
          "duration": 0.02325581395349019,
          "durationTicks": 2,
          "midi": 56,
          "name": "G#3",
          "ticks": 2599,
          "time": 30.22093023255814,
          "velocity": 0.2283464566929134
        },
        {
          "duration": 0.1860465116279073,
          "durationTicks": 16,
          "midi": 69,
          "name": "A4",
          "ticks": 2599,
          "time": 30.22093023255814,
          "velocity": 0.12598425196850394
        },
        {
          "duration": 0.03488372093023173,
          "durationTicks": 3,
          "midi": 57,
          "name": "A3",
          "ticks": 2601,
          "time": 30.24418604651163,
          "velocity": 0.1889763779527559
        },
        {
          "duration": 0.26744186046511587,
          "durationTicks": 23,
          "midi": 57,
          "name": "A3",
          "ticks": 2610,
          "time": 30.348837209302324,
          "velocity": 0.2204724409448819
        },
        {
          "duration": 0.04651162790697683,
          "durationTicks": 4,
          "midi": 44,
          "name": "G#2",
          "ticks": 2615,
          "time": 30.406976744186046,
          "velocity": 0.2125984251968504
        },
        {
          "duration": 0.03488372093023173,
          "durationTicks": 3,
          "midi": 45,
          "name": "A2",
          "ticks": 2622,
          "time": 30.488372093023255,
          "velocity": 0.12598425196850394
        },
        {
          "duration": 0.3488372093023244,
          "durationTicks": 30,
          "midi": 45,
          "name": "A2",
          "ticks": 2627,
          "time": 30.546511627906977,
          "velocity": 0.2047244094488189
        },
        {
          "duration": 1.011627906976745,
          "durationTicks": 87,
          "midi": 69,
          "name": "A4",
          "ticks": 2646,
          "time": 30.767441860465116,
          "velocity": 0.1889763779527559
        },
        {
          "duration": 0.348837209302328,
          "durationTicks": 30,
          "midi": 57,
          "name": "A3",
          "ticks": 2657,
          "time": 30.8953488372093,
          "velocity": 0.1968503937007874
        },
        {
          "duration": 0.05813953488372192,
          "durationTicks": 5,
          "midi": 44,
          "name": "G#2",
          "ticks": 2661,
          "time": 30.941860465116278,
          "velocity": 0.2047244094488189
        },
        {
          "duration": 0.4534883720930232,
          "durationTicks": 39,
          "midi": 45,
          "name": "A2",
          "ticks": 2666,
          "time": 31,
          "velocity": 0.2204724409448819
        },
        {
          "duration": 0.06976744186046346,
          "durationTicks": 6,
          "midi": 44,
          "name": "G#2",
          "ticks": 2707,
          "time": 31.476744186046513,
          "velocity": 0.2047244094488189
        },
        {
          "duration": 0.06976744186046346,
          "durationTicks": 6,
          "midi": 45,
          "name": "A2",
          "ticks": 2713,
          "time": 31.546511627906977,
          "velocity": 0.18110236220472442
        },
        {
          "duration": 0.13953488372093048,
          "durationTicks": 12,
          "midi": 45,
          "name": "A2",
          "ticks": 2720,
          "time": 31.627906976744185,
          "velocity": 0.16535433070866143
        },
        {
          "duration": 0.03488372093023173,
          "durationTicks": 3,
          "midi": 44,
          "name": "G#2",
          "ticks": 2732,
          "time": 31.767441860465116,
          "velocity": 0.09448818897637795
        },
        {
          "duration": 0.4651162790697718,
          "durationTicks": 40,
          "midi": 69,
          "name": "A4",
          "ticks": 2735,
          "time": 31.802325581395348,
          "velocity": 0.18110236220472442
        },
        {
          "duration": 0.1744186046511622,
          "durationTicks": 15,
          "midi": 57,
          "name": "A3",
          "ticks": 2736,
          "time": 31.813953488372093,
          "velocity": 0.1732283464566929
        },
        {
          "duration": 0.08139534883720856,
          "durationTicks": 7,
          "midi": 44,
          "name": "G#2",
          "ticks": 2737,
          "time": 31.825581395348838,
          "velocity": 0.18110236220472442
        },
        {
          "duration": 0.43023255813953654,
          "durationTicks": 37,
          "midi": 45,
          "name": "A2",
          "ticks": 2744,
          "time": 31.906976744186046,
          "velocity": 0.14173228346456693
        },
        {
          "duration": 0.03488372093023173,
          "durationTicks": 3,
          "midi": 56,
          "name": "G#3",
          "ticks": 2776,
          "time": 32.27906976744186,
          "velocity": 0.07874015748031496
        },
        {
          "duration": 0.17441860465115866,
          "durationTicks": 15,
          "midi": 57,
          "name": "A3",
          "ticks": 2783,
          "time": 32.36046511627907,
          "velocity": 0.16535433070866143
        },
        {
          "duration": 0.03488372093023173,
          "durationTicks": 3,
          "midi": 44,
          "name": "G#2",
          "ticks": 2784,
          "time": 32.372093023255815,
          "velocity": 0.16535433070866143
        },
        {
          "duration": 0.05813953488372192,
          "durationTicks": 5,
          "midi": 45,
          "name": "A2",
          "ticks": 2787,
          "time": 32.406976744186046,
          "velocity": 0.14960629921259844
        },
        {
          "duration": 0.09302325581395365,
          "durationTicks": 8,
          "midi": 44,
          "name": "G#2",
          "ticks": 2798,
          "time": 32.53488372093023,
          "velocity": 0.2440944881889764
        },
        {
          "duration": 0.04651162790698038,
          "durationTicks": 4,
          "midi": 57,
          "name": "A3",
          "ticks": 2799,
          "time": 32.54651162790697,
          "velocity": 0.11811023622047244
        },
        {
          "duration": 0.04651162790698038,
          "durationTicks": 4,
          "midi": 45,
          "name": "A2",
          "ticks": 2806,
          "time": 32.627906976744185,
          "velocity": 0.1968503937007874
        },
        {
          "duration": 0.3139534883720927,
          "durationTicks": 27,
          "midi": 57,
          "name": "A3",
          "ticks": 2810,
          "time": 32.674418604651166,
          "velocity": 0.11023622047244094
        },
        {
          "duration": 0.5116279069767415,
          "durationTicks": 44,
          "midi": 45,
          "name": "A2",
          "ticks": 2813,
          "time": 32.7093023255814,
          "velocity": 0.1732283464566929
        },
        {
          "duration": 0.06976744186047057,
          "durationTicks": 6,
          "midi": 55,
          "name": "G3",
          "ticks": 2858,
          "time": 33.23255813953488,
          "velocity": 0.25196850393700787
        },
        {
          "duration": 0.06976744186047057,
          "durationTicks": 6,
          "midi": 44,
          "name": "G#2",
          "ticks": 2863,
          "time": 33.2906976744186,
          "velocity": 0.1968503937007874
        },
        {
          "duration": 0.03488372093023173,
          "durationTicks": 3,
          "midi": 55,
          "name": "G3",
          "ticks": 2871,
          "time": 33.383720930232556,
          "velocity": 0.09448818897637795
        },
        {
          "duration": 0.03488372093023173,
          "durationTicks": 3,
          "midi": 44,
          "name": "G#2",
          "ticks": 2872,
          "time": 33.395348837209305,
          "velocity": 0.14960629921259844
        },
        {
          "duration": 0.3720930232558146,
          "durationTicks": 32,
          "midi": 69,
          "name": "A4",
          "ticks": 2876,
          "time": 33.44186046511628,
          "velocity": 0.09448818897637795
        },
        {
          "duration": 0.046511627906973274,
          "durationTicks": 4,
          "midi": 44,
          "name": "G#2",
          "ticks": 2878,
          "time": 33.46511627906977,
          "velocity": 0.18110236220472442
        },
        {
          "duration": 0.04651162790698038,
          "durationTicks": 4,
          "midi": 44,
          "name": "G#2",
          "ticks": 2885,
          "time": 33.54651162790697,
          "velocity": 0.18110236220472442
        },
        {
          "duration": 0.05813953488372192,
          "durationTicks": 5,
          "midi": 44,
          "name": "G#2",
          "ticks": 2891,
          "time": 33.616279069767444,
          "velocity": 0.16535433070866143
        },
        {
          "duration": 0.03488372093023173,
          "durationTicks": 3,
          "midi": 55,
          "name": "G3",
          "ticks": 2892,
          "time": 33.627906976744185,
          "velocity": 0.11811023622047244
        },
        {
          "duration": 0.03488372093023173,
          "durationTicks": 3,
          "midi": 44,
          "name": "G#2",
          "ticks": 2899,
          "time": 33.7093023255814,
          "velocity": 0.12598425196850394
        },
        {
          "duration": 0.03488372093023173,
          "durationTicks": 3,
          "midi": 55,
          "name": "G3",
          "ticks": 2903,
          "time": 33.75581395348837,
          "velocity": 0.1732283464566929
        },
        {
          "duration": 0.04651162790698038,
          "durationTicks": 4,
          "midi": 42,
          "name": "F#2",
          "ticks": 2906,
          "time": 33.7906976744186,
          "velocity": 0.16535433070866143
        },
        {
          "duration": 0.06976744186047057,
          "durationTicks": 6,
          "midi": 54,
          "name": "F#3",
          "ticks": 2906,
          "time": 33.7906976744186,
          "velocity": 0.16535433070866143
        },
        {
          "duration": 0.06976744186046346,
          "durationTicks": 6,
          "midi": 54,
          "name": "F#3",
          "ticks": 2913,
          "time": 33.872093023255815,
          "velocity": 0.08661417322834646
        },
        {
          "duration": 0.03488372093023173,
          "durationTicks": 3,
          "midi": 43,
          "name": "G2",
          "ticks": 2914,
          "time": 33.883720930232556,
          "velocity": 0.18110236220472442
        },
        {
          "duration": 0.03488372093023173,
          "durationTicks": 3,
          "midi": 42,
          "name": "F#2",
          "ticks": 2919,
          "time": 33.94186046511628,
          "velocity": 0.13385826771653545
        },
        {
          "duration": 0.05813953488372192,
          "durationTicks": 5,
          "midi": 54,
          "name": "F#3",
          "ticks": 2922,
          "time": 33.97674418604651,
          "velocity": 0.09448818897637795
        },
        {
          "duration": 0.4534883720930196,
          "durationTicks": 39,
          "midi": 69,
          "name": "A4",
          "ticks": 2923,
          "time": 33.98837209302326,
          "velocity": 0.11023622047244094
        },
        {
          "duration": 0.09302325581395365,
          "durationTicks": 8,
          "midi": 54,
          "name": "F#3",
          "ticks": 2931,
          "time": 34.08139534883721,
          "velocity": 0.08661417322834646
        },
        {
          "duration": 0.03488372093023173,
          "durationTicks": 3,
          "midi": 42,
          "name": "F#2",
          "ticks": 2933,
          "time": 34.104651162790695,
          "velocity": 0.13385826771653545
        },
        {
          "duration": 0.05813953488372192,
          "durationTicks": 5,
          "midi": 54,
          "name": "F#3",
          "ticks": 2941,
          "time": 34.19767441860465,
          "velocity": 0.11811023622047244
        },
        {
          "duration": 0.08139534883721211,
          "durationTicks": 7,
          "midi": 52,
          "name": "E3",
          "ticks": 2952,
          "time": 34.325581395348834,
          "velocity": 0.13385826771653545
        },
        {
          "duration": 0.27906976744186096,
          "durationTicks": 24,
          "midi": 59,
          "name": "B3",
          "ticks": 2953,
          "time": 34.33720930232558,
          "velocity": 0.10236220472440945
        },
        {
          "duration": 0.046511627906973274,
          "durationTicks": 4,
          "midi": 52,
          "name": "E3",
          "ticks": 2966,
          "time": 34.48837209302326,
          "velocity": 0.13385826771653545
        },
        {
          "duration": 0.046511627906973274,
          "durationTicks": 4,
          "midi": 52,
          "name": "E3",
          "ticks": 2972,
          "time": 34.55813953488372,
          "velocity": 0.14960629921259844
        },
        {
          "duration": 0.03488372093023173,
          "durationTicks": 3,
          "midi": 44,
          "name": "G#2",
          "ticks": 2976,
          "time": 34.604651162790695,
          "velocity": 0.07874015748031496
        },
        {
          "duration": 0.03488372093023173,
          "durationTicks": 3,
          "midi": 44,
          "name": "G#2",
          "ticks": 2981,
          "time": 34.66279069767442,
          "velocity": 0.14960629921259844
        },
        {
          "duration": 0.03488372093023173,
          "durationTicks": 3,
          "midi": 51,
          "name": "D#3",
          "ticks": 2981,
          "time": 34.66279069767442,
          "velocity": 0.09448818897637795
        },
        {
          "duration": 0.1860465116279073,
          "durationTicks": 16,
          "midi": 59,
          "name": "B3",
          "ticks": 2983,
          "time": 34.68604651162791,
          "velocity": 0.15748031496062992
        },
        {
          "duration": 0.11627906976744384,
          "durationTicks": 10,
          "midi": 52,
          "name": "E3",
          "ticks": 2989,
          "time": 34.75581395348837,
          "velocity": 0.08661417322834646
        },
        {
          "duration": 0.08139534883721211,
          "durationTicks": 7,
          "midi": 69,
          "name": "A4",
          "ticks": 3000,
          "time": 34.883720930232556,
          "velocity": 0.11811023622047244
        },
        {
          "duration": 0.11627906976744384,
          "durationTicks": 10,
          "midi": 55,
          "name": "G3",
          "ticks": 3014,
          "time": 35.04651162790697,
          "velocity": 0.1968503937007874
        },
        {
          "duration": 0.03488372093023173,
          "durationTicks": 3,
          "midi": 52,
          "name": "E3",
          "ticks": 3026,
          "time": 35.18604651162791,
          "velocity": 0.08661417322834646
        },
        {
          "duration": 0.03488372093023884,
          "durationTicks": 3,
          "midi": 56,
          "name": "G#3",
          "ticks": 3030,
          "time": 35.23255813953488,
          "velocity": 0.2283464566929134
        },
        {
          "duration": 0.30232558139535115,
          "durationTicks": 26,
          "midi": 69,
          "name": "A4",
          "ticks": 3030,
          "time": 35.23255813953488,
          "velocity": 0.18110236220472442
        },
        {
          "duration": 0.25581395348837077,
          "durationTicks": 22,
          "midi": 57,
          "name": "A3",
          "ticks": 3033,
          "time": 35.26744186046512,
          "velocity": 0.1732283464566929
        },
        {
          "duration": 0.1046511627906952,
          "durationTicks": 9,
          "midi": 52,
          "name": "E3",
          "ticks": 3048,
          "time": 35.44186046511628,
          "velocity": 0.08661417322834646
        },
        {
          "duration": 0.081395348837205,
          "durationTicks": 7,
          "midi": 52,
          "name": "E3",
          "ticks": 3058,
          "time": 35.55813953488372,
          "velocity": 0.11023622047244094
        },
        {
          "duration": 0.25581395348837077,
          "durationTicks": 22,
          "midi": 59,
          "name": "B3",
          "ticks": 3061,
          "time": 35.593023255813954,
          "velocity": 0.14960629921259844
        },
        {
          "duration": 0.03488372093023173,
          "durationTicks": 3,
          "midi": 52,
          "name": "E3",
          "ticks": 3069,
          "time": 35.68604651162791,
          "velocity": 0.10236220472440945
        },
        {
          "duration": 0.05813953488372192,
          "durationTicks": 5,
          "midi": 52,
          "name": "E3",
          "ticks": 3077,
          "time": 35.77906976744186,
          "velocity": 0.07874015748031496
        },
        {
          "duration": 0.1046511627907023,
          "durationTicks": 9,
          "midi": 52,
          "name": "E3",
          "ticks": 3083,
          "time": 35.848837209302324,
          "velocity": 0.12598425196850394
        },
        {
          "duration": 0.03488372093023173,
          "durationTicks": 3,
          "midi": 56,
          "name": "G#3",
          "ticks": 3091,
          "time": 35.94186046511628,
          "velocity": 0.1968503937007874
        },
        {
          "duration": 0.5348837209302317,
          "durationTicks": 46,
          "midi": 69,
          "name": "A4",
          "ticks": 3091,
          "time": 35.94186046511628,
          "velocity": 0.1889763779527559
        },
        {
          "duration": 0.13953488372093403,
          "durationTicks": 12,
          "midi": 57,
          "name": "A3",
          "ticks": 3094,
          "time": 35.97674418604651,
          "velocity": 0.14960629921259844
        },
        {
          "duration": 0.03488372093023173,
          "durationTicks": 3,
          "midi": 56,
          "name": "G#3",
          "ticks": 3106,
          "time": 36.116279069767444,
          "velocity": 0.1968503937007874
        },
        {
          "duration": 0.2674418604651123,
          "durationTicks": 23,
          "midi": 57,
          "name": "A3",
          "ticks": 3109,
          "time": 36.151162790697676,
          "velocity": 0.14960629921259844
        },
        {
          "duration": 0.03488372093023173,
          "durationTicks": 3,
          "midi": 45,
          "name": "A2",
          "ticks": 3122,
          "time": 36.30232558139535,
          "velocity": 0.12598425196850394
        },
        {
          "duration": 0.04651162790698038,
          "durationTicks": 4,
          "midi": 44,
          "name": "G#2",
          "ticks": 3137,
          "time": 36.47674418604651,
          "velocity": 0.10236220472440945
        },
        {
          "duration": 0.7441860465116221,
          "durationTicks": 64,
          "midi": 69,
          "name": "A4",
          "ticks": 3138,
          "time": 36.48837209302326,
          "velocity": 0.1889763779527559
        },
        {
          "duration": 0.13953488372093403,
          "durationTicks": 12,
          "midi": 57,
          "name": "A3",
          "ticks": 3140,
          "time": 36.51162790697674,
          "velocity": 0.1889763779527559
        },
        {
          "duration": 0.12790697674418539,
          "durationTicks": 11,
          "midi": 57,
          "name": "A3",
          "ticks": 3155,
          "time": 36.68604651162791,
          "velocity": 0.1968503937007874
        },
        {
          "duration": 0.418604651162795,
          "durationTicks": 36,
          "midi": 45,
          "name": "A2",
          "ticks": 3161,
          "time": 36.75581395348837,
          "velocity": 0.2125984251968504
        },
        {
          "duration": 0.11627906976743674,
          "durationTicks": 10,
          "midi": 44,
          "name": "G#2",
          "ticks": 3197,
          "time": 37.174418604651166,
          "velocity": 0.2677165354330709
        },
        {
          "duration": 0.03488372093023173,
          "durationTicks": 3,
          "midi": 57,
          "name": "A3",
          "ticks": 3198,
          "time": 37.18604651162791,
          "velocity": 0.08661417322834646
        },
        {
          "duration": 0.04651162790698038,
          "durationTicks": 4,
          "midi": 45,
          "name": "A2",
          "ticks": 3207,
          "time": 37.2906976744186,
          "velocity": 0.23622047244094488
        },
        {
          "duration": 0.15116279069766847,
          "durationTicks": 13,
          "midi": 45,
          "name": "A2",
          "ticks": 3213,
          "time": 37.36046511627907,
          "velocity": 0.2204724409448819
        },
        {
          "duration": 0.03488372093023173,
          "durationTicks": 3,
          "midi": 44,
          "name": "G#2",
          "ticks": 3226,
          "time": 37.51162790697674,
          "velocity": 0.18110236220472442
        },
        {
          "duration": 0.2093023255813975,
          "durationTicks": 18,
          "midi": 69,
          "name": "A4",
          "ticks": 3229,
          "time": 37.54651162790697,
          "velocity": 0.11023622047244094
        },
        {
          "duration": 0.04651162790698038,
          "durationTicks": 4,
          "midi": 44,
          "name": "G#2",
          "ticks": 3231,
          "time": 37.56976744186046,
          "velocity": 0.2125984251968504
        },
        {
          "duration": 0.16279069767441712,
          "durationTicks": 14,
          "midi": 57,
          "name": "A3",
          "ticks": 3232,
          "time": 37.58139534883721,
          "velocity": 0.12598425196850394
        },
        {
          "duration": 0.5930232558139537,
          "durationTicks": 51,
          "midi": 45,
          "name": "A2",
          "ticks": 3235,
          "time": 37.616279069767444,
          "velocity": 0.2283464566929134
        },
        {
          "duration": 0.6627906976744171,
          "durationTicks": 57,
          "midi": 57,
          "name": "A3",
          "ticks": 3276,
          "time": 38.093023255813954,
          "velocity": 0.2283464566929134
        },
        {
          "duration": 0.05813953488372192,
          "durationTicks": 5,
          "midi": 44,
          "name": "G#2",
          "ticks": 3286,
          "time": 38.2093023255814,
          "velocity": 0.11811023622047244
        },
        {
          "duration": 0.081395348837205,
          "durationTicks": 7,
          "midi": 44,
          "name": "G#2",
          "ticks": 3294,
          "time": 38.30232558139535,
          "velocity": 0.2047244094488189
        },
        {
          "duration": 0.03488372093023173,
          "durationTicks": 3,
          "midi": 45,
          "name": "A2",
          "ticks": 3301,
          "time": 38.383720930232556,
          "velocity": 0.13385826771653545
        },
        {
          "duration": 0.12790697674418539,
          "durationTicks": 11,
          "midi": 45,
          "name": "A2",
          "ticks": 3313,
          "time": 38.52325581395349,
          "velocity": 0.2204724409448819
        },
        {
          "duration": 0.058139534883714816,
          "durationTicks": 5,
          "midi": 45,
          "name": "A2",
          "ticks": 3326,
          "time": 38.674418604651166,
          "velocity": 0.18110236220472442
        },
        {
          "duration": 0.06976744186046346,
          "durationTicks": 6,
          "midi": 45,
          "name": "A2",
          "ticks": 3332,
          "time": 38.74418604651163,
          "velocity": 0.2125984251968504
        },
        {
          "duration": 0.03488372093023173,
          "durationTicks": 3,
          "midi": 56,
          "name": "G#3",
          "ticks": 3333,
          "time": 38.75581395348837,
          "velocity": 0.12598425196850394
        },
        {
          "duration": 0.11627906976744384,
          "durationTicks": 10,
          "midi": 45,
          "name": "A2",
          "ticks": 3339,
          "time": 38.825581395348834,
          "velocity": 0.1889763779527559
        },
        {
          "duration": 0.05813953488372192,
          "durationTicks": 5,
          "midi": 55,
          "name": "G3",
          "ticks": 3354,
          "time": 39,
          "velocity": 0.2204724409448819
        },
        {
          "duration": 0.09302325581395365,
          "durationTicks": 8,
          "midi": 43,
          "name": "G2",
          "ticks": 3356,
          "time": 39.02325581395349,
          "velocity": 0.23622047244094488
        },
        {
          "duration": 0.04651162790698038,
          "durationTicks": 4,
          "midi": 43,
          "name": "G2",
          "ticks": 3365,
          "time": 39.127906976744185,
          "velocity": 0.15748031496062992
        },
        {
          "duration": 0.13953488372093403,
          "durationTicks": 12,
          "midi": 43,
          "name": "G2",
          "ticks": 3371,
          "time": 39.19767441860465,
          "velocity": 0.23622047244094488
        },
        {
          "duration": 0.058139534883714816,
          "durationTicks": 5,
          "midi": 43,
          "name": "G2",
          "ticks": 3385,
          "time": 39.36046511627907,
          "velocity": 0.1968503937007874
        },
        {
          "duration": 0.09302325581395365,
          "durationTicks": 8,
          "midi": 43,
          "name": "G2",
          "ticks": 3392,
          "time": 39.44186046511628,
          "velocity": 0.1889763779527559
        },
        {
          "duration": 0.081395348837205,
          "durationTicks": 7,
          "midi": 42,
          "name": "F#2",
          "ticks": 3402,
          "time": 39.55813953488372,
          "velocity": 0.14173228346456693
        },
        {
          "duration": 0.2674418604651123,
          "durationTicks": 23,
          "midi": 54,
          "name": "F#3",
          "ticks": 3402,
          "time": 39.55813953488372,
          "velocity": 0.1732283464566929
        },
        {
          "duration": 0.046511627906973274,
          "durationTicks": 4,
          "midi": 42,
          "name": "F#2",
          "ticks": 3410,
          "time": 39.651162790697676,
          "velocity": 0.16535433070866143
        },
        {
          "duration": 0.046511627906973274,
          "durationTicks": 4,
          "midi": 42,
          "name": "F#2",
          "ticks": 3415,
          "time": 39.7093023255814,
          "velocity": 0.18110236220472442
        },
        {
          "duration": 0.08139534883721211,
          "durationTicks": 7,
          "midi": 42,
          "name": "F#2",
          "ticks": 3421,
          "time": 39.77906976744186,
          "velocity": 0.16535433070866143
        },
        {
          "duration": 0.1046511627906952,
          "durationTicks": 9,
          "midi": 42,
          "name": "F#2",
          "ticks": 3429,
          "time": 39.872093023255815,
          "velocity": 0.1732283464566929
        },
        {
          "duration": 0.03488372093023173,
          "durationTicks": 3,
          "midi": 54,
          "name": "F#3",
          "ticks": 3437,
          "time": 39.96511627906977,
          "velocity": 0.1732283464566929
        },
        {
          "duration": 0.06976744186046346,
          "durationTicks": 6,
          "midi": 55,
          "name": "G3",
          "ticks": 3440,
          "time": 40,
          "velocity": 0.11811023622047244
        },
        {
          "duration": 0.05813953488372192,
          "durationTicks": 5,
          "midi": 44,
          "name": "G#2",
          "ticks": 3441,
          "time": 40.01162790697674,
          "velocity": 0.09448818897637795
        },
        {
          "duration": 0.19767441860464885,
          "durationTicks": 17,
          "midi": 69,
          "name": "A4",
          "ticks": 3442,
          "time": 40.02325581395349,
          "velocity": 0.14173228346456693
        },
        {
          "duration": 0.27906976744186096,
          "durationTicks": 24,
          "midi": 59,
          "name": "B3",
          "ticks": 3449,
          "time": 40.104651162790695,
          "velocity": 0.12598425196850394
        },
        {
          "duration": 0.13953488372092693,
          "durationTicks": 12,
          "midi": 69,
          "name": "A4",
          "ticks": 3464,
          "time": 40.27906976744186,
          "velocity": 0.13385826771653545
        },
        {
          "duration": 0.03488372093023173,
          "durationTicks": 3,
          "midi": 52,
          "name": "E3",
          "ticks": 3492,
          "time": 40.604651162790695,
          "velocity": 0.07874015748031496
        },
        {
          "duration": 0.03488372093023173,
          "durationTicks": 3,
          "midi": 40,
          "name": "E2",
          "ticks": 3494,
          "time": 40.627906976744185,
          "velocity": 0.07086614173228346
        },
        {
          "duration": 0.03488372093023173,
          "durationTicks": 3,
          "midi": 56,
          "name": "G#3",
          "ticks": 3494,
          "time": 40.627906976744185,
          "velocity": 0.2047244094488189
        },
        {
          "duration": 0.11627906976744384,
          "durationTicks": 10,
          "midi": 69,
          "name": "A4",
          "ticks": 3495,
          "time": 40.63953488372093,
          "velocity": 0.14173228346456693
        },
        {
          "duration": 0.09302325581395365,
          "durationTicks": 8,
          "midi": 57,
          "name": "A3",
          "ticks": 3497,
          "time": 40.66279069767442,
          "velocity": 0.1968503937007874
        },
        {
          "duration": 0.05813953488372192,
          "durationTicks": 5,
          "midi": 52,
          "name": "E3",
          "ticks": 3505,
          "time": 40.75581395348837,
          "velocity": 0.16535433070866143
        },
        {
          "duration": 0.08139534883721211,
          "durationTicks": 7,
          "midi": 55,
          "name": "G3",
          "ticks": 3511,
          "time": 40.825581395348834,
          "velocity": 0.2204724409448819
        },
        {
          "duration": 0.04651162790698038,
          "durationTicks": 4,
          "midi": 52,
          "name": "E3",
          "ticks": 3521,
          "time": 40.94186046511628,
          "velocity": 0.10236220472440945
        },
        {
          "duration": 0.05813953488372192,
          "durationTicks": 5,
          "midi": 59,
          "name": "B3",
          "ticks": 3521,
          "time": 40.94186046511628,
          "velocity": 0.07086614173228346
        },
        {
          "duration": 0.2674418604651194,
          "durationTicks": 23,
          "midi": 69,
          "name": "A4",
          "ticks": 3527,
          "time": 41.01162790697674,
          "velocity": 0.12598425196850394
        },
        {
          "duration": 0.16279069767441712,
          "durationTicks": 14,
          "midi": 57,
          "name": "A3",
          "ticks": 3528,
          "time": 41.02325581395349,
          "velocity": 0.2204724409448819
        },
        {
          "duration": 0.05813953488372192,
          "durationTicks": 5,
          "midi": 52,
          "name": "E3",
          "ticks": 3534,
          "time": 41.093023255813954,
          "velocity": 0.07086614173228346
        },
        {
          "duration": 0.25581395348837077,
          "durationTicks": 22,
          "midi": 59,
          "name": "B3",
          "ticks": 3551,
          "time": 41.2906976744186,
          "velocity": 0.11023622047244094
        },
        {
          "duration": 0.05813953488372192,
          "durationTicks": 5,
          "midi": 59,
          "name": "B3",
          "ticks": 3574,
          "time": 41.55813953488372,
          "velocity": 0.07874015748031496
        },
        {
          "duration": 0.09302325581395365,
          "durationTicks": 8,
          "midi": 52,
          "name": "E3",
          "ticks": 3582,
          "time": 41.651162790697676,
          "velocity": 0.09448818897637795
        },
        {
          "duration": 0.03488372093023173,
          "durationTicks": 3,
          "midi": 45,
          "name": "A2",
          "ticks": 3587,
          "time": 41.7093023255814,
          "velocity": 0.11811023622047244
        },
        {
          "duration": 0.1860465116279073,
          "durationTicks": 16,
          "midi": 69,
          "name": "A4",
          "ticks": 3588,
          "time": 41.72093023255814,
          "velocity": 0.1732283464566929
        },
        {
          "duration": 0.15116279069767558,
          "durationTicks": 13,
          "midi": 57,
          "name": "A3",
          "ticks": 3589,
          "time": 41.73255813953488,
          "velocity": 0.16535433070866143
        },
        {
          "duration": 0.22093023255813904,
          "durationTicks": 19,
          "midi": 57,
          "name": "A3",
          "ticks": 3610,
          "time": 41.97674418604651,
          "velocity": 0.15748031496062992
        },
        {
          "duration": 0.04651162790698038,
          "durationTicks": 4,
          "midi": 45,
          "name": "A2",
          "ticks": 3618,
          "time": 42.06976744186046,
          "velocity": 0.12598425196850394
        },
        {
          "duration": 0.08139534883721211,
          "durationTicks": 7,
          "midi": 45,
          "name": "A2",
          "ticks": 3626,
          "time": 42.16279069767442,
          "velocity": 0.15748031496062992
        },
        {
          "duration": 0.09302325581395365,
          "durationTicks": 8,
          "midi": 69,
          "name": "A4",
          "ticks": 3629,
          "time": 42.19767441860465,
          "velocity": 0.14173228346456693
        },
        {
          "duration": 0.17441860465115866,
          "durationTicks": 15,
          "midi": 45,
          "name": "A2",
          "ticks": 3635,
          "time": 42.26744186046512,
          "velocity": 0.11811023622047244
        },
        {
          "duration": 0.04651162790698038,
          "durationTicks": 4,
          "midi": 57,
          "name": "A3",
          "ticks": 3637,
          "time": 42.2906976744186,
          "velocity": 0.1889763779527559
        },
        {
          "duration": 0.24418604651162212,
          "durationTicks": 21,
          "midi": 69,
          "name": "A4",
          "ticks": 3643,
          "time": 42.36046511627907,
          "velocity": 0.10236220472440945
        },
        {
          "duration": 0.03488372093023173,
          "durationTicks": 3,
          "midi": 45,
          "name": "A2",
          "ticks": 3653,
          "time": 42.47674418604651,
          "velocity": 0.14173228346456693
        },
        {
          "duration": 0.05813953488372192,
          "durationTicks": 5,
          "midi": 45,
          "name": "A2",
          "ticks": 3657,
          "time": 42.52325581395349,
          "velocity": 0.14173228346456693
        },
        {
          "duration": 0.08139534883721211,
          "durationTicks": 7,
          "midi": 43,
          "name": "G2",
          "ticks": 3666,
          "time": 42.627906976744185,
          "velocity": 0.2440944881889764
        },
        {
          "duration": 0.12790697674418539,
          "durationTicks": 11,
          "midi": 43,
          "name": "G2",
          "ticks": 3678,
          "time": 42.76744186046512,
          "velocity": 0.1968503937007874
        },
        {
          "duration": 0.04651162790698038,
          "durationTicks": 4,
          "midi": 43,
          "name": "G2",
          "ticks": 3691,
          "time": 42.91860465116279,
          "velocity": 0.1968503937007874
        },
        {
          "duration": 0.05813953488372192,
          "durationTicks": 5,
          "midi": 44,
          "name": "G#2",
          "ticks": 3698,
          "time": 43,
          "velocity": 0.1732283464566929
        },
        {
          "duration": 0.12790697674418539,
          "durationTicks": 11,
          "midi": 55,
          "name": "G3",
          "ticks": 3699,
          "time": 43.01162790697674,
          "velocity": 0.14960629921259844
        },
        {
          "duration": 0.03488372093023884,
          "durationTicks": 3,
          "midi": 56,
          "name": "G#3",
          "ticks": 3710,
          "time": 43.13953488372093,
          "velocity": 0.1968503937007874
        },
        {
          "duration": 0.1046511627907023,
          "durationTicks": 9,
          "midi": 57,
          "name": "A3",
          "ticks": 3718,
          "time": 43.23255813953488,
          "velocity": 0.07874015748031496
        },
        {
          "duration": 0.081395348837205,
          "durationTicks": 7,
          "midi": 44,
          "name": "G#2",
          "ticks": 3729,
          "time": 43.36046511627907,
          "velocity": 0.2755905511811024
        },
        {
          "duration": 0.04651162790698038,
          "durationTicks": 4,
          "midi": 45,
          "name": "A2",
          "ticks": 3736,
          "time": 43.44186046511628,
          "velocity": 0.2440944881889764
        },
        {
          "duration": 0.3372093023255829,
          "durationTicks": 29,
          "midi": 45,
          "name": "A2",
          "ticks": 3742,
          "time": 43.51162790697674,
          "velocity": 0.2204724409448819
        },
        {
          "duration": 0.03488372093023173,
          "durationTicks": 3,
          "midi": 56,
          "name": "G#3",
          "ticks": 3746,
          "time": 43.55813953488372,
          "velocity": 0.07086614173228346
        },
        {
          "duration": 0.04651162790698038,
          "durationTicks": 4,
          "midi": 44,
          "name": "G#2",
          "ticks": 3771,
          "time": 43.848837209302324,
          "velocity": 0.1732283464566929
        },
        {
          "duration": 0.03488372093023173,
          "durationTicks": 3,
          "midi": 47,
          "name": "B2",
          "ticks": 3776,
          "time": 43.906976744186046,
          "velocity": 0.14960629921259844
        },
        {
          "duration": 0.15116279069766847,
          "durationTicks": 13,
          "midi": 47,
          "name": "B2",
          "ticks": 3780,
          "time": 43.95348837209303,
          "velocity": 0.1732283464566929
        },
        {
          "duration": 0.17441860465116577,
          "durationTicks": 15,
          "midi": 59,
          "name": "B3",
          "ticks": 3793,
          "time": 44.104651162790695,
          "velocity": 0.07874015748031496
        },
        {
          "duration": 0.25581395348837077,
          "durationTicks": 22,
          "midi": 47,
          "name": "B2",
          "ticks": 3794,
          "time": 44.116279069767444,
          "velocity": 0.14960629921259844
        },
        {
          "duration": 0.03488372093023173,
          "durationTicks": 3,
          "midi": 45,
          "name": "A2",
          "ticks": 3823,
          "time": 44.45348837209303,
          "velocity": 0.2283464566929134
        },
        {
          "duration": 0.03488372093023173,
          "durationTicks": 3,
          "midi": 45,
          "name": "A2",
          "ticks": 3827,
          "time": 44.5,
          "velocity": 0.2047244094488189
        },
        {
          "duration": 0.06976744186046346,
          "durationTicks": 6,
          "midi": 47,
          "name": "B2",
          "ticks": 3838,
          "time": 44.627906976744185,
          "velocity": 0.16535433070866143
        },
        {
          "duration": 0.05813953488372192,
          "durationTicks": 5,
          "midi": 55,
          "name": "G3",
          "ticks": 3840,
          "time": 44.651162790697676,
          "velocity": 0.15748031496062992
        },
        {
          "duration": 0.05813953488372192,
          "durationTicks": 5,
          "midi": 55,
          "name": "G3",
          "ticks": 3846,
          "time": 44.72093023255814,
          "velocity": 0.16535433070866143
        },
        {
          "duration": 0.03488372093023173,
          "durationTicks": 3,
          "midi": 45,
          "name": "A2",
          "ticks": 3852,
          "time": 44.7906976744186,
          "velocity": 0.18110236220472442
        },
        {
          "duration": 0.03488372093023173,
          "durationTicks": 3,
          "midi": 55,
          "name": "G3",
          "ticks": 3852,
          "time": 44.7906976744186,
          "velocity": 0.08661417322834646
        },
        {
          "duration": 0.03488372093023173,
          "durationTicks": 3,
          "midi": 60,
          "name": "C4",
          "ticks": 3853,
          "time": 44.80232558139535,
          "velocity": 0.10236220472440945
        },
        {
          "duration": 0.03488372093023173,
          "durationTicks": 3,
          "midi": 60,
          "name": "C4",
          "ticks": 3865,
          "time": 44.94186046511628,
          "velocity": 0.07086614173228346
        },
        {
          "duration": 0.046511627906973274,
          "durationTicks": 4,
          "midi": 48,
          "name": "C3",
          "ticks": 3869,
          "time": 44.98837209302326,
          "velocity": 0.13385826771653545
        },
        {
          "duration": 0.1279069767441925,
          "durationTicks": 11,
          "midi": 48,
          "name": "C3",
          "ticks": 3874,
          "time": 45.04651162790697,
          "velocity": 0.14173228346456693
        },
        {
          "duration": 0.17441860465116577,
          "durationTicks": 15,
          "midi": 48,
          "name": "C3",
          "ticks": 3886,
          "time": 45.18604651162791,
          "velocity": 0.14173228346456693
        },
        {
          "duration": 0.15116279069767558,
          "durationTicks": 13,
          "midi": 55,
          "name": "G3",
          "ticks": 3887,
          "time": 45.19767441860465,
          "velocity": 0.10236220472440945
        },
        {
          "duration": 0.06976744186046346,
          "durationTicks": 6,
          "midi": 55,
          "name": "G3",
          "ticks": 3904,
          "time": 45.395348837209305,
          "velocity": 0.09448818897637795
        },
        {
          "duration": 0.058139534883714816,
          "durationTicks": 5,
          "midi": 44,
          "name": "G#2",
          "ticks": 3909,
          "time": 45.45348837209303,
          "velocity": 0.10236220472440945
        },
        {
          "duration": 0.06976744186046346,
          "durationTicks": 6,
          "midi": 44,
          "name": "G#2",
          "ticks": 3918,
          "time": 45.55813953488372,
          "velocity": 0.09448818897637795
        },
        {
          "duration": 0.11627906976744384,
          "durationTicks": 10,
          "midi": 60,
          "name": "C4",
          "ticks": 3919,
          "time": 45.56976744186046,
          "velocity": 0.08661417322834646
        },
        {
          "duration": 0.046511627906973274,
          "durationTicks": 4,
          "midi": 56,
          "name": "G#3",
          "ticks": 3947,
          "time": 45.895348837209305,
          "velocity": 0.14960629921259844
        },
        {
          "duration": 0.03488372093023173,
          "durationTicks": 3,
          "midi": 69,
          "name": "A4",
          "ticks": 3948,
          "time": 45.906976744186046,
          "velocity": 0.07874015748031496
        },
        {
          "duration": 0.046511627906973274,
          "durationTicks": 4,
          "midi": 44,
          "name": "G#2",
          "ticks": 3952,
          "time": 45.95348837209303,
          "velocity": 0.11023622047244094
        },
        {
          "duration": 0.1860465116279002,
          "durationTicks": 16,
          "midi": 86,
          "name": "D6",
          "ticks": 3952,
          "time": 45.95348837209303,
          "velocity": 0.09448818897637795
        },
        {
          "duration": 0.06976744186046346,
          "durationTicks": 6,
          "midi": 45,
          "name": "A2",
          "ticks": 3964,
          "time": 46.093023255813954,
          "velocity": 0.07086614173228346
        },
        {
          "duration": 0.03488372093023173,
          "durationTicks": 3,
          "midi": 45,
          "name": "A2",
          "ticks": 3977,
          "time": 46.24418604651163,
          "velocity": 0.13385826771653545
        },
        {
          "duration": 0.03488372093023173,
          "durationTicks": 3,
          "midi": 44,
          "name": "G#2",
          "ticks": 3982,
          "time": 46.30232558139535,
          "velocity": 0.15748031496062992
        },
        {
          "duration": 0.3139534883720927,
          "durationTicks": 27,
          "midi": 52,
          "name": "E3",
          "ticks": 3983,
          "time": 46.31395348837209,
          "velocity": 0.14960629921259844
        },
        {
          "duration": 0.06976744186046346,
          "durationTicks": 6,
          "midi": 44,
          "name": "G#2",
          "ticks": 3988,
          "time": 46.372093023255815,
          "velocity": 0.14960629921259844
        },
        {
          "duration": 0.05813953488372192,
          "durationTicks": 5,
          "midi": 45,
          "name": "A2",
          "ticks": 4002,
          "time": 46.53488372093023,
          "velocity": 0.09448818897637795
        },
        {
          "duration": 0.03488372093023173,
          "durationTicks": 3,
          "midi": 51,
          "name": "D#3",
          "ticks": 4010,
          "time": 46.627906976744185,
          "velocity": 0.11023622047244094
        },
        {
          "duration": 0.03488372093023173,
          "durationTicks": 3,
          "midi": 44,
          "name": "G#2",
          "ticks": 4015,
          "time": 46.68604651162791,
          "velocity": 0.09448818897637795
        },
        {
          "duration": 0.13953488372092693,
          "durationTicks": 12,
          "midi": 59,
          "name": "B3",
          "ticks": 4015,
          "time": 46.68604651162791,
          "velocity": 0.10236220472440945
        },
        {
          "duration": 0.48837209302325846,
          "durationTicks": 42,
          "midi": 69,
          "name": "A4",
          "ticks": 4045,
          "time": 47.03488372093023,
          "velocity": 0.15748031496062992
        },
        {
          "duration": 0.3488372093023244,
          "durationTicks": 30,
          "midi": 57,
          "name": "A3",
          "ticks": 4047,
          "time": 47.05813953488372,
          "velocity": 0.2047244094488189
        },
        {
          "duration": 0.25581395348837077,
          "durationTicks": 22,
          "midi": 53,
          "name": "F3",
          "ticks": 4065,
          "time": 47.26744186046512,
          "velocity": 0.11811023622047244
        },
        {
          "duration": 0.03488372093023173,
          "durationTicks": 3,
          "midi": 45,
          "name": "A2",
          "ticks": 4088,
          "time": 47.53488372093023,
          "velocity": 0.14173228346456693
        },
        {
          "duration": 0.15116279069767558,
          "durationTicks": 13,
          "midi": 55,
          "name": "G3",
          "ticks": 4091,
          "time": 47.56976744186046,
          "velocity": 0.23622047244094488
        },
        {
          "duration": 0.046511627906973274,
          "durationTicks": 4,
          "midi": 56,
          "name": "G#3",
          "ticks": 4108,
          "time": 47.76744186046512,
          "velocity": 0.1968503937007874
        },
        {
          "duration": 0.15116279069766847,
          "durationTicks": 13,
          "midi": 69,
          "name": "A4",
          "ticks": 4108,
          "time": 47.76744186046512,
          "velocity": 0.18110236220472442
        },
        {
          "duration": 0.03488372093023173,
          "durationTicks": 3,
          "midi": 57,
          "name": "A3",
          "ticks": 4112,
          "time": 47.81395348837209,
          "velocity": 0.14173228346456693
        },
        {
          "duration": 0.06976744186046346,
          "durationTicks": 6,
          "midi": 57,
          "name": "A3",
          "ticks": 4116,
          "time": 47.86046511627907,
          "velocity": 0.14960629921259844
        },
        {
          "duration": 0.27906976744186096,
          "durationTicks": 24,
          "midi": 69,
          "name": "A4",
          "ticks": 4126,
          "time": 47.97674418604651,
          "velocity": 0.1889763779527559
        },
        {
          "duration": 0.27906976744186096,
          "durationTicks": 24,
          "midi": 57,
          "name": "A3",
          "ticks": 4127,
          "time": 47.98837209302326,
          "velocity": 0.2047244094488189
        },
        {
          "duration": 0.03488372093023173,
          "durationTicks": 3,
          "midi": 45,
          "name": "A2",
          "ticks": 4153,
          "time": 48.2906976744186,
          "velocity": 0.10236220472440945
        },
        {
          "duration": 0.15116279069767558,
          "durationTicks": 13,
          "midi": 55,
          "name": "G3",
          "ticks": 4155,
          "time": 48.31395348837209,
          "velocity": 0.2283464566929134
        },
        {
          "duration": 0.03488372093023173,
          "durationTicks": 3,
          "midi": 56,
          "name": "G#3",
          "ticks": 4168,
          "time": 48.46511627906977,
          "velocity": 0.25196850393700787
        },
        {
          "duration": 0.2674418604651194,
          "durationTicks": 23,
          "midi": 57,
          "name": "A3",
          "ticks": 4171,
          "time": 48.5,
          "velocity": 0.2677165354330709
        },
        {
          "duration": 0.05813953488372192,
          "durationTicks": 5,
          "midi": 44,
          "name": "G#2",
          "ticks": 4172,
          "time": 48.51162790697674,
          "velocity": 0.2125984251968504
        },
        {
          "duration": 0.6279069767441854,
          "durationTicks": 54,
          "midi": 45,
          "name": "A2",
          "ticks": 4179,
          "time": 48.593023255813954,
          "velocity": 0.1968503937007874
        },
        {
          "duration": 0.23255813953488058,
          "durationTicks": 20,
          "midi": 69,
          "name": "A4",
          "ticks": 4211,
          "time": 48.96511627906977,
          "velocity": 0.08661417322834646
        },
        {
          "duration": 0.1860465116279073,
          "durationTicks": 16,
          "midi": 55,
          "name": "G3",
          "ticks": 4233,
          "time": 49.22093023255814,
          "velocity": 0.2047244094488189
        },
        {
          "duration": 0.06976744186046346,
          "durationTicks": 6,
          "midi": 44,
          "name": "G#2",
          "ticks": 4235,
          "time": 49.24418604651163,
          "velocity": 0.2440944881889764
        },
        {
          "duration": 0.04651162790698038,
          "durationTicks": 4,
          "midi": 44,
          "name": "G#2",
          "ticks": 4250,
          "time": 49.41860465116279,
          "velocity": 0.25196850393700787
        },
        {
          "duration": 0.03488372093023173,
          "durationTicks": 3,
          "midi": 44,
          "name": "G#2",
          "ticks": 4258,
          "time": 49.51162790697674,
          "velocity": 0.2283464566929134
        },
        {
          "duration": 0.16279069767441712,
          "durationTicks": 14,
          "midi": 55,
          "name": "G3",
          "ticks": 4262,
          "time": 49.55813953488372,
          "velocity": 0.12598425196850394
        },
        {
          "duration": 0.05813953488372192,
          "durationTicks": 5,
          "midi": 44,
          "name": "G#2",
          "ticks": 4263,
          "time": 49.56976744186046,
          "velocity": 0.18110236220472442
        },
        {
          "duration": 0.05813953488372192,
          "durationTicks": 5,
          "midi": 45,
          "name": "A2",
          "ticks": 4268,
          "time": 49.627906976744185,
          "velocity": 0.16535433070866143
        },
        {
          "duration": 0.1860465116279073,
          "durationTicks": 16,
          "midi": 45,
          "name": "A2",
          "ticks": 4275,
          "time": 49.7093023255814,
          "velocity": 0.18110236220472442
        },
        {
          "duration": 0.03488372093023173,
          "durationTicks": 3,
          "midi": 56,
          "name": "G#3",
          "ticks": 4294,
          "time": 49.93023255813954,
          "velocity": 0.2204724409448819
        },
        {
          "duration": 0.081395348837205,
          "durationTicks": 7,
          "midi": 44,
          "name": "G#2",
          "ticks": 4296,
          "time": 49.95348837209303,
          "velocity": 0.2440944881889764
        },
        {
          "duration": 0.15116279069767558,
          "durationTicks": 13,
          "midi": 57,
          "name": "A3",
          "ticks": 4297,
          "time": 49.96511627906977,
          "velocity": 0.1889763779527559
        },
        {
          "duration": 0.04651162790698038,
          "durationTicks": 4,
          "midi": 45,
          "name": "A2",
          "ticks": 4303,
          "time": 50.03488372093023,
          "velocity": 0.1889763779527559
        },
        {
          "duration": 0.03488372093023884,
          "durationTicks": 3,
          "midi": 56,
          "name": "G#3",
          "ticks": 4312,
          "time": 50.13953488372093,
          "velocity": 0.13385826771653545
        },
        {
          "duration": 0.32558139534884134,
          "durationTicks": 28,
          "midi": 69,
          "name": "A4",
          "ticks": 4312,
          "time": 50.13953488372093,
          "velocity": 0.11811023622047244
        },
        {
          "duration": 0.2906976744186025,
          "durationTicks": 25,
          "midi": 45,
          "name": "A2",
          "ticks": 4313,
          "time": 50.151162790697676,
          "velocity": 0.2047244094488189
        },
        {
          "duration": 0.03488372093023173,
          "durationTicks": 3,
          "midi": 44,
          "name": "G#2",
          "ticks": 4338,
          "time": 50.44186046511628,
          "velocity": 0.18110236220472442
        },
        {
          "duration": 0.03488372093023173,
          "durationTicks": 3,
          "midi": 45,
          "name": "A2",
          "ticks": 4341,
          "time": 50.47674418604651,
          "velocity": 0.1889763779527559
        },
        {
          "duration": 0.03488372093023173,
          "durationTicks": 3,
          "midi": 47,
          "name": "B2",
          "ticks": 4348,
          "time": 50.55813953488372,
          "velocity": 0.13385826771653545
        },
        {
          "duration": 0.09302325581395365,
          "durationTicks": 8,
          "midi": 47,
          "name": "B2",
          "ticks": 4352,
          "time": 50.604651162790695,
          "velocity": 0.16535433070866143
        },
        {
          "duration": 0.3372093023255829,
          "durationTicks": 29,
          "midi": 55,
          "name": "G3",
          "ticks": 4359,
          "time": 50.68604651162791,
          "velocity": 0.12598425196850394
        },
        {
          "duration": 0.24418604651162923,
          "durationTicks": 21,
          "midi": 47,
          "name": "B2",
          "ticks": 4362,
          "time": 50.72093023255814,
          "velocity": 0.15748031496062992
        },
        {
          "duration": 0.05813953488372192,
          "durationTicks": 5,
          "midi": 55,
          "name": "G3",
          "ticks": 4392,
          "time": 51.06976744186046,
          "velocity": 0.07874015748031496
        },
        {
          "duration": 0.03488372093023173,
          "durationTicks": 3,
          "midi": 57,
          "name": "A3",
          "ticks": 4402,
          "time": 51.18604651162791,
          "velocity": 0.13385826771653545
        },
        {
          "duration": 0.06976744186046346,
          "durationTicks": 6,
          "midi": 44,
          "name": "G#2",
          "ticks": 4404,
          "time": 51.2093023255814,
          "velocity": 0.15748031496062992
        },
        {
          "duration": 0.05813953488372192,
          "durationTicks": 5,
          "midi": 55,
          "name": "G3",
          "ticks": 4405,
          "time": 51.22093023255814,
          "velocity": 0.1732283464566929
        },
        {
          "duration": 0.08139534883721211,
          "durationTicks": 7,
          "midi": 55,
          "name": "G3",
          "ticks": 4411,
          "time": 51.2906976744186,
          "velocity": 0.15748031496062992
        },
        {
          "duration": 0.1046511627907023,
          "durationTicks": 9,
          "midi": 60,
          "name": "C4",
          "ticks": 4427,
          "time": 51.47674418604651,
          "velocity": 0.07874015748031496
        },
        {
          "duration": 0.40697674418604635,
          "durationTicks": 35,
          "midi": 48,
          "name": "C3",
          "ticks": 4432,
          "time": 51.53488372093023,
          "velocity": 0.1732283464566929
        },
        {
          "duration": 0.05813953488372192,
          "durationTicks": 5,
          "midi": 55,
          "name": "G3",
          "ticks": 4453,
          "time": 51.77906976744186,
          "velocity": 0.12598425196850394
        },
        {
          "duration": 0.06976744186047057,
          "durationTicks": 6,
          "midi": 48,
          "name": "C3",
          "ticks": 4481,
          "time": 52.104651162790695,
          "velocity": 0.16535433070866143
        },
        {
          "duration": 0.09302325581395365,
          "durationTicks": 8,
          "midi": 55,
          "name": "G3",
          "ticks": 4501,
          "time": 52.33720930232558,
          "velocity": 0.14173228346456693
        },
        {
          "duration": 0.046511627906973274,
          "durationTicks": 4,
          "midi": 44,
          "name": "G#2",
          "ticks": 4506,
          "time": 52.395348837209305,
          "velocity": 0.12598425196850394
        },
        {
          "duration": 0.081395348837205,
          "durationTicks": 7,
          "midi": 44,
          "name": "G#2",
          "ticks": 4514,
          "time": 52.48837209302326,
          "velocity": 0.18110236220472442
        },
        {
          "duration": 0.43023255813953654,
          "durationTicks": 37,
          "midi": 50,
          "name": "D3",
          "ticks": 4520,
          "time": 52.55813953488372,
          "velocity": 0.16535433070866143
        },
        {
          "duration": 0.09302325581395365,
          "durationTicks": 8,
          "midi": 55,
          "name": "G3",
          "ticks": 4547,
          "time": 52.872093023255815,
          "velocity": 0.16535433070866143
        },
        {
          "duration": 0.046511627906973274,
          "durationTicks": 4,
          "midi": 55,
          "name": "G3",
          "ticks": 4563,
          "time": 53.05813953488372,
          "velocity": 0.23622047244094488
        },
        {
          "duration": 0.12790697674418539,
          "durationTicks": 11,
          "midi": 43,
          "name": "G2",
          "ticks": 4564,
          "time": 53.06976744186046,
          "velocity": 0.2283464566929134
        },
        {
          "duration": 0.11627906976744384,
          "durationTicks": 10,
          "midi": 55,
          "name": "G3",
          "ticks": 4594,
          "time": 53.41860465116279,
          "velocity": 0.2125984251968504
        },
        {
          "duration": 0.03488372093023173,
          "durationTicks": 3,
          "midi": 45,
          "name": "A2",
          "ticks": 4603,
          "time": 53.52325581395349,
          "velocity": 0.15748031496062992
        },
        {
          "duration": 0.2674418604651123,
          "durationTicks": 23,
          "midi": 68,
          "name": "G#4",
          "ticks": 4611,
          "time": 53.616279069767444,
          "velocity": 0.13385826771653545
        },
        {
          "duration": 0.7906976744186096,
          "durationTicks": 68,
          "midi": 52,
          "name": "E3",
          "ticks": 4618,
          "time": 53.69767441860465,
          "velocity": 0.10236220472440945
        },
        {
          "duration": 0.24418604651162923,
          "durationTicks": 21,
          "midi": 59,
          "name": "B3",
          "ticks": 4626,
          "time": 53.7906976744186,
          "velocity": 0.09448818897637795
        },
        {
          "duration": 0.03488372093023173,
          "durationTicks": 3,
          "midi": 44,
          "name": "G#2",
          "ticks": 4643,
          "time": 53.98837209302326,
          "velocity": 0.11023622047244094
        },
        {
          "duration": 0.03488372093023173,
          "durationTicks": 3,
          "midi": 44,
          "name": "G#2",
          "ticks": 4690,
          "time": 54.53488372093023,
          "velocity": 0.12598425196850394
        },
        {
          "duration": 0.1046511627906952,
          "durationTicks": 9,
          "midi": 44,
          "name": "G#2",
          "ticks": 4702,
          "time": 54.674418604651166,
          "velocity": 0.2677165354330709
        },
        {
          "duration": 0.046511627906973274,
          "durationTicks": 4,
          "midi": 45,
          "name": "A2",
          "ticks": 4711,
          "time": 54.77906976744186,
          "velocity": 0.2440944881889764
        },
        {
          "duration": 0.5581395348837219,
          "durationTicks": 48,
          "midi": 45,
          "name": "A2",
          "ticks": 4717,
          "time": 54.848837209302324,
          "velocity": 0.2755905511811024
        },
        {
          "duration": 0.15116279069767558,
          "durationTicks": 13,
          "midi": 86,
          "name": "D6",
          "ticks": 4752,
          "time": 55.25581395348837,
          "velocity": 0.07086614173228346
        },
        {
          "duration": 0.03488372093023884,
          "durationTicks": 3,
          "midi": 56,
          "name": "G#3",
          "ticks": 4766,
          "time": 55.41860465116279,
          "velocity": 0.13385826771653545
        },
        {
          "duration": 0.09302325581395365,
          "durationTicks": 8,
          "midi": 44,
          "name": "G#2",
          "ticks": 4768,
          "time": 55.44186046511628,
          "velocity": 0.2755905511811024
        },
        {
          "duration": 0.03488372093023173,
          "durationTicks": 3,
          "midi": 45,
          "name": "A2",
          "ticks": 4776,
          "time": 55.53488372093023,
          "velocity": 0.1889763779527559
        },
        {
          "duration": 0.15116279069767558,
          "durationTicks": 13,
          "midi": 45,
          "name": "A2",
          "ticks": 4783,
          "time": 55.616279069767444,
          "velocity": 0.2440944881889764
        },
        {
          "duration": 0.04651162790698038,
          "durationTicks": 4,
          "midi": 57,
          "name": "A3",
          "ticks": 4800,
          "time": 55.81395348837209,
          "velocity": 0.15748031496062992
        },
        {
          "duration": 0.08139534883721211,
          "durationTicks": 7,
          "midi": 44,
          "name": "G#2",
          "ticks": 4801,
          "time": 55.825581395348834,
          "velocity": 0.2755905511811024
        },
        {
          "duration": 0.2674418604651194,
          "durationTicks": 23,
          "midi": 45,
          "name": "A2",
          "ticks": 4808,
          "time": 55.906976744186046,
          "velocity": 0.25196850393700787
        },
        {
          "duration": 0.32558139534883423,
          "durationTicks": 28,
          "midi": 69,
          "name": "A4",
          "ticks": 4831,
          "time": 56.174418604651166,
          "velocity": 0.12598425196850394
        },
        {
          "duration": 0.046511627906973274,
          "durationTicks": 4,
          "midi": 45,
          "name": "A2",
          "ticks": 4832,
          "time": 56.18604651162791,
          "velocity": 0.18110236220472442
        },
        {
          "duration": 0.3488372093023244,
          "durationTicks": 30,
          "midi": 45,
          "name": "A2",
          "ticks": 4837,
          "time": 56.24418604651163,
          "velocity": 0.2125984251968504
        },
        {
          "duration": 0.03488372093023173,
          "durationTicks": 3,
          "midi": 56,
          "name": "G#3",
          "ticks": 4860,
          "time": 56.51162790697674,
          "velocity": 0.11023622047244094
        },
        {
          "duration": 0.03488372093023173,
          "durationTicks": 3,
          "midi": 45,
          "name": "A2",
          "ticks": 4868,
          "time": 56.604651162790695,
          "velocity": 0.14173228346456693
        },
        {
          "duration": 0.046511627906973274,
          "durationTicks": 4,
          "midi": 45,
          "name": "A2",
          "ticks": 4872,
          "time": 56.651162790697676,
          "velocity": 0.2125984251968504
        },
        {
          "duration": 0.04651162790698038,
          "durationTicks": 4,
          "midi": 45,
          "name": "A2",
          "ticks": 4878,
          "time": 56.72093023255814,
          "velocity": 0.16535433070866143
        },
        {
          "duration": 0.06976744186047057,
          "durationTicks": 6,
          "midi": 45,
          "name": "A2",
          "ticks": 4884,
          "time": 56.7906976744186,
          "velocity": 0.14960629921259844
        },
        {
          "duration": 0.23255813953488058,
          "durationTicks": 20,
          "midi": 69,
          "name": "A4",
          "ticks": 4888,
          "time": 56.83720930232558,
          "velocity": 0.1889763779527559
        },
        {
          "duration": 0.2093023255813975,
          "durationTicks": 18,
          "midi": 45,
          "name": "A2",
          "ticks": 4891,
          "time": 56.872093023255815,
          "velocity": 0.16535433070866143
        },
        {
          "duration": 0.15116279069766847,
          "durationTicks": 13,
          "midi": 55,
          "name": "G3",
          "ticks": 4909,
          "time": 57.08139534883721,
          "velocity": 0.12598425196850394
        },
        {
          "duration": 0.046511627906973274,
          "durationTicks": 4,
          "midi": 60,
          "name": "C4",
          "ticks": 4918,
          "time": 57.18604651162791,
          "velocity": 0.07086614173228346
        },
        {
          "duration": 0.03488372093023173,
          "durationTicks": 3,
          "midi": 44,
          "name": "G#2",
          "ticks": 4919,
          "time": 57.19767441860465,
          "velocity": 0.09448818897637795
        },
        {
          "duration": 0.1046511627906952,
          "durationTicks": 9,
          "midi": 44,
          "name": "G#2",
          "ticks": 4923,
          "time": 57.24418604651163,
          "velocity": 0.25984251968503935
        },
        {
          "duration": 0.03488372093023173,
          "durationTicks": 3,
          "midi": 45,
          "name": "A2",
          "ticks": 4932,
          "time": 57.348837209302324,
          "velocity": 0.2047244094488189
        },
        {
          "duration": 0.13953488372092693,
          "durationTicks": 12,
          "midi": 45,
          "name": "A2",
          "ticks": 4936,
          "time": 57.395348837209305,
          "velocity": 0.25984251968503935
        },
        {
          "duration": 0.15116279069767558,
          "durationTicks": 13,
          "midi": 44,
          "name": "G#2",
          "ticks": 4948,
          "time": 57.53488372093023,
          "velocity": 0.2677165354330709
        },
        {
          "duration": 0.05813953488372192,
          "durationTicks": 5,
          "midi": 57,
          "name": "A3",
          "ticks": 4953,
          "time": 57.593023255813954,
          "velocity": 0.09448818897637795
        },
        {
          "duration": 0.03488372093023173,
          "durationTicks": 3,
          "midi": 45,
          "name": "A2",
          "ticks": 4961,
          "time": 57.68604651162791,
          "velocity": 0.1889763779527559
        },
        {
          "duration": 0.03488372093023173,
          "durationTicks": 3,
          "midi": 45,
          "name": "A2",
          "ticks": 4966,
          "time": 57.74418604651163,
          "velocity": 0.2440944881889764
        },
        {
          "duration": 0.046511627906973274,
          "durationTicks": 4,
          "midi": 44,
          "name": "G#2",
          "ticks": 4969,
          "time": 57.77906976744186,
          "velocity": 0.25984251968503935
        },
        {
          "duration": 0.04651162790698038,
          "durationTicks": 4,
          "midi": 45,
          "name": "A2",
          "ticks": 4973,
          "time": 57.825581395348834,
          "velocity": 0.2125984251968504
        },
        {
          "duration": 0.05813953488372192,
          "durationTicks": 5,
          "midi": 45,
          "name": "A2",
          "ticks": 4978,
          "time": 57.883720930232556,
          "velocity": 0.2440944881889764
        },
        {
          "duration": 0.02325581395349019,
          "durationTicks": 2,
          "midi": 44,
          "name": "G#2",
          "ticks": 4983,
          "time": 57.94186046511628,
          "velocity": 0.23622047244094488
        },
        {
          "duration": 0.046511627906973274,
          "durationTicks": 4,
          "midi": 45,
          "name": "A2",
          "ticks": 4985,
          "time": 57.96511627906977,
          "velocity": 0.1889763779527559
        },
        {
          "duration": 0.2674418604651123,
          "durationTicks": 23,
          "midi": 45,
          "name": "A2",
          "ticks": 4990,
          "time": 58.02325581395349,
          "velocity": 0.2204724409448819
        },
        {
          "duration": 0.09302325581395365,
          "durationTicks": 8,
          "midi": 86,
          "name": "D6",
          "ticks": 5001,
          "time": 58.151162790697676,
          "velocity": 0.07086614173228346
        },
        {
          "duration": 0.03488372093023173,
          "durationTicks": 3,
          "midi": 45,
          "name": "A2",
          "ticks": 5015,
          "time": 58.31395348837209,
          "velocity": 0.2204724409448819
        },
        {
          "duration": 0.03488372093023173,
          "durationTicks": 3,
          "midi": 44,
          "name": "G#2",
          "ticks": 5018,
          "time": 58.348837209302324,
          "velocity": 0.2440944881889764
        },
        {
          "duration": 0.06976744186047057,
          "durationTicks": 6,
          "midi": 45,
          "name": "A2",
          "ticks": 5021,
          "time": 58.383720930232556,
          "velocity": 0.2440944881889764
        },
        {
          "duration": 0.19767441860464885,
          "durationTicks": 17,
          "midi": 45,
          "name": "A2",
          "ticks": 5028,
          "time": 58.46511627906977,
          "velocity": 0.2204724409448819
        },
        {
          "duration": 0.2093023255813975,
          "durationTicks": 18,
          "midi": 69,
          "name": "A4",
          "ticks": 5032,
          "time": 58.51162790697674,
          "velocity": 0.07874015748031496
        },
        {
          "duration": 0.03488372093023173,
          "durationTicks": 3,
          "midi": 44,
          "name": "G#2",
          "ticks": 5045,
          "time": 58.66279069767442,
          "velocity": 0.18110236220472442
        },
        {
          "duration": 0.3488372093023244,
          "durationTicks": 30,
          "midi": 45,
          "name": "A2",
          "ticks": 5048,
          "time": 58.69767441860465,
          "velocity": 0.2440944881889764
        },
        {
          "duration": 0.03488372093023173,
          "durationTicks": 3,
          "midi": 45,
          "name": "A2",
          "ticks": 5079,
          "time": 59.05813953488372,
          "velocity": 0.18110236220472442
        },
        {
          "duration": 0.05813953488372192,
          "durationTicks": 5,
          "midi": 45,
          "name": "A2",
          "ticks": 5085,
          "time": 59.127906976744185,
          "velocity": 0.1968503937007874
        },
        {
          "duration": 0.08139534883721211,
          "durationTicks": 7,
          "midi": 103,
          "name": "G7",
          "ticks": 5094,
          "time": 59.23255813953488,
          "velocity": 0.10236220472440945
        },
        {
          "duration": 0.05813953488372192,
          "durationTicks": 5,
          "midi": 86,
          "name": "D6",
          "ticks": 5099,
          "time": 59.2906976744186,
          "velocity": 0.09448818897637795
        },
        {
          "duration": 0.03488372093023173,
          "durationTicks": 3,
          "midi": 45,
          "name": "A2",
          "ticks": 5100,
          "time": 59.30232558139535,
          "velocity": 0.13385826771653545
        },
        {
          "duration": 0.27906976744186096,
          "durationTicks": 24,
          "midi": 69,
          "name": "A4",
          "ticks": 5101,
          "time": 59.31395348837209,
          "velocity": 0.10236220472440945
        },
        {
          "duration": 0.09302325581395365,
          "durationTicks": 8,
          "midi": 45,
          "name": "A2",
          "ticks": 5104,
          "time": 59.348837209302324,
          "velocity": 0.18110236220472442
        },
        {
          "duration": 0.081395348837205,
          "durationTicks": 7,
          "midi": 50,
          "name": "D3",
          "ticks": 5113,
          "time": 59.45348837209303,
          "velocity": 0.11811023622047244
        },
        {
          "duration": 0.081395348837205,
          "durationTicks": 7,
          "midi": 50,
          "name": "D3",
          "ticks": 5127,
          "time": 59.616279069767444,
          "velocity": 0.11811023622047244
        },
        {
          "duration": 0.1046511627907023,
          "durationTicks": 9,
          "midi": 50,
          "name": "D3",
          "ticks": 5139,
          "time": 59.75581395348837,
          "velocity": 0.12598425196850394
        },
        {
          "duration": 0.03488372093023173,
          "durationTicks": 3,
          "midi": 44,
          "name": "G#2",
          "ticks": 5159,
          "time": 59.98837209302326,
          "velocity": 0.14173228346456693
        },
        {
          "duration": 0.06976744186046346,
          "durationTicks": 6,
          "midi": 50,
          "name": "D3",
          "ticks": 5160,
          "time": 60,
          "velocity": 0.14960629921259844
        },
        {
          "duration": 0.38372093023255616,
          "durationTicks": 33,
          "midi": 52,
          "name": "E3",
          "ticks": 5167,
          "time": 60.08139534883721,
          "velocity": 0.1968503937007874
        },
        {
          "duration": 0.3139534883720927,
          "durationTicks": 27,
          "midi": 60,
          "name": "C4",
          "ticks": 5173,
          "time": 60.151162790697676,
          "velocity": 0.10236220472440945
        },
        {
          "duration": 0.08139534883721211,
          "durationTicks": 7,
          "midi": 44,
          "name": "G#2",
          "ticks": 5203,
          "time": 60.5,
          "velocity": 0.25196850393700787
        },
        {
          "duration": 0.046511627906973274,
          "durationTicks": 4,
          "midi": 45,
          "name": "A2",
          "ticks": 5210,
          "time": 60.58139534883721,
          "velocity": 0.2204724409448819
        },
        {
          "duration": 0.2093023255813975,
          "durationTicks": 18,
          "midi": 45,
          "name": "A2",
          "ticks": 5215,
          "time": 60.63953488372093,
          "velocity": 0.2440944881889764
        },
        {
          "duration": 0.3372093023255829,
          "durationTicks": 29,
          "midi": 45,
          "name": "A2",
          "ticks": 5235,
          "time": 60.872093023255815,
          "velocity": 0.18110236220472442
        },
        {
          "duration": 0.1279069767441925,
          "durationTicks": 11,
          "midi": 57,
          "name": "A3",
          "ticks": 5266,
          "time": 61.23255813953488,
          "velocity": 0.1889763779527559
        },
        {
          "duration": 0.023255813953483084,
          "durationTicks": 2,
          "midi": 44,
          "name": "G#2",
          "ticks": 5269,
          "time": 61.26744186046512,
          "velocity": 0.2440944881889764
        },
        {
          "duration": 0.06976744186047057,
          "durationTicks": 6,
          "midi": 45,
          "name": "A2",
          "ticks": 5271,
          "time": 61.2906976744186,
          "velocity": 0.25196850393700787
        },
        {
          "duration": 0.19767441860464885,
          "durationTicks": 17,
          "midi": 45,
          "name": "A2",
          "ticks": 5278,
          "time": 61.372093023255815,
          "velocity": 0.23622047244094488
        },
        {
          "duration": 0.03488372093023173,
          "durationTicks": 3,
          "midi": 57,
          "name": "A3",
          "ticks": 5298,
          "time": 61.604651162790695,
          "velocity": 0.09448818897637795
        },
        {
          "duration": 0.1046511627906952,
          "durationTicks": 9,
          "midi": 44,
          "name": "G#2",
          "ticks": 5299,
          "time": 61.616279069767444,
          "velocity": 0.28346456692913385
        },
        {
          "duration": 0.5,
          "durationTicks": 43,
          "midi": 45,
          "name": "A2",
          "ticks": 5316,
          "time": 61.81395348837209,
          "velocity": 0.2125984251968504
        },
        {
          "duration": 0.12790697674418539,
          "durationTicks": 11,
          "midi": 69,
          "name": "A4",
          "ticks": 5347,
          "time": 62.174418604651166,
          "velocity": 0.10236220472440945
        },
        {
          "duration": 0.046511627906973274,
          "durationTicks": 4,
          "midi": 50,
          "name": "D3",
          "ticks": 5375,
          "time": 62.5,
          "velocity": 0.14173228346456693
        },
        {
          "duration": 0.13953488372092693,
          "durationTicks": 12,
          "midi": 69,
          "name": "A4",
          "ticks": 5375,
          "time": 62.5,
          "velocity": 0.16535433070866143
        },
        {
          "duration": 0.04651162790698038,
          "durationTicks": 4,
          "midi": 50,
          "name": "D3",
          "ticks": 5387,
          "time": 62.63953488372093,
          "velocity": 0.09448818897637795
        },
        {
          "duration": 0.04651162790698038,
          "durationTicks": 4,
          "midi": 86,
          "name": "D6",
          "ticks": 5392,
          "time": 62.69767441860465,
          "velocity": 0.12598425196850394
        },
        {
          "duration": 0.1860465116279073,
          "durationTicks": 16,
          "midi": 69,
          "name": "A4",
          "ticks": 5398,
          "time": 62.76744186046512,
          "velocity": 0.07874015748031496
        },
        {
          "duration": 0.046511627906973274,
          "durationTicks": 4,
          "midi": 86,
          "name": "D6",
          "ticks": 5399,
          "time": 62.77906976744186,
          "velocity": 0.10236220472440945
        },
        {
          "duration": 0.03488372093023173,
          "durationTicks": 3,
          "midi": 56,
          "name": "G#3",
          "ticks": 5408,
          "time": 62.883720930232556,
          "velocity": 0.18110236220472442
        },
        {
          "duration": 0.081395348837205,
          "durationTicks": 7,
          "midi": 44,
          "name": "G#2",
          "ticks": 5409,
          "time": 62.895348837209305,
          "velocity": 0.25196850393700787
        },
        {
          "duration": 0.1860465116279073,
          "durationTicks": 16,
          "midi": 57,
          "name": "A3",
          "ticks": 5411,
          "time": 62.91860465116279,
          "velocity": 0.11811023622047244
        },
        {
          "duration": 0.04651162790698038,
          "durationTicks": 4,
          "midi": 45,
          "name": "A2",
          "ticks": 5416,
          "time": 62.97674418604651,
          "velocity": 0.2125984251968504
        },
        {
          "duration": 0.05813953488372192,
          "durationTicks": 5,
          "midi": 45,
          "name": "A2",
          "ticks": 5422,
          "time": 63.04651162790697,
          "velocity": 0.2440944881889764
        },
        {
          "duration": 0.09302325581395365,
          "durationTicks": 8,
          "midi": 44,
          "name": "G#2",
          "ticks": 5427,
          "time": 63.104651162790695,
          "velocity": 0.1889763779527559
        },
        {
          "duration": 0.15116279069767558,
          "durationTicks": 13,
          "midi": 44,
          "name": "G#2",
          "ticks": 5439,
          "time": 63.24418604651163,
          "velocity": 0.15748031496062992
        },
        {
          "duration": 0.04651162790698038,
          "durationTicks": 4,
          "midi": 86,
          "name": "D6",
          "ticks": 5440,
          "time": 63.25581395348837,
          "velocity": 0.11811023622047244
        },
        {
          "duration": 0.11627906976744384,
          "durationTicks": 10,
          "midi": 86,
          "name": "D6",
          "ticks": 5448,
          "time": 63.348837209302324,
          "velocity": 0.13385826771653545
        },
        {
          "duration": 0.06976744186046346,
          "durationTicks": 6,
          "midi": 44,
          "name": "G#2",
          "ticks": 5455,
          "time": 63.43023255813954,
          "velocity": 0.1889763779527559
        },
        {
          "duration": 0.11627906976743674,
          "durationTicks": 10,
          "midi": 43,
          "name": "G2",
          "ticks": 5471,
          "time": 63.616279069767444,
          "velocity": 0.1968503937007874
        },
        {
          "duration": 0.03488372093023173,
          "durationTicks": 3,
          "midi": 43,
          "name": "G2",
          "ticks": 5483,
          "time": 63.75581395348837,
          "velocity": 0.12598425196850394
        },
        {
          "duration": 0.05813953488372192,
          "durationTicks": 5,
          "midi": 43,
          "name": "G2",
          "ticks": 5487,
          "time": 63.80232558139535,
          "velocity": 0.09448818897637795
        },
        {
          "duration": 0.03488372093023173,
          "durationTicks": 3,
          "midi": 43,
          "name": "G2",
          "ticks": 5494,
          "time": 63.883720930232556,
          "velocity": 0.11811023622047244
        },
        {
          "duration": 0.06976744186046346,
          "durationTicks": 6,
          "midi": 44,
          "name": "G#2",
          "ticks": 5499,
          "time": 63.94186046511628,
          "velocity": 0.18110236220472442
        },
        {
          "duration": 0.11627906976744384,
          "durationTicks": 10,
          "midi": 57,
          "name": "A3",
          "ticks": 5504,
          "time": 64,
          "velocity": 0.12598425196850394
        },
        {
          "duration": 0.04651162790696617,
          "durationTicks": 4,
          "midi": 45,
          "name": "A2",
          "ticks": 5508,
          "time": 64.04651162790698,
          "velocity": 0.14960629921259844
        },
        {
          "duration": 0.05813953488372192,
          "durationTicks": 5,
          "midi": 56,
          "name": "G#3",
          "ticks": 5515,
          "time": 64.12790697674419,
          "velocity": 0.1889763779527559
        },
        {
          "duration": 0.19767441860464885,
          "durationTicks": 17,
          "midi": 69,
          "name": "A4",
          "ticks": 5518,
          "time": 64.16279069767442,
          "velocity": 0.12598425196850394
        },
        {
          "duration": 0.17441860465116577,
          "durationTicks": 15,
          "midi": 57,
          "name": "A3",
          "ticks": 5520,
          "time": 64.18604651162791,
          "velocity": 0.1732283464566929
        },
        {
          "duration": 0.09302325581394655,
          "durationTicks": 8,
          "midi": 52,
          "name": "E3",
          "ticks": 5550,
          "time": 64.53488372093024,
          "velocity": 0.08661417322834646
        },
        {
          "duration": 0.10465116279068809,
          "durationTicks": 9,
          "midi": 59,
          "name": "B3",
          "ticks": 5551,
          "time": 64.54651162790698,
          "velocity": 0.10236220472440945
        },
        {
          "duration": 0.03488372093023884,
          "durationTicks": 3,
          "midi": 52,
          "name": "E3",
          "ticks": 5559,
          "time": 64.63953488372093,
          "velocity": 0.11811023622047244
        },
        {
          "duration": 0.034883720930224626,
          "durationTicks": 3,
          "midi": 53,
          "name": "F3",
          "ticks": 5562,
          "time": 64.67441860465117,
          "velocity": 0.09448818897637795
        },
        {
          "duration": 0.10465116279068809,
          "durationTicks": 9,
          "midi": 58,
          "name": "A#3",
          "ticks": 5583,
          "time": 64.9186046511628,
          "velocity": 0.07874015748031496
        },
        {
          "duration": 0.12790697674418539,
          "durationTicks": 11,
          "midi": 70,
          "name": "A#4",
          "ticks": 5583,
          "time": 64.9186046511628,
          "velocity": 0.14960629921259844
        },
        {
          "duration": 0.03488372093023884,
          "durationTicks": 3,
          "midi": 56,
          "name": "G#3",
          "ticks": 5596,
          "time": 65.06976744186046,
          "velocity": 0.08661417322834646
        },
        {
          "duration": 0.04651162790698038,
          "durationTicks": 4,
          "midi": 44,
          "name": "G#2",
          "ticks": 5598,
          "time": 65.09302325581395,
          "velocity": 0.10236220472440945
        },
        {
          "duration": 0.09302325581394655,
          "durationTicks": 8,
          "midi": 69,
          "name": "A4",
          "ticks": 5599,
          "time": 65.1046511627907,
          "velocity": 0.16535433070866143
        },
        {
          "duration": 0.03488372093023884,
          "durationTicks": 3,
          "midi": 56,
          "name": "G#3",
          "ticks": 5613,
          "time": 65.26744186046511,
          "velocity": 0.25196850393700787
        },
        {
          "duration": 0.081395348837205,
          "durationTicks": 7,
          "midi": 44,
          "name": "G#2",
          "ticks": 5615,
          "time": 65.29069767441861,
          "velocity": 0.2440944881889764
        },
        {
          "duration": 0.17441860465116577,
          "durationTicks": 15,
          "midi": 57,
          "name": "A3",
          "ticks": 5616,
          "time": 65.30232558139535,
          "velocity": 0.2047244094488189
        },
        {
          "duration": 0.03488372093023884,
          "durationTicks": 3,
          "midi": 45,
          "name": "A2",
          "ticks": 5622,
          "time": 65.37209302325581,
          "velocity": 0.18110236220472442
        },
        {
          "duration": 0.05813953488372192,
          "durationTicks": 5,
          "midi": 45,
          "name": "A2",
          "ticks": 5627,
          "time": 65.43023255813954,
          "velocity": 0.2283464566929134
        },
        {
          "duration": 0.2674418604651123,
          "durationTicks": 23,
          "midi": 69,
          "name": "A4",
          "ticks": 5633,
          "time": 65.5,
          "velocity": 0.11023622047244094
        },
        {
          "duration": 0.06976744186046346,
          "durationTicks": 6,
          "midi": 45,
          "name": "A2",
          "ticks": 5634,
          "time": 65.51162790697674,
          "velocity": 0.18110236220472442
        },
        {
          "duration": 0.22093023255814614,
          "durationTicks": 19,
          "midi": 45,
          "name": "A2",
          "ticks": 5641,
          "time": 65.59302325581395,
          "velocity": 0.2283464566929134
        },
        {
          "duration": 0.03488372093023884,
          "durationTicks": 3,
          "midi": 56,
          "name": "G#3",
          "ticks": 5655,
          "time": 65.75581395348837,
          "velocity": 0.09448818897637795
        },
        {
          "duration": 0.03488372093023884,
          "durationTicks": 3,
          "midi": 44,
          "name": "G#2",
          "ticks": 5660,
          "time": 65.81395348837209,
          "velocity": 0.2047244094488189
        },
        {
          "duration": 0.5232558139534831,
          "durationTicks": 45,
          "midi": 45,
          "name": "A2",
          "ticks": 5663,
          "time": 65.84883720930233,
          "velocity": 0.2440944881889764
        },
        {
          "duration": 0.04651162790698038,
          "durationTicks": 4,
          "midi": 44,
          "name": "G#2",
          "ticks": 5708,
          "time": 66.37209302325581,
          "velocity": 0.2125984251968504
        },
        {
          "duration": 0.03488372093023884,
          "durationTicks": 3,
          "midi": 45,
          "name": "A2",
          "ticks": 5714,
          "time": 66.44186046511628,
          "velocity": 0.25984251968503935
        },
        {
          "duration": 0.023255813953483084,
          "durationTicks": 2,
          "midi": 44,
          "name": "G#2",
          "ticks": 5717,
          "time": 66.47674418604652,
          "velocity": 0.2677165354330709
        },
        {
          "duration": 0.418604651162795,
          "durationTicks": 36,
          "midi": 45,
          "name": "A2",
          "ticks": 5719,
          "time": 66.5,
          "velocity": 0.25984251968503935
        },
        {
          "duration": 0.13953488372092693,
          "durationTicks": 12,
          "midi": 44,
          "name": "G#2",
          "ticks": 5755,
          "time": 66.9186046511628,
          "velocity": 0.25984251968503935
        },
        {
          "duration": 0.2906976744186096,
          "durationTicks": 25,
          "midi": 69,
          "name": "A4",
          "ticks": 5770,
          "time": 67.09302325581395,
          "velocity": 0.09448818897637795
        },
        {
          "duration": 0.034883720930224626,
          "durationTicks": 3,
          "midi": 45,
          "name": "A2",
          "ticks": 5771,
          "time": 67.1046511627907,
          "velocity": 0.2283464566929134
        },
        {
          "duration": 0.27906976744185386,
          "durationTicks": 24,
          "midi": 45,
          "name": "A2",
          "ticks": 5776,
          "time": 67.16279069767442,
          "velocity": 0.2125984251968504
        },
        {
          "duration": 0.06976744186046346,
          "durationTicks": 6,
          "midi": 44,
          "name": "G#2",
          "ticks": 5800,
          "time": 67.44186046511628,
          "velocity": 0.1968503937007874
        },
        {
          "duration": 0.04651162790698038,
          "durationTicks": 4,
          "midi": 69,
          "name": "A4",
          "ticks": 5802,
          "time": 67.46511627906976,
          "velocity": 0.08661417322834646
        },
        {
          "duration": 0.023255813953497295,
          "durationTicks": 2,
          "midi": 56,
          "name": "G#3",
          "ticks": 5806,
          "time": 67.51162790697674,
          "velocity": 0.25196850393700787
        },
        {
          "duration": 0.22093023255813193,
          "durationTicks": 19,
          "midi": 57,
          "name": "A3",
          "ticks": 5808,
          "time": 67.53488372093024,
          "velocity": 0.2204724409448819
        },
        {
          "duration": 0.023255813953483084,
          "durationTicks": 2,
          "midi": 44,
          "name": "G#2",
          "ticks": 5809,
          "time": 67.54651162790698,
          "velocity": 0.2283464566929134
        },
        {
          "duration": 1.941860465116278,
          "durationTicks": 167,
          "midi": 45,
          "name": "A2",
          "ticks": 5811,
          "time": 67.56976744186046,
          "velocity": 0.2440944881889764
        },
        {
          "duration": 0.3488372093023173,
          "durationTicks": 30,
          "midi": 53,
          "name": "F3",
          "ticks": 5826,
          "time": 67.74418604651163,
          "velocity": 0.09448818897637795
        },
        {
          "duration": 0.5,
          "durationTicks": 43,
          "midi": 53,
          "name": "F3",
          "ticks": 5874,
          "time": 68.30232558139535,
          "velocity": 0.08661417322834646
        },
        {
          "duration": 0.023255813953497295,
          "durationTicks": 2,
          "midi": 56,
          "name": "G#3",
          "ticks": 5979,
          "time": 69.52325581395348,
          "velocity": 0.2283464566929134
        },
        {
          "duration": 0.3139534883720927,
          "durationTicks": 27,
          "midi": 69,
          "name": "A4",
          "ticks": 5980,
          "time": 69.53488372093024,
          "velocity": 0.14173228346456693
        },
        {
          "duration": 0.10465116279068809,
          "durationTicks": 9,
          "midi": 57,
          "name": "A3",
          "ticks": 5981,
          "time": 69.54651162790698,
          "velocity": 0.1968503937007874
        },
        {
          "duration": 0.2093023255814046,
          "durationTicks": 18,
          "midi": 53,
          "name": "F3",
          "ticks": 5994,
          "time": 69.69767441860465,
          "velocity": 0.14173228346456693
        },
        {
          "duration": 0.034883720930224626,
          "durationTicks": 3,
          "midi": 44,
          "name": "G#2",
          "ticks": 6003,
          "time": 69.80232558139535,
          "velocity": 0.07086614173228346
        },
        {
          "duration": 0.3139534883720927,
          "durationTicks": 27,
          "midi": 57,
          "name": "A3",
          "ticks": 6006,
          "time": 69.83720930232558,
          "velocity": 0.2283464566929134
        },
        {
          "duration": 0.12790697674418539,
          "durationTicks": 11,
          "midi": 55,
          "name": "G3",
          "ticks": 6042,
          "time": 70.25581395348837,
          "velocity": 0.2440944881889764
        },
        {
          "duration": 0.06976744186046346,
          "durationTicks": 6,
          "midi": 44,
          "name": "G#2",
          "ticks": 6057,
          "time": 70.43023255813954,
          "velocity": 0.25984251968503935
        },
        {
          "duration": 0.16279069767442422,
          "durationTicks": 14,
          "midi": 57,
          "name": "A3",
          "ticks": 6058,
          "time": 70.44186046511628,
          "velocity": 0.15748031496062992
        },
        {
          "duration": 0.04651162790698038,
          "durationTicks": 4,
          "midi": 45,
          "name": "A2",
          "ticks": 6063,
          "time": 70.5,
          "velocity": 0.2283464566929134
        },
        {
          "duration": 0.5232558139534831,
          "durationTicks": 45,
          "midi": 45,
          "name": "A2",
          "ticks": 6069,
          "time": 70.56976744186046,
          "velocity": 0.2283464566929134
        },
        {
          "duration": 0.03488372093023884,
          "durationTicks": 3,
          "midi": 55,
          "name": "G3",
          "ticks": 6074,
          "time": 70.62790697674419,
          "velocity": 0.1732283464566929
        },
        {
          "duration": 0.034883720930224626,
          "durationTicks": 3,
          "midi": 55,
          "name": "G3",
          "ticks": 6078,
          "time": 70.67441860465117,
          "velocity": 0.16535433070866143
        },
        {
          "duration": 0.04651162790698038,
          "durationTicks": 4,
          "midi": 56,
          "name": "G#3",
          "ticks": 6081,
          "time": 70.70930232558139,
          "velocity": 0.1968503937007874
        },
        {
          "duration": 0.4418604651162781,
          "durationTicks": 38,
          "midi": 69,
          "name": "A4",
          "ticks": 6104,
          "time": 70.97674418604652,
          "velocity": 0.11811023622047244
        },
        {
          "duration": 0.09302325581396076,
          "durationTicks": 8,
          "midi": 44,
          "name": "G#2",
          "ticks": 6118,
          "time": 71.13953488372093,
          "velocity": 0.2440944881889764
        },
        {
          "duration": 0.04651162790696617,
          "durationTicks": 4,
          "midi": 45,
          "name": "A2",
          "ticks": 6126,
          "time": 71.23255813953489,
          "velocity": 0.2125984251968504
        },
        {
          "duration": 0.5348837209302246,
          "durationTicks": 46,
          "midi": 45,
          "name": "A2",
          "ticks": 6132,
          "time": 71.30232558139535,
          "velocity": 0.23622047244094488
        },
        {
          "duration": 0.03488372093023884,
          "durationTicks": 3,
          "midi": 56,
          "name": "G#3",
          "ticks": 6181,
          "time": 71.87209302325581,
          "velocity": 0.1732283464566929
        },
        {
          "duration": 0.06976744186046346,
          "durationTicks": 6,
          "midi": 44,
          "name": "G#2",
          "ticks": 6183,
          "time": 71.8953488372093,
          "velocity": 0.25196850393700787
        },
        {
          "duration": 0.04651162790698038,
          "durationTicks": 4,
          "midi": 45,
          "name": "A2",
          "ticks": 6189,
          "time": 71.96511627906976,
          "velocity": 0.2204724409448819
        },
        {
          "duration": 0.19767441860464885,
          "durationTicks": 17,
          "midi": 45,
          "name": "A2",
          "ticks": 6195,
          "time": 72.03488372093024,
          "velocity": 0.2125984251968504
        },
        {
          "duration": 0.11627906976744384,
          "durationTicks": 10,
          "midi": 45,
          "name": "A2",
          "ticks": 6213,
          "time": 72.24418604651163,
          "velocity": 0.2047244094488189
        },
        {
          "duration": 0.081395348837205,
          "durationTicks": 7,
          "midi": 44,
          "name": "G#2",
          "ticks": 6223,
          "time": 72.36046511627907,
          "velocity": 0.1968503937007874
        },
        {
          "duration": 0.05813953488372192,
          "durationTicks": 5,
          "midi": 57,
          "name": "A3",
          "ticks": 6225,
          "time": 72.38372093023256,
          "velocity": 0.23622047244094488
        },
        {
          "duration": 0.16279069767442422,
          "durationTicks": 14,
          "midi": 57,
          "name": "A3",
          "ticks": 6231,
          "time": 72.45348837209302,
          "velocity": 0.2440944881889764
        },
        {
          "duration": 0.03488372093023884,
          "durationTicks": 3,
          "midi": 44,
          "name": "G#2",
          "ticks": 6262,
          "time": 72.81395348837209,
          "velocity": 0.07874015748031496
        },
        {
          "duration": 0.10465116279068809,
          "durationTicks": 9,
          "midi": 57,
          "name": "A3",
          "ticks": 6271,
          "time": 72.9186046511628,
          "velocity": 0.16535433070866143
        },
        {
          "duration": 0.034883720930224626,
          "durationTicks": 3,
          "midi": 44,
          "name": "G#2",
          "ticks": 6272,
          "time": 72.93023255813954,
          "velocity": 0.09448818897637795
        },
        {
          "duration": 0.06976744186046346,
          "durationTicks": 6,
          "midi": 44,
          "name": "G#2",
          "ticks": 6277,
          "time": 72.98837209302326,
          "velocity": 0.23622047244094488
        },
        {
          "duration": 0.24418604651162923,
          "durationTicks": 21,
          "midi": 45,
          "name": "A2",
          "ticks": 6283,
          "time": 73.05813953488372,
          "velocity": 0.23622047244094488
        },
        {
          "duration": 0.081395348837205,
          "durationTicks": 7,
          "midi": 57,
          "name": "A3",
          "ticks": 6305,
          "time": 73.31395348837209,
          "velocity": 0.12598425196850394
        },
        {
          "duration": 0.03488372093023884,
          "durationTicks": 3,
          "midi": 43,
          "name": "G2",
          "ticks": 6306,
          "time": 73.32558139534883,
          "velocity": 0.1889763779527559
        },
        {
          "duration": 0.06976744186046346,
          "durationTicks": 6,
          "midi": 44,
          "name": "G#2",
          "ticks": 6309,
          "time": 73.36046511627907,
          "velocity": 0.2440944881889764
        },
        {
          "duration": 0.04651162790698038,
          "durationTicks": 4,
          "midi": 45,
          "name": "A2",
          "ticks": 6315,
          "time": 73.43023255813954,
          "velocity": 0.2125984251968504
        },
        {
          "duration": 0.5,
          "durationTicks": 43,
          "midi": 45,
          "name": "A2",
          "ticks": 6321,
          "time": 73.5,
          "velocity": 0.2047244094488189
        },
        {
          "duration": 0.03488372093023884,
          "durationTicks": 3,
          "midi": 56,
          "name": "G#3",
          "ticks": 6353,
          "time": 73.87209302325581,
          "velocity": 0.2125984251968504
        },
        {
          "duration": 0.46511627906976116,
          "durationTicks": 40,
          "midi": 69,
          "name": "A4",
          "ticks": 6353,
          "time": 73.87209302325581,
          "velocity": 0.1889763779527559
        },
        {
          "duration": 0.12790697674418539,
          "durationTicks": 11,
          "midi": 44,
          "name": "G#2",
          "ticks": 6364,
          "time": 74,
          "velocity": 0.2440944881889764
        },
        {
          "duration": 0.05813953488372192,
          "durationTicks": 5,
          "midi": 45,
          "name": "A2",
          "ticks": 6375,
          "time": 74.12790697674419,
          "velocity": 0.23622047244094488
        },
        {
          "duration": 0.5116279069767558,
          "durationTicks": 44,
          "midi": 45,
          "name": "A2",
          "ticks": 6382,
          "time": 74.20930232558139,
          "velocity": 0.2047244094488189
        },
        {
          "duration": 0.034883720930224626,
          "durationTicks": 3,
          "midi": 56,
          "name": "G#3",
          "ticks": 6399,
          "time": 74.40697674418605,
          "velocity": 0.15748031496062992
        },
        {
          "duration": 1.3372093023255758,
          "durationTicks": 115,
          "midi": 69,
          "name": "A4",
          "ticks": 6400,
          "time": 74.4186046511628,
          "velocity": 0.18110236220472442
        },
        {
          "duration": 0.034883720930224626,
          "durationTicks": 3,
          "midi": 44,
          "name": "G#2",
          "ticks": 6426,
          "time": 74.72093023255815,
          "velocity": 0.15748031496062992
        },
        {
          "duration": 0.04651162790698038,
          "durationTicks": 4,
          "midi": 43,
          "name": "G2",
          "ticks": 6429,
          "time": 74.75581395348837,
          "velocity": 0.1732283464566929
        },
        {
          "duration": 0.05813953488372192,
          "durationTicks": 5,
          "midi": 44,
          "name": "G#2",
          "ticks": 6433,
          "time": 74.80232558139535,
          "velocity": 0.23622047244094488
        },
        {
          "duration": 0.2674418604651123,
          "durationTicks": 23,
          "midi": 57,
          "name": "A3",
          "ticks": 6433,
          "time": 74.80232558139535,
          "velocity": 0.16535433070866143
        },
        {
          "duration": 0.06976744186046346,
          "durationTicks": 6,
          "midi": 45,
          "name": "A2",
          "ticks": 6438,
          "time": 74.86046511627907,
          "velocity": 0.2047244094488189
        },
        {
          "duration": 0.19767441860464885,
          "durationTicks": 17,
          "midi": 45,
          "name": "A2",
          "ticks": 6445,
          "time": 74.94186046511628,
          "velocity": 0.2047244094488189
        },
        {
          "duration": 0.12790697674418539,
          "durationTicks": 11,
          "midi": 45,
          "name": "A2",
          "ticks": 6463,
          "time": 75.15116279069767,
          "velocity": 0.14173228346456693
        },
        {
          "duration": 0.12790697674418539,
          "durationTicks": 11,
          "midi": 57,
          "name": "A3",
          "ticks": 6463,
          "time": 75.15116279069767,
          "velocity": 0.1732283464566929
        },
        {
          "duration": 0.04651162790698038,
          "durationTicks": 4,
          "midi": 44,
          "name": "G#2",
          "ticks": 6474,
          "time": 75.27906976744185,
          "velocity": 0.08661417322834646
        },
        {
          "duration": 0.04651162790696617,
          "durationTicks": 4,
          "midi": 57,
          "name": "A3",
          "ticks": 6475,
          "time": 75.29069767441861,
          "velocity": 0.1732283464566929
        },
        {
          "duration": 0.04651162790696617,
          "durationTicks": 4,
          "midi": 44,
          "name": "G#2",
          "ticks": 6480,
          "time": 75.34883720930233,
          "velocity": 0.2283464566929134
        },
        {
          "duration": 0.2093023255813904,
          "durationTicks": 18,
          "midi": 57,
          "name": "A3",
          "ticks": 6481,
          "time": 75.36046511627907,
          "velocity": 0.14173228346456693
        },
        {
          "duration": 0.4418604651162781,
          "durationTicks": 38,
          "midi": 45,
          "name": "A2",
          "ticks": 6484,
          "time": 75.3953488372093,
          "velocity": 0.2283464566929134
        },
        {
          "duration": 0.09302325581396076,
          "durationTicks": 8,
          "midi": 44,
          "name": "G#2",
          "ticks": 6526,
          "time": 75.88372093023256,
          "velocity": 0.2440944881889764
        },
        {
          "duration": 0.38372093023255616,
          "durationTicks": 33,
          "midi": 69,
          "name": "A4",
          "ticks": 6527,
          "time": 75.8953488372093,
          "velocity": 0.15748031496062992
        },
        {
          "duration": 0.034883720930224626,
          "durationTicks": 3,
          "midi": 45,
          "name": "A2",
          "ticks": 6534,
          "time": 75.97674418604652,
          "velocity": 0.1732283464566929
        },
        {
          "duration": 0.12790697674418539,
          "durationTicks": 11,
          "midi": 57,
          "name": "A3",
          "ticks": 6539,
          "time": 76.03488372093024,
          "velocity": 0.16535433070866143
        },
        {
          "duration": 0.04651162790696617,
          "durationTicks": 4,
          "midi": 45,
          "name": "A2",
          "ticks": 6540,
          "time": 76.04651162790698,
          "velocity": 0.15748031496062992
        },
        {
          "duration": 0.09302325581394655,
          "durationTicks": 8,
          "midi": 45,
          "name": "A2",
          "ticks": 6545,
          "time": 76.1046511627907,
          "velocity": 0.2047244094488189
        },
        {
          "duration": 0.06976744186046346,
          "durationTicks": 6,
          "midi": 44,
          "name": "G#2",
          "ticks": 6558,
          "time": 76.25581395348837,
          "velocity": 0.2440944881889764
        },
        {
          "duration": 0.15116279069768268,
          "durationTicks": 13,
          "midi": 57,
          "name": "A3",
          "ticks": 6558,
          "time": 76.25581395348837,
          "velocity": 0.16535433070866143
        },
        {
          "duration": 0.05813953488372192,
          "durationTicks": 5,
          "midi": 45,
          "name": "A2",
          "ticks": 6564,
          "time": 76.32558139534883,
          "velocity": 0.2125984251968504
        },
        {
          "duration": 0.4767441860465027,
          "durationTicks": 41,
          "midi": 45,
          "name": "A2",
          "ticks": 6571,
          "time": 76.40697674418605,
          "velocity": 0.2125984251968504
        },
        {
          "duration": 0.2906976744185954,
          "durationTicks": 25,
          "midi": 69,
          "name": "A4",
          "ticks": 6572,
          "time": 76.4186046511628,
          "velocity": 0.11023622047244094
        },
        {
          "duration": 0.03488372093023884,
          "durationTicks": 3,
          "midi": 56,
          "name": "G#3",
          "ticks": 6602,
          "time": 76.76744186046511,
          "velocity": 0.1889763779527559
        },
        {
          "duration": 0.4534883720930196,
          "durationTicks": 39,
          "midi": 57,
          "name": "A3",
          "ticks": 6605,
          "time": 76.80232558139535,
          "velocity": 0.2204724409448819
        },
        {
          "duration": 0.1046511627907023,
          "durationTicks": 9,
          "midi": 44,
          "name": "G#2",
          "ticks": 6612,
          "time": 76.88372093023256,
          "velocity": 0.18110236220472442
        },
        {
          "duration": 0.5232558139534831,
          "durationTicks": 45,
          "midi": 45,
          "name": "A2",
          "ticks": 6621,
          "time": 76.98837209302326,
          "velocity": 0.2204724409448819
        },
        {
          "duration": 0.17441860465116577,
          "durationTicks": 15,
          "midi": 69,
          "name": "A4",
          "ticks": 6650,
          "time": 77.32558139534883,
          "velocity": 0.09448818897637795
        },
        {
          "duration": 0.09302325581396076,
          "durationTicks": 8,
          "midi": 45,
          "name": "A2",
          "ticks": 6667,
          "time": 77.52325581395348,
          "velocity": 0.16535433070866143
        },
        {
          "duration": 0.15116279069766847,
          "durationTicks": 13,
          "midi": 44,
          "name": "G#2",
          "ticks": 6675,
          "time": 77.61627906976744,
          "velocity": 0.2440944881889764
        },
        {
          "duration": 0.04651162790698038,
          "durationTicks": 4,
          "midi": 57,
          "name": "A3",
          "ticks": 6676,
          "time": 77.62790697674419,
          "velocity": 0.14960629921259844
        },
        {
          "duration": 0.34883720930233153,
          "durationTicks": 30,
          "midi": 57,
          "name": "A3",
          "ticks": 6683,
          "time": 77.70930232558139,
          "velocity": 0.16535433070866143
        },
        {
          "duration": 0.05813953488372192,
          "durationTicks": 5,
          "midi": 45,
          "name": "A2",
          "ticks": 6688,
          "time": 77.76744186046511,
          "velocity": 0.1968503937007874
        },
        {
          "duration": 0.32558139534884845,
          "durationTicks": 28,
          "midi": 45,
          "name": "A2",
          "ticks": 6694,
          "time": 77.83720930232558,
          "velocity": 0.1968503937007874
        },
        {
          "duration": 0.04651162790698038,
          "durationTicks": 4,
          "midi": 69,
          "name": "A4",
          "ticks": 6720,
          "time": 78.13953488372093,
          "velocity": 0.07874015748031496
        },
        {
          "duration": 0.06976744186046346,
          "durationTicks": 6,
          "midi": 44,
          "name": "G#2",
          "ticks": 6722,
          "time": 78.16279069767442,
          "velocity": 0.12598425196850394
        },
        {
          "duration": 0.1046511627907023,
          "durationTicks": 9,
          "midi": 45,
          "name": "A2",
          "ticks": 6731,
          "time": 78.26744186046511,
          "velocity": 0.23622047244094488
        },
        {
          "duration": 0.32558139534883423,
          "durationTicks": 28,
          "midi": 45,
          "name": "A2",
          "ticks": 6741,
          "time": 78.38372093023256,
          "velocity": 0.23622047244094488
        },
        {
          "duration": 0.04651162790698038,
          "durationTicks": 4,
          "midi": 44,
          "name": "G#2",
          "ticks": 6769,
          "time": 78.70930232558139,
          "velocity": 0.14173228346456693
        },
        {
          "duration": 0.2906976744186096,
          "durationTicks": 25,
          "midi": 57,
          "name": "A3",
          "ticks": 6774,
          "time": 78.76744186046511,
          "velocity": 0.15748031496062992
        },
        {
          "duration": 0.09302325581396076,
          "durationTicks": 8,
          "midi": 44,
          "name": "G#2",
          "ticks": 6775,
          "time": 78.77906976744185,
          "velocity": 0.25196850393700787
        },
        {
          "duration": 0.03488372093023884,
          "durationTicks": 3,
          "midi": 45,
          "name": "A2",
          "ticks": 6783,
          "time": 78.87209302325581,
          "velocity": 0.18110236220472442
        },
        {
          "duration": 0.04651162790698038,
          "durationTicks": 4,
          "midi": 45,
          "name": "A2",
          "ticks": 6788,
          "time": 78.93023255813954,
          "velocity": 0.2283464566929134
        },
        {
          "duration": 0.081395348837205,
          "durationTicks": 7,
          "midi": 45,
          "name": "A2",
          "ticks": 6793,
          "time": 78.98837209302326,
          "velocity": 0.2204724409448819
        },
        {
          "duration": 0.05813953488372192,
          "durationTicks": 5,
          "midi": 44,
          "name": "G#2",
          "ticks": 6800,
          "time": 79.06976744186046,
          "velocity": 0.14173228346456693
        },
        {
          "duration": 0.03488372093023884,
          "durationTicks": 3,
          "midi": 43,
          "name": "G2",
          "ticks": 6805,
          "time": 79.12790697674419,
          "velocity": 0.11811023622047244
        },
        {
          "duration": 0.4767441860465169,
          "durationTicks": 41,
          "midi": 57,
          "name": "A3",
          "ticks": 6807,
          "time": 79.15116279069767,
          "velocity": 0.2204724409448819
        },
        {
          "duration": 0.081395348837205,
          "durationTicks": 7,
          "midi": 44,
          "name": "G#2",
          "ticks": 6808,
          "time": 79.16279069767442,
          "velocity": 0.2204724409448819
        },
        {
          "duration": 0.034883720930224626,
          "durationTicks": 3,
          "midi": 45,
          "name": "A2",
          "ticks": 6815,
          "time": 79.24418604651163,
          "velocity": 0.15748031496062992
        },
        {
          "duration": 0.2906976744186096,
          "durationTicks": 25,
          "midi": 45,
          "name": "A2",
          "ticks": 6823,
          "time": 79.33720930232558,
          "velocity": 0.16535433070866143
        },
        {
          "duration": 0.03488372093023884,
          "durationTicks": 3,
          "midi": 56,
          "name": "G#3",
          "ticks": 6853,
          "time": 79.68604651162791,
          "velocity": 0.2047244094488189
        },
        {
          "duration": 0.09302325581396076,
          "durationTicks": 8,
          "midi": 44,
          "name": "G#2",
          "ticks": 6854,
          "time": 79.69767441860465,
          "velocity": 0.25196850393700787
        },
        {
          "duration": 0.19767441860464885,
          "durationTicks": 17,
          "midi": 57,
          "name": "A3",
          "ticks": 6856,
          "time": 79.72093023255815,
          "velocity": 0.14173228346456693
        },
        {
          "duration": 0.034883720930224626,
          "durationTicks": 3,
          "midi": 45,
          "name": "A2",
          "ticks": 6862,
          "time": 79.79069767441861,
          "velocity": 0.18110236220472442
        },
        {
          "duration": 0.3372093023255758,
          "durationTicks": 29,
          "midi": 45,
          "name": "A2",
          "ticks": 6867,
          "time": 79.84883720930233,
          "velocity": 0.2440944881889764
        },
        {
          "duration": 0.04651162790698038,
          "durationTicks": 4,
          "midi": 44,
          "name": "G#2",
          "ticks": 6896,
          "time": 80.18604651162791,
          "velocity": 0.1732283464566929
        },
        {
          "duration": 0.034883720930224626,
          "durationTicks": 3,
          "midi": 43,
          "name": "G2",
          "ticks": 6900,
          "time": 80.23255813953489,
          "velocity": 0.12598425196850394
        },
        {
          "duration": 0.38372093023255616,
          "durationTicks": 33,
          "midi": 57,
          "name": "A3",
          "ticks": 6900,
          "time": 80.23255813953489,
          "velocity": 0.2204724409448819
        },
        {
          "duration": 0.08139534883721922,
          "durationTicks": 7,
          "midi": 44,
          "name": "G#2",
          "ticks": 6903,
          "time": 80.26744186046511,
          "velocity": 0.2283464566929134
        },
        {
          "duration": 0.04651162790696617,
          "durationTicks": 4,
          "midi": 45,
          "name": "A2",
          "ticks": 6910,
          "time": 80.34883720930233,
          "velocity": 0.1732283464566929
        },
        {
          "duration": 0.03488372093023884,
          "durationTicks": 3,
          "midi": 44,
          "name": "G#2",
          "ticks": 6918,
          "time": 80.44186046511628,
          "velocity": 0.2047244094488189
        },
        {
          "duration": 0.04651162790696617,
          "durationTicks": 4,
          "midi": 45,
          "name": "A2",
          "ticks": 6921,
          "time": 80.47674418604652,
          "velocity": 0.12598425196850394
        },
        {
          "duration": 0.19767441860464885,
          "durationTicks": 17,
          "midi": 45,
          "name": "A2",
          "ticks": 6927,
          "time": 80.54651162790698,
          "velocity": 0.1968503937007874
        },
        {
          "duration": 0.04651162790698038,
          "durationTicks": 4,
          "midi": 44,
          "name": "G#2",
          "ticks": 6949,
          "time": 80.80232558139535,
          "velocity": 0.2283464566929134
        },
        {
          "duration": 0.17441860465116577,
          "durationTicks": 15,
          "midi": 57,
          "name": "A3",
          "ticks": 6950,
          "time": 80.81395348837209,
          "velocity": 0.1889763779527559
        },
        {
          "duration": 0.06976744186046346,
          "durationTicks": 6,
          "midi": 45,
          "name": "A2",
          "ticks": 6953,
          "time": 80.84883720930233,
          "velocity": 0.2283464566929134
        },
        {
          "duration": 1.0465116279069804,
          "durationTicks": 90,
          "midi": 45,
          "name": "A2",
          "ticks": 6960,
          "time": 80.93023255813954,
          "velocity": 0.2283464566929134
        },
        {
          "duration": 0.03488372093023884,
          "durationTicks": 3,
          "midi": 55,
          "name": "G3",
          "ticks": 6967,
          "time": 81.01162790697674,
          "velocity": 0.13385826771653545
        },
        {
          "duration": 0.05813953488372192,
          "durationTicks": 5,
          "midi": 55,
          "name": "G3",
          "ticks": 6974,
          "time": 81.09302325581395,
          "velocity": 0.11023622047244094
        },
        {
          "duration": 0.15116279069766847,
          "durationTicks": 13,
          "midi": 69,
          "name": "A4",
          "ticks": 6997,
          "time": 81.36046511627907,
          "velocity": 0.10236220472440945
        },
        {
          "duration": 0.034883720930224626,
          "durationTicks": 3,
          "midi": 56,
          "name": "G#3",
          "ticks": 7012,
          "time": 81.53488372093024,
          "velocity": 0.15748031496062992
        },
        {
          "duration": 0.034883720930224626,
          "durationTicks": 3,
          "midi": 47,
          "name": "B2",
          "ticks": 7055,
          "time": 82.03488372093024,
          "velocity": 0.1968503937007874
        },
        {
          "duration": 0.5232558139534831,
          "durationTicks": 45,
          "midi": 60,
          "name": "C4",
          "ticks": 7057,
          "time": 82.05813953488372,
          "velocity": 0.12598425196850394
        },
        {
          "duration": 0.1046511627907023,
          "durationTicks": 9,
          "midi": 48,
          "name": "C3",
          "ticks": 7064,
          "time": 82.13953488372093,
          "velocity": 0.18110236220472442
        },
        {
          "duration": 0.13953488372092693,
          "durationTicks": 12,
          "midi": 48,
          "name": "C3",
          "ticks": 7077,
          "time": 82.29069767441861,
          "velocity": 0.16535433070866143
        },
        {
          "duration": 0.27906976744186807,
          "durationTicks": 24,
          "midi": 48,
          "name": "C3",
          "ticks": 7090,
          "time": 82.44186046511628,
          "velocity": 0.15748031496062992
        },
        {
          "duration": 0.3720930232558146,
          "durationTicks": 32,
          "midi": 60,
          "name": "C4",
          "ticks": 7120,
          "time": 82.79069767441861,
          "velocity": 0.14173228346456693
        },
        {
          "duration": 0.30232558139535115,
          "durationTicks": 26,
          "midi": 48,
          "name": "C3",
          "ticks": 7135,
          "time": 82.96511627906976,
          "velocity": 0.1889763779527559
        },
        {
          "duration": 0.17441860465115155,
          "durationTicks": 15,
          "midi": 55,
          "name": "G3",
          "ticks": 7136,
          "time": 82.97674418604652,
          "velocity": 0.14173228346456693
        },
        {
          "duration": 0.15116279069766847,
          "durationTicks": 13,
          "midi": 55,
          "name": "G3",
          "ticks": 7152,
          "time": 83.16279069767442,
          "velocity": 0.10236220472440945
        },
        {
          "duration": 0.13953488372092693,
          "durationTicks": 12,
          "midi": 45,
          "name": "A2",
          "ticks": 7165,
          "time": 83.31395348837209,
          "velocity": 0.1889763779527559
        },
        {
          "duration": 0.05813953488372192,
          "durationTicks": 5,
          "midi": 55,
          "name": "G3",
          "ticks": 7166,
          "time": 83.32558139534883,
          "velocity": 0.1732283464566929
        },
        {
          "duration": 0.04651162790698038,
          "durationTicks": 4,
          "midi": 44,
          "name": "G#2",
          "ticks": 7177,
          "time": 83.45348837209302,
          "velocity": 0.13385826771653545
        },
        {
          "duration": 0.66279069767441,
          "durationTicks": 57,
          "midi": 59,
          "name": "B3",
          "ticks": 7184,
          "time": 83.53488372093024,
          "velocity": 0.11023622047244094
        },
        {
          "duration": 0.19767441860464885,
          "durationTicks": 17,
          "midi": 55,
          "name": "G3",
          "ticks": 7200,
          "time": 83.72093023255815,
          "velocity": 0.12598425196850394
        },
        {
          "duration": 0.023255813953483084,
          "durationTicks": 2,
          "midi": 45,
          "name": "A2",
          "ticks": 7216,
          "time": 83.90697674418605,
          "velocity": 0.2283464566929134
        },
        {
          "duration": 0.03488372093023884,
          "durationTicks": 3,
          "midi": 47,
          "name": "B2",
          "ticks": 7230,
          "time": 84.06976744186046,
          "velocity": 0.14173228346456693
        },
        {
          "duration": 0.081395348837205,
          "durationTicks": 7,
          "midi": 47,
          "name": "B2",
          "ticks": 7234,
          "time": 84.11627906976744,
          "velocity": 0.11811023622047244
        },
        {
          "duration": 0.03488372093023884,
          "durationTicks": 3,
          "midi": 55,
          "name": "G3",
          "ticks": 7240,
          "time": 84.18604651162791,
          "velocity": 0.07874015748031496
        },
        {
          "duration": 0.3488372093023173,
          "durationTicks": 30,
          "midi": 59,
          "name": "B3",
          "ticks": 7244,
          "time": 84.23255813953489,
          "velocity": 0.14960629921259844
        },
        {
          "duration": 0.03488372093023884,
          "durationTicks": 3,
          "midi": 45,
          "name": "A2",
          "ticks": 7246,
          "time": 84.25581395348837,
          "velocity": 0.1968503937007874
        },
        {
          "duration": 0.034883720930224626,
          "durationTicks": 3,
          "midi": 47,
          "name": "B2",
          "ticks": 7261,
          "time": 84.43023255813954,
          "velocity": 0.11023622047244094
        },
        {
          "duration": 0.2325581395348877,
          "durationTicks": 20,
          "midi": 47,
          "name": "B2",
          "ticks": 7269,
          "time": 84.52325581395348,
          "velocity": 0.14173228346456693
        },
        {
          "duration": 0.04651162790698038,
          "durationTicks": 4,
          "midi": 46,
          "name": "A#2",
          "ticks": 7289,
          "time": 84.75581395348837,
          "velocity": 0.14960629921259844
        },
        {
          "duration": 0.13953488372092693,
          "durationTicks": 12,
          "midi": 44,
          "name": "G#2",
          "ticks": 7295,
          "time": 84.82558139534883,
          "velocity": 0.2125984251968504
        },
        {
          "duration": 0.12790697674418539,
          "durationTicks": 11,
          "midi": 55,
          "name": "G3",
          "ticks": 7295,
          "time": 84.82558139534883,
          "velocity": 0.14960629921259844
        },
        {
          "duration": 0.04651162790698038,
          "durationTicks": 4,
          "midi": 56,
          "name": "G#3",
          "ticks": 7306,
          "time": 84.95348837209302,
          "velocity": 0.2283464566929134
        },
        {
          "duration": 0.22093023255814614,
          "durationTicks": 19,
          "midi": 57,
          "name": "A3",
          "ticks": 7310,
          "time": 85,
          "velocity": 0.13385826771653545
        },
        {
          "duration": 0.05813953488372192,
          "durationTicks": 5,
          "midi": 44,
          "name": "G#2",
          "ticks": 7311,
          "time": 85.01162790697674,
          "velocity": 0.25984251968503935
        },
        {
          "duration": 0.04651162790698038,
          "durationTicks": 4,
          "midi": 45,
          "name": "A2",
          "ticks": 7316,
          "time": 85.06976744186046,
          "velocity": 0.2204724409448819
        },
        {
          "duration": 0.5232558139534831,
          "durationTicks": 45,
          "midi": 45,
          "name": "A2",
          "ticks": 7321,
          "time": 85.12790697674419,
          "velocity": 0.2440944881889764
        },
        {
          "duration": 0.04651162790698038,
          "durationTicks": 4,
          "midi": 44,
          "name": "G#2",
          "ticks": 7366,
          "time": 85.65116279069767,
          "velocity": 0.2047244094488189
        },
        {
          "duration": 0.7325581395348877,
          "durationTicks": 63,
          "midi": 45,
          "name": "A2",
          "ticks": 7370,
          "time": 85.69767441860465,
          "velocity": 0.2283464566929134
        },
        {
          "duration": 0.03488372093023884,
          "durationTicks": 3,
          "midi": 56,
          "name": "G#3",
          "ticks": 7370,
          "time": 85.69767441860465,
          "velocity": 0.16535433070866143
        },
        {
          "duration": 0.19767441860464885,
          "durationTicks": 17,
          "midi": 69,
          "name": "A4",
          "ticks": 7370,
          "time": 85.69767441860465,
          "velocity": 0.13385826771653545
        },
        {
          "duration": 0.03488372093023884,
          "durationTicks": 3,
          "midi": 56,
          "name": "G#3",
          "ticks": 7386,
          "time": 85.88372093023256,
          "velocity": 0.12598425196850394
        },
        {
          "duration": 0.16279069767442422,
          "durationTicks": 14,
          "midi": 69,
          "name": "A4",
          "ticks": 7402,
          "time": 86.06976744186046,
          "velocity": 0.09448818897637795
        },
        {
          "duration": 0.034883720930224626,
          "durationTicks": 3,
          "midi": 56,
          "name": "G#3",
          "ticks": 7410,
          "time": 86.16279069767442,
          "velocity": 0.16535433070866143
        },
        {
          "duration": 0.3372093023255758,
          "durationTicks": 29,
          "midi": 55,
          "name": "G3",
          "ticks": 7433,
          "time": 86.43023255813954,
          "velocity": 0.2125984251968504
        },
        {
          "duration": 0.04651162790698038,
          "durationTicks": 4,
          "midi": 44,
          "name": "G#2",
          "ticks": 7438,
          "time": 86.48837209302326,
          "velocity": 0.25984251968503935
        },
        {
          "duration": 0.1046511627907023,
          "durationTicks": 9,
          "midi": 43,
          "name": "G2",
          "ticks": 7452,
          "time": 86.65116279069767,
          "velocity": 0.1889763779527559
        },
        {
          "duration": 0.04651162790698038,
          "durationTicks": 4,
          "midi": 44,
          "name": "G#2",
          "ticks": 7461,
          "time": 86.75581395348837,
          "velocity": 0.1968503937007874
        },
        {
          "duration": 0.1860465116279073,
          "durationTicks": 16,
          "midi": 55,
          "name": "G3",
          "ticks": 7465,
          "time": 86.80232558139535,
          "velocity": 0.14960629921259844
        },
        {
          "duration": 0.09302325581394655,
          "durationTicks": 8,
          "midi": 43,
          "name": "G2",
          "ticks": 7469,
          "time": 86.84883720930233,
          "velocity": 0.23622047244094488
        },
        {
          "duration": 0.03488372093023884,
          "durationTicks": 3,
          "midi": 42,
          "name": "F#2",
          "ticks": 7477,
          "time": 86.94186046511628,
          "velocity": 0.13385826771653545
        },
        {
          "duration": 0.09302325581394655,
          "durationTicks": 8,
          "midi": 43,
          "name": "G2",
          "ticks": 7480,
          "time": 86.97674418604652,
          "velocity": 0.2440944881889764
        },
        {
          "duration": 0.04651162790698038,
          "durationTicks": 4,
          "midi": 44,
          "name": "G#2",
          "ticks": 7492,
          "time": 87.11627906976744,
          "velocity": 0.1889763779527559
        },
        {
          "duration": 0.06976744186046346,
          "durationTicks": 6,
          "midi": 55,
          "name": "G3",
          "ticks": 7494,
          "time": 87.13953488372093,
          "velocity": 0.1968503937007874
        },
        {
          "duration": 0.1046511627907023,
          "durationTicks": 9,
          "midi": 43,
          "name": "G2",
          "ticks": 7499,
          "time": 87.19767441860465,
          "velocity": 0.2440944881889764
        },
        {
          "duration": 0.034883720930224626,
          "durationTicks": 3,
          "midi": 42,
          "name": "F#2",
          "ticks": 7508,
          "time": 87.30232558139535,
          "velocity": 0.12598425196850394
        },
        {
          "duration": 0.11627906976744384,
          "durationTicks": 10,
          "midi": 43,
          "name": "G2",
          "ticks": 7511,
          "time": 87.33720930232558,
          "velocity": 0.2204724409448819
        },
        {
          "duration": 0.19767441860464885,
          "durationTicks": 17,
          "midi": 43,
          "name": "G2",
          "ticks": 7523,
          "time": 87.47674418604652,
          "velocity": 0.2125984251968504
        },
        {
          "duration": 0.04651162790698038,
          "durationTicks": 4,
          "midi": 44,
          "name": "G#2",
          "ticks": 7540,
          "time": 87.67441860465117,
          "velocity": 0.16535433070866143
        },
        {
          "duration": 0.16279069767441,
          "durationTicks": 14,
          "midi": 55,
          "name": "G3",
          "ticks": 7545,
          "time": 87.73255813953489,
          "velocity": 0.1732283464566929
        },
        {
          "duration": 0.06976744186046346,
          "durationTicks": 6,
          "midi": 44,
          "name": "G#2",
          "ticks": 7548,
          "time": 87.76744186046511,
          "velocity": 0.12598425196850394
        },
        {
          "duration": 0.034883720930224626,
          "durationTicks": 3,
          "midi": 55,
          "name": "G3",
          "ticks": 7562,
          "time": 87.93023255813954,
          "velocity": 0.07874015748031496
        },
        {
          "duration": 0.3720930232558146,
          "durationTicks": 32,
          "midi": 67,
          "name": "G4",
          "ticks": 7566,
          "time": 87.97674418604652,
          "velocity": 0.07086614173228346
        },
        {
          "duration": 0.13953488372092693,
          "durationTicks": 12,
          "midi": 48,
          "name": "C3",
          "ticks": 7569,
          "time": 88.01162790697674,
          "velocity": 0.15748031496062992
        },
        {
          "duration": 0.03488372093023884,
          "durationTicks": 3,
          "midi": 48,
          "name": "C3",
          "ticks": 7591,
          "time": 88.26744186046511,
          "velocity": 0.14960629921259844
        },
        {
          "duration": 0.10465116279068809,
          "durationTicks": 9,
          "midi": 48,
          "name": "C3",
          "ticks": 7598,
          "time": 88.34883720930233,
          "velocity": 0.15748031496062992
        },
        {
          "duration": 0.08139534883721922,
          "durationTicks": 7,
          "midi": 48,
          "name": "C3",
          "ticks": 7608,
          "time": 88.46511627906976,
          "velocity": 0.14960629921259844
        },
        {
          "duration": 0.4767441860465169,
          "durationTicks": 41,
          "midi": 60,
          "name": "C4",
          "ticks": 7623,
          "time": 88.63953488372093,
          "velocity": 0.12598425196850394
        },
        {
          "duration": 0.16279069767441,
          "durationTicks": 14,
          "midi": 55,
          "name": "G3",
          "ticks": 7637,
          "time": 88.80232558139535,
          "velocity": 0.16535433070866143
        },
        {
          "duration": 0.04651162790698038,
          "durationTicks": 4,
          "midi": 55,
          "name": "G3",
          "ticks": 7653,
          "time": 88.98837209302326,
          "velocity": 0.18110236220472442
        },
        {
          "duration": 0.13953488372092693,
          "durationTicks": 12,
          "midi": 55,
          "name": "G3",
          "ticks": 7658,
          "time": 89.04651162790698,
          "velocity": 0.11811023622047244
        },
        {
          "duration": 0.03488372093023884,
          "durationTicks": 3,
          "midi": 45,
          "name": "A2",
          "ticks": 7667,
          "time": 89.15116279069767,
          "velocity": 0.14960629921259844
        },
        {
          "duration": 0.1046511627907023,
          "durationTicks": 9,
          "midi": 45,
          "name": "A2",
          "ticks": 7671,
          "time": 89.19767441860465,
          "velocity": 0.14960629921259844
        },
        {
          "duration": 0.12790697674418539,
          "durationTicks": 11,
          "midi": 55,
          "name": "G3",
          "ticks": 7673,
          "time": 89.22093023255815,
          "velocity": 0.10236220472440945
        },
        {
          "duration": 0.04651162790696617,
          "durationTicks": 4,
          "midi": 45,
          "name": "A2",
          "ticks": 7684,
          "time": 89.34883720930233,
          "velocity": 0.2047244094488189
        },
        {
          "duration": 0.25581395348837077,
          "durationTicks": 22,
          "midi": 59,
          "name": "B3",
          "ticks": 7687,
          "time": 89.38372093023256,
          "velocity": 0.11023622047244094
        },
        {
          "duration": 0.12790697674418539,
          "durationTicks": 11,
          "midi": 47,
          "name": "B2",
          "ticks": 7700,
          "time": 89.53488372093024,
          "velocity": 0.1732283464566929
        },
        {
          "duration": 0.15116279069766847,
          "durationTicks": 13,
          "midi": 55,
          "name": "G3",
          "ticks": 7701,
          "time": 89.54651162790698,
          "velocity": 0.11811023622047244
        },
        {
          "duration": 0.22093023255813193,
          "durationTicks": 19,
          "midi": 47,
          "name": "B2",
          "ticks": 7722,
          "time": 89.79069767441861,
          "velocity": 0.13385826771653545
        },
        {
          "duration": 0.13953488372092693,
          "durationTicks": 12,
          "midi": 55,
          "name": "G3",
          "ticks": 7733,
          "time": 89.9186046511628,
          "velocity": 0.11023622047244094
        },
        {
          "duration": 0.04651162790698038,
          "durationTicks": 4,
          "midi": 59,
          "name": "B3",
          "ticks": 7741,
          "time": 90.01162790697674,
          "velocity": 0.08661417322834646
        },
        {
          "duration": 0.034883720930224626,
          "durationTicks": 3,
          "midi": 45,
          "name": "A2",
          "ticks": 7745,
          "time": 90.05813953488372,
          "velocity": 0.2125984251968504
        },
        {
          "duration": 0.03488372093023884,
          "durationTicks": 3,
          "midi": 47,
          "name": "B2",
          "ticks": 7753,
          "time": 90.15116279069767,
          "velocity": 0.18110236220472442
        },
        {
          "duration": 0.03488372093023884,
          "durationTicks": 3,
          "midi": 47,
          "name": "B2",
          "ticks": 7757,
          "time": 90.19767441860465,
          "velocity": 0.1732283464566929
        },
        {
          "duration": 0.2906976744186096,
          "durationTicks": 25,
          "midi": 47,
          "name": "B2",
          "ticks": 7761,
          "time": 90.24418604651163,
          "velocity": 0.1889763779527559
        },
        {
          "duration": 0.05813953488372192,
          "durationTicks": 5,
          "midi": 45,
          "name": "A2",
          "ticks": 7788,
          "time": 90.55813953488372,
          "velocity": 0.25196850393700787
        },
        {
          "duration": 0.023255813953483084,
          "durationTicks": 2,
          "midi": 44,
          "name": "G#2",
          "ticks": 7793,
          "time": 90.61627906976744,
          "velocity": 0.2440944881889764
        },
        {
          "duration": 0.12790697674418539,
          "durationTicks": 11,
          "midi": 55,
          "name": "G3",
          "ticks": 7793,
          "time": 90.61627906976744,
          "velocity": 0.15748031496062992
        },
        {
          "duration": 0.04651162790698038,
          "durationTicks": 4,
          "midi": 45,
          "name": "A2",
          "ticks": 7795,
          "time": 90.63953488372093,
          "velocity": 0.1889763779527559
        },
        {
          "duration": 0.04651162790696617,
          "durationTicks": 4,
          "midi": 44,
          "name": "G#2",
          "ticks": 7802,
          "time": 90.72093023255815,
          "velocity": 0.09448818897637795
        },
        {
          "duration": 0.023255813953497295,
          "durationTicks": 2,
          "midi": 57,
          "name": "A3",
          "ticks": 7806,
          "time": 90.76744186046511,
          "velocity": 0.2440944881889764
        },
        {
          "duration": 0.05813953488372192,
          "durationTicks": 5,
          "midi": 44,
          "name": "G#2",
          "ticks": 7809,
          "time": 90.80232558139535,
          "velocity": 0.2440944881889764
        },
        {
          "duration": 0.38372093023255616,
          "durationTicks": 33,
          "midi": 57,
          "name": "A3",
          "ticks": 7809,
          "time": 90.80232558139535,
          "velocity": 0.1732283464566929
        },
        {
          "duration": 0.05813953488372192,
          "durationTicks": 5,
          "midi": 45,
          "name": "A2",
          "ticks": 7814,
          "time": 90.86046511627907,
          "velocity": 0.2125984251968504
        },
        {
          "duration": 0.5232558139534831,
          "durationTicks": 45,
          "midi": 45,
          "name": "A2",
          "ticks": 7820,
          "time": 90.93023255813954,
          "velocity": 0.2204724409448819
        },
        {
          "duration": 0.13953488372092693,
          "durationTicks": 12,
          "midi": 44,
          "name": "G#2",
          "ticks": 7865,
          "time": 91.45348837209302,
          "velocity": 0.2677165354330709
        },
        {
          "duration": 0.6627906976744242,
          "durationTicks": 57,
          "midi": 69,
          "name": "A4",
          "ticks": 7869,
          "time": 91.5,
          "velocity": 0.14960629921259844
        },
        {
          "duration": 0.04651162790698038,
          "durationTicks": 4,
          "midi": 45,
          "name": "A2",
          "ticks": 7877,
          "time": 91.59302325581395,
          "velocity": 0.2283464566929134
        },
        {
          "duration": 0.5232558139534831,
          "durationTicks": 45,
          "midi": 45,
          "name": "A2",
          "ticks": 7883,
          "time": 91.66279069767442,
          "velocity": 0.1889763779527559
        },
        {
          "duration": 0.04651162790696617,
          "durationTicks": 4,
          "midi": 56,
          "name": "G#3",
          "ticks": 7910,
          "time": 91.97674418604652,
          "velocity": 0.14960629921259844
        },
        {
          "duration": 0.03488372093023884,
          "durationTicks": 3,
          "midi": 45,
          "name": "A2",
          "ticks": 7930,
          "time": 92.20930232558139,
          "velocity": 0.14173228346456693
        },
        {
          "duration": 0.2093023255813904,
          "durationTicks": 18,
          "midi": 55,
          "name": "G3",
          "ticks": 7932,
          "time": 92.23255813953489,
          "velocity": 0.25984251968503935
        },
        {
          "duration": 0.05813953488372192,
          "durationTicks": 5,
          "midi": 44,
          "name": "G#2",
          "ticks": 7937,
          "time": 92.29069767441861,
          "velocity": 0.2047244094488189
        },
        {
          "duration": 0.05813953488372192,
          "durationTicks": 5,
          "midi": 44,
          "name": "G#2",
          "ticks": 7944,
          "time": 92.37209302325581,
          "velocity": 0.1889763779527559
        },
        {
          "duration": 0.04651162790698038,
          "durationTicks": 4,
          "midi": 44,
          "name": "G#2",
          "ticks": 7951,
          "time": 92.45348837209302,
          "velocity": 0.2047244094488189
        },
        {
          "duration": 0.05813953488372192,
          "durationTicks": 5,
          "midi": 44,
          "name": "G#2",
          "ticks": 7957,
          "time": 92.52325581395348,
          "velocity": 0.2204724409448819
        },
        {
          "duration": 0.12790697674418539,
          "durationTicks": 11,
          "midi": 55,
          "name": "G3",
          "ticks": 7958,
          "time": 92.53488372093024,
          "velocity": 0.15748031496062992
        },
        {
          "duration": 0.05813953488372192,
          "durationTicks": 5,
          "midi": 44,
          "name": "G#2",
          "ticks": 7964,
          "time": 92.6046511627907,
          "velocity": 0.2047244094488189
        },
        {
          "duration": 0.03488372093023884,
          "durationTicks": 3,
          "midi": 44,
          "name": "G#2",
          "ticks": 7972,
          "time": 92.69767441860465,
          "velocity": 0.1732283464566929
        },
        {
          "duration": 0.081395348837205,
          "durationTicks": 7,
          "midi": 69,
          "name": "A4",
          "ticks": 7974,
          "time": 92.72093023255815,
          "velocity": 0.08661417322834646
        },
        {
          "duration": 0.40697674418603924,
          "durationTicks": 35,
          "midi": 54,
          "name": "F#3",
          "ticks": 7981,
          "time": 92.80232558139535,
          "velocity": 0.2204724409448819
        },
        {
          "duration": 0.034883720930224626,
          "durationTicks": 3,
          "midi": 44,
          "name": "G#2",
          "ticks": 7991,
          "time": 92.9186046511628,
          "velocity": 0.18110236220472442
        },
        {
          "duration": 0.03488372093023884,
          "durationTicks": 3,
          "midi": 44,
          "name": "G#2",
          "ticks": 8000,
          "time": 93.02325581395348,
          "velocity": 0.11811023622047244
        },
        {
          "duration": 0.03488372093023884,
          "durationTicks": 3,
          "midi": 44,
          "name": "G#2",
          "ticks": 8005,
          "time": 93.0813953488372,
          "velocity": 0.1732283464566929
        },
        {
          "duration": 0.03488372093023884,
          "durationTicks": 3,
          "midi": 44,
          "name": "G#2",
          "ticks": 8010,
          "time": 93.13953488372093,
          "velocity": 0.1732283464566929
        },
        {
          "duration": 0.04651162790696617,
          "durationTicks": 4,
          "midi": 54,
          "name": "F#3",
          "ticks": 8017,
          "time": 93.22093023255815,
          "velocity": 0.16535433070866143
        },
        {
          "duration": 0.034883720930224626,
          "durationTicks": 3,
          "midi": 44,
          "name": "G#2",
          "ticks": 8019,
          "time": 93.24418604651163,
          "velocity": 0.16535433070866143
        },
        {
          "duration": 0.04651162790698038,
          "durationTicks": 4,
          "midi": 45,
          "name": "A2",
          "ticks": 8022,
          "time": 93.27906976744185,
          "velocity": 0.09448818897637795
        },
        {
          "duration": 0.30232558139535115,
          "durationTicks": 26,
          "midi": 59,
          "name": "B3",
          "ticks": 8029,
          "time": 93.36046511627907,
          "velocity": 0.15748031496062992
        },
        {
          "duration": 0.24418604651162923,
          "durationTicks": 21,
          "midi": 45,
          "name": "A2",
          "ticks": 8031,
          "time": 93.38372093023256,
          "velocity": 0.13385826771653545
        },
        {
          "duration": 0.05813953488370771,
          "durationTicks": 5,
          "midi": 52,
          "name": "E3",
          "ticks": 8060,
          "time": 93.72093023255815,
          "velocity": 0.11811023622047244
        },
        {
          "duration": 0.05813953488372192,
          "durationTicks": 5,
          "midi": 52,
          "name": "E3",
          "ticks": 8066,
          "time": 93.79069767441861,
          "velocity": 0.12598425196850394
        },
        {
          "duration": 0.06976744186047767,
          "durationTicks": 6,
          "midi": 59,
          "name": "B3",
          "ticks": 8070,
          "time": 93.83720930232558,
          "velocity": 0.10236220472440945
        },
        {
          "duration": 0.03488372093023884,
          "durationTicks": 3,
          "midi": 52,
          "name": "E3",
          "ticks": 8074,
          "time": 93.88372093023256,
          "velocity": 0.1732283464566929
        },
        {
          "duration": 0.023255813953483084,
          "durationTicks": 2,
          "midi": 56,
          "name": "G#3",
          "ticks": 8077,
          "time": 93.9186046511628,
          "velocity": 0.2440944881889764
        },
        {
          "duration": 0.08139534883721922,
          "durationTicks": 7,
          "midi": 52,
          "name": "E3",
          "ticks": 8081,
          "time": 93.96511627906976,
          "velocity": 0.08661417322834646
        },
        {
          "duration": 0.05813953488372192,
          "durationTicks": 5,
          "midi": 57,
          "name": "A3",
          "ticks": 8081,
          "time": 93.96511627906976,
          "velocity": 0.1968503937007874
        },
        {
          "duration": 0.09302325581394655,
          "durationTicks": 8,
          "midi": 52,
          "name": "E3",
          "ticks": 8089,
          "time": 94.05813953488372,
          "velocity": 0.16535433070866143
        },
        {
          "duration": 0.081395348837205,
          "durationTicks": 7,
          "midi": 52,
          "name": "E3",
          "ticks": 8101,
          "time": 94.19767441860465,
          "velocity": 0.15748031496062992
        },
        {
          "duration": 0.023255813953483084,
          "durationTicks": 2,
          "midi": 56,
          "name": "G#3",
          "ticks": 8109,
          "time": 94.29069767441861,
          "velocity": 0.23622047244094488
        },
        {
          "duration": 0.3139534883720927,
          "durationTicks": 27,
          "midi": 69,
          "name": "A4",
          "ticks": 8109,
          "time": 94.29069767441861,
          "velocity": 0.14960629921259844
        },
        {
          "duration": 0.15116279069766847,
          "durationTicks": 13,
          "midi": 57,
          "name": "A3",
          "ticks": 8111,
          "time": 94.31395348837209,
          "velocity": 0.2125984251968504
        },
        {
          "duration": 0.03488372093023884,
          "durationTicks": 3,
          "midi": 52,
          "name": "E3",
          "ticks": 8117,
          "time": 94.38372093023256,
          "velocity": 0.07086614173228346
        },
        {
          "duration": 0.09302325581394655,
          "durationTicks": 8,
          "midi": 52,
          "name": "E3",
          "ticks": 8125,
          "time": 94.47674418604652,
          "velocity": 0.09448818897637795
        },
        {
          "duration": 0.08139534883721922,
          "durationTicks": 7,
          "midi": 52,
          "name": "E3",
          "ticks": 8134,
          "time": 94.5813953488372,
          "velocity": 0.14960629921259844
        },
        {
          "duration": 0.15116279069766847,
          "durationTicks": 13,
          "midi": 59,
          "name": "B3",
          "ticks": 8136,
          "time": 94.6046511627907,
          "velocity": 0.11811023622047244
        },
        {
          "duration": 0.04651162790698038,
          "durationTicks": 4,
          "midi": 59,
          "name": "B3",
          "ticks": 8159,
          "time": 94.87209302325581,
          "velocity": 0.07086614173228346
        },
        {
          "duration": 0.16279069767442422,
          "durationTicks": 14,
          "midi": 59,
          "name": "B3",
          "ticks": 8166,
          "time": 94.95348837209302,
          "velocity": 0.07874015748031496
        },
        {
          "duration": 0.034883720930224626,
          "durationTicks": 3,
          "midi": 56,
          "name": "G#3",
          "ticks": 8185,
          "time": 95.17441860465117,
          "velocity": 0.1968503937007874
        },
        {
          "duration": 0.05813953488372192,
          "durationTicks": 5,
          "midi": 44,
          "name": "G#2",
          "ticks": 8186,
          "time": 95.18604651162791,
          "velocity": 0.2204724409448819
        },
        {
          "duration": 0.04651162790698038,
          "durationTicks": 4,
          "midi": 45,
          "name": "A2",
          "ticks": 8193,
          "time": 95.26744186046511,
          "velocity": 0.16535433070866143
        },
        {
          "duration": 0.05813953488372192,
          "durationTicks": 5,
          "midi": 45,
          "name": "A2",
          "ticks": 8199,
          "time": 95.33720930232558,
          "velocity": 0.18110236220472442
        },
        {
          "duration": 0.034883720930224626,
          "durationTicks": 3,
          "midi": 56,
          "name": "G#3",
          "ticks": 8200,
          "time": 95.34883720930233,
          "velocity": 0.2283464566929134
        },
        {
          "duration": 0.04651162790698038,
          "durationTicks": 4,
          "midi": 57,
          "name": "A3",
          "ticks": 8204,
          "time": 95.3953488372093,
          "velocity": 0.11811023622047244
        },
        {
          "duration": 0.034883720930224626,
          "durationTicks": 3,
          "midi": 45,
          "name": "A2",
          "ticks": 8211,
          "time": 95.47674418604652,
          "velocity": 0.08661417322834646
        },
        {
          "duration": 0.15116279069768268,
          "durationTicks": 13,
          "midi": 55,
          "name": "G3",
          "ticks": 8215,
          "time": 95.52325581395348,
          "velocity": 0.18110236220472442
        },
        {
          "duration": 0.023255813953483084,
          "durationTicks": 2,
          "midi": 44,
          "name": "G#2",
          "ticks": 8217,
          "time": 95.54651162790698,
          "velocity": 0.2283464566929134
        },
        {
          "duration": 0.081395348837205,
          "durationTicks": 7,
          "midi": 43,
          "name": "G2",
          "ticks": 8219,
          "time": 95.56976744186046,
          "velocity": 0.2125984251968504
        },
        {
          "duration": 0.03488372093023884,
          "durationTicks": 3,
          "midi": 44,
          "name": "G#2",
          "ticks": 8229,
          "time": 95.68604651162791,
          "velocity": 0.08661417322834646
        },
        {
          "duration": 0.081395348837205,
          "durationTicks": 7,
          "midi": 55,
          "name": "G3",
          "ticks": 8235,
          "time": 95.75581395348837,
          "velocity": 0.07874015748031496
        },
        {
          "duration": 0.05813953488372192,
          "durationTicks": 5,
          "midi": 44,
          "name": "G#2",
          "ticks": 8240,
          "time": 95.81395348837209,
          "velocity": 0.07874015748031496
        },
        {
          "duration": 0.04651162790696617,
          "durationTicks": 4,
          "midi": 44,
          "name": "G#2",
          "ticks": 8248,
          "time": 95.90697674418605,
          "velocity": 0.2677165354330709
        },
        {
          "duration": 0.023255813953497295,
          "durationTicks": 2,
          "midi": 44,
          "name": "G#2",
          "ticks": 8253,
          "time": 95.96511627906976,
          "velocity": 0.2677165354330709
        },
        {
          "duration": 0.04651162790698038,
          "durationTicks": 4,
          "midi": 45,
          "name": "A2",
          "ticks": 8255,
          "time": 95.98837209302326,
          "velocity": 0.2283464566929134
        },
        {
          "duration": 0.16279069767441,
          "durationTicks": 14,
          "midi": 45,
          "name": "A2",
          "ticks": 8260,
          "time": 96.04651162790698,
          "velocity": 0.23622047244094488
        },
        {
          "duration": 0.034883720930224626,
          "durationTicks": 3,
          "midi": 55,
          "name": "G3",
          "ticks": 8266,
          "time": 96.11627906976744,
          "velocity": 0.14960629921259844
        },
        {
          "duration": 0.03488372093023884,
          "durationTicks": 3,
          "midi": 55,
          "name": "G3",
          "ticks": 8273,
          "time": 96.19767441860465,
          "velocity": 0.13385826771653545
        },
        {
          "duration": 0.04651162790698038,
          "durationTicks": 4,
          "midi": 44,
          "name": "G#2",
          "ticks": 8274,
          "time": 96.20930232558139,
          "velocity": 0.12598425196850394
        },
        {
          "duration": 0.03488372093023884,
          "durationTicks": 3,
          "midi": 45,
          "name": "A2",
          "ticks": 8278,
          "time": 96.25581395348837,
          "velocity": 0.2125984251968504
        },
        {
          "duration": 0.04651162790698038,
          "durationTicks": 4,
          "midi": 55,
          "name": "G3",
          "ticks": 8278,
          "time": 96.25581395348837,
          "velocity": 0.13385826771653545
        },
        {
          "duration": 0.15116279069766847,
          "durationTicks": 13,
          "midi": 45,
          "name": "A2",
          "ticks": 8293,
          "time": 96.43023255813954,
          "velocity": 0.2283464566929134
        },
        {
          "duration": 0.03488372093023884,
          "durationTicks": 3,
          "midi": 55,
          "name": "G3",
          "ticks": 8300,
          "time": 96.51162790697674,
          "velocity": 0.15748031496062992
        },
        {
          "duration": 0.04651162790698038,
          "durationTicks": 4,
          "midi": 55,
          "name": "G3",
          "ticks": 8304,
          "time": 96.55813953488372,
          "velocity": 0.14960629921259844
        },
        {
          "duration": 0.05813953488372192,
          "durationTicks": 5,
          "midi": 44,
          "name": "G#2",
          "ticks": 8306,
          "time": 96.5813953488372,
          "velocity": 0.1968503937007874
        },
        {
          "duration": 0.16279069767442422,
          "durationTicks": 14,
          "midi": 60,
          "name": "C4",
          "ticks": 8310,
          "time": 96.62790697674419,
          "velocity": 0.13385826771653545
        },
        {
          "duration": 0.03488372093023884,
          "durationTicks": 3,
          "midi": 60,
          "name": "C4",
          "ticks": 8326,
          "time": 96.81395348837209,
          "velocity": 0.09448818897637795
        },
        {
          "duration": 0.04651162790698038,
          "durationTicks": 4,
          "midi": 55,
          "name": "G3",
          "ticks": 8327,
          "time": 96.82558139534883,
          "velocity": 0.09448818897637795
        },
        {
          "duration": 0.03488372093023884,
          "durationTicks": 3,
          "midi": 60,
          "name": "C4",
          "ticks": 8331,
          "time": 96.87209302325581,
          "velocity": 0.11023622047244094
        },
        {
          "duration": 0.1860465116279073,
          "durationTicks": 16,
          "midi": 60,
          "name": "C4",
          "ticks": 8338,
          "time": 96.95348837209302,
          "velocity": 0.11811023622047244
        },
        {
          "duration": 0.06976744186046346,
          "durationTicks": 6,
          "midi": 53,
          "name": "F3",
          "ticks": 8345,
          "time": 97.03488372093024,
          "velocity": 0.10236220472440945
        },
        {
          "duration": 0.09302325581394655,
          "durationTicks": 8,
          "midi": 59,
          "name": "B3",
          "ticks": 8362,
          "time": 97.23255813953489,
          "velocity": 0.07086614173228346
        },
        {
          "duration": 0.30232558139535115,
          "durationTicks": 26,
          "midi": 50,
          "name": "D3",
          "ticks": 8375,
          "time": 97.38372093023256,
          "velocity": 0.18110236220472442
        },
        {
          "duration": 0.3139534883720927,
          "durationTicks": 27,
          "midi": 69,
          "name": "A4",
          "ticks": 8375,
          "time": 97.38372093023256,
          "velocity": 0.13385826771653545
        },
        {
          "duration": 0.04651162790696617,
          "durationTicks": 4,
          "midi": 42,
          "name": "F#2",
          "ticks": 8405,
          "time": 97.73255813953489,
          "velocity": 0.1732283464566929
        },
        {
          "duration": 0.12790697674418539,
          "durationTicks": 11,
          "midi": 55,
          "name": "G3",
          "ticks": 8406,
          "time": 97.74418604651163,
          "velocity": 0.15748031496062992
        },
        {
          "duration": 0.08139534883721922,
          "durationTicks": 7,
          "midi": 43,
          "name": "G2",
          "ticks": 8409,
          "time": 97.77906976744185,
          "velocity": 0.2047244094488189
        },
        {
          "duration": 0.03488372093023884,
          "durationTicks": 3,
          "midi": 44,
          "name": "G#2",
          "ticks": 8418,
          "time": 97.88372093023256,
          "velocity": 0.14173228346456693
        },
        {
          "duration": 0.09302325581396076,
          "durationTicks": 8,
          "midi": 44,
          "name": "G#2",
          "ticks": 8425,
          "time": 97.96511627906976,
          "velocity": 0.16535433070866143
        },
        {
          "duration": 0.7209302325581319,
          "durationTicks": 62,
          "midi": 52,
          "name": "E3",
          "ticks": 8437,
          "time": 98.1046511627907,
          "velocity": 0.13385826771653545
        },
        {
          "duration": 0.5116279069767415,
          "durationTicks": 44,
          "midi": 59,
          "name": "B3",
          "ticks": 8438,
          "time": 98.11627906976744,
          "velocity": 0.08661417322834646
        },
        {
          "duration": 0.15116279069766847,
          "durationTicks": 13,
          "midi": 68,
          "name": "G#4",
          "ticks": 8443,
          "time": 98.17441860465117,
          "velocity": 0.09448818897637795
        },
        {
          "duration": 0.1860465116279073,
          "durationTicks": 16,
          "midi": 52,
          "name": "E3",
          "ticks": 8500,
          "time": 98.83720930232558,
          "velocity": 0.12598425196850394
        },
        {
          "duration": 0.081395348837205,
          "durationTicks": 7,
          "midi": 52,
          "name": "E3",
          "ticks": 8519,
          "time": 99.05813953488372,
          "velocity": 0.11811023622047244
        },
        {
          "duration": 0.11627906976742963,
          "durationTicks": 10,
          "midi": 44,
          "name": "G#2",
          "ticks": 8533,
          "time": 99.22093023255815,
          "velocity": 0.2755905511811024
        },
        {
          "duration": 0.3372093023255758,
          "durationTicks": 29,
          "midi": 45,
          "name": "A2",
          "ticks": 8549,
          "time": 99.40697674418605,
          "velocity": 0.2204724409448819
        },
        {
          "duration": 0.06976744186046346,
          "durationTicks": 6,
          "midi": 44,
          "name": "G#2",
          "ticks": 8580,
          "time": 99.76744186046511,
          "velocity": 0.2047244094488189
        },
        {
          "duration": 0.12790697674418539,
          "durationTicks": 11,
          "midi": 86,
          "name": "D6",
          "ticks": 8580,
          "time": 99.76744186046511,
          "velocity": 0.07874015748031496
        },
        {
          "duration": 0.03488372093023884,
          "durationTicks": 3,
          "midi": 45,
          "name": "A2",
          "ticks": 8586,
          "time": 99.83720930232558,
          "velocity": 0.13385826771653545
        },
        {
          "duration": 0.081395348837205,
          "durationTicks": 7,
          "midi": 44,
          "name": "G#2",
          "ticks": 8594,
          "time": 99.93023255813954,
          "velocity": 0.2677165354330709
        },
        {
          "duration": 0.03488372093023884,
          "durationTicks": 3,
          "midi": 57,
          "name": "A3",
          "ticks": 8595,
          "time": 99.94186046511628,
          "velocity": 0.11811023622047244
        },
        {
          "duration": 0.04651162790698038,
          "durationTicks": 4,
          "midi": 45,
          "name": "A2",
          "ticks": 8601,
          "time": 100.01162790697674,
          "velocity": 0.2440944881889764
        },
        {
          "duration": 0.1860465116279073,
          "durationTicks": 16,
          "midi": 45,
          "name": "A2",
          "ticks": 8607,
          "time": 100.0813953488372,
          "velocity": 0.23622047244094488
        },
        {
          "duration": 0.3139534883720927,
          "durationTicks": 27,
          "midi": 69,
          "name": "A4",
          "ticks": 8610,
          "time": 100.11627906976744,
          "velocity": 0.10236220472440945
        },
        {
          "duration": 0.03488372093023884,
          "durationTicks": 3,
          "midi": 44,
          "name": "G#2",
          "ticks": 8623,
          "time": 100.26744186046511,
          "velocity": 0.14173228346456693
        },
        {
          "duration": 0.15116279069768268,
          "durationTicks": 13,
          "midi": 44,
          "name": "G#2",
          "ticks": 8628,
          "time": 100.32558139534883,
          "velocity": 0.16535433070866143
        },
        {
          "duration": 0.04651162790698038,
          "durationTicks": 4,
          "midi": 56,
          "name": "G#3",
          "ticks": 8637,
          "time": 100.43023255813954,
          "velocity": 0.2125984251968504
        },
        {
          "duration": 0.09302325581394655,
          "durationTicks": 8,
          "midi": 44,
          "name": "G#2",
          "ticks": 8642,
          "time": 100.48837209302326,
          "velocity": 0.14960629921259844
        },
        {
          "duration": 0.27906976744186807,
          "durationTicks": 24,
          "midi": 69,
          "name": "A4",
          "ticks": 8644,
          "time": 100.51162790697674,
          "velocity": 0.07874015748031496
        },
        {
          "duration": 0.081395348837205,
          "durationTicks": 7,
          "midi": 50,
          "name": "D3",
          "ticks": 8663,
          "time": 100.73255813953489,
          "velocity": 0.07874015748031496
        },
        {
          "duration": 0.09302325581396076,
          "durationTicks": 8,
          "midi": 50,
          "name": "D3",
          "ticks": 8671,
          "time": 100.82558139534883,
          "velocity": 0.10236220472440945
        },
        {
          "duration": 0.22093023255813193,
          "durationTicks": 19,
          "midi": 69,
          "name": "A4",
          "ticks": 8673,
          "time": 100.84883720930233,
          "velocity": 0.16535433070866143
        },
        {
          "duration": 0.06976744186046346,
          "durationTicks": 6,
          "midi": 44,
          "name": "G#2",
          "ticks": 8678,
          "time": 100.90697674418605,
          "velocity": 0.11811023622047244
        },
        {
          "duration": 0.1046511627907023,
          "durationTicks": 9,
          "midi": 50,
          "name": "D3",
          "ticks": 8680,
          "time": 100.93023255813954,
          "velocity": 0.09448818897637795
        },
        {
          "duration": 0.09302325581394655,
          "durationTicks": 8,
          "midi": 44,
          "name": "G#2",
          "ticks": 8691,
          "time": 101.05813953488372,
          "velocity": 0.16535433070866143
        },
        {
          "duration": 0.5,
          "durationTicks": 43,
          "midi": 50,
          "name": "D3",
          "ticks": 8708,
          "time": 101.25581395348837,
          "velocity": 0.16535433070866143
        },
        {
          "duration": 0.06976744186046346,
          "durationTicks": 6,
          "midi": 69,
          "name": "A4",
          "ticks": 8722,
          "time": 101.4186046511628,
          "velocity": 0.08661417322834646
        },
        {
          "duration": 0.06976744186047767,
          "durationTicks": 6,
          "midi": 64,
          "name": "E4",
          "ticks": 8737,
          "time": 101.59302325581395,
          "velocity": 0.07086614173228346
        },
        {
          "duration": 0.04651162790698038,
          "durationTicks": 4,
          "midi": 52,
          "name": "E3",
          "ticks": 8751,
          "time": 101.75581395348837,
          "velocity": 0.16535433070866143
        },
        {
          "duration": 0.09302325581396076,
          "durationTicks": 8,
          "midi": 44,
          "name": "G#2",
          "ticks": 8752,
          "time": 101.76744186046511,
          "velocity": 0.25196850393700787
        },
        {
          "duration": 0.04651162790698038,
          "durationTicks": 4,
          "midi": 45,
          "name": "A2",
          "ticks": 8760,
          "time": 101.86046511627907,
          "velocity": 0.2125984251968504
        },
        {
          "duration": 0.16279069767441,
          "durationTicks": 14,
          "midi": 45,
          "name": "A2",
          "ticks": 8766,
          "time": 101.93023255813954,
          "velocity": 0.23622047244094488
        },
        {
          "duration": 0.03488372093023884,
          "durationTicks": 3,
          "midi": 52,
          "name": "E3",
          "ticks": 8780,
          "time": 102.09302325581395,
          "velocity": 0.11023622047244094
        },
        {
          "duration": 0.09302325581396076,
          "durationTicks": 8,
          "midi": 44,
          "name": "G#2",
          "ticks": 8783,
          "time": 102.12790697674419,
          "velocity": 0.25984251968503935
        },
        {
          "duration": 0.04651162790696617,
          "durationTicks": 4,
          "midi": 45,
          "name": "A2",
          "ticks": 8791,
          "time": 102.22093023255815,
          "velocity": 0.2283464566929134
        },
        {
          "duration": 0.255813953488385,
          "durationTicks": 22,
          "midi": 45,
          "name": "A2",
          "ticks": 8796,
          "time": 102.27906976744185,
          "velocity": 0.2283464566929134
        },
        {
          "duration": 0.15116279069766847,
          "durationTicks": 13,
          "midi": 45,
          "name": "A2",
          "ticks": 8819,
          "time": 102.54651162790698,
          "velocity": 0.2204724409448819
        },
        {
          "duration": 0.04651162790698038,
          "durationTicks": 4,
          "midi": 44,
          "name": "G#2",
          "ticks": 8832,
          "time": 102.69767441860465,
          "velocity": 0.1889763779527559
        },
        {
          "duration": 0.034883720930224626,
          "durationTicks": 3,
          "midi": 45,
          "name": "A2",
          "ticks": 8836,
          "time": 102.74418604651163,
          "velocity": 0.11811023622047244
        },
        {
          "duration": 0.034883720930224626,
          "durationTicks": 3,
          "midi": 45,
          "name": "A2",
          "ticks": 8841,
          "time": 102.80232558139535,
          "velocity": 0.16535433070866143
        },
        {
          "duration": 0.04651162790698038,
          "durationTicks": 4,
          "midi": 57,
          "name": "A3",
          "ticks": 8847,
          "time": 102.87209302325581,
          "velocity": 0.15748031496062992
        },
        {
          "duration": 0.081395348837205,
          "durationTicks": 7,
          "midi": 44,
          "name": "G#2",
          "ticks": 8848,
          "time": 102.88372093023256,
          "velocity": 0.2755905511811024
        },
        {
          "duration": 0.03488372093023884,
          "durationTicks": 3,
          "midi": 45,
          "name": "A2",
          "ticks": 8855,
          "time": 102.96511627906976,
          "velocity": 0.1889763779527559
        },
        {
          "duration": 0.05813953488370771,
          "durationTicks": 5,
          "midi": 44,
          "name": "G#2",
          "ticks": 8861,
          "time": 103.03488372093024,
          "velocity": 0.25196850393700787
        },
        {
          "duration": 0.03488372093023884,
          "durationTicks": 3,
          "midi": 45,
          "name": "A2",
          "ticks": 8866,
          "time": 103.09302325581395,
          "velocity": 0.18110236220472442
        },
        {
          "duration": 0.04651162790698038,
          "durationTicks": 4,
          "midi": 45,
          "name": "A2",
          "ticks": 8870,
          "time": 103.13953488372093,
          "velocity": 0.2440944881889764
        },
        {
          "duration": 0.15116279069766847,
          "durationTicks": 13,
          "midi": 44,
          "name": "G#2",
          "ticks": 8874,
          "time": 103.18604651162791,
          "velocity": 0.2677165354330709
        },
        {
          "duration": 0.03488372093023884,
          "durationTicks": 3,
          "midi": 45,
          "name": "A2",
          "ticks": 8891,
          "time": 103.38372093023256,
          "velocity": 0.2204724409448819
        },
        {
          "duration": 0.04651162790696617,
          "durationTicks": 4,
          "midi": 44,
          "name": "G#2",
          "ticks": 8894,
          "time": 103.4186046511628,
          "velocity": 0.2283464566929134
        },
        {
          "duration": 0.04651162790698038,
          "durationTicks": 4,
          "midi": 45,
          "name": "A2",
          "ticks": 8898,
          "time": 103.46511627906976,
          "velocity": 0.18110236220472442
        },
        {
          "duration": 0.08139534883721922,
          "durationTicks": 7,
          "midi": 45,
          "name": "A2",
          "ticks": 8903,
          "time": 103.52325581395348,
          "velocity": 0.2204724409448819
        },
        {
          "duration": 0.034883720930224626,
          "durationTicks": 3,
          "midi": 44,
          "name": "G#2",
          "ticks": 8910,
          "time": 103.6046511627907,
          "velocity": 0.2125984251968504
        },
        {
          "duration": 0.04651162790698038,
          "durationTicks": 4,
          "midi": 45,
          "name": "A2",
          "ticks": 8913,
          "time": 103.63953488372093,
          "velocity": 0.18110236220472442
        },
        {
          "duration": 0.05813953488370771,
          "durationTicks": 5,
          "midi": 45,
          "name": "A2",
          "ticks": 8920,
          "time": 103.72093023255815,
          "velocity": 0.18110236220472442
        },
        {
          "duration": 0.03488372093023884,
          "durationTicks": 3,
          "midi": 69,
          "name": "A4",
          "ticks": 8933,
          "time": 103.87209302325581,
          "velocity": 0.07086614173228346
        },
        {
          "duration": 0.06976744186046346,
          "durationTicks": 6,
          "midi": 45,
          "name": "A2",
          "ticks": 8948,
          "time": 104.04651162790698,
          "velocity": 0.1732283464566929
        },
        {
          "duration": 0.034883720930224626,
          "durationTicks": 3,
          "midi": 50,
          "name": "D3",
          "ticks": 8953,
          "time": 104.1046511627907,
          "velocity": 0.09448818897637795
        },
        {
          "duration": 0.19767441860464885,
          "durationTicks": 17,
          "midi": 69,
          "name": "A4",
          "ticks": 8954,
          "time": 104.11627906976744,
          "velocity": 0.07874015748031496
        },
        {
          "duration": 0.1046511627907023,
          "durationTicks": 9,
          "midi": 103,
          "name": "G7",
          "ticks": 8971,
          "time": 104.31395348837209,
          "velocity": 0.12598425196850394
        },
        {
          "duration": 0.11627906976744384,
          "durationTicks": 10,
          "midi": 67,
          "name": "G4",
          "ticks": 8972,
          "time": 104.32558139534883,
          "velocity": 0.07086614173228346
        },
        {
          "duration": 0.03488372093023884,
          "durationTicks": 3,
          "midi": 45,
          "name": "A2",
          "ticks": 8984,
          "time": 104.46511627906976,
          "velocity": 0.07874015748031496
        },
        {
          "duration": 0.09302325581396076,
          "durationTicks": 8,
          "midi": 50,
          "name": "D3",
          "ticks": 8988,
          "time": 104.51162790697674,
          "velocity": 0.1732283464566929
        },
        {
          "duration": 0.04651162790696617,
          "durationTicks": 4,
          "midi": 44,
          "name": "G#2",
          "ticks": 8990,
          "time": 104.53488372093024,
          "velocity": 0.14173228346456693
        },
        {
          "duration": 0.3953488372092977,
          "durationTicks": 34,
          "midi": 52,
          "name": "E3",
          "ticks": 8998,
          "time": 104.62790697674419,
          "velocity": 0.2047244094488189
        },
        {
          "duration": 0.04651162790698038,
          "durationTicks": 4,
          "midi": 44,
          "name": "G#2",
          "ticks": 9003,
          "time": 104.68604651162791,
          "velocity": 0.09448818897637795
        },
        {
          "duration": 0.09302325581394655,
          "durationTicks": 8,
          "midi": 44,
          "name": "G#2",
          "ticks": 9034,
          "time": 105.04651162790698,
          "velocity": 0.25196850393700787
        },
        {
          "duration": 0.06976744186046346,
          "durationTicks": 6,
          "midi": 57,
          "name": "A3",
          "ticks": 9034,
          "time": 105.04651162790698,
          "velocity": 0.18110236220472442
        },
        {
          "duration": 0.04651162790698038,
          "durationTicks": 4,
          "midi": 45,
          "name": "A2",
          "ticks": 9042,
          "time": 105.13953488372093,
          "velocity": 0.2047244094488189
        },
        {
          "duration": 0.5116279069767415,
          "durationTicks": 44,
          "midi": 45,
          "name": "A2",
          "ticks": 9051,
          "time": 105.24418604651163,
          "velocity": 0.2283464566929134
        },
        {
          "duration": 0.17441860465115155,
          "durationTicks": 15,
          "midi": 69,
          "name": "A4",
          "ticks": 9066,
          "time": 105.4186046511628,
          "velocity": 0.07874015748031496
        },
        {
          "duration": 0.15116279069766847,
          "durationTicks": 13,
          "midi": 86,
          "name": "D6",
          "ticks": 9083,
          "time": 105.61627906976744,
          "velocity": 0.07086614173228346
        },
        {
          "duration": 0.09302325581396076,
          "durationTicks": 8,
          "midi": 44,
          "name": "G#2",
          "ticks": 9097,
          "time": 105.77906976744185,
          "velocity": 0.2677165354330709
        },
        {
          "duration": 0.04651162790698038,
          "durationTicks": 4,
          "midi": 57,
          "name": "A3",
          "ticks": 9097,
          "time": 105.77906976744185,
          "velocity": 0.14173228346456693
        },
        {
          "duration": 0.15116279069768268,
          "durationTicks": 13,
          "midi": 45,
          "name": "A2",
          "ticks": 9112,
          "time": 105.95348837209302,
          "velocity": 0.2283464566929134
        },
        {
          "duration": 0.11627906976744384,
          "durationTicks": 10,
          "midi": 69,
          "name": "A4",
          "ticks": 9113,
          "time": 105.96511627906976,
          "velocity": 0.08661417322834646
        },
        {
          "duration": 0.12790697674418539,
          "durationTicks": 11,
          "midi": 44,
          "name": "G#2",
          "ticks": 9125,
          "time": 106.1046511627907,
          "velocity": 0.2755905511811024
        },
        {
          "duration": 0.023255813953483084,
          "durationTicks": 2,
          "midi": 44,
          "name": "G#2",
          "ticks": 9142,
          "time": 106.30232558139535,
          "velocity": 0.23622047244094488
        },
        {
          "duration": 0.4767441860465169,
          "durationTicks": 41,
          "midi": 45,
          "name": "A2",
          "ticks": 9144,
          "time": 106.32558139534883,
          "velocity": 0.2283464566929134
        },
        {
          "duration": 0.034883720930224626,
          "durationTicks": 3,
          "midi": 44,
          "name": "G#2",
          "ticks": 9185,
          "time": 106.80232558139535,
          "velocity": 0.1732283464566929
        },
        {
          "duration": 0.06976744186046346,
          "durationTicks": 6,
          "midi": 44,
          "name": "G#2",
          "ticks": 9191,
          "time": 106.87209302325581,
          "velocity": 0.13385826771653545
        },
        {
          "duration": 0.10465116279068809,
          "durationTicks": 9,
          "midi": 50,
          "name": "D3",
          "ticks": 9195,
          "time": 106.9186046511628,
          "velocity": 0.11023622047244094
        },
        {
          "duration": 0.32558139534883423,
          "durationTicks": 28,
          "midi": 50,
          "name": "D3",
          "ticks": 9205,
          "time": 107.03488372093024,
          "velocity": 0.12598425196850394
        },
        {
          "duration": 0.12790697674418539,
          "durationTicks": 11,
          "midi": 69,
          "name": "A4",
          "ticks": 9207,
          "time": 107.05813953488372,
          "velocity": 0.08661417322834646
        },
        {
          "duration": 0.11627906976744384,
          "durationTicks": 10,
          "midi": 86,
          "name": "D6",
          "ticks": 9224,
          "time": 107.25581395348837,
          "velocity": 0.13385826771653545
        },
        {
          "duration": 0.09302325581394655,
          "durationTicks": 8,
          "midi": 44,
          "name": "G#2",
          "ticks": 9239,
          "time": 107.43023255813954,
          "velocity": 0.2125984251968504
        },
        {
          "duration": 0.081395348837205,
          "durationTicks": 7,
          "midi": 45,
          "name": "A2",
          "ticks": 9254,
          "time": 107.6046511627907,
          "velocity": 0.14960629921259844
        },
        {
          "duration": 0.16279069767442422,
          "durationTicks": 14,
          "midi": 44,
          "name": "G#2",
          "ticks": 9268,
          "time": 107.76744186046511,
          "velocity": 0.18110236220472442
        },
        {
          "duration": 0.06976744186046346,
          "durationTicks": 6,
          "midi": 86,
          "name": "D6",
          "ticks": 9271,
          "time": 107.80232558139535,
          "velocity": 0.07874015748031496
        },
        {
          "duration": 0.034883720930224626,
          "durationTicks": 3,
          "midi": 44,
          "name": "G#2",
          "ticks": 9286,
          "time": 107.97674418604652,
          "velocity": 0.13385826771653545
        },
        {
          "duration": 0.09302325581394655,
          "durationTicks": 8,
          "midi": 43,
          "name": "G2",
          "ticks": 9303,
          "time": 108.17441860465117,
          "velocity": 0.2440944881889764
        },
        {
          "duration": 0.03488372093023884,
          "durationTicks": 3,
          "midi": 42,
          "name": "F#2",
          "ticks": 9311,
          "time": 108.26744186046511,
          "velocity": 0.11811023622047244
        },
        {
          "duration": 0.10465116279068809,
          "durationTicks": 9,
          "midi": 43,
          "name": "G2",
          "ticks": 9318,
          "time": 108.34883720930233,
          "velocity": 0.1732283464566929
        },
        {
          "duration": 0.05813953488372192,
          "durationTicks": 5,
          "midi": 44,
          "name": "G#2",
          "ticks": 9333,
          "time": 108.52325581395348,
          "velocity": 0.1889763779527559
        },
        {
          "duration": 0.13953488372092693,
          "durationTicks": 12,
          "midi": 57,
          "name": "A3",
          "ticks": 9334,
          "time": 108.53488372093024,
          "velocity": 0.1889763779527559
        },
        {
          "duration": 0.034883720930224626,
          "durationTicks": 3,
          "midi": 45,
          "name": "A2",
          "ticks": 9341,
          "time": 108.61627906976744,
          "velocity": 0.11811023622047244
        },
        {
          "duration": 0.04651162790698038,
          "durationTicks": 4,
          "midi": 55,
          "name": "G3",
          "ticks": 9363,
          "time": 108.87209302325581,
          "velocity": 0.14960629921259844
        },
        {
          "duration": 0.04651162790698038,
          "durationTicks": 4,
          "midi": 44,
          "name": "G#2",
          "ticks": 9364,
          "time": 108.88372093023256,
          "velocity": 0.14960629921259844
        },
        {
          "duration": 0.06976744186046346,
          "durationTicks": 6,
          "midi": 44,
          "name": "G#2",
          "ticks": 9369,
          "time": 108.94186046511628,
          "velocity": 0.09448818897637795
        },
        {
          "duration": 0.03488372093023884,
          "durationTicks": 3,
          "midi": 44,
          "name": "G#2",
          "ticks": 9380,
          "time": 109.06976744186046,
          "velocity": 0.09448818897637795
        },
        {
          "duration": 0.06976744186047767,
          "durationTicks": 6,
          "midi": 52,
          "name": "E3",
          "ticks": 9382,
          "time": 109.09302325581395,
          "velocity": 0.12598425196850394
        },
        {
          "duration": 0.1279069767441996,
          "durationTicks": 11,
          "midi": 59,
          "name": "B3",
          "ticks": 9382,
          "time": 109.09302325581395,
          "velocity": 0.11811023622047244
        },
        {
          "duration": 0.034883720930224626,
          "durationTicks": 3,
          "midi": 41,
          "name": "F2",
          "ticks": 9388,
          "time": 109.16279069767442,
          "velocity": 0.08661417322834646
        },
        {
          "duration": 0.09302325581394655,
          "durationTicks": 8,
          "midi": 52,
          "name": "E3",
          "ticks": 9389,
          "time": 109.17441860465117,
          "velocity": 0.15748031496062992
        },
        {
          "duration": 0.04651162790698038,
          "durationTicks": 4,
          "midi": 41,
          "name": "F2",
          "ticks": 9397,
          "time": 109.26744186046511,
          "velocity": 0.14173228346456693
        },
        {
          "duration": 0.16279069767442422,
          "durationTicks": 14,
          "midi": 53,
          "name": "F3",
          "ticks": 9397,
          "time": 109.26744186046511,
          "velocity": 0.18110236220472442
        },
        {
          "duration": 0.034883720930224626,
          "durationTicks": 3,
          "midi": 40,
          "name": "E2",
          "ticks": 9405,
          "time": 109.36046511627907,
          "velocity": 0.14173228346456693
        },
        {
          "duration": 0.03488372093023884,
          "durationTicks": 3,
          "midi": 42,
          "name": "F#2",
          "ticks": 9408,
          "time": 109.3953488372093,
          "velocity": 0.15748031496062992
        },
        {
          "duration": 0.12790697674418539,
          "durationTicks": 11,
          "midi": 70,
          "name": "A#4",
          "ticks": 9414,
          "time": 109.46511627906976,
          "velocity": 0.1968503937007874
        },
        {
          "duration": 0.09302325581396076,
          "durationTicks": 8,
          "midi": 69,
          "name": "A4",
          "ticks": 9430,
          "time": 109.65116279069767,
          "velocity": 0.12598425196850394
        },
        {
          "duration": 0.034883720930224626,
          "durationTicks": 3,
          "midi": 44,
          "name": "G#2",
          "ticks": 9431,
          "time": 109.66279069767442,
          "velocity": 0.11811023622047244
        },
        {
          "duration": 0.034883720930224626,
          "durationTicks": 3,
          "midi": 56,
          "name": "G#3",
          "ticks": 9443,
          "time": 109.80232558139535,
          "velocity": 0.2440944881889764
        },
        {
          "duration": 0.09302325581396076,
          "durationTicks": 8,
          "midi": 44,
          "name": "G#2",
          "ticks": 9444,
          "time": 109.81395348837209,
          "velocity": 0.2677165354330709
        },
        {
          "duration": 0.16279069767442422,
          "durationTicks": 14,
          "midi": 57,
          "name": "A3",
          "ticks": 9446,
          "time": 109.83720930232558,
          "velocity": 0.1732283464566929
        },
        {
          "duration": 0.034883720930224626,
          "durationTicks": 3,
          "midi": 45,
          "name": "A2",
          "ticks": 9452,
          "time": 109.90697674418605,
          "velocity": 0.2047244094488189
        },
        {
          "duration": 0.38372093023257037,
          "durationTicks": 33,
          "midi": 45,
          "name": "A2",
          "ticks": 9457,
          "time": 109.96511627906976,
          "velocity": 0.2440944881889764
        },
        {
          "duration": 0.03488372093023884,
          "durationTicks": 3,
          "midi": 56,
          "name": "G#3",
          "ticks": 9460,
          "time": 110,
          "velocity": 0.13385826771653545
        },
        {
          "duration": 0.034883720930224626,
          "durationTicks": 3,
          "midi": 56,
          "name": "G#3",
          "ticks": 9486,
          "time": 110.30232558139535,
          "velocity": 0.11023622047244094
        },
        {
          "duration": 0.05813953488372192,
          "durationTicks": 5,
          "midi": 44,
          "name": "G#2",
          "ticks": 9490,
          "time": 110.34883720930233,
          "velocity": 0.2125984251968504
        },
        {
          "duration": 0.17441860465116577,
          "durationTicks": 15,
          "midi": 57,
          "name": "A3",
          "ticks": 9497,
          "time": 110.43023255813954,
          "velocity": 0.14173228346456693
        },
        {
          "duration": 0.081395348837205,
          "durationTicks": 7,
          "midi": 44,
          "name": "G#2",
          "ticks": 9498,
          "time": 110.44186046511628,
          "velocity": 0.2677165354330709
        },
        {
          "duration": 0.03488372093023884,
          "durationTicks": 3,
          "midi": 45,
          "name": "A2",
          "ticks": 9505,
          "time": 110.52325581395348,
          "velocity": 0.1889763779527559
        },
        {
          "duration": 0.33720930232559,
          "durationTicks": 29,
          "midi": 45,
          "name": "A2",
          "ticks": 9510,
          "time": 110.5813953488372,
          "velocity": 0.1889763779527559
        },
        {
          "duration": 0.04651162790696617,
          "durationTicks": 4,
          "midi": 44,
          "name": "G#2",
          "ticks": 9539,
          "time": 110.9186046511628,
          "velocity": 0.16535433070866143
        },
        {
          "duration": 0.05813953488372192,
          "durationTicks": 5,
          "midi": 56,
          "name": "G#3",
          "ticks": 9541,
          "time": 110.94186046511628,
          "velocity": 0.1889763779527559
        },
        {
          "duration": 0.06976744186046346,
          "durationTicks": 6,
          "midi": 44,
          "name": "G#2",
          "ticks": 9545,
          "time": 110.98837209302326,
          "velocity": 0.2677165354330709
        },
        {
          "duration": 0.05813953488372192,
          "durationTicks": 5,
          "midi": 45,
          "name": "A2",
          "ticks": 9551,
          "time": 111.05813953488372,
          "velocity": 0.23622047244094488
        },
        {
          "duration": 0.04651162790698038,
          "durationTicks": 4,
          "midi": 45,
          "name": "A2",
          "ticks": 9558,
          "time": 111.13953488372093,
          "velocity": 0.1889763779527559
        },
        {
          "duration": 0.03488372093023884,
          "durationTicks": 3,
          "midi": 44,
          "name": "G#2",
          "ticks": 9562,
          "time": 111.18604651162791,
          "velocity": 0.1889763779527559
        },
        {
          "duration": 0.2674418604651123,
          "durationTicks": 23,
          "midi": 45,
          "name": "A2",
          "ticks": 9565,
          "time": 111.22093023255815,
          "velocity": 0.2204724409448819
        },
        {
          "duration": 0.034883720930224626,
          "durationTicks": 3,
          "midi": 44,
          "name": "G#2",
          "ticks": 9588,
          "time": 111.48837209302326,
          "velocity": 0.18110236220472442
        },
        {
          "duration": 0.06976744186046346,
          "durationTicks": 6,
          "midi": 57,
          "name": "A3",
          "ticks": 9590,
          "time": 111.51162790697674,
          "velocity": 0.11023622047244094
        },
        {
          "duration": 0.4534883720930196,
          "durationTicks": 39,
          "midi": 69,
          "name": "A4",
          "ticks": 9592,
          "time": 111.53488372093024,
          "velocity": 0.12598425196850394
        },
        {
          "duration": 0.034883720930224626,
          "durationTicks": 3,
          "midi": 45,
          "name": "A2",
          "ticks": 9593,
          "time": 111.54651162790698,
          "velocity": 0.25984251968503935
        },
        {
          "duration": 0.023255813953497295,
          "durationTicks": 2,
          "midi": 44,
          "name": "G#2",
          "ticks": 9596,
          "time": 111.5813953488372,
          "velocity": 0.25984251968503935
        },
        {
          "duration": 0.06976744186046346,
          "durationTicks": 6,
          "midi": 45,
          "name": "A2",
          "ticks": 9598,
          "time": 111.6046511627907,
          "velocity": 0.25196850393700787
        },
        {
          "duration": 0.25581395348837077,
          "durationTicks": 22,
          "midi": 45,
          "name": "A2",
          "ticks": 9608,
          "time": 111.72093023255815,
          "velocity": 0.1968503937007874
        },
        {
          "duration": 0.17441860465115155,
          "durationTicks": 15,
          "midi": 44,
          "name": "G#2",
          "ticks": 9630,
          "time": 111.97674418604652,
          "velocity": 0.23622047244094488
        },
        {
          "duration": 0.03488372093023884,
          "durationTicks": 3,
          "midi": 56,
          "name": "G#3",
          "ticks": 9638,
          "time": 112.06976744186046,
          "velocity": 0.23622047244094488
        },
        {
          "duration": 0.09302325581394655,
          "durationTicks": 8,
          "midi": 57,
          "name": "A3",
          "ticks": 9641,
          "time": 112.1046511627907,
          "velocity": 0.1889763779527559
        },
        {
          "duration": 0.06976744186047767,
          "durationTicks": 6,
          "midi": 45,
          "name": "A2",
          "ticks": 9645,
          "time": 112.15116279069767,
          "velocity": 0.2204724409448819
        },
        {
          "duration": 0.04651162790698038,
          "durationTicks": 4,
          "midi": 45,
          "name": "A2",
          "ticks": 9654,
          "time": 112.25581395348837,
          "velocity": 0.2204724409448819
        },
        {
          "duration": 0.05813953488372192,
          "durationTicks": 5,
          "midi": 44,
          "name": "G#2",
          "ticks": 9658,
          "time": 112.30232558139535,
          "velocity": 0.2204724409448819
        },
        {
          "duration": 0.081395348837205,
          "durationTicks": 7,
          "midi": 44,
          "name": "G#2",
          "ticks": 9665,
          "time": 112.38372093023256,
          "velocity": 0.1968503937007874
        },
        {
          "duration": 0.05813953488372192,
          "durationTicks": 5,
          "midi": 69,
          "name": "A4",
          "ticks": 9665,
          "time": 112.38372093023256,
          "velocity": 0.08661417322834646
        },
        {
          "duration": 0.03488372093023884,
          "durationTicks": 3,
          "midi": 56,
          "name": "G#3",
          "ticks": 9671,
          "time": 112.45348837209302,
          "velocity": 0.28346456692913385
        },
        {
          "duration": 0.12790697674418539,
          "durationTicks": 11,
          "midi": 69,
          "name": "A4",
          "ticks": 9672,
          "time": 112.46511627906976,
          "velocity": 0.09448818897637795
        },
        {
          "duration": 0.22093023255813193,
          "durationTicks": 19,
          "midi": 57,
          "name": "A3",
          "ticks": 9674,
          "time": 112.48837209302326,
          "velocity": 0.2677165354330709
        },
        {
          "duration": 0.1046511627907023,
          "durationTicks": 9,
          "midi": 44,
          "name": "G#2",
          "ticks": 9682,
          "time": 112.5813953488372,
          "velocity": 0.08661417322834646
        },
        {
          "duration": 2.5465116279069804,
          "durationTicks": 219,
          "midi": 53,
          "name": "F3",
          "ticks": 9683,
          "time": 112.59302325581395,
          "velocity": 0.18110236220472442
        },
        {
          "duration": 0.08139534883721922,
          "durationTicks": 7,
          "midi": 44,
          "name": "G#2",
          "ticks": 9961,
          "time": 115.82558139534883,
          "velocity": 0.2755905511811024
        },
        {
          "duration": 0.6046511627906881,
          "durationTicks": 52,
          "midi": 45,
          "name": "A2",
          "ticks": 9968,
          "time": 115.90697674418605,
          "velocity": 0.2440944881889764
        },
        {
          "duration": 0.04651162790698038,
          "durationTicks": 4,
          "midi": 44,
          "name": "G#2",
          "ticks": 10020,
          "time": 116.51162790697674,
          "velocity": 0.14173228346456693
        },
        {
          "duration": 0.06976744186046346,
          "durationTicks": 6,
          "midi": 44,
          "name": "G#2",
          "ticks": 10025,
          "time": 116.56976744186046,
          "velocity": 0.2204724409448819
        },
        {
          "duration": 0.04651162790698038,
          "durationTicks": 4,
          "midi": 45,
          "name": "A2",
          "ticks": 10031,
          "time": 116.63953488372093,
          "velocity": 0.1889763779527559
        },
        {
          "duration": 0.581395348837205,
          "durationTicks": 50,
          "midi": 45,
          "name": "A2",
          "ticks": 10036,
          "time": 116.69767441860465,
          "velocity": 0.25196850393700787
        },
        {
          "duration": 0.11627906976744384,
          "durationTicks": 10,
          "midi": 55,
          "name": "G3",
          "ticks": 10087,
          "time": 117.29069767441861,
          "velocity": 0.15748031496062992
        },
        {
          "duration": 0.1046511627907023,
          "durationTicks": 9,
          "midi": 43,
          "name": "G2",
          "ticks": 10089,
          "time": 117.31395348837209,
          "velocity": 0.25984251968503935
        },
        {
          "duration": 0.13953488372092693,
          "durationTicks": 12,
          "midi": 43,
          "name": "G2",
          "ticks": 10100,
          "time": 117.44186046511628,
          "velocity": 0.2440944881889764
        },
        {
          "duration": 0.22093023255813193,
          "durationTicks": 19,
          "midi": 43,
          "name": "G2",
          "ticks": 10114,
          "time": 117.6046511627907,
          "velocity": 0.2204724409448819
        },
        {
          "duration": 0.05813953488372192,
          "durationTicks": 5,
          "midi": 54,
          "name": "F#3",
          "ticks": 10134,
          "time": 117.83720930232558,
          "velocity": 0.1732283464566929
        },
        {
          "duration": 0.05813953488372192,
          "durationTicks": 5,
          "midi": 42,
          "name": "F#2",
          "ticks": 10136,
          "time": 117.86046511627907,
          "velocity": 0.1889763779527559
        },
        {
          "duration": 0.081395348837205,
          "durationTicks": 7,
          "midi": 42,
          "name": "F#2",
          "ticks": 10143,
          "time": 117.94186046511628,
          "velocity": 0.1732283464566929
        },
        {
          "duration": 0.17441860465115155,
          "durationTicks": 15,
          "midi": 42,
          "name": "F#2",
          "ticks": 10151,
          "time": 118.03488372093024,
          "velocity": 0.1732283464566929
        },
        {
          "duration": 0.06976744186046346,
          "durationTicks": 6,
          "midi": 44,
          "name": "G#2",
          "ticks": 10167,
          "time": 118.22093023255815,
          "velocity": 0.09448818897637795
        },
        {
          "duration": 0.16279069767441,
          "durationTicks": 14,
          "midi": 55,
          "name": "G3",
          "ticks": 10167,
          "time": 118.22093023255815,
          "velocity": 0.1889763779527559
        },
        {
          "duration": 0.2906976744185954,
          "durationTicks": 25,
          "midi": 59,
          "name": "B3",
          "ticks": 10184,
          "time": 118.4186046511628,
          "velocity": 0.11023622047244094
        },
        {
          "duration": 0.04651162790696617,
          "durationTicks": 4,
          "midi": 69,
          "name": "A4",
          "ticks": 10200,
          "time": 118.6046511627907,
          "velocity": 0.11023622047244094
        },
        {
          "duration": 0.15116279069766847,
          "durationTicks": 13,
          "midi": 52,
          "name": "E3",
          "ticks": 10218,
          "time": 118.81395348837209,
          "velocity": 0.16535433070866143
        },
        {
          "duration": 0.023255813953483084,
          "durationTicks": 2,
          "midi": 56,
          "name": "G#3",
          "ticks": 10232,
          "time": 118.97674418604652,
          "velocity": 0.25984251968503935
        },
        {
          "duration": 0.04651162790698038,
          "durationTicks": 4,
          "midi": 57,
          "name": "A3",
          "ticks": 10234,
          "time": 119,
          "velocity": 0.2204724409448819
        },
        {
          "duration": 0.034883720930224626,
          "durationTicks": 3,
          "midi": 59,
          "name": "B3",
          "ticks": 10243,
          "time": 119.1046511627907,
          "velocity": 0.07874015748031496
        },
        {
          "duration": 0.05813953488372192,
          "durationTicks": 5,
          "midi": 55,
          "name": "G3",
          "ticks": 10247,
          "time": 119.15116279069767,
          "velocity": 0.25984251968503935
        },
        {
          "duration": 0.04651162790696617,
          "durationTicks": 4,
          "midi": 55,
          "name": "G3",
          "ticks": 10253,
          "time": 119.22093023255815,
          "velocity": 0.2204724409448819
        },
        {
          "duration": 0.1046511627907023,
          "durationTicks": 9,
          "midi": 56,
          "name": "G#3",
          "ticks": 10257,
          "time": 119.26744186046511,
          "velocity": 0.2440944881889764
        },
        {
          "duration": 0.30232558139535115,
          "durationTicks": 26,
          "midi": 69,
          "name": "A4",
          "ticks": 10263,
          "time": 119.33720930232558,
          "velocity": 0.16535433070866143
        },
        {
          "duration": 0.25581395348837077,
          "durationTicks": 22,
          "midi": 57,
          "name": "A3",
          "ticks": 10266,
          "time": 119.37209302325581,
          "velocity": 0.2125984251968504
        },
        {
          "duration": 0.03488372093023884,
          "durationTicks": 3,
          "midi": 56,
          "name": "G#3",
          "ticks": 10288,
          "time": 119.62790697674419,
          "velocity": 0.12598425196850394
        },
        {
          "duration": 0.3720930232558146,
          "durationTicks": 32,
          "midi": 59,
          "name": "B3",
          "ticks": 10294,
          "time": 119.69767441860465,
          "velocity": 0.14960629921259844
        },
        {
          "duration": 0.081395348837205,
          "durationTicks": 7,
          "midi": 52,
          "name": "E3",
          "ticks": 10298,
          "time": 119.74418604651163,
          "velocity": 0.07874015748031496
        },
        {
          "duration": 0.22093023255814614,
          "durationTicks": 19,
          "midi": 69,
          "name": "A4",
          "ticks": 10326,
          "time": 120.06976744186046,
          "velocity": 0.11811023622047244
        },
        {
          "duration": 0.15116279069768268,
          "durationTicks": 13,
          "midi": 57,
          "name": "A3",
          "ticks": 10328,
          "time": 120.09302325581395,
          "velocity": 0.2440944881889764
        },
        {
          "duration": 0.06976744186046346,
          "durationTicks": 6,
          "midi": 44,
          "name": "G#2",
          "ticks": 10343,
          "time": 120.26744186046511,
          "velocity": 0.2047244094488189
        },
        {
          "duration": 0.05813953488372192,
          "durationTicks": 5,
          "midi": 45,
          "name": "A2",
          "ticks": 10349,
          "time": 120.33720930232558,
          "velocity": 0.16535433070866143
        },
        {
          "duration": 0.09302325581396076,
          "durationTicks": 8,
          "midi": 57,
          "name": "A3",
          "ticks": 10359,
          "time": 120.45348837209302,
          "velocity": 0.09448818897637795
        },
        {
          "duration": 0.2093023255813904,
          "durationTicks": 18,
          "midi": 45,
          "name": "A2",
          "ticks": 10361,
          "time": 120.47674418604652,
          "velocity": 0.15748031496062992
        },
        {
          "duration": 0.06976744186046346,
          "durationTicks": 6,
          "midi": 52,
          "name": "E3",
          "ticks": 10362,
          "time": 120.48837209302326,
          "velocity": 0.07086614173228346
        },
        {
          "duration": 0.04651162790696617,
          "durationTicks": 4,
          "midi": 56,
          "name": "G#3",
          "ticks": 10367,
          "time": 120.54651162790698,
          "velocity": 0.11811023622047244
        },
        {
          "duration": 0.034883720930224626,
          "durationTicks": 3,
          "midi": 56,
          "name": "G#3",
          "ticks": 10373,
          "time": 120.61627906976744,
          "velocity": 0.1889763779527559
        },
        {
          "duration": 0.5,
          "durationTicks": 43,
          "midi": 69,
          "name": "A4",
          "ticks": 10374,
          "time": 120.62790697674419,
          "velocity": 0.14960629921259844
        },
        {
          "duration": 0.12790697674418539,
          "durationTicks": 11,
          "midi": 44,
          "name": "G#2",
          "ticks": 10384,
          "time": 120.74418604651163,
          "velocity": 0.23622047244094488
        },
        {
          "duration": 0.06976744186046346,
          "durationTicks": 6,
          "midi": 57,
          "name": "A3",
          "ticks": 10384,
          "time": 120.74418604651163,
          "velocity": 0.2125984251968504
        },
        {
          "duration": 0.27906976744186807,
          "durationTicks": 24,
          "midi": 57,
          "name": "A3",
          "ticks": 10391,
          "time": 120.82558139534883,
          "velocity": 0.1968503937007874
        },
        {
          "duration": 0.05813953488372192,
          "durationTicks": 5,
          "midi": 45,
          "name": "A2",
          "ticks": 10395,
          "time": 120.87209302325581,
          "velocity": 0.2283464566929134
        },
        {
          "duration": 0.03488372093023884,
          "durationTicks": 3,
          "midi": 45,
          "name": "A2",
          "ticks": 10402,
          "time": 120.95348837209302,
          "velocity": 0.1889763779527559
        },
        {
          "duration": 0.30232558139535115,
          "durationTicks": 26,
          "midi": 45,
          "name": "A2",
          "ticks": 10406,
          "time": 121,
          "velocity": 0.2283464566929134
        },
        {
          "duration": 0.4767441860465027,
          "durationTicks": 41,
          "midi": 69,
          "name": "A4",
          "ticks": 10421,
          "time": 121.17441860465117,
          "velocity": 0.13385826771653545
        },
        {
          "duration": 0.034883720930224626,
          "durationTicks": 3,
          "midi": 44,
          "name": "G#2",
          "ticks": 10432,
          "time": 121.30232558139535,
          "velocity": 0.14960629921259844
        },
        {
          "duration": 0.03488372093023884,
          "durationTicks": 3,
          "midi": 43,
          "name": "G2",
          "ticks": 10435,
          "time": 121.33720930232558,
          "velocity": 0.2047244094488189
        },
        {
          "duration": 0.081395348837205,
          "durationTicks": 7,
          "midi": 44,
          "name": "G#2",
          "ticks": 10438,
          "time": 121.37209302325581,
          "velocity": 0.2440944881889764
        },
        {
          "duration": 0.03488372093023884,
          "durationTicks": 3,
          "midi": 45,
          "name": "A2",
          "ticks": 10445,
          "time": 121.45348837209302,
          "velocity": 0.1889763779527559
        },
        {
          "duration": 0.418604651162795,
          "durationTicks": 36,
          "midi": 57,
          "name": "A3",
          "ticks": 10446,
          "time": 121.46511627906976,
          "velocity": 0.2283464566929134
        },
        {
          "duration": 0.03488372093023884,
          "durationTicks": 3,
          "midi": 45,
          "name": "A2",
          "ticks": 10450,
          "time": 121.51162790697674,
          "velocity": 0.2047244094488189
        },
        {
          "duration": 0.09302325581396076,
          "durationTicks": 8,
          "midi": 45,
          "name": "A2",
          "ticks": 10455,
          "time": 121.56976744186046,
          "velocity": 0.2047244094488189
        },
        {
          "duration": 0.034883720930224626,
          "durationTicks": 3,
          "midi": 44,
          "name": "G#2",
          "ticks": 10463,
          "time": 121.66279069767442,
          "velocity": 0.07086614173228346
        },
        {
          "duration": 0.05813953488372192,
          "durationTicks": 5,
          "midi": 44,
          "name": "G#2",
          "ticks": 10467,
          "time": 121.70930232558139,
          "velocity": 0.2204724409448819
        },
        {
          "duration": 0.08139534883721922,
          "durationTicks": 7,
          "midi": 45,
          "name": "A2",
          "ticks": 10472,
          "time": 121.76744186046511,
          "velocity": 0.2204724409448819
        },
        {
          "duration": 0.5,
          "durationTicks": 43,
          "midi": 45,
          "name": "A2",
          "ticks": 10480,
          "time": 121.86046511627907,
          "velocity": 0.1889763779527559
        },
        {
          "duration": 0.06976744186046346,
          "durationTicks": 6,
          "midi": 69,
          "name": "A4",
          "ticks": 10482,
          "time": 121.88372093023256,
          "velocity": 0.08661417322834646
        },
        {
          "duration": 0.034883720930224626,
          "durationTicks": 3,
          "midi": 56,
          "name": "G#3",
          "ticks": 10513,
          "time": 122.24418604651163,
          "velocity": 0.2047244094488189
        },
        {
          "duration": 0.24418604651162923,
          "durationTicks": 21,
          "midi": 69,
          "name": "A4",
          "ticks": 10514,
          "time": 122.25581395348837,
          "velocity": 0.11023622047244094
        },
        {
          "duration": 0.15116279069766847,
          "durationTicks": 13,
          "midi": 44,
          "name": "G#2",
          "ticks": 10523,
          "time": 122.36046511627907,
          "velocity": 0.2755905511811024
        },
        {
          "duration": 0.06976744186046346,
          "durationTicks": 6,
          "midi": 45,
          "name": "A2",
          "ticks": 10536,
          "time": 122.51162790697674,
          "velocity": 0.25984251968503935
        },
        {
          "duration": 0.19767441860466306,
          "durationTicks": 17,
          "midi": 45,
          "name": "A2",
          "ticks": 10543,
          "time": 122.59302325581395,
          "velocity": 0.2440944881889764
        },
        {
          "duration": 0.3488372093023173,
          "durationTicks": 30,
          "midi": 45,
          "name": "A2",
          "ticks": 10561,
          "time": 122.80232558139535,
          "velocity": 0.2204724409448819
        },
        {
          "duration": 0.4302325581395223,
          "durationTicks": 37,
          "midi": 43,
          "name": "G2",
          "ticks": 10592,
          "time": 123.16279069767442,
          "velocity": 0.2204724409448819
        },
        {
          "duration": 0.081395348837205,
          "durationTicks": 7,
          "midi": 43,
          "name": "G2",
          "ticks": 10631,
          "time": 123.61627906976744,
          "velocity": 0.18110236220472442
        },
        {
          "duration": 0.04651162790698038,
          "durationTicks": 4,
          "midi": 55,
          "name": "G3",
          "ticks": 10637,
          "time": 123.68604651162791,
          "velocity": 0.2283464566929134
        },
        {
          "duration": 0.19767441860464885,
          "durationTicks": 17,
          "midi": 54,
          "name": "F#3",
          "ticks": 10641,
          "time": 123.73255813953489,
          "velocity": 0.23622047244094488
        },
        {
          "duration": 0.05813953488372192,
          "durationTicks": 5,
          "midi": 42,
          "name": "F#2",
          "ticks": 10643,
          "time": 123.75581395348837,
          "velocity": 0.16535433070866143
        },
        {
          "duration": 0.12790697674418539,
          "durationTicks": 11,
          "midi": 42,
          "name": "F#2",
          "ticks": 10649,
          "time": 123.82558139534883,
          "velocity": 0.16535433070866143
        },
        {
          "duration": 0.17441860465116577,
          "durationTicks": 15,
          "midi": 42,
          "name": "F#2",
          "ticks": 10661,
          "time": 123.96511627906976,
          "velocity": 0.1732283464566929
        },
        {
          "duration": 0.04651162790698038,
          "durationTicks": 4,
          "midi": 55,
          "name": "G3",
          "ticks": 10674,
          "time": 124.11627906976744,
          "velocity": 0.14173228346456693
        },
        {
          "duration": 0.12790697674418539,
          "durationTicks": 11,
          "midi": 55,
          "name": "G3",
          "ticks": 10679,
          "time": 124.17441860465117,
          "velocity": 0.12598425196850394
        },
        {
          "duration": 0.2906976744185954,
          "durationTicks": 25,
          "midi": 59,
          "name": "B3",
          "ticks": 10689,
          "time": 124.29069767441861,
          "velocity": 0.14173228346456693
        },
        {
          "duration": 0.05813953488372192,
          "durationTicks": 5,
          "midi": 69,
          "name": "A4",
          "ticks": 10689,
          "time": 124.29069767441861,
          "velocity": 0.10236220472440945
        },
        {
          "duration": 0.081395348837205,
          "durationTicks": 7,
          "midi": 69,
          "name": "A4",
          "ticks": 10705,
          "time": 124.47674418604652,
          "velocity": 0.12598425196850394
        },
        {
          "duration": 0.05813953488372192,
          "durationTicks": 5,
          "midi": 44,
          "name": "G#2",
          "ticks": 10720,
          "time": 124.65116279069767,
          "velocity": 0.09448818897637795
        },
        {
          "duration": 0.16279069767441,
          "durationTicks": 14,
          "midi": 59,
          "name": "B3",
          "ticks": 10721,
          "time": 124.66279069767442,
          "velocity": 0.13385826771653545
        },
        {
          "duration": 0.15116279069766847,
          "durationTicks": 13,
          "midi": 52,
          "name": "E3",
          "ticks": 10722,
          "time": 124.67441860465117,
          "velocity": 0.11811023622047244
        },
        {
          "duration": 0.023255813953497295,
          "durationTicks": 2,
          "midi": 56,
          "name": "G#3",
          "ticks": 10736,
          "time": 124.83720930232558,
          "velocity": 0.25196850393700787
        },
        {
          "duration": 0.05813953488372192,
          "durationTicks": 5,
          "midi": 57,
          "name": "A3",
          "ticks": 10738,
          "time": 124.86046511627907,
          "velocity": 0.2125984251968504
        },
        {
          "duration": 0.034883720930224626,
          "durationTicks": 3,
          "midi": 57,
          "name": "A3",
          "ticks": 10744,
          "time": 124.93023255813954,
          "velocity": 0.1732283464566929
        },
        {
          "duration": 0.05813953488372192,
          "durationTicks": 5,
          "midi": 52,
          "name": "E3",
          "ticks": 10747,
          "time": 124.96511627906976,
          "velocity": 0.13385826771653545
        },
        {
          "duration": 0.04651162790698038,
          "durationTicks": 4,
          "midi": 59,
          "name": "B3",
          "ticks": 10749,
          "time": 124.98837209302326,
          "velocity": 0.07874015748031496
        },
        {
          "duration": 0.04651162790696617,
          "durationTicks": 4,
          "midi": 55,
          "name": "G3",
          "ticks": 10753,
          "time": 125.03488372093024,
          "velocity": 0.18110236220472442
        },
        {
          "duration": 0.03488372093023884,
          "durationTicks": 3,
          "midi": 52,
          "name": "E3",
          "ticks": 10763,
          "time": 125.15116279069767,
          "velocity": 0.08661417322834646
        },
        {
          "duration": 0.023255813953497295,
          "durationTicks": 2,
          "midi": 56,
          "name": "G#3",
          "ticks": 10768,
          "time": 125.20930232558139,
          "velocity": 0.25984251968503935
        },
        {
          "duration": 0.32558139534884845,
          "durationTicks": 28,
          "midi": 69,
          "name": "A4",
          "ticks": 10768,
          "time": 125.20930232558139,
          "velocity": 0.14960629921259844
        },
        {
          "duration": 0.30232558139535115,
          "durationTicks": 26,
          "midi": 57,
          "name": "A3",
          "ticks": 10770,
          "time": 125.23255813953489,
          "velocity": 0.23622047244094488
        },
        {
          "duration": 0.034883720930224626,
          "durationTicks": 3,
          "midi": 52,
          "name": "E3",
          "ticks": 10797,
          "time": 125.54651162790698,
          "velocity": 0.14173228346456693
        },
        {
          "duration": 0.05813953488372192,
          "durationTicks": 5,
          "midi": 59,
          "name": "B3",
          "ticks": 10799,
          "time": 125.56976744186046,
          "velocity": 0.11811023622047244
        },
        {
          "duration": 0.04651162790698038,
          "durationTicks": 4,
          "midi": 52,
          "name": "E3",
          "ticks": 10801,
          "time": 125.59302325581395,
          "velocity": 0.07874015748031496
        },
        {
          "duration": 0.06976744186046346,
          "durationTicks": 6,
          "midi": 59,
          "name": "B3",
          "ticks": 10805,
          "time": 125.63953488372093,
          "velocity": 0.12598425196850394
        },
        {
          "duration": 0.04651162790696617,
          "durationTicks": 4,
          "midi": 52,
          "name": "E3",
          "ticks": 10818,
          "time": 125.79069767441861,
          "velocity": 0.08661417322834646
        },
        {
          "duration": 0.034883720930224626,
          "durationTicks": 3,
          "midi": 40,
          "name": "E2",
          "ticks": 10819,
          "time": 125.80232558139535,
          "velocity": 0.07086614173228346
        },
        {
          "duration": 0.04651162790698038,
          "durationTicks": 4,
          "midi": 52,
          "name": "E3",
          "ticks": 10826,
          "time": 125.88372093023256,
          "velocity": 0.07874015748031496
        },
        {
          "duration": 0.04651162790698038,
          "durationTicks": 4,
          "midi": 56,
          "name": "G#3",
          "ticks": 10830,
          "time": 125.93023255813954,
          "velocity": 0.25984251968503935
        },
        {
          "duration": 0.38372093023255616,
          "durationTicks": 33,
          "midi": 69,
          "name": "A4",
          "ticks": 10831,
          "time": 125.94186046511628,
          "velocity": 0.14173228346456693
        },
        {
          "duration": 0.16279069767441,
          "durationTicks": 14,
          "midi": 57,
          "name": "A3",
          "ticks": 10834,
          "time": 125.97674418604652,
          "velocity": 0.1968503937007874
        },
        {
          "duration": 0.034883720930224626,
          "durationTicks": 3,
          "midi": 44,
          "name": "G#2",
          "ticks": 10851,
          "time": 126.17441860465117,
          "velocity": 0.25196850393700787
        },
        {
          "duration": 0.04651162790696617,
          "durationTicks": 4,
          "midi": 45,
          "name": "A2",
          "ticks": 10856,
          "time": 126.23255813953489,
          "velocity": 0.1968503937007874
        },
        {
          "duration": 0.5581395348837219,
          "durationTicks": 48,
          "midi": 45,
          "name": "A2",
          "ticks": 10861,
          "time": 126.29069767441861,
          "velocity": 0.2125984251968504
        },
        {
          "duration": 0.034883720930224626,
          "durationTicks": 3,
          "midi": 56,
          "name": "G#3",
          "ticks": 10878,
          "time": 126.48837209302326,
          "velocity": 0.18110236220472442
        },
        {
          "duration": 0.09302325581396076,
          "durationTicks": 8,
          "midi": 55,
          "name": "G3",
          "ticks": 10908,
          "time": 126.83720930232558,
          "velocity": 0.15748031496062992
        },
        {
          "duration": 0.023255813953483084,
          "durationTicks": 2,
          "midi": 44,
          "name": "G#2",
          "ticks": 10910,
          "time": 126.86046511627907,
          "velocity": 0.2283464566929134
        },
        {
          "duration": 0.06976744186046346,
          "durationTicks": 6,
          "midi": 43,
          "name": "G2",
          "ticks": 10912,
          "time": 126.88372093023256,
          "velocity": 0.25984251968503935
        },
        {
          "duration": 0.023255813953497295,
          "durationTicks": 2,
          "midi": 44,
          "name": "G#2",
          "ticks": 10918,
          "time": 126.95348837209302,
          "velocity": 0.2440944881889764
        },
        {
          "duration": 0.12790697674418539,
          "durationTicks": 11,
          "midi": 43,
          "name": "G2",
          "ticks": 10923,
          "time": 127.01162790697674,
          "velocity": 0.25196850393700787
        },
        {
          "duration": 0.09302325581394655,
          "durationTicks": 8,
          "midi": 43,
          "name": "G2",
          "ticks": 10936,
          "time": 127.16279069767442,
          "velocity": 0.2283464566929134
        },
        {
          "duration": 0.1046511627907023,
          "durationTicks": 9,
          "midi": 44,
          "name": "G#2",
          "ticks": 10944,
          "time": 127.25581395348837,
          "velocity": 0.1968503937007874
        },
        {
          "duration": 0.034883720930224626,
          "durationTicks": 3,
          "midi": 44,
          "name": "G#2",
          "ticks": 10957,
          "time": 127.40697674418605,
          "velocity": 0.11811023622047244
        },
        {
          "duration": 0.1046511627907023,
          "durationTicks": 9,
          "midi": 45,
          "name": "A2",
          "ticks": 10960,
          "time": 127.44186046511628,
          "velocity": 0.13385826771653545
        },
        {
          "duration": 0.023255813953497295,
          "durationTicks": 2,
          "midi": 57,
          "name": "A3",
          "ticks": 10973,
          "time": 127.59302325581395,
          "velocity": 0.2440944881889764
        },
        {
          "duration": 0.16279069767442422,
          "durationTicks": 14,
          "midi": 57,
          "name": "A3",
          "ticks": 10976,
          "time": 127.62790697674419,
          "velocity": 0.2283464566929134
        },
        {
          "duration": 0.081395348837205,
          "durationTicks": 7,
          "midi": 45,
          "name": "A2",
          "ticks": 10981,
          "time": 127.68604651162791,
          "velocity": 0.11023622047244094
        },
        {
          "duration": 0.2093023255813904,
          "durationTicks": 18,
          "midi": 57,
          "name": "A3",
          "ticks": 10991,
          "time": 127.80232558139535,
          "velocity": 0.2677165354330709
        },
        {
          "duration": 0.2325581395348877,
          "durationTicks": 20,
          "midi": 45,
          "name": "A2",
          "ticks": 10995,
          "time": 127.84883720930233,
          "velocity": 0.11811023622047244
        },
        {
          "duration": 0.05813953488370771,
          "durationTicks": 5,
          "midi": 44,
          "name": "G#2",
          "ticks": 11015,
          "time": 128.08139534883722,
          "velocity": 0.10236220472440945
        },
        {
          "duration": 0.04651162790696617,
          "durationTicks": 4,
          "midi": 56,
          "name": "G#3",
          "ticks": 11017,
          "time": 128.1046511627907,
          "velocity": 0.11811023622047244
        },
        {
          "duration": 0.03488372093025305,
          "durationTicks": 3,
          "midi": 44,
          "name": "G#2",
          "ticks": 11022,
          "time": 128.1627906976744,
          "velocity": 0.2204724409448819
        },
        {
          "duration": 0.8372093023255616,
          "durationTicks": 72,
          "midi": 59,
          "name": "B3",
          "ticks": 11027,
          "time": 128.22093023255815,
          "velocity": 0.1968503937007874
        },
        {
          "duration": 0.3604651162790731,
          "durationTicks": 31,
          "midi": 55,
          "name": "G3",
          "ticks": 11038,
          "time": 128.34883720930233,
          "velocity": 0.15748031496062992
        },
        {
          "duration": 0.03488372093025305,
          "durationTicks": 3,
          "midi": 55,
          "name": "G3",
          "ticks": 11087,
          "time": 128.91860465116278,
          "velocity": 0.10236220472440945
        },
        {
          "duration": 0.06976744186044925,
          "durationTicks": 6,
          "midi": 55,
          "name": "G3",
          "ticks": 11092,
          "time": 128.97674418604652,
          "velocity": 0.07874015748031496
        },
        {
          "duration": 0.04651162790696617,
          "durationTicks": 4,
          "midi": 59,
          "name": "B3",
          "ticks": 11104,
          "time": 129.11627906976744,
          "velocity": 0.12598425196850394
        },
        {
          "duration": 0.4767441860465169,
          "durationTicks": 41,
          "midi": 48,
          "name": "C3",
          "ticks": 11108,
          "time": 129.1627906976744,
          "velocity": 0.15748031496062992
        },
        {
          "duration": 0.05813953488373613,
          "durationTicks": 5,
          "midi": 59,
          "name": "B3",
          "ticks": 11110,
          "time": 129.1860465116279,
          "velocity": 0.13385826771653545
        },
        {
          "duration": 0.11627906976744384,
          "durationTicks": 10,
          "midi": 59,
          "name": "B3",
          "ticks": 11117,
          "time": 129.2674418604651,
          "velocity": 0.11811023622047244
        },
        {
          "duration": 0.03488372093025305,
          "durationTicks": 3,
          "midi": 59,
          "name": "B3",
          "ticks": 11129,
          "time": 129.40697674418604,
          "velocity": 0.12598425196850394
        },
        {
          "duration": 0.1860465116278931,
          "durationTicks": 16,
          "midi": 55,
          "name": "G3",
          "ticks": 11132,
          "time": 129.4418604651163,
          "velocity": 0.14173228346456693
        },
        {
          "duration": 0.12790697674418539,
          "durationTicks": 11,
          "midi": 86,
          "name": "D6",
          "ticks": 11148,
          "time": 129.62790697674419,
          "velocity": 0.11811023622047244
        },
        {
          "duration": 0.034883720930224626,
          "durationTicks": 3,
          "midi": 48,
          "name": "C3",
          "ticks": 11150,
          "time": 129.65116279069767,
          "velocity": 0.13385826771653545
        },
        {
          "duration": 0.12790697674418539,
          "durationTicks": 11,
          "midi": 55,
          "name": "G3",
          "ticks": 11150,
          "time": 129.65116279069767,
          "velocity": 0.07874015748031496
        },
        {
          "duration": 0.03488372093025305,
          "durationTicks": 3,
          "midi": 47,
          "name": "B2",
          "ticks": 11153,
          "time": 129.6860465116279,
          "velocity": 0.11023622047244094
        },
        {
          "duration": 0.034883720930224626,
          "durationTicks": 3,
          "midi": 45,
          "name": "A2",
          "ticks": 11157,
          "time": 129.7325581395349,
          "velocity": 0.2125984251968504
        },
        {
          "duration": 0.023255813953483084,
          "durationTicks": 2,
          "midi": 44,
          "name": "G#2",
          "ticks": 11160,
          "time": 129.7674418604651,
          "velocity": 0.25196850393700787
        },
        {
          "duration": 0.08139534883721922,
          "durationTicks": 7,
          "midi": 45,
          "name": "A2",
          "ticks": 11162,
          "time": 129.7906976744186,
          "velocity": 0.23622047244094488
        },
        {
          "duration": 0.034883720930224626,
          "durationTicks": 3,
          "midi": 56,
          "name": "G#3",
          "ticks": 11167,
          "time": 129.84883720930233,
          "velocity": 0.11811023622047244
        },
        {
          "duration": 0.6162790697674438,
          "durationTicks": 53,
          "midi": 45,
          "name": "A2",
          "ticks": 11172,
          "time": 129.90697674418604,
          "velocity": 0.1889763779527559
        },
        {
          "duration": 0.04651162790699459,
          "durationTicks": 4,
          "midi": 55,
          "name": "G3",
          "ticks": 11196,
          "time": 130.1860465116279,
          "velocity": 0.13385826771653545
        },
        {
          "duration": 0.22093023255814614,
          "durationTicks": 19,
          "midi": 86,
          "name": "D6",
          "ticks": 11200,
          "time": 130.2325581395349,
          "velocity": 0.07874015748031496
        },
        {
          "duration": 0.05813953488373613,
          "durationTicks": 5,
          "midi": 44,
          "name": "G#2",
          "ticks": 11225,
          "time": 130.52325581395348,
          "velocity": 0.15748031496062992
        },
        {
          "duration": 0.30232558139533694,
          "durationTicks": 26,
          "midi": 52,
          "name": "E3",
          "ticks": 11232,
          "time": 130.6046511627907,
          "velocity": 0.1889763779527559
        },
        {
          "duration": 0.06976744186047767,
          "durationTicks": 6,
          "midi": 44,
          "name": "G#2",
          "ticks": 11249,
          "time": 130.80232558139534,
          "velocity": 0.11023622047244094
        },
        {
          "duration": 0.03488372093025305,
          "durationTicks": 3,
          "midi": 51,
          "name": "D#3",
          "ticks": 11258,
          "time": 130.90697674418604,
          "velocity": 0.11023622047244094
        },
        {
          "duration": 0.034883720930224626,
          "durationTicks": 3,
          "midi": 44,
          "name": "G#2",
          "ticks": 11265,
          "time": 130.98837209302326,
          "velocity": 0.08661417322834646
        },
        {
          "duration": 0.04651162790696617,
          "durationTicks": 4,
          "midi": 53,
          "name": "F3",
          "ticks": 11286,
          "time": 131.2325581395349,
          "velocity": 0.11811023622047244
        },
        {
          "duration": 0.4186046511627808,
          "durationTicks": 36,
          "midi": 57,
          "name": "A3",
          "ticks": 11295,
          "time": 131.3372093023256,
          "velocity": 0.1889763779527559
        },
        {
          "duration": 0.5,
          "durationTicks": 43,
          "midi": 69,
          "name": "A4",
          "ticks": 11295,
          "time": 131.3372093023256,
          "velocity": 0.1889763779527559
        },
        {
          "duration": 0.034883720930224626,
          "durationTicks": 3,
          "midi": 42,
          "name": "F#2",
          "ticks": 11304,
          "time": 131.4418604651163,
          "velocity": 0.07874015748031496
        },
        {
          "duration": 0.16279069767443843,
          "durationTicks": 14,
          "midi": 41,
          "name": "F2",
          "ticks": 11325,
          "time": 131.6860465116279,
          "velocity": 0.07874015748031496
        },
        {
          "duration": 0.023255813953483084,
          "durationTicks": 2,
          "midi": 44,
          "name": "G#2",
          "ticks": 11341,
          "time": 131.87209302325581,
          "velocity": 0.2283464566929134
        },
        {
          "duration": 0.15116279069766847,
          "durationTicks": 13,
          "midi": 55,
          "name": "G3",
          "ticks": 11344,
          "time": 131.90697674418604,
          "velocity": 0.23622047244094488
        },
        {
          "duration": 0.05813953488373613,
          "durationTicks": 5,
          "midi": 56,
          "name": "G#3",
          "ticks": 11357,
          "time": 132.0581395348837,
          "velocity": 0.18110236220472442
        },
        {
          "duration": 0.034883720930224626,
          "durationTicks": 3,
          "midi": 44,
          "name": "G#2",
          "ticks": 11359,
          "time": 132.08139534883722,
          "velocity": 0.08661417322834646
        },
        {
          "duration": 0.12790697674418539,
          "durationTicks": 11,
          "midi": 69,
          "name": "A4",
          "ticks": 11361,
          "time": 132.1046511627907,
          "velocity": 0.18110236220472442
        },
        {
          "duration": 0.08139534883721922,
          "durationTicks": 7,
          "midi": 57,
          "name": "A3",
          "ticks": 11365,
          "time": 132.15116279069767,
          "velocity": 0.18110236220472442
        },
        {
          "duration": 0.2906976744186238,
          "durationTicks": 25,
          "midi": 69,
          "name": "A4",
          "ticks": 11377,
          "time": 132.2906976744186,
          "velocity": 0.2047244094488189
        },
        {
          "duration": 0.2790697674418823,
          "durationTicks": 24,
          "midi": 57,
          "name": "A3",
          "ticks": 11378,
          "time": 132.30232558139534,
          "velocity": 0.2125984251968504
        },
        {
          "duration": 0.12790697674418539,
          "durationTicks": 11,
          "midi": 69,
          "name": "A4",
          "ticks": 11408,
          "time": 132.65116279069767,
          "velocity": 0.18110236220472442
        },
        {
          "duration": 0.03488372093025305,
          "durationTicks": 3,
          "midi": 51,
          "name": "D#3",
          "ticks": 11409,
          "time": 132.6627906976744,
          "velocity": 0.1732283464566929
        },
        {
          "duration": 0.034883720930224626,
          "durationTicks": 3,
          "midi": 51,
          "name": "D#3",
          "ticks": 11414,
          "time": 132.72093023255815,
          "velocity": 0.18110236220472442
        },
        {
          "duration": 0.034883720930224626,
          "durationTicks": 3,
          "midi": 51,
          "name": "D#3",
          "ticks": 11418,
          "time": 132.7674418604651,
          "velocity": 0.18110236220472442
        },
        {
          "duration": 0.023255813953483084,
          "durationTicks": 2,
          "midi": 56,
          "name": "G#3",
          "ticks": 11424,
          "time": 132.8372093023256,
          "velocity": 0.2440944881889764
        },
        {
          "duration": 0.12790697674418539,
          "durationTicks": 11,
          "midi": 57,
          "name": "A3",
          "ticks": 11426,
          "time": 132.86046511627907,
          "velocity": 0.15748031496062992
        },
        {
          "duration": 0.04651162790699459,
          "durationTicks": 4,
          "midi": 45,
          "name": "A2",
          "ticks": 11431,
          "time": 132.91860465116278,
          "velocity": 0.16535433070866143
        },
        {
          "duration": 0.12790697674418539,
          "durationTicks": 11,
          "midi": 45,
          "name": "A2",
          "ticks": 11436,
          "time": 132.97674418604652,
          "velocity": 0.25196850393700787
        },
        {
          "duration": 0.05813953488370771,
          "durationTicks": 5,
          "midi": 45,
          "name": "A2",
          "ticks": 11448,
          "time": 133.11627906976744,
          "velocity": 0.2440944881889764
        },
        {
          "duration": 0.023255813953511506,
          "durationTicks": 2,
          "midi": 44,
          "name": "G#2",
          "ticks": 11453,
          "time": 133.17441860465115,
          "velocity": 0.2440944881889764
        },
        {
          "duration": 0.04651162790699459,
          "durationTicks": 4,
          "midi": 55,
          "name": "G3",
          "ticks": 11454,
          "time": 133.1860465116279,
          "velocity": 0.09448818897637795
        },
        {
          "duration": 0.05813953488370771,
          "durationTicks": 5,
          "midi": 43,
          "name": "G2",
          "ticks": 11455,
          "time": 133.19767441860466,
          "velocity": 0.2677165354330709
        },
        {
          "duration": 0.09302325581396076,
          "durationTicks": 8,
          "midi": 55,
          "name": "G3",
          "ticks": 11471,
          "time": 133.38372093023256,
          "velocity": 0.1968503937007874
        },
        {
          "duration": 0.09302325581393234,
          "durationTicks": 8,
          "midi": 44,
          "name": "G#2",
          "ticks": 11477,
          "time": 133.45348837209303,
          "velocity": 0.13385826771653545
        },
        {
          "duration": 0.034883720930224626,
          "durationTicks": 3,
          "midi": 56,
          "name": "G#3",
          "ticks": 11479,
          "time": 133.47674418604652,
          "velocity": 0.2125984251968504
        },
        {
          "duration": 0.06976744186044925,
          "durationTicks": 6,
          "midi": 69,
          "name": "A4",
          "ticks": 11480,
          "time": 133.48837209302326,
          "velocity": 0.07086614173228346
        },
        {
          "duration": 0.25581395348837077,
          "durationTicks": 22,
          "midi": 57,
          "name": "A3",
          "ticks": 11482,
          "time": 133.51162790697674,
          "velocity": 0.2283464566929134
        },
        {
          "duration": 0.03488372093025305,
          "durationTicks": 3,
          "midi": 45,
          "name": "A2",
          "ticks": 11485,
          "time": 133.54651162790697,
          "velocity": 0.1968503937007874
        },
        {
          "duration": 0.034883720930224626,
          "durationTicks": 3,
          "midi": 44,
          "name": "G#2",
          "ticks": 11488,
          "time": 133.58139534883722,
          "velocity": 0.2283464566929134
        },
        {
          "duration": 0.06976744186044925,
          "durationTicks": 6,
          "midi": 45,
          "name": "A2",
          "ticks": 11491,
          "time": 133.61627906976744,
          "velocity": 0.2283464566929134
        },
        {
          "duration": 0.15116279069766847,
          "durationTicks": 13,
          "midi": 45,
          "name": "A2",
          "ticks": 11498,
          "time": 133.69767441860466,
          "velocity": 0.2440944881889764
        },
        {
          "duration": 0.034883720930224626,
          "durationTicks": 3,
          "midi": 55,
          "name": "G3",
          "ticks": 11510,
          "time": 133.8372093023256,
          "velocity": 0.10236220472440945
        },
        {
          "duration": 0.06976744186044925,
          "durationTicks": 6,
          "midi": 44,
          "name": "G#2",
          "ticks": 11511,
          "time": 133.84883720930233,
          "velocity": 0.11811023622047244
        },
        {
          "duration": 0.03488372093025305,
          "durationTicks": 3,
          "midi": 55,
          "name": "G3",
          "ticks": 11516,
          "time": 133.90697674418604,
          "velocity": 0.09448818897637795
        },
        {
          "duration": 0.03488372093025305,
          "durationTicks": 3,
          "midi": 45,
          "name": "A2",
          "ticks": 11517,
          "time": 133.91860465116278,
          "velocity": 0.2047244094488189
        },
        {
          "duration": 0.15116279069766847,
          "durationTicks": 13,
          "midi": 45,
          "name": "A2",
          "ticks": 11532,
          "time": 134.09302325581396,
          "velocity": 0.23622047244094488
        },
        {
          "duration": 0.05813953488373613,
          "durationTicks": 5,
          "midi": 55,
          "name": "G3",
          "ticks": 11538,
          "time": 134.1627906976744,
          "velocity": 0.07874015748031496
        },
        {
          "duration": 0.03488372093025305,
          "durationTicks": 3,
          "midi": 55,
          "name": "G3",
          "ticks": 11550,
          "time": 134.30232558139534,
          "velocity": 0.07086614173228346
        },
        {
          "duration": 0.04651162790696617,
          "durationTicks": 4,
          "midi": 60,
          "name": "C4",
          "ticks": 11552,
          "time": 134.32558139534885,
          "velocity": 0.11811023622047244
        },
        {
          "duration": 0.04651162790699459,
          "durationTicks": 4,
          "midi": 60,
          "name": "C4",
          "ticks": 11558,
          "time": 134.3953488372093,
          "velocity": 0.11023622047244094
        },
        {
          "duration": 0.24418604651162923,
          "durationTicks": 21,
          "midi": 48,
          "name": "C3",
          "ticks": 11559,
          "time": 134.40697674418604,
          "velocity": 0.16535433070866143
        },
        {
          "duration": 0.034883720930224626,
          "durationTicks": 3,
          "midi": 53,
          "name": "F3",
          "ticks": 11580,
          "time": 134.65116279069767,
          "velocity": 0.11811023622047244
        },
        {
          "duration": 0.03488372093025305,
          "durationTicks": 3,
          "midi": 48,
          "name": "C3",
          "ticks": 11581,
          "time": 134.6627906976744,
          "velocity": 0.11023622047244094
        },
        {
          "duration": 0.034883720930224626,
          "durationTicks": 3,
          "midi": 41,
          "name": "F2",
          "ticks": 11584,
          "time": 134.69767441860466,
          "velocity": 0.08661417322834646
        },
        {
          "duration": 0.05813953488373613,
          "durationTicks": 5,
          "midi": 48,
          "name": "C3",
          "ticks": 11590,
          "time": 134.7674418604651,
          "velocity": 0.12598425196850394
        },
        {
          "duration": 0.023255813953483084,
          "durationTicks": 2,
          "midi": 45,
          "name": "A2",
          "ticks": 11600,
          "time": 134.88372093023256,
          "velocity": 0.2283464566929134
        },
        {
          "duration": 0.023255813953483084,
          "durationTicks": 2,
          "midi": 44,
          "name": "G#2",
          "ticks": 11602,
          "time": 134.90697674418604,
          "velocity": 0.23622047244094488
        },
        {
          "duration": 0.034883720930224626,
          "durationTicks": 3,
          "midi": 50,
          "name": "D3",
          "ticks": 11619,
          "time": 135.1046511627907,
          "velocity": 0.14173228346456693
        },
        {
          "duration": 0.034883720930224626,
          "durationTicks": 3,
          "midi": 45,
          "name": "A2",
          "ticks": 11628,
          "time": 135.2093023255814,
          "velocity": 0.15748031496062992
        },
        {
          "duration": 0.034883720930224626,
          "durationTicks": 3,
          "midi": 50,
          "name": "D3",
          "ticks": 11629,
          "time": 135.22093023255815,
          "velocity": 0.14960629921259844
        },
        {
          "duration": 0.03488372093025305,
          "durationTicks": 3,
          "midi": 50,
          "name": "D3",
          "ticks": 11634,
          "time": 135.27906976744185,
          "velocity": 0.15748031496062992
        },
        {
          "duration": 0.034883720930224626,
          "durationTicks": 3,
          "midi": 50,
          "name": "D3",
          "ticks": 11644,
          "time": 135.3953488372093,
          "velocity": 0.13385826771653545
        },
        {
          "duration": 0.023255813953483084,
          "durationTicks": 2,
          "midi": 42,
          "name": "F#2",
          "ticks": 11645,
          "time": 135.40697674418604,
          "velocity": 0.23622047244094488
        },
        {
          "duration": 0.06976744186047767,
          "durationTicks": 6,
          "midi": 43,
          "name": "G2",
          "ticks": 11647,
          "time": 135.43023255813952,
          "velocity": 0.25196850393700787
        },
        {
          "duration": 0.13953488372092693,
          "durationTicks": 12,
          "midi": 44,
          "name": "G#2",
          "ticks": 11653,
          "time": 135.5,
          "velocity": 0.2204724409448819
        },
        {
          "duration": 0.03488372093025305,
          "durationTicks": 3,
          "midi": 44,
          "name": "G#2",
          "ticks": 11668,
          "time": 135.67441860465115,
          "velocity": 0.1889763779527559
        },
        {
          "duration": 0.05813953488370771,
          "durationTicks": 5,
          "midi": 44,
          "name": "G#2",
          "ticks": 11672,
          "time": 135.72093023255815,
          "velocity": 0.2440944881889764
        },
        {
          "duration": 0.13953488372092693,
          "durationTicks": 12,
          "midi": 52,
          "name": "E3",
          "ticks": 11681,
          "time": 135.82558139534885,
          "velocity": 0.10236220472440945
        },
        {
          "duration": 0.20930232558137618,
          "durationTicks": 18,
          "midi": 59,
          "name": "B3",
          "ticks": 11693,
          "time": 135.96511627906978,
          "velocity": 0.08661417322834646
        },
        {
          "duration": 0.7325581395348877,
          "durationTicks": 63,
          "midi": 52,
          "name": "E3",
          "ticks": 11694,
          "time": 135.97674418604652,
          "velocity": 0.11023622047244094
        },
        {
          "duration": 0.1046511627907023,
          "durationTicks": 9,
          "midi": 69,
          "name": "A4",
          "ticks": 11709,
          "time": 136.15116279069767,
          "velocity": 0.14960629921259844
        },
        {
          "duration": 0.05813953488370771,
          "durationTicks": 5,
          "midi": 69,
          "name": "A4",
          "ticks": 11758,
          "time": 136.72093023255815,
          "velocity": 0.10236220472440945
        },
        {
          "duration": 0.13953488372092693,
          "durationTicks": 12,
          "midi": 44,
          "name": "G#2",
          "ticks": 11761,
          "time": 136.75581395348837,
          "velocity": 0.25196850393700787
        },
        {
          "duration": 0.1046511627907023,
          "durationTicks": 9,
          "midi": 44,
          "name": "G#2",
          "ticks": 11774,
          "time": 136.90697674418604,
          "velocity": 0.2677165354330709
        },
        {
          "duration": 0.3953488372093261,
          "durationTicks": 34,
          "midi": 45,
          "name": "A2",
          "ticks": 11787,
          "time": 137.0581395348837,
          "velocity": 0.2440944881889764
        },
        {
          "duration": 0.1046511627907023,
          "durationTicks": 9,
          "midi": 55,
          "name": "G3",
          "ticks": 11790,
          "time": 137.09302325581396,
          "velocity": 0.12598425196850394
        },
        {
          "duration": 0.05813953488370771,
          "durationTicks": 5,
          "midi": 56,
          "name": "G#3",
          "ticks": 11799,
          "time": 137.19767441860466,
          "velocity": 0.07874015748031496
        },
        {
          "duration": 0.08139534883721922,
          "durationTicks": 7,
          "midi": 44,
          "name": "G#2",
          "ticks": 11825,
          "time": 137.5,
          "velocity": 0.2677165354330709
        },
        {
          "duration": 0.04651162790696617,
          "durationTicks": 4,
          "midi": 45,
          "name": "A2",
          "ticks": 11832,
          "time": 137.58139534883722,
          "velocity": 0.2204724409448819
        },
        {
          "duration": 0.04651162790699459,
          "durationTicks": 4,
          "midi": 43,
          "name": "G2",
          "ticks": 11849,
          "time": 137.77906976744185,
          "velocity": 0.07874015748031496
        },
        {
          "duration": 0.0813953488371908,
          "durationTicks": 7,
          "midi": 86,
          "name": "D6",
          "ticks": 11855,
          "time": 137.84883720930233,
          "velocity": 0.12598425196850394
        },
        {
          "duration": 0.034883720930224626,
          "durationTicks": 3,
          "midi": 86,
          "name": "D6",
          "ticks": 11869,
          "time": 138.01162790697674,
          "velocity": 0.07086614173228346
        },
        {
          "duration": 0.04651162790696617,
          "durationTicks": 4,
          "midi": 52,
          "name": "E3",
          "ticks": 11877,
          "time": 138.1046511627907,
          "velocity": 0.11023622047244094
        },
        {
          "duration": 0.12790697674418539,
          "durationTicks": 11,
          "midi": 43,
          "name": "G2",
          "ticks": 11883,
          "time": 138.17441860465115,
          "velocity": 0.2440944881889764
        },
        {
          "duration": 0.11627906976741542,
          "durationTicks": 10,
          "midi": 43,
          "name": "G2",
          "ticks": 11895,
          "time": 138.3139534883721,
          "velocity": 0.1968503937007874
        },
        {
          "duration": 0.10465116279067388,
          "durationTicks": 9,
          "midi": 43,
          "name": "G2",
          "ticks": 11906,
          "time": 138.4418604651163,
          "velocity": 0.16535433070866143
        },
        {
          "duration": 0.034883720930224626,
          "durationTicks": 3,
          "midi": 45,
          "name": "A2",
          "ticks": 11917,
          "time": 138.56976744186048,
          "velocity": 0.2283464566929134
        },
        {
          "duration": 0.034883720930224626,
          "durationTicks": 3,
          "midi": 44,
          "name": "G#2",
          "ticks": 11920,
          "time": 138.6046511627907,
          "velocity": 0.25984251968503935
        },
        {
          "duration": 0.04651162790699459,
          "durationTicks": 4,
          "midi": 45,
          "name": "A2",
          "ticks": 11925,
          "time": 138.6627906976744,
          "velocity": 0.25196850393700787
        },
        {
          "duration": 0.034883720930224626,
          "durationTicks": 3,
          "midi": 45,
          "name": "A2",
          "ticks": 11930,
          "time": 138.72093023255815,
          "velocity": 0.18110236220472442
        },
        {
          "duration": 0.16279069767443843,
          "durationTicks": 14,
          "midi": 69,
          "name": "A4",
          "ticks": 11935,
          "time": 138.77906976744185,
          "velocity": 0.07874015748031496
        },
        {
          "duration": 0.12790697674418539,
          "durationTicks": 11,
          "midi": 57,
          "name": "A3",
          "ticks": 11936,
          "time": 138.7906976744186,
          "velocity": 0.12598425196850394
        },
        {
          "duration": 0.03488372093025305,
          "durationTicks": 3,
          "midi": 55,
          "name": "G3",
          "ticks": 11948,
          "time": 138.93023255813952,
          "velocity": 0.16535433070866143
        },
        {
          "duration": 0.034883720930224626,
          "durationTicks": 3,
          "midi": 56,
          "name": "G#3",
          "ticks": 11951,
          "time": 138.96511627906978,
          "velocity": 0.11811023622047244
        },
        {
          "duration": 0.034883720930224626,
          "durationTicks": 3,
          "midi": 45,
          "name": "A2",
          "ticks": 11972,
          "time": 139.2093023255814,
          "velocity": 0.14173228346456693
        },
        {
          "duration": 0.03488372093025305,
          "durationTicks": 3,
          "midi": 42,
          "name": "F#2",
          "ticks": 11980,
          "time": 139.30232558139534,
          "velocity": 0.15748031496062992
        },
        {
          "duration": 0.17441860465115155,
          "durationTicks": 15,
          "midi": 53,
          "name": "F3",
          "ticks": 11983,
          "time": 139.3372093023256,
          "velocity": 0.16535433070866143
        },
        {
          "duration": 0.11627906976744384,
          "durationTicks": 10,
          "midi": 53,
          "name": "F3",
          "ticks": 11999,
          "time": 139.52325581395348,
          "velocity": 0.08661417322834646
        },
        {
          "duration": 0.1046511627907023,
          "durationTicks": 9,
          "midi": 58,
          "name": "A#3",
          "ticks": 12000,
          "time": 139.53488372093022,
          "velocity": 0.07086614173228346
        },
        {
          "duration": 0.04651162790696617,
          "durationTicks": 4,
          "midi": 70,
          "name": "A#4",
          "ticks": 12007,
          "time": 139.61627906976744,
          "velocity": 0.09448818897637795
        },
        {
          "duration": 0.09302325581393234,
          "durationTicks": 8,
          "midi": 69,
          "name": "A4",
          "ticks": 12015,
          "time": 139.7093023255814,
          "velocity": 0.10236220472440945
        },
        {
          "duration": 0.04651162790696617,
          "durationTicks": 4,
          "midi": 50,
          "name": "D3",
          "ticks": 12017,
          "time": 139.7325581395349,
          "velocity": 0.13385826771653545
        },
        {
          "duration": 0.04651162790696617,
          "durationTicks": 4,
          "midi": 56,
          "name": "G#3",
          "ticks": 12029,
          "time": 139.87209302325581,
          "velocity": 0.23622047244094488
        },
        {
          "duration": 0.08139534883721922,
          "durationTicks": 7,
          "midi": 44,
          "name": "G#2",
          "ticks": 12031,
          "time": 139.8953488372093,
          "velocity": 0.2677165354330709
        },
        {
          "duration": 0.2790697674418823,
          "durationTicks": 24,
          "midi": 57,
          "name": "A3",
          "ticks": 12033,
          "time": 139.91860465116278,
          "velocity": 0.14960629921259844
        },
        {
          "duration": 0.04651162790696617,
          "durationTicks": 4,
          "midi": 45,
          "name": "A2",
          "ticks": 12038,
          "time": 139.97674418604652,
          "velocity": 0.2204724409448819
        },
        {
          "duration": 2.116279069767444,
          "durationTicks": 182,
          "midi": 45,
          "name": "A2",
          "ticks": 12044,
          "time": 140.04651162790697,
          "velocity": 0.25196850393700787
        },
        {
          "duration": 0.034883720930224626,
          "durationTicks": 3,
          "midi": 56,
          "name": "G#3",
          "ticks": 12211,
          "time": 141.98837209302326,
          "velocity": 0.2047244094488189
        },
        {
          "duration": 0.2674418604651123,
          "durationTicks": 23,
          "midi": 69,
          "name": "A4",
          "ticks": 12211,
          "time": 141.98837209302326,
          "velocity": 0.13385826771653545
        },
        {
          "duration": 0.18604651162792152,
          "durationTicks": 16,
          "midi": 53,
          "name": "F3",
          "ticks": 12227,
          "time": 142.17441860465115,
          "velocity": 0.14960629921259844
        },
        {
          "duration": 0.04651162790699459,
          "durationTicks": 4,
          "midi": 44,
          "name": "G#2",
          "ticks": 12228,
          "time": 142.1860465116279,
          "velocity": 0.1968503937007874
        },
        {
          "duration": 0.034883720930224626,
          "durationTicks": 3,
          "midi": 45,
          "name": "A2",
          "ticks": 12235,
          "time": 142.2674418604651,
          "velocity": 0.11023622047244094
        },
        {
          "duration": 0.04651162790696617,
          "durationTicks": 4,
          "midi": 45,
          "name": "A2",
          "ticks": 12240,
          "time": 142.32558139534885,
          "velocity": 0.15748031496062992
        },
        {
          "duration": 0.27906976744185386,
          "durationTicks": 24,
          "midi": 69,
          "name": "A4",
          "ticks": 12243,
          "time": 142.36046511627907,
          "velocity": 0.11811023622047244
        },
        {
          "duration": 0.04651162790696617,
          "durationTicks": 4,
          "midi": 44,
          "name": "G#2",
          "ticks": 12244,
          "time": 142.37209302325581,
          "velocity": 0.14960629921259844
        },
        {
          "duration": 0.11627906976744384,
          "durationTicks": 10,
          "midi": 57,
          "name": "A3",
          "ticks": 12246,
          "time": 142.3953488372093,
          "velocity": 0.09448818897637795
        },
        {
          "duration": 0.12790697674418539,
          "durationTicks": 11,
          "midi": 45,
          "name": "A2",
          "ticks": 12248,
          "time": 142.41860465116278,
          "velocity": 0.1968503937007874
        },
        {
          "duration": 0.1046511627907023,
          "durationTicks": 9,
          "midi": 53,
          "name": "F3",
          "ticks": 12249,
          "time": 142.43023255813952,
          "velocity": 0.09448818897637795
        },
        {
          "duration": 0.03488372093025305,
          "durationTicks": 3,
          "midi": 44,
          "name": "G#2",
          "ticks": 12259,
          "time": 142.54651162790697,
          "velocity": 0.18110236220472442
        },
        {
          "duration": 0.05813953488373613,
          "durationTicks": 5,
          "midi": 45,
          "name": "A2",
          "ticks": 12267,
          "time": 142.63953488372093,
          "velocity": 0.15748031496062992
        },
        {
          "duration": 0.034883720930224626,
          "durationTicks": 3,
          "midi": 56,
          "name": "G#3",
          "ticks": 12267,
          "time": 142.63953488372093,
          "velocity": 0.11811023622047244
        },
        {
          "duration": 0.034883720930224626,
          "durationTicks": 3,
          "midi": 44,
          "name": "G#2",
          "ticks": 12272,
          "time": 142.69767441860466,
          "velocity": 0.1732283464566929
        },
        {
          "duration": 0.06976744186044925,
          "durationTicks": 6,
          "midi": 55,
          "name": "G3",
          "ticks": 12272,
          "time": 142.69767441860466,
          "velocity": 0.2283464566929134
        },
        {
          "duration": 0.03488372093025305,
          "durationTicks": 3,
          "midi": 45,
          "name": "A2",
          "ticks": 12280,
          "time": 142.7906976744186,
          "velocity": 0.11023622047244094
        },
        {
          "duration": 0.06976744186044925,
          "durationTicks": 6,
          "midi": 55,
          "name": "G3",
          "ticks": 12282,
          "time": 142.8139534883721,
          "velocity": 0.1968503937007874
        },
        {
          "duration": 0.12790697674418539,
          "durationTicks": 11,
          "midi": 44,
          "name": "G#2",
          "ticks": 12283,
          "time": 142.82558139534885,
          "velocity": 0.25196850393700787
        },
        {
          "duration": 0.05813953488370771,
          "durationTicks": 5,
          "midi": 57,
          "name": "A3",
          "ticks": 12293,
          "time": 142.9418604651163,
          "velocity": 0.10236220472440945
        },
        {
          "duration": 0.0813953488371908,
          "durationTicks": 7,
          "midi": 45,
          "name": "A2",
          "ticks": 12294,
          "time": 142.95348837209303,
          "velocity": 0.25984251968503935
        },
        {
          "duration": 0.05813953488373613,
          "durationTicks": 5,
          "midi": 57,
          "name": "A3",
          "ticks": 12301,
          "time": 143.03488372093022,
          "velocity": 0.12598425196850394
        },
        {
          "duration": 0.03488372093025305,
          "durationTicks": 3,
          "midi": 45,
          "name": "A2",
          "ticks": 12302,
          "time": 143.04651162790697,
          "velocity": 0.2125984251968504
        },
        {
          "duration": 3,
          "durationTicks": 258,
          "midi": 45,
          "name": "A2",
          "ticks": 12307,
          "time": 143.1046511627907,
          "velocity": 0.2204724409448819
        },
        {
          "duration": 0.09302325581396076,
          "durationTicks": 8,
          "midi": 54,
          "name": "F#3",
          "ticks": 12312,
          "time": 143.1627906976744,
          "velocity": 0.09448818897637795
        },
        {
          "duration": 0.34883720930233153,
          "durationTicks": 30,
          "midi": 69,
          "name": "A4",
          "ticks": 12472,
          "time": 145.02325581395348,
          "velocity": 0.11023622047244094
        },
        {
          "duration": 0.12790697674418539,
          "durationTicks": 11,
          "midi": 54,
          "name": "F#3",
          "ticks": 12494,
          "time": 145.27906976744185,
          "velocity": 0.08661417322834646
        },
        {
          "duration": 0.3720930232558146,
          "durationTicks": 32,
          "midi": 69,
          "name": "A4",
          "ticks": 12512,
          "time": 145.48837209302326,
          "velocity": 0.08661417322834646
        },
        {
          "duration": 0.023255813953483084,
          "durationTicks": 2,
          "midi": 56,
          "name": "G#3",
          "ticks": 12558,
          "time": 146.02325581395348,
          "velocity": 0.2283464566929134
        },
        {
          "duration": 0.2325581395348877,
          "durationTicks": 20,
          "midi": 69,
          "name": "A4",
          "ticks": 12558,
          "time": 146.02325581395348,
          "velocity": 0.11023622047244094
        },
        {
          "duration": 0.11627906976744384,
          "durationTicks": 10,
          "midi": 45,
          "name": "A2",
          "ticks": 12570,
          "time": 146.1627906976744,
          "velocity": 0.07874015748031496
        },
        {
          "duration": 0.04651162790696617,
          "durationTicks": 4,
          "midi": 56,
          "name": "G#3",
          "ticks": 12587,
          "time": 146.36046511627907,
          "velocity": 0.2283464566929134
        },
        {
          "duration": 0.08139534883721922,
          "durationTicks": 7,
          "midi": 44,
          "name": "G#2",
          "ticks": 12589,
          "time": 146.38372093023256,
          "velocity": 0.2677165354330709
        },
        {
          "duration": 0.45348837209303383,
          "durationTicks": 39,
          "midi": 57,
          "name": "A3",
          "ticks": 12591,
          "time": 146.40697674418604,
          "velocity": 0.14960629921259844
        },
        {
          "duration": 0.05813953488370771,
          "durationTicks": 5,
          "midi": 45,
          "name": "A2",
          "ticks": 12596,
          "time": 146.46511627906978,
          "velocity": 0.2440944881889764
        },
        {
          "duration": 0.8837209302325562,
          "durationTicks": 76,
          "midi": 45,
          "name": "A2",
          "ticks": 12602,
          "time": 146.53488372093022,
          "velocity": 0.2755905511811024
        },
        {
          "duration": 0.05813953488373613,
          "durationTicks": 5,
          "midi": 69,
          "name": "A4",
          "ticks": 12667,
          "time": 147.2906976744186,
          "velocity": 0.07874015748031496
        },
        {
          "duration": 3.3720930232558146,
          "durationTicks": 290,
          "midi": 45,
          "name": "A2",
          "ticks": 12679,
          "time": 147.43023255813952,
          "velocity": 0.2125984251968504
        },
        {
          "duration": 0.5116279069767415,
          "durationTicks": 44,
          "midi": 69,
          "name": "A4",
          "ticks": 12688,
          "time": 147.53488372093022,
          "velocity": 0.10236220472440945
        }
      ],
      "endOfTrackTicks": 12969
    }
  ]
}