{
  "header": {
    "keySignatures": [],
    "meta": [],
    "name": "",
    "ppq": 43,
    "tempos": [
      {
        "bpm": 120,
        "ticks": 0
      }
    ],
    "timeSignatures": []
  },
  "tracks": [
    {
      "channel": 0,
      "controlChanges": {},
      "pitchBends": [],
      "instrument": {
        "family": "piano",
        "number": 0,
        "name": "acoustic grand piano"
      },
      "name": "",
      "notes": [
        {
          "duration": 0.5232558139534884,
          "durationTicks": 45,
          "midi": 78,
          "name": "F#5",
          "ticks": 0,
          "time": 0,
          "velocity": 0.11023622047244094
        },
        {
          "duration": 0.08139534883720945,
          "durationTicks": 7,
          "midi": 64,
          "name": "E4",
          "ticks": 157,
          "time": 1.8255813953488371,
          "velocity": 0.10236220472440945
        },
        {
          "duration": 0.16279069767441867,
          "durationTicks": 14,
          "midi": 83,
          "name": "B5",
          "ticks": 160,
          "time": 1.8604651162790697,
          "velocity": 0.07874015748031496
        },
        {
          "duration": 0.33720930232558155,
          "durationTicks": 29,
          "midi": 78,
          "name": "F#5",
          "ticks": 184,
          "time": 2.13953488372093,
          "velocity": 0.2283464566929134
        },
        {
          "duration": 0.1511627906976747,
          "durationTicks": 13,
          "midi": 85,
          "name": "C#6",
          "ticks": 186,
          "time": 2.1627906976744184,
          "velocity": 0.08661417322834646
        },
        {
          "duration": 0.8372093023255816,
          "durationTicks": 72,
          "midi": 79,
          "name": "G5",
          "ticks": 212,
          "time": 2.4651162790697674,
          "velocity": 0.2125984251968504
        },
        {
          "duration": 0.16279069767441845,
          "durationTicks": 14,
          "midi": 86,
          "name": "D6",
          "ticks": 213,
          "time": 2.4767441860465116,
          "velocity": 0.09448818897637795
        },
        {
          "duration": 0.2906976744186047,
          "durationTicks": 25,
          "midi": 74,
          "name": "D5",
          "ticks": 269,
          "time": 3.127906976744186,
          "velocity": 0.14960629921259844
        },
        {
          "duration": 0.058139534883721034,
          "durationTicks": 5,
          "midi": 55,
          "name": "G3",
          "ticks": 324,
          "time": 3.7674418604651163,
          "velocity": 0.3228346456692913
        },
        {
          "duration": 0.04651162790697683,
          "durationTicks": 4,
          "midi": 62,
          "name": "D4",
          "ticks": 325,
          "time": 3.7790697674418605,
          "velocity": 0.14173228346456693
        },
        {
          "duration": 0.023255813953488413,
          "durationTicks": 2,
          "midi": 42,
          "name": "F#2",
          "ticks": 326,
          "time": 3.7906976744186047,
          "velocity": 0.25984251968503935
        },
        {
          "duration": 0.48837209302325535,
          "durationTicks": 42,
          "midi": 71,
          "name": "B4",
          "ticks": 327,
          "time": 3.802325581395349,
          "velocity": 0.1889763779527559
        },
        {
          "duration": 0.023255813953488413,
          "durationTicks": 2,
          "midi": 50,
          "name": "D3",
          "ticks": 330,
          "time": 3.8372093023255816,
          "velocity": 0.29133858267716534
        },
        {
          "duration": 0.0697674418604648,
          "durationTicks": 6,
          "midi": 69,
          "name": "A4",
          "ticks": 330,
          "time": 3.8372093023255816,
          "velocity": 0.16535433070866143
        },
        {
          "duration": 0.2325581395348837,
          "durationTicks": 20,
          "midi": 93,
          "name": "A6",
          "ticks": 330,
          "time": 3.8372093023255816,
          "velocity": 0.1889763779527559
        },
        {
          "duration": 0.05813953488372059,
          "durationTicks": 5,
          "midi": 86,
          "name": "D6",
          "ticks": 331,
          "time": 3.8488372093023258,
          "velocity": 0.12598425196850394
        },
        {
          "duration": 0.081395348837209,
          "durationTicks": 7,
          "midi": 67,
          "name": "G4",
          "ticks": 332,
          "time": 3.86046511627907,
          "velocity": 0.16535433070866143
        },
        {
          "duration": 1.1860465116279073,
          "durationTicks": 102,
          "midi": 55,
          "name": "G3",
          "ticks": 334,
          "time": 3.883720930232558,
          "velocity": 0.3464566929133858
        },
        {
          "duration": 0.06976744186046524,
          "durationTicks": 6,
          "midi": 94,
          "name": "A#6",
          "ticks": 335,
          "time": 3.895348837209302,
          "velocity": 0.07874015748031496
        },
        {
          "duration": 0.5232558139534884,
          "durationTicks": 45,
          "midi": 81,
          "name": "A5",
          "ticks": 336,
          "time": 3.9069767441860463,
          "velocity": 0.18110236220472442
        },
        {
          "duration": 0.6976744186046515,
          "durationTicks": 60,
          "midi": 69,
          "name": "A4",
          "ticks": 337,
          "time": 3.9186046511627906,
          "velocity": 0.11023622047244094
        },
        {
          "duration": 0.06976744186046524,
          "durationTicks": 6,
          "midi": 62,
          "name": "D4",
          "ticks": 340,
          "time": 3.953488372093023,
          "velocity": 0.09448818897637795
        },
        {
          "duration": 0.10465116279069786,
          "durationTicks": 9,
          "midi": 88,
          "name": "E6",
          "ticks": 343,
          "time": 3.988372093023256,
          "velocity": 0.07874015748031496
        },
        {
          "duration": 0.023255813953488413,
          "durationTicks": 2,
          "midi": 44,
          "name": "G#2",
          "ticks": 349,
          "time": 4.058139534883721,
          "velocity": 0.2283464566929134
        },
        {
          "duration": 0.09302325581395365,
          "durationTicks": 8,
          "midi": 62,
          "name": "D4",
          "ticks": 349,
          "time": 4.058139534883721,
          "velocity": 0.07086614173228346
        },
        {
          "duration": 0.6279069767441863,
          "durationTicks": 54,
          "midi": 62,
          "name": "D4",
          "ticks": 376,
          "time": 4.372093023255814,
          "velocity": 0.09448818897637795
        },
        {
          "duration": 0.3139534883720936,
          "durationTicks": 27,
          "midi": 71,
          "name": "B4",
          "ticks": 410,
          "time": 4.767441860465116,
          "velocity": 0.18110236220472442
        },
        {
          "duration": 0.06976744186046524,
          "durationTicks": 6,
          "midi": 59,
          "name": "B3",
          "ticks": 437,
          "time": 5.0813953488372094,
          "velocity": 0.14173228346456693
        },
        {
          "duration": 0.023255813953488413,
          "durationTicks": 2,
          "midi": 53,
          "name": "F3",
          "ticks": 440,
          "time": 5.116279069767442,
          "velocity": 0.29133858267716534
        },
        {
          "duration": 1.2906976744186043,
          "durationTicks": 111,
          "midi": 78,
          "name": "F#5",
          "ticks": 440,
          "time": 5.116279069767442,
          "velocity": 0.2440944881889764
        },
        {
          "duration": 0.41860465116279055,
          "durationTicks": 36,
          "midi": 66,
          "name": "F#4",
          "ticks": 441,
          "time": 5.127906976744186,
          "velocity": 0.23622047244094488
        },
        {
          "duration": 0.41860465116279055,
          "durationTicks": 36,
          "midi": 85,
          "name": "C#6",
          "ticks": 442,
          "time": 5.1395348837209305,
          "velocity": 0.16535433070866143
        },
        {
          "duration": 0.023255813953488413,
          "durationTicks": 2,
          "midi": 53,
          "name": "F3",
          "ticks": 444,
          "time": 5.162790697674419,
          "velocity": 0.23622047244094488
        },
        {
          "duration": 0.6162790697674412,
          "durationTicks": 53,
          "midi": 59,
          "name": "B3",
          "ticks": 444,
          "time": 5.162790697674419,
          "velocity": 0.2125984251968504
        },
        {
          "duration": 0.604651162790697,
          "durationTicks": 52,
          "midi": 87,
          "name": "D#6",
          "ticks": 444,
          "time": 5.162790697674419,
          "velocity": 0.11023622047244094
        },
        {
          "duration": 0.058139534883721034,
          "durationTicks": 5,
          "midi": 54,
          "name": "F#3",
          "ticks": 446,
          "time": 5.186046511627907,
          "velocity": 0.2047244094488189
        },
        {
          "duration": 0.11627906976744118,
          "durationTicks": 10,
          "midi": 74,
          "name": "D5",
          "ticks": 446,
          "time": 5.186046511627907,
          "velocity": 0.14173228346456693
        },
        {
          "duration": 0.08139534883720945,
          "durationTicks": 7,
          "midi": 54,
          "name": "F#3",
          "ticks": 452,
          "time": 5.255813953488372,
          "velocity": 0.11023622047244094
        },
        {
          "duration": 0.03488372093023262,
          "durationTicks": 3,
          "midi": 47,
          "name": "B2",
          "ticks": 461,
          "time": 5.3604651162790695,
          "velocity": 0.11023622047244094
        },
        {
          "duration": 0.03488372093023262,
          "durationTicks": 3,
          "midi": 54,
          "name": "F#3",
          "ticks": 463,
          "time": 5.383720930232558,
          "velocity": 0.07086614173228346
        },
        {
          "duration": 0.03488372093023262,
          "durationTicks": 3,
          "midi": 47,
          "name": "B2",
          "ticks": 468,
          "time": 5.441860465116279,
          "velocity": 0.11811023622047244
        },
        {
          "duration": 0.03488372093023262,
          "durationTicks": 3,
          "midi": 47,
          "name": "B2",
          "ticks": 485,
          "time": 5.6395348837209305,
          "velocity": 0.09448818897637795
        },
        {
          "duration": 0.03488372093023173,
          "durationTicks": 3,
          "midi": 47,
          "name": "B2",
          "ticks": 492,
          "time": 5.72093023255814,
          "velocity": 0.09448818897637795
        },
        {
          "duration": 0.03488372093023262,
          "durationTicks": 3,
          "midi": 47,
          "name": "B2",
          "ticks": 516,
          "time": 6,
          "velocity": 0.07086614173228346
        },
        {
          "duration": 0.11627906976744207,
          "durationTicks": 10,
          "midi": 59,
          "name": "B3",
          "ticks": 549,
          "time": 6.383720930232558,
          "velocity": 0.11811023622047244
        },
        {
          "duration": 0.03488372093023262,
          "durationTicks": 3,
          "midi": 54,
          "name": "F#3",
          "ticks": 608,
          "time": 7.069767441860465,
          "velocity": 0.07874015748031496
        },
        {
          "duration": 0.08139534883720856,
          "durationTicks": 7,
          "midi": 54,
          "name": "F#3",
          "ticks": 720,
          "time": 8.372093023255815,
          "velocity": 0.09448818897637795
        },
        {
          "duration": 0.023255813953488413,
          "durationTicks": 2,
          "midi": 58,
          "name": "A#3",
          "ticks": 830,
          "time": 9.651162790697674,
          "velocity": 0.28346456692913385
        },
        {
          "duration": 0.22093023255813904,
          "durationTicks": 19,
          "midi": 71,
          "name": "B4",
          "ticks": 831,
          "time": 9.662790697674419,
          "velocity": 0.09448818897637795
        },
        {
          "duration": 0.6279069767441872,
          "durationTicks": 54,
          "midi": 59,
          "name": "B3",
          "ticks": 832,
          "time": 9.674418604651162,
          "velocity": 0.29133858267716534
        },
        {
          "duration": 0.6511627906976756,
          "durationTicks": 56,
          "midi": 87,
          "name": "D#6",
          "ticks": 832,
          "time": 9.674418604651162,
          "velocity": 0.11811023622047244
        },
        {
          "duration": 0.03488372093023351,
          "durationTicks": 3,
          "midi": 90,
          "name": "F#6",
          "ticks": 832,
          "time": 9.674418604651162,
          "velocity": 0.09448818897637795
        },
        {
          "duration": 0.03488372093023351,
          "durationTicks": 3,
          "midi": 44,
          "name": "G#2",
          "ticks": 887,
          "time": 10.313953488372093,
          "velocity": 0.2204724409448819
        },
        {
          "duration": 0.03488372093023351,
          "durationTicks": 3,
          "midi": 64,
          "name": "E4",
          "ticks": 887,
          "time": 10.313953488372093,
          "velocity": 0.07874015748031496
        },
        {
          "duration": 0.023255813953488413,
          "durationTicks": 2,
          "midi": 51,
          "name": "D#3",
          "ticks": 890,
          "time": 10.348837209302326,
          "velocity": 0.2992125984251969
        },
        {
          "duration": 0.058139534883720145,
          "durationTicks": 5,
          "midi": 83,
          "name": "B5",
          "ticks": 890,
          "time": 10.348837209302326,
          "velocity": 0.09448818897637795
        },
        {
          "duration": 0.1511627906976738,
          "durationTicks": 13,
          "midi": 85,
          "name": "C#6",
          "ticks": 892,
          "time": 10.372093023255815,
          "velocity": 0.1968503937007874
        },
        {
          "duration": 0.04651162790697683,
          "durationTicks": 4,
          "midi": 53,
          "name": "F3",
          "ticks": 893,
          "time": 10.383720930232558,
          "velocity": 0.2755905511811024
        },
        {
          "duration": 0.2906976744186043,
          "durationTicks": 25,
          "midi": 57,
          "name": "A3",
          "ticks": 893,
          "time": 10.383720930232558,
          "velocity": 0.33070866141732286
        },
        {
          "duration": 0.04651162790697683,
          "durationTicks": 4,
          "midi": 64,
          "name": "E4",
          "ticks": 893,
          "time": 10.383720930232558,
          "velocity": 0.08661417322834646
        },
        {
          "duration": 0.03488372093023351,
          "durationTicks": 3,
          "midi": 91,
          "name": "G6",
          "ticks": 893,
          "time": 10.383720930232558,
          "velocity": 0.11023622047244094
        },
        {
          "duration": 0.03488372093023173,
          "durationTicks": 3,
          "midi": 44,
          "name": "G#2",
          "ticks": 894,
          "time": 10.395348837209303,
          "velocity": 0.2204724409448819
        },
        {
          "duration": 0.03488372093023173,
          "durationTicks": 3,
          "midi": 88,
          "name": "E6",
          "ticks": 894,
          "time": 10.395348837209303,
          "velocity": 0.11023622047244094
        },
        {
          "duration": 0.09302325581395365,
          "durationTicks": 8,
          "midi": 72,
          "name": "C5",
          "ticks": 895,
          "time": 10.406976744186046,
          "velocity": 0.13385826771653545
        },
        {
          "duration": 0.04651162790697683,
          "durationTicks": 4,
          "midi": 52,
          "name": "E3",
          "ticks": 897,
          "time": 10.430232558139535,
          "velocity": 0.16535433070866143
        },
        {
          "duration": 1.104651162790697,
          "durationTicks": 95,
          "midi": 78,
          "name": "F#5",
          "ticks": 898,
          "time": 10.44186046511628,
          "velocity": 0.2204724409448819
        },
        {
          "duration": 0.058139534883720145,
          "durationTicks": 5,
          "midi": 88,
          "name": "E6",
          "ticks": 899,
          "time": 10.453488372093023,
          "velocity": 0.14173228346456693
        },
        {
          "duration": 0.03488372093023173,
          "durationTicks": 3,
          "midi": 44,
          "name": "G#2",
          "ticks": 901,
          "time": 10.476744186046512,
          "velocity": 0.15748031496062992
        },
        {
          "duration": 0.1860465116279073,
          "durationTicks": 16,
          "midi": 83,
          "name": "B5",
          "ticks": 905,
          "time": 10.523255813953488,
          "velocity": 0.11811023622047244
        },
        {
          "duration": 0.05813953488372192,
          "durationTicks": 5,
          "midi": 88,
          "name": "E6",
          "ticks": 906,
          "time": 10.534883720930232,
          "velocity": 0.13385826771653545
        },
        {
          "duration": 0.3255813953488378,
          "durationTicks": 28,
          "midi": 85,
          "name": "C#6",
          "ticks": 907,
          "time": 10.546511627906977,
          "velocity": 0.2204724409448819
        },
        {
          "duration": 0.9186046511627914,
          "durationTicks": 79,
          "midi": 45,
          "name": "A2",
          "ticks": 912,
          "time": 10.604651162790697,
          "velocity": 0.09448818897637795
        },
        {
          "duration": 0.39534883720930125,
          "durationTicks": 34,
          "midi": 60,
          "name": "C4",
          "ticks": 913,
          "time": 10.616279069767442,
          "velocity": 0.14960629921259844
        },
        {
          "duration": 0.04651162790697683,
          "durationTicks": 4,
          "midi": 88,
          "name": "E6",
          "ticks": 913,
          "time": 10.616279069767442,
          "velocity": 0.09448818897637795
        },
        {
          "duration": 0.03488372093023173,
          "durationTicks": 3,
          "midi": 88,
          "name": "E6",
          "ticks": 921,
          "time": 10.709302325581396,
          "velocity": 0.07086614173228346
        },
        {
          "duration": 0.05813953488372192,
          "durationTicks": 5,
          "midi": 85,
          "name": "C#6",
          "ticks": 940,
          "time": 10.930232558139535,
          "velocity": 0.09448818897637795
        },
        {
          "duration": 0.08139534883721034,
          "durationTicks": 7,
          "midi": 85,
          "name": "C#6",
          "ticks": 949,
          "time": 11.034883720930232,
          "velocity": 0.11023622047244094
        },
        {
          "duration": 0.04651162790697683,
          "durationTicks": 4,
          "midi": 85,
          "name": "C#6",
          "ticks": 962,
          "time": 11.186046511627907,
          "velocity": 0.07086614173228346
        },
        {
          "duration": 0.15116279069767558,
          "durationTicks": 13,
          "midi": 57,
          "name": "A3",
          "ticks": 1002,
          "time": 11.651162790697674,
          "velocity": 0.07874015748031496
        },
        {
          "duration": 0.3139534883720927,
          "durationTicks": 27,
          "midi": 64,
          "name": "E4",
          "ticks": 1056,
          "time": 12.279069767441861,
          "velocity": 0.16535433070866143
        },
        {
          "duration": 0.2790697674418592,
          "durationTicks": 24,
          "midi": 83,
          "name": "B5",
          "ticks": 1058,
          "time": 12.30232558139535,
          "velocity": 0.11023622047244094
        },
        {
          "duration": 0.3255813953488378,
          "durationTicks": 28,
          "midi": 78,
          "name": "F#5",
          "ticks": 1083,
          "time": 12.593023255813954,
          "velocity": 0.25196850393700787
        },
        {
          "duration": 0.3023255813953494,
          "durationTicks": 26,
          "midi": 85,
          "name": "C#6",
          "ticks": 1084,
          "time": 12.604651162790697,
          "velocity": 0.13385826771653545
        },
        {
          "duration": 0.6395348837209287,
          "durationTicks": 55,
          "midi": 79,
          "name": "G5",
          "ticks": 1111,
          "time": 12.918604651162791,
          "velocity": 0.2440944881889764
        },
        {
          "duration": 0.1860465116279073,
          "durationTicks": 16,
          "midi": 86,
          "name": "D6",
          "ticks": 1112,
          "time": 12.930232558139535,
          "velocity": 0.11811023622047244
        },
        {
          "duration": 0.5116279069767433,
          "durationTicks": 44,
          "midi": 72,
          "name": "C5",
          "ticks": 1167,
          "time": 13.569767441860465,
          "velocity": 0.16535433070866143
        },
        {
          "duration": 1.2674418604651176,
          "durationTicks": 109,
          "midi": 60,
          "name": "C4",
          "ticks": 1168,
          "time": 13.581395348837209,
          "velocity": 0.2204724409448819
        },
        {
          "duration": 0.5,
          "durationTicks": 43,
          "midi": 88,
          "name": "E6",
          "ticks": 1168,
          "time": 13.581395348837209,
          "velocity": 0.08661417322834646
        },
        {
          "duration": 0.43023255813953476,
          "durationTicks": 37,
          "midi": 79,
          "name": "G5",
          "ticks": 1169,
          "time": 13.593023255813954,
          "velocity": 0.11811023622047244
        },
        {
          "duration": 0.6279069767441854,
          "durationTicks": 54,
          "midi": 71,
          "name": "B4",
          "ticks": 1224,
          "time": 14.232558139534884,
          "velocity": 0.25196850393700787
        },
        {
          "duration": 0.37209302325581284,
          "durationTicks": 32,
          "midi": 81,
          "name": "A5",
          "ticks": 1279,
          "time": 14.872093023255815,
          "velocity": 0.25984251968503935
        },
        {
          "duration": 0.2906976744186043,
          "durationTicks": 25,
          "midi": 88,
          "name": "E6",
          "ticks": 1280,
          "time": 14.883720930232558,
          "velocity": 0.16535433070866143
        },
        {
          "duration": 0.1627906976744189,
          "durationTicks": 14,
          "midi": 79,
          "name": "G5",
          "ticks": 1308,
          "time": 15.209302325581396,
          "velocity": 0.23622047244094488
        },
        {
          "duration": 0.1511627906976738,
          "durationTicks": 13,
          "midi": 86,
          "name": "D6",
          "ticks": 1308,
          "time": 15.209302325581396,
          "velocity": 0.11811023622047244
        },
        {
          "duration": 0.325581395348836,
          "durationTicks": 28,
          "midi": 78,
          "name": "F#5",
          "ticks": 1322,
          "time": 15.372093023255815,
          "velocity": 0.23622047244094488
        },
        {
          "duration": 0.20930232558139394,
          "durationTicks": 18,
          "midi": 85,
          "name": "C#6",
          "ticks": 1322,
          "time": 15.372093023255815,
          "velocity": 0.14173228346456693
        },
        {
          "duration": 0.08139534883720856,
          "durationTicks": 7,
          "midi": 52,
          "name": "E3",
          "ticks": 1335,
          "time": 15.523255813953488,
          "velocity": 0.3779527559055118
        },
        {
          "duration": 0.03488372093023173,
          "durationTicks": 3,
          "midi": 59,
          "name": "B3",
          "ticks": 1335,
          "time": 15.523255813953488,
          "velocity": 0.13385826771653545
        },
        {
          "duration": 0.03488372093023173,
          "durationTicks": 3,
          "midi": 41,
          "name": "F2",
          "ticks": 1339,
          "time": 15.569767441860465,
          "velocity": 0.1968503937007874
        },
        {
          "duration": 0.04651162790697683,
          "durationTicks": 4,
          "midi": 59,
          "name": "B3",
          "ticks": 1341,
          "time": 15.593023255813954,
          "velocity": 0.08661417322834646
        },
        {
          "duration": 0.058139534883720145,
          "durationTicks": 5,
          "midi": 83,
          "name": "B5",
          "ticks": 1341,
          "time": 15.593023255813954,
          "velocity": 0.13385826771653545
        },
        {
          "duration": 0.03488372093023351,
          "durationTicks": 3,
          "midi": 40,
          "name": "E2",
          "ticks": 1342,
          "time": 15.604651162790697,
          "velocity": 0.1968503937007874
        },
        {
          "duration": 0.023255813953488413,
          "durationTicks": 2,
          "midi": 51,
          "name": "D#3",
          "ticks": 1342,
          "time": 15.604651162790697,
          "velocity": 0.3543307086614173
        },
        {
          "duration": 0.3720930232558146,
          "durationTicks": 32,
          "midi": 64,
          "name": "E4",
          "ticks": 1342,
          "time": 15.604651162790697,
          "velocity": 0.11023622047244094
        },
        {
          "duration": 0.1627906976744189,
          "durationTicks": 14,
          "midi": 93,
          "name": "A6",
          "ticks": 1343,
          "time": 15.616279069767442,
          "velocity": 0.09448818897637795
        },
        {
          "duration": 0.11627906976744207,
          "durationTicks": 10,
          "midi": 67,
          "name": "G4",
          "ticks": 1344,
          "time": 15.627906976744185,
          "velocity": 0.10236220472440945
        },
        {
          "duration": 0.03488372093023351,
          "durationTicks": 3,
          "midi": 86,
          "name": "D6",
          "ticks": 1344,
          "time": 15.627906976744185,
          "velocity": 0.09448818897637795
        },
        {
          "duration": 0.03488372093023173,
          "durationTicks": 3,
          "midi": 41,
          "name": "F2",
          "ticks": 1345,
          "time": 15.63953488372093,
          "velocity": 0.2125984251968504
        },
        {
          "duration": 0.20930232558139572,
          "durationTicks": 18,
          "midi": 71,
          "name": "B4",
          "ticks": 1345,
          "time": 15.63953488372093,
          "velocity": 0.14173228346456693
        },
        {
          "duration": 0.04651162790697683,
          "durationTicks": 4,
          "midi": 74,
          "name": "D5",
          "ticks": 1345,
          "time": 15.63953488372093,
          "velocity": 0.08661417322834646
        },
        {
          "duration": 0.4069767441860481,
          "durationTicks": 35,
          "midi": 55,
          "name": "G3",
          "ticks": 1346,
          "time": 15.651162790697674,
          "velocity": 0.36220472440944884
        },
        {
          "duration": 0.04651162790697683,
          "durationTicks": 4,
          "midi": 86,
          "name": "D6",
          "ticks": 1348,
          "time": 15.674418604651162,
          "velocity": 0.15748031496062992
        },
        {
          "duration": 0.1860465116279073,
          "durationTicks": 16,
          "midi": 79,
          "name": "G5",
          "ticks": 1349,
          "time": 15.686046511627907,
          "velocity": 0.13385826771653545
        },
        {
          "duration": 0.04651162790697683,
          "durationTicks": 4,
          "midi": 59,
          "name": "B3",
          "ticks": 1350,
          "time": 15.69767441860465,
          "velocity": 0.13385826771653545
        },
        {
          "duration": 0.13953488372093048,
          "durationTicks": 12,
          "midi": 74,
          "name": "D5",
          "ticks": 1352,
          "time": 15.720930232558139,
          "velocity": 0.08661417322834646
        },
        {
          "duration": 1.5232558139534884,
          "durationTicks": 131,
          "midi": 47,
          "name": "B2",
          "ticks": 1358,
          "time": 15.790697674418604,
          "velocity": 0.10236220472440945
        },
        {
          "duration": 0.04651162790697683,
          "durationTicks": 4,
          "midi": 74,
          "name": "D5",
          "ticks": 1367,
          "time": 15.895348837209303,
          "velocity": 0.07874015748031496
        },
        {
          "duration": 0.034883720930229956,
          "durationTicks": 3,
          "midi": 74,
          "name": "D5",
          "ticks": 1375,
          "time": 15.988372093023257,
          "velocity": 0.07086614173228346
        },
        {
          "duration": 0.12790697674418539,
          "durationTicks": 11,
          "midi": 67,
          "name": "G4",
          "ticks": 1397,
          "time": 16.24418604651163,
          "velocity": 0.08661417322834646
        },
        {
          "duration": 0.11627906976744029,
          "durationTicks": 10,
          "midi": 55,
          "name": "G3",
          "ticks": 1451,
          "time": 16.872093023255815,
          "velocity": 0.08661417322834646
        },
        {
          "duration": 0.04651162790697683,
          "durationTicks": 4,
          "midi": 52,
          "name": "E3",
          "ticks": 1506,
          "time": 17.511627906976745,
          "velocity": 0.09448818897637795
        },
        {
          "duration": 0.15116279069767202,
          "durationTicks": 13,
          "midi": 55,
          "name": "G3",
          "ticks": 1675,
          "time": 19.476744186046513,
          "velocity": 0.11023622047244094
        },
        {
          "duration": 0.23255813953488413,
          "durationTicks": 20,
          "midi": 64,
          "name": "E4",
          "ticks": 1729,
          "time": 20.1046511627907,
          "velocity": 0.16535433070866143
        },
        {
          "duration": 0.3139534883720927,
          "durationTicks": 27,
          "midi": 83,
          "name": "B5",
          "ticks": 1731,
          "time": 20.127906976744185,
          "velocity": 0.13385826771653545
        },
        {
          "duration": 0.1046511627906952,
          "durationTicks": 9,
          "midi": 50,
          "name": "D3",
          "ticks": 1784,
          "time": 20.74418604651163,
          "velocity": 0.3700787401574803
        },
        {
          "duration": 0.09302325581395365,
          "durationTicks": 8,
          "midi": 69,
          "name": "A4",
          "ticks": 1787,
          "time": 20.77906976744186,
          "velocity": 0.1732283464566929
        },
        {
          "duration": 1.9534883720930232,
          "durationTicks": 168,
          "midi": 57,
          "name": "A3",
          "ticks": 1788,
          "time": 20.790697674418606,
          "velocity": 0.33858267716535434
        },
        {
          "duration": 0.25581395348837077,
          "durationTicks": 22,
          "midi": 86,
          "name": "D6",
          "ticks": 1790,
          "time": 20.813953488372093,
          "velocity": 0.15748031496062992
        },
        {
          "duration": 0.27906976744186096,
          "durationTicks": 24,
          "midi": 93,
          "name": "A6",
          "ticks": 1790,
          "time": 20.813953488372093,
          "velocity": 0.16535433070866143
        },
        {
          "duration": 1.220930232558139,
          "durationTicks": 105,
          "midi": 65,
          "name": "F4",
          "ticks": 1792,
          "time": 20.837209302325583,
          "velocity": 0.2204724409448819
        },
        {
          "duration": 0.15116279069767558,
          "durationTicks": 13,
          "midi": 50,
          "name": "D3",
          "ticks": 1801,
          "time": 20.941860465116278,
          "velocity": 0.09448818897637795
        },
        {
          "duration": 0.3372093023255829,
          "durationTicks": 29,
          "midi": 72,
          "name": "C5",
          "ticks": 1954,
          "time": 22.72093023255814,
          "velocity": 0.2440944881889764
        },
        {
          "duration": 0.1744186046511622,
          "durationTicks": 15,
          "midi": 62,
          "name": "D4",
          "ticks": 1972,
          "time": 22.930232558139537,
          "velocity": 0.07086614173228346
        },
        {
          "duration": 0.651162790697672,
          "durationTicks": 56,
          "midi": 71,
          "name": "B4",
          "ticks": 2010,
          "time": 23.372093023255815,
          "velocity": 0.25196850393700787
        },
        {
          "duration": 0.6395348837209305,
          "durationTicks": 55,
          "midi": 69,
          "name": "A4",
          "ticks": 2066,
          "time": 24.023255813953487,
          "velocity": 0.2125984251968504
        },
        {
          "duration": 0.6395348837209305,
          "durationTicks": 55,
          "midi": 71,
          "name": "B4",
          "ticks": 2122,
          "time": 24.674418604651162,
          "velocity": 0.25196850393700787
        },
        {
          "duration": 0.4186046511627879,
          "durationTicks": 36,
          "midi": 72,
          "name": "C5",
          "ticks": 2179,
          "time": 25.337209302325583,
          "velocity": 0.25196850393700787
        },
        {
          "duration": 0.05813953488371837,
          "durationTicks": 5,
          "midi": 57,
          "name": "A3",
          "ticks": 2234,
          "time": 25.976744186046513,
          "velocity": 0.33858267716535434
        },
        {
          "duration": 0.02325581395349019,
          "durationTicks": 2,
          "midi": 45,
          "name": "A2",
          "ticks": 2235,
          "time": 25.988372093023255,
          "velocity": 0.28346456692913385
        },
        {
          "duration": 0.05813953488372192,
          "durationTicks": 5,
          "midi": 88,
          "name": "E6",
          "ticks": 2235,
          "time": 25.988372093023255,
          "velocity": 0.11023622047244094
        },
        {
          "duration": 0.04651162790697683,
          "durationTicks": 4,
          "midi": 44,
          "name": "G#2",
          "ticks": 2237,
          "time": 26.011627906976745,
          "velocity": 0.3543307086614173
        },
        {
          "duration": 0.03488372093023173,
          "durationTicks": 3,
          "midi": 52,
          "name": "E3",
          "ticks": 2237,
          "time": 26.011627906976745,
          "velocity": 0.3779527559055118
        },
        {
          "duration": 0.24418604651162568,
          "durationTicks": 21,
          "midi": 76,
          "name": "E5",
          "ticks": 2237,
          "time": 26.011627906976745,
          "velocity": 0.16535433070866143
        },
        {
          "duration": 0.023255813953486637,
          "durationTicks": 2,
          "midi": 51,
          "name": "D#3",
          "ticks": 2240,
          "time": 26.046511627906977,
          "velocity": 0.3543307086614173
        },
        {
          "duration": 0.04651162790697683,
          "durationTicks": 4,
          "midi": 57,
          "name": "A3",
          "ticks": 2240,
          "time": 26.046511627906977,
          "velocity": 0.31496062992125984
        },
        {
          "duration": 0.08139534883720856,
          "durationTicks": 7,
          "midi": 85,
          "name": "C#6",
          "ticks": 2240,
          "time": 26.046511627906977,
          "velocity": 0.09448818897637795
        },
        {
          "duration": 0.034883720930235285,
          "durationTicks": 3,
          "midi": 52,
          "name": "E3",
          "ticks": 2242,
          "time": 26.069767441860463,
          "velocity": 0.36220472440944884
        },
        {
          "duration": 0.05813953488372192,
          "durationTicks": 5,
          "midi": 94,
          "name": "A#6",
          "ticks": 2242,
          "time": 26.069767441860463,
          "velocity": 0.11023622047244094
        },
        {
          "duration": 0.5581395348837219,
          "durationTicks": 48,
          "midi": 60,
          "name": "C4",
          "ticks": 2243,
          "time": 26.08139534883721,
          "velocity": 0.29133858267716534
        },
        {
          "duration": 1.1860465116279073,
          "durationTicks": 102,
          "midi": 45,
          "name": "A2",
          "ticks": 2245,
          "time": 26.1046511627907,
          "velocity": 0.1968503937007874
        },
        {
          "duration": 0.5232558139534902,
          "durationTicks": 45,
          "midi": 71,
          "name": "B4",
          "ticks": 2246,
          "time": 26.11627906976744,
          "velocity": 0.2125984251968504
        },
        {
          "duration": 0.04651162790697683,
          "durationTicks": 4,
          "midi": 79,
          "name": "G5",
          "ticks": 2247,
          "time": 26.127906976744185,
          "velocity": 0.07874015748031496
        },
        {
          "duration": 1.1860465116279073,
          "durationTicks": 102,
          "midi": 69,
          "name": "A4",
          "ticks": 2248,
          "time": 26.13953488372093,
          "velocity": 0.15748031496062992
        },
        {
          "duration": 0.03488372093023173,
          "durationTicks": 3,
          "midi": 52,
          "name": "E3",
          "ticks": 2251,
          "time": 26.174418604651162,
          "velocity": 0.09448818897637795
        },
        {
          "duration": 0.05813953488372192,
          "durationTicks": 5,
          "midi": 88,
          "name": "E6",
          "ticks": 2263,
          "time": 26.313953488372093,
          "velocity": 0.11023622047244094
        },
        {
          "duration": 0.03488372093023173,
          "durationTicks": 3,
          "midi": 88,
          "name": "E6",
          "ticks": 2272,
          "time": 26.41860465116279,
          "velocity": 0.07086614173228346
        },
        {
          "duration": 0.33720930232557933,
          "durationTicks": 29,
          "midi": 76,
          "name": "E5",
          "ticks": 2347,
          "time": 27.290697674418606,
          "velocity": 0.16535433070866143
        },
        {
          "duration": 0.04651162790697683,
          "durationTicks": 4,
          "midi": 45,
          "name": "A2",
          "ticks": 2350,
          "time": 27.325581395348838,
          "velocity": 0.07086614173228346
        },
        {
          "duration": 0.08139534883720856,
          "durationTicks": 7,
          "midi": 60,
          "name": "C4",
          "ticks": 2404,
          "time": 27.953488372093023,
          "velocity": 0.08661417322834646
        },
        {
          "duration": 0.17441860465116577,
          "durationTicks": 15,
          "midi": 60,
          "name": "C4",
          "ticks": 2516,
          "time": 29.25581395348837,
          "velocity": 0.10236220472440945
        },
        {
          "duration": 0.3255813953488378,
          "durationTicks": 28,
          "midi": 72,
          "name": "C5",
          "ticks": 2628,
          "time": 30.558139534883722,
          "velocity": 0.25196850393700787
        },
        {
          "duration": 0.04651162790697683,
          "durationTicks": 4,
          "midi": 92,
          "name": "G#6",
          "ticks": 2684,
          "time": 31.209302325581394,
          "velocity": 0.11811023622047244
        },
        {
          "duration": 0.02325581395349019,
          "durationTicks": 2,
          "midi": 47,
          "name": "B2",
          "ticks": 2685,
          "time": 31.22093023255814,
          "velocity": 0.25196850393700787
        },
        {
          "duration": 0.12790697674418539,
          "durationTicks": 11,
          "midi": 54,
          "name": "F#3",
          "ticks": 2685,
          "time": 31.22093023255814,
          "velocity": 0.36220472440944884
        },
        {
          "duration": 0.023255813953486637,
          "durationTicks": 2,
          "midi": 59,
          "name": "B3",
          "ticks": 2687,
          "time": 31.24418604651163,
          "velocity": 0.2992125984251969
        },
        {
          "duration": 0.06976744186046702,
          "durationTicks": 6,
          "midi": 87,
          "name": "D#6",
          "ticks": 2689,
          "time": 31.267441860465116,
          "velocity": 0.08661417322834646
        },
        {
          "duration": 1.4069767441860463,
          "durationTicks": 121,
          "midi": 59,
          "name": "B3",
          "ticks": 2690,
          "time": 31.27906976744186,
          "velocity": 0.29133858267716534
        },
        {
          "duration": 0.05813953488372192,
          "durationTicks": 5,
          "midi": 90,
          "name": "F#6",
          "ticks": 2690,
          "time": 31.27906976744186,
          "velocity": 0.07086614173228346
        },
        {
          "duration": 1.2558139534883672,
          "durationTicks": 108,
          "midi": 47,
          "name": "B2",
          "ticks": 2691,
          "time": 31.290697674418606,
          "velocity": 0.2047244094488189
        },
        {
          "duration": 0.03488372093023173,
          "durationTicks": 3,
          "midi": 88,
          "name": "E6",
          "ticks": 2691,
          "time": 31.290697674418606,
          "velocity": 0.14960629921259844
        },
        {
          "duration": 0.05813953488372192,
          "durationTicks": 5,
          "midi": 64,
          "name": "E4",
          "ticks": 2692,
          "time": 31.302325581395348,
          "velocity": 0.1732283464566929
        },
        {
          "duration": 0.8255813953488378,
          "durationTicks": 71,
          "midi": 76,
          "name": "E5",
          "ticks": 2692,
          "time": 31.302325581395348,
          "velocity": 0.2047244094488189
        },
        {
          "duration": 1.069767441860467,
          "durationTicks": 92,
          "midi": 78,
          "name": "F#5",
          "ticks": 2694,
          "time": 31.325581395348838,
          "velocity": 0.16535433070866143
        },
        {
          "duration": 0.09302325581395365,
          "durationTicks": 8,
          "midi": 54,
          "name": "F#3",
          "ticks": 2697,
          "time": 31.36046511627907,
          "velocity": 0.15748031496062992
        },
        {
          "duration": 0.04651162790697683,
          "durationTicks": 4,
          "midi": 94,
          "name": "A#6",
          "ticks": 2697,
          "time": 31.36046511627907,
          "velocity": 0.08661417322834646
        },
        {
          "duration": 0.05813953488372192,
          "durationTicks": 5,
          "midi": 54,
          "name": "F#3",
          "ticks": 2741,
          "time": 31.872093023255815,
          "velocity": 0.09448818897637795
        },
        {
          "duration": 0.27906976744186096,
          "durationTicks": 24,
          "midi": 59,
          "name": "B3",
          "ticks": 3021,
          "time": 35.127906976744185,
          "velocity": 0.11811023622047244
        },
        {
          "duration": 0.08139534883721211,
          "durationTicks": 7,
          "midi": 54,
          "name": "F#3",
          "ticks": 3077,
          "time": 35.77906976744186,
          "velocity": 0.13385826771653545
        },
        {
          "duration": 0.02325581395349019,
          "durationTicks": 2,
          "midi": 45,
          "name": "A2",
          "ticks": 3133,
          "time": 36.43023255813954,
          "velocity": 0.2283464566929134
        },
        {
          "duration": 0.05813953488372192,
          "durationTicks": 5,
          "midi": 92,
          "name": "G#6",
          "ticks": 3133,
          "time": 36.43023255813954,
          "velocity": 0.11811023622047244
        },
        {
          "duration": 1.5813953488372121,
          "durationTicks": 136,
          "midi": 59,
          "name": "B3",
          "ticks": 3134,
          "time": 36.44186046511628,
          "velocity": 0.33070866141732286
        },
        {
          "duration": 0.081395348837205,
          "durationTicks": 7,
          "midi": 47,
          "name": "B2",
          "ticks": 3135,
          "time": 36.45348837209303,
          "velocity": 0.23622047244094488
        },
        {
          "duration": 0.11627906976743674,
          "durationTicks": 10,
          "midi": 54,
          "name": "F#3",
          "ticks": 3135,
          "time": 36.45348837209303,
          "velocity": 0.36220472440944884
        },
        {
          "duration": 0.5581395348837219,
          "durationTicks": 48,
          "midi": 63,
          "name": "D#4",
          "ticks": 3142,
          "time": 36.53488372093023,
          "velocity": 0.1968503937007874
        },
        {
          "duration": 1.360465116279073,
          "durationTicks": 117,
          "midi": 47,
          "name": "B2",
          "ticks": 3143,
          "time": 36.54651162790697,
          "velocity": 0.1732283464566929
        },
        {
          "duration": 0.09302325581395365,
          "durationTicks": 8,
          "midi": 87,
          "name": "D#6",
          "ticks": 3143,
          "time": 36.54651162790697,
          "velocity": 0.16535433070866143
        },
        {
          "duration": 0.04651162790698038,
          "durationTicks": 4,
          "midi": 94,
          "name": "A#6",
          "ticks": 3145,
          "time": 36.56976744186046,
          "velocity": 0.11023622047244094
        },
        {
          "duration": 0.1046511627906952,
          "durationTicks": 9,
          "midi": 54,
          "name": "F#3",
          "ticks": 3146,
          "time": 36.58139534883721,
          "velocity": 0.1889763779527559
        },
        {
          "duration": 0.06976744186046346,
          "durationTicks": 6,
          "midi": 97,
          "name": "C#7",
          "ticks": 3149,
          "time": 36.616279069767444,
          "velocity": 0.10236220472440945
        },
        {
          "duration": 0.40697674418604635,
          "durationTicks": 35,
          "midi": 87,
          "name": "D#6",
          "ticks": 3154,
          "time": 36.674418604651166,
          "velocity": 0.18110236220472442
        },
        {
          "duration": 0.16279069767441712,
          "durationTicks": 14,
          "midi": 79,
          "name": "G5",
          "ticks": 3330,
          "time": 38.72093023255814,
          "velocity": 0.1968503937007874
        },
        {
          "duration": 0.13953488372093403,
          "durationTicks": 12,
          "midi": 95,
          "name": "B6",
          "ticks": 3331,
          "time": 38.73255813953488,
          "velocity": 0.11023622047244094
        },
        {
          "duration": 0.12790697674418539,
          "durationTicks": 11,
          "midi": 98,
          "name": "D7",
          "ticks": 3332,
          "time": 38.74418604651163,
          "velocity": 0.08661417322834646
        },
        {
          "duration": 0.06976744186046346,
          "durationTicks": 6,
          "midi": 67,
          "name": "G4",
          "ticks": 3334,
          "time": 38.76744186046512,
          "velocity": 0.07874015748031496
        },
        {
          "duration": 0.15116279069766847,
          "durationTicks": 13,
          "midi": 69,
          "name": "A4",
          "ticks": 3345,
          "time": 38.895348837209305,
          "velocity": 0.2125984251968504
        },
        {
          "duration": 0.17441860465116577,
          "durationTicks": 15,
          "midi": 78,
          "name": "F#5",
          "ticks": 3358,
          "time": 39.04651162790697,
          "velocity": 0.2204724409448819
        },
        {
          "duration": 0.13953488372092693,
          "durationTicks": 12,
          "midi": 94,
          "name": "A#6",
          "ticks": 3359,
          "time": 39.05813953488372,
          "velocity": 0.11023622047244094
        },
        {
          "duration": 0.11627906976744384,
          "durationTicks": 10,
          "midi": 97,
          "name": "C#7",
          "ticks": 3360,
          "time": 39.06976744186046,
          "velocity": 0.09448818897637795
        },
        {
          "duration": 0.11627906976743674,
          "durationTicks": 10,
          "midi": 66,
          "name": "F#4",
          "ticks": 3361,
          "time": 39.08139534883721,
          "velocity": 0.09448818897637795
        },
        {
          "duration": 0.16279069767441712,
          "durationTicks": 14,
          "midi": 76,
          "name": "E5",
          "ticks": 3372,
          "time": 39.2093023255814,
          "velocity": 0.1732283464566929
        },
        {
          "duration": 0.8255813953488342,
          "durationTicks": 71,
          "midi": 78,
          "name": "F#5",
          "ticks": 3386,
          "time": 39.372093023255815,
          "velocity": 0.2440944881889764
        },
        {
          "duration": 0.2093023255813975,
          "durationTicks": 18,
          "midi": 94,
          "name": "A#6",
          "ticks": 3387,
          "time": 39.383720930232556,
          "velocity": 0.11811023622047244
        },
        {
          "duration": 0.16279069767441712,
          "durationTicks": 14,
          "midi": 66,
          "name": "F#4",
          "ticks": 3389,
          "time": 39.406976744186046,
          "velocity": 0.08661417322834646
        },
        {
          "duration": 0.11627906976744384,
          "durationTicks": 10,
          "midi": 97,
          "name": "C#7",
          "ticks": 3389,
          "time": 39.406976744186046,
          "velocity": 0.10236220472440945
        },
        {
          "duration": 0.19767441860465595,
          "durationTicks": 17,
          "midi": 64,
          "name": "E4",
          "ticks": 3527,
          "time": 41.01162790697674,
          "velocity": 0.15748031496062992
        },
        {
          "duration": 0.3604651162790731,
          "durationTicks": 31,
          "midi": 83,
          "name": "B5",
          "ticks": 3529,
          "time": 41.03488372093023,
          "velocity": 0.13385826771653545
        },
        {
          "duration": 0.02325581395349019,
          "durationTicks": 2,
          "midi": 45,
          "name": "A2",
          "ticks": 3582,
          "time": 41.651162790697676,
          "velocity": 0.23622047244094488
        },
        {
          "duration": 1.8255813953488342,
          "durationTicks": 157,
          "midi": 59,
          "name": "B3",
          "ticks": 3582,
          "time": 41.651162790697676,
          "velocity": 0.2992125984251969
        },
        {
          "duration": 0.04651162790698038,
          "durationTicks": 4,
          "midi": 92,
          "name": "G#6",
          "ticks": 3583,
          "time": 41.66279069767442,
          "velocity": 0.13385826771653545
        },
        {
          "duration": 0.05813953488372192,
          "durationTicks": 5,
          "midi": 64,
          "name": "E4",
          "ticks": 3585,
          "time": 41.68604651162791,
          "velocity": 0.1889763779527559
        },
        {
          "duration": 0.02325581395349019,
          "durationTicks": 2,
          "midi": 52,
          "name": "E3",
          "ticks": 3586,
          "time": 41.69767441860465,
          "velocity": 0.3779527559055118
        },
        {
          "duration": 0.05813953488372192,
          "durationTicks": 5,
          "midi": 87,
          "name": "D#6",
          "ticks": 3588,
          "time": 41.72093023255814,
          "velocity": 0.09448818897637795
        },
        {
          "duration": 0.05813953488372192,
          "durationTicks": 5,
          "midi": 52,
          "name": "E3",
          "ticks": 3589,
          "time": 41.73255813953488,
          "velocity": 0.31496062992125984
        },
        {
          "duration": 0.6511627906976756,
          "durationTicks": 56,
          "midi": 76,
          "name": "E5",
          "ticks": 3591,
          "time": 41.75581395348837,
          "velocity": 0.2125984251968504
        },
        {
          "duration": 0.5232558139534831,
          "durationTicks": 45,
          "midi": 79,
          "name": "G5",
          "ticks": 3592,
          "time": 41.76744186046512,
          "velocity": 0.14960629921259844
        },
        {
          "duration": 1.1162790697674438,
          "durationTicks": 96,
          "midi": 47,
          "name": "B2",
          "ticks": 3598,
          "time": 41.83720930232558,
          "velocity": 0.15748031496062992
        },
        {
          "duration": 0.6162790697674438,
          "durationTicks": 53,
          "midi": 64,
          "name": "E4",
          "ticks": 3695,
          "time": 42.96511627906977,
          "velocity": 0.12598425196850394
        },
        {
          "duration": 0.3372093023255829,
          "durationTicks": 29,
          "midi": 81,
          "name": "A5",
          "ticks": 3751,
          "time": 43.616279069767444,
          "velocity": 0.2755905511811024
        },
        {
          "duration": 0.3139534883720927,
          "durationTicks": 27,
          "midi": 88,
          "name": "E6",
          "ticks": 3751,
          "time": 43.616279069767444,
          "velocity": 0.16535433070866143
        },
        {
          "duration": 0.38372093023255616,
          "durationTicks": 33,
          "midi": 71,
          "name": "B4",
          "ticks": 3779,
          "time": 43.94186046511628,
          "velocity": 0.2677165354330709
        },
        {
          "duration": 0.046511627906973274,
          "durationTicks": 4,
          "midi": 93,
          "name": "A6",
          "ticks": 3807,
          "time": 44.26744186046512,
          "velocity": 0.09448818897637795
        },
        {
          "duration": 2.0697674418604635,
          "durationTicks": 178,
          "midi": 60,
          "name": "C4",
          "ticks": 3808,
          "time": 44.27906976744186,
          "velocity": 0.36220472440944884
        },
        {
          "duration": 0.05813953488372192,
          "durationTicks": 5,
          "midi": 48,
          "name": "C3",
          "ticks": 3809,
          "time": 44.2906976744186,
          "velocity": 0.2283464566929134
        },
        {
          "duration": 0.23255813953488058,
          "durationTicks": 20,
          "midi": 55,
          "name": "G3",
          "ticks": 3810,
          "time": 44.30232558139535,
          "velocity": 0.3937007874015748
        },
        {
          "duration": 0.046511627906973274,
          "durationTicks": 4,
          "midi": 88,
          "name": "E6",
          "ticks": 3813,
          "time": 44.33720930232558,
          "velocity": 0.14173228346456693
        },
        {
          "duration": 0.081395348837205,
          "durationTicks": 7,
          "midi": 64,
          "name": "E4",
          "ticks": 3815,
          "time": 44.36046511627907,
          "velocity": 0.16535433070866143
        },
        {
          "duration": 0.8139534883720927,
          "durationTicks": 70,
          "midi": 76,
          "name": "E5",
          "ticks": 3815,
          "time": 44.36046511627907,
          "velocity": 0.2047244094488189
        },
        {
          "duration": 1.1860465116279073,
          "durationTicks": 102,
          "midi": 48,
          "name": "C3",
          "ticks": 3817,
          "time": 44.383720930232556,
          "velocity": 0.14960629921259844
        },
        {
          "duration": 0.03488372093023173,
          "durationTicks": 3,
          "midi": 95,
          "name": "B6",
          "ticks": 3819,
          "time": 44.406976744186046,
          "velocity": 0.07874015748031496
        },
        {
          "duration": 0.03488372093023173,
          "durationTicks": 3,
          "midi": 98,
          "name": "D7",
          "ticks": 3823,
          "time": 44.45348837209303,
          "velocity": 0.07086614173228346
        },
        {
          "duration": 0.6395348837209269,
          "durationTicks": 55,
          "midi": 79,
          "name": "G5",
          "ticks": 3864,
          "time": 44.93023255813954,
          "velocity": 0.15748031496062992
        },
        {
          "duration": 0.081395348837205,
          "durationTicks": 7,
          "midi": 67,
          "name": "G4",
          "ticks": 3866,
          "time": 44.95348837209303,
          "velocity": 0.08661417322834646
        },
        {
          "duration": 0.13953488372092693,
          "durationTicks": 12,
          "midi": 95,
          "name": "B6",
          "ticks": 3866,
          "time": 44.95348837209303,
          "velocity": 0.07086614173228346
        },
        {
          "duration": 0.16279069767441712,
          "durationTicks": 14,
          "midi": 64,
          "name": "E4",
          "ticks": 3885,
          "time": 45.174418604651166,
          "velocity": 0.07086614173228346
        },
        {
          "duration": 0.3488372093023244,
          "durationTicks": 30,
          "midi": 74,
          "name": "D5",
          "ticks": 3920,
          "time": 45.58139534883721,
          "velocity": 0.23622047244094488
        },
        {
          "duration": 0.38372093023256326,
          "durationTicks": 33,
          "midi": 95,
          "name": "B6",
          "ticks": 4005,
          "time": 46.56976744186046,
          "velocity": 0.14173228346456693
        },
        {
          "duration": 0.13953488372093403,
          "durationTicks": 12,
          "midi": 100,
          "name": "E7",
          "ticks": 4005,
          "time": 46.56976744186046,
          "velocity": 0.11023622047244094
        },
        {
          "duration": 0.32558139534883423,
          "durationTicks": 28,
          "midi": 76,
          "name": "E5",
          "ticks": 4006,
          "time": 46.58139534883721,
          "velocity": 0.11811023622047244
        },
        {
          "duration": 1.7558139534883708,
          "durationTicks": 151,
          "midi": 59,
          "name": "B3",
          "ticks": 4032,
          "time": 46.883720930232556,
          "velocity": 0.2992125984251969
        },
        {
          "duration": 0.04651162790698038,
          "durationTicks": 4,
          "midi": 92,
          "name": "G#6",
          "ticks": 4032,
          "time": 46.883720930232556,
          "velocity": 0.13385826771653545
        },
        {
          "duration": 0.023255813953483084,
          "durationTicks": 2,
          "midi": 46,
          "name": "A#2",
          "ticks": 4033,
          "time": 46.895348837209305,
          "velocity": 0.28346456692913385
        },
        {
          "duration": 0.05813953488372192,
          "durationTicks": 5,
          "midi": 64,
          "name": "E4",
          "ticks": 4034,
          "time": 46.906976744186046,
          "velocity": 0.2125984251968504
        },
        {
          "duration": 0.02325581395349019,
          "durationTicks": 2,
          "midi": 52,
          "name": "E3",
          "ticks": 4035,
          "time": 46.91860465116279,
          "velocity": 0.3700787401574803
        },
        {
          "duration": 0.05813953488372192,
          "durationTicks": 5,
          "midi": 87,
          "name": "D#6",
          "ticks": 4037,
          "time": 46.94186046511628,
          "velocity": 0.09448818897637795
        },
        {
          "duration": 0.8255813953488342,
          "durationTicks": 71,
          "midi": 76,
          "name": "E5",
          "ticks": 4039,
          "time": 46.96511627906977,
          "velocity": 0.2047244094488189
        },
        {
          "duration": 0.03488372093023173,
          "durationTicks": 3,
          "midi": 52,
          "name": "E3",
          "ticks": 4040,
          "time": 46.97674418604651,
          "velocity": 0.33070866141732286
        },
        {
          "duration": 0.05813953488372192,
          "durationTicks": 5,
          "midi": 95,
          "name": "B6",
          "ticks": 4040,
          "time": 46.97674418604651,
          "velocity": 0.09448818897637795
        },
        {
          "duration": 0.5232558139534902,
          "durationTicks": 45,
          "midi": 79,
          "name": "G5",
          "ticks": 4042,
          "time": 47,
          "velocity": 0.14173228346456693
        },
        {
          "duration": 1.0813953488372121,
          "durationTicks": 93,
          "midi": 47,
          "name": "B2",
          "ticks": 4051,
          "time": 47.104651162790695,
          "velocity": 0.13385826771653545
        },
        {
          "duration": 0.17441860465116577,
          "durationTicks": 15,
          "midi": 64,
          "name": "E4",
          "ticks": 4145,
          "time": 48.19767441860465,
          "velocity": 0.07086614173228346
        },
        {
          "duration": 0.046511627906973274,
          "durationTicks": 4,
          "midi": 52,
          "name": "E3",
          "ticks": 4257,
          "time": 49.5,
          "velocity": 0.11811023622047244
        },
        {
          "duration": 0.23255813953488058,
          "durationTicks": 20,
          "midi": 59,
          "name": "B3",
          "ticks": 4313,
          "time": 50.151162790697676,
          "velocity": 0.11811023622047244
        },
        {
          "duration": 0.23255813953488058,
          "durationTicks": 20,
          "midi": 64,
          "name": "E4",
          "ticks": 4426,
          "time": 51.46511627906977,
          "velocity": 0.14960629921259844
        },
        {
          "duration": 0.32558139534883423,
          "durationTicks": 28,
          "midi": 83,
          "name": "B5",
          "ticks": 4428,
          "time": 51.48837209302326,
          "velocity": 0.15748031496062992
        },
        {
          "duration": 0.08139534883721211,
          "durationTicks": 7,
          "midi": 62,
          "name": "D4",
          "ticks": 4481,
          "time": 52.104651162790695,
          "velocity": 0.1889763779527559
        },
        {
          "duration": 1.1744186046511587,
          "durationTicks": 101,
          "midi": 74,
          "name": "D5",
          "ticks": 4482,
          "time": 52.116279069767444,
          "velocity": 0.2204724409448819
        },
        {
          "duration": 0.12790697674418539,
          "durationTicks": 11,
          "midi": 81,
          "name": "A5",
          "ticks": 4482,
          "time": 52.116279069767444,
          "velocity": 0.16535433070866143
        },
        {
          "duration": 1.8255813953488413,
          "durationTicks": 157,
          "midi": 57,
          "name": "A3",
          "ticks": 4484,
          "time": 52.13953488372093,
          "velocity": 0.2992125984251969
        },
        {
          "duration": 0.8720930232558146,
          "durationTicks": 75,
          "midi": 50,
          "name": "D3",
          "ticks": 4485,
          "time": 52.151162790697676,
          "velocity": 0.2440944881889764
        },
        {
          "duration": 0.43023255813953654,
          "durationTicks": 37,
          "midi": 85,
          "name": "C#6",
          "ticks": 4485,
          "time": 52.151162790697676,
          "velocity": 0.13385826771653545
        },
        {
          "duration": 0.17441860465115866,
          "durationTicks": 15,
          "midi": 77,
          "name": "F5",
          "ticks": 4490,
          "time": 52.2093023255814,
          "velocity": 0.16535433070866143
        },
        {
          "duration": 0.5348837209302317,
          "durationTicks": 46,
          "midi": 65,
          "name": "F4",
          "ticks": 4491,
          "time": 52.22093023255814,
          "velocity": 0.09448818897637795
        },
        {
          "duration": 0.6279069767441854,
          "durationTicks": 54,
          "midi": 71,
          "name": "B4",
          "ticks": 4493,
          "time": 52.24418604651163,
          "velocity": 0.2047244094488189
        },
        {
          "duration": 0.9186046511627879,
          "durationTicks": 79,
          "midi": 62,
          "name": "D4",
          "ticks": 4598,
          "time": 53.46511627906977,
          "velocity": 0.11811023622047244
        },
        {
          "duration": 0.3372093023255829,
          "durationTicks": 29,
          "midi": 81,
          "name": "A5",
          "ticks": 4650,
          "time": 54.06976744186046,
          "velocity": 0.2677165354330709
        },
        {
          "duration": 0.30232558139535115,
          "durationTicks": 26,
          "midi": 88,
          "name": "E6",
          "ticks": 4650,
          "time": 54.06976744186046,
          "velocity": 0.14173228346456693
        },
        {
          "duration": 0.3139534883720927,
          "durationTicks": 27,
          "midi": 71,
          "name": "B4",
          "ticks": 4679,
          "time": 54.406976744186046,
          "velocity": 0.2440944881889764
        },
        {
          "duration": 0.40697674418604635,
          "durationTicks": 35,
          "midi": 72,
          "name": "C5",
          "ticks": 4706,
          "time": 54.72093023255814,
          "velocity": 0.25196850393700787
        },
        {
          "duration": 0.3139534883720927,
          "durationTicks": 27,
          "midi": 77,
          "name": "F5",
          "ticks": 4762,
          "time": 55.372093023255815,
          "velocity": 0.15748031496062992
        },
        {
          "duration": 0.3372093023255829,
          "durationTicks": 29,
          "midi": 65,
          "name": "F4",
          "ticks": 4779,
          "time": 55.56976744186046,
          "velocity": 0.11023622047244094
        },
        {
          "duration": 0.27906976744186096,
          "durationTicks": 24,
          "midi": 65,
          "name": "F4",
          "ticks": 4817,
          "time": 56.01162790697674,
          "velocity": 0.08661417322834646
        },
        {
          "duration": 0.03488372093023173,
          "durationTicks": 3,
          "midi": 88,
          "name": "E6",
          "ticks": 4819,
          "time": 56.03488372093023,
          "velocity": 0.08661417322834646
        },
        {
          "duration": 0.38372093023256326,
          "durationTicks": 33,
          "midi": 95,
          "name": "B6",
          "ticks": 4820,
          "time": 56.04651162790697,
          "velocity": 0.14960629921259844
        },
        {
          "duration": 0.17441860465116577,
          "durationTicks": 15,
          "midi": 100,
          "name": "E7",
          "ticks": 4820,
          "time": 56.04651162790697,
          "velocity": 0.11811023622047244
        },
        {
          "duration": 0.36046511627906597,
          "durationTicks": 31,
          "midi": 76,
          "name": "E5",
          "ticks": 4821,
          "time": 56.05813953488372,
          "velocity": 0.13385826771653545
        },
        {
          "duration": 0.48837209302325135,
          "durationTicks": 42,
          "midi": 74,
          "name": "D5",
          "ticks": 4874,
          "time": 56.674418604651166,
          "velocity": 0.2677165354330709
        },
        {
          "duration": 0.05813953488372192,
          "durationTicks": 5,
          "midi": 57,
          "name": "A3",
          "ticks": 4930,
          "time": 57.325581395348834,
          "velocity": 0.33858267716535434
        },
        {
          "duration": 0.02325581395349019,
          "durationTicks": 2,
          "midi": 45,
          "name": "A2",
          "ticks": 4931,
          "time": 57.33720930232558,
          "velocity": 0.2677165354330709
        },
        {
          "duration": 0.09302325581395365,
          "durationTicks": 8,
          "midi": 88,
          "name": "E6",
          "ticks": 4932,
          "time": 57.348837209302324,
          "velocity": 0.12598425196850394
        },
        {
          "duration": 0.058139534883714816,
          "durationTicks": 5,
          "midi": 44,
          "name": "G#2",
          "ticks": 4933,
          "time": 57.36046511627907,
          "velocity": 0.36220472440944884
        },
        {
          "duration": 0.046511627906973274,
          "durationTicks": 4,
          "midi": 52,
          "name": "E3",
          "ticks": 4933,
          "time": 57.36046511627907,
          "velocity": 0.3858267716535433
        },
        {
          "duration": 0.24418604651162212,
          "durationTicks": 21,
          "midi": 76,
          "name": "E5",
          "ticks": 4933,
          "time": 57.36046511627907,
          "velocity": 0.16535433070866143
        },
        {
          "duration": 0.06976744186046346,
          "durationTicks": 6,
          "midi": 57,
          "name": "A3",
          "ticks": 4936,
          "time": 57.395348837209305,
          "velocity": 0.33070866141732286
        },
        {
          "duration": 0.02325581395349019,
          "durationTicks": 2,
          "midi": 51,
          "name": "D#3",
          "ticks": 4937,
          "time": 57.406976744186046,
          "velocity": 0.3543307086614173
        },
        {
          "duration": 0.3953488372093048,
          "durationTicks": 34,
          "midi": 85,
          "name": "C#6",
          "ticks": 4937,
          "time": 57.406976744186046,
          "velocity": 0.12598425196850394
        },
        {
          "duration": 0.02325581395349019,
          "durationTicks": 2,
          "midi": 52,
          "name": "E3",
          "ticks": 4939,
          "time": 57.43023255813954,
          "velocity": 0.36220472440944884
        },
        {
          "duration": 0.046511627906973274,
          "durationTicks": 4,
          "midi": 94,
          "name": "A#6",
          "ticks": 4939,
          "time": 57.43023255813954,
          "velocity": 0.11023622047244094
        },
        {
          "duration": 1.1976744186046488,
          "durationTicks": 103,
          "midi": 45,
          "name": "A2",
          "ticks": 4940,
          "time": 57.44186046511628,
          "velocity": 0.1968503937007874
        },
        {
          "duration": 0.5930232558139465,
          "durationTicks": 51,
          "midi": 60,
          "name": "C4",
          "ticks": 4941,
          "time": 57.45348837209303,
          "velocity": 0.28346456692913385
        },
        {
          "duration": 0.05813953488372192,
          "durationTicks": 5,
          "midi": 88,
          "name": "E6",
          "ticks": 4942,
          "time": 57.46511627906977,
          "velocity": 0.16535433070866143
        },
        {
          "duration": 0.03488372093023173,
          "durationTicks": 3,
          "midi": 52,
          "name": "E3",
          "ticks": 4947,
          "time": 57.52325581395349,
          "velocity": 0.14173228346456693
        },
        {
          "duration": 0.11627906976744384,
          "durationTicks": 10,
          "midi": 57,
          "name": "A3",
          "ticks": 4949,
          "time": 57.54651162790697,
          "velocity": 0.23622047244094488
        },
        {
          "duration": 0.05813953488372192,
          "durationTicks": 5,
          "midi": 88,
          "name": "E6",
          "ticks": 4959,
          "time": 57.66279069767442,
          "velocity": 0.11811023622047244
        },
        {
          "duration": 0.046511627906973274,
          "durationTicks": 4,
          "midi": 88,
          "name": "E6",
          "ticks": 4968,
          "time": 57.76744186046512,
          "velocity": 0.07874015748031496
        },
        {
          "duration": 0.13953488372093403,
          "durationTicks": 12,
          "midi": 57,
          "name": "A3",
          "ticks": 4978,
          "time": 57.883720930232556,
          "velocity": 0.1968503937007874
        },
        {
          "duration": 0.09302325581395365,
          "durationTicks": 8,
          "midi": 60,
          "name": "C4",
          "ticks": 5011,
          "time": 58.26744186046512,
          "velocity": 0.08661417322834646
        },
        {
          "duration": 0.03488372093023173,
          "durationTicks": 3,
          "midi": 60,
          "name": "C4",
          "ticks": 5022,
          "time": 58.395348837209305,
          "velocity": 0.10236220472440945
        },
        {
          "duration": 0.03488372093023173,
          "durationTicks": 3,
          "midi": 60,
          "name": "C4",
          "ticks": 5026,
          "time": 58.44186046511628,
          "velocity": 0.10236220472440945
        },
        {
          "duration": 0.13953488372092693,
          "durationTicks": 12,
          "midi": 60,
          "name": "C4",
          "ticks": 5030,
          "time": 58.48837209302326,
          "velocity": 0.10236220472440945
        },
        {
          "duration": 0.1046511627906952,
          "durationTicks": 9,
          "midi": 57,
          "name": "A3",
          "ticks": 5044,
          "time": 58.651162790697676,
          "velocity": 0.07874015748031496
        },
        {
          "duration": 0.5581395348837219,
          "durationTicks": 48,
          "midi": 60,
          "name": "C4",
          "ticks": 5049,
          "time": 58.7093023255814,
          "velocity": 0.11811023622047244
        },
        {
          "duration": 0.081395348837205,
          "durationTicks": 7,
          "midi": 52,
          "name": "E3",
          "ticks": 5156,
          "time": 59.95348837209303,
          "velocity": 0.11811023622047244
        },
        {
          "duration": 0.5697674418604635,
          "durationTicks": 49,
          "midi": 60,
          "name": "C4",
          "ticks": 5275,
          "time": 61.33720930232558,
          "velocity": 0.11023622047244094
        },
        {
          "duration": 0.779069767441861,
          "durationTicks": 67,
          "midi": 81,
          "name": "A5",
          "ticks": 5324,
          "time": 61.906976744186046,
          "velocity": 0.28346456692913385
        },
        {
          "duration": 0.25581395348837077,
          "durationTicks": 22,
          "midi": 88,
          "name": "E6",
          "ticks": 5324,
          "time": 61.906976744186046,
          "velocity": 0.14960629921259844
        },
        {
          "duration": 0.05813953488372192,
          "durationTicks": 5,
          "midi": 55,
          "name": "G3",
          "ticks": 5380,
          "time": 62.55813953488372,
          "velocity": 0.31496062992125984
        },
        {
          "duration": 0.02325581395349019,
          "durationTicks": 2,
          "midi": 42,
          "name": "F#2",
          "ticks": 5381,
          "time": 62.56976744186046,
          "velocity": 0.29133858267716534
        },
        {
          "duration": 0.6162790697674367,
          "durationTicks": 53,
          "midi": 74,
          "name": "D5",
          "ticks": 5382,
          "time": 62.58139534883721,
          "velocity": 0.1889763779527559
        },
        {
          "duration": 0.06976744186046346,
          "durationTicks": 6,
          "midi": 43,
          "name": "G2",
          "ticks": 5383,
          "time": 62.593023255813954,
          "velocity": 0.3464566929133858
        },
        {
          "duration": 0.2906976744186025,
          "durationTicks": 25,
          "midi": 62,
          "name": "D4",
          "ticks": 5383,
          "time": 62.593023255813954,
          "velocity": 0.16535433070866143
        },
        {
          "duration": 0.7906976744186025,
          "durationTicks": 68,
          "midi": 67,
          "name": "G4",
          "ticks": 5385,
          "time": 62.616279069767444,
          "velocity": 0.2047244094488189
        },
        {
          "duration": 0.03488372093023173,
          "durationTicks": 3,
          "midi": 53,
          "name": "F3",
          "ticks": 5386,
          "time": 62.627906976744185,
          "velocity": 0.23622047244094488
        },
        {
          "duration": 0.023255813953483084,
          "durationTicks": 2,
          "midi": 55,
          "name": "G3",
          "ticks": 5390,
          "time": 62.674418604651166,
          "velocity": 0.3228346456692913
        },
        {
          "duration": 1.6860465116279144,
          "durationTicks": 145,
          "midi": 43,
          "name": "G2",
          "ticks": 5394,
          "time": 62.72093023255814,
          "velocity": 0.2047244094488189
        },
        {
          "duration": 0.04651162790698038,
          "durationTicks": 4,
          "midi": 77,
          "name": "F5",
          "ticks": 5394,
          "time": 62.72093023255814,
          "velocity": 0.09448818897637795
        },
        {
          "duration": 0.04651162790698038,
          "durationTicks": 4,
          "midi": 58,
          "name": "A#3",
          "ticks": 5397,
          "time": 62.75581395348837,
          "velocity": 0.2047244094488189
        },
        {
          "duration": 0.06976744186046346,
          "durationTicks": 6,
          "midi": 86,
          "name": "D6",
          "ticks": 5397,
          "time": 62.75581395348837,
          "velocity": 0.2047244094488189
        },
        {
          "duration": 0.046511627906973274,
          "durationTicks": 4,
          "midi": 58,
          "name": "A#3",
          "ticks": 5404,
          "time": 62.83720930232558,
          "velocity": 0.1968503937007874
        },
        {
          "duration": 0.04651162790698038,
          "durationTicks": 4,
          "midi": 58,
          "name": "A#3",
          "ticks": 5411,
          "time": 62.91860465116279,
          "velocity": 0.1732283464566929
        },
        {
          "duration": 0.046511627906973274,
          "durationTicks": 4,
          "midi": 58,
          "name": "A#3",
          "ticks": 5418,
          "time": 63,
          "velocity": 0.16535433070866143
        },
        {
          "duration": 0.6860465116279073,
          "durationTicks": 59,
          "midi": 58,
          "name": "A#3",
          "ticks": 5423,
          "time": 63.05813953488372,
          "velocity": 0.15748031496062992
        },
        {
          "duration": 0.5348837209302317,
          "durationTicks": 46,
          "midi": 62,
          "name": "D4",
          "ticks": 5437,
          "time": 63.22093023255814,
          "velocity": 0.10236220472440945
        },
        {
          "duration": 0.05813953488372192,
          "durationTicks": 5,
          "midi": 86,
          "name": "D6",
          "ticks": 5437,
          "time": 63.22093023255814,
          "velocity": 0.11023622047244094
        },
        {
          "duration": 0.04651162790698038,
          "durationTicks": 4,
          "midi": 86,
          "name": "D6",
          "ticks": 5446,
          "time": 63.325581395348834,
          "velocity": 0.08661417322834646
        },
        {
          "duration": 0.6395348837209269,
          "durationTicks": 55,
          "midi": 58,
          "name": "A#3",
          "ticks": 5493,
          "time": 63.872093023255815,
          "velocity": 0.1732283464566929
        },
        {
          "duration": 0.43023255813953654,
          "durationTicks": 37,
          "midi": 65,
          "name": "F4",
          "ticks": 5549,
          "time": 64.52325581395348,
          "velocity": 0.1732283464566929
        },
        {
          "duration": 0.4418604651162781,
          "durationTicks": 38,
          "midi": 84,
          "name": "C6",
          "ticks": 5551,
          "time": 64.54651162790698,
          "velocity": 0.10236220472440945
        },
        {
          "duration": 0.05813953488372192,
          "durationTicks": 5,
          "midi": 43,
          "name": "G2",
          "ticks": 5554,
          "time": 64.5813953488372,
          "velocity": 0.07086614173228346
        },
        {
          "duration": 0.30232558139535115,
          "durationTicks": 26,
          "midi": 64,
          "name": "E4",
          "ticks": 5606,
          "time": 65.18604651162791,
          "velocity": 0.16535433070866143
        },
        {
          "duration": 0.30232558139535115,
          "durationTicks": 26,
          "midi": 83,
          "name": "B5",
          "ticks": 5607,
          "time": 65.19767441860465,
          "velocity": 0.12598425196850394
        },
        {
          "duration": 0.34883720930233153,
          "durationTicks": 30,
          "midi": 74,
          "name": "D5",
          "ticks": 5661,
          "time": 65.82558139534883,
          "velocity": 0.16535433070866143
        },
        {
          "duration": 0.6395348837209411,
          "durationTicks": 55,
          "midi": 62,
          "name": "D4",
          "ticks": 5662,
          "time": 65.83720930232558,
          "velocity": 0.09448818897637795
        },
        {
          "duration": 0.17441860465116577,
          "durationTicks": 15,
          "midi": 64,
          "name": "E4",
          "ticks": 5718,
          "time": 66.48837209302326,
          "velocity": 0.1732283464566929
        },
        {
          "duration": 0.2906976744186096,
          "durationTicks": 25,
          "midi": 83,
          "name": "B5",
          "ticks": 5720,
          "time": 66.51162790697674,
          "velocity": 0.15748031496062992
        },
        {
          "duration": 0.23255813953487348,
          "durationTicks": 20,
          "midi": 62,
          "name": "D4",
          "ticks": 5733,
          "time": 66.66279069767442,
          "velocity": 0.10236220472440945
        },
        {
          "duration": 0.4418604651162781,
          "durationTicks": 38,
          "midi": 65,
          "name": "F4",
          "ticks": 5774,
          "time": 67.13953488372093,
          "velocity": 0.18110236220472442
        },
        {
          "duration": 0.4186046511627808,
          "durationTicks": 36,
          "midi": 84,
          "name": "C6",
          "ticks": 5776,
          "time": 67.16279069767442,
          "velocity": 0.14173228346456693
        },
        {
          "duration": 0.034883720930224626,
          "durationTicks": 3,
          "midi": 50,
          "name": "D3",
          "ticks": 5830,
          "time": 67.79069767441861,
          "velocity": 0.28346456692913385
        },
        {
          "duration": 1.3488372093023173,
          "durationTicks": 116,
          "midi": 69,
          "name": "A4",
          "ticks": 5830,
          "time": 67.79069767441861,
          "velocity": 0.1968503937007874
        },
        {
          "duration": 0.2674418604651123,
          "durationTicks": 23,
          "midi": 93,
          "name": "A6",
          "ticks": 5830,
          "time": 67.79069767441861,
          "velocity": 0.14960629921259844
        },
        {
          "duration": 0.12790697674418539,
          "durationTicks": 11,
          "midi": 86,
          "name": "D6",
          "ticks": 5831,
          "time": 67.80232558139535,
          "velocity": 0.07086614173228346
        },
        {
          "duration": 0.023255813953497295,
          "durationTicks": 2,
          "midi": 51,
          "name": "D#3",
          "ticks": 5833,
          "time": 67.82558139534883,
          "velocity": 0.25984251968503935
        },
        {
          "duration": 0.1046511627907023,
          "durationTicks": 9,
          "midi": 94,
          "name": "A#6",
          "ticks": 5833,
          "time": 67.82558139534883,
          "velocity": 0.11023622047244094
        },
        {
          "duration": 0.9069767441860392,
          "durationTicks": 78,
          "midi": 57,
          "name": "A3",
          "ticks": 5835,
          "time": 67.84883720930233,
          "velocity": 0.2677165354330709
        },
        {
          "duration": 0.9069767441860392,
          "durationTicks": 78,
          "midi": 85,
          "name": "C#6",
          "ticks": 5835,
          "time": 67.84883720930233,
          "velocity": 0.14960629921259844
        },
        {
          "duration": 1.1976744186046488,
          "durationTicks": 103,
          "midi": 50,
          "name": "D3",
          "ticks": 5839,
          "time": 67.8953488372093,
          "velocity": 0.2204724409448819
        },
        {
          "duration": 0.1046511627907023,
          "durationTicks": 9,
          "midi": 96,
          "name": "C7",
          "ticks": 5839,
          "time": 67.8953488372093,
          "velocity": 0.10236220472440945
        },
        {
          "duration": 0.05813953488372192,
          "durationTicks": 5,
          "midi": 64,
          "name": "E4",
          "ticks": 5841,
          "time": 67.9186046511628,
          "velocity": 0.1732283464566929
        },
        {
          "duration": 0.19767441860464885,
          "durationTicks": 17,
          "midi": 83,
          "name": "B5",
          "ticks": 5844,
          "time": 67.95348837209302,
          "velocity": 0.09448818897637795
        },
        {
          "duration": 0.081395348837205,
          "durationTicks": 7,
          "midi": 88,
          "name": "E6",
          "ticks": 5848,
          "time": 68,
          "velocity": 0.07874015748031496
        },
        {
          "duration": 1.2325581395348735,
          "durationTicks": 106,
          "midi": 57,
          "name": "A3",
          "ticks": 5943,
          "time": 69.1046511627907,
          "velocity": 0.2755905511811024
        },
        {
          "duration": 1.058139534883722,
          "durationTicks": 91,
          "midi": 85,
          "name": "C#6",
          "ticks": 5943,
          "time": 69.1046511627907,
          "velocity": 0.14173228346456693
        },
        {
          "duration": 0.13953488372092693,
          "durationTicks": 12,
          "midi": 88,
          "name": "E6",
          "ticks": 5944,
          "time": 69.11627906976744,
          "velocity": 0.07086614173228346
        },
        {
          "duration": 0.4418604651162781,
          "durationTicks": 38,
          "midi": 76,
          "name": "E5",
          "ticks": 5947,
          "time": 69.15116279069767,
          "velocity": 0.14173228346456693
        },
        {
          "duration": 0.30232558139535115,
          "durationTicks": 26,
          "midi": 50,
          "name": "D3",
          "ticks": 5949,
          "time": 69.17441860465117,
          "velocity": 0.11023622047244094
        },
        {
          "duration": 0.1046511627907023,
          "durationTicks": 9,
          "midi": 74,
          "name": "D5",
          "ticks": 5999,
          "time": 69.75581395348837,
          "velocity": 0.10236220472440945
        },
        {
          "duration": 0.5581395348837219,
          "durationTicks": 48,
          "midi": 62,
          "name": "D4",
          "ticks": 6004,
          "time": 69.81395348837209,
          "velocity": 0.08661417322834646
        },
        {
          "duration": 0.2906976744185954,
          "durationTicks": 25,
          "midi": 57,
          "name": "A3",
          "ticks": 6056,
          "time": 70.4186046511628,
          "velocity": 0.25196850393700787
        },
        {
          "duration": 0.13953488372092693,
          "durationTicks": 12,
          "midi": 57,
          "name": "A3",
          "ticks": 6168,
          "time": 71.72093023255815,
          "velocity": 0.11811023622047244
        },
        {
          "duration": 0.66279069767441,
          "durationTicks": 57,
          "midi": 65,
          "name": "F4",
          "ticks": 6223,
          "time": 72.36046511627907,
          "velocity": 0.1968503937007874
        },
        {
          "duration": 0.3720930232558146,
          "durationTicks": 32,
          "midi": 84,
          "name": "C6",
          "ticks": 6225,
          "time": 72.38372093023256,
          "velocity": 0.15748031496062992
        },
        {
          "duration": 0.11627906976744384,
          "durationTicks": 10,
          "midi": 52,
          "name": "E3",
          "ticks": 6279,
          "time": 73.01162790697674,
          "velocity": 0.3700787401574803
        },
        {
          "duration": 0.12790697674418539,
          "durationTicks": 11,
          "midi": 78,
          "name": "F#5",
          "ticks": 6282,
          "time": 73.04651162790698,
          "velocity": 0.11023622047244094
        },
        {
          "duration": 0.05813953488372192,
          "durationTicks": 5,
          "midi": 83,
          "name": "B5",
          "ticks": 6284,
          "time": 73.06976744186046,
          "velocity": 0.10236220472440945
        },
        {
          "duration": 0.04651162790696617,
          "durationTicks": 4,
          "midi": 57,
          "name": "A3",
          "ticks": 6287,
          "time": 73.1046511627907,
          "velocity": 0.28346456692913385
        },
        {
          "duration": 0.22093023255813193,
          "durationTicks": 19,
          "midi": 71,
          "name": "B4",
          "ticks": 6288,
          "time": 73.11627906976744,
          "velocity": 0.15748031496062992
        },
        {
          "duration": 0.03488372093023884,
          "durationTicks": 3,
          "midi": 52,
          "name": "E3",
          "ticks": 6290,
          "time": 73.13953488372093,
          "velocity": 0.18110236220472442
        },
        {
          "duration": 0.7790697674418681,
          "durationTicks": 67,
          "midi": 85,
          "name": "C#6",
          "ticks": 6290,
          "time": 73.13953488372093,
          "velocity": 0.11811023622047244
        },
        {
          "duration": 0.6511627906976685,
          "durationTicks": 56,
          "midi": 76,
          "name": "E5",
          "ticks": 6293,
          "time": 73.17441860465117,
          "velocity": 0.07874015748031496
        },
        {
          "duration": 0.05813953488372192,
          "durationTicks": 5,
          "midi": 47,
          "name": "B2",
          "ticks": 6300,
          "time": 73.25581395348837,
          "velocity": 0.11023622047244094
        },
        {
          "duration": 1.5,
          "durationTicks": 129,
          "midi": 47,
          "name": "B2",
          "ticks": 6306,
          "time": 73.32558139534883,
          "velocity": 0.11023622047244094
        },
        {
          "duration": 0.13953488372092693,
          "durationTicks": 12,
          "midi": 59,
          "name": "B3",
          "ticks": 6379,
          "time": 74.17441860465117,
          "velocity": 0.13385826771653545
        },
        {
          "duration": 0.06976744186046346,
          "durationTicks": 6,
          "midi": 57,
          "name": "A3",
          "ticks": 6394,
          "time": 74.34883720930233,
          "velocity": 0.14173228346456693
        },
        {
          "duration": 0.034883720930224626,
          "durationTicks": 3,
          "midi": 52,
          "name": "E3",
          "ticks": 6562,
          "time": 76.30232558139535,
          "velocity": 0.10236220472440945
        },
        {
          "duration": 0.03488372093023884,
          "durationTicks": 3,
          "midi": 57,
          "name": "A3",
          "ticks": 6619,
          "time": 76.96511627906976,
          "velocity": 0.10236220472440945
        },
        {
          "duration": 0.09302325581394655,
          "durationTicks": 8,
          "midi": 52,
          "name": "E3",
          "ticks": 6728,
          "time": 78.23255813953489,
          "velocity": 0.3543307086614173
        },
        {
          "duration": 0.11627906976744384,
          "durationTicks": 10,
          "midi": 59,
          "name": "B3",
          "ticks": 6729,
          "time": 78.24418604651163,
          "velocity": 0.25196850393700787
        },
        {
          "duration": 0.09302325581396076,
          "durationTicks": 8,
          "midi": 78,
          "name": "F#5",
          "ticks": 6732,
          "time": 78.27906976744185,
          "velocity": 0.11023622047244094
        },
        {
          "duration": 0.1860465116279073,
          "durationTicks": 16,
          "midi": 64,
          "name": "E4",
          "ticks": 6736,
          "time": 78.32558139534883,
          "velocity": 0.11811023622047244
        },
        {
          "duration": 0.5348837209302246,
          "durationTicks": 46,
          "midi": 68,
          "name": "G#4",
          "ticks": 6738,
          "time": 78.34883720930233,
          "velocity": 0.11023622047244094
        },
        {
          "duration": 0.19767441860464885,
          "durationTicks": 17,
          "midi": 94,
          "name": "A#6",
          "ticks": 6738,
          "time": 78.34883720930233,
          "velocity": 0.07874015748031496
        },
        {
          "duration": 0.23255813953487348,
          "durationTicks": 20,
          "midi": 56,
          "name": "G#3",
          "ticks": 6739,
          "time": 78.36046511627907,
          "velocity": 0.3700787401574803
        },
        {
          "duration": 0.03488372093023884,
          "durationTicks": 3,
          "midi": 47,
          "name": "B2",
          "ticks": 6740,
          "time": 78.37209302325581,
          "velocity": 0.13385826771653545
        },
        {
          "duration": 0.3720930232558146,
          "durationTicks": 32,
          "midi": 71,
          "name": "B4",
          "ticks": 6740,
          "time": 78.37209302325581,
          "velocity": 0.11023622047244094
        },
        {
          "duration": 0.11627906976744384,
          "durationTicks": 10,
          "midi": 83,
          "name": "B5",
          "ticks": 6740,
          "time": 78.37209302325581,
          "velocity": 0.11811023622047244
        },
        {
          "duration": 0.06976744186046346,
          "durationTicks": 6,
          "midi": 47,
          "name": "B2",
          "ticks": 6749,
          "time": 78.47674418604652,
          "velocity": 0.11811023622047244
        },
        {
          "duration": 0.9767441860465169,
          "durationTicks": 84,
          "midi": 47,
          "name": "B2",
          "ticks": 6756,
          "time": 78.55813953488372,
          "velocity": 0.10236220472440945
        },
        {
          "duration": 0.03488372093023884,
          "durationTicks": 3,
          "midi": 59,
          "name": "B3",
          "ticks": 6758,
          "time": 78.5813953488372,
          "velocity": 0.1968503937007874
        },
        {
          "duration": 0.24418604651162923,
          "durationTicks": 21,
          "midi": 59,
          "name": "B3",
          "ticks": 6764,
          "time": 78.65116279069767,
          "velocity": 0.16535433070866143
        },
        {
          "duration": 0.06976744186046346,
          "durationTicks": 6,
          "midi": 56,
          "name": "G#3",
          "ticks": 6789,
          "time": 78.94186046511628,
          "velocity": 0.07086614173228346
        },
        {
          "duration": 0.1046511627907023,
          "durationTicks": 9,
          "midi": 56,
          "name": "G#3",
          "ticks": 7011,
          "time": 81.52325581395348,
          "velocity": 0.12598425196850394
        },
        {
          "duration": 0.081395348837205,
          "durationTicks": 7,
          "midi": 56,
          "name": "G#3",
          "ticks": 7125,
          "time": 82.84883720930233,
          "velocity": 0.09448818897637795
        },
        {
          "duration": 0.03488372093023884,
          "durationTicks": 3,
          "midi": 56,
          "name": "G#3",
          "ticks": 7177,
          "time": 83.45348837209302,
          "velocity": 0.2283464566929134
        },
        {
          "duration": 0.04651162790698038,
          "durationTicks": 4,
          "midi": 44,
          "name": "G#2",
          "ticks": 7178,
          "time": 83.46511627906976,
          "velocity": 0.18110236220472442
        },
        {
          "duration": 0.03488372093023884,
          "durationTicks": 3,
          "midi": 64,
          "name": "E4",
          "ticks": 7178,
          "time": 83.46511627906976,
          "velocity": 0.08661417322834646
        },
        {
          "duration": 0.034883720930224626,
          "durationTicks": 3,
          "midi": 57,
          "name": "A3",
          "ticks": 7180,
          "time": 83.48837209302326,
          "velocity": 0.15748031496062992
        }
      ],
      "endOfTrackTicks": 7183
    }
  ]
}