{
  "header": {
    "keySignatures": [],
    "meta": [],
    "name": "",
    "ppq": 43,
    "tempos": [
      {
        "bpm": 120,
        "ticks": 0
      }
    ],
    "timeSignatures": []
  },
  "tracks": [
    {
      "channel": 0,
      "controlChanges": {},
      "pitchBends": [],
      "instrument": {
        "family": "piano",
        "number": 0,
        "name": "acoustic grand piano"
      },
      "name": "",
      "notes": [
        {
          "duration": 0.05813953488372093,
          "durationTicks": 5,
          "midi": 51,
          "name": "D#3",
          "ticks": 0,
          "time": 0,
          "velocity": 0.2204724409448819
        },
        {
          "duration": 0.023255813953488372,
          "durationTicks": 2,
          "midi": 42,
          "name": "F#2",
          "ticks": 1,
          "time": 0.011627906976744186,
          "velocity": 0.33070866141732286
        },
        {
          "duration": 0.5,
          "durationTicks": 43,
          "midi": 60,
          "name": "C4",
          "ticks": 1,
          "time": 0.011627906976744186,
          "velocity": 0.23622047244094488
        },
        {
          "duration": 0.023255813953488372,
          "durationTicks": 2,
          "midi": 41,
          "name": "F2",
          "ticks": 3,
          "time": 0.03488372093023256,
          "velocity": 0.2992125984251969
        },
        {
          "duration": 0.046511627906976744,
          "durationTicks": 4,
          "midi": 42,
          "name": "F#2",
          "ticks": 7,
          "time": 0.08139534883720931,
          "velocity": 0.15748031496062992
        },
        {
          "duration": 0.046511627906976744,
          "durationTicks": 4,
          "midi": 48,
          "name": "C3",
          "ticks": 7,
          "time": 0.08139534883720931,
          "velocity": 0.15748031496062992
        },
        {
          "duration": 0.17441860465116277,
          "durationTicks": 15,
          "midi": 48,
          "name": "C3",
          "ticks": 16,
          "time": 0.18604651162790697,
          "velocity": 0.16535433070866143
        },
        {
          "duration": 0.04651162790697677,
          "durationTicks": 4,
          "midi": 48,
          "name": "C3",
          "ticks": 39,
          "time": 0.45348837209302323,
          "velocity": 0.15748031496062992
        },
        {
          "duration": 0.2558139534883721,
          "durationTicks": 22,
          "midi": 48,
          "name": "C3",
          "ticks": 46,
          "time": 0.5348837209302325,
          "velocity": 0.14173228346456693
        },
        {
          "duration": 0.05813953488372092,
          "durationTicks": 5,
          "midi": 48,
          "name": "C3",
          "ticks": 77,
          "time": 0.8953488372093024,
          "velocity": 0.07874015748031496
        },
        {
          "duration": 0.08139534883720922,
          "durationTicks": 7,
          "midi": 52,
          "name": "E3",
          "ticks": 89,
          "time": 1.0348837209302326,
          "velocity": 0.14960629921259844
        },
        {
          "duration": 0.03488372093023262,
          "durationTicks": 3,
          "midi": 52,
          "name": "E3",
          "ticks": 99,
          "time": 1.1511627906976745,
          "velocity": 0.1732283464566929
        },
        {
          "duration": 0.7093023255813955,
          "durationTicks": 61,
          "midi": 59,
          "name": "B3",
          "ticks": 114,
          "time": 1.3255813953488371,
          "velocity": 0.2047244094488189
        },
        {
          "duration": 0.023255813953488413,
          "durationTicks": 2,
          "midi": 41,
          "name": "F2",
          "ticks": 115,
          "time": 1.3372093023255813,
          "velocity": 0.29133858267716534
        },
        {
          "duration": 0.22093023255813948,
          "durationTicks": 19,
          "midi": 48,
          "name": "C3",
          "ticks": 123,
          "time": 1.430232558139535,
          "velocity": 0.1732283464566929
        },
        {
          "duration": 0.04651162790697683,
          "durationTicks": 4,
          "midi": 52,
          "name": "E3",
          "ticks": 146,
          "time": 1.697674418604651,
          "velocity": 0.2047244094488189
        },
        {
          "duration": 0.36046511627906996,
          "durationTicks": 31,
          "midi": 48,
          "name": "C3",
          "ticks": 148,
          "time": 1.7209302325581395,
          "velocity": 0.2125984251968504
        },
        {
          "duration": 0.3488372093023253,
          "durationTicks": 30,
          "midi": 59,
          "name": "B3",
          "ticks": 182,
          "time": 2.116279069767442,
          "velocity": 0.12598425196850394
        },
        {
          "duration": 0.04651162790697683,
          "durationTicks": 4,
          "midi": 48,
          "name": "C3",
          "ticks": 186,
          "time": 2.1627906976744184,
          "velocity": 0.13385826771653545
        },
        {
          "duration": 0.03488372093023262,
          "durationTicks": 3,
          "midi": 41,
          "name": "F2",
          "ticks": 191,
          "time": 2.2209302325581395,
          "velocity": 0.11023622047244094
        },
        {
          "duration": 0.04651162790697683,
          "durationTicks": 4,
          "midi": 48,
          "name": "C3",
          "ticks": 191,
          "time": 2.2209302325581395,
          "velocity": 0.11023622047244094
        },
        {
          "duration": 0.04651162790697683,
          "durationTicks": 4,
          "midi": 52,
          "name": "E3",
          "ticks": 198,
          "time": 2.302325581395349,
          "velocity": 0.18110236220472442
        },
        {
          "duration": 0.04651162790697683,
          "durationTicks": 4,
          "midi": 48,
          "name": "C3",
          "ticks": 205,
          "time": 2.383720930232558,
          "velocity": 0.11811023622047244
        },
        {
          "duration": 0.02325581395348797,
          "durationTicks": 2,
          "midi": 42,
          "name": "F#2",
          "ticks": 225,
          "time": 2.616279069767442,
          "velocity": 0.25196850393700787
        },
        {
          "duration": 0.4069767441860468,
          "durationTicks": 35,
          "midi": 62,
          "name": "D4",
          "ticks": 226,
          "time": 2.627906976744186,
          "velocity": 0.2125984251968504
        },
        {
          "duration": 0.03488372093023262,
          "durationTicks": 3,
          "midi": 42,
          "name": "F#2",
          "ticks": 228,
          "time": 2.6511627906976742,
          "velocity": 0.14960629921259844
        },
        {
          "duration": 0.04651162790697683,
          "durationTicks": 4,
          "midi": 41,
          "name": "F2",
          "ticks": 235,
          "time": 2.7325581395348837,
          "velocity": 0.08661417322834646
        },
        {
          "duration": 0.13953488372093004,
          "durationTicks": 12,
          "midi": 48,
          "name": "C3",
          "ticks": 238,
          "time": 2.7674418604651163,
          "velocity": 0.10236220472440945
        },
        {
          "duration": 0.04651162790697683,
          "durationTicks": 4,
          "midi": 52,
          "name": "E3",
          "ticks": 254,
          "time": 2.953488372093023,
          "velocity": 0.10236220472440945
        },
        {
          "duration": 0.03488372093023262,
          "durationTicks": 3,
          "midi": 53,
          "name": "F3",
          "ticks": 263,
          "time": 3.058139534883721,
          "velocity": 0.2283464566929134
        },
        {
          "duration": 0.44186046511627897,
          "durationTicks": 38,
          "midi": 55,
          "name": "G3",
          "ticks": 267,
          "time": 3.104651162790698,
          "velocity": 0.11811023622047244
        },
        {
          "duration": 0.10465116279069742,
          "durationTicks": 9,
          "midi": 42,
          "name": "F#2",
          "ticks": 289,
          "time": 3.36046511627907,
          "velocity": 0.2204724409448819
        },
        {
          "duration": 0.3372093023255811,
          "durationTicks": 29,
          "midi": 62,
          "name": "D4",
          "ticks": 289,
          "time": 3.36046511627907,
          "velocity": 0.15748031496062992
        },
        {
          "duration": 0.04651162790697683,
          "durationTicks": 4,
          "midi": 41,
          "name": "F2",
          "ticks": 298,
          "time": 3.4651162790697674,
          "velocity": 0.10236220472440945
        },
        {
          "duration": 0.081395348837209,
          "durationTicks": 7,
          "midi": 52,
          "name": "E3",
          "ticks": 308,
          "time": 3.5813953488372094,
          "velocity": 0.1968503937007874
        },
        {
          "duration": 0.04651162790697683,
          "durationTicks": 4,
          "midi": 42,
          "name": "F#2",
          "ticks": 319,
          "time": 3.7093023255813953,
          "velocity": 0.15748031496062992
        },
        {
          "duration": 0.45348837209302273,
          "durationTicks": 39,
          "midi": 60,
          "name": "C4",
          "ticks": 333,
          "time": 3.872093023255814,
          "velocity": 0.1889763779527559
        },
        {
          "duration": 0.023255813953488413,
          "durationTicks": 2,
          "midi": 42,
          "name": "F#2",
          "ticks": 334,
          "time": 3.883720930232558,
          "velocity": 0.30708661417322836
        },
        {
          "duration": 0.10465116279069786,
          "durationTicks": 9,
          "midi": 42,
          "name": "F#2",
          "ticks": 337,
          "time": 3.9186046511627906,
          "velocity": 0.2125984251968504
        },
        {
          "duration": 0.03488372093023262,
          "durationTicks": 3,
          "midi": 41,
          "name": "F2",
          "ticks": 346,
          "time": 4.023255813953488,
          "velocity": 0.16535433070866143
        },
        {
          "duration": 0.11627906976744207,
          "durationTicks": 10,
          "midi": 48,
          "name": "C3",
          "ticks": 349,
          "time": 4.058139534883721,
          "velocity": 0.13385826771653545
        },
        {
          "duration": 0.06976744186046524,
          "durationTicks": 6,
          "midi": 48,
          "name": "C3",
          "ticks": 367,
          "time": 4.267441860465116,
          "velocity": 0.11023622047244094
        },
        {
          "duration": 0.03488372093023262,
          "durationTicks": 3,
          "midi": 42,
          "name": "F#2",
          "ticks": 375,
          "time": 4.3604651162790695,
          "velocity": 0.16535433070866143
        },
        {
          "duration": 0.26744186046511675,
          "durationTicks": 23,
          "midi": 55,
          "name": "G3",
          "ticks": 376,
          "time": 4.372093023255814,
          "velocity": 0.1732283464566929
        },
        {
          "duration": 0.1627906976744189,
          "durationTicks": 14,
          "midi": 48,
          "name": "C3",
          "ticks": 384,
          "time": 4.465116279069767,
          "velocity": 0.09448818897637795
        },
        {
          "duration": 0.023255813953488413,
          "durationTicks": 2,
          "midi": 42,
          "name": "F#2",
          "ticks": 399,
          "time": 4.6395348837209305,
          "velocity": 0.23622047244094488
        },
        {
          "duration": 0.22093023255813904,
          "durationTicks": 19,
          "midi": 60,
          "name": "C4",
          "ticks": 400,
          "time": 4.651162790697675,
          "velocity": 0.07086614173228346
        },
        {
          "duration": 0.10465116279069697,
          "durationTicks": 9,
          "midi": 42,
          "name": "F#2",
          "ticks": 402,
          "time": 4.674418604651163,
          "velocity": 0.1732283464566929
        },
        {
          "duration": 0.162790697674418,
          "durationTicks": 14,
          "midi": 55,
          "name": "G3",
          "ticks": 402,
          "time": 4.674418604651163,
          "velocity": 0.09448818897637795
        },
        {
          "duration": 0.03488372093023262,
          "durationTicks": 3,
          "midi": 41,
          "name": "F2",
          "ticks": 411,
          "time": 4.77906976744186,
          "velocity": 0.09448818897637795
        },
        {
          "duration": 0.058139534883721034,
          "durationTicks": 5,
          "midi": 52,
          "name": "E3",
          "ticks": 419,
          "time": 4.872093023255814,
          "velocity": 0.1889763779527559
        },
        {
          "duration": 0.04651162790697683,
          "durationTicks": 4,
          "midi": 42,
          "name": "F#2",
          "ticks": 433,
          "time": 5.034883720930233,
          "velocity": 0.07874015748031496
        },
        {
          "duration": 0.08139534883720945,
          "durationTicks": 7,
          "midi": 42,
          "name": "F#2",
          "ticks": 439,
          "time": 5.104651162790698,
          "velocity": 0.07086614173228346
        },
        {
          "duration": 0.03488372093023262,
          "durationTicks": 3,
          "midi": 51,
          "name": "D#3",
          "ticks": 446,
          "time": 5.186046511627907,
          "velocity": 0.1732283464566929
        },
        {
          "duration": 0.22093023255813904,
          "durationTicks": 19,
          "midi": 59,
          "name": "B3",
          "ticks": 446,
          "time": 5.186046511627907,
          "velocity": 0.1968503937007874
        },
        {
          "duration": 0.03488372093023262,
          "durationTicks": 3,
          "midi": 44,
          "name": "G#2",
          "ticks": 447,
          "time": 5.1976744186046515,
          "velocity": 0.2125984251968504
        },
        {
          "duration": 0.26744186046511675,
          "durationTicks": 23,
          "midi": 45,
          "name": "A2",
          "ticks": 460,
          "time": 5.348837209302325,
          "velocity": 0.14960629921259844
        },
        {
          "duration": 0.10465116279069786,
          "durationTicks": 9,
          "midi": 59,
          "name": "B3",
          "ticks": 466,
          "time": 5.4186046511627906,
          "velocity": 0.1732283464566929
        },
        {
          "duration": 0.06976744186046524,
          "durationTicks": 6,
          "midi": 52,
          "name": "E3",
          "ticks": 471,
          "time": 5.476744186046512,
          "velocity": 0.13385826771653545
        },
        {
          "duration": 0.04651162790697683,
          "durationTicks": 4,
          "midi": 52,
          "name": "E3",
          "ticks": 483,
          "time": 5.616279069767442,
          "velocity": 0.25196850393700787
        },
        {
          "duration": 0.023255813953488413,
          "durationTicks": 2,
          "midi": 42,
          "name": "F#2",
          "ticks": 485,
          "time": 5.6395348837209305,
          "velocity": 0.2440944881889764
        },
        {
          "duration": 0.06976744186046524,
          "durationTicks": 6,
          "midi": 57,
          "name": "A3",
          "ticks": 485,
          "time": 5.6395348837209305,
          "velocity": 0.1968503937007874
        },
        {
          "duration": 0.23255813953488325,
          "durationTicks": 20,
          "midi": 57,
          "name": "A3",
          "ticks": 492,
          "time": 5.72093023255814,
          "velocity": 0.1968503937007874
        },
        {
          "duration": 0.03488372093023173,
          "durationTicks": 3,
          "midi": 44,
          "name": "G#2",
          "ticks": 493,
          "time": 5.732558139534884,
          "velocity": 0.18110236220472442
        },
        {
          "duration": 0.04651162790697683,
          "durationTicks": 4,
          "midi": 52,
          "name": "E3",
          "ticks": 515,
          "time": 5.988372093023256,
          "velocity": 0.07086614173228346
        },
        {
          "duration": 0.03488372093023262,
          "durationTicks": 3,
          "midi": 57,
          "name": "A3",
          "ticks": 516,
          "time": 6,
          "velocity": 0.1889763779527559
        },
        {
          "duration": 0.04651162790697683,
          "durationTicks": 4,
          "midi": 45,
          "name": "A2",
          "ticks": 524,
          "time": 6.093023255813954,
          "velocity": 0.11811023622047244
        },
        {
          "duration": 0.08139534883720945,
          "durationTicks": 7,
          "midi": 52,
          "name": "E3",
          "ticks": 524,
          "time": 6.093023255813954,
          "velocity": 0.16535433070866143
        },
        {
          "duration": 0.03488372093023262,
          "durationTicks": 3,
          "midi": 57,
          "name": "A3",
          "ticks": 526,
          "time": 6.116279069767442,
          "velocity": 0.18110236220472442
        },
        {
          "duration": 0.09302325581395277,
          "durationTicks": 8,
          "midi": 45,
          "name": "A2",
          "ticks": 531,
          "time": 6.174418604651163,
          "velocity": 0.14960629921259844
        },
        {
          "duration": 0.04651162790697594,
          "durationTicks": 4,
          "midi": 52,
          "name": "E3",
          "ticks": 537,
          "time": 6.244186046511628,
          "velocity": 0.14960629921259844
        },
        {
          "duration": 0.03488372093023262,
          "durationTicks": 3,
          "midi": 44,
          "name": "G#2",
          "ticks": 539,
          "time": 6.267441860465116,
          "velocity": 0.16535433070866143
        },
        {
          "duration": 0.03488372093023262,
          "durationTicks": 3,
          "midi": 44,
          "name": "G#2",
          "ticks": 543,
          "time": 6.313953488372093,
          "velocity": 0.12598425196850394
        },
        {
          "duration": 0.04651162790697683,
          "durationTicks": 4,
          "midi": 57,
          "name": "A3",
          "ticks": 546,
          "time": 6.348837209302325,
          "velocity": 0.09448818897637795
        },
        {
          "duration": 0.03488372093023262,
          "durationTicks": 3,
          "midi": 41,
          "name": "F2",
          "ticks": 550,
          "time": 6.395348837209302,
          "velocity": 0.07086614173228346
        },
        {
          "duration": 0.023255813953488413,
          "durationTicks": 2,
          "midi": 52,
          "name": "E3",
          "ticks": 552,
          "time": 6.4186046511627906,
          "velocity": 0.31496062992125984
        },
        {
          "duration": 0.023255813953488413,
          "durationTicks": 2,
          "midi": 43,
          "name": "G2",
          "ticks": 554,
          "time": 6.441860465116279,
          "velocity": 0.28346456692913385
        },
        {
          "duration": 0.023255813953488413,
          "durationTicks": 2,
          "midi": 44,
          "name": "G#2",
          "ticks": 556,
          "time": 6.465116279069767,
          "velocity": 0.29133858267716534
        },
        {
          "duration": 0.24418604651162834,
          "durationTicks": 21,
          "midi": 57,
          "name": "A3",
          "ticks": 556,
          "time": 6.465116279069767,
          "velocity": 0.10236220472440945
        },
        {
          "duration": 0.058139534883721034,
          "durationTicks": 5,
          "midi": 52,
          "name": "E3",
          "ticks": 559,
          "time": 6.5,
          "velocity": 0.18110236220472442
        },
        {
          "duration": 0.023255813953488413,
          "durationTicks": 2,
          "midi": 44,
          "name": "G#2",
          "ticks": 560,
          "time": 6.511627906976744,
          "velocity": 0.2755905511811024
        },
        {
          "duration": 0.2790697674418601,
          "durationTicks": 24,
          "midi": 45,
          "name": "A2",
          "ticks": 572,
          "time": 6.651162790697675,
          "velocity": 0.2755905511811024
        },
        {
          "duration": 0.08139534883720856,
          "durationTicks": 7,
          "midi": 52,
          "name": "E3",
          "ticks": 580,
          "time": 6.744186046511628,
          "velocity": 0.18110236220472442
        },
        {
          "duration": 0.023255813953488413,
          "durationTicks": 2,
          "midi": 53,
          "name": "F3",
          "ticks": 593,
          "time": 6.895348837209302,
          "velocity": 0.23622047244094488
        },
        {
          "duration": 0.023255813953488413,
          "durationTicks": 2,
          "midi": 44,
          "name": "G#2",
          "ticks": 599,
          "time": 6.965116279069767,
          "velocity": 0.25196850393700787
        },
        {
          "duration": 0.08139534883720945,
          "durationTicks": 7,
          "midi": 52,
          "name": "E3",
          "ticks": 599,
          "time": 6.965116279069767,
          "velocity": 0.14960629921259844
        },
        {
          "duration": 0.12790697674418627,
          "durationTicks": 11,
          "midi": 45,
          "name": "A2",
          "ticks": 607,
          "time": 7.058139534883721,
          "velocity": 0.23622047244094488
        },
        {
          "duration": 0.162790697674418,
          "durationTicks": 14,
          "midi": 62,
          "name": "D4",
          "ticks": 619,
          "time": 7.1976744186046515,
          "velocity": 0.07874015748031496
        },
        {
          "duration": 0.03488372093023262,
          "durationTicks": 3,
          "midi": 45,
          "name": "A2",
          "ticks": 630,
          "time": 7.325581395348837,
          "velocity": 0.1889763779527559
        },
        {
          "duration": 0.06976744186046524,
          "durationTicks": 6,
          "midi": 52,
          "name": "E3",
          "ticks": 634,
          "time": 7.372093023255814,
          "velocity": 0.1968503937007874
        },
        {
          "duration": 0.09302325581395365,
          "durationTicks": 8,
          "midi": 45,
          "name": "A2",
          "ticks": 639,
          "time": 7.430232558139535,
          "velocity": 0.1889763779527559
        },
        {
          "duration": 0.04651162790697683,
          "durationTicks": 4,
          "midi": 52,
          "name": "E3",
          "ticks": 646,
          "time": 7.511627906976744,
          "velocity": 0.2125984251968504
        },
        {
          "duration": 0.023255813953488413,
          "durationTicks": 2,
          "midi": 44,
          "name": "G#2",
          "ticks": 649,
          "time": 7.546511627906977,
          "velocity": 0.2283464566929134
        },
        {
          "duration": 0.2790697674418601,
          "durationTicks": 24,
          "midi": 60,
          "name": "C4",
          "ticks": 663,
          "time": 7.709302325581396,
          "velocity": 0.15748031496062992
        },
        {
          "duration": 0.023255813953487525,
          "durationTicks": 2,
          "midi": 44,
          "name": "G#2",
          "ticks": 665,
          "time": 7.732558139534884,
          "velocity": 0.23622047244094488
        },
        {
          "duration": 0.29069767441860517,
          "durationTicks": 25,
          "midi": 45,
          "name": "A2",
          "ticks": 679,
          "time": 7.895348837209302,
          "velocity": 0.25984251968503935
        },
        {
          "duration": 0.06976744186046524,
          "durationTicks": 6,
          "midi": 52,
          "name": "E3",
          "ticks": 688,
          "time": 8,
          "velocity": 0.14960629921259844
        },
        {
          "duration": 0.1627906976744189,
          "durationTicks": 14,
          "midi": 60,
          "name": "C4",
          "ticks": 688,
          "time": 8,
          "velocity": 0.07086614173228346
        },
        {
          "duration": 0.023255813953488413,
          "durationTicks": 2,
          "midi": 44,
          "name": "G#2",
          "ticks": 704,
          "time": 8.186046511627907,
          "velocity": 0.23622047244094488
        },
        {
          "duration": 0.03488372093023351,
          "durationTicks": 3,
          "midi": 45,
          "name": "A2",
          "ticks": 725,
          "time": 8.430232558139535,
          "velocity": 0.14173228346456693
        },
        {
          "duration": 0.023255813953486637,
          "durationTicks": 2,
          "midi": 42,
          "name": "F#2",
          "ticks": 730,
          "time": 8.488372093023257,
          "velocity": 0.25196850393700787
        },
        {
          "duration": 0.06976744186046524,
          "durationTicks": 6,
          "midi": 52,
          "name": "E3",
          "ticks": 745,
          "time": 8.662790697674419,
          "velocity": 0.16535433070866143
        },
        {
          "duration": 0.04651162790697683,
          "durationTicks": 4,
          "midi": 52,
          "name": "E3",
          "ticks": 757,
          "time": 8.80232558139535,
          "velocity": 0.23622047244094488
        },
        {
          "duration": 0.03488372093023351,
          "durationTicks": 3,
          "midi": 42,
          "name": "F#2",
          "ticks": 760,
          "time": 8.837209302325581,
          "velocity": 0.2047244094488189
        },
        {
          "duration": 0.023255813953488413,
          "durationTicks": 2,
          "midi": 50,
          "name": "D3",
          "ticks": 772,
          "time": 8.976744186046512,
          "velocity": 0.25196850393700787
        },
        {
          "duration": 0.023255813953486637,
          "durationTicks": 2,
          "midi": 41,
          "name": "F2",
          "ticks": 773,
          "time": 8.988372093023257,
          "velocity": 0.2283464566929134
        },
        {
          "duration": 0.1976744186046524,
          "durationTicks": 17,
          "midi": 59,
          "name": "B3",
          "ticks": 775,
          "time": 9.011627906976743,
          "velocity": 0.15748031496062992
        },
        {
          "duration": 0.03488372093023173,
          "durationTicks": 3,
          "midi": 44,
          "name": "G#2",
          "ticks": 776,
          "time": 9.023255813953488,
          "velocity": 0.2440944881889764
        },
        {
          "duration": 0.06976744186046524,
          "durationTicks": 6,
          "midi": 52,
          "name": "E3",
          "ticks": 778,
          "time": 9.046511627906977,
          "velocity": 0.14960629921259844
        },
        {
          "duration": 0.023255813953488413,
          "durationTicks": 2,
          "midi": 44,
          "name": "G#2",
          "ticks": 781,
          "time": 9.081395348837209,
          "velocity": 0.23622047244094488
        },
        {
          "duration": 0.08139534883720856,
          "durationTicks": 7,
          "midi": 45,
          "name": "A2",
          "ticks": 794,
          "time": 9.232558139534884,
          "velocity": 0.2047244094488189
        },
        {
          "duration": 0.08139534883720856,
          "durationTicks": 7,
          "midi": 52,
          "name": "E3",
          "ticks": 800,
          "time": 9.30232558139535,
          "velocity": 0.14960629921259844
        },
        {
          "duration": 0.12790697674418539,
          "durationTicks": 11,
          "midi": 45,
          "name": "A2",
          "ticks": 802,
          "time": 9.325581395348838,
          "velocity": 0.1968503937007874
        },
        {
          "duration": 0.10465116279069697,
          "durationTicks": 9,
          "midi": 45,
          "name": "A2",
          "ticks": 817,
          "time": 9.5,
          "velocity": 0.1732283464566929
        },
        {
          "duration": 0.058139534883720145,
          "durationTicks": 5,
          "midi": 52,
          "name": "E3",
          "ticks": 819,
          "time": 9.523255813953488,
          "velocity": 0.09448818897637795
        },
        {
          "duration": 0.04651162790697683,
          "durationTicks": 4,
          "midi": 44,
          "name": "G#2",
          "ticks": 828,
          "time": 9.627906976744185,
          "velocity": 0.3464566929133858
        },
        {
          "duration": 0.03488372093023173,
          "durationTicks": 3,
          "midi": 57,
          "name": "A3",
          "ticks": 831,
          "time": 9.662790697674419,
          "velocity": 0.14173228346456693
        },
        {
          "duration": 0.023255813953488413,
          "durationTicks": 2,
          "midi": 44,
          "name": "G#2",
          "ticks": 834,
          "time": 9.69767441860465,
          "velocity": 0.30708661417322836
        },
        {
          "duration": 0.023255813953488413,
          "durationTicks": 2,
          "midi": 44,
          "name": "G#2",
          "ticks": 839,
          "time": 9.755813953488373,
          "velocity": 0.29133858267716534
        },
        {
          "duration": 0.10465116279069697,
          "durationTicks": 9,
          "midi": 45,
          "name": "A2",
          "ticks": 843,
          "time": 9.80232558139535,
          "velocity": 0.28346456692913385
        },
        {
          "duration": 0.023255813953488413,
          "durationTicks": 2,
          "midi": 51,
          "name": "D#3",
          "ticks": 884,
          "time": 10.279069767441861,
          "velocity": 0.30708661417322836
        },
        {
          "duration": 0.023255813953488413,
          "durationTicks": 2,
          "midi": 42,
          "name": "F#2",
          "ticks": 885,
          "time": 10.290697674418604,
          "velocity": 0.29133858267716534
        },
        {
          "duration": 0.023255813953488413,
          "durationTicks": 2,
          "midi": 41,
          "name": "F2",
          "ticks": 887,
          "time": 10.313953488372093,
          "velocity": 0.23622047244094488
        },
        {
          "duration": 0.4534883720930232,
          "durationTicks": 39,
          "midi": 48,
          "name": "C3",
          "ticks": 888,
          "time": 10.325581395348838,
          "velocity": 0.28346456692913385
        },
        {
          "duration": 0.2790697674418592,
          "durationTicks": 24,
          "midi": 55,
          "name": "G3",
          "ticks": 927,
          "time": 10.779069767441861,
          "velocity": 0.12598425196850394
        },
        {
          "duration": 0.26744186046511587,
          "durationTicks": 23,
          "midi": 48,
          "name": "C3",
          "ticks": 928,
          "time": 10.790697674418604,
          "velocity": 0.2440944881889764
        },
        {
          "duration": 0.3604651162790713,
          "durationTicks": 31,
          "midi": 62,
          "name": "D4",
          "ticks": 953,
          "time": 11.081395348837209,
          "velocity": 0.18110236220472442
        },
        {
          "duration": 0.12790697674418716,
          "durationTicks": 11,
          "midi": 48,
          "name": "C3",
          "ticks": 957,
          "time": 11.127906976744185,
          "velocity": 0.2204724409448819
        },
        {
          "duration": 0.09302325581395365,
          "durationTicks": 8,
          "midi": 48,
          "name": "C3",
          "ticks": 971,
          "time": 11.290697674418604,
          "velocity": 0.1732283464566929
        },
        {
          "duration": 0.08139534883720856,
          "durationTicks": 7,
          "midi": 48,
          "name": "C3",
          "ticks": 982,
          "time": 11.418604651162791,
          "velocity": 0.16535433070866143
        },
        {
          "duration": 0.023255813953488413,
          "durationTicks": 2,
          "midi": 45,
          "name": "A2",
          "ticks": 992,
          "time": 11.534883720930232,
          "velocity": 0.2992125984251969
        },
        {
          "duration": 0.04651162790697683,
          "durationTicks": 4,
          "midi": 42,
          "name": "F#2",
          "ticks": 994,
          "time": 11.55813953488372,
          "velocity": 0.3228346456692913
        },
        {
          "duration": 0.23255813953488413,
          "durationTicks": 20,
          "midi": 48,
          "name": "C3",
          "ticks": 1002,
          "time": 11.651162790697674,
          "velocity": 0.1968503937007874
        },
        {
          "duration": 0.03488372093023173,
          "durationTicks": 3,
          "midi": 41,
          "name": "F2",
          "ticks": 1003,
          "time": 11.662790697674419,
          "velocity": 0.2047244094488189
        },
        {
          "duration": 0.10465116279069697,
          "durationTicks": 9,
          "midi": 48,
          "name": "C3",
          "ticks": 1026,
          "time": 11.930232558139535,
          "velocity": 0.23622047244094488
        },
        {
          "duration": 0.24418604651162923,
          "durationTicks": 21,
          "midi": 55,
          "name": "G3",
          "ticks": 1039,
          "time": 12.081395348837209,
          "velocity": 0.10236220472440945
        },
        {
          "duration": 0.22093023255814082,
          "durationTicks": 19,
          "midi": 48,
          "name": "C3",
          "ticks": 1041,
          "time": 12.104651162790697,
          "velocity": 0.16535433070866143
        },
        {
          "duration": 0.06976744186046524,
          "durationTicks": 6,
          "midi": 42,
          "name": "F#2",
          "ticks": 1061,
          "time": 12.337209302325581,
          "velocity": 0.2283464566929134
        },
        {
          "duration": 0.03488372093023173,
          "durationTicks": 3,
          "midi": 42,
          "name": "F#2",
          "ticks": 1068,
          "time": 12.418604651162791,
          "velocity": 0.15748031496062992
        },
        {
          "duration": 0.04651162790697505,
          "durationTicks": 4,
          "midi": 42,
          "name": "F#2",
          "ticks": 1074,
          "time": 12.488372093023257,
          "velocity": 0.16535433070866143
        },
        {
          "duration": 0.06976744186046524,
          "durationTicks": 6,
          "midi": 48,
          "name": "C3",
          "ticks": 1082,
          "time": 12.581395348837209,
          "velocity": 0.12598425196850394
        },
        {
          "duration": 0.04651162790697683,
          "durationTicks": 4,
          "midi": 42,
          "name": "F#2",
          "ticks": 1090,
          "time": 12.674418604651162,
          "velocity": 0.1732283464566929
        },
        {
          "duration": 0.023255813953488413,
          "durationTicks": 2,
          "midi": 53,
          "name": "F3",
          "ticks": 1102,
          "time": 12.813953488372093,
          "velocity": 0.2677165354330709
        },
        {
          "duration": 0.023255813953488413,
          "durationTicks": 2,
          "midi": 51,
          "name": "D#3",
          "ticks": 1104,
          "time": 12.837209302325581,
          "velocity": 0.25196850393700787
        },
        {
          "duration": 0.4418604651162781,
          "durationTicks": 38,
          "midi": 48,
          "name": "C3",
          "ticks": 1107,
          "time": 12.872093023255815,
          "velocity": 0.25984251968503935
        },
        {
          "duration": 0.23255813953488236,
          "durationTicks": 20,
          "midi": 48,
          "name": "C3",
          "ticks": 1148,
          "time": 13.348837209302326,
          "velocity": 0.18110236220472442
        },
        {
          "duration": 0.18604651162790553,
          "durationTicks": 16,
          "midi": 55,
          "name": "G3",
          "ticks": 1152,
          "time": 13.395348837209303,
          "velocity": 0.07086614173228346
        },
        {
          "duration": 0.023255813953488413,
          "durationTicks": 2,
          "midi": 47,
          "name": "B2",
          "ticks": 1168,
          "time": 13.581395348837209,
          "velocity": 0.2283464566929134
        },
        {
          "duration": 0.06976744186046524,
          "durationTicks": 6,
          "midi": 48,
          "name": "C3",
          "ticks": 1179,
          "time": 13.709302325581396,
          "velocity": 0.12598425196850394
        },
        {
          "duration": 0.04651162790697683,
          "durationTicks": 4,
          "midi": 48,
          "name": "C3",
          "ticks": 1193,
          "time": 13.872093023255815,
          "velocity": 0.10236220472440945
        },
        {
          "duration": 0.023255813953488413,
          "durationTicks": 2,
          "midi": 52,
          "name": "E3",
          "ticks": 1198,
          "time": 13.930232558139535,
          "velocity": 0.2755905511811024
        },
        {
          "duration": 0.12790697674418539,
          "durationTicks": 11,
          "midi": 55,
          "name": "G3",
          "ticks": 1202,
          "time": 13.976744186046512,
          "velocity": 0.18110236220472442
        },
        {
          "duration": 0.06976744186046524,
          "durationTicks": 6,
          "midi": 42,
          "name": "F#2",
          "ticks": 1214,
          "time": 14.116279069767442,
          "velocity": 0.2677165354330709
        },
        {
          "duration": 0.24418604651162923,
          "durationTicks": 21,
          "midi": 48,
          "name": "C3",
          "ticks": 1221,
          "time": 14.19767441860465,
          "velocity": 0.18110236220472442
        },
        {
          "duration": 0.11627906976744029,
          "durationTicks": 10,
          "midi": 48,
          "name": "C3",
          "ticks": 1246,
          "time": 14.488372093023257,
          "velocity": 0.28346456692913385
        },
        {
          "duration": 0.04651162790697683,
          "durationTicks": 4,
          "midi": 42,
          "name": "F#2",
          "ticks": 1256,
          "time": 14.604651162790697,
          "velocity": 0.18110236220472442
        },
        {
          "duration": 0.25581395348837255,
          "durationTicks": 22,
          "midi": 55,
          "name": "G3",
          "ticks": 1259,
          "time": 14.63953488372093,
          "velocity": 0.1968503937007874
        },
        {
          "duration": 0.19767441860465063,
          "durationTicks": 17,
          "midi": 48,
          "name": "C3",
          "ticks": 1263,
          "time": 14.686046511627907,
          "velocity": 0.14960629921259844
        },
        {
          "duration": 0.03488372093023173,
          "durationTicks": 3,
          "midi": 42,
          "name": "F#2",
          "ticks": 1281,
          "time": 14.895348837209303,
          "velocity": 0.2047244094488189
        },
        {
          "duration": 0.1744186046511622,
          "durationTicks": 15,
          "midi": 55,
          "name": "G3",
          "ticks": 1283,
          "time": 14.918604651162791,
          "velocity": 0.14173228346456693
        },
        {
          "duration": 0.12790697674418539,
          "durationTicks": 11,
          "midi": 48,
          "name": "C3",
          "ticks": 1285,
          "time": 14.94186046511628,
          "velocity": 0.16535433070866143
        },
        {
          "duration": 0.05813953488372192,
          "durationTicks": 5,
          "midi": 41,
          "name": "F2",
          "ticks": 1291,
          "time": 15.011627906976743,
          "velocity": 0.15748031496062992
        },
        {
          "duration": 0.03488372093023173,
          "durationTicks": 3,
          "midi": 42,
          "name": "F#2",
          "ticks": 1296,
          "time": 15.069767441860465,
          "velocity": 0.14173228346456693
        },
        {
          "duration": 0.03488372093023173,
          "durationTicks": 3,
          "midi": 52,
          "name": "E3",
          "ticks": 1300,
          "time": 15.116279069767442,
          "velocity": 0.14173228346456693
        },
        {
          "duration": 0.03488372093023173,
          "durationTicks": 3,
          "midi": 51,
          "name": "D#3",
          "ticks": 1312,
          "time": 15.255813953488373,
          "velocity": 0.07086614173228346
        },
        {
          "duration": 0.04651162790697683,
          "durationTicks": 4,
          "midi": 42,
          "name": "F#2",
          "ticks": 1323,
          "time": 15.383720930232558,
          "velocity": 0.3228346456692913
        },
        {
          "duration": 0.03488372093023351,
          "durationTicks": 3,
          "midi": 51,
          "name": "D#3",
          "ticks": 1325,
          "time": 15.406976744186046,
          "velocity": 0.08661417322834646
        },
        {
          "duration": 0.03488372093023173,
          "durationTicks": 3,
          "midi": 42,
          "name": "F#2",
          "ticks": 1328,
          "time": 15.44186046511628,
          "velocity": 0.1968503937007874
        },
        {
          "duration": 0.06976744186046346,
          "durationTicks": 6,
          "midi": 52,
          "name": "E3",
          "ticks": 1328,
          "time": 15.44186046511628,
          "velocity": 0.08661417322834646
        },
        {
          "duration": 0.03488372093023173,
          "durationTicks": 3,
          "midi": 42,
          "name": "F#2",
          "ticks": 1333,
          "time": 15.5,
          "velocity": 0.18110236220472442
        },
        {
          "duration": 0.03488372093023351,
          "durationTicks": 3,
          "midi": 44,
          "name": "G#2",
          "ticks": 1346,
          "time": 15.651162790697674,
          "velocity": 0.09448818897637795
        },
        {
          "duration": 0.09302325581395365,
          "durationTicks": 8,
          "midi": 52,
          "name": "E3",
          "ticks": 1351,
          "time": 15.709302325581396,
          "velocity": 0.16535433070866143
        },
        {
          "duration": 0.05813953488372192,
          "durationTicks": 5,
          "midi": 42,
          "name": "F#2",
          "ticks": 1362,
          "time": 15.837209302325581,
          "velocity": 0.1968503937007874
        },
        {
          "duration": 0.03488372093023173,
          "durationTicks": 3,
          "midi": 52,
          "name": "E3",
          "ticks": 1363,
          "time": 15.848837209302326,
          "velocity": 0.2204724409448819
        },
        {
          "duration": 0.7325581395348824,
          "durationTicks": 63,
          "midi": 57,
          "name": "A3",
          "ticks": 1374,
          "time": 15.976744186046512,
          "velocity": 0.16535433070866143
        },
        {
          "duration": 0.03488372093023173,
          "durationTicks": 3,
          "midi": 42,
          "name": "F#2",
          "ticks": 1391,
          "time": 16.174418604651162,
          "velocity": 0.2677165354330709
        },
        {
          "duration": 0.3139534883720927,
          "durationTicks": 27,
          "midi": 62,
          "name": "D4",
          "ticks": 1392,
          "time": 16.186046511627907,
          "velocity": 0.12598425196850394
        },
        {
          "duration": 0.03488372093023173,
          "durationTicks": 3,
          "midi": 42,
          "name": "F#2",
          "ticks": 1395,
          "time": 16.22093023255814,
          "velocity": 0.16535433070866143
        },
        {
          "duration": 0.03488372093023173,
          "durationTicks": 3,
          "midi": 42,
          "name": "F#2",
          "ticks": 1400,
          "time": 16.27906976744186,
          "velocity": 0.11811023622047244
        },
        {
          "duration": 0.08139534883721211,
          "durationTicks": 7,
          "midi": 52,
          "name": "E3",
          "ticks": 1406,
          "time": 16.348837209302324,
          "velocity": 0.13385826771653545
        },
        {
          "duration": 0.03488372093023173,
          "durationTicks": 3,
          "midi": 42,
          "name": "F#2",
          "ticks": 1422,
          "time": 16.53488372093023,
          "velocity": 0.12598425196850394
        },
        {
          "duration": 0.02325581395349019,
          "durationTicks": 2,
          "midi": 52,
          "name": "E3",
          "ticks": 1434,
          "time": 16.674418604651162,
          "velocity": 0.23622047244094488
        },
        {
          "duration": 0.03488372093023173,
          "durationTicks": 3,
          "midi": 44,
          "name": "G#2",
          "ticks": 1435,
          "time": 16.686046511627907,
          "velocity": 0.2677165354330709
        },
        {
          "duration": 0.03488372093023173,
          "durationTicks": 3,
          "midi": 52,
          "name": "E3",
          "ticks": 1438,
          "time": 16.72093023255814,
          "velocity": 0.11023622047244094
        },
        {
          "duration": 0.3255813953488378,
          "durationTicks": 28,
          "midi": 57,
          "name": "A3",
          "ticks": 1438,
          "time": 16.72093023255814,
          "velocity": 0.11811023622047244
        },
        {
          "duration": 0.06976744186046702,
          "durationTicks": 6,
          "midi": 60,
          "name": "C4",
          "ticks": 1438,
          "time": 16.72093023255814,
          "velocity": 0.09448818897637795
        },
        {
          "duration": 0.03488372093023173,
          "durationTicks": 3,
          "midi": 44,
          "name": "G#2",
          "ticks": 1440,
          "time": 16.74418604651163,
          "velocity": 0.23622047244094488
        },
        {
          "duration": 0.08139534883720856,
          "durationTicks": 7,
          "midi": 45,
          "name": "A2",
          "ticks": 1452,
          "time": 16.88372093023256,
          "velocity": 0.1889763779527559
        },
        {
          "duration": 0.06976744186046346,
          "durationTicks": 6,
          "midi": 52,
          "name": "E3",
          "ticks": 1462,
          "time": 17,
          "velocity": 0.11023622047244094
        },
        {
          "duration": 0.04651162790697683,
          "durationTicks": 4,
          "midi": 52,
          "name": "E3",
          "ticks": 1473,
          "time": 17.127906976744185,
          "velocity": 0.2047244094488189
        },
        {
          "duration": 0.03488372093023173,
          "durationTicks": 3,
          "midi": 44,
          "name": "G#2",
          "ticks": 1475,
          "time": 17.151162790697676,
          "velocity": 0.2204724409448819
        },
        {
          "duration": 0.3023255813953476,
          "durationTicks": 26,
          "midi": 57,
          "name": "A3",
          "ticks": 1475,
          "time": 17.151162790697676,
          "velocity": 0.08661417322834646
        },
        {
          "duration": 0.11627906976744029,
          "durationTicks": 10,
          "midi": 45,
          "name": "A2",
          "ticks": 1490,
          "time": 17.325581395348838,
          "velocity": 0.25196850393700787
        },
        {
          "duration": 0.034883720930235285,
          "durationTicks": 3,
          "midi": 60,
          "name": "C4",
          "ticks": 1500,
          "time": 17.441860465116278,
          "velocity": 0.07086614173228346
        },
        {
          "duration": 0.03488372093023173,
          "durationTicks": 3,
          "midi": 44,
          "name": "G#2",
          "ticks": 1513,
          "time": 17.593023255813954,
          "velocity": 0.18110236220472442
        },
        {
          "duration": 0.09302325581395365,
          "durationTicks": 8,
          "midi": 52,
          "name": "E3",
          "ticks": 1514,
          "time": 17.6046511627907,
          "velocity": 0.12598425196850394
        },
        {
          "duration": 0.03488372093023173,
          "durationTicks": 3,
          "midi": 45,
          "name": "A2",
          "ticks": 1524,
          "time": 17.72093023255814,
          "velocity": 0.1889763779527559
        },
        {
          "duration": 0.03488372093023173,
          "durationTicks": 3,
          "midi": 44,
          "name": "G#2",
          "ticks": 1530,
          "time": 17.790697674418606,
          "velocity": 0.1968503937007874
        },
        {
          "duration": 0.04651162790697683,
          "durationTicks": 4,
          "midi": 52,
          "name": "E3",
          "ticks": 1532,
          "time": 17.813953488372093,
          "velocity": 0.08661417322834646
        },
        {
          "duration": 0.034883720930235285,
          "durationTicks": 3,
          "midi": 42,
          "name": "F#2",
          "ticks": 1535,
          "time": 17.848837209302324,
          "velocity": 0.07086614173228346
        },
        {
          "duration": 0.02325581395349019,
          "durationTicks": 2,
          "midi": 51,
          "name": "D#3",
          "ticks": 1540,
          "time": 17.906976744186046,
          "velocity": 0.2677165354330709
        },
        {
          "duration": 0.03488372093023173,
          "durationTicks": 3,
          "midi": 42,
          "name": "F#2",
          "ticks": 1541,
          "time": 17.91860465116279,
          "velocity": 0.31496062992125984
        },
        {
          "duration": 0.03488372093023173,
          "durationTicks": 3,
          "midi": 42,
          "name": "F#2",
          "ticks": 1546,
          "time": 17.976744186046513,
          "velocity": 0.2283464566929134
        },
        {
          "duration": 0.046511627906973274,
          "durationTicks": 4,
          "midi": 52,
          "name": "E3",
          "ticks": 1546,
          "time": 17.976744186046513,
          "velocity": 0.11811023622047244
        },
        {
          "duration": 0.06976744186046346,
          "durationTicks": 6,
          "midi": 57,
          "name": "A3",
          "ticks": 1556,
          "time": 18.093023255813954,
          "velocity": 0.08661417322834646
        },
        {
          "duration": 0.03488372093023173,
          "durationTicks": 3,
          "midi": 44,
          "name": "G#2",
          "ticks": 1559,
          "time": 18.127906976744185,
          "velocity": 0.14960629921259844
        },
        {
          "duration": 0.09302325581395365,
          "durationTicks": 8,
          "midi": 52,
          "name": "E3",
          "ticks": 1567,
          "time": 18.22093023255814,
          "velocity": 0.14173228346456693
        },
        {
          "duration": 0.06976744186046346,
          "durationTicks": 6,
          "midi": 45,
          "name": "A2",
          "ticks": 1576,
          "time": 18.325581395348838,
          "velocity": 0.10236220472440945
        },
        {
          "duration": 0.04651162790697683,
          "durationTicks": 4,
          "midi": 52,
          "name": "E3",
          "ticks": 1582,
          "time": 18.3953488372093,
          "velocity": 0.25196850393700787
        },
        {
          "duration": 0.05813953488371837,
          "durationTicks": 5,
          "midi": 52,
          "name": "E3",
          "ticks": 1588,
          "time": 18.46511627906977,
          "velocity": 0.08661417322834646
        },
        {
          "duration": 0.034883720930235285,
          "durationTicks": 3,
          "midi": 44,
          "name": "G#2",
          "ticks": 1593,
          "time": 18.523255813953487,
          "velocity": 0.11811023622047244
        },
        {
          "duration": 0.15116279069767202,
          "durationTicks": 13,
          "midi": 57,
          "name": "A3",
          "ticks": 1596,
          "time": 18.558139534883722,
          "velocity": 0.12598425196850394
        },
        {
          "duration": 0.06976744186046346,
          "durationTicks": 6,
          "midi": 57,
          "name": "A3",
          "ticks": 1612,
          "time": 18.74418604651163,
          "velocity": 0.14173228346456693
        },
        {
          "duration": 0.05813953488372192,
          "durationTicks": 5,
          "midi": 52,
          "name": "E3",
          "ticks": 1614,
          "time": 18.767441860465116,
          "velocity": 0.09448818897637795
        },
        {
          "duration": 0.06976744186046702,
          "durationTicks": 6,
          "midi": 57,
          "name": "A3",
          "ticks": 1622,
          "time": 18.86046511627907,
          "velocity": 0.14173228346456693
        },
        {
          "duration": 0.13953488372093048,
          "durationTicks": 12,
          "midi": 57,
          "name": "A3",
          "ticks": 1638,
          "time": 19.046511627906977,
          "velocity": 0.1889763779527559
        },
        {
          "duration": 0.04651162790697683,
          "durationTicks": 4,
          "midi": 42,
          "name": "F#2",
          "ticks": 1651,
          "time": 19.197674418604652,
          "velocity": 0.30708661417322836
        },
        {
          "duration": 0.02325581395349019,
          "durationTicks": 2,
          "midi": 42,
          "name": "F#2",
          "ticks": 1657,
          "time": 19.267441860465116,
          "velocity": 0.2283464566929134
        },
        {
          "duration": 0.03488372093023173,
          "durationTicks": 3,
          "midi": 44,
          "name": "G#2",
          "ticks": 1665,
          "time": 19.36046511627907,
          "velocity": 0.16535433070866143
        },
        {
          "duration": 0.03488372093023173,
          "durationTicks": 3,
          "midi": 45,
          "name": "A2",
          "ticks": 1678,
          "time": 19.511627906976745,
          "velocity": 0.07874015748031496
        },
        {
          "duration": 0.09302325581395365,
          "durationTicks": 8,
          "midi": 52,
          "name": "E3",
          "ticks": 1681,
          "time": 19.546511627906977,
          "velocity": 0.14960629921259844
        },
        {
          "duration": 0.1046511627906952,
          "durationTicks": 9,
          "midi": 45,
          "name": "A2",
          "ticks": 1682,
          "time": 19.558139534883722,
          "velocity": 0.10236220472440945
        },
        {
          "duration": 0.05813953488371837,
          "durationTicks": 5,
          "midi": 52,
          "name": "E3",
          "ticks": 1698,
          "time": 19.74418604651163,
          "velocity": 0.09448818897637795
        },
        {
          "duration": 0.034883720930235285,
          "durationTicks": 3,
          "midi": 44,
          "name": "G#2",
          "ticks": 1699,
          "time": 19.75581395348837,
          "velocity": 0.12598425196850394
        },
        {
          "duration": 0.1744186046511622,
          "durationTicks": 15,
          "midi": 57,
          "name": "A3",
          "ticks": 1706,
          "time": 19.837209302325583,
          "velocity": 0.10236220472440945
        },
        {
          "duration": 0.03488372093023173,
          "durationTicks": 3,
          "midi": 45,
          "name": "A2",
          "ticks": 1713,
          "time": 19.91860465116279,
          "velocity": 0.07086614173228346
        },
        {
          "duration": 0.023255813953486637,
          "durationTicks": 2,
          "midi": 45,
          "name": "A2",
          "ticks": 1720,
          "time": 20,
          "velocity": 0.23622047244094488
        },
        {
          "duration": 0.29069767441860606,
          "durationTicks": 25,
          "midi": 57,
          "name": "A3",
          "ticks": 1722,
          "time": 20.023255813953487,
          "velocity": 0.09448818897637795
        },
        {
          "duration": 0.04651162790697683,
          "durationTicks": 4,
          "midi": 52,
          "name": "E3",
          "ticks": 1726,
          "time": 20.069767441860463,
          "velocity": 0.08661417322834646
        },
        {
          "duration": 0.03488372093023173,
          "durationTicks": 3,
          "midi": 44,
          "name": "G#2",
          "ticks": 1729,
          "time": 20.1046511627907,
          "velocity": 0.09448818897637795
        },
        {
          "duration": 0.08139534883720856,
          "durationTicks": 7,
          "midi": 52,
          "name": "E3",
          "ticks": 1736,
          "time": 20.186046511627907,
          "velocity": 0.11811023622047244
        },
        {
          "duration": 0.05813953488372192,
          "durationTicks": 5,
          "midi": 57,
          "name": "A3",
          "ticks": 1751,
          "time": 20.36046511627907,
          "velocity": 0.07086614173228346
        },
        {
          "duration": 0.03488372093023173,
          "durationTicks": 3,
          "midi": 52,
          "name": "E3",
          "ticks": 1753,
          "time": 20.38372093023256,
          "velocity": 0.07874015748031496
        },
        {
          "duration": 0.023255813953486637,
          "durationTicks": 2,
          "midi": 59,
          "name": "B3",
          "ticks": 1760,
          "time": 20.46511627906977,
          "velocity": 0.28346456692913385
        },
        {
          "duration": 0.8372093023255793,
          "durationTicks": 72,
          "midi": 72,
          "name": "C5",
          "ticks": 1761,
          "time": 20.476744186046513,
          "velocity": 0.1732283464566929
        },
        {
          "duration": 1.0348837209302317,
          "durationTicks": 89,
          "midi": 60,
          "name": "C4",
          "ticks": 1762,
          "time": 20.488372093023255,
          "velocity": 0.3228346456692913
        },
        {
          "duration": 0.05813953488372192,
          "durationTicks": 5,
          "midi": 48,
          "name": "C3",
          "ticks": 1763,
          "time": 20.5,
          "velocity": 0.14960629921259844
        },
        {
          "duration": 0.13953488372093048,
          "durationTicks": 12,
          "midi": 48,
          "name": "C3",
          "ticks": 1771,
          "time": 20.593023255813954,
          "velocity": 0.13385826771653545
        },
        {
          "duration": 0.04651162790697683,
          "durationTicks": 4,
          "midi": 52,
          "name": "E3",
          "ticks": 1792,
          "time": 20.837209302325583,
          "velocity": 0.07874015748031496
        },
        {
          "duration": 0.03488372093023173,
          "durationTicks": 3,
          "midi": 42,
          "name": "F#2",
          "ticks": 1803,
          "time": 20.96511627906977,
          "velocity": 0.14173228346456693
        },
        {
          "duration": 0.15116279069767202,
          "durationTicks": 13,
          "midi": 55,
          "name": "G3",
          "ticks": 1807,
          "time": 21.011627906976745,
          "velocity": 0.10236220472440945
        },
        {
          "duration": 0.24418604651162923,
          "durationTicks": 21,
          "midi": 55,
          "name": "G3",
          "ticks": 1822,
          "time": 21.186046511627907,
          "velocity": 0.11023622047244094
        },
        {
          "duration": 0.08139534883720856,
          "durationTicks": 7,
          "midi": 42,
          "name": "F#2",
          "ticks": 1833,
          "time": 21.313953488372093,
          "velocity": 0.08661417322834646
        },
        {
          "duration": 0.05813953488372192,
          "durationTicks": 5,
          "midi": 52,
          "name": "E3",
          "ticks": 1845,
          "time": 21.453488372093023,
          "velocity": 0.23622047244094488
        },
        {
          "duration": 0.04651162790697683,
          "durationTicks": 4,
          "midi": 52,
          "name": "E3",
          "ticks": 1851,
          "time": 21.523255813953487,
          "velocity": 0.15748031496062992
        },
        {
          "duration": 0.12790697674418539,
          "durationTicks": 11,
          "midi": 60,
          "name": "C4",
          "ticks": 1870,
          "time": 21.74418604651163,
          "velocity": 0.3464566929133858
        },
        {
          "duration": 0.13953488372093048,
          "durationTicks": 12,
          "midi": 84,
          "name": "C6",
          "ticks": 1870,
          "time": 21.74418604651163,
          "velocity": 0.14173228346456693
        },
        {
          "duration": 0.29069767441860606,
          "durationTicks": 25,
          "midi": 47,
          "name": "B2",
          "ticks": 1875,
          "time": 21.802325581395348,
          "velocity": 0.2283464566929134
        },
        {
          "duration": 0.06976744186046702,
          "durationTicks": 6,
          "midi": 61,
          "name": "C#4",
          "ticks": 1883,
          "time": 21.8953488372093,
          "velocity": 0.3543307086614173
        },
        {
          "duration": 0.19767441860464885,
          "durationTicks": 17,
          "midi": 62,
          "name": "D4",
          "ticks": 1889,
          "time": 21.96511627906977,
          "velocity": 0.23622047244094488
        },
        {
          "duration": 0.04651162790697683,
          "durationTicks": 4,
          "midi": 47,
          "name": "B2",
          "ticks": 1908,
          "time": 22.186046511627907,
          "velocity": 0.16535433070866143
        },
        {
          "duration": 0.26744186046511587,
          "durationTicks": 23,
          "midi": 47,
          "name": "B2",
          "ticks": 1918,
          "time": 22.302325581395348,
          "velocity": 0.15748031496062992
        },
        {
          "duration": 0.034883720930235285,
          "durationTicks": 3,
          "midi": 42,
          "name": "F#2",
          "ticks": 1957,
          "time": 22.75581395348837,
          "velocity": 0.10236220472440945
        },
        {
          "duration": 0.034883720930235285,
          "durationTicks": 3,
          "midi": 50,
          "name": "D3",
          "ticks": 1957,
          "time": 22.75581395348837,
          "velocity": 0.07086614173228346
        },
        {
          "duration": 0.034883720930235285,
          "durationTicks": 3,
          "midi": 51,
          "name": "D#3",
          "ticks": 1980,
          "time": 23.023255813953487,
          "velocity": 0.28346456692913385
        },
        {
          "duration": 0.02325581395349019,
          "durationTicks": 2,
          "midi": 61,
          "name": "C#4",
          "ticks": 1980,
          "time": 23.023255813953487,
          "velocity": 0.29133858267716534
        },
        {
          "duration": 0.03488372093023173,
          "durationTicks": 3,
          "midi": 42,
          "name": "F#2",
          "ticks": 1982,
          "time": 23.046511627906977,
          "velocity": 0.30708661417322836
        },
        {
          "duration": 0.09302325581395365,
          "durationTicks": 8,
          "midi": 62,
          "name": "D4",
          "ticks": 1982,
          "time": 23.046511627906977,
          "velocity": 0.3464566929133858
        },
        {
          "duration": 0.034883720930235285,
          "durationTicks": 3,
          "midi": 44,
          "name": "G#2",
          "ticks": 1988,
          "time": 23.11627906976744,
          "velocity": 0.25984251968503935
        },
        {
          "duration": 0.04651162790697683,
          "durationTicks": 4,
          "midi": 62,
          "name": "D4",
          "ticks": 1991,
          "time": 23.151162790697676,
          "velocity": 0.2677165354330709
        },
        {
          "duration": 0.02325581395349019,
          "durationTicks": 2,
          "midi": 44,
          "name": "G#2",
          "ticks": 1993,
          "time": 23.174418604651162,
          "velocity": 0.2440944881889764
        },
        {
          "duration": 0.27906976744186096,
          "durationTicks": 24,
          "midi": 60,
          "name": "C4",
          "ticks": 1998,
          "time": 23.232558139534884,
          "velocity": 0.14173228346456693
        },
        {
          "duration": 0.23255813953488413,
          "durationTicks": 20,
          "midi": 45,
          "name": "A2",
          "ticks": 2005,
          "time": 23.313953488372093,
          "velocity": 0.2283464566929134
        },
        {
          "duration": 0.08139534883720856,
          "durationTicks": 7,
          "midi": 52,
          "name": "E3",
          "ticks": 2009,
          "time": 23.36046511627907,
          "velocity": 0.2204724409448819
        },
        {
          "duration": 0.1976744186046524,
          "durationTicks": 17,
          "midi": 45,
          "name": "A2",
          "ticks": 2032,
          "time": 23.627906976744185,
          "velocity": 0.15748031496062992
        },
        {
          "duration": 0.08139534883720856,
          "durationTicks": 7,
          "midi": 52,
          "name": "E3",
          "ticks": 2036,
          "time": 23.674418604651162,
          "velocity": 0.11023622047244094
        },
        {
          "duration": 0.03488372093023173,
          "durationTicks": 3,
          "midi": 44,
          "name": "G#2",
          "ticks": 2050,
          "time": 23.837209302325583,
          "velocity": 0.2283464566929134
        },
        {
          "duration": 0.06976744186046702,
          "durationTicks": 6,
          "midi": 52,
          "name": "E3",
          "ticks": 2063,
          "time": 23.988372093023255,
          "velocity": 0.12598425196850394
        },
        {
          "duration": 0.08139534883720856,
          "durationTicks": 7,
          "midi": 45,
          "name": "A2",
          "ticks": 2068,
          "time": 24.046511627906977,
          "velocity": 0.14960629921259844
        },
        {
          "duration": 1.1511627906976756,
          "durationTicks": 99,
          "midi": 57,
          "name": "A3",
          "ticks": 2080,
          "time": 24.186046511627907,
          "velocity": 0.1732283464566929
        },
        {
          "duration": 0.09302325581395365,
          "durationTicks": 8,
          "midi": 52,
          "name": "E3",
          "ticks": 2118,
          "time": 24.627906976744185,
          "velocity": 0.2283464566929134
        },
        {
          "duration": 0.03488372093023173,
          "durationTicks": 3,
          "midi": 52,
          "name": "E3",
          "ticks": 2147,
          "time": 24.96511627906977,
          "velocity": 0.07874015748031496
        },
        {
          "duration": 0.10465116279069875,
          "durationTicks": 9,
          "midi": 52,
          "name": "E3",
          "ticks": 2172,
          "time": 25.25581395348837,
          "velocity": 0.2204724409448819
        },
        {
          "duration": 0.02325581395349019,
          "durationTicks": 2,
          "midi": 50,
          "name": "D3",
          "ticks": 2195,
          "time": 25.523255813953487,
          "velocity": 0.31496062992125984
        },
        {
          "duration": 0.12790697674418539,
          "durationTicks": 11,
          "midi": 42,
          "name": "F#2",
          "ticks": 2198,
          "time": 25.558139534883722,
          "velocity": 0.4251968503937008
        },
        {
          "duration": 0.02325581395349019,
          "durationTicks": 2,
          "midi": 53,
          "name": "F3",
          "ticks": 2203,
          "time": 25.61627906976744,
          "velocity": 0.2283464566929134
        },
        {
          "duration": 0.46511627906976827,
          "durationTicks": 40,
          "midi": 60,
          "name": "C4",
          "ticks": 2203,
          "time": 25.61627906976744,
          "velocity": 0.1732283464566929
        },
        {
          "duration": 0.48837209302325846,
          "durationTicks": 42,
          "midi": 67,
          "name": "G4",
          "ticks": 2203,
          "time": 25.61627906976744,
          "velocity": 0.2440944881889764
        },
        {
          "duration": 0.023255813953486637,
          "durationTicks": 2,
          "midi": 51,
          "name": "D#3",
          "ticks": 2205,
          "time": 25.63953488372093,
          "velocity": 0.23622047244094488
        },
        {
          "duration": 0.23255813953488413,
          "durationTicks": 20,
          "midi": 50,
          "name": "D3",
          "ticks": 2208,
          "time": 25.674418604651162,
          "velocity": 0.15748031496062992
        },
        {
          "duration": 0.06976744186046702,
          "durationTicks": 6,
          "midi": 42,
          "name": "F#2",
          "ticks": 2212,
          "time": 25.72093023255814,
          "velocity": 0.28346456692913385
        },
        {
          "duration": 0.04651162790697683,
          "durationTicks": 4,
          "midi": 42,
          "name": "F#2",
          "ticks": 2221,
          "time": 25.825581395348838,
          "velocity": 0.2047244094488189
        },
        {
          "duration": 0.1860465116279073,
          "durationTicks": 16,
          "midi": 43,
          "name": "G2",
          "ticks": 2225,
          "time": 25.872093023255815,
          "velocity": 0.1732283464566929
        },
        {
          "duration": 0.03488372093023173,
          "durationTicks": 3,
          "midi": 52,
          "name": "E3",
          "ticks": 2229,
          "time": 25.91860465116279,
          "velocity": 0.16535433070866143
        },
        {
          "duration": 0.03488372093023173,
          "durationTicks": 3,
          "midi": 57,
          "name": "A3",
          "ticks": 2243,
          "time": 26.08139534883721,
          "velocity": 0.11023622047244094
        },
        {
          "duration": 0.04651162790697683,
          "durationTicks": 4,
          "midi": 51,
          "name": "D#3",
          "ticks": 2244,
          "time": 26.093023255813954,
          "velocity": 0.1732283464566929
        },
        {
          "duration": 0.41860465116279144,
          "durationTicks": 36,
          "midi": 67,
          "name": "G4",
          "ticks": 2247,
          "time": 26.127906976744185,
          "velocity": 0.1732283464566929
        },
        {
          "duration": 0.1860465116279073,
          "durationTicks": 16,
          "midi": 43,
          "name": "G2",
          "ticks": 2251,
          "time": 26.174418604651162,
          "velocity": 0.14960629921259844
        },
        {
          "duration": 0.06976744186046346,
          "durationTicks": 6,
          "midi": 57,
          "name": "A3",
          "ticks": 2252,
          "time": 26.186046511627907,
          "velocity": 0.10236220472440945
        },
        {
          "duration": 0.06976744186046702,
          "durationTicks": 6,
          "midi": 57,
          "name": "A3",
          "ticks": 2259,
          "time": 26.267441860465116,
          "velocity": 0.09448818897637795
        },
        {
          "duration": 0.09302325581395365,
          "durationTicks": 8,
          "midi": 60,
          "name": "C4",
          "ticks": 2269,
          "time": 26.38372093023256,
          "velocity": 0.09448818897637795
        },
        {
          "duration": 0.06976744186046346,
          "durationTicks": 6,
          "midi": 43,
          "name": "G2",
          "ticks": 2275,
          "time": 26.453488372093023,
          "velocity": 0.11811023622047244
        },
        {
          "duration": 0.06976744186046346,
          "durationTicks": 6,
          "midi": 42,
          "name": "F#2",
          "ticks": 2287,
          "time": 26.593023255813954,
          "velocity": 0.18110236220472442
        },
        {
          "duration": 0.25581395348837077,
          "durationTicks": 22,
          "midi": 67,
          "name": "G4",
          "ticks": 2287,
          "time": 26.593023255813954,
          "velocity": 0.09448818897637795
        },
        {
          "duration": 0.034883720930235285,
          "durationTicks": 3,
          "midi": 51,
          "name": "D#3",
          "ticks": 2289,
          "time": 26.61627906976744,
          "velocity": 0.14173228346456693
        },
        {
          "duration": 0.034883720930235285,
          "durationTicks": 3,
          "midi": 41,
          "name": "F2",
          "ticks": 2293,
          "time": 26.662790697674417,
          "velocity": 0.08661417322834646
        },
        {
          "duration": 0.03488372093023173,
          "durationTicks": 3,
          "midi": 53,
          "name": "F3",
          "ticks": 2312,
          "time": 26.88372093023256,
          "velocity": 0.1968503937007874
        },
        {
          "duration": 0.3837209302325597,
          "durationTicks": 33,
          "midi": 67,
          "name": "G4",
          "ticks": 2313,
          "time": 26.8953488372093,
          "velocity": 0.13385826771653545
        },
        {
          "duration": 0.26744186046511587,
          "durationTicks": 23,
          "midi": 62,
          "name": "D4",
          "ticks": 2314,
          "time": 26.906976744186046,
          "velocity": 0.15748031496062992
        },
        {
          "duration": 0.03488372093023173,
          "durationTicks": 3,
          "midi": 41,
          "name": "F2",
          "ticks": 2315,
          "time": 26.91860465116279,
          "velocity": 0.2440944881889764
        },
        {
          "duration": 0.22093023255813904,
          "durationTicks": 19,
          "midi": 50,
          "name": "D3",
          "ticks": 2317,
          "time": 26.941860465116278,
          "velocity": 0.25984251968503935
        },
        {
          "duration": 0.06976744186046346,
          "durationTicks": 6,
          "midi": 42,
          "name": "F#2",
          "ticks": 2318,
          "time": 26.953488372093023,
          "velocity": 0.1968503937007874
        },
        {
          "duration": 0.034883720930235285,
          "durationTicks": 3,
          "midi": 41,
          "name": "F2",
          "ticks": 2324,
          "time": 27.023255813953487,
          "velocity": 0.16535433070866143
        },
        {
          "duration": 0.06976744186046346,
          "durationTicks": 6,
          "midi": 42,
          "name": "F#2",
          "ticks": 2327,
          "time": 27.058139534883722,
          "velocity": 0.12598425196850394
        },
        {
          "duration": 0.04651162790697683,
          "durationTicks": 4,
          "midi": 50,
          "name": "D3",
          "ticks": 2341,
          "time": 27.22093023255814,
          "velocity": 0.08661417322834646
        },
        {
          "duration": 0.15116279069767202,
          "durationTicks": 13,
          "midi": 89,
          "name": "F6",
          "ticks": 2354,
          "time": 27.372093023255815,
          "velocity": 0.08661417322834646
        },
        {
          "duration": 0.4651162790697647,
          "durationTicks": 40,
          "midi": 57,
          "name": "A3",
          "ticks": 2355,
          "time": 27.38372093023256,
          "velocity": 0.10236220472440945
        },
        {
          "duration": 0.29069767441860606,
          "durationTicks": 25,
          "midi": 84,
          "name": "C6",
          "ticks": 2356,
          "time": 27.3953488372093,
          "velocity": 0.07086614173228346
        },
        {
          "duration": 0.05813953488372192,
          "durationTicks": 5,
          "midi": 42,
          "name": "F#2",
          "ticks": 2379,
          "time": 27.662790697674417,
          "velocity": 0.12598425196850394
        },
        {
          "duration": 0.47674418604651336,
          "durationTicks": 41,
          "midi": 62,
          "name": "D4",
          "ticks": 2379,
          "time": 27.662790697674417,
          "velocity": 0.29133858267716534
        },
        {
          "duration": 0.04651162790697683,
          "durationTicks": 4,
          "midi": 57,
          "name": "A3",
          "ticks": 2398,
          "time": 27.88372093023256,
          "velocity": 0.07874015748031496
        },
        {
          "duration": 0.05813953488371837,
          "durationTicks": 5,
          "midi": 57,
          "name": "A3",
          "ticks": 2405,
          "time": 27.96511627906977,
          "velocity": 0.11811023622047244
        },
        {
          "duration": 0.04651162790697683,
          "durationTicks": 4,
          "midi": 41,
          "name": "F2",
          "ticks": 2407,
          "time": 27.988372093023255,
          "velocity": 0.13385826771653545
        },
        {
          "duration": 0.023255813953486637,
          "durationTicks": 2,
          "midi": 50,
          "name": "D3",
          "ticks": 2421,
          "time": 28.151162790697676,
          "velocity": 0.28346456692913385
        },
        {
          "duration": 0.30232558139535115,
          "durationTicks": 26,
          "midi": 62,
          "name": "D4",
          "ticks": 2422,
          "time": 28.162790697674417,
          "velocity": 0.29133858267716534
        },
        {
          "duration": 0.02325581395349019,
          "durationTicks": 2,
          "midi": 44,
          "name": "G#2",
          "ticks": 2423,
          "time": 28.174418604651162,
          "velocity": 0.33070866141732286
        },
        {
          "duration": 0.03488372093023173,
          "durationTicks": 3,
          "midi": 52,
          "name": "E3",
          "ticks": 2424,
          "time": 28.186046511627907,
          "velocity": 0.16535433070866143
        },
        {
          "duration": 0.03488372093023173,
          "durationTicks": 3,
          "midi": 44,
          "name": "G#2",
          "ticks": 2427,
          "time": 28.22093023255814,
          "velocity": 0.2440944881889764
        },
        {
          "duration": 0.023255813953486637,
          "durationTicks": 2,
          "midi": 44,
          "name": "G#2",
          "ticks": 2432,
          "time": 28.27906976744186,
          "velocity": 0.25984251968503935
        },
        {
          "duration": 0.023255813953486637,
          "durationTicks": 2,
          "midi": 44,
          "name": "G#2",
          "ticks": 2436,
          "time": 28.325581395348838,
          "velocity": 0.23622047244094488
        },
        {
          "duration": 0.04651162790697683,
          "durationTicks": 4,
          "midi": 45,
          "name": "A2",
          "ticks": 2446,
          "time": 28.441860465116278,
          "velocity": 0.1968503937007874
        },
        {
          "duration": 0.08139534883720856,
          "durationTicks": 7,
          "midi": 52,
          "name": "E3",
          "ticks": 2452,
          "time": 28.511627906976745,
          "velocity": 0.1732283464566929
        },
        {
          "duration": 0.06976744186046702,
          "durationTicks": 6,
          "midi": 45,
          "name": "A2",
          "ticks": 2457,
          "time": 28.569767441860463,
          "velocity": 0.2047244094488189
        },
        {
          "duration": 0.02325581395349019,
          "durationTicks": 2,
          "midi": 53,
          "name": "F3",
          "ticks": 2462,
          "time": 28.627906976744185,
          "velocity": 0.25984251968503935
        },
        {
          "duration": 0.03488372093023173,
          "durationTicks": 3,
          "midi": 52,
          "name": "E3",
          "ticks": 2464,
          "time": 28.651162790697676,
          "velocity": 0.2992125984251969
        },
        {
          "duration": 0.6279069767441854,
          "durationTicks": 54,
          "midi": 83,
          "name": "B5",
          "ticks": 2464,
          "time": 28.651162790697676,
          "velocity": 0.14960629921259844
        },
        {
          "duration": 0.02325581395349019,
          "durationTicks": 2,
          "midi": 42,
          "name": "F#2",
          "ticks": 2465,
          "time": 28.662790697674417,
          "velocity": 0.29133858267716534
        },
        {
          "duration": 0.29069767441860606,
          "durationTicks": 25,
          "midi": 57,
          "name": "A3",
          "ticks": 2466,
          "time": 28.674418604651162,
          "velocity": 0.13385826771653545
        },
        {
          "duration": 0.02325581395349019,
          "durationTicks": 2,
          "midi": 44,
          "name": "G#2",
          "ticks": 2469,
          "time": 28.709302325581394,
          "velocity": 0.2440944881889764
        },
        {
          "duration": 0.06976744186046702,
          "durationTicks": 6,
          "midi": 52,
          "name": "E3",
          "ticks": 2478,
          "time": 28.813953488372093,
          "velocity": 0.10236220472440945
        },
        {
          "duration": 0.03488372093023173,
          "durationTicks": 3,
          "midi": 45,
          "name": "A2",
          "ticks": 2486,
          "time": 28.906976744186046,
          "velocity": 0.1732283464566929
        },
        {
          "duration": 0.09302325581395365,
          "durationTicks": 8,
          "midi": 60,
          "name": "C4",
          "ticks": 2490,
          "time": 28.953488372093023,
          "velocity": 0.12598425196850394
        },
        {
          "duration": 0.18604651162790375,
          "durationTicks": 16,
          "midi": 57,
          "name": "A3",
          "ticks": 2492,
          "time": 28.976744186046513,
          "velocity": 0.11811023622047244
        },
        {
          "duration": 0.03488372093023173,
          "durationTicks": 3,
          "midi": 44,
          "name": "G#2",
          "ticks": 2493,
          "time": 28.988372093023255,
          "velocity": 0.1968503937007874
        },
        {
          "duration": 0.09302325581395365,
          "durationTicks": 8,
          "midi": 52,
          "name": "E3",
          "ticks": 2504,
          "time": 29.11627906976744,
          "velocity": 0.2047244094488189
        },
        {
          "duration": 0.05813953488372192,
          "durationTicks": 5,
          "midi": 45,
          "name": "A2",
          "ticks": 2512,
          "time": 29.209302325581394,
          "velocity": 0.14960629921259844
        },
        {
          "duration": 0.03488372093023173,
          "durationTicks": 3,
          "midi": 44,
          "name": "G#2",
          "ticks": 2519,
          "time": 29.290697674418606,
          "velocity": 0.18110236220472442
        },
        {
          "duration": 0.5116279069767415,
          "durationTicks": 44,
          "midi": 64,
          "name": "E4",
          "ticks": 2531,
          "time": 29.430232558139537,
          "velocity": 0.12598425196850394
        },
        {
          "duration": 0.03488372093023173,
          "durationTicks": 3,
          "midi": 42,
          "name": "F#2",
          "ticks": 2533,
          "time": 29.453488372093023,
          "velocity": 0.2677165354330709
        },
        {
          "duration": 0.03488372093023173,
          "durationTicks": 3,
          "midi": 44,
          "name": "G#2",
          "ticks": 2537,
          "time": 29.5,
          "velocity": 0.2047244094488189
        },
        {
          "duration": 0.06976744186046346,
          "durationTicks": 6,
          "midi": 52,
          "name": "E3",
          "ticks": 2537,
          "time": 29.5,
          "velocity": 0.15748031496062992
        },
        {
          "duration": 0.03488372093023173,
          "durationTicks": 3,
          "midi": 44,
          "name": "G#2",
          "ticks": 2546,
          "time": 29.6046511627907,
          "velocity": 0.15748031496062992
        },
        {
          "duration": 0.05813953488372192,
          "durationTicks": 5,
          "midi": 52,
          "name": "E3",
          "ticks": 2561,
          "time": 29.77906976744186,
          "velocity": 0.13385826771653545
        },
        {
          "duration": 0.034883720930235285,
          "durationTicks": 3,
          "midi": 44,
          "name": "G#2",
          "ticks": 2563,
          "time": 29.802325581395348,
          "velocity": 0.15748031496062992
        },
        {
          "duration": 0.06976744186046702,
          "durationTicks": 6,
          "midi": 52,
          "name": "E3",
          "ticks": 2586,
          "time": 30.069767441860463,
          "velocity": 0.10236220472440945
        },
        {
          "duration": 0.09302325581395365,
          "durationTicks": 8,
          "midi": 57,
          "name": "A3",
          "ticks": 2591,
          "time": 30.127906976744185,
          "velocity": 0.09448818897637795
        },
        {
          "duration": 0.08139534883720856,
          "durationTicks": 7,
          "midi": 45,
          "name": "A2",
          "ticks": 2592,
          "time": 30.13953488372093,
          "velocity": 0.08661417322834646
        },
        {
          "duration": 0.1046511627906952,
          "durationTicks": 9,
          "midi": 60,
          "name": "C4",
          "ticks": 2601,
          "time": 30.24418604651163,
          "velocity": 0.11811023622047244
        },
        {
          "duration": 0.11627906976744384,
          "durationTicks": 10,
          "midi": 57,
          "name": "A3",
          "ticks": 2602,
          "time": 30.25581395348837,
          "velocity": 0.09448818897637795
        },
        {
          "duration": 0.034883720930235285,
          "durationTicks": 3,
          "midi": 44,
          "name": "G#2",
          "ticks": 2606,
          "time": 30.302325581395348,
          "velocity": 0.11023622047244094
        },
        {
          "duration": 0.04651162790697683,
          "durationTicks": 4,
          "midi": 57,
          "name": "A3",
          "ticks": 2613,
          "time": 30.38372093023256,
          "velocity": 0.08661417322834646
        },
        {
          "duration": 0.08139534883720856,
          "durationTicks": 7,
          "midi": 52,
          "name": "E3",
          "ticks": 2616,
          "time": 30.41860465116279,
          "velocity": 0.25196850393700787
        },
        {
          "duration": 0.023255813953486637,
          "durationTicks": 2,
          "midi": 53,
          "name": "F3",
          "ticks": 2640,
          "time": 30.697674418604652,
          "velocity": 0.33070866141732286
        },
        {
          "duration": 1.1046511627906987,
          "durationTicks": 95,
          "midi": 60,
          "name": "C4",
          "ticks": 2641,
          "time": 30.709302325581394,
          "velocity": 0.3858267716535433
        },
        {
          "duration": 0.04651162790697683,
          "durationTicks": 4,
          "midi": 52,
          "name": "E3",
          "ticks": 2642,
          "time": 30.72093023255814,
          "velocity": 0.33070866141732286
        },
        {
          "duration": 0.06976744186046346,
          "durationTicks": 6,
          "midi": 41,
          "name": "F2",
          "ticks": 2643,
          "time": 30.732558139534884,
          "velocity": 0.2755905511811024
        },
        {
          "duration": 0.20930232558139394,
          "durationTicks": 18,
          "midi": 48,
          "name": "C3",
          "ticks": 2651,
          "time": 30.825581395348838,
          "velocity": 0.1889763779527559
        },
        {
          "duration": 0.08139534883720856,
          "durationTicks": 7,
          "midi": 48,
          "name": "C3",
          "ticks": 2677,
          "time": 31.127906976744185,
          "velocity": 0.2125984251968504
        },
        {
          "duration": 0.09302325581395365,
          "durationTicks": 8,
          "midi": 48,
          "name": "C3",
          "ticks": 2689,
          "time": 31.267441860465116,
          "velocity": 0.11811023622047244
        },
        {
          "duration": 0.1046511627906952,
          "durationTicks": 9,
          "midi": 48,
          "name": "C3",
          "ticks": 2702,
          "time": 31.41860465116279,
          "velocity": 0.2047244094488189
        },
        {
          "duration": 0.03488372093023173,
          "durationTicks": 3,
          "midi": 42,
          "name": "F#2",
          "ticks": 2713,
          "time": 31.546511627906977,
          "velocity": 0.12598425196850394
        },
        {
          "duration": 0.09302325581395365,
          "durationTicks": 8,
          "midi": 48,
          "name": "C3",
          "ticks": 2715,
          "time": 31.569767441860463,
          "velocity": 0.07874015748031496
        },
        {
          "duration": 0.03488372093023173,
          "durationTicks": 3,
          "midi": 51,
          "name": "D#3",
          "ticks": 2724,
          "time": 31.674418604651162,
          "velocity": 0.2677165354330709
        },
        {
          "duration": 0.06976744186046702,
          "durationTicks": 6,
          "midi": 52,
          "name": "E3",
          "ticks": 2727,
          "time": 31.709302325581394,
          "velocity": 0.2755905511811024
        },
        {
          "duration": 0.16279069767442422,
          "durationTicks": 14,
          "midi": 60,
          "name": "C4",
          "ticks": 2753,
          "time": 32.01162790697674,
          "velocity": 0.3543307086614173
        },
        {
          "duration": 0.02325581395349019,
          "durationTicks": 2,
          "midi": 52,
          "name": "E3",
          "ticks": 2755,
          "time": 32.03488372093023,
          "velocity": 0.2440944881889764
        },
        {
          "duration": 0.22093023255813904,
          "durationTicks": 19,
          "midi": 47,
          "name": "B2",
          "ticks": 2758,
          "time": 32.06976744186046,
          "velocity": 0.14960629921259844
        },
        {
          "duration": 0.081395348837205,
          "durationTicks": 7,
          "midi": 61,
          "name": "C#4",
          "ticks": 2767,
          "time": 32.174418604651166,
          "velocity": 0.33858267716535434
        },
        {
          "duration": 0.27906976744186096,
          "durationTicks": 24,
          "midi": 62,
          "name": "D4",
          "ticks": 2774,
          "time": 32.25581395348837,
          "velocity": 0.2755905511811024
        },
        {
          "duration": 0.05813953488372192,
          "durationTicks": 5,
          "midi": 47,
          "name": "B2",
          "ticks": 2786,
          "time": 32.395348837209305,
          "velocity": 0.15748031496062992
        },
        {
          "duration": 0.27906976744186096,
          "durationTicks": 24,
          "midi": 55,
          "name": "G3",
          "ticks": 2795,
          "time": 32.5,
          "velocity": 0.10236220472440945
        },
        {
          "duration": 0.03488372093023173,
          "durationTicks": 3,
          "midi": 47,
          "name": "B2",
          "ticks": 2801,
          "time": 32.56976744186046,
          "velocity": 0.08661417322834646
        },
        {
          "duration": 0.09302325581395365,
          "durationTicks": 8,
          "midi": 47,
          "name": "B2",
          "ticks": 2809,
          "time": 32.66279069767442,
          "velocity": 0.10236220472440945
        },
        {
          "duration": 0.2906976744186025,
          "durationTicks": 25,
          "midi": 62,
          "name": "D4",
          "ticks": 2819,
          "time": 32.77906976744186,
          "velocity": 0.15748031496062992
        },
        {
          "duration": 0.13953488372093403,
          "durationTicks": 12,
          "midi": 55,
          "name": "G3",
          "ticks": 2822,
          "time": 32.81395348837209,
          "velocity": 0.07086614173228346
        },
        {
          "duration": 0.8023255813953512,
          "durationTicks": 69,
          "midi": 64,
          "name": "E4",
          "ticks": 2860,
          "time": 33.25581395348837,
          "velocity": 0.14173228346456693
        },
        {
          "duration": 0.4534883720930196,
          "durationTicks": 39,
          "midi": 60,
          "name": "C4",
          "ticks": 2861,
          "time": 33.26744186046512,
          "velocity": 0.1732283464566929
        },
        {
          "duration": 0.06976744186046346,
          "durationTicks": 6,
          "midi": 52,
          "name": "E3",
          "ticks": 2865,
          "time": 33.31395348837209,
          "velocity": 0.11811023622047244
        },
        {
          "duration": 0.02325581395349019,
          "durationTicks": 2,
          "midi": 44,
          "name": "G#2",
          "ticks": 2867,
          "time": 33.33720930232558,
          "velocity": 0.25196850393700787
        },
        {
          "duration": 0.02325581395349019,
          "durationTicks": 2,
          "midi": 44,
          "name": "G#2",
          "ticks": 2871,
          "time": 33.383720930232556,
          "velocity": 0.23622047244094488
        },
        {
          "duration": 0.25581395348837077,
          "durationTicks": 22,
          "midi": 45,
          "name": "A2",
          "ticks": 2879,
          "time": 33.47674418604651,
          "velocity": 0.2047244094488189
        },
        {
          "duration": 0.05813953488372192,
          "durationTicks": 5,
          "midi": 52,
          "name": "E3",
          "ticks": 2889,
          "time": 33.593023255813954,
          "velocity": 0.11811023622047244
        },
        {
          "duration": 0.03488372093023884,
          "durationTicks": 3,
          "midi": 52,
          "name": "E3",
          "ticks": 2901,
          "time": 33.73255813953488,
          "velocity": 0.1889763779527559
        },
        {
          "duration": 0.6744186046511587,
          "durationTicks": 58,
          "midi": 57,
          "name": "A3",
          "ticks": 2902,
          "time": 33.74418604651163,
          "velocity": 0.14960629921259844
        },
        {
          "duration": 0.023255813953483084,
          "durationTicks": 2,
          "midi": 44,
          "name": "G#2",
          "ticks": 2904,
          "time": 33.76744186046512,
          "velocity": 0.23622047244094488
        },
        {
          "duration": 0.03488372093023173,
          "durationTicks": 3,
          "midi": 45,
          "name": "A2",
          "ticks": 2921,
          "time": 33.96511627906977,
          "velocity": 0.16535433070866143
        },
        {
          "duration": 0.03488372093023173,
          "durationTicks": 3,
          "midi": 45,
          "name": "A2",
          "ticks": 2925,
          "time": 34.01162790697674,
          "velocity": 0.1732283464566929
        },
        {
          "duration": 0.08139534883721211,
          "durationTicks": 7,
          "midi": 52,
          "name": "E3",
          "ticks": 2946,
          "time": 34.25581395348837,
          "velocity": 0.1732283464566929
        },
        {
          "duration": 0.08139534883721211,
          "durationTicks": 7,
          "midi": 45,
          "name": "A2",
          "ticks": 2948,
          "time": 34.27906976744186,
          "velocity": 0.14173228346456693
        },
        {
          "duration": 0.046511627906973274,
          "durationTicks": 4,
          "midi": 44,
          "name": "G#2",
          "ticks": 2955,
          "time": 34.36046511627907,
          "velocity": 0.2283464566929134
        },
        {
          "duration": 0.046511627906973274,
          "durationTicks": 4,
          "midi": 52,
          "name": "E3",
          "ticks": 2961,
          "time": 34.43023255813954,
          "velocity": 0.07086614173228346
        },
        {
          "duration": 0.38372093023255616,
          "durationTicks": 33,
          "midi": 57,
          "name": "A3",
          "ticks": 2969,
          "time": 34.52325581395349,
          "velocity": 0.31496062992125984
        },
        {
          "duration": 0.04651162790698038,
          "durationTicks": 4,
          "midi": 41,
          "name": "F2",
          "ticks": 2970,
          "time": 34.53488372093023,
          "velocity": 0.29133858267716534
        },
        {
          "duration": 0.02325581395349019,
          "durationTicks": 2,
          "midi": 52,
          "name": "E3",
          "ticks": 2970,
          "time": 34.53488372093023,
          "velocity": 0.28346456692913385
        },
        {
          "duration": 0.03488372093023173,
          "durationTicks": 3,
          "midi": 42,
          "name": "F#2",
          "ticks": 2974,
          "time": 34.58139534883721,
          "velocity": 0.30708661417322836
        },
        {
          "duration": 0.03488372093023173,
          "durationTicks": 3,
          "midi": 52,
          "name": "E3",
          "ticks": 2977,
          "time": 34.616279069767444,
          "velocity": 0.13385826771653545
        },
        {
          "duration": 0.02325581395349019,
          "durationTicks": 2,
          "midi": 44,
          "name": "G#2",
          "ticks": 2983,
          "time": 34.68604651162791,
          "velocity": 0.2440944881889764
        },
        {
          "duration": 0.081395348837205,
          "durationTicks": 7,
          "midi": 52,
          "name": "E3",
          "ticks": 2998,
          "time": 34.86046511627907,
          "velocity": 0.2204724409448819
        },
        {
          "duration": 0.7325581395348877,
          "durationTicks": 63,
          "midi": 57,
          "name": "A3",
          "ticks": 3003,
          "time": 34.91860465116279,
          "velocity": 0.23622047244094488
        },
        {
          "duration": 0.06976744186046346,
          "durationTicks": 6,
          "midi": 45,
          "name": "A2",
          "ticks": 3004,
          "time": 34.93023255813954,
          "velocity": 0.18110236220472442
        },
        {
          "duration": 0.046511627906973274,
          "durationTicks": 4,
          "midi": 52,
          "name": "E3",
          "ticks": 3012,
          "time": 35.02325581395349,
          "velocity": 0.1889763779527559
        },
        {
          "duration": 0.03488372093023173,
          "durationTicks": 3,
          "midi": 44,
          "name": "G#2",
          "ticks": 3013,
          "time": 35.03488372093023,
          "velocity": 0.2204724409448819
        },
        {
          "duration": 0.06976744186046346,
          "durationTicks": 6,
          "midi": 45,
          "name": "A2",
          "ticks": 3034,
          "time": 35.27906976744186,
          "velocity": 0.14960629921259844
        },
        {
          "duration": 0.03488372093023173,
          "durationTicks": 3,
          "midi": 44,
          "name": "G#2",
          "ticks": 3047,
          "time": 35.43023255813954,
          "velocity": 0.16535433070866143
        },
        {
          "duration": 0.09302325581395365,
          "durationTicks": 8,
          "midi": 52,
          "name": "E3",
          "ticks": 3055,
          "time": 35.52325581395349,
          "velocity": 0.23622047244094488
        },
        {
          "duration": 0.06976744186046346,
          "durationTicks": 6,
          "midi": 45,
          "name": "A2",
          "ticks": 3061,
          "time": 35.593023255813954,
          "velocity": 0.11811023622047244
        },
        {
          "duration": 0.03488372093023173,
          "durationTicks": 3,
          "midi": 51,
          "name": "D#3",
          "ticks": 3080,
          "time": 35.81395348837209,
          "velocity": 0.2125984251968504
        },
        {
          "duration": 0.03488372093023173,
          "durationTicks": 3,
          "midi": 60,
          "name": "C4",
          "ticks": 3080,
          "time": 35.81395348837209,
          "velocity": 0.15748031496062992
        },
        {
          "duration": 0.03488372093023173,
          "durationTicks": 3,
          "midi": 52,
          "name": "E3",
          "ticks": 3083,
          "time": 35.848837209302324,
          "velocity": 0.2677165354330709
        },
        {
          "duration": 0.3139534883720927,
          "durationTicks": 27,
          "midi": 67,
          "name": "G4",
          "ticks": 3084,
          "time": 35.86046511627907,
          "velocity": 0.23622047244094488
        },
        {
          "duration": 0.046511627906973274,
          "durationTicks": 4,
          "midi": 42,
          "name": "F#2",
          "ticks": 3085,
          "time": 35.872093023255815,
          "velocity": 0.3937007874015748
        },
        {
          "duration": 0.03488372093023173,
          "durationTicks": 3,
          "midi": 59,
          "name": "B3",
          "ticks": 3085,
          "time": 35.872093023255815,
          "velocity": 0.2204724409448819
        },
        {
          "duration": 0.04651162790698038,
          "durationTicks": 4,
          "midi": 59,
          "name": "B3",
          "ticks": 3089,
          "time": 35.91860465116279,
          "velocity": 0.2204724409448819
        },
        {
          "duration": 0.06976744186046346,
          "durationTicks": 6,
          "midi": 42,
          "name": "F#2",
          "ticks": 3092,
          "time": 35.95348837209303,
          "velocity": 0.3228346456692913
        },
        {
          "duration": 0.05813953488372192,
          "durationTicks": 5,
          "midi": 59,
          "name": "B3",
          "ticks": 3094,
          "time": 35.97674418604651,
          "velocity": 0.2125984251968504
        },
        {
          "duration": 0.023255813953483084,
          "durationTicks": 2,
          "midi": 43,
          "name": "G2",
          "ticks": 3098,
          "time": 36.02325581395349,
          "velocity": 0.25196850393700787
        },
        {
          "duration": 0.05813953488372192,
          "durationTicks": 5,
          "midi": 59,
          "name": "B3",
          "ticks": 3100,
          "time": 36.04651162790697,
          "velocity": 0.1889763779527559
        },
        {
          "duration": 0.02325581395349019,
          "durationTicks": 2,
          "midi": 43,
          "name": "G2",
          "ticks": 3102,
          "time": 36.06976744186046,
          "velocity": 0.2677165354330709
        },
        {
          "duration": 0.02325581395349019,
          "durationTicks": 2,
          "midi": 42,
          "name": "F#2",
          "ticks": 3104,
          "time": 36.093023255813954,
          "velocity": 0.29133858267716534
        },
        {
          "duration": 0.046511627906973274,
          "durationTicks": 4,
          "midi": 43,
          "name": "G2",
          "ticks": 3106,
          "time": 36.116279069767444,
          "velocity": 0.25196850393700787
        },
        {
          "duration": 0.05813953488372192,
          "durationTicks": 5,
          "midi": 59,
          "name": "B3",
          "ticks": 3106,
          "time": 36.116279069767444,
          "velocity": 0.18110236220472442
        },
        {
          "duration": 0.1046511627907023,
          "durationTicks": 9,
          "midi": 52,
          "name": "E3",
          "ticks": 3110,
          "time": 36.16279069767442,
          "velocity": 0.2755905511811024
        },
        {
          "duration": 0.12790697674418539,
          "durationTicks": 11,
          "midi": 43,
          "name": "G2",
          "ticks": 3111,
          "time": 36.174418604651166,
          "velocity": 0.2677165354330709
        },
        {
          "duration": 0.05813953488372192,
          "durationTicks": 5,
          "midi": 59,
          "name": "B3",
          "ticks": 3117,
          "time": 36.24418604651163,
          "velocity": 0.12598425196850394
        },
        {
          "duration": 0.04651162790698038,
          "durationTicks": 4,
          "midi": 42,
          "name": "F#2",
          "ticks": 3124,
          "time": 36.325581395348834,
          "velocity": 0.28346456692913385
        },
        {
          "duration": 0.03488372093023173,
          "durationTicks": 3,
          "midi": 57,
          "name": "A3",
          "ticks": 3126,
          "time": 36.348837209302324,
          "velocity": 0.2204724409448819
        },
        {
          "duration": 0.4418604651162781,
          "durationTicks": 38,
          "midi": 67,
          "name": "G4",
          "ticks": 3127,
          "time": 36.36046511627907,
          "velocity": 0.2440944881889764
        },
        {
          "duration": 0.02325581395349019,
          "durationTicks": 2,
          "midi": 43,
          "name": "G2",
          "ticks": 3128,
          "time": 36.372093023255815,
          "velocity": 0.23622047244094488
        },
        {
          "duration": 0.03488372093023173,
          "durationTicks": 3,
          "midi": 57,
          "name": "A3",
          "ticks": 3133,
          "time": 36.43023255813954,
          "velocity": 0.1732283464566929
        },
        {
          "duration": 0.16279069767441712,
          "durationTicks": 14,
          "midi": 43,
          "name": "G2",
          "ticks": 3134,
          "time": 36.44186046511628,
          "velocity": 0.2440944881889764
        },
        {
          "duration": 0.3604651162790731,
          "durationTicks": 31,
          "midi": 57,
          "name": "A3",
          "ticks": 3137,
          "time": 36.47674418604651,
          "velocity": 0.18110236220472442
        },
        {
          "duration": 0.02325581395349019,
          "durationTicks": 2,
          "midi": 44,
          "name": "G#2",
          "ticks": 3148,
          "time": 36.604651162790695,
          "velocity": 0.2440944881889764
        },
        {
          "duration": 0.03488372093023173,
          "durationTicks": 3,
          "midi": 52,
          "name": "E3",
          "ticks": 3150,
          "time": 36.627906976744185,
          "velocity": 0.18110236220472442
        },
        {
          "duration": 0.04651162790698038,
          "durationTicks": 4,
          "midi": 42,
          "name": "F#2",
          "ticks": 3151,
          "time": 36.63953488372093,
          "velocity": 0.25984251968503935
        },
        {
          "duration": 0.03488372093023173,
          "durationTicks": 3,
          "midi": 43,
          "name": "G2",
          "ticks": 3161,
          "time": 36.75581395348837,
          "velocity": 0.1968503937007874
        },
        {
          "duration": 0.023255813953483084,
          "durationTicks": 2,
          "midi": 51,
          "name": "D#3",
          "ticks": 3165,
          "time": 36.80232558139535,
          "velocity": 0.2440944881889764
        },
        {
          "duration": 0.02325581395349019,
          "durationTicks": 2,
          "midi": 44,
          "name": "G#2",
          "ticks": 3166,
          "time": 36.81395348837209,
          "velocity": 0.2283464566929134
        },
        {
          "duration": 0.03488372093023884,
          "durationTicks": 3,
          "midi": 52,
          "name": "E3",
          "ticks": 3167,
          "time": 36.825581395348834,
          "velocity": 0.2440944881889764
        },
        {
          "duration": 0.03488372093023173,
          "durationTicks": 3,
          "midi": 43,
          "name": "G2",
          "ticks": 3168,
          "time": 36.83720930232558,
          "velocity": 0.1889763779527559
        },
        {
          "duration": 0.03488372093023173,
          "durationTicks": 3,
          "midi": 51,
          "name": "D#3",
          "ticks": 3170,
          "time": 36.86046511627907,
          "velocity": 0.11023622047244094
        },
        {
          "duration": 0.03488372093023173,
          "durationTicks": 3,
          "midi": 41,
          "name": "F2",
          "ticks": 3173,
          "time": 36.895348837209305,
          "velocity": 0.2204724409448819
        },
        {
          "duration": 0.04651162790698038,
          "durationTicks": 4,
          "midi": 52,
          "name": "E3",
          "ticks": 3174,
          "time": 36.906976744186046,
          "velocity": 0.13385826771653545
        },
        {
          "duration": 0.05813953488372192,
          "durationTicks": 5,
          "midi": 42,
          "name": "F#2",
          "ticks": 3176,
          "time": 36.93023255813954,
          "velocity": 0.2204724409448819
        },
        {
          "duration": 0.06976744186046346,
          "durationTicks": 6,
          "midi": 41,
          "name": "F2",
          "ticks": 3181,
          "time": 36.98837209302326,
          "velocity": 0.15748031496062992
        },
        {
          "duration": 0.023255813953483084,
          "durationTicks": 2,
          "midi": 42,
          "name": "F#2",
          "ticks": 3192,
          "time": 37.116279069767444,
          "velocity": 0.30708661417322836
        },
        {
          "duration": 0.023255813953483084,
          "durationTicks": 2,
          "midi": 52,
          "name": "E3",
          "ticks": 3192,
          "time": 37.116279069767444,
          "velocity": 0.2440944881889764
        },
        {
          "duration": 0.15116279069767558,
          "durationTicks": 13,
          "midi": 62,
          "name": "D4",
          "ticks": 3192,
          "time": 37.116279069767444,
          "velocity": 0.11023622047244094
        },
        {
          "duration": 0.23255813953488058,
          "durationTicks": 20,
          "midi": 67,
          "name": "G4",
          "ticks": 3192,
          "time": 37.116279069767444,
          "velocity": 0.2440944881889764
        },
        {
          "duration": 0.03488372093023884,
          "durationTicks": 3,
          "midi": 41,
          "name": "F2",
          "ticks": 3194,
          "time": 37.13953488372093,
          "velocity": 0.28346456692913385
        },
        {
          "duration": 0.03488372093023173,
          "durationTicks": 3,
          "midi": 51,
          "name": "D#3",
          "ticks": 3199,
          "time": 37.19767441860465,
          "velocity": 0.1732283464566929
        },
        {
          "duration": 0.03488372093023173,
          "durationTicks": 3,
          "midi": 41,
          "name": "F2",
          "ticks": 3201,
          "time": 37.22093023255814,
          "velocity": 0.1889763779527559
        },
        {
          "duration": 0.03488372093023173,
          "durationTicks": 3,
          "midi": 51,
          "name": "D#3",
          "ticks": 3204,
          "time": 37.25581395348837,
          "velocity": 0.11023622047244094
        },
        {
          "duration": 0.04651162790698038,
          "durationTicks": 4,
          "midi": 41,
          "name": "F2",
          "ticks": 3209,
          "time": 37.31395348837209,
          "velocity": 0.11023622047244094
        },
        {
          "duration": 0.046511627906973274,
          "durationTicks": 4,
          "midi": 42,
          "name": "F#2",
          "ticks": 3213,
          "time": 37.36046511627907,
          "velocity": 0.08661417322834646
        },
        {
          "duration": 0.02325581395349019,
          "durationTicks": 2,
          "midi": 51,
          "name": "D#3",
          "ticks": 3219,
          "time": 37.43023255813954,
          "velocity": 0.2283464566929134
        },
        {
          "duration": 0.058139534883714816,
          "durationTicks": 5,
          "midi": 50,
          "name": "D3",
          "ticks": 3224,
          "time": 37.48837209302326,
          "velocity": 0.11811023622047244
        },
        {
          "duration": 0.02325581395349019,
          "durationTicks": 2,
          "midi": 53,
          "name": "F3",
          "ticks": 3230,
          "time": 37.55813953488372,
          "velocity": 0.23622047244094488
        },
        {
          "duration": 0.6279069767441854,
          "durationTicks": 54,
          "midi": 57,
          "name": "A3",
          "ticks": 3231,
          "time": 37.56976744186046,
          "velocity": 0.1968503937007874
        },
        {
          "duration": 0.03488372093023173,
          "durationTicks": 3,
          "midi": 51,
          "name": "D#3",
          "ticks": 3233,
          "time": 37.593023255813954,
          "velocity": 0.1968503937007874
        },
        {
          "duration": 0.2674418604651194,
          "durationTicks": 23,
          "midi": 64,
          "name": "E4",
          "ticks": 3236,
          "time": 37.627906976744185,
          "velocity": 0.1889763779527559
        },
        {
          "duration": 0.03488372093023884,
          "durationTicks": 3,
          "midi": 42,
          "name": "F#2",
          "ticks": 3237,
          "time": 37.63953488372093,
          "velocity": 0.1732283464566929
        },
        {
          "duration": 0.34883720930233153,
          "durationTicks": 30,
          "midi": 83,
          "name": "B5",
          "ticks": 3237,
          "time": 37.63953488372093,
          "velocity": 0.10236220472440945
        },
        {
          "duration": 0.046511627906973274,
          "durationTicks": 4,
          "midi": 51,
          "name": "D#3",
          "ticks": 3238,
          "time": 37.651162790697676,
          "velocity": 0.14960629921259844
        },
        {
          "duration": 0.046511627906973274,
          "durationTicks": 4,
          "midi": 41,
          "name": "F2",
          "ticks": 3240,
          "time": 37.674418604651166,
          "velocity": 0.07874015748031496
        },
        {
          "duration": 0.03488372093023173,
          "durationTicks": 3,
          "midi": 50,
          "name": "D3",
          "ticks": 3247,
          "time": 37.75581395348837,
          "velocity": 0.08661417322834646
        },
        {
          "duration": 0.17441860465116577,
          "durationTicks": 15,
          "midi": 62,
          "name": "D4",
          "ticks": 3260,
          "time": 37.906976744186046,
          "velocity": 0.1968503937007874
        },
        {
          "duration": 0.03488372093023884,
          "durationTicks": 3,
          "midi": 41,
          "name": "F2",
          "ticks": 3261,
          "time": 37.91860465116279,
          "velocity": 0.18110236220472442
        },
        {
          "duration": 0.023255813953483084,
          "durationTicks": 2,
          "midi": 51,
          "name": "D#3",
          "ticks": 3275,
          "time": 38.08139534883721,
          "velocity": 0.25984251968503935
        },
        {
          "duration": 0.2674418604651194,
          "durationTicks": 23,
          "midi": 62,
          "name": "D4",
          "ticks": 3276,
          "time": 38.093023255813954,
          "velocity": 0.14960629921259844
        },
        {
          "duration": 0.03488372093023173,
          "durationTicks": 3,
          "midi": 41,
          "name": "F2",
          "ticks": 3277,
          "time": 38.104651162790695,
          "velocity": 0.14960629921259844
        },
        {
          "duration": 0.046511627906973274,
          "durationTicks": 4,
          "midi": 50,
          "name": "D3",
          "ticks": 3281,
          "time": 38.151162790697676,
          "velocity": 0.09448818897637795
        },
        {
          "duration": 0.08139534883721211,
          "durationTicks": 7,
          "midi": 57,
          "name": "A3",
          "ticks": 3288,
          "time": 38.23255813953488,
          "velocity": 0.08661417322834646
        },
        {
          "duration": 0.046511627906973274,
          "durationTicks": 4,
          "midi": 52,
          "name": "E3",
          "ticks": 3299,
          "time": 38.36046511627907,
          "velocity": 0.29133858267716534
        },
        {
          "duration": 0.02325581395349019,
          "durationTicks": 2,
          "midi": 45,
          "name": "A2",
          "ticks": 3300,
          "time": 38.372093023255815,
          "velocity": 0.28346456692913385
        },
        {
          "duration": 0.19767441860465595,
          "durationTicks": 17,
          "midi": 62,
          "name": "D4",
          "ticks": 3301,
          "time": 38.383720930232556,
          "velocity": 0.31496062992125984
        },
        {
          "duration": 0.023255813953483084,
          "durationTicks": 2,
          "midi": 44,
          "name": "G#2",
          "ticks": 3302,
          "time": 38.395348837209305,
          "velocity": 0.25984251968503935
        },
        {
          "duration": 0.04651162790698038,
          "durationTicks": 4,
          "midi": 57,
          "name": "A3",
          "ticks": 3315,
          "time": 38.54651162790697,
          "velocity": 0.18110236220472442
        },
        {
          "duration": 0.03488372093023173,
          "durationTicks": 3,
          "midi": 52,
          "name": "E3",
          "ticks": 3317,
          "time": 38.56976744186046,
          "velocity": 0.1968503937007874
        },
        {
          "duration": 0.5,
          "durationTicks": 43,
          "midi": 64,
          "name": "E4",
          "ticks": 3317,
          "time": 38.56976744186046,
          "velocity": 0.2125984251968504
        },
        {
          "duration": 0.2674418604651194,
          "durationTicks": 23,
          "midi": 83,
          "name": "B5",
          "ticks": 3317,
          "time": 38.56976744186046,
          "velocity": 0.15748031496062992
        },
        {
          "duration": 0.02325581395349019,
          "durationTicks": 2,
          "midi": 44,
          "name": "G#2",
          "ticks": 3319,
          "time": 38.593023255813954,
          "velocity": 0.2677165354330709
        },
        {
          "duration": 0.02325581395349019,
          "durationTicks": 2,
          "midi": 44,
          "name": "G#2",
          "ticks": 3323,
          "time": 38.63953488372093,
          "velocity": 0.23622047244094488
        },
        {
          "duration": 0.08139534883721211,
          "durationTicks": 7,
          "midi": 52,
          "name": "E3",
          "ticks": 3331,
          "time": 38.73255813953488,
          "velocity": 0.2283464566929134
        },
        {
          "duration": 0.03488372093023173,
          "durationTicks": 3,
          "midi": 45,
          "name": "A2",
          "ticks": 3337,
          "time": 38.80232558139535,
          "velocity": 0.1732283464566929
        },
        {
          "duration": 0.03488372093023173,
          "durationTicks": 3,
          "midi": 52,
          "name": "E3",
          "ticks": 3340,
          "time": 38.83720930232558,
          "velocity": 0.2283464566929134
        },
        {
          "duration": 0.5465116279069733,
          "durationTicks": 47,
          "midi": 57,
          "name": "A3",
          "ticks": 3343,
          "time": 38.872093023255815,
          "velocity": 0.16535433070866143
        },
        {
          "duration": 0.02325581395349019,
          "durationTicks": 2,
          "midi": 44,
          "name": "G#2",
          "ticks": 3344,
          "time": 38.883720930232556,
          "velocity": 0.25984251968503935
        },
        {
          "duration": 0.08139534883721211,
          "durationTicks": 7,
          "midi": 52,
          "name": "E3",
          "ticks": 3349,
          "time": 38.94186046511628,
          "velocity": 0.13385826771653545
        },
        {
          "duration": 0.22093023255813904,
          "durationTicks": 19,
          "midi": 45,
          "name": "A2",
          "ticks": 3350,
          "time": 38.95348837209303,
          "velocity": 0.18110236220472442
        },
        {
          "duration": 0.08139534883721211,
          "durationTicks": 7,
          "midi": 52,
          "name": "E3",
          "ticks": 3387,
          "time": 39.383720930232556,
          "velocity": 0.1889763779527559
        },
        {
          "duration": 0.09302325581395365,
          "durationTicks": 8,
          "midi": 45,
          "name": "A2",
          "ticks": 3389,
          "time": 39.406976744186046,
          "velocity": 0.14960629921259844
        },
        {
          "duration": 0.03488372093023173,
          "durationTicks": 3,
          "midi": 52,
          "name": "E3",
          "ticks": 3397,
          "time": 39.5,
          "velocity": 0.14960629921259844
        },
        {
          "duration": 0.046511627906973274,
          "durationTicks": 4,
          "midi": 42,
          "name": "F#2",
          "ticks": 3412,
          "time": 39.674418604651166,
          "velocity": 0.30708661417322836
        },
        {
          "duration": 0.3372093023255758,
          "durationTicks": 29,
          "midi": 60,
          "name": "C4",
          "ticks": 3412,
          "time": 39.674418604651166,
          "velocity": 0.14960629921259844
        },
        {
          "duration": 0.03488372093023173,
          "durationTicks": 3,
          "midi": 42,
          "name": "F#2",
          "ticks": 3418,
          "time": 39.74418604651163,
          "velocity": 0.23622047244094488
        },
        {
          "duration": 0.03488372093023173,
          "durationTicks": 3,
          "midi": 44,
          "name": "G#2",
          "ticks": 3431,
          "time": 39.895348837209305,
          "velocity": 0.15748031496062992
        },
        {
          "duration": 0.06976744186047057,
          "durationTicks": 6,
          "midi": 52,
          "name": "E3",
          "ticks": 3441,
          "time": 40.01162790697674,
          "velocity": 0.14960629921259844
        },
        {
          "duration": 0.5348837209302317,
          "durationTicks": 46,
          "midi": 57,
          "name": "A3",
          "ticks": 3454,
          "time": 40.16279069767442,
          "velocity": 0.11811023622047244
        },
        {
          "duration": 0.081395348837205,
          "durationTicks": 7,
          "midi": 45,
          "name": "A2",
          "ticks": 3461,
          "time": 40.24418604651163,
          "velocity": 0.13385826771653545
        },
        {
          "duration": 0.05813953488372192,
          "durationTicks": 5,
          "midi": 52,
          "name": "E3",
          "ticks": 3468,
          "time": 40.325581395348834,
          "velocity": 0.18110236220472442
        },
        {
          "duration": 0.03488372093023173,
          "durationTicks": 3,
          "midi": 44,
          "name": "G#2",
          "ticks": 3486,
          "time": 40.53488372093023,
          "velocity": 0.14173228346456693
        },
        {
          "duration": 0.058139534883714816,
          "durationTicks": 5,
          "midi": 52,
          "name": "E3",
          "ticks": 3490,
          "time": 40.58139534883721,
          "velocity": 0.2047244094488189
        },
        {
          "duration": 0.03488372093023884,
          "durationTicks": 3,
          "midi": 42,
          "name": "F#2",
          "ticks": 3495,
          "time": 40.63953488372093,
          "velocity": 0.2047244094488189
        },
        {
          "duration": 0.04651162790698038,
          "durationTicks": 4,
          "midi": 51,
          "name": "D#3",
          "ticks": 3495,
          "time": 40.63953488372093,
          "velocity": 0.2204724409448819
        },
        {
          "duration": 0.03488372093023173,
          "durationTicks": 3,
          "midi": 51,
          "name": "D#3",
          "ticks": 3506,
          "time": 40.76744186046512,
          "velocity": 0.12598425196850394
        },
        {
          "duration": 0.16279069767441712,
          "durationTicks": 14,
          "midi": 42,
          "name": "F#2",
          "ticks": 3520,
          "time": 40.93023255813954,
          "velocity": 0.4015748031496063
        },
        {
          "duration": 0.03488372093023173,
          "durationTicks": 3,
          "midi": 43,
          "name": "G2",
          "ticks": 3534,
          "time": 41.093023255813954,
          "velocity": 0.1968503937007874
        },
        {
          "duration": 0.3488372093023244,
          "durationTicks": 30,
          "midi": 42,
          "name": "F#2",
          "ticks": 3537,
          "time": 41.127906976744185,
          "velocity": 0.30708661417322836
        },
        {
          "duration": 0.02325581395349019,
          "durationTicks": 2,
          "midi": 61,
          "name": "C#4",
          "ticks": 3562,
          "time": 41.41860465116279,
          "velocity": 0.28346456692913385
        },
        {
          "duration": 0.02325581395349019,
          "durationTicks": 2,
          "midi": 52,
          "name": "E3",
          "ticks": 3563,
          "time": 41.43023255813954,
          "velocity": 0.2755905511811024
        },
        {
          "duration": 0.2325581395348877,
          "durationTicks": 20,
          "midi": 57,
          "name": "A3",
          "ticks": 3564,
          "time": 41.44186046511628,
          "velocity": 0.09448818897637795
        },
        {
          "duration": 0.2906976744186025,
          "durationTicks": 25,
          "midi": 62,
          "name": "D4",
          "ticks": 3564,
          "time": 41.44186046511628,
          "velocity": 0.30708661417322836
        },
        {
          "duration": 0.22093023255813904,
          "durationTicks": 19,
          "midi": 42,
          "name": "F#2",
          "ticks": 3570,
          "time": 41.51162790697674,
          "velocity": 0.2125984251968504
        },
        {
          "duration": 0.3139534883720927,
          "durationTicks": 27,
          "midi": 62,
          "name": "D4",
          "ticks": 3593,
          "time": 41.77906976744186,
          "velocity": 0.11023622047244094
        },
        {
          "duration": 0.05813953488372192,
          "durationTicks": 5,
          "midi": 42,
          "name": "F#2",
          "ticks": 3596,
          "time": 41.81395348837209,
          "velocity": 0.16535433070866143
        },
        {
          "duration": 0.03488372093023173,
          "durationTicks": 3,
          "midi": 41,
          "name": "F2",
          "ticks": 3601,
          "time": 41.872093023255815,
          "velocity": 0.15748031496062992
        },
        {
          "duration": 0.15116279069766847,
          "durationTicks": 13,
          "midi": 50,
          "name": "D3",
          "ticks": 3603,
          "time": 41.895348837209305,
          "velocity": 0.14960629921259844
        },
        {
          "duration": 0.081395348837205,
          "durationTicks": 7,
          "midi": 42,
          "name": "F#2",
          "ticks": 3617,
          "time": 42.05813953488372,
          "velocity": 0.1732283464566929
        },
        {
          "duration": 0.16279069767441712,
          "durationTicks": 14,
          "midi": 57,
          "name": "A3",
          "ticks": 3617,
          "time": 42.05813953488372,
          "velocity": 0.12598425196850394
        },
        {
          "duration": 0.03488372093023173,
          "durationTicks": 3,
          "midi": 41,
          "name": "F2",
          "ticks": 3631,
          "time": 42.22093023255814,
          "velocity": 0.4094488188976378
        },
        {
          "duration": 0.081395348837205,
          "durationTicks": 7,
          "midi": 54,
          "name": "F#3",
          "ticks": 3633,
          "time": 42.24418604651163,
          "velocity": 0.2047244094488189
        },
        {
          "duration": 0.12790697674418539,
          "durationTicks": 11,
          "midi": 42,
          "name": "F#2",
          "ticks": 3634,
          "time": 42.25581395348837,
          "velocity": 0.4330708661417323
        },
        {
          "duration": 0.27906976744186096,
          "durationTicks": 24,
          "midi": 43,
          "name": "G2",
          "ticks": 3648,
          "time": 42.41860465116279,
          "velocity": 0.25984251968503935
        },
        {
          "duration": 0.02325581395349019,
          "durationTicks": 2,
          "midi": 44,
          "name": "G#2",
          "ticks": 3672,
          "time": 42.69767441860465,
          "velocity": 0.25984251968503935
        },
        {
          "duration": 0.11627906976744384,
          "durationTicks": 10,
          "midi": 43,
          "name": "G2",
          "ticks": 3674,
          "time": 42.72093023255814,
          "velocity": 0.2440944881889764
        },
        {
          "duration": 0.046511627906973274,
          "durationTicks": 4,
          "midi": 52,
          "name": "E3",
          "ticks": 3684,
          "time": 42.83720930232558,
          "velocity": 0.2204724409448819
        },
        {
          "duration": 0.22093023255813904,
          "durationTicks": 19,
          "midi": 60,
          "name": "C4",
          "ticks": 3684,
          "time": 42.83720930232558,
          "velocity": 0.31496062992125984
        },
        {
          "duration": 0.023255813953483084,
          "durationTicks": 2,
          "midi": 42,
          "name": "F#2",
          "ticks": 3686,
          "time": 42.86046511627907,
          "velocity": 0.2440944881889764
        },
        {
          "duration": 0.11627906976744384,
          "durationTicks": 10,
          "midi": 43,
          "name": "G2",
          "ticks": 3688,
          "time": 42.883720930232556,
          "velocity": 0.2204724409448819
        },
        {
          "duration": 0.046511627906973274,
          "durationTicks": 4,
          "midi": 42,
          "name": "F#2",
          "ticks": 3698,
          "time": 43,
          "velocity": 0.2677165354330709
        },
        {
          "duration": 0.02325581395349019,
          "durationTicks": 2,
          "midi": 60,
          "name": "C4",
          "ticks": 3704,
          "time": 43.06976744186046,
          "velocity": 0.2283464566929134
        },
        {
          "duration": 0.06976744186047057,
          "durationTicks": 6,
          "midi": 60,
          "name": "C4",
          "ticks": 3707,
          "time": 43.104651162790695,
          "velocity": 0.23622047244094488
        },
        {
          "duration": 0.03488372093023173,
          "durationTicks": 3,
          "midi": 43,
          "name": "G2",
          "ticks": 3709,
          "time": 43.127906976744185,
          "velocity": 0.1889763779527559
        },
        {
          "duration": 0.36046511627906597,
          "durationTicks": 31,
          "midi": 59,
          "name": "B3",
          "ticks": 3713,
          "time": 43.174418604651166,
          "velocity": 0.2204724409448819
        },
        {
          "duration": 0.046511627906973274,
          "durationTicks": 4,
          "midi": 50,
          "name": "D3",
          "ticks": 3714,
          "time": 43.18604651162791,
          "velocity": 0.11811023622047244
        },
        {
          "duration": 0.06976744186046346,
          "durationTicks": 6,
          "midi": 43,
          "name": "G2",
          "ticks": 3719,
          "time": 43.24418604651163,
          "velocity": 0.1968503937007874
        },
        {
          "duration": 0.03488372093023173,
          "durationTicks": 3,
          "midi": 41,
          "name": "F2",
          "ticks": 3727,
          "time": 43.33720930232558,
          "velocity": 0.1889763779527559
        },
        {
          "duration": 0.046511627906973274,
          "durationTicks": 4,
          "midi": 52,
          "name": "E3",
          "ticks": 3727,
          "time": 43.33720930232558,
          "velocity": 0.15748031496062992
        },
        {
          "duration": 0.046511627906973274,
          "durationTicks": 4,
          "midi": 42,
          "name": "F#2",
          "ticks": 3730,
          "time": 43.372093023255815,
          "velocity": 0.07874015748031496
        },
        {
          "duration": 0.05813953488372192,
          "durationTicks": 5,
          "midi": 41,
          "name": "F2",
          "ticks": 3734,
          "time": 43.41860465116279,
          "velocity": 0.11811023622047244
        },
        {
          "duration": 0.02325581395349019,
          "durationTicks": 2,
          "midi": 44,
          "name": "G#2",
          "ticks": 3746,
          "time": 43.55813953488372,
          "velocity": 0.28346456692913385
        },
        {
          "duration": 0.06976744186046346,
          "durationTicks": 6,
          "midi": 59,
          "name": "B3",
          "ticks": 3748,
          "time": 43.58139534883721,
          "velocity": 0.23622047244094488
        },
        {
          "duration": 0.023255813953483084,
          "durationTicks": 2,
          "midi": 44,
          "name": "G#2",
          "ticks": 3751,
          "time": 43.616279069767444,
          "velocity": 0.25196850393700787
        },
        {
          "duration": 0.046511627906973274,
          "durationTicks": 4,
          "midi": 45,
          "name": "A2",
          "ticks": 3765,
          "time": 43.77906976744186,
          "velocity": 0.2283464566929134
        },
        {
          "duration": 0.06976744186046346,
          "durationTicks": 6,
          "midi": 52,
          "name": "E3",
          "ticks": 3770,
          "time": 43.83720930232558,
          "velocity": 0.12598425196850394
        },
        {
          "duration": 0.06976744186046346,
          "durationTicks": 6,
          "midi": 45,
          "name": "A2",
          "ticks": 3776,
          "time": 43.906976744186046,
          "velocity": 0.25984251968503935
        },
        {
          "duration": 0.02325581395349019,
          "durationTicks": 2,
          "midi": 44,
          "name": "G#2",
          "ticks": 3782,
          "time": 43.97674418604651,
          "velocity": 0.31496062992125984
        },
        {
          "duration": 0.6162790697674367,
          "durationTicks": 53,
          "midi": 57,
          "name": "A3",
          "ticks": 3783,
          "time": 43.98837209302326,
          "velocity": 0.3464566929133858
        },
        {
          "duration": 0.023255813953483084,
          "durationTicks": 2,
          "midi": 44,
          "name": "G#2",
          "ticks": 3786,
          "time": 44.02325581395349,
          "velocity": 0.23622047244094488
        },
        {
          "duration": 0.023255813953483084,
          "durationTicks": 2,
          "midi": 44,
          "name": "G#2",
          "ticks": 3791,
          "time": 44.08139534883721,
          "velocity": 0.2283464566929134
        },
        {
          "duration": 0.046511627906973274,
          "durationTicks": 4,
          "midi": 45,
          "name": "A2",
          "ticks": 3805,
          "time": 44.24418604651163,
          "velocity": 0.1732283464566929
        },
        {
          "duration": 0.02325581395349019,
          "durationTicks": 2,
          "midi": 44,
          "name": "G#2",
          "ticks": 3813,
          "time": 44.33720930232558,
          "velocity": 0.25196850393700787
        },
        {
          "duration": 0.03488372093023173,
          "durationTicks": 3,
          "midi": 45,
          "name": "A2",
          "ticks": 3825,
          "time": 44.47674418604651,
          "velocity": 0.1889763779527559
        },
        {
          "duration": 0.081395348837205,
          "durationTicks": 7,
          "midi": 52,
          "name": "E3",
          "ticks": 3826,
          "time": 44.48837209302326,
          "velocity": 0.2204724409448819
        },
        {
          "duration": 0.05813953488372192,
          "durationTicks": 5,
          "midi": 45,
          "name": "A2",
          "ticks": 3835,
          "time": 44.593023255813954,
          "velocity": 0.18110236220472442
        },
        {
          "duration": 0.3488372093023244,
          "durationTicks": 30,
          "midi": 57,
          "name": "A3",
          "ticks": 3838,
          "time": 44.627906976744185,
          "velocity": 0.25984251968503935
        },
        {
          "duration": 0.12790697674418539,
          "durationTicks": 11,
          "midi": 45,
          "name": "A2",
          "ticks": 3841,
          "time": 44.66279069767442,
          "velocity": 0.16535433070866143
        },
        {
          "duration": 0.08139534883721211,
          "durationTicks": 7,
          "midi": 42,
          "name": "F#2",
          "ticks": 3852,
          "time": 44.7906976744186,
          "velocity": 0.4015748031496063
        },
        {
          "duration": 0.02325581395349019,
          "durationTicks": 2,
          "midi": 44,
          "name": "G#2",
          "ticks": 3860,
          "time": 44.883720930232556,
          "velocity": 0.2283464566929134
        },
        {
          "duration": 0.03488372093023884,
          "durationTicks": 3,
          "midi": 42,
          "name": "F#2",
          "ticks": 3863,
          "time": 44.91860465116279,
          "velocity": 0.33858267716535434
        },
        {
          "duration": 0.03488372093023173,
          "durationTicks": 3,
          "midi": 43,
          "name": "G2",
          "ticks": 3866,
          "time": 44.95348837209303,
          "velocity": 0.30708661417322836
        },
        {
          "duration": 0.06976744186046346,
          "durationTicks": 6,
          "midi": 57,
          "name": "A3",
          "ticks": 3869,
          "time": 44.98837209302326,
          "velocity": 0.18110236220472442
        },
        {
          "duration": 0.25581395348837077,
          "durationTicks": 22,
          "midi": 43,
          "name": "G2",
          "ticks": 3870,
          "time": 45,
          "velocity": 0.2992125984251969
        },
        {
          "duration": 0.08139534883721211,
          "durationTicks": 7,
          "midi": 52,
          "name": "E3",
          "ticks": 3879,
          "time": 45.104651162790695,
          "velocity": 0.2204724409448819
        },
        {
          "duration": 0.3372093023255829,
          "durationTicks": 29,
          "midi": 57,
          "name": "A3",
          "ticks": 3890,
          "time": 45.23255813953488,
          "velocity": 0.2440944881889764
        },
        {
          "duration": 0.03488372093023173,
          "durationTicks": 3,
          "midi": 42,
          "name": "F#2",
          "ticks": 3894,
          "time": 45.27906976744186,
          "velocity": 0.2992125984251969
        },
        {
          "duration": 0.2325581395348877,
          "durationTicks": 20,
          "midi": 43,
          "name": "G2",
          "ticks": 3900,
          "time": 45.348837209302324,
          "velocity": 0.2755905511811024
        },
        {
          "duration": 0.1860465116279073,
          "durationTicks": 16,
          "midi": 57,
          "name": "A3",
          "ticks": 3921,
          "time": 45.593023255813954,
          "velocity": 0.15748031496062992
        },
        {
          "duration": 0.09302325581395365,
          "durationTicks": 8,
          "midi": 43,
          "name": "G2",
          "ticks": 3925,
          "time": 45.63953488372093,
          "velocity": 0.2125984251968504
        },
        {
          "duration": 0.02325581395349019,
          "durationTicks": 2,
          "midi": 42,
          "name": "F#2",
          "ticks": 3933,
          "time": 45.73255813953488,
          "velocity": 0.25196850393700787
        },
        {
          "duration": 0.04651162790698038,
          "durationTicks": 4,
          "midi": 41,
          "name": "F2",
          "ticks": 3935,
          "time": 45.75581395348837,
          "velocity": 0.25196850393700787
        },
        {
          "duration": 0.03488372093023173,
          "durationTicks": 3,
          "midi": 52,
          "name": "E3",
          "ticks": 3936,
          "time": 45.76744186046512,
          "velocity": 0.14173228346456693
        },
        {
          "duration": 0.06976744186046346,
          "durationTicks": 6,
          "midi": 42,
          "name": "F#2",
          "ticks": 3939,
          "time": 45.80232558139535,
          "velocity": 0.14960629921259844
        },
        {
          "duration": 0.03488372093023173,
          "durationTicks": 3,
          "midi": 41,
          "name": "F2",
          "ticks": 3947,
          "time": 45.895348837209305,
          "velocity": 0.13385826771653545
        },
        {
          "duration": 0.03488372093023173,
          "durationTicks": 3,
          "midi": 42,
          "name": "F#2",
          "ticks": 3950,
          "time": 45.93023255813954,
          "velocity": 0.09448818897637795
        },
        {
          "duration": 0.023255813953483084,
          "durationTicks": 2,
          "midi": 61,
          "name": "C#4",
          "ticks": 3958,
          "time": 46.02325581395349,
          "velocity": 0.31496062992125984
        },
        {
          "duration": 0.16279069767441712,
          "durationTicks": 14,
          "midi": 52,
          "name": "E3",
          "ticks": 3959,
          "time": 46.03488372093023,
          "velocity": 0.2677165354330709
        },
        {
          "duration": 0.19767441860464885,
          "durationTicks": 17,
          "midi": 100,
          "name": "E7",
          "ticks": 3959,
          "time": 46.03488372093023,
          "velocity": 0.11811023622047244
        },
        {
          "duration": 0.34883720930233153,
          "durationTicks": 30,
          "midi": 62,
          "name": "D4",
          "ticks": 3960,
          "time": 46.04651162790697,
          "velocity": 0.33858267716535434
        },
        {
          "duration": 0.046511627906973274,
          "durationTicks": 4,
          "midi": 41,
          "name": "F2",
          "ticks": 3963,
          "time": 46.08139534883721,
          "velocity": 0.28346456692913385
        },
        {
          "duration": 0.03488372093023173,
          "durationTicks": 3,
          "midi": 40,
          "name": "E2",
          "ticks": 3967,
          "time": 46.127906976744185,
          "velocity": 0.25196850393700787
        },
        {
          "duration": 0.03488372093023173,
          "durationTicks": 3,
          "midi": 40,
          "name": "E2",
          "ticks": 3973,
          "time": 46.19767441860465,
          "velocity": 0.2992125984251969
        },
        {
          "duration": 0.04651162790698038,
          "durationTicks": 4,
          "midi": 41,
          "name": "F2",
          "ticks": 3976,
          "time": 46.23255813953488,
          "velocity": 0.3858267716535433
        },
        {
          "duration": 0.09302325581395365,
          "durationTicks": 8,
          "midi": 42,
          "name": "F#2",
          "ticks": 3980,
          "time": 46.27906976744186,
          "velocity": 0.3779527559055118
        },
        {
          "duration": 0.05813953488372192,
          "durationTicks": 5,
          "midi": 43,
          "name": "G2",
          "ticks": 3988,
          "time": 46.372093023255815,
          "velocity": 0.16535433070866143
        },
        {
          "duration": 0.1046511627906952,
          "durationTicks": 9,
          "midi": 42,
          "name": "F#2",
          "ticks": 3993,
          "time": 46.43023255813954,
          "velocity": 0.2204724409448819
        },
        {
          "duration": 0.02325581395349019,
          "durationTicks": 2,
          "midi": 61,
          "name": "C#4",
          "ticks": 3997,
          "time": 46.47674418604651,
          "velocity": 0.28346456692913385
        },
        {
          "duration": 0.32558139534883423,
          "durationTicks": 28,
          "midi": 62,
          "name": "D4",
          "ticks": 3999,
          "time": 46.5,
          "velocity": 0.31496062992125984
        },
        {
          "duration": 0.1279069767441925,
          "durationTicks": 11,
          "midi": 42,
          "name": "F#2",
          "ticks": 4003,
          "time": 46.54651162790697,
          "velocity": 0.1968503937007874
        },
        {
          "duration": 0.38372093023256326,
          "durationTicks": 33,
          "midi": 57,
          "name": "A3",
          "ticks": 4003,
          "time": 46.54651162790697,
          "velocity": 0.14960629921259844
        },
        {
          "duration": 0.13953488372092693,
          "durationTicks": 12,
          "midi": 42,
          "name": "F#2",
          "ticks": 4015,
          "time": 46.68604651162791,
          "velocity": 0.11811023622047244
        },
        {
          "duration": 0.03488372093023173,
          "durationTicks": 3,
          "midi": 41,
          "name": "F2",
          "ticks": 4030,
          "time": 46.86046511627907,
          "velocity": 0.11811023622047244
        },
        {
          "duration": 0.09302325581395365,
          "durationTicks": 8,
          "midi": 62,
          "name": "D4",
          "ticks": 4031,
          "time": 46.872093023255815,
          "velocity": 0.11023622047244094
        },
        {
          "duration": 0.046511627906973274,
          "durationTicks": 4,
          "midi": 42,
          "name": "F#2",
          "ticks": 4033,
          "time": 46.895348837209305,
          "velocity": 0.08661417322834646
        },
        {
          "duration": 0.24418604651162212,
          "durationTicks": 21,
          "midi": 62,
          "name": "D4",
          "ticks": 4041,
          "time": 46.98837209302326,
          "velocity": 0.30708661417322836
        },
        {
          "duration": 0.13953488372093403,
          "durationTicks": 12,
          "midi": 50,
          "name": "D3",
          "ticks": 4045,
          "time": 47.03488372093023,
          "velocity": 0.15748031496062992
        },
        {
          "duration": 0.08139534883721211,
          "durationTicks": 7,
          "midi": 41,
          "name": "F2",
          "ticks": 4058,
          "time": 47.18604651162791,
          "velocity": 0.07086614173228346
        },
        {
          "duration": 0.02325581395349019,
          "durationTicks": 2,
          "midi": 61,
          "name": "C#4",
          "ticks": 4070,
          "time": 47.325581395348834,
          "velocity": 0.28346456692913385
        },
        {
          "duration": 0.02325581395349019,
          "durationTicks": 2,
          "midi": 41,
          "name": "F2",
          "ticks": 4072,
          "time": 47.348837209302324,
          "velocity": 0.3779527559055118
        },
        {
          "duration": 0.3953488372093048,
          "durationTicks": 34,
          "midi": 62,
          "name": "D4",
          "ticks": 4072,
          "time": 47.348837209302324,
          "velocity": 0.3228346456692913
        },
        {
          "duration": 0.12790697674418539,
          "durationTicks": 11,
          "midi": 42,
          "name": "F#2",
          "ticks": 4074,
          "time": 47.372093023255815,
          "velocity": 0.3937007874015748
        },
        {
          "duration": 0.046511627906973274,
          "durationTicks": 4,
          "midi": 43,
          "name": "G2",
          "ticks": 4087,
          "time": 47.52325581395349,
          "velocity": 0.2440944881889764
        },
        {
          "duration": 0.02325581395349019,
          "durationTicks": 2,
          "midi": 42,
          "name": "F#2",
          "ticks": 4091,
          "time": 47.56976744186046,
          "velocity": 0.2440944881889764
        },
        {
          "duration": 0.02325581395349019,
          "durationTicks": 2,
          "midi": 43,
          "name": "G2",
          "ticks": 4096,
          "time": 47.627906976744185,
          "velocity": 0.2440944881889764
        },
        {
          "duration": 0.02325581395349019,
          "durationTicks": 2,
          "midi": 42,
          "name": "F#2",
          "ticks": 4098,
          "time": 47.651162790697676,
          "velocity": 0.2677165354330709
        },
        {
          "duration": 0.03488372093023173,
          "durationTicks": 3,
          "midi": 43,
          "name": "G2",
          "ticks": 4100,
          "time": 47.674418604651166,
          "velocity": 0.2204724409448819
        },
        {
          "duration": 0.1046511627906952,
          "durationTicks": 9,
          "midi": 43,
          "name": "G2",
          "ticks": 4104,
          "time": 47.72093023255814,
          "velocity": 0.2204724409448819
        },
        {
          "duration": 0.02325581395349019,
          "durationTicks": 2,
          "midi": 53,
          "name": "F3",
          "ticks": 4112,
          "time": 47.81395348837209,
          "velocity": 0.28346456692913385
        },
        {
          "duration": 0.4418604651162781,
          "durationTicks": 38,
          "midi": 60,
          "name": "C4",
          "ticks": 4112,
          "time": 47.81395348837209,
          "velocity": 0.3464566929133858
        },
        {
          "duration": 0.03488372093023173,
          "durationTicks": 3,
          "midi": 42,
          "name": "F#2",
          "ticks": 4115,
          "time": 47.848837209302324,
          "velocity": 0.2283464566929134
        },
        {
          "duration": 0.22093023255813904,
          "durationTicks": 19,
          "midi": 43,
          "name": "G2",
          "ticks": 4118,
          "time": 47.883720930232556,
          "velocity": 0.2047244094488189
        },
        {
          "duration": 0.04651162790698038,
          "durationTicks": 4,
          "midi": 42,
          "name": "F#2",
          "ticks": 4140,
          "time": 48.13953488372093,
          "velocity": 0.2283464566929134
        },
        {
          "duration": 0.03488372093023173,
          "durationTicks": 3,
          "midi": 61,
          "name": "C#4",
          "ticks": 4151,
          "time": 48.26744186046512,
          "velocity": 0.30708661417322836
        },
        {
          "duration": 0.03488372093023173,
          "durationTicks": 3,
          "midi": 41,
          "name": "F2",
          "ticks": 4152,
          "time": 48.27906976744186,
          "velocity": 0.1732283464566929
        },
        {
          "duration": 0.02325581395349019,
          "durationTicks": 2,
          "midi": 51,
          "name": "D#3",
          "ticks": 4153,
          "time": 48.2906976744186,
          "velocity": 0.2440944881889764
        },
        {
          "duration": 0.32558139534883423,
          "durationTicks": 28,
          "midi": 62,
          "name": "D4",
          "ticks": 4154,
          "time": 48.30232558139535,
          "velocity": 0.3228346456692913
        },
        {
          "duration": 0.1046511627906952,
          "durationTicks": 9,
          "midi": 100,
          "name": "E7",
          "ticks": 4154,
          "time": 48.30232558139535,
          "velocity": 0.07874015748031496
        },
        {
          "duration": 0.05813953488372192,
          "durationTicks": 5,
          "midi": 42,
          "name": "F#2",
          "ticks": 4158,
          "time": 48.348837209302324,
          "velocity": 0.2125984251968504
        },
        {
          "duration": 0.05813953488372192,
          "durationTicks": 5,
          "midi": 41,
          "name": "F2",
          "ticks": 4169,
          "time": 48.47674418604651,
          "velocity": 0.10236220472440945
        },
        {
          "duration": 0.06976744186047057,
          "durationTicks": 6,
          "midi": 52,
          "name": "E3",
          "ticks": 4180,
          "time": 48.604651162790695,
          "velocity": 0.25984251968503935
        },
        {
          "duration": 1.0465116279069804,
          "durationTicks": 90,
          "midi": 57,
          "name": "A3",
          "ticks": 4182,
          "time": 48.627906976744185,
          "velocity": 0.2125984251968504
        },
        {
          "duration": 0.09302325581395365,
          "durationTicks": 8,
          "midi": 62,
          "name": "D4",
          "ticks": 4183,
          "time": 48.63953488372093,
          "velocity": 0.33070866141732286
        },
        {
          "duration": 0.03488372093023173,
          "durationTicks": 3,
          "midi": 44,
          "name": "G#2",
          "ticks": 4185,
          "time": 48.66279069767442,
          "velocity": 0.2677165354330709
        },
        {
          "duration": 0.02325581395349019,
          "durationTicks": 2,
          "midi": 44,
          "name": "G#2",
          "ticks": 4190,
          "time": 48.72093023255814,
          "velocity": 0.2440944881889764
        },
        {
          "duration": 0.5,
          "durationTicks": 43,
          "midi": 64,
          "name": "E4",
          "ticks": 4193,
          "time": 48.75581395348837,
          "velocity": 0.09448818897637795
        },
        {
          "duration": 0.11627906976744384,
          "durationTicks": 10,
          "midi": 45,
          "name": "A2",
          "ticks": 4200,
          "time": 48.83720930232558,
          "velocity": 0.2204724409448819
        },
        {
          "duration": 0.04651162790698038,
          "durationTicks": 4,
          "midi": 52,
          "name": "E3",
          "ticks": 4209,
          "time": 48.94186046511628,
          "velocity": 0.07874015748031496
        },
        {
          "duration": 0.05813953488372192,
          "durationTicks": 5,
          "midi": 45,
          "name": "A2",
          "ticks": 4218,
          "time": 49.04651162790697,
          "velocity": 0.23622047244094488
        },
        {
          "duration": 0.2674418604651194,
          "durationTicks": 23,
          "midi": 45,
          "name": "A2",
          "ticks": 4226,
          "time": 49.13953488372093,
          "velocity": 0.2440944881889764
        },
        {
          "duration": 0.02325581395349019,
          "durationTicks": 2,
          "midi": 44,
          "name": "G#2",
          "ticks": 4249,
          "time": 49.406976744186046,
          "velocity": 0.23622047244094488
        },
        {
          "duration": 0.03488372093023884,
          "durationTicks": 3,
          "midi": 45,
          "name": "A2",
          "ticks": 4261,
          "time": 49.54651162790697,
          "velocity": 0.14960629921259844
        },
        {
          "duration": 0.06976744186046346,
          "durationTicks": 6,
          "midi": 52,
          "name": "E3",
          "ticks": 4265,
          "time": 49.593023255813954,
          "velocity": 0.1889763779527559
        },
        {
          "duration": 0.03488372093023173,
          "durationTicks": 3,
          "midi": 45,
          "name": "A2",
          "ticks": 4272,
          "time": 49.674418604651166,
          "velocity": 0.16535433070866143
        },
        {
          "duration": 0.15116279069767558,
          "durationTicks": 13,
          "midi": 57,
          "name": "A3",
          "ticks": 4277,
          "time": 49.73255813953488,
          "velocity": 0.08661417322834646
        },
        {
          "duration": 0.16279069767441712,
          "durationTicks": 14,
          "midi": 60,
          "name": "C4",
          "ticks": 4291,
          "time": 49.895348837209305,
          "velocity": 0.2125984251968504
        },
        {
          "duration": 0.03488372093023173,
          "durationTicks": 3,
          "midi": 42,
          "name": "F#2",
          "ticks": 4292,
          "time": 49.906976744186046,
          "velocity": 0.2047244094488189
        },
        {
          "duration": 0.058139534883714816,
          "durationTicks": 5,
          "midi": 52,
          "name": "E3",
          "ticks": 4296,
          "time": 49.95348837209303,
          "velocity": 0.07086614173228346
        },
        {
          "duration": 0.06976744186046346,
          "durationTicks": 6,
          "midi": 57,
          "name": "A3",
          "ticks": 4299,
          "time": 49.98837209302326,
          "velocity": 0.12598425196850394
        },
        {
          "duration": 0.05813953488372192,
          "durationTicks": 5,
          "midi": 57,
          "name": "A3",
          "ticks": 4308,
          "time": 50.093023255813954,
          "velocity": 0.14173228346456693
        },
        {
          "duration": 0.11627906976744384,
          "durationTicks": 10,
          "midi": 57,
          "name": "A3",
          "ticks": 4314,
          "time": 50.16279069767442,
          "velocity": 0.11811023622047244
        },
        {
          "duration": 0.06976744186046346,
          "durationTicks": 6,
          "midi": 60,
          "name": "C4",
          "ticks": 4316,
          "time": 50.18604651162791,
          "velocity": 0.10236220472440945
        },
        {
          "duration": 0.08139534883721211,
          "durationTicks": 7,
          "midi": 52,
          "name": "E3",
          "ticks": 4320,
          "time": 50.23255813953488,
          "velocity": 0.1968503937007874
        },
        {
          "duration": 0.3720930232558075,
          "durationTicks": 32,
          "midi": 60,
          "name": "C4",
          "ticks": 4323,
          "time": 50.26744186046512,
          "velocity": 0.09448818897637795
        },
        {
          "duration": 0.04651162790698038,
          "durationTicks": 4,
          "midi": 52,
          "name": "E3",
          "ticks": 4333,
          "time": 50.383720930232556,
          "velocity": 0.18110236220472442
        },
        {
          "duration": 0.06976744186046346,
          "durationTicks": 6,
          "midi": 52,
          "name": "E3",
          "ticks": 4377,
          "time": 50.895348837209305,
          "velocity": 0.16535433070866143
        },
        {
          "duration": 1.139534883720927,
          "durationTicks": 98,
          "midi": 60,
          "name": "C4",
          "ticks": 4399,
          "time": 51.151162790697676,
          "velocity": 0.3543307086614173
        },
        {
          "duration": 0.03488372093023173,
          "durationTicks": 3,
          "midi": 41,
          "name": "F2",
          "ticks": 4400,
          "time": 51.16279069767442,
          "velocity": 0.1968503937007874
        },
        {
          "duration": 0.05813953488372192,
          "durationTicks": 5,
          "midi": 52,
          "name": "E3",
          "ticks": 4403,
          "time": 51.19767441860465,
          "velocity": 0.30708661417322836
        },
        {
          "duration": 0.04651162790698038,
          "durationTicks": 4,
          "midi": 42,
          "name": "F#2",
          "ticks": 4405,
          "time": 51.22093023255814,
          "velocity": 0.2047244094488189
        },
        {
          "duration": 0.11627906976744384,
          "durationTicks": 10,
          "midi": 48,
          "name": "C3",
          "ticks": 4411,
          "time": 51.2906976744186,
          "velocity": 0.12598425196850394
        },
        {
          "duration": 0.03488372093023173,
          "durationTicks": 3,
          "midi": 41,
          "name": "F2",
          "ticks": 4412,
          "time": 51.30232558139535,
          "velocity": 0.07874015748031496
        },
        {
          "duration": 0.05813953488372192,
          "durationTicks": 5,
          "midi": 42,
          "name": "F#2",
          "ticks": 4442,
          "time": 51.651162790697676,
          "velocity": 0.12598425196850394
        },
        {
          "duration": 0.1860465116279073,
          "durationTicks": 16,
          "midi": 55,
          "name": "G3",
          "ticks": 4443,
          "time": 51.66279069767442,
          "velocity": 0.11023622047244094
        },
        {
          "duration": 0.1046511627906952,
          "durationTicks": 9,
          "midi": 55,
          "name": "G3",
          "ticks": 4461,
          "time": 51.872093023255815,
          "velocity": 0.10236220472440945
        },
        {
          "duration": 0.1046511627906952,
          "durationTicks": 9,
          "midi": 42,
          "name": "F#2",
          "ticks": 4469,
          "time": 51.96511627906977,
          "velocity": 0.16535433070866143
        },
        {
          "duration": 0.05813953488372192,
          "durationTicks": 5,
          "midi": 52,
          "name": "E3",
          "ticks": 4484,
          "time": 52.13953488372093,
          "velocity": 0.23622047244094488
        },
        {
          "duration": 0.046511627906973274,
          "durationTicks": 4,
          "midi": 52,
          "name": "E3",
          "ticks": 4490,
          "time": 52.2093023255814,
          "velocity": 0.14960629921259844
        },
        {
          "duration": 0.03488372093023173,
          "durationTicks": 3,
          "midi": 61,
          "name": "C#4",
          "ticks": 4511,
          "time": 52.45348837209303,
          "velocity": 0.2992125984251969
        },
        {
          "duration": 0.02325581395349019,
          "durationTicks": 2,
          "midi": 48,
          "name": "C3",
          "ticks": 4513,
          "time": 52.47674418604651,
          "velocity": 0.25984251968503935
        },
        {
          "duration": 0.5581395348837148,
          "durationTicks": 48,
          "midi": 62,
          "name": "D4",
          "ticks": 4514,
          "time": 52.48837209302326,
          "velocity": 0.2992125984251969
        },
        {
          "duration": 0.24418604651162923,
          "durationTicks": 21,
          "midi": 47,
          "name": "B2",
          "ticks": 4518,
          "time": 52.53488372093023,
          "velocity": 0.2125984251968504
        },
        {
          "duration": 0.046511627906973274,
          "durationTicks": 4,
          "midi": 47,
          "name": "B2",
          "ticks": 4547,
          "time": 52.872093023255815,
          "velocity": 0.16535433070866143
        },
        {
          "duration": 0.2674418604651123,
          "durationTicks": 23,
          "midi": 47,
          "name": "B2",
          "ticks": 4557,
          "time": 52.98837209302326,
          "velocity": 0.1732283464566929
        },
        {
          "duration": 0.11627906976744384,
          "durationTicks": 10,
          "midi": 62,
          "name": "D4",
          "ticks": 4582,
          "time": 53.27906976744186,
          "velocity": 0.11023622047244094
        },
        {
          "duration": 0.03488372093023173,
          "durationTicks": 3,
          "midi": 47,
          "name": "B2",
          "ticks": 4589,
          "time": 53.36046511627907,
          "velocity": 0.1889763779527559
        },
        {
          "duration": 0.15116279069766847,
          "durationTicks": 13,
          "midi": 60,
          "name": "C4",
          "ticks": 4592,
          "time": 53.395348837209305,
          "velocity": 0.31496062992125984
        },
        {
          "duration": 0.03488372093023173,
          "durationTicks": 3,
          "midi": 52,
          "name": "E3",
          "ticks": 4593,
          "time": 53.406976744186046,
          "velocity": 0.25984251968503935
        },
        {
          "duration": 0.05813953488372192,
          "durationTicks": 5,
          "midi": 42,
          "name": "F#2",
          "ticks": 4594,
          "time": 53.41860465116279,
          "velocity": 0.1889763779527559
        },
        {
          "duration": 0.1860465116279073,
          "durationTicks": 16,
          "midi": 62,
          "name": "D4",
          "ticks": 4606,
          "time": 53.55813953488372,
          "velocity": 0.25984251968503935
        },
        {
          "duration": 0.4534883720930196,
          "durationTicks": 39,
          "midi": 60,
          "name": "C4",
          "ticks": 4622,
          "time": 53.74418604651163,
          "velocity": 0.23622047244094488
        },
        {
          "duration": 0.02325581395349019,
          "durationTicks": 2,
          "midi": 43,
          "name": "G2",
          "ticks": 4623,
          "time": 53.75581395348837,
          "velocity": 0.2755905511811024
        },
        {
          "duration": 0.02325581395349019,
          "durationTicks": 2,
          "midi": 44,
          "name": "G#2",
          "ticks": 4628,
          "time": 53.81395348837209,
          "velocity": 0.25196850393700787
        },
        {
          "duration": 0.023255813953483084,
          "durationTicks": 2,
          "midi": 44,
          "name": "G#2",
          "ticks": 4632,
          "time": 53.86046511627907,
          "velocity": 0.2283464566929134
        },
        {
          "duration": 0.2325581395348877,
          "durationTicks": 20,
          "midi": 45,
          "name": "A2",
          "ticks": 4642,
          "time": 53.97674418604651,
          "velocity": 0.2283464566929134
        },
        {
          "duration": 0.08139534883721211,
          "durationTicks": 7,
          "midi": 52,
          "name": "E3",
          "ticks": 4648,
          "time": 54.04651162790697,
          "velocity": 0.2204724409448819
        },
        {
          "duration": 0.22093023255813904,
          "durationTicks": 19,
          "midi": 45,
          "name": "A2",
          "ticks": 4669,
          "time": 54.2906976744186,
          "velocity": 0.16535433070866143
        },
        {
          "duration": 0.081395348837205,
          "durationTicks": 7,
          "midi": 52,
          "name": "E3",
          "ticks": 4675,
          "time": 54.36046511627907,
          "velocity": 0.10236220472440945
        },
        {
          "duration": 0.03488372093023173,
          "durationTicks": 3,
          "midi": 44,
          "name": "G#2",
          "ticks": 4693,
          "time": 54.56976744186046,
          "velocity": 0.18110236220472442
        },
        {
          "duration": 0.06976744186046346,
          "durationTicks": 6,
          "midi": 52,
          "name": "E3",
          "ticks": 4702,
          "time": 54.674418604651166,
          "velocity": 0.12598425196850394
        },
        {
          "duration": 0.09302325581395365,
          "durationTicks": 8,
          "midi": 45,
          "name": "A2",
          "ticks": 4706,
          "time": 54.72093023255814,
          "velocity": 0.14173228346456693
        },
        {
          "duration": 0.03488372093023173,
          "durationTicks": 3,
          "midi": 44,
          "name": "G#2",
          "ticks": 4716,
          "time": 54.83720930232558,
          "velocity": 0.15748031496062992
        },
        {
          "duration": 0.12790697674418539,
          "durationTicks": 11,
          "midi": 57,
          "name": "A3",
          "ticks": 4719,
          "time": 54.872093023255815,
          "velocity": 0.12598425196850394
        },
        {
          "duration": 0.046511627906973274,
          "durationTicks": 4,
          "midi": 52,
          "name": "E3",
          "ticks": 4730,
          "time": 55,
          "velocity": 0.2283464566929134
        },
        {
          "duration": 0.27906976744186096,
          "durationTicks": 24,
          "midi": 57,
          "name": "A3",
          "ticks": 4731,
          "time": 55.01162790697674,
          "velocity": 0.2125984251968504
        },
        {
          "duration": 0.1046511627906952,
          "durationTicks": 9,
          "midi": 52,
          "name": "E3",
          "ticks": 4756,
          "time": 55.30232558139535,
          "velocity": 0.2283464566929134
        },
        {
          "duration": 0.697674418604656,
          "durationTicks": 60,
          "midi": 57,
          "name": "A3",
          "ticks": 4758,
          "time": 55.325581395348834,
          "velocity": 0.25984251968503935
        },
        {
          "duration": 0.081395348837205,
          "durationTicks": 7,
          "midi": 52,
          "name": "E3",
          "ticks": 4813,
          "time": 55.96511627906977,
          "velocity": 0.2204724409448819
        },
        {
          "duration": 0.03488372093023173,
          "durationTicks": 3,
          "midi": 52,
          "name": "E3",
          "ticks": 4835,
          "time": 56.22093023255814,
          "velocity": 0.07874015748031496
        },
        {
          "duration": 0.4418604651162781,
          "durationTicks": 38,
          "midi": 67,
          "name": "G4",
          "ticks": 4840,
          "time": 56.27906976744186,
          "velocity": 0.2125984251968504
        },
        {
          "duration": 0.02325581395349019,
          "durationTicks": 2,
          "midi": 41,
          "name": "F2",
          "ticks": 4841,
          "time": 56.2906976744186,
          "velocity": 0.30708661417322836
        },
        {
          "duration": 0.43023255813953654,
          "durationTicks": 37,
          "midi": 60,
          "name": "C4",
          "ticks": 4841,
          "time": 56.2906976744186,
          "velocity": 0.1732283464566929
        },
        {
          "duration": 0.04651162790698038,
          "durationTicks": 4,
          "midi": 42,
          "name": "F#2",
          "ticks": 4843,
          "time": 56.31395348837209,
          "velocity": 0.31496062992125984
        },
        {
          "duration": 0.04651162790698038,
          "durationTicks": 4,
          "midi": 42,
          "name": "F#2",
          "ticks": 4851,
          "time": 56.406976744186046,
          "velocity": 0.23622047244094488
        },
        {
          "duration": 0.03488372093023884,
          "durationTicks": 3,
          "midi": 43,
          "name": "G2",
          "ticks": 4863,
          "time": 56.54651162790697,
          "velocity": 0.1732283464566929
        },
        {
          "duration": 0.13953488372092693,
          "durationTicks": 12,
          "midi": 43,
          "name": "G2",
          "ticks": 4867,
          "time": 56.593023255813954,
          "velocity": 0.15748031496062992
        },
        {
          "duration": 0.1046511627907023,
          "durationTicks": 9,
          "midi": 52,
          "name": "E3",
          "ticks": 4868,
          "time": 56.604651162790695,
          "velocity": 0.16535433070866143
        },
        {
          "duration": 0.046511627906973274,
          "durationTicks": 4,
          "midi": 52,
          "name": "E3",
          "ticks": 4880,
          "time": 56.74418604651163,
          "velocity": 0.23622047244094488
        },
        {
          "duration": 0.7441860465116292,
          "durationTicks": 64,
          "midi": 67,
          "name": "G4",
          "ticks": 4880,
          "time": 56.74418604651163,
          "velocity": 0.18110236220472442
        },
        {
          "duration": 0.05813953488372192,
          "durationTicks": 5,
          "midi": 42,
          "name": "F#2",
          "ticks": 4881,
          "time": 56.75581395348837,
          "velocity": 0.2125984251968504
        },
        {
          "duration": 0.2674418604651123,
          "durationTicks": 23,
          "midi": 57,
          "name": "A3",
          "ticks": 4883,
          "time": 56.77906976744186,
          "velocity": 0.13385826771653545
        },
        {
          "duration": 0.03488372093023173,
          "durationTicks": 3,
          "midi": 43,
          "name": "G2",
          "ticks": 4886,
          "time": 56.81395348837209,
          "velocity": 0.14960629921259844
        },
        {
          "duration": 0.17441860465115866,
          "durationTicks": 15,
          "midi": 43,
          "name": "G2",
          "ticks": 4891,
          "time": 56.872093023255815,
          "velocity": 0.11811023622047244
        },
        {
          "duration": 0.04651162790698038,
          "durationTicks": 4,
          "midi": 60,
          "name": "C4",
          "ticks": 4908,
          "time": 57.06976744186046,
          "velocity": 0.07086614173228346
        },
        {
          "duration": 0.05813953488372192,
          "durationTicks": 5,
          "midi": 43,
          "name": "G2",
          "ticks": 4915,
          "time": 57.151162790697676,
          "velocity": 0.13385826771653545
        },
        {
          "duration": 0.06976744186046346,
          "durationTicks": 6,
          "midi": 52,
          "name": "E3",
          "ticks": 4924,
          "time": 57.25581395348837,
          "velocity": 0.1968503937007874
        },
        {
          "duration": 0.046511627906973274,
          "durationTicks": 4,
          "midi": 55,
          "name": "G3",
          "ticks": 4945,
          "time": 57.5,
          "velocity": 0.15748031496062992
        },
        {
          "duration": 0.04651162790698038,
          "durationTicks": 4,
          "midi": 41,
          "name": "F2",
          "ticks": 4946,
          "time": 57.51162790697674,
          "velocity": 0.1968503937007874
        },
        {
          "duration": 0.04651162790698038,
          "durationTicks": 4,
          "midi": 60,
          "name": "C4",
          "ticks": 4949,
          "time": 57.54651162790697,
          "velocity": 0.2204724409448819
        },
        {
          "duration": 0.046511627906973274,
          "durationTicks": 4,
          "midi": 41,
          "name": "F2",
          "ticks": 4953,
          "time": 57.593023255813954,
          "velocity": 0.33070866141732286
        },
        {
          "duration": 0.02325581395349019,
          "durationTicks": 2,
          "midi": 52,
          "name": "E3",
          "ticks": 4953,
          "time": 57.593023255813954,
          "velocity": 0.30708661417322836
        },
        {
          "duration": 0.38372093023255616,
          "durationTicks": 33,
          "midi": 67,
          "name": "G4",
          "ticks": 4953,
          "time": 57.593023255813954,
          "velocity": 0.25984251968503935
        },
        {
          "duration": 0.03488372093023173,
          "durationTicks": 3,
          "midi": 51,
          "name": "D#3",
          "ticks": 4955,
          "time": 57.616279069767444,
          "velocity": 0.3228346456692913
        },
        {
          "duration": 0.04651162790698038,
          "durationTicks": 4,
          "midi": 42,
          "name": "F#2",
          "ticks": 4957,
          "time": 57.63953488372093,
          "velocity": 0.23622047244094488
        },
        {
          "duration": 0.16279069767441712,
          "durationTicks": 14,
          "midi": 50,
          "name": "D3",
          "ticks": 4961,
          "time": 57.68604651162791,
          "velocity": 0.2125984251968504
        },
        {
          "duration": 0.046511627906973274,
          "durationTicks": 4,
          "midi": 42,
          "name": "F#2",
          "ticks": 4966,
          "time": 57.74418604651163,
          "velocity": 0.13385826771653545
        },
        {
          "duration": 0.04651162790698038,
          "durationTicks": 4,
          "midi": 41,
          "name": "F2",
          "ticks": 4970,
          "time": 57.7906976744186,
          "velocity": 0.13385826771653545
        },
        {
          "duration": 0.15116279069767558,
          "durationTicks": 13,
          "midi": 60,
          "name": "C4",
          "ticks": 4977,
          "time": 57.872093023255815,
          "velocity": 0.09448818897637795
        },
        {
          "duration": 0.05813953488372192,
          "durationTicks": 5,
          "midi": 50,
          "name": "D3",
          "ticks": 4980,
          "time": 57.906976744186046,
          "velocity": 0.09448818897637795
        },
        {
          "duration": 0.22093023255813904,
          "durationTicks": 19,
          "midi": 77,
          "name": "F5",
          "ticks": 4991,
          "time": 58.03488372093023,
          "velocity": 0.12598425196850394
        },
        {
          "duration": 0.5581395348837219,
          "durationTicks": 48,
          "midi": 57,
          "name": "A3",
          "ticks": 4992,
          "time": 58.04651162790697,
          "velocity": 0.10236220472440945
        },
        {
          "duration": 0.03488372093023173,
          "durationTicks": 3,
          "midi": 42,
          "name": "F#2",
          "ticks": 5017,
          "time": 58.33720930232558,
          "velocity": 0.12598425196850394
        },
        {
          "duration": 0.19767441860464885,
          "durationTicks": 17,
          "midi": 62,
          "name": "D4",
          "ticks": 5019,
          "time": 58.36046511627907,
          "velocity": 0.11811023622047244
        },
        {
          "duration": 0.05813953488372192,
          "durationTicks": 5,
          "midi": 57,
          "name": "A3",
          "ticks": 5044,
          "time": 58.651162790697676,
          "velocity": 0.11811023622047244
        },
        {
          "duration": 0.03488372093023173,
          "durationTicks": 3,
          "midi": 41,
          "name": "F2",
          "ticks": 5047,
          "time": 58.68604651162791,
          "velocity": 0.07874015748031496
        },
        {
          "duration": 0.023255813953483084,
          "durationTicks": 2,
          "midi": 61,
          "name": "C#4",
          "ticks": 5057,
          "time": 58.80232558139535,
          "velocity": 0.23622047244094488
        },
        {
          "duration": 0.16279069767442422,
          "durationTicks": 14,
          "midi": 62,
          "name": "D4",
          "ticks": 5059,
          "time": 58.825581395348834,
          "velocity": 0.2755905511811024
        },
        {
          "duration": 0.02325581395349019,
          "durationTicks": 2,
          "midi": 43,
          "name": "G2",
          "ticks": 5061,
          "time": 58.848837209302324,
          "velocity": 0.2992125984251969
        },
        {
          "duration": 0.05813953488372192,
          "durationTicks": 5,
          "midi": 52,
          "name": "E3",
          "ticks": 5061,
          "time": 58.848837209302324,
          "velocity": 0.18110236220472442
        },
        {
          "duration": 0.02325581395349019,
          "durationTicks": 2,
          "midi": 44,
          "name": "G#2",
          "ticks": 5066,
          "time": 58.906976744186046,
          "velocity": 0.23622047244094488
        },
        {
          "duration": 0.02325581395349019,
          "durationTicks": 2,
          "midi": 44,
          "name": "G#2",
          "ticks": 5075,
          "time": 59.01162790697674,
          "velocity": 0.25196850393700787
        },
        {
          "duration": 0.19767441860465595,
          "durationTicks": 17,
          "midi": 57,
          "name": "A3",
          "ticks": 5075,
          "time": 59.01162790697674,
          "velocity": 0.07874015748031496
        },
        {
          "duration": 0.02325581395349019,
          "durationTicks": 2,
          "midi": 44,
          "name": "G#2",
          "ticks": 5079,
          "time": 59.05813953488372,
          "velocity": 0.23622047244094488
        },
        {
          "duration": 0.12790697674418539,
          "durationTicks": 11,
          "midi": 52,
          "name": "E3",
          "ticks": 5091,
          "time": 59.19767441860465,
          "velocity": 0.2440944881889764
        },
        {
          "duration": 0.05813953488372192,
          "durationTicks": 5,
          "midi": 45,
          "name": "A2",
          "ticks": 5092,
          "time": 59.2093023255814,
          "velocity": 0.1968503937007874
        },
        {
          "duration": 0.02325581395349019,
          "durationTicks": 2,
          "midi": 44,
          "name": "G#2",
          "ticks": 5101,
          "time": 59.31395348837209,
          "velocity": 0.23622047244094488
        },
        {
          "duration": 0.23255813953488058,
          "durationTicks": 20,
          "midi": 83,
          "name": "B5",
          "ticks": 5101,
          "time": 59.31395348837209,
          "velocity": 0.07086614173228346
        },
        {
          "duration": 0.32558139534884134,
          "durationTicks": 28,
          "midi": 57,
          "name": "A3",
          "ticks": 5102,
          "time": 59.325581395348834,
          "velocity": 0.12598425196850394
        },
        {
          "duration": 0.19767441860464885,
          "durationTicks": 17,
          "midi": 45,
          "name": "A2",
          "ticks": 5103,
          "time": 59.33720930232558,
          "velocity": 0.1968503937007874
        },
        {
          "duration": 0.08139534883721211,
          "durationTicks": 7,
          "midi": 52,
          "name": "E3",
          "ticks": 5107,
          "time": 59.383720930232556,
          "velocity": 0.10236220472440945
        },
        {
          "duration": 0.06976744186046346,
          "durationTicks": 6,
          "midi": 52,
          "name": "E3",
          "ticks": 5117,
          "time": 59.5,
          "velocity": 0.09448818897637795
        },
        {
          "duration": 0.03488372093023173,
          "durationTicks": 3,
          "midi": 45,
          "name": "A2",
          "ticks": 5125,
          "time": 59.593023255813954,
          "velocity": 0.18110236220472442
        },
        {
          "duration": 0.11627906976744384,
          "durationTicks": 10,
          "midi": 60,
          "name": "C4",
          "ticks": 5129,
          "time": 59.63953488372093,
          "velocity": 0.13385826771653545
        },
        {
          "duration": 0.17441860465116577,
          "durationTicks": 15,
          "midi": 57,
          "name": "A3",
          "ticks": 5131,
          "time": 59.66279069767442,
          "velocity": 0.10236220472440945
        },
        {
          "duration": 0.09302325581395365,
          "durationTicks": 8,
          "midi": 52,
          "name": "E3",
          "ticks": 5143,
          "time": 59.80232558139535,
          "velocity": 0.2047244094488189
        },
        {
          "duration": 0.05813953488372192,
          "durationTicks": 5,
          "midi": 45,
          "name": "A2",
          "ticks": 5151,
          "time": 59.895348837209305,
          "velocity": 0.14960629921259844
        },
        {
          "duration": 0.02325581395349019,
          "durationTicks": 2,
          "midi": 51,
          "name": "D#3",
          "ticks": 5171,
          "time": 60.127906976744185,
          "velocity": 0.2283464566929134
        },
        {
          "duration": 0.19767441860464885,
          "durationTicks": 17,
          "midi": 64,
          "name": "E4",
          "ticks": 5171,
          "time": 60.127906976744185,
          "velocity": 0.07086614173228346
        },
        {
          "duration": 0.03488372093023884,
          "durationTicks": 3,
          "midi": 42,
          "name": "F#2",
          "ticks": 5172,
          "time": 60.13953488372093,
          "velocity": 0.2677165354330709
        },
        {
          "duration": 0.06976744186046346,
          "durationTicks": 6,
          "midi": 52,
          "name": "E3",
          "ticks": 5176,
          "time": 60.18604651162791,
          "velocity": 0.14960629921259844
        },
        {
          "duration": 0.03488372093023173,
          "durationTicks": 3,
          "midi": 44,
          "name": "G#2",
          "ticks": 5181,
          "time": 60.24418604651163,
          "velocity": 0.2047244094488189
        },
        {
          "duration": 0.03488372093023173,
          "durationTicks": 3,
          "midi": 44,
          "name": "G#2",
          "ticks": 5185,
          "time": 60.2906976744186,
          "velocity": 0.16535433070866143
        },
        {
          "duration": 0.03488372093023173,
          "durationTicks": 3,
          "midi": 44,
          "name": "G#2",
          "ticks": 5198,
          "time": 60.44186046511628,
          "velocity": 0.16535433070866143
        },
        {
          "duration": 0.05813953488372192,
          "durationTicks": 5,
          "midi": 52,
          "name": "E3",
          "ticks": 5200,
          "time": 60.46511627906977,
          "velocity": 0.13385826771653545
        },
        {
          "duration": 0.03488372093023173,
          "durationTicks": 3,
          "midi": 45,
          "name": "A2",
          "ticks": 5211,
          "time": 60.593023255813954,
          "velocity": 0.11811023622047244
        },
        {
          "duration": 0.05813953488372192,
          "durationTicks": 5,
          "midi": 45,
          "name": "A2",
          "ticks": 5223,
          "time": 60.73255813953488,
          "velocity": 0.10236220472440945
        },
        {
          "duration": 0.06976744186046346,
          "durationTicks": 6,
          "midi": 52,
          "name": "E3",
          "ticks": 5226,
          "time": 60.76744186046512,
          "velocity": 0.10236220472440945
        },
        {
          "duration": 0.09302325581395365,
          "durationTicks": 8,
          "midi": 57,
          "name": "A3",
          "ticks": 5230,
          "time": 60.81395348837209,
          "velocity": 0.08661417322834646
        },
        {
          "duration": 0.1046511627906952,
          "durationTicks": 9,
          "midi": 60,
          "name": "C4",
          "ticks": 5240,
          "time": 60.93023255813954,
          "velocity": 0.11811023622047244
        },
        {
          "duration": 0.11627906976744384,
          "durationTicks": 10,
          "midi": 57,
          "name": "A3",
          "ticks": 5241,
          "time": 60.94186046511628,
          "velocity": 0.08661417322834646
        },
        {
          "duration": 0.03488372093023173,
          "durationTicks": 3,
          "midi": 44,
          "name": "G#2",
          "ticks": 5245,
          "time": 60.98837209302326,
          "velocity": 0.11023622047244094
        },
        {
          "duration": 0.03488372093023173,
          "durationTicks": 3,
          "midi": 44,
          "name": "G#2",
          "ticks": 5249,
          "time": 61.03488372093023,
          "velocity": 0.12598425196850394
        },
        {
          "duration": 0.08139534883721211,
          "durationTicks": 7,
          "midi": 52,
          "name": "E3",
          "ticks": 5255,
          "time": 61.104651162790695,
          "velocity": 0.25196850393700787
        },
        {
          "duration": 0.046511627906973274,
          "durationTicks": 4,
          "midi": 52,
          "name": "E3",
          "ticks": 5277,
          "time": 61.36046511627907,
          "velocity": 0.2204724409448819
        },
        {
          "duration": 0.8255813953488342,
          "durationTicks": 71,
          "midi": 84,
          "name": "C6",
          "ticks": 5277,
          "time": 61.36046511627907,
          "velocity": 0.15748031496062992
        },
        {
          "duration": 0.19767441860464885,
          "durationTicks": 17,
          "midi": 60,
          "name": "C4",
          "ticks": 5278,
          "time": 61.372093023255815,
          "velocity": 0.1732283464566929
        },
        {
          "duration": 0.04651162790698038,
          "durationTicks": 4,
          "midi": 42,
          "name": "F#2",
          "ticks": 5279,
          "time": 61.383720930232556,
          "velocity": 0.2125984251968504
        },
        {
          "duration": 0.05813953488372192,
          "durationTicks": 5,
          "midi": 42,
          "name": "F#2",
          "ticks": 5284,
          "time": 61.44186046511628,
          "velocity": 0.1889763779527559
        },
        {
          "duration": 0.2674418604651123,
          "durationTicks": 23,
          "midi": 48,
          "name": "C3",
          "ticks": 5285,
          "time": 61.45348837209303,
          "velocity": 0.1732283464566929
        },
        {
          "duration": 0.11627906976744384,
          "durationTicks": 10,
          "midi": 48,
          "name": "C3",
          "ticks": 5313,
          "time": 61.77906976744186,
          "velocity": 0.2204724409448819
        },
        {
          "duration": 0.06976744186046346,
          "durationTicks": 6,
          "midi": 48,
          "name": "C3",
          "ticks": 5330,
          "time": 61.97674418604651,
          "velocity": 0.11023622047244094
        },
        {
          "duration": 0.15116279069767558,
          "durationTicks": 13,
          "midi": 48,
          "name": "C3",
          "ticks": 5337,
          "time": 62.05813953488372,
          "velocity": 0.1968503937007874
        },
        {
          "duration": 0.03488372093023173,
          "durationTicks": 3,
          "midi": 42,
          "name": "F#2",
          "ticks": 5349,
          "time": 62.19767441860465,
          "velocity": 0.1732283464566929
        },
        {
          "duration": 0.046511627906973274,
          "durationTicks": 4,
          "midi": 42,
          "name": "F#2",
          "ticks": 5353,
          "time": 62.24418604651163,
          "velocity": 0.07086614173228346
        },
        {
          "duration": 0.08139534883721211,
          "durationTicks": 7,
          "midi": 48,
          "name": "C3",
          "ticks": 5354,
          "time": 62.25581395348837,
          "velocity": 0.1732283464566929
        },
        {
          "duration": 0.3139534883720927,
          "durationTicks": 27,
          "midi": 60,
          "name": "C4",
          "ticks": 5361,
          "time": 62.33720930232558,
          "velocity": 0.33070866141732286
        },
        {
          "duration": 0.06976744186046346,
          "durationTicks": 6,
          "midi": 52,
          "name": "E3",
          "ticks": 5366,
          "time": 62.395348837209305,
          "velocity": 0.2992125984251969
        },
        {
          "duration": 0.046511627906973274,
          "durationTicks": 4,
          "midi": 61,
          "name": "C#4",
          "ticks": 5388,
          "time": 62.651162790697676,
          "velocity": 0.25196850393700787
        },
        {
          "duration": 0.27906976744186096,
          "durationTicks": 24,
          "midi": 62,
          "name": "D4",
          "ticks": 5392,
          "time": 62.69767441860465,
          "velocity": 0.28346456692913385
        },
        {
          "duration": 0.08139534883721211,
          "durationTicks": 7,
          "midi": 47,
          "name": "B2",
          "ticks": 5403,
          "time": 62.825581395348834,
          "velocity": 0.13385826771653545
        },
        {
          "duration": 0.05813953488372192,
          "durationTicks": 5,
          "midi": 47,
          "name": "B2",
          "ticks": 5411,
          "time": 62.91860465116279,
          "velocity": 0.11811023622047244
        },
        {
          "duration": 0.06976744186046346,
          "durationTicks": 6,
          "midi": 47,
          "name": "B2",
          "ticks": 5424,
          "time": 63.06976744186046,
          "velocity": 0.14960629921259844
        },
        {
          "duration": 0.2674418604651194,
          "durationTicks": 23,
          "midi": 55,
          "name": "G3",
          "ticks": 5434,
          "time": 63.18604651162791,
          "velocity": 0.09448818897637795
        },
        {
          "duration": 0.03488372093023173,
          "durationTicks": 3,
          "midi": 47,
          "name": "B2",
          "ticks": 5436,
          "time": 63.2093023255814,
          "velocity": 0.11811023622047244
        },
        {
          "duration": 0.03488372093023173,
          "durationTicks": 3,
          "midi": 47,
          "name": "B2",
          "ticks": 5440,
          "time": 63.25581395348837,
          "velocity": 0.08661417322834646
        },
        {
          "duration": 0.03488372093023173,
          "durationTicks": 3,
          "midi": 47,
          "name": "B2",
          "ticks": 5444,
          "time": 63.30232558139535,
          "velocity": 0.09448818897637795
        },
        {
          "duration": 0.09302325581395365,
          "durationTicks": 8,
          "midi": 47,
          "name": "B2",
          "ticks": 5448,
          "time": 63.348837209302324,
          "velocity": 0.10236220472440945
        },
        {
          "duration": 0.12790697674418539,
          "durationTicks": 11,
          "midi": 62,
          "name": "D4",
          "ticks": 5458,
          "time": 63.46511627906977,
          "velocity": 0.16535433070866143
        },
        {
          "duration": 0.09302325581395365,
          "durationTicks": 8,
          "midi": 55,
          "name": "G3",
          "ticks": 5461,
          "time": 63.5,
          "velocity": 0.07086614173228346
        },
        {
          "duration": 0.11627906976744384,
          "durationTicks": 10,
          "midi": 60,
          "name": "C4",
          "ticks": 5470,
          "time": 63.604651162790695,
          "velocity": 0.33070866141732286
        },
        {
          "duration": 0.023255813953483084,
          "durationTicks": 2,
          "midi": 52,
          "name": "E3",
          "ticks": 5471,
          "time": 63.616279069767444,
          "velocity": 0.2283464566929134
        },
        {
          "duration": 0.03488372093023884,
          "durationTicks": 3,
          "midi": 51,
          "name": "D#3",
          "ticks": 5473,
          "time": 63.63953488372093,
          "velocity": 0.1889763779527559
        },
        {
          "duration": 0.03488372093023173,
          "durationTicks": 3,
          "midi": 61,
          "name": "C#4",
          "ticks": 5480,
          "time": 63.72093023255814,
          "velocity": 0.25984251968503935
        },
        {
          "duration": 0.023255813953483084,
          "durationTicks": 2,
          "midi": 53,
          "name": "F3",
          "ticks": 5484,
          "time": 63.76744186046512,
          "velocity": 0.25984251968503935
        },
        {
          "duration": 0.15116279069767558,
          "durationTicks": 13,
          "midi": 62,
          "name": "D4",
          "ticks": 5486,
          "time": 63.7906976744186,
          "velocity": 0.33070866141732286
        },
        {
          "duration": 0.023255813953483084,
          "durationTicks": 2,
          "midi": 51,
          "name": "D#3",
          "ticks": 5500,
          "time": 63.95348837209303,
          "velocity": 0.30708661417322836
        },
        {
          "duration": 0.02325581395349019,
          "durationTicks": 2,
          "midi": 61,
          "name": "C#4",
          "ticks": 5501,
          "time": 63.96511627906977,
          "velocity": 0.3543307086614173
        },
        {
          "duration": 0.02325581395349019,
          "durationTicks": 2,
          "midi": 42,
          "name": "F#2",
          "ticks": 5502,
          "time": 63.97674418604651,
          "velocity": 0.2992125984251969
        },
        {
          "duration": 0.06976744186047057,
          "durationTicks": 6,
          "midi": 100,
          "name": "E7",
          "ticks": 5502,
          "time": 63.97674418604651,
          "velocity": 0.07086614173228346
        },
        {
          "duration": 0.081395348837205,
          "durationTicks": 7,
          "midi": 62,
          "name": "D4",
          "ticks": 5503,
          "time": 63.98837209302326,
          "velocity": 0.3700787401574803
        },
        {
          "duration": 0.023255813953483084,
          "durationTicks": 2,
          "midi": 45,
          "name": "A2",
          "ticks": 5504,
          "time": 64,
          "velocity": 0.2283464566929134
        },
        {
          "duration": 0.023255813953497295,
          "durationTicks": 2,
          "midi": 44,
          "name": "G#2",
          "ticks": 5506,
          "time": 64.02325581395348,
          "velocity": 0.25984251968503935
        },
        {
          "duration": 0.023255813953483084,
          "durationTicks": 2,
          "midi": 44,
          "name": "G#2",
          "ticks": 5510,
          "time": 64.06976744186046,
          "velocity": 0.2440944881889764
        },
        {
          "duration": 0.023255813953483084,
          "durationTicks": 2,
          "midi": 61,
          "name": "C#4",
          "ticks": 5510,
          "time": 64.06976744186046,
          "velocity": 0.25984251968503935
        },
        {
          "duration": 0.06976744186046346,
          "durationTicks": 6,
          "midi": 60,
          "name": "C4",
          "ticks": 5514,
          "time": 64.11627906976744,
          "velocity": 0.09448818897637795
        },
        {
          "duration": 0.5232558139534973,
          "durationTicks": 45,
          "midi": 64,
          "name": "E4",
          "ticks": 5516,
          "time": 64.13953488372093,
          "velocity": 0.10236220472440945
        },
        {
          "duration": 0.1860465116279073,
          "durationTicks": 16,
          "midi": 45,
          "name": "A2",
          "ticks": 5524,
          "time": 64.23255813953489,
          "velocity": 0.1732283464566929
        },
        {
          "duration": 0.05813953488372192,
          "durationTicks": 5,
          "midi": 52,
          "name": "E3",
          "ticks": 5528,
          "time": 64.27906976744185,
          "velocity": 0.10236220472440945
        },
        {
          "duration": 0.034883720930224626,
          "durationTicks": 3,
          "midi": 52,
          "name": "E3",
          "ticks": 5540,
          "time": 64.4186046511628,
          "velocity": 0.1889763779527559
        },
        {
          "duration": 0.6744186046511658,
          "durationTicks": 58,
          "midi": 57,
          "name": "A3",
          "ticks": 5541,
          "time": 64.43023255813954,
          "velocity": 0.14173228346456693
        },
        {
          "duration": 0.023255813953497295,
          "durationTicks": 2,
          "midi": 44,
          "name": "G#2",
          "ticks": 5543,
          "time": 64.45348837209302,
          "velocity": 0.2283464566929134
        },
        {
          "duration": 0.08139534883721922,
          "durationTicks": 7,
          "midi": 45,
          "name": "A2",
          "ticks": 5560,
          "time": 64.65116279069767,
          "velocity": 0.16535433070866143
        },
        {
          "duration": 0.081395348837205,
          "durationTicks": 7,
          "midi": 52,
          "name": "E3",
          "ticks": 5585,
          "time": 64.94186046511628,
          "velocity": 0.18110236220472442
        },
        {
          "duration": 0.023255813953483084,
          "durationTicks": 2,
          "midi": 44,
          "name": "G#2",
          "ticks": 5594,
          "time": 65.04651162790698,
          "velocity": 0.23622047244094488
        },
        {
          "duration": 0.04651162790698038,
          "durationTicks": 4,
          "midi": 52,
          "name": "E3",
          "ticks": 5600,
          "time": 65.11627906976744,
          "velocity": 0.07874015748031496
        },
        {
          "duration": 0.023255813953483084,
          "durationTicks": 2,
          "midi": 52,
          "name": "E3",
          "ticks": 5611,
          "time": 65.24418604651163,
          "velocity": 0.2283464566929134
        },
        {
          "duration": 0.46511627906976116,
          "durationTicks": 40,
          "midi": 60,
          "name": "C4",
          "ticks": 5611,
          "time": 65.24418604651163,
          "velocity": 0.1732283464566929
        },
        {
          "duration": 0.023255813953497295,
          "durationTicks": 2,
          "midi": 44,
          "name": "G#2",
          "ticks": 5614,
          "time": 65.27906976744185,
          "velocity": 0.2440944881889764
        },
        {
          "duration": 0.06976744186046346,
          "durationTicks": 6,
          "midi": 52,
          "name": "E3",
          "ticks": 5615,
          "time": 65.29069767441861,
          "velocity": 0.11811023622047244
        },
        {
          "duration": 0.03488372093023884,
          "durationTicks": 3,
          "midi": 44,
          "name": "G#2",
          "ticks": 5617,
          "time": 65.31395348837209,
          "velocity": 0.25196850393700787
        },
        {
          "duration": 0.023255813953483084,
          "durationTicks": 2,
          "midi": 44,
          "name": "G#2",
          "ticks": 5622,
          "time": 65.37209302325581,
          "velocity": 0.2283464566929134
        },
        {
          "duration": 0.04651162790698038,
          "durationTicks": 4,
          "midi": 45,
          "name": "A2",
          "ticks": 5634,
          "time": 65.51162790697674,
          "velocity": 0.18110236220472442
        },
        {
          "duration": 0.10465116279068809,
          "durationTicks": 9,
          "midi": 52,
          "name": "E3",
          "ticks": 5636,
          "time": 65.53488372093024,
          "velocity": 0.2204724409448819
        },
        {
          "duration": 0.081395348837205,
          "durationTicks": 7,
          "midi": 45,
          "name": "A2",
          "ticks": 5643,
          "time": 65.61627906976744,
          "velocity": 0.18110236220472442
        },
        {
          "duration": 0.04651162790698038,
          "durationTicks": 4,
          "midi": 52,
          "name": "E3",
          "ticks": 5651,
          "time": 65.70930232558139,
          "velocity": 0.1968503937007874
        },
        {
          "duration": 0.034883720930224626,
          "durationTicks": 3,
          "midi": 44,
          "name": "G#2",
          "ticks": 5652,
          "time": 65.72093023255815,
          "velocity": 0.2125984251968504
        },
        {
          "duration": 0.3139534883720927,
          "durationTicks": 27,
          "midi": 57,
          "name": "A3",
          "ticks": 5654,
          "time": 65.74418604651163,
          "velocity": 0.09448818897637795
        },
        {
          "duration": 0.06976744186047767,
          "durationTicks": 6,
          "midi": 45,
          "name": "A2",
          "ticks": 5673,
          "time": 65.96511627906976,
          "velocity": 0.14173228346456693
        },
        {
          "duration": 0.3139534883720927,
          "durationTicks": 27,
          "midi": 57,
          "name": "A3",
          "ticks": 5682,
          "time": 66.06976744186046,
          "velocity": 0.11023622047244094
        },
        {
          "duration": 0.09302325581396076,
          "durationTicks": 8,
          "midi": 52,
          "name": "E3",
          "ticks": 5694,
          "time": 66.20930232558139,
          "velocity": 0.2283464566929134
        },
        {
          "duration": 0.04651162790698038,
          "durationTicks": 4,
          "midi": 45,
          "name": "A2",
          "ticks": 5700,
          "time": 66.27906976744185,
          "velocity": 0.13385826771653545
        },
        {
          "duration": 0.03488372093023884,
          "durationTicks": 3,
          "midi": 51,
          "name": "D#3",
          "ticks": 5708,
          "time": 66.37209302325581,
          "velocity": 0.2125984251968504
        },
        {
          "duration": 0.034883720930224626,
          "durationTicks": 3,
          "midi": 42,
          "name": "F#2",
          "ticks": 5713,
          "time": 66.43023255813954,
          "velocity": 0.25196850393700787
        },
        {
          "duration": 0.05813953488372192,
          "durationTicks": 5,
          "midi": 52,
          "name": "E3",
          "ticks": 5713,
          "time": 66.43023255813954,
          "velocity": 0.2125984251968504
        },
        {
          "duration": 0.034883720930224626,
          "durationTicks": 3,
          "midi": 41,
          "name": "F2",
          "ticks": 5718,
          "time": 66.48837209302326,
          "velocity": 0.2677165354330709
        },
        {
          "duration": 0.04651162790698038,
          "durationTicks": 4,
          "midi": 60,
          "name": "C4",
          "ticks": 5718,
          "time": 66.48837209302326,
          "velocity": 0.2125984251968504
        },
        {
          "duration": 0.4186046511627808,
          "durationTicks": 36,
          "midi": 67,
          "name": "G4",
          "ticks": 5723,
          "time": 66.54651162790698,
          "velocity": 0.16535433070866143
        },
        {
          "duration": 0.05813953488372192,
          "durationTicks": 5,
          "midi": 42,
          "name": "F#2",
          "ticks": 5724,
          "time": 66.55813953488372,
          "velocity": 0.4094488188976378
        },
        {
          "duration": 0.05813953488372192,
          "durationTicks": 5,
          "midi": 52,
          "name": "E3",
          "ticks": 5724,
          "time": 66.55813953488372,
          "velocity": 0.16535433070866143
        },
        {
          "duration": 0.03488372093023884,
          "durationTicks": 3,
          "midi": 59,
          "name": "B3",
          "ticks": 5725,
          "time": 66.56976744186046,
          "velocity": 0.25196850393700787
        },
        {
          "duration": 0.05813953488372192,
          "durationTicks": 5,
          "midi": 42,
          "name": "F#2",
          "ticks": 5732,
          "time": 66.65116279069767,
          "velocity": 0.33070866141732286
        },
        {
          "duration": 0.03488372093023884,
          "durationTicks": 3,
          "midi": 43,
          "name": "G2",
          "ticks": 5737,
          "time": 66.70930232558139,
          "velocity": 0.28346456692913385
        },
        {
          "duration": 0.03488372093023884,
          "durationTicks": 3,
          "midi": 59,
          "name": "B3",
          "ticks": 5737,
          "time": 66.70930232558139,
          "velocity": 0.2204724409448819
        },
        {
          "duration": 0.09302325581396076,
          "durationTicks": 8,
          "midi": 43,
          "name": "G2",
          "ticks": 5741,
          "time": 66.75581395348837,
          "velocity": 0.2755905511811024
        },
        {
          "duration": 0.03488372093023884,
          "durationTicks": 3,
          "midi": 59,
          "name": "B3",
          "ticks": 5748,
          "time": 66.83720930232558,
          "velocity": 0.1968503937007874
        },
        {
          "duration": 0.10465116279068809,
          "durationTicks": 9,
          "midi": 52,
          "name": "E3",
          "ticks": 5749,
          "time": 66.84883720930233,
          "velocity": 0.2047244094488189
        },
        {
          "duration": 0.13953488372092693,
          "durationTicks": 12,
          "midi": 43,
          "name": "G2",
          "ticks": 5750,
          "time": 66.86046511627907,
          "velocity": 0.25984251968503935
        },
        {
          "duration": 0.04651162790698038,
          "durationTicks": 4,
          "midi": 60,
          "name": "C4",
          "ticks": 5753,
          "time": 66.8953488372093,
          "velocity": 0.16535433070866143
        },
        {
          "duration": 0.023255813953483084,
          "durationTicks": 2,
          "midi": 42,
          "name": "F#2",
          "ticks": 5762,
          "time": 67,
          "velocity": 0.25984251968503935
        },
        {
          "duration": 0.04651162790698038,
          "durationTicks": 4,
          "midi": 52,
          "name": "E3",
          "ticks": 5762,
          "time": 67,
          "velocity": 0.29133858267716534
        },
        {
          "duration": 0.4534883720930196,
          "durationTicks": 39,
          "midi": 67,
          "name": "G4",
          "ticks": 5762,
          "time": 67,
          "velocity": 0.2125984251968504
        },
        {
          "duration": 0.03488372093023884,
          "durationTicks": 3,
          "midi": 43,
          "name": "G2",
          "ticks": 5764,
          "time": 67.02325581395348,
          "velocity": 0.2204724409448819
        },
        {
          "duration": 0.1046511627907023,
          "durationTicks": 9,
          "midi": 43,
          "name": "G2",
          "ticks": 5768,
          "time": 67.06976744186046,
          "velocity": 0.2440944881889764
        },
        {
          "duration": 0.1046511627907023,
          "durationTicks": 9,
          "midi": 57,
          "name": "A3",
          "ticks": 5769,
          "time": 67.0813953488372,
          "velocity": 0.1732283464566929
        },
        {
          "duration": 0.1046511627907023,
          "durationTicks": 9,
          "midi": 43,
          "name": "G2",
          "ticks": 5778,
          "time": 67.18604651162791,
          "velocity": 0.2125984251968504
        },
        {
          "duration": 0.25581395348837077,
          "durationTicks": 22,
          "midi": 57,
          "name": "A3",
          "ticks": 5779,
          "time": 67.19767441860465,
          "velocity": 0.18110236220472442
        },
        {
          "duration": 0.023255813953483084,
          "durationTicks": 2,
          "midi": 44,
          "name": "G#2",
          "ticks": 5787,
          "time": 67.29069767441861,
          "velocity": 0.23622047244094488
        },
        {
          "duration": 0.03488372093023884,
          "durationTicks": 3,
          "midi": 52,
          "name": "E3",
          "ticks": 5789,
          "time": 67.31395348837209,
          "velocity": 0.16535433070866143
        },
        {
          "duration": 0.04651162790698038,
          "durationTicks": 4,
          "midi": 42,
          "name": "F#2",
          "ticks": 5790,
          "time": 67.32558139534883,
          "velocity": 0.2677165354330709
        },
        {
          "duration": 0.05813953488372192,
          "durationTicks": 5,
          "midi": 43,
          "name": "G2",
          "ticks": 5798,
          "time": 67.4186046511628,
          "velocity": 0.23622047244094488
        },
        {
          "duration": 0.034883720930224626,
          "durationTicks": 3,
          "midi": 42,
          "name": "F#2",
          "ticks": 5803,
          "time": 67.47674418604652,
          "velocity": 0.2755905511811024
        },
        {
          "duration": 0.2674418604651123,
          "durationTicks": 23,
          "midi": 67,
          "name": "G4",
          "ticks": 5804,
          "time": 67.48837209302326,
          "velocity": 0.11023622047244094
        },
        {
          "duration": 0.03488372093023884,
          "durationTicks": 3,
          "midi": 52,
          "name": "E3",
          "ticks": 5806,
          "time": 67.51162790697674,
          "velocity": 0.13385826771653545
        },
        {
          "duration": 0.034883720930224626,
          "durationTicks": 3,
          "midi": 42,
          "name": "F#2",
          "ticks": 5809,
          "time": 67.54651162790698,
          "velocity": 0.1732283464566929
        },
        {
          "duration": 0.04651162790698038,
          "durationTicks": 4,
          "midi": 41,
          "name": "F2",
          "ticks": 5812,
          "time": 67.5813953488372,
          "velocity": 0.1889763779527559
        },
        {
          "duration": 0.04651162790698038,
          "durationTicks": 4,
          "midi": 52,
          "name": "E3",
          "ticks": 5813,
          "time": 67.59302325581395,
          "velocity": 0.14960629921259844
        },
        {
          "duration": 0.05813953488372192,
          "durationTicks": 5,
          "midi": 42,
          "name": "F#2",
          "ticks": 5816,
          "time": 67.62790697674419,
          "velocity": 0.16535433070866143
        },
        {
          "duration": 0.05813953488372192,
          "durationTicks": 5,
          "midi": 41,
          "name": "F2",
          "ticks": 5821,
          "time": 67.68604651162791,
          "velocity": 0.14173228346456693
        },
        {
          "duration": 0.034883720930224626,
          "durationTicks": 3,
          "midi": 42,
          "name": "F#2",
          "ticks": 5826,
          "time": 67.74418604651163,
          "velocity": 0.14960629921259844
        },
        {
          "duration": 0.023255813953497295,
          "durationTicks": 2,
          "midi": 53,
          "name": "F3",
          "ticks": 5829,
          "time": 67.77906976744185,
          "velocity": 0.25984251968503935
        },
        {
          "duration": 0.40697674418605345,
          "durationTicks": 35,
          "midi": 67,
          "name": "G4",
          "ticks": 5829,
          "time": 67.77906976744185,
          "velocity": 0.2283464566929134
        },
        {
          "duration": 0.16279069767441,
          "durationTicks": 14,
          "midi": 62,
          "name": "D4",
          "ticks": 5830,
          "time": 67.79069767441861,
          "velocity": 0.11811023622047244
        },
        {
          "duration": 0.04651162790696617,
          "durationTicks": 4,
          "midi": 42,
          "name": "F#2",
          "ticks": 5835,
          "time": 67.84883720930233,
          "velocity": 0.1889763779527559
        },
        {
          "duration": 0.03488372093023884,
          "durationTicks": 3,
          "midi": 51,
          "name": "D#3",
          "ticks": 5838,
          "time": 67.88372093023256,
          "velocity": 0.16535433070866143
        },
        {
          "duration": 0.03488372093023884,
          "durationTicks": 3,
          "midi": 41,
          "name": "F2",
          "ticks": 5839,
          "time": 67.8953488372093,
          "velocity": 0.16535433070866143
        },
        {
          "duration": 0.034883720930224626,
          "durationTicks": 3,
          "midi": 42,
          "name": "F#2",
          "ticks": 5842,
          "time": 67.93023255813954,
          "velocity": 0.14173228346456693
        },
        {
          "duration": 0.03488372093023884,
          "durationTicks": 3,
          "midi": 51,
          "name": "D#3",
          "ticks": 5843,
          "time": 67.94186046511628,
          "velocity": 0.10236220472440945
        },
        {
          "duration": 0.03488372093023884,
          "durationTicks": 3,
          "midi": 41,
          "name": "F2",
          "ticks": 5845,
          "time": 67.96511627906976,
          "velocity": 0.11023622047244094
        },
        {
          "duration": 0.034883720930224626,
          "durationTicks": 3,
          "midi": 41,
          "name": "F2",
          "ticks": 5853,
          "time": 68.05813953488372,
          "velocity": 0.07086614173228346
        },
        {
          "duration": 0.11627906976744384,
          "durationTicks": 10,
          "midi": 50,
          "name": "D3",
          "ticks": 5856,
          "time": 68.09302325581395,
          "velocity": 0.15748031496062992
        },
        {
          "duration": 0.023255813953497295,
          "durationTicks": 2,
          "midi": 51,
          "name": "D#3",
          "ticks": 5866,
          "time": 68.20930232558139,
          "velocity": 0.2440944881889764
        },
        {
          "duration": 0.4186046511627808,
          "durationTicks": 36,
          "midi": 65,
          "name": "F4",
          "ticks": 5867,
          "time": 68.22093023255815,
          "velocity": 0.11023622047244094
        },
        {
          "duration": 0.04651162790696617,
          "durationTicks": 4,
          "midi": 52,
          "name": "E3",
          "ticks": 5868,
          "time": 68.23255813953489,
          "velocity": 0.30708661417322836
        },
        {
          "duration": 0.19767441860464885,
          "durationTicks": 17,
          "midi": 84,
          "name": "C6",
          "ticks": 5868,
          "time": 68.23255813953489,
          "velocity": 0.08661417322834646
        },
        {
          "duration": 0.023255813953497295,
          "durationTicks": 2,
          "midi": 51,
          "name": "D#3",
          "ticks": 5872,
          "time": 68.27906976744185,
          "velocity": 0.2283464566929134
        },
        {
          "duration": 0.5930232558139608,
          "durationTicks": 51,
          "midi": 57,
          "name": "A3",
          "ticks": 5872,
          "time": 68.27906976744185,
          "velocity": 0.14960629921259844
        },
        {
          "duration": 0.034883720930224626,
          "durationTicks": 3,
          "midi": 42,
          "name": "F#2",
          "ticks": 5873,
          "time": 68.29069767441861,
          "velocity": 0.10236220472440945
        },
        {
          "duration": 0.034883720930224626,
          "durationTicks": 3,
          "midi": 51,
          "name": "D#3",
          "ticks": 5878,
          "time": 68.34883720930233,
          "velocity": 0.15748031496062992
        },
        {
          "duration": 0.43023255813953654,
          "durationTicks": 37,
          "midi": 62,
          "name": "D4",
          "ticks": 5899,
          "time": 68.59302325581395,
          "velocity": 0.3464566929133858
        },
        {
          "duration": 0.03488372093023884,
          "durationTicks": 3,
          "midi": 42,
          "name": "F#2",
          "ticks": 5902,
          "time": 68.62790697674419,
          "velocity": 0.14173228346456693
        },
        {
          "duration": 0.03488372093023884,
          "durationTicks": 3,
          "midi": 50,
          "name": "D3",
          "ticks": 5913,
          "time": 68.75581395348837,
          "velocity": 0.14173228346456693
        },
        {
          "duration": 0.034883720930224626,
          "durationTicks": 3,
          "midi": 50,
          "name": "D3",
          "ticks": 5932,
          "time": 68.97674418604652,
          "velocity": 0.10236220472440945
        },
        {
          "duration": 0.023255813953483084,
          "durationTicks": 2,
          "midi": 61,
          "name": "C#4",
          "ticks": 5939,
          "time": 69.05813953488372,
          "velocity": 0.28346456692913385
        },
        {
          "duration": 0.03488372093023884,
          "durationTicks": 3,
          "midi": 52,
          "name": "E3",
          "ticks": 5940,
          "time": 69.06976744186046,
          "velocity": 0.33070866141732286
        },
        {
          "duration": 0.4767441860465169,
          "durationTicks": 41,
          "midi": 62,
          "name": "D4",
          "ticks": 5941,
          "time": 69.0813953488372,
          "velocity": 0.3228346456692913
        },
        {
          "duration": 0.023255813953483084,
          "durationTicks": 2,
          "midi": 44,
          "name": "G#2",
          "ticks": 5945,
          "time": 69.12790697674419,
          "velocity": 0.23622047244094488
        },
        {
          "duration": 0.023255813953483084,
          "durationTicks": 2,
          "midi": 44,
          "name": "G#2",
          "ticks": 5950,
          "time": 69.18604651162791,
          "velocity": 0.2283464566929134
        },
        {
          "duration": 0.023255813953483084,
          "durationTicks": 2,
          "midi": 46,
          "name": "A#2",
          "ticks": 5953,
          "time": 69.22093023255815,
          "velocity": 0.25196850393700787
        },
        {
          "duration": 0.081395348837205,
          "durationTicks": 7,
          "midi": 76,
          "name": "E5",
          "ticks": 5955,
          "time": 69.24418604651163,
          "velocity": 0.09448818897637795
        },
        {
          "duration": 0.023255813953483084,
          "durationTicks": 2,
          "midi": 44,
          "name": "G#2",
          "ticks": 5956,
          "time": 69.25581395348837,
          "velocity": 0.25196850393700787
        },
        {
          "duration": 0.12790697674418539,
          "durationTicks": 11,
          "midi": 45,
          "name": "A2",
          "ticks": 5961,
          "time": 69.31395348837209,
          "velocity": 0.2283464566929134
        },
        {
          "duration": 0.10465116279068809,
          "durationTicks": 9,
          "midi": 52,
          "name": "E3",
          "ticks": 5969,
          "time": 69.40697674418605,
          "velocity": 0.2283464566929134
        },
        {
          "duration": 0.1046511627907023,
          "durationTicks": 9,
          "midi": 45,
          "name": "A2",
          "ticks": 5973,
          "time": 69.45348837209302,
          "velocity": 0.2047244094488189
        },
        {
          "duration": 0.023255813953483084,
          "durationTicks": 2,
          "midi": 46,
          "name": "A#2",
          "ticks": 5982,
          "time": 69.55813953488372,
          "velocity": 0.2755905511811024
        },
        {
          "duration": 0.43023255813953654,
          "durationTicks": 37,
          "midi": 76,
          "name": "E5",
          "ticks": 5983,
          "time": 69.56976744186046,
          "velocity": 0.13385826771653545
        },
        {
          "duration": 0.023255813953497295,
          "durationTicks": 2,
          "midi": 43,
          "name": "G2",
          "ticks": 5984,
          "time": 69.5813953488372,
          "velocity": 0.25196850393700787
        },
        {
          "duration": 0.023255813953497295,
          "durationTicks": 2,
          "midi": 52,
          "name": "E3",
          "ticks": 5984,
          "time": 69.5813953488372,
          "velocity": 0.2677165354330709
        },
        {
          "duration": 0.5232558139534973,
          "durationTicks": 45,
          "midi": 57,
          "name": "A3",
          "ticks": 5984,
          "time": 69.5813953488372,
          "velocity": 0.16535433070866143
        },
        {
          "duration": 0.5348837209302388,
          "durationTicks": 46,
          "midi": 83,
          "name": "B5",
          "ticks": 5984,
          "time": 69.5813953488372,
          "velocity": 0.12598425196850394
        },
        {
          "duration": 0.6511627906976685,
          "durationTicks": 56,
          "midi": 64,
          "name": "E4",
          "ticks": 5986,
          "time": 69.6046511627907,
          "velocity": 0.11811023622047244
        },
        {
          "duration": 0.081395348837205,
          "durationTicks": 7,
          "midi": 52,
          "name": "E3",
          "ticks": 5988,
          "time": 69.62790697674419,
          "velocity": 0.15748031496062992
        },
        {
          "duration": 0.06976744186047767,
          "durationTicks": 6,
          "midi": 45,
          "name": "A2",
          "ticks": 6001,
          "time": 69.77906976744185,
          "velocity": 0.18110236220472442
        },
        {
          "duration": 0.04651162790698038,
          "durationTicks": 4,
          "midi": 44,
          "name": "G#2",
          "ticks": 6009,
          "time": 69.87209302325581,
          "velocity": 0.2204724409448819
        },
        {
          "duration": 0.081395348837205,
          "durationTicks": 7,
          "midi": 52,
          "name": "E3",
          "ticks": 6026,
          "time": 70.06976744186046,
          "velocity": 0.1889763779527559
        },
        {
          "duration": 0.09302325581396076,
          "durationTicks": 8,
          "midi": 45,
          "name": "A2",
          "ticks": 6028,
          "time": 70.09302325581395,
          "velocity": 0.14173228346456693
        },
        {
          "duration": 0.04651162790698038,
          "durationTicks": 4,
          "midi": 52,
          "name": "E3",
          "ticks": 6036,
          "time": 70.18604651162791,
          "velocity": 0.14960629921259844
        },
        {
          "duration": 0.04651162790698038,
          "durationTicks": 4,
          "midi": 42,
          "name": "F#2",
          "ticks": 6051,
          "time": 70.36046511627907,
          "velocity": 0.30708661417322836
        },
        {
          "duration": 0.3139534883720927,
          "durationTicks": 27,
          "midi": 60,
          "name": "C4",
          "ticks": 6051,
          "time": 70.36046511627907,
          "velocity": 0.14173228346456693
        },
        {
          "duration": 0.034883720930224626,
          "durationTicks": 3,
          "midi": 42,
          "name": "F#2",
          "ticks": 6057,
          "time": 70.43023255813954,
          "velocity": 0.23622047244094488
        },
        {
          "duration": 0.03488372093023884,
          "durationTicks": 3,
          "midi": 44,
          "name": "G#2",
          "ticks": 6079,
          "time": 70.68604651162791,
          "velocity": 0.16535433070866143
        },
        {
          "duration": 0.06976744186046346,
          "durationTicks": 6,
          "midi": 52,
          "name": "E3",
          "ticks": 6080,
          "time": 70.69767441860465,
          "velocity": 0.14173228346456693
        },
        {
          "duration": 0.5348837209302246,
          "durationTicks": 46,
          "midi": 57,
          "name": "A3",
          "ticks": 6093,
          "time": 70.84883720930233,
          "velocity": 0.11023622047244094
        },
        {
          "duration": 0.081395348837205,
          "durationTicks": 7,
          "midi": 45,
          "name": "A2",
          "ticks": 6100,
          "time": 70.93023255813954,
          "velocity": 0.13385826771653545
        },
        {
          "duration": 0.05813953488372192,
          "durationTicks": 5,
          "midi": 52,
          "name": "E3",
          "ticks": 6107,
          "time": 71.01162790697674,
          "velocity": 0.18110236220472442
        },
        {
          "duration": 0.081395348837205,
          "durationTicks": 7,
          "midi": 45,
          "name": "A2",
          "ticks": 6110,
          "time": 71.04651162790698,
          "velocity": 0.09448818897637795
        },
        {
          "duration": 0.034883720930224626,
          "durationTicks": 3,
          "midi": 44,
          "name": "G#2",
          "ticks": 6125,
          "time": 71.22093023255815,
          "velocity": 0.14173228346456693
        },
        {
          "duration": 0.04651162790698038,
          "durationTicks": 4,
          "midi": 52,
          "name": "E3",
          "ticks": 6129,
          "time": 71.26744186046511,
          "velocity": 0.14960629921259844
        },
        {
          "duration": 0.05813953488372192,
          "durationTicks": 5,
          "midi": 51,
          "name": "D#3",
          "ticks": 6133,
          "time": 71.31395348837209,
          "velocity": 0.2440944881889764
        },
        {
          "duration": 0.03488372093023884,
          "durationTicks": 3,
          "midi": 51,
          "name": "D#3",
          "ticks": 6145,
          "time": 71.45348837209302,
          "velocity": 0.13385826771653545
        },
        {
          "duration": 0.023255813953483084,
          "durationTicks": 2,
          "midi": 61,
          "name": "C#4",
          "ticks": 6158,
          "time": 71.6046511627907,
          "velocity": 0.31496062992125984
        },
        {
          "duration": 0.04651162790698038,
          "durationTicks": 4,
          "midi": 41,
          "name": "F2",
          "ticks": 6159,
          "time": 71.61627906976744,
          "velocity": 0.3858267716535433
        },
        {
          "duration": 0.3372093023255758,
          "durationTicks": 29,
          "midi": 54,
          "name": "F#3",
          "ticks": 6160,
          "time": 71.62790697674419,
          "velocity": 0.16535433070866143
        },
        {
          "duration": 0.40697674418605345,
          "durationTicks": 35,
          "midi": 62,
          "name": "D4",
          "ticks": 6160,
          "time": 71.62790697674419,
          "velocity": 0.3464566929133858
        },
        {
          "duration": 0.13953488372092693,
          "durationTicks": 12,
          "midi": 42,
          "name": "F#2",
          "ticks": 6163,
          "time": 71.66279069767442,
          "velocity": 0.4015748031496063
        },
        {
          "duration": 0.034883720930224626,
          "durationTicks": 3,
          "midi": 43,
          "name": "G2",
          "ticks": 6175,
          "time": 71.80232558139535,
          "velocity": 0.2047244094488189
        },
        {
          "duration": 0.3139534883720927,
          "durationTicks": 27,
          "midi": 42,
          "name": "F#2",
          "ticks": 6178,
          "time": 71.83720930232558,
          "velocity": 0.25984251968503935
        },
        {
          "duration": 0.1860465116279073,
          "durationTicks": 16,
          "midi": 62,
          "name": "D4",
          "ticks": 6201,
          "time": 72.1046511627907,
          "velocity": 0.12598425196850394
        },
        {
          "duration": 0.17441860465116577,
          "durationTicks": 15,
          "midi": 42,
          "name": "F#2",
          "ticks": 6208,
          "time": 72.18604651162791,
          "velocity": 0.2047244094488189
        },
        {
          "duration": 0.17441860465116577,
          "durationTicks": 15,
          "midi": 42,
          "name": "F#2",
          "ticks": 6225,
          "time": 72.38372093023256,
          "velocity": 0.11023622047244094
        },
        {
          "duration": 0.03488372093023884,
          "durationTicks": 3,
          "midi": 41,
          "name": "F2",
          "ticks": 6269,
          "time": 72.8953488372093,
          "velocity": 0.33858267716535434
        },
        {
          "duration": 0.15116279069766847,
          "durationTicks": 13,
          "midi": 54,
          "name": "F#3",
          "ticks": 6270,
          "time": 72.90697674418605,
          "velocity": 0.10236220472440945
        },
        {
          "duration": 0.12790697674418539,
          "durationTicks": 11,
          "midi": 42,
          "name": "F#2",
          "ticks": 6272,
          "time": 72.93023255813954,
          "velocity": 0.3464566929133858
        },
        {
          "duration": 0.034883720930224626,
          "durationTicks": 3,
          "midi": 42,
          "name": "F#2",
          "ticks": 6287,
          "time": 73.1046511627907,
          "velocity": 0.1732283464566929
        },
        {
          "duration": 0.05813953488372192,
          "durationTicks": 5,
          "midi": 43,
          "name": "G2",
          "ticks": 6290,
          "time": 73.13953488372093,
          "velocity": 0.14960629921259844
        },
        {
          "duration": 0.06976744186047767,
          "durationTicks": 6,
          "midi": 43,
          "name": "G2",
          "ticks": 6302,
          "time": 73.27906976744185,
          "velocity": 0.09448818897637795
        },
        {
          "duration": 0.04651162790696617,
          "durationTicks": 4,
          "midi": 42,
          "name": "F#2",
          "ticks": 6308,
          "time": 73.34883720930233,
          "velocity": 0.1889763779527559
        },
        {
          "duration": 0.023255813953483084,
          "durationTicks": 2,
          "midi": 61,
          "name": "C#4",
          "ticks": 6310,
          "time": 73.37209302325581,
          "velocity": 0.23622047244094488
        },
        {
          "duration": 0.03488372093023884,
          "durationTicks": 3,
          "midi": 52,
          "name": "E3",
          "ticks": 6312,
          "time": 73.3953488372093,
          "velocity": 0.1889763779527559
        },
        {
          "duration": 0.3953488372093119,
          "durationTicks": 34,
          "midi": 60,
          "name": "C4",
          "ticks": 6312,
          "time": 73.3953488372093,
          "velocity": 0.31496062992125984
        },
        {
          "duration": 0.04651162790698038,
          "durationTicks": 4,
          "midi": 42,
          "name": "F#2",
          "ticks": 6316,
          "time": 73.44186046511628,
          "velocity": 0.2125984251968504
        },
        {
          "duration": 0.034883720930224626,
          "durationTicks": 3,
          "midi": 43,
          "name": "G2",
          "ticks": 6324,
          "time": 73.53488372093024,
          "velocity": 0.12598425196850394
        },
        {
          "duration": 0.11627906976744384,
          "durationTicks": 10,
          "midi": 43,
          "name": "G2",
          "ticks": 6328,
          "time": 73.5813953488372,
          "velocity": 0.10236220472440945
        },
        {
          "duration": 0.05813953488372192,
          "durationTicks": 5,
          "midi": 43,
          "name": "G2",
          "ticks": 6346,
          "time": 73.79069767441861,
          "velocity": 0.10236220472440945
        },
        {
          "duration": 0.034883720930224626,
          "durationTicks": 3,
          "midi": 59,
          "name": "B3",
          "ticks": 6346,
          "time": 73.79069767441861,
          "velocity": 0.1889763779527559
        },
        {
          "duration": 0.2674418604651123,
          "durationTicks": 23,
          "midi": 59,
          "name": "B3",
          "ticks": 6353,
          "time": 73.87209302325581,
          "velocity": 0.29133858267716534
        },
        {
          "duration": 0.04651162790698038,
          "durationTicks": 4,
          "midi": 41,
          "name": "F2",
          "ticks": 6355,
          "time": 73.8953488372093,
          "velocity": 0.09448818897637795
        },
        {
          "duration": 0.03488372093023884,
          "durationTicks": 3,
          "midi": 51,
          "name": "D#3",
          "ticks": 6361,
          "time": 73.96511627906976,
          "velocity": 0.16535433070866143
        },
        {
          "duration": 0.034883720930224626,
          "durationTicks": 3,
          "midi": 51,
          "name": "D#3",
          "ticks": 6367,
          "time": 74.03488372093024,
          "velocity": 0.11811023622047244
        },
        {
          "duration": 0.03488372093023884,
          "durationTicks": 3,
          "midi": 51,
          "name": "D#3",
          "ticks": 6375,
          "time": 74.12790697674419,
          "velocity": 0.14173228346456693
        },
        {
          "duration": 0.48837209302325846,
          "durationTicks": 42,
          "midi": 57,
          "name": "A3",
          "ticks": 6380,
          "time": 74.18604651162791,
          "velocity": 0.28346456692913385
        },
        {
          "duration": 0.03488372093023884,
          "durationTicks": 3,
          "midi": 44,
          "name": "G#2",
          "ticks": 6381,
          "time": 74.19767441860465,
          "velocity": 0.2440944881889764
        },
        {
          "duration": 0.04651162790698038,
          "durationTicks": 4,
          "midi": 45,
          "name": "A2",
          "ticks": 6392,
          "time": 74.32558139534883,
          "velocity": 0.2125984251968504
        },
        {
          "duration": 0.06976744186046346,
          "durationTicks": 6,
          "midi": 52,
          "name": "E3",
          "ticks": 6395,
          "time": 74.36046511627907,
          "velocity": 0.2125984251968504
        },
        {
          "duration": 0.2093023255814046,
          "durationTicks": 18,
          "midi": 45,
          "name": "A2",
          "ticks": 6403,
          "time": 74.45348837209302,
          "velocity": 0.1732283464566929
        },
        {
          "duration": 0.7325581395348877,
          "durationTicks": 63,
          "midi": 57,
          "name": "A3",
          "ticks": 6425,
          "time": 74.70930232558139,
          "velocity": 0.23622047244094488
        },
        {
          "duration": 0.081395348837205,
          "durationTicks": 7,
          "midi": 45,
          "name": "A2",
          "ticks": 6445,
          "time": 74.94186046511628,
          "velocity": 0.14173228346456693
        },
        {
          "duration": 0.034883720930224626,
          "durationTicks": 3,
          "midi": 45,
          "name": "A2",
          "ticks": 6453,
          "time": 75.03488372093024,
          "velocity": 0.12598425196850394
        },
        {
          "duration": 0.05813953488372192,
          "durationTicks": 5,
          "midi": 45,
          "name": "A2",
          "ticks": 6457,
          "time": 75.0813953488372,
          "velocity": 0.11811023622047244
        },
        {
          "duration": 0.30232558139535115,
          "durationTicks": 26,
          "midi": 45,
          "name": "A2",
          "ticks": 6463,
          "time": 75.15116279069767,
          "velocity": 0.11811023622047244
        },
        {
          "duration": 0.05813953488372192,
          "durationTicks": 5,
          "midi": 52,
          "name": "E3",
          "ticks": 6464,
          "time": 75.16279069767442,
          "velocity": 0.10236220472440945
        },
        {
          "duration": 0.023255813953497295,
          "durationTicks": 2,
          "midi": 51,
          "name": "D#3",
          "ticks": 6489,
          "time": 75.45348837209302,
          "velocity": 0.2283464566929134
        },
        {
          "duration": 0.13953488372092693,
          "durationTicks": 12,
          "midi": 57,
          "name": "A3",
          "ticks": 6489,
          "time": 75.45348837209302,
          "velocity": 0.13385826771653545
        },
        {
          "duration": 0.17441860465116577,
          "durationTicks": 15,
          "midi": 40,
          "name": "E2",
          "ticks": 6490,
          "time": 75.46511627906976,
          "velocity": 0.2283464566929134
        },
        {
          "duration": 0.06976744186046346,
          "durationTicks": 6,
          "midi": 52,
          "name": "E3",
          "ticks": 6491,
          "time": 75.47674418604652,
          "velocity": 0.25196850393700787
        },
        {
          "duration": 0.3372093023255758,
          "durationTicks": 29,
          "midi": 57,
          "name": "A3",
          "ticks": 6502,
          "time": 75.6046511627907,
          "velocity": 0.1732283464566929
        },
        {
          "duration": 0.03488372093023884,
          "durationTicks": 3,
          "midi": 41,
          "name": "F2",
          "ticks": 6505,
          "time": 75.63953488372093,
          "velocity": 0.25196850393700787
        },
        {
          "duration": 0.04651162790698038,
          "durationTicks": 4,
          "midi": 42,
          "name": "F#2",
          "ticks": 6508,
          "time": 75.67441860465117,
          "velocity": 0.23622047244094488
        },
        {
          "duration": 0.05813953488372192,
          "durationTicks": 5,
          "midi": 42,
          "name": "F#2",
          "ticks": 6517,
          "time": 75.77906976744185,
          "velocity": 0.16535433070866143
        },
        {
          "duration": 0.03488372093023884,
          "durationTicks": 3,
          "midi": 42,
          "name": "F#2",
          "ticks": 6527,
          "time": 75.8953488372093,
          "velocity": 0.07874015748031496
        },
        {
          "duration": 0.16279069767442422,
          "durationTicks": 14,
          "midi": 57,
          "name": "A3",
          "ticks": 6532,
          "time": 75.95348837209302,
          "velocity": 0.09448818897637795
        },
        {
          "duration": 0.03488372093023884,
          "durationTicks": 3,
          "midi": 60,
          "name": "C4",
          "ticks": 6532,
          "time": 75.95348837209302,
          "velocity": 0.09448818897637795
        },
        {
          "duration": 0.04651162790696617,
          "durationTicks": 4,
          "midi": 42,
          "name": "F#2",
          "ticks": 6540,
          "time": 76.04651162790698,
          "velocity": 0.07874015748031496
        },
        {
          "duration": 0.03488372093023884,
          "durationTicks": 3,
          "midi": 42,
          "name": "F#2",
          "ticks": 6548,
          "time": 76.13953488372093,
          "velocity": 0.07086614173228346
        },
        {
          "duration": 0.12790697674418539,
          "durationTicks": 11,
          "midi": 52,
          "name": "E3",
          "ticks": 6548,
          "time": 76.13953488372093,
          "velocity": 0.2047244094488189
        },
        {
          "duration": 0.13953488372092693,
          "durationTicks": 12,
          "midi": 57,
          "name": "A3",
          "ticks": 6562,
          "time": 76.30232558139535,
          "velocity": 0.08661417322834646
        },
        {
          "duration": 0.13953488372092693,
          "durationTicks": 12,
          "midi": 52,
          "name": "E3",
          "ticks": 6574,
          "time": 76.44186046511628,
          "velocity": 0.2755905511811024
        },
        {
          "duration": 0.034883720930224626,
          "durationTicks": 3,
          "midi": 41,
          "name": "F2",
          "ticks": 6600,
          "time": 76.74418604651163,
          "velocity": 0.2440944881889764
        },
        {
          "duration": 0.023255813953483084,
          "durationTicks": 2,
          "midi": 51,
          "name": "D#3",
          "ticks": 6600,
          "time": 76.74418604651163,
          "velocity": 0.31496062992125984
        },
        {
          "duration": 0.13953488372094114,
          "durationTicks": 12,
          "midi": 52,
          "name": "E3",
          "ticks": 6602,
          "time": 76.76744186046511,
          "velocity": 0.3779527559055118
        },
        {
          "duration": 0.418604651162795,
          "durationTicks": 36,
          "midi": 62,
          "name": "D4",
          "ticks": 6603,
          "time": 76.77906976744185,
          "velocity": 0.3543307086614173
        },
        {
          "duration": 0.1279069767441996,
          "durationTicks": 11,
          "midi": 100,
          "name": "E7",
          "ticks": 6603,
          "time": 76.77906976744185,
          "velocity": 0.08661417322834646
        },
        {
          "duration": 0.034883720930224626,
          "durationTicks": 3,
          "midi": 39,
          "name": "D#2",
          "ticks": 6604,
          "time": 76.79069767441861,
          "velocity": 0.18110236220472442
        },
        {
          "duration": 0.08139534883721922,
          "durationTicks": 7,
          "midi": 40,
          "name": "E2",
          "ticks": 6607,
          "time": 76.82558139534883,
          "velocity": 0.25984251968503935
        },
        {
          "duration": 0.034883720930224626,
          "durationTicks": 3,
          "midi": 41,
          "name": "F2",
          "ticks": 6614,
          "time": 76.90697674418605,
          "velocity": 0.30708661417322836
        },
        {
          "duration": 0.1046511627907023,
          "durationTicks": 9,
          "midi": 42,
          "name": "F#2",
          "ticks": 6617,
          "time": 76.94186046511628,
          "velocity": 0.2992125984251969
        },
        {
          "duration": 0.12790697674418539,
          "durationTicks": 11,
          "midi": 42,
          "name": "F#2",
          "ticks": 6631,
          "time": 77.1046511627907,
          "velocity": 0.18110236220472442
        },
        {
          "duration": 0.418604651162795,
          "durationTicks": 36,
          "midi": 62,
          "name": "D4",
          "ticks": 6643,
          "time": 77.24418604651163,
          "velocity": 0.3228346456692913
        },
        {
          "duration": 0.16279069767442422,
          "durationTicks": 14,
          "midi": 42,
          "name": "F#2",
          "ticks": 6649,
          "time": 77.31395348837209,
          "velocity": 0.15748031496062992
        },
        {
          "duration": 0.034883720930224626,
          "durationTicks": 3,
          "midi": 42,
          "name": "F#2",
          "ticks": 6668,
          "time": 77.53488372093024,
          "velocity": 0.2283464566929134
        },
        {
          "duration": 0.03488372093023884,
          "durationTicks": 3,
          "midi": 42,
          "name": "F#2",
          "ticks": 6672,
          "time": 77.5813953488372,
          "velocity": 0.16535433070866143
        },
        {
          "duration": 0.034883720930224626,
          "durationTicks": 3,
          "midi": 61,
          "name": "C#4",
          "ticks": 6679,
          "time": 77.66279069767442,
          "velocity": 0.28346456692913385
        },
        {
          "duration": 0.1046511627907023,
          "durationTicks": 9,
          "midi": 42,
          "name": "F#2",
          "ticks": 6681,
          "time": 77.68604651162791,
          "velocity": 0.15748031496062992
        },
        {
          "duration": 0.03488372093023884,
          "durationTicks": 3,
          "midi": 52,
          "name": "E3",
          "ticks": 6681,
          "time": 77.68604651162791,
          "velocity": 0.1732283464566929
        },
        {
          "duration": 0.32558139534883423,
          "durationTicks": 28,
          "midi": 62,
          "name": "D4",
          "ticks": 6682,
          "time": 77.69767441860465,
          "velocity": 0.2992125984251969
        },
        {
          "duration": 0.10465116279068809,
          "durationTicks": 9,
          "midi": 50,
          "name": "D3",
          "ticks": 6685,
          "time": 77.73255813953489,
          "velocity": 0.10236220472440945
        },
        {
          "duration": 0.05813953488370771,
          "durationTicks": 5,
          "midi": 42,
          "name": "F#2",
          "ticks": 6700,
          "time": 77.90697674418605,
          "velocity": 0.10236220472440945
        },
        {
          "duration": 0.03488372093023884,
          "durationTicks": 3,
          "midi": 53,
          "name": "F3",
          "ticks": 6708,
          "time": 78,
          "velocity": 0.25984251968503935
        },
        {
          "duration": 0.03488372093023884,
          "durationTicks": 3,
          "midi": 41,
          "name": "F2",
          "ticks": 6710,
          "time": 78.02325581395348,
          "velocity": 0.3858267716535433
        },
        {
          "duration": 0.023255813953483084,
          "durationTicks": 2,
          "midi": 54,
          "name": "F#3",
          "ticks": 6711,
          "time": 78.03488372093024,
          "velocity": 0.2677165354330709
        },
        {
          "duration": 0.4186046511627808,
          "durationTicks": 36,
          "midi": 62,
          "name": "D4",
          "ticks": 6712,
          "time": 78.04651162790698,
          "velocity": 0.33858267716535434
        },
        {
          "duration": 0.11627906976744384,
          "durationTicks": 10,
          "midi": 42,
          "name": "F#2",
          "ticks": 6713,
          "time": 78.05813953488372,
          "velocity": 0.3858267716535433
        },
        {
          "duration": 0.023255813953483084,
          "durationTicks": 2,
          "midi": 53,
          "name": "F3",
          "ticks": 6713,
          "time": 78.05813953488372,
          "velocity": 0.28346456692913385
        },
        {
          "duration": 0.2906976744185954,
          "durationTicks": 25,
          "midi": 43,
          "name": "G2",
          "ticks": 6723,
          "time": 78.17441860465117,
          "velocity": 0.2204724409448819
        },
        {
          "duration": 0.33720930232559,
          "durationTicks": 29,
          "midi": 60,
          "name": "C4",
          "ticks": 6748,
          "time": 78.46511627906976,
          "velocity": 0.33858267716535434
        },
        {
          "duration": 0.05813953488372192,
          "durationTicks": 5,
          "midi": 52,
          "name": "E3",
          "ticks": 6749,
          "time": 78.47674418604652,
          "velocity": 0.2283464566929134
        },
        {
          "duration": 0.034883720930224626,
          "durationTicks": 3,
          "midi": 42,
          "name": "F#2",
          "ticks": 6750,
          "time": 78.48837209302326,
          "velocity": 0.23622047244094488
        },
        {
          "duration": 0.2325581395348877,
          "durationTicks": 20,
          "midi": 43,
          "name": "G2",
          "ticks": 6756,
          "time": 78.55813953488372,
          "velocity": 0.2125984251968504
        },
        {
          "duration": 0.023255813953483084,
          "durationTicks": 2,
          "midi": 42,
          "name": "F#2",
          "ticks": 6778,
          "time": 78.81395348837209,
          "velocity": 0.25984251968503935
        },
        {
          "duration": 0.04651162790698038,
          "durationTicks": 4,
          "midi": 43,
          "name": "G2",
          "ticks": 6784,
          "time": 78.88372093023256,
          "velocity": 0.18110236220472442
        },
        {
          "duration": 0.04651162790698038,
          "durationTicks": 4,
          "midi": 60,
          "name": "C4",
          "ticks": 6784,
          "time": 78.88372093023256,
          "velocity": 0.2047244094488189
        },
        {
          "duration": 0.32558139534883423,
          "durationTicks": 28,
          "midi": 62,
          "name": "D4",
          "ticks": 6790,
          "time": 78.95348837209302,
          "velocity": 0.3858267716535433
        },
        {
          "duration": 0.034883720930224626,
          "durationTicks": 3,
          "midi": 51,
          "name": "D#3",
          "ticks": 6792,
          "time": 78.97674418604652,
          "velocity": 0.2677165354330709
        },
        {
          "duration": 0.06976744186046346,
          "durationTicks": 6,
          "midi": 41,
          "name": "F2",
          "ticks": 6793,
          "time": 78.98837209302326,
          "velocity": 0.1968503937007874
        },
        {
          "duration": 0.06976744186046346,
          "durationTicks": 6,
          "midi": 50,
          "name": "D3",
          "ticks": 6798,
          "time": 79.04651162790698,
          "velocity": 0.11023622047244094
        },
        {
          "duration": 0.1046511627907023,
          "durationTicks": 9,
          "midi": 50,
          "name": "D3",
          "ticks": 6806,
          "time": 79.13953488372093,
          "velocity": 0.07874015748031496
        },
        {
          "duration": 0.04651162790698038,
          "durationTicks": 4,
          "midi": 44,
          "name": "G#2",
          "ticks": 6817,
          "time": 79.26744186046511,
          "velocity": 0.33858267716535434
        },
        {
          "duration": 0.03488372093023884,
          "durationTicks": 3,
          "midi": 52,
          "name": "E3",
          "ticks": 6818,
          "time": 79.27906976744185,
          "velocity": 0.25984251968503935
        },
        {
          "duration": 0.10465116279068809,
          "durationTicks": 9,
          "midi": 62,
          "name": "D4",
          "ticks": 6819,
          "time": 79.29069767441861,
          "velocity": 0.36220472440944884
        },
        {
          "duration": 0.13953488372092693,
          "durationTicks": 12,
          "midi": 57,
          "name": "A3",
          "ticks": 6820,
          "time": 79.30232558139535,
          "velocity": 0.14960629921259844
        },
        {
          "duration": 0.023255813953483084,
          "durationTicks": 2,
          "midi": 45,
          "name": "A2",
          "ticks": 6821,
          "time": 79.31395348837209,
          "velocity": 0.2440944881889764
        },
        {
          "duration": 0.023255813953497295,
          "durationTicks": 2,
          "midi": 44,
          "name": "G#2",
          "ticks": 6823,
          "time": 79.33720930232558,
          "velocity": 0.2677165354330709
        },
        {
          "duration": 0.023255813953497295,
          "durationTicks": 2,
          "midi": 44,
          "name": "G#2",
          "ticks": 6827,
          "time": 79.38372093023256,
          "velocity": 0.25984251968503935
        },
        {
          "duration": 0.12790697674418539,
          "durationTicks": 11,
          "midi": 45,
          "name": "A2",
          "ticks": 6834,
          "time": 79.46511627906976,
          "velocity": 0.2125984251968504
        },
        {
          "duration": 0.08139534883721922,
          "durationTicks": 7,
          "midi": 52,
          "name": "E3",
          "ticks": 6834,
          "time": 79.46511627906976,
          "velocity": 0.3228346456692913
        },
        {
          "duration": 0.081395348837205,
          "durationTicks": 7,
          "midi": 52,
          "name": "E3",
          "ticks": 6843,
          "time": 79.56976744186046,
          "velocity": 0.1889763779527559
        },
        {
          "duration": 0.1860465116279073,
          "durationTicks": 16,
          "midi": 57,
          "name": "A3",
          "ticks": 6845,
          "time": 79.59302325581395,
          "velocity": 0.10236220472440945
        },
        {
          "duration": 0.06976744186046346,
          "durationTicks": 6,
          "midi": 45,
          "name": "A2",
          "ticks": 6855,
          "time": 79.70930232558139,
          "velocity": 0.33070866141732286
        },
        {
          "duration": 0.034883720930224626,
          "durationTicks": 3,
          "midi": 52,
          "name": "E3",
          "ticks": 6856,
          "time": 79.72093023255815,
          "velocity": 0.09448818897637795
        },
        {
          "duration": 0.023255813953497295,
          "durationTicks": 2,
          "midi": 44,
          "name": "G#2",
          "ticks": 6865,
          "time": 79.82558139534883,
          "velocity": 0.2440944881889764
        },
        {
          "duration": 0.16279069767442422,
          "durationTicks": 14,
          "midi": 52,
          "name": "E3",
          "ticks": 6865,
          "time": 79.82558139534883,
          "velocity": 0.1732283464566929
        },
        {
          "duration": 0.03488372093023884,
          "durationTicks": 3,
          "midi": 44,
          "name": "G#2",
          "ticks": 6869,
          "time": 79.87209302325581,
          "velocity": 0.2283464566929134
        },
        {
          "duration": 0.04651162790698038,
          "durationTicks": 4,
          "midi": 57,
          "name": "A3",
          "ticks": 6875,
          "time": 79.94186046511628,
          "velocity": 0.07086614173228346
        },
        {
          "duration": 0.08139534883721922,
          "durationTicks": 7,
          "midi": 45,
          "name": "A2",
          "ticks": 6893,
          "time": 80.15116279069767,
          "velocity": 0.16535433070866143
        },
        {
          "duration": 0.081395348837205,
          "durationTicks": 7,
          "midi": 52,
          "name": "E3",
          "ticks": 6902,
          "time": 80.25581395348837,
          "velocity": 0.2204724409448819
        },
        {
          "duration": 0.09302325581394655,
          "durationTicks": 8,
          "midi": 45,
          "name": "A2",
          "ticks": 6905,
          "time": 80.29069767441861,
          "velocity": 0.16535433070866143
        },
        {
          "duration": 0.03488372093023884,
          "durationTicks": 3,
          "midi": 52,
          "name": "E3",
          "ticks": 6913,
          "time": 80.38372093023256,
          "velocity": 0.08661417322834646
        },
        {
          "duration": 0.03488372093023884,
          "durationTicks": 3,
          "midi": 45,
          "name": "A2",
          "ticks": 6920,
          "time": 80.46511627906976,
          "velocity": 0.16535433070866143
        },
        {
          "duration": 0.034883720930224626,
          "durationTicks": 3,
          "midi": 45,
          "name": "A2",
          "ticks": 6926,
          "time": 80.53488372093024,
          "velocity": 0.14173228346456693
        },
        {
          "duration": 0.33720930232559,
          "durationTicks": 29,
          "midi": 45,
          "name": "A2",
          "ticks": 6941,
          "time": 80.70930232558139,
          "velocity": 0.14173228346456693
        },
        {
          "duration": 0.04651162790698038,
          "durationTicks": 4,
          "midi": 52,
          "name": "E3",
          "ticks": 6960,
          "time": 80.93023255813954,
          "velocity": 0.09448818897637795
        },
        {
          "duration": 0.034883720930224626,
          "durationTicks": 3,
          "midi": 52,
          "name": "E3",
          "ticks": 6971,
          "time": 81.05813953488372,
          "velocity": 0.14173228346456693
        },
        {
          "duration": 0.1860465116279073,
          "durationTicks": 16,
          "midi": 45,
          "name": "A2",
          "ticks": 6975,
          "time": 81.1046511627907,
          "velocity": 0.11811023622047244
        },
        {
          "duration": 0.034883720930224626,
          "durationTicks": 3,
          "midi": 52,
          "name": "E3",
          "ticks": 6997,
          "time": 81.36046511627907,
          "velocity": 0.09448818897637795
        },
        {
          "duration": 0.05813953488372192,
          "durationTicks": 5,
          "midi": 45,
          "name": "A2",
          "ticks": 7005,
          "time": 81.45348837209302,
          "velocity": 0.08661417322834646
        },
        {
          "duration": 0.15116279069768268,
          "durationTicks": 13,
          "midi": 65,
          "name": "F4",
          "ticks": 7011,
          "time": 81.52325581395348,
          "velocity": 0.2047244094488189
        },
        {
          "duration": 0.081395348837205,
          "durationTicks": 7,
          "midi": 52,
          "name": "E3",
          "ticks": 7012,
          "time": 81.53488372093024,
          "velocity": 0.29133858267716534
        },
        {
          "duration": 0.19767441860464885,
          "durationTicks": 17,
          "midi": 64,
          "name": "E4",
          "ticks": 7024,
          "time": 81.67441860465117,
          "velocity": 0.15748031496062992
        },
        {
          "duration": 0.034883720930224626,
          "durationTicks": 3,
          "midi": 44,
          "name": "G#2",
          "ticks": 7039,
          "time": 81.84883720930233,
          "velocity": 0.18110236220472442
        },
        {
          "duration": 0.30232558139535115,
          "durationTicks": 26,
          "midi": 62,
          "name": "D4",
          "ticks": 7043,
          "time": 81.8953488372093,
          "velocity": 0.2440944881889764
        },
        {
          "duration": 0.09302325581396076,
          "durationTicks": 8,
          "midi": 52,
          "name": "E3",
          "ticks": 7054,
          "time": 82.02325581395348,
          "velocity": 0.2992125984251969
        },
        {
          "duration": 0.09302325581396076,
          "durationTicks": 8,
          "midi": 45,
          "name": "A2",
          "ticks": 7058,
          "time": 82.06976744186046,
          "velocity": 0.12598425196850394
        },
        {
          "duration": 0.06976744186047767,
          "durationTicks": 6,
          "midi": 52,
          "name": "E3",
          "ticks": 7065,
          "time": 82.15116279069767,
          "velocity": 0.14960629921259844
        },
        {
          "duration": 0.4767441860465169,
          "durationTicks": 41,
          "midi": 57,
          "name": "A3",
          "ticks": 7065,
          "time": 82.15116279069767,
          "velocity": 0.1732283464566929
        },
        {
          "duration": 0.081395348837205,
          "durationTicks": 7,
          "midi": 42,
          "name": "F#2",
          "ticks": 7079,
          "time": 82.31395348837209,
          "velocity": 0.23622047244094488
        },
        {
          "duration": 0.1046511627907023,
          "durationTicks": 9,
          "midi": 52,
          "name": "E3",
          "ticks": 7085,
          "time": 82.38372093023256,
          "velocity": 0.1889763779527559
        },
        {
          "duration": 0.034883720930224626,
          "durationTicks": 3,
          "midi": 42,
          "name": "F#2",
          "ticks": 7087,
          "time": 82.40697674418605,
          "velocity": 0.1889763779527559
        },
        {
          "duration": 0.03488372093023884,
          "durationTicks": 3,
          "midi": 44,
          "name": "G#2",
          "ticks": 7091,
          "time": 82.45348837209302,
          "velocity": 0.1732283464566929
        },
        {
          "duration": 0.034883720930224626,
          "durationTicks": 3,
          "midi": 44,
          "name": "G#2",
          "ticks": 7100,
          "time": 82.55813953488372,
          "velocity": 0.13385826771653545
        },
        {
          "duration": 0.2906976744185954,
          "durationTicks": 25,
          "midi": 57,
          "name": "A3",
          "ticks": 7109,
          "time": 82.66279069767442,
          "velocity": 0.16535433070866143
        },
        {
          "duration": 0.09302325581394655,
          "durationTicks": 8,
          "midi": 52,
          "name": "E3",
          "ticks": 7125,
          "time": 82.84883720930233,
          "velocity": 0.28346456692913385
        },
        {
          "duration": 0.034883720930224626,
          "durationTicks": 3,
          "midi": 52,
          "name": "E3",
          "ticks": 7136,
          "time": 82.97674418604652,
          "velocity": 0.10236220472440945
        },
        {
          "duration": 0.034883720930224626,
          "durationTicks": 3,
          "midi": 44,
          "name": "G#2",
          "ticks": 7152,
          "time": 83.16279069767442,
          "velocity": 0.25196850393700787
        },
        {
          "duration": 0.10465116279068809,
          "durationTicks": 9,
          "midi": 52,
          "name": "E3",
          "ticks": 7153,
          "time": 83.17441860465117,
          "velocity": 0.11811023622047244
        },
        {
          "duration": 0.03488372093023884,
          "durationTicks": 3,
          "midi": 44,
          "name": "G#2",
          "ticks": 7156,
          "time": 83.20930232558139,
          "velocity": 0.2125984251968504
        },
        {
          "duration": 0.03488372093023884,
          "durationTicks": 3,
          "midi": 45,
          "name": "A2",
          "ticks": 7165,
          "time": 83.31395348837209,
          "velocity": 0.2125984251968504
        },
        {
          "duration": 0.08139534883721922,
          "durationTicks": 7,
          "midi": 52,
          "name": "E3",
          "ticks": 7166,
          "time": 83.32558139534883,
          "velocity": 0.25984251968503935
        },
        {
          "duration": 0.15116279069766847,
          "durationTicks": 13,
          "midi": 57,
          "name": "A3",
          "ticks": 7176,
          "time": 83.44186046511628,
          "velocity": 0.18110236220472442
        },
        {
          "duration": 0.05813953488372192,
          "durationTicks": 5,
          "midi": 45,
          "name": "A2",
          "ticks": 7182,
          "time": 83.51162790697674,
          "velocity": 0.16535433070866143
        },
        {
          "duration": 0.16279069767441,
          "durationTicks": 14,
          "midi": 60,
          "name": "C4",
          "ticks": 7190,
          "time": 83.6046511627907,
          "velocity": 0.2283464566929134
        },
        {
          "duration": 0.034883720930224626,
          "durationTicks": 3,
          "midi": 42,
          "name": "F#2",
          "ticks": 7191,
          "time": 83.61627906976744,
          "velocity": 0.25984251968503935
        },
        {
          "duration": 0.04651162790698038,
          "durationTicks": 4,
          "midi": 57,
          "name": "A3",
          "ticks": 7194,
          "time": 83.65116279069767,
          "velocity": 0.15748031496062992
        },
        {
          "duration": 0.05813953488372192,
          "durationTicks": 5,
          "midi": 52,
          "name": "E3",
          "ticks": 7195,
          "time": 83.66279069767442,
          "velocity": 0.07086614173228346
        },
        {
          "duration": 0.05813953488372192,
          "durationTicks": 5,
          "midi": 57,
          "name": "A3",
          "ticks": 7203,
          "time": 83.75581395348837,
          "velocity": 0.15748031496062992
        },
        {
          "duration": 0.16279069767441,
          "durationTicks": 14,
          "midi": 60,
          "name": "C4",
          "ticks": 7207,
          "time": 83.80232558139535,
          "velocity": 0.14173228346456693
        },
        {
          "duration": 0.034883720930224626,
          "durationTicks": 3,
          "midi": 57,
          "name": "A3",
          "ticks": 7222,
          "time": 83.97674418604652,
          "velocity": 0.08661417322834646
        },
        {
          "duration": 0.34883720930233153,
          "durationTicks": 30,
          "midi": 60,
          "name": "C4",
          "ticks": 7225,
          "time": 84.01162790697674,
          "velocity": 0.07874015748031496
        },
        {
          "duration": 0.11627906976744384,
          "durationTicks": 10,
          "midi": 52,
          "name": "E3",
          "ticks": 7231,
          "time": 84.0813953488372,
          "velocity": 0.2755905511811024
        },
        {
          "duration": 0.023255813953483084,
          "durationTicks": 2,
          "midi": 44,
          "name": "G#2",
          "ticks": 7259,
          "time": 84.40697674418605,
          "velocity": 0.3464566929133858
        },
        {
          "duration": 0.48837209302325846,
          "durationTicks": 42,
          "midi": 84,
          "name": "C6",
          "ticks": 7260,
          "time": 84.4186046511628,
          "velocity": 0.14960629921259844
        },
        {
          "duration": 0.15116279069766847,
          "durationTicks": 13,
          "midi": 57,
          "name": "A3",
          "ticks": 7262,
          "time": 84.44186046511628,
          "velocity": 0.14173228346456693
        },
        {
          "duration": 0.30232558139535115,
          "durationTicks": 26,
          "midi": 77,
          "name": "F5",
          "ticks": 7262,
          "time": 84.44186046511628,
          "velocity": 0.11023622047244094
        },
        {
          "duration": 0.19767441860464885,
          "durationTicks": 17,
          "midi": 65,
          "name": "F4",
          "ticks": 7263,
          "time": 84.45348837209302,
          "velocity": 0.10236220472440945
        },
        {
          "duration": 0.023255813953483084,
          "durationTicks": 2,
          "midi": 44,
          "name": "G#2",
          "ticks": 7266,
          "time": 84.48837209302326,
          "velocity": 0.30708661417322836
        },
        {
          "duration": 0.023255813953483084,
          "durationTicks": 2,
          "midi": 44,
          "name": "G#2",
          "ticks": 7270,
          "time": 84.53488372093024,
          "velocity": 0.2677165354330709
        },
        {
          "duration": 0.081395348837205,
          "durationTicks": 7,
          "midi": 52,
          "name": "E3",
          "ticks": 7273,
          "time": 84.56976744186046,
          "velocity": 0.2677165354330709
        },
        {
          "duration": 0.023255813953497295,
          "durationTicks": 2,
          "midi": 44,
          "name": "G#2",
          "ticks": 7274,
          "time": 84.5813953488372,
          "velocity": 0.2677165354330709
        },
        {
          "duration": 0.2906976744185954,
          "durationTicks": 25,
          "midi": 57,
          "name": "A3",
          "ticks": 7276,
          "time": 84.6046511627907,
          "velocity": 0.14173228346456693
        },
        {
          "duration": 0.19767441860464885,
          "durationTicks": 17,
          "midi": 45,
          "name": "A2",
          "ticks": 7282,
          "time": 84.67441860465117,
          "velocity": 0.25196850393700787
        },
        {
          "duration": 0.09302325581396076,
          "durationTicks": 8,
          "midi": 52,
          "name": "E3",
          "ticks": 7290,
          "time": 84.76744186046511,
          "velocity": 0.07086614173228346
        },
        {
          "duration": 0.023255813953497295,
          "durationTicks": 2,
          "midi": 44,
          "name": "G#2",
          "ticks": 7300,
          "time": 84.88372093023256,
          "velocity": 0.29133858267716534
        },
        {
          "duration": 0.16279069767442422,
          "durationTicks": 14,
          "midi": 60,
          "name": "C4",
          "ticks": 7300,
          "time": 84.88372093023256,
          "velocity": 0.11023622047244094
        },
        {
          "duration": 0.034883720930224626,
          "durationTicks": 3,
          "midi": 57,
          "name": "A3",
          "ticks": 7302,
          "time": 84.90697674418605,
          "velocity": 0.09448818897637795
        },
        {
          "duration": 0.09302325581394655,
          "durationTicks": 8,
          "midi": 52,
          "name": "E3",
          "ticks": 7304,
          "time": 84.93023255813954,
          "velocity": 0.1968503937007874
        },
        {
          "duration": 0.023255813953483084,
          "durationTicks": 2,
          "midi": 44,
          "name": "G#2",
          "ticks": 7305,
          "time": 84.94186046511628,
          "velocity": 0.25196850393700787
        },
        {
          "duration": 0.06976744186046346,
          "durationTicks": 6,
          "midi": 57,
          "name": "A3",
          "ticks": 7306,
          "time": 84.95348837209302,
          "velocity": 0.07086614173228346
        },
        {
          "duration": 0.023255813953483084,
          "durationTicks": 2,
          "midi": 44,
          "name": "G#2",
          "ticks": 7309,
          "time": 84.98837209302326,
          "velocity": 0.25984251968503935
        },
        {
          "duration": 0.05813953488370771,
          "durationTicks": 5,
          "midi": 45,
          "name": "A2",
          "ticks": 7313,
          "time": 85.03488372093024,
          "velocity": 0.2283464566929134
        },
        {
          "duration": 0.1046511627907023,
          "durationTicks": 9,
          "midi": 45,
          "name": "A2",
          "ticks": 7321,
          "time": 85.12790697674419,
          "velocity": 0.2204724409448819
        },
        {
          "duration": 0.15116279069766847,
          "durationTicks": 13,
          "midi": 45,
          "name": "A2",
          "ticks": 7331,
          "time": 85.24418604651163,
          "velocity": 0.2047244094488189
        },
        {
          "duration": 0.06976744186046346,
          "durationTicks": 6,
          "midi": 52,
          "name": "E3",
          "ticks": 7343,
          "time": 85.38372093023256,
          "velocity": 0.1732283464566929
        },
        {
          "duration": 0.1046511627907023,
          "durationTicks": 9,
          "midi": 45,
          "name": "A2",
          "ticks": 7347,
          "time": 85.43023255813954,
          "velocity": 0.1968503937007874
        },
        {
          "duration": 0.04651162790698038,
          "durationTicks": 4,
          "midi": 45,
          "name": "A2",
          "ticks": 7359,
          "time": 85.56976744186046,
          "velocity": 0.1732283464566929
        },
        {
          "duration": 0.023255813953483084,
          "durationTicks": 2,
          "midi": 45,
          "name": "A2",
          "ticks": 7368,
          "time": 85.67441860465117,
          "velocity": 0.2440944881889764
        },
        {
          "duration": 0.03488372093023884,
          "durationTicks": 3,
          "midi": 44,
          "name": "G#2",
          "ticks": 7370,
          "time": 85.69767441860465,
          "velocity": 0.31496062992125984
        },
        {
          "duration": 0.04651162790698038,
          "durationTicks": 4,
          "midi": 52,
          "name": "E3",
          "ticks": 7374,
          "time": 85.74418604651163,
          "velocity": 0.07086614173228346
        },
        {
          "duration": 0.023255813953483084,
          "durationTicks": 2,
          "midi": 44,
          "name": "G#2",
          "ticks": 7375,
          "time": 85.75581395348837,
          "velocity": 0.2755905511811024
        },
        {
          "duration": 0.023255813953483084,
          "durationTicks": 2,
          "midi": 44,
          "name": "G#2",
          "ticks": 7379,
          "time": 85.80232558139535,
          "velocity": 0.25984251968503935
        },
        {
          "duration": 0.023255813953483084,
          "durationTicks": 2,
          "midi": 44,
          "name": "G#2",
          "ticks": 7384,
          "time": 85.86046511627907,
          "velocity": 0.2755905511811024
        },
        {
          "duration": 0.09302325581394655,
          "durationTicks": 8,
          "midi": 52,
          "name": "E3",
          "ticks": 7384,
          "time": 85.86046511627907,
          "velocity": 0.2992125984251969
        },
        {
          "duration": 0.081395348837205,
          "durationTicks": 7,
          "midi": 57,
          "name": "A3",
          "ticks": 7388,
          "time": 85.90697674418605,
          "velocity": 0.10236220472440945
        },
        {
          "duration": 0.06976744186046346,
          "durationTicks": 6,
          "midi": 45,
          "name": "A2",
          "ticks": 7389,
          "time": 85.9186046511628,
          "velocity": 0.2440944881889764
        },
        {
          "duration": 0.05813953488372192,
          "durationTicks": 5,
          "midi": 52,
          "name": "E3",
          "ticks": 7396,
          "time": 86,
          "velocity": 0.15748031496062992
        },
        {
          "duration": 0.023255813953483084,
          "durationTicks": 2,
          "midi": 44,
          "name": "G#2",
          "ticks": 7401,
          "time": 86.05813953488372,
          "velocity": 0.23622047244094488
        },
        {
          "duration": 0.06976744186046346,
          "durationTicks": 6,
          "midi": 45,
          "name": "A2",
          "ticks": 7403,
          "time": 86.0813953488372,
          "velocity": 0.2204724409448819
        },
        {
          "duration": 0.023255813953497295,
          "durationTicks": 2,
          "midi": 51,
          "name": "D#3",
          "ticks": 7409,
          "time": 86.15116279069767,
          "velocity": 0.29133858267716534
        },
        {
          "duration": 0.023255813953497295,
          "durationTicks": 2,
          "midi": 44,
          "name": "G#2",
          "ticks": 7413,
          "time": 86.19767441860465,
          "velocity": 0.25196850393700787
        },
        {
          "duration": 0.05813953488370771,
          "durationTicks": 5,
          "midi": 52,
          "name": "E3",
          "ticks": 7415,
          "time": 86.22093023255815,
          "velocity": 0.1732283464566929
        },
        {
          "duration": 0.023255813953483084,
          "durationTicks": 2,
          "midi": 44,
          "name": "G#2",
          "ticks": 7418,
          "time": 86.25581395348837,
          "velocity": 0.2440944881889764
        },
        {
          "duration": 0.034883720930224626,
          "durationTicks": 3,
          "midi": 44,
          "name": "G#2",
          "ticks": 7422,
          "time": 86.30232558139535,
          "velocity": 0.2204724409448819
        },
        {
          "duration": 0.5581395348837219,
          "durationTicks": 48,
          "midi": 67,
          "name": "G4",
          "ticks": 7424,
          "time": 86.32558139534883,
          "velocity": 0.2283464566929134
        },
        {
          "duration": 0.023255813953483084,
          "durationTicks": 2,
          "midi": 44,
          "name": "G#2",
          "ticks": 7427,
          "time": 86.36046511627907,
          "velocity": 0.2283464566929134
        },
        {
          "duration": 0.081395348837205,
          "durationTicks": 7,
          "midi": 45,
          "name": "A2",
          "ticks": 7429,
          "time": 86.38372093023256,
          "velocity": 0.2204724409448819
        },
        {
          "duration": 0.4534883720930196,
          "durationTicks": 39,
          "midi": 57,
          "name": "A3",
          "ticks": 7437,
          "time": 86.47674418604652,
          "velocity": 0.2283464566929134
        },
        {
          "duration": 0.03488372093023884,
          "durationTicks": 3,
          "midi": 44,
          "name": "G#2",
          "ticks": 7439,
          "time": 86.5,
          "velocity": 0.25196850393700787
        },
        {
          "duration": 0.2674418604651265,
          "durationTicks": 23,
          "midi": 45,
          "name": "A2",
          "ticks": 7452,
          "time": 86.65116279069767,
          "velocity": 0.2047244094488189
        },
        {
          "duration": 0.04651162790696617,
          "durationTicks": 4,
          "midi": 52,
          "name": "E3",
          "ticks": 7453,
          "time": 86.66279069767442,
          "velocity": 0.13385826771653545
        },
        {
          "duration": 0.04651162790696617,
          "durationTicks": 4,
          "midi": 52,
          "name": "E3",
          "ticks": 7475,
          "time": 86.9186046511628,
          "velocity": 0.1889763779527559
        },
        {
          "duration": 0.1860465116279073,
          "durationTicks": 16,
          "midi": 67,
          "name": "G4",
          "ticks": 7475,
          "time": 86.9186046511628,
          "velocity": 0.23622047244094488
        },
        {
          "duration": 0.11627906976744384,
          "durationTicks": 10,
          "midi": 52,
          "name": "E3",
          "ticks": 7483,
          "time": 87.01162790697674,
          "velocity": 0.12598425196850394
        },
        {
          "duration": 0.023255813953483084,
          "durationTicks": 2,
          "midi": 44,
          "name": "G#2",
          "ticks": 7486,
          "time": 87.04651162790698,
          "velocity": 0.25984251968503935
        },
        {
          "duration": 0.023255813953497295,
          "durationTicks": 2,
          "midi": 44,
          "name": "G#2",
          "ticks": 7490,
          "time": 87.09302325581395,
          "velocity": 0.2440944881889764
        },
        {
          "duration": 0.034883720930224626,
          "durationTicks": 3,
          "midi": 68,
          "name": "G#4",
          "ticks": 7491,
          "time": 87.1046511627907,
          "velocity": 0.16535433070866143
        },
        {
          "duration": 0.13953488372092693,
          "durationTicks": 12,
          "midi": 45,
          "name": "A2",
          "ticks": 7496,
          "time": 87.16279069767442,
          "velocity": 0.2125984251968504
        },
        {
          "duration": 0.09302325581394655,
          "durationTicks": 8,
          "midi": 52,
          "name": "E3",
          "ticks": 7496,
          "time": 87.16279069767442,
          "velocity": 0.2992125984251969
        },
        {
          "duration": 0.08139534883721922,
          "durationTicks": 7,
          "midi": 52,
          "name": "E3",
          "ticks": 7506,
          "time": 87.27906976744185,
          "velocity": 0.14960629921259844
        },
        {
          "duration": 0.023255813953483084,
          "durationTicks": 2,
          "midi": 44,
          "name": "G#2",
          "ticks": 7508,
          "time": 87.30232558139535,
          "velocity": 0.23622047244094488
        },
        {
          "duration": 0.06976744186046346,
          "durationTicks": 6,
          "midi": 45,
          "name": "A2",
          "ticks": 7513,
          "time": 87.36046511627907,
          "velocity": 0.1889763779527559
        },
        {
          "duration": 0.023255813953483084,
          "durationTicks": 2,
          "midi": 46,
          "name": "A#2",
          "ticks": 7519,
          "time": 87.43023255813954,
          "velocity": 0.2440944881889764
        },
        {
          "duration": 0.03488372093023884,
          "durationTicks": 3,
          "midi": 52,
          "name": "E3",
          "ticks": 7522,
          "time": 87.46511627906976,
          "velocity": 0.23622047244094488
        },
        {
          "duration": 0.22093023255814614,
          "durationTicks": 19,
          "midi": 60,
          "name": "C4",
          "ticks": 7522,
          "time": 87.46511627906976,
          "velocity": 0.10236220472440945
        },
        {
          "duration": 0.03488372093023884,
          "durationTicks": 3,
          "midi": 44,
          "name": "G#2",
          "ticks": 7526,
          "time": 87.51162790697674,
          "velocity": 0.2204724409448819
        },
        {
          "duration": 0.06976744186046346,
          "durationTicks": 6,
          "midi": 52,
          "name": "E3",
          "ticks": 7527,
          "time": 87.52325581395348,
          "velocity": 0.12598425196850394
        },
        {
          "duration": 0.1046511627907023,
          "durationTicks": 9,
          "midi": 57,
          "name": "A3",
          "ticks": 7548,
          "time": 87.76744186046511,
          "velocity": 0.11811023622047244
        },
        {
          "duration": 0.05813953488372192,
          "durationTicks": 5,
          "midi": 52,
          "name": "E3",
          "ticks": 7552,
          "time": 87.81395348837209,
          "velocity": 0.12598425196850394
        },
        {
          "duration": 0.081395348837205,
          "durationTicks": 7,
          "midi": 52,
          "name": "E3",
          "ticks": 7563,
          "time": 87.94186046511628,
          "velocity": 0.18110236220472442
        },
        {
          "duration": 0.03488372093023884,
          "durationTicks": 3,
          "midi": 42,
          "name": "F#2",
          "ticks": 7579,
          "time": 88.12790697674419,
          "velocity": 0.07874015748031496
        },
        {
          "duration": 0.04651162790696617,
          "durationTicks": 4,
          "midi": 52,
          "name": "E3",
          "ticks": 7582,
          "time": 88.16279069767442,
          "velocity": 0.07086614173228346
        },
        {
          "duration": 0.04651162790698038,
          "durationTicks": 4,
          "midi": 44,
          "name": "G#2",
          "ticks": 7591,
          "time": 88.26744186046511,
          "velocity": 0.28346456692913385
        },
        {
          "duration": 0.05813953488372192,
          "durationTicks": 5,
          "midi": 52,
          "name": "E3",
          "ticks": 7591,
          "time": 88.26744186046511,
          "velocity": 0.07086614173228346
        },
        {
          "duration": 0.023255813953497295,
          "durationTicks": 2,
          "midi": 44,
          "name": "G#2",
          "ticks": 7597,
          "time": 88.33720930232558,
          "velocity": 0.25984251968503935
        },
        {
          "duration": 0.023255813953497295,
          "durationTicks": 2,
          "midi": 44,
          "name": "G#2",
          "ticks": 7601,
          "time": 88.38372093023256,
          "velocity": 0.25196850393700787
        },
        {
          "duration": 0.19767441860464885,
          "durationTicks": 17,
          "midi": 45,
          "name": "A2",
          "ticks": 7603,
          "time": 88.40697674418605,
          "velocity": 0.2204724409448819
        },
        {
          "duration": 0.081395348837205,
          "durationTicks": 7,
          "midi": 52,
          "name": "E3",
          "ticks": 7606,
          "time": 88.44186046511628,
          "velocity": 0.3464566929133858
        },
        {
          "duration": 0.04651162790698038,
          "durationTicks": 4,
          "midi": 53,
          "name": "F3",
          "ticks": 7613,
          "time": 88.52325581395348,
          "velocity": 0.1732283464566929
        },
        {
          "duration": 0.16279069767442422,
          "durationTicks": 14,
          "midi": 52,
          "name": "E3",
          "ticks": 7617,
          "time": 88.56976744186046,
          "velocity": 0.1968503937007874
        },
        {
          "duration": 0.08139534883721922,
          "durationTicks": 7,
          "midi": 45,
          "name": "A2",
          "ticks": 7623,
          "time": 88.63953488372093,
          "velocity": 0.1889763779527559
        },
        {
          "duration": 0.023255813953483084,
          "durationTicks": 2,
          "midi": 45,
          "name": "A2",
          "ticks": 7631,
          "time": 88.73255813953489,
          "velocity": 0.30708661417322836
        },
        {
          "duration": 0.023255813953483084,
          "durationTicks": 2,
          "midi": 51,
          "name": "D#3",
          "ticks": 7631,
          "time": 88.73255813953489,
          "velocity": 0.29133858267716534
        },
        {
          "duration": 0.22093023255814614,
          "durationTicks": 19,
          "midi": 60,
          "name": "C4",
          "ticks": 7633,
          "time": 88.75581395348837,
          "velocity": 0.11811023622047244
        },
        {
          "duration": 0.03488372093023884,
          "durationTicks": 3,
          "midi": 44,
          "name": "G#2",
          "ticks": 7635,
          "time": 88.77906976744185,
          "velocity": 0.2283464566929134
        },
        {
          "duration": 0.081395348837205,
          "durationTicks": 7,
          "midi": 52,
          "name": "E3",
          "ticks": 7637,
          "time": 88.80232558139535,
          "velocity": 0.15748031496062992
        },
        {
          "duration": 0.023255813953497295,
          "durationTicks": 2,
          "midi": 44,
          "name": "G#2",
          "ticks": 7640,
          "time": 88.83720930232558,
          "velocity": 0.23622047244094488
        },
        {
          "duration": 0.08139534883721922,
          "durationTicks": 7,
          "midi": 52,
          "name": "E3",
          "ticks": 7651,
          "time": 88.96511627906976,
          "velocity": 0.07086614173228346
        },
        {
          "duration": 0.081395348837205,
          "durationTicks": 7,
          "midi": 45,
          "name": "A2",
          "ticks": 7654,
          "time": 89,
          "velocity": 0.2125984251968504
        },
        {
          "duration": 0.034883720930224626,
          "durationTicks": 3,
          "midi": 52,
          "name": "E3",
          "ticks": 7659,
          "time": 89.05813953488372,
          "velocity": 0.09448818897637795
        },
        {
          "duration": 0.03488372093023884,
          "durationTicks": 3,
          "midi": 45,
          "name": "A2",
          "ticks": 7662,
          "time": 89.09302325581395,
          "velocity": 0.18110236220472442
        },
        {
          "duration": 0.05813953488372192,
          "durationTicks": 5,
          "midi": 52,
          "name": "E3",
          "ticks": 7667,
          "time": 89.15116279069767,
          "velocity": 0.1889763779527559
        },
        {
          "duration": 0.06976744186046346,
          "durationTicks": 6,
          "midi": 52,
          "name": "E3",
          "ticks": 7675,
          "time": 89.24418604651163,
          "velocity": 0.1968503937007874
        },
        {
          "duration": 0.081395348837205,
          "durationTicks": 7,
          "midi": 52,
          "name": "E3",
          "ticks": 7684,
          "time": 89.34883720930233,
          "velocity": 0.10236220472440945
        },
        {
          "duration": 0.06976744186046346,
          "durationTicks": 6,
          "midi": 45,
          "name": "A2",
          "ticks": 7685,
          "time": 89.36046511627907,
          "velocity": 0.14960629921259844
        },
        {
          "duration": 0.034883720930224626,
          "durationTicks": 3,
          "midi": 41,
          "name": "F2",
          "ticks": 7696,
          "time": 89.48837209302326,
          "velocity": 0.30708661417322836
        },
        {
          "duration": 0.3488372093023173,
          "durationTicks": 30,
          "midi": 64,
          "name": "E4",
          "ticks": 7696,
          "time": 89.48837209302326,
          "velocity": 0.18110236220472442
        },
        {
          "duration": 0.03488372093023884,
          "durationTicks": 3,
          "midi": 52,
          "name": "E3",
          "ticks": 7697,
          "time": 89.5,
          "velocity": 0.23622047244094488
        },
        {
          "duration": 0.023255813953497295,
          "durationTicks": 2,
          "midi": 42,
          "name": "F#2",
          "ticks": 7699,
          "time": 89.52325581395348,
          "velocity": 0.2992125984251969
        },
        {
          "duration": 0.1860465116279073,
          "durationTicks": 16,
          "midi": 57,
          "name": "A3",
          "ticks": 7699,
          "time": 89.52325581395348,
          "velocity": 0.10236220472440945
        },
        {
          "duration": 0.023255813953483084,
          "durationTicks": 2,
          "midi": 44,
          "name": "G#2",
          "ticks": 7703,
          "time": 89.56976744186046,
          "velocity": 0.25984251968503935
        },
        {
          "duration": 0.023255813953483084,
          "durationTicks": 2,
          "midi": 44,
          "name": "G#2",
          "ticks": 7707,
          "time": 89.61627906976744,
          "velocity": 0.23622047244094488
        },
        {
          "duration": 0.09302325581396076,
          "durationTicks": 8,
          "midi": 52,
          "name": "E3",
          "ticks": 7715,
          "time": 89.70930232558139,
          "velocity": 0.3543307086614173
        },
        {
          "duration": 0.12790697674418539,
          "durationTicks": 11,
          "midi": 45,
          "name": "A2",
          "ticks": 7717,
          "time": 89.73255813953489,
          "velocity": 0.1889763779527559
        },
        {
          "duration": 0.034883720930224626,
          "durationTicks": 3,
          "midi": 53,
          "name": "F3",
          "ticks": 7723,
          "time": 89.80232558139535,
          "velocity": 0.08661417322834646
        },
        {
          "duration": 0.15116279069768268,
          "durationTicks": 13,
          "midi": 52,
          "name": "E3",
          "ticks": 7726,
          "time": 89.83720930232558,
          "velocity": 0.16535433070866143
        },
        {
          "duration": 0.04651162790698038,
          "durationTicks": 4,
          "midi": 45,
          "name": "A2",
          "ticks": 7731,
          "time": 89.8953488372093,
          "velocity": 0.1732283464566929
        },
        {
          "duration": 0.023255813953483084,
          "durationTicks": 2,
          "midi": 45,
          "name": "A2",
          "ticks": 7739,
          "time": 89.98837209302326,
          "velocity": 0.25196850393700787
        },
        {
          "duration": 0.023255813953483084,
          "durationTicks": 2,
          "midi": 52,
          "name": "E3",
          "ticks": 7740,
          "time": 90,
          "velocity": 0.2283464566929134
        },
        {
          "duration": 0.4767441860465169,
          "durationTicks": 41,
          "midi": 60,
          "name": "C4",
          "ticks": 7740,
          "time": 90,
          "velocity": 0.15748031496062992
        },
        {
          "duration": 0.034883720930224626,
          "durationTicks": 3,
          "midi": 44,
          "name": "G#2",
          "ticks": 7743,
          "time": 90.03488372093024,
          "velocity": 0.1889763779527559
        },
        {
          "duration": 0.22093023255813193,
          "durationTicks": 19,
          "midi": 52,
          "name": "E3",
          "ticks": 7745,
          "time": 90.05813953488372,
          "velocity": 0.1968503937007874
        },
        {
          "duration": 0.081395348837205,
          "durationTicks": 7,
          "midi": 45,
          "name": "A2",
          "ticks": 7760,
          "time": 90.23255813953489,
          "velocity": 0.16535433070866143
        },
        {
          "duration": 0.04651162790698038,
          "durationTicks": 4,
          "midi": 52,
          "name": "E3",
          "ticks": 7779,
          "time": 90.45348837209302,
          "velocity": 0.08661417322834646
        },
        {
          "duration": 0.24418604651162923,
          "durationTicks": 21,
          "midi": 45,
          "name": "A2",
          "ticks": 7781,
          "time": 90.47674418604652,
          "velocity": 0.12598425196850394
        },
        {
          "duration": 0.06976744186046346,
          "durationTicks": 6,
          "midi": 52,
          "name": "E3",
          "ticks": 7784,
          "time": 90.51162790697674,
          "velocity": 0.14960629921259844
        },
        {
          "duration": 0.04651162790696617,
          "durationTicks": 4,
          "midi": 44,
          "name": "G#2",
          "ticks": 7808,
          "time": 90.79069767441861,
          "velocity": 0.1968503937007874
        },
        {
          "duration": 0.081395348837205,
          "durationTicks": 7,
          "midi": 52,
          "name": "E3",
          "ticks": 7824,
          "time": 90.97674418604652,
          "velocity": 0.2992125984251969
        },
        {
          "duration": 0.05813953488372192,
          "durationTicks": 5,
          "midi": 45,
          "name": "A2",
          "ticks": 7831,
          "time": 91.05813953488372,
          "velocity": 0.1889763779527559
        },
        {
          "duration": 0.09302325581396076,
          "durationTicks": 8,
          "midi": 52,
          "name": "E3",
          "ticks": 7839,
          "time": 91.15116279069767,
          "velocity": 0.10236220472440945
        },
        {
          "duration": 0.2325581395348877,
          "durationTicks": 20,
          "midi": 60,
          "name": "C4",
          "ticks": 7849,
          "time": 91.26744186046511,
          "velocity": 0.15748031496062992
        },
        {
          "duration": 0.034883720930224626,
          "durationTicks": 3,
          "midi": 44,
          "name": "G#2",
          "ticks": 7852,
          "time": 91.30232558139535,
          "velocity": 0.1732283464566929
        },
        {
          "duration": 0.11627906976744384,
          "durationTicks": 10,
          "midi": 52,
          "name": "E3",
          "ticks": 7853,
          "time": 91.31395348837209,
          "velocity": 0.14173228346456693
        },
        {
          "duration": 0.04651162790698038,
          "durationTicks": 4,
          "midi": 45,
          "name": "A2",
          "ticks": 7884,
          "time": 91.67441860465117,
          "velocity": 0.08661417322834646
        },
        {
          "duration": 0.06976744186047767,
          "durationTicks": 6,
          "midi": 52,
          "name": "E3",
          "ticks": 7893,
          "time": 91.77906976744185,
          "velocity": 0.1889763779527559
        },
        {
          "duration": 0.06976744186046346,
          "durationTicks": 6,
          "midi": 45,
          "name": "A2",
          "ticks": 7905,
          "time": 91.9186046511628,
          "velocity": 0.07086614173228346
        },
        {
          "duration": 0.03488372093023884,
          "durationTicks": 3,
          "midi": 44,
          "name": "G#2",
          "ticks": 7918,
          "time": 92.06976744186046,
          "velocity": 0.25984251968503935
        },
        {
          "duration": 0.09302325581396076,
          "durationTicks": 8,
          "midi": 52,
          "name": "E3",
          "ticks": 7920,
          "time": 92.09302325581395,
          "velocity": 0.25984251968503935
        },
        {
          "duration": 0.023255813953483084,
          "durationTicks": 2,
          "midi": 61,
          "name": "C#4",
          "ticks": 7921,
          "time": 92.1046511627907,
          "velocity": 0.29133858267716534
        },
        {
          "duration": 0.04651162790698038,
          "durationTicks": 4,
          "midi": 45,
          "name": "A2",
          "ticks": 7923,
          "time": 92.12790697674419,
          "velocity": 0.1889763779527559
        },
        {
          "duration": 0.2325581395348877,
          "durationTicks": 20,
          "midi": 62,
          "name": "D4",
          "ticks": 7923,
          "time": 92.12790697674419,
          "velocity": 0.30708661417322836
        },
        {
          "duration": 0.034883720930224626,
          "durationTicks": 3,
          "midi": 45,
          "name": "A2",
          "ticks": 7932,
          "time": 92.23255813953489,
          "velocity": 0.1732283464566929
        },
        {
          "duration": 0.09302325581394655,
          "durationTicks": 8,
          "midi": 52,
          "name": "E3",
          "ticks": 7933,
          "time": 92.24418604651163,
          "velocity": 0.25984251968503935
        },
        {
          "duration": 0.09302325581394655,
          "durationTicks": 8,
          "midi": 45,
          "name": "A2",
          "ticks": 7937,
          "time": 92.29069767441861,
          "velocity": 0.16535433070866143
        },
        {
          "duration": 0.04651162790698038,
          "durationTicks": 4,
          "midi": 57,
          "name": "A3",
          "ticks": 7944,
          "time": 92.37209302325581,
          "velocity": 0.2440944881889764
        },
        {
          "duration": 0.10465116279068809,
          "durationTicks": 9,
          "midi": 52,
          "name": "E3",
          "ticks": 7947,
          "time": 92.40697674418605,
          "velocity": 0.2755905511811024
        },
        {
          "duration": 0.19767441860464885,
          "durationTicks": 17,
          "midi": 60,
          "name": "C4",
          "ticks": 7948,
          "time": 92.4186046511628,
          "velocity": 0.30708661417322836
        },
        {
          "duration": 0.04651162790698038,
          "durationTicks": 4,
          "midi": 57,
          "name": "A3",
          "ticks": 7961,
          "time": 92.56976744186046,
          "velocity": 0.15748031496062992
        },
        {
          "duration": 0.05813953488372192,
          "durationTicks": 5,
          "midi": 52,
          "name": "E3",
          "ticks": 7965,
          "time": 92.61627906976744,
          "velocity": 0.12598425196850394
        },
        {
          "duration": 0.2325581395348877,
          "durationTicks": 20,
          "midi": 59,
          "name": "B3",
          "ticks": 7966,
          "time": 92.62790697674419,
          "velocity": 0.30708661417322836
        },
        {
          "duration": 0.03488372093023884,
          "durationTicks": 3,
          "midi": 44,
          "name": "G#2",
          "ticks": 7967,
          "time": 92.63953488372093,
          "velocity": 0.18110236220472442
        },
        {
          "duration": 0.05813953488372192,
          "durationTicks": 5,
          "midi": 52,
          "name": "E3",
          "ticks": 7978,
          "time": 92.76744186046511,
          "velocity": 0.14173228346456693
        },
        {
          "duration": 0.06976744186046346,
          "durationTicks": 6,
          "midi": 45,
          "name": "A2",
          "ticks": 7982,
          "time": 92.81395348837209,
          "velocity": 0.14173228346456693
        },
        {
          "duration": 0.05813953488372192,
          "durationTicks": 5,
          "midi": 52,
          "name": "E3",
          "ticks": 7989,
          "time": 92.8953488372093,
          "velocity": 0.25196850393700787
        },
        {
          "duration": 0.19767441860464885,
          "durationTicks": 17,
          "midi": 60,
          "name": "C4",
          "ticks": 7989,
          "time": 92.8953488372093,
          "velocity": 0.3228346456692913
        },
        {
          "duration": 0.04651162790698038,
          "durationTicks": 4,
          "midi": 45,
          "name": "A2",
          "ticks": 7999,
          "time": 93.01162790697674,
          "velocity": 0.13385826771653545
        },
        {
          "duration": 0.06976744186046346,
          "durationTicks": 6,
          "midi": 52,
          "name": "E3",
          "ticks": 8000,
          "time": 93.02325581395348,
          "velocity": 0.2440944881889764
        },
        {
          "duration": 0.023255813953497295,
          "durationTicks": 2,
          "midi": 51,
          "name": "D#3",
          "ticks": 8006,
          "time": 93.09302325581395,
          "velocity": 0.23622047244094488
        },
        {
          "duration": 0.023255813953483084,
          "durationTicks": 2,
          "midi": 61,
          "name": "C#4",
          "ticks": 8007,
          "time": 93.1046511627907,
          "velocity": 0.29133858267716534
        },
        {
          "duration": 0.418604651162795,
          "durationTicks": 36,
          "midi": 62,
          "name": "D4",
          "ticks": 8009,
          "time": 93.12790697674419,
          "velocity": 0.30708661417322836
        },
        {
          "duration": 0.08139534883721922,
          "durationTicks": 7,
          "midi": 45,
          "name": "A2",
          "ticks": 8016,
          "time": 93.20930232558139,
          "velocity": 0.11811023622047244
        },
        {
          "duration": 0.04651162790696617,
          "durationTicks": 4,
          "midi": 45,
          "name": "A2",
          "ticks": 8039,
          "time": 93.47674418604652,
          "velocity": 0.08661417322834646
        },
        {
          "duration": 0.1046511627907023,
          "durationTicks": 9,
          "midi": 52,
          "name": "E3",
          "ticks": 8041,
          "time": 93.5,
          "velocity": 0.2204724409448819
        },
        {
          "duration": 0.04651162790696617,
          "durationTicks": 4,
          "midi": 45,
          "name": "A2",
          "ticks": 8044,
          "time": 93.53488372093024,
          "velocity": 0.09448818897637795
        },
        {
          "duration": 0.7209302325581461,
          "durationTicks": 62,
          "midi": 60,
          "name": "C4",
          "ticks": 8069,
          "time": 93.82558139534883,
          "velocity": 0.2204724409448819
        },
        {
          "duration": 0.04651162790698038,
          "durationTicks": 4,
          "midi": 42,
          "name": "F#2",
          "ticks": 8070,
          "time": 93.83720930232558,
          "velocity": 0.2125984251968504
        },
        {
          "duration": 0.1046511627907023,
          "durationTicks": 9,
          "midi": 52,
          "name": "E3",
          "ticks": 8084,
          "time": 94,
          "velocity": 0.16535433070866143
        },
        {
          "duration": 0.06976744186046346,
          "durationTicks": 6,
          "midi": 52,
          "name": "E3",
          "ticks": 8114,
          "time": 94.34883720930233,
          "velocity": 0.12598425196850394
        },
        {
          "duration": 0.30232558139535115,
          "durationTicks": 26,
          "midi": 60,
          "name": "C4",
          "ticks": 8135,
          "time": 94.59302325581395,
          "velocity": 0.3464566929133858
        },
        {
          "duration": 0.034883720930224626,
          "durationTicks": 3,
          "midi": 52,
          "name": "E3",
          "ticks": 8137,
          "time": 94.61627906976744,
          "velocity": 0.18110236220472442
        },
        {
          "duration": 0.023255813953497295,
          "durationTicks": 2,
          "midi": 42,
          "name": "F#2",
          "ticks": 8140,
          "time": 94.65116279069767,
          "velocity": 0.2677165354330709
        },
        {
          "duration": 0.023255813953497295,
          "durationTicks": 2,
          "midi": 44,
          "name": "G#2",
          "ticks": 8144,
          "time": 94.69767441860465,
          "velocity": 0.23622047244094488
        },
        {
          "duration": 0.09302325581394655,
          "durationTicks": 8,
          "midi": 52,
          "name": "E3",
          "ticks": 8152,
          "time": 94.79069767441861,
          "velocity": 0.29133858267716534
        },
        {
          "duration": 0.03488372093023884,
          "durationTicks": 3,
          "midi": 58,
          "name": "A#3",
          "ticks": 8161,
          "time": 94.8953488372093,
          "velocity": 0.1889763779527559
        },
        {
          "duration": 0.09302325581394655,
          "durationTicks": 8,
          "midi": 52,
          "name": "E3",
          "ticks": 8164,
          "time": 94.93023255813954,
          "velocity": 0.28346456692913385
        },
        {
          "duration": 0.13953488372092693,
          "durationTicks": 12,
          "midi": 59,
          "name": "B3",
          "ticks": 8164,
          "time": 94.93023255813954,
          "velocity": 0.30708661417322836
        },
        {
          "duration": 0.023255813953497295,
          "durationTicks": 2,
          "midi": 52,
          "name": "E3",
          "ticks": 8177,
          "time": 95.0813953488372,
          "velocity": 0.23622047244094488
        },
        {
          "duration": 0.023255813953483084,
          "durationTicks": 2,
          "midi": 50,
          "name": "D3",
          "ticks": 8179,
          "time": 95.1046511627907,
          "velocity": 0.30708661417322836
        },
        {
          "duration": 0.023255813953483084,
          "durationTicks": 2,
          "midi": 41,
          "name": "F2",
          "ticks": 8180,
          "time": 95.11627906976744,
          "velocity": 0.28346456692913385
        },
        {
          "duration": 0.30232558139535115,
          "durationTicks": 26,
          "midi": 57,
          "name": "A3",
          "ticks": 8180,
          "time": 95.11627906976744,
          "velocity": 0.33858267716535434
        },
        {
          "duration": 0.023255813953497295,
          "durationTicks": 2,
          "midi": 42,
          "name": "F#2",
          "ticks": 8182,
          "time": 95.13953488372093,
          "velocity": 0.2677165354330709
        },
        {
          "duration": 0.04651162790698038,
          "durationTicks": 4,
          "midi": 51,
          "name": "D#3",
          "ticks": 8183,
          "time": 95.15116279069767,
          "velocity": 0.13385826771653545
        },
        {
          "duration": 0.034883720930224626,
          "durationTicks": 3,
          "midi": 44,
          "name": "G#2",
          "ticks": 8190,
          "time": 95.23255813953489,
          "velocity": 0.1889763779527559
        },
        {
          "duration": 0.03488372093023884,
          "durationTicks": 3,
          "midi": 45,
          "name": "A2",
          "ticks": 8204,
          "time": 95.3953488372093,
          "velocity": 0.2125984251968504
        },
        {
          "duration": 0.023255813953483084,
          "durationTicks": 2,
          "midi": 59,
          "name": "B3",
          "ticks": 8207,
          "time": 95.43023255813954,
          "velocity": 0.31496062992125984
        },
        {
          "duration": 0.03488372093023884,
          "durationTicks": 3,
          "midi": 45,
          "name": "A2",
          "ticks": 8210,
          "time": 95.46511627906976,
          "velocity": 0.13385826771653545
        },
        {
          "duration": 0.023255813953497295,
          "durationTicks": 2,
          "midi": 59,
          "name": "B3",
          "ticks": 8210,
          "time": 95.46511627906976,
          "velocity": 0.29133858267716534
        },
        {
          "duration": 0.06976744186046346,
          "durationTicks": 6,
          "midi": 45,
          "name": "A2",
          "ticks": 8214,
          "time": 95.51162790697674,
          "velocity": 0.14960629921259844
        },
        {
          "duration": 0.04651162790698038,
          "durationTicks": 4,
          "midi": 52,
          "name": "E3",
          "ticks": 8214,
          "time": 95.51162790697674,
          "velocity": 0.14173228346456693
        },
        {
          "duration": 0.023255813953497295,
          "durationTicks": 2,
          "midi": 58,
          "name": "A#3",
          "ticks": 8215,
          "time": 95.52325581395348,
          "velocity": 0.31496062992125984
        },
        {
          "duration": 0.023255813953483084,
          "durationTicks": 2,
          "midi": 59,
          "name": "B3",
          "ticks": 8217,
          "time": 95.54651162790698,
          "velocity": 0.33070866141732286
        },
        {
          "duration": 0.023255813953497295,
          "durationTicks": 2,
          "midi": 59,
          "name": "B3",
          "ticks": 8220,
          "time": 95.5813953488372,
          "velocity": 0.30708661417322836
        },
        {
          "duration": 0.06976744186046346,
          "durationTicks": 6,
          "midi": 45,
          "name": "A2",
          "ticks": 8223,
          "time": 95.61627906976744,
          "velocity": 0.12598425196850394
        },
        {
          "duration": 0.03488372093023884,
          "durationTicks": 3,
          "midi": 57,
          "name": "A3",
          "ticks": 8226,
          "time": 95.65116279069767,
          "velocity": 0.2204724409448819
        },
        {
          "duration": 0.12790697674418539,
          "durationTicks": 11,
          "midi": 60,
          "name": "C4",
          "ticks": 8226,
          "time": 95.65116279069767,
          "velocity": 0.25984251968503935
        },
        {
          "duration": 0.03488372093023884,
          "durationTicks": 3,
          "midi": 57,
          "name": "A3",
          "ticks": 8236,
          "time": 95.76744186046511,
          "velocity": 0.1889763779527559
        },
        {
          "duration": 0.13953488372092693,
          "durationTicks": 12,
          "midi": 60,
          "name": "C4",
          "ticks": 8240,
          "time": 95.81395348837209,
          "velocity": 0.18110236220472442
        },
        {
          "duration": 0.03488372093023884,
          "durationTicks": 3,
          "midi": 57,
          "name": "A3",
          "ticks": 8246,
          "time": 95.88372093023256,
          "velocity": 0.12598425196850394
        },
        {
          "duration": 0.1860465116279073,
          "durationTicks": 16,
          "midi": 57,
          "name": "A3",
          "ticks": 8250,
          "time": 95.93023255813954,
          "velocity": 0.2125984251968504
        },
        {
          "duration": 0.04651162790698038,
          "durationTicks": 4,
          "midi": 44,
          "name": "G#2",
          "ticks": 8251,
          "time": 95.94186046511628,
          "velocity": 0.28346456692913385
        },
        {
          "duration": 0.081395348837205,
          "durationTicks": 7,
          "midi": 52,
          "name": "E3",
          "ticks": 8254,
          "time": 95.97674418604652,
          "velocity": 0.09448818897637795
        },
        {
          "duration": 0.023255813953497295,
          "durationTicks": 2,
          "midi": 44,
          "name": "G#2",
          "ticks": 8257,
          "time": 96.01162790697674,
          "velocity": 0.25196850393700787
        },
        {
          "duration": 0.023255813953483084,
          "durationTicks": 2,
          "midi": 44,
          "name": "G#2",
          "ticks": 8261,
          "time": 96.05813953488372,
          "velocity": 0.2440944881889764
        },
        {
          "duration": 0.1046511627907023,
          "durationTicks": 9,
          "midi": 52,
          "name": "E3",
          "ticks": 8264,
          "time": 96.09302325581395,
          "velocity": 0.31496062992125984
        },
        {
          "duration": 0.6046511627907023,
          "durationTicks": 52,
          "midi": 57,
          "name": "A3",
          "ticks": 8267,
          "time": 96.12790697674419,
          "velocity": 0.2204724409448819
        },
        {
          "duration": 0.06976744186046346,
          "durationTicks": 6,
          "midi": 45,
          "name": "A2",
          "ticks": 8271,
          "time": 96.17441860465117,
          "velocity": 0.1968503937007874
        },
        {
          "duration": 0.11627906976744384,
          "durationTicks": 10,
          "midi": 52,
          "name": "E3",
          "ticks": 8280,
          "time": 96.27906976744185,
          "velocity": 0.18110236220472442
        },
        {
          "duration": 0.04651162790698038,
          "durationTicks": 4,
          "midi": 45,
          "name": "A2",
          "ticks": 8305,
          "time": 96.56976744186046,
          "velocity": 0.1732283464566929
        },
        {
          "duration": 0.09302325581396076,
          "durationTicks": 8,
          "midi": 45,
          "name": "A2",
          "ticks": 8312,
          "time": 96.65116279069767,
          "velocity": 0.16535433070866143
        },
        {
          "duration": 0.04651162790696617,
          "durationTicks": 4,
          "midi": 52,
          "name": "E3",
          "ticks": 8318,
          "time": 96.72093023255815,
          "velocity": 0.11023622047244094
        },
        {
          "duration": 0.2093023255813904,
          "durationTicks": 18,
          "midi": 60,
          "name": "C4",
          "ticks": 8319,
          "time": 96.73255813953489,
          "velocity": 0.08661417322834646
        },
        {
          "duration": 0.24418604651162923,
          "durationTicks": 21,
          "midi": 45,
          "name": "A2",
          "ticks": 8323,
          "time": 96.77906976744185,
          "velocity": 0.1732283464566929
        },
        {
          "duration": 0.12790697674418539,
          "durationTicks": 11,
          "midi": 52,
          "name": "E3",
          "ticks": 8329,
          "time": 96.84883720930233,
          "velocity": 0.1889763779527559
        },
        {
          "duration": 0.38372093023255616,
          "durationTicks": 33,
          "midi": 57,
          "name": "A3",
          "ticks": 8360,
          "time": 97.20930232558139,
          "velocity": 0.16535433070866143
        },
        {
          "duration": 0.023255813953483084,
          "durationTicks": 2,
          "midi": 44,
          "name": "G#2",
          "ticks": 8367,
          "time": 97.29069767441861,
          "velocity": 0.25196850393700787
        },
        {
          "duration": 0.023255813953497295,
          "durationTicks": 2,
          "midi": 44,
          "name": "G#2",
          "ticks": 8371,
          "time": 97.33720930232558,
          "velocity": 0.23622047244094488
        },
        {
          "duration": 0.023255813953497295,
          "durationTicks": 2,
          "midi": 44,
          "name": "G#2",
          "ticks": 8375,
          "time": 97.38372093023256,
          "velocity": 0.2440944881889764
        },
        {
          "duration": 0.09302325581396076,
          "durationTicks": 8,
          "midi": 52,
          "name": "E3",
          "ticks": 8375,
          "time": 97.38372093023256,
          "velocity": 0.28346456692913385
        },
        {
          "duration": 0.08139534883721922,
          "durationTicks": 7,
          "midi": 52,
          "name": "E3",
          "ticks": 8392,
          "time": 97.5813953488372,
          "velocity": 0.07874015748031496
        },
        {
          "duration": 0.05813953488372192,
          "durationTicks": 5,
          "midi": 45,
          "name": "A2",
          "ticks": 8393,
          "time": 97.59302325581395,
          "velocity": 0.1968503937007874
        },
        {
          "duration": 0.25581395348837077,
          "durationTicks": 22,
          "midi": 60,
          "name": "C4",
          "ticks": 8400,
          "time": 97.67441860465117,
          "velocity": 0.18110236220472442
        },
        {
          "duration": 0.06976744186047767,
          "durationTicks": 6,
          "midi": 45,
          "name": "A2",
          "ticks": 8409,
          "time": 97.77906976744185,
          "velocity": 0.1732283464566929
        },
        {
          "duration": 0.06976744186047767,
          "durationTicks": 6,
          "midi": 52,
          "name": "E3",
          "ticks": 8414,
          "time": 97.83720930232558,
          "velocity": 0.12598425196850394
        },
        {
          "duration": 0.09302325581394655,
          "durationTicks": 8,
          "midi": 45,
          "name": "A2",
          "ticks": 8420,
          "time": 97.90697674418605,
          "velocity": 0.16535433070866143
        },
        {
          "duration": 0.04651162790698038,
          "durationTicks": 4,
          "midi": 45,
          "name": "A2",
          "ticks": 8433,
          "time": 98.05813953488372,
          "velocity": 0.1732283464566929
        },
        {
          "duration": 0.06976744186046346,
          "durationTicks": 6,
          "midi": 45,
          "name": "A2",
          "ticks": 8438,
          "time": 98.11627906976744,
          "velocity": 0.15748031496062992
        },
        {
          "duration": 0.06976744186046346,
          "durationTicks": 6,
          "midi": 52,
          "name": "E3",
          "ticks": 8444,
          "time": 98.18604651162791,
          "velocity": 0.1968503937007874
        },
        {
          "duration": 0.13953488372092693,
          "durationTicks": 12,
          "midi": 45,
          "name": "A2",
          "ticks": 8445,
          "time": 98.19767441860465,
          "velocity": 0.1732283464566929
        },
        {
          "duration": 0.05813953488372192,
          "durationTicks": 5,
          "midi": 45,
          "name": "A2",
          "ticks": 8458,
          "time": 98.34883720930233,
          "velocity": 0.15748031496062992
        },
        {
          "duration": 0.034883720930224626,
          "durationTicks": 3,
          "midi": 44,
          "name": "G#2",
          "ticks": 8474,
          "time": 98.53488372093024,
          "velocity": 0.2204724409448819
        },
        {
          "duration": 0.09302325581396076,
          "durationTicks": 8,
          "midi": 52,
          "name": "E3",
          "ticks": 8484,
          "time": 98.65116279069767,
          "velocity": 0.2992125984251969
        },
        {
          "duration": 0.081395348837205,
          "durationTicks": 7,
          "midi": 45,
          "name": "A2",
          "ticks": 8490,
          "time": 98.72093023255815,
          "velocity": 0.1889763779527559
        },
        {
          "duration": 0.22093023255814614,
          "durationTicks": 19,
          "midi": 57,
          "name": "A3",
          "ticks": 8494,
          "time": 98.76744186046511,
          "velocity": 0.2047244094488189
        },
        {
          "duration": 0.09302325581396076,
          "durationTicks": 8,
          "midi": 52,
          "name": "E3",
          "ticks": 8499,
          "time": 98.82558139534883,
          "velocity": 0.08661417322834646
        },
        {
          "duration": 0.04651162790698038,
          "durationTicks": 4,
          "midi": 45,
          "name": "A2",
          "ticks": 8500,
          "time": 98.83720930232558,
          "velocity": 0.16535433070866143
        },
        {
          "duration": 0.04651162790698038,
          "durationTicks": 4,
          "midi": 45,
          "name": "A2",
          "ticks": 8505,
          "time": 98.8953488372093,
          "velocity": 0.23622047244094488
        },
        {
          "duration": 0.023255813953483084,
          "durationTicks": 2,
          "midi": 44,
          "name": "G#2",
          "ticks": 8509,
          "time": 98.94186046511628,
          "velocity": 0.2283464566929134
        },
        {
          "duration": 0.4651162790697754,
          "durationTicks": 40,
          "midi": 60,
          "name": "C4",
          "ticks": 8509,
          "time": 98.94186046511628,
          "velocity": 0.2125984251968504
        },
        {
          "duration": 0.081395348837205,
          "durationTicks": 7,
          "midi": 52,
          "name": "E3",
          "ticks": 8513,
          "time": 98.98837209302326,
          "velocity": 0.11023622047244094
        },
        {
          "duration": 0.06976744186046346,
          "durationTicks": 6,
          "midi": 52,
          "name": "E3",
          "ticks": 8523,
          "time": 99.1046511627907,
          "velocity": 0.12598425196850394
        },
        {
          "duration": 0.04651162790696617,
          "durationTicks": 4,
          "midi": 45,
          "name": "A2",
          "ticks": 8534,
          "time": 99.23255813953489,
          "velocity": 0.15748031496062992
        },
        {
          "duration": 0.05813953488370771,
          "durationTicks": 5,
          "midi": 57,
          "name": "A3",
          "ticks": 8549,
          "time": 99.40697674418605,
          "velocity": 0.07086614173228346
        },
        {
          "duration": 0.08139534883721922,
          "durationTicks": 7,
          "midi": 52,
          "name": "E3",
          "ticks": 8554,
          "time": 99.46511627906976,
          "velocity": 0.2440944881889764
        },
        {
          "duration": 0.05813953488372192,
          "durationTicks": 5,
          "midi": 41,
          "name": "F2",
          "ticks": 8568,
          "time": 99.62790697674419,
          "velocity": 0.2283464566929134
        },
        {
          "duration": 0.418604651162795,
          "durationTicks": 36,
          "midi": 60,
          "name": "C4",
          "ticks": 8569,
          "time": 99.63953488372093,
          "velocity": 0.16535433070866143
        },
        {
          "duration": 0.03488372093023884,
          "durationTicks": 3,
          "midi": 41,
          "name": "F2",
          "ticks": 8575,
          "time": 99.70930232558139,
          "velocity": 0.14960629921259844
        },
        {
          "duration": 0.04651162790698038,
          "durationTicks": 4,
          "midi": 52,
          "name": "E3",
          "ticks": 8575,
          "time": 99.70930232558139,
          "velocity": 0.2283464566929134
        },
        {
          "duration": 0.09302325581394655,
          "durationTicks": 8,
          "midi": 52,
          "name": "E3",
          "ticks": 8583,
          "time": 99.80232558139535,
          "velocity": 0.11023622047244094
        },
        {
          "duration": 0.023255813953483084,
          "durationTicks": 2,
          "midi": 51,
          "name": "D#3",
          "ticks": 8593,
          "time": 99.9186046511628,
          "velocity": 0.30708661417322836
        },
        {
          "duration": 0.081395348837205,
          "durationTicks": 7,
          "midi": 52,
          "name": "E3",
          "ticks": 8595,
          "time": 99.94186046511628,
          "velocity": 0.3543307086614173
        },
        {
          "duration": 0.04651162790698038,
          "durationTicks": 4,
          "midi": 45,
          "name": "A2",
          "ticks": 8599,
          "time": 99.98837209302326,
          "velocity": 0.14960629921259844
        },
        {
          "duration": 0.22093023255813193,
          "durationTicks": 19,
          "midi": 57,
          "name": "A3",
          "ticks": 8604,
          "time": 100.04651162790698,
          "velocity": 0.2125984251968504
        },
        {
          "duration": 0.13953488372094114,
          "durationTicks": 12,
          "midi": 52,
          "name": "E3",
          "ticks": 8608,
          "time": 100.09302325581395,
          "velocity": 0.16535433070866143
        },
        {
          "duration": 0.034883720930224626,
          "durationTicks": 3,
          "midi": 44,
          "name": "G#2",
          "ticks": 8610,
          "time": 100.11627906976744,
          "velocity": 0.16535433070866143
        },
        {
          "duration": 0.023255813953483084,
          "durationTicks": 2,
          "midi": 41,
          "name": "F2",
          "ticks": 8621,
          "time": 100.24418604651163,
          "velocity": 0.23622047244094488
        },
        {
          "duration": 0.13953488372092693,
          "durationTicks": 12,
          "midi": 60,
          "name": "C4",
          "ticks": 8622,
          "time": 100.25581395348837,
          "velocity": 0.18110236220472442
        },
        {
          "duration": 0.03488372093023884,
          "durationTicks": 3,
          "midi": 42,
          "name": "F#2",
          "ticks": 8623,
          "time": 100.26744186046511,
          "velocity": 0.25196850393700787
        },
        {
          "duration": 0.11627906976744384,
          "durationTicks": 10,
          "midi": 52,
          "name": "E3",
          "ticks": 8626,
          "time": 100.30232558139535,
          "velocity": 0.2283464566929134
        },
        {
          "duration": 0.13953488372092693,
          "durationTicks": 12,
          "midi": 57,
          "name": "A3",
          "ticks": 8626,
          "time": 100.30232558139535,
          "velocity": 0.14960629921259844
        },
        {
          "duration": 0.081395348837205,
          "durationTicks": 7,
          "midi": 52,
          "name": "E3",
          "ticks": 8637,
          "time": 100.43023255813954,
          "velocity": 0.25984251968503935
        },
        {
          "duration": 0.2674418604651265,
          "durationTicks": 23,
          "midi": 57,
          "name": "A3",
          "ticks": 8639,
          "time": 100.45348837209302,
          "velocity": 0.14173228346456693
        },
        {
          "duration": 0.03488372093023884,
          "durationTicks": 3,
          "midi": 44,
          "name": "G#2",
          "ticks": 8645,
          "time": 100.52325581395348,
          "velocity": 0.12598425196850394
        },
        {
          "duration": 0.04651162790698038,
          "durationTicks": 4,
          "midi": 52,
          "name": "E3",
          "ticks": 8648,
          "time": 100.55813953488372,
          "velocity": 0.12598425196850394
        },
        {
          "duration": 0.081395348837205,
          "durationTicks": 7,
          "midi": 45,
          "name": "A2",
          "ticks": 8654,
          "time": 100.62790697674419,
          "velocity": 0.11023622047244094
        },
        {
          "duration": 0.11627906976744384,
          "durationTicks": 10,
          "midi": 52,
          "name": "E3",
          "ticks": 8660,
          "time": 100.69767441860465,
          "velocity": 0.2755905511811024
        },
        {
          "duration": 0.15116279069766847,
          "durationTicks": 13,
          "midi": 57,
          "name": "A3",
          "ticks": 8663,
          "time": 100.73255813953489,
          "velocity": 0.07874015748031496
        },
        {
          "duration": 0.03488372093023884,
          "durationTicks": 3,
          "midi": 44,
          "name": "G#2",
          "ticks": 8688,
          "time": 101.02325581395348,
          "velocity": 0.2204724409448819
        },
        {
          "duration": 0.13953488372092693,
          "durationTicks": 12,
          "midi": 57,
          "name": "A3",
          "ticks": 8690,
          "time": 101.04651162790698,
          "velocity": 0.09448818897637795
        },
        {
          "duration": 0.09302325581396076,
          "durationTicks": 8,
          "midi": 52,
          "name": "E3",
          "ticks": 8703,
          "time": 101.19767441860465,
          "velocity": 0.36220472440944884
        },
        {
          "duration": 0.06976744186046346,
          "durationTicks": 6,
          "midi": 45,
          "name": "A2",
          "ticks": 8707,
          "time": 101.24418604651163,
          "velocity": 0.12598425196850394
        },
        {
          "duration": 0.034883720930224626,
          "durationTicks": 3,
          "midi": 53,
          "name": "F3",
          "ticks": 8711,
          "time": 101.29069767441861,
          "velocity": 0.07086614173228346
        },
        {
          "duration": 0.17441860465116577,
          "durationTicks": 15,
          "midi": 57,
          "name": "A3",
          "ticks": 8714,
          "time": 101.32558139534883,
          "velocity": 0.15748031496062992
        },
        {
          "duration": 0.12790697674418539,
          "durationTicks": 11,
          "midi": 52,
          "name": "E3",
          "ticks": 8717,
          "time": 101.36046511627907,
          "velocity": 0.1732283464566929
        },
        {
          "duration": 0.03488372093023884,
          "durationTicks": 3,
          "midi": 42,
          "name": "F#2",
          "ticks": 8729,
          "time": 101.5,
          "velocity": 0.23622047244094488
        },
        {
          "duration": 0.023255813953483084,
          "durationTicks": 2,
          "midi": 52,
          "name": "E3",
          "ticks": 8729,
          "time": 101.5,
          "velocity": 0.2283464566929134
        },
        {
          "duration": 0.12790697674418539,
          "durationTicks": 11,
          "midi": 52,
          "name": "E3",
          "ticks": 8734,
          "time": 101.55813953488372,
          "velocity": 0.2047244094488189
        },
        {
          "duration": 0.034883720930224626,
          "durationTicks": 3,
          "midi": 44,
          "name": "G#2",
          "ticks": 8738,
          "time": 101.6046511627907,
          "velocity": 0.15748031496062992
        },
        {
          "duration": 0.3604651162790731,
          "durationTicks": 31,
          "midi": 59,
          "name": "B3",
          "ticks": 8745,
          "time": 101.68604651162791,
          "velocity": 0.12598425196850394
        },
        {
          "duration": 0.03488372093023884,
          "durationTicks": 3,
          "midi": 45,
          "name": "A2",
          "ticks": 8751,
          "time": 101.75581395348837,
          "velocity": 0.11811023622047244
        },
        {
          "duration": 0.04651162790698038,
          "durationTicks": 4,
          "midi": 52,
          "name": "E3",
          "ticks": 8755,
          "time": 101.80232558139535,
          "velocity": 0.11811023622047244
        },
        {
          "duration": 0.13953488372092693,
          "durationTicks": 12,
          "midi": 52,
          "name": "E3",
          "ticks": 8768,
          "time": 101.95348837209302,
          "velocity": 0.25984251968503935
        },
        {
          "duration": 0.04651162790698038,
          "durationTicks": 4,
          "midi": 45,
          "name": "A2",
          "ticks": 8777,
          "time": 102.05813953488372,
          "velocity": 0.08661417322834646
        },
        {
          "duration": 0.023255813953497295,
          "durationTicks": 2,
          "midi": 61,
          "name": "C#4",
          "ticks": 8796,
          "time": 102.27906976744185,
          "velocity": 0.28346456692913385
        },
        {
          "duration": 0.04651162790698038,
          "durationTicks": 4,
          "midi": 44,
          "name": "G#2",
          "ticks": 8798,
          "time": 102.30232558139535,
          "velocity": 0.2755905511811024
        },
        {
          "duration": 0.2325581395348877,
          "durationTicks": 20,
          "midi": 62,
          "name": "D4",
          "ticks": 8798,
          "time": 102.30232558139535,
          "velocity": 0.28346456692913385
        },
        {
          "duration": 0.12790697674418539,
          "durationTicks": 11,
          "midi": 57,
          "name": "A3",
          "ticks": 8800,
          "time": 102.32558139534883,
          "velocity": 0.11811023622047244
        },
        {
          "duration": 0.09302325581396076,
          "durationTicks": 8,
          "midi": 52,
          "name": "E3",
          "ticks": 8801,
          "time": 102.33720930232558,
          "velocity": 0.11811023622047244
        },
        {
          "duration": 0.023255813953483084,
          "durationTicks": 2,
          "midi": 44,
          "name": "G#2",
          "ticks": 8804,
          "time": 102.37209302325581,
          "velocity": 0.25984251968503935
        },
        {
          "duration": 0.05813953488372192,
          "durationTicks": 5,
          "midi": 45,
          "name": "A2",
          "ticks": 8810,
          "time": 102.44186046511628,
          "velocity": 0.25196850393700787
        },
        {
          "duration": 0.09302325581394655,
          "durationTicks": 8,
          "midi": 52,
          "name": "E3",
          "ticks": 8813,
          "time": 102.47674418604652,
          "velocity": 0.33858267716535434
        },
        {
          "duration": 0.034883720930224626,
          "durationTicks": 3,
          "midi": 45,
          "name": "A2",
          "ticks": 8820,
          "time": 102.55813953488372,
          "velocity": 0.2283464566929134
        },
        {
          "duration": 0.22093023255814614,
          "durationTicks": 19,
          "midi": 60,
          "name": "C4",
          "ticks": 8823,
          "time": 102.59302325581395,
          "velocity": 0.2992125984251969
        },
        {
          "duration": 0.04651162790698038,
          "durationTicks": 4,
          "midi": 53,
          "name": "F3",
          "ticks": 8825,
          "time": 102.61627906976744,
          "velocity": 0.1968503937007874
        },
        {
          "duration": 0.034883720930224626,
          "durationTicks": 3,
          "midi": 45,
          "name": "A2",
          "ticks": 8834,
          "time": 102.72093023255815,
          "velocity": 0.1732283464566929
        },
        {
          "duration": 0.023255813953483084,
          "durationTicks": 2,
          "midi": 51,
          "name": "D#3",
          "ticks": 8837,
          "time": 102.75581395348837,
          "velocity": 0.2992125984251969
        },
        {
          "duration": 0.03488372093023884,
          "durationTicks": 3,
          "midi": 52,
          "name": "E3",
          "ticks": 8839,
          "time": 102.77906976744185,
          "velocity": 0.2992125984251969
        },
        {
          "duration": 0.2093023255813904,
          "durationTicks": 18,
          "midi": 59,
          "name": "B3",
          "ticks": 8842,
          "time": 102.81395348837209,
          "velocity": 0.2755905511811024
        },
        {
          "duration": 0.08139534883721922,
          "durationTicks": 7,
          "midi": 45,
          "name": "A2",
          "ticks": 8843,
          "time": 102.82558139534883,
          "velocity": 0.2047244094488189
        },
        {
          "duration": 0.05813953488372192,
          "durationTicks": 5,
          "midi": 52,
          "name": "E3",
          "ticks": 8844,
          "time": 102.83720930232558,
          "velocity": 0.10236220472440945
        },
        {
          "duration": 0.15116279069766847,
          "durationTicks": 13,
          "midi": 45,
          "name": "A2",
          "ticks": 8851,
          "time": 102.9186046511628,
          "velocity": 0.1889763779527559
        },
        {
          "duration": 0.10465116279068809,
          "durationTicks": 9,
          "midi": 52,
          "name": "E3",
          "ticks": 8851,
          "time": 102.9186046511628,
          "velocity": 0.2125984251968504
        },
        {
          "duration": 0.13953488372092693,
          "durationTicks": 12,
          "midi": 60,
          "name": "C4",
          "ticks": 8867,
          "time": 103.1046511627907,
          "velocity": 0.25984251968503935
        },
        {
          "duration": 0.32558139534883423,
          "durationTicks": 28,
          "midi": 45,
          "name": "A2",
          "ticks": 8868,
          "time": 103.11627906976744,
          "velocity": 0.23622047244094488
        },
        {
          "duration": 0.023255813953497295,
          "durationTicks": 2,
          "midi": 51,
          "name": "D#3",
          "ticks": 8882,
          "time": 103.27906976744185,
          "velocity": 0.29133858267716534
        },
        {
          "duration": 0.38372093023255616,
          "durationTicks": 33,
          "midi": 62,
          "name": "D4",
          "ticks": 8883,
          "time": 103.29069767441861,
          "velocity": 0.28346456692913385
        },
        {
          "duration": 0.081395348837205,
          "durationTicks": 7,
          "midi": 52,
          "name": "E3",
          "ticks": 8884,
          "time": 103.30232558139535,
          "velocity": 0.23622047244094488
        },
        {
          "duration": 0.06976744186046346,
          "durationTicks": 6,
          "midi": 45,
          "name": "A2",
          "ticks": 8897,
          "time": 103.45348837209302,
          "velocity": 0.16535433070866143
        },
        {
          "duration": 0.023255813953497295,
          "durationTicks": 2,
          "midi": 42,
          "name": "F#2",
          "ticks": 8909,
          "time": 103.59302325581395,
          "velocity": 0.2992125984251969
        },
        {
          "duration": 0.034883720930224626,
          "durationTicks": 3,
          "midi": 52,
          "name": "E3",
          "ticks": 8910,
          "time": 103.6046511627907,
          "velocity": 0.07086614173228346
        },
        {
          "duration": 0.09302325581394655,
          "durationTicks": 8,
          "midi": 57,
          "name": "A3",
          "ticks": 8911,
          "time": 103.61627906976744,
          "velocity": 0.08661417322834646
        },
        {
          "duration": 0.023255813953483084,
          "durationTicks": 2,
          "midi": 44,
          "name": "G#2",
          "ticks": 8915,
          "time": 103.66279069767442,
          "velocity": 0.25196850393700787
        },
        {
          "duration": 0.023255813953483084,
          "durationTicks": 2,
          "midi": 51,
          "name": "D#3",
          "ticks": 8917,
          "time": 103.68604651162791,
          "velocity": 0.25984251968503935
        },
        {
          "duration": 0.023255813953497295,
          "durationTicks": 2,
          "midi": 44,
          "name": "G#2",
          "ticks": 8919,
          "time": 103.70930232558139,
          "velocity": 0.25984251968503935
        },
        {
          "duration": 0.08139534883721922,
          "durationTicks": 7,
          "midi": 52,
          "name": "E3",
          "ticks": 8919,
          "time": 103.70930232558139,
          "velocity": 0.2992125984251969
        },
        {
          "duration": 0.023255813953497295,
          "durationTicks": 2,
          "midi": 44,
          "name": "G#2",
          "ticks": 8924,
          "time": 103.76744186046511,
          "velocity": 0.2283464566929134
        },
        {
          "duration": 0.06976744186047767,
          "durationTicks": 6,
          "midi": 52,
          "name": "E3",
          "ticks": 8930,
          "time": 103.83720930232558,
          "velocity": 0.1732283464566929
        },
        {
          "duration": 0.22093023255814614,
          "durationTicks": 19,
          "midi": 57,
          "name": "A3",
          "ticks": 8930,
          "time": 103.83720930232558,
          "velocity": 0.16535433070866143
        },
        {
          "duration": 0.034883720930224626,
          "durationTicks": 3,
          "midi": 44,
          "name": "G#2",
          "ticks": 8932,
          "time": 103.86046511627907,
          "velocity": 0.23622047244094488
        },
        {
          "duration": 0.023255813953483084,
          "durationTicks": 2,
          "midi": 44,
          "name": "G#2",
          "ticks": 8950,
          "time": 104.06976744186046,
          "velocity": 0.25196850393700787
        },
        {
          "duration": 0.11627906976744384,
          "durationTicks": 10,
          "midi": 52,
          "name": "E3",
          "ticks": 8952,
          "time": 104.09302325581395,
          "velocity": 0.2283464566929134
        },
        {
          "duration": 0.04651162790696617,
          "durationTicks": 4,
          "midi": 45,
          "name": "A2",
          "ticks": 8964,
          "time": 104.23255813953489,
          "velocity": 0.16535433070866143
        },
        {
          "duration": 0.04651162790698038,
          "durationTicks": 4,
          "midi": 45,
          "name": "A2",
          "ticks": 8971,
          "time": 104.31395348837209,
          "velocity": 0.1732283464566929
        },
        {
          "duration": 0.11627906976744384,
          "durationTicks": 10,
          "midi": 45,
          "name": "A2",
          "ticks": 8977,
          "time": 104.38372093023256,
          "velocity": 0.14173228346456693
        },
        {
          "duration": 0.034883720930224626,
          "durationTicks": 3,
          "midi": 52,
          "name": "E3",
          "ticks": 8985,
          "time": 104.47674418604652,
          "velocity": 0.11811023622047244
        },
        {
          "duration": 0.081395348837205,
          "durationTicks": 7,
          "midi": 52,
          "name": "E3",
          "ticks": 8990,
          "time": 104.53488372093024,
          "velocity": 0.1968503937007874
        },
        {
          "duration": 0.13953488372092693,
          "durationTicks": 12,
          "midi": 45,
          "name": "A2",
          "ticks": 8999,
          "time": 104.63953488372093,
          "velocity": 0.14960629921259844
        },
        {
          "duration": 0.023255813953497295,
          "durationTicks": 2,
          "midi": 53,
          "name": "F3",
          "ticks": 9016,
          "time": 104.83720930232558,
          "velocity": 0.23622047244094488
        },
        {
          "duration": 0.25581395348837077,
          "durationTicks": 22,
          "midi": 60,
          "name": "C4",
          "ticks": 9017,
          "time": 104.84883720930233,
          "velocity": 0.2992125984251969
        },
        {
          "duration": 0.023255813953483084,
          "durationTicks": 2,
          "midi": 44,
          "name": "G#2",
          "ticks": 9018,
          "time": 104.86046511627907,
          "velocity": 0.28346456692913385
        },
        {
          "duration": 0.12790697674418539,
          "durationTicks": 11,
          "midi": 52,
          "name": "E3",
          "ticks": 9018,
          "time": 104.86046511627907,
          "velocity": 0.2283464566929134
        },
        {
          "duration": 0.023255813953483084,
          "durationTicks": 2,
          "midi": 44,
          "name": "G#2",
          "ticks": 9023,
          "time": 104.9186046511628,
          "velocity": 0.2755905511811024
        },
        {
          "duration": 0.023255813953497295,
          "durationTicks": 2,
          "midi": 44,
          "name": "G#2",
          "ticks": 9027,
          "time": 104.96511627906976,
          "velocity": 0.2677165354330709
        },
        {
          "duration": 0.08139534883721922,
          "durationTicks": 7,
          "midi": 52,
          "name": "E3",
          "ticks": 9032,
          "time": 105.02325581395348,
          "velocity": 0.33070866141732286
        },
        {
          "duration": 0.023255813953483084,
          "durationTicks": 2,
          "midi": 59,
          "name": "B3",
          "ticks": 9044,
          "time": 105.16279069767442,
          "velocity": 0.23622047244094488
        },
        {
          "duration": 0.04651162790696617,
          "durationTicks": 4,
          "midi": 59,
          "name": "B3",
          "ticks": 9049,
          "time": 105.22093023255815,
          "velocity": 0.2677165354330709
        },
        {
          "duration": 0.03488372093023884,
          "durationTicks": 3,
          "midi": 58,
          "name": "A#3",
          "ticks": 9053,
          "time": 105.26744186046511,
          "velocity": 0.2677165354330709
        },
        {
          "duration": 0.04651162790698038,
          "durationTicks": 4,
          "midi": 52,
          "name": "E3",
          "ticks": 9054,
          "time": 105.27906976744185,
          "velocity": 0.13385826771653545
        },
        {
          "duration": 0.03488372093023884,
          "durationTicks": 3,
          "midi": 53,
          "name": "F3",
          "ticks": 9058,
          "time": 105.32558139534883,
          "velocity": 0.36220472440944884
        },
        {
          "duration": 0.2906976744186096,
          "durationTicks": 25,
          "midi": 57,
          "name": "A3",
          "ticks": 9062,
          "time": 105.37209302325581,
          "velocity": 0.31496062992125984
        },
        {
          "duration": 0.04651162790698038,
          "durationTicks": 4,
          "midi": 45,
          "name": "A2",
          "ticks": 9064,
          "time": 105.3953488372093,
          "velocity": 0.1968503937007874
        },
        {
          "duration": 0.023255813953497295,
          "durationTicks": 2,
          "midi": 44,
          "name": "G#2",
          "ticks": 9069,
          "time": 105.45348837209302,
          "velocity": 0.2283464566929134
        },
        {
          "duration": 0.05813953488372192,
          "durationTicks": 5,
          "midi": 45,
          "name": "A2",
          "ticks": 9075,
          "time": 105.52325581395348,
          "velocity": 0.2047244094488189
        },
        {
          "duration": 0.05813953488372192,
          "durationTicks": 5,
          "midi": 52,
          "name": "E3",
          "ticks": 9075,
          "time": 105.52325581395348,
          "velocity": 0.2440944881889764
        },
        {
          "duration": 0.05813953488372192,
          "durationTicks": 5,
          "midi": 45,
          "name": "A2",
          "ticks": 9081,
          "time": 105.59302325581395,
          "velocity": 0.16535433070866143
        },
        {
          "duration": 0.023255813953483084,
          "durationTicks": 2,
          "midi": 59,
          "name": "B3",
          "ticks": 9088,
          "time": 105.67441860465117,
          "velocity": 0.30708661417322836
        },
        {
          "duration": 0.023255813953497295,
          "durationTicks": 2,
          "midi": 44,
          "name": "G#2",
          "ticks": 9090,
          "time": 105.69767441860465,
          "velocity": 0.23622047244094488
        },
        {
          "duration": 0.16279069767442422,
          "durationTicks": 14,
          "midi": 59,
          "name": "B3",
          "ticks": 9091,
          "time": 105.70930232558139,
          "velocity": 0.3543307086614173
        },
        {
          "duration": 0.05813953488372192,
          "durationTicks": 5,
          "midi": 52,
          "name": "E3",
          "ticks": 9103,
          "time": 105.84883720930233,
          "velocity": 0.14173228346456693
        },
        {
          "duration": 0.40697674418603924,
          "durationTicks": 35,
          "midi": 60,
          "name": "C4",
          "ticks": 9105,
          "time": 105.87209302325581,
          "velocity": 0.31496062992125984
        },
        {
          "duration": 0.06976744186046346,
          "durationTicks": 6,
          "midi": 45,
          "name": "A2",
          "ticks": 9107,
          "time": 105.8953488372093,
          "velocity": 0.1732283464566929
        },
        {
          "duration": 0.05813953488372192,
          "durationTicks": 5,
          "midi": 45,
          "name": "A2",
          "ticks": 9116,
          "time": 106,
          "velocity": 0.16535433070866143
        },
        {
          "duration": 0.03488372093023884,
          "durationTicks": 3,
          "midi": 44,
          "name": "G#2",
          "ticks": 9129,
          "time": 106.15116279069767,
          "velocity": 0.30708661417322836
        },
        {
          "duration": 0.023255813953497295,
          "durationTicks": 2,
          "midi": 44,
          "name": "G#2",
          "ticks": 9134,
          "time": 106.20930232558139,
          "velocity": 0.2677165354330709
        },
        {
          "duration": 0.03488372093023884,
          "durationTicks": 3,
          "midi": 57,
          "name": "A3",
          "ticks": 9139,
          "time": 106.26744186046511,
          "velocity": 0.1889763779527559
        },
        {
          "duration": 0.05813953488372192,
          "durationTicks": 5,
          "midi": 45,
          "name": "A2",
          "ticks": 9140,
          "time": 106.27906976744185,
          "velocity": 0.23622047244094488
        },
        {
          "duration": 0.11627906976744384,
          "durationTicks": 10,
          "midi": 60,
          "name": "C4",
          "ticks": 9141,
          "time": 106.29069767441861,
          "velocity": 0.1732283464566929
        },
        {
          "duration": 0.09302325581396076,
          "durationTicks": 8,
          "midi": 52,
          "name": "E3",
          "ticks": 9143,
          "time": 106.31395348837209,
          "velocity": 0.30708661417322836
        },
        {
          "duration": 0.10465116279068809,
          "durationTicks": 9,
          "midi": 45,
          "name": "A2",
          "ticks": 9146,
          "time": 106.34883720930233,
          "velocity": 0.2283464566929134
        },
        {
          "duration": 0.023255813953483084,
          "durationTicks": 2,
          "midi": 44,
          "name": "G#2",
          "ticks": 9157,
          "time": 106.47674418604652,
          "velocity": 0.23622047244094488
        },
        {
          "duration": 0.04651162790698038,
          "durationTicks": 4,
          "midi": 45,
          "name": "A2",
          "ticks": 9160,
          "time": 106.51162790697674,
          "velocity": 0.2125984251968504
        },
        {
          "duration": 0.08139534883721922,
          "durationTicks": 7,
          "midi": 52,
          "name": "E3",
          "ticks": 9161,
          "time": 106.52325581395348,
          "velocity": 0.11023622047244094
        },
        {
          "duration": 0.023255813953483084,
          "durationTicks": 2,
          "midi": 52,
          "name": "E3",
          "ticks": 9170,
          "time": 106.62790697674419,
          "velocity": 0.25984251968503935
        },
        {
          "duration": 0.023255813953497295,
          "durationTicks": 2,
          "midi": 44,
          "name": "G#2",
          "ticks": 9172,
          "time": 106.65116279069767,
          "velocity": 0.23622047244094488
        },
        {
          "duration": 0.03488372093023884,
          "durationTicks": 3,
          "midi": 51,
          "name": "D#3",
          "ticks": 9172,
          "time": 106.65116279069767,
          "velocity": 0.14173228346456693
        },
        {
          "duration": 0.05813953488372192,
          "durationTicks": 5,
          "midi": 57,
          "name": "A3",
          "ticks": 9174,
          "time": 106.67441860465117,
          "velocity": 0.2047244094488189
        },
        {
          "duration": 0.034883720930224626,
          "durationTicks": 3,
          "midi": 57,
          "name": "A3",
          "ticks": 9180,
          "time": 106.74418604651163,
          "velocity": 0.1889763779527559
        },
        {
          "duration": 0.13953488372092693,
          "durationTicks": 12,
          "midi": 52,
          "name": "E3",
          "ticks": 9181,
          "time": 106.75581395348837,
          "velocity": 0.28346456692913385
        },
        {
          "duration": 0.04651162790698038,
          "durationTicks": 4,
          "midi": 45,
          "name": "A2",
          "ticks": 9193,
          "time": 106.8953488372093,
          "velocity": 0.1889763779527559
        },
        {
          "duration": 0.04651162790698038,
          "durationTicks": 4,
          "midi": 52,
          "name": "E3",
          "ticks": 9197,
          "time": 106.94186046511628,
          "velocity": 0.09448818897637795
        },
        {
          "duration": 0.06976744186046346,
          "durationTicks": 6,
          "midi": 57,
          "name": "A3",
          "ticks": 9203,
          "time": 107.01162790697674,
          "velocity": 0.15748031496062992
        },
        {
          "duration": 0.1046511627907023,
          "durationTicks": 9,
          "midi": 45,
          "name": "A2",
          "ticks": 9209,
          "time": 107.0813953488372,
          "velocity": 0.23622047244094488
        },
        {
          "duration": 0.03488372093023884,
          "durationTicks": 3,
          "midi": 52,
          "name": "E3",
          "ticks": 9213,
          "time": 107.12790697674419,
          "velocity": 0.23622047244094488
        },
        {
          "duration": 0.05813953488372192,
          "durationTicks": 5,
          "midi": 52,
          "name": "E3",
          "ticks": 9217,
          "time": 107.17441860465117,
          "velocity": 0.1968503937007874
        },
        {
          "duration": 0.06976744186046346,
          "durationTicks": 6,
          "midi": 59,
          "name": "B3",
          "ticks": 9218,
          "time": 107.18604651162791,
          "velocity": 0.2204724409448819
        },
        {
          "duration": 0.03488372093023884,
          "durationTicks": 3,
          "midi": 45,
          "name": "A2",
          "ticks": 9224,
          "time": 107.25581395348837,
          "velocity": 0.18110236220472442
        },
        {
          "duration": 0.04651162790698038,
          "durationTicks": 4,
          "midi": 59,
          "name": "B3",
          "ticks": 9225,
          "time": 107.26744186046511,
          "velocity": 0.2047244094488189
        },
        {
          "duration": 0.09302325581396076,
          "durationTicks": 8,
          "midi": 59,
          "name": "B3",
          "ticks": 9230,
          "time": 107.32558139534883,
          "velocity": 0.2047244094488189
        },
        {
          "duration": 0.023255813953483084,
          "durationTicks": 2,
          "midi": 44,
          "name": "G#2",
          "ticks": 9238,
          "time": 107.4186046511628,
          "velocity": 0.28346456692913385
        },
        {
          "duration": 0.023255813953497295,
          "durationTicks": 2,
          "midi": 46,
          "name": "A#2",
          "ticks": 9242,
          "time": 107.46511627906976,
          "velocity": 0.28346456692913385
        },
        {
          "duration": 0.023255813953483084,
          "durationTicks": 2,
          "midi": 44,
          "name": "G#2",
          "ticks": 9244,
          "time": 107.48837209302326,
          "velocity": 0.28346456692913385
        },
        {
          "duration": 1.0697674418604635,
          "durationTicks": 92,
          "midi": 57,
          "name": "A3",
          "ticks": 9244,
          "time": 107.48837209302326,
          "velocity": 0.25984251968503935
        },
        {
          "duration": 0.023255813953483084,
          "durationTicks": 2,
          "midi": 44,
          "name": "G#2",
          "ticks": 9248,
          "time": 107.53488372093024,
          "velocity": 0.2440944881889764
        },
        {
          "duration": 0.1860465116279073,
          "durationTicks": 16,
          "midi": 45,
          "name": "A2",
          "ticks": 9252,
          "time": 107.5813953488372,
          "velocity": 0.23622047244094488
        },
        {
          "duration": 0.023255813953497295,
          "durationTicks": 2,
          "midi": 51,
          "name": "D#3",
          "ticks": 9252,
          "time": 107.5813953488372,
          "velocity": 0.2677165354330709
        },
        {
          "duration": 0.081395348837205,
          "durationTicks": 7,
          "midi": 52,
          "name": "E3",
          "ticks": 9254,
          "time": 107.6046511627907,
          "velocity": 0.31496062992125984
        },
        {
          "duration": 0.04651162790698038,
          "durationTicks": 4,
          "midi": 45,
          "name": "A2",
          "ticks": 9271,
          "time": 107.80232558139535,
          "velocity": 0.2047244094488189
        },
        {
          "duration": 0.034883720930224626,
          "durationTicks": 3,
          "midi": 52,
          "name": "E3",
          "ticks": 9276,
          "time": 107.86046511627907,
          "velocity": 0.1968503937007874
        },
        {
          "duration": 0.034883720930224626,
          "durationTicks": 3,
          "midi": 52,
          "name": "E3",
          "ticks": 9280,
          "time": 107.90697674418605,
          "velocity": 0.2755905511811024
        },
        {
          "duration": 0.023255813953483084,
          "durationTicks": 2,
          "midi": 44,
          "name": "G#2",
          "ticks": 9282,
          "time": 107.93023255813954,
          "velocity": 0.2283464566929134
        },
        {
          "duration": 0.034883720930224626,
          "durationTicks": 3,
          "midi": 45,
          "name": "A2",
          "ticks": 9286,
          "time": 107.97674418604652,
          "velocity": 0.2047244094488189
        },
        {
          "duration": 0.04651162790698038,
          "durationTicks": 4,
          "midi": 52,
          "name": "E3",
          "ticks": 9290,
          "time": 108.02325581395348,
          "velocity": 0.1968503937007874
        },
        {
          "duration": 0.05813953488372192,
          "durationTicks": 5,
          "midi": 52,
          "name": "E3",
          "ticks": 9296,
          "time": 108.09302325581395,
          "velocity": 0.2125984251968504
        },
        {
          "duration": 0.05813953488372192,
          "durationTicks": 5,
          "midi": 45,
          "name": "A2",
          "ticks": 9305,
          "time": 108.19767441860465,
          "velocity": 0.2047244094488189
        },
        {
          "duration": 0.03488372093023884,
          "durationTicks": 3,
          "midi": 52,
          "name": "E3",
          "ticks": 9305,
          "time": 108.19767441860465,
          "velocity": 0.07874015748031496
        },
        {
          "duration": 0.05813953488372192,
          "durationTicks": 5,
          "midi": 45,
          "name": "A2",
          "ticks": 9313,
          "time": 108.29069767441861,
          "velocity": 0.16535433070866143
        },
        {
          "duration": 0.04651162790698038,
          "durationTicks": 4,
          "midi": 52,
          "name": "E3",
          "ticks": 9336,
          "time": 108.55813953488372,
          "velocity": 0.12598425196850394
        },
        {
          "duration": 0.19767441860464885,
          "durationTicks": 17,
          "midi": 57,
          "name": "A3",
          "ticks": 9350,
          "time": 108.72093023255815,
          "velocity": 0.15748031496062992
        },
        {
          "duration": 0.034883720930224626,
          "durationTicks": 3,
          "midi": 44,
          "name": "G#2",
          "ticks": 9356,
          "time": 108.79069767441861,
          "velocity": 0.2047244094488189
        },
        {
          "duration": 0.09302325581394655,
          "durationTicks": 8,
          "midi": 52,
          "name": "E3",
          "ticks": 9366,
          "time": 108.90697674418605,
          "velocity": 0.2992125984251969
        },
        {
          "duration": 0.7558139534883708,
          "durationTicks": 65,
          "midi": 57,
          "name": "A3",
          "ticks": 9370,
          "time": 108.95348837209302,
          "velocity": 0.2047244094488189
        },
        {
          "duration": 0.06976744186047767,
          "durationTicks": 6,
          "midi": 52,
          "name": "E3",
          "ticks": 9382,
          "time": 109.09302325581395,
          "velocity": 0.11023622047244094
        },
        {
          "duration": 0.023255813953483084,
          "durationTicks": 2,
          "midi": 44,
          "name": "G#2",
          "ticks": 9390,
          "time": 109.18604651162791,
          "velocity": 0.25196850393700787
        },
        {
          "duration": 0.03488372093023884,
          "durationTicks": 3,
          "midi": 52,
          "name": "E3",
          "ticks": 9392,
          "time": 109.20930232558139,
          "velocity": 0.11023622047244094
        },
        {
          "duration": 0.034883720930224626,
          "durationTicks": 3,
          "midi": 44,
          "name": "G#2",
          "ticks": 9399,
          "time": 109.29069767441861,
          "velocity": 0.1732283464566929
        },
        {
          "duration": 0.034883720930224626,
          "durationTicks": 3,
          "midi": 52,
          "name": "E3",
          "ticks": 9404,
          "time": 109.34883720930233,
          "velocity": 0.11811023622047244
        },
        {
          "duration": 0.081395348837205,
          "durationTicks": 7,
          "midi": 45,
          "name": "A2",
          "ticks": 9407,
          "time": 109.38372093023256,
          "velocity": 0.13385826771653545
        },
        {
          "duration": 0.05813953488370771,
          "durationTicks": 5,
          "midi": 52,
          "name": "E3",
          "ticks": 9409,
          "time": 109.40697674418605,
          "velocity": 0.14173228346456693
        },
        {
          "duration": 0.06976744186046346,
          "durationTicks": 6,
          "midi": 52,
          "name": "E3",
          "ticks": 9418,
          "time": 109.51162790697674,
          "velocity": 0.11811023622047244
        },
        {
          "duration": 0.1046511627907023,
          "durationTicks": 9,
          "midi": 45,
          "name": "A2",
          "ticks": 9424,
          "time": 109.5813953488372,
          "velocity": 0.14173228346456693
        },
        {
          "duration": 0.05813953488372192,
          "durationTicks": 5,
          "midi": 52,
          "name": "E3",
          "ticks": 9428,
          "time": 109.62790697674419,
          "velocity": 0.2204724409448819
        },
        {
          "duration": 0.081395348837205,
          "durationTicks": 7,
          "midi": 52,
          "name": "E3",
          "ticks": 9434,
          "time": 109.69767441860465,
          "velocity": 0.2755905511811024
        },
        {
          "duration": 0.04651162790698038,
          "durationTicks": 4,
          "midi": 52,
          "name": "E3",
          "ticks": 9450,
          "time": 109.88372093023256,
          "velocity": 0.1889763779527559
        },
        {
          "duration": 0.04651162790696617,
          "durationTicks": 4,
          "midi": 60,
          "name": "C4",
          "ticks": 9452,
          "time": 109.90697674418605,
          "velocity": 0.09448818897637795
        },
        {
          "duration": 1.1860465116279073,
          "durationTicks": 102,
          "midi": 67,
          "name": "G4",
          "ticks": 9457,
          "time": 109.96511627906976,
          "velocity": 0.2204724409448819
        },
        {
          "duration": 0.023255813953483084,
          "durationTicks": 2,
          "midi": 42,
          "name": "F#2",
          "ticks": 9458,
          "time": 109.97674418604652,
          "velocity": 0.3700787401574803
        },
        {
          "duration": 0.24418604651162923,
          "durationTicks": 21,
          "midi": 60,
          "name": "C4",
          "ticks": 9458,
          "time": 109.97674418604652,
          "velocity": 0.1732283464566929
        },
        {
          "duration": 0.023255813953483084,
          "durationTicks": 2,
          "midi": 41,
          "name": "F2",
          "ticks": 9460,
          "time": 110,
          "velocity": 0.31496062992125984
        },
        {
          "duration": 0.05813953488372192,
          "durationTicks": 5,
          "midi": 42,
          "name": "F#2",
          "ticks": 9462,
          "time": 110.02325581395348,
          "velocity": 0.29133858267716534
        },
        {
          "duration": 0.03488372093023884,
          "durationTicks": 3,
          "midi": 42,
          "name": "F#2",
          "ticks": 9468,
          "time": 110.09302325581395,
          "velocity": 0.1732283464566929
        },
        {
          "duration": 0.15116279069768268,
          "durationTicks": 13,
          "midi": 48,
          "name": "C3",
          "ticks": 9472,
          "time": 110.13953488372093,
          "velocity": 0.14960629921259844
        },
        {
          "duration": 0.04651162790698038,
          "durationTicks": 4,
          "midi": 52,
          "name": "E3",
          "ticks": 9488,
          "time": 110.32558139534883,
          "velocity": 0.1889763779527559
        },
        {
          "duration": 0.06976744186046346,
          "durationTicks": 6,
          "midi": 48,
          "name": "C3",
          "ticks": 9493,
          "time": 110.38372093023256,
          "velocity": 0.14960629921259844
        },
        {
          "duration": 0.2674418604651123,
          "durationTicks": 23,
          "midi": 48,
          "name": "C3",
          "ticks": 9502,
          "time": 110.48837209302326,
          "velocity": 0.1732283464566929
        },
        {
          "duration": 0.04651162790698038,
          "durationTicks": 4,
          "midi": 48,
          "name": "C3",
          "ticks": 9534,
          "time": 110.86046511627907,
          "velocity": 0.07086614173228346
        },
        {
          "duration": 0.7093023255814046,
          "durationTicks": 61,
          "midi": 59,
          "name": "B3",
          "ticks": 9570,
          "time": 111.27906976744185,
          "velocity": 0.2125984251968504
        },
        {
          "duration": 0.023255813953483084,
          "durationTicks": 2,
          "midi": 41,
          "name": "F2",
          "ticks": 9571,
          "time": 111.29069767441861,
          "velocity": 0.30708661417322836
        },
        {
          "duration": 0.03488372093023884,
          "durationTicks": 3,
          "midi": 42,
          "name": "F#2",
          "ticks": 9573,
          "time": 111.31395348837209,
          "velocity": 0.2283464566929134
        },
        {
          "duration": 0.04651162790698038,
          "durationTicks": 4,
          "midi": 42,
          "name": "F#2",
          "ticks": 9577,
          "time": 111.36046511627907,
          "velocity": 0.18110236220472442
        },
        {
          "duration": 0.23255813953487348,
          "durationTicks": 20,
          "midi": 48,
          "name": "C3",
          "ticks": 9577,
          "time": 111.36046511627907,
          "velocity": 0.16535433070866143
        },
        {
          "duration": 0.034883720930224626,
          "durationTicks": 3,
          "midi": 41,
          "name": "F2",
          "ticks": 9581,
          "time": 111.40697674418605,
          "velocity": 0.16535433070866143
        },
        {
          "duration": 0.081395348837205,
          "durationTicks": 7,
          "midi": 48,
          "name": "C3",
          "ticks": 9605,
          "time": 111.68604651162791,
          "velocity": 0.2204724409448819
        },
        {
          "duration": 0.25581395348837077,
          "durationTicks": 22,
          "midi": 48,
          "name": "C3",
          "ticks": 9614,
          "time": 111.79069767441861,
          "velocity": 0.15748031496062992
        },
        {
          "duration": 0.023255813953483084,
          "durationTicks": 2,
          "midi": 42,
          "name": "F#2",
          "ticks": 9638,
          "time": 112.06976744186046,
          "velocity": 0.2283464566929134
        },
        {
          "duration": 0.34883720930233153,
          "durationTicks": 30,
          "midi": 59,
          "name": "B3",
          "ticks": 9638,
          "time": 112.06976744186046,
          "velocity": 0.12598425196850394
        },
        {
          "duration": 0.081395348837205,
          "durationTicks": 7,
          "midi": 48,
          "name": "C3",
          "ticks": 9642,
          "time": 112.11627906976744,
          "velocity": 0.14960629921259844
        },
        {
          "duration": 0.034883720930224626,
          "durationTicks": 3,
          "midi": 41,
          "name": "F2",
          "ticks": 9647,
          "time": 112.17441860465117,
          "velocity": 0.11023622047244094
        },
        {
          "duration": 0.034883720930224626,
          "durationTicks": 3,
          "midi": 52,
          "name": "E3",
          "ticks": 9657,
          "time": 112.29069767441861,
          "velocity": 0.15748031496062992
        },
        {
          "duration": 0.023255813953497295,
          "durationTicks": 2,
          "midi": 52,
          "name": "E3",
          "ticks": 9666,
          "time": 112.3953488372093,
          "velocity": 0.2677165354330709
        },
        {
          "duration": 0.19767441860464885,
          "durationTicks": 17,
          "midi": 67,
          "name": "G4",
          "ticks": 9676,
          "time": 112.51162790697674,
          "velocity": 0.25984251968503935
        },
        {
          "duration": 0.40697674418605345,
          "durationTicks": 35,
          "midi": 62,
          "name": "D4",
          "ticks": 9682,
          "time": 112.5813953488372,
          "velocity": 0.2047244094488189
        },
        {
          "duration": 0.03488372093023884,
          "durationTicks": 3,
          "midi": 41,
          "name": "F2",
          "ticks": 9683,
          "time": 112.59302325581395,
          "velocity": 0.18110236220472442
        },
        {
          "duration": 0.15116279069768268,
          "durationTicks": 13,
          "midi": 48,
          "name": "C3",
          "ticks": 9692,
          "time": 112.69767441860465,
          "velocity": 0.10236220472440945
        },
        {
          "duration": 0.15116279069766847,
          "durationTicks": 13,
          "midi": 67,
          "name": "G4",
          "ticks": 9706,
          "time": 112.86046511627907,
          "velocity": 0.07086614173228346
        },
        {
          "duration": 0.023255813953497295,
          "durationTicks": 2,
          "midi": 53,
          "name": "F3",
          "ticks": 9720,
          "time": 113.02325581395348,
          "velocity": 0.2283464566929134
        },
        {
          "duration": 0.11627906976744384,
          "durationTicks": 10,
          "midi": 55,
          "name": "G3",
          "ticks": 9722,
          "time": 113.04651162790698,
          "velocity": 0.16535433070866143
        },
        {
          "duration": 0.13953488372092693,
          "durationTicks": 12,
          "midi": 67,
          "name": "G4",
          "ticks": 9732,
          "time": 113.16279069767442,
          "velocity": 0.2440944881889764
        },
        {
          "duration": 0.30232558139535115,
          "durationTicks": 26,
          "midi": 55,
          "name": "G3",
          "ticks": 9735,
          "time": 113.19767441860465,
          "velocity": 0.11023622047244094
        },
        {
          "duration": 0.023255813953483084,
          "durationTicks": 2,
          "midi": 42,
          "name": "F#2",
          "ticks": 9745,
          "time": 113.31395348837209,
          "velocity": 0.2283464566929134
        },
        {
          "duration": 0.2906976744186096,
          "durationTicks": 25,
          "midi": 62,
          "name": "D4",
          "ticks": 9746,
          "time": 113.32558139534883,
          "velocity": 0.15748031496062992
        },
        {
          "duration": 0.04651162790696617,
          "durationTicks": 4,
          "midi": 41,
          "name": "F2",
          "ticks": 9754,
          "time": 113.4186046511628,
          "velocity": 0.08661417322834646
        },
        {
          "duration": 0.03488372093023884,
          "durationTicks": 3,
          "midi": 51,
          "name": "D#3",
          "ticks": 9761,
          "time": 113.5,
          "velocity": 0.14173228346456693
        },
        {
          "duration": 0.09302325581394655,
          "durationTicks": 8,
          "midi": 52,
          "name": "E3",
          "ticks": 9764,
          "time": 113.53488372093024,
          "velocity": 0.1968503937007874
        },
        {
          "duration": 0.05813953488372192,
          "durationTicks": 5,
          "midi": 77,
          "name": "F5",
          "ticks": 9774,
          "time": 113.65116279069767,
          "velocity": 0.10236220472440945
        },
        {
          "duration": 0.034883720930224626,
          "durationTicks": 3,
          "midi": 55,
          "name": "G3",
          "ticks": 9780,
          "time": 113.72093023255815,
          "velocity": 0.07086614173228346
        },
        {
          "duration": 0.1046511627907023,
          "durationTicks": 9,
          "midi": 64,
          "name": "E4",
          "ticks": 9789,
          "time": 113.82558139534883,
          "velocity": 0.09448818897637795
        },
        {
          "duration": 0.25581395348837077,
          "durationTicks": 22,
          "midi": 60,
          "name": "C4",
          "ticks": 9790,
          "time": 113.83720930232558,
          "velocity": 0.1889763779527559
        },
        {
          "duration": 0.03488372093023884,
          "durationTicks": 3,
          "midi": 42,
          "name": "F#2",
          "ticks": 9793,
          "time": 113.87209302325581,
          "velocity": 0.23622047244094488
        },
        {
          "duration": 0.03488372093023884,
          "durationTicks": 3,
          "midi": 42,
          "name": "F#2",
          "ticks": 9801,
          "time": 113.96511627906976,
          "velocity": 0.2204724409448819
        },
        {
          "duration": 0.11627906976744384,
          "durationTicks": 10,
          "midi": 48,
          "name": "C3",
          "ticks": 9806,
          "time": 114.02325581395348,
          "velocity": 0.14173228346456693
        },
        {
          "duration": 0.03488372093023884,
          "durationTicks": 3,
          "midi": 41,
          "name": "F2",
          "ticks": 9816,
          "time": 114.13953488372093,
          "velocity": 0.09448818897637795
        },
        {
          "duration": 0.09302325581396076,
          "durationTicks": 8,
          "midi": 48,
          "name": "C3",
          "ticks": 9821,
          "time": 114.19767441860465,
          "velocity": 0.11023622047244094
        },
        {
          "duration": 0.023255813953497295,
          "durationTicks": 2,
          "midi": 61,
          "name": "C#4",
          "ticks": 9833,
          "time": 114.33720930232558,
          "velocity": 0.3228346456692913
        },
        {
          "duration": 0.023255813953483084,
          "durationTicks": 2,
          "midi": 51,
          "name": "D#3",
          "ticks": 9834,
          "time": 114.34883720930233,
          "velocity": 0.25196850393700787
        },
        {
          "duration": 0.12790697674418539,
          "durationTicks": 11,
          "midi": 74,
          "name": "D5",
          "ticks": 9834,
          "time": 114.34883720930233,
          "velocity": 0.08661417322834646
        },
        {
          "duration": 0.13953488372092693,
          "durationTicks": 12,
          "midi": 62,
          "name": "D4",
          "ticks": 9835,
          "time": 114.36046511627907,
          "velocity": 0.30708661417322836
        },
        {
          "duration": 0.22093023255813193,
          "durationTicks": 19,
          "midi": 55,
          "name": "G3",
          "ticks": 9836,
          "time": 114.37209302325581,
          "velocity": 0.15748031496062992
        },
        {
          "duration": 0.16279069767441,
          "durationTicks": 14,
          "midi": 48,
          "name": "C3",
          "ticks": 9840,
          "time": 114.4186046511628,
          "velocity": 0.10236220472440945
        },
        {
          "duration": 0.023255813953497295,
          "durationTicks": 2,
          "midi": 42,
          "name": "F#2",
          "ticks": 9855,
          "time": 114.59302325581395,
          "velocity": 0.2440944881889764
        },
        {
          "duration": 0.03488372093023884,
          "durationTicks": 3,
          "midi": 60,
          "name": "C4",
          "ticks": 9855,
          "time": 114.59302325581395,
          "velocity": 0.12598425196850394
        },
        {
          "duration": 0.03488372093023884,
          "durationTicks": 3,
          "midi": 42,
          "name": "F#2",
          "ticks": 9858,
          "time": 114.62790697674419,
          "velocity": 0.1889763779527559
        },
        {
          "duration": 0.16279069767442422,
          "durationTicks": 14,
          "midi": 55,
          "name": "G3",
          "ticks": 9858,
          "time": 114.62790697674419,
          "velocity": 0.12598425196850394
        },
        {
          "duration": 0.04651162790698038,
          "durationTicks": 4,
          "midi": 60,
          "name": "C4",
          "ticks": 9860,
          "time": 114.65116279069767,
          "velocity": 0.12598425196850394
        },
        {
          "duration": 0.04651162790698038,
          "durationTicks": 4,
          "midi": 42,
          "name": "F#2",
          "ticks": 9864,
          "time": 114.69767441860465,
          "velocity": 0.11811023622047244
        },
        {
          "duration": 0.09302325581394655,
          "durationTicks": 8,
          "midi": 52,
          "name": "E3",
          "ticks": 9872,
          "time": 114.79069767441861,
          "velocity": 0.2677165354330709
        },
        {
          "duration": 0.15116279069766847,
          "durationTicks": 13,
          "midi": 60,
          "name": "C4",
          "ticks": 9873,
          "time": 114.80232558139535,
          "velocity": 0.2992125984251969
        },
        {
          "duration": 0.16279069767442422,
          "durationTicks": 14,
          "midi": 59,
          "name": "B3",
          "ticks": 9886,
          "time": 114.95348837209302,
          "velocity": 0.2755905511811024
        },
        {
          "duration": 0.023255813953483084,
          "durationTicks": 2,
          "midi": 58,
          "name": "A#3",
          "ticks": 9900,
          "time": 115.11627906976744,
          "velocity": 0.28346456692913385
        },
        {
          "duration": 0.023255813953497295,
          "durationTicks": 2,
          "midi": 57,
          "name": "A3",
          "ticks": 9908,
          "time": 115.20930232558139,
          "velocity": 0.25196850393700787
        },
        {
          "duration": 0.023255813953483084,
          "durationTicks": 2,
          "midi": 58,
          "name": "A#3",
          "ticks": 9910,
          "time": 115.23255813953489,
          "velocity": 0.28346456692913385
        },
        {
          "duration": 0.023255813953483084,
          "durationTicks": 2,
          "midi": 57,
          "name": "A3",
          "ticks": 9912,
          "time": 115.25581395348837,
          "velocity": 0.25196850393700787
        },
        {
          "duration": 0.023255813953483084,
          "durationTicks": 2,
          "midi": 57,
          "name": "A3",
          "ticks": 9915,
          "time": 115.29069767441861,
          "velocity": 0.23622047244094488
        },
        {
          "duration": 0.2674418604651123,
          "durationTicks": 23,
          "midi": 45,
          "name": "A2",
          "ticks": 9916,
          "time": 115.30232558139535,
          "velocity": 0.14960629921259844
        },
        {
          "duration": 0.03488372093023884,
          "durationTicks": 3,
          "midi": 57,
          "name": "A3",
          "ticks": 9918,
          "time": 115.32558139534883,
          "velocity": 0.25196850393700787
        },
        {
          "duration": 0.023255813953483084,
          "durationTicks": 2,
          "midi": 57,
          "name": "A3",
          "ticks": 9922,
          "time": 115.37209302325581,
          "velocity": 0.2283464566929134
        },
        {
          "duration": 0.7674418604651123,
          "durationTicks": 66,
          "midi": 57,
          "name": "A3",
          "ticks": 9925,
          "time": 115.40697674418605,
          "velocity": 0.31496062992125984
        },
        {
          "duration": 0.04651162790698038,
          "durationTicks": 4,
          "midi": 52,
          "name": "E3",
          "ticks": 9928,
          "time": 115.44186046511628,
          "velocity": 0.14173228346456693
        },
        {
          "duration": 0.023255813953497295,
          "durationTicks": 2,
          "midi": 42,
          "name": "F#2",
          "ticks": 9941,
          "time": 115.59302325581395,
          "velocity": 0.25196850393700787
        },
        {
          "duration": 0.03488372093023884,
          "durationTicks": 3,
          "midi": 44,
          "name": "G#2",
          "ticks": 9949,
          "time": 115.68604651162791,
          "velocity": 0.18110236220472442
        },
        {
          "duration": 0.034883720930224626,
          "durationTicks": 3,
          "midi": 45,
          "name": "A2",
          "ticks": 9964,
          "time": 115.86046511627907,
          "velocity": 0.25984251968503935
        },
        {
          "duration": 0.034883720930224626,
          "durationTicks": 3,
          "midi": 42,
          "name": "F#2",
          "ticks": 9970,
          "time": 115.93023255813954,
          "velocity": 0.2047244094488189
        },
        {
          "duration": 0.05813953488372192,
          "durationTicks": 5,
          "midi": 52,
          "name": "E3",
          "ticks": 9982,
          "time": 116.06976744186046,
          "velocity": 0.1732283464566929
        },
        {
          "duration": 0.081395348837205,
          "durationTicks": 7,
          "midi": 45,
          "name": "A2",
          "ticks": 9987,
          "time": 116.12790697674419,
          "velocity": 0.09448818897637795
        },
        {
          "duration": 0.1046511627907023,
          "durationTicks": 9,
          "midi": 57,
          "name": "A3",
          "ticks": 9992,
          "time": 116.18604651162791,
          "velocity": 0.1968503937007874
        },
        {
          "duration": 0.03488372093023884,
          "durationTicks": 3,
          "midi": 52,
          "name": "E3",
          "ticks": 9994,
          "time": 116.20930232558139,
          "velocity": 0.14960629921259844
        },
        {
          "duration": 0.034883720930224626,
          "durationTicks": 3,
          "midi": 44,
          "name": "G#2",
          "ticks": 9995,
          "time": 116.22093023255815,
          "velocity": 0.1732283464566929
        },
        {
          "duration": 0.05813953488372192,
          "durationTicks": 5,
          "midi": 57,
          "name": "A3",
          "ticks": 10002,
          "time": 116.30232558139535,
          "velocity": 0.14173228346456693
        },
        {
          "duration": 0.034883720930224626,
          "durationTicks": 3,
          "midi": 44,
          "name": "G#2",
          "ticks": 10012,
          "time": 116.4186046511628,
          "velocity": 0.29133858267716534
        },
        {
          "duration": 0.034883720930224626,
          "durationTicks": 3,
          "midi": 57,
          "name": "A3",
          "ticks": 10012,
          "time": 116.4186046511628,
          "velocity": 0.09448818897637795
        },
        {
          "duration": 0.06976744186046346,
          "durationTicks": 6,
          "midi": 52,
          "name": "E3",
          "ticks": 10015,
          "time": 116.45348837209302,
          "velocity": 0.18110236220472442
        },
        {
          "duration": 0.023255813953497295,
          "durationTicks": 2,
          "midi": 44,
          "name": "G#2",
          "ticks": 10016,
          "time": 116.46511627906976,
          "velocity": 0.2677165354330709
        },
        {
          "duration": 0.12790697674418539,
          "durationTicks": 11,
          "midi": 45,
          "name": "A2",
          "ticks": 10026,
          "time": 116.5813953488372,
          "velocity": 0.23622047244094488
        },
        {
          "duration": 0.06976744186046346,
          "durationTicks": 6,
          "midi": 52,
          "name": "E3",
          "ticks": 10037,
          "time": 116.70930232558139,
          "velocity": 0.18110236220472442
        },
        {
          "duration": 0.16279069767441,
          "durationTicks": 14,
          "midi": 45,
          "name": "A2",
          "ticks": 10038,
          "time": 116.72093023255815,
          "velocity": 0.28346456692913385
        },
        {
          "duration": 0.023255813953483084,
          "durationTicks": 2,
          "midi": 53,
          "name": "F3",
          "ticks": 10049,
          "time": 116.84883720930233,
          "velocity": 0.23622047244094488
        },
        {
          "duration": 0.023255813953483084,
          "durationTicks": 2,
          "midi": 44,
          "name": "G#2",
          "ticks": 10055,
          "time": 116.9186046511628,
          "velocity": 0.25196850393700787
        },
        {
          "duration": 0.081395348837205,
          "durationTicks": 7,
          "midi": 52,
          "name": "E3",
          "ticks": 10055,
          "time": 116.9186046511628,
          "velocity": 0.14960629921259844
        },
        {
          "duration": 0.06976744186046346,
          "durationTicks": 6,
          "midi": 45,
          "name": "A2",
          "ticks": 10061,
          "time": 116.98837209302326,
          "velocity": 0.2283464566929134
        },
        {
          "duration": 0.081395348837205,
          "durationTicks": 7,
          "midi": 45,
          "name": "A2",
          "ticks": 10068,
          "time": 117.06976744186046,
          "velocity": 0.25196850393700787
        },
        {
          "duration": 0.16279069767441,
          "durationTicks": 14,
          "midi": 62,
          "name": "D4",
          "ticks": 10076,
          "time": 117.16279069767442,
          "velocity": 0.07874015748031496
        },
        {
          "duration": 0.023255813953483084,
          "durationTicks": 2,
          "midi": 44,
          "name": "G#2",
          "ticks": 10078,
          "time": 117.18604651162791,
          "velocity": 0.2283464566929134
        },
        {
          "duration": 0.04651162790698038,
          "durationTicks": 4,
          "midi": 45,
          "name": "A2",
          "ticks": 10084,
          "time": 117.25581395348837,
          "velocity": 0.1889763779527559
        },
        {
          "duration": 0.06976744186046346,
          "durationTicks": 6,
          "midi": 52,
          "name": "E3",
          "ticks": 10090,
          "time": 117.32558139534883,
          "velocity": 0.1889763779527559
        },
        {
          "duration": 0.09302325581396076,
          "durationTicks": 8,
          "midi": 45,
          "name": "A2",
          "ticks": 10095,
          "time": 117.38372093023256,
          "velocity": 0.18110236220472442
        },
        {
          "duration": 0.04651162790698038,
          "durationTicks": 4,
          "midi": 52,
          "name": "E3",
          "ticks": 10102,
          "time": 117.46511627906976,
          "velocity": 0.1968503937007874
        },
        {
          "duration": 0.023255813953483084,
          "durationTicks": 2,
          "midi": 44,
          "name": "G#2",
          "ticks": 10105,
          "time": 117.5,
          "velocity": 0.2283464566929134
        },
        {
          "duration": 0.023255813953497295,
          "durationTicks": 2,
          "midi": 51,
          "name": "D#3",
          "ticks": 10118,
          "time": 117.65116279069767,
          "velocity": 0.2677165354330709
        },
        {
          "duration": 0.15116279069766847,
          "durationTicks": 13,
          "midi": 60,
          "name": "C4",
          "ticks": 10120,
          "time": 117.67441860465117,
          "velocity": 0.23622047244094488
        },
        {
          "duration": 0.023255813953483084,
          "durationTicks": 2,
          "midi": 44,
          "name": "G#2",
          "ticks": 10121,
          "time": 117.68604651162791,
          "velocity": 0.2440944881889764
        },
        {
          "duration": 0.04651162790698038,
          "durationTicks": 4,
          "midi": 57,
          "name": "A3",
          "ticks": 10121,
          "time": 117.68604651162791,
          "velocity": 0.08661417322834646
        },
        {
          "duration": 0.03488372093023884,
          "durationTicks": 3,
          "midi": 52,
          "name": "E3",
          "ticks": 10132,
          "time": 117.81395348837209,
          "velocity": 0.11023622047244094
        },
        {
          "duration": 0.05813953488372192,
          "durationTicks": 5,
          "midi": 59,
          "name": "B3",
          "ticks": 10136,
          "time": 117.86046511627907,
          "velocity": 0.2283464566929134
        },
        {
          "duration": 0.034883720930224626,
          "durationTicks": 3,
          "midi": 45,
          "name": "A2",
          "ticks": 10142,
          "time": 117.93023255813954,
          "velocity": 0.1889763779527559
        },
        {
          "duration": 0.03488372093023884,
          "durationTicks": 3,
          "midi": 53,
          "name": "F3",
          "ticks": 10144,
          "time": 117.95348837209302,
          "velocity": 0.2204724409448819
        },
        {
          "duration": 0.023255813953497295,
          "durationTicks": 2,
          "midi": 44,
          "name": "G#2",
          "ticks": 10145,
          "time": 117.96511627906976,
          "velocity": 0.23622047244094488
        },
        {
          "duration": 0.023255813953483084,
          "durationTicks": 2,
          "midi": 45,
          "name": "A2",
          "ticks": 10147,
          "time": 117.98837209302326,
          "velocity": 0.2283464566929134
        },
        {
          "duration": 0.03488372093023884,
          "durationTicks": 3,
          "midi": 52,
          "name": "E3",
          "ticks": 10148,
          "time": 118,
          "velocity": 0.1889763779527559
        },
        {
          "duration": 0.1046511627907023,
          "durationTicks": 9,
          "midi": 60,
          "name": "C4",
          "ticks": 10148,
          "time": 118,
          "velocity": 0.11811023622047244
        },
        {
          "duration": 0.12790697674418539,
          "durationTicks": 11,
          "midi": 45,
          "name": "A2",
          "ticks": 10150,
          "time": 118.02325581395348,
          "velocity": 0.25196850393700787
        },
        {
          "duration": 0.03488372093023884,
          "durationTicks": 3,
          "midi": 44,
          "name": "G#2",
          "ticks": 10161,
          "time": 118.15116279069767,
          "velocity": 0.16535433070866143
        },
        {
          "duration": 0.023255813953497295,
          "durationTicks": 2,
          "midi": 52,
          "name": "E3",
          "ticks": 10161,
          "time": 118.15116279069767,
          "velocity": 0.23622047244094488
        },
        {
          "duration": 0.06976744186046346,
          "durationTicks": 6,
          "midi": 52,
          "name": "E3",
          "ticks": 10165,
          "time": 118.19767441860465,
          "velocity": 0.10236220472440945
        },
        {
          "duration": 0.023255813953483084,
          "durationTicks": 2,
          "midi": 42,
          "name": "F#2",
          "ticks": 10173,
          "time": 118.29069767441861,
          "velocity": 0.2283464566929134
        },
        {
          "duration": 0.023255813953483084,
          "durationTicks": 2,
          "midi": 58,
          "name": "A#3",
          "ticks": 10174,
          "time": 118.30232558139535,
          "velocity": 0.2440944881889764
        },
        {
          "duration": 0.03488372093023884,
          "durationTicks": 3,
          "midi": 52,
          "name": "E3",
          "ticks": 10175,
          "time": 118.31395348837209,
          "velocity": 0.1889763779527559
        },
        {
          "duration": 0.1046511627907023,
          "durationTicks": 9,
          "midi": 59,
          "name": "B3",
          "ticks": 10176,
          "time": 118.32558139534883,
          "velocity": 0.28346456692913385
        },
        {
          "duration": 0.03488372093023884,
          "durationTicks": 3,
          "midi": 44,
          "name": "G#2",
          "ticks": 10181,
          "time": 118.38372093023256,
          "velocity": 0.1732283464566929
        },
        {
          "duration": 0.023255813953483084,
          "durationTicks": 2,
          "midi": 42,
          "name": "F#2",
          "ticks": 10186,
          "time": 118.44186046511628,
          "velocity": 0.2992125984251969
        },
        {
          "duration": 0.023255813953497295,
          "durationTicks": 2,
          "midi": 59,
          "name": "B3",
          "ticks": 10187,
          "time": 118.45348837209302,
          "velocity": 0.23622047244094488
        },
        {
          "duration": 0.15116279069766847,
          "durationTicks": 13,
          "midi": 60,
          "name": "C4",
          "ticks": 10189,
          "time": 118.47674418604652,
          "velocity": 0.2677165354330709
        },
        {
          "duration": 0.05813953488372192,
          "durationTicks": 5,
          "midi": 57,
          "name": "A3",
          "ticks": 10198,
          "time": 118.5813953488372,
          "velocity": 0.14960629921259844
        },
        {
          "duration": 0.081395348837205,
          "durationTicks": 7,
          "midi": 52,
          "name": "E3",
          "ticks": 10201,
          "time": 118.61627906976744,
          "velocity": 0.16535433070866143
        },
        {
          "duration": 0.03488372093023884,
          "durationTicks": 3,
          "midi": 61,
          "name": "C#4",
          "ticks": 10202,
          "time": 118.62790697674419,
          "velocity": 0.30708661417322836
        },
        {
          "duration": 0.24418604651162923,
          "durationTicks": 21,
          "midi": 62,
          "name": "D4",
          "ticks": 10205,
          "time": 118.66279069767442,
          "velocity": 0.2677165354330709
        },
        {
          "duration": 0.04651162790698038,
          "durationTicks": 4,
          "midi": 52,
          "name": "E3",
          "ticks": 10213,
          "time": 118.75581395348837,
          "velocity": 0.2283464566929134
        },
        {
          "duration": 0.034883720930224626,
          "durationTicks": 3,
          "midi": 57,
          "name": "A3",
          "ticks": 10226,
          "time": 118.90697674418605,
          "velocity": 0.07086614173228346
        },
        {
          "duration": 0.034883720930224626,
          "durationTicks": 3,
          "midi": 50,
          "name": "D3",
          "ticks": 10228,
          "time": 118.93023255813954,
          "velocity": 0.23622047244094488
        },
        {
          "duration": 0.03488372093023884,
          "durationTicks": 3,
          "midi": 41,
          "name": "F2",
          "ticks": 10229,
          "time": 118.94186046511628,
          "velocity": 0.2283464566929134
        },
        {
          "duration": 0.13953488372094114,
          "durationTicks": 12,
          "midi": 60,
          "name": "C4",
          "ticks": 10231,
          "time": 118.96511627906976,
          "velocity": 0.31496062992125984
        },
        {
          "duration": 0.05813953488372192,
          "durationTicks": 5,
          "midi": 45,
          "name": "A2",
          "ticks": 10233,
          "time": 118.98837209302326,
          "velocity": 0.1889763779527559
        },
        {
          "duration": 0.081395348837205,
          "durationTicks": 7,
          "midi": 52,
          "name": "E3",
          "ticks": 10234,
          "time": 119,
          "velocity": 0.2047244094488189
        },
        {
          "duration": 0.04651162790698038,
          "durationTicks": 4,
          "midi": 45,
          "name": "A2",
          "ticks": 10241,
          "time": 119.0813953488372,
          "velocity": 0.1889763779527559
        },
        {
          "duration": 0.034883720930224626,
          "durationTicks": 3,
          "midi": 61,
          "name": "C#4",
          "ticks": 10243,
          "time": 119.1046511627907,
          "velocity": 0.2283464566929134
        },
        {
          "duration": 0.11627906976744384,
          "durationTicks": 10,
          "midi": 62,
          "name": "D4",
          "ticks": 10246,
          "time": 119.13953488372093,
          "velocity": 0.1968503937007874
        },
        {
          "duration": 0.05813953488372192,
          "durationTicks": 5,
          "midi": 45,
          "name": "A2",
          "ticks": 10252,
          "time": 119.20930232558139,
          "velocity": 0.1732283464566929
        },
        {
          "duration": 0.04651162790696617,
          "durationTicks": 4,
          "midi": 59,
          "name": "B3",
          "ticks": 10254,
          "time": 119.23255813953489,
          "velocity": 0.1889763779527559
        },
        {
          "duration": 0.03488372093023884,
          "durationTicks": 3,
          "midi": 53,
          "name": "F3",
          "ticks": 10256,
          "time": 119.25581395348837,
          "velocity": 0.2047244094488189
        },
        {
          "duration": 0.023255813953483084,
          "durationTicks": 2,
          "midi": 44,
          "name": "G#2",
          "ticks": 10259,
          "time": 119.29069767441861,
          "velocity": 0.23622047244094488
        },
        {
          "duration": 0.034883720930224626,
          "durationTicks": 3,
          "midi": 52,
          "name": "E3",
          "ticks": 10260,
          "time": 119.30232558139535,
          "velocity": 0.12598425196850394
        },
        {
          "duration": 0.04651162790698038,
          "durationTicks": 4,
          "midi": 45,
          "name": "A2",
          "ticks": 10265,
          "time": 119.36046511627907,
          "velocity": 0.1732283464566929
        },
        {
          "duration": 0.05813953488372192,
          "durationTicks": 5,
          "midi": 53,
          "name": "F3",
          "ticks": 10270,
          "time": 119.4186046511628,
          "velocity": 0.18110236220472442
        },
        {
          "duration": 0.023255813953483084,
          "durationTicks": 2,
          "midi": 45,
          "name": "A2",
          "ticks": 10272,
          "time": 119.44186046511628,
          "velocity": 0.2283464566929134
        },
        {
          "duration": 0.05813953488372192,
          "durationTicks": 5,
          "midi": 52,
          "name": "E3",
          "ticks": 10275,
          "time": 119.47674418604652,
          "velocity": 0.13385826771653545
        },
        {
          "duration": 0.05813953488372192,
          "durationTicks": 5,
          "midi": 45,
          "name": "A2",
          "ticks": 10276,
          "time": 119.48837209302326,
          "velocity": 0.1732283464566929
        },
        {
          "duration": 0.11627906976744384,
          "durationTicks": 10,
          "midi": 57,
          "name": "A3",
          "ticks": 10287,
          "time": 119.61627906976744,
          "velocity": 0.14960629921259844
        },
        {
          "duration": 0.19767441860464885,
          "durationTicks": 17,
          "midi": 67,
          "name": "G4",
          "ticks": 10287,
          "time": 119.61627906976744,
          "velocity": 0.15748031496062992
        },
        {
          "duration": 0.03488372093023884,
          "durationTicks": 3,
          "midi": 44,
          "name": "G#2",
          "ticks": 10290,
          "time": 119.65116279069767,
          "velocity": 0.31496062992125984
        },
        {
          "duration": 0.023255813953483084,
          "durationTicks": 2,
          "midi": 46,
          "name": "A#2",
          "ticks": 10293,
          "time": 119.68604651162791,
          "velocity": 0.2677165354330709
        },
        {
          "duration": 0.023255813953497295,
          "durationTicks": 2,
          "midi": 44,
          "name": "G#2",
          "ticks": 10295,
          "time": 119.70930232558139,
          "velocity": 0.30708661417322836
        },
        {
          "duration": 0.05813953488372192,
          "durationTicks": 5,
          "midi": 45,
          "name": "A2",
          "ticks": 10303,
          "time": 119.80232558139535,
          "velocity": 0.25984251968503935
        },
        {
          "duration": 0.17441860465115155,
          "durationTicks": 15,
          "midi": 67,
          "name": "G4",
          "ticks": 10313,
          "time": 119.9186046511628,
          "velocity": 0.25984251968503935
        },
        {
          "duration": 0.034883720930224626,
          "durationTicks": 3,
          "midi": 52,
          "name": "E3",
          "ticks": 10314,
          "time": 119.93023255813954,
          "velocity": 0.1889763779527559
        },
        {
          "duration": 0.15116279069766847,
          "durationTicks": 13,
          "midi": 86,
          "name": "D6",
          "ticks": 10314,
          "time": 119.93023255813954,
          "velocity": 0.07874015748031496
        },
        {
          "duration": 0.05813953488372192,
          "durationTicks": 5,
          "midi": 68,
          "name": "G#4",
          "ticks": 10328,
          "time": 120.09302325581395,
          "velocity": 0.2047244094488189
        },
        {
          "duration": 0.023255813953483084,
          "durationTicks": 2,
          "midi": 52,
          "name": "E3",
          "ticks": 10339,
          "time": 120.22093023255815,
          "velocity": 0.30708661417322836
        },
        {
          "duration": 0.023255813953483084,
          "durationTicks": 2,
          "midi": 42,
          "name": "F#2",
          "ticks": 10341,
          "time": 120.24418604651163,
          "velocity": 0.29133858267716534
        },
        {
          "duration": 0.45348837209303383,
          "durationTicks": 39,
          "midi": 48,
          "name": "C3",
          "ticks": 10344,
          "time": 120.27906976744185,
          "velocity": 0.28346456692913385
        },
        {
          "duration": 0.2674418604651123,
          "durationTicks": 23,
          "midi": 48,
          "name": "C3",
          "ticks": 10384,
          "time": 120.74418604651163,
          "velocity": 0.23622047244094488
        },
        {
          "duration": 0.2093023255813904,
          "durationTicks": 18,
          "midi": 55,
          "name": "G3",
          "ticks": 10389,
          "time": 120.80232558139535,
          "velocity": 0.09448818897637795
        },
        {
          "duration": 0.06976744186046346,
          "durationTicks": 6,
          "midi": 42,
          "name": "F#2",
          "ticks": 10409,
          "time": 121.03488372093024,
          "velocity": 0.25196850393700787
        },
        {
          "duration": 0.3720930232558146,
          "durationTicks": 32,
          "midi": 62,
          "name": "D4",
          "ticks": 10409,
          "time": 121.03488372093024,
          "velocity": 0.18110236220472442
        },
        {
          "duration": 0.15116279069766847,
          "durationTicks": 13,
          "midi": 48,
          "name": "C3",
          "ticks": 10411,
          "time": 121.05813953488372,
          "velocity": 0.2125984251968504
        },
        {
          "duration": 0.04651162790698038,
          "durationTicks": 4,
          "midi": 42,
          "name": "F#2",
          "ticks": 10422,
          "time": 121.18604651162791,
          "velocity": 0.11811023622047244
        },
        {
          "duration": 0.081395348837205,
          "durationTicks": 7,
          "midi": 48,
          "name": "C3",
          "ticks": 10428,
          "time": 121.25581395348837,
          "velocity": 0.16535433070866143
        },
        {
          "duration": 0.081395348837205,
          "durationTicks": 7,
          "midi": 48,
          "name": "C3",
          "ticks": 10438,
          "time": 121.37209302325581,
          "velocity": 0.1732283464566929
        },
        {
          "duration": 0.09302325581396076,
          "durationTicks": 8,
          "midi": 42,
          "name": "F#2",
          "ticks": 10451,
          "time": 121.52325581395348,
          "velocity": 0.3228346456692913
        },
        {
          "duration": 0.1860465116279073,
          "durationTicks": 16,
          "midi": 48,
          "name": "C3",
          "ticks": 10462,
          "time": 121.65116279069767,
          "velocity": 0.1889763779527559
        },
        {
          "duration": 0.04651162790698038,
          "durationTicks": 4,
          "midi": 52,
          "name": "E3",
          "ticks": 10480,
          "time": 121.86046511627907,
          "velocity": 0.2125984251968504
        },
        {
          "duration": 0.1046511627907023,
          "durationTicks": 9,
          "midi": 48,
          "name": "C3",
          "ticks": 10482,
          "time": 121.88372093023256,
          "velocity": 0.2047244094488189
        },
        {
          "duration": 0.2674418604651123,
          "durationTicks": 23,
          "midi": 48,
          "name": "C3",
          "ticks": 10493,
          "time": 122.01162790697674,
          "velocity": 0.1889763779527559
        },
        {
          "duration": 0.04651162790696617,
          "durationTicks": 4,
          "midi": 55,
          "name": "G3",
          "ticks": 10495,
          "time": 122.03488372093024,
          "velocity": 0.11023622047244094
        },
        {
          "duration": 0.05813953488372192,
          "durationTicks": 5,
          "midi": 42,
          "name": "F#2",
          "ticks": 10518,
          "time": 122.30232558139535,
          "velocity": 0.2283464566929134
        },
        {
          "duration": 0.04651162790698038,
          "durationTicks": 4,
          "midi": 48,
          "name": "C3",
          "ticks": 10526,
          "time": 122.3953488372093,
          "velocity": 0.11811023622047244
        },
        {
          "duration": 0.034883720930224626,
          "durationTicks": 3,
          "midi": 42,
          "name": "F#2",
          "ticks": 10527,
          "time": 122.40697674418605,
          "velocity": 0.14173228346456693
        },
        {
          "duration": 0.03488372093023884,
          "durationTicks": 3,
          "midi": 42,
          "name": "F#2",
          "ticks": 10531,
          "time": 122.45348837209302,
          "velocity": 0.1732283464566929
        },
        {
          "duration": 0.04651162790698038,
          "durationTicks": 4,
          "midi": 51,
          "name": "D#3",
          "ticks": 10532,
          "time": 122.46511627906976,
          "velocity": 0.1889763779527559
        },
        {
          "duration": 0.06976744186046346,
          "durationTicks": 6,
          "midi": 48,
          "name": "C3",
          "ticks": 10538,
          "time": 122.53488372093024,
          "velocity": 0.11811023622047244
        },
        {
          "duration": 0.04651162790698038,
          "durationTicks": 4,
          "midi": 42,
          "name": "F#2",
          "ticks": 10547,
          "time": 122.63953488372093,
          "velocity": 0.16535433070866143
        },
        {
          "duration": 0.03488372093023884,
          "durationTicks": 3,
          "midi": 55,
          "name": "G3",
          "ticks": 10547,
          "time": 122.63953488372093,
          "velocity": 0.07086614173228346
        },
        {
          "duration": 0.04651162790698038,
          "durationTicks": 4,
          "midi": 41,
          "name": "F2",
          "ticks": 10553,
          "time": 122.70930232558139,
          "velocity": 0.11023622047244094
        },
        {
          "duration": 0.1860465116279073,
          "durationTicks": 16,
          "midi": 67,
          "name": "G4",
          "ticks": 10558,
          "time": 122.76744186046511,
          "velocity": 0.2204724409448819
        },
        {
          "duration": 0.4418604651162781,
          "durationTicks": 38,
          "midi": 48,
          "name": "C3",
          "ticks": 10563,
          "time": 122.82558139534883,
          "velocity": 0.2440944881889764
        },
        {
          "duration": 0.15116279069766847,
          "durationTicks": 13,
          "midi": 67,
          "name": "G4",
          "ticks": 10587,
          "time": 123.1046511627907,
          "velocity": 0.07086614173228346
        },
        {
          "duration": 0.09302325581394655,
          "durationTicks": 8,
          "midi": 48,
          "name": "C3",
          "ticks": 10604,
          "time": 123.30232558139535,
          "velocity": 0.23622047244094488
        },
        {
          "duration": 0.17441860465116577,
          "durationTicks": 15,
          "midi": 67,
          "name": "G4",
          "ticks": 10611,
          "time": 123.38372093023256,
          "velocity": 0.2047244094488189
        },
        {
          "duration": 0.03488372093023884,
          "durationTicks": 3,
          "midi": 41,
          "name": "F2",
          "ticks": 10612,
          "time": 123.3953488372093,
          "velocity": 0.2204724409448819
        },
        {
          "duration": 0.09302325581396076,
          "durationTicks": 8,
          "midi": 48,
          "name": "C3",
          "ticks": 10617,
          "time": 123.45348837209302,
          "velocity": 0.14173228346456693
        },
        {
          "duration": 0.04651162790698038,
          "durationTicks": 4,
          "midi": 51,
          "name": "D#3",
          "ticks": 10626,
          "time": 123.55813953488372,
          "velocity": 0.29133858267716534
        },
        {
          "duration": 0.09302325581396076,
          "durationTicks": 8,
          "midi": 48,
          "name": "C3",
          "ticks": 10633,
          "time": 123.63953488372093,
          "velocity": 0.11023622047244094
        },
        {
          "duration": 0.04651162790698038,
          "durationTicks": 4,
          "midi": 52,
          "name": "E3",
          "ticks": 10645,
          "time": 123.77906976744185,
          "velocity": 0.14960629921259844
        },
        {
          "duration": 0.03488372093023884,
          "durationTicks": 3,
          "midi": 52,
          "name": "E3",
          "ticks": 10654,
          "time": 123.88372093023256,
          "velocity": 0.33070866141732286
        },
        {
          "duration": 0.12790697674418539,
          "durationTicks": 11,
          "midi": 65,
          "name": "F4",
          "ticks": 10655,
          "time": 123.8953488372093,
          "velocity": 0.08661417322834646
        },
        {
          "duration": 0.11627906976744384,
          "durationTicks": 10,
          "midi": 55,
          "name": "G3",
          "ticks": 10659,
          "time": 123.94186046511628,
          "velocity": 0.14173228346456693
        },
        {
          "duration": 0.034883720930224626,
          "durationTicks": 3,
          "midi": 42,
          "name": "F#2",
          "ticks": 10663,
          "time": 123.98837209302326,
          "velocity": 0.07086614173228346
        },
        {
          "duration": 0.04651162790698038,
          "durationTicks": 4,
          "midi": 42,
          "name": "F#2",
          "ticks": 10670,
          "time": 124.06976744186046,
          "velocity": 0.2677165354330709
        },
        {
          "duration": 0.023255813953483084,
          "durationTicks": 2,
          "midi": 52,
          "name": "E3",
          "ticks": 10670,
          "time": 124.06976744186046,
          "velocity": 0.23622047244094488
        },
        {
          "duration": 0.04651162790698038,
          "durationTicks": 4,
          "midi": 48,
          "name": "C3",
          "ticks": 10672,
          "time": 124.09302325581395,
          "velocity": 0.2047244094488189
        },
        {
          "duration": 0.1860465116279073,
          "durationTicks": 16,
          "midi": 48,
          "name": "C3",
          "ticks": 10677,
          "time": 124.15116279069767,
          "velocity": 0.1889763779527559
        },
        {
          "duration": 0.11627906976744384,
          "durationTicks": 10,
          "midi": 55,
          "name": "G3",
          "ticks": 10679,
          "time": 124.17441860465117,
          "velocity": 0.11023622047244094
        },
        {
          "duration": 0.10465116279068809,
          "durationTicks": 9,
          "midi": 62,
          "name": "D4",
          "ticks": 10683,
          "time": 124.22093023255815,
          "velocity": 0.07874015748031496
        },
        {
          "duration": 0.034883720930224626,
          "durationTicks": 3,
          "midi": 42,
          "name": "F#2",
          "ticks": 10695,
          "time": 124.36046511627907,
          "velocity": 0.16535433070866143
        },
        {
          "duration": 0.03488372093023884,
          "durationTicks": 3,
          "midi": 48,
          "name": "C3",
          "ticks": 10696,
          "time": 124.37209302325581,
          "velocity": 0.18110236220472442
        },
        {
          "duration": 0.04651162790696617,
          "durationTicks": 4,
          "midi": 52,
          "name": "E3",
          "ticks": 10700,
          "time": 124.4186046511628,
          "velocity": 0.2125984251968504
        },
        {
          "duration": 0.05813953488372192,
          "durationTicks": 5,
          "midi": 41,
          "name": "F2",
          "ticks": 10707,
          "time": 124.5,
          "velocity": 0.25984251968503935
        },
        {
          "duration": 0.023255813953497295,
          "durationTicks": 2,
          "midi": 61,
          "name": "C#4",
          "ticks": 10708,
          "time": 124.51162790697674,
          "velocity": 0.2677165354330709
        },
        {
          "duration": 0.03488372093023884,
          "durationTicks": 3,
          "midi": 52,
          "name": "E3",
          "ticks": 10709,
          "time": 124.52325581395348,
          "velocity": 0.2992125984251969
        },
        {
          "duration": 0.12790697674418539,
          "durationTicks": 11,
          "midi": 62,
          "name": "D4",
          "ticks": 10710,
          "time": 124.53488372093024,
          "velocity": 0.28346456692913385
        },
        {
          "duration": 0.04651162790698038,
          "durationTicks": 4,
          "midi": 42,
          "name": "F#2",
          "ticks": 10713,
          "time": 124.56976744186046,
          "velocity": 0.23622047244094488
        },
        {
          "duration": 0.05813953488372192,
          "durationTicks": 5,
          "midi": 55,
          "name": "G3",
          "ticks": 10714,
          "time": 124.5813953488372,
          "velocity": 0.1889763779527559
        },
        {
          "duration": 0.15116279069768268,
          "durationTicks": 13,
          "midi": 55,
          "name": "G3",
          "ticks": 10720,
          "time": 124.65116279069767,
          "velocity": 0.15748031496062992
        },
        {
          "duration": 0.04651162790696617,
          "durationTicks": 4,
          "midi": 41,
          "name": "F2",
          "ticks": 10721,
          "time": 124.66279069767442,
          "velocity": 0.16535433070866143
        },
        {
          "duration": 0.023255813953483084,
          "durationTicks": 2,
          "midi": 61,
          "name": "C#4",
          "ticks": 10721,
          "time": 124.66279069767442,
          "velocity": 0.2283464566929134
        },
        {
          "duration": 0.11627906976744384,
          "durationTicks": 10,
          "midi": 48,
          "name": "C3",
          "ticks": 10723,
          "time": 124.68604651162791,
          "velocity": 0.15748031496062992
        },
        {
          "duration": 0.081395348837205,
          "durationTicks": 7,
          "midi": 42,
          "name": "F#2",
          "ticks": 10734,
          "time": 124.81395348837209,
          "velocity": 0.25196850393700787
        },
        {
          "duration": 0.023255813953483084,
          "durationTicks": 2,
          "midi": 61,
          "name": "C#4",
          "ticks": 10734,
          "time": 124.81395348837209,
          "velocity": 0.3228346456692913
        },
        {
          "duration": 0.023255813953497295,
          "durationTicks": 2,
          "midi": 52,
          "name": "E3",
          "ticks": 10735,
          "time": 124.82558139534883,
          "velocity": 0.28346456692913385
        },
        {
          "duration": 0.16279069767442422,
          "durationTicks": 14,
          "midi": 62,
          "name": "D4",
          "ticks": 10736,
          "time": 124.83720930232558,
          "velocity": 0.33070866141732286
        },
        {
          "duration": 0.15116279069768268,
          "durationTicks": 13,
          "midi": 55,
          "name": "G3",
          "ticks": 10740,
          "time": 124.88372093023256,
          "velocity": 0.14173228346456693
        },
        {
          "duration": 0.11627906976744384,
          "durationTicks": 10,
          "midi": 48,
          "name": "C3",
          "ticks": 10743,
          "time": 124.9186046511628,
          "velocity": 0.1968503937007874
        },
        {
          "duration": 0.03488372093023884,
          "durationTicks": 3,
          "midi": 61,
          "name": "C#4",
          "ticks": 10750,
          "time": 125,
          "velocity": 0.2047244094488189
        },
        {
          "duration": 0.023255813953497295,
          "durationTicks": 2,
          "midi": 41,
          "name": "F2",
          "ticks": 10752,
          "time": 125.02325581395348,
          "velocity": 0.2283464566929134
        },
        {
          "duration": 0.081395348837205,
          "durationTicks": 7,
          "midi": 60,
          "name": "C4",
          "ticks": 10753,
          "time": 125.03488372093024,
          "velocity": 0.2204724409448819
        },
        {
          "duration": 0.034883720930224626,
          "durationTicks": 3,
          "midi": 42,
          "name": "F#2",
          "ticks": 10754,
          "time": 125.04651162790698,
          "velocity": 0.2125984251968504
        },
        {
          "duration": 0.034883720930224626,
          "durationTicks": 3,
          "midi": 42,
          "name": "F#2",
          "ticks": 10759,
          "time": 125.1046511627907,
          "velocity": 0.14960629921259844
        },
        {
          "duration": 0.04651162790698038,
          "durationTicks": 4,
          "midi": 59,
          "name": "B3",
          "ticks": 10760,
          "time": 125.11627906976744,
          "velocity": 0.14960629921259844
        },
        {
          "duration": 0.04651162790698038,
          "durationTicks": 4,
          "midi": 52,
          "name": "E3",
          "ticks": 10766,
          "time": 125.18604651162791,
          "velocity": 0.33070866141732286
        },
        {
          "duration": 0.12790697674418539,
          "durationTicks": 11,
          "midi": 59,
          "name": "B3",
          "ticks": 10766,
          "time": 125.18604651162791,
          "velocity": 0.25984251968503935
        },
        {
          "duration": 0.034883720930224626,
          "durationTicks": 3,
          "midi": 42,
          "name": "F#2",
          "ticks": 10769,
          "time": 125.22093023255815,
          "velocity": 0.16535433070866143
        },
        {
          "duration": 0.04651162790698038,
          "durationTicks": 4,
          "midi": 42,
          "name": "F#2",
          "ticks": 10774,
          "time": 125.27906976744185,
          "velocity": 0.1889763779527559
        },
        {
          "duration": 1.7558139534883708,
          "durationTicks": 151,
          "midi": 57,
          "name": "A3",
          "ticks": 10779,
          "time": 125.33720930232558,
          "velocity": 0.31496062992125984
        },
        {
          "duration": 0.04651162790696617,
          "durationTicks": 4,
          "midi": 42,
          "name": "F#2",
          "ticks": 10780,
          "time": 125.34883720930233,
          "velocity": 0.36220472440944884
        },
        {
          "duration": 0.034883720930224626,
          "durationTicks": 3,
          "midi": 42,
          "name": "F#2",
          "ticks": 10785,
          "time": 125.40697674418605,
          "velocity": 0.2283464566929134
        },
        {
          "duration": 0.023255813953497295,
          "durationTicks": 2,
          "midi": 42,
          "name": "F#2",
          "ticks": 10790,
          "time": 125.46511627906976,
          "velocity": 0.2283464566929134
        },
        {
          "duration": 0.03488372093023884,
          "durationTicks": 3,
          "midi": 42,
          "name": "F#2",
          "ticks": 10794,
          "time": 125.51162790697674,
          "velocity": 0.15748031496062992
        },
        {
          "duration": 0.03488372093023884,
          "durationTicks": 3,
          "midi": 52,
          "name": "E3",
          "ticks": 10811,
          "time": 125.70930232558139,
          "velocity": 0.13385826771653545
        },
        {
          "duration": 0.05813953488372192,
          "durationTicks": 5,
          "midi": 42,
          "name": "F#2",
          "ticks": 10819,
          "time": 125.80232558139535,
          "velocity": 0.1968503937007874
        },
        {
          "duration": 0.034883720930224626,
          "durationTicks": 3,
          "midi": 52,
          "name": "E3",
          "ticks": 10819,
          "time": 125.80232558139535,
          "velocity": 0.2283464566929134
        },
        {
          "duration": 0.03488372093023884,
          "durationTicks": 3,
          "midi": 42,
          "name": "F#2",
          "ticks": 10847,
          "time": 126.12790697674419,
          "velocity": 0.25984251968503935
        },
        {
          "duration": 0.30232558139535115,
          "durationTicks": 26,
          "midi": 62,
          "name": "D4",
          "ticks": 10848,
          "time": 126.13953488372093,
          "velocity": 0.12598425196850394
        },
        {
          "duration": 0.03488372093023884,
          "durationTicks": 3,
          "midi": 42,
          "name": "F#2",
          "ticks": 10852,
          "time": 126.18604651162791,
          "velocity": 0.16535433070866143
        },
        {
          "duration": 0.034883720930224626,
          "durationTicks": 3,
          "midi": 42,
          "name": "F#2",
          "ticks": 10856,
          "time": 126.23255813953489,
          "velocity": 0.11811023622047244
        },
        {
          "duration": 0.06976744186046346,
          "durationTicks": 6,
          "midi": 52,
          "name": "E3",
          "ticks": 10863,
          "time": 126.31395348837209,
          "velocity": 0.12598425196850394
        },
        {
          "duration": 0.034883720930224626,
          "durationTicks": 3,
          "midi": 42,
          "name": "F#2",
          "ticks": 10878,
          "time": 126.48837209302326,
          "velocity": 0.12598425196850394
        },
        {
          "duration": 0.034883720930224626,
          "durationTicks": 3,
          "midi": 42,
          "name": "F#2",
          "ticks": 10883,
          "time": 126.54651162790698,
          "velocity": 0.07086614173228346
        },
        {
          "duration": 0.023255813953483084,
          "durationTicks": 2,
          "midi": 52,
          "name": "E3",
          "ticks": 10890,
          "time": 126.62790697674419,
          "velocity": 0.25984251968503935
        },
        {
          "duration": 0.023255813953497295,
          "durationTicks": 2,
          "midi": 43,
          "name": "G2",
          "ticks": 10891,
          "time": 126.63953488372093,
          "velocity": 0.25984251968503935
        },
        {
          "duration": 0.04651162790698038,
          "durationTicks": 4,
          "midi": 52,
          "name": "E3",
          "ticks": 10895,
          "time": 126.68604651162791,
          "velocity": 0.11023622047244094
        },
        {
          "duration": 0.023255813953497295,
          "durationTicks": 2,
          "midi": 44,
          "name": "G#2",
          "ticks": 10896,
          "time": 126.69767441860465,
          "velocity": 0.2440944881889764
        },
        {
          "duration": 0.034883720930224626,
          "durationTicks": 3,
          "midi": 45,
          "name": "A2",
          "ticks": 10909,
          "time": 126.84883720930233,
          "velocity": 0.1889763779527559
        },
        {
          "duration": 0.06976744186046346,
          "durationTicks": 6,
          "midi": 52,
          "name": "E3",
          "ticks": 10918,
          "time": 126.95348837209302,
          "velocity": 0.11023622047244094
        },
        {
          "duration": 0.034883720930224626,
          "durationTicks": 3,
          "midi": 45,
          "name": "A2",
          "ticks": 10927,
          "time": 127.05813953488372,
          "velocity": 0.15748031496062992
        },
        {
          "duration": 0.04651162790698038,
          "durationTicks": 4,
          "midi": 52,
          "name": "E3",
          "ticks": 10929,
          "time": 127.0813953488372,
          "velocity": 0.2047244094488189
        },
        {
          "duration": 0.034883720930224626,
          "durationTicks": 3,
          "midi": 44,
          "name": "G#2",
          "ticks": 10931,
          "time": 127.1046511627907,
          "velocity": 0.2283464566929134
        },
        {
          "duration": 0.27906976744185386,
          "durationTicks": 24,
          "midi": 57,
          "name": "A3",
          "ticks": 10931,
          "time": 127.1046511627907,
          "velocity": 0.14173228346456693
        },
        {
          "duration": 0.12790697674418539,
          "durationTicks": 11,
          "midi": 45,
          "name": "A2",
          "ticks": 10945,
          "time": 127.26744186046511,
          "velocity": 0.23622047244094488
        },
        {
          "duration": 0.16279069767441,
          "durationTicks": 14,
          "midi": 57,
          "name": "A3",
          "ticks": 10958,
          "time": 127.4186046511628,
          "velocity": 0.09448818897637795
        },
        {
          "duration": 0.03488372093023884,
          "durationTicks": 3,
          "midi": 44,
          "name": "G#2",
          "ticks": 10960,
          "time": 127.44186046511628,
          "velocity": 0.1968503937007874
        },
        {
          "duration": 0.034883720930224626,
          "durationTicks": 3,
          "midi": 44,
          "name": "G#2",
          "ticks": 10969,
          "time": 127.54651162790698,
          "velocity": 0.18110236220472442
        },
        {
          "duration": 0.09302325581394655,
          "durationTicks": 8,
          "midi": 52,
          "name": "E3",
          "ticks": 10970,
          "time": 127.55813953488372,
          "velocity": 0.13385826771653545
        },
        {
          "duration": 0.04651162790698038,
          "durationTicks": 4,
          "midi": 57,
          "name": "A3",
          "ticks": 10973,
          "time": 127.59302325581395,
          "velocity": 0.07086614173228346
        },
        {
          "duration": 0.04651162790698038,
          "durationTicks": 4,
          "midi": 52,
          "name": "E3",
          "ticks": 10988,
          "time": 127.76744186046511,
          "velocity": 0.08661417322834646
        },
        {
          "duration": 0.04651162790698038,
          "durationTicks": 4,
          "midi": 42,
          "name": "F#2",
          "ticks": 10991,
          "time": 127.80232558139535,
          "velocity": 0.07874015748031496
        },
        {
          "duration": 0.081395348837205,
          "durationTicks": 7,
          "midi": 51,
          "name": "D#3",
          "ticks": 10995,
          "time": 127.84883720930233,
          "velocity": 0.25984251968503935
        },
        {
          "duration": 0.04651162790698038,
          "durationTicks": 4,
          "midi": 42,
          "name": "F#2",
          "ticks": 10997,
          "time": 127.87209302325581,
          "velocity": 0.30708661417322836
        },
        {
          "duration": 0.034883720930224626,
          "durationTicks": 3,
          "midi": 42,
          "name": "F#2",
          "ticks": 11002,
          "time": 127.93023255813954,
          "velocity": 0.2283464566929134
        },
        {
          "duration": 0.05813953488372192,
          "durationTicks": 5,
          "midi": 52,
          "name": "E3",
          "ticks": 11002,
          "time": 127.93023255813954,
          "velocity": 0.11811023622047244
        },
        {
          "duration": 0.06976744186047767,
          "durationTicks": 6,
          "midi": 57,
          "name": "A3",
          "ticks": 11009,
          "time": 128.01162790697674,
          "velocity": 0.09448818897637795
        },
        {
          "duration": 0.09302325581396076,
          "durationTicks": 8,
          "midi": 52,
          "name": "E3",
          "ticks": 11024,
          "time": 128.1860465116279,
          "velocity": 0.14173228346456693
        },
        {
          "duration": 0.11627906976744384,
          "durationTicks": 10,
          "midi": 45,
          "name": "A2",
          "ticks": 11028,
          "time": 128.2325581395349,
          "velocity": 0.11023622047244094
        },
        {
          "duration": 0.05813953488373613,
          "durationTicks": 5,
          "midi": 52,
          "name": "E3",
          "ticks": 11044,
          "time": 128.41860465116278,
          "velocity": 0.09448818897637795
        },
        {
          "duration": 0.03488372093025305,
          "durationTicks": 3,
          "midi": 44,
          "name": "G#2",
          "ticks": 11045,
          "time": 128.43023255813952,
          "velocity": 0.13385826771653545
        },
        {
          "duration": 0.13953488372092693,
          "durationTicks": 12,
          "midi": 57,
          "name": "A3",
          "ticks": 11053,
          "time": 128.52325581395348,
          "velocity": 0.11811023622047244
        },
        {
          "duration": 0.023255813953483084,
          "durationTicks": 2,
          "midi": 45,
          "name": "A2",
          "ticks": 11064,
          "time": 128.65116279069767,
          "velocity": 0.2677165354330709
        },
        {
          "duration": 0.023255813953511506,
          "durationTicks": 2,
          "midi": 42,
          "name": "F#2",
          "ticks": 11066,
          "time": 128.67441860465115,
          "velocity": 0.25984251968503935
        },
        {
          "duration": 0.034883720930224626,
          "durationTicks": 3,
          "midi": 57,
          "name": "A3",
          "ticks": 11068,
          "time": 128.69767441860466,
          "velocity": 0.13385826771653545
        },
        {
          "duration": 0.05813953488370771,
          "durationTicks": 5,
          "midi": 52,
          "name": "E3",
          "ticks": 11070,
          "time": 128.72093023255815,
          "velocity": 0.08661417322834646
        },
        {
          "duration": 0.034883720930224626,
          "durationTicks": 3,
          "midi": 42,
          "name": "F#2",
          "ticks": 11074,
          "time": 128.7674418604651,
          "velocity": 0.14960629921259844
        },
        {
          "duration": 0.06976744186047767,
          "durationTicks": 6,
          "midi": 57,
          "name": "A3",
          "ticks": 11075,
          "time": 128.77906976744185,
          "velocity": 0.14173228346456693
        },
        {
          "duration": 0.04651162790696617,
          "durationTicks": 4,
          "midi": 52,
          "name": "E3",
          "ticks": 11083,
          "time": 128.87209302325581,
          "velocity": 0.07874015748031496
        },
        {
          "duration": 0.03488372093025305,
          "durationTicks": 3,
          "midi": 57,
          "name": "A3",
          "ticks": 11088,
          "time": 128.93023255813952,
          "velocity": 0.11811023622047244
        },
        {
          "duration": 0.13953488372092693,
          "durationTicks": 12,
          "midi": 57,
          "name": "A3",
          "ticks": 11094,
          "time": 129,
          "velocity": 0.18110236220472442
        },
        {
          "duration": 0.023255813953483084,
          "durationTicks": 2,
          "midi": 41,
          "name": "F2",
          "ticks": 11106,
          "time": 129.13953488372093,
          "velocity": 0.28346456692913385
        },
        {
          "duration": 0.03488372093025305,
          "durationTicks": 3,
          "midi": 42,
          "name": "F#2",
          "ticks": 11108,
          "time": 129.1627906976744,
          "velocity": 0.30708661417322836
        },
        {
          "duration": 0.034883720930224626,
          "durationTicks": 3,
          "midi": 42,
          "name": "F#2",
          "ticks": 11113,
          "time": 129.22093023255815,
          "velocity": 0.2283464566929134
        },
        {
          "duration": 0.034883720930224626,
          "durationTicks": 3,
          "midi": 44,
          "name": "G#2",
          "ticks": 11126,
          "time": 129.37209302325581,
          "velocity": 0.14960629921259844
        },
        {
          "duration": 0.05813953488370771,
          "durationTicks": 5,
          "midi": 45,
          "name": "A2",
          "ticks": 11132,
          "time": 129.4418604651163,
          "velocity": 0.07874015748031496
        },
        {
          "duration": 0.08139534883721922,
          "durationTicks": 7,
          "midi": 45,
          "name": "A2",
          "ticks": 11138,
          "time": 129.51162790697674,
          "velocity": 0.09448818897637795
        },
        {
          "duration": 0.08139534883721922,
          "durationTicks": 7,
          "midi": 52,
          "name": "E3",
          "ticks": 11138,
          "time": 129.51162790697674,
          "velocity": 0.14960629921259844
        },
        {
          "duration": 0.05813953488370771,
          "durationTicks": 5,
          "midi": 52,
          "name": "E3",
          "ticks": 11154,
          "time": 129.69767441860466,
          "velocity": 0.09448818897637795
        },
        {
          "duration": 0.034883720930224626,
          "durationTicks": 3,
          "midi": 44,
          "name": "G#2",
          "ticks": 11160,
          "time": 129.7674418604651,
          "velocity": 0.11811023622047244
        },
        {
          "duration": 0.17441860465117998,
          "durationTicks": 15,
          "midi": 57,
          "name": "A3",
          "ticks": 11162,
          "time": 129.7906976744186,
          "velocity": 0.10236220472440945
        },
        {
          "duration": 0.034883720930224626,
          "durationTicks": 3,
          "midi": 45,
          "name": "A2",
          "ticks": 11169,
          "time": 129.87209302325581,
          "velocity": 0.07086614173228346
        },
        {
          "duration": 0.023255813953483084,
          "durationTicks": 2,
          "midi": 45,
          "name": "A2",
          "ticks": 11176,
          "time": 129.95348837209303,
          "velocity": 0.2440944881889764
        },
        {
          "duration": 0.2906976744185954,
          "durationTicks": 25,
          "midi": 57,
          "name": "A3",
          "ticks": 11178,
          "time": 129.97674418604652,
          "velocity": 0.10236220472440945
        },
        {
          "duration": 0.04651162790696617,
          "durationTicks": 4,
          "midi": 51,
          "name": "D#3",
          "ticks": 11180,
          "time": 130,
          "velocity": 0.08661417322834646
        },
        {
          "duration": 0.06976744186047767,
          "durationTicks": 6,
          "midi": 52,
          "name": "E3",
          "ticks": 11193,
          "time": 130.15116279069767,
          "velocity": 0.11811023622047244
        },
        {
          "duration": 0.034883720930224626,
          "durationTicks": 3,
          "midi": 44,
          "name": "G#2",
          "ticks": 11207,
          "time": 130.3139534883721,
          "velocity": 0.10236220472440945
        },
        {
          "duration": 0.11627906976741542,
          "durationTicks": 10,
          "midi": 57,
          "name": "A3",
          "ticks": 11207,
          "time": 130.3139534883721,
          "velocity": 0.07874015748031496
        },
        {
          "duration": 0.04651162790696617,
          "durationTicks": 4,
          "midi": 52,
          "name": "E3",
          "ticks": 11209,
          "time": 130.3372093023256,
          "velocity": 0.08661417322834646
        },
        {
          "duration": 1.0465116279069662,
          "durationTicks": 90,
          "midi": 60,
          "name": "C4",
          "ticks": 11219,
          "time": 130.45348837209303,
          "velocity": 0.3543307086614173
        },
        {
          "duration": 0.034883720930224626,
          "durationTicks": 3,
          "midi": 52,
          "name": "E3",
          "ticks": 11221,
          "time": 130.47674418604652,
          "velocity": 0.30708661417322836
        },
        {
          "duration": 0.08139534883721922,
          "durationTicks": 7,
          "midi": 42,
          "name": "F#2",
          "ticks": 11222,
          "time": 130.48837209302326,
          "velocity": 0.2047244094488189
        },
        {
          "duration": 0.16279069767441,
          "durationTicks": 14,
          "midi": 48,
          "name": "C3",
          "ticks": 11225,
          "time": 130.52325581395348,
          "velocity": 0.15748031496062992
        },
        {
          "duration": 0.05813953488373613,
          "durationTicks": 5,
          "midi": 42,
          "name": "F#2",
          "ticks": 11259,
          "time": 130.91860465116278,
          "velocity": 0.12598425196850394
        },
        {
          "duration": 0.15116279069766847,
          "durationTicks": 13,
          "midi": 55,
          "name": "G3",
          "ticks": 11263,
          "time": 130.96511627906978,
          "velocity": 0.09448818897637795
        },
        {
          "duration": 0.2325581395348877,
          "durationTicks": 20,
          "midi": 55,
          "name": "G3",
          "ticks": 11279,
          "time": 131.15116279069767,
          "velocity": 0.11023622047244094
        },
        {
          "duration": 0.1046511627907023,
          "durationTicks": 9,
          "midi": 42,
          "name": "F#2",
          "ticks": 11286,
          "time": 131.2325581395349,
          "velocity": 0.16535433070866143
        },
        {
          "duration": 0.1046511627907023,
          "durationTicks": 9,
          "midi": 52,
          "name": "E3",
          "ticks": 11302,
          "time": 131.41860465116278,
          "velocity": 0.23622047244094488
        },
        {
          "duration": 0.04651162790696617,
          "durationTicks": 4,
          "midi": 61,
          "name": "C#4",
          "ticks": 11328,
          "time": 131.72093023255815,
          "velocity": 0.2992125984251969
        },
        {
          "duration": 0.1046511627907023,
          "durationTicks": 9,
          "midi": 74,
          "name": "D5",
          "ticks": 11331,
          "time": 131.75581395348837,
          "velocity": 0.07086614173228346
        },
        {
          "duration": 0.40697674418603924,
          "durationTicks": 35,
          "midi": 62,
          "name": "D4",
          "ticks": 11332,
          "time": 131.7674418604651,
          "velocity": 0.2992125984251969
        },
        {
          "duration": 0.04651162790696617,
          "durationTicks": 4,
          "midi": 47,
          "name": "B2",
          "ticks": 11336,
          "time": 131.8139534883721,
          "velocity": 0.1732283464566929
        },
        {
          "duration": 0.17441860465115155,
          "durationTicks": 15,
          "midi": 47,
          "name": "B2",
          "ticks": 11341,
          "time": 131.87209302325581,
          "velocity": 0.2125984251968504
        },
        {
          "duration": 0.04651162790696617,
          "durationTicks": 4,
          "midi": 47,
          "name": "B2",
          "ticks": 11364,
          "time": 132.13953488372093,
          "velocity": 0.16535433070866143
        },
        {
          "duration": 0.04651162790696617,
          "durationTicks": 4,
          "midi": 47,
          "name": "B2",
          "ticks": 11372,
          "time": 132.2325581395349,
          "velocity": 0.15748031496062992
        },
        {
          "duration": 0.24418604651162923,
          "durationTicks": 21,
          "midi": 47,
          "name": "B2",
          "ticks": 11377,
          "time": 132.2906976744186,
          "velocity": 0.18110236220472442
        },
        {
          "duration": 0.11627906976744384,
          "durationTicks": 10,
          "midi": 62,
          "name": "D4",
          "ticks": 11399,
          "time": 132.54651162790697,
          "velocity": 0.07874015748031496
        },
        {
          "duration": 0.034883720930224626,
          "durationTicks": 3,
          "midi": 47,
          "name": "B2",
          "ticks": 11406,
          "time": 132.62790697674419,
          "velocity": 0.14960629921259844
        },
        {
          "duration": 0.04651162790699459,
          "durationTicks": 4,
          "midi": 52,
          "name": "E3",
          "ticks": 11410,
          "time": 132.67441860465115,
          "velocity": 0.25984251968503935
        },
        {
          "duration": 0.13953488372095535,
          "durationTicks": 12,
          "midi": 60,
          "name": "C4",
          "ticks": 11410,
          "time": 132.67441860465115,
          "velocity": 0.30708661417322836
        },
        {
          "duration": 0.05813953488373613,
          "durationTicks": 5,
          "midi": 42,
          "name": "F#2",
          "ticks": 11411,
          "time": 132.6860465116279,
          "velocity": 0.1968503937007874
        },
        {
          "duration": 0.1860465116278931,
          "durationTicks": 16,
          "midi": 62,
          "name": "D4",
          "ticks": 11423,
          "time": 132.82558139534885,
          "velocity": 0.2677165354330709
        },
        {
          "duration": 0.45348837209303383,
          "durationTicks": 39,
          "midi": 60,
          "name": "C4",
          "ticks": 11439,
          "time": 133.01162790697674,
          "velocity": 0.2204724409448819
        },
        {
          "duration": 0.023255813953483084,
          "durationTicks": 2,
          "midi": 44,
          "name": "G#2",
          "ticks": 11445,
          "time": 133.08139534883722,
          "velocity": 0.2440944881889764
        },
        {
          "duration": 0.023255813953483084,
          "durationTicks": 2,
          "midi": 44,
          "name": "G#2",
          "ticks": 11449,
          "time": 133.12790697674419,
          "velocity": 0.2283464566929134
        },
        {
          "duration": 0.04651162790699459,
          "durationTicks": 4,
          "midi": 45,
          "name": "A2",
          "ticks": 11462,
          "time": 133.27906976744185,
          "velocity": 0.18110236220472442
        },
        {
          "duration": 0.0813953488371908,
          "durationTicks": 7,
          "midi": 52,
          "name": "E3",
          "ticks": 11465,
          "time": 133.3139534883721,
          "velocity": 0.2204724409448819
        },
        {
          "duration": 0.15116279069766847,
          "durationTicks": 13,
          "midi": 45,
          "name": "A2",
          "ticks": 11468,
          "time": 133.34883720930233,
          "velocity": 0.2283464566929134
        },
        {
          "duration": 0.2325581395348877,
          "durationTicks": 20,
          "midi": 45,
          "name": "A2",
          "ticks": 11485,
          "time": 133.54651162790697,
          "velocity": 0.1732283464566929
        },
        {
          "duration": 0.08139534883721922,
          "durationTicks": 7,
          "midi": 52,
          "name": "E3",
          "ticks": 11492,
          "time": 133.62790697674419,
          "velocity": 0.10236220472440945
        },
        {
          "duration": 0.034883720930224626,
          "durationTicks": 3,
          "midi": 44,
          "name": "G#2",
          "ticks": 11515,
          "time": 133.8953488372093,
          "velocity": 0.1732283464566929
        },
        {
          "duration": 0.05813953488370771,
          "durationTicks": 5,
          "midi": 52,
          "name": "E3",
          "ticks": 11520,
          "time": 133.95348837209303,
          "velocity": 0.12598425196850394
        },
        {
          "duration": 0.08139534883721922,
          "durationTicks": 7,
          "midi": 45,
          "name": "A2",
          "ticks": 11524,
          "time": 134,
          "velocity": 0.14960629921259844
        },
        {
          "duration": 0.04651162790696617,
          "durationTicks": 4,
          "midi": 57,
          "name": "A3",
          "ticks": 11543,
          "time": 134.22093023255815,
          "velocity": 0.11023622047244094
        },
        {
          "duration": 0.04651162790699459,
          "durationTicks": 4,
          "midi": 52,
          "name": "E3",
          "ticks": 11547,
          "time": 134.2674418604651,
          "velocity": 0.2283464566929134
        },
        {
          "duration": 0.27906976744185386,
          "durationTicks": 24,
          "midi": 57,
          "name": "A3",
          "ticks": 11548,
          "time": 134.27906976744185,
          "velocity": 0.2125984251968504
        },
        {
          "duration": 0.09302325581393234,
          "durationTicks": 8,
          "midi": 52,
          "name": "E3",
          "ticks": 11574,
          "time": 134.58139534883722,
          "velocity": 0.2283464566929134
        },
        {
          "duration": 0.66279069767441,
          "durationTicks": 57,
          "midi": 57,
          "name": "A3",
          "ticks": 11578,
          "time": 134.62790697674419,
          "velocity": 0.2677165354330709
        },
        {
          "duration": 0.034883720930224626,
          "durationTicks": 3,
          "midi": 52,
          "name": "E3",
          "ticks": 11590,
          "time": 134.7674418604651,
          "velocity": 0.1732283464566929
        },
        {
          "duration": 0.09302325581396076,
          "durationTicks": 8,
          "midi": 52,
          "name": "E3",
          "ticks": 11629,
          "time": 135.22093023255815,
          "velocity": 0.2125984251968504
        },
        {
          "duration": 0.034883720930224626,
          "durationTicks": 3,
          "midi": 52,
          "name": "E3",
          "ticks": 11653,
          "time": 135.5,
          "velocity": 0.07874015748031496
        },
        {
          "duration": 0.45348837209303383,
          "durationTicks": 39,
          "midi": 67,
          "name": "G4",
          "ticks": 11657,
          "time": 135.54651162790697,
          "velocity": 0.2125984251968504
        },
        {
          "duration": 0.03488372093025305,
          "durationTicks": 3,
          "midi": 41,
          "name": "F2",
          "ticks": 11658,
          "time": 135.5581395348837,
          "velocity": 0.31496062992125984
        },
        {
          "duration": 0.36046511627904465,
          "durationTicks": 31,
          "midi": 60,
          "name": "C4",
          "ticks": 11659,
          "time": 135.56976744186048,
          "velocity": 0.15748031496062992
        },
        {
          "duration": 0.04651162790696617,
          "durationTicks": 4,
          "midi": 42,
          "name": "F#2",
          "ticks": 11661,
          "time": 135.59302325581396,
          "velocity": 0.30708661417322836
        },
        {
          "duration": 0.05813953488373613,
          "durationTicks": 5,
          "midi": 42,
          "name": "F#2",
          "ticks": 11668,
          "time": 135.67441860465115,
          "velocity": 0.2283464566929134
        },
        {
          "duration": 0.03488372093025305,
          "durationTicks": 3,
          "midi": 42,
          "name": "F#2",
          "ticks": 11678,
          "time": 135.7906976744186,
          "velocity": 0.1889763779527559
        },
        {
          "duration": 0.17441860465115155,
          "durationTicks": 15,
          "midi": 43,
          "name": "G2",
          "ticks": 11681,
          "time": 135.82558139534885,
          "velocity": 0.15748031496062992
        },
        {
          "duration": 0.1046511627907023,
          "durationTicks": 9,
          "midi": 52,
          "name": "E3",
          "ticks": 11685,
          "time": 135.87209302325581,
          "velocity": 0.16535433070866143
        },
        {
          "duration": 0.05813953488373613,
          "durationTicks": 5,
          "midi": 52,
          "name": "E3",
          "ticks": 11697,
          "time": 136.01162790697674,
          "velocity": 0.2283464566929134
        },
        {
          "duration": 0.7441860465116292,
          "durationTicks": 64,
          "midi": 67,
          "name": "G4",
          "ticks": 11697,
          "time": 136.01162790697674,
          "velocity": 0.18110236220472442
        },
        {
          "duration": 0.2674418604651123,
          "durationTicks": 23,
          "midi": 57,
          "name": "A3",
          "ticks": 11698,
          "time": 136.02325581395348,
          "velocity": 0.13385826771653545
        },
        {
          "duration": 0.03488372093025305,
          "durationTicks": 3,
          "midi": 42,
          "name": "F#2",
          "ticks": 11700,
          "time": 136.04651162790697,
          "velocity": 0.2125984251968504
        },
        {
          "duration": 0.04651162790696617,
          "durationTicks": 4,
          "midi": 43,
          "name": "G2",
          "ticks": 11703,
          "time": 136.08139534883722,
          "velocity": 0.16535433070866143
        },
        {
          "duration": 0.17441860465117998,
          "durationTicks": 15,
          "midi": 43,
          "name": "G2",
          "ticks": 11709,
          "time": 136.15116279069767,
          "velocity": 0.11811023622047244
        },
        {
          "duration": 0.034883720930224626,
          "durationTicks": 3,
          "midi": 42,
          "name": "F#2",
          "ticks": 11724,
          "time": 136.32558139534885,
          "velocity": 0.1732283464566929
        },
        {
          "duration": 0.15116279069766847,
          "durationTicks": 13,
          "midi": 57,
          "name": "A3",
          "ticks": 11726,
          "time": 136.34883720930233,
          "velocity": 0.08661417322834646
        },
        {
          "duration": 0.05813953488373613,
          "durationTicks": 5,
          "midi": 43,
          "name": "G2",
          "ticks": 11733,
          "time": 136.43023255813952,
          "velocity": 0.13385826771653545
        },
        {
          "duration": 0.06976744186047767,
          "durationTicks": 6,
          "midi": 52,
          "name": "E3",
          "ticks": 11741,
          "time": 136.52325581395348,
          "velocity": 0.2047244094488189
        },
        {
          "duration": 0.04651162790699459,
          "durationTicks": 4,
          "midi": 41,
          "name": "F2",
          "ticks": 11763,
          "time": 136.77906976744185,
          "velocity": 0.1889763779527559
        },
        {
          "duration": 0.04651162790696617,
          "durationTicks": 4,
          "midi": 60,
          "name": "C4",
          "ticks": 11767,
          "time": 136.82558139534885,
          "velocity": 0.2125984251968504
        },
        {
          "duration": 0.034883720930224626,
          "durationTicks": 3,
          "midi": 52,
          "name": "E3",
          "ticks": 11770,
          "time": 136.86046511627907,
          "velocity": 0.31496062992125984
        },
        {
          "duration": 0.3953488372092977,
          "durationTicks": 34,
          "midi": 67,
          "name": "G4",
          "ticks": 11770,
          "time": 136.86046511627907,
          "velocity": 0.25196850393700787
        },
        {
          "duration": 0.034883720930224626,
          "durationTicks": 3,
          "midi": 41,
          "name": "F2",
          "ticks": 11771,
          "time": 136.87209302325581,
          "velocity": 0.33070866141732286
        },
        {
          "duration": 0.023255813953483084,
          "durationTicks": 2,
          "midi": 51,
          "name": "D#3",
          "ticks": 11773,
          "time": 136.8953488372093,
          "velocity": 0.3228346456692913
        },
        {
          "duration": 0.04651162790699459,
          "durationTicks": 4,
          "midi": 42,
          "name": "F#2",
          "ticks": 11774,
          "time": 136.90697674418604,
          "velocity": 0.2440944881889764
        },
        {
          "duration": 0.16279069767441,
          "durationTicks": 14,
          "midi": 50,
          "name": "D3",
          "ticks": 11778,
          "time": 136.95348837209303,
          "velocity": 0.2125984251968504
        },
        {
          "duration": 0.04651162790696617,
          "durationTicks": 4,
          "midi": 42,
          "name": "F#2",
          "ticks": 11783,
          "time": 137.01162790697674,
          "velocity": 0.15748031496062992
        },
        {
          "duration": 0.04651162790699459,
          "durationTicks": 4,
          "midi": 41,
          "name": "F2",
          "ticks": 11787,
          "time": 137.0581395348837,
          "velocity": 0.12598425196850394
        },
        {
          "duration": 0.18604651162792152,
          "durationTicks": 16,
          "midi": 60,
          "name": "C4",
          "ticks": 11793,
          "time": 137.12790697674419,
          "velocity": 0.11811023622047244
        },
        {
          "duration": 0.05813953488373613,
          "durationTicks": 5,
          "midi": 50,
          "name": "D3",
          "ticks": 11797,
          "time": 137.17441860465115,
          "velocity": 0.10236220472440945
        },
        {
          "duration": 0.04651162790696617,
          "durationTicks": 4,
          "midi": 41,
          "name": "F2",
          "ticks": 11799,
          "time": 137.19767441860466,
          "velocity": 0.07874015748031496
        },
        {
          "duration": 0.24418604651162923,
          "durationTicks": 21,
          "midi": 77,
          "name": "F5",
          "ticks": 11808,
          "time": 137.30232558139534,
          "velocity": 0.13385826771653545
        },
        {
          "duration": 0.66279069767441,
          "durationTicks": 57,
          "midi": 57,
          "name": "A3",
          "ticks": 11810,
          "time": 137.32558139534885,
          "velocity": 0.12598425196850394
        },
        {
          "duration": 0.034883720930224626,
          "durationTicks": 3,
          "midi": 42,
          "name": "F#2",
          "ticks": 11834,
          "time": 137.6046511627907,
          "velocity": 0.12598425196850394
        },
        {
          "duration": 0.2325581395348877,
          "durationTicks": 20,
          "midi": 62,
          "name": "D4",
          "ticks": 11836,
          "time": 137.62790697674419,
          "velocity": 0.11811023622047244
        },
        {
          "duration": 0.16279069767441,
          "durationTicks": 14,
          "midi": 62,
          "name": "D4",
          "ticks": 11876,
          "time": 138.09302325581396,
          "velocity": 0.2755905511811024
        },
        {
          "duration": 0.023255813953483084,
          "durationTicks": 2,
          "midi": 43,
          "name": "G2",
          "ticks": 11878,
          "time": 138.11627906976744,
          "velocity": 0.29133858267716534
        },
        {
          "duration": 0.04651162790696617,
          "durationTicks": 4,
          "midi": 52,
          "name": "E3",
          "ticks": 11879,
          "time": 138.12790697674419,
          "velocity": 0.14173228346456693
        },
        {
          "duration": 0.023255813953511506,
          "durationTicks": 2,
          "midi": 44,
          "name": "G#2",
          "ticks": 11883,
          "time": 138.17441860465115,
          "velocity": 0.23622047244094488
        },
        {
          "duration": 0.023255813953483084,
          "durationTicks": 2,
          "midi": 44,
          "name": "G#2",
          "ticks": 11892,
          "time": 138.27906976744185,
          "velocity": 0.25196850393700787
        },
        {
          "duration": 0.22093023255814614,
          "durationTicks": 19,
          "midi": 57,
          "name": "A3",
          "ticks": 11892,
          "time": 138.27906976744185,
          "velocity": 0.07086614173228346
        },
        {
          "duration": 0.023255813953483084,
          "durationTicks": 2,
          "midi": 44,
          "name": "G#2",
          "ticks": 11897,
          "time": 138.3372093023256,
          "velocity": 0.2283464566929134
        },
        {
          "duration": 0.04651162790699459,
          "durationTicks": 4,
          "midi": 45,
          "name": "A2",
          "ticks": 11902,
          "time": 138.3953488372093,
          "velocity": 0.2047244094488189
        },
        {
          "duration": 0.11627906976744384,
          "durationTicks": 10,
          "midi": 52,
          "name": "E3",
          "ticks": 11909,
          "time": 138.47674418604652,
          "velocity": 0.2440944881889764
        },
        {
          "duration": 0.034883720930224626,
          "durationTicks": 3,
          "midi": 45,
          "name": "A2",
          "ticks": 11911,
          "time": 138.5,
          "velocity": 0.1732283464566929
        },
        {
          "duration": 0.023255813953483084,
          "durationTicks": 2,
          "midi": 44,
          "name": "G#2",
          "ticks": 11918,
          "time": 138.58139534883722,
          "velocity": 0.2440944881889764
        },
        {
          "duration": 0.2325581395348877,
          "durationTicks": 20,
          "midi": 83,
          "name": "B5",
          "ticks": 11918,
          "time": 138.58139534883722,
          "velocity": 0.07086614173228346
        },
        {
          "duration": 0.19767441860463464,
          "durationTicks": 17,
          "midi": 45,
          "name": "A2",
          "ticks": 11920,
          "time": 138.6046511627907,
          "velocity": 0.2125984251968504
        },
        {
          "duration": 0.08139534883721922,
          "durationTicks": 7,
          "midi": 52,
          "name": "E3",
          "ticks": 11925,
          "time": 138.6627906976744,
          "velocity": 0.10236220472440945
        },
        {
          "duration": 0.06976744186047767,
          "durationTicks": 6,
          "midi": 52,
          "name": "E3",
          "ticks": 11934,
          "time": 138.7674418604651,
          "velocity": 0.11023622047244094
        },
        {
          "duration": 0.05813953488370771,
          "durationTicks": 5,
          "midi": 45,
          "name": "A2",
          "ticks": 11940,
          "time": 138.8372093023256,
          "velocity": 0.18110236220472442
        },
        {
          "duration": 0.023255813953483084,
          "durationTicks": 2,
          "midi": 44,
          "name": "G#2",
          "ticks": 11945,
          "time": 138.8953488372093,
          "velocity": 0.2283464566929134
        },
        {
          "duration": 0.06976744186047767,
          "durationTicks": 6,
          "midi": 60,
          "name": "C4",
          "ticks": 11946,
          "time": 138.90697674418604,
          "velocity": 0.13385826771653545
        },
        {
          "duration": 0.034883720930224626,
          "durationTicks": 3,
          "midi": 57,
          "name": "A3",
          "ticks": 11955,
          "time": 139.01162790697674,
          "velocity": 0.11023622047244094
        },
        {
          "duration": 0.05813953488373613,
          "durationTicks": 5,
          "midi": 57,
          "name": "A3",
          "ticks": 11959,
          "time": 139.0581395348837,
          "velocity": 0.11023622047244094
        },
        {
          "duration": 0.0813953488371908,
          "durationTicks": 7,
          "midi": 52,
          "name": "E3",
          "ticks": 11961,
          "time": 139.08139534883722,
          "velocity": 0.2047244094488189
        },
        {
          "duration": 0.0813953488371908,
          "durationTicks": 7,
          "midi": 60,
          "name": "C4",
          "ticks": 11963,
          "time": 139.1046511627907,
          "velocity": 0.07086614173228346
        },
        {
          "duration": 0.03488372093025305,
          "durationTicks": 3,
          "midi": 45,
          "name": "A2",
          "ticks": 11970,
          "time": 139.1860465116279,
          "velocity": 0.14960629921259844
        },
        {
          "duration": 0.034883720930224626,
          "durationTicks": 3,
          "midi": 44,
          "name": "G#2",
          "ticks": 11975,
          "time": 139.24418604651163,
          "velocity": 0.1968503937007874
        },
        {
          "duration": 0.03488372093025305,
          "durationTicks": 3,
          "midi": 42,
          "name": "F#2",
          "ticks": 11989,
          "time": 139.40697674418604,
          "velocity": 0.25984251968503935
        },
        {
          "duration": 0.1860465116278931,
          "durationTicks": 16,
          "midi": 64,
          "name": "E4",
          "ticks": 11992,
          "time": 139.4418604651163,
          "velocity": 0.07874015748031496
        },
        {
          "duration": 0.06976744186044925,
          "durationTicks": 6,
          "midi": 52,
          "name": "E3",
          "ticks": 11993,
          "time": 139.45348837209303,
          "velocity": 0.15748031496062992
        },
        {
          "duration": 0.034883720930224626,
          "durationTicks": 3,
          "midi": 44,
          "name": "G#2",
          "ticks": 11998,
          "time": 139.51162790697674,
          "velocity": 0.1889763779527559
        },
        {
          "duration": 0.06976744186044925,
          "durationTicks": 6,
          "midi": 52,
          "name": "E3",
          "ticks": 12017,
          "time": 139.7325581395349,
          "velocity": 0.13385826771653545
        },
        {
          "duration": 0.034883720930224626,
          "durationTicks": 3,
          "midi": 52,
          "name": "E3",
          "ticks": 12030,
          "time": 139.88372093023256,
          "velocity": 0.1732283464566929
        },
        {
          "duration": 0.06976744186047767,
          "durationTicks": 6,
          "midi": 52,
          "name": "E3",
          "ticks": 12043,
          "time": 140.03488372093022,
          "velocity": 0.09448818897637795
        },
        {
          "duration": 0.1860465116278931,
          "durationTicks": 16,
          "midi": 57,
          "name": "A3",
          "ticks": 12046,
          "time": 140.06976744186048,
          "velocity": 0.11023622047244094
        },
        {
          "duration": 0.06976744186044925,
          "durationTicks": 6,
          "midi": 45,
          "name": "A2",
          "ticks": 12049,
          "time": 140.1046511627907,
          "velocity": 0.07874015748031496
        },
        {
          "duration": 0.05813953488370771,
          "durationTicks": 5,
          "midi": 60,
          "name": "C4",
          "ticks": 12057,
          "time": 140.19767441860466,
          "velocity": 0.11023622047244094
        },
        {
          "duration": 0.03488372093025305,
          "durationTicks": 3,
          "midi": 57,
          "name": "A3",
          "ticks": 12065,
          "time": 140.2906976744186,
          "velocity": 0.07874015748031496
        },
        {
          "duration": 0.034883720930224626,
          "durationTicks": 3,
          "midi": 57,
          "name": "A3",
          "ticks": 12069,
          "time": 140.3372093023256,
          "velocity": 0.07874015748031496
        },
        {
          "duration": 0.08139534883721922,
          "durationTicks": 7,
          "midi": 52,
          "name": "E3",
          "ticks": 12072,
          "time": 140.37209302325581,
          "velocity": 0.25196850393700787
        },
        {
          "duration": 0.034883720930224626,
          "durationTicks": 3,
          "midi": 51,
          "name": "D#3",
          "ticks": 12093,
          "time": 140.61627906976744,
          "velocity": 0.2204724409448819
        },
        {
          "duration": 0.2093023255814046,
          "durationTicks": 18,
          "midi": 60,
          "name": "C4",
          "ticks": 12095,
          "time": 140.63953488372093,
          "velocity": 0.1732283464566929
        },
        {
          "duration": 0.8255813953488484,
          "durationTicks": 71,
          "midi": 84,
          "name": "C6",
          "ticks": 12095,
          "time": 140.63953488372093,
          "velocity": 0.14960629921259844
        },
        {
          "duration": 0.04651162790699459,
          "durationTicks": 4,
          "midi": 42,
          "name": "F#2",
          "ticks": 12096,
          "time": 140.65116279069767,
          "velocity": 0.2125984251968504
        },
        {
          "duration": 0.034883720930224626,
          "durationTicks": 3,
          "midi": 42,
          "name": "F#2",
          "ticks": 12101,
          "time": 140.7093023255814,
          "velocity": 0.1968503937007874
        },
        {
          "duration": 0.2325581395348877,
          "durationTicks": 20,
          "midi": 48,
          "name": "C3",
          "ticks": 12105,
          "time": 140.75581395348837,
          "velocity": 0.16535433070866143
        },
        {
          "duration": 0.04651162790696617,
          "durationTicks": 4,
          "midi": 52,
          "name": "E3",
          "ticks": 12126,
          "time": 141,
          "velocity": 0.2283464566929134
        },
        {
          "duration": 0.12790697674418539,
          "durationTicks": 11,
          "midi": 48,
          "name": "C3",
          "ticks": 12131,
          "time": 141.0581395348837,
          "velocity": 0.2204724409448819
        },
        {
          "duration": 0.05813953488373613,
          "durationTicks": 5,
          "midi": 48,
          "name": "C3",
          "ticks": 12148,
          "time": 141.25581395348837,
          "velocity": 0.11023622047244094
        },
        {
          "duration": 0.1046511627907023,
          "durationTicks": 9,
          "midi": 48,
          "name": "C3",
          "ticks": 12157,
          "time": 141.36046511627907,
          "velocity": 0.2125984251968504
        },
        {
          "duration": 0.034883720930224626,
          "durationTicks": 3,
          "midi": 42,
          "name": "F#2",
          "ticks": 12166,
          "time": 141.46511627906978,
          "velocity": 0.16535433070866143
        },
        {
          "duration": 0.08139534883721922,
          "durationTicks": 7,
          "midi": 48,
          "name": "C3",
          "ticks": 12172,
          "time": 141.53488372093022,
          "velocity": 0.2440944881889764
        },
        {
          "duration": 0.3139534883720785,
          "durationTicks": 27,
          "midi": 72,
          "name": "C5",
          "ticks": 12178,
          "time": 141.6046511627907,
          "velocity": 0.1889763779527559
        },
        {
          "duration": 0.3139534883720785,
          "durationTicks": 27,
          "midi": 60,
          "name": "C4",
          "ticks": 12179,
          "time": 141.61627906976744,
          "velocity": 0.33070866141732286
        },
        {
          "duration": 0.034883720930224626,
          "durationTicks": 3,
          "midi": 51,
          "name": "D#3",
          "ticks": 12180,
          "time": 141.62790697674419,
          "velocity": 0.23622047244094488
        },
        {
          "duration": 0.08139534883721922,
          "durationTicks": 7,
          "midi": 52,
          "name": "E3",
          "ticks": 12183,
          "time": 141.6627906976744,
          "velocity": 0.2992125984251969
        },
        {
          "duration": 0.03488372093025305,
          "durationTicks": 3,
          "midi": 61,
          "name": "C#4",
          "ticks": 12206,
          "time": 141.93023255813952,
          "velocity": 0.2440944881889764
        },
        {
          "duration": 0.27906976744185386,
          "durationTicks": 24,
          "midi": 62,
          "name": "D4",
          "ticks": 12209,
          "time": 141.96511627906978,
          "velocity": 0.28346456692913385
        },
        {
          "duration": 0.11627906976744384,
          "durationTicks": 10,
          "midi": 55,
          "name": "G3",
          "ticks": 12211,
          "time": 141.98837209302326,
          "velocity": 0.07086614173228346
        },
        {
          "duration": 0.11627906976744384,
          "durationTicks": 10,
          "midi": 47,
          "name": "B2",
          "ticks": 12223,
          "time": 142.12790697674419,
          "velocity": 0.12598425196850394
        },
        {
          "duration": 0.06976744186044925,
          "durationTicks": 6,
          "midi": 47,
          "name": "B2",
          "ticks": 12241,
          "time": 142.3372093023256,
          "velocity": 0.13385826771653545
        },
        {
          "duration": 0.2674418604651123,
          "durationTicks": 23,
          "midi": 55,
          "name": "G3",
          "ticks": 12251,
          "time": 142.45348837209303,
          "velocity": 0.09448818897637795
        },
        {
          "duration": 0.06976744186044925,
          "durationTicks": 6,
          "midi": 47,
          "name": "B2",
          "ticks": 12254,
          "time": 142.48837209302326,
          "velocity": 0.11811023622047244
        },
        {
          "duration": 0.034883720930224626,
          "durationTicks": 3,
          "midi": 47,
          "name": "B2",
          "ticks": 12261,
          "time": 142.56976744186048,
          "velocity": 0.11023622047244094
        },
        {
          "duration": 0.09302325581396076,
          "durationTicks": 8,
          "midi": 47,
          "name": "B2",
          "ticks": 12265,
          "time": 142.61627906976744,
          "velocity": 0.10236220472440945
        },
        {
          "duration": 0.13953488372092693,
          "durationTicks": 12,
          "midi": 62,
          "name": "D4",
          "ticks": 12275,
          "time": 142.7325581395349,
          "velocity": 0.15748031496062992
        },
        {
          "duration": 0.09302325581396076,
          "durationTicks": 8,
          "midi": 55,
          "name": "G3",
          "ticks": 12278,
          "time": 142.7674418604651,
          "velocity": 0.07086614173228346
        },
        {
          "duration": 0.023255813953483084,
          "durationTicks": 2,
          "midi": 53,
          "name": "F3",
          "ticks": 12287,
          "time": 142.87209302325581,
          "velocity": 0.2677165354330709
        },
        {
          "duration": 0.11627906976744384,
          "durationTicks": 10,
          "midi": 60,
          "name": "C4",
          "ticks": 12287,
          "time": 142.87209302325581,
          "velocity": 0.33070866141732286
        },
        {
          "duration": 0.034883720930224626,
          "durationTicks": 3,
          "midi": 61,
          "name": "C#4",
          "ticks": 12297,
          "time": 142.98837209302326,
          "velocity": 0.25984251968503935
        },
        {
          "duration": 0.03488372093025305,
          "durationTicks": 3,
          "midi": 53,
          "name": "F3",
          "ticks": 12301,
          "time": 143.03488372093022,
          "velocity": 0.2677165354330709
        },
        {
          "duration": 0.1511627906976969,
          "durationTicks": 13,
          "midi": 62,
          "name": "D4",
          "ticks": 12303,
          "time": 143.0581395348837,
          "velocity": 0.33070866141732286
        },
        {
          "duration": 0.04651162790696617,
          "durationTicks": 4,
          "midi": 55,
          "name": "G3",
          "ticks": 12306,
          "time": 143.09302325581396,
          "velocity": 0.07874015748031496
        },
        {
          "duration": 0.023255813953483084,
          "durationTicks": 2,
          "midi": 51,
          "name": "D#3",
          "ticks": 12317,
          "time": 143.22093023255815,
          "velocity": 0.29133858267716534
        },
        {
          "duration": 0.023255813953483084,
          "durationTicks": 2,
          "midi": 62,
          "name": "D4",
          "ticks": 12317,
          "time": 143.22093023255815,
          "velocity": 0.3228346456692913
        },
        {
          "duration": 0.023255813953483084,
          "durationTicks": 2,
          "midi": 44,
          "name": "G#2",
          "ticks": 12318,
          "time": 143.2325581395349,
          "velocity": 0.30708661417322836
        },
        {
          "duration": 0.09302325581396076,
          "durationTicks": 8,
          "midi": 62,
          "name": "D4",
          "ticks": 12320,
          "time": 143.25581395348837,
          "velocity": 0.36220472440944884
        },
        {
          "duration": 0.05813953488373613,
          "durationTicks": 5,
          "midi": 100,
          "name": "E7",
          "ticks": 12320,
          "time": 143.25581395348837,
          "velocity": 0.07086614173228346
        },
        {
          "duration": 0.023255813953511506,
          "durationTicks": 2,
          "midi": 44,
          "name": "G#2",
          "ticks": 12323,
          "time": 143.2906976744186,
          "velocity": 0.25196850393700787
        },
        {
          "duration": 0.034883720930224626,
          "durationTicks": 3,
          "midi": 44,
          "name": "G#2",
          "ticks": 12327,
          "time": 143.3372093023256,
          "velocity": 0.23622047244094488
        },
        {
          "duration": 0.03488372093025305,
          "durationTicks": 3,
          "midi": 60,
          "name": "C4",
          "ticks": 12333,
          "time": 143.40697674418604,
          "velocity": 0.07874015748031496
        },
        {
          "duration": 0.5232558139534831,
          "durationTicks": 45,
          "midi": 64,
          "name": "E4",
          "ticks": 12333,
          "time": 143.40697674418604,
          "velocity": 0.09448818897637795
        },
        {
          "duration": 0.15116279069766847,
          "durationTicks": 13,
          "midi": 60,
          "name": "C4",
          "ticks": 12337,
          "time": 143.45348837209303,
          "velocity": 0.07874015748031496
        },
        {
          "duration": 0.19767441860463464,
          "durationTicks": 17,
          "midi": 45,
          "name": "A2",
          "ticks": 12340,
          "time": 143.48837209302326,
          "velocity": 0.2047244094488189
        },
        {
          "duration": 0.06976744186047767,
          "durationTicks": 6,
          "midi": 52,
          "name": "E3",
          "ticks": 12345,
          "time": 143.54651162790697,
          "velocity": 0.11023622047244094
        },
        {
          "duration": 0.32558139534882,
          "durationTicks": 28,
          "midi": 57,
          "name": "A3",
          "ticks": 12358,
          "time": 143.69767441860466,
          "velocity": 0.14960629921259844
        },
        {
          "duration": 0.023255813953483084,
          "durationTicks": 2,
          "midi": 44,
          "name": "G#2",
          "ticks": 12360,
          "time": 143.72093023255815,
          "velocity": 0.2283464566929134
        },
        {
          "duration": 0.034883720930224626,
          "durationTicks": 3,
          "midi": 44,
          "name": "G#2",
          "ticks": 12364,
          "time": 143.7674418604651,
          "velocity": 0.2125984251968504
        },
        {
          "duration": 0.1046511627907023,
          "durationTicks": 9,
          "midi": 45,
          "name": "A2",
          "ticks": 12377,
          "time": 143.91860465116278,
          "velocity": 0.2283464566929134
        },
        {
          "duration": 0.023255813953483084,
          "durationTicks": 2,
          "midi": 44,
          "name": "G#2",
          "ticks": 12386,
          "time": 144.02325581395348,
          "velocity": 0.2440944881889764
        },
        {
          "duration": 0.2906976744186238,
          "durationTicks": 25,
          "midi": 57,
          "name": "A3",
          "ticks": 12387,
          "time": 144.03488372093022,
          "velocity": 0.14173228346456693
        },
        {
          "duration": 0.0813953488371908,
          "durationTicks": 7,
          "midi": 52,
          "name": "E3",
          "ticks": 12402,
          "time": 144.2093023255814,
          "velocity": 0.1732283464566929
        },
        {
          "duration": 0.034883720930224626,
          "durationTicks": 3,
          "midi": 44,
          "name": "G#2",
          "ticks": 12412,
          "time": 144.32558139534885,
          "velocity": 0.2283464566929134
        },
        {
          "duration": 0.034883720930224626,
          "durationTicks": 3,
          "midi": 44,
          "name": "G#2",
          "ticks": 12416,
          "time": 144.37209302325581,
          "velocity": 0.1968503937007874
        },
        {
          "duration": 0.09302325581396076,
          "durationTicks": 8,
          "midi": 52,
          "name": "E3",
          "ticks": 12417,
          "time": 144.38372093023256,
          "velocity": 0.08661417322834646
        },
        {
          "duration": 0.034883720930224626,
          "durationTicks": 3,
          "midi": 40,
          "name": "E2",
          "ticks": 12427,
          "time": 144.5,
          "velocity": 0.2283464566929134
        },
        {
          "duration": 0.4651162790697754,
          "durationTicks": 40,
          "midi": 60,
          "name": "C4",
          "ticks": 12428,
          "time": 144.51162790697674,
          "velocity": 0.18110236220472442
        },
        {
          "duration": 0.05813953488370771,
          "durationTicks": 5,
          "midi": 52,
          "name": "E3",
          "ticks": 12433,
          "time": 144.56976744186048,
          "velocity": 0.12598425196850394
        },
        {
          "duration": 0.023255813953483084,
          "durationTicks": 2,
          "midi": 44,
          "name": "G#2",
          "ticks": 12435,
          "time": 144.59302325581396,
          "velocity": 0.25196850393700787
        },
        {
          "duration": 0.023255813953483084,
          "durationTicks": 2,
          "midi": 44,
          "name": "G#2",
          "ticks": 12439,
          "time": 144.63953488372093,
          "velocity": 0.2283464566929134
        },
        {
          "duration": 0.04651162790699459,
          "durationTicks": 4,
          "midi": 45,
          "name": "A2",
          "ticks": 12451,
          "time": 144.77906976744185,
          "velocity": 0.18110236220472442
        },
        {
          "duration": 0.11627906976744384,
          "durationTicks": 10,
          "midi": 52,
          "name": "E3",
          "ticks": 12453,
          "time": 144.80232558139534,
          "velocity": 0.2204724409448819
        },
        {
          "duration": 0.09302325581396076,
          "durationTicks": 8,
          "midi": 45,
          "name": "A2",
          "ticks": 12460,
          "time": 144.88372093023256,
          "velocity": 0.18110236220472442
        },
        {
          "duration": 0.04651162790696617,
          "durationTicks": 4,
          "midi": 52,
          "name": "E3",
          "ticks": 12468,
          "time": 144.97674418604652,
          "velocity": 0.1968503937007874
        },
        {
          "duration": 0.5,
          "durationTicks": 43,
          "midi": 57,
          "name": "A3",
          "ticks": 12471,
          "time": 145.01162790697674,
          "velocity": 0.11023622047244094
        },
        {
          "duration": 0.034883720930224626,
          "durationTicks": 3,
          "midi": 45,
          "name": "A2",
          "ticks": 12480,
          "time": 145.11627906976744,
          "velocity": 0.14173228346456693
        },
        {
          "duration": 0.0813953488371908,
          "durationTicks": 7,
          "midi": 45,
          "name": "A2",
          "ticks": 12489,
          "time": 145.22093023255815,
          "velocity": 0.14960629921259844
        },
        {
          "duration": 0.034883720930224626,
          "durationTicks": 3,
          "midi": 44,
          "name": "G#2",
          "ticks": 12499,
          "time": 145.3372093023256,
          "velocity": 0.1968503937007874
        },
        {
          "duration": 0.09302325581396076,
          "durationTicks": 8,
          "midi": 52,
          "name": "E3",
          "ticks": 12511,
          "time": 145.47674418604652,
          "velocity": 0.2283464566929134
        },
        {
          "duration": 0.09302325581396076,
          "durationTicks": 8,
          "midi": 57,
          "name": "A3",
          "ticks": 12515,
          "time": 145.52325581395348,
          "velocity": 0.08661417322834646
        },
        {
          "duration": 0.05813953488373613,
          "durationTicks": 5,
          "midi": 45,
          "name": "A2",
          "ticks": 12516,
          "time": 145.53488372093022,
          "velocity": 0.13385826771653545
        },
        {
          "duration": 0.034883720930224626,
          "durationTicks": 3,
          "midi": 51,
          "name": "D#3",
          "ticks": 12526,
          "time": 145.65116279069767,
          "velocity": 0.2204724409448819
        },
        {
          "duration": 0.034883720930224626,
          "durationTicks": 3,
          "midi": 42,
          "name": "F#2",
          "ticks": 12530,
          "time": 145.69767441860466,
          "velocity": 0.25196850393700787
        },
        {
          "duration": 0.05813953488370771,
          "durationTicks": 5,
          "midi": 52,
          "name": "E3",
          "ticks": 12531,
          "time": 145.7093023255814,
          "velocity": 0.2440944881889764
        },
        {
          "duration": 0.034883720930224626,
          "durationTicks": 3,
          "midi": 41,
          "name": "F2",
          "ticks": 12535,
          "time": 145.75581395348837,
          "velocity": 0.2755905511811024
        },
        {
          "duration": 0.034883720930224626,
          "durationTicks": 3,
          "midi": 60,
          "name": "C4",
          "ticks": 12536,
          "time": 145.7674418604651,
          "velocity": 0.2047244094488189
        },
        {
          "duration": 0.06976744186044925,
          "durationTicks": 6,
          "midi": 42,
          "name": "F#2",
          "ticks": 12541,
          "time": 145.82558139534885,
          "velocity": 0.4094488188976378
        },
        {
          "duration": 0.4186046511627808,
          "durationTicks": 36,
          "midi": 67,
          "name": "G4",
          "ticks": 12541,
          "time": 145.82558139534885,
          "velocity": 0.16535433070866143
        },
        {
          "duration": 0.023255813953483084,
          "durationTicks": 2,
          "midi": 59,
          "name": "B3",
          "ticks": 12542,
          "time": 145.8372093023256,
          "velocity": 0.25984251968503935
        },
        {
          "duration": 0.05813953488373613,
          "durationTicks": 5,
          "midi": 42,
          "name": "F#2",
          "ticks": 12550,
          "time": 145.93023255813952,
          "velocity": 0.3228346456692913
        },
        {
          "duration": 0.04651162790696617,
          "durationTicks": 4,
          "midi": 59,
          "name": "B3",
          "ticks": 12554,
          "time": 145.97674418604652,
          "velocity": 0.2283464566929134
        },
        {
          "duration": 0.034883720930224626,
          "durationTicks": 3,
          "midi": 43,
          "name": "G2",
          "ticks": 12555,
          "time": 145.98837209302326,
          "velocity": 0.2440944881889764
        },
        {
          "duration": 0.08139534883721922,
          "durationTicks": 7,
          "midi": 43,
          "name": "G2",
          "ticks": 12559,
          "time": 146.03488372093022,
          "velocity": 0.2755905511811024
        },
        {
          "duration": 0.05813953488373613,
          "durationTicks": 5,
          "midi": 59,
          "name": "B3",
          "ticks": 12559,
          "time": 146.03488372093022,
          "velocity": 0.2125984251968504
        },
        {
          "duration": 0.04651162790696617,
          "durationTicks": 4,
          "midi": 59,
          "name": "B3",
          "ticks": 12565,
          "time": 146.1046511627907,
          "velocity": 0.1968503937007874
        },
        {
          "duration": 0.1046511627907023,
          "durationTicks": 9,
          "midi": 52,
          "name": "E3",
          "ticks": 12566,
          "time": 146.11627906976744,
          "velocity": 0.2125984251968504
        },
        {
          "duration": 0.12790697674418539,
          "durationTicks": 11,
          "midi": 43,
          "name": "G2",
          "ticks": 12567,
          "time": 146.12790697674419,
          "velocity": 0.25196850393700787
        },
        {
          "duration": 0.05813953488373613,
          "durationTicks": 5,
          "midi": 59,
          "name": "B3",
          "ticks": 12570,
          "time": 146.1627906976744,
          "velocity": 0.1732283464566929
        },
        {
          "duration": 0.04651162790699459,
          "durationTicks": 4,
          "midi": 52,
          "name": "E3",
          "ticks": 12579,
          "time": 146.2674418604651,
          "velocity": 0.28346456692913385
        },
        {
          "duration": 0.4651162790697754,
          "durationTicks": 40,
          "midi": 67,
          "name": "G4",
          "ticks": 12579,
          "time": 146.2674418604651,
          "velocity": 0.2125984251968504
        },
        {
          "duration": 0.03488372093025305,
          "durationTicks": 3,
          "midi": 43,
          "name": "G2",
          "ticks": 12581,
          "time": 146.2906976744186,
          "velocity": 0.23622047244094488
        },
        {
          "duration": 0.04651162790699459,
          "durationTicks": 4,
          "midi": 57,
          "name": "A3",
          "ticks": 12581,
          "time": 146.2906976744186,
          "velocity": 0.18110236220472442
        },
        {
          "duration": 0.09302325581396076,
          "durationTicks": 8,
          "midi": 43,
          "name": "G2",
          "ticks": 12586,
          "time": 146.34883720930233,
          "velocity": 0.2440944881889764
        },
        {
          "duration": 0.05813953488373613,
          "durationTicks": 5,
          "midi": 57,
          "name": "A3",
          "ticks": 12590,
          "time": 146.3953488372093,
          "velocity": 0.1732283464566929
        },
        {
          "duration": 0.11627906976744384,
          "durationTicks": 10,
          "midi": 43,
          "name": "G2",
          "ticks": 12595,
          "time": 146.45348837209303,
          "velocity": 0.2204724409448819
        },
        {
          "duration": 0.25581395348837077,
          "durationTicks": 22,
          "midi": 57,
          "name": "A3",
          "ticks": 12596,
          "time": 146.46511627906978,
          "velocity": 0.18110236220472442
        },
        {
          "duration": 0.04651162790696617,
          "durationTicks": 4,
          "midi": 42,
          "name": "F#2",
          "ticks": 12607,
          "time": 146.59302325581396,
          "velocity": 0.2677165354330709
        },
        {
          "duration": 0.05813953488373613,
          "durationTicks": 5,
          "midi": 43,
          "name": "G2",
          "ticks": 12615,
          "time": 146.6860465116279,
          "velocity": 0.2204724409448819
        },
        {
          "duration": 0.034883720930224626,
          "durationTicks": 3,
          "midi": 42,
          "name": "F#2",
          "ticks": 12620,
          "time": 146.74418604651163,
          "velocity": 0.2677165354330709
        },
        {
          "duration": 0.2674418604651123,
          "durationTicks": 23,
          "midi": 67,
          "name": "G4",
          "ticks": 12621,
          "time": 146.75581395348837,
          "velocity": 0.11023622047244094
        },
        {
          "duration": 0.03488372093025305,
          "durationTicks": 3,
          "midi": 52,
          "name": "E3",
          "ticks": 12623,
          "time": 146.77906976744185,
          "velocity": 0.14960629921259844
        },
        {
          "duration": 0.04651162790696617,
          "durationTicks": 4,
          "midi": 42,
          "name": "F#2",
          "ticks": 12626,
          "time": 146.8139534883721,
          "velocity": 0.18110236220472442
        },
        {
          "duration": 0.034883720930224626,
          "durationTicks": 3,
          "midi": 41,
          "name": "F2",
          "ticks": 12630,
          "time": 146.86046511627907,
          "velocity": 0.1968503937007874
        },
        {
          "duration": 0.04651162790696617,
          "durationTicks": 4,
          "midi": 52,
          "name": "E3",
          "ticks": 12630,
          "time": 146.86046511627907,
          "velocity": 0.14960629921259844
        },
        {
          "duration": 0.06976744186047767,
          "durationTicks": 6,
          "midi": 42,
          "name": "F#2",
          "ticks": 12633,
          "time": 146.8953488372093,
          "velocity": 0.18110236220472442
        },
        {
          "duration": 0.04651162790696617,
          "durationTicks": 4,
          "midi": 41,
          "name": "F2",
          "ticks": 12639,
          "time": 146.96511627906978,
          "velocity": 0.14960629921259844
        },
        {
          "duration": 0.03488372093025305,
          "durationTicks": 3,
          "midi": 53,
          "name": "F3",
          "ticks": 12646,
          "time": 147.04651162790697,
          "velocity": 0.25984251968503935
        },
        {
          "duration": 0.40697674418606766,
          "durationTicks": 35,
          "midi": 67,
          "name": "G4",
          "ticks": 12646,
          "time": 147.04651162790697,
          "velocity": 0.2283464566929134
        },
        {
          "duration": 0.15116279069766847,
          "durationTicks": 13,
          "midi": 62,
          "name": "D4",
          "ticks": 12649,
          "time": 147.08139534883722,
          "velocity": 0.11811023622047244
        },
        {
          "duration": 0.034883720930224626,
          "durationTicks": 3,
          "midi": 41,
          "name": "F2",
          "ticks": 12650,
          "time": 147.09302325581396,
          "velocity": 0.2283464566929134
        },
        {
          "duration": 0.04651162790696617,
          "durationTicks": 4,
          "midi": 42,
          "name": "F#2",
          "ticks": 12653,
          "time": 147.12790697674419,
          "velocity": 0.15748031496062992
        },
        {
          "duration": 0.04651162790699459,
          "durationTicks": 4,
          "midi": 51,
          "name": "D#3",
          "ticks": 12655,
          "time": 147.15116279069767,
          "velocity": 0.16535433070866143
        },
        {
          "duration": 0.03488372093025305,
          "durationTicks": 3,
          "midi": 41,
          "name": "F2",
          "ticks": 12657,
          "time": 147.17441860465115,
          "velocity": 0.15748031496062992
        },
        {
          "duration": 0.034883720930224626,
          "durationTicks": 3,
          "midi": 42,
          "name": "F#2",
          "ticks": 12660,
          "time": 147.2093023255814,
          "velocity": 0.12598425196850394
        },
        {
          "duration": 0.11627906976744384,
          "durationTicks": 10,
          "midi": 50,
          "name": "D3",
          "ticks": 12674,
          "time": 147.37209302325581,
          "velocity": 0.15748031496062992
        },
        {
          "duration": 0.05813953488370771,
          "durationTicks": 5,
          "midi": 41,
          "name": "F2",
          "ticks": 12685,
          "time": 147.5,
          "velocity": 0.1889763779527559
        },
        {
          "duration": 0.04651162790696617,
          "durationTicks": 4,
          "midi": 52,
          "name": "E3",
          "ticks": 12685,
          "time": 147.5,
          "velocity": 0.30708661417322836
        },
        {
          "duration": 0.3720930232558146,
          "durationTicks": 32,
          "midi": 65,
          "name": "F4",
          "ticks": 12685,
          "time": 147.5,
          "velocity": 0.11023622047244094
        },
        {
          "duration": 0.25581395348837077,
          "durationTicks": 22,
          "midi": 84,
          "name": "C6",
          "ticks": 12685,
          "time": 147.5,
          "velocity": 0.08661417322834646
        },
        {
          "duration": 0.6162790697674438,
          "durationTicks": 53,
          "midi": 57,
          "name": "A3",
          "ticks": 12688,
          "time": 147.53488372093022,
          "velocity": 0.14173228346456693
        },
        {
          "duration": 0.023255813953511506,
          "durationTicks": 2,
          "midi": 51,
          "name": "D#3",
          "ticks": 12689,
          "time": 147.54651162790697,
          "velocity": 0.2440944881889764
        },
        {
          "duration": 0.03488372093025305,
          "durationTicks": 3,
          "midi": 42,
          "name": "F#2",
          "ticks": 12690,
          "time": 147.5581395348837,
          "velocity": 0.10236220472440945
        },
        {
          "duration": 0.04651162790696617,
          "durationTicks": 4,
          "midi": 51,
          "name": "D#3",
          "ticks": 12695,
          "time": 147.61627906976744,
          "velocity": 0.14960629921259844
        },
        {
          "duration": 0.034883720930224626,
          "durationTicks": 3,
          "midi": 51,
          "name": "D#3",
          "ticks": 12715,
          "time": 147.84883720930233,
          "velocity": 0.11023622047244094
        },
        {
          "duration": 0.4302325581395223,
          "durationTicks": 37,
          "midi": 62,
          "name": "D4",
          "ticks": 12716,
          "time": 147.86046511627907,
          "velocity": 0.3464566929133858
        },
        {
          "duration": 0.034883720930224626,
          "durationTicks": 3,
          "midi": 42,
          "name": "F#2",
          "ticks": 12719,
          "time": 147.8953488372093,
          "velocity": 0.14960629921259844
        },
        {
          "duration": 0.04651162790696617,
          "durationTicks": 4,
          "midi": 50,
          "name": "D3",
          "ticks": 12729,
          "time": 148.01162790697674,
          "velocity": 0.14960629921259844
        },
        {
          "duration": 0.034883720930224626,
          "durationTicks": 3,
          "midi": 50,
          "name": "D3",
          "ticks": 12739,
          "time": 148.12790697674419,
          "velocity": 0.14173228346456693
        },
        {
          "duration": 0.06976744186044925,
          "durationTicks": 6,
          "midi": 57,
          "name": "A3",
          "ticks": 12745,
          "time": 148.19767441860466,
          "velocity": 0.08661417322834646
        },
        {
          "duration": 0.023255813953483084,
          "durationTicks": 2,
          "midi": 61,
          "name": "C#4",
          "ticks": 12756,
          "time": 148.32558139534885,
          "velocity": 0.28346456692913385
        },
        {
          "duration": 0.023255813953483084,
          "durationTicks": 2,
          "midi": 52,
          "name": "E3",
          "ticks": 12758,
          "time": 148.34883720930233,
          "velocity": 0.3228346456692913
        },
        {
          "duration": 0.4186046511627808,
          "durationTicks": 36,
          "midi": 62,
          "name": "D4",
          "ticks": 12758,
          "time": 148.34883720930233,
          "velocity": 0.3228346456692913
        },
        {
          "duration": 0.023255813953483084,
          "durationTicks": 2,
          "midi": 46,
          "name": "A#2",
          "ticks": 12770,
          "time": 148.48837209302326,
          "velocity": 0.23622047244094488
        },
        {
          "duration": 0.023255813953483084,
          "durationTicks": 2,
          "midi": 44,
          "name": "G#2",
          "ticks": 12773,
          "time": 148.52325581395348,
          "velocity": 0.25984251968503935
        },
        {
          "duration": 0.06976744186047767,
          "durationTicks": 6,
          "midi": 76,
          "name": "E5",
          "ticks": 12773,
          "time": 148.52325581395348,
          "velocity": 0.10236220472440945
        },
        {
          "duration": 0.08139534883721922,
          "durationTicks": 7,
          "midi": 45,
          "name": "A2",
          "ticks": 12781,
          "time": 148.61627906976744,
          "velocity": 0.2283464566929134
        },
        {
          "duration": 0.0813953488371908,
          "durationTicks": 7,
          "midi": 52,
          "name": "E3",
          "ticks": 12788,
          "time": 148.69767441860466,
          "velocity": 0.2283464566929134
        },
        {
          "duration": 0.12790697674418539,
          "durationTicks": 11,
          "midi": 45,
          "name": "A2",
          "ticks": 12789,
          "time": 148.7093023255814,
          "velocity": 0.23622047244094488
        },
        {
          "duration": 0.023255813953483084,
          "durationTicks": 2,
          "midi": 52,
          "name": "E3",
          "ticks": 12801,
          "time": 148.84883720930233,
          "velocity": 0.29133858267716534
        },
        {
          "duration": 0.6046511627907023,
          "durationTicks": 52,
          "midi": 57,
          "name": "A3",
          "ticks": 12801,
          "time": 148.84883720930233,
          "velocity": 0.16535433070866143
        },
        {
          "duration": 0.32558139534882,
          "durationTicks": 28,
          "midi": 76,
          "name": "E5",
          "ticks": 12801,
          "time": 148.84883720930233,
          "velocity": 0.13385826771653545
        },
        {
          "duration": 0.4651162790697754,
          "durationTicks": 40,
          "midi": 83,
          "name": "B5",
          "ticks": 12801,
          "time": 148.84883720930233,
          "velocity": 0.12598425196850394
        },
        {
          "duration": 0.6279069767441854,
          "durationTicks": 54,
          "midi": 64,
          "name": "E4",
          "ticks": 12803,
          "time": 148.87209302325581,
          "velocity": 0.11023622047244094
        },
        {
          "duration": 0.06976744186047767,
          "durationTicks": 6,
          "midi": 52,
          "name": "E3",
          "ticks": 12806,
          "time": 148.90697674418604,
          "velocity": 0.14960629921259844
        },
        {
          "duration": 0.12790697674418539,
          "durationTicks": 11,
          "midi": 45,
          "name": "A2",
          "ticks": 12814,
          "time": 149,
          "velocity": 0.1968503937007874
        },
        {
          "duration": 0.04651162790699459,
          "durationTicks": 4,
          "midi": 44,
          "name": "G#2",
          "ticks": 12827,
          "time": 149.15116279069767,
          "velocity": 0.2125984251968504
        },
        {
          "duration": 0.0813953488371908,
          "durationTicks": 7,
          "midi": 52,
          "name": "E3",
          "ticks": 12843,
          "time": 149.3372093023256,
          "velocity": 0.1968503937007874
        },
        {
          "duration": 0.09302325581396076,
          "durationTicks": 8,
          "midi": 45,
          "name": "A2",
          "ticks": 12845,
          "time": 149.36046511627907,
          "velocity": 0.14960629921259844
        },
        {
          "duration": 0.04651162790696617,
          "durationTicks": 4,
          "midi": 52,
          "name": "E3",
          "ticks": 12853,
          "time": 149.45348837209303,
          "velocity": 0.15748031496062992
        },
        {
          "duration": 0.05813953488370771,
          "durationTicks": 5,
          "midi": 42,
          "name": "F#2",
          "ticks": 12868,
          "time": 149.62790697674419,
          "velocity": 0.30708661417322836
        },
        {
          "duration": 0.33720930232559,
          "durationTicks": 29,
          "midi": 60,
          "name": "C4",
          "ticks": 12868,
          "time": 149.62790697674419,
          "velocity": 0.14960629921259844
        },
        {
          "duration": 0.023255813953511506,
          "durationTicks": 2,
          "midi": 41,
          "name": "F2",
          "ticks": 12873,
          "time": 149.6860465116279,
          "velocity": 0.23622047244094488
        },
        {
          "duration": 0.023255813953483084,
          "durationTicks": 2,
          "midi": 42,
          "name": "F#2",
          "ticks": 12875,
          "time": 149.7093023255814,
          "velocity": 0.23622047244094488
        },
        {
          "duration": 0.034883720930224626,
          "durationTicks": 3,
          "midi": 44,
          "name": "G#2",
          "ticks": 12887,
          "time": 149.84883720930233,
          "velocity": 0.1732283464566929
        },
        {
          "duration": 0.05813953488370771,
          "durationTicks": 5,
          "midi": 52,
          "name": "E3",
          "ticks": 12898,
          "time": 149.97674418604652,
          "velocity": 0.14960629921259844
        },
        {
          "duration": 0.034883720930224626,
          "durationTicks": 3,
          "midi": 44,
          "name": "G#2",
          "ticks": 12906,
          "time": 150.06976744186048,
          "velocity": 0.12598425196850394
        },
        {
          "duration": 0.5465116279069662,
          "durationTicks": 47,
          "midi": 57,
          "name": "A3",
          "ticks": 12909,
          "time": 150.1046511627907,
          "velocity": 0.11811023622047244
        },
        {
          "duration": 0.1046511627907023,
          "durationTicks": 9,
          "midi": 45,
          "name": "A2",
          "ticks": 12915,
          "time": 150.17441860465115,
          "velocity": 0.12598425196850394
        },
        {
          "duration": 0.05813953488373613,
          "durationTicks": 5,
          "midi": 52,
          "name": "E3",
          "ticks": 12924,
          "time": 150.27906976744185,
          "velocity": 0.18110236220472442
        },
        {
          "duration": 0.09302325581393234,
          "durationTicks": 8,
          "midi": 45,
          "name": "A2",
          "ticks": 12927,
          "time": 150.3139534883721,
          "velocity": 0.11023622047244094
        },
        {
          "duration": 0.04651162790699459,
          "durationTicks": 4,
          "midi": 52,
          "name": "E3",
          "ticks": 12947,
          "time": 150.54651162790697,
          "velocity": 0.1889763779527559
        },
        {
          "duration": 0.034883720930224626,
          "durationTicks": 3,
          "midi": 42,
          "name": "F#2",
          "ticks": 12951,
          "time": 150.59302325581396,
          "velocity": 0.2204724409448819
        },
        {
          "duration": 0.04651162790696617,
          "durationTicks": 4,
          "midi": 51,
          "name": "D#3",
          "ticks": 12951,
          "time": 150.59302325581396,
          "velocity": 0.23622047244094488
        },
        {
          "duration": 0.04651162790696617,
          "durationTicks": 4,
          "midi": 41,
          "name": "F2",
          "ticks": 12976,
          "time": 150.88372093023256,
          "velocity": 0.3858267716535433
        },
        {
          "duration": 0.40697674418603924,
          "durationTicks": 35,
          "midi": 62,
          "name": "D4",
          "ticks": 12977,
          "time": 150.8953488372093,
          "velocity": 0.3543307086614173
        },
        {
          "duration": 0.32558139534884845,
          "durationTicks": 28,
          "midi": 54,
          "name": "F#3",
          "ticks": 12978,
          "time": 150.90697674418604,
          "velocity": 0.15748031496062992
        },
        {
          "duration": 0.13953488372095535,
          "durationTicks": 12,
          "midi": 42,
          "name": "F#2",
          "ticks": 12980,
          "time": 150.93023255813952,
          "velocity": 0.4015748031496063
        },
        {
          "duration": 0.034883720930224626,
          "durationTicks": 3,
          "midi": 43,
          "name": "G2",
          "ticks": 12992,
          "time": 151.06976744186048,
          "velocity": 0.2047244094488189
        },
        {
          "duration": 0.32558139534882,
          "durationTicks": 28,
          "midi": 42,
          "name": "F#2",
          "ticks": 12995,
          "time": 151.1046511627907,
          "velocity": 0.25984251968503935
        },
        {
          "duration": 0.2093023255814046,
          "durationTicks": 18,
          "midi": 62,
          "name": "D4",
          "ticks": 13018,
          "time": 151.37209302325581,
          "velocity": 0.13385826771653545
        },
        {
          "duration": 0.16279069767441,
          "durationTicks": 14,
          "midi": 42,
          "name": "F#2",
          "ticks": 13026,
          "time": 151.46511627906978,
          "velocity": 0.1889763779527559
        },
        {
          "duration": 0.16279069767443843,
          "durationTicks": 14,
          "midi": 42,
          "name": "F#2",
          "ticks": 13043,
          "time": 151.6627906976744,
          "velocity": 0.11023622047244094
        },
        {
          "duration": 0.034883720930224626,
          "durationTicks": 3,
          "midi": 53,
          "name": "F3",
          "ticks": 13085,
          "time": 152.15116279069767,
          "velocity": 0.18110236220472442
        },
        {
          "duration": 0.04651162790699459,
          "durationTicks": 4,
          "midi": 41,
          "name": "F2",
          "ticks": 13086,
          "time": 152.1627906976744,
          "velocity": 0.3464566929133858
        },
        {
          "duration": 0.13953488372095535,
          "durationTicks": 12,
          "midi": 54,
          "name": "F#3",
          "ticks": 13088,
          "time": 152.1860465116279,
          "velocity": 0.07086614173228346
        },
        {
          "duration": 0.11627906976744384,
          "durationTicks": 10,
          "midi": 42,
          "name": "F#2",
          "ticks": 13090,
          "time": 152.2093023255814,
          "velocity": 0.3464566929133858
        },
        {
          "duration": 0.05813953488373613,
          "durationTicks": 5,
          "midi": 43,
          "name": "G2",
          "ticks": 13107,
          "time": 152.40697674418604,
          "velocity": 0.12598425196850394
        },
        {
          "duration": 0.034883720930224626,
          "durationTicks": 3,
          "midi": 44,
          "name": "G#2",
          "ticks": 13114,
          "time": 152.48837209302326,
          "velocity": 0.14173228346456693
        },
        {
          "duration": 0.08139534883721922,
          "durationTicks": 7,
          "midi": 43,
          "name": "G2",
          "ticks": 13119,
          "time": 152.54651162790697,
          "velocity": 0.10236220472440945
        },
        {
          "duration": 0.034883720930224626,
          "durationTicks": 3,
          "midi": 42,
          "name": "F#2",
          "ticks": 13126,
          "time": 152.62790697674419,
          "velocity": 0.18110236220472442
        },
        {
          "duration": 0.3953488372092977,
          "durationTicks": 34,
          "midi": 60,
          "name": "C4",
          "ticks": 13129,
          "time": 152.6627906976744,
          "velocity": 0.31496062992125984
        },
        {
          "duration": 0.03488372093025305,
          "durationTicks": 3,
          "midi": 52,
          "name": "E3",
          "ticks": 13130,
          "time": 152.67441860465115,
          "velocity": 0.16535433070866143
        },
        {
          "duration": 0.05813953488370771,
          "durationTicks": 5,
          "midi": 42,
          "name": "F#2",
          "ticks": 13133,
          "time": 152.7093023255814,
          "velocity": 0.2125984251968504
        },
        {
          "duration": 0.03488372093025305,
          "durationTicks": 3,
          "midi": 43,
          "name": "G2",
          "ticks": 13141,
          "time": 152.80232558139534,
          "velocity": 0.13385826771653545
        },
        {
          "duration": 0.034883720930224626,
          "durationTicks": 3,
          "midi": 43,
          "name": "G2",
          "ticks": 13146,
          "time": 152.86046511627907,
          "velocity": 0.08661417322834646
        },
        {
          "duration": 0.03488372093025305,
          "durationTicks": 3,
          "midi": 43,
          "name": "G2",
          "ticks": 13152,
          "time": 152.93023255813952,
          "velocity": 0.09448818897637795
        },
        {
          "duration": 0.03488372093025305,
          "durationTicks": 3,
          "midi": 42,
          "name": "F#2",
          "ticks": 13161,
          "time": 153.03488372093022,
          "velocity": 0.11811023622047244
        },
        {
          "duration": 0.03488372093025305,
          "durationTicks": 3,
          "midi": 59,
          "name": "B3",
          "ticks": 13163,
          "time": 153.0581395348837,
          "velocity": 0.1968503937007874
        },
        {
          "duration": 0.04651162790696617,
          "durationTicks": 4,
          "midi": 43,
          "name": "G2",
          "ticks": 13164,
          "time": 153.06976744186048,
          "velocity": 0.09448818897637795
        },
        {
          "duration": 0.023255813953483084,
          "durationTicks": 2,
          "midi": 58,
          "name": "A#3",
          "ticks": 13169,
          "time": 153.12790697674419,
          "velocity": 0.29133858267716534
        },
        {
          "duration": 0.25581395348837077,
          "durationTicks": 22,
          "midi": 71,
          "name": "B4",
          "ticks": 13170,
          "time": 153.13953488372093,
          "velocity": 0.09448818897637795
        },
        {
          "duration": 0.25581395348837077,
          "durationTicks": 22,
          "midi": 59,
          "name": "B3",
          "ticks": 13171,
          "time": 153.15116279069767,
          "velocity": 0.29133858267716534
        },
        {
          "duration": 0.04651162790699459,
          "durationTicks": 4,
          "midi": 41,
          "name": "F2",
          "ticks": 13172,
          "time": 153.1627906976744,
          "velocity": 0.09448818897637795
        },
        {
          "duration": 0.034883720930224626,
          "durationTicks": 3,
          "midi": 51,
          "name": "D#3",
          "ticks": 13179,
          "time": 153.24418604651163,
          "velocity": 0.16535433070866143
        },
        {
          "duration": 0.03488372093025305,
          "durationTicks": 3,
          "midi": 51,
          "name": "D#3",
          "ticks": 13184,
          "time": 153.30232558139534,
          "velocity": 0.12598425196850394
        },
        {
          "duration": 0.6162790697674438,
          "durationTicks": 53,
          "midi": 57,
          "name": "A3",
          "ticks": 13197,
          "time": 153.45348837209303,
          "velocity": 0.2755905511811024
        },
        {
          "duration": 0.034883720930224626,
          "durationTicks": 3,
          "midi": 44,
          "name": "G#2",
          "ticks": 13199,
          "time": 153.47674418604652,
          "velocity": 0.23622047244094488
        },
        {
          "duration": 0.05813953488373613,
          "durationTicks": 5,
          "midi": 52,
          "name": "E3",
          "ticks": 13213,
          "time": 153.63953488372093,
          "velocity": 0.2125984251968504
        },
        {
          "duration": 0.23255813953485927,
          "durationTicks": 20,
          "midi": 45,
          "name": "A2",
          "ticks": 13218,
          "time": 153.69767441860466,
          "velocity": 0.16535433070866143
        },
        {
          "duration": 0.06976744186044925,
          "durationTicks": 6,
          "midi": 60,
          "name": "C4",
          "ticks": 13240,
          "time": 153.95348837209303,
          "velocity": 0.2283464566929134
        },
        {
          "duration": 0.05813953488370771,
          "durationTicks": 5,
          "midi": 57,
          "name": "A3",
          "ticks": 13251,
          "time": 154.08139534883722,
          "velocity": 0.2047244094488189
        },
        {
          "duration": 0.7093023255814046,
          "durationTicks": 61,
          "midi": 57,
          "name": "A3",
          "ticks": 13257,
          "time": 154.15116279069767,
          "velocity": 0.2125984251968504
        },
        {
          "duration": 0.17441860465115155,
          "durationTicks": 15,
          "midi": 45,
          "name": "A2",
          "ticks": 13264,
          "time": 154.2325581395349,
          "velocity": 0.14173228346456693
        },
        {
          "duration": 0.11627906976744384,
          "durationTicks": 10,
          "midi": 45,
          "name": "A2",
          "ticks": 13280,
          "time": 154.41860465116278,
          "velocity": 0.11811023622047244
        },
        {
          "duration": 0.05813953488373613,
          "durationTicks": 5,
          "midi": 52,
          "name": "E3",
          "ticks": 13281,
          "time": 154.43023255813952,
          "velocity": 0.10236220472440945
        },
        {
          "duration": 0.16279069767443843,
          "durationTicks": 14,
          "midi": 45,
          "name": "A2",
          "ticks": 13292,
          "time": 154.5581395348837,
          "velocity": 0.11811023622047244
        },
        {
          "duration": 0.17441860465115155,
          "durationTicks": 15,
          "midi": 40,
          "name": "E2",
          "ticks": 13307,
          "time": 154.7325581395349,
          "velocity": 0.2125984251968504
        },
        {
          "duration": 0.09302325581396076,
          "durationTicks": 8,
          "midi": 52,
          "name": "E3",
          "ticks": 13308,
          "time": 154.74418604651163,
          "velocity": 0.25196850393700787
        },
        {
          "duration": 0.4651162790697754,
          "durationTicks": 40,
          "midi": 57,
          "name": "A3",
          "ticks": 13319,
          "time": 154.87209302325581,
          "velocity": 0.16535433070866143
        },
        {
          "duration": 0.03488372093025305,
          "durationTicks": 3,
          "midi": 41,
          "name": "F2",
          "ticks": 13322,
          "time": 154.90697674418604,
          "velocity": 0.25196850393700787
        },
        {
          "duration": 0.05813953488373613,
          "durationTicks": 5,
          "midi": 52,
          "name": "E3",
          "ticks": 13323,
          "time": 154.91860465116278,
          "velocity": 0.09448818897637795
        },
        {
          "duration": 0.04651162790696617,
          "durationTicks": 4,
          "midi": 42,
          "name": "F#2",
          "ticks": 13325,
          "time": 154.9418604651163,
          "velocity": 0.23622047244094488
        },
        {
          "duration": 0.034883720930224626,
          "durationTicks": 3,
          "midi": 41,
          "name": "F2",
          "ticks": 13329,
          "time": 154.98837209302326,
          "velocity": 0.08661417322834646
        },
        {
          "duration": 0.05813953488373613,
          "durationTicks": 5,
          "midi": 42,
          "name": "F#2",
          "ticks": 13334,
          "time": 155.04651162790697,
          "velocity": 0.16535433070866143
        },
        {
          "duration": 0.03488372093025305,
          "durationTicks": 3,
          "midi": 42,
          "name": "F#2",
          "ticks": 13344,
          "time": 155.1627906976744,
          "velocity": 0.10236220472440945
        },
        {
          "duration": 0.09302325581396076,
          "durationTicks": 8,
          "midi": 60,
          "name": "C4",
          "ticks": 13349,
          "time": 155.22093023255815,
          "velocity": 0.10236220472440945
        },
        {
          "duration": 0.04651162790696617,
          "durationTicks": 4,
          "midi": 42,
          "name": "F#2",
          "ticks": 13357,
          "time": 155.3139534883721,
          "velocity": 0.07874015748031496
        },
        {
          "duration": 0.06976744186044925,
          "durationTicks": 6,
          "midi": 57,
          "name": "A3",
          "ticks": 13361,
          "time": 155.36046511627907,
          "velocity": 0.07086614173228346
        },
        {
          "duration": 0.04651162790699459,
          "durationTicks": 4,
          "midi": 42,
          "name": "F#2",
          "ticks": 13365,
          "time": 155.40697674418604,
          "velocity": 0.07086614173228346
        },
        {
          "duration": 0.11627906976744384,
          "durationTicks": 10,
          "midi": 52,
          "name": "E3",
          "ticks": 13365,
          "time": 155.40697674418604,
          "velocity": 0.2125984251968504
        },
        {
          "duration": 0.15116279069766847,
          "durationTicks": 13,
          "midi": 57,
          "name": "A3",
          "ticks": 13379,
          "time": 155.56976744186048,
          "velocity": 0.09448818897637795
        },
        {
          "duration": 0.13953488372092693,
          "durationTicks": 12,
          "midi": 52,
          "name": "E3",
          "ticks": 13391,
          "time": 155.7093023255814,
          "velocity": 0.2755905511811024
        },
        {
          "duration": 0.023255813953483084,
          "durationTicks": 2,
          "midi": 41,
          "name": "F2",
          "ticks": 13418,
          "time": 156.02325581395348,
          "velocity": 0.25196850393700787
        },
        {
          "duration": 0.13953488372092693,
          "durationTicks": 12,
          "midi": 52,
          "name": "E3",
          "ticks": 13419,
          "time": 156.03488372093022,
          "velocity": 0.3779527559055118
        },
        {
          "duration": 0.4186046511628092,
          "durationTicks": 36,
          "midi": 62,
          "name": "D4",
          "ticks": 13420,
          "time": 156.04651162790697,
          "velocity": 0.3464566929133858
        },
        {
          "duration": 0.12790697674418539,
          "durationTicks": 11,
          "midi": 100,
          "name": "E7",
          "ticks": 13420,
          "time": 156.04651162790697,
          "velocity": 0.08661417322834646
        },
        {
          "duration": 0.034883720930224626,
          "durationTicks": 3,
          "midi": 39,
          "name": "D#2",
          "ticks": 13422,
          "time": 156.06976744186048,
          "velocity": 0.1968503937007874
        },
        {
          "duration": 0.06976744186044925,
          "durationTicks": 6,
          "midi": 40,
          "name": "E2",
          "ticks": 13425,
          "time": 156.1046511627907,
          "velocity": 0.25196850393700787
        },
        {
          "duration": 0.04651162790699459,
          "durationTicks": 4,
          "midi": 41,
          "name": "F2",
          "ticks": 13431,
          "time": 156.17441860465115,
          "velocity": 0.30708661417322836
        },
        {
          "duration": 0.09302325581396076,
          "durationTicks": 8,
          "midi": 42,
          "name": "F#2",
          "ticks": 13435,
          "time": 156.22093023255815,
          "velocity": 0.2992125984251969
        },
        {
          "duration": 0.11627906976744384,
          "durationTicks": 10,
          "midi": 42,
          "name": "F#2",
          "ticks": 13447,
          "time": 156.36046511627907,
          "velocity": 0.16535433070866143
        },
        {
          "duration": 0.4186046511627808,
          "durationTicks": 36,
          "midi": 62,
          "name": "D4",
          "ticks": 13460,
          "time": 156.51162790697674,
          "velocity": 0.3228346456692913
        },
        {
          "duration": 0.16279069767441,
          "durationTicks": 14,
          "midi": 42,
          "name": "F#2",
          "ticks": 13466,
          "time": 156.58139534883722,
          "velocity": 0.14960629921259844
        },
        {
          "duration": 0.04651162790699459,
          "durationTicks": 4,
          "midi": 42,
          "name": "F#2",
          "ticks": 13485,
          "time": 156.80232558139534,
          "velocity": 0.2283464566929134
        },
        {
          "duration": 0.03488372093025305,
          "durationTicks": 3,
          "midi": 61,
          "name": "C#4",
          "ticks": 13496,
          "time": 156.93023255813952,
          "velocity": 0.2755905511811024
        },
        {
          "duration": 0.10465116279067388,
          "durationTicks": 9,
          "midi": 42,
          "name": "F#2",
          "ticks": 13498,
          "time": 156.95348837209303,
          "velocity": 0.16535433070866143
        },
        {
          "duration": 0.034883720930224626,
          "durationTicks": 3,
          "midi": 52,
          "name": "E3",
          "ticks": 13498,
          "time": 156.95348837209303,
          "velocity": 0.1889763779527559
        },
        {
          "duration": 0.34883720930233153,
          "durationTicks": 30,
          "midi": 62,
          "name": "D4",
          "ticks": 13499,
          "time": 156.96511627906978,
          "velocity": 0.2992125984251969
        },
        {
          "duration": 0.1046511627907023,
          "durationTicks": 9,
          "midi": 50,
          "name": "D3",
          "ticks": 13502,
          "time": 157,
          "velocity": 0.11023622047244094
        },
        {
          "duration": 0.034883720930224626,
          "durationTicks": 3,
          "midi": 42,
          "name": "F#2",
          "ticks": 13513,
          "time": 157.12790697674419,
          "velocity": 0.13385826771653545
        },
        {
          "duration": 0.04651162790699459,
          "durationTicks": 4,
          "midi": 42,
          "name": "F#2",
          "ticks": 13518,
          "time": 157.1860465116279,
          "velocity": 0.11023622047244094
        },
        {
          "duration": 0.034883720930224626,
          "durationTicks": 3,
          "midi": 53,
          "name": "F3",
          "ticks": 13525,
          "time": 157.2674418604651,
          "velocity": 0.25984251968503935
        },
        {
          "duration": 0.04651162790699459,
          "durationTicks": 4,
          "midi": 41,
          "name": "F2",
          "ticks": 13527,
          "time": 157.2906976744186,
          "velocity": 0.3858267716535433
        },
        {
          "duration": 0.023255813953511506,
          "durationTicks": 2,
          "midi": 54,
          "name": "F#3",
          "ticks": 13528,
          "time": 157.30232558139534,
          "velocity": 0.23622047244094488
        },
        {
          "duration": 0.4186046511627808,
          "durationTicks": 36,
          "midi": 62,
          "name": "D4",
          "ticks": 13530,
          "time": 157.32558139534885,
          "velocity": 0.33858267716535434
        },
        {
          "duration": 0.11627906976744384,
          "durationTicks": 10,
          "midi": 42,
          "name": "F#2",
          "ticks": 13531,
          "time": 157.3372093023256,
          "velocity": 0.3858267716535433
        },
        {
          "duration": 0.10465116279067388,
          "durationTicks": 9,
          "midi": 43,
          "name": "G2",
          "ticks": 13541,
          "time": 157.45348837209303,
          "velocity": 0.1968503937007874
        },
        {
          "duration": 0.0813953488371908,
          "durationTicks": 7,
          "midi": 43,
          "name": "G2",
          "ticks": 13551,
          "time": 157.56976744186048,
          "velocity": 0.1968503937007874
        },
        {
          "duration": 0.06976744186047767,
          "durationTicks": 6,
          "midi": 43,
          "name": "G2",
          "ticks": 13559,
          "time": 157.6627906976744,
          "velocity": 0.2047244094488189
        },
        {
          "duration": 0.023255813953483084,
          "durationTicks": 2,
          "midi": 44,
          "name": "G#2",
          "ticks": 13565,
          "time": 157.7325581395349,
          "velocity": 0.23622047244094488
        },
        {
          "duration": 0.08139534883721922,
          "durationTicks": 7,
          "midi": 52,
          "name": "E3",
          "ticks": 13566,
          "time": 157.74418604651163,
          "velocity": 0.23622047244094488
        },
        {
          "duration": 0.3604651162790731,
          "durationTicks": 31,
          "midi": 60,
          "name": "C4",
          "ticks": 13566,
          "time": 157.74418604651163,
          "velocity": 0.33858267716535434
        },
        {
          "duration": 0.034883720930224626,
          "durationTicks": 3,
          "midi": 42,
          "name": "F#2",
          "ticks": 13567,
          "time": 157.75581395348837,
          "velocity": 0.2440944881889764
        },
        {
          "duration": 0.23255813953485927,
          "durationTicks": 20,
          "midi": 43,
          "name": "G2",
          "ticks": 13573,
          "time": 157.82558139534885,
          "velocity": 0.1968503937007874
        },
        {
          "duration": 0.034883720930224626,
          "durationTicks": 3,
          "midi": 42,
          "name": "F#2",
          "ticks": 13595,
          "time": 158.08139534883722,
          "velocity": 0.25984251968503935
        },
        {
          "duration": 0.05813953488373613,
          "durationTicks": 5,
          "midi": 43,
          "name": "G2",
          "ticks": 13601,
          "time": 158.15116279069767,
          "velocity": 0.1732283464566929
        },
        {
          "duration": 0.04651162790699459,
          "durationTicks": 4,
          "midi": 60,
          "name": "C4",
          "ticks": 13601,
          "time": 158.15116279069767,
          "velocity": 0.2125984251968504
        },
        {
          "duration": 0.48837209302325846,
          "durationTicks": 42,
          "midi": 62,
          "name": "D4",
          "ticks": 13607,
          "time": 158.22093023255815,
          "velocity": 0.3858267716535433
        },
        {
          "duration": 0.04651162790696617,
          "durationTicks": 4,
          "midi": 51,
          "name": "D#3",
          "ticks": 13609,
          "time": 158.24418604651163,
          "velocity": 0.2755905511811024
        },
        {
          "duration": 0.06976744186047767,
          "durationTicks": 6,
          "midi": 41,
          "name": "F2",
          "ticks": 13610,
          "time": 158.25581395348837,
          "velocity": 0.1968503937007874
        },
        {
          "duration": 0.05813953488370771,
          "durationTicks": 5,
          "midi": 50,
          "name": "D3",
          "ticks": 13616,
          "time": 158.32558139534885,
          "velocity": 0.10236220472440945
        },
        {
          "duration": 0.1046511627907023,
          "durationTicks": 9,
          "midi": 50,
          "name": "D3",
          "ticks": 13624,
          "time": 158.41860465116278,
          "velocity": 0.09448818897637795
        },
        {
          "duration": 0.05813953488373613,
          "durationTicks": 5,
          "midi": 44,
          "name": "G#2",
          "ticks": 13634,
          "time": 158.53488372093022,
          "velocity": 0.33070866141732286
        },
        {
          "duration": 0.03488372093025305,
          "durationTicks": 3,
          "midi": 52,
          "name": "E3",
          "ticks": 13635,
          "time": 158.54651162790697,
          "velocity": 0.25196850393700787
        },
        {
          "duration": 0.16279069767441,
          "durationTicks": 14,
          "midi": 57,
          "name": "A3",
          "ticks": 13637,
          "time": 158.56976744186048,
          "velocity": 0.13385826771653545
        },
        {
          "duration": 0.023255813953483084,
          "durationTicks": 2,
          "midi": 44,
          "name": "G#2",
          "ticks": 13640,
          "time": 158.6046511627907,
          "velocity": 0.2677165354330709
        },
        {
          "duration": 0.16279069767441,
          "durationTicks": 14,
          "midi": 45,
          "name": "A2",
          "ticks": 13648,
          "time": 158.69767441860466,
          "velocity": 0.2283464566929134
        },
        {
          "duration": 0.08139534883721922,
          "durationTicks": 7,
          "midi": 52,
          "name": "E3",
          "ticks": 13651,
          "time": 158.7325581395349,
          "velocity": 0.3228346456692913
        },
        {
          "duration": 0.0813953488371908,
          "durationTicks": 7,
          "midi": 52,
          "name": "E3",
          "ticks": 13660,
          "time": 158.8372093023256,
          "velocity": 0.1889763779527559
        },
        {
          "duration": 0.17441860465115155,
          "durationTicks": 15,
          "midi": 57,
          "name": "A3",
          "ticks": 13663,
          "time": 158.87209302325581,
          "velocity": 0.11023622047244094
        },
        {
          "duration": 0.0813953488371908,
          "durationTicks": 7,
          "midi": 45,
          "name": "A2",
          "ticks": 13672,
          "time": 158.97674418604652,
          "velocity": 0.31496062992125984
        },
        {
          "duration": 0.023255813953511506,
          "durationTicks": 2,
          "midi": 52,
          "name": "E3",
          "ticks": 13678,
          "time": 159.04651162790697,
          "velocity": 0.2283464566929134
        },
        {
          "duration": 0.034883720930224626,
          "durationTicks": 3,
          "midi": 53,
          "name": "F3",
          "ticks": 13680,
          "time": 159.06976744186048,
          "velocity": 0.13385826771653545
        },
        {
          "duration": 0.023255813953483084,
          "durationTicks": 2,
          "midi": 44,
          "name": "G#2",
          "ticks": 13682,
          "time": 159.09302325581396,
          "velocity": 0.23622047244094488
        },
        {
          "duration": 0.15116279069766847,
          "durationTicks": 13,
          "midi": 52,
          "name": "E3",
          "ticks": 13683,
          "time": 159.1046511627907,
          "velocity": 0.1732283464566929
        },
        {
          "duration": 0.023255813953483084,
          "durationTicks": 2,
          "midi": 44,
          "name": "G#2",
          "ticks": 13687,
          "time": 159.15116279069767,
          "velocity": 0.2283464566929134
        },
        {
          "duration": 0.09302325581396076,
          "durationTicks": 8,
          "midi": 45,
          "name": "A2",
          "ticks": 13710,
          "time": 159.41860465116278,
          "velocity": 0.16535433070866143
        },
        {
          "duration": 0.08139534883721922,
          "durationTicks": 7,
          "midi": 52,
          "name": "E3",
          "ticks": 13719,
          "time": 159.52325581395348,
          "velocity": 0.2204724409448819
        },
        {
          "duration": 0.06976744186047767,
          "durationTicks": 6,
          "midi": 45,
          "name": "A2",
          "ticks": 13722,
          "time": 159.5581395348837,
          "velocity": 0.1732283464566929
        },
        {
          "duration": 0.05813953488370771,
          "durationTicks": 5,
          "midi": 45,
          "name": "A2",
          "ticks": 13737,
          "time": 159.7325581395349,
          "velocity": 0.1732283464566929
        },
        {
          "duration": 0.33720930232559,
          "durationTicks": 29,
          "midi": 45,
          "name": "A2",
          "ticks": 13758,
          "time": 159.97674418604652,
          "velocity": 0.14173228346456693
        },
        {
          "duration": 0.05813953488370771,
          "durationTicks": 5,
          "midi": 52,
          "name": "E3",
          "ticks": 13777,
          "time": 160.19767441860466,
          "velocity": 0.10236220472440945
        },
        {
          "duration": 0.04651162790696617,
          "durationTicks": 4,
          "midi": 52,
          "name": "E3",
          "ticks": 13787,
          "time": 160.3139534883721,
          "velocity": 0.14960629921259844
        },
        {
          "duration": 0.1860465116278931,
          "durationTicks": 16,
          "midi": 45,
          "name": "A2",
          "ticks": 13792,
          "time": 160.37209302325581,
          "velocity": 0.11811023622047244
        },
        {
          "duration": 0.13953488372092693,
          "durationTicks": 12,
          "midi": 45,
          "name": "A2",
          "ticks": 13816,
          "time": 160.65116279069767,
          "velocity": 0.11023622047244094
        },
        {
          "duration": 0.1511627906976969,
          "durationTicks": 13,
          "midi": 65,
          "name": "F4",
          "ticks": 13828,
          "time": 160.7906976744186,
          "velocity": 0.2047244094488189
        },
        {
          "duration": 0.09302325581396076,
          "durationTicks": 8,
          "midi": 52,
          "name": "E3",
          "ticks": 13829,
          "time": 160.80232558139534,
          "velocity": 0.29133858267716534
        },
        {
          "duration": 0.034883720930224626,
          "durationTicks": 3,
          "midi": 44,
          "name": "G#2",
          "ticks": 13831,
          "time": 160.82558139534885,
          "velocity": 0.12598425196850394
        },
        {
          "duration": 0.20930232558137618,
          "durationTicks": 18,
          "midi": 64,
          "name": "E4",
          "ticks": 13841,
          "time": 160.9418604651163,
          "velocity": 0.1732283464566929
        },
        {
          "duration": 0.034883720930224626,
          "durationTicks": 3,
          "midi": 44,
          "name": "G#2",
          "ticks": 13856,
          "time": 161.11627906976744,
          "velocity": 0.1889763779527559
        },
        {
          "duration": 0.30232558139536536,
          "durationTicks": 26,
          "midi": 62,
          "name": "D4",
          "ticks": 13860,
          "time": 161.1627906976744,
          "velocity": 0.2440944881889764
        },
        {
          "duration": 0.023255813953483084,
          "durationTicks": 2,
          "midi": 51,
          "name": "D#3",
          "ticks": 13870,
          "time": 161.27906976744185,
          "velocity": 0.2440944881889764
        },
        {
          "duration": 0.08139534883721922,
          "durationTicks": 7,
          "midi": 52,
          "name": "E3",
          "ticks": 13872,
          "time": 161.30232558139534,
          "velocity": 0.2992125984251969
        },
        {
          "duration": 0.0813953488371908,
          "durationTicks": 7,
          "midi": 45,
          "name": "A2",
          "ticks": 13874,
          "time": 161.32558139534885,
          "velocity": 0.12598425196850394
        },
        {
          "duration": 0.06976744186047767,
          "durationTicks": 6,
          "midi": 52,
          "name": "E3",
          "ticks": 13882,
          "time": 161.41860465116278,
          "velocity": 0.15748031496062992
        },
        {
          "duration": 0.4767441860465169,
          "durationTicks": 41,
          "midi": 57,
          "name": "A3",
          "ticks": 13883,
          "time": 161.43023255813952,
          "velocity": 0.16535433070866143
        },
        {
          "duration": 0.06976744186044925,
          "durationTicks": 6,
          "midi": 42,
          "name": "F#2",
          "ticks": 13897,
          "time": 161.59302325581396,
          "velocity": 0.23622047244094488
        },
        {
          "duration": 0.04651162790696617,
          "durationTicks": 4,
          "midi": 51,
          "name": "D#3",
          "ticks": 13899,
          "time": 161.61627906976744,
          "velocity": 0.15748031496062992
        },
        {
          "duration": 0.034883720930224626,
          "durationTicks": 3,
          "midi": 60,
          "name": "C4",
          "ticks": 13899,
          "time": 161.61627906976744,
          "velocity": 0.09448818897637795
        },
        {
          "duration": 0.09302325581396076,
          "durationTicks": 8,
          "midi": 52,
          "name": "E3",
          "ticks": 13903,
          "time": 161.6627906976744,
          "velocity": 0.1889763779527559
        },
        {
          "duration": 0.03488372093025305,
          "durationTicks": 3,
          "midi": 52,
          "name": "E3",
          "ticks": 13926,
          "time": 161.93023255813952,
          "velocity": 0.1889763779527559
        },
        {
          "duration": 0.2093023255814046,
          "durationTicks": 18,
          "midi": 57,
          "name": "A3",
          "ticks": 13926,
          "time": 161.93023255813952,
          "velocity": 0.16535433070866143
        },
        {
          "duration": 0.023255813953483084,
          "durationTicks": 2,
          "midi": 51,
          "name": "D#3",
          "ticks": 13941,
          "time": 162.1046511627907,
          "velocity": 0.2440944881889764
        },
        {
          "duration": 0.034883720930224626,
          "durationTicks": 3,
          "midi": 44,
          "name": "G#2",
          "ticks": 13942,
          "time": 162.11627906976744,
          "velocity": 0.11023622047244094
        },
        {
          "duration": 0.08139534883721922,
          "durationTicks": 7,
          "midi": 52,
          "name": "E3",
          "ticks": 13943,
          "time": 162.12790697674419,
          "velocity": 0.28346456692913385
        },
        {
          "duration": 0.03488372093025305,
          "durationTicks": 3,
          "midi": 44,
          "name": "G#2",
          "ticks": 13969,
          "time": 162.43023255813952,
          "velocity": 0.25196850393700787
        },
        {
          "duration": 0.11627906976741542,
          "durationTicks": 10,
          "midi": 52,
          "name": "E3",
          "ticks": 13970,
          "time": 162.4418604651163,
          "velocity": 0.11811023622047244
        },
        {
          "duration": 0.0813953488371908,
          "durationTicks": 7,
          "midi": 52,
          "name": "E3",
          "ticks": 13983,
          "time": 162.59302325581396,
          "velocity": 0.25196850393700787
        },
        {
          "duration": 0.05813953488370771,
          "durationTicks": 5,
          "midi": 45,
          "name": "A2",
          "ticks": 13986,
          "time": 162.62790697674419,
          "velocity": 0.18110236220472442
        },
        {
          "duration": 0.034883720930224626,
          "durationTicks": 3,
          "midi": 45,
          "name": "A2",
          "ticks": 13992,
          "time": 162.69767441860466,
          "velocity": 0.15748031496062992
        },
        {
          "duration": 0.17441860465115155,
          "durationTicks": 15,
          "midi": 57,
          "name": "A3",
          "ticks": 13993,
          "time": 162.7093023255814,
          "velocity": 0.1889763779527559
        },
        {
          "duration": 0.034883720930224626,
          "durationTicks": 3,
          "midi": 42,
          "name": "F#2",
          "ticks": 14008,
          "time": 162.88372093023256,
          "velocity": 0.25984251968503935
        },
        {
          "duration": 0.7441860465116292,
          "durationTicks": 64,
          "midi": 60,
          "name": "C4",
          "ticks": 14008,
          "time": 162.88372093023256,
          "velocity": 0.2204724409448819
        },
        {
          "duration": 0.04651162790699459,
          "durationTicks": 4,
          "midi": 57,
          "name": "A3",
          "ticks": 14022,
          "time": 163.04651162790697,
          "velocity": 0.13385826771653545
        },
        {
          "duration": 0.034883720930224626,
          "durationTicks": 3,
          "midi": 45,
          "name": "A2",
          "ticks": 14037,
          "time": 163.22093023255815,
          "velocity": 0.11811023622047244
        },
        {
          "duration": 0.11627906976744384,
          "durationTicks": 10,
          "midi": 52,
          "name": "E3",
          "ticks": 14048,
          "time": 163.34883720930233,
          "velocity": 0.2755905511811024
        },
        {
          "duration": 0.46511627906974695,
          "durationTicks": 40,
          "midi": 84,
          "name": "C6",
          "ticks": 14078,
          "time": 163.69767441860466,
          "velocity": 0.14173228346456693
        },
        {
          "duration": 0.44186046511626387,
          "durationTicks": 38,
          "midi": 57,
          "name": "A3",
          "ticks": 14079,
          "time": 163.7093023255814,
          "velocity": 0.14173228346456693
        },
        {
          "duration": 0.30232558139533694,
          "durationTicks": 26,
          "midi": 77,
          "name": "F5",
          "ticks": 14079,
          "time": 163.7093023255814,
          "velocity": 0.11811023622047244
        },
        {
          "duration": 0.19767441860463464,
          "durationTicks": 17,
          "midi": 65,
          "name": "F4",
          "ticks": 14080,
          "time": 163.72093023255815,
          "velocity": 0.10236220472440945
        },
        {
          "duration": 0.023255813953483084,
          "durationTicks": 2,
          "midi": 46,
          "name": "A#2",
          "ticks": 14081,
          "time": 163.7325581395349,
          "velocity": 0.25196850393700787
        },
        {
          "duration": 0.023255813953483084,
          "durationTicks": 2,
          "midi": 44,
          "name": "G#2",
          "ticks": 14083,
          "time": 163.75581395348837,
          "velocity": 0.31496062992125984
        },
        {
          "duration": 0.04651162790696617,
          "durationTicks": 4,
          "midi": 52,
          "name": "E3",
          "ticks": 14083,
          "time": 163.75581395348837,
          "velocity": 0.07086614173228346
        },
        {
          "duration": 0.023255813953511506,
          "durationTicks": 2,
          "midi": 44,
          "name": "G#2",
          "ticks": 14087,
          "time": 163.80232558139534,
          "velocity": 0.2755905511811024
        },
        {
          "duration": 0.0813953488371908,
          "durationTicks": 7,
          "midi": 52,
          "name": "E3",
          "ticks": 14090,
          "time": 163.8372093023256,
          "velocity": 0.2677165354330709
        },
        {
          "duration": 0.023255813953483084,
          "durationTicks": 2,
          "midi": 44,
          "name": "G#2",
          "ticks": 14092,
          "time": 163.86046511627907,
          "velocity": 0.25984251968503935
        },
        {
          "duration": 0.19767441860463464,
          "durationTicks": 17,
          "midi": 45,
          "name": "A2",
          "ticks": 14099,
          "time": 163.9418604651163,
          "velocity": 0.2440944881889764
        },
        {
          "duration": 0.09302325581396076,
          "durationTicks": 8,
          "midi": 60,
          "name": "C4",
          "ticks": 14117,
          "time": 164.15116279069767,
          "velocity": 0.11023622047244094
        },
        {
          "duration": 0.023255813953483084,
          "durationTicks": 2,
          "midi": 44,
          "name": "G#2",
          "ticks": 14118,
          "time": 164.1627906976744,
          "velocity": 0.25984251968503935
        },
        {
          "duration": 0.06976744186047767,
          "durationTicks": 6,
          "midi": 57,
          "name": "A3",
          "ticks": 14119,
          "time": 164.17441860465115,
          "velocity": 0.09448818897637795
        },
        {
          "duration": 0.09302325581393234,
          "durationTicks": 8,
          "midi": 52,
          "name": "E3",
          "ticks": 14121,
          "time": 164.19767441860466,
          "velocity": 0.1968503937007874
        },
        {
          "duration": 0.24418604651162923,
          "durationTicks": 21,
          "midi": 45,
          "name": "A2",
          "ticks": 14130,
          "time": 164.30232558139534,
          "velocity": 0.2283464566929134
        },
        {
          "duration": 0.1046511627907023,
          "durationTicks": 9,
          "midi": 45,
          "name": "A2",
          "ticks": 14152,
          "time": 164.5581395348837,
          "velocity": 0.2047244094488189
        },
        {
          "duration": 0.05813953488373613,
          "durationTicks": 5,
          "midi": 52,
          "name": "E3",
          "ticks": 14161,
          "time": 164.6627906976744,
          "velocity": 0.16535433070866143
        },
        {
          "duration": 0.03488372093025305,
          "durationTicks": 3,
          "midi": 45,
          "name": "A2",
          "ticks": 14162,
          "time": 164.67441860465115,
          "velocity": 0.1968503937007874
        },
        {
          "duration": 0.17441860465115155,
          "durationTicks": 15,
          "midi": 45,
          "name": "A2",
          "ticks": 14166,
          "time": 164.72093023255815,
          "velocity": 0.1889763779527559
        },
        {
          "duration": 0.20930232558137618,
          "durationTicks": 18,
          "midi": 57,
          "name": "A3",
          "ticks": 14186,
          "time": 164.95348837209303,
          "velocity": 0.15748031496062992
        },
        {
          "duration": 0.034883720930224626,
          "durationTicks": 3,
          "midi": 44,
          "name": "G#2",
          "ticks": 14187,
          "time": 164.96511627906978,
          "velocity": 0.30708661417322836
        },
        {
          "duration": 0.023255813953483084,
          "durationTicks": 2,
          "midi": 44,
          "name": "G#2",
          "ticks": 14192,
          "time": 165.02325581395348,
          "velocity": 0.25984251968503935
        },
        {
          "duration": 0.023255813953483084,
          "durationTicks": 2,
          "midi": 44,
          "name": "G#2",
          "ticks": 14201,
          "time": 165.12790697674419,
          "velocity": 0.2677165354330709
        },
        {
          "duration": 0.08139534883721922,
          "durationTicks": 7,
          "midi": 52,
          "name": "E3",
          "ticks": 14202,
          "time": 165.13953488372093,
          "velocity": 0.28346456692913385
        },
        {
          "duration": 0.1046511627907023,
          "durationTicks": 9,
          "midi": 57,
          "name": "A3",
          "ticks": 14205,
          "time": 165.17441860465115,
          "velocity": 0.09448818897637795
        },
        {
          "duration": 0.034883720930224626,
          "durationTicks": 3,
          "midi": 45,
          "name": "A2",
          "ticks": 14209,
          "time": 165.22093023255815,
          "velocity": 0.2125984251968504
        },
        {
          "duration": 0.06976744186047767,
          "durationTicks": 6,
          "midi": 52,
          "name": "E3",
          "ticks": 14212,
          "time": 165.25581395348837,
          "velocity": 0.14173228346456693
        },
        {
          "duration": 0.04651162790696617,
          "durationTicks": 4,
          "midi": 45,
          "name": "A2",
          "ticks": 14222,
          "time": 165.37209302325581,
          "velocity": 0.1968503937007874
        },
        {
          "duration": 0.023255813953511506,
          "durationTicks": 2,
          "midi": 51,
          "name": "D#3",
          "ticks": 14226,
          "time": 165.41860465116278,
          "velocity": 0.28346456692913385
        },
        {
          "duration": 0.034883720930224626,
          "durationTicks": 3,
          "midi": 44,
          "name": "G#2",
          "ticks": 14230,
          "time": 165.46511627906978,
          "velocity": 0.23622047244094488
        },
        {
          "duration": 0.06976744186044925,
          "durationTicks": 6,
          "midi": 52,
          "name": "E3",
          "ticks": 14232,
          "time": 165.48837209302326,
          "velocity": 0.14960629921259844
        },
        {
          "duration": 0.5465116279069662,
          "durationTicks": 47,
          "midi": 67,
          "name": "G4",
          "ticks": 14242,
          "time": 165.6046511627907,
          "velocity": 0.1968503937007874
        },
        {
          "duration": 0.04651162790696617,
          "durationTicks": 4,
          "midi": 45,
          "name": "A2",
          "ticks": 14250,
          "time": 165.69767441860466,
          "velocity": 0.16535433070866143
        },
        {
          "duration": 0.4651162790697754,
          "durationTicks": 40,
          "midi": 57,
          "name": "A3",
          "ticks": 14253,
          "time": 165.7325581395349,
          "velocity": 0.1968503937007874
        },
        {
          "duration": 0.04651162790696617,
          "durationTicks": 4,
          "midi": 52,
          "name": "E3",
          "ticks": 14260,
          "time": 165.8139534883721,
          "velocity": 0.07086614173228346
        },
        {
          "duration": 0.19767441860466306,
          "durationTicks": 17,
          "midi": 45,
          "name": "A2",
          "ticks": 14269,
          "time": 165.91860465116278,
          "velocity": 0.1732283464566929
        },
        {
          "duration": 0.05813953488373613,
          "durationTicks": 5,
          "midi": 52,
          "name": "E3",
          "ticks": 14270,
          "time": 165.93023255813952,
          "velocity": 0.11023622047244094
        },
        {
          "duration": 0.034883720930224626,
          "durationTicks": 3,
          "midi": 52,
          "name": "E3",
          "ticks": 14283,
          "time": 166.08139534883722,
          "velocity": 0.08661417322834646
        },
        {
          "duration": 0.05813953488370771,
          "durationTicks": 5,
          "midi": 45,
          "name": "A2",
          "ticks": 14287,
          "time": 166.12790697674419,
          "velocity": 0.14173228346456693
        },
        {
          "duration": 0.05813953488370771,
          "durationTicks": 5,
          "midi": 52,
          "name": "E3",
          "ticks": 14293,
          "time": 166.19767441860466,
          "velocity": 0.14173228346456693
        },
        {
          "duration": 0.17441860465115155,
          "durationTicks": 15,
          "midi": 67,
          "name": "G4",
          "ticks": 14293,
          "time": 166.19767441860466,
          "velocity": 0.1968503937007874
        },
        {
          "duration": 0.08139534883721922,
          "durationTicks": 7,
          "midi": 52,
          "name": "E3",
          "ticks": 14302,
          "time": 166.30232558139534,
          "velocity": 0.08661417322834646
        },
        {
          "duration": 0.034883720930224626,
          "durationTicks": 3,
          "midi": 44,
          "name": "G#2",
          "ticks": 14303,
          "time": 166.3139534883721,
          "velocity": 0.2125984251968504
        },
        {
          "duration": 0.034883720930224626,
          "durationTicks": 3,
          "midi": 68,
          "name": "G#4",
          "ticks": 14308,
          "time": 166.37209302325581,
          "velocity": 0.12598425196850394
        },
        {
          "duration": 0.1511627906976969,
          "durationTicks": 13,
          "midi": 45,
          "name": "A2",
          "ticks": 14313,
          "time": 166.43023255813952,
          "velocity": 0.1889763779527559
        },
        {
          "duration": 0.09302325581396076,
          "durationTicks": 8,
          "midi": 52,
          "name": "E3",
          "ticks": 14313,
          "time": 166.43023255813952,
          "velocity": 0.25984251968503935
        },
        {
          "duration": 0.05813953488373613,
          "durationTicks": 5,
          "midi": 52,
          "name": "E3",
          "ticks": 14324,
          "time": 166.5581395348837,
          "velocity": 0.10236220472440945
        },
        {
          "duration": 0.05813953488373613,
          "durationTicks": 5,
          "midi": 45,
          "name": "A2",
          "ticks": 14331,
          "time": 166.63953488372093,
          "velocity": 0.14960629921259844
        },
        {
          "duration": 0.04651162790699459,
          "durationTicks": 4,
          "midi": 52,
          "name": "E3",
          "ticks": 14345,
          "time": 166.80232558139534,
          "velocity": 0.07086614173228346
        },
        {
          "duration": 0.04651162790699459,
          "durationTicks": 4,
          "midi": 45,
          "name": "A2",
          "ticks": 14356,
          "time": 166.93023255813952,
          "velocity": 0.13385826771653545
        },
        {
          "duration": 0.034883720930224626,
          "durationTicks": 3,
          "midi": 52,
          "name": "E3",
          "ticks": 14371,
          "time": 167.1046511627907,
          "velocity": 0.07086614173228346
        },
        {
          "duration": 0.06976744186044925,
          "durationTicks": 6,
          "midi": 52,
          "name": "E3",
          "ticks": 14380,
          "time": 167.2093023255814,
          "velocity": 0.12598425196850394
        },
        {
          "duration": 0.03488372093025305,
          "durationTicks": 3,
          "midi": 44,
          "name": "G#2",
          "ticks": 14409,
          "time": 167.54651162790697,
          "velocity": 0.2283464566929134
        },
        {
          "duration": 0.19767441860463464,
          "durationTicks": 17,
          "midi": 45,
          "name": "A2",
          "ticks": 14423,
          "time": 167.7093023255814,
          "velocity": 0.14960629921259844
        },
        {
          "duration": 0.09302325581393234,
          "durationTicks": 8,
          "midi": 52,
          "name": "E3",
          "ticks": 14423,
          "time": 167.7093023255814,
          "velocity": 0.2755905511811024
        },
        {
          "duration": 0.16279069767441,
          "durationTicks": 14,
          "midi": 52,
          "name": "E3",
          "ticks": 14434,
          "time": 167.8372093023256,
          "velocity": 0.11811023622047244
        },
        {
          "duration": 0.05813953488370771,
          "durationTicks": 5,
          "midi": 45,
          "name": "A2",
          "ticks": 14443,
          "time": 167.9418604651163,
          "velocity": 0.12598425196850394
        },
        {
          "duration": 0.03488372093025305,
          "durationTicks": 3,
          "midi": 44,
          "name": "G#2",
          "ticks": 14452,
          "time": 168.04651162790697,
          "velocity": 0.15748031496062992
        },
        {
          "duration": 0.05813953488370771,
          "durationTicks": 5,
          "midi": 52,
          "name": "E3",
          "ticks": 14455,
          "time": 168.08139534883722,
          "velocity": 0.07874015748031496
        },
        {
          "duration": 0.05813953488373613,
          "durationTicks": 5,
          "midi": 45,
          "name": "A2",
          "ticks": 14473,
          "time": 168.2906976744186,
          "velocity": 0.12598425196850394
        },
        {
          "duration": 0.034883720930224626,
          "durationTicks": 3,
          "midi": 45,
          "name": "A2",
          "ticks": 14479,
          "time": 168.36046511627907,
          "velocity": 0.08661417322834646
        },
        {
          "duration": 0.04651162790699459,
          "durationTicks": 4,
          "midi": 52,
          "name": "E3",
          "ticks": 14485,
          "time": 168.43023255813952,
          "velocity": 0.09448818897637795
        },
        {
          "duration": 0.034883720930224626,
          "durationTicks": 3,
          "midi": 44,
          "name": "G#2",
          "ticks": 14492,
          "time": 168.51162790697674,
          "velocity": 0.09448818897637795
        },
        {
          "duration": 0.05813953488373613,
          "durationTicks": 5,
          "midi": 52,
          "name": "E3",
          "ticks": 14492,
          "time": 168.51162790697674,
          "velocity": 0.11023622047244094
        },
        {
          "duration": 0.034883720930224626,
          "durationTicks": 3,
          "midi": 52,
          "name": "E3",
          "ticks": 14514,
          "time": 168.7674418604651,
          "velocity": 0.15748031496062992
        },
        {
          "duration": 0.034883720930224626,
          "durationTicks": 3,
          "midi": 44,
          "name": "G#2",
          "ticks": 14520,
          "time": 168.8372093023256,
          "velocity": 0.15748031496062992
        },
        {
          "duration": 0.08139534883721922,
          "durationTicks": 7,
          "midi": 52,
          "name": "E3",
          "ticks": 14533,
          "time": 168.98837209302326,
          "velocity": 0.25196850393700787
        },
        {
          "duration": 0.034883720930224626,
          "durationTicks": 3,
          "midi": 45,
          "name": "A2",
          "ticks": 14547,
          "time": 169.15116279069767,
          "velocity": 0.07086614173228346
        },
        {
          "duration": 0.04651162790696617,
          "durationTicks": 4,
          "midi": 45,
          "name": "A2",
          "ticks": 14555,
          "time": 169.24418604651163,
          "velocity": 0.14173228346456693
        },
        {
          "duration": 0.04651162790696617,
          "durationTicks": 4,
          "midi": 52,
          "name": "E3",
          "ticks": 14574,
          "time": 169.46511627906978,
          "velocity": 0.07874015748031496
        },
        {
          "duration": 0.06976744186047767,
          "durationTicks": 6,
          "midi": 52,
          "name": "E3",
          "ticks": 14641,
          "time": 170.24418604651163,
          "velocity": 0.16535433070866143
        },
        {
          "duration": 0.034883720930224626,
          "durationTicks": 3,
          "midi": 52,
          "name": "E3",
          "ticks": 14739,
          "time": 171.38372093023256,
          "velocity": 0.09448818897637795
        },
        {
          "duration": 0.17441860465117998,
          "durationTicks": 15,
          "midi": 62,
          "name": "D4",
          "ticks": 14740,
          "time": 171.3953488372093,
          "velocity": 0.14173228346456693
        },
        {
          "duration": 0.05813953488373613,
          "durationTicks": 5,
          "midi": 52,
          "name": "E3",
          "ticks": 14751,
          "time": 171.52325581395348,
          "velocity": 0.09448818897637795
        },
        {
          "duration": 0.03488372093025305,
          "durationTicks": 3,
          "midi": 52,
          "name": "E3",
          "ticks": 14765,
          "time": 171.6860465116279,
          "velocity": 0.09448818897637795
        },
        {
          "duration": 0.1511627906976969,
          "durationTicks": 13,
          "midi": 60,
          "name": "C4",
          "ticks": 14765,
          "time": 171.6860465116279,
          "velocity": 0.11811023622047244
        },
        {
          "duration": 0.04651162790699459,
          "durationTicks": 4,
          "midi": 59,
          "name": "B3",
          "ticks": 14783,
          "time": 171.8953488372093,
          "velocity": 0.12598425196850394
        },
        {
          "duration": 0.05813953488370771,
          "durationTicks": 5,
          "midi": 59,
          "name": "B3",
          "ticks": 14788,
          "time": 171.95348837209303,
          "velocity": 0.11023622047244094
        },
        {
          "duration": 0.04651162790699459,
          "durationTicks": 4,
          "midi": 59,
          "name": "B3",
          "ticks": 14795,
          "time": 172.03488372093022,
          "velocity": 0.10236220472440945
        },
        {
          "duration": 0.17441860465117998,
          "durationTicks": 15,
          "midi": 60,
          "name": "C4",
          "ticks": 14807,
          "time": 172.17441860465115,
          "velocity": 0.13385826771653545
        },
        {
          "duration": 0.15116279069766847,
          "durationTicks": 13,
          "midi": 62,
          "name": "D4",
          "ticks": 14826,
          "time": 172.3953488372093,
          "velocity": 0.11023622047244094
        },
        {
          "duration": 0.13953488372092693,
          "durationTicks": 12,
          "midi": 60,
          "name": "C4",
          "ticks": 14954,
          "time": 173.88372093023256,
          "velocity": 0.09448818897637795
        }
      ],
      "endOfTrackTicks": 14966
    }
  ]
}