{
  "header": {
    "keySignatures": [],
    "meta": [],
    "name": "",
    "ppq": 43,
    "tempos": [
      {
        "bpm": 120,
        "ticks": 0
      }
    ],
    "timeSignatures": []
  },
  "tracks": [
    {
      "channel": 0,
      "controlChanges": {},
      "pitchBends": [],
      "instrument": {
        "family": "piano",
        "number": 0,
        "name": "acoustic grand piano"
      },
      "name": "",
      "notes": [
        {
          "duration": 0.046511627906976744,
          "durationTicks": 4,
          "midi": 54,
          "name": "F#3",
          "ticks": 0,
          "time": 0,
          "velocity": 0.14960629921259844
        },
        {
          "duration": 1.755813953488372,
          "durationTicks": 151,
          "midi": 66,
          "name": "F#4",
          "ticks": 3,
          "time": 0.03488372093023256,
          "velocity": 0.1968503937007874
        },
        {
          "duration": 0.0813953488372093,
          "durationTicks": 7,
          "midi": 54,
          "name": "F#3",
          "ticks": 6,
          "time": 0.06976744186046512,
          "velocity": 0.08661417322834646
        },
        {
          "duration": 0.313953488372093,
          "durationTicks": 27,
          "midi": 61,
          "name": "C#4",
          "ticks": 16,
          "time": 0.18604651162790697,
          "velocity": 0.11023622047244094
        },
        {
          "duration": 1.1162790697674418,
          "durationTicks": 96,
          "midi": 65,
          "name": "F4",
          "ticks": 164,
          "time": 1.9069767441860466,
          "velocity": 0.2125984251968504
        },
        {
          "duration": 0.4186046511627908,
          "durationTicks": 36,
          "midi": 49,
          "name": "C#3",
          "ticks": 165,
          "time": 1.9186046511627908,
          "velocity": 0.07086614173228346
        },
        {
          "duration": 0.581395348837209,
          "durationTicks": 50,
          "midi": 63,
          "name": "D#4",
          "ticks": 324,
          "time": 3.7674418604651163,
          "velocity": 0.14173228346456693
        },
        {
          "duration": 0.4767441860465116,
          "durationTicks": 41,
          "midi": 63,
          "name": "D#4",
          "ticks": 402,
          "time": 4.674418604651163,
          "velocity": 0.09448818897637795
        },
        {
          "duration": 0.03488372093023262,
          "durationTicks": 3,
          "midi": 55,
          "name": "G3",
          "ticks": 484,
          "time": 5.627906976744186,
          "velocity": 0.14960629921259844
        },
        {
          "duration": 0.06976744186046524,
          "durationTicks": 6,
          "midi": 54,
          "name": "F#3",
          "ticks": 487,
          "time": 5.662790697674419,
          "velocity": 0.15748031496062992
        },
        {
          "duration": 0.023255813953488413,
          "durationTicks": 2,
          "midi": 54,
          "name": "F#3",
          "ticks": 523,
          "time": 6.0813953488372094,
          "velocity": 0.23622047244094488
        },
        {
          "duration": 0.10465116279069786,
          "durationTicks": 9,
          "midi": 63,
          "name": "D#4",
          "ticks": 523,
          "time": 6.0813953488372094,
          "velocity": 0.11023622047244094
        },
        {
          "duration": 0.41860465116279055,
          "durationTicks": 36,
          "midi": 47,
          "name": "B2",
          "ticks": 524,
          "time": 6.093023255813954,
          "velocity": 0.29133858267716534
        },
        {
          "duration": 0.25581395348837166,
          "durationTicks": 22,
          "midi": 54,
          "name": "F#3",
          "ticks": 526,
          "time": 6.116279069767442,
          "velocity": 0.30708661417322836
        },
        {
          "duration": 0.26744186046511587,
          "durationTicks": 23,
          "midi": 54,
          "name": "F#3",
          "ticks": 572,
          "time": 6.651162790697675,
          "velocity": 0.28346456692913385
        },
        {
          "duration": 0.03488372093023262,
          "durationTicks": 3,
          "midi": 59,
          "name": "B3",
          "ticks": 573,
          "time": 6.662790697674419,
          "velocity": 0.08661417322834646
        },
        {
          "duration": 0.22093023255813904,
          "durationTicks": 19,
          "midi": 47,
          "name": "B2",
          "ticks": 574,
          "time": 6.674418604651163,
          "velocity": 0.23622047244094488
        },
        {
          "duration": 0.26744186046511675,
          "durationTicks": 23,
          "midi": 47,
          "name": "B2",
          "ticks": 596,
          "time": 6.930232558139535,
          "velocity": 0.2125984251968504
        },
        {
          "duration": 0.20930232558139572,
          "durationTicks": 18,
          "midi": 54,
          "name": "F#3",
          "ticks": 598,
          "time": 6.953488372093023,
          "velocity": 0.18110236220472442
        },
        {
          "duration": 0.09302325581395277,
          "durationTicks": 8,
          "midi": 66,
          "name": "F#4",
          "ticks": 620,
          "time": 7.209302325581396,
          "velocity": 0.14960629921259844
        },
        {
          "duration": 0.19767441860465063,
          "durationTicks": 17,
          "midi": 54,
          "name": "F#3",
          "ticks": 621,
          "time": 7.22093023255814,
          "velocity": 0.3228346456692913
        },
        {
          "duration": 0.23255813953488413,
          "durationTicks": 20,
          "midi": 61,
          "name": "C#4",
          "ticks": 639,
          "time": 7.430232558139535,
          "velocity": 0.2047244094488189
        },
        {
          "duration": 0.03488372093023262,
          "durationTicks": 3,
          "midi": 68,
          "name": "G#4",
          "ticks": 639,
          "time": 7.430232558139535,
          "velocity": 0.07874015748031496
        },
        {
          "duration": 0.06976744186046524,
          "durationTicks": 6,
          "midi": 44,
          "name": "G#2",
          "ticks": 646,
          "time": 7.511627906976744,
          "velocity": 0.12598425196850394
        },
        {
          "duration": 0.04651162790697683,
          "durationTicks": 4,
          "midi": 30,
          "name": "F#1",
          "ticks": 659,
          "time": 7.662790697674419,
          "velocity": 0.33070866141732286
        },
        {
          "duration": 0.20930232558139483,
          "durationTicks": 18,
          "midi": 66,
          "name": "F#4",
          "ticks": 661,
          "time": 7.686046511627907,
          "velocity": 0.2440944881889764
        },
        {
          "duration": 0.5697674418604644,
          "durationTicks": 49,
          "midi": 54,
          "name": "F#3",
          "ticks": 662,
          "time": 7.6976744186046515,
          "velocity": 0.41732283464566927
        },
        {
          "duration": 0.03488372093023262,
          "durationTicks": 3,
          "midi": 61,
          "name": "C#4",
          "ticks": 662,
          "time": 7.6976744186046515,
          "velocity": 0.1968503937007874
        },
        {
          "duration": 0.6744186046511622,
          "durationTicks": 58,
          "midi": 73,
          "name": "C#5",
          "ticks": 665,
          "time": 7.732558139534884,
          "velocity": 0.18110236220472442
        },
        {
          "duration": 1.0697674418604661,
          "durationTicks": 92,
          "midi": 61,
          "name": "C#4",
          "ticks": 667,
          "time": 7.755813953488372,
          "velocity": 0.3464566929133858
        },
        {
          "duration": 0.03488372093023262,
          "durationTicks": 3,
          "midi": 42,
          "name": "F#2",
          "ticks": 671,
          "time": 7.8023255813953485,
          "velocity": 0.16535433070866143
        },
        {
          "duration": 0.7209302325581399,
          "durationTicks": 62,
          "midi": 42,
          "name": "F#2",
          "ticks": 681,
          "time": 7.9186046511627906,
          "velocity": 0.1889763779527559
        },
        {
          "duration": 0.19767441860465063,
          "durationTicks": 17,
          "midi": 66,
          "name": "F#4",
          "ticks": 718,
          "time": 8.348837209302326,
          "velocity": 0.09448818897637795
        },
        {
          "duration": 0.39534883720930125,
          "durationTicks": 34,
          "midi": 42,
          "name": "F#2",
          "ticks": 747,
          "time": 8.686046511627907,
          "velocity": 0.2047244094488189
        },
        {
          "duration": 0.6744186046511622,
          "durationTicks": 58,
          "midi": 61,
          "name": "C#4",
          "ticks": 769,
          "time": 8.94186046511628,
          "velocity": 0.2125984251968504
        },
        {
          "duration": 0.05813953488372192,
          "durationTicks": 5,
          "midi": 54,
          "name": "F#3",
          "ticks": 781,
          "time": 9.081395348837209,
          "velocity": 0.11811023622047244
        },
        {
          "duration": 0.1627906976744189,
          "durationTicks": 14,
          "midi": 54,
          "name": "F#3",
          "ticks": 787,
          "time": 9.151162790697674,
          "velocity": 0.29133858267716534
        },
        {
          "duration": 0.03488372093023351,
          "durationTicks": 3,
          "midi": 42,
          "name": "F#2",
          "ticks": 791,
          "time": 9.19767441860465,
          "velocity": 0.1889763779527559
        },
        {
          "duration": 0.03488372093023351,
          "durationTicks": 3,
          "midi": 42,
          "name": "F#2",
          "ticks": 795,
          "time": 9.244186046511627,
          "velocity": 0.11023622047244094
        },
        {
          "duration": 0.03488372093023351,
          "durationTicks": 3,
          "midi": 44,
          "name": "G#2",
          "ticks": 820,
          "time": 9.534883720930232,
          "velocity": 0.18110236220472442
        },
        {
          "duration": 0.895348837209303,
          "durationTicks": 77,
          "midi": 56,
          "name": "G#3",
          "ticks": 825,
          "time": 9.593023255813954,
          "velocity": 0.28346456692913385
        },
        {
          "duration": 0.7558139534883725,
          "durationTicks": 65,
          "midi": 49,
          "name": "C#3",
          "ticks": 828,
          "time": 9.627906976744185,
          "velocity": 0.2047244094488189
        },
        {
          "duration": 1.4534883720930232,
          "durationTicks": 125,
          "midi": 61,
          "name": "C#4",
          "ticks": 828,
          "time": 9.627906976744185,
          "velocity": 0.28346456692913385
        },
        {
          "duration": 0.3720930232558146,
          "durationTicks": 32,
          "midi": 56,
          "name": "G#3",
          "ticks": 903,
          "time": 10.5,
          "velocity": 0.2204724409448819
        },
        {
          "duration": 0.04651162790697683,
          "durationTicks": 4,
          "midi": 49,
          "name": "C#3",
          "ticks": 905,
          "time": 10.523255813953488,
          "velocity": 0.16535433070866143
        },
        {
          "duration": 0.29069767441860606,
          "durationTicks": 25,
          "midi": 49,
          "name": "C#3",
          "ticks": 910,
          "time": 10.581395348837209,
          "velocity": 0.18110236220472442
        },
        {
          "duration": 0.1627906976744189,
          "durationTicks": 14,
          "midi": 56,
          "name": "G#3",
          "ticks": 940,
          "time": 10.930232558139535,
          "velocity": 0.18110236220472442
        },
        {
          "duration": 0.08139534883720856,
          "durationTicks": 7,
          "midi": 49,
          "name": "C#3",
          "ticks": 943,
          "time": 10.965116279069768,
          "velocity": 0.07086614173228346
        },
        {
          "duration": 0.03488372093023173,
          "durationTicks": 3,
          "midi": 49,
          "name": "C#3",
          "ticks": 958,
          "time": 11.13953488372093,
          "velocity": 0.07086614173228346
        },
        {
          "duration": 0.04651162790697683,
          "durationTicks": 4,
          "midi": 53,
          "name": "F3",
          "ticks": 975,
          "time": 11.337209302325581,
          "velocity": 0.36220472440944884
        },
        {
          "duration": 0.5348837209302317,
          "durationTicks": 46,
          "midi": 59,
          "name": "B3",
          "ticks": 976,
          "time": 11.348837209302326,
          "velocity": 0.18110236220472442
        },
        {
          "duration": 1.3139534883720927,
          "durationTicks": 113,
          "midi": 66,
          "name": "F#4",
          "ticks": 976,
          "time": 11.348837209302326,
          "velocity": 0.2204724409448819
        },
        {
          "duration": 0.4767441860465116,
          "durationTicks": 41,
          "midi": 54,
          "name": "F#3",
          "ticks": 979,
          "time": 11.383720930232558,
          "velocity": 0.31496062992125984
        },
        {
          "duration": 0.023255813953488413,
          "durationTicks": 2,
          "midi": 47,
          "name": "B2",
          "ticks": 980,
          "time": 11.395348837209303,
          "velocity": 0.25196850393700787
        },
        {
          "duration": 0.779069767441861,
          "durationTicks": 67,
          "midi": 47,
          "name": "B2",
          "ticks": 983,
          "time": 11.430232558139535,
          "velocity": 0.25984251968503935
        },
        {
          "duration": 0.3023255813953494,
          "durationTicks": 26,
          "midi": 63,
          "name": "D#4",
          "ticks": 1010,
          "time": 11.744186046511627,
          "velocity": 0.07086614173228346
        },
        {
          "duration": 0.11627906976744207,
          "durationTicks": 10,
          "midi": 54,
          "name": "F#3",
          "ticks": 1021,
          "time": 11.872093023255815,
          "velocity": 0.07874015748031496
        },
        {
          "duration": 0.023255813953488413,
          "durationTicks": 2,
          "midi": 53,
          "name": "F3",
          "ticks": 1051,
          "time": 12.220930232558139,
          "velocity": 0.25984251968503935
        },
        {
          "duration": 0.023255813953488413,
          "durationTicks": 2,
          "midi": 54,
          "name": "F#3",
          "ticks": 1053,
          "time": 12.244186046511627,
          "velocity": 0.2283464566929134
        },
        {
          "duration": 0.1627906976744189,
          "durationTicks": 14,
          "midi": 47,
          "name": "B2",
          "ticks": 1056,
          "time": 12.279069767441861,
          "velocity": 0.2204724409448819
        },
        {
          "duration": 0.1860465116279073,
          "durationTicks": 16,
          "midi": 47,
          "name": "B2",
          "ticks": 1071,
          "time": 12.453488372093023,
          "velocity": 0.1889763779527559
        },
        {
          "duration": 1.1976744186046524,
          "durationTicks": 103,
          "midi": 47,
          "name": "B2",
          "ticks": 1088,
          "time": 12.651162790697674,
          "velocity": 0.1732283464566929
        },
        {
          "duration": 0.04651162790697683,
          "durationTicks": 4,
          "midi": 53,
          "name": "F3",
          "ticks": 1189,
          "time": 13.825581395348838,
          "velocity": 0.16535433070866143
        },
        {
          "duration": 0.22093023255813904,
          "durationTicks": 19,
          "midi": 61,
          "name": "C#4",
          "ticks": 1189,
          "time": 13.825581395348838,
          "velocity": 0.16535433070866143
        },
        {
          "duration": 0.023255813953488413,
          "durationTicks": 2,
          "midi": 45,
          "name": "A2",
          "ticks": 1207,
          "time": 14.034883720930232,
          "velocity": 0.2283464566929134
        },
        {
          "duration": 0.023255813953488413,
          "durationTicks": 2,
          "midi": 54,
          "name": "F#3",
          "ticks": 1208,
          "time": 14.046511627906977,
          "velocity": 0.23622047244094488
        },
        {
          "duration": 0.20930232558139572,
          "durationTicks": 18,
          "midi": 61,
          "name": "C#4",
          "ticks": 1210,
          "time": 14.069767441860465,
          "velocity": 0.23622047244094488
        },
        {
          "duration": 0.4534883720930232,
          "durationTicks": 39,
          "midi": 54,
          "name": "F#3",
          "ticks": 1211,
          "time": 14.081395348837209,
          "velocity": 0.3228346456692913
        },
        {
          "duration": 0.22093023255813904,
          "durationTicks": 19,
          "midi": 47,
          "name": "B2",
          "ticks": 1212,
          "time": 14.093023255813954,
          "velocity": 0.25984251968503935
        },
        {
          "duration": 0.20930232558139572,
          "durationTicks": 18,
          "midi": 63,
          "name": "D#4",
          "ticks": 1231,
          "time": 14.313953488372093,
          "velocity": 0.07086614173228346
        },
        {
          "duration": 0.1627906976744189,
          "durationTicks": 14,
          "midi": 47,
          "name": "B2",
          "ticks": 1232,
          "time": 14.325581395348838,
          "velocity": 0.2047244094488189
        },
        {
          "duration": 0.15116279069767558,
          "durationTicks": 13,
          "midi": 59,
          "name": "B3",
          "ticks": 1248,
          "time": 14.511627906976743,
          "velocity": 0.14173228346456693
        },
        {
          "duration": 0.10465116279069697,
          "durationTicks": 9,
          "midi": 47,
          "name": "B2",
          "ticks": 1249,
          "time": 14.523255813953488,
          "velocity": 0.29133858267716534
        },
        {
          "duration": 0.058139534883720145,
          "durationTicks": 5,
          "midi": 54,
          "name": "F#3",
          "ticks": 1251,
          "time": 14.546511627906977,
          "velocity": 0.30708661417322836
        },
        {
          "duration": 0.1860465116279073,
          "durationTicks": 16,
          "midi": 63,
          "name": "D#4",
          "ticks": 1251,
          "time": 14.546511627906977,
          "velocity": 0.11811023622047244
        },
        {
          "duration": 0.04651162790697683,
          "durationTicks": 4,
          "midi": 54,
          "name": "F#3",
          "ticks": 1257,
          "time": 14.616279069767442,
          "velocity": 0.15748031496062992
        },
        {
          "duration": 0.08139534883720856,
          "durationTicks": 7,
          "midi": 54,
          "name": "F#3",
          "ticks": 1265,
          "time": 14.709302325581396,
          "velocity": 0.14960629921259844
        },
        {
          "duration": 0.03488372093023173,
          "durationTicks": 3,
          "midi": 42,
          "name": "F#2",
          "ticks": 1279,
          "time": 14.872093023255815,
          "velocity": 0.09448818897637795
        },
        {
          "duration": 0.03488372093023173,
          "durationTicks": 3,
          "midi": 61,
          "name": "C#4",
          "ticks": 1292,
          "time": 15.023255813953488,
          "velocity": 0.10236220472440945
        },
        {
          "duration": 0.8488372093023262,
          "durationTicks": 73,
          "midi": 66,
          "name": "F#4",
          "ticks": 1292,
          "time": 15.023255813953488,
          "velocity": 0.16535433070866143
        },
        {
          "duration": 0.023255813953488413,
          "durationTicks": 2,
          "midi": 44,
          "name": "G#2",
          "ticks": 1294,
          "time": 15.046511627906977,
          "velocity": 0.2992125984251969
        },
        {
          "duration": 0.1627906976744189,
          "durationTicks": 14,
          "midi": 54,
          "name": "F#3",
          "ticks": 1295,
          "time": 15.05813953488372,
          "velocity": 0.2677165354330709
        },
        {
          "duration": 0.7674418604651159,
          "durationTicks": 66,
          "midi": 61,
          "name": "C#4",
          "ticks": 1300,
          "time": 15.116279069767442,
          "velocity": 0.08661417322834646
        },
        {
          "duration": 0.09302325581395365,
          "durationTicks": 8,
          "midi": 42,
          "name": "F#2",
          "ticks": 1302,
          "time": 15.13953488372093,
          "velocity": 0.1732283464566929
        },
        {
          "duration": 0.7209302325581408,
          "durationTicks": 62,
          "midi": 49,
          "name": "C#3",
          "ticks": 1303,
          "time": 15.151162790697674,
          "velocity": 0.1968503937007874
        },
        {
          "duration": 0.06976744186046524,
          "durationTicks": 6,
          "midi": 54,
          "name": "F#3",
          "ticks": 1310,
          "time": 15.232558139534884,
          "velocity": 0.15748031496062992
        },
        {
          "duration": 0.09302325581395365,
          "durationTicks": 8,
          "midi": 42,
          "name": "F#2",
          "ticks": 1317,
          "time": 15.313953488372093,
          "velocity": 0.13385826771653545
        },
        {
          "duration": 0.09302325581395365,
          "durationTicks": 8,
          "midi": 42,
          "name": "F#2",
          "ticks": 1334,
          "time": 15.511627906976743,
          "velocity": 0.11023622047244094
        },
        {
          "duration": 0.09302325581395365,
          "durationTicks": 8,
          "midi": 42,
          "name": "F#2",
          "ticks": 1349,
          "time": 15.686046511627907,
          "velocity": 0.09448818897637795
        },
        {
          "duration": 0.4418604651162781,
          "durationTicks": 38,
          "midi": 61,
          "name": "C#4",
          "ticks": 1368,
          "time": 15.906976744186046,
          "velocity": 0.13385826771653545
        },
        {
          "duration": 0.3023255813953476,
          "durationTicks": 26,
          "midi": 49,
          "name": "C#3",
          "ticks": 1373,
          "time": 15.965116279069768,
          "velocity": 0.12598425196850394
        },
        {
          "duration": 0.03488372093023173,
          "durationTicks": 3,
          "midi": 54,
          "name": "F#3",
          "ticks": 1399,
          "time": 16.267441860465116,
          "velocity": 0.11811023622047244
        },
        {
          "duration": 0.06976744186046702,
          "durationTicks": 6,
          "midi": 49,
          "name": "C#3",
          "ticks": 1402,
          "time": 16.302325581395348,
          "velocity": 0.18110236220472442
        },
        {
          "duration": 0.034883720930235285,
          "durationTicks": 3,
          "midi": 42,
          "name": "F#2",
          "ticks": 1406,
          "time": 16.348837209302324,
          "velocity": 0.08661417322834646
        },
        {
          "duration": 0.09302325581395365,
          "durationTicks": 8,
          "midi": 54,
          "name": "F#3",
          "ticks": 1406,
          "time": 16.348837209302324,
          "velocity": 0.18110236220472442
        },
        {
          "duration": 0.03488372093023173,
          "durationTicks": 3,
          "midi": 49,
          "name": "C#3",
          "ticks": 1412,
          "time": 16.41860465116279,
          "velocity": 0.13385826771653545
        },
        {
          "duration": 0.04651162790697683,
          "durationTicks": 4,
          "midi": 55,
          "name": "G3",
          "ticks": 1444,
          "time": 16.790697674418606,
          "velocity": 0.2440944881889764
        },
        {
          "duration": 0.8953488372093013,
          "durationTicks": 77,
          "midi": 61,
          "name": "C#4",
          "ticks": 1446,
          "time": 16.813953488372093,
          "velocity": 0.30708661417322836
        },
        {
          "duration": 0.12790697674418539,
          "durationTicks": 11,
          "midi": 68,
          "name": "G#4",
          "ticks": 1447,
          "time": 16.825581395348838,
          "velocity": 0.13385826771653545
        },
        {
          "duration": 0.8604651162790695,
          "durationTicks": 74,
          "midi": 56,
          "name": "G#3",
          "ticks": 1448,
          "time": 16.837209302325583,
          "velocity": 0.2047244094488189
        },
        {
          "duration": 0.8255813953488378,
          "durationTicks": 71,
          "midi": 49,
          "name": "C#3",
          "ticks": 1451,
          "time": 16.872093023255815,
          "velocity": 0.2283464566929134
        },
        {
          "duration": 0.03488372093023173,
          "durationTicks": 3,
          "midi": 41,
          "name": "F2",
          "ticks": 1452,
          "time": 16.88372093023256,
          "velocity": 0.11023622047244094
        },
        {
          "duration": 0.04651162790697683,
          "durationTicks": 4,
          "midi": 41,
          "name": "F2",
          "ticks": 1478,
          "time": 17.186046511627907,
          "velocity": 0.07086614173228346
        },
        {
          "duration": 0.43023255813953654,
          "durationTicks": 37,
          "midi": 56,
          "name": "G#3",
          "ticks": 1524,
          "time": 17.72093023255814,
          "velocity": 0.2283464566929134
        },
        {
          "duration": 0.5930232558139537,
          "durationTicks": 51,
          "midi": 61,
          "name": "C#4",
          "ticks": 1524,
          "time": 17.72093023255814,
          "velocity": 0.1968503937007874
        },
        {
          "duration": 0.03488372093023173,
          "durationTicks": 3,
          "midi": 44,
          "name": "G#2",
          "ticks": 1525,
          "time": 17.732558139534884,
          "velocity": 0.14960629921259844
        },
        {
          "duration": 0.1046511627906952,
          "durationTicks": 9,
          "midi": 65,
          "name": "F4",
          "ticks": 1526,
          "time": 17.74418604651163,
          "velocity": 0.09448818897637795
        },
        {
          "duration": 0.16279069767442067,
          "durationTicks": 14,
          "midi": 49,
          "name": "C#3",
          "ticks": 1563,
          "time": 18.174418604651162,
          "velocity": 0.1732283464566929
        },
        {
          "duration": 0.09302325581395365,
          "durationTicks": 8,
          "midi": 56,
          "name": "G#3",
          "ticks": 1564,
          "time": 18.186046511627907,
          "velocity": 0.2283464566929134
        },
        {
          "duration": 0.05813953488372192,
          "durationTicks": 5,
          "midi": 63,
          "name": "D#4",
          "ticks": 1602,
          "time": 18.627906976744185,
          "velocity": 0.14960629921259844
        },
        {
          "duration": 0.023255813953486637,
          "durationTicks": 2,
          "midi": 53,
          "name": "F3",
          "ticks": 1603,
          "time": 18.63953488372093,
          "velocity": 0.3228346456692913
        },
        {
          "duration": 1.3372093023255829,
          "durationTicks": 115,
          "midi": 66,
          "name": "F#4",
          "ticks": 1603,
          "time": 18.63953488372093,
          "velocity": 0.1889763779527559
        },
        {
          "duration": 0.5116279069767451,
          "durationTicks": 44,
          "midi": 54,
          "name": "F#3",
          "ticks": 1605,
          "time": 18.662790697674417,
          "velocity": 0.33858267716535434
        },
        {
          "duration": 0.04651162790697683,
          "durationTicks": 4,
          "midi": 47,
          "name": "B2",
          "ticks": 1608,
          "time": 18.697674418604652,
          "velocity": 0.1732283464566929
        },
        {
          "duration": 0.05813953488371837,
          "durationTicks": 5,
          "midi": 63,
          "name": "D#4",
          "ticks": 1608,
          "time": 18.697674418604652,
          "velocity": 0.08661417322834646
        },
        {
          "duration": 1.011627906976745,
          "durationTicks": 87,
          "midi": 47,
          "name": "B2",
          "ticks": 1613,
          "time": 18.75581395348837,
          "velocity": 0.15748031496062992
        },
        {
          "duration": 0.20930232558139394,
          "durationTicks": 18,
          "midi": 47,
          "name": "B2",
          "ticks": 1701,
          "time": 19.77906976744186,
          "velocity": 0.11811023622047244
        },
        {
          "duration": 0.12790697674418539,
          "durationTicks": 11,
          "midi": 63,
          "name": "D#4",
          "ticks": 1720,
          "time": 20,
          "velocity": 0.08661417322834646
        },
        {
          "duration": 0.09302325581395365,
          "durationTicks": 8,
          "midi": 54,
          "name": "F#3",
          "ticks": 1856,
          "time": 21.58139534883721,
          "velocity": 0.08661417322834646
        },
        {
          "duration": 0.430232558139533,
          "durationTicks": 37,
          "midi": 54,
          "name": "F#3",
          "ticks": 1901,
          "time": 22.1046511627907,
          "velocity": 0.14960629921259844
        },
        {
          "duration": 0.04651162790697683,
          "durationTicks": 4,
          "midi": 42,
          "name": "F#2",
          "ticks": 1910,
          "time": 22.209302325581394,
          "velocity": 0.13385826771653545
        },
        {
          "duration": 0.5465116279069768,
          "durationTicks": 47,
          "midi": 61,
          "name": "C#4",
          "ticks": 1913,
          "time": 22.24418604651163,
          "velocity": 0.14960629921259844
        },
        {
          "duration": 0.08139534883720856,
          "durationTicks": 7,
          "midi": 42,
          "name": "F#2",
          "ticks": 1915,
          "time": 22.267441860465116,
          "velocity": 0.11023622047244094
        },
        {
          "duration": 0.4534883720930232,
          "durationTicks": 39,
          "midi": 42,
          "name": "F#2",
          "ticks": 1923,
          "time": 22.36046511627907,
          "velocity": 0.08661417322834646
        },
        {
          "duration": 0.06976744186046346,
          "durationTicks": 6,
          "midi": 31,
          "name": "G1",
          "ticks": 2003,
          "time": 23.290697674418606,
          "velocity": 0.08661417322834646
        },
        {
          "duration": 0.11627906976744029,
          "durationTicks": 10,
          "midi": 70,
          "name": "A#4",
          "ticks": 2014,
          "time": 23.41860465116279,
          "velocity": 0.07086614173228346
        },
        {
          "duration": 0.03488372093023173,
          "durationTicks": 3,
          "midi": 53,
          "name": "F3",
          "ticks": 2044,
          "time": 23.767441860465116,
          "velocity": 0.10236220472440945
        },
        {
          "duration": 0.25581395348837077,
          "durationTicks": 22,
          "midi": 58,
          "name": "A#3",
          "ticks": 2045,
          "time": 23.77906976744186,
          "velocity": 0.11811023622047244
        },
        {
          "duration": 0.20930232558139394,
          "durationTicks": 18,
          "midi": 70,
          "name": "A#4",
          "ticks": 2045,
          "time": 23.77906976744186,
          "velocity": 0.11811023622047244
        },
        {
          "duration": 0.15116279069767558,
          "durationTicks": 13,
          "midi": 31,
          "name": "G1",
          "ticks": 2072,
          "time": 24.093023255813954,
          "velocity": 0.08661417322834646
        },
        {
          "duration": 0.23255813953488413,
          "durationTicks": 20,
          "midi": 61,
          "name": "C#4",
          "ticks": 2072,
          "time": 24.093023255813954,
          "velocity": 0.09448818897637795
        },
        {
          "duration": 0.03488372093023173,
          "durationTicks": 3,
          "midi": 31,
          "name": "G1",
          "ticks": 2092,
          "time": 24.325581395348838,
          "velocity": 0.07086614173228346
        },
        {
          "duration": 0.33720930232557933,
          "durationTicks": 29,
          "midi": 68,
          "name": "G#4",
          "ticks": 2108,
          "time": 24.511627906976745,
          "velocity": 0.1968503937007874
        },
        {
          "duration": 0.3255813953488378,
          "durationTicks": 28,
          "midi": 56,
          "name": "G#3",
          "ticks": 2112,
          "time": 24.558139534883722,
          "velocity": 0.13385826771653545
        },
        {
          "duration": 0.02325581395349019,
          "durationTicks": 2,
          "midi": 55,
          "name": "G3",
          "ticks": 2149,
          "time": 24.988372093023255,
          "velocity": 0.2440944881889764
        },
        {
          "duration": 0.03488372093023173,
          "durationTicks": 3,
          "midi": 31,
          "name": "G1",
          "ticks": 2150,
          "time": 25,
          "velocity": 0.1732283464566929
        },
        {
          "duration": 0.1976744186046524,
          "durationTicks": 17,
          "midi": 68,
          "name": "G#4",
          "ticks": 2150,
          "time": 25,
          "velocity": 0.2125984251968504
        },
        {
          "duration": 0.1860465116279073,
          "durationTicks": 16,
          "midi": 56,
          "name": "G#3",
          "ticks": 2151,
          "time": 25.011627906976745,
          "velocity": 0.2283464566929134
        },
        {
          "duration": 0.03488372093023173,
          "durationTicks": 3,
          "midi": 53,
          "name": "F3",
          "ticks": 2173,
          "time": 25.267441860465116,
          "velocity": 0.31496062992125984
        },
        {
          "duration": 0.27906976744186096,
          "durationTicks": 24,
          "midi": 66,
          "name": "F#4",
          "ticks": 2173,
          "time": 25.267441860465116,
          "velocity": 0.2677165354330709
        },
        {
          "duration": 0.30232558139535115,
          "durationTicks": 26,
          "midi": 54,
          "name": "F#3",
          "ticks": 2176,
          "time": 25.302325581395348,
          "velocity": 0.28346456692913385
        },
        {
          "duration": 2.1627906976744207,
          "durationTicks": 186,
          "midi": 68,
          "name": "G#4",
          "ticks": 2207,
          "time": 25.662790697674417,
          "velocity": 0.28346456692913385
        },
        {
          "duration": 0.41860465116279144,
          "durationTicks": 36,
          "midi": 56,
          "name": "G#3",
          "ticks": 2211,
          "time": 25.709302325581394,
          "velocity": 0.2677165354330709
        },
        {
          "duration": 0.06976744186046346,
          "durationTicks": 6,
          "midi": 31,
          "name": "G1",
          "ticks": 2519,
          "time": 29.290697674418606,
          "velocity": 0.07086614173228346
        },
        {
          "duration": 0.09302325581395365,
          "durationTicks": 8,
          "midi": 54,
          "name": "F#3",
          "ticks": 2530,
          "time": 29.41860465116279,
          "velocity": 0.11023622047244094
        },
        {
          "duration": 0.04651162790697683,
          "durationTicks": 4,
          "midi": 42,
          "name": "F#2",
          "ticks": 2540,
          "time": 29.53488372093023,
          "velocity": 0.14173228346456693
        },
        {
          "duration": 0.04651162790697683,
          "durationTicks": 4,
          "midi": 53,
          "name": "F3",
          "ticks": 2542,
          "time": 29.558139534883722,
          "velocity": 0.11811023622047244
        },
        {
          "duration": 0.26744186046511587,
          "durationTicks": 23,
          "midi": 42,
          "name": "F#2",
          "ticks": 2549,
          "time": 29.63953488372093,
          "velocity": 0.11023622047244094
        },
        {
          "duration": 0.20930232558139394,
          "durationTicks": 18,
          "midi": 61,
          "name": "C#4",
          "ticks": 2553,
          "time": 29.686046511627907,
          "velocity": 0.08661417322834646
        },
        {
          "duration": 0.11627906976744029,
          "durationTicks": 10,
          "midi": 61,
          "name": "C#4",
          "ticks": 2601,
          "time": 30.24418604651163,
          "velocity": 0.33070866141732286
        },
        {
          "duration": 0.09302325581395365,
          "durationTicks": 8,
          "midi": 49,
          "name": "C#3",
          "ticks": 2605,
          "time": 30.290697674418606,
          "velocity": 0.1889763779527559
        },
        {
          "duration": 0.02325581395349019,
          "durationTicks": 2,
          "midi": 60,
          "name": "C4",
          "ticks": 2611,
          "time": 30.36046511627907,
          "velocity": 0.23622047244094488
        },
        {
          "duration": 0.12790697674418539,
          "durationTicks": 11,
          "midi": 70,
          "name": "A#4",
          "ticks": 2624,
          "time": 30.511627906976745,
          "velocity": 0.09448818897637795
        },
        {
          "duration": 0.15116279069767558,
          "durationTicks": 13,
          "midi": 58,
          "name": "A#3",
          "ticks": 2626,
          "time": 30.53488372093023,
          "velocity": 0.15748031496062992
        },
        {
          "duration": 0.05813953488372192,
          "durationTicks": 5,
          "midi": 32,
          "name": "G#1",
          "ticks": 2647,
          "time": 30.77906976744186,
          "velocity": 0.14960629921259844
        },
        {
          "duration": 0.24418604651162568,
          "durationTicks": 21,
          "midi": 58,
          "name": "A#3",
          "ticks": 2647,
          "time": 30.77906976744186,
          "velocity": 0.15748031496062992
        },
        {
          "duration": 0.1860465116279073,
          "durationTicks": 16,
          "midi": 70,
          "name": "A#4",
          "ticks": 2681,
          "time": 31.174418604651162,
          "velocity": 0.12598425196850394
        },
        {
          "duration": 0.40697674418604635,
          "durationTicks": 35,
          "midi": 58,
          "name": "A#3",
          "ticks": 2682,
          "time": 31.186046511627907,
          "velocity": 0.1968503937007874
        },
        {
          "duration": 0.1744186046511622,
          "durationTicks": 15,
          "midi": 31,
          "name": "G1",
          "ticks": 2698,
          "time": 31.372093023255815,
          "velocity": 0.11023622047244094
        },
        {
          "duration": 0.03488372093023173,
          "durationTicks": 3,
          "midi": 57,
          "name": "A3",
          "ticks": 2717,
          "time": 31.593023255813954,
          "velocity": 0.09448818897637795
        },
        {
          "duration": 0.24418604651162923,
          "durationTicks": 21,
          "midi": 61,
          "name": "C#4",
          "ticks": 2719,
          "time": 31.61627906976744,
          "velocity": 0.10236220472440945
        },
        {
          "duration": 0.3139534883720927,
          "durationTicks": 27,
          "midi": 68,
          "name": "G#4",
          "ticks": 2738,
          "time": 31.837209302325583,
          "velocity": 0.25984251968503935
        },
        {
          "duration": 0.3023255813953476,
          "durationTicks": 26,
          "midi": 56,
          "name": "G#3",
          "ticks": 2742,
          "time": 31.88372093023256,
          "velocity": 0.14173228346456693
        },
        {
          "duration": 0.13953488372093403,
          "durationTicks": 12,
          "midi": 68,
          "name": "G#4",
          "ticks": 2777,
          "time": 32.2906976744186,
          "velocity": 0.2283464566929134
        },
        {
          "duration": 0.12790697674418539,
          "durationTicks": 11,
          "midi": 56,
          "name": "G#3",
          "ticks": 2779,
          "time": 32.31395348837209,
          "velocity": 0.14173228346456693
        },
        {
          "duration": 0.30232558139535115,
          "durationTicks": 26,
          "midi": 66,
          "name": "F#4",
          "ticks": 2798,
          "time": 32.53488372093023,
          "velocity": 0.23622047244094488
        },
        {
          "duration": 0.32558139534884134,
          "durationTicks": 28,
          "midi": 54,
          "name": "F#3",
          "ticks": 2799,
          "time": 32.54651162790697,
          "velocity": 0.2755905511811024
        },
        {
          "duration": 0.03488372093023173,
          "durationTicks": 3,
          "midi": 55,
          "name": "G3",
          "ticks": 2835,
          "time": 32.96511627906977,
          "velocity": 0.2204724409448819
        },
        {
          "duration": 0.19767441860464885,
          "durationTicks": 17,
          "midi": 68,
          "name": "G#4",
          "ticks": 2835,
          "time": 32.96511627906977,
          "velocity": 0.18110236220472442
        },
        {
          "duration": 0.17441860465116577,
          "durationTicks": 15,
          "midi": 56,
          "name": "G#3",
          "ticks": 2838,
          "time": 33,
          "velocity": 0.1968503937007874
        },
        {
          "duration": 0.17441860465115866,
          "durationTicks": 15,
          "midi": 66,
          "name": "F#4",
          "ticks": 2861,
          "time": 33.26744186046512,
          "velocity": 0.14173228346456693
        },
        {
          "duration": 1.3837209302325562,
          "durationTicks": 119,
          "midi": 63,
          "name": "D#4",
          "ticks": 2883,
          "time": 33.52325581395349,
          "velocity": 0.30708661417322836
        },
        {
          "duration": 0.8372093023255829,
          "durationTicks": 72,
          "midi": 51,
          "name": "D#3",
          "ticks": 2887,
          "time": 33.56976744186046,
          "velocity": 0.2992125984251969
        },
        {
          "duration": 0.03488372093023173,
          "durationTicks": 3,
          "midi": 51,
          "name": "D#3",
          "ticks": 2970,
          "time": 34.53488372093023,
          "velocity": 0.09448818897637795
        },
        {
          "duration": 0.05813953488372192,
          "durationTicks": 5,
          "midi": 54,
          "name": "F#3",
          "ticks": 3165,
          "time": 36.80232558139535,
          "velocity": 0.09448818897637795
        },
        {
          "duration": 0.5116279069767415,
          "durationTicks": 44,
          "midi": 61,
          "name": "C#4",
          "ticks": 3170,
          "time": 36.86046511627907,
          "velocity": 0.2125984251968504
        },
        {
          "duration": 0.03488372093023173,
          "durationTicks": 3,
          "midi": 57,
          "name": "A3",
          "ticks": 3247,
          "time": 37.75581395348837,
          "velocity": 0.12598425196850394
        },
        {
          "duration": 0.11627906976743674,
          "durationTicks": 10,
          "midi": 70,
          "name": "A#4",
          "ticks": 3248,
          "time": 37.76744186046512,
          "velocity": 0.07086614173228346
        },
        {
          "duration": 0.12790697674418539,
          "durationTicks": 11,
          "midi": 58,
          "name": "A#3",
          "ticks": 3250,
          "time": 37.7906976744186,
          "velocity": 0.10236220472440945
        },
        {
          "duration": 0.06976744186046346,
          "durationTicks": 6,
          "midi": 61,
          "name": "C#4",
          "ticks": 3268,
          "time": 38,
          "velocity": 0.18110236220472442
        },
        {
          "duration": 0.1279069767441925,
          "durationTicks": 11,
          "midi": 70,
          "name": "A#4",
          "ticks": 3272,
          "time": 38.04651162790697,
          "velocity": 0.11023622047244094
        },
        {
          "duration": 0.2093023255813975,
          "durationTicks": 18,
          "midi": 58,
          "name": "A#3",
          "ticks": 3273,
          "time": 38.05813953488372,
          "velocity": 0.1968503937007874
        },
        {
          "duration": 0.058139534883714816,
          "durationTicks": 5,
          "midi": 54,
          "name": "F#3",
          "ticks": 3291,
          "time": 38.26744186046512,
          "velocity": 0.10236220472440945
        },
        {
          "duration": 0.46511627906976827,
          "durationTicks": 40,
          "midi": 58,
          "name": "A#3",
          "ticks": 3308,
          "time": 38.46511627906977,
          "velocity": 0.2677165354330709
        },
        {
          "duration": 0.03488372093023173,
          "durationTicks": 3,
          "midi": 61,
          "name": "C#4",
          "ticks": 3318,
          "time": 38.58139534883721,
          "velocity": 0.07086614173228346
        },
        {
          "duration": 0.03488372093023173,
          "durationTicks": 3,
          "midi": 61,
          "name": "C#4",
          "ticks": 3322,
          "time": 38.627906976744185,
          "velocity": 0.08661417322834646
        },
        {
          "duration": 0.03488372093023173,
          "durationTicks": 3,
          "midi": 57,
          "name": "A3",
          "ticks": 3348,
          "time": 38.93023255813954,
          "velocity": 0.14173228346456693
        },
        {
          "duration": 0.046511627906973274,
          "durationTicks": 4,
          "midi": 56,
          "name": "G#3",
          "ticks": 3354,
          "time": 39,
          "velocity": 0.07874015748031496
        },
        {
          "duration": 0.25581395348837077,
          "durationTicks": 22,
          "midi": 68,
          "name": "G#4",
          "ticks": 3368,
          "time": 39.16279069767442,
          "velocity": 0.1732283464566929
        },
        {
          "duration": 0.40697674418604635,
          "durationTicks": 35,
          "midi": 49,
          "name": "C#3",
          "ticks": 3370,
          "time": 39.18604651162791,
          "velocity": 0.10236220472440945
        },
        {
          "duration": 0.2325581395348877,
          "durationTicks": 20,
          "midi": 56,
          "name": "G#3",
          "ticks": 3371,
          "time": 39.19767441860465,
          "velocity": 0.2204724409448819
        },
        {
          "duration": 0.1860465116279073,
          "durationTicks": 16,
          "midi": 68,
          "name": "G#4",
          "ticks": 3407,
          "time": 39.616279069767444,
          "velocity": 0.23622047244094488
        },
        {
          "duration": 0.15116279069767558,
          "durationTicks": 13,
          "midi": 56,
          "name": "G#3",
          "ticks": 3409,
          "time": 39.63953488372093,
          "velocity": 0.1889763779527559
        },
        {
          "duration": 0.03488372093023173,
          "durationTicks": 3,
          "midi": 56,
          "name": "G#3",
          "ticks": 3428,
          "time": 39.86046511627907,
          "velocity": 0.10236220472440945
        },
        {
          "duration": 0.2906976744186025,
          "durationTicks": 25,
          "midi": 66,
          "name": "F#4",
          "ticks": 3428,
          "time": 39.86046511627907,
          "velocity": 0.2677165354330709
        },
        {
          "duration": 0.16279069767442422,
          "durationTicks": 14,
          "midi": 54,
          "name": "F#3",
          "ticks": 3433,
          "time": 39.91860465116279,
          "velocity": 0.1889763779527559
        },
        {
          "duration": 1.6046511627906952,
          "durationTicks": 138,
          "midi": 68,
          "name": "G#4",
          "ticks": 3466,
          "time": 40.30232558139535,
          "velocity": 0.2755905511811024
        },
        {
          "duration": 0.36046511627906597,
          "durationTicks": 31,
          "midi": 56,
          "name": "G#3",
          "ticks": 3469,
          "time": 40.33720930232558,
          "velocity": 0.29133858267716534
        },
        {
          "duration": 0.03488372093023173,
          "durationTicks": 3,
          "midi": 31,
          "name": "G1",
          "ticks": 3479,
          "time": 40.45348837209303,
          "velocity": 0.07086614173228346
        },
        {
          "duration": 0.3953488372093048,
          "durationTicks": 34,
          "midi": 63,
          "name": "D#4",
          "ticks": 3491,
          "time": 40.593023255813954,
          "velocity": 0.12598425196850394
        },
        {
          "duration": 0.09302325581395365,
          "durationTicks": 8,
          "midi": 56,
          "name": "G#3",
          "ticks": 3501,
          "time": 40.7093023255814,
          "velocity": 0.18110236220472442
        },
        {
          "duration": 0.09302325581395365,
          "durationTicks": 8,
          "midi": 59,
          "name": "B3",
          "ticks": 3511,
          "time": 40.825581395348834,
          "velocity": 0.11811023622047244
        },
        {
          "duration": 0.2906976744186025,
          "durationTicks": 25,
          "midi": 61,
          "name": "C#4",
          "ticks": 3814,
          "time": 44.348837209302324,
          "velocity": 0.08661417322834646
        },
        {
          "duration": 0.03488372093023173,
          "durationTicks": 3,
          "midi": 48,
          "name": "C3",
          "ticks": 3859,
          "time": 44.872093023255815,
          "velocity": 0.2755905511811024
        },
        {
          "duration": 0.15116279069767558,
          "durationTicks": 13,
          "midi": 61,
          "name": "C#4",
          "ticks": 3859,
          "time": 44.872093023255815,
          "velocity": 0.3464566929133858
        },
        {
          "duration": 0.1046511627906952,
          "durationTicks": 9,
          "midi": 49,
          "name": "C#3",
          "ticks": 3862,
          "time": 44.906976744186046,
          "velocity": 0.2755905511811024
        },
        {
          "duration": 0.03488372093023173,
          "durationTicks": 3,
          "midi": 66,
          "name": "F#4",
          "ticks": 3880,
          "time": 45.116279069767444,
          "velocity": 0.08661417322834646
        },
        {
          "duration": 0.15116279069767558,
          "durationTicks": 13,
          "midi": 70,
          "name": "A#4",
          "ticks": 3882,
          "time": 45.13953488372093,
          "velocity": 0.11811023622047244
        },
        {
          "duration": 0.15116279069767558,
          "durationTicks": 13,
          "midi": 58,
          "name": "A#3",
          "ticks": 3884,
          "time": 45.16279069767442,
          "velocity": 0.1732283464566929
        },
        {
          "duration": 0.09302325581395365,
          "durationTicks": 8,
          "midi": 31,
          "name": "G1",
          "ticks": 3889,
          "time": 45.22093023255814,
          "velocity": 0.16535433070866143
        },
        {
          "duration": 0.03488372093023173,
          "durationTicks": 3,
          "midi": 31,
          "name": "G1",
          "ticks": 3899,
          "time": 45.33720930232558,
          "velocity": 0.12598425196850394
        },
        {
          "duration": 0.24418604651162923,
          "durationTicks": 21,
          "midi": 70,
          "name": "A#4",
          "ticks": 3902,
          "time": 45.372093023255815,
          "velocity": 0.1732283464566929
        },
        {
          "duration": 0.25581395348837077,
          "durationTicks": 22,
          "midi": 58,
          "name": "A#3",
          "ticks": 3904,
          "time": 45.395348837209305,
          "velocity": 0.16535433070866143
        },
        {
          "duration": 0.11627906976743674,
          "durationTicks": 10,
          "midi": 31,
          "name": "G1",
          "ticks": 3907,
          "time": 45.43023255813954,
          "velocity": 0.12598425196850394
        },
        {
          "duration": 0.05813953488372192,
          "durationTicks": 5,
          "midi": 31,
          "name": "G1",
          "ticks": 3918,
          "time": 45.55813953488372,
          "velocity": 0.11811023622047244
        },
        {
          "duration": 0.06976744186046346,
          "durationTicks": 6,
          "midi": 31,
          "name": "G1",
          "ticks": 3924,
          "time": 45.627906976744185,
          "velocity": 0.12598425196850394
        },
        {
          "duration": 0.11627906976743674,
          "durationTicks": 10,
          "midi": 31,
          "name": "G1",
          "ticks": 3931,
          "time": 45.7093023255814,
          "velocity": 0.2125984251968504
        },
        {
          "duration": 0.2325581395348877,
          "durationTicks": 20,
          "midi": 70,
          "name": "A#4",
          "ticks": 3938,
          "time": 45.7906976744186,
          "velocity": 0.1732283464566929
        },
        {
          "duration": 0.36046511627906597,
          "durationTicks": 31,
          "midi": 58,
          "name": "A#3",
          "ticks": 3939,
          "time": 45.80232558139535,
          "velocity": 0.23622047244094488
        },
        {
          "duration": 0.03488372093023884,
          "durationTicks": 3,
          "midi": 32,
          "name": "G#1",
          "ticks": 3941,
          "time": 45.825581395348834,
          "velocity": 0.11811023622047244
        },
        {
          "duration": 0.13953488372092693,
          "durationTicks": 12,
          "midi": 31,
          "name": "G1",
          "ticks": 3944,
          "time": 45.86046511627907,
          "velocity": 0.14173228346456693
        },
        {
          "duration": 0.03488372093023173,
          "durationTicks": 3,
          "midi": 31,
          "name": "G1",
          "ticks": 3957,
          "time": 46.01162790697674,
          "velocity": 0.14173228346456693
        },
        {
          "duration": 0.046511627906973274,
          "durationTicks": 4,
          "midi": 31,
          "name": "G1",
          "ticks": 3961,
          "time": 46.05813953488372,
          "velocity": 0.13385826771653545
        },
        {
          "duration": 0.15116279069767558,
          "durationTicks": 13,
          "midi": 31,
          "name": "G1",
          "ticks": 3967,
          "time": 46.127906976744185,
          "velocity": 0.12598425196850394
        },
        {
          "duration": 0.2674418604651123,
          "durationTicks": 23,
          "midi": 61,
          "name": "C#4",
          "ticks": 3971,
          "time": 46.174418604651166,
          "velocity": 0.12598425196850394
        },
        {
          "duration": 0.04651162790698038,
          "durationTicks": 4,
          "midi": 31,
          "name": "G1",
          "ticks": 3981,
          "time": 46.2906976744186,
          "velocity": 0.13385826771653545
        },
        {
          "duration": 0.05813953488372192,
          "durationTicks": 5,
          "midi": 56,
          "name": "G#3",
          "ticks": 3984,
          "time": 46.325581395348834,
          "velocity": 0.10236220472440945
        },
        {
          "duration": 0.05813953488372192,
          "durationTicks": 5,
          "midi": 31,
          "name": "G1",
          "ticks": 3986,
          "time": 46.348837209302324,
          "velocity": 0.13385826771653545
        },
        {
          "duration": 0.04651162790698038,
          "durationTicks": 4,
          "midi": 31,
          "name": "G1",
          "ticks": 3992,
          "time": 46.41860465116279,
          "velocity": 0.14173228346456693
        },
        {
          "duration": 0.2906976744186025,
          "durationTicks": 25,
          "midi": 68,
          "name": "G#4",
          "ticks": 3996,
          "time": 46.46511627906977,
          "velocity": 0.2755905511811024
        },
        {
          "duration": 0.02325581395349019,
          "durationTicks": 2,
          "midi": 55,
          "name": "G3",
          "ticks": 3997,
          "time": 46.47674418604651,
          "velocity": 0.2755905511811024
        },
        {
          "duration": 0.2906976744186025,
          "durationTicks": 25,
          "midi": 56,
          "name": "G#3",
          "ticks": 3999,
          "time": 46.5,
          "velocity": 0.2677165354330709
        },
        {
          "duration": 0.22093023255813904,
          "durationTicks": 19,
          "midi": 31,
          "name": "G1",
          "ticks": 4002,
          "time": 46.53488372093023,
          "velocity": 0.12598425196850394
        },
        {
          "duration": 0.058139534883714816,
          "durationTicks": 5,
          "midi": 31,
          "name": "G1",
          "ticks": 4022,
          "time": 46.76744186046512,
          "velocity": 0.13385826771653545
        },
        {
          "duration": 0.1860465116279073,
          "durationTicks": 16,
          "midi": 68,
          "name": "G#4",
          "ticks": 4033,
          "time": 46.895348837209305,
          "velocity": 0.2440944881889764
        },
        {
          "duration": 0.16279069767441712,
          "durationTicks": 14,
          "midi": 56,
          "name": "G#3",
          "ticks": 4036,
          "time": 46.93023255813954,
          "velocity": 0.10236220472440945
        },
        {
          "duration": 0.03488372093023173,
          "durationTicks": 3,
          "midi": 31,
          "name": "G1",
          "ticks": 4037,
          "time": 46.94186046511628,
          "velocity": 0.12598425196850394
        },
        {
          "duration": 0.06976744186046346,
          "durationTicks": 6,
          "midi": 31,
          "name": "G1",
          "ticks": 4041,
          "time": 46.98837209302326,
          "velocity": 0.11811023622047244
        },
        {
          "duration": 0.046511627906973274,
          "durationTicks": 4,
          "midi": 31,
          "name": "G1",
          "ticks": 4049,
          "time": 47.08139534883721,
          "velocity": 0.14173228346456693
        },
        {
          "duration": 0.27906976744186096,
          "durationTicks": 24,
          "midi": 66,
          "name": "F#4",
          "ticks": 4055,
          "time": 47.151162790697676,
          "velocity": 0.2283464566929134
        },
        {
          "duration": 0.03488372093023173,
          "durationTicks": 3,
          "midi": 53,
          "name": "F3",
          "ticks": 4056,
          "time": 47.16279069767442,
          "velocity": 0.2204724409448819
        },
        {
          "duration": 0.2674418604651194,
          "durationTicks": 23,
          "midi": 54,
          "name": "F#3",
          "ticks": 4059,
          "time": 47.19767441860465,
          "velocity": 0.2440944881889764
        },
        {
          "duration": 0.1860465116279073,
          "durationTicks": 16,
          "midi": 31,
          "name": "G1",
          "ticks": 4060,
          "time": 47.2093023255814,
          "velocity": 0.13385826771653545
        },
        {
          "duration": 0.046511627906973274,
          "durationTicks": 4,
          "midi": 31,
          "name": "G1",
          "ticks": 4079,
          "time": 47.43023255813954,
          "velocity": 0.12598425196850394
        },
        {
          "duration": 0.058139534883714816,
          "durationTicks": 5,
          "midi": 31,
          "name": "G1",
          "ticks": 4084,
          "time": 47.48837209302326,
          "velocity": 0.14173228346456693
        },
        {
          "duration": 0.22093023255813904,
          "durationTicks": 19,
          "midi": 68,
          "name": "G#4",
          "ticks": 4090,
          "time": 47.55813953488372,
          "velocity": 0.2283464566929134
        },
        {
          "duration": 0.04651162790698038,
          "durationTicks": 4,
          "midi": 56,
          "name": "G#3",
          "ticks": 4094,
          "time": 47.604651162790695,
          "velocity": 0.1968503937007874
        },
        {
          "duration": 0.16279069767441712,
          "durationTicks": 14,
          "midi": 31,
          "name": "G1",
          "ticks": 4095,
          "time": 47.616279069767444,
          "velocity": 0.15748031496062992
        },
        {
          "duration": 0.12790697674418539,
          "durationTicks": 11,
          "midi": 56,
          "name": "G#3",
          "ticks": 4099,
          "time": 47.66279069767442,
          "velocity": 0.1889763779527559
        },
        {
          "duration": 0.24418604651162212,
          "durationTicks": 21,
          "midi": 63,
          "name": "D#4",
          "ticks": 4116,
          "time": 47.86046511627907,
          "velocity": 0.14960629921259844
        },
        {
          "duration": 0.24418604651162923,
          "durationTicks": 21,
          "midi": 66,
          "name": "F#4",
          "ticks": 4118,
          "time": 47.883720930232556,
          "velocity": 0.28346456692913385
        },
        {
          "duration": 0.1860465116279073,
          "durationTicks": 16,
          "midi": 56,
          "name": "G#3",
          "ticks": 4120,
          "time": 47.906976744186046,
          "velocity": 0.18110236220472442
        },
        {
          "duration": 0.09302325581395365,
          "durationTicks": 8,
          "midi": 31,
          "name": "G1",
          "ticks": 4128,
          "time": 48,
          "velocity": 0.12598425196850394
        },
        {
          "duration": 0.03488372093023884,
          "durationTicks": 3,
          "midi": 31,
          "name": "G1",
          "ticks": 4140,
          "time": 48.13953488372093,
          "velocity": 0.14173228346456693
        },
        {
          "duration": 0.03488372093023173,
          "durationTicks": 3,
          "midi": 31,
          "name": "G1",
          "ticks": 4145,
          "time": 48.19767441860465,
          "velocity": 0.12598425196850394
        },
        {
          "duration": 0.9418604651162781,
          "durationTicks": 81,
          "midi": 63,
          "name": "D#4",
          "ticks": 4152,
          "time": 48.27906976744186,
          "velocity": 0.31496062992125984
        },
        {
          "duration": 0.03488372093023173,
          "durationTicks": 3,
          "midi": 50,
          "name": "D3",
          "ticks": 4154,
          "time": 48.30232558139535,
          "velocity": 0.2755905511811024
        },
        {
          "duration": 0.09302325581395365,
          "durationTicks": 8,
          "midi": 31,
          "name": "G1",
          "ticks": 4157,
          "time": 48.33720930232558,
          "velocity": 0.12598425196850394
        },
        {
          "duration": 0.08139534883721211,
          "durationTicks": 7,
          "midi": 31,
          "name": "G1",
          "ticks": 4166,
          "time": 48.44186046511628,
          "velocity": 0.12598425196850394
        },
        {
          "duration": 0.19767441860464885,
          "durationTicks": 17,
          "midi": 31,
          "name": "G1",
          "ticks": 4174,
          "time": 48.53488372093023,
          "velocity": 0.13385826771653545
        },
        {
          "duration": 0.6395348837209269,
          "durationTicks": 55,
          "midi": 31,
          "name": "G1",
          "ticks": 4197,
          "time": 48.80232558139535,
          "velocity": 0.14173228346456693
        },
        {
          "duration": 0.2093023255813975,
          "durationTicks": 18,
          "midi": 31,
          "name": "G1",
          "ticks": 4254,
          "time": 49.46511627906977,
          "velocity": 0.14173228346456693
        },
        {
          "duration": 0.19767441860464885,
          "durationTicks": 17,
          "midi": 61,
          "name": "C#4",
          "ticks": 4254,
          "time": 49.46511627906977,
          "velocity": 0.11023622047244094
        },
        {
          "duration": 0.2093023255813975,
          "durationTicks": 18,
          "midi": 63,
          "name": "D#4",
          "ticks": 4270,
          "time": 49.651162790697676,
          "velocity": 0.1968503937007874
        },
        {
          "duration": 0.19767441860465595,
          "durationTicks": 17,
          "midi": 31,
          "name": "G1",
          "ticks": 4274,
          "time": 49.69767441860465,
          "velocity": 0.14960629921259844
        },
        {
          "duration": 0.1860465116279073,
          "durationTicks": 16,
          "midi": 31,
          "name": "G1",
          "ticks": 4293,
          "time": 49.91860465116279,
          "velocity": 0.14173228346456693
        },
        {
          "duration": 0.046511627906973274,
          "durationTicks": 4,
          "midi": 31,
          "name": "G1",
          "ticks": 4310,
          "time": 50.116279069767444,
          "velocity": 0.14960629921259844
        },
        {
          "duration": 0.03488372093023173,
          "durationTicks": 3,
          "midi": 63,
          "name": "D#4",
          "ticks": 4311,
          "time": 50.127906976744185,
          "velocity": 0.11811023622047244
        },
        {
          "duration": 0.03488372093023173,
          "durationTicks": 3,
          "midi": 32,
          "name": "G#1",
          "ticks": 4314,
          "time": 50.16279069767442,
          "velocity": 0.14960629921259844
        },
        {
          "duration": 0.1860465116279073,
          "durationTicks": 16,
          "midi": 54,
          "name": "F#3",
          "ticks": 4314,
          "time": 50.16279069767442,
          "velocity": 0.11811023622047244
        },
        {
          "duration": 0.43023255813953654,
          "durationTicks": 37,
          "midi": 63,
          "name": "D#4",
          "ticks": 4316,
          "time": 50.18604651162791,
          "velocity": 0.14173228346456693
        },
        {
          "duration": 0.11627906976744384,
          "durationTicks": 10,
          "midi": 31,
          "name": "G1",
          "ticks": 4317,
          "time": 50.19767441860465,
          "velocity": 0.14960629921259844
        },
        {
          "duration": 0.2558139534883779,
          "durationTicks": 22,
          "midi": 31,
          "name": "G1",
          "ticks": 4328,
          "time": 50.325581395348834,
          "velocity": 0.2283464566929134
        },
        {
          "duration": 0.058139534883714816,
          "durationTicks": 5,
          "midi": 53,
          "name": "F3",
          "ticks": 4350,
          "time": 50.58139534883721,
          "velocity": 0.3700787401574803
        },
        {
          "duration": 0.02325581395349019,
          "durationTicks": 2,
          "midi": 40,
          "name": "E2",
          "ticks": 4351,
          "time": 50.593023255813954,
          "velocity": 0.2440944881889764
        },
        {
          "duration": 0.46511627906976827,
          "durationTicks": 40,
          "midi": 66,
          "name": "F#4",
          "ticks": 4352,
          "time": 50.604651162790695,
          "velocity": 0.2283464566929134
        },
        {
          "duration": 0.046511627906973274,
          "durationTicks": 4,
          "midi": 47,
          "name": "B2",
          "ticks": 4353,
          "time": 50.616279069767444,
          "velocity": 0.2204724409448819
        },
        {
          "duration": 0.19767441860465595,
          "durationTicks": 17,
          "midi": 54,
          "name": "F#3",
          "ticks": 4355,
          "time": 50.63953488372093,
          "velocity": 0.11811023622047244
        },
        {
          "duration": 0.046511627906973274,
          "durationTicks": 4,
          "midi": 31,
          "name": "G1",
          "ticks": 4356,
          "time": 50.651162790697676,
          "velocity": 0.14960629921259844
        },
        {
          "duration": 0.4186046511627879,
          "durationTicks": 36,
          "midi": 47,
          "name": "B2",
          "ticks": 4358,
          "time": 50.674418604651166,
          "velocity": 0.2047244094488189
        },
        {
          "duration": 0.3139534883720927,
          "durationTicks": 27,
          "midi": 31,
          "name": "G1",
          "ticks": 4361,
          "time": 50.7093023255814,
          "velocity": 0.14960629921259844
        },
        {
          "duration": 0.05813953488372192,
          "durationTicks": 5,
          "midi": 31,
          "name": "G1",
          "ticks": 4389,
          "time": 51.03488372093023,
          "velocity": 0.15748031496062992
        },
        {
          "duration": 0.09302325581395365,
          "durationTicks": 8,
          "midi": 47,
          "name": "B2",
          "ticks": 4395,
          "time": 51.104651162790695,
          "velocity": 0.1968503937007874
        },
        {
          "duration": 0.08139534883721211,
          "durationTicks": 7,
          "midi": 54,
          "name": "F#3",
          "ticks": 4395,
          "time": 51.104651162790695,
          "velocity": 0.11023622047244094
        },
        {
          "duration": 0.16279069767441712,
          "durationTicks": 14,
          "midi": 31,
          "name": "G1",
          "ticks": 4396,
          "time": 51.116279069767444,
          "velocity": 0.14960629921259844
        },
        {
          "duration": 0.03488372093023173,
          "durationTicks": 3,
          "midi": 46,
          "name": "A#2",
          "ticks": 4403,
          "time": 51.19767441860465,
          "velocity": 0.14960629921259844
        },
        {
          "duration": 0.05813953488372192,
          "durationTicks": 5,
          "midi": 32,
          "name": "G#1",
          "ticks": 4410,
          "time": 51.27906976744186,
          "velocity": 0.14173228346456693
        },
        {
          "duration": 0.046511627906973274,
          "durationTicks": 4,
          "midi": 31,
          "name": "G1",
          "ticks": 4425,
          "time": 51.45348837209303,
          "velocity": 0.1732283464566929
        },
        {
          "duration": 0.02325581395349019,
          "durationTicks": 2,
          "midi": 54,
          "name": "F#3",
          "ticks": 4432,
          "time": 51.53488372093023,
          "velocity": 0.28346456692913385
        },
        {
          "duration": 0.9069767441860463,
          "durationTicks": 78,
          "midi": 61,
          "name": "C#4",
          "ticks": 4432,
          "time": 51.53488372093023,
          "velocity": 0.2283464566929134
        },
        {
          "duration": 0.02325581395349019,
          "durationTicks": 2,
          "midi": 53,
          "name": "F3",
          "ticks": 4434,
          "time": 51.55813953488372,
          "velocity": 0.33858267716535434
        },
        {
          "duration": 0.22093023255813904,
          "durationTicks": 19,
          "midi": 68,
          "name": "G#4",
          "ticks": 4434,
          "time": 51.55813953488372,
          "velocity": 0.11811023622047244
        },
        {
          "duration": 0.03488372093023173,
          "durationTicks": 3,
          "midi": 31,
          "name": "G1",
          "ticks": 4436,
          "time": 51.58139534883721,
          "velocity": 0.15748031496062992
        },
        {
          "duration": 0.32558139534883423,
          "durationTicks": 28,
          "midi": 54,
          "name": "F#3",
          "ticks": 4436,
          "time": 51.58139534883721,
          "velocity": 0.31496062992125984
        },
        {
          "duration": 0.7674418604651123,
          "durationTicks": 66,
          "midi": 42,
          "name": "F#2",
          "ticks": 4444,
          "time": 51.674418604651166,
          "velocity": 0.2204724409448819
        },
        {
          "duration": 0.046511627906973274,
          "durationTicks": 4,
          "midi": 49,
          "name": "C#3",
          "ticks": 4474,
          "time": 52.02325581395349,
          "velocity": 0.16535433070866143
        },
        {
          "duration": 0.04651162790698038,
          "durationTicks": 4,
          "midi": 49,
          "name": "C#3",
          "ticks": 4489,
          "time": 52.19767441860465,
          "velocity": 0.15748031496062992
        },
        {
          "duration": 0.03488372093023173,
          "durationTicks": 3,
          "midi": 49,
          "name": "C#3",
          "ticks": 4502,
          "time": 52.348837209302324,
          "velocity": 0.14960629921259844
        },
        {
          "duration": 0.03488372093023173,
          "durationTicks": 3,
          "midi": 68,
          "name": "G#4",
          "ticks": 4509,
          "time": 52.43023255813954,
          "velocity": 0.10236220472440945
        },
        {
          "duration": 0.02325581395349019,
          "durationTicks": 2,
          "midi": 58,
          "name": "A#3",
          "ticks": 4510,
          "time": 52.44186046511628,
          "velocity": 0.2755905511811024
        },
        {
          "duration": 0.3372093023255758,
          "durationTicks": 29,
          "midi": 54,
          "name": "F#3",
          "ticks": 4511,
          "time": 52.45348837209303,
          "velocity": 0.4094488188976378
        },
        {
          "duration": 0.046511627906973274,
          "durationTicks": 4,
          "midi": 61,
          "name": "C#4",
          "ticks": 4514,
          "time": 52.48837209302326,
          "velocity": 0.18110236220472442
        },
        {
          "duration": 0.046511627906973274,
          "durationTicks": 4,
          "midi": 68,
          "name": "G#4",
          "ticks": 4515,
          "time": 52.5,
          "velocity": 0.09448818897637795
        },
        {
          "duration": 0.08139534883721211,
          "durationTicks": 7,
          "midi": 77,
          "name": "F5",
          "ticks": 4515,
          "time": 52.5,
          "velocity": 0.09448818897637795
        },
        {
          "duration": 0.03488372093023173,
          "durationTicks": 3,
          "midi": 49,
          "name": "C#3",
          "ticks": 4517,
          "time": 52.52325581395349,
          "velocity": 0.2677165354330709
        },
        {
          "duration": 0.06976744186046346,
          "durationTicks": 6,
          "midi": 58,
          "name": "A#3",
          "ticks": 4517,
          "time": 52.52325581395349,
          "velocity": 0.2677165354330709
        },
        {
          "duration": 0.32558139534883423,
          "durationTicks": 28,
          "midi": 68,
          "name": "G#4",
          "ticks": 4520,
          "time": 52.55813953488372,
          "velocity": 0.09448818897637795
        },
        {
          "duration": 0.046511627906973274,
          "durationTicks": 4,
          "midi": 49,
          "name": "C#3",
          "ticks": 4525,
          "time": 52.616279069767444,
          "velocity": 0.2440944881889764
        },
        {
          "duration": 0.1860465116279073,
          "durationTicks": 16,
          "midi": 58,
          "name": "A#3",
          "ticks": 4530,
          "time": 52.674418604651166,
          "velocity": 0.2283464566929134
        },
        {
          "duration": 0.15116279069767558,
          "durationTicks": 13,
          "midi": 49,
          "name": "C#3",
          "ticks": 4536,
          "time": 52.74418604651163,
          "velocity": 0.2204724409448819
        },
        {
          "duration": 0.1046511627906952,
          "durationTicks": 9,
          "midi": 42,
          "name": "F#2",
          "ticks": 4539,
          "time": 52.77906976744186,
          "velocity": 0.1889763779527559
        },
        {
          "duration": 0.3720930232558146,
          "durationTicks": 32,
          "midi": 70,
          "name": "A#4",
          "ticks": 4549,
          "time": 52.895348837209305,
          "velocity": 0.14173228346456693
        },
        {
          "duration": 0.03488372093023173,
          "durationTicks": 3,
          "midi": 33,
          "name": "A1",
          "ticks": 4550,
          "time": 52.906976744186046,
          "velocity": 0.14173228346456693
        },
        {
          "duration": 0.38372093023255616,
          "durationTicks": 33,
          "midi": 58,
          "name": "A#3",
          "ticks": 4550,
          "time": 52.906976744186046,
          "velocity": 0.2440944881889764
        },
        {
          "duration": 0.1046511627906952,
          "durationTicks": 9,
          "midi": 49,
          "name": "C#3",
          "ticks": 4554,
          "time": 52.95348837209303,
          "velocity": 0.18110236220472442
        },
        {
          "duration": 0.1046511627907023,
          "durationTicks": 9,
          "midi": 31,
          "name": "G1",
          "ticks": 4556,
          "time": 52.97674418604651,
          "velocity": 0.11023622047244094
        },
        {
          "duration": 0.04651162790698038,
          "durationTicks": 4,
          "midi": 49,
          "name": "C#3",
          "ticks": 4567,
          "time": 53.104651162790695,
          "velocity": 0.09448818897637795
        },
        {
          "duration": 0.03488372093023884,
          "durationTicks": 3,
          "midi": 61,
          "name": "C#4",
          "ticks": 4578,
          "time": 53.23255813953488,
          "velocity": 0.09448818897637795
        },
        {
          "duration": 0.03488372093023173,
          "durationTicks": 3,
          "midi": 31,
          "name": "G1",
          "ticks": 4582,
          "time": 53.27906976744186,
          "velocity": 0.10236220472440945
        },
        {
          "duration": 0.03488372093023173,
          "durationTicks": 3,
          "midi": 61,
          "name": "C#4",
          "ticks": 4582,
          "time": 53.27906976744186,
          "velocity": 0.08661417322834646
        },
        {
          "duration": 0.1046511627906952,
          "durationTicks": 9,
          "midi": 70,
          "name": "A#4",
          "ticks": 4585,
          "time": 53.31395348837209,
          "velocity": 0.11023622047244094
        },
        {
          "duration": 0.05813953488372192,
          "durationTicks": 5,
          "midi": 58,
          "name": "A#3",
          "ticks": 4586,
          "time": 53.325581395348834,
          "velocity": 0.2047244094488189
        },
        {
          "duration": 0.03488372093023173,
          "durationTicks": 3,
          "midi": 53,
          "name": "F3",
          "ticks": 4589,
          "time": 53.36046511627907,
          "velocity": 0.15748031496062992
        },
        {
          "duration": 0.860465116279066,
          "durationTicks": 74,
          "midi": 61,
          "name": "C#4",
          "ticks": 4589,
          "time": 53.36046511627907,
          "velocity": 0.31496062992125984
        },
        {
          "duration": 0.19767441860465595,
          "durationTicks": 17,
          "midi": 68,
          "name": "G#4",
          "ticks": 4591,
          "time": 53.383720930232556,
          "velocity": 0.2047244094488189
        },
        {
          "duration": 0.02325581395349019,
          "durationTicks": 2,
          "midi": 49,
          "name": "C#3",
          "ticks": 4595,
          "time": 53.43023255813954,
          "velocity": 0.2440944881889764
        },
        {
          "duration": 0.023255813953483084,
          "durationTicks": 2,
          "midi": 48,
          "name": "C3",
          "ticks": 4597,
          "time": 53.45348837209303,
          "velocity": 0.2440944881889764
        },
        {
          "duration": 0.03488372093023173,
          "durationTicks": 3,
          "midi": 70,
          "name": "A#4",
          "ticks": 4598,
          "time": 53.46511627906977,
          "velocity": 0.09448818897637795
        },
        {
          "duration": 0.3953488372093048,
          "durationTicks": 34,
          "midi": 49,
          "name": "C#3",
          "ticks": 4599,
          "time": 53.47674418604651,
          "velocity": 0.2440944881889764
        },
        {
          "duration": 0.05813953488372192,
          "durationTicks": 5,
          "midi": 56,
          "name": "G#3",
          "ticks": 4602,
          "time": 53.51162790697674,
          "velocity": 0.12598425196850394
        },
        {
          "duration": 0.22093023255813904,
          "durationTicks": 19,
          "midi": 56,
          "name": "G#3",
          "ticks": 4610,
          "time": 53.604651162790695,
          "velocity": 0.29133858267716534
        },
        {
          "duration": 0.40697674418604635,
          "durationTicks": 35,
          "midi": 68,
          "name": "G#4",
          "ticks": 4633,
          "time": 53.872093023255815,
          "velocity": 0.2047244094488189
        },
        {
          "duration": 0.36046511627906597,
          "durationTicks": 31,
          "midi": 75,
          "name": "D#5",
          "ticks": 4633,
          "time": 53.872093023255815,
          "velocity": 0.07874015748031496
        },
        {
          "duration": 0.32558139534884134,
          "durationTicks": 28,
          "midi": 49,
          "name": "C#3",
          "ticks": 4634,
          "time": 53.883720930232556,
          "velocity": 0.1732283464566929
        },
        {
          "duration": 0.3604651162790731,
          "durationTicks": 31,
          "midi": 56,
          "name": "G#3",
          "ticks": 4634,
          "time": 53.883720930232556,
          "velocity": 0.2440944881889764
        },
        {
          "duration": 0.04651162790698038,
          "durationTicks": 4,
          "midi": 31,
          "name": "G1",
          "ticks": 4642,
          "time": 53.97674418604651,
          "velocity": 0.09448818897637795
        },
        {
          "duration": 0.046511627906973274,
          "durationTicks": 4,
          "midi": 31,
          "name": "G1",
          "ticks": 4649,
          "time": 54.05813953488372,
          "velocity": 0.09448818897637795
        },
        {
          "duration": 0.04651162790698038,
          "durationTicks": 4,
          "midi": 31,
          "name": "G1",
          "ticks": 4656,
          "time": 54.13953488372093,
          "velocity": 0.08661417322834646
        },
        {
          "duration": 0.5581395348837219,
          "durationTicks": 48,
          "midi": 61,
          "name": "C#4",
          "ticks": 4665,
          "time": 54.24418604651163,
          "velocity": 0.23622047244094488
        },
        {
          "duration": 0.02325581395349019,
          "durationTicks": 2,
          "midi": 34,
          "name": "A#1",
          "ticks": 4668,
          "time": 54.27906976744186,
          "velocity": 0.23622047244094488
        },
        {
          "duration": 0.17441860465116577,
          "durationTicks": 15,
          "midi": 75,
          "name": "D#5",
          "ticks": 4669,
          "time": 54.2906976744186,
          "velocity": 0.10236220472440945
        },
        {
          "duration": 0.17441860465116577,
          "durationTicks": 15,
          "midi": 80,
          "name": "G#5",
          "ticks": 4669,
          "time": 54.2906976744186,
          "velocity": 0.11023622047244094
        },
        {
          "duration": 0.17441860465115866,
          "durationTicks": 15,
          "midi": 49,
          "name": "C#3",
          "ticks": 4673,
          "time": 54.33720930232558,
          "velocity": 0.1889763779527559
        },
        {
          "duration": 0.08139534883721211,
          "durationTicks": 7,
          "midi": 31,
          "name": "G1",
          "ticks": 4674,
          "time": 54.348837209302324,
          "velocity": 0.09448818897637795
        },
        {
          "duration": 0.05813953488372192,
          "durationTicks": 5,
          "midi": 68,
          "name": "G#4",
          "ticks": 4680,
          "time": 54.41860465116279,
          "velocity": 0.10236220472440945
        },
        {
          "duration": 0.046511627906973274,
          "durationTicks": 4,
          "midi": 31,
          "name": "G1",
          "ticks": 4684,
          "time": 54.46511627906977,
          "velocity": 0.09448818897637795
        },
        {
          "duration": 0.3488372093023244,
          "durationTicks": 30,
          "midi": 66,
          "name": "F#4",
          "ticks": 4689,
          "time": 54.52325581395349,
          "velocity": 0.2047244094488189
        },
        {
          "duration": 0.03488372093023884,
          "durationTicks": 3,
          "midi": 54,
          "name": "F#3",
          "ticks": 4691,
          "time": 54.54651162790697,
          "velocity": 0.31496062992125984
        },
        {
          "duration": 0.023255813953483084,
          "durationTicks": 2,
          "midi": 55,
          "name": "G3",
          "ticks": 4694,
          "time": 54.58139534883721,
          "velocity": 0.33858267716535434
        },
        {
          "duration": 0.04651162790698038,
          "durationTicks": 4,
          "midi": 31,
          "name": "G1",
          "ticks": 4696,
          "time": 54.604651162790695,
          "velocity": 0.09448818897637795
        },
        {
          "duration": 0.02325581395349019,
          "durationTicks": 2,
          "midi": 54,
          "name": "F#3",
          "ticks": 4696,
          "time": 54.604651162790695,
          "velocity": 0.30708661417322836
        },
        {
          "duration": 0.03488372093023884,
          "durationTicks": 3,
          "midi": 54,
          "name": "F#3",
          "ticks": 4699,
          "time": 54.63953488372093,
          "velocity": 0.29133858267716534
        },
        {
          "duration": 0.023255813953483084,
          "durationTicks": 2,
          "midi": 55,
          "name": "G3",
          "ticks": 4702,
          "time": 54.674418604651166,
          "velocity": 0.29133858267716534
        },
        {
          "duration": 0.02325581395349019,
          "durationTicks": 2,
          "midi": 53,
          "name": "F3",
          "ticks": 4706,
          "time": 54.72093023255814,
          "velocity": 0.2440944881889764
        },
        {
          "duration": 0.03488372093023884,
          "durationTicks": 3,
          "midi": 32,
          "name": "G#1",
          "ticks": 4707,
          "time": 54.73255813953488,
          "velocity": 0.09448818897637795
        },
        {
          "duration": 0.05813953488372192,
          "durationTicks": 5,
          "midi": 54,
          "name": "F#3",
          "ticks": 4708,
          "time": 54.74418604651163,
          "velocity": 0.2755905511811024
        },
        {
          "duration": 0.046511627906973274,
          "durationTicks": 4,
          "midi": 31,
          "name": "G1",
          "ticks": 4710,
          "time": 54.76744186046512,
          "velocity": 0.08661417322834646
        },
        {
          "duration": 0.05813953488372192,
          "durationTicks": 5,
          "midi": 54,
          "name": "F#3",
          "ticks": 4714,
          "time": 54.81395348837209,
          "velocity": 0.18110236220472442
        },
        {
          "duration": 0.04651162790698038,
          "durationTicks": 4,
          "midi": 31,
          "name": "G1",
          "ticks": 4715,
          "time": 54.825581395348834,
          "velocity": 0.09448818897637795
        },
        {
          "duration": 0.22093023255813904,
          "durationTicks": 19,
          "midi": 68,
          "name": "G#4",
          "ticks": 4725,
          "time": 54.94186046511628,
          "velocity": 0.2125984251968504
        },
        {
          "duration": 0.2093023255813975,
          "durationTicks": 18,
          "midi": 75,
          "name": "D#5",
          "ticks": 4725,
          "time": 54.94186046511628,
          "velocity": 0.14173228346456693
        },
        {
          "duration": 0.1860465116279073,
          "durationTicks": 16,
          "midi": 56,
          "name": "G#3",
          "ticks": 4727,
          "time": 54.96511627906977,
          "velocity": 0.2992125984251969
        },
        {
          "duration": 0.03488372093023173,
          "durationTicks": 3,
          "midi": 50,
          "name": "D3",
          "ticks": 4729,
          "time": 54.98837209302326,
          "velocity": 0.14960629921259844
        },
        {
          "duration": 0.03488372093023173,
          "durationTicks": 3,
          "midi": 40,
          "name": "E2",
          "ticks": 4743,
          "time": 55.151162790697676,
          "velocity": 0.31496062992125984
        },
        {
          "duration": 0.08139534883721211,
          "durationTicks": 7,
          "midi": 53,
          "name": "F3",
          "ticks": 4744,
          "time": 55.16279069767442,
          "velocity": 0.2283464566929134
        },
        {
          "duration": 0.13953488372093403,
          "durationTicks": 12,
          "midi": 59,
          "name": "B3",
          "ticks": 4744,
          "time": 55.16279069767442,
          "velocity": 0.23622047244094488
        },
        {
          "duration": 0.2325581395348877,
          "durationTicks": 20,
          "midi": 63,
          "name": "D#4",
          "ticks": 4744,
          "time": 55.16279069767442,
          "velocity": 0.13385826771653545
        },
        {
          "duration": 0.2093023255813975,
          "durationTicks": 18,
          "midi": 78,
          "name": "F#5",
          "ticks": 4744,
          "time": 55.16279069767442,
          "velocity": 0.12598425196850394
        },
        {
          "duration": 0.25581395348837077,
          "durationTicks": 22,
          "midi": 66,
          "name": "F#4",
          "ticks": 4745,
          "time": 55.174418604651166,
          "velocity": 0.1732283464566929
        },
        {
          "duration": 0.03488372093023173,
          "durationTicks": 3,
          "midi": 47,
          "name": "B2",
          "ticks": 4747,
          "time": 55.19767441860465,
          "velocity": 0.16535433070866143
        },
        {
          "duration": 0.046511627906973274,
          "durationTicks": 4,
          "midi": 31,
          "name": "G1",
          "ticks": 4754,
          "time": 55.27906976744186,
          "velocity": 0.07874015748031496
        },
        {
          "duration": 0.05813953488372192,
          "durationTicks": 5,
          "midi": 47,
          "name": "B2",
          "ticks": 4756,
          "time": 55.30232558139535,
          "velocity": 0.15748031496062992
        },
        {
          "duration": 0.09302325581395365,
          "durationTicks": 8,
          "midi": 54,
          "name": "F#3",
          "ticks": 4757,
          "time": 55.31395348837209,
          "velocity": 0.14173228346456693
        },
        {
          "duration": 0.03488372093023173,
          "durationTicks": 3,
          "midi": 62,
          "name": "D4",
          "ticks": 4764,
          "time": 55.395348837209305,
          "velocity": 0.31496062992125984
        },
        {
          "duration": 0.02325581395349019,
          "durationTicks": 2,
          "midi": 51,
          "name": "D#3",
          "ticks": 4766,
          "time": 55.41860465116279,
          "velocity": 0.3464566929133858
        },
        {
          "duration": 0.3720930232558146,
          "durationTicks": 32,
          "midi": 75,
          "name": "D#5",
          "ticks": 4766,
          "time": 55.41860465116279,
          "velocity": 0.16535433070866143
        },
        {
          "duration": 0.5465116279069733,
          "durationTicks": 47,
          "midi": 63,
          "name": "D#4",
          "ticks": 4767,
          "time": 55.43023255813954,
          "velocity": 0.3543307086614173
        },
        {
          "duration": 0.5465116279069733,
          "durationTicks": 47,
          "midi": 70,
          "name": "A#4",
          "ticks": 4767,
          "time": 55.43023255813954,
          "velocity": 0.25196850393700787
        },
        {
          "duration": 0.16279069767441712,
          "durationTicks": 14,
          "midi": 66,
          "name": "F#4",
          "ticks": 4768,
          "time": 55.44186046511628,
          "velocity": 0.14173228346456693
        },
        {
          "duration": 0.2325581395348877,
          "durationTicks": 20,
          "midi": 79,
          "name": "G5",
          "ticks": 4768,
          "time": 55.44186046511628,
          "velocity": 0.07874015748031496
        },
        {
          "duration": 0.023255813953483084,
          "durationTicks": 2,
          "midi": 51,
          "name": "D#3",
          "ticks": 4769,
          "time": 55.45348837209303,
          "velocity": 0.31496062992125984
        },
        {
          "duration": 0.48837209302325846,
          "durationTicks": 42,
          "midi": 31,
          "name": "G1",
          "ticks": 4773,
          "time": 55.5,
          "velocity": 0.08661417322834646
        },
        {
          "duration": 0.06976744186046346,
          "durationTicks": 6,
          "midi": 51,
          "name": "D#3",
          "ticks": 4773,
          "time": 55.5,
          "velocity": 0.30708661417322836
        },
        {
          "duration": 0.023255813953483084,
          "durationTicks": 2,
          "midi": 51,
          "name": "D#3",
          "ticks": 4780,
          "time": 55.58139534883721,
          "velocity": 0.2677165354330709
        },
        {
          "duration": 0.023255813953483084,
          "durationTicks": 2,
          "midi": 51,
          "name": "D#3",
          "ticks": 4783,
          "time": 55.616279069767444,
          "velocity": 0.2440944881889764
        },
        {
          "duration": 1.2906976744186025,
          "durationTicks": 111,
          "midi": 66,
          "name": "F#4",
          "ticks": 4786,
          "time": 55.651162790697676,
          "velocity": 0.25984251968503935
        },
        {
          "duration": 0.02325581395349019,
          "durationTicks": 2,
          "midi": 51,
          "name": "D#3",
          "ticks": 4794,
          "time": 55.74418604651163,
          "velocity": 0.2440944881889764
        },
        {
          "duration": 0.023255813953483084,
          "durationTicks": 2,
          "midi": 51,
          "name": "D#3",
          "ticks": 4799,
          "time": 55.80232558139535,
          "velocity": 0.2283464566929134
        },
        {
          "duration": 0.02325581395349019,
          "durationTicks": 2,
          "midi": 51,
          "name": "D#3",
          "ticks": 4802,
          "time": 55.83720930232558,
          "velocity": 0.2440944881889764
        },
        {
          "duration": 0.02325581395349019,
          "durationTicks": 2,
          "midi": 51,
          "name": "D#3",
          "ticks": 4805,
          "time": 55.872093023255815,
          "velocity": 0.2440944881889764
        },
        {
          "duration": 0.02325581395349019,
          "durationTicks": 2,
          "midi": 51,
          "name": "D#3",
          "ticks": 4809,
          "time": 55.91860465116279,
          "velocity": 0.2440944881889764
        },
        {
          "duration": 0.03488372093023173,
          "durationTicks": 3,
          "midi": 47,
          "name": "B2",
          "ticks": 4816,
          "time": 56,
          "velocity": 0.14173228346456693
        },
        {
          "duration": 0.02325581395349019,
          "durationTicks": 2,
          "midi": 47,
          "name": "B2",
          "ticks": 4820,
          "time": 56.04651162790697,
          "velocity": 0.2283464566929134
        },
        {
          "duration": 0.046511627906973274,
          "durationTicks": 4,
          "midi": 63,
          "name": "D#4",
          "ticks": 4823,
          "time": 56.08139534883721,
          "velocity": 0.07874015748031496
        },
        {
          "duration": 0.02325581395349019,
          "durationTicks": 2,
          "midi": 54,
          "name": "F#3",
          "ticks": 4824,
          "time": 56.093023255813954,
          "velocity": 0.33858267716535434
        },
        {
          "duration": 0.4186046511627879,
          "durationTicks": 36,
          "midi": 54,
          "name": "F#3",
          "ticks": 4827,
          "time": 56.127906976744185,
          "velocity": 0.29133858267716534
        },
        {
          "duration": 0.25581395348837077,
          "durationTicks": 22,
          "midi": 31,
          "name": "G1",
          "ticks": 4837,
          "time": 56.24418604651163,
          "velocity": 0.07086614173228346
        },
        {
          "duration": 0.17441860465116577,
          "durationTicks": 15,
          "midi": 31,
          "name": "G1",
          "ticks": 4867,
          "time": 56.593023255813954,
          "velocity": 0.08661417322834646
        },
        {
          "duration": 0.05813953488372192,
          "durationTicks": 5,
          "midi": 47,
          "name": "B2",
          "ticks": 4873,
          "time": 56.66279069767442,
          "velocity": 0.10236220472440945
        },
        {
          "duration": 0.023255813953483084,
          "durationTicks": 2,
          "midi": 53,
          "name": "F3",
          "ticks": 4882,
          "time": 56.76744186046512,
          "velocity": 0.2440944881889764
        },
        {
          "duration": 0.04651162790698038,
          "durationTicks": 4,
          "midi": 54,
          "name": "F#3",
          "ticks": 4884,
          "time": 56.7906976744186,
          "velocity": 0.1732283464566929
        },
        {
          "duration": 0.16279069767441712,
          "durationTicks": 14,
          "midi": 31,
          "name": "G1",
          "ticks": 4885,
          "time": 56.80232558139535,
          "velocity": 0.07086614173228346
        },
        {
          "duration": 0.06976744186047057,
          "durationTicks": 6,
          "midi": 47,
          "name": "B2",
          "ticks": 4887,
          "time": 56.825581395348834,
          "velocity": 0.15748031496062992
        },
        {
          "duration": 0.08139534883721211,
          "durationTicks": 7,
          "midi": 54,
          "name": "F#3",
          "ticks": 4892,
          "time": 56.883720930232556,
          "velocity": 0.13385826771653545
        },
        {
          "duration": 0.2674418604651123,
          "durationTicks": 23,
          "midi": 47,
          "name": "B2",
          "ticks": 4898,
          "time": 56.95348837209303,
          "velocity": 0.18110236220472442
        },
        {
          "duration": 0.03488372093023173,
          "durationTicks": 3,
          "midi": 66,
          "name": "F#4",
          "ticks": 4899,
          "time": 56.96511627906977,
          "velocity": 0.08661417322834646
        },
        {
          "duration": 0.8488372093023244,
          "durationTicks": 73,
          "midi": 69,
          "name": "A4",
          "ticks": 4900,
          "time": 56.97674418604651,
          "velocity": 0.16535433070866143
        },
        {
          "duration": 0.17441860465115866,
          "durationTicks": 15,
          "midi": 57,
          "name": "A3",
          "ticks": 4901,
          "time": 56.98837209302326,
          "velocity": 0.2677165354330709
        },
        {
          "duration": 0.3953488372093048,
          "durationTicks": 34,
          "midi": 76,
          "name": "E5",
          "ticks": 4902,
          "time": 57,
          "velocity": 0.07086614173228346
        },
        {
          "duration": 0.03488372093023173,
          "durationTicks": 3,
          "midi": 31,
          "name": "G1",
          "ticks": 4905,
          "time": 57.03488372093023,
          "velocity": 0.07086614173228346
        },
        {
          "duration": 0.1046511627906952,
          "durationTicks": 9,
          "midi": 47,
          "name": "B2",
          "ticks": 4928,
          "time": 57.30232558139535,
          "velocity": 0.14960629921259844
        },
        {
          "duration": 0.06976744186046346,
          "durationTicks": 6,
          "midi": 47,
          "name": "B2",
          "ticks": 4940,
          "time": 57.44186046511628,
          "velocity": 0.1889763779527559
        },
        {
          "duration": 0.2674418604651194,
          "durationTicks": 23,
          "midi": 63,
          "name": "D#4",
          "ticks": 4940,
          "time": 57.44186046511628,
          "velocity": 0.11023622047244094
        },
        {
          "duration": 0.05813953488372192,
          "durationTicks": 5,
          "midi": 31,
          "name": "G1",
          "ticks": 4943,
          "time": 57.47674418604651,
          "velocity": 0.07086614173228346
        },
        {
          "duration": 0.03488372093023884,
          "durationTicks": 3,
          "midi": 31,
          "name": "G1",
          "ticks": 4949,
          "time": 57.54651162790697,
          "velocity": 0.07874015748031496
        },
        {
          "duration": 0.081395348837205,
          "durationTicks": 7,
          "midi": 47,
          "name": "B2",
          "ticks": 4950,
          "time": 57.55813953488372,
          "velocity": 0.18110236220472442
        },
        {
          "duration": 0.03488372093023173,
          "durationTicks": 3,
          "midi": 31,
          "name": "G1",
          "ticks": 4958,
          "time": 57.651162790697676,
          "velocity": 0.07086614173228346
        },
        {
          "duration": 0.1860465116279073,
          "durationTicks": 16,
          "midi": 47,
          "name": "B2",
          "ticks": 4958,
          "time": 57.651162790697676,
          "velocity": 0.1732283464566929
        },
        {
          "duration": 0.03488372093023173,
          "durationTicks": 3,
          "midi": 55,
          "name": "G3",
          "ticks": 4976,
          "time": 57.86046511627907,
          "velocity": 0.2283464566929134
        },
        {
          "duration": 0.2674418604651123,
          "durationTicks": 23,
          "midi": 66,
          "name": "F#4",
          "ticks": 4976,
          "time": 57.86046511627907,
          "velocity": 0.15748031496062992
        },
        {
          "duration": 0.2093023255813975,
          "durationTicks": 18,
          "midi": 70,
          "name": "A#4",
          "ticks": 4977,
          "time": 57.872093023255815,
          "velocity": 0.13385826771653545
        },
        {
          "duration": 0.16279069767441712,
          "durationTicks": 14,
          "midi": 58,
          "name": "A#3",
          "ticks": 4980,
          "time": 57.906976744186046,
          "velocity": 0.2440944881889764
        },
        {
          "duration": 0.046511627906973274,
          "durationTicks": 4,
          "midi": 54,
          "name": "F#3",
          "ticks": 4982,
          "time": 57.93023255813954,
          "velocity": 0.1732283464566929
        },
        {
          "duration": 0.17441860465115866,
          "durationTicks": 15,
          "midi": 47,
          "name": "B2",
          "ticks": 4985,
          "time": 57.96511627906977,
          "velocity": 0.1968503937007874
        },
        {
          "duration": 0.16279069767441712,
          "durationTicks": 14,
          "midi": 68,
          "name": "G#4",
          "ticks": 4999,
          "time": 58.127906976744185,
          "velocity": 0.11023622047244094
        },
        {
          "duration": 0.03488372093023884,
          "durationTicks": 3,
          "midi": 55,
          "name": "G3",
          "ticks": 5000,
          "time": 58.13953488372093,
          "velocity": 0.2755905511811024
        },
        {
          "duration": 0.15116279069767558,
          "durationTicks": 13,
          "midi": 47,
          "name": "B2",
          "ticks": 5001,
          "time": 58.151162790697676,
          "velocity": 0.15748031496062992
        },
        {
          "duration": 0.12790697674418539,
          "durationTicks": 11,
          "midi": 31,
          "name": "G1",
          "ticks": 5003,
          "time": 58.174418604651166,
          "velocity": 0.11023622047244094
        },
        {
          "duration": 0.02325581395349019,
          "durationTicks": 2,
          "midi": 55,
          "name": "G3",
          "ticks": 5004,
          "time": 58.18604651162791,
          "velocity": 0.2677165354330709
        },
        {
          "duration": 0.02325581395349019,
          "durationTicks": 2,
          "midi": 55,
          "name": "G3",
          "ticks": 5008,
          "time": 58.23255813953488,
          "velocity": 0.23622047244094488
        },
        {
          "duration": 0.02325581395349019,
          "durationTicks": 2,
          "midi": 35,
          "name": "B1",
          "ticks": 5017,
          "time": 58.33720930232558,
          "velocity": 0.2440944881889764
        },
        {
          "duration": 0.081395348837205,
          "durationTicks": 7,
          "midi": 47,
          "name": "B2",
          "ticks": 5017,
          "time": 58.33720930232558,
          "velocity": 0.2677165354330709
        },
        {
          "duration": 0.40697674418604635,
          "durationTicks": 35,
          "midi": 58,
          "name": "A#3",
          "ticks": 5018,
          "time": 58.348837209302324,
          "velocity": 0.2755905511811024
        },
        {
          "duration": 0.06976744186046346,
          "durationTicks": 6,
          "midi": 66,
          "name": "F#4",
          "ticks": 5018,
          "time": 58.348837209302324,
          "velocity": 0.15748031496062992
        },
        {
          "duration": 0.05813953488372192,
          "durationTicks": 5,
          "midi": 54,
          "name": "F#3",
          "ticks": 5020,
          "time": 58.372093023255815,
          "velocity": 0.2125984251968504
        },
        {
          "duration": 0.09302325581395365,
          "durationTicks": 8,
          "midi": 31,
          "name": "G1",
          "ticks": 5024,
          "time": 58.41860465116279,
          "velocity": 0.09448818897637795
        },
        {
          "duration": 0.04651162790698038,
          "durationTicks": 4,
          "midi": 46,
          "name": "A#2",
          "ticks": 5024,
          "time": 58.41860465116279,
          "velocity": 0.1968503937007874
        },
        {
          "duration": 0.03488372093023173,
          "durationTicks": 3,
          "midi": 31,
          "name": "G1",
          "ticks": 5033,
          "time": 58.52325581395349,
          "velocity": 0.11023622047244094
        },
        {
          "duration": 0.06976744186047057,
          "durationTicks": 6,
          "midi": 31,
          "name": "G1",
          "ticks": 5040,
          "time": 58.604651162790695,
          "velocity": 0.08661417322834646
        },
        {
          "duration": 0.05813953488372192,
          "durationTicks": 5,
          "midi": 31,
          "name": "G1",
          "ticks": 5047,
          "time": 58.68604651162791,
          "velocity": 0.08661417322834646
        },
        {
          "duration": 0.058139534883714816,
          "durationTicks": 5,
          "midi": 53,
          "name": "F3",
          "ticks": 5054,
          "time": 58.76744186046512,
          "velocity": 0.3937007874015748
        },
        {
          "duration": 0.5116279069767415,
          "durationTicks": 44,
          "midi": 61,
          "name": "C#4",
          "ticks": 5054,
          "time": 58.76744186046512,
          "velocity": 0.23622047244094488
        },
        {
          "duration": 0.15116279069767558,
          "durationTicks": 13,
          "midi": 66,
          "name": "F#4",
          "ticks": 5058,
          "time": 58.81395348837209,
          "velocity": 0.2125984251968504
        },
        {
          "duration": 0.05813953488372192,
          "durationTicks": 5,
          "midi": 42,
          "name": "F#2",
          "ticks": 5059,
          "time": 58.825581395348834,
          "velocity": 0.2440944881889764
        },
        {
          "duration": 0.1860465116279073,
          "durationTicks": 16,
          "midi": 54,
          "name": "F#3",
          "ticks": 5059,
          "time": 58.825581395348834,
          "velocity": 0.3543307086614173
        },
        {
          "duration": 0.7093023255813904,
          "durationTicks": 61,
          "midi": 42,
          "name": "F#2",
          "ticks": 5065,
          "time": 58.895348837209305,
          "velocity": 0.23622047244094488
        },
        {
          "duration": 0.5232558139534902,
          "durationTicks": 45,
          "midi": 66,
          "name": "F#4",
          "ticks": 5086,
          "time": 59.13953488372093,
          "velocity": 0.2125984251968504
        },
        {
          "duration": 0.058139534883714816,
          "durationTicks": 5,
          "midi": 31,
          "name": "G1",
          "ticks": 5124,
          "time": 59.58139534883721,
          "velocity": 0.16535433070866143
        },
        {
          "duration": 0.05813953488372192,
          "durationTicks": 5,
          "midi": 61,
          "name": "C#4",
          "ticks": 5127,
          "time": 59.616279069767444,
          "velocity": 0.15748031496062992
        },
        {
          "duration": 0.46511627906976827,
          "durationTicks": 40,
          "midi": 54,
          "name": "F#3",
          "ticks": 5130,
          "time": 59.651162790697676,
          "velocity": 0.30708661417322836
        },
        {
          "duration": 0.046511627906973274,
          "durationTicks": 4,
          "midi": 85,
          "name": "C#6",
          "ticks": 5135,
          "time": 59.7093023255814,
          "velocity": 0.08661417322834646
        },
        {
          "duration": 0.03488372093023173,
          "durationTicks": 3,
          "midi": 31,
          "name": "G1",
          "ticks": 5138,
          "time": 59.74418604651163,
          "velocity": 0.08661417322834646
        },
        {
          "duration": 0.046511627906973274,
          "durationTicks": 4,
          "midi": 49,
          "name": "C#3",
          "ticks": 5156,
          "time": 59.95348837209303,
          "velocity": 0.08661417322834646
        },
        {
          "duration": 0.05813953488372192,
          "durationTicks": 5,
          "midi": 31,
          "name": "G1",
          "ticks": 5157,
          "time": 59.96511627906977,
          "velocity": 0.09448818897637795
        },
        {
          "duration": 0.06976744186046346,
          "durationTicks": 6,
          "midi": 49,
          "name": "C#3",
          "ticks": 5165,
          "time": 60.05813953488372,
          "velocity": 0.18110236220472442
        },
        {
          "duration": 0.38372093023255616,
          "durationTicks": 33,
          "midi": 61,
          "name": "C#4",
          "ticks": 5170,
          "time": 60.116279069767444,
          "velocity": 0.2047244094488189
        },
        {
          "duration": 0.3720930232558146,
          "durationTicks": 32,
          "midi": 85,
          "name": "C#6",
          "ticks": 5172,
          "time": 60.13953488372093,
          "velocity": 0.10236220472440945
        },
        {
          "duration": 0.1046511627906952,
          "durationTicks": 9,
          "midi": 54,
          "name": "F#3",
          "ticks": 5181,
          "time": 60.24418604651163,
          "velocity": 0.11023622047244094
        },
        {
          "duration": 0.03488372093023173,
          "durationTicks": 3,
          "midi": 30,
          "name": "F#1",
          "ticks": 5206,
          "time": 60.53488372093023,
          "velocity": 0.16535433070866143
        },
        {
          "duration": 0.5232558139534902,
          "durationTicks": 45,
          "midi": 61,
          "name": "C#4",
          "ticks": 5208,
          "time": 60.55813953488372,
          "velocity": 0.2440944881889764
        },
        {
          "duration": 0.1860465116279073,
          "durationTicks": 16,
          "midi": 85,
          "name": "C#6",
          "ticks": 5208,
          "time": 60.55813953488372,
          "velocity": 0.13385826771653545
        },
        {
          "duration": 0.19767441860464885,
          "durationTicks": 17,
          "midi": 49,
          "name": "C#3",
          "ticks": 5213,
          "time": 60.616279069767444,
          "velocity": 0.2204724409448819
        },
        {
          "duration": 0.13953488372093403,
          "durationTicks": 12,
          "midi": 31,
          "name": "G1",
          "ticks": 5214,
          "time": 60.627906976744185,
          "velocity": 0.11811023622047244
        },
        {
          "duration": 0.16279069767442422,
          "durationTicks": 14,
          "midi": 56,
          "name": "G#3",
          "ticks": 5215,
          "time": 60.63953488372093,
          "velocity": 0.13385826771653545
        },
        {
          "duration": 0.03488372093023173,
          "durationTicks": 3,
          "midi": 65,
          "name": "F4",
          "ticks": 5225,
          "time": 60.75581395348837,
          "velocity": 0.13385826771653545
        },
        {
          "duration": 0.22093023255813904,
          "durationTicks": 19,
          "midi": 49,
          "name": "C#3",
          "ticks": 5231,
          "time": 60.825581395348834,
          "velocity": 0.15748031496062992
        },
        {
          "duration": 0.19767441860465595,
          "durationTicks": 17,
          "midi": 65,
          "name": "F4",
          "ticks": 5231,
          "time": 60.825581395348834,
          "velocity": 0.2440944881889764
        },
        {
          "duration": 0.1860465116279073,
          "durationTicks": 16,
          "midi": 84,
          "name": "C6",
          "ticks": 5231,
          "time": 60.825581395348834,
          "velocity": 0.09448818897637795
        },
        {
          "duration": 0.2093023255813904,
          "durationTicks": 18,
          "midi": 56,
          "name": "G#3",
          "ticks": 5232,
          "time": 60.83720930232558,
          "velocity": 0.11023622047244094
        },
        {
          "duration": 0.058139534883714816,
          "durationTicks": 5,
          "midi": 31,
          "name": "G1",
          "ticks": 5234,
          "time": 60.86046511627907,
          "velocity": 0.08661417322834646
        },
        {
          "duration": 0.4186046511627879,
          "durationTicks": 36,
          "midi": 68,
          "name": "G#4",
          "ticks": 5237,
          "time": 60.895348837209305,
          "velocity": 0.14960629921259844
        },
        {
          "duration": 0.06976744186046346,
          "durationTicks": 6,
          "midi": 31,
          "name": "G1",
          "ticks": 5240,
          "time": 60.93023255813954,
          "velocity": 0.08661417322834646
        },
        {
          "duration": 0.3953488372093048,
          "durationTicks": 34,
          "midi": 65,
          "name": "F4",
          "ticks": 5252,
          "time": 61.06976744186046,
          "velocity": 0.2677165354330709
        },
        {
          "duration": 0.2325581395348877,
          "durationTicks": 20,
          "midi": 84,
          "name": "C6",
          "ticks": 5252,
          "time": 61.06976744186046,
          "velocity": 0.11811023622047244
        },
        {
          "duration": 0.3604651162790731,
          "durationTicks": 31,
          "midi": 49,
          "name": "C#3",
          "ticks": 5254,
          "time": 61.093023255813954,
          "velocity": 0.2204724409448819
        },
        {
          "duration": 0.3604651162790731,
          "durationTicks": 31,
          "midi": 56,
          "name": "G#3",
          "ticks": 5254,
          "time": 61.093023255813954,
          "velocity": 0.1732283464566929
        },
        {
          "duration": 0.03488372093023173,
          "durationTicks": 3,
          "midi": 31,
          "name": "G1",
          "ticks": 5255,
          "time": 61.104651162790695,
          "velocity": 0.09448818897637795
        },
        {
          "duration": 0.2674418604651123,
          "durationTicks": 23,
          "midi": 31,
          "name": "G1",
          "ticks": 5259,
          "time": 61.151162790697676,
          "velocity": 0.08661417322834646
        },
        {
          "duration": 0.023255813953483084,
          "durationTicks": 2,
          "midi": 48,
          "name": "C3",
          "ticks": 5285,
          "time": 61.45348837209303,
          "velocity": 0.2440944881889764
        },
        {
          "duration": 0.24418604651162923,
          "durationTicks": 21,
          "midi": 56,
          "name": "G#3",
          "ticks": 5287,
          "time": 61.47674418604651,
          "velocity": 0.18110236220472442
        },
        {
          "duration": 0.19767441860464885,
          "durationTicks": 17,
          "midi": 65,
          "name": "F4",
          "ticks": 5288,
          "time": 61.48837209302326,
          "velocity": 0.2204724409448819
        },
        {
          "duration": 0.081395348837205,
          "durationTicks": 7,
          "midi": 84,
          "name": "C6",
          "ticks": 5288,
          "time": 61.48837209302326,
          "velocity": 0.07874015748031496
        },
        {
          "duration": 0.1860465116279073,
          "durationTicks": 16,
          "midi": 49,
          "name": "C#3",
          "ticks": 5292,
          "time": 61.53488372093023,
          "velocity": 0.18110236220472442
        },
        {
          "duration": 0.1046511627906952,
          "durationTicks": 9,
          "midi": 31,
          "name": "G1",
          "ticks": 5296,
          "time": 61.58139534883721,
          "velocity": 0.11023622047244094
        },
        {
          "duration": 0.3720930232558146,
          "durationTicks": 32,
          "midi": 65,
          "name": "F4",
          "ticks": 5309,
          "time": 61.73255813953488,
          "velocity": 0.25196850393700787
        },
        {
          "duration": 0.2093023255813975,
          "durationTicks": 18,
          "midi": 84,
          "name": "C6",
          "ticks": 5310,
          "time": 61.74418604651163,
          "velocity": 0.07874015748031496
        },
        {
          "duration": 0.2093023255813975,
          "durationTicks": 18,
          "midi": 49,
          "name": "C#3",
          "ticks": 5311,
          "time": 61.75581395348837,
          "velocity": 0.14960629921259844
        },
        {
          "duration": 0.16279069767441712,
          "durationTicks": 14,
          "midi": 56,
          "name": "G#3",
          "ticks": 5311,
          "time": 61.75581395348837,
          "velocity": 0.11811023622047244
        },
        {
          "duration": 0.09302325581395365,
          "durationTicks": 8,
          "midi": 31,
          "name": "G1",
          "ticks": 5316,
          "time": 61.81395348837209,
          "velocity": 0.09448818897637795
        },
        {
          "duration": 0.03488372093023884,
          "durationTicks": 3,
          "midi": 55,
          "name": "G3",
          "ticks": 5325,
          "time": 61.91860465116279,
          "velocity": 0.14173228346456693
        },
        {
          "duration": 0.05813953488372192,
          "durationTicks": 5,
          "midi": 31,
          "name": "G1",
          "ticks": 5326,
          "time": 61.93023255813954,
          "velocity": 0.10236220472440945
        },
        {
          "duration": 0.1046511627906952,
          "durationTicks": 9,
          "midi": 56,
          "name": "G#3",
          "ticks": 5328,
          "time": 61.95348837209303,
          "velocity": 0.12598425196850394
        },
        {
          "duration": 0.09302325581395365,
          "durationTicks": 8,
          "midi": 31,
          "name": "G1",
          "ticks": 5332,
          "time": 62,
          "velocity": 0.08661417322834646
        },
        {
          "duration": 0.03488372093023173,
          "durationTicks": 3,
          "midi": 49,
          "name": "C#3",
          "ticks": 5333,
          "time": 62.01162790697674,
          "velocity": 0.07086614173228346
        },
        {
          "duration": 0.03488372093023173,
          "durationTicks": 3,
          "midi": 48,
          "name": "C3",
          "ticks": 5342,
          "time": 62.116279069767444,
          "velocity": 0.1889763779527559
        },
        {
          "duration": 0.08139534883721211,
          "durationTicks": 7,
          "midi": 58,
          "name": "A#3",
          "ticks": 5344,
          "time": 62.13953488372093,
          "velocity": 0.1732283464566929
        },
        {
          "duration": 0.32558139534883423,
          "durationTicks": 28,
          "midi": 65,
          "name": "F4",
          "ticks": 5345,
          "time": 62.151162790697676,
          "velocity": 0.2677165354330709
        },
        {
          "duration": 0.19767441860465595,
          "durationTicks": 17,
          "midi": 84,
          "name": "C6",
          "ticks": 5346,
          "time": 62.16279069767442,
          "velocity": 0.09448818897637795
        },
        {
          "duration": 0.03488372093023173,
          "durationTicks": 3,
          "midi": 31,
          "name": "G1",
          "ticks": 5348,
          "time": 62.18604651162791,
          "velocity": 0.09448818897637795
        },
        {
          "duration": 0.06976744186046346,
          "durationTicks": 6,
          "midi": 49,
          "name": "C#3",
          "ticks": 5348,
          "time": 62.18604651162791,
          "velocity": 0.12598425196850394
        },
        {
          "duration": 0.03488372093023173,
          "durationTicks": 3,
          "midi": 54,
          "name": "F#3",
          "ticks": 5353,
          "time": 62.24418604651163,
          "velocity": 0.08661417322834646
        },
        {
          "duration": 0.023255813953483084,
          "durationTicks": 2,
          "midi": 48,
          "name": "C3",
          "ticks": 5363,
          "time": 62.36046511627907,
          "velocity": 0.25984251968503935
        },
        {
          "duration": 0.058139534883714816,
          "durationTicks": 5,
          "midi": 53,
          "name": "F3",
          "ticks": 5363,
          "time": 62.36046511627907,
          "velocity": 0.3543307086614173
        },
        {
          "duration": 0.32558139534883423,
          "durationTicks": 28,
          "midi": 59,
          "name": "B3",
          "ticks": 5367,
          "time": 62.406976744186046,
          "velocity": 0.10236220472440945
        },
        {
          "duration": 0.04651162790698038,
          "durationTicks": 4,
          "midi": 54,
          "name": "F#3",
          "ticks": 5368,
          "time": 62.41860465116279,
          "velocity": 0.2755905511811024
        },
        {
          "duration": 0.05813953488372192,
          "durationTicks": 5,
          "midi": 47,
          "name": "B2",
          "ticks": 5369,
          "time": 62.43023255813954,
          "velocity": 0.2755905511811024
        },
        {
          "duration": 0.05813953488372192,
          "durationTicks": 5,
          "midi": 54,
          "name": "F#3",
          "ticks": 5373,
          "time": 62.47674418604651,
          "velocity": 0.2204724409448819
        },
        {
          "duration": 0.046511627906973274,
          "durationTicks": 4,
          "midi": 47,
          "name": "B2",
          "ticks": 5375,
          "time": 62.5,
          "velocity": 0.25196850393700787
        },
        {
          "duration": 0.05813953488372192,
          "durationTicks": 5,
          "midi": 31,
          "name": "G1",
          "ticks": 5380,
          "time": 62.55813953488372,
          "velocity": 0.08661417322834646
        },
        {
          "duration": 0.02325581395349019,
          "durationTicks": 2,
          "midi": 47,
          "name": "B2",
          "ticks": 5380,
          "time": 62.55813953488372,
          "velocity": 0.25196850393700787
        },
        {
          "duration": 0.16279069767441712,
          "durationTicks": 14,
          "midi": 63,
          "name": "D#4",
          "ticks": 5381,
          "time": 62.56976744186046,
          "velocity": 0.07086614173228346
        },
        {
          "duration": 0.06976744186047057,
          "durationTicks": 6,
          "midi": 47,
          "name": "B2",
          "ticks": 5384,
          "time": 62.604651162790695,
          "velocity": 0.23622047244094488
        },
        {
          "duration": 0.11627906976743674,
          "durationTicks": 10,
          "midi": 54,
          "name": "F#3",
          "ticks": 5385,
          "time": 62.616279069767444,
          "velocity": 0.18110236220472442
        },
        {
          "duration": 0.05813953488372192,
          "durationTicks": 5,
          "midi": 31,
          "name": "G1",
          "ticks": 5386,
          "time": 62.627906976744185,
          "velocity": 0.08661417322834646
        },
        {
          "duration": 0.046511627906973274,
          "durationTicks": 4,
          "midi": 47,
          "name": "B2",
          "ticks": 5391,
          "time": 62.68604651162791,
          "velocity": 0.2204724409448819
        },
        {
          "duration": 0.02325581395349019,
          "durationTicks": 2,
          "midi": 31,
          "name": "G1",
          "ticks": 5395,
          "time": 62.73255813953488,
          "velocity": 0.2440944881889764
        },
        {
          "duration": 1.6279069767441854,
          "durationTicks": 140,
          "midi": 63,
          "name": "D#4",
          "ticks": 5396,
          "time": 62.74418604651163,
          "velocity": 0.29133858267716534
        },
        {
          "duration": 0.38372093023255616,
          "durationTicks": 33,
          "midi": 82,
          "name": "A#5",
          "ticks": 5396,
          "time": 62.74418604651163,
          "velocity": 0.13385826771653545
        },
        {
          "duration": 0.3720930232558146,
          "durationTicks": 32,
          "midi": 91,
          "name": "G6",
          "ticks": 5397,
          "time": 62.75581395348837,
          "velocity": 0.07874015748031496
        },
        {
          "duration": 0.25581395348837077,
          "durationTicks": 22,
          "midi": 47,
          "name": "B2",
          "ticks": 5398,
          "time": 62.76744186046512,
          "velocity": 0.2283464566929134
        },
        {
          "duration": 0.046511627906973274,
          "durationTicks": 4,
          "midi": 31,
          "name": "G1",
          "ticks": 5401,
          "time": 62.80232558139535,
          "velocity": 0.09448818897637795
        },
        {
          "duration": 0.08139534883721211,
          "durationTicks": 7,
          "midi": 54,
          "name": "F#3",
          "ticks": 5405,
          "time": 62.848837209302324,
          "velocity": 0.11811023622047244
        },
        {
          "duration": 0.2906976744186025,
          "durationTicks": 25,
          "midi": 31,
          "name": "G1",
          "ticks": 5406,
          "time": 62.86046511627907,
          "velocity": 0.09448818897637795
        },
        {
          "duration": 0.22093023255813904,
          "durationTicks": 19,
          "midi": 54,
          "name": "F#3",
          "ticks": 5419,
          "time": 63.01162790697674,
          "velocity": 0.16535433070866143
        },
        {
          "duration": 0.2325581395348877,
          "durationTicks": 20,
          "midi": 47,
          "name": "B2",
          "ticks": 5421,
          "time": 63.03488372093023,
          "velocity": 0.25984251968503935
        },
        {
          "duration": 0.03488372093023173,
          "durationTicks": 3,
          "midi": 31,
          "name": "G1",
          "ticks": 5433,
          "time": 63.174418604651166,
          "velocity": 0.09448818897637795
        },
        {
          "duration": 0.2674418604651123,
          "durationTicks": 23,
          "midi": 47,
          "name": "B2",
          "ticks": 5442,
          "time": 63.27906976744186,
          "velocity": 0.25196850393700787
        },
        {
          "duration": 0.3488372093023244,
          "durationTicks": 30,
          "midi": 31,
          "name": "G1",
          "ticks": 5445,
          "time": 63.31395348837209,
          "velocity": 0.09448818897637795
        },
        {
          "duration": 0.04651162790698038,
          "durationTicks": 4,
          "midi": 47,
          "name": "B2",
          "ticks": 5467,
          "time": 63.56976744186046,
          "velocity": 0.13385826771653545
        },
        {
          "duration": 0.023255813953483084,
          "durationTicks": 2,
          "midi": 43,
          "name": "G2",
          "ticks": 5500,
          "time": 63.95348837209303,
          "velocity": 0.23622047244094488
        },
        {
          "duration": 0.32558139534884134,
          "durationTicks": 28,
          "midi": 51,
          "name": "D#3",
          "ticks": 5501,
          "time": 63.96511627906977,
          "velocity": 0.2440944881889764
        },
        {
          "duration": 0.06976744186047057,
          "durationTicks": 6,
          "midi": 44,
          "name": "G#2",
          "ticks": 5502,
          "time": 63.97674418604651,
          "velocity": 0.23622047244094488
        },
        {
          "duration": 0.19767441860464885,
          "durationTicks": 17,
          "midi": 31,
          "name": "G1",
          "ticks": 5510,
          "time": 64.06976744186046,
          "velocity": 0.07874015748031496
        },
        {
          "duration": 0.08139534883721922,
          "durationTicks": 7,
          "midi": 31,
          "name": "G1",
          "ticks": 5528,
          "time": 64.27906976744185,
          "velocity": 0.12598425196850394
        },
        {
          "duration": 0.034883720930224626,
          "durationTicks": 3,
          "midi": 50,
          "name": "D3",
          "ticks": 5529,
          "time": 64.29069767441861,
          "velocity": 0.12598425196850394
        },
        {
          "duration": 0.03488372093023884,
          "durationTicks": 3,
          "midi": 49,
          "name": "C#3",
          "ticks": 5532,
          "time": 64.32558139534883,
          "velocity": 0.08661417322834646
        },
        {
          "duration": 0.12790697674418539,
          "durationTicks": 11,
          "midi": 31,
          "name": "G1",
          "ticks": 5543,
          "time": 64.45348837209302,
          "velocity": 0.07874015748031496
        },
        {
          "duration": 0.12790697674418539,
          "durationTicks": 11,
          "midi": 49,
          "name": "C#3",
          "ticks": 5544,
          "time": 64.46511627906976,
          "velocity": 0.13385826771653545
        },
        {
          "duration": 0.1046511627907023,
          "durationTicks": 9,
          "midi": 61,
          "name": "C#4",
          "ticks": 5557,
          "time": 64.61627906976744,
          "velocity": 0.15748031496062992
        },
        {
          "duration": 0.023255813953483084,
          "durationTicks": 2,
          "midi": 54,
          "name": "F#3",
          "ticks": 5558,
          "time": 64.62790697674419,
          "velocity": 0.33858267716535434
        },
        {
          "duration": 0.15116279069766847,
          "durationTicks": 13,
          "midi": 31,
          "name": "G1",
          "ticks": 5561,
          "time": 64.66279069767442,
          "velocity": 0.15748031496062992
        },
        {
          "duration": 0.034883720930224626,
          "durationTicks": 3,
          "midi": 54,
          "name": "F#3",
          "ticks": 5561,
          "time": 64.66279069767442,
          "velocity": 0.14960629921259844
        },
        {
          "duration": 0.023255813953497295,
          "durationTicks": 2,
          "midi": 49,
          "name": "C#3",
          "ticks": 5564,
          "time": 64.69767441860465,
          "velocity": 0.2677165354330709
        },
        {
          "duration": 0.023255813953483084,
          "durationTicks": 2,
          "midi": 48,
          "name": "C3",
          "ticks": 5566,
          "time": 64.72093023255815,
          "velocity": 0.25196850393700787
        },
        {
          "duration": 0.04651162790696617,
          "durationTicks": 4,
          "midi": 54,
          "name": "F#3",
          "ticks": 5566,
          "time": 64.72093023255815,
          "velocity": 0.2204724409448819
        },
        {
          "duration": 0.04651162790698038,
          "durationTicks": 4,
          "midi": 48,
          "name": "C3",
          "ticks": 5571,
          "time": 64.77906976744185,
          "velocity": 0.2677165354330709
        },
        {
          "duration": 0.05813953488372192,
          "durationTicks": 5,
          "midi": 54,
          "name": "F#3",
          "ticks": 5571,
          "time": 64.77906976744185,
          "velocity": 0.1968503937007874
        },
        {
          "duration": 0.23255813953487348,
          "durationTicks": 20,
          "midi": 63,
          "name": "D#4",
          "ticks": 5572,
          "time": 64.79069767441861,
          "velocity": 0.07874015748031496
        },
        {
          "duration": 0.19767441860466306,
          "durationTicks": 17,
          "midi": 31,
          "name": "G1",
          "ticks": 5576,
          "time": 64.83720930232558,
          "velocity": 0.15748031496062992
        },
        {
          "duration": 0.04651162790698038,
          "durationTicks": 4,
          "midi": 47,
          "name": "B2",
          "ticks": 5578,
          "time": 64.86046511627907,
          "velocity": 0.12598425196850394
        },
        {
          "duration": 0.05813953488372192,
          "durationTicks": 5,
          "midi": 47,
          "name": "B2",
          "ticks": 5584,
          "time": 64.93023255813954,
          "velocity": 0.12598425196850394
        },
        {
          "duration": 0.08139534883721922,
          "durationTicks": 7,
          "midi": 54,
          "name": "F#3",
          "ticks": 5586,
          "time": 64.95348837209302,
          "velocity": 0.13385826771653545
        },
        {
          "duration": 0.034883720930224626,
          "durationTicks": 3,
          "midi": 63,
          "name": "D#4",
          "ticks": 5594,
          "time": 65.04651162790698,
          "velocity": 0.08661417322834646
        },
        {
          "duration": 0.023255813953483084,
          "durationTicks": 2,
          "midi": 48,
          "name": "C3",
          "ticks": 5596,
          "time": 65.06976744186046,
          "velocity": 0.2677165354330709
        },
        {
          "duration": 0.11627906976744384,
          "durationTicks": 10,
          "midi": 59,
          "name": "B3",
          "ticks": 5596,
          "time": 65.06976744186046,
          "velocity": 0.1889763779527559
        },
        {
          "duration": 0.03488372093023884,
          "durationTicks": 3,
          "midi": 46,
          "name": "A#2",
          "ticks": 5598,
          "time": 65.09302325581395,
          "velocity": 0.15748031496062992
        },
        {
          "duration": 0.06976744186046346,
          "durationTicks": 6,
          "midi": 47,
          "name": "B2",
          "ticks": 5601,
          "time": 65.12790697674419,
          "velocity": 0.14960629921259844
        },
        {
          "duration": 0.13953488372092693,
          "durationTicks": 12,
          "midi": 63,
          "name": "D#4",
          "ticks": 5601,
          "time": 65.12790697674419,
          "velocity": 0.14960629921259844
        },
        {
          "duration": 0.1046511627907023,
          "durationTicks": 9,
          "midi": 31,
          "name": "G1",
          "ticks": 5603,
          "time": 65.15116279069767,
          "velocity": 0.14960629921259844
        },
        {
          "duration": 0.09302325581396076,
          "durationTicks": 8,
          "midi": 59,
          "name": "B3",
          "ticks": 5607,
          "time": 65.19767441860465,
          "velocity": 0.07874015748031496
        },
        {
          "duration": 0.06976744186046346,
          "durationTicks": 6,
          "midi": 47,
          "name": "B2",
          "ticks": 5608,
          "time": 65.20930232558139,
          "velocity": 0.13385826771653545
        },
        {
          "duration": 0.05813953488372192,
          "durationTicks": 5,
          "midi": 31,
          "name": "G1",
          "ticks": 5613,
          "time": 65.26744186046511,
          "velocity": 0.15748031496062992
        },
        {
          "duration": 0.08139534883721922,
          "durationTicks": 7,
          "midi": 54,
          "name": "F#3",
          "ticks": 5613,
          "time": 65.26744186046511,
          "velocity": 0.14173228346456693
        },
        {
          "duration": 0.03488372093023884,
          "durationTicks": 3,
          "midi": 59,
          "name": "B3",
          "ticks": 5619,
          "time": 65.33720930232558,
          "velocity": 0.08661417322834646
        },
        {
          "duration": 0.11627906976742963,
          "durationTicks": 10,
          "midi": 31,
          "name": "G1",
          "ticks": 5620,
          "time": 65.34883720930233,
          "velocity": 0.15748031496062992
        },
        {
          "duration": 0.09302325581394655,
          "durationTicks": 8,
          "midi": 54,
          "name": "F#3",
          "ticks": 5621,
          "time": 65.36046511627907,
          "velocity": 0.10236220472440945
        },
        {
          "duration": 0.04651162790698038,
          "durationTicks": 4,
          "midi": 54,
          "name": "F#3",
          "ticks": 5630,
          "time": 65.46511627906976,
          "velocity": 0.08661417322834646
        },
        {
          "duration": 0.034883720930224626,
          "durationTicks": 3,
          "midi": 58,
          "name": "A#3",
          "ticks": 5638,
          "time": 65.55813953488372,
          "velocity": 0.12598425196850394
        },
        {
          "duration": 0.15116279069768268,
          "durationTicks": 13,
          "midi": 54,
          "name": "F#3",
          "ticks": 5639,
          "time": 65.56976744186046,
          "velocity": 0.13385826771653545
        },
        {
          "duration": 0.04651162790698038,
          "durationTicks": 4,
          "midi": 31,
          "name": "G1",
          "ticks": 5640,
          "time": 65.5813953488372,
          "velocity": 0.15748031496062992
        },
        {
          "duration": 0.081395348837205,
          "durationTicks": 7,
          "midi": 58,
          "name": "A#3",
          "ticks": 5643,
          "time": 65.61627906976744,
          "velocity": 0.15748031496062992
        },
        {
          "duration": 0.05813953488372192,
          "durationTicks": 5,
          "midi": 31,
          "name": "G1",
          "ticks": 5645,
          "time": 65.63953488372093,
          "velocity": 0.15748031496062992
        },
        {
          "duration": 0.034883720930224626,
          "durationTicks": 3,
          "midi": 31,
          "name": "G1",
          "ticks": 5654,
          "time": 65.74418604651163,
          "velocity": 0.2204724409448819
        },
        {
          "duration": 0.15116279069768268,
          "durationTicks": 13,
          "midi": 58,
          "name": "A#3",
          "ticks": 5657,
          "time": 65.77906976744185,
          "velocity": 0.2047244094488189
        },
        {
          "duration": 0.03488372093023884,
          "durationTicks": 3,
          "midi": 48,
          "name": "C3",
          "ticks": 5672,
          "time": 65.95348837209302,
          "velocity": 0.25196850393700787
        },
        {
          "duration": 0.06976744186047767,
          "durationTicks": 6,
          "midi": 61,
          "name": "C#4",
          "ticks": 5673,
          "time": 65.96511627906976,
          "velocity": 0.14960629921259844
        },
        {
          "duration": 0.04651162790698038,
          "durationTicks": 4,
          "midi": 66,
          "name": "F#4",
          "ticks": 5676,
          "time": 66,
          "velocity": 0.11811023622047244
        },
        {
          "duration": 0.023255813953483084,
          "durationTicks": 2,
          "midi": 55,
          "name": "G3",
          "ticks": 5679,
          "time": 66.03488372093024,
          "velocity": 0.29133858267716534
        },
        {
          "duration": 0.5697674418604635,
          "durationTicks": 49,
          "midi": 61,
          "name": "C#4",
          "ticks": 5680,
          "time": 66.04651162790698,
          "velocity": 0.1968503937007874
        },
        {
          "duration": 0.034883720930224626,
          "durationTicks": 3,
          "midi": 31,
          "name": "G1",
          "ticks": 5681,
          "time": 66.05813953488372,
          "velocity": 0.14960629921259844
        },
        {
          "duration": 0.16279069767442422,
          "durationTicks": 14,
          "midi": 54,
          "name": "F#3",
          "ticks": 5681,
          "time": 66.05813953488372,
          "velocity": 0.36220472440944884
        },
        {
          "duration": 0.05813953488372192,
          "durationTicks": 5,
          "midi": 31,
          "name": "G1",
          "ticks": 5687,
          "time": 66.12790697674419,
          "velocity": 0.16535433070866143
        },
        {
          "duration": 0.6279069767441854,
          "durationTicks": 54,
          "midi": 49,
          "name": "C#3",
          "ticks": 5693,
          "time": 66.19767441860465,
          "velocity": 0.2677165354330709
        },
        {
          "duration": 0.03488372093023884,
          "durationTicks": 3,
          "midi": 31,
          "name": "G1",
          "ticks": 5699,
          "time": 66.26744186046511,
          "velocity": 0.16535433070866143
        },
        {
          "duration": 0.04651162790698038,
          "durationTicks": 4,
          "midi": 54,
          "name": "F#3",
          "ticks": 5700,
          "time": 66.27906976744185,
          "velocity": 0.16535433070866143
        },
        {
          "duration": 0.04651162790698038,
          "durationTicks": 4,
          "midi": 54,
          "name": "F#3",
          "ticks": 5709,
          "time": 66.38372093023256,
          "velocity": 0.12598425196850394
        },
        {
          "duration": 0.04651162790698038,
          "durationTicks": 4,
          "midi": 31,
          "name": "G1",
          "ticks": 5742,
          "time": 66.76744186046511,
          "velocity": 0.1889763779527559
        },
        {
          "duration": 0.06976744186046346,
          "durationTicks": 6,
          "midi": 68,
          "name": "G#4",
          "ticks": 5747,
          "time": 66.82558139534883,
          "velocity": 0.2755905511811024
        },
        {
          "duration": 0.03488372093023884,
          "durationTicks": 3,
          "midi": 31,
          "name": "G1",
          "ticks": 5748,
          "time": 66.83720930232558,
          "velocity": 0.14960629921259844
        },
        {
          "duration": 0.4534883720930196,
          "durationTicks": 39,
          "midi": 61,
          "name": "C#4",
          "ticks": 5749,
          "time": 66.84883720930233,
          "velocity": 0.2283464566929134
        },
        {
          "duration": 0.3372093023255758,
          "durationTicks": 29,
          "midi": 70,
          "name": "A#4",
          "ticks": 5754,
          "time": 66.90697674418605,
          "velocity": 0.23622047244094488
        },
        {
          "duration": 0.06976744186046346,
          "durationTicks": 6,
          "midi": 31,
          "name": "G1",
          "ticks": 5755,
          "time": 66.9186046511628,
          "velocity": 0.16535433070866143
        },
        {
          "duration": 0.03488372093023884,
          "durationTicks": 3,
          "midi": 49,
          "name": "C#3",
          "ticks": 5758,
          "time": 66.95348837209302,
          "velocity": 0.12598425196850394
        },
        {
          "duration": 0.25581395348837077,
          "durationTicks": 22,
          "midi": 31,
          "name": "G1",
          "ticks": 5762,
          "time": 67,
          "velocity": 0.16535433070866143
        },
        {
          "duration": 0.05813953488372192,
          "durationTicks": 5,
          "midi": 49,
          "name": "C#3",
          "ticks": 5762,
          "time": 67,
          "velocity": 0.13385826771653545
        },
        {
          "duration": 0.22093023255814614,
          "durationTicks": 19,
          "midi": 49,
          "name": "C#3",
          "ticks": 5768,
          "time": 67.06976744186046,
          "velocity": 0.15748031496062992
        },
        {
          "duration": 0.04651162790698038,
          "durationTicks": 4,
          "midi": 31,
          "name": "G1",
          "ticks": 5785,
          "time": 67.26744186046511,
          "velocity": 0.2047244094488189
        },
        {
          "duration": 0.3604651162790731,
          "durationTicks": 31,
          "midi": 70,
          "name": "A#4",
          "ticks": 5788,
          "time": 67.30232558139535,
          "velocity": 0.2204724409448819
        },
        {
          "duration": 0.19767441860464885,
          "durationTicks": 17,
          "midi": 61,
          "name": "C#4",
          "ticks": 5789,
          "time": 67.31395348837209,
          "velocity": 0.1732283464566929
        },
        {
          "duration": 0.03488372093023884,
          "durationTicks": 3,
          "midi": 31,
          "name": "G1",
          "ticks": 5791,
          "time": 67.33720930232558,
          "velocity": 0.16535433070866143
        },
        {
          "duration": 0.15116279069768268,
          "durationTicks": 13,
          "midi": 54,
          "name": "F#3",
          "ticks": 5791,
          "time": 67.33720930232558,
          "velocity": 0.13385826771653545
        },
        {
          "duration": 0.081395348837205,
          "durationTicks": 7,
          "midi": 54,
          "name": "F#3",
          "ticks": 5811,
          "time": 67.56976744186046,
          "velocity": 0.18110236220472442
        },
        {
          "duration": 0.06976744186046346,
          "durationTicks": 6,
          "midi": 58,
          "name": "A#3",
          "ticks": 5811,
          "time": 67.56976744186046,
          "velocity": 0.07086614173228346
        },
        {
          "duration": 0.023255813953483084,
          "durationTicks": 2,
          "midi": 44,
          "name": "G#2",
          "ticks": 5826,
          "time": 67.74418604651163,
          "velocity": 0.33858267716535434
        },
        {
          "duration": 0.22093023255813193,
          "durationTicks": 19,
          "midi": 70,
          "name": "A#4",
          "ticks": 5826,
          "time": 67.74418604651163,
          "velocity": 0.2204724409448819
        },
        {
          "duration": 0.7674418604651123,
          "durationTicks": 66,
          "midi": 61,
          "name": "C#4",
          "ticks": 5827,
          "time": 67.75581395348837,
          "velocity": 0.30708661417322836
        },
        {
          "duration": 0.7906976744186096,
          "durationTicks": 68,
          "midi": 68,
          "name": "G#4",
          "ticks": 5829,
          "time": 67.77906976744185,
          "velocity": 0.3937007874015748
        },
        {
          "duration": 0.15116279069766847,
          "durationTicks": 13,
          "midi": 31,
          "name": "G1",
          "ticks": 5831,
          "time": 67.80232558139535,
          "velocity": 0.16535433070866143
        },
        {
          "duration": 0.7906976744186096,
          "durationTicks": 68,
          "midi": 49,
          "name": "C#3",
          "ticks": 5832,
          "time": 67.81395348837209,
          "velocity": 0.29133858267716534
        },
        {
          "duration": 0.3720930232558146,
          "durationTicks": 32,
          "midi": 56,
          "name": "G#3",
          "ticks": 5835,
          "time": 67.84883720930233,
          "velocity": 0.2283464566929134
        },
        {
          "duration": 0.06976744186046346,
          "durationTicks": 6,
          "midi": 31,
          "name": "G1",
          "ticks": 5846,
          "time": 67.97674418604652,
          "velocity": 0.1732283464566929
        },
        {
          "duration": 0.081395348837205,
          "durationTicks": 7,
          "midi": 31,
          "name": "G1",
          "ticks": 5853,
          "time": 68.05813953488372,
          "velocity": 0.15748031496062992
        },
        {
          "duration": 0.38372093023255616,
          "durationTicks": 33,
          "midi": 56,
          "name": "G#3",
          "ticks": 5868,
          "time": 68.23255813953489,
          "velocity": 0.1889763779527559
        },
        {
          "duration": 0.27906976744186807,
          "durationTicks": 24,
          "midi": 31,
          "name": "G1",
          "ticks": 5870,
          "time": 68.25581395348837,
          "velocity": 0.16535433070866143
        },
        {
          "duration": 0.034883720930224626,
          "durationTicks": 3,
          "midi": 31,
          "name": "G1",
          "ticks": 5896,
          "time": 68.55813953488372,
          "velocity": 0.18110236220472442
        },
        {
          "duration": 0.023255813953497295,
          "durationTicks": 2,
          "midi": 32,
          "name": "G#1",
          "ticks": 5899,
          "time": 68.59302325581395,
          "velocity": 0.2283464566929134
        },
        {
          "duration": 0.255813953488385,
          "durationTicks": 22,
          "midi": 68,
          "name": "G#4",
          "ticks": 5899,
          "time": 68.59302325581395,
          "velocity": 0.3858267716535433
        },
        {
          "duration": 0.023255813953483084,
          "durationTicks": 2,
          "midi": 31,
          "name": "G1",
          "ticks": 5901,
          "time": 68.61627906976744,
          "velocity": 0.25984251968503935
        },
        {
          "duration": 0.034883720930224626,
          "durationTicks": 3,
          "midi": 55,
          "name": "G3",
          "ticks": 5905,
          "time": 68.66279069767442,
          "velocity": 0.2125984251968504
        },
        {
          "duration": 0.06976744186046346,
          "durationTicks": 6,
          "midi": 61,
          "name": "C#4",
          "ticks": 5907,
          "time": 68.68604651162791,
          "velocity": 0.08661417322834646
        },
        {
          "duration": 0.418604651162795,
          "durationTicks": 36,
          "midi": 56,
          "name": "G#3",
          "ticks": 5908,
          "time": 68.69767441860465,
          "velocity": 0.2047244094488189
        },
        {
          "duration": 0.2093023255813904,
          "durationTicks": 18,
          "midi": 31,
          "name": "G1",
          "ticks": 5910,
          "time": 68.72093023255815,
          "velocity": 0.16535433070866143
        },
        {
          "duration": 0.5232558139534831,
          "durationTicks": 45,
          "midi": 49,
          "name": "C#3",
          "ticks": 5910,
          "time": 68.72093023255815,
          "velocity": 0.25984251968503935
        },
        {
          "duration": 0.04651162790696617,
          "durationTicks": 4,
          "midi": 67,
          "name": "G4",
          "ticks": 5921,
          "time": 68.84883720930233,
          "velocity": 0.30708661417322836
        },
        {
          "duration": 0.2906976744186096,
          "durationTicks": 25,
          "midi": 66,
          "name": "F#4",
          "ticks": 5925,
          "time": 68.8953488372093,
          "velocity": 0.28346456692913385
        },
        {
          "duration": 0.17441860465116577,
          "durationTicks": 15,
          "midi": 31,
          "name": "G1",
          "ticks": 5929,
          "time": 68.94186046511628,
          "velocity": 0.16535433070866143
        },
        {
          "duration": 0.13953488372092693,
          "durationTicks": 12,
          "midi": 56,
          "name": "G#3",
          "ticks": 5945,
          "time": 69.12790697674419,
          "velocity": 0.2047244094488189
        },
        {
          "duration": 0.08139534883721922,
          "durationTicks": 7,
          "midi": 31,
          "name": "G1",
          "ticks": 5946,
          "time": 69.13953488372093,
          "velocity": 0.16535433070866143
        },
        {
          "duration": 0.023255813953483084,
          "durationTicks": 2,
          "midi": 48,
          "name": "C3",
          "ticks": 5955,
          "time": 69.24418604651163,
          "velocity": 0.23622047244094488
        },
        {
          "duration": 1.2093023255813904,
          "durationTicks": 104,
          "midi": 68,
          "name": "G#4",
          "ticks": 5955,
          "time": 69.24418604651163,
          "velocity": 0.4015748031496063
        },
        {
          "duration": 0.05813953488372192,
          "durationTicks": 5,
          "midi": 61,
          "name": "C#4",
          "ticks": 5956,
          "time": 69.25581395348837,
          "velocity": 0.13385826771653545
        },
        {
          "duration": 0.05813953488372192,
          "durationTicks": 5,
          "midi": 55,
          "name": "G3",
          "ticks": 5957,
          "time": 69.26744186046511,
          "velocity": 0.1968503937007874
        },
        {
          "duration": 0.034883720930224626,
          "durationTicks": 3,
          "midi": 49,
          "name": "C#3",
          "ticks": 5959,
          "time": 69.29069767441861,
          "velocity": 0.15748031496062992
        },
        {
          "duration": 0.22093023255814614,
          "durationTicks": 19,
          "midi": 31,
          "name": "G1",
          "ticks": 5961,
          "time": 69.31395348837209,
          "velocity": 0.16535433070866143
        },
        {
          "duration": 0.03488372093023884,
          "durationTicks": 3,
          "midi": 54,
          "name": "F#3",
          "ticks": 5962,
          "time": 69.32558139534883,
          "velocity": 0.14173228346456693
        },
        {
          "duration": 0.03488372093023884,
          "durationTicks": 3,
          "midi": 54,
          "name": "F#3",
          "ticks": 5966,
          "time": 69.37209302325581,
          "velocity": 0.13385826771653545
        },
        {
          "duration": 0.034883720930224626,
          "durationTicks": 3,
          "midi": 49,
          "name": "C#3",
          "ticks": 5970,
          "time": 69.4186046511628,
          "velocity": 0.07086614173228346
        },
        {
          "duration": 0.023255813953483084,
          "durationTicks": 2,
          "midi": 34,
          "name": "A#1",
          "ticks": 5981,
          "time": 69.54651162790698,
          "velocity": 0.2283464566929134
        },
        {
          "duration": 0.023255813953483084,
          "durationTicks": 2,
          "midi": 46,
          "name": "A#2",
          "ticks": 5983,
          "time": 69.56976744186046,
          "velocity": 0.2755905511811024
        },
        {
          "duration": 0.023255813953483084,
          "durationTicks": 2,
          "midi": 54,
          "name": "F#3",
          "ticks": 5983,
          "time": 69.56976744186046,
          "velocity": 0.3858267716535433
        },
        {
          "duration": 0.10465116279068809,
          "durationTicks": 9,
          "midi": 47,
          "name": "B2",
          "ticks": 5986,
          "time": 69.6046511627907,
          "velocity": 0.30708661417322836
        },
        {
          "duration": 0.2906976744185954,
          "durationTicks": 25,
          "midi": 54,
          "name": "F#3",
          "ticks": 5986,
          "time": 69.6046511627907,
          "velocity": 0.3700787401574803
        },
        {
          "duration": 0.8023255813953512,
          "durationTicks": 69,
          "midi": 31,
          "name": "G1",
          "ticks": 5988,
          "time": 69.62790697674419,
          "velocity": 0.1968503937007874
        },
        {
          "duration": 0.7093023255813904,
          "durationTicks": 61,
          "midi": 47,
          "name": "B2",
          "ticks": 5996,
          "time": 69.72093023255815,
          "velocity": 0.2755905511811024
        },
        {
          "duration": 0.40697674418603924,
          "durationTicks": 35,
          "midi": 63,
          "name": "D#4",
          "ticks": 6007,
          "time": 69.84883720930233,
          "velocity": 0.08661417322834646
        },
        {
          "duration": 0.11627906976742963,
          "durationTicks": 10,
          "midi": 54,
          "name": "F#3",
          "ticks": 6012,
          "time": 69.90697674418605,
          "velocity": 0.1889763779527559
        },
        {
          "duration": 0.04651162790698038,
          "durationTicks": 4,
          "midi": 66,
          "name": "F#4",
          "ticks": 6025,
          "time": 70.05813953488372,
          "velocity": 0.15748031496062992
        },
        {
          "duration": 0.15116279069768268,
          "durationTicks": 13,
          "midi": 54,
          "name": "F#3",
          "ticks": 6026,
          "time": 70.06976744186046,
          "velocity": 0.11811023622047244
        },
        {
          "duration": 0.04651162790696617,
          "durationTicks": 4,
          "midi": 66,
          "name": "F#4",
          "ticks": 6040,
          "time": 70.23255813953489,
          "velocity": 0.13385826771653545
        },
        {
          "duration": 0.04651162790698038,
          "durationTicks": 4,
          "midi": 66,
          "name": "F#4",
          "ticks": 6053,
          "time": 70.38372093023256,
          "velocity": 0.09448818897637795
        },
        {
          "duration": 0.023255813953497295,
          "durationTicks": 2,
          "midi": 53,
          "name": "F3",
          "ticks": 6059,
          "time": 70.45348837209302,
          "velocity": 0.33858267716535434
        },
        {
          "duration": 0.023255813953483084,
          "durationTicks": 2,
          "midi": 54,
          "name": "F#3",
          "ticks": 6061,
          "time": 70.47674418604652,
          "velocity": 0.31496062992125984
        },
        {
          "duration": 0.5232558139534831,
          "durationTicks": 45,
          "midi": 59,
          "name": "B3",
          "ticks": 6061,
          "time": 70.47674418604652,
          "velocity": 0.2755905511811024
        },
        {
          "duration": 0.023255813953483084,
          "durationTicks": 2,
          "midi": 68,
          "name": "G#4",
          "ticks": 6061,
          "time": 70.47674418604652,
          "velocity": 0.25984251968503935
        },
        {
          "duration": 0.6046511627906881,
          "durationTicks": 52,
          "midi": 63,
          "name": "D#4",
          "ticks": 6062,
          "time": 70.48837209302326,
          "velocity": 0.14173228346456693
        },
        {
          "duration": 0.081395348837205,
          "durationTicks": 7,
          "midi": 66,
          "name": "F#4",
          "ticks": 6063,
          "time": 70.5,
          "velocity": 0.07086614173228346
        },
        {
          "duration": 0.03488372093023884,
          "durationTicks": 3,
          "midi": 69,
          "name": "A4",
          "ticks": 6063,
          "time": 70.5,
          "velocity": 0.25984251968503935
        },
        {
          "duration": 1.2906976744186096,
          "durationTicks": 111,
          "midi": 47,
          "name": "B2",
          "ticks": 6065,
          "time": 70.52325581395348,
          "velocity": 0.31496062992125984
        },
        {
          "duration": 0.04651162790696617,
          "durationTicks": 4,
          "midi": 54,
          "name": "F#3",
          "ticks": 6066,
          "time": 70.53488372093024,
          "velocity": 0.2440944881889764
        },
        {
          "duration": 0.4534883720930196,
          "durationTicks": 39,
          "midi": 70,
          "name": "A#4",
          "ticks": 6066,
          "time": 70.53488372093024,
          "velocity": 0.2047244094488189
        },
        {
          "duration": 0.3720930232558146,
          "durationTicks": 32,
          "midi": 31,
          "name": "G1",
          "ticks": 6069,
          "time": 70.56976744186046,
          "velocity": 0.15748031496062992
        },
        {
          "duration": 0.05813953488372192,
          "durationTicks": 5,
          "midi": 54,
          "name": "F#3",
          "ticks": 6088,
          "time": 70.79069767441861,
          "velocity": 0.11023622047244094
        },
        {
          "duration": 0.04651162790698038,
          "durationTicks": 4,
          "midi": 54,
          "name": "F#3",
          "ticks": 6118,
          "time": 71.13953488372093,
          "velocity": 0.14173228346456693
        },
        {
          "duration": 0.2093023255814046,
          "durationTicks": 18,
          "midi": 47,
          "name": "B2",
          "ticks": 6177,
          "time": 71.82558139534883,
          "velocity": 0.2440944881889764
        },
        {
          "duration": 0.19767441860466306,
          "durationTicks": 17,
          "midi": 54,
          "name": "F#3",
          "ticks": 6178,
          "time": 71.83720930232558,
          "velocity": 0.1732283464566929
        },
        {
          "duration": 0.1860465116279073,
          "durationTicks": 16,
          "midi": 47,
          "name": "B2",
          "ticks": 6196,
          "time": 72.04651162790698,
          "velocity": 0.16535433070866143
        },
        {
          "duration": 0.2093023255813904,
          "durationTicks": 18,
          "midi": 54,
          "name": "F#3",
          "ticks": 6196,
          "time": 72.04651162790698,
          "velocity": 0.1968503937007874
        },
        {
          "duration": 0.5,
          "durationTicks": 43,
          "midi": 47,
          "name": "B2",
          "ticks": 6213,
          "time": 72.24418604651163,
          "velocity": 0.25984251968503935
        },
        {
          "duration": 0.2325581395348877,
          "durationTicks": 20,
          "midi": 63,
          "name": "D#4",
          "ticks": 6214,
          "time": 72.25581395348837,
          "velocity": 0.18110236220472442
        },
        {
          "duration": 0.13953488372092693,
          "durationTicks": 12,
          "midi": 66,
          "name": "F#4",
          "ticks": 6214,
          "time": 72.25581395348837,
          "velocity": 0.07874015748031496
        },
        {
          "duration": 0.2325581395348877,
          "durationTicks": 20,
          "midi": 54,
          "name": "F#3",
          "ticks": 6215,
          "time": 72.26744186046511,
          "velocity": 0.15748031496062992
        },
        {
          "duration": 0.19767441860464885,
          "durationTicks": 17,
          "midi": 70,
          "name": "A#4",
          "ticks": 6218,
          "time": 72.30232558139535,
          "velocity": 0.2125984251968504
        },
        {
          "duration": 0.17441860465116577,
          "durationTicks": 15,
          "midi": 68,
          "name": "G#4",
          "ticks": 6237,
          "time": 72.52325581395348,
          "velocity": 0.18110236220472442
        },
        {
          "duration": 0.12790697674418539,
          "durationTicks": 11,
          "midi": 54,
          "name": "F#3",
          "ticks": 6238,
          "time": 72.53488372093024,
          "velocity": 0.07874015748031496
        },
        {
          "duration": 0.418604651162795,
          "durationTicks": 36,
          "midi": 70,
          "name": "A#4",
          "ticks": 6257,
          "time": 72.75581395348837,
          "velocity": 0.29133858267716534
        },
        {
          "duration": 0.13953488372094114,
          "durationTicks": 12,
          "midi": 54,
          "name": "F#3",
          "ticks": 6258,
          "time": 72.76744186046511,
          "velocity": 0.1968503937007874
        },
        {
          "duration": 0.09302325581396076,
          "durationTicks": 8,
          "midi": 47,
          "name": "B2",
          "ticks": 6259,
          "time": 72.77906976744185,
          "velocity": 0.1968503937007874
        },
        {
          "duration": 0.04651162790696617,
          "durationTicks": 4,
          "midi": 53,
          "name": "F3",
          "ticks": 6270,
          "time": 72.90697674418605,
          "velocity": 0.12598425196850394
        },
        {
          "duration": 0.034883720930224626,
          "durationTicks": 3,
          "midi": 54,
          "name": "F#3",
          "ticks": 6292,
          "time": 73.16279069767442,
          "velocity": 0.2440944881889764
        },
        {
          "duration": 0.05813953488372192,
          "durationTicks": 5,
          "midi": 61,
          "name": "C#4",
          "ticks": 6293,
          "time": 73.17441860465117,
          "velocity": 0.16535433070866143
        },
        {
          "duration": 0.023255813953497295,
          "durationTicks": 2,
          "midi": 40,
          "name": "E2",
          "ticks": 6295,
          "time": 73.19767441860465,
          "velocity": 0.30708661417322836
        },
        {
          "duration": 0.023255813953497295,
          "durationTicks": 2,
          "midi": 65,
          "name": "F4",
          "ticks": 6296,
          "time": 73.20930232558139,
          "velocity": 0.2283464566929134
        },
        {
          "duration": 0.38372093023255616,
          "durationTicks": 33,
          "midi": 78,
          "name": "F#5",
          "ticks": 6297,
          "time": 73.22093023255815,
          "velocity": 0.1889763779527559
        },
        {
          "duration": 0.3720930232558146,
          "durationTicks": 32,
          "midi": 66,
          "name": "F#4",
          "ticks": 6298,
          "time": 73.23255813953489,
          "velocity": 0.3700787401574803
        },
        {
          "duration": 0.05813953488372192,
          "durationTicks": 5,
          "midi": 49,
          "name": "C#3",
          "ticks": 6300,
          "time": 73.25581395348837,
          "velocity": 0.25984251968503935
        },
        {
          "duration": 0.06976744186047767,
          "durationTicks": 6,
          "midi": 54,
          "name": "F#3",
          "ticks": 6302,
          "time": 73.27906976744185,
          "velocity": 0.2283464566929134
        },
        {
          "duration": 0.09302325581394655,
          "durationTicks": 8,
          "midi": 85,
          "name": "C#6",
          "ticks": 6304,
          "time": 73.30232558139535,
          "velocity": 0.08661417322834646
        },
        {
          "duration": 0.023255813953483084,
          "durationTicks": 2,
          "midi": 48,
          "name": "C3",
          "ticks": 6305,
          "time": 73.31395348837209,
          "velocity": 0.2755905511811024
        },
        {
          "duration": 0.05813953488372192,
          "durationTicks": 5,
          "midi": 42,
          "name": "F#2",
          "ticks": 6306,
          "time": 73.32558139534883,
          "velocity": 0.2283464566929134
        },
        {
          "duration": 0.7209302325581461,
          "durationTicks": 62,
          "midi": 49,
          "name": "C#3",
          "ticks": 6307,
          "time": 73.33720930232558,
          "velocity": 0.2677165354330709
        },
        {
          "duration": 0.04651162790696617,
          "durationTicks": 4,
          "midi": 54,
          "name": "F#3",
          "ticks": 6313,
          "time": 73.40697674418605,
          "velocity": 0.2125984251968504
        },
        {
          "duration": 0.06976744186046346,
          "durationTicks": 6,
          "midi": 42,
          "name": "F#2",
          "ticks": 6323,
          "time": 73.52325581395348,
          "velocity": 0.1732283464566929
        },
        {
          "duration": 0.09302325581396076,
          "durationTicks": 8,
          "midi": 42,
          "name": "F#2",
          "ticks": 6338,
          "time": 73.69767441860465,
          "velocity": 0.1732283464566929
        },
        {
          "duration": 0.11627906976742963,
          "durationTicks": 10,
          "midi": 42,
          "name": "F#2",
          "ticks": 6351,
          "time": 73.84883720930233,
          "velocity": 0.16535433070866143
        },
        {
          "duration": 0.03488372093023884,
          "durationTicks": 3,
          "midi": 42,
          "name": "F#2",
          "ticks": 6366,
          "time": 74.02325581395348,
          "velocity": 0.15748031496062992
        },
        {
          "duration": 0.3953488372092977,
          "durationTicks": 34,
          "midi": 49,
          "name": "C#3",
          "ticks": 6373,
          "time": 74.1046511627907,
          "velocity": 0.15748031496062992
        },
        {
          "duration": 0.1046511627907023,
          "durationTicks": 9,
          "midi": 70,
          "name": "A#4",
          "ticks": 6374,
          "time": 74.11627906976744,
          "velocity": 0.2047244094488189
        },
        {
          "duration": 0.03488372093023884,
          "durationTicks": 3,
          "midi": 42,
          "name": "F#2",
          "ticks": 6377,
          "time": 74.15116279069767,
          "velocity": 0.09448818897637795
        },
        {
          "duration": 0.06976744186046346,
          "durationTicks": 6,
          "midi": 42,
          "name": "F#2",
          "ticks": 6381,
          "time": 74.19767441860465,
          "velocity": 0.07874015748031496
        },
        {
          "duration": 0.2093023255813904,
          "durationTicks": 18,
          "midi": 66,
          "name": "F#4",
          "ticks": 6391,
          "time": 74.31395348837209,
          "velocity": 0.07874015748031496
        },
        {
          "duration": 0.2093023255814046,
          "durationTicks": 18,
          "midi": 54,
          "name": "F#3",
          "ticks": 6409,
          "time": 74.52325581395348,
          "velocity": 0.2440944881889764
        },
        {
          "duration": 0.38372093023255616,
          "durationTicks": 33,
          "midi": 73,
          "name": "C#5",
          "ticks": 6410,
          "time": 74.53488372093024,
          "velocity": 0.30708661417322836
        },
        {
          "duration": 0.11627906976744384,
          "durationTicks": 10,
          "midi": 61,
          "name": "C#4",
          "ticks": 6414,
          "time": 74.5813953488372,
          "velocity": 0.13385826771653545
        },
        {
          "duration": 0.2093023255813904,
          "durationTicks": 18,
          "midi": 68,
          "name": "G#4",
          "ticks": 6448,
          "time": 74.97674418604652,
          "velocity": 0.2047244094488189
        },
        {
          "duration": 0.3139534883720927,
          "durationTicks": 27,
          "midi": 61,
          "name": "C#4",
          "ticks": 6449,
          "time": 74.98837209302326,
          "velocity": 0.2440944881889764
        },
        {
          "duration": 0.03488372093023884,
          "durationTicks": 3,
          "midi": 49,
          "name": "C#3",
          "ticks": 6450,
          "time": 75,
          "velocity": 0.2125984251968504
        },
        {
          "duration": 0.04651162790698038,
          "durationTicks": 4,
          "midi": 70,
          "name": "A#4",
          "ticks": 6452,
          "time": 75.02325581395348,
          "velocity": 0.07874015748031496
        },
        {
          "duration": 0.8139534883720927,
          "durationTicks": 70,
          "midi": 56,
          "name": "G#3",
          "ticks": 6453,
          "time": 75.03488372093024,
          "velocity": 0.2047244094488189
        },
        {
          "duration": 0.7906976744185954,
          "durationTicks": 68,
          "midi": 49,
          "name": "C#3",
          "ticks": 6454,
          "time": 75.04651162790698,
          "velocity": 0.1732283464566929
        },
        {
          "duration": 0.24418604651162923,
          "durationTicks": 21,
          "midi": 68,
          "name": "G#4",
          "ticks": 6468,
          "time": 75.20930232558139,
          "velocity": 0.25984251968503935
        },
        {
          "duration": 0.5465116279069804,
          "durationTicks": 47,
          "midi": 68,
          "name": "G#4",
          "ticks": 6492,
          "time": 75.48837209302326,
          "velocity": 0.30708661417322836
        },
        {
          "duration": 0.023255813953483084,
          "durationTicks": 2,
          "midi": 54,
          "name": "F#3",
          "ticks": 6524,
          "time": 75.86046511627907,
          "velocity": 0.2283464566929134
        },
        {
          "duration": 0.023255813953483084,
          "durationTicks": 2,
          "midi": 45,
          "name": "A2",
          "ticks": 6525,
          "time": 75.87209302325581,
          "velocity": 0.2755905511811024
        },
        {
          "duration": 0.40697674418605345,
          "durationTicks": 35,
          "midi": 56,
          "name": "G#3",
          "ticks": 6526,
          "time": 75.88372093023256,
          "velocity": 0.2755905511811024
        },
        {
          "duration": 0.6046511627907023,
          "durationTicks": 52,
          "midi": 61,
          "name": "C#4",
          "ticks": 6526,
          "time": 75.88372093023256,
          "velocity": 0.2283464566929134
        },
        {
          "duration": 0.03488372093023884,
          "durationTicks": 3,
          "midi": 49,
          "name": "C#3",
          "ticks": 6532,
          "time": 75.95348837209302,
          "velocity": 0.08661417322834646
        },
        {
          "duration": 0.06976744186046346,
          "durationTicks": 6,
          "midi": 49,
          "name": "C#3",
          "ticks": 6537,
          "time": 76.01162790697674,
          "velocity": 0.07086614173228346
        },
        {
          "duration": 0.034883720930224626,
          "durationTicks": 3,
          "midi": 67,
          "name": "G4",
          "ticks": 6539,
          "time": 76.03488372093024,
          "velocity": 0.25196850393700787
        },
        {
          "duration": 0.2093023255814046,
          "durationTicks": 18,
          "midi": 49,
          "name": "C#3",
          "ticks": 6544,
          "time": 76.09302325581395,
          "velocity": 0.11023622047244094
        },
        {
          "duration": 0.5581395348837219,
          "durationTicks": 48,
          "midi": 66,
          "name": "F#4",
          "ticks": 6545,
          "time": 76.1046511627907,
          "velocity": 0.2755905511811024
        },
        {
          "duration": 0.04651162790698038,
          "durationTicks": 4,
          "midi": 54,
          "name": "F#3",
          "ticks": 6585,
          "time": 76.56976744186046,
          "velocity": 0.07874015748031496
        },
        {
          "duration": 1.5116279069767558,
          "durationTicks": 130,
          "midi": 47,
          "name": "B2",
          "ticks": 6603,
          "time": 76.77906976744185,
          "velocity": 0.2992125984251969
        },
        {
          "duration": 0.8023255813953512,
          "durationTicks": 69,
          "midi": 71,
          "name": "B4",
          "ticks": 6603,
          "time": 76.77906976744185,
          "velocity": 0.3228346456692913
        },
        {
          "duration": 0.3953488372092977,
          "durationTicks": 34,
          "midi": 54,
          "name": "F#3",
          "ticks": 6605,
          "time": 76.80232558139535,
          "velocity": 0.3464566929133858
        },
        {
          "duration": 0.11627906976744384,
          "durationTicks": 10,
          "midi": 54,
          "name": "F#3",
          "ticks": 6640,
          "time": 77.20930232558139,
          "velocity": 0.07874015748031496
        },
        {
          "duration": 0.40697674418603924,
          "durationTicks": 35,
          "midi": 70,
          "name": "A#4",
          "ticks": 6680,
          "time": 77.67441860465117,
          "velocity": 0.2204724409448819
        },
        {
          "duration": 0.034883720930224626,
          "durationTicks": 3,
          "midi": 47,
          "name": "B2",
          "ticks": 6734,
          "time": 78.30232558139535,
          "velocity": 0.07874015748031496
        },
        {
          "duration": 0.1860465116279073,
          "durationTicks": 16,
          "midi": 54,
          "name": "F#3",
          "ticks": 6737,
          "time": 78.33720930232558,
          "velocity": 0.11811023622047244
        },
        {
          "duration": 1.5348837209302246,
          "durationTicks": 132,
          "midi": 66,
          "name": "F#4",
          "ticks": 6754,
          "time": 78.53488372093024,
          "velocity": 0.28346456692913385
        },
        {
          "duration": 0.1860465116279073,
          "durationTicks": 16,
          "midi": 61,
          "name": "C#4",
          "ticks": 6836,
          "time": 79.48837209302326,
          "velocity": 0.12598425196850394
        },
        {
          "duration": 0.10465116279068809,
          "durationTicks": 9,
          "midi": 54,
          "name": "F#3",
          "ticks": 6846,
          "time": 79.6046511627907,
          "velocity": 0.07086614173228346
        },
        {
          "duration": 0.16279069767442422,
          "durationTicks": 14,
          "midi": 59,
          "name": "B3",
          "ticks": 6853,
          "time": 79.68604651162791,
          "velocity": 0.08661417322834646
        },
        {
          "duration": 0.08139534883721922,
          "durationTicks": 7,
          "midi": 58,
          "name": "A#3",
          "ticks": 6893,
          "time": 80.15116279069767,
          "velocity": 0.07086614173228346
        },
        {
          "duration": 0.4767441860465027,
          "durationTicks": 41,
          "midi": 54,
          "name": "F#3",
          "ticks": 6894,
          "time": 80.16279069767442,
          "velocity": 0.1889763779527559
        },
        {
          "duration": 0.15116279069766847,
          "durationTicks": 13,
          "midi": 61,
          "name": "C#4",
          "ticks": 6915,
          "time": 80.40697674418605,
          "velocity": 0.07086614173228346
        },
        {
          "duration": 0.8139534883720927,
          "durationTicks": 70,
          "midi": 66,
          "name": "F#4",
          "ticks": 6917,
          "time": 80.43023255813954,
          "velocity": 0.3228346456692913
        },
        {
          "duration": 0.03488372093023884,
          "durationTicks": 3,
          "midi": 32,
          "name": "G#1",
          "ticks": 6946,
          "time": 80.76744186046511,
          "velocity": 0.08661417322834646
        },
        {
          "duration": 0.034883720930224626,
          "durationTicks": 3,
          "midi": 31,
          "name": "G1",
          "ticks": 6949,
          "time": 80.80232558139535,
          "velocity": 0.09448818897637795
        },
        {
          "duration": 0.04651162790696617,
          "durationTicks": 4,
          "midi": 31,
          "name": "G1",
          "ticks": 6953,
          "time": 80.84883720930233,
          "velocity": 0.09448818897637795
        },
        {
          "duration": 0.1860465116279073,
          "durationTicks": 16,
          "midi": 31,
          "name": "G1",
          "ticks": 6962,
          "time": 80.95348837209302,
          "velocity": 0.09448818897637795
        },
        {
          "duration": 0.034883720930224626,
          "durationTicks": 3,
          "midi": 31,
          "name": "G1",
          "ticks": 6980,
          "time": 81.16279069767442,
          "velocity": 0.13385826771653545
        },
        {
          "duration": 0.04651162790696617,
          "durationTicks": 4,
          "midi": 31,
          "name": "G1",
          "ticks": 6985,
          "time": 81.22093023255815,
          "velocity": 0.09448818897637795
        },
        {
          "duration": 0.10465116279068809,
          "durationTicks": 9,
          "midi": 68,
          "name": "G#4",
          "ticks": 6986,
          "time": 81.23255813953489,
          "velocity": 0.31496062992125984
        },
        {
          "duration": 0.1860465116279073,
          "durationTicks": 16,
          "midi": 66,
          "name": "F#4",
          "ticks": 6992,
          "time": 81.30232558139535,
          "velocity": 0.18110236220472442
        },
        {
          "duration": 0.12790697674418539,
          "durationTicks": 11,
          "midi": 69,
          "name": "A4",
          "ticks": 6995,
          "time": 81.33720930232558,
          "velocity": 0.30708661417322836
        },
        {
          "duration": 0.081395348837205,
          "durationTicks": 7,
          "midi": 31,
          "name": "G1",
          "ticks": 7001,
          "time": 81.40697674418605,
          "velocity": 0.10236220472440945
        },
        {
          "duration": 0.13953488372094114,
          "durationTicks": 12,
          "midi": 68,
          "name": "G#4",
          "ticks": 7006,
          "time": 81.46511627906976,
          "velocity": 0.2677165354330709
        },
        {
          "duration": 0.04651162790698038,
          "durationTicks": 4,
          "midi": 31,
          "name": "G1",
          "ticks": 7011,
          "time": 81.52325581395348,
          "velocity": 0.10236220472440945
        },
        {
          "duration": 0.3139534883720927,
          "durationTicks": 27,
          "midi": 66,
          "name": "F#4",
          "ticks": 7019,
          "time": 81.61627906976744,
          "velocity": 0.36220472440944884
        },
        {
          "duration": 0.04651162790698038,
          "durationTicks": 4,
          "midi": 31,
          "name": "G1",
          "ticks": 7020,
          "time": 81.62790697674419,
          "velocity": 0.10236220472440945
        },
        {
          "duration": 0.034883720930224626,
          "durationTicks": 3,
          "midi": 32,
          "name": "G#1",
          "ticks": 7024,
          "time": 81.67441860465117,
          "velocity": 0.11023622047244094
        },
        {
          "duration": 0.04651162790698038,
          "durationTicks": 4,
          "midi": 31,
          "name": "G1",
          "ticks": 7032,
          "time": 81.76744186046511,
          "velocity": 0.09448818897637795
        },
        {
          "duration": 0.05813953488372192,
          "durationTicks": 5,
          "midi": 31,
          "name": "G1",
          "ticks": 7037,
          "time": 81.82558139534883,
          "velocity": 0.09448818897637795
        },
        {
          "duration": 0.04651162790698038,
          "durationTicks": 4,
          "midi": 31,
          "name": "G1",
          "ticks": 7043,
          "time": 81.8953488372093,
          "velocity": 0.10236220472440945
        },
        {
          "duration": 0.7674418604651123,
          "durationTicks": 66,
          "midi": 68,
          "name": "G#4",
          "ticks": 7047,
          "time": 81.94186046511628,
          "velocity": 0.23622047244094488
        },
        {
          "duration": 0.03488372093023884,
          "durationTicks": 3,
          "midi": 31,
          "name": "G1",
          "ticks": 7048,
          "time": 81.95348837209302,
          "velocity": 0.11023622047244094
        },
        {
          "duration": 0.03488372093023884,
          "durationTicks": 3,
          "midi": 31,
          "name": "G1",
          "ticks": 7052,
          "time": 82,
          "velocity": 0.07874015748031496
        },
        {
          "duration": 0.04651162790698038,
          "durationTicks": 4,
          "midi": 31,
          "name": "G1",
          "ticks": 7060,
          "time": 82.09302325581395,
          "velocity": 0.08661417322834646
        },
        {
          "duration": 0.04651162790698038,
          "durationTicks": 4,
          "midi": 31,
          "name": "G1",
          "ticks": 7078,
          "time": 82.30232558139535,
          "velocity": 0.08661417322834646
        },
        {
          "duration": 0.24418604651162923,
          "durationTicks": 21,
          "midi": 31,
          "name": "G1",
          "ticks": 7083,
          "time": 82.36046511627907,
          "velocity": 0.08661417322834646
        },
        {
          "duration": 0.40697674418603924,
          "durationTicks": 35,
          "midi": 73,
          "name": "C#5",
          "ticks": 7111,
          "time": 82.68604651162791,
          "velocity": 0.29133858267716534
        },
        {
          "duration": 0.05813953488372192,
          "durationTicks": 5,
          "midi": 31,
          "name": "G1",
          "ticks": 7118,
          "time": 82.76744186046511,
          "velocity": 0.07874015748031496
        },
        {
          "duration": 0.03488372093023884,
          "durationTicks": 3,
          "midi": 32,
          "name": "G#1",
          "ticks": 7123,
          "time": 82.82558139534883,
          "velocity": 0.07086614173228346
        },
        {
          "duration": 0.1860465116279073,
          "durationTicks": 16,
          "midi": 31,
          "name": "G1",
          "ticks": 7126,
          "time": 82.86046511627907,
          "velocity": 0.07874015748031496
        },
        {
          "duration": 0.09302325581394655,
          "durationTicks": 8,
          "midi": 68,
          "name": "G#4",
          "ticks": 7147,
          "time": 83.1046511627907,
          "velocity": 0.25984251968503935
        },
        {
          "duration": 0.13953488372092693,
          "durationTicks": 12,
          "midi": 69,
          "name": "A4",
          "ticks": 7155,
          "time": 83.19767441860465,
          "velocity": 0.25984251968503935
        },
        {
          "duration": 0.04651162790698038,
          "durationTicks": 4,
          "midi": 31,
          "name": "G1",
          "ticks": 7161,
          "time": 83.26744186046511,
          "velocity": 0.07874015748031496
        },
        {
          "duration": 0.13953488372094114,
          "durationTicks": 12,
          "midi": 68,
          "name": "G#4",
          "ticks": 7167,
          "time": 83.33720930232558,
          "velocity": 0.2204724409448819
        },
        {
          "duration": 0.03488372093023884,
          "durationTicks": 3,
          "midi": 32,
          "name": "G#1",
          "ticks": 7170,
          "time": 83.37209302325581,
          "velocity": 0.07874015748031496
        },
        {
          "duration": 0.03488372093023884,
          "durationTicks": 3,
          "midi": 31,
          "name": "G1",
          "ticks": 7176,
          "time": 83.44186046511628,
          "velocity": 0.07086614173228346
        },
        {
          "duration": 0.24418604651161502,
          "durationTicks": 21,
          "midi": 66,
          "name": "F#4",
          "ticks": 7184,
          "time": 83.53488372093024,
          "velocity": 0.30708661417322836
        },
        {
          "duration": 0.09302325581396076,
          "durationTicks": 8,
          "midi": 31,
          "name": "G1",
          "ticks": 7189,
          "time": 83.59302325581395,
          "velocity": 0.07874015748031496
        },
        {
          "duration": 0.034883720930224626,
          "durationTicks": 3,
          "midi": 31,
          "name": "G1",
          "ticks": 7207,
          "time": 83.80232558139535,
          "velocity": 0.07874015748031496
        },
        {
          "duration": 2.418604651162795,
          "durationTicks": 208,
          "midi": 66,
          "name": "F#4",
          "ticks": 7207,
          "time": 83.80232558139535,
          "velocity": 0.33858267716535434
        },
        {
          "duration": 0.034883720930224626,
          "durationTicks": 3,
          "midi": 31,
          "name": "G1",
          "ticks": 7211,
          "time": 83.84883720930233,
          "velocity": 0.07086614173228346
        },
        {
          "duration": 0.05813953488372192,
          "durationTicks": 5,
          "midi": 31,
          "name": "G1",
          "ticks": 7255,
          "time": 84.36046511627907,
          "velocity": 0.07086614173228346
        },
        {
          "duration": 0.09302325581394655,
          "durationTicks": 8,
          "midi": 31,
          "name": "G1",
          "ticks": 7286,
          "time": 84.72093023255815,
          "velocity": 0.07874015748031496
        },
        {
          "duration": 0.8488372093023315,
          "durationTicks": 73,
          "midi": 71,
          "name": "B4",
          "ticks": 7299,
          "time": 84.87209302325581,
          "velocity": 0.29133858267716534
        },
        {
          "duration": 0.04651162790696617,
          "durationTicks": 4,
          "midi": 70,
          "name": "A#4",
          "ticks": 7421,
          "time": 86.29069767441861,
          "velocity": 0.11023622047244094
        },
        {
          "duration": 0.19767441860464885,
          "durationTicks": 17,
          "midi": 71,
          "name": "B4",
          "ticks": 7444,
          "time": 86.55813953488372,
          "velocity": 0.11811023622047244
        },
        {
          "duration": 0.1860465116279073,
          "durationTicks": 16,
          "midi": 70,
          "name": "A#4",
          "ticks": 7464,
          "time": 86.79069767441861,
          "velocity": 0.2204724409448819
        },
        {
          "duration": 0.19767441860464885,
          "durationTicks": 17,
          "midi": 71,
          "name": "B4",
          "ticks": 7483,
          "time": 87.01162790697674,
          "velocity": 0.1889763779527559
        },
        {
          "duration": 0.2093023255813904,
          "durationTicks": 18,
          "midi": 63,
          "name": "D#4",
          "ticks": 7497,
          "time": 87.17441860465117,
          "velocity": 0.4094488188976378
        },
        {
          "duration": 0.17441860465116577,
          "durationTicks": 15,
          "midi": 82,
          "name": "A#5",
          "ticks": 7499,
          "time": 87.19767441860465,
          "velocity": 0.10236220472440945
        },
        {
          "duration": 0.12790697674418539,
          "durationTicks": 11,
          "midi": 70,
          "name": "A#4",
          "ticks": 7503,
          "time": 87.24418604651163,
          "velocity": 0.1889763779527559
        },
        {
          "duration": 0.25581395348837077,
          "durationTicks": 22,
          "midi": 66,
          "name": "F#4",
          "ticks": 7518,
          "time": 87.4186046511628,
          "velocity": 0.29133858267716534
        },
        {
          "duration": 0.13953488372092693,
          "durationTicks": 12,
          "midi": 71,
          "name": "B4",
          "ticks": 7523,
          "time": 87.47674418604652,
          "velocity": 0.15748031496062992
        },
        {
          "duration": 0.40697674418603924,
          "durationTicks": 35,
          "midi": 75,
          "name": "D#5",
          "ticks": 7540,
          "time": 87.67441860465117,
          "velocity": 0.2125984251968504
        },
        {
          "duration": 0.03488372093023884,
          "durationTicks": 3,
          "midi": 54,
          "name": "F#3",
          "ticks": 7541,
          "time": 87.68604651162791,
          "velocity": 0.14173228346456693
        },
        {
          "duration": 0.3372093023255758,
          "durationTicks": 29,
          "midi": 61,
          "name": "C#4",
          "ticks": 7547,
          "time": 87.75581395348837,
          "velocity": 0.11023622047244094
        },
        {
          "duration": 0.8604651162790731,
          "durationTicks": 74,
          "midi": 73,
          "name": "C#5",
          "ticks": 7580,
          "time": 88.13953488372093,
          "velocity": 0.36220472440944884
        },
        {
          "duration": 0.03488372093023884,
          "durationTicks": 3,
          "midi": 48,
          "name": "C3",
          "ticks": 7581,
          "time": 88.15116279069767,
          "velocity": 0.14173228346456693
        },
        {
          "duration": 0.1860465116279073,
          "durationTicks": 16,
          "midi": 92,
          "name": "G#6",
          "ticks": 7582,
          "time": 88.16279069767442,
          "velocity": 0.08661417322834646
        },
        {
          "duration": 1.3023255813953512,
          "durationTicks": 112,
          "midi": 66,
          "name": "F#4",
          "ticks": 7586,
          "time": 88.20930232558139,
          "velocity": 0.18110236220472442
        },
        {
          "duration": 0.24418604651162923,
          "durationTicks": 21,
          "midi": 71,
          "name": "B4",
          "ticks": 7658,
          "time": 89.04651162790698,
          "velocity": 0.3700787401574803
        },
        {
          "duration": 0.15116279069766847,
          "durationTicks": 13,
          "midi": 90,
          "name": "F#6",
          "ticks": 7659,
          "time": 89.05813953488372,
          "velocity": 0.07874015748031496
        },
        {
          "duration": 0.17441860465115155,
          "durationTicks": 15,
          "midi": 70,
          "name": "A#4",
          "ticks": 7679,
          "time": 89.29069767441861,
          "velocity": 0.25984251968503935
        },
        {
          "duration": 0.24418604651162923,
          "durationTicks": 21,
          "midi": 71,
          "name": "B4",
          "ticks": 7699,
          "time": 89.52325581395348,
          "velocity": 0.4015748031496063
        },
        {
          "duration": 0.19767441860464885,
          "durationTicks": 17,
          "midi": 90,
          "name": "F#6",
          "ticks": 7700,
          "time": 89.53488372093024,
          "velocity": 0.11811023622047244
        },
        {
          "duration": 0.15116279069766847,
          "durationTicks": 13,
          "midi": 95,
          "name": "B6",
          "ticks": 7700,
          "time": 89.53488372093024,
          "velocity": 0.07874015748031496
        },
        {
          "duration": 0.46511627906976116,
          "durationTicks": 40,
          "midi": 66,
          "name": "F#4",
          "ticks": 7708,
          "time": 89.62790697674419,
          "velocity": 0.07086614173228346
        },
        {
          "duration": 0.03488372093023884,
          "durationTicks": 3,
          "midi": 72,
          "name": "C5",
          "ticks": 7720,
          "time": 89.76744186046511,
          "velocity": 0.31496062992125984
        },
        {
          "duration": 0.8139534883720927,
          "durationTicks": 70,
          "midi": 73,
          "name": "C#5",
          "ticks": 7723,
          "time": 89.80232558139535,
          "velocity": 0.29133858267716534
        },
        {
          "duration": 0.2325581395348877,
          "durationTicks": 20,
          "midi": 71,
          "name": "B4",
          "ticks": 7815,
          "time": 90.87209302325581,
          "velocity": 0.3779527559055118
        },
        {
          "duration": 0.12790697674418539,
          "durationTicks": 11,
          "midi": 90,
          "name": "F#6",
          "ticks": 7816,
          "time": 90.88372093023256,
          "velocity": 0.09448818897637795
        },
        {
          "duration": 0.2093023255813904,
          "durationTicks": 18,
          "midi": 70,
          "name": "A#4",
          "ticks": 7835,
          "time": 91.1046511627907,
          "velocity": 0.23622047244094488
        },
        {
          "duration": 0.6744186046511516,
          "durationTicks": 58,
          "midi": 71,
          "name": "B4",
          "ticks": 7856,
          "time": 91.34883720930233,
          "velocity": 0.31496062992125984
        },
        {
          "duration": 0.023255813953483084,
          "durationTicks": 2,
          "midi": 58,
          "name": "A#3",
          "ticks": 7857,
          "time": 91.36046511627907,
          "velocity": 0.33858267716535434
        },
        {
          "duration": 0.2325581395348877,
          "durationTicks": 20,
          "midi": 90,
          "name": "F#6",
          "ticks": 7858,
          "time": 91.37209302325581,
          "velocity": 0.07086614173228346
        },
        {
          "duration": 0.918604651162795,
          "durationTicks": 79,
          "midi": 59,
          "name": "B3",
          "ticks": 7859,
          "time": 91.38372093023256,
          "velocity": 0.3464566929133858
        },
        {
          "duration": 0.2674418604651123,
          "durationTicks": 23,
          "midi": 70,
          "name": "A#4",
          "ticks": 7918,
          "time": 92.06976744186046,
          "velocity": 0.3228346456692913
        },
        {
          "duration": 1.2093023255813904,
          "durationTicks": 104,
          "midi": 63,
          "name": "D#4",
          "ticks": 7945,
          "time": 92.38372093023256,
          "velocity": 0.3464566929133858
        },
        {
          "duration": 0.22093023255814614,
          "durationTicks": 19,
          "midi": 70,
          "name": "A#4",
          "ticks": 8097,
          "time": 94.15116279069767,
          "velocity": 0.30708661417322836
        },
        {
          "duration": 0.27906976744185386,
          "durationTicks": 24,
          "midi": 71,
          "name": "B4",
          "ticks": 8116,
          "time": 94.37209302325581,
          "velocity": 0.13385826771653545
        },
        {
          "duration": 0.2093023255814046,
          "durationTicks": 18,
          "midi": 78,
          "name": "F#5",
          "ticks": 8135,
          "time": 94.59302325581395,
          "velocity": 0.18110236220472442
        },
        {
          "duration": 0.1860465116279073,
          "durationTicks": 16,
          "midi": 71,
          "name": "B4",
          "ticks": 8156,
          "time": 94.83720930232558,
          "velocity": 0.2440944881889764
        },
        {
          "duration": 0.11627906976744384,
          "durationTicks": 10,
          "midi": 54,
          "name": "F#3",
          "ticks": 8163,
          "time": 94.9186046511628,
          "velocity": 0.08661417322834646
        },
        {
          "duration": 0.12790697674418539,
          "durationTicks": 11,
          "midi": 66,
          "name": "F#4",
          "ticks": 8175,
          "time": 95.05813953488372,
          "velocity": 0.33070866141732286
        },
        {
          "duration": 0.023255813953497295,
          "durationTicks": 2,
          "midi": 54,
          "name": "F#3",
          "ticks": 8177,
          "time": 95.0813953488372,
          "velocity": 0.2283464566929134
        },
        {
          "duration": 0.7209302325581461,
          "durationTicks": 62,
          "midi": 70,
          "name": "A#4",
          "ticks": 8177,
          "time": 95.0813953488372,
          "velocity": 0.33858267716535434
        },
        {
          "duration": 0.03488372093023884,
          "durationTicks": 3,
          "midi": 53,
          "name": "F3",
          "ticks": 8181,
          "time": 95.12790697674419,
          "velocity": 0.14173228346456693
        },
        {
          "duration": 0.06976744186046346,
          "durationTicks": 6,
          "midi": 67,
          "name": "G4",
          "ticks": 8186,
          "time": 95.18604651162791,
          "velocity": 0.2677165354330709
        },
        {
          "duration": 0.38372093023255616,
          "durationTicks": 33,
          "midi": 61,
          "name": "C#4",
          "ticks": 8192,
          "time": 95.25581395348837,
          "velocity": 0.07874015748031496
        },
        {
          "duration": 0.03488372093023884,
          "durationTicks": 3,
          "midi": 68,
          "name": "G#4",
          "ticks": 8192,
          "time": 95.25581395348837,
          "velocity": 0.1968503937007874
        },
        {
          "duration": 0.06976744186046346,
          "durationTicks": 6,
          "midi": 73,
          "name": "C#5",
          "ticks": 8251,
          "time": 95.94186046511628,
          "velocity": 0.29133858267716534
        },
        {
          "duration": 0.04651162790698038,
          "durationTicks": 4,
          "midi": 74,
          "name": "D5",
          "ticks": 8257,
          "time": 96.01162790697674,
          "velocity": 0.2677165354330709
        },
        {
          "duration": 0.1046511627907023,
          "durationTicks": 9,
          "midi": 75,
          "name": "D#5",
          "ticks": 8261,
          "time": 96.05813953488372,
          "velocity": 0.11811023622047244
        },
        {
          "duration": 0.13953488372092693,
          "durationTicks": 12,
          "midi": 78,
          "name": "F#5",
          "ticks": 8276,
          "time": 96.23255813953489,
          "velocity": 0.09448818897637795
        },
        {
          "duration": 0.09302325581396076,
          "durationTicks": 8,
          "midi": 80,
          "name": "G#5",
          "ticks": 8296,
          "time": 96.46511627906976,
          "velocity": 0.2204724409448819
        },
        {
          "duration": 0.06976744186046346,
          "durationTicks": 6,
          "midi": 99,
          "name": "D#7",
          "ticks": 8297,
          "time": 96.47674418604652,
          "velocity": 0.08661417322834646
        },
        {
          "duration": 0.05813953488372192,
          "durationTicks": 5,
          "midi": 81,
          "name": "A5",
          "ticks": 8304,
          "time": 96.55813953488372,
          "velocity": 0.15748031496062992
        },
        {
          "duration": 0.09302325581394655,
          "durationTicks": 8,
          "midi": 82,
          "name": "A#5",
          "ticks": 8309,
          "time": 96.61627906976744,
          "velocity": 0.08661417322834646
        },
        {
          "duration": 0.8139534883720927,
          "durationTicks": 70,
          "midi": 80,
          "name": "G#5",
          "ticks": 8340,
          "time": 96.97674418604652,
          "velocity": 0.25984251968503935
        },
        {
          "duration": 0.05813953488372192,
          "durationTicks": 5,
          "midi": 99,
          "name": "D#7",
          "ticks": 8341,
          "time": 96.98837209302326,
          "velocity": 0.07086614173228346
        },
        {
          "duration": 0.16279069767441,
          "durationTicks": 14,
          "midi": 82,
          "name": "A#5",
          "ticks": 8416,
          "time": 97.86046511627907,
          "velocity": 0.10236220472440945
        },
        {
          "duration": 0.16279069767442422,
          "durationTicks": 14,
          "midi": 82,
          "name": "A#5",
          "ticks": 8456,
          "time": 98.32558139534883,
          "velocity": 0.14173228346456693
        },
        {
          "duration": 0.03488372093023884,
          "durationTicks": 3,
          "midi": 53,
          "name": "F3",
          "ticks": 8500,
          "time": 98.83720930232558,
          "velocity": 0.14173228346456693
        },
        {
          "duration": 0.30232558139533694,
          "durationTicks": 26,
          "midi": 78,
          "name": "F#5",
          "ticks": 8501,
          "time": 98.84883720930233,
          "velocity": 0.11811023622047244
        },
        {
          "duration": 0.06976744186046346,
          "durationTicks": 6,
          "midi": 31,
          "name": "G1",
          "ticks": 8775,
          "time": 102.03488372093024,
          "velocity": 0.07874015748031496
        },
        {
          "duration": 0.11627906976744384,
          "durationTicks": 10,
          "midi": 31,
          "name": "G1",
          "ticks": 8783,
          "time": 102.12790697674419,
          "velocity": 0.15748031496062992
        },
        {
          "duration": 0.03488372093023884,
          "durationTicks": 3,
          "midi": 31,
          "name": "G1",
          "ticks": 8794,
          "time": 102.25581395348837,
          "velocity": 0.14173228346456693
        },
        {
          "duration": 0.6511627906976827,
          "durationTicks": 56,
          "midi": 73,
          "name": "C#5",
          "ticks": 8794,
          "time": 102.25581395348837,
          "velocity": 0.09448818897637795
        },
        {
          "duration": 0.19767441860464885,
          "durationTicks": 17,
          "midi": 31,
          "name": "G1",
          "ticks": 8798,
          "time": 102.30232558139535,
          "velocity": 0.1968503937007874
        },
        {
          "duration": 0.24418604651162923,
          "durationTicks": 21,
          "midi": 54,
          "name": "F#3",
          "ticks": 8816,
          "time": 102.51162790697674,
          "velocity": 0.16535433070866143
        },
        {
          "duration": 0.3720930232558146,
          "durationTicks": 32,
          "midi": 31,
          "name": "G1",
          "ticks": 8820,
          "time": 102.55813953488372,
          "velocity": 0.15748031496062992
        },
        {
          "duration": 0.40697674418603924,
          "durationTicks": 35,
          "midi": 61,
          "name": "C#4",
          "ticks": 8845,
          "time": 102.84883720930233,
          "velocity": 0.11023622047244094
        },
        {
          "duration": 0.05813953488372192,
          "durationTicks": 5,
          "midi": 31,
          "name": "G1",
          "ticks": 8860,
          "time": 103.02325581395348,
          "velocity": 0.14960629921259844
        },
        {
          "duration": 0.16279069767442422,
          "durationTicks": 14,
          "midi": 71,
          "name": "B4",
          "ticks": 8860,
          "time": 103.02325581395348,
          "velocity": 0.11811023622047244
        },
        {
          "duration": 0.09302325581396076,
          "durationTicks": 8,
          "midi": 31,
          "name": "G1",
          "ticks": 8866,
          "time": 103.09302325581395,
          "velocity": 0.15748031496062992
        },
        {
          "duration": 0.03488372093023884,
          "durationTicks": 3,
          "midi": 31,
          "name": "G1",
          "ticks": 8876,
          "time": 103.20930232558139,
          "velocity": 0.14960629921259844
        },
        {
          "duration": 0.17441860465116577,
          "durationTicks": 15,
          "midi": 70,
          "name": "A#4",
          "ticks": 8878,
          "time": 103.23255813953489,
          "velocity": 0.11023622047244094
        },
        {
          "duration": 0.16279069767441,
          "durationTicks": 14,
          "midi": 31,
          "name": "G1",
          "ticks": 8884,
          "time": 103.30232558139535,
          "velocity": 0.15748031496062992
        },
        {
          "duration": 0.3372093023255758,
          "durationTicks": 29,
          "midi": 71,
          "name": "B4",
          "ticks": 8899,
          "time": 103.47674418604652,
          "velocity": 0.10236220472440945
        },
        {
          "duration": 0.3953488372092977,
          "durationTicks": 34,
          "midi": 31,
          "name": "G1",
          "ticks": 8900,
          "time": 103.48837209302326,
          "velocity": 0.16535433070866143
        },
        {
          "duration": 0.12790697674418539,
          "durationTicks": 11,
          "midi": 70,
          "name": "A#4",
          "ticks": 8935,
          "time": 103.8953488372093,
          "velocity": 0.11023622047244094
        },
        {
          "duration": 0.1860465116278931,
          "durationTicks": 16,
          "midi": 31,
          "name": "G1",
          "ticks": 8936,
          "time": 103.90697674418605,
          "velocity": 0.1732283464566929
        },
        {
          "duration": 0.03488372093023884,
          "durationTicks": 3,
          "midi": 32,
          "name": "G#1",
          "ticks": 8955,
          "time": 104.12790697674419,
          "velocity": 0.14173228346456693
        },
        {
          "duration": 0.13953488372092693,
          "durationTicks": 12,
          "midi": 31,
          "name": "G1",
          "ticks": 8958,
          "time": 104.16279069767442,
          "velocity": 0.15748031496062992
        },
        {
          "duration": 0.6162790697674296,
          "durationTicks": 53,
          "midi": 73,
          "name": "C#5",
          "ticks": 8958,
          "time": 104.16279069767442,
          "velocity": 0.14960629921259844
        },
        {
          "duration": 0.03488372093023884,
          "durationTicks": 3,
          "midi": 31,
          "name": "G1",
          "ticks": 8971,
          "time": 104.31395348837209,
          "velocity": 0.18110236220472442
        },
        {
          "duration": 0.4418604651162781,
          "durationTicks": 38,
          "midi": 31,
          "name": "G1",
          "ticks": 8976,
          "time": 104.37209302325581,
          "velocity": 0.1889763779527559
        },
        {
          "duration": 0.40697674418605345,
          "durationTicks": 35,
          "midi": 61,
          "name": "C#4",
          "ticks": 8977,
          "time": 104.38372093023256,
          "velocity": 0.07874015748031496
        },
        {
          "duration": 0.38372093023257037,
          "durationTicks": 33,
          "midi": 71,
          "name": "B4",
          "ticks": 9016,
          "time": 104.83720930232558,
          "velocity": 0.14173228346456693
        },
        {
          "duration": 0.3488372093023173,
          "durationTicks": 30,
          "midi": 31,
          "name": "G1",
          "ticks": 9018,
          "time": 104.86046511627907,
          "velocity": 0.15748031496062992
        },
        {
          "duration": 0.034883720930224626,
          "durationTicks": 3,
          "midi": 31,
          "name": "G1",
          "ticks": 9049,
          "time": 105.22093023255815,
          "velocity": 0.1732283464566929
        },
        {
          "duration": 0.418604651162795,
          "durationTicks": 36,
          "midi": 31,
          "name": "G1",
          "ticks": 9053,
          "time": 105.26744186046511,
          "velocity": 0.18110236220472442
        },
        {
          "duration": 0.3604651162790731,
          "durationTicks": 31,
          "midi": 71,
          "name": "B4",
          "ticks": 9053,
          "time": 105.26744186046511,
          "velocity": 0.13385826771653545
        },
        {
          "duration": 0.19767441860464885,
          "durationTicks": 17,
          "midi": 71,
          "name": "B4",
          "ticks": 9088,
          "time": 105.67441860465117,
          "velocity": 0.13385826771653545
        },
        {
          "duration": 0.04651162790698038,
          "durationTicks": 4,
          "midi": 32,
          "name": "G#1",
          "ticks": 9089,
          "time": 105.68604651162791,
          "velocity": 0.15748031496062992
        },
        {
          "duration": 0.16279069767441,
          "durationTicks": 14,
          "midi": 31,
          "name": "G1",
          "ticks": 9093,
          "time": 105.73255813953489,
          "velocity": 0.15748031496062992
        },
        {
          "duration": 1.558139534883722,
          "durationTicks": 134,
          "midi": 63,
          "name": "D#4",
          "ticks": 9110,
          "time": 105.93023255813954,
          "velocity": 0.31496062992125984
        },
        {
          "duration": 0.1860465116279073,
          "durationTicks": 16,
          "midi": 31,
          "name": "G1",
          "ticks": 9114,
          "time": 105.97674418604652,
          "velocity": 0.16535433070866143
        },
        {
          "duration": 0.034883720930224626,
          "durationTicks": 3,
          "midi": 32,
          "name": "G#1",
          "ticks": 9130,
          "time": 106.16279069767442,
          "velocity": 0.1889763779527559
        },
        {
          "duration": 0.023255813953497295,
          "durationTicks": 2,
          "midi": 30,
          "name": "F#1",
          "ticks": 9133,
          "time": 106.19767441860465,
          "velocity": 0.2283464566929134
        },
        {
          "duration": 0.40697674418605345,
          "durationTicks": 35,
          "midi": 31,
          "name": "G1",
          "ticks": 9139,
          "time": 106.26744186046511,
          "velocity": 0.15748031496062992
        },
        {
          "duration": 0.1860465116279073,
          "durationTicks": 16,
          "midi": 31,
          "name": "G1",
          "ticks": 9175,
          "time": 106.68604651162791,
          "velocity": 0.15748031496062992
        },
        {
          "duration": 0.27906976744186807,
          "durationTicks": 24,
          "midi": 31,
          "name": "G1",
          "ticks": 9193,
          "time": 106.8953488372093,
          "velocity": 0.15748031496062992
        },
        {
          "duration": 0.13953488372092693,
          "durationTicks": 12,
          "midi": 31,
          "name": "G1",
          "ticks": 9219,
          "time": 107.19767441860465,
          "velocity": 0.09448818897637795
        },
        {
          "duration": 0.15116279069766847,
          "durationTicks": 13,
          "midi": 31,
          "name": "G1",
          "ticks": 9232,
          "time": 107.34883720930233,
          "velocity": 0.07086614173228346
        },
        {
          "duration": 0.03488372093023884,
          "durationTicks": 3,
          "midi": 31,
          "name": "G1",
          "ticks": 9247,
          "time": 107.52325581395348,
          "velocity": 0.11023622047244094
        },
        {
          "duration": 0.17441860465116577,
          "durationTicks": 15,
          "midi": 63,
          "name": "D#4",
          "ticks": 9249,
          "time": 107.54651162790698,
          "velocity": 0.2204724409448819
        },
        {
          "duration": 0.10465116279068809,
          "durationTicks": 9,
          "midi": 31,
          "name": "G1",
          "ticks": 9254,
          "time": 107.6046511627907,
          "velocity": 0.07874015748031496
        },
        {
          "duration": 0.2093023255813904,
          "durationTicks": 18,
          "midi": 63,
          "name": "D#4",
          "ticks": 9267,
          "time": 107.75581395348837,
          "velocity": 0.29133858267716534
        },
        {
          "duration": 0.12790697674418539,
          "durationTicks": 11,
          "midi": 31,
          "name": "G1",
          "ticks": 9272,
          "time": 107.81395348837209,
          "velocity": 0.07874015748031496
        },
        {
          "duration": 0.22093023255813193,
          "durationTicks": 19,
          "midi": 63,
          "name": "D#4",
          "ticks": 9287,
          "time": 107.98837209302326,
          "velocity": 0.3858267716535433
        },
        {
          "duration": 0.15116279069766847,
          "durationTicks": 13,
          "midi": 31,
          "name": "G1",
          "ticks": 9293,
          "time": 108.05813953488372,
          "velocity": 0.07874015748031496
        },
        {
          "duration": 0.04651162790698038,
          "durationTicks": 4,
          "midi": 74,
          "name": "D5",
          "ticks": 9305,
          "time": 108.19767441860465,
          "velocity": 0.11811023622047244
        },
        {
          "duration": 0.03488372093023884,
          "durationTicks": 3,
          "midi": 62,
          "name": "D4",
          "ticks": 9306,
          "time": 108.20930232558139,
          "velocity": 0.30708661417322836
        },
        {
          "duration": 0.17441860465116577,
          "durationTicks": 15,
          "midi": 61,
          "name": "C#4",
          "ticks": 9309,
          "time": 108.24418604651163,
          "velocity": 0.31496062992125984
        },
        {
          "duration": 0.17441860465116577,
          "durationTicks": 15,
          "midi": 31,
          "name": "G1",
          "ticks": 9310,
          "time": 108.25581395348837,
          "velocity": 0.07874015748031496
        },
        {
          "duration": 0.03488372093023884,
          "durationTicks": 3,
          "midi": 31,
          "name": "G1",
          "ticks": 9327,
          "time": 108.45348837209302,
          "velocity": 0.15748031496062992
        },
        {
          "duration": 0.1860465116279073,
          "durationTicks": 16,
          "midi": 61,
          "name": "C#4",
          "ticks": 9327,
          "time": 108.45348837209302,
          "velocity": 0.28346456692913385
        },
        {
          "duration": 0.13953488372092693,
          "durationTicks": 12,
          "midi": 31,
          "name": "G1",
          "ticks": 9331,
          "time": 108.5,
          "velocity": 0.07874015748031496
        },
        {
          "duration": 0.1860465116279073,
          "durationTicks": 16,
          "midi": 73,
          "name": "C#5",
          "ticks": 9345,
          "time": 108.66279069767442,
          "velocity": 0.16535433070866143
        },
        {
          "duration": 0.17441860465116577,
          "durationTicks": 15,
          "midi": 61,
          "name": "C#4",
          "ticks": 9346,
          "time": 108.67441860465117,
          "velocity": 0.33858267716535434
        },
        {
          "duration": 0.13953488372092693,
          "durationTicks": 12,
          "midi": 31,
          "name": "G1",
          "ticks": 9350,
          "time": 108.72093023255815,
          "velocity": 0.08661417322834646
        },
        {
          "duration": 0.2093023255813904,
          "durationTicks": 18,
          "midi": 73,
          "name": "C#5",
          "ticks": 9364,
          "time": 108.88372093023256,
          "velocity": 0.2047244094488189
        },
        {
          "duration": 0.19767441860464885,
          "durationTicks": 17,
          "midi": 61,
          "name": "C#4",
          "ticks": 9365,
          "time": 108.8953488372093,
          "velocity": 0.3700787401574803
        },
        {
          "duration": 0.1860465116279073,
          "durationTicks": 16,
          "midi": 31,
          "name": "G1",
          "ticks": 9369,
          "time": 108.94186046511628,
          "velocity": 0.07874015748031496
        },
        {
          "duration": 0.05813953488372192,
          "durationTicks": 5,
          "midi": 60,
          "name": "C4",
          "ticks": 9382,
          "time": 109.09302325581395,
          "velocity": 0.30708661417322836
        },
        {
          "duration": 0.13953488372092693,
          "durationTicks": 12,
          "midi": 71,
          "name": "B4",
          "ticks": 9386,
          "time": 109.13953488372093,
          "velocity": 0.08661417322834646
        },
        {
          "duration": 0.13953488372094114,
          "durationTicks": 12,
          "midi": 59,
          "name": "B3",
          "ticks": 9387,
          "time": 109.15116279069767,
          "velocity": 0.25984251968503935
        },
        {
          "duration": 0.13953488372092693,
          "durationTicks": 12,
          "midi": 31,
          "name": "G1",
          "ticks": 9388,
          "time": 109.16279069767442,
          "velocity": 0.07086614173228346
        },
        {
          "duration": 0.30232558139533694,
          "durationTicks": 26,
          "midi": 70,
          "name": "A#4",
          "ticks": 9404,
          "time": 109.34883720930233,
          "velocity": 0.13385826771653545
        },
        {
          "duration": 0.4767441860465027,
          "durationTicks": 41,
          "midi": 58,
          "name": "A#3",
          "ticks": 9405,
          "time": 109.36046511627907,
          "velocity": 0.30708661417322836
        },
        {
          "duration": 0.13953488372092693,
          "durationTicks": 12,
          "midi": 54,
          "name": "F#3",
          "ticks": 9447,
          "time": 109.84883720930233,
          "velocity": 0.2047244094488189
        }
      ],
      "endOfTrackTicks": 9459
    }
  ]
}