{
  "header": {
    "keySignatures": [],
    "meta": [],
    "name": "",
    "ppq": 43,
    "tempos": [
      {
        "bpm": 120,
        "ticks": 0
      }
    ],
    "timeSignatures": []
  },
  "tracks": [
    {
      "channel": 0,
      "controlChanges": {},
      "pitchBends": [],
      "instrument": {
        "family": "piano",
        "number": 0,
        "name": "acoustic grand piano"
      },
      "name": "",
      "notes": [
        {
          "duration": 0.023255813953488372,
          "durationTicks": 2,
          "midi": 56,
          "name": "G#3",
          "ticks": 0,
          "time": 0,
          "velocity": 0.28346456692913385
        },
        {
          "duration": 0.3604651162790698,
          "durationTicks": 31,
          "midi": 57,
          "name": "A3",
          "ticks": 2,
          "time": 0.023255813953488372,
          "velocity": 0.3228346456692913
        },
        {
          "duration": 0.3023255813953488,
          "durationTicks": 26,
          "midi": 61,
          "name": "C#4",
          "ticks": 32,
          "time": 0.37209302325581395,
          "velocity": 0.10236220472440945
        },
        {
          "duration": 0.2674418604651163,
          "durationTicks": 23,
          "midi": 73,
          "name": "C#5",
          "ticks": 32,
          "time": 0.37209302325581395,
          "velocity": 0.12598425196850394
        },
        {
          "duration": 0.05813953488372092,
          "durationTicks": 5,
          "midi": 44,
          "name": "G#2",
          "ticks": 33,
          "time": 0.38372093023255816,
          "velocity": 0.12598425196850394
        },
        {
          "duration": 0.25581395348837216,
          "durationTicks": 22,
          "midi": 64,
          "name": "E4",
          "ticks": 34,
          "time": 0.3953488372093023,
          "velocity": 0.07086614173228346
        },
        {
          "duration": 0.2093023255813954,
          "durationTicks": 18,
          "midi": 57,
          "name": "A3",
          "ticks": 43,
          "time": 0.5,
          "velocity": 0.10236220472440945
        },
        {
          "duration": 0.2674418604651161,
          "durationTicks": 23,
          "midi": 68,
          "name": "G#4",
          "ticks": 90,
          "time": 1.0465116279069768,
          "velocity": 0.15748031496062992
        },
        {
          "duration": 0.023255813953488413,
          "durationTicks": 2,
          "midi": 55,
          "name": "G3",
          "ticks": 118,
          "time": 1.372093023255814,
          "velocity": 0.2677165354330709
        },
        {
          "duration": 0.2674418604651163,
          "durationTicks": 23,
          "midi": 56,
          "name": "G#3",
          "ticks": 120,
          "time": 1.3953488372093024,
          "velocity": 0.2992125984251969
        },
        {
          "duration": 0.15116279069767424,
          "durationTicks": 13,
          "midi": 71,
          "name": "B4",
          "ticks": 123,
          "time": 1.430232558139535,
          "velocity": 0.09448818897637795
        },
        {
          "duration": 0.023255813953488413,
          "durationTicks": 2,
          "midi": 45,
          "name": "A2",
          "ticks": 150,
          "time": 1.744186046511628,
          "velocity": 0.23622047244094488
        },
        {
          "duration": 0.32558139534883734,
          "durationTicks": 28,
          "midi": 63,
          "name": "D#4",
          "ticks": 151,
          "time": 1.755813953488372,
          "velocity": 0.08661417322834646
        },
        {
          "duration": 0.10465116279069764,
          "durationTicks": 9,
          "midi": 44,
          "name": "G#2",
          "ticks": 152,
          "time": 1.7674418604651163,
          "velocity": 0.2283464566929134
        },
        {
          "duration": 0.2558139534883721,
          "durationTicks": 22,
          "midi": 59,
          "name": "B3",
          "ticks": 152,
          "time": 1.7674418604651163,
          "velocity": 0.13385826771653545
        },
        {
          "duration": 0.11627906976744162,
          "durationTicks": 10,
          "midi": 68,
          "name": "G#4",
          "ticks": 180,
          "time": 2.0930232558139537,
          "velocity": 0.11023622047244094
        },
        {
          "duration": 0.12790697674418627,
          "durationTicks": 11,
          "midi": 90,
          "name": "F#6",
          "ticks": 209,
          "time": 2.4302325581395348,
          "velocity": 0.11023622047244094
        },
        {
          "duration": 0.32558139534883734,
          "durationTicks": 28,
          "midi": 54,
          "name": "F#3",
          "ticks": 236,
          "time": 2.744186046511628,
          "velocity": 0.2047244094488189
        },
        {
          "duration": 0.9651162790697674,
          "durationTicks": 83,
          "midi": 70,
          "name": "A#4",
          "ticks": 237,
          "time": 2.755813953488372,
          "velocity": 0.2440944881889764
        },
        {
          "duration": 0.023255813953488413,
          "durationTicks": 2,
          "midi": 57,
          "name": "A3",
          "ticks": 265,
          "time": 3.0813953488372094,
          "velocity": 0.25196850393700787
        },
        {
          "duration": 0.09302325581395321,
          "durationTicks": 8,
          "midi": 44,
          "name": "G#2",
          "ticks": 267,
          "time": 3.104651162790698,
          "velocity": 0.16535433070866143
        },
        {
          "duration": 0.5930232558139532,
          "durationTicks": 51,
          "midi": 58,
          "name": "A#3",
          "ticks": 267,
          "time": 3.104651162790698,
          "velocity": 0.2283464566929134
        },
        {
          "duration": 0.2558139534883721,
          "durationTicks": 22,
          "midi": 73,
          "name": "C#5",
          "ticks": 267,
          "time": 3.104651162790698,
          "velocity": 0.08661417322834646
        },
        {
          "duration": 0.2558139534883721,
          "durationTicks": 22,
          "midi": 66,
          "name": "F#4",
          "ticks": 324,
          "time": 3.7674418604651163,
          "velocity": 0.18110236220472442
        },
        {
          "duration": 0.11627906976744162,
          "durationTicks": 10,
          "midi": 58,
          "name": "A#3",
          "ticks": 325,
          "time": 3.7790697674418605,
          "velocity": 0.1968503937007874
        },
        {
          "duration": 0.10465116279069742,
          "durationTicks": 9,
          "midi": 73,
          "name": "C#5",
          "ticks": 326,
          "time": 3.7906976744186047,
          "velocity": 0.07086614173228346
        },
        {
          "duration": 0.04651162790697683,
          "durationTicks": 4,
          "midi": 55,
          "name": "G3",
          "ticks": 338,
          "time": 3.9302325581395348,
          "velocity": 0.1889763779527559
        },
        {
          "duration": 0.720930232558139,
          "durationTicks": 62,
          "midi": 56,
          "name": "G#3",
          "ticks": 354,
          "time": 4.116279069767442,
          "velocity": 0.3700787401574803
        },
        {
          "duration": 0.6279069767441863,
          "durationTicks": 54,
          "midi": 63,
          "name": "D#4",
          "ticks": 354,
          "time": 4.116279069767442,
          "velocity": 0.25196850393700787
        },
        {
          "duration": 0.9651162790697674,
          "durationTicks": 83,
          "midi": 51,
          "name": "D#3",
          "ticks": 364,
          "time": 4.232558139534884,
          "velocity": 0.1889763779527559
        },
        {
          "duration": 0.27906976744186096,
          "durationTicks": 24,
          "midi": 63,
          "name": "D#4",
          "ticks": 413,
          "time": 4.8023255813953485,
          "velocity": 0.23622047244094488
        },
        {
          "duration": 0.4651162790697674,
          "durationTicks": 40,
          "midi": 66,
          "name": "F#4",
          "ticks": 442,
          "time": 5.1395348837209305,
          "velocity": 0.2440944881889764
        },
        {
          "duration": 0.023255813953488413,
          "durationTicks": 2,
          "midi": 56,
          "name": "G#3",
          "ticks": 470,
          "time": 5.465116279069767,
          "velocity": 0.29133858267716534
        },
        {
          "duration": 0.3372093023255811,
          "durationTicks": 29,
          "midi": 57,
          "name": "A3",
          "ticks": 472,
          "time": 5.488372093023256,
          "velocity": 0.28346456692913385
        },
        {
          "duration": 0.04651162790697683,
          "durationTicks": 4,
          "midi": 76,
          "name": "E5",
          "ticks": 502,
          "time": 5.837209302325581,
          "velocity": 0.07874015748031496
        },
        {
          "duration": 0.09302325581395365,
          "durationTicks": 8,
          "midi": 88,
          "name": "E6",
          "ticks": 502,
          "time": 5.837209302325581,
          "velocity": 0.11811023622047244
        },
        {
          "duration": 0.3488372093023262,
          "durationTicks": 30,
          "midi": 64,
          "name": "E4",
          "ticks": 503,
          "time": 5.848837209302325,
          "velocity": 0.11811023622047244
        },
        {
          "duration": 0.04651162790697683,
          "durationTicks": 4,
          "midi": 44,
          "name": "G#2",
          "ticks": 505,
          "time": 5.872093023255814,
          "velocity": 0.09448818897637795
        },
        {
          "duration": 0.12790697674418627,
          "durationTicks": 11,
          "midi": 61,
          "name": "C#4",
          "ticks": 506,
          "time": 5.883720930232558,
          "velocity": 0.07086614173228346
        },
        {
          "duration": 0.22093023255813993,
          "durationTicks": 19,
          "midi": 68,
          "name": "G#4",
          "ticks": 560,
          "time": 6.511627906976744,
          "velocity": 0.12598425196850394
        },
        {
          "duration": 0.023255813953488413,
          "durationTicks": 2,
          "midi": 55,
          "name": "G3",
          "ticks": 586,
          "time": 6.813953488372093,
          "velocity": 0.23622047244094488
        },
        {
          "duration": 0.3255813953488378,
          "durationTicks": 28,
          "midi": 56,
          "name": "G#3",
          "ticks": 588,
          "time": 6.837209302325581,
          "velocity": 0.2755905511811024
        },
        {
          "duration": 0.5116279069767442,
          "durationTicks": 44,
          "midi": 59,
          "name": "B3",
          "ticks": 619,
          "time": 7.1976744186046515,
          "velocity": 0.14960629921259844
        },
        {
          "duration": 0.20930232558139572,
          "durationTicks": 18,
          "midi": 68,
          "name": "G#4",
          "ticks": 648,
          "time": 7.534883720930233,
          "velocity": 0.13385826771653545
        },
        {
          "duration": 0.39534883720930303,
          "durationTicks": 34,
          "midi": 70,
          "name": "A#4",
          "ticks": 707,
          "time": 8.220930232558139,
          "velocity": 0.25196850393700787
        },
        {
          "duration": 0.3255813953488378,
          "durationTicks": 28,
          "midi": 54,
          "name": "F#3",
          "ticks": 709,
          "time": 8.244186046511627,
          "velocity": 0.2283464566929134
        },
        {
          "duration": 0.04651162790697683,
          "durationTicks": 4,
          "midi": 44,
          "name": "G#2",
          "ticks": 710,
          "time": 8.255813953488373,
          "velocity": 0.07874015748031496
        },
        {
          "duration": 0.24418604651162745,
          "durationTicks": 21,
          "midi": 73,
          "name": "C#5",
          "ticks": 739,
          "time": 8.593023255813954,
          "velocity": 0.09448818897637795
        },
        {
          "duration": 0.5465116279069768,
          "durationTicks": 47,
          "midi": 58,
          "name": "A#3",
          "ticks": 740,
          "time": 8.604651162790697,
          "velocity": 0.15748031496062992
        },
        {
          "duration": 0.27906976744186096,
          "durationTicks": 24,
          "midi": 70,
          "name": "A#4",
          "ticks": 754,
          "time": 8.767441860465116,
          "velocity": 0.18110236220472442
        },
        {
          "duration": 0.03488372093023351,
          "durationTicks": 3,
          "midi": 45,
          "name": "A2",
          "ticks": 793,
          "time": 9.220930232558139,
          "velocity": 0.2047244094488189
        },
        {
          "duration": 0.1627906976744189,
          "durationTicks": 14,
          "midi": 58,
          "name": "A#3",
          "ticks": 793,
          "time": 9.220930232558139,
          "velocity": 0.1889763779527559
        },
        {
          "duration": 0.3023255813953494,
          "durationTicks": 26,
          "midi": 70,
          "name": "A#4",
          "ticks": 793,
          "time": 9.220930232558139,
          "velocity": 0.25196850393700787
        },
        {
          "duration": 0.08139534883720856,
          "durationTicks": 7,
          "midi": 44,
          "name": "G#2",
          "ticks": 796,
          "time": 9.255813953488373,
          "velocity": 0.16535433070866143
        },
        {
          "duration": 0.023255813953488413,
          "durationTicks": 2,
          "midi": 55,
          "name": "G3",
          "ticks": 824,
          "time": 9.581395348837209,
          "velocity": 0.2440944881889764
        },
        {
          "duration": 0.09302325581395365,
          "durationTicks": 8,
          "midi": 44,
          "name": "G#2",
          "ticks": 825,
          "time": 9.593023255813954,
          "velocity": 0.15748031496062992
        },
        {
          "duration": 0.3139534883720927,
          "durationTicks": 27,
          "midi": 73,
          "name": "C#5",
          "ticks": 825,
          "time": 9.593023255813954,
          "velocity": 0.13385826771653545
        },
        {
          "duration": 0.09302325581395365,
          "durationTicks": 8,
          "midi": 56,
          "name": "G#3",
          "ticks": 826,
          "time": 9.604651162790697,
          "velocity": 0.2755905511811024
        },
        {
          "duration": 0.20930232558139572,
          "durationTicks": 18,
          "midi": 78,
          "name": "F#5",
          "ticks": 826,
          "time": 9.604651162790697,
          "velocity": 0.2204724409448819
        },
        {
          "duration": 0.03488372093023173,
          "durationTicks": 3,
          "midi": 56,
          "name": "G#3",
          "ticks": 835,
          "time": 9.709302325581396,
          "velocity": 0.11811023622047244
        },
        {
          "duration": 0.058139534883720145,
          "durationTicks": 5,
          "midi": 56,
          "name": "G#3",
          "ticks": 841,
          "time": 9.779069767441861,
          "velocity": 0.07086614173228346
        },
        {
          "duration": 0.1395348837209287,
          "durationTicks": 12,
          "midi": 54,
          "name": "F#3",
          "ticks": 855,
          "time": 9.94186046511628,
          "velocity": 0.1732283464566929
        },
        {
          "duration": 0.08139534883720856,
          "durationTicks": 7,
          "midi": 54,
          "name": "F#3",
          "ticks": 868,
          "time": 10.093023255813954,
          "velocity": 0.12598425196850394
        },
        {
          "duration": 0.023255813953488413,
          "durationTicks": 2,
          "midi": 55,
          "name": "G3",
          "ticks": 884,
          "time": 10.279069767441861,
          "velocity": 0.23622047244094488
        },
        {
          "duration": 0.1860465116279073,
          "durationTicks": 16,
          "midi": 56,
          "name": "G#3",
          "ticks": 886,
          "time": 10.30232558139535,
          "velocity": 0.30708661417322836
        },
        {
          "duration": 0.11627906976744207,
          "durationTicks": 10,
          "midi": 56,
          "name": "G#3",
          "ticks": 906,
          "time": 10.534883720930232,
          "velocity": 0.1732283464566929
        },
        {
          "duration": 0.1744186046511622,
          "durationTicks": 15,
          "midi": 61,
          "name": "C#4",
          "ticks": 913,
          "time": 10.616279069767442,
          "velocity": 0.12598425196850394
        },
        {
          "duration": 0.174418604651164,
          "durationTicks": 15,
          "midi": 73,
          "name": "C#5",
          "ticks": 914,
          "time": 10.627906976744185,
          "velocity": 0.15748031496062992
        },
        {
          "duration": 0.10465116279069697,
          "durationTicks": 9,
          "midi": 89,
          "name": "F6",
          "ticks": 915,
          "time": 10.63953488372093,
          "velocity": 0.08661417322834646
        },
        {
          "duration": 0.03488372093023351,
          "durationTicks": 3,
          "midi": 56,
          "name": "G#3",
          "ticks": 940,
          "time": 10.930232558139535,
          "velocity": 0.28346456692913385
        },
        {
          "duration": 0.058139534883720145,
          "durationTicks": 5,
          "midi": 64,
          "name": "E4",
          "ticks": 942,
          "time": 10.953488372093023,
          "velocity": 0.2283464566929134
        },
        {
          "duration": 0.2906976744186043,
          "durationTicks": 25,
          "midi": 57,
          "name": "A3",
          "ticks": 943,
          "time": 10.965116279069768,
          "velocity": 0.2440944881889764
        },
        {
          "duration": 0.03488372093023351,
          "durationTicks": 3,
          "midi": 65,
          "name": "F4",
          "ticks": 947,
          "time": 11.011627906976743,
          "velocity": 0.23622047244094488
        },
        {
          "duration": 0.5,
          "durationTicks": 43,
          "midi": 66,
          "name": "F#4",
          "ticks": 950,
          "time": 11.046511627906977,
          "velocity": 0.2755905511811024
        },
        {
          "duration": 0.38372093023255793,
          "durationTicks": 33,
          "midi": 61,
          "name": "C#4",
          "ticks": 969,
          "time": 11.267441860465116,
          "velocity": 0.10236220472440945
        },
        {
          "duration": 0.25581395348837255,
          "durationTicks": 22,
          "midi": 73,
          "name": "C#5",
          "ticks": 969,
          "time": 11.267441860465116,
          "velocity": 0.13385826771653545
        },
        {
          "duration": 0.05813953488372192,
          "durationTicks": 5,
          "midi": 76,
          "name": "E5",
          "ticks": 971,
          "time": 11.290697674418604,
          "velocity": 0.10236220472440945
        },
        {
          "duration": 0.058139534883720145,
          "durationTicks": 5,
          "midi": 67,
          "name": "G4",
          "ticks": 993,
          "time": 11.546511627906977,
          "velocity": 0.18110236220472442
        },
        {
          "duration": 0.1860465116279073,
          "durationTicks": 16,
          "midi": 66,
          "name": "F#4",
          "ticks": 998,
          "time": 11.604651162790697,
          "velocity": 0.2755905511811024
        },
        {
          "duration": 0.12790697674418716,
          "durationTicks": 11,
          "midi": 66,
          "name": "F#4",
          "ticks": 1016,
          "time": 11.813953488372093,
          "velocity": 0.2440944881889764
        },
        {
          "duration": 0.058139534883720145,
          "durationTicks": 5,
          "midi": 45,
          "name": "A2",
          "ticks": 1025,
          "time": 11.918604651162791,
          "velocity": 0.2125984251968504
        },
        {
          "duration": 0.04651162790697683,
          "durationTicks": 4,
          "midi": 64,
          "name": "E4",
          "ticks": 1026,
          "time": 11.930232558139535,
          "velocity": 0.11023622047244094
        },
        {
          "duration": 0.03488372093023173,
          "durationTicks": 3,
          "midi": 67,
          "name": "G4",
          "ticks": 1027,
          "time": 11.94186046511628,
          "velocity": 0.16535433070866143
        },
        {
          "duration": 0.1744186046511622,
          "durationTicks": 15,
          "midi": 73,
          "name": "C#5",
          "ticks": 1027,
          "time": 11.94186046511628,
          "velocity": 0.2677165354330709
        },
        {
          "duration": 0.10465116279069697,
          "durationTicks": 9,
          "midi": 89,
          "name": "F6",
          "ticks": 1028,
          "time": 11.953488372093023,
          "velocity": 0.07874015748031496
        },
        {
          "duration": 0.06976744186046524,
          "durationTicks": 6,
          "midi": 44,
          "name": "G#2",
          "ticks": 1030,
          "time": 11.976744186046512,
          "velocity": 0.16535433070866143
        },
        {
          "duration": 0.1627906976744189,
          "durationTicks": 14,
          "midi": 61,
          "name": "C#4",
          "ticks": 1030,
          "time": 11.976744186046512,
          "velocity": 0.07874015748031496
        },
        {
          "duration": 0.04651162790697505,
          "durationTicks": 4,
          "midi": 64,
          "name": "E4",
          "ticks": 1031,
          "time": 11.988372093023257,
          "velocity": 0.07874015748031496
        },
        {
          "duration": 0.22093023255814082,
          "durationTicks": 19,
          "midi": 66,
          "name": "F#4",
          "ticks": 1035,
          "time": 12.034883720930232,
          "velocity": 0.2283464566929134
        },
        {
          "duration": 0.11627906976744207,
          "durationTicks": 10,
          "midi": 66,
          "name": "F#4",
          "ticks": 1055,
          "time": 12.267441860465116,
          "velocity": 0.2677165354330709
        },
        {
          "duration": 0.3023255813953476,
          "durationTicks": 26,
          "midi": 56,
          "name": "G#3",
          "ticks": 1058,
          "time": 12.30232558139535,
          "velocity": 0.30708661417322836
        },
        {
          "duration": 0.04651162790697683,
          "durationTicks": 4,
          "midi": 44,
          "name": "G#2",
          "ticks": 1060,
          "time": 12.325581395348838,
          "velocity": 0.13385826771653545
        },
        {
          "duration": 0.29069767441860606,
          "durationTicks": 25,
          "midi": 59,
          "name": "B3",
          "ticks": 1090,
          "time": 12.674418604651162,
          "velocity": 0.13385826771653545
        },
        {
          "duration": 0.06976744186046524,
          "durationTicks": 6,
          "midi": 44,
          "name": "G#2",
          "ticks": 1091,
          "time": 12.686046511627907,
          "velocity": 0.11811023622047244
        },
        {
          "duration": 0.09302325581395365,
          "durationTicks": 8,
          "midi": 44,
          "name": "G#2",
          "ticks": 1144,
          "time": 13.30232558139535,
          "velocity": 0.15748031496062992
        },
        {
          "duration": 0.22093023255813904,
          "durationTicks": 19,
          "midi": 73,
          "name": "C#5",
          "ticks": 1146,
          "time": 13.325581395348838,
          "velocity": 0.2283464566929134
        },
        {
          "duration": 0.06976744186046524,
          "durationTicks": 6,
          "midi": 59,
          "name": "B3",
          "ticks": 1147,
          "time": 13.337209302325581,
          "velocity": 0.07086614173228346
        },
        {
          "duration": 0.03488372093023351,
          "durationTicks": 3,
          "midi": 66,
          "name": "F#4",
          "ticks": 1170,
          "time": 13.604651162790697,
          "velocity": 0.13385826771653545
        },
        {
          "duration": 0.39534883720930303,
          "durationTicks": 34,
          "midi": 70,
          "name": "A#4",
          "ticks": 1174,
          "time": 13.651162790697674,
          "velocity": 0.25196850393700787
        },
        {
          "duration": 0.4651162790697665,
          "durationTicks": 40,
          "midi": 66,
          "name": "F#4",
          "ticks": 1177,
          "time": 13.686046511627907,
          "velocity": 0.2755905511811024
        },
        {
          "duration": 0.3023255813953494,
          "durationTicks": 26,
          "midi": 54,
          "name": "F#3",
          "ticks": 1178,
          "time": 13.69767441860465,
          "velocity": 0.11023622047244094
        },
        {
          "duration": 0.5581395348837201,
          "durationTicks": 48,
          "midi": 58,
          "name": "A#3",
          "ticks": 1208,
          "time": 14.046511627906977,
          "velocity": 0.2204724409448819
        },
        {
          "duration": 0.1860465116279073,
          "durationTicks": 16,
          "midi": 73,
          "name": "C#5",
          "ticks": 1209,
          "time": 14.05813953488372,
          "velocity": 0.09448818897637795
        },
        {
          "duration": 0.4883720930232549,
          "durationTicks": 42,
          "midi": 66,
          "name": "F#4",
          "ticks": 1218,
          "time": 14.162790697674419,
          "velocity": 0.25196850393700787
        },
        {
          "duration": 0.03488372093023173,
          "durationTicks": 3,
          "midi": 57,
          "name": "A3",
          "ticks": 1261,
          "time": 14.662790697674419,
          "velocity": 0.2204724409448819
        },
        {
          "duration": 0.25581395348837255,
          "durationTicks": 22,
          "midi": 66,
          "name": "F#4",
          "ticks": 1261,
          "time": 14.662790697674419,
          "velocity": 0.2755905511811024
        },
        {
          "duration": 0.3488372093023262,
          "durationTicks": 30,
          "midi": 58,
          "name": "A#3",
          "ticks": 1264,
          "time": 14.69767441860465,
          "velocity": 0.18110236220472442
        },
        {
          "duration": 0.3139534883720927,
          "durationTicks": 27,
          "midi": 73,
          "name": "C#5",
          "ticks": 1265,
          "time": 14.709302325581396,
          "velocity": 0.08661417322834646
        },
        {
          "duration": 0.08139534883720856,
          "durationTicks": 7,
          "midi": 64,
          "name": "E4",
          "ticks": 1287,
          "time": 14.965116279069768,
          "velocity": 0.2440944881889764
        },
        {
          "duration": 0.3372093023255829,
          "durationTicks": 29,
          "midi": 54,
          "name": "F#3",
          "ticks": 1293,
          "time": 15.034883720930232,
          "velocity": 0.2047244094488189
        },
        {
          "duration": 0.8255813953488378,
          "durationTicks": 71,
          "midi": 63,
          "name": "D#4",
          "ticks": 1294,
          "time": 15.046511627906977,
          "velocity": 0.2992125984251969
        },
        {
          "duration": 0.04651162790697683,
          "durationTicks": 4,
          "midi": 58,
          "name": "A#3",
          "ticks": 1295,
          "time": 15.05813953488372,
          "velocity": 0.11811023622047244
        },
        {
          "duration": 0.04651162790697683,
          "durationTicks": 4,
          "midi": 58,
          "name": "A#3",
          "ticks": 1300,
          "time": 15.116279069767442,
          "velocity": 0.09448818897637795
        },
        {
          "duration": 0.11627906976744207,
          "durationTicks": 10,
          "midi": 58,
          "name": "A#3",
          "ticks": 1307,
          "time": 15.19767441860465,
          "velocity": 0.09448818897637795
        },
        {
          "duration": 0.06976744186046524,
          "durationTicks": 6,
          "midi": 44,
          "name": "G#2",
          "ticks": 1325,
          "time": 15.406976744186046,
          "velocity": 0.12598425196850394
        },
        {
          "duration": 0.3139534883720927,
          "durationTicks": 27,
          "midi": 58,
          "name": "A#3",
          "ticks": 1325,
          "time": 15.406976744186046,
          "velocity": 0.2204724409448819
        },
        {
          "duration": 0.16279069767441712,
          "durationTicks": 14,
          "midi": 73,
          "name": "C#5",
          "ticks": 1326,
          "time": 15.418604651162791,
          "velocity": 0.07086614173228346
        },
        {
          "duration": 0.058139534883720145,
          "durationTicks": 5,
          "midi": 58,
          "name": "A#3",
          "ticks": 1353,
          "time": 15.732558139534884,
          "velocity": 0.10236220472440945
        },
        {
          "duration": 0.09302325581395365,
          "durationTicks": 8,
          "midi": 58,
          "name": "A#3",
          "ticks": 1367,
          "time": 15.895348837209303,
          "velocity": 0.12598425196850394
        },
        {
          "duration": 0.03488372093023351,
          "durationTicks": 3,
          "midi": 64,
          "name": "E4",
          "ticks": 1370,
          "time": 15.930232558139535,
          "velocity": 0.25984251968503935
        },
        {
          "duration": 0.3604651162790695,
          "durationTicks": 31,
          "midi": 63,
          "name": "D#4",
          "ticks": 1373,
          "time": 15.965116279069768,
          "velocity": 0.2047244094488189
        },
        {
          "duration": 0.24418604651162923,
          "durationTicks": 21,
          "midi": 66,
          "name": "F#4",
          "ticks": 1380,
          "time": 16.046511627906977,
          "velocity": 0.1968503937007874
        },
        {
          "duration": 0.20930232558139394,
          "durationTicks": 18,
          "midi": 73,
          "name": "C#5",
          "ticks": 1380,
          "time": 16.046511627906977,
          "velocity": 0.12598425196850394
        },
        {
          "duration": 0.19767441860464885,
          "durationTicks": 17,
          "midi": 58,
          "name": "A#3",
          "ticks": 1381,
          "time": 16.058139534883722,
          "velocity": 0.1968503937007874
        },
        {
          "duration": 0.03488372093023173,
          "durationTicks": 3,
          "midi": 68,
          "name": "G#4",
          "ticks": 1408,
          "time": 16.372093023255815,
          "velocity": 0.1732283464566929
        },
        {
          "duration": 1.2674418604651159,
          "durationTicks": 109,
          "midi": 66,
          "name": "F#4",
          "ticks": 1410,
          "time": 16.3953488372093,
          "velocity": 0.29133858267716534
        },
        {
          "duration": 0.25581395348837077,
          "durationTicks": 22,
          "midi": 57,
          "name": "A3",
          "ticks": 1412,
          "time": 16.41860465116279,
          "velocity": 0.25984251968503935
        },
        {
          "duration": 0.29069767441860606,
          "durationTicks": 25,
          "midi": 73,
          "name": "C#5",
          "ticks": 1441,
          "time": 16.75581395348837,
          "velocity": 0.09448818897637795
        },
        {
          "duration": 0.03488372093023173,
          "durationTicks": 3,
          "midi": 88,
          "name": "E6",
          "ticks": 1442,
          "time": 16.767441860465116,
          "velocity": 0.07086614173228346
        },
        {
          "duration": 0.04651162790697683,
          "durationTicks": 4,
          "midi": 44,
          "name": "G#2",
          "ticks": 1497,
          "time": 17.406976744186046,
          "velocity": 0.09448818897637795
        },
        {
          "duration": 0.1744186046511622,
          "durationTicks": 15,
          "midi": 73,
          "name": "C#5",
          "ticks": 1497,
          "time": 17.406976744186046,
          "velocity": 0.14960629921259844
        },
        {
          "duration": 0.09302325581395365,
          "durationTicks": 8,
          "midi": 66,
          "name": "F#4",
          "ticks": 1525,
          "time": 17.732558139534884,
          "velocity": 0.29133858267716534
        },
        {
          "duration": 0.25581395348837077,
          "durationTicks": 22,
          "midi": 56,
          "name": "G#3",
          "ticks": 1529,
          "time": 17.77906976744186,
          "velocity": 0.2677165354330709
        },
        {
          "duration": 0.12790697674418539,
          "durationTicks": 11,
          "midi": 89,
          "name": "F6",
          "ticks": 1529,
          "time": 17.77906976744186,
          "velocity": 0.07874015748031496
        },
        {
          "duration": 0.03488372093023173,
          "durationTicks": 3,
          "midi": 67,
          "name": "G4",
          "ticks": 1533,
          "time": 17.825581395348838,
          "velocity": 0.2125984251968504
        },
        {
          "duration": 0.23255813953488058,
          "durationTicks": 20,
          "midi": 70,
          "name": "A#4",
          "ticks": 1534,
          "time": 17.837209302325583,
          "velocity": 0.11023622047244094
        },
        {
          "duration": 0.9069767441860463,
          "durationTicks": 78,
          "midi": 68,
          "name": "G#4",
          "ticks": 1536,
          "time": 17.86046511627907,
          "velocity": 0.2677165354330709
        },
        {
          "duration": 0.04651162790697683,
          "durationTicks": 4,
          "midi": 66,
          "name": "F#4",
          "ticks": 1543,
          "time": 17.941860465116278,
          "velocity": 0.14960629921259844
        },
        {
          "duration": 0.03488372093023173,
          "durationTicks": 3,
          "midi": 44,
          "name": "G#2",
          "ticks": 1561,
          "time": 18.151162790697676,
          "velocity": 0.18110236220472442
        },
        {
          "duration": 0.04651162790697683,
          "durationTicks": 4,
          "midi": 44,
          "name": "G#2",
          "ticks": 1565,
          "time": 18.197674418604652,
          "velocity": 0.09448818897637795
        },
        {
          "duration": 0.03488372093023173,
          "durationTicks": 3,
          "midi": 55,
          "name": "G3",
          "ticks": 1614,
          "time": 18.767441860465116,
          "velocity": 0.1732283464566929
        },
        {
          "duration": 0.20930232558139394,
          "durationTicks": 18,
          "midi": 59,
          "name": "B3",
          "ticks": 1615,
          "time": 18.77906976744186,
          "velocity": 0.18110236220472442
        },
        {
          "duration": 0.25581395348837077,
          "durationTicks": 22,
          "midi": 73,
          "name": "C#5",
          "ticks": 1615,
          "time": 18.77906976744186,
          "velocity": 0.2125984251968504
        },
        {
          "duration": 0.11627906976744384,
          "durationTicks": 10,
          "midi": 68,
          "name": "G#4",
          "ticks": 1617,
          "time": 18.802325581395348,
          "velocity": 0.18110236220472442
        },
        {
          "duration": 0.03488372093023173,
          "durationTicks": 3,
          "midi": 67,
          "name": "G4",
          "ticks": 1627,
          "time": 18.91860465116279,
          "velocity": 0.08661417322834646
        },
        {
          "duration": 0.7093023255813975,
          "durationTicks": 61,
          "midi": 70,
          "name": "A#4",
          "ticks": 1644,
          "time": 19.11627906976744,
          "velocity": 0.2440944881889764
        },
        {
          "duration": 0.3372093023255829,
          "durationTicks": 29,
          "midi": 54,
          "name": "F#3",
          "ticks": 1646,
          "time": 19.13953488372093,
          "velocity": 0.18110236220472442
        },
        {
          "duration": 0.7906976744186061,
          "durationTicks": 68,
          "midi": 66,
          "name": "F#4",
          "ticks": 1648,
          "time": 19.162790697674417,
          "velocity": 0.2755905511811024
        },
        {
          "duration": 0.1860465116279073,
          "durationTicks": 16,
          "midi": 73,
          "name": "C#5",
          "ticks": 1676,
          "time": 19.488372093023255,
          "velocity": 0.07086614173228346
        },
        {
          "duration": 0.08139534883720856,
          "durationTicks": 7,
          "midi": 44,
          "name": "G#2",
          "ticks": 1677,
          "time": 19.5,
          "velocity": 0.1732283464566929
        },
        {
          "duration": 0.30232558139535115,
          "durationTicks": 26,
          "midi": 58,
          "name": "A#3",
          "ticks": 1679,
          "time": 19.523255813953487,
          "velocity": 0.09448818897637795
        },
        {
          "duration": 0.1046511627906952,
          "durationTicks": 9,
          "midi": 66,
          "name": "F#4",
          "ticks": 1721,
          "time": 20.011627906976745,
          "velocity": 0.2204724409448819
        },
        {
          "duration": 0.848837209302328,
          "durationTicks": 73,
          "midi": 66,
          "name": "F#4",
          "ticks": 1731,
          "time": 20.127906976744185,
          "velocity": 0.2677165354330709
        },
        {
          "duration": 0.6162790697674403,
          "durationTicks": 53,
          "midi": 58,
          "name": "A#3",
          "ticks": 1733,
          "time": 20.151162790697676,
          "velocity": 0.2125984251968504
        },
        {
          "duration": 0.06976744186046702,
          "durationTicks": 6,
          "midi": 44,
          "name": "G#2",
          "ticks": 1734,
          "time": 20.162790697674417,
          "velocity": 0.14960629921259844
        },
        {
          "duration": 0.08139534883720856,
          "durationTicks": 7,
          "midi": 44,
          "name": "G#2",
          "ticks": 1761,
          "time": 20.476744186046513,
          "velocity": 0.14960629921259844
        },
        {
          "duration": 0.1744186046511622,
          "durationTicks": 15,
          "midi": 54,
          "name": "F#3",
          "ticks": 1767,
          "time": 20.546511627906977,
          "velocity": 0.08661417322834646
        },
        {
          "duration": 0.023255813953486637,
          "durationTicks": 2,
          "midi": 57,
          "name": "A3",
          "ticks": 1791,
          "time": 20.825581395348838,
          "velocity": 0.25196850393700787
        },
        {
          "duration": 0.09302325581395365,
          "durationTicks": 8,
          "midi": 44,
          "name": "G#2",
          "ticks": 1793,
          "time": 20.848837209302324,
          "velocity": 0.1968503937007874
        },
        {
          "duration": 0.29069767441860606,
          "durationTicks": 25,
          "midi": 58,
          "name": "A#3",
          "ticks": 1793,
          "time": 20.848837209302324,
          "velocity": 0.2125984251968504
        },
        {
          "duration": 0.3372093023255829,
          "durationTicks": 29,
          "midi": 66,
          "name": "F#4",
          "ticks": 1814,
          "time": 21.093023255813954,
          "velocity": 0.25984251968503935
        },
        {
          "duration": 0.2093023255813975,
          "durationTicks": 18,
          "midi": 58,
          "name": "A#3",
          "ticks": 1828,
          "time": 21.25581395348837,
          "velocity": 0.09448818897637795
        },
        {
          "duration": 0.03488372093023173,
          "durationTicks": 3,
          "midi": 45,
          "name": "A2",
          "ticks": 1849,
          "time": 21.5,
          "velocity": 0.2125984251968504
        },
        {
          "duration": 0.3255813953488378,
          "durationTicks": 28,
          "midi": 58,
          "name": "A#3",
          "ticks": 1850,
          "time": 21.511627906976745,
          "velocity": 0.14173228346456693
        },
        {
          "duration": 0.19767441860464885,
          "durationTicks": 17,
          "midi": 73,
          "name": "C#5",
          "ticks": 1850,
          "time": 21.511627906976745,
          "velocity": 0.12598425196850394
        },
        {
          "duration": 0.2558139534883743,
          "durationTicks": 22,
          "midi": 68,
          "name": "G#4",
          "ticks": 1851,
          "time": 21.523255813953487,
          "velocity": 0.18110236220472442
        },
        {
          "duration": 0.03488372093023173,
          "durationTicks": 3,
          "midi": 44,
          "name": "G#2",
          "ticks": 1852,
          "time": 21.53488372093023,
          "velocity": 0.18110236220472442
        },
        {
          "duration": 0.3720930232558146,
          "durationTicks": 32,
          "midi": 61,
          "name": "C#4",
          "ticks": 1877,
          "time": 21.825581395348838,
          "velocity": 0.16535433070866143
        },
        {
          "duration": 0.3023255813953476,
          "durationTicks": 26,
          "midi": 69,
          "name": "A4",
          "ticks": 1880,
          "time": 21.86046511627907,
          "velocity": 0.1968503937007874
        },
        {
          "duration": 0.1860465116279073,
          "durationTicks": 16,
          "midi": 88,
          "name": "E6",
          "ticks": 1880,
          "time": 21.86046511627907,
          "velocity": 0.15748031496062992
        },
        {
          "duration": 0.26744186046511587,
          "durationTicks": 23,
          "midi": 57,
          "name": "A3",
          "ticks": 1882,
          "time": 21.88372093023256,
          "velocity": 0.1968503937007874
        },
        {
          "duration": 0.27906976744186096,
          "durationTicks": 24,
          "midi": 78,
          "name": "F#5",
          "ticks": 1910,
          "time": 22.209302325581394,
          "velocity": 0.2204724409448819
        },
        {
          "duration": 0.11627906976744384,
          "durationTicks": 10,
          "midi": 66,
          "name": "F#4",
          "ticks": 1911,
          "time": 22.22093023255814,
          "velocity": 0.07086614173228346
        },
        {
          "duration": 0.4883720930232549,
          "durationTicks": 42,
          "midi": 61,
          "name": "C#4",
          "ticks": 1925,
          "time": 22.38372093023256,
          "velocity": 0.1968503937007874
        },
        {
          "duration": 0.13953488372093048,
          "durationTicks": 12,
          "midi": 88,
          "name": "E6",
          "ticks": 1953,
          "time": 22.709302325581394,
          "velocity": 0.2204724409448819
        },
        {
          "duration": 0.06976744186046702,
          "durationTicks": 6,
          "midi": 76,
          "name": "E5",
          "ticks": 1954,
          "time": 22.72093023255814,
          "velocity": 0.07086614173228346
        },
        {
          "duration": 0.16279069767441712,
          "durationTicks": 14,
          "midi": 66,
          "name": "F#4",
          "ticks": 1970,
          "time": 22.906976744186046,
          "velocity": 0.08661417322834646
        },
        {
          "duration": 0.15116279069767202,
          "durationTicks": 13,
          "midi": 63,
          "name": "D#4",
          "ticks": 1972,
          "time": 22.930232558139537,
          "velocity": 0.13385826771653545
        },
        {
          "duration": 0.47674418604651336,
          "durationTicks": 41,
          "midi": 68,
          "name": "G#4",
          "ticks": 2000,
          "time": 23.25581395348837,
          "velocity": 0.2125984251968504
        },
        {
          "duration": 0.16279069767441712,
          "durationTicks": 14,
          "midi": 56,
          "name": "G#3",
          "ticks": 2003,
          "time": 23.290697674418606,
          "velocity": 0.25196850393700787
        },
        {
          "duration": 0.11627906976744029,
          "durationTicks": 10,
          "midi": 59,
          "name": "B3",
          "ticks": 2015,
          "time": 23.430232558139537,
          "velocity": 0.11023622047244094
        },
        {
          "duration": 0.03488372093023173,
          "durationTicks": 3,
          "midi": 44,
          "name": "G#2",
          "ticks": 2033,
          "time": 23.63953488372093,
          "velocity": 0.08661417322834646
        },
        {
          "duration": 0.06976744186046702,
          "durationTicks": 6,
          "midi": 59,
          "name": "B3",
          "ticks": 2063,
          "time": 23.988372093023255,
          "velocity": 0.11023622047244094
        },
        {
          "duration": 0.08139534883720856,
          "durationTicks": 7,
          "midi": 59,
          "name": "B3",
          "ticks": 2072,
          "time": 24.093023255813954,
          "velocity": 0.11811023622047244
        },
        {
          "duration": 0.03488372093023173,
          "durationTicks": 3,
          "midi": 45,
          "name": "A2",
          "ticks": 2089,
          "time": 24.290697674418606,
          "velocity": 0.16535433070866143
        },
        {
          "duration": 0.03488372093023173,
          "durationTicks": 3,
          "midi": 44,
          "name": "G#2",
          "ticks": 2092,
          "time": 24.325581395348838,
          "velocity": 0.10236220472440945
        },
        {
          "duration": 0.348837209302328,
          "durationTicks": 30,
          "midi": 70,
          "name": "A#4",
          "ticks": 2118,
          "time": 24.627906976744185,
          "velocity": 0.2440944881889764
        },
        {
          "duration": 0.03488372093023173,
          "durationTicks": 3,
          "midi": 44,
          "name": "G#2",
          "ticks": 2148,
          "time": 24.976744186046513,
          "velocity": 0.09448818897637795
        },
        {
          "duration": 0.5116279069767415,
          "durationTicks": 44,
          "midi": 58,
          "name": "A#3",
          "ticks": 2148,
          "time": 24.976744186046513,
          "velocity": 0.16535433070866143
        },
        {
          "duration": 0.16279069767442067,
          "durationTicks": 14,
          "midi": 54,
          "name": "F#3",
          "ticks": 2161,
          "time": 25.127906976744185,
          "velocity": 0.10236220472440945
        },
        {
          "duration": 0.03488372093023173,
          "durationTicks": 3,
          "midi": 54,
          "name": "F#3",
          "ticks": 2202,
          "time": 25.6046511627907,
          "velocity": 0.13385826771653545
        },
        {
          "duration": 0.31395348837209625,
          "durationTicks": 27,
          "midi": 66,
          "name": "F#4",
          "ticks": 2203,
          "time": 25.61627906976744,
          "velocity": 0.2283464566929134
        },
        {
          "duration": 0.12790697674418894,
          "durationTicks": 11,
          "midi": 58,
          "name": "A#3",
          "ticks": 2207,
          "time": 25.662790697674417,
          "velocity": 0.1889763779527559
        },
        {
          "duration": 0.023255813953486637,
          "durationTicks": 2,
          "midi": 54,
          "name": "F#3",
          "ticks": 2233,
          "time": 25.96511627906977,
          "velocity": 0.2283464566929134
        },
        {
          "duration": 0.02325581395349019,
          "durationTicks": 2,
          "midi": 55,
          "name": "G3",
          "ticks": 2235,
          "time": 25.988372093023255,
          "velocity": 0.29133858267716534
        },
        {
          "duration": 0.6162790697674438,
          "durationTicks": 53,
          "midi": 63,
          "name": "D#4",
          "ticks": 2235,
          "time": 25.988372093023255,
          "velocity": 0.29133858267716534
        },
        {
          "duration": 0.20930232558139394,
          "durationTicks": 18,
          "midi": 56,
          "name": "G#3",
          "ticks": 2237,
          "time": 26.011627906976745,
          "velocity": 0.30708661417322836
        },
        {
          "duration": 0.034883720930235285,
          "durationTicks": 3,
          "midi": 55,
          "name": "G3",
          "ticks": 2258,
          "time": 26.25581395348837,
          "velocity": 0.11811023622047244
        },
        {
          "duration": 0.22093023255813904,
          "durationTicks": 19,
          "midi": 54,
          "name": "F#3",
          "ticks": 2264,
          "time": 26.325581395348838,
          "velocity": 0.25984251968503935
        },
        {
          "duration": 0.27906976744186096,
          "durationTicks": 24,
          "midi": 63,
          "name": "D#4",
          "ticks": 2293,
          "time": 26.662790697674417,
          "velocity": 0.25196850393700787
        },
        {
          "duration": 0.03488372093023173,
          "durationTicks": 3,
          "midi": 55,
          "name": "G3",
          "ticks": 2294,
          "time": 26.674418604651162,
          "velocity": 0.30708661417322836
        },
        {
          "duration": 0.15116279069767558,
          "durationTicks": 13,
          "midi": 56,
          "name": "G#3",
          "ticks": 2297,
          "time": 26.709302325581394,
          "velocity": 0.30708661417322836
        },
        {
          "duration": 0.04651162790697683,
          "durationTicks": 4,
          "midi": 54,
          "name": "F#3",
          "ticks": 2318,
          "time": 26.953488372093023,
          "velocity": 0.1889763779527559
        },
        {
          "duration": 0.1744186046511622,
          "durationTicks": 15,
          "midi": 58,
          "name": "A#3",
          "ticks": 2323,
          "time": 27.011627906976745,
          "velocity": 0.2283464566929134
        },
        {
          "duration": 0.43023255813953654,
          "durationTicks": 37,
          "midi": 66,
          "name": "F#4",
          "ticks": 2324,
          "time": 27.023255813953487,
          "velocity": 0.2440944881889764
        },
        {
          "duration": 0.04651162790697683,
          "durationTicks": 4,
          "midi": 57,
          "name": "A3",
          "ticks": 2338,
          "time": 27.186046511627907,
          "velocity": 0.15748031496062992
        },
        {
          "duration": 0.023255813953486637,
          "durationTicks": 2,
          "midi": 56,
          "name": "G#3",
          "ticks": 2351,
          "time": 27.337209302325583,
          "velocity": 0.25984251968503935
        },
        {
          "duration": 0.3255813953488378,
          "durationTicks": 28,
          "midi": 61,
          "name": "C#4",
          "ticks": 2352,
          "time": 27.348837209302324,
          "velocity": 0.13385826771653545
        },
        {
          "duration": 0.15116279069767558,
          "durationTicks": 13,
          "midi": 57,
          "name": "A3",
          "ticks": 2353,
          "time": 27.36046511627907,
          "velocity": 0.2440944881889764
        },
        {
          "duration": 0.04651162790697683,
          "durationTicks": 4,
          "midi": 57,
          "name": "A3",
          "ticks": 2379,
          "time": 27.662790697674417,
          "velocity": 0.09448818897637795
        },
        {
          "duration": 0.08139534883720856,
          "durationTicks": 7,
          "midi": 88,
          "name": "E6",
          "ticks": 2381,
          "time": 27.686046511627907,
          "velocity": 0.07086614173228346
        },
        {
          "duration": 0.11627906976744029,
          "durationTicks": 10,
          "midi": 68,
          "name": "G#4",
          "ticks": 2382,
          "time": 27.697674418604652,
          "velocity": 0.09448818897637795
        },
        {
          "duration": 0.034883720930235285,
          "durationTicks": 3,
          "midi": 45,
          "name": "A2",
          "ticks": 2383,
          "time": 27.709302325581394,
          "velocity": 0.11023622047244094
        },
        {
          "duration": 0.6511627906976756,
          "durationTicks": 56,
          "midi": 61,
          "name": "C#4",
          "ticks": 2383,
          "time": 27.709302325581394,
          "velocity": 0.2047244094488189
        },
        {
          "duration": 0.05813953488371837,
          "durationTicks": 5,
          "midi": 68,
          "name": "G#4",
          "ticks": 2394,
          "time": 27.837209302325583,
          "velocity": 0.07086614173228346
        },
        {
          "duration": 0.20930232558139394,
          "durationTicks": 18,
          "midi": 68,
          "name": "G#4",
          "ticks": 2439,
          "time": 28.36046511627907,
          "velocity": 0.15748031496062992
        },
        {
          "duration": 0.08139534883720856,
          "durationTicks": 7,
          "midi": 44,
          "name": "G#2",
          "ticks": 2440,
          "time": 28.372093023255815,
          "velocity": 0.16535433070866143
        },
        {
          "duration": 0.12790697674418539,
          "durationTicks": 11,
          "midi": 63,
          "name": "D#4",
          "ticks": 2442,
          "time": 28.3953488372093,
          "velocity": 0.11023622047244094
        },
        {
          "duration": 0.1860465116279073,
          "durationTicks": 16,
          "midi": 73,
          "name": "C#5",
          "ticks": 2442,
          "time": 28.3953488372093,
          "velocity": 0.08661417322834646
        },
        {
          "duration": 0.09302325581395365,
          "durationTicks": 8,
          "midi": 71,
          "name": "B4",
          "ticks": 2469,
          "time": 28.709302325581394,
          "velocity": 0.11811023622047244
        },
        {
          "duration": 0.09302325581395365,
          "durationTicks": 8,
          "midi": 90,
          "name": "F#6",
          "ticks": 2471,
          "time": 28.732558139534884,
          "velocity": 0.07086614173228346
        },
        {
          "duration": 0.08139534883721211,
          "durationTicks": 7,
          "midi": 56,
          "name": "G#3",
          "ticks": 2473,
          "time": 28.75581395348837,
          "velocity": 0.23622047244094488
        },
        {
          "duration": 0.034883720930235285,
          "durationTicks": 3,
          "midi": 56,
          "name": "G#3",
          "ticks": 2481,
          "time": 28.848837209302324,
          "velocity": 0.14173228346456693
        },
        {
          "duration": 0.16279069767441712,
          "durationTicks": 14,
          "midi": 59,
          "name": "B3",
          "ticks": 2482,
          "time": 28.86046511627907,
          "velocity": 0.14960629921259844
        },
        {
          "duration": 0.23255813953488413,
          "durationTicks": 20,
          "midi": 66,
          "name": "F#4",
          "ticks": 2502,
          "time": 29.093023255813954,
          "velocity": 0.09448818897637795
        },
        {
          "duration": 0.05813953488372192,
          "durationTicks": 5,
          "midi": 59,
          "name": "B3",
          "ticks": 2540,
          "time": 29.53488372093023,
          "velocity": 0.11811023622047244
        },
        {
          "duration": 0.06976744186046702,
          "durationTicks": 6,
          "midi": 59,
          "name": "B3",
          "ticks": 2552,
          "time": 29.674418604651162,
          "velocity": 0.14173228346456693
        },
        {
          "duration": 0.04651162790697683,
          "durationTicks": 4,
          "midi": 44,
          "name": "G#2",
          "ticks": 2558,
          "time": 29.74418604651163,
          "velocity": 0.14960629921259844
        },
        {
          "duration": 0.15116279069767558,
          "durationTicks": 13,
          "midi": 71,
          "name": "B4",
          "ticks": 2559,
          "time": 29.75581395348837,
          "velocity": 0.11023622047244094
        },
        {
          "duration": 0.03488372093023173,
          "durationTicks": 3,
          "midi": 54,
          "name": "F#3",
          "ticks": 2593,
          "time": 30.151162790697676,
          "velocity": 0.14960629921259844
        },
        {
          "duration": 0.04651162790697683,
          "durationTicks": 4,
          "midi": 54,
          "name": "F#3",
          "ticks": 2598,
          "time": 30.209302325581394,
          "velocity": 0.13385826771653545
        },
        {
          "duration": 0.16279069767441712,
          "durationTicks": 14,
          "midi": 66,
          "name": "F#4",
          "ticks": 2617,
          "time": 30.430232558139537,
          "velocity": 0.09448818897637795
        },
        {
          "duration": 1.0348837209302353,
          "durationTicks": 89,
          "midi": 70,
          "name": "A#4",
          "ticks": 2618,
          "time": 30.441860465116278,
          "velocity": 0.3228346456692913
        },
        {
          "duration": 0.06976744186046346,
          "durationTicks": 6,
          "midi": 63,
          "name": "D#4",
          "ticks": 2651,
          "time": 30.825581395348838,
          "velocity": 0.08661417322834646
        },
        {
          "duration": 0.27906976744186096,
          "durationTicks": 24,
          "midi": 51,
          "name": "D#3",
          "ticks": 2677,
          "time": 31.127906976744185,
          "velocity": 0.09448818897637795
        },
        {
          "duration": 0.03488372093023173,
          "durationTicks": 3,
          "midi": 44,
          "name": "G#2",
          "ticks": 2678,
          "time": 31.13953488372093,
          "velocity": 0.07086614173228346
        },
        {
          "duration": 0.1860465116279073,
          "durationTicks": 16,
          "midi": 66,
          "name": "F#4",
          "ticks": 2678,
          "time": 31.13953488372093,
          "velocity": 0.10236220472440945
        },
        {
          "duration": 0.4418604651162781,
          "durationTicks": 38,
          "midi": 78,
          "name": "F#5",
          "ticks": 2707,
          "time": 31.476744186046513,
          "velocity": 0.2677165354330709
        },
        {
          "duration": 0.05813953488372192,
          "durationTicks": 5,
          "midi": 54,
          "name": "F#3",
          "ticks": 2711,
          "time": 31.523255813953487,
          "velocity": 0.1889763779527559
        },
        {
          "duration": 0.03488372093023173,
          "durationTicks": 3,
          "midi": 63,
          "name": "D#4",
          "ticks": 2725,
          "time": 31.686046511627907,
          "velocity": 0.07086614173228346
        },
        {
          "duration": 0.1860465116279073,
          "durationTicks": 16,
          "midi": 56,
          "name": "G#3",
          "ticks": 2736,
          "time": 31.813953488372093,
          "velocity": 0.2755905511811024
        },
        {
          "duration": 0.23255813953488058,
          "durationTicks": 20,
          "midi": 58,
          "name": "A#3",
          "ticks": 2765,
          "time": 32.151162790697676,
          "velocity": 0.1732283464566929
        },
        {
          "duration": 0.04651162790698038,
          "durationTicks": 4,
          "midi": 63,
          "name": "D#4",
          "ticks": 2769,
          "time": 32.19767441860465,
          "velocity": 0.07086614173228346
        },
        {
          "duration": 0.19767441860465595,
          "durationTicks": 17,
          "midi": 56,
          "name": "G#3",
          "ticks": 2793,
          "time": 32.47674418604651,
          "velocity": 0.28346456692913385
        },
        {
          "duration": 0.02325581395349019,
          "durationTicks": 2,
          "midi": 56,
          "name": "G#3",
          "ticks": 2820,
          "time": 32.7906976744186,
          "velocity": 0.2440944881889764
        },
        {
          "duration": 0.36046511627906597,
          "durationTicks": 31,
          "midi": 61,
          "name": "C#4",
          "ticks": 2821,
          "time": 32.80232558139535,
          "velocity": 0.1889763779527559
        },
        {
          "duration": 0.05813953488372192,
          "durationTicks": 5,
          "midi": 57,
          "name": "A3",
          "ticks": 2822,
          "time": 32.81395348837209,
          "velocity": 0.2283464566929134
        },
        {
          "duration": 0.03488372093023173,
          "durationTicks": 3,
          "midi": 57,
          "name": "A3",
          "ticks": 2828,
          "time": 32.883720930232556,
          "velocity": 0.11023622047244094
        },
        {
          "duration": 0.046511627906973274,
          "durationTicks": 4,
          "midi": 57,
          "name": "A3",
          "ticks": 2834,
          "time": 32.95348837209303,
          "velocity": 0.07874015748031496
        },
        {
          "duration": 0.03488372093023173,
          "durationTicks": 3,
          "midi": 56,
          "name": "G#3",
          "ticks": 2851,
          "time": 33.151162790697676,
          "velocity": 0.13385826771653545
        },
        {
          "duration": 0.6511627906976685,
          "durationTicks": 56,
          "midi": 61,
          "name": "C#4",
          "ticks": 2853,
          "time": 33.174418604651166,
          "velocity": 0.2047244094488189
        },
        {
          "duration": 0.16279069767441712,
          "durationTicks": 14,
          "midi": 66,
          "name": "F#4",
          "ticks": 2853,
          "time": 33.174418604651166,
          "velocity": 0.07086614173228346
        },
        {
          "duration": 0.09302325581395365,
          "durationTicks": 8,
          "midi": 88,
          "name": "E6",
          "ticks": 2895,
          "time": 33.66279069767442,
          "velocity": 0.1732283464566929
        },
        {
          "duration": 0.03488372093023173,
          "durationTicks": 3,
          "midi": 55,
          "name": "G3",
          "ticks": 2910,
          "time": 33.83720930232558,
          "velocity": 0.09448818897637795
        },
        {
          "duration": 0.04651162790698038,
          "durationTicks": 4,
          "midi": 63,
          "name": "D#4",
          "ticks": 2919,
          "time": 33.94186046511628,
          "velocity": 0.12598425196850394
        },
        {
          "duration": 0.04651162790698038,
          "durationTicks": 4,
          "midi": 60,
          "name": "C4",
          "ticks": 2927,
          "time": 34.03488372093023,
          "velocity": 0.08661417322834646
        },
        {
          "duration": 0.03488372093023173,
          "durationTicks": 3,
          "midi": 59,
          "name": "B3",
          "ticks": 2939,
          "time": 34.174418604651166,
          "velocity": 0.13385826771653545
        },
        {
          "duration": 0.23255813953488058,
          "durationTicks": 20,
          "midi": 73,
          "name": "C#5",
          "ticks": 2940,
          "time": 34.18604651162791,
          "velocity": 0.12598425196850394
        },
        {
          "duration": 0.15116279069767558,
          "durationTicks": 13,
          "midi": 56,
          "name": "G#3",
          "ticks": 2942,
          "time": 34.2093023255814,
          "velocity": 0.25196850393700787
        },
        {
          "duration": 0.16279069767442422,
          "durationTicks": 14,
          "midi": 59,
          "name": "B3",
          "ticks": 2949,
          "time": 34.2906976744186,
          "velocity": 0.14960629921259844
        },
        {
          "duration": 0.03488372093023173,
          "durationTicks": 3,
          "midi": 59,
          "name": "B3",
          "ticks": 2964,
          "time": 34.46511627906977,
          "velocity": 0.11023622047244094
        },
        {
          "duration": 0.12790697674418539,
          "durationTicks": 11,
          "midi": 90,
          "name": "F#6",
          "ticks": 2969,
          "time": 34.52325581395349,
          "velocity": 0.09448818897637795
        },
        {
          "duration": 0.03488372093023173,
          "durationTicks": 3,
          "midi": 44,
          "name": "G#2",
          "ticks": 2972,
          "time": 34.55813953488372,
          "velocity": 0.07086614173228346
        },
        {
          "duration": 0.27906976744186096,
          "durationTicks": 24,
          "midi": 59,
          "name": "B3",
          "ticks": 2973,
          "time": 34.56976744186046,
          "velocity": 0.16535433070866143
        },
        {
          "duration": 0.11627906976744384,
          "durationTicks": 10,
          "midi": 63,
          "name": "D#4",
          "ticks": 2975,
          "time": 34.593023255813954,
          "velocity": 0.07086614173228346
        },
        {
          "duration": 0.27906976744186096,
          "durationTicks": 24,
          "midi": 68,
          "name": "G#4",
          "ticks": 2997,
          "time": 34.848837209302324,
          "velocity": 0.12598425196850394
        },
        {
          "duration": 0.43023255813953654,
          "durationTicks": 37,
          "midi": 59,
          "name": "B3",
          "ticks": 3007,
          "time": 34.96511627906977,
          "velocity": 0.16535433070866143
        },
        {
          "duration": 0.03488372093023173,
          "durationTicks": 3,
          "midi": 45,
          "name": "A2",
          "ticks": 3027,
          "time": 35.19767441860465,
          "velocity": 0.16535433070866143
        },
        {
          "duration": 0.16279069767441712,
          "durationTicks": 14,
          "midi": 66,
          "name": "F#4",
          "ticks": 3029,
          "time": 35.22093023255814,
          "velocity": 0.07874015748031496
        },
        {
          "duration": 0.09302325581395365,
          "durationTicks": 8,
          "midi": 90,
          "name": "F#6",
          "ticks": 3029,
          "time": 35.22093023255814,
          "velocity": 0.08661417322834646
        },
        {
          "duration": 0.05813953488372192,
          "durationTicks": 5,
          "midi": 44,
          "name": "G#2",
          "ticks": 3030,
          "time": 35.23255813953488,
          "velocity": 0.13385826771653545
        },
        {
          "duration": 0.03488372093023173,
          "durationTicks": 3,
          "midi": 56,
          "name": "G#3",
          "ticks": 3055,
          "time": 35.52325581395349,
          "velocity": 0.13385826771653545
        },
        {
          "duration": 0.8255813953488342,
          "durationTicks": 71,
          "midi": 70,
          "name": "A#4",
          "ticks": 3055,
          "time": 35.52325581395349,
          "velocity": 0.25984251968503935
        },
        {
          "duration": 0.3720930232558146,
          "durationTicks": 32,
          "midi": 61,
          "name": "C#4",
          "ticks": 3056,
          "time": 35.53488372093023,
          "velocity": 0.16535433070866143
        },
        {
          "duration": 0.2325581395348877,
          "durationTicks": 20,
          "midi": 54,
          "name": "F#3",
          "ticks": 3059,
          "time": 35.56976744186046,
          "velocity": 0.14960629921259844
        },
        {
          "duration": 0.03488372093023884,
          "durationTicks": 3,
          "midi": 61,
          "name": "C#4",
          "ticks": 3089,
          "time": 35.91860465116279,
          "velocity": 0.09448818897637795
        },
        {
          "duration": 0.38372093023255616,
          "durationTicks": 33,
          "midi": 58,
          "name": "A#3",
          "ticks": 3090,
          "time": 35.93023255813954,
          "velocity": 0.14960629921259844
        },
        {
          "duration": 0.2558139534883779,
          "durationTicks": 22,
          "midi": 61,
          "name": "C#4",
          "ticks": 3124,
          "time": 36.325581395348834,
          "velocity": 0.12598425196850394
        },
        {
          "duration": 0.11627906976744384,
          "durationTicks": 10,
          "midi": 58,
          "name": "A#3",
          "ticks": 3126,
          "time": 36.348837209302324,
          "velocity": 0.10236220472440945
        },
        {
          "duration": 0.3604651162790731,
          "durationTicks": 31,
          "midi": 66,
          "name": "F#4",
          "ticks": 3145,
          "time": 36.56976744186046,
          "velocity": 0.1732283464566929
        },
        {
          "duration": 0.17441860465116577,
          "durationTicks": 15,
          "midi": 78,
          "name": "F#5",
          "ticks": 3145,
          "time": 36.56976744186046,
          "velocity": 0.29133858267716534
        },
        {
          "duration": 0.11627906976744384,
          "durationTicks": 10,
          "midi": 44,
          "name": "G#2",
          "ticks": 3147,
          "time": 36.593023255813954,
          "velocity": 0.2047244094488189
        },
        {
          "duration": 0.32558139534884134,
          "durationTicks": 28,
          "midi": 58,
          "name": "A#3",
          "ticks": 3148,
          "time": 36.604651162790695,
          "velocity": 0.15748031496062992
        },
        {
          "duration": 0.09302325581395365,
          "durationTicks": 8,
          "midi": 77,
          "name": "F5",
          "ticks": 3160,
          "time": 36.74418604651163,
          "velocity": 0.14173228346456693
        },
        {
          "duration": 0.6511627906976756,
          "durationTicks": 56,
          "midi": 61,
          "name": "C#4",
          "ticks": 3175,
          "time": 36.91860465116279,
          "velocity": 0.2125984251968504
        },
        {
          "duration": 0.2325581395348877,
          "durationTicks": 20,
          "midi": 54,
          "name": "F#3",
          "ticks": 3180,
          "time": 36.97674418604651,
          "velocity": 0.1968503937007874
        },
        {
          "duration": 0.11627906976744384,
          "durationTicks": 10,
          "midi": 66,
          "name": "F#4",
          "ticks": 3206,
          "time": 37.27906976744186,
          "velocity": 0.08661417322834646
        },
        {
          "duration": 0.09302325581395365,
          "durationTicks": 8,
          "midi": 66,
          "name": "F#4",
          "ticks": 3228,
          "time": 37.53488372093023,
          "velocity": 0.12598425196850394
        },
        {
          "duration": 0.6046511627906952,
          "durationTicks": 52,
          "midi": 61,
          "name": "C#4",
          "ticks": 3236,
          "time": 37.627906976744185,
          "velocity": 0.2204724409448819
        },
        {
          "duration": 0.2325581395348877,
          "durationTicks": 20,
          "midi": 73,
          "name": "C#5",
          "ticks": 3263,
          "time": 37.94186046511628,
          "velocity": 0.2204724409448819
        },
        {
          "duration": 0.046511627906973274,
          "durationTicks": 4,
          "midi": 44,
          "name": "G#2",
          "ticks": 3264,
          "time": 37.95348837209303,
          "velocity": 0.11811023622047244
        },
        {
          "duration": 0.03488372093023173,
          "durationTicks": 3,
          "midi": 58,
          "name": "A#3",
          "ticks": 3273,
          "time": 38.05813953488372,
          "velocity": 0.11811023622047244
        },
        {
          "duration": 0.09302325581395365,
          "durationTicks": 8,
          "midi": 57,
          "name": "A3",
          "ticks": 3291,
          "time": 38.26744186046512,
          "velocity": 0.14173228346456693
        },
        {
          "duration": 0.2906976744186025,
          "durationTicks": 25,
          "midi": 61,
          "name": "C#4",
          "ticks": 3292,
          "time": 38.27906976744186,
          "velocity": 0.2125984251968504
        },
        {
          "duration": 0.27906976744186096,
          "durationTicks": 24,
          "midi": 66,
          "name": "F#4",
          "ticks": 3320,
          "time": 38.604651162790695,
          "velocity": 0.2677165354330709
        },
        {
          "duration": 0.2674418604651194,
          "durationTicks": 23,
          "midi": 61,
          "name": "C#4",
          "ticks": 3323,
          "time": 38.63953488372093,
          "velocity": 0.13385826771653545
        },
        {
          "duration": 0.12790697674418539,
          "durationTicks": 11,
          "midi": 70,
          "name": "A#4",
          "ticks": 3352,
          "time": 38.97674418604651,
          "velocity": 0.11811023622047244
        },
        {
          "duration": 0.23255813953488058,
          "durationTicks": 20,
          "midi": 61,
          "name": "C#4",
          "ticks": 3362,
          "time": 39.093023255813954,
          "velocity": 0.18110236220472442
        },
        {
          "duration": 0.03488372093023173,
          "durationTicks": 3,
          "midi": 55,
          "name": "G3",
          "ticks": 3381,
          "time": 39.31395348837209,
          "velocity": 0.07874015748031496
        },
        {
          "duration": 0.15116279069767558,
          "durationTicks": 13,
          "midi": 63,
          "name": "D#4",
          "ticks": 3382,
          "time": 39.325581395348834,
          "velocity": 0.08661417322834646
        },
        {
          "duration": 0.2558139534883779,
          "durationTicks": 22,
          "midi": 70,
          "name": "A#4",
          "ticks": 3382,
          "time": 39.325581395348834,
          "velocity": 0.15748031496062992
        },
        {
          "duration": 0.09302325581395365,
          "durationTicks": 8,
          "midi": 66,
          "name": "F#4",
          "ticks": 3385,
          "time": 39.36046511627907,
          "velocity": 0.07874015748031496
        },
        {
          "duration": 0.081395348837205,
          "durationTicks": 7,
          "midi": 73,
          "name": "C#5",
          "ticks": 3385,
          "time": 39.36046511627907,
          "velocity": 0.07086614173228346
        },
        {
          "duration": 0.04651162790698038,
          "durationTicks": 4,
          "midi": 60,
          "name": "C4",
          "ticks": 3400,
          "time": 39.53488372093023,
          "velocity": 0.08661417322834646
        },
        {
          "duration": 0.6511627906976756,
          "durationTicks": 56,
          "midi": 66,
          "name": "F#4",
          "ticks": 3409,
          "time": 39.63953488372093,
          "velocity": 0.23622047244094488
        },
        {
          "duration": 0.13953488372092693,
          "durationTicks": 12,
          "midi": 56,
          "name": "G#3",
          "ticks": 3413,
          "time": 39.68604651162791,
          "velocity": 0.2283464566929134
        },
        {
          "duration": 0.03488372093023173,
          "durationTicks": 3,
          "midi": 59,
          "name": "B3",
          "ticks": 3421,
          "time": 39.77906976744186,
          "velocity": 0.14173228346456693
        },
        {
          "duration": 0.05813953488372192,
          "durationTicks": 5,
          "midi": 56,
          "name": "G#3",
          "ticks": 3426,
          "time": 39.83720930232558,
          "velocity": 0.12598425196850394
        },
        {
          "duration": 0.13953488372093403,
          "durationTicks": 12,
          "midi": 59,
          "name": "B3",
          "ticks": 3443,
          "time": 40.03488372093023,
          "velocity": 0.18110236220472442
        },
        {
          "duration": 0.30232558139534405,
          "durationTicks": 26,
          "midi": 66,
          "name": "F#4",
          "ticks": 3471,
          "time": 40.36046511627907,
          "velocity": 0.1732283464566929
        },
        {
          "duration": 0.09302325581395365,
          "durationTicks": 8,
          "midi": 59,
          "name": "B3",
          "ticks": 3475,
          "time": 40.406976744186046,
          "velocity": 0.13385826771653545
        },
        {
          "duration": 0.1046511627906952,
          "durationTicks": 9,
          "midi": 59,
          "name": "B3",
          "ticks": 3491,
          "time": 40.593023255813954,
          "velocity": 0.1732283464566929
        },
        {
          "duration": 0.046511627906973274,
          "durationTicks": 4,
          "midi": 44,
          "name": "G#2",
          "ticks": 3501,
          "time": 40.7093023255814,
          "velocity": 0.12598425196850394
        },
        {
          "duration": 0.3139534883720927,
          "durationTicks": 27,
          "midi": 70,
          "name": "A#4",
          "ticks": 3501,
          "time": 40.7093023255814,
          "velocity": 0.13385826771653545
        },
        {
          "duration": 0.1046511627907023,
          "durationTicks": 9,
          "midi": 59,
          "name": "B3",
          "ticks": 3505,
          "time": 40.75581395348837,
          "velocity": 0.11811023622047244
        },
        {
          "duration": 0.03488372093023173,
          "durationTicks": 3,
          "midi": 58,
          "name": "A#3",
          "ticks": 3514,
          "time": 40.86046511627907,
          "velocity": 0.08661417322834646
        },
        {
          "duration": 0.02325581395349019,
          "durationTicks": 2,
          "midi": 55,
          "name": "G3",
          "ticks": 3530,
          "time": 41.04651162790697,
          "velocity": 0.2755905511811024
        },
        {
          "duration": 0.11627906976744384,
          "durationTicks": 10,
          "midi": 66,
          "name": "F#4",
          "ticks": 3530,
          "time": 41.04651162790697,
          "velocity": 0.2283464566929134
        },
        {
          "duration": 1.3023255813953512,
          "durationTicks": 112,
          "midi": 54,
          "name": "F#3",
          "ticks": 3531,
          "time": 41.05813953488372,
          "velocity": 0.3937007874015748
        },
        {
          "duration": 0.2093023255813975,
          "durationTicks": 18,
          "midi": 70,
          "name": "A#4",
          "ticks": 3573,
          "time": 41.54651162790697,
          "velocity": 0.08661417322834646
        },
        {
          "duration": 0.5,
          "durationTicks": 43,
          "midi": 58,
          "name": "A#3",
          "ticks": 3645,
          "time": 42.383720930232556,
          "velocity": 0.2047244094488189
        },
        {
          "duration": 0.2093023255813975,
          "durationTicks": 18,
          "midi": 54,
          "name": "F#3",
          "ticks": 3714,
          "time": 43.18604651162791,
          "velocity": 0.15748031496062992
        },
        {
          "duration": 0.03488372093023173,
          "durationTicks": 3,
          "midi": 45,
          "name": "A2",
          "ticks": 3732,
          "time": 43.395348837209305,
          "velocity": 0.07874015748031496
        },
        {
          "duration": 0.2906976744186025,
          "durationTicks": 25,
          "midi": 58,
          "name": "A#3",
          "ticks": 3732,
          "time": 43.395348837209305,
          "velocity": 0.11023622047244094
        },
        {
          "duration": 0.4418604651162781,
          "durationTicks": 38,
          "midi": 68,
          "name": "G#4",
          "ticks": 3732,
          "time": 43.395348837209305,
          "velocity": 0.23622047244094488
        },
        {
          "duration": 0.09302325581395365,
          "durationTicks": 8,
          "midi": 66,
          "name": "F#4",
          "ticks": 3733,
          "time": 43.406976744186046,
          "velocity": 0.2047244094488189
        },
        {
          "duration": 0.16279069767441712,
          "durationTicks": 14,
          "midi": 66,
          "name": "F#4",
          "ticks": 3744,
          "time": 43.53488372093023,
          "velocity": 0.14173228346456693
        },
        {
          "duration": 0.02325581395349019,
          "durationTicks": 2,
          "midi": 56,
          "name": "G#3",
          "ticks": 3760,
          "time": 43.72093023255814,
          "velocity": 0.25196850393700787
        },
        {
          "duration": 0.6627906976744171,
          "durationTicks": 57,
          "midi": 61,
          "name": "C#4",
          "ticks": 3762,
          "time": 43.74418604651163,
          "velocity": 0.3543307086614173
        },
        {
          "duration": 0.27906976744186096,
          "durationTicks": 24,
          "midi": 52,
          "name": "E3",
          "ticks": 3763,
          "time": 43.75581395348837,
          "velocity": 0.15748031496062992
        },
        {
          "duration": 1.2325581395348806,
          "durationTicks": 106,
          "midi": 45,
          "name": "A2",
          "ticks": 3764,
          "time": 43.76744186046512,
          "velocity": 0.36220472440944884
        },
        {
          "duration": 0.3139534883720927,
          "durationTicks": 27,
          "midi": 52,
          "name": "E3",
          "ticks": 3791,
          "time": 44.08139534883721,
          "velocity": 0.13385826771653545
        },
        {
          "duration": 0.30232558139535115,
          "durationTicks": 26,
          "midi": 52,
          "name": "E3",
          "ticks": 3819,
          "time": 44.406976744186046,
          "velocity": 0.11811023622047244
        },
        {
          "duration": 0.09302325581394655,
          "durationTicks": 8,
          "midi": 61,
          "name": "C#4",
          "ticks": 3823,
          "time": 44.45348837209303,
          "velocity": 0.25196850393700787
        },
        {
          "duration": 0.46511627906976827,
          "durationTicks": 40,
          "midi": 61,
          "name": "C#4",
          "ticks": 3835,
          "time": 44.593023255813954,
          "velocity": 0.25196850393700787
        },
        {
          "duration": 0.12790697674418539,
          "durationTicks": 11,
          "midi": 56,
          "name": "G#3",
          "ticks": 3846,
          "time": 44.72093023255814,
          "velocity": 0.29133858267716534
        },
        {
          "duration": 0.06976744186047057,
          "durationTicks": 6,
          "midi": 56,
          "name": "G#3",
          "ticks": 3863,
          "time": 44.91860465116279,
          "velocity": 0.11023622047244094
        },
        {
          "duration": 0.058139534883714816,
          "durationTicks": 5,
          "midi": 61,
          "name": "C#4",
          "ticks": 3877,
          "time": 45.08139534883721,
          "velocity": 0.2204724409448819
        },
        {
          "duration": 0.11627906976743674,
          "durationTicks": 10,
          "midi": 90,
          "name": "F#6",
          "ticks": 3877,
          "time": 45.08139534883721,
          "velocity": 0.11811023622047244
        },
        {
          "duration": 0.3953488372093048,
          "durationTicks": 34,
          "midi": 47,
          "name": "B2",
          "ticks": 3878,
          "time": 45.093023255813954,
          "velocity": 0.33070866141732286
        },
        {
          "duration": 1.0697674418604635,
          "durationTicks": 92,
          "midi": 35,
          "name": "B1",
          "ticks": 3880,
          "time": 45.116279069767444,
          "velocity": 0.2204724409448819
        },
        {
          "duration": 0.13953488372092693,
          "durationTicks": 12,
          "midi": 56,
          "name": "G#3",
          "ticks": 3880,
          "time": 45.116279069767444,
          "velocity": 0.2755905511811024
        },
        {
          "duration": 0.03488372093023884,
          "durationTicks": 3,
          "midi": 62,
          "name": "D4",
          "ticks": 3882,
          "time": 45.13953488372093,
          "velocity": 0.23622047244094488
        },
        {
          "duration": 1.279069767441861,
          "durationTicks": 110,
          "midi": 63,
          "name": "D#4",
          "ticks": 3885,
          "time": 45.174418604651166,
          "velocity": 0.2992125984251969
        },
        {
          "duration": 0.046511627906973274,
          "durationTicks": 4,
          "midi": 59,
          "name": "B3",
          "ticks": 3913,
          "time": 45.5,
          "velocity": 0.07874015748031496
        },
        {
          "duration": 0.16279069767441712,
          "durationTicks": 14,
          "midi": 56,
          "name": "G#3",
          "ticks": 3936,
          "time": 45.76744186046512,
          "velocity": 0.2283464566929134
        },
        {
          "duration": 0.02325581395349019,
          "durationTicks": 2,
          "midi": 41,
          "name": "F2",
          "ticks": 3996,
          "time": 46.46511627906977,
          "velocity": 0.33070866141732286
        },
        {
          "duration": 1.1162790697674367,
          "durationTicks": 96,
          "midi": 42,
          "name": "F#2",
          "ticks": 3998,
          "time": 46.48837209302326,
          "velocity": 0.36220472440944884
        },
        {
          "duration": 0.860465116279066,
          "durationTicks": 74,
          "midi": 70,
          "name": "A#4",
          "ticks": 3998,
          "time": 46.48837209302326,
          "velocity": 0.2204724409448819
        },
        {
          "duration": 1.4069767441860463,
          "durationTicks": 121,
          "midi": 58,
          "name": "A#3",
          "ticks": 3999,
          "time": 46.5,
          "velocity": 0.41732283464566927
        },
        {
          "duration": 0.3139534883720927,
          "durationTicks": 27,
          "midi": 66,
          "name": "F#4",
          "ticks": 4083,
          "time": 47.47674418604651,
          "velocity": 0.14960629921259844
        },
        {
          "duration": 0.03488372093023173,
          "durationTicks": 3,
          "midi": 41,
          "name": "F2",
          "ticks": 4094,
          "time": 47.604651162790695,
          "velocity": 0.2677165354330709
        },
        {
          "duration": 0.6627906976744171,
          "durationTicks": 57,
          "midi": 63,
          "name": "D#4",
          "ticks": 4114,
          "time": 47.83720930232558,
          "velocity": 0.2440944881889764
        },
        {
          "duration": 0.023255813953483084,
          "durationTicks": 2,
          "midi": 40,
          "name": "E2",
          "ticks": 4116,
          "time": 47.86046511627907,
          "velocity": 0.33858267716535434
        },
        {
          "duration": 0.581395348837205,
          "durationTicks": 50,
          "midi": 51,
          "name": "D#3",
          "ticks": 4116,
          "time": 47.86046511627907,
          "velocity": 0.2677165354330709
        },
        {
          "duration": 0.5813953488372121,
          "durationTicks": 50,
          "midi": 39,
          "name": "D#2",
          "ticks": 4118,
          "time": 47.883720930232556,
          "velocity": 0.33858267716535434
        },
        {
          "duration": 0.02325581395349019,
          "durationTicks": 2,
          "midi": 56,
          "name": "G#3",
          "ticks": 4121,
          "time": 47.91860465116279,
          "velocity": 0.2677165354330709
        },
        {
          "duration": 0.02325581395349019,
          "durationTicks": 2,
          "midi": 57,
          "name": "A3",
          "ticks": 4123,
          "time": 47.94186046511628,
          "velocity": 0.3543307086614173
        },
        {
          "duration": 0.02325581395349019,
          "durationTicks": 2,
          "midi": 56,
          "name": "G#3",
          "ticks": 4125,
          "time": 47.96511627906977,
          "velocity": 0.33858267716535434
        },
        {
          "duration": 0.6162790697674438,
          "durationTicks": 53,
          "midi": 58,
          "name": "A#3",
          "ticks": 4148,
          "time": 48.23255813953488,
          "velocity": 0.2755905511811024
        },
        {
          "duration": 0.023255813953483084,
          "durationTicks": 2,
          "midi": 48,
          "name": "C3",
          "ticks": 4173,
          "time": 48.52325581395349,
          "velocity": 0.29133858267716534
        },
        {
          "duration": 0.5,
          "durationTicks": 43,
          "midi": 37,
          "name": "C#2",
          "ticks": 4174,
          "time": 48.53488372093023,
          "velocity": 0.31496062992125984
        },
        {
          "duration": 0.09302325581395365,
          "durationTicks": 8,
          "midi": 54,
          "name": "F#3",
          "ticks": 4202,
          "time": 48.86046511627907,
          "velocity": 0.2204724409448819
        },
        {
          "duration": 0.5,
          "durationTicks": 43,
          "midi": 66,
          "name": "F#4",
          "ticks": 4202,
          "time": 48.86046511627907,
          "velocity": 0.23622047244094488
        },
        {
          "duration": 0.1860465116279073,
          "durationTicks": 16,
          "midi": 54,
          "name": "F#3",
          "ticks": 4211,
          "time": 48.96511627906977,
          "velocity": 0.1732283464566929
        },
        {
          "duration": 0.03488372093023173,
          "durationTicks": 3,
          "midi": 36,
          "name": "C2",
          "ticks": 4217,
          "time": 49.03488372093023,
          "velocity": 0.2204724409448819
        },
        {
          "duration": 0.03488372093023173,
          "durationTicks": 3,
          "midi": 47,
          "name": "B2",
          "ticks": 4217,
          "time": 49.03488372093023,
          "velocity": 0.12598425196850394
        },
        {
          "duration": 0.023255813953483084,
          "durationTicks": 2,
          "midi": 44,
          "name": "G#2",
          "ticks": 4232,
          "time": 49.2093023255814,
          "velocity": 0.3543307086614173
        },
        {
          "duration": 0.24418604651162923,
          "durationTicks": 21,
          "midi": 57,
          "name": "A3",
          "ticks": 4233,
          "time": 49.22093023255814,
          "velocity": 0.25984251968503935
        },
        {
          "duration": 0.43023255813953654,
          "durationTicks": 37,
          "midi": 61,
          "name": "C#4",
          "ticks": 4233,
          "time": 49.22093023255814,
          "velocity": 0.2440944881889764
        },
        {
          "duration": 1.197674418604656,
          "durationTicks": 103,
          "midi": 45,
          "name": "A2",
          "ticks": 4234,
          "time": 49.23255813953488,
          "velocity": 0.3464566929133858
        },
        {
          "duration": 0.13953488372092693,
          "durationTicks": 12,
          "midi": 52,
          "name": "E3",
          "ticks": 4238,
          "time": 49.27906976744186,
          "velocity": 0.12598425196850394
        },
        {
          "duration": 0.11627906976743674,
          "durationTicks": 10,
          "midi": 52,
          "name": "E3",
          "ticks": 4251,
          "time": 49.43023255813954,
          "velocity": 0.11023622047244094
        },
        {
          "duration": 0.36046511627906597,
          "durationTicks": 31,
          "midi": 52,
          "name": "E3",
          "ticks": 4262,
          "time": 49.55813953488372,
          "velocity": 0.10236220472440945
        },
        {
          "duration": 0.06976744186047057,
          "durationTicks": 6,
          "midi": 63,
          "name": "D#4",
          "ticks": 4274,
          "time": 49.69767441860465,
          "velocity": 0.12598425196850394
        },
        {
          "duration": 0.1046511627907023,
          "durationTicks": 9,
          "midi": 61,
          "name": "C#4",
          "ticks": 4285,
          "time": 49.825581395348834,
          "velocity": 0.14960629921259844
        },
        {
          "duration": 0.2674418604651123,
          "durationTicks": 23,
          "midi": 61,
          "name": "C#4",
          "ticks": 4313,
          "time": 50.151162790697676,
          "velocity": 0.1732283464566929
        },
        {
          "duration": 0.1046511627906952,
          "durationTicks": 9,
          "midi": 56,
          "name": "G#3",
          "ticks": 4319,
          "time": 50.22093023255814,
          "velocity": 0.2283464566929134
        },
        {
          "duration": 0.11627906976743674,
          "durationTicks": 10,
          "midi": 61,
          "name": "C#4",
          "ticks": 4339,
          "time": 50.45348837209303,
          "velocity": 0.12598425196850394
        },
        {
          "duration": 0.02325581395349019,
          "durationTicks": 2,
          "midi": 55,
          "name": "G3",
          "ticks": 4347,
          "time": 50.54651162790697,
          "velocity": 0.2677165354330709
        },
        {
          "duration": 0.25581395348837077,
          "durationTicks": 22,
          "midi": 56,
          "name": "G#3",
          "ticks": 4349,
          "time": 50.56976744186046,
          "velocity": 0.33858267716535434
        },
        {
          "duration": 1.023255813953483,
          "durationTicks": 88,
          "midi": 44,
          "name": "G#2",
          "ticks": 4350,
          "time": 50.58139534883721,
          "velocity": 0.3464566929133858
        },
        {
          "duration": 1.3837209302325562,
          "durationTicks": 119,
          "midi": 66,
          "name": "F#4",
          "ticks": 4350,
          "time": 50.58139534883721,
          "velocity": 0.25196850393700787
        },
        {
          "duration": 0.13953488372093403,
          "durationTicks": 12,
          "midi": 90,
          "name": "F#6",
          "ticks": 4352,
          "time": 50.604651162790695,
          "velocity": 0.12598425196850394
        },
        {
          "duration": 0.046511627906973274,
          "durationTicks": 4,
          "midi": 32,
          "name": "G#1",
          "ticks": 4369,
          "time": 50.80232558139535,
          "velocity": 0.07874015748031496
        },
        {
          "duration": 0.17441860465116577,
          "durationTicks": 15,
          "midi": 59,
          "name": "B3",
          "ticks": 4381,
          "time": 50.94186046511628,
          "velocity": 0.13385826771653545
        },
        {
          "duration": 0.04651162790698038,
          "durationTicks": 4,
          "midi": 32,
          "name": "G#1",
          "ticks": 4392,
          "time": 51.06976744186046,
          "velocity": 0.08661417322834646
        },
        {
          "duration": 0.04651162790698038,
          "durationTicks": 4,
          "midi": 32,
          "name": "G#1",
          "ticks": 4400,
          "time": 51.16279069767442,
          "velocity": 0.07874015748031496
        },
        {
          "duration": 0.04651162790698038,
          "durationTicks": 4,
          "midi": 32,
          "name": "G#1",
          "ticks": 4405,
          "time": 51.22093023255814,
          "velocity": 0.07086614173228346
        },
        {
          "duration": 0.24418604651162923,
          "durationTicks": 21,
          "midi": 59,
          "name": "B3",
          "ticks": 4437,
          "time": 51.593023255813954,
          "velocity": 0.07874015748031496
        },
        {
          "duration": 0.03488372093023173,
          "durationTicks": 3,
          "midi": 41,
          "name": "F2",
          "ticks": 4463,
          "time": 51.895348837209305,
          "velocity": 0.3700787401574803
        },
        {
          "duration": 1.0348837209302317,
          "durationTicks": 89,
          "midi": 42,
          "name": "F#2",
          "ticks": 4466,
          "time": 51.93023255813954,
          "velocity": 0.3543307086614173
        },
        {
          "duration": 0.02325581395349019,
          "durationTicks": 2,
          "midi": 55,
          "name": "G3",
          "ticks": 4466,
          "time": 51.93023255813954,
          "velocity": 0.31496062992125984
        },
        {
          "duration": 0.5697674418604635,
          "durationTicks": 49,
          "midi": 70,
          "name": "A#4",
          "ticks": 4466,
          "time": 51.93023255813954,
          "velocity": 0.16535433070866143
        },
        {
          "duration": 0.11627906976743674,
          "durationTicks": 10,
          "midi": 89,
          "name": "F6",
          "ticks": 4466,
          "time": 51.93023255813954,
          "velocity": 0.14173228346456693
        },
        {
          "duration": 1.1511627906976685,
          "durationTicks": 99,
          "midi": 61,
          "name": "C#4",
          "ticks": 4468,
          "time": 51.95348837209303,
          "velocity": 0.3228346456692913
        },
        {
          "duration": 0.03488372093023173,
          "durationTicks": 3,
          "midi": 58,
          "name": "A#3",
          "ticks": 4472,
          "time": 52,
          "velocity": 0.1889763779527559
        },
        {
          "duration": 0.05813953488372192,
          "durationTicks": 5,
          "midi": 58,
          "name": "A#3",
          "ticks": 4502,
          "time": 52.348837209302324,
          "velocity": 0.1968503937007874
        },
        {
          "duration": 0.11627906976744384,
          "durationTicks": 10,
          "midi": 70,
          "name": "A#4",
          "ticks": 4524,
          "time": 52.604651162790695,
          "velocity": 0.08661417322834646
        },
        {
          "duration": 0.1860465116279073,
          "durationTicks": 16,
          "midi": 70,
          "name": "A#4",
          "ticks": 4552,
          "time": 52.93023255813954,
          "velocity": 0.2283464566929134
        },
        {
          "duration": 0.13953488372092693,
          "durationTicks": 12,
          "midi": 89,
          "name": "F6",
          "ticks": 4552,
          "time": 52.93023255813954,
          "velocity": 0.10236220472440945
        },
        {
          "duration": 0.04651162790698038,
          "durationTicks": 4,
          "midi": 42,
          "name": "F#2",
          "ticks": 4556,
          "time": 52.97674418604651,
          "velocity": 0.2992125984251969
        },
        {
          "duration": 0.09302325581395365,
          "durationTicks": 8,
          "midi": 58,
          "name": "A#3",
          "ticks": 4565,
          "time": 53.08139534883721,
          "velocity": 0.13385826771653545
        },
        {
          "duration": 0.13953488372093403,
          "durationTicks": 12,
          "midi": 61,
          "name": "C#4",
          "ticks": 4569,
          "time": 53.127906976744185,
          "velocity": 0.2440944881889764
        },
        {
          "duration": 0.03488372093023173,
          "durationTicks": 3,
          "midi": 40,
          "name": "E2",
          "ticks": 4582,
          "time": 53.27906976744186,
          "velocity": 0.3464566929133858
        },
        {
          "duration": 0.02325581395349019,
          "durationTicks": 2,
          "midi": 51,
          "name": "D#3",
          "ticks": 4582,
          "time": 53.27906976744186,
          "velocity": 0.25984251968503935
        },
        {
          "duration": 0.38372093023255616,
          "durationTicks": 33,
          "midi": 78,
          "name": "F#5",
          "ticks": 4582,
          "time": 53.27906976744186,
          "velocity": 0.23622047244094488
        },
        {
          "duration": 0.04651162790698038,
          "durationTicks": 4,
          "midi": 61,
          "name": "C#4",
          "ticks": 4583,
          "time": 53.2906976744186,
          "velocity": 0.2440944881889764
        },
        {
          "duration": 0.16279069767441712,
          "durationTicks": 14,
          "midi": 56,
          "name": "G#3",
          "ticks": 4584,
          "time": 53.30232558139535,
          "velocity": 0.29133858267716534
        },
        {
          "duration": 0.8023255813953512,
          "durationTicks": 69,
          "midi": 39,
          "name": "D#2",
          "ticks": 4585,
          "time": 53.31395348837209,
          "velocity": 0.3543307086614173
        },
        {
          "duration": 0.02325581395349019,
          "durationTicks": 2,
          "midi": 62,
          "name": "D4",
          "ticks": 4587,
          "time": 53.33720930232558,
          "velocity": 0.2992125984251969
        },
        {
          "duration": 0.023255813953483084,
          "durationTicks": 2,
          "midi": 63,
          "name": "D#4",
          "ticks": 4589,
          "time": 53.36046511627907,
          "velocity": 0.2677165354330709
        },
        {
          "duration": 0.023255813953483084,
          "durationTicks": 2,
          "midi": 63,
          "name": "D#4",
          "ticks": 4592,
          "time": 53.395348837209305,
          "velocity": 0.2677165354330709
        },
        {
          "duration": 0.06976744186046346,
          "durationTicks": 6,
          "midi": 63,
          "name": "D#4",
          "ticks": 4595,
          "time": 53.43023255813954,
          "velocity": 0.2440944881889764
        },
        {
          "duration": 0.03488372093023173,
          "durationTicks": 3,
          "midi": 56,
          "name": "G#3",
          "ticks": 4600,
          "time": 53.48837209302326,
          "velocity": 0.12598425196850394
        },
        {
          "duration": 0.9302325581395365,
          "durationTicks": 80,
          "midi": 63,
          "name": "D#4",
          "ticks": 4602,
          "time": 53.51162790697674,
          "velocity": 0.29133858267716534
        },
        {
          "duration": 0.02325581395349019,
          "durationTicks": 2,
          "midi": 53,
          "name": "F3",
          "ticks": 4623,
          "time": 53.75581395348837,
          "velocity": 0.2440944881889764
        },
        {
          "duration": 0.24418604651162923,
          "durationTicks": 21,
          "midi": 56,
          "name": "G#3",
          "ticks": 4644,
          "time": 54,
          "velocity": 0.2677165354330709
        },
        {
          "duration": 0.03488372093023173,
          "durationTicks": 3,
          "midi": 56,
          "name": "G#3",
          "ticks": 4669,
          "time": 54.2906976744186,
          "velocity": 0.10236220472440945
        },
        {
          "duration": 0.023255813953483084,
          "durationTicks": 2,
          "midi": 45,
          "name": "A2",
          "ticks": 4670,
          "time": 54.30232558139535,
          "velocity": 0.30708661417322836
        },
        {
          "duration": 0.16279069767441712,
          "durationTicks": 14,
          "midi": 73,
          "name": "C#5",
          "ticks": 4671,
          "time": 54.31395348837209,
          "velocity": 0.07874015748031496
        },
        {
          "duration": 0.2325581395348877,
          "durationTicks": 20,
          "midi": 47,
          "name": "B2",
          "ticks": 4672,
          "time": 54.325581395348834,
          "velocity": 0.29133858267716534
        },
        {
          "duration": 0.1046511627906952,
          "durationTicks": 9,
          "midi": 63,
          "name": "D#4",
          "ticks": 4683,
          "time": 54.45348837209303,
          "velocity": 0.11023622047244094
        },
        {
          "duration": 0.02325581395349019,
          "durationTicks": 2,
          "midi": 44,
          "name": "G#2",
          "ticks": 4700,
          "time": 54.651162790697676,
          "velocity": 0.3700787401574803
        },
        {
          "duration": 0.3488372093023244,
          "durationTicks": 30,
          "midi": 52,
          "name": "E3",
          "ticks": 4700,
          "time": 54.651162790697676,
          "velocity": 0.1732283464566929
        },
        {
          "duration": 0.1860465116279073,
          "durationTicks": 16,
          "midi": 57,
          "name": "A3",
          "ticks": 4700,
          "time": 54.651162790697676,
          "velocity": 0.2125984251968504
        },
        {
          "duration": 1.1744186046511587,
          "durationTicks": 101,
          "midi": 45,
          "name": "A2",
          "ticks": 4702,
          "time": 54.674418604651166,
          "velocity": 0.3543307086614173
        },
        {
          "duration": 1.2906976744186025,
          "durationTicks": 111,
          "midi": 66,
          "name": "F#4",
          "ticks": 4702,
          "time": 54.674418604651166,
          "velocity": 0.2755905511811024
        },
        {
          "duration": 0.058139534883714816,
          "durationTicks": 5,
          "midi": 76,
          "name": "E5",
          "ticks": 4729,
          "time": 54.98837209302326,
          "velocity": 0.07086614173228346
        },
        {
          "duration": 0.7441860465116292,
          "durationTicks": 64,
          "midi": 52,
          "name": "E3",
          "ticks": 4732,
          "time": 55.02325581395349,
          "velocity": 0.11811023622047244
        },
        {
          "duration": 0.27906976744186096,
          "durationTicks": 24,
          "midi": 61,
          "name": "C#4",
          "ticks": 4733,
          "time": 55.03488372093023,
          "velocity": 0.11023622047244094
        },
        {
          "duration": 0.1860465116279073,
          "durationTicks": 16,
          "midi": 63,
          "name": "D#4",
          "ticks": 4760,
          "time": 55.348837209302324,
          "velocity": 0.09448818897637795
        },
        {
          "duration": 0.25581395348837077,
          "durationTicks": 22,
          "midi": 73,
          "name": "C#5",
          "ticks": 4789,
          "time": 55.68604651162791,
          "velocity": 0.18110236220472442
        },
        {
          "duration": 0.11627906976744384,
          "durationTicks": 10,
          "midi": 61,
          "name": "C#4",
          "ticks": 4798,
          "time": 55.7906976744186,
          "velocity": 0.08661417322834646
        },
        {
          "duration": 1.1511627906976685,
          "durationTicks": 99,
          "midi": 44,
          "name": "G#2",
          "ticks": 4815,
          "time": 55.98837209302326,
          "velocity": 0.3700787401574803
        },
        {
          "duration": 0.06976744186047057,
          "durationTicks": 6,
          "midi": 66,
          "name": "F#4",
          "ticks": 4817,
          "time": 56.01162790697674,
          "velocity": 0.14960629921259844
        },
        {
          "duration": 0.03488372093023173,
          "durationTicks": 3,
          "midi": 67,
          "name": "G4",
          "ticks": 4823,
          "time": 56.08139534883721,
          "velocity": 0.11811023622047244
        },
        {
          "duration": 0.6162790697674367,
          "durationTicks": 53,
          "midi": 68,
          "name": "G#4",
          "ticks": 4826,
          "time": 56.116279069767444,
          "velocity": 0.2204724409448819
        },
        {
          "duration": 0.046511627906973274,
          "durationTicks": 4,
          "midi": 32,
          "name": "G#1",
          "ticks": 4837,
          "time": 56.24418604651163,
          "velocity": 0.07874015748031496
        },
        {
          "duration": 0.081395348837205,
          "durationTicks": 7,
          "midi": 32,
          "name": "G#1",
          "ticks": 4842,
          "time": 56.30232558139535,
          "velocity": 0.09448818897637795
        },
        {
          "duration": 0.6627906976744171,
          "durationTicks": 57,
          "midi": 59,
          "name": "B3",
          "ticks": 4847,
          "time": 56.36046511627907,
          "velocity": 0.14173228346456693
        },
        {
          "duration": 0.04651162790698038,
          "durationTicks": 4,
          "midi": 32,
          "name": "G#1",
          "ticks": 4865,
          "time": 56.56976744186046,
          "velocity": 0.10236220472440945
        },
        {
          "duration": 0.04651162790698038,
          "durationTicks": 4,
          "midi": 32,
          "name": "G#1",
          "ticks": 4870,
          "time": 56.627906976744185,
          "velocity": 0.09448818897637795
        },
        {
          "duration": 0.24418604651162923,
          "durationTicks": 21,
          "midi": 68,
          "name": "G#4",
          "ticks": 4883,
          "time": 56.77906976744186,
          "velocity": 0.18110236220472442
        },
        {
          "duration": 0.046511627906973274,
          "durationTicks": 4,
          "midi": 32,
          "name": "G#1",
          "ticks": 4893,
          "time": 56.895348837209305,
          "velocity": 0.07874015748031496
        },
        {
          "duration": 0.046511627906973274,
          "durationTicks": 4,
          "midi": 32,
          "name": "G#1",
          "ticks": 4898,
          "time": 56.95348837209303,
          "velocity": 0.07874015748031496
        },
        {
          "duration": 0.04651162790698038,
          "durationTicks": 4,
          "midi": 32,
          "name": "G#1",
          "ticks": 4903,
          "time": 57.01162790697674,
          "velocity": 0.07086614173228346
        },
        {
          "duration": 0.04651162790698038,
          "durationTicks": 4,
          "midi": 59,
          "name": "B3",
          "ticks": 4905,
          "time": 57.03488372093023,
          "velocity": 0.18110236220472442
        },
        {
          "duration": 0.2674418604651194,
          "durationTicks": 23,
          "midi": 73,
          "name": "C#5",
          "ticks": 4906,
          "time": 57.04651162790697,
          "velocity": 0.1968503937007874
        },
        {
          "duration": 0.23255813953488058,
          "durationTicks": 20,
          "midi": 68,
          "name": "G#4",
          "ticks": 4907,
          "time": 57.05813953488372,
          "velocity": 0.11811023622047244
        },
        {
          "duration": 0.06976744186046346,
          "durationTicks": 6,
          "midi": 59,
          "name": "B3",
          "ticks": 4913,
          "time": 57.127906976744185,
          "velocity": 0.13385826771653545
        },
        {
          "duration": 0.6744186046511587,
          "durationTicks": 58,
          "midi": 66,
          "name": "F#4",
          "ticks": 4933,
          "time": 57.36046511627907,
          "velocity": 0.2204724409448819
        },
        {
          "duration": 0.02325581395349019,
          "durationTicks": 2,
          "midi": 41,
          "name": "F2",
          "ticks": 4934,
          "time": 57.372093023255815,
          "velocity": 0.36220472440944884
        },
        {
          "duration": 0.7093023255813975,
          "durationTicks": 61,
          "midi": 70,
          "name": "A#4",
          "ticks": 4935,
          "time": 57.383720930232556,
          "velocity": 0.25984251968503935
        },
        {
          "duration": 1.0116279069767415,
          "durationTicks": 87,
          "midi": 42,
          "name": "F#2",
          "ticks": 4936,
          "time": 57.395348837209305,
          "velocity": 0.36220472440944884
        },
        {
          "duration": 0.023255813953483084,
          "durationTicks": 2,
          "midi": 55,
          "name": "G3",
          "ticks": 4936,
          "time": 57.395348837209305,
          "velocity": 0.2440944881889764
        },
        {
          "duration": 0.8604651162790731,
          "durationTicks": 74,
          "midi": 58,
          "name": "A#3",
          "ticks": 4937,
          "time": 57.406976744186046,
          "velocity": 0.23622047244094488
        },
        {
          "duration": 0.16279069767441712,
          "durationTicks": 14,
          "midi": 66,
          "name": "F#4",
          "ticks": 4999,
          "time": 58.127906976744185,
          "velocity": 0.07086614173228346
        },
        {
          "duration": 0.2093023255813904,
          "durationTicks": 18,
          "midi": 66,
          "name": "F#4",
          "ticks": 5019,
          "time": 58.36046511627907,
          "velocity": 0.2283464566929134
        },
        {
          "duration": 0.3372093023255758,
          "durationTicks": 29,
          "midi": 58,
          "name": "A#3",
          "ticks": 5022,
          "time": 58.395348837209305,
          "velocity": 0.1889763779527559
        },
        {
          "duration": 0.2906976744186096,
          "durationTicks": 25,
          "midi": 42,
          "name": "F#2",
          "ticks": 5024,
          "time": 58.41860465116279,
          "velocity": 0.25984251968503935
        },
        {
          "duration": 0.06976744186046346,
          "durationTicks": 6,
          "midi": 53,
          "name": "F3",
          "ticks": 5037,
          "time": 58.56976744186046,
          "velocity": 0.07874015748031496
        },
        {
          "duration": 0.03488372093023173,
          "durationTicks": 3,
          "midi": 65,
          "name": "F4",
          "ticks": 5040,
          "time": 58.604651162790695,
          "velocity": 0.10236220472440945
        },
        {
          "duration": 0.08139534883721211,
          "durationTicks": 7,
          "midi": 64,
          "name": "E4",
          "ticks": 5043,
          "time": 58.63953488372093,
          "velocity": 0.11023622047244094
        },
        {
          "duration": 0.3372093023255829,
          "durationTicks": 29,
          "midi": 54,
          "name": "F#3",
          "ticks": 5051,
          "time": 58.73255813953488,
          "velocity": 0.2125984251968504
        },
        {
          "duration": 0.6511627906976756,
          "durationTicks": 56,
          "midi": 42,
          "name": "F#2",
          "ticks": 5052,
          "time": 58.74418604651163,
          "velocity": 0.2992125984251969
        },
        {
          "duration": 0.2906976744186025,
          "durationTicks": 25,
          "midi": 58,
          "name": "A#3",
          "ticks": 5084,
          "time": 59.116279069767444,
          "velocity": 0.15748031496062992
        },
        {
          "duration": 0.19767441860464885,
          "durationTicks": 17,
          "midi": 73,
          "name": "C#5",
          "ticks": 5084,
          "time": 59.116279069767444,
          "velocity": 0.08661417322834646
        },
        {
          "duration": 0.6511627906976756,
          "durationTicks": 56,
          "midi": 63,
          "name": "D#4",
          "ticks": 5111,
          "time": 59.43023255813954,
          "velocity": 0.33858267716535434
        },
        {
          "duration": 0.5813953488372121,
          "durationTicks": 50,
          "midi": 44,
          "name": "G#2",
          "ticks": 5112,
          "time": 59.44186046511628,
          "velocity": 0.3779527559055118
        },
        {
          "duration": 0.04651162790698038,
          "durationTicks": 4,
          "midi": 58,
          "name": "A#3",
          "ticks": 5115,
          "time": 59.47674418604651,
          "velocity": 0.07086614173228346
        },
        {
          "duration": 0.27906976744186096,
          "durationTicks": 24,
          "midi": 66,
          "name": "F#4",
          "ticks": 5138,
          "time": 59.74418604651163,
          "velocity": 0.2047244094488189
        },
        {
          "duration": 0.05813953488372192,
          "durationTicks": 5,
          "midi": 54,
          "name": "F#3",
          "ticks": 5141,
          "time": 59.77906976744186,
          "velocity": 0.2204724409448819
        },
        {
          "duration": 0.16279069767441712,
          "durationTicks": 14,
          "midi": 58,
          "name": "A#3",
          "ticks": 5143,
          "time": 59.80232558139535,
          "velocity": 0.15748031496062992
        },
        {
          "duration": 0.03488372093023173,
          "durationTicks": 3,
          "midi": 54,
          "name": "F#3",
          "ticks": 5147,
          "time": 59.848837209302324,
          "velocity": 0.14960629921259844
        },
        {
          "duration": 0.046511627906973274,
          "durationTicks": 4,
          "midi": 32,
          "name": "G#1",
          "ticks": 5148,
          "time": 59.86046511627907,
          "velocity": 0.08661417322834646
        },
        {
          "duration": 0.05813953488372192,
          "durationTicks": 5,
          "midi": 73,
          "name": "C#5",
          "ticks": 5151,
          "time": 59.895348837209305,
          "velocity": 0.07874015748031496
        },
        {
          "duration": 0.03488372093023173,
          "durationTicks": 3,
          "midi": 54,
          "name": "F#3",
          "ticks": 5155,
          "time": 59.94186046511628,
          "velocity": 0.14173228346456693
        },
        {
          "duration": 0.03488372093023173,
          "durationTicks": 3,
          "midi": 56,
          "name": "G#3",
          "ticks": 5167,
          "time": 60.08139534883721,
          "velocity": 0.23622047244094488
        },
        {
          "duration": 0.5232558139534902,
          "durationTicks": 45,
          "midi": 66,
          "name": "F#4",
          "ticks": 5168,
          "time": 60.093023255813954,
          "velocity": 0.2677165354330709
        },
        {
          "duration": 0.04651162790698038,
          "durationTicks": 4,
          "midi": 44,
          "name": "G#2",
          "ticks": 5169,
          "time": 60.104651162790695,
          "velocity": 0.3700787401574803
        },
        {
          "duration": 0.023255813953483084,
          "durationTicks": 2,
          "midi": 57,
          "name": "A3",
          "ticks": 5170,
          "time": 60.116279069767444,
          "velocity": 0.2283464566929134
        },
        {
          "duration": 0.03488372093023173,
          "durationTicks": 3,
          "midi": 52,
          "name": "E3",
          "ticks": 5171,
          "time": 60.127906976744185,
          "velocity": 0.1732283464566929
        },
        {
          "duration": 0.03488372093023173,
          "durationTicks": 3,
          "midi": 68,
          "name": "G#4",
          "ticks": 5171,
          "time": 60.127906976744185,
          "velocity": 0.1732283464566929
        },
        {
          "duration": 1.2093023255813975,
          "durationTicks": 104,
          "midi": 45,
          "name": "A2",
          "ticks": 5173,
          "time": 60.151162790697676,
          "velocity": 0.36220472440944884
        },
        {
          "duration": 0.09302325581395365,
          "durationTicks": 8,
          "midi": 68,
          "name": "G#4",
          "ticks": 5177,
          "time": 60.19767441860465,
          "velocity": 0.18110236220472442
        },
        {
          "duration": 0.2093023255813975,
          "durationTicks": 18,
          "midi": 52,
          "name": "E3",
          "ticks": 5182,
          "time": 60.25581395348837,
          "velocity": 0.14173228346456693
        },
        {
          "duration": 0.03488372093023173,
          "durationTicks": 3,
          "midi": 64,
          "name": "E4",
          "ticks": 5200,
          "time": 60.46511627906977,
          "velocity": 0.18110236220472442
        },
        {
          "duration": 0.6627906976744242,
          "durationTicks": 57,
          "midi": 52,
          "name": "E3",
          "ticks": 5204,
          "time": 60.51162790697674,
          "velocity": 0.12598425196850394
        },
        {
          "duration": 0.1046511627907023,
          "durationTicks": 9,
          "midi": 61,
          "name": "C#4",
          "ticks": 5204,
          "time": 60.51162790697674,
          "velocity": 0.09448818897637795
        },
        {
          "duration": 0.19767441860464885,
          "durationTicks": 17,
          "midi": 64,
          "name": "E4",
          "ticks": 5206,
          "time": 60.53488372093023,
          "velocity": 0.15748031496062992
        },
        {
          "duration": 0.8953488372093048,
          "durationTicks": 77,
          "midi": 66,
          "name": "F#4",
          "ticks": 5214,
          "time": 60.627906976744185,
          "velocity": 0.2204724409448819
        },
        {
          "duration": 0.2093023255813975,
          "durationTicks": 18,
          "midi": 73,
          "name": "C#5",
          "ticks": 5257,
          "time": 61.127906976744185,
          "velocity": 0.11811023622047244
        },
        {
          "duration": 0.12790697674418539,
          "durationTicks": 11,
          "midi": 52,
          "name": "E3",
          "ticks": 5262,
          "time": 61.18604651162791,
          "velocity": 0.11811023622047244
        },
        {
          "duration": 0.3720930232558146,
          "durationTicks": 32,
          "midi": 44,
          "name": "G#2",
          "ticks": 5286,
          "time": 61.46511627906977,
          "velocity": 0.3858267716535433
        },
        {
          "duration": 0.03488372093023173,
          "durationTicks": 3,
          "midi": 67,
          "name": "G4",
          "ticks": 5291,
          "time": 61.52325581395349,
          "velocity": 0.2047244094488189
        },
        {
          "duration": 0.2674418604651194,
          "durationTicks": 23,
          "midi": 70,
          "name": "A#4",
          "ticks": 5297,
          "time": 61.593023255813954,
          "velocity": 0.1732283464566929
        },
        {
          "duration": 0.06976744186046346,
          "durationTicks": 6,
          "midi": 68,
          "name": "G#4",
          "ticks": 5303,
          "time": 61.66279069767442,
          "velocity": 0.2204724409448819
        },
        {
          "duration": 0.04651162790698038,
          "durationTicks": 4,
          "midi": 58,
          "name": "A#3",
          "ticks": 5308,
          "time": 61.72093023255814,
          "velocity": 0.07874015748031496
        },
        {
          "duration": 0.04651162790698038,
          "durationTicks": 4,
          "midi": 32,
          "name": "G#1",
          "ticks": 5309,
          "time": 61.73255813953488,
          "velocity": 0.09448818897637795
        },
        {
          "duration": 0.7093023255813904,
          "durationTicks": 61,
          "midi": 68,
          "name": "G#4",
          "ticks": 5312,
          "time": 61.76744186046512,
          "velocity": 0.2125984251968504
        },
        {
          "duration": 0.6627906976744171,
          "durationTicks": 57,
          "midi": 44,
          "name": "G#2",
          "ticks": 5319,
          "time": 61.848837209302324,
          "velocity": 0.3543307086614173
        },
        {
          "duration": 0.04651162790698038,
          "durationTicks": 4,
          "midi": 32,
          "name": "G#1",
          "ticks": 5327,
          "time": 61.94186046511628,
          "velocity": 0.11023622047244094
        },
        {
          "duration": 0.046511627906973274,
          "durationTicks": 4,
          "midi": 32,
          "name": "G#1",
          "ticks": 5332,
          "time": 62,
          "velocity": 0.11023622047244094
        },
        {
          "duration": 0.03488372093023173,
          "durationTicks": 3,
          "midi": 59,
          "name": "B3",
          "ticks": 5335,
          "time": 62.03488372093023,
          "velocity": 0.09448818897637795
        },
        {
          "duration": 0.081395348837205,
          "durationTicks": 7,
          "midi": 32,
          "name": "G#1",
          "ticks": 5347,
          "time": 62.174418604651166,
          "velocity": 0.11023622047244094
        },
        {
          "duration": 0.24418604651162923,
          "durationTicks": 21,
          "midi": 59,
          "name": "B3",
          "ticks": 5351,
          "time": 62.22093023255814,
          "velocity": 0.14173228346456693
        },
        {
          "duration": 0.046511627906973274,
          "durationTicks": 4,
          "midi": 32,
          "name": "G#1",
          "ticks": 5355,
          "time": 62.26744186046512,
          "velocity": 0.10236220472440945
        },
        {
          "duration": 0.04651162790698038,
          "durationTicks": 4,
          "midi": 32,
          "name": "G#1",
          "ticks": 5360,
          "time": 62.325581395348834,
          "velocity": 0.09448818897637795
        },
        {
          "duration": 0.03488372093023173,
          "durationTicks": 3,
          "midi": 32,
          "name": "G#1",
          "ticks": 5369,
          "time": 62.43023255813954,
          "velocity": 0.11023622047244094
        },
        {
          "duration": 0.06976744186046346,
          "durationTicks": 6,
          "midi": 32,
          "name": "G#1",
          "ticks": 5373,
          "time": 62.47674418604651,
          "velocity": 0.10236220472440945
        },
        {
          "duration": 0.08139534883721211,
          "durationTicks": 7,
          "midi": 45,
          "name": "A2",
          "ticks": 5376,
          "time": 62.51162790697674,
          "velocity": 0.25984251968503935
        },
        {
          "duration": 0.05813953488372192,
          "durationTicks": 5,
          "midi": 59,
          "name": "B3",
          "ticks": 5377,
          "time": 62.52325581395349,
          "velocity": 0.14173228346456693
        },
        {
          "duration": 0.2906976744186025,
          "durationTicks": 25,
          "midi": 73,
          "name": "C#5",
          "ticks": 5377,
          "time": 62.52325581395349,
          "velocity": 0.2125984251968504
        },
        {
          "duration": 0.03488372093023173,
          "durationTicks": 3,
          "midi": 44,
          "name": "G#2",
          "ticks": 5383,
          "time": 62.593023255813954,
          "velocity": 0.08661417322834646
        },
        {
          "duration": 0.06976744186046346,
          "durationTicks": 6,
          "midi": 59,
          "name": "B3",
          "ticks": 5383,
          "time": 62.593023255813954,
          "velocity": 0.11811023622047244
        },
        {
          "duration": 0.03488372093023884,
          "durationTicks": 3,
          "midi": 68,
          "name": "G#4",
          "ticks": 5387,
          "time": 62.63953488372093,
          "velocity": 0.11811023622047244
        },
        {
          "duration": 0.1046511627906952,
          "durationTicks": 9,
          "midi": 68,
          "name": "G#4",
          "ticks": 5393,
          "time": 62.7093023255814,
          "velocity": 0.18110236220472442
        },
        {
          "duration": 0.06976744186046346,
          "durationTicks": 6,
          "midi": 66,
          "name": "F#4",
          "ticks": 5404,
          "time": 62.83720930232558,
          "velocity": 0.14960629921259844
        },
        {
          "duration": 0.03488372093023173,
          "durationTicks": 3,
          "midi": 41,
          "name": "F2",
          "ticks": 5406,
          "time": 62.86046511627907,
          "velocity": 0.3543307086614173
        },
        {
          "duration": 0.6511627906976756,
          "durationTicks": 56,
          "midi": 70,
          "name": "A#4",
          "ticks": 5408,
          "time": 62.883720930232556,
          "velocity": 0.2755905511811024
        },
        {
          "duration": 1.1279069767441783,
          "durationTicks": 97,
          "midi": 42,
          "name": "F#2",
          "ticks": 5409,
          "time": 62.895348837209305,
          "velocity": 0.3700787401574803
        },
        {
          "duration": 0.9883720930232585,
          "durationTicks": 85,
          "midi": 66,
          "name": "F#4",
          "ticks": 5411,
          "time": 62.91860465116279,
          "velocity": 0.25984251968503935
        },
        {
          "duration": 0.12790697674418539,
          "durationTicks": 11,
          "midi": 58,
          "name": "A#3",
          "ticks": 5412,
          "time": 62.93023255813954,
          "velocity": 0.23622047244094488
        },
        {
          "duration": 0.05813953488372192,
          "durationTicks": 5,
          "midi": 58,
          "name": "A#3",
          "ticks": 5424,
          "time": 63.06976744186046,
          "velocity": 0.1968503937007874
        },
        {
          "duration": 0.04651162790698038,
          "durationTicks": 4,
          "midi": 58,
          "name": "A#3",
          "ticks": 5430,
          "time": 63.13953488372093,
          "velocity": 0.1732283464566929
        },
        {
          "duration": 0.06976744186046346,
          "durationTicks": 6,
          "midi": 58,
          "name": "A#3",
          "ticks": 5437,
          "time": 63.22093023255814,
          "velocity": 0.14960629921259844
        },
        {
          "duration": 0.03488372093023173,
          "durationTicks": 3,
          "midi": 58,
          "name": "A#3",
          "ticks": 5445,
          "time": 63.31395348837209,
          "velocity": 0.08661417322834646
        },
        {
          "duration": 0.22093023255813904,
          "durationTicks": 19,
          "midi": 58,
          "name": "A#3",
          "ticks": 5456,
          "time": 63.44186046511628,
          "velocity": 0.14173228346456693
        },
        {
          "duration": 0.30232558139534405,
          "durationTicks": 26,
          "midi": 58,
          "name": "A#3",
          "ticks": 5496,
          "time": 63.906976744186046,
          "velocity": 0.2047244094488189
        },
        {
          "duration": 0.023255813953497295,
          "durationTicks": 2,
          "midi": 41,
          "name": "F2",
          "ticks": 5506,
          "time": 64.02325581395348,
          "velocity": 0.2283464566929134
        },
        {
          "duration": 0.3953488372092977,
          "durationTicks": 34,
          "midi": 66,
          "name": "F#4",
          "ticks": 5520,
          "time": 64.18604651162791,
          "velocity": 0.2755905511811024
        },
        {
          "duration": 0.03488372093023884,
          "durationTicks": 3,
          "midi": 54,
          "name": "F#3",
          "ticks": 5521,
          "time": 64.19767441860465,
          "velocity": 0.23622047244094488
        },
        {
          "duration": 0.023255813953483084,
          "durationTicks": 2,
          "midi": 53,
          "name": "F3",
          "ticks": 5525,
          "time": 64.24418604651163,
          "velocity": 0.2992125984251969
        },
        {
          "duration": 0.5465116279069804,
          "durationTicks": 47,
          "midi": 39,
          "name": "D#2",
          "ticks": 5527,
          "time": 64.26744186046511,
          "velocity": 0.33858267716535434
        },
        {
          "duration": 0.023255813953497295,
          "durationTicks": 2,
          "midi": 54,
          "name": "F#3",
          "ticks": 5527,
          "time": 64.26744186046511,
          "velocity": 0.2440944881889764
        },
        {
          "duration": 0.17441860465116577,
          "durationTicks": 15,
          "midi": 58,
          "name": "A#3",
          "ticks": 5527,
          "time": 64.26744186046511,
          "velocity": 0.11023622047244094
        },
        {
          "duration": 0.30232558139535115,
          "durationTicks": 26,
          "midi": 73,
          "name": "C#5",
          "ticks": 5553,
          "time": 64.56976744186046,
          "velocity": 0.11023622047244094
        },
        {
          "duration": 0.34883720930233153,
          "durationTicks": 30,
          "midi": 58,
          "name": "A#3",
          "ticks": 5554,
          "time": 64.5813953488372,
          "velocity": 0.16535433070866143
        },
        {
          "duration": 0.04651162790698038,
          "durationTicks": 4,
          "midi": 54,
          "name": "F#3",
          "ticks": 5573,
          "time": 64.80232558139535,
          "velocity": 0.11023622047244094
        },
        {
          "duration": 0.023255813953483084,
          "durationTicks": 2,
          "midi": 38,
          "name": "D2",
          "ticks": 5574,
          "time": 64.81395348837209,
          "velocity": 0.2992125984251969
        },
        {
          "duration": 0.023255813953497295,
          "durationTicks": 2,
          "midi": 37,
          "name": "C#2",
          "ticks": 5576,
          "time": 64.83720930232558,
          "velocity": 0.2677165354330709
        },
        {
          "duration": 0.2674418604651123,
          "durationTicks": 23,
          "midi": 66,
          "name": "F#4",
          "ticks": 5582,
          "time": 64.90697674418605,
          "velocity": 0.1732283464566929
        },
        {
          "duration": 0.023255813953483084,
          "durationTicks": 2,
          "midi": 48,
          "name": "C3",
          "ticks": 5584,
          "time": 64.93023255813954,
          "velocity": 0.2992125984251969
        },
        {
          "duration": 0.5465116279069804,
          "durationTicks": 47,
          "midi": 37,
          "name": "C#2",
          "ticks": 5585,
          "time": 64.94186046511628,
          "velocity": 0.29133858267716534
        },
        {
          "duration": 0.03488372093023884,
          "durationTicks": 3,
          "midi": 58,
          "name": "A#3",
          "ticks": 5592,
          "time": 65.02325581395348,
          "velocity": 0.08661417322834646
        },
        {
          "duration": 0.034883720930224626,
          "durationTicks": 3,
          "midi": 56,
          "name": "G#3",
          "ticks": 5610,
          "time": 65.23255813953489,
          "velocity": 0.3228346456692913
        },
        {
          "duration": 0.023255813953497295,
          "durationTicks": 2,
          "midi": 57,
          "name": "A3",
          "ticks": 5613,
          "time": 65.26744186046511,
          "velocity": 0.2992125984251969
        },
        {
          "duration": 0.023255813953497295,
          "durationTicks": 2,
          "midi": 56,
          "name": "G#3",
          "ticks": 5614,
          "time": 65.27906976744185,
          "velocity": 0.28346456692913385
        },
        {
          "duration": 0.023255813953497295,
          "durationTicks": 2,
          "midi": 57,
          "name": "A3",
          "ticks": 5619,
          "time": 65.33720930232558,
          "velocity": 0.25984251968503935
        },
        {
          "duration": 0.023255813953497295,
          "durationTicks": 2,
          "midi": 57,
          "name": "A3",
          "ticks": 5623,
          "time": 65.38372093023256,
          "velocity": 0.23622047244094488
        },
        {
          "duration": 0.034883720930224626,
          "durationTicks": 3,
          "midi": 58,
          "name": "A#3",
          "ticks": 5631,
          "time": 65.47674418604652,
          "velocity": 0.07086614173228346
        },
        {
          "duration": 0.7093023255813904,
          "durationTicks": 61,
          "midi": 61,
          "name": "C#4",
          "ticks": 5639,
          "time": 65.56976744186046,
          "velocity": 0.3779527559055118
        },
        {
          "duration": 0.2906976744186096,
          "durationTicks": 25,
          "midi": 69,
          "name": "A4",
          "ticks": 5641,
          "time": 65.59302325581395,
          "velocity": 0.23622047244094488
        },
        {
          "duration": 1.2325581395348877,
          "durationTicks": 106,
          "midi": 45,
          "name": "A2",
          "ticks": 5643,
          "time": 65.61627906976744,
          "velocity": 0.3543307086614173
        },
        {
          "duration": 0.2325581395348877,
          "durationTicks": 20,
          "midi": 52,
          "name": "E3",
          "ticks": 5649,
          "time": 65.68604651162791,
          "velocity": 0.13385826771653545
        },
        {
          "duration": 0.22093023255813193,
          "durationTicks": 19,
          "midi": 66,
          "name": "F#4",
          "ticks": 5669,
          "time": 65.9186046511628,
          "velocity": 0.12598425196850394
        },
        {
          "duration": 0.2674418604651123,
          "durationTicks": 23,
          "midi": 78,
          "name": "F#5",
          "ticks": 5669,
          "time": 65.9186046511628,
          "velocity": 0.15748031496062992
        },
        {
          "duration": 0.6046511627907023,
          "durationTicks": 52,
          "midi": 52,
          "name": "E3",
          "ticks": 5670,
          "time": 65.93023255813954,
          "velocity": 0.1889763779527559
        },
        {
          "duration": 0.19767441860464885,
          "durationTicks": 17,
          "midi": 61,
          "name": "C#4",
          "ticks": 5711,
          "time": 66.40697674418605,
          "velocity": 0.1889763779527559
        },
        {
          "duration": 0.11627906976744384,
          "durationTicks": 10,
          "midi": 88,
          "name": "E6",
          "ticks": 5712,
          "time": 66.4186046511628,
          "velocity": 0.11023622047244094
        },
        {
          "duration": 0.1046511627907023,
          "durationTicks": 9,
          "midi": 76,
          "name": "E5",
          "ticks": 5713,
          "time": 66.43023255813954,
          "velocity": 0.09448818897637795
        },
        {
          "duration": 0.2093023255814046,
          "durationTicks": 18,
          "midi": 61,
          "name": "C#4",
          "ticks": 5731,
          "time": 66.63953488372093,
          "velocity": 0.2755905511811024
        },
        {
          "duration": 0.03488372093023884,
          "durationTicks": 3,
          "midi": 59,
          "name": "B3",
          "ticks": 5752,
          "time": 66.88372093023256,
          "velocity": 0.2125984251968504
        },
        {
          "duration": 0.3953488372092977,
          "durationTicks": 34,
          "midi": 68,
          "name": "G#4",
          "ticks": 5755,
          "time": 66.9186046511628,
          "velocity": 0.2125984251968504
        },
        {
          "duration": 0.27906976744185386,
          "durationTicks": 24,
          "midi": 56,
          "name": "G#3",
          "ticks": 5756,
          "time": 66.93023255813954,
          "velocity": 0.2755905511811024
        },
        {
          "duration": 0.05813953488372192,
          "durationTicks": 5,
          "midi": 61,
          "name": "C#4",
          "ticks": 5756,
          "time": 66.93023255813954,
          "velocity": 0.25984251968503935
        },
        {
          "duration": 1.1162790697674438,
          "durationTicks": 96,
          "midi": 44,
          "name": "G#2",
          "ticks": 5761,
          "time": 66.98837209302326,
          "velocity": 0.3779527559055118
        },
        {
          "duration": 1.1511627906976685,
          "durationTicks": 99,
          "midi": 63,
          "name": "D#4",
          "ticks": 5762,
          "time": 67,
          "velocity": 0.29133858267716534
        },
        {
          "duration": 0.04651162790698038,
          "durationTicks": 4,
          "midi": 59,
          "name": "B3",
          "ticks": 5780,
          "time": 67.20930232558139,
          "velocity": 0.16535433070866143
        },
        {
          "duration": 0.04651162790698038,
          "durationTicks": 4,
          "midi": 32,
          "name": "G#1",
          "ticks": 5785,
          "time": 67.26744186046511,
          "velocity": 0.08661417322834646
        },
        {
          "duration": 0.03488372093023884,
          "durationTicks": 3,
          "midi": 55,
          "name": "G3",
          "ticks": 5790,
          "time": 67.32558139534883,
          "velocity": 0.12598425196850394
        },
        {
          "duration": 0.16279069767442422,
          "durationTicks": 14,
          "midi": 59,
          "name": "B3",
          "ticks": 5790,
          "time": 67.32558139534883,
          "velocity": 0.1889763779527559
        },
        {
          "duration": 0.06976744186046346,
          "durationTicks": 6,
          "midi": 68,
          "name": "G#4",
          "ticks": 5796,
          "time": 67.3953488372093,
          "velocity": 0.07874015748031496
        },
        {
          "duration": 0.04651162790696617,
          "durationTicks": 4,
          "midi": 32,
          "name": "G#1",
          "ticks": 5798,
          "time": 67.4186046511628,
          "velocity": 0.08661417322834646
        },
        {
          "duration": 0.04651162790696617,
          "durationTicks": 4,
          "midi": 32,
          "name": "G#1",
          "ticks": 5808,
          "time": 67.53488372093024,
          "velocity": 0.10236220472440945
        },
        {
          "duration": 0.1046511627907023,
          "durationTicks": 9,
          "midi": 32,
          "name": "G#1",
          "ticks": 5813,
          "time": 67.59302325581395,
          "velocity": 0.10236220472440945
        },
        {
          "duration": 0.17441860465116577,
          "durationTicks": 15,
          "midi": 68,
          "name": "G#4",
          "ticks": 5815,
          "time": 67.61627906976744,
          "velocity": 0.13385826771653545
        },
        {
          "duration": 0.023255813953497295,
          "durationTicks": 2,
          "midi": 57,
          "name": "A3",
          "ticks": 5817,
          "time": 67.63953488372093,
          "velocity": 0.2440944881889764
        },
        {
          "duration": 0.09302325581396076,
          "durationTicks": 8,
          "midi": 59,
          "name": "B3",
          "ticks": 5823,
          "time": 67.70930232558139,
          "velocity": 0.18110236220472442
        },
        {
          "duration": 0.04651162790698038,
          "durationTicks": 4,
          "midi": 32,
          "name": "G#1",
          "ticks": 5826,
          "time": 67.74418604651163,
          "velocity": 0.09448818897637795
        },
        {
          "duration": 0.06976744186047767,
          "durationTicks": 6,
          "midi": 32,
          "name": "G#1",
          "ticks": 5834,
          "time": 67.83720930232558,
          "velocity": 0.09448818897637795
        },
        {
          "duration": 0.04651162790696617,
          "durationTicks": 4,
          "midi": 32,
          "name": "G#1",
          "ticks": 5841,
          "time": 67.9186046511628,
          "velocity": 0.07874015748031496
        },
        {
          "duration": 0.05813953488372192,
          "durationTicks": 5,
          "midi": 59,
          "name": "B3",
          "ticks": 5844,
          "time": 67.95348837209302,
          "velocity": 0.12598425196850394
        },
        {
          "duration": 0.081395348837205,
          "durationTicks": 7,
          "midi": 32,
          "name": "G#1",
          "ticks": 5846,
          "time": 67.97674418604652,
          "velocity": 0.07086614173228346
        },
        {
          "duration": 0.1860465116279073,
          "durationTicks": 16,
          "midi": 71,
          "name": "B4",
          "ticks": 5849,
          "time": 68.01162790697674,
          "velocity": 0.13385826771653545
        },
        {
          "duration": 0.04651162790696617,
          "durationTicks": 4,
          "midi": 43,
          "name": "G2",
          "ticks": 5857,
          "time": 68.1046511627907,
          "velocity": 0.15748031496062992
        },
        {
          "duration": 0.03488372093023884,
          "durationTicks": 3,
          "midi": 41,
          "name": "F2",
          "ticks": 5875,
          "time": 68.31395348837209,
          "velocity": 0.3858267716535433
        },
        {
          "duration": 0.023255813953497295,
          "durationTicks": 2,
          "midi": 60,
          "name": "C4",
          "ticks": 5876,
          "time": 68.32558139534883,
          "velocity": 0.2440944881889764
        },
        {
          "duration": 0.7790697674418681,
          "durationTicks": 67,
          "midi": 70,
          "name": "A#4",
          "ticks": 5876,
          "time": 68.32558139534883,
          "velocity": 0.28346456692913385
        },
        {
          "duration": 1.0116279069767415,
          "durationTicks": 87,
          "midi": 42,
          "name": "F#2",
          "ticks": 5878,
          "time": 68.34883720930233,
          "velocity": 0.3779527559055118
        },
        {
          "duration": 0.12790697674418539,
          "durationTicks": 11,
          "midi": 89,
          "name": "F6",
          "ticks": 5878,
          "time": 68.34883720930233,
          "velocity": 0.08661417322834646
        },
        {
          "duration": 0.9767441860465027,
          "durationTicks": 84,
          "midi": 58,
          "name": "A#3",
          "ticks": 5879,
          "time": 68.36046511627907,
          "velocity": 0.41732283464566927
        },
        {
          "duration": 0.2674418604651123,
          "durationTicks": 23,
          "midi": 66,
          "name": "F#4",
          "ticks": 5879,
          "time": 68.36046511627907,
          "velocity": 0.14960629921259844
        },
        {
          "duration": 0.09302325581396076,
          "durationTicks": 8,
          "midi": 66,
          "name": "F#4",
          "ticks": 5919,
          "time": 68.82558139534883,
          "velocity": 0.07086614173228346
        },
        {
          "duration": 0.22093023255814614,
          "durationTicks": 19,
          "midi": 66,
          "name": "F#4",
          "ticks": 5936,
          "time": 69.02325581395348,
          "velocity": 0.10236220472440945
        },
        {
          "duration": 0.3372093023255758,
          "durationTicks": 29,
          "midi": 58,
          "name": "A#3",
          "ticks": 5964,
          "time": 69.34883720930233,
          "velocity": 0.28346456692913385
        },
        {
          "duration": 0.27906976744185386,
          "durationTicks": 24,
          "midi": 42,
          "name": "F#2",
          "ticks": 5966,
          "time": 69.37209302325581,
          "velocity": 0.2992125984251969
        },
        {
          "duration": 0.6162790697674438,
          "durationTicks": 53,
          "midi": 42,
          "name": "F#2",
          "ticks": 5993,
          "time": 69.68604651162791,
          "velocity": 0.3464566929133858
        },
        {
          "duration": 0.023255813953497295,
          "durationTicks": 2,
          "midi": 56,
          "name": "G#3",
          "ticks": 5994,
          "time": 69.69767441860465,
          "velocity": 0.31496062992125984
        },
        {
          "duration": 0.5581395348837077,
          "durationTicks": 48,
          "midi": 63,
          "name": "D#4",
          "ticks": 5996,
          "time": 69.72093023255815,
          "velocity": 0.28346456692913385
        },
        {
          "duration": 0.15116279069766847,
          "durationTicks": 13,
          "midi": 73,
          "name": "C#5",
          "ticks": 5998,
          "time": 69.74418604651163,
          "velocity": 0.09448818897637795
        },
        {
          "duration": 0.04651162790698038,
          "durationTicks": 4,
          "midi": 50,
          "name": "D3",
          "ticks": 5999,
          "time": 69.75581395348837,
          "velocity": 0.2125984251968504
        },
        {
          "duration": 0.22093023255813193,
          "durationTicks": 19,
          "midi": 58,
          "name": "A#3",
          "ticks": 6002,
          "time": 69.79069767441861,
          "velocity": 0.31496062992125984
        },
        {
          "duration": 0.32558139534883423,
          "durationTicks": 28,
          "midi": 58,
          "name": "A#3",
          "ticks": 6024,
          "time": 70.04651162790698,
          "velocity": 0.2283464566929134
        },
        {
          "duration": 0.023255813953483084,
          "durationTicks": 2,
          "midi": 43,
          "name": "G2",
          "ticks": 6046,
          "time": 70.30232558139535,
          "velocity": 0.25984251968503935
        },
        {
          "duration": 0.03488372093023884,
          "durationTicks": 3,
          "midi": 44,
          "name": "G#2",
          "ticks": 6048,
          "time": 70.32558139534883,
          "velocity": 0.25984251968503935
        },
        {
          "duration": 0.2674418604651123,
          "durationTicks": 23,
          "midi": 63,
          "name": "D#4",
          "ticks": 6050,
          "time": 70.34883720930233,
          "velocity": 0.23622047244094488
        },
        {
          "duration": 0.023255813953483084,
          "durationTicks": 2,
          "midi": 56,
          "name": "G#3",
          "ticks": 6052,
          "time": 70.37209302325581,
          "velocity": 0.3464566929133858
        },
        {
          "duration": 0.5,
          "durationTicks": 43,
          "midi": 44,
          "name": "G#2",
          "ticks": 6054,
          "time": 70.3953488372093,
          "velocity": 0.3779527559055118
        },
        {
          "duration": 0.023255813953497295,
          "durationTicks": 2,
          "midi": 55,
          "name": "G3",
          "ticks": 6060,
          "time": 70.46511627906976,
          "velocity": 0.25984251968503935
        },
        {
          "duration": 0.023255813953483084,
          "durationTicks": 2,
          "midi": 55,
          "name": "G3",
          "ticks": 6063,
          "time": 70.5,
          "velocity": 0.25984251968503935
        },
        {
          "duration": 0.023255813953497295,
          "durationTicks": 2,
          "midi": 57,
          "name": "A3",
          "ticks": 6065,
          "time": 70.52325581395348,
          "velocity": 0.2677165354330709
        },
        {
          "duration": 0.13953488372092693,
          "durationTicks": 12,
          "midi": 58,
          "name": "A#3",
          "ticks": 6069,
          "time": 70.56976744186046,
          "velocity": 0.25984251968503935
        },
        {
          "duration": 0.4767441860465169,
          "durationTicks": 41,
          "midi": 66,
          "name": "F#4",
          "ticks": 6080,
          "time": 70.69767441860465,
          "velocity": 0.2440944881889764
        },
        {
          "duration": 0.023255813953483084,
          "durationTicks": 2,
          "midi": 55,
          "name": "G3",
          "ticks": 6082,
          "time": 70.72093023255815,
          "velocity": 0.2283464566929134
        },
        {
          "duration": 0.15116279069766847,
          "durationTicks": 13,
          "midi": 58,
          "name": "A#3",
          "ticks": 6082,
          "time": 70.72093023255815,
          "velocity": 0.2283464566929134
        },
        {
          "duration": 0.04651162790698038,
          "durationTicks": 4,
          "midi": 32,
          "name": "G#1",
          "ticks": 6085,
          "time": 70.75581395348837,
          "velocity": 0.07874015748031496
        },
        {
          "duration": 0.04651162790698038,
          "durationTicks": 4,
          "midi": 32,
          "name": "G#1",
          "ticks": 6090,
          "time": 70.81395348837209,
          "velocity": 0.07874015748031496
        },
        {
          "duration": 0.05813953488372192,
          "durationTicks": 5,
          "midi": 54,
          "name": "F#3",
          "ticks": 6099,
          "time": 70.9186046511628,
          "velocity": 0.09448818897637795
        },
        {
          "duration": 0.023255813953497295,
          "durationTicks": 2,
          "midi": 44,
          "name": "G#2",
          "ticks": 6108,
          "time": 71.02325581395348,
          "velocity": 0.36220472440944884
        },
        {
          "duration": 1.2674418604651123,
          "durationTicks": 109,
          "midi": 45,
          "name": "A2",
          "ticks": 6110,
          "time": 71.04651162790698,
          "velocity": 0.3700787401574803
        },
        {
          "duration": 0.023255813953483084,
          "durationTicks": 2,
          "midi": 56,
          "name": "G#3",
          "ticks": 6110,
          "time": 71.04651162790698,
          "velocity": 0.28346456692913385
        },
        {
          "duration": 1.0465116279069662,
          "durationTicks": 90,
          "midi": 61,
          "name": "C#4",
          "ticks": 6110,
          "time": 71.04651162790698,
          "velocity": 0.3543307086614173
        },
        {
          "duration": 0.5348837209302246,
          "durationTicks": 46,
          "midi": 52,
          "name": "E3",
          "ticks": 6116,
          "time": 71.11627906976744,
          "velocity": 0.12598425196850394
        },
        {
          "duration": 0.2906976744185954,
          "durationTicks": 25,
          "midi": 52,
          "name": "E3",
          "ticks": 6169,
          "time": 71.73255813953489,
          "velocity": 0.10236220472440945
        },
        {
          "duration": 0.2906976744185954,
          "durationTicks": 25,
          "midi": 68,
          "name": "G#4",
          "ticks": 6195,
          "time": 72.03488372093024,
          "velocity": 0.18110236220472442
        },
        {
          "duration": 0.09302325581394655,
          "durationTicks": 8,
          "midi": 56,
          "name": "G#3",
          "ticks": 6196,
          "time": 72.04651162790698,
          "velocity": 0.2755905511811024
        },
        {
          "duration": 0.11627906976744384,
          "durationTicks": 10,
          "midi": 61,
          "name": "C#4",
          "ticks": 6201,
          "time": 72.1046511627907,
          "velocity": 0.2125984251968504
        },
        {
          "duration": 0.13953488372092693,
          "durationTicks": 12,
          "midi": 52,
          "name": "E3",
          "ticks": 6202,
          "time": 72.11627906976744,
          "velocity": 0.07086614173228346
        },
        {
          "duration": 0.06976744186046346,
          "durationTicks": 6,
          "midi": 60,
          "name": "C4",
          "ticks": 6211,
          "time": 72.22093023255815,
          "velocity": 0.14173228346456693
        },
        {
          "duration": 0.023255813953483084,
          "durationTicks": 2,
          "midi": 42,
          "name": "F#2",
          "ticks": 6227,
          "time": 72.40697674418605,
          "velocity": 0.2440944881889764
        },
        {
          "duration": 0.06976744186046346,
          "durationTicks": 6,
          "midi": 56,
          "name": "G#3",
          "ticks": 6227,
          "time": 72.40697674418605,
          "velocity": 0.2677165354330709
        },
        {
          "duration": 1.023255813953483,
          "durationTicks": 88,
          "midi": 66,
          "name": "F#4",
          "ticks": 6227,
          "time": 72.40697674418605,
          "velocity": 0.25984251968503935
        },
        {
          "duration": 0.04651162790696617,
          "durationTicks": 4,
          "midi": 90,
          "name": "F#6",
          "ticks": 6228,
          "time": 72.4186046511628,
          "velocity": 0.10236220472440945
        },
        {
          "duration": 1.0465116279069804,
          "durationTicks": 90,
          "midi": 44,
          "name": "G#2",
          "ticks": 6229,
          "time": 72.43023255813954,
          "velocity": 0.3543307086614173
        },
        {
          "duration": 0.081395348837205,
          "durationTicks": 7,
          "midi": 59,
          "name": "B3",
          "ticks": 6234,
          "time": 72.48837209302326,
          "velocity": 0.23622047244094488
        },
        {
          "duration": 0.16279069767442422,
          "durationTicks": 14,
          "midi": 59,
          "name": "B3",
          "ticks": 6242,
          "time": 72.5813953488372,
          "velocity": 0.1968503937007874
        },
        {
          "duration": 0.2325581395348877,
          "durationTicks": 20,
          "midi": 59,
          "name": "B3",
          "ticks": 6259,
          "time": 72.77906976744185,
          "velocity": 0.2204724409448819
        },
        {
          "duration": 0.04651162790698038,
          "durationTicks": 4,
          "midi": 32,
          "name": "G#1",
          "ticks": 6261,
          "time": 72.80232558139535,
          "velocity": 0.07086614173228346
        },
        {
          "duration": 0.04651162790698038,
          "durationTicks": 4,
          "midi": 59,
          "name": "B3",
          "ticks": 6283,
          "time": 73.05813953488372,
          "velocity": 0.1732283464566929
        },
        {
          "duration": 0.2325581395348877,
          "durationTicks": 20,
          "midi": 59,
          "name": "B3",
          "ticks": 6293,
          "time": 73.17441860465117,
          "velocity": 0.2204724409448819
        },
        {
          "duration": 0.08139534883721922,
          "durationTicks": 7,
          "midi": 71,
          "name": "B4",
          "ticks": 6318,
          "time": 73.46511627906976,
          "velocity": 0.08661417322834646
        },
        {
          "duration": 0.04651162790698038,
          "durationTicks": 4,
          "midi": 61,
          "name": "C#4",
          "ticks": 6323,
          "time": 73.52325581395348,
          "velocity": 0.07086614173228346
        },
        {
          "duration": 0.1279069767441996,
          "durationTicks": 11,
          "midi": 66,
          "name": "F#4",
          "ticks": 6329,
          "time": 73.59302325581395,
          "velocity": 0.10236220472440945
        },
        {
          "duration": 0.6976744186046631,
          "durationTicks": 60,
          "midi": 61,
          "name": "C#4",
          "ticks": 6345,
          "time": 73.77906976744185,
          "velocity": 0.3543307086614173
        },
        {
          "duration": 0.023255813953483084,
          "durationTicks": 2,
          "midi": 55,
          "name": "G3",
          "ticks": 6346,
          "time": 73.79069767441861,
          "velocity": 0.2283464566929134
        },
        {
          "duration": 1.1511627906976685,
          "durationTicks": 99,
          "midi": 42,
          "name": "F#2",
          "ticks": 6347,
          "time": 73.80232558139535,
          "velocity": 0.3543307086614173
        },
        {
          "duration": 0.5348837209302246,
          "durationTicks": 46,
          "midi": 70,
          "name": "A#4",
          "ticks": 6373,
          "time": 74.1046511627907,
          "velocity": 0.2677165354330709
        },
        {
          "duration": 0.09302325581396076,
          "durationTicks": 8,
          "midi": 89,
          "name": "F6",
          "ticks": 6375,
          "time": 74.12790697674419,
          "velocity": 0.10236220472440945
        },
        {
          "duration": 0.034883720930224626,
          "durationTicks": 3,
          "midi": 58,
          "name": "A#3",
          "ticks": 6379,
          "time": 74.17441860465117,
          "velocity": 0.2047244094488189
        },
        {
          "duration": 0.918604651162795,
          "durationTicks": 79,
          "midi": 61,
          "name": "C#4",
          "ticks": 6406,
          "time": 74.48837209302326,
          "velocity": 0.31496062992125984
        },
        {
          "duration": 0.3139534883720927,
          "durationTicks": 27,
          "midi": 70,
          "name": "A#4",
          "ticks": 6430,
          "time": 74.76744186046511,
          "velocity": 0.2204724409448819
        },
        {
          "duration": 0.03488372093023884,
          "durationTicks": 3,
          "midi": 58,
          "name": "A#3",
          "ticks": 6441,
          "time": 74.8953488372093,
          "velocity": 0.2047244094488189
        },
        {
          "duration": 0.12790697674418539,
          "durationTicks": 11,
          "midi": 58,
          "name": "A#3",
          "ticks": 6445,
          "time": 74.94186046511628,
          "velocity": 0.16535433070866143
        },
        {
          "duration": 0.023255813953497295,
          "durationTicks": 2,
          "midi": 48,
          "name": "C3",
          "ticks": 6457,
          "time": 75.0813953488372,
          "velocity": 0.23622047244094488
        },
        {
          "duration": 0.023255813953483084,
          "durationTicks": 2,
          "midi": 49,
          "name": "C#3",
          "ticks": 6459,
          "time": 75.1046511627907,
          "velocity": 0.2440944881889764
        },
        {
          "duration": 0.30232558139535115,
          "durationTicks": 26,
          "midi": 78,
          "name": "F#5",
          "ticks": 6459,
          "time": 75.1046511627907,
          "velocity": 0.2440944881889764
        },
        {
          "duration": 0.6395348837209269,
          "durationTicks": 55,
          "midi": 37,
          "name": "C#2",
          "ticks": 6460,
          "time": 75.11627906976744,
          "velocity": 0.2755905511811024
        },
        {
          "duration": 0.12790697674418539,
          "durationTicks": 11,
          "midi": 66,
          "name": "F#4",
          "ticks": 6461,
          "time": 75.12790697674419,
          "velocity": 0.14960629921259844
        },
        {
          "duration": 0.023255813953497295,
          "durationTicks": 2,
          "midi": 50,
          "name": "D3",
          "ticks": 6463,
          "time": 75.15116279069767,
          "velocity": 0.23622047244094488
        },
        {
          "duration": 0.04651162790696617,
          "durationTicks": 4,
          "midi": 54,
          "name": "F#3",
          "ticks": 6464,
          "time": 75.16279069767442,
          "velocity": 0.2125984251968504
        },
        {
          "duration": 0.04651162790696617,
          "durationTicks": 4,
          "midi": 54,
          "name": "F#3",
          "ticks": 6470,
          "time": 75.23255813953489,
          "velocity": 0.2283464566929134
        },
        {
          "duration": 0.03488372093023884,
          "durationTicks": 3,
          "midi": 50,
          "name": "D3",
          "ticks": 6488,
          "time": 75.44186046511628,
          "velocity": 0.14173228346456693
        },
        {
          "duration": 0.24418604651162923,
          "durationTicks": 21,
          "midi": 66,
          "name": "F#4",
          "ticks": 6489,
          "time": 75.45348837209302,
          "velocity": 0.08661417322834646
        },
        {
          "duration": 0.24418604651162923,
          "durationTicks": 21,
          "midi": 56,
          "name": "G#3",
          "ticks": 6490,
          "time": 75.46511627906976,
          "velocity": 0.29133858267716534
        },
        {
          "duration": 0.03488372093023884,
          "durationTicks": 3,
          "midi": 50,
          "name": "D3",
          "ticks": 6493,
          "time": 75.5,
          "velocity": 0.15748031496062992
        },
        {
          "duration": 0.034883720930224626,
          "durationTicks": 3,
          "midi": 50,
          "name": "D3",
          "ticks": 6498,
          "time": 75.55813953488372,
          "velocity": 0.14173228346456693
        },
        {
          "duration": 0.05813953488372192,
          "durationTicks": 5,
          "midi": 63,
          "name": "D#4",
          "ticks": 6508,
          "time": 75.67441860465117,
          "velocity": 0.10236220472440945
        },
        {
          "duration": 0.05813953488372192,
          "durationTicks": 5,
          "midi": 37,
          "name": "C#2",
          "ticks": 6520,
          "time": 75.81395348837209,
          "velocity": 0.28346456692913385
        },
        {
          "duration": 0.023255813953483084,
          "durationTicks": 2,
          "midi": 48,
          "name": "C3",
          "ticks": 6520,
          "time": 75.81395348837209,
          "velocity": 0.31496062992125984
        },
        {
          "duration": 0.05813953488372192,
          "durationTicks": 5,
          "midi": 70,
          "name": "A#4",
          "ticks": 6520,
          "time": 75.81395348837209,
          "velocity": 0.08661417322834646
        },
        {
          "duration": 0.22093023255814614,
          "durationTicks": 19,
          "midi": 58,
          "name": "A#3",
          "ticks": 6522,
          "time": 75.83720930232558,
          "velocity": 0.1889763779527559
        },
        {
          "duration": 0.25581395348837077,
          "durationTicks": 22,
          "midi": 51,
          "name": "D#3",
          "ticks": 6525,
          "time": 75.87209302325581,
          "velocity": 0.1889763779527559
        },
        {
          "duration": 0.2674418604651123,
          "durationTicks": 23,
          "midi": 39,
          "name": "D#2",
          "ticks": 6526,
          "time": 75.88372093023256,
          "velocity": 0.33858267716535434
        },
        {
          "duration": 0.023255813953483084,
          "durationTicks": 2,
          "midi": 48,
          "name": "C3",
          "ticks": 6550,
          "time": 76.16279069767442,
          "velocity": 0.25196850393700787
        },
        {
          "duration": 0.023255813953483084,
          "durationTicks": 2,
          "midi": 38,
          "name": "D2",
          "ticks": 6551,
          "time": 76.17441860465117,
          "velocity": 0.2755905511811024
        },
        {
          "duration": 0.11627906976744384,
          "durationTicks": 10,
          "midi": 49,
          "name": "C#3",
          "ticks": 6552,
          "time": 76.18604651162791,
          "velocity": 0.2125984251968504
        },
        {
          "duration": 0.2093023255813904,
          "durationTicks": 18,
          "midi": 56,
          "name": "G#3",
          "ticks": 6552,
          "time": 76.18604651162791,
          "velocity": 0.25196850393700787
        },
        {
          "duration": 0.2325581395348877,
          "durationTicks": 20,
          "midi": 37,
          "name": "C#2",
          "ticks": 6553,
          "time": 76.19767441860465,
          "velocity": 0.29133858267716534
        },
        {
          "duration": 0.3953488372093119,
          "durationTicks": 34,
          "midi": 61,
          "name": "C#4",
          "ticks": 6575,
          "time": 76.45348837209302,
          "velocity": 0.1968503937007874
        },
        {
          "duration": 0.3372093023255758,
          "durationTicks": 29,
          "midi": 57,
          "name": "A3",
          "ticks": 6578,
          "time": 76.48837209302326,
          "velocity": 0.2440944881889764
        },
        {
          "duration": 0.023255813953497295,
          "durationTicks": 2,
          "midi": 44,
          "name": "G#2",
          "ticks": 6580,
          "time": 76.51162790697674,
          "velocity": 0.36220472440944884
        },
        {
          "duration": 0.32558139534883423,
          "durationTicks": 28,
          "midi": 52,
          "name": "E3",
          "ticks": 6580,
          "time": 76.51162790697674,
          "velocity": 0.14960629921259844
        },
        {
          "duration": 1.0232558139534973,
          "durationTicks": 88,
          "midi": 66,
          "name": "F#4",
          "ticks": 6580,
          "time": 76.51162790697674,
          "velocity": 0.25984251968503935
        },
        {
          "duration": 1.220930232558132,
          "durationTicks": 105,
          "midi": 45,
          "name": "A2",
          "ticks": 6582,
          "time": 76.53488372093024,
          "velocity": 0.3779527559055118
        },
        {
          "duration": 0.19767441860464885,
          "durationTicks": 17,
          "midi": 73,
          "name": "C#5",
          "ticks": 6610,
          "time": 76.86046511627907,
          "velocity": 0.15748031496062992
        },
        {
          "duration": 0.581395348837205,
          "durationTicks": 50,
          "midi": 52,
          "name": "E3",
          "ticks": 6612,
          "time": 76.88372093023256,
          "velocity": 0.11811023622047244
        },
        {
          "duration": 0.03488372093023884,
          "durationTicks": 3,
          "midi": 64,
          "name": "E4",
          "ticks": 6613,
          "time": 76.8953488372093,
          "velocity": 0.14960629921259844
        },
        {
          "duration": 0.3720930232558146,
          "durationTicks": 32,
          "midi": 61,
          "name": "C#4",
          "ticks": 6636,
          "time": 77.16279069767442,
          "velocity": 0.23622047244094488
        },
        {
          "duration": 0.023255813953483084,
          "durationTicks": 2,
          "midi": 63,
          "name": "D#4",
          "ticks": 6669,
          "time": 77.54651162790698,
          "velocity": 0.23622047244094488
        },
        {
          "duration": 0.05813953488372192,
          "durationTicks": 5,
          "midi": 66,
          "name": "F#4",
          "ticks": 6669,
          "time": 77.54651162790698,
          "velocity": 0.11023622047244094
        },
        {
          "duration": 0.03488372093023884,
          "durationTicks": 3,
          "midi": 63,
          "name": "D#4",
          "ticks": 6672,
          "time": 77.5813953488372,
          "velocity": 0.2440944881889764
        },
        {
          "duration": 0.03488372093023884,
          "durationTicks": 3,
          "midi": 63,
          "name": "D#4",
          "ticks": 6677,
          "time": 77.63953488372093,
          "velocity": 0.2047244094488189
        },
        {
          "duration": 0.09302325581394655,
          "durationTicks": 8,
          "midi": 66,
          "name": "F#4",
          "ticks": 6685,
          "time": 77.73255813953489,
          "velocity": 0.13385826771653545
        },
        {
          "duration": 0.023255813953483084,
          "durationTicks": 2,
          "midi": 46,
          "name": "A#2",
          "ticks": 6696,
          "time": 77.86046511627907,
          "velocity": 0.30708661417322836
        },
        {
          "duration": 0.06976744186046346,
          "durationTicks": 6,
          "midi": 66,
          "name": "F#4",
          "ticks": 6696,
          "time": 77.86046511627907,
          "velocity": 0.23622047244094488
        },
        {
          "duration": 0.32558139534883423,
          "durationTicks": 28,
          "midi": 47,
          "name": "B2",
          "ticks": 6698,
          "time": 77.88372093023256,
          "velocity": 0.31496062992125984
        },
        {
          "duration": 0.22093023255814614,
          "durationTicks": 19,
          "midi": 73,
          "name": "C#5",
          "ticks": 6698,
          "time": 77.88372093023256,
          "velocity": 0.07874015748031496
        },
        {
          "duration": 0.06976744186046346,
          "durationTicks": 6,
          "midi": 56,
          "name": "G#3",
          "ticks": 6699,
          "time": 77.8953488372093,
          "velocity": 0.2677165354330709
        },
        {
          "duration": 1.058139534883722,
          "durationTicks": 91,
          "midi": 35,
          "name": "B1",
          "ticks": 6701,
          "time": 77.9186046511628,
          "velocity": 0.1968503937007874
        },
        {
          "duration": 0.7209302325581461,
          "durationTicks": 62,
          "midi": 68,
          "name": "G#4",
          "ticks": 6704,
          "time": 77.95348837209302,
          "velocity": 0.2677165354330709
        },
        {
          "duration": 0.09302325581394655,
          "durationTicks": 8,
          "midi": 56,
          "name": "G#3",
          "ticks": 6706,
          "time": 77.97674418604652,
          "velocity": 0.2204724409448819
        },
        {
          "duration": 0.2674418604651123,
          "durationTicks": 23,
          "midi": 59,
          "name": "B3",
          "ticks": 6727,
          "time": 78.22093023255815,
          "velocity": 0.25984251968503935
        },
        {
          "duration": 0.09302325581394655,
          "durationTicks": 8,
          "midi": 59,
          "name": "B3",
          "ticks": 6755,
          "time": 78.54651162790698,
          "velocity": 0.2440944881889764
        },
        {
          "duration": 0.03488372093023884,
          "durationTicks": 3,
          "midi": 56,
          "name": "G#3",
          "ticks": 6762,
          "time": 78.62790697674419,
          "velocity": 0.2440944881889764
        },
        {
          "duration": 0.09302325581396076,
          "durationTicks": 8,
          "midi": 59,
          "name": "B3",
          "ticks": 6764,
          "time": 78.65116279069767,
          "velocity": 0.23622047244094488
        },
        {
          "duration": 0.04651162790698038,
          "durationTicks": 4,
          "midi": 59,
          "name": "B3",
          "ticks": 6774,
          "time": 78.76744186046511,
          "velocity": 0.18110236220472442
        },
        {
          "duration": 0.27906976744185386,
          "durationTicks": 24,
          "midi": 68,
          "name": "G#4",
          "ticks": 6776,
          "time": 78.79069767441861,
          "velocity": 0.1968503937007874
        },
        {
          "duration": 0.09302325581396076,
          "durationTicks": 8,
          "midi": 59,
          "name": "B3",
          "ticks": 6779,
          "time": 78.82558139534883,
          "velocity": 0.2125984251968504
        },
        {
          "duration": 0.03488372093023884,
          "durationTicks": 3,
          "midi": 55,
          "name": "G3",
          "ticks": 6784,
          "time": 78.88372093023256,
          "velocity": 0.12598425196850394
        },
        {
          "duration": 0.11627906976742963,
          "durationTicks": 10,
          "midi": 90,
          "name": "F#6",
          "ticks": 6786,
          "time": 78.90697674418605,
          "velocity": 0.09448818897637795
        },
        {
          "duration": 0.03488372093023884,
          "durationTicks": 3,
          "midi": 59,
          "name": "B3",
          "ticks": 6801,
          "time": 79.0813953488372,
          "velocity": 0.09448818897637795
        },
        {
          "duration": 0.03488372093023884,
          "durationTicks": 3,
          "midi": 60,
          "name": "C4",
          "ticks": 6805,
          "time": 79.12790697674419,
          "velocity": 0.1732283464566929
        },
        {
          "duration": 0.05813953488372192,
          "durationTicks": 5,
          "midi": 59,
          "name": "B3",
          "ticks": 6810,
          "time": 79.18604651162791,
          "velocity": 0.10236220472440945
        },
        {
          "duration": 1.0116279069767415,
          "durationTicks": 87,
          "midi": 66,
          "name": "F#4",
          "ticks": 6813,
          "time": 79.22093023255815,
          "velocity": 0.2992125984251969
        },
        {
          "duration": 0.023255813953483084,
          "durationTicks": 2,
          "midi": 41,
          "name": "F2",
          "ticks": 6814,
          "time": 79.23255813953489,
          "velocity": 0.33858267716535434
        },
        {
          "duration": 0.66279069767441,
          "durationTicks": 57,
          "midi": 70,
          "name": "A#4",
          "ticks": 6814,
          "time": 79.23255813953489,
          "velocity": 0.28346456692913385
        },
        {
          "duration": 0.034883720930224626,
          "durationTicks": 3,
          "midi": 58,
          "name": "A#3",
          "ticks": 6815,
          "time": 79.24418604651163,
          "velocity": 0.2204724409448819
        },
        {
          "duration": 1.1860465116279073,
          "durationTicks": 102,
          "midi": 42,
          "name": "F#2",
          "ticks": 6816,
          "time": 79.25581395348837,
          "velocity": 0.3543307086614173
        },
        {
          "duration": 0.03488372093023884,
          "durationTicks": 3,
          "midi": 61,
          "name": "C#4",
          "ticks": 6817,
          "time": 79.26744186046511,
          "velocity": 0.14173228346456693
        },
        {
          "duration": 0.19767441860464885,
          "durationTicks": 17,
          "midi": 58,
          "name": "A#3",
          "ticks": 6820,
          "time": 79.30232558139535,
          "velocity": 0.2283464566929134
        },
        {
          "duration": 0.03488372093023884,
          "durationTicks": 3,
          "midi": 61,
          "name": "C#4",
          "ticks": 6823,
          "time": 79.33720930232558,
          "velocity": 0.15748031496062992
        },
        {
          "duration": 0.11627906976742963,
          "durationTicks": 10,
          "midi": 61,
          "name": "C#4",
          "ticks": 6829,
          "time": 79.40697674418605,
          "velocity": 0.16535433070866143
        },
        {
          "duration": 0.04651162790698038,
          "durationTicks": 4,
          "midi": 58,
          "name": "A#3",
          "ticks": 6838,
          "time": 79.51162790697674,
          "velocity": 0.2047244094488189
        },
        {
          "duration": 0.45348837209303383,
          "durationTicks": 39,
          "midi": 58,
          "name": "A#3",
          "ticks": 6844,
          "time": 79.5813953488372,
          "velocity": 0.25196850393700787
        },
        {
          "duration": 0.5581395348837219,
          "durationTicks": 48,
          "midi": 61,
          "name": "C#4",
          "ticks": 6879,
          "time": 79.98837209302326,
          "velocity": 0.16535433070866143
        },
        {
          "duration": 0.034883720930224626,
          "durationTicks": 3,
          "midi": 55,
          "name": "G3",
          "ticks": 6900,
          "time": 80.23255813953489,
          "velocity": 0.23622047244094488
        },
        {
          "duration": 0.17441860465116577,
          "durationTicks": 15,
          "midi": 66,
          "name": "F#4",
          "ticks": 6903,
          "time": 80.26744186046511,
          "velocity": 0.2677165354330709
        },
        {
          "duration": 0.06976744186046346,
          "durationTicks": 6,
          "midi": 53,
          "name": "F3",
          "ticks": 6914,
          "time": 80.3953488372093,
          "velocity": 0.18110236220472442
        },
        {
          "duration": 0.04651162790698038,
          "durationTicks": 4,
          "midi": 40,
          "name": "E2",
          "ticks": 6919,
          "time": 80.45348837209302,
          "velocity": 0.14960629921259844
        },
        {
          "duration": 0.2906976744186096,
          "durationTicks": 25,
          "midi": 66,
          "name": "F#4",
          "ticks": 6920,
          "time": 80.46511627906976,
          "velocity": 0.25196850393700787
        },
        {
          "duration": 0.05813953488372192,
          "durationTicks": 5,
          "midi": 61,
          "name": "C#4",
          "ticks": 6930,
          "time": 80.5813953488372,
          "velocity": 0.2283464566929134
        },
        {
          "duration": 0.03488372093023884,
          "durationTicks": 3,
          "midi": 50,
          "name": "D3",
          "ticks": 6931,
          "time": 80.59302325581395,
          "velocity": 0.30708661417322836
        },
        {
          "duration": 0.3953488372092977,
          "durationTicks": 34,
          "midi": 51,
          "name": "D#3",
          "ticks": 6934,
          "time": 80.62790697674419,
          "velocity": 0.30708661417322836
        },
        {
          "duration": 0.22093023255814614,
          "durationTicks": 19,
          "midi": 70,
          "name": "A#4",
          "ticks": 6934,
          "time": 80.62790697674419,
          "velocity": 0.07086614173228346
        },
        {
          "duration": 0.48837209302325846,
          "durationTicks": 42,
          "midi": 39,
          "name": "D#2",
          "ticks": 6938,
          "time": 80.67441860465117,
          "velocity": 0.33070866141732286
        },
        {
          "duration": 0.15116279069768268,
          "durationTicks": 13,
          "midi": 66,
          "name": "F#4",
          "ticks": 6947,
          "time": 80.77906976744185,
          "velocity": 0.12598425196850394
        },
        {
          "duration": 0.04651162790698038,
          "durationTicks": 4,
          "midi": 61,
          "name": "C#4",
          "ticks": 6951,
          "time": 80.82558139534883,
          "velocity": 0.2047244094488189
        },
        {
          "duration": 0.12790697674418539,
          "durationTicks": 11,
          "midi": 66,
          "name": "F#4",
          "ticks": 6964,
          "time": 80.97674418604652,
          "velocity": 0.1732283464566929
        },
        {
          "duration": 0.04651162790698038,
          "durationTicks": 4,
          "midi": 63,
          "name": "D#4",
          "ticks": 6971,
          "time": 81.05813953488372,
          "velocity": 0.12598425196850394
        },
        {
          "duration": 0.11627906976744384,
          "durationTicks": 10,
          "midi": 61,
          "name": "C#4",
          "ticks": 6974,
          "time": 81.09302325581395,
          "velocity": 0.1968503937007874
        },
        {
          "duration": 0.06976744186046346,
          "durationTicks": 6,
          "midi": 38,
          "name": "D2",
          "ticks": 6980,
          "time": 81.16279069767442,
          "velocity": 0.2755905511811024
        },
        {
          "duration": 0.09302325581394655,
          "durationTicks": 8,
          "midi": 51,
          "name": "D#3",
          "ticks": 6980,
          "time": 81.16279069767442,
          "velocity": 0.18110236220472442
        },
        {
          "duration": 0.11627906976744384,
          "durationTicks": 10,
          "midi": 70,
          "name": "A#4",
          "ticks": 6982,
          "time": 81.18604651162791,
          "velocity": 0.07086614173228346
        },
        {
          "duration": 0.023255813953483084,
          "durationTicks": 2,
          "midi": 48,
          "name": "C3",
          "ticks": 6988,
          "time": 81.25581395348837,
          "velocity": 0.2755905511811024
        },
        {
          "duration": 0.03488372093023884,
          "durationTicks": 3,
          "midi": 61,
          "name": "C#4",
          "ticks": 6988,
          "time": 81.25581395348837,
          "velocity": 0.1889763779527559
        },
        {
          "duration": 0.6046511627907023,
          "durationTicks": 52,
          "midi": 37,
          "name": "C#2",
          "ticks": 6990,
          "time": 81.27906976744185,
          "velocity": 0.30708661417322836
        },
        {
          "duration": 0.06976744186047767,
          "durationTicks": 6,
          "midi": 63,
          "name": "D#4",
          "ticks": 6990,
          "time": 81.27906976744185,
          "velocity": 0.2992125984251969
        },
        {
          "duration": 0.023255813953483084,
          "durationTicks": 2,
          "midi": 50,
          "name": "D3",
          "ticks": 6992,
          "time": 81.30232558139535,
          "velocity": 0.2755905511811024
        },
        {
          "duration": 0.04651162790698038,
          "durationTicks": 4,
          "midi": 63,
          "name": "D#4",
          "ticks": 6997,
          "time": 81.36046511627907,
          "velocity": 0.25196850393700787
        },
        {
          "duration": 0.023255813953483084,
          "durationTicks": 2,
          "midi": 50,
          "name": "D3",
          "ticks": 7003,
          "time": 81.43023255813954,
          "velocity": 0.23622047244094488
        },
        {
          "duration": 0.034883720930224626,
          "durationTicks": 3,
          "midi": 63,
          "name": "D#4",
          "ticks": 7003,
          "time": 81.43023255813954,
          "velocity": 0.2125984251968504
        },
        {
          "duration": 0.3720930232558146,
          "durationTicks": 32,
          "midi": 63,
          "name": "D#4",
          "ticks": 7007,
          "time": 81.47674418604652,
          "velocity": 0.30708661417322836
        },
        {
          "duration": 0.15116279069768268,
          "durationTicks": 13,
          "midi": 73,
          "name": "C#5",
          "ticks": 7017,
          "time": 81.59302325581395,
          "velocity": 0.09448818897637795
        },
        {
          "duration": 0.03488372093023884,
          "durationTicks": 3,
          "midi": 50,
          "name": "D3",
          "ticks": 7026,
          "time": 81.69767441860465,
          "velocity": 0.07874015748031496
        },
        {
          "duration": 0.04651162790696617,
          "durationTicks": 4,
          "midi": 61,
          "name": "C#4",
          "ticks": 7039,
          "time": 81.84883720930233,
          "velocity": 0.07874015748031496
        },
        {
          "duration": 0.081395348837205,
          "durationTicks": 7,
          "midi": 57,
          "name": "A3",
          "ticks": 7045,
          "time": 81.9186046511628,
          "velocity": 0.3228346456692913
        },
        {
          "duration": 0.4418604651162781,
          "durationTicks": 38,
          "midi": 66,
          "name": "F#4",
          "ticks": 7045,
          "time": 81.9186046511628,
          "velocity": 0.2440944881889764
        },
        {
          "duration": 1.2093023255813904,
          "durationTicks": 104,
          "midi": 45,
          "name": "A2",
          "ticks": 7050,
          "time": 81.97674418604652,
          "velocity": 0.3228346456692913
        },
        {
          "duration": 0.30232558139533694,
          "durationTicks": 26,
          "midi": 52,
          "name": "E3",
          "ticks": 7050,
          "time": 81.97674418604652,
          "velocity": 0.11811023622047244
        },
        {
          "duration": 0.48837209302325846,
          "durationTicks": 42,
          "midi": 61,
          "name": "C#4",
          "ticks": 7058,
          "time": 82.06976744186046,
          "velocity": 0.2047244094488189
        },
        {
          "duration": 0.023255813953483084,
          "durationTicks": 2,
          "midi": 55,
          "name": "G3",
          "ticks": 7077,
          "time": 82.29069767441861,
          "velocity": 0.2283464566929134
        },
        {
          "duration": 0.03488372093023884,
          "durationTicks": 3,
          "midi": 53,
          "name": "F3",
          "ticks": 7079,
          "time": 82.31395348837209,
          "velocity": 0.2440944881889764
        },
        {
          "duration": 0.023255813953483084,
          "durationTicks": 2,
          "midi": 53,
          "name": "F3",
          "ticks": 7084,
          "time": 82.37209302325581,
          "velocity": 0.23622047244094488
        },
        {
          "duration": 0.05813953488372192,
          "durationTicks": 5,
          "midi": 66,
          "name": "F#4",
          "ticks": 7085,
          "time": 82.38372093023256,
          "velocity": 0.1889763779527559
        },
        {
          "duration": 0.034883720930224626,
          "durationTicks": 3,
          "midi": 53,
          "name": "F3",
          "ticks": 7088,
          "time": 82.4186046511628,
          "velocity": 0.2283464566929134
        },
        {
          "duration": 0.40697674418605345,
          "durationTicks": 35,
          "midi": 66,
          "name": "F#4",
          "ticks": 7092,
          "time": 82.46511627906976,
          "velocity": 0.2125984251968504
        },
        {
          "duration": 0.05813953488370771,
          "durationTicks": 5,
          "midi": 52,
          "name": "E3",
          "ticks": 7098,
          "time": 82.53488372093024,
          "velocity": 0.09448818897637795
        },
        {
          "duration": 0.25581395348837077,
          "durationTicks": 22,
          "midi": 61,
          "name": "C#4",
          "ticks": 7102,
          "time": 82.5813953488372,
          "velocity": 0.2283464566929134
        },
        {
          "duration": 0.15116279069768268,
          "durationTicks": 13,
          "midi": 70,
          "name": "A#4",
          "ticks": 7103,
          "time": 82.59302325581395,
          "velocity": 0.1889763779527559
        },
        {
          "duration": 0.2093023255813904,
          "durationTicks": 18,
          "midi": 52,
          "name": "E3",
          "ticks": 7106,
          "time": 82.62790697674419,
          "velocity": 0.07086614173228346
        },
        {
          "duration": 0.13953488372092693,
          "durationTicks": 12,
          "midi": 61,
          "name": "C#4",
          "ticks": 7128,
          "time": 82.88372093023256,
          "velocity": 0.16535433070866143
        },
        {
          "duration": 0.10465116279068809,
          "durationTicks": 9,
          "midi": 70,
          "name": "A#4",
          "ticks": 7136,
          "time": 82.97674418604652,
          "velocity": 0.11811023622047244
        },
        {
          "duration": 0.034883720930224626,
          "durationTicks": 3,
          "midi": 89,
          "name": "F6",
          "ticks": 7136,
          "time": 82.97674418604652,
          "velocity": 0.08661417322834646
        },
        {
          "duration": 0.03488372093023884,
          "durationTicks": 3,
          "midi": 63,
          "name": "D#4",
          "ticks": 7139,
          "time": 83.01162790697674,
          "velocity": 0.16535433070866143
        },
        {
          "duration": 0.13953488372092693,
          "durationTicks": 12,
          "midi": 58,
          "name": "A#3",
          "ticks": 7142,
          "time": 83.04651162790698,
          "velocity": 0.1732283464566929
        },
        {
          "duration": 0.16279069767442422,
          "durationTicks": 14,
          "midi": 66,
          "name": "F#4",
          "ticks": 7146,
          "time": 83.09302325581395,
          "velocity": 0.14960629921259844
        },
        {
          "duration": 0.034883720930224626,
          "durationTicks": 3,
          "midi": 70,
          "name": "A#4",
          "ticks": 7158,
          "time": 83.23255813953489,
          "velocity": 0.08661417322834646
        },
        {
          "duration": 0.11627906976744384,
          "durationTicks": 10,
          "midi": 66,
          "name": "F#4",
          "ticks": 7163,
          "time": 83.29069767441861,
          "velocity": 0.2755905511811024
        },
        {
          "duration": 0.023255813953483084,
          "durationTicks": 2,
          "midi": 41,
          "name": "F2",
          "ticks": 7165,
          "time": 83.31395348837209,
          "velocity": 0.3228346456692913
        },
        {
          "duration": 0.023255813953483084,
          "durationTicks": 2,
          "midi": 54,
          "name": "F#3",
          "ticks": 7165,
          "time": 83.31395348837209,
          "velocity": 0.2755905511811024
        },
        {
          "duration": 1.0930232558139608,
          "durationTicks": 94,
          "midi": 44,
          "name": "G#2",
          "ticks": 7167,
          "time": 83.33720930232558,
          "velocity": 0.3700787401574803
        },
        {
          "duration": 0.03488372093023884,
          "durationTicks": 3,
          "midi": 67,
          "name": "G4",
          "ticks": 7171,
          "time": 83.38372093023256,
          "velocity": 0.2125984251968504
        },
        {
          "duration": 0.04651162790696617,
          "durationTicks": 4,
          "midi": 66,
          "name": "F#4",
          "ticks": 7174,
          "time": 83.4186046511628,
          "velocity": 0.2283464566929134
        },
        {
          "duration": 0.04651162790698038,
          "durationTicks": 4,
          "midi": 68,
          "name": "G#4",
          "ticks": 7178,
          "time": 83.46511627906976,
          "velocity": 0.23622047244094488
        },
        {
          "duration": 0.17441860465116577,
          "durationTicks": 15,
          "midi": 68,
          "name": "G#4",
          "ticks": 7183,
          "time": 83.52325581395348,
          "velocity": 0.2125984251968504
        },
        {
          "duration": 0.12790697674418539,
          "durationTicks": 11,
          "midi": 59,
          "name": "B3",
          "ticks": 7184,
          "time": 83.53488372093024,
          "velocity": 0.13385826771653545
        },
        {
          "duration": 0.04651162790698038,
          "durationTicks": 4,
          "midi": 32,
          "name": "G#1",
          "ticks": 7193,
          "time": 83.63953488372093,
          "velocity": 0.07874015748031496
        },
        {
          "duration": 0.04651162790698038,
          "durationTicks": 4,
          "midi": 32,
          "name": "G#1",
          "ticks": 7198,
          "time": 83.69767441860465,
          "velocity": 0.07874015748031496
        },
        {
          "duration": 0.03488372093023884,
          "durationTicks": 3,
          "midi": 63,
          "name": "D#4",
          "ticks": 7199,
          "time": 83.70930232558139,
          "velocity": 0.07086614173228346
        },
        {
          "duration": 0.04651162790698038,
          "durationTicks": 4,
          "midi": 66,
          "name": "F#4",
          "ticks": 7199,
          "time": 83.70930232558139,
          "velocity": 0.11811023622047244
        },
        {
          "duration": 0.7790697674418539,
          "durationTicks": 67,
          "midi": 68,
          "name": "G#4",
          "ticks": 7201,
          "time": 83.73255813953489,
          "velocity": 0.25196850393700787
        },
        {
          "duration": 0.04651162790698038,
          "durationTicks": 4,
          "midi": 32,
          "name": "G#1",
          "ticks": 7203,
          "time": 83.75581395348837,
          "velocity": 0.10236220472440945
        },
        {
          "duration": 0.04651162790696617,
          "durationTicks": 4,
          "midi": 32,
          "name": "G#1",
          "ticks": 7216,
          "time": 83.90697674418605,
          "velocity": 0.10236220472440945
        },
        {
          "duration": 0.034883720930224626,
          "durationTicks": 3,
          "midi": 59,
          "name": "B3",
          "ticks": 7216,
          "time": 83.90697674418605,
          "velocity": 0.11023622047244094
        },
        {
          "duration": 0.34883720930233153,
          "durationTicks": 30,
          "midi": 59,
          "name": "B3",
          "ticks": 7225,
          "time": 84.01162790697674,
          "velocity": 0.1889763779527559
        },
        {
          "duration": 0.04651162790698038,
          "durationTicks": 4,
          "midi": 32,
          "name": "G#1",
          "ticks": 7226,
          "time": 84.02325581395348,
          "velocity": 0.10236220472440945
        },
        {
          "duration": 0.11627906976744384,
          "durationTicks": 10,
          "midi": 54,
          "name": "F#3",
          "ticks": 7226,
          "time": 84.02325581395348,
          "velocity": 0.1968503937007874
        },
        {
          "duration": 0.04651162790698038,
          "durationTicks": 4,
          "midi": 32,
          "name": "G#1",
          "ticks": 7234,
          "time": 84.11627906976744,
          "velocity": 0.08661417322834646
        },
        {
          "duration": 0.1860465116279073,
          "durationTicks": 16,
          "midi": 70,
          "name": "A#4",
          "ticks": 7255,
          "time": 84.36046511627907,
          "velocity": 0.1889763779527559
        },
        {
          "duration": 0.03488372093023884,
          "durationTicks": 3,
          "midi": 55,
          "name": "G3",
          "ticks": 7256,
          "time": 84.37209302325581,
          "velocity": 0.12598425196850394
        },
        {
          "duration": 0.04651162790696617,
          "durationTicks": 4,
          "midi": 59,
          "name": "B3",
          "ticks": 7259,
          "time": 84.40697674418605,
          "velocity": 0.2283464566929134
        },
        {
          "duration": 0.034883720930224626,
          "durationTicks": 3,
          "midi": 43,
          "name": "G2",
          "ticks": 7261,
          "time": 84.43023255813954,
          "velocity": 0.1889763779527559
        },
        {
          "duration": 0.03488372093023884,
          "durationTicks": 3,
          "midi": 59,
          "name": "B3",
          "ticks": 7264,
          "time": 84.46511627906976,
          "velocity": 0.2047244094488189
        },
        {
          "duration": 0.04651162790698038,
          "durationTicks": 4,
          "midi": 59,
          "name": "B3",
          "ticks": 7268,
          "time": 84.51162790697674,
          "velocity": 0.12598425196850394
        },
        {
          "duration": 0.12790697674418539,
          "durationTicks": 11,
          "midi": 68,
          "name": "G#4",
          "ticks": 7271,
          "time": 84.54651162790698,
          "velocity": 0.2125984251968504
        },
        {
          "duration": 0.03488372093023884,
          "durationTicks": 3,
          "midi": 55,
          "name": "G3",
          "ticks": 7283,
          "time": 84.68604651162791,
          "velocity": 0.2283464566929134
        },
        {
          "duration": 0.40697674418603924,
          "durationTicks": 35,
          "midi": 66,
          "name": "F#4",
          "ticks": 7283,
          "time": 84.68604651162791,
          "velocity": 0.33070866141732286
        },
        {
          "duration": 0.023255813953497295,
          "durationTicks": 2,
          "midi": 41,
          "name": "F2",
          "ticks": 7284,
          "time": 84.69767441860465,
          "velocity": 0.3779527559055118
        },
        {
          "duration": 1.3255813953488342,
          "durationTicks": 114,
          "midi": 42,
          "name": "F#2",
          "ticks": 7286,
          "time": 84.72093023255815,
          "velocity": 0.3779527559055118
        },
        {
          "duration": 0.6279069767441854,
          "durationTicks": 54,
          "midi": 58,
          "name": "A#3",
          "ticks": 7314,
          "time": 85.04651162790698,
          "velocity": 0.2283464566929134
        },
        {
          "duration": 0.15116279069766847,
          "durationTicks": 13,
          "midi": 73,
          "name": "C#5",
          "ticks": 7315,
          "time": 85.05813953488372,
          "velocity": 0.08661417322834646
        },
        {
          "duration": 0.48837209302325846,
          "durationTicks": 42,
          "midi": 66,
          "name": "F#4",
          "ticks": 7328,
          "time": 85.20930232558139,
          "velocity": 0.25196850393700787
        },
        {
          "duration": 0.33720930232559,
          "durationTicks": 29,
          "midi": 58,
          "name": "A#3",
          "ticks": 7370,
          "time": 85.69767441860465,
          "velocity": 0.16535433070866143
        },
        {
          "duration": 0.034883720930224626,
          "durationTicks": 3,
          "midi": 43,
          "name": "G2",
          "ticks": 7400,
          "time": 86.04651162790698,
          "velocity": 0.2755905511811024
        },
        {
          "duration": 0.6976744186046488,
          "durationTicks": 60,
          "midi": 58,
          "name": "A#3",
          "ticks": 7400,
          "time": 86.04651162790698,
          "velocity": 0.2283464566929134
        },
        {
          "duration": 0.48837209302325846,
          "durationTicks": 42,
          "midi": 66,
          "name": "F#4",
          "ticks": 7403,
          "time": 86.0813953488372,
          "velocity": 0.15748031496062992
        },
        {
          "duration": 0.023255813953483084,
          "durationTicks": 2,
          "midi": 43,
          "name": "G2",
          "ticks": 7407,
          "time": 86.12790697674419,
          "velocity": 0.2283464566929134
        },
        {
          "duration": 0.9651162790697754,
          "durationTicks": 83,
          "midi": 42,
          "name": "F#2",
          "ticks": 7409,
          "time": 86.15116279069767,
          "velocity": 0.2125984251968504
        },
        {
          "duration": 0.11627906976744384,
          "durationTicks": 10,
          "midi": 66,
          "name": "F#4",
          "ticks": 7470,
          "time": 86.86046511627907,
          "velocity": 0.10236220472440945
        },
        {
          "duration": 0.12790697674418539,
          "durationTicks": 11,
          "midi": 68,
          "name": "G#4",
          "ticks": 7489,
          "time": 87.0813953488372,
          "velocity": 0.11023622047244094
        },
        {
          "duration": 0.04651162790698038,
          "durationTicks": 4,
          "midi": 41,
          "name": "F2",
          "ticks": 7492,
          "time": 87.11627906976744,
          "velocity": 0.09448818897637795
        },
        {
          "duration": 0.12790697674418539,
          "durationTicks": 11,
          "midi": 57,
          "name": "A3",
          "ticks": 7517,
          "time": 87.40697674418605,
          "velocity": 0.2992125984251969
        },
        {
          "duration": 0.03488372093023884,
          "durationTicks": 3,
          "midi": 57,
          "name": "A3",
          "ticks": 7537,
          "time": 87.63953488372093,
          "velocity": 0.09448818897637795
        },
        {
          "duration": 0.5,
          "durationTicks": 43,
          "midi": 61,
          "name": "C#4",
          "ticks": 7552,
          "time": 87.81395348837209,
          "velocity": 0.11811023622047244
        },
        {
          "duration": 0.32558139534883423,
          "durationTicks": 28,
          "midi": 64,
          "name": "E4",
          "ticks": 7552,
          "time": 87.81395348837209,
          "velocity": 0.11811023622047244
        },
        {
          "duration": 0.16279069767442422,
          "durationTicks": 14,
          "midi": 64,
          "name": "E4",
          "ticks": 7591,
          "time": 88.26744186046511,
          "velocity": 0.09448818897637795
        },
        {
          "duration": 0.1860465116279073,
          "durationTicks": 16,
          "midi": 68,
          "name": "G#4",
          "ticks": 7608,
          "time": 88.46511627906976,
          "velocity": 0.14173228346456693
        },
        {
          "duration": 0.03488372093023884,
          "durationTicks": 3,
          "midi": 55,
          "name": "G3",
          "ticks": 7635,
          "time": 88.77906976744185,
          "velocity": 0.2283464566929134
        },
        {
          "duration": 0.22093023255813193,
          "durationTicks": 19,
          "midi": 90,
          "name": "F#6",
          "ticks": 7637,
          "time": 88.80232558139535,
          "velocity": 0.1889763779527559
        },
        {
          "duration": 0.13953488372092693,
          "durationTicks": 12,
          "midi": 56,
          "name": "G#3",
          "ticks": 7638,
          "time": 88.81395348837209,
          "velocity": 0.2204724409448819
        },
        {
          "duration": 0.04651162790698038,
          "durationTicks": 4,
          "midi": 83,
          "name": "B5",
          "ticks": 7638,
          "time": 88.81395348837209,
          "velocity": 0.08661417322834646
        },
        {
          "duration": 0.12790697674418539,
          "durationTicks": 11,
          "midi": 63,
          "name": "D#4",
          "ticks": 7665,
          "time": 89.12790697674419,
          "velocity": 0.13385826771653545
        },
        {
          "duration": 0.4767441860465169,
          "durationTicks": 41,
          "midi": 59,
          "name": "B3",
          "ticks": 7667,
          "time": 89.15116279069767,
          "velocity": 0.14960629921259844
        },
        {
          "duration": 0.22093023255814614,
          "durationTicks": 19,
          "midi": 63,
          "name": "D#4",
          "ticks": 7694,
          "time": 89.46511627906976,
          "velocity": 0.09448818897637795
        },
        {
          "duration": 0.7674418604651123,
          "durationTicks": 66,
          "midi": 70,
          "name": "A#4",
          "ticks": 7754,
          "time": 90.16279069767442,
          "velocity": 0.25196850393700787
        },
        {
          "duration": 0.023255813953483084,
          "durationTicks": 2,
          "midi": 55,
          "name": "G3",
          "ticks": 7755,
          "time": 90.17441860465117,
          "velocity": 0.2440944881889764
        },
        {
          "duration": 0.2906976744186096,
          "durationTicks": 25,
          "midi": 54,
          "name": "F#3",
          "ticks": 7757,
          "time": 90.19767441860465,
          "velocity": 0.14173228346456693
        },
        {
          "duration": 0.27906976744186807,
          "durationTicks": 24,
          "midi": 73,
          "name": "C#5",
          "ticks": 7784,
          "time": 90.51162790697674,
          "velocity": 0.09448818897637795
        },
        {
          "duration": 0.3139534883720927,
          "durationTicks": 27,
          "midi": 58,
          "name": "A#3",
          "ticks": 7785,
          "time": 90.52325581395348,
          "velocity": 0.1968503937007874
        },
        {
          "duration": 0.034883720930224626,
          "durationTicks": 3,
          "midi": 61,
          "name": "C#4",
          "ticks": 7788,
          "time": 90.55813953488372,
          "velocity": 0.10236220472440945
        },
        {
          "duration": 0.03488372093023884,
          "durationTicks": 3,
          "midi": 61,
          "name": "C#4",
          "ticks": 7795,
          "time": 90.63953488372093,
          "velocity": 0.07086614173228346
        },
        {
          "duration": 0.27906976744185386,
          "durationTicks": 24,
          "midi": 61,
          "name": "C#4",
          "ticks": 7808,
          "time": 90.79069767441861,
          "velocity": 0.10236220472440945
        },
        {
          "duration": 0.30232558139533694,
          "durationTicks": 26,
          "midi": 66,
          "name": "F#4",
          "ticks": 7840,
          "time": 91.16279069767442,
          "velocity": 0.2283464566929134
        },
        {
          "duration": 0.16279069767441,
          "durationTicks": 14,
          "midi": 58,
          "name": "A#3",
          "ticks": 7841,
          "time": 91.17441860465117,
          "velocity": 0.2204724409448819
        },
        {
          "duration": 0.13953488372092693,
          "durationTicks": 12,
          "midi": 61,
          "name": "C#4",
          "ticks": 7848,
          "time": 91.25581395348837,
          "velocity": 0.14960629921259844
        },
        {
          "duration": 0.04651162790698038,
          "durationTicks": 4,
          "midi": 55,
          "name": "G3",
          "ticks": 7858,
          "time": 91.37209302325581,
          "velocity": 0.1889763779527559
        },
        {
          "duration": 0.3720930232558146,
          "durationTicks": 32,
          "midi": 63,
          "name": "D#4",
          "ticks": 7872,
          "time": 91.53488372093024,
          "velocity": 0.29133858267716534
        },
        {
          "duration": 0.3604651162790731,
          "durationTicks": 31,
          "midi": 56,
          "name": "G#3",
          "ticks": 7875,
          "time": 91.56976744186046,
          "velocity": 0.28346456692913385
        },
        {
          "duration": 0.27906976744186807,
          "durationTicks": 24,
          "midi": 63,
          "name": "D#4",
          "ticks": 7930,
          "time": 92.20930232558139,
          "velocity": 0.2755905511811024
        },
        {
          "duration": 0.4534883720930196,
          "durationTicks": 39,
          "midi": 66,
          "name": "F#4",
          "ticks": 7958,
          "time": 92.53488372093024,
          "velocity": 0.23622047244094488
        },
        {
          "duration": 0.03488372093023884,
          "durationTicks": 3,
          "midi": 56,
          "name": "G#3",
          "ticks": 7984,
          "time": 92.83720930232558,
          "velocity": 0.2283464566929134
        },
        {
          "duration": 0.034883720930224626,
          "durationTicks": 3,
          "midi": 44,
          "name": "G#2",
          "ticks": 7986,
          "time": 92.86046511627907,
          "velocity": 0.14960629921259844
        },
        {
          "duration": 0.1860465116279073,
          "durationTicks": 16,
          "midi": 57,
          "name": "A3",
          "ticks": 7987,
          "time": 92.87209302325581,
          "velocity": 0.2047244094488189
        },
        {
          "duration": 0.05813953488372192,
          "durationTicks": 5,
          "midi": 45,
          "name": "A2",
          "ticks": 7989,
          "time": 92.8953488372093,
          "velocity": 0.12598425196850394
        },
        {
          "duration": 0.03488372093023884,
          "durationTicks": 3,
          "midi": 45,
          "name": "A2",
          "ticks": 8004,
          "time": 93.06976744186046,
          "velocity": 0.07874015748031496
        },
        {
          "duration": 0.06976744186046346,
          "durationTicks": 6,
          "midi": 57,
          "name": "A3",
          "ticks": 8005,
          "time": 93.0813953488372,
          "velocity": 0.11023622047244094
        },
        {
          "duration": 0.06976744186046346,
          "durationTicks": 6,
          "midi": 45,
          "name": "A2",
          "ticks": 8008,
          "time": 93.11627906976744,
          "velocity": 0.10236220472440945
        },
        {
          "duration": 0.06976744186046346,
          "durationTicks": 6,
          "midi": 57,
          "name": "A3",
          "ticks": 8012,
          "time": 93.16279069767442,
          "velocity": 0.2047244094488189
        },
        {
          "duration": 0.30232558139535115,
          "durationTicks": 26,
          "midi": 61,
          "name": "C#4",
          "ticks": 8015,
          "time": 93.19767441860465,
          "velocity": 0.14173228346456693
        },
        {
          "duration": 0.11627906976744384,
          "durationTicks": 10,
          "midi": 64,
          "name": "E4",
          "ticks": 8016,
          "time": 93.20930232558139,
          "velocity": 0.11811023622047244
        },
        {
          "duration": 0.5465116279069804,
          "durationTicks": 47,
          "midi": 45,
          "name": "A2",
          "ticks": 8019,
          "time": 93.24418604651163,
          "velocity": 0.14173228346456693
        },
        {
          "duration": 0.05813953488372192,
          "durationTicks": 5,
          "midi": 57,
          "name": "A3",
          "ticks": 8019,
          "time": 93.24418604651163,
          "velocity": 0.1968503937007874
        },
        {
          "duration": 0.11627906976744384,
          "durationTicks": 10,
          "midi": 64,
          "name": "E4",
          "ticks": 8041,
          "time": 93.5,
          "velocity": 0.07086614173228346
        },
        {
          "duration": 0.1046511627907023,
          "durationTicks": 9,
          "midi": 61,
          "name": "C#4",
          "ticks": 8058,
          "time": 93.69767441860465,
          "velocity": 0.10236220472440945
        },
        {
          "duration": 0.04651162790698038,
          "durationTicks": 4,
          "midi": 45,
          "name": "A2",
          "ticks": 8067,
          "time": 93.80232558139535,
          "velocity": 0.07874015748031496
        },
        {
          "duration": 0.3488372093023173,
          "durationTicks": 30,
          "midi": 56,
          "name": "G#3",
          "ticks": 8104,
          "time": 94.23255813953489,
          "velocity": 0.29133858267716534
        },
        {
          "duration": 0.1860465116279073,
          "durationTicks": 16,
          "midi": 90,
          "name": "F#6",
          "ticks": 8106,
          "time": 94.25581395348837,
          "velocity": 0.16535433070866143
        },
        {
          "duration": 0.2674418604651123,
          "durationTicks": 23,
          "midi": 63,
          "name": "D#4",
          "ticks": 8133,
          "time": 94.56976744186046,
          "velocity": 0.14173228346456693
        },
        {
          "duration": 0.5348837209302388,
          "durationTicks": 46,
          "midi": 59,
          "name": "B3",
          "ticks": 8135,
          "time": 94.59302325581395,
          "velocity": 0.16535433070866143
        },
        {
          "duration": 0.04651162790696617,
          "durationTicks": 4,
          "midi": 44,
          "name": "G#2",
          "ticks": 8136,
          "time": 94.6046511627907,
          "velocity": 0.10236220472440945
        },
        {
          "duration": 0.19767441860464885,
          "durationTicks": 17,
          "midi": 68,
          "name": "G#4",
          "ticks": 8164,
          "time": 94.93023255813954,
          "velocity": 0.10236220472440945
        },
        {
          "duration": 0.04651162790696617,
          "durationTicks": 4,
          "midi": 54,
          "name": "F#3",
          "ticks": 8222,
          "time": 95.6046511627907,
          "velocity": 0.1968503937007874
        },
        {
          "duration": 0.3720930232558146,
          "durationTicks": 32,
          "midi": 70,
          "name": "A#4",
          "ticks": 8225,
          "time": 95.63953488372093,
          "velocity": 0.25984251968503935
        },
        {
          "duration": 0.22093023255813193,
          "durationTicks": 19,
          "midi": 54,
          "name": "F#3",
          "ticks": 8227,
          "time": 95.66279069767442,
          "velocity": 0.15748031496062992
        },
        {
          "duration": 0.034883720930224626,
          "durationTicks": 3,
          "midi": 44,
          "name": "G#2",
          "ticks": 8254,
          "time": 95.97674418604652,
          "velocity": 0.10236220472440945
        },
        {
          "duration": 0.2674418604651123,
          "durationTicks": 23,
          "midi": 58,
          "name": "A#3",
          "ticks": 8254,
          "time": 95.97674418604652,
          "velocity": 0.14960629921259844
        },
        {
          "duration": 0.38372093023255616,
          "durationTicks": 33,
          "midi": 70,
          "name": "A#4",
          "ticks": 8275,
          "time": 96.22093023255815,
          "velocity": 0.15748031496062992
        },
        {
          "duration": 0.24418604651162923,
          "durationTicks": 21,
          "midi": 58,
          "name": "A#3",
          "ticks": 8287,
          "time": 96.36046511627907,
          "velocity": 0.10236220472440945
        },
        {
          "duration": 0.3139534883720927,
          "durationTicks": 27,
          "midi": 70,
          "name": "A#4",
          "ticks": 8309,
          "time": 96.61627906976744,
          "velocity": 0.25984251968503935
        },
        {
          "duration": 0.3720930232558146,
          "durationTicks": 32,
          "midi": 78,
          "name": "F#5",
          "ticks": 8340,
          "time": 96.97674418604652,
          "velocity": 0.25196850393700787
        },
        {
          "duration": 0.25581395348837077,
          "durationTicks": 22,
          "midi": 56,
          "name": "G#3",
          "ticks": 8342,
          "time": 97,
          "velocity": 0.29133858267716534
        },
        {
          "duration": 0.081395348837205,
          "durationTicks": 7,
          "midi": 61,
          "name": "C#4",
          "ticks": 8353,
          "time": 97.12790697674419,
          "velocity": 0.07086614173228346
        },
        {
          "duration": 0.2093023255813904,
          "durationTicks": 18,
          "midi": 54,
          "name": "F#3",
          "ticks": 8373,
          "time": 97.36046511627907,
          "velocity": 0.2204724409448819
        },
        {
          "duration": 0.30232558139533694,
          "durationTicks": 26,
          "midi": 56,
          "name": "G#3",
          "ticks": 8399,
          "time": 97.66279069767442,
          "velocity": 0.28346456692913385
        },
        {
          "duration": 0.17441860465116577,
          "durationTicks": 15,
          "midi": 61,
          "name": "C#4",
          "ticks": 8428,
          "time": 98,
          "velocity": 0.09448818897637795
        },
        {
          "duration": 0.05813953488372192,
          "durationTicks": 5,
          "midi": 45,
          "name": "A2",
          "ticks": 8456,
          "time": 98.32558139534883,
          "velocity": 0.10236220472440945
        },
        {
          "duration": 0.06976744186047767,
          "durationTicks": 6,
          "midi": 64,
          "name": "E4",
          "ticks": 8457,
          "time": 98.33720930232558,
          "velocity": 0.1889763779527559
        },
        {
          "duration": 0.023255813953483084,
          "durationTicks": 2,
          "midi": 65,
          "name": "F4",
          "ticks": 8463,
          "time": 98.40697674418605,
          "velocity": 0.2283464566929134
        },
        {
          "duration": 0.32558139534883423,
          "durationTicks": 28,
          "midi": 66,
          "name": "F#4",
          "ticks": 8465,
          "time": 98.43023255813954,
          "velocity": 0.29133858267716534
        },
        {
          "duration": 0.034883720930224626,
          "durationTicks": 3,
          "midi": 57,
          "name": "A3",
          "ticks": 8474,
          "time": 98.53488372093024,
          "velocity": 0.07874015748031496
        },
        {
          "duration": 0.04651162790696617,
          "durationTicks": 4,
          "midi": 57,
          "name": "A3",
          "ticks": 8480,
          "time": 98.6046511627907,
          "velocity": 0.10236220472440945
        },
        {
          "duration": 0.581395348837205,
          "durationTicks": 50,
          "midi": 61,
          "name": "C#4",
          "ticks": 8488,
          "time": 98.69767441860465,
          "velocity": 0.16535433070866143
        },
        {
          "duration": 0.03488372093023884,
          "durationTicks": 3,
          "midi": 76,
          "name": "E5",
          "ticks": 8488,
          "time": 98.69767441860465,
          "velocity": 0.08661417322834646
        },
        {
          "duration": 0.081395348837205,
          "durationTicks": 7,
          "midi": 64,
          "name": "E4",
          "ticks": 8490,
          "time": 98.72093023255815,
          "velocity": 0.12598425196850394
        },
        {
          "duration": 0.05813953488372192,
          "durationTicks": 5,
          "midi": 57,
          "name": "A3",
          "ticks": 8492,
          "time": 98.74418604651163,
          "velocity": 0.11811023622047244
        },
        {
          "duration": 0.13953488372092693,
          "durationTicks": 12,
          "midi": 66,
          "name": "F#4",
          "ticks": 8496,
          "time": 98.79069767441861,
          "velocity": 0.25984251968503935
        },
        {
          "duration": 0.04651162790698038,
          "durationTicks": 4,
          "midi": 57,
          "name": "A3",
          "ticks": 8499,
          "time": 98.82558139534883,
          "velocity": 0.11811023622047244
        },
        {
          "duration": 0.05813953488372192,
          "durationTicks": 5,
          "midi": 57,
          "name": "A3",
          "ticks": 8505,
          "time": 98.8953488372093,
          "velocity": 0.13385826771653545
        },
        {
          "duration": 0.034883720930224626,
          "durationTicks": 3,
          "midi": 67,
          "name": "G4",
          "ticks": 8508,
          "time": 98.93023255813954,
          "velocity": 0.2047244094488189
        },
        {
          "duration": 0.6860465116279073,
          "durationTicks": 59,
          "midi": 66,
          "name": "F#4",
          "ticks": 8511,
          "time": 98.96511627906976,
          "velocity": 0.28346456692913385
        },
        {
          "duration": 0.034883720930224626,
          "durationTicks": 3,
          "midi": 57,
          "name": "A3",
          "ticks": 8512,
          "time": 98.97674418604652,
          "velocity": 0.11811023622047244
        },
        {
          "duration": 0.04651162790696617,
          "durationTicks": 4,
          "midi": 57,
          "name": "A3",
          "ticks": 8518,
          "time": 99.04651162790698,
          "velocity": 0.08661417322834646
        },
        {
          "duration": 0.03488372093023884,
          "durationTicks": 3,
          "midi": 57,
          "name": "A3",
          "ticks": 8525,
          "time": 99.12790697674419,
          "velocity": 0.09448818897637795
        },
        {
          "duration": 0.05813953488372192,
          "durationTicks": 5,
          "midi": 45,
          "name": "A2",
          "ticks": 8542,
          "time": 99.32558139534883,
          "velocity": 0.14173228346456693
        },
        {
          "duration": 0.24418604651162923,
          "durationTicks": 21,
          "midi": 73,
          "name": "C#5",
          "ticks": 8546,
          "time": 99.37209302325581,
          "velocity": 0.2283464566929134
        },
        {
          "duration": 0.03488372093023884,
          "durationTicks": 3,
          "midi": 44,
          "name": "G#2",
          "ticks": 8547,
          "time": 99.38372093023256,
          "velocity": 0.11023622047244094
        },
        {
          "duration": 0.15116279069766847,
          "durationTicks": 13,
          "midi": 61,
          "name": "C#4",
          "ticks": 8549,
          "time": 99.40697674418605,
          "velocity": 0.07874015748031496
        },
        {
          "duration": 0.09302325581394655,
          "durationTicks": 8,
          "midi": 66,
          "name": "F#4",
          "ticks": 8573,
          "time": 99.68604651162791,
          "velocity": 0.23622047244094488
        },
        {
          "duration": 0.11627906976744384,
          "durationTicks": 10,
          "midi": 90,
          "name": "F#6",
          "ticks": 8575,
          "time": 99.70930232558139,
          "velocity": 0.15748031496062992
        },
        {
          "duration": 0.034883720930224626,
          "durationTicks": 3,
          "midi": 63,
          "name": "D#4",
          "ticks": 8576,
          "time": 99.72093023255815,
          "velocity": 0.09448818897637795
        },
        {
          "duration": 0.1860465116279073,
          "durationTicks": 16,
          "midi": 56,
          "name": "G#3",
          "ticks": 8579,
          "time": 99.75581395348837,
          "velocity": 0.25196850393700787
        },
        {
          "duration": 0.2093023255814046,
          "durationTicks": 18,
          "midi": 63,
          "name": "D#4",
          "ticks": 8581,
          "time": 99.77906976744185,
          "velocity": 0.12598425196850394
        },
        {
          "duration": 0.03488372093023884,
          "durationTicks": 3,
          "midi": 67,
          "name": "G4",
          "ticks": 8581,
          "time": 99.77906976744185,
          "velocity": 0.2440944881889764
        },
        {
          "duration": 1.1162790697674438,
          "durationTicks": 96,
          "midi": 68,
          "name": "G#4",
          "ticks": 8584,
          "time": 99.81395348837209,
          "velocity": 0.25984251968503935
        },
        {
          "duration": 0.2093023255814046,
          "durationTicks": 18,
          "midi": 59,
          "name": "B3",
          "ticks": 8607,
          "time": 100.0813953488372,
          "velocity": 0.13385826771653545
        },
        {
          "duration": 0.03488372093023884,
          "durationTicks": 3,
          "midi": 44,
          "name": "G#2",
          "ticks": 8608,
          "time": 100.09302325581395,
          "velocity": 0.07874015748031496
        },
        {
          "duration": 0.034883720930224626,
          "durationTicks": 3,
          "midi": 55,
          "name": "G3",
          "ticks": 8663,
          "time": 100.73255813953489,
          "velocity": 0.11811023622047244
        },
        {
          "duration": 0.1860465116279073,
          "durationTicks": 16,
          "midi": 59,
          "name": "B3",
          "ticks": 8664,
          "time": 100.74418604651163,
          "velocity": 0.14173228346456693
        },
        {
          "duration": 0.25581395348837077,
          "durationTicks": 22,
          "midi": 73,
          "name": "C#5",
          "ticks": 8664,
          "time": 100.74418604651163,
          "velocity": 0.2283464566929134
        },
        {
          "duration": 0.16279069767442422,
          "durationTicks": 14,
          "midi": 63,
          "name": "D#4",
          "ticks": 8665,
          "time": 100.75581395348837,
          "velocity": 0.11811023622047244
        },
        {
          "duration": 1.2441860465116292,
          "durationTicks": 107,
          "midi": 66,
          "name": "F#4",
          "ticks": 8695,
          "time": 101.1046511627907,
          "velocity": 0.29133858267716534
        },
        {
          "duration": 0.3604651162790731,
          "durationTicks": 31,
          "midi": 70,
          "name": "A#4",
          "ticks": 8696,
          "time": 101.11627906976744,
          "velocity": 0.2755905511811024
        },
        {
          "duration": 0.11627906976744384,
          "durationTicks": 10,
          "midi": 54,
          "name": "F#3",
          "ticks": 8699,
          "time": 101.15116279069767,
          "velocity": 0.1732283464566929
        },
        {
          "duration": 0.03488372093023884,
          "durationTicks": 3,
          "midi": 54,
          "name": "F#3",
          "ticks": 8719,
          "time": 101.38372093023256,
          "velocity": 0.10236220472440945
        },
        {
          "duration": 0.25581395348837077,
          "durationTicks": 22,
          "midi": 58,
          "name": "A#3",
          "ticks": 8725,
          "time": 101.45348837209302,
          "velocity": 0.1889763779527559
        },
        {
          "duration": 0.06976744186047767,
          "durationTicks": 6,
          "midi": 61,
          "name": "C#4",
          "ticks": 8726,
          "time": 101.46511627906976,
          "velocity": 0.11811023622047244
        },
        {
          "duration": 0.081395348837205,
          "durationTicks": 7,
          "midi": 70,
          "name": "A#4",
          "ticks": 8783,
          "time": 102.12790697674419,
          "velocity": 0.07086614173228346
        },
        {
          "duration": 0.255813953488385,
          "durationTicks": 22,
          "midi": 58,
          "name": "A#3",
          "ticks": 8785,
          "time": 102.15116279069767,
          "velocity": 0.1732283464566929
        },
        {
          "duration": 0.06976744186046346,
          "durationTicks": 6,
          "midi": 61,
          "name": "C#4",
          "ticks": 8793,
          "time": 102.24418604651163,
          "velocity": 0.10236220472440945
        },
        {
          "duration": 0.17441860465116577,
          "durationTicks": 15,
          "midi": 61,
          "name": "C#4",
          "ticks": 8800,
          "time": 102.32558139534883,
          "velocity": 0.3228346456692913
        },
        {
          "duration": 0.03488372093023884,
          "durationTicks": 3,
          "midi": 66,
          "name": "F#4",
          "ticks": 8804,
          "time": 102.37209302325581,
          "velocity": 0.11023622047244094
        },
        {
          "duration": 0.03488372093023884,
          "durationTicks": 3,
          "midi": 62,
          "name": "D4",
          "ticks": 8815,
          "time": 102.5,
          "velocity": 0.30708661417322836
        },
        {
          "duration": 0.3139534883720927,
          "durationTicks": 27,
          "midi": 54,
          "name": "F#3",
          "ticks": 8817,
          "time": 102.52325581395348,
          "velocity": 0.18110236220472442
        },
        {
          "duration": 1.220930232558132,
          "durationTicks": 105,
          "midi": 63,
          "name": "D#4",
          "ticks": 8819,
          "time": 102.54651162790698,
          "velocity": 0.36220472440944884
        },
        {
          "duration": 0.27906976744185386,
          "durationTicks": 24,
          "midi": 58,
          "name": "A#3",
          "ticks": 8845,
          "time": 102.84883720930233,
          "velocity": 0.1968503937007874
        },
        {
          "duration": 0.27906976744185386,
          "durationTicks": 24,
          "midi": 66,
          "name": "F#4",
          "ticks": 8899,
          "time": 103.47674418604652,
          "velocity": 0.2125984251968504
        },
        {
          "duration": 0.1860465116279073,
          "durationTicks": 16,
          "midi": 58,
          "name": "A#3",
          "ticks": 8900,
          "time": 103.48837209302326,
          "velocity": 0.18110236220472442
        },
        {
          "duration": 0.06976744186046346,
          "durationTicks": 6,
          "midi": 57,
          "name": "A3",
          "ticks": 8929,
          "time": 103.82558139534883,
          "velocity": 0.1968503937007874
        },
        {
          "duration": 0.06976744186046346,
          "durationTicks": 6,
          "midi": 68,
          "name": "G#4",
          "ticks": 8929,
          "time": 103.82558139534883,
          "velocity": 0.2283464566929134
        },
        {
          "duration": 1.0116279069767415,
          "durationTicks": 87,
          "midi": 66,
          "name": "F#4",
          "ticks": 8932,
          "time": 103.86046511627907,
          "velocity": 0.25196850393700787
        },
        {
          "duration": 0.05813953488370771,
          "durationTicks": 5,
          "midi": 57,
          "name": "A3",
          "ticks": 8936,
          "time": 103.90697674418605,
          "velocity": 0.11811023622047244
        },
        {
          "duration": 0.05813953488372192,
          "durationTicks": 5,
          "midi": 57,
          "name": "A3",
          "ticks": 8955,
          "time": 104.12790697674419,
          "velocity": 0.13385826771653545
        },
        {
          "duration": 0.3372093023255758,
          "durationTicks": 29,
          "midi": 61,
          "name": "C#4",
          "ticks": 8959,
          "time": 104.17441860465117,
          "velocity": 0.1968503937007874
        },
        {
          "duration": 0.24418604651162923,
          "durationTicks": 21,
          "midi": 88,
          "name": "E6",
          "ticks": 8960,
          "time": 104.18604651162791,
          "velocity": 0.14960629921259844
        },
        {
          "duration": 0.04651162790698038,
          "durationTicks": 4,
          "midi": 56,
          "name": "G#3",
          "ticks": 8962,
          "time": 104.20930232558139,
          "velocity": 0.16535433070866143
        },
        {
          "duration": 0.13953488372092693,
          "durationTicks": 12,
          "midi": 76,
          "name": "E5",
          "ticks": 8963,
          "time": 104.22093023255815,
          "velocity": 0.11023622047244094
        },
        {
          "duration": 0.034883720930224626,
          "durationTicks": 3,
          "midi": 56,
          "name": "G#3",
          "ticks": 8979,
          "time": 104.40697674418605,
          "velocity": 0.07874015748031496
        },
        {
          "duration": 0.09302325581394655,
          "durationTicks": 8,
          "midi": 56,
          "name": "G#3",
          "ticks": 8985,
          "time": 104.47674418604652,
          "velocity": 0.08661417322834646
        },
        {
          "duration": 0.09302325581396076,
          "durationTicks": 8,
          "midi": 45,
          "name": "A2",
          "ticks": 8995,
          "time": 104.59302325581395,
          "velocity": 0.07086614173228346
        },
        {
          "duration": 0.03488372093023884,
          "durationTicks": 3,
          "midi": 56,
          "name": "G#3",
          "ticks": 9004,
          "time": 104.69767441860465,
          "velocity": 0.11023622047244094
        },
        {
          "duration": 0.04651162790698038,
          "durationTicks": 4,
          "midi": 56,
          "name": "G#3",
          "ticks": 9016,
          "time": 104.83720930232558,
          "velocity": 0.14960629921259844
        },
        {
          "duration": 0.034883720930224626,
          "durationTicks": 3,
          "midi": 64,
          "name": "E4",
          "ticks": 9018,
          "time": 104.86046511627907,
          "velocity": 0.09448818897637795
        },
        {
          "duration": 0.2325581395348877,
          "durationTicks": 20,
          "midi": 66,
          "name": "F#4",
          "ticks": 9021,
          "time": 104.8953488372093,
          "velocity": 0.2047244094488189
        },
        {
          "duration": 0.04651162790696617,
          "durationTicks": 4,
          "midi": 64,
          "name": "E4",
          "ticks": 9022,
          "time": 104.90697674418605,
          "velocity": 0.07874015748031496
        },
        {
          "duration": 0.04651162790698038,
          "durationTicks": 4,
          "midi": 61,
          "name": "C#4",
          "ticks": 9025,
          "time": 104.94186046511628,
          "velocity": 0.07086614173228346
        },
        {
          "duration": 0.22093023255814614,
          "durationTicks": 19,
          "midi": 56,
          "name": "G#3",
          "ticks": 9047,
          "time": 105.19767441860465,
          "velocity": 0.29133858267716534
        },
        {
          "duration": 0.08139534883721922,
          "durationTicks": 7,
          "midi": 66,
          "name": "F#4",
          "ticks": 9048,
          "time": 105.20930232558139,
          "velocity": 0.18110236220472442
        },
        {
          "duration": 0.3720930232558146,
          "durationTicks": 32,
          "midi": 70,
          "name": "A#4",
          "ticks": 9048,
          "time": 105.20930232558139,
          "velocity": 0.15748031496062992
        },
        {
          "duration": 0.034883720930224626,
          "durationTicks": 3,
          "midi": 63,
          "name": "D#4",
          "ticks": 9049,
          "time": 105.22093023255815,
          "velocity": 0.08661417322834646
        },
        {
          "duration": 0.09302325581394655,
          "durationTicks": 8,
          "midi": 66,
          "name": "F#4",
          "ticks": 9056,
          "time": 105.30232558139535,
          "velocity": 0.2204724409448819
        },
        {
          "duration": 0.04651162790696617,
          "durationTicks": 4,
          "midi": 44,
          "name": "G#2",
          "ticks": 9065,
          "time": 105.40697674418605,
          "velocity": 0.09448818897637795
        },
        {
          "duration": 0.11627906976744384,
          "durationTicks": 10,
          "midi": 66,
          "name": "F#4",
          "ticks": 9067,
          "time": 105.43023255813954,
          "velocity": 0.1968503937007874
        },
        {
          "duration": 0.5581395348837219,
          "durationTicks": 48,
          "midi": 68,
          "name": "G#4",
          "ticks": 9073,
          "time": 105.5,
          "velocity": 0.2677165354330709
        },
        {
          "duration": 0.3139534883720927,
          "durationTicks": 27,
          "midi": 59,
          "name": "B3",
          "ticks": 9077,
          "time": 105.54651162790698,
          "velocity": 0.14960629921259844
        },
        {
          "duration": 0.11627906976744384,
          "durationTicks": 10,
          "midi": 66,
          "name": "F#4",
          "ticks": 9078,
          "time": 105.55813953488372,
          "velocity": 0.14173228346456693
        },
        {
          "duration": 0.06976744186046346,
          "durationTicks": 6,
          "midi": 70,
          "name": "A#4",
          "ticks": 9083,
          "time": 105.61627906976744,
          "velocity": 0.11811023622047244
        },
        {
          "duration": 0.3139534883720927,
          "durationTicks": 27,
          "midi": 68,
          "name": "G#4",
          "ticks": 9125,
          "time": 106.1046511627907,
          "velocity": 0.1732283464566929
        },
        {
          "duration": 0.03488372093023884,
          "durationTicks": 3,
          "midi": 45,
          "name": "A2",
          "ticks": 9132,
          "time": 106.18604651162791,
          "velocity": 0.08661417322834646
        },
        {
          "duration": 0.09302325581394655,
          "durationTicks": 8,
          "midi": 59,
          "name": "B3",
          "ticks": 9132,
          "time": 106.18604651162791,
          "velocity": 0.14173228346456693
        },
        {
          "duration": 0.24418604651162923,
          "durationTicks": 21,
          "midi": 73,
          "name": "C#5",
          "ticks": 9134,
          "time": 106.20930232558139,
          "velocity": 0.25196850393700787
        },
        {
          "duration": 0.04651162790698038,
          "durationTicks": 4,
          "midi": 63,
          "name": "D#4",
          "ticks": 9139,
          "time": 106.26744186046511,
          "velocity": 0.07086614173228346
        },
        {
          "duration": 0.11627906976744384,
          "durationTicks": 10,
          "midi": 59,
          "name": "B3",
          "ticks": 9141,
          "time": 106.29069767441861,
          "velocity": 0.12598425196850394
        },
        {
          "duration": 0.081395348837205,
          "durationTicks": 7,
          "midi": 66,
          "name": "F#4",
          "ticks": 9154,
          "time": 106.44186046511628,
          "velocity": 0.11023622047244094
        },
        {
          "duration": 0.32558139534883423,
          "durationTicks": 28,
          "midi": 54,
          "name": "F#3",
          "ticks": 9163,
          "time": 106.54651162790698,
          "velocity": 0.1889763779527559
        },
        {
          "duration": 0.11627906976744384,
          "durationTicks": 10,
          "midi": 61,
          "name": "C#4",
          "ticks": 9163,
          "time": 106.54651162790698,
          "velocity": 0.08661417322834646
        },
        {
          "duration": 0.6511627906976827,
          "durationTicks": 56,
          "midi": 66,
          "name": "F#4",
          "ticks": 9165,
          "time": 106.56976744186046,
          "velocity": 0.29133858267716534
        },
        {
          "duration": 0.5930232558139608,
          "durationTicks": 51,
          "midi": 70,
          "name": "A#4",
          "ticks": 9165,
          "time": 106.56976744186046,
          "velocity": 0.2440944881889764
        },
        {
          "duration": 0.04651162790698038,
          "durationTicks": 4,
          "midi": 44,
          "name": "G#2",
          "ticks": 9193,
          "time": 106.8953488372093,
          "velocity": 0.12598425196850394
        },
        {
          "duration": 0.27906976744185386,
          "durationTicks": 24,
          "midi": 58,
          "name": "A#3",
          "ticks": 9194,
          "time": 106.90697674418605,
          "velocity": 0.14960629921259844
        },
        {
          "duration": 0.23255813953487348,
          "durationTicks": 20,
          "midi": 66,
          "name": "F#4",
          "ticks": 9227,
          "time": 107.29069767441861,
          "velocity": 0.29133858267716534
        },
        {
          "duration": 0.17441860465116577,
          "durationTicks": 15,
          "midi": 73,
          "name": "C#5",
          "ticks": 9250,
          "time": 107.55813953488372,
          "velocity": 0.11811023622047244
        },
        {
          "duration": 0.2674418604651123,
          "durationTicks": 23,
          "midi": 58,
          "name": "A#3",
          "ticks": 9251,
          "time": 107.56976744186046,
          "velocity": 0.1732283464566929
        },
        {
          "duration": 0.9418604651162781,
          "durationTicks": 81,
          "midi": 66,
          "name": "F#4",
          "ticks": 9255,
          "time": 107.61627906976744,
          "velocity": 0.29133858267716534
        },
        {
          "duration": 0.034883720930224626,
          "durationTicks": 3,
          "midi": 43,
          "name": "G2",
          "ticks": 9280,
          "time": 107.90697674418605,
          "velocity": 0.07874015748031496
        },
        {
          "duration": 0.34883720930233153,
          "durationTicks": 30,
          "midi": 54,
          "name": "F#3",
          "ticks": 9283,
          "time": 107.94186046511628,
          "velocity": 0.2204724409448819
        },
        {
          "duration": 0.034883720930224626,
          "durationTicks": 3,
          "midi": 43,
          "name": "G2",
          "ticks": 9287,
          "time": 107.98837209302326,
          "velocity": 0.10236220472440945
        },
        {
          "duration": 0.04651162790696617,
          "durationTicks": 4,
          "midi": 61,
          "name": "C#4",
          "ticks": 9313,
          "time": 108.29069767441861,
          "velocity": 0.11811023622047244
        },
        {
          "duration": 0.25581395348837077,
          "durationTicks": 22,
          "midi": 58,
          "name": "A#3",
          "ticks": 9314,
          "time": 108.30232558139535,
          "velocity": 0.2047244094488189
        },
        {
          "duration": 0.09302325581394655,
          "durationTicks": 8,
          "midi": 42,
          "name": "F#2",
          "ticks": 9330,
          "time": 108.48837209302326,
          "velocity": 0.07086614173228346
        },
        {
          "duration": 0.2674418604651123,
          "durationTicks": 23,
          "midi": 66,
          "name": "F#4",
          "ticks": 9337,
          "time": 108.56976744186046,
          "velocity": 0.2755905511811024
        },
        {
          "duration": 0.05813953488372192,
          "durationTicks": 5,
          "midi": 66,
          "name": "F#4",
          "ticks": 9362,
          "time": 108.86046511627907,
          "velocity": 0.11023622047244094
        },
        {
          "duration": 0.30232558139533694,
          "durationTicks": 26,
          "midi": 58,
          "name": "A#3",
          "ticks": 9366,
          "time": 108.90697674418605,
          "velocity": 0.2047244094488189
        },
        {
          "duration": 0.2906976744186096,
          "durationTicks": 25,
          "midi": 68,
          "name": "G#4",
          "ticks": 9368,
          "time": 108.93023255813954,
          "velocity": 0.2047244094488189
        },
        {
          "duration": 0.17441860465116577,
          "durationTicks": 15,
          "midi": 73,
          "name": "C#5",
          "ticks": 9375,
          "time": 109.01162790697674,
          "velocity": 0.07086614173228346
        },
        {
          "duration": 0.38372093023255616,
          "durationTicks": 33,
          "midi": 61,
          "name": "C#4",
          "ticks": 9395,
          "time": 109.24418604651163,
          "velocity": 0.15748031496062992
        },
        {
          "duration": 0.3604651162790731,
          "durationTicks": 31,
          "midi": 57,
          "name": "A3",
          "ticks": 9397,
          "time": 109.26744186046511,
          "velocity": 0.25984251968503935
        },
        {
          "duration": 0.15116279069768268,
          "durationTicks": 13,
          "midi": 88,
          "name": "E6",
          "ticks": 9398,
          "time": 109.27906976744185,
          "velocity": 0.2047244094488189
        },
        {
          "duration": 0.04651162790698038,
          "durationTicks": 4,
          "midi": 45,
          "name": "A2",
          "ticks": 9402,
          "time": 109.32558139534883,
          "velocity": 0.09448818897637795
        },
        {
          "duration": 0.2325581395348877,
          "durationTicks": 20,
          "midi": 45,
          "name": "A2",
          "ticks": 9413,
          "time": 109.45348837209302,
          "velocity": 0.1732283464566929
        },
        {
          "duration": 0.2674418604651123,
          "durationTicks": 23,
          "midi": 78,
          "name": "F#5",
          "ticks": 9428,
          "time": 109.62790697674419,
          "velocity": 0.2283464566929134
        },
        {
          "duration": 0.24418604651162923,
          "durationTicks": 21,
          "midi": 61,
          "name": "C#4",
          "ticks": 9429,
          "time": 109.63953488372093,
          "velocity": 0.1889763779527559
        },
        {
          "duration": 0.03488372093023884,
          "durationTicks": 3,
          "midi": 57,
          "name": "A3",
          "ticks": 9430,
          "time": 109.65116279069767,
          "velocity": 0.1732283464566929
        },
        {
          "duration": 0.2674418604651123,
          "durationTicks": 23,
          "midi": 45,
          "name": "A2",
          "ticks": 9434,
          "time": 109.69767441860465,
          "velocity": 0.15748031496062992
        },
        {
          "duration": 0.04651162790696617,
          "durationTicks": 4,
          "midi": 57,
          "name": "A3",
          "ticks": 9453,
          "time": 109.9186046511628,
          "velocity": 0.31496062992125984
        },
        {
          "duration": 0.023255813953497295,
          "durationTicks": 2,
          "midi": 56,
          "name": "G#3",
          "ticks": 9457,
          "time": 109.96511627906976,
          "velocity": 0.3464566929133858
        },
        {
          "duration": 0.17441860465115155,
          "durationTicks": 15,
          "midi": 61,
          "name": "C#4",
          "ticks": 9458,
          "time": 109.97674418604652,
          "velocity": 0.15748031496062992
        },
        {
          "duration": 0.17441860465116577,
          "durationTicks": 15,
          "midi": 45,
          "name": "A2",
          "ticks": 9462,
          "time": 110.02325581395348,
          "velocity": 0.1732283464566929
        },
        {
          "duration": 0.11627906976744384,
          "durationTicks": 10,
          "midi": 88,
          "name": "E6",
          "ticks": 9473,
          "time": 110.15116279069767,
          "velocity": 0.11023622047244094
        },
        {
          "duration": 0.09302325581396076,
          "durationTicks": 8,
          "midi": 61,
          "name": "C#4",
          "ticks": 9478,
          "time": 110.20930232558139,
          "velocity": 0.14173228346456693
        },
        {
          "duration": 0.05813953488372192,
          "durationTicks": 5,
          "midi": 57,
          "name": "A3",
          "ticks": 9482,
          "time": 110.25581395348837,
          "velocity": 0.13385826771653545
        },
        {
          "duration": 0.04651162790698038,
          "durationTicks": 4,
          "midi": 44,
          "name": "G#2",
          "ticks": 9487,
          "time": 110.31395348837209,
          "velocity": 0.14173228346456693
        },
        {
          "duration": 0.2093023255813904,
          "durationTicks": 18,
          "midi": 61,
          "name": "C#4",
          "ticks": 9487,
          "time": 110.31395348837209,
          "velocity": 0.23622047244094488
        },
        {
          "duration": 0.034883720930224626,
          "durationTicks": 3,
          "midi": 45,
          "name": "A2",
          "ticks": 9491,
          "time": 110.36046511627907,
          "velocity": 0.07874015748031496
        },
        {
          "duration": 0.2674418604651265,
          "durationTicks": 23,
          "midi": 56,
          "name": "G#3",
          "ticks": 9516,
          "time": 110.65116279069767,
          "velocity": 0.33858267716535434
        },
        {
          "duration": 0.09302325581394655,
          "durationTicks": 8,
          "midi": 63,
          "name": "D#4",
          "ticks": 9524,
          "time": 110.74418604651163,
          "velocity": 0.07086614173228346
        },
        {
          "duration": 0.034883720930224626,
          "durationTicks": 3,
          "midi": 56,
          "name": "G#3",
          "ticks": 9540,
          "time": 110.93023255813954,
          "velocity": 0.12598425196850394
        },
        {
          "duration": 0.34883720930233153,
          "durationTicks": 30,
          "midi": 63,
          "name": "D#4",
          "ticks": 9543,
          "time": 110.96511627906976,
          "velocity": 0.18110236220472442
        },
        {
          "duration": 0.2325581395348877,
          "durationTicks": 20,
          "midi": 59,
          "name": "B3",
          "ticks": 9546,
          "time": 111,
          "velocity": 0.2125984251968504
        },
        {
          "duration": 0.09302325581396076,
          "durationTicks": 8,
          "midi": 68,
          "name": "G#4",
          "ticks": 9552,
          "time": 111.06976744186046,
          "velocity": 0.09448818897637795
        },
        {
          "duration": 0.03488372093023884,
          "durationTicks": 3,
          "midi": 55,
          "name": "G3",
          "ticks": 9575,
          "time": 111.33720930232558,
          "velocity": 0.31496062992125984
        },
        {
          "duration": 0.15116279069768268,
          "durationTicks": 13,
          "midi": 68,
          "name": "G#4",
          "ticks": 9575,
          "time": 111.33720930232558,
          "velocity": 0.16535433070866143
        },
        {
          "duration": 0.23255813953487348,
          "durationTicks": 20,
          "midi": 63,
          "name": "D#4",
          "ticks": 9577,
          "time": 111.36046511627907,
          "velocity": 0.12598425196850394
        },
        {
          "duration": 0.16279069767442422,
          "durationTicks": 14,
          "midi": 59,
          "name": "B3",
          "ticks": 9578,
          "time": 111.37209302325581,
          "velocity": 0.14960629921259844
        },
        {
          "duration": 0.05813953488372192,
          "durationTicks": 5,
          "midi": 44,
          "name": "G#2",
          "ticks": 9602,
          "time": 111.65116279069767,
          "velocity": 0.13385826771653545
        },
        {
          "duration": 0.09302325581394655,
          "durationTicks": 8,
          "midi": 59,
          "name": "B3",
          "ticks": 9603,
          "time": 111.66279069767442,
          "velocity": 0.1968503937007874
        },
        {
          "duration": 0.03488372093023884,
          "durationTicks": 3,
          "midi": 63,
          "name": "D#4",
          "ticks": 9616,
          "time": 111.81395348837209,
          "velocity": 0.11811023622047244
        },
        {
          "duration": 0.04651162790698038,
          "durationTicks": 4,
          "midi": 54,
          "name": "F#3",
          "ticks": 9632,
          "time": 112,
          "velocity": 0.1732283464566929
        },
        {
          "duration": 0.66279069767441,
          "durationTicks": 57,
          "midi": 70,
          "name": "A#4",
          "ticks": 9635,
          "time": 112.03488372093024,
          "velocity": 0.25196850393700787
        },
        {
          "duration": 0.27906976744185386,
          "durationTicks": 24,
          "midi": 54,
          "name": "F#3",
          "ticks": 9637,
          "time": 112.05813953488372,
          "velocity": 0.25196850393700787
        },
        {
          "duration": 0.32558139534883423,
          "durationTicks": 28,
          "midi": 58,
          "name": "A#3",
          "ticks": 9663,
          "time": 112.36046511627907,
          "velocity": 0.2283464566929134
        },
        {
          "duration": 0.09302325581394655,
          "durationTicks": 8,
          "midi": 54,
          "name": "F#3",
          "ticks": 9678,
          "time": 112.53488372093024,
          "velocity": 0.15748031496062992
        },
        {
          "duration": 0.023255813953483084,
          "durationTicks": 2,
          "midi": 54,
          "name": "F#3",
          "ticks": 9690,
          "time": 112.67441860465117,
          "velocity": 0.25984251968503935
        },
        {
          "duration": 0.023255813953497295,
          "durationTicks": 2,
          "midi": 55,
          "name": "G3",
          "ticks": 9692,
          "time": 112.69767441860465,
          "velocity": 0.3543307086614173
        },
        {
          "duration": 0.15116279069768268,
          "durationTicks": 13,
          "midi": 58,
          "name": "A#3",
          "ticks": 9703,
          "time": 112.82558139534883,
          "velocity": 0.07874015748031496
        },
        {
          "duration": 0.11627906976744384,
          "durationTicks": 10,
          "midi": 54,
          "name": "F#3",
          "ticks": 9709,
          "time": 112.8953488372093,
          "velocity": 0.07086614173228346
        },
        {
          "duration": 0.04651162790698038,
          "durationTicks": 4,
          "midi": 42,
          "name": "F#2",
          "ticks": 9719,
          "time": 113.01162790697674,
          "velocity": 0.07086614173228346
        },
        {
          "duration": 0.27906976744186807,
          "durationTicks": 24,
          "midi": 66,
          "name": "F#4",
          "ticks": 9720,
          "time": 113.02325581395348,
          "velocity": 0.13385826771653545
        },
        {
          "duration": 0.16279069767441,
          "durationTicks": 14,
          "midi": 58,
          "name": "A#3",
          "ticks": 9721,
          "time": 113.03488372093024,
          "velocity": 0.2440944881889764
        },
        {
          "duration": 0.19767441860464885,
          "durationTicks": 17,
          "midi": 42,
          "name": "F#2",
          "ticks": 9733,
          "time": 113.17441860465117,
          "velocity": 0.07086614173228346
        },
        {
          "duration": 0.034883720930224626,
          "durationTicks": 3,
          "midi": 58,
          "name": "A#3",
          "ticks": 9737,
          "time": 113.22093023255815,
          "velocity": 0.09448818897637795
        },
        {
          "duration": 0.09302325581396076,
          "durationTicks": 8,
          "midi": 58,
          "name": "A#3",
          "ticks": 9741,
          "time": 113.26744186046511,
          "velocity": 0.08661417322834646
        },
        {
          "duration": 0.3372093023255758,
          "durationTicks": 29,
          "midi": 63,
          "name": "D#4",
          "ticks": 9749,
          "time": 113.36046511627907,
          "velocity": 0.25984251968503935
        },
        {
          "duration": 0.09302325581394655,
          "durationTicks": 8,
          "midi": 66,
          "name": "F#4",
          "ticks": 9750,
          "time": 113.37209302325581,
          "velocity": 0.07874015748031496
        },
        {
          "duration": 0.22093023255814614,
          "durationTicks": 19,
          "midi": 56,
          "name": "G#3",
          "ticks": 9752,
          "time": 113.3953488372093,
          "velocity": 0.31496062992125984
        },
        {
          "duration": 0.11627906976742963,
          "durationTicks": 10,
          "midi": 66,
          "name": "F#4",
          "ticks": 9775,
          "time": 113.66279069767442,
          "velocity": 0.08661417322834646
        },
        {
          "duration": 0.19767441860466306,
          "durationTicks": 17,
          "midi": 63,
          "name": "D#4",
          "ticks": 9779,
          "time": 113.70930232558139,
          "velocity": 0.15748031496062992
        },
        {
          "duration": 0.023255813953483084,
          "durationTicks": 2,
          "midi": 55,
          "name": "G3",
          "ticks": 9781,
          "time": 113.73255813953489,
          "velocity": 0.29133858267716534
        },
        {
          "duration": 0.17441860465116577,
          "durationTicks": 15,
          "midi": 54,
          "name": "F#3",
          "ticks": 9783,
          "time": 113.75581395348837,
          "velocity": 0.2204724409448819
        },
        {
          "duration": 0.03488372093023884,
          "durationTicks": 3,
          "midi": 58,
          "name": "A#3",
          "ticks": 9788,
          "time": 113.81395348837209,
          "velocity": 0.08661417322834646
        },
        {
          "duration": 0.05813953488372192,
          "durationTicks": 5,
          "midi": 55,
          "name": "G3",
          "ticks": 9798,
          "time": 113.93023255813954,
          "velocity": 0.14173228346456693
        },
        {
          "duration": 0.023255813953483084,
          "durationTicks": 2,
          "midi": 55,
          "name": "G3",
          "ticks": 9809,
          "time": 114.05813953488372,
          "velocity": 0.41732283464566927
        },
        {
          "duration": 0.2325581395348877,
          "durationTicks": 20,
          "midi": 63,
          "name": "D#4",
          "ticks": 9809,
          "time": 114.05813953488372,
          "velocity": 0.25984251968503935
        },
        {
          "duration": 0.13953488372094114,
          "durationTicks": 12,
          "midi": 56,
          "name": "G#3",
          "ticks": 9811,
          "time": 114.0813953488372,
          "velocity": 0.3543307086614173
        },
        {
          "duration": 0.023255813953483084,
          "durationTicks": 2,
          "midi": 55,
          "name": "G3",
          "ticks": 9824,
          "time": 114.23255813953489,
          "velocity": 0.2283464566929134
        },
        {
          "duration": 0.04651162790698038,
          "durationTicks": 4,
          "midi": 54,
          "name": "F#3",
          "ticks": 9830,
          "time": 114.30232558139535,
          "velocity": 0.09448818897637795
        },
        {
          "duration": 0.27906976744185386,
          "durationTicks": 24,
          "midi": 66,
          "name": "F#4",
          "ticks": 9836,
          "time": 114.37209302325581,
          "velocity": 0.25196850393700787
        },
        {
          "duration": 0.03488372093023884,
          "durationTicks": 3,
          "midi": 45,
          "name": "A2",
          "ticks": 9837,
          "time": 114.38372093023256,
          "velocity": 0.11023622047244094
        },
        {
          "duration": 0.2093023255813904,
          "durationTicks": 18,
          "midi": 58,
          "name": "A#3",
          "ticks": 9839,
          "time": 114.40697674418605,
          "velocity": 0.25984251968503935
        },
        {
          "duration": 0.06976744186046346,
          "durationTicks": 6,
          "midi": 45,
          "name": "A2",
          "ticks": 9842,
          "time": 114.44186046511628,
          "velocity": 0.14173228346456693
        },
        {
          "duration": 0.034883720930224626,
          "durationTicks": 3,
          "midi": 57,
          "name": "A3",
          "ticks": 9857,
          "time": 114.61627906976744,
          "velocity": 0.2204724409448819
        },
        {
          "duration": 0.11627906976742963,
          "durationTicks": 10,
          "midi": 66,
          "name": "F#4",
          "ticks": 9866,
          "time": 114.72093023255815,
          "velocity": 0.13385826771653545
        },
        {
          "duration": 0.023255813953483084,
          "durationTicks": 2,
          "midi": 56,
          "name": "G#3",
          "ticks": 9867,
          "time": 114.73255813953489,
          "velocity": 0.2755905511811024
        },
        {
          "duration": 0.6511627906976685,
          "durationTicks": 56,
          "midi": 61,
          "name": "C#4",
          "ticks": 9868,
          "time": 114.74418604651163,
          "velocity": 0.2440944881889764
        },
        {
          "duration": 0.13953488372092693,
          "durationTicks": 12,
          "midi": 57,
          "name": "A3",
          "ticks": 9869,
          "time": 114.75581395348837,
          "velocity": 0.25984251968503935
        },
        {
          "duration": 0.05813953488372192,
          "durationTicks": 5,
          "midi": 95,
          "name": "B6",
          "ticks": 9873,
          "time": 114.80232558139535,
          "velocity": 0.07086614173228346
        },
        {
          "duration": 0.05813953488372192,
          "durationTicks": 5,
          "midi": 57,
          "name": "A3",
          "ticks": 9888,
          "time": 114.97674418604652,
          "velocity": 0.15748031496062992
        },
        {
          "duration": 0.081395348837205,
          "durationTicks": 7,
          "midi": 45,
          "name": "A2",
          "ticks": 9896,
          "time": 115.06976744186046,
          "velocity": 0.2047244094488189
        },
        {
          "duration": 0.11627906976742963,
          "durationTicks": 10,
          "midi": 45,
          "name": "A2",
          "ticks": 9909,
          "time": 115.22093023255815,
          "velocity": 0.09448818897637795
        },
        {
          "duration": 0.04651162790698038,
          "durationTicks": 4,
          "midi": 57,
          "name": "A3",
          "ticks": 9912,
          "time": 115.25581395348837,
          "velocity": 0.14960629921259844
        },
        {
          "duration": 0.04651162790698038,
          "durationTicks": 4,
          "midi": 56,
          "name": "G#3",
          "ticks": 9921,
          "time": 115.36046511627907,
          "velocity": 0.11811023622047244
        },
        {
          "duration": 0.05813953488372192,
          "durationTicks": 5,
          "midi": 73,
          "name": "C#5",
          "ticks": 9924,
          "time": 115.3953488372093,
          "velocity": 0.07874015748031496
        },
        {
          "duration": 0.023255813953483084,
          "durationTicks": 2,
          "midi": 57,
          "name": "A3",
          "ticks": 9925,
          "time": 115.40697674418605,
          "velocity": 0.3228346456692913
        },
        {
          "duration": 0.04651162790696617,
          "durationTicks": 4,
          "midi": 63,
          "name": "D#4",
          "ticks": 9925,
          "time": 115.40697674418605,
          "velocity": 0.14960629921259844
        },
        {
          "duration": 0.4767441860465169,
          "durationTicks": 41,
          "midi": 61,
          "name": "C#4",
          "ticks": 9930,
          "time": 115.46511627906976,
          "velocity": 0.23622047244094488
        },
        {
          "duration": 0.17441860465116577,
          "durationTicks": 15,
          "midi": 68,
          "name": "G#4",
          "ticks": 9954,
          "time": 115.74418604651163,
          "velocity": 0.13385826771653545
        },
        {
          "duration": 0.03488372093023884,
          "durationTicks": 3,
          "midi": 45,
          "name": "A2",
          "ticks": 9957,
          "time": 115.77906976744185,
          "velocity": 0.11811023622047244
        },
        {
          "duration": 0.034883720930224626,
          "durationTicks": 3,
          "midi": 60,
          "name": "C4",
          "ticks": 9974,
          "time": 115.97674418604652,
          "velocity": 0.07086614173228346
        },
        {
          "duration": 0.06976744186046346,
          "durationTicks": 6,
          "midi": 56,
          "name": "G#3",
          "ticks": 9983,
          "time": 116.0813953488372,
          "velocity": 0.25196850393700787
        },
        {
          "duration": 0.3953488372092977,
          "durationTicks": 34,
          "midi": 63,
          "name": "D#4",
          "ticks": 9986,
          "time": 116.11627906976744,
          "velocity": 0.09448818897637795
        },
        {
          "duration": 0.11627906976744384,
          "durationTicks": 10,
          "midi": 71,
          "name": "B4",
          "ticks": 9986,
          "time": 116.11627906976744,
          "velocity": 0.12598425196850394
        },
        {
          "duration": 0.081395348837205,
          "durationTicks": 7,
          "midi": 56,
          "name": "G#3",
          "ticks": 9990,
          "time": 116.16279069767442,
          "velocity": 0.1968503937007874
        },
        {
          "duration": 0.13953488372094114,
          "durationTicks": 12,
          "midi": 59,
          "name": "B3",
          "ticks": 9999,
          "time": 116.26744186046511,
          "velocity": 0.15748031496062992
        },
        {
          "duration": 0.04651162790698038,
          "durationTicks": 4,
          "midi": 71,
          "name": "B4",
          "ticks": 10043,
          "time": 116.77906976744185,
          "velocity": 0.18110236220472442
        },
        {
          "duration": 0.023255813953483084,
          "durationTicks": 2,
          "midi": 55,
          "name": "G3",
          "ticks": 10044,
          "time": 116.79069767441861,
          "velocity": 0.3228346456692913
        },
        {
          "duration": 0.06976744186046346,
          "durationTicks": 6,
          "midi": 63,
          "name": "D#4",
          "ticks": 10045,
          "time": 116.80232558139535,
          "velocity": 0.12598425196850394
        },
        {
          "duration": 0.2906976744186096,
          "durationTicks": 25,
          "midi": 59,
          "name": "B3",
          "ticks": 10047,
          "time": 116.82558139534883,
          "velocity": 0.1968503937007874
        },
        {
          "duration": 0.081395348837205,
          "durationTicks": 7,
          "midi": 78,
          "name": "F#5",
          "ticks": 10072,
          "time": 117.11627906976744,
          "velocity": 0.08661417322834646
        },
        {
          "duration": 0.03488372093023884,
          "durationTicks": 3,
          "midi": 44,
          "name": "G#2",
          "ticks": 10074,
          "time": 117.13953488372093,
          "velocity": 0.11023622047244094
        },
        {
          "duration": 0.1046511627907023,
          "durationTicks": 9,
          "midi": 59,
          "name": "B3",
          "ticks": 10078,
          "time": 117.18604651162791,
          "velocity": 0.2125984251968504
        },
        {
          "duration": 0.03488372093023884,
          "durationTicks": 3,
          "midi": 61,
          "name": "C#4",
          "ticks": 10101,
          "time": 117.45348837209302,
          "velocity": 0.11023622047244094
        },
        {
          "duration": 0.03488372093023884,
          "durationTicks": 3,
          "midi": 44,
          "name": "G#2",
          "ticks": 10102,
          "time": 117.46511627906976,
          "velocity": 0.1889763779527559
        },
        {
          "duration": 0.04651162790698038,
          "durationTicks": 4,
          "midi": 54,
          "name": "F#3",
          "ticks": 10102,
          "time": 117.46511627906976,
          "velocity": 0.23622047244094488
        },
        {
          "duration": 0.03488372093023884,
          "durationTicks": 3,
          "midi": 45,
          "name": "A2",
          "ticks": 10105,
          "time": 117.5,
          "velocity": 0.09448818897637795
        },
        {
          "duration": 0.04651162790698038,
          "durationTicks": 4,
          "midi": 63,
          "name": "D#4",
          "ticks": 10131,
          "time": 117.80232558139535,
          "velocity": 0.15748031496062992
        },
        {
          "duration": 0.27906976744185386,
          "durationTicks": 24,
          "midi": 66,
          "name": "F#4",
          "ticks": 10131,
          "time": 117.80232558139535,
          "velocity": 0.14960629921259844
        },
        {
          "duration": 0.33720930232559,
          "durationTicks": 29,
          "midi": 70,
          "name": "A#4",
          "ticks": 10134,
          "time": 117.83720930232558,
          "velocity": 0.2125984251968504
        },
        {
          "duration": 0.1860465116279073,
          "durationTicks": 16,
          "midi": 61,
          "name": "C#4",
          "ticks": 10135,
          "time": 117.84883720930233,
          "velocity": 0.11023622047244094
        },
        {
          "duration": 0.13953488372094114,
          "durationTicks": 12,
          "midi": 54,
          "name": "F#3",
          "ticks": 10145,
          "time": 117.96511627906976,
          "velocity": 0.2047244094488189
        },
        {
          "duration": 0.04651162790698038,
          "durationTicks": 4,
          "midi": 58,
          "name": "A#3",
          "ticks": 10156,
          "time": 118.09302325581395,
          "velocity": 0.08661417322834646
        },
        {
          "duration": 0.034883720930224626,
          "durationTicks": 3,
          "midi": 63,
          "name": "D#4",
          "ticks": 10162,
          "time": 118.16279069767442,
          "velocity": 0.11811023622047244
        },
        {
          "duration": 0.023255813953483084,
          "durationTicks": 2,
          "midi": 56,
          "name": "G#3",
          "ticks": 10163,
          "time": 118.17441860465117,
          "velocity": 0.2755905511811024
        },
        {
          "duration": 0.03488372093023884,
          "durationTicks": 3,
          "midi": 70,
          "name": "A#4",
          "ticks": 10164,
          "time": 118.18604651162791,
          "velocity": 0.15748031496062992
        },
        {
          "duration": 0.034883720930224626,
          "durationTicks": 3,
          "midi": 44,
          "name": "G#2",
          "ticks": 10190,
          "time": 118.48837209302326,
          "velocity": 0.1732283464566929
        },
        {
          "duration": 0.17441860465116577,
          "durationTicks": 15,
          "midi": 66,
          "name": "F#4",
          "ticks": 10190,
          "time": 118.48837209302326,
          "velocity": 0.12598425196850394
        },
        {
          "duration": 0.27906976744186807,
          "durationTicks": 24,
          "midi": 70,
          "name": "A#4",
          "ticks": 10193,
          "time": 118.52325581395348,
          "velocity": 0.1732283464566929
        },
        {
          "duration": 0.13953488372094114,
          "durationTicks": 12,
          "midi": 61,
          "name": "C#4",
          "ticks": 10204,
          "time": 118.65116279069767,
          "velocity": 0.08661417322834646
        },
        {
          "duration": 0.3372093023255758,
          "durationTicks": 29,
          "midi": 78,
          "name": "F#5",
          "ticks": 10221,
          "time": 118.84883720930233,
          "velocity": 0.2283464566929134
        },
        {
          "duration": 0.05813953488372192,
          "durationTicks": 5,
          "midi": 54,
          "name": "F#3",
          "ticks": 10225,
          "time": 118.8953488372093,
          "velocity": 0.2047244094488189
        },
        {
          "duration": 0.081395348837205,
          "durationTicks": 7,
          "midi": 54,
          "name": "F#3",
          "ticks": 10237,
          "time": 119.03488372093024,
          "velocity": 0.1732283464566929
        },
        {
          "duration": 0.05813953488372192,
          "durationTicks": 5,
          "midi": 63,
          "name": "D#4",
          "ticks": 10246,
          "time": 119.13953488372093,
          "velocity": 0.11023622047244094
        },
        {
          "duration": 0.15116279069768268,
          "durationTicks": 13,
          "midi": 56,
          "name": "G#3",
          "ticks": 10251,
          "time": 119.19767441860465,
          "velocity": 0.30708661417322836
        },
        {
          "duration": 0.03488372093023884,
          "durationTicks": 3,
          "midi": 63,
          "name": "D#4",
          "ticks": 10263,
          "time": 119.33720930232558,
          "velocity": 0.07874015748031496
        },
        {
          "duration": 0.034883720930224626,
          "durationTicks": 3,
          "midi": 71,
          "name": "B4",
          "ticks": 10264,
          "time": 119.34883720930233,
          "velocity": 0.11811023622047244
        },
        {
          "duration": 0.04651162790698038,
          "durationTicks": 4,
          "midi": 56,
          "name": "G#3",
          "ticks": 10266,
          "time": 119.37209302325581,
          "velocity": 0.2047244094488189
        },
        {
          "duration": 0.023255813953483084,
          "durationTicks": 2,
          "midi": 53,
          "name": "F3",
          "ticks": 10277,
          "time": 119.5,
          "velocity": 0.25196850393700787
        },
        {
          "duration": 0.04651162790698038,
          "durationTicks": 4,
          "midi": 63,
          "name": "D#4",
          "ticks": 10279,
          "time": 119.52325581395348,
          "velocity": 0.11023622047244094
        },
        {
          "duration": 0.08139534883721922,
          "durationTicks": 7,
          "midi": 70,
          "name": "A#4",
          "ticks": 10279,
          "time": 119.52325581395348,
          "velocity": 0.18110236220472442
        },
        {
          "duration": 0.1860465116279073,
          "durationTicks": 16,
          "midi": 58,
          "name": "A#3",
          "ticks": 10281,
          "time": 119.54651162790698,
          "velocity": 0.2283464566929134
        },
        {
          "duration": 0.11627906976744384,
          "durationTicks": 10,
          "midi": 63,
          "name": "D#4",
          "ticks": 10286,
          "time": 119.6046511627907,
          "velocity": 0.10236220472440945
        },
        {
          "duration": 0.04651162790698038,
          "durationTicks": 4,
          "midi": 55,
          "name": "G3",
          "ticks": 10306,
          "time": 119.83720930232558,
          "velocity": 0.25196850393700787
        },
        {
          "duration": 0.2093023255813904,
          "durationTicks": 18,
          "midi": 56,
          "name": "G#3",
          "ticks": 10310,
          "time": 119.88372093023256,
          "velocity": 0.30708661417322836
        },
        {
          "duration": 0.04651162790698038,
          "durationTicks": 4,
          "midi": 63,
          "name": "D#4",
          "ticks": 10316,
          "time": 119.95348837209302,
          "velocity": 0.08661417322834646
        },
        {
          "duration": 0.03488372093023884,
          "durationTicks": 3,
          "midi": 45,
          "name": "A2",
          "ticks": 10320,
          "time": 120,
          "velocity": 0.09448818897637795
        },
        {
          "duration": 0.04651162790698038,
          "durationTicks": 4,
          "midi": 64,
          "name": "E4",
          "ticks": 10320,
          "time": 120,
          "velocity": 0.09448818897637795
        },
        {
          "duration": 0.10465116279068809,
          "durationTicks": 9,
          "midi": 45,
          "name": "A2",
          "ticks": 10324,
          "time": 120.04651162790698,
          "velocity": 0.08661417322834646
        },
        {
          "duration": 0.09302325581396076,
          "durationTicks": 8,
          "midi": 45,
          "name": "A2",
          "ticks": 10337,
          "time": 120.19767441860465,
          "velocity": 0.12598425196850394
        },
        {
          "duration": 0.2906976744186096,
          "durationTicks": 25,
          "midi": 57,
          "name": "A3",
          "ticks": 10338,
          "time": 120.20930232558139,
          "velocity": 0.2440944881889764
        },
        {
          "duration": 0.32558139534883423,
          "durationTicks": 28,
          "midi": 61,
          "name": "C#4",
          "ticks": 10340,
          "time": 120.23255813953489,
          "velocity": 0.1968503937007874
        },
        {
          "duration": 0.09302325581396076,
          "durationTicks": 8,
          "midi": 45,
          "name": "A2",
          "ticks": 10364,
          "time": 120.51162790697674,
          "velocity": 0.2283464566929134
        },
        {
          "duration": 0.034883720930224626,
          "durationTicks": 3,
          "midi": 63,
          "name": "D#4",
          "ticks": 10372,
          "time": 120.6046511627907,
          "velocity": 0.10236220472440945
        },
        {
          "duration": 0.08139534883721922,
          "durationTicks": 7,
          "midi": 63,
          "name": "D#4",
          "ticks": 10376,
          "time": 120.65116279069767,
          "velocity": 0.12598425196850394
        },
        {
          "duration": 0.06976744186046346,
          "durationTicks": 6,
          "midi": 45,
          "name": "A2",
          "ticks": 10381,
          "time": 120.70930232558139,
          "velocity": 0.08661417322834646
        },
        {
          "duration": 0.04651162790698038,
          "durationTicks": 4,
          "midi": 63,
          "name": "D#4",
          "ticks": 10384,
          "time": 120.74418604651163,
          "velocity": 0.13385826771653545
        },
        {
          "duration": 0.08139534883721922,
          "durationTicks": 7,
          "midi": 63,
          "name": "D#4",
          "ticks": 10392,
          "time": 120.83720930232558,
          "velocity": 0.1968503937007874
        },
        {
          "duration": 0.023255813953497295,
          "durationTicks": 2,
          "midi": 55,
          "name": "G3",
          "ticks": 10396,
          "time": 120.88372093023256,
          "velocity": 0.28346456692913385
        },
        {
          "duration": 0.03488372093023884,
          "durationTicks": 3,
          "midi": 71,
          "name": "B4",
          "ticks": 10396,
          "time": 120.88372093023256,
          "velocity": 0.08661417322834646
        },
        {
          "duration": 0.5232558139534831,
          "durationTicks": 45,
          "midi": 61,
          "name": "C#4",
          "ticks": 10399,
          "time": 120.9186046511628,
          "velocity": 0.2047244094488189
        },
        {
          "duration": 0.034883720930224626,
          "durationTicks": 3,
          "midi": 45,
          "name": "A2",
          "ticks": 10425,
          "time": 121.22093023255815,
          "velocity": 0.07874015748031496
        },
        {
          "duration": 0.081395348837205,
          "durationTicks": 7,
          "midi": 44,
          "name": "G#2",
          "ticks": 10452,
          "time": 121.53488372093024,
          "velocity": 0.11023622047244094
        },
        {
          "duration": 0.22093023255813193,
          "durationTicks": 19,
          "midi": 56,
          "name": "G#3",
          "ticks": 10454,
          "time": 121.55813953488372,
          "velocity": 0.2992125984251969
        },
        {
          "duration": 0.24418604651162923,
          "durationTicks": 21,
          "midi": 73,
          "name": "C#5",
          "ticks": 10455,
          "time": 121.56976744186046,
          "velocity": 0.15748031496062992
        },
        {
          "duration": 0.16279069767442422,
          "durationTicks": 14,
          "midi": 59,
          "name": "B3",
          "ticks": 10472,
          "time": 121.76744186046511,
          "velocity": 0.2125984251968504
        },
        {
          "duration": 0.04651162790696617,
          "durationTicks": 4,
          "midi": 44,
          "name": "G#2",
          "ticks": 10484,
          "time": 121.90697674418605,
          "velocity": 0.13385826771653545
        },
        {
          "duration": 0.25581395348837077,
          "durationTicks": 22,
          "midi": 59,
          "name": "B3",
          "ticks": 10487,
          "time": 121.94186046511628,
          "velocity": 0.2125984251968504
        },
        {
          "duration": 0.08139534883721922,
          "durationTicks": 7,
          "midi": 63,
          "name": "D#4",
          "ticks": 10499,
          "time": 122.0813953488372,
          "velocity": 0.08661417322834646
        },
        {
          "duration": 0.1046511627907023,
          "durationTicks": 9,
          "midi": 44,
          "name": "G#2",
          "ticks": 10505,
          "time": 122.15116279069767,
          "velocity": 0.07874015748031496
        },
        {
          "duration": 0.023255813953483084,
          "durationTicks": 2,
          "midi": 55,
          "name": "G3",
          "ticks": 10514,
          "time": 122.25581395348837,
          "velocity": 0.30708661417322836
        },
        {
          "duration": 0.09302325581396076,
          "durationTicks": 8,
          "midi": 63,
          "name": "D#4",
          "ticks": 10514,
          "time": 122.25581395348837,
          "velocity": 0.14173228346456693
        },
        {
          "duration": 0.03488372093023884,
          "durationTicks": 3,
          "midi": 71,
          "name": "B4",
          "ticks": 10514,
          "time": 122.25581395348837,
          "velocity": 0.14960629921259844
        },
        {
          "duration": 0.5,
          "durationTicks": 43,
          "midi": 59,
          "name": "B3",
          "ticks": 10517,
          "time": 122.29069767441861,
          "velocity": 0.23622047244094488
        },
        {
          "duration": 0.09302325581394655,
          "durationTicks": 8,
          "midi": 44,
          "name": "G#2",
          "ticks": 10518,
          "time": 122.30232558139535,
          "velocity": 0.07874015748031496
        },
        {
          "duration": 0.034883720930224626,
          "durationTicks": 3,
          "midi": 60,
          "name": "C4",
          "ticks": 10560,
          "time": 122.79069767441861,
          "velocity": 0.13385826771653545
        },
        {
          "duration": 0.06976744186046346,
          "durationTicks": 6,
          "midi": 61,
          "name": "C#4",
          "ticks": 10573,
          "time": 122.94186046511628,
          "velocity": 0.14173228346456693
        },
        {
          "duration": 0.3372093023255758,
          "durationTicks": 29,
          "midi": 70,
          "name": "A#4",
          "ticks": 10573,
          "time": 122.94186046511628,
          "velocity": 0.2283464566929134
        },
        {
          "duration": 0.30232558139535115,
          "durationTicks": 26,
          "midi": 54,
          "name": "F#3",
          "ticks": 10574,
          "time": 122.95348837209302,
          "velocity": 0.1889763779527559
        },
        {
          "duration": 0.19767441860464885,
          "durationTicks": 17,
          "midi": 61,
          "name": "C#4",
          "ticks": 10587,
          "time": 123.1046511627907,
          "velocity": 0.1968503937007874
        },
        {
          "duration": 0.03488372093023884,
          "durationTicks": 3,
          "midi": 45,
          "name": "A2",
          "ticks": 10600,
          "time": 123.25581395348837,
          "velocity": 0.11023622047244094
        },
        {
          "duration": 0.34883720930233153,
          "durationTicks": 30,
          "midi": 58,
          "name": "A#3",
          "ticks": 10601,
          "time": 123.26744186046511,
          "velocity": 0.2204724409448819
        },
        {
          "duration": 0.12790697674418539,
          "durationTicks": 11,
          "midi": 61,
          "name": "C#4",
          "ticks": 10605,
          "time": 123.31395348837209,
          "velocity": 0.18110236220472442
        },
        {
          "duration": 0.2674418604651123,
          "durationTicks": 23,
          "midi": 66,
          "name": "F#4",
          "ticks": 10609,
          "time": 123.36046511627907,
          "velocity": 0.14173228346456693
        },
        {
          "duration": 0.36046511627905886,
          "durationTicks": 31,
          "midi": 61,
          "name": "C#4",
          "ticks": 10630,
          "time": 123.6046511627907,
          "velocity": 0.2125984251968504
        },
        {
          "duration": 0.03488372093023884,
          "durationTicks": 3,
          "midi": 55,
          "name": "G3",
          "ticks": 10632,
          "time": 123.62790697674419,
          "velocity": 0.2755905511811024
        },
        {
          "duration": 0.24418604651162923,
          "durationTicks": 21,
          "midi": 66,
          "name": "F#4",
          "ticks": 10658,
          "time": 123.93023255813954,
          "velocity": 0.2283464566929134
        },
        {
          "duration": 0.023255813953483084,
          "durationTicks": 2,
          "midi": 56,
          "name": "G#3",
          "ticks": 10659,
          "time": 123.94186046511628,
          "velocity": 0.2440944881889764
        },
        {
          "duration": 0.1860465116279073,
          "durationTicks": 16,
          "midi": 78,
          "name": "F#5",
          "ticks": 10659,
          "time": 123.94186046511628,
          "velocity": 0.28346456692913385
        },
        {
          "duration": 0.30232558139533694,
          "durationTicks": 26,
          "midi": 58,
          "name": "A#3",
          "ticks": 10662,
          "time": 123.97674418604652,
          "velocity": 0.2283464566929134
        },
        {
          "duration": 0.03488372093023884,
          "durationTicks": 3,
          "midi": 43,
          "name": "G2",
          "ticks": 10665,
          "time": 124.01162790697674,
          "velocity": 0.12598425196850394
        },
        {
          "duration": 0.081395348837205,
          "durationTicks": 7,
          "midi": 77,
          "name": "F5",
          "ticks": 10675,
          "time": 124.12790697674419,
          "velocity": 0.14960629921259844
        },
        {
          "duration": 0.22093023255814614,
          "durationTicks": 19,
          "midi": 61,
          "name": "C#4",
          "ticks": 10680,
          "time": 124.18604651162791,
          "velocity": 0.2204724409448819
        },
        {
          "duration": 0.3372093023255758,
          "durationTicks": 29,
          "midi": 54,
          "name": "F#3",
          "ticks": 10690,
          "time": 124.30232558139535,
          "velocity": 0.25196850393700787
        },
        {
          "duration": 0.1046511627907023,
          "durationTicks": 9,
          "midi": 58,
          "name": "A#3",
          "ticks": 10698,
          "time": 124.3953488372093,
          "velocity": 0.11023622047244094
        },
        {
          "duration": 0.08139534883721922,
          "durationTicks": 7,
          "midi": 61,
          "name": "C#4",
          "ticks": 10714,
          "time": 124.5813953488372,
          "velocity": 0.14173228346456693
        },
        {
          "duration": 0.33720930232559,
          "durationTicks": 29,
          "midi": 58,
          "name": "A#3",
          "ticks": 10720,
          "time": 124.65116279069767,
          "velocity": 0.2755905511811024
        },
        {
          "duration": 0.03488372093023884,
          "durationTicks": 3,
          "midi": 43,
          "name": "G2",
          "ticks": 10725,
          "time": 124.70930232558139,
          "velocity": 0.07874015748031496
        },
        {
          "duration": 0.13953488372092693,
          "durationTicks": 12,
          "midi": 61,
          "name": "C#4",
          "ticks": 10750,
          "time": 125,
          "velocity": 0.1889763779527559
        },
        {
          "duration": 0.13953488372092693,
          "durationTicks": 12,
          "midi": 61,
          "name": "C#4",
          "ticks": 10771,
          "time": 125.24418604651163,
          "velocity": 0.1968503937007874
        },
        {
          "duration": 0.023255813953483084,
          "durationTicks": 2,
          "midi": 57,
          "name": "A3",
          "ticks": 10775,
          "time": 125.29069767441861,
          "velocity": 0.2283464566929134
        },
        {
          "duration": 0.023255813953483084,
          "durationTicks": 2,
          "midi": 55,
          "name": "G3",
          "ticks": 10777,
          "time": 125.31395348837209,
          "velocity": 0.33858267716535434
        },
        {
          "duration": 0.034883720930224626,
          "durationTicks": 3,
          "midi": 58,
          "name": "A#3",
          "ticks": 10780,
          "time": 125.34883720930233,
          "velocity": 0.1968503937007874
        },
        {
          "duration": 0.1046511627907023,
          "durationTicks": 9,
          "midi": 58,
          "name": "A#3",
          "ticks": 10784,
          "time": 125.3953488372093,
          "velocity": 0.1968503937007874
        },
        {
          "duration": 0.03488372093023884,
          "durationTicks": 3,
          "midi": 61,
          "name": "C#4",
          "ticks": 10784,
          "time": 125.3953488372093,
          "velocity": 0.1889763779527559
        },
        {
          "duration": 0.13953488372094114,
          "durationTicks": 12,
          "midi": 61,
          "name": "C#4",
          "ticks": 10790,
          "time": 125.46511627906976,
          "velocity": 0.15748031496062992
        },
        {
          "duration": 0.04651162790698038,
          "durationTicks": 4,
          "midi": 55,
          "name": "G3",
          "ticks": 10793,
          "time": 125.5,
          "velocity": 0.10236220472440945
        },
        {
          "duration": 0.17441860465116577,
          "durationTicks": 15,
          "midi": 57,
          "name": "A3",
          "ticks": 10806,
          "time": 125.65116279069767,
          "velocity": 0.31496062992125984
        },
        {
          "duration": 0.04651162790698038,
          "durationTicks": 4,
          "midi": 61,
          "name": "C#4",
          "ticks": 10809,
          "time": 125.68604651162791,
          "velocity": 0.07086614173228346
        },
        {
          "duration": 0.081395348837205,
          "durationTicks": 7,
          "midi": 45,
          "name": "A2",
          "ticks": 10813,
          "time": 125.73255813953489,
          "velocity": 0.11023622047244094
        },
        {
          "duration": 0.09302325581396076,
          "durationTicks": 8,
          "midi": 45,
          "name": "A2",
          "ticks": 10826,
          "time": 125.88372093023256,
          "velocity": 0.07874015748031496
        },
        {
          "duration": 0.06976744186046346,
          "durationTicks": 6,
          "midi": 61,
          "name": "C#4",
          "ticks": 10829,
          "time": 125.9186046511628,
          "velocity": 0.11023622047244094
        },
        {
          "duration": 0.034883720930224626,
          "durationTicks": 3,
          "midi": 56,
          "name": "G#3",
          "ticks": 10835,
          "time": 125.98837209302326,
          "velocity": 0.14960629921259844
        },
        {
          "duration": 0.25581395348837077,
          "durationTicks": 22,
          "midi": 61,
          "name": "C#4",
          "ticks": 10836,
          "time": 126,
          "velocity": 0.2125984251968504
        },
        {
          "duration": 0.22093023255814614,
          "durationTicks": 19,
          "midi": 66,
          "name": "F#4",
          "ticks": 10836,
          "time": 126,
          "velocity": 0.2125984251968504
        },
        {
          "duration": 0.04651162790696617,
          "durationTicks": 4,
          "midi": 57,
          "name": "A3",
          "ticks": 10840,
          "time": 126.04651162790698,
          "velocity": 0.11023622047244094
        },
        {
          "duration": 0.2325581395348877,
          "durationTicks": 20,
          "midi": 45,
          "name": "A2",
          "ticks": 10844,
          "time": 126.09302325581395,
          "velocity": 0.12598425196850394
        },
        {
          "duration": 0.08139534883721922,
          "durationTicks": 7,
          "midi": 63,
          "name": "D#4",
          "ticks": 10860,
          "time": 126.27906976744185,
          "velocity": 0.14173228346456693
        },
        {
          "duration": 0.03488372093023884,
          "durationTicks": 3,
          "midi": 55,
          "name": "G3",
          "ticks": 10865,
          "time": 126.33720930232558,
          "velocity": 0.28346456692913385
        },
        {
          "duration": 0.11627906976742963,
          "durationTicks": 10,
          "midi": 70,
          "name": "A#4",
          "ticks": 10866,
          "time": 126.34883720930233,
          "velocity": 0.12598425196850394
        },
        {
          "duration": 0.19767441860464885,
          "durationTicks": 17,
          "midi": 45,
          "name": "A2",
          "ticks": 10867,
          "time": 126.36046511627907,
          "velocity": 0.09448818897637795
        },
        {
          "duration": 0.5232558139534831,
          "durationTicks": 45,
          "midi": 61,
          "name": "C#4",
          "ticks": 10867,
          "time": 126.36046511627907,
          "velocity": 0.2440944881889764
        },
        {
          "duration": 0.13953488372092693,
          "durationTicks": 12,
          "midi": 57,
          "name": "A3",
          "ticks": 10872,
          "time": 126.4186046511628,
          "velocity": 0.12598425196850394
        },
        {
          "duration": 0.12790697674418539,
          "durationTicks": 11,
          "midi": 70,
          "name": "A#4",
          "ticks": 10898,
          "time": 126.72093023255815,
          "velocity": 0.13385826771653545
        },
        {
          "duration": 0.034883720930224626,
          "durationTicks": 3,
          "midi": 44,
          "name": "G#2",
          "ticks": 10920,
          "time": 126.97674418604652,
          "velocity": 0.10236220472440945
        },
        {
          "duration": 0.4767441860465169,
          "durationTicks": 41,
          "midi": 66,
          "name": "F#4",
          "ticks": 10923,
          "time": 127.01162790697674,
          "velocity": 0.2125984251968504
        },
        {
          "duration": 0.19767441860466306,
          "durationTicks": 17,
          "midi": 56,
          "name": "G#3",
          "ticks": 10924,
          "time": 127.02325581395348,
          "velocity": 0.2677165354330709
        },
        {
          "duration": 0.45348837209303383,
          "durationTicks": 39,
          "midi": 59,
          "name": "B3",
          "ticks": 10940,
          "time": 127.20930232558139,
          "velocity": 0.25196850393700787
        },
        {
          "duration": 0.081395348837205,
          "durationTicks": 7,
          "midi": 63,
          "name": "D#4",
          "ticks": 10974,
          "time": 127.6046511627907,
          "velocity": 0.11811023622047244
        },
        {
          "duration": 0.25581395348837077,
          "durationTicks": 22,
          "midi": 66,
          "name": "F#4",
          "ticks": 10986,
          "time": 127.74418604651163,
          "velocity": 0.15748031496062992
        },
        {
          "duration": 0.11627906976744384,
          "durationTicks": 10,
          "midi": 59,
          "name": "B3",
          "ticks": 10987,
          "time": 127.75581395348837,
          "velocity": 0.2125984251968504
        },
        {
          "duration": 0.09302325581396076,
          "durationTicks": 8,
          "midi": 44,
          "name": "G#2",
          "ticks": 10988,
          "time": 127.76744186046511,
          "velocity": 0.07874015748031496
        },
        {
          "duration": 0.13953488372092693,
          "durationTicks": 12,
          "midi": 63,
          "name": "D#4",
          "ticks": 10992,
          "time": 127.81395348837209,
          "velocity": 0.08661417322834646
        },
        {
          "duration": 0.19767441860464885,
          "durationTicks": 17,
          "midi": 59,
          "name": "B3",
          "ticks": 11001,
          "time": 127.9186046511628,
          "velocity": 0.2677165354330709
        },
        {
          "duration": 0.2674418604651123,
          "durationTicks": 23,
          "midi": 70,
          "name": "A#4",
          "ticks": 11016,
          "time": 128.09302325581396,
          "velocity": 0.12598425196850394
        },
        {
          "duration": 0.1046511627907023,
          "durationTicks": 9,
          "midi": 59,
          "name": "B3",
          "ticks": 11019,
          "time": 128.12790697674419,
          "velocity": 0.2440944881889764
        },
        {
          "duration": 0.4651162790697754,
          "durationTicks": 40,
          "midi": 66,
          "name": "F#4",
          "ticks": 11041,
          "time": 128.38372093023256,
          "velocity": 0.25196850393700787
        },
        {
          "duration": 0.6395348837209269,
          "durationTicks": 55,
          "midi": 54,
          "name": "F#3",
          "ticks": 11042,
          "time": 128.3953488372093,
          "velocity": 0.4330708661417323
        },
        {
          "duration": 0.04651162790696617,
          "durationTicks": 4,
          "midi": 58,
          "name": "A#3",
          "ticks": 11071,
          "time": 128.7325581395349,
          "velocity": 0.25196850393700787
        },
        {
          "duration": 0.11627906976744384,
          "durationTicks": 10,
          "midi": 61,
          "name": "C#4",
          "ticks": 11088,
          "time": 128.93023255813952,
          "velocity": 0.12598425196850394
        },
        {
          "duration": 0.13953488372092693,
          "durationTicks": 12,
          "midi": 58,
          "name": "A#3",
          "ticks": 11089,
          "time": 128.9418604651163,
          "velocity": 0.16535433070866143
        },
        {
          "duration": 0.25581395348837077,
          "durationTicks": 22,
          "midi": 66,
          "name": "F#4",
          "ticks": 11101,
          "time": 129.08139534883722,
          "velocity": 0.15748031496062992
        },
        {
          "duration": 0.5348837209302246,
          "durationTicks": 46,
          "midi": 54,
          "name": "F#3",
          "ticks": 11103,
          "time": 129.1046511627907,
          "velocity": 0.33070866141732286
        },
        {
          "duration": 0.03488372093025305,
          "durationTicks": 3,
          "midi": 44,
          "name": "G#2",
          "ticks": 11130,
          "time": 129.41860465116278,
          "velocity": 0.16535433070866143
        },
        {
          "duration": 0.03488372093025305,
          "durationTicks": 3,
          "midi": 58,
          "name": "A#3",
          "ticks": 11130,
          "time": 129.41860465116278,
          "velocity": 0.25196850393700787
        },
        {
          "duration": 0.04651162790696617,
          "durationTicks": 4,
          "midi": 58,
          "name": "A#3",
          "ticks": 11136,
          "time": 129.48837209302326,
          "velocity": 0.2283464566929134
        },
        {
          "duration": 0.04651162790696617,
          "durationTicks": 4,
          "midi": 58,
          "name": "A#3",
          "ticks": 11143,
          "time": 129.56976744186048,
          "velocity": 0.1889763779527559
        },
        {
          "duration": 0.023255813953483084,
          "durationTicks": 2,
          "midi": 55,
          "name": "G3",
          "ticks": 11149,
          "time": 129.63953488372093,
          "velocity": 0.2283464566929134
        },
        {
          "duration": 0.06976744186047767,
          "durationTicks": 6,
          "midi": 54,
          "name": "F#3",
          "ticks": 11151,
          "time": 129.6627906976744,
          "velocity": 0.1968503937007874
        },
        {
          "duration": 0.034883720930224626,
          "durationTicks": 3,
          "midi": 57,
          "name": "A3",
          "ticks": 11157,
          "time": 129.7325581395349,
          "velocity": 0.1968503937007874
        },
        {
          "duration": 0.7441860465116292,
          "durationTicks": 64,
          "midi": 70,
          "name": "A#4",
          "ticks": 11158,
          "time": 129.74418604651163,
          "velocity": 0.14960629921259844
        },
        {
          "duration": 0.05813953488373613,
          "durationTicks": 5,
          "midi": 44,
          "name": "G#2",
          "ticks": 11160,
          "time": 129.7674418604651,
          "velocity": 0.1968503937007874
        },
        {
          "duration": 0.6976744186046631,
          "durationTicks": 60,
          "midi": 66,
          "name": "F#4",
          "ticks": 11160,
          "time": 129.7674418604651,
          "velocity": 0.2992125984251969
        },
        {
          "duration": 0.30232558139536536,
          "durationTicks": 26,
          "midi": 58,
          "name": "A#3",
          "ticks": 11162,
          "time": 129.7906976744186,
          "velocity": 0.18110236220472442
        },
        {
          "duration": 0.034883720930224626,
          "durationTicks": 3,
          "midi": 44,
          "name": "G#2",
          "ticks": 11169,
          "time": 129.87209302325581,
          "velocity": 0.11023622047244094
        },
        {
          "duration": 0.3139534883720785,
          "durationTicks": 27,
          "midi": 58,
          "name": "A#3",
          "ticks": 11189,
          "time": 130.1046511627907,
          "velocity": 0.1889763779527559
        },
        {
          "duration": 0.034883720930224626,
          "durationTicks": 3,
          "midi": 55,
          "name": "G3",
          "ticks": 11219,
          "time": 130.45348837209303,
          "velocity": 0.33858267716535434
        },
        {
          "duration": 0.4651162790697754,
          "durationTicks": 40,
          "midi": 66,
          "name": "F#4",
          "ticks": 11221,
          "time": 130.47674418604652,
          "velocity": 0.3228346456692913
        },
        {
          "duration": 0.04651162790696617,
          "durationTicks": 4,
          "midi": 54,
          "name": "F#3",
          "ticks": 11234,
          "time": 130.62790697674419,
          "velocity": 0.25984251968503935
        },
        {
          "duration": 0.023255813953511506,
          "durationTicks": 2,
          "midi": 55,
          "name": "G3",
          "ticks": 11238,
          "time": 130.67441860465115,
          "velocity": 0.2992125984251969
        },
        {
          "duration": 0.06976744186044925,
          "durationTicks": 6,
          "midi": 54,
          "name": "F#3",
          "ticks": 11241,
          "time": 130.7093023255814,
          "velocity": 0.13385826771653545
        },
        {
          "duration": 0.034883720930224626,
          "durationTicks": 3,
          "midi": 58,
          "name": "A#3",
          "ticks": 11246,
          "time": 130.7674418604651,
          "velocity": 0.15748031496062992
        },
        {
          "duration": 0.03488372093025305,
          "durationTicks": 3,
          "midi": 44,
          "name": "G#2",
          "ticks": 11248,
          "time": 130.7906976744186,
          "velocity": 0.11811023622047244
        },
        {
          "duration": 0.05813953488370771,
          "durationTicks": 5,
          "midi": 58,
          "name": "A#3",
          "ticks": 11250,
          "time": 130.8139534883721,
          "velocity": 0.15748031496062992
        },
        {
          "duration": 0.023255813953483084,
          "durationTicks": 2,
          "midi": 55,
          "name": "G3",
          "ticks": 11256,
          "time": 130.88372093023256,
          "velocity": 0.33858267716535434
        },
        {
          "duration": 0.04651162790699459,
          "durationTicks": 4,
          "midi": 58,
          "name": "A#3",
          "ticks": 11259,
          "time": 130.91860465116278,
          "velocity": 0.09448818897637795
        },
        {
          "duration": 0.11627906976744384,
          "durationTicks": 10,
          "midi": 68,
          "name": "G#4",
          "ticks": 11259,
          "time": 130.91860465116278,
          "velocity": 0.13385826771653545
        },
        {
          "duration": 0.11627906976744384,
          "durationTicks": 10,
          "midi": 66,
          "name": "F#4",
          "ticks": 11269,
          "time": 131.03488372093022,
          "velocity": 0.1732283464566929
        },
        {
          "duration": 0.023255813953483084,
          "durationTicks": 2,
          "midi": 44,
          "name": "G#2",
          "ticks": 11275,
          "time": 131.1046511627907,
          "velocity": 0.2440944881889764
        },
        {
          "duration": 1.302325581395337,
          "durationTicks": 112,
          "midi": 45,
          "name": "A2",
          "ticks": 11277,
          "time": 131.12790697674419,
          "velocity": 0.3700787401574803
        },
        {
          "duration": 1.2790697674418539,
          "durationTicks": 110,
          "midi": 61,
          "name": "C#4",
          "ticks": 11277,
          "time": 131.12790697674419,
          "velocity": 0.33070866141732286
        },
        {
          "duration": 0.05813953488373613,
          "durationTicks": 5,
          "midi": 36,
          "name": "C2",
          "ticks": 11278,
          "time": 131.13953488372093,
          "velocity": 0.3543307086614173
        },
        {
          "duration": 0.04651162790699459,
          "durationTicks": 4,
          "midi": 68,
          "name": "G#4",
          "ticks": 11280,
          "time": 131.1627906976744,
          "velocity": 0.07086614173228346
        },
        {
          "duration": 0.023255813953483084,
          "durationTicks": 2,
          "midi": 35,
          "name": "B1",
          "ticks": 11283,
          "time": 131.19767441860466,
          "velocity": 0.2755905511811024
        },
        {
          "duration": 0.04651162790696617,
          "durationTicks": 4,
          "midi": 52,
          "name": "E3",
          "ticks": 11287,
          "time": 131.24418604651163,
          "velocity": 0.15748031496062992
        },
        {
          "duration": 0.023255813953483084,
          "durationTicks": 2,
          "midi": 33,
          "name": "A1",
          "ticks": 11290,
          "time": 131.27906976744185,
          "velocity": 0.23622047244094488
        },
        {
          "duration": 0.17441860465117998,
          "durationTicks": 15,
          "midi": 52,
          "name": "E3",
          "ticks": 11292,
          "time": 131.30232558139534,
          "velocity": 0.1732283464566929
        },
        {
          "duration": 0.16279069767441,
          "durationTicks": 14,
          "midi": 64,
          "name": "E4",
          "ticks": 11306,
          "time": 131.46511627906978,
          "velocity": 0.25984251968503935
        },
        {
          "duration": 0.3139534883720785,
          "durationTicks": 27,
          "midi": 52,
          "name": "E3",
          "ticks": 11308,
          "time": 131.48837209302326,
          "velocity": 0.1889763779527559
        },
        {
          "duration": 0.08139534883721922,
          "durationTicks": 7,
          "midi": 64,
          "name": "E4",
          "ticks": 11322,
          "time": 131.65116279069767,
          "velocity": 0.2440944881889764
        },
        {
          "duration": 0.034883720930224626,
          "durationTicks": 3,
          "midi": 70,
          "name": "A#4",
          "ticks": 11336,
          "time": 131.8139534883721,
          "velocity": 0.11811023622047244
        },
        {
          "duration": 0.27906976744185386,
          "durationTicks": 24,
          "midi": 52,
          "name": "E3",
          "ticks": 11341,
          "time": 131.87209302325581,
          "velocity": 0.15748031496062992
        },
        {
          "duration": 0.18604651162792152,
          "durationTicks": 16,
          "midi": 56,
          "name": "G#3",
          "ticks": 11365,
          "time": 132.15116279069767,
          "velocity": 0.28346456692913385
        },
        {
          "duration": 0.04651162790696617,
          "durationTicks": 4,
          "midi": 36,
          "name": "C2",
          "ticks": 11391,
          "time": 132.45348837209303,
          "velocity": 0.14960629921259844
        },
        {
          "duration": 0.034883720930224626,
          "durationTicks": 3,
          "midi": 61,
          "name": "C#4",
          "ticks": 11393,
          "time": 132.47674418604652,
          "velocity": 0.1732283464566929
        },
        {
          "duration": 0.16279069767441,
          "durationTicks": 14,
          "midi": 90,
          "name": "F#6",
          "ticks": 11397,
          "time": 132.52325581395348,
          "velocity": 0.12598425196850394
        },
        {
          "duration": 0.2790697674418823,
          "durationTicks": 24,
          "midi": 47,
          "name": "B2",
          "ticks": 11398,
          "time": 132.53488372093022,
          "velocity": 0.3464566929133858
        },
        {
          "duration": 0.13953488372092693,
          "durationTicks": 12,
          "midi": 71,
          "name": "B4",
          "ticks": 11398,
          "time": 132.53488372093022,
          "velocity": 0.11023622047244094
        },
        {
          "duration": 0.09302325581396076,
          "durationTicks": 8,
          "midi": 56,
          "name": "G#3",
          "ticks": 11399,
          "time": 132.54651162790697,
          "velocity": 0.29133858267716534
        },
        {
          "duration": 0.03488372093025305,
          "durationTicks": 3,
          "midi": 62,
          "name": "D4",
          "ticks": 11399,
          "time": 132.54651162790697,
          "velocity": 0.3228346456692913
        },
        {
          "duration": 0.25581395348837077,
          "durationTicks": 22,
          "midi": 35,
          "name": "B1",
          "ticks": 11401,
          "time": 132.56976744186048,
          "velocity": 0.2204724409448819
        },
        {
          "duration": 1.2209302325581177,
          "durationTicks": 105,
          "midi": 63,
          "name": "D#4",
          "ticks": 11402,
          "time": 132.58139534883722,
          "velocity": 0.3228346456692913
        },
        {
          "duration": 0.034883720930224626,
          "durationTicks": 3,
          "midi": 55,
          "name": "G3",
          "ticks": 11414,
          "time": 132.72093023255815,
          "velocity": 0.16535433070866143
        },
        {
          "duration": 0.023255813953483084,
          "durationTicks": 2,
          "midi": 46,
          "name": "A#2",
          "ticks": 11424,
          "time": 132.8372093023256,
          "velocity": 0.2992125984251969
        },
        {
          "duration": 0.06976744186044925,
          "durationTicks": 6,
          "midi": 35,
          "name": "B1",
          "ticks": 11426,
          "time": 132.86046511627907,
          "velocity": 0.4094488188976378
        },
        {
          "duration": 0.1046511627907023,
          "durationTicks": 9,
          "midi": 59,
          "name": "B3",
          "ticks": 11427,
          "time": 132.87209302325581,
          "velocity": 0.12598425196850394
        },
        {
          "duration": 0.03488372093025305,
          "durationTicks": 3,
          "midi": 34,
          "name": "A#1",
          "ticks": 11432,
          "time": 132.93023255813952,
          "velocity": 0.2755905511811024
        },
        {
          "duration": 0.13953488372092693,
          "durationTicks": 12,
          "midi": 47,
          "name": "B2",
          "ticks": 11433,
          "time": 132.9418604651163,
          "velocity": 0.25196850393700787
        },
        {
          "duration": 0.09302325581393234,
          "durationTicks": 8,
          "midi": 54,
          "name": "F#3",
          "ticks": 11435,
          "time": 132.96511627906978,
          "velocity": 0.08661417322834646
        },
        {
          "duration": 0.09302325581396076,
          "durationTicks": 8,
          "midi": 34,
          "name": "A#1",
          "ticks": 11437,
          "time": 132.98837209302326,
          "velocity": 0.28346456692913385
        },
        {
          "duration": 0.06976744186044925,
          "durationTicks": 6,
          "midi": 47,
          "name": "B2",
          "ticks": 11446,
          "time": 133.09302325581396,
          "velocity": 0.16535433070866143
        },
        {
          "duration": 0.023255813953483084,
          "durationTicks": 2,
          "midi": 35,
          "name": "B1",
          "ticks": 11451,
          "time": 133.15116279069767,
          "velocity": 0.25196850393700787
        },
        {
          "duration": 0.03488372093025305,
          "durationTicks": 3,
          "midi": 55,
          "name": "G3",
          "ticks": 11452,
          "time": 133.1627906976744,
          "velocity": 0.30708661417322836
        },
        {
          "duration": 0.2325581395348877,
          "durationTicks": 20,
          "midi": 68,
          "name": "G#4",
          "ticks": 11454,
          "time": 133.1860465116279,
          "velocity": 0.2047244094488189
        },
        {
          "duration": 0.03488372093025305,
          "durationTicks": 3,
          "midi": 71,
          "name": "B4",
          "ticks": 11454,
          "time": 133.1860465116279,
          "velocity": 0.10236220472440945
        },
        {
          "duration": 0.034883720930224626,
          "durationTicks": 3,
          "midi": 36,
          "name": "C2",
          "ticks": 11455,
          "time": 133.19767441860466,
          "velocity": 0.1889763779527559
        },
        {
          "duration": 0.034883720930224626,
          "durationTicks": 3,
          "midi": 45,
          "name": "A2",
          "ticks": 11455,
          "time": 133.19767441860466,
          "velocity": 0.2204724409448819
        },
        {
          "duration": 0.023255813953483084,
          "durationTicks": 2,
          "midi": 53,
          "name": "F3",
          "ticks": 11455,
          "time": 133.19767441860466,
          "velocity": 0.25196850393700787
        },
        {
          "duration": 0.06976744186044925,
          "durationTicks": 6,
          "midi": 56,
          "name": "G#3",
          "ticks": 11457,
          "time": 133.22093023255815,
          "velocity": 0.28346456692913385
        },
        {
          "duration": 0.3139534883720785,
          "durationTicks": 27,
          "midi": 35,
          "name": "B1",
          "ticks": 11458,
          "time": 133.2325581395349,
          "velocity": 0.2204724409448819
        },
        {
          "duration": 0.03488372093025305,
          "durationTicks": 3,
          "midi": 56,
          "name": "G#3",
          "ticks": 11464,
          "time": 133.30232558139534,
          "velocity": 0.1968503937007874
        },
        {
          "duration": 0.034883720930224626,
          "durationTicks": 3,
          "midi": 59,
          "name": "B3",
          "ticks": 11471,
          "time": 133.38372093023256,
          "velocity": 0.08661417322834646
        },
        {
          "duration": 0.04651162790699459,
          "durationTicks": 4,
          "midi": 71,
          "name": "B4",
          "ticks": 11484,
          "time": 133.53488372093022,
          "velocity": 0.08661417322834646
        },
        {
          "duration": 0.15116279069766847,
          "durationTicks": 13,
          "midi": 90,
          "name": "F#6",
          "ticks": 11484,
          "time": 133.53488372093022,
          "velocity": 0.14173228346456693
        },
        {
          "duration": 0.2325581395348877,
          "durationTicks": 20,
          "midi": 59,
          "name": "B3",
          "ticks": 11485,
          "time": 133.54651162790697,
          "velocity": 0.1968503937007874
        },
        {
          "duration": 0.11627906976744384,
          "durationTicks": 10,
          "midi": 35,
          "name": "B1",
          "ticks": 11486,
          "time": 133.5581395348837,
          "velocity": 0.2047244094488189
        },
        {
          "duration": 0.6860465116278931,
          "durationTicks": 59,
          "midi": 58,
          "name": "A#3",
          "ticks": 11511,
          "time": 133.84883720930233,
          "velocity": 0.3779527559055118
        },
        {
          "duration": 0.034883720930224626,
          "durationTicks": 3,
          "midi": 54,
          "name": "F#3",
          "ticks": 11514,
          "time": 133.88372093023256,
          "velocity": 0.2992125984251969
        },
        {
          "duration": 0.023255813953483084,
          "durationTicks": 2,
          "midi": 40,
          "name": "E2",
          "ticks": 11516,
          "time": 133.90697674418604,
          "velocity": 0.3700787401574803
        },
        {
          "duration": 0.023255813953511506,
          "durationTicks": 2,
          "midi": 42,
          "name": "F#2",
          "ticks": 11518,
          "time": 133.93023255813952,
          "velocity": 0.3858267716535433
        },
        {
          "duration": 0.023255813953483084,
          "durationTicks": 2,
          "midi": 43,
          "name": "G2",
          "ticks": 11520,
          "time": 133.95348837209303,
          "velocity": 0.33070866141732286
        },
        {
          "duration": 0.04651162790699459,
          "durationTicks": 4,
          "midi": 42,
          "name": "F#2",
          "ticks": 11526,
          "time": 134.02325581395348,
          "velocity": 0.3543307086614173
        },
        {
          "duration": 1.0465116279069662,
          "durationTicks": 90,
          "midi": 42,
          "name": "F#2",
          "ticks": 11531,
          "time": 134.08139534883722,
          "velocity": 0.3779527559055118
        },
        {
          "duration": 0.023255813953483084,
          "durationTicks": 2,
          "midi": 55,
          "name": "G3",
          "ticks": 11570,
          "time": 134.53488372093022,
          "velocity": 0.2755905511811024
        },
        {
          "duration": 0.5,
          "durationTicks": 43,
          "midi": 58,
          "name": "A#3",
          "ticks": 11572,
          "time": 134.5581395348837,
          "velocity": 0.3464566929133858
        },
        {
          "duration": 0.30232558139533694,
          "durationTicks": 26,
          "midi": 66,
          "name": "F#4",
          "ticks": 11599,
          "time": 134.87209302325581,
          "velocity": 0.25196850393700787
        },
        {
          "duration": 0.19767441860463464,
          "durationTicks": 17,
          "midi": 58,
          "name": "A#3",
          "ticks": 11616,
          "time": 135.06976744186048,
          "velocity": 0.25984251968503935
        },
        {
          "duration": 0.6046511627907023,
          "durationTicks": 52,
          "midi": 63,
          "name": "D#4",
          "ticks": 11629,
          "time": 135.22093023255815,
          "velocity": 0.31496062992125984
        },
        {
          "duration": 0.023255813953483084,
          "durationTicks": 2,
          "midi": 52,
          "name": "E3",
          "ticks": 11630,
          "time": 135.2325581395349,
          "velocity": 0.2755905511811024
        },
        {
          "duration": 0.023255813953483084,
          "durationTicks": 2,
          "midi": 38,
          "name": "D2",
          "ticks": 11632,
          "time": 135.25581395348837,
          "velocity": 0.3228346456692913
        },
        {
          "duration": 0.1046511627907023,
          "durationTicks": 9,
          "midi": 51,
          "name": "D#3",
          "ticks": 11632,
          "time": 135.25581395348837,
          "velocity": 0.31496062992125984
        },
        {
          "duration": 0.023255813953483084,
          "durationTicks": 2,
          "midi": 57,
          "name": "A3",
          "ticks": 11633,
          "time": 135.2674418604651,
          "velocity": 0.33858267716535434
        },
        {
          "duration": 0.023255813953511506,
          "durationTicks": 2,
          "midi": 39,
          "name": "D#2",
          "ticks": 11635,
          "time": 135.2906976744186,
          "velocity": 0.36220472440944884
        },
        {
          "duration": 0.11627906976744384,
          "durationTicks": 10,
          "midi": 56,
          "name": "G#3",
          "ticks": 11638,
          "time": 135.32558139534885,
          "velocity": 0.31496062992125984
        },
        {
          "duration": 0.023255813953483084,
          "durationTicks": 2,
          "midi": 39,
          "name": "D#2",
          "ticks": 11641,
          "time": 135.36046511627907,
          "velocity": 0.3464566929133858
        },
        {
          "duration": 0.06976744186047767,
          "durationTicks": 6,
          "midi": 51,
          "name": "D#3",
          "ticks": 11647,
          "time": 135.43023255813952,
          "velocity": 0.14960629921259844
        },
        {
          "duration": 0.034883720930224626,
          "durationTicks": 3,
          "midi": 39,
          "name": "D#2",
          "ticks": 11648,
          "time": 135.4418604651163,
          "velocity": 0.33070866141732286
        },
        {
          "duration": 0.023255813953483084,
          "durationTicks": 2,
          "midi": 57,
          "name": "A3",
          "ticks": 11648,
          "time": 135.4418604651163,
          "velocity": 0.2755905511811024
        },
        {
          "duration": 0.023255813953483084,
          "durationTicks": 2,
          "midi": 56,
          "name": "G#3",
          "ticks": 11649,
          "time": 135.45348837209303,
          "velocity": 0.2283464566929134
        },
        {
          "duration": 0.023255813953483084,
          "durationTicks": 2,
          "midi": 57,
          "name": "A3",
          "ticks": 11651,
          "time": 135.47674418604652,
          "velocity": 0.2755905511811024
        },
        {
          "duration": 0.023255813953483084,
          "durationTicks": 2,
          "midi": 40,
          "name": "E2",
          "ticks": 11652,
          "time": 135.48837209302326,
          "velocity": 0.3543307086614173
        },
        {
          "duration": 0.023255813953483084,
          "durationTicks": 2,
          "midi": 56,
          "name": "G#3",
          "ticks": 11653,
          "time": 135.5,
          "velocity": 0.2755905511811024
        },
        {
          "duration": 0.023255813953483084,
          "durationTicks": 2,
          "midi": 39,
          "name": "D#2",
          "ticks": 11654,
          "time": 135.51162790697674,
          "velocity": 0.3228346456692913
        },
        {
          "duration": 0.1860465116278931,
          "durationTicks": 16,
          "midi": 58,
          "name": "A#3",
          "ticks": 11659,
          "time": 135.56976744186048,
          "velocity": 0.25984251968503935
        },
        {
          "duration": 0.2325581395348877,
          "durationTicks": 20,
          "midi": 51,
          "name": "D#3",
          "ticks": 11661,
          "time": 135.59302325581396,
          "velocity": 0.23622047244094488
        },
        {
          "duration": 0.023255813953483084,
          "durationTicks": 2,
          "midi": 37,
          "name": "C#2",
          "ticks": 11662,
          "time": 135.6046511627907,
          "velocity": 0.4409448818897638
        },
        {
          "duration": 0.023255813953483084,
          "durationTicks": 2,
          "midi": 37,
          "name": "C#2",
          "ticks": 11666,
          "time": 135.65116279069767,
          "velocity": 0.3779527559055118
        },
        {
          "duration": 0.023255813953483084,
          "durationTicks": 2,
          "midi": 39,
          "name": "D#2",
          "ticks": 11672,
          "time": 135.72093023255815,
          "velocity": 0.31496062992125984
        },
        {
          "duration": 0.023255813953483084,
          "durationTicks": 2,
          "midi": 40,
          "name": "E2",
          "ticks": 11676,
          "time": 135.7674418604651,
          "velocity": 0.3228346456692913
        },
        {
          "duration": 0.023255813953483084,
          "durationTicks": 2,
          "midi": 39,
          "name": "D#2",
          "ticks": 11683,
          "time": 135.84883720930233,
          "velocity": 0.2755905511811024
        },
        {
          "duration": 0.023255813953483084,
          "durationTicks": 2,
          "midi": 37,
          "name": "C#2",
          "ticks": 11685,
          "time": 135.87209302325581,
          "velocity": 0.2992125984251969
        },
        {
          "duration": 0.2906976744185954,
          "durationTicks": 25,
          "midi": 63,
          "name": "D#4",
          "ticks": 11687,
          "time": 135.8953488372093,
          "velocity": 0.29133858267716534
        },
        {
          "duration": 0.034883720930224626,
          "durationTicks": 3,
          "midi": 49,
          "name": "C#3",
          "ticks": 11692,
          "time": 135.95348837209303,
          "velocity": 0.28346456692913385
        },
        {
          "duration": 0.023255813953483084,
          "durationTicks": 2,
          "midi": 38,
          "name": "D2",
          "ticks": 11695,
          "time": 135.98837209302326,
          "velocity": 0.28346456692913385
        },
        {
          "duration": 0.034883720930224626,
          "durationTicks": 3,
          "midi": 50,
          "name": "D3",
          "ticks": 11695,
          "time": 135.98837209302326,
          "velocity": 0.33070866141732286
        },
        {
          "duration": 0.4186046511627808,
          "durationTicks": 36,
          "midi": 37,
          "name": "C#2",
          "ticks": 11697,
          "time": 136.01162790697674,
          "velocity": 0.31496062992125984
        },
        {
          "duration": 0.03488372093025305,
          "durationTicks": 3,
          "midi": 50,
          "name": "D3",
          "ticks": 11700,
          "time": 136.04651162790697,
          "velocity": 0.3228346456692913
        },
        {
          "duration": 0.08139534883721922,
          "durationTicks": 7,
          "midi": 58,
          "name": "A#3",
          "ticks": 11701,
          "time": 136.0581395348837,
          "velocity": 0.1968503937007874
        },
        {
          "duration": 0.023255813953483084,
          "durationTicks": 2,
          "midi": 50,
          "name": "D3",
          "ticks": 11707,
          "time": 136.12790697674419,
          "velocity": 0.2755905511811024
        },
        {
          "duration": 0.40697674418603924,
          "durationTicks": 35,
          "midi": 66,
          "name": "F#4",
          "ticks": 11717,
          "time": 136.24418604651163,
          "velocity": 0.2677165354330709
        },
        {
          "duration": 0.034883720930224626,
          "durationTicks": 3,
          "midi": 54,
          "name": "F#3",
          "ticks": 11719,
          "time": 136.2674418604651,
          "velocity": 0.2283464566929134
        },
        {
          "duration": 0.13953488372092693,
          "durationTicks": 12,
          "midi": 54,
          "name": "F#3",
          "ticks": 11723,
          "time": 136.3139534883721,
          "velocity": 0.2204724409448819
        },
        {
          "duration": 0.05813953488373613,
          "durationTicks": 5,
          "midi": 36,
          "name": "C2",
          "ticks": 11733,
          "time": 136.43023255813952,
          "velocity": 0.2755905511811024
        },
        {
          "duration": 0.09302325581393234,
          "durationTicks": 8,
          "midi": 54,
          "name": "F#3",
          "ticks": 11736,
          "time": 136.46511627906978,
          "velocity": 0.2204724409448819
        },
        {
          "duration": 0.034883720930224626,
          "durationTicks": 3,
          "midi": 35,
          "name": "B1",
          "ticks": 11738,
          "time": 136.48837209302326,
          "velocity": 0.1968503937007874
        },
        {
          "duration": 0.023255813953483084,
          "durationTicks": 2,
          "midi": 43,
          "name": "G2",
          "ticks": 11746,
          "time": 136.58139534883722,
          "velocity": 0.2677165354330709
        },
        {
          "duration": 0.27906976744185386,
          "durationTicks": 24,
          "midi": 57,
          "name": "A3",
          "ticks": 11746,
          "time": 136.58139534883722,
          "velocity": 0.2440944881889764
        },
        {
          "duration": 0.6511627906976685,
          "durationTicks": 56,
          "midi": 61,
          "name": "C#4",
          "ticks": 11747,
          "time": 136.59302325581396,
          "velocity": 0.31496062992125984
        },
        {
          "duration": 0.04651162790696617,
          "durationTicks": 4,
          "midi": 52,
          "name": "E3",
          "ticks": 11749,
          "time": 136.61627906976744,
          "velocity": 0.2204724409448819
        },
        {
          "duration": 1.16279069767441,
          "durationTicks": 100,
          "midi": 45,
          "name": "A2",
          "ticks": 11750,
          "time": 136.62790697674419,
          "velocity": 0.3858267716535433
        },
        {
          "duration": 0.04651162790696617,
          "durationTicks": 4,
          "midi": 34,
          "name": "A#1",
          "ticks": 11751,
          "time": 136.63953488372093,
          "velocity": 0.3464566929133858
        },
        {
          "duration": 0.5813953488372192,
          "durationTicks": 50,
          "midi": 52,
          "name": "E3",
          "ticks": 11754,
          "time": 136.67441860465115,
          "velocity": 0.2440944881889764
        },
        {
          "duration": 0.08139534883721922,
          "durationTicks": 7,
          "midi": 33,
          "name": "A1",
          "ticks": 11755,
          "time": 136.6860465116279,
          "velocity": 0.30708661417322836
        },
        {
          "duration": 0.04651162790696617,
          "durationTicks": 4,
          "midi": 76,
          "name": "E5",
          "ticks": 11778,
          "time": 136.95348837209303,
          "velocity": 0.11023622047244094
        },
        {
          "duration": 0.03488372093025305,
          "durationTicks": 3,
          "midi": 55,
          "name": "G3",
          "ticks": 11806,
          "time": 137.27906976744185,
          "velocity": 0.3228346456692913
        },
        {
          "duration": 0.034883720930224626,
          "durationTicks": 3,
          "midi": 56,
          "name": "G#3",
          "ticks": 11809,
          "time": 137.3139534883721,
          "velocity": 0.14960629921259844
        },
        {
          "duration": 0.04651162790696617,
          "durationTicks": 4,
          "midi": 95,
          "name": "B6",
          "ticks": 11809,
          "time": 137.3139534883721,
          "velocity": 0.12598425196850394
        },
        {
          "duration": 0.05813953488370771,
          "durationTicks": 5,
          "midi": 52,
          "name": "E3",
          "ticks": 11812,
          "time": 137.34883720930233,
          "velocity": 0.08661417322834646
        },
        {
          "duration": 0.4651162790697754,
          "durationTicks": 40,
          "midi": 61,
          "name": "C#4",
          "ticks": 11812,
          "time": 137.34883720930233,
          "velocity": 0.2125984251968504
        },
        {
          "duration": 0.05813953488373613,
          "durationTicks": 5,
          "midi": 52,
          "name": "E3",
          "ticks": 11826,
          "time": 137.51162790697674,
          "velocity": 0.11023622047244094
        },
        {
          "duration": 0.2093023255814046,
          "durationTicks": 18,
          "midi": 68,
          "name": "G#4",
          "ticks": 11834,
          "time": 137.6046511627907,
          "velocity": 0.1732283464566929
        },
        {
          "duration": 0.18604651162792152,
          "durationTicks": 16,
          "midi": 56,
          "name": "G#3",
          "ticks": 11837,
          "time": 137.63953488372093,
          "velocity": 0.30708661417322836
        },
        {
          "duration": 0.03488372093025305,
          "durationTicks": 3,
          "midi": 46,
          "name": "A#2",
          "ticks": 11850,
          "time": 137.7906976744186,
          "velocity": 0.2047244094488189
        },
        {
          "duration": 0.03488372093025305,
          "durationTicks": 3,
          "midi": 55,
          "name": "G3",
          "ticks": 11862,
          "time": 137.93023255813952,
          "velocity": 0.2125984251968504
        },
        {
          "duration": 0.4302325581395223,
          "durationTicks": 37,
          "midi": 66,
          "name": "F#4",
          "ticks": 11865,
          "time": 137.96511627906978,
          "velocity": 0.28346456692913385
        },
        {
          "duration": 0.2674418604651123,
          "durationTicks": 23,
          "midi": 90,
          "name": "F#6",
          "ticks": 11865,
          "time": 137.96511627906978,
          "velocity": 0.16535433070866143
        },
        {
          "duration": 0.34883720930233153,
          "durationTicks": 30,
          "midi": 44,
          "name": "G#2",
          "ticks": 11866,
          "time": 137.97674418604652,
          "velocity": 0.3937007874015748
        },
        {
          "duration": 0.12790697674418539,
          "durationTicks": 11,
          "midi": 71,
          "name": "B4",
          "ticks": 11866,
          "time": 137.97674418604652,
          "velocity": 0.18110236220472442
        },
        {
          "duration": 0.034883720930224626,
          "durationTicks": 3,
          "midi": 59,
          "name": "B3",
          "ticks": 11867,
          "time": 137.98837209302326,
          "velocity": 0.2204724409448819
        },
        {
          "duration": 0.034883720930224626,
          "durationTicks": 3,
          "midi": 63,
          "name": "D#4",
          "ticks": 11868,
          "time": 138,
          "velocity": 0.07086614173228346
        },
        {
          "duration": 0.03488372093025305,
          "durationTicks": 3,
          "midi": 59,
          "name": "B3",
          "ticks": 11883,
          "time": 138.17441860465115,
          "velocity": 0.13385826771653545
        },
        {
          "duration": 0.06976744186047767,
          "durationTicks": 6,
          "midi": 63,
          "name": "D#4",
          "ticks": 11884,
          "time": 138.1860465116279,
          "velocity": 0.07874015748031496
        },
        {
          "duration": 0.05813953488370771,
          "durationTicks": 5,
          "midi": 59,
          "name": "B3",
          "ticks": 11887,
          "time": 138.22093023255815,
          "velocity": 0.11023622047244094
        },
        {
          "duration": 0.03488372093025305,
          "durationTicks": 3,
          "midi": 63,
          "name": "D#4",
          "ticks": 11893,
          "time": 138.2906976744186,
          "velocity": 0.09448818897637795
        },
        {
          "duration": 0.023255813953483084,
          "durationTicks": 2,
          "midi": 36,
          "name": "C2",
          "ticks": 11896,
          "time": 138.32558139534885,
          "velocity": 0.3937007874015748
        },
        {
          "duration": 0.05813953488370771,
          "durationTicks": 5,
          "midi": 71,
          "name": "B4",
          "ticks": 11896,
          "time": 138.32558139534885,
          "velocity": 0.07874015748031496
        },
        {
          "duration": 0.7209302325581461,
          "durationTicks": 62,
          "midi": 44,
          "name": "G#2",
          "ticks": 11898,
          "time": 138.34883720930233,
          "velocity": 0.36220472440944884
        },
        {
          "duration": 0.19767441860466306,
          "durationTicks": 17,
          "midi": 66,
          "name": "F#4",
          "ticks": 11903,
          "time": 138.40697674418604,
          "velocity": 0.23622047244094488
        },
        {
          "duration": 0.09302325581393234,
          "durationTicks": 8,
          "midi": 59,
          "name": "B3",
          "ticks": 11906,
          "time": 138.4418604651163,
          "velocity": 0.07874015748031496
        },
        {
          "duration": 0.06976744186047767,
          "durationTicks": 6,
          "midi": 32,
          "name": "G#1",
          "ticks": 11914,
          "time": 138.53488372093022,
          "velocity": 0.1889763779527559
        },
        {
          "duration": 0.034883720930224626,
          "durationTicks": 3,
          "midi": 63,
          "name": "D#4",
          "ticks": 11918,
          "time": 138.58139534883722,
          "velocity": 0.09448818897637795
        },
        {
          "duration": 0.5930232558139608,
          "durationTicks": 51,
          "midi": 66,
          "name": "F#4",
          "ticks": 11922,
          "time": 138.62790697674419,
          "velocity": 0.2992125984251969
        },
        {
          "duration": 0.034883720930224626,
          "durationTicks": 3,
          "midi": 55,
          "name": "G3",
          "ticks": 11924,
          "time": 138.65116279069767,
          "velocity": 0.33858267716535434
        },
        {
          "duration": 0.06976744186047767,
          "durationTicks": 6,
          "midi": 32,
          "name": "G#1",
          "ticks": 11927,
          "time": 138.6860465116279,
          "velocity": 0.11811023622047244
        },
        {
          "duration": 0.24418604651162923,
          "durationTicks": 21,
          "midi": 59,
          "name": "B3",
          "ticks": 11953,
          "time": 138.98837209302326,
          "velocity": 0.15748031496062992
        },
        {
          "duration": 0.13953488372092693,
          "durationTicks": 12,
          "midi": 90,
          "name": "F#6",
          "ticks": 11955,
          "time": 139.01162790697674,
          "velocity": 0.10236220472440945
        },
        {
          "duration": 0.1511627906976969,
          "durationTicks": 13,
          "midi": 70,
          "name": "A#4",
          "ticks": 11980,
          "time": 139.30232558139534,
          "velocity": 0.2755905511811024
        },
        {
          "duration": 0.023255813953483084,
          "durationTicks": 2,
          "midi": 43,
          "name": "G2",
          "ticks": 11981,
          "time": 139.3139534883721,
          "velocity": 0.2440944881889764
        },
        {
          "duration": 0.3488372093023031,
          "durationTicks": 30,
          "midi": 61,
          "name": "C#4",
          "ticks": 11982,
          "time": 139.32558139534885,
          "velocity": 0.3543307086614173
        },
        {
          "duration": 0.023255813953483084,
          "durationTicks": 2,
          "midi": 37,
          "name": "C#2",
          "ticks": 11983,
          "time": 139.3372093023256,
          "velocity": 0.36220472440944884
        },
        {
          "duration": 0.1046511627907023,
          "durationTicks": 9,
          "midi": 66,
          "name": "F#4",
          "ticks": 11984,
          "time": 139.34883720930233,
          "velocity": 0.10236220472440945
        },
        {
          "duration": 0.19767441860463464,
          "durationTicks": 17,
          "midi": 54,
          "name": "F#3",
          "ticks": 11985,
          "time": 139.36046511627907,
          "velocity": 0.1968503937007874
        },
        {
          "duration": 0.023255813953483084,
          "durationTicks": 2,
          "midi": 42,
          "name": "F#2",
          "ticks": 11988,
          "time": 139.3953488372093,
          "velocity": 0.3543307086614173
        },
        {
          "duration": 1.1162790697674438,
          "durationTicks": 96,
          "midi": 42,
          "name": "F#2",
          "ticks": 11994,
          "time": 139.46511627906978,
          "velocity": 0.3700787401574803
        },
        {
          "duration": 0.5,
          "durationTicks": 43,
          "midi": 70,
          "name": "A#4",
          "ticks": 11995,
          "time": 139.47674418604652,
          "velocity": 0.25984251968503935
        },
        {
          "duration": 0.034883720930224626,
          "durationTicks": 3,
          "midi": 58,
          "name": "A#3",
          "ticks": 12009,
          "time": 139.63953488372093,
          "velocity": 0.25984251968503935
        },
        {
          "duration": 0.03488372093025305,
          "durationTicks": 3,
          "midi": 58,
          "name": "A#3",
          "ticks": 12013,
          "time": 139.6860465116279,
          "velocity": 0.2204724409448819
        },
        {
          "duration": 0.6511627906976685,
          "durationTicks": 56,
          "midi": 61,
          "name": "C#4",
          "ticks": 12015,
          "time": 139.7093023255814,
          "velocity": 0.3464566929133858
        },
        {
          "duration": 0.034883720930224626,
          "durationTicks": 3,
          "midi": 55,
          "name": "G3",
          "ticks": 12040,
          "time": 140,
          "velocity": 0.2992125984251969
        },
        {
          "duration": 0.33720930232559,
          "durationTicks": 29,
          "midi": 70,
          "name": "A#4",
          "ticks": 12065,
          "time": 140.2906976744186,
          "velocity": 0.28346456692913385
        },
        {
          "duration": 0.15116279069766847,
          "durationTicks": 13,
          "midi": 58,
          "name": "A#3",
          "ticks": 12070,
          "time": 140.34883720930233,
          "velocity": 0.28346456692913385
        },
        {
          "duration": 0.08139534883721922,
          "durationTicks": 7,
          "midi": 61,
          "name": "C#4",
          "ticks": 12084,
          "time": 140.51162790697674,
          "velocity": 0.18110236220472442
        },
        {
          "duration": 0.03488372093025305,
          "durationTicks": 3,
          "midi": 58,
          "name": "A#3",
          "ticks": 12086,
          "time": 140.53488372093022,
          "velocity": 0.16535433070866143
        },
        {
          "duration": 0.034883720930224626,
          "durationTicks": 3,
          "midi": 41,
          "name": "F2",
          "ticks": 12090,
          "time": 140.58139534883722,
          "velocity": 0.1732283464566929
        },
        {
          "duration": 0.09302325581396076,
          "durationTicks": 8,
          "midi": 61,
          "name": "C#4",
          "ticks": 12096,
          "time": 140.65116279069767,
          "velocity": 0.28346456692913385
        },
        {
          "duration": 0.04651162790699459,
          "durationTicks": 4,
          "midi": 44,
          "name": "G#2",
          "ticks": 12098,
          "time": 140.67441860465115,
          "velocity": 0.2047244094488189
        },
        {
          "duration": 0.48837209302325846,
          "durationTicks": 42,
          "midi": 78,
          "name": "F#5",
          "ticks": 12098,
          "time": 140.67441860465115,
          "velocity": 0.30708661417322836
        },
        {
          "duration": 0.17441860465117998,
          "durationTicks": 15,
          "midi": 97,
          "name": "C#7",
          "ticks": 12099,
          "time": 140.6860465116279,
          "velocity": 0.10236220472440945
        },
        {
          "duration": 0.1860465116278931,
          "durationTicks": 16,
          "midi": 56,
          "name": "G#3",
          "ticks": 12100,
          "time": 140.69767441860466,
          "velocity": 0.3228346456692913
        },
        {
          "duration": 0.20930232558137618,
          "durationTicks": 18,
          "midi": 66,
          "name": "F#4",
          "ticks": 12100,
          "time": 140.69767441860466,
          "velocity": 0.11023622047244094
        },
        {
          "duration": 0.11627906976744384,
          "durationTicks": 10,
          "midi": 85,
          "name": "C#6",
          "ticks": 12103,
          "time": 140.7325581395349,
          "velocity": 0.07874015748031496
        },
        {
          "duration": 0.15116279069766847,
          "durationTicks": 13,
          "midi": 39,
          "name": "D#2",
          "ticks": 12104,
          "time": 140.74418604651163,
          "velocity": 0.3464566929133858
        },
        {
          "duration": 0.9534883720930338,
          "durationTicks": 82,
          "midi": 63,
          "name": "D#4",
          "ticks": 12109,
          "time": 140.80232558139534,
          "velocity": 0.2677165354330709
        },
        {
          "duration": 0.12790697674418539,
          "durationTicks": 11,
          "midi": 39,
          "name": "D#2",
          "ticks": 12118,
          "time": 140.90697674418604,
          "velocity": 0.33858267716535434
        },
        {
          "duration": 0.22093023255814614,
          "durationTicks": 19,
          "midi": 66,
          "name": "F#4",
          "ticks": 12127,
          "time": 141.01162790697674,
          "velocity": 0.16535433070866143
        },
        {
          "duration": 0.03488372093025305,
          "durationTicks": 3,
          "midi": 54,
          "name": "F#3",
          "ticks": 12129,
          "time": 141.03488372093022,
          "velocity": 0.2440944881889764
        },
        {
          "duration": 0.023255813953483084,
          "durationTicks": 2,
          "midi": 37,
          "name": "C#2",
          "ticks": 12135,
          "time": 141.1046511627907,
          "velocity": 0.3858267716535433
        },
        {
          "duration": 0.023255813953483084,
          "durationTicks": 2,
          "midi": 53,
          "name": "F3",
          "ticks": 12138,
          "time": 141.13953488372093,
          "velocity": 0.2440944881889764
        },
        {
          "duration": 0.023255813953483084,
          "durationTicks": 2,
          "midi": 37,
          "name": "C#2",
          "ticks": 12139,
          "time": 141.15116279069767,
          "velocity": 0.3779527559055118
        },
        {
          "duration": 0.023255813953483084,
          "durationTicks": 2,
          "midi": 53,
          "name": "F3",
          "ticks": 12144,
          "time": 141.2093023255814,
          "velocity": 0.25196850393700787
        },
        {
          "duration": 0.023255813953483084,
          "durationTicks": 2,
          "midi": 37,
          "name": "C#2",
          "ticks": 12146,
          "time": 141.2325581395349,
          "velocity": 0.4566929133858268
        },
        {
          "duration": 0.13953488372092693,
          "durationTicks": 12,
          "midi": 51,
          "name": "D#3",
          "ticks": 12146,
          "time": 141.2325581395349,
          "velocity": 0.2677165354330709
        },
        {
          "duration": 0.023255813953483084,
          "durationTicks": 2,
          "midi": 37,
          "name": "C#2",
          "ticks": 12150,
          "time": 141.27906976744185,
          "velocity": 0.3937007874015748
        },
        {
          "duration": 0.023255813953483084,
          "durationTicks": 2,
          "midi": 38,
          "name": "D2",
          "ticks": 12155,
          "time": 141.3372093023256,
          "velocity": 0.36220472440944884
        },
        {
          "duration": 0.034883720930224626,
          "durationTicks": 3,
          "midi": 39,
          "name": "D#2",
          "ticks": 12157,
          "time": 141.36046511627907,
          "velocity": 0.3700787401574803
        },
        {
          "duration": 0.034883720930224626,
          "durationTicks": 3,
          "midi": 52,
          "name": "E3",
          "ticks": 12158,
          "time": 141.37209302325581,
          "velocity": 0.2992125984251969
        },
        {
          "duration": 0.18604651162792152,
          "durationTicks": 16,
          "midi": 56,
          "name": "G#3",
          "ticks": 12161,
          "time": 141.40697674418604,
          "velocity": 0.29133858267716534
        },
        {
          "duration": 0.023255813953511506,
          "durationTicks": 2,
          "midi": 39,
          "name": "D#2",
          "ticks": 12163,
          "time": 141.43023255813952,
          "velocity": 0.33858267716535434
        },
        {
          "duration": 0.023255813953483084,
          "durationTicks": 2,
          "midi": 39,
          "name": "D#2",
          "ticks": 12166,
          "time": 141.46511627906978,
          "velocity": 0.3464566929133858
        },
        {
          "duration": 0.023255813953483084,
          "durationTicks": 2,
          "midi": 39,
          "name": "D#2",
          "ticks": 12169,
          "time": 141.5,
          "velocity": 0.36220472440944884
        },
        {
          "duration": 0.05813953488373613,
          "durationTicks": 5,
          "midi": 51,
          "name": "D#3",
          "ticks": 12171,
          "time": 141.52325581395348,
          "velocity": 0.1968503937007874
        },
        {
          "duration": 0.023255813953511506,
          "durationTicks": 2,
          "midi": 38,
          "name": "D2",
          "ticks": 12173,
          "time": 141.54651162790697,
          "velocity": 0.31496062992125984
        },
        {
          "duration": 0.034883720930224626,
          "durationTicks": 3,
          "midi": 40,
          "name": "E2",
          "ticks": 12175,
          "time": 141.56976744186048,
          "velocity": 0.30708661417322836
        },
        {
          "duration": 0.034883720930224626,
          "durationTicks": 3,
          "midi": 43,
          "name": "G2",
          "ticks": 12180,
          "time": 141.62790697674419,
          "velocity": 0.12598425196850394
        },
        {
          "duration": 0.03488372093025305,
          "durationTicks": 3,
          "midi": 44,
          "name": "G#2",
          "ticks": 12184,
          "time": 141.67441860465115,
          "velocity": 0.14960629921259844
        },
        {
          "duration": 0.023255813953483084,
          "durationTicks": 2,
          "midi": 56,
          "name": "G#3",
          "ticks": 12186,
          "time": 141.69767441860466,
          "velocity": 0.2755905511811024
        },
        {
          "duration": 0.16279069767441,
          "durationTicks": 14,
          "midi": 73,
          "name": "C#5",
          "ticks": 12186,
          "time": 141.69767441860466,
          "velocity": 0.10236220472440945
        },
        {
          "duration": 0.034883720930224626,
          "durationTicks": 3,
          "midi": 71,
          "name": "B4",
          "ticks": 12187,
          "time": 141.7093023255814,
          "velocity": 0.14960629921259844
        },
        {
          "duration": 0.023255813953483084,
          "durationTicks": 2,
          "midi": 46,
          "name": "A#2",
          "ticks": 12190,
          "time": 141.74418604651163,
          "velocity": 0.28346456692913385
        },
        {
          "duration": 0.023255813953483084,
          "durationTicks": 2,
          "midi": 48,
          "name": "C3",
          "ticks": 12193,
          "time": 141.77906976744185,
          "velocity": 0.2755905511811024
        },
        {
          "duration": 0.03488372093025305,
          "durationTicks": 3,
          "midi": 63,
          "name": "D#4",
          "ticks": 12194,
          "time": 141.7906976744186,
          "velocity": 0.14173228346456693
        },
        {
          "duration": 0.11627906976744384,
          "durationTicks": 10,
          "midi": 47,
          "name": "B2",
          "ticks": 12197,
          "time": 141.82558139534885,
          "velocity": 0.2992125984251969
        },
        {
          "duration": 0.034883720930224626,
          "durationTicks": 3,
          "midi": 47,
          "name": "B2",
          "ticks": 12208,
          "time": 141.95348837209303,
          "velocity": 0.2047244094488189
        },
        {
          "duration": 0.023255813953483084,
          "durationTicks": 2,
          "midi": 56,
          "name": "G#3",
          "ticks": 12214,
          "time": 142.02325581395348,
          "velocity": 0.25984251968503935
        },
        {
          "duration": 1.313953488372107,
          "durationTicks": 113,
          "midi": 66,
          "name": "F#4",
          "ticks": 12216,
          "time": 142.04651162790697,
          "velocity": 0.2755905511811024
        },
        {
          "duration": 1.2209302325581461,
          "durationTicks": 105,
          "midi": 45,
          "name": "A2",
          "ticks": 12220,
          "time": 142.09302325581396,
          "velocity": 0.3700787401574803
        },
        {
          "duration": 0.04651162790696617,
          "durationTicks": 4,
          "midi": 34,
          "name": "A#1",
          "ticks": 12221,
          "time": 142.1046511627907,
          "velocity": 0.28346456692913385
        },
        {
          "duration": 0.04651162790696617,
          "durationTicks": 4,
          "midi": 52,
          "name": "E3",
          "ticks": 12221,
          "time": 142.1046511627907,
          "velocity": 0.12598425196850394
        },
        {
          "duration": 0.09302325581396076,
          "durationTicks": 8,
          "midi": 52,
          "name": "E3",
          "ticks": 12226,
          "time": 142.1627906976744,
          "velocity": 0.12598425196850394
        },
        {
          "duration": 0.11627906976744384,
          "durationTicks": 10,
          "midi": 52,
          "name": "E3",
          "ticks": 12235,
          "time": 142.2674418604651,
          "velocity": 0.14173228346456693
        },
        {
          "duration": 0.034883720930224626,
          "durationTicks": 3,
          "midi": 56,
          "name": "G#3",
          "ticks": 12246,
          "time": 142.3953488372093,
          "velocity": 0.2283464566929134
        },
        {
          "duration": 0.25581395348837077,
          "durationTicks": 22,
          "midi": 76,
          "name": "E5",
          "ticks": 12246,
          "time": 142.3953488372093,
          "velocity": 0.2755905511811024
        },
        {
          "duration": 0.04651162790699459,
          "durationTicks": 4,
          "midi": 64,
          "name": "E4",
          "ticks": 12248,
          "time": 142.41860465116278,
          "velocity": 0.2440944881889764
        },
        {
          "duration": 0.11627906976744384,
          "durationTicks": 10,
          "midi": 52,
          "name": "E3",
          "ticks": 12249,
          "time": 142.43023255813952,
          "velocity": 0.14173228346456693
        },
        {
          "duration": 0.2325581395348877,
          "durationTicks": 20,
          "midi": 61,
          "name": "C#4",
          "ticks": 12259,
          "time": 142.54651162790697,
          "velocity": 0.13385826771653545
        },
        {
          "duration": 0.08139534883721922,
          "durationTicks": 7,
          "midi": 52,
          "name": "E3",
          "ticks": 12260,
          "time": 142.5581395348837,
          "velocity": 0.09448818897637795
        },
        {
          "duration": 0.05813953488373613,
          "durationTicks": 5,
          "midi": 52,
          "name": "E3",
          "ticks": 12271,
          "time": 142.6860465116279,
          "velocity": 0.2204724409448819
        },
        {
          "duration": 0.023255813953483084,
          "durationTicks": 2,
          "midi": 55,
          "name": "G3",
          "ticks": 12277,
          "time": 142.75581395348837,
          "velocity": 0.2677165354330709
        },
        {
          "duration": 0.25581395348837077,
          "durationTicks": 22,
          "midi": 52,
          "name": "E3",
          "ticks": 12279,
          "time": 142.77906976744185,
          "velocity": 0.18110236220472442
        },
        {
          "duration": 0.05813953488370771,
          "durationTicks": 5,
          "midi": 63,
          "name": "D#4",
          "ticks": 12287,
          "time": 142.87209302325581,
          "velocity": 0.09448818897637795
        },
        {
          "duration": 0.09302325581396076,
          "durationTicks": 8,
          "midi": 52,
          "name": "E3",
          "ticks": 12302,
          "time": 143.04651162790697,
          "velocity": 0.15748031496062992
        },
        {
          "duration": 0.2790697674418823,
          "durationTicks": 24,
          "midi": 73,
          "name": "C#5",
          "ticks": 12303,
          "time": 143.0581395348837,
          "velocity": 0.2992125984251969
        },
        {
          "duration": 0.17441860465115155,
          "durationTicks": 15,
          "midi": 61,
          "name": "C#4",
          "ticks": 12306,
          "time": 143.09302325581396,
          "velocity": 0.2047244094488189
        },
        {
          "duration": 0.13953488372092693,
          "durationTicks": 12,
          "midi": 52,
          "name": "E3",
          "ticks": 12311,
          "time": 143.15116279069767,
          "velocity": 0.11811023622047244
        },
        {
          "duration": 0.24418604651162923,
          "durationTicks": 21,
          "midi": 56,
          "name": "G#3",
          "ticks": 12333,
          "time": 143.40697674418604,
          "velocity": 0.3464566929133858
        },
        {
          "duration": 0.05813953488373613,
          "durationTicks": 5,
          "midi": 51,
          "name": "D#3",
          "ticks": 12335,
          "time": 143.43023255813952,
          "velocity": 0.2204724409448819
        },
        {
          "duration": 0.023255813953483084,
          "durationTicks": 2,
          "midi": 41,
          "name": "F2",
          "ticks": 12336,
          "time": 143.4418604651163,
          "velocity": 0.3228346456692913
        },
        {
          "duration": 0.17441860465115155,
          "durationTicks": 15,
          "midi": 71,
          "name": "B4",
          "ticks": 12336,
          "time": 143.4418604651163,
          "velocity": 0.12598425196850394
        },
        {
          "duration": 0.9534883720930054,
          "durationTicks": 82,
          "midi": 44,
          "name": "G#2",
          "ticks": 12338,
          "time": 143.46511627906978,
          "velocity": 0.3858267716535433
        },
        {
          "duration": 0.09302325581396076,
          "durationTicks": 8,
          "midi": 63,
          "name": "D#4",
          "ticks": 12343,
          "time": 143.52325581395348,
          "velocity": 0.10236220472440945
        },
        {
          "duration": 0.06976744186047767,
          "durationTicks": 6,
          "midi": 59,
          "name": "B3",
          "ticks": 12355,
          "time": 143.6627906976744,
          "velocity": 0.14173228346456693
        },
        {
          "duration": 0.2093023255814046,
          "durationTicks": 18,
          "midi": 71,
          "name": "B4",
          "ticks": 12364,
          "time": 143.7674418604651,
          "velocity": 0.13385826771653545
        },
        {
          "duration": 0.16279069767441,
          "durationTicks": 14,
          "midi": 68,
          "name": "G#4",
          "ticks": 12370,
          "time": 143.8372093023256,
          "velocity": 0.1889763779527559
        },
        {
          "duration": 0.2906976744186238,
          "durationTicks": 25,
          "midi": 63,
          "name": "D#4",
          "ticks": 12378,
          "time": 143.93023255813952,
          "velocity": 0.14960629921259844
        },
        {
          "duration": 0.034883720930224626,
          "durationTicks": 3,
          "midi": 59,
          "name": "B3",
          "ticks": 12384,
          "time": 144,
          "velocity": 0.07086614173228346
        },
        {
          "duration": 0.06976744186047767,
          "durationTicks": 6,
          "midi": 68,
          "name": "G#4",
          "ticks": 12387,
          "time": 144.03488372093022,
          "velocity": 0.11023622047244094
        },
        {
          "duration": 0.034883720930224626,
          "durationTicks": 3,
          "midi": 59,
          "name": "B3",
          "ticks": 12391,
          "time": 144.08139534883722,
          "velocity": 0.2047244094488189
        },
        {
          "duration": 0.12790697674418539,
          "durationTicks": 11,
          "midi": 59,
          "name": "B3",
          "ticks": 12396,
          "time": 144.13953488372093,
          "velocity": 0.13385826771653545
        },
        {
          "duration": 0.034883720930224626,
          "durationTicks": 3,
          "midi": 32,
          "name": "G#1",
          "ticks": 12397,
          "time": 144.15116279069767,
          "velocity": 0.14960629921259844
        },
        {
          "duration": 0.04651162790696617,
          "durationTicks": 4,
          "midi": 32,
          "name": "G#1",
          "ticks": 12406,
          "time": 144.25581395348837,
          "velocity": 0.14960629921259844
        },
        {
          "duration": 0.3604651162790731,
          "durationTicks": 31,
          "midi": 68,
          "name": "G#4",
          "ticks": 12406,
          "time": 144.25581395348837,
          "velocity": 0.1732283464566929
        },
        {
          "duration": 0.03488372093025305,
          "durationTicks": 3,
          "midi": 45,
          "name": "A2",
          "ticks": 12420,
          "time": 144.41860465116278,
          "velocity": 0.2677165354330709
        },
        {
          "duration": 0.05813953488373613,
          "durationTicks": 5,
          "midi": 32,
          "name": "G#1",
          "ticks": 12421,
          "time": 144.43023255813952,
          "velocity": 0.11023622047244094
        },
        {
          "duration": 0.04651162790699459,
          "durationTicks": 4,
          "midi": 55,
          "name": "G3",
          "ticks": 12421,
          "time": 144.43023255813952,
          "velocity": 0.12598425196850394
        },
        {
          "duration": 0.19767441860466306,
          "durationTicks": 17,
          "midi": 59,
          "name": "B3",
          "ticks": 12421,
          "time": 144.43023255813952,
          "velocity": 0.2125984251968504
        },
        {
          "duration": 0.25581395348837077,
          "durationTicks": 22,
          "midi": 73,
          "name": "C#5",
          "ticks": 12422,
          "time": 144.4418604651163,
          "velocity": 0.14960629921259844
        },
        {
          "duration": 0.16279069767441,
          "durationTicks": 14,
          "midi": 44,
          "name": "G#2",
          "ticks": 12423,
          "time": 144.45348837209303,
          "velocity": 0.23622047244094488
        },
        {
          "duration": 0.05813953488370771,
          "durationTicks": 5,
          "midi": 92,
          "name": "G#6",
          "ticks": 12423,
          "time": 144.45348837209303,
          "velocity": 0.09448818897637795
        },
        {
          "duration": 0.1046511627907023,
          "durationTicks": 9,
          "midi": 32,
          "name": "G#1",
          "ticks": 12427,
          "time": 144.5,
          "velocity": 0.08661417322834646
        },
        {
          "duration": 0.023255813953483084,
          "durationTicks": 2,
          "midi": 44,
          "name": "G#2",
          "ticks": 12439,
          "time": 144.63953488372093,
          "velocity": 0.2283464566929134
        },
        {
          "duration": 0.04651162790699459,
          "durationTicks": 4,
          "midi": 68,
          "name": "G#4",
          "ticks": 12441,
          "time": 144.6627906976744,
          "velocity": 0.11023622047244094
        },
        {
          "duration": 0.023255813953483084,
          "durationTicks": 2,
          "midi": 54,
          "name": "F#3",
          "ticks": 12450,
          "time": 144.7674418604651,
          "velocity": 0.25196850393700787
        },
        {
          "duration": 0.43023255813955075,
          "durationTicks": 37,
          "midi": 70,
          "name": "A#4",
          "ticks": 12451,
          "time": 144.77906976744185,
          "velocity": 0.2283464566929134
        },
        {
          "duration": 0.023255813953511506,
          "durationTicks": 2,
          "midi": 55,
          "name": "G3",
          "ticks": 12452,
          "time": 144.7906976744186,
          "velocity": 0.23622047244094488
        },
        {
          "duration": 0.19767441860466306,
          "durationTicks": 17,
          "midi": 58,
          "name": "A#3",
          "ticks": 12452,
          "time": 144.7906976744186,
          "velocity": 0.2283464566929134
        },
        {
          "duration": 0.83720930232559,
          "durationTicks": 72,
          "midi": 66,
          "name": "F#4",
          "ticks": 12452,
          "time": 144.7906976744186,
          "velocity": 0.25196850393700787
        },
        {
          "duration": 0.023255813953511506,
          "durationTicks": 2,
          "midi": 36,
          "name": "C2",
          "ticks": 12453,
          "time": 144.80232558139534,
          "velocity": 0.41732283464566927
        },
        {
          "duration": 0.034883720930224626,
          "durationTicks": 3,
          "midi": 42,
          "name": "F#2",
          "ticks": 12459,
          "time": 144.87209302325581,
          "velocity": 0.3543307086614173
        },
        {
          "duration": 0.034883720930224626,
          "durationTicks": 3,
          "midi": 54,
          "name": "F#3",
          "ticks": 12465,
          "time": 144.9418604651163,
          "velocity": 0.15748031496062992
        },
        {
          "duration": 0.023255813953483084,
          "durationTicks": 2,
          "midi": 42,
          "name": "F#2",
          "ticks": 12467,
          "time": 144.96511627906978,
          "velocity": 0.3464566929133858
        },
        {
          "duration": 0.08139534883721922,
          "durationTicks": 7,
          "midi": 42,
          "name": "F#2",
          "ticks": 12470,
          "time": 145,
          "velocity": 0.3543307086614173
        },
        {
          "duration": 0.11627906976744384,
          "durationTicks": 10,
          "midi": 58,
          "name": "A#3",
          "ticks": 12470,
          "time": 145,
          "velocity": 0.25984251968503935
        },
        {
          "duration": 0.20930232558137618,
          "durationTicks": 18,
          "midi": 42,
          "name": "F#2",
          "ticks": 12478,
          "time": 145.09302325581396,
          "velocity": 0.3543307086614173
        },
        {
          "duration": 0.34883720930233153,
          "durationTicks": 30,
          "midi": 58,
          "name": "A#3",
          "ticks": 12481,
          "time": 145.12790697674419,
          "velocity": 0.2440944881889764
        },
        {
          "duration": 0.05813953488373613,
          "durationTicks": 5,
          "midi": 61,
          "name": "C#4",
          "ticks": 12492,
          "time": 145.25581395348837,
          "velocity": 0.16535433070866143
        },
        {
          "duration": 0.04651162790696617,
          "durationTicks": 4,
          "midi": 61,
          "name": "C#4",
          "ticks": 12498,
          "time": 145.32558139534885,
          "velocity": 0.14960629921259844
        },
        {
          "duration": 0.04651162790699459,
          "durationTicks": 4,
          "midi": 61,
          "name": "C#4",
          "ticks": 12504,
          "time": 145.3953488372093,
          "velocity": 0.13385826771653545
        },
        {
          "duration": 0.023255813953483084,
          "durationTicks": 2,
          "midi": 42,
          "name": "F#2",
          "ticks": 12508,
          "time": 145.4418604651163,
          "velocity": 0.3700787401574803
        },
        {
          "duration": 0.023255813953483084,
          "durationTicks": 2,
          "midi": 57,
          "name": "A3",
          "ticks": 12511,
          "time": 145.47674418604652,
          "velocity": 0.2677165354330709
        },
        {
          "duration": 0.034883720930224626,
          "durationTicks": 3,
          "midi": 55,
          "name": "G3",
          "ticks": 12512,
          "time": 145.48837209302326,
          "velocity": 0.2047244094488189
        },
        {
          "duration": 0.11627906976744384,
          "durationTicks": 10,
          "midi": 42,
          "name": "F#2",
          "ticks": 12513,
          "time": 145.5,
          "velocity": 0.3543307086614173
        },
        {
          "duration": 0.2906976744185954,
          "durationTicks": 25,
          "midi": 61,
          "name": "C#4",
          "ticks": 12513,
          "time": 145.5,
          "velocity": 0.1889763779527559
        },
        {
          "duration": 0.17441860465115155,
          "durationTicks": 15,
          "midi": 42,
          "name": "F#2",
          "ticks": 12524,
          "time": 145.62790697674419,
          "velocity": 0.33070866141732286
        },
        {
          "duration": 0.11627906976744384,
          "durationTicks": 10,
          "midi": 66,
          "name": "F#4",
          "ticks": 12527,
          "time": 145.6627906976744,
          "velocity": 0.11023622047244094
        },
        {
          "duration": 0.22093023255814614,
          "durationTicks": 19,
          "midi": 78,
          "name": "F#5",
          "ticks": 12537,
          "time": 145.77906976744185,
          "velocity": 0.2204724409448819
        },
        {
          "duration": 0.023255813953511506,
          "durationTicks": 2,
          "midi": 55,
          "name": "G3",
          "ticks": 12538,
          "time": 145.7906976744186,
          "velocity": 0.3228346456692913
        },
        {
          "duration": 0.2325581395348877,
          "durationTicks": 20,
          "midi": 66,
          "name": "F#4",
          "ticks": 12538,
          "time": 145.7906976744186,
          "velocity": 0.28346456692913385
        },
        {
          "duration": 0.023255813953511506,
          "durationTicks": 2,
          "midi": 43,
          "name": "G2",
          "ticks": 12539,
          "time": 145.80232558139534,
          "velocity": 0.33070866141732286
        },
        {
          "duration": 0.3720930232558146,
          "durationTicks": 32,
          "midi": 70,
          "name": "A#4",
          "ticks": 12541,
          "time": 145.82558139534885,
          "velocity": 0.14173228346456693
        },
        {
          "duration": 0.16279069767441,
          "durationTicks": 14,
          "midi": 54,
          "name": "F#3",
          "ticks": 12542,
          "time": 145.8372093023256,
          "velocity": 0.29133858267716534
        },
        {
          "duration": 0.04651162790696617,
          "durationTicks": 4,
          "midi": 58,
          "name": "A#3",
          "ticks": 12544,
          "time": 145.86046511627907,
          "velocity": 0.18110236220472442
        },
        {
          "duration": 0.023255813953511506,
          "durationTicks": 2,
          "midi": 34,
          "name": "A#1",
          "ticks": 12549,
          "time": 145.91860465116278,
          "velocity": 0.2755905511811024
        },
        {
          "duration": 0.023255813953483084,
          "durationTicks": 2,
          "midi": 33,
          "name": "A1",
          "ticks": 12551,
          "time": 145.9418604651163,
          "velocity": 0.2755905511811024
        },
        {
          "duration": 0.22093023255811772,
          "durationTicks": 19,
          "midi": 58,
          "name": "A#3",
          "ticks": 12551,
          "time": 145.9418604651163,
          "velocity": 0.14173228346456693
        },
        {
          "duration": 0.08139534883721922,
          "durationTicks": 7,
          "midi": 42,
          "name": "F#2",
          "ticks": 12556,
          "time": 146,
          "velocity": 0.25196850393700787
        },
        {
          "duration": 0.06976744186047767,
          "durationTicks": 6,
          "midi": 53,
          "name": "F3",
          "ticks": 12556,
          "time": 146,
          "velocity": 0.1732283464566929
        },
        {
          "duration": 0.05813953488370771,
          "durationTicks": 5,
          "midi": 77,
          "name": "F5",
          "ticks": 12556,
          "time": 146,
          "velocity": 0.11023622047244094
        },
        {
          "duration": 0.034883720930224626,
          "durationTicks": 3,
          "midi": 43,
          "name": "G2",
          "ticks": 12563,
          "time": 146.08139534883722,
          "velocity": 0.2047244094488189
        },
        {
          "duration": 0.11627906976744384,
          "durationTicks": 10,
          "midi": 54,
          "name": "F#3",
          "ticks": 12569,
          "time": 146.15116279069767,
          "velocity": 0.2755905511811024
        },
        {
          "duration": 0.023255813953511506,
          "durationTicks": 2,
          "midi": 41,
          "name": "F2",
          "ticks": 12572,
          "time": 146.1860465116279,
          "velocity": 0.3464566929133858
        },
        {
          "duration": 0.04651162790699459,
          "durationTicks": 4,
          "midi": 61,
          "name": "C#4",
          "ticks": 12572,
          "time": 146.1860465116279,
          "velocity": 0.10236220472440945
        },
        {
          "duration": 0.27906976744185386,
          "durationTicks": 24,
          "midi": 42,
          "name": "F#2",
          "ticks": 12574,
          "time": 146.2093023255814,
          "velocity": 0.3464566929133858
        },
        {
          "duration": 0.034883720930224626,
          "durationTicks": 3,
          "midi": 63,
          "name": "D#4",
          "ticks": 12575,
          "time": 146.22093023255815,
          "velocity": 0.12598425196850394
        },
        {
          "duration": 0.03488372093025305,
          "durationTicks": 3,
          "midi": 63,
          "name": "D#4",
          "ticks": 12580,
          "time": 146.27906976744185,
          "velocity": 0.14960629921259844
        },
        {
          "duration": 0.04651162790696617,
          "durationTicks": 4,
          "midi": 63,
          "name": "D#4",
          "ticks": 12584,
          "time": 146.32558139534885,
          "velocity": 0.12598425196850394
        },
        {
          "duration": 0.034883720930224626,
          "durationTicks": 3,
          "midi": 61,
          "name": "C#4",
          "ticks": 12588,
          "time": 146.37209302325581,
          "velocity": 0.11023622047244094
        },
        {
          "duration": 0.023255813953483084,
          "durationTicks": 2,
          "midi": 43,
          "name": "G2",
          "ticks": 12599,
          "time": 146.5,
          "velocity": 0.3543307086614173
        },
        {
          "duration": 0.30232558139536536,
          "durationTicks": 26,
          "midi": 73,
          "name": "C#5",
          "ticks": 12600,
          "time": 146.51162790697674,
          "velocity": 0.09448818897637795
        },
        {
          "duration": 0.32558139534884845,
          "durationTicks": 28,
          "midi": 70,
          "name": "A#4",
          "ticks": 12602,
          "time": 146.53488372093022,
          "velocity": 0.11023622047244094
        },
        {
          "duration": 0.26744186046514073,
          "durationTicks": 23,
          "midi": 58,
          "name": "A#3",
          "ticks": 12604,
          "time": 146.5581395348837,
          "velocity": 0.16535433070866143
        },
        {
          "duration": 0.13953488372092693,
          "durationTicks": 12,
          "midi": 66,
          "name": "F#4",
          "ticks": 12607,
          "time": 146.59302325581396,
          "velocity": 0.10236220472440945
        },
        {
          "duration": 0.04651162790696617,
          "durationTicks": 4,
          "midi": 42,
          "name": "F#2",
          "ticks": 12611,
          "time": 146.63953488372093,
          "velocity": 0.3464566929133858
        },
        {
          "duration": 0.05813953488373613,
          "durationTicks": 5,
          "midi": 61,
          "name": "C#4",
          "ticks": 12613,
          "time": 146.6627906976744,
          "velocity": 0.09448818897637795
        },
        {
          "duration": 0.034883720930224626,
          "durationTicks": 3,
          "midi": 42,
          "name": "F#2",
          "ticks": 12616,
          "time": 146.69767441860466,
          "velocity": 0.3228346456692913
        },
        {
          "duration": 0.04651162790696617,
          "durationTicks": 4,
          "midi": 43,
          "name": "G2",
          "ticks": 12621,
          "time": 146.75581395348837,
          "velocity": 0.3228346456692913
        },
        {
          "duration": 0.023255813953511506,
          "durationTicks": 2,
          "midi": 44,
          "name": "G#2",
          "ticks": 12625,
          "time": 146.80232558139534,
          "velocity": 0.33070866141732286
        },
        {
          "duration": 0.023255813953483084,
          "durationTicks": 2,
          "midi": 64,
          "name": "E4",
          "ticks": 12627,
          "time": 146.82558139534885,
          "velocity": 0.25196850393700787
        },
        {
          "duration": 0.023255813953483084,
          "durationTicks": 2,
          "midi": 45,
          "name": "A2",
          "ticks": 12629,
          "time": 146.84883720930233,
          "velocity": 0.3700787401574803
        },
        {
          "duration": 0.19767441860463464,
          "durationTicks": 17,
          "midi": 63,
          "name": "D#4",
          "ticks": 12629,
          "time": 146.84883720930233,
          "velocity": 0.2755905511811024
        },
        {
          "duration": 0.24418604651162923,
          "durationTicks": 21,
          "midi": 44,
          "name": "G#2",
          "ticks": 12631,
          "time": 146.87209302325581,
          "velocity": 0.4015748031496063
        },
        {
          "duration": 0.11627906976744384,
          "durationTicks": 10,
          "midi": 70,
          "name": "A#4",
          "ticks": 12632,
          "time": 146.88372093023256,
          "velocity": 0.08661417322834646
        },
        {
          "duration": 0.05813953488373613,
          "durationTicks": 5,
          "midi": 58,
          "name": "A#3",
          "ticks": 12633,
          "time": 146.8953488372093,
          "velocity": 0.08661417322834646
        },
        {
          "duration": 0.034883720930224626,
          "durationTicks": 3,
          "midi": 58,
          "name": "A#3",
          "ticks": 12639,
          "time": 146.96511627906978,
          "velocity": 0.07086614173228346
        },
        {
          "duration": 0.023255813953483084,
          "durationTicks": 2,
          "midi": 55,
          "name": "G3",
          "ticks": 12644,
          "time": 147.02325581395348,
          "velocity": 0.2440944881889764
        },
        {
          "duration": 0.03488372093025305,
          "durationTicks": 3,
          "midi": 64,
          "name": "E4",
          "ticks": 12646,
          "time": 147.04651162790697,
          "velocity": 0.2047244094488189
        },
        {
          "duration": 0.04651162790696617,
          "durationTicks": 4,
          "midi": 53,
          "name": "F3",
          "ticks": 12648,
          "time": 147.06976744186048,
          "velocity": 0.2283464566929134
        },
        {
          "duration": 0.38372093023255616,
          "durationTicks": 33,
          "midi": 63,
          "name": "D#4",
          "ticks": 12649,
          "time": 147.08139534883722,
          "velocity": 0.2677165354330709
        },
        {
          "duration": 0.023255813953483084,
          "durationTicks": 2,
          "midi": 55,
          "name": "G3",
          "ticks": 12652,
          "time": 147.11627906976744,
          "velocity": 0.2440944881889764
        },
        {
          "duration": 0.25581395348837077,
          "durationTicks": 22,
          "midi": 44,
          "name": "G#2",
          "ticks": 12653,
          "time": 147.12790697674419,
          "velocity": 0.4330708661417323
        },
        {
          "duration": 0.25581395348837077,
          "durationTicks": 22,
          "midi": 66,
          "name": "F#4",
          "ticks": 12656,
          "time": 147.1627906976744,
          "velocity": 0.28346456692913385
        },
        {
          "duration": 0.12790697674418539,
          "durationTicks": 11,
          "midi": 58,
          "name": "A#3",
          "ticks": 12660,
          "time": 147.2093023255814,
          "velocity": 0.15748031496062992
        },
        {
          "duration": 0.1046511627907023,
          "durationTicks": 9,
          "midi": 73,
          "name": "C#5",
          "ticks": 12663,
          "time": 147.24418604651163,
          "velocity": 0.09448818897637795
        },
        {
          "duration": 0.13953488372092693,
          "durationTicks": 12,
          "midi": 54,
          "name": "F#3",
          "ticks": 12669,
          "time": 147.3139534883721,
          "velocity": 0.1889763779527559
        },
        {
          "duration": 0.04651162790696617,
          "durationTicks": 4,
          "midi": 45,
          "name": "A2",
          "ticks": 12680,
          "time": 147.4418604651163,
          "velocity": 0.13385826771653545
        },
        {
          "duration": 0.19767441860466306,
          "durationTicks": 17,
          "midi": 68,
          "name": "G#4",
          "ticks": 12686,
          "time": 147.51162790697674,
          "velocity": 0.2440944881889764
        },
        {
          "duration": 0.034883720930224626,
          "durationTicks": 3,
          "midi": 66,
          "name": "F#4",
          "ticks": 12687,
          "time": 147.52325581395348,
          "velocity": 0.15748031496062992
        },
        {
          "duration": 1.2558139534883708,
          "durationTicks": 108,
          "midi": 45,
          "name": "A2",
          "ticks": 12688,
          "time": 147.53488372093022,
          "velocity": 0.3779527559055118
        },
        {
          "duration": 0.06976744186047767,
          "durationTicks": 6,
          "midi": 95,
          "name": "B6",
          "ticks": 12689,
          "time": 147.54651162790697,
          "velocity": 0.08661417322834646
        },
        {
          "duration": 0.034883720930224626,
          "durationTicks": 3,
          "midi": 56,
          "name": "G#3",
          "ticks": 12691,
          "time": 147.56976744186048,
          "velocity": 0.3543307086614173
        },
        {
          "duration": 1.0930232558139323,
          "durationTicks": 94,
          "midi": 66,
          "name": "F#4",
          "ticks": 12691,
          "time": 147.56976744186048,
          "velocity": 0.2755905511811024
        },
        {
          "duration": 0.034883720930224626,
          "durationTicks": 3,
          "midi": 56,
          "name": "G#3",
          "ticks": 12695,
          "time": 147.61627906976744,
          "velocity": 0.31496062992125984
        },
        {
          "duration": 0.05813953488373613,
          "durationTicks": 5,
          "midi": 52,
          "name": "E3",
          "ticks": 12698,
          "time": 147.65116279069767,
          "velocity": 0.16535433070866143
        },
        {
          "duration": 0.034883720930224626,
          "durationTicks": 3,
          "midi": 56,
          "name": "G#3",
          "ticks": 12704,
          "time": 147.72093023255815,
          "velocity": 0.2440944881889764
        },
        {
          "duration": 0.11627906976744384,
          "durationTicks": 10,
          "midi": 52,
          "name": "E3",
          "ticks": 12709,
          "time": 147.77906976744185,
          "velocity": 0.14173228346456693
        },
        {
          "duration": 0.08139534883721922,
          "durationTicks": 7,
          "midi": 73,
          "name": "C#5",
          "ticks": 12716,
          "time": 147.86046511627907,
          "velocity": 0.11811023622047244
        },
        {
          "duration": 0.13953488372092693,
          "durationTicks": 12,
          "midi": 76,
          "name": "E5",
          "ticks": 12716,
          "time": 147.86046511627907,
          "velocity": 0.18110236220472442
        },
        {
          "duration": 0.22093023255814614,
          "durationTicks": 19,
          "midi": 88,
          "name": "E6",
          "ticks": 12716,
          "time": 147.86046511627907,
          "velocity": 0.2125984251968504
        },
        {
          "duration": 0.03488372093025305,
          "durationTicks": 3,
          "midi": 56,
          "name": "G#3",
          "ticks": 12720,
          "time": 147.90697674418604,
          "velocity": 0.14960629921259844
        },
        {
          "duration": 0.04651162790696617,
          "durationTicks": 4,
          "midi": 52,
          "name": "E3",
          "ticks": 12723,
          "time": 147.9418604651163,
          "velocity": 0.09448818897637795
        },
        {
          "duration": 0.05813953488370771,
          "durationTicks": 5,
          "midi": 52,
          "name": "E3",
          "ticks": 12728,
          "time": 148,
          "velocity": 0.08661417322834646
        },
        {
          "duration": 0.06976744186044925,
          "durationTicks": 6,
          "midi": 52,
          "name": "E3",
          "ticks": 12737,
          "time": 148.1046511627907,
          "velocity": 0.07874015748031496
        },
        {
          "duration": 0.023255813953483084,
          "durationTicks": 2,
          "midi": 53,
          "name": "F3",
          "ticks": 12747,
          "time": 148.22093023255815,
          "velocity": 0.25984251968503935
        },
        {
          "duration": 0.2674418604651123,
          "durationTicks": 23,
          "midi": 52,
          "name": "E3",
          "ticks": 12749,
          "time": 148.24418604651163,
          "velocity": 0.1732283464566929
        },
        {
          "duration": 0.04651162790699459,
          "durationTicks": 4,
          "midi": 63,
          "name": "D#4",
          "ticks": 12752,
          "time": 148.27906976744185,
          "velocity": 0.11023622047244094
        },
        {
          "duration": 0.05813953488373613,
          "durationTicks": 5,
          "midi": 55,
          "name": "G3",
          "ticks": 12773,
          "time": 148.52325581395348,
          "velocity": 0.1889763779527559
        },
        {
          "duration": 0.2325581395348877,
          "durationTicks": 20,
          "midi": 73,
          "name": "C#5",
          "ticks": 12774,
          "time": 148.53488372093022,
          "velocity": 0.2440944881889764
        },
        {
          "duration": 0.09302325581396076,
          "durationTicks": 8,
          "midi": 61,
          "name": "C#4",
          "ticks": 12783,
          "time": 148.63953488372093,
          "velocity": 0.08661417322834646
        },
        {
          "duration": 0.08139534883721922,
          "durationTicks": 7,
          "midi": 64,
          "name": "E4",
          "ticks": 12784,
          "time": 148.65116279069767,
          "velocity": 0.11811023622047244
        },
        {
          "duration": 0.03488372093025305,
          "durationTicks": 3,
          "midi": 52,
          "name": "E3",
          "ticks": 12787,
          "time": 148.6860465116279,
          "velocity": 0.08661417322834646
        },
        {
          "duration": 0.11627906976744384,
          "durationTicks": 10,
          "midi": 66,
          "name": "F#4",
          "ticks": 12791,
          "time": 148.7325581395349,
          "velocity": 0.14173228346456693
        },
        {
          "duration": 0.08139534883721922,
          "durationTicks": 7,
          "midi": 66,
          "name": "F#4",
          "ticks": 12803,
          "time": 148.87209302325581,
          "velocity": 0.1968503937007874
        },
        {
          "duration": 0.05813953488373613,
          "durationTicks": 5,
          "midi": 56,
          "name": "G#3",
          "ticks": 12804,
          "time": 148.88372093023256,
          "velocity": 0.3543307086614173
        },
        {
          "duration": 0.22093023255814614,
          "durationTicks": 19,
          "midi": 70,
          "name": "A#4",
          "ticks": 12804,
          "time": 148.88372093023256,
          "velocity": 0.2283464566929134
        },
        {
          "duration": 0.38372093023255616,
          "durationTicks": 33,
          "midi": 47,
          "name": "B2",
          "ticks": 12806,
          "time": 148.90697674418604,
          "velocity": 0.3228346456692913
        },
        {
          "duration": 0.13953488372092693,
          "durationTicks": 12,
          "midi": 35,
          "name": "B1",
          "ticks": 12809,
          "time": 148.9418604651163,
          "velocity": 0.2283464566929134
        },
        {
          "duration": 0.023255813953483084,
          "durationTicks": 2,
          "midi": 56,
          "name": "G#3",
          "ticks": 12810,
          "time": 148.95348837209303,
          "velocity": 0.31496062992125984
        },
        {
          "duration": 0.023255813953483084,
          "durationTicks": 2,
          "midi": 67,
          "name": "G4",
          "ticks": 12810,
          "time": 148.95348837209303,
          "velocity": 0.2440944881889764
        },
        {
          "duration": 0.034883720930224626,
          "durationTicks": 3,
          "midi": 68,
          "name": "G#4",
          "ticks": 12812,
          "time": 148.97674418604652,
          "velocity": 0.2283464566929134
        },
        {
          "duration": 0.023255813953483084,
          "durationTicks": 2,
          "midi": 55,
          "name": "G3",
          "ticks": 12813,
          "time": 148.98837209302326,
          "velocity": 0.31496062992125984
        },
        {
          "duration": 0.11627906976744384,
          "durationTicks": 10,
          "midi": 66,
          "name": "F#4",
          "ticks": 12814,
          "time": 149,
          "velocity": 0.1968503937007874
        },
        {
          "duration": 0.023255813953483084,
          "durationTicks": 2,
          "midi": 55,
          "name": "G3",
          "ticks": 12817,
          "time": 149.03488372093022,
          "velocity": 0.31496062992125984
        },
        {
          "duration": 0.023255813953483084,
          "durationTicks": 2,
          "midi": 55,
          "name": "G3",
          "ticks": 12820,
          "time": 149.06976744186048,
          "velocity": 0.28346456692913385
        },
        {
          "duration": 0.12790697674418539,
          "durationTicks": 11,
          "midi": 35,
          "name": "B1",
          "ticks": 12822,
          "time": 149.09302325581396,
          "velocity": 0.25196850393700787
        },
        {
          "duration": 0.06976744186044925,
          "durationTicks": 6,
          "midi": 68,
          "name": "G#4",
          "ticks": 12823,
          "time": 149.1046511627907,
          "velocity": 0.1968503937007874
        },
        {
          "duration": 0.023255813953483084,
          "durationTicks": 2,
          "midi": 55,
          "name": "G3",
          "ticks": 12824,
          "time": 149.11627906976744,
          "velocity": 0.2677165354330709
        },
        {
          "duration": 0.15116279069766847,
          "durationTicks": 13,
          "midi": 70,
          "name": "A#4",
          "ticks": 12826,
          "time": 149.13953488372093,
          "velocity": 0.2047244094488189
        },
        {
          "duration": 0.04651162790699459,
          "durationTicks": 4,
          "midi": 66,
          "name": "F#4",
          "ticks": 12827,
          "time": 149.15116279069767,
          "velocity": 0.14173228346456693
        },
        {
          "duration": 0.03488372093025305,
          "durationTicks": 3,
          "midi": 56,
          "name": "G#3",
          "ticks": 12828,
          "time": 149.1627906976744,
          "velocity": 0.14173228346456693
        },
        {
          "duration": 0.034883720930224626,
          "durationTicks": 3,
          "midi": 56,
          "name": "G#3",
          "ticks": 12832,
          "time": 149.2093023255814,
          "velocity": 0.16535433070866143
        },
        {
          "duration": 0.13953488372092693,
          "durationTicks": 12,
          "midi": 68,
          "name": "G#4",
          "ticks": 12832,
          "time": 149.2093023255814,
          "velocity": 0.2283464566929134
        },
        {
          "duration": 0.034883720930224626,
          "durationTicks": 3,
          "midi": 36,
          "name": "C2",
          "ticks": 12834,
          "time": 149.2325581395349,
          "velocity": 0.4330708661417323
        },
        {
          "duration": 0.30232558139533694,
          "durationTicks": 26,
          "midi": 63,
          "name": "D#4",
          "ticks": 12836,
          "time": 149.25581395348837,
          "velocity": 0.1732283464566929
        },
        {
          "duration": 0.08139534883721922,
          "durationTicks": 7,
          "midi": 35,
          "name": "B1",
          "ticks": 12837,
          "time": 149.2674418604651,
          "velocity": 0.4094488188976378
        },
        {
          "duration": 0.04651162790699459,
          "durationTicks": 4,
          "midi": 66,
          "name": "F#4",
          "ticks": 12838,
          "time": 149.27906976744185,
          "velocity": 0.13385826771653545
        },
        {
          "duration": 0.09302325581393234,
          "durationTicks": 8,
          "midi": 70,
          "name": "A#4",
          "ticks": 12841,
          "time": 149.3139534883721,
          "velocity": 0.10236220472440945
        },
        {
          "duration": 0.034883720930224626,
          "durationTicks": 3,
          "midi": 35,
          "name": "B1",
          "ticks": 12845,
          "time": 149.36046511627907,
          "velocity": 0.2755905511811024
        },
        {
          "duration": 0.12790697674418539,
          "durationTicks": 11,
          "midi": 66,
          "name": "F#4",
          "ticks": 12845,
          "time": 149.36046511627907,
          "velocity": 0.11811023622047244
        },
        {
          "duration": 0.034883720930224626,
          "durationTicks": 3,
          "midi": 34,
          "name": "A#1",
          "ticks": 12852,
          "time": 149.4418604651163,
          "velocity": 0.2992125984251969
        },
        {
          "duration": 0.6395348837209269,
          "durationTicks": 55,
          "midi": 68,
          "name": "G#4",
          "ticks": 12853,
          "time": 149.45348837209303,
          "velocity": 0.2440944881889764
        },
        {
          "duration": 0.05813953488370771,
          "durationTicks": 5,
          "midi": 35,
          "name": "B1",
          "ticks": 12855,
          "time": 149.47674418604652,
          "velocity": 0.29133858267716534
        },
        {
          "duration": 0.023255813953511506,
          "durationTicks": 2,
          "midi": 35,
          "name": "B1",
          "ticks": 12861,
          "time": 149.54651162790697,
          "velocity": 0.2755905511811024
        },
        {
          "duration": 0.03488372093025305,
          "durationTicks": 3,
          "midi": 55,
          "name": "G3",
          "ticks": 12861,
          "time": 149.54651162790697,
          "velocity": 0.3543307086614173
        },
        {
          "duration": 0.04651162790696617,
          "durationTicks": 4,
          "midi": 35,
          "name": "B1",
          "ticks": 12864,
          "time": 149.58139534883722,
          "velocity": 0.29133858267716534
        },
        {
          "duration": 0.09302325581396076,
          "durationTicks": 8,
          "midi": 59,
          "name": "B3",
          "ticks": 12866,
          "time": 149.6046511627907,
          "velocity": 0.15748031496062992
        },
        {
          "duration": 0.09302325581396076,
          "durationTicks": 8,
          "midi": 35,
          "name": "B1",
          "ticks": 12870,
          "time": 149.65116279069767,
          "velocity": 0.25984251968503935
        },
        {
          "duration": 0.0813953488371908,
          "durationTicks": 7,
          "midi": 59,
          "name": "B3",
          "ticks": 12875,
          "time": 149.7093023255814,
          "velocity": 0.14960629921259844
        },
        {
          "duration": 0.11627906976744384,
          "durationTicks": 10,
          "midi": 35,
          "name": "B1",
          "ticks": 12880,
          "time": 149.7674418604651,
          "velocity": 0.2283464566929134
        },
        {
          "duration": 0.04651162790699459,
          "durationTicks": 4,
          "midi": 59,
          "name": "B3",
          "ticks": 12883,
          "time": 149.80232558139534,
          "velocity": 0.15748031496062992
        },
        {
          "duration": 0.03488372093025305,
          "durationTicks": 3,
          "midi": 35,
          "name": "B1",
          "ticks": 12892,
          "time": 149.90697674418604,
          "velocity": 0.2125984251968504
        },
        {
          "duration": 0.24418604651162923,
          "durationTicks": 21,
          "midi": 73,
          "name": "C#5",
          "ticks": 12892,
          "time": 149.90697674418604,
          "velocity": 0.25196850393700787
        },
        {
          "duration": 0.034883720930224626,
          "durationTicks": 3,
          "midi": 63,
          "name": "D#4",
          "ticks": 12897,
          "time": 149.96511627906978,
          "velocity": 0.10236220472440945
        },
        {
          "duration": 0.04651162790696617,
          "durationTicks": 4,
          "midi": 68,
          "name": "G#4",
          "ticks": 12912,
          "time": 150.13953488372093,
          "velocity": 0.14173228346456693
        },
        {
          "duration": 0.04651162790699459,
          "durationTicks": 4,
          "midi": 59,
          "name": "B3",
          "ticks": 12913,
          "time": 150.15116279069767,
          "velocity": 0.08661417322834646
        },
        {
          "duration": 0.3953488372092977,
          "durationTicks": 34,
          "midi": 70,
          "name": "A#4",
          "ticks": 12919,
          "time": 150.22093023255815,
          "velocity": 0.2755905511811024
        },
        {
          "duration": 0.023255813953483084,
          "durationTicks": 2,
          "midi": 54,
          "name": "F#3",
          "ticks": 12920,
          "time": 150.2325581395349,
          "velocity": 0.29133858267716534
        },
        {
          "duration": 0.034883720930224626,
          "durationTicks": 3,
          "midi": 61,
          "name": "C#4",
          "ticks": 12922,
          "time": 150.25581395348837,
          "velocity": 0.09448818897637795
        },
        {
          "duration": 0.023255813953483084,
          "durationTicks": 2,
          "midi": 53,
          "name": "F3",
          "ticks": 12923,
          "time": 150.2674418604651,
          "velocity": 0.2755905511811024
        },
        {
          "duration": 0.023255813953483084,
          "durationTicks": 2,
          "midi": 40,
          "name": "E2",
          "ticks": 12924,
          "time": 150.27906976744185,
          "velocity": 0.3858267716535433
        },
        {
          "duration": 0.13953488372092693,
          "durationTicks": 12,
          "midi": 54,
          "name": "F#3",
          "ticks": 12925,
          "time": 150.2906976744186,
          "velocity": 0.28346456692913385
        },
        {
          "duration": 0.023255813953511506,
          "durationTicks": 2,
          "midi": 42,
          "name": "F#2",
          "ticks": 12926,
          "time": 150.30232558139534,
          "velocity": 0.3858267716535433
        },
        {
          "duration": 0.034883720930224626,
          "durationTicks": 3,
          "midi": 61,
          "name": "C#4",
          "ticks": 12928,
          "time": 150.32558139534885,
          "velocity": 0.10236220472440945
        },
        {
          "duration": 1.1046511627907023,
          "durationTicks": 95,
          "midi": 66,
          "name": "F#4",
          "ticks": 12929,
          "time": 150.3372093023256,
          "velocity": 0.29133858267716534
        },
        {
          "duration": 0.05813953488370771,
          "durationTicks": 5,
          "midi": 58,
          "name": "A#3",
          "ticks": 12930,
          "time": 150.34883720930233,
          "velocity": 0.2283464566929134
        },
        {
          "duration": 0.034883720930224626,
          "durationTicks": 3,
          "midi": 42,
          "name": "F#2",
          "ticks": 12931,
          "time": 150.36046511627907,
          "velocity": 0.36220472440944884
        },
        {
          "duration": 0.04651162790699459,
          "durationTicks": 4,
          "midi": 61,
          "name": "C#4",
          "ticks": 12934,
          "time": 150.3953488372093,
          "velocity": 0.12598425196850394
        },
        {
          "duration": 0.05813953488373613,
          "durationTicks": 5,
          "midi": 58,
          "name": "A#3",
          "ticks": 12936,
          "time": 150.41860465116278,
          "velocity": 0.2125984251968504
        },
        {
          "duration": 0.33720930232559,
          "durationTicks": 29,
          "midi": 42,
          "name": "F#2",
          "ticks": 12937,
          "time": 150.43023255813952,
          "velocity": 0.3700787401574803
        },
        {
          "duration": 0.05813953488370771,
          "durationTicks": 5,
          "midi": 61,
          "name": "C#4",
          "ticks": 12939,
          "time": 150.45348837209303,
          "velocity": 0.15748031496062992
        },
        {
          "duration": 0.034883720930224626,
          "durationTicks": 3,
          "midi": 58,
          "name": "A#3",
          "ticks": 12943,
          "time": 150.5,
          "velocity": 0.1889763779527559
        },
        {
          "duration": 0.034883720930224626,
          "durationTicks": 3,
          "midi": 61,
          "name": "C#4",
          "ticks": 12945,
          "time": 150.52325581395348,
          "velocity": 0.14960629921259844
        },
        {
          "duration": 0.2906976744186238,
          "durationTicks": 25,
          "midi": 58,
          "name": "A#3",
          "ticks": 12948,
          "time": 150.5581395348837,
          "velocity": 0.30708661417322836
        },
        {
          "duration": 0.05813953488370771,
          "durationTicks": 5,
          "midi": 73,
          "name": "C#5",
          "ticks": 12951,
          "time": 150.59302325581396,
          "velocity": 0.09448818897637795
        },
        {
          "duration": 0.023255813953483084,
          "durationTicks": 2,
          "midi": 41,
          "name": "F2",
          "ticks": 12967,
          "time": 150.77906976744185,
          "velocity": 0.4094488188976378
        },
        {
          "duration": 0.034883720930224626,
          "durationTicks": 3,
          "midi": 54,
          "name": "F#3",
          "ticks": 12972,
          "time": 150.8372093023256,
          "velocity": 0.10236220472440945
        },
        {
          "duration": 0.06976744186044925,
          "durationTicks": 6,
          "midi": 58,
          "name": "A#3",
          "ticks": 12974,
          "time": 150.86046511627907,
          "velocity": 0.2125984251968504
        },
        {
          "duration": 0.3953488372092977,
          "durationTicks": 34,
          "midi": 42,
          "name": "F#2",
          "ticks": 12975,
          "time": 150.87209302325581,
          "velocity": 0.3700787401574803
        },
        {
          "duration": 0.023255813953483084,
          "durationTicks": 2,
          "midi": 56,
          "name": "G#3",
          "ticks": 12981,
          "time": 150.9418604651163,
          "velocity": 0.2755905511811024
        },
        {
          "duration": 0.023255813953483084,
          "durationTicks": 2,
          "midi": 41,
          "name": "F2",
          "ticks": 13009,
          "time": 151.2674418604651,
          "velocity": 0.4015748031496063
        },
        {
          "duration": 0.16279069767443843,
          "durationTicks": 14,
          "midi": 58,
          "name": "A#3",
          "ticks": 13010,
          "time": 151.27906976744185,
          "velocity": 0.2125984251968504
        },
        {
          "duration": 0.023255813953483084,
          "durationTicks": 2,
          "midi": 41,
          "name": "F2",
          "ticks": 13013,
          "time": 151.3139534883721,
          "velocity": 0.4015748031496063
        },
        {
          "duration": 0.17441860465115155,
          "durationTicks": 15,
          "midi": 54,
          "name": "F#3",
          "ticks": 13015,
          "time": 151.3372093023256,
          "velocity": 0.2283464566929134
        },
        {
          "duration": 0.023255813953483084,
          "durationTicks": 2,
          "midi": 41,
          "name": "F2",
          "ticks": 13016,
          "time": 151.34883720930233,
          "velocity": 0.36220472440944884
        },
        {
          "duration": 0.023255813953511506,
          "durationTicks": 2,
          "midi": 42,
          "name": "F#2",
          "ticks": 13022,
          "time": 151.41860465116278,
          "velocity": 0.3464566929133858
        },
        {
          "duration": 0.17441860465117998,
          "durationTicks": 15,
          "midi": 61,
          "name": "C#4",
          "ticks": 13022,
          "time": 151.41860465116278,
          "velocity": 0.11023622047244094
        },
        {
          "duration": 0.023255813953483084,
          "durationTicks": 2,
          "midi": 41,
          "name": "F2",
          "ticks": 13026,
          "time": 151.46511627906978,
          "velocity": 0.28346456692913385
        },
        {
          "duration": 1.0465116279069662,
          "durationTicks": 90,
          "midi": 66,
          "name": "F#4",
          "ticks": 13036,
          "time": 151.58139534883722,
          "velocity": 0.3228346456692913
        },
        {
          "duration": 0.034883720930224626,
          "durationTicks": 3,
          "midi": 44,
          "name": "G#2",
          "ticks": 13037,
          "time": 151.59302325581396,
          "velocity": 0.18110236220472442
        },
        {
          "duration": 0.05813953488370771,
          "durationTicks": 5,
          "midi": 54,
          "name": "F#3",
          "ticks": 13037,
          "time": 151.59302325581396,
          "velocity": 0.33858267716535434
        },
        {
          "duration": 0.1860465116278931,
          "durationTicks": 16,
          "midi": 61,
          "name": "C#4",
          "ticks": 13038,
          "time": 151.6046511627907,
          "velocity": 0.12598425196850394
        },
        {
          "duration": 0.034883720930224626,
          "durationTicks": 3,
          "midi": 40,
          "name": "E2",
          "ticks": 13042,
          "time": 151.65116279069767,
          "velocity": 0.3543307086614173
        },
        {
          "duration": 0.023255813953483084,
          "durationTicks": 2,
          "midi": 53,
          "name": "F3",
          "ticks": 13042,
          "time": 151.65116279069767,
          "velocity": 0.3700787401574803
        },
        {
          "duration": 0.023255813953511506,
          "durationTicks": 2,
          "midi": 54,
          "name": "F#3",
          "ticks": 13044,
          "time": 151.67441860465115,
          "velocity": 0.33858267716535434
        },
        {
          "duration": 0.04651162790699459,
          "durationTicks": 4,
          "midi": 39,
          "name": "D#2",
          "ticks": 13045,
          "time": 151.6860465116279,
          "velocity": 0.33858267716535434
        },
        {
          "duration": 0.023255813953483084,
          "durationTicks": 2,
          "midi": 54,
          "name": "F#3",
          "ticks": 13047,
          "time": 151.7093023255814,
          "velocity": 0.29133858267716534
        },
        {
          "duration": 0.12790697674418539,
          "durationTicks": 11,
          "midi": 58,
          "name": "A#3",
          "ticks": 13047,
          "time": 151.7093023255814,
          "velocity": 0.14960629921259844
        },
        {
          "duration": 0.023255813953483084,
          "durationTicks": 2,
          "midi": 39,
          "name": "D#2",
          "ticks": 13050,
          "time": 151.74418604651163,
          "velocity": 0.31496062992125984
        },
        {
          "duration": 0.023255813953483084,
          "durationTicks": 2,
          "midi": 54,
          "name": "F#3",
          "ticks": 13050,
          "time": 151.74418604651163,
          "velocity": 0.23622047244094488
        },
        {
          "duration": 0.023255813953483084,
          "durationTicks": 2,
          "midi": 54,
          "name": "F#3",
          "ticks": 13053,
          "time": 151.77906976744185,
          "velocity": 0.2283464566929134
        },
        {
          "duration": 0.023255813953511506,
          "durationTicks": 2,
          "midi": 40,
          "name": "E2",
          "ticks": 13054,
          "time": 151.7906976744186,
          "velocity": 0.3543307086614173
        },
        {
          "duration": 0.023255813953511506,
          "durationTicks": 2,
          "midi": 53,
          "name": "F3",
          "ticks": 13055,
          "time": 151.80232558139534,
          "velocity": 0.2992125984251969
        },
        {
          "duration": 0.034883720930224626,
          "durationTicks": 3,
          "midi": 39,
          "name": "D#2",
          "ticks": 13056,
          "time": 151.8139534883721,
          "velocity": 0.31496062992125984
        },
        {
          "duration": 0.023255813953483084,
          "durationTicks": 2,
          "midi": 54,
          "name": "F#3",
          "ticks": 13057,
          "time": 151.82558139534885,
          "velocity": 0.25984251968503935
        },
        {
          "duration": 0.06976744186044925,
          "durationTicks": 6,
          "midi": 61,
          "name": "C#4",
          "ticks": 13057,
          "time": 151.82558139534885,
          "velocity": 0.07874015748031496
        },
        {
          "duration": 0.034883720930224626,
          "durationTicks": 3,
          "midi": 40,
          "name": "E2",
          "ticks": 13059,
          "time": 151.84883720930233,
          "velocity": 0.3464566929133858
        },
        {
          "duration": 0.04651162790696617,
          "durationTicks": 4,
          "midi": 58,
          "name": "A#3",
          "ticks": 13059,
          "time": 151.84883720930233,
          "velocity": 0.09448818897637795
        },
        {
          "duration": 0.04651162790699459,
          "durationTicks": 4,
          "midi": 58,
          "name": "A#3",
          "ticks": 13064,
          "time": 151.90697674418604,
          "velocity": 0.10236220472440945
        },
        {
          "duration": 0.023255813953511506,
          "durationTicks": 2,
          "midi": 40,
          "name": "E2",
          "ticks": 13065,
          "time": 151.91860465116278,
          "velocity": 0.3464566929133858
        },
        {
          "duration": 0.023255813953483084,
          "durationTicks": 2,
          "midi": 39,
          "name": "D#2",
          "ticks": 13067,
          "time": 151.9418604651163,
          "velocity": 0.33070866141732286
        },
        {
          "duration": 0.25581395348837077,
          "durationTicks": 22,
          "midi": 61,
          "name": "C#4",
          "ticks": 13068,
          "time": 151.95348837209303,
          "velocity": 0.14960629921259844
        },
        {
          "duration": 0.06976744186044925,
          "durationTicks": 6,
          "midi": 51,
          "name": "D#3",
          "ticks": 13069,
          "time": 151.96511627906978,
          "velocity": 0.2047244094488189
        },
        {
          "duration": 0.023255813953483084,
          "durationTicks": 2,
          "midi": 37,
          "name": "C#2",
          "ticks": 13074,
          "time": 152.02325581395348,
          "velocity": 0.4015748031496063
        },
        {
          "duration": 0.04651162790699459,
          "durationTicks": 4,
          "midi": 51,
          "name": "D#3",
          "ticks": 13077,
          "time": 152.0581395348837,
          "velocity": 0.2047244094488189
        },
        {
          "duration": 0.023255813953483084,
          "durationTicks": 2,
          "midi": 37,
          "name": "C#2",
          "ticks": 13078,
          "time": 152.06976744186048,
          "velocity": 0.3700787401574803
        },
        {
          "duration": 0.12790697674418539,
          "durationTicks": 11,
          "midi": 51,
          "name": "D#3",
          "ticks": 13082,
          "time": 152.11627906976744,
          "velocity": 0.1968503937007874
        },
        {
          "duration": 0.023255813953483084,
          "durationTicks": 2,
          "midi": 39,
          "name": "D#2",
          "ticks": 13083,
          "time": 152.12790697674419,
          "velocity": 0.3464566929133858
        },
        {
          "duration": 0.08139534883721922,
          "durationTicks": 7,
          "midi": 70,
          "name": "A#4",
          "ticks": 13086,
          "time": 152.1627906976744,
          "velocity": 0.07086614173228346
        },
        {
          "duration": 0.05813953488373613,
          "durationTicks": 5,
          "midi": 58,
          "name": "A#3",
          "ticks": 13095,
          "time": 152.2674418604651,
          "velocity": 0.25984251968503935
        },
        {
          "duration": 0.023255813953483084,
          "durationTicks": 2,
          "midi": 41,
          "name": "F2",
          "ticks": 13096,
          "time": 152.27906976744185,
          "velocity": 0.23622047244094488
        },
        {
          "duration": 0.023255813953483084,
          "durationTicks": 2,
          "midi": 55,
          "name": "G3",
          "ticks": 13099,
          "time": 152.3139534883721,
          "velocity": 0.25984251968503935
        },
        {
          "duration": 0.034883720930224626,
          "durationTicks": 3,
          "midi": 48,
          "name": "C3",
          "ticks": 13100,
          "time": 152.32558139534885,
          "velocity": 0.33070866141732286
        },
        {
          "duration": 0.10465116279067388,
          "durationTicks": 9,
          "midi": 70,
          "name": "A#4",
          "ticks": 13100,
          "time": 152.32558139534885,
          "velocity": 0.15748031496062992
        },
        {
          "duration": 0.023255813953483084,
          "durationTicks": 2,
          "midi": 36,
          "name": "C2",
          "ticks": 13101,
          "time": 152.3372093023256,
          "velocity": 0.33070866141732286
        },
        {
          "duration": 0.06976744186044925,
          "durationTicks": 6,
          "midi": 58,
          "name": "A#3",
          "ticks": 13101,
          "time": 152.3372093023256,
          "velocity": 0.14173228346456693
        },
        {
          "duration": 0.023255813953483084,
          "durationTicks": 2,
          "midi": 37,
          "name": "C#2",
          "ticks": 13103,
          "time": 152.36046511627907,
          "velocity": 0.31496062992125984
        },
        {
          "duration": 0.09302325581396076,
          "durationTicks": 8,
          "midi": 94,
          "name": "A#6",
          "ticks": 13104,
          "time": 152.37209302325581,
          "velocity": 0.07086614173228346
        },
        {
          "duration": 0.4186046511628092,
          "durationTicks": 36,
          "midi": 37,
          "name": "C#2",
          "ticks": 13106,
          "time": 152.3953488372093,
          "velocity": 0.33070866141732286
        },
        {
          "duration": 0.034883720930224626,
          "durationTicks": 3,
          "midi": 54,
          "name": "F#3",
          "ticks": 13106,
          "time": 152.3953488372093,
          "velocity": 0.2677165354330709
        },
        {
          "duration": 0.023255813953483084,
          "durationTicks": 2,
          "midi": 53,
          "name": "F3",
          "ticks": 13111,
          "time": 152.45348837209303,
          "velocity": 0.28346456692913385
        },
        {
          "duration": 0.023255813953483084,
          "durationTicks": 2,
          "midi": 54,
          "name": "F#3",
          "ticks": 13113,
          "time": 152.47674418604652,
          "velocity": 0.33070866141732286
        },
        {
          "duration": 0.023255813953511506,
          "durationTicks": 2,
          "midi": 55,
          "name": "G3",
          "ticks": 13119,
          "time": 152.54651162790697,
          "velocity": 0.25196850393700787
        },
        {
          "duration": 0.04651162790696617,
          "durationTicks": 4,
          "midi": 56,
          "name": "G#3",
          "ticks": 13121,
          "time": 152.56976744186048,
          "velocity": 0.25196850393700787
        },
        {
          "duration": 0.023255813953483084,
          "durationTicks": 2,
          "midi": 50,
          "name": "D3",
          "ticks": 13126,
          "time": 152.62790697674419,
          "velocity": 0.30708661417322836
        },
        {
          "duration": 0.27906976744185386,
          "durationTicks": 24,
          "midi": 68,
          "name": "G#4",
          "ticks": 13127,
          "time": 152.63953488372093,
          "velocity": 0.2283464566929134
        },
        {
          "duration": 0.12790697674418539,
          "durationTicks": 11,
          "midi": 73,
          "name": "C#5",
          "ticks": 13128,
          "time": 152.65116279069767,
          "velocity": 0.08661417322834646
        },
        {
          "duration": 0.03488372093025305,
          "durationTicks": 3,
          "midi": 56,
          "name": "G#3",
          "ticks": 13129,
          "time": 152.6627906976744,
          "velocity": 0.3464566929133858
        },
        {
          "duration": 0.023255813953483084,
          "durationTicks": 2,
          "midi": 56,
          "name": "G#3",
          "ticks": 13133,
          "time": 152.7093023255814,
          "velocity": 0.2992125984251969
        },
        {
          "duration": 0.023255813953483084,
          "durationTicks": 2,
          "midi": 57,
          "name": "A3",
          "ticks": 13135,
          "time": 152.7325581395349,
          "velocity": 0.3228346456692913
        },
        {
          "duration": 0.04651162790696617,
          "durationTicks": 4,
          "midi": 70,
          "name": "A#4",
          "ticks": 13135,
          "time": 152.7325581395349,
          "velocity": 0.07086614173228346
        },
        {
          "duration": 0.023255813953511506,
          "durationTicks": 2,
          "midi": 56,
          "name": "G#3",
          "ticks": 13140,
          "time": 152.7906976744186,
          "velocity": 0.2677165354330709
        },
        {
          "duration": 0.04651162790699459,
          "durationTicks": 4,
          "midi": 70,
          "name": "A#4",
          "ticks": 13140,
          "time": 152.7906976744186,
          "velocity": 0.14173228346456693
        },
        {
          "duration": 0.05813953488370771,
          "durationTicks": 5,
          "midi": 36,
          "name": "C2",
          "ticks": 13142,
          "time": 152.8139534883721,
          "velocity": 0.2755905511811024
        },
        {
          "duration": 0.023255813953483084,
          "durationTicks": 2,
          "midi": 56,
          "name": "G#3",
          "ticks": 13144,
          "time": 152.8372093023256,
          "velocity": 0.25984251968503935
        },
        {
          "duration": 0.04651162790696617,
          "durationTicks": 4,
          "midi": 70,
          "name": "A#4",
          "ticks": 13145,
          "time": 152.84883720930233,
          "velocity": 0.08661417322834646
        },
        {
          "duration": 0.3139534883721069,
          "durationTicks": 27,
          "midi": 69,
          "name": "A4",
          "ticks": 13151,
          "time": 152.91860465116278,
          "velocity": 0.28346456692913385
        },
        {
          "duration": 0.034883720930224626,
          "durationTicks": 3,
          "midi": 50,
          "name": "D3",
          "ticks": 13155,
          "time": 152.96511627906978,
          "velocity": 0.2204724409448819
        },
        {
          "duration": 0.023255813953483084,
          "durationTicks": 2,
          "midi": 57,
          "name": "A3",
          "ticks": 13155,
          "time": 152.96511627906978,
          "velocity": 0.31496062992125984
        },
        {
          "duration": 0.6511627906976685,
          "durationTicks": 56,
          "midi": 61,
          "name": "C#4",
          "ticks": 13155,
          "time": 152.96511627906978,
          "velocity": 0.36220472440944884
        },
        {
          "duration": 0.12790697674418539,
          "durationTicks": 11,
          "midi": 88,
          "name": "E6",
          "ticks": 13157,
          "time": 152.98837209302326,
          "velocity": 0.14173228346456693
        },
        {
          "duration": 0.034883720930224626,
          "durationTicks": 3,
          "midi": 36,
          "name": "C2",
          "ticks": 13158,
          "time": 153,
          "velocity": 0.3937007874015748
        },
        {
          "duration": 0.13953488372092693,
          "durationTicks": 12,
          "midi": 57,
          "name": "A3",
          "ticks": 13158,
          "time": 153,
          "velocity": 0.33858267716535434
        },
        {
          "duration": 0.023255813953483084,
          "durationTicks": 2,
          "midi": 44,
          "name": "G#2",
          "ticks": 13160,
          "time": 153.02325581395348,
          "velocity": 0.3858267716535433
        },
        {
          "duration": 0.2906976744186238,
          "durationTicks": 25,
          "midi": 52,
          "name": "E3",
          "ticks": 13160,
          "time": 153.02325581395348,
          "velocity": 0.1968503937007874
        },
        {
          "duration": 0.04651162790699459,
          "durationTicks": 4,
          "midi": 34,
          "name": "A#1",
          "ticks": 13161,
          "time": 153.03488372093022,
          "velocity": 0.30708661417322836
        },
        {
          "duration": 0.6279069767441854,
          "durationTicks": 54,
          "midi": 45,
          "name": "A2",
          "ticks": 13162,
          "time": 153.04651162790697,
          "velocity": 0.36220472440944884
        },
        {
          "duration": 0.17441860465115155,
          "durationTicks": 15,
          "midi": 52,
          "name": "E3",
          "ticks": 13186,
          "time": 153.32558139534885,
          "velocity": 0.1732283464566929
        },
        {
          "duration": 0.27906976744185386,
          "durationTicks": 24,
          "midi": 78,
          "name": "F#5",
          "ticks": 13186,
          "time": 153.32558139534885,
          "velocity": 0.2440944881889764
        },
        {
          "duration": 0.034883720930224626,
          "durationTicks": 3,
          "midi": 35,
          "name": "B1",
          "ticks": 13203,
          "time": 153.52325581395348,
          "velocity": 0.31496062992125984
        },
        {
          "duration": 0.11627906976744384,
          "durationTicks": 10,
          "midi": 52,
          "name": "E3",
          "ticks": 13203,
          "time": 153.52325581395348,
          "velocity": 0.14960629921259844
        },
        {
          "duration": 0.04651162790699459,
          "durationTicks": 4,
          "midi": 34,
          "name": "A#1",
          "ticks": 13206,
          "time": 153.5581395348837,
          "velocity": 0.2755905511811024
        },
        {
          "duration": 0.04651162790696617,
          "durationTicks": 4,
          "midi": 56,
          "name": "G#3",
          "ticks": 13208,
          "time": 153.58139534883722,
          "velocity": 0.16535433070866143
        },
        {
          "duration": 0.023255813953483084,
          "durationTicks": 2,
          "midi": 34,
          "name": "A#1",
          "ticks": 13211,
          "time": 153.61627906976744,
          "velocity": 0.2283464566929134
        },
        {
          "duration": 0.023255813953511506,
          "durationTicks": 2,
          "midi": 55,
          "name": "G3",
          "ticks": 13216,
          "time": 153.67441860465115,
          "velocity": 0.29133858267716534
        },
        {
          "duration": 0.30232558139536536,
          "durationTicks": 26,
          "midi": 45,
          "name": "A2",
          "ticks": 13217,
          "time": 153.6860465116279,
          "velocity": 0.33858267716535434
        },
        {
          "duration": 0.5465116279069662,
          "durationTicks": 47,
          "midi": 61,
          "name": "C#4",
          "ticks": 13219,
          "time": 153.7093023255814,
          "velocity": 0.41732283464566927
        },
        {
          "duration": 0.04651162790696617,
          "durationTicks": 4,
          "midi": 95,
          "name": "B6",
          "ticks": 13219,
          "time": 153.7093023255814,
          "velocity": 0.10236220472440945
        },
        {
          "duration": 0.06976744186047767,
          "durationTicks": 6,
          "midi": 52,
          "name": "E3",
          "ticks": 13223,
          "time": 153.75581395348837,
          "velocity": 0.14960629921259844
        },
        {
          "duration": 0.1046511627907023,
          "durationTicks": 9,
          "midi": 95,
          "name": "B6",
          "ticks": 13226,
          "time": 153.7906976744186,
          "velocity": 0.11023622047244094
        },
        {
          "duration": 0.11627906976744384,
          "durationTicks": 10,
          "midi": 52,
          "name": "E3",
          "ticks": 13231,
          "time": 153.84883720930233,
          "velocity": 0.10236220472440945
        },
        {
          "duration": 0.1046511627907023,
          "durationTicks": 9,
          "midi": 76,
          "name": "E5",
          "ticks": 13231,
          "time": 153.84883720930233,
          "velocity": 0.10236220472440945
        },
        {
          "duration": 0.11627906976744384,
          "durationTicks": 10,
          "midi": 88,
          "name": "E6",
          "ticks": 13231,
          "time": 153.84883720930233,
          "velocity": 0.2125984251968504
        },
        {
          "duration": 0.034883720930224626,
          "durationTicks": 3,
          "midi": 36,
          "name": "C2",
          "ticks": 13245,
          "time": 154.01162790697674,
          "velocity": 0.3779527559055118
        },
        {
          "duration": 0.15116279069766847,
          "durationTicks": 13,
          "midi": 45,
          "name": "A2",
          "ticks": 13247,
          "time": 154.03488372093022,
          "velocity": 0.31496062992125984
        },
        {
          "duration": 0.05813953488373613,
          "durationTicks": 5,
          "midi": 52,
          "name": "E3",
          "ticks": 13247,
          "time": 154.03488372093022,
          "velocity": 0.14173228346456693
        },
        {
          "duration": 0.023255813953483084,
          "durationTicks": 2,
          "midi": 35,
          "name": "B1",
          "ticks": 13250,
          "time": 154.06976744186048,
          "velocity": 0.25196850393700787
        },
        {
          "duration": 0.04651162790696617,
          "durationTicks": 4,
          "midi": 45,
          "name": "A2",
          "ticks": 13261,
          "time": 154.19767441860466,
          "velocity": 0.1889763779527559
        },
        {
          "duration": 0.034883720930224626,
          "durationTicks": 3,
          "midi": 56,
          "name": "G#3",
          "ticks": 13266,
          "time": 154.25581395348837,
          "velocity": 0.09448818897637795
        },
        {
          "duration": 0.03488372093025305,
          "durationTicks": 3,
          "midi": 33,
          "name": "A1",
          "ticks": 13268,
          "time": 154.27906976744185,
          "velocity": 0.08661417322834646
        },
        {
          "duration": 0.04651162790699459,
          "durationTicks": 4,
          "midi": 44,
          "name": "G#2",
          "ticks": 13269,
          "time": 154.2906976744186,
          "velocity": 0.10236220472440945
        },
        {
          "duration": 0.023255813953511506,
          "durationTicks": 2,
          "midi": 62,
          "name": "D4",
          "ticks": 13270,
          "time": 154.30232558139534,
          "velocity": 0.2440944881889764
        },
        {
          "duration": 0.05813953488370771,
          "durationTicks": 5,
          "midi": 61,
          "name": "C#4",
          "ticks": 13272,
          "time": 154.32558139534885,
          "velocity": 0.28346456692913385
        },
        {
          "duration": 0.32558139534882,
          "durationTicks": 28,
          "midi": 44,
          "name": "G#2",
          "ticks": 13275,
          "time": 154.36046511627907,
          "velocity": 0.36220472440944884
        },
        {
          "duration": 0.5232558139534831,
          "durationTicks": 45,
          "midi": 68,
          "name": "G#4",
          "ticks": 13275,
          "time": 154.36046511627907,
          "velocity": 0.25196850393700787
        },
        {
          "duration": 0.023255813953483084,
          "durationTicks": 2,
          "midi": 62,
          "name": "D4",
          "ticks": 13277,
          "time": 154.38372093023256,
          "velocity": 0.25984251968503935
        },
        {
          "duration": 1.139534883720927,
          "durationTicks": 98,
          "midi": 63,
          "name": "D#4",
          "ticks": 13279,
          "time": 154.40697674418604,
          "velocity": 0.33070866141732286
        },
        {
          "duration": 0.08139534883721922,
          "durationTicks": 7,
          "midi": 59,
          "name": "B3",
          "ticks": 13297,
          "time": 154.61627906976744,
          "velocity": 0.09448818897637795
        },
        {
          "duration": 0.5232558139534831,
          "durationTicks": 45,
          "midi": 44,
          "name": "G#2",
          "ticks": 13304,
          "time": 154.69767441860466,
          "velocity": 0.3779527559055118
        },
        {
          "duration": 0.023255813953483084,
          "durationTicks": 2,
          "midi": 34,
          "name": "A#1",
          "ticks": 13306,
          "time": 154.72093023255815,
          "velocity": 0.3700787401574803
        },
        {
          "duration": 0.04651162790696617,
          "durationTicks": 4,
          "midi": 32,
          "name": "G#1",
          "ticks": 13325,
          "time": 154.9418604651163,
          "velocity": 0.1968503937007874
        },
        {
          "duration": 0.30232558139533694,
          "durationTicks": 26,
          "midi": 68,
          "name": "G#4",
          "ticks": 13329,
          "time": 154.98837209302326,
          "velocity": 0.18110236220472442
        },
        {
          "duration": 0.04651162790696617,
          "durationTicks": 4,
          "midi": 32,
          "name": "G#1",
          "ticks": 13330,
          "time": 155,
          "velocity": 0.16535433070866143
        },
        {
          "duration": 0.04651162790699459,
          "durationTicks": 4,
          "midi": 55,
          "name": "G3",
          "ticks": 13332,
          "time": 155.02325581395348,
          "velocity": 0.3464566929133858
        },
        {
          "duration": 0.08139534883721922,
          "durationTicks": 7,
          "midi": 97,
          "name": "C#7",
          "ticks": 13335,
          "time": 155.0581395348837,
          "velocity": 0.09448818897637795
        },
        {
          "duration": 0.034883720930224626,
          "durationTicks": 3,
          "midi": 32,
          "name": "G#1",
          "ticks": 13336,
          "time": 155.06976744186048,
          "velocity": 0.15748031496062992
        },
        {
          "duration": 0.034883720930224626,
          "durationTicks": 3,
          "midi": 59,
          "name": "B3",
          "ticks": 13343,
          "time": 155.15116279069767,
          "velocity": 0.14173228346456693
        },
        {
          "duration": 0.023255813953483084,
          "durationTicks": 2,
          "midi": 37,
          "name": "C#2",
          "ticks": 13348,
          "time": 155.2093023255814,
          "velocity": 0.33070866141732286
        },
        {
          "duration": 0.15116279069766847,
          "durationTicks": 13,
          "midi": 59,
          "name": "B3",
          "ticks": 13348,
          "time": 155.2093023255814,
          "velocity": 0.1968503937007874
        },
        {
          "duration": 0.034883720930224626,
          "durationTicks": 3,
          "midi": 56,
          "name": "G#3",
          "ticks": 13352,
          "time": 155.25581395348837,
          "velocity": 0.15748031496062992
        },
        {
          "duration": 0.023255813953483084,
          "durationTicks": 2,
          "midi": 34,
          "name": "A#1",
          "ticks": 13353,
          "time": 155.2674418604651,
          "velocity": 0.33858267716535434
        },
        {
          "duration": 0.05813953488373613,
          "durationTicks": 5,
          "midi": 33,
          "name": "A1",
          "ticks": 13355,
          "time": 155.2906976744186,
          "velocity": 0.30708661417322836
        },
        {
          "duration": 0.06976744186047767,
          "durationTicks": 6,
          "midi": 44,
          "name": "G#2",
          "ticks": 13355,
          "time": 155.2906976744186,
          "velocity": 0.2677165354330709
        },
        {
          "duration": 0.12790697674418539,
          "durationTicks": 11,
          "midi": 90,
          "name": "F#6",
          "ticks": 13361,
          "time": 155.36046511627907,
          "velocity": 0.12598425196850394
        },
        {
          "duration": 0.04651162790696617,
          "durationTicks": 4,
          "midi": 44,
          "name": "G#2",
          "ticks": 13362,
          "time": 155.37209302325581,
          "velocity": 0.23622047244094488
        },
        {
          "duration": 0.04651162790699459,
          "durationTicks": 4,
          "midi": 44,
          "name": "G#2",
          "ticks": 13367,
          "time": 155.43023255813952,
          "velocity": 0.2204724409448819
        },
        {
          "duration": 0.05813953488370771,
          "durationTicks": 5,
          "midi": 59,
          "name": "B3",
          "ticks": 13372,
          "time": 155.48837209302326,
          "velocity": 0.14960629921259844
        },
        {
          "duration": 0.05813953488370771,
          "durationTicks": 5,
          "midi": 43,
          "name": "G2",
          "ticks": 13373,
          "time": 155.5,
          "velocity": 0.2047244094488189
        },
        {
          "duration": 0.09302325581396076,
          "durationTicks": 8,
          "midi": 42,
          "name": "F#2",
          "ticks": 13378,
          "time": 155.5581395348837,
          "velocity": 0.2047244094488189
        },
        {
          "duration": 0.034883720930224626,
          "durationTicks": 3,
          "midi": 57,
          "name": "A3",
          "ticks": 13382,
          "time": 155.6046511627907,
          "velocity": 0.14960629921259844
        },
        {
          "duration": 1.0348837209302246,
          "durationTicks": 89,
          "midi": 58,
          "name": "A#3",
          "ticks": 13390,
          "time": 155.69767441860466,
          "velocity": 0.4015748031496063
        },
        {
          "duration": 0.034883720930224626,
          "durationTicks": 3,
          "midi": 42,
          "name": "F#2",
          "ticks": 13401,
          "time": 155.82558139534885,
          "velocity": 0.3464566929133858
        },
        {
          "duration": 0.04651162790696617,
          "durationTicks": 4,
          "midi": 54,
          "name": "F#3",
          "ticks": 13404,
          "time": 155.86046511627907,
          "velocity": 0.25196850393700787
        },
        {
          "duration": 0.09302325581396076,
          "durationTicks": 8,
          "midi": 42,
          "name": "F#2",
          "ticks": 13407,
          "time": 155.8953488372093,
          "velocity": 0.3543307086614173
        },
        {
          "duration": 0.22093023255814614,
          "durationTicks": 19,
          "midi": 66,
          "name": "F#4",
          "ticks": 13414,
          "time": 155.97674418604652,
          "velocity": 0.08661417322834646
        },
        {
          "duration": 0.22093023255814614,
          "durationTicks": 19,
          "midi": 42,
          "name": "F#2",
          "ticks": 13416,
          "time": 156,
          "velocity": 0.3543307086614173
        },
        {
          "duration": 0.12790697674418539,
          "durationTicks": 11,
          "midi": 73,
          "name": "C#5",
          "ticks": 13426,
          "time": 156.11627906976744,
          "velocity": 0.10236220472440945
        },
        {
          "duration": 0.04651162790696617,
          "durationTicks": 4,
          "midi": 42,
          "name": "F#2",
          "ticks": 13446,
          "time": 156.34883720930233,
          "velocity": 0.3543307086614173
        },
        {
          "duration": 0.023255813953483084,
          "durationTicks": 2,
          "midi": 55,
          "name": "G3",
          "ticks": 13450,
          "time": 156.3953488372093,
          "velocity": 0.29133858267716534
        },
        {
          "duration": 0.30232558139536536,
          "durationTicks": 26,
          "midi": 42,
          "name": "F#2",
          "ticks": 13453,
          "time": 156.43023255813952,
          "velocity": 0.33070866141732286
        },
        {
          "duration": 0.2674418604651123,
          "durationTicks": 23,
          "midi": 66,
          "name": "F#4",
          "ticks": 13479,
          "time": 156.7325581395349,
          "velocity": 0.2755905511811024
        },
        {
          "duration": 0.034883720930224626,
          "durationTicks": 3,
          "midi": 36,
          "name": "C2",
          "ticks": 13480,
          "time": 156.74418604651163,
          "velocity": 0.3858267716535433
        },
        {
          "duration": 0.32558139534884845,
          "durationTicks": 28,
          "midi": 58,
          "name": "A#3",
          "ticks": 13483,
          "time": 156.77906976744185,
          "velocity": 0.30708661417322836
        },
        {
          "duration": 0.034883720930224626,
          "durationTicks": 3,
          "midi": 33,
          "name": "A1",
          "ticks": 13488,
          "time": 156.8372093023256,
          "velocity": 0.29133858267716534
        },
        {
          "duration": 0.034883720930224626,
          "durationTicks": 3,
          "midi": 54,
          "name": "F#3",
          "ticks": 13488,
          "time": 156.8372093023256,
          "velocity": 0.1889763779527559
        },
        {
          "duration": 0.09302325581396076,
          "durationTicks": 8,
          "midi": 42,
          "name": "F#2",
          "ticks": 13494,
          "time": 156.90697674418604,
          "velocity": 0.2440944881889764
        },
        {
          "duration": 0.034883720930224626,
          "durationTicks": 3,
          "midi": 50,
          "name": "D3",
          "ticks": 13508,
          "time": 157.06976744186048,
          "velocity": 0.25196850393700787
        },
        {
          "duration": 0.5,
          "durationTicks": 43,
          "midi": 63,
          "name": "D#4",
          "ticks": 13511,
          "time": 157.1046511627907,
          "velocity": 0.3228346456692913
        },
        {
          "duration": 0.04651162790696617,
          "durationTicks": 4,
          "midi": 42,
          "name": "F#2",
          "ticks": 13512,
          "time": 157.11627906976744,
          "velocity": 0.33858267716535434
        },
        {
          "duration": 0.04651162790696617,
          "durationTicks": 4,
          "midi": 50,
          "name": "D3",
          "ticks": 13514,
          "time": 157.13953488372093,
          "velocity": 0.2204724409448819
        },
        {
          "duration": 0.05813953488373613,
          "durationTicks": 5,
          "midi": 66,
          "name": "F#4",
          "ticks": 13516,
          "time": 157.1627906976744,
          "velocity": 0.11811023622047244
        },
        {
          "duration": 0.06976744186047767,
          "durationTicks": 6,
          "midi": 73,
          "name": "C#5",
          "ticks": 13516,
          "time": 157.1627906976744,
          "velocity": 0.08661417322834646
        },
        {
          "duration": 0.2325581395348877,
          "durationTicks": 20,
          "midi": 42,
          "name": "F#2",
          "ticks": 13517,
          "time": 157.17441860465115,
          "velocity": 0.3543307086614173
        },
        {
          "duration": 0.27906976744185386,
          "durationTicks": 24,
          "midi": 58,
          "name": "A#3",
          "ticks": 13520,
          "time": 157.2093023255814,
          "velocity": 0.33070866141732286
        },
        {
          "duration": 0.04651162790696617,
          "durationTicks": 4,
          "midi": 50,
          "name": "D3",
          "ticks": 13532,
          "time": 157.34883720930233,
          "velocity": 0.14173228346456693
        },
        {
          "duration": 0.023255813953483084,
          "durationTicks": 2,
          "midi": 43,
          "name": "G2",
          "ticks": 13537,
          "time": 157.40697674418604,
          "velocity": 0.3779527559055118
        },
        {
          "duration": 0.04651162790696617,
          "durationTicks": 4,
          "midi": 54,
          "name": "F#3",
          "ticks": 13540,
          "time": 157.4418604651163,
          "velocity": 0.2755905511811024
        },
        {
          "duration": 0.09302325581396076,
          "durationTicks": 8,
          "midi": 54,
          "name": "F#3",
          "ticks": 13545,
          "time": 157.5,
          "velocity": 0.2755905511811024
        },
        {
          "duration": 0.15116279069766847,
          "durationTicks": 13,
          "midi": 58,
          "name": "A#3",
          "ticks": 13547,
          "time": 157.52325581395348,
          "velocity": 0.1732283464566929
        },
        {
          "duration": 0.05813953488373613,
          "durationTicks": 5,
          "midi": 42,
          "name": "F#2",
          "ticks": 13549,
          "time": 157.54651162790697,
          "velocity": 0.3858267716535433
        },
        {
          "duration": 0.04651162790699459,
          "durationTicks": 4,
          "midi": 43,
          "name": "G2",
          "ticks": 13558,
          "time": 157.65116279069767,
          "velocity": 0.3858267716535433
        },
        {
          "duration": 0.034883720930224626,
          "durationTicks": 3,
          "midi": 44,
          "name": "G#2",
          "ticks": 13562,
          "time": 157.69767441860466,
          "velocity": 0.3228346456692913
        },
        {
          "duration": 0.04651162790696617,
          "durationTicks": 4,
          "midi": 70,
          "name": "A#4",
          "ticks": 13564,
          "time": 157.72093023255815,
          "velocity": 0.09448818897637795
        },
        {
          "duration": 0.023255813953483084,
          "durationTicks": 2,
          "midi": 44,
          "name": "G#2",
          "ticks": 13566,
          "time": 157.74418604651163,
          "velocity": 0.33070866141732286
        },
        {
          "duration": 0.05813953488370771,
          "durationTicks": 5,
          "midi": 57,
          "name": "A3",
          "ticks": 13566,
          "time": 157.74418604651163,
          "velocity": 0.31496062992125984
        },
        {
          "duration": 0.04651162790696617,
          "durationTicks": 4,
          "midi": 62,
          "name": "D4",
          "ticks": 13566,
          "time": 157.74418604651163,
          "velocity": 0.25196850393700787
        },
        {
          "duration": 0.33720930232559,
          "durationTicks": 29,
          "midi": 44,
          "name": "G#2",
          "ticks": 13570,
          "time": 157.7906976744186,
          "velocity": 0.41732283464566927
        },
        {
          "duration": 0.2790697674418823,
          "durationTicks": 24,
          "midi": 63,
          "name": "D#4",
          "ticks": 13570,
          "time": 157.7906976744186,
          "velocity": 0.3228346456692913
        },
        {
          "duration": 0.023255813953511506,
          "durationTicks": 2,
          "midi": 55,
          "name": "G3",
          "ticks": 13582,
          "time": 157.93023255813952,
          "velocity": 0.3858267716535433
        },
        {
          "duration": 0.04651162790696617,
          "durationTicks": 4,
          "midi": 32,
          "name": "G#1",
          "ticks": 13586,
          "time": 157.97674418604652,
          "velocity": 0.14173228346456693
        },
        {
          "duration": 0.034883720930224626,
          "durationTicks": 3,
          "midi": 32,
          "name": "G#1",
          "ticks": 13594,
          "time": 158.06976744186048,
          "velocity": 0.13385826771653545
        },
        {
          "duration": 0.04651162790696617,
          "durationTicks": 4,
          "midi": 55,
          "name": "G3",
          "ticks": 13596,
          "time": 158.09302325581396,
          "velocity": 0.3700787401574803
        },
        {
          "duration": 0.4534883720930054,
          "durationTicks": 39,
          "midi": 66,
          "name": "F#4",
          "ticks": 13597,
          "time": 158.1046511627907,
          "velocity": 0.2755905511811024
        },
        {
          "duration": 0.27906976744185386,
          "durationTicks": 24,
          "midi": 70,
          "name": "A#4",
          "ticks": 13597,
          "time": 158.1046511627907,
          "velocity": 0.1732283464566929
        },
        {
          "duration": 0.24418604651162923,
          "durationTicks": 21,
          "midi": 58,
          "name": "A#3",
          "ticks": 13599,
          "time": 158.12790697674419,
          "velocity": 0.2677165354330709
        },
        {
          "duration": 0.16279069767441,
          "durationTicks": 14,
          "midi": 44,
          "name": "G#2",
          "ticks": 13600,
          "time": 158.13953488372093,
          "velocity": 0.4094488188976378
        },
        {
          "duration": 0.023255813953511506,
          "durationTicks": 2,
          "midi": 53,
          "name": "F3",
          "ticks": 13613,
          "time": 158.2906976744186,
          "velocity": 0.23622047244094488
        },
        {
          "duration": 0.023255813953511506,
          "durationTicks": 2,
          "midi": 53,
          "name": "F3",
          "ticks": 13625,
          "time": 158.43023255813952,
          "velocity": 0.23622047244094488
        },
        {
          "duration": 0.34883720930233153,
          "durationTicks": 30,
          "midi": 61,
          "name": "C#4",
          "ticks": 13625,
          "time": 158.43023255813952,
          "velocity": 0.2755905511811024
        },
        {
          "duration": 0.023255813953483084,
          "durationTicks": 2,
          "midi": 52,
          "name": "E3",
          "ticks": 13627,
          "time": 158.45348837209303,
          "velocity": 0.2283464566929134
        },
        {
          "duration": 0.023255813953483084,
          "durationTicks": 2,
          "midi": 36,
          "name": "C2",
          "ticks": 13629,
          "time": 158.47674418604652,
          "velocity": 0.3858267716535433
        },
        {
          "duration": 0.4767441860465169,
          "durationTicks": 41,
          "midi": 45,
          "name": "A2",
          "ticks": 13629,
          "time": 158.47674418604652,
          "velocity": 0.4015748031496063
        },
        {
          "duration": 0.023255813953483084,
          "durationTicks": 2,
          "midi": 35,
          "name": "B1",
          "ticks": 13631,
          "time": 158.5,
          "velocity": 0.36220472440944884
        },
        {
          "duration": 0.034883720930224626,
          "durationTicks": 3,
          "midi": 34,
          "name": "A#1",
          "ticks": 13633,
          "time": 158.52325581395348,
          "velocity": 0.3228346456692913
        },
        {
          "duration": 0.034883720930224626,
          "durationTicks": 3,
          "midi": 52,
          "name": "E3",
          "ticks": 13633,
          "time": 158.52325581395348,
          "velocity": 0.18110236220472442
        },
        {
          "duration": 0.04651162790696617,
          "durationTicks": 4,
          "midi": 52,
          "name": "E3",
          "ticks": 13638,
          "time": 158.58139534883722,
          "velocity": 0.14173228346456693
        },
        {
          "duration": 0.04651162790699459,
          "durationTicks": 4,
          "midi": 52,
          "name": "E3",
          "ticks": 13644,
          "time": 158.65116279069767,
          "velocity": 0.13385826771653545
        },
        {
          "duration": 0.05813953488370771,
          "durationTicks": 5,
          "midi": 52,
          "name": "E3",
          "ticks": 13649,
          "time": 158.7093023255814,
          "velocity": 0.08661417322834646
        },
        {
          "duration": 0.1046511627907023,
          "durationTicks": 9,
          "midi": 64,
          "name": "E4",
          "ticks": 13654,
          "time": 158.7674418604651,
          "velocity": 0.16535433070866143
        },
        {
          "duration": 0.11627906976744384,
          "durationTicks": 10,
          "midi": 76,
          "name": "E5",
          "ticks": 13654,
          "time": 158.7674418604651,
          "velocity": 0.16535433070866143
        },
        {
          "duration": 0.2790697674418823,
          "durationTicks": 24,
          "midi": 68,
          "name": "G#4",
          "ticks": 13656,
          "time": 158.7906976744186,
          "velocity": 0.12598425196850394
        },
        {
          "duration": 0.2790697674418823,
          "durationTicks": 24,
          "midi": 73,
          "name": "C#5",
          "ticks": 13656,
          "time": 158.7906976744186,
          "velocity": 0.14173228346456693
        },
        {
          "duration": 0.09302325581393234,
          "durationTicks": 8,
          "midi": 52,
          "name": "E3",
          "ticks": 13660,
          "time": 158.8372093023256,
          "velocity": 0.08661417322834646
        },
        {
          "duration": 0.04651162790696617,
          "durationTicks": 4,
          "midi": 61,
          "name": "C#4",
          "ticks": 13664,
          "time": 158.88372093023256,
          "velocity": 0.11811023622047244
        },
        {
          "duration": 0.06976744186044925,
          "durationTicks": 6,
          "midi": 63,
          "name": "D#4",
          "ticks": 13670,
          "time": 158.95348837209303,
          "velocity": 0.1732283464566929
        },
        {
          "duration": 0.034883720930224626,
          "durationTicks": 3,
          "midi": 36,
          "name": "C2",
          "ticks": 13672,
          "time": 158.97674418604652,
          "velocity": 0.3543307086614173
        },
        {
          "duration": 0.09302325581396076,
          "durationTicks": 8,
          "midi": 57,
          "name": "A3",
          "ticks": 13672,
          "time": 158.97674418604652,
          "velocity": 0.11811023622047244
        },
        {
          "duration": 0.4767441860465169,
          "durationTicks": 41,
          "midi": 45,
          "name": "A2",
          "ticks": 13673,
          "time": 158.98837209302326,
          "velocity": 0.3700787401574803
        },
        {
          "duration": 0.11627906976744384,
          "durationTicks": 10,
          "midi": 52,
          "name": "E3",
          "ticks": 13674,
          "time": 159,
          "velocity": 0.2047244094488189
        },
        {
          "duration": 0.5581395348837361,
          "durationTicks": 48,
          "midi": 61,
          "name": "C#4",
          "ticks": 13676,
          "time": 159.02325581395348,
          "velocity": 0.2992125984251969
        },
        {
          "duration": 0.03488372093025305,
          "durationTicks": 3,
          "midi": 34,
          "name": "A#1",
          "ticks": 13678,
          "time": 159.04651162790697,
          "velocity": 0.25196850393700787
        },
        {
          "duration": 0.023255813953483084,
          "durationTicks": 2,
          "midi": 33,
          "name": "A1",
          "ticks": 13683,
          "time": 159.1046511627907,
          "velocity": 0.2755905511811024
        },
        {
          "duration": 0.034883720930224626,
          "durationTicks": 3,
          "midi": 71,
          "name": "B4",
          "ticks": 13684,
          "time": 159.11627906976744,
          "velocity": 0.12598425196850394
        },
        {
          "duration": 0.023255813953483084,
          "durationTicks": 2,
          "midi": 34,
          "name": "A#1",
          "ticks": 13685,
          "time": 159.12790697674419,
          "velocity": 0.25984251968503935
        },
        {
          "duration": 0.1046511627907023,
          "durationTicks": 9,
          "midi": 52,
          "name": "E3",
          "ticks": 13703,
          "time": 159.3372093023256,
          "velocity": 0.09448818897637795
        },
        {
          "duration": 0.25581395348837077,
          "durationTicks": 22,
          "midi": 68,
          "name": "G#4",
          "ticks": 13712,
          "time": 159.4418604651163,
          "velocity": 0.2283464566929134
        },
        {
          "duration": 0.09302325581393234,
          "durationTicks": 8,
          "midi": 56,
          "name": "G#3",
          "ticks": 13714,
          "time": 159.46511627906978,
          "velocity": 0.28346456692913385
        },
        {
          "duration": 0.20930232558137618,
          "durationTicks": 18,
          "midi": 45,
          "name": "A2",
          "ticks": 13715,
          "time": 159.47674418604652,
          "velocity": 0.33070866141732286
        },
        {
          "duration": 0.023255813953483084,
          "durationTicks": 2,
          "midi": 35,
          "name": "B1",
          "ticks": 13718,
          "time": 159.51162790697674,
          "velocity": 0.2755905511811024
        },
        {
          "duration": 0.05813953488373613,
          "durationTicks": 5,
          "midi": 34,
          "name": "A#1",
          "ticks": 13720,
          "time": 159.53488372093022,
          "velocity": 0.2755905511811024
        },
        {
          "duration": 0.04651162790699459,
          "durationTicks": 4,
          "midi": 52,
          "name": "E3",
          "ticks": 13722,
          "time": 159.5581395348837,
          "velocity": 0.14173228346456693
        },
        {
          "duration": 0.023255813953483084,
          "durationTicks": 2,
          "midi": 33,
          "name": "A1",
          "ticks": 13725,
          "time": 159.59302325581396,
          "velocity": 0.2440944881889764
        },
        {
          "duration": 0.1046511627907023,
          "durationTicks": 9,
          "midi": 56,
          "name": "G#3",
          "ticks": 13726,
          "time": 159.6046511627907,
          "velocity": 0.2125984251968504
        },
        {
          "duration": 0.023255813953483084,
          "durationTicks": 2,
          "midi": 34,
          "name": "A#1",
          "ticks": 13727,
          "time": 159.61627906976744,
          "velocity": 0.25196850393700787
        },
        {
          "duration": 0.034883720930224626,
          "durationTicks": 3,
          "midi": 34,
          "name": "A#1",
          "ticks": 13735,
          "time": 159.7093023255814,
          "velocity": 0.18110236220472442
        },
        {
          "duration": 0.04651162790696617,
          "durationTicks": 4,
          "midi": 33,
          "name": "A1",
          "ticks": 13738,
          "time": 159.74418604651163,
          "velocity": 0.12598425196850394
        },
        {
          "duration": 1.33720930232559,
          "durationTicks": 115,
          "midi": 66,
          "name": "F#4",
          "ticks": 13741,
          "time": 159.77906976744185,
          "velocity": 0.25196850393700787
        },
        {
          "duration": 0.023255813953511506,
          "durationTicks": 2,
          "midi": 55,
          "name": "G3",
          "ticks": 13743,
          "time": 159.80232558139534,
          "velocity": 0.2992125984251969
        },
        {
          "duration": 0.22093023255814614,
          "durationTicks": 19,
          "midi": 71,
          "name": "B4",
          "ticks": 13743,
          "time": 159.80232558139534,
          "velocity": 0.2204724409448819
        },
        {
          "duration": 0.1046511627907023,
          "durationTicks": 9,
          "midi": 90,
          "name": "F#6",
          "ticks": 13743,
          "time": 159.80232558139534,
          "velocity": 0.15748031496062992
        },
        {
          "duration": 0.82558139534882,
          "durationTicks": 71,
          "midi": 44,
          "name": "G#2",
          "ticks": 13745,
          "time": 159.82558139534885,
          "velocity": 0.44881889763779526
        },
        {
          "duration": 0.12790697674418539,
          "durationTicks": 11,
          "midi": 63,
          "name": "D#4",
          "ticks": 13758,
          "time": 159.97674418604652,
          "velocity": 0.09448818897637795
        },
        {
          "duration": 0.1046511627907023,
          "durationTicks": 9,
          "midi": 59,
          "name": "B3",
          "ticks": 13765,
          "time": 160.0581395348837,
          "velocity": 0.1968503937007874
        },
        {
          "duration": 0.04651162790696617,
          "durationTicks": 4,
          "midi": 32,
          "name": "G#1",
          "ticks": 13767,
          "time": 160.08139534883722,
          "velocity": 0.11023622047244094
        },
        {
          "duration": 0.17441860465117998,
          "durationTicks": 15,
          "midi": 59,
          "name": "B3",
          "ticks": 13775,
          "time": 160.17441860465115,
          "velocity": 0.25196850393700787
        },
        {
          "duration": 0.023255813953483084,
          "durationTicks": 2,
          "midi": 35,
          "name": "B1",
          "ticks": 13777,
          "time": 160.19767441860466,
          "velocity": 0.3464566929133858
        },
        {
          "duration": 0.023255813953483084,
          "durationTicks": 2,
          "midi": 34,
          "name": "A#1",
          "ticks": 13779,
          "time": 160.22093023255815,
          "velocity": 0.33070866141732286
        },
        {
          "duration": 0.05813953488370771,
          "durationTicks": 5,
          "midi": 59,
          "name": "B3",
          "ticks": 13791,
          "time": 160.36046511627907,
          "velocity": 0.2204724409448819
        },
        {
          "duration": 0.023255813953483084,
          "durationTicks": 2,
          "midi": 55,
          "name": "G3",
          "ticks": 13803,
          "time": 160.5,
          "velocity": 0.3779527559055118
        },
        {
          "duration": 0.04651162790699459,
          "durationTicks": 4,
          "midi": 63,
          "name": "D#4",
          "ticks": 13806,
          "time": 160.53488372093022,
          "velocity": 0.10236220472440945
        },
        {
          "duration": 0.22093023255814614,
          "durationTicks": 19,
          "midi": 59,
          "name": "B3",
          "ticks": 13816,
          "time": 160.65116279069767,
          "velocity": 0.2125984251968504
        },
        {
          "duration": 0.023255813953511506,
          "durationTicks": 2,
          "midi": 36,
          "name": "C2",
          "ticks": 13818,
          "time": 160.67441860465115,
          "velocity": 0.3858267716535433
        },
        {
          "duration": 0.034883720930224626,
          "durationTicks": 3,
          "midi": 35,
          "name": "B1",
          "ticks": 13820,
          "time": 160.69767441860466,
          "velocity": 0.3543307086614173
        },
        {
          "duration": 0.24418604651162923,
          "durationTicks": 21,
          "midi": 44,
          "name": "G#2",
          "ticks": 13820,
          "time": 160.69767441860466,
          "velocity": 0.3228346456692913
        },
        {
          "duration": 0.2325581395348877,
          "durationTicks": 20,
          "midi": 90,
          "name": "F#6",
          "ticks": 13832,
          "time": 160.8372093023256,
          "velocity": 0.12598425196850394
        },
        {
          "duration": 0.2093023255814046,
          "durationTicks": 18,
          "midi": 71,
          "name": "B4",
          "ticks": 13837,
          "time": 160.8953488372093,
          "velocity": 0.18110236220472442
        },
        {
          "duration": 0.04651162790696617,
          "durationTicks": 4,
          "midi": 33,
          "name": "A1",
          "ticks": 13846,
          "time": 161,
          "velocity": 0.07874015748031496
        },
        {
          "duration": 0.03488372093025305,
          "durationTicks": 3,
          "midi": 59,
          "name": "B3",
          "ticks": 13851,
          "time": 161.0581395348837,
          "velocity": 0.11023622047244094
        },
        {
          "duration": 0.11627906976744384,
          "durationTicks": 10,
          "midi": 71,
          "name": "B4",
          "ticks": 13860,
          "time": 161.1627906976744,
          "velocity": 0.14173228346456693
        },
        {
          "duration": 0.1046511627907023,
          "durationTicks": 9,
          "midi": 90,
          "name": "F#6",
          "ticks": 13860,
          "time": 161.1627906976744,
          "velocity": 0.08661417322834646
        },
        {
          "duration": 0.3720930232558146,
          "durationTicks": 32,
          "midi": 61,
          "name": "C#4",
          "ticks": 13861,
          "time": 161.17441860465115,
          "velocity": 0.33858267716535434
        },
        {
          "duration": 0.1279069767442138,
          "durationTicks": 11,
          "midi": 66,
          "name": "F#4",
          "ticks": 13862,
          "time": 161.1860465116279,
          "velocity": 0.12598425196850394
        },
        {
          "duration": 0.023255813953483084,
          "durationTicks": 2,
          "midi": 41,
          "name": "F2",
          "ticks": 13865,
          "time": 161.22093023255815,
          "velocity": 0.4094488188976378
        },
        {
          "duration": 0.05813953488370771,
          "durationTicks": 5,
          "midi": 54,
          "name": "F#3",
          "ticks": 13865,
          "time": 161.22093023255815,
          "velocity": 0.2047244094488189
        },
        {
          "duration": 0.034883720930224626,
          "durationTicks": 3,
          "midi": 42,
          "name": "F#2",
          "ticks": 13869,
          "time": 161.2674418604651,
          "velocity": 0.3779527559055118
        },
        {
          "duration": 0.36046511627904465,
          "durationTicks": 31,
          "midi": 42,
          "name": "F#2",
          "ticks": 13874,
          "time": 161.32558139534885,
          "velocity": 0.3700787401574803
        },
        {
          "duration": 0.15116279069766847,
          "durationTicks": 13,
          "midi": 66,
          "name": "F#4",
          "ticks": 13889,
          "time": 161.5,
          "velocity": 0.18110236220472442
        },
        {
          "duration": 0.3604651162790731,
          "durationTicks": 31,
          "midi": 70,
          "name": "A#4",
          "ticks": 13889,
          "time": 161.5,
          "velocity": 0.2440944881889764
        },
        {
          "duration": 0.13953488372095535,
          "durationTicks": 12,
          "midi": 58,
          "name": "A#3",
          "ticks": 13894,
          "time": 161.5581395348837,
          "velocity": 0.1889763779527559
        },
        {
          "duration": 0.66279069767441,
          "durationTicks": 57,
          "midi": 61,
          "name": "C#4",
          "ticks": 13898,
          "time": 161.6046511627907,
          "velocity": 0.33858267716535434
        },
        {
          "duration": 0.03488372093025305,
          "durationTicks": 3,
          "midi": 54,
          "name": "F#3",
          "ticks": 13915,
          "time": 161.80232558139534,
          "velocity": 0.12598425196850394
        },
        {
          "duration": 0.023255813953483084,
          "durationTicks": 2,
          "midi": 42,
          "name": "F#2",
          "ticks": 13916,
          "time": 161.8139534883721,
          "velocity": 0.2992125984251969
        },
        {
          "duration": 0.023255813953483084,
          "durationTicks": 2,
          "midi": 53,
          "name": "F3",
          "ticks": 13919,
          "time": 161.84883720930233,
          "velocity": 0.2677165354330709
        },
        {
          "duration": 0.034883720930224626,
          "durationTicks": 3,
          "midi": 71,
          "name": "B4",
          "ticks": 13920,
          "time": 161.86046511627907,
          "velocity": 0.12598425196850394
        },
        {
          "duration": 0.1046511627907023,
          "durationTicks": 9,
          "midi": 42,
          "name": "F#2",
          "ticks": 13921,
          "time": 161.87209302325581,
          "velocity": 0.29133858267716534
        },
        {
          "duration": 0.034883720930224626,
          "durationTicks": 3,
          "midi": 55,
          "name": "G3",
          "ticks": 13921,
          "time": 161.87209302325581,
          "velocity": 0.30708661417322836
        },
        {
          "duration": 0.2093023255814046,
          "durationTicks": 18,
          "midi": 42,
          "name": "F#2",
          "ticks": 13931,
          "time": 161.98837209302326,
          "velocity": 0.33858267716535434
        },
        {
          "duration": 0.32558139534884845,
          "durationTicks": 28,
          "midi": 70,
          "name": "A#4",
          "ticks": 13946,
          "time": 162.1627906976744,
          "velocity": 0.30708661417322836
        },
        {
          "duration": 0.24418604651162923,
          "durationTicks": 21,
          "midi": 66,
          "name": "F#4",
          "ticks": 13948,
          "time": 162.1860465116279,
          "velocity": 0.16535433070866143
        },
        {
          "duration": 0.023255813953483084,
          "durationTicks": 2,
          "midi": 43,
          "name": "G2",
          "ticks": 13949,
          "time": 162.19767441860466,
          "velocity": 0.3937007874015748
        },
        {
          "duration": 0.1046511627907023,
          "durationTicks": 9,
          "midi": 58,
          "name": "A#3",
          "ticks": 13950,
          "time": 162.2093023255814,
          "velocity": 0.1889763779527559
        },
        {
          "duration": 0.023255813953483084,
          "durationTicks": 2,
          "midi": 42,
          "name": "F#2",
          "ticks": 13953,
          "time": 162.24418604651163,
          "velocity": 0.3937007874015748
        },
        {
          "duration": 0.09302325581396076,
          "durationTicks": 8,
          "midi": 54,
          "name": "F#3",
          "ticks": 13956,
          "time": 162.27906976744185,
          "velocity": 0.1732283464566929
        },
        {
          "duration": 0.023255813953511506,
          "durationTicks": 2,
          "midi": 42,
          "name": "F#2",
          "ticks": 13958,
          "time": 162.30232558139534,
          "velocity": 0.36220472440944884
        },
        {
          "duration": 0.33720930232559,
          "durationTicks": 29,
          "midi": 61,
          "name": "C#4",
          "ticks": 13958,
          "time": 162.30232558139534,
          "velocity": 0.30708661417322836
        },
        {
          "duration": 0.023255813953483084,
          "durationTicks": 2,
          "midi": 41,
          "name": "F2",
          "ticks": 13962,
          "time": 162.34883720930233,
          "velocity": 0.33070866141732286
        },
        {
          "duration": 0.03488372093025305,
          "durationTicks": 3,
          "midi": 32,
          "name": "G#1",
          "ticks": 13967,
          "time": 162.40697674418604,
          "velocity": 0.10236220472440945
        },
        {
          "duration": 0.03488372093025305,
          "durationTicks": 3,
          "midi": 54,
          "name": "F#3",
          "ticks": 13978,
          "time": 162.53488372093022,
          "velocity": 0.25984251968503935
        },
        {
          "duration": 0.45348837209303383,
          "durationTicks": 39,
          "midi": 78,
          "name": "F#5",
          "ticks": 13978,
          "time": 162.53488372093022,
          "velocity": 0.23622047244094488
        },
        {
          "duration": 0.034883720930224626,
          "durationTicks": 3,
          "midi": 37,
          "name": "C#2",
          "ticks": 13982,
          "time": 162.58139534883722,
          "velocity": 0.2992125984251969
        },
        {
          "duration": 0.023255813953483084,
          "durationTicks": 2,
          "midi": 53,
          "name": "F3",
          "ticks": 13982,
          "time": 162.58139534883722,
          "velocity": 0.25984251968503935
        },
        {
          "duration": 0.04651162790696617,
          "durationTicks": 4,
          "midi": 70,
          "name": "A#4",
          "ticks": 13982,
          "time": 162.58139534883722,
          "velocity": 0.07086614173228346
        },
        {
          "duration": 0.034883720930224626,
          "durationTicks": 3,
          "midi": 54,
          "name": "F#3",
          "ticks": 13984,
          "time": 162.6046511627907,
          "velocity": 0.2440944881889764
        },
        {
          "duration": 0.25581395348837077,
          "durationTicks": 22,
          "midi": 37,
          "name": "C#2",
          "ticks": 13986,
          "time": 162.62790697674419,
          "velocity": 0.33070866141732286
        },
        {
          "duration": 0.11627906976744384,
          "durationTicks": 10,
          "midi": 63,
          "name": "D#4",
          "ticks": 13986,
          "time": 162.62790697674419,
          "velocity": 0.11811023622047244
        },
        {
          "duration": 0.023255813953483084,
          "durationTicks": 2,
          "midi": 53,
          "name": "F3",
          "ticks": 13987,
          "time": 162.63953488372093,
          "velocity": 0.25196850393700787
        },
        {
          "duration": 0.2906976744186238,
          "durationTicks": 25,
          "midi": 66,
          "name": "F#4",
          "ticks": 13988,
          "time": 162.65116279069767,
          "velocity": 0.1732283464566929
        },
        {
          "duration": 0.023255813953483084,
          "durationTicks": 2,
          "midi": 54,
          "name": "F#3",
          "ticks": 13989,
          "time": 162.6627906976744,
          "velocity": 0.25196850393700787
        },
        {
          "duration": 0.04651162790696617,
          "durationTicks": 4,
          "midi": 54,
          "name": "F#3",
          "ticks": 13994,
          "time": 162.72093023255815,
          "velocity": 0.2047244094488189
        },
        {
          "duration": 0.17441860465115155,
          "durationTicks": 15,
          "midi": 61,
          "name": "C#4",
          "ticks": 13996,
          "time": 162.74418604651163,
          "velocity": 0.2047244094488189
        },
        {
          "duration": 0.25581395348837077,
          "durationTicks": 22,
          "midi": 56,
          "name": "G#3",
          "ticks": 14009,
          "time": 162.8953488372093,
          "velocity": 0.33858267716535434
        },
        {
          "duration": 0.05813953488373613,
          "durationTicks": 5,
          "midi": 63,
          "name": "D#4",
          "ticks": 14010,
          "time": 162.90697674418604,
          "velocity": 0.12598425196850394
        },
        {
          "duration": 0.05813953488373613,
          "durationTicks": 5,
          "midi": 36,
          "name": "C2",
          "ticks": 14011,
          "time": 162.91860465116278,
          "velocity": 0.4251968503937008
        },
        {
          "duration": 0.12790697674418539,
          "durationTicks": 11,
          "midi": 61,
          "name": "C#4",
          "ticks": 14015,
          "time": 162.96511627906978,
          "velocity": 0.1968503937007874
        },
        {
          "duration": 0.023255813953483084,
          "durationTicks": 2,
          "midi": 35,
          "name": "B1",
          "ticks": 14019,
          "time": 163.01162790697674,
          "velocity": 0.4330708661417323
        },
        {
          "duration": 0.04651162790699459,
          "durationTicks": 4,
          "midi": 49,
          "name": "C#3",
          "ticks": 14020,
          "time": 163.02325581395348,
          "velocity": 0.08661417322834646
        },
        {
          "duration": 0.1046511627907023,
          "durationTicks": 9,
          "midi": 61,
          "name": "C#4",
          "ticks": 14027,
          "time": 163.1046511627907,
          "velocity": 0.15748031496062992
        },
        {
          "duration": 0.023255813953483084,
          "durationTicks": 2,
          "midi": 35,
          "name": "B1",
          "ticks": 14031,
          "time": 163.15116279069767,
          "velocity": 0.4251968503937008
        },
        {
          "duration": 0.034883720930224626,
          "durationTicks": 3,
          "midi": 55,
          "name": "G3",
          "ticks": 14031,
          "time": 163.15116279069767,
          "velocity": 0.09448818897637795
        },
        {
          "duration": 0.04651162790696617,
          "durationTicks": 4,
          "midi": 56,
          "name": "G#3",
          "ticks": 14036,
          "time": 163.2093023255814,
          "velocity": 0.3464566929133858
        },
        {
          "duration": 0.023255813953483084,
          "durationTicks": 2,
          "midi": 36,
          "name": "C2",
          "ticks": 14039,
          "time": 163.24418604651163,
          "velocity": 0.33858267716535434
        },
        {
          "duration": 0.023255813953483084,
          "durationTicks": 2,
          "midi": 49,
          "name": "C#3",
          "ticks": 14039,
          "time": 163.24418604651163,
          "velocity": 0.2677165354330709
        },
        {
          "duration": 0.24418604651162923,
          "durationTicks": 21,
          "midi": 70,
          "name": "A#4",
          "ticks": 14040,
          "time": 163.25581395348837,
          "velocity": 0.2125984251968504
        },
        {
          "duration": 0.22093023255814614,
          "durationTicks": 19,
          "midi": 58,
          "name": "A#3",
          "ticks": 14041,
          "time": 163.2674418604651,
          "velocity": 0.23622047244094488
        },
        {
          "duration": 0.03488372093025305,
          "durationTicks": 3,
          "midi": 49,
          "name": "C#3",
          "ticks": 14042,
          "time": 163.27906976744185,
          "velocity": 0.2204724409448819
        },
        {
          "duration": 0.023255813953511506,
          "durationTicks": 2,
          "midi": 36,
          "name": "C2",
          "ticks": 14043,
          "time": 163.2906976744186,
          "velocity": 0.3543307086614173
        },
        {
          "duration": 0.06976744186044925,
          "durationTicks": 6,
          "midi": 51,
          "name": "D#3",
          "ticks": 14046,
          "time": 163.32558139534885,
          "velocity": 0.14173228346456693
        },
        {
          "duration": 0.023255813953483084,
          "durationTicks": 2,
          "midi": 40,
          "name": "E2",
          "ticks": 14050,
          "time": 163.37209302325581,
          "velocity": 0.4015748031496063
        },
        {
          "duration": 0.05813953488373613,
          "durationTicks": 5,
          "midi": 51,
          "name": "D#3",
          "ticks": 14053,
          "time": 163.40697674418604,
          "velocity": 0.10236220472440945
        },
        {
          "duration": 0.11627906976744384,
          "durationTicks": 10,
          "midi": 63,
          "name": "D#4",
          "ticks": 14055,
          "time": 163.43023255813952,
          "velocity": 0.11811023622047244
        },
        {
          "duration": 0.023255813953483084,
          "durationTicks": 2,
          "midi": 37,
          "name": "C#2",
          "ticks": 14058,
          "time": 163.46511627906978,
          "velocity": 0.4094488188976378
        },
        {
          "duration": 0.023255813953483084,
          "durationTicks": 2,
          "midi": 36,
          "name": "C2",
          "ticks": 14063,
          "time": 163.52325581395348,
          "velocity": 0.3228346456692913
        },
        {
          "duration": 0.023255813953511506,
          "durationTicks": 2,
          "midi": 48,
          "name": "C3",
          "ticks": 14065,
          "time": 163.54651162790697,
          "velocity": 0.2755905511811024
        },
        {
          "duration": 0.12790697674418539,
          "durationTicks": 11,
          "midi": 63,
          "name": "D#4",
          "ticks": 14068,
          "time": 163.58139534883722,
          "velocity": 0.15748031496062992
        },
        {
          "duration": 0.05813953488370771,
          "durationTicks": 5,
          "midi": 49,
          "name": "C#3",
          "ticks": 14069,
          "time": 163.59302325581396,
          "velocity": 0.23622047244094488
        },
        {
          "duration": 0.023255813953483084,
          "durationTicks": 2,
          "midi": 57,
          "name": "A3",
          "ticks": 14069,
          "time": 163.59302325581396,
          "velocity": 0.28346456692913385
        },
        {
          "duration": 0.023255813953483084,
          "durationTicks": 2,
          "midi": 36,
          "name": "C2",
          "ticks": 14070,
          "time": 163.6046511627907,
          "velocity": 0.2992125984251969
        },
        {
          "duration": 0.11627906976744384,
          "durationTicks": 10,
          "midi": 56,
          "name": "G#3",
          "ticks": 14071,
          "time": 163.61627906976744,
          "velocity": 0.2755905511811024
        },
        {
          "duration": 0.023255813953483084,
          "durationTicks": 2,
          "midi": 38,
          "name": "D2",
          "ticks": 14073,
          "time": 163.63953488372093,
          "velocity": 0.2440944881889764
        },
        {
          "duration": 0.023255813953511506,
          "durationTicks": 2,
          "midi": 36,
          "name": "C2",
          "ticks": 14076,
          "time": 163.67441860465115,
          "velocity": 0.2755905511811024
        },
        {
          "duration": 0.05813953488370771,
          "durationTicks": 5,
          "midi": 37,
          "name": "C#2",
          "ticks": 14080,
          "time": 163.72093023255815,
          "velocity": 0.25984251968503935
        },
        {
          "duration": 0.023255813953483084,
          "durationTicks": 2,
          "midi": 53,
          "name": "F3",
          "ticks": 14081,
          "time": 163.7325581395349,
          "velocity": 0.2677165354330709
        },
        {
          "duration": 0.023255813953483084,
          "durationTicks": 2,
          "midi": 55,
          "name": "G3",
          "ticks": 14083,
          "time": 163.75581395348837,
          "velocity": 0.30708661417322836
        },
        {
          "duration": 0.034883720930224626,
          "durationTicks": 3,
          "midi": 50,
          "name": "D3",
          "ticks": 14084,
          "time": 163.7674418604651,
          "velocity": 0.1889763779527559
        },
        {
          "duration": 0.12790697674418539,
          "durationTicks": 11,
          "midi": 56,
          "name": "G#3",
          "ticks": 14085,
          "time": 163.77906976744185,
          "velocity": 0.2204724409448819
        },
        {
          "duration": 0.023255813953483084,
          "durationTicks": 2,
          "midi": 57,
          "name": "A3",
          "ticks": 14096,
          "time": 163.90697674418604,
          "velocity": 0.2677165354330709
        },
        {
          "duration": 0.5581395348837361,
          "durationTicks": 48,
          "midi": 61,
          "name": "C#4",
          "ticks": 14096,
          "time": 163.90697674418604,
          "velocity": 0.2047244094488189
        },
        {
          "duration": 0.6511627906976685,
          "durationTicks": 56,
          "midi": 66,
          "name": "F#4",
          "ticks": 14096,
          "time": 163.90697674418604,
          "velocity": 0.30708661417322836
        },
        {
          "duration": 0.03488372093025305,
          "durationTicks": 3,
          "midi": 35,
          "name": "B1",
          "ticks": 14098,
          "time": 163.93023255813952,
          "velocity": 0.3937007874015748
        },
        {
          "duration": 0.2674418604651123,
          "durationTicks": 23,
          "midi": 52,
          "name": "E3",
          "ticks": 14100,
          "time": 163.95348837209303,
          "velocity": 0.2047244094488189
        },
        {
          "duration": 0.2906976744185954,
          "durationTicks": 25,
          "midi": 45,
          "name": "A2",
          "ticks": 14101,
          "time": 163.96511627906978,
          "velocity": 0.3858267716535433
        },
        {
          "duration": 0.034883720930224626,
          "durationTicks": 3,
          "midi": 34,
          "name": "A#1",
          "ticks": 14102,
          "time": 163.97674418604652,
          "velocity": 0.29133858267716534
        },
        {
          "duration": 0.034883720930224626,
          "durationTicks": 3,
          "midi": 32,
          "name": "G#1",
          "ticks": 14112,
          "time": 164.09302325581396,
          "velocity": 0.10236220472440945
        },
        {
          "duration": 0.06976744186047767,
          "durationTicks": 6,
          "midi": 76,
          "name": "E5",
          "ticks": 14125,
          "time": 164.24418604651163,
          "velocity": 0.10236220472440945
        },
        {
          "duration": 0.034883720930224626,
          "durationTicks": 3,
          "midi": 57,
          "name": "A3",
          "ticks": 14126,
          "time": 164.25581395348837,
          "velocity": 0.2125984251968504
        },
        {
          "duration": 0.6395348837209269,
          "durationTicks": 55,
          "midi": 45,
          "name": "A2",
          "ticks": 14127,
          "time": 164.2674418604651,
          "velocity": 0.3937007874015748
        },
        {
          "duration": 0.03488372093025305,
          "durationTicks": 3,
          "midi": 52,
          "name": "E3",
          "ticks": 14129,
          "time": 164.2906976744186,
          "velocity": 0.09448818897637795
        },
        {
          "duration": 0.023255813953511506,
          "durationTicks": 2,
          "midi": 35,
          "name": "B1",
          "ticks": 14130,
          "time": 164.30232558139534,
          "velocity": 0.33858267716535434
        },
        {
          "duration": 0.05813953488370771,
          "durationTicks": 5,
          "midi": 34,
          "name": "A#1",
          "ticks": 14132,
          "time": 164.32558139534885,
          "velocity": 0.33858267716535434
        },
        {
          "duration": 0.034883720930224626,
          "durationTicks": 3,
          "midi": 33,
          "name": "A1",
          "ticks": 14137,
          "time": 164.38372093023256,
          "velocity": 0.2677165354330709
        },
        {
          "duration": 0.04651162790699459,
          "durationTicks": 4,
          "midi": 52,
          "name": "E3",
          "ticks": 14139,
          "time": 164.40697674418604,
          "velocity": 0.10236220472440945
        },
        {
          "duration": 0.05813953488370771,
          "durationTicks": 5,
          "midi": 33,
          "name": "A1",
          "ticks": 14142,
          "time": 164.4418604651163,
          "velocity": 0.1968503937007874
        },
        {
          "duration": 0.3139534883720785,
          "durationTicks": 27,
          "midi": 66,
          "name": "F#4",
          "ticks": 14155,
          "time": 164.59302325581396,
          "velocity": 0.2440944881889764
        },
        {
          "duration": 0.3720930232558146,
          "durationTicks": 32,
          "midi": 61,
          "name": "C#4",
          "ticks": 14156,
          "time": 164.6046511627907,
          "velocity": 0.2204724409448819
        },
        {
          "duration": 0.034883720930224626,
          "durationTicks": 3,
          "midi": 53,
          "name": "F3",
          "ticks": 14157,
          "time": 164.61627906976744,
          "velocity": 0.16535433070866143
        },
        {
          "duration": 0.08139534883721922,
          "durationTicks": 7,
          "midi": 52,
          "name": "E3",
          "ticks": 14161,
          "time": 164.6627906976744,
          "velocity": 0.10236220472440945
        },
        {
          "duration": 0.023255813953483084,
          "durationTicks": 2,
          "midi": 36,
          "name": "C2",
          "ticks": 14170,
          "time": 164.7674418604651,
          "velocity": 0.31496062992125984
        },
        {
          "duration": 0.08139534883721922,
          "durationTicks": 7,
          "midi": 76,
          "name": "E5",
          "ticks": 14171,
          "time": 164.77906976744185,
          "velocity": 0.07874015748031496
        },
        {
          "duration": 0.04651162790696617,
          "durationTicks": 4,
          "midi": 52,
          "name": "E3",
          "ticks": 14176,
          "time": 164.8372093023256,
          "velocity": 0.11811023622047244
        },
        {
          "duration": 0.2325581395348877,
          "durationTicks": 20,
          "midi": 45,
          "name": "A2",
          "ticks": 14183,
          "time": 164.91860465116278,
          "velocity": 0.3464566929133858
        },
        {
          "duration": 0.023255813953483084,
          "durationTicks": 2,
          "midi": 55,
          "name": "G3",
          "ticks": 14185,
          "time": 164.9418604651163,
          "velocity": 0.25196850393700787
        },
        {
          "duration": 0.24418604651162923,
          "durationTicks": 21,
          "midi": 66,
          "name": "F#4",
          "ticks": 14188,
          "time": 164.97674418604652,
          "velocity": 0.1968503937007874
        },
        {
          "duration": 0.17441860465115155,
          "durationTicks": 15,
          "midi": 61,
          "name": "C#4",
          "ticks": 14189,
          "time": 164.98837209302326,
          "velocity": 0.23622047244094488
        },
        {
          "duration": 0.04651162790699459,
          "durationTicks": 4,
          "midi": 52,
          "name": "E3",
          "ticks": 14192,
          "time": 165.02325581395348,
          "velocity": 0.08661417322834646
        },
        {
          "duration": 0.05813953488370771,
          "durationTicks": 5,
          "midi": 52,
          "name": "E3",
          "ticks": 14197,
          "time": 165.08139534883722,
          "velocity": 0.11023622047244094
        },
        {
          "duration": 0.04651162790699459,
          "durationTicks": 4,
          "midi": 60,
          "name": "C4",
          "ticks": 14204,
          "time": 165.1627906976744,
          "velocity": 0.14960629921259844
        },
        {
          "duration": 0.023255813953483084,
          "durationTicks": 2,
          "midi": 55,
          "name": "G3",
          "ticks": 14212,
          "time": 165.25581395348837,
          "velocity": 0.2992125984251969
        },
        {
          "duration": 0.034883720930224626,
          "durationTicks": 3,
          "midi": 61,
          "name": "C#4",
          "ticks": 14212,
          "time": 165.25581395348837,
          "velocity": 0.11811023622047244
        },
        {
          "duration": 0.06976744186047767,
          "durationTicks": 6,
          "midi": 66,
          "name": "F#4",
          "ticks": 14212,
          "time": 165.25581395348837,
          "velocity": 0.16535433070866143
        },
        {
          "duration": 0.06976744186047767,
          "durationTicks": 6,
          "midi": 56,
          "name": "G#3",
          "ticks": 14214,
          "time": 165.27906976744185,
          "velocity": 0.28346456692913385
        },
        {
          "duration": 0.2325581395348877,
          "durationTicks": 20,
          "midi": 73,
          "name": "C#5",
          "ticks": 14214,
          "time": 165.27906976744185,
          "velocity": 0.18110236220472442
        },
        {
          "duration": 0.023255813953511506,
          "durationTicks": 2,
          "midi": 36,
          "name": "C2",
          "ticks": 14215,
          "time": 165.2906976744186,
          "velocity": 0.3779527559055118
        },
        {
          "duration": 0.30232558139536536,
          "durationTicks": 26,
          "midi": 47,
          "name": "B2",
          "ticks": 14216,
          "time": 165.30232558139534,
          "velocity": 0.3543307086614173
        },
        {
          "duration": 0.023255813953483084,
          "durationTicks": 2,
          "midi": 35,
          "name": "B1",
          "ticks": 14217,
          "time": 165.3139534883721,
          "velocity": 0.3858267716535433
        },
        {
          "duration": 0.034883720930224626,
          "durationTicks": 3,
          "midi": 67,
          "name": "G4",
          "ticks": 14218,
          "time": 165.32558139534885,
          "velocity": 0.1732283464566929
        },
        {
          "duration": 0.023255813953483084,
          "durationTicks": 2,
          "midi": 34,
          "name": "A#1",
          "ticks": 14221,
          "time": 165.36046511627907,
          "velocity": 0.25196850393700787
        },
        {
          "duration": 0.034883720930224626,
          "durationTicks": 3,
          "midi": 56,
          "name": "G#3",
          "ticks": 14221,
          "time": 165.36046511627907,
          "velocity": 0.2440944881889764
        },
        {
          "duration": 1.1162790697674438,
          "durationTicks": 96,
          "midi": 68,
          "name": "G#4",
          "ticks": 14221,
          "time": 165.36046511627907,
          "velocity": 0.30708661417322836
        },
        {
          "duration": 0.03488372093025305,
          "durationTicks": 3,
          "midi": 56,
          "name": "G#3",
          "ticks": 14225,
          "time": 165.40697674418604,
          "velocity": 0.2204724409448819
        },
        {
          "duration": 0.06976744186047767,
          "durationTicks": 6,
          "midi": 34,
          "name": "A#1",
          "ticks": 14226,
          "time": 165.41860465116278,
          "velocity": 0.30708661417322836
        },
        {
          "duration": 0.023255813953483084,
          "durationTicks": 2,
          "midi": 35,
          "name": "B1",
          "ticks": 14232,
          "time": 165.48837209302326,
          "velocity": 0.25196850393700787
        },
        {
          "duration": 0.03488372093025305,
          "durationTicks": 3,
          "midi": 35,
          "name": "B1",
          "ticks": 14236,
          "time": 165.53488372093022,
          "velocity": 0.2755905511811024
        },
        {
          "duration": 0.03488372093025305,
          "durationTicks": 3,
          "midi": 55,
          "name": "G3",
          "ticks": 14238,
          "time": 165.5581395348837,
          "velocity": 0.09448818897637795
        },
        {
          "duration": 0.03488372093025305,
          "durationTicks": 3,
          "midi": 63,
          "name": "D#4",
          "ticks": 14238,
          "time": 165.5581395348837,
          "velocity": 0.11023622047244094
        },
        {
          "duration": 0.023255813953483084,
          "durationTicks": 2,
          "midi": 34,
          "name": "A#1",
          "ticks": 14239,
          "time": 165.56976744186048,
          "velocity": 0.29133858267716534
        },
        {
          "duration": 0.023255813953483084,
          "durationTicks": 2,
          "midi": 35,
          "name": "B1",
          "ticks": 14241,
          "time": 165.59302325581396,
          "velocity": 0.2677165354330709
        },
        {
          "duration": 0.023255813953483084,
          "durationTicks": 2,
          "midi": 37,
          "name": "C#2",
          "ticks": 14243,
          "time": 165.61627906976744,
          "velocity": 0.3937007874015748
        },
        {
          "duration": 0.2674418604651123,
          "durationTicks": 23,
          "midi": 90,
          "name": "F#6",
          "ticks": 14243,
          "time": 165.61627906976744,
          "velocity": 0.14960629921259844
        },
        {
          "duration": 0.1046511627907023,
          "durationTicks": 9,
          "midi": 63,
          "name": "D#4",
          "ticks": 14244,
          "time": 165.62790697674419,
          "velocity": 0.14173228346456693
        },
        {
          "duration": 0.04651162790696617,
          "durationTicks": 4,
          "midi": 47,
          "name": "B2",
          "ticks": 14245,
          "time": 165.63953488372093,
          "velocity": 0.1889763779527559
        },
        {
          "duration": 0.034883720930224626,
          "durationTicks": 3,
          "midi": 56,
          "name": "G#3",
          "ticks": 14245,
          "time": 165.63953488372093,
          "velocity": 0.1889763779527559
        },
        {
          "duration": 0.034883720930224626,
          "durationTicks": 3,
          "midi": 35,
          "name": "B1",
          "ticks": 14246,
          "time": 165.65116279069767,
          "velocity": 0.3858267716535433
        },
        {
          "duration": 0.05813953488373613,
          "durationTicks": 5,
          "midi": 34,
          "name": "A#1",
          "ticks": 14249,
          "time": 165.6860465116279,
          "velocity": 0.3700787401574803
        },
        {
          "duration": 0.03488372093025305,
          "durationTicks": 3,
          "midi": 56,
          "name": "G#3",
          "ticks": 14249,
          "time": 165.6860465116279,
          "velocity": 0.18110236220472442
        },
        {
          "duration": 0.10465116279067388,
          "durationTicks": 9,
          "midi": 47,
          "name": "B2",
          "ticks": 14250,
          "time": 165.69767441860466,
          "velocity": 0.18110236220472442
        },
        {
          "duration": 0.05813953488370771,
          "durationTicks": 5,
          "midi": 35,
          "name": "B1",
          "ticks": 14254,
          "time": 165.74418604651163,
          "velocity": 0.33070866141732286
        },
        {
          "duration": 0.05813953488370771,
          "durationTicks": 5,
          "midi": 63,
          "name": "D#4",
          "ticks": 14254,
          "time": 165.74418604651163,
          "velocity": 0.09448818897637795
        },
        {
          "duration": 0.034883720930224626,
          "durationTicks": 3,
          "midi": 35,
          "name": "B1",
          "ticks": 14262,
          "time": 165.8372093023256,
          "velocity": 0.25984251968503935
        },
        {
          "duration": 0.05813953488370771,
          "durationTicks": 5,
          "midi": 59,
          "name": "B3",
          "ticks": 14263,
          "time": 165.84883720930233,
          "velocity": 0.1889763779527559
        },
        {
          "duration": 0.034883720930224626,
          "durationTicks": 3,
          "midi": 34,
          "name": "A#1",
          "ticks": 14265,
          "time": 165.87209302325581,
          "velocity": 0.25984251968503935
        },
        {
          "duration": 0.15116279069766847,
          "durationTicks": 13,
          "midi": 56,
          "name": "G#3",
          "ticks": 14271,
          "time": 165.9418604651163,
          "velocity": 0.4094488188976378
        },
        {
          "duration": 0.023255813953483084,
          "durationTicks": 2,
          "midi": 34,
          "name": "A#1",
          "ticks": 14273,
          "time": 165.96511627906978,
          "velocity": 0.25196850393700787
        },
        {
          "duration": 0.034883720930224626,
          "durationTicks": 3,
          "midi": 71,
          "name": "B4",
          "ticks": 14273,
          "time": 165.96511627906978,
          "velocity": 0.09448818897637795
        },
        {
          "duration": 0.05813953488370771,
          "durationTicks": 5,
          "midi": 35,
          "name": "B1",
          "ticks": 14275,
          "time": 165.98837209302326,
          "velocity": 0.25196850393700787
        },
        {
          "duration": 0.25581395348837077,
          "durationTicks": 22,
          "midi": 63,
          "name": "D#4",
          "ticks": 14277,
          "time": 166.01162790697674,
          "velocity": 0.11023622047244094
        },
        {
          "duration": 0.03488372093025305,
          "durationTicks": 3,
          "midi": 36,
          "name": "C2",
          "ticks": 14280,
          "time": 166.04651162790697,
          "velocity": 0.18110236220472442
        },
        {
          "duration": 0.20930232558137618,
          "durationTicks": 18,
          "midi": 59,
          "name": "B3",
          "ticks": 14283,
          "time": 166.08139534883722,
          "velocity": 0.18110236220472442
        },
        {
          "duration": 0.13953488372092693,
          "durationTicks": 12,
          "midi": 35,
          "name": "B1",
          "ticks": 14286,
          "time": 166.11627906976744,
          "velocity": 0.2204724409448819
        },
        {
          "duration": 0.03488372093025305,
          "durationTicks": 3,
          "midi": 55,
          "name": "G3",
          "ticks": 14300,
          "time": 166.27906976744185,
          "velocity": 0.11023622047244094
        },
        {
          "duration": 0.19767441860466306,
          "durationTicks": 17,
          "midi": 90,
          "name": "F#6",
          "ticks": 14301,
          "time": 166.2906976744186,
          "velocity": 0.13385826771653545
        },
        {
          "duration": 0.06976744186044925,
          "durationTicks": 6,
          "midi": 35,
          "name": "B1",
          "ticks": 14303,
          "time": 166.3139534883721,
          "velocity": 0.3779527559055118
        },
        {
          "duration": 0.20930232558137618,
          "durationTicks": 18,
          "midi": 71,
          "name": "B4",
          "ticks": 14303,
          "time": 166.3139534883721,
          "velocity": 0.15748031496062992
        },
        {
          "duration": 0.0813953488371908,
          "durationTicks": 7,
          "midi": 61,
          "name": "C#4",
          "ticks": 14305,
          "time": 166.3372093023256,
          "velocity": 0.11811023622047244
        },
        {
          "duration": 0.023255813953483084,
          "durationTicks": 2,
          "midi": 34,
          "name": "A#1",
          "ticks": 14309,
          "time": 166.38372093023256,
          "velocity": 0.2440944881889764
        },
        {
          "duration": 0.05813953488373613,
          "durationTicks": 5,
          "midi": 66,
          "name": "F#4",
          "ticks": 14322,
          "time": 166.53488372093022,
          "velocity": 0.07874015748031496
        },
        {
          "duration": 0.06976744186047767,
          "durationTicks": 6,
          "midi": 61,
          "name": "C#4",
          "ticks": 14323,
          "time": 166.54651162790697,
          "velocity": 0.1732283464566929
        },
        {
          "duration": 0.023255813953483084,
          "durationTicks": 2,
          "midi": 53,
          "name": "F3",
          "ticks": 14330,
          "time": 166.62790697674419,
          "velocity": 0.25984251968503935
        },
        {
          "duration": 0.13953488372092693,
          "durationTicks": 12,
          "midi": 58,
          "name": "A#3",
          "ticks": 14330,
          "time": 166.62790697674419,
          "velocity": 0.2440944881889764
        },
        {
          "duration": 0.48837209302325846,
          "durationTicks": 42,
          "midi": 70,
          "name": "A#4",
          "ticks": 14330,
          "time": 166.62790697674419,
          "velocity": 0.28346456692913385
        },
        {
          "duration": 0.023255813953483084,
          "durationTicks": 2,
          "midi": 42,
          "name": "F#2",
          "ticks": 14331,
          "time": 166.63953488372093,
          "velocity": 0.3779527559055118
        },
        {
          "duration": 0.67441860465118,
          "durationTicks": 58,
          "midi": 66,
          "name": "F#4",
          "ticks": 14331,
          "time": 166.63953488372093,
          "velocity": 0.25984251968503935
        },
        {
          "duration": 0.04651162790696617,
          "durationTicks": 4,
          "midi": 42,
          "name": "F#2",
          "ticks": 14338,
          "time": 166.72093023255815,
          "velocity": 0.36220472440944884
        },
        {
          "duration": 0.034883720930224626,
          "durationTicks": 3,
          "midi": 61,
          "name": "C#4",
          "ticks": 14341,
          "time": 166.75581395348837,
          "velocity": 0.2047244094488189
        },
        {
          "duration": 0.3953488372092977,
          "durationTicks": 34,
          "midi": 42,
          "name": "F#2",
          "ticks": 14343,
          "time": 166.77906976744185,
          "velocity": 0.3779527559055118
        },
        {
          "duration": 0.03488372093025305,
          "durationTicks": 3,
          "midi": 58,
          "name": "A#3",
          "ticks": 14345,
          "time": 166.80232558139534,
          "velocity": 0.2047244094488189
        },
        {
          "duration": 0.19767441860466306,
          "durationTicks": 17,
          "midi": 61,
          "name": "C#4",
          "ticks": 14345,
          "time": 166.80232558139534,
          "velocity": 0.2047244094488189
        },
        {
          "duration": 0.06976744186044925,
          "durationTicks": 6,
          "midi": 58,
          "name": "A#3",
          "ticks": 14349,
          "time": 166.84883720930233,
          "velocity": 0.2047244094488189
        },
        {
          "duration": 0.03488372093025305,
          "durationTicks": 3,
          "midi": 58,
          "name": "A#3",
          "ticks": 14356,
          "time": 166.93023255813952,
          "velocity": 0.1732283464566929
        },
        {
          "duration": 0.023255813953483084,
          "durationTicks": 2,
          "midi": 57,
          "name": "A3",
          "ticks": 14359,
          "time": 166.96511627906978,
          "velocity": 0.25196850393700787
        },
        {
          "duration": 0.3139534883720785,
          "durationTicks": 27,
          "midi": 58,
          "name": "A#3",
          "ticks": 14361,
          "time": 166.98837209302326,
          "velocity": 0.30708661417322836
        },
        {
          "duration": 0.2093023255814046,
          "durationTicks": 18,
          "midi": 73,
          "name": "C#5",
          "ticks": 14366,
          "time": 167.04651162790697,
          "velocity": 0.07086614173228346
        },
        {
          "duration": 0.023255813953483084,
          "durationTicks": 2,
          "midi": 35,
          "name": "B1",
          "ticks": 14376,
          "time": 167.1627906976744,
          "velocity": 0.3779527559055118
        },
        {
          "duration": 0.023255813953483084,
          "durationTicks": 2,
          "midi": 42,
          "name": "F#2",
          "ticks": 14382,
          "time": 167.2325581395349,
          "velocity": 0.36220472440944884
        },
        {
          "duration": 0.03488372093025305,
          "durationTicks": 3,
          "midi": 42,
          "name": "F#2",
          "ticks": 14387,
          "time": 167.2906976744186,
          "velocity": 0.3464566929133858
        },
        {
          "duration": 0.30232558139533694,
          "durationTicks": 26,
          "midi": 61,
          "name": "C#4",
          "ticks": 14389,
          "time": 167.3139534883721,
          "velocity": 0.1968503937007874
        },
        {
          "duration": 0.034883720930224626,
          "durationTicks": 3,
          "midi": 55,
          "name": "G3",
          "ticks": 14390,
          "time": 167.32558139534885,
          "velocity": 0.3464566929133858
        },
        {
          "duration": 0.25581395348837077,
          "durationTicks": 22,
          "midi": 66,
          "name": "F#4",
          "ticks": 14390,
          "time": 167.32558139534885,
          "velocity": 0.2440944881889764
        },
        {
          "duration": 0.32558139534882,
          "durationTicks": 28,
          "midi": 42,
          "name": "F#2",
          "ticks": 14391,
          "time": 167.3372093023256,
          "velocity": 0.3464566929133858
        },
        {
          "duration": 0.06976744186047767,
          "durationTicks": 6,
          "midi": 61,
          "name": "C#4",
          "ticks": 14416,
          "time": 167.62790697674419,
          "velocity": 0.14960629921259844
        },
        {
          "duration": 0.2093023255814046,
          "durationTicks": 18,
          "midi": 78,
          "name": "F#5",
          "ticks": 14417,
          "time": 167.63953488372093,
          "velocity": 0.2755905511811024
        },
        {
          "duration": 0.1511627906976969,
          "durationTicks": 13,
          "midi": 54,
          "name": "F#3",
          "ticks": 14419,
          "time": 167.6627906976744,
          "velocity": 0.36220472440944884
        },
        {
          "duration": 0.12790697674418539,
          "durationTicks": 11,
          "midi": 73,
          "name": "C#5",
          "ticks": 14422,
          "time": 167.69767441860466,
          "velocity": 0.12598425196850394
        },
        {
          "duration": 0.03488372093025305,
          "durationTicks": 3,
          "midi": 42,
          "name": "F#2",
          "ticks": 14429,
          "time": 167.77906976744185,
          "velocity": 0.33858267716535434
        },
        {
          "duration": 0.09302325581393234,
          "durationTicks": 8,
          "midi": 53,
          "name": "F3",
          "ticks": 14432,
          "time": 167.8139534883721,
          "velocity": 0.31496062992125984
        },
        {
          "duration": 0.034883720930224626,
          "durationTicks": 3,
          "midi": 42,
          "name": "F#2",
          "ticks": 14434,
          "time": 167.8372093023256,
          "velocity": 0.33070866141732286
        },
        {
          "duration": 0.0813953488371908,
          "durationTicks": 7,
          "midi": 61,
          "name": "C#4",
          "ticks": 14435,
          "time": 167.84883720930233,
          "velocity": 0.13385826771653545
        },
        {
          "duration": 0.0813953488371908,
          "durationTicks": 7,
          "midi": 77,
          "name": "F5",
          "ticks": 14435,
          "time": 167.84883720930233,
          "velocity": 0.15748031496062992
        },
        {
          "duration": 0.03488372093025305,
          "durationTicks": 3,
          "midi": 52,
          "name": "E3",
          "ticks": 14440,
          "time": 167.90697674418604,
          "velocity": 0.2677165354330709
        },
        {
          "duration": 0.05813953488370771,
          "durationTicks": 5,
          "midi": 52,
          "name": "E3",
          "ticks": 14444,
          "time": 167.95348837209303,
          "velocity": 0.25196850393700787
        },
        {
          "duration": 0.04651162790696617,
          "durationTicks": 4,
          "midi": 58,
          "name": "A#3",
          "ticks": 14446,
          "time": 167.97674418604652,
          "velocity": 0.15748031496062992
        },
        {
          "duration": 0.023255813953483084,
          "durationTicks": 2,
          "midi": 40,
          "name": "E2",
          "ticks": 14448,
          "time": 168,
          "velocity": 0.44881889763779526
        },
        {
          "duration": 0.034883720930224626,
          "durationTicks": 3,
          "midi": 61,
          "name": "C#4",
          "ticks": 14449,
          "time": 168.01162790697674,
          "velocity": 0.13385826771653545
        },
        {
          "duration": 0.08139534883721922,
          "durationTicks": 7,
          "midi": 61,
          "name": "C#4",
          "ticks": 14453,
          "time": 168.0581395348837,
          "velocity": 0.13385826771653545
        },
        {
          "duration": 0.034883720930224626,
          "durationTicks": 3,
          "midi": 37,
          "name": "C#2",
          "ticks": 14454,
          "time": 168.06976744186048,
          "velocity": 0.4015748031496063
        },
        {
          "duration": 0.3953488372092977,
          "durationTicks": 34,
          "midi": 51,
          "name": "D#3",
          "ticks": 14456,
          "time": 168.09302325581396,
          "velocity": 0.33070866141732286
        },
        {
          "duration": 0.023255813953483084,
          "durationTicks": 2,
          "midi": 40,
          "name": "E2",
          "ticks": 14461,
          "time": 168.15116279069767,
          "velocity": 0.3228346456692913
        },
        {
          "duration": 0.023255813953511506,
          "durationTicks": 2,
          "midi": 37,
          "name": "C#2",
          "ticks": 14463,
          "time": 168.17441860465115,
          "velocity": 0.36220472440944884
        },
        {
          "duration": 0.034883720930224626,
          "durationTicks": 3,
          "midi": 40,
          "name": "E2",
          "ticks": 14465,
          "time": 168.19767441860466,
          "velocity": 0.3700787401574803
        },
        {
          "duration": 0.023255813953483084,
          "durationTicks": 2,
          "midi": 39,
          "name": "D#2",
          "ticks": 14468,
          "time": 168.2325581395349,
          "velocity": 0.2992125984251969
        },
        {
          "duration": 0.023255813953483084,
          "durationTicks": 2,
          "midi": 40,
          "name": "E2",
          "ticks": 14472,
          "time": 168.27906976744185,
          "velocity": 0.3543307086614173
        },
        {
          "duration": 0.034883720930224626,
          "durationTicks": 3,
          "midi": 39,
          "name": "D#2",
          "ticks": 14475,
          "time": 168.3139534883721,
          "velocity": 0.3858267716535433
        },
        {
          "duration": 0.09302325581393234,
          "durationTicks": 8,
          "midi": 66,
          "name": "F#4",
          "ticks": 14476,
          "time": 168.32558139534885,
          "velocity": 0.15748031496062992
        },
        {
          "duration": 0.30232558139533694,
          "durationTicks": 26,
          "midi": 61,
          "name": "C#4",
          "ticks": 14477,
          "time": 168.3372093023256,
          "velocity": 0.2047244094488189
        },
        {
          "duration": 0.023255813953483084,
          "durationTicks": 2,
          "midi": 37,
          "name": "C#2",
          "ticks": 14480,
          "time": 168.37209302325581,
          "velocity": 0.4566929133858268
        },
        {
          "duration": 0.023255813953511506,
          "durationTicks": 2,
          "midi": 37,
          "name": "C#2",
          "ticks": 14484,
          "time": 168.41860465116278,
          "velocity": 0.3858267716535433
        },
        {
          "duration": 0.09302325581393234,
          "durationTicks": 8,
          "midi": 66,
          "name": "F#4",
          "ticks": 14488,
          "time": 168.46511627906978,
          "velocity": 0.13385826771653545
        },
        {
          "duration": 0.023255813953483084,
          "durationTicks": 2,
          "midi": 39,
          "name": "D#2",
          "ticks": 14491,
          "time": 168.5,
          "velocity": 0.3228346456692913
        },
        {
          "duration": 0.023255813953483084,
          "durationTicks": 2,
          "midi": 37,
          "name": "C#2",
          "ticks": 14497,
          "time": 168.56976744186048,
          "velocity": 0.33858267716535434
        },
        {
          "duration": 0.0813953488371908,
          "durationTicks": 7,
          "midi": 51,
          "name": "D#3",
          "ticks": 14498,
          "time": 168.58139534883722,
          "velocity": 0.14960629921259844
        },
        {
          "duration": 0.5232558139534831,
          "durationTicks": 45,
          "midi": 63,
          "name": "D#4",
          "ticks": 14504,
          "time": 168.65116279069767,
          "velocity": 0.31496062992125984
        },
        {
          "duration": 0.023255813953511506,
          "durationTicks": 2,
          "midi": 48,
          "name": "C3",
          "ticks": 14506,
          "time": 168.67441860465115,
          "velocity": 0.2992125984251969
        },
        {
          "duration": 0.023255813953511506,
          "durationTicks": 2,
          "midi": 36,
          "name": "C2",
          "ticks": 14507,
          "time": 168.6860465116279,
          "velocity": 0.2992125984251969
        },
        {
          "duration": 0.034883720930224626,
          "durationTicks": 3,
          "midi": 71,
          "name": "B4",
          "ticks": 14508,
          "time": 168.69767441860466,
          "velocity": 0.12598425196850394
        },
        {
          "duration": 0.023255813953483084,
          "durationTicks": 2,
          "midi": 50,
          "name": "D3",
          "ticks": 14509,
          "time": 168.7093023255814,
          "velocity": 0.33858267716535434
        },
        {
          "duration": 0.023255813953483084,
          "durationTicks": 2,
          "midi": 38,
          "name": "D2",
          "ticks": 14510,
          "time": 168.72093023255815,
          "velocity": 0.29133858267716534
        },
        {
          "duration": 0.034883720930224626,
          "durationTicks": 3,
          "midi": 37,
          "name": "C#2",
          "ticks": 14512,
          "time": 168.74418604651163,
          "velocity": 0.31496062992125984
        },
        {
          "duration": 0.034883720930224626,
          "durationTicks": 3,
          "midi": 50,
          "name": "D3",
          "ticks": 14514,
          "time": 168.7674418604651,
          "velocity": 0.30708661417322836
        },
        {
          "duration": 0.023255813953483084,
          "durationTicks": 2,
          "midi": 38,
          "name": "D2",
          "ticks": 14515,
          "time": 168.77906976744185,
          "velocity": 0.2992125984251969
        },
        {
          "duration": 0.0813953488371908,
          "durationTicks": 7,
          "midi": 37,
          "name": "C#2",
          "ticks": 14519,
          "time": 168.82558139534885,
          "velocity": 0.31496062992125984
        },
        {
          "duration": 0.034883720930224626,
          "durationTicks": 3,
          "midi": 50,
          "name": "D3",
          "ticks": 14519,
          "time": 168.82558139534885,
          "velocity": 0.29133858267716534
        },
        {
          "duration": 0.034883720930224626,
          "durationTicks": 3,
          "midi": 50,
          "name": "D3",
          "ticks": 14524,
          "time": 168.88372093023256,
          "velocity": 0.28346456692913385
        },
        {
          "duration": 0.05813953488370771,
          "durationTicks": 5,
          "midi": 37,
          "name": "C#2",
          "ticks": 14531,
          "time": 168.96511627906978,
          "velocity": 0.31496062992125984
        },
        {
          "duration": 0.25581395348837077,
          "durationTicks": 22,
          "midi": 73,
          "name": "C#5",
          "ticks": 14535,
          "time": 169.01162790697674,
          "velocity": 0.25984251968503935
        },
        {
          "duration": 0.023255813953483084,
          "durationTicks": 2,
          "midi": 38,
          "name": "D2",
          "ticks": 14536,
          "time": 169.02325581395348,
          "velocity": 0.4330708661417323
        },
        {
          "duration": 0.05813953488373613,
          "durationTicks": 5,
          "midi": 36,
          "name": "C2",
          "ticks": 14539,
          "time": 169.0581395348837,
          "velocity": 0.44881889763779526
        },
        {
          "duration": 0.05813953488370771,
          "durationTicks": 5,
          "midi": 50,
          "name": "D3",
          "ticks": 14540,
          "time": 169.06976744186048,
          "velocity": 0.1968503937007874
        },
        {
          "duration": 0.04651162790699459,
          "durationTicks": 4,
          "midi": 36,
          "name": "C2",
          "ticks": 14547,
          "time": 169.15116279069767,
          "velocity": 0.3858267716535433
        },
        {
          "duration": 0.1511627906976969,
          "durationTicks": 13,
          "midi": 61,
          "name": "C#4",
          "ticks": 14549,
          "time": 169.17441860465115,
          "velocity": 0.16535433070866143
        },
        {
          "duration": 0.034883720930224626,
          "durationTicks": 3,
          "midi": 49,
          "name": "C#3",
          "ticks": 14551,
          "time": 169.19767441860466,
          "velocity": 0.07086614173228346
        },
        {
          "duration": 0.023255813953483084,
          "durationTicks": 2,
          "midi": 34,
          "name": "A#1",
          "ticks": 14555,
          "time": 169.24418604651163,
          "velocity": 0.25196850393700787
        },
        {
          "duration": 0.05813953488370771,
          "durationTicks": 5,
          "midi": 45,
          "name": "A2",
          "ticks": 14561,
          "time": 169.3139534883721,
          "velocity": 0.3937007874015748
        },
        {
          "duration": 0.46511627906974695,
          "durationTicks": 40,
          "midi": 66,
          "name": "F#4",
          "ticks": 14561,
          "time": 169.3139534883721,
          "velocity": 0.33858267716535434
        },
        {
          "duration": 0.023255813953483084,
          "durationTicks": 2,
          "midi": 52,
          "name": "E3",
          "ticks": 14565,
          "time": 169.36046511627907,
          "velocity": 0.2677165354330709
        },
        {
          "duration": 0.05813953488370771,
          "durationTicks": 5,
          "midi": 57,
          "name": "A3",
          "ticks": 14566,
          "time": 169.37209302325581,
          "velocity": 0.29133858267716534
        },
        {
          "duration": 0.12790697674418539,
          "durationTicks": 11,
          "midi": 71,
          "name": "B4",
          "ticks": 14566,
          "time": 169.37209302325581,
          "velocity": 0.1732283464566929
        },
        {
          "duration": 0.034883720930224626,
          "durationTicks": 3,
          "midi": 61,
          "name": "C#4",
          "ticks": 14567,
          "time": 169.38372093023256,
          "velocity": 0.1968503937007874
        },
        {
          "duration": 0.06976744186047767,
          "durationTicks": 6,
          "midi": 35,
          "name": "B1",
          "ticks": 14568,
          "time": 169.3953488372093,
          "velocity": 0.3543307086614173
        },
        {
          "duration": 0.3139534883721069,
          "durationTicks": 27,
          "midi": 45,
          "name": "A2",
          "ticks": 14569,
          "time": 169.40697674418604,
          "velocity": 0.3464566929133858
        },
        {
          "duration": 0.24418604651162923,
          "durationTicks": 21,
          "midi": 52,
          "name": "E3",
          "ticks": 14571,
          "time": 169.43023255813952,
          "velocity": 0.15748031496062992
        },
        {
          "duration": 0.06976744186047767,
          "durationTicks": 6,
          "midi": 90,
          "name": "F#6",
          "ticks": 14571,
          "time": 169.43023255813952,
          "velocity": 0.07086614173228346
        },
        {
          "duration": 0.034883720930224626,
          "durationTicks": 3,
          "midi": 61,
          "name": "C#4",
          "ticks": 14572,
          "time": 169.4418604651163,
          "velocity": 0.14173228346456693
        },
        {
          "duration": 0.06976744186044925,
          "durationTicks": 6,
          "midi": 73,
          "name": "C#5",
          "ticks": 14575,
          "time": 169.47674418604652,
          "velocity": 0.11023622047244094
        },
        {
          "duration": 0.19767441860466306,
          "durationTicks": 17,
          "midi": 61,
          "name": "C#4",
          "ticks": 14579,
          "time": 169.52325581395348,
          "velocity": 0.1732283464566929
        },
        {
          "duration": 0.023255813953483084,
          "durationTicks": 2,
          "midi": 53,
          "name": "F3",
          "ticks": 14594,
          "time": 169.69767441860466,
          "velocity": 0.29133858267716534
        },
        {
          "duration": 0.5,
          "durationTicks": 43,
          "midi": 45,
          "name": "A2",
          "ticks": 14597,
          "time": 169.7325581395349,
          "velocity": 0.3700787401574803
        },
        {
          "duration": 0.023255813953483084,
          "durationTicks": 2,
          "midi": 35,
          "name": "B1",
          "ticks": 14599,
          "time": 169.75581395348837,
          "velocity": 0.3228346456692913
        },
        {
          "duration": 0.023255813953483084,
          "durationTicks": 2,
          "midi": 53,
          "name": "F3",
          "ticks": 14599,
          "time": 169.75581395348837,
          "velocity": 0.25984251968503935
        },
        {
          "duration": 0.03488372093025305,
          "durationTicks": 3,
          "midi": 34,
          "name": "A#1",
          "ticks": 14601,
          "time": 169.77906976744185,
          "velocity": 0.31496062992125984
        },
        {
          "duration": 0.03488372093025305,
          "durationTicks": 3,
          "midi": 53,
          "name": "F3",
          "ticks": 14603,
          "time": 169.80232558139534,
          "velocity": 0.2440944881889764
        },
        {
          "duration": 0.034883720930224626,
          "durationTicks": 3,
          "midi": 33,
          "name": "A1",
          "ticks": 14604,
          "time": 169.8139534883721,
          "velocity": 0.30708661417322836
        },
        {
          "duration": 0.034883720930224626,
          "durationTicks": 3,
          "midi": 53,
          "name": "F3",
          "ticks": 14607,
          "time": 169.84883720930233,
          "velocity": 0.2440944881889764
        },
        {
          "duration": 0.04651162790696617,
          "durationTicks": 4,
          "midi": 66,
          "name": "F#4",
          "ticks": 14607,
          "time": 169.84883720930233,
          "velocity": 0.10236220472440945
        },
        {
          "duration": 0.05813953488370771,
          "durationTicks": 5,
          "midi": 33,
          "name": "A1",
          "ticks": 14608,
          "time": 169.86046511627907,
          "velocity": 0.29133858267716534
        },
        {
          "duration": 0.6046511627907023,
          "durationTicks": 52,
          "midi": 66,
          "name": "F#4",
          "ticks": 14612,
          "time": 169.90697674418604,
          "velocity": 0.2677165354330709
        },
        {
          "duration": 0.023255813953511506,
          "durationTicks": 2,
          "midi": 53,
          "name": "F3",
          "ticks": 14613,
          "time": 169.91860465116278,
          "velocity": 0.2283464566929134
        },
        {
          "duration": 0.034883720930224626,
          "durationTicks": 3,
          "midi": 33,
          "name": "A1",
          "ticks": 14615,
          "time": 169.9418604651163,
          "velocity": 0.2125984251968504
        },
        {
          "duration": 0.034883720930224626,
          "durationTicks": 3,
          "midi": 52,
          "name": "E3",
          "ticks": 14617,
          "time": 169.96511627906978,
          "velocity": 0.1889763779527559
        },
        {
          "duration": 0.04651162790696617,
          "durationTicks": 4,
          "midi": 63,
          "name": "D#4",
          "ticks": 14618,
          "time": 169.97674418604652,
          "velocity": 0.10236220472440945
        },
        {
          "duration": 0.15116279069766847,
          "durationTicks": 13,
          "midi": 70,
          "name": "A#4",
          "ticks": 14623,
          "time": 170.03488372093022,
          "velocity": 0.28346456692913385
        },
        {
          "duration": 0.23255813953485927,
          "durationTicks": 20,
          "midi": 61,
          "name": "C#4",
          "ticks": 14626,
          "time": 170.06976744186048,
          "velocity": 0.2125984251968504
        },
        {
          "duration": 0.09302325581396076,
          "durationTicks": 8,
          "midi": 71,
          "name": "B4",
          "ticks": 14639,
          "time": 170.22093023255815,
          "velocity": 0.09448818897637795
        },
        {
          "duration": 0.023255813953483084,
          "durationTicks": 2,
          "midi": 39,
          "name": "D#2",
          "ticks": 14640,
          "time": 170.2325581395349,
          "velocity": 0.3543307086614173
        },
        {
          "duration": 0.1046511627907023,
          "durationTicks": 9,
          "midi": 90,
          "name": "F#6",
          "ticks": 14640,
          "time": 170.2325581395349,
          "velocity": 0.07874015748031496
        },
        {
          "duration": 0.023255813953483084,
          "durationTicks": 2,
          "midi": 36,
          "name": "C2",
          "ticks": 14642,
          "time": 170.25581395348837,
          "velocity": 0.3700787401574803
        },
        {
          "duration": 0.12790697674418539,
          "durationTicks": 11,
          "midi": 45,
          "name": "A2",
          "ticks": 14642,
          "time": 170.25581395348837,
          "velocity": 0.3543307086614173
        },
        {
          "duration": 0.023255813953483084,
          "durationTicks": 2,
          "midi": 35,
          "name": "B1",
          "ticks": 14644,
          "time": 170.27906976744185,
          "velocity": 0.3543307086614173
        },
        {
          "duration": 0.03488372093025305,
          "durationTicks": 3,
          "midi": 34,
          "name": "A#1",
          "ticks": 14646,
          "time": 170.30232558139534,
          "velocity": 0.33070866141732286
        },
        {
          "duration": 0.06976744186044925,
          "durationTicks": 6,
          "midi": 61,
          "name": "C#4",
          "ticks": 14647,
          "time": 170.3139534883721,
          "velocity": 0.14173228346456693
        },
        {
          "duration": 0.023255813953483084,
          "durationTicks": 2,
          "midi": 33,
          "name": "A1",
          "ticks": 14649,
          "time": 170.3372093023256,
          "velocity": 0.25196850393700787
        },
        {
          "duration": 0.15116279069766847,
          "durationTicks": 13,
          "midi": 45,
          "name": "A2",
          "ticks": 14654,
          "time": 170.3953488372093,
          "velocity": 0.30708661417322836
        },
        {
          "duration": 0.2674418604651123,
          "durationTicks": 23,
          "midi": 70,
          "name": "A#4",
          "ticks": 14654,
          "time": 170.3953488372093,
          "velocity": 0.2677165354330709
        },
        {
          "duration": 0.19767441860466306,
          "durationTicks": 17,
          "midi": 73,
          "name": "C#5",
          "ticks": 14654,
          "time": 170.3953488372093,
          "velocity": 0.11811023622047244
        },
        {
          "duration": 0.03488372093025305,
          "durationTicks": 3,
          "midi": 55,
          "name": "G3",
          "ticks": 14655,
          "time": 170.40697674418604,
          "velocity": 0.36220472440944884
        },
        {
          "duration": 0.05813953488373613,
          "durationTicks": 5,
          "midi": 89,
          "name": "F6",
          "ticks": 14655,
          "time": 170.40697674418604,
          "velocity": 0.10236220472440945
        },
        {
          "duration": 0.16279069767443843,
          "durationTicks": 14,
          "midi": 61,
          "name": "C#4",
          "ticks": 14657,
          "time": 170.43023255813952,
          "velocity": 0.2204724409448819
        },
        {
          "duration": 0.04651162790696617,
          "durationTicks": 4,
          "midi": 32,
          "name": "G#1",
          "ticks": 14658,
          "time": 170.4418604651163,
          "velocity": 0.13385826771653545
        },
        {
          "duration": 0.034883720930224626,
          "durationTicks": 3,
          "midi": 58,
          "name": "A#3",
          "ticks": 14659,
          "time": 170.45348837209303,
          "velocity": 0.11023622047244094
        },
        {
          "duration": 0.034883720930224626,
          "durationTicks": 3,
          "midi": 33,
          "name": "A1",
          "ticks": 14663,
          "time": 170.5,
          "velocity": 0.1968503937007874
        },
        {
          "duration": 0.04651162790699459,
          "durationTicks": 4,
          "midi": 46,
          "name": "A#2",
          "ticks": 14667,
          "time": 170.54651162790697,
          "velocity": 0.14960629921259844
        },
        {
          "duration": 0.04651162790696617,
          "durationTicks": 4,
          "midi": 66,
          "name": "F#4",
          "ticks": 14673,
          "time": 170.61627906976744,
          "velocity": 0.11023622047244094
        },
        {
          "duration": 0.09302325581393234,
          "durationTicks": 8,
          "midi": 66,
          "name": "F#4",
          "ticks": 14681,
          "time": 170.7093023255814,
          "velocity": 0.31496062992125984
        },
        {
          "duration": 0.023255813953483084,
          "durationTicks": 2,
          "midi": 54,
          "name": "F#3",
          "ticks": 14682,
          "time": 170.72093023255815,
          "velocity": 0.2992125984251969
        },
        {
          "duration": 0.034883720930224626,
          "durationTicks": 3,
          "midi": 70,
          "name": "A#4",
          "ticks": 14682,
          "time": 170.72093023255815,
          "velocity": 0.08661417322834646
        },
        {
          "duration": 0.023255813953483084,
          "durationTicks": 2,
          "midi": 36,
          "name": "C2",
          "ticks": 14684,
          "time": 170.74418604651163,
          "velocity": 0.3543307086614173
        },
        {
          "duration": 0.034883720930224626,
          "durationTicks": 3,
          "midi": 56,
          "name": "G#3",
          "ticks": 14685,
          "time": 170.75581395348837,
          "velocity": 0.29133858267716534
        },
        {
          "duration": 1.0813953488372192,
          "durationTicks": 93,
          "midi": 44,
          "name": "G#2",
          "ticks": 14686,
          "time": 170.7674418604651,
          "velocity": 0.3937007874015748
        },
        {
          "duration": 0.023255813953511506,
          "durationTicks": 2,
          "midi": 67,
          "name": "G4",
          "ticks": 14689,
          "time": 170.80232558139534,
          "velocity": 0.31496062992125984
        },
        {
          "duration": 0.023255813953483084,
          "durationTicks": 2,
          "midi": 55,
          "name": "G3",
          "ticks": 14694,
          "time": 170.86046511627907,
          "velocity": 0.2677165354330709
        },
        {
          "duration": 0.04651162790696617,
          "durationTicks": 4,
          "midi": 68,
          "name": "G#4",
          "ticks": 14695,
          "time": 170.87209302325581,
          "velocity": 0.2440944881889764
        },
        {
          "duration": 0.09302325581396076,
          "durationTicks": 8,
          "midi": 78,
          "name": "F#5",
          "ticks": 14697,
          "time": 170.8953488372093,
          "velocity": 0.14173228346456693
        },
        {
          "duration": 0.08139534883721922,
          "durationTicks": 7,
          "midi": 59,
          "name": "B3",
          "ticks": 14698,
          "time": 170.90697674418604,
          "velocity": 0.2047244094488189
        },
        {
          "duration": 0.08139534883721922,
          "durationTicks": 7,
          "midi": 66,
          "name": "F#4",
          "ticks": 14700,
          "time": 170.93023255813952,
          "velocity": 0.2283464566929134
        },
        {
          "duration": 0.034883720930224626,
          "durationTicks": 3,
          "midi": 32,
          "name": "G#1",
          "ticks": 14702,
          "time": 170.95348837209303,
          "velocity": 0.18110236220472442
        },
        {
          "duration": 0.034883720930224626,
          "durationTicks": 3,
          "midi": 53,
          "name": "F3",
          "ticks": 14705,
          "time": 170.98837209302326,
          "velocity": 0.18110236220472442
        },
        {
          "duration": 0.08139534883721922,
          "durationTicks": 7,
          "midi": 59,
          "name": "B3",
          "ticks": 14706,
          "time": 171,
          "velocity": 0.1889763779527559
        },
        {
          "duration": 0.034883720930224626,
          "durationTicks": 3,
          "midi": 68,
          "name": "G#4",
          "ticks": 14706,
          "time": 171,
          "velocity": 0.2047244094488189
        },
        {
          "duration": 0.06976744186047767,
          "durationTicks": 6,
          "midi": 32,
          "name": "G#1",
          "ticks": 14710,
          "time": 171.04651162790697,
          "velocity": 0.13385826771653545
        },
        {
          "duration": 0.04651162790699459,
          "durationTicks": 4,
          "midi": 66,
          "name": "F#4",
          "ticks": 14710,
          "time": 171.04651162790697,
          "velocity": 0.1968503937007874
        },
        {
          "duration": 0.09302325581393234,
          "durationTicks": 8,
          "midi": 68,
          "name": "G#4",
          "ticks": 14713,
          "time": 171.08139534883722,
          "velocity": 0.2440944881889764
        },
        {
          "duration": 0.2790697674418823,
          "durationTicks": 24,
          "midi": 63,
          "name": "D#4",
          "ticks": 14721,
          "time": 171.17441860465115,
          "velocity": 0.1889763779527559
        },
        {
          "duration": 0.09302325581396076,
          "durationTicks": 8,
          "midi": 68,
          "name": "G#4",
          "ticks": 14722,
          "time": 171.1860465116279,
          "velocity": 0.2440944881889764
        },
        {
          "duration": 0.06976744186044925,
          "durationTicks": 6,
          "midi": 71,
          "name": "B4",
          "ticks": 14726,
          "time": 171.2325581395349,
          "velocity": 0.08661417322834646
        },
        {
          "duration": 0.06976744186047767,
          "durationTicks": 6,
          "midi": 66,
          "name": "F#4",
          "ticks": 14729,
          "time": 171.2674418604651,
          "velocity": 0.13385826771653545
        },
        {
          "duration": 0.05813953488370771,
          "durationTicks": 5,
          "midi": 59,
          "name": "B3",
          "ticks": 14734,
          "time": 171.32558139534885,
          "velocity": 0.1732283464566929
        },
        {
          "duration": 0.06976744186044925,
          "durationTicks": 6,
          "midi": 68,
          "name": "G#4",
          "ticks": 14734,
          "time": 171.32558139534885,
          "velocity": 0.1732283464566929
        },
        {
          "duration": 0.2325581395348877,
          "durationTicks": 20,
          "midi": 66,
          "name": "F#4",
          "ticks": 14740,
          "time": 171.3953488372093,
          "velocity": 0.2755905511811024
        },
        {
          "duration": 0.03488372093025305,
          "durationTicks": 3,
          "midi": 71,
          "name": "B4",
          "ticks": 14742,
          "time": 171.41860465116278,
          "velocity": 0.14173228346456693
        },
        {
          "duration": 0.023255813953511506,
          "durationTicks": 2,
          "midi": 53,
          "name": "F3",
          "ticks": 14743,
          "time": 171.43023255813952,
          "velocity": 0.25196850393700787
        },
        {
          "duration": 0.30232558139533694,
          "durationTicks": 26,
          "midi": 59,
          "name": "B3",
          "ticks": 14744,
          "time": 171.4418604651163,
          "velocity": 0.1968503937007874
        },
        {
          "duration": 0.09302325581393234,
          "durationTicks": 8,
          "midi": 54,
          "name": "F#3",
          "ticks": 14745,
          "time": 171.45348837209303,
          "velocity": 0.2125984251968504
        },
        {
          "duration": 0.04651162790696617,
          "durationTicks": 4,
          "midi": 63,
          "name": "D#4",
          "ticks": 14746,
          "time": 171.46511627906978,
          "velocity": 0.07086614173228346
        },
        {
          "duration": 0.1046511627907023,
          "durationTicks": 9,
          "midi": 54,
          "name": "F#3",
          "ticks": 14754,
          "time": 171.5581395348837,
          "velocity": 0.18110236220472442
        },
        {
          "duration": 0.24418604651162923,
          "durationTicks": 21,
          "midi": 68,
          "name": "G#4",
          "ticks": 14764,
          "time": 171.67441860465115,
          "velocity": 0.1732283464566929
        },
        {
          "duration": 0.023255813953483084,
          "durationTicks": 2,
          "midi": 55,
          "name": "G3",
          "ticks": 14772,
          "time": 171.7674418604651,
          "velocity": 0.3700787401574803
        },
        {
          "duration": 0.2325581395348877,
          "durationTicks": 20,
          "midi": 70,
          "name": "A#4",
          "ticks": 14773,
          "time": 171.77906976744185,
          "velocity": 0.2204724409448819
        },
        {
          "duration": 0.18604651162792152,
          "durationTicks": 16,
          "midi": 58,
          "name": "A#3",
          "ticks": 14775,
          "time": 171.80232558139534,
          "velocity": 0.2125984251968504
        },
        {
          "duration": 0.05813953488373613,
          "durationTicks": 5,
          "midi": 89,
          "name": "F6",
          "ticks": 14775,
          "time": 171.80232558139534,
          "velocity": 0.11811023622047244
        },
        {
          "duration": 0.04651162790696617,
          "durationTicks": 4,
          "midi": 43,
          "name": "G2",
          "ticks": 14779,
          "time": 171.84883720930233,
          "velocity": 0.2677165354330709
        },
        {
          "duration": 0.04651162790699459,
          "durationTicks": 4,
          "midi": 42,
          "name": "F#2",
          "ticks": 14785,
          "time": 171.91860465116278,
          "velocity": 0.1968503937007874
        },
        {
          "duration": 0.03488372093025305,
          "durationTicks": 3,
          "midi": 89,
          "name": "F6",
          "ticks": 14786,
          "time": 171.93023255813952,
          "velocity": 0.08661417322834646
        },
        {
          "duration": 0.04651162790696617,
          "durationTicks": 4,
          "midi": 42,
          "name": "F#2",
          "ticks": 14790,
          "time": 171.97674418604652,
          "velocity": 0.15748031496062992
        },
        {
          "duration": 0.034883720930224626,
          "durationTicks": 3,
          "midi": 43,
          "name": "G2",
          "ticks": 14794,
          "time": 172.02325581395348,
          "velocity": 0.15748031496062992
        },
        {
          "duration": 0.034883720930224626,
          "durationTicks": 3,
          "midi": 70,
          "name": "A#4",
          "ticks": 14794,
          "time": 172.02325581395348,
          "velocity": 0.11023622047244094
        },
        {
          "duration": 0.06976744186047767,
          "durationTicks": 6,
          "midi": 68,
          "name": "G#4",
          "ticks": 14796,
          "time": 172.04651162790697,
          "velocity": 0.18110236220472442
        },
        {
          "duration": 0.023255813953511506,
          "durationTicks": 2,
          "midi": 44,
          "name": "G#2",
          "ticks": 14797,
          "time": 172.0581395348837,
          "velocity": 0.2440944881889764
        },
        {
          "duration": 0.13953488372092693,
          "durationTicks": 12,
          "midi": 54,
          "name": "F#3",
          "ticks": 14801,
          "time": 172.1046511627907,
          "velocity": 0.33858267716535434
        },
        {
          "duration": 0.04651162790696617,
          "durationTicks": 4,
          "midi": 61,
          "name": "C#4",
          "ticks": 14801,
          "time": 172.1046511627907,
          "velocity": 0.09448818897637795
        },
        {
          "duration": 0.023255813953483084,
          "durationTicks": 2,
          "midi": 67,
          "name": "G4",
          "ticks": 14802,
          "time": 172.11627906976744,
          "velocity": 0.2283464566929134
        },
        {
          "duration": 0.03488372093025305,
          "durationTicks": 3,
          "midi": 61,
          "name": "C#4",
          "ticks": 14808,
          "time": 172.1860465116279,
          "velocity": 0.09448818897637795
        },
        {
          "duration": 0.32558139534882,
          "durationTicks": 28,
          "midi": 66,
          "name": "F#4",
          "ticks": 14810,
          "time": 172.2093023255814,
          "velocity": 0.33858267716535434
        },
        {
          "duration": 0.023255813953483084,
          "durationTicks": 2,
          "midi": 43,
          "name": "G2",
          "ticks": 14812,
          "time": 172.2325581395349,
          "velocity": 0.33070866141732286
        },
        {
          "duration": 0.5116279069767415,
          "durationTicks": 44,
          "midi": 58,
          "name": "A#3",
          "ticks": 14812,
          "time": 172.2325581395349,
          "velocity": 0.2204724409448819
        },
        {
          "duration": 0.08139534883721922,
          "durationTicks": 7,
          "midi": 77,
          "name": "F5",
          "ticks": 14813,
          "time": 172.24418604651163,
          "velocity": 0.10236220472440945
        },
        {
          "duration": 0.034883720930224626,
          "durationTicks": 3,
          "midi": 54,
          "name": "F#3",
          "ticks": 14814,
          "time": 172.25581395348837,
          "velocity": 0.2677165354330709
        },
        {
          "duration": 0.09302325581396076,
          "durationTicks": 8,
          "midi": 42,
          "name": "F#2",
          "ticks": 14818,
          "time": 172.30232558139534,
          "velocity": 0.3700787401574803
        },
        {
          "duration": 2.279069767441854,
          "durationTicks": 196,
          "midi": 42,
          "name": "F#2",
          "ticks": 14827,
          "time": 172.40697674418604,
          "velocity": 0.36220472440944884
        },
        {
          "duration": 0.6976744186046346,
          "durationTicks": 60,
          "midi": 66,
          "name": "F#4",
          "ticks": 14842,
          "time": 172.58139534883722,
          "velocity": 0.25984251968503935
        },
        {
          "duration": 0.24418604651162923,
          "durationTicks": 21,
          "midi": 61,
          "name": "C#4",
          "ticks": 14850,
          "time": 172.67441860465115,
          "velocity": 0.14960629921259844
        },
        {
          "duration": 0.2093023255814046,
          "durationTicks": 18,
          "midi": 58,
          "name": "A#3",
          "ticks": 14878,
          "time": 173,
          "velocity": 0.11811023622047244
        },
        {
          "duration": 0.4302325581395223,
          "durationTicks": 37,
          "midi": 61,
          "name": "C#4",
          "ticks": 14886,
          "time": 173.09302325581396,
          "velocity": 0.13385826771653545
        },
        {
          "duration": 0.2325581395348877,
          "durationTicks": 20,
          "midi": 66,
          "name": "F#4",
          "ticks": 14913,
          "time": 173.40697674418604,
          "velocity": 0.11023622047244094
        },
        {
          "duration": 0.0813953488371908,
          "durationTicks": 7,
          "midi": 66,
          "name": "F#4",
          "ticks": 14940,
          "time": 173.72093023255815,
          "velocity": 0.07086614173228346
        }
      ],
      "endOfTrackTicks": 15023
    }
  ]
}