{
  "header": {
    "keySignatures": [],
    "meta": [],
    "name": "",
    "ppq": 43,
    "tempos": [
      {
        "bpm": 120,
        "ticks": 0
      }
    ],
    "timeSignatures": []
  },
  "tracks": [
    {
      "channel": 0,
      "controlChanges": {},
      "pitchBends": [],
      "instrument": {
        "family": "piano",
        "number": 0,
        "name": "acoustic grand piano"
      },
      "name": "",
      "notes": [
        {
          "duration": 0.23255813953488372,
          "durationTicks": 20,
          "midi": 52,
          "name": "E3",
          "ticks": 0,
          "time": 0,
          "velocity": 0.23622047244094488
        },
        {
          "duration": 0.08139534883720931,
          "durationTicks": 7,
          "midi": 59,
          "name": "B3",
          "ticks": 0,
          "time": 0,
          "velocity": 0.14960629921259844
        },
        {
          "duration": 0.13953488372093026,
          "durationTicks": 12,
          "midi": 64,
          "name": "E4",
          "ticks": 58,
          "time": 0.6744186046511628,
          "velocity": 0.16535433070866143
        },
        {
          "duration": 0.22093023255813948,
          "durationTicks": 19,
          "midi": 52,
          "name": "E3",
          "ticks": 59,
          "time": 0.686046511627907,
          "velocity": 0.2283464566929134
        },
        {
          "duration": 0.17441860465116277,
          "durationTicks": 15,
          "midi": 55,
          "name": "G3",
          "ticks": 80,
          "time": 0.9302325581395349,
          "velocity": 0.3937007874015748
        },
        {
          "duration": 0.15116279069767447,
          "durationTicks": 13,
          "midi": 64,
          "name": "E4",
          "ticks": 110,
          "time": 1.2790697674418605,
          "velocity": 0.1968503937007874
        },
        {
          "duration": 0.15116279069767424,
          "durationTicks": 13,
          "midi": 52,
          "name": "E3",
          "ticks": 112,
          "time": 1.302325581395349,
          "velocity": 0.1889763779527559
        },
        {
          "duration": 0.11627906976744184,
          "durationTicks": 10,
          "midi": 62,
          "name": "D4",
          "ticks": 143,
          "time": 1.6627906976744187,
          "velocity": 0.16535433070866143
        },
        {
          "duration": 0.18604651162790686,
          "durationTicks": 16,
          "midi": 50,
          "name": "D3",
          "ticks": 144,
          "time": 1.6744186046511629,
          "velocity": 0.09448818897637795
        },
        {
          "duration": 0.7906976744186045,
          "durationTicks": 68,
          "midi": 60,
          "name": "C4",
          "ticks": 164,
          "time": 1.9069767441860466,
          "velocity": 0.2047244094488189
        },
        {
          "duration": 0.4651162790697674,
          "durationTicks": 40,
          "midi": 59,
          "name": "B3",
          "ticks": 247,
          "time": 2.872093023255814,
          "velocity": 0.2047244094488189
        },
        {
          "duration": 0.19767441860465107,
          "durationTicks": 17,
          "midi": 64,
          "name": "E4",
          "ticks": 330,
          "time": 3.8372093023255816,
          "velocity": 0.1732283464566929
        },
        {
          "duration": 0.4302325581395343,
          "durationTicks": 37,
          "midi": 52,
          "name": "E3",
          "ticks": 332,
          "time": 3.86046511627907,
          "velocity": 0.18110236220472442
        },
        {
          "duration": 0.19767441860465063,
          "durationTicks": 17,
          "midi": 52,
          "name": "E3",
          "ticks": 393,
          "time": 4.569767441860465,
          "velocity": 0.2204724409448819
        },
        {
          "duration": 0.1511627906976747,
          "durationTicks": 13,
          "midi": 55,
          "name": "G3",
          "ticks": 416,
          "time": 4.837209302325581,
          "velocity": 0.3937007874015748
        },
        {
          "duration": 0.1511627906976738,
          "durationTicks": 13,
          "midi": 52,
          "name": "E3",
          "ticks": 445,
          "time": 5.174418604651163,
          "velocity": 0.2125984251968504
        },
        {
          "duration": 0.18604651162790642,
          "durationTicks": 16,
          "midi": 64,
          "name": "E4",
          "ticks": 445,
          "time": 5.174418604651163,
          "velocity": 0.2204724409448819
        },
        {
          "duration": 0.13953488372093048,
          "durationTicks": 12,
          "midi": 62,
          "name": "D4",
          "ticks": 475,
          "time": 5.523255813953488,
          "velocity": 0.18110236220472442
        },
        {
          "duration": 0.09302325581395365,
          "durationTicks": 8,
          "midi": 50,
          "name": "D3",
          "ticks": 481,
          "time": 5.593023255813954,
          "velocity": 0.07874015748031496
        },
        {
          "duration": 0.4651162790697674,
          "durationTicks": 40,
          "midi": 60,
          "name": "C4",
          "ticks": 498,
          "time": 5.790697674418604,
          "velocity": 0.2283464566929134
        },
        {
          "duration": 0.22093023255813993,
          "durationTicks": 19,
          "midi": 59,
          "name": "B3",
          "ticks": 583,
          "time": 6.77906976744186,
          "velocity": 0.14173228346456693
        },
        {
          "duration": 0.5348837209302326,
          "durationTicks": 46,
          "midi": 64,
          "name": "E4",
          "ticks": 666,
          "time": 7.744186046511628,
          "velocity": 0.31496062992125984
        },
        {
          "duration": 0.023255813953488413,
          "durationTicks": 2,
          "midi": 53,
          "name": "F3",
          "ticks": 667,
          "time": 7.755813953488372,
          "velocity": 0.30708661417322836
        },
        {
          "duration": 0.12790697674418627,
          "durationTicks": 11,
          "midi": 71,
          "name": "B4",
          "ticks": 667,
          "time": 7.755813953488372,
          "velocity": 0.11811023622047244
        },
        {
          "duration": 0.11627906976744207,
          "durationTicks": 10,
          "midi": 44,
          "name": "G#2",
          "ticks": 668,
          "time": 7.767441860465116,
          "velocity": 0.30708661417322836
        },
        {
          "duration": 0.45348837209302406,
          "durationTicks": 39,
          "midi": 52,
          "name": "E3",
          "ticks": 669,
          "time": 7.77906976744186,
          "velocity": 0.29133858267716534
        },
        {
          "duration": 0.04651162790697683,
          "durationTicks": 4,
          "midi": 55,
          "name": "G3",
          "ticks": 708,
          "time": 8.232558139534884,
          "velocity": 0.1968503937007874
        },
        {
          "duration": 0.05813953488372192,
          "durationTicks": 5,
          "midi": 44,
          "name": "G#2",
          "ticks": 711,
          "time": 8.267441860465116,
          "velocity": 0.09448818897637795
        },
        {
          "duration": 0.06976744186046524,
          "durationTicks": 6,
          "midi": 52,
          "name": "E3",
          "ticks": 714,
          "time": 8.30232558139535,
          "velocity": 0.2047244094488189
        },
        {
          "duration": 0.04651162790697683,
          "durationTicks": 4,
          "midi": 55,
          "name": "G3",
          "ticks": 732,
          "time": 8.511627906976743,
          "velocity": 0.07086614173228346
        },
        {
          "duration": 0.1976744186046524,
          "durationTicks": 17,
          "midi": 55,
          "name": "G3",
          "ticks": 752,
          "time": 8.744186046511627,
          "velocity": 0.4645669291338583
        },
        {
          "duration": 0.023255813953488413,
          "durationTicks": 2,
          "midi": 45,
          "name": "A2",
          "ticks": 753,
          "time": 8.755813953488373,
          "velocity": 0.28346456692913385
        },
        {
          "duration": 0.04651162790697683,
          "durationTicks": 4,
          "midi": 44,
          "name": "G#2",
          "ticks": 755,
          "time": 8.779069767441861,
          "velocity": 0.2125984251968504
        },
        {
          "duration": 0.11627906976744207,
          "durationTicks": 10,
          "midi": 64,
          "name": "E4",
          "ticks": 784,
          "time": 9.116279069767442,
          "velocity": 0.2755905511811024
        },
        {
          "duration": 0.06976744186046524,
          "durationTicks": 6,
          "midi": 71,
          "name": "B4",
          "ticks": 784,
          "time": 9.116279069767442,
          "velocity": 0.12598425196850394
        },
        {
          "duration": 0.06976744186046524,
          "durationTicks": 6,
          "midi": 59,
          "name": "B3",
          "ticks": 787,
          "time": 9.151162790697674,
          "velocity": 0.13385826771653545
        },
        {
          "duration": 0.06976744186046524,
          "durationTicks": 6,
          "midi": 52,
          "name": "E3",
          "ticks": 788,
          "time": 9.162790697674419,
          "velocity": 0.31496062992125984
        },
        {
          "duration": 0.08139534883720856,
          "durationTicks": 7,
          "midi": 44,
          "name": "G#2",
          "ticks": 794,
          "time": 9.232558139534884,
          "velocity": 0.1889763779527559
        },
        {
          "duration": 0.04651162790697683,
          "durationTicks": 4,
          "midi": 55,
          "name": "G3",
          "ticks": 813,
          "time": 9.453488372093023,
          "velocity": 0.2047244094488189
        },
        {
          "duration": 0.08139534883720856,
          "durationTicks": 7,
          "midi": 44,
          "name": "G#2",
          "ticks": 814,
          "time": 9.465116279069768,
          "velocity": 0.23622047244094488
        },
        {
          "duration": 0.10465116279069697,
          "durationTicks": 9,
          "midi": 62,
          "name": "D4",
          "ticks": 814,
          "time": 9.465116279069768,
          "velocity": 0.2204724409448819
        },
        {
          "duration": 0.11627906976744207,
          "durationTicks": 10,
          "midi": 50,
          "name": "D3",
          "ticks": 815,
          "time": 9.476744186046512,
          "velocity": 0.1968503937007874
        },
        {
          "duration": 0.4883720930232567,
          "durationTicks": 42,
          "midi": 60,
          "name": "C4",
          "ticks": 834,
          "time": 9.69767441860465,
          "velocity": 0.28346456692913385
        },
        {
          "duration": 0.058139534883720145,
          "durationTicks": 5,
          "midi": 44,
          "name": "G#2",
          "ticks": 835,
          "time": 9.709302325581396,
          "velocity": 0.2755905511811024
        },
        {
          "duration": 0.023255813953488413,
          "durationTicks": 2,
          "midi": 54,
          "name": "F#3",
          "ticks": 836,
          "time": 9.720930232558139,
          "velocity": 0.25984251968503935
        },
        {
          "duration": 0.37209302325581284,
          "durationTicks": 32,
          "midi": 67,
          "name": "G4",
          "ticks": 841,
          "time": 9.779069767441861,
          "velocity": 0.10236220472440945
        },
        {
          "duration": 0.3372093023255811,
          "durationTicks": 29,
          "midi": 48,
          "name": "C3",
          "ticks": 846,
          "time": 9.837209302325581,
          "velocity": 0.14960629921259844
        },
        {
          "duration": 0.03488372093023173,
          "durationTicks": 3,
          "midi": 55,
          "name": "G3",
          "ticks": 876,
          "time": 10.186046511627907,
          "velocity": 0.2992125984251969
        },
        {
          "duration": 0.023255813953488413,
          "durationTicks": 2,
          "midi": 45,
          "name": "A2",
          "ticks": 877,
          "time": 10.19767441860465,
          "velocity": 0.25984251968503935
        },
        {
          "duration": 0.3255813953488378,
          "durationTicks": 28,
          "midi": 60,
          "name": "C4",
          "ticks": 877,
          "time": 10.19767441860465,
          "velocity": 0.23622047244094488
        },
        {
          "duration": 0.023255813953488413,
          "durationTicks": 2,
          "midi": 44,
          "name": "G#2",
          "ticks": 879,
          "time": 10.220930232558139,
          "velocity": 0.25196850393700787
        },
        {
          "duration": 0.04651162790697683,
          "durationTicks": 4,
          "midi": 48,
          "name": "C3",
          "ticks": 882,
          "time": 10.255813953488373,
          "velocity": 0.18110236220472442
        },
        {
          "duration": 0.23255813953488413,
          "durationTicks": 20,
          "midi": 48,
          "name": "C3",
          "ticks": 887,
          "time": 10.313953488372093,
          "velocity": 0.16535433070866143
        },
        {
          "duration": 0.09302325581395365,
          "durationTicks": 8,
          "midi": 47,
          "name": "B2",
          "ticks": 907,
          "time": 10.546511627906977,
          "velocity": 0.09448818897637795
        },
        {
          "duration": 0.04651162790697683,
          "durationTicks": 4,
          "midi": 45,
          "name": "A2",
          "ticks": 916,
          "time": 10.651162790697674,
          "velocity": 0.3543307086614173
        },
        {
          "duration": 0.12790697674418716,
          "durationTicks": 11,
          "midi": 75,
          "name": "D#5",
          "ticks": 918,
          "time": 10.674418604651162,
          "velocity": 0.11023622047244094
        },
        {
          "duration": 0.04651162790697683,
          "durationTicks": 4,
          "midi": 55,
          "name": "G3",
          "ticks": 919,
          "time": 10.686046511627907,
          "velocity": 0.1889763779527559
        },
        {
          "duration": 0.6976744186046506,
          "durationTicks": 60,
          "midi": 59,
          "name": "B3",
          "ticks": 919,
          "time": 10.686046511627907,
          "velocity": 0.2204724409448819
        },
        {
          "duration": 0.023255813953488413,
          "durationTicks": 2,
          "midi": 44,
          "name": "G#2",
          "ticks": 920,
          "time": 10.69767441860465,
          "velocity": 0.25984251968503935
        },
        {
          "duration": 0.023255813953488413,
          "durationTicks": 2,
          "midi": 45,
          "name": "A2",
          "ticks": 922,
          "time": 10.720930232558139,
          "velocity": 0.2440944881889764
        },
        {
          "duration": 0.3139534883720927,
          "durationTicks": 27,
          "midi": 47,
          "name": "B2",
          "ticks": 930,
          "time": 10.813953488372093,
          "velocity": 0.11811023622047244
        },
        {
          "duration": 0.023255813953488413,
          "durationTicks": 2,
          "midi": 53,
          "name": "F3",
          "ticks": 959,
          "time": 11.151162790697674,
          "velocity": 0.28346456692913385
        },
        {
          "duration": 0.03488372093023173,
          "durationTicks": 3,
          "midi": 47,
          "name": "B2",
          "ticks": 964,
          "time": 11.209302325581396,
          "velocity": 0.2204724409448819
        },
        {
          "duration": 0.1511627906976738,
          "durationTicks": 13,
          "midi": 47,
          "name": "B2",
          "ticks": 968,
          "time": 11.255813953488373,
          "velocity": 0.1732283464566929
        },
        {
          "duration": 0.03488372093023351,
          "durationTicks": 3,
          "midi": 55,
          "name": "G3",
          "ticks": 998,
          "time": 11.604651162790697,
          "velocity": 0.2204724409448819
        },
        {
          "duration": 0.11627906976744207,
          "durationTicks": 10,
          "midi": 44,
          "name": "G#2",
          "ticks": 1001,
          "time": 11.63953488372093,
          "velocity": 0.30708661417322836
        },
        {
          "duration": 0.25581395348837255,
          "durationTicks": 22,
          "midi": 64,
          "name": "E4",
          "ticks": 1001,
          "time": 11.63953488372093,
          "velocity": 0.2125984251968504
        },
        {
          "duration": 0.10465116279069875,
          "durationTicks": 9,
          "midi": 59,
          "name": "B3",
          "ticks": 1002,
          "time": 11.651162790697674,
          "velocity": 0.18110236220472442
        },
        {
          "duration": 0.4418604651162781,
          "durationTicks": 38,
          "midi": 52,
          "name": "E3",
          "ticks": 1003,
          "time": 11.662790697674419,
          "velocity": 0.2992125984251969
        },
        {
          "duration": 0.03488372093023351,
          "durationTicks": 3,
          "midi": 60,
          "name": "C4",
          "ticks": 1041,
          "time": 12.104651162790697,
          "velocity": 0.16535433070866143
        },
        {
          "duration": 0.09302325581395365,
          "durationTicks": 8,
          "midi": 44,
          "name": "G#2",
          "ticks": 1042,
          "time": 12.116279069767442,
          "velocity": 0.25196850393700787
        },
        {
          "duration": 0.10465116279069697,
          "durationTicks": 9,
          "midi": 64,
          "name": "E4",
          "ticks": 1042,
          "time": 12.116279069767442,
          "velocity": 0.2677165354330709
        },
        {
          "duration": 0.023255813953488413,
          "durationTicks": 2,
          "midi": 52,
          "name": "E3",
          "ticks": 1043,
          "time": 12.127906976744185,
          "velocity": 0.2992125984251969
        },
        {
          "duration": 0.08139534883720856,
          "durationTicks": 7,
          "midi": 52,
          "name": "E3",
          "ticks": 1046,
          "time": 12.162790697674419,
          "velocity": 0.2440944881889764
        },
        {
          "duration": 0.023255813953488413,
          "durationTicks": 2,
          "midi": 53,
          "name": "F3",
          "ticks": 1064,
          "time": 12.372093023255815,
          "velocity": 0.2677165354330709
        },
        {
          "duration": 0.1511627906976738,
          "durationTicks": 13,
          "midi": 59,
          "name": "B3",
          "ticks": 1064,
          "time": 12.372093023255815,
          "velocity": 0.13385826771653545
        },
        {
          "duration": 0.22093023255813904,
          "durationTicks": 19,
          "midi": 64,
          "name": "E4",
          "ticks": 1064,
          "time": 12.372093023255815,
          "velocity": 0.23622047244094488
        },
        {
          "duration": 0.1511627906976738,
          "durationTicks": 13,
          "midi": 52,
          "name": "E3",
          "ticks": 1066,
          "time": 12.395348837209303,
          "velocity": 0.23622047244094488
        },
        {
          "duration": 0.023255813953488413,
          "durationTicks": 2,
          "midi": 53,
          "name": "F3",
          "ticks": 1079,
          "time": 12.546511627906977,
          "velocity": 0.2440944881889764
        },
        {
          "duration": 0.058139534883720145,
          "durationTicks": 5,
          "midi": 44,
          "name": "G#2",
          "ticks": 1083,
          "time": 12.593023255813954,
          "velocity": 0.11023622047244094
        },
        {
          "duration": 0.1860465116279073,
          "durationTicks": 16,
          "midi": 55,
          "name": "G3",
          "ticks": 1083,
          "time": 12.593023255813954,
          "velocity": 0.4566929133858268
        },
        {
          "duration": 0.03488372093023173,
          "durationTicks": 3,
          "midi": 60,
          "name": "C4",
          "ticks": 1083,
          "time": 12.593023255813954,
          "velocity": 0.25196850393700787
        },
        {
          "duration": 0.13953488372093048,
          "durationTicks": 12,
          "midi": 59,
          "name": "B3",
          "ticks": 1112,
          "time": 12.930232558139535,
          "velocity": 0.2047244094488189
        },
        {
          "duration": 0.1511627906976738,
          "durationTicks": 13,
          "midi": 64,
          "name": "E4",
          "ticks": 1113,
          "time": 12.94186046511628,
          "velocity": 0.2047244094488189
        },
        {
          "duration": 0.10465116279069697,
          "durationTicks": 9,
          "midi": 52,
          "name": "E3",
          "ticks": 1114,
          "time": 12.953488372093023,
          "velocity": 0.2283464566929134
        },
        {
          "duration": 0.023255813953488413,
          "durationTicks": 2,
          "midi": 53,
          "name": "F3",
          "ticks": 1142,
          "time": 13.279069767441861,
          "velocity": 0.2283464566929134
        },
        {
          "duration": 0.09302325581395365,
          "durationTicks": 8,
          "midi": 62,
          "name": "D4",
          "ticks": 1143,
          "time": 13.290697674418604,
          "velocity": 0.18110236220472442
        },
        {
          "duration": 0.023255813953488413,
          "durationTicks": 2,
          "midi": 55,
          "name": "G3",
          "ticks": 1144,
          "time": 13.30232558139535,
          "velocity": 0.2283464566929134
        },
        {
          "duration": 0.12790697674418716,
          "durationTicks": 11,
          "midi": 50,
          "name": "D3",
          "ticks": 1145,
          "time": 13.313953488372093,
          "velocity": 0.1968503937007874
        },
        {
          "duration": 0.023255813953488413,
          "durationTicks": 2,
          "midi": 47,
          "name": "B2",
          "ticks": 1164,
          "time": 13.534883720930232,
          "velocity": 0.23622047244094488
        },
        {
          "duration": 0.023255813953488413,
          "durationTicks": 2,
          "midi": 55,
          "name": "G3",
          "ticks": 1164,
          "time": 13.534883720930232,
          "velocity": 0.25984251968503935
        },
        {
          "duration": 0.44186046511627985,
          "durationTicks": 38,
          "midi": 60,
          "name": "C4",
          "ticks": 1166,
          "time": 13.55813953488372,
          "velocity": 0.25984251968503935
        },
        {
          "duration": 0.023255813953488413,
          "durationTicks": 2,
          "midi": 55,
          "name": "G3",
          "ticks": 1167,
          "time": 13.569767441860465,
          "velocity": 0.28346456692913385
        },
        {
          "duration": 0.3604651162790695,
          "durationTicks": 31,
          "midi": 48,
          "name": "C3",
          "ticks": 1175,
          "time": 13.662790697674419,
          "velocity": 0.2047244094488189
        },
        {
          "duration": 0.03488372093023351,
          "durationTicks": 3,
          "midi": 55,
          "name": "G3",
          "ticks": 1205,
          "time": 14.011627906976743,
          "velocity": 0.29133858267716534
        },
        {
          "duration": 0.26744186046511764,
          "durationTicks": 23,
          "midi": 60,
          "name": "C4",
          "ticks": 1205,
          "time": 14.011627906976743,
          "velocity": 0.2755905511811024
        },
        {
          "duration": 0.04651162790697683,
          "durationTicks": 4,
          "midi": 64,
          "name": "E4",
          "ticks": 1205,
          "time": 14.011627906976743,
          "velocity": 0.1732283464566929
        },
        {
          "duration": 0.1976744186046524,
          "durationTicks": 17,
          "midi": 48,
          "name": "C3",
          "ticks": 1213,
          "time": 14.104651162790697,
          "velocity": 0.2047244094488189
        },
        {
          "duration": 0.1627906976744189,
          "durationTicks": 14,
          "midi": 47,
          "name": "B2",
          "ticks": 1230,
          "time": 14.30232558139535,
          "velocity": 0.11023622047244094
        },
        {
          "duration": 0.03488372093023173,
          "durationTicks": 3,
          "midi": 45,
          "name": "A2",
          "ticks": 1246,
          "time": 14.488372093023257,
          "velocity": 0.29133858267716534
        },
        {
          "duration": 0.43023255813953476,
          "durationTicks": 37,
          "midi": 59,
          "name": "B3",
          "ticks": 1246,
          "time": 14.488372093023257,
          "velocity": 0.25196850393700787
        },
        {
          "duration": 0.03488372093023351,
          "durationTicks": 3,
          "midi": 47,
          "name": "B2",
          "ticks": 1252,
          "time": 14.55813953488372,
          "velocity": 0.2047244094488189
        },
        {
          "duration": 0.3255813953488378,
          "durationTicks": 28,
          "midi": 47,
          "name": "B2",
          "ticks": 1256,
          "time": 14.604651162790697,
          "velocity": 0.2047244094488189
        },
        {
          "duration": 0.22093023255813904,
          "durationTicks": 19,
          "midi": 64,
          "name": "E4",
          "ticks": 1265,
          "time": 14.709302325581396,
          "velocity": 0.18110236220472442
        },
        {
          "duration": 0.04651162790697683,
          "durationTicks": 4,
          "midi": 55,
          "name": "G3",
          "ticks": 1266,
          "time": 14.720930232558139,
          "velocity": 0.14173228346456693
        },
        {
          "duration": 0.04651162790697683,
          "durationTicks": 4,
          "midi": 59,
          "name": "B3",
          "ticks": 1285,
          "time": 14.94186046511628,
          "velocity": 0.2047244094488189
        },
        {
          "duration": 0.04651162790697505,
          "durationTicks": 4,
          "midi": 56,
          "name": "G#3",
          "ticks": 1287,
          "time": 14.965116279069768,
          "velocity": 0.2755905511811024
        },
        {
          "duration": 0.04651162790697505,
          "durationTicks": 4,
          "midi": 64,
          "name": "E4",
          "ticks": 1287,
          "time": 14.965116279069768,
          "velocity": 0.15748031496062992
        },
        {
          "duration": 0.1744186046511622,
          "durationTicks": 15,
          "midi": 59,
          "name": "B3",
          "ticks": 1290,
          "time": 15,
          "velocity": 0.23622047244094488
        },
        {
          "duration": 0.13953488372093048,
          "durationTicks": 12,
          "midi": 47,
          "name": "B2",
          "ticks": 1293,
          "time": 15.034883720930232,
          "velocity": 0.18110236220472442
        },
        {
          "duration": 0.1860465116279073,
          "durationTicks": 16,
          "midi": 45,
          "name": "A2",
          "ticks": 1306,
          "time": 15.186046511627907,
          "velocity": 0.18110236220472442
        },
        {
          "duration": 0.13953488372093048,
          "durationTicks": 12,
          "midi": 44,
          "name": "G#2",
          "ticks": 1325,
          "time": 15.406976744186046,
          "velocity": 0.2283464566929134
        },
        {
          "duration": 0.4534883720930232,
          "durationTicks": 39,
          "midi": 64,
          "name": "E4",
          "ticks": 1327,
          "time": 15.430232558139535,
          "velocity": 0.23622047244094488
        },
        {
          "duration": 0.38372093023255793,
          "durationTicks": 33,
          "midi": 52,
          "name": "E3",
          "ticks": 1333,
          "time": 15.5,
          "velocity": 0.25984251968503935
        },
        {
          "duration": 0.4534883720930214,
          "durationTicks": 39,
          "midi": 64,
          "name": "E4",
          "ticks": 1367,
          "time": 15.895348837209303,
          "velocity": 0.2440944881889764
        },
        {
          "duration": 0.023255813953488413,
          "durationTicks": 2,
          "midi": 55,
          "name": "G3",
          "ticks": 1369,
          "time": 15.918604651162791,
          "velocity": 0.28346456692913385
        },
        {
          "duration": 0.03488372093023351,
          "durationTicks": 3,
          "midi": 44,
          "name": "G#2",
          "ticks": 1370,
          "time": 15.930232558139535,
          "velocity": 0.08661417322834646
        },
        {
          "duration": 0.023255813953488413,
          "durationTicks": 2,
          "midi": 53,
          "name": "F3",
          "ticks": 1372,
          "time": 15.953488372093023,
          "velocity": 0.2440944881889764
        },
        {
          "duration": 0.37209302325581284,
          "durationTicks": 32,
          "midi": 52,
          "name": "E3",
          "ticks": 1375,
          "time": 15.988372093023257,
          "velocity": 0.2125984251968504
        },
        {
          "duration": 0.02325581395349019,
          "durationTicks": 2,
          "midi": 54,
          "name": "F#3",
          "ticks": 1407,
          "time": 16.36046511627907,
          "velocity": 0.23622047244094488
        },
        {
          "duration": 0.023255813953486637,
          "durationTicks": 2,
          "midi": 52,
          "name": "E3",
          "ticks": 1409,
          "time": 16.38372093023256,
          "velocity": 0.23622047244094488
        },
        {
          "duration": 0.12790697674418539,
          "durationTicks": 11,
          "midi": 45,
          "name": "A2",
          "ticks": 1410,
          "time": 16.3953488372093,
          "velocity": 0.2992125984251969
        },
        {
          "duration": 0.02325581395349019,
          "durationTicks": 2,
          "midi": 54,
          "name": "F#3",
          "ticks": 1411,
          "time": 16.406976744186046,
          "velocity": 0.3779527559055118
        },
        {
          "duration": 0.15116279069767202,
          "durationTicks": 13,
          "midi": 55,
          "name": "G3",
          "ticks": 1413,
          "time": 16.430232558139537,
          "velocity": 0.4251968503937008
        },
        {
          "duration": 0.15116279069767558,
          "durationTicks": 13,
          "midi": 64,
          "name": "E4",
          "ticks": 1441,
          "time": 16.75581395348837,
          "velocity": 0.2755905511811024
        },
        {
          "duration": 0.08139534883721211,
          "durationTicks": 7,
          "midi": 71,
          "name": "B4",
          "ticks": 1441,
          "time": 16.75581395348837,
          "velocity": 0.12598425196850394
        },
        {
          "duration": 0.05813953488372192,
          "durationTicks": 5,
          "midi": 52,
          "name": "E3",
          "ticks": 1446,
          "time": 16.813953488372093,
          "velocity": 0.2440944881889764
        },
        {
          "duration": 0.03488372093023173,
          "durationTicks": 3,
          "midi": 53,
          "name": "F3",
          "ticks": 1451,
          "time": 16.872093023255815,
          "velocity": 0.2204724409448819
        },
        {
          "duration": 0.08139534883721211,
          "durationTicks": 7,
          "midi": 44,
          "name": "G#2",
          "ticks": 1453,
          "time": 16.8953488372093,
          "velocity": 0.2204724409448819
        },
        {
          "duration": 0.03488372093023173,
          "durationTicks": 3,
          "midi": 55,
          "name": "G3",
          "ticks": 1471,
          "time": 17.1046511627907,
          "velocity": 0.16535433070866143
        },
        {
          "duration": 0.1744186046511622,
          "durationTicks": 15,
          "midi": 62,
          "name": "D4",
          "ticks": 1471,
          "time": 17.1046511627907,
          "velocity": 0.2125984251968504
        },
        {
          "duration": 0.2093023255813975,
          "durationTicks": 18,
          "midi": 50,
          "name": "D3",
          "ticks": 1473,
          "time": 17.127906976744185,
          "velocity": 0.23622047244094488
        },
        {
          "duration": 0.4418604651162781,
          "durationTicks": 38,
          "midi": 60,
          "name": "C4",
          "ticks": 1491,
          "time": 17.337209302325583,
          "velocity": 0.28346456692913385
        },
        {
          "duration": 0.04651162790697683,
          "durationTicks": 4,
          "midi": 65,
          "name": "F4",
          "ticks": 1491,
          "time": 17.337209302325583,
          "velocity": 0.10236220472440945
        },
        {
          "duration": 0.3372093023255829,
          "durationTicks": 29,
          "midi": 48,
          "name": "C3",
          "ticks": 1500,
          "time": 17.441860465116278,
          "velocity": 0.2283464566929134
        },
        {
          "duration": 0.023255813953486637,
          "durationTicks": 2,
          "midi": 61,
          "name": "C#4",
          "ticks": 1529,
          "time": 17.77906976744186,
          "velocity": 0.23622047244094488
        },
        {
          "duration": 0.15116279069767202,
          "durationTicks": 13,
          "midi": 67,
          "name": "G4",
          "ticks": 1530,
          "time": 17.790697674418606,
          "velocity": 0.09448818897637795
        },
        {
          "duration": 0.26744186046511587,
          "durationTicks": 23,
          "midi": 60,
          "name": "C4",
          "ticks": 1531,
          "time": 17.802325581395348,
          "velocity": 0.2755905511811024
        },
        {
          "duration": 0.16279069767441712,
          "durationTicks": 14,
          "midi": 48,
          "name": "C3",
          "ticks": 1538,
          "time": 17.88372093023256,
          "velocity": 0.18110236220472442
        },
        {
          "duration": 0.08139534883720856,
          "durationTicks": 7,
          "midi": 55,
          "name": "G3",
          "ticks": 1572,
          "time": 18.27906976744186,
          "velocity": 0.2440944881889764
        },
        {
          "duration": 0.430232558139533,
          "durationTicks": 37,
          "midi": 59,
          "name": "B3",
          "ticks": 1572,
          "time": 18.27906976744186,
          "velocity": 0.2440944881889764
        },
        {
          "duration": 0.023255813953486637,
          "durationTicks": 2,
          "midi": 46,
          "name": "A#2",
          "ticks": 1573,
          "time": 18.290697674418606,
          "velocity": 0.2283464566929134
        },
        {
          "duration": 0.09302325581395365,
          "durationTicks": 8,
          "midi": 64,
          "name": "E4",
          "ticks": 1573,
          "time": 18.290697674418606,
          "velocity": 0.10236220472440945
        },
        {
          "duration": 0.3604651162790695,
          "durationTicks": 31,
          "midi": 47,
          "name": "B2",
          "ticks": 1578,
          "time": 18.348837209302324,
          "velocity": 0.18110236220472442
        },
        {
          "duration": 0.04651162790697683,
          "durationTicks": 4,
          "midi": 62,
          "name": "D4",
          "ticks": 1595,
          "time": 18.546511627906977,
          "velocity": 0.08661417322834646
        },
        {
          "duration": 0.2093023255813975,
          "durationTicks": 18,
          "midi": 59,
          "name": "B3",
          "ticks": 1613,
          "time": 18.75581395348837,
          "velocity": 0.1968503937007874
        },
        {
          "duration": 0.02325581395349019,
          "durationTicks": 2,
          "midi": 45,
          "name": "A2",
          "ticks": 1614,
          "time": 18.767441860465116,
          "velocity": 0.25196850393700787
        },
        {
          "duration": 0.03488372093023173,
          "durationTicks": 3,
          "midi": 47,
          "name": "B2",
          "ticks": 1619,
          "time": 18.825581395348838,
          "velocity": 0.15748031496062992
        },
        {
          "duration": 0.24418604651162568,
          "durationTicks": 21,
          "midi": 47,
          "name": "B2",
          "ticks": 1624,
          "time": 18.88372093023256,
          "velocity": 0.15748031496062992
        },
        {
          "duration": 0.05813953488371837,
          "durationTicks": 5,
          "midi": 45,
          "name": "A2",
          "ticks": 1647,
          "time": 19.151162790697676,
          "velocity": 0.25196850393700787
        },
        {
          "duration": 0.7093023255813975,
          "durationTicks": 61,
          "midi": 64,
          "name": "E4",
          "ticks": 1652,
          "time": 19.209302325581394,
          "velocity": 0.28346456692913385
        },
        {
          "duration": 0.05813953488372192,
          "durationTicks": 5,
          "midi": 44,
          "name": "G#2",
          "ticks": 1654,
          "time": 19.232558139534884,
          "velocity": 0.15748031496062992
        },
        {
          "duration": 0.430232558139533,
          "durationTicks": 37,
          "midi": 52,
          "name": "E3",
          "ticks": 1655,
          "time": 19.24418604651163,
          "velocity": 0.1889763779527559
        },
        {
          "duration": 0.03488372093023173,
          "durationTicks": 3,
          "midi": 53,
          "name": "F3",
          "ticks": 1692,
          "time": 19.674418604651162,
          "velocity": 0.13385826771653545
        },
        {
          "duration": 0.1976744186046524,
          "durationTicks": 17,
          "midi": 71,
          "name": "B4",
          "ticks": 1695,
          "time": 19.709302325581394,
          "velocity": 0.07874015748031496
        },
        {
          "duration": 0.10465116279069875,
          "durationTicks": 9,
          "midi": 52,
          "name": "E3",
          "ticks": 1703,
          "time": 19.802325581395348,
          "velocity": 0.2047244094488189
        },
        {
          "duration": 0.1744186046511622,
          "durationTicks": 15,
          "midi": 64,
          "name": "E4",
          "ticks": 1718,
          "time": 19.976744186046513,
          "velocity": 0.14173228346456693
        },
        {
          "duration": 0.11627906976744384,
          "durationTicks": 10,
          "midi": 52,
          "name": "E3",
          "ticks": 1722,
          "time": 20.023255813953487,
          "velocity": 0.08661417322834646
        },
        {
          "duration": 0.1744186046511622,
          "durationTicks": 15,
          "midi": 64,
          "name": "E4",
          "ticks": 1735,
          "time": 20.174418604651162,
          "velocity": 0.2283464566929134
        },
        {
          "duration": 0.06976744186046702,
          "durationTicks": 6,
          "midi": 54,
          "name": "F#3",
          "ticks": 1738,
          "time": 20.209302325581394,
          "velocity": 0.2440944881889764
        },
        {
          "duration": 0.05813953488371837,
          "durationTicks": 5,
          "midi": 83,
          "name": "B5",
          "ticks": 1741,
          "time": 20.24418604651163,
          "velocity": 0.07086614173228346
        },
        {
          "duration": 0.11627906976744384,
          "durationTicks": 10,
          "midi": 52,
          "name": "E3",
          "ticks": 1765,
          "time": 20.523255813953487,
          "velocity": 0.16535433070866143
        },
        {
          "duration": 0.12790697674418894,
          "durationTicks": 11,
          "midi": 64,
          "name": "E4",
          "ticks": 1765,
          "time": 20.523255813953487,
          "velocity": 0.23622047244094488
        },
        {
          "duration": 0.20930232558139394,
          "durationTicks": 18,
          "midi": 50,
          "name": "D3",
          "ticks": 1798,
          "time": 20.906976744186046,
          "velocity": 0.15748031496062992
        },
        {
          "duration": 0.09302325581395365,
          "durationTicks": 8,
          "midi": 62,
          "name": "D4",
          "ticks": 1798,
          "time": 20.906976744186046,
          "velocity": 0.1968503937007874
        },
        {
          "duration": 0.20930232558139394,
          "durationTicks": 18,
          "midi": 76,
          "name": "E5",
          "ticks": 1798,
          "time": 20.906976744186046,
          "velocity": 0.09448818897637795
        },
        {
          "duration": 0.06976744186046702,
          "durationTicks": 6,
          "midi": 64,
          "name": "E4",
          "ticks": 1808,
          "time": 21.023255813953487,
          "velocity": 0.1889763779527559
        },
        {
          "duration": 0.04651162790697683,
          "durationTicks": 4,
          "midi": 64,
          "name": "E4",
          "ticks": 1815,
          "time": 21.1046511627907,
          "velocity": 0.1732283464566929
        },
        {
          "duration": 0.05813953488372192,
          "durationTicks": 5,
          "midi": 55,
          "name": "G3",
          "ticks": 1816,
          "time": 21.11627906976744,
          "velocity": 0.2677165354330709
        },
        {
          "duration": 0.7558139534883708,
          "durationTicks": 65,
          "midi": 60,
          "name": "C4",
          "ticks": 1818,
          "time": 21.13953488372093,
          "velocity": 0.29133858267716534
        },
        {
          "duration": 0.41860465116279144,
          "durationTicks": 36,
          "midi": 64,
          "name": "E4",
          "ticks": 1820,
          "time": 21.162790697674417,
          "velocity": 0.15748031496062992
        },
        {
          "duration": 0.39534883720930125,
          "durationTicks": 34,
          "midi": 48,
          "name": "C3",
          "ticks": 1823,
          "time": 21.197674418604652,
          "velocity": 0.2440944881889764
        },
        {
          "duration": 0.3604651162790695,
          "durationTicks": 31,
          "midi": 67,
          "name": "G4",
          "ticks": 1825,
          "time": 21.22093023255814,
          "velocity": 0.07874015748031496
        },
        {
          "duration": 0.023255813953486637,
          "durationTicks": 2,
          "midi": 53,
          "name": "F3",
          "ticks": 1858,
          "time": 21.6046511627907,
          "velocity": 0.23622047244094488
        },
        {
          "duration": 0.2093023255813975,
          "durationTicks": 18,
          "midi": 48,
          "name": "C3",
          "ticks": 1863,
          "time": 21.662790697674417,
          "velocity": 0.25196850393700787
        },
        {
          "duration": 0.1860465116279073,
          "durationTicks": 16,
          "midi": 67,
          "name": "G4",
          "ticks": 1864,
          "time": 21.674418604651162,
          "velocity": 0.07874015748031496
        },
        {
          "duration": 0.023255813953486637,
          "durationTicks": 2,
          "midi": 45,
          "name": "A2",
          "ticks": 1901,
          "time": 22.1046511627907,
          "velocity": 0.2677165354330709
        },
        {
          "duration": 0.3720930232558146,
          "durationTicks": 32,
          "midi": 59,
          "name": "B3",
          "ticks": 1901,
          "time": 22.1046511627907,
          "velocity": 0.2283464566929134
        },
        {
          "duration": 0.3720930232558146,
          "durationTicks": 32,
          "midi": 47,
          "name": "B2",
          "ticks": 1907,
          "time": 22.174418604651162,
          "velocity": 0.1968503937007874
        },
        {
          "duration": 0.1860465116279073,
          "durationTicks": 16,
          "midi": 64,
          "name": "E4",
          "ticks": 1924,
          "time": 22.372093023255815,
          "velocity": 0.12598425196850394
        },
        {
          "duration": 0.023255813953486637,
          "durationTicks": 2,
          "midi": 55,
          "name": "G3",
          "ticks": 1939,
          "time": 22.546511627906977,
          "velocity": 0.2283464566929134
        },
        {
          "duration": 0.22093023255813904,
          "durationTicks": 19,
          "midi": 59,
          "name": "B3",
          "ticks": 1942,
          "time": 22.58139534883721,
          "velocity": 0.2204724409448819
        },
        {
          "duration": 0.023255813953486637,
          "durationTicks": 2,
          "midi": 45,
          "name": "A2",
          "ticks": 1943,
          "time": 22.593023255813954,
          "velocity": 0.29133858267716534
        },
        {
          "duration": 0.03488372093023173,
          "durationTicks": 3,
          "midi": 55,
          "name": "G3",
          "ticks": 1943,
          "time": 22.593023255813954,
          "velocity": 0.1968503937007874
        },
        {
          "duration": 0.1860465116279073,
          "durationTicks": 16,
          "midi": 64,
          "name": "E4",
          "ticks": 1944,
          "time": 22.6046511627907,
          "velocity": 0.14960629921259844
        },
        {
          "duration": 0.1976744186046524,
          "durationTicks": 17,
          "midi": 47,
          "name": "B2",
          "ticks": 1951,
          "time": 22.686046511627907,
          "velocity": 0.16535433070866143
        },
        {
          "duration": 0.09302325581395365,
          "durationTicks": 8,
          "midi": 45,
          "name": "A2",
          "ticks": 1970,
          "time": 22.906976744186046,
          "velocity": 0.13385826771653545
        },
        {
          "duration": 0.348837209302328,
          "durationTicks": 30,
          "midi": 64,
          "name": "E4",
          "ticks": 1981,
          "time": 23.03488372093023,
          "velocity": 0.25196850393700787
        },
        {
          "duration": 0.29069767441860606,
          "durationTicks": 25,
          "midi": 71,
          "name": "B4",
          "ticks": 1981,
          "time": 23.03488372093023,
          "velocity": 0.12598425196850394
        },
        {
          "duration": 0.41860465116279144,
          "durationTicks": 36,
          "midi": 52,
          "name": "E3",
          "ticks": 1984,
          "time": 23.069767441860463,
          "velocity": 0.28346456692913385
        },
        {
          "duration": 0.03488372093023173,
          "durationTicks": 3,
          "midi": 44,
          "name": "G#2",
          "ticks": 2021,
          "time": 23.5,
          "velocity": 0.2440944881889764
        },
        {
          "duration": 0.430232558139533,
          "durationTicks": 37,
          "midi": 64,
          "name": "E4",
          "ticks": 2022,
          "time": 23.511627906976745,
          "velocity": 0.2440944881889764
        },
        {
          "duration": 0.4069767441860499,
          "durationTicks": 35,
          "midi": 71,
          "name": "B4",
          "ticks": 2023,
          "time": 23.523255813953487,
          "velocity": 0.07874015748031496
        },
        {
          "duration": 0.3488372093023244,
          "durationTicks": 30,
          "midi": 52,
          "name": "E3",
          "ticks": 2029,
          "time": 23.593023255813954,
          "velocity": 0.2755905511811024
        },
        {
          "duration": 0.19767441860464885,
          "durationTicks": 17,
          "midi": 55,
          "name": "G3",
          "ticks": 2061,
          "time": 23.96511627906977,
          "velocity": 0.4251968503937008
        },
        {
          "duration": 0.03488372093023173,
          "durationTicks": 3,
          "midi": 64,
          "name": "E4",
          "ticks": 2062,
          "time": 23.976744186046513,
          "velocity": 0.11811023622047244
        },
        {
          "duration": 0.03488372093023173,
          "durationTicks": 3,
          "midi": 69,
          "name": "A4",
          "ticks": 2063,
          "time": 23.988372093023255,
          "velocity": 0.11811023622047244
        },
        {
          "duration": 0.05813953488372192,
          "durationTicks": 5,
          "midi": 55,
          "name": "G3",
          "ticks": 2092,
          "time": 24.325581395348838,
          "velocity": 0.29133858267716534
        },
        {
          "duration": 0.04651162790697683,
          "durationTicks": 4,
          "midi": 45,
          "name": "A2",
          "ticks": 2093,
          "time": 24.337209302325583,
          "velocity": 0.23622047244094488
        },
        {
          "duration": 0.1046511627906952,
          "durationTicks": 9,
          "midi": 64,
          "name": "E4",
          "ticks": 2093,
          "time": 24.337209302325583,
          "velocity": 0.2125984251968504
        },
        {
          "duration": 0.04651162790697683,
          "durationTicks": 4,
          "midi": 65,
          "name": "F4",
          "ticks": 2102,
          "time": 24.441860465116278,
          "velocity": 0.14173228346456693
        },
        {
          "duration": 0.03488372093023173,
          "durationTicks": 3,
          "midi": 45,
          "name": "A2",
          "ticks": 2105,
          "time": 24.476744186046513,
          "velocity": 0.25196850393700787
        },
        {
          "duration": 0.19767441860464885,
          "durationTicks": 17,
          "midi": 62,
          "name": "D4",
          "ticks": 2124,
          "time": 24.697674418604652,
          "velocity": 0.2440944881889764
        },
        {
          "duration": 0.1976744186046524,
          "durationTicks": 17,
          "midi": 50,
          "name": "D3",
          "ticks": 2125,
          "time": 24.709302325581394,
          "velocity": 0.2283464566929134
        },
        {
          "duration": 0.4767441860465098,
          "durationTicks": 41,
          "midi": 60,
          "name": "C4",
          "ticks": 2144,
          "time": 24.930232558139537,
          "velocity": 0.30708661417322836
        },
        {
          "duration": 0.03488372093023173,
          "durationTicks": 3,
          "midi": 68,
          "name": "G#4",
          "ticks": 2144,
          "time": 24.930232558139537,
          "velocity": 0.14173228346456693
        },
        {
          "duration": 0.430232558139533,
          "durationTicks": 37,
          "midi": 67,
          "name": "G4",
          "ticks": 2147,
          "time": 24.96511627906977,
          "velocity": 0.13385826771653545
        },
        {
          "duration": 0.3720930232558146,
          "durationTicks": 32,
          "midi": 48,
          "name": "C3",
          "ticks": 2152,
          "time": 25.023255813953487,
          "velocity": 0.2047244094488189
        },
        {
          "duration": 0.04651162790697683,
          "durationTicks": 4,
          "midi": 56,
          "name": "G#3",
          "ticks": 2184,
          "time": 25.3953488372093,
          "velocity": 0.12598425196850394
        },
        {
          "duration": 0.46511627906976827,
          "durationTicks": 40,
          "midi": 64,
          "name": "E4",
          "ticks": 2184,
          "time": 25.3953488372093,
          "velocity": 0.2204724409448819
        },
        {
          "duration": 0.02325581395349019,
          "durationTicks": 2,
          "midi": 61,
          "name": "C#4",
          "ticks": 2185,
          "time": 25.406976744186046,
          "velocity": 0.2283464566929134
        },
        {
          "duration": 0.3023255813953476,
          "durationTicks": 26,
          "midi": 60,
          "name": "C4",
          "ticks": 2187,
          "time": 25.430232558139537,
          "velocity": 0.29133858267716534
        },
        {
          "duration": 0.15116279069767202,
          "durationTicks": 13,
          "midi": 67,
          "name": "G4",
          "ticks": 2187,
          "time": 25.430232558139537,
          "velocity": 0.10236220472440945
        },
        {
          "duration": 0.23255813953488058,
          "durationTicks": 20,
          "midi": 48,
          "name": "C3",
          "ticks": 2191,
          "time": 25.476744186046513,
          "velocity": 0.1968503937007874
        },
        {
          "duration": 0.05813953488372192,
          "durationTicks": 5,
          "midi": 44,
          "name": "G#2",
          "ticks": 2225,
          "time": 25.872093023255815,
          "velocity": 0.3464566929133858
        },
        {
          "duration": 0.4418604651162781,
          "durationTicks": 38,
          "midi": 59,
          "name": "B3",
          "ticks": 2226,
          "time": 25.88372093023256,
          "velocity": 0.14173228346456693
        },
        {
          "duration": 0.16279069767441712,
          "durationTicks": 14,
          "midi": 64,
          "name": "E4",
          "ticks": 2228,
          "time": 25.906976744186046,
          "velocity": 0.11023622047244094
        },
        {
          "duration": 0.05813953488371837,
          "durationTicks": 5,
          "midi": 55,
          "name": "G3",
          "ticks": 2265,
          "time": 26.337209302325583,
          "velocity": 0.2440944881889764
        },
        {
          "duration": 0.3488372093023244,
          "durationTicks": 30,
          "midi": 59,
          "name": "B3",
          "ticks": 2269,
          "time": 26.38372093023256,
          "velocity": 0.1732283464566929
        },
        {
          "duration": 0.04651162790697683,
          "durationTicks": 4,
          "midi": 55,
          "name": "G3",
          "ticks": 2272,
          "time": 26.41860465116279,
          "velocity": 0.14173228346456693
        },
        {
          "duration": 0.24418604651162568,
          "durationTicks": 21,
          "midi": 47,
          "name": "B2",
          "ticks": 2277,
          "time": 26.476744186046513,
          "velocity": 0.11023622047244094
        },
        {
          "duration": 0.04651162790697683,
          "durationTicks": 4,
          "midi": 45,
          "name": "A2",
          "ticks": 2300,
          "time": 26.74418604651163,
          "velocity": 0.16535433070866143
        },
        {
          "duration": 0.04651162790697683,
          "durationTicks": 4,
          "midi": 44,
          "name": "G#2",
          "ticks": 2306,
          "time": 26.813953488372093,
          "velocity": 0.30708661417322836
        },
        {
          "duration": 0.4651162790697647,
          "durationTicks": 40,
          "midi": 64,
          "name": "E4",
          "ticks": 2308,
          "time": 26.837209302325583,
          "velocity": 0.25196850393700787
        },
        {
          "duration": 0.39534883720930125,
          "durationTicks": 34,
          "midi": 52,
          "name": "E3",
          "ticks": 2312,
          "time": 26.88372093023256,
          "velocity": 0.2677165354330709
        },
        {
          "duration": 0.023255813953486637,
          "durationTicks": 2,
          "midi": 44,
          "name": "G#2",
          "ticks": 2347,
          "time": 27.290697674418606,
          "velocity": 0.2283464566929134
        },
        {
          "duration": 0.09302325581395365,
          "durationTicks": 8,
          "midi": 44,
          "name": "G#2",
          "ticks": 2350,
          "time": 27.325581395348838,
          "velocity": 0.2047244094488189
        },
        {
          "duration": 0.19767441860464885,
          "durationTicks": 17,
          "midi": 64,
          "name": "E4",
          "ticks": 2350,
          "time": 27.325581395348838,
          "velocity": 0.29133858267716534
        },
        {
          "duration": 0.1744186046511622,
          "durationTicks": 15,
          "midi": 52,
          "name": "E3",
          "ticks": 2351,
          "time": 27.337209302325583,
          "velocity": 0.2755905511811024
        },
        {
          "duration": 0.09302325581395365,
          "durationTicks": 8,
          "midi": 83,
          "name": "B5",
          "ticks": 2351,
          "time": 27.337209302325583,
          "velocity": 0.07874015748031496
        },
        {
          "duration": 0.05813953488372192,
          "durationTicks": 5,
          "midi": 71,
          "name": "B4",
          "ticks": 2361,
          "time": 27.453488372093023,
          "velocity": 0.07086614173228346
        },
        {
          "duration": 0.13953488372093048,
          "durationTicks": 12,
          "midi": 64,
          "name": "E4",
          "ticks": 2370,
          "time": 27.558139534883722,
          "velocity": 0.11023622047244094
        },
        {
          "duration": 0.13953488372093048,
          "durationTicks": 12,
          "midi": 52,
          "name": "E3",
          "ticks": 2372,
          "time": 27.58139534883721,
          "velocity": 0.08661417322834646
        },
        {
          "duration": 0.04651162790697683,
          "durationTicks": 4,
          "midi": 44,
          "name": "G#2",
          "ticks": 2388,
          "time": 27.767441860465116,
          "velocity": 0.14960629921259844
        },
        {
          "duration": 0.02325581395349019,
          "durationTicks": 2,
          "midi": 54,
          "name": "F#3",
          "ticks": 2388,
          "time": 27.767441860465116,
          "velocity": 0.3464566929133858
        },
        {
          "duration": 0.16279069767441712,
          "durationTicks": 14,
          "midi": 64,
          "name": "E4",
          "ticks": 2389,
          "time": 27.77906976744186,
          "velocity": 0.11811023622047244
        },
        {
          "duration": 0.19767441860464885,
          "durationTicks": 17,
          "midi": 55,
          "name": "G3",
          "ticks": 2390,
          "time": 27.790697674418606,
          "velocity": 0.4566929133858268
        },
        {
          "duration": 0.12790697674418539,
          "durationTicks": 11,
          "midi": 52,
          "name": "E3",
          "ticks": 2417,
          "time": 28.1046511627907,
          "velocity": 0.2125984251968504
        },
        {
          "duration": 0.16279069767441712,
          "durationTicks": 14,
          "midi": 64,
          "name": "E4",
          "ticks": 2417,
          "time": 28.1046511627907,
          "velocity": 0.2677165354330709
        },
        {
          "duration": 0.10465116279069875,
          "durationTicks": 9,
          "midi": 44,
          "name": "G#2",
          "ticks": 2430,
          "time": 28.25581395348837,
          "velocity": 0.2440944881889764
        },
        {
          "duration": 0.04651162790697683,
          "durationTicks": 4,
          "midi": 52,
          "name": "E3",
          "ticks": 2436,
          "time": 28.325581395348838,
          "velocity": 0.10236220472440945
        },
        {
          "duration": 0.05813953488371837,
          "durationTicks": 5,
          "midi": 64,
          "name": "E4",
          "ticks": 2448,
          "time": 28.46511627906977,
          "velocity": 0.2440944881889764
        },
        {
          "duration": 0.22093023255813904,
          "durationTicks": 19,
          "midi": 50,
          "name": "D3",
          "ticks": 2451,
          "time": 28.5,
          "velocity": 0.2047244094488189
        },
        {
          "duration": 0.09302325581395365,
          "durationTicks": 8,
          "midi": 62,
          "name": "D4",
          "ticks": 2452,
          "time": 28.511627906976745,
          "velocity": 0.2755905511811024
        },
        {
          "duration": 0.03488372093023173,
          "durationTicks": 3,
          "midi": 64,
          "name": "E4",
          "ticks": 2459,
          "time": 28.593023255813954,
          "velocity": 0.25196850393700787
        },
        {
          "duration": 0.06976744186046702,
          "durationTicks": 6,
          "midi": 62,
          "name": "D4",
          "ticks": 2461,
          "time": 28.61627906976744,
          "velocity": 0.2440944881889764
        },
        {
          "duration": 0.5116279069767451,
          "durationTicks": 44,
          "midi": 64,
          "name": "E4",
          "ticks": 2466,
          "time": 28.674418604651162,
          "velocity": 0.1732283464566929
        },
        {
          "duration": 0.7674418604651159,
          "durationTicks": 66,
          "midi": 60,
          "name": "C4",
          "ticks": 2471,
          "time": 28.732558139534884,
          "velocity": 0.25196850393700787
        },
        {
          "duration": 0.023255813953486637,
          "durationTicks": 2,
          "midi": 45,
          "name": "A2",
          "ticks": 2472,
          "time": 28.74418604651163,
          "velocity": 0.29133858267716534
        },
        {
          "duration": 0.3837209302325597,
          "durationTicks": 33,
          "midi": 48,
          "name": "C3",
          "ticks": 2477,
          "time": 28.802325581395348,
          "velocity": 0.2047244094488189
        },
        {
          "duration": 0.03488372093023173,
          "durationTicks": 3,
          "midi": 55,
          "name": "G3",
          "ticks": 2510,
          "time": 29.186046511627907,
          "velocity": 0.11811023622047244
        },
        {
          "duration": 0.12790697674418539,
          "durationTicks": 11,
          "midi": 64,
          "name": "E4",
          "ticks": 2511,
          "time": 29.197674418604652,
          "velocity": 0.13385826771653545
        },
        {
          "duration": 0.2209302325581426,
          "durationTicks": 19,
          "midi": 48,
          "name": "C3",
          "ticks": 2516,
          "time": 29.25581395348837,
          "velocity": 0.1889763779527559
        },
        {
          "duration": 0.10465116279069875,
          "durationTicks": 9,
          "midi": 55,
          "name": "G3",
          "ticks": 2516,
          "time": 29.25581395348837,
          "velocity": 0.14173228346456693
        },
        {
          "duration": 0.034883720930235285,
          "durationTicks": 3,
          "midi": 44,
          "name": "G#2",
          "ticks": 2551,
          "time": 29.662790697674417,
          "velocity": 0.2677165354330709
        },
        {
          "duration": 0.6046511627906987,
          "durationTicks": 52,
          "midi": 59,
          "name": "B3",
          "ticks": 2553,
          "time": 29.686046511627907,
          "velocity": 0.2283464566929134
        },
        {
          "duration": 0.1744186046511622,
          "durationTicks": 15,
          "midi": 64,
          "name": "E4",
          "ticks": 2553,
          "time": 29.686046511627907,
          "velocity": 0.15748031496062992
        },
        {
          "duration": 0.33720930232557933,
          "durationTicks": 29,
          "midi": 47,
          "name": "B2",
          "ticks": 2561,
          "time": 29.77906976744186,
          "velocity": 0.1889763779527559
        },
        {
          "duration": 0.1860465116279073,
          "durationTicks": 16,
          "midi": 64,
          "name": "E4",
          "ticks": 2573,
          "time": 29.91860465116279,
          "velocity": 0.13385826771653545
        },
        {
          "duration": 0.1046511627906952,
          "durationTicks": 9,
          "midi": 64,
          "name": "E4",
          "ticks": 2593,
          "time": 30.151162790697676,
          "velocity": 0.2125984251968504
        },
        {
          "duration": 0.03488372093023173,
          "durationTicks": 3,
          "midi": 47,
          "name": "B2",
          "ticks": 2599,
          "time": 30.22093023255814,
          "velocity": 0.1732283464566929
        },
        {
          "duration": 0.03488372093023173,
          "durationTicks": 3,
          "midi": 64,
          "name": "E4",
          "ticks": 2603,
          "time": 30.267441860465116,
          "velocity": 0.12598425196850394
        },
        {
          "duration": 0.26744186046511587,
          "durationTicks": 23,
          "midi": 45,
          "name": "A2",
          "ticks": 2605,
          "time": 30.290697674418606,
          "velocity": 0.10236220472440945
        },
        {
          "duration": 0.05813953488372192,
          "durationTicks": 5,
          "midi": 55,
          "name": "G3",
          "ticks": 2626,
          "time": 30.53488372093023,
          "velocity": 0.09448818897637795
        },
        {
          "duration": 0.03488372093023173,
          "durationTicks": 3,
          "midi": 45,
          "name": "A2",
          "ticks": 2632,
          "time": 30.6046511627907,
          "velocity": 0.28346456692913385
        },
        {
          "duration": 0.1860465116279073,
          "durationTicks": 16,
          "midi": 71,
          "name": "B4",
          "ticks": 2633,
          "time": 30.61627906976744,
          "velocity": 0.18110236220472442
        },
        {
          "duration": 0.02325581395349019,
          "durationTicks": 2,
          "midi": 53,
          "name": "F3",
          "ticks": 2634,
          "time": 30.627906976744185,
          "velocity": 0.31496062992125984
        },
        {
          "duration": 0.8720930232558146,
          "durationTicks": 75,
          "midi": 64,
          "name": "E4",
          "ticks": 2634,
          "time": 30.627906976744185,
          "velocity": 0.31496062992125984
        },
        {
          "duration": 0.05813953488372192,
          "durationTicks": 5,
          "midi": 44,
          "name": "G#2",
          "ticks": 2635,
          "time": 30.63953488372093,
          "velocity": 0.2204724409448819
        },
        {
          "duration": 0.40697674418604635,
          "durationTicks": 35,
          "midi": 52,
          "name": "E3",
          "ticks": 2636,
          "time": 30.651162790697676,
          "velocity": 0.31496062992125984
        },
        {
          "duration": 0.034883720930235285,
          "durationTicks": 3,
          "midi": 45,
          "name": "A2",
          "ticks": 2672,
          "time": 31.069767441860463,
          "velocity": 0.1732283464566929
        },
        {
          "duration": 0.023255813953486637,
          "durationTicks": 2,
          "midi": 53,
          "name": "F3",
          "ticks": 2674,
          "time": 31.093023255813954,
          "velocity": 0.31496062992125984
        },
        {
          "duration": 0.31395348837209625,
          "durationTicks": 27,
          "midi": 52,
          "name": "E3",
          "ticks": 2676,
          "time": 31.11627906976744,
          "velocity": 0.31496062992125984
        },
        {
          "duration": 0.24418604651162923,
          "durationTicks": 21,
          "midi": 55,
          "name": "G3",
          "ticks": 2711,
          "time": 31.523255813953487,
          "velocity": 0.4566929133858268
        },
        {
          "duration": 0.05813953488371837,
          "durationTicks": 5,
          "midi": 44,
          "name": "G#2",
          "ticks": 2714,
          "time": 31.558139534883722,
          "velocity": 0.18110236220472442
        },
        {
          "duration": 0.023255813953486637,
          "durationTicks": 2,
          "midi": 52,
          "name": "E3",
          "ticks": 2741,
          "time": 31.872093023255815,
          "velocity": 0.2440944881889764
        },
        {
          "duration": 0.11627906976744384,
          "durationTicks": 10,
          "midi": 52,
          "name": "E3",
          "ticks": 2744,
          "time": 31.906976744186046,
          "velocity": 0.2440944881889764
        },
        {
          "duration": 0.1046511627906952,
          "durationTicks": 9,
          "midi": 67,
          "name": "G4",
          "ticks": 2744,
          "time": 31.906976744186046,
          "velocity": 0.12598425196850394
        },
        {
          "duration": 0.02325581395349019,
          "durationTicks": 2,
          "midi": 45,
          "name": "A2",
          "ticks": 2753,
          "time": 32.01162790697674,
          "velocity": 0.25984251968503935
        },
        {
          "duration": 0.1046511627906952,
          "durationTicks": 9,
          "midi": 44,
          "name": "G#2",
          "ticks": 2755,
          "time": 32.03488372093023,
          "velocity": 0.25196850393700787
        },
        {
          "duration": 0.19767441860465595,
          "durationTicks": 17,
          "midi": 62,
          "name": "D4",
          "ticks": 2772,
          "time": 32.23255813953488,
          "velocity": 0.25196850393700787
        },
        {
          "duration": 0.25581395348837077,
          "durationTicks": 22,
          "midi": 50,
          "name": "D3",
          "ticks": 2773,
          "time": 32.24418604651163,
          "velocity": 0.2283464566929134
        },
        {
          "duration": 0.2674418604651194,
          "durationTicks": 23,
          "midi": 64,
          "name": "E4",
          "ticks": 2788,
          "time": 32.41860465116279,
          "velocity": 0.1968503937007874
        },
        {
          "duration": 0.4534883720930196,
          "durationTicks": 39,
          "midi": 60,
          "name": "C4",
          "ticks": 2794,
          "time": 32.48837209302326,
          "velocity": 0.2125984251968504
        },
        {
          "duration": 0.36046511627906597,
          "durationTicks": 31,
          "midi": 48,
          "name": "C3",
          "ticks": 2802,
          "time": 32.58139534883721,
          "velocity": 0.13385826771653545
        },
        {
          "duration": 0.22093023255813904,
          "durationTicks": 19,
          "midi": 64,
          "name": "E4",
          "ticks": 2814,
          "time": 32.72093023255814,
          "velocity": 0.14960629921259844
        },
        {
          "duration": 0.03488372093023173,
          "durationTicks": 3,
          "midi": 44,
          "name": "G#2",
          "ticks": 2834,
          "time": 32.95348837209303,
          "velocity": 0.33070866141732286
        },
        {
          "duration": 0.17441860465115866,
          "durationTicks": 15,
          "midi": 64,
          "name": "E4",
          "ticks": 2837,
          "time": 32.98837209302326,
          "velocity": 0.12598425196850394
        },
        {
          "duration": 0.02325581395349019,
          "durationTicks": 2,
          "midi": 44,
          "name": "G#2",
          "ticks": 2838,
          "time": 33,
          "velocity": 0.23622047244094488
        },
        {
          "duration": 0.3372093023255829,
          "durationTicks": 29,
          "midi": 60,
          "name": "C4",
          "ticks": 2841,
          "time": 33.03488372093023,
          "velocity": 0.11811023622047244
        },
        {
          "duration": 0.2906976744186025,
          "durationTicks": 25,
          "midi": 48,
          "name": "C3",
          "ticks": 2846,
          "time": 33.093023255813954,
          "velocity": 0.14960629921259844
        },
        {
          "duration": 0.12790697674418539,
          "durationTicks": 11,
          "midi": 76,
          "name": "E5",
          "ticks": 2854,
          "time": 33.18604651162791,
          "velocity": 0.07086614173228346
        },
        {
          "duration": 0.03488372093023173,
          "durationTicks": 3,
          "midi": 55,
          "name": "G3",
          "ticks": 2875,
          "time": 33.43023255813954,
          "velocity": 0.13385826771653545
        },
        {
          "duration": 0.46511627906976827,
          "durationTicks": 40,
          "midi": 59,
          "name": "B3",
          "ticks": 2875,
          "time": 33.43023255813954,
          "velocity": 0.2125984251968504
        },
        {
          "duration": 0.3953488372092977,
          "durationTicks": 34,
          "midi": 47,
          "name": "B2",
          "ticks": 2880,
          "time": 33.48837209302326,
          "velocity": 0.15748031496062992
        },
        {
          "duration": 0.2093023255813975,
          "durationTicks": 18,
          "midi": 63,
          "name": "D#4",
          "ticks": 2881,
          "time": 33.5,
          "velocity": 0.07874015748031496
        },
        {
          "duration": 0.1046511627906952,
          "durationTicks": 9,
          "midi": 75,
          "name": "D#5",
          "ticks": 2905,
          "time": 33.77906976744186,
          "velocity": 0.07086614173228346
        },
        {
          "duration": 0.04651162790698038,
          "durationTicks": 4,
          "midi": 45,
          "name": "A2",
          "ticks": 2916,
          "time": 33.906976744186046,
          "velocity": 0.3464566929133858
        },
        {
          "duration": 0.04651162790698038,
          "durationTicks": 4,
          "midi": 47,
          "name": "B2",
          "ticks": 2927,
          "time": 34.03488372093023,
          "velocity": 0.11811023622047244
        },
        {
          "duration": 0.23255813953488058,
          "durationTicks": 20,
          "midi": 45,
          "name": "A2",
          "ticks": 2934,
          "time": 34.116279069767444,
          "velocity": 0.13385826771653545
        },
        {
          "duration": 0.2325581395348877,
          "durationTicks": 20,
          "midi": 64,
          "name": "E4",
          "ticks": 2936,
          "time": 34.13953488372093,
          "velocity": 0.2125984251968504
        },
        {
          "duration": 0.02325581395349019,
          "durationTicks": 2,
          "midi": 53,
          "name": "F3",
          "ticks": 2956,
          "time": 34.372093023255815,
          "velocity": 0.29133858267716534
        },
        {
          "duration": 0.2906976744186025,
          "durationTicks": 25,
          "midi": 71,
          "name": "B4",
          "ticks": 2956,
          "time": 34.372093023255815,
          "velocity": 0.08661417322834646
        },
        {
          "duration": 0.03488372093023173,
          "durationTicks": 3,
          "midi": 44,
          "name": "G#2",
          "ticks": 2958,
          "time": 34.395348837209305,
          "velocity": 0.1889763779527559
        },
        {
          "duration": 0.43023255813952943,
          "durationTicks": 37,
          "midi": 52,
          "name": "E3",
          "ticks": 2958,
          "time": 34.395348837209305,
          "velocity": 0.25196850393700787
        },
        {
          "duration": 0.06976744186046346,
          "durationTicks": 6,
          "midi": 64,
          "name": "E4",
          "ticks": 2997,
          "time": 34.848837209302324,
          "velocity": 0.11811023622047244
        },
        {
          "duration": 0.046511627906973274,
          "durationTicks": 4,
          "midi": 45,
          "name": "A2",
          "ticks": 2999,
          "time": 34.872093023255815,
          "velocity": 0.12598425196850394
        },
        {
          "duration": 0.06976744186046346,
          "durationTicks": 6,
          "midi": 52,
          "name": "E3",
          "ticks": 2999,
          "time": 34.872093023255815,
          "velocity": 0.2755905511811024
        },
        {
          "duration": 0.25581395348837077,
          "durationTicks": 22,
          "midi": 64,
          "name": "E4",
          "ticks": 3017,
          "time": 35.08139534883721,
          "velocity": 0.2047244094488189
        },
        {
          "duration": 0.24418604651162923,
          "durationTicks": 21,
          "midi": 52,
          "name": "E3",
          "ticks": 3018,
          "time": 35.093023255813954,
          "velocity": 0.2283464566929134
        },
        {
          "duration": 0.03488372093023173,
          "durationTicks": 3,
          "midi": 65,
          "name": "F4",
          "ticks": 3039,
          "time": 35.33720930232558,
          "velocity": 0.1732283464566929
        },
        {
          "duration": 0.03488372093023173,
          "durationTicks": 3,
          "midi": 45,
          "name": "A2",
          "ticks": 3040,
          "time": 35.348837209302324,
          "velocity": 0.25984251968503935
        },
        {
          "duration": 0.12790697674418539,
          "durationTicks": 11,
          "midi": 60,
          "name": "C4",
          "ticks": 3040,
          "time": 35.348837209302324,
          "velocity": 0.2677165354330709
        },
        {
          "duration": 0.023255813953483084,
          "durationTicks": 2,
          "midi": 54,
          "name": "F#3",
          "ticks": 3041,
          "time": 35.36046511627907,
          "velocity": 0.2992125984251969
        },
        {
          "duration": 0.12790697674418539,
          "durationTicks": 11,
          "midi": 55,
          "name": "G3",
          "ticks": 3043,
          "time": 35.383720930232556,
          "velocity": 0.3700787401574803
        },
        {
          "duration": 0.03488372093023173,
          "durationTicks": 3,
          "midi": 57,
          "name": "A3",
          "ticks": 3069,
          "time": 35.68604651162791,
          "velocity": 0.1968503937007874
        },
        {
          "duration": 0.02325581395349019,
          "durationTicks": 2,
          "midi": 65,
          "name": "F4",
          "ticks": 3070,
          "time": 35.69767441860465,
          "velocity": 0.2440944881889764
        },
        {
          "duration": 0.1046511627906952,
          "durationTicks": 9,
          "midi": 52,
          "name": "E3",
          "ticks": 3071,
          "time": 35.7093023255814,
          "velocity": 0.3228346456692913
        },
        {
          "duration": 0.1046511627906952,
          "durationTicks": 9,
          "midi": 71,
          "name": "B4",
          "ticks": 3071,
          "time": 35.7093023255814,
          "velocity": 0.13385826771653545
        },
        {
          "duration": 0.04651162790698038,
          "durationTicks": 4,
          "midi": 45,
          "name": "A2",
          "ticks": 3072,
          "time": 35.72093023255814,
          "velocity": 0.25984251968503935
        },
        {
          "duration": 0.046511627906973274,
          "durationTicks": 4,
          "midi": 44,
          "name": "G#2",
          "ticks": 3076,
          "time": 35.76744186046512,
          "velocity": 0.10236220472440945
        },
        {
          "duration": 0.02325581395349019,
          "durationTicks": 2,
          "midi": 52,
          "name": "E3",
          "ticks": 3083,
          "time": 35.848837209302324,
          "velocity": 0.3228346456692913
        },
        {
          "duration": 0.03488372093023173,
          "durationTicks": 3,
          "midi": 44,
          "name": "G#2",
          "ticks": 3086,
          "time": 35.883720930232556,
          "velocity": 0.11023622047244094
        },
        {
          "duration": 0.05813953488372192,
          "durationTicks": 5,
          "midi": 55,
          "name": "G3",
          "ticks": 3098,
          "time": 36.02325581395349,
          "velocity": 0.29133858267716534
        },
        {
          "duration": 0.08139534883721211,
          "durationTicks": 7,
          "midi": 44,
          "name": "G#2",
          "ticks": 3102,
          "time": 36.06976744186046,
          "velocity": 0.2283464566929134
        },
        {
          "duration": 0.15116279069767558,
          "durationTicks": 13,
          "midi": 62,
          "name": "D4",
          "ticks": 3102,
          "time": 36.06976744186046,
          "velocity": 0.09448818897637795
        },
        {
          "duration": 0.16279069767441712,
          "durationTicks": 14,
          "midi": 50,
          "name": "D3",
          "ticks": 3103,
          "time": 36.08139534883721,
          "velocity": 0.2047244094488189
        },
        {
          "duration": 0.15116279069767558,
          "durationTicks": 13,
          "midi": 72,
          "name": "C5",
          "ticks": 3120,
          "time": 36.27906976744186,
          "velocity": 0.11023622047244094
        },
        {
          "duration": 0.02325581395349019,
          "durationTicks": 2,
          "midi": 52,
          "name": "E3",
          "ticks": 3121,
          "time": 36.2906976744186,
          "velocity": 0.2440944881889764
        },
        {
          "duration": 0.8488372093023244,
          "durationTicks": 73,
          "midi": 60,
          "name": "C4",
          "ticks": 3121,
          "time": 36.2906976744186,
          "velocity": 0.2992125984251969
        },
        {
          "duration": 0.5,
          "durationTicks": 43,
          "midi": 67,
          "name": "G4",
          "ticks": 3123,
          "time": 36.31395348837209,
          "velocity": 0.14173228346456693
        },
        {
          "duration": 0.38372093023255616,
          "durationTicks": 33,
          "midi": 48,
          "name": "C3",
          "ticks": 3128,
          "time": 36.372093023255815,
          "velocity": 0.2125984251968504
        },
        {
          "duration": 0.04651162790698038,
          "durationTicks": 4,
          "midi": 64,
          "name": "E4",
          "ticks": 3161,
          "time": 36.75581395348837,
          "velocity": 0.12598425196850394
        },
        {
          "duration": 0.03488372093023173,
          "durationTicks": 3,
          "midi": 44,
          "name": "G#2",
          "ticks": 3163,
          "time": 36.77906976744186,
          "velocity": 0.2992125984251969
        },
        {
          "duration": 0.2674418604651194,
          "durationTicks": 23,
          "midi": 48,
          "name": "C3",
          "ticks": 3172,
          "time": 36.883720930232556,
          "velocity": 0.15748031496062992
        },
        {
          "duration": 0.081395348837205,
          "durationTicks": 7,
          "midi": 47,
          "name": "B2",
          "ticks": 3195,
          "time": 37.151162790697676,
          "velocity": 0.11023622047244094
        },
        {
          "duration": 0.46511627906976827,
          "durationTicks": 40,
          "midi": 59,
          "name": "B3",
          "ticks": 3203,
          "time": 37.24418604651163,
          "velocity": 0.2283464566929134
        },
        {
          "duration": 0.02325581395349019,
          "durationTicks": 2,
          "midi": 45,
          "name": "A2",
          "ticks": 3206,
          "time": 37.27906976744186,
          "velocity": 0.28346456692913385
        },
        {
          "duration": 0.36046511627906597,
          "durationTicks": 31,
          "midi": 47,
          "name": "B2",
          "ticks": 3211,
          "time": 37.33720930232558,
          "velocity": 0.2047244094488189
        },
        {
          "duration": 0.24418604651162923,
          "durationTicks": 21,
          "midi": 59,
          "name": "B3",
          "ticks": 3245,
          "time": 37.73255813953488,
          "velocity": 0.1968503937007874
        },
        {
          "duration": 0.03488372093023173,
          "durationTicks": 3,
          "midi": 55,
          "name": "G3",
          "ticks": 3247,
          "time": 37.75581395348837,
          "velocity": 0.1889763779527559
        },
        {
          "duration": 0.11627906976744384,
          "durationTicks": 10,
          "midi": 47,
          "name": "B2",
          "ticks": 3257,
          "time": 37.872093023255815,
          "velocity": 0.16535433070866143
        },
        {
          "duration": 0.16279069767442422,
          "durationTicks": 14,
          "midi": 45,
          "name": "A2",
          "ticks": 3269,
          "time": 38.01162790697674,
          "velocity": 0.2047244094488189
        },
        {
          "duration": 0.1046511627906952,
          "durationTicks": 9,
          "midi": 55,
          "name": "G3",
          "ticks": 3271,
          "time": 38.03488372093023,
          "velocity": 0.1968503937007874
        },
        {
          "duration": 0.03488372093023173,
          "durationTicks": 3,
          "midi": 53,
          "name": "F3",
          "ticks": 3284,
          "time": 38.18604651162791,
          "velocity": 0.12598425196850394
        },
        {
          "duration": 0.05813953488372192,
          "durationTicks": 5,
          "midi": 44,
          "name": "G#2",
          "ticks": 3285,
          "time": 38.19767441860465,
          "velocity": 0.2204724409448819
        },
        {
          "duration": 0.15116279069767558,
          "durationTicks": 13,
          "midi": 64,
          "name": "E4",
          "ticks": 3286,
          "time": 38.2093023255814,
          "velocity": 0.2204724409448819
        },
        {
          "duration": 0.24418604651162923,
          "durationTicks": 21,
          "midi": 52,
          "name": "E3",
          "ticks": 3287,
          "time": 38.22093023255814,
          "velocity": 0.11023622047244094
        },
        {
          "duration": 0.27906976744186096,
          "durationTicks": 24,
          "midi": 64,
          "name": "E4",
          "ticks": 3301,
          "time": 38.383720930232556,
          "velocity": 0.1732283464566929
        },
        {
          "duration": 0.15116279069767558,
          "durationTicks": 13,
          "midi": 52,
          "name": "E3",
          "ticks": 3311,
          "time": 38.5,
          "velocity": 0.07086614173228346
        },
        {
          "duration": 0.046511627906973274,
          "durationTicks": 4,
          "midi": 44,
          "name": "G#2",
          "ticks": 3326,
          "time": 38.674418604651166,
          "velocity": 0.1968503937007874
        },
        {
          "duration": 0.03488372093023173,
          "durationTicks": 3,
          "midi": 71,
          "name": "B4",
          "ticks": 3327,
          "time": 38.68604651162791,
          "velocity": 0.09448818897637795
        },
        {
          "duration": 0.1860465116279073,
          "durationTicks": 16,
          "midi": 52,
          "name": "E3",
          "ticks": 3328,
          "time": 38.69767441860465,
          "velocity": 0.23622047244094488
        },
        {
          "duration": 0.09302325581395365,
          "durationTicks": 8,
          "midi": 62,
          "name": "D4",
          "ticks": 3347,
          "time": 38.91860465116279,
          "velocity": 0.12598425196850394
        },
        {
          "duration": 0.08139534883721211,
          "durationTicks": 7,
          "midi": 64,
          "name": "E4",
          "ticks": 3355,
          "time": 39.01162790697674,
          "velocity": 0.10236220472440945
        },
        {
          "duration": 0.03488372093023173,
          "durationTicks": 3,
          "midi": 44,
          "name": "G#2",
          "ticks": 3367,
          "time": 39.151162790697676,
          "velocity": 0.16535433070866143
        },
        {
          "duration": 0.22093023255813904,
          "durationTicks": 19,
          "midi": 55,
          "name": "G3",
          "ticks": 3367,
          "time": 39.151162790697676,
          "velocity": 0.4409448818897638
        },
        {
          "duration": 0.09302325581395365,
          "durationTicks": 8,
          "midi": 64,
          "name": "E4",
          "ticks": 3376,
          "time": 39.25581395348837,
          "velocity": 0.11023622047244094
        },
        {
          "duration": 0.2674418604651123,
          "durationTicks": 23,
          "midi": 64,
          "name": "E4",
          "ticks": 3396,
          "time": 39.48837209302326,
          "velocity": 0.2440944881889764
        },
        {
          "duration": 0.11627906976743674,
          "durationTicks": 10,
          "midi": 52,
          "name": "E3",
          "ticks": 3399,
          "time": 39.52325581395349,
          "velocity": 0.1732283464566929
        },
        {
          "duration": 0.4534883720930196,
          "durationTicks": 39,
          "midi": 64,
          "name": "E4",
          "ticks": 3428,
          "time": 39.86046511627907,
          "velocity": 0.1968503937007874
        },
        {
          "duration": 0.8720930232558146,
          "durationTicks": 75,
          "midi": 60,
          "name": "C4",
          "ticks": 3450,
          "time": 40.116279069767444,
          "velocity": 0.2755905511811024
        },
        {
          "duration": 0.3953488372092977,
          "durationTicks": 34,
          "midi": 67,
          "name": "G4",
          "ticks": 3453,
          "time": 40.151162790697676,
          "velocity": 0.11023622047244094
        },
        {
          "duration": 0.3488372093023244,
          "durationTicks": 30,
          "midi": 48,
          "name": "C3",
          "ticks": 3458,
          "time": 40.2093023255814,
          "velocity": 0.2047244094488189
        },
        {
          "duration": 0.1860465116279073,
          "durationTicks": 16,
          "midi": 64,
          "name": "E4",
          "ticks": 3472,
          "time": 40.372093023255815,
          "velocity": 0.09448818897637795
        },
        {
          "duration": 0.1860465116279073,
          "durationTicks": 16,
          "midi": 64,
          "name": "E4",
          "ticks": 3491,
          "time": 40.593023255813954,
          "velocity": 0.11811023622047244
        },
        {
          "duration": 0.3372093023255829,
          "durationTicks": 29,
          "midi": 48,
          "name": "C3",
          "ticks": 3496,
          "time": 40.651162790697676,
          "velocity": 0.14960629921259844
        },
        {
          "duration": 0.03488372093023173,
          "durationTicks": 3,
          "midi": 47,
          "name": "B2",
          "ticks": 3525,
          "time": 40.98837209302326,
          "velocity": 0.09448818897637795
        },
        {
          "duration": 0.23255813953488058,
          "durationTicks": 20,
          "midi": 75,
          "name": "D#5",
          "ticks": 3533,
          "time": 41.08139534883721,
          "velocity": 0.09448818897637795
        },
        {
          "duration": 0.16279069767441712,
          "durationTicks": 14,
          "midi": 75,
          "name": "D#5",
          "ticks": 3560,
          "time": 41.395348837209305,
          "velocity": 0.08661417322834646
        },
        {
          "duration": 0.22093023255813904,
          "durationTicks": 19,
          "midi": 63,
          "name": "D#4",
          "ticks": 3568,
          "time": 41.48837209302326,
          "velocity": 0.08661417322834646
        },
        {
          "duration": 0.03488372093023173,
          "durationTicks": 3,
          "midi": 45,
          "name": "A2",
          "ticks": 3571,
          "time": 41.52325581395349,
          "velocity": 0.29133858267716534
        },
        {
          "duration": 0.1860465116279073,
          "durationTicks": 16,
          "midi": 59,
          "name": "B3",
          "ticks": 3571,
          "time": 41.52325581395349,
          "velocity": 0.18110236220472442
        },
        {
          "duration": 0.03488372093023173,
          "durationTicks": 3,
          "midi": 47,
          "name": "B2",
          "ticks": 3576,
          "time": 41.58139534883721,
          "velocity": 0.1889763779527559
        },
        {
          "duration": 0.06976744186047057,
          "durationTicks": 6,
          "midi": 75,
          "name": "D#5",
          "ticks": 3578,
          "time": 41.604651162790695,
          "velocity": 0.10236220472440945
        },
        {
          "duration": 0.06976744186046346,
          "durationTicks": 6,
          "midi": 47,
          "name": "B2",
          "ticks": 3580,
          "time": 41.627906976744185,
          "velocity": 0.18110236220472442
        },
        {
          "duration": 0.2325581395348877,
          "durationTicks": 20,
          "midi": 45,
          "name": "A2",
          "ticks": 3588,
          "time": 41.72093023255814,
          "velocity": 0.18110236220472442
        },
        {
          "duration": 0.23255813953488058,
          "durationTicks": 20,
          "midi": 64,
          "name": "E4",
          "ticks": 3590,
          "time": 41.74418604651163,
          "velocity": 0.16535433070866143
        },
        {
          "duration": 0.023255813953483084,
          "durationTicks": 2,
          "midi": 53,
          "name": "F3",
          "ticks": 3611,
          "time": 41.98837209302326,
          "velocity": 0.2755905511811024
        },
        {
          "duration": 0.4534883720930267,
          "durationTicks": 39,
          "midi": 64,
          "name": "E4",
          "ticks": 3612,
          "time": 42,
          "velocity": 0.1889763779527559
        },
        {
          "duration": 0.19767441860464885,
          "durationTicks": 17,
          "midi": 71,
          "name": "B4",
          "ticks": 3612,
          "time": 42,
          "velocity": 0.07874015748031496
        },
        {
          "duration": 0.03488372093023173,
          "durationTicks": 3,
          "midi": 45,
          "name": "A2",
          "ticks": 3613,
          "time": 42.01162790697674,
          "velocity": 0.11023622047244094
        },
        {
          "duration": 0.4418604651162852,
          "durationTicks": 38,
          "midi": 52,
          "name": "E3",
          "ticks": 3613,
          "time": 42.01162790697674,
          "velocity": 0.2440944881889764
        },
        {
          "duration": 0.1046511627906952,
          "durationTicks": 9,
          "midi": 44,
          "name": "G#2",
          "ticks": 3652,
          "time": 42.46511627906977,
          "velocity": 0.25984251968503935
        },
        {
          "duration": 0.1860465116279073,
          "durationTicks": 16,
          "midi": 52,
          "name": "E3",
          "ticks": 3654,
          "time": 42.48837209302326,
          "velocity": 0.15748031496062992
        },
        {
          "duration": 0.03488372093023884,
          "durationTicks": 3,
          "midi": 65,
          "name": "F4",
          "ticks": 3691,
          "time": 42.91860465116279,
          "velocity": 0.14960629921259844
        },
        {
          "duration": 0.06976744186046346,
          "durationTicks": 6,
          "midi": 72,
          "name": "C5",
          "ticks": 3692,
          "time": 42.93023255813954,
          "velocity": 0.12598425196850394
        },
        {
          "duration": 0.03488372093023173,
          "durationTicks": 3,
          "midi": 54,
          "name": "F#3",
          "ticks": 3693,
          "time": 42.94186046511628,
          "velocity": 0.29133858267716534
        },
        {
          "duration": 0.16279069767441712,
          "durationTicks": 14,
          "midi": 60,
          "name": "C4",
          "ticks": 3693,
          "time": 42.94186046511628,
          "velocity": 0.2992125984251969
        },
        {
          "duration": 0.023255813953483084,
          "durationTicks": 2,
          "midi": 45,
          "name": "A2",
          "ticks": 3694,
          "time": 42.95348837209303,
          "velocity": 0.2992125984251969
        },
        {
          "duration": 0.11627906976744384,
          "durationTicks": 10,
          "midi": 55,
          "name": "G3",
          "ticks": 3696,
          "time": 42.97674418604651,
          "velocity": 0.29133858267716534
        },
        {
          "duration": 0.02325581395349019,
          "durationTicks": 2,
          "midi": 56,
          "name": "G#3",
          "ticks": 3723,
          "time": 43.2906976744186,
          "velocity": 0.25984251968503935
        },
        {
          "duration": 0.13953488372093403,
          "durationTicks": 12,
          "midi": 64,
          "name": "E4",
          "ticks": 3725,
          "time": 43.31395348837209,
          "velocity": 0.2125984251968504
        },
        {
          "duration": 0.04651162790698038,
          "durationTicks": 4,
          "midi": 45,
          "name": "A2",
          "ticks": 3726,
          "time": 43.325581395348834,
          "velocity": 0.1732283464566929
        },
        {
          "duration": 0.06976744186046346,
          "durationTicks": 6,
          "midi": 52,
          "name": "E3",
          "ticks": 3729,
          "time": 43.36046511627907,
          "velocity": 0.2047244094488189
        },
        {
          "duration": 0.02325581395349019,
          "durationTicks": 2,
          "midi": 55,
          "name": "G3",
          "ticks": 3736,
          "time": 43.44186046511628,
          "velocity": 0.2755905511811024
        },
        {
          "duration": 0.03488372093023173,
          "durationTicks": 3,
          "midi": 45,
          "name": "A2",
          "ticks": 3739,
          "time": 43.47674418604651,
          "velocity": 0.13385826771653545
        },
        {
          "duration": 0.2093023255813975,
          "durationTicks": 18,
          "midi": 62,
          "name": "D4",
          "ticks": 3755,
          "time": 43.66279069767442,
          "velocity": 0.2125984251968504
        },
        {
          "duration": 0.058139534883714816,
          "durationTicks": 5,
          "midi": 55,
          "name": "G3",
          "ticks": 3756,
          "time": 43.674418604651166,
          "velocity": 0.2992125984251969
        },
        {
          "duration": 0.16279069767441712,
          "durationTicks": 14,
          "midi": 50,
          "name": "D3",
          "ticks": 3760,
          "time": 43.72093023255814,
          "velocity": 0.23622047244094488
        },
        {
          "duration": 0.7674418604651123,
          "durationTicks": 66,
          "midi": 60,
          "name": "C4",
          "ticks": 3775,
          "time": 43.895348837209305,
          "velocity": 0.2677165354330709
        },
        {
          "duration": 0.04651162790698038,
          "durationTicks": 4,
          "midi": 55,
          "name": "G3",
          "ticks": 3776,
          "time": 43.906976744186046,
          "velocity": 0.33070866141732286
        },
        {
          "duration": 0.38372093023255616,
          "durationTicks": 33,
          "midi": 48,
          "name": "C3",
          "ticks": 3780,
          "time": 43.95348837209303,
          "velocity": 0.1968503937007874
        },
        {
          "duration": 0.02325581395349019,
          "durationTicks": 2,
          "midi": 55,
          "name": "G3",
          "ticks": 3814,
          "time": 44.348837209302324,
          "velocity": 0.2283464566929134
        },
        {
          "duration": 0.023255813953483084,
          "durationTicks": 2,
          "midi": 50,
          "name": "D3",
          "ticks": 3815,
          "time": 44.36046511627907,
          "velocity": 0.2283464566929134
        },
        {
          "duration": 0.2674418604651194,
          "durationTicks": 23,
          "midi": 48,
          "name": "C3",
          "ticks": 3819,
          "time": 44.406976744186046,
          "velocity": 0.1889763779527559
        },
        {
          "duration": 0.11627906976743674,
          "durationTicks": 10,
          "midi": 47,
          "name": "B2",
          "ticks": 3842,
          "time": 44.674418604651166,
          "velocity": 0.11023622047244094
        },
        {
          "duration": 0.03488372093023173,
          "durationTicks": 3,
          "midi": 64,
          "name": "E4",
          "ticks": 3853,
          "time": 44.80232558139535,
          "velocity": 0.1732283464566929
        },
        {
          "duration": 0.1860465116279073,
          "durationTicks": 16,
          "midi": 75,
          "name": "D#5",
          "ticks": 3854,
          "time": 44.81395348837209,
          "velocity": 0.10236220472440945
        },
        {
          "duration": 0.08139534883721211,
          "durationTicks": 7,
          "midi": 55,
          "name": "G3",
          "ticks": 3855,
          "time": 44.825581395348834,
          "velocity": 0.3228346456692913
        },
        {
          "duration": 0.13953488372093403,
          "durationTicks": 12,
          "midi": 71,
          "name": "B4",
          "ticks": 3855,
          "time": 44.825581395348834,
          "velocity": 0.11811023622047244
        },
        {
          "duration": 0.4186046511627879,
          "durationTicks": 36,
          "midi": 59,
          "name": "B3",
          "ticks": 3858,
          "time": 44.86046511627907,
          "velocity": 0.18110236220472442
        },
        {
          "duration": 0.3604651162790731,
          "durationTicks": 31,
          "midi": 47,
          "name": "B2",
          "ticks": 3863,
          "time": 44.91860465116279,
          "velocity": 0.15748031496062992
        },
        {
          "duration": 0.02325581395349019,
          "durationTicks": 2,
          "midi": 57,
          "name": "A3",
          "ticks": 3894,
          "time": 45.27906976744186,
          "velocity": 0.2677165354330709
        },
        {
          "duration": 0.04651162790698038,
          "durationTicks": 4,
          "midi": 45,
          "name": "A2",
          "ticks": 3895,
          "time": 45.2906976744186,
          "velocity": 0.28346456692913385
        },
        {
          "duration": 0.1046511627907023,
          "durationTicks": 9,
          "midi": 71,
          "name": "B4",
          "ticks": 3895,
          "time": 45.2906976744186,
          "velocity": 0.18110236220472442
        },
        {
          "duration": 0.2093023255813904,
          "durationTicks": 18,
          "midi": 55,
          "name": "G3",
          "ticks": 3896,
          "time": 45.30232558139535,
          "velocity": 0.4015748031496063
        },
        {
          "duration": 0.03488372093023173,
          "durationTicks": 3,
          "midi": 59,
          "name": "B3",
          "ticks": 3907,
          "time": 45.43023255813954,
          "velocity": 0.18110236220472442
        },
        {
          "duration": 0.081395348837205,
          "durationTicks": 7,
          "midi": 55,
          "name": "G3",
          "ticks": 3915,
          "time": 45.52325581395349,
          "velocity": 0.3543307086614173
        },
        {
          "duration": 0.17441860465116577,
          "durationTicks": 15,
          "midi": 64,
          "name": "E4",
          "ticks": 3916,
          "time": 45.53488372093023,
          "velocity": 0.1968503937007874
        },
        {
          "duration": 0.06976744186046346,
          "durationTicks": 6,
          "midi": 44,
          "name": "G#2",
          "ticks": 3918,
          "time": 45.55813953488372,
          "velocity": 0.14173228346456693
        },
        {
          "duration": 0.03488372093023173,
          "durationTicks": 3,
          "midi": 53,
          "name": "F3",
          "ticks": 3923,
          "time": 45.616279069767444,
          "velocity": 0.23622047244094488
        },
        {
          "duration": 0.03488372093023173,
          "durationTicks": 3,
          "midi": 45,
          "name": "A2",
          "ticks": 3924,
          "time": 45.627906976744185,
          "velocity": 0.14173228346456693
        },
        {
          "duration": 0.058139534883714816,
          "durationTicks": 5,
          "midi": 53,
          "name": "F3",
          "ticks": 3928,
          "time": 45.674418604651166,
          "velocity": 0.1968503937007874
        },
        {
          "duration": 0.02325581395349019,
          "durationTicks": 2,
          "midi": 54,
          "name": "F#3",
          "ticks": 3933,
          "time": 45.73255813953488,
          "velocity": 0.28346456692913385
        },
        {
          "duration": 0.04651162790698038,
          "durationTicks": 4,
          "midi": 65,
          "name": "F4",
          "ticks": 3933,
          "time": 45.73255813953488,
          "velocity": 0.14173228346456693
        },
        {
          "duration": 0.02325581395349019,
          "durationTicks": 2,
          "midi": 55,
          "name": "G3",
          "ticks": 3935,
          "time": 45.75581395348837,
          "velocity": 0.2677165354330709
        },
        {
          "duration": 0.02325581395349019,
          "durationTicks": 2,
          "midi": 60,
          "name": "C4",
          "ticks": 3935,
          "time": 45.75581395348837,
          "velocity": 0.2283464566929134
        },
        {
          "duration": 0.4767441860465098,
          "durationTicks": 41,
          "midi": 62,
          "name": "D4",
          "ticks": 3936,
          "time": 45.76744186046512,
          "velocity": 0.2755905511811024
        },
        {
          "duration": 0.06976744186046346,
          "durationTicks": 6,
          "midi": 44,
          "name": "G#2",
          "ticks": 3937,
          "time": 45.77906976744186,
          "velocity": 0.23622047244094488
        },
        {
          "duration": 0.046511627906973274,
          "durationTicks": 4,
          "midi": 59,
          "name": "B3",
          "ticks": 3937,
          "time": 45.77906976744186,
          "velocity": 0.1889763779527559
        },
        {
          "duration": 0.2093023255813975,
          "durationTicks": 18,
          "midi": 69,
          "name": "A4",
          "ticks": 3937,
          "time": 45.77906976744186,
          "velocity": 0.11811023622047244
        },
        {
          "duration": 0.2325581395348877,
          "durationTicks": 20,
          "midi": 55,
          "name": "G3",
          "ticks": 3938,
          "time": 45.7906976744186,
          "velocity": 0.3779527559055118
        },
        {
          "duration": 0.17441860465116577,
          "durationTicks": 15,
          "midi": 88,
          "name": "E6",
          "ticks": 3938,
          "time": 45.7906976744186,
          "velocity": 0.07086614173228346
        },
        {
          "duration": 0.3953488372093048,
          "durationTicks": 34,
          "midi": 43,
          "name": "G2",
          "ticks": 3943,
          "time": 45.848837209302324,
          "velocity": 0.1889763779527559
        },
        {
          "duration": 0.25581395348837077,
          "durationTicks": 22,
          "midi": 59,
          "name": "B3",
          "ticks": 3954,
          "time": 45.97674418604651,
          "velocity": 0.1968503937007874
        },
        {
          "duration": 0.02325581395349019,
          "durationTicks": 2,
          "midi": 58,
          "name": "A#3",
          "ticks": 3976,
          "time": 46.23255813953488,
          "velocity": 0.25196850393700787
        },
        {
          "duration": 0.1046511627907023,
          "durationTicks": 9,
          "midi": 55,
          "name": "G3",
          "ticks": 3978,
          "time": 46.25581395348837,
          "velocity": 0.4566929133858268
        },
        {
          "duration": 0.08139534883721211,
          "durationTicks": 7,
          "midi": 44,
          "name": "G#2",
          "ticks": 3980,
          "time": 46.27906976744186,
          "velocity": 0.1732283464566929
        },
        {
          "duration": 0.19767441860464885,
          "durationTicks": 17,
          "midi": 64,
          "name": "E4",
          "ticks": 3980,
          "time": 46.27906976744186,
          "velocity": 0.1968503937007874
        },
        {
          "duration": 0.3604651162790731,
          "durationTicks": 31,
          "midi": 71,
          "name": "B4",
          "ticks": 3986,
          "time": 46.348837209302324,
          "velocity": 0.14960629921259844
        },
        {
          "duration": 0.15116279069766847,
          "durationTicks": 13,
          "midi": 43,
          "name": "G2",
          "ticks": 3987,
          "time": 46.36046511627907,
          "velocity": 0.15748031496062992
        },
        {
          "duration": 0.023255813953483084,
          "durationTicks": 2,
          "midi": 56,
          "name": "G#3",
          "ticks": 3987,
          "time": 46.36046511627907,
          "velocity": 0.3779527559055118
        },
        {
          "duration": 0.1046511627907023,
          "durationTicks": 9,
          "midi": 55,
          "name": "G3",
          "ticks": 3989,
          "time": 46.383720930232556,
          "velocity": 0.4094488188976378
        },
        {
          "duration": 0.03488372093023173,
          "durationTicks": 3,
          "midi": 59,
          "name": "B3",
          "ticks": 3994,
          "time": 46.44186046511628,
          "velocity": 0.18110236220472442
        },
        {
          "duration": 0.023255813953483084,
          "durationTicks": 2,
          "midi": 54,
          "name": "F#3",
          "ticks": 3998,
          "time": 46.48837209302326,
          "velocity": 0.3858267716535433
        },
        {
          "duration": 0.23255813953488058,
          "durationTicks": 20,
          "midi": 76,
          "name": "E5",
          "ticks": 3998,
          "time": 46.48837209302326,
          "velocity": 0.14173228346456693
        },
        {
          "duration": 0.2093023255813975,
          "durationTicks": 18,
          "midi": 64,
          "name": "E4",
          "ticks": 3999,
          "time": 46.5,
          "velocity": 0.23622047244094488
        },
        {
          "duration": 0.08139534883721211,
          "durationTicks": 7,
          "midi": 55,
          "name": "G3",
          "ticks": 4000,
          "time": 46.51162790697674,
          "velocity": 0.4409448818897638
        },
        {
          "duration": 0.11627906976744384,
          "durationTicks": 10,
          "midi": 43,
          "name": "G2",
          "ticks": 4007,
          "time": 46.593023255813954,
          "velocity": 0.11023622047244094
        },
        {
          "duration": 0.02325581395349019,
          "durationTicks": 2,
          "midi": 56,
          "name": "G#3",
          "ticks": 4007,
          "time": 46.593023255813954,
          "velocity": 0.33070866141732286
        },
        {
          "duration": 0.09302325581395365,
          "durationTicks": 8,
          "midi": 55,
          "name": "G3",
          "ticks": 4009,
          "time": 46.616279069767444,
          "velocity": 0.3700787401574803
        },
        {
          "duration": 0.046511627906973274,
          "durationTicks": 4,
          "midi": 59,
          "name": "B3",
          "ticks": 4009,
          "time": 46.616279069767444,
          "velocity": 0.15748031496062992
        },
        {
          "duration": 0.1046511627906952,
          "durationTicks": 9,
          "midi": 44,
          "name": "G#2",
          "ticks": 4017,
          "time": 46.7093023255814,
          "velocity": 0.1968503937007874
        },
        {
          "duration": 0.023255813953483084,
          "durationTicks": 2,
          "midi": 54,
          "name": "F#3",
          "ticks": 4017,
          "time": 46.7093023255814,
          "velocity": 0.3779527559055118
        },
        {
          "duration": 0.03488372093023173,
          "durationTicks": 3,
          "midi": 62,
          "name": "D4",
          "ticks": 4018,
          "time": 46.72093023255814,
          "velocity": 0.11023622047244094
        },
        {
          "duration": 0.2093023255813975,
          "durationTicks": 18,
          "midi": 71,
          "name": "B4",
          "ticks": 4018,
          "time": 46.72093023255814,
          "velocity": 0.14960629921259844
        },
        {
          "duration": 0.43023255813953654,
          "durationTicks": 37,
          "midi": 55,
          "name": "G3",
          "ticks": 4019,
          "time": 46.73255813953488,
          "velocity": 0.4409448818897638
        },
        {
          "duration": 0.1860465116279073,
          "durationTicks": 16,
          "midi": 64,
          "name": "E4",
          "ticks": 4021,
          "time": 46.75581395348837,
          "velocity": 0.1889763779527559
        },
        {
          "duration": 0.13953488372093403,
          "durationTicks": 12,
          "midi": 43,
          "name": "G2",
          "ticks": 4026,
          "time": 46.81395348837209,
          "velocity": 0.1889763779527559
        },
        {
          "duration": 0.19767441860464885,
          "durationTicks": 17,
          "midi": 71,
          "name": "B4",
          "ticks": 4039,
          "time": 46.96511627906977,
          "velocity": 0.12598425196850394
        },
        {
          "duration": 0.22093023255813904,
          "durationTicks": 19,
          "midi": 76,
          "name": "E5",
          "ticks": 4039,
          "time": 46.96511627906977,
          "velocity": 0.11023622047244094
        },
        {
          "duration": 0.03488372093023173,
          "durationTicks": 3,
          "midi": 64,
          "name": "E4",
          "ticks": 4040,
          "time": 46.97674418604651,
          "velocity": 0.16535433070866143
        },
        {
          "duration": 0.046511627906973274,
          "durationTicks": 4,
          "midi": 44,
          "name": "G#2",
          "ticks": 4041,
          "time": 46.98837209302326,
          "velocity": 0.18110236220472442
        },
        {
          "duration": 0.13953488372092693,
          "durationTicks": 12,
          "midi": 64,
          "name": "E4",
          "ticks": 4044,
          "time": 47.02325581395349,
          "velocity": 0.23622047244094488
        },
        {
          "duration": 0.08139534883721211,
          "durationTicks": 7,
          "midi": 43,
          "name": "G2",
          "ticks": 4048,
          "time": 47.06976744186046,
          "velocity": 0.18110236220472442
        },
        {
          "duration": 0.04651162790698038,
          "durationTicks": 4,
          "midi": 65,
          "name": "F4",
          "ticks": 4056,
          "time": 47.16279069767442,
          "velocity": 0.2125984251968504
        },
        {
          "duration": 0.023255813953483084,
          "durationTicks": 2,
          "midi": 55,
          "name": "G3",
          "ticks": 4057,
          "time": 47.174418604651166,
          "velocity": 0.4015748031496063
        },
        {
          "duration": 0.2674418604651194,
          "durationTicks": 23,
          "midi": 71,
          "name": "B4",
          "ticks": 4059,
          "time": 47.19767441860465,
          "velocity": 0.12598425196850394
        },
        {
          "duration": 0.06976744186046346,
          "durationTicks": 6,
          "midi": 44,
          "name": "G#2",
          "ticks": 4060,
          "time": 47.2093023255814,
          "velocity": 0.2204724409448819
        },
        {
          "duration": 0.1860465116279073,
          "durationTicks": 16,
          "midi": 55,
          "name": "G3",
          "ticks": 4060,
          "time": 47.2093023255814,
          "velocity": 0.4409448818897638
        },
        {
          "duration": 0.1860465116279073,
          "durationTicks": 16,
          "midi": 64,
          "name": "E4",
          "ticks": 4060,
          "time": 47.2093023255814,
          "velocity": 0.2283464566929134
        },
        {
          "duration": 0.09302325581395365,
          "durationTicks": 8,
          "midi": 45,
          "name": "A2",
          "ticks": 4077,
          "time": 47.406976744186046,
          "velocity": 0.18110236220472442
        },
        {
          "duration": 0.11627906976744384,
          "durationTicks": 10,
          "midi": 55,
          "name": "G3",
          "ticks": 4078,
          "time": 47.41860465116279,
          "velocity": 0.4566929133858268
        },
        {
          "duration": 0.03488372093023173,
          "durationTicks": 3,
          "midi": 60,
          "name": "C4",
          "ticks": 4083,
          "time": 47.47674418604651,
          "velocity": 0.1968503937007874
        },
        {
          "duration": 0.7906976744186025,
          "durationTicks": 68,
          "midi": 64,
          "name": "E4",
          "ticks": 4085,
          "time": 47.5,
          "velocity": 0.2677165354330709
        },
        {
          "duration": 0.02325581395349019,
          "durationTicks": 2,
          "midi": 56,
          "name": "G#3",
          "ticks": 4088,
          "time": 47.53488372093023,
          "velocity": 0.2992125984251969
        },
        {
          "duration": 0.8837209302325562,
          "durationTicks": 76,
          "midi": 61,
          "name": "C#4",
          "ticks": 4088,
          "time": 47.53488372093023,
          "velocity": 0.2677165354330709
        },
        {
          "duration": 0.5116279069767486,
          "durationTicks": 44,
          "midi": 45,
          "name": "A2",
          "ticks": 4091,
          "time": 47.56976744186046,
          "velocity": 0.2283464566929134
        },
        {
          "duration": 0.046511627906973274,
          "durationTicks": 4,
          "midi": 57,
          "name": "A3",
          "ticks": 4092,
          "time": 47.58139534883721,
          "velocity": 0.2440944881889764
        },
        {
          "duration": 0.02325581395349019,
          "durationTicks": 2,
          "midi": 55,
          "name": "G3",
          "ticks": 4096,
          "time": 47.627906976744185,
          "velocity": 0.29133858267716534
        },
        {
          "duration": 0.3953488372093048,
          "durationTicks": 34,
          "midi": 69,
          "name": "A4",
          "ticks": 4097,
          "time": 47.63953488372093,
          "velocity": 0.14173228346456693
        },
        {
          "duration": 0.03488372093023173,
          "durationTicks": 3,
          "midi": 57,
          "name": "A3",
          "ticks": 4101,
          "time": 47.68604651162791,
          "velocity": 0.23622047244094488
        },
        {
          "duration": 0.1279069767441925,
          "durationTicks": 11,
          "midi": 57,
          "name": "A3",
          "ticks": 4105,
          "time": 47.73255813953488,
          "velocity": 0.25196850393700787
        },
        {
          "duration": 0.19767441860464885,
          "durationTicks": 17,
          "midi": 57,
          "name": "A3",
          "ticks": 4117,
          "time": 47.872093023255815,
          "velocity": 0.25984251968503935
        },
        {
          "duration": 0.23255813953488058,
          "durationTicks": 20,
          "midi": 69,
          "name": "A4",
          "ticks": 4135,
          "time": 48.08139534883721,
          "velocity": 0.13385826771653545
        },
        {
          "duration": 0.02325581395349019,
          "durationTicks": 2,
          "midi": 55,
          "name": "G3",
          "ticks": 4137,
          "time": 48.104651162790695,
          "velocity": 0.3700787401574803
        },
        {
          "duration": 0.2093023255813975,
          "durationTicks": 18,
          "midi": 45,
          "name": "A2",
          "ticks": 4139,
          "time": 48.127906976744185,
          "velocity": 0.2283464566929134
        },
        {
          "duration": 0.13953488372092693,
          "durationTicks": 12,
          "midi": 57,
          "name": "A3",
          "ticks": 4143,
          "time": 48.174418604651166,
          "velocity": 0.29133858267716534
        },
        {
          "duration": 0.15116279069767558,
          "durationTicks": 13,
          "midi": 83,
          "name": "B5",
          "ticks": 4144,
          "time": 48.18604651162791,
          "velocity": 0.07874015748031496
        },
        {
          "duration": 0.03488372093023173,
          "durationTicks": 3,
          "midi": 55,
          "name": "G3",
          "ticks": 4155,
          "time": 48.31395348837209,
          "velocity": 0.29133858267716534
        },
        {
          "duration": 0.09302325581395365,
          "durationTicks": 8,
          "midi": 64,
          "name": "E4",
          "ticks": 4156,
          "time": 48.325581395348834,
          "velocity": 0.2125984251968504
        },
        {
          "duration": 0.046511627906973274,
          "durationTicks": 4,
          "midi": 69,
          "name": "A4",
          "ticks": 4159,
          "time": 48.36046511627907,
          "velocity": 0.07874015748031496
        },
        {
          "duration": 0.06976744186047057,
          "durationTicks": 6,
          "midi": 45,
          "name": "A2",
          "ticks": 4161,
          "time": 48.383720930232556,
          "velocity": 0.2283464566929134
        },
        {
          "duration": 0.02325581395349019,
          "durationTicks": 2,
          "midi": 57,
          "name": "A3",
          "ticks": 4161,
          "time": 48.383720930232556,
          "velocity": 0.2283464566929134
        },
        {
          "duration": 0.11627906976744384,
          "durationTicks": 10,
          "midi": 61,
          "name": "C#4",
          "ticks": 4166,
          "time": 48.44186046511628,
          "velocity": 0.2204724409448819
        },
        {
          "duration": 0.08139534883721211,
          "durationTicks": 7,
          "midi": 45,
          "name": "A2",
          "ticks": 4169,
          "time": 48.47674418604651,
          "velocity": 0.30708661417322836
        },
        {
          "duration": 0.03488372093023173,
          "durationTicks": 3,
          "midi": 57,
          "name": "A3",
          "ticks": 4173,
          "time": 48.52325581395349,
          "velocity": 0.31496062992125984
        },
        {
          "duration": 0.03488372093023173,
          "durationTicks": 3,
          "midi": 70,
          "name": "A#4",
          "ticks": 4174,
          "time": 48.53488372093023,
          "velocity": 0.1968503937007874
        },
        {
          "duration": 0.046511627906973274,
          "durationTicks": 4,
          "midi": 55,
          "name": "G3",
          "ticks": 4176,
          "time": 48.55813953488372,
          "velocity": 0.36220472440944884
        },
        {
          "duration": 0.2325581395348877,
          "durationTicks": 20,
          "midi": 61,
          "name": "C#4",
          "ticks": 4177,
          "time": 48.56976744186046,
          "velocity": 0.25984251968503935
        },
        {
          "duration": 0.04651162790698038,
          "durationTicks": 4,
          "midi": 64,
          "name": "E4",
          "ticks": 4177,
          "time": 48.56976744186046,
          "velocity": 0.11023622047244094
        },
        {
          "duration": 0.06976744186046346,
          "durationTicks": 6,
          "midi": 44,
          "name": "G#2",
          "ticks": 4179,
          "time": 48.593023255813954,
          "velocity": 0.1732283464566929
        },
        {
          "duration": 0.06976744186046346,
          "durationTicks": 6,
          "midi": 92,
          "name": "G#6",
          "ticks": 4179,
          "time": 48.593023255813954,
          "velocity": 0.12598425196850394
        },
        {
          "duration": 0.15116279069767558,
          "durationTicks": 13,
          "midi": 57,
          "name": "A3",
          "ticks": 4183,
          "time": 48.63953488372093,
          "velocity": 0.2992125984251969
        },
        {
          "duration": 0.03488372093023173,
          "durationTicks": 3,
          "midi": 45,
          "name": "A2",
          "ticks": 4185,
          "time": 48.66279069767442,
          "velocity": 0.15748031496062992
        },
        {
          "duration": 0.05813953488372192,
          "durationTicks": 5,
          "midi": 76,
          "name": "E5",
          "ticks": 4195,
          "time": 48.77906976744186,
          "velocity": 0.13385826771653545
        },
        {
          "duration": 0.2325581395348877,
          "durationTicks": 20,
          "midi": 64,
          "name": "E4",
          "ticks": 4196,
          "time": 48.7906976744186,
          "velocity": 0.2755905511811024
        },
        {
          "duration": 0.023255813953483084,
          "durationTicks": 2,
          "midi": 57,
          "name": "A3",
          "ticks": 4197,
          "time": 48.80232558139535,
          "velocity": 0.25984251968503935
        },
        {
          "duration": 0.05813953488372192,
          "durationTicks": 5,
          "midi": 73,
          "name": "C#5",
          "ticks": 4197,
          "time": 48.80232558139535,
          "velocity": 0.08661417322834646
        },
        {
          "duration": 0.24418604651162923,
          "durationTicks": 21,
          "midi": 61,
          "name": "C#4",
          "ticks": 4198,
          "time": 48.81395348837209,
          "velocity": 0.2677165354330709
        },
        {
          "duration": 0.1860465116279073,
          "durationTicks": 16,
          "midi": 45,
          "name": "A2",
          "ticks": 4200,
          "time": 48.83720930232558,
          "velocity": 0.2755905511811024
        },
        {
          "duration": 0.16279069767441712,
          "durationTicks": 14,
          "midi": 57,
          "name": "A3",
          "ticks": 4200,
          "time": 48.83720930232558,
          "velocity": 0.28346456692913385
        },
        {
          "duration": 0.03488372093023173,
          "durationTicks": 3,
          "midi": 72,
          "name": "C5",
          "ticks": 4215,
          "time": 49.01162790697674,
          "velocity": 0.11811023622047244
        },
        {
          "duration": 0.04651162790698038,
          "durationTicks": 4,
          "midi": 55,
          "name": "G3",
          "ticks": 4217,
          "time": 49.03488372093023,
          "velocity": 0.3464566929133858
        },
        {
          "duration": 0.15116279069767558,
          "durationTicks": 13,
          "midi": 69,
          "name": "A4",
          "ticks": 4217,
          "time": 49.03488372093023,
          "velocity": 0.1968503937007874
        },
        {
          "duration": 0.3720930232558146,
          "durationTicks": 32,
          "midi": 71,
          "name": "B4",
          "ticks": 4218,
          "time": 49.04651162790697,
          "velocity": 0.13385826771653545
        },
        {
          "duration": 0.081395348837205,
          "durationTicks": 7,
          "midi": 45,
          "name": "A2",
          "ticks": 4219,
          "time": 49.05813953488372,
          "velocity": 0.33858267716535434
        },
        {
          "duration": 0.16279069767441712,
          "durationTicks": 14,
          "midi": 64,
          "name": "E4",
          "ticks": 4222,
          "time": 49.093023255813954,
          "velocity": 0.31496062992125984
        },
        {
          "duration": 0.03488372093023173,
          "durationTicks": 3,
          "midi": 55,
          "name": "G3",
          "ticks": 4225,
          "time": 49.127906976744185,
          "velocity": 0.2204724409448819
        },
        {
          "duration": 0.08139534883721211,
          "durationTicks": 7,
          "midi": 45,
          "name": "A2",
          "ticks": 4230,
          "time": 49.18604651162791,
          "velocity": 0.2204724409448819
        },
        {
          "duration": 0.05813953488372192,
          "durationTicks": 5,
          "midi": 68,
          "name": "G#4",
          "ticks": 4230,
          "time": 49.18604651162791,
          "velocity": 0.15748031496062992
        },
        {
          "duration": 0.02325581395349019,
          "durationTicks": 2,
          "midi": 65,
          "name": "F4",
          "ticks": 4236,
          "time": 49.25581395348837,
          "velocity": 0.29133858267716534
        },
        {
          "duration": 0.03488372093023173,
          "durationTicks": 3,
          "midi": 44,
          "name": "G#2",
          "ticks": 4237,
          "time": 49.26744186046512,
          "velocity": 0.29133858267716534
        },
        {
          "duration": 0.023255813953483084,
          "durationTicks": 2,
          "midi": 55,
          "name": "G3",
          "ticks": 4237,
          "time": 49.26744186046512,
          "velocity": 0.2677165354330709
        },
        {
          "duration": 0.15116279069767558,
          "durationTicks": 13,
          "midi": 64,
          "name": "E4",
          "ticks": 4238,
          "time": 49.27906976744186,
          "velocity": 0.2047244094488189
        },
        {
          "duration": 0.03488372093023173,
          "durationTicks": 3,
          "midi": 68,
          "name": "G#4",
          "ticks": 4238,
          "time": 49.27906976744186,
          "velocity": 0.14960629921259844
        },
        {
          "duration": 0.09302325581395365,
          "durationTicks": 8,
          "midi": 45,
          "name": "A2",
          "ticks": 4240,
          "time": 49.30232558139535,
          "velocity": 0.2992125984251969
        },
        {
          "duration": 0.05813953488372192,
          "durationTicks": 5,
          "midi": 55,
          "name": "G3",
          "ticks": 4240,
          "time": 49.30232558139535,
          "velocity": 0.29133858267716534
        },
        {
          "duration": 0.05813953488372192,
          "durationTicks": 5,
          "midi": 68,
          "name": "G#4",
          "ticks": 4243,
          "time": 49.33720930232558,
          "velocity": 0.08661417322834646
        },
        {
          "duration": 0.03488372093023173,
          "durationTicks": 3,
          "midi": 59,
          "name": "B3",
          "ticks": 4248,
          "time": 49.395348837209305,
          "velocity": 0.10236220472440945
        },
        {
          "duration": 0.04651162790698038,
          "durationTicks": 4,
          "midi": 43,
          "name": "G2",
          "ticks": 4249,
          "time": 49.406976744186046,
          "velocity": 0.14173228346456693
        },
        {
          "duration": 0.03488372093023173,
          "durationTicks": 3,
          "midi": 55,
          "name": "G3",
          "ticks": 4251,
          "time": 49.43023255813954,
          "velocity": 0.2125984251968504
        },
        {
          "duration": 0.02325581395349019,
          "durationTicks": 2,
          "midi": 60,
          "name": "C4",
          "ticks": 4255,
          "time": 49.47674418604651,
          "velocity": 0.2677165354330709
        },
        {
          "duration": 0.03488372093023173,
          "durationTicks": 3,
          "midi": 69,
          "name": "A4",
          "ticks": 4255,
          "time": 49.47674418604651,
          "velocity": 0.12598425196850394
        },
        {
          "duration": 0.023255813953483084,
          "durationTicks": 2,
          "midi": 54,
          "name": "F#3",
          "ticks": 4256,
          "time": 49.48837209302326,
          "velocity": 0.28346456692913385
        },
        {
          "duration": 0.4534883720930196,
          "durationTicks": 39,
          "midi": 64,
          "name": "E4",
          "ticks": 4256,
          "time": 49.48837209302326,
          "velocity": 0.33070866141732286
        },
        {
          "duration": 0.4534883720930267,
          "durationTicks": 39,
          "midi": 59,
          "name": "B3",
          "ticks": 4257,
          "time": 49.5,
          "velocity": 0.2125984251968504
        },
        {
          "duration": 0.02325581395349019,
          "durationTicks": 2,
          "midi": 52,
          "name": "E3",
          "ticks": 4258,
          "time": 49.51162790697674,
          "velocity": 0.25984251968503935
        },
        {
          "duration": 0.418604651162795,
          "durationTicks": 36,
          "midi": 68,
          "name": "G#4",
          "ticks": 4258,
          "time": 49.51162790697674,
          "velocity": 0.15748031496062992
        },
        {
          "duration": 0.418604651162795,
          "durationTicks": 36,
          "midi": 52,
          "name": "E3",
          "ticks": 4261,
          "time": 49.54651162790697,
          "velocity": 0.29133858267716534
        },
        {
          "duration": 0.03488372093023173,
          "durationTicks": 3,
          "midi": 63,
          "name": "D#4",
          "ticks": 4296,
          "time": 49.95348837209303,
          "velocity": 0.1889763779527559
        },
        {
          "duration": 0.04651162790698038,
          "durationTicks": 4,
          "midi": 55,
          "name": "G3",
          "ticks": 4298,
          "time": 49.97674418604651,
          "velocity": 0.3464566929133858
        },
        {
          "duration": 0.16279069767441712,
          "durationTicks": 14,
          "midi": 59,
          "name": "B3",
          "ticks": 4300,
          "time": 50,
          "velocity": 0.2125984251968504
        },
        {
          "duration": 0.046511627906973274,
          "durationTicks": 4,
          "midi": 64,
          "name": "E4",
          "ticks": 4300,
          "time": 50,
          "velocity": 0.14173228346456693
        },
        {
          "duration": 0.03488372093023173,
          "durationTicks": 3,
          "midi": 89,
          "name": "F6",
          "ticks": 4303,
          "time": 50.03488372093023,
          "velocity": 0.10236220472440945
        },
        {
          "duration": 0.02325581395349019,
          "durationTicks": 2,
          "midi": 55,
          "name": "G3",
          "ticks": 4314,
          "time": 50.16279069767442,
          "velocity": 0.25196850393700787
        },
        {
          "duration": 0.03488372093023173,
          "durationTicks": 3,
          "midi": 60,
          "name": "C4",
          "ticks": 4314,
          "time": 50.16279069767442,
          "velocity": 0.1968503937007874
        },
        {
          "duration": 0.2093023255813904,
          "durationTicks": 18,
          "midi": 68,
          "name": "G#4",
          "ticks": 4315,
          "time": 50.174418604651166,
          "velocity": 0.12598425196850394
        },
        {
          "duration": 0.24418604651162923,
          "durationTicks": 21,
          "midi": 64,
          "name": "E4",
          "ticks": 4316,
          "time": 50.18604651162791,
          "velocity": 0.31496062992125984
        },
        {
          "duration": 0.2093023255813975,
          "durationTicks": 18,
          "midi": 52,
          "name": "E3",
          "ticks": 4317,
          "time": 50.19767441860465,
          "velocity": 0.30708661417322836
        },
        {
          "duration": 0.19767441860465595,
          "durationTicks": 17,
          "midi": 59,
          "name": "B3",
          "ticks": 4317,
          "time": 50.19767441860465,
          "velocity": 0.2204724409448819
        },
        {
          "duration": 0.046511627906973274,
          "durationTicks": 4,
          "midi": 53,
          "name": "F3",
          "ticks": 4337,
          "time": 50.43023255813954,
          "velocity": 0.36220472440944884
        },
        {
          "duration": 0.05813953488372192,
          "durationTicks": 5,
          "midi": 72,
          "name": "C5",
          "ticks": 4337,
          "time": 50.43023255813954,
          "velocity": 0.10236220472440945
        },
        {
          "duration": 0.03488372093023173,
          "durationTicks": 3,
          "midi": 60,
          "name": "C4",
          "ticks": 4339,
          "time": 50.45348837209303,
          "velocity": 0.28346456692913385
        },
        {
          "duration": 0.058139534883714816,
          "durationTicks": 5,
          "midi": 55,
          "name": "G3",
          "ticks": 4342,
          "time": 50.48837209302326,
          "velocity": 0.4566929133858268
        },
        {
          "duration": 0.05813953488372192,
          "durationTicks": 5,
          "midi": 62,
          "name": "D4",
          "ticks": 4343,
          "time": 50.5,
          "velocity": 0.14173228346456693
        },
        {
          "duration": 0.02325581395349019,
          "durationTicks": 2,
          "midi": 56,
          "name": "G#3",
          "ticks": 4347,
          "time": 50.54651162790697,
          "velocity": 0.2992125984251969
        },
        {
          "duration": 0.06976744186046346,
          "durationTicks": 6,
          "midi": 55,
          "name": "G3",
          "ticks": 4349,
          "time": 50.56976744186046,
          "velocity": 0.33070866141732286
        },
        {
          "duration": 0.19767441860465595,
          "durationTicks": 17,
          "midi": 64,
          "name": "E4",
          "ticks": 4365,
          "time": 50.75581395348837,
          "velocity": 0.31496062992125984
        },
        {
          "duration": 0.11627906976744384,
          "durationTicks": 10,
          "midi": 68,
          "name": "G#4",
          "ticks": 4365,
          "time": 50.75581395348837,
          "velocity": 0.15748031496062992
        },
        {
          "duration": 0.11627906976744384,
          "durationTicks": 10,
          "midi": 71,
          "name": "B4",
          "ticks": 4365,
          "time": 50.75581395348837,
          "velocity": 0.2283464566929134
        },
        {
          "duration": 0.13953488372092693,
          "durationTicks": 12,
          "midi": 59,
          "name": "B3",
          "ticks": 4366,
          "time": 50.76744186046512,
          "velocity": 0.23622047244094488
        },
        {
          "duration": 0.02325581395349019,
          "durationTicks": 2,
          "midi": 52,
          "name": "E3",
          "ticks": 4368,
          "time": 50.7906976744186,
          "velocity": 0.30708661417322836
        },
        {
          "duration": 0.09302325581395365,
          "durationTicks": 8,
          "midi": 52,
          "name": "E3",
          "ticks": 4371,
          "time": 50.825581395348834,
          "velocity": 0.2755905511811024
        },
        {
          "duration": 0.02325581395349019,
          "durationTicks": 2,
          "midi": 45,
          "name": "A2",
          "ticks": 4379,
          "time": 50.91860465116279,
          "velocity": 0.2440944881889764
        },
        {
          "duration": 0.09302325581395365,
          "durationTicks": 8,
          "midi": 55,
          "name": "G3",
          "ticks": 4379,
          "time": 50.91860465116279,
          "velocity": 0.30708661417322836
        },
        {
          "duration": 0.09302325581395365,
          "durationTicks": 8,
          "midi": 44,
          "name": "G#2",
          "ticks": 4381,
          "time": 50.94186046511628,
          "velocity": 0.2283464566929134
        },
        {
          "duration": 0.04651162790698038,
          "durationTicks": 4,
          "midi": 64,
          "name": "E4",
          "ticks": 4397,
          "time": 51.127906976744185,
          "velocity": 0.18110236220472442
        },
        {
          "duration": 0.02325581395349019,
          "durationTicks": 2,
          "midi": 55,
          "name": "G3",
          "ticks": 4398,
          "time": 51.13953488372093,
          "velocity": 0.3464566929133858
        },
        {
          "duration": 0.11627906976744384,
          "durationTicks": 10,
          "midi": 69,
          "name": "A4",
          "ticks": 4398,
          "time": 51.13953488372093,
          "velocity": 0.1889763779527559
        },
        {
          "duration": 0.13953488372092693,
          "durationTicks": 12,
          "midi": 50,
          "name": "D3",
          "ticks": 4399,
          "time": 51.151162790697676,
          "velocity": 0.2440944881889764
        },
        {
          "duration": 0.023255813953483084,
          "durationTicks": 2,
          "midi": 57,
          "name": "A3",
          "ticks": 4401,
          "time": 51.174418604651166,
          "velocity": 0.3228346456692913
        },
        {
          "duration": 0.03488372093023173,
          "durationTicks": 3,
          "midi": 57,
          "name": "A3",
          "ticks": 4404,
          "time": 51.2093023255814,
          "velocity": 0.30708661417322836
        },
        {
          "duration": 0.05813953488372192,
          "durationTicks": 5,
          "midi": 56,
          "name": "G#3",
          "ticks": 4407,
          "time": 51.24418604651163,
          "velocity": 0.2755905511811024
        },
        {
          "duration": 0.06976744186046346,
          "durationTicks": 6,
          "midi": 64,
          "name": "E4",
          "ticks": 4408,
          "time": 51.25581395348837,
          "velocity": 0.1732283464566929
        },
        {
          "duration": 0.046511627906973274,
          "durationTicks": 4,
          "midi": 55,
          "name": "G3",
          "ticks": 4412,
          "time": 51.30232558139535,
          "velocity": 0.36220472440944884
        },
        {
          "duration": 0.02325581395349019,
          "durationTicks": 2,
          "midi": 56,
          "name": "G#3",
          "ticks": 4416,
          "time": 51.348837209302324,
          "velocity": 0.3700787401574803
        },
        {
          "duration": 0.2674418604651123,
          "durationTicks": 23,
          "midi": 67,
          "name": "G4",
          "ticks": 4417,
          "time": 51.36046511627907,
          "velocity": 0.08661417322834646
        },
        {
          "duration": 0.03488372093023173,
          "durationTicks": 3,
          "midi": 72,
          "name": "C5",
          "ticks": 4417,
          "time": 51.36046511627907,
          "velocity": 0.12598425196850394
        },
        {
          "duration": 0.4534883720930196,
          "durationTicks": 39,
          "midi": 55,
          "name": "G3",
          "ticks": 4418,
          "time": 51.372093023255815,
          "velocity": 0.4645669291338583
        },
        {
          "duration": 0.43023255813953654,
          "durationTicks": 37,
          "midi": 60,
          "name": "C4",
          "ticks": 4419,
          "time": 51.383720930232556,
          "velocity": 0.23622047244094488
        },
        {
          "duration": 0.3720930232558075,
          "durationTicks": 32,
          "midi": 48,
          "name": "C3",
          "ticks": 4425,
          "time": 51.45348837209303,
          "velocity": 0.1968503937007874
        },
        {
          "duration": 0.22093023255813904,
          "durationTicks": 19,
          "midi": 64,
          "name": "E4",
          "ticks": 4427,
          "time": 51.47674418604651,
          "velocity": 0.11811023622047244
        },
        {
          "duration": 0.22093023255813904,
          "durationTicks": 19,
          "midi": 60,
          "name": "C4",
          "ticks": 4457,
          "time": 51.825581395348834,
          "velocity": 0.3228346456692913
        },
        {
          "duration": 0.22093023255813904,
          "durationTicks": 19,
          "midi": 55,
          "name": "G3",
          "ticks": 4458,
          "time": 51.83720930232558,
          "velocity": 0.4251968503937008
        },
        {
          "duration": 0.03488372093023173,
          "durationTicks": 3,
          "midi": 64,
          "name": "E4",
          "ticks": 4459,
          "time": 51.848837209302324,
          "velocity": 0.09448818897637795
        },
        {
          "duration": 0.1860465116279002,
          "durationTicks": 16,
          "midi": 48,
          "name": "C3",
          "ticks": 4460,
          "time": 51.86046511627907,
          "velocity": 0.15748031496062992
        },
        {
          "duration": 0.08139534883721211,
          "durationTicks": 7,
          "midi": 64,
          "name": "E4",
          "ticks": 4464,
          "time": 51.906976744186046,
          "velocity": 0.09448818897637795
        },
        {
          "duration": 0.11627906976744384,
          "durationTicks": 10,
          "midi": 64,
          "name": "E4",
          "ticks": 4477,
          "time": 52.05813953488372,
          "velocity": 0.07874015748031496
        },
        {
          "duration": 0.058139534883714816,
          "durationTicks": 5,
          "midi": 55,
          "name": "G3",
          "ticks": 4479,
          "time": 52.08139534883721,
          "velocity": 0.30708661417322836
        },
        {
          "duration": 0.03488372093023173,
          "durationTicks": 3,
          "midi": 60,
          "name": "C4",
          "ticks": 4479,
          "time": 52.08139534883721,
          "velocity": 0.16535433070866143
        },
        {
          "duration": 0.023255813953483084,
          "durationTicks": 2,
          "midi": 53,
          "name": "F3",
          "ticks": 4490,
          "time": 52.2093023255814,
          "velocity": 0.2283464566929134
        },
        {
          "duration": 0.046511627906973274,
          "durationTicks": 4,
          "midi": 59,
          "name": "B3",
          "ticks": 4490,
          "time": 52.2093023255814,
          "velocity": 0.13385826771653545
        },
        {
          "duration": 0.03488372093023173,
          "durationTicks": 3,
          "midi": 71,
          "name": "B4",
          "ticks": 4496,
          "time": 52.27906976744186,
          "velocity": 0.14960629921259844
        },
        {
          "duration": 0.03488372093023173,
          "durationTicks": 3,
          "midi": 54,
          "name": "F#3",
          "ticks": 4498,
          "time": 52.30232558139535,
          "velocity": 0.4409448818897638
        },
        {
          "duration": 0.4186046511627879,
          "durationTicks": 36,
          "midi": 59,
          "name": "B3",
          "ticks": 4499,
          "time": 52.31395348837209,
          "velocity": 0.2755905511811024
        },
        {
          "duration": 0.03488372093023173,
          "durationTicks": 3,
          "midi": 47,
          "name": "B2",
          "ticks": 4502,
          "time": 52.348837209302324,
          "velocity": 0.12598425196850394
        },
        {
          "duration": 0.30232558139535115,
          "durationTicks": 26,
          "midi": 54,
          "name": "F#3",
          "ticks": 4502,
          "time": 52.348837209302324,
          "velocity": 0.4251968503937008
        },
        {
          "duration": 0.38372093023255616,
          "durationTicks": 33,
          "midi": 63,
          "name": "D#4",
          "ticks": 4503,
          "time": 52.36046511627907,
          "velocity": 0.16535433070866143
        },
        {
          "duration": 0.3372093023255758,
          "durationTicks": 29,
          "midi": 47,
          "name": "B2",
          "ticks": 4506,
          "time": 52.395348837209305,
          "velocity": 0.11811023622047244
        },
        {
          "duration": 0.03488372093023173,
          "durationTicks": 3,
          "midi": 60,
          "name": "C4",
          "ticks": 4537,
          "time": 52.75581395348837,
          "velocity": 0.1889763779527559
        },
        {
          "duration": 0.04651162790698038,
          "durationTicks": 4,
          "midi": 71,
          "name": "B4",
          "ticks": 4537,
          "time": 52.75581395348837,
          "velocity": 0.2204724409448819
        },
        {
          "duration": 0.2093023255813975,
          "durationTicks": 18,
          "midi": 54,
          "name": "F#3",
          "ticks": 4539,
          "time": 52.77906976744186,
          "velocity": 0.4094488188976378
        },
        {
          "duration": 0.05813953488372192,
          "durationTicks": 5,
          "midi": 63,
          "name": "D#4",
          "ticks": 4543,
          "time": 52.825581395348834,
          "velocity": 0.12598425196850394
        },
        {
          "duration": 0.04651162790698038,
          "durationTicks": 4,
          "midi": 59,
          "name": "B3",
          "ticks": 4545,
          "time": 52.848837209302324,
          "velocity": 0.1732283464566929
        },
        {
          "duration": 0.08139534883721211,
          "durationTicks": 7,
          "midi": 47,
          "name": "B2",
          "ticks": 4547,
          "time": 52.872093023255815,
          "velocity": 0.14960629921259844
        },
        {
          "duration": 0.023255813953483084,
          "durationTicks": 2,
          "midi": 56,
          "name": "G#3",
          "ticks": 4557,
          "time": 52.98837209302326,
          "velocity": 0.31496062992125984
        },
        {
          "duration": 0.04651162790698038,
          "durationTicks": 4,
          "midi": 55,
          "name": "G3",
          "ticks": 4559,
          "time": 53.01162790697674,
          "velocity": 0.3937007874015748
        },
        {
          "duration": 0.03488372093023884,
          "durationTicks": 3,
          "midi": 63,
          "name": "D#4",
          "ticks": 4562,
          "time": 53.04651162790697,
          "velocity": 0.15748031496062992
        },
        {
          "duration": 0.03488372093023173,
          "durationTicks": 3,
          "midi": 51,
          "name": "D#3",
          "ticks": 4563,
          "time": 53.05813953488372,
          "velocity": 0.2125984251968504
        },
        {
          "duration": 0.03488372093023173,
          "durationTicks": 3,
          "midi": 64,
          "name": "E4",
          "ticks": 4565,
          "time": 53.08139534883721,
          "velocity": 0.16535433070866143
        },
        {
          "duration": 0.02325581395349019,
          "durationTicks": 2,
          "midi": 53,
          "name": "F3",
          "ticks": 4566,
          "time": 53.093023255813954,
          "velocity": 0.31496062992125984
        },
        {
          "duration": 0.03488372093023173,
          "durationTicks": 3,
          "midi": 55,
          "name": "G3",
          "ticks": 4569,
          "time": 53.127906976744185,
          "velocity": 0.36220472440944884
        },
        {
          "duration": 0.08139534883721211,
          "durationTicks": 7,
          "midi": 64,
          "name": "E4",
          "ticks": 4569,
          "time": 53.127906976744185,
          "velocity": 0.16535433070866143
        },
        {
          "duration": 0.046511627906973274,
          "durationTicks": 4,
          "midi": 44,
          "name": "G#2",
          "ticks": 4571,
          "time": 53.151162790697676,
          "velocity": 0.11811023622047244
        },
        {
          "duration": 0.02325581395349019,
          "durationTicks": 2,
          "midi": 55,
          "name": "G3",
          "ticks": 4574,
          "time": 53.18604651162791,
          "velocity": 0.29133858267716534
        },
        {
          "duration": 0.02325581395349019,
          "durationTicks": 2,
          "midi": 54,
          "name": "F#3",
          "ticks": 4578,
          "time": 53.23255813953488,
          "velocity": 0.3700787401574803
        },
        {
          "duration": 0.43023255813953654,
          "durationTicks": 37,
          "midi": 59,
          "name": "B3",
          "ticks": 4578,
          "time": 53.23255813953488,
          "velocity": 0.25196850393700787
        },
        {
          "duration": 0.43023255813953654,
          "durationTicks": 37,
          "midi": 64,
          "name": "E4",
          "ticks": 4579,
          "time": 53.24418604651163,
          "velocity": 0.30708661417322836
        },
        {
          "duration": 0.02325581395349019,
          "durationTicks": 2,
          "midi": 55,
          "name": "G3",
          "ticks": 4580,
          "time": 53.25581395348837,
          "velocity": 0.33858267716535434
        },
        {
          "duration": 0.02325581395349019,
          "durationTicks": 2,
          "midi": 52,
          "name": "E3",
          "ticks": 4583,
          "time": 53.2906976744186,
          "velocity": 0.3228346456692913
        },
        {
          "duration": 0.3372093023255829,
          "durationTicks": 29,
          "midi": 52,
          "name": "E3",
          "ticks": 4586,
          "time": 53.325581395348834,
          "velocity": 0.2992125984251969
        },
        {
          "duration": 0.09302325581395365,
          "durationTicks": 8,
          "midi": 55,
          "name": "G3",
          "ticks": 4617,
          "time": 53.68604651162791,
          "velocity": 0.3937007874015748
        },
        {
          "duration": 0.03488372093023173,
          "durationTicks": 3,
          "midi": 65,
          "name": "F4",
          "ticks": 4617,
          "time": 53.68604651162791,
          "velocity": 0.2047244094488189
        },
        {
          "duration": 0.04651162790698038,
          "durationTicks": 4,
          "midi": 44,
          "name": "G#2",
          "ticks": 4618,
          "time": 53.69767441860465,
          "velocity": 0.11811023622047244
        },
        {
          "duration": 0.11627906976744384,
          "durationTicks": 10,
          "midi": 71,
          "name": "B4",
          "ticks": 4623,
          "time": 53.75581395348837,
          "velocity": 0.10236220472440945
        },
        {
          "duration": 0.06976744186046346,
          "durationTicks": 6,
          "midi": 52,
          "name": "E3",
          "ticks": 4628,
          "time": 53.81395348837209,
          "velocity": 0.25984251968503935
        },
        {
          "duration": 0.06976744186046346,
          "durationTicks": 6,
          "midi": 59,
          "name": "B3",
          "ticks": 4628,
          "time": 53.81395348837209,
          "velocity": 0.11023622047244094
        },
        {
          "duration": 0.02325581395349019,
          "durationTicks": 2,
          "midi": 56,
          "name": "G#3",
          "ticks": 4636,
          "time": 53.906976744186046,
          "velocity": 0.30708661417322836
        },
        {
          "duration": 0.23255813953488058,
          "durationTicks": 20,
          "midi": 71,
          "name": "B4",
          "ticks": 4636,
          "time": 53.906976744186046,
          "velocity": 0.2125984251968504
        },
        {
          "duration": 0.22093023255813904,
          "durationTicks": 19,
          "midi": 59,
          "name": "B3",
          "ticks": 4637,
          "time": 53.91860465116279,
          "velocity": 0.2755905511811024
        },
        {
          "duration": 0.22093023255813904,
          "durationTicks": 19,
          "midi": 64,
          "name": "E4",
          "ticks": 4637,
          "time": 53.91860465116279,
          "velocity": 0.28346456692913385
        },
        {
          "duration": 0.02325581395349019,
          "durationTicks": 2,
          "midi": 55,
          "name": "G3",
          "ticks": 4638,
          "time": 53.93023255813954,
          "velocity": 0.30708661417322836
        },
        {
          "duration": 0.17441860465116577,
          "durationTicks": 15,
          "midi": 52,
          "name": "E3",
          "ticks": 4642,
          "time": 53.97674418604651,
          "velocity": 0.29133858267716534
        },
        {
          "duration": 0.05813953488372192,
          "durationTicks": 5,
          "midi": 53,
          "name": "F3",
          "ticks": 4657,
          "time": 54.151162790697676,
          "velocity": 0.3228346456692913
        },
        {
          "duration": 0.05813953488372192,
          "durationTicks": 5,
          "midi": 71,
          "name": "B4",
          "ticks": 4657,
          "time": 54.151162790697676,
          "velocity": 0.18110236220472442
        },
        {
          "duration": 0.03488372093023173,
          "durationTicks": 3,
          "midi": 59,
          "name": "B3",
          "ticks": 4658,
          "time": 54.16279069767442,
          "velocity": 0.33858267716535434
        },
        {
          "duration": 0.02325581395349019,
          "durationTicks": 2,
          "midi": 60,
          "name": "C4",
          "ticks": 4661,
          "time": 54.19767441860465,
          "velocity": 0.30708661417322836
        },
        {
          "duration": 0.15116279069767558,
          "durationTicks": 13,
          "midi": 64,
          "name": "E4",
          "ticks": 4661,
          "time": 54.19767441860465,
          "velocity": 0.18110236220472442
        },
        {
          "duration": 0.046511627906973274,
          "durationTicks": 4,
          "midi": 54,
          "name": "F#3",
          "ticks": 4662,
          "time": 54.2093023255814,
          "velocity": 0.4251968503937008
        },
        {
          "duration": 0.023255813953483084,
          "durationTicks": 2,
          "midi": 54,
          "name": "F#3",
          "ticks": 4667,
          "time": 54.26744186046512,
          "velocity": 0.3937007874015748
        },
        {
          "duration": 0.02325581395349019,
          "durationTicks": 2,
          "midi": 55,
          "name": "G3",
          "ticks": 4669,
          "time": 54.2906976744186,
          "velocity": 0.28346456692913385
        },
        {
          "duration": 0.12790697674418539,
          "durationTicks": 11,
          "midi": 59,
          "name": "B3",
          "ticks": 4671,
          "time": 54.31395348837209,
          "velocity": 0.1889763779527559
        },
        {
          "duration": 0.02325581395349019,
          "durationTicks": 2,
          "midi": 55,
          "name": "G3",
          "ticks": 4684,
          "time": 54.46511627906977,
          "velocity": 0.36220472440944884
        },
        {
          "duration": 0.03488372093023173,
          "durationTicks": 3,
          "midi": 69,
          "name": "A4",
          "ticks": 4684,
          "time": 54.46511627906977,
          "velocity": 0.10236220472440945
        },
        {
          "duration": 0.19767441860465595,
          "durationTicks": 17,
          "midi": 64,
          "name": "E4",
          "ticks": 4685,
          "time": 54.47674418604651,
          "velocity": 0.33858267716535434
        },
        {
          "duration": 0.06976744186046346,
          "durationTicks": 6,
          "midi": 68,
          "name": "G#4",
          "ticks": 4687,
          "time": 54.5,
          "velocity": 0.13385826771653545
        },
        {
          "duration": 0.05813953488372192,
          "durationTicks": 5,
          "midi": 71,
          "name": "B4",
          "ticks": 4687,
          "time": 54.5,
          "velocity": 0.14173228346456693
        },
        {
          "duration": 0.15116279069767558,
          "durationTicks": 13,
          "midi": 59,
          "name": "B3",
          "ticks": 4688,
          "time": 54.51162790697674,
          "velocity": 0.2047244094488189
        },
        {
          "duration": 0.046511627906973274,
          "durationTicks": 4,
          "midi": 52,
          "name": "E3",
          "ticks": 4692,
          "time": 54.55813953488372,
          "velocity": 0.33070866141732286
        },
        {
          "duration": 0.02325581395349019,
          "durationTicks": 2,
          "midi": 55,
          "name": "G3",
          "ticks": 4711,
          "time": 54.77906976744186,
          "velocity": 0.2992125984251969
        },
        {
          "duration": 0.03488372093023173,
          "durationTicks": 3,
          "midi": 61,
          "name": "C#4",
          "ticks": 4712,
          "time": 54.7906976744186,
          "velocity": 0.25984251968503935
        },
        {
          "duration": 0.1046511627907023,
          "durationTicks": 9,
          "midi": 69,
          "name": "A4",
          "ticks": 4712,
          "time": 54.7906976744186,
          "velocity": 0.1968503937007874
        },
        {
          "duration": 0.06976744186046346,
          "durationTicks": 6,
          "midi": 44,
          "name": "G#2",
          "ticks": 4714,
          "time": 54.81395348837209,
          "velocity": 0.2047244094488189
        },
        {
          "duration": 0.09302325581395365,
          "durationTicks": 8,
          "midi": 50,
          "name": "D3",
          "ticks": 4714,
          "time": 54.81395348837209,
          "velocity": 0.25196850393700787
        },
        {
          "duration": 0.11627906976744384,
          "durationTicks": 10,
          "midi": 65,
          "name": "F4",
          "ticks": 4714,
          "time": 54.81395348837209,
          "velocity": 0.1889763779527559
        },
        {
          "duration": 0.05813953488372192,
          "durationTicks": 5,
          "midi": 62,
          "name": "D4",
          "ticks": 4716,
          "time": 54.83720930232558,
          "velocity": 0.28346456692913385
        },
        {
          "duration": 0.03488372093023173,
          "durationTicks": 3,
          "midi": 57,
          "name": "A3",
          "ticks": 4718,
          "time": 54.86046511627907,
          "velocity": 0.2677165354330709
        },
        {
          "duration": 0.03488372093023173,
          "durationTicks": 3,
          "midi": 55,
          "name": "G3",
          "ticks": 4722,
          "time": 54.906976744186046,
          "velocity": 0.2125984251968504
        },
        {
          "duration": 0.03488372093023173,
          "durationTicks": 3,
          "midi": 55,
          "name": "G3",
          "ticks": 4726,
          "time": 54.95348837209303,
          "velocity": 0.13385826771653545
        },
        {
          "duration": 0.30232558139534405,
          "durationTicks": 26,
          "midi": 55,
          "name": "G3",
          "ticks": 4737,
          "time": 55.08139534883721,
          "velocity": 0.4566929133858268
        },
        {
          "duration": 0.22093023255813904,
          "durationTicks": 19,
          "midi": 60,
          "name": "C4",
          "ticks": 4738,
          "time": 55.093023255813954,
          "velocity": 0.1968503937007874
        },
        {
          "duration": 0.24418604651162923,
          "durationTicks": 21,
          "midi": 64,
          "name": "E4",
          "ticks": 4738,
          "time": 55.093023255813954,
          "velocity": 0.16535433070866143
        },
        {
          "duration": 0.13953488372092693,
          "durationTicks": 12,
          "midi": 48,
          "name": "C3",
          "ticks": 4745,
          "time": 55.174418604651166,
          "velocity": 0.18110236220472442
        },
        {
          "duration": 0.03488372093023173,
          "durationTicks": 3,
          "midi": 49,
          "name": "C#3",
          "ticks": 4757,
          "time": 55.31395348837209,
          "velocity": 0.1968503937007874
        },
        {
          "duration": 0.03488372093023884,
          "durationTicks": 3,
          "midi": 61,
          "name": "C#4",
          "ticks": 4758,
          "time": 55.325581395348834,
          "velocity": 0.2047244094488189
        },
        {
          "duration": 0.03488372093023173,
          "durationTicks": 3,
          "midi": 50,
          "name": "D3",
          "ticks": 4760,
          "time": 55.348837209302324,
          "velocity": 0.2125984251968504
        },
        {
          "duration": 0.1860465116279002,
          "durationTicks": 16,
          "midi": 62,
          "name": "D4",
          "ticks": 4761,
          "time": 55.36046511627907,
          "velocity": 0.33858267716535434
        },
        {
          "duration": 0.04651162790698038,
          "durationTicks": 4,
          "midi": 70,
          "name": "A#4",
          "ticks": 4763,
          "time": 55.383720930232556,
          "velocity": 0.11023622047244094
        },
        {
          "duration": 0.081395348837205,
          "durationTicks": 7,
          "midi": 55,
          "name": "G3",
          "ticks": 4764,
          "time": 55.395348837209305,
          "velocity": 0.41732283464566927
        },
        {
          "duration": 0.081395348837205,
          "durationTicks": 7,
          "midi": 50,
          "name": "D3",
          "ticks": 4770,
          "time": 55.46511627906977,
          "velocity": 0.25196850393700787
        },
        {
          "duration": 0.03488372093023173,
          "durationTicks": 3,
          "midi": 57,
          "name": "A3",
          "ticks": 4773,
          "time": 55.5,
          "velocity": 0.25984251968503935
        },
        {
          "duration": 0.06976744186047057,
          "durationTicks": 6,
          "midi": 55,
          "name": "G3",
          "ticks": 4777,
          "time": 55.54651162790697,
          "velocity": 0.3543307086614173
        },
        {
          "duration": 0.22093023255814614,
          "durationTicks": 19,
          "midi": 60,
          "name": "C4",
          "ticks": 4793,
          "time": 55.73255813953488,
          "velocity": 0.3228346456692913
        },
        {
          "duration": 0.16279069767441712,
          "durationTicks": 14,
          "midi": 55,
          "name": "G3",
          "ticks": 4795,
          "time": 55.75581395348837,
          "velocity": 0.4566929133858268
        },
        {
          "duration": 0.11627906976744384,
          "durationTicks": 10,
          "midi": 64,
          "name": "E4",
          "ticks": 4795,
          "time": 55.75581395348837,
          "velocity": 0.14960629921259844
        },
        {
          "duration": 0.03488372093023173,
          "durationTicks": 3,
          "midi": 48,
          "name": "C3",
          "ticks": 4800,
          "time": 55.81395348837209,
          "velocity": 0.14173228346456693
        },
        {
          "duration": 0.04651162790698038,
          "durationTicks": 4,
          "midi": 45,
          "name": "A2",
          "ticks": 4809,
          "time": 55.91860465116279,
          "velocity": 0.09448818897637795
        },
        {
          "duration": 0.02325581395349019,
          "durationTicks": 2,
          "midi": 58,
          "name": "A#3",
          "ticks": 4814,
          "time": 55.97674418604651,
          "velocity": 0.28346456692913385
        },
        {
          "duration": 0.30232558139535115,
          "durationTicks": 26,
          "midi": 54,
          "name": "F#3",
          "ticks": 4816,
          "time": 56,
          "velocity": 0.4251968503937008
        },
        {
          "duration": 0.02325581395349019,
          "durationTicks": 2,
          "midi": 59,
          "name": "B3",
          "ticks": 4816,
          "time": 56,
          "velocity": 0.25196850393700787
        },
        {
          "duration": 0.03488372093023173,
          "durationTicks": 3,
          "midi": 63,
          "name": "D#4",
          "ticks": 4817,
          "time": 56.01162790697674,
          "velocity": 0.10236220472440945
        },
        {
          "duration": 0.40697674418604635,
          "durationTicks": 35,
          "midi": 59,
          "name": "B3",
          "ticks": 4819,
          "time": 56.03488372093023,
          "velocity": 0.25984251968503935
        },
        {
          "duration": 0.3604651162790731,
          "durationTicks": 31,
          "midi": 47,
          "name": "B2",
          "ticks": 4822,
          "time": 56.06976744186046,
          "velocity": 0.13385826771653545
        },
        {
          "duration": 0.05813953488372192,
          "durationTicks": 5,
          "midi": 63,
          "name": "D#4",
          "ticks": 4853,
          "time": 56.43023255813954,
          "velocity": 0.2440944881889764
        },
        {
          "duration": 0.06976744186046346,
          "durationTicks": 6,
          "midi": 54,
          "name": "F#3",
          "ticks": 4856,
          "time": 56.46511627906977,
          "velocity": 0.4251968503937008
        },
        {
          "duration": 0.1046511627906952,
          "durationTicks": 9,
          "midi": 71,
          "name": "B4",
          "ticks": 4856,
          "time": 56.46511627906977,
          "velocity": 0.10236220472440945
        },
        {
          "duration": 0.04651162790698038,
          "durationTicks": 4,
          "midi": 63,
          "name": "D#4",
          "ticks": 4862,
          "time": 56.53488372093023,
          "velocity": 0.11023622047244094
        },
        {
          "duration": 0.09302325581395365,
          "durationTicks": 8,
          "midi": 54,
          "name": "F#3",
          "ticks": 4863,
          "time": 56.54651162790697,
          "velocity": 0.2755905511811024
        },
        {
          "duration": 0.06976744186046346,
          "durationTicks": 6,
          "midi": 47,
          "name": "B2",
          "ticks": 4866,
          "time": 56.58139534883721,
          "velocity": 0.09448818897637795
        },
        {
          "duration": 0.03488372093023884,
          "durationTicks": 3,
          "midi": 55,
          "name": "G3",
          "ticks": 4871,
          "time": 56.63953488372093,
          "velocity": 0.2047244094488189
        },
        {
          "duration": 0.046511627906973274,
          "durationTicks": 4,
          "midi": 55,
          "name": "G3",
          "ticks": 4875,
          "time": 56.68604651162791,
          "velocity": 0.2283464566929134
        },
        {
          "duration": 0.03488372093023173,
          "durationTicks": 3,
          "midi": 61,
          "name": "C#4",
          "ticks": 4875,
          "time": 56.68604651162791,
          "velocity": 0.1732283464566929
        },
        {
          "duration": 0.04651162790698038,
          "durationTicks": 4,
          "midi": 44,
          "name": "G#2",
          "ticks": 4878,
          "time": 56.72093023255814,
          "velocity": 0.11811023622047244
        },
        {
          "duration": 0.03488372093023173,
          "durationTicks": 3,
          "midi": 55,
          "name": "G3",
          "ticks": 4882,
          "time": 56.76744186046512,
          "velocity": 0.30708661417322836
        },
        {
          "duration": 0.5581395348837219,
          "durationTicks": 48,
          "midi": 64,
          "name": "E4",
          "ticks": 4885,
          "time": 56.80232558139535,
          "velocity": 0.3700787401574803
        },
        {
          "duration": 0.05813953488372192,
          "durationTicks": 5,
          "midi": 52,
          "name": "E3",
          "ticks": 4887,
          "time": 56.825581395348834,
          "velocity": 0.23622047244094488
        },
        {
          "duration": 0.058139534883714816,
          "durationTicks": 5,
          "midi": 45,
          "name": "A2",
          "ticks": 4890,
          "time": 56.86046511627907,
          "velocity": 0.10236220472440945
        },
        {
          "duration": 0.023255813953483084,
          "durationTicks": 2,
          "midi": 56,
          "name": "G#3",
          "ticks": 4893,
          "time": 56.895348837209305,
          "velocity": 0.29133858267716534
        },
        {
          "duration": 0.03488372093023173,
          "durationTicks": 3,
          "midi": 59,
          "name": "B3",
          "ticks": 4894,
          "time": 56.906976744186046,
          "velocity": 0.2992125984251969
        },
        {
          "duration": 0.04651162790698038,
          "durationTicks": 4,
          "midi": 55,
          "name": "G3",
          "ticks": 4895,
          "time": 56.91860465116279,
          "velocity": 0.3464566929133858
        },
        {
          "duration": 0.43023255813953654,
          "durationTicks": 37,
          "midi": 68,
          "name": "G#4",
          "ticks": 4895,
          "time": 56.91860465116279,
          "velocity": 0.14173228346456693
        },
        {
          "duration": 0.3953488372092977,
          "durationTicks": 34,
          "midi": 59,
          "name": "B3",
          "ticks": 4898,
          "time": 56.95348837209303,
          "velocity": 0.2283464566929134
        },
        {
          "duration": 0.02325581395349019,
          "durationTicks": 2,
          "midi": 52,
          "name": "E3",
          "ticks": 4900,
          "time": 56.97674418604651,
          "velocity": 0.28346456692913385
        },
        {
          "duration": 0.34883720930233153,
          "durationTicks": 30,
          "midi": 52,
          "name": "E3",
          "ticks": 4903,
          "time": 57.01162790697674,
          "velocity": 0.2755905511811024
        },
        {
          "duration": 0.058139534883714816,
          "durationTicks": 5,
          "midi": 70,
          "name": "A#4",
          "ticks": 4933,
          "time": 57.36046511627907,
          "velocity": 0.13385826771653545
        },
        {
          "duration": 0.02325581395349019,
          "durationTicks": 2,
          "midi": 61,
          "name": "C#4",
          "ticks": 4934,
          "time": 57.372093023255815,
          "velocity": 0.2440944881889764
        },
        {
          "duration": 0.03488372093023173,
          "durationTicks": 3,
          "midi": 65,
          "name": "F4",
          "ticks": 4935,
          "time": 57.383720930232556,
          "velocity": 0.16535433070866143
        },
        {
          "duration": 0.081395348837205,
          "durationTicks": 7,
          "midi": 55,
          "name": "G3",
          "ticks": 4936,
          "time": 57.395348837209305,
          "velocity": 0.3464566929133858
        },
        {
          "duration": 0.24418604651162923,
          "durationTicks": 21,
          "midi": 64,
          "name": "E4",
          "ticks": 4953,
          "time": 57.593023255813954,
          "velocity": 0.2992125984251969
        },
        {
          "duration": 0.03488372093023173,
          "durationTicks": 3,
          "midi": 69,
          "name": "A4",
          "ticks": 4953,
          "time": 57.593023255813954,
          "velocity": 0.07086614173228346
        },
        {
          "duration": 0.05813953488372192,
          "durationTicks": 5,
          "midi": 55,
          "name": "G3",
          "ticks": 4954,
          "time": 57.604651162790695,
          "velocity": 0.36220472440944884
        },
        {
          "duration": 0.22093023255813904,
          "durationTicks": 19,
          "midi": 71,
          "name": "B4",
          "ticks": 4954,
          "time": 57.604651162790695,
          "velocity": 0.1889763779527559
        },
        {
          "duration": 0.02325581395349019,
          "durationTicks": 2,
          "midi": 52,
          "name": "E3",
          "ticks": 4958,
          "time": 57.651162790697676,
          "velocity": 0.3228346456692913
        },
        {
          "duration": 0.17441860465116577,
          "durationTicks": 15,
          "midi": 59,
          "name": "B3",
          "ticks": 4959,
          "time": 57.66279069767442,
          "velocity": 0.1732283464566929
        },
        {
          "duration": 0.15116279069767558,
          "durationTicks": 13,
          "midi": 52,
          "name": "E3",
          "ticks": 4961,
          "time": 57.68604651162791,
          "velocity": 0.2992125984251969
        },
        {
          "duration": 0.08139534883721211,
          "durationTicks": 7,
          "midi": 72,
          "name": "C5",
          "ticks": 4973,
          "time": 57.825581395348834,
          "velocity": 0.1889763779527559
        },
        {
          "duration": 0.03488372093023173,
          "durationTicks": 3,
          "midi": 53,
          "name": "F3",
          "ticks": 4977,
          "time": 57.872093023255815,
          "velocity": 0.36220472440944884
        },
        {
          "duration": 0.03488372093023173,
          "durationTicks": 3,
          "midi": 61,
          "name": "C#4",
          "ticks": 4979,
          "time": 57.895348837209305,
          "velocity": 0.2677165354330709
        },
        {
          "duration": 0.02325581395349019,
          "durationTicks": 2,
          "midi": 54,
          "name": "F#3",
          "ticks": 4980,
          "time": 57.906976744186046,
          "velocity": 0.44881889763779526
        },
        {
          "duration": 0.1860465116279073,
          "durationTicks": 16,
          "midi": 55,
          "name": "G3",
          "ticks": 4982,
          "time": 57.93023255813954,
          "velocity": 0.48031496062992124
        },
        {
          "duration": 0.046511627906973274,
          "durationTicks": 4,
          "midi": 62,
          "name": "D4",
          "ticks": 4982,
          "time": 57.93023255813954,
          "velocity": 0.11811023622047244
        },
        {
          "duration": 0.02325581395349019,
          "durationTicks": 2,
          "midi": 63,
          "name": "D#4",
          "ticks": 5002,
          "time": 58.16279069767442,
          "velocity": 0.25984251968503935
        },
        {
          "duration": 0.02325581395349019,
          "durationTicks": 2,
          "midi": 53,
          "name": "F3",
          "ticks": 5004,
          "time": 58.18604651162791,
          "velocity": 0.3228346456692913
        },
        {
          "duration": 0.12790697674418539,
          "durationTicks": 11,
          "midi": 64,
          "name": "E4",
          "ticks": 5005,
          "time": 58.19767441860465,
          "velocity": 0.2283464566929134
        },
        {
          "duration": 0.1046511627907023,
          "durationTicks": 9,
          "midi": 71,
          "name": "B4",
          "ticks": 5005,
          "time": 58.19767441860465,
          "velocity": 0.11811023622047244
        },
        {
          "duration": 0.023255813953483084,
          "durationTicks": 2,
          "midi": 52,
          "name": "E3",
          "ticks": 5006,
          "time": 58.2093023255814,
          "velocity": 0.33070866141732286
        },
        {
          "duration": 0.1046511627906952,
          "durationTicks": 9,
          "midi": 59,
          "name": "B3",
          "ticks": 5006,
          "time": 58.2093023255814,
          "velocity": 0.2755905511811024
        },
        {
          "duration": 0.046511627906973274,
          "durationTicks": 4,
          "midi": 52,
          "name": "E3",
          "ticks": 5011,
          "time": 58.26744186046512,
          "velocity": 0.29133858267716534
        },
        {
          "duration": 0.02325581395349019,
          "durationTicks": 2,
          "midi": 57,
          "name": "A3",
          "ticks": 5015,
          "time": 58.31395348837209,
          "velocity": 0.28346456692913385
        },
        {
          "duration": 0.11627906976744384,
          "durationTicks": 10,
          "midi": 44,
          "name": "G#2",
          "ticks": 5017,
          "time": 58.33720930232558,
          "velocity": 0.1889763779527559
        },
        {
          "duration": 0.081395348837205,
          "durationTicks": 7,
          "midi": 55,
          "name": "G3",
          "ticks": 5017,
          "time": 58.33720930232558,
          "velocity": 0.3228346456692913
        },
        {
          "duration": 0.02325581395349019,
          "durationTicks": 2,
          "midi": 55,
          "name": "G3",
          "ticks": 5032,
          "time": 58.51162790697674,
          "velocity": 0.2283464566929134
        },
        {
          "duration": 0.02325581395349019,
          "durationTicks": 2,
          "midi": 56,
          "name": "G#3",
          "ticks": 5034,
          "time": 58.53488372093023,
          "velocity": 0.3464566929133858
        },
        {
          "duration": 0.09302325581395365,
          "durationTicks": 8,
          "midi": 62,
          "name": "D4",
          "ticks": 5035,
          "time": 58.54651162790697,
          "velocity": 0.31496062992125984
        },
        {
          "duration": 0.1046511627907023,
          "durationTicks": 9,
          "midi": 69,
          "name": "A4",
          "ticks": 5035,
          "time": 58.54651162790697,
          "velocity": 0.2125984251968504
        },
        {
          "duration": 0.02325581395349019,
          "durationTicks": 2,
          "midi": 55,
          "name": "G3",
          "ticks": 5036,
          "time": 58.55813953488372,
          "velocity": 0.29133858267716534
        },
        {
          "duration": 0.08139534883721211,
          "durationTicks": 7,
          "midi": 50,
          "name": "D3",
          "ticks": 5037,
          "time": 58.56976744186046,
          "velocity": 0.2125984251968504
        },
        {
          "duration": 0.03488372093023173,
          "durationTicks": 3,
          "midi": 57,
          "name": "A3",
          "ticks": 5041,
          "time": 58.616279069767444,
          "velocity": 0.30708661417322836
        },
        {
          "duration": 0.04651162790698038,
          "durationTicks": 4,
          "midi": 64,
          "name": "E4",
          "ticks": 5043,
          "time": 58.63953488372093,
          "velocity": 0.16535433070866143
        },
        {
          "duration": 0.05813953488372192,
          "durationTicks": 5,
          "midi": 55,
          "name": "G3",
          "ticks": 5044,
          "time": 58.651162790697676,
          "velocity": 0.29133858267716534
        },
        {
          "duration": 0.03488372093023173,
          "durationTicks": 3,
          "midi": 53,
          "name": "F3",
          "ticks": 5053,
          "time": 58.75581395348837,
          "velocity": 0.30708661417322836
        },
        {
          "duration": 0.023255813953483084,
          "durationTicks": 2,
          "midi": 59,
          "name": "B3",
          "ticks": 5054,
          "time": 58.76744186046512,
          "velocity": 0.25196850393700787
        },
        {
          "duration": 0.4418604651162781,
          "durationTicks": 38,
          "midi": 72,
          "name": "C5",
          "ticks": 5054,
          "time": 58.76744186046512,
          "velocity": 0.13385826771653545
        },
        {
          "duration": 0.418604651162795,
          "durationTicks": 36,
          "midi": 60,
          "name": "C4",
          "ticks": 5056,
          "time": 58.7906976744186,
          "velocity": 0.25984251968503935
        },
        {
          "duration": 0.40697674418604635,
          "durationTicks": 35,
          "midi": 55,
          "name": "G3",
          "ticks": 5057,
          "time": 58.80232558139535,
          "velocity": 0.44881889763779526
        },
        {
          "duration": 0.40697674418604635,
          "durationTicks": 35,
          "midi": 48,
          "name": "C3",
          "ticks": 5058,
          "time": 58.81395348837209,
          "velocity": 0.1732283464566929
        },
        {
          "duration": 0.17441860465115866,
          "durationTicks": 15,
          "midi": 48,
          "name": "C3",
          "ticks": 5095,
          "time": 59.24418604651163,
          "velocity": 0.16535433070866143
        },
        {
          "duration": 0.2093023255813975,
          "durationTicks": 18,
          "midi": 55,
          "name": "G3",
          "ticks": 5095,
          "time": 59.24418604651163,
          "velocity": 0.4251968503937008
        },
        {
          "duration": 0.19767441860465595,
          "durationTicks": 17,
          "midi": 60,
          "name": "C4",
          "ticks": 5096,
          "time": 59.25581395348837,
          "velocity": 0.2992125984251969
        },
        {
          "duration": 0.046511627906973274,
          "durationTicks": 4,
          "midi": 76,
          "name": "E5",
          "ticks": 5108,
          "time": 59.395348837209305,
          "velocity": 0.10236220472440945
        },
        {
          "duration": 0.03488372093023173,
          "durationTicks": 3,
          "midi": 54,
          "name": "F#3",
          "ticks": 5113,
          "time": 59.45348837209303,
          "velocity": 0.2755905511811024
        },
        {
          "duration": 0.02325581395349019,
          "durationTicks": 2,
          "midi": 54,
          "name": "F#3",
          "ticks": 5117,
          "time": 59.5,
          "velocity": 0.30708661417322836
        },
        {
          "duration": 0.03488372093023884,
          "durationTicks": 3,
          "midi": 45,
          "name": "A2",
          "ticks": 5121,
          "time": 59.54651162790697,
          "velocity": 0.07874015748031496
        },
        {
          "duration": 0.02325581395349019,
          "durationTicks": 2,
          "midi": 54,
          "name": "F#3",
          "ticks": 5126,
          "time": 59.604651162790695,
          "velocity": 0.4015748031496063
        },
        {
          "duration": 0.05813953488372192,
          "durationTicks": 5,
          "midi": 55,
          "name": "G3",
          "ticks": 5128,
          "time": 59.627906976744185,
          "velocity": 0.4015748031496063
        },
        {
          "duration": 0.02325581395349019,
          "durationTicks": 2,
          "midi": 58,
          "name": "A#3",
          "ticks": 5133,
          "time": 59.68604651162791,
          "velocity": 0.2992125984251969
        },
        {
          "duration": 0.3139534883720927,
          "durationTicks": 27,
          "midi": 54,
          "name": "F#3",
          "ticks": 5134,
          "time": 59.69767441860465,
          "velocity": 0.4251968503937008
        },
        {
          "duration": 0.03488372093023173,
          "durationTicks": 3,
          "midi": 75,
          "name": "D#5",
          "ticks": 5134,
          "time": 59.69767441860465,
          "velocity": 0.10236220472440945
        },
        {
          "duration": 0.4418604651162781,
          "durationTicks": 38,
          "midi": 59,
          "name": "B3",
          "ticks": 5135,
          "time": 59.7093023255814,
          "velocity": 0.25196850393700787
        },
        {
          "duration": 0.11627906976743674,
          "durationTicks": 10,
          "midi": 63,
          "name": "D#4",
          "ticks": 5135,
          "time": 59.7093023255814,
          "velocity": 0.16535433070866143
        },
        {
          "duration": 0.03488372093023173,
          "durationTicks": 3,
          "midi": 47,
          "name": "B2",
          "ticks": 5139,
          "time": 59.75581395348837,
          "velocity": 0.15748031496062992
        },
        {
          "duration": 0.058139534883714816,
          "durationTicks": 5,
          "midi": 68,
          "name": "G#4",
          "ticks": 5140,
          "time": 59.76744186046512,
          "velocity": 0.09448818897637795
        },
        {
          "duration": 0.32558139534883423,
          "durationTicks": 28,
          "midi": 47,
          "name": "B2",
          "ticks": 5143,
          "time": 59.80232558139535,
          "velocity": 0.16535433070866143
        },
        {
          "duration": 0.03488372093023173,
          "durationTicks": 3,
          "midi": 63,
          "name": "D#4",
          "ticks": 5171,
          "time": 60.127906976744185,
          "velocity": 0.1732283464566929
        },
        {
          "duration": 0.06976744186047057,
          "durationTicks": 6,
          "midi": 55,
          "name": "G3",
          "ticks": 5172,
          "time": 60.13953488372093,
          "velocity": 0.4015748031496063
        },
        {
          "duration": 0.05813953488372192,
          "durationTicks": 5,
          "midi": 65,
          "name": "F4",
          "ticks": 5173,
          "time": 60.151162790697676,
          "velocity": 0.14960629921259844
        },
        {
          "duration": 0.17441860465116577,
          "durationTicks": 15,
          "midi": 59,
          "name": "B3",
          "ticks": 5176,
          "time": 60.18604651162791,
          "velocity": 0.2047244094488189
        },
        {
          "duration": 0.023255813953483084,
          "durationTicks": 2,
          "midi": 54,
          "name": "F#3",
          "ticks": 5178,
          "time": 60.2093023255814,
          "velocity": 0.3779527559055118
        },
        {
          "duration": 0.1046511627906952,
          "durationTicks": 9,
          "midi": 75,
          "name": "D#5",
          "ticks": 5181,
          "time": 60.24418604651163,
          "velocity": 0.07874015748031496
        },
        {
          "duration": 0.046511627906973274,
          "durationTicks": 4,
          "midi": 78,
          "name": "F#5",
          "ticks": 5181,
          "time": 60.24418604651163,
          "velocity": 0.07086614173228346
        },
        {
          "duration": 0.09302325581395365,
          "durationTicks": 8,
          "midi": 54,
          "name": "F#3",
          "ticks": 5182,
          "time": 60.25581395348837,
          "velocity": 0.25196850393700787
        },
        {
          "duration": 0.03488372093023173,
          "durationTicks": 3,
          "midi": 54,
          "name": "F#3",
          "ticks": 5192,
          "time": 60.372093023255815,
          "velocity": 0.10236220472440945
        },
        {
          "duration": 0.06976744186046346,
          "durationTicks": 6,
          "midi": 44,
          "name": "G#2",
          "ticks": 5197,
          "time": 60.43023255813954,
          "velocity": 0.2047244094488189
        },
        {
          "duration": 0.046511627906973274,
          "durationTicks": 4,
          "midi": 51,
          "name": "D#3",
          "ticks": 5200,
          "time": 60.46511627906977,
          "velocity": 0.2047244094488189
        },
        {
          "duration": 0.04651162790698038,
          "durationTicks": 4,
          "midi": 55,
          "name": "G3",
          "ticks": 5204,
          "time": 60.51162790697674,
          "velocity": 0.33858267716535434
        },
        {
          "duration": 0.03488372093023173,
          "durationTicks": 3,
          "midi": 63,
          "name": "D#4",
          "ticks": 5206,
          "time": 60.53488372093023,
          "velocity": 0.13385826771653545
        },
        {
          "duration": 0.03488372093023173,
          "durationTicks": 3,
          "midi": 51,
          "name": "D#3",
          "ticks": 5208,
          "time": 60.55813953488372,
          "velocity": 0.16535433070866143
        },
        {
          "duration": 0.03488372093023173,
          "durationTicks": 3,
          "midi": 45,
          "name": "A2",
          "ticks": 5209,
          "time": 60.56976744186046,
          "velocity": 0.11023622047244094
        },
        {
          "duration": 0.43023255813953654,
          "durationTicks": 37,
          "midi": 64,
          "name": "E4",
          "ticks": 5214,
          "time": 60.627906976744185,
          "velocity": 0.33070866141732286
        },
        {
          "duration": 0.08139534883721211,
          "durationTicks": 7,
          "midi": 75,
          "name": "D#5",
          "ticks": 5215,
          "time": 60.63953488372093,
          "velocity": 0.07874015748031496
        },
        {
          "duration": 0.11627906976744384,
          "durationTicks": 10,
          "midi": 59,
          "name": "B3",
          "ticks": 5216,
          "time": 60.651162790697676,
          "velocity": 0.2440944881889764
        },
        {
          "duration": 0.03488372093023173,
          "durationTicks": 3,
          "midi": 67,
          "name": "G4",
          "ticks": 5216,
          "time": 60.651162790697676,
          "velocity": 0.08661417322834646
        },
        {
          "duration": 0.3953488372093048,
          "durationTicks": 34,
          "midi": 52,
          "name": "E3",
          "ticks": 5217,
          "time": 60.66279069767442,
          "velocity": 0.30708661417322836
        },
        {
          "duration": 0.03488372093023173,
          "durationTicks": 3,
          "midi": 53,
          "name": "F3",
          "ticks": 5251,
          "time": 61.05813953488372,
          "velocity": 0.2755905511811024
        },
        {
          "duration": 0.02325581395349019,
          "durationTicks": 2,
          "midi": 63,
          "name": "D#4",
          "ticks": 5251,
          "time": 61.05813953488372,
          "velocity": 0.2283464566929134
        },
        {
          "duration": 0.06976744186046346,
          "durationTicks": 6,
          "midi": 64,
          "name": "E4",
          "ticks": 5253,
          "time": 61.08139534883721,
          "velocity": 0.2992125984251969
        },
        {
          "duration": 0.03488372093023173,
          "durationTicks": 3,
          "midi": 71,
          "name": "B4",
          "ticks": 5253,
          "time": 61.08139534883721,
          "velocity": 0.08661417322834646
        },
        {
          "duration": 0.08139534883721211,
          "durationTicks": 7,
          "midi": 68,
          "name": "G#4",
          "ticks": 5254,
          "time": 61.093023255813954,
          "velocity": 0.13385826771653545
        },
        {
          "duration": 0.17441860465116577,
          "durationTicks": 15,
          "midi": 59,
          "name": "B3",
          "ticks": 5255,
          "time": 61.104651162790695,
          "velocity": 0.31496062992125984
        },
        {
          "duration": 0.046511627906973274,
          "durationTicks": 4,
          "midi": 60,
          "name": "C4",
          "ticks": 5270,
          "time": 61.27906976744186,
          "velocity": 0.11811023622047244
        },
        {
          "duration": 0.03488372093023173,
          "durationTicks": 3,
          "midi": 54,
          "name": "F#3",
          "ticks": 5272,
          "time": 61.30232558139535,
          "velocity": 0.3700787401574803
        },
        {
          "duration": 0.2674418604651194,
          "durationTicks": 23,
          "midi": 64,
          "name": "E4",
          "ticks": 5273,
          "time": 61.31395348837209,
          "velocity": 0.3543307086614173
        },
        {
          "duration": 0.02325581395349019,
          "durationTicks": 2,
          "midi": 55,
          "name": "G3",
          "ticks": 5275,
          "time": 61.33720930232558,
          "velocity": 0.33858267716535434
        },
        {
          "duration": 0.03488372093023173,
          "durationTicks": 3,
          "midi": 44,
          "name": "G#2",
          "ticks": 5276,
          "time": 61.348837209302324,
          "velocity": 0.08661417322834646
        },
        {
          "duration": 0.09302325581395365,
          "durationTicks": 8,
          "midi": 71,
          "name": "B4",
          "ticks": 5276,
          "time": 61.348837209302324,
          "velocity": 0.10236220472440945
        },
        {
          "duration": 0.09302325581395365,
          "durationTicks": 8,
          "midi": 52,
          "name": "E3",
          "ticks": 5283,
          "time": 61.43023255813954,
          "velocity": 0.2992125984251969
        },
        {
          "duration": 0.03488372093023173,
          "durationTicks": 3,
          "midi": 59,
          "name": "B3",
          "ticks": 5288,
          "time": 61.48837209302326,
          "velocity": 0.08661417322834646
        },
        {
          "duration": 0.03488372093023173,
          "durationTicks": 3,
          "midi": 54,
          "name": "F#3",
          "ticks": 5292,
          "time": 61.53488372093023,
          "velocity": 0.3464566929133858
        },
        {
          "duration": 0.04651162790698038,
          "durationTicks": 4,
          "midi": 71,
          "name": "B4",
          "ticks": 5293,
          "time": 61.54651162790697,
          "velocity": 0.11811023622047244
        },
        {
          "duration": 0.023255813953483084,
          "durationTicks": 2,
          "midi": 60,
          "name": "C4",
          "ticks": 5296,
          "time": 61.58139534883721,
          "velocity": 0.2677165354330709
        },
        {
          "duration": 0.03488372093023173,
          "durationTicks": 3,
          "midi": 65,
          "name": "F4",
          "ticks": 5296,
          "time": 61.58139534883721,
          "velocity": 0.36220472440944884
        },
        {
          "duration": 0.09302325581395365,
          "durationTicks": 8,
          "midi": 54,
          "name": "F#3",
          "ticks": 5297,
          "time": 61.593023255813954,
          "velocity": 0.41732283464566927
        },
        {
          "duration": 0.09302325581395365,
          "durationTicks": 8,
          "midi": 61,
          "name": "C#4",
          "ticks": 5298,
          "time": 61.604651162790695,
          "velocity": 0.2283464566929134
        },
        {
          "duration": 0.09302325581395365,
          "durationTicks": 8,
          "midi": 70,
          "name": "A#4",
          "ticks": 5298,
          "time": 61.604651162790695,
          "velocity": 0.10236220472440945
        },
        {
          "duration": 0.046511627906973274,
          "durationTicks": 4,
          "midi": 65,
          "name": "F4",
          "ticks": 5304,
          "time": 61.674418604651166,
          "velocity": 0.11811023622047244
        },
        {
          "duration": 0.02325581395349019,
          "durationTicks": 2,
          "midi": 53,
          "name": "F3",
          "ticks": 5305,
          "time": 61.68604651162791,
          "velocity": 0.2440944881889764
        },
        {
          "duration": 0.03488372093023173,
          "durationTicks": 3,
          "midi": 54,
          "name": "F#3",
          "ticks": 5307,
          "time": 61.7093023255814,
          "velocity": 0.2204724409448819
        },
        {
          "duration": 0.046511627906973274,
          "durationTicks": 4,
          "midi": 65,
          "name": "F4",
          "ticks": 5320,
          "time": 61.86046511627907,
          "velocity": 0.2440944881889764
        },
        {
          "duration": 0.22093023255813904,
          "durationTicks": 19,
          "midi": 59,
          "name": "B3",
          "ticks": 5321,
          "time": 61.872093023255815,
          "velocity": 0.2992125984251969
        },
        {
          "duration": 0.03488372093023173,
          "durationTicks": 3,
          "midi": 68,
          "name": "G#4",
          "ticks": 5323,
          "time": 61.895348837209305,
          "velocity": 0.12598425196850394
        },
        {
          "duration": 0.12790697674418539,
          "durationTicks": 11,
          "midi": 64,
          "name": "E4",
          "ticks": 5324,
          "time": 61.906976744186046,
          "velocity": 0.2755905511811024
        },
        {
          "duration": 0.08139534883721211,
          "durationTicks": 7,
          "midi": 52,
          "name": "E3",
          "ticks": 5327,
          "time": 61.94186046511628,
          "velocity": 0.30708661417322836
        },
        {
          "duration": 0.046511627906973274,
          "durationTicks": 4,
          "midi": 55,
          "name": "G3",
          "ticks": 5347,
          "time": 62.174418604651166,
          "velocity": 0.3543307086614173
        },
        {
          "duration": 0.09302325581395365,
          "durationTicks": 8,
          "midi": 69,
          "name": "A4",
          "ticks": 5349,
          "time": 62.19767441860465,
          "velocity": 0.18110236220472442
        },
        {
          "duration": 0.046511627906973274,
          "durationTicks": 4,
          "midi": 65,
          "name": "F4",
          "ticks": 5350,
          "time": 62.2093023255814,
          "velocity": 0.2125984251968504
        },
        {
          "duration": 0.06976744186047057,
          "durationTicks": 6,
          "midi": 50,
          "name": "D3",
          "ticks": 5352,
          "time": 62.23255813953488,
          "velocity": 0.23622047244094488
        },
        {
          "duration": 0.05813953488372192,
          "durationTicks": 5,
          "midi": 57,
          "name": "A3",
          "ticks": 5352,
          "time": 62.23255813953488,
          "velocity": 0.33070866141732286
        },
        {
          "duration": 0.05813953488372192,
          "durationTicks": 5,
          "midi": 62,
          "name": "D4",
          "ticks": 5352,
          "time": 62.23255813953488,
          "velocity": 0.2677165354330709
        },
        {
          "duration": 0.03488372093023173,
          "durationTicks": 3,
          "midi": 61,
          "name": "C#4",
          "ticks": 5357,
          "time": 62.2906976744186,
          "velocity": 0.13385826771653545
        },
        {
          "duration": 0.03488372093023173,
          "durationTicks": 3,
          "midi": 55,
          "name": "G3",
          "ticks": 5359,
          "time": 62.31395348837209,
          "velocity": 0.14960629921259844
        },
        {
          "duration": 0.03488372093023884,
          "durationTicks": 3,
          "midi": 44,
          "name": "G#2",
          "ticks": 5360,
          "time": 62.325581395348834,
          "velocity": 0.08661417322834646
        },
        {
          "duration": 0.02325581395349019,
          "durationTicks": 2,
          "midi": 55,
          "name": "G3",
          "ticks": 5372,
          "time": 62.46511627906977,
          "velocity": 0.3228346456692913
        },
        {
          "duration": 0.02325581395349019,
          "durationTicks": 2,
          "midi": 60,
          "name": "C4",
          "ticks": 5373,
          "time": 62.47674418604651,
          "velocity": 0.28346456692913385
        },
        {
          "duration": 0.3139534883720927,
          "durationTicks": 27,
          "midi": 55,
          "name": "G3",
          "ticks": 5375,
          "time": 62.5,
          "velocity": 0.47244094488188976
        },
        {
          "duration": 0.17441860465115866,
          "durationTicks": 15,
          "midi": 48,
          "name": "C3",
          "ticks": 5380,
          "time": 62.55813953488372,
          "velocity": 0.12598425196850394
        },
        {
          "duration": 0.05813953488372192,
          "durationTicks": 5,
          "midi": 60,
          "name": "C4",
          "ticks": 5393,
          "time": 62.7093023255814,
          "velocity": 0.13385826771653545
        },
        {
          "duration": 0.05813953488372192,
          "durationTicks": 5,
          "midi": 62,
          "name": "D4",
          "ticks": 5401,
          "time": 62.80232558139535,
          "velocity": 0.2125984251968504
        },
        {
          "duration": 0.11627906976744384,
          "durationTicks": 10,
          "midi": 50,
          "name": "D3",
          "ticks": 5402,
          "time": 62.81395348837209,
          "velocity": 0.2677165354330709
        },
        {
          "duration": 0.081395348837205,
          "durationTicks": 7,
          "midi": 57,
          "name": "A3",
          "ticks": 5404,
          "time": 62.83720930232558,
          "velocity": 0.3228346456692913
        },
        {
          "duration": 0.09302325581395365,
          "durationTicks": 8,
          "midi": 55,
          "name": "G3",
          "ticks": 5412,
          "time": 62.93023255813954,
          "velocity": 0.3937007874015748
        },
        {
          "duration": 0.1046511627906952,
          "durationTicks": 9,
          "midi": 44,
          "name": "G#2",
          "ticks": 5414,
          "time": 62.95348837209303,
          "velocity": 0.2204724409448819
        },
        {
          "duration": 0.03488372093023173,
          "durationTicks": 3,
          "midi": 54,
          "name": "F#3",
          "ticks": 5428,
          "time": 63.116279069767444,
          "velocity": 0.4094488188976378
        },
        {
          "duration": 0.1860465116279073,
          "durationTicks": 16,
          "midi": 60,
          "name": "C4",
          "ticks": 5429,
          "time": 63.127906976744185,
          "velocity": 0.2677165354330709
        },
        {
          "duration": 0.09302325581395365,
          "durationTicks": 8,
          "midi": 55,
          "name": "G3",
          "ticks": 5431,
          "time": 63.151162790697676,
          "velocity": 0.4566929133858268
        },
        {
          "duration": 0.09302325581395365,
          "durationTicks": 8,
          "midi": 48,
          "name": "C3",
          "ticks": 5432,
          "time": 63.16279069767442,
          "velocity": 0.14173228346456693
        },
        {
          "duration": 0.09302325581395365,
          "durationTicks": 8,
          "midi": 55,
          "name": "G3",
          "ticks": 5440,
          "time": 63.25581395348837,
          "velocity": 0.3543307086614173
        },
        {
          "duration": 0.36046511627906597,
          "durationTicks": 31,
          "midi": 71,
          "name": "B4",
          "ticks": 5450,
          "time": 63.372093023255815,
          "velocity": 0.2125984251968504
        },
        {
          "duration": 0.5232558139534902,
          "durationTicks": 45,
          "midi": 63,
          "name": "D#4",
          "ticks": 5451,
          "time": 63.383720930232556,
          "velocity": 0.2204724409448819
        },
        {
          "duration": 0.4534883720930196,
          "durationTicks": 39,
          "midi": 59,
          "name": "B3",
          "ticks": 5452,
          "time": 63.395348837209305,
          "velocity": 0.28346456692913385
        },
        {
          "duration": 0.04651162790698038,
          "durationTicks": 4,
          "midi": 55,
          "name": "G3",
          "ticks": 5453,
          "time": 63.406976744186046,
          "velocity": 0.4409448818897638
        },
        {
          "duration": 0.27906976744185386,
          "durationTicks": 24,
          "midi": 54,
          "name": "F#3",
          "ticks": 5457,
          "time": 63.45348837209303,
          "velocity": 0.41732283464566927
        },
        {
          "duration": 0.40697674418604635,
          "durationTicks": 35,
          "midi": 47,
          "name": "B2",
          "ticks": 5458,
          "time": 63.46511627906977,
          "velocity": 0.18110236220472442
        },
        {
          "duration": 0.02325581395349019,
          "durationTicks": 2,
          "midi": 54,
          "name": "F#3",
          "ticks": 5491,
          "time": 63.848837209302324,
          "velocity": 0.31496062992125984
        },
        {
          "duration": 0.03488372093023173,
          "durationTicks": 3,
          "midi": 71,
          "name": "B4",
          "ticks": 5491,
          "time": 63.848837209302324,
          "velocity": 0.15748031496062992
        },
        {
          "duration": 0.03488372093023173,
          "durationTicks": 3,
          "midi": 68,
          "name": "G#4",
          "ticks": 5492,
          "time": 63.86046511627907,
          "velocity": 0.07874015748031496
        },
        {
          "duration": 0.03488372093023173,
          "durationTicks": 3,
          "midi": 55,
          "name": "G3",
          "ticks": 5493,
          "time": 63.872093023255815,
          "velocity": 0.4330708661417323
        },
        {
          "duration": 0.05813953488372192,
          "durationTicks": 5,
          "midi": 54,
          "name": "F#3",
          "ticks": 5496,
          "time": 63.906976744186046,
          "velocity": 0.4094488188976378
        },
        {
          "duration": 0.09302325581395365,
          "durationTicks": 8,
          "midi": 47,
          "name": "B2",
          "ticks": 5497,
          "time": 63.91860465116279,
          "velocity": 0.10236220472440945
        },
        {
          "duration": 0.03488372093023173,
          "durationTicks": 3,
          "midi": 71,
          "name": "B4",
          "ticks": 5499,
          "time": 63.94186046511628,
          "velocity": 0.09448818897637795
        },
        {
          "duration": 0.03488372093023173,
          "durationTicks": 3,
          "midi": 54,
          "name": "F#3",
          "ticks": 5502,
          "time": 63.97674418604651,
          "velocity": 0.2440944881889764
        },
        {
          "duration": 0.04651162790698038,
          "durationTicks": 4,
          "midi": 55,
          "name": "G3",
          "ticks": 5505,
          "time": 64.01162790697674,
          "velocity": 0.18110236220472442
        },
        {
          "duration": 0.023255813953483084,
          "durationTicks": 2,
          "midi": 53,
          "name": "F3",
          "ticks": 5510,
          "time": 64.06976744186046,
          "velocity": 0.2283464566929134
        },
        {
          "duration": 0.023255813953497295,
          "durationTicks": 2,
          "midi": 55,
          "name": "G3",
          "ticks": 5512,
          "time": 64.09302325581395,
          "velocity": 0.2755905511811024
        },
        {
          "duration": 0.12790697674418539,
          "durationTicks": 11,
          "midi": 62,
          "name": "D4",
          "ticks": 5513,
          "time": 64.1046511627907,
          "velocity": 0.2047244094488189
        },
        {
          "duration": 0.04651162790698038,
          "durationTicks": 4,
          "midi": 55,
          "name": "G3",
          "ticks": 5515,
          "time": 64.12790697674419,
          "velocity": 0.2992125984251969
        },
        {
          "duration": 0.023255813953497295,
          "durationTicks": 2,
          "midi": 45,
          "name": "A2",
          "ticks": 5516,
          "time": 64.13953488372093,
          "velocity": 0.2677165354330709
        },
        {
          "duration": 0.023255813953483084,
          "durationTicks": 2,
          "midi": 45,
          "name": "A2",
          "ticks": 5519,
          "time": 64.17441860465117,
          "velocity": 0.25984251968503935
        },
        {
          "duration": 0.03488372093023884,
          "durationTicks": 3,
          "midi": 65,
          "name": "F4",
          "ticks": 5520,
          "time": 64.18604651162791,
          "velocity": 0.10236220472440945
        },
        {
          "duration": 0.023255813953497295,
          "durationTicks": 2,
          "midi": 53,
          "name": "F3",
          "ticks": 5521,
          "time": 64.19767441860465,
          "velocity": 0.2755905511811024
        },
        {
          "duration": 0.023255813953483084,
          "durationTicks": 2,
          "midi": 44,
          "name": "G#2",
          "ticks": 5523,
          "time": 64.22093023255815,
          "velocity": 0.25196850393700787
        },
        {
          "duration": 0.023255813953483084,
          "durationTicks": 2,
          "midi": 54,
          "name": "F#3",
          "ticks": 5525,
          "time": 64.24418604651163,
          "velocity": 0.2755905511811024
        },
        {
          "duration": 0.03488372093023884,
          "durationTicks": 3,
          "midi": 44,
          "name": "G#2",
          "ticks": 5526,
          "time": 64.25581395348837,
          "velocity": 0.28346456692913385
        },
        {
          "duration": 0.1046511627907023,
          "durationTicks": 9,
          "midi": 55,
          "name": "G3",
          "ticks": 5530,
          "time": 64.30232558139535,
          "velocity": 0.33858267716535434
        },
        {
          "duration": 0.5,
          "durationTicks": 43,
          "midi": 62,
          "name": "D4",
          "ticks": 5532,
          "time": 64.32558139534883,
          "velocity": 0.33070866141732286
        },
        {
          "duration": 0.034883720930224626,
          "durationTicks": 3,
          "midi": 44,
          "name": "G#2",
          "ticks": 5535,
          "time": 64.36046511627907,
          "velocity": 0.2047244094488189
        },
        {
          "duration": 0.3720930232558146,
          "durationTicks": 32,
          "midi": 71,
          "name": "B4",
          "ticks": 5536,
          "time": 64.37209302325581,
          "velocity": 0.12598425196850394
        },
        {
          "duration": 0.05813953488372192,
          "durationTicks": 5,
          "midi": 91,
          "name": "G6",
          "ticks": 5536,
          "time": 64.37209302325581,
          "velocity": 0.07086614173228346
        },
        {
          "duration": 0.418604651162795,
          "durationTicks": 36,
          "midi": 50,
          "name": "D3",
          "ticks": 5538,
          "time": 64.3953488372093,
          "velocity": 0.2440944881889764
        },
        {
          "duration": 0.04651162790698038,
          "durationTicks": 4,
          "midi": 55,
          "name": "G3",
          "ticks": 5542,
          "time": 64.44186046511628,
          "velocity": 0.1889763779527559
        },
        {
          "duration": 0.05813953488372192,
          "durationTicks": 5,
          "midi": 59,
          "name": "B3",
          "ticks": 5546,
          "time": 64.48837209302326,
          "velocity": 0.1968503937007874
        },
        {
          "duration": 0.15116279069768268,
          "durationTicks": 13,
          "midi": 55,
          "name": "G3",
          "ticks": 5548,
          "time": 64.51162790697674,
          "velocity": 0.2283464566929134
        },
        {
          "duration": 0.05813953488372192,
          "durationTicks": 5,
          "midi": 59,
          "name": "B3",
          "ticks": 5552,
          "time": 64.55813953488372,
          "velocity": 0.1889763779527559
        },
        {
          "duration": 0.16279069767441,
          "durationTicks": 14,
          "midi": 67,
          "name": "G4",
          "ticks": 5561,
          "time": 64.66279069767442,
          "velocity": 0.07086614173228346
        },
        {
          "duration": 0.24418604651162923,
          "durationTicks": 21,
          "midi": 55,
          "name": "G3",
          "ticks": 5572,
          "time": 64.79069767441861,
          "velocity": 0.3858267716535433
        },
        {
          "duration": 0.17441860465116577,
          "durationTicks": 15,
          "midi": 71,
          "name": "B4",
          "ticks": 5573,
          "time": 64.80232558139535,
          "velocity": 0.12598425196850394
        },
        {
          "duration": 0.03488372093023884,
          "durationTicks": 3,
          "midi": 44,
          "name": "G#2",
          "ticks": 5576,
          "time": 64.83720930232558,
          "velocity": 0.2204724409448819
        },
        {
          "duration": 0.04651162790698038,
          "durationTicks": 4,
          "midi": 62,
          "name": "D4",
          "ticks": 5576,
          "time": 64.83720930232558,
          "velocity": 0.08661417322834646
        },
        {
          "duration": 0.16279069767442422,
          "durationTicks": 14,
          "midi": 43,
          "name": "G2",
          "ticks": 5579,
          "time": 64.87209302325581,
          "velocity": 0.25196850393700787
        },
        {
          "duration": 0.04651162790696617,
          "durationTicks": 4,
          "midi": 50,
          "name": "D3",
          "ticks": 5588,
          "time": 64.97674418604652,
          "velocity": 0.1889763779527559
        },
        {
          "duration": 0.023255813953483084,
          "durationTicks": 2,
          "midi": 56,
          "name": "G#3",
          "ticks": 5593,
          "time": 65.03488372093024,
          "velocity": 0.3464566929133858
        },
        {
          "duration": 0.05813953488372192,
          "durationTicks": 5,
          "midi": 55,
          "name": "G3",
          "ticks": 5595,
          "time": 65.05813953488372,
          "velocity": 0.4330708661417323
        },
        {
          "duration": 0.04651162790698038,
          "durationTicks": 4,
          "midi": 43,
          "name": "G2",
          "ticks": 5596,
          "time": 65.06976744186046,
          "velocity": 0.2283464566929134
        },
        {
          "duration": 0.1860465116279073,
          "durationTicks": 16,
          "midi": 62,
          "name": "D4",
          "ticks": 5596,
          "time": 65.06976744186046,
          "velocity": 0.2755905511811024
        },
        {
          "duration": 0.034883720930224626,
          "durationTicks": 3,
          "midi": 56,
          "name": "G#3",
          "ticks": 5600,
          "time": 65.11627906976744,
          "velocity": 0.33070866141732286
        },
        {
          "duration": 0.13953488372092693,
          "durationTicks": 12,
          "midi": 43,
          "name": "G2",
          "ticks": 5601,
          "time": 65.12790697674419,
          "velocity": 0.2440944881889764
        },
        {
          "duration": 0.1046511627907023,
          "durationTicks": 9,
          "midi": 55,
          "name": "G3",
          "ticks": 5603,
          "time": 65.15116279069767,
          "velocity": 0.3779527559055118
        },
        {
          "duration": 0.04651162790698038,
          "durationTicks": 4,
          "midi": 50,
          "name": "D3",
          "ticks": 5607,
          "time": 65.19767441860465,
          "velocity": 0.23622047244094488
        },
        {
          "duration": 0.023255813953483084,
          "durationTicks": 2,
          "midi": 56,
          "name": "G#3",
          "ticks": 5612,
          "time": 65.25581395348837,
          "velocity": 0.3543307086614173
        },
        {
          "duration": 0.09302325581396076,
          "durationTicks": 8,
          "midi": 55,
          "name": "G3",
          "ticks": 5614,
          "time": 65.27906976744185,
          "velocity": 0.4645669291338583
        },
        {
          "duration": 0.2093023255813904,
          "durationTicks": 18,
          "midi": 62,
          "name": "D4",
          "ticks": 5616,
          "time": 65.30232558139535,
          "velocity": 0.31496062992125984
        },
        {
          "duration": 0.17441860465116577,
          "durationTicks": 15,
          "midi": 71,
          "name": "B4",
          "ticks": 5618,
          "time": 65.32558139534883,
          "velocity": 0.1732283464566929
        },
        {
          "duration": 0.05813953488372192,
          "durationTicks": 5,
          "midi": 50,
          "name": "D3",
          "ticks": 5620,
          "time": 65.34883720930233,
          "velocity": 0.2283464566929134
        },
        {
          "duration": 0.023255813953483084,
          "durationTicks": 2,
          "midi": 56,
          "name": "G#3",
          "ticks": 5622,
          "time": 65.37209302325581,
          "velocity": 0.3543307086614173
        },
        {
          "duration": 0.05813953488372192,
          "durationTicks": 5,
          "midi": 55,
          "name": "G3",
          "ticks": 5624,
          "time": 65.3953488372093,
          "velocity": 0.3858267716535433
        },
        {
          "duration": 0.09302325581394655,
          "durationTicks": 8,
          "midi": 50,
          "name": "D3",
          "ticks": 5626,
          "time": 65.4186046511628,
          "velocity": 0.25196850393700787
        },
        {
          "duration": 0.03488372093023884,
          "durationTicks": 3,
          "midi": 55,
          "name": "G3",
          "ticks": 5630,
          "time": 65.46511627906976,
          "velocity": 0.2992125984251969
        },
        {
          "duration": 0.25581395348837077,
          "durationTicks": 22,
          "midi": 55,
          "name": "G3",
          "ticks": 5634,
          "time": 65.51162790697674,
          "velocity": 0.4645669291338583
        },
        {
          "duration": 0.05813953488372192,
          "durationTicks": 5,
          "midi": 71,
          "name": "B4",
          "ticks": 5635,
          "time": 65.52325581395348,
          "velocity": 0.13385826771653545
        },
        {
          "duration": 0.2093023255813904,
          "durationTicks": 18,
          "midi": 62,
          "name": "D4",
          "ticks": 5636,
          "time": 65.53488372093024,
          "velocity": 0.2283464566929134
        },
        {
          "duration": 0.06976744186046346,
          "durationTicks": 6,
          "midi": 43,
          "name": "G2",
          "ticks": 5642,
          "time": 65.6046511627907,
          "velocity": 0.1732283464566929
        },
        {
          "duration": 0.05813953488372192,
          "durationTicks": 5,
          "midi": 71,
          "name": "B4",
          "ticks": 5648,
          "time": 65.67441860465117,
          "velocity": 0.10236220472440945
        },
        {
          "duration": 0.023255813953497295,
          "durationTicks": 2,
          "midi": 50,
          "name": "D3",
          "ticks": 5650,
          "time": 65.69767441860465,
          "velocity": 0.25196850393700787
        },
        {
          "duration": 0.034883720930224626,
          "durationTicks": 3,
          "midi": 63,
          "name": "D#4",
          "ticks": 5654,
          "time": 65.74418604651163,
          "velocity": 0.18110236220472442
        },
        {
          "duration": 0.16279069767442422,
          "durationTicks": 14,
          "midi": 71,
          "name": "B4",
          "ticks": 5656,
          "time": 65.76744186046511,
          "velocity": 0.14173228346456693
        },
        {
          "duration": 0.05813953488372192,
          "durationTicks": 5,
          "midi": 43,
          "name": "G2",
          "ticks": 5657,
          "time": 65.77906976744185,
          "velocity": 0.16535433070866143
        },
        {
          "duration": 0.09302325581396076,
          "durationTicks": 8,
          "midi": 55,
          "name": "G3",
          "ticks": 5657,
          "time": 65.77906976744185,
          "velocity": 0.4251968503937008
        },
        {
          "duration": 0.13953488372092693,
          "durationTicks": 12,
          "midi": 62,
          "name": "D4",
          "ticks": 5658,
          "time": 65.79069767441861,
          "velocity": 0.25196850393700787
        },
        {
          "duration": 0.09302325581396076,
          "durationTicks": 8,
          "midi": 55,
          "name": "G3",
          "ticks": 5666,
          "time": 65.88372093023256,
          "velocity": 0.4409448818897638
        },
        {
          "duration": 0.04651162790696617,
          "durationTicks": 4,
          "midi": 44,
          "name": "G#2",
          "ticks": 5674,
          "time": 65.97674418604652,
          "velocity": 0.2047244094488189
        },
        {
          "duration": 0.04651162790696617,
          "durationTicks": 4,
          "midi": 54,
          "name": "F#3",
          "ticks": 5674,
          "time": 65.97674418604652,
          "velocity": 0.3700787401574803
        },
        {
          "duration": 0.023255813953483084,
          "durationTicks": 2,
          "midi": 65,
          "name": "F4",
          "ticks": 5674,
          "time": 65.97674418604652,
          "velocity": 0.25984251968503935
        },
        {
          "duration": 0.22093023255814614,
          "durationTicks": 19,
          "midi": 64,
          "name": "E4",
          "ticks": 5676,
          "time": 66,
          "velocity": 0.28346456692913385
        },
        {
          "duration": 0.13953488372092693,
          "durationTicks": 12,
          "midi": 74,
          "name": "D5",
          "ticks": 5676,
          "time": 66,
          "velocity": 0.12598425196850394
        },
        {
          "duration": 0.17441860465116577,
          "durationTicks": 15,
          "midi": 67,
          "name": "G4",
          "ticks": 5677,
          "time": 66.01162790697674,
          "velocity": 0.14173228346456693
        },
        {
          "duration": 0.08139534883721922,
          "durationTicks": 7,
          "midi": 45,
          "name": "A2",
          "ticks": 5678,
          "time": 66.02325581395348,
          "velocity": 0.23622047244094488
        },
        {
          "duration": 0.1046511627907023,
          "durationTicks": 9,
          "midi": 55,
          "name": "G3",
          "ticks": 5678,
          "time": 66.02325581395348,
          "velocity": 0.4094488188976378
        },
        {
          "duration": 0.15116279069768268,
          "durationTicks": 13,
          "midi": 71,
          "name": "B4",
          "ticks": 5678,
          "time": 66.02325581395348,
          "velocity": 0.07086614173228346
        },
        {
          "duration": 0.023255813953497295,
          "durationTicks": 2,
          "midi": 51,
          "name": "D#3",
          "ticks": 5684,
          "time": 66.09302325581395,
          "velocity": 0.23622047244094488
        },
        {
          "duration": 0.03488372093023884,
          "durationTicks": 3,
          "midi": 58,
          "name": "A#3",
          "ticks": 5688,
          "time": 66.13953488372093,
          "velocity": 0.1732283464566929
        },
        {
          "duration": 0.05813953488372192,
          "durationTicks": 5,
          "midi": 69,
          "name": "A4",
          "ticks": 5688,
          "time": 66.13953488372093,
          "velocity": 0.12598425196850394
        },
        {
          "duration": 0.023255813953497295,
          "durationTicks": 2,
          "midi": 51,
          "name": "D#3",
          "ticks": 5689,
          "time": 66.15116279069767,
          "velocity": 0.2677165354330709
        },
        {
          "duration": 0.034883720930224626,
          "durationTicks": 3,
          "midi": 45,
          "name": "A2",
          "ticks": 5691,
          "time": 66.17441860465117,
          "velocity": 0.2283464566929134
        },
        {
          "duration": 0.034883720930224626,
          "durationTicks": 3,
          "midi": 60,
          "name": "C4",
          "ticks": 5691,
          "time": 66.17441860465117,
          "velocity": 0.1732283464566929
        },
        {
          "duration": 0.023255813953497295,
          "durationTicks": 2,
          "midi": 56,
          "name": "G#3",
          "ticks": 5693,
          "time": 66.19767441860465,
          "velocity": 0.25984251968503935
        },
        {
          "duration": 0.023255813953483084,
          "durationTicks": 2,
          "midi": 57,
          "name": "A3",
          "ticks": 5695,
          "time": 66.22093023255815,
          "velocity": 0.36220472440944884
        },
        {
          "duration": 0.04651162790696617,
          "durationTicks": 4,
          "midi": 64,
          "name": "E4",
          "ticks": 5696,
          "time": 66.23255813953489,
          "velocity": 0.1889763779527559
        },
        {
          "duration": 0.19767441860464885,
          "durationTicks": 17,
          "midi": 45,
          "name": "A2",
          "ticks": 5698,
          "time": 66.25581395348837,
          "velocity": 0.25196850393700787
        },
        {
          "duration": 0.023255813953497295,
          "durationTicks": 2,
          "midi": 56,
          "name": "G#3",
          "ticks": 5699,
          "time": 66.26744186046511,
          "velocity": 0.3228346456692913
        },
        {
          "duration": 0.1860465116279073,
          "durationTicks": 16,
          "midi": 61,
          "name": "C#4",
          "ticks": 5699,
          "time": 66.26744186046511,
          "velocity": 0.2125984251968504
        },
        {
          "duration": 0.12790697674418539,
          "durationTicks": 11,
          "midi": 57,
          "name": "A3",
          "ticks": 5703,
          "time": 66.31395348837209,
          "velocity": 0.28346456692913385
        },
        {
          "duration": 0.06976744186046346,
          "durationTicks": 6,
          "midi": 52,
          "name": "E3",
          "ticks": 5708,
          "time": 66.37209302325581,
          "velocity": 0.18110236220472442
        },
        {
          "duration": 0.04651162790696617,
          "durationTicks": 4,
          "midi": 76,
          "name": "E5",
          "ticks": 5711,
          "time": 66.40697674418605,
          "velocity": 0.07874015748031496
        },
        {
          "duration": 0.05813953488372192,
          "durationTicks": 5,
          "midi": 55,
          "name": "G3",
          "ticks": 5714,
          "time": 66.44186046511628,
          "velocity": 0.3700787401574803
        },
        {
          "duration": 0.03488372093023884,
          "durationTicks": 3,
          "midi": 69,
          "name": "A4",
          "ticks": 5715,
          "time": 66.45348837209302,
          "velocity": 0.12598425196850394
        },
        {
          "duration": 0.11627906976744384,
          "durationTicks": 10,
          "midi": 73,
          "name": "C#5",
          "ticks": 5718,
          "time": 66.48837209302326,
          "velocity": 0.14173228346456693
        },
        {
          "duration": 0.19767441860464885,
          "durationTicks": 17,
          "midi": 64,
          "name": "E4",
          "ticks": 5719,
          "time": 66.5,
          "velocity": 0.1732283464566929
        },
        {
          "duration": 0.05813953488372192,
          "durationTicks": 5,
          "midi": 61,
          "name": "C#4",
          "ticks": 5720,
          "time": 66.51162790697674,
          "velocity": 0.07874015748031496
        },
        {
          "duration": 0.023255813953483084,
          "durationTicks": 2,
          "midi": 53,
          "name": "F3",
          "ticks": 5722,
          "time": 66.53488372093024,
          "velocity": 0.29133858267716534
        },
        {
          "duration": 0.13953488372092693,
          "durationTicks": 12,
          "midi": 57,
          "name": "A3",
          "ticks": 5723,
          "time": 66.54651162790698,
          "velocity": 0.2440944881889764
        },
        {
          "duration": 0.12790697674418539,
          "durationTicks": 11,
          "midi": 52,
          "name": "E3",
          "ticks": 5724,
          "time": 66.55813953488372,
          "velocity": 0.2204724409448819
        },
        {
          "duration": 0.03488372093023884,
          "durationTicks": 3,
          "midi": 73,
          "name": "C#5",
          "ticks": 5732,
          "time": 66.65116279069767,
          "velocity": 0.11023622047244094
        },
        {
          "duration": 0.023255813953483084,
          "durationTicks": 2,
          "midi": 54,
          "name": "F#3",
          "ticks": 5735,
          "time": 66.68604651162791,
          "velocity": 0.2677165354330709
        },
        {
          "duration": 0.023255813953497295,
          "durationTicks": 2,
          "midi": 57,
          "name": "A3",
          "ticks": 5736,
          "time": 66.69767441860465,
          "velocity": 0.29133858267716534
        },
        {
          "duration": 0.03488372093023884,
          "durationTicks": 3,
          "midi": 44,
          "name": "G#2",
          "ticks": 5737,
          "time": 66.70930232558139,
          "velocity": 0.2204724409448819
        },
        {
          "duration": 0.023255813953497295,
          "durationTicks": 2,
          "midi": 65,
          "name": "F4",
          "ticks": 5737,
          "time": 66.70930232558139,
          "velocity": 0.2283464566929134
        },
        {
          "duration": 0.08139534883721922,
          "durationTicks": 7,
          "midi": 73,
          "name": "C#5",
          "ticks": 5737,
          "time": 66.70930232558139,
          "velocity": 0.14960629921259844
        },
        {
          "duration": 0.04651162790698038,
          "durationTicks": 4,
          "midi": 76,
          "name": "E5",
          "ticks": 5737,
          "time": 66.70930232558139,
          "velocity": 0.07086614173228346
        },
        {
          "duration": 0.17441860465116577,
          "durationTicks": 15,
          "midi": 61,
          "name": "C#4",
          "ticks": 5739,
          "time": 66.73255813953489,
          "velocity": 0.1968503937007874
        },
        {
          "duration": 0.19767441860464885,
          "durationTicks": 17,
          "midi": 64,
          "name": "E4",
          "ticks": 5739,
          "time": 66.73255813953489,
          "velocity": 0.28346456692913385
        },
        {
          "duration": 0.09302325581394655,
          "durationTicks": 8,
          "midi": 45,
          "name": "A2",
          "ticks": 5740,
          "time": 66.74418604651163,
          "velocity": 0.2440944881889764
        },
        {
          "duration": 0.16279069767442422,
          "durationTicks": 14,
          "midi": 57,
          "name": "A3",
          "ticks": 5741,
          "time": 66.75581395348837,
          "velocity": 0.3228346456692913
        },
        {
          "duration": 0.023255813953483084,
          "durationTicks": 2,
          "midi": 53,
          "name": "F3",
          "ticks": 5744,
          "time": 66.79069767441861,
          "velocity": 0.23622047244094488
        },
        {
          "duration": 0.1046511627907023,
          "durationTicks": 9,
          "midi": 52,
          "name": "E3",
          "ticks": 5746,
          "time": 66.81395348837209,
          "velocity": 0.2047244094488189
        },
        {
          "duration": 0.081395348837205,
          "durationTicks": 7,
          "midi": 45,
          "name": "A2",
          "ticks": 5749,
          "time": 66.84883720930233,
          "velocity": 0.15748031496062992
        },
        {
          "duration": 0.023255813953483084,
          "durationTicks": 2,
          "midi": 55,
          "name": "G3",
          "ticks": 5755,
          "time": 66.9186046511628,
          "velocity": 0.28346456692913385
        },
        {
          "duration": 0.034883720930224626,
          "durationTicks": 3,
          "midi": 46,
          "name": "A#2",
          "ticks": 5756,
          "time": 66.93023255813954,
          "velocity": 0.15748031496062992
        },
        {
          "duration": 0.034883720930224626,
          "durationTicks": 3,
          "midi": 65,
          "name": "F4",
          "ticks": 5756,
          "time": 66.93023255813954,
          "velocity": 0.1889763779527559
        },
        {
          "duration": 0.04651162790698038,
          "durationTicks": 4,
          "midi": 73,
          "name": "C#5",
          "ticks": 5757,
          "time": 66.94186046511628,
          "velocity": 0.12598425196850394
        },
        {
          "duration": 0.19767441860464885,
          "durationTicks": 17,
          "midi": 76,
          "name": "E5",
          "ticks": 5757,
          "time": 66.94186046511628,
          "velocity": 0.12598425196850394
        },
        {
          "duration": 0.03488372093023884,
          "durationTicks": 3,
          "midi": 69,
          "name": "A4",
          "ticks": 5758,
          "time": 66.95348837209302,
          "velocity": 0.07874015748031496
        },
        {
          "duration": 0.24418604651162923,
          "durationTicks": 21,
          "midi": 45,
          "name": "A2",
          "ticks": 5759,
          "time": 66.96511627906976,
          "velocity": 0.25196850393700787
        },
        {
          "duration": 0.43023255813953654,
          "durationTicks": 37,
          "midi": 64,
          "name": "E4",
          "ticks": 5759,
          "time": 66.96511627906976,
          "velocity": 0.31496062992125984
        },
        {
          "duration": 0.023255813953483084,
          "durationTicks": 2,
          "midi": 57,
          "name": "A3",
          "ticks": 5761,
          "time": 66.98837209302326,
          "velocity": 0.30708661417322836
        },
        {
          "duration": 0.16279069767442422,
          "durationTicks": 14,
          "midi": 73,
          "name": "C#5",
          "ticks": 5763,
          "time": 67.01162790697674,
          "velocity": 0.1732283464566929
        },
        {
          "duration": 0.15116279069768268,
          "durationTicks": 13,
          "midi": 57,
          "name": "A3",
          "ticks": 5764,
          "time": 67.02325581395348,
          "velocity": 0.30708661417322836
        },
        {
          "duration": 0.11627906976744384,
          "durationTicks": 10,
          "midi": 52,
          "name": "E3",
          "ticks": 5766,
          "time": 67.04651162790698,
          "velocity": 0.2047244094488189
        },
        {
          "duration": 0.081395348837205,
          "durationTicks": 7,
          "midi": 55,
          "name": "G3",
          "ticks": 5777,
          "time": 67.17441860465117,
          "velocity": 0.3700787401574803
        },
        {
          "duration": 0.2325581395348877,
          "durationTicks": 20,
          "midi": 61,
          "name": "C#4",
          "ticks": 5778,
          "time": 67.18604651162791,
          "velocity": 0.2283464566929134
        },
        {
          "duration": 0.19767441860464885,
          "durationTicks": 17,
          "midi": 69,
          "name": "A4",
          "ticks": 5779,
          "time": 67.19767441860465,
          "velocity": 0.13385826771653545
        },
        {
          "duration": 0.081395348837205,
          "durationTicks": 7,
          "midi": 45,
          "name": "A2",
          "ticks": 5781,
          "time": 67.22093023255815,
          "velocity": 0.2677165354330709
        },
        {
          "duration": 0.023255813953483084,
          "durationTicks": 2,
          "midi": 53,
          "name": "F3",
          "ticks": 5784,
          "time": 67.25581395348837,
          "velocity": 0.2440944881889764
        },
        {
          "duration": 0.1046511627907023,
          "durationTicks": 9,
          "midi": 45,
          "name": "A2",
          "ticks": 5789,
          "time": 67.31395348837209,
          "velocity": 0.18110236220472442
        },
        {
          "duration": 0.06976744186046346,
          "durationTicks": 6,
          "midi": 52,
          "name": "E3",
          "ticks": 5789,
          "time": 67.31395348837209,
          "velocity": 0.1889763779527559
        },
        {
          "duration": 0.05813953488372192,
          "durationTicks": 5,
          "midi": 57,
          "name": "A3",
          "ticks": 5791,
          "time": 67.33720930232558,
          "velocity": 0.1889763779527559
        },
        {
          "duration": 0.03488372093023884,
          "durationTicks": 3,
          "midi": 65,
          "name": "F4",
          "ticks": 5796,
          "time": 67.3953488372093,
          "velocity": 0.13385826771653545
        },
        {
          "duration": 0.1860465116279073,
          "durationTicks": 16,
          "midi": 73,
          "name": "C#5",
          "ticks": 5798,
          "time": 67.4186046511628,
          "velocity": 0.1968503937007874
        },
        {
          "duration": 0.023255813953483084,
          "durationTicks": 2,
          "midi": 55,
          "name": "G3",
          "ticks": 5799,
          "time": 67.43023255813954,
          "velocity": 0.3464566929133858
        },
        {
          "duration": 0.16279069767441,
          "durationTicks": 14,
          "midi": 61,
          "name": "C#4",
          "ticks": 5799,
          "time": 67.43023255813954,
          "velocity": 0.18110236220472442
        },
        {
          "duration": 0.081395348837205,
          "durationTicks": 7,
          "midi": 45,
          "name": "A2",
          "ticks": 5800,
          "time": 67.44186046511628,
          "velocity": 0.23622047244094488
        },
        {
          "duration": 0.17441860465116577,
          "durationTicks": 15,
          "midi": 64,
          "name": "E4",
          "ticks": 5800,
          "time": 67.44186046511628,
          "velocity": 0.2125984251968504
        },
        {
          "duration": 0.1046511627907023,
          "durationTicks": 9,
          "midi": 57,
          "name": "A3",
          "ticks": 5805,
          "time": 67.5,
          "velocity": 0.2992125984251969
        },
        {
          "duration": 0.10465116279068809,
          "durationTicks": 9,
          "midi": 45,
          "name": "A2",
          "ticks": 5808,
          "time": 67.53488372093024,
          "velocity": 0.18110236220472442
        },
        {
          "duration": 0.023255813953483084,
          "durationTicks": 2,
          "midi": 56,
          "name": "G#3",
          "ticks": 5814,
          "time": 67.6046511627907,
          "velocity": 0.2992125984251969
        },
        {
          "duration": 0.06976744186046346,
          "durationTicks": 6,
          "midi": 65,
          "name": "F4",
          "ticks": 5815,
          "time": 67.61627906976744,
          "velocity": 0.2677165354330709
        },
        {
          "duration": 0.03488372093023884,
          "durationTicks": 3,
          "midi": 55,
          "name": "G3",
          "ticks": 5816,
          "time": 67.62790697674419,
          "velocity": 0.33858267716535434
        },
        {
          "duration": 0.03488372093023884,
          "durationTicks": 3,
          "midi": 72,
          "name": "C5",
          "ticks": 5816,
          "time": 67.62790697674419,
          "velocity": 0.11811023622047244
        },
        {
          "duration": 0.081395348837205,
          "durationTicks": 7,
          "midi": 71,
          "name": "B4",
          "ticks": 5819,
          "time": 67.66279069767442,
          "velocity": 0.15748031496062992
        },
        {
          "duration": 0.16279069767441,
          "durationTicks": 14,
          "midi": 55,
          "name": "G3",
          "ticks": 5820,
          "time": 67.67441860465117,
          "velocity": 0.4251968503937008
        },
        {
          "duration": 0.05813953488372192,
          "durationTicks": 5,
          "midi": 69,
          "name": "A4",
          "ticks": 5820,
          "time": 67.67441860465117,
          "velocity": 0.15748031496062992
        },
        {
          "duration": 0.06976744186046346,
          "durationTicks": 6,
          "midi": 45,
          "name": "A2",
          "ticks": 5822,
          "time": 67.69767441860465,
          "velocity": 0.2677165354330709
        },
        {
          "duration": 0.09302325581396076,
          "durationTicks": 8,
          "midi": 62,
          "name": "D4",
          "ticks": 5822,
          "time": 67.69767441860465,
          "velocity": 0.15748031496062992
        },
        {
          "duration": 0.04651162790696617,
          "durationTicks": 4,
          "midi": 78,
          "name": "F#5",
          "ticks": 5825,
          "time": 67.73255813953489,
          "velocity": 0.10236220472440945
        },
        {
          "duration": 0.034883720930224626,
          "durationTicks": 3,
          "midi": 69,
          "name": "A4",
          "ticks": 5826,
          "time": 67.74418604651163,
          "velocity": 0.11811023622047244
        },
        {
          "duration": 0.023255813953483084,
          "durationTicks": 2,
          "midi": 45,
          "name": "A2",
          "ticks": 5831,
          "time": 67.80232558139535,
          "velocity": 0.2440944881889764
        },
        {
          "duration": 0.06976744186046346,
          "durationTicks": 6,
          "midi": 64,
          "name": "E4",
          "ticks": 5832,
          "time": 67.81395348837209,
          "velocity": 0.2204724409448819
        },
        {
          "duration": 0.04651162790698038,
          "durationTicks": 4,
          "midi": 59,
          "name": "B3",
          "ticks": 5833,
          "time": 67.82558139534883,
          "velocity": 0.14960629921259844
        },
        {
          "duration": 0.023255813953497295,
          "durationTicks": 2,
          "midi": 45,
          "name": "A2",
          "ticks": 5838,
          "time": 67.88372093023256,
          "velocity": 0.23622047244094488
        },
        {
          "duration": 0.09302325581396076,
          "durationTicks": 8,
          "midi": 71,
          "name": "B4",
          "ticks": 5838,
          "time": 67.88372093023256,
          "velocity": 0.11811023622047244
        },
        {
          "duration": 0.17441860465116577,
          "durationTicks": 15,
          "midi": 59,
          "name": "B3",
          "ticks": 5839,
          "time": 67.8953488372093,
          "velocity": 0.15748031496062992
        },
        {
          "duration": 0.9302325581395365,
          "durationTicks": 80,
          "midi": 64,
          "name": "E4",
          "ticks": 5839,
          "time": 67.8953488372093,
          "velocity": 0.28346456692913385
        },
        {
          "duration": 0.04651162790696617,
          "durationTicks": 4,
          "midi": 78,
          "name": "F#5",
          "ticks": 5840,
          "time": 67.90697674418605,
          "velocity": 0.07086614173228346
        },
        {
          "duration": 0.03488372093023884,
          "durationTicks": 3,
          "midi": 51,
          "name": "D#3",
          "ticks": 5843,
          "time": 67.94186046511628,
          "velocity": 0.29133858267716534
        },
        {
          "duration": 0.023255813953497295,
          "durationTicks": 2,
          "midi": 45,
          "name": "A2",
          "ticks": 5845,
          "time": 67.96511627906976,
          "velocity": 0.25984251968503935
        },
        {
          "duration": 0.034883720930224626,
          "durationTicks": 3,
          "midi": 69,
          "name": "A4",
          "ticks": 5846,
          "time": 67.97674418604652,
          "velocity": 0.12598425196850394
        },
        {
          "duration": 0.023255813953483084,
          "durationTicks": 2,
          "midi": 51,
          "name": "D#3",
          "ticks": 5848,
          "time": 68,
          "velocity": 0.30708661417322836
        },
        {
          "duration": 0.034883720930224626,
          "durationTicks": 3,
          "midi": 68,
          "name": "G#4",
          "ticks": 5851,
          "time": 68.03488372093024,
          "velocity": 0.07086614173228346
        },
        {
          "duration": 0.034883720930224626,
          "durationTicks": 3,
          "midi": 45,
          "name": "A2",
          "ticks": 5852,
          "time": 68.04651162790698,
          "velocity": 0.23622047244094488
        },
        {
          "duration": 0.023255813953483084,
          "durationTicks": 2,
          "midi": 55,
          "name": "G3",
          "ticks": 5854,
          "time": 68.06976744186046,
          "velocity": 0.2440944881889764
        },
        {
          "duration": 0.05813953488372192,
          "durationTicks": 5,
          "midi": 44,
          "name": "G#2",
          "ticks": 5855,
          "time": 68.0813953488372,
          "velocity": 0.25984251968503935
        },
        {
          "duration": 0.06976744186046346,
          "durationTicks": 6,
          "midi": 59,
          "name": "B3",
          "ticks": 5855,
          "time": 68.0813953488372,
          "velocity": 0.1968503937007874
        },
        {
          "duration": 0.023255813953483084,
          "durationTicks": 2,
          "midi": 53,
          "name": "F3",
          "ticks": 5859,
          "time": 68.12790697674419,
          "velocity": 0.31496062992125984
        },
        {
          "duration": 0.023255813953497295,
          "durationTicks": 2,
          "midi": 45,
          "name": "A2",
          "ticks": 5860,
          "time": 68.13953488372093,
          "velocity": 0.25984251968503935
        },
        {
          "duration": 0.05813953488372192,
          "durationTicks": 5,
          "midi": 44,
          "name": "G#2",
          "ticks": 5862,
          "time": 68.16279069767442,
          "velocity": 0.18110236220472442
        },
        {
          "duration": 0.4302325581395223,
          "durationTicks": 37,
          "midi": 59,
          "name": "B3",
          "ticks": 5862,
          "time": 68.16279069767442,
          "velocity": 0.1732283464566929
        },
        {
          "duration": 0.8488372093023315,
          "durationTicks": 73,
          "midi": 52,
          "name": "E3",
          "ticks": 5866,
          "time": 68.20930232558139,
          "velocity": 0.25196850393700787
        },
        {
          "duration": 0.023255813953483084,
          "durationTicks": 2,
          "midi": 54,
          "name": "F#3",
          "ticks": 5944,
          "time": 69.11627906976744,
          "velocity": 0.3543307086614173
        },
        {
          "duration": 0.06976744186046346,
          "durationTicks": 6,
          "midi": 55,
          "name": "G3",
          "ticks": 5946,
          "time": 69.13953488372093,
          "velocity": 0.3700787401574803
        },
        {
          "duration": 0.1860465116279073,
          "durationTicks": 16,
          "midi": 64,
          "name": "E4",
          "ticks": 5973,
          "time": 69.45348837209302,
          "velocity": 0.1968503937007874
        },
        {
          "duration": 0.11627906976744384,
          "durationTicks": 10,
          "midi": 52,
          "name": "E3",
          "ticks": 5976,
          "time": 69.48837209302326,
          "velocity": 0.2204724409448819
        },
        {
          "duration": 0.1046511627907023,
          "durationTicks": 9,
          "midi": 62,
          "name": "D4",
          "ticks": 6006,
          "time": 69.83720930232558,
          "velocity": 0.08661417322834646
        },
        {
          "duration": 0.8837209302325562,
          "durationTicks": 76,
          "midi": 60,
          "name": "C4",
          "ticks": 6026,
          "time": 70.06976744186046,
          "velocity": 0.2677165354330709
        },
        {
          "duration": 0.34883720930233153,
          "durationTicks": 30,
          "midi": 67,
          "name": "G4",
          "ticks": 6027,
          "time": 70.0813953488372,
          "velocity": 0.10236220472440945
        },
        {
          "duration": 0.5930232558139608,
          "durationTicks": 51,
          "midi": 48,
          "name": "C3",
          "ticks": 6031,
          "time": 70.12790697674419,
          "velocity": 0.10236220472440945
        },
        {
          "duration": 0.034883720930224626,
          "durationTicks": 3,
          "midi": 45,
          "name": "A2",
          "ticks": 6110,
          "time": 71.04651162790698,
          "velocity": 0.10236220472440945
        },
        {
          "duration": 0.5,
          "durationTicks": 43,
          "midi": 59,
          "name": "B3",
          "ticks": 6110,
          "time": 71.04651162790698,
          "velocity": 0.12598425196850394
        },
        {
          "duration": 0.034883720930224626,
          "durationTicks": 3,
          "midi": 69,
          "name": "A4",
          "ticks": 6190,
          "time": 71.97674418604652,
          "velocity": 0.10236220472440945
        },
        {
          "duration": 0.09302325581394655,
          "durationTicks": 8,
          "midi": 71,
          "name": "B4",
          "ticks": 6190,
          "time": 71.97674418604652,
          "velocity": 0.14173228346456693
        },
        {
          "duration": 0.081395348837205,
          "durationTicks": 7,
          "midi": 59,
          "name": "B3",
          "ticks": 6193,
          "time": 72.01162790697674,
          "velocity": 0.11811023622047244
        },
        {
          "duration": 0.5581395348837219,
          "durationTicks": 48,
          "midi": 64,
          "name": "E4",
          "ticks": 6193,
          "time": 72.01162790697674,
          "velocity": 0.2755905511811024
        },
        {
          "duration": 0.06976744186046346,
          "durationTicks": 6,
          "midi": 44,
          "name": "G#2",
          "ticks": 6194,
          "time": 72.02325581395348,
          "velocity": 0.2440944881889764
        },
        {
          "duration": 0.4534883720930196,
          "durationTicks": 39,
          "midi": 52,
          "name": "E3",
          "ticks": 6195,
          "time": 72.03488372093024,
          "velocity": 0.2992125984251969
        },
        {
          "duration": 0.023255813953483084,
          "durationTicks": 2,
          "midi": 57,
          "name": "A3",
          "ticks": 6233,
          "time": 72.47674418604652,
          "velocity": 0.2283464566929134
        },
        {
          "duration": 0.13953488372092693,
          "durationTicks": 12,
          "midi": 44,
          "name": "G#2",
          "ticks": 6234,
          "time": 72.48837209302326,
          "velocity": 0.3700787401574803
        },
        {
          "duration": 0.17441860465115155,
          "durationTicks": 15,
          "midi": 52,
          "name": "E3",
          "ticks": 6238,
          "time": 72.53488372093024,
          "velocity": 0.23622047244094488
        },
        {
          "duration": 0.023255813953483084,
          "durationTicks": 2,
          "midi": 52,
          "name": "E3",
          "ticks": 6255,
          "time": 72.73255813953489,
          "velocity": 0.30708661417322836
        },
        {
          "duration": 0.15116279069768268,
          "durationTicks": 13,
          "midi": 52,
          "name": "E3",
          "ticks": 6258,
          "time": 72.76744186046511,
          "velocity": 0.2755905511811024
        },
        {
          "duration": 0.023255813953483084,
          "durationTicks": 2,
          "midi": 54,
          "name": "F#3",
          "ticks": 6272,
          "time": 72.93023255813954,
          "velocity": 0.2283464566929134
        },
        {
          "duration": 0.22093023255814614,
          "durationTicks": 19,
          "midi": 55,
          "name": "G3",
          "ticks": 6274,
          "time": 72.95348837209302,
          "velocity": 0.4566929133858268
        },
        {
          "duration": 0.12790697674418539,
          "durationTicks": 11,
          "midi": 44,
          "name": "G#2",
          "ticks": 6275,
          "time": 72.96511627906976,
          "velocity": 0.3543307086614173
        },
        {
          "duration": 0.023255813953497295,
          "durationTicks": 2,
          "midi": 60,
          "name": "C4",
          "ticks": 6275,
          "time": 72.96511627906976,
          "velocity": 0.25196850393700787
        },
        {
          "duration": 0.023255813953483084,
          "durationTicks": 2,
          "midi": 53,
          "name": "F3",
          "ticks": 6304,
          "time": 73.30232558139535,
          "velocity": 0.30708661417322836
        },
        {
          "duration": 0.11627906976744384,
          "durationTicks": 10,
          "midi": 59,
          "name": "B3",
          "ticks": 6304,
          "time": 73.30232558139535,
          "velocity": 0.14173228346456693
        },
        {
          "duration": 0.17441860465116577,
          "durationTicks": 15,
          "midi": 64,
          "name": "E4",
          "ticks": 6304,
          "time": 73.30232558139535,
          "velocity": 0.2047244094488189
        },
        {
          "duration": 0.06976744186047767,
          "durationTicks": 6,
          "midi": 52,
          "name": "E3",
          "ticks": 6307,
          "time": 73.33720930232558,
          "velocity": 0.29133858267716534
        },
        {
          "duration": 0.023255813953483084,
          "durationTicks": 2,
          "midi": 54,
          "name": "F#3",
          "ticks": 6314,
          "time": 73.4186046511628,
          "velocity": 0.25196850393700787
        },
        {
          "duration": 0.023255813953483084,
          "durationTicks": 2,
          "midi": 53,
          "name": "F3",
          "ticks": 6316,
          "time": 73.44186046511628,
          "velocity": 0.31496062992125984
        },
        {
          "duration": 0.03488372093023884,
          "durationTicks": 3,
          "midi": 44,
          "name": "G#2",
          "ticks": 6317,
          "time": 73.45348837209302,
          "velocity": 0.11811023622047244
        },
        {
          "duration": 0.15116279069768268,
          "durationTicks": 13,
          "midi": 52,
          "name": "E3",
          "ticks": 6318,
          "time": 73.46511627906976,
          "velocity": 0.2283464566929134
        },
        {
          "duration": 0.04651162790698038,
          "durationTicks": 4,
          "midi": 55,
          "name": "G3",
          "ticks": 6334,
          "time": 73.65116279069767,
          "velocity": 0.13385826771653545
        },
        {
          "duration": 0.19767441860466306,
          "durationTicks": 17,
          "midi": 62,
          "name": "D4",
          "ticks": 6334,
          "time": 73.65116279069767,
          "velocity": 0.2125984251968504
        },
        {
          "duration": 0.2093023255813904,
          "durationTicks": 18,
          "midi": 50,
          "name": "D3",
          "ticks": 6336,
          "time": 73.67441860465117,
          "velocity": 0.14173228346456693
        },
        {
          "duration": 0.023255813953497295,
          "durationTicks": 2,
          "midi": 44,
          "name": "G#2",
          "ticks": 6355,
          "time": 73.8953488372093,
          "velocity": 0.25196850393700787
        },
        {
          "duration": 0.4651162790697754,
          "durationTicks": 40,
          "midi": 60,
          "name": "C4",
          "ticks": 6355,
          "time": 73.8953488372093,
          "velocity": 0.28346456692913385
        },
        {
          "duration": 0.04651162790698038,
          "durationTicks": 4,
          "midi": 65,
          "name": "F4",
          "ticks": 6355,
          "time": 73.8953488372093,
          "velocity": 0.14960629921259844
        },
        {
          "duration": 0.11627906976744384,
          "durationTicks": 10,
          "midi": 67,
          "name": "G4",
          "ticks": 6357,
          "time": 73.9186046511628,
          "velocity": 0.09448818897637795
        },
        {
          "duration": 0.03488372093023884,
          "durationTicks": 3,
          "midi": 48,
          "name": "C3",
          "ticks": 6361,
          "time": 73.96511627906976,
          "velocity": 0.15748031496062992
        },
        {
          "duration": 0.34883720930233153,
          "durationTicks": 30,
          "midi": 48,
          "name": "C3",
          "ticks": 6365,
          "time": 74.01162790697674,
          "velocity": 0.14173228346456693
        },
        {
          "duration": 0.04651162790698038,
          "durationTicks": 4,
          "midi": 61,
          "name": "C#4",
          "ticks": 6395,
          "time": 74.36046511627907,
          "velocity": 0.2204724409448819
        },
        {
          "duration": 0.03488372093023884,
          "durationTicks": 3,
          "midi": 44,
          "name": "G#2",
          "ticks": 6398,
          "time": 74.3953488372093,
          "velocity": 0.2677165354330709
        },
        {
          "duration": 0.023255813953483084,
          "durationTicks": 2,
          "midi": 53,
          "name": "F3",
          "ticks": 6399,
          "time": 74.40697674418605,
          "velocity": 0.2440944881889764
        },
        {
          "duration": 0.19767441860464885,
          "durationTicks": 17,
          "midi": 60,
          "name": "C4",
          "ticks": 6399,
          "time": 74.40697674418605,
          "velocity": 0.14960629921259844
        },
        {
          "duration": 0.05813953488372192,
          "durationTicks": 5,
          "midi": 52,
          "name": "E3",
          "ticks": 6401,
          "time": 74.43023255813954,
          "velocity": 0.1968503937007874
        },
        {
          "duration": 0.023255813953483084,
          "durationTicks": 2,
          "midi": 60,
          "name": "C4",
          "ticks": 6438,
          "time": 74.86046511627907,
          "velocity": 0.2755905511811024
        },
        {
          "duration": 0.023255813953483084,
          "durationTicks": 2,
          "midi": 45,
          "name": "A2",
          "ticks": 6439,
          "time": 74.87209302325581,
          "velocity": 0.2440944881889764
        },
        {
          "duration": 0.03488372093023884,
          "durationTicks": 3,
          "midi": 59,
          "name": "B3",
          "ticks": 6440,
          "time": 74.88372093023256,
          "velocity": 0.2047244094488189
        },
        {
          "duration": 0.05813953488372192,
          "durationTicks": 5,
          "midi": 47,
          "name": "B2",
          "ticks": 6444,
          "time": 74.93023255813954,
          "velocity": 0.13385826771653545
        },
        {
          "duration": 0.22093023255814614,
          "durationTicks": 19,
          "midi": 64,
          "name": "E4",
          "ticks": 6458,
          "time": 75.09302325581395,
          "velocity": 0.1889763779527559
        },
        {
          "duration": 0.1046511627907023,
          "durationTicks": 9,
          "midi": 55,
          "name": "G3",
          "ticks": 6476,
          "time": 75.30232558139535,
          "velocity": 0.3937007874015748
        },
        {
          "duration": 0.16279069767441,
          "durationTicks": 14,
          "midi": 64,
          "name": "E4",
          "ticks": 6481,
          "time": 75.36046511627907,
          "velocity": 0.2755905511811024
        },
        {
          "duration": 0.2906976744186096,
          "durationTicks": 25,
          "midi": 45,
          "name": "A2",
          "ticks": 6482,
          "time": 75.37209302325581,
          "velocity": 0.2992125984251969
        },
        {
          "duration": 0.2674418604651265,
          "durationTicks": 23,
          "midi": 64,
          "name": "E4",
          "ticks": 6517,
          "time": 75.77906976744185,
          "velocity": 0.2283464566929134
        },
        {
          "duration": 0.023255813953483084,
          "durationTicks": 2,
          "midi": 53,
          "name": "F3",
          "ticks": 6518,
          "time": 75.79069767441861,
          "velocity": 0.25984251968503935
        },
        {
          "duration": 0.4534883720930196,
          "durationTicks": 39,
          "midi": 52,
          "name": "E3",
          "ticks": 6520,
          "time": 75.81395348837209,
          "velocity": 0.28346456692913385
        },
        {
          "duration": 0.13953488372092693,
          "durationTicks": 12,
          "midi": 71,
          "name": "B4",
          "ticks": 6523,
          "time": 75.84883720930233,
          "velocity": 0.09448818897637795
        },
        {
          "duration": 0.43023255813953654,
          "durationTicks": 37,
          "midi": 64,
          "name": "E4",
          "ticks": 6561,
          "time": 76.29069767441861,
          "velocity": 0.2125984251968504
        },
        {
          "duration": 0.38372093023255616,
          "durationTicks": 33,
          "midi": 52,
          "name": "E3",
          "ticks": 6563,
          "time": 76.31395348837209,
          "velocity": 0.25196850393700787
        },
        {
          "duration": 0.04651162790698038,
          "durationTicks": 4,
          "midi": 54,
          "name": "F#3",
          "ticks": 6597,
          "time": 76.70930232558139,
          "velocity": 0.13385826771653545
        },
        {
          "duration": 0.023255813953483084,
          "durationTicks": 2,
          "midi": 56,
          "name": "G#3",
          "ticks": 6601,
          "time": 76.75581395348837,
          "velocity": 0.2755905511811024
        },
        {
          "duration": 0.16279069767442422,
          "durationTicks": 14,
          "midi": 55,
          "name": "G3",
          "ticks": 6603,
          "time": 76.77906976744185,
          "velocity": 0.3858267716535433
        },
        {
          "duration": 0.034883720930224626,
          "durationTicks": 3,
          "midi": 44,
          "name": "G#2",
          "ticks": 6604,
          "time": 76.79069767441861,
          "velocity": 0.28346456692913385
        },
        {
          "duration": 0.04651162790698038,
          "durationTicks": 4,
          "midi": 44,
          "name": "G#2",
          "ticks": 6608,
          "time": 76.83720930232558,
          "velocity": 0.11023622047244094
        },
        {
          "duration": 0.2674418604651123,
          "durationTicks": 23,
          "midi": 64,
          "name": "E4",
          "ticks": 6631,
          "time": 77.1046511627907,
          "velocity": 0.16535433070866143
        },
        {
          "duration": 0.023255813953483084,
          "durationTicks": 2,
          "midi": 53,
          "name": "F3",
          "ticks": 6633,
          "time": 77.12790697674419,
          "velocity": 0.28346456692913385
        },
        {
          "duration": 0.023255813953483084,
          "durationTicks": 2,
          "midi": 52,
          "name": "E3",
          "ticks": 6636,
          "time": 77.16279069767442,
          "velocity": 0.25984251968503935
        },
        {
          "duration": 0.03488372093023884,
          "durationTicks": 3,
          "midi": 52,
          "name": "E3",
          "ticks": 6639,
          "time": 77.19767441860465,
          "velocity": 0.2283464566929134
        },
        {
          "duration": 0.034883720930224626,
          "durationTicks": 3,
          "midi": 44,
          "name": "G#2",
          "ticks": 6643,
          "time": 77.24418604651163,
          "velocity": 0.18110236220472442
        },
        {
          "duration": 0.12790697674418539,
          "durationTicks": 11,
          "midi": 52,
          "name": "E3",
          "ticks": 6645,
          "time": 77.26744186046511,
          "velocity": 0.2125984251968504
        },
        {
          "duration": 0.05813953488372192,
          "durationTicks": 5,
          "midi": 59,
          "name": "B3",
          "ticks": 6662,
          "time": 77.46511627906976,
          "velocity": 0.15748031496062992
        },
        {
          "duration": 0.2325581395348877,
          "durationTicks": 20,
          "midi": 64,
          "name": "E4",
          "ticks": 6662,
          "time": 77.46511627906976,
          "velocity": 0.2283464566929134
        },
        {
          "duration": 0.023255813953497295,
          "durationTicks": 2,
          "midi": 51,
          "name": "D#3",
          "ticks": 6667,
          "time": 77.52325581395348,
          "velocity": 0.2283464566929134
        },
        {
          "duration": 0.023255813953497295,
          "durationTicks": 2,
          "midi": 51,
          "name": "D#3",
          "ticks": 6672,
          "time": 77.5813953488372,
          "velocity": 0.2283464566929134
        },
        {
          "duration": 0.034883720930224626,
          "durationTicks": 3,
          "midi": 50,
          "name": "D3",
          "ticks": 6680,
          "time": 77.67441860465117,
          "velocity": 0.11023622047244094
        },
        {
          "duration": 0.4418604651162781,
          "durationTicks": 38,
          "midi": 60,
          "name": "C4",
          "ticks": 6684,
          "time": 77.72093023255815,
          "velocity": 0.2047244094488189
        },
        {
          "duration": 0.418604651162795,
          "durationTicks": 36,
          "midi": 48,
          "name": "C3",
          "ticks": 6686,
          "time": 77.74418604651163,
          "velocity": 0.1968503937007874
        },
        {
          "duration": 0.2093023255813904,
          "durationTicks": 18,
          "midi": 67,
          "name": "G4",
          "ticks": 6723,
          "time": 78.17441860465117,
          "velocity": 0.08661417322834646
        },
        {
          "duration": 0.05813953488372192,
          "durationTicks": 5,
          "midi": 44,
          "name": "G#2",
          "ticks": 6724,
          "time": 78.18604651162791,
          "velocity": 0.3228346456692913
        },
        {
          "duration": 0.24418604651162923,
          "durationTicks": 21,
          "midi": 60,
          "name": "C4",
          "ticks": 6724,
          "time": 78.18604651162791,
          "velocity": 0.2125984251968504
        },
        {
          "duration": 0.08139534883721922,
          "durationTicks": 7,
          "midi": 48,
          "name": "C3",
          "ticks": 6736,
          "time": 78.32558139534883,
          "velocity": 0.14173228346456693
        },
        {
          "duration": 0.023255813953497295,
          "durationTicks": 2,
          "midi": 44,
          "name": "G#2",
          "ticks": 6764,
          "time": 78.65116279069767,
          "velocity": 0.3779527559055118
        },
        {
          "duration": 0.4302325581395223,
          "durationTicks": 37,
          "midi": 59,
          "name": "B3",
          "ticks": 6765,
          "time": 78.66279069767442,
          "velocity": 0.1968503937007874
        },
        {
          "duration": 0.1860465116279073,
          "durationTicks": 16,
          "midi": 64,
          "name": "E4",
          "ticks": 6765,
          "time": 78.66279069767442,
          "velocity": 0.14960629921259844
        },
        {
          "duration": 0.023255813953483084,
          "durationTicks": 2,
          "midi": 45,
          "name": "A2",
          "ticks": 6770,
          "time": 78.72093023255815,
          "velocity": 0.23622047244094488
        },
        {
          "duration": 0.30232558139533694,
          "durationTicks": 26,
          "midi": 47,
          "name": "B2",
          "ticks": 6776,
          "time": 78.79069767441861,
          "velocity": 0.15748031496062992
        },
        {
          "duration": 0.023255813953483084,
          "durationTicks": 2,
          "midi": 44,
          "name": "G#2",
          "ticks": 6803,
          "time": 79.1046511627907,
          "velocity": 0.23622047244094488
        },
        {
          "duration": 0.03488372093023884,
          "durationTicks": 3,
          "midi": 55,
          "name": "G3",
          "ticks": 6805,
          "time": 79.12790697674419,
          "velocity": 0.2125984251968504
        },
        {
          "duration": 0.3604651162790731,
          "durationTicks": 31,
          "midi": 59,
          "name": "B3",
          "ticks": 6805,
          "time": 79.12790697674419,
          "velocity": 0.1968503937007874
        },
        {
          "duration": 0.15116279069768268,
          "durationTicks": 13,
          "midi": 64,
          "name": "E4",
          "ticks": 6806,
          "time": 79.13953488372093,
          "velocity": 0.11023622047244094
        },
        {
          "duration": 0.12790697674418539,
          "durationTicks": 11,
          "midi": 83,
          "name": "B5",
          "ticks": 6807,
          "time": 79.15116279069767,
          "velocity": 0.10236220472440945
        },
        {
          "duration": 0.2674418604651265,
          "durationTicks": 23,
          "midi": 47,
          "name": "B2",
          "ticks": 6812,
          "time": 79.20930232558139,
          "velocity": 0.16535433070866143
        },
        {
          "duration": 0.05813953488372192,
          "durationTicks": 5,
          "midi": 45,
          "name": "A2",
          "ticks": 6836,
          "time": 79.48837209302326,
          "velocity": 0.1732283464566929
        },
        {
          "duration": 0.6744186046511658,
          "durationTicks": 58,
          "midi": 64,
          "name": "E4",
          "ticks": 6845,
          "time": 79.59302325581395,
          "velocity": 0.25984251968503935
        },
        {
          "duration": 0.38372093023257037,
          "durationTicks": 33,
          "midi": 52,
          "name": "E3",
          "ticks": 6850,
          "time": 79.65116279069767,
          "velocity": 0.2677165354330709
        },
        {
          "duration": 0.11627906976744384,
          "durationTicks": 10,
          "midi": 44,
          "name": "G#2",
          "ticks": 6885,
          "time": 80.05813953488372,
          "velocity": 0.25196850393700787
        },
        {
          "duration": 0.023255813953483084,
          "durationTicks": 2,
          "midi": 52,
          "name": "E3",
          "ticks": 6885,
          "time": 80.05813953488372,
          "velocity": 0.2755905511811024
        },
        {
          "duration": 0.16279069767442422,
          "durationTicks": 14,
          "midi": 52,
          "name": "E3",
          "ticks": 6888,
          "time": 80.09302325581395,
          "velocity": 0.2755905511811024
        },
        {
          "duration": 0.04651162790696617,
          "durationTicks": 4,
          "midi": 55,
          "name": "G3",
          "ticks": 6905,
          "time": 80.29069767441861,
          "velocity": 0.2047244094488189
        },
        {
          "duration": 0.03488372093023884,
          "durationTicks": 3,
          "midi": 62,
          "name": "D4",
          "ticks": 6908,
          "time": 80.32558139534883,
          "velocity": 0.09448818897637795
        },
        {
          "duration": 0.11627906976744384,
          "durationTicks": 10,
          "midi": 64,
          "name": "E4",
          "ticks": 6911,
          "time": 80.36046511627907,
          "velocity": 0.11811023622047244
        },
        {
          "duration": 0.19767441860464885,
          "durationTicks": 17,
          "midi": 55,
          "name": "G3",
          "ticks": 6926,
          "time": 80.53488372093024,
          "velocity": 0.4251968503937008
        },
        {
          "duration": 0.17441860465115155,
          "durationTicks": 15,
          "midi": 64,
          "name": "E4",
          "ticks": 6926,
          "time": 80.53488372093024,
          "velocity": 0.13385826771653545
        },
        {
          "duration": 0.12790697674418539,
          "durationTicks": 11,
          "midi": 52,
          "name": "E3",
          "ticks": 6955,
          "time": 80.87209302325581,
          "velocity": 0.2125984251968504
        },
        {
          "duration": 0.1046511627907023,
          "durationTicks": 9,
          "midi": 76,
          "name": "E5",
          "ticks": 6955,
          "time": 80.87209302325581,
          "velocity": 0.07874015748031496
        },
        {
          "duration": 0.05813953488372192,
          "durationTicks": 5,
          "midi": 52,
          "name": "E3",
          "ticks": 6970,
          "time": 81.04651162790698,
          "velocity": 0.10236220472440945
        },
        {
          "duration": 0.05813953488372192,
          "durationTicks": 5,
          "midi": 64,
          "name": "E4",
          "ticks": 6970,
          "time": 81.04651162790698,
          "velocity": 0.11023622047244094
        },
        {
          "duration": 0.19767441860464885,
          "durationTicks": 17,
          "midi": 62,
          "name": "D4",
          "ticks": 6986,
          "time": 81.23255813953489,
          "velocity": 0.23622047244094488
        },
        {
          "duration": 0.24418604651162923,
          "durationTicks": 21,
          "midi": 50,
          "name": "D3",
          "ticks": 6987,
          "time": 81.24418604651163,
          "velocity": 0.2283464566929134
        },
        {
          "duration": 0.22093023255814614,
          "durationTicks": 19,
          "midi": 76,
          "name": "E5",
          "ticks": 6988,
          "time": 81.25581395348837,
          "velocity": 0.08661417322834646
        },
        {
          "duration": 0.081395348837205,
          "durationTicks": 7,
          "midi": 64,
          "name": "E4",
          "ticks": 7002,
          "time": 81.4186046511628,
          "velocity": 0.2047244094488189
        },
        {
          "duration": 0.023255813953483084,
          "durationTicks": 2,
          "midi": 44,
          "name": "G#2",
          "ticks": 7009,
          "time": 81.5,
          "velocity": 0.3464566929133858
        },
        {
          "duration": 0.6511627906976685,
          "durationTicks": 56,
          "midi": 60,
          "name": "C4",
          "ticks": 7009,
          "time": 81.5,
          "velocity": 0.2755905511811024
        },
        {
          "duration": 0.4418604651162781,
          "durationTicks": 38,
          "midi": 64,
          "name": "E4",
          "ticks": 7010,
          "time": 81.51162790697674,
          "velocity": 0.15748031496062992
        },
        {
          "duration": 0.4302325581395223,
          "durationTicks": 37,
          "midi": 67,
          "name": "G4",
          "ticks": 7012,
          "time": 81.53488372093024,
          "velocity": 0.09448818897637795
        },
        {
          "duration": 0.3720930232558146,
          "durationTicks": 32,
          "midi": 48,
          "name": "C3",
          "ticks": 7017,
          "time": 81.59302325581395,
          "velocity": 0.2125984251968504
        },
        {
          "duration": 0.03488372093023884,
          "durationTicks": 3,
          "midi": 55,
          "name": "G3",
          "ticks": 7049,
          "time": 81.96511627906976,
          "velocity": 0.25984251968503935
        },
        {
          "duration": 0.2093023255813904,
          "durationTicks": 18,
          "midi": 48,
          "name": "C3",
          "ticks": 7056,
          "time": 82.04651162790698,
          "velocity": 0.18110236220472442
        },
        {
          "duration": 0.08139534883721922,
          "durationTicks": 7,
          "midi": 55,
          "name": "G3",
          "ticks": 7092,
          "time": 82.46511627906976,
          "velocity": 0.29133858267716534
        },
        {
          "duration": 0.4418604651162781,
          "durationTicks": 38,
          "midi": 59,
          "name": "B3",
          "ticks": 7093,
          "time": 82.47674418604652,
          "velocity": 0.2204724409448819
        },
        {
          "duration": 0.023255813953483084,
          "durationTicks": 2,
          "midi": 46,
          "name": "A#2",
          "ticks": 7094,
          "time": 82.48837209302326,
          "velocity": 0.23622047244094488
        },
        {
          "duration": 0.034883720930224626,
          "durationTicks": 3,
          "midi": 47,
          "name": "B2",
          "ticks": 7098,
          "time": 82.53488372093024,
          "velocity": 0.2047244094488189
        },
        {
          "duration": 0.3139534883721069,
          "durationTicks": 27,
          "midi": 47,
          "name": "B2",
          "ticks": 7103,
          "time": 82.59302325581395,
          "velocity": 0.1732283464566929
        },
        {
          "duration": 0.2093023255814046,
          "durationTicks": 18,
          "midi": 64,
          "name": "E4",
          "ticks": 7113,
          "time": 82.70930232558139,
          "velocity": 0.1732283464566929
        },
        {
          "duration": 0.034883720930224626,
          "durationTicks": 3,
          "midi": 45,
          "name": "A2",
          "ticks": 7130,
          "time": 82.90697674418605,
          "velocity": 0.33858267716535434
        },
        {
          "duration": 0.023255813953483084,
          "durationTicks": 2,
          "midi": 44,
          "name": "G#2",
          "ticks": 7133,
          "time": 82.94186046511628,
          "velocity": 0.2677165354330709
        },
        {
          "duration": 0.1860465116279073,
          "durationTicks": 16,
          "midi": 59,
          "name": "B3",
          "ticks": 7133,
          "time": 82.94186046511628,
          "velocity": 0.15748031496062992
        },
        {
          "duration": 0.11627906976742963,
          "durationTicks": 10,
          "midi": 83,
          "name": "B5",
          "ticks": 7136,
          "time": 82.97674418604652,
          "velocity": 0.09448818897637795
        },
        {
          "duration": 0.1046511627907023,
          "durationTicks": 9,
          "midi": 64,
          "name": "E4",
          "ticks": 7139,
          "time": 83.01162790697674,
          "velocity": 0.09448818897637795
        },
        {
          "duration": 0.081395348837205,
          "durationTicks": 7,
          "midi": 47,
          "name": "B2",
          "ticks": 7142,
          "time": 83.04651162790698,
          "velocity": 0.13385826771653545
        },
        {
          "duration": 0.1860465116279073,
          "durationTicks": 16,
          "midi": 45,
          "name": "A2",
          "ticks": 7150,
          "time": 83.13953488372093,
          "velocity": 0.10236220472440945
        },
        {
          "duration": 0.12790697674418539,
          "durationTicks": 11,
          "midi": 44,
          "name": "G#2",
          "ticks": 7169,
          "time": 83.36046511627907,
          "velocity": 0.2204724409448819
        },
        {
          "duration": 0.4418604651162781,
          "durationTicks": 38,
          "midi": 64,
          "name": "E4",
          "ticks": 7172,
          "time": 83.3953488372093,
          "velocity": 0.1968503937007874
        },
        {
          "duration": 0.40697674418603924,
          "durationTicks": 35,
          "midi": 52,
          "name": "E3",
          "ticks": 7174,
          "time": 83.4186046511628,
          "velocity": 0.2125984251968504
        },
        {
          "duration": 0.023255813953483084,
          "durationTicks": 2,
          "midi": 53,
          "name": "F3",
          "ticks": 7212,
          "time": 83.86046511627907,
          "velocity": 0.2440944881889764
        },
        {
          "duration": 0.40697674418603924,
          "durationTicks": 35,
          "midi": 64,
          "name": "E4",
          "ticks": 7213,
          "time": 83.87209302325581,
          "velocity": 0.1889763779527559
        },
        {
          "duration": 0.3372093023255758,
          "durationTicks": 29,
          "midi": 52,
          "name": "E3",
          "ticks": 7218,
          "time": 83.93023255813954,
          "velocity": 0.2204724409448819
        },
        {
          "duration": 0.023255813953497295,
          "durationTicks": 2,
          "midi": 54,
          "name": "F#3",
          "ticks": 7247,
          "time": 84.26744186046511,
          "velocity": 0.23622047244094488
        },
        {
          "duration": 0.22093023255813193,
          "durationTicks": 19,
          "midi": 55,
          "name": "G3",
          "ticks": 7249,
          "time": 84.29069767441861,
          "velocity": 0.3779527559055118
        },
        {
          "duration": 0.023255813953497295,
          "durationTicks": 2,
          "midi": 44,
          "name": "G#2",
          "ticks": 7252,
          "time": 84.32558139534883,
          "velocity": 0.25196850393700787
        },
        {
          "duration": 0.04651162790698038,
          "durationTicks": 4,
          "midi": 55,
          "name": "G3",
          "ticks": 7280,
          "time": 84.65116279069767,
          "velocity": 0.25984251968503935
        },
        {
          "duration": 0.04651162790696617,
          "durationTicks": 4,
          "midi": 45,
          "name": "A2",
          "ticks": 7281,
          "time": 84.66279069767442,
          "velocity": 0.2440944881889764
        },
        {
          "duration": 0.13953488372092693,
          "durationTicks": 12,
          "midi": 64,
          "name": "E4",
          "ticks": 7281,
          "time": 84.66279069767442,
          "velocity": 0.2283464566929134
        },
        {
          "duration": 0.04651162790696617,
          "durationTicks": 4,
          "midi": 52,
          "name": "E3",
          "ticks": 7287,
          "time": 84.73255813953489,
          "velocity": 0.16535433070866143
        },
        {
          "duration": 0.04651162790698038,
          "durationTicks": 4,
          "midi": 55,
          "name": "G3",
          "ticks": 7293,
          "time": 84.80232558139535,
          "velocity": 0.25196850393700787
        },
        {
          "duration": 0.05813953488372192,
          "durationTicks": 5,
          "midi": 45,
          "name": "A2",
          "ticks": 7294,
          "time": 84.81395348837209,
          "velocity": 0.2283464566929134
        },
        {
          "duration": 0.05813953488372192,
          "durationTicks": 5,
          "midi": 52,
          "name": "E3",
          "ticks": 7298,
          "time": 84.86046511627907,
          "velocity": 0.14960629921259844
        },
        {
          "duration": 0.03488372093023884,
          "durationTicks": 3,
          "midi": 54,
          "name": "F#3",
          "ticks": 7311,
          "time": 85.01162790697674,
          "velocity": 0.2204724409448819
        },
        {
          "duration": 0.17441860465116577,
          "durationTicks": 15,
          "midi": 62,
          "name": "D4",
          "ticks": 7312,
          "time": 85.02325581395348,
          "velocity": 0.25984251968503935
        },
        {
          "duration": 0.11627906976744384,
          "durationTicks": 10,
          "midi": 69,
          "name": "A4",
          "ticks": 7312,
          "time": 85.02325581395348,
          "velocity": 0.10236220472440945
        },
        {
          "duration": 0.1860465116279073,
          "durationTicks": 16,
          "midi": 50,
          "name": "D3",
          "ticks": 7314,
          "time": 85.04651162790698,
          "velocity": 0.28346456692913385
        },
        {
          "duration": 0.04651162790698038,
          "durationTicks": 4,
          "midi": 55,
          "name": "G3",
          "ticks": 7331,
          "time": 85.24418604651163,
          "velocity": 0.2992125984251969
        },
        {
          "duration": 0.46511627906976116,
          "durationTicks": 40,
          "midi": 60,
          "name": "C4",
          "ticks": 7331,
          "time": 85.24418604651163,
          "velocity": 0.31496062992125984
        },
        {
          "duration": 0.40697674418603924,
          "durationTicks": 35,
          "midi": 48,
          "name": "C3",
          "ticks": 7336,
          "time": 85.30232558139535,
          "velocity": 0.2440944881889764
        },
        {
          "duration": 0.25581395348837077,
          "durationTicks": 22,
          "midi": 60,
          "name": "C4",
          "ticks": 7373,
          "time": 85.73255813953489,
          "velocity": 0.28346456692913385
        },
        {
          "duration": 0.2093023255813904,
          "durationTicks": 18,
          "midi": 48,
          "name": "C3",
          "ticks": 7375,
          "time": 85.75581395348837,
          "velocity": 0.2283464566929134
        },
        {
          "duration": 0.43023255813953654,
          "durationTicks": 37,
          "midi": 59,
          "name": "B3",
          "ticks": 7412,
          "time": 86.18604651162791,
          "velocity": 0.2204724409448819
        },
        {
          "duration": 0.17441860465116577,
          "durationTicks": 15,
          "midi": 64,
          "name": "E4",
          "ticks": 7413,
          "time": 86.19767441860465,
          "velocity": 0.14173228346456693
        },
        {
          "duration": 0.3720930232558146,
          "durationTicks": 32,
          "midi": 47,
          "name": "B2",
          "ticks": 7417,
          "time": 86.24418604651163,
          "velocity": 0.1889763779527559
        },
        {
          "duration": 0.2325581395348877,
          "durationTicks": 20,
          "midi": 59,
          "name": "B3",
          "ticks": 7451,
          "time": 86.63953488372093,
          "velocity": 0.2047244094488189
        },
        {
          "duration": 0.1860465116279073,
          "durationTicks": 16,
          "midi": 64,
          "name": "E4",
          "ticks": 7452,
          "time": 86.65116279069767,
          "velocity": 0.16535433070866143
        },
        {
          "duration": 0.023255813953483084,
          "durationTicks": 2,
          "midi": 46,
          "name": "A#2",
          "ticks": 7453,
          "time": 86.66279069767442,
          "velocity": 0.2283464566929134
        },
        {
          "duration": 0.25581395348837077,
          "durationTicks": 22,
          "midi": 47,
          "name": "B2",
          "ticks": 7458,
          "time": 86.72093023255815,
          "velocity": 0.16535433070866143
        },
        {
          "duration": 0.081395348837205,
          "durationTicks": 7,
          "midi": 45,
          "name": "A2",
          "ticks": 7481,
          "time": 86.98837209302326,
          "velocity": 0.1889763779527559
        },
        {
          "duration": 0.03488372093023884,
          "durationTicks": 3,
          "midi": 56,
          "name": "G#3",
          "ticks": 7489,
          "time": 87.0813953488372,
          "velocity": 0.09448818897637795
        },
        {
          "duration": 0.03488372093023884,
          "durationTicks": 3,
          "midi": 44,
          "name": "G#2",
          "ticks": 7490,
          "time": 87.09302325581395,
          "velocity": 0.2204724409448819
        },
        {
          "duration": 0.4534883720930196,
          "durationTicks": 39,
          "midi": 64,
          "name": "E4",
          "ticks": 7491,
          "time": 87.1046511627907,
          "velocity": 0.18110236220472442
        },
        {
          "duration": 0.43023255813953654,
          "durationTicks": 37,
          "midi": 52,
          "name": "E3",
          "ticks": 7493,
          "time": 87.12790697674419,
          "velocity": 0.2125984251968504
        },
        {
          "duration": 0.04651162790698038,
          "durationTicks": 4,
          "midi": 44,
          "name": "G#2",
          "ticks": 7494,
          "time": 87.13953488372093,
          "velocity": 0.14173228346456693
        },
        {
          "duration": 0.09302325581394655,
          "durationTicks": 8,
          "midi": 44,
          "name": "G#2",
          "ticks": 7534,
          "time": 87.6046511627907,
          "velocity": 0.2204724409448819
        },
        {
          "duration": 0.12790697674418539,
          "durationTicks": 11,
          "midi": 52,
          "name": "E3",
          "ticks": 7537,
          "time": 87.63953488372093,
          "velocity": 0.2204724409448819
        },
        {
          "duration": 0.03488372093023884,
          "durationTicks": 3,
          "midi": 55,
          "name": "G3",
          "ticks": 7552,
          "time": 87.81395348837209,
          "velocity": 0.18110236220472442
        },
        {
          "duration": 0.1046511627907023,
          "durationTicks": 9,
          "midi": 62,
          "name": "D4",
          "ticks": 7553,
          "time": 87.82558139534883,
          "velocity": 0.14960629921259844
        },
        {
          "duration": 0.081395348837205,
          "durationTicks": 7,
          "midi": 64,
          "name": "E4",
          "ticks": 7562,
          "time": 87.93023255813954,
          "velocity": 0.1732283464566929
        },
        {
          "duration": 0.023255813953483084,
          "durationTicks": 2,
          "midi": 56,
          "name": "G#3",
          "ticks": 7572,
          "time": 88.04651162790698,
          "velocity": 0.3464566929133858
        },
        {
          "duration": 0.034883720930224626,
          "durationTicks": 3,
          "midi": 45,
          "name": "A2",
          "ticks": 7573,
          "time": 88.05813953488372,
          "velocity": 0.2440944881889764
        },
        {
          "duration": 0.2093023255813904,
          "durationTicks": 18,
          "midi": 55,
          "name": "G3",
          "ticks": 7574,
          "time": 88.06976744186046,
          "velocity": 0.4330708661417323
        },
        {
          "duration": 0.2906976744186096,
          "durationTicks": 25,
          "midi": 64,
          "name": "E4",
          "ticks": 7574,
          "time": 88.06976744186046,
          "velocity": 0.1889763779527559
        },
        {
          "duration": 0.05813953488372192,
          "durationTicks": 5,
          "midi": 44,
          "name": "G#2",
          "ticks": 7576,
          "time": 88.09302325581395,
          "velocity": 0.12598425196850394
        },
        {
          "duration": 0.19767441860464885,
          "durationTicks": 17,
          "midi": 64,
          "name": "E4",
          "ticks": 7602,
          "time": 88.3953488372093,
          "velocity": 0.15748031496062992
        },
        {
          "duration": 0.1046511627907023,
          "durationTicks": 9,
          "midi": 52,
          "name": "E3",
          "ticks": 7605,
          "time": 88.43023255813954,
          "velocity": 0.2283464566929134
        },
        {
          "duration": 0.03488372093023884,
          "durationTicks": 3,
          "midi": 52,
          "name": "E3",
          "ticks": 7618,
          "time": 88.5813953488372,
          "velocity": 0.10236220472440945
        },
        {
          "duration": 0.04651162790696617,
          "durationTicks": 4,
          "midi": 45,
          "name": "A2",
          "ticks": 7620,
          "time": 88.6046511627907,
          "velocity": 0.16535433070866143
        },
        {
          "duration": 0.19767441860464885,
          "durationTicks": 17,
          "midi": 62,
          "name": "D4",
          "ticks": 7633,
          "time": 88.75581395348837,
          "velocity": 0.18110236220472442
        },
        {
          "duration": 0.2325581395348877,
          "durationTicks": 20,
          "midi": 50,
          "name": "D3",
          "ticks": 7634,
          "time": 88.76744186046511,
          "velocity": 0.2283464566929134
        },
        {
          "duration": 0.03488372093023884,
          "durationTicks": 3,
          "midi": 45,
          "name": "A2",
          "ticks": 7655,
          "time": 89.01162790697674,
          "velocity": 0.28346456692913385
        },
        {
          "duration": 0.03488372093023884,
          "durationTicks": 3,
          "midi": 53,
          "name": "F3",
          "ticks": 7655,
          "time": 89.01162790697674,
          "velocity": 0.1889763779527559
        },
        {
          "duration": 0.16279069767442422,
          "durationTicks": 14,
          "midi": 72,
          "name": "C5",
          "ticks": 7655,
          "time": 89.01162790697674,
          "velocity": 0.11811023622047244
        },
        {
          "duration": 0.45348837209303383,
          "durationTicks": 39,
          "midi": 60,
          "name": "C4",
          "ticks": 7656,
          "time": 89.02325581395348,
          "velocity": 0.2677165354330709
        },
        {
          "duration": 0.3953488372092977,
          "durationTicks": 34,
          "midi": 67,
          "name": "G4",
          "ticks": 7658,
          "time": 89.04651162790698,
          "velocity": 0.10236220472440945
        },
        {
          "duration": 0.3720930232558146,
          "durationTicks": 32,
          "midi": 48,
          "name": "C3",
          "ticks": 7662,
          "time": 89.09302325581395,
          "velocity": 0.18110236220472442
        },
        {
          "duration": 0.2325581395348877,
          "durationTicks": 20,
          "midi": 60,
          "name": "C4",
          "ticks": 7696,
          "time": 89.48837209302326,
          "velocity": 0.23622047244094488
        },
        {
          "duration": 0.03488372093023884,
          "durationTicks": 3,
          "midi": 55,
          "name": "G3",
          "ticks": 7697,
          "time": 89.5,
          "velocity": 0.25196850393700787
        },
        {
          "duration": 0.19767441860464885,
          "durationTicks": 17,
          "midi": 48,
          "name": "C3",
          "ticks": 7701,
          "time": 89.54651162790698,
          "velocity": 0.18110236220472442
        },
        {
          "duration": 0.034883720930224626,
          "durationTicks": 3,
          "midi": 71,
          "name": "B4",
          "ticks": 7733,
          "time": 89.9186046511628,
          "velocity": 0.07874015748031496
        },
        {
          "duration": 0.43023255813953654,
          "durationTicks": 37,
          "midi": 59,
          "name": "B3",
          "ticks": 7736,
          "time": 89.95348837209302,
          "velocity": 0.2440944881889764
        },
        {
          "duration": 0.34883720930233153,
          "durationTicks": 30,
          "midi": 47,
          "name": "B2",
          "ticks": 7742,
          "time": 90.02325581395348,
          "velocity": 0.1889763779527559
        },
        {
          "duration": 0.19767441860464885,
          "durationTicks": 17,
          "midi": 64,
          "name": "E4",
          "ticks": 7756,
          "time": 90.18604651162791,
          "velocity": 0.18110236220472442
        },
        {
          "duration": 0.04651162790698038,
          "durationTicks": 4,
          "midi": 55,
          "name": "G3",
          "ticks": 7772,
          "time": 90.37209302325581,
          "velocity": 0.3543307086614173
        },
        {
          "duration": 0.16279069767441,
          "durationTicks": 14,
          "midi": 64,
          "name": "E4",
          "ticks": 7775,
          "time": 90.40697674418605,
          "velocity": 0.2440944881889764
        },
        {
          "duration": 0.023255813953483084,
          "durationTicks": 2,
          "midi": 45,
          "name": "A2",
          "ticks": 7776,
          "time": 90.4186046511628,
          "velocity": 0.2677165354330709
        },
        {
          "duration": 0.10465116279068809,
          "durationTicks": 9,
          "midi": 59,
          "name": "B3",
          "ticks": 7776,
          "time": 90.4186046511628,
          "velocity": 0.1968503937007874
        },
        {
          "duration": 0.05813953488372192,
          "durationTicks": 5,
          "midi": 47,
          "name": "B2",
          "ticks": 7781,
          "time": 90.47674418604652,
          "velocity": 0.1732283464566929
        },
        {
          "duration": 0.17441860465115155,
          "durationTicks": 15,
          "midi": 45,
          "name": "A2",
          "ticks": 7792,
          "time": 90.6046511627907,
          "velocity": 0.15748031496062992
        },
        {
          "duration": 0.12790697674418539,
          "durationTicks": 11,
          "midi": 55,
          "name": "G3",
          "ticks": 7798,
          "time": 90.67441860465117,
          "velocity": 0.1968503937007874
        },
        {
          "duration": 0.03488372093023884,
          "durationTicks": 3,
          "midi": 53,
          "name": "F3",
          "ticks": 7815,
          "time": 90.87209302325581,
          "velocity": 0.3228346456692913
        },
        {
          "duration": 0.1860465116279073,
          "durationTicks": 16,
          "midi": 64,
          "name": "E4",
          "ticks": 7816,
          "time": 90.88372093023256,
          "velocity": 0.25984251968503935
        },
        {
          "duration": 0.40697674418603924,
          "durationTicks": 35,
          "midi": 52,
          "name": "E3",
          "ticks": 7818,
          "time": 90.90697674418605,
          "velocity": 0.29133858267716534
        },
        {
          "duration": 0.03488372093023884,
          "durationTicks": 3,
          "midi": 65,
          "name": "F4",
          "ticks": 7854,
          "time": 91.32558139534883,
          "velocity": 0.18110236220472442
        },
        {
          "duration": 0.03488372093023884,
          "durationTicks": 3,
          "midi": 53,
          "name": "F3",
          "ticks": 7855,
          "time": 91.33720930232558,
          "velocity": 0.25984251968503935
        },
        {
          "duration": 0.1860465116279073,
          "durationTicks": 16,
          "midi": 69,
          "name": "A4",
          "ticks": 7856,
          "time": 91.34883720930233,
          "velocity": 0.13385826771653545
        },
        {
          "duration": 0.17441860465115155,
          "durationTicks": 15,
          "midi": 88,
          "name": "E6",
          "ticks": 7856,
          "time": 91.34883720930233,
          "velocity": 0.12598425196850394
        },
        {
          "duration": 0.04651162790698038,
          "durationTicks": 4,
          "midi": 52,
          "name": "E3",
          "ticks": 7858,
          "time": 91.37209302325581,
          "velocity": 0.1968503937007874
        },
        {
          "duration": 0.17441860465116577,
          "durationTicks": 15,
          "midi": 52,
          "name": "E3",
          "ticks": 7866,
          "time": 91.46511627906976,
          "velocity": 0.1732283464566929
        },
        {
          "duration": 0.081395348837205,
          "durationTicks": 7,
          "midi": 69,
          "name": "A4",
          "ticks": 7875,
          "time": 91.56976744186046,
          "velocity": 0.07874015748031496
        },
        {
          "duration": 0.27906976744185386,
          "durationTicks": 24,
          "midi": 55,
          "name": "G3",
          "ticks": 7895,
          "time": 91.80232558139535,
          "velocity": 0.4645669291338583
        },
        {
          "duration": 0.023255813953483084,
          "durationTicks": 2,
          "midi": 65,
          "name": "F4",
          "ticks": 7923,
          "time": 92.12790697674419,
          "velocity": 0.2440944881889764
        },
        {
          "duration": 0.023255813953497295,
          "durationTicks": 2,
          "midi": 53,
          "name": "F3",
          "ticks": 7924,
          "time": 92.13953488372093,
          "velocity": 0.3228346456692913
        },
        {
          "duration": 0.12790697674418539,
          "durationTicks": 11,
          "midi": 64,
          "name": "E4",
          "ticks": 7925,
          "time": 92.15116279069767,
          "velocity": 0.25984251968503935
        },
        {
          "duration": 0.10465116279068809,
          "durationTicks": 9,
          "midi": 52,
          "name": "E3",
          "ticks": 7927,
          "time": 92.17441860465117,
          "velocity": 0.31496062992125984
        },
        {
          "duration": 0.09302325581394655,
          "durationTicks": 8,
          "midi": 67,
          "name": "G4",
          "ticks": 7928,
          "time": 92.18604651162791,
          "velocity": 0.10236220472440945
        },
        {
          "duration": 0.19767441860464885,
          "durationTicks": 17,
          "midi": 62,
          "name": "D4",
          "ticks": 7956,
          "time": 92.51162790697674,
          "velocity": 0.2677165354330709
        },
        {
          "duration": 0.2325581395348877,
          "durationTicks": 20,
          "midi": 50,
          "name": "D3",
          "ticks": 7957,
          "time": 92.52325581395348,
          "velocity": 0.25196850393700787
        },
        {
          "duration": 0.25581395348837077,
          "durationTicks": 22,
          "midi": 64,
          "name": "E4",
          "ticks": 7972,
          "time": 92.69767441860465,
          "velocity": 0.2047244094488189
        },
        {
          "duration": 0.43023255813953654,
          "durationTicks": 37,
          "midi": 60,
          "name": "C4",
          "ticks": 7978,
          "time": 92.76744186046511,
          "velocity": 0.2677165354330709
        },
        {
          "duration": 0.43023255813953654,
          "durationTicks": 37,
          "midi": 67,
          "name": "G4",
          "ticks": 7979,
          "time": 92.77906976744185,
          "velocity": 0.11811023622047244
        },
        {
          "duration": 0.38372093023255616,
          "durationTicks": 33,
          "midi": 48,
          "name": "C3",
          "ticks": 7982,
          "time": 92.81395348837209,
          "velocity": 0.23622047244094488
        },
        {
          "duration": 0.22093023255813193,
          "durationTicks": 19,
          "midi": 64,
          "name": "E4",
          "ticks": 7997,
          "time": 92.98837209302326,
          "velocity": 0.12598425196850394
        },
        {
          "duration": 0.3953488372093119,
          "durationTicks": 34,
          "midi": 60,
          "name": "C4",
          "ticks": 8016,
          "time": 93.20930232558139,
          "velocity": 0.2204724409448819
        },
        {
          "duration": 0.25581395348837077,
          "durationTicks": 22,
          "midi": 48,
          "name": "C3",
          "ticks": 8027,
          "time": 93.33720930232558,
          "velocity": 0.1732283464566929
        },
        {
          "duration": 0.05813953488372192,
          "durationTicks": 5,
          "midi": 64,
          "name": "E4",
          "ticks": 8046,
          "time": 93.55813953488372,
          "velocity": 0.14960629921259844
        },
        {
          "duration": 0.081395348837205,
          "durationTicks": 7,
          "midi": 63,
          "name": "D#4",
          "ticks": 8051,
          "time": 93.61627906976744,
          "velocity": 0.10236220472440945
        },
        {
          "duration": 0.04651162790698038,
          "durationTicks": 4,
          "midi": 55,
          "name": "G3",
          "ticks": 8059,
          "time": 93.70930232558139,
          "velocity": 0.1968503937007874
        },
        {
          "duration": 0.4418604651162781,
          "durationTicks": 38,
          "midi": 59,
          "name": "B3",
          "ticks": 8059,
          "time": 93.70930232558139,
          "velocity": 0.2047244094488189
        },
        {
          "duration": 0.3953488372093119,
          "durationTicks": 34,
          "midi": 47,
          "name": "B2",
          "ticks": 8064,
          "time": 93.76744186046511,
          "velocity": 0.25196850393700787
        },
        {
          "duration": 0.034883720930224626,
          "durationTicks": 3,
          "midi": 44,
          "name": "G#2",
          "ticks": 8099,
          "time": 94.17441860465117,
          "velocity": 0.33070866141732286
        },
        {
          "duration": 0.081395348837205,
          "durationTicks": 7,
          "midi": 44,
          "name": "G#2",
          "ticks": 8103,
          "time": 94.22093023255815,
          "velocity": 0.1732283464566929
        },
        {
          "duration": 0.11627906976744384,
          "durationTicks": 10,
          "midi": 44,
          "name": "G#2",
          "ticks": 8136,
          "time": 94.6046511627907,
          "velocity": 0.3228346456692913
        },
        {
          "duration": 0.5581395348837219,
          "durationTicks": 48,
          "midi": 64,
          "name": "E4",
          "ticks": 8137,
          "time": 94.61627906976744,
          "velocity": 0.1889763779527559
        },
        {
          "duration": 0.4534883720930196,
          "durationTicks": 39,
          "midi": 52,
          "name": "E3",
          "ticks": 8139,
          "time": 94.63953488372093,
          "velocity": 0.2047244094488189
        },
        {
          "duration": 0.023255813953497295,
          "durationTicks": 2,
          "midi": 53,
          "name": "F3",
          "ticks": 8178,
          "time": 95.09302325581395,
          "velocity": 0.2755905511811024
        },
        {
          "duration": 0.17441860465116577,
          "durationTicks": 15,
          "midi": 52,
          "name": "E3",
          "ticks": 8180,
          "time": 95.11627906976744,
          "velocity": 0.2677165354330709
        },
        {
          "duration": 0.034883720930224626,
          "durationTicks": 3,
          "midi": 56,
          "name": "G#3",
          "ticks": 8185,
          "time": 95.17441860465117,
          "velocity": 0.09448818897637795
        },
        {
          "duration": 0.25581395348837077,
          "durationTicks": 22,
          "midi": 64,
          "name": "E4",
          "ticks": 8196,
          "time": 95.30232558139535,
          "velocity": 0.2204724409448819
        },
        {
          "duration": 0.03488372093023884,
          "durationTicks": 3,
          "midi": 45,
          "name": "A2",
          "ticks": 8198,
          "time": 95.32558139534883,
          "velocity": 0.14173228346456693
        },
        {
          "duration": 0.03488372093023884,
          "durationTicks": 3,
          "midi": 56,
          "name": "G#3",
          "ticks": 8199,
          "time": 95.33720930232558,
          "velocity": 0.09448818897637795
        },
        {
          "duration": 0.023255813953483084,
          "durationTicks": 2,
          "midi": 53,
          "name": "F3",
          "ticks": 8218,
          "time": 95.55813953488372,
          "velocity": 0.2755905511811024
        },
        {
          "duration": 0.1860465116279073,
          "durationTicks": 16,
          "midi": 55,
          "name": "G3",
          "ticks": 8220,
          "time": 95.5813953488372,
          "velocity": 0.4330708661417323
        },
        {
          "duration": 0.03488372093023884,
          "durationTicks": 3,
          "midi": 55,
          "name": "G3",
          "ticks": 8245,
          "time": 95.87209302325581,
          "velocity": 0.2440944881889764
        },
        {
          "duration": 0.081395348837205,
          "durationTicks": 7,
          "midi": 45,
          "name": "A2",
          "ticks": 8246,
          "time": 95.88372093023256,
          "velocity": 0.1968503937007874
        },
        {
          "duration": 0.1046511627907023,
          "durationTicks": 9,
          "midi": 71,
          "name": "B4",
          "ticks": 8247,
          "time": 95.8953488372093,
          "velocity": 0.10236220472440945
        },
        {
          "duration": 0.023255813953483084,
          "durationTicks": 2,
          "midi": 53,
          "name": "F3",
          "ticks": 8248,
          "time": 95.90697674418605,
          "velocity": 0.2440944881889764
        },
        {
          "duration": 0.11627906976742963,
          "durationTicks": 10,
          "midi": 64,
          "name": "E4",
          "ticks": 8248,
          "time": 95.90697674418605,
          "velocity": 0.2204724409448819
        },
        {
          "duration": 0.023255813953483084,
          "durationTicks": 2,
          "midi": 52,
          "name": "E3",
          "ticks": 8250,
          "time": 95.93023255813954,
          "velocity": 0.2283464566929134
        },
        {
          "duration": 0.05813953488372192,
          "durationTicks": 5,
          "midi": 52,
          "name": "E3",
          "ticks": 8253,
          "time": 95.96511627906976,
          "velocity": 0.2047244094488189
        },
        {
          "duration": 0.023255813953497295,
          "durationTicks": 2,
          "midi": 57,
          "name": "A3",
          "ticks": 8257,
          "time": 96.01162790697674,
          "velocity": 0.28346456692913385
        },
        {
          "duration": 0.16279069767442422,
          "durationTicks": 14,
          "midi": 45,
          "name": "A2",
          "ticks": 8258,
          "time": 96.02325581395348,
          "velocity": 0.30708661417322836
        },
        {
          "duration": 0.023255813953483084,
          "durationTicks": 2,
          "midi": 55,
          "name": "G3",
          "ticks": 8259,
          "time": 96.03488372093024,
          "velocity": 0.30708661417322836
        },
        {
          "duration": 0.19767441860464885,
          "durationTicks": 17,
          "midi": 62,
          "name": "D4",
          "ticks": 8278,
          "time": 96.25581395348837,
          "velocity": 0.25984251968503935
        },
        {
          "duration": 0.11627906976744384,
          "durationTicks": 10,
          "midi": 69,
          "name": "A4",
          "ticks": 8278,
          "time": 96.25581395348837,
          "velocity": 0.09448818897637795
        },
        {
          "duration": 0.19767441860464885,
          "durationTicks": 17,
          "midi": 50,
          "name": "D3",
          "ticks": 8279,
          "time": 96.26744186046511,
          "velocity": 0.25196850393700787
        },
        {
          "duration": 0.8488372093023173,
          "durationTicks": 73,
          "midi": 60,
          "name": "C4",
          "ticks": 8298,
          "time": 96.48837209302326,
          "velocity": 0.25196850393700787
        },
        {
          "duration": 0.03488372093023884,
          "durationTicks": 3,
          "midi": 65,
          "name": "F4",
          "ticks": 8299,
          "time": 96.5,
          "velocity": 0.14173228346456693
        },
        {
          "duration": 0.023255813953497295,
          "durationTicks": 2,
          "midi": 53,
          "name": "F3",
          "ticks": 8301,
          "time": 96.52325581395348,
          "velocity": 0.30708661417322836
        },
        {
          "duration": 0.3488372093023173,
          "durationTicks": 30,
          "midi": 48,
          "name": "C3",
          "ticks": 8308,
          "time": 96.6046511627907,
          "velocity": 0.1732283464566929
        },
        {
          "duration": 0.05813953488372192,
          "durationTicks": 5,
          "midi": 67,
          "name": "G4",
          "ticks": 8337,
          "time": 96.94186046511628,
          "velocity": 0.11023622047244094
        },
        {
          "duration": 0.03488372093023884,
          "durationTicks": 3,
          "midi": 55,
          "name": "G3",
          "ticks": 8339,
          "time": 96.96511627906976,
          "velocity": 0.2125984251968504
        },
        {
          "duration": 0.023255813953483084,
          "durationTicks": 2,
          "midi": 44,
          "name": "G#2",
          "ticks": 8340,
          "time": 96.97674418604652,
          "velocity": 0.3543307086614173
        },
        {
          "duration": 0.27906976744186807,
          "durationTicks": 24,
          "midi": 48,
          "name": "C3",
          "ticks": 8350,
          "time": 97.09302325581395,
          "velocity": 0.1968503937007874
        },
        {
          "duration": 0.06976744186046346,
          "durationTicks": 6,
          "midi": 47,
          "name": "B2",
          "ticks": 8374,
          "time": 97.37209302325581,
          "velocity": 0.07086614173228346
        },
        {
          "duration": 0.023255813953483084,
          "durationTicks": 2,
          "midi": 44,
          "name": "G#2",
          "ticks": 8380,
          "time": 97.44186046511628,
          "velocity": 0.2992125984251969
        },
        {
          "duration": 0.023255813953497295,
          "durationTicks": 2,
          "midi": 45,
          "name": "A2",
          "ticks": 8382,
          "time": 97.46511627906976,
          "velocity": 0.3228346456692913
        },
        {
          "duration": 0.4418604651162923,
          "durationTicks": 38,
          "midi": 59,
          "name": "B3",
          "ticks": 8382,
          "time": 97.46511627906976,
          "velocity": 0.23622047244094488
        },
        {
          "duration": 0.034883720930224626,
          "durationTicks": 3,
          "midi": 55,
          "name": "G3",
          "ticks": 8383,
          "time": 97.47674418604652,
          "velocity": 0.2992125984251969
        },
        {
          "duration": 0.023255813953497295,
          "durationTicks": 2,
          "midi": 46,
          "name": "A#2",
          "ticks": 8386,
          "time": 97.51162790697674,
          "velocity": 0.2283464566929134
        },
        {
          "duration": 0.3604651162790731,
          "durationTicks": 31,
          "midi": 47,
          "name": "B2",
          "ticks": 8390,
          "time": 97.55813953488372,
          "velocity": 0.2047244094488189
        },
        {
          "duration": 0.3139534883720927,
          "durationTicks": 27,
          "midi": 59,
          "name": "B3",
          "ticks": 8423,
          "time": 97.94186046511628,
          "velocity": 0.2440944881889764
        },
        {
          "duration": 0.023255813953497295,
          "durationTicks": 2,
          "midi": 46,
          "name": "A#2",
          "ticks": 8424,
          "time": 97.95348837209302,
          "velocity": 0.2440944881889764
        },
        {
          "duration": 0.04651162790698038,
          "durationTicks": 4,
          "midi": 47,
          "name": "B2",
          "ticks": 8427,
          "time": 97.98837209302326,
          "velocity": 0.1968503937007874
        },
        {
          "duration": 0.2093023255813904,
          "durationTicks": 18,
          "midi": 47,
          "name": "B2",
          "ticks": 8432,
          "time": 98.04651162790698,
          "velocity": 0.1732283464566929
        },
        {
          "duration": 0.12790697674418539,
          "durationTicks": 11,
          "midi": 45,
          "name": "A2",
          "ticks": 8451,
          "time": 98.26744186046511,
          "velocity": 0.3543307086614173
        },
        {
          "duration": 0.12790697674418539,
          "durationTicks": 11,
          "midi": 44,
          "name": "G#2",
          "ticks": 8462,
          "time": 98.3953488372093,
          "velocity": 0.3543307086614173
        },
        {
          "duration": 0.4418604651162781,
          "durationTicks": 38,
          "midi": 64,
          "name": "E4",
          "ticks": 8462,
          "time": 98.3953488372093,
          "velocity": 0.2677165354330709
        },
        {
          "duration": 0.023255813953483084,
          "durationTicks": 2,
          "midi": 53,
          "name": "F3",
          "ticks": 8466,
          "time": 98.44186046511628,
          "velocity": 0.28346456692913385
        },
        {
          "duration": 0.36046511627905886,
          "durationTicks": 31,
          "midi": 52,
          "name": "E3",
          "ticks": 8469,
          "time": 98.47674418604652,
          "velocity": 0.2440944881889764
        },
        {
          "duration": 0.04651162790696617,
          "durationTicks": 4,
          "midi": 56,
          "name": "G#3",
          "ticks": 8501,
          "time": 98.84883720930233,
          "velocity": 0.2204724409448819
        },
        {
          "duration": 0.06976744186046346,
          "durationTicks": 6,
          "midi": 64,
          "name": "E4",
          "ticks": 8503,
          "time": 98.87209302325581,
          "velocity": 0.1732283464566929
        },
        {
          "duration": 0.03488372093023884,
          "durationTicks": 3,
          "midi": 55,
          "name": "G3",
          "ticks": 8505,
          "time": 98.8953488372093,
          "velocity": 0.30708661417322836
        },
        {
          "duration": 0.05813953488372192,
          "durationTicks": 5,
          "midi": 52,
          "name": "E3",
          "ticks": 8512,
          "time": 98.97674418604652,
          "velocity": 0.14173228346456693
        },
        {
          "duration": 0.13953488372092693,
          "durationTicks": 12,
          "midi": 64,
          "name": "E4",
          "ticks": 8525,
          "time": 99.12790697674419,
          "velocity": 0.1732283464566929
        },
        {
          "duration": 0.13953488372092693,
          "durationTicks": 12,
          "midi": 52,
          "name": "E3",
          "ticks": 8526,
          "time": 99.13953488372093,
          "velocity": 0.11811023622047244
        },
        {
          "duration": 0.03488372093023884,
          "durationTicks": 3,
          "midi": 54,
          "name": "F#3",
          "ticks": 8538,
          "time": 99.27906976744185,
          "velocity": 0.14960629921259844
        },
        {
          "duration": 0.1860465116279073,
          "durationTicks": 16,
          "midi": 55,
          "name": "G3",
          "ticks": 8544,
          "time": 99.34883720930233,
          "velocity": 0.44881889763779526
        },
        {
          "duration": 0.13953488372092693,
          "durationTicks": 12,
          "midi": 64,
          "name": "E4",
          "ticks": 8546,
          "time": 99.37209302325581,
          "velocity": 0.16535433070866143
        },
        {
          "duration": 0.32558139534883423,
          "durationTicks": 28,
          "midi": 64,
          "name": "E4",
          "ticks": 8571,
          "time": 99.66279069767442,
          "velocity": 0.29133858267716534
        },
        {
          "duration": 0.15116279069766847,
          "durationTicks": 13,
          "midi": 52,
          "name": "E3",
          "ticks": 8573,
          "time": 99.68604651162791,
          "velocity": 0.2125984251968504
        },
        {
          "duration": 0.04651162790698038,
          "durationTicks": 4,
          "midi": 45,
          "name": "A2",
          "ticks": 8588,
          "time": 99.86046511627907,
          "velocity": 0.2125984251968504
        },
        {
          "duration": 0.034883720930224626,
          "durationTicks": 3,
          "midi": 44,
          "name": "G#2",
          "ticks": 8592,
          "time": 99.90697674418605,
          "velocity": 0.09448818897637795
        },
        {
          "duration": 0.11627906976742963,
          "durationTicks": 10,
          "midi": 62,
          "name": "D4",
          "ticks": 8603,
          "time": 100.03488372093024,
          "velocity": 0.25196850393700787
        },
        {
          "duration": 0.24418604651162923,
          "durationTicks": 21,
          "midi": 50,
          "name": "D3",
          "ticks": 8605,
          "time": 100.05813953488372,
          "velocity": 0.23622047244094488
        },
        {
          "duration": 0.06976744186047767,
          "durationTicks": 6,
          "midi": 64,
          "name": "E4",
          "ticks": 8613,
          "time": 100.15116279069767,
          "velocity": 0.2440944881889764
        },
        {
          "duration": 0.24418604651162923,
          "durationTicks": 21,
          "midi": 64,
          "name": "E4",
          "ticks": 8620,
          "time": 100.23255813953489,
          "velocity": 0.2204724409448819
        },
        {
          "duration": 0.04651162790696617,
          "durationTicks": 4,
          "midi": 45,
          "name": "A2",
          "ticks": 8625,
          "time": 100.29069767441861,
          "velocity": 0.25984251968503935
        },
        {
          "duration": 0.4418604651162781,
          "durationTicks": 38,
          "midi": 60,
          "name": "C4",
          "ticks": 8625,
          "time": 100.29069767441861,
          "velocity": 0.2677165354330709
        },
        {
          "duration": 0.38372093023255616,
          "durationTicks": 33,
          "midi": 67,
          "name": "G4",
          "ticks": 8630,
          "time": 100.34883720930233,
          "velocity": 0.09448818897637795
        },
        {
          "duration": 0.32558139534883423,
          "durationTicks": 28,
          "midi": 48,
          "name": "C3",
          "ticks": 8635,
          "time": 100.40697674418605,
          "velocity": 0.18110236220472442
        },
        {
          "duration": 0.22093023255814614,
          "durationTicks": 19,
          "midi": 64,
          "name": "E4",
          "ticks": 8645,
          "time": 100.52325581395348,
          "velocity": 0.16535433070866143
        },
        {
          "duration": 0.034883720930224626,
          "durationTicks": 3,
          "midi": 44,
          "name": "G#2",
          "ticks": 8664,
          "time": 100.74418604651163,
          "velocity": 0.2992125984251969
        },
        {
          "duration": 0.034883720930224626,
          "durationTicks": 3,
          "midi": 65,
          "name": "F4",
          "ticks": 8664,
          "time": 100.74418604651163,
          "velocity": 0.12598425196850394
        },
        {
          "duration": 0.48837209302325846,
          "durationTicks": 42,
          "midi": 60,
          "name": "C4",
          "ticks": 8665,
          "time": 100.75581395348837,
          "velocity": 0.2677165354330709
        },
        {
          "duration": 0.3720930232558146,
          "durationTicks": 32,
          "midi": 67,
          "name": "G4",
          "ticks": 8667,
          "time": 100.77906976744185,
          "velocity": 0.11811023622047244
        },
        {
          "duration": 0.30232558139535115,
          "durationTicks": 26,
          "midi": 48,
          "name": "C3",
          "ticks": 8675,
          "time": 100.87209302325581,
          "velocity": 0.1732283464566929
        },
        {
          "duration": 0.17441860465116577,
          "durationTicks": 15,
          "midi": 64,
          "name": "E4",
          "ticks": 8687,
          "time": 101.01162790697674,
          "velocity": 0.12598425196850394
        },
        {
          "duration": 0.04651162790698038,
          "durationTicks": 4,
          "midi": 47,
          "name": "B2",
          "ticks": 8707,
          "time": 101.24418604651163,
          "velocity": 0.18110236220472442
        },
        {
          "duration": 0.2674418604651123,
          "durationTicks": 23,
          "midi": 63,
          "name": "D#4",
          "ticks": 8708,
          "time": 101.25581395348837,
          "velocity": 0.13385826771653545
        },
        {
          "duration": 0.38372093023255616,
          "durationTicks": 33,
          "midi": 47,
          "name": "B2",
          "ticks": 8712,
          "time": 101.30232558139535,
          "velocity": 0.14960629921259844
        },
        {
          "duration": 0.16279069767441,
          "durationTicks": 14,
          "midi": 75,
          "name": "D#5",
          "ticks": 8738,
          "time": 101.6046511627907,
          "velocity": 0.07874015748031496
        },
        {
          "duration": 0.04651162790698038,
          "durationTicks": 4,
          "midi": 63,
          "name": "D#4",
          "ticks": 8745,
          "time": 101.68604651162791,
          "velocity": 0.07874015748031496
        },
        {
          "duration": 0.034883720930224626,
          "durationTicks": 3,
          "midi": 44,
          "name": "G#2",
          "ticks": 8748,
          "time": 101.72093023255815,
          "velocity": 0.25196850393700787
        },
        {
          "duration": 0.034883720930224626,
          "durationTicks": 3,
          "midi": 55,
          "name": "G3",
          "ticks": 8764,
          "time": 101.90697674418605,
          "velocity": 0.09448818897637795
        },
        {
          "duration": 0.06976744186046346,
          "durationTicks": 6,
          "midi": 63,
          "name": "D#4",
          "ticks": 8764,
          "time": 101.90697674418605,
          "velocity": 0.10236220472440945
        },
        {
          "duration": 0.16279069767441,
          "durationTicks": 14,
          "midi": 64,
          "name": "E4",
          "ticks": 8770,
          "time": 101.97674418604652,
          "velocity": 0.11023622047244094
        },
        {
          "duration": 0.03488372093023884,
          "durationTicks": 3,
          "midi": 44,
          "name": "G#2",
          "ticks": 8784,
          "time": 102.13953488372093,
          "velocity": 0.3464566929133858
        },
        {
          "duration": 0.4534883720930196,
          "durationTicks": 39,
          "midi": 64,
          "name": "E4",
          "ticks": 8786,
          "time": 102.16279069767442,
          "velocity": 0.11023622047244094
        },
        {
          "duration": 0.06976744186046346,
          "durationTicks": 6,
          "midi": 44,
          "name": "G#2",
          "ticks": 8788,
          "time": 102.18604651162791,
          "velocity": 0.2125984251968504
        },
        {
          "duration": 0.418604651162795,
          "durationTicks": 36,
          "midi": 52,
          "name": "E3",
          "ticks": 8789,
          "time": 102.19767441860465,
          "velocity": 0.14173228346456693
        },
        {
          "duration": 0.034883720930224626,
          "durationTicks": 3,
          "midi": 55,
          "name": "G3",
          "ticks": 8825,
          "time": 102.61627906976744,
          "velocity": 0.25196850393700787
        },
        {
          "duration": 0.05813953488372192,
          "durationTicks": 5,
          "midi": 64,
          "name": "E4",
          "ticks": 8827,
          "time": 102.63953488372093,
          "velocity": 0.10236220472440945
        },
        {
          "duration": 0.15116279069768268,
          "durationTicks": 13,
          "midi": 52,
          "name": "E3",
          "ticks": 8848,
          "time": 102.88372093023256,
          "velocity": 0.2125984251968504
        },
        {
          "duration": 0.034883720930224626,
          "durationTicks": 3,
          "midi": 54,
          "name": "F#3",
          "ticks": 8861,
          "time": 103.03488372093024,
          "velocity": 0.25196850393700787
        },
        {
          "duration": 0.2674418604651123,
          "durationTicks": 23,
          "midi": 55,
          "name": "G3",
          "ticks": 8864,
          "time": 103.06976744186046,
          "velocity": 0.3937007874015748
        },
        {
          "duration": 0.04651162790698038,
          "durationTicks": 4,
          "midi": 45,
          "name": "A2",
          "ticks": 8866,
          "time": 103.09302325581395,
          "velocity": 0.23622047244094488
        },
        {
          "duration": 0.11627906976744384,
          "durationTicks": 10,
          "midi": 64,
          "name": "E4",
          "ticks": 8868,
          "time": 103.11627906976744,
          "velocity": 0.10236220472440945
        },
        {
          "duration": 0.15116279069768268,
          "durationTicks": 13,
          "midi": 64,
          "name": "E4",
          "ticks": 8898,
          "time": 103.46511627906976,
          "velocity": 0.2992125984251969
        },
        {
          "duration": 0.12790697674418539,
          "durationTicks": 11,
          "midi": 71,
          "name": "B4",
          "ticks": 8898,
          "time": 103.46511627906976,
          "velocity": 0.11811023622047244
        },
        {
          "duration": 0.05813953488372192,
          "durationTicks": 5,
          "midi": 45,
          "name": "A2",
          "ticks": 8900,
          "time": 103.48837209302326,
          "velocity": 0.2204724409448819
        },
        {
          "duration": 0.11627906976744384,
          "durationTicks": 10,
          "midi": 52,
          "name": "E3",
          "ticks": 8902,
          "time": 103.51162790697674,
          "velocity": 0.2992125984251969
        },
        {
          "duration": 0.023255813953483084,
          "durationTicks": 2,
          "midi": 55,
          "name": "G3",
          "ticks": 8912,
          "time": 103.62790697674419,
          "velocity": 0.2755905511811024
        },
        {
          "duration": 0.05813953488372192,
          "durationTicks": 5,
          "midi": 45,
          "name": "A2",
          "ticks": 8915,
          "time": 103.66279069767442,
          "velocity": 0.1732283464566929
        },
        {
          "duration": 0.034883720930224626,
          "durationTicks": 3,
          "midi": 55,
          "name": "G3",
          "ticks": 8926,
          "time": 103.79069767441861,
          "velocity": 0.2283464566929134
        },
        {
          "duration": 0.19767441860464885,
          "durationTicks": 17,
          "midi": 62,
          "name": "D4",
          "ticks": 8928,
          "time": 103.81395348837209,
          "velocity": 0.2440944881889764
        },
        {
          "duration": 0.1860465116279073,
          "durationTicks": 16,
          "midi": 50,
          "name": "D3",
          "ticks": 8930,
          "time": 103.83720930232558,
          "velocity": 0.2204724409448819
        },
        {
          "duration": 0.12790697674418539,
          "durationTicks": 11,
          "midi": 56,
          "name": "G#3",
          "ticks": 8934,
          "time": 103.88372093023256,
          "velocity": 0.12598425196850394
        },
        {
          "duration": 0.034883720930224626,
          "durationTicks": 3,
          "midi": 65,
          "name": "F4",
          "ticks": 8949,
          "time": 104.05813953488372,
          "velocity": 0.13385826771653545
        },
        {
          "duration": 0.4534883720930196,
          "durationTicks": 39,
          "midi": 60,
          "name": "C4",
          "ticks": 8950,
          "time": 104.06976744186046,
          "velocity": 0.28346456692913385
        },
        {
          "duration": 0.023255813953497295,
          "durationTicks": 2,
          "midi": 55,
          "name": "G3",
          "ticks": 8951,
          "time": 104.0813953488372,
          "velocity": 0.2992125984251969
        },
        {
          "duration": 0.3720930232558146,
          "durationTicks": 32,
          "midi": 48,
          "name": "C3",
          "ticks": 8956,
          "time": 104.13953488372093,
          "velocity": 0.2283464566929134
        },
        {
          "duration": 0.2325581395348877,
          "durationTicks": 20,
          "midi": 67,
          "name": "G4",
          "ticks": 8957,
          "time": 104.15116279069767,
          "velocity": 0.07086614173228346
        },
        {
          "duration": 0.03488372093023884,
          "durationTicks": 3,
          "midi": 65,
          "name": "F4",
          "ticks": 8989,
          "time": 104.52325581395348,
          "velocity": 0.15748031496062992
        },
        {
          "duration": 0.04651162790696617,
          "durationTicks": 4,
          "midi": 55,
          "name": "G3",
          "ticks": 8991,
          "time": 104.54651162790698,
          "velocity": 0.3779527559055118
        },
        {
          "duration": 0.2906976744185954,
          "durationTicks": 25,
          "midi": 60,
          "name": "C4",
          "ticks": 8991,
          "time": 104.54651162790698,
          "velocity": 0.23622047244094488
        },
        {
          "duration": 0.2093023255813904,
          "durationTicks": 18,
          "midi": 48,
          "name": "C3",
          "ticks": 8997,
          "time": 104.61627906976744,
          "velocity": 0.10236220472440945
        },
        {
          "duration": 0.15116279069768268,
          "durationTicks": 13,
          "midi": 47,
          "name": "B2",
          "ticks": 9015,
          "time": 104.82558139534883,
          "velocity": 0.08661417322834646
        },
        {
          "duration": 0.034883720930224626,
          "durationTicks": 3,
          "midi": 72,
          "name": "C5",
          "ticks": 9028,
          "time": 104.97674418604652,
          "velocity": 0.14960629921259844
        },
        {
          "duration": 0.023255813953483084,
          "durationTicks": 2,
          "midi": 55,
          "name": "G3",
          "ticks": 9029,
          "time": 104.98837209302326,
          "velocity": 0.33858267716535434
        },
        {
          "duration": 0.03488372093023884,
          "durationTicks": 3,
          "midi": 45,
          "name": "A2",
          "ticks": 9031,
          "time": 105.01162790697674,
          "velocity": 0.28346456692913385
        },
        {
          "duration": 0.03488372093023884,
          "durationTicks": 3,
          "midi": 59,
          "name": "B3",
          "ticks": 9031,
          "time": 105.01162790697674,
          "velocity": 0.16535433070866143
        },
        {
          "duration": 0.04651162790698038,
          "durationTicks": 4,
          "midi": 55,
          "name": "G3",
          "ticks": 9032,
          "time": 105.02325581395348,
          "velocity": 0.2677165354330709
        },
        {
          "duration": 0.40697674418603924,
          "durationTicks": 35,
          "midi": 59,
          "name": "B3",
          "ticks": 9035,
          "time": 105.05813953488372,
          "velocity": 0.11811023622047244
        },
        {
          "duration": 0.30232558139535115,
          "durationTicks": 26,
          "midi": 47,
          "name": "B2",
          "ticks": 9042,
          "time": 105.13953488372093,
          "velocity": 0.15748031496062992
        },
        {
          "duration": 0.48837209302325846,
          "durationTicks": 42,
          "midi": 64,
          "name": "E4",
          "ticks": 9069,
          "time": 105.45348837209302,
          "velocity": 0.30708661417322836
        },
        {
          "duration": 0.08139534883721922,
          "durationTicks": 7,
          "midi": 55,
          "name": "G3",
          "ticks": 9070,
          "time": 105.46511627906976,
          "velocity": 0.3779527559055118
        },
        {
          "duration": 0.09302325581396076,
          "durationTicks": 8,
          "midi": 71,
          "name": "B4",
          "ticks": 9070,
          "time": 105.46511627906976,
          "velocity": 0.13385826771653545
        },
        {
          "duration": 0.023255813953483084,
          "durationTicks": 2,
          "midi": 45,
          "name": "A2",
          "ticks": 9071,
          "time": 105.47674418604652,
          "velocity": 0.2283464566929134
        },
        {
          "duration": 0.05813953488372192,
          "durationTicks": 5,
          "midi": 59,
          "name": "B3",
          "ticks": 9075,
          "time": 105.52325581395348,
          "velocity": 0.1968503937007874
        },
        {
          "duration": 0.06976744186047767,
          "durationTicks": 6,
          "midi": 55,
          "name": "G3",
          "ticks": 9081,
          "time": 105.59302325581395,
          "velocity": 0.2047244094488189
        },
        {
          "duration": 0.09302325581394655,
          "durationTicks": 8,
          "midi": 45,
          "name": "A2",
          "ticks": 9082,
          "time": 105.6046511627907,
          "velocity": 0.13385826771653545
        },
        {
          "duration": 0.023255813953497295,
          "durationTicks": 2,
          "midi": 56,
          "name": "G#3",
          "ticks": 9091,
          "time": 105.70930232558139,
          "velocity": 0.2992125984251969
        },
        {
          "duration": 0.034883720930224626,
          "durationTicks": 3,
          "midi": 44,
          "name": "G#2",
          "ticks": 9092,
          "time": 105.72093023255815,
          "velocity": 0.25196850393700787
        },
        {
          "duration": 0.034883720930224626,
          "durationTicks": 3,
          "midi": 55,
          "name": "G3",
          "ticks": 9093,
          "time": 105.73255813953489,
          "velocity": 0.2992125984251969
        },
        {
          "duration": 0.023255813953483084,
          "durationTicks": 2,
          "midi": 45,
          "name": "A2",
          "ticks": 9095,
          "time": 105.75581395348837,
          "velocity": 0.2755905511811024
        },
        {
          "duration": 0.04651162790696617,
          "durationTicks": 4,
          "midi": 45,
          "name": "A2",
          "ticks": 9098,
          "time": 105.79069767441861,
          "velocity": 0.2440944881889764
        },
        {
          "duration": 0.2093023255814046,
          "durationTicks": 18,
          "midi": 55,
          "name": "G3",
          "ticks": 9101,
          "time": 105.82558139534883,
          "velocity": 0.41732283464566927
        },
        {
          "duration": 0.023255813953483084,
          "durationTicks": 2,
          "midi": 44,
          "name": "G#2",
          "ticks": 9104,
          "time": 105.86046511627907,
          "velocity": 0.2440944881889764
        },
        {
          "duration": 0.034883720930224626,
          "durationTicks": 3,
          "midi": 68,
          "name": "G#4",
          "ticks": 9109,
          "time": 105.9186046511628,
          "velocity": 0.11023622047244094
        },
        {
          "duration": 0.09302325581394655,
          "durationTicks": 8,
          "midi": 71,
          "name": "B4",
          "ticks": 9110,
          "time": 105.93023255813954,
          "velocity": 0.11811023622047244
        },
        {
          "duration": 0.023255813953483084,
          "durationTicks": 2,
          "midi": 65,
          "name": "F4",
          "ticks": 9111,
          "time": 105.94186046511628,
          "velocity": 0.25196850393700787
        },
        {
          "duration": 0.32558139534883423,
          "durationTicks": 28,
          "midi": 76,
          "name": "E5",
          "ticks": 9111,
          "time": 105.94186046511628,
          "velocity": 0.11811023622047244
        },
        {
          "duration": 0.3139534883720927,
          "durationTicks": 27,
          "midi": 64,
          "name": "E4",
          "ticks": 9113,
          "time": 105.96511627906976,
          "velocity": 0.2440944881889764
        },
        {
          "duration": 0.034883720930224626,
          "durationTicks": 3,
          "midi": 44,
          "name": "G#2",
          "ticks": 9114,
          "time": 105.97674418604652,
          "velocity": 0.18110236220472442
        },
        {
          "duration": 0.034883720930224626,
          "durationTicks": 3,
          "midi": 59,
          "name": "B3",
          "ticks": 9115,
          "time": 105.98837209302326,
          "velocity": 0.1732283464566929
        },
        {
          "duration": 0.12790697674418539,
          "durationTicks": 11,
          "midi": 83,
          "name": "B5",
          "ticks": 9116,
          "time": 106,
          "velocity": 0.14960629921259844
        },
        {
          "duration": 0.023255813953483084,
          "durationTicks": 2,
          "midi": 56,
          "name": "G#3",
          "ticks": 9119,
          "time": 106.03488372093024,
          "velocity": 0.30708661417322836
        },
        {
          "duration": 0.1860465116279073,
          "durationTicks": 16,
          "midi": 55,
          "name": "G3",
          "ticks": 9121,
          "time": 106.05813953488372,
          "velocity": 0.3543307086614173
        },
        {
          "duration": 0.04651162790698038,
          "durationTicks": 4,
          "midi": 59,
          "name": "B3",
          "ticks": 9121,
          "time": 106.05813953488372,
          "velocity": 0.16535433070866143
        },
        {
          "duration": 0.04651162790698038,
          "durationTicks": 4,
          "midi": 59,
          "name": "B3",
          "ticks": 9126,
          "time": 106.11627906976744,
          "velocity": 0.14960629921259844
        },
        {
          "duration": 0.034883720930224626,
          "durationTicks": 3,
          "midi": 83,
          "name": "B5",
          "ticks": 9130,
          "time": 106.16279069767442,
          "velocity": 0.08661417322834646
        },
        {
          "duration": 0.13953488372092693,
          "durationTicks": 12,
          "midi": 59,
          "name": "B3",
          "ticks": 9136,
          "time": 106.23255813953489,
          "velocity": 0.14173228346456693
        },
        {
          "duration": 0.034883720930224626,
          "durationTicks": 3,
          "midi": 83,
          "name": "B5",
          "ticks": 9136,
          "time": 106.23255813953489,
          "velocity": 0.10236220472440945
        },
        {
          "duration": 0.08139534883721922,
          "durationTicks": 7,
          "midi": 62,
          "name": "D4",
          "ticks": 9140,
          "time": 106.27906976744185,
          "velocity": 0.15748031496062992
        },
        {
          "duration": 0.17441860465116577,
          "durationTicks": 15,
          "midi": 55,
          "name": "G3",
          "ticks": 9144,
          "time": 106.32558139534883,
          "velocity": 0.44881889763779526
        },
        {
          "duration": 0.034883720930224626,
          "durationTicks": 3,
          "midi": 64,
          "name": "E4",
          "ticks": 9153,
          "time": 106.43023255813954,
          "velocity": 0.12598425196850394
        },
        {
          "duration": 0.43023255813953654,
          "durationTicks": 37,
          "midi": 71,
          "name": "B4",
          "ticks": 9153,
          "time": 106.43023255813954,
          "velocity": 0.1732283464566929
        },
        {
          "duration": 0.06976744186046346,
          "durationTicks": 6,
          "midi": 44,
          "name": "G#2",
          "ticks": 9155,
          "time": 106.45348837209302,
          "velocity": 0.18110236220472442
        },
        {
          "duration": 0.16279069767441,
          "durationTicks": 14,
          "midi": 64,
          "name": "E4",
          "ticks": 9157,
          "time": 106.47674418604652,
          "velocity": 0.2283464566929134
        },
        {
          "duration": 0.03488372093023884,
          "durationTicks": 3,
          "midi": 56,
          "name": "G#3",
          "ticks": 9159,
          "time": 106.5,
          "velocity": 0.36220472440944884
        },
        {
          "duration": 0.1046511627907023,
          "durationTicks": 9,
          "midi": 43,
          "name": "G2",
          "ticks": 9161,
          "time": 106.52325581395348,
          "velocity": 0.13385826771653545
        },
        {
          "duration": 0.05813953488370771,
          "durationTicks": 5,
          "midi": 55,
          "name": "G3",
          "ticks": 9162,
          "time": 106.53488372093024,
          "velocity": 0.3779527559055118
        },
        {
          "duration": 0.023255813953483084,
          "durationTicks": 2,
          "midi": 55,
          "name": "G3",
          "ticks": 9168,
          "time": 106.6046511627907,
          "velocity": 0.2992125984251969
        },
        {
          "duration": 0.023255813953483084,
          "durationTicks": 2,
          "midi": 54,
          "name": "F#3",
          "ticks": 9170,
          "time": 106.62790697674419,
          "velocity": 0.33858267716535434
        },
        {
          "duration": 0.08139534883721922,
          "durationTicks": 7,
          "midi": 55,
          "name": "G3",
          "ticks": 9172,
          "time": 106.65116279069767,
          "velocity": 0.41732283464566927
        },
        {
          "duration": 0.2906976744185954,
          "durationTicks": 25,
          "midi": 64,
          "name": "E4",
          "ticks": 9173,
          "time": 106.66279069767442,
          "velocity": 0.2677165354330709
        },
        {
          "duration": 0.034883720930224626,
          "durationTicks": 3,
          "midi": 44,
          "name": "G#2",
          "ticks": 9178,
          "time": 106.72093023255815,
          "velocity": 0.15748031496062992
        },
        {
          "duration": 0.023255813953483084,
          "durationTicks": 2,
          "midi": 56,
          "name": "G#3",
          "ticks": 9179,
          "time": 106.73255813953489,
          "velocity": 0.33858267716535434
        },
        {
          "duration": 0.2906976744186096,
          "durationTicks": 25,
          "midi": 55,
          "name": "G3",
          "ticks": 9181,
          "time": 106.75581395348837,
          "velocity": 0.3858267716535433
        },
        {
          "duration": 0.034883720930224626,
          "durationTicks": 3,
          "midi": 72,
          "name": "C5",
          "ticks": 9190,
          "time": 106.86046511627907,
          "velocity": 0.14173228346456693
        },
        {
          "duration": 0.2093023255814046,
          "durationTicks": 18,
          "midi": 71,
          "name": "B4",
          "ticks": 9193,
          "time": 106.8953488372093,
          "velocity": 0.14173228346456693
        },
        {
          "duration": 0.034883720930224626,
          "durationTicks": 3,
          "midi": 44,
          "name": "G#2",
          "ticks": 9195,
          "time": 106.9186046511628,
          "velocity": 0.25984251968503935
        },
        {
          "duration": 0.15116279069768268,
          "durationTicks": 13,
          "midi": 43,
          "name": "G2",
          "ticks": 9198,
          "time": 106.95348837209302,
          "velocity": 0.15748031496062992
        },
        {
          "duration": 0.12790697674418539,
          "durationTicks": 11,
          "midi": 59,
          "name": "B3",
          "ticks": 9199,
          "time": 106.96511627906976,
          "velocity": 0.2125984251968504
        },
        {
          "duration": 0.13953488372094114,
          "durationTicks": 12,
          "midi": 64,
          "name": "E4",
          "ticks": 9199,
          "time": 106.96511627906976,
          "velocity": 0.2755905511811024
        },
        {
          "duration": 0.22093023255813193,
          "durationTicks": 19,
          "midi": 55,
          "name": "G3",
          "ticks": 9207,
          "time": 107.05813953488372,
          "velocity": 0.41732283464566927
        },
        {
          "duration": 0.081395348837205,
          "durationTicks": 7,
          "midi": 76,
          "name": "E5",
          "ticks": 9213,
          "time": 107.12790697674419,
          "velocity": 0.13385826771653545
        },
        {
          "duration": 0.04651162790698038,
          "durationTicks": 4,
          "midi": 44,
          "name": "G#2",
          "ticks": 9214,
          "time": 107.13953488372093,
          "velocity": 0.2283464566929134
        },
        {
          "duration": 0.06976744186047767,
          "durationTicks": 6,
          "midi": 64,
          "name": "E4",
          "ticks": 9215,
          "time": 107.15116279069767,
          "velocity": 0.2283464566929134
        },
        {
          "duration": 0.11627906976744384,
          "durationTicks": 10,
          "midi": 83,
          "name": "B5",
          "ticks": 9218,
          "time": 107.18604651162791,
          "velocity": 0.09448818897637795
        },
        {
          "duration": 0.13953488372094114,
          "durationTicks": 12,
          "midi": 71,
          "name": "B4",
          "ticks": 9220,
          "time": 107.20930232558139,
          "velocity": 0.09448818897637795
        },
        {
          "duration": 0.11627906976744384,
          "durationTicks": 10,
          "midi": 43,
          "name": "G2",
          "ticks": 9222,
          "time": 107.23255813953489,
          "velocity": 0.15748031496062992
        },
        {
          "duration": 0.12790697674418539,
          "durationTicks": 11,
          "midi": 64,
          "name": "E4",
          "ticks": 9224,
          "time": 107.25581395348837,
          "velocity": 0.2125984251968504
        },
        {
          "duration": 0.06976744186047767,
          "durationTicks": 6,
          "midi": 59,
          "name": "B3",
          "ticks": 9226,
          "time": 107.27906976744185,
          "velocity": 0.2047244094488189
        },
        {
          "duration": 0.16279069767441,
          "durationTicks": 14,
          "midi": 55,
          "name": "G3",
          "ticks": 9227,
          "time": 107.29069767441861,
          "velocity": 0.4645669291338583
        },
        {
          "duration": 0.19767441860464885,
          "durationTicks": 17,
          "midi": 64,
          "name": "E4",
          "ticks": 9237,
          "time": 107.40697674418605,
          "velocity": 0.2283464566929134
        },
        {
          "duration": 0.13953488372092693,
          "durationTicks": 12,
          "midi": 71,
          "name": "B4",
          "ticks": 9239,
          "time": 107.43023255813954,
          "velocity": 0.08661417322834646
        },
        {
          "duration": 0.03488372093023884,
          "durationTicks": 3,
          "midi": 44,
          "name": "G#2",
          "ticks": 9240,
          "time": 107.44186046511628,
          "velocity": 0.25984251968503935
        },
        {
          "duration": 0.11627906976744384,
          "durationTicks": 10,
          "midi": 55,
          "name": "G3",
          "ticks": 9242,
          "time": 107.46511627906976,
          "velocity": 0.4330708661417323
        },
        {
          "duration": 0.10465116279068809,
          "durationTicks": 9,
          "midi": 43,
          "name": "G2",
          "ticks": 9243,
          "time": 107.47674418604652,
          "velocity": 0.1889763779527559
        },
        {
          "duration": 0.03488372093023884,
          "durationTicks": 3,
          "midi": 59,
          "name": "B3",
          "ticks": 9251,
          "time": 107.56976744186046,
          "velocity": 0.2047244094488189
        },
        {
          "duration": 0.023255813953497295,
          "durationTicks": 2,
          "midi": 54,
          "name": "F#3",
          "ticks": 9252,
          "time": 107.5813953488372,
          "velocity": 0.3464566929133858
        },
        {
          "duration": 0.09302325581394655,
          "durationTicks": 8,
          "midi": 55,
          "name": "G3",
          "ticks": 9254,
          "time": 107.6046511627907,
          "velocity": 0.4015748031496063
        },
        {
          "duration": 0.03488372093023884,
          "durationTicks": 3,
          "midi": 60,
          "name": "C4",
          "ticks": 9261,
          "time": 107.68604651162791,
          "velocity": 0.2204724409448819
        },
        {
          "duration": 0.04651162790698038,
          "durationTicks": 4,
          "midi": 55,
          "name": "G3",
          "ticks": 9263,
          "time": 107.70930232558139,
          "velocity": 0.30708661417322836
        },
        {
          "duration": 0.09302325581394655,
          "durationTicks": 8,
          "midi": 61,
          "name": "C#4",
          "ticks": 9264,
          "time": 107.72093023255815,
          "velocity": 0.2204724409448819
        },
        {
          "duration": 0.081395348837205,
          "durationTicks": 7,
          "midi": 64,
          "name": "E4",
          "ticks": 9264,
          "time": 107.72093023255815,
          "velocity": 0.2047244094488189
        },
        {
          "duration": 0.16279069767442422,
          "durationTicks": 14,
          "midi": 69,
          "name": "A4",
          "ticks": 9269,
          "time": 107.77906976744185,
          "velocity": 0.14173228346456693
        },
        {
          "duration": 0.03488372093023884,
          "durationTicks": 3,
          "midi": 55,
          "name": "G3",
          "ticks": 9272,
          "time": 107.81395348837209,
          "velocity": 0.3858267716535433
        },
        {
          "duration": 0.19767441860464885,
          "durationTicks": 17,
          "midi": 61,
          "name": "C#4",
          "ticks": 9273,
          "time": 107.82558139534883,
          "velocity": 0.23622047244094488
        },
        {
          "duration": 0.6744186046511658,
          "durationTicks": 58,
          "midi": 64,
          "name": "E4",
          "ticks": 9273,
          "time": 107.82558139534883,
          "velocity": 0.31496062992125984
        },
        {
          "duration": 0.2325581395348877,
          "durationTicks": 20,
          "midi": 45,
          "name": "A2",
          "ticks": 9274,
          "time": 107.83720930232558,
          "velocity": 0.25196850393700787
        },
        {
          "duration": 0.1860465116279073,
          "durationTicks": 16,
          "midi": 57,
          "name": "A3",
          "ticks": 9278,
          "time": 107.88372093023256,
          "velocity": 0.29133858267716534
        },
        {
          "duration": 0.2093023255813904,
          "durationTicks": 18,
          "midi": 61,
          "name": "C#4",
          "ticks": 9293,
          "time": 108.05813953488372,
          "velocity": 0.2125984251968504
        },
        {
          "duration": 0.03488372093023884,
          "durationTicks": 3,
          "midi": 44,
          "name": "G#2",
          "ticks": 9294,
          "time": 108.06976744186046,
          "velocity": 0.08661417322834646
        },
        {
          "duration": 0.40697674418605345,
          "durationTicks": 35,
          "midi": 69,
          "name": "A4",
          "ticks": 9294,
          "time": 108.06976744186046,
          "velocity": 0.16535433070866143
        },
        {
          "duration": 0.38372093023255616,
          "durationTicks": 33,
          "midi": 57,
          "name": "A3",
          "ticks": 9298,
          "time": 108.11627906976744,
          "velocity": 0.30708661417322836
        },
        {
          "duration": 0.10465116279068809,
          "durationTicks": 9,
          "midi": 61,
          "name": "C#4",
          "ticks": 9313,
          "time": 108.29069767441861,
          "velocity": 0.2283464566929134
        },
        {
          "duration": 0.1860465116279073,
          "durationTicks": 16,
          "midi": 45,
          "name": "A2",
          "ticks": 9315,
          "time": 108.31395348837209,
          "velocity": 0.25984251968503935
        },
        {
          "duration": 0.081395348837205,
          "durationTicks": 7,
          "midi": 61,
          "name": "C#4",
          "ticks": 9323,
          "time": 108.40697674418605,
          "velocity": 0.2204724409448819
        },
        {
          "duration": 0.03488372093023884,
          "durationTicks": 3,
          "midi": 65,
          "name": "F4",
          "ticks": 9331,
          "time": 108.5,
          "velocity": 0.2204724409448819
        },
        {
          "duration": 0.023255813953497295,
          "durationTicks": 2,
          "midi": 56,
          "name": "G#3",
          "ticks": 9332,
          "time": 108.51162790697674,
          "velocity": 0.3543307086614173
        },
        {
          "duration": 0.081395348837205,
          "durationTicks": 7,
          "midi": 61,
          "name": "C#4",
          "ticks": 9334,
          "time": 108.53488372093024,
          "velocity": 0.25984251968503935
        },
        {
          "duration": 0.19767441860464885,
          "durationTicks": 17,
          "midi": 64,
          "name": "E4",
          "ticks": 9334,
          "time": 108.53488372093024,
          "velocity": 0.2677165354330709
        },
        {
          "duration": 0.11627906976744384,
          "durationTicks": 10,
          "midi": 45,
          "name": "A2",
          "ticks": 9335,
          "time": 108.54651162790698,
          "velocity": 0.23622047244094488
        },
        {
          "duration": 0.09302325581394655,
          "durationTicks": 8,
          "midi": 57,
          "name": "A3",
          "ticks": 9336,
          "time": 108.55813953488372,
          "velocity": 0.2677165354330709
        },
        {
          "duration": 0.09302325581396076,
          "durationTicks": 8,
          "midi": 69,
          "name": "A4",
          "ticks": 9344,
          "time": 108.65116279069767,
          "velocity": 0.12598425196850394
        },
        {
          "duration": 0.05813953488372192,
          "durationTicks": 5,
          "midi": 45,
          "name": "A2",
          "ticks": 9347,
          "time": 108.68604651162791,
          "velocity": 0.2755905511811024
        },
        {
          "duration": 0.05813953488370771,
          "durationTicks": 5,
          "midi": 55,
          "name": "G3",
          "ticks": 9350,
          "time": 108.72093023255815,
          "velocity": 0.3543307086614173
        },
        {
          "duration": 0.22093023255814614,
          "durationTicks": 19,
          "midi": 64,
          "name": "E4",
          "ticks": 9353,
          "time": 108.75581395348837,
          "velocity": 0.25196850393700787
        },
        {
          "duration": 0.3720930232558146,
          "durationTicks": 32,
          "midi": 69,
          "name": "A4",
          "ticks": 9354,
          "time": 108.76744186046511,
          "velocity": 0.16535433070866143
        },
        {
          "duration": 0.22093023255814614,
          "durationTicks": 19,
          "midi": 45,
          "name": "A2",
          "ticks": 9355,
          "time": 108.77906976744185,
          "velocity": 0.3464566929133858
        },
        {
          "duration": 0.06976744186046346,
          "durationTicks": 6,
          "midi": 67,
          "name": "G4",
          "ticks": 9357,
          "time": 108.80232558139535,
          "velocity": 0.09448818897637795
        },
        {
          "duration": 0.1860465116279073,
          "durationTicks": 16,
          "midi": 61,
          "name": "C#4",
          "ticks": 9372,
          "time": 108.97674418604652,
          "velocity": 0.1889763779527559
        },
        {
          "duration": 0.19767441860466306,
          "durationTicks": 17,
          "midi": 45,
          "name": "A2",
          "ticks": 9376,
          "time": 109.02325581395348,
          "velocity": 0.25984251968503935
        },
        {
          "duration": 0.023255813953497295,
          "durationTicks": 2,
          "midi": 55,
          "name": "G3",
          "ticks": 9391,
          "time": 109.19767441860465,
          "velocity": 0.2992125984251969
        },
        {
          "duration": 0.05813953488372192,
          "durationTicks": 5,
          "midi": 62,
          "name": "D4",
          "ticks": 9391,
          "time": 109.19767441860465,
          "velocity": 0.18110236220472442
        },
        {
          "duration": 0.1860465116279073,
          "durationTicks": 16,
          "midi": 69,
          "name": "A4",
          "ticks": 9392,
          "time": 109.20930232558139,
          "velocity": 0.1889763779527559
        },
        {
          "duration": 0.023255813953483084,
          "durationTicks": 2,
          "midi": 44,
          "name": "G#2",
          "ticks": 9393,
          "time": 109.22093023255815,
          "velocity": 0.2283464566929134
        },
        {
          "duration": 0.023255813953483084,
          "durationTicks": 2,
          "midi": 54,
          "name": "F#3",
          "ticks": 9393,
          "time": 109.22093023255815,
          "velocity": 0.3700787401574803
        },
        {
          "duration": 0.034883720930224626,
          "durationTicks": 3,
          "midi": 71,
          "name": "B4",
          "ticks": 9393,
          "time": 109.22093023255815,
          "velocity": 0.12598425196850394
        },
        {
          "duration": 0.06976744186046346,
          "durationTicks": 6,
          "midi": 67,
          "name": "G4",
          "ticks": 9394,
          "time": 109.23255813953489,
          "velocity": 0.11811023622047244
        },
        {
          "duration": 0.034883720930224626,
          "durationTicks": 3,
          "midi": 45,
          "name": "A2",
          "ticks": 9395,
          "time": 109.24418604651163,
          "velocity": 0.1732283464566929
        },
        {
          "duration": 0.13953488372092693,
          "durationTicks": 12,
          "midi": 55,
          "name": "G3",
          "ticks": 9395,
          "time": 109.24418604651163,
          "velocity": 0.41732283464566927
        },
        {
          "duration": 0.03488372093023884,
          "durationTicks": 3,
          "midi": 62,
          "name": "D4",
          "ticks": 9397,
          "time": 109.26744186046511,
          "velocity": 0.14173228346456693
        },
        {
          "duration": 0.034883720930224626,
          "durationTicks": 3,
          "midi": 64,
          "name": "E4",
          "ticks": 9399,
          "time": 109.29069767441861,
          "velocity": 0.1732283464566929
        },
        {
          "duration": 0.06976744186047767,
          "durationTicks": 6,
          "midi": 64,
          "name": "E4",
          "ticks": 9403,
          "time": 109.33720930232558,
          "velocity": 0.2125984251968504
        },
        {
          "duration": 0.03488372093023884,
          "durationTicks": 3,
          "midi": 54,
          "name": "F#3",
          "ticks": 9407,
          "time": 109.38372093023256,
          "velocity": 0.2440944881889764
        },
        {
          "duration": 0.034883720930224626,
          "durationTicks": 3,
          "midi": 45,
          "name": "A2",
          "ticks": 9410,
          "time": 109.4186046511628,
          "velocity": 0.18110236220472442
        },
        {
          "duration": 0.034883720930224626,
          "durationTicks": 3,
          "midi": 56,
          "name": "G#3",
          "ticks": 9410,
          "time": 109.4186046511628,
          "velocity": 0.1968503937007874
        },
        {
          "duration": 0.7093023255813904,
          "durationTicks": 61,
          "midi": 64,
          "name": "E4",
          "ticks": 9410,
          "time": 109.4186046511628,
          "velocity": 0.3937007874015748
        },
        {
          "duration": 0.03488372093023884,
          "durationTicks": 3,
          "midi": 44,
          "name": "G#2",
          "ticks": 9413,
          "time": 109.45348837209302,
          "velocity": 0.2755905511811024
        },
        {
          "duration": 0.11627906976744384,
          "durationTicks": 10,
          "midi": 69,
          "name": "A4",
          "ticks": 9413,
          "time": 109.45348837209302,
          "velocity": 0.11023622047244094
        },
        {
          "duration": 0.05813953488372192,
          "durationTicks": 5,
          "midi": 45,
          "name": "A2",
          "ticks": 9416,
          "time": 109.48837209302326,
          "velocity": 0.25196850393700787
        },
        {
          "duration": 0.03488372093023884,
          "durationTicks": 3,
          "midi": 55,
          "name": "G3",
          "ticks": 9423,
          "time": 109.56976744186046,
          "velocity": 0.2125984251968504
        },
        {
          "duration": 0.03488372093023884,
          "durationTicks": 3,
          "midi": 44,
          "name": "G#2",
          "ticks": 9424,
          "time": 109.5813953488372,
          "velocity": 0.10236220472440945
        },
        {
          "duration": 0.03488372093023884,
          "durationTicks": 3,
          "midi": 59,
          "name": "B3",
          "ticks": 9429,
          "time": 109.63953488372093,
          "velocity": 0.18110236220472442
        },
        {
          "duration": 0.023255813953497295,
          "durationTicks": 2,
          "midi": 53,
          "name": "F3",
          "ticks": 9430,
          "time": 109.65116279069767,
          "velocity": 0.25196850393700787
        },
        {
          "duration": 0.12790697674418539,
          "durationTicks": 11,
          "midi": 71,
          "name": "B4",
          "ticks": 9434,
          "time": 109.69767441860465,
          "velocity": 0.10236220472440945
        },
        {
          "duration": 0.3720930232558146,
          "durationTicks": 32,
          "midi": 52,
          "name": "E3",
          "ticks": 9439,
          "time": 109.75581395348837,
          "velocity": 0.2283464566929134
        },
        {
          "duration": 0.06976744186046346,
          "durationTicks": 6,
          "midi": 55,
          "name": "G3",
          "ticks": 9472,
          "time": 110.13953488372093,
          "velocity": 0.2440944881889764
        },
        {
          "duration": 0.08139534883721922,
          "durationTicks": 7,
          "midi": 44,
          "name": "G#2",
          "ticks": 9473,
          "time": 110.15116279069767,
          "velocity": 0.12598425196850394
        },
        {
          "duration": 0.08139534883721922,
          "durationTicks": 7,
          "midi": 69,
          "name": "A4",
          "ticks": 9473,
          "time": 110.15116279069767,
          "velocity": 0.16535433070866143
        },
        {
          "duration": 0.17441860465115155,
          "durationTicks": 15,
          "midi": 64,
          "name": "E4",
          "ticks": 9474,
          "time": 110.16279069767442,
          "velocity": 0.2992125984251969
        },
        {
          "duration": 0.09302325581394655,
          "durationTicks": 8,
          "midi": 59,
          "name": "B3",
          "ticks": 9481,
          "time": 110.24418604651163,
          "velocity": 0.09448818897637795
        },
        {
          "duration": 0.23255813953487348,
          "durationTicks": 20,
          "midi": 64,
          "name": "E4",
          "ticks": 9490,
          "time": 110.34883720930233,
          "velocity": 0.3700787401574803
        },
        {
          "duration": 0.023255813953497295,
          "durationTicks": 2,
          "midi": 55,
          "name": "G3",
          "ticks": 9493,
          "time": 110.38372093023256,
          "velocity": 0.3228346456692913
        },
        {
          "duration": 0.05813953488372192,
          "durationTicks": 5,
          "midi": 59,
          "name": "B3",
          "ticks": 9493,
          "time": 110.38372093023256,
          "velocity": 0.1889763779527559
        },
        {
          "duration": 0.023255813953483084,
          "durationTicks": 2,
          "midi": 53,
          "name": "F3",
          "ticks": 9495,
          "time": 110.40697674418605,
          "velocity": 0.31496062992125984
        },
        {
          "duration": 0.12790697674418539,
          "durationTicks": 11,
          "midi": 59,
          "name": "B3",
          "ticks": 9499,
          "time": 110.45348837209302,
          "velocity": 0.11811023622047244
        },
        {
          "duration": 0.11627906976744384,
          "durationTicks": 10,
          "midi": 52,
          "name": "E3",
          "ticks": 9500,
          "time": 110.46511627906976,
          "velocity": 0.31496062992125984
        },
        {
          "duration": 0.023255813953497295,
          "durationTicks": 2,
          "midi": 53,
          "name": "F3",
          "ticks": 9510,
          "time": 110.5813953488372,
          "velocity": 0.3779527559055118
        },
        {
          "duration": 0.05813953488372192,
          "durationTicks": 5,
          "midi": 44,
          "name": "G#2",
          "ticks": 9513,
          "time": 110.61627906976744,
          "velocity": 0.09448818897637795
        },
        {
          "duration": 0.22093023255813193,
          "durationTicks": 19,
          "midi": 55,
          "name": "G3",
          "ticks": 9513,
          "time": 110.61627906976744,
          "velocity": 0.47244094488188976
        },
        {
          "duration": 0.05813953488370771,
          "durationTicks": 5,
          "midi": 71,
          "name": "B4",
          "ticks": 9522,
          "time": 110.72093023255815,
          "velocity": 0.07086614173228346
        },
        {
          "duration": 0.04651162790698038,
          "durationTicks": 4,
          "midi": 54,
          "name": "F#3",
          "ticks": 9532,
          "time": 110.83720930232558,
          "velocity": 0.11811023622047244
        },
        {
          "duration": 0.034883720930224626,
          "durationTicks": 3,
          "midi": 60,
          "name": "C4",
          "ticks": 9538,
          "time": 110.90697674418605,
          "velocity": 0.2047244094488189
        },
        {
          "duration": 0.023255813953483084,
          "durationTicks": 2,
          "midi": 54,
          "name": "F#3",
          "ticks": 9539,
          "time": 110.9186046511628,
          "velocity": 0.3779527559055118
        },
        {
          "duration": 0.27906976744186807,
          "durationTicks": 24,
          "midi": 64,
          "name": "E4",
          "ticks": 9541,
          "time": 110.94186046511628,
          "velocity": 0.33070866141732286
        },
        {
          "duration": 0.16279069767442422,
          "durationTicks": 14,
          "midi": 71,
          "name": "B4",
          "ticks": 9541,
          "time": 110.94186046511628,
          "velocity": 0.12598425196850394
        },
        {
          "duration": 0.023255813953483084,
          "durationTicks": 2,
          "midi": 53,
          "name": "F3",
          "ticks": 9544,
          "time": 110.97674418604652,
          "velocity": 0.3700787401574803
        },
        {
          "duration": 0.023255813953497295,
          "durationTicks": 2,
          "midi": 53,
          "name": "F3",
          "ticks": 9547,
          "time": 111.01162790697674,
          "velocity": 0.33858267716535434
        },
        {
          "duration": 0.023255813953497295,
          "durationTicks": 2,
          "midi": 58,
          "name": "A#3",
          "ticks": 9548,
          "time": 111.02325581395348,
          "velocity": 0.29133858267716534
        },
        {
          "duration": 0.05813953488370771,
          "durationTicks": 5,
          "midi": 52,
          "name": "E3",
          "ticks": 9549,
          "time": 111.03488372093024,
          "velocity": 0.2677165354330709
        },
        {
          "duration": 0.023255813953483084,
          "durationTicks": 2,
          "midi": 58,
          "name": "A#3",
          "ticks": 9551,
          "time": 111.05813953488372,
          "velocity": 0.2755905511811024
        },
        {
          "duration": 0.13953488372094114,
          "durationTicks": 12,
          "midi": 59,
          "name": "B3",
          "ticks": 9553,
          "time": 111.0813953488372,
          "velocity": 0.23622047244094488
        },
        {
          "duration": 0.05813953488372192,
          "durationTicks": 5,
          "midi": 55,
          "name": "G3",
          "ticks": 9554,
          "time": 111.09302325581395,
          "velocity": 0.31496062992125984
        },
        {
          "duration": 0.05813953488372192,
          "durationTicks": 5,
          "midi": 69,
          "name": "A4",
          "ticks": 9557,
          "time": 111.12790697674419,
          "velocity": 0.13385826771653545
        },
        {
          "duration": 0.04651162790698038,
          "durationTicks": 4,
          "midi": 50,
          "name": "D3",
          "ticks": 9558,
          "time": 111.13953488372093,
          "velocity": 0.2204724409448819
        },
        {
          "duration": 0.023255813953483084,
          "durationTicks": 2,
          "midi": 55,
          "name": "G3",
          "ticks": 9572,
          "time": 111.30232558139535,
          "velocity": 0.3700787401574803
        },
        {
          "duration": 0.09302325581394655,
          "durationTicks": 8,
          "midi": 76,
          "name": "E5",
          "ticks": 9572,
          "time": 111.30232558139535,
          "velocity": 0.09448818897637795
        },
        {
          "duration": 0.023255813953483084,
          "durationTicks": 2,
          "midi": 64,
          "name": "E4",
          "ticks": 9573,
          "time": 111.31395348837209,
          "velocity": 0.28346456692913385
        },
        {
          "duration": 0.1860465116279073,
          "durationTicks": 16,
          "midi": 64,
          "name": "E4",
          "ticks": 9576,
          "time": 111.34883720930233,
          "velocity": 0.3464566929133858
        },
        {
          "duration": 0.4767441860465027,
          "durationTicks": 41,
          "midi": 60,
          "name": "C4",
          "ticks": 9593,
          "time": 111.54651162790698,
          "velocity": 0.3543307086614173
        },
        {
          "duration": 0.023255813953483084,
          "durationTicks": 2,
          "midi": 65,
          "name": "F4",
          "ticks": 9593,
          "time": 111.54651162790698,
          "velocity": 0.2755905511811024
        },
        {
          "duration": 0.04651162790698038,
          "durationTicks": 4,
          "midi": 55,
          "name": "G3",
          "ticks": 9595,
          "time": 111.56976744186046,
          "velocity": 0.14960629921259844
        },
        {
          "duration": 0.4418604651162781,
          "durationTicks": 38,
          "midi": 64,
          "name": "E4",
          "ticks": 9595,
          "time": 111.56976744186046,
          "velocity": 0.30708661417322836
        },
        {
          "duration": 0.4534883720930196,
          "durationTicks": 39,
          "midi": 67,
          "name": "G4",
          "ticks": 9595,
          "time": 111.56976744186046,
          "velocity": 0.1889763779527559
        },
        {
          "duration": 0.3372093023255758,
          "durationTicks": 29,
          "midi": 48,
          "name": "C3",
          "ticks": 9604,
          "time": 111.67441860465117,
          "velocity": 0.08661417322834646
        },
        {
          "duration": 0.023255813953497295,
          "durationTicks": 2,
          "midi": 65,
          "name": "F4",
          "ticks": 9633,
          "time": 112.01162790697674,
          "velocity": 0.25984251968503935
        },
        {
          "duration": 0.22093023255814614,
          "durationTicks": 19,
          "midi": 76,
          "name": "E5",
          "ticks": 9633,
          "time": 112.01162790697674,
          "velocity": 0.1732283464566929
        },
        {
          "duration": 0.23255813953487348,
          "durationTicks": 20,
          "midi": 64,
          "name": "E4",
          "ticks": 9635,
          "time": 112.03488372093024,
          "velocity": 0.2992125984251969
        },
        {
          "duration": 0.22093023255813193,
          "durationTicks": 19,
          "midi": 67,
          "name": "G4",
          "ticks": 9635,
          "time": 112.03488372093024,
          "velocity": 0.2440944881889764
        },
        {
          "duration": 0.19767441860464885,
          "durationTicks": 17,
          "midi": 60,
          "name": "C4",
          "ticks": 9636,
          "time": 112.04651162790698,
          "velocity": 0.33070866141732286
        },
        {
          "duration": 0.11627906976744384,
          "durationTicks": 10,
          "midi": 48,
          "name": "C3",
          "ticks": 9639,
          "time": 112.0813953488372,
          "velocity": 0.07874015748031496
        },
        {
          "duration": 0.034883720930224626,
          "durationTicks": 3,
          "midi": 71,
          "name": "B4",
          "ticks": 9653,
          "time": 112.24418604651163,
          "velocity": 0.07874015748031496
        },
        {
          "duration": 0.04651162790698038,
          "durationTicks": 4,
          "midi": 60,
          "name": "C4",
          "ticks": 9654,
          "time": 112.25581395348837,
          "velocity": 0.3464566929133858
        },
        {
          "duration": 0.03488372093023884,
          "durationTicks": 3,
          "midi": 44,
          "name": "G#2",
          "ticks": 9655,
          "time": 112.26744186046511,
          "velocity": 0.31496062992125984
        },
        {
          "duration": 0.08139534883721922,
          "durationTicks": 7,
          "midi": 64,
          "name": "E4",
          "ticks": 9656,
          "time": 112.27906976744185,
          "velocity": 0.2677165354330709
        },
        {
          "duration": 0.081395348837205,
          "durationTicks": 7,
          "midi": 45,
          "name": "A2",
          "ticks": 9658,
          "time": 112.30232558139535,
          "velocity": 0.3228346456692913
        },
        {
          "duration": 0.6395348837209269,
          "durationTicks": 55,
          "midi": 59,
          "name": "B3",
          "ticks": 9658,
          "time": 112.30232558139535,
          "velocity": 0.33070866141732286
        },
        {
          "duration": 0.03488372093023884,
          "durationTicks": 3,
          "midi": 64,
          "name": "E4",
          "ticks": 9664,
          "time": 112.37209302325581,
          "velocity": 0.28346456692913385
        },
        {
          "duration": 0.05813953488370771,
          "durationTicks": 5,
          "midi": 45,
          "name": "A2",
          "ticks": 9667,
          "time": 112.40697674418605,
          "velocity": 0.2125984251968504
        },
        {
          "duration": 0.034883720930224626,
          "durationTicks": 3,
          "midi": 63,
          "name": "D#4",
          "ticks": 9669,
          "time": 112.43023255813954,
          "velocity": 0.2283464566929134
        },
        {
          "duration": 0.023255813953497295,
          "durationTicks": 2,
          "midi": 62,
          "name": "D4",
          "ticks": 9672,
          "time": 112.46511627906976,
          "velocity": 0.2283464566929134
        },
        {
          "duration": 0.24418604651162923,
          "durationTicks": 21,
          "midi": 75,
          "name": "D#5",
          "ticks": 9673,
          "time": 112.47674418604652,
          "velocity": 0.25196850393700787
        },
        {
          "duration": 0.023255813953483084,
          "durationTicks": 2,
          "midi": 63,
          "name": "D#4",
          "ticks": 9674,
          "time": 112.48837209302326,
          "velocity": 0.2677165354330709
        },
        {
          "duration": 0.12790697674418539,
          "durationTicks": 11,
          "midi": 66,
          "name": "F#4",
          "ticks": 9674,
          "time": 112.48837209302326,
          "velocity": 0.2047244094488189
        },
        {
          "duration": 0.418604651162795,
          "durationTicks": 36,
          "midi": 47,
          "name": "B2",
          "ticks": 9677,
          "time": 112.52325581395348,
          "velocity": 0.14173228346456693
        },
        {
          "duration": 0.418604651162795,
          "durationTicks": 36,
          "midi": 63,
          "name": "D#4",
          "ticks": 9677,
          "time": 112.52325581395348,
          "velocity": 0.28346456692913385
        },
        {
          "duration": 0.06976744186046346,
          "durationTicks": 6,
          "midi": 66,
          "name": "F#4",
          "ticks": 9686,
          "time": 112.62790697674419,
          "velocity": 0.13385826771653545
        },
        {
          "duration": 0.22093023255814614,
          "durationTicks": 19,
          "midi": 66,
          "name": "F#4",
          "ticks": 9693,
          "time": 112.70930232558139,
          "velocity": 0.18110236220472442
        },
        {
          "duration": 0.023255813953483084,
          "durationTicks": 2,
          "midi": 64,
          "name": "E4",
          "ticks": 9713,
          "time": 112.94186046511628,
          "velocity": 0.28346456692913385
        },
        {
          "duration": 0.16279069767442422,
          "durationTicks": 14,
          "midi": 59,
          "name": "B3",
          "ticks": 9715,
          "time": 112.96511627906976,
          "velocity": 0.2755905511811024
        },
        {
          "duration": 0.023255813953483084,
          "durationTicks": 2,
          "midi": 64,
          "name": "E4",
          "ticks": 9716,
          "time": 112.97674418604652,
          "velocity": 0.30708661417322836
        },
        {
          "duration": 0.15116279069766847,
          "durationTicks": 13,
          "midi": 63,
          "name": "D#4",
          "ticks": 9718,
          "time": 113,
          "velocity": 0.30708661417322836
        },
        {
          "duration": 0.03488372093023884,
          "durationTicks": 3,
          "midi": 66,
          "name": "F#4",
          "ticks": 9718,
          "time": 113,
          "velocity": 0.12598425196850394
        },
        {
          "duration": 0.1046511627907023,
          "durationTicks": 9,
          "midi": 55,
          "name": "G3",
          "ticks": 9735,
          "time": 113.19767441860465,
          "velocity": 0.3779527559055118
        },
        {
          "duration": 0.03488372093023884,
          "durationTicks": 3,
          "midi": 44,
          "name": "G#2",
          "ticks": 9736,
          "time": 113.20930232558139,
          "velocity": 0.25984251968503935
        },
        {
          "duration": 0.081395348837205,
          "durationTicks": 7,
          "midi": 45,
          "name": "A2",
          "ticks": 9739,
          "time": 113.24418604651163,
          "velocity": 0.25984251968503935
        },
        {
          "duration": 0.15116279069766847,
          "durationTicks": 13,
          "midi": 64,
          "name": "E4",
          "ticks": 9739,
          "time": 113.24418604651163,
          "velocity": 0.1968503937007874
        },
        {
          "duration": 0.023255813953483084,
          "durationTicks": 2,
          "midi": 54,
          "name": "F#3",
          "ticks": 9744,
          "time": 113.30232558139535,
          "velocity": 0.2677165354330709
        },
        {
          "duration": 0.04651162790698038,
          "durationTicks": 4,
          "midi": 59,
          "name": "B3",
          "ticks": 9744,
          "time": 113.30232558139535,
          "velocity": 0.16535433070866143
        },
        {
          "duration": 0.04651162790698038,
          "durationTicks": 4,
          "midi": 44,
          "name": "G#2",
          "ticks": 9746,
          "time": 113.32558139534883,
          "velocity": 0.2283464566929134
        },
        {
          "duration": 0.09302325581396076,
          "durationTicks": 8,
          "midi": 55,
          "name": "G3",
          "ticks": 9746,
          "time": 113.32558139534883,
          "velocity": 0.28346456692913385
        },
        {
          "duration": 0.06976744186046346,
          "durationTicks": 6,
          "midi": 44,
          "name": "G#2",
          "ticks": 9752,
          "time": 113.3953488372093,
          "velocity": 0.14960629921259844
        },
        {
          "duration": 0.023255813953497295,
          "durationTicks": 2,
          "midi": 65,
          "name": "F4",
          "ticks": 9752,
          "time": 113.3953488372093,
          "velocity": 0.28346456692913385
        },
        {
          "duration": 0.4418604651162781,
          "durationTicks": 38,
          "midi": 64,
          "name": "E4",
          "ticks": 9754,
          "time": 113.4186046511628,
          "velocity": 0.3937007874015748
        },
        {
          "duration": 0.034883720930224626,
          "durationTicks": 3,
          "midi": 55,
          "name": "G3",
          "ticks": 9755,
          "time": 113.43023255813954,
          "velocity": 0.3779527559055118
        },
        {
          "duration": 0.16279069767441,
          "durationTicks": 14,
          "midi": 59,
          "name": "B3",
          "ticks": 9759,
          "time": 113.47674418604652,
          "velocity": 0.14173228346456693
        },
        {
          "duration": 0.3604651162790731,
          "durationTicks": 31,
          "midi": 52,
          "name": "E3",
          "ticks": 9761,
          "time": 113.5,
          "velocity": 0.2677165354330709
        },
        {
          "duration": 0.023255813953483084,
          "durationTicks": 2,
          "midi": 65,
          "name": "F4",
          "ticks": 9792,
          "time": 113.86046511627907,
          "velocity": 0.25984251968503935
        },
        {
          "duration": 0.06976744186046346,
          "durationTicks": 6,
          "midi": 76,
          "name": "E5",
          "ticks": 9793,
          "time": 113.87209302325581,
          "velocity": 0.13385826771653545
        },
        {
          "duration": 0.03488372093023884,
          "durationTicks": 3,
          "midi": 59,
          "name": "B3",
          "ticks": 9794,
          "time": 113.88372093023256,
          "velocity": 0.08661417322834646
        },
        {
          "duration": 0.2093023255813904,
          "durationTicks": 18,
          "midi": 64,
          "name": "E4",
          "ticks": 9794,
          "time": 113.88372093023256,
          "velocity": 0.31496062992125984
        },
        {
          "duration": 0.08139534883721922,
          "durationTicks": 7,
          "midi": 55,
          "name": "G3",
          "ticks": 9795,
          "time": 113.8953488372093,
          "velocity": 0.25196850393700787
        },
        {
          "duration": 0.06976744186046346,
          "durationTicks": 6,
          "midi": 44,
          "name": "G#2",
          "ticks": 9797,
          "time": 113.9186046511628,
          "velocity": 0.08661417322834646
        },
        {
          "duration": 0.11627906976744384,
          "durationTicks": 10,
          "midi": 71,
          "name": "B4",
          "ticks": 9797,
          "time": 113.9186046511628,
          "velocity": 0.14960629921259844
        },
        {
          "duration": 0.12790697674418539,
          "durationTicks": 11,
          "midi": 59,
          "name": "B3",
          "ticks": 9799,
          "time": 113.94186046511628,
          "velocity": 0.14173228346456693
        },
        {
          "duration": 0.03488372093023884,
          "durationTicks": 3,
          "midi": 60,
          "name": "C4",
          "ticks": 9810,
          "time": 114.06976744186046,
          "velocity": 0.18110236220472442
        },
        {
          "duration": 0.023255813953497295,
          "durationTicks": 2,
          "midi": 55,
          "name": "G3",
          "ticks": 9811,
          "time": 114.0813953488372,
          "velocity": 0.33858267716535434
        },
        {
          "duration": 0.023255813953497295,
          "durationTicks": 2,
          "midi": 65,
          "name": "F4",
          "ticks": 9812,
          "time": 114.09302325581395,
          "velocity": 0.2992125984251969
        },
        {
          "duration": 0.12790697674418539,
          "durationTicks": 11,
          "midi": 76,
          "name": "E5",
          "ticks": 9813,
          "time": 114.1046511627907,
          "velocity": 0.15748031496062992
        },
        {
          "duration": 0.034883720930224626,
          "durationTicks": 3,
          "midi": 55,
          "name": "G3",
          "ticks": 9814,
          "time": 114.11627906976744,
          "velocity": 0.4015748031496063
        },
        {
          "duration": 0.12790697674418539,
          "durationTicks": 11,
          "midi": 64,
          "name": "E4",
          "ticks": 9814,
          "time": 114.11627906976744,
          "velocity": 0.29133858267716534
        },
        {
          "duration": 0.023255813953497295,
          "durationTicks": 2,
          "midi": 52,
          "name": "E3",
          "ticks": 9816,
          "time": 114.13953488372093,
          "velocity": 0.33858267716535434
        },
        {
          "duration": 0.08139534883721922,
          "durationTicks": 7,
          "midi": 59,
          "name": "B3",
          "ticks": 9817,
          "time": 114.15116279069767,
          "velocity": 0.12598425196850394
        },
        {
          "duration": 0.05813953488372192,
          "durationTicks": 5,
          "midi": 52,
          "name": "E3",
          "ticks": 9819,
          "time": 114.17441860465117,
          "velocity": 0.2992125984251969
        },
        {
          "duration": 0.034883720930224626,
          "durationTicks": 3,
          "midi": 53,
          "name": "F3",
          "ticks": 9824,
          "time": 114.23255813953489,
          "velocity": 0.33070866141732286
        },
        {
          "duration": 0.03488372093023884,
          "durationTicks": 3,
          "midi": 54,
          "name": "F#3",
          "ticks": 9827,
          "time": 114.26744186046511,
          "velocity": 0.41732283464566927
        },
        {
          "duration": 0.24418604651162923,
          "durationTicks": 21,
          "midi": 55,
          "name": "G3",
          "ticks": 9830,
          "time": 114.30232558139535,
          "velocity": 0.47244094488188976
        },
        {
          "duration": 0.03488372093023884,
          "durationTicks": 3,
          "midi": 68,
          "name": "G#4",
          "ticks": 9832,
          "time": 114.32558139534883,
          "velocity": 0.15748031496062992
        },
        {
          "duration": 0.03488372093023884,
          "durationTicks": 3,
          "midi": 55,
          "name": "G3",
          "ticks": 9859,
          "time": 114.63953488372093,
          "velocity": 0.2755905511811024
        },
        {
          "duration": 0.17441860465116577,
          "durationTicks": 15,
          "midi": 69,
          "name": "A4",
          "ticks": 9859,
          "time": 114.63953488372093,
          "velocity": 0.29133858267716534
        },
        {
          "duration": 0.03488372093023884,
          "durationTicks": 3,
          "midi": 64,
          "name": "E4",
          "ticks": 9860,
          "time": 114.65116279069767,
          "velocity": 0.1968503937007874
        },
        {
          "duration": 0.023255813953483084,
          "durationTicks": 2,
          "midi": 55,
          "name": "G3",
          "ticks": 9863,
          "time": 114.68604651162791,
          "velocity": 0.2677165354330709
        },
        {
          "duration": 0.034883720930224626,
          "durationTicks": 3,
          "midi": 52,
          "name": "E3",
          "ticks": 9868,
          "time": 114.74418604651163,
          "velocity": 0.23622047244094488
        },
        {
          "duration": 0.05813953488372192,
          "durationTicks": 5,
          "midi": 55,
          "name": "G3",
          "ticks": 9873,
          "time": 114.80232558139535,
          "velocity": 0.11811023622047244
        },
        {
          "duration": 0.023255813953497295,
          "durationTicks": 2,
          "midi": 55,
          "name": "G3",
          "ticks": 9887,
          "time": 114.96511627906976,
          "velocity": 0.3858267716535433
        },
        {
          "duration": 0.08139534883721922,
          "durationTicks": 7,
          "midi": 62,
          "name": "D4",
          "ticks": 9887,
          "time": 114.96511627906976,
          "velocity": 0.23622047244094488
        },
        {
          "duration": 0.034883720930224626,
          "durationTicks": 3,
          "midi": 54,
          "name": "F#3",
          "ticks": 9889,
          "time": 114.98837209302326,
          "velocity": 0.3937007874015748
        },
        {
          "duration": 0.06976744186046346,
          "durationTicks": 6,
          "midi": 55,
          "name": "G3",
          "ticks": 9892,
          "time": 115.02325581395348,
          "velocity": 0.36220472440944884
        },
        {
          "duration": 0.06976744186046346,
          "durationTicks": 6,
          "midi": 55,
          "name": "G3",
          "ticks": 9900,
          "time": 115.11627906976744,
          "velocity": 0.16535433070866143
        },
        {
          "duration": 0.023255813953483084,
          "durationTicks": 2,
          "midi": 56,
          "name": "G#3",
          "ticks": 9911,
          "time": 115.24418604651163,
          "velocity": 0.2677165354330709
        },
        {
          "duration": 0.023255813953483084,
          "durationTicks": 2,
          "midi": 65,
          "name": "F4",
          "ticks": 9912,
          "time": 115.25581395348837,
          "velocity": 0.2440944881889764
        },
        {
          "duration": 0.2906976744186096,
          "durationTicks": 25,
          "midi": 72,
          "name": "C5",
          "ticks": 9912,
          "time": 115.25581395348837,
          "velocity": 0.2125984251968504
        },
        {
          "duration": 0.25581395348837077,
          "durationTicks": 22,
          "midi": 76,
          "name": "E5",
          "ticks": 9912,
          "time": 115.25581395348837,
          "velocity": 0.14173228346456693
        },
        {
          "duration": 0.04651162790698038,
          "durationTicks": 4,
          "midi": 55,
          "name": "G3",
          "ticks": 9913,
          "time": 115.26744186046511,
          "velocity": 0.31496062992125984
        },
        {
          "duration": 0.45348837209303383,
          "durationTicks": 39,
          "midi": 60,
          "name": "C4",
          "ticks": 9913,
          "time": 115.26744186046511,
          "velocity": 0.3464566929133858
        },
        {
          "duration": 0.8255813953488484,
          "durationTicks": 71,
          "midi": 64,
          "name": "E4",
          "ticks": 9914,
          "time": 115.27906976744185,
          "velocity": 0.3228346456692913
        },
        {
          "duration": 0.2093023255813904,
          "durationTicks": 18,
          "midi": 48,
          "name": "C3",
          "ticks": 9921,
          "time": 115.36046511627907,
          "velocity": 0.12598425196850394
        },
        {
          "duration": 0.034883720930224626,
          "durationTicks": 3,
          "midi": 69,
          "name": "A4",
          "ticks": 9936,
          "time": 115.53488372093024,
          "velocity": 0.10236220472440945
        },
        {
          "duration": 0.03488372093023884,
          "durationTicks": 3,
          "midi": 48,
          "name": "C3",
          "ticks": 9940,
          "time": 115.5813953488372,
          "velocity": 0.11811023622047244
        },
        {
          "duration": 0.04651162790696617,
          "durationTicks": 4,
          "midi": 55,
          "name": "G3",
          "ticks": 9942,
          "time": 115.6046511627907,
          "velocity": 0.13385826771653545
        },
        {
          "duration": 0.12790697674418539,
          "durationTicks": 11,
          "midi": 69,
          "name": "A4",
          "ticks": 9942,
          "time": 115.6046511627907,
          "velocity": 0.1732283464566929
        },
        {
          "duration": 0.05813953488372192,
          "durationTicks": 5,
          "midi": 60,
          "name": "C4",
          "ticks": 9953,
          "time": 115.73255813953489,
          "velocity": 0.2283464566929134
        },
        {
          "duration": 0.05813953488372192,
          "durationTicks": 5,
          "midi": 55,
          "name": "G3",
          "ticks": 9954,
          "time": 115.74418604651163,
          "velocity": 0.2204724409448819
        },
        {
          "duration": 0.23255813953487348,
          "durationTicks": 20,
          "midi": 60,
          "name": "C4",
          "ticks": 9963,
          "time": 115.84883720930233,
          "velocity": 0.33070866141732286
        },
        {
          "duration": 0.12790697674418539,
          "durationTicks": 11,
          "midi": 55,
          "name": "G3",
          "ticks": 9968,
          "time": 115.90697674418605,
          "velocity": 0.3779527559055118
        },
        {
          "duration": 0.04651162790696617,
          "durationTicks": 4,
          "midi": 44,
          "name": "G#2",
          "ticks": 9979,
          "time": 116.03488372093024,
          "velocity": 0.12598425196850394
        },
        {
          "duration": 0.034883720930224626,
          "durationTicks": 3,
          "midi": 55,
          "name": "G3",
          "ticks": 9981,
          "time": 116.05813953488372,
          "velocity": 0.09448818897637795
        },
        {
          "duration": 0.034883720930224626,
          "durationTicks": 3,
          "midi": 60,
          "name": "C4",
          "ticks": 9985,
          "time": 116.1046511627907,
          "velocity": 0.15748031496062992
        },
        {
          "duration": 0.023255813953483084,
          "durationTicks": 2,
          "midi": 64,
          "name": "E4",
          "ticks": 9990,
          "time": 116.16279069767442,
          "velocity": 0.2283464566929134
        },
        {
          "duration": 0.46511627906976116,
          "durationTicks": 40,
          "midi": 71,
          "name": "B4",
          "ticks": 9990,
          "time": 116.16279069767442,
          "velocity": 0.14173228346456693
        },
        {
          "duration": 0.4534883720930196,
          "durationTicks": 39,
          "midi": 59,
          "name": "B3",
          "ticks": 9991,
          "time": 116.17441860465117,
          "velocity": 0.30708661417322836
        },
        {
          "duration": 0.13953488372092693,
          "durationTicks": 12,
          "midi": 75,
          "name": "D#5",
          "ticks": 9991,
          "time": 116.17441860465117,
          "velocity": 0.2047244094488189
        },
        {
          "duration": 0.5116279069767415,
          "durationTicks": 44,
          "midi": 63,
          "name": "D#4",
          "ticks": 9992,
          "time": 116.18604651162791,
          "velocity": 0.2992125984251969
        },
        {
          "duration": 0.5116279069767415,
          "durationTicks": 44,
          "midi": 66,
          "name": "F#4",
          "ticks": 9992,
          "time": 116.18604651162791,
          "velocity": 0.2204724409448819
        },
        {
          "duration": 0.03488372093023884,
          "durationTicks": 3,
          "midi": 90,
          "name": "F#6",
          "ticks": 9992,
          "time": 116.18604651162791,
          "velocity": 0.07086614173228346
        },
        {
          "duration": 0.04651162790698038,
          "durationTicks": 4,
          "midi": 55,
          "name": "G3",
          "ticks": 9993,
          "time": 116.19767441860465,
          "velocity": 0.2125984251968504
        },
        {
          "duration": 0.3953488372092977,
          "durationTicks": 34,
          "midi": 47,
          "name": "B2",
          "ticks": 9996,
          "time": 116.23255813953489,
          "velocity": 0.11811023622047244
        },
        {
          "duration": 0.13953488372094114,
          "durationTicks": 12,
          "midi": 71,
          "name": "B4",
          "ticks": 10032,
          "time": 116.65116279069767,
          "velocity": 0.2440944881889764
        },
        {
          "duration": 0.04651162790696617,
          "durationTicks": 4,
          "midi": 55,
          "name": "G3",
          "ticks": 10033,
          "time": 116.66279069767442,
          "velocity": 0.2047244094488189
        },
        {
          "duration": 0.12790697674418539,
          "durationTicks": 11,
          "midi": 59,
          "name": "B3",
          "ticks": 10034,
          "time": 116.67441860465117,
          "velocity": 0.2125984251968504
        },
        {
          "duration": 0.11627906976744384,
          "durationTicks": 10,
          "midi": 85,
          "name": "C#6",
          "ticks": 10034,
          "time": 116.67441860465117,
          "velocity": 0.07874015748031496
        },
        {
          "duration": 0.023255813953497295,
          "durationTicks": 2,
          "midi": 64,
          "name": "E4",
          "ticks": 10036,
          "time": 116.69767441860465,
          "velocity": 0.28346456692913385
        },
        {
          "duration": 0.03488372093023884,
          "durationTicks": 3,
          "midi": 66,
          "name": "F#4",
          "ticks": 10037,
          "time": 116.70930232558139,
          "velocity": 0.2047244094488189
        },
        {
          "duration": 0.03488372093023884,
          "durationTicks": 3,
          "midi": 63,
          "name": "D#4",
          "ticks": 10042,
          "time": 116.76744186046511,
          "velocity": 0.25984251968503935
        },
        {
          "duration": 0.034883720930224626,
          "durationTicks": 3,
          "midi": 64,
          "name": "E4",
          "ticks": 10045,
          "time": 116.80232558139535,
          "velocity": 0.25196850393700787
        },
        {
          "duration": 0.023255813953497295,
          "durationTicks": 2,
          "midi": 53,
          "name": "F3",
          "ticks": 10052,
          "time": 116.88372093023256,
          "velocity": 0.2755905511811024
        },
        {
          "duration": 0.13953488372094114,
          "durationTicks": 12,
          "midi": 62,
          "name": "D4",
          "ticks": 10053,
          "time": 116.8953488372093,
          "velocity": 0.1968503937007874
        },
        {
          "duration": 0.023255813953483084,
          "durationTicks": 2,
          "midi": 44,
          "name": "G#2",
          "ticks": 10055,
          "time": 116.9186046511628,
          "velocity": 0.25196850393700787
        },
        {
          "duration": 0.04651162790696617,
          "durationTicks": 4,
          "midi": 55,
          "name": "G3",
          "ticks": 10055,
          "time": 116.9186046511628,
          "velocity": 0.31496062992125984
        },
        {
          "duration": 0.06976744186046346,
          "durationTicks": 6,
          "midi": 45,
          "name": "A2",
          "ticks": 10057,
          "time": 116.94186046511628,
          "velocity": 0.2992125984251969
        },
        {
          "duration": 0.023255813953483084,
          "durationTicks": 2,
          "midi": 51,
          "name": "D#3",
          "ticks": 10062,
          "time": 117,
          "velocity": 0.2755905511811024
        },
        {
          "duration": 0.05813953488372192,
          "durationTicks": 5,
          "midi": 69,
          "name": "A4",
          "ticks": 10063,
          "time": 117.01162790697674,
          "velocity": 0.09448818897637795
        },
        {
          "duration": 0.034883720930224626,
          "durationTicks": 3,
          "midi": 52,
          "name": "E3",
          "ticks": 10066,
          "time": 117.04651162790698,
          "velocity": 0.1889763779527559
        },
        {
          "duration": 0.4186046511627808,
          "durationTicks": 36,
          "midi": 76,
          "name": "E5",
          "ticks": 10071,
          "time": 117.1046511627907,
          "velocity": 0.16535433070866143
        },
        {
          "duration": 0.034883720930224626,
          "durationTicks": 3,
          "midi": 53,
          "name": "F3",
          "ticks": 10072,
          "time": 117.11627906976744,
          "velocity": 0.33858267716535434
        },
        {
          "duration": 0.43023255813953654,
          "durationTicks": 37,
          "midi": 64,
          "name": "E4",
          "ticks": 10072,
          "time": 117.11627906976744,
          "velocity": 0.3700787401574803
        },
        {
          "duration": 0.12790697674418539,
          "durationTicks": 11,
          "midi": 71,
          "name": "B4",
          "ticks": 10072,
          "time": 117.11627906976744,
          "velocity": 0.13385826771653545
        },
        {
          "duration": 0.03488372093023884,
          "durationTicks": 3,
          "midi": 44,
          "name": "G#2",
          "ticks": 10073,
          "time": 117.12790697674419,
          "velocity": 0.14960629921259844
        },
        {
          "duration": 0.023255813953497295,
          "durationTicks": 2,
          "midi": 52,
          "name": "E3",
          "ticks": 10075,
          "time": 117.15116279069767,
          "velocity": 0.3543307086614173
        },
        {
          "duration": 0.3604651162790731,
          "durationTicks": 31,
          "midi": 52,
          "name": "E3",
          "ticks": 10078,
          "time": 117.18604651162791,
          "velocity": 0.33070866141732286
        },
        {
          "duration": 0.09302325581394655,
          "durationTicks": 8,
          "midi": 55,
          "name": "G3",
          "ticks": 10110,
          "time": 117.55813953488372,
          "velocity": 0.2992125984251969
        },
        {
          "duration": 0.1860465116279073,
          "durationTicks": 16,
          "midi": 64,
          "name": "E4",
          "ticks": 10110,
          "time": 117.55813953488372,
          "velocity": 0.1968503937007874
        },
        {
          "duration": 0.023255813953483084,
          "durationTicks": 2,
          "midi": 60,
          "name": "C4",
          "ticks": 10111,
          "time": 117.56976744186046,
          "velocity": 0.23622047244094488
        },
        {
          "duration": 0.08139534883721922,
          "durationTicks": 7,
          "midi": 44,
          "name": "G#2",
          "ticks": 10112,
          "time": 117.5813953488372,
          "velocity": 0.1968503937007874
        },
        {
          "duration": 0.17441860465116577,
          "durationTicks": 15,
          "midi": 59,
          "name": "B3",
          "ticks": 10113,
          "time": 117.59302325581395,
          "velocity": 0.1968503937007874
        },
        {
          "duration": 0.1046511627907023,
          "durationTicks": 9,
          "midi": 69,
          "name": "A4",
          "ticks": 10113,
          "time": 117.59302325581395,
          "velocity": 0.11811023622047244
        },
        {
          "duration": 0.03488372093023884,
          "durationTicks": 3,
          "midi": 60,
          "name": "C4",
          "ticks": 10128,
          "time": 117.76744186046511,
          "velocity": 0.2204724409448819
        },
        {
          "duration": 0.034883720930224626,
          "durationTicks": 3,
          "midi": 55,
          "name": "G3",
          "ticks": 10130,
          "time": 117.79069767441861,
          "velocity": 0.3464566929133858
        },
        {
          "duration": 0.12790697674418539,
          "durationTicks": 11,
          "midi": 64,
          "name": "E4",
          "ticks": 10131,
          "time": 117.80232558139535,
          "velocity": 0.33070866141732286
        },
        {
          "duration": 0.10465116279068809,
          "durationTicks": 9,
          "midi": 59,
          "name": "B3",
          "ticks": 10135,
          "time": 117.84883720930233,
          "velocity": 0.14960629921259844
        },
        {
          "duration": 0.03488372093023884,
          "durationTicks": 3,
          "midi": 52,
          "name": "E3",
          "ticks": 10139,
          "time": 117.8953488372093,
          "velocity": 0.33070866141732286
        },
        {
          "duration": 0.023255813953483084,
          "durationTicks": 2,
          "midi": 53,
          "name": "F3",
          "ticks": 10142,
          "time": 117.93023255813954,
          "velocity": 0.3700787401574803
        },
        {
          "duration": 0.03488372093023884,
          "durationTicks": 3,
          "midi": 54,
          "name": "F#3",
          "ticks": 10144,
          "time": 117.95348837209302,
          "velocity": 0.4409448818897638
        },
        {
          "duration": 0.06976744186046346,
          "durationTicks": 6,
          "midi": 55,
          "name": "G3",
          "ticks": 10147,
          "time": 117.98837209302326,
          "velocity": 0.4566929133858268
        },
        {
          "duration": 0.034883720930224626,
          "durationTicks": 3,
          "midi": 65,
          "name": "F4",
          "ticks": 10151,
          "time": 118.03488372093024,
          "velocity": 0.1968503937007874
        },
        {
          "duration": 0.1860465116279073,
          "durationTicks": 16,
          "midi": 55,
          "name": "G3",
          "ticks": 10154,
          "time": 118.06976744186046,
          "velocity": 0.47244094488188976
        },
        {
          "duration": 0.03488372093023884,
          "durationTicks": 3,
          "midi": 54,
          "name": "F#3",
          "ticks": 10170,
          "time": 118.25581395348837,
          "velocity": 0.12598425196850394
        },
        {
          "duration": 0.034883720930224626,
          "durationTicks": 3,
          "midi": 55,
          "name": "G3",
          "ticks": 10173,
          "time": 118.29069767441861,
          "velocity": 0.13385826771653545
        },
        {
          "duration": 0.04651162790698038,
          "durationTicks": 4,
          "midi": 55,
          "name": "G3",
          "ticks": 10177,
          "time": 118.33720930232558,
          "velocity": 0.31496062992125984
        },
        {
          "duration": 0.023255813953483084,
          "durationTicks": 2,
          "midi": 65,
          "name": "F4",
          "ticks": 10178,
          "time": 118.34883720930233,
          "velocity": 0.33858267716535434
        },
        {
          "duration": 0.10465116279068809,
          "durationTicks": 9,
          "midi": 71,
          "name": "B4",
          "ticks": 10179,
          "time": 118.36046511627907,
          "velocity": 0.08661417322834646
        },
        {
          "duration": 0.06976744186046346,
          "durationTicks": 6,
          "midi": 76,
          "name": "E5",
          "ticks": 10179,
          "time": 118.36046511627907,
          "velocity": 0.10236220472440945
        },
        {
          "duration": 0.2674418604651123,
          "durationTicks": 23,
          "midi": 64,
          "name": "E4",
          "ticks": 10180,
          "time": 118.37209302325581,
          "velocity": 0.3858267716535433
        },
        {
          "duration": 0.10465116279068809,
          "durationTicks": 9,
          "midi": 52,
          "name": "E3",
          "ticks": 10183,
          "time": 118.40697674418605,
          "velocity": 0.28346456692913385
        },
        {
          "duration": 0.023255813953483084,
          "durationTicks": 2,
          "midi": 54,
          "name": "F#3",
          "ticks": 10202,
          "time": 118.62790697674419,
          "velocity": 0.28346456692913385
        },
        {
          "duration": 0.03488372093023884,
          "durationTicks": 3,
          "midi": 65,
          "name": "F4",
          "ticks": 10203,
          "time": 118.63953488372093,
          "velocity": 0.2125984251968504
        },
        {
          "duration": 0.03488372093023884,
          "durationTicks": 3,
          "midi": 55,
          "name": "G3",
          "ticks": 10204,
          "time": 118.65116279069767,
          "velocity": 0.3779527559055118
        },
        {
          "duration": 0.25581395348837077,
          "durationTicks": 22,
          "midi": 64,
          "name": "E4",
          "ticks": 10206,
          "time": 118.67441860465117,
          "velocity": 0.2992125984251969
        },
        {
          "duration": 0.03488372093023884,
          "durationTicks": 3,
          "midi": 50,
          "name": "D3",
          "ticks": 10209,
          "time": 118.70930232558139,
          "velocity": 0.1889763779527559
        },
        {
          "duration": 0.10465116279068809,
          "durationTicks": 9,
          "midi": 55,
          "name": "G3",
          "ticks": 10216,
          "time": 118.79069767441861,
          "velocity": 0.23622047244094488
        },
        {
          "duration": 0.45348837209303383,
          "durationTicks": 39,
          "midi": 60,
          "name": "C4",
          "ticks": 10230,
          "time": 118.95348837209302,
          "velocity": 0.3779527559055118
        },
        {
          "duration": 0.05813953488372192,
          "durationTicks": 5,
          "midi": 76,
          "name": "E5",
          "ticks": 10230,
          "time": 118.95348837209302,
          "velocity": 0.14173228346456693
        },
        {
          "duration": 0.03488372093023884,
          "durationTicks": 3,
          "midi": 54,
          "name": "F#3",
          "ticks": 10231,
          "time": 118.96511627906976,
          "velocity": 0.10236220472440945
        },
        {
          "duration": 0.45348837209303383,
          "durationTicks": 39,
          "midi": 64,
          "name": "E4",
          "ticks": 10231,
          "time": 118.96511627906976,
          "velocity": 0.28346456692913385
        },
        {
          "duration": 0.43023255813953654,
          "durationTicks": 37,
          "midi": 69,
          "name": "A4",
          "ticks": 10231,
          "time": 118.96511627906976,
          "velocity": 0.2047244094488189
        },
        {
          "duration": 0.03488372093023884,
          "durationTicks": 3,
          "midi": 100,
          "name": "E7",
          "ticks": 10234,
          "time": 119,
          "velocity": 0.12598425196850394
        },
        {
          "duration": 0.3953488372093119,
          "durationTicks": 34,
          "midi": 48,
          "name": "C3",
          "ticks": 10236,
          "time": 119.02325581395348,
          "velocity": 0.07874015748031496
        },
        {
          "duration": 0.034883720930224626,
          "durationTicks": 3,
          "midi": 100,
          "name": "E7",
          "ticks": 10238,
          "time": 119.04651162790698,
          "velocity": 0.10236220472440945
        },
        {
          "duration": 0.03488372093023884,
          "durationTicks": 3,
          "midi": 70,
          "name": "A#4",
          "ticks": 10268,
          "time": 119.3953488372093,
          "velocity": 0.14173228346456693
        },
        {
          "duration": 0.05813953488372192,
          "durationTicks": 5,
          "midi": 55,
          "name": "G3",
          "ticks": 10270,
          "time": 119.4186046511628,
          "velocity": 0.12598425196850394
        },
        {
          "duration": 0.24418604651162923,
          "durationTicks": 21,
          "midi": 60,
          "name": "C4",
          "ticks": 10270,
          "time": 119.4186046511628,
          "velocity": 0.3700787401574803
        },
        {
          "duration": 0.05813953488372192,
          "durationTicks": 5,
          "midi": 88,
          "name": "E6",
          "ticks": 10270,
          "time": 119.4186046511628,
          "velocity": 0.11811023622047244
        },
        {
          "duration": 0.32558139534883423,
          "durationTicks": 28,
          "midi": 64,
          "name": "E4",
          "ticks": 10271,
          "time": 119.43023255813954,
          "velocity": 0.29133858267716534
        },
        {
          "duration": 0.16279069767441,
          "durationTicks": 14,
          "midi": 69,
          "name": "A4",
          "ticks": 10271,
          "time": 119.43023255813954,
          "velocity": 0.18110236220472442
        },
        {
          "duration": 0.1046511627907023,
          "durationTicks": 9,
          "midi": 67,
          "name": "G4",
          "ticks": 10274,
          "time": 119.46511627906976,
          "velocity": 0.18110236220472442
        },
        {
          "duration": 0.05813953488372192,
          "durationTicks": 5,
          "midi": 55,
          "name": "G3",
          "ticks": 10289,
          "time": 119.63953488372093,
          "velocity": 0.3937007874015748
        },
        {
          "duration": 0.023255813953483084,
          "durationTicks": 2,
          "midi": 44,
          "name": "G#2",
          "ticks": 10291,
          "time": 119.66279069767442,
          "velocity": 0.29133858267716534
        },
        {
          "duration": 0.09302325581394655,
          "durationTicks": 8,
          "midi": 45,
          "name": "A2",
          "ticks": 10293,
          "time": 119.68604651162791,
          "velocity": 0.2992125984251969
        },
        {
          "duration": 0.05813953488372192,
          "durationTicks": 5,
          "midi": 55,
          "name": "G3",
          "ticks": 10299,
          "time": 119.75581395348837,
          "velocity": 0.36220472440944884
        },
        {
          "duration": 0.034883720930224626,
          "durationTicks": 3,
          "midi": 64,
          "name": "E4",
          "ticks": 10302,
          "time": 119.79069767441861,
          "velocity": 0.23622047244094488
        },
        {
          "duration": 0.5116279069767415,
          "durationTicks": 44,
          "midi": 59,
          "name": "B3",
          "ticks": 10303,
          "time": 119.80232558139535,
          "velocity": 0.3228346456692913
        },
        {
          "duration": 0.03488372093023884,
          "durationTicks": 3,
          "midi": 55,
          "name": "G3",
          "ticks": 10305,
          "time": 119.82558139534883,
          "velocity": 0.1968503937007874
        },
        {
          "duration": 0.03488372093023884,
          "durationTicks": 3,
          "midi": 63,
          "name": "D#4",
          "ticks": 10305,
          "time": 119.82558139534883,
          "velocity": 0.13385826771653545
        },
        {
          "duration": 0.023255813953483084,
          "durationTicks": 2,
          "midi": 65,
          "name": "F4",
          "ticks": 10308,
          "time": 119.86046511627907,
          "velocity": 0.2677165354330709
        },
        {
          "duration": 0.03488372093023884,
          "durationTicks": 3,
          "midi": 64,
          "name": "E4",
          "ticks": 10310,
          "time": 119.88372093023256,
          "velocity": 0.31496062992125984
        },
        {
          "duration": 0.4534883720930196,
          "durationTicks": 39,
          "midi": 75,
          "name": "D#5",
          "ticks": 10310,
          "time": 119.88372093023256,
          "velocity": 0.14173228346456693
        },
        {
          "duration": 0.27906976744186807,
          "durationTicks": 24,
          "midi": 78,
          "name": "F#5",
          "ticks": 10310,
          "time": 119.88372093023256,
          "velocity": 0.14960629921259844
        },
        {
          "duration": 0.4186046511627808,
          "durationTicks": 36,
          "midi": 66,
          "name": "F#4",
          "ticks": 10312,
          "time": 119.90697674418605,
          "velocity": 0.2283464566929134
        },
        {
          "duration": 0.40697674418603924,
          "durationTicks": 35,
          "midi": 63,
          "name": "D#4",
          "ticks": 10313,
          "time": 119.9186046511628,
          "velocity": 0.2755905511811024
        },
        {
          "duration": 0.19767441860464885,
          "durationTicks": 17,
          "midi": 47,
          "name": "B2",
          "ticks": 10314,
          "time": 119.93023255813954,
          "velocity": 0.07086614173228346
        },
        {
          "duration": 0.03488372093023884,
          "durationTicks": 3,
          "midi": 60,
          "name": "C4",
          "ticks": 10347,
          "time": 120.31395348837209,
          "velocity": 0.25984251968503935
        },
        {
          "duration": 0.03488372093023884,
          "durationTicks": 3,
          "midi": 69,
          "name": "A4",
          "ticks": 10348,
          "time": 120.32558139534883,
          "velocity": 0.08661417322834646
        },
        {
          "duration": 0.17441860465116577,
          "durationTicks": 15,
          "midi": 63,
          "name": "D#4",
          "ticks": 10349,
          "time": 120.33720930232558,
          "velocity": 0.30708661417322836
        },
        {
          "duration": 0.12790697674418539,
          "durationTicks": 11,
          "midi": 78,
          "name": "F#5",
          "ticks": 10349,
          "time": 120.33720930232558,
          "velocity": 0.14960629921259844
        },
        {
          "duration": 0.13953488372092693,
          "durationTicks": 12,
          "midi": 59,
          "name": "B3",
          "ticks": 10350,
          "time": 120.34883720930233,
          "velocity": 0.3228346456692913
        },
        {
          "duration": 0.09302325581394655,
          "durationTicks": 8,
          "midi": 66,
          "name": "F#4",
          "ticks": 10352,
          "time": 120.37209302325581,
          "velocity": 0.2204724409448819
        },
        {
          "duration": 0.034883720930224626,
          "durationTicks": 3,
          "midi": 44,
          "name": "G#2",
          "ticks": 10368,
          "time": 120.55813953488372,
          "velocity": 0.29133858267716534
        },
        {
          "duration": 0.04651162790698038,
          "durationTicks": 4,
          "midi": 64,
          "name": "E4",
          "ticks": 10368,
          "time": 120.55813953488372,
          "velocity": 0.2047244094488189
        },
        {
          "duration": 0.1046511627907023,
          "durationTicks": 9,
          "midi": 55,
          "name": "G3",
          "ticks": 10370,
          "time": 120.5813953488372,
          "velocity": 0.3937007874015748
        },
        {
          "duration": 0.05813953488372192,
          "durationTicks": 5,
          "midi": 45,
          "name": "A2",
          "ticks": 10371,
          "time": 120.59302325581395,
          "velocity": 0.29133858267716534
        },
        {
          "duration": 0.081395348837205,
          "durationTicks": 7,
          "midi": 64,
          "name": "E4",
          "ticks": 10373,
          "time": 120.61627906976744,
          "velocity": 0.16535433070866143
        },
        {
          "duration": 0.034883720930224626,
          "durationTicks": 3,
          "midi": 45,
          "name": "A2",
          "ticks": 10377,
          "time": 120.66279069767442,
          "velocity": 0.2992125984251969
        },
        {
          "duration": 0.023255813953497295,
          "durationTicks": 2,
          "midi": 44,
          "name": "G#2",
          "ticks": 10380,
          "time": 120.69767441860465,
          "velocity": 0.2755905511811024
        },
        {
          "duration": 0.034883720930224626,
          "durationTicks": 3,
          "midi": 45,
          "name": "A2",
          "ticks": 10382,
          "time": 120.72093023255815,
          "velocity": 0.15748031496062992
        },
        {
          "duration": 0.05813953488370771,
          "durationTicks": 5,
          "midi": 59,
          "name": "B3",
          "ticks": 10382,
          "time": 120.72093023255815,
          "velocity": 0.08661417322834646
        },
        {
          "duration": 0.25581395348837077,
          "durationTicks": 22,
          "midi": 64,
          "name": "E4",
          "ticks": 10389,
          "time": 120.80232558139535,
          "velocity": 0.3937007874015748
        },
        {
          "duration": 0.05813953488372192,
          "durationTicks": 5,
          "midi": 44,
          "name": "G#2",
          "ticks": 10391,
          "time": 120.82558139534883,
          "velocity": 0.11811023622047244
        },
        {
          "duration": 0.023255813953497295,
          "durationTicks": 2,
          "midi": 56,
          "name": "G#3",
          "ticks": 10391,
          "time": 120.82558139534883,
          "velocity": 0.2755905511811024
        },
        {
          "duration": 0.15116279069768268,
          "durationTicks": 13,
          "midi": 71,
          "name": "B4",
          "ticks": 10391,
          "time": 120.82558139534883,
          "velocity": 0.11023622047244094
        },
        {
          "duration": 0.40697674418605345,
          "durationTicks": 35,
          "midi": 52,
          "name": "E3",
          "ticks": 10392,
          "time": 120.83720930232558,
          "velocity": 0.2755905511811024
        },
        {
          "duration": 0.17441860465116577,
          "durationTicks": 15,
          "midi": 64,
          "name": "E4",
          "ticks": 10412,
          "time": 121.06976744186046,
          "velocity": 0.3543307086614173
        },
        {
          "duration": 0.05813953488372192,
          "durationTicks": 5,
          "midi": 65,
          "name": "F4",
          "ticks": 10427,
          "time": 121.24418604651163,
          "velocity": 0.2440944881889764
        },
        {
          "duration": 0.034883720930224626,
          "durationTicks": 3,
          "midi": 69,
          "name": "A4",
          "ticks": 10427,
          "time": 121.24418604651163,
          "velocity": 0.15748031496062992
        },
        {
          "duration": 0.08139534883721922,
          "durationTicks": 7,
          "midi": 71,
          "name": "B4",
          "ticks": 10430,
          "time": 121.27906976744185,
          "velocity": 0.1732283464566929
        },
        {
          "duration": 0.04651162790696617,
          "durationTicks": 4,
          "midi": 44,
          "name": "G#2",
          "ticks": 10431,
          "time": 121.29069767441861,
          "velocity": 0.08661417322834646
        },
        {
          "duration": 0.04651162790696617,
          "durationTicks": 4,
          "midi": 55,
          "name": "G3",
          "ticks": 10431,
          "time": 121.29069767441861,
          "velocity": 0.2992125984251969
        },
        {
          "duration": 0.16279069767441,
          "durationTicks": 14,
          "midi": 59,
          "name": "B3",
          "ticks": 10432,
          "time": 121.30232558139535,
          "velocity": 0.10236220472440945
        },
        {
          "duration": 0.034883720930224626,
          "durationTicks": 3,
          "midi": 55,
          "name": "G3",
          "ticks": 10447,
          "time": 121.47674418604652,
          "velocity": 0.3700787401574803
        },
        {
          "duration": 0.16279069767441,
          "durationTicks": 14,
          "midi": 64,
          "name": "E4",
          "ticks": 10448,
          "time": 121.48837209302326,
          "velocity": 0.3464566929133858
        },
        {
          "duration": 0.03488372093023884,
          "durationTicks": 3,
          "midi": 55,
          "name": "G3",
          "ticks": 10451,
          "time": 121.52325581395348,
          "velocity": 0.4094488188976378
        },
        {
          "duration": 0.023255813953483084,
          "durationTicks": 2,
          "midi": 53,
          "name": "F3",
          "ticks": 10454,
          "time": 121.55813953488372,
          "velocity": 0.3464566929133858
        },
        {
          "duration": 0.05813953488372192,
          "durationTicks": 5,
          "midi": 52,
          "name": "E3",
          "ticks": 10456,
          "time": 121.5813953488372,
          "velocity": 0.31496062992125984
        },
        {
          "duration": 0.03488372093023884,
          "durationTicks": 3,
          "midi": 53,
          "name": "F3",
          "ticks": 10461,
          "time": 121.63953488372093,
          "velocity": 0.3700787401574803
        },
        {
          "duration": 0.023255813953483084,
          "durationTicks": 2,
          "midi": 54,
          "name": "F#3",
          "ticks": 10464,
          "time": 121.67441860465117,
          "velocity": 0.44881889763779526
        },
        {
          "duration": 0.25581395348837077,
          "durationTicks": 22,
          "midi": 55,
          "name": "G3",
          "ticks": 10466,
          "time": 121.69767441860465,
          "velocity": 0.48031496062992124
        },
        {
          "duration": 0.04651162790696617,
          "durationTicks": 4,
          "midi": 55,
          "name": "G3",
          "ticks": 10490,
          "time": 121.97674418604652,
          "velocity": 0.12598425196850394
        },
        {
          "duration": 0.023255813953483084,
          "durationTicks": 2,
          "midi": 55,
          "name": "G3",
          "ticks": 10495,
          "time": 122.03488372093024,
          "velocity": 0.3700787401574803
        },
        {
          "duration": 0.023255813953483084,
          "durationTicks": 2,
          "midi": 52,
          "name": "E3",
          "ticks": 10497,
          "time": 122.05813953488372,
          "velocity": 0.29133858267716534
        },
        {
          "duration": 0.5697674418604635,
          "durationTicks": 49,
          "midi": 64,
          "name": "E4",
          "ticks": 10497,
          "time": 122.05813953488372,
          "velocity": 0.36220472440944884
        },
        {
          "duration": 0.1279069767441996,
          "durationTicks": 11,
          "midi": 52,
          "name": "E3",
          "ticks": 10500,
          "time": 122.09302325581395,
          "velocity": 0.2677165354330709
        },
        {
          "duration": 0.023255813953483084,
          "durationTicks": 2,
          "midi": 55,
          "name": "G3",
          "ticks": 10522,
          "time": 122.34883720930233,
          "velocity": 0.33070866141732286
        },
        {
          "duration": 0.03488372093023884,
          "durationTicks": 3,
          "midi": 54,
          "name": "F#3",
          "ticks": 10524,
          "time": 122.37209302325581,
          "velocity": 0.3228346456692913
        },
        {
          "duration": 0.081395348837205,
          "durationTicks": 7,
          "midi": 55,
          "name": "G3",
          "ticks": 10527,
          "time": 122.40697674418605,
          "velocity": 0.33858267716535434
        },
        {
          "duration": 0.023255813953483084,
          "durationTicks": 2,
          "midi": 54,
          "name": "F#3",
          "ticks": 10534,
          "time": 122.48837209302326,
          "velocity": 0.28346456692913385
        },
        {
          "duration": 0.11627906976744384,
          "durationTicks": 10,
          "midi": 55,
          "name": "G3",
          "ticks": 10536,
          "time": 122.51162790697674,
          "velocity": 0.31496062992125984
        },
        {
          "duration": 0.034883720930224626,
          "durationTicks": 3,
          "midi": 45,
          "name": "A2",
          "ticks": 10540,
          "time": 122.55813953488372,
          "velocity": 0.07086614173228346
        },
        {
          "duration": 0.3139534883720927,
          "durationTicks": 27,
          "midi": 64,
          "name": "E4",
          "ticks": 10548,
          "time": 122.65116279069767,
          "velocity": 0.28346456692913385
        },
        {
          "duration": 0.3139534883720927,
          "durationTicks": 27,
          "midi": 67,
          "name": "G4",
          "ticks": 10548,
          "time": 122.65116279069767,
          "velocity": 0.2204724409448819
        },
        {
          "duration": 0.1860465116279073,
          "durationTicks": 16,
          "midi": 72,
          "name": "C5",
          "ticks": 10548,
          "time": 122.65116279069767,
          "velocity": 0.10236220472440945
        },
        {
          "duration": 0.30232558139533694,
          "durationTicks": 26,
          "midi": 60,
          "name": "C4",
          "ticks": 10549,
          "time": 122.66279069767442,
          "velocity": 0.33070866141732286
        },
        {
          "duration": 0.081395348837205,
          "durationTicks": 7,
          "midi": 55,
          "name": "G3",
          "ticks": 10550,
          "time": 122.67441860465117,
          "velocity": 0.30708661417322836
        },
        {
          "duration": 0.27906976744185386,
          "durationTicks": 24,
          "midi": 48,
          "name": "C3",
          "ticks": 10551,
          "time": 122.68604651162791,
          "velocity": 0.10236220472440945
        },
        {
          "duration": 0.023255813953497295,
          "durationTicks": 2,
          "midi": 55,
          "name": "G3",
          "ticks": 10575,
          "time": 122.96511627906976,
          "velocity": 0.2992125984251969
        },
        {
          "duration": 0.023255813953497295,
          "durationTicks": 2,
          "midi": 65,
          "name": "F4",
          "ticks": 10575,
          "time": 122.96511627906976,
          "velocity": 0.25196850393700787
        },
        {
          "duration": 0.05813953488372192,
          "durationTicks": 5,
          "midi": 76,
          "name": "E5",
          "ticks": 10575,
          "time": 122.96511627906976,
          "velocity": 0.11811023622047244
        },
        {
          "duration": 0.43023255813953654,
          "durationTicks": 37,
          "midi": 72,
          "name": "C5",
          "ticks": 10576,
          "time": 122.97674418604652,
          "velocity": 0.14173228346456693
        },
        {
          "duration": 0.023255813953483084,
          "durationTicks": 2,
          "midi": 54,
          "name": "F#3",
          "ticks": 10577,
          "time": 122.98837209302326,
          "velocity": 0.23622047244094488
        },
        {
          "duration": 0.2906976744185954,
          "durationTicks": 25,
          "midi": 60,
          "name": "C4",
          "ticks": 10577,
          "time": 122.98837209302326,
          "velocity": 0.3228346456692913
        },
        {
          "duration": 0.4418604651162781,
          "durationTicks": 38,
          "midi": 64,
          "name": "E4",
          "ticks": 10577,
          "time": 122.98837209302326,
          "velocity": 0.31496062992125984
        },
        {
          "duration": 0.30232558139535115,
          "durationTicks": 26,
          "midi": 67,
          "name": "G4",
          "ticks": 10577,
          "time": 122.98837209302326,
          "velocity": 0.2047244094488189
        },
        {
          "duration": 0.081395348837205,
          "durationTicks": 7,
          "midi": 55,
          "name": "G3",
          "ticks": 10579,
          "time": 123.01162790697674,
          "velocity": 0.1732283464566929
        },
        {
          "duration": 0.023255813953497295,
          "durationTicks": 2,
          "midi": 61,
          "name": "C#4",
          "ticks": 10602,
          "time": 123.27906976744185,
          "velocity": 0.25196850393700787
        },
        {
          "duration": 0.09302325581394655,
          "durationTicks": 8,
          "midi": 55,
          "name": "G3",
          "ticks": 10603,
          "time": 123.29069767441861,
          "velocity": 0.33858267716535434
        },
        {
          "duration": 0.12790697674418539,
          "durationTicks": 11,
          "midi": 60,
          "name": "C4",
          "ticks": 10604,
          "time": 123.30232558139535,
          "velocity": 0.33070866141732286
        },
        {
          "duration": 0.03488372093023884,
          "durationTicks": 3,
          "midi": 60,
          "name": "C4",
          "ticks": 10617,
          "time": 123.45348837209302,
          "velocity": 0.18110236220472442
        },
        {
          "duration": 0.1046511627907023,
          "durationTicks": 9,
          "midi": 63,
          "name": "D#4",
          "ticks": 10617,
          "time": 123.45348837209302,
          "velocity": 0.28346456692913385
        },
        {
          "duration": 0.03488372093023884,
          "durationTicks": 3,
          "midi": 55,
          "name": "G3",
          "ticks": 10627,
          "time": 123.56976744186046,
          "velocity": 0.13385826771653545
        },
        {
          "duration": 0.43023255813953654,
          "durationTicks": 37,
          "midi": 59,
          "name": "B3",
          "ticks": 10627,
          "time": 123.56976744186046,
          "velocity": 0.3228346456692913
        },
        {
          "duration": 0.023255813953497295,
          "durationTicks": 2,
          "midi": 64,
          "name": "E4",
          "ticks": 10628,
          "time": 123.5813953488372,
          "velocity": 0.28346456692913385
        },
        {
          "duration": 0.418604651162795,
          "durationTicks": 36,
          "midi": 78,
          "name": "F#5",
          "ticks": 10628,
          "time": 123.5813953488372,
          "velocity": 0.14173228346456693
        },
        {
          "duration": 0.034883720930224626,
          "durationTicks": 3,
          "midi": 47,
          "name": "B2",
          "ticks": 10630,
          "time": 123.6046511627907,
          "velocity": 0.13385826771653545
        },
        {
          "duration": 0.3953488372092977,
          "durationTicks": 34,
          "midi": 63,
          "name": "D#4",
          "ticks": 10630,
          "time": 123.6046511627907,
          "velocity": 0.25984251968503935
        },
        {
          "duration": 0.34883720930233153,
          "durationTicks": 30,
          "midi": 47,
          "name": "B2",
          "ticks": 10634,
          "time": 123.65116279069767,
          "velocity": 0.11811023622047244
        },
        {
          "duration": 0.3372093023255758,
          "durationTicks": 29,
          "midi": 66,
          "name": "F#4",
          "ticks": 10635,
          "time": 123.66279069767442,
          "velocity": 0.1889763779527559
        },
        {
          "duration": 0.16279069767442422,
          "durationTicks": 14,
          "midi": 59,
          "name": "B3",
          "ticks": 10666,
          "time": 124.02325581395348,
          "velocity": 0.2677165354330709
        },
        {
          "duration": 0.04651162790698038,
          "durationTicks": 4,
          "midi": 66,
          "name": "F#4",
          "ticks": 10666,
          "time": 124.02325581395348,
          "velocity": 0.16535433070866143
        },
        {
          "duration": 0.04651162790696617,
          "durationTicks": 4,
          "midi": 55,
          "name": "G3",
          "ticks": 10667,
          "time": 124.03488372093024,
          "velocity": 0.2283464566929134
        },
        {
          "duration": 0.11627906976742963,
          "durationTicks": 10,
          "midi": 63,
          "name": "D#4",
          "ticks": 10667,
          "time": 124.03488372093024,
          "velocity": 0.28346456692913385
        },
        {
          "duration": 0.05813953488372192,
          "durationTicks": 5,
          "midi": 66,
          "name": "F#4",
          "ticks": 10672,
          "time": 124.09302325581395,
          "velocity": 0.1889763779527559
        },
        {
          "duration": 0.03488372093023884,
          "durationTicks": 3,
          "midi": 44,
          "name": "G#2",
          "ticks": 10677,
          "time": 124.15116279069767,
          "velocity": 0.13385826771653545
        },
        {
          "duration": 0.04651162790698038,
          "durationTicks": 4,
          "midi": 65,
          "name": "F4",
          "ticks": 10682,
          "time": 124.20930232558139,
          "velocity": 0.14960629921259844
        },
        {
          "duration": 0.023255813953483084,
          "durationTicks": 2,
          "midi": 53,
          "name": "F3",
          "ticks": 10684,
          "time": 124.23255813953489,
          "velocity": 0.25196850393700787
        },
        {
          "duration": 0.1046511627907023,
          "durationTicks": 9,
          "midi": 55,
          "name": "G3",
          "ticks": 10686,
          "time": 124.25581395348837,
          "velocity": 0.44881889763779526
        },
        {
          "duration": 0.05813953488372192,
          "durationTicks": 5,
          "midi": 62,
          "name": "D4",
          "ticks": 10686,
          "time": 124.25581395348837,
          "velocity": 0.16535433070866143
        },
        {
          "duration": 0.03488372093023884,
          "durationTicks": 3,
          "midi": 64,
          "name": "E4",
          "ticks": 10691,
          "time": 124.31395348837209,
          "velocity": 0.1889763779527559
        },
        {
          "duration": 0.03488372093023884,
          "durationTicks": 3,
          "midi": 45,
          "name": "A2",
          "ticks": 10693,
          "time": 124.33720930232558,
          "velocity": 0.2125984251968504
        },
        {
          "duration": 0.023255813953483084,
          "durationTicks": 2,
          "midi": 54,
          "name": "F#3",
          "ticks": 10695,
          "time": 124.36046511627907,
          "velocity": 0.2992125984251969
        },
        {
          "duration": 0.03488372093023884,
          "durationTicks": 3,
          "midi": 45,
          "name": "A2",
          "ticks": 10697,
          "time": 124.38372093023256,
          "velocity": 0.23622047244094488
        },
        {
          "duration": 0.09302325581396076,
          "durationTicks": 8,
          "midi": 55,
          "name": "G3",
          "ticks": 10697,
          "time": 124.38372093023256,
          "velocity": 0.3858267716535433
        },
        {
          "duration": 0.05813953488372192,
          "durationTicks": 5,
          "midi": 59,
          "name": "B3",
          "ticks": 10697,
          "time": 124.38372093023256,
          "velocity": 0.16535433070866143
        },
        {
          "duration": 0.03488372093023884,
          "durationTicks": 3,
          "midi": 65,
          "name": "F4",
          "ticks": 10703,
          "time": 124.45348837209302,
          "velocity": 0.1968503937007874
        },
        {
          "duration": 0.10465116279068809,
          "durationTicks": 9,
          "midi": 71,
          "name": "B4",
          "ticks": 10705,
          "time": 124.47674418604652,
          "velocity": 0.15748031496062992
        },
        {
          "duration": 0.48837209302325846,
          "durationTicks": 42,
          "midi": 64,
          "name": "E4",
          "ticks": 10706,
          "time": 124.48837209302326,
          "velocity": 0.2440944881889764
        },
        {
          "duration": 0.13953488372092693,
          "durationTicks": 12,
          "midi": 55,
          "name": "G3",
          "ticks": 10707,
          "time": 124.5,
          "velocity": 0.3937007874015748
        },
        {
          "duration": 0.38372093023255616,
          "durationTicks": 33,
          "midi": 59,
          "name": "B3",
          "ticks": 10708,
          "time": 124.51162790697674,
          "velocity": 0.2204724409448819
        },
        {
          "duration": 0.04651162790696617,
          "durationTicks": 4,
          "midi": 95,
          "name": "B6",
          "ticks": 10711,
          "time": 124.54651162790698,
          "velocity": 0.07874015748031496
        },
        {
          "duration": 0.3372093023255758,
          "durationTicks": 29,
          "midi": 78,
          "name": "F#5",
          "ticks": 10712,
          "time": 124.55813953488372,
          "velocity": 0.14173228346456693
        },
        {
          "duration": 0.023255813953483084,
          "durationTicks": 2,
          "midi": 52,
          "name": "E3",
          "ticks": 10721,
          "time": 124.66279069767442,
          "velocity": 0.2677165354330709
        },
        {
          "duration": 0.09302325581394655,
          "durationTicks": 8,
          "midi": 74,
          "name": "D5",
          "ticks": 10721,
          "time": 124.66279069767442,
          "velocity": 0.09448818897637795
        },
        {
          "duration": 0.04651162790698038,
          "durationTicks": 4,
          "midi": 83,
          "name": "B5",
          "ticks": 10724,
          "time": 124.69767441860465,
          "velocity": 0.12598425196850394
        },
        {
          "duration": 0.023255813953497295,
          "durationTicks": 2,
          "midi": 53,
          "name": "F3",
          "ticks": 10725,
          "time": 124.70930232558139,
          "velocity": 0.25196850393700787
        },
        {
          "duration": 0.12790697674418539,
          "durationTicks": 11,
          "midi": 52,
          "name": "E3",
          "ticks": 10729,
          "time": 124.75581395348837,
          "velocity": 0.1968503937007874
        },
        {
          "duration": 0.04651162790698038,
          "durationTicks": 4,
          "midi": 83,
          "name": "B5",
          "ticks": 10731,
          "time": 124.77906976744185,
          "velocity": 0.11811023622047244
        },
        {
          "duration": 0.03488372093023884,
          "durationTicks": 3,
          "midi": 52,
          "name": "E3",
          "ticks": 10741,
          "time": 124.8953488372093,
          "velocity": 0.2440944881889764
        },
        {
          "duration": 0.05813953488372192,
          "durationTicks": 5,
          "midi": 60,
          "name": "C4",
          "ticks": 10741,
          "time": 124.8953488372093,
          "velocity": 0.2440944881889764
        },
        {
          "duration": 0.05813953488372192,
          "durationTicks": 5,
          "midi": 45,
          "name": "A2",
          "ticks": 10746,
          "time": 124.95348837209302,
          "velocity": 0.23622047244094488
        },
        {
          "duration": 0.03488372093023884,
          "durationTicks": 3,
          "midi": 55,
          "name": "G3",
          "ticks": 10747,
          "time": 124.96511627906976,
          "velocity": 0.33070866141732286
        },
        {
          "duration": 0.05813953488372192,
          "durationTicks": 5,
          "midi": 52,
          "name": "E3",
          "ticks": 10758,
          "time": 125.09302325581395,
          "velocity": 0.08661417322834646
        },
        {
          "duration": 0.22093023255813193,
          "durationTicks": 19,
          "midi": 71,
          "name": "B4",
          "ticks": 10764,
          "time": 125.16279069767442,
          "velocity": 0.1732283464566929
        },
        {
          "duration": 0.05813953488372192,
          "durationTicks": 5,
          "midi": 59,
          "name": "B3",
          "ticks": 10766,
          "time": 125.18604651162791,
          "velocity": 0.1968503937007874
        },
        {
          "duration": 0.1860465116279073,
          "durationTicks": 16,
          "midi": 64,
          "name": "E4",
          "ticks": 10766,
          "time": 125.18604651162791,
          "velocity": 0.25196850393700787
        },
        {
          "duration": 0.11627906976744384,
          "durationTicks": 10,
          "midi": 55,
          "name": "G3",
          "ticks": 10767,
          "time": 125.19767441860465,
          "velocity": 0.41732283464566927
        },
        {
          "duration": 0.03488372093023884,
          "durationTicks": 3,
          "midi": 59,
          "name": "B3",
          "ticks": 10772,
          "time": 125.25581395348837,
          "velocity": 0.16535433070866143
        },
        {
          "duration": 0.1046511627907023,
          "durationTicks": 9,
          "midi": 78,
          "name": "F#5",
          "ticks": 10774,
          "time": 125.27906976744185,
          "velocity": 0.11811023622047244
        },
        {
          "duration": 0.06976744186046346,
          "durationTicks": 6,
          "midi": 55,
          "name": "G3",
          "ticks": 10778,
          "time": 125.32558139534883,
          "velocity": 0.33858267716535434
        },
        {
          "duration": 0.04651162790698038,
          "durationTicks": 4,
          "midi": 45,
          "name": "A2",
          "ticks": 10779,
          "time": 125.33720930232558,
          "velocity": 0.11811023622047244
        },
        {
          "duration": 0.05813953488372192,
          "durationTicks": 5,
          "midi": 74,
          "name": "D5",
          "ticks": 10786,
          "time": 125.4186046511628,
          "velocity": 0.16535433070866143
        },
        {
          "duration": 0.023255813953483084,
          "durationTicks": 2,
          "midi": 55,
          "name": "G3",
          "ticks": 10787,
          "time": 125.43023255813954,
          "velocity": 0.25984251968503935
        },
        {
          "duration": 0.2325581395348877,
          "durationTicks": 20,
          "midi": 62,
          "name": "D4",
          "ticks": 10787,
          "time": 125.43023255813954,
          "velocity": 0.28346456692913385
        },
        {
          "duration": 0.1046511627907023,
          "durationTicks": 9,
          "midi": 86,
          "name": "D6",
          "ticks": 10787,
          "time": 125.43023255813954,
          "velocity": 0.16535433070866143
        },
        {
          "duration": 0.023255813953497295,
          "durationTicks": 2,
          "midi": 44,
          "name": "G#2",
          "ticks": 10789,
          "time": 125.45348837209302,
          "velocity": 0.25984251968503935
        },
        {
          "duration": 0.023255813953497295,
          "durationTicks": 2,
          "midi": 56,
          "name": "G#3",
          "ticks": 10789,
          "time": 125.45348837209302,
          "velocity": 0.25984251968503935
        },
        {
          "duration": 0.22093023255813193,
          "durationTicks": 19,
          "midi": 55,
          "name": "G3",
          "ticks": 10791,
          "time": 125.47674418604652,
          "velocity": 0.3858267716535433
        },
        {
          "duration": 0.023255813953483084,
          "durationTicks": 2,
          "midi": 44,
          "name": "G#2",
          "ticks": 10792,
          "time": 125.48837209302326,
          "velocity": 0.25984251968503935
        },
        {
          "duration": 0.023255813953497295,
          "durationTicks": 2,
          "midi": 44,
          "name": "G#2",
          "ticks": 10795,
          "time": 125.52325581395348,
          "velocity": 0.2283464566929134
        },
        {
          "duration": 0.023255813953483084,
          "durationTicks": 2,
          "midi": 56,
          "name": "G#3",
          "ticks": 10812,
          "time": 125.72093023255815,
          "velocity": 0.3464566929133858
        },
        {
          "duration": 0.034883720930224626,
          "durationTicks": 3,
          "midi": 69,
          "name": "A4",
          "ticks": 10812,
          "time": 125.72093023255815,
          "velocity": 0.11023622047244094
        },
        {
          "duration": 0.13953488372092693,
          "durationTicks": 12,
          "midi": 71,
          "name": "B4",
          "ticks": 10814,
          "time": 125.74418604651163,
          "velocity": 0.14960629921259844
        },
        {
          "duration": 0.081395348837205,
          "durationTicks": 7,
          "midi": 59,
          "name": "B3",
          "ticks": 10815,
          "time": 125.75581395348837,
          "velocity": 0.2283464566929134
        },
        {
          "duration": 0.03488372093023884,
          "durationTicks": 3,
          "midi": 64,
          "name": "E4",
          "ticks": 10815,
          "time": 125.75581395348837,
          "velocity": 0.1732283464566929
        },
        {
          "duration": 0.12790697674418539,
          "durationTicks": 11,
          "midi": 68,
          "name": "G#4",
          "ticks": 10815,
          "time": 125.75581395348837,
          "velocity": 0.12598425196850394
        },
        {
          "duration": 0.023255813953497295,
          "durationTicks": 2,
          "midi": 52,
          "name": "E3",
          "ticks": 10816,
          "time": 125.76744186046511,
          "velocity": 0.28346456692913385
        },
        {
          "duration": 0.023255813953497295,
          "durationTicks": 2,
          "midi": 53,
          "name": "F3",
          "ticks": 10821,
          "time": 125.82558139534883,
          "velocity": 0.2440944881889764
        },
        {
          "duration": 0.05813953488372192,
          "durationTicks": 5,
          "midi": 60,
          "name": "C4",
          "ticks": 10822,
          "time": 125.83720930232558,
          "velocity": 0.14173228346456693
        },
        {
          "duration": 0.05813953488372192,
          "durationTicks": 5,
          "midi": 64,
          "name": "E4",
          "ticks": 10822,
          "time": 125.83720930232558,
          "velocity": 0.2047244094488189
        },
        {
          "duration": 0.034883720930224626,
          "durationTicks": 3,
          "midi": 47,
          "name": "B2",
          "ticks": 10823,
          "time": 125.84883720930233,
          "velocity": 0.10236220472440945
        },
        {
          "duration": 0.04651162790698038,
          "durationTicks": 4,
          "midi": 44,
          "name": "G#2",
          "ticks": 10826,
          "time": 125.88372093023256,
          "velocity": 0.14173228346456693
        },
        {
          "duration": 0.09302325581396076,
          "durationTicks": 8,
          "midi": 55,
          "name": "G3",
          "ticks": 10832,
          "time": 125.95348837209302,
          "velocity": 0.18110236220472442
        },
        {
          "duration": 0.04651162790698038,
          "durationTicks": 4,
          "midi": 44,
          "name": "G#2",
          "ticks": 10833,
          "time": 125.96511627906976,
          "velocity": 0.07086614173228346
        },
        {
          "duration": 0.03488372093023884,
          "durationTicks": 3,
          "midi": 65,
          "name": "F4",
          "ticks": 10842,
          "time": 126.06976744186046,
          "velocity": 0.11023622047244094
        },
        {
          "duration": 0.16279069767441,
          "durationTicks": 14,
          "midi": 62,
          "name": "D4",
          "ticks": 10845,
          "time": 126.1046511627907,
          "velocity": 0.16535433070866143
        },
        {
          "duration": 0.023255813953483084,
          "durationTicks": 2,
          "midi": 44,
          "name": "G#2",
          "ticks": 10846,
          "time": 126.11627906976744,
          "velocity": 0.28346456692913385
        },
        {
          "duration": 0.04651162790698038,
          "durationTicks": 4,
          "midi": 45,
          "name": "A2",
          "ticks": 10848,
          "time": 126.13953488372093,
          "velocity": 0.28346456692913385
        },
        {
          "duration": 0.023255813953483084,
          "durationTicks": 2,
          "midi": 50,
          "name": "D3",
          "ticks": 10850,
          "time": 126.16279069767442,
          "velocity": 0.2283464566929134
        },
        {
          "duration": 0.04651162790696617,
          "durationTicks": 4,
          "midi": 50,
          "name": "D3",
          "ticks": 10855,
          "time": 126.22093023255815,
          "velocity": 0.2440944881889764
        },
        {
          "duration": 0.05813953488372192,
          "durationTicks": 5,
          "midi": 55,
          "name": "G3",
          "ticks": 10860,
          "time": 126.27906976744185,
          "velocity": 0.2047244094488189
        },
        {
          "duration": 0.023255813953483084,
          "durationTicks": 2,
          "midi": 50,
          "name": "D3",
          "ticks": 10862,
          "time": 126.30232558139535,
          "velocity": 0.23622047244094488
        },
        {
          "duration": 0.25581395348837077,
          "durationTicks": 22,
          "midi": 60,
          "name": "C4",
          "ticks": 10865,
          "time": 126.33720930232558,
          "velocity": 0.29133858267716534
        },
        {
          "duration": 0.03488372093023884,
          "durationTicks": 3,
          "midi": 69,
          "name": "A4",
          "ticks": 10865,
          "time": 126.33720930232558,
          "velocity": 0.14960629921259844
        },
        {
          "duration": 0.32558139534883423,
          "durationTicks": 28,
          "midi": 84,
          "name": "C6",
          "ticks": 10866,
          "time": 126.34883720930233,
          "velocity": 0.18110236220472442
        },
        {
          "duration": 0.4418604651162781,
          "durationTicks": 38,
          "midi": 64,
          "name": "E4",
          "ticks": 10868,
          "time": 126.37209302325581,
          "velocity": 0.2440944881889764
        },
        {
          "duration": 0.034883720930224626,
          "durationTicks": 3,
          "midi": 52,
          "name": "E3",
          "ticks": 10871,
          "time": 126.40697674418605,
          "velocity": 0.1968503937007874
        },
        {
          "duration": 0.04651162790698038,
          "durationTicks": 4,
          "midi": 52,
          "name": "E3",
          "ticks": 10875,
          "time": 126.45348837209302,
          "velocity": 0.1889763779527559
        },
        {
          "duration": 0.06976744186046346,
          "durationTicks": 6,
          "midi": 52,
          "name": "E3",
          "ticks": 10883,
          "time": 126.54651162790698,
          "velocity": 0.2125984251968504
        },
        {
          "duration": 0.04651162790698038,
          "durationTicks": 4,
          "midi": 52,
          "name": "E3",
          "ticks": 10890,
          "time": 126.62790697674419,
          "velocity": 0.18110236220472442
        },
        {
          "duration": 0.30232558139535115,
          "durationTicks": 26,
          "midi": 60,
          "name": "C4",
          "ticks": 10894,
          "time": 126.67441860465117,
          "velocity": 0.23622047244094488
        },
        {
          "duration": 0.034883720930224626,
          "durationTicks": 3,
          "midi": 68,
          "name": "G#4",
          "ticks": 10904,
          "time": 126.79069767441861,
          "velocity": 0.13385826771653545
        },
        {
          "duration": 0.023255813953483084,
          "durationTicks": 2,
          "midi": 54,
          "name": "F#3",
          "ticks": 10906,
          "time": 126.81395348837209,
          "velocity": 0.3228346456692913
        },
        {
          "duration": 0.08139534883721922,
          "durationTicks": 7,
          "midi": 76,
          "name": "E5",
          "ticks": 10907,
          "time": 126.82558139534883,
          "velocity": 0.10236220472440945
        },
        {
          "duration": 0.08139534883721922,
          "durationTicks": 7,
          "midi": 88,
          "name": "E6",
          "ticks": 10907,
          "time": 126.82558139534883,
          "velocity": 0.15748031496062992
        },
        {
          "duration": 0.05813953488372192,
          "durationTicks": 5,
          "midi": 55,
          "name": "G3",
          "ticks": 10908,
          "time": 126.83720930232558,
          "velocity": 0.3700787401574803
        },
        {
          "duration": 0.2093023255813904,
          "durationTicks": 18,
          "midi": 64,
          "name": "E4",
          "ticks": 10910,
          "time": 126.86046511627907,
          "velocity": 0.1968503937007874
        },
        {
          "duration": 0.023255813953483084,
          "durationTicks": 2,
          "midi": 52,
          "name": "E3",
          "ticks": 10914,
          "time": 126.90697674418605,
          "velocity": 0.25984251968503935
        },
        {
          "duration": 0.03488372093023884,
          "durationTicks": 3,
          "midi": 52,
          "name": "E3",
          "ticks": 10917,
          "time": 126.94186046511628,
          "velocity": 0.18110236220472442
        },
        {
          "duration": 0.06976744186046346,
          "durationTicks": 6,
          "midi": 44,
          "name": "G#2",
          "ticks": 10924,
          "time": 127.02325581395348,
          "velocity": 0.33858267716535434
        },
        {
          "duration": 0.04651162790698038,
          "durationTicks": 4,
          "midi": 59,
          "name": "B3",
          "ticks": 10929,
          "time": 127.0813953488372,
          "velocity": 0.1732283464566929
        },
        {
          "duration": 0.08139534883721922,
          "durationTicks": 7,
          "midi": 45,
          "name": "A2",
          "ticks": 10930,
          "time": 127.09302325581395,
          "velocity": 0.33858267716535434
        },
        {
          "duration": 0.081395348837205,
          "durationTicks": 7,
          "midi": 64,
          "name": "E4",
          "ticks": 10931,
          "time": 127.1046511627907,
          "velocity": 0.08661417322834646
        },
        {
          "duration": 0.05813953488372192,
          "durationTicks": 5,
          "midi": 71,
          "name": "B4",
          "ticks": 10934,
          "time": 127.13953488372093,
          "velocity": 0.07874015748031496
        },
        {
          "duration": 0.023255813953483084,
          "durationTicks": 2,
          "midi": 58,
          "name": "A#3",
          "ticks": 10937,
          "time": 127.17441860465117,
          "velocity": 0.2283464566929134
        },
        {
          "duration": 0.023255813953483084,
          "durationTicks": 2,
          "midi": 45,
          "name": "A2",
          "ticks": 10938,
          "time": 127.18604651162791,
          "velocity": 0.2440944881889764
        },
        {
          "duration": 0.023255813953497295,
          "durationTicks": 2,
          "midi": 55,
          "name": "G3",
          "ticks": 10939,
          "time": 127.19767441860465,
          "velocity": 0.33070866141732286
        },
        {
          "duration": 0.04651162790696617,
          "durationTicks": 4,
          "midi": 54,
          "name": "F#3",
          "ticks": 10941,
          "time": 127.22093023255815,
          "velocity": 0.3543307086614173
        },
        {
          "duration": 0.023255813953497295,
          "durationTicks": 2,
          "midi": 55,
          "name": "G3",
          "ticks": 10945,
          "time": 127.26744186046511,
          "velocity": 0.36220472440944884
        },
        {
          "duration": 0.05813953488372192,
          "durationTicks": 5,
          "midi": 71,
          "name": "B4",
          "ticks": 10946,
          "time": 127.27906976744185,
          "velocity": 0.13385826771653545
        },
        {
          "duration": 0.3488372093023173,
          "durationTicks": 30,
          "midi": 54,
          "name": "F#3",
          "ticks": 10947,
          "time": 127.29069767441861,
          "velocity": 0.4251968503937008
        },
        {
          "duration": 0.40697674418605345,
          "durationTicks": 35,
          "midi": 59,
          "name": "B3",
          "ticks": 10949,
          "time": 127.31395348837209,
          "velocity": 0.25196850393700787
        },
        {
          "duration": 0.3953488372093119,
          "durationTicks": 34,
          "midi": 47,
          "name": "B2",
          "ticks": 10951,
          "time": 127.33720930232558,
          "velocity": 0.14960629921259844
        },
        {
          "duration": 0.2093023255813904,
          "durationTicks": 18,
          "midi": 71,
          "name": "B4",
          "ticks": 10986,
          "time": 127.74418604651163,
          "velocity": 0.2047244094488189
        },
        {
          "duration": 0.19767441860464885,
          "durationTicks": 17,
          "midi": 54,
          "name": "F#3",
          "ticks": 10987,
          "time": 127.75581395348837,
          "velocity": 0.3858267716535433
        },
        {
          "duration": 0.023255813953483084,
          "durationTicks": 2,
          "midi": 59,
          "name": "B3",
          "ticks": 10987,
          "time": 127.75581395348837,
          "velocity": 0.2677165354330709
        },
        {
          "duration": 0.13953488372092693,
          "durationTicks": 12,
          "midi": 59,
          "name": "B3",
          "ticks": 10992,
          "time": 127.81395348837209,
          "velocity": 0.23622047244094488
        },
        {
          "duration": 0.05813953488370771,
          "durationTicks": 5,
          "midi": 64,
          "name": "E4",
          "ticks": 11007,
          "time": 127.98837209302326,
          "velocity": 0.12598425196850394
        },
        {
          "duration": 0.05813953488370771,
          "durationTicks": 5,
          "midi": 71,
          "name": "B4",
          "ticks": 11007,
          "time": 127.98837209302326,
          "velocity": 0.14173228346456693
        },
        {
          "duration": 0.023255813953483084,
          "durationTicks": 2,
          "midi": 44,
          "name": "G#2",
          "ticks": 11008,
          "time": 128,
          "velocity": 0.3228346456692913
        },
        {
          "duration": 0.08139534883721922,
          "durationTicks": 7,
          "midi": 45,
          "name": "A2",
          "ticks": 11010,
          "time": 128.02325581395348,
          "velocity": 0.3464566929133858
        },
        {
          "duration": 0.13953488372092693,
          "durationTicks": 12,
          "midi": 55,
          "name": "G3",
          "ticks": 11015,
          "time": 128.08139534883722,
          "velocity": 0.4015748031496063
        },
        {
          "duration": 0.04651162790696617,
          "durationTicks": 4,
          "midi": 59,
          "name": "B3",
          "ticks": 11018,
          "time": 128.11627906976744,
          "velocity": 0.18110236220472442
        },
        {
          "duration": 0.03488372093025305,
          "durationTicks": 3,
          "midi": 64,
          "name": "E4",
          "ticks": 11023,
          "time": 128.17441860465115,
          "velocity": 0.11811023622047244
        },
        {
          "duration": 0.03488372093025305,
          "durationTicks": 3,
          "midi": 78,
          "name": "F#5",
          "ticks": 11023,
          "time": 128.17441860465115,
          "velocity": 0.07874015748031496
        },
        {
          "duration": 0.08139534883721922,
          "durationTicks": 7,
          "midi": 55,
          "name": "G3",
          "ticks": 11028,
          "time": 128.2325581395349,
          "velocity": 0.41732283464566927
        },
        {
          "duration": 0.44186046511626387,
          "durationTicks": 38,
          "midi": 64,
          "name": "E4",
          "ticks": 11028,
          "time": 128.2325581395349,
          "velocity": 0.18110236220472442
        },
        {
          "duration": 0.1046511627907023,
          "durationTicks": 9,
          "midi": 78,
          "name": "F#5",
          "ticks": 11029,
          "time": 128.24418604651163,
          "velocity": 0.08661417322834646
        },
        {
          "duration": 0.03488372093025305,
          "durationTicks": 3,
          "midi": 68,
          "name": "G#4",
          "ticks": 11033,
          "time": 128.2906976744186,
          "velocity": 0.12598425196850394
        },
        {
          "duration": 0.034883720930224626,
          "durationTicks": 3,
          "midi": 89,
          "name": "F6",
          "ticks": 11035,
          "time": 128.3139534883721,
          "velocity": 0.07086614173228346
        },
        {
          "duration": 0.023255813953483084,
          "durationTicks": 2,
          "midi": 56,
          "name": "G#3",
          "ticks": 11037,
          "time": 128.3372093023256,
          "velocity": 0.31496062992125984
        },
        {
          "duration": 0.32558139534882,
          "durationTicks": 28,
          "midi": 71,
          "name": "B4",
          "ticks": 11037,
          "time": 128.3372093023256,
          "velocity": 0.2283464566929134
        },
        {
          "duration": 0.023255813953483084,
          "durationTicks": 2,
          "midi": 55,
          "name": "G3",
          "ticks": 11041,
          "time": 128.38372093023256,
          "velocity": 0.3543307086614173
        },
        {
          "duration": 0.05813953488373613,
          "durationTicks": 5,
          "midi": 55,
          "name": "G3",
          "ticks": 11044,
          "time": 128.41860465116278,
          "velocity": 0.33070866141732286
        },
        {
          "duration": 0.12790697674418539,
          "durationTicks": 11,
          "midi": 59,
          "name": "B3",
          "ticks": 11044,
          "time": 128.41860465116278,
          "velocity": 0.1732283464566929
        },
        {
          "duration": 0.03488372093025305,
          "durationTicks": 3,
          "midi": 68,
          "name": "G#4",
          "ticks": 11044,
          "time": 128.41860465116278,
          "velocity": 0.14173228346456693
        },
        {
          "duration": 0.12790697674418539,
          "durationTicks": 11,
          "midi": 78,
          "name": "F#5",
          "ticks": 11046,
          "time": 128.4418604651163,
          "velocity": 0.09448818897637795
        },
        {
          "duration": 0.11627906976744384,
          "durationTicks": 10,
          "midi": 68,
          "name": "G#4",
          "ticks": 11048,
          "time": 128.46511627906978,
          "velocity": 0.15748031496062992
        },
        {
          "duration": 0.023255813953483084,
          "durationTicks": 2,
          "midi": 52,
          "name": "E3",
          "ticks": 11049,
          "time": 128.47674418604652,
          "velocity": 0.28346456692913385
        },
        {
          "duration": 0.034883720930224626,
          "durationTicks": 3,
          "midi": 52,
          "name": "E3",
          "ticks": 11053,
          "time": 128.52325581395348,
          "velocity": 0.28346456692913385
        },
        {
          "duration": 0.06976744186044925,
          "durationTicks": 6,
          "midi": 52,
          "name": "E3",
          "ticks": 11057,
          "time": 128.56976744186048,
          "velocity": 0.2992125984251969
        },
        {
          "duration": 0.05813953488373613,
          "durationTicks": 5,
          "midi": 60,
          "name": "C4",
          "ticks": 11065,
          "time": 128.6627906976744,
          "velocity": 0.2677165354330709
        },
        {
          "duration": 0.023255813953511506,
          "durationTicks": 2,
          "midi": 54,
          "name": "F#3",
          "ticks": 11066,
          "time": 128.67441860465115,
          "velocity": 0.3937007874015748
        },
        {
          "duration": 0.09302325581393234,
          "durationTicks": 8,
          "midi": 55,
          "name": "G3",
          "ticks": 11068,
          "time": 128.69767441860466,
          "velocity": 0.4251968503937008
        },
        {
          "duration": 0.0813953488371908,
          "durationTicks": 7,
          "midi": 44,
          "name": "G#2",
          "ticks": 11069,
          "time": 128.7093023255814,
          "velocity": 0.13385826771653545
        },
        {
          "duration": 0.034883720930224626,
          "durationTicks": 3,
          "midi": 51,
          "name": "D#3",
          "ticks": 11084,
          "time": 128.88372093023256,
          "velocity": 0.16535433070866143
        },
        {
          "duration": 0.023255813953483084,
          "durationTicks": 2,
          "midi": 65,
          "name": "F4",
          "ticks": 11085,
          "time": 128.8953488372093,
          "velocity": 0.23622047244094488
        },
        {
          "duration": 0.22093023255814614,
          "durationTicks": 19,
          "midi": 71,
          "name": "B4",
          "ticks": 11086,
          "time": 128.90697674418604,
          "velocity": 0.10236220472440945
        },
        {
          "duration": 0.12790697674418539,
          "durationTicks": 11,
          "midi": 55,
          "name": "G3",
          "ticks": 11087,
          "time": 128.91860465116278,
          "velocity": 0.4409448818897638
        },
        {
          "duration": 0.18604651162792152,
          "durationTicks": 16,
          "midi": 64,
          "name": "E4",
          "ticks": 11087,
          "time": 128.91860465116278,
          "velocity": 0.25984251968503935
        },
        {
          "duration": 0.05813953488373613,
          "durationTicks": 5,
          "midi": 55,
          "name": "G3",
          "ticks": 11099,
          "time": 129.0581395348837,
          "velocity": 0.3464566929133858
        },
        {
          "duration": 0.04651162790696617,
          "durationTicks": 4,
          "midi": 55,
          "name": "G3",
          "ticks": 11105,
          "time": 129.12790697674419,
          "velocity": 0.3464566929133858
        },
        {
          "duration": 0.04651162790696617,
          "durationTicks": 4,
          "midi": 70,
          "name": "A#4",
          "ticks": 11106,
          "time": 129.13953488372093,
          "velocity": 0.14960629921259844
        },
        {
          "duration": 0.2325581395348877,
          "durationTicks": 20,
          "midi": 62,
          "name": "D4",
          "ticks": 11109,
          "time": 129.17441860465115,
          "velocity": 0.18110236220472442
        },
        {
          "duration": 0.1511627906976969,
          "durationTicks": 13,
          "midi": 55,
          "name": "G3",
          "ticks": 11110,
          "time": 129.1860465116279,
          "velocity": 0.3779527559055118
        },
        {
          "duration": 0.034883720930224626,
          "durationTicks": 3,
          "midi": 43,
          "name": "G2",
          "ticks": 11112,
          "time": 129.2093023255814,
          "velocity": 0.1889763779527559
        },
        {
          "duration": 0.16279069767441,
          "durationTicks": 14,
          "midi": 69,
          "name": "A4",
          "ticks": 11115,
          "time": 129.24418604651163,
          "velocity": 0.13385826771653545
        },
        {
          "duration": 0.034883720930224626,
          "durationTicks": 3,
          "midi": 43,
          "name": "G2",
          "ticks": 11117,
          "time": 129.2674418604651,
          "velocity": 0.18110236220472442
        },
        {
          "duration": 0.09302325581393234,
          "durationTicks": 8,
          "midi": 50,
          "name": "D3",
          "ticks": 11122,
          "time": 129.32558139534885,
          "velocity": 0.1889763779527559
        },
        {
          "duration": 0.05813953488373613,
          "durationTicks": 5,
          "midi": 64,
          "name": "E4",
          "ticks": 11130,
          "time": 129.41860465116278,
          "velocity": 0.14960629921259844
        },
        {
          "duration": 0.034883720930224626,
          "durationTicks": 3,
          "midi": 59,
          "name": "B3",
          "ticks": 11135,
          "time": 129.47674418604652,
          "velocity": 0.28346456692913385
        },
        {
          "duration": 0.2674418604651123,
          "durationTicks": 23,
          "midi": 55,
          "name": "G3",
          "ticks": 11136,
          "time": 129.48837209302326,
          "velocity": 0.4330708661417323
        },
        {
          "duration": 0.11627906976744384,
          "durationTicks": 10,
          "midi": 64,
          "name": "E4",
          "ticks": 11137,
          "time": 129.5,
          "velocity": 0.1889763779527559
        },
        {
          "duration": 0.1860465116278931,
          "durationTicks": 16,
          "midi": 78,
          "name": "F#5",
          "ticks": 11137,
          "time": 129.5,
          "velocity": 0.11811023622047244
        },
        {
          "duration": 0.034883720930224626,
          "durationTicks": 3,
          "midi": 45,
          "name": "A2",
          "ticks": 11147,
          "time": 129.61627906976744,
          "velocity": 0.14960629921259844
        },
        {
          "duration": 0.11627906976744384,
          "durationTicks": 10,
          "midi": 45,
          "name": "A2",
          "ticks": 11151,
          "time": 129.6627906976744,
          "velocity": 0.2125984251968504
        },
        {
          "duration": 0.05813953488373613,
          "durationTicks": 5,
          "midi": 44,
          "name": "G#2",
          "ticks": 11161,
          "time": 129.77906976744185,
          "velocity": 0.30708661417322836
        },
        {
          "duration": 0.03488372093025305,
          "durationTicks": 3,
          "midi": 55,
          "name": "G3",
          "ticks": 11162,
          "time": 129.7906976744186,
          "velocity": 0.2440944881889764
        },
        {
          "duration": 0.03488372093025305,
          "durationTicks": 3,
          "midi": 70,
          "name": "A#4",
          "ticks": 11163,
          "time": 129.80232558139534,
          "velocity": 0.18110236220472442
        },
        {
          "duration": 0.034883720930224626,
          "durationTicks": 3,
          "midi": 64,
          "name": "E4",
          "ticks": 11165,
          "time": 129.82558139534885,
          "velocity": 0.14960629921259844
        },
        {
          "duration": 0.06976744186044925,
          "durationTicks": 6,
          "midi": 45,
          "name": "A2",
          "ticks": 11166,
          "time": 129.8372093023256,
          "velocity": 0.31496062992125984
        },
        {
          "duration": 0.023255813953483084,
          "durationTicks": 2,
          "midi": 58,
          "name": "A#3",
          "ticks": 11166,
          "time": 129.8372093023256,
          "velocity": 0.25984251968503935
        },
        {
          "duration": 0.04651162790696617,
          "durationTicks": 4,
          "midi": 62,
          "name": "D4",
          "ticks": 11167,
          "time": 129.84883720930233,
          "velocity": 0.1968503937007874
        },
        {
          "duration": 0.15116279069766847,
          "durationTicks": 13,
          "midi": 69,
          "name": "A4",
          "ticks": 11169,
          "time": 129.87209302325581,
          "velocity": 0.13385826771653545
        },
        {
          "duration": 0.05813953488373613,
          "durationTicks": 5,
          "midi": 64,
          "name": "E4",
          "ticks": 11170,
          "time": 129.88372093023256,
          "velocity": 0.2283464566929134
        },
        {
          "duration": 0.023255813953483084,
          "durationTicks": 2,
          "midi": 56,
          "name": "G#3",
          "ticks": 11172,
          "time": 129.90697674418604,
          "velocity": 0.2283464566929134
        },
        {
          "duration": 0.06976744186047767,
          "durationTicks": 6,
          "midi": 45,
          "name": "A2",
          "ticks": 11173,
          "time": 129.91860465116278,
          "velocity": 0.28346456692913385
        },
        {
          "duration": 0.12790697674418539,
          "durationTicks": 11,
          "midi": 55,
          "name": "G3",
          "ticks": 11174,
          "time": 129.93023255813952,
          "velocity": 0.30708661417322836
        },
        {
          "duration": 0.023255813953483084,
          "durationTicks": 2,
          "midi": 50,
          "name": "D3",
          "ticks": 11175,
          "time": 129.9418604651163,
          "velocity": 0.23622047244094488
        },
        {
          "duration": 0.11627906976744384,
          "durationTicks": 10,
          "midi": 64,
          "name": "E4",
          "ticks": 11176,
          "time": 129.95348837209303,
          "velocity": 0.2204724409448819
        },
        {
          "duration": 0.034883720930224626,
          "durationTicks": 3,
          "midi": 45,
          "name": "A2",
          "ticks": 11180,
          "time": 130,
          "velocity": 0.29133858267716534
        },
        {
          "duration": 0.034883720930224626,
          "durationTicks": 3,
          "midi": 44,
          "name": "G#2",
          "ticks": 11186,
          "time": 130.06976744186048,
          "velocity": 0.2047244094488189
        },
        {
          "duration": 0.33720930232556157,
          "durationTicks": 29,
          "midi": 67,
          "name": "G4",
          "ticks": 11186,
          "time": 130.06976744186048,
          "velocity": 0.15748031496062992
        },
        {
          "duration": 0.023255813953483084,
          "durationTicks": 2,
          "midi": 54,
          "name": "F#3",
          "ticks": 11187,
          "time": 130.08139534883722,
          "velocity": 0.2992125984251969
        },
        {
          "duration": 0.2906976744185954,
          "durationTicks": 25,
          "midi": 60,
          "name": "C4",
          "ticks": 11188,
          "time": 130.09302325581396,
          "velocity": 0.2283464566929134
        },
        {
          "duration": 0.09302325581396076,
          "durationTicks": 8,
          "midi": 55,
          "name": "G3",
          "ticks": 11189,
          "time": 130.1046511627907,
          "velocity": 0.4251968503937008
        },
        {
          "duration": 0.2674418604651123,
          "durationTicks": 23,
          "midi": 64,
          "name": "E4",
          "ticks": 11192,
          "time": 130.13953488372093,
          "velocity": 0.2047244094488189
        },
        {
          "duration": 0.04651162790696617,
          "durationTicks": 4,
          "midi": 55,
          "name": "G3",
          "ticks": 11198,
          "time": 130.2093023255814,
          "velocity": 0.3858267716535433
        },
        {
          "duration": 0.023255813953483084,
          "durationTicks": 2,
          "midi": 55,
          "name": "G3",
          "ticks": 11203,
          "time": 130.2674418604651,
          "velocity": 0.3228346456692913
        },
        {
          "duration": 0.03488372093025305,
          "durationTicks": 3,
          "midi": 55,
          "name": "G3",
          "ticks": 11206,
          "time": 130.30232558139534,
          "velocity": 0.31496062992125984
        },
        {
          "duration": 0.1046511627907023,
          "durationTicks": 9,
          "midi": 71,
          "name": "B4",
          "ticks": 11206,
          "time": 130.30232558139534,
          "velocity": 0.11023622047244094
        },
        {
          "duration": 0.05813953488370771,
          "durationTicks": 5,
          "midi": 55,
          "name": "G3",
          "ticks": 11212,
          "time": 130.37209302325581,
          "velocity": 0.3700787401574803
        },
        {
          "duration": 0.12790697674418539,
          "durationTicks": 11,
          "midi": 74,
          "name": "D5",
          "ticks": 11214,
          "time": 130.3953488372093,
          "velocity": 0.11811023622047244
        },
        {
          "duration": 0.023255813953511506,
          "durationTicks": 2,
          "midi": 54,
          "name": "F#3",
          "ticks": 11217,
          "time": 130.43023255813952,
          "velocity": 0.3543307086614173
        },
        {
          "duration": 0.04651162790696617,
          "durationTicks": 4,
          "midi": 72,
          "name": "C5",
          "ticks": 11218,
          "time": 130.4418604651163,
          "velocity": 0.07086614173228346
        },
        {
          "duration": 0.04651162790696617,
          "durationTicks": 4,
          "midi": 55,
          "name": "G3",
          "ticks": 11220,
          "time": 130.46511627906978,
          "velocity": 0.33858267716535434
        },
        {
          "duration": 0.034883720930224626,
          "durationTicks": 3,
          "midi": 62,
          "name": "D4",
          "ticks": 11220,
          "time": 130.46511627906978,
          "velocity": 0.28346456692913385
        },
        {
          "duration": 0.05813953488373613,
          "durationTicks": 5,
          "midi": 62,
          "name": "D4",
          "ticks": 11225,
          "time": 130.52325581395348,
          "velocity": 0.2283464566929134
        },
        {
          "duration": 0.023255813953483084,
          "durationTicks": 2,
          "midi": 54,
          "name": "F#3",
          "ticks": 11226,
          "time": 130.53488372093022,
          "velocity": 0.33858267716535434
        },
        {
          "duration": 0.08139534883721922,
          "durationTicks": 7,
          "midi": 55,
          "name": "G3",
          "ticks": 11228,
          "time": 130.5581395348837,
          "velocity": 0.3858267716535433
        },
        {
          "duration": 0.034883720930224626,
          "durationTicks": 3,
          "midi": 56,
          "name": "G#3",
          "ticks": 11235,
          "time": 130.63953488372093,
          "velocity": 0.2047244094488189
        },
        {
          "duration": 0.06976744186047767,
          "durationTicks": 6,
          "midi": 55,
          "name": "G3",
          "ticks": 11238,
          "time": 130.67441860465115,
          "velocity": 0.28346456692913385
        },
        {
          "duration": 0.034883720930224626,
          "durationTicks": 3,
          "midi": 61,
          "name": "C#4",
          "ticks": 11244,
          "time": 130.74418604651163,
          "velocity": 0.14960629921259844
        },
        {
          "duration": 0.09302325581396076,
          "durationTicks": 8,
          "midi": 55,
          "name": "G3",
          "ticks": 11245,
          "time": 130.75581395348837,
          "velocity": 0.4330708661417323
        },
        {
          "duration": 0.22093023255814614,
          "durationTicks": 19,
          "midi": 64,
          "name": "E4",
          "ticks": 11246,
          "time": 130.7674418604651,
          "velocity": 0.2204724409448819
        },
        {
          "duration": 0.05813953488373613,
          "durationTicks": 5,
          "midi": 60,
          "name": "C4",
          "ticks": 11247,
          "time": 130.77906976744185,
          "velocity": 0.1732283464566929
        },
        {
          "duration": 0.034883720930224626,
          "durationTicks": 3,
          "midi": 60,
          "name": "C4",
          "ticks": 11254,
          "time": 130.86046511627907,
          "velocity": 0.14173228346456693
        },
        {
          "duration": 0.04651162790699459,
          "durationTicks": 4,
          "midi": 55,
          "name": "G3",
          "ticks": 11257,
          "time": 130.8953488372093,
          "velocity": 0.2125984251968504
        },
        {
          "duration": 0.034883720930224626,
          "durationTicks": 3,
          "midi": 54,
          "name": "F#3",
          "ticks": 11265,
          "time": 130.98837209302326,
          "velocity": 0.29133858267716534
        },
        {
          "duration": 0.05813953488373613,
          "durationTicks": 5,
          "midi": 65,
          "name": "F4",
          "ticks": 11267,
          "time": 131.01162790697674,
          "velocity": 0.2125984251968504
        },
        {
          "duration": 0.023255813953483084,
          "durationTicks": 2,
          "midi": 53,
          "name": "F3",
          "ticks": 11268,
          "time": 131.02325581395348,
          "velocity": 0.2677165354330709
        },
        {
          "duration": 0.4186046511628092,
          "durationTicks": 36,
          "midi": 71,
          "name": "B4",
          "ticks": 11268,
          "time": 131.02325581395348,
          "velocity": 0.14173228346456693
        },
        {
          "duration": 0.05813953488373613,
          "durationTicks": 5,
          "midi": 54,
          "name": "F#3",
          "ticks": 11270,
          "time": 131.04651162790697,
          "velocity": 0.33858267716535434
        },
        {
          "duration": 0.034883720930224626,
          "durationTicks": 3,
          "midi": 59,
          "name": "B3",
          "ticks": 11272,
          "time": 131.06976744186048,
          "velocity": 0.1968503937007874
        },
        {
          "duration": 0.3604651162790731,
          "durationTicks": 31,
          "midi": 47,
          "name": "B2",
          "ticks": 11276,
          "time": 131.11627906976744,
          "velocity": 0.13385826771653545
        },
        {
          "duration": 0.04651162790696617,
          "durationTicks": 4,
          "midi": 54,
          "name": "F#3",
          "ticks": 11277,
          "time": 131.12790697674419,
          "velocity": 0.11811023622047244
        },
        {
          "duration": 0.32558139534884845,
          "durationTicks": 28,
          "midi": 59,
          "name": "B3",
          "ticks": 11278,
          "time": 131.13953488372093,
          "velocity": 0.25196850393700787
        },
        {
          "duration": 0.05813953488373613,
          "durationTicks": 5,
          "midi": 54,
          "name": "F#3",
          "ticks": 11282,
          "time": 131.1860465116279,
          "velocity": 0.08661417322834646
        },
        {
          "duration": 0.023255813953483084,
          "durationTicks": 2,
          "midi": 53,
          "name": "F3",
          "ticks": 11306,
          "time": 131.46511627906978,
          "velocity": 0.2677165354330709
        },
        {
          "duration": 0.023255813953483084,
          "durationTicks": 2,
          "midi": 60,
          "name": "C4",
          "ticks": 11306,
          "time": 131.46511627906978,
          "velocity": 0.31496062992125984
        },
        {
          "duration": 0.15116279069766847,
          "durationTicks": 13,
          "midi": 71,
          "name": "B4",
          "ticks": 11307,
          "time": 131.47674418604652,
          "velocity": 0.15748031496062992
        },
        {
          "duration": 0.19767441860463464,
          "durationTicks": 17,
          "midi": 54,
          "name": "F#3",
          "ticks": 11308,
          "time": 131.48837209302326,
          "velocity": 0.3937007874015748
        },
        {
          "duration": 0.19767441860463464,
          "durationTicks": 17,
          "midi": 59,
          "name": "B3",
          "ticks": 11308,
          "time": 131.48837209302326,
          "velocity": 0.2992125984251969
        },
        {
          "duration": 0.17441860465115155,
          "durationTicks": 15,
          "midi": 47,
          "name": "B2",
          "ticks": 11310,
          "time": 131.51162790697674,
          "velocity": 0.14960629921259844
        },
        {
          "duration": 0.03488372093025305,
          "durationTicks": 3,
          "midi": 60,
          "name": "C4",
          "ticks": 11325,
          "time": 131.6860465116279,
          "velocity": 0.2125984251968504
        },
        {
          "duration": 0.034883720930224626,
          "durationTicks": 3,
          "midi": 55,
          "name": "G3",
          "ticks": 11328,
          "time": 131.72093023255815,
          "velocity": 0.3228346456692913
        },
        {
          "duration": 0.19767441860463464,
          "durationTicks": 17,
          "midi": 64,
          "name": "E4",
          "ticks": 11328,
          "time": 131.72093023255815,
          "velocity": 0.2125984251968504
        },
        {
          "duration": 0.023255813953483084,
          "durationTicks": 2,
          "midi": 44,
          "name": "G#2",
          "ticks": 11329,
          "time": 131.7325581395349,
          "velocity": 0.29133858267716534
        },
        {
          "duration": 0.17441860465115155,
          "durationTicks": 15,
          "midi": 59,
          "name": "B3",
          "ticks": 11329,
          "time": 131.7325581395349,
          "velocity": 0.1968503937007874
        },
        {
          "duration": 0.08139534883721922,
          "durationTicks": 7,
          "midi": 45,
          "name": "A2",
          "ticks": 11331,
          "time": 131.75581395348837,
          "velocity": 0.33070866141732286
        },
        {
          "duration": 0.03488372093025305,
          "durationTicks": 3,
          "midi": 52,
          "name": "E3",
          "ticks": 11335,
          "time": 131.80232558139534,
          "velocity": 0.2204724409448819
        },
        {
          "duration": 0.03488372093025305,
          "durationTicks": 3,
          "midi": 60,
          "name": "C4",
          "ticks": 11345,
          "time": 131.91860465116278,
          "velocity": 0.25196850393700787
        },
        {
          "duration": 0.03488372093025305,
          "durationTicks": 3,
          "midi": 65,
          "name": "F4",
          "ticks": 11345,
          "time": 131.91860465116278,
          "velocity": 0.23622047244094488
        },
        {
          "duration": 0.023255813953511506,
          "durationTicks": 2,
          "midi": 55,
          "name": "G3",
          "ticks": 11346,
          "time": 131.93023255813952,
          "velocity": 0.28346456692913385
        },
        {
          "duration": 0.05813953488370771,
          "durationTicks": 5,
          "midi": 59,
          "name": "B3",
          "ticks": 11348,
          "time": 131.95348837209303,
          "velocity": 0.2992125984251969
        },
        {
          "duration": 0.09302325581393234,
          "durationTicks": 8,
          "midi": 78,
          "name": "F#5",
          "ticks": 11348,
          "time": 131.95348837209303,
          "velocity": 0.07874015748031496
        },
        {
          "duration": 0.2906976744185954,
          "durationTicks": 25,
          "midi": 55,
          "name": "G3",
          "ticks": 11350,
          "time": 131.97674418604652,
          "velocity": 0.4251968503937008
        },
        {
          "duration": 0.40697674418603924,
          "durationTicks": 35,
          "midi": 64,
          "name": "E4",
          "ticks": 11351,
          "time": 131.98837209302326,
          "velocity": 0.3228346456692913
        },
        {
          "duration": 0.034883720930224626,
          "durationTicks": 3,
          "midi": 59,
          "name": "B3",
          "ticks": 11354,
          "time": 132.02325581395348,
          "velocity": 0.1732283464566929
        },
        {
          "duration": 0.25581395348837077,
          "durationTicks": 22,
          "midi": 59,
          "name": "B3",
          "ticks": 11361,
          "time": 132.1046511627907,
          "velocity": 0.2283464566929134
        },
        {
          "duration": 0.1046511627907023,
          "durationTicks": 9,
          "midi": 78,
          "name": "F#5",
          "ticks": 11365,
          "time": 132.15116279069767,
          "velocity": 0.11023622047244094
        },
        {
          "duration": 0.06976744186047767,
          "durationTicks": 6,
          "midi": 47,
          "name": "B2",
          "ticks": 11375,
          "time": 132.2674418604651,
          "velocity": 0.12598425196850394
        },
        {
          "duration": 0.04651162790696617,
          "durationTicks": 4,
          "midi": 54,
          "name": "F#3",
          "ticks": 11385,
          "time": 132.38372093023256,
          "velocity": 0.4330708661417323
        },
        {
          "duration": 0.04651162790696617,
          "durationTicks": 4,
          "midi": 72,
          "name": "C5",
          "ticks": 11385,
          "time": 132.38372093023256,
          "velocity": 0.18110236220472442
        },
        {
          "duration": 0.05813953488373613,
          "durationTicks": 5,
          "midi": 60,
          "name": "C4",
          "ticks": 11386,
          "time": 132.3953488372093,
          "velocity": 0.2125984251968504
        },
        {
          "duration": 0.05813953488373613,
          "durationTicks": 5,
          "midi": 44,
          "name": "G#2",
          "ticks": 11387,
          "time": 132.40697674418604,
          "velocity": 0.1968503937007874
        },
        {
          "duration": 0.06976744186047767,
          "durationTicks": 6,
          "midi": 55,
          "name": "G3",
          "ticks": 11389,
          "time": 132.43023255813952,
          "velocity": 0.4330708661417323
        },
        {
          "duration": 0.04651162790696617,
          "durationTicks": 4,
          "midi": 54,
          "name": "F#3",
          "ticks": 11395,
          "time": 132.5,
          "velocity": 0.10236220472440945
        },
        {
          "duration": 0.13953488372092693,
          "durationTicks": 12,
          "midi": 55,
          "name": "G3",
          "ticks": 11405,
          "time": 132.61627906976744,
          "velocity": 0.4015748031496063
        },
        {
          "duration": 0.034883720930224626,
          "durationTicks": 3,
          "midi": 60,
          "name": "C4",
          "ticks": 11406,
          "time": 132.62790697674419,
          "velocity": 0.2283464566929134
        },
        {
          "duration": 0.13953488372092693,
          "durationTicks": 12,
          "midi": 64,
          "name": "E4",
          "ticks": 11406,
          "time": 132.62790697674419,
          "velocity": 0.14960629921259844
        },
        {
          "duration": 0.12790697674418539,
          "durationTicks": 11,
          "midi": 71,
          "name": "B4",
          "ticks": 11408,
          "time": 132.65116279069767,
          "velocity": 0.11023622047244094
        },
        {
          "duration": 0.08139534883721922,
          "durationTicks": 7,
          "midi": 55,
          "name": "G3",
          "ticks": 11418,
          "time": 132.7674418604651,
          "velocity": 0.29133858267716534
        },
        {
          "duration": 0.034883720930224626,
          "durationTicks": 3,
          "midi": 55,
          "name": "G3",
          "ticks": 11426,
          "time": 132.86046511627907,
          "velocity": 0.3228346456692913
        },
        {
          "duration": 0.24418604651162923,
          "durationTicks": 21,
          "midi": 62,
          "name": "D4",
          "ticks": 11428,
          "time": 132.88372093023256,
          "velocity": 0.25196850393700787
        },
        {
          "duration": 0.023255813953483084,
          "durationTicks": 2,
          "midi": 54,
          "name": "F#3",
          "ticks": 11429,
          "time": 132.8953488372093,
          "velocity": 0.3700787401574803
        },
        {
          "duration": 0.06976744186047767,
          "durationTicks": 6,
          "midi": 55,
          "name": "G3",
          "ticks": 11431,
          "time": 132.91860465116278,
          "velocity": 0.3937007874015748
        },
        {
          "duration": 0.023255813953483084,
          "durationTicks": 2,
          "midi": 44,
          "name": "G#2",
          "ticks": 11437,
          "time": 132.98837209302326,
          "velocity": 0.2677165354330709
        },
        {
          "duration": 0.023255813953483084,
          "durationTicks": 2,
          "midi": 54,
          "name": "F#3",
          "ticks": 11439,
          "time": 133.01162790697674,
          "velocity": 0.2755905511811024
        },
        {
          "duration": 0.1046511627907023,
          "durationTicks": 9,
          "midi": 55,
          "name": "G3",
          "ticks": 11441,
          "time": 133.03488372093022,
          "velocity": 0.33858267716535434
        },
        {
          "duration": 0.023255813953483084,
          "durationTicks": 2,
          "midi": 56,
          "name": "G#3",
          "ticks": 11450,
          "time": 133.13953488372093,
          "velocity": 0.2755905511811024
        },
        {
          "duration": 0.023255813953483084,
          "durationTicks": 2,
          "midi": 55,
          "name": "G3",
          "ticks": 11452,
          "time": 133.1627906976744,
          "velocity": 0.2440944881889764
        },
        {
          "duration": 0.03488372093025305,
          "durationTicks": 3,
          "midi": 69,
          "name": "A4",
          "ticks": 11453,
          "time": 133.17441860465115,
          "velocity": 0.11811023622047244
        },
        {
          "duration": 0.023255813953511506,
          "durationTicks": 2,
          "midi": 56,
          "name": "G#3",
          "ticks": 11454,
          "time": 133.1860465116279,
          "velocity": 0.30708661417322836
        },
        {
          "duration": 0.04651162790696617,
          "durationTicks": 4,
          "midi": 71,
          "name": "B4",
          "ticks": 11455,
          "time": 133.19767441860466,
          "velocity": 0.07086614173228346
        },
        {
          "duration": 0.09302325581393234,
          "durationTicks": 8,
          "midi": 55,
          "name": "G3",
          "ticks": 11456,
          "time": 133.2093023255814,
          "velocity": 0.41732283464566927
        },
        {
          "duration": 0.13953488372092693,
          "durationTicks": 12,
          "midi": 64,
          "name": "E4",
          "ticks": 11456,
          "time": 133.2093023255814,
          "velocity": 0.1889763779527559
        },
        {
          "duration": 0.09302325581396076,
          "durationTicks": 8,
          "midi": 71,
          "name": "B4",
          "ticks": 11461,
          "time": 133.2674418604651,
          "velocity": 0.18110236220472442
        },
        {
          "duration": 0.16279069767441,
          "durationTicks": 14,
          "midi": 55,
          "name": "G3",
          "ticks": 11465,
          "time": 133.3139534883721,
          "velocity": 0.2992125984251969
        },
        {
          "duration": 0.16279069767441,
          "durationTicks": 14,
          "midi": 45,
          "name": "A2",
          "ticks": 11470,
          "time": 133.37209302325581,
          "velocity": 0.28346456692913385
        },
        {
          "duration": 0.05813953488373613,
          "durationTicks": 5,
          "midi": 65,
          "name": "F4",
          "ticks": 11482,
          "time": 133.51162790697674,
          "velocity": 0.28346456692913385
        },
        {
          "duration": 0.11627906976744384,
          "durationTicks": 10,
          "midi": 69,
          "name": "A4",
          "ticks": 11482,
          "time": 133.51162790697674,
          "velocity": 0.2283464566929134
        },
        {
          "duration": 0.05813953488373613,
          "durationTicks": 5,
          "midi": 57,
          "name": "A3",
          "ticks": 11485,
          "time": 133.54651162790697,
          "velocity": 0.23622047244094488
        },
        {
          "duration": 0.06976744186044925,
          "durationTicks": 6,
          "midi": 45,
          "name": "A2",
          "ticks": 11487,
          "time": 133.56976744186048,
          "velocity": 0.29133858267716534
        },
        {
          "duration": 0.04651162790696617,
          "durationTicks": 4,
          "midi": 64,
          "name": "E4",
          "ticks": 11487,
          "time": 133.56976744186048,
          "velocity": 0.31496062992125984
        },
        {
          "duration": 0.05813953488370771,
          "durationTicks": 5,
          "midi": 74,
          "name": "D5",
          "ticks": 11488,
          "time": 133.58139534883722,
          "velocity": 0.09448818897637795
        },
        {
          "duration": 0.04651162790696617,
          "durationTicks": 4,
          "midi": 62,
          "name": "D4",
          "ticks": 11490,
          "time": 133.6046511627907,
          "velocity": 0.2677165354330709
        },
        {
          "duration": 0.12790697674418539,
          "durationTicks": 11,
          "midi": 64,
          "name": "E4",
          "ticks": 11493,
          "time": 133.63953488372093,
          "velocity": 0.2204724409448819
        },
        {
          "duration": 0.16279069767443843,
          "durationTicks": 14,
          "midi": 55,
          "name": "G3",
          "ticks": 11494,
          "time": 133.65116279069767,
          "velocity": 0.3543307086614173
        },
        {
          "duration": 0.05813953488370771,
          "durationTicks": 5,
          "midi": 45,
          "name": "A2",
          "ticks": 11499,
          "time": 133.7093023255814,
          "velocity": 0.2440944881889764
        },
        {
          "duration": 0.6511627906976969,
          "durationTicks": 56,
          "midi": 72,
          "name": "C5",
          "ticks": 11507,
          "time": 133.80232558139534,
          "velocity": 0.2204724409448819
        },
        {
          "duration": 0.023255813953483084,
          "durationTicks": 2,
          "midi": 54,
          "name": "F#3",
          "ticks": 11508,
          "time": 133.8139534883721,
          "velocity": 0.3937007874015748
        },
        {
          "duration": 0.0813953488371908,
          "durationTicks": 7,
          "midi": 55,
          "name": "G3",
          "ticks": 11510,
          "time": 133.8372093023256,
          "velocity": 0.41732283464566927
        },
        {
          "duration": 0.04651162790696617,
          "durationTicks": 4,
          "midi": 76,
          "name": "E5",
          "ticks": 11514,
          "time": 133.88372093023256,
          "velocity": 0.07086614173228346
        },
        {
          "duration": 0.3604651162790731,
          "durationTicks": 31,
          "midi": 60,
          "name": "C4",
          "ticks": 11517,
          "time": 133.91860465116278,
          "velocity": 0.28346456692913385
        },
        {
          "duration": 0.08139534883721922,
          "durationTicks": 7,
          "midi": 55,
          "name": "G3",
          "ticks": 11518,
          "time": 133.93023255813952,
          "velocity": 0.3858267716535433
        },
        {
          "duration": 0.34883720930233153,
          "durationTicks": 30,
          "midi": 64,
          "name": "E4",
          "ticks": 11518,
          "time": 133.93023255813952,
          "velocity": 0.2047244094488189
        },
        {
          "duration": 0.023255813953483084,
          "durationTicks": 2,
          "midi": 55,
          "name": "G3",
          "ticks": 11526,
          "time": 134.02325581395348,
          "velocity": 0.2677165354330709
        },
        {
          "duration": 0.023255813953483084,
          "durationTicks": 2,
          "midi": 53,
          "name": "F3",
          "ticks": 11531,
          "time": 134.08139534883722,
          "velocity": 0.2677165354330709
        },
        {
          "duration": 0.09302325581396076,
          "durationTicks": 8,
          "midi": 52,
          "name": "E3",
          "ticks": 11535,
          "time": 134.12790697674419,
          "velocity": 0.25196850393700787
        },
        {
          "duration": 0.034883720930224626,
          "durationTicks": 3,
          "midi": 52,
          "name": "E3",
          "ticks": 11544,
          "time": 134.2325581395349,
          "velocity": 0.2283464566929134
        },
        {
          "duration": 0.023255813953483084,
          "durationTicks": 2,
          "midi": 53,
          "name": "F3",
          "ticks": 11547,
          "time": 134.2674418604651,
          "velocity": 0.23622047244094488
        },
        {
          "duration": 0.24418604651162923,
          "durationTicks": 21,
          "midi": 64,
          "name": "E4",
          "ticks": 11549,
          "time": 134.2906976744186,
          "velocity": 0.1889763779527559
        },
        {
          "duration": 0.023255813953511506,
          "durationTicks": 2,
          "midi": 56,
          "name": "G#3",
          "ticks": 11550,
          "time": 134.30232558139534,
          "velocity": 0.33070866141732286
        },
        {
          "duration": 0.1860465116278931,
          "durationTicks": 16,
          "midi": 55,
          "name": "G3",
          "ticks": 11552,
          "time": 134.32558139534885,
          "velocity": 0.4251968503937008
        },
        {
          "duration": 0.16279069767441,
          "durationTicks": 14,
          "midi": 60,
          "name": "C4",
          "ticks": 11553,
          "time": 134.3372093023256,
          "velocity": 0.25984251968503935
        },
        {
          "duration": 0.034883720930224626,
          "durationTicks": 3,
          "midi": 43,
          "name": "G2",
          "ticks": 11567,
          "time": 134.5,
          "velocity": 0.14173228346456693
        },
        {
          "duration": 0.06976744186047767,
          "durationTicks": 6,
          "midi": 62,
          "name": "D4",
          "ticks": 11569,
          "time": 134.52325581395348,
          "velocity": 0.1732283464566929
        },
        {
          "duration": 0.04651162790699459,
          "durationTicks": 4,
          "midi": 44,
          "name": "G#2",
          "ticks": 11570,
          "time": 134.53488372093022,
          "velocity": 0.2677165354330709
        },
        {
          "duration": 0.13953488372092693,
          "durationTicks": 12,
          "midi": 55,
          "name": "G3",
          "ticks": 11570,
          "time": 134.53488372093022,
          "velocity": 0.4409448818897638
        },
        {
          "duration": 0.05813953488370771,
          "durationTicks": 5,
          "midi": 45,
          "name": "A2",
          "ticks": 11574,
          "time": 134.58139534883722,
          "velocity": 0.25196850393700787
        },
        {
          "duration": 0.023255813953483084,
          "durationTicks": 2,
          "midi": 53,
          "name": "F3",
          "ticks": 11587,
          "time": 134.7325581395349,
          "velocity": 0.25196850393700787
        },
        {
          "duration": 0.2093023255814046,
          "durationTicks": 18,
          "midi": 71,
          "name": "B4",
          "ticks": 11588,
          "time": 134.74418604651163,
          "velocity": 0.14960629921259844
        },
        {
          "duration": 0.34883720930233153,
          "durationTicks": 30,
          "midi": 54,
          "name": "F#3",
          "ticks": 11589,
          "time": 134.75581395348837,
          "velocity": 0.41732283464566927
        },
        {
          "duration": 0.4302325581395223,
          "durationTicks": 37,
          "midi": 59,
          "name": "B3",
          "ticks": 11589,
          "time": 134.75581395348837,
          "velocity": 0.28346456692913385
        },
        {
          "duration": 0.22093023255811772,
          "durationTicks": 19,
          "midi": 78,
          "name": "F#5",
          "ticks": 11595,
          "time": 134.82558139534885,
          "velocity": 0.07874015748031496
        },
        {
          "duration": 0.33720930232556157,
          "durationTicks": 29,
          "midi": 47,
          "name": "B2",
          "ticks": 11597,
          "time": 134.84883720930233,
          "velocity": 0.18110236220472442
        },
        {
          "duration": 0.023255813953511506,
          "durationTicks": 2,
          "midi": 56,
          "name": "G#3",
          "ticks": 11626,
          "time": 135.1860465116279,
          "velocity": 0.2755905511811024
        },
        {
          "duration": 0.19767441860463464,
          "durationTicks": 17,
          "midi": 59,
          "name": "B3",
          "ticks": 11628,
          "time": 135.2093023255814,
          "velocity": 0.28346456692913385
        },
        {
          "duration": 0.19767441860463464,
          "durationTicks": 17,
          "midi": 47,
          "name": "B2",
          "ticks": 11629,
          "time": 135.22093023255815,
          "velocity": 0.14173228346456693
        },
        {
          "duration": 0.1860465116278931,
          "durationTicks": 16,
          "midi": 54,
          "name": "F#3",
          "ticks": 11629,
          "time": 135.22093023255815,
          "velocity": 0.33858267716535434
        },
        {
          "duration": 0.06976744186047767,
          "durationTicks": 6,
          "midi": 78,
          "name": "F#5",
          "ticks": 11642,
          "time": 135.37209302325581,
          "velocity": 0.11811023622047244
        },
        {
          "duration": 0.03488372093025305,
          "durationTicks": 3,
          "midi": 60,
          "name": "C4",
          "ticks": 11645,
          "time": 135.40697674418604,
          "velocity": 0.16535433070866143
        },
        {
          "duration": 0.03488372093025305,
          "durationTicks": 3,
          "midi": 71,
          "name": "B4",
          "ticks": 11647,
          "time": 135.43023255813952,
          "velocity": 0.11023622047244094
        },
        {
          "duration": 0.023255813953483084,
          "durationTicks": 2,
          "midi": 56,
          "name": "G#3",
          "ticks": 11648,
          "time": 135.4418604651163,
          "velocity": 0.29133858267716534
        },
        {
          "duration": 0.023255813953483084,
          "durationTicks": 2,
          "midi": 44,
          "name": "G#2",
          "ticks": 11649,
          "time": 135.45348837209303,
          "velocity": 0.30708661417322836
        },
        {
          "duration": 0.034883720930224626,
          "durationTicks": 3,
          "midi": 55,
          "name": "G3",
          "ticks": 11650,
          "time": 135.46511627906978,
          "velocity": 0.23622047244094488
        },
        {
          "duration": 0.06976744186044925,
          "durationTicks": 6,
          "midi": 45,
          "name": "A2",
          "ticks": 11651,
          "time": 135.47674418604652,
          "velocity": 0.2992125984251969
        },
        {
          "duration": 0.05813953488370771,
          "durationTicks": 5,
          "midi": 54,
          "name": "F#3",
          "ticks": 11653,
          "time": 135.5,
          "velocity": 0.3228346456692913
        },
        {
          "duration": 0.06976744186047767,
          "durationTicks": 6,
          "midi": 71,
          "name": "B4",
          "ticks": 11657,
          "time": 135.54651162790697,
          "velocity": 0.07086614173228346
        },
        {
          "duration": 0.03488372093025305,
          "durationTicks": 3,
          "midi": 45,
          "name": "A2",
          "ticks": 11658,
          "time": 135.5581395348837,
          "velocity": 0.1732283464566929
        },
        {
          "duration": 0.06976744186047767,
          "durationTicks": 6,
          "midi": 55,
          "name": "G3",
          "ticks": 11658,
          "time": 135.5581395348837,
          "velocity": 0.3700787401574803
        },
        {
          "duration": 0.04651162790696617,
          "durationTicks": 4,
          "midi": 54,
          "name": "F#3",
          "ticks": 11664,
          "time": 135.62790697674419,
          "velocity": 0.33070866141732286
        },
        {
          "duration": 0.034883720930224626,
          "durationTicks": 3,
          "midi": 69,
          "name": "A4",
          "ticks": 11664,
          "time": 135.62790697674419,
          "velocity": 0.12598425196850394
        },
        {
          "duration": 0.05813953488373613,
          "durationTicks": 5,
          "midi": 60,
          "name": "C4",
          "ticks": 11666,
          "time": 135.65116279069767,
          "velocity": 0.1732283464566929
        },
        {
          "duration": 0.06976744186047767,
          "durationTicks": 6,
          "midi": 64,
          "name": "E4",
          "ticks": 11667,
          "time": 135.6627906976744,
          "velocity": 0.2125984251968504
        },
        {
          "duration": 0.11627906976744384,
          "durationTicks": 10,
          "midi": 55,
          "name": "G3",
          "ticks": 11668,
          "time": 135.67441860465115,
          "velocity": 0.4015748031496063
        },
        {
          "duration": 0.38372093023255616,
          "durationTicks": 33,
          "midi": 71,
          "name": "B4",
          "ticks": 11670,
          "time": 135.69767441860466,
          "velocity": 0.25984251968503935
        },
        {
          "duration": 0.27906976744185386,
          "durationTicks": 24,
          "midi": 59,
          "name": "B3",
          "ticks": 11671,
          "time": 135.7093023255814,
          "velocity": 0.23622047244094488
        },
        {
          "duration": 0.13953488372092693,
          "durationTicks": 12,
          "midi": 78,
          "name": "F#5",
          "ticks": 11675,
          "time": 135.75581395348837,
          "velocity": 0.11811023622047244
        },
        {
          "duration": 0.023255813953483084,
          "durationTicks": 2,
          "midi": 55,
          "name": "G3",
          "ticks": 11681,
          "time": 135.82558139534885,
          "velocity": 0.25196850393700787
        },
        {
          "duration": 0.16279069767441,
          "durationTicks": 14,
          "midi": 64,
          "name": "E4",
          "ticks": 11683,
          "time": 135.84883720930233,
          "velocity": 0.15748031496062992
        },
        {
          "duration": 0.034883720930224626,
          "durationTicks": 3,
          "midi": 55,
          "name": "G3",
          "ticks": 11684,
          "time": 135.86046511627907,
          "velocity": 0.2755905511811024
        },
        {
          "duration": 0.05813953488370771,
          "durationTicks": 5,
          "midi": 95,
          "name": "B6",
          "ticks": 11685,
          "time": 135.87209302325581,
          "velocity": 0.07874015748031496
        },
        {
          "duration": 0.023255813953483084,
          "durationTicks": 2,
          "midi": 53,
          "name": "F3",
          "ticks": 11687,
          "time": 135.8953488372093,
          "velocity": 0.2283464566929134
        },
        {
          "duration": 0.17441860465115155,
          "durationTicks": 15,
          "midi": 52,
          "name": "E3",
          "ticks": 11691,
          "time": 135.9418604651163,
          "velocity": 0.25196850393700787
        },
        {
          "duration": 0.034883720930224626,
          "durationTicks": 3,
          "midi": 67,
          "name": "G4",
          "ticks": 11691,
          "time": 135.9418604651163,
          "velocity": 0.16535433070866143
        },
        {
          "duration": 0.05813953488373613,
          "durationTicks": 5,
          "midi": 68,
          "name": "G#4",
          "ticks": 11697,
          "time": 136.01162790697674,
          "velocity": 0.1889763779527559
        },
        {
          "duration": 0.034883720930224626,
          "durationTicks": 3,
          "midi": 68,
          "name": "G#4",
          "ticks": 11704,
          "time": 136.09302325581396,
          "velocity": 0.18110236220472442
        },
        {
          "duration": 0.034883720930224626,
          "durationTicks": 3,
          "midi": 65,
          "name": "F4",
          "ticks": 11706,
          "time": 136.11627906976744,
          "velocity": 0.2047244094488189
        },
        {
          "duration": 0.04651162790699459,
          "durationTicks": 4,
          "midi": 45,
          "name": "A2",
          "ticks": 11709,
          "time": 136.15116279069767,
          "velocity": 0.23622047244094488
        },
        {
          "duration": 0.09302325581396076,
          "durationTicks": 8,
          "midi": 67,
          "name": "G4",
          "ticks": 11709,
          "time": 136.15116279069767,
          "velocity": 0.09448818897637795
        },
        {
          "duration": 0.09302325581396076,
          "durationTicks": 8,
          "midi": 55,
          "name": "G3",
          "ticks": 11711,
          "time": 136.17441860465115,
          "velocity": 0.2677165354330709
        },
        {
          "duration": 0.034883720930224626,
          "durationTicks": 3,
          "midi": 67,
          "name": "G4",
          "ticks": 11726,
          "time": 136.34883720930233,
          "velocity": 0.15748031496062992
        },
        {
          "duration": 0.15116279069766847,
          "durationTicks": 13,
          "midi": 55,
          "name": "G3",
          "ticks": 11728,
          "time": 136.37209302325581,
          "velocity": 0.4330708661417323
        },
        {
          "duration": 0.11627906976744384,
          "durationTicks": 10,
          "midi": 76,
          "name": "E5",
          "ticks": 11728,
          "time": 136.37209302325581,
          "velocity": 0.10236220472440945
        },
        {
          "duration": 0.034883720930224626,
          "durationTicks": 3,
          "midi": 71,
          "name": "B4",
          "ticks": 11729,
          "time": 136.38372093023256,
          "velocity": 0.09448818897637795
        },
        {
          "duration": 0.10465116279067388,
          "durationTicks": 9,
          "midi": 71,
          "name": "B4",
          "ticks": 11735,
          "time": 136.45348837209303,
          "velocity": 0.11023622047244094
        },
        {
          "duration": 0.11627906976744384,
          "durationTicks": 10,
          "midi": 64,
          "name": "E4",
          "ticks": 11736,
          "time": 136.46511627906978,
          "velocity": 0.2283464566929134
        },
        {
          "duration": 0.05813953488373613,
          "durationTicks": 5,
          "midi": 78,
          "name": "F#5",
          "ticks": 11740,
          "time": 136.51162790697674,
          "velocity": 0.07874015748031496
        },
        {
          "duration": 0.04651162790699459,
          "durationTicks": 4,
          "midi": 45,
          "name": "A2",
          "ticks": 11742,
          "time": 136.53488372093022,
          "velocity": 0.1968503937007874
        },
        {
          "duration": 0.023255813953483084,
          "durationTicks": 2,
          "midi": 55,
          "name": "G3",
          "ticks": 11742,
          "time": 136.53488372093022,
          "velocity": 0.2992125984251969
        },
        {
          "duration": 0.09302325581393234,
          "durationTicks": 8,
          "midi": 55,
          "name": "G3",
          "ticks": 11745,
          "time": 136.56976744186048,
          "velocity": 0.4094488188976378
        },
        {
          "duration": 0.023255813953483084,
          "durationTicks": 2,
          "midi": 63,
          "name": "D#4",
          "ticks": 11748,
          "time": 136.6046511627907,
          "velocity": 0.2283464566929134
        },
        {
          "duration": 0.09302325581396076,
          "durationTicks": 8,
          "midi": 62,
          "name": "D4",
          "ticks": 11750,
          "time": 136.62790697674419,
          "velocity": 0.2047244094488189
        },
        {
          "duration": 0.03488372093025305,
          "durationTicks": 3,
          "midi": 56,
          "name": "G#3",
          "ticks": 11753,
          "time": 136.6627906976744,
          "velocity": 0.33858267716535434
        },
        {
          "duration": 0.06976744186047767,
          "durationTicks": 6,
          "midi": 67,
          "name": "G4",
          "ticks": 11753,
          "time": 136.6627906976744,
          "velocity": 0.13385826771653545
        },
        {
          "duration": 0.03488372093025305,
          "durationTicks": 3,
          "midi": 44,
          "name": "G#2",
          "ticks": 11754,
          "time": 136.67441860465115,
          "velocity": 0.2755905511811024
        },
        {
          "duration": 0.10465116279067388,
          "durationTicks": 9,
          "midi": 55,
          "name": "G3",
          "ticks": 11756,
          "time": 136.69767441860466,
          "velocity": 0.4015748031496063
        },
        {
          "duration": 0.023255813953483084,
          "durationTicks": 2,
          "midi": 44,
          "name": "G#2",
          "ticks": 11758,
          "time": 136.72093023255815,
          "velocity": 0.2283464566929134
        },
        {
          "duration": 0.034883720930224626,
          "durationTicks": 3,
          "midi": 59,
          "name": "B3",
          "ticks": 11758,
          "time": 136.72093023255815,
          "velocity": 0.11811023622047244
        },
        {
          "duration": 0.06976744186047767,
          "durationTicks": 6,
          "midi": 62,
          "name": "D4",
          "ticks": 11764,
          "time": 136.7906976744186,
          "velocity": 0.16535433070866143
        },
        {
          "duration": 0.023255813953483084,
          "durationTicks": 2,
          "midi": 45,
          "name": "A2",
          "ticks": 11766,
          "time": 136.8139534883721,
          "velocity": 0.23622047244094488
        },
        {
          "duration": 0.05813953488370771,
          "durationTicks": 5,
          "midi": 50,
          "name": "D3",
          "ticks": 11766,
          "time": 136.8139534883721,
          "velocity": 0.2440944881889764
        },
        {
          "duration": 0.04651162790696617,
          "durationTicks": 4,
          "midi": 64,
          "name": "E4",
          "ticks": 11771,
          "time": 136.87209302325581,
          "velocity": 0.10236220472440945
        },
        {
          "duration": 0.023255813953483084,
          "durationTicks": 2,
          "midi": 56,
          "name": "G#3",
          "ticks": 11774,
          "time": 136.90697674418604,
          "velocity": 0.2440944881889764
        },
        {
          "duration": 0.023255813953511506,
          "durationTicks": 2,
          "midi": 53,
          "name": "F3",
          "ticks": 11776,
          "time": 136.93023255813952,
          "velocity": 0.25196850393700787
        },
        {
          "duration": 0.023255813953511506,
          "durationTicks": 2,
          "midi": 60,
          "name": "C4",
          "ticks": 11776,
          "time": 136.93023255813952,
          "velocity": 0.33070866141732286
        },
        {
          "duration": 0.2674418604651123,
          "durationTicks": 23,
          "midi": 55,
          "name": "G3",
          "ticks": 11778,
          "time": 136.95348837209303,
          "velocity": 0.4409448818897638
        },
        {
          "duration": 0.034883720930224626,
          "durationTicks": 3,
          "midi": 59,
          "name": "B3",
          "ticks": 11778,
          "time": 136.95348837209303,
          "velocity": 0.29133858267716534
        },
        {
          "duration": 0.1860465116278931,
          "durationTicks": 16,
          "midi": 64,
          "name": "E4",
          "ticks": 11778,
          "time": 136.95348837209303,
          "velocity": 0.16535433070866143
        },
        {
          "duration": 0.05813953488370771,
          "durationTicks": 5,
          "midi": 78,
          "name": "F#5",
          "ticks": 11778,
          "time": 136.95348837209303,
          "velocity": 0.10236220472440945
        },
        {
          "duration": 0.034883720930224626,
          "durationTicks": 3,
          "midi": 59,
          "name": "B3",
          "ticks": 11782,
          "time": 137,
          "velocity": 0.1968503937007874
        },
        {
          "duration": 0.16279069767441,
          "durationTicks": 14,
          "midi": 45,
          "name": "A2",
          "ticks": 11791,
          "time": 137.1046511627907,
          "velocity": 0.28346456692913385
        },
        {
          "duration": 0.034883720930224626,
          "durationTicks": 3,
          "midi": 55,
          "name": "G3",
          "ticks": 11804,
          "time": 137.25581395348837,
          "velocity": 0.2283464566929134
        },
        {
          "duration": 0.12790697674418539,
          "durationTicks": 11,
          "midi": 62,
          "name": "D4",
          "ticks": 11804,
          "time": 137.25581395348837,
          "velocity": 0.31496062992125984
        },
        {
          "duration": 0.023255813953483084,
          "durationTicks": 2,
          "midi": 44,
          "name": "G#2",
          "ticks": 11805,
          "time": 137.2674418604651,
          "velocity": 0.29133858267716534
        },
        {
          "duration": 0.023255813953483084,
          "durationTicks": 2,
          "midi": 64,
          "name": "E4",
          "ticks": 11805,
          "time": 137.2674418604651,
          "velocity": 0.23622047244094488
        },
        {
          "duration": 0.09302325581396076,
          "durationTicks": 8,
          "midi": 69,
          "name": "A4",
          "ticks": 11805,
          "time": 137.2674418604651,
          "velocity": 0.11023622047244094
        },
        {
          "duration": 0.08139534883721922,
          "durationTicks": 7,
          "midi": 45,
          "name": "A2",
          "ticks": 11807,
          "time": 137.2906976744186,
          "velocity": 0.2992125984251969
        },
        {
          "duration": 0.034883720930224626,
          "durationTicks": 3,
          "midi": 56,
          "name": "G#3",
          "ticks": 11812,
          "time": 137.34883720930233,
          "velocity": 0.25984251968503935
        },
        {
          "duration": 0.12790697674418539,
          "durationTicks": 11,
          "midi": 55,
          "name": "G3",
          "ticks": 11815,
          "time": 137.38372093023256,
          "velocity": 0.3464566929133858
        },
        {
          "duration": 0.09302325581396076,
          "durationTicks": 8,
          "midi": 64,
          "name": "E4",
          "ticks": 11815,
          "time": 137.38372093023256,
          "velocity": 0.2204724409448819
        },
        {
          "duration": 0.09302325581396076,
          "durationTicks": 8,
          "midi": 45,
          "name": "A2",
          "ticks": 11817,
          "time": 137.40697674418604,
          "velocity": 0.2755905511811024
        },
        {
          "duration": 0.034883720930224626,
          "durationTicks": 3,
          "midi": 44,
          "name": "G#2",
          "ticks": 11825,
          "time": 137.5,
          "velocity": 0.14173228346456693
        },
        {
          "duration": 0.30232558139536536,
          "durationTicks": 26,
          "midi": 60,
          "name": "C4",
          "ticks": 11827,
          "time": 137.52325581395348,
          "velocity": 0.31496062992125984
        },
        {
          "duration": 0.023255813953511506,
          "durationTicks": 2,
          "midi": 54,
          "name": "F#3",
          "ticks": 11829,
          "time": 137.54651162790697,
          "velocity": 0.33858267716535434
        },
        {
          "duration": 0.32558139534884845,
          "durationTicks": 28,
          "midi": 64,
          "name": "E4",
          "ticks": 11829,
          "time": 137.54651162790697,
          "velocity": 0.25984251968503935
        },
        {
          "duration": 0.3139534883721069,
          "durationTicks": 27,
          "midi": 67,
          "name": "G4",
          "ticks": 11829,
          "time": 137.54651162790697,
          "velocity": 0.13385826771653545
        },
        {
          "duration": 0.13953488372092693,
          "durationTicks": 12,
          "midi": 55,
          "name": "G3",
          "ticks": 11831,
          "time": 137.56976744186048,
          "velocity": 0.3937007874015748
        },
        {
          "duration": 0.023255813953483084,
          "durationTicks": 2,
          "midi": 55,
          "name": "G3",
          "ticks": 11844,
          "time": 137.72093023255815,
          "velocity": 0.2755905511811024
        },
        {
          "duration": 0.023255813953483084,
          "durationTicks": 2,
          "midi": 53,
          "name": "F3",
          "ticks": 11852,
          "time": 137.8139534883721,
          "velocity": 0.25196850393700787
        },
        {
          "duration": 0.11627906976744384,
          "durationTicks": 10,
          "midi": 55,
          "name": "G3",
          "ticks": 11856,
          "time": 137.86046511627907,
          "velocity": 0.4330708661417323
        },
        {
          "duration": 0.11627906976744384,
          "durationTicks": 10,
          "midi": 74,
          "name": "D5",
          "ticks": 11857,
          "time": 137.87209302325581,
          "velocity": 0.11811023622047244
        },
        {
          "duration": 0.04651162790696617,
          "durationTicks": 4,
          "midi": 64,
          "name": "E4",
          "ticks": 11858,
          "time": 137.88372093023256,
          "velocity": 0.18110236220472442
        },
        {
          "duration": 0.2093023255814046,
          "durationTicks": 18,
          "midi": 55,
          "name": "G3",
          "ticks": 11867,
          "time": 137.98837209302326,
          "velocity": 0.47244094488188976
        },
        {
          "duration": 0.023255813953483084,
          "durationTicks": 2,
          "midi": 53,
          "name": "F3",
          "ticks": 11886,
          "time": 138.2093023255814,
          "velocity": 0.30708661417322836
        },
        {
          "duration": 0.0813953488371908,
          "durationTicks": 7,
          "midi": 72,
          "name": "C5",
          "ticks": 11887,
          "time": 138.22093023255815,
          "velocity": 0.11023622047244094
        },
        {
          "duration": 0.1046511627907023,
          "durationTicks": 9,
          "midi": 55,
          "name": "G3",
          "ticks": 11889,
          "time": 138.24418604651163,
          "velocity": 0.4251968503937008
        },
        {
          "duration": 0.05813953488373613,
          "durationTicks": 5,
          "midi": 60,
          "name": "C4",
          "ticks": 11890,
          "time": 138.25581395348837,
          "velocity": 0.16535433070866143
        },
        {
          "duration": 0.06976744186047767,
          "durationTicks": 6,
          "midi": 76,
          "name": "E5",
          "ticks": 11890,
          "time": 138.25581395348837,
          "velocity": 0.08661417322834646
        },
        {
          "duration": 0.05813953488373613,
          "durationTicks": 5,
          "midi": 64,
          "name": "E4",
          "ticks": 11894,
          "time": 138.30232558139534,
          "velocity": 0.14173228346456693
        },
        {
          "duration": 0.08139534883721922,
          "durationTicks": 7,
          "midi": 45,
          "name": "A2",
          "ticks": 11899,
          "time": 138.36046511627907,
          "velocity": 0.15748031496062992
        },
        {
          "duration": 0.06976744186044925,
          "durationTicks": 6,
          "midi": 55,
          "name": "G3",
          "ticks": 11907,
          "time": 138.45348837209303,
          "velocity": 0.44881889763779526
        },
        {
          "duration": 0.04651162790696617,
          "durationTicks": 4,
          "midi": 65,
          "name": "F4",
          "ticks": 11908,
          "time": 138.46511627906978,
          "velocity": 0.14960629921259844
        },
        {
          "duration": 0.40697674418603924,
          "durationTicks": 35,
          "midi": 59,
          "name": "B3",
          "ticks": 11910,
          "time": 138.48837209302326,
          "velocity": 0.29133858267716534
        },
        {
          "duration": 0.2674418604651123,
          "durationTicks": 23,
          "midi": 54,
          "name": "F#3",
          "ticks": 11913,
          "time": 138.52325581395348,
          "velocity": 0.41732283464566927
        },
        {
          "duration": 0.33720930232559,
          "durationTicks": 29,
          "midi": 47,
          "name": "B2",
          "ticks": 11915,
          "time": 138.54651162790697,
          "velocity": 0.15748031496062992
        },
        {
          "duration": 0.023255813953483084,
          "durationTicks": 2,
          "midi": 60,
          "name": "C4",
          "ticks": 11945,
          "time": 138.8953488372093,
          "velocity": 0.25196850393700787
        },
        {
          "duration": 0.18604651162792152,
          "durationTicks": 16,
          "midi": 71,
          "name": "B4",
          "ticks": 11945,
          "time": 138.8953488372093,
          "velocity": 0.11811023622047244
        },
        {
          "duration": 0.16279069767443843,
          "durationTicks": 14,
          "midi": 54,
          "name": "F#3",
          "ticks": 11946,
          "time": 138.90697674418604,
          "velocity": 0.4015748031496063
        },
        {
          "duration": 0.12790697674418539,
          "durationTicks": 11,
          "midi": 59,
          "name": "B3",
          "ticks": 11949,
          "time": 138.9418604651163,
          "velocity": 0.28346456692913385
        },
        {
          "duration": 0.04651162790696617,
          "durationTicks": 4,
          "midi": 47,
          "name": "B2",
          "ticks": 11955,
          "time": 139.01162790697674,
          "velocity": 0.14173228346456693
        },
        {
          "duration": 0.034883720930224626,
          "durationTicks": 3,
          "midi": 55,
          "name": "G3",
          "ticks": 11960,
          "time": 139.06976744186048,
          "velocity": 0.28346456692913385
        },
        {
          "duration": 0.05813953488370771,
          "durationTicks": 5,
          "midi": 55,
          "name": "G3",
          "ticks": 11964,
          "time": 139.11627906976744,
          "velocity": 0.33858267716535434
        },
        {
          "duration": 0.04651162790699459,
          "durationTicks": 4,
          "midi": 44,
          "name": "G#2",
          "ticks": 11968,
          "time": 139.1627906976744,
          "velocity": 0.25984251968503935
        },
        {
          "duration": 0.17441860465117998,
          "durationTicks": 15,
          "midi": 67,
          "name": "G4",
          "ticks": 11969,
          "time": 139.17441860465115,
          "velocity": 0.11811023622047244
        },
        {
          "duration": 0.08139534883721922,
          "durationTicks": 7,
          "midi": 55,
          "name": "G3",
          "ticks": 11970,
          "time": 139.1860465116279,
          "velocity": 0.30708661417322836
        },
        {
          "duration": 0.04651162790696617,
          "durationTicks": 4,
          "midi": 43,
          "name": "G2",
          "ticks": 11975,
          "time": 139.24418604651163,
          "velocity": 0.12598425196850394
        },
        {
          "duration": 0.04651162790696617,
          "durationTicks": 4,
          "midi": 55,
          "name": "G3",
          "ticks": 11982,
          "time": 139.32558139534885,
          "velocity": 0.36220472440944884
        },
        {
          "duration": 0.33720930232556157,
          "durationTicks": 29,
          "midi": 62,
          "name": "D4",
          "ticks": 11983,
          "time": 139.3372093023256,
          "velocity": 0.2992125984251969
        },
        {
          "duration": 0.023255813953483084,
          "durationTicks": 2,
          "midi": 54,
          "name": "F#3",
          "ticks": 11986,
          "time": 139.37209302325581,
          "velocity": 0.3543307086614173
        },
        {
          "duration": 0.4418604651162923,
          "durationTicks": 38,
          "midi": 71,
          "name": "B4",
          "ticks": 11986,
          "time": 139.37209302325581,
          "velocity": 0.18110236220472442
        },
        {
          "duration": 0.04651162790699459,
          "durationTicks": 4,
          "midi": 55,
          "name": "G3",
          "ticks": 11988,
          "time": 139.3953488372093,
          "velocity": 0.36220472440944884
        },
        {
          "duration": 0.06976744186047767,
          "durationTicks": 6,
          "midi": 44,
          "name": "G#2",
          "ticks": 11989,
          "time": 139.40697674418604,
          "velocity": 0.25196850393700787
        },
        {
          "duration": 0.3720930232558146,
          "durationTicks": 32,
          "midi": 50,
          "name": "D3",
          "ticks": 11993,
          "time": 139.45348837209303,
          "velocity": 0.23622047244094488
        },
        {
          "duration": 0.04651162790696617,
          "durationTicks": 4,
          "midi": 55,
          "name": "G3",
          "ticks": 11994,
          "time": 139.46511627906978,
          "velocity": 0.1889763779527559
        },
        {
          "duration": 0.0813953488371908,
          "durationTicks": 7,
          "midi": 43,
          "name": "G2",
          "ticks": 11995,
          "time": 139.47674418604652,
          "velocity": 0.2204724409448819
        },
        {
          "duration": 0.24418604651162923,
          "durationTicks": 21,
          "midi": 59,
          "name": "B3",
          "ticks": 12004,
          "time": 139.58139534883722,
          "velocity": 0.1889763779527559
        },
        {
          "duration": 0.04651162790696617,
          "durationTicks": 4,
          "midi": 43,
          "name": "G2",
          "ticks": 12005,
          "time": 139.59302325581396,
          "velocity": 0.1732283464566929
        },
        {
          "duration": 0.04651162790699459,
          "durationTicks": 4,
          "midi": 43,
          "name": "G2",
          "ticks": 12012,
          "time": 139.67441860465115,
          "velocity": 0.16535433070866143
        },
        {
          "duration": 0.22093023255814614,
          "durationTicks": 19,
          "midi": 62,
          "name": "D4",
          "ticks": 12027,
          "time": 139.84883720930233,
          "velocity": 0.2204724409448819
        },
        {
          "duration": 0.05813953488370771,
          "durationTicks": 5,
          "midi": 55,
          "name": "G3",
          "ticks": 12028,
          "time": 139.86046511627907,
          "velocity": 0.3464566929133858
        },
        {
          "duration": 0.17441860465115155,
          "durationTicks": 15,
          "midi": 43,
          "name": "G2",
          "ticks": 12030,
          "time": 139.88372093023256,
          "velocity": 0.2204724409448819
        },
        {
          "duration": 0.17441860465117998,
          "durationTicks": 15,
          "midi": 50,
          "name": "D3",
          "ticks": 12032,
          "time": 139.90697674418604,
          "velocity": 0.1889763779527559
        },
        {
          "duration": 0.03488372093025305,
          "durationTicks": 3,
          "midi": 56,
          "name": "G#3",
          "ticks": 12033,
          "time": 139.91860465116278,
          "velocity": 0.2047244094488189
        },
        {
          "duration": 0.11627906976744384,
          "durationTicks": 10,
          "midi": 55,
          "name": "G3",
          "ticks": 12036,
          "time": 139.95348837209303,
          "velocity": 0.2677165354330709
        },
        {
          "duration": 0.0813953488371908,
          "durationTicks": 7,
          "midi": 55,
          "name": "G3",
          "ticks": 12047,
          "time": 140.08139534883722,
          "velocity": 0.44881889763779526
        },
        {
          "duration": 0.034883720930224626,
          "durationTicks": 3,
          "midi": 44,
          "name": "G#2",
          "ticks": 12049,
          "time": 140.1046511627907,
          "velocity": 0.25984251968503935
        },
        {
          "duration": 0.17441860465115155,
          "durationTicks": 15,
          "midi": 62,
          "name": "D4",
          "ticks": 12051,
          "time": 140.12790697674419,
          "velocity": 0.2440944881889764
        },
        {
          "duration": 0.15116279069766847,
          "durationTicks": 13,
          "midi": 43,
          "name": "G2",
          "ticks": 12052,
          "time": 140.13953488372093,
          "velocity": 0.28346456692913385
        },
        {
          "duration": 0.023255813953483084,
          "durationTicks": 2,
          "midi": 56,
          "name": "G#3",
          "ticks": 12054,
          "time": 140.1627906976744,
          "velocity": 0.2992125984251969
        },
        {
          "duration": 0.1046511627907023,
          "durationTicks": 9,
          "midi": 55,
          "name": "G3",
          "ticks": 12056,
          "time": 140.1860465116279,
          "velocity": 0.3543307086614173
        },
        {
          "duration": 0.04651162790696617,
          "durationTicks": 4,
          "midi": 50,
          "name": "D3",
          "ticks": 12060,
          "time": 140.2325581395349,
          "velocity": 0.23622047244094488
        },
        {
          "duration": 0.023255813953511506,
          "durationTicks": 2,
          "midi": 49,
          "name": "C#3",
          "ticks": 12065,
          "time": 140.2906976744186,
          "velocity": 0.2677165354330709
        },
        {
          "duration": 0.06976744186047767,
          "durationTicks": 6,
          "midi": 44,
          "name": "G#2",
          "ticks": 12066,
          "time": 140.30232558139534,
          "velocity": 0.33858267716535434
        },
        {
          "duration": 0.2441860465116008,
          "durationTicks": 21,
          "midi": 62,
          "name": "D4",
          "ticks": 12067,
          "time": 140.3139534883721,
          "velocity": 0.2992125984251969
        },
        {
          "duration": 0.6511627906976685,
          "durationTicks": 56,
          "midi": 71,
          "name": "B4",
          "ticks": 12068,
          "time": 140.32558139534885,
          "velocity": 0.1732283464566929
        },
        {
          "duration": 0.27906976744185386,
          "durationTicks": 24,
          "midi": 55,
          "name": "G3",
          "ticks": 12070,
          "time": 140.34883720930233,
          "velocity": 0.4251968503937008
        },
        {
          "duration": 0.1046511627907023,
          "durationTicks": 9,
          "midi": 50,
          "name": "D3",
          "ticks": 12075,
          "time": 140.40697674418604,
          "velocity": 0.25984251968503935
        },
        {
          "duration": 0.04651162790699459,
          "durationTicks": 4,
          "midi": 43,
          "name": "G2",
          "ticks": 12076,
          "time": 140.41860465116278,
          "velocity": 0.25196850393700787
        },
        {
          "duration": 0.034883720930224626,
          "durationTicks": 3,
          "midi": 43,
          "name": "G2",
          "ticks": 12085,
          "time": 140.52325581395348,
          "velocity": 0.10236220472440945
        },
        {
          "duration": 0.05813953488373613,
          "durationTicks": 5,
          "midi": 44,
          "name": "G#2",
          "ticks": 12088,
          "time": 140.5581395348837,
          "velocity": 0.16535433070866143
        },
        {
          "duration": 0.034883720930224626,
          "durationTicks": 3,
          "midi": 62,
          "name": "D4",
          "ticks": 12093,
          "time": 140.61627906976744,
          "velocity": 0.11023622047244094
        },
        {
          "duration": 0.11627906976744384,
          "durationTicks": 10,
          "midi": 55,
          "name": "G3",
          "ticks": 12095,
          "time": 140.63953488372093,
          "velocity": 0.4094488188976378
        },
        {
          "duration": 0.05813953488373613,
          "durationTicks": 5,
          "midi": 62,
          "name": "D4",
          "ticks": 12099,
          "time": 140.6860465116279,
          "velocity": 0.18110236220472442
        },
        {
          "duration": 0.19767441860466306,
          "durationTicks": 17,
          "midi": 62,
          "name": "D4",
          "ticks": 12107,
          "time": 140.77906976744185,
          "velocity": 0.33070866141732286
        },
        {
          "duration": 0.04651162790699459,
          "durationTicks": 4,
          "midi": 44,
          "name": "G#2",
          "ticks": 12108,
          "time": 140.7906976744186,
          "velocity": 0.25196850393700787
        },
        {
          "duration": 0.18604651162792152,
          "durationTicks": 16,
          "midi": 55,
          "name": "G3",
          "ticks": 12108,
          "time": 140.7906976744186,
          "velocity": 0.4015748031496063
        },
        {
          "duration": 0.09302325581396076,
          "durationTicks": 8,
          "midi": 43,
          "name": "G2",
          "ticks": 12116,
          "time": 140.88372093023256,
          "velocity": 0.23622047244094488
        },
        {
          "duration": 0.06976744186047767,
          "durationTicks": 6,
          "midi": 50,
          "name": "D3",
          "ticks": 12117,
          "time": 140.8953488372093,
          "velocity": 0.1968503937007874
        },
        {
          "duration": 0.034883720930224626,
          "durationTicks": 3,
          "midi": 54,
          "name": "F#3",
          "ticks": 12124,
          "time": 140.97674418604652,
          "velocity": 0.4251968503937008
        },
        {
          "duration": 0.06976744186047767,
          "durationTicks": 6,
          "midi": 55,
          "name": "G3",
          "ticks": 12127,
          "time": 141.01162790697674,
          "velocity": 0.44881889763779526
        },
        {
          "duration": 0.1046511627907023,
          "durationTicks": 9,
          "midi": 62,
          "name": "D4",
          "ticks": 12128,
          "time": 141.02325581395348,
          "velocity": 0.29133858267716534
        },
        {
          "duration": 0.08139534883721922,
          "durationTicks": 7,
          "midi": 43,
          "name": "G2",
          "ticks": 12130,
          "time": 141.04651162790697,
          "velocity": 0.2755905511811024
        },
        {
          "duration": 0.08139534883721922,
          "durationTicks": 7,
          "midi": 71,
          "name": "B4",
          "ticks": 12130,
          "time": 141.04651162790697,
          "velocity": 0.15748031496062992
        },
        {
          "duration": 0.034883720930224626,
          "durationTicks": 3,
          "midi": 55,
          "name": "G3",
          "ticks": 12135,
          "time": 141.1046511627907,
          "velocity": 0.30708661417322836
        },
        {
          "duration": 0.12790697674418539,
          "durationTicks": 11,
          "midi": 44,
          "name": "G#2",
          "ticks": 12137,
          "time": 141.12790697674419,
          "velocity": 0.3543307086614173
        },
        {
          "duration": 0.04651162790696617,
          "durationTicks": 4,
          "midi": 72,
          "name": "C5",
          "ticks": 12137,
          "time": 141.12790697674419,
          "velocity": 0.14960629921259844
        },
        {
          "duration": 0.034883720930224626,
          "durationTicks": 3,
          "midi": 60,
          "name": "C4",
          "ticks": 12138,
          "time": 141.13953488372093,
          "velocity": 0.15748031496062992
        },
        {
          "duration": 0.03488372093025305,
          "durationTicks": 3,
          "midi": 61,
          "name": "C#4",
          "ticks": 12142,
          "time": 141.1860465116279,
          "velocity": 0.12598425196850394
        },
        {
          "duration": 0.023255813953483084,
          "durationTicks": 2,
          "midi": 58,
          "name": "A#3",
          "ticks": 12144,
          "time": 141.2093023255814,
          "velocity": 0.2440944881889764
        },
        {
          "duration": 0.034883720930224626,
          "durationTicks": 3,
          "midi": 57,
          "name": "A3",
          "ticks": 12146,
          "time": 141.2325581395349,
          "velocity": 0.33858267716535434
        },
        {
          "duration": 0.034883720930224626,
          "durationTicks": 3,
          "midi": 61,
          "name": "C#4",
          "ticks": 12146,
          "time": 141.2325581395349,
          "velocity": 0.2047244094488189
        },
        {
          "duration": 0.05813953488373613,
          "durationTicks": 5,
          "midi": 45,
          "name": "A2",
          "ticks": 12148,
          "time": 141.25581395348837,
          "velocity": 0.25196850393700787
        },
        {
          "duration": 0.034883720930224626,
          "durationTicks": 3,
          "midi": 63,
          "name": "D#4",
          "ticks": 12148,
          "time": 141.25581395348837,
          "velocity": 0.23622047244094488
        },
        {
          "duration": 0.16279069767443843,
          "durationTicks": 14,
          "midi": 57,
          "name": "A3",
          "ticks": 12150,
          "time": 141.27906976744185,
          "velocity": 0.29133858267716534
        },
        {
          "duration": 0.16279069767443843,
          "durationTicks": 14,
          "midi": 61,
          "name": "C#4",
          "ticks": 12150,
          "time": 141.27906976744185,
          "velocity": 0.25984251968503935
        },
        {
          "duration": 0.13953488372092693,
          "durationTicks": 12,
          "midi": 45,
          "name": "A2",
          "ticks": 12154,
          "time": 141.32558139534885,
          "velocity": 0.2755905511811024
        },
        {
          "duration": 0.08139534883721922,
          "durationTicks": 7,
          "midi": 64,
          "name": "E4",
          "ticks": 12157,
          "time": 141.36046511627907,
          "velocity": 0.12598425196850394
        },
        {
          "duration": 0.04651162790699459,
          "durationTicks": 4,
          "midi": 52,
          "name": "E3",
          "ticks": 12160,
          "time": 141.3953488372093,
          "velocity": 0.12598425196850394
        },
        {
          "duration": 0.034883720930224626,
          "durationTicks": 3,
          "midi": 57,
          "name": "A3",
          "ticks": 12166,
          "time": 141.46511627906978,
          "velocity": 0.3779527559055118
        },
        {
          "duration": 0.22093023255814614,
          "durationTicks": 19,
          "midi": 61,
          "name": "C#4",
          "ticks": 12167,
          "time": 141.47674418604652,
          "velocity": 0.2677165354330709
        },
        {
          "duration": 0.22093023255814614,
          "durationTicks": 19,
          "midi": 45,
          "name": "A2",
          "ticks": 12168,
          "time": 141.48837209302326,
          "velocity": 0.23622047244094488
        },
        {
          "duration": 0.023255813953483084,
          "durationTicks": 2,
          "midi": 57,
          "name": "A3",
          "ticks": 12170,
          "time": 141.51162790697674,
          "velocity": 0.33858267716535434
        },
        {
          "duration": 0.13953488372092693,
          "durationTicks": 12,
          "midi": 52,
          "name": "E3",
          "ticks": 12172,
          "time": 141.53488372093022,
          "velocity": 0.2677165354330709
        },
        {
          "duration": 0.13953488372092693,
          "durationTicks": 12,
          "midi": 57,
          "name": "A3",
          "ticks": 12173,
          "time": 141.54651162790697,
          "velocity": 0.33858267716535434
        },
        {
          "duration": 0.16279069767443843,
          "durationTicks": 14,
          "midi": 64,
          "name": "E4",
          "ticks": 12173,
          "time": 141.54651162790697,
          "velocity": 0.28346456692913385
        },
        {
          "duration": 0.04651162790699459,
          "durationTicks": 4,
          "midi": 70,
          "name": "A#4",
          "ticks": 12185,
          "time": 141.6860465116279,
          "velocity": 0.09448818897637795
        },
        {
          "duration": 0.023255813953483084,
          "durationTicks": 2,
          "midi": 56,
          "name": "G#3",
          "ticks": 12187,
          "time": 141.7093023255814,
          "velocity": 0.41732283464566927
        },
        {
          "duration": 0.1860465116278931,
          "durationTicks": 16,
          "midi": 61,
          "name": "C#4",
          "ticks": 12188,
          "time": 141.72093023255815,
          "velocity": 0.2440944881889764
        },
        {
          "duration": 0.19767441860463464,
          "durationTicks": 17,
          "midi": 45,
          "name": "A2",
          "ticks": 12189,
          "time": 141.7325581395349,
          "velocity": 0.2677165354330709
        },
        {
          "duration": 0.4186046511627808,
          "durationTicks": 36,
          "midi": 64,
          "name": "E4",
          "ticks": 12189,
          "time": 141.7325581395349,
          "velocity": 0.2677165354330709
        },
        {
          "duration": 0.3720930232558146,
          "durationTicks": 32,
          "midi": 69,
          "name": "A4",
          "ticks": 12190,
          "time": 141.74418604651163,
          "velocity": 0.16535433070866143
        },
        {
          "duration": 0.023255813953483084,
          "durationTicks": 2,
          "midi": 53,
          "name": "F3",
          "ticks": 12192,
          "time": 141.7674418604651,
          "velocity": 0.31496062992125984
        },
        {
          "duration": 0.3720930232558146,
          "durationTicks": 32,
          "midi": 52,
          "name": "E3",
          "ticks": 12194,
          "time": 141.7906976744186,
          "velocity": 0.2755905511811024
        },
        {
          "duration": 0.12790697674418539,
          "durationTicks": 11,
          "midi": 57,
          "name": "A3",
          "ticks": 12194,
          "time": 141.7906976744186,
          "velocity": 0.33858267716535434
        },
        {
          "duration": 0.03488372093025305,
          "durationTicks": 3,
          "midi": 57,
          "name": "A3",
          "ticks": 12206,
          "time": 141.93023255813952,
          "velocity": 0.2283464566929134
        },
        {
          "duration": 0.22093023255814614,
          "durationTicks": 19,
          "midi": 73,
          "name": "C#5",
          "ticks": 12206,
          "time": 141.93023255813952,
          "velocity": 0.1889763779527559
        },
        {
          "duration": 0.22093023255811772,
          "durationTicks": 19,
          "midi": 61,
          "name": "C#4",
          "ticks": 12207,
          "time": 141.9418604651163,
          "velocity": 0.2440944881889764
        },
        {
          "duration": 0.023255813953483084,
          "durationTicks": 2,
          "midi": 44,
          "name": "G#2",
          "ticks": 12208,
          "time": 141.95348837209303,
          "velocity": 0.2992125984251969
        },
        {
          "duration": 0.06976744186044925,
          "durationTicks": 6,
          "midi": 45,
          "name": "A2",
          "ticks": 12210,
          "time": 141.97674418604652,
          "velocity": 0.30708661417322836
        },
        {
          "duration": 0.023255813953511506,
          "durationTicks": 2,
          "midi": 46,
          "name": "A#2",
          "ticks": 12216,
          "time": 142.04651162790697,
          "velocity": 0.2283464566929134
        },
        {
          "duration": 0.10465116279067388,
          "durationTicks": 9,
          "midi": 45,
          "name": "A2",
          "ticks": 12218,
          "time": 142.06976744186048,
          "velocity": 0.28346456692913385
        },
        {
          "duration": 0.034883720930224626,
          "durationTicks": 3,
          "midi": 58,
          "name": "A#3",
          "ticks": 12225,
          "time": 142.15116279069767,
          "velocity": 0.25984251968503935
        },
        {
          "duration": 0.03488372093025305,
          "durationTicks": 3,
          "midi": 44,
          "name": "G#2",
          "ticks": 12227,
          "time": 142.17441860465115,
          "velocity": 0.25196850393700787
        },
        {
          "duration": 0.023255813953511506,
          "durationTicks": 2,
          "midi": 54,
          "name": "F#3",
          "ticks": 12227,
          "time": 142.17441860465115,
          "velocity": 0.29133858267716534
        },
        {
          "duration": 0.38372093023255616,
          "durationTicks": 33,
          "midi": 73,
          "name": "C#5",
          "ticks": 12227,
          "time": 142.17441860465115,
          "velocity": 0.1968503937007874
        },
        {
          "duration": 0.2093023255814046,
          "durationTicks": 18,
          "midi": 61,
          "name": "C#4",
          "ticks": 12228,
          "time": 142.1860465116279,
          "velocity": 0.25196850393700787
        },
        {
          "duration": 0.24418604651162923,
          "durationTicks": 21,
          "midi": 57,
          "name": "A3",
          "ticks": 12229,
          "time": 142.19767441860466,
          "velocity": 0.3543307086614173
        },
        {
          "duration": 0.19767441860463464,
          "durationTicks": 17,
          "midi": 64,
          "name": "E4",
          "ticks": 12229,
          "time": 142.19767441860466,
          "velocity": 0.29133858267716534
        },
        {
          "duration": 0.15116279069766847,
          "durationTicks": 13,
          "midi": 88,
          "name": "E6",
          "ticks": 12229,
          "time": 142.19767441860466,
          "velocity": 0.11811023622047244
        },
        {
          "duration": 0.06976744186044925,
          "durationTicks": 6,
          "midi": 45,
          "name": "A2",
          "ticks": 12230,
          "time": 142.2093023255814,
          "velocity": 0.2677165354330709
        },
        {
          "duration": 0.023255813953483084,
          "durationTicks": 2,
          "midi": 53,
          "name": "F3",
          "ticks": 12231,
          "time": 142.22093023255815,
          "velocity": 0.2755905511811024
        },
        {
          "duration": 0.13953488372092693,
          "durationTicks": 12,
          "midi": 52,
          "name": "E3",
          "ticks": 12234,
          "time": 142.25581395348837,
          "velocity": 0.2440944881889764
        },
        {
          "duration": 0.13953488372092693,
          "durationTicks": 12,
          "midi": 81,
          "name": "A5",
          "ticks": 12234,
          "time": 142.25581395348837,
          "velocity": 0.07874015748031496
        },
        {
          "duration": 0.13953488372092693,
          "durationTicks": 12,
          "midi": 45,
          "name": "A2",
          "ticks": 12237,
          "time": 142.2906976744186,
          "velocity": 0.2283464566929134
        },
        {
          "duration": 0.034883720930224626,
          "durationTicks": 3,
          "midi": 62,
          "name": "D4",
          "ticks": 12246,
          "time": 142.3953488372093,
          "velocity": 0.1889763779527559
        },
        {
          "duration": 0.08139534883721922,
          "durationTicks": 7,
          "midi": 64,
          "name": "E4",
          "ticks": 12248,
          "time": 142.41860465116278,
          "velocity": 0.2440944881889764
        },
        {
          "duration": 0.22093023255814614,
          "durationTicks": 19,
          "midi": 61,
          "name": "C#4",
          "ticks": 12249,
          "time": 142.43023255813952,
          "velocity": 0.25196850393700787
        },
        {
          "duration": 0.04651162790696617,
          "durationTicks": 4,
          "midi": 88,
          "name": "E6",
          "ticks": 12252,
          "time": 142.46511627906978,
          "velocity": 0.07086614173228346
        },
        {
          "duration": 0.32558139534882,
          "durationTicks": 28,
          "midi": 45,
          "name": "A2",
          "ticks": 12253,
          "time": 142.47674418604652,
          "velocity": 0.16535433070866143
        },
        {
          "duration": 0.15116279069766847,
          "durationTicks": 13,
          "midi": 57,
          "name": "A3",
          "ticks": 12254,
          "time": 142.48837209302326,
          "velocity": 0.30708661417322836
        },
        {
          "duration": 0.04651162790696617,
          "durationTicks": 4,
          "midi": 64,
          "name": "E4",
          "ticks": 12256,
          "time": 142.51162790697674,
          "velocity": 0.1732283464566929
        },
        {
          "duration": 0.09302325581396076,
          "durationTicks": 8,
          "midi": 52,
          "name": "E3",
          "ticks": 12259,
          "time": 142.54651162790697,
          "velocity": 0.2125984251968504
        },
        {
          "duration": 0.05813953488373613,
          "durationTicks": 5,
          "midi": 93,
          "name": "A6",
          "ticks": 12259,
          "time": 142.54651162790697,
          "velocity": 0.07086614173228346
        },
        {
          "duration": 0.17441860465117998,
          "durationTicks": 15,
          "midi": 88,
          "name": "E6",
          "ticks": 12260,
          "time": 142.5581395348837,
          "velocity": 0.07874015748031496
        },
        {
          "duration": 0.04651162790696617,
          "durationTicks": 4,
          "midi": 53,
          "name": "F3",
          "ticks": 12267,
          "time": 142.63953488372093,
          "velocity": 0.28346456692913385
        },
        {
          "duration": 0.023255813953483084,
          "durationTicks": 2,
          "midi": 58,
          "name": "A#3",
          "ticks": 12267,
          "time": 142.63953488372093,
          "velocity": 0.23622047244094488
        },
        {
          "duration": 0.08139534883721922,
          "durationTicks": 7,
          "midi": 64,
          "name": "E4",
          "ticks": 12269,
          "time": 142.6627906976744,
          "velocity": 0.23622047244094488
        },
        {
          "duration": 0.13953488372095535,
          "durationTicks": 12,
          "midi": 61,
          "name": "C#4",
          "ticks": 12270,
          "time": 142.67441860465115,
          "velocity": 0.2755905511811024
        },
        {
          "duration": 0.09302325581396076,
          "durationTicks": 8,
          "midi": 52,
          "name": "E3",
          "ticks": 12274,
          "time": 142.72093023255815,
          "velocity": 0.2440944881889764
        },
        {
          "duration": 0.08139534883721922,
          "durationTicks": 7,
          "midi": 57,
          "name": "A3",
          "ticks": 12275,
          "time": 142.7325581395349,
          "velocity": 0.30708661417322836
        },
        {
          "duration": 0.03488372093025305,
          "durationTicks": 3,
          "midi": 44,
          "name": "G#2",
          "ticks": 12281,
          "time": 142.80232558139534,
          "velocity": 0.07874015748031496
        },
        {
          "duration": 0.034883720930224626,
          "durationTicks": 3,
          "midi": 57,
          "name": "A3",
          "ticks": 12283,
          "time": 142.82558139534885,
          "velocity": 0.29133858267716534
        },
        {
          "duration": 0.034883720930224626,
          "durationTicks": 3,
          "midi": 63,
          "name": "D#4",
          "ticks": 12284,
          "time": 142.8372093023256,
          "velocity": 0.09448818897637795
        },
        {
          "duration": 0.034883720930224626,
          "durationTicks": 3,
          "midi": 54,
          "name": "F#3",
          "ticks": 12288,
          "time": 142.88372093023256,
          "velocity": 0.33858267716535434
        },
        {
          "duration": 0.06976744186047767,
          "durationTicks": 6,
          "midi": 55,
          "name": "G3",
          "ticks": 12291,
          "time": 142.91860465116278,
          "velocity": 0.33070866141732286
        },
        {
          "duration": 0.03488372093025305,
          "durationTicks": 3,
          "midi": 65,
          "name": "F4",
          "ticks": 12292,
          "time": 142.93023255813952,
          "velocity": 0.11023622047244094
        },
        {
          "duration": 0.11627906976741542,
          "durationTicks": 10,
          "midi": 59,
          "name": "B3",
          "ticks": 12293,
          "time": 142.9418604651163,
          "velocity": 0.2204724409448819
        },
        {
          "duration": 0.034883720930224626,
          "durationTicks": 3,
          "midi": 54,
          "name": "F#3",
          "ticks": 12297,
          "time": 142.98837209302326,
          "velocity": 0.2992125984251969
        },
        {
          "duration": 0.09302325581396076,
          "durationTicks": 8,
          "midi": 55,
          "name": "G3",
          "ticks": 12300,
          "time": 143.02325581395348,
          "velocity": 0.3228346456692913
        },
        {
          "duration": 0.09302325581396076,
          "durationTicks": 8,
          "midi": 64,
          "name": "E4",
          "ticks": 12300,
          "time": 143.02325581395348,
          "velocity": 0.11811023622047244
        },
        {
          "duration": 0.034883720930224626,
          "durationTicks": 3,
          "midi": 59,
          "name": "B3",
          "ticks": 12304,
          "time": 143.06976744186048,
          "velocity": 0.08661417322834646
        },
        {
          "duration": 0.034883720930224626,
          "durationTicks": 3,
          "midi": 47,
          "name": "B2",
          "ticks": 12305,
          "time": 143.08139534883722,
          "velocity": 0.11811023622047244
        },
        {
          "duration": 0.32558139534884845,
          "durationTicks": 28,
          "midi": 67,
          "name": "G4",
          "ticks": 12308,
          "time": 143.11627906976744,
          "velocity": 0.13385826771653545
        },
        {
          "duration": 0.05813953488373613,
          "durationTicks": 5,
          "midi": 71,
          "name": "B4",
          "ticks": 12310,
          "time": 143.13953488372093,
          "velocity": 0.11023622047244094
        },
        {
          "duration": 0.30232558139536536,
          "durationTicks": 26,
          "midi": 76,
          "name": "E5",
          "ticks": 12310,
          "time": 143.13953488372093,
          "velocity": 0.1968503937007874
        },
        {
          "duration": 0.5348837209302246,
          "durationTicks": 46,
          "midi": 78,
          "name": "F#5",
          "ticks": 12310,
          "time": 143.13953488372093,
          "velocity": 0.12598425196850394
        },
        {
          "duration": 0.12790697674418539,
          "durationTicks": 11,
          "midi": 55,
          "name": "G3",
          "ticks": 12311,
          "time": 143.15116279069767,
          "velocity": 0.4094488188976378
        },
        {
          "duration": 0.45348837209303383,
          "durationTicks": 39,
          "midi": 64,
          "name": "E4",
          "ticks": 12311,
          "time": 143.15116279069767,
          "velocity": 0.2125984251968504
        },
        {
          "duration": 0.034883720930224626,
          "durationTicks": 3,
          "midi": 59,
          "name": "B3",
          "ticks": 12316,
          "time": 143.2093023255814,
          "velocity": 0.2204724409448819
        },
        {
          "duration": 0.05813953488370771,
          "durationTicks": 5,
          "midi": 83,
          "name": "B5",
          "ticks": 12317,
          "time": 143.22093023255815,
          "velocity": 0.08661417322834646
        },
        {
          "duration": 0.04651162790696617,
          "durationTicks": 4,
          "midi": 59,
          "name": "B3",
          "ticks": 12320,
          "time": 143.25581395348837,
          "velocity": 0.2283464566929134
        },
        {
          "duration": 0.09302325581396076,
          "durationTicks": 8,
          "midi": 83,
          "name": "B5",
          "ticks": 12324,
          "time": 143.30232558139534,
          "velocity": 0.12598425196850394
        },
        {
          "duration": 0.023255813953483084,
          "durationTicks": 2,
          "midi": 55,
          "name": "G3",
          "ticks": 12325,
          "time": 143.3139534883721,
          "velocity": 0.33858267716535434
        },
        {
          "duration": 0.36046511627904465,
          "durationTicks": 31,
          "midi": 59,
          "name": "B3",
          "ticks": 12325,
          "time": 143.3139534883721,
          "velocity": 0.2204724409448819
        },
        {
          "duration": 0.034883720930224626,
          "durationTicks": 3,
          "midi": 55,
          "name": "G3",
          "ticks": 12328,
          "time": 143.34883720930233,
          "velocity": 0.3228346456692913
        },
        {
          "duration": 0.023255813953483084,
          "durationTicks": 2,
          "midi": 53,
          "name": "F3",
          "ticks": 12331,
          "time": 143.38372093023256,
          "velocity": 0.2677165354330709
        },
        {
          "duration": 1.2325581395348593,
          "durationTicks": 106,
          "midi": 52,
          "name": "E3",
          "ticks": 12337,
          "time": 143.45348837209303,
          "velocity": 0.2677165354330709
        },
        {
          "duration": 0.12790697674418539,
          "durationTicks": 11,
          "midi": 67,
          "name": "G4",
          "ticks": 12337,
          "time": 143.45348837209303,
          "velocity": 0.14173228346456693
        },
        {
          "duration": 0.25581395348837077,
          "durationTicks": 22,
          "midi": 67,
          "name": "G4",
          "ticks": 12350,
          "time": 143.6046511627907,
          "velocity": 0.13385826771653545
        },
        {
          "duration": 0.5930232558139608,
          "durationTicks": 51,
          "midi": 71,
          "name": "B4",
          "ticks": 12360,
          "time": 143.72093023255815,
          "velocity": 0.16535433070866143
        },
        {
          "duration": 0.16279069767441,
          "durationTicks": 14,
          "midi": 67,
          "name": "G4",
          "ticks": 12382,
          "time": 143.97674418604652,
          "velocity": 0.09448818897637795
        },
        {
          "duration": 0.24418604651162923,
          "durationTicks": 21,
          "midi": 52,
          "name": "E3",
          "ticks": 12444,
          "time": 144.69767441860466,
          "velocity": 0.14173228346456693
        },
        {
          "duration": 0.11627906976744384,
          "durationTicks": 10,
          "midi": 52,
          "name": "E3",
          "ticks": 12466,
          "time": 144.95348837209303,
          "velocity": 0.10236220472440945
        }
      ],
      "endOfTrackTicks": 12476
    }
  ]
}