{
  "header": {
    "keySignatures": [],
    "meta": [],
    "name": "",
    "ppq": 43,
    "tempos": [
      {
        "bpm": 120,
        "ticks": 0
      }
    ],
    "timeSignatures": []
  },
  "tracks": [
    {
      "channel": 0,
      "controlChanges": {},
      "pitchBends": [],
      "instrument": {
        "family": "piano",
        "number": 0,
        "name": "acoustic grand piano"
      },
      "name": "",
      "notes": [
        {
          "duration": 0.05813953488372093,
          "durationTicks": 5,
          "midi": 54,
          "name": "F#3",
          "ticks": 0,
          "time": 0,
          "velocity": 0.08661417322834646
        },
        {
          "duration": 0.1627906976744186,
          "durationTicks": 14,
          "midi": 59,
          "name": "B3",
          "ticks": 7,
          "time": 0.08139534883720931,
          "velocity": 0.12598425196850394
        },
        {
          "duration": 0.19767441860465118,
          "durationTicks": 17,
          "midi": 43,
          "name": "G2",
          "ticks": 21,
          "time": 0.2441860465116279,
          "velocity": 0.28346456692913385
        },
        {
          "duration": 0.046511627906976716,
          "durationTicks": 4,
          "midi": 43,
          "name": "G2",
          "ticks": 42,
          "time": 0.4883720930232558,
          "velocity": 0.15748031496062992
        },
        {
          "duration": 0.06976744186046513,
          "durationTicks": 6,
          "midi": 43,
          "name": "G2",
          "ticks": 47,
          "time": 0.5465116279069767,
          "velocity": 0.18110236220472442
        },
        {
          "duration": 0.03488372093023262,
          "durationTicks": 3,
          "midi": 55,
          "name": "G3",
          "ticks": 53,
          "time": 0.6162790697674418,
          "velocity": 0.13385826771653545
        },
        {
          "duration": 0.20930232558139528,
          "durationTicks": 18,
          "midi": 59,
          "name": "B3",
          "ticks": 61,
          "time": 0.7093023255813954,
          "velocity": 0.09448818897637795
        },
        {
          "duration": 0.03488372093023262,
          "durationTicks": 3,
          "midi": 54,
          "name": "F#3",
          "ticks": 78,
          "time": 0.9069767441860465,
          "velocity": 0.07086614173228346
        },
        {
          "duration": 0.11627906976744184,
          "durationTicks": 10,
          "midi": 59,
          "name": "B3",
          "ticks": 87,
          "time": 1.0116279069767442,
          "velocity": 0.11811023622047244
        },
        {
          "duration": 0.05813953488372081,
          "durationTicks": 5,
          "midi": 44,
          "name": "G#2",
          "ticks": 102,
          "time": 1.186046511627907,
          "velocity": 0.1968503937007874
        },
        {
          "duration": 0.2790697674418603,
          "durationTicks": 24,
          "midi": 57,
          "name": "A3",
          "ticks": 102,
          "time": 1.186046511627907,
          "velocity": 0.2440944881889764
        },
        {
          "duration": 0.36046511627906974,
          "durationTicks": 31,
          "midi": 45,
          "name": "A2",
          "ticks": 118,
          "time": 1.372093023255814,
          "velocity": 0.08661417322834646
        },
        {
          "duration": 0.04651162790697683,
          "durationTicks": 4,
          "midi": 54,
          "name": "F#3",
          "ticks": 177,
          "time": 2.058139534883721,
          "velocity": 0.07086614173228346
        },
        {
          "duration": 0.058139534883721034,
          "durationTicks": 5,
          "midi": 59,
          "name": "B3",
          "ticks": 184,
          "time": 2.13953488372093,
          "velocity": 0.16535433070866143
        },
        {
          "duration": 0.08139534883720945,
          "durationTicks": 7,
          "midi": 59,
          "name": "B3",
          "ticks": 191,
          "time": 2.2209302325581395,
          "velocity": 0.07874015748031496
        },
        {
          "duration": 0.10465116279069742,
          "durationTicks": 9,
          "midi": 59,
          "name": "B3",
          "ticks": 224,
          "time": 2.604651162790698,
          "velocity": 0.1732283464566929
        },
        {
          "duration": 0.023255813953488413,
          "durationTicks": 2,
          "midi": 60,
          "name": "C4",
          "ticks": 238,
          "time": 2.7674418604651163,
          "velocity": 0.2283464566929134
        },
        {
          "duration": 0.12790697674418583,
          "durationTicks": 11,
          "midi": 89,
          "name": "F6",
          "ticks": 239,
          "time": 2.7790697674418605,
          "velocity": 0.10236220472440945
        },
        {
          "duration": 0.06976744186046524,
          "durationTicks": 6,
          "midi": 73,
          "name": "C#5",
          "ticks": 240,
          "time": 2.7906976744186047,
          "velocity": 0.07874015748031496
        },
        {
          "duration": 0.03488372093023262,
          "durationTicks": 3,
          "midi": 62,
          "name": "D4",
          "ticks": 255,
          "time": 2.9651162790697674,
          "velocity": 0.07874015748031496
        },
        {
          "duration": 0.3139534883720927,
          "durationTicks": 27,
          "midi": 54,
          "name": "F#3",
          "ticks": 265,
          "time": 3.0813953488372094,
          "velocity": 0.25984251968503935
        },
        {
          "duration": 0.3139534883720927,
          "durationTicks": 27,
          "midi": 59,
          "name": "B3",
          "ticks": 265,
          "time": 3.0813953488372094,
          "velocity": 0.25196850393700787
        },
        {
          "duration": 0.06976744186046524,
          "durationTicks": 6,
          "midi": 59,
          "name": "B3",
          "ticks": 298,
          "time": 3.4651162790697674,
          "velocity": 0.12598425196850394
        },
        {
          "duration": 0.17441860465116266,
          "durationTicks": 15,
          "midi": 59,
          "name": "B3",
          "ticks": 306,
          "time": 3.558139534883721,
          "velocity": 0.09448818897637795
        },
        {
          "duration": 0.13953488372093048,
          "durationTicks": 12,
          "midi": 54,
          "name": "F#3",
          "ticks": 317,
          "time": 3.686046511627907,
          "velocity": 0.16535433070866143
        },
        {
          "duration": 0.17441860465116266,
          "durationTicks": 15,
          "midi": 59,
          "name": "B3",
          "ticks": 331,
          "time": 3.8488372093023258,
          "velocity": 0.11811023622047244
        },
        {
          "duration": 0.06976744186046524,
          "durationTicks": 6,
          "midi": 55,
          "name": "G3",
          "ticks": 348,
          "time": 4.046511627906977,
          "velocity": 0.2283464566929134
        },
        {
          "duration": 0.023255813953488413,
          "durationTicks": 2,
          "midi": 43,
          "name": "G2",
          "ticks": 351,
          "time": 4.0813953488372094,
          "velocity": 0.2755905511811024
        },
        {
          "duration": 0.04651162790697683,
          "durationTicks": 4,
          "midi": 43,
          "name": "G2",
          "ticks": 354,
          "time": 4.116279069767442,
          "velocity": 0.28346456692913385
        },
        {
          "duration": 0.1511627906976738,
          "durationTicks": 13,
          "midi": 55,
          "name": "G3",
          "ticks": 365,
          "time": 4.244186046511628,
          "velocity": 0.10236220472440945
        },
        {
          "duration": 0.03488372093023262,
          "durationTicks": 3,
          "midi": 43,
          "name": "G2",
          "ticks": 374,
          "time": 4.348837209302325,
          "velocity": 0.1889763779527559
        },
        {
          "duration": 0.04651162790697683,
          "durationTicks": 4,
          "midi": 44,
          "name": "G#2",
          "ticks": 428,
          "time": 4.976744186046512,
          "velocity": 0.1732283464566929
        },
        {
          "duration": 0.3023255813953485,
          "durationTicks": 26,
          "midi": 57,
          "name": "A3",
          "ticks": 429,
          "time": 4.988372093023256,
          "velocity": 0.2755905511811024
        },
        {
          "duration": 0.3604651162790695,
          "durationTicks": 31,
          "midi": 45,
          "name": "A2",
          "ticks": 444,
          "time": 5.162790697674419,
          "velocity": 0.08661417322834646
        },
        {
          "duration": 0.04651162790697683,
          "durationTicks": 4,
          "midi": 59,
          "name": "B3",
          "ticks": 471,
          "time": 5.476744186046512,
          "velocity": 0.07086614173228346
        },
        {
          "duration": 0.1511627906976747,
          "durationTicks": 13,
          "midi": 59,
          "name": "B3",
          "ticks": 512,
          "time": 5.953488372093023,
          "velocity": 0.11023622047244094
        },
        {
          "duration": 0.24418604651162834,
          "durationTicks": 21,
          "midi": 74,
          "name": "D5",
          "ticks": 514,
          "time": 5.976744186046512,
          "velocity": 0.09448818897637795
        },
        {
          "duration": 0.058139534883721034,
          "durationTicks": 5,
          "midi": 54,
          "name": "F#3",
          "ticks": 538,
          "time": 6.255813953488372,
          "velocity": 0.1889763779527559
        },
        {
          "duration": 0.03488372093023262,
          "durationTicks": 3,
          "midi": 54,
          "name": "F#3",
          "ticks": 544,
          "time": 6.325581395348837,
          "velocity": 0.11023622047244094
        },
        {
          "duration": 0.03488372093023262,
          "durationTicks": 3,
          "midi": 55,
          "name": "G3",
          "ticks": 553,
          "time": 6.430232558139535,
          "velocity": 0.14173228346456693
        },
        {
          "duration": 0.09302325581395365,
          "durationTicks": 8,
          "midi": 59,
          "name": "B3",
          "ticks": 553,
          "time": 6.430232558139535,
          "velocity": 0.16535433070866143
        },
        {
          "duration": 0.13953488372093048,
          "durationTicks": 12,
          "midi": 89,
          "name": "F6",
          "ticks": 565,
          "time": 6.569767441860465,
          "velocity": 0.13385826771653545
        },
        {
          "duration": 0.10465116279069786,
          "durationTicks": 9,
          "midi": 61,
          "name": "C#4",
          "ticks": 568,
          "time": 6.604651162790698,
          "velocity": 0.16535433070866143
        },
        {
          "duration": 0.058139534883720145,
          "durationTicks": 5,
          "midi": 62,
          "name": "D4",
          "ticks": 580,
          "time": 6.744186046511628,
          "velocity": 0.10236220472440945
        },
        {
          "duration": 0.03488372093023262,
          "durationTicks": 3,
          "midi": 55,
          "name": "G3",
          "ticks": 590,
          "time": 6.8604651162790695,
          "velocity": 0.25984251968503935
        },
        {
          "duration": 0.26744186046511675,
          "durationTicks": 23,
          "midi": 71,
          "name": "B4",
          "ticks": 591,
          "time": 6.872093023255814,
          "velocity": 0.14173228346456693
        },
        {
          "duration": 0.03488372093023262,
          "durationTicks": 3,
          "midi": 97,
          "name": "C#7",
          "ticks": 591,
          "time": 6.872093023255814,
          "velocity": 0.07874015748031496
        },
        {
          "duration": 0.4534883720930232,
          "durationTicks": 39,
          "midi": 59,
          "name": "B3",
          "ticks": 592,
          "time": 6.883720930232558,
          "velocity": 0.2677165354330709
        },
        {
          "duration": 0.29069767441860517,
          "durationTicks": 25,
          "midi": 54,
          "name": "F#3",
          "ticks": 593,
          "time": 6.895348837209302,
          "velocity": 0.2440944881889764
        },
        {
          "duration": 0.43023255813953476,
          "durationTicks": 37,
          "midi": 59,
          "name": "B3",
          "ticks": 632,
          "time": 7.348837209302325,
          "velocity": 0.2440944881889764
        },
        {
          "duration": 0.11627906976744207,
          "durationTicks": 10,
          "midi": 54,
          "name": "F#3",
          "ticks": 646,
          "time": 7.511627906976744,
          "velocity": 0.15748031496062992
        },
        {
          "duration": 0.023255813953488413,
          "durationTicks": 2,
          "midi": 44,
          "name": "G#2",
          "ticks": 671,
          "time": 7.8023255813953485,
          "velocity": 0.23622047244094488
        },
        {
          "duration": 0.4883720930232567,
          "durationTicks": 42,
          "midi": 55,
          "name": "G3",
          "ticks": 672,
          "time": 7.813953488372093,
          "velocity": 0.3700787401574803
        },
        {
          "duration": 0.18604651162790642,
          "durationTicks": 16,
          "midi": 43,
          "name": "G2",
          "ticks": 673,
          "time": 7.825581395348837,
          "velocity": 0.30708661417322836
        },
        {
          "duration": 0.04651162790697683,
          "durationTicks": 4,
          "midi": 42,
          "name": "F#2",
          "ticks": 689,
          "time": 8.011627906976743,
          "velocity": 0.12598425196850394
        },
        {
          "duration": 0.174418604651164,
          "durationTicks": 15,
          "midi": 43,
          "name": "G2",
          "ticks": 693,
          "time": 8.05813953488372,
          "velocity": 0.2440944881889764
        },
        {
          "duration": 0.24418604651162745,
          "durationTicks": 21,
          "midi": 59,
          "name": "B3",
          "ticks": 713,
          "time": 8.290697674418604,
          "velocity": 0.1732283464566929
        },
        {
          "duration": 0.03488372093023351,
          "durationTicks": 3,
          "midi": 55,
          "name": "G3",
          "ticks": 717,
          "time": 8.337209302325581,
          "velocity": 0.16535433070866143
        },
        {
          "duration": 0.05813953488372192,
          "durationTicks": 5,
          "midi": 55,
          "name": "G3",
          "ticks": 721,
          "time": 8.383720930232558,
          "velocity": 0.11811023622047244
        },
        {
          "duration": 0.06976744186046346,
          "durationTicks": 6,
          "midi": 55,
          "name": "G3",
          "ticks": 730,
          "time": 8.488372093023257,
          "velocity": 0.14173228346456693
        },
        {
          "duration": 0.03488372093023351,
          "durationTicks": 3,
          "midi": 55,
          "name": "G3",
          "ticks": 740,
          "time": 8.604651162790697,
          "velocity": 0.13385826771653545
        },
        {
          "duration": 0.023255813953488413,
          "durationTicks": 2,
          "midi": 56,
          "name": "G#3",
          "ticks": 754,
          "time": 8.767441860465116,
          "velocity": 0.33858267716535434
        },
        {
          "duration": 0.39534883720930303,
          "durationTicks": 34,
          "midi": 57,
          "name": "A3",
          "ticks": 756,
          "time": 8.790697674418604,
          "velocity": 0.3464566929133858
        },
        {
          "duration": 0.058139534883720145,
          "durationTicks": 5,
          "midi": 45,
          "name": "A2",
          "ticks": 763,
          "time": 8.872093023255815,
          "velocity": 0.11023622047244094
        },
        {
          "duration": 0.03488372093023173,
          "durationTicks": 3,
          "midi": 45,
          "name": "A2",
          "ticks": 773,
          "time": 8.988372093023257,
          "velocity": 0.13385826771653545
        },
        {
          "duration": 0.5348837209302335,
          "durationTicks": 46,
          "midi": 45,
          "name": "A2",
          "ticks": 777,
          "time": 9.034883720930232,
          "velocity": 0.14960629921259844
        },
        {
          "duration": 0.1627906976744189,
          "durationTicks": 14,
          "midi": 59,
          "name": "B3",
          "ticks": 797,
          "time": 9.267441860465116,
          "velocity": 0.12598425196850394
        },
        {
          "duration": 0.09302325581395188,
          "durationTicks": 8,
          "midi": 54,
          "name": "F#3",
          "ticks": 812,
          "time": 9.44186046511628,
          "velocity": 0.13385826771653545
        },
        {
          "duration": 0.09302325581395365,
          "durationTicks": 8,
          "midi": 59,
          "name": "B3",
          "ticks": 823,
          "time": 9.569767441860465,
          "velocity": 0.15748031496062992
        },
        {
          "duration": 0.04651162790697683,
          "durationTicks": 4,
          "midi": 54,
          "name": "F#3",
          "ticks": 827,
          "time": 9.616279069767442,
          "velocity": 0.07086614173228346
        },
        {
          "duration": 0.03488372093023351,
          "durationTicks": 3,
          "midi": 45,
          "name": "A2",
          "ticks": 830,
          "time": 9.651162790697674,
          "velocity": 0.11023622047244094
        },
        {
          "duration": 0.04651162790697683,
          "durationTicks": 4,
          "midi": 54,
          "name": "F#3",
          "ticks": 832,
          "time": 9.674418604651162,
          "velocity": 0.07086614173228346
        },
        {
          "duration": 0.3488372093023244,
          "durationTicks": 30,
          "midi": 59,
          "name": "B3",
          "ticks": 837,
          "time": 9.732558139534884,
          "velocity": 0.1889763779527559
        },
        {
          "duration": 0.25581395348837255,
          "durationTicks": 22,
          "midi": 74,
          "name": "D5",
          "ticks": 838,
          "time": 9.744186046511627,
          "velocity": 0.15748031496062992
        },
        {
          "duration": 0.26744186046511587,
          "durationTicks": 23,
          "midi": 52,
          "name": "E3",
          "ticks": 840,
          "time": 9.767441860465116,
          "velocity": 0.1889763779527559
        },
        {
          "duration": 0.03488372093023173,
          "durationTicks": 3,
          "midi": 53,
          "name": "F3",
          "ticks": 866,
          "time": 10.069767441860465,
          "velocity": 0.1889763779527559
        },
        {
          "duration": 0.03488372093023351,
          "durationTicks": 3,
          "midi": 53,
          "name": "F3",
          "ticks": 879,
          "time": 10.220930232558139,
          "velocity": 0.1732283464566929
        },
        {
          "duration": 0.08139534883721034,
          "durationTicks": 7,
          "midi": 59,
          "name": "B3",
          "ticks": 879,
          "time": 10.220930232558139,
          "velocity": 0.1732283464566929
        },
        {
          "duration": 0.023255813953488413,
          "durationTicks": 2,
          "midi": 57,
          "name": "A3",
          "ticks": 890,
          "time": 10.348837209302326,
          "velocity": 0.2755905511811024
        },
        {
          "duration": 0.11627906976744207,
          "durationTicks": 10,
          "midi": 71,
          "name": "B4",
          "ticks": 891,
          "time": 10.36046511627907,
          "velocity": 0.07874015748031496
        },
        {
          "duration": 0.1511627906976738,
          "durationTicks": 13,
          "midi": 89,
          "name": "F6",
          "ticks": 891,
          "time": 10.36046511627907,
          "velocity": 0.2125984251968504
        },
        {
          "duration": 0.04651162790697683,
          "durationTicks": 4,
          "midi": 59,
          "name": "B3",
          "ticks": 904,
          "time": 10.511627906976743,
          "velocity": 0.10236220472440945
        },
        {
          "duration": 0.04651162790697683,
          "durationTicks": 4,
          "midi": 62,
          "name": "D4",
          "ticks": 907,
          "time": 10.546511627906977,
          "velocity": 0.09448818897637795
        },
        {
          "duration": 0.03488372093023351,
          "durationTicks": 3,
          "midi": 59,
          "name": "B3",
          "ticks": 910,
          "time": 10.581395348837209,
          "velocity": 0.11023622047244094
        },
        {
          "duration": 0.04651162790697683,
          "durationTicks": 4,
          "midi": 55,
          "name": "G3",
          "ticks": 915,
          "time": 10.63953488372093,
          "velocity": 0.28346456692913385
        },
        {
          "duration": 0.3023255813953494,
          "durationTicks": 26,
          "midi": 66,
          "name": "F#4",
          "ticks": 917,
          "time": 10.662790697674419,
          "velocity": 0.1889763779527559
        },
        {
          "duration": 0.03488372093023173,
          "durationTicks": 3,
          "midi": 97,
          "name": "C#7",
          "ticks": 917,
          "time": 10.662790697674419,
          "velocity": 0.07874015748031496
        },
        {
          "duration": 0.3604651162790695,
          "durationTicks": 31,
          "midi": 59,
          "name": "B3",
          "ticks": 918,
          "time": 10.674418604651162,
          "velocity": 0.2047244094488189
        },
        {
          "duration": 0.4651162790697665,
          "durationTicks": 40,
          "midi": 54,
          "name": "F#3",
          "ticks": 919,
          "time": 10.686046511627907,
          "velocity": 0.2204724409448819
        },
        {
          "duration": 0.023255813953488413,
          "durationTicks": 2,
          "midi": 58,
          "name": "A#3",
          "ticks": 959,
          "time": 11.151162790697674,
          "velocity": 0.23622047244094488
        },
        {
          "duration": 0.22093023255814082,
          "durationTicks": 19,
          "midi": 59,
          "name": "B3",
          "ticks": 961,
          "time": 11.174418604651162,
          "velocity": 0.1968503937007874
        },
        {
          "duration": 0.11627906976744207,
          "durationTicks": 10,
          "midi": 54,
          "name": "F#3",
          "ticks": 974,
          "time": 11.325581395348838,
          "velocity": 0.12598425196850394
        },
        {
          "duration": 0.1744186046511622,
          "durationTicks": 15,
          "midi": 71,
          "name": "B4",
          "ticks": 985,
          "time": 11.453488372093023,
          "velocity": 0.11023622047244094
        },
        {
          "duration": 0.16279069767441712,
          "durationTicks": 14,
          "midi": 59,
          "name": "B3",
          "ticks": 986,
          "time": 11.465116279069768,
          "velocity": 0.12598425196850394
        },
        {
          "duration": 0.06976744186046524,
          "durationTicks": 6,
          "midi": 54,
          "name": "F#3",
          "ticks": 992,
          "time": 11.534883720930232,
          "velocity": 0.07874015748031496
        },
        {
          "duration": 0.023255813953488413,
          "durationTicks": 2,
          "midi": 44,
          "name": "G#2",
          "ticks": 1000,
          "time": 11.627906976744185,
          "velocity": 0.2440944881889764
        },
        {
          "duration": 0.3255813953488378,
          "durationTicks": 28,
          "midi": 55,
          "name": "G3",
          "ticks": 1000,
          "time": 11.627906976744185,
          "velocity": 0.31496062992125984
        },
        {
          "duration": 0.1627906976744189,
          "durationTicks": 14,
          "midi": 43,
          "name": "G2",
          "ticks": 1002,
          "time": 11.651162790697674,
          "velocity": 0.30708661417322836
        },
        {
          "duration": 0.04651162790697683,
          "durationTicks": 4,
          "midi": 42,
          "name": "F#2",
          "ticks": 1016,
          "time": 11.813953488372093,
          "velocity": 0.11023622047244094
        },
        {
          "duration": 0.03488372093023351,
          "durationTicks": 3,
          "midi": 43,
          "name": "G2",
          "ticks": 1020,
          "time": 11.86046511627907,
          "velocity": 0.1968503937007874
        },
        {
          "duration": 0.06976744186046524,
          "durationTicks": 6,
          "midi": 43,
          "name": "G2",
          "ticks": 1024,
          "time": 11.906976744186046,
          "velocity": 0.2440944881889764
        },
        {
          "duration": 0.04651162790697683,
          "durationTicks": 4,
          "midi": 55,
          "name": "G3",
          "ticks": 1038,
          "time": 12.069767441860465,
          "velocity": 0.1889763779527559
        },
        {
          "duration": 0.23255813953488413,
          "durationTicks": 20,
          "midi": 59,
          "name": "B3",
          "ticks": 1041,
          "time": 12.104651162790697,
          "velocity": 0.10236220472440945
        },
        {
          "duration": 0.03488372093023351,
          "durationTicks": 3,
          "midi": 43,
          "name": "G2",
          "ticks": 1049,
          "time": 12.19767441860465,
          "velocity": 0.12598425196850394
        },
        {
          "duration": 0.13953488372093048,
          "durationTicks": 12,
          "midi": 59,
          "name": "B3",
          "ticks": 1067,
          "time": 12.406976744186046,
          "velocity": 0.08661417322834646
        },
        {
          "duration": 0.05813953488372192,
          "durationTicks": 5,
          "midi": 44,
          "name": "G#2",
          "ticks": 1080,
          "time": 12.55813953488372,
          "velocity": 0.1968503937007874
        },
        {
          "duration": 0.44186046511627985,
          "durationTicks": 38,
          "midi": 57,
          "name": "A3",
          "ticks": 1080,
          "time": 12.55813953488372,
          "velocity": 0.3779527559055118
        },
        {
          "duration": 0.6627906976744189,
          "durationTicks": 57,
          "midi": 45,
          "name": "A2",
          "ticks": 1096,
          "time": 12.744186046511627,
          "velocity": 0.12598425196850394
        },
        {
          "duration": 0.04651162790697683,
          "durationTicks": 4,
          "midi": 57,
          "name": "A3",
          "ticks": 1143,
          "time": 13.290697674418604,
          "velocity": 0.16535433070866143
        },
        {
          "duration": 0.06976744186046524,
          "durationTicks": 6,
          "midi": 57,
          "name": "A3",
          "ticks": 1154,
          "time": 13.418604651162791,
          "velocity": 0.15748031496062992
        },
        {
          "duration": 0.05813953488372192,
          "durationTicks": 5,
          "midi": 45,
          "name": "A2",
          "ticks": 1155,
          "time": 13.430232558139535,
          "velocity": 0.12598425196850394
        },
        {
          "duration": 0.22093023255813904,
          "durationTicks": 19,
          "midi": 71,
          "name": "B4",
          "ticks": 1161,
          "time": 13.5,
          "velocity": 0.13385826771653545
        },
        {
          "duration": 0.08139534883721034,
          "durationTicks": 7,
          "midi": 73,
          "name": "C#5",
          "ticks": 1162,
          "time": 13.511627906976743,
          "velocity": 0.1968503937007874
        },
        {
          "duration": 0.04651162790697683,
          "durationTicks": 4,
          "midi": 80,
          "name": "G#5",
          "ticks": 1162,
          "time": 13.511627906976743,
          "velocity": 0.07874015748031496
        },
        {
          "duration": 0.15116279069767558,
          "durationTicks": 13,
          "midi": 89,
          "name": "F6",
          "ticks": 1162,
          "time": 13.511627906976743,
          "velocity": 0.18110236220472442
        },
        {
          "duration": 0.023255813953488413,
          "durationTicks": 2,
          "midi": 59,
          "name": "B3",
          "ticks": 1163,
          "time": 13.523255813953488,
          "velocity": 0.29133858267716534
        },
        {
          "duration": 0.023255813953488413,
          "durationTicks": 2,
          "midi": 59,
          "name": "B3",
          "ticks": 1166,
          "time": 13.55813953488372,
          "velocity": 0.25196850393700787
        },
        {
          "duration": 0.05813953488372192,
          "durationTicks": 5,
          "midi": 52,
          "name": "E3",
          "ticks": 1168,
          "time": 13.581395348837209,
          "velocity": 0.11023622047244094
        },
        {
          "duration": 0.023255813953488413,
          "durationTicks": 2,
          "midi": 59,
          "name": "B3",
          "ticks": 1169,
          "time": 13.593023255813954,
          "velocity": 0.2440944881889764
        },
        {
          "duration": 0.11627906976744207,
          "durationTicks": 10,
          "midi": 59,
          "name": "B3",
          "ticks": 1175,
          "time": 13.662790697674419,
          "velocity": 0.1968503937007874
        },
        {
          "duration": 0.04651162790697683,
          "durationTicks": 4,
          "midi": 74,
          "name": "D5",
          "ticks": 1179,
          "time": 13.709302325581396,
          "velocity": 0.13385826771653545
        },
        {
          "duration": 0.05813953488372192,
          "durationTicks": 5,
          "midi": 62,
          "name": "D4",
          "ticks": 1184,
          "time": 13.767441860465116,
          "velocity": 0.10236220472440945
        },
        {
          "duration": 0.023255813953488413,
          "durationTicks": 2,
          "midi": 59,
          "name": "B3",
          "ticks": 1188,
          "time": 13.813953488372093,
          "velocity": 0.31496062992125984
        },
        {
          "duration": 0.3604651162790695,
          "durationTicks": 31,
          "midi": 66,
          "name": "F#4",
          "ticks": 1190,
          "time": 13.837209302325581,
          "velocity": 0.1968503937007874
        },
        {
          "duration": 0.10465116279069875,
          "durationTicks": 9,
          "midi": 71,
          "name": "B4",
          "ticks": 1190,
          "time": 13.837209302325581,
          "velocity": 0.11811023622047244
        },
        {
          "duration": 0.023255813953488413,
          "durationTicks": 2,
          "midi": 55,
          "name": "G3",
          "ticks": 1191,
          "time": 13.848837209302326,
          "velocity": 0.2992125984251969
        },
        {
          "duration": 0.3023255813953476,
          "durationTicks": 26,
          "midi": 59,
          "name": "B3",
          "ticks": 1191,
          "time": 13.848837209302326,
          "velocity": 0.2755905511811024
        },
        {
          "duration": 0.10465116279069697,
          "durationTicks": 9,
          "midi": 54,
          "name": "F#3",
          "ticks": 1193,
          "time": 13.872093023255815,
          "velocity": 0.25196850393700787
        },
        {
          "duration": 0.03488372093023173,
          "durationTicks": 3,
          "midi": 54,
          "name": "F#3",
          "ticks": 1203,
          "time": 13.988372093023257,
          "velocity": 0.2047244094488189
        },
        {
          "duration": 0.05813953488372192,
          "durationTicks": 5,
          "midi": 54,
          "name": "F#3",
          "ticks": 1207,
          "time": 14.034883720930232,
          "velocity": 0.2283464566929134
        },
        {
          "duration": 0.09302325581395365,
          "durationTicks": 8,
          "midi": 73,
          "name": "C#5",
          "ticks": 1216,
          "time": 14.13953488372093,
          "velocity": 0.15748031496062992
        },
        {
          "duration": 0.1511627906976738,
          "durationTicks": 13,
          "midi": 89,
          "name": "F6",
          "ticks": 1216,
          "time": 14.13953488372093,
          "velocity": 0.1968503937007874
        },
        {
          "duration": 0.023255813953488413,
          "durationTicks": 2,
          "midi": 59,
          "name": "B3",
          "ticks": 1218,
          "time": 14.162790697674419,
          "velocity": 0.2440944881889764
        },
        {
          "duration": 0.023255813953488413,
          "durationTicks": 2,
          "midi": 59,
          "name": "B3",
          "ticks": 1221,
          "time": 14.19767441860465,
          "velocity": 0.23622047244094488
        },
        {
          "duration": 0.023255813953488413,
          "durationTicks": 2,
          "midi": 59,
          "name": "B3",
          "ticks": 1224,
          "time": 14.232558139534884,
          "velocity": 0.25984251968503935
        },
        {
          "duration": 0.11627906976744207,
          "durationTicks": 10,
          "midi": 59,
          "name": "B3",
          "ticks": 1227,
          "time": 14.267441860465116,
          "velocity": 0.23622047244094488
        },
        {
          "duration": 0.03488372093023351,
          "durationTicks": 3,
          "midi": 53,
          "name": "F3",
          "ticks": 1229,
          "time": 14.290697674418604,
          "velocity": 0.10236220472440945
        },
        {
          "duration": 0.13953488372093048,
          "durationTicks": 12,
          "midi": 74,
          "name": "D5",
          "ticks": 1229,
          "time": 14.290697674418604,
          "velocity": 0.08661417322834646
        },
        {
          "duration": 0.023255813953488413,
          "durationTicks": 2,
          "midi": 57,
          "name": "A3",
          "ticks": 1242,
          "time": 14.44186046511628,
          "velocity": 0.3228346456692913
        },
        {
          "duration": 0.5,
          "durationTicks": 43,
          "midi": 66,
          "name": "F#4",
          "ticks": 1243,
          "time": 14.453488372093023,
          "velocity": 0.18110236220472442
        },
        {
          "duration": 0.023255813953488413,
          "durationTicks": 2,
          "midi": 55,
          "name": "G3",
          "ticks": 1244,
          "time": 14.465116279069768,
          "velocity": 0.3858267716535433
        },
        {
          "duration": 0.38372093023255793,
          "durationTicks": 33,
          "midi": 59,
          "name": "B3",
          "ticks": 1245,
          "time": 14.476744186046512,
          "velocity": 0.18110236220472442
        },
        {
          "duration": 0.5465116279069768,
          "durationTicks": 47,
          "midi": 54,
          "name": "F#3",
          "ticks": 1248,
          "time": 14.511627906976743,
          "velocity": 0.2677165354330709
        },
        {
          "duration": 0.05813953488372192,
          "durationTicks": 5,
          "midi": 59,
          "name": "B3",
          "ticks": 1301,
          "time": 15.127906976744185,
          "velocity": 0.10236220472440945
        },
        {
          "duration": 0.023255813953488413,
          "durationTicks": 2,
          "midi": 45,
          "name": "A2",
          "ticks": 1320,
          "time": 15.348837209302326,
          "velocity": 0.31496062992125984
        },
        {
          "duration": 0.023255813953488413,
          "durationTicks": 2,
          "midi": 54,
          "name": "F#3",
          "ticks": 1320,
          "time": 15.348837209302326,
          "velocity": 0.2992125984251969
        },
        {
          "duration": 0.40697674418604635,
          "durationTicks": 35,
          "midi": 59,
          "name": "B3",
          "ticks": 1323,
          "time": 15.383720930232558,
          "velocity": 0.1968503937007874
        },
        {
          "duration": 0.44186046511627985,
          "durationTicks": 38,
          "midi": 54,
          "name": "F#3",
          "ticks": 1325,
          "time": 15.406976744186046,
          "velocity": 0.2992125984251969
        },
        {
          "duration": 0.023255813953488413,
          "durationTicks": 2,
          "midi": 44,
          "name": "G#2",
          "ticks": 1327,
          "time": 15.430232558139535,
          "velocity": 0.25196850393700787
        },
        {
          "duration": 0.19767441860465063,
          "durationTicks": 17,
          "midi": 47,
          "name": "B2",
          "ticks": 1341,
          "time": 15.593023255813954,
          "velocity": 0.11811023622047244
        },
        {
          "duration": 0.06976744186046524,
          "durationTicks": 6,
          "midi": 47,
          "name": "B2",
          "ticks": 1364,
          "time": 15.86046511627907,
          "velocity": 0.09448818897637795
        },
        {
          "duration": 0.09302325581395365,
          "durationTicks": 8,
          "midi": 54,
          "name": "F#3",
          "ticks": 1364,
          "time": 15.86046511627907,
          "velocity": 0.25984251968503935
        },
        {
          "duration": 0.13953488372093048,
          "durationTicks": 12,
          "midi": 59,
          "name": "B3",
          "ticks": 1364,
          "time": 15.86046511627907,
          "velocity": 0.11811023622047244
        },
        {
          "duration": 0.034883720930229956,
          "durationTicks": 3,
          "midi": 55,
          "name": "G3",
          "ticks": 1375,
          "time": 15.988372093023257,
          "velocity": 0.13385826771653545
        },
        {
          "duration": 0.03488372093023173,
          "durationTicks": 3,
          "midi": 57,
          "name": "A3",
          "ticks": 1385,
          "time": 16.1046511627907,
          "velocity": 0.23622047244094488
        },
        {
          "duration": 0.03488372093023173,
          "durationTicks": 3,
          "midi": 62,
          "name": "D4",
          "ticks": 1387,
          "time": 16.127906976744185,
          "velocity": 0.09448818897637795
        },
        {
          "duration": 0.05813953488372192,
          "durationTicks": 5,
          "midi": 59,
          "name": "B3",
          "ticks": 1390,
          "time": 16.162790697674417,
          "velocity": 0.12598425196850394
        },
        {
          "duration": 0.02325581395349019,
          "durationTicks": 2,
          "midi": 59,
          "name": "B3",
          "ticks": 1399,
          "time": 16.267441860465116,
          "velocity": 0.3543307086614173
        },
        {
          "duration": 0.25581395348837077,
          "durationTicks": 22,
          "midi": 64,
          "name": "E4",
          "ticks": 1399,
          "time": 16.267441860465116,
          "velocity": 0.14960629921259844
        },
        {
          "duration": 0.15116279069767558,
          "durationTicks": 13,
          "midi": 52,
          "name": "E3",
          "ticks": 1402,
          "time": 16.302325581395348,
          "velocity": 0.18110236220472442
        },
        {
          "duration": 0.46511627906976827,
          "durationTicks": 40,
          "midi": 59,
          "name": "B3",
          "ticks": 1402,
          "time": 16.302325581395348,
          "velocity": 0.31496062992125984
        },
        {
          "duration": 0.03488372093023173,
          "durationTicks": 3,
          "midi": 52,
          "name": "E3",
          "ticks": 1416,
          "time": 16.46511627906977,
          "velocity": 0.11023622047244094
        },
        {
          "duration": 0.08139534883720856,
          "durationTicks": 7,
          "midi": 52,
          "name": "E3",
          "ticks": 1420,
          "time": 16.511627906976745,
          "velocity": 0.14173228346456693
        },
        {
          "duration": 0.1860465116279073,
          "durationTicks": 16,
          "midi": 66,
          "name": "F#4",
          "ticks": 1428,
          "time": 16.6046511627907,
          "velocity": 0.11023622047244094
        },
        {
          "duration": 0.09302325581395365,
          "durationTicks": 8,
          "midi": 52,
          "name": "E3",
          "ticks": 1430,
          "time": 16.627906976744185,
          "velocity": 0.11023622047244094
        },
        {
          "duration": 0.03488372093023173,
          "durationTicks": 3,
          "midi": 60,
          "name": "C4",
          "ticks": 1442,
          "time": 16.767441860465116,
          "velocity": 0.29133858267716534
        },
        {
          "duration": 0.27906976744186096,
          "durationTicks": 24,
          "midi": 76,
          "name": "E5",
          "ticks": 1442,
          "time": 16.767441860465116,
          "velocity": 0.1732283464566929
        },
        {
          "duration": 0.26744186046511587,
          "durationTicks": 23,
          "midi": 71,
          "name": "B4",
          "ticks": 1443,
          "time": 16.77906976744186,
          "velocity": 0.12598425196850394
        },
        {
          "duration": 0.1860465116279073,
          "durationTicks": 16,
          "midi": 64,
          "name": "E4",
          "ticks": 1444,
          "time": 16.790697674418606,
          "velocity": 0.13385826771653545
        },
        {
          "duration": 0.26744186046511587,
          "durationTicks": 23,
          "midi": 59,
          "name": "B3",
          "ticks": 1445,
          "time": 16.802325581395348,
          "velocity": 0.25984251968503935
        },
        {
          "duration": 0.24418604651162923,
          "durationTicks": 21,
          "midi": 52,
          "name": "E3",
          "ticks": 1446,
          "time": 16.813953488372093,
          "velocity": 0.2047244094488189
        },
        {
          "duration": 0.12790697674418539,
          "durationTicks": 11,
          "midi": 59,
          "name": "B3",
          "ticks": 1469,
          "time": 17.08139534883721,
          "velocity": 0.1889763779527559
        },
        {
          "duration": 0.11627906976744384,
          "durationTicks": 10,
          "midi": 64,
          "name": "E4",
          "ticks": 1469,
          "time": 17.08139534883721,
          "velocity": 0.11023622047244094
        },
        {
          "duration": 0.10465116279069875,
          "durationTicks": 9,
          "midi": 52,
          "name": "E3",
          "ticks": 1470,
          "time": 17.093023255813954,
          "velocity": 0.16535433070866143
        },
        {
          "duration": 0.03488372093023173,
          "durationTicks": 3,
          "midi": 47,
          "name": "B2",
          "ticks": 1478,
          "time": 17.186046511627907,
          "velocity": 0.07874015748031496
        },
        {
          "duration": 0.2209302325581426,
          "durationTicks": 19,
          "midi": 71,
          "name": "B4",
          "ticks": 1480,
          "time": 17.209302325581394,
          "velocity": 0.2047244094488189
        },
        {
          "duration": 0.25581395348837077,
          "durationTicks": 22,
          "midi": 64,
          "name": "E4",
          "ticks": 1482,
          "time": 17.232558139534884,
          "velocity": 0.12598425196850394
        },
        {
          "duration": 0.430232558139533,
          "durationTicks": 37,
          "midi": 59,
          "name": "B3",
          "ticks": 1483,
          "time": 17.24418604651163,
          "velocity": 0.3228346456692913
        },
        {
          "duration": 0.06976744186046346,
          "durationTicks": 6,
          "midi": 52,
          "name": "E3",
          "ticks": 1487,
          "time": 17.290697674418606,
          "velocity": 0.2204724409448819
        },
        {
          "duration": 0.04651162790697683,
          "durationTicks": 4,
          "midi": 90,
          "name": "F#6",
          "ticks": 1488,
          "time": 17.302325581395348,
          "velocity": 0.07086614173228346
        },
        {
          "duration": 0.05813953488372192,
          "durationTicks": 5,
          "midi": 52,
          "name": "E3",
          "ticks": 1498,
          "time": 17.41860465116279,
          "velocity": 0.1968503937007874
        },
        {
          "duration": 0.11627906976744384,
          "durationTicks": 10,
          "midi": 52,
          "name": "E3",
          "ticks": 1504,
          "time": 17.488372093023255,
          "velocity": 0.1968503937007874
        },
        {
          "duration": 0.08139534883720856,
          "durationTicks": 7,
          "midi": 76,
          "name": "E5",
          "ticks": 1510,
          "time": 17.558139534883722,
          "velocity": 0.09448818897637795
        },
        {
          "duration": 0.05813953488371837,
          "durationTicks": 5,
          "midi": 66,
          "name": "F#4",
          "ticks": 1514,
          "time": 17.6046511627907,
          "velocity": 0.07874015748031496
        },
        {
          "duration": 0.03488372093023173,
          "durationTicks": 3,
          "midi": 52,
          "name": "E3",
          "ticks": 1517,
          "time": 17.63953488372093,
          "velocity": 0.2283464566929134
        },
        {
          "duration": 0.16279069767442067,
          "durationTicks": 14,
          "midi": 64,
          "name": "E4",
          "ticks": 1520,
          "time": 17.674418604651162,
          "velocity": 0.1889763779527559
        },
        {
          "duration": 0.2558139534883743,
          "durationTicks": 22,
          "midi": 76,
          "name": "E5",
          "ticks": 1520,
          "time": 17.674418604651162,
          "velocity": 0.1968503937007874
        },
        {
          "duration": 0.04651162790697683,
          "durationTicks": 4,
          "midi": 52,
          "name": "E3",
          "ticks": 1521,
          "time": 17.686046511627907,
          "velocity": 0.2125984251968504
        },
        {
          "duration": 0.12790697674418539,
          "durationTicks": 11,
          "midi": 59,
          "name": "B3",
          "ticks": 1522,
          "time": 17.697674418604652,
          "velocity": 0.28346456692913385
        },
        {
          "duration": 0.03488372093023173,
          "durationTicks": 3,
          "midi": 55,
          "name": "G3",
          "ticks": 1525,
          "time": 17.732558139534884,
          "velocity": 0.18110236220472442
        },
        {
          "duration": 0.04651162790697683,
          "durationTicks": 4,
          "midi": 53,
          "name": "F3",
          "ticks": 1530,
          "time": 17.790697674418606,
          "velocity": 0.14960629921259844
        },
        {
          "duration": 0.034883720930235285,
          "durationTicks": 3,
          "midi": 44,
          "name": "G#2",
          "ticks": 1535,
          "time": 17.848837209302324,
          "velocity": 0.2283464566929134
        },
        {
          "duration": 0.08139534883721211,
          "durationTicks": 7,
          "midi": 55,
          "name": "G3",
          "ticks": 1539,
          "time": 17.8953488372093,
          "velocity": 0.2677165354330709
        },
        {
          "duration": 0.03488372093023173,
          "durationTicks": 3,
          "midi": 59,
          "name": "B3",
          "ticks": 1542,
          "time": 17.930232558139537,
          "velocity": 0.15748031496062992
        },
        {
          "duration": 0.39534883720930125,
          "durationTicks": 34,
          "midi": 55,
          "name": "G3",
          "ticks": 1548,
          "time": 18,
          "velocity": 0.3779527559055118
        },
        {
          "duration": 0.03488372093023173,
          "durationTicks": 3,
          "midi": 42,
          "name": "F#2",
          "ticks": 1549,
          "time": 18.011627906976745,
          "velocity": 0.2047244094488189
        },
        {
          "duration": 0.04651162790697683,
          "durationTicks": 4,
          "midi": 62,
          "name": "D4",
          "ticks": 1558,
          "time": 18.11627906976744,
          "velocity": 0.1889763779527559
        },
        {
          "duration": 0.1860465116279073,
          "durationTicks": 16,
          "midi": 43,
          "name": "G2",
          "ticks": 1560,
          "time": 18.13953488372093,
          "velocity": 0.29133858267716534
        },
        {
          "duration": 0.1860465116279073,
          "durationTicks": 16,
          "midi": 89,
          "name": "F6",
          "ticks": 1560,
          "time": 18.13953488372093,
          "velocity": 0.18110236220472442
        },
        {
          "duration": 0.03488372093023173,
          "durationTicks": 3,
          "midi": 90,
          "name": "F#6",
          "ticks": 1561,
          "time": 18.151162790697676,
          "velocity": 0.07874015748031496
        },
        {
          "duration": 0.4534883720930232,
          "durationTicks": 39,
          "midi": 59,
          "name": "B3",
          "ticks": 1562,
          "time": 18.162790697674417,
          "velocity": 0.3543307086614173
        },
        {
          "duration": 0.06976744186046702,
          "durationTicks": 6,
          "midi": 62,
          "name": "D4",
          "ticks": 1563,
          "time": 18.174418604651162,
          "velocity": 0.14960629921259844
        },
        {
          "duration": 0.348837209302328,
          "durationTicks": 30,
          "midi": 50,
          "name": "D3",
          "ticks": 1570,
          "time": 18.25581395348837,
          "velocity": 0.2125984251968504
        },
        {
          "duration": 0.04651162790697683,
          "durationTicks": 4,
          "midi": 42,
          "name": "F#2",
          "ticks": 1576,
          "time": 18.325581395348838,
          "velocity": 0.18110236220472442
        },
        {
          "duration": 0.1860465116279073,
          "durationTicks": 16,
          "midi": 43,
          "name": "G2",
          "ticks": 1580,
          "time": 18.372093023255815,
          "velocity": 0.2440944881889764
        },
        {
          "duration": 0.12790697674418894,
          "durationTicks": 11,
          "midi": 43,
          "name": "G2",
          "ticks": 1601,
          "time": 18.61627906976744,
          "velocity": 0.12598425196850394
        },
        {
          "duration": 0.11627906976744384,
          "durationTicks": 10,
          "midi": 55,
          "name": "G3",
          "ticks": 1602,
          "time": 18.627906976744185,
          "velocity": 0.3937007874015748
        },
        {
          "duration": 0.03488372093023173,
          "durationTicks": 3,
          "midi": 59,
          "name": "B3",
          "ticks": 1604,
          "time": 18.651162790697676,
          "velocity": 0.2047244094488189
        },
        {
          "duration": 0.08139534883720856,
          "durationTicks": 7,
          "midi": 59,
          "name": "B3",
          "ticks": 1608,
          "time": 18.697674418604652,
          "velocity": 0.2125984251968504
        },
        {
          "duration": 0.08139534883720856,
          "durationTicks": 7,
          "midi": 55,
          "name": "G3",
          "ticks": 1616,
          "time": 18.790697674418606,
          "velocity": 0.25196850393700787
        },
        {
          "duration": 0.06976744186046346,
          "durationTicks": 6,
          "midi": 59,
          "name": "B3",
          "ticks": 1619,
          "time": 18.825581395348838,
          "velocity": 0.10236220472440945
        },
        {
          "duration": 0.11627906976744029,
          "durationTicks": 10,
          "midi": 55,
          "name": "G3",
          "ticks": 1626,
          "time": 18.906976744186046,
          "velocity": 0.2992125984251969
        },
        {
          "duration": 0.12790697674418539,
          "durationTicks": 11,
          "midi": 59,
          "name": "B3",
          "ticks": 1627,
          "time": 18.91860465116279,
          "velocity": 0.23622047244094488
        },
        {
          "duration": 0.05813953488371837,
          "durationTicks": 5,
          "midi": 43,
          "name": "G2",
          "ticks": 1628,
          "time": 18.930232558139537,
          "velocity": 0.14960629921259844
        },
        {
          "duration": 0.3372093023255829,
          "durationTicks": 29,
          "midi": 55,
          "name": "G3",
          "ticks": 1638,
          "time": 19.046511627906977,
          "velocity": 0.4094488188976378
        },
        {
          "duration": 0.04651162790697683,
          "durationTicks": 4,
          "midi": 62,
          "name": "D4",
          "ticks": 1638,
          "time": 19.046511627906977,
          "velocity": 0.2125984251968504
        },
        {
          "duration": 0.03488372093023173,
          "durationTicks": 3,
          "midi": 71,
          "name": "B4",
          "ticks": 1639,
          "time": 19.058139534883722,
          "velocity": 0.10236220472440945
        },
        {
          "duration": 0.1744186046511622,
          "durationTicks": 15,
          "midi": 43,
          "name": "G2",
          "ticks": 1641,
          "time": 19.08139534883721,
          "velocity": 0.2755905511811024
        },
        {
          "duration": 0.26744186046511587,
          "durationTicks": 23,
          "midi": 59,
          "name": "B3",
          "ticks": 1643,
          "time": 19.1046511627907,
          "velocity": 0.1732283464566929
        },
        {
          "duration": 0.04651162790697683,
          "durationTicks": 4,
          "midi": 62,
          "name": "D4",
          "ticks": 1643,
          "time": 19.1046511627907,
          "velocity": 0.11023622047244094
        },
        {
          "duration": 0.09302325581395365,
          "durationTicks": 8,
          "midi": 62,
          "name": "D4",
          "ticks": 1650,
          "time": 19.186046511627907,
          "velocity": 0.10236220472440945
        },
        {
          "duration": 0.09302325581395365,
          "durationTicks": 8,
          "midi": 50,
          "name": "D3",
          "ticks": 1654,
          "time": 19.232558139534884,
          "velocity": 0.15748031496062992
        },
        {
          "duration": 0.034883720930235285,
          "durationTicks": 3,
          "midi": 42,
          "name": "F#2",
          "ticks": 1656,
          "time": 19.25581395348837,
          "velocity": 0.08661417322834646
        },
        {
          "duration": 0.1744186046511622,
          "durationTicks": 15,
          "midi": 43,
          "name": "G2",
          "ticks": 1659,
          "time": 19.290697674418606,
          "velocity": 0.25196850393700787
        },
        {
          "duration": 0.023255813953486637,
          "durationTicks": 2,
          "midi": 56,
          "name": "G#3",
          "ticks": 1667,
          "time": 19.38372093023256,
          "velocity": 0.36220472440944884
        },
        {
          "duration": 0.06976744186046702,
          "durationTicks": 6,
          "midi": 55,
          "name": "G3",
          "ticks": 1669,
          "time": 19.406976744186046,
          "velocity": 0.33070866141732286
        },
        {
          "duration": 0.06976744186046346,
          "durationTicks": 6,
          "midi": 59,
          "name": "B3",
          "ticks": 1671,
          "time": 19.430232558139537,
          "velocity": 0.11023622047244094
        },
        {
          "duration": 0.03488372093023173,
          "durationTicks": 3,
          "midi": 43,
          "name": "G2",
          "ticks": 1675,
          "time": 19.476744186046513,
          "velocity": 0.10236220472440945
        },
        {
          "duration": 0.08139534883720856,
          "durationTicks": 7,
          "midi": 55,
          "name": "G3",
          "ticks": 1678,
          "time": 19.511627906976745,
          "velocity": 0.28346456692913385
        },
        {
          "duration": 0.06976744186046346,
          "durationTicks": 6,
          "midi": 64,
          "name": "E4",
          "ticks": 1678,
          "time": 19.511627906976745,
          "velocity": 0.10236220472440945
        },
        {
          "duration": 0.15116279069767202,
          "durationTicks": 13,
          "midi": 76,
          "name": "E5",
          "ticks": 1678,
          "time": 19.511627906976745,
          "velocity": 0.10236220472440945
        },
        {
          "duration": 0.13953488372093048,
          "durationTicks": 12,
          "midi": 43,
          "name": "G2",
          "ticks": 1679,
          "time": 19.523255813953487,
          "velocity": 0.14960629921259844
        },
        {
          "duration": 0.25581395348837077,
          "durationTicks": 22,
          "midi": 59,
          "name": "B3",
          "ticks": 1682,
          "time": 19.558139534883722,
          "velocity": 0.13385826771653545
        },
        {
          "duration": 0.08139534883720856,
          "durationTicks": 7,
          "midi": 43,
          "name": "G2",
          "ticks": 1692,
          "time": 19.674418604651162,
          "velocity": 0.12598425196850394
        },
        {
          "duration": 0.03488372093023173,
          "durationTicks": 3,
          "midi": 52,
          "name": "E3",
          "ticks": 1700,
          "time": 19.767441860465116,
          "velocity": 0.14960629921259844
        },
        {
          "duration": 0.03488372093023173,
          "durationTicks": 3,
          "midi": 55,
          "name": "G3",
          "ticks": 1704,
          "time": 19.813953488372093,
          "velocity": 0.25984251968503935
        },
        {
          "duration": 0.05813953488372192,
          "durationTicks": 5,
          "midi": 52,
          "name": "E3",
          "ticks": 1708,
          "time": 19.86046511627907,
          "velocity": 0.12598425196850394
        },
        {
          "duration": 0.02325581395349019,
          "durationTicks": 2,
          "midi": 59,
          "name": "B3",
          "ticks": 1708,
          "time": 19.86046511627907,
          "velocity": 0.30708661417322836
        },
        {
          "duration": 0.05813953488371837,
          "durationTicks": 5,
          "midi": 61,
          "name": "C#4",
          "ticks": 1710,
          "time": 19.88372093023256,
          "velocity": 0.23622047244094488
        },
        {
          "duration": 0.034883720930235285,
          "durationTicks": 3,
          "midi": 60,
          "name": "C4",
          "ticks": 1715,
          "time": 19.941860465116278,
          "velocity": 0.2125984251968504
        },
        {
          "duration": 0.02325581395349019,
          "durationTicks": 2,
          "midi": 63,
          "name": "D#4",
          "ticks": 1715,
          "time": 19.941860465116278,
          "velocity": 0.2283464566929134
        },
        {
          "duration": 0.04651162790697683,
          "durationTicks": 4,
          "midi": 44,
          "name": "G#2",
          "ticks": 1717,
          "time": 19.96511627906977,
          "velocity": 0.2440944881889764
        },
        {
          "duration": 0.04651162790697683,
          "durationTicks": 4,
          "midi": 57,
          "name": "A3",
          "ticks": 1717,
          "time": 19.96511627906977,
          "velocity": 0.33858267716535434
        },
        {
          "duration": 0.05813953488371837,
          "durationTicks": 5,
          "midi": 64,
          "name": "E4",
          "ticks": 1717,
          "time": 19.96511627906977,
          "velocity": 0.23622047244094488
        },
        {
          "duration": 0.19767441860464885,
          "durationTicks": 17,
          "midi": 73,
          "name": "C#5",
          "ticks": 1717,
          "time": 19.96511627906977,
          "velocity": 0.14173228346456693
        },
        {
          "duration": 0.20930232558139394,
          "durationTicks": 18,
          "midi": 89,
          "name": "F6",
          "ticks": 1717,
          "time": 19.96511627906977,
          "velocity": 0.2204724409448819
        },
        {
          "duration": 0.44186046511628163,
          "durationTicks": 38,
          "midi": 61,
          "name": "C#4",
          "ticks": 1719,
          "time": 19.988372093023255,
          "velocity": 0.2755905511811024
        },
        {
          "duration": 0.41860465116279144,
          "durationTicks": 36,
          "midi": 52,
          "name": "E3",
          "ticks": 1720,
          "time": 20,
          "velocity": 0.2047244094488189
        },
        {
          "duration": 0.06976744186046702,
          "durationTicks": 6,
          "midi": 57,
          "name": "A3",
          "ticks": 1722,
          "time": 20.023255813953487,
          "velocity": 0.2283464566929134
        },
        {
          "duration": 0.03488372093023173,
          "durationTicks": 3,
          "midi": 45,
          "name": "A2",
          "ticks": 1727,
          "time": 20.08139534883721,
          "velocity": 0.14960629921259844
        },
        {
          "duration": 0.05813953488371837,
          "durationTicks": 5,
          "midi": 57,
          "name": "A3",
          "ticks": 1729,
          "time": 20.1046511627907,
          "velocity": 0.1732283464566929
        },
        {
          "duration": 0.29069767441860606,
          "durationTicks": 25,
          "midi": 45,
          "name": "A2",
          "ticks": 1731,
          "time": 20.127906976744185,
          "velocity": 0.15748031496062992
        },
        {
          "duration": 0.11627906976744384,
          "durationTicks": 10,
          "midi": 61,
          "name": "C#4",
          "ticks": 1758,
          "time": 20.441860465116278,
          "velocity": 0.2677165354330709
        },
        {
          "duration": 0.09302325581395365,
          "durationTicks": 8,
          "midi": 89,
          "name": "F6",
          "ticks": 1758,
          "time": 20.441860465116278,
          "velocity": 0.12598425196850394
        },
        {
          "duration": 0.04651162790697683,
          "durationTicks": 4,
          "midi": 44,
          "name": "G#2",
          "ticks": 1760,
          "time": 20.46511627906977,
          "velocity": 0.18110236220472442
        },
        {
          "duration": 0.04651162790697683,
          "durationTicks": 4,
          "midi": 45,
          "name": "A2",
          "ticks": 1766,
          "time": 20.53488372093023,
          "velocity": 0.12598425196850394
        },
        {
          "duration": 0.02325581395349019,
          "durationTicks": 2,
          "midi": 58,
          "name": "A#3",
          "ticks": 1769,
          "time": 20.569767441860463,
          "velocity": 0.23622047244094488
        },
        {
          "duration": 0.12790697674418539,
          "durationTicks": 11,
          "midi": 52,
          "name": "E3",
          "ticks": 1770,
          "time": 20.58139534883721,
          "velocity": 0.15748031496062992
        },
        {
          "duration": 0.05813953488371837,
          "durationTicks": 5,
          "midi": 45,
          "name": "A2",
          "ticks": 1772,
          "time": 20.6046511627907,
          "velocity": 0.18110236220472442
        },
        {
          "duration": 0.15116279069767558,
          "durationTicks": 13,
          "midi": 45,
          "name": "A2",
          "ticks": 1779,
          "time": 20.686046511627907,
          "velocity": 0.15748031496062992
        },
        {
          "duration": 0.03488372093023173,
          "durationTicks": 3,
          "midi": 58,
          "name": "A#3",
          "ticks": 1779,
          "time": 20.686046511627907,
          "velocity": 0.2283464566929134
        },
        {
          "duration": 0.10465116279069875,
          "durationTicks": 9,
          "midi": 73,
          "name": "C#5",
          "ticks": 1782,
          "time": 20.72093023255814,
          "velocity": 0.10236220472440945
        },
        {
          "duration": 0.04651162790697683,
          "durationTicks": 4,
          "midi": 59,
          "name": "B3",
          "ticks": 1787,
          "time": 20.77906976744186,
          "velocity": 0.23622047244094488
        },
        {
          "duration": 0.023255813953486637,
          "durationTicks": 2,
          "midi": 59,
          "name": "B3",
          "ticks": 1792,
          "time": 20.837209302325583,
          "velocity": 0.3228346456692913
        },
        {
          "duration": 0.3255813953488378,
          "durationTicks": 28,
          "midi": 73,
          "name": "C#5",
          "ticks": 1793,
          "time": 20.848837209302324,
          "velocity": 0.28346456692913385
        },
        {
          "duration": 0.15116279069767558,
          "durationTicks": 13,
          "midi": 89,
          "name": "F6",
          "ticks": 1794,
          "time": 20.86046511627907,
          "velocity": 0.14173228346456693
        },
        {
          "duration": 0.04651162790697683,
          "durationTicks": 4,
          "midi": 45,
          "name": "A2",
          "ticks": 1795,
          "time": 20.872093023255815,
          "velocity": 0.2204724409448819
        },
        {
          "duration": 0.1744186046511622,
          "durationTicks": 15,
          "midi": 61,
          "name": "C#4",
          "ticks": 1795,
          "time": 20.872093023255815,
          "velocity": 0.2755905511811024
        },
        {
          "duration": 0.12790697674418539,
          "durationTicks": 11,
          "midi": 52,
          "name": "E3",
          "ticks": 1796,
          "time": 20.88372093023256,
          "velocity": 0.25196850393700787
        },
        {
          "duration": 0.08139534883720856,
          "durationTicks": 7,
          "midi": 45,
          "name": "A2",
          "ticks": 1801,
          "time": 20.941860465116278,
          "velocity": 0.1889763779527559
        },
        {
          "duration": 0.023255813953486637,
          "durationTicks": 2,
          "midi": 44,
          "name": "G#2",
          "ticks": 1811,
          "time": 21.058139534883722,
          "velocity": 0.2283464566929134
        },
        {
          "duration": 0.2093023255813975,
          "durationTicks": 18,
          "midi": 43,
          "name": "G2",
          "ticks": 1813,
          "time": 21.08139534883721,
          "velocity": 0.1889763779527559
        },
        {
          "duration": 0.15116279069767558,
          "durationTicks": 13,
          "midi": 62,
          "name": "D4",
          "ticks": 1849,
          "time": 21.5,
          "velocity": 0.1732283464566929
        },
        {
          "duration": 0.09302325581395365,
          "durationTicks": 8,
          "midi": 61,
          "name": "C#4",
          "ticks": 1865,
          "time": 21.686046511627907,
          "velocity": 0.10236220472440945
        },
        {
          "duration": 0.023255813953486637,
          "durationTicks": 2,
          "midi": 55,
          "name": "G3",
          "ticks": 1878,
          "time": 21.837209302325583,
          "velocity": 0.3228346456692913
        },
        {
          "duration": 0.430232558139533,
          "durationTicks": 37,
          "midi": 59,
          "name": "B3",
          "ticks": 1878,
          "time": 21.837209302325583,
          "velocity": 0.25196850393700787
        },
        {
          "duration": 0.46511627906976827,
          "durationTicks": 40,
          "midi": 66,
          "name": "F#4",
          "ticks": 1879,
          "time": 21.848837209302324,
          "velocity": 0.14173228346456693
        },
        {
          "duration": 0.1976744186046524,
          "durationTicks": 17,
          "midi": 54,
          "name": "F#3",
          "ticks": 1880,
          "time": 21.86046511627907,
          "velocity": 0.2204724409448819
        },
        {
          "duration": 0.04651162790697683,
          "durationTicks": 4,
          "midi": 74,
          "name": "D5",
          "ticks": 1882,
          "time": 21.88372093023256,
          "velocity": 0.07874015748031496
        },
        {
          "duration": 0.04651162790697683,
          "durationTicks": 4,
          "midi": 62,
          "name": "D4",
          "ticks": 1896,
          "time": 22.046511627906977,
          "velocity": 0.07874015748031496
        },
        {
          "duration": 0.10465116279069875,
          "durationTicks": 9,
          "midi": 54,
          "name": "F#3",
          "ticks": 1902,
          "time": 22.11627906976744,
          "velocity": 0.11811023622047244
        },
        {
          "duration": 0.3023255813953476,
          "durationTicks": 26,
          "midi": 59,
          "name": "B3",
          "ticks": 1916,
          "time": 22.27906976744186,
          "velocity": 0.28346456692913385
        },
        {
          "duration": 0.0930232558139501,
          "durationTicks": 8,
          "midi": 74,
          "name": "D5",
          "ticks": 1929,
          "time": 22.430232558139537,
          "velocity": 0.08661417322834646
        },
        {
          "duration": 0.04651162790697683,
          "durationTicks": 4,
          "midi": 62,
          "name": "D4",
          "ticks": 1934,
          "time": 22.488372093023255,
          "velocity": 0.09448818897637795
        },
        {
          "duration": 0.03488372093023173,
          "durationTicks": 3,
          "midi": 60,
          "name": "C4",
          "ticks": 1942,
          "time": 22.58139534883721,
          "velocity": 0.2204724409448819
        },
        {
          "duration": 0.04651162790697683,
          "durationTicks": 4,
          "midi": 61,
          "name": "C#4",
          "ticks": 1946,
          "time": 22.627906976744185,
          "velocity": 0.11811023622047244
        },
        {
          "duration": 0.03488372093023173,
          "durationTicks": 3,
          "midi": 56,
          "name": "G#3",
          "ticks": 1947,
          "time": 22.63953488372093,
          "velocity": 0.16535433070866143
        },
        {
          "duration": 0.02325581395349019,
          "durationTicks": 2,
          "midi": 56,
          "name": "G#3",
          "ticks": 1953,
          "time": 22.709302325581394,
          "velocity": 0.36220472440944884
        },
        {
          "duration": 0.5697674418604635,
          "durationTicks": 49,
          "midi": 55,
          "name": "G3",
          "ticks": 1955,
          "time": 22.732558139534884,
          "velocity": 0.41732283464566927
        },
        {
          "duration": 0.19767441860464885,
          "durationTicks": 17,
          "midi": 43,
          "name": "G2",
          "ticks": 1956,
          "time": 22.74418604651163,
          "velocity": 0.23622047244094488
        },
        {
          "duration": 0.5116279069767451,
          "durationTicks": 44,
          "midi": 62,
          "name": "D4",
          "ticks": 1958,
          "time": 22.767441860465116,
          "velocity": 0.1968503937007874
        },
        {
          "duration": 0.034883720930235285,
          "durationTicks": 3,
          "midi": 42,
          "name": "F#2",
          "ticks": 1973,
          "time": 22.941860465116278,
          "velocity": 0.09448818897637795
        },
        {
          "duration": 0.1744186046511622,
          "durationTicks": 15,
          "midi": 43,
          "name": "G2",
          "ticks": 1976,
          "time": 22.976744186046513,
          "velocity": 0.1732283464566929
        },
        {
          "duration": 0.15116279069767558,
          "durationTicks": 13,
          "midi": 61,
          "name": "C#4",
          "ticks": 2005,
          "time": 23.313953488372093,
          "velocity": 0.14960629921259844
        },
        {
          "duration": 0.13953488372093048,
          "durationTicks": 12,
          "midi": 55,
          "name": "G3",
          "ticks": 2006,
          "time": 23.325581395348838,
          "velocity": 0.2204724409448819
        },
        {
          "duration": 0.12790697674418539,
          "durationTicks": 11,
          "midi": 89,
          "name": "F6",
          "ticks": 2006,
          "time": 23.325581395348838,
          "velocity": 0.12598425196850394
        },
        {
          "duration": 0.04651162790697683,
          "durationTicks": 4,
          "midi": 62,
          "name": "D4",
          "ticks": 2020,
          "time": 23.488372093023255,
          "velocity": 0.07874015748031496
        },
        {
          "duration": 0.06976744186046346,
          "durationTicks": 6,
          "midi": 55,
          "name": "G3",
          "ticks": 2022,
          "time": 23.511627906976745,
          "velocity": 0.2047244094488189
        },
        {
          "duration": 0.06976744186046346,
          "durationTicks": 6,
          "midi": 74,
          "name": "D5",
          "ticks": 2022,
          "time": 23.511627906976745,
          "velocity": 0.16535433070866143
        },
        {
          "duration": 0.03488372093023173,
          "durationTicks": 3,
          "midi": 56,
          "name": "G#3",
          "ticks": 2028,
          "time": 23.58139534883721,
          "velocity": 0.14960629921259844
        },
        {
          "duration": 0.23255813953488413,
          "durationTicks": 20,
          "midi": 57,
          "name": "A3",
          "ticks": 2031,
          "time": 23.61627906976744,
          "velocity": 0.3937007874015748
        },
        {
          "duration": 0.06976744186046346,
          "durationTicks": 6,
          "midi": 76,
          "name": "E5",
          "ticks": 2033,
          "time": 23.63953488372093,
          "velocity": 0.08661417322834646
        },
        {
          "duration": 0.04651162790697683,
          "durationTicks": 4,
          "midi": 45,
          "name": "A2",
          "ticks": 2035,
          "time": 23.662790697674417,
          "velocity": 0.08661417322834646
        },
        {
          "duration": 0.2209302325581426,
          "durationTicks": 19,
          "midi": 61,
          "name": "C#4",
          "ticks": 2035,
          "time": 23.662790697674417,
          "velocity": 0.11023622047244094
        },
        {
          "duration": 0.13953488372093048,
          "durationTicks": 12,
          "midi": 76,
          "name": "E5",
          "ticks": 2043,
          "time": 23.75581395348837,
          "velocity": 0.11023622047244094
        },
        {
          "duration": 0.05813953488372192,
          "durationTicks": 5,
          "midi": 57,
          "name": "A3",
          "ticks": 2052,
          "time": 23.86046511627907,
          "velocity": 0.2204724409448819
        },
        {
          "duration": 0.1046511627906952,
          "durationTicks": 9,
          "midi": 57,
          "name": "A3",
          "ticks": 2058,
          "time": 23.930232558139537,
          "velocity": 0.2677165354330709
        },
        {
          "duration": 0.2558139534883743,
          "durationTicks": 22,
          "midi": 62,
          "name": "D4",
          "ticks": 2059,
          "time": 23.941860465116278,
          "velocity": 0.2047244094488189
        },
        {
          "duration": 0.03488372093023173,
          "durationTicks": 3,
          "midi": 45,
          "name": "A2",
          "ticks": 2063,
          "time": 23.988372093023255,
          "velocity": 0.09448818897637795
        },
        {
          "duration": 0.1976744186046524,
          "durationTicks": 17,
          "midi": 76,
          "name": "E5",
          "ticks": 2067,
          "time": 24.03488372093023,
          "velocity": 0.09448818897637795
        },
        {
          "duration": 0.04651162790697683,
          "durationTicks": 4,
          "midi": 45,
          "name": "A2",
          "ticks": 2069,
          "time": 24.058139534883722,
          "velocity": 0.11023622047244094
        },
        {
          "duration": 0.13953488372093048,
          "durationTicks": 12,
          "midi": 52,
          "name": "E3",
          "ticks": 2071,
          "time": 24.08139534883721,
          "velocity": 0.11023622047244094
        },
        {
          "duration": 0.27906976744186096,
          "durationTicks": 24,
          "midi": 61,
          "name": "C#4",
          "ticks": 2084,
          "time": 24.232558139534884,
          "velocity": 0.1968503937007874
        },
        {
          "duration": 0.023255813953486637,
          "durationTicks": 2,
          "midi": 56,
          "name": "G#3",
          "ticks": 2085,
          "time": 24.24418604651163,
          "velocity": 0.3228346456692913
        },
        {
          "duration": 0.11627906976744029,
          "durationTicks": 10,
          "midi": 89,
          "name": "F6",
          "ticks": 2085,
          "time": 24.24418604651163,
          "velocity": 0.13385826771653545
        },
        {
          "duration": 0.24418604651162923,
          "durationTicks": 21,
          "midi": 57,
          "name": "A3",
          "ticks": 2090,
          "time": 24.302325581395348,
          "velocity": 0.25196850393700787
        },
        {
          "duration": 0.16279069767441712,
          "durationTicks": 14,
          "midi": 64,
          "name": "E4",
          "ticks": 2112,
          "time": 24.558139534883722,
          "velocity": 0.12598425196850394
        },
        {
          "duration": 0.6395348837209305,
          "durationTicks": 55,
          "midi": 68,
          "name": "G#4",
          "ticks": 2112,
          "time": 24.558139534883722,
          "velocity": 0.16535433070866143
        },
        {
          "duration": 0.06976744186046702,
          "durationTicks": 6,
          "midi": 56,
          "name": "G#3",
          "ticks": 2113,
          "time": 24.569767441860463,
          "velocity": 0.4094488188976378
        },
        {
          "duration": 0.06976744186046346,
          "durationTicks": 6,
          "midi": 56,
          "name": "G#3",
          "ticks": 2120,
          "time": 24.651162790697676,
          "velocity": 0.2440944881889764
        },
        {
          "duration": 0.05813953488372192,
          "durationTicks": 5,
          "midi": 56,
          "name": "G#3",
          "ticks": 2127,
          "time": 24.732558139534884,
          "velocity": 0.1968503937007874
        },
        {
          "duration": 0.04651162790697683,
          "durationTicks": 4,
          "midi": 52,
          "name": "E3",
          "ticks": 2132,
          "time": 24.790697674418606,
          "velocity": 0.10236220472440945
        },
        {
          "duration": 0.04651162790697683,
          "durationTicks": 4,
          "midi": 57,
          "name": "A3",
          "ticks": 2132,
          "time": 24.790697674418606,
          "velocity": 0.2047244094488189
        },
        {
          "duration": 0.03488372093023173,
          "durationTicks": 3,
          "midi": 56,
          "name": "G#3",
          "ticks": 2136,
          "time": 24.837209302325583,
          "velocity": 0.16535433070866143
        },
        {
          "duration": 0.11627906976744029,
          "durationTicks": 10,
          "midi": 52,
          "name": "E3",
          "ticks": 2140,
          "time": 24.88372093023256,
          "velocity": 0.07874015748031496
        },
        {
          "duration": 0.10465116279069875,
          "durationTicks": 9,
          "midi": 56,
          "name": "G#3",
          "ticks": 2150,
          "time": 25,
          "velocity": 0.36220472440944884
        },
        {
          "duration": 0.13953488372093048,
          "durationTicks": 12,
          "midi": 59,
          "name": "B3",
          "ticks": 2163,
          "time": 25.151162790697676,
          "velocity": 0.29133858267716534
        },
        {
          "duration": 0.03488372093023173,
          "durationTicks": 3,
          "midi": 57,
          "name": "A3",
          "ticks": 2175,
          "time": 25.290697674418606,
          "velocity": 0.3700787401574803
        },
        {
          "duration": 0.023255813953486637,
          "durationTicks": 2,
          "midi": 57,
          "name": "A3",
          "ticks": 2179,
          "time": 25.337209302325583,
          "velocity": 0.31496062992125984
        },
        {
          "duration": 0.023255813953486637,
          "durationTicks": 2,
          "midi": 57,
          "name": "A3",
          "ticks": 2182,
          "time": 25.372093023255815,
          "velocity": 0.25196850393700787
        },
        {
          "duration": 0.02325581395349019,
          "durationTicks": 2,
          "midi": 58,
          "name": "A#3",
          "ticks": 2184,
          "time": 25.3953488372093,
          "velocity": 0.2283464566929134
        },
        {
          "duration": 0.04651162790697683,
          "durationTicks": 4,
          "midi": 57,
          "name": "A3",
          "ticks": 2186,
          "time": 25.41860465116279,
          "velocity": 0.33858267716535434
        },
        {
          "duration": 0.23255813953488413,
          "durationTicks": 20,
          "midi": 62,
          "name": "D4",
          "ticks": 2188,
          "time": 25.441860465116278,
          "velocity": 0.2047244094488189
        },
        {
          "duration": 0.11627906976744384,
          "durationTicks": 10,
          "midi": 67,
          "name": "G4",
          "ticks": 2188,
          "time": 25.441860465116278,
          "velocity": 0.10236220472440945
        },
        {
          "duration": 0.04651162790697683,
          "durationTicks": 4,
          "midi": 55,
          "name": "G3",
          "ticks": 2190,
          "time": 25.46511627906977,
          "velocity": 0.3543307086614173
        },
        {
          "duration": 0.1744186046511622,
          "durationTicks": 15,
          "midi": 43,
          "name": "G2",
          "ticks": 2193,
          "time": 25.5,
          "velocity": 0.1889763779527559
        },
        {
          "duration": 0.2209302325581426,
          "durationTicks": 19,
          "midi": 55,
          "name": "G3",
          "ticks": 2195,
          "time": 25.523255813953487,
          "velocity": 0.2283464566929134
        },
        {
          "duration": 0.034883720930235285,
          "durationTicks": 3,
          "midi": 59,
          "name": "B3",
          "ticks": 2203,
          "time": 25.61627906976744,
          "velocity": 0.14173228346456693
        },
        {
          "duration": 0.1976744186046524,
          "durationTicks": 17,
          "midi": 59,
          "name": "B3",
          "ticks": 2208,
          "time": 25.674418604651162,
          "velocity": 0.14173228346456693
        },
        {
          "duration": 0.15116279069767202,
          "durationTicks": 13,
          "midi": 43,
          "name": "G2",
          "ticks": 2214,
          "time": 25.74418604651163,
          "velocity": 0.12598425196850394
        },
        {
          "duration": 0.19767441860464885,
          "durationTicks": 17,
          "midi": 55,
          "name": "G3",
          "ticks": 2225,
          "time": 25.872093023255815,
          "velocity": 0.3543307086614173
        },
        {
          "duration": 0.10465116279069875,
          "durationTicks": 9,
          "midi": 55,
          "name": "G3",
          "ticks": 2244,
          "time": 26.093023255813954,
          "velocity": 0.31496062992125984
        },
        {
          "duration": 0.04651162790697683,
          "durationTicks": 4,
          "midi": 59,
          "name": "B3",
          "ticks": 2246,
          "time": 26.11627906976744,
          "velocity": 0.10236220472440945
        },
        {
          "duration": 0.10465116279069875,
          "durationTicks": 9,
          "midi": 57,
          "name": "A3",
          "ticks": 2255,
          "time": 26.22093023255814,
          "velocity": 0.3937007874015748
        },
        {
          "duration": 0.023255813953486637,
          "durationTicks": 2,
          "midi": 56,
          "name": "G#3",
          "ticks": 2264,
          "time": 26.325581395348838,
          "velocity": 0.23622047244094488
        },
        {
          "duration": 0.02325581395349019,
          "durationTicks": 2,
          "midi": 57,
          "name": "A3",
          "ticks": 2266,
          "time": 26.348837209302324,
          "velocity": 0.3228346456692913
        },
        {
          "duration": 0.3023255813953476,
          "durationTicks": 26,
          "midi": 67,
          "name": "G4",
          "ticks": 2267,
          "time": 26.36046511627907,
          "velocity": 0.07874015748031496
        },
        {
          "duration": 0.12790697674418539,
          "durationTicks": 11,
          "midi": 55,
          "name": "G3",
          "ticks": 2269,
          "time": 26.38372093023256,
          "velocity": 0.3700787401574803
        },
        {
          "duration": 0.05813953488371837,
          "durationTicks": 5,
          "midi": 74,
          "name": "D5",
          "ticks": 2273,
          "time": 26.430232558139537,
          "velocity": 0.14960629921259844
        },
        {
          "duration": 0.15116279069767558,
          "durationTicks": 13,
          "midi": 55,
          "name": "G3",
          "ticks": 2281,
          "time": 26.523255813953487,
          "velocity": 0.2755905511811024
        },
        {
          "duration": 0.04651162790697683,
          "durationTicks": 4,
          "midi": 74,
          "name": "D5",
          "ticks": 2281,
          "time": 26.523255813953487,
          "velocity": 0.10236220472440945
        },
        {
          "duration": 0.03488372093023173,
          "durationTicks": 3,
          "midi": 59,
          "name": "B3",
          "ticks": 2283,
          "time": 26.546511627906977,
          "velocity": 0.10236220472440945
        },
        {
          "duration": 0.02325581395349019,
          "durationTicks": 2,
          "midi": 56,
          "name": "G#3",
          "ticks": 2294,
          "time": 26.674418604651162,
          "velocity": 0.23622047244094488
        },
        {
          "duration": 0.1976744186046524,
          "durationTicks": 17,
          "midi": 64,
          "name": "E4",
          "ticks": 2305,
          "time": 26.802325581395348,
          "velocity": 0.14173228346456693
        },
        {
          "duration": 0.10465116279069875,
          "durationTicks": 9,
          "midi": 52,
          "name": "E3",
          "ticks": 2310,
          "time": 26.86046511627907,
          "velocity": 0.12598425196850394
        },
        {
          "duration": 0.12790697674418539,
          "durationTicks": 11,
          "midi": 76,
          "name": "E5",
          "ticks": 2320,
          "time": 26.976744186046513,
          "velocity": 0.14960629921259844
        },
        {
          "duration": 0.02325581395349019,
          "durationTicks": 2,
          "midi": 56,
          "name": "G#3",
          "ticks": 2321,
          "time": 26.988372093023255,
          "velocity": 0.33858267716535434
        },
        {
          "duration": 0.05813953488372192,
          "durationTicks": 5,
          "midi": 57,
          "name": "A3",
          "ticks": 2325,
          "time": 27.03488372093023,
          "velocity": 0.23622047244094488
        },
        {
          "duration": 0.27906976744186096,
          "durationTicks": 24,
          "midi": 61,
          "name": "C#4",
          "ticks": 2344,
          "time": 27.25581395348837,
          "velocity": 0.13385826771653545
        },
        {
          "duration": 0.02325581395349019,
          "durationTicks": 2,
          "midi": 56,
          "name": "G#3",
          "ticks": 2345,
          "time": 27.267441860465116,
          "velocity": 0.4251968503937008
        },
        {
          "duration": 0.08139534883720856,
          "durationTicks": 7,
          "midi": 89,
          "name": "F6",
          "ticks": 2345,
          "time": 27.267441860465116,
          "velocity": 0.09448818897637795
        },
        {
          "duration": 0.04651162790697683,
          "durationTicks": 4,
          "midi": 44,
          "name": "G#2",
          "ticks": 2346,
          "time": 27.27906976744186,
          "velocity": 0.11811023622047244
        },
        {
          "duration": 0.09302325581395365,
          "durationTicks": 8,
          "midi": 64,
          "name": "E4",
          "ticks": 2346,
          "time": 27.27906976744186,
          "velocity": 0.07086614173228346
        },
        {
          "duration": 0.023255813953486637,
          "durationTicks": 2,
          "midi": 57,
          "name": "A3",
          "ticks": 2347,
          "time": 27.290697674418606,
          "velocity": 0.33858267716535434
        },
        {
          "duration": 0.15116279069767558,
          "durationTicks": 13,
          "midi": 57,
          "name": "A3",
          "ticks": 2350,
          "time": 27.325581395348838,
          "velocity": 0.30708661417322836
        },
        {
          "duration": 0.05813953488372192,
          "durationTicks": 5,
          "midi": 57,
          "name": "A3",
          "ticks": 2365,
          "time": 27.5,
          "velocity": 0.2204724409448819
        },
        {
          "duration": 0.03488372093023173,
          "durationTicks": 3,
          "midi": 45,
          "name": "A2",
          "ticks": 2370,
          "time": 27.558139534883722,
          "velocity": 0.07874015748031496
        },
        {
          "duration": 0.2674418604651194,
          "durationTicks": 23,
          "midi": 62,
          "name": "D4",
          "ticks": 2371,
          "time": 27.569767441860463,
          "velocity": 0.18110236220472442
        },
        {
          "duration": 0.06976744186046702,
          "durationTicks": 6,
          "midi": 52,
          "name": "E3",
          "ticks": 2375,
          "time": 27.61627906976744,
          "velocity": 0.08661417322834646
        },
        {
          "duration": 0.02325581395349019,
          "durationTicks": 2,
          "midi": 57,
          "name": "A3",
          "ticks": 2395,
          "time": 27.848837209302324,
          "velocity": 0.23622047244094488
        },
        {
          "duration": 0.03488372093023173,
          "durationTicks": 3,
          "midi": 56,
          "name": "G#3",
          "ticks": 2397,
          "time": 27.872093023255815,
          "velocity": 0.3464566929133858
        },
        {
          "duration": 0.13953488372092693,
          "durationTicks": 12,
          "midi": 61,
          "name": "C#4",
          "ticks": 2398,
          "time": 27.88372093023256,
          "velocity": 0.1732283464566929
        },
        {
          "duration": 0.09302325581395365,
          "durationTicks": 8,
          "midi": 89,
          "name": "F6",
          "ticks": 2398,
          "time": 27.88372093023256,
          "velocity": 0.15748031496062992
        },
        {
          "duration": 0.1976744186046524,
          "durationTicks": 17,
          "midi": 57,
          "name": "A3",
          "ticks": 2400,
          "time": 27.906976744186046,
          "velocity": 0.25984251968503935
        },
        {
          "duration": 0.034883720930235285,
          "durationTicks": 3,
          "midi": 44,
          "name": "G#2",
          "ticks": 2403,
          "time": 27.941860465116278,
          "velocity": 0.09448818897637795
        },
        {
          "duration": 0.06976744186046346,
          "durationTicks": 6,
          "midi": 76,
          "name": "E5",
          "ticks": 2404,
          "time": 27.953488372093023,
          "velocity": 0.07874015748031496
        },
        {
          "duration": 0.03488372093023173,
          "durationTicks": 3,
          "midi": 56,
          "name": "G#3",
          "ticks": 2417,
          "time": 28.1046511627907,
          "velocity": 0.15748031496062992
        },
        {
          "duration": 0.08139534883721211,
          "durationTicks": 7,
          "midi": 54,
          "name": "F#3",
          "ticks": 2426,
          "time": 28.209302325581394,
          "velocity": 0.2204724409448819
        },
        {
          "duration": 0.5930232558139537,
          "durationTicks": 51,
          "midi": 59,
          "name": "B3",
          "ticks": 2426,
          "time": 28.209302325581394,
          "velocity": 0.2755905511811024
        },
        {
          "duration": 0.23255813953488413,
          "durationTicks": 20,
          "midi": 54,
          "name": "F#3",
          "ticks": 2434,
          "time": 28.302325581395348,
          "velocity": 0.2283464566929134
        },
        {
          "duration": 0.27906976744186096,
          "durationTicks": 24,
          "midi": 66,
          "name": "F#4",
          "ticks": 2458,
          "time": 28.58139534883721,
          "velocity": 0.11023622047244094
        },
        {
          "duration": 0.13953488372093048,
          "durationTicks": 12,
          "midi": 47,
          "name": "B2",
          "ticks": 2465,
          "time": 28.662790697674417,
          "velocity": 0.11811023622047244
        },
        {
          "duration": 0.11627906976744029,
          "durationTicks": 10,
          "midi": 54,
          "name": "F#3",
          "ticks": 2467,
          "time": 28.686046511627907,
          "velocity": 0.1968503937007874
        },
        {
          "duration": 0.023255813953486637,
          "durationTicks": 2,
          "midi": 55,
          "name": "G3",
          "ticks": 2479,
          "time": 28.825581395348838,
          "velocity": 0.2283464566929134
        },
        {
          "duration": 0.11627906976744029,
          "durationTicks": 10,
          "midi": 62,
          "name": "D4",
          "ticks": 2479,
          "time": 28.825581395348838,
          "velocity": 0.14960629921259844
        },
        {
          "duration": 0.20930232558139394,
          "durationTicks": 18,
          "midi": 54,
          "name": "F#3",
          "ticks": 2483,
          "time": 28.872093023255815,
          "velocity": 0.12598425196850394
        },
        {
          "duration": 0.05813953488372192,
          "durationTicks": 5,
          "midi": 61,
          "name": "C#4",
          "ticks": 2496,
          "time": 29.023255813953487,
          "velocity": 0.11023622047244094
        },
        {
          "duration": 0.02325581395349019,
          "durationTicks": 2,
          "midi": 53,
          "name": "F3",
          "ticks": 2504,
          "time": 29.11627906976744,
          "velocity": 0.2283464566929134
        },
        {
          "duration": 0.02325581395349019,
          "durationTicks": 2,
          "midi": 58,
          "name": "A#3",
          "ticks": 2504,
          "time": 29.11627906976744,
          "velocity": 0.25196850393700787
        },
        {
          "duration": 0.24418604651162923,
          "durationTicks": 21,
          "midi": 71,
          "name": "B4",
          "ticks": 2504,
          "time": 29.11627906976744,
          "velocity": 0.12598425196850394
        },
        {
          "duration": 0.11627906976744384,
          "durationTicks": 10,
          "midi": 74,
          "name": "D5",
          "ticks": 2505,
          "time": 29.127906976744185,
          "velocity": 0.07086614173228346
        },
        {
          "duration": 0.2558139534883743,
          "durationTicks": 22,
          "midi": 54,
          "name": "F#3",
          "ticks": 2508,
          "time": 29.162790697674417,
          "velocity": 0.2440944881889764
        },
        {
          "duration": 0.7674418604651194,
          "durationTicks": 66,
          "midi": 59,
          "name": "B3",
          "ticks": 2508,
          "time": 29.162790697674417,
          "velocity": 0.3228346456692913
        },
        {
          "duration": 0.16279069767441712,
          "durationTicks": 14,
          "midi": 47,
          "name": "B2",
          "ticks": 2531,
          "time": 29.430232558139537,
          "velocity": 0.11023622047244094
        },
        {
          "duration": 0.11627906976744384,
          "durationTicks": 10,
          "midi": 74,
          "name": "D5",
          "ticks": 2560,
          "time": 29.767441860465116,
          "velocity": 0.10236220472440945
        },
        {
          "duration": 0.46511627906976827,
          "durationTicks": 40,
          "midi": 62,
          "name": "D4",
          "ticks": 2583,
          "time": 30.03488372093023,
          "velocity": 0.2677165354330709
        },
        {
          "duration": 0.023255813953486637,
          "durationTicks": 2,
          "midi": 54,
          "name": "F#3",
          "ticks": 2584,
          "time": 30.046511627906977,
          "velocity": 0.2755905511811024
        },
        {
          "duration": 0.3720930232558146,
          "durationTicks": 32,
          "midi": 67,
          "name": "G4",
          "ticks": 2585,
          "time": 30.058139534883722,
          "velocity": 0.13385826771653545
        },
        {
          "duration": 0.11627906976744384,
          "durationTicks": 10,
          "midi": 55,
          "name": "G3",
          "ticks": 2586,
          "time": 30.069767441860463,
          "velocity": 0.28346456692913385
        },
        {
          "duration": 0.1976744186046524,
          "durationTicks": 17,
          "midi": 43,
          "name": "G2",
          "ticks": 2587,
          "time": 30.08139534883721,
          "velocity": 0.28346456692913385
        },
        {
          "duration": 0.1744186046511622,
          "durationTicks": 15,
          "midi": 43,
          "name": "G2",
          "ticks": 2608,
          "time": 30.325581395348838,
          "velocity": 0.2283464566929134
        },
        {
          "duration": 0.04651162790697683,
          "durationTicks": 4,
          "midi": 55,
          "name": "G3",
          "ticks": 2620,
          "time": 30.46511627906977,
          "velocity": 0.3228346456692913
        },
        {
          "duration": 0.04651162790697683,
          "durationTicks": 4,
          "midi": 56,
          "name": "G#3",
          "ticks": 2624,
          "time": 30.511627906976745,
          "velocity": 0.2440944881889764
        },
        {
          "duration": 0.3255813953488378,
          "durationTicks": 28,
          "midi": 67,
          "name": "G4",
          "ticks": 2624,
          "time": 30.511627906976745,
          "velocity": 0.10236220472440945
        },
        {
          "duration": 0.08139534883721211,
          "durationTicks": 7,
          "midi": 74,
          "name": "D5",
          "ticks": 2625,
          "time": 30.523255813953487,
          "velocity": 0.08661417322834646
        },
        {
          "duration": 0.03488372093023173,
          "durationTicks": 3,
          "midi": 55,
          "name": "G3",
          "ticks": 2630,
          "time": 30.58139534883721,
          "velocity": 0.07874015748031496
        },
        {
          "duration": 0.08139534883720856,
          "durationTicks": 7,
          "midi": 62,
          "name": "D4",
          "ticks": 2630,
          "time": 30.58139534883721,
          "velocity": 0.1732283464566929
        },
        {
          "duration": 0.05813953488372192,
          "durationTicks": 5,
          "midi": 43,
          "name": "G2",
          "ticks": 2631,
          "time": 30.593023255813954,
          "velocity": 0.07874015748031496
        },
        {
          "duration": 0.12790697674418894,
          "durationTicks": 11,
          "midi": 61,
          "name": "C#4",
          "ticks": 2637,
          "time": 30.662790697674417,
          "velocity": 0.1968503937007874
        },
        {
          "duration": 0.12790697674418894,
          "durationTicks": 11,
          "midi": 89,
          "name": "F6",
          "ticks": 2637,
          "time": 30.662790697674417,
          "velocity": 0.16535433070866143
        },
        {
          "duration": 0.11627906976744029,
          "durationTicks": 10,
          "midi": 62,
          "name": "D4",
          "ticks": 2648,
          "time": 30.790697674418606,
          "velocity": 0.14173228346456693
        },
        {
          "duration": 0.08139534883721211,
          "durationTicks": 7,
          "midi": 55,
          "name": "G3",
          "ticks": 2653,
          "time": 30.848837209302324,
          "velocity": 0.30708661417322836
        },
        {
          "duration": 0.02325581395349019,
          "durationTicks": 2,
          "midi": 57,
          "name": "A3",
          "ticks": 2661,
          "time": 30.941860465116278,
          "velocity": 0.2992125984251969
        },
        {
          "duration": 0.05813953488371837,
          "durationTicks": 5,
          "midi": 44,
          "name": "G#2",
          "ticks": 2663,
          "time": 30.96511627906977,
          "velocity": 0.14960629921259844
        },
        {
          "duration": 0.023255813953486637,
          "durationTicks": 2,
          "midi": 56,
          "name": "G#3",
          "ticks": 2663,
          "time": 30.96511627906977,
          "velocity": 0.41732283464566927
        },
        {
          "duration": 0.08139534883720856,
          "durationTicks": 7,
          "midi": 76,
          "name": "E5",
          "ticks": 2663,
          "time": 30.96511627906977,
          "velocity": 0.10236220472440945
        },
        {
          "duration": 0.05813953488371837,
          "durationTicks": 5,
          "midi": 61,
          "name": "C#4",
          "ticks": 2664,
          "time": 30.976744186046513,
          "velocity": 0.08661417322834646
        },
        {
          "duration": 0.02325581395349019,
          "durationTicks": 2,
          "midi": 57,
          "name": "A3",
          "ticks": 2665,
          "time": 30.988372093023255,
          "velocity": 0.3700787401574803
        },
        {
          "duration": 0.16279069767442067,
          "durationTicks": 14,
          "midi": 57,
          "name": "A3",
          "ticks": 2668,
          "time": 31.023255813953487,
          "velocity": 0.29133858267716534
        },
        {
          "duration": 0.04651162790697683,
          "durationTicks": 4,
          "midi": 44,
          "name": "G#2",
          "ticks": 2671,
          "time": 31.058139534883722,
          "velocity": 0.11023622047244094
        },
        {
          "duration": 0.1744186046511622,
          "durationTicks": 15,
          "midi": 61,
          "name": "C#4",
          "ticks": 2671,
          "time": 31.058139534883722,
          "velocity": 0.10236220472440945
        },
        {
          "duration": 0.15116279069767558,
          "durationTicks": 13,
          "midi": 76,
          "name": "E5",
          "ticks": 2674,
          "time": 31.093023255813954,
          "velocity": 0.11023622047244094
        },
        {
          "duration": 0.11627906976744029,
          "durationTicks": 10,
          "midi": 57,
          "name": "A3",
          "ticks": 2683,
          "time": 31.197674418604652,
          "velocity": 0.2440944881889764
        },
        {
          "duration": 0.26744186046511587,
          "durationTicks": 23,
          "midi": 62,
          "name": "D4",
          "ticks": 2691,
          "time": 31.290697674418606,
          "velocity": 0.2047244094488189
        },
        {
          "duration": 0.08139534883720856,
          "durationTicks": 7,
          "midi": 57,
          "name": "A3",
          "ticks": 2694,
          "time": 31.325581395348838,
          "velocity": 0.13385826771653545
        },
        {
          "duration": 0.13953488372093048,
          "durationTicks": 12,
          "midi": 52,
          "name": "E3",
          "ticks": 2704,
          "time": 31.441860465116278,
          "velocity": 0.10236220472440945
        },
        {
          "duration": 0.046511627906973274,
          "durationTicks": 4,
          "midi": 45,
          "name": "A2",
          "ticks": 2707,
          "time": 31.476744186046513,
          "velocity": 0.10236220472440945
        },
        {
          "duration": 0.023255813953486637,
          "durationTicks": 2,
          "midi": 56,
          "name": "G#3",
          "ticks": 2717,
          "time": 31.593023255813954,
          "velocity": 0.3779527559055118
        },
        {
          "duration": 0.26744186046511587,
          "durationTicks": 23,
          "midi": 61,
          "name": "C#4",
          "ticks": 2717,
          "time": 31.593023255813954,
          "velocity": 0.14960629921259844
        },
        {
          "duration": 0.08139534883720856,
          "durationTicks": 7,
          "midi": 76,
          "name": "E5",
          "ticks": 2718,
          "time": 31.6046511627907,
          "velocity": 0.10236220472440945
        },
        {
          "duration": 0.1860465116279073,
          "durationTicks": 16,
          "midi": 89,
          "name": "F6",
          "ticks": 2718,
          "time": 31.6046511627907,
          "velocity": 0.1889763779527559
        },
        {
          "duration": 0.034883720930235285,
          "durationTicks": 3,
          "midi": 57,
          "name": "A3",
          "ticks": 2719,
          "time": 31.61627906976744,
          "velocity": 0.3543307086614173
        },
        {
          "duration": 0.24418604651162923,
          "durationTicks": 21,
          "midi": 57,
          "name": "A3",
          "ticks": 2723,
          "time": 31.662790697674417,
          "velocity": 0.28346456692913385
        },
        {
          "duration": 0.02325581395349019,
          "durationTicks": 2,
          "midi": 55,
          "name": "G3",
          "ticks": 2744,
          "time": 31.906976744186046,
          "velocity": 0.36220472440944884
        },
        {
          "duration": 0.04651162790697683,
          "durationTicks": 4,
          "midi": 71,
          "name": "B4",
          "ticks": 2744,
          "time": 31.906976744186046,
          "velocity": 0.13385826771653545
        },
        {
          "duration": 0.430232558139533,
          "durationTicks": 37,
          "midi": 68,
          "name": "G#4",
          "ticks": 2745,
          "time": 31.91860465116279,
          "velocity": 0.16535433070866143
        },
        {
          "duration": 0.05813953488371837,
          "durationTicks": 5,
          "midi": 56,
          "name": "G#3",
          "ticks": 2746,
          "time": 31.930232558139537,
          "velocity": 0.3700787401574803
        },
        {
          "duration": 0.034883720930235285,
          "durationTicks": 3,
          "midi": 57,
          "name": "A3",
          "ticks": 2751,
          "time": 31.988372093023255,
          "velocity": 0.29133858267716534
        },
        {
          "duration": 0.05813953488372192,
          "durationTicks": 5,
          "midi": 52,
          "name": "E3",
          "ticks": 2753,
          "time": 32.01162790697674,
          "velocity": 0.1732283464566929
        },
        {
          "duration": 0.04651162790698038,
          "durationTicks": 4,
          "midi": 57,
          "name": "A3",
          "ticks": 2758,
          "time": 32.06976744186046,
          "velocity": 0.2677165354330709
        },
        {
          "duration": 0.03488372093023173,
          "durationTicks": 3,
          "midi": 52,
          "name": "E3",
          "ticks": 2761,
          "time": 32.104651162790695,
          "velocity": 0.14960629921259844
        },
        {
          "duration": 0.046511627906973274,
          "durationTicks": 4,
          "midi": 57,
          "name": "A3",
          "ticks": 2765,
          "time": 32.151162790697676,
          "velocity": 0.2125984251968504
        },
        {
          "duration": 0.05813953488372192,
          "durationTicks": 5,
          "midi": 56,
          "name": "G#3",
          "ticks": 2769,
          "time": 32.19767441860465,
          "velocity": 0.16535433070866143
        },
        {
          "duration": 0.15116279069767558,
          "durationTicks": 13,
          "midi": 64,
          "name": "E4",
          "ticks": 2771,
          "time": 32.22093023255814,
          "velocity": 0.09448818897637795
        },
        {
          "duration": 0.1046511627906952,
          "durationTicks": 9,
          "midi": 56,
          "name": "G#3",
          "ticks": 2784,
          "time": 32.372093023255815,
          "velocity": 0.3937007874015748
        },
        {
          "duration": 0.1046511627906952,
          "durationTicks": 9,
          "midi": 59,
          "name": "B3",
          "ticks": 2798,
          "time": 32.53488372093023,
          "velocity": 0.2283464566929134
        },
        {
          "duration": 0.04651162790698038,
          "durationTicks": 4,
          "midi": 57,
          "name": "A3",
          "ticks": 2807,
          "time": 32.63953488372093,
          "velocity": 0.4015748031496063
        },
        {
          "duration": 0.1046511627906952,
          "durationTicks": 9,
          "midi": 76,
          "name": "E5",
          "ticks": 2808,
          "time": 32.651162790697676,
          "velocity": 0.10236220472440945
        },
        {
          "duration": 0.04651162790698038,
          "durationTicks": 4,
          "midi": 57,
          "name": "A3",
          "ticks": 2812,
          "time": 32.69767441860465,
          "velocity": 0.30708661417322836
        },
        {
          "duration": 0.1046511627907023,
          "durationTicks": 9,
          "midi": 55,
          "name": "G3",
          "ticks": 2820,
          "time": 32.7906976744186,
          "velocity": 0.31496062992125984
        },
        {
          "duration": 0.06976744186046346,
          "durationTicks": 6,
          "midi": 62,
          "name": "D4",
          "ticks": 2821,
          "time": 32.80232558139535,
          "velocity": 0.1732283464566929
        },
        {
          "duration": 0.03488372093023173,
          "durationTicks": 3,
          "midi": 59,
          "name": "B3",
          "ticks": 2822,
          "time": 32.81395348837209,
          "velocity": 0.1732283464566929
        },
        {
          "duration": 0.1860465116279073,
          "durationTicks": 16,
          "midi": 43,
          "name": "G2",
          "ticks": 2823,
          "time": 32.825581395348834,
          "velocity": 0.30708661417322836
        },
        {
          "duration": 0.08139534883721211,
          "durationTicks": 7,
          "midi": 59,
          "name": "B3",
          "ticks": 2827,
          "time": 32.872093023255815,
          "velocity": 0.14173228346456693
        },
        {
          "duration": 0.03488372093023173,
          "durationTicks": 3,
          "midi": 59,
          "name": "B3",
          "ticks": 2835,
          "time": 32.96511627906977,
          "velocity": 0.12598425196850394
        },
        {
          "duration": 0.03488372093023173,
          "durationTicks": 3,
          "midi": 42,
          "name": "F#2",
          "ticks": 2839,
          "time": 33.01162790697674,
          "velocity": 0.1732283464566929
        },
        {
          "duration": 0.2093023255813975,
          "durationTicks": 18,
          "midi": 43,
          "name": "G2",
          "ticks": 2842,
          "time": 33.04651162790697,
          "velocity": 0.25196850393700787
        },
        {
          "duration": 0.05813953488372192,
          "durationTicks": 5,
          "midi": 59,
          "name": "B3",
          "ticks": 2842,
          "time": 33.04651162790697,
          "velocity": 0.14173228346456693
        },
        {
          "duration": 0.38372093023255616,
          "durationTicks": 33,
          "midi": 62,
          "name": "D4",
          "ticks": 2846,
          "time": 33.093023255813954,
          "velocity": 0.12598425196850394
        },
        {
          "duration": 0.19767441860464885,
          "durationTicks": 17,
          "midi": 55,
          "name": "G3",
          "ticks": 2856,
          "time": 33.2093023255814,
          "velocity": 0.3700787401574803
        },
        {
          "duration": 0.12790697674418539,
          "durationTicks": 11,
          "midi": 43,
          "name": "G2",
          "ticks": 2862,
          "time": 33.27906976744186,
          "velocity": 0.11023622047244094
        },
        {
          "duration": 0.09302325581395365,
          "durationTicks": 8,
          "midi": 43,
          "name": "G2",
          "ticks": 2874,
          "time": 33.41860465116279,
          "velocity": 0.11023622047244094
        },
        {
          "duration": 0.1046511627906952,
          "durationTicks": 9,
          "midi": 55,
          "name": "G3",
          "ticks": 2875,
          "time": 33.43023255813954,
          "velocity": 0.28346456692913385
        },
        {
          "duration": 0.02325581395349019,
          "durationTicks": 2,
          "midi": 54,
          "name": "F#3",
          "ticks": 2884,
          "time": 33.53488372093023,
          "velocity": 0.3228346456692913
        },
        {
          "duration": 0.02325581395349019,
          "durationTicks": 2,
          "midi": 56,
          "name": "G#3",
          "ticks": 2886,
          "time": 33.55813953488372,
          "velocity": 0.4094488188976378
        },
        {
          "duration": 0.09302325581395365,
          "durationTicks": 8,
          "midi": 76,
          "name": "E5",
          "ticks": 2886,
          "time": 33.55813953488372,
          "velocity": 0.07874015748031496
        },
        {
          "duration": 0.058139534883714816,
          "durationTicks": 5,
          "midi": 57,
          "name": "A3",
          "ticks": 2888,
          "time": 33.58139534883721,
          "velocity": 0.3228346456692913
        },
        {
          "duration": 0.38372093023255616,
          "durationTicks": 33,
          "midi": 55,
          "name": "G3",
          "ticks": 2897,
          "time": 33.68604651162791,
          "velocity": 0.3228346456692913
        },
        {
          "duration": 0.03488372093023173,
          "durationTicks": 3,
          "midi": 44,
          "name": "G#2",
          "ticks": 2898,
          "time": 33.69767441860465,
          "velocity": 0.14173228346456693
        },
        {
          "duration": 0.2325581395348877,
          "durationTicks": 20,
          "midi": 64,
          "name": "E4",
          "ticks": 2898,
          "time": 33.69767441860465,
          "velocity": 0.14960629921259844
        },
        {
          "duration": 0.17441860465116577,
          "durationTicks": 15,
          "midi": 71,
          "name": "B4",
          "ticks": 2898,
          "time": 33.69767441860465,
          "velocity": 0.14960629921259844
        },
        {
          "duration": 0.05813953488372192,
          "durationTicks": 5,
          "midi": 74,
          "name": "D5",
          "ticks": 2900,
          "time": 33.72093023255814,
          "velocity": 0.12598425196850394
        },
        {
          "duration": 0.04651162790698038,
          "durationTicks": 4,
          "midi": 89,
          "name": "F6",
          "ticks": 2900,
          "time": 33.72093023255814,
          "velocity": 0.11023622047244094
        },
        {
          "duration": 0.04651162790698038,
          "durationTicks": 4,
          "midi": 74,
          "name": "D5",
          "ticks": 2908,
          "time": 33.81395348837209,
          "velocity": 0.10236220472440945
        },
        {
          "duration": 0.03488372093023173,
          "durationTicks": 3,
          "midi": 56,
          "name": "G#3",
          "ticks": 2930,
          "time": 34.06976744186046,
          "velocity": 0.25196850393700787
        },
        {
          "duration": 0.1860465116279073,
          "durationTicks": 16,
          "midi": 64,
          "name": "E4",
          "ticks": 2937,
          "time": 34.151162790697676,
          "velocity": 0.11811023622047244
        },
        {
          "duration": 0.15116279069766847,
          "durationTicks": 13,
          "midi": 52,
          "name": "E3",
          "ticks": 2939,
          "time": 34.174418604651166,
          "velocity": 0.2125984251968504
        },
        {
          "duration": 0.1046511627906952,
          "durationTicks": 9,
          "midi": 59,
          "name": "B3",
          "ticks": 2942,
          "time": 34.2093023255814,
          "velocity": 0.11023622047244094
        },
        {
          "duration": 0.02325581395349019,
          "durationTicks": 2,
          "midi": 57,
          "name": "A3",
          "ticks": 2956,
          "time": 34.372093023255815,
          "velocity": 0.2440944881889764
        },
        {
          "duration": 0.02325581395349019,
          "durationTicks": 2,
          "midi": 57,
          "name": "A3",
          "ticks": 2959,
          "time": 34.406976744186046,
          "velocity": 0.2283464566929134
        },
        {
          "duration": 0.03488372093023173,
          "durationTicks": 3,
          "midi": 59,
          "name": "B3",
          "ticks": 2962,
          "time": 34.44186046511628,
          "velocity": 0.28346456692913385
        },
        {
          "duration": 0.046511627906973274,
          "durationTicks": 4,
          "midi": 59,
          "name": "B3",
          "ticks": 2969,
          "time": 34.52325581395349,
          "velocity": 0.14960629921259844
        },
        {
          "duration": 0.02325581395349019,
          "durationTicks": 2,
          "midi": 56,
          "name": "G#3",
          "ticks": 2975,
          "time": 34.593023255813954,
          "velocity": 0.29133858267716534
        },
        {
          "duration": 0.05813953488372192,
          "durationTicks": 5,
          "midi": 44,
          "name": "G#2",
          "ticks": 2977,
          "time": 34.616279069767444,
          "velocity": 0.15748031496062992
        },
        {
          "duration": 0.06976744186046346,
          "durationTicks": 6,
          "midi": 57,
          "name": "A3",
          "ticks": 2977,
          "time": 34.616279069767444,
          "velocity": 0.31496062992125984
        },
        {
          "duration": 0.27906976744186096,
          "durationTicks": 24,
          "midi": 61,
          "name": "C#4",
          "ticks": 2977,
          "time": 34.616279069767444,
          "velocity": 0.15748031496062992
        },
        {
          "duration": 0.09302325581395365,
          "durationTicks": 8,
          "midi": 76,
          "name": "E5",
          "ticks": 2977,
          "time": 34.616279069767444,
          "velocity": 0.11023622047244094
        },
        {
          "duration": 0.081395348837205,
          "durationTicks": 7,
          "midi": 85,
          "name": "C#6",
          "ticks": 2977,
          "time": 34.616279069767444,
          "velocity": 0.09448818897637795
        },
        {
          "duration": 0.15116279069767558,
          "durationTicks": 13,
          "midi": 89,
          "name": "F6",
          "ticks": 2977,
          "time": 34.616279069767444,
          "velocity": 0.18110236220472442
        },
        {
          "duration": 0.27906976744186096,
          "durationTicks": 24,
          "midi": 52,
          "name": "E3",
          "ticks": 2979,
          "time": 34.63953488372093,
          "velocity": 0.1732283464566929
        },
        {
          "duration": 0.1046511627907023,
          "durationTicks": 9,
          "midi": 57,
          "name": "A3",
          "ticks": 2984,
          "time": 34.69767441860465,
          "velocity": 0.2283464566929134
        },
        {
          "duration": 0.05813953488372192,
          "durationTicks": 5,
          "midi": 57,
          "name": "A3",
          "ticks": 2995,
          "time": 34.825581395348834,
          "velocity": 0.14173228346456693
        },
        {
          "duration": 0.5348837209302317,
          "durationTicks": 46,
          "midi": 76,
          "name": "E5",
          "ticks": 2997,
          "time": 34.848837209302324,
          "velocity": 0.12598425196850394
        },
        {
          "duration": 0.16279069767441712,
          "durationTicks": 14,
          "midi": 62,
          "name": "D4",
          "ticks": 3004,
          "time": 34.93023255813954,
          "velocity": 0.15748031496062992
        },
        {
          "duration": 0.06976744186046346,
          "durationTicks": 6,
          "midi": 52,
          "name": "E3",
          "ticks": 3007,
          "time": 34.96511627906977,
          "velocity": 0.09448818897637795
        },
        {
          "duration": 0.03488372093023173,
          "durationTicks": 3,
          "midi": 45,
          "name": "A2",
          "ticks": 3008,
          "time": 34.97674418604651,
          "velocity": 0.11811023622047244
        },
        {
          "duration": 0.23255813953488058,
          "durationTicks": 20,
          "midi": 57,
          "name": "A3",
          "ticks": 3010,
          "time": 35,
          "velocity": 0.23622047244094488
        },
        {
          "duration": 0.04651162790698038,
          "durationTicks": 4,
          "midi": 45,
          "name": "A2",
          "ticks": 3014,
          "time": 35.04651162790697,
          "velocity": 0.12598425196850394
        },
        {
          "duration": 0.1046511627906952,
          "durationTicks": 9,
          "midi": 64,
          "name": "E4",
          "ticks": 3018,
          "time": 35.093023255813954,
          "velocity": 0.13385826771653545
        },
        {
          "duration": 0.1046511627907023,
          "durationTicks": 9,
          "midi": 52,
          "name": "E3",
          "ticks": 3019,
          "time": 35.104651162790695,
          "velocity": 0.11811023622047244
        },
        {
          "duration": 0.05813953488372192,
          "durationTicks": 5,
          "midi": 45,
          "name": "A2",
          "ticks": 3020,
          "time": 35.116279069767444,
          "velocity": 0.12598425196850394
        },
        {
          "duration": 0.03488372093023173,
          "durationTicks": 3,
          "midi": 64,
          "name": "E4",
          "ticks": 3028,
          "time": 35.2093023255814,
          "velocity": 0.08661417322834646
        },
        {
          "duration": 0.23255813953488058,
          "durationTicks": 20,
          "midi": 57,
          "name": "A3",
          "ticks": 3031,
          "time": 35.24418604651163,
          "velocity": 0.3464566929133858
        },
        {
          "duration": 0.12790697674418539,
          "durationTicks": 11,
          "midi": 61,
          "name": "C#4",
          "ticks": 3031,
          "time": 35.24418604651163,
          "velocity": 0.1968503937007874
        },
        {
          "duration": 0.058139534883714816,
          "durationTicks": 5,
          "midi": 89,
          "name": "F6",
          "ticks": 3033,
          "time": 35.26744186046512,
          "velocity": 0.07086614173228346
        },
        {
          "duration": 0.046511627906973274,
          "durationTicks": 4,
          "midi": 45,
          "name": "A2",
          "ticks": 3047,
          "time": 35.43023255813954,
          "velocity": 0.10236220472440945
        },
        {
          "duration": 0.03488372093023173,
          "durationTicks": 3,
          "midi": 58,
          "name": "A#3",
          "ticks": 3058,
          "time": 35.55813953488372,
          "velocity": 0.3700787401574803
        },
        {
          "duration": 0.023255813953483084,
          "durationTicks": 2,
          "midi": 55,
          "name": "G3",
          "ticks": 3060,
          "time": 35.58139534883721,
          "velocity": 0.33858267716535434
        },
        {
          "duration": 0.03488372093023173,
          "durationTicks": 3,
          "midi": 71,
          "name": "B4",
          "ticks": 3060,
          "time": 35.58139534883721,
          "velocity": 0.07874015748031496
        },
        {
          "duration": 0.6395348837209269,
          "durationTicks": 55,
          "midi": 59,
          "name": "B3",
          "ticks": 3061,
          "time": 35.593023255813954,
          "velocity": 0.2677165354330709
        },
        {
          "duration": 0.19767441860464885,
          "durationTicks": 17,
          "midi": 54,
          "name": "F#3",
          "ticks": 3064,
          "time": 35.627906976744185,
          "velocity": 0.23622047244094488
        },
        {
          "duration": 0.15116279069767558,
          "durationTicks": 13,
          "midi": 54,
          "name": "F#3",
          "ticks": 3085,
          "time": 35.872093023255815,
          "velocity": 0.15748031496062992
        },
        {
          "duration": 0.05813953488372192,
          "durationTicks": 5,
          "midi": 54,
          "name": "F#3",
          "ticks": 3113,
          "time": 36.19767441860465,
          "velocity": 0.11811023622047244
        },
        {
          "duration": 0.046511627906973274,
          "durationTicks": 4,
          "midi": 54,
          "name": "F#3",
          "ticks": 3119,
          "time": 36.26744186046512,
          "velocity": 0.07874015748031496
        },
        {
          "duration": 0.15116279069767558,
          "durationTicks": 13,
          "midi": 59,
          "name": "B3",
          "ticks": 3123,
          "time": 36.31395348837209,
          "velocity": 0.09448818897637795
        },
        {
          "duration": 0.17441860465115866,
          "durationTicks": 15,
          "midi": 59,
          "name": "B3",
          "ticks": 3176,
          "time": 36.93023255813954,
          "velocity": 0.08661417322834646
        },
        {
          "duration": 0.023255813953483084,
          "durationTicks": 2,
          "midi": 58,
          "name": "A#3",
          "ticks": 3240,
          "time": 37.674418604651166,
          "velocity": 0.2755905511811024
        },
        {
          "duration": 0.30232558139535115,
          "durationTicks": 26,
          "midi": 59,
          "name": "B3",
          "ticks": 3242,
          "time": 37.69767441860465,
          "velocity": 0.2440944881889764
        },
        {
          "duration": 0.03488372093023884,
          "durationTicks": 3,
          "midi": 55,
          "name": "G3",
          "ticks": 3253,
          "time": 37.825581395348834,
          "velocity": 0.2283464566929134
        },
        {
          "duration": 0.11627906976743674,
          "durationTicks": 10,
          "midi": 54,
          "name": "F#3",
          "ticks": 3256,
          "time": 37.86046511627907,
          "velocity": 0.1732283464566929
        },
        {
          "duration": 0.11627906976744384,
          "durationTicks": 10,
          "midi": 54,
          "name": "F#3",
          "ticks": 3269,
          "time": 38.01162790697674,
          "velocity": 0.2047244094488189
        },
        {
          "duration": 0.05813953488372192,
          "durationTicks": 5,
          "midi": 59,
          "name": "B3",
          "ticks": 3269,
          "time": 38.01162790697674,
          "velocity": 0.1889763779527559
        },
        {
          "duration": 0.04651162790698038,
          "durationTicks": 4,
          "midi": 61,
          "name": "C#4",
          "ticks": 3274,
          "time": 38.06976744186046,
          "velocity": 0.07086614173228346
        },
        {
          "duration": 0.04651162790698038,
          "durationTicks": 4,
          "midi": 59,
          "name": "B3",
          "ticks": 3280,
          "time": 38.13953488372093,
          "velocity": 0.1968503937007874
        },
        {
          "duration": 0.08139534883721211,
          "durationTicks": 7,
          "midi": 54,
          "name": "F#3",
          "ticks": 3285,
          "time": 38.19767441860465,
          "velocity": 0.09448818897637795
        },
        {
          "duration": 0.06976744186047057,
          "durationTicks": 6,
          "midi": 59,
          "name": "B3",
          "ticks": 3288,
          "time": 38.23255813953488,
          "velocity": 0.1889763779527559
        },
        {
          "duration": 0.3953488372093048,
          "durationTicks": 34,
          "midi": 62,
          "name": "D4",
          "ticks": 3293,
          "time": 38.2906976744186,
          "velocity": 0.1732283464566929
        },
        {
          "duration": 0.06976744186046346,
          "durationTicks": 6,
          "midi": 59,
          "name": "B3",
          "ticks": 3327,
          "time": 38.68604651162791,
          "velocity": 0.07086614173228346
        },
        {
          "duration": 0.22093023255813904,
          "durationTicks": 19,
          "midi": 59,
          "name": "B3",
          "ticks": 3354,
          "time": 39,
          "velocity": 0.14173228346456693
        },
        {
          "duration": 0.03488372093023173,
          "durationTicks": 3,
          "midi": 56,
          "name": "G#3",
          "ticks": 3402,
          "time": 39.55813953488372,
          "velocity": 0.18110236220472442
        },
        {
          "duration": 0.27906976744186096,
          "durationTicks": 24,
          "midi": 62,
          "name": "D4",
          "ticks": 3403,
          "time": 39.56976744186046,
          "velocity": 0.2125984251968504
        },
        {
          "duration": 0.13953488372093403,
          "durationTicks": 12,
          "midi": 54,
          "name": "F#3",
          "ticks": 3417,
          "time": 39.73255813953488,
          "velocity": 0.15748031496062992
        },
        {
          "duration": 0.27906976744185386,
          "durationTicks": 24,
          "midi": 76,
          "name": "E5",
          "ticks": 3428,
          "time": 39.86046511627907,
          "velocity": 0.14960629921259844
        },
        {
          "duration": 0.11627906976744384,
          "durationTicks": 10,
          "midi": 54,
          "name": "F#3",
          "ticks": 3430,
          "time": 39.883720930232556,
          "velocity": 0.11023622047244094
        },
        {
          "duration": 0.15116279069767558,
          "durationTicks": 13,
          "midi": 59,
          "name": "B3",
          "ticks": 3442,
          "time": 40.02325581395349,
          "velocity": 0.13385826771653545
        },
        {
          "duration": 0.2906976744186025,
          "durationTicks": 25,
          "midi": 66,
          "name": "F#4",
          "ticks": 3455,
          "time": 40.174418604651166,
          "velocity": 0.2440944881889764
        },
        {
          "duration": 0.02325581395349019,
          "durationTicks": 2,
          "midi": 55,
          "name": "G3",
          "ticks": 3457,
          "time": 40.19767441860465,
          "velocity": 0.2992125984251969
        },
        {
          "duration": 0.2558139534883779,
          "durationTicks": 22,
          "midi": 71,
          "name": "B4",
          "ticks": 3457,
          "time": 40.19767441860465,
          "velocity": 0.08661417322834646
        },
        {
          "duration": 0.3604651162790731,
          "durationTicks": 31,
          "midi": 59,
          "name": "B3",
          "ticks": 3494,
          "time": 40.627906976744185,
          "velocity": 0.2677165354330709
        },
        {
          "duration": 0.24418604651162923,
          "durationTicks": 21,
          "midi": 47,
          "name": "B2",
          "ticks": 3544,
          "time": 41.2093023255814,
          "velocity": 0.13385826771653545
        },
        {
          "duration": 0.6046511627906952,
          "durationTicks": 52,
          "midi": 66,
          "name": "F#4",
          "ticks": 3564,
          "time": 41.44186046511628,
          "velocity": 0.18110236220472442
        },
        {
          "duration": 0.15116279069767558,
          "durationTicks": 13,
          "midi": 47,
          "name": "B2",
          "ticks": 3566,
          "time": 41.46511627906977,
          "velocity": 0.07874015748031496
        },
        {
          "duration": 0.13953488372093403,
          "durationTicks": 12,
          "midi": 54,
          "name": "F#3",
          "ticks": 3580,
          "time": 41.627906976744185,
          "velocity": 0.15748031496062992
        },
        {
          "duration": 0.15116279069767558,
          "durationTicks": 13,
          "midi": 88,
          "name": "E6",
          "ticks": 3590,
          "time": 41.74418604651163,
          "velocity": 0.11023622047244094
        },
        {
          "duration": 0.13953488372092693,
          "durationTicks": 12,
          "midi": 54,
          "name": "F#3",
          "ticks": 3593,
          "time": 41.77906976744186,
          "velocity": 0.11811023622047244
        },
        {
          "duration": 0.12790697674418539,
          "durationTicks": 11,
          "midi": 54,
          "name": "F#3",
          "ticks": 3606,
          "time": 41.93023255813954,
          "velocity": 0.16535433070866143
        },
        {
          "duration": 0.02325581395349019,
          "durationTicks": 2,
          "midi": 55,
          "name": "G3",
          "ticks": 3617,
          "time": 42.05813953488372,
          "velocity": 0.3464566929133858
        },
        {
          "duration": 0.03488372093023173,
          "durationTicks": 3,
          "midi": 56,
          "name": "G#3",
          "ticks": 3619,
          "time": 42.08139534883721,
          "velocity": 0.23622047244094488
        },
        {
          "duration": 0.3953488372092977,
          "durationTicks": 34,
          "midi": 71,
          "name": "B4",
          "ticks": 3619,
          "time": 42.08139534883721,
          "velocity": 0.07874015748031496
        },
        {
          "duration": 0.779069767441861,
          "durationTicks": 67,
          "midi": 59,
          "name": "B3",
          "ticks": 3621,
          "time": 42.104651162790695,
          "velocity": 0.23622047244094488
        },
        {
          "duration": 0.2674418604651194,
          "durationTicks": 23,
          "midi": 76,
          "name": "E5",
          "ticks": 3621,
          "time": 42.104651162790695,
          "velocity": 0.08661417322834646
        },
        {
          "duration": 0.09302325581395365,
          "durationTicks": 8,
          "midi": 54,
          "name": "F#3",
          "ticks": 3629,
          "time": 42.19767441860465,
          "velocity": 0.11023622047244094
        },
        {
          "duration": 0.7325581395348877,
          "durationTicks": 63,
          "midi": 47,
          "name": "B2",
          "ticks": 3632,
          "time": 42.23255813953488,
          "velocity": 0.08661417322834646
        },
        {
          "duration": 0.04651162790698038,
          "durationTicks": 4,
          "midi": 54,
          "name": "F#3",
          "ticks": 3639,
          "time": 42.31395348837209,
          "velocity": 0.11023622047244094
        },
        {
          "duration": 0.04651162790698038,
          "durationTicks": 4,
          "midi": 59,
          "name": "B3",
          "ticks": 3702,
          "time": 43.04651162790697,
          "velocity": 0.12598425196850394
        },
        {
          "duration": 0.11627906976743674,
          "durationTicks": 10,
          "midi": 62,
          "name": "D4",
          "ticks": 3732,
          "time": 43.395348837209305,
          "velocity": 0.07086614173228346
        },
        {
          "duration": 0.13953488372093403,
          "durationTicks": 12,
          "midi": 59,
          "name": "B3",
          "ticks": 3744,
          "time": 43.53488372093023,
          "velocity": 0.16535433070866143
        },
        {
          "duration": 0.081395348837205,
          "durationTicks": 7,
          "midi": 54,
          "name": "F#3",
          "ticks": 3770,
          "time": 43.83720930232558,
          "velocity": 0.09448818897637795
        },
        {
          "duration": 0.03488372093023173,
          "durationTicks": 3,
          "midi": 60,
          "name": "C4",
          "ticks": 3776,
          "time": 43.906976744186046,
          "velocity": 0.11023622047244094
        },
        {
          "duration": 0.1860465116279073,
          "durationTicks": 16,
          "midi": 59,
          "name": "B3",
          "ticks": 3783,
          "time": 43.98837209302326,
          "velocity": 0.2755905511811024
        },
        {
          "duration": 0.2906976744186096,
          "durationTicks": 25,
          "midi": 54,
          "name": "F#3",
          "ticks": 3785,
          "time": 44.01162790697674,
          "velocity": 0.16535433070866143
        },
        {
          "duration": 0.1860465116279073,
          "durationTicks": 16,
          "midi": 59,
          "name": "B3",
          "ticks": 3801,
          "time": 44.19767441860465,
          "velocity": 0.12598425196850394
        },
        {
          "duration": 0.38372093023256326,
          "durationTicks": 33,
          "midi": 59,
          "name": "B3",
          "ticks": 3825,
          "time": 44.47674418604651,
          "velocity": 0.1732283464566929
        },
        {
          "duration": 0.15116279069767558,
          "durationTicks": 13,
          "midi": 59,
          "name": "B3",
          "ticks": 3888,
          "time": 45.2093023255814,
          "velocity": 0.2125984251968504
        },
        {
          "duration": 0.02325581395349019,
          "durationTicks": 2,
          "midi": 55,
          "name": "G3",
          "ticks": 3900,
          "time": 45.348837209302324,
          "velocity": 0.2283464566929134
        },
        {
          "duration": 0.27906976744186096,
          "durationTicks": 24,
          "midi": 54,
          "name": "F#3",
          "ticks": 3902,
          "time": 45.372093023255815,
          "velocity": 0.2047244094488189
        },
        {
          "duration": 0.13953488372092693,
          "durationTicks": 12,
          "midi": 59,
          "name": "B3",
          "ticks": 3902,
          "time": 45.372093023255815,
          "velocity": 0.1732283464566929
        },
        {
          "duration": 0.03488372093023173,
          "durationTicks": 3,
          "midi": 61,
          "name": "C#4",
          "ticks": 3921,
          "time": 45.593023255813954,
          "velocity": 0.07086614173228346
        },
        {
          "duration": 0.15116279069767558,
          "durationTicks": 13,
          "midi": 59,
          "name": "B3",
          "ticks": 3926,
          "time": 45.651162790697676,
          "velocity": 0.1968503937007874
        },
        {
          "duration": 0.05813953488372192,
          "durationTicks": 5,
          "midi": 54,
          "name": "F#3",
          "ticks": 3932,
          "time": 45.72093023255814,
          "velocity": 0.11023622047244094
        },
        {
          "duration": 0.720930232558139,
          "durationTicks": 62,
          "midi": 62,
          "name": "D4",
          "ticks": 3939,
          "time": 45.80232558139535,
          "velocity": 0.1889763779527559
        },
        {
          "duration": 0.02325581395349019,
          "durationTicks": 2,
          "midi": 55,
          "name": "G3",
          "ticks": 3940,
          "time": 45.81395348837209,
          "velocity": 0.2440944881889764
        },
        {
          "duration": 0.046511627906973274,
          "durationTicks": 4,
          "midi": 59,
          "name": "B3",
          "ticks": 3945,
          "time": 45.872093023255815,
          "velocity": 0.09448818897637795
        },
        {
          "duration": 0.03488372093023173,
          "durationTicks": 3,
          "midi": 59,
          "name": "B3",
          "ticks": 3957,
          "time": 46.01162790697674,
          "velocity": 0.07874015748031496
        },
        {
          "duration": 0.058139534883714816,
          "durationTicks": 5,
          "midi": 59,
          "name": "B3",
          "ticks": 3998,
          "time": 46.48837209302326,
          "velocity": 0.09448818897637795
        },
        {
          "duration": 0.1046511627906952,
          "durationTicks": 9,
          "midi": 59,
          "name": "B3",
          "ticks": 4004,
          "time": 46.55813953488372,
          "velocity": 0.08661417322834646
        },
        {
          "duration": 0.03488372093023173,
          "durationTicks": 3,
          "midi": 56,
          "name": "G#3",
          "ticks": 4044,
          "time": 47.02325581395349,
          "velocity": 0.18110236220472442
        },
        {
          "duration": 0.27906976744186096,
          "durationTicks": 24,
          "midi": 62,
          "name": "D4",
          "ticks": 4044,
          "time": 47.02325581395349,
          "velocity": 0.2283464566929134
        },
        {
          "duration": 0.03488372093023173,
          "durationTicks": 3,
          "midi": 55,
          "name": "G3",
          "ticks": 4055,
          "time": 47.151162790697676,
          "velocity": 0.23622047244094488
        },
        {
          "duration": 0.40697674418604635,
          "durationTicks": 35,
          "midi": 66,
          "name": "F#4",
          "ticks": 4056,
          "time": 47.16279069767442,
          "velocity": 0.13385826771653545
        },
        {
          "duration": 0.15116279069767558,
          "durationTicks": 13,
          "midi": 54,
          "name": "F#3",
          "ticks": 4058,
          "time": 47.18604651162791,
          "velocity": 0.1889763779527559
        },
        {
          "duration": 0.24418604651162923,
          "durationTicks": 21,
          "midi": 76,
          "name": "E5",
          "ticks": 4070,
          "time": 47.325581395348834,
          "velocity": 0.11811023622047244
        },
        {
          "duration": 0.11627906976744384,
          "durationTicks": 10,
          "midi": 54,
          "name": "F#3",
          "ticks": 4072,
          "time": 47.348837209302324,
          "velocity": 0.18110236220472442
        },
        {
          "duration": 0.13953488372093403,
          "durationTicks": 12,
          "midi": 54,
          "name": "F#3",
          "ticks": 4083,
          "time": 47.47674418604651,
          "velocity": 0.13385826771653545
        },
        {
          "duration": 0.13953488372093403,
          "durationTicks": 12,
          "midi": 59,
          "name": "B3",
          "ticks": 4083,
          "time": 47.47674418604651,
          "velocity": 0.15748031496062992
        },
        {
          "duration": 0.02325581395349019,
          "durationTicks": 2,
          "midi": 55,
          "name": "G3",
          "ticks": 4096,
          "time": 47.627906976744185,
          "velocity": 0.3858267716535433
        },
        {
          "duration": 0.02325581395349019,
          "durationTicks": 2,
          "midi": 56,
          "name": "G#3",
          "ticks": 4098,
          "time": 47.651162790697676,
          "velocity": 0.3779527559055118
        },
        {
          "duration": 0.03488372093023173,
          "durationTicks": 3,
          "midi": 71,
          "name": "B4",
          "ticks": 4098,
          "time": 47.651162790697676,
          "velocity": 0.07874015748031496
        },
        {
          "duration": 0.023255813953483084,
          "durationTicks": 2,
          "midi": 55,
          "name": "G3",
          "ticks": 4100,
          "time": 47.674418604651166,
          "velocity": 0.30708661417322836
        },
        {
          "duration": 0.43023255813953654,
          "durationTicks": 37,
          "midi": 59,
          "name": "B3",
          "ticks": 4101,
          "time": 47.68604651162791,
          "velocity": 0.2047244094488189
        },
        {
          "duration": 0.04651162790698038,
          "durationTicks": 4,
          "midi": 54,
          "name": "F#3",
          "ticks": 4102,
          "time": 47.69767441860465,
          "velocity": 0.11811023622047244
        },
        {
          "duration": 0.09302325581395365,
          "durationTicks": 8,
          "midi": 54,
          "name": "F#3",
          "ticks": 4108,
          "time": 47.76744186046512,
          "velocity": 0.16535433070866143
        },
        {
          "duration": 0.25581395348837077,
          "durationTicks": 22,
          "midi": 54,
          "name": "F#3",
          "ticks": 4117,
          "time": 47.872093023255815,
          "velocity": 0.2204724409448819
        },
        {
          "duration": 0.38372093023256326,
          "durationTicks": 33,
          "midi": 59,
          "name": "B3",
          "ticks": 4140,
          "time": 48.13953488372093,
          "velocity": 0.2125984251968504
        },
        {
          "duration": 0.23255813953488058,
          "durationTicks": 20,
          "midi": 54,
          "name": "F#3",
          "ticks": 4144,
          "time": 48.18604651162791,
          "velocity": 0.11811023622047244
        },
        {
          "duration": 0.11627906976743674,
          "durationTicks": 10,
          "midi": 59,
          "name": "B3",
          "ticks": 4178,
          "time": 48.58139534883721,
          "velocity": 0.16535433070866143
        },
        {
          "duration": 0.3139534883720927,
          "durationTicks": 27,
          "midi": 66,
          "name": "F#4",
          "ticks": 4202,
          "time": 48.86046511627907,
          "velocity": 0.2204724409448819
        },
        {
          "duration": 0.15116279069767558,
          "durationTicks": 13,
          "midi": 54,
          "name": "F#3",
          "ticks": 4217,
          "time": 49.03488372093023,
          "velocity": 0.2047244094488189
        },
        {
          "duration": 0.17441860465115866,
          "durationTicks": 15,
          "midi": 88,
          "name": "E6",
          "ticks": 4229,
          "time": 49.174418604651166,
          "velocity": 0.15748031496062992
        },
        {
          "duration": 0.15116279069767558,
          "durationTicks": 13,
          "midi": 54,
          "name": "F#3",
          "ticks": 4231,
          "time": 49.19767441860465,
          "velocity": 0.14960629921259844
        },
        {
          "duration": 0.03488372093023173,
          "durationTicks": 3,
          "midi": 89,
          "name": "F6",
          "ticks": 4245,
          "time": 49.36046511627907,
          "velocity": 0.09448818897637795
        },
        {
          "duration": 0.09302325581395365,
          "durationTicks": 8,
          "midi": 71,
          "name": "B4",
          "ticks": 4256,
          "time": 49.48837209302326,
          "velocity": 0.16535433070866143
        },
        {
          "duration": 0.08139534883721211,
          "durationTicks": 7,
          "midi": 90,
          "name": "F#6",
          "ticks": 4258,
          "time": 49.51162790697674,
          "velocity": 0.07874015748031496
        },
        {
          "duration": 0.023255813953483084,
          "durationTicks": 2,
          "midi": 55,
          "name": "G3",
          "ticks": 4259,
          "time": 49.52325581395349,
          "velocity": 0.3228346456692913
        },
        {
          "duration": 0.3720930232558146,
          "durationTicks": 32,
          "midi": 59,
          "name": "B3",
          "ticks": 4259,
          "time": 49.52325581395349,
          "velocity": 0.14173228346456693
        },
        {
          "duration": 0.2325581395348877,
          "durationTicks": 20,
          "midi": 54,
          "name": "F#3",
          "ticks": 4261,
          "time": 49.54651162790697,
          "velocity": 0.2204724409448819
        },
        {
          "duration": 0.046511627906973274,
          "durationTicks": 4,
          "midi": 59,
          "name": "B3",
          "ticks": 4302,
          "time": 50.02325581395349,
          "velocity": 0.07874015748031496
        },
        {
          "duration": 0.13953488372092693,
          "durationTicks": 12,
          "midi": 59,
          "name": "B3",
          "ticks": 4323,
          "time": 50.26744186046512,
          "velocity": 0.18110236220472442
        },
        {
          "duration": 0.03488372093023173,
          "durationTicks": 3,
          "midi": 47,
          "name": "B2",
          "ticks": 4339,
          "time": 50.45348837209303,
          "velocity": 0.12598425196850394
        },
        {
          "duration": 0.2674418604651123,
          "durationTicks": 23,
          "midi": 59,
          "name": "B3",
          "ticks": 4339,
          "time": 50.45348837209303,
          "velocity": 0.12598425196850394
        },
        {
          "duration": 0.19767441860464885,
          "durationTicks": 17,
          "midi": 47,
          "name": "B2",
          "ticks": 4345,
          "time": 50.52325581395349,
          "velocity": 0.11023622047244094
        },
        {
          "duration": 0.04651162790698038,
          "durationTicks": 4,
          "midi": 69,
          "name": "A4",
          "ticks": 4363,
          "time": 50.73255813953488,
          "velocity": 0.2047244094488189
        },
        {
          "duration": 0.12790697674418539,
          "durationTicks": 11,
          "midi": 59,
          "name": "B3",
          "ticks": 4366,
          "time": 50.76744186046512,
          "velocity": 0.18110236220472442
        },
        {
          "duration": 0.046511627906973274,
          "durationTicks": 4,
          "midi": 47,
          "name": "B2",
          "ticks": 4375,
          "time": 50.872093023255815,
          "velocity": 0.09448818897637795
        },
        {
          "duration": 0.06976744186046346,
          "durationTicks": 6,
          "midi": 71,
          "name": "B4",
          "ticks": 4377,
          "time": 50.895348837209305,
          "velocity": 0.10236220472440945
        },
        {
          "duration": 0.2906976744186025,
          "durationTicks": 25,
          "midi": 59,
          "name": "B3",
          "ticks": 4378,
          "time": 50.906976744186046,
          "velocity": 0.25196850393700787
        },
        {
          "duration": 0.09302325581395365,
          "durationTicks": 8,
          "midi": 73,
          "name": "C#5",
          "ticks": 4390,
          "time": 51.04651162790697,
          "velocity": 0.12598425196850394
        },
        {
          "duration": 0.24418604651162923,
          "durationTicks": 21,
          "midi": 85,
          "name": "C#6",
          "ticks": 4390,
          "time": 51.04651162790697,
          "velocity": 0.15748031496062992
        },
        {
          "duration": 0.5116279069767415,
          "durationTicks": 44,
          "midi": 62,
          "name": "D4",
          "ticks": 4402,
          "time": 51.18604651162791,
          "velocity": 0.1732283464566929
        },
        {
          "duration": 0.04651162790698038,
          "durationTicks": 4,
          "midi": 71,
          "name": "B4",
          "ticks": 4416,
          "time": 51.348837209302324,
          "velocity": 0.14173228346456693
        },
        {
          "duration": 0.1046511627906952,
          "durationTicks": 9,
          "midi": 90,
          "name": "F#6",
          "ticks": 4417,
          "time": 51.36046511627907,
          "velocity": 0.09448818897637795
        },
        {
          "duration": 0.046511627906973274,
          "durationTicks": 4,
          "midi": 59,
          "name": "B3",
          "ticks": 4418,
          "time": 51.372093023255815,
          "velocity": 0.14173228346456693
        },
        {
          "duration": 0.30232558139534405,
          "durationTicks": 26,
          "midi": 59,
          "name": "B3",
          "ticks": 4423,
          "time": 51.43023255813954,
          "velocity": 0.12598425196850394
        },
        {
          "duration": 0.06976744186047057,
          "durationTicks": 6,
          "midi": 54,
          "name": "F#3",
          "ticks": 4441,
          "time": 51.63953488372093,
          "velocity": 0.09448818897637795
        },
        {
          "duration": 0.25581395348837077,
          "durationTicks": 22,
          "midi": 59,
          "name": "B3",
          "ticks": 4456,
          "time": 51.81395348837209,
          "velocity": 0.1732283464566929
        },
        {
          "duration": 0.12790697674418539,
          "durationTicks": 11,
          "midi": 54,
          "name": "F#3",
          "ticks": 4467,
          "time": 51.94186046511628,
          "velocity": 0.16535433070866143
        },
        {
          "duration": 0.02325581395349019,
          "durationTicks": 2,
          "midi": 60,
          "name": "C4",
          "ticks": 4491,
          "time": 52.22093023255814,
          "velocity": 0.23622047244094488
        },
        {
          "duration": 0.30232558139534405,
          "durationTicks": 26,
          "midi": 59,
          "name": "B3",
          "ticks": 4493,
          "time": 52.24418604651163,
          "velocity": 0.2677165354330709
        },
        {
          "duration": 0.05813953488372192,
          "durationTicks": 5,
          "midi": 47,
          "name": "B2",
          "ticks": 4494,
          "time": 52.25581395348837,
          "velocity": 0.1968503937007874
        },
        {
          "duration": 0.30232558139535115,
          "durationTicks": 26,
          "midi": 47,
          "name": "B2",
          "ticks": 4500,
          "time": 52.325581395348834,
          "velocity": 0.1889763779527559
        },
        {
          "duration": 0.2325581395348877,
          "durationTicks": 20,
          "midi": 71,
          "name": "B4",
          "ticks": 4519,
          "time": 52.54651162790697,
          "velocity": 0.1732283464566929
        },
        {
          "duration": 0.3139534883720927,
          "durationTicks": 27,
          "midi": 59,
          "name": "B3",
          "ticks": 4520,
          "time": 52.55813953488372,
          "velocity": 0.29133858267716534
        },
        {
          "duration": 0.3139534883720927,
          "durationTicks": 27,
          "midi": 55,
          "name": "G3",
          "ticks": 4546,
          "time": 52.86046511627907,
          "velocity": 0.4015748031496063
        },
        {
          "duration": 0.3372093023255829,
          "durationTicks": 29,
          "midi": 74,
          "name": "D5",
          "ticks": 4547,
          "time": 52.872093023255815,
          "velocity": 0.14173228346456693
        },
        {
          "duration": 0.023255813953483084,
          "durationTicks": 2,
          "midi": 60,
          "name": "C4",
          "ticks": 4573,
          "time": 53.174418604651166,
          "velocity": 0.2755905511811024
        },
        {
          "duration": 0.023255813953483084,
          "durationTicks": 2,
          "midi": 55,
          "name": "G3",
          "ticks": 4576,
          "time": 53.2093023255814,
          "velocity": 0.4015748031496063
        },
        {
          "duration": 0.02325581395349019,
          "durationTicks": 2,
          "midi": 59,
          "name": "B3",
          "ticks": 4579,
          "time": 53.24418604651163,
          "velocity": 0.2283464566929134
        },
        {
          "duration": 0.24418604651162923,
          "durationTicks": 21,
          "midi": 54,
          "name": "F#3",
          "ticks": 4580,
          "time": 53.25581395348837,
          "velocity": 0.2992125984251969
        },
        {
          "duration": 0.02325581395349019,
          "durationTicks": 2,
          "midi": 59,
          "name": "B3",
          "ticks": 4582,
          "time": 53.27906976744186,
          "velocity": 0.2677165354330709
        },
        {
          "duration": 0.02325581395349019,
          "durationTicks": 2,
          "midi": 59,
          "name": "B3",
          "ticks": 4593,
          "time": 53.406976744186046,
          "velocity": 0.25984251968503935
        },
        {
          "duration": 0.08139534883721211,
          "durationTicks": 7,
          "midi": 59,
          "name": "B3",
          "ticks": 4596,
          "time": 53.44186046511628,
          "velocity": 0.25196850393700787
        },
        {
          "duration": 0.046511627906973274,
          "durationTicks": 4,
          "midi": 55,
          "name": "G3",
          "ticks": 4601,
          "time": 53.5,
          "velocity": 0.36220472440944884
        },
        {
          "duration": 0.13953488372092693,
          "durationTicks": 12,
          "midi": 62,
          "name": "D4",
          "ticks": 4601,
          "time": 53.5,
          "velocity": 0.25984251968503935
        },
        {
          "duration": 0.06976744186046346,
          "durationTicks": 6,
          "midi": 78,
          "name": "F#5",
          "ticks": 4603,
          "time": 53.52325581395349,
          "velocity": 0.07874015748031496
        },
        {
          "duration": 0.05813953488372192,
          "durationTicks": 5,
          "midi": 90,
          "name": "F#6",
          "ticks": 4603,
          "time": 53.52325581395349,
          "velocity": 0.10236220472440945
        },
        {
          "duration": 0.02325581395349019,
          "durationTicks": 2,
          "midi": 54,
          "name": "F#3",
          "ticks": 4605,
          "time": 53.54651162790697,
          "velocity": 0.2755905511811024
        },
        {
          "duration": 0.03488372093023884,
          "durationTicks": 3,
          "midi": 59,
          "name": "B3",
          "ticks": 4605,
          "time": 53.54651162790697,
          "velocity": 0.2204724409448819
        },
        {
          "duration": 0.25581395348837077,
          "durationTicks": 22,
          "midi": 54,
          "name": "F#3",
          "ticks": 4608,
          "time": 53.58139534883721,
          "velocity": 0.2755905511811024
        },
        {
          "duration": 0.09302325581395365,
          "durationTicks": 8,
          "midi": 47,
          "name": "B2",
          "ticks": 4609,
          "time": 53.593023255813954,
          "velocity": 0.10236220472440945
        },
        {
          "duration": 0.13953488372093403,
          "durationTicks": 12,
          "midi": 59,
          "name": "B3",
          "ticks": 4610,
          "time": 53.604651162790695,
          "velocity": 0.23622047244094488
        },
        {
          "duration": 0.06976744186046346,
          "durationTicks": 6,
          "midi": 90,
          "name": "F#6",
          "ticks": 4611,
          "time": 53.616279069767444,
          "velocity": 0.13385826771653545
        },
        {
          "duration": 0.046511627906973274,
          "durationTicks": 4,
          "midi": 62,
          "name": "D4",
          "ticks": 4614,
          "time": 53.651162790697676,
          "velocity": 0.18110236220472442
        },
        {
          "duration": 0.05813953488372192,
          "durationTicks": 5,
          "midi": 62,
          "name": "D4",
          "ticks": 4621,
          "time": 53.73255813953488,
          "velocity": 0.12598425196850394
        },
        {
          "duration": 0.046511627906973274,
          "durationTicks": 4,
          "midi": 43,
          "name": "G2",
          "ticks": 4633,
          "time": 53.872093023255815,
          "velocity": 0.10236220472440945
        },
        {
          "duration": 0.09302325581395365,
          "durationTicks": 8,
          "midi": 54,
          "name": "F#3",
          "ticks": 4633,
          "time": 53.872093023255815,
          "velocity": 0.1889763779527559
        },
        {
          "duration": 0.02325581395349019,
          "durationTicks": 2,
          "midi": 58,
          "name": "A#3",
          "ticks": 4642,
          "time": 53.97674418604651,
          "velocity": 0.2992125984251969
        },
        {
          "duration": 0.1046511627906952,
          "durationTicks": 9,
          "midi": 59,
          "name": "B3",
          "ticks": 4644,
          "time": 54,
          "velocity": 0.18110236220472442
        },
        {
          "duration": 0.03488372093023173,
          "durationTicks": 3,
          "midi": 54,
          "name": "F#3",
          "ticks": 4645,
          "time": 54.01162790697674,
          "velocity": 0.15748031496062992
        },
        {
          "duration": 0.02325581395349019,
          "durationTicks": 2,
          "midi": 54,
          "name": "F#3",
          "ticks": 4656,
          "time": 54.13953488372093,
          "velocity": 0.2755905511811024
        },
        {
          "duration": 0.02325581395349019,
          "durationTicks": 2,
          "midi": 55,
          "name": "G3",
          "ticks": 4658,
          "time": 54.16279069767442,
          "velocity": 0.3464566929133858
        },
        {
          "duration": 0.05813953488372192,
          "durationTicks": 5,
          "midi": 85,
          "name": "C#6",
          "ticks": 4658,
          "time": 54.16279069767442,
          "velocity": 0.07086614173228346
        },
        {
          "duration": 0.1046511627907023,
          "durationTicks": 9,
          "midi": 89,
          "name": "F6",
          "ticks": 4658,
          "time": 54.16279069767442,
          "velocity": 0.11811023622047244
        },
        {
          "duration": 0.25581395348837077,
          "durationTicks": 22,
          "midi": 54,
          "name": "F#3",
          "ticks": 4660,
          "time": 54.18604651162791,
          "velocity": 0.25984251968503935
        },
        {
          "duration": 0.02325581395349019,
          "durationTicks": 2,
          "midi": 59,
          "name": "B3",
          "ticks": 4661,
          "time": 54.19767441860465,
          "velocity": 0.2283464566929134
        },
        {
          "duration": 0.03488372093023173,
          "durationTicks": 3,
          "midi": 47,
          "name": "B2",
          "ticks": 4663,
          "time": 54.22093023255814,
          "velocity": 0.14173228346456693
        },
        {
          "duration": 0.02325581395349019,
          "durationTicks": 2,
          "midi": 59,
          "name": "B3",
          "ticks": 4664,
          "time": 54.23255813953488,
          "velocity": 0.2677165354330709
        },
        {
          "duration": 0.15116279069767558,
          "durationTicks": 13,
          "midi": 47,
          "name": "B2",
          "ticks": 4670,
          "time": 54.30232558139535,
          "velocity": 0.14173228346456693
        },
        {
          "duration": 0.023255813953483084,
          "durationTicks": 2,
          "midi": 59,
          "name": "B3",
          "ticks": 4675,
          "time": 54.36046511627907,
          "velocity": 0.23622047244094488
        },
        {
          "duration": 0.023255813953483084,
          "durationTicks": 2,
          "midi": 59,
          "name": "B3",
          "ticks": 4678,
          "time": 54.395348837209305,
          "velocity": 0.23622047244094488
        },
        {
          "duration": 0.03488372093023173,
          "durationTicks": 3,
          "midi": 59,
          "name": "B3",
          "ticks": 4681,
          "time": 54.43023255813954,
          "velocity": 0.18110236220472442
        },
        {
          "duration": 0.19767441860464885,
          "durationTicks": 17,
          "midi": 47,
          "name": "B2",
          "ticks": 4684,
          "time": 54.46511627906977,
          "velocity": 0.14173228346456693
        },
        {
          "duration": 0.02325581395349019,
          "durationTicks": 2,
          "midi": 55,
          "name": "G3",
          "ticks": 4684,
          "time": 54.46511627906977,
          "velocity": 0.3858267716535433
        },
        {
          "duration": 0.15116279069767558,
          "durationTicks": 13,
          "midi": 62,
          "name": "D4",
          "ticks": 4687,
          "time": 54.5,
          "velocity": 0.11023622047244094
        },
        {
          "duration": 0.03488372093023173,
          "durationTicks": 3,
          "midi": 54,
          "name": "F#3",
          "ticks": 4688,
          "time": 54.51162790697674,
          "velocity": 0.2125984251968504
        },
        {
          "duration": 0.08139534883721211,
          "durationTicks": 7,
          "midi": 54,
          "name": "F#3",
          "ticks": 4695,
          "time": 54.593023255813954,
          "velocity": 0.14173228346456693
        },
        {
          "duration": 0.12790697674418539,
          "durationTicks": 11,
          "midi": 59,
          "name": "B3",
          "ticks": 4697,
          "time": 54.616279069767444,
          "velocity": 0.2204724409448819
        },
        {
          "duration": 0.06976744186046346,
          "durationTicks": 6,
          "midi": 54,
          "name": "F#3",
          "ticks": 4703,
          "time": 54.68604651162791,
          "velocity": 0.1732283464566929
        },
        {
          "duration": 0.03488372093023173,
          "durationTicks": 3,
          "midi": 66,
          "name": "F#4",
          "ticks": 4721,
          "time": 54.895348837209305,
          "velocity": 0.12598425196850394
        },
        {
          "duration": 0.04651162790698038,
          "durationTicks": 4,
          "midi": 74,
          "name": "D5",
          "ticks": 4722,
          "time": 54.906976744186046,
          "velocity": 0.10236220472440945
        },
        {
          "duration": 0.02325581395349019,
          "durationTicks": 2,
          "midi": 54,
          "name": "F#3",
          "ticks": 4724,
          "time": 54.93023255813954,
          "velocity": 0.2283464566929134
        },
        {
          "duration": 0.03488372093023884,
          "durationTicks": 3,
          "midi": 70,
          "name": "A#4",
          "ticks": 4734,
          "time": 55.04651162790697,
          "velocity": 0.2204724409448819
        },
        {
          "duration": 0.13953488372092693,
          "durationTicks": 12,
          "midi": 54,
          "name": "F#3",
          "ticks": 4746,
          "time": 55.18604651162791,
          "velocity": 0.11811023622047244
        },
        {
          "duration": 0.03488372093023173,
          "durationTicks": 3,
          "midi": 54,
          "name": "F#3",
          "ticks": 4759,
          "time": 55.33720930232558,
          "velocity": 0.07874015748031496
        },
        {
          "duration": 0.02325581395349019,
          "durationTicks": 2,
          "midi": 58,
          "name": "A#3",
          "ticks": 4763,
          "time": 55.383720930232556,
          "velocity": 0.4330708661417323
        },
        {
          "duration": 0.05813953488372192,
          "durationTicks": 5,
          "midi": 71,
          "name": "B4",
          "ticks": 4764,
          "time": 55.395348837209305,
          "velocity": 0.11023622047244094
        },
        {
          "duration": 0.02325581395349019,
          "durationTicks": 2,
          "midi": 54,
          "name": "F#3",
          "ticks": 4765,
          "time": 55.406976744186046,
          "velocity": 0.30708661417322836
        },
        {
          "duration": 0.30232558139535115,
          "durationTicks": 26,
          "midi": 59,
          "name": "B3",
          "ticks": 4765,
          "time": 55.406976744186046,
          "velocity": 0.3779527559055118
        },
        {
          "duration": 0.1860465116279073,
          "durationTicks": 16,
          "midi": 64,
          "name": "E4",
          "ticks": 4765,
          "time": 55.406976744186046,
          "velocity": 0.15748031496062992
        },
        {
          "duration": 0.2674418604651194,
          "durationTicks": 23,
          "midi": 76,
          "name": "E5",
          "ticks": 4765,
          "time": 55.406976744186046,
          "velocity": 0.1732283464566929
        },
        {
          "duration": 0.04651162790698038,
          "durationTicks": 4,
          "midi": 90,
          "name": "F#6",
          "ticks": 4766,
          "time": 55.41860465116279,
          "velocity": 0.08661417322834646
        },
        {
          "duration": 0.2674418604651194,
          "durationTicks": 23,
          "midi": 54,
          "name": "F#3",
          "ticks": 4768,
          "time": 55.44186046511628,
          "velocity": 0.2677165354330709
        },
        {
          "duration": 0.12790697674418539,
          "durationTicks": 11,
          "midi": 47,
          "name": "B2",
          "ticks": 4780,
          "time": 55.58139534883721,
          "velocity": 0.07086614173228346
        },
        {
          "duration": 0.03488372093023173,
          "durationTicks": 3,
          "midi": 44,
          "name": "G#2",
          "ticks": 4791,
          "time": 55.7093023255814,
          "velocity": 0.2204724409448819
        },
        {
          "duration": 0.023255813953483084,
          "durationTicks": 2,
          "midi": 56,
          "name": "G#3",
          "ticks": 4791,
          "time": 55.7093023255814,
          "velocity": 0.25984251968503935
        },
        {
          "duration": 0.02325581395349019,
          "durationTicks": 2,
          "midi": 55,
          "name": "G3",
          "ticks": 4793,
          "time": 55.73255813953488,
          "velocity": 0.33858267716535434
        },
        {
          "duration": 0.11627906976744384,
          "durationTicks": 10,
          "midi": 73,
          "name": "C#5",
          "ticks": 4793,
          "time": 55.73255813953488,
          "velocity": 0.13385826771653545
        },
        {
          "duration": 0.09302325581395365,
          "durationTicks": 8,
          "midi": 54,
          "name": "F#3",
          "ticks": 4795,
          "time": 55.75581395348837,
          "velocity": 0.1889763779527559
        },
        {
          "duration": 0.11627906976744384,
          "durationTicks": 10,
          "midi": 89,
          "name": "F6",
          "ticks": 4795,
          "time": 55.75581395348837,
          "velocity": 0.07874015748031496
        },
        {
          "duration": 0.023255813953483084,
          "durationTicks": 2,
          "midi": 59,
          "name": "B3",
          "ticks": 4799,
          "time": 55.80232558139535,
          "velocity": 0.25196850393700787
        },
        {
          "duration": 0.02325581395349019,
          "durationTicks": 2,
          "midi": 59,
          "name": "B3",
          "ticks": 4802,
          "time": 55.83720930232558,
          "velocity": 0.2677165354330709
        },
        {
          "duration": 0.15116279069766847,
          "durationTicks": 13,
          "midi": 54,
          "name": "F#3",
          "ticks": 4804,
          "time": 55.86046511627907,
          "velocity": 0.18110236220472442
        },
        {
          "duration": 0.02325581395349019,
          "durationTicks": 2,
          "midi": 59,
          "name": "B3",
          "ticks": 4805,
          "time": 55.872093023255815,
          "velocity": 0.2755905511811024
        },
        {
          "duration": 0.02325581395349019,
          "durationTicks": 2,
          "midi": 59,
          "name": "B3",
          "ticks": 4813,
          "time": 55.96511627906977,
          "velocity": 0.2440944881889764
        },
        {
          "duration": 0.08139534883721211,
          "durationTicks": 7,
          "midi": 59,
          "name": "B3",
          "ticks": 4816,
          "time": 56,
          "velocity": 0.28346456692913385
        },
        {
          "duration": 0.15116279069767558,
          "durationTicks": 13,
          "midi": 89,
          "name": "F6",
          "ticks": 4821,
          "time": 56.05813953488372,
          "velocity": 0.12598425196850394
        },
        {
          "duration": 0.24418604651162923,
          "durationTicks": 21,
          "midi": 54,
          "name": "F#3",
          "ticks": 4824,
          "time": 56.093023255813954,
          "velocity": 0.16535433070866143
        },
        {
          "duration": 0.046511627906973274,
          "durationTicks": 4,
          "midi": 59,
          "name": "B3",
          "ticks": 4824,
          "time": 56.093023255813954,
          "velocity": 0.25984251968503935
        },
        {
          "duration": 0.02325581395349019,
          "durationTicks": 2,
          "midi": 59,
          "name": "B3",
          "ticks": 4829,
          "time": 56.151162790697676,
          "velocity": 0.2440944881889764
        },
        {
          "duration": 0.02325581395349019,
          "durationTicks": 2,
          "midi": 59,
          "name": "B3",
          "ticks": 4832,
          "time": 56.18604651162791,
          "velocity": 0.2440944881889764
        },
        {
          "duration": 0.02325581395349019,
          "durationTicks": 2,
          "midi": 59,
          "name": "B3",
          "ticks": 4835,
          "time": 56.22093023255814,
          "velocity": 0.2440944881889764
        },
        {
          "duration": 0.03488372093023173,
          "durationTicks": 3,
          "midi": 59,
          "name": "B3",
          "ticks": 4838,
          "time": 56.25581395348837,
          "velocity": 0.2283464566929134
        },
        {
          "duration": 0.023255813953483084,
          "durationTicks": 2,
          "midi": 55,
          "name": "G3",
          "ticks": 4847,
          "time": 56.36046511627907,
          "velocity": 0.3543307086614173
        },
        {
          "duration": 0.023255813953483084,
          "durationTicks": 2,
          "midi": 60,
          "name": "C4",
          "ticks": 4847,
          "time": 56.36046511627907,
          "velocity": 0.2677165354330709
        },
        {
          "duration": 0.3139534883720927,
          "durationTicks": 27,
          "midi": 66,
          "name": "F#4",
          "ticks": 4847,
          "time": 56.36046511627907,
          "velocity": 0.2440944881889764
        },
        {
          "duration": 0.24418604651162923,
          "durationTicks": 21,
          "midi": 54,
          "name": "F#3",
          "ticks": 4849,
          "time": 56.383720930232556,
          "velocity": 0.2125984251968504
        },
        {
          "duration": 0.06976744186047057,
          "durationTicks": 6,
          "midi": 59,
          "name": "B3",
          "ticks": 4849,
          "time": 56.383720930232556,
          "velocity": 0.2047244094488189
        },
        {
          "duration": 0.22093023255813904,
          "durationTicks": 19,
          "midi": 62,
          "name": "D4",
          "ticks": 4849,
          "time": 56.383720930232556,
          "velocity": 0.2125984251968504
        },
        {
          "duration": 0.15116279069767558,
          "durationTicks": 13,
          "midi": 59,
          "name": "B3",
          "ticks": 4856,
          "time": 56.46511627906977,
          "velocity": 0.1889763779527559
        },
        {
          "duration": 0.03488372093023173,
          "durationTicks": 3,
          "midi": 54,
          "name": "F#3",
          "ticks": 4888,
          "time": 56.83720930232558,
          "velocity": 0.13385826771653545
        },
        {
          "duration": 0.02325581395349019,
          "durationTicks": 2,
          "midi": 55,
          "name": "G3",
          "ticks": 4899,
          "time": 56.96511627906977,
          "velocity": 0.33858267716535434
        },
        {
          "duration": 0.08139534883721211,
          "durationTicks": 7,
          "midi": 73,
          "name": "C#5",
          "ticks": 4900,
          "time": 56.97674418604651,
          "velocity": 0.07874015748031496
        },
        {
          "duration": 0.02325581395349019,
          "durationTicks": 2,
          "midi": 59,
          "name": "B3",
          "ticks": 4902,
          "time": 57,
          "velocity": 0.30708661417322836
        },
        {
          "duration": 0.6395348837209269,
          "durationTicks": 55,
          "midi": 66,
          "name": "F#4",
          "ticks": 4902,
          "time": 57,
          "velocity": 0.2047244094488189
        },
        {
          "duration": 0.23255813953488058,
          "durationTicks": 20,
          "midi": 54,
          "name": "F#3",
          "ticks": 4904,
          "time": 57.02325581395349,
          "velocity": 0.1889763779527559
        },
        {
          "duration": 0.02325581395349019,
          "durationTicks": 2,
          "midi": 60,
          "name": "C4",
          "ticks": 4906,
          "time": 57.04651162790697,
          "velocity": 0.29133858267716534
        },
        {
          "duration": 0.02325581395349019,
          "durationTicks": 2,
          "midi": 59,
          "name": "B3",
          "ticks": 4919,
          "time": 57.19767441860465,
          "velocity": 0.28346456692913385
        },
        {
          "duration": 0.02325581395349019,
          "durationTicks": 2,
          "midi": 59,
          "name": "B3",
          "ticks": 4922,
          "time": 57.23255813953488,
          "velocity": 0.25196850393700787
        },
        {
          "duration": 0.24418604651162212,
          "durationTicks": 21,
          "midi": 59,
          "name": "B3",
          "ticks": 4928,
          "time": 57.30232558139535,
          "velocity": 0.29133858267716534
        },
        {
          "duration": 0.24418604651162923,
          "durationTicks": 21,
          "midi": 54,
          "name": "F#3",
          "ticks": 4929,
          "time": 57.31395348837209,
          "velocity": 0.23622047244094488
        },
        {
          "duration": 0.04651162790698038,
          "durationTicks": 4,
          "midi": 62,
          "name": "D4",
          "ticks": 4940,
          "time": 57.44186046511628,
          "velocity": 0.14173228346456693
        },
        {
          "duration": 0.04651162790698038,
          "durationTicks": 4,
          "midi": 59,
          "name": "B3",
          "ticks": 4951,
          "time": 57.56976744186046,
          "velocity": 0.08661417322834646
        },
        {
          "duration": 0.03488372093023173,
          "durationTicks": 3,
          "midi": 55,
          "name": "G3",
          "ticks": 4956,
          "time": 57.627906976744185,
          "velocity": 0.18110236220472442
        },
        {
          "duration": 0.03488372093023173,
          "durationTicks": 3,
          "midi": 54,
          "name": "F#3",
          "ticks": 4961,
          "time": 57.68604651162791,
          "velocity": 0.13385826771653545
        },
        {
          "duration": 0.03488372093023173,
          "durationTicks": 3,
          "midi": 58,
          "name": "A#3",
          "ticks": 4966,
          "time": 57.74418604651163,
          "velocity": 0.3228346456692913
        },
        {
          "duration": 0.03488372093023173,
          "durationTicks": 3,
          "midi": 66,
          "name": "F#4",
          "ticks": 4967,
          "time": 57.75581395348837,
          "velocity": 0.07086614173228346
        },
        {
          "duration": 0.03488372093023173,
          "durationTicks": 3,
          "midi": 59,
          "name": "B3",
          "ticks": 4969,
          "time": 57.77906976744186,
          "velocity": 0.18110236220472442
        },
        {
          "duration": 0.03488372093023884,
          "durationTicks": 3,
          "midi": 55,
          "name": "G3",
          "ticks": 4981,
          "time": 57.91860465116279,
          "velocity": 0.3700787401574803
        },
        {
          "duration": 0.27906976744186096,
          "durationTicks": 24,
          "midi": 66,
          "name": "F#4",
          "ticks": 4981,
          "time": 57.91860465116279,
          "velocity": 0.1732283464566929
        },
        {
          "duration": 0.03488372093023884,
          "durationTicks": 3,
          "midi": 71,
          "name": "B4",
          "ticks": 4981,
          "time": 57.91860465116279,
          "velocity": 0.07874015748031496
        },
        {
          "duration": 0.09302325581395365,
          "durationTicks": 8,
          "midi": 89,
          "name": "F6",
          "ticks": 4981,
          "time": 57.91860465116279,
          "velocity": 0.11811023622047244
        },
        {
          "duration": 0.25581395348837077,
          "durationTicks": 22,
          "midi": 54,
          "name": "F#3",
          "ticks": 4984,
          "time": 57.95348837209303,
          "velocity": 0.2755905511811024
        },
        {
          "duration": 0.02325581395349019,
          "durationTicks": 2,
          "midi": 59,
          "name": "B3",
          "ticks": 4991,
          "time": 58.03488372093023,
          "velocity": 0.2440944881889764
        },
        {
          "duration": 0.02325581395349019,
          "durationTicks": 2,
          "midi": 59,
          "name": "B3",
          "ticks": 4994,
          "time": 58.06976744186046,
          "velocity": 0.2677165354330709
        },
        {
          "duration": 0.02325581395349019,
          "durationTicks": 2,
          "midi": 59,
          "name": "B3",
          "ticks": 4997,
          "time": 58.104651162790695,
          "velocity": 0.2677165354330709
        },
        {
          "duration": 0.03488372093023173,
          "durationTicks": 3,
          "midi": 55,
          "name": "G3",
          "ticks": 5006,
          "time": 58.2093023255814,
          "velocity": 0.3700787401574803
        },
        {
          "duration": 0.04651162790698038,
          "durationTicks": 4,
          "midi": 47,
          "name": "B2",
          "ticks": 5007,
          "time": 58.22093023255814,
          "velocity": 0.2204724409448819
        },
        {
          "duration": 0.3139534883720927,
          "durationTicks": 27,
          "midi": 59,
          "name": "B3",
          "ticks": 5007,
          "time": 58.22093023255814,
          "velocity": 0.3228346456692913
        },
        {
          "duration": 0.38372093023255616,
          "durationTicks": 33,
          "midi": 66,
          "name": "F#4",
          "ticks": 5007,
          "time": 58.22093023255814,
          "velocity": 0.2047244094488189
        },
        {
          "duration": 0.2906976744186025,
          "durationTicks": 25,
          "midi": 54,
          "name": "F#3",
          "ticks": 5009,
          "time": 58.24418604651163,
          "velocity": 0.28346456692913385
        },
        {
          "duration": 0.13953488372093403,
          "durationTicks": 12,
          "midi": 47,
          "name": "B2",
          "ticks": 5013,
          "time": 58.2906976744186,
          "velocity": 0.14960629921259844
        },
        {
          "duration": 0.09302325581395365,
          "durationTicks": 8,
          "midi": 62,
          "name": "D4",
          "ticks": 5015,
          "time": 58.31395348837209,
          "velocity": 0.12598425196850394
        },
        {
          "duration": 0.03488372093023173,
          "durationTicks": 3,
          "midi": 74,
          "name": "D5",
          "ticks": 5026,
          "time": 58.44186046511628,
          "velocity": 0.07086614173228346
        },
        {
          "duration": 0.03488372093023173,
          "durationTicks": 3,
          "midi": 55,
          "name": "G3",
          "ticks": 5036,
          "time": 58.55813953488372,
          "velocity": 0.2440944881889764
        },
        {
          "duration": 0.03488372093023173,
          "durationTicks": 3,
          "midi": 62,
          "name": "D4",
          "ticks": 5036,
          "time": 58.55813953488372,
          "velocity": 0.1732283464566929
        },
        {
          "duration": 0.04651162790698038,
          "durationTicks": 4,
          "midi": 59,
          "name": "B3",
          "ticks": 5037,
          "time": 58.56976744186046,
          "velocity": 0.18110236220472442
        },
        {
          "duration": 0.05813953488372192,
          "durationTicks": 5,
          "midi": 54,
          "name": "F#3",
          "ticks": 5041,
          "time": 58.616279069767444,
          "velocity": 0.13385826771653545
        },
        {
          "duration": 0.03488372093023173,
          "durationTicks": 3,
          "midi": 58,
          "name": "A#3",
          "ticks": 5046,
          "time": 58.674418604651166,
          "velocity": 0.30708661417322836
        },
        {
          "duration": 0.023255813953483084,
          "durationTicks": 2,
          "midi": 55,
          "name": "G3",
          "ticks": 5049,
          "time": 58.7093023255814,
          "velocity": 0.33858267716535434
        },
        {
          "duration": 0.03488372093023884,
          "durationTicks": 3,
          "midi": 53,
          "name": "F3",
          "ticks": 5051,
          "time": 58.73255813953488,
          "velocity": 0.1968503937007874
        },
        {
          "duration": 0.046511627906973274,
          "durationTicks": 4,
          "midi": 54,
          "name": "F#3",
          "ticks": 5057,
          "time": 58.80232558139535,
          "velocity": 0.1889763779527559
        },
        {
          "duration": 0.03488372093023173,
          "durationTicks": 3,
          "midi": 70,
          "name": "A#4",
          "ticks": 5060,
          "time": 58.83720930232558,
          "velocity": 0.2440944881889764
        },
        {
          "duration": 0.023255813953483084,
          "durationTicks": 2,
          "midi": 56,
          "name": "G#3",
          "ticks": 5089,
          "time": 59.174418604651166,
          "velocity": 0.36220472440944884
        },
        {
          "duration": 0.02325581395349019,
          "durationTicks": 2,
          "midi": 58,
          "name": "A#3",
          "ticks": 5091,
          "time": 59.19767441860465,
          "velocity": 0.3543307086614173
        },
        {
          "duration": 0.08139534883721211,
          "durationTicks": 7,
          "midi": 64,
          "name": "E4",
          "ticks": 5091,
          "time": 59.19767441860465,
          "velocity": 0.13385826771653545
        },
        {
          "duration": 0.27906976744186096,
          "durationTicks": 24,
          "midi": 76,
          "name": "E5",
          "ticks": 5091,
          "time": 59.19767441860465,
          "velocity": 0.2047244094488189
        },
        {
          "duration": 0.2906976744186025,
          "durationTicks": 25,
          "midi": 59,
          "name": "B3",
          "ticks": 5092,
          "time": 59.2093023255814,
          "velocity": 0.2992125984251969
        },
        {
          "duration": 0.02325581395349019,
          "durationTicks": 2,
          "midi": 55,
          "name": "G3",
          "ticks": 5093,
          "time": 59.22093023255814,
          "velocity": 0.30708661417322836
        },
        {
          "duration": 0.25581395348837077,
          "durationTicks": 22,
          "midi": 54,
          "name": "F#3",
          "ticks": 5095,
          "time": 59.24418604651163,
          "velocity": 0.2440944881889764
        },
        {
          "duration": 0.02325581395349019,
          "durationTicks": 2,
          "midi": 58,
          "name": "A#3",
          "ticks": 5118,
          "time": 59.51162790697674,
          "velocity": 0.2755905511811024
        },
        {
          "duration": 0.02325581395349019,
          "durationTicks": 2,
          "midi": 55,
          "name": "G3",
          "ticks": 5120,
          "time": 59.53488372093023,
          "velocity": 0.25984251968503935
        },
        {
          "duration": 0.2325581395348877,
          "durationTicks": 20,
          "midi": 71,
          "name": "B4",
          "ticks": 5120,
          "time": 59.53488372093023,
          "velocity": 0.08661417322834646
        },
        {
          "duration": 0.16279069767441712,
          "durationTicks": 14,
          "midi": 89,
          "name": "F6",
          "ticks": 5120,
          "time": 59.53488372093023,
          "velocity": 0.14173228346456693
        },
        {
          "duration": 0.06976744186047057,
          "durationTicks": 6,
          "midi": 73,
          "name": "C#5",
          "ticks": 5121,
          "time": 59.54651162790697,
          "velocity": 0.07874015748031496
        },
        {
          "duration": 0.081395348837205,
          "durationTicks": 7,
          "midi": 54,
          "name": "F#3",
          "ticks": 5122,
          "time": 59.55813953488372,
          "velocity": 0.1732283464566929
        },
        {
          "duration": 0.16279069767441712,
          "durationTicks": 14,
          "midi": 54,
          "name": "F#3",
          "ticks": 5130,
          "time": 59.651162790697676,
          "velocity": 0.1889763779527559
        },
        {
          "duration": 0.02325581395349019,
          "durationTicks": 2,
          "midi": 59,
          "name": "B3",
          "ticks": 5131,
          "time": 59.66279069767442,
          "velocity": 0.2283464566929134
        },
        {
          "duration": 0.02325581395349019,
          "durationTicks": 2,
          "midi": 59,
          "name": "B3",
          "ticks": 5134,
          "time": 59.69767441860465,
          "velocity": 0.2440944881889764
        },
        {
          "duration": 0.03488372093023884,
          "durationTicks": 3,
          "midi": 59,
          "name": "B3",
          "ticks": 5137,
          "time": 59.73255813953488,
          "velocity": 0.25984251968503935
        },
        {
          "duration": 0.03488372093023884,
          "durationTicks": 3,
          "midi": 55,
          "name": "G3",
          "ticks": 5145,
          "time": 59.825581395348834,
          "velocity": 0.3228346456692913
        },
        {
          "duration": 0.23255813953488058,
          "durationTicks": 20,
          "midi": 71,
          "name": "B4",
          "ticks": 5146,
          "time": 59.83720930232558,
          "velocity": 0.12598425196850394
        },
        {
          "duration": 0.11627906976744384,
          "durationTicks": 10,
          "midi": 73,
          "name": "C#5",
          "ticks": 5146,
          "time": 59.83720930232558,
          "velocity": 0.11811023622047244
        },
        {
          "duration": 0.03488372093023173,
          "durationTicks": 3,
          "midi": 47,
          "name": "B2",
          "ticks": 5147,
          "time": 59.848837209302324,
          "velocity": 0.11023622047244094
        },
        {
          "duration": 0.15116279069767558,
          "durationTicks": 13,
          "midi": 89,
          "name": "F6",
          "ticks": 5147,
          "time": 59.848837209302324,
          "velocity": 0.15748031496062992
        },
        {
          "duration": 0.2674418604651123,
          "durationTicks": 23,
          "midi": 54,
          "name": "F#3",
          "ticks": 5148,
          "time": 59.86046511627907,
          "velocity": 0.2047244094488189
        },
        {
          "duration": 0.02325581395349019,
          "durationTicks": 2,
          "midi": 59,
          "name": "B3",
          "ticks": 5149,
          "time": 59.872093023255815,
          "velocity": 0.28346456692913385
        },
        {
          "duration": 0.04651162790698038,
          "durationTicks": 4,
          "midi": 59,
          "name": "B3",
          "ticks": 5152,
          "time": 59.906976744186046,
          "velocity": 0.2755905511811024
        },
        {
          "duration": 0.02325581395349019,
          "durationTicks": 2,
          "midi": 59,
          "name": "B3",
          "ticks": 5163,
          "time": 60.03488372093023,
          "velocity": 0.25984251968503935
        },
        {
          "duration": 0.02325581395349019,
          "durationTicks": 2,
          "midi": 59,
          "name": "B3",
          "ticks": 5166,
          "time": 60.06976744186046,
          "velocity": 0.2677165354330709
        },
        {
          "duration": 0.02325581395349019,
          "durationTicks": 2,
          "midi": 59,
          "name": "B3",
          "ticks": 5169,
          "time": 60.104651162790695,
          "velocity": 0.2283464566929134
        },
        {
          "duration": 0.03488372093023884,
          "durationTicks": 3,
          "midi": 55,
          "name": "G3",
          "ticks": 5172,
          "time": 60.13953488372093,
          "velocity": 0.3543307086614173
        },
        {
          "duration": 0.02325581395349019,
          "durationTicks": 2,
          "midi": 58,
          "name": "A#3",
          "ticks": 5172,
          "time": 60.13953488372093,
          "velocity": 0.33858267716535434
        },
        {
          "duration": 0.3488372093023244,
          "durationTicks": 30,
          "midi": 66,
          "name": "F#4",
          "ticks": 5173,
          "time": 60.151162790697676,
          "velocity": 0.2204724409448819
        },
        {
          "duration": 0.16279069767441712,
          "durationTicks": 14,
          "midi": 71,
          "name": "B4",
          "ticks": 5173,
          "time": 60.151162790697676,
          "velocity": 0.10236220472440945
        },
        {
          "duration": 0.3139534883720927,
          "durationTicks": 27,
          "midi": 59,
          "name": "B3",
          "ticks": 5174,
          "time": 60.16279069767442,
          "velocity": 0.29133858267716534
        },
        {
          "duration": 0.30232558139534405,
          "durationTicks": 26,
          "midi": 54,
          "name": "F#3",
          "ticks": 5175,
          "time": 60.174418604651166,
          "velocity": 0.2677165354330709
        },
        {
          "duration": 0.12790697674418539,
          "durationTicks": 11,
          "midi": 74,
          "name": "D5",
          "ticks": 5184,
          "time": 60.27906976744186,
          "velocity": 0.11023622047244094
        },
        {
          "duration": 0.02325581395349019,
          "durationTicks": 2,
          "midi": 55,
          "name": "G3",
          "ticks": 5201,
          "time": 60.47674418604651,
          "velocity": 0.25984251968503935
        },
        {
          "duration": 0.11627906976743674,
          "durationTicks": 10,
          "midi": 59,
          "name": "B3",
          "ticks": 5202,
          "time": 60.48837209302326,
          "velocity": 0.2283464566929134
        },
        {
          "duration": 0.08139534883721211,
          "durationTicks": 7,
          "midi": 54,
          "name": "F#3",
          "ticks": 5206,
          "time": 60.53488372093023,
          "velocity": 0.2204724409448819
        },
        {
          "duration": 0.13953488372092693,
          "durationTicks": 12,
          "midi": 59,
          "name": "B3",
          "ticks": 5213,
          "time": 60.616279069767444,
          "velocity": 0.25196850393700787
        },
        {
          "duration": 0.09302325581395365,
          "durationTicks": 8,
          "midi": 54,
          "name": "F#3",
          "ticks": 5216,
          "time": 60.651162790697676,
          "velocity": 0.25984251968503935
        },
        {
          "duration": 0.48837209302325846,
          "durationTicks": 42,
          "midi": 59,
          "name": "B3",
          "ticks": 5228,
          "time": 60.7906976744186,
          "velocity": 0.36220472440944884
        },
        {
          "duration": 0.03488372093023173,
          "durationTicks": 3,
          "midi": 90,
          "name": "F#6",
          "ticks": 5228,
          "time": 60.7906976744186,
          "velocity": 0.09448818897637795
        },
        {
          "duration": 0.2093023255813904,
          "durationTicks": 18,
          "midi": 66,
          "name": "F#4",
          "ticks": 5229,
          "time": 60.80232558139535,
          "velocity": 0.2677165354330709
        },
        {
          "duration": 0.05813953488372192,
          "durationTicks": 5,
          "midi": 54,
          "name": "F#3",
          "ticks": 5231,
          "time": 60.825581395348834,
          "velocity": 0.25196850393700787
        },
        {
          "duration": 0.05813953488372192,
          "durationTicks": 5,
          "midi": 47,
          "name": "B2",
          "ticks": 5238,
          "time": 60.906976744186046,
          "velocity": 0.13385826771653545
        },
        {
          "duration": 0.38372093023255616,
          "durationTicks": 33,
          "midi": 54,
          "name": "F#3",
          "ticks": 5238,
          "time": 60.906976744186046,
          "velocity": 0.23622047244094488
        },
        {
          "duration": 0.1046511627906952,
          "durationTicks": 9,
          "midi": 90,
          "name": "F#6",
          "ticks": 5241,
          "time": 60.94186046511628,
          "velocity": 0.16535433070866143
        },
        {
          "duration": 0.7674418604651194,
          "durationTicks": 66,
          "midi": 47,
          "name": "B2",
          "ticks": 5244,
          "time": 60.97674418604651,
          "velocity": 0.18110236220472442
        },
        {
          "duration": 0.25581395348837077,
          "durationTicks": 22,
          "midi": 59,
          "name": "B3",
          "ticks": 5271,
          "time": 61.2906976744186,
          "velocity": 0.2047244094488189
        },
        {
          "duration": 0.081395348837205,
          "durationTicks": 7,
          "midi": 54,
          "name": "F#3",
          "ticks": 5272,
          "time": 61.30232558139535,
          "velocity": 0.15748031496062992
        },
        {
          "duration": 0.19767441860464885,
          "durationTicks": 17,
          "midi": 54,
          "name": "F#3",
          "ticks": 5280,
          "time": 61.395348837209305,
          "velocity": 0.13385826771653545
        },
        {
          "duration": 0.15116279069767558,
          "durationTicks": 13,
          "midi": 59,
          "name": "B3",
          "ticks": 5297,
          "time": 61.593023255813954,
          "velocity": 0.33858267716535434
        },
        {
          "duration": 0.09302325581395365,
          "durationTicks": 8,
          "midi": 66,
          "name": "F#4",
          "ticks": 5297,
          "time": 61.593023255813954,
          "velocity": 0.13385826771653545
        },
        {
          "duration": 0.2906976744186025,
          "durationTicks": 25,
          "midi": 66,
          "name": "F#4",
          "ticks": 5310,
          "time": 61.74418604651163,
          "velocity": 0.28346456692913385
        },
        {
          "duration": 0.046511627906973274,
          "durationTicks": 4,
          "midi": 71,
          "name": "B4",
          "ticks": 5310,
          "time": 61.74418604651163,
          "velocity": 0.18110236220472442
        },
        {
          "duration": 0.46511627906976827,
          "durationTicks": 40,
          "midi": 59,
          "name": "B3",
          "ticks": 5311,
          "time": 61.75581395348837,
          "velocity": 0.2992125984251969
        },
        {
          "duration": 0.3953488372093048,
          "durationTicks": 34,
          "midi": 47,
          "name": "B2",
          "ticks": 5317,
          "time": 61.825581395348834,
          "velocity": 0.10236220472440945
        },
        {
          "duration": 0.05813953488372192,
          "durationTicks": 5,
          "midi": 66,
          "name": "F#4",
          "ticks": 5345,
          "time": 62.151162790697676,
          "velocity": 0.09448818897637795
        },
        {
          "duration": 0.02325581395349019,
          "durationTicks": 2,
          "midi": 57,
          "name": "A3",
          "ticks": 5352,
          "time": 62.23255813953488,
          "velocity": 0.2677165354330709
        },
        {
          "duration": 0.19767441860465595,
          "durationTicks": 17,
          "midi": 66,
          "name": "F#4",
          "ticks": 5352,
          "time": 62.23255813953488,
          "velocity": 0.16535433070866143
        },
        {
          "duration": 0.16279069767442422,
          "durationTicks": 14,
          "midi": 71,
          "name": "B4",
          "ticks": 5352,
          "time": 62.23255813953488,
          "velocity": 0.12598425196850394
        },
        {
          "duration": 0.02325581395349019,
          "durationTicks": 2,
          "midi": 55,
          "name": "G3",
          "ticks": 5354,
          "time": 62.25581395348837,
          "velocity": 0.3228346456692913
        },
        {
          "duration": 0.12790697674418539,
          "durationTicks": 11,
          "midi": 54,
          "name": "F#3",
          "ticks": 5356,
          "time": 62.27906976744186,
          "velocity": 0.2440944881889764
        },
        {
          "duration": 0.03488372093023173,
          "durationTicks": 3,
          "midi": 47,
          "name": "B2",
          "ticks": 5364,
          "time": 62.372093023255815,
          "velocity": 0.07874015748031496
        },
        {
          "duration": 0.02325581395349019,
          "durationTicks": 2,
          "midi": 55,
          "name": "G3",
          "ticks": 5367,
          "time": 62.406976744186046,
          "velocity": 0.2677165354330709
        },
        {
          "duration": 0.12790697674418539,
          "durationTicks": 11,
          "midi": 47,
          "name": "B2",
          "ticks": 5368,
          "time": 62.41860465116279,
          "velocity": 0.11811023622047244
        },
        {
          "duration": 0.11627906976743674,
          "durationTicks": 10,
          "midi": 54,
          "name": "F#3",
          "ticks": 5369,
          "time": 62.43023255813954,
          "velocity": 0.2204724409448819
        },
        {
          "duration": 0.02325581395349019,
          "durationTicks": 2,
          "midi": 55,
          "name": "G3",
          "ticks": 5380,
          "time": 62.55813953488372,
          "velocity": 0.33070866141732286
        },
        {
          "duration": 0.12790697674418539,
          "durationTicks": 11,
          "midi": 59,
          "name": "B3",
          "ticks": 5380,
          "time": 62.55813953488372,
          "velocity": 0.29133858267716534
        },
        {
          "duration": 0.09302325581395365,
          "durationTicks": 8,
          "midi": 54,
          "name": "F#3",
          "ticks": 5382,
          "time": 62.58139534883721,
          "velocity": 0.2440944881889764
        },
        {
          "duration": 0.03488372093023173,
          "durationTicks": 3,
          "midi": 47,
          "name": "B2",
          "ticks": 5388,
          "time": 62.651162790697676,
          "velocity": 0.09448818897637795
        },
        {
          "duration": 0.04651162790698038,
          "durationTicks": 4,
          "midi": 66,
          "name": "F#4",
          "ticks": 5392,
          "time": 62.69767441860465,
          "velocity": 0.2204724409448819
        },
        {
          "duration": 0.48837209302325135,
          "durationTicks": 42,
          "midi": 54,
          "name": "F#3",
          "ticks": 5393,
          "time": 62.7093023255814,
          "velocity": 0.3779527559055118
        },
        {
          "duration": 0.4767441860465098,
          "durationTicks": 41,
          "midi": 59,
          "name": "B3",
          "ticks": 5393,
          "time": 62.7093023255814,
          "velocity": 0.29133858267716534
        },
        {
          "duration": 0.32558139534883423,
          "durationTicks": 28,
          "midi": 90,
          "name": "F#6",
          "ticks": 5393,
          "time": 62.7093023255814,
          "velocity": 0.11023622047244094
        },
        {
          "duration": 0.17441860465116577,
          "durationTicks": 15,
          "midi": 67,
          "name": "G4",
          "ticks": 5435,
          "time": 63.19767441860465,
          "velocity": 0.2047244094488189
        },
        {
          "duration": 0.03488372093023173,
          "durationTicks": 3,
          "midi": 71,
          "name": "B4",
          "ticks": 5436,
          "time": 63.2093023255814,
          "velocity": 0.09448818897637795
        },
        {
          "duration": 0.12790697674418539,
          "durationTicks": 11,
          "midi": 43,
          "name": "G2",
          "ticks": 5437,
          "time": 63.22093023255814,
          "velocity": 0.12598425196850394
        },
        {
          "duration": 0.02325581395349019,
          "durationTicks": 2,
          "midi": 55,
          "name": "G3",
          "ticks": 5437,
          "time": 63.22093023255814,
          "velocity": 0.3543307086614173
        },
        {
          "duration": 0.40697674418604635,
          "durationTicks": 35,
          "midi": 54,
          "name": "F#3",
          "ticks": 5439,
          "time": 63.24418604651163,
          "velocity": 0.28346456692913385
        },
        {
          "duration": 0.15116279069766847,
          "durationTicks": 13,
          "midi": 59,
          "name": "B3",
          "ticks": 5449,
          "time": 63.36046511627907,
          "velocity": 0.15748031496062992
        },
        {
          "duration": 0.02325581395349019,
          "durationTicks": 2,
          "midi": 60,
          "name": "C4",
          "ticks": 5462,
          "time": 63.51162790697674,
          "velocity": 0.30708661417322836
        },
        {
          "duration": 0.11627906976744384,
          "durationTicks": 10,
          "midi": 59,
          "name": "B3",
          "ticks": 5464,
          "time": 63.53488372093023,
          "velocity": 0.30708661417322836
        },
        {
          "duration": 0.03488372093023173,
          "durationTicks": 3,
          "midi": 67,
          "name": "G4",
          "ticks": 5474,
          "time": 63.651162790697676,
          "velocity": 0.12598425196850394
        },
        {
          "duration": 0.32558139534883423,
          "durationTicks": 28,
          "midi": 59,
          "name": "B3",
          "ticks": 5478,
          "time": 63.69767441860465,
          "velocity": 0.30708661417322836
        },
        {
          "duration": 0.06976744186047057,
          "durationTicks": 6,
          "midi": 67,
          "name": "G4",
          "ticks": 5478,
          "time": 63.69767441860465,
          "velocity": 0.15748031496062992
        },
        {
          "duration": 0.2906976744186025,
          "durationTicks": 25,
          "midi": 54,
          "name": "F#3",
          "ticks": 5479,
          "time": 63.7093023255814,
          "velocity": 0.2677165354330709
        },
        {
          "duration": 0.06976744186046346,
          "durationTicks": 6,
          "midi": 67,
          "name": "G4",
          "ticks": 5485,
          "time": 63.77906976744186,
          "velocity": 0.16535433070866143
        },
        {
          "duration": 0.03488372093023173,
          "durationTicks": 3,
          "midi": 67,
          "name": "G4",
          "ticks": 5495,
          "time": 63.895348837209305,
          "velocity": 0.13385826771653545
        },
        {
          "duration": 0.03488372093023173,
          "durationTicks": 3,
          "midi": 67,
          "name": "G4",
          "ticks": 5502,
          "time": 63.97674418604651,
          "velocity": 0.10236220472440945
        },
        {
          "duration": 0.03488372093023884,
          "durationTicks": 3,
          "midi": 55,
          "name": "G3",
          "ticks": 5504,
          "time": 64,
          "velocity": 0.33070866141732286
        },
        {
          "duration": 0.9186046511627808,
          "durationTicks": 79,
          "midi": 54,
          "name": "F#3",
          "ticks": 5507,
          "time": 64.03488372093024,
          "velocity": 0.29133858267716534
        },
        {
          "duration": 0.38372093023255616,
          "durationTicks": 33,
          "midi": 59,
          "name": "B3",
          "ticks": 5507,
          "time": 64.03488372093024,
          "velocity": 0.2047244094488189
        },
        {
          "duration": 0.06976744186046346,
          "durationTicks": 6,
          "midi": 67,
          "name": "G4",
          "ticks": 5511,
          "time": 64.0813953488372,
          "velocity": 0.14173228346456693
        },
        {
          "duration": 0.32558139534884845,
          "durationTicks": 28,
          "midi": 59,
          "name": "B3",
          "ticks": 5640,
          "time": 65.5813953488372,
          "velocity": 0.11811023622047244
        },
        {
          "duration": 0.36046511627905886,
          "durationTicks": 31,
          "midi": 61,
          "name": "C#4",
          "ticks": 5669,
          "time": 65.9186046511628,
          "velocity": 0.14960629921259844
        },
        {
          "duration": 0.3139534883720927,
          "durationTicks": 27,
          "midi": 62,
          "name": "D4",
          "ticks": 5705,
          "time": 66.33720930232558,
          "velocity": 0.12598425196850394
        },
        {
          "duration": 0.16279069767442422,
          "durationTicks": 14,
          "midi": 66,
          "name": "F#4",
          "ticks": 5780,
          "time": 67.20930232558139,
          "velocity": 0.12598425196850394
        },
        {
          "duration": 0.3604651162790731,
          "durationTicks": 31,
          "midi": 47,
          "name": "B2",
          "ticks": 5995,
          "time": 69.70930232558139,
          "velocity": 0.07086614173228346
        },
        {
          "duration": 0.1860465116279073,
          "durationTicks": 16,
          "midi": 62,
          "name": "D4",
          "ticks": 6091,
          "time": 70.82558139534883,
          "velocity": 0.11023622047244094
        },
        {
          "duration": 0.36046511627905886,
          "durationTicks": 31,
          "midi": 61,
          "name": "C#4",
          "ticks": 6125,
          "time": 71.22093023255815,
          "velocity": 0.1732283464566929
        },
        {
          "duration": 0.081395348837205,
          "durationTicks": 7,
          "midi": 89,
          "name": "F6",
          "ticks": 6126,
          "time": 71.23255813953489,
          "velocity": 0.07874015748031496
        },
        {
          "duration": 0.04651162790698038,
          "durationTicks": 4,
          "midi": 55,
          "name": "G3",
          "ticks": 6176,
          "time": 71.81395348837209,
          "velocity": 0.13385826771653545
        },
        {
          "duration": 0.05813953488372192,
          "durationTicks": 5,
          "midi": 73,
          "name": "C#5",
          "ticks": 6177,
          "time": 71.82558139534883,
          "velocity": 0.11023622047244094
        },
        {
          "duration": 0.04651162790698038,
          "durationTicks": 4,
          "midi": 57,
          "name": "A3",
          "ticks": 6187,
          "time": 71.94186046511628,
          "velocity": 0.2755905511811024
        },
        {
          "duration": 0.11627906976744384,
          "durationTicks": 10,
          "midi": 57,
          "name": "A3",
          "ticks": 6192,
          "time": 72,
          "velocity": 0.1968503937007874
        },
        {
          "duration": 0.22093023255814614,
          "durationTicks": 19,
          "midi": 59,
          "name": "B3",
          "ticks": 6226,
          "time": 72.3953488372093,
          "velocity": 0.11023622047244094
        },
        {
          "duration": 0.034883720930224626,
          "durationTicks": 3,
          "midi": 71,
          "name": "B4",
          "ticks": 6254,
          "time": 72.72093023255815,
          "velocity": 0.07874015748031496
        },
        {
          "duration": 0.2674418604651123,
          "durationTicks": 23,
          "midi": 54,
          "name": "F#3",
          "ticks": 6263,
          "time": 72.82558139534883,
          "velocity": 0.18110236220472442
        },
        {
          "duration": 0.03488372093023884,
          "durationTicks": 3,
          "midi": 71,
          "name": "B4",
          "ticks": 6286,
          "time": 73.09302325581395,
          "velocity": 0.09448818897637795
        },
        {
          "duration": 0.04651162790698038,
          "durationTicks": 4,
          "midi": 71,
          "name": "B4",
          "ticks": 6294,
          "time": 73.18604651162791,
          "velocity": 0.11023622047244094
        },
        {
          "duration": 0.30232558139535115,
          "durationTicks": 26,
          "midi": 59,
          "name": "B3",
          "ticks": 6295,
          "time": 73.19767441860465,
          "velocity": 0.16535433070866143
        },
        {
          "duration": 0.12790697674418539,
          "durationTicks": 11,
          "midi": 61,
          "name": "C#4",
          "ticks": 6327,
          "time": 73.56976744186046,
          "velocity": 0.09448818897637795
        },
        {
          "duration": 0.04651162790698038,
          "durationTicks": 4,
          "midi": 60,
          "name": "C4",
          "ticks": 6347,
          "time": 73.80232558139535,
          "velocity": 0.13385826771653545
        },
        {
          "duration": 0.30232558139535115,
          "durationTicks": 26,
          "midi": 59,
          "name": "B3",
          "ticks": 6360,
          "time": 73.95348837209302,
          "velocity": 0.11023622047244094
        },
        {
          "duration": 0.10465116279068809,
          "durationTicks": 9,
          "midi": 57,
          "name": "A3",
          "ticks": 6395,
          "time": 74.36046511627907,
          "velocity": 0.2047244094488189
        },
        {
          "duration": 0.25581395348837077,
          "durationTicks": 22,
          "midi": 57,
          "name": "A3",
          "ticks": 6442,
          "time": 74.90697674418605,
          "velocity": 0.16535433070866143
        },
        {
          "duration": 0.04651162790696617,
          "durationTicks": 4,
          "midi": 44,
          "name": "G#2",
          "ticks": 6443,
          "time": 74.9186046511628,
          "velocity": 0.12598425196850394
        },
        {
          "duration": 0.03488372093023884,
          "durationTicks": 3,
          "midi": 44,
          "name": "G#2",
          "ticks": 6451,
          "time": 75.01162790697674,
          "velocity": 0.07086614173228346
        },
        {
          "duration": 0.3720930232558004,
          "durationTicks": 32,
          "midi": 61,
          "name": "C#4",
          "ticks": 6485,
          "time": 75.40697674418605,
          "velocity": 0.14173228346456693
        },
        {
          "duration": 0.11627906976742963,
          "durationTicks": 10,
          "midi": 89,
          "name": "F6",
          "ticks": 6485,
          "time": 75.40697674418605,
          "velocity": 0.13385826771653545
        },
        {
          "duration": 0.03488372093023884,
          "durationTicks": 3,
          "midi": 71,
          "name": "B4",
          "ticks": 6509,
          "time": 75.68604651162791,
          "velocity": 0.08661417322834646
        },
        {
          "duration": 0.04651162790696617,
          "durationTicks": 4,
          "midi": 71,
          "name": "B4",
          "ticks": 6518,
          "time": 75.79069767441861,
          "velocity": 0.11023622047244094
        },
        {
          "duration": 0.04651162790698038,
          "durationTicks": 4,
          "midi": 59,
          "name": "B3",
          "ticks": 6519,
          "time": 75.80232558139535,
          "velocity": 0.1732283464566929
        },
        {
          "duration": 0.05813953488372192,
          "durationTicks": 5,
          "midi": 59,
          "name": "B3",
          "ticks": 6525,
          "time": 75.87209302325581,
          "velocity": 0.14173228346456693
        },
        {
          "duration": 0.10465116279068809,
          "durationTicks": 9,
          "midi": 71,
          "name": "B4",
          "ticks": 6540,
          "time": 76.04651162790698,
          "velocity": 0.12598425196850394
        },
        {
          "duration": 0.03488372093023884,
          "durationTicks": 3,
          "midi": 59,
          "name": "B3",
          "ticks": 6547,
          "time": 76.12790697674419,
          "velocity": 0.11023622047244094
        },
        {
          "duration": 0.418604651162795,
          "durationTicks": 36,
          "midi": 64,
          "name": "E4",
          "ticks": 6548,
          "time": 76.13953488372093,
          "velocity": 0.13385826771653545
        },
        {
          "duration": 0.418604651162795,
          "durationTicks": 36,
          "midi": 76,
          "name": "E5",
          "ticks": 6548,
          "time": 76.13953488372093,
          "velocity": 0.18110236220472442
        },
        {
          "duration": 0.04651162790698038,
          "durationTicks": 4,
          "midi": 59,
          "name": "B3",
          "ticks": 6563,
          "time": 76.31395348837209,
          "velocity": 0.07874015748031496
        },
        {
          "duration": 0.3604651162790731,
          "durationTicks": 31,
          "midi": 61,
          "name": "C#4",
          "ticks": 6581,
          "time": 76.52325581395348,
          "velocity": 0.14960629921259844
        },
        {
          "duration": 0.081395348837205,
          "durationTicks": 7,
          "midi": 89,
          "name": "F6",
          "ticks": 6582,
          "time": 76.53488372093024,
          "velocity": 0.08661417322834646
        },
        {
          "duration": 0.03488372093023884,
          "durationTicks": 3,
          "midi": 57,
          "name": "A3",
          "ticks": 6649,
          "time": 77.31395348837209,
          "velocity": 0.3228346456692913
        },
        {
          "duration": 0.023255813953483084,
          "durationTicks": 2,
          "midi": 57,
          "name": "A3",
          "ticks": 6653,
          "time": 77.36046511627907,
          "velocity": 0.2283464566929134
        },
        {
          "duration": 0.03488372093023884,
          "durationTicks": 3,
          "midi": 57,
          "name": "A3",
          "ticks": 6656,
          "time": 77.3953488372093,
          "velocity": 0.1968503937007874
        },
        {
          "duration": 0.05813953488372192,
          "durationTicks": 5,
          "midi": 57,
          "name": "A3",
          "ticks": 6660,
          "time": 77.44186046511628,
          "velocity": 0.16535433070866143
        },
        {
          "duration": 0.04651162790696617,
          "durationTicks": 4,
          "midi": 57,
          "name": "A3",
          "ticks": 6679,
          "time": 77.66279069767442,
          "velocity": 0.11023622047244094
        },
        {
          "duration": 0.13953488372092693,
          "durationTicks": 12,
          "midi": 59,
          "name": "B3",
          "ticks": 6691,
          "time": 77.80232558139535,
          "velocity": 0.12598425196850394
        },
        {
          "duration": 0.27906976744185386,
          "durationTicks": 24,
          "midi": 61,
          "name": "C#4",
          "ticks": 6722,
          "time": 78.16279069767442,
          "velocity": 0.1968503937007874
        },
        {
          "duration": 0.16279069767441,
          "durationTicks": 14,
          "midi": 89,
          "name": "F6",
          "ticks": 6722,
          "time": 78.16279069767442,
          "velocity": 0.2047244094488189
        },
        {
          "duration": 0.04651162790696617,
          "durationTicks": 4,
          "midi": 69,
          "name": "A4",
          "ticks": 6743,
          "time": 78.40697674418605,
          "velocity": 0.12598425196850394
        },
        {
          "duration": 0.3139534883720927,
          "durationTicks": 27,
          "midi": 62,
          "name": "D4",
          "ticks": 6752,
          "time": 78.51162790697674,
          "velocity": 0.2047244094488189
        },
        {
          "duration": 0.04651162790696617,
          "durationTicks": 4,
          "midi": 69,
          "name": "A4",
          "ticks": 6776,
          "time": 78.79069767441861,
          "velocity": 0.11811023622047244
        },
        {
          "duration": 0.04651162790698038,
          "durationTicks": 4,
          "midi": 62,
          "name": "D4",
          "ticks": 6780,
          "time": 78.83720930232558,
          "velocity": 0.09448818897637795
        },
        {
          "duration": 0.2674418604651265,
          "durationTicks": 23,
          "midi": 64,
          "name": "E4",
          "ticks": 6785,
          "time": 78.8953488372093,
          "velocity": 0.16535433070866143
        },
        {
          "duration": 0.2093023255814046,
          "durationTicks": 18,
          "midi": 76,
          "name": "E5",
          "ticks": 6785,
          "time": 78.8953488372093,
          "velocity": 0.16535433070866143
        },
        {
          "duration": 0.30232558139535115,
          "durationTicks": 26,
          "midi": 66,
          "name": "F#4",
          "ticks": 6821,
          "time": 79.31395348837209,
          "velocity": 0.11811023622047244
        },
        {
          "duration": 0.4418604651162781,
          "durationTicks": 38,
          "midi": 59,
          "name": "B3",
          "ticks": 6886,
          "time": 80.06976744186046,
          "velocity": 0.14173228346456693
        },
        {
          "duration": 0.03488372093023884,
          "durationTicks": 3,
          "midi": 47,
          "name": "B2",
          "ticks": 6913,
          "time": 80.38372093023256,
          "velocity": 0.07086614173228346
        },
        {
          "duration": 0.11627906976742963,
          "durationTicks": 10,
          "midi": 74,
          "name": "D5",
          "ticks": 6926,
          "time": 80.53488372093024,
          "velocity": 0.09448818897637795
        },
        {
          "duration": 0.22093023255814614,
          "durationTicks": 19,
          "midi": 66,
          "name": "F#4",
          "ticks": 6936,
          "time": 80.65116279069767,
          "velocity": 0.12598425196850394
        },
        {
          "duration": 0.2093023255814046,
          "durationTicks": 18,
          "midi": 74,
          "name": "D5",
          "ticks": 6973,
          "time": 81.0813953488372,
          "velocity": 0.16535433070866143
        },
        {
          "duration": 0.16279069767441,
          "durationTicks": 14,
          "midi": 62,
          "name": "D4",
          "ticks": 6975,
          "time": 81.1046511627907,
          "velocity": 0.14173228346456693
        },
        {
          "duration": 0.34883720930233153,
          "durationTicks": 30,
          "midi": 61,
          "name": "C#4",
          "ticks": 7009,
          "time": 81.5,
          "velocity": 0.1968503937007874
        },
        {
          "duration": 0.17441860465116577,
          "durationTicks": 15,
          "midi": 89,
          "name": "F6",
          "ticks": 7010,
          "time": 81.51162790697674,
          "velocity": 0.14960629921259844
        },
        {
          "duration": 0.04651162790698038,
          "durationTicks": 4,
          "midi": 61,
          "name": "C#4",
          "ticks": 7046,
          "time": 81.93023255813954,
          "velocity": 0.16535433070866143
        },
        {
          "duration": 0.03488372093023884,
          "durationTicks": 3,
          "midi": 55,
          "name": "G3",
          "ticks": 7059,
          "time": 82.0813953488372,
          "velocity": 0.08661417322834646
        },
        {
          "duration": 0.034883720930224626,
          "durationTicks": 3,
          "midi": 73,
          "name": "C#5",
          "ticks": 7061,
          "time": 82.1046511627907,
          "velocity": 0.07086614173228346
        },
        {
          "duration": 0.09302325581396076,
          "durationTicks": 8,
          "midi": 57,
          "name": "A3",
          "ticks": 7069,
          "time": 82.19767441860465,
          "velocity": 0.3228346456692913
        },
        {
          "duration": 0.1046511627907023,
          "durationTicks": 9,
          "midi": 57,
          "name": "A3",
          "ticks": 7078,
          "time": 82.30232558139535,
          "velocity": 0.1889763779527559
        },
        {
          "duration": 0.10465116279068809,
          "durationTicks": 9,
          "midi": 57,
          "name": "A3",
          "ticks": 7088,
          "time": 82.4186046511628,
          "velocity": 0.2125984251968504
        },
        {
          "duration": 0.03488372093023884,
          "durationTicks": 3,
          "midi": 71,
          "name": "B4",
          "ticks": 7129,
          "time": 82.8953488372093,
          "velocity": 0.08661417322834646
        },
        {
          "duration": 0.3953488372092977,
          "durationTicks": 34,
          "midi": 66,
          "name": "F#4",
          "ticks": 7137,
          "time": 82.98837209302326,
          "velocity": 0.18110236220472442
        },
        {
          "duration": 0.16279069767442422,
          "durationTicks": 14,
          "midi": 54,
          "name": "F#3",
          "ticks": 7138,
          "time": 83,
          "velocity": 0.25196850393700787
        },
        {
          "duration": 0.06976744186046346,
          "durationTicks": 6,
          "midi": 54,
          "name": "F#3",
          "ticks": 7153,
          "time": 83.17441860465117,
          "velocity": 0.2283464566929134
        },
        {
          "duration": 0.034883720930224626,
          "durationTicks": 3,
          "midi": 71,
          "name": "B4",
          "ticks": 7159,
          "time": 83.24418604651163,
          "velocity": 0.07874015748031496
        },
        {
          "duration": 0.05813953488372192,
          "durationTicks": 5,
          "midi": 54,
          "name": "F#3",
          "ticks": 7160,
          "time": 83.25581395348837,
          "velocity": 0.13385826771653545
        },
        {
          "duration": 0.13953488372092693,
          "durationTicks": 12,
          "midi": 59,
          "name": "B3",
          "ticks": 7168,
          "time": 83.34883720930233,
          "velocity": 0.16535433070866143
        },
        {
          "duration": 0.081395348837205,
          "durationTicks": 7,
          "midi": 59,
          "name": "B3",
          "ticks": 7181,
          "time": 83.5,
          "velocity": 0.10236220472440945
        },
        {
          "duration": 0.16279069767442422,
          "durationTicks": 14,
          "midi": 76,
          "name": "E5",
          "ticks": 7189,
          "time": 83.59302325581395,
          "velocity": 0.14173228346456693
        },
        {
          "duration": 0.418604651162795,
          "durationTicks": 36,
          "midi": 61,
          "name": "C#4",
          "ticks": 7198,
          "time": 83.69767441860465,
          "velocity": 0.25196850393700787
        },
        {
          "duration": 0.15116279069768268,
          "durationTicks": 13,
          "midi": 89,
          "name": "F6",
          "ticks": 7198,
          "time": 83.69767441860465,
          "velocity": 0.1889763779527559
        },
        {
          "duration": 0.13953488372092693,
          "durationTicks": 12,
          "midi": 76,
          "name": "E5",
          "ticks": 7223,
          "time": 83.98837209302326,
          "velocity": 0.18110236220472442
        },
        {
          "duration": 0.04651162790698038,
          "durationTicks": 4,
          "midi": 76,
          "name": "E5",
          "ticks": 7241,
          "time": 84.19767441860465,
          "velocity": 0.10236220472440945
        },
        {
          "duration": 0.13953488372094114,
          "durationTicks": 12,
          "midi": 76,
          "name": "E5",
          "ticks": 7258,
          "time": 84.3953488372093,
          "velocity": 0.14173228346456693
        },
        {
          "duration": 0.2674418604651123,
          "durationTicks": 23,
          "midi": 57,
          "name": "A3",
          "ticks": 7267,
          "time": 84.5,
          "velocity": 0.25196850393700787
        },
        {
          "duration": 0.04651162790698038,
          "durationTicks": 4,
          "midi": 76,
          "name": "E5",
          "ticks": 7279,
          "time": 84.63953488372093,
          "velocity": 0.07086614173228346
        },
        {
          "duration": 0.034883720930224626,
          "durationTicks": 3,
          "midi": 57,
          "name": "A3",
          "ticks": 7297,
          "time": 84.84883720930233,
          "velocity": 0.09448818897637795
        },
        {
          "duration": 0.05813953488372192,
          "durationTicks": 5,
          "midi": 44,
          "name": "G#2",
          "ticks": 7310,
          "time": 85,
          "velocity": 0.1732283464566929
        },
        {
          "duration": 0.30232558139535115,
          "durationTicks": 26,
          "midi": 57,
          "name": "A3",
          "ticks": 7310,
          "time": 85,
          "velocity": 0.2204724409448819
        },
        {
          "duration": 0.03488372093023884,
          "durationTicks": 3,
          "midi": 45,
          "name": "A2",
          "ticks": 7327,
          "time": 85.19767441860465,
          "velocity": 0.07086614173228346
        },
        {
          "duration": 0.05813953488372192,
          "durationTicks": 5,
          "midi": 45,
          "name": "A2",
          "ticks": 7334,
          "time": 85.27906976744185,
          "velocity": 0.07086614173228346
        },
        {
          "duration": 0.38372093023255616,
          "durationTicks": 33,
          "midi": 61,
          "name": "C#4",
          "ticks": 7353,
          "time": 85.5,
          "velocity": 0.1889763779527559
        },
        {
          "duration": 0.17441860465116577,
          "durationTicks": 15,
          "midi": 76,
          "name": "E5",
          "ticks": 7379,
          "time": 85.80232558139535,
          "velocity": 0.2440944881889764
        },
        {
          "duration": 0.13953488372092693,
          "durationTicks": 12,
          "midi": 59,
          "name": "B3",
          "ticks": 7388,
          "time": 85.90697674418605,
          "velocity": 0.10236220472440945
        },
        {
          "duration": 0.11627906976744384,
          "durationTicks": 10,
          "midi": 69,
          "name": "A4",
          "ticks": 7423,
          "time": 86.31395348837209,
          "velocity": 0.1889763779527559
        },
        {
          "duration": 0.3720930232558146,
          "durationTicks": 32,
          "midi": 61,
          "name": "C#4",
          "ticks": 7464,
          "time": 86.79069767441861,
          "velocity": 0.2283464566929134
        },
        {
          "duration": 0.13953488372092693,
          "durationTicks": 12,
          "midi": 89,
          "name": "F6",
          "ticks": 7464,
          "time": 86.79069767441861,
          "velocity": 0.1732283464566929
        },
        {
          "duration": 0.3488372093023173,
          "durationTicks": 30,
          "midi": 59,
          "name": "B3",
          "ticks": 7497,
          "time": 87.17441860465117,
          "velocity": 0.2125984251968504
        },
        {
          "duration": 0.023255813953497295,
          "durationTicks": 2,
          "midi": 61,
          "name": "C#4",
          "ticks": 7526,
          "time": 87.51162790697674,
          "velocity": 0.2283464566929134
        },
        {
          "duration": 0.2325581395348877,
          "durationTicks": 20,
          "midi": 74,
          "name": "D5",
          "ticks": 7527,
          "time": 87.52325581395348,
          "velocity": 0.14960629921259844
        },
        {
          "duration": 0.3139534883720927,
          "durationTicks": 27,
          "midi": 62,
          "name": "D4",
          "ticks": 7528,
          "time": 87.53488372093024,
          "velocity": 0.25984251968503935
        },
        {
          "duration": 0.32558139534884845,
          "durationTicks": 28,
          "midi": 61,
          "name": "C#4",
          "ticks": 7559,
          "time": 87.8953488372093,
          "velocity": 0.25984251968503935
        },
        {
          "duration": 0.12790697674418539,
          "durationTicks": 11,
          "midi": 89,
          "name": "F6",
          "ticks": 7559,
          "time": 87.8953488372093,
          "velocity": 0.1889763779527559
        },
        {
          "duration": 0.38372093023255616,
          "durationTicks": 33,
          "midi": 59,
          "name": "B3",
          "ticks": 7589,
          "time": 88.24418604651163,
          "velocity": 0.2047244094488189
        },
        {
          "duration": 0.16279069767442422,
          "durationTicks": 14,
          "midi": 76,
          "name": "E5",
          "ticks": 7612,
          "time": 88.51162790697674,
          "velocity": 0.2047244094488189
        },
        {
          "duration": 0.13953488372092693,
          "durationTicks": 12,
          "midi": 57,
          "name": "A3",
          "ticks": 7622,
          "time": 88.62790697674419,
          "velocity": 0.29133858267716534
        },
        {
          "duration": 0.03488372093023884,
          "durationTicks": 3,
          "midi": 57,
          "name": "A3",
          "ticks": 7638,
          "time": 88.81395348837209,
          "velocity": 0.14960629921259844
        },
        {
          "duration": 0.16279069767441,
          "durationTicks": 14,
          "midi": 76,
          "name": "E5",
          "ticks": 7646,
          "time": 88.90697674418605,
          "velocity": 0.1889763779527559
        },
        {
          "duration": 0.33720930232559,
          "durationTicks": 29,
          "midi": 55,
          "name": "G3",
          "ticks": 7656,
          "time": 89.02325581395348,
          "velocity": 0.23622047244094488
        },
        {
          "duration": 0.03488372093023884,
          "durationTicks": 3,
          "midi": 55,
          "name": "G3",
          "ticks": 7688,
          "time": 89.3953488372093,
          "velocity": 0.07874015748031496
        },
        {
          "duration": 0.05813953488372192,
          "durationTicks": 5,
          "midi": 54,
          "name": "F#3",
          "ticks": 7695,
          "time": 89.47674418604652,
          "velocity": 0.15748031496062992
        },
        {
          "duration": 0.05813953488372192,
          "durationTicks": 5,
          "midi": 54,
          "name": "F#3",
          "ticks": 7703,
          "time": 89.56976744186046,
          "velocity": 0.07874015748031496
        },
        {
          "duration": 0.04651162790698038,
          "durationTicks": 4,
          "midi": 54,
          "name": "F#3",
          "ticks": 7713,
          "time": 89.68604651162791,
          "velocity": 0.07086614173228346
        },
        {
          "duration": 0.2674418604651123,
          "durationTicks": 23,
          "midi": 62,
          "name": "D4",
          "ticks": 7848,
          "time": 91.25581395348837,
          "velocity": 0.14173228346456693
        },
        {
          "duration": 0.3488372093023173,
          "durationTicks": 30,
          "midi": 64,
          "name": "E4",
          "ticks": 7878,
          "time": 91.6046511627907,
          "velocity": 0.1732283464566929
        },
        {
          "duration": 0.2906976744185954,
          "durationTicks": 25,
          "midi": 76,
          "name": "E5",
          "ticks": 7878,
          "time": 91.6046511627907,
          "velocity": 0.18110236220472442
        },
        {
          "duration": 0.06976744186046346,
          "durationTicks": 6,
          "midi": 73,
          "name": "C#5",
          "ticks": 7900,
          "time": 91.86046511627907,
          "velocity": 0.07874015748031496
        },
        {
          "duration": 0.24418604651162923,
          "durationTicks": 21,
          "midi": 66,
          "name": "F#4",
          "ticks": 7908,
          "time": 91.95348837209302,
          "velocity": 0.15748031496062992
        },
        {
          "duration": 0.04651162790698038,
          "durationTicks": 4,
          "midi": 64,
          "name": "E4",
          "ticks": 7929,
          "time": 92.19767441860465,
          "velocity": 0.07874015748031496
        },
        {
          "duration": 0.17441860465116577,
          "durationTicks": 15,
          "midi": 67,
          "name": "G4",
          "ticks": 7941,
          "time": 92.33720930232558,
          "velocity": 0.14960629921259844
        },
        {
          "duration": 0.6511627906976685,
          "durationTicks": 56,
          "midi": 66,
          "name": "F#4",
          "ticks": 7974,
          "time": 92.72093023255815,
          "velocity": 0.15748031496062992
        },
        {
          "duration": 0.581395348837205,
          "durationTicks": 50,
          "midi": 62,
          "name": "D4",
          "ticks": 8009,
          "time": 93.12790697674419,
          "velocity": 0.15748031496062992
        },
        {
          "duration": 0.3372093023255758,
          "durationTicks": 29,
          "midi": 66,
          "name": "F#4",
          "ticks": 8041,
          "time": 93.5,
          "velocity": 0.14173228346456693
        },
        {
          "duration": 0.27906976744186807,
          "durationTicks": 24,
          "midi": 59,
          "name": "B3",
          "ticks": 8075,
          "time": 93.8953488372093,
          "velocity": 0.16535433070866143
        },
        {
          "duration": 0.04651162790698038,
          "durationTicks": 4,
          "midi": 71,
          "name": "B4",
          "ticks": 8099,
          "time": 94.17441860465117,
          "velocity": 0.07874015748031496
        },
        {
          "duration": 0.13953488372092693,
          "durationTicks": 12,
          "midi": 73,
          "name": "C#5",
          "ticks": 8106,
          "time": 94.25581395348837,
          "velocity": 0.12598425196850394
        },
        {
          "duration": 0.30232558139535115,
          "durationTicks": 26,
          "midi": 61,
          "name": "C#4",
          "ticks": 8108,
          "time": 94.27906976744185,
          "velocity": 0.1889763779527559
        },
        {
          "duration": 0.40697674418605345,
          "durationTicks": 35,
          "midi": 62,
          "name": "D4",
          "ticks": 8139,
          "time": 94.63953488372093,
          "velocity": 0.18110236220472442
        },
        {
          "duration": 0.23255813953487348,
          "durationTicks": 20,
          "midi": 76,
          "name": "E5",
          "ticks": 8174,
          "time": 95.04651162790698,
          "velocity": 0.11023622047244094
        },
        {
          "duration": 0.04651162790698038,
          "durationTicks": 4,
          "midi": 64,
          "name": "E4",
          "ticks": 8177,
          "time": 95.0813953488372,
          "velocity": 0.07086614173228346
        },
        {
          "duration": 0.27906976744185386,
          "durationTicks": 24,
          "midi": 61,
          "name": "C#4",
          "ticks": 8227,
          "time": 95.66279069767442,
          "velocity": 0.09448818897637795
        },
        {
          "duration": 0.19767441860464885,
          "durationTicks": 17,
          "midi": 57,
          "name": "A3",
          "ticks": 8262,
          "time": 96.06976744186046,
          "velocity": 0.2992125984251969
        },
        {
          "duration": 0.04651162790698038,
          "durationTicks": 4,
          "midi": 71,
          "name": "B4",
          "ticks": 8285,
          "time": 96.33720930232558,
          "velocity": 0.09448818897637795
        },
        {
          "duration": 0.05813953488372192,
          "durationTicks": 5,
          "midi": 44,
          "name": "G#2",
          "ticks": 8294,
          "time": 96.44186046511628,
          "velocity": 0.2125984251968504
        },
        {
          "duration": 0.2325581395348877,
          "durationTicks": 20,
          "midi": 57,
          "name": "A3",
          "ticks": 8295,
          "time": 96.45348837209302,
          "velocity": 0.25196850393700787
        },
        {
          "duration": 0.04651162790698038,
          "durationTicks": 4,
          "midi": 44,
          "name": "G#2",
          "ticks": 8301,
          "time": 96.52325581395348,
          "velocity": 0.14173228346456693
        },
        {
          "duration": 0.05813953488372192,
          "durationTicks": 5,
          "midi": 45,
          "name": "A2",
          "ticks": 8313,
          "time": 96.66279069767442,
          "velocity": 0.14960629921259844
        },
        {
          "duration": 0.03488372093023884,
          "durationTicks": 3,
          "midi": 71,
          "name": "B4",
          "ticks": 8316,
          "time": 96.69767441860465,
          "velocity": 0.08661417322834646
        },
        {
          "duration": 0.034883720930224626,
          "durationTicks": 3,
          "midi": 45,
          "name": "A2",
          "ticks": 8320,
          "time": 96.74418604651163,
          "velocity": 0.13385826771653545
        },
        {
          "duration": 0.5930232558139608,
          "durationTicks": 51,
          "midi": 61,
          "name": "C#4",
          "ticks": 8322,
          "time": 96.76744186046511,
          "velocity": 0.18110236220472442
        },
        {
          "duration": 0.03488372093023884,
          "durationTicks": 3,
          "midi": 57,
          "name": "A3",
          "ticks": 8350,
          "time": 97.09302325581395,
          "velocity": 0.14960629921259844
        },
        {
          "duration": 0.2325581395348877,
          "durationTicks": 20,
          "midi": 76,
          "name": "E5",
          "ticks": 8352,
          "time": 97.11627906976744,
          "velocity": 0.12598425196850394
        },
        {
          "duration": 0.03488372093023884,
          "durationTicks": 3,
          "midi": 44,
          "name": "G#2",
          "ticks": 8353,
          "time": 97.12790697674419,
          "velocity": 0.08661417322834646
        },
        {
          "duration": 0.17441860465116577,
          "durationTicks": 15,
          "midi": 64,
          "name": "E4",
          "ticks": 8355,
          "time": 97.15116279069767,
          "velocity": 0.08661417322834646
        },
        {
          "duration": 0.2093023255813904,
          "durationTicks": 18,
          "midi": 74,
          "name": "D5",
          "ticks": 8383,
          "time": 97.47674418604652,
          "velocity": 0.1732283464566929
        },
        {
          "duration": 0.3488372093023173,
          "durationTicks": 30,
          "midi": 62,
          "name": "D4",
          "ticks": 8384,
          "time": 97.48837209302326,
          "velocity": 0.1968503937007874
        },
        {
          "duration": 0.034883720930224626,
          "durationTicks": 3,
          "midi": 69,
          "name": "A4",
          "ticks": 8406,
          "time": 97.74418604651163,
          "velocity": 0.07874015748031496
        },
        {
          "duration": 0.03488372093023884,
          "durationTicks": 3,
          "midi": 55,
          "name": "G3",
          "ticks": 8414,
          "time": 97.83720930232558,
          "velocity": 0.11023622047244094
        },
        {
          "duration": 0.13953488372094114,
          "durationTicks": 12,
          "midi": 73,
          "name": "C#5",
          "ticks": 8414,
          "time": 97.83720930232558,
          "velocity": 0.13385826771653545
        },
        {
          "duration": 0.3720930232558146,
          "durationTicks": 32,
          "midi": 61,
          "name": "C#4",
          "ticks": 8415,
          "time": 97.84883720930233,
          "velocity": 0.23622047244094488
        },
        {
          "duration": 0.081395348837205,
          "durationTicks": 7,
          "midi": 89,
          "name": "F6",
          "ticks": 8415,
          "time": 97.84883720930233,
          "velocity": 0.10236220472440945
        },
        {
          "duration": 0.034883720930224626,
          "durationTicks": 3,
          "midi": 59,
          "name": "B3",
          "ticks": 8447,
          "time": 98.22093023255815,
          "velocity": 0.14960629921259844
        },
        {
          "duration": 0.05813953488372192,
          "durationTicks": 5,
          "midi": 59,
          "name": "B3",
          "ticks": 8454,
          "time": 98.30232558139535,
          "velocity": 0.09448818897637795
        },
        {
          "duration": 0.11627906976744384,
          "durationTicks": 10,
          "midi": 59,
          "name": "B3",
          "ticks": 8460,
          "time": 98.37209302325581,
          "velocity": 0.11023622047244094
        },
        {
          "duration": 0.43023255813953654,
          "durationTicks": 37,
          "midi": 61,
          "name": "C#4",
          "ticks": 8479,
          "time": 98.59302325581395,
          "velocity": 0.1732283464566929
        },
        {
          "duration": 0.05813953488372192,
          "durationTicks": 5,
          "midi": 89,
          "name": "F6",
          "ticks": 8481,
          "time": 98.61627906976744,
          "velocity": 0.07086614173228346
        },
        {
          "duration": 0.12790697674418539,
          "durationTicks": 11,
          "midi": 57,
          "name": "A3",
          "ticks": 8513,
          "time": 98.98837209302326,
          "velocity": 0.2755905511811024
        },
        {
          "duration": 0.1046511627907023,
          "durationTicks": 9,
          "midi": 57,
          "name": "A3",
          "ticks": 8525,
          "time": 99.12790697674419,
          "velocity": 0.07086614173228346
        },
        {
          "duration": 0.12790697674418539,
          "durationTicks": 11,
          "midi": 57,
          "name": "A3",
          "ticks": 8552,
          "time": 99.44186046511628,
          "velocity": 0.11811023622047244
        },
        {
          "duration": 0.4767441860465169,
          "durationTicks": 41,
          "midi": 61,
          "name": "C#4",
          "ticks": 8552,
          "time": 99.44186046511628,
          "velocity": 0.10236220472440945
        },
        {
          "duration": 0.25581395348837077,
          "durationTicks": 22,
          "midi": 61,
          "name": "C#4",
          "ticks": 8718,
          "time": 101.37209302325581,
          "velocity": 0.09448818897637795
        },
        {
          "duration": 0.03488372093023884,
          "durationTicks": 3,
          "midi": 74,
          "name": "D5",
          "ticks": 8751,
          "time": 101.75581395348837,
          "velocity": 0.08661417322834646
        },
        {
          "duration": 0.2674418604651265,
          "durationTicks": 23,
          "midi": 62,
          "name": "D4",
          "ticks": 8753,
          "time": 101.77906976744185,
          "velocity": 0.08661417322834646
        },
        {
          "duration": 0.034883720930224626,
          "durationTicks": 3,
          "midi": 56,
          "name": "G#3",
          "ticks": 8775,
          "time": 102.03488372093024,
          "velocity": 0.08661417322834646
        },
        {
          "duration": 0.38372093023255616,
          "durationTicks": 33,
          "midi": 64,
          "name": "E4",
          "ticks": 8782,
          "time": 102.11627906976744,
          "velocity": 0.15748031496062992
        },
        {
          "duration": 0.3372093023255758,
          "durationTicks": 29,
          "midi": 76,
          "name": "E5",
          "ticks": 8782,
          "time": 102.11627906976744,
          "velocity": 0.1889763779527559
        },
        {
          "duration": 0.36046511627905886,
          "durationTicks": 31,
          "midi": 66,
          "name": "F#4",
          "ticks": 8813,
          "time": 102.47674418604652,
          "velocity": 0.1732283464566929
        },
        {
          "duration": 0.03488372093023884,
          "durationTicks": 3,
          "midi": 56,
          "name": "G#3",
          "ticks": 8843,
          "time": 102.82558139534883,
          "velocity": 0.07086614173228346
        },
        {
          "duration": 0.1860465116279073,
          "durationTicks": 16,
          "midi": 67,
          "name": "G4",
          "ticks": 8844,
          "time": 102.83720930232558,
          "velocity": 0.1732283464566929
        },
        {
          "duration": 0.03488372093023884,
          "durationTicks": 3,
          "midi": 56,
          "name": "G#3",
          "ticks": 8865,
          "time": 103.0813953488372,
          "velocity": 0.14960629921259844
        },
        {
          "duration": 0.6511627906976827,
          "durationTicks": 56,
          "midi": 66,
          "name": "F#4",
          "ticks": 8876,
          "time": 103.20930232558139,
          "velocity": 0.1732283464566929
        },
        {
          "duration": 0.03488372093023884,
          "durationTicks": 3,
          "midi": 71,
          "name": "B4",
          "ticks": 8901,
          "time": 103.5,
          "velocity": 0.07874015748031496
        },
        {
          "duration": 0.5581395348837219,
          "durationTicks": 48,
          "midi": 62,
          "name": "D4",
          "ticks": 8908,
          "time": 103.5813953488372,
          "velocity": 0.1732283464566929
        },
        {
          "duration": 0.034883720930224626,
          "durationTicks": 3,
          "midi": 71,
          "name": "B4",
          "ticks": 8932,
          "time": 103.86046511627907,
          "velocity": 0.08661417322834646
        },
        {
          "duration": 0.418604651162795,
          "durationTicks": 36,
          "midi": 66,
          "name": "F#4",
          "ticks": 8939,
          "time": 103.94186046511628,
          "velocity": 0.18110236220472442
        },
        {
          "duration": 0.04651162790696617,
          "durationTicks": 4,
          "midi": 71,
          "name": "B4",
          "ticks": 8964,
          "time": 104.23255813953489,
          "velocity": 0.11023622047244094
        },
        {
          "duration": 0.25581395348837077,
          "durationTicks": 22,
          "midi": 59,
          "name": "B3",
          "ticks": 8975,
          "time": 104.36046511627907,
          "velocity": 0.16535433070866143
        },
        {
          "duration": 0.38372093023255616,
          "durationTicks": 33,
          "midi": 61,
          "name": "C#4",
          "ticks": 9008,
          "time": 104.74418604651163,
          "velocity": 0.2125984251968504
        },
        {
          "duration": 0.36046511627905886,
          "durationTicks": 31,
          "midi": 62,
          "name": "D4",
          "ticks": 9044,
          "time": 105.16279069767442,
          "velocity": 0.15748031496062992
        },
        {
          "duration": 0.023255813953483084,
          "durationTicks": 2,
          "midi": 54,
          "name": "F#3",
          "ticks": 9099,
          "time": 105.80232558139535,
          "velocity": 0.2755905511811024
        },
        {
          "duration": 0.5348837209302388,
          "durationTicks": 46,
          "midi": 66,
          "name": "F#4",
          "ticks": 9101,
          "time": 105.82558139534883,
          "velocity": 0.11811023622047244
        },
        {
          "duration": 0.4651162790697754,
          "durationTicks": 40,
          "midi": 54,
          "name": "F#3",
          "ticks": 9102,
          "time": 105.83720930232558,
          "velocity": 0.2755905511811024
        },
        {
          "duration": 0.081395348837205,
          "durationTicks": 7,
          "midi": 76,
          "name": "E5",
          "ticks": 9132,
          "time": 106.18604651162791,
          "velocity": 0.12598425196850394
        },
        {
          "duration": 0.16279069767441,
          "durationTicks": 14,
          "midi": 76,
          "name": "E5",
          "ticks": 9142,
          "time": 106.30232558139535,
          "velocity": 0.14960629921259844
        },
        {
          "duration": 0.11627906976744384,
          "durationTicks": 10,
          "midi": 54,
          "name": "F#3",
          "ticks": 9143,
          "time": 106.31395348837209,
          "velocity": 0.1968503937007874
        },
        {
          "duration": 0.034883720930224626,
          "durationTicks": 3,
          "midi": 55,
          "name": "G3",
          "ticks": 9153,
          "time": 106.43023255813954,
          "velocity": 0.23622047244094488
        },
        {
          "duration": 0.06976744186046346,
          "durationTicks": 6,
          "midi": 55,
          "name": "G3",
          "ticks": 9157,
          "time": 106.47674418604652,
          "velocity": 0.2125984251968504
        },
        {
          "duration": 0.03488372093023884,
          "durationTicks": 3,
          "midi": 55,
          "name": "G3",
          "ticks": 9165,
          "time": 106.56976744186046,
          "velocity": 0.12598425196850394
        },
        {
          "duration": 0.24418604651162923,
          "durationTicks": 21,
          "midi": 76,
          "name": "E5",
          "ticks": 9170,
          "time": 106.62790697674419,
          "velocity": 0.11023622047244094
        },
        {
          "duration": 0.034883720930224626,
          "durationTicks": 3,
          "midi": 55,
          "name": "G3",
          "ticks": 9174,
          "time": 106.67441860465117,
          "velocity": 0.16535433070866143
        },
        {
          "duration": 0.03488372093023884,
          "durationTicks": 3,
          "midi": 55,
          "name": "G3",
          "ticks": 9181,
          "time": 106.75581395348837,
          "velocity": 0.12598425196850394
        },
        {
          "duration": 0.2325581395348877,
          "durationTicks": 20,
          "midi": 57,
          "name": "A3",
          "ticks": 9185,
          "time": 106.80232558139535,
          "velocity": 0.33070866141732286
        },
        {
          "duration": 0.13953488372094114,
          "durationTicks": 12,
          "midi": 76,
          "name": "E5",
          "ticks": 9209,
          "time": 107.0813953488372,
          "velocity": 0.16535433070866143
        },
        {
          "duration": 0.11627906976744384,
          "durationTicks": 10,
          "midi": 59,
          "name": "B3",
          "ticks": 9217,
          "time": 107.17441860465117,
          "velocity": 0.07874015748031496
        },
        {
          "duration": 0.04651162790696617,
          "durationTicks": 4,
          "midi": 76,
          "name": "E5",
          "ticks": 9232,
          "time": 107.34883720930233,
          "velocity": 0.12598425196850394
        },
        {
          "duration": 0.16279069767441,
          "durationTicks": 14,
          "midi": 76,
          "name": "E5",
          "ticks": 9237,
          "time": 107.40697674418605,
          "velocity": 0.23622047244094488
        },
        {
          "duration": 0.32558139534883423,
          "durationTicks": 28,
          "midi": 61,
          "name": "C#4",
          "ticks": 9245,
          "time": 107.5,
          "velocity": 0.2204724409448819
        },
        {
          "duration": 0.12790697674418539,
          "durationTicks": 11,
          "midi": 89,
          "name": "F6",
          "ticks": 9245,
          "time": 107.5,
          "velocity": 0.18110236220472442
        },
        {
          "duration": 0.04651162790698038,
          "durationTicks": 4,
          "midi": 76,
          "name": "E5",
          "ticks": 9262,
          "time": 107.69767441860465,
          "velocity": 0.16535433070866143
        },
        {
          "duration": 0.15116279069768268,
          "durationTicks": 13,
          "midi": 76,
          "name": "E5",
          "ticks": 9268,
          "time": 107.76744186046511,
          "velocity": 0.2755905511811024
        },
        {
          "duration": 0.24418604651161502,
          "durationTicks": 21,
          "midi": 62,
          "name": "D4",
          "ticks": 9275,
          "time": 107.84883720930233,
          "velocity": 0.23622047244094488
        },
        {
          "duration": 0.03488372093023884,
          "durationTicks": 3,
          "midi": 63,
          "name": "D#4",
          "ticks": 9296,
          "time": 108.09302325581395,
          "velocity": 0.14960629921259844
        },
        {
          "duration": 0.24418604651162923,
          "durationTicks": 21,
          "midi": 64,
          "name": "E4",
          "ticks": 9306,
          "time": 108.20930232558139,
          "velocity": 0.2204724409448819
        },
        {
          "duration": 0.03488372093023884,
          "durationTicks": 3,
          "midi": 97,
          "name": "C#7",
          "ticks": 9315,
          "time": 108.31395348837209,
          "velocity": 0.11023622047244094
        },
        {
          "duration": 0.19767441860464885,
          "durationTicks": 17,
          "midi": 66,
          "name": "F#4",
          "ticks": 9336,
          "time": 108.55813953488372,
          "velocity": 0.2047244094488189
        },
        {
          "duration": 0.3372093023255758,
          "durationTicks": 29,
          "midi": 67,
          "name": "G4",
          "ticks": 9367,
          "time": 108.9186046511628,
          "velocity": 0.2047244094488189
        },
        {
          "duration": 0.1860465116279073,
          "durationTicks": 16,
          "midi": 69,
          "name": "A4",
          "ticks": 9400,
          "time": 109.30232558139535,
          "velocity": 0.2047244094488189
        },
        {
          "duration": 0.03488372093023884,
          "durationTicks": 3,
          "midi": 97,
          "name": "C#7",
          "ticks": 9401,
          "time": 109.31395348837209,
          "velocity": 0.08661417322834646
        },
        {
          "duration": 0.034883720930224626,
          "durationTicks": 3,
          "midi": 71,
          "name": "B4",
          "ticks": 9438,
          "time": 109.74418604651163,
          "velocity": 0.07874015748031496
        },
        {
          "duration": 0.13953488372092693,
          "durationTicks": 12,
          "midi": 73,
          "name": "C#5",
          "ticks": 9487,
          "time": 110.31395348837209,
          "velocity": 0.11811023622047244
        },
        {
          "duration": 0.11627906976744384,
          "durationTicks": 10,
          "midi": 59,
          "name": "B3",
          "ticks": 9640,
          "time": 112.09302325581395,
          "velocity": 0.12598425196850394
        },
        {
          "duration": 0.11627906976744384,
          "durationTicks": 10,
          "midi": 71,
          "name": "B4",
          "ticks": 9656,
          "time": 112.27906976744185,
          "velocity": 0.12598425196850394
        },
        {
          "duration": 0.25581395348837077,
          "durationTicks": 22,
          "midi": 66,
          "name": "F#4",
          "ticks": 9735,
          "time": 113.19767441860465,
          "velocity": 0.13385826771653545
        },
        {
          "duration": 0.16279069767442422,
          "durationTicks": 14,
          "midi": 62,
          "name": "D4",
          "ticks": 9825,
          "time": 114.24418604651163,
          "velocity": 0.09448818897637795
        },
        {
          "duration": 0.04651162790698038,
          "durationTicks": 4,
          "midi": 61,
          "name": "C#4",
          "ticks": 9887,
          "time": 114.96511627906976,
          "velocity": 0.11811023622047244
        },
        {
          "duration": 0.034883720930224626,
          "durationTicks": 3,
          "midi": 61,
          "name": "C#4",
          "ticks": 9893,
          "time": 115.03488372093024,
          "velocity": 0.11811023622047244
        },
        {
          "duration": 0.04651162790698038,
          "durationTicks": 4,
          "midi": 61,
          "name": "C#4",
          "ticks": 9898,
          "time": 115.09302325581395,
          "velocity": 0.10236220472440945
        },
        {
          "duration": 0.034883720930224626,
          "durationTicks": 3,
          "midi": 61,
          "name": "C#4",
          "ticks": 9904,
          "time": 115.16279069767442,
          "velocity": 0.09448818897637795
        },
        {
          "duration": 0.3604651162790731,
          "durationTicks": 31,
          "midi": 61,
          "name": "C#4",
          "ticks": 10234,
          "time": 119,
          "velocity": 0.12598425196850394
        },
        {
          "duration": 0.32558139534883423,
          "durationTicks": 28,
          "midi": 62,
          "name": "D4",
          "ticks": 10269,
          "time": 119.40697674418605,
          "velocity": 0.1732283464566929
        },
        {
          "duration": 0.03488372093023884,
          "durationTicks": 3,
          "midi": 54,
          "name": "F#3",
          "ticks": 10331,
          "time": 120.12790697674419,
          "velocity": 0.07086614173228346
        },
        {
          "duration": 0.2906976744186096,
          "durationTicks": 25,
          "midi": 59,
          "name": "B3",
          "ticks": 10357,
          "time": 120.43023255813954,
          "velocity": 0.2047244094488189
        },
        {
          "duration": 0.32558139534883423,
          "durationTicks": 28,
          "midi": 62,
          "name": "D4",
          "ticks": 10382,
          "time": 120.72093023255815,
          "velocity": 0.2047244094488189
        },
        {
          "duration": 0.24418604651161502,
          "durationTicks": 21,
          "midi": 76,
          "name": "E5",
          "ticks": 10409,
          "time": 121.03488372093024,
          "velocity": 0.16535433070866143
        },
        {
          "duration": 0.04651162790698038,
          "durationTicks": 4,
          "midi": 64,
          "name": "E4",
          "ticks": 10412,
          "time": 121.06976744186046,
          "velocity": 0.08661417322834646
        },
        {
          "duration": 0.6627906976744242,
          "durationTicks": 57,
          "midi": 66,
          "name": "F#4",
          "ticks": 10435,
          "time": 121.33720930232558,
          "velocity": 0.2440944881889764
        },
        {
          "duration": 0.19767441860464885,
          "durationTicks": 17,
          "midi": 57,
          "name": "A3",
          "ticks": 10488,
          "time": 121.95348837209302,
          "velocity": 0.1968503937007874
        },
        {
          "duration": 0.5348837209302246,
          "durationTicks": 46,
          "midi": 62,
          "name": "D4",
          "ticks": 10518,
          "time": 122.30232558139535,
          "velocity": 0.15748031496062992
        },
        {
          "duration": 0.30232558139535115,
          "durationTicks": 26,
          "midi": 66,
          "name": "F#4",
          "ticks": 10543,
          "time": 122.59302325581395,
          "velocity": 0.2047244094488189
        },
        {
          "duration": 0.19767441860464885,
          "durationTicks": 17,
          "midi": 90,
          "name": "F#6",
          "ticks": 10544,
          "time": 122.6046511627907,
          "velocity": 0.11811023622047244
        },
        {
          "duration": 0.03488372093023884,
          "durationTicks": 3,
          "midi": 69,
          "name": "A4",
          "ticks": 10573,
          "time": 122.94186046511628,
          "velocity": 0.14173228346456693
        },
        {
          "duration": 0.27906976744186807,
          "durationTicks": 24,
          "midi": 76,
          "name": "E5",
          "ticks": 10600,
          "time": 123.25581395348837,
          "velocity": 0.11023622047244094
        },
        {
          "duration": 0.081395348837205,
          "durationTicks": 7,
          "midi": 57,
          "name": "A3",
          "ticks": 10627,
          "time": 123.56976744186046,
          "velocity": 0.10236220472440945
        },
        {
          "duration": 0.034883720930224626,
          "durationTicks": 3,
          "midi": 57,
          "name": "A3",
          "ticks": 10683,
          "time": 124.22093023255815,
          "velocity": 0.2755905511811024
        },
        {
          "duration": 0.1860465116279073,
          "durationTicks": 16,
          "midi": 57,
          "name": "A3",
          "ticks": 10687,
          "time": 124.26744186046511,
          "velocity": 0.1732283464566929
        },
        {
          "duration": 0.2906976744185954,
          "durationTicks": 25,
          "midi": 62,
          "name": "D4",
          "ticks": 10711,
          "time": 124.54651162790698,
          "velocity": 0.11023622047244094
        },
        {
          "duration": 0.04651162790698038,
          "durationTicks": 4,
          "midi": 59,
          "name": "B3",
          "ticks": 10774,
          "time": 125.27906976744185,
          "velocity": 0.08661417322834646
        },
        {
          "duration": 0.09302325581396076,
          "durationTicks": 8,
          "midi": 56,
          "name": "G#3",
          "ticks": 10858,
          "time": 126.25581395348837,
          "velocity": 0.2992125984251969
        },
        {
          "duration": 0.13953488372092693,
          "durationTicks": 12,
          "midi": 56,
          "name": "G#3",
          "ticks": 10868,
          "time": 126.37209302325581,
          "velocity": 0.09448818897637795
        },
        {
          "duration": 0.3139534883720927,
          "durationTicks": 27,
          "midi": 59,
          "name": "B3",
          "ticks": 10892,
          "time": 126.65116279069767,
          "velocity": 0.14173228346456693
        },
        {
          "duration": 0.30232558139535115,
          "durationTicks": 26,
          "midi": 61,
          "name": "C#4",
          "ticks": 10923,
          "time": 127.01162790697674,
          "velocity": 0.16535433070866143
        },
        {
          "duration": 0.5930232558139608,
          "durationTicks": 51,
          "midi": 62,
          "name": "D4",
          "ticks": 10951,
          "time": 127.33720930232558,
          "velocity": 0.2125984251968504
        },
        {
          "duration": 0.08139534883721922,
          "durationTicks": 7,
          "midi": 54,
          "name": "F#3",
          "ticks": 11013,
          "time": 128.0581395348837,
          "velocity": 0.10236220472440945
        },
        {
          "duration": 0.2906976744185954,
          "durationTicks": 25,
          "midi": 59,
          "name": "B3",
          "ticks": 11039,
          "time": 128.36046511627907,
          "velocity": 0.23622047244094488
        },
        {
          "duration": 0.2906976744186238,
          "durationTicks": 25,
          "midi": 62,
          "name": "D4",
          "ticks": 11064,
          "time": 128.65116279069767,
          "velocity": 0.18110236220472442
        },
        {
          "duration": 0.2441860465116008,
          "durationTicks": 21,
          "midi": 76,
          "name": "E5",
          "ticks": 11089,
          "time": 128.9418604651163,
          "velocity": 0.18110236220472442
        },
        {
          "duration": 0.0813953488371908,
          "durationTicks": 7,
          "midi": 59,
          "name": "B3",
          "ticks": 11091,
          "time": 128.96511627906978,
          "velocity": 0.09448818897637795
        },
        {
          "duration": 0.1860465116278931,
          "durationTicks": 16,
          "midi": 64,
          "name": "E4",
          "ticks": 11092,
          "time": 128.97674418604652,
          "velocity": 0.07874015748031496
        },
        {
          "duration": 0.7093023255814046,
          "durationTicks": 61,
          "midi": 66,
          "name": "F#4",
          "ticks": 11116,
          "time": 129.25581395348837,
          "velocity": 0.2440944881889764
        },
        {
          "duration": 0.2093023255814046,
          "durationTicks": 18,
          "midi": 57,
          "name": "A3",
          "ticks": 11168,
          "time": 129.86046511627907,
          "velocity": 0.2204724409448819
        },
        {
          "duration": 0.5697674418604777,
          "durationTicks": 49,
          "midi": 62,
          "name": "D4",
          "ticks": 11195,
          "time": 130.17441860465115,
          "velocity": 0.2283464566929134
        },
        {
          "duration": 0.2906976744185954,
          "durationTicks": 25,
          "midi": 66,
          "name": "F#4",
          "ticks": 11221,
          "time": 130.47674418604652,
          "velocity": 0.2125984251968504
        },
        {
          "duration": 0.09302325581396076,
          "durationTicks": 8,
          "midi": 85,
          "name": "C#6",
          "ticks": 11222,
          "time": 130.48837209302326,
          "velocity": 0.08661417322834646
        },
        {
          "duration": 0.2674418604651123,
          "durationTicks": 23,
          "midi": 90,
          "name": "F#6",
          "ticks": 11222,
          "time": 130.48837209302326,
          "velocity": 0.16535433070866143
        },
        {
          "duration": 0.05813953488373613,
          "durationTicks": 5,
          "midi": 69,
          "name": "A4",
          "ticks": 11247,
          "time": 130.77906976744185,
          "velocity": 0.1968503937007874
        },
        {
          "duration": 0.17441860465117998,
          "durationTicks": 15,
          "midi": 88,
          "name": "E6",
          "ticks": 11248,
          "time": 130.7906976744186,
          "velocity": 0.16535433070866143
        },
        {
          "duration": 0.03488372093025305,
          "durationTicks": 3,
          "midi": 70,
          "name": "A#4",
          "ticks": 11269,
          "time": 131.03488372093022,
          "velocity": 0.07086614173228346
        },
        {
          "duration": 0.3604651162790731,
          "durationTicks": 31,
          "midi": 71,
          "name": "B4",
          "ticks": 11275,
          "time": 131.1046511627907,
          "velocity": 0.2283464566929134
        },
        {
          "duration": 0.16279069767441,
          "durationTicks": 14,
          "midi": 90,
          "name": "F#6",
          "ticks": 11276,
          "time": 131.11627906976744,
          "velocity": 0.11023622047244094
        },
        {
          "duration": 0.11627906976744384,
          "durationTicks": 10,
          "midi": 55,
          "name": "G3",
          "ticks": 11300,
          "time": 131.3953488372093,
          "velocity": 0.23622047244094488
        },
        {
          "duration": 0.19767441860466306,
          "durationTicks": 17,
          "midi": 43,
          "name": "G2",
          "ticks": 11301,
          "time": 131.40697674418604,
          "velocity": 0.2440944881889764
        },
        {
          "duration": 0.04651162790699459,
          "durationTicks": 4,
          "midi": 43,
          "name": "G2",
          "ticks": 11323,
          "time": 131.6627906976744,
          "velocity": 0.18110236220472442
        },
        {
          "duration": 0.09302325581396076,
          "durationTicks": 8,
          "midi": 43,
          "name": "G2",
          "ticks": 11328,
          "time": 131.72093023255815,
          "velocity": 0.14960629921259844
        },
        {
          "duration": 0.08139534883721922,
          "durationTicks": 7,
          "midi": 55,
          "name": "G3",
          "ticks": 11345,
          "time": 131.91860465116278,
          "velocity": 0.08661417322834646
        },
        {
          "duration": 0.023255813953483084,
          "durationTicks": 2,
          "midi": 54,
          "name": "F#3",
          "ticks": 11352,
          "time": 132,
          "velocity": 0.2992125984251969
        },
        {
          "duration": 0.034883720930224626,
          "durationTicks": 3,
          "midi": 67,
          "name": "G4",
          "ticks": 11353,
          "time": 132.01162790697674,
          "velocity": 0.11023622047244094
        },
        {
          "duration": 0.22093023255814614,
          "durationTicks": 19,
          "midi": 89,
          "name": "F6",
          "ticks": 11353,
          "time": 132.01162790697674,
          "velocity": 0.14960629921259844
        },
        {
          "duration": 0.32558139534884845,
          "durationTicks": 28,
          "midi": 55,
          "name": "G3",
          "ticks": 11354,
          "time": 132.02325581395348,
          "velocity": 0.3543307086614173
        },
        {
          "duration": 0.13953488372092693,
          "durationTicks": 12,
          "midi": 74,
          "name": "D5",
          "ticks": 11355,
          "time": 132.03488372093022,
          "velocity": 0.07086614173228346
        },
        {
          "duration": 0.04651162790699459,
          "durationTicks": 4,
          "midi": 69,
          "name": "A4",
          "ticks": 11378,
          "time": 132.30232558139534,
          "velocity": 0.15748031496062992
        },
        {
          "duration": 0.16279069767441,
          "durationTicks": 14,
          "midi": 55,
          "name": "G3",
          "ticks": 11402,
          "time": 132.58139534883722,
          "velocity": 0.2992125984251969
        },
        {
          "duration": 0.08139534883721922,
          "durationTicks": 7,
          "midi": 71,
          "name": "B4",
          "ticks": 11405,
          "time": 132.61627906976744,
          "velocity": 0.1968503937007874
        },
        {
          "duration": 0.09302325581396076,
          "durationTicks": 8,
          "midi": 73,
          "name": "C#5",
          "ticks": 11415,
          "time": 132.7325581395349,
          "velocity": 0.12598425196850394
        },
        {
          "duration": 0.08139534883721922,
          "durationTicks": 7,
          "midi": 55,
          "name": "G3",
          "ticks": 11421,
          "time": 132.80232558139534,
          "velocity": 0.07086614173228346
        },
        {
          "duration": 0.06976744186047767,
          "durationTicks": 6,
          "midi": 71,
          "name": "B4",
          "ticks": 11432,
          "time": 132.93023255813952,
          "velocity": 0.14173228346456693
        },
        {
          "duration": 0.06976744186044925,
          "durationTicks": 6,
          "midi": 90,
          "name": "F#6",
          "ticks": 11434,
          "time": 132.95348837209303,
          "velocity": 0.07086614173228346
        },
        {
          "duration": 0.2558139534883992,
          "durationTicks": 22,
          "midi": 59,
          "name": "B3",
          "ticks": 11486,
          "time": 133.5581395348837,
          "velocity": 0.2204724409448819
        },
        {
          "duration": 0.5813953488371908,
          "durationTicks": 50,
          "midi": 64,
          "name": "E4",
          "ticks": 11509,
          "time": 133.82558139534885,
          "velocity": 0.2755905511811024
        },
        {
          "duration": 0.1046511627907023,
          "durationTicks": 9,
          "midi": 59,
          "name": "B3",
          "ticks": 11511,
          "time": 133.84883720930233,
          "velocity": 0.07874015748031496
        },
        {
          "duration": 0.3720930232558146,
          "durationTicks": 32,
          "midi": 68,
          "name": "G#4",
          "ticks": 11535,
          "time": 134.12790697674419,
          "velocity": 0.25984251968503935
        },
        {
          "duration": 0.25581395348837077,
          "durationTicks": 22,
          "midi": 64,
          "name": "E4",
          "ticks": 11564,
          "time": 134.46511627906978,
          "velocity": 0.13385826771653545
        },
        {
          "duration": 0.2325581395348877,
          "durationTicks": 20,
          "midi": 71,
          "name": "B4",
          "ticks": 11591,
          "time": 134.77906976744185,
          "velocity": 0.11811023622047244
        },
        {
          "duration": 0.18604651162792152,
          "durationTicks": 16,
          "midi": 86,
          "name": "D6",
          "ticks": 11592,
          "time": 134.7906976744186,
          "velocity": 0.1732283464566929
        },
        {
          "duration": 0.4186046511628092,
          "durationTicks": 36,
          "midi": 59,
          "name": "B3",
          "ticks": 11593,
          "time": 134.80232558139534,
          "velocity": 0.2047244094488189
        },
        {
          "duration": 0.17441860465115155,
          "durationTicks": 15,
          "midi": 74,
          "name": "D5",
          "ticks": 11595,
          "time": 134.82558139534885,
          "velocity": 0.15748031496062992
        },
        {
          "duration": 0.04651162790699459,
          "durationTicks": 4,
          "midi": 86,
          "name": "D6",
          "ticks": 11613,
          "time": 135.03488372093022,
          "velocity": 0.07874015748031496
        },
        {
          "duration": 0.11627906976744384,
          "durationTicks": 10,
          "midi": 73,
          "name": "C#5",
          "ticks": 11645,
          "time": 135.40697674418604,
          "velocity": 0.14173228346456693
        },
        {
          "duration": 0.22093023255814614,
          "durationTicks": 19,
          "midi": 66,
          "name": "F#4",
          "ticks": 11697,
          "time": 136.01162790697674,
          "velocity": 0.1968503937007874
        },
        {
          "duration": 0.06976744186047767,
          "durationTicks": 6,
          "midi": 71,
          "name": "B4",
          "ticks": 11697,
          "time": 136.01162790697674,
          "velocity": 0.15748031496062992
        },
        {
          "duration": 0.16279069767443843,
          "durationTicks": 14,
          "midi": 90,
          "name": "F#6",
          "ticks": 11699,
          "time": 136.03488372093022,
          "velocity": 0.08661417322834646
        },
        {
          "duration": 0.034883720930224626,
          "durationTicks": 3,
          "midi": 69,
          "name": "A4",
          "ticks": 11752,
          "time": 136.65116279069767,
          "velocity": 0.10236220472440945
        },
        {
          "duration": 0.19767441860466306,
          "durationTicks": 17,
          "midi": 88,
          "name": "E6",
          "ticks": 11752,
          "time": 136.65116279069767,
          "velocity": 0.15748031496062992
        },
        {
          "duration": 0.6046511627907023,
          "durationTicks": 52,
          "midi": 50,
          "name": "D3",
          "ticks": 11753,
          "time": 136.6627906976744,
          "velocity": 0.08661417322834646
        },
        {
          "duration": 0.5465116279069946,
          "durationTicks": 47,
          "midi": 62,
          "name": "D4",
          "ticks": 11753,
          "time": 136.6627906976744,
          "velocity": 0.08661417322834646
        },
        {
          "duration": 0.18604651162792152,
          "durationTicks": 16,
          "midi": 67,
          "name": "G4",
          "ticks": 11806,
          "time": 137.27906976744185,
          "velocity": 0.12598425196850394
        },
        {
          "duration": 0.16279069767441,
          "durationTicks": 14,
          "midi": 86,
          "name": "D6",
          "ticks": 11809,
          "time": 137.3139534883721,
          "velocity": 0.07086614173228346
        },
        {
          "duration": 0.20930232558137618,
          "durationTicks": 18,
          "midi": 57,
          "name": "A3",
          "ticks": 11833,
          "time": 137.59302325581396,
          "velocity": 0.2204724409448819
        },
        {
          "duration": 0.034883720930224626,
          "durationTicks": 3,
          "midi": 55,
          "name": "G3",
          "ticks": 11859,
          "time": 137.8953488372093,
          "velocity": 0.1732283464566929
        },
        {
          "duration": 0.4651162790697754,
          "durationTicks": 40,
          "midi": 62,
          "name": "D4",
          "ticks": 11859,
          "time": 137.8953488372093,
          "velocity": 0.16535433070866143
        },
        {
          "duration": 0.32558139534884845,
          "durationTicks": 28,
          "midi": 66,
          "name": "F#4",
          "ticks": 11859,
          "time": 137.8953488372093,
          "velocity": 0.16535433070866143
        },
        {
          "duration": 0.2906976744186238,
          "durationTicks": 25,
          "midi": 57,
          "name": "A3",
          "ticks": 11913,
          "time": 138.52325581395348,
          "velocity": 0.25984251968503935
        },
        {
          "duration": 0.66279069767441,
          "durationTicks": 57,
          "midi": 76,
          "name": "E5",
          "ticks": 11913,
          "time": 138.52325581395348,
          "velocity": 0.14173228346456693
        },
        {
          "duration": 0.22093023255814614,
          "durationTicks": 19,
          "midi": 64,
          "name": "E4",
          "ticks": 11914,
          "time": 138.53488372093022,
          "velocity": 0.11811023622047244
        },
        {
          "duration": 0.04651162790699459,
          "durationTicks": 4,
          "midi": 44,
          "name": "G#2",
          "ticks": 11916,
          "time": 138.5581395348837,
          "velocity": 0.18110236220472442
        },
        {
          "duration": 0.034883720930224626,
          "durationTicks": 3,
          "midi": 44,
          "name": "G#2",
          "ticks": 11924,
          "time": 138.65116279069767,
          "velocity": 0.13385826771653545
        },
        {
          "duration": 0.04651162790696617,
          "durationTicks": 4,
          "midi": 45,
          "name": "A2",
          "ticks": 11931,
          "time": 138.7325581395349,
          "velocity": 0.09448818897637795
        },
        {
          "duration": 0.66279069767441,
          "durationTicks": 57,
          "midi": 45,
          "name": "A2",
          "ticks": 11938,
          "time": 138.8139534883721,
          "velocity": 0.08661417322834646
        },
        {
          "duration": 0.034883720930224626,
          "durationTicks": 3,
          "midi": 57,
          "name": "A3",
          "ticks": 11999,
          "time": 139.52325581395348,
          "velocity": 0.2047244094488189
        },
        {
          "duration": 0.23255813953485927,
          "durationTicks": 20,
          "midi": 57,
          "name": "A3",
          "ticks": 12003,
          "time": 139.56976744186048,
          "velocity": 0.07874015748031496
        },
        {
          "duration": 0.7209302325581461,
          "durationTicks": 62,
          "midi": 62,
          "name": "D4",
          "ticks": 12028,
          "time": 139.86046511627907,
          "velocity": 0.2204724409448819
        },
        {
          "duration": 0.24418604651162923,
          "durationTicks": 21,
          "midi": 57,
          "name": "A3",
          "ticks": 12056,
          "time": 140.1860465116279,
          "velocity": 0.13385826771653545
        },
        {
          "duration": 0.24418604651162923,
          "durationTicks": 21,
          "midi": 61,
          "name": "C#4",
          "ticks": 12107,
          "time": 140.77906976744185,
          "velocity": 0.07874015748031496
        },
        {
          "duration": 0.3953488372093261,
          "durationTicks": 34,
          "midi": 62,
          "name": "D4",
          "ticks": 12292,
          "time": 142.93023255813952,
          "velocity": 0.11811023622047244
        },
        {
          "duration": 0.05813953488370771,
          "durationTicks": 5,
          "midi": 54,
          "name": "F#3",
          "ticks": 12297,
          "time": 142.98837209302326,
          "velocity": 0.08661417322834646
        },
        {
          "duration": 0.12790697674418539,
          "durationTicks": 11,
          "midi": 54,
          "name": "F#3",
          "ticks": 12321,
          "time": 143.2674418604651,
          "velocity": 0.1889763779527559
        },
        {
          "duration": 0.3488372093023031,
          "durationTicks": 30,
          "midi": 59,
          "name": "B3",
          "ticks": 12327,
          "time": 143.3372093023256,
          "velocity": 0.2125984251968504
        },
        {
          "duration": 0.034883720930224626,
          "durationTicks": 3,
          "midi": 54,
          "name": "F#3",
          "ticks": 12336,
          "time": 143.4418604651163,
          "velocity": 0.08661417322834646
        },
        {
          "duration": 0.05813953488373613,
          "durationTicks": 5,
          "midi": 62,
          "name": "D4",
          "ticks": 12343,
          "time": 143.52325581395348,
          "velocity": 0.13385826771653545
        },
        {
          "duration": 0.05813953488370771,
          "durationTicks": 5,
          "midi": 62,
          "name": "D4",
          "ticks": 12349,
          "time": 143.59302325581396,
          "velocity": 0.10236220472440945
        },
        {
          "duration": 0.27906976744185386,
          "durationTicks": 24,
          "midi": 55,
          "name": "G3",
          "ticks": 12371,
          "time": 143.84883720930233,
          "velocity": 0.31496062992125984
        },
        {
          "duration": 0.5581395348837077,
          "durationTicks": 48,
          "midi": 62,
          "name": "D4",
          "ticks": 12371,
          "time": 143.84883720930233,
          "velocity": 0.14173228346456693
        },
        {
          "duration": 0.1860465116278931,
          "durationTicks": 16,
          "midi": 43,
          "name": "G2",
          "ticks": 12372,
          "time": 143.86046511627907,
          "velocity": 0.30708661417322836
        },
        {
          "duration": 0.1860465116278931,
          "durationTicks": 16,
          "midi": 43,
          "name": "G2",
          "ticks": 12393,
          "time": 144.1046511627907,
          "velocity": 0.2125984251968504
        },
        {
          "duration": 0.33720930232559,
          "durationTicks": 29,
          "midi": 55,
          "name": "G3",
          "ticks": 12406,
          "time": 144.25581395348837,
          "velocity": 0.3464566929133858
        },
        {
          "duration": 0.08139534883721922,
          "durationTicks": 7,
          "midi": 61,
          "name": "C#4",
          "ticks": 12428,
          "time": 144.51162790697674,
          "velocity": 0.13385826771653545
        },
        {
          "duration": 0.09302325581393234,
          "durationTicks": 8,
          "midi": 62,
          "name": "D4",
          "ticks": 12435,
          "time": 144.59302325581396,
          "velocity": 0.11023622047244094
        },
        {
          "duration": 0.05813953488373613,
          "durationTicks": 5,
          "midi": 55,
          "name": "G3",
          "ticks": 12440,
          "time": 144.65116279069767,
          "velocity": 0.16535433070866143
        },
        {
          "duration": 0.034883720930224626,
          "durationTicks": 3,
          "midi": 56,
          "name": "G#3",
          "ticks": 12445,
          "time": 144.7093023255814,
          "velocity": 0.14173228346456693
        },
        {
          "duration": 0.04651162790699459,
          "durationTicks": 4,
          "midi": 44,
          "name": "G#2",
          "ticks": 12451,
          "time": 144.77906976744185,
          "velocity": 0.15748031496062992
        },
        {
          "duration": 0.11627906976744384,
          "durationTicks": 10,
          "midi": 57,
          "name": "A3",
          "ticks": 12451,
          "time": 144.77906976744185,
          "velocity": 0.25984251968503935
        },
        {
          "duration": 0.24418604651162923,
          "durationTicks": 21,
          "midi": 61,
          "name": "C#4",
          "ticks": 12451,
          "time": 144.77906976744185,
          "velocity": 0.10236220472440945
        },
        {
          "duration": 0.04651162790696617,
          "durationTicks": 4,
          "midi": 44,
          "name": "G#2",
          "ticks": 12458,
          "time": 144.86046511627907,
          "velocity": 0.11811023622047244
        },
        {
          "duration": 0.04651162790699459,
          "durationTicks": 4,
          "midi": 57,
          "name": "A3",
          "ticks": 12474,
          "time": 145.04651162790697,
          "velocity": 0.12598425196850394
        },
        {
          "duration": 0.2674418604651123,
          "durationTicks": 23,
          "midi": 62,
          "name": "D4",
          "ticks": 12476,
          "time": 145.06976744186048,
          "velocity": 0.16535433070866143
        },
        {
          "duration": 0.023255813953483084,
          "durationTicks": 2,
          "midi": 57,
          "name": "A3",
          "ticks": 12502,
          "time": 145.37209302325581,
          "velocity": 0.25196850393700787
        },
        {
          "duration": 0.27906976744185386,
          "durationTicks": 24,
          "midi": 61,
          "name": "C#4",
          "ticks": 12503,
          "time": 145.38372093023256,
          "velocity": 0.1732283464566929
        },
        {
          "duration": 0.023255813953483084,
          "durationTicks": 2,
          "midi": 56,
          "name": "G#3",
          "ticks": 12504,
          "time": 145.3953488372093,
          "velocity": 0.33070866141732286
        },
        {
          "duration": 0.023255813953511506,
          "durationTicks": 2,
          "midi": 57,
          "name": "A3",
          "ticks": 12506,
          "time": 145.41860465116278,
          "velocity": 0.25196850393700787
        },
        {
          "duration": 0.13953488372092693,
          "durationTicks": 12,
          "midi": 57,
          "name": "A3",
          "ticks": 12509,
          "time": 145.45348837209303,
          "velocity": 0.2125984251968504
        },
        {
          "duration": 0.1046511627907023,
          "durationTicks": 9,
          "midi": 57,
          "name": "A3",
          "ticks": 12522,
          "time": 145.6046511627907,
          "velocity": 0.10236220472440945
        },
        {
          "duration": 0.023255813953483084,
          "durationTicks": 2,
          "midi": 55,
          "name": "G3",
          "ticks": 12531,
          "time": 145.7093023255814,
          "velocity": 0.2440944881889764
        },
        {
          "duration": 0.4186046511627808,
          "durationTicks": 36,
          "midi": 68,
          "name": "G#4",
          "ticks": 12532,
          "time": 145.72093023255815,
          "velocity": 0.11811023622047244
        },
        {
          "duration": 0.1046511627907023,
          "durationTicks": 9,
          "midi": 56,
          "name": "G#3",
          "ticks": 12533,
          "time": 145.7325581395349,
          "velocity": 0.3779527559055118
        },
        {
          "duration": 0.09302325581396076,
          "durationTicks": 8,
          "midi": 56,
          "name": "G#3",
          "ticks": 12543,
          "time": 145.84883720930233,
          "velocity": 0.2204724409448819
        },
        {
          "duration": 0.11627906976744384,
          "durationTicks": 10,
          "midi": 52,
          "name": "E3",
          "ticks": 12561,
          "time": 146.0581395348837,
          "velocity": 0.08661417322834646
        },
        {
          "duration": 0.1046511627907023,
          "durationTicks": 9,
          "midi": 56,
          "name": "G#3",
          "ticks": 12572,
          "time": 146.1860465116279,
          "velocity": 0.3464566929133858
        },
        {
          "duration": 0.12790697674418539,
          "durationTicks": 11,
          "midi": 59,
          "name": "B3",
          "ticks": 12585,
          "time": 146.3372093023256,
          "velocity": 0.2047244094488189
        },
        {
          "duration": 0.034883720930224626,
          "durationTicks": 3,
          "midi": 57,
          "name": "A3",
          "ticks": 12596,
          "time": 146.46511627906978,
          "velocity": 0.36220472440944884
        },
        {
          "duration": 0.023255813953483084,
          "durationTicks": 2,
          "midi": 58,
          "name": "A#3",
          "ticks": 12599,
          "time": 146.5,
          "velocity": 0.2992125984251969
        },
        {
          "duration": 0.06976744186047767,
          "durationTicks": 6,
          "midi": 57,
          "name": "A3",
          "ticks": 12601,
          "time": 146.52325581395348,
          "velocity": 0.2992125984251969
        },
        {
          "duration": 0.04651162790696617,
          "durationTicks": 4,
          "midi": 56,
          "name": "G#3",
          "ticks": 12607,
          "time": 146.59302325581396,
          "velocity": 0.2283464566929134
        },
        {
          "duration": 0.3139534883721069,
          "durationTicks": 27,
          "midi": 55,
          "name": "G3",
          "ticks": 12611,
          "time": 146.63953488372093,
          "velocity": 0.3700787401574803
        },
        {
          "duration": 0.17441860465117998,
          "durationTicks": 15,
          "midi": 43,
          "name": "G2",
          "ticks": 12613,
          "time": 146.6627906976744,
          "velocity": 0.2204724409448819
        },
        {
          "duration": 0.22093023255814614,
          "durationTicks": 19,
          "midi": 59,
          "name": "B3",
          "ticks": 12629,
          "time": 146.84883720930233,
          "velocity": 0.12598425196850394
        },
        {
          "duration": 0.17441860465117998,
          "durationTicks": 15,
          "midi": 43,
          "name": "G2",
          "ticks": 12634,
          "time": 146.90697674418604,
          "velocity": 0.15748031496062992
        },
        {
          "duration": 0.33720930232559,
          "durationTicks": 29,
          "midi": 55,
          "name": "G3",
          "ticks": 12647,
          "time": 147.0581395348837,
          "velocity": 0.2992125984251969
        },
        {
          "duration": 0.04651162790699459,
          "durationTicks": 4,
          "midi": 43,
          "name": "G2",
          "ticks": 12666,
          "time": 147.27906976744185,
          "velocity": 0.07086614173228346
        },
        {
          "duration": 0.04651162790696617,
          "durationTicks": 4,
          "midi": 59,
          "name": "B3",
          "ticks": 12672,
          "time": 147.34883720930233,
          "velocity": 0.2440944881889764
        },
        {
          "duration": 0.023255813953483084,
          "durationTicks": 2,
          "midi": 56,
          "name": "G#3",
          "ticks": 12676,
          "time": 147.3953488372093,
          "velocity": 0.3858267716535433
        },
        {
          "duration": 0.08139534883721922,
          "durationTicks": 7,
          "midi": 57,
          "name": "A3",
          "ticks": 12678,
          "time": 147.41860465116278,
          "velocity": 0.33858267716535434
        },
        {
          "duration": 0.23255813953485927,
          "durationTicks": 20,
          "midi": 55,
          "name": "G3",
          "ticks": 12691,
          "time": 147.56976744186048,
          "velocity": 0.33070866141732286
        },
        {
          "duration": 0.04651162790696617,
          "durationTicks": 4,
          "midi": 74,
          "name": "D5",
          "ticks": 12693,
          "time": 147.59302325581396,
          "velocity": 0.09448818897637795
        },
        {
          "duration": 0.09302325581393234,
          "durationTicks": 8,
          "midi": 59,
          "name": "B3",
          "ticks": 12702,
          "time": 147.69767441860466,
          "velocity": 0.14173228346456693
        },
        {
          "duration": 0.06976744186044925,
          "durationTicks": 6,
          "midi": 55,
          "name": "G3",
          "ticks": 12712,
          "time": 147.8139534883721,
          "velocity": 0.2283464566929134
        },
        {
          "duration": 0.11627906976741542,
          "durationTicks": 10,
          "midi": 59,
          "name": "B3",
          "ticks": 12723,
          "time": 147.9418604651163,
          "velocity": 0.11023622047244094
        },
        {
          "duration": 0.034883720930224626,
          "durationTicks": 3,
          "midi": 51,
          "name": "D#3",
          "ticks": 12728,
          "time": 148,
          "velocity": 0.11023622047244094
        },
        {
          "duration": 0.1046511627907023,
          "durationTicks": 9,
          "midi": 64,
          "name": "E4",
          "ticks": 12729,
          "time": 148.01162790697674,
          "velocity": 0.07086614173228346
        },
        {
          "duration": 0.11627906976741542,
          "durationTicks": 10,
          "midi": 52,
          "name": "E3",
          "ticks": 12734,
          "time": 148.06976744186048,
          "velocity": 0.13385826771653545
        },
        {
          "duration": 0.13953488372095535,
          "durationTicks": 12,
          "midi": 57,
          "name": "A3",
          "ticks": 12743,
          "time": 148.17441860465115,
          "velocity": 0.31496062992125984
        },
        {
          "duration": 0.1046511627907023,
          "durationTicks": 9,
          "midi": 76,
          "name": "E5",
          "ticks": 12743,
          "time": 148.17441860465115,
          "velocity": 0.10236220472440945
        },
        {
          "duration": 0.1046511627907023,
          "durationTicks": 9,
          "midi": 52,
          "name": "E3",
          "ticks": 12758,
          "time": 148.34883720930233,
          "velocity": 0.07086614173228346
        },
        {
          "duration": 0.034883720930224626,
          "durationTicks": 3,
          "midi": 57,
          "name": "A3",
          "ticks": 12759,
          "time": 148.36046511627907,
          "velocity": 0.13385826771653545
        },
        {
          "duration": 0.034883720930224626,
          "durationTicks": 3,
          "midi": 58,
          "name": "A#3",
          "ticks": 12762,
          "time": 148.3953488372093,
          "velocity": 0.07086614173228346
        },
        {
          "duration": 0.2674418604651123,
          "durationTicks": 23,
          "midi": 61,
          "name": "C#4",
          "ticks": 12768,
          "time": 148.46511627906978,
          "velocity": 0.15748031496062992
        },
        {
          "duration": 0.023255813953483084,
          "durationTicks": 2,
          "midi": 56,
          "name": "G#3",
          "ticks": 12769,
          "time": 148.47674418604652,
          "velocity": 0.3858267716535433
        },
        {
          "duration": 0.09302325581396076,
          "durationTicks": 8,
          "midi": 76,
          "name": "E5",
          "ticks": 12770,
          "time": 148.48837209302326,
          "velocity": 0.07086614173228346
        },
        {
          "duration": 0.023255813953483084,
          "durationTicks": 2,
          "midi": 57,
          "name": "A3",
          "ticks": 12771,
          "time": 148.5,
          "velocity": 0.3543307086614173
        },
        {
          "duration": 0.16279069767443843,
          "durationTicks": 14,
          "midi": 57,
          "name": "A3",
          "ticks": 12774,
          "time": 148.53488372093022,
          "velocity": 0.28346456692913385
        },
        {
          "duration": 0.034883720930224626,
          "durationTicks": 3,
          "midi": 57,
          "name": "A3",
          "ticks": 12792,
          "time": 148.74418604651163,
          "velocity": 0.11023622047244094
        },
        {
          "duration": 0.2674418604651123,
          "durationTicks": 23,
          "midi": 62,
          "name": "D4",
          "ticks": 12796,
          "time": 148.7906976744186,
          "velocity": 0.18110236220472442
        },
        {
          "duration": 0.034883720930224626,
          "durationTicks": 3,
          "midi": 44,
          "name": "G#2",
          "ticks": 12799,
          "time": 148.82558139534885,
          "velocity": 0.10236220472440945
        },
        {
          "duration": 0.034883720930224626,
          "durationTicks": 3,
          "midi": 45,
          "name": "A2",
          "ticks": 12821,
          "time": 149.08139534883722,
          "velocity": 0.12598425196850394
        },
        {
          "duration": 0.023255813953483084,
          "durationTicks": 2,
          "midi": 56,
          "name": "G#3",
          "ticks": 12823,
          "time": 149.1046511627907,
          "velocity": 0.2992125984251969
        },
        {
          "duration": 0.15116279069766847,
          "durationTicks": 13,
          "midi": 61,
          "name": "C#4",
          "ticks": 12823,
          "time": 149.1046511627907,
          "velocity": 0.11811023622047244
        },
        {
          "duration": 0.16279069767441,
          "durationTicks": 14,
          "midi": 57,
          "name": "A3",
          "ticks": 12825,
          "time": 149.12790697674419,
          "velocity": 0.25196850393700787
        },
        {
          "duration": 0.03488372093025305,
          "durationTicks": 3,
          "midi": 53,
          "name": "F3",
          "ticks": 12840,
          "time": 149.30232558139534,
          "velocity": 0.15748031496062992
        },
        {
          "duration": 0.2906976744185954,
          "durationTicks": 25,
          "midi": 71,
          "name": "B4",
          "ticks": 12852,
          "time": 149.4418604651163,
          "velocity": 0.11023622047244094
        },
        {
          "duration": 0.3604651162790731,
          "durationTicks": 31,
          "midi": 66,
          "name": "F#4",
          "ticks": 12853,
          "time": 149.45348837209303,
          "velocity": 0.09448818897637795
        },
        {
          "duration": 0.20930232558137618,
          "durationTicks": 18,
          "midi": 59,
          "name": "B3",
          "ticks": 12855,
          "time": 149.47674418604652,
          "velocity": 0.12598425196850394
        },
        {
          "duration": 0.3139534883720785,
          "durationTicks": 27,
          "midi": 54,
          "name": "F#3",
          "ticks": 12856,
          "time": 149.48837209302326,
          "velocity": 0.18110236220472442
        },
        {
          "duration": 0.16279069767441,
          "durationTicks": 14,
          "midi": 54,
          "name": "F#3",
          "ticks": 12895,
          "time": 149.9418604651163,
          "velocity": 0.23622047244094488
        },
        {
          "duration": 0.13953488372092693,
          "durationTicks": 12,
          "midi": 62,
          "name": "D4",
          "ticks": 12908,
          "time": 150.09302325581396,
          "velocity": 0.14960629921259844
        },
        {
          "duration": 0.25581395348837077,
          "durationTicks": 22,
          "midi": 54,
          "name": "F#3",
          "ticks": 12910,
          "time": 150.11627906976744,
          "velocity": 0.16535433070866143
        },
        {
          "duration": 0.09302325581396076,
          "durationTicks": 8,
          "midi": 61,
          "name": "C#4",
          "ticks": 12922,
          "time": 150.25581395348837,
          "velocity": 0.11811023622047244
        },
        {
          "duration": 0.4418604651162923,
          "durationTicks": 38,
          "midi": 59,
          "name": "B3",
          "ticks": 12935,
          "time": 150.40697674418604,
          "velocity": 0.2992125984251969
        },
        {
          "duration": 0.24418604651162923,
          "durationTicks": 21,
          "midi": 54,
          "name": "F#3",
          "ticks": 12936,
          "time": 150.41860465116278,
          "velocity": 0.2204724409448819
        },
        {
          "duration": 0.034883720930224626,
          "durationTicks": 3,
          "midi": 55,
          "name": "G3",
          "ticks": 12960,
          "time": 150.69767441860466,
          "velocity": 0.15748031496062992
        },
        {
          "duration": 0.04651162790699459,
          "durationTicks": 4,
          "midi": 54,
          "name": "F#3",
          "ticks": 12966,
          "time": 150.7674418604651,
          "velocity": 0.07874015748031496
        },
        {
          "duration": 0.13953488372092693,
          "durationTicks": 12,
          "midi": 59,
          "name": "B3",
          "ticks": 12975,
          "time": 150.87209302325581,
          "velocity": 0.1889763779527559
        },
        {
          "duration": 0.06976744186047767,
          "durationTicks": 6,
          "midi": 54,
          "name": "F#3",
          "ticks": 12978,
          "time": 150.90697674418604,
          "velocity": 0.11023622047244094
        },
        {
          "duration": 0.13953488372092693,
          "durationTicks": 12,
          "midi": 62,
          "name": "D4",
          "ticks": 12986,
          "time": 151,
          "velocity": 0.14960629921259844
        },
        {
          "duration": 0.13953488372092693,
          "durationTicks": 12,
          "midi": 54,
          "name": "F#3",
          "ticks": 12988,
          "time": 151.02325581395348,
          "velocity": 0.09448818897637795
        },
        {
          "duration": 0.034883720930224626,
          "durationTicks": 3,
          "midi": 59,
          "name": "B3",
          "ticks": 12996,
          "time": 151.11627906976744,
          "velocity": 0.14960629921259844
        },
        {
          "duration": 0.04651162790696617,
          "durationTicks": 4,
          "midi": 59,
          "name": "B3",
          "ticks": 13003,
          "time": 151.19767441860466,
          "velocity": 0.1889763779527559
        },
        {
          "duration": 0.2906976744185954,
          "durationTicks": 25,
          "midi": 55,
          "name": "G3",
          "ticks": 13014,
          "time": 151.32558139534885,
          "velocity": 0.3464566929133858
        },
        {
          "duration": 0.5232558139534831,
          "durationTicks": 45,
          "midi": 62,
          "name": "D4",
          "ticks": 13014,
          "time": 151.32558139534885,
          "velocity": 0.14960629921259844
        },
        {
          "duration": 0.1860465116278931,
          "durationTicks": 16,
          "midi": 43,
          "name": "G2",
          "ticks": 13015,
          "time": 151.3372093023256,
          "velocity": 0.31496062992125984
        },
        {
          "duration": 0.05813953488373613,
          "durationTicks": 5,
          "midi": 42,
          "name": "F#2",
          "ticks": 13031,
          "time": 151.52325581395348,
          "velocity": 0.15748031496062992
        },
        {
          "duration": 0.1860465116278931,
          "durationTicks": 16,
          "midi": 43,
          "name": "G2",
          "ticks": 13036,
          "time": 151.58139534883722,
          "velocity": 0.2283464566929134
        },
        {
          "duration": 0.27906976744185386,
          "durationTicks": 24,
          "midi": 55,
          "name": "G3",
          "ticks": 13050,
          "time": 151.74418604651163,
          "velocity": 0.33858267716535434
        },
        {
          "duration": 0.15116279069766847,
          "durationTicks": 13,
          "midi": 43,
          "name": "G2",
          "ticks": 13060,
          "time": 151.86046511627907,
          "velocity": 0.15748031496062992
        },
        {
          "duration": 0.12790697674418539,
          "durationTicks": 11,
          "midi": 61,
          "name": "C#4",
          "ticks": 13066,
          "time": 151.93023255813952,
          "velocity": 0.14173228346456693
        },
        {
          "duration": 0.09302325581393234,
          "durationTicks": 8,
          "midi": 62,
          "name": "D4",
          "ticks": 13080,
          "time": 152.09302325581396,
          "velocity": 0.10236220472440945
        },
        {
          "duration": 0.06976744186047767,
          "durationTicks": 6,
          "midi": 55,
          "name": "G3",
          "ticks": 13083,
          "time": 152.12790697674419,
          "velocity": 0.15748031496062992
        },
        {
          "duration": 0.05813953488370771,
          "durationTicks": 5,
          "midi": 57,
          "name": "A3",
          "ticks": 13093,
          "time": 152.24418604651163,
          "velocity": 0.33070866141732286
        },
        {
          "duration": 0.27906976744185386,
          "durationTicks": 24,
          "midi": 61,
          "name": "C#4",
          "ticks": 13093,
          "time": 152.24418604651163,
          "velocity": 0.11023622047244094
        },
        {
          "duration": 0.11627906976744384,
          "durationTicks": 10,
          "midi": 76,
          "name": "E5",
          "ticks": 13094,
          "time": 152.25581395348837,
          "velocity": 0.11023622047244094
        },
        {
          "duration": 0.04651162790699459,
          "durationTicks": 4,
          "midi": 44,
          "name": "G#2",
          "ticks": 13095,
          "time": 152.2674418604651,
          "velocity": 0.15748031496062992
        },
        {
          "duration": 0.023255813953483084,
          "durationTicks": 2,
          "midi": 57,
          "name": "A3",
          "ticks": 13099,
          "time": 152.3139534883721,
          "velocity": 0.23622047244094488
        },
        {
          "duration": 0.04651162790696617,
          "durationTicks": 4,
          "midi": 44,
          "name": "G#2",
          "ticks": 13102,
          "time": 152.34883720930233,
          "velocity": 0.10236220472440945
        },
        {
          "duration": 0.0813953488371908,
          "durationTicks": 7,
          "midi": 57,
          "name": "A3",
          "ticks": 13102,
          "time": 152.34883720930233,
          "velocity": 0.18110236220472442
        },
        {
          "duration": 0.08139534883721922,
          "durationTicks": 7,
          "midi": 57,
          "name": "A3",
          "ticks": 13116,
          "time": 152.51162790697674,
          "velocity": 0.1968503937007874
        },
        {
          "duration": 0.24418604651162923,
          "durationTicks": 21,
          "midi": 62,
          "name": "D4",
          "ticks": 13121,
          "time": 152.56976744186048,
          "velocity": 0.14173228346456693
        },
        {
          "duration": 0.2674418604651123,
          "durationTicks": 23,
          "midi": 61,
          "name": "C#4",
          "ticks": 13147,
          "time": 152.87209302325581,
          "velocity": 0.1968503937007874
        },
        {
          "duration": 0.17441860465115155,
          "durationTicks": 15,
          "midi": 57,
          "name": "A3",
          "ticks": 13148,
          "time": 152.88372093023256,
          "velocity": 0.2755905511811024
        },
        {
          "duration": 0.10465116279067388,
          "durationTicks": 9,
          "midi": 57,
          "name": "A3",
          "ticks": 13164,
          "time": 153.06976744186048,
          "velocity": 0.2283464566929134
        },
        {
          "duration": 0.1046511627907023,
          "durationTicks": 9,
          "midi": 56,
          "name": "G#3",
          "ticks": 13173,
          "time": 153.17441860465115,
          "velocity": 0.3858267716535433
        },
        {
          "duration": 0.05813953488373613,
          "durationTicks": 5,
          "midi": 56,
          "name": "G#3",
          "ticks": 13184,
          "time": 153.30232558139534,
          "velocity": 0.25984251968503935
        },
        {
          "duration": 0.06976744186047767,
          "durationTicks": 6,
          "midi": 56,
          "name": "G#3",
          "ticks": 13190,
          "time": 153.37209302325581,
          "velocity": 0.1968503937007874
        },
        {
          "duration": 0.09302325581396076,
          "durationTicks": 8,
          "midi": 56,
          "name": "G#3",
          "ticks": 13199,
          "time": 153.47674418604652,
          "velocity": 0.16535433070866143
        },
        {
          "duration": 0.12790697674418539,
          "durationTicks": 11,
          "midi": 56,
          "name": "G#3",
          "ticks": 13214,
          "time": 153.65116279069767,
          "velocity": 0.3228346456692913
        },
        {
          "duration": 0.03488372093025305,
          "durationTicks": 3,
          "midi": 56,
          "name": "G#3",
          "ticks": 13226,
          "time": 153.7906976744186,
          "velocity": 0.18110236220472442
        },
        {
          "duration": 0.11627906976741542,
          "durationTicks": 10,
          "midi": 59,
          "name": "B3",
          "ticks": 13228,
          "time": 153.8139534883721,
          "velocity": 0.25984251968503935
        },
        {
          "duration": 0.034883720930224626,
          "durationTicks": 3,
          "midi": 57,
          "name": "A3",
          "ticks": 13239,
          "time": 153.9418604651163,
          "velocity": 0.3779527559055118
        },
        {
          "duration": 0.023255813953483084,
          "durationTicks": 2,
          "midi": 58,
          "name": "A#3",
          "ticks": 13242,
          "time": 153.97674418604652,
          "velocity": 0.28346456692913385
        },
        {
          "duration": 0.04651162790699459,
          "durationTicks": 4,
          "midi": 57,
          "name": "A3",
          "ticks": 13246,
          "time": 154.02325581395348,
          "velocity": 0.30708661417322836
        },
        {
          "duration": 0.32558139534884845,
          "durationTicks": 28,
          "midi": 55,
          "name": "G3",
          "ticks": 13254,
          "time": 154.11627906976744,
          "velocity": 0.3700787401574803
        },
        {
          "duration": 0.18604651162792152,
          "durationTicks": 16,
          "midi": 43,
          "name": "G2",
          "ticks": 13256,
          "time": 154.13953488372093,
          "velocity": 0.2125984251968504
        },
        {
          "duration": 0.06976744186047767,
          "durationTicks": 6,
          "midi": 59,
          "name": "B3",
          "ticks": 13258,
          "time": 154.1627906976744,
          "velocity": 0.15748031496062992
        },
        {
          "duration": 0.2906976744185954,
          "durationTicks": 25,
          "midi": 59,
          "name": "B3",
          "ticks": 13265,
          "time": 154.24418604651163,
          "velocity": 0.15748031496062992
        },
        {
          "duration": 0.17441860465115155,
          "durationTicks": 15,
          "midi": 43,
          "name": "G2",
          "ticks": 13277,
          "time": 154.38372093023256,
          "velocity": 0.16535433070866143
        },
        {
          "duration": 0.38372093023255616,
          "durationTicks": 33,
          "midi": 55,
          "name": "G3",
          "ticks": 13287,
          "time": 154.5,
          "velocity": 0.33070866141732286
        },
        {
          "duration": 0.1046511627907023,
          "durationTicks": 9,
          "midi": 57,
          "name": "A3",
          "ticks": 13321,
          "time": 154.8953488372093,
          "velocity": 0.3464566929133858
        },
        {
          "duration": 0.023255813953483084,
          "durationTicks": 2,
          "midi": 56,
          "name": "G#3",
          "ticks": 13330,
          "time": 155,
          "velocity": 0.23622047244094488
        },
        {
          "duration": 0.32558139534884845,
          "durationTicks": 28,
          "midi": 55,
          "name": "G3",
          "ticks": 13333,
          "time": 155.03488372093022,
          "velocity": 0.3543307086614173
        },
        {
          "duration": 0.034883720930224626,
          "durationTicks": 3,
          "midi": 59,
          "name": "B3",
          "ticks": 13336,
          "time": 155.06976744186048,
          "velocity": 0.10236220472440945
        },
        {
          "duration": 0.06976744186044925,
          "durationTicks": 6,
          "midi": 74,
          "name": "D5",
          "ticks": 13336,
          "time": 155.06976744186048,
          "velocity": 0.15748031496062992
        },
        {
          "duration": 0.09302325581396076,
          "durationTicks": 8,
          "midi": 59,
          "name": "B3",
          "ticks": 13344,
          "time": 155.1627906976744,
          "velocity": 0.11023622047244094
        },
        {
          "duration": 0.05813953488373613,
          "durationTicks": 5,
          "midi": 74,
          "name": "D5",
          "ticks": 13345,
          "time": 155.17441860465115,
          "velocity": 0.11023622047244094
        },
        {
          "duration": 0.03488372093025305,
          "durationTicks": 3,
          "midi": 74,
          "name": "D5",
          "ticks": 13354,
          "time": 155.27906976744185,
          "velocity": 0.07874015748031496
        },
        {
          "duration": 0.13953488372092693,
          "durationTicks": 12,
          "midi": 52,
          "name": "E3",
          "ticks": 13372,
          "time": 155.48837209302326,
          "velocity": 0.23622047244094488
        },
        {
          "duration": 0.023255813953483084,
          "durationTicks": 2,
          "midi": 52,
          "name": "E3",
          "ticks": 13385,
          "time": 155.63953488372093,
          "velocity": 0.2440944881889764
        },
        {
          "duration": 0.08139534883721922,
          "durationTicks": 7,
          "midi": 76,
          "name": "E5",
          "ticks": 13386,
          "time": 155.65116279069767,
          "velocity": 0.08661417322834646
        },
        {
          "duration": 0.08139534883721922,
          "durationTicks": 7,
          "midi": 57,
          "name": "A3",
          "ticks": 13388,
          "time": 155.67441860465115,
          "velocity": 0.2755905511811024
        },
        {
          "duration": 0.023255813953511506,
          "durationTicks": 2,
          "midi": 55,
          "name": "G3",
          "ticks": 13409,
          "time": 155.91860465116278,
          "velocity": 0.33858267716535434
        },
        {
          "duration": 0.6162790697674438,
          "durationTicks": 53,
          "midi": 61,
          "name": "C#4",
          "ticks": 13410,
          "time": 155.93023255813952,
          "velocity": 0.2677165354330709
        },
        {
          "duration": 0.023255813953483084,
          "durationTicks": 2,
          "midi": 56,
          "name": "G#3",
          "ticks": 13411,
          "time": 155.9418604651163,
          "velocity": 0.4094488188976378
        },
        {
          "duration": 0.24418604651162923,
          "durationTicks": 21,
          "midi": 57,
          "name": "A3",
          "ticks": 13413,
          "time": 155.96511627906978,
          "velocity": 0.36220472440944884
        },
        {
          "duration": 0.0813953488371908,
          "durationTicks": 7,
          "midi": 42,
          "name": "F#2",
          "ticks": 13414,
          "time": 155.97674418604652,
          "velocity": 0.11811023622047244
        },
        {
          "duration": 0.33720930232556157,
          "durationTicks": 29,
          "midi": 42,
          "name": "F#2",
          "ticks": 13423,
          "time": 156.08139534883722,
          "velocity": 0.12598425196850394
        },
        {
          "duration": 0.05813953488373613,
          "durationTicks": 5,
          "midi": 54,
          "name": "F#3",
          "ticks": 13441,
          "time": 156.2906976744186,
          "velocity": 0.14960629921259844
        },
        {
          "duration": 0.06976744186047767,
          "durationTicks": 6,
          "midi": 74,
          "name": "D5",
          "ticks": 13441,
          "time": 156.2906976744186,
          "velocity": 0.07086614173228346
        },
        {
          "duration": 0.023255813953483084,
          "durationTicks": 2,
          "midi": 55,
          "name": "G3",
          "ticks": 13450,
          "time": 156.3953488372093,
          "velocity": 0.28346456692913385
        },
        {
          "duration": 0.18604651162792152,
          "durationTicks": 16,
          "midi": 66,
          "name": "F#4",
          "ticks": 13451,
          "time": 156.40697674418604,
          "velocity": 0.11811023622047244
        },
        {
          "duration": 0.13953488372092693,
          "durationTicks": 12,
          "midi": 54,
          "name": "F#3",
          "ticks": 13452,
          "time": 156.41860465116278,
          "velocity": 0.2755905511811024
        },
        {
          "duration": 0.12790697674418539,
          "durationTicks": 11,
          "midi": 42,
          "name": "F#2",
          "ticks": 13455,
          "time": 156.45348837209303,
          "velocity": 0.09448818897637795
        },
        {
          "duration": 0.2325581395348877,
          "durationTicks": 20,
          "midi": 57,
          "name": "A3",
          "ticks": 13464,
          "time": 156.5581395348837,
          "velocity": 0.3464566929133858
        },
        {
          "duration": 0.09302325581396076,
          "durationTicks": 8,
          "midi": 73,
          "name": "C#5",
          "ticks": 13464,
          "time": 156.5581395348837,
          "velocity": 0.16535433070866143
        },
        {
          "duration": 0.2325581395348877,
          "durationTicks": 20,
          "midi": 76,
          "name": "E5",
          "ticks": 13464,
          "time": 156.5581395348837,
          "velocity": 0.12598425196850394
        },
        {
          "duration": 0.05813953488370771,
          "durationTicks": 5,
          "midi": 89,
          "name": "F6",
          "ticks": 13466,
          "time": 156.58139534883722,
          "velocity": 0.07086614173228346
        },
        {
          "duration": 0.06976744186047767,
          "durationTicks": 6,
          "midi": 61,
          "name": "C#4",
          "ticks": 13482,
          "time": 156.7674418604651,
          "velocity": 0.08661417322834646
        },
        {
          "duration": 0.03488372093025305,
          "durationTicks": 3,
          "midi": 54,
          "name": "F#3",
          "ticks": 13483,
          "time": 156.77906976744185,
          "velocity": 0.14173228346456693
        },
        {
          "duration": 0.023255813953483084,
          "durationTicks": 2,
          "midi": 55,
          "name": "G3",
          "ticks": 13487,
          "time": 156.82558139534885,
          "velocity": 0.2283464566929134
        },
        {
          "duration": 0.023255813953483084,
          "durationTicks": 2,
          "midi": 58,
          "name": "A#3",
          "ticks": 13492,
          "time": 156.88372093023256,
          "velocity": 0.2440944881889764
        },
        {
          "duration": 0.4186046511627808,
          "durationTicks": 36,
          "midi": 67,
          "name": "G4",
          "ticks": 13492,
          "time": 156.88372093023256,
          "velocity": 0.14173228346456693
        },
        {
          "duration": 0.04651162790696617,
          "durationTicks": 4,
          "midi": 71,
          "name": "B4",
          "ticks": 13492,
          "time": 156.88372093023256,
          "velocity": 0.09448818897637795
        },
        {
          "duration": 0.22093023255814614,
          "durationTicks": 19,
          "midi": 74,
          "name": "D5",
          "ticks": 13492,
          "time": 156.88372093023256,
          "velocity": 0.1889763779527559
        },
        {
          "duration": 0.06976744186047767,
          "durationTicks": 6,
          "midi": 89,
          "name": "F6",
          "ticks": 13492,
          "time": 156.88372093023256,
          "velocity": 0.14173228346456693
        },
        {
          "duration": 0.18604651162792152,
          "durationTicks": 16,
          "midi": 43,
          "name": "G2",
          "ticks": 13493,
          "time": 156.8953488372093,
          "velocity": 0.2755905511811024
        },
        {
          "duration": 0.22093023255814614,
          "durationTicks": 19,
          "midi": 62,
          "name": "D4",
          "ticks": 13494,
          "time": 156.90697674418604,
          "velocity": 0.16535433070866143
        },
        {
          "duration": 0.5232558139534831,
          "durationTicks": 45,
          "midi": 55,
          "name": "G3",
          "ticks": 13499,
          "time": 156.96511627906978,
          "velocity": 0.36220472440944884
        },
        {
          "duration": 0.034883720930224626,
          "durationTicks": 3,
          "midi": 50,
          "name": "D3",
          "ticks": 13510,
          "time": 157.09302325581396,
          "velocity": 0.08661417322834646
        },
        {
          "duration": 0.12790697674418539,
          "durationTicks": 11,
          "midi": 59,
          "name": "B3",
          "ticks": 13510,
          "time": 157.09302325581396,
          "velocity": 0.11811023622047244
        },
        {
          "duration": 0.18604651162792152,
          "durationTicks": 16,
          "midi": 43,
          "name": "G2",
          "ticks": 13513,
          "time": 157.12790697674419,
          "velocity": 0.1732283464566929
        },
        {
          "duration": 0.11627906976744384,
          "durationTicks": 10,
          "midi": 62,
          "name": "D4",
          "ticks": 13521,
          "time": 157.22093023255815,
          "velocity": 0.09448818897637795
        },
        {
          "duration": 0.11627906976744384,
          "durationTicks": 10,
          "midi": 55,
          "name": "G3",
          "ticks": 13547,
          "time": 157.52325581395348,
          "velocity": 0.33858267716535434
        },
        {
          "duration": 0.08139534883721922,
          "durationTicks": 7,
          "midi": 59,
          "name": "B3",
          "ticks": 13547,
          "time": 157.52325581395348,
          "velocity": 0.13385826771653545
        },
        {
          "duration": 0.023255813953483084,
          "durationTicks": 2,
          "midi": 56,
          "name": "G#3",
          "ticks": 13557,
          "time": 157.63953488372093,
          "velocity": 0.3937007874015748
        },
        {
          "duration": 0.43023255813955075,
          "durationTicks": 37,
          "midi": 76,
          "name": "E5",
          "ticks": 13557,
          "time": 157.63953488372093,
          "velocity": 0.15748031496062992
        },
        {
          "duration": 0.03488372093025305,
          "durationTicks": 3,
          "midi": 57,
          "name": "A3",
          "ticks": 13559,
          "time": 157.6627906976744,
          "velocity": 0.3543307086614173
        },
        {
          "duration": 0.023255813953483084,
          "durationTicks": 2,
          "midi": 57,
          "name": "A3",
          "ticks": 13563,
          "time": 157.7093023255814,
          "velocity": 0.33070866141732286
        },
        {
          "duration": 0.023255813953483084,
          "durationTicks": 2,
          "midi": 58,
          "name": "A#3",
          "ticks": 13565,
          "time": 157.7325581395349,
          "velocity": 0.2677165354330709
        },
        {
          "duration": 0.04651162790696617,
          "durationTicks": 4,
          "midi": 57,
          "name": "A3",
          "ticks": 13567,
          "time": 157.75581395348837,
          "velocity": 0.31496062992125984
        },
        {
          "duration": 0.48837209302325846,
          "durationTicks": 42,
          "midi": 64,
          "name": "E4",
          "ticks": 13571,
          "time": 157.80232558139534,
          "velocity": 0.15748031496062992
        },
        {
          "duration": 0.22093023255811772,
          "durationTicks": 19,
          "midi": 79,
          "name": "G5",
          "ticks": 13572,
          "time": 157.8139534883721,
          "velocity": 0.11023622047244094
        },
        {
          "duration": 0.034883720930224626,
          "durationTicks": 3,
          "midi": 44,
          "name": "G#2",
          "ticks": 13573,
          "time": 157.82558139534885,
          "velocity": 0.11811023622047244
        },
        {
          "duration": 0.034883720930224626,
          "durationTicks": 3,
          "midi": 57,
          "name": "A3",
          "ticks": 13573,
          "time": 157.82558139534885,
          "velocity": 0.3543307086614173
        },
        {
          "duration": 0.05813953488370771,
          "durationTicks": 5,
          "midi": 52,
          "name": "E3",
          "ticks": 13576,
          "time": 157.86046511627907,
          "velocity": 0.11023622047244094
        },
        {
          "duration": 0.023255813953483084,
          "durationTicks": 2,
          "midi": 58,
          "name": "A#3",
          "ticks": 13576,
          "time": 157.86046511627907,
          "velocity": 0.25984251968503935
        },
        {
          "duration": 0.023255813953483084,
          "durationTicks": 2,
          "midi": 57,
          "name": "A3",
          "ticks": 13578,
          "time": 157.88372093023256,
          "velocity": 0.2440944881889764
        },
        {
          "duration": 0.023255813953511506,
          "durationTicks": 2,
          "midi": 57,
          "name": "A3",
          "ticks": 13581,
          "time": 157.91860465116278,
          "velocity": 0.2440944881889764
        },
        {
          "duration": 0.16279069767441,
          "durationTicks": 14,
          "midi": 45,
          "name": "A2",
          "ticks": 13588,
          "time": 158,
          "velocity": 0.09448818897637795
        },
        {
          "duration": 0.05813953488370771,
          "durationTicks": 5,
          "midi": 52,
          "name": "E3",
          "ticks": 13588,
          "time": 158,
          "velocity": 0.07874015748031496
        },
        {
          "duration": 0.1046511627907023,
          "durationTicks": 9,
          "midi": 59,
          "name": "B3",
          "ticks": 13591,
          "time": 158.03488372093022,
          "velocity": 0.13385826771653545
        },
        {
          "duration": 0.1046511627907023,
          "durationTicks": 9,
          "midi": 52,
          "name": "E3",
          "ticks": 13598,
          "time": 158.11627906976744,
          "velocity": 0.11023622047244094
        },
        {
          "duration": 0.05813953488370771,
          "durationTicks": 5,
          "midi": 45,
          "name": "A2",
          "ticks": 13606,
          "time": 158.2093023255814,
          "velocity": 0.09448818897637795
        },
        {
          "duration": 0.16279069767441,
          "durationTicks": 14,
          "midi": 57,
          "name": "A3",
          "ticks": 13608,
          "time": 158.2325581395349,
          "velocity": 0.4094488188976378
        },
        {
          "duration": 0.023255813953511506,
          "durationTicks": 2,
          "midi": 58,
          "name": "A#3",
          "ticks": 13625,
          "time": 158.43023255813952,
          "velocity": 0.29133858267716534
        },
        {
          "duration": 0.03488372093025305,
          "durationTicks": 3,
          "midi": 71,
          "name": "B4",
          "ticks": 13625,
          "time": 158.43023255813952,
          "velocity": 0.07086614173228346
        },
        {
          "duration": 0.03488372093025305,
          "durationTicks": 3,
          "midi": 57,
          "name": "A3",
          "ticks": 13636,
          "time": 158.5581395348837,
          "velocity": 0.16535433070866143
        },
        {
          "duration": 0.09302325581393234,
          "durationTicks": 8,
          "midi": 61,
          "name": "C#4",
          "ticks": 13637,
          "time": 158.56976744186048,
          "velocity": 0.07874015748031496
        },
        {
          "duration": 0.1046511627907023,
          "durationTicks": 9,
          "midi": 57,
          "name": "A3",
          "ticks": 13640,
          "time": 158.6046511627907,
          "velocity": 0.1732283464566929
        },
        {
          "duration": 0.32558139534882,
          "durationTicks": 28,
          "midi": 66,
          "name": "F#4",
          "ticks": 13650,
          "time": 158.72093023255815,
          "velocity": 0.16535433070866143
        },
        {
          "duration": 0.04651162790696617,
          "durationTicks": 4,
          "midi": 54,
          "name": "F#3",
          "ticks": 13651,
          "time": 158.7325581395349,
          "velocity": 0.2283464566929134
        },
        {
          "duration": 0.034883720930224626,
          "durationTicks": 3,
          "midi": 71,
          "name": "B4",
          "ticks": 13651,
          "time": 158.7325581395349,
          "velocity": 0.09448818897637795
        },
        {
          "duration": 0.4302325581395223,
          "durationTicks": 37,
          "midi": 59,
          "name": "B3",
          "ticks": 13652,
          "time": 158.74418604651163,
          "velocity": 0.2283464566929134
        },
        {
          "duration": 0.32558139534884845,
          "durationTicks": 28,
          "midi": 62,
          "name": "D4",
          "ticks": 13652,
          "time": 158.74418604651163,
          "velocity": 0.1732283464566929
        },
        {
          "duration": 0.19767441860466306,
          "durationTicks": 17,
          "midi": 54,
          "name": "F#3",
          "ticks": 13656,
          "time": 158.7906976744186,
          "velocity": 0.1732283464566929
        },
        {
          "duration": 0.12790697674418539,
          "durationTicks": 11,
          "midi": 54,
          "name": "F#3",
          "ticks": 13679,
          "time": 159.0581395348837,
          "velocity": 0.2047244094488189
        },
        {
          "duration": 0.03488372093025305,
          "durationTicks": 3,
          "midi": 47,
          "name": "B2",
          "ticks": 13690,
          "time": 159.1860465116279,
          "velocity": 0.09448818897637795
        },
        {
          "duration": 0.24418604651162923,
          "durationTicks": 21,
          "midi": 59,
          "name": "B3",
          "ticks": 13692,
          "time": 159.2093023255814,
          "velocity": 0.2283464566929134
        },
        {
          "duration": 0.05813953488373613,
          "durationTicks": 5,
          "midi": 54,
          "name": "F#3",
          "ticks": 13696,
          "time": 159.25581395348837,
          "velocity": 0.08661417322834646
        },
        {
          "duration": 0.034883720930224626,
          "durationTicks": 3,
          "midi": 62,
          "name": "D4",
          "ticks": 13702,
          "time": 159.32558139534885,
          "velocity": 0.09448818897637795
        },
        {
          "duration": 0.15116279069766847,
          "durationTicks": 13,
          "midi": 74,
          "name": "D5",
          "ticks": 13703,
          "time": 159.3372093023256,
          "velocity": 0.14173228346456693
        },
        {
          "duration": 0.05813953488370771,
          "durationTicks": 5,
          "midi": 59,
          "name": "B3",
          "ticks": 13714,
          "time": 159.46511627906978,
          "velocity": 0.15748031496062992
        },
        {
          "duration": 0.03488372093025305,
          "durationTicks": 3,
          "midi": 57,
          "name": "A3",
          "ticks": 13720,
          "time": 159.53488372093022,
          "velocity": 0.14960629921259844
        },
        {
          "duration": 0.05813953488373613,
          "durationTicks": 5,
          "midi": 61,
          "name": "C#4",
          "ticks": 13721,
          "time": 159.54651162790697,
          "velocity": 0.07086614173228346
        },
        {
          "duration": 0.43023255813955075,
          "durationTicks": 37,
          "midi": 55,
          "name": "G3",
          "ticks": 13730,
          "time": 159.65116279069767,
          "velocity": 0.33070866141732286
        },
        {
          "duration": 0.09302325581396076,
          "durationTicks": 8,
          "midi": 89,
          "name": "F6",
          "ticks": 13731,
          "time": 159.6627906976744,
          "velocity": 0.13385826771653545
        },
        {
          "duration": 0.15116279069766847,
          "durationTicks": 13,
          "midi": 43,
          "name": "G2",
          "ticks": 13735,
          "time": 159.7093023255814,
          "velocity": 0.1732283464566929
        },
        {
          "duration": 0.40697674418603924,
          "durationTicks": 35,
          "midi": 62,
          "name": "D4",
          "ticks": 13735,
          "time": 159.7093023255814,
          "velocity": 0.23622047244094488
        },
        {
          "duration": 0.1046511627907023,
          "durationTicks": 9,
          "midi": 50,
          "name": "D3",
          "ticks": 13743,
          "time": 159.80232558139534,
          "velocity": 0.10236220472440945
        },
        {
          "duration": 0.09302325581396076,
          "durationTicks": 8,
          "midi": 43,
          "name": "G2",
          "ticks": 13759,
          "time": 159.98837209302326,
          "velocity": 0.11023622047244094
        },
        {
          "duration": 0.023255813953483084,
          "durationTicks": 2,
          "midi": 55,
          "name": "G3",
          "ticks": 13768,
          "time": 160.09302325581396,
          "velocity": 0.2677165354330709
        },
        {
          "duration": 0.12790697674418539,
          "durationTicks": 11,
          "midi": 55,
          "name": "G3",
          "ticks": 13772,
          "time": 160.13953488372093,
          "velocity": 0.30708661417322836
        },
        {
          "duration": 0.25581395348837077,
          "durationTicks": 22,
          "midi": 74,
          "name": "D5",
          "ticks": 13778,
          "time": 160.2093023255814,
          "velocity": 0.14960629921259844
        },
        {
          "duration": 0.11627906976744384,
          "durationTicks": 10,
          "midi": 89,
          "name": "F6",
          "ticks": 13784,
          "time": 160.27906976744185,
          "velocity": 0.1732283464566929
        },
        {
          "duration": 0.13953488372095535,
          "durationTicks": 12,
          "midi": 55,
          "name": "G3",
          "ticks": 13786,
          "time": 160.30232558139534,
          "velocity": 0.1968503937007874
        },
        {
          "duration": 0.08139534883721922,
          "durationTicks": 7,
          "midi": 61,
          "name": "C#4",
          "ticks": 13786,
          "time": 160.30232558139534,
          "velocity": 0.2204724409448819
        },
        {
          "duration": 0.12790697674418539,
          "durationTicks": 11,
          "midi": 62,
          "name": "D4",
          "ticks": 13793,
          "time": 160.38372093023256,
          "velocity": 0.23622047244094488
        },
        {
          "duration": 0.034883720930224626,
          "durationTicks": 3,
          "midi": 67,
          "name": "G4",
          "ticks": 13799,
          "time": 160.45348837209303,
          "velocity": 0.07086614173228346
        },
        {
          "duration": 0.0813953488371908,
          "durationTicks": 7,
          "midi": 55,
          "name": "G3",
          "ticks": 13800,
          "time": 160.46511627906978,
          "velocity": 0.28346456692913385
        },
        {
          "duration": 0.034883720930224626,
          "durationTicks": 3,
          "midi": 74,
          "name": "D5",
          "ticks": 13804,
          "time": 160.51162790697674,
          "velocity": 0.08661417322834646
        },
        {
          "duration": 0.034883720930224626,
          "durationTicks": 3,
          "midi": 55,
          "name": "G3",
          "ticks": 13809,
          "time": 160.56976744186048,
          "velocity": 0.36220472440944884
        },
        {
          "duration": 0.10465116279067388,
          "durationTicks": 9,
          "midi": 64,
          "name": "E4",
          "ticks": 13810,
          "time": 160.58139534883722,
          "velocity": 0.10236220472440945
        },
        {
          "duration": 0.17441860465115155,
          "durationTicks": 15,
          "midi": 88,
          "name": "E6",
          "ticks": 13810,
          "time": 160.58139534883722,
          "velocity": 0.12598425196850394
        },
        {
          "duration": 0.30232558139533694,
          "durationTicks": 26,
          "midi": 61,
          "name": "C#4",
          "ticks": 13811,
          "time": 160.59302325581396,
          "velocity": 0.16535433070866143
        },
        {
          "duration": 0.023255813953483084,
          "durationTicks": 2,
          "midi": 56,
          "name": "G#3",
          "ticks": 13812,
          "time": 160.6046511627907,
          "velocity": 0.3543307086614173
        },
        {
          "duration": 0.04651162790696617,
          "durationTicks": 4,
          "midi": 44,
          "name": "G#2",
          "ticks": 13813,
          "time": 160.61627906976744,
          "velocity": 0.15748031496062992
        },
        {
          "duration": 0.15116279069766847,
          "durationTicks": 13,
          "midi": 76,
          "name": "E5",
          "ticks": 13814,
          "time": 160.62790697674419,
          "velocity": 0.15748031496062992
        },
        {
          "duration": 0.24418604651162923,
          "durationTicks": 21,
          "midi": 57,
          "name": "A3",
          "ticks": 13819,
          "time": 160.6860465116279,
          "velocity": 0.2677165354330709
        },
        {
          "duration": 0.034883720930224626,
          "durationTicks": 3,
          "midi": 64,
          "name": "E4",
          "ticks": 13821,
          "time": 160.7093023255814,
          "velocity": 0.07874015748031496
        },
        {
          "duration": 0.06976744186047767,
          "durationTicks": 6,
          "midi": 45,
          "name": "A2",
          "ticks": 13835,
          "time": 160.87209302325581,
          "velocity": 0.11811023622047244
        },
        {
          "duration": 0.13953488372092693,
          "durationTicks": 12,
          "midi": 76,
          "name": "E5",
          "ticks": 13836,
          "time": 160.88372093023256,
          "velocity": 0.14173228346456693
        },
        {
          "duration": 0.09302325581396076,
          "durationTicks": 8,
          "midi": 74,
          "name": "D5",
          "ticks": 13840,
          "time": 160.93023255813952,
          "velocity": 0.07874015748031496
        },
        {
          "duration": 0.2441860465116008,
          "durationTicks": 21,
          "midi": 62,
          "name": "D4",
          "ticks": 13841,
          "time": 160.9418604651163,
          "velocity": 0.2047244094488189
        },
        {
          "duration": 0.10465116279067388,
          "durationTicks": 9,
          "midi": 45,
          "name": "A2",
          "ticks": 13842,
          "time": 160.95348837209303,
          "velocity": 0.12598425196850394
        },
        {
          "duration": 0.18604651162792152,
          "durationTicks": 16,
          "midi": 57,
          "name": "A3",
          "ticks": 13848,
          "time": 161.02325581395348,
          "velocity": 0.2204724409448819
        },
        {
          "duration": 0.17441860465115155,
          "durationTicks": 15,
          "midi": 45,
          "name": "A2",
          "ticks": 13853,
          "time": 161.08139534883722,
          "velocity": 0.12598425196850394
        },
        {
          "duration": 0.11627906976744384,
          "durationTicks": 10,
          "midi": 52,
          "name": "E3",
          "ticks": 13854,
          "time": 161.09302325581396,
          "velocity": 0.07086614173228346
        },
        {
          "duration": 0.12790697674418539,
          "durationTicks": 11,
          "midi": 76,
          "name": "E5",
          "ticks": 13858,
          "time": 161.13953488372093,
          "velocity": 0.07874015748031496
        },
        {
          "duration": 0.2674418604651123,
          "durationTicks": 23,
          "midi": 61,
          "name": "C#4",
          "ticks": 13865,
          "time": 161.22093023255815,
          "velocity": 0.2125984251968504
        },
        {
          "duration": 0.034883720930224626,
          "durationTicks": 3,
          "midi": 56,
          "name": "G#3",
          "ticks": 13866,
          "time": 161.2325581395349,
          "velocity": 0.31496062992125984
        },
        {
          "duration": 0.13953488372092693,
          "durationTicks": 12,
          "midi": 89,
          "name": "F6",
          "ticks": 13866,
          "time": 161.2325581395349,
          "velocity": 0.12598425196850394
        },
        {
          "duration": 0.12790697674418539,
          "durationTicks": 11,
          "midi": 57,
          "name": "A3",
          "ticks": 13870,
          "time": 161.27906976744185,
          "velocity": 0.2204724409448819
        },
        {
          "duration": 0.05813953488373613,
          "durationTicks": 5,
          "midi": 45,
          "name": "A2",
          "ticks": 13871,
          "time": 161.2906976744186,
          "velocity": 0.10236220472440945
        },
        {
          "duration": 0.13953488372092693,
          "durationTicks": 12,
          "midi": 45,
          "name": "A2",
          "ticks": 13879,
          "time": 161.38372093023256,
          "velocity": 0.07086614173228346
        },
        {
          "duration": 0.1046511627907023,
          "durationTicks": 9,
          "midi": 57,
          "name": "A3",
          "ticks": 13882,
          "time": 161.41860465116278,
          "velocity": 0.31496062992125984
        },
        {
          "duration": 0.7093023255814046,
          "durationTicks": 61,
          "midi": 68,
          "name": "G#4",
          "ticks": 13892,
          "time": 161.53488372093022,
          "velocity": 0.18110236220472442
        },
        {
          "duration": 0.09302325581396076,
          "durationTicks": 8,
          "midi": 56,
          "name": "G#3",
          "ticks": 13893,
          "time": 161.54651162790697,
          "velocity": 0.4094488188976378
        },
        {
          "duration": 0.03488372093025305,
          "durationTicks": 3,
          "midi": 71,
          "name": "B4",
          "ticks": 13893,
          "time": 161.54651162790697,
          "velocity": 0.11023622047244094
        },
        {
          "duration": 0.04651162790696617,
          "durationTicks": 4,
          "midi": 57,
          "name": "A3",
          "ticks": 13901,
          "time": 161.63953488372093,
          "velocity": 0.25196850393700787
        },
        {
          "duration": 0.09302325581396076,
          "durationTicks": 8,
          "midi": 56,
          "name": "G#3",
          "ticks": 13905,
          "time": 161.6860465116279,
          "velocity": 0.23622047244094488
        },
        {
          "duration": 0.04651162790699459,
          "durationTicks": 4,
          "midi": 56,
          "name": "G#3",
          "ticks": 13915,
          "time": 161.80232558139534,
          "velocity": 0.2047244094488189
        },
        {
          "duration": 0.12790697674418539,
          "durationTicks": 11,
          "midi": 52,
          "name": "E3",
          "ticks": 13921,
          "time": 161.87209302325581,
          "velocity": 0.07874015748031496
        },
        {
          "duration": 0.15116279069766847,
          "durationTicks": 13,
          "midi": 64,
          "name": "E4",
          "ticks": 13921,
          "time": 161.87209302325581,
          "velocity": 0.08661417322834646
        },
        {
          "duration": 0.08139534883721922,
          "durationTicks": 7,
          "midi": 57,
          "name": "A3",
          "ticks": 13924,
          "time": 161.90697674418604,
          "velocity": 0.10236220472440945
        },
        {
          "duration": 0.034883720930224626,
          "durationTicks": 3,
          "midi": 55,
          "name": "G3",
          "ticks": 13933,
          "time": 162.01162790697674,
          "velocity": 0.33070866141732286
        },
        {
          "duration": 0.06976744186047767,
          "durationTicks": 6,
          "midi": 56,
          "name": "G#3",
          "ticks": 13936,
          "time": 162.04651162790697,
          "velocity": 0.3543307086614173
        },
        {
          "duration": 0.034883720930224626,
          "durationTicks": 3,
          "midi": 56,
          "name": "G#3",
          "ticks": 13944,
          "time": 162.13953488372093,
          "velocity": 0.2992125984251969
        },
        {
          "duration": 0.09302325581396076,
          "durationTicks": 8,
          "midi": 59,
          "name": "B3",
          "ticks": 13948,
          "time": 162.1860465116279,
          "velocity": 0.23622047244094488
        },
        {
          "duration": 0.11627906976744384,
          "durationTicks": 10,
          "midi": 76,
          "name": "E5",
          "ticks": 13957,
          "time": 162.2906976744186,
          "velocity": 0.13385826771653545
        },
        {
          "duration": 0.04651162790699459,
          "durationTicks": 4,
          "midi": 57,
          "name": "A3",
          "ticks": 13958,
          "time": 162.30232558139534,
          "velocity": 0.4015748031496063
        },
        {
          "duration": 0.023255813953483084,
          "durationTicks": 2,
          "midi": 57,
          "name": "A3",
          "ticks": 13963,
          "time": 162.36046511627907,
          "velocity": 0.2755905511811024
        },
        {
          "duration": 0.04651162790699459,
          "durationTicks": 4,
          "midi": 56,
          "name": "G#3",
          "ticks": 13967,
          "time": 162.40697674418604,
          "velocity": 0.25984251968503935
        },
        {
          "duration": 0.09302325581393234,
          "durationTicks": 8,
          "midi": 55,
          "name": "G3",
          "ticks": 13971,
          "time": 162.45348837209303,
          "velocity": 0.33858267716535434
        },
        {
          "duration": 0.034883720930224626,
          "durationTicks": 3,
          "midi": 62,
          "name": "D4",
          "ticks": 13972,
          "time": 162.46511627906978,
          "velocity": 0.13385826771653545
        },
        {
          "duration": 0.0813953488371908,
          "durationTicks": 7,
          "midi": 89,
          "name": "F6",
          "ticks": 13972,
          "time": 162.46511627906978,
          "velocity": 0.09448818897637795
        },
        {
          "duration": 0.17441860465115155,
          "durationTicks": 15,
          "midi": 43,
          "name": "G2",
          "ticks": 13973,
          "time": 162.47674418604652,
          "velocity": 0.25196850393700787
        },
        {
          "duration": 0.034883720930224626,
          "durationTicks": 3,
          "midi": 59,
          "name": "B3",
          "ticks": 13973,
          "time": 162.47674418604652,
          "velocity": 0.1889763779527559
        },
        {
          "duration": 0.33720930232559,
          "durationTicks": 29,
          "midi": 59,
          "name": "B3",
          "ticks": 13978,
          "time": 162.53488372093022,
          "velocity": 0.15748031496062992
        },
        {
          "duration": 0.04651162790699459,
          "durationTicks": 4,
          "midi": 42,
          "name": "F#2",
          "ticks": 13988,
          "time": 162.65116279069767,
          "velocity": 0.11811023622047244
        },
        {
          "duration": 0.19767441860463464,
          "durationTicks": 17,
          "midi": 43,
          "name": "G2",
          "ticks": 13992,
          "time": 162.69767441860466,
          "velocity": 0.1889763779527559
        },
        {
          "duration": 0.09302325581393234,
          "durationTicks": 8,
          "midi": 74,
          "name": "D5",
          "ticks": 14004,
          "time": 162.8372093023256,
          "velocity": 0.11023622047244094
        },
        {
          "duration": 0.04651162790696617,
          "durationTicks": 4,
          "midi": 55,
          "name": "G3",
          "ticks": 14007,
          "time": 162.87209302325581,
          "velocity": 0.31496062992125984
        },
        {
          "duration": 0.023255813953511506,
          "durationTicks": 2,
          "midi": 54,
          "name": "F#3",
          "ticks": 14011,
          "time": 162.91860465116278,
          "velocity": 0.3228346456692913
        },
        {
          "duration": 0.12790697674418539,
          "durationTicks": 11,
          "midi": 55,
          "name": "G3",
          "ticks": 14013,
          "time": 162.9418604651163,
          "velocity": 0.3464566929133858
        },
        {
          "duration": 0.034883720930224626,
          "durationTicks": 3,
          "midi": 59,
          "name": "B3",
          "ticks": 14027,
          "time": 163.1046511627907,
          "velocity": 0.18110236220472442
        },
        {
          "duration": 0.023255813953483084,
          "durationTicks": 2,
          "midi": 56,
          "name": "G#3",
          "ticks": 14031,
          "time": 163.15116279069767,
          "velocity": 0.23622047244094488
        },
        {
          "duration": 0.03488372093025305,
          "durationTicks": 3,
          "midi": 55,
          "name": "G3",
          "ticks": 14033,
          "time": 163.17441860465115,
          "velocity": 0.2283464566929134
        },
        {
          "duration": 0.023255813953483084,
          "durationTicks": 2,
          "midi": 56,
          "name": "G#3",
          "ticks": 14036,
          "time": 163.2093023255814,
          "velocity": 0.4094488188976378
        },
        {
          "duration": 0.034883720930224626,
          "durationTicks": 3,
          "midi": 69,
          "name": "A4",
          "ticks": 14037,
          "time": 163.22093023255815,
          "velocity": 0.10236220472440945
        },
        {
          "duration": 0.11627906976744384,
          "durationTicks": 10,
          "midi": 76,
          "name": "E5",
          "ticks": 14037,
          "time": 163.22093023255815,
          "velocity": 0.08661417322834646
        },
        {
          "duration": 0.11627906976744384,
          "durationTicks": 10,
          "midi": 57,
          "name": "A3",
          "ticks": 14038,
          "time": 163.2325581395349,
          "velocity": 0.3937007874015748
        },
        {
          "duration": 0.06976744186044925,
          "durationTicks": 6,
          "midi": 59,
          "name": "B3",
          "ticks": 14049,
          "time": 163.36046511627907,
          "velocity": 0.2440944881889764
        },
        {
          "duration": 0.04651162790696617,
          "durationTicks": 4,
          "midi": 64,
          "name": "E4",
          "ticks": 14050,
          "time": 163.37209302325581,
          "velocity": 0.10236220472440945
        },
        {
          "duration": 0.2906976744185954,
          "durationTicks": 25,
          "midi": 67,
          "name": "G4",
          "ticks": 14050,
          "time": 163.37209302325581,
          "velocity": 0.11811023622047244
        },
        {
          "duration": 0.034883720930224626,
          "durationTicks": 3,
          "midi": 74,
          "name": "D5",
          "ticks": 14051,
          "time": 163.38372093023256,
          "velocity": 0.09448818897637795
        },
        {
          "duration": 0.27906976744185386,
          "durationTicks": 24,
          "midi": 55,
          "name": "G3",
          "ticks": 14052,
          "time": 163.3953488372093,
          "velocity": 0.36220472440944884
        },
        {
          "duration": 0.2441860465116008,
          "durationTicks": 21,
          "midi": 74,
          "name": "D5",
          "ticks": 14056,
          "time": 163.4418604651163,
          "velocity": 0.1968503937007874
        },
        {
          "duration": 0.08139534883721922,
          "durationTicks": 7,
          "midi": 59,
          "name": "B3",
          "ticks": 14061,
          "time": 163.5,
          "velocity": 0.1889763779527559
        },
        {
          "duration": 0.03488372093025305,
          "durationTicks": 3,
          "midi": 56,
          "name": "G#3",
          "ticks": 14076,
          "time": 163.67441860465115,
          "velocity": 0.29133858267716534
        },
        {
          "duration": 0.12790697674418539,
          "durationTicks": 11,
          "midi": 59,
          "name": "B3",
          "ticks": 14079,
          "time": 163.7093023255814,
          "velocity": 0.14173228346456693
        },
        {
          "duration": 0.1046511627907023,
          "durationTicks": 9,
          "midi": 57,
          "name": "A3",
          "ticks": 14102,
          "time": 163.97674418604652,
          "velocity": 0.33858267716535434
        },
        {
          "duration": 0.13953488372092693,
          "durationTicks": 12,
          "midi": 76,
          "name": "E5",
          "ticks": 14102,
          "time": 163.97674418604652,
          "velocity": 0.12598425196850394
        },
        {
          "duration": 0.08139534883721922,
          "durationTicks": 7,
          "midi": 52,
          "name": "E3",
          "ticks": 14114,
          "time": 164.11627906976744,
          "velocity": 0.11811023622047244
        },
        {
          "duration": 0.04651162790699459,
          "durationTicks": 4,
          "midi": 59,
          "name": "B3",
          "ticks": 14118,
          "time": 164.1627906976744,
          "velocity": 0.14173228346456693
        },
        {
          "duration": 0.034883720930224626,
          "durationTicks": 3,
          "midi": 57,
          "name": "A3",
          "ticks": 14127,
          "time": 164.2674418604651,
          "velocity": 0.29133858267716534
        },
        {
          "duration": 0.08139534883721922,
          "durationTicks": 7,
          "midi": 76,
          "name": "E5",
          "ticks": 14127,
          "time": 164.2674418604651,
          "velocity": 0.08661417322834646
        },
        {
          "duration": 0.16279069767441,
          "durationTicks": 14,
          "midi": 89,
          "name": "F6",
          "ticks": 14127,
          "time": 164.2674418604651,
          "velocity": 0.16535433070866143
        },
        {
          "duration": 0.2674418604651123,
          "durationTicks": 23,
          "midi": 61,
          "name": "C#4",
          "ticks": 14128,
          "time": 164.27906976744185,
          "velocity": 0.18110236220472442
        },
        {
          "duration": 0.16279069767443843,
          "durationTicks": 14,
          "midi": 52,
          "name": "E3",
          "ticks": 14129,
          "time": 164.2906976744186,
          "velocity": 0.15748031496062992
        },
        {
          "duration": 0.2093023255814046,
          "durationTicks": 18,
          "midi": 57,
          "name": "A3",
          "ticks": 14135,
          "time": 164.36046511627907,
          "velocity": 0.1889763779527559
        },
        {
          "duration": 0.1046511627907023,
          "durationTicks": 9,
          "midi": 45,
          "name": "A2",
          "ticks": 14144,
          "time": 164.46511627906978,
          "velocity": 0.07874015748031496
        },
        {
          "duration": 0.034883720930224626,
          "durationTicks": 3,
          "midi": 45,
          "name": "A2",
          "ticks": 14154,
          "time": 164.58139534883722,
          "velocity": 0.11811023622047244
        },
        {
          "duration": 0.1860465116278931,
          "durationTicks": 16,
          "midi": 74,
          "name": "D5",
          "ticks": 14154,
          "time": 164.58139534883722,
          "velocity": 0.13385826771653545
        },
        {
          "duration": 0.034883720930224626,
          "durationTicks": 3,
          "midi": 56,
          "name": "G#3",
          "ticks": 14155,
          "time": 164.59302325581396,
          "velocity": 0.11811023622047244
        },
        {
          "duration": 0.15116279069766847,
          "durationTicks": 13,
          "midi": 62,
          "name": "D4",
          "ticks": 14155,
          "time": 164.59302325581396,
          "velocity": 0.2204724409448819
        },
        {
          "duration": 0.1046511627907023,
          "durationTicks": 9,
          "midi": 76,
          "name": "E5",
          "ticks": 14159,
          "time": 164.63953488372093,
          "velocity": 0.07874015748031496
        },
        {
          "duration": 0.2093023255814046,
          "durationTicks": 18,
          "midi": 57,
          "name": "A3",
          "ticks": 14160,
          "time": 164.65116279069767,
          "velocity": 0.13385826771653545
        },
        {
          "duration": 0.04651162790699459,
          "durationTicks": 4,
          "midi": 45,
          "name": "A2",
          "ticks": 14163,
          "time": 164.6860465116279,
          "velocity": 0.10236220472440945
        },
        {
          "duration": 0.11627906976744384,
          "durationTicks": 10,
          "midi": 52,
          "name": "E3",
          "ticks": 14169,
          "time": 164.75581395348837,
          "velocity": 0.09448818897637795
        },
        {
          "duration": 0.13953488372092693,
          "durationTicks": 12,
          "midi": 64,
          "name": "E4",
          "ticks": 14169,
          "time": 164.75581395348837,
          "velocity": 0.1968503937007874
        },
        {
          "duration": 0.17441860465115155,
          "durationTicks": 15,
          "midi": 57,
          "name": "A3",
          "ticks": 14179,
          "time": 164.87209302325581,
          "velocity": 0.36220472440944884
        },
        {
          "duration": 0.08139534883721922,
          "durationTicks": 7,
          "midi": 73,
          "name": "C#5",
          "ticks": 14181,
          "time": 164.8953488372093,
          "velocity": 0.15748031496062992
        },
        {
          "duration": 0.06976744186047767,
          "durationTicks": 6,
          "midi": 76,
          "name": "E5",
          "ticks": 14181,
          "time": 164.8953488372093,
          "velocity": 0.07086614173228346
        },
        {
          "duration": 0.12790697674418539,
          "durationTicks": 11,
          "midi": 61,
          "name": "C#4",
          "ticks": 14182,
          "time": 164.90697674418604,
          "velocity": 0.2047244094488189
        },
        {
          "duration": 0.08139534883721922,
          "durationTicks": 7,
          "midi": 89,
          "name": "F6",
          "ticks": 14182,
          "time": 164.90697674418604,
          "velocity": 0.14960629921259844
        },
        {
          "duration": 0.034883720930224626,
          "durationTicks": 3,
          "midi": 57,
          "name": "A3",
          "ticks": 14196,
          "time": 165.06976744186048,
          "velocity": 0.11023622047244094
        },
        {
          "duration": 0.034883720930224626,
          "durationTicks": 3,
          "midi": 48,
          "name": "C3",
          "ticks": 14210,
          "time": 165.2325581395349,
          "velocity": 0.10236220472440945
        },
        {
          "duration": 0.9651162790697754,
          "durationTicks": 83,
          "midi": 66,
          "name": "F#4",
          "ticks": 14210,
          "time": 165.2325581395349,
          "velocity": 0.28346456692913385
        },
        {
          "duration": 0.034883720930224626,
          "durationTicks": 3,
          "midi": 71,
          "name": "B4",
          "ticks": 14210,
          "time": 165.2325581395349,
          "velocity": 0.1732283464566929
        },
        {
          "duration": 0.4651162790697754,
          "durationTicks": 40,
          "midi": 59,
          "name": "B3",
          "ticks": 14212,
          "time": 165.25581395348837,
          "velocity": 0.25984251968503935
        },
        {
          "duration": 0.04651162790699459,
          "durationTicks": 4,
          "midi": 54,
          "name": "F#3",
          "ticks": 14215,
          "time": 165.2906976744186,
          "velocity": 0.08661417322834646
        },
        {
          "duration": 0.16279069767441,
          "durationTicks": 14,
          "midi": 54,
          "name": "F#3",
          "ticks": 14255,
          "time": 165.75581395348837,
          "velocity": 0.2755905511811024
        },
        {
          "duration": 0.16279069767443843,
          "durationTicks": 14,
          "midi": 62,
          "name": "D4",
          "ticks": 14268,
          "time": 165.90697674418604,
          "velocity": 0.1968503937007874
        },
        {
          "duration": 0.25581395348837077,
          "durationTicks": 22,
          "midi": 54,
          "name": "F#3",
          "ticks": 14270,
          "time": 165.93023255813952,
          "velocity": 0.1889763779527559
        },
        {
          "duration": 0.10465116279067388,
          "durationTicks": 9,
          "midi": 61,
          "name": "C#4",
          "ticks": 14283,
          "time": 166.08139534883722,
          "velocity": 0.1968503937007874
        },
        {
          "duration": 0.023255813953483084,
          "durationTicks": 2,
          "midi": 60,
          "name": "C4",
          "ticks": 14295,
          "time": 166.22093023255815,
          "velocity": 0.33858267716535434
        },
        {
          "duration": 0.2674418604651123,
          "durationTicks": 23,
          "midi": 66,
          "name": "F#4",
          "ticks": 14295,
          "time": 166.22093023255815,
          "velocity": 0.1889763779527559
        },
        {
          "duration": 0.40697674418603924,
          "durationTicks": 35,
          "midi": 71,
          "name": "B4",
          "ticks": 14295,
          "time": 166.22093023255815,
          "velocity": 0.12598425196850394
        },
        {
          "duration": 0.1046511627907023,
          "durationTicks": 9,
          "midi": 74,
          "name": "D5",
          "ticks": 14296,
          "time": 166.2325581395349,
          "velocity": 0.10236220472440945
        },
        {
          "duration": 0.023255813953483084,
          "durationTicks": 2,
          "midi": 55,
          "name": "G3",
          "ticks": 14297,
          "time": 166.24418604651163,
          "velocity": 0.2992125984251969
        },
        {
          "duration": 0.7093023255814046,
          "durationTicks": 61,
          "midi": 59,
          "name": "B3",
          "ticks": 14297,
          "time": 166.24418604651163,
          "velocity": 0.2992125984251969
        },
        {
          "duration": 0.18604651162792152,
          "durationTicks": 16,
          "midi": 54,
          "name": "F#3",
          "ticks": 14301,
          "time": 166.2906976744186,
          "velocity": 0.2125984251968504
        },
        {
          "duration": 0.12790697674418539,
          "durationTicks": 11,
          "midi": 54,
          "name": "F#3",
          "ticks": 14324,
          "time": 166.5581395348837,
          "velocity": 0.1889763779527559
        },
        {
          "duration": 0.33720930232559,
          "durationTicks": 29,
          "midi": 66,
          "name": "F#4",
          "ticks": 14335,
          "time": 166.6860465116279,
          "velocity": 0.07086614173228346
        },
        {
          "duration": 0.09302325581396076,
          "durationTicks": 8,
          "midi": 54,
          "name": "F#3",
          "ticks": 14339,
          "time": 166.7325581395349,
          "velocity": 0.18110236220472442
        },
        {
          "duration": 0.04651162790696617,
          "durationTicks": 4,
          "midi": 62,
          "name": "D4",
          "ticks": 14348,
          "time": 166.8372093023256,
          "velocity": 0.15748031496062992
        },
        {
          "duration": 0.15116279069766847,
          "durationTicks": 13,
          "midi": 54,
          "name": "F#3",
          "ticks": 14351,
          "time": 166.87209302325581,
          "velocity": 0.11811023622047244
        },
        {
          "duration": 0.03488372093025305,
          "durationTicks": 3,
          "midi": 62,
          "name": "D4",
          "ticks": 14355,
          "time": 166.91860465116278,
          "velocity": 0.09448818897637795
        },
        {
          "duration": 0.1046511627907023,
          "durationTicks": 9,
          "midi": 74,
          "name": "D5",
          "ticks": 14375,
          "time": 167.15116279069767,
          "velocity": 0.16535433070866143
        },
        {
          "duration": 0.03488372093025305,
          "durationTicks": 3,
          "midi": 50,
          "name": "D3",
          "ticks": 14377,
          "time": 167.17441860465115,
          "velocity": 0.11811023622047244
        },
        {
          "duration": 0.19767441860466306,
          "durationTicks": 17,
          "midi": 43,
          "name": "G2",
          "ticks": 14378,
          "time": 167.1860465116279,
          "velocity": 0.25984251968503935
        },
        {
          "duration": 0.5465116279069662,
          "durationTicks": 47,
          "midi": 62,
          "name": "D4",
          "ticks": 14381,
          "time": 167.22093023255815,
          "velocity": 0.1889763779527559
        },
        {
          "duration": 0.034883720930224626,
          "durationTicks": 3,
          "midi": 42,
          "name": "F#2",
          "ticks": 14395,
          "time": 167.38372093023256,
          "velocity": 0.07874015748031496
        },
        {
          "duration": 0.034883720930224626,
          "durationTicks": 3,
          "midi": 50,
          "name": "D3",
          "ticks": 14395,
          "time": 167.38372093023256,
          "velocity": 0.07874015748031496
        },
        {
          "duration": 0.17441860465117998,
          "durationTicks": 15,
          "midi": 43,
          "name": "G2",
          "ticks": 14398,
          "time": 167.41860465116278,
          "velocity": 0.2047244094488189
        },
        {
          "duration": 0.17441860465115155,
          "durationTicks": 15,
          "midi": 55,
          "name": "G3",
          "ticks": 14411,
          "time": 167.56976744186048,
          "velocity": 0.4015748031496063
        },
        {
          "duration": 0.16279069767441,
          "durationTicks": 14,
          "midi": 55,
          "name": "G3",
          "ticks": 14428,
          "time": 167.7674418604651,
          "velocity": 0.2440944881889764
        },
        {
          "duration": 0.1046511627907023,
          "durationTicks": 9,
          "midi": 89,
          "name": "F6",
          "ticks": 14428,
          "time": 167.7674418604651,
          "velocity": 0.11023622047244094
        },
        {
          "duration": 0.09302325581396076,
          "durationTicks": 8,
          "midi": 61,
          "name": "C#4",
          "ticks": 14431,
          "time": 167.80232558139534,
          "velocity": 0.2125984251968504
        },
        {
          "duration": 0.09302325581396076,
          "durationTicks": 8,
          "midi": 62,
          "name": "D4",
          "ticks": 14439,
          "time": 167.8953488372093,
          "velocity": 0.14960629921259844
        },
        {
          "duration": 0.034883720930224626,
          "durationTicks": 3,
          "midi": 56,
          "name": "G#3",
          "ticks": 14444,
          "time": 167.95348837209303,
          "velocity": 0.11811023622047244
        },
        {
          "duration": 0.05813953488370771,
          "durationTicks": 5,
          "midi": 55,
          "name": "G3",
          "ticks": 14447,
          "time": 167.98837209302326,
          "velocity": 0.09448818897637795
        },
        {
          "duration": 0.023255813953511506,
          "durationTicks": 2,
          "midi": 57,
          "name": "A3",
          "ticks": 14453,
          "time": 168.0581395348837,
          "velocity": 0.3464566929133858
        },
        {
          "duration": 0.034883720930224626,
          "durationTicks": 3,
          "midi": 88,
          "name": "E6",
          "ticks": 14455,
          "time": 168.08139534883722,
          "velocity": 0.07874015748031496
        },
        {
          "duration": 0.16279069767441,
          "durationTicks": 14,
          "midi": 57,
          "name": "A3",
          "ticks": 14456,
          "time": 168.09302325581396,
          "velocity": 0.41732283464566927
        },
        {
          "duration": 0.25581395348837077,
          "durationTicks": 22,
          "midi": 61,
          "name": "C#4",
          "ticks": 14456,
          "time": 168.09302325581396,
          "velocity": 0.14173228346456693
        },
        {
          "duration": 0.034883720930224626,
          "durationTicks": 3,
          "midi": 44,
          "name": "G#2",
          "ticks": 14457,
          "time": 168.1046511627907,
          "velocity": 0.14960629921259844
        },
        {
          "duration": 0.1046511627907023,
          "durationTicks": 9,
          "midi": 76,
          "name": "E5",
          "ticks": 14458,
          "time": 168.11627906976744,
          "velocity": 0.09448818897637795
        },
        {
          "duration": 0.04651162790699459,
          "durationTicks": 4,
          "midi": 44,
          "name": "G#2",
          "ticks": 14463,
          "time": 168.17441860465115,
          "velocity": 0.12598425196850394
        },
        {
          "duration": 0.03488372093025305,
          "durationTicks": 3,
          "midi": 45,
          "name": "A2",
          "ticks": 14472,
          "time": 168.27906976744185,
          "velocity": 0.07874015748031496
        },
        {
          "duration": 0.034883720930224626,
          "durationTicks": 3,
          "midi": 57,
          "name": "A3",
          "ticks": 14477,
          "time": 168.3372093023256,
          "velocity": 0.1968503937007874
        },
        {
          "duration": 0.05813953488370771,
          "durationTicks": 5,
          "midi": 45,
          "name": "A2",
          "ticks": 14479,
          "time": 168.36046511627907,
          "velocity": 0.09448818897637795
        },
        {
          "duration": 0.023255813953483084,
          "durationTicks": 2,
          "midi": 57,
          "name": "A3",
          "ticks": 14481,
          "time": 168.38372093023256,
          "velocity": 0.2440944881889764
        },
        {
          "duration": 0.2906976744185954,
          "durationTicks": 25,
          "midi": 62,
          "name": "D4",
          "ticks": 14481,
          "time": 168.38372093023256,
          "velocity": 0.2125984251968504
        },
        {
          "duration": 0.11627906976744384,
          "durationTicks": 10,
          "midi": 45,
          "name": "A2",
          "ticks": 14487,
          "time": 168.45348837209303,
          "velocity": 0.10236220472440945
        },
        {
          "duration": 0.034883720930224626,
          "durationTicks": 3,
          "midi": 57,
          "name": "A3",
          "ticks": 14491,
          "time": 168.5,
          "velocity": 0.11811023622047244
        },
        {
          "duration": 0.16279069767441,
          "durationTicks": 14,
          "midi": 52,
          "name": "E3",
          "ticks": 14493,
          "time": 168.52325581395348,
          "velocity": 0.11811023622047244
        },
        {
          "duration": 0.04651162790696617,
          "durationTicks": 4,
          "midi": 45,
          "name": "A2",
          "ticks": 14500,
          "time": 168.6046511627907,
          "velocity": 0.07086614173228346
        },
        {
          "duration": 0.023255813953511506,
          "durationTicks": 2,
          "midi": 56,
          "name": "G#3",
          "ticks": 14507,
          "time": 168.6860465116279,
          "velocity": 0.36220472440944884
        },
        {
          "duration": 0.27906976744185386,
          "durationTicks": 24,
          "midi": 61,
          "name": "C#4",
          "ticks": 14508,
          "time": 168.69767441860466,
          "velocity": 0.1732283464566929
        },
        {
          "duration": 0.034883720930224626,
          "durationTicks": 3,
          "midi": 57,
          "name": "A3",
          "ticks": 14509,
          "time": 168.7093023255814,
          "velocity": 0.33858267716535434
        },
        {
          "duration": 0.13953488372092693,
          "durationTicks": 12,
          "midi": 89,
          "name": "F6",
          "ticks": 14509,
          "time": 168.7093023255814,
          "velocity": 0.11811023622047244
        },
        {
          "duration": 0.19767441860466306,
          "durationTicks": 17,
          "midi": 57,
          "name": "A3",
          "ticks": 14513,
          "time": 168.75581395348837,
          "velocity": 0.2755905511811024
        },
        {
          "duration": 0.04651162790696617,
          "durationTicks": 4,
          "midi": 57,
          "name": "A3",
          "ticks": 14531,
          "time": 168.96511627906978,
          "velocity": 0.25984251968503935
        },
        {
          "duration": 0.023255813953483084,
          "durationTicks": 2,
          "midi": 55,
          "name": "G3",
          "ticks": 14536,
          "time": 169.02325581395348,
          "velocity": 0.33858267716535434
        },
        {
          "duration": 0.4651162790697754,
          "durationTicks": 40,
          "midi": 68,
          "name": "G#4",
          "ticks": 14536,
          "time": 169.02325581395348,
          "velocity": 0.1732283464566929
        },
        {
          "duration": 0.04651162790699459,
          "durationTicks": 4,
          "midi": 71,
          "name": "B4",
          "ticks": 14536,
          "time": 169.02325581395348,
          "velocity": 0.11023622047244094
        },
        {
          "duration": 0.05813953488373613,
          "durationTicks": 5,
          "midi": 56,
          "name": "G#3",
          "ticks": 14538,
          "time": 169.04651162790697,
          "velocity": 0.4015748031496063
        },
        {
          "duration": 0.034883720930224626,
          "durationTicks": 3,
          "midi": 57,
          "name": "A3",
          "ticks": 14545,
          "time": 169.12790697674419,
          "velocity": 0.25984251968503935
        },
        {
          "duration": 0.03488372093025305,
          "durationTicks": 3,
          "midi": 52,
          "name": "E3",
          "ticks": 14550,
          "time": 169.1860465116279,
          "velocity": 0.15748031496062992
        },
        {
          "duration": 0.05813953488373613,
          "durationTicks": 5,
          "midi": 59,
          "name": "B3",
          "ticks": 14550,
          "time": 169.1860465116279,
          "velocity": 0.2047244094488189
        },
        {
          "duration": 0.06976744186047767,
          "durationTicks": 6,
          "midi": 52,
          "name": "E3",
          "ticks": 14556,
          "time": 169.25581395348837,
          "velocity": 0.15748031496062992
        },
        {
          "duration": 0.05813953488373613,
          "durationTicks": 5,
          "midi": 59,
          "name": "B3",
          "ticks": 14557,
          "time": 169.2674418604651,
          "velocity": 0.14173228346456693
        },
        {
          "duration": 0.12790697674418539,
          "durationTicks": 11,
          "midi": 52,
          "name": "E3",
          "ticks": 14565,
          "time": 169.36046511627907,
          "velocity": 0.11811023622047244
        },
        {
          "duration": 0.1046511627907023,
          "durationTicks": 9,
          "midi": 56,
          "name": "G#3",
          "ticks": 14577,
          "time": 169.5,
          "velocity": 0.3700787401574803
        },
        {
          "duration": 0.023255813953483084,
          "durationTicks": 2,
          "midi": 58,
          "name": "A#3",
          "ticks": 14588,
          "time": 169.62790697674419,
          "velocity": 0.2283464566929134
        },
        {
          "duration": 0.05813953488373613,
          "durationTicks": 5,
          "midi": 59,
          "name": "B3",
          "ticks": 14590,
          "time": 169.65116279069767,
          "velocity": 0.23622047244094488
        },
        {
          "duration": 0.09302325581396076,
          "durationTicks": 8,
          "midi": 76,
          "name": "E5",
          "ticks": 14603,
          "time": 169.80232558139534,
          "velocity": 0.07874015748031496
        },
        {
          "duration": 0.06976744186044925,
          "durationTicks": 6,
          "midi": 57,
          "name": "A3",
          "ticks": 14604,
          "time": 169.8139534883721,
          "velocity": 0.36220472440944884
        },
        {
          "duration": 0.023255813953483084,
          "durationTicks": 2,
          "midi": 57,
          "name": "A3",
          "ticks": 14611,
          "time": 169.8953488372093,
          "velocity": 0.2755905511811024
        },
        {
          "duration": 0.023255813953511506,
          "durationTicks": 2,
          "midi": 56,
          "name": "G#3",
          "ticks": 14613,
          "time": 169.91860465116278,
          "velocity": 0.23622047244094488
        },
        {
          "duration": 0.40697674418603924,
          "durationTicks": 35,
          "midi": 55,
          "name": "G3",
          "ticks": 14615,
          "time": 169.9418604651163,
          "velocity": 0.4251968503937008
        },
        {
          "duration": 0.2674418604651123,
          "durationTicks": 23,
          "midi": 62,
          "name": "D4",
          "ticks": 14615,
          "time": 169.9418604651163,
          "velocity": 0.1732283464566929
        },
        {
          "duration": 0.19767441860463464,
          "durationTicks": 17,
          "midi": 43,
          "name": "G2",
          "ticks": 14618,
          "time": 169.97674418604652,
          "velocity": 0.25984251968503935
        },
        {
          "duration": 0.05813953488373613,
          "durationTicks": 5,
          "midi": 59,
          "name": "B3",
          "ticks": 14635,
          "time": 170.17441860465115,
          "velocity": 0.08661417322834646
        },
        {
          "duration": 0.1860465116278931,
          "durationTicks": 16,
          "midi": 43,
          "name": "G2",
          "ticks": 14639,
          "time": 170.22093023255815,
          "velocity": 0.2125984251968504
        },
        {
          "duration": 0.034883720930224626,
          "durationTicks": 3,
          "midi": 62,
          "name": "D4",
          "ticks": 14639,
          "time": 170.22093023255815,
          "velocity": 0.09448818897637795
        },
        {
          "duration": 0.09302325581396076,
          "durationTicks": 8,
          "midi": 59,
          "name": "B3",
          "ticks": 14641,
          "time": 170.24418604651163,
          "velocity": 0.09448818897637795
        },
        {
          "duration": 0.1511627906976969,
          "durationTicks": 13,
          "midi": 55,
          "name": "G3",
          "ticks": 14656,
          "time": 170.41860465116278,
          "velocity": 0.33858267716535434
        },
        {
          "duration": 0.034883720930224626,
          "durationTicks": 3,
          "midi": 43,
          "name": "G2",
          "ticks": 14665,
          "time": 170.52325581395348,
          "velocity": 0.09448818897637795
        },
        {
          "duration": 0.06976744186044925,
          "durationTicks": 6,
          "midi": 55,
          "name": "G3",
          "ticks": 14672,
          "time": 170.6046511627907,
          "velocity": 0.2677165354330709
        },
        {
          "duration": 0.04651162790696617,
          "durationTicks": 4,
          "midi": 59,
          "name": "B3",
          "ticks": 14673,
          "time": 170.61627906976744,
          "velocity": 0.15748031496062992
        },
        {
          "duration": 0.05813953488373613,
          "durationTicks": 5,
          "midi": 57,
          "name": "A3",
          "ticks": 14679,
          "time": 170.6860465116279,
          "velocity": 0.3937007874015748
        },
        {
          "duration": 0.12790697674418539,
          "durationTicks": 11,
          "midi": 76,
          "name": "E5",
          "ticks": 14680,
          "time": 170.69767441860466,
          "velocity": 0.11811023622047244
        },
        {
          "duration": 0.023255813953483084,
          "durationTicks": 2,
          "midi": 57,
          "name": "A3",
          "ticks": 14685,
          "time": 170.75581395348837,
          "velocity": 0.2992125984251969
        },
        {
          "duration": 0.04651162790699459,
          "durationTicks": 4,
          "midi": 57,
          "name": "A3",
          "ticks": 14688,
          "time": 170.7906976744186,
          "velocity": 0.2992125984251969
        },
        {
          "duration": 0.30232558139533694,
          "durationTicks": 26,
          "midi": 55,
          "name": "G3",
          "ticks": 14693,
          "time": 170.84883720930233,
          "velocity": 0.3228346456692913
        },
        {
          "duration": 0.04651162790696617,
          "durationTicks": 4,
          "midi": 64,
          "name": "E4",
          "ticks": 14693,
          "time": 170.84883720930233,
          "velocity": 0.09448818897637795
        },
        {
          "duration": 0.05813953488370771,
          "durationTicks": 5,
          "midi": 43,
          "name": "G2",
          "ticks": 14695,
          "time": 170.87209302325581,
          "velocity": 0.08661417322834646
        },
        {
          "duration": 0.06976744186047767,
          "durationTicks": 6,
          "midi": 74,
          "name": "D5",
          "ticks": 14697,
          "time": 170.8953488372093,
          "velocity": 0.1889763779527559
        },
        {
          "duration": 0.05813953488370771,
          "durationTicks": 5,
          "midi": 74,
          "name": "D5",
          "ticks": 14706,
          "time": 171,
          "velocity": 0.14173228346456693
        },
        {
          "duration": 0.04651162790696617,
          "durationTicks": 4,
          "midi": 74,
          "name": "D5",
          "ticks": 14714,
          "time": 171.09302325581396,
          "velocity": 0.11023622047244094
        },
        {
          "duration": 0.023255813953511506,
          "durationTicks": 2,
          "midi": 56,
          "name": "G#3",
          "ticks": 14721,
          "time": 171.17441860465115,
          "velocity": 0.25196850393700787
        },
        {
          "duration": 0.20930232558137618,
          "durationTicks": 18,
          "midi": 59,
          "name": "B3",
          "ticks": 14724,
          "time": 171.2093023255814,
          "velocity": 0.14173228346456693
        },
        {
          "duration": 0.16279069767443843,
          "durationTicks": 14,
          "midi": 64,
          "name": "E4",
          "ticks": 14730,
          "time": 171.27906976744185,
          "velocity": 0.14960629921259844
        },
        {
          "duration": 0.1511627906976969,
          "durationTicks": 13,
          "midi": 52,
          "name": "E3",
          "ticks": 14731,
          "time": 171.2906976744186,
          "velocity": 0.2677165354330709
        },
        {
          "duration": 0.0813953488371908,
          "durationTicks": 7,
          "midi": 52,
          "name": "E3",
          "ticks": 14746,
          "time": 171.46511627906978,
          "velocity": 0.2047244094488189
        },
        {
          "duration": 0.023255813953483084,
          "durationTicks": 2,
          "midi": 57,
          "name": "A3",
          "ticks": 14748,
          "time": 171.48837209302326,
          "velocity": 0.2283464566929134
        },
        {
          "duration": 0.034883720930224626,
          "durationTicks": 3,
          "midi": 57,
          "name": "A3",
          "ticks": 14751,
          "time": 171.52325581395348,
          "velocity": 0.2677165354330709
        },
        {
          "duration": 0.05813953488370771,
          "durationTicks": 5,
          "midi": 59,
          "name": "B3",
          "ticks": 14755,
          "time": 171.56976744186048,
          "velocity": 0.1968503937007874
        },
        {
          "duration": 0.06976744186044925,
          "durationTicks": 6,
          "midi": 44,
          "name": "G#2",
          "ticks": 14767,
          "time": 171.7093023255814,
          "velocity": 0.18110236220472442
        },
        {
          "duration": 0.24418604651162923,
          "durationTicks": 21,
          "midi": 64,
          "name": "E4",
          "ticks": 14767,
          "time": 171.7093023255814,
          "velocity": 0.14173228346456693
        },
        {
          "duration": 0.22093023255814614,
          "durationTicks": 19,
          "midi": 57,
          "name": "A3",
          "ticks": 14768,
          "time": 171.72093023255815,
          "velocity": 0.3937007874015748
        },
        {
          "duration": 0.12790697674418539,
          "durationTicks": 11,
          "midi": 76,
          "name": "E5",
          "ticks": 14768,
          "time": 171.72093023255815,
          "velocity": 0.14960629921259844
        },
        {
          "duration": 0.034883720930224626,
          "durationTicks": 3,
          "midi": 73,
          "name": "C#5",
          "ticks": 14769,
          "time": 171.7325581395349,
          "velocity": 0.07086614173228346
        },
        {
          "duration": 0.12790697674418539,
          "durationTicks": 11,
          "midi": 89,
          "name": "F6",
          "ticks": 14769,
          "time": 171.7325581395349,
          "velocity": 0.15748031496062992
        },
        {
          "duration": 0.2325581395348877,
          "durationTicks": 20,
          "midi": 52,
          "name": "E3",
          "ticks": 14774,
          "time": 171.7906976744186,
          "velocity": 0.12598425196850394
        },
        {
          "duration": 0.04651162790696617,
          "durationTicks": 4,
          "midi": 44,
          "name": "G#2",
          "ticks": 14776,
          "time": 171.8139534883721,
          "velocity": 0.13385826771653545
        },
        {
          "duration": 0.1046511627907023,
          "durationTicks": 9,
          "midi": 61,
          "name": "C#4",
          "ticks": 14781,
          "time": 171.87209302325581,
          "velocity": 0.08661417322834646
        },
        {
          "duration": 0.034883720930224626,
          "durationTicks": 3,
          "midi": 45,
          "name": "A2",
          "ticks": 14791,
          "time": 171.98837209302326,
          "velocity": 0.07086614173228346
        },
        {
          "duration": 0.2325581395348877,
          "durationTicks": 20,
          "midi": 76,
          "name": "E5",
          "ticks": 14793,
          "time": 172.01162790697674,
          "velocity": 0.11811023622047244
        },
        {
          "duration": 0.2906976744186238,
          "durationTicks": 25,
          "midi": 62,
          "name": "D4",
          "ticks": 14795,
          "time": 172.03488372093022,
          "velocity": 0.2047244094488189
        },
        {
          "duration": 0.11627906976741542,
          "durationTicks": 10,
          "midi": 57,
          "name": "A3",
          "ticks": 14798,
          "time": 172.06976744186048,
          "velocity": 0.2125984251968504
        },
        {
          "duration": 0.04651162790696617,
          "durationTicks": 4,
          "midi": 52,
          "name": "E3",
          "ticks": 14799,
          "time": 172.08139534883722,
          "velocity": 0.09448818897637795
        },
        {
          "duration": 0.17441860465117998,
          "durationTicks": 15,
          "midi": 52,
          "name": "E3",
          "ticks": 14807,
          "time": 172.17441860465115,
          "velocity": 0.1732283464566929
        },
        {
          "duration": 0.06976744186044925,
          "durationTicks": 6,
          "midi": 57,
          "name": "A3",
          "ticks": 14809,
          "time": 172.19767441860466,
          "velocity": 0.11023622047244094
        },
        {
          "duration": 0.023255813953483084,
          "durationTicks": 2,
          "midi": 56,
          "name": "G#3",
          "ticks": 14822,
          "time": 172.34883720930233,
          "velocity": 0.3779527559055118
        },
        {
          "duration": 0.13953488372092693,
          "durationTicks": 12,
          "midi": 61,
          "name": "C#4",
          "ticks": 14822,
          "time": 172.34883720930233,
          "velocity": 0.16535433070866143
        },
        {
          "duration": 0.12790697674418539,
          "durationTicks": 11,
          "midi": 76,
          "name": "E5",
          "ticks": 14822,
          "time": 172.34883720930233,
          "velocity": 0.13385826771653545
        },
        {
          "duration": 0.08139534883721922,
          "durationTicks": 7,
          "midi": 89,
          "name": "F6",
          "ticks": 14823,
          "time": 172.36046511627907,
          "velocity": 0.13385826771653545
        },
        {
          "duration": 0.12790697674418539,
          "durationTicks": 11,
          "midi": 57,
          "name": "A3",
          "ticks": 14824,
          "time": 172.37209302325581,
          "velocity": 0.31496062992125984
        },
        {
          "duration": 0.034883720930224626,
          "durationTicks": 3,
          "midi": 52,
          "name": "E3",
          "ticks": 14832,
          "time": 172.46511627906978,
          "velocity": 0.07874015748031496
        },
        {
          "duration": 0.023255813953483084,
          "durationTicks": 2,
          "midi": 58,
          "name": "A#3",
          "ticks": 14849,
          "time": 172.6627906976744,
          "velocity": 0.3700787401574803
        },
        {
          "duration": 0.3139534883721069,
          "durationTicks": 27,
          "midi": 66,
          "name": "F#4",
          "ticks": 14849,
          "time": 172.6627906976744,
          "velocity": 0.16535433070866143
        },
        {
          "duration": 0.04651162790699459,
          "durationTicks": 4,
          "midi": 71,
          "name": "B4",
          "ticks": 14849,
          "time": 172.6627906976744,
          "velocity": 0.13385826771653545
        },
        {
          "duration": 0.3720930232558146,
          "durationTicks": 32,
          "midi": 59,
          "name": "B3",
          "ticks": 14851,
          "time": 172.6860465116279,
          "velocity": 0.3228346456692913
        },
        {
          "duration": 0.16279069767441,
          "durationTicks": 14,
          "midi": 54,
          "name": "F#3",
          "ticks": 14855,
          "time": 172.7325581395349,
          "velocity": 0.2283464566929134
        },
        {
          "duration": 0.05813953488370771,
          "durationTicks": 5,
          "midi": 47,
          "name": "B2",
          "ticks": 14864,
          "time": 172.8372093023256,
          "velocity": 0.07874015748031496
        },
        {
          "duration": 0.03488372093025305,
          "durationTicks": 3,
          "midi": 55,
          "name": "G3",
          "ticks": 14872,
          "time": 172.93023255813952,
          "velocity": 0.07874015748031496
        },
        {
          "duration": 0.2906976744185954,
          "durationTicks": 25,
          "midi": 59,
          "name": "B3",
          "ticks": 14888,
          "time": 173.11627906976744,
          "velocity": 0.2283464566929134
        },
        {
          "duration": 0.11627906976744384,
          "durationTicks": 10,
          "midi": 54,
          "name": "F#3",
          "ticks": 14904,
          "time": 173.30232558139534,
          "velocity": 0.18110236220472442
        },
        {
          "duration": 0.09302325581393234,
          "durationTicks": 8,
          "midi": 54,
          "name": "F#3",
          "ticks": 14917,
          "time": 173.45348837209303,
          "velocity": 0.10236220472440945
        },
        {
          "duration": 0.2906976744185954,
          "durationTicks": 25,
          "midi": 66,
          "name": "F#4",
          "ticks": 14928,
          "time": 173.58139534883722,
          "velocity": 0.1732283464566929
        },
        {
          "duration": 0.16279069767441,
          "durationTicks": 14,
          "midi": 90,
          "name": "F#6",
          "ticks": 14928,
          "time": 173.58139534883722,
          "velocity": 0.1968503937007874
        },
        {
          "duration": 0.3953488372092977,
          "durationTicks": 34,
          "midi": 71,
          "name": "B4",
          "ticks": 14929,
          "time": 173.59302325581396,
          "velocity": 0.1889763779527559
        },
        {
          "duration": 0.1046511627907023,
          "durationTicks": 9,
          "midi": 85,
          "name": "C#6",
          "ticks": 14929,
          "time": 173.59302325581396,
          "velocity": 0.14173228346456693
        },
        {
          "duration": 0.1046511627907023,
          "durationTicks": 9,
          "midi": 94,
          "name": "A#6",
          "ticks": 14929,
          "time": 173.59302325581396,
          "velocity": 0.10236220472440945
        },
        {
          "duration": 0.33720930232559,
          "durationTicks": 29,
          "midi": 47,
          "name": "B2",
          "ticks": 14941,
          "time": 173.7325581395349,
          "velocity": 0.08661417322834646
        },
        {
          "duration": 0.2674418604651123,
          "durationTicks": 23,
          "midi": 59,
          "name": "B3",
          "ticks": 14946,
          "time": 173.7906976744186,
          "velocity": 0.2440944881889764
        },
        {
          "duration": 0.03488372093025305,
          "durationTicks": 3,
          "midi": 55,
          "name": "G3",
          "ticks": 14957,
          "time": 173.91860465116278,
          "velocity": 0.12598425196850394
        },
        {
          "duration": 0.03488372093025305,
          "durationTicks": 3,
          "midi": 57,
          "name": "A3",
          "ticks": 14969,
          "time": 174.0581395348837,
          "velocity": 0.2047244094488189
        },
        {
          "duration": 0.03488372093025305,
          "durationTicks": 3,
          "midi": 59,
          "name": "B3",
          "ticks": 14978,
          "time": 174.1627906976744,
          "velocity": 0.25196850393700787
        },
        {
          "duration": 0.023255813953483084,
          "durationTicks": 2,
          "midi": 55,
          "name": "G3",
          "ticks": 14981,
          "time": 174.19767441860466,
          "velocity": 0.2755905511811024
        },
        {
          "duration": 0.2906976744185954,
          "durationTicks": 25,
          "midi": 59,
          "name": "B3",
          "ticks": 14982,
          "time": 174.2093023255814,
          "velocity": 0.23622047244094488
        },
        {
          "duration": 0.30232558139533694,
          "durationTicks": 26,
          "midi": 54,
          "name": "F#3",
          "ticks": 14983,
          "time": 174.22093023255815,
          "velocity": 0.25196850393700787
        },
        {
          "duration": 0.034883720930224626,
          "durationTicks": 3,
          "midi": 48,
          "name": "C3",
          "ticks": 15008,
          "time": 174.51162790697674,
          "velocity": 0.14173228346456693
        },
        {
          "duration": 0.3953488372092977,
          "durationTicks": 34,
          "midi": 71,
          "name": "B4",
          "ticks": 15009,
          "time": 174.52325581395348,
          "velocity": 0.12598425196850394
        },
        {
          "duration": 0.09302325581396076,
          "durationTicks": 8,
          "midi": 85,
          "name": "C#6",
          "ticks": 15009,
          "time": 174.52325581395348,
          "velocity": 0.10236220472440945
        },
        {
          "duration": 0.17441860465117998,
          "durationTicks": 15,
          "midi": 90,
          "name": "F#6",
          "ticks": 15009,
          "time": 174.52325581395348,
          "velocity": 0.2047244094488189
        },
        {
          "duration": 0.4186046511628092,
          "durationTicks": 36,
          "midi": 59,
          "name": "B3",
          "ticks": 15010,
          "time": 174.53488372093022,
          "velocity": 0.23622047244094488
        },
        {
          "duration": 0.40697674418606766,
          "durationTicks": 35,
          "midi": 47,
          "name": "B2",
          "ticks": 15012,
          "time": 174.5581395348837,
          "velocity": 0.09448818897637795
        },
        {
          "duration": 0.19767441860463464,
          "durationTicks": 17,
          "midi": 54,
          "name": "F#3",
          "ticks": 15013,
          "time": 174.56976744186048,
          "velocity": 0.10236220472440945
        },
        {
          "duration": 0.11627906976744384,
          "durationTicks": 10,
          "midi": 59,
          "name": "B3",
          "ticks": 15050,
          "time": 175,
          "velocity": 0.16535433070866143
        },
        {
          "duration": 0.034883720930224626,
          "durationTicks": 3,
          "midi": 55,
          "name": "G3",
          "ticks": 15060,
          "time": 175.11627906976744,
          "velocity": 0.3228346456692913
        },
        {
          "duration": 0.24418604651162923,
          "durationTicks": 21,
          "midi": 71,
          "name": "B4",
          "ticks": 15060,
          "time": 175.11627906976744,
          "velocity": 0.15748031496062992
        },
        {
          "duration": 0.1046511627907023,
          "durationTicks": 9,
          "midi": 59,
          "name": "B3",
          "ticks": 15062,
          "time": 175.13953488372093,
          "velocity": 0.14960629921259844
        },
        {
          "duration": 0.27906976744185386,
          "durationTicks": 24,
          "midi": 54,
          "name": "F#3",
          "ticks": 15063,
          "time": 175.15116279069767,
          "velocity": 0.2204724409448819
        },
        {
          "duration": 0.3139534883721069,
          "durationTicks": 27,
          "midi": 90,
          "name": "F#6",
          "ticks": 15087,
          "time": 175.43023255813952,
          "velocity": 0.1889763779527559
        },
        {
          "duration": 0.7906976744185954,
          "durationTicks": 68,
          "midi": 66,
          "name": "F#4",
          "ticks": 15088,
          "time": 175.4418604651163,
          "velocity": 0.2283464566929134
        },
        {
          "duration": 0.05813953488370771,
          "durationTicks": 5,
          "midi": 85,
          "name": "C#6",
          "ticks": 15089,
          "time": 175.45348837209303,
          "velocity": 0.07086614173228346
        },
        {
          "duration": 0.4302325581395223,
          "durationTicks": 37,
          "midi": 54,
          "name": "F#3",
          "ticks": 15092,
          "time": 175.48837209302326,
          "velocity": 0.14960629921259844
        },
        {
          "duration": 0.034883720930224626,
          "durationTicks": 3,
          "midi": 59,
          "name": "B3",
          "ticks": 15132,
          "time": 175.95348837209303,
          "velocity": 0.08661417322834646
        },
        {
          "duration": 0.023255813953483084,
          "durationTicks": 2,
          "midi": 58,
          "name": "A#3",
          "ticks": 15142,
          "time": 176.06976744186048,
          "velocity": 0.25196850393700787
        },
        {
          "duration": 0.11627906976744384,
          "durationTicks": 10,
          "midi": 59,
          "name": "B3",
          "ticks": 15145,
          "time": 176.1046511627907,
          "velocity": 0.1889763779527559
        },
        {
          "duration": 0.034883720930224626,
          "durationTicks": 3,
          "midi": 55,
          "name": "G3",
          "ticks": 15155,
          "time": 176.22093023255815,
          "velocity": 0.30708661417322836
        },
        {
          "duration": 0.11627906976744384,
          "durationTicks": 10,
          "midi": 59,
          "name": "B3",
          "ticks": 15156,
          "time": 176.2325581395349,
          "velocity": 0.25984251968503935
        },
        {
          "duration": 0.08139534883721922,
          "durationTicks": 7,
          "midi": 54,
          "name": "F#3",
          "ticks": 15160,
          "time": 176.27906976744185,
          "velocity": 0.3228346456692913
        },
        {
          "duration": 0.05813953488370771,
          "durationTicks": 5,
          "midi": 94,
          "name": "A#6",
          "ticks": 15167,
          "time": 176.36046511627907,
          "velocity": 0.07086614173228346
        },
        {
          "duration": 0.15116279069766847,
          "durationTicks": 13,
          "midi": 59,
          "name": "B3",
          "ticks": 15168,
          "time": 176.37209302325581,
          "velocity": 0.33070866141732286
        },
        {
          "duration": 0.11627906976744384,
          "durationTicks": 10,
          "midi": 90,
          "name": "F#6",
          "ticks": 15169,
          "time": 176.38372093023256,
          "velocity": 0.16535433070866143
        },
        {
          "duration": 0.12790697674418539,
          "durationTicks": 11,
          "midi": 54,
          "name": "F#3",
          "ticks": 15170,
          "time": 176.3953488372093,
          "velocity": 0.36220472440944884
        },
        {
          "duration": 0.1860465116278931,
          "durationTicks": 16,
          "midi": 54,
          "name": "F#3",
          "ticks": 15186,
          "time": 176.58139534883722,
          "velocity": 0.2204724409448819
        },
        {
          "duration": 0.0813953488371908,
          "durationTicks": 7,
          "midi": 54,
          "name": "F#3",
          "ticks": 15209,
          "time": 176.84883720930233,
          "velocity": 0.10236220472440945
        },
        {
          "duration": 0.24418604651162923,
          "durationTicks": 21,
          "midi": 59,
          "name": "B3",
          "ticks": 15226,
          "time": 177.04651162790697,
          "velocity": 0.23622047244094488
        },
        {
          "duration": 0.023255813953483084,
          "durationTicks": 2,
          "midi": 57,
          "name": "A3",
          "ticks": 15251,
          "time": 177.3372093023256,
          "velocity": 0.3543307086614173
        },
        {
          "duration": 0.1046511627907023,
          "durationTicks": 9,
          "midi": 66,
          "name": "F#4",
          "ticks": 15252,
          "time": 177.34883720930233,
          "velocity": 0.11811023622047244
        },
        {
          "duration": 0.3139534883720785,
          "durationTicks": 27,
          "midi": 71,
          "name": "B4",
          "ticks": 15252,
          "time": 177.34883720930233,
          "velocity": 0.13385826771653545
        },
        {
          "duration": 0.1860465116278931,
          "durationTicks": 16,
          "midi": 85,
          "name": "C#6",
          "ticks": 15252,
          "time": 177.34883720930233,
          "velocity": 0.09448818897637795
        },
        {
          "duration": 0.4186046511627808,
          "durationTicks": 36,
          "midi": 59,
          "name": "B3",
          "ticks": 15253,
          "time": 177.36046511627907,
          "velocity": 0.25984251968503935
        },
        {
          "duration": 0.0813953488371908,
          "durationTicks": 7,
          "midi": 90,
          "name": "F#6",
          "ticks": 15260,
          "time": 177.4418604651163,
          "velocity": 0.07874015748031496
        },
        {
          "duration": 0.11627906976744384,
          "durationTicks": 10,
          "midi": 59,
          "name": "B3",
          "ticks": 15290,
          "time": 177.7906976744186,
          "velocity": 0.1889763779527559
        },
        {
          "duration": 0.2906976744186238,
          "durationTicks": 25,
          "midi": 59,
          "name": "B3",
          "ticks": 15301,
          "time": 177.91860465116278,
          "velocity": 0.29133858267716534
        },
        {
          "duration": 0.22093023255814614,
          "durationTicks": 19,
          "midi": 66,
          "name": "F#4",
          "ticks": 15302,
          "time": 177.93023255813952,
          "velocity": 0.11023622047244094
        },
        {
          "duration": 0.023255813953483084,
          "durationTicks": 2,
          "midi": 55,
          "name": "G3",
          "ticks": 15303,
          "time": 177.9418604651163,
          "velocity": 0.28346456692913385
        },
        {
          "duration": 0.25581395348837077,
          "durationTicks": 22,
          "midi": 54,
          "name": "F#3",
          "ticks": 15305,
          "time": 177.96511627906978,
          "velocity": 0.1968503937007874
        },
        {
          "duration": 0.3139534883720785,
          "durationTicks": 27,
          "midi": 66,
          "name": "F#4",
          "ticks": 15329,
          "time": 178.24418604651163,
          "velocity": 0.2283464566929134
        },
        {
          "duration": 0.04651162790699459,
          "durationTicks": 4,
          "midi": 71,
          "name": "B4",
          "ticks": 15331,
          "time": 178.2674418604651,
          "velocity": 0.11811023622047244
        },
        {
          "duration": 0.17441860465117998,
          "durationTicks": 15,
          "midi": 90,
          "name": "F#6",
          "ticks": 15331,
          "time": 178.2674418604651,
          "velocity": 0.11023622047244094
        },
        {
          "duration": 0.25581395348837077,
          "durationTicks": 22,
          "midi": 54,
          "name": "F#3",
          "ticks": 15332,
          "time": 178.27906976744185,
          "velocity": 0.14173228346456693
        },
        {
          "duration": 0.04651162790699459,
          "durationTicks": 4,
          "midi": 59,
          "name": "B3",
          "ticks": 15364,
          "time": 178.65116279069767,
          "velocity": 0.1889763779527559
        },
        {
          "duration": 0.38372093023255616,
          "durationTicks": 33,
          "midi": 59,
          "name": "B3",
          "ticks": 15370,
          "time": 178.72093023255815,
          "velocity": 0.30708661417322836
        },
        {
          "duration": 0.2325581395348877,
          "durationTicks": 20,
          "midi": 54,
          "name": "F#3",
          "ticks": 15384,
          "time": 178.88372093023256,
          "velocity": 0.18110236220472442
        },
        {
          "duration": 0.034883720930224626,
          "durationTicks": 3,
          "midi": 48,
          "name": "C3",
          "ticks": 15407,
          "time": 179.15116279069767,
          "velocity": 0.13385826771653545
        },
        {
          "duration": 0.43023255813955075,
          "durationTicks": 37,
          "midi": 71,
          "name": "B4",
          "ticks": 15408,
          "time": 179.1627906976744,
          "velocity": 0.14960629921259844
        },
        {
          "duration": 0.2674418604651123,
          "durationTicks": 23,
          "midi": 90,
          "name": "F#6",
          "ticks": 15408,
          "time": 179.1627906976744,
          "velocity": 0.13385826771653545
        },
        {
          "duration": 0.45348837209303383,
          "durationTicks": 39,
          "midi": 59,
          "name": "B3",
          "ticks": 15409,
          "time": 179.17441860465115,
          "velocity": 0.2440944881889764
        },
        {
          "duration": 0.3604651162790731,
          "durationTicks": 31,
          "midi": 47,
          "name": "B2",
          "ticks": 15413,
          "time": 179.22093023255815,
          "velocity": 0.07086614173228346
        },
        {
          "duration": 0.18604651162792152,
          "durationTicks": 16,
          "midi": 54,
          "name": "F#3",
          "ticks": 15416,
          "time": 179.25581395348837,
          "velocity": 0.11023622047244094
        },
        {
          "duration": 0.12790697674418539,
          "durationTicks": 11,
          "midi": 54,
          "name": "F#3",
          "ticks": 15433,
          "time": 179.45348837209303,
          "velocity": 0.08661417322834646
        },
        {
          "duration": 0.11627906976744384,
          "durationTicks": 10,
          "midi": 71,
          "name": "B4",
          "ticks": 15449,
          "time": 179.63953488372093,
          "velocity": 0.07874015748031496
        },
        {
          "duration": 0.04651162790696617,
          "durationTicks": 4,
          "midi": 59,
          "name": "B3",
          "ticks": 15459,
          "time": 179.75581395348837,
          "velocity": 0.11811023622047244
        },
        {
          "duration": 0.023255813953511506,
          "durationTicks": 2,
          "midi": 55,
          "name": "G3",
          "ticks": 15473,
          "time": 179.91860465116278,
          "velocity": 0.2677165354330709
        },
        {
          "duration": 0.11627906976744384,
          "durationTicks": 10,
          "midi": 59,
          "name": "B3",
          "ticks": 15474,
          "time": 179.93023255813952,
          "velocity": 0.1968503937007874
        },
        {
          "duration": 0.09302325581393234,
          "durationTicks": 8,
          "midi": 54,
          "name": "F#3",
          "ticks": 15475,
          "time": 179.9418604651163,
          "velocity": 0.25196850393700787
        },
        {
          "duration": 0.023255813953511506,
          "durationTicks": 2,
          "midi": 57,
          "name": "A3",
          "ticks": 15485,
          "time": 180.0581395348837,
          "velocity": 0.4330708661417323
        },
        {
          "duration": 0.30232558139536536,
          "durationTicks": 26,
          "midi": 66,
          "name": "F#4",
          "ticks": 15485,
          "time": 180.0581395348837,
          "velocity": 0.2204724409448819
        },
        {
          "duration": 0.034883720930224626,
          "durationTicks": 3,
          "midi": 71,
          "name": "B4",
          "ticks": 15486,
          "time": 180.06976744186048,
          "velocity": 0.13385826771653545
        },
        {
          "duration": 0.023255813953483084,
          "durationTicks": 2,
          "midi": 55,
          "name": "G3",
          "ticks": 15488,
          "time": 180.09302325581396,
          "velocity": 0.33070866141732286
        },
        {
          "duration": 0.1860465116278931,
          "durationTicks": 16,
          "midi": 59,
          "name": "B3",
          "ticks": 15489,
          "time": 180.1046511627907,
          "velocity": 0.2440944881889764
        },
        {
          "duration": 0.05813953488370771,
          "durationTicks": 5,
          "midi": 54,
          "name": "F#3",
          "ticks": 15490,
          "time": 180.11627906976744,
          "velocity": 0.2047244094488189
        },
        {
          "duration": 0.3837209302325846,
          "durationTicks": 33,
          "midi": 54,
          "name": "F#3",
          "ticks": 15496,
          "time": 180.1860465116279,
          "velocity": 0.25196850393700787
        },
        {
          "duration": 0.15116279069766847,
          "durationTicks": 13,
          "midi": 90,
          "name": "F#6",
          "ticks": 15498,
          "time": 180.2093023255814,
          "velocity": 0.09448818897637795
        },
        {
          "duration": 0.3139534883721069,
          "durationTicks": 27,
          "midi": 59,
          "name": "B3",
          "ticks": 15506,
          "time": 180.30232558139534,
          "velocity": 0.18110236220472442
        },
        {
          "duration": 0.44186046511626387,
          "durationTicks": 38,
          "midi": 54,
          "name": "F#3",
          "ticks": 15530,
          "time": 180.58139534883722,
          "velocity": 0.2283464566929134
        },
        {
          "duration": 0.04651162790699459,
          "durationTicks": 4,
          "midi": 71,
          "name": "B4",
          "ticks": 15581,
          "time": 181.17441860465115,
          "velocity": 0.10236220472440945
        },
        {
          "duration": 0.5697674418604777,
          "durationTicks": 49,
          "midi": 59,
          "name": "B3",
          "ticks": 15582,
          "time": 181.1860465116279,
          "velocity": 0.28346456692913385
        },
        {
          "duration": 0.6279069767441854,
          "durationTicks": 54,
          "midi": 61,
          "name": "C#4",
          "ticks": 15664,
          "time": 182.13953488372093,
          "velocity": 0.23622047244094488
        },
        {
          "duration": 0.2093023255814046,
          "durationTicks": 18,
          "midi": 89,
          "name": "F6",
          "ticks": 15664,
          "time": 182.13953488372093,
          "velocity": 0.18110236220472442
        },
        {
          "duration": 0.27906976744185386,
          "durationTicks": 24,
          "midi": 54,
          "name": "F#3",
          "ticks": 15694,
          "time": 182.48837209302326,
          "velocity": 0.11023622047244094
        },
        {
          "duration": 0.33720930232559,
          "durationTicks": 29,
          "midi": 59,
          "name": "B3",
          "ticks": 15718,
          "time": 182.7674418604651,
          "velocity": 0.23622047244094488
        },
        {
          "duration": 0.6860465116278931,
          "durationTicks": 59,
          "midi": 62,
          "name": "D4",
          "ticks": 15747,
          "time": 183.1046511627907,
          "velocity": 0.2283464566929134
        },
        {
          "duration": 0.04651162790699459,
          "durationTicks": 4,
          "midi": 59,
          "name": "B3",
          "ticks": 15784,
          "time": 183.53488372093022,
          "velocity": 0.09448818897637795
        },
        {
          "duration": 0.33720930232556157,
          "durationTicks": 29,
          "midi": 54,
          "name": "F#3",
          "ticks": 15809,
          "time": 183.82558139534885,
          "velocity": 0.11023622047244094
        },
        {
          "duration": 0.2906976744186238,
          "durationTicks": 25,
          "midi": 66,
          "name": "F#4",
          "ticks": 15838,
          "time": 184.1627906976744,
          "velocity": 0.16535433070866143
        },
        {
          "duration": 0.19767441860466306,
          "durationTicks": 17,
          "midi": 57,
          "name": "A3",
          "ticks": 15839,
          "time": 184.17441860465115,
          "velocity": 0.29133858267716534
        },
        {
          "duration": 0.03488372093025305,
          "durationTicks": 3,
          "midi": 57,
          "name": "A3",
          "ticks": 15860,
          "time": 184.41860465116278,
          "velocity": 0.08661417322834646
        },
        {
          "duration": 0.0813953488371908,
          "durationTicks": 7,
          "midi": 54,
          "name": "F#3",
          "ticks": 15874,
          "time": 184.58139534883722,
          "velocity": 0.08661417322834646
        },
        {
          "duration": 0.06976744186047767,
          "durationTicks": 6,
          "midi": 57,
          "name": "A3",
          "ticks": 15923,
          "time": 185.15116279069767,
          "velocity": 0.07874015748031496
        },
        {
          "duration": 0.12790697674418539,
          "durationTicks": 11,
          "midi": 57,
          "name": "A3",
          "ticks": 15934,
          "time": 185.27906976744185,
          "velocity": 0.14960629921259844
        },
        {
          "duration": 0.12790697674418539,
          "durationTicks": 11,
          "midi": 55,
          "name": "G3",
          "ticks": 15951,
          "time": 185.47674418604652,
          "velocity": 0.16535433070866143
        },
        {
          "duration": 0.1860465116278931,
          "durationTicks": 16,
          "midi": 43,
          "name": "G2",
          "ticks": 15952,
          "time": 185.48837209302326,
          "velocity": 0.2047244094488189
        },
        {
          "duration": 0.11627906976744384,
          "durationTicks": 10,
          "midi": 43,
          "name": "G2",
          "ticks": 15977,
          "time": 185.77906976744185,
          "velocity": 0.07874015748031496
        },
        {
          "duration": 0.09302325581393234,
          "durationTicks": 8,
          "midi": 55,
          "name": "G3",
          "ticks": 15980,
          "time": 185.8139534883721,
          "velocity": 0.2283464566929134
        },
        {
          "duration": 0.4418604651162923,
          "durationTicks": 38,
          "midi": 59,
          "name": "B3",
          "ticks": 15990,
          "time": 185.93023255813952,
          "velocity": 0.14173228346456693
        },
        {
          "duration": 0.11627906976744384,
          "durationTicks": 10,
          "midi": 71,
          "name": "B4",
          "ticks": 16001,
          "time": 186.0581395348837,
          "velocity": 0.16535433070866143
        },
        {
          "duration": 0.2906976744185954,
          "durationTicks": 25,
          "midi": 66,
          "name": "F#4",
          "ticks": 16402,
          "time": 190.72093023255815,
          "velocity": 0.12598425196850394
        },
        {
          "duration": 0.09302325581396076,
          "durationTicks": 8,
          "midi": 56,
          "name": "G#3",
          "ticks": 16559,
          "time": 192.54651162790697,
          "velocity": 0.2204724409448819
        }
      ],
      "endOfTrackTicks": 16567
    }
  ]
}