{
  "header": {
    "keySignatures": [],
    "meta": [],
    "name": "",
    "ppq": 43,
    "tempos": [
      {
        "bpm": 120,
        "ticks": 0
      }
    ],
    "timeSignatures": []
  },
  "tracks": [
    {
      "channel": 0,
      "controlChanges": {},
      "pitchBends": [],
      "instrument": {
        "family": "piano",
        "number": 0,
        "name": "acoustic grand piano"
      },
      "name": "",
      "notes": [
        {
          "duration": 0.27906976744186046,
          "durationTicks": 24,
          "midi": 51,
          "name": "D#3",
          "ticks": 0,
          "time": 0,
          "velocity": 0.2125984251968504
        },
        {
          "duration": 0.16279069767441856,
          "durationTicks": 14,
          "midi": 51,
          "name": "D#3",
          "ticks": 45,
          "time": 0.5232558139534884,
          "velocity": 0.14173228346456693
        },
        {
          "duration": 0.8837209302325582,
          "durationTicks": 76,
          "midi": 58,
          "name": "A#3",
          "ticks": 64,
          "time": 0.7441860465116279,
          "velocity": 0.2440944881889764
        },
        {
          "duration": 0.33720930232558133,
          "durationTicks": 29,
          "midi": 51,
          "name": "D#3",
          "ticks": 91,
          "time": 1.058139534883721,
          "velocity": 0.23622047244094488
        },
        {
          "duration": 0.3139534883720929,
          "durationTicks": 27,
          "midi": 51,
          "name": "D#3",
          "ticks": 141,
          "time": 1.6395348837209303,
          "velocity": 0.28346456692913385
        },
        {
          "duration": 1.2906976744186047,
          "durationTicks": 111,
          "midi": 58,
          "name": "A#3",
          "ticks": 169,
          "time": 1.9651162790697674,
          "velocity": 0.29133858267716534
        },
        {
          "duration": 0.08139534883720945,
          "durationTicks": 7,
          "midi": 51,
          "name": "D#3",
          "ticks": 175,
          "time": 2.0348837209302326,
          "velocity": 0.09448818897637795
        },
        {
          "duration": 0.3139534883720927,
          "durationTicks": 27,
          "midi": 51,
          "name": "D#3",
          "ticks": 201,
          "time": 2.3372093023255816,
          "velocity": 0.25984251968503935
        },
        {
          "duration": 0.32558139534883734,
          "durationTicks": 28,
          "midi": 51,
          "name": "D#3",
          "ticks": 257,
          "time": 2.988372093023256,
          "velocity": 0.36220472440944884
        },
        {
          "duration": 0.39534883720930214,
          "durationTicks": 34,
          "midi": 58,
          "name": "A#3",
          "ticks": 284,
          "time": 3.302325581395349,
          "velocity": 0.28346456692913385
        },
        {
          "duration": 0.2558139534883721,
          "durationTicks": 22,
          "midi": 51,
          "name": "D#3",
          "ticks": 287,
          "time": 3.3372093023255816,
          "velocity": 0.3543307086614173
        },
        {
          "duration": 0.023255813953488413,
          "durationTicks": 2,
          "midi": 54,
          "name": "F#3",
          "ticks": 313,
          "time": 3.63953488372093,
          "velocity": 0.3228346456692913
        },
        {
          "duration": 0.023255813953488413,
          "durationTicks": 2,
          "midi": 51,
          "name": "D#3",
          "ticks": 316,
          "time": 3.6744186046511627,
          "velocity": 0.31496062992125984
        },
        {
          "duration": 0.023255813953488413,
          "durationTicks": 2,
          "midi": 54,
          "name": "F#3",
          "ticks": 316,
          "time": 3.6744186046511627,
          "velocity": 0.30708661417322836
        },
        {
          "duration": 0.023255813953488413,
          "durationTicks": 2,
          "midi": 51,
          "name": "D#3",
          "ticks": 319,
          "time": 3.7093023255813953,
          "velocity": 0.30708661417322836
        },
        {
          "duration": 0.023255813953488413,
          "durationTicks": 2,
          "midi": 54,
          "name": "F#3",
          "ticks": 319,
          "time": 3.7093023255813953,
          "velocity": 0.2755905511811024
        },
        {
          "duration": 0.08139534883720945,
          "durationTicks": 7,
          "midi": 54,
          "name": "F#3",
          "ticks": 325,
          "time": 3.7790697674418605,
          "velocity": 0.3228346456692913
        },
        {
          "duration": 0.06976744186046524,
          "durationTicks": 6,
          "midi": 58,
          "name": "A#3",
          "ticks": 325,
          "time": 3.7790697674418605,
          "velocity": 0.2204724409448819
        },
        {
          "duration": 0.0697674418604648,
          "durationTicks": 6,
          "midi": 54,
          "name": "F#3",
          "ticks": 333,
          "time": 3.872093023255814,
          "velocity": 0.31496062992125984
        },
        {
          "duration": 0.1511627906976747,
          "durationTicks": 13,
          "midi": 58,
          "name": "A#3",
          "ticks": 336,
          "time": 3.9069767441860463,
          "velocity": 0.23622047244094488
        },
        {
          "duration": 0.03488372093023262,
          "durationTicks": 3,
          "midi": 63,
          "name": "D#4",
          "ticks": 336,
          "time": 3.9069767441860463,
          "velocity": 0.09448818897637795
        },
        {
          "duration": 0.023255813953488413,
          "durationTicks": 2,
          "midi": 53,
          "name": "F3",
          "ticks": 343,
          "time": 3.988372093023256,
          "velocity": 0.3543307086614173
        },
        {
          "duration": 0.023255813953488413,
          "durationTicks": 2,
          "midi": 54,
          "name": "F#3",
          "ticks": 345,
          "time": 4.011627906976744,
          "velocity": 0.2677165354330709
        },
        {
          "duration": 0.1744186046511631,
          "durationTicks": 15,
          "midi": 54,
          "name": "F#3",
          "ticks": 348,
          "time": 4.046511627906977,
          "velocity": 0.28346456692913385
        },
        {
          "duration": 0.04651162790697683,
          "durationTicks": 4,
          "midi": 58,
          "name": "A#3",
          "ticks": 358,
          "time": 4.162790697674419,
          "velocity": 0.14173228346456693
        },
        {
          "duration": 0.04651162790697594,
          "durationTicks": 4,
          "midi": 58,
          "name": "A#3",
          "ticks": 363,
          "time": 4.22093023255814,
          "velocity": 0.14173228346456693
        },
        {
          "duration": 0.26744186046511587,
          "durationTicks": 23,
          "midi": 51,
          "name": "D#3",
          "ticks": 364,
          "time": 4.232558139534884,
          "velocity": 0.4015748031496063
        },
        {
          "duration": 0.10465116279069786,
          "durationTicks": 9,
          "midi": 75,
          "name": "D#5",
          "ticks": 368,
          "time": 4.27906976744186,
          "velocity": 0.11811023622047244
        },
        {
          "duration": 0.03488372093023262,
          "durationTicks": 3,
          "midi": 41,
          "name": "F2",
          "ticks": 369,
          "time": 4.290697674418604,
          "velocity": 0.11023622047244094
        },
        {
          "duration": 0.09302325581395365,
          "durationTicks": 8,
          "midi": 56,
          "name": "G#3",
          "ticks": 369,
          "time": 4.290697674418604,
          "velocity": 0.3543307086614173
        },
        {
          "duration": 0.04651162790697683,
          "durationTicks": 4,
          "midi": 57,
          "name": "A3",
          "ticks": 377,
          "time": 4.383720930232558,
          "velocity": 0.3779527559055118
        },
        {
          "duration": 0.13953488372093048,
          "durationTicks": 12,
          "midi": 58,
          "name": "A#3",
          "ticks": 381,
          "time": 4.430232558139535,
          "velocity": 0.33858267716535434
        },
        {
          "duration": 0.058139534883721034,
          "durationTicks": 5,
          "midi": 51,
          "name": "D#3",
          "ticks": 389,
          "time": 4.523255813953488,
          "velocity": 0.2204724409448819
        },
        {
          "duration": 0.3139534883720927,
          "durationTicks": 27,
          "midi": 58,
          "name": "A#3",
          "ticks": 397,
          "time": 4.616279069767442,
          "velocity": 0.4094488188976378
        },
        {
          "duration": 0.04651162790697683,
          "durationTicks": 4,
          "midi": 51,
          "name": "D#3",
          "ticks": 401,
          "time": 4.662790697674419,
          "velocity": 0.14173228346456693
        },
        {
          "duration": 0.058139534883721034,
          "durationTicks": 5,
          "midi": 49,
          "name": "C#3",
          "ticks": 418,
          "time": 4.8604651162790695,
          "velocity": 0.29133858267716534
        },
        {
          "duration": 0.19767441860465151,
          "durationTicks": 17,
          "midi": 68,
          "name": "G#4",
          "ticks": 424,
          "time": 4.930232558139535,
          "velocity": 0.10236220472440945
        },
        {
          "duration": 0.023255813953488413,
          "durationTicks": 2,
          "midi": 50,
          "name": "D3",
          "ticks": 425,
          "time": 4.941860465116279,
          "velocity": 0.30708661417322836
        },
        {
          "duration": 0.023255813953488413,
          "durationTicks": 2,
          "midi": 49,
          "name": "C#3",
          "ticks": 427,
          "time": 4.965116279069767,
          "velocity": 0.2440944881889764
        },
        {
          "duration": 0.023255813953488413,
          "durationTicks": 2,
          "midi": 57,
          "name": "A3",
          "ticks": 427,
          "time": 4.965116279069767,
          "velocity": 0.31496062992125984
        },
        {
          "duration": 0.1511627906976747,
          "durationTicks": 13,
          "midi": 49,
          "name": "C#3",
          "ticks": 430,
          "time": 5,
          "velocity": 0.25196850393700787
        },
        {
          "duration": 0.023255813953488413,
          "durationTicks": 2,
          "midi": 57,
          "name": "A3",
          "ticks": 431,
          "time": 5.011627906976744,
          "velocity": 0.31496062992125984
        },
        {
          "duration": 0.023255813953488413,
          "durationTicks": 2,
          "midi": 56,
          "name": "G#3",
          "ticks": 433,
          "time": 5.034883720930233,
          "velocity": 0.30708661417322836
        },
        {
          "duration": 0.023255813953488413,
          "durationTicks": 2,
          "midi": 57,
          "name": "A3",
          "ticks": 435,
          "time": 5.058139534883721,
          "velocity": 0.29133858267716534
        },
        {
          "duration": 0.39534883720930214,
          "durationTicks": 34,
          "midi": 56,
          "name": "G#3",
          "ticks": 436,
          "time": 5.069767441860465,
          "velocity": 0.3464566929133858
        },
        {
          "duration": 0.26744186046511587,
          "durationTicks": 23,
          "midi": 49,
          "name": "C#3",
          "ticks": 444,
          "time": 5.162790697674419,
          "velocity": 0.2440944881889764
        },
        {
          "duration": 0.023255813953488413,
          "durationTicks": 2,
          "midi": 53,
          "name": "F3",
          "ticks": 470,
          "time": 5.465116279069767,
          "velocity": 0.2992125984251969
        },
        {
          "duration": 0.03488372093023262,
          "durationTicks": 3,
          "midi": 49,
          "name": "C#3",
          "ticks": 471,
          "time": 5.476744186046512,
          "velocity": 0.1732283464566929
        },
        {
          "duration": 0.023255813953488413,
          "durationTicks": 2,
          "midi": 56,
          "name": "G#3",
          "ticks": 473,
          "time": 5.5,
          "velocity": 0.2283464566929134
        },
        {
          "duration": 0.04651162790697683,
          "durationTicks": 4,
          "midi": 56,
          "name": "G#3",
          "ticks": 479,
          "time": 5.569767441860465,
          "velocity": 0.1968503937007874
        },
        {
          "duration": 0.03488372093023262,
          "durationTicks": 3,
          "midi": 49,
          "name": "C#3",
          "ticks": 482,
          "time": 5.604651162790698,
          "velocity": 0.1889763779527559
        },
        {
          "duration": 0.03488372093023262,
          "durationTicks": 3,
          "midi": 49,
          "name": "C#3",
          "ticks": 489,
          "time": 5.686046511627907,
          "velocity": 0.1889763779527559
        },
        {
          "duration": 0.3139534883720927,
          "durationTicks": 27,
          "midi": 56,
          "name": "G#3",
          "ticks": 489,
          "time": 5.686046511627907,
          "velocity": 0.2677165354330709
        },
        {
          "duration": 0.06976744186046524,
          "durationTicks": 6,
          "midi": 49,
          "name": "C#3",
          "ticks": 500,
          "time": 5.813953488372093,
          "velocity": 0.13385826771653545
        },
        {
          "duration": 0.03488372093023262,
          "durationTicks": 3,
          "midi": 49,
          "name": "C#3",
          "ticks": 520,
          "time": 6.046511627906977,
          "velocity": 0.10236220472440945
        },
        {
          "duration": 0.03488372093023262,
          "durationTicks": 3,
          "midi": 56,
          "name": "G#3",
          "ticks": 520,
          "time": 6.046511627906977,
          "velocity": 0.07874015748031496
        },
        {
          "duration": 0.03488372093023262,
          "durationTicks": 3,
          "midi": 49,
          "name": "C#3",
          "ticks": 524,
          "time": 6.093023255813954,
          "velocity": 0.10236220472440945
        },
        {
          "duration": 0.12790697674418539,
          "durationTicks": 11,
          "midi": 49,
          "name": "C#3",
          "ticks": 531,
          "time": 6.174418604651163,
          "velocity": 0.09448818897637795
        },
        {
          "duration": 0.3837209302325588,
          "durationTicks": 33,
          "midi": 56,
          "name": "G#3",
          "ticks": 538,
          "time": 6.255813953488372,
          "velocity": 0.16535433070866143
        },
        {
          "duration": 0.19767441860465151,
          "durationTicks": 17,
          "midi": 49,
          "name": "C#3",
          "ticks": 548,
          "time": 6.372093023255814,
          "velocity": 0.08661417322834646
        },
        {
          "duration": 0.03488372093023262,
          "durationTicks": 3,
          "midi": 53,
          "name": "F3",
          "ticks": 573,
          "time": 6.662790697674419,
          "velocity": 0.23622047244094488
        },
        {
          "duration": 0.03488372093023262,
          "durationTicks": 3,
          "midi": 54,
          "name": "F#3",
          "ticks": 576,
          "time": 6.6976744186046515,
          "velocity": 0.14173228346456693
        },
        {
          "duration": 0.04651162790697594,
          "durationTicks": 4,
          "midi": 53,
          "name": "F3",
          "ticks": 579,
          "time": 6.732558139534884,
          "velocity": 0.16535433070866143
        },
        {
          "duration": 0.06976744186046524,
          "durationTicks": 6,
          "midi": 53,
          "name": "F3",
          "ticks": 586,
          "time": 6.813953488372093,
          "velocity": 0.07874015748031496
        },
        {
          "duration": 0.558139534883721,
          "durationTicks": 48,
          "midi": 56,
          "name": "G#3",
          "ticks": 595,
          "time": 6.9186046511627906,
          "velocity": 0.1968503937007874
        },
        {
          "duration": 0.25581395348837166,
          "durationTicks": 22,
          "midi": 49,
          "name": "C#3",
          "ticks": 621,
          "time": 7.22093023255814,
          "velocity": 0.18110236220472442
        },
        {
          "duration": 0.023255813953488413,
          "durationTicks": 2,
          "midi": 48,
          "name": "C3",
          "ticks": 643,
          "time": 7.476744186046512,
          "velocity": 0.25984251968503935
        },
        {
          "duration": 0.24418604651162834,
          "durationTicks": 21,
          "midi": 49,
          "name": "C#3",
          "ticks": 645,
          "time": 7.5,
          "velocity": 0.2677165354330709
        },
        {
          "duration": 0.20930232558139572,
          "durationTicks": 18,
          "midi": 56,
          "name": "G#3",
          "ticks": 648,
          "time": 7.534883720930233,
          "velocity": 0.07874015748031496
        },
        {
          "duration": 0.058139534883721034,
          "durationTicks": 5,
          "midi": 49,
          "name": "C#3",
          "ticks": 667,
          "time": 7.755813953488372,
          "velocity": 0.2992125984251969
        },
        {
          "duration": 0.09302325581395365,
          "durationTicks": 8,
          "midi": 49,
          "name": "C#3",
          "ticks": 673,
          "time": 7.825581395348837,
          "velocity": 0.2440944881889764
        },
        {
          "duration": 0.058139534883721034,
          "durationTicks": 5,
          "midi": 49,
          "name": "C#3",
          "ticks": 682,
          "time": 7.930232558139535,
          "velocity": 0.2125984251968504
        },
        {
          "duration": 0.27906976744186096,
          "durationTicks": 24,
          "midi": 56,
          "name": "G#3",
          "ticks": 694,
          "time": 8.069767441860465,
          "velocity": 0.2204724409448819
        },
        {
          "duration": 0.023255813953488413,
          "durationTicks": 2,
          "midi": 50,
          "name": "D3",
          "ticks": 695,
          "time": 8.081395348837209,
          "velocity": 0.28346456692913385
        },
        {
          "duration": 0.08139534883721034,
          "durationTicks": 7,
          "midi": 61,
          "name": "C#4",
          "ticks": 695,
          "time": 8.081395348837209,
          "velocity": 0.07874015748031496
        },
        {
          "duration": 0.1744186046511622,
          "durationTicks": 15,
          "midi": 49,
          "name": "C#3",
          "ticks": 700,
          "time": 8.13953488372093,
          "velocity": 0.2125984251968504
        },
        {
          "duration": 0.03488372093023351,
          "durationTicks": 3,
          "midi": 61,
          "name": "C#4",
          "ticks": 717,
          "time": 8.337209302325581,
          "velocity": 0.11023622047244094
        },
        {
          "duration": 0.023255813953488413,
          "durationTicks": 2,
          "midi": 52,
          "name": "E3",
          "ticks": 720,
          "time": 8.372093023255815,
          "velocity": 0.4015748031496063
        },
        {
          "duration": 0.04651162790697683,
          "durationTicks": 4,
          "midi": 53,
          "name": "F3",
          "ticks": 725,
          "time": 8.430232558139535,
          "velocity": 0.28346456692913385
        },
        {
          "duration": 0.04651162790697683,
          "durationTicks": 4,
          "midi": 53,
          "name": "F3",
          "ticks": 732,
          "time": 8.511627906976743,
          "velocity": 0.2283464566929134
        },
        {
          "duration": 0.04651162790697683,
          "durationTicks": 4,
          "midi": 49,
          "name": "C#3",
          "ticks": 737,
          "time": 8.569767441860465,
          "velocity": 0.1732283464566929
        },
        {
          "duration": 0.03488372093023173,
          "durationTicks": 3,
          "midi": 50,
          "name": "D3",
          "ticks": 741,
          "time": 8.616279069767442,
          "velocity": 0.25984251968503935
        },
        {
          "duration": 0.5930232558139537,
          "durationTicks": 51,
          "midi": 61,
          "name": "C#4",
          "ticks": 741,
          "time": 8.616279069767442,
          "velocity": 0.2125984251968504
        },
        {
          "duration": 0.023255813953488413,
          "durationTicks": 2,
          "midi": 53,
          "name": "F3",
          "ticks": 744,
          "time": 8.651162790697674,
          "velocity": 0.2283464566929134
        },
        {
          "duration": 0.04651162790697683,
          "durationTicks": 4,
          "midi": 42,
          "name": "F#2",
          "ticks": 745,
          "time": 8.662790697674419,
          "velocity": 0.13385826771653545
        },
        {
          "duration": 0.058139534883720145,
          "durationTicks": 5,
          "midi": 53,
          "name": "F3",
          "ticks": 747,
          "time": 8.686046511627907,
          "velocity": 0.3779527559055118
        },
        {
          "duration": 0.04651162790697683,
          "durationTicks": 4,
          "midi": 53,
          "name": "F3",
          "ticks": 753,
          "time": 8.755813953488373,
          "velocity": 0.30708661417322836
        },
        {
          "duration": 0.023255813953488413,
          "durationTicks": 2,
          "midi": 54,
          "name": "F#3",
          "ticks": 757,
          "time": 8.80232558139535,
          "velocity": 0.23622047244094488
        },
        {
          "duration": 0.04651162790697683,
          "durationTicks": 4,
          "midi": 53,
          "name": "F3",
          "ticks": 761,
          "time": 8.848837209302326,
          "velocity": 0.2204724409448819
        },
        {
          "duration": 0.03488372093023351,
          "durationTicks": 3,
          "midi": 52,
          "name": "E3",
          "ticks": 768,
          "time": 8.930232558139535,
          "velocity": 0.49606299212598426
        },
        {
          "duration": 0.08139534883720856,
          "durationTicks": 7,
          "midi": 72,
          "name": "C5",
          "ticks": 768,
          "time": 8.930232558139535,
          "velocity": 0.11023622047244094
        },
        {
          "duration": 0.023255813953488413,
          "durationTicks": 2,
          "midi": 53,
          "name": "F3",
          "ticks": 771,
          "time": 8.965116279069768,
          "velocity": 0.4330708661417323
        },
        {
          "duration": 0.03488372093023173,
          "durationTicks": 3,
          "midi": 53,
          "name": "F3",
          "ticks": 774,
          "time": 9,
          "velocity": 0.3937007874015748
        },
        {
          "duration": 0.11627906976744207,
          "durationTicks": 10,
          "midi": 53,
          "name": "F3",
          "ticks": 781,
          "time": 9.081395348837209,
          "velocity": 0.2677165354330709
        },
        {
          "duration": 0.22093023255814082,
          "durationTicks": 19,
          "midi": 56,
          "name": "G#3",
          "ticks": 795,
          "time": 9.244186046511627,
          "velocity": 0.3464566929133858
        },
        {
          "duration": 0.058139534883720145,
          "durationTicks": 5,
          "midi": 51,
          "name": "D#3",
          "ticks": 813,
          "time": 9.453488372093023,
          "velocity": 0.33858267716535434
        },
        {
          "duration": 0.03488372093023173,
          "durationTicks": 3,
          "midi": 56,
          "name": "G#3",
          "ticks": 815,
          "time": 9.476744186046512,
          "velocity": 0.25984251968503935
        },
        {
          "duration": 0.023255813953488413,
          "durationTicks": 2,
          "midi": 51,
          "name": "D#3",
          "ticks": 821,
          "time": 9.546511627906977,
          "velocity": 0.3228346456692913
        },
        {
          "duration": 0.023255813953488413,
          "durationTicks": 2,
          "midi": 51,
          "name": "D#3",
          "ticks": 824,
          "time": 9.581395348837209,
          "velocity": 0.2755905511811024
        },
        {
          "duration": 0.03488372093023351,
          "durationTicks": 3,
          "midi": 55,
          "name": "G3",
          "ticks": 826,
          "time": 9.604651162790697,
          "velocity": 0.31496062992125984
        },
        {
          "duration": 0.03488372093023173,
          "durationTicks": 3,
          "midi": 54,
          "name": "F#3",
          "ticks": 831,
          "time": 9.662790697674419,
          "velocity": 0.2992125984251969
        },
        {
          "duration": 0.023255813953488413,
          "durationTicks": 2,
          "midi": 54,
          "name": "F#3",
          "ticks": 835,
          "time": 9.709302325581396,
          "velocity": 0.2283464566929134
        },
        {
          "duration": 0.023255813953488413,
          "durationTicks": 2,
          "midi": 51,
          "name": "D#3",
          "ticks": 838,
          "time": 9.744186046511627,
          "velocity": 0.23622047244094488
        },
        {
          "duration": 0.04651162790697683,
          "durationTicks": 4,
          "midi": 54,
          "name": "F#3",
          "ticks": 841,
          "time": 9.779069767441861,
          "velocity": 0.2440944881889764
        },
        {
          "duration": 0.09302325581395188,
          "durationTicks": 8,
          "midi": 54,
          "name": "F#3",
          "ticks": 855,
          "time": 9.94186046511628,
          "velocity": 0.2047244094488189
        },
        {
          "duration": 0.023255813953488413,
          "durationTicks": 2,
          "midi": 51,
          "name": "D#3",
          "ticks": 865,
          "time": 10.05813953488372,
          "velocity": 0.3464566929133858
        },
        {
          "duration": 0.11627906976744207,
          "durationTicks": 10,
          "midi": 51,
          "name": "D#3",
          "ticks": 868,
          "time": 10.093023255813954,
          "velocity": 0.3228346456692913
        },
        {
          "duration": 0.023255813953488413,
          "durationTicks": 2,
          "midi": 51,
          "name": "D#3",
          "ticks": 885,
          "time": 10.290697674418604,
          "velocity": 0.2440944881889764
        },
        {
          "duration": 1.0465116279069768,
          "durationTicks": 90,
          "midi": 58,
          "name": "A#3",
          "ticks": 886,
          "time": 10.30232558139535,
          "velocity": 0.30708661417322836
        },
        {
          "duration": 0.04651162790697683,
          "durationTicks": 4,
          "midi": 51,
          "name": "D#3",
          "ticks": 896,
          "time": 10.418604651162791,
          "velocity": 0.11811023622047244
        },
        {
          "duration": 0.1860465116279073,
          "durationTicks": 16,
          "midi": 51,
          "name": "D#3",
          "ticks": 910,
          "time": 10.581395348837209,
          "velocity": 0.2755905511811024
        },
        {
          "duration": 0.04651162790697683,
          "durationTicks": 4,
          "midi": 51,
          "name": "D#3",
          "ticks": 927,
          "time": 10.779069767441861,
          "velocity": 0.2125984251968504
        },
        {
          "duration": 0.24418604651162745,
          "durationTicks": 21,
          "midi": 51,
          "name": "D#3",
          "ticks": 956,
          "time": 11.116279069767442,
          "velocity": 0.2992125984251969
        },
        {
          "duration": 0.9186046511627914,
          "durationTicks": 79,
          "midi": 58,
          "name": "A#3",
          "ticks": 979,
          "time": 11.383720930232558,
          "velocity": 0.25196850393700787
        },
        {
          "duration": 0.03488372093023173,
          "durationTicks": 3,
          "midi": 51,
          "name": "D#3",
          "ticks": 984,
          "time": 11.44186046511628,
          "velocity": 0.12598425196850394
        },
        {
          "duration": 0.023255813953488413,
          "durationTicks": 2,
          "midi": 50,
          "name": "D3",
          "ticks": 1002,
          "time": 11.651162790697674,
          "velocity": 0.25196850393700787
        },
        {
          "duration": 0.27906976744186096,
          "durationTicks": 24,
          "midi": 51,
          "name": "D#3",
          "ticks": 1004,
          "time": 11.674418604651162,
          "velocity": 0.33858267716535434
        },
        {
          "duration": 0.1860465116279073,
          "durationTicks": 16,
          "midi": 51,
          "name": "D#3",
          "ticks": 1032,
          "time": 12,
          "velocity": 0.16535433070866143
        },
        {
          "duration": 0.03488372093023351,
          "durationTicks": 3,
          "midi": 42,
          "name": "F#2",
          "ticks": 1055,
          "time": 12.267441860465116,
          "velocity": 0.13385826771653545
        },
        {
          "duration": 0.023255813953488413,
          "durationTicks": 2,
          "midi": 52,
          "name": "E3",
          "ticks": 1056,
          "time": 12.279069767441861,
          "velocity": 0.4015748031496063
        },
        {
          "duration": 0.023255813953488413,
          "durationTicks": 2,
          "midi": 51,
          "name": "D#3",
          "ticks": 1058,
          "time": 12.30232558139535,
          "velocity": 0.3464566929133858
        },
        {
          "duration": 0.023255813953488413,
          "durationTicks": 2,
          "midi": 54,
          "name": "F#3",
          "ticks": 1063,
          "time": 12.36046511627907,
          "velocity": 0.23622047244094488
        },
        {
          "duration": 0.058139534883720145,
          "durationTicks": 5,
          "midi": 54,
          "name": "F#3",
          "ticks": 1071,
          "time": 12.453488372093023,
          "velocity": 0.25196850393700787
        },
        {
          "duration": 0.03488372093023173,
          "durationTicks": 3,
          "midi": 53,
          "name": "F3",
          "ticks": 1079,
          "time": 12.546511627906977,
          "velocity": 0.33070866141732286
        },
        {
          "duration": 0.1860465116279073,
          "durationTicks": 16,
          "midi": 54,
          "name": "F#3",
          "ticks": 1082,
          "time": 12.581395348837209,
          "velocity": 0.29133858267716534
        },
        {
          "duration": 0.06976744186046524,
          "durationTicks": 6,
          "midi": 58,
          "name": "A#3",
          "ticks": 1085,
          "time": 12.616279069767442,
          "velocity": 0.1732283464566929
        },
        {
          "duration": 0.09302325581395365,
          "durationTicks": 8,
          "midi": 58,
          "name": "A#3",
          "ticks": 1096,
          "time": 12.744186046511627,
          "velocity": 0.2125984251968504
        },
        {
          "duration": 0.023255813953488413,
          "durationTicks": 2,
          "midi": 51,
          "name": "D#3",
          "ticks": 1103,
          "time": 12.825581395348838,
          "velocity": 0.31496062992125984
        },
        {
          "duration": 0.2790697674418592,
          "durationTicks": 24,
          "midi": 58,
          "name": "A#3",
          "ticks": 1105,
          "time": 12.848837209302326,
          "velocity": 0.3543307086614173
        },
        {
          "duration": 0.24418604651162745,
          "durationTicks": 21,
          "midi": 51,
          "name": "D#3",
          "ticks": 1106,
          "time": 12.86046511627907,
          "velocity": 0.30708661417322836
        },
        {
          "duration": 0.24418604651162745,
          "durationTicks": 21,
          "midi": 58,
          "name": "A#3",
          "ticks": 1130,
          "time": 13.13953488372093,
          "velocity": 0.3228346456692913
        },
        {
          "duration": 0.23255813953488413,
          "durationTicks": 20,
          "midi": 51,
          "name": "D#3",
          "ticks": 1153,
          "time": 13.406976744186046,
          "velocity": 0.36220472440944884
        },
        {
          "duration": 0.03488372093023351,
          "durationTicks": 3,
          "midi": 59,
          "name": "B3",
          "ticks": 1153,
          "time": 13.406976744186046,
          "velocity": 0.36220472440944884
        },
        {
          "duration": 0.03488372093023173,
          "durationTicks": 3,
          "midi": 60,
          "name": "C4",
          "ticks": 1156,
          "time": 13.44186046511628,
          "velocity": 0.33070866141732286
        },
        {
          "duration": 0.1744186046511622,
          "durationTicks": 15,
          "midi": 61,
          "name": "C#4",
          "ticks": 1159,
          "time": 13.476744186046512,
          "velocity": 0.30708661417322836
        },
        {
          "duration": 0.03488372093023351,
          "durationTicks": 3,
          "midi": 41,
          "name": "F2",
          "ticks": 1178,
          "time": 13.69767441860465,
          "velocity": 0.14960629921259844
        },
        {
          "duration": 0.03488372093023351,
          "durationTicks": 3,
          "midi": 51,
          "name": "D#3",
          "ticks": 1178,
          "time": 13.69767441860465,
          "velocity": 0.1889763779527559
        },
        {
          "duration": 0.23255813953488413,
          "durationTicks": 20,
          "midi": 61,
          "name": "C#4",
          "ticks": 1178,
          "time": 13.69767441860465,
          "velocity": 0.31496062992125984
        },
        {
          "duration": 0.04651162790697683,
          "durationTicks": 4,
          "midi": 56,
          "name": "G#3",
          "ticks": 1179,
          "time": 13.709302325581396,
          "velocity": 0.2204724409448819
        },
        {
          "duration": 0.04651162790697683,
          "durationTicks": 4,
          "midi": 52,
          "name": "E3",
          "ticks": 1184,
          "time": 13.767441860465116,
          "velocity": 0.09448818897637795
        },
        {
          "duration": 0.023255813953488413,
          "durationTicks": 2,
          "midi": 60,
          "name": "C4",
          "ticks": 1200,
          "time": 13.953488372093023,
          "velocity": 0.25984251968503935
        },
        {
          "duration": 0.023255813953488413,
          "durationTicks": 2,
          "midi": 45,
          "name": "A2",
          "ticks": 1201,
          "time": 13.965116279069768,
          "velocity": 0.3464566929133858
        },
        {
          "duration": 0.08139534883720856,
          "durationTicks": 7,
          "midi": 61,
          "name": "C#4",
          "ticks": 1202,
          "time": 13.976744186046512,
          "velocity": 0.33858267716535434
        },
        {
          "duration": 0.11627906976744207,
          "durationTicks": 10,
          "midi": 47,
          "name": "B2",
          "ticks": 1205,
          "time": 14.011627906976743,
          "velocity": 0.29133858267716534
        },
        {
          "duration": 0.40697674418604635,
          "durationTicks": 35,
          "midi": 47,
          "name": "B2",
          "ticks": 1216,
          "time": 14.13953488372093,
          "velocity": 0.3228346456692913
        },
        {
          "duration": 0.023255813953488413,
          "durationTicks": 2,
          "midi": 53,
          "name": "F3",
          "ticks": 1226,
          "time": 14.255813953488373,
          "velocity": 0.2283464566929134
        },
        {
          "duration": 0.03488372093023173,
          "durationTicks": 3,
          "midi": 54,
          "name": "F#3",
          "ticks": 1228,
          "time": 14.279069767441861,
          "velocity": 0.2204724409448819
        },
        {
          "duration": 0.22093023255813904,
          "durationTicks": 19,
          "midi": 54,
          "name": "F#3",
          "ticks": 1232,
          "time": 14.325581395348838,
          "velocity": 0.2677165354330709
        },
        {
          "duration": 0.023255813953488413,
          "durationTicks": 2,
          "midi": 53,
          "name": "F3",
          "ticks": 1251,
          "time": 14.546511627906977,
          "velocity": 0.30708661417322836
        },
        {
          "duration": 0.058139534883720145,
          "durationTicks": 5,
          "midi": 75,
          "name": "D#5",
          "ticks": 1251,
          "time": 14.546511627906977,
          "velocity": 0.14960629921259844
        },
        {
          "duration": 0.27906976744186096,
          "durationTicks": 24,
          "midi": 47,
          "name": "B2",
          "ticks": 1252,
          "time": 14.55813953488372,
          "velocity": 0.25196850393700787
        },
        {
          "duration": 0.1627906976744189,
          "durationTicks": 14,
          "midi": 54,
          "name": "F#3",
          "ticks": 1259,
          "time": 14.63953488372093,
          "velocity": 0.13385826771653545
        },
        {
          "duration": 0.04651162790697683,
          "durationTicks": 4,
          "midi": 75,
          "name": "D#5",
          "ticks": 1268,
          "time": 14.744186046511627,
          "velocity": 0.07874015748031496
        },
        {
          "duration": 0.04651162790697683,
          "durationTicks": 4,
          "midi": 59,
          "name": "B3",
          "ticks": 1274,
          "time": 14.813953488372093,
          "velocity": 0.4015748031496063
        },
        {
          "duration": 0.023255813953488413,
          "durationTicks": 2,
          "midi": 53,
          "name": "F3",
          "ticks": 1275,
          "time": 14.825581395348838,
          "velocity": 0.23622047244094488
        },
        {
          "duration": 0.023255813953488413,
          "durationTicks": 2,
          "midi": 60,
          "name": "C4",
          "ticks": 1280,
          "time": 14.883720930232558,
          "velocity": 0.3464566929133858
        },
        {
          "duration": 0.03488372093023351,
          "durationTicks": 3,
          "midi": 59,
          "name": "B3",
          "ticks": 1282,
          "time": 14.906976744186046,
          "velocity": 0.31496062992125984
        },
        {
          "duration": 0.5465116279069768,
          "durationTicks": 47,
          "midi": 61,
          "name": "C#4",
          "ticks": 1284,
          "time": 14.930232558139535,
          "velocity": 0.25196850393700787
        },
        {
          "duration": 0.03488372093023173,
          "durationTicks": 3,
          "midi": 58,
          "name": "A#3",
          "ticks": 1285,
          "time": 14.94186046511628,
          "velocity": 0.23622047244094488
        },
        {
          "duration": 0.15116279069767558,
          "durationTicks": 13,
          "midi": 42,
          "name": "F#2",
          "ticks": 1301,
          "time": 15.127906976744185,
          "velocity": 0.3937007874015748
        },
        {
          "duration": 0.023255813953488413,
          "durationTicks": 2,
          "midi": 53,
          "name": "F3",
          "ticks": 1301,
          "time": 15.127906976744185,
          "velocity": 0.2755905511811024
        },
        {
          "duration": 0.03488372093023173,
          "durationTicks": 3,
          "midi": 43,
          "name": "G2",
          "ticks": 1314,
          "time": 15.279069767441861,
          "velocity": 0.2125984251968504
        },
        {
          "duration": 0.12790697674418716,
          "durationTicks": 11,
          "midi": 42,
          "name": "F#2",
          "ticks": 1317,
          "time": 15.313953488372093,
          "velocity": 0.28346456692913385
        },
        {
          "duration": 0.1627906976744189,
          "durationTicks": 14,
          "midi": 42,
          "name": "F#2",
          "ticks": 1331,
          "time": 15.476744186046512,
          "velocity": 0.2204724409448819
        },
        {
          "duration": 0.2906976744186043,
          "durationTicks": 25,
          "midi": 42,
          "name": "F#2",
          "ticks": 1347,
          "time": 15.662790697674419,
          "velocity": 0.23622047244094488
        },
        {
          "duration": 0.2906976744186043,
          "durationTicks": 25,
          "midi": 61,
          "name": "C#4",
          "ticks": 1347,
          "time": 15.662790697674419,
          "velocity": 0.1889763779527559
        },
        {
          "duration": 0.8023255813953476,
          "durationTicks": 69,
          "midi": 58,
          "name": "A#3",
          "ticks": 1373,
          "time": 15.965116279069768,
          "velocity": 0.23622047244094488
        },
        {
          "duration": 0.11627906976744207,
          "durationTicks": 10,
          "midi": 42,
          "name": "F#2",
          "ticks": 1374,
          "time": 15.976744186046512,
          "velocity": 0.11811023622047244
        },
        {
          "duration": 0.02325581395349019,
          "durationTicks": 2,
          "midi": 41,
          "name": "F2",
          "ticks": 1399,
          "time": 16.267441860465116,
          "velocity": 0.25196850393700787
        },
        {
          "duration": 0.12790697674418539,
          "durationTicks": 11,
          "midi": 42,
          "name": "F#2",
          "ticks": 1401,
          "time": 16.290697674418606,
          "velocity": 0.33858267716535434
        },
        {
          "duration": 0.04651162790697683,
          "durationTicks": 4,
          "midi": 43,
          "name": "G2",
          "ticks": 1412,
          "time": 16.41860465116279,
          "velocity": 0.1732283464566929
        },
        {
          "duration": 0.15116279069767202,
          "durationTicks": 13,
          "midi": 42,
          "name": "F#2",
          "ticks": 1416,
          "time": 16.46511627906977,
          "velocity": 0.25196850393700787
        },
        {
          "duration": 0.16279069767442067,
          "durationTicks": 14,
          "midi": 42,
          "name": "F#2",
          "ticks": 1430,
          "time": 16.627906976744185,
          "velocity": 0.1889763779527559
        },
        {
          "duration": 0.16279069767441712,
          "durationTicks": 14,
          "midi": 61,
          "name": "C#4",
          "ticks": 1443,
          "time": 16.77906976744186,
          "velocity": 0.1889763779527559
        },
        {
          "duration": 0.023255813953486637,
          "durationTicks": 2,
          "midi": 50,
          "name": "D3",
          "ticks": 1444,
          "time": 16.790697674418606,
          "velocity": 0.28346456692913385
        },
        {
          "duration": 0.25581395348837077,
          "durationTicks": 22,
          "midi": 42,
          "name": "F#2",
          "ticks": 1446,
          "time": 16.813953488372093,
          "velocity": 0.18110236220472442
        },
        {
          "duration": 0.02325581395349019,
          "durationTicks": 2,
          "midi": 53,
          "name": "F3",
          "ticks": 1446,
          "time": 16.813953488372093,
          "velocity": 0.3543307086614173
        },
        {
          "duration": 0.20930232558139394,
          "durationTicks": 18,
          "midi": 54,
          "name": "F#3",
          "ticks": 1448,
          "time": 16.837209302325583,
          "velocity": 0.30708661417322836
        },
        {
          "duration": 0.1046511627906952,
          "durationTicks": 9,
          "midi": 58,
          "name": "A#3",
          "ticks": 1467,
          "time": 17.058139534883722,
          "velocity": 0.1732283464566929
        },
        {
          "duration": 0.03488372093023173,
          "durationTicks": 3,
          "midi": 53,
          "name": "F3",
          "ticks": 1469,
          "time": 17.08139534883721,
          "velocity": 0.33858267716535434
        },
        {
          "duration": 0.15116279069767202,
          "durationTicks": 13,
          "midi": 54,
          "name": "F#3",
          "ticks": 1475,
          "time": 17.151162790697676,
          "velocity": 0.23622047244094488
        },
        {
          "duration": 0.13953488372093048,
          "durationTicks": 12,
          "midi": 58,
          "name": "A#3",
          "ticks": 1481,
          "time": 17.22093023255814,
          "velocity": 0.14960629921259844
        },
        {
          "duration": 0.04651162790697683,
          "durationTicks": 4,
          "midi": 53,
          "name": "F3",
          "ticks": 1488,
          "time": 17.302325581395348,
          "velocity": 0.1889763779527559
        },
        {
          "duration": 0.02325581395349019,
          "durationTicks": 2,
          "midi": 41,
          "name": "F2",
          "ticks": 1493,
          "time": 17.36046511627907,
          "velocity": 0.31496062992125984
        },
        {
          "duration": 0.5930232558139537,
          "durationTicks": 51,
          "midi": 58,
          "name": "A#3",
          "ticks": 1494,
          "time": 17.372093023255815,
          "velocity": 0.3858267716535433
        },
        {
          "duration": 0.13953488372092693,
          "durationTicks": 12,
          "midi": 42,
          "name": "F#2",
          "ticks": 1495,
          "time": 17.38372093023256,
          "velocity": 0.36220472440944884
        },
        {
          "duration": 0.034883720930235285,
          "durationTicks": 3,
          "midi": 43,
          "name": "G2",
          "ticks": 1507,
          "time": 17.523255813953487,
          "velocity": 0.18110236220472442
        },
        {
          "duration": 0.11627906976744029,
          "durationTicks": 10,
          "midi": 42,
          "name": "F#2",
          "ticks": 1510,
          "time": 17.558139534883722,
          "velocity": 0.2440944881889764
        },
        {
          "duration": 0.02325581395349019,
          "durationTicks": 2,
          "midi": 50,
          "name": "D3",
          "ticks": 1520,
          "time": 17.674418604651162,
          "velocity": 0.2283464566929134
        },
        {
          "duration": 0.1860465116279073,
          "durationTicks": 16,
          "midi": 42,
          "name": "F#2",
          "ticks": 1521,
          "time": 17.686046511627907,
          "velocity": 0.23622047244094488
        },
        {
          "duration": 0.10465116279069875,
          "durationTicks": 9,
          "midi": 42,
          "name": "F#2",
          "ticks": 1543,
          "time": 17.941860465116278,
          "velocity": 0.14960629921259844
        },
        {
          "duration": 0.03488372093023173,
          "durationTicks": 3,
          "midi": 59,
          "name": "B3",
          "ticks": 1545,
          "time": 17.96511627906977,
          "velocity": 0.4015748031496063
        },
        {
          "duration": 0.04651162790697683,
          "durationTicks": 4,
          "midi": 60,
          "name": "C4",
          "ticks": 1548,
          "time": 18,
          "velocity": 0.31496062992125984
        },
        {
          "duration": 0.1744186046511622,
          "durationTicks": 15,
          "midi": 61,
          "name": "C#4",
          "ticks": 1552,
          "time": 18.046511627906977,
          "velocity": 0.33070866141732286
        },
        {
          "duration": 0.22093023255813904,
          "durationTicks": 19,
          "midi": 58,
          "name": "A#3",
          "ticks": 1567,
          "time": 18.22093023255814,
          "velocity": 0.33070866141732286
        },
        {
          "duration": 0.05813953488372192,
          "durationTicks": 5,
          "midi": 42,
          "name": "F#2",
          "ticks": 1571,
          "time": 18.267441860465116,
          "velocity": 0.14960629921259844
        },
        {
          "duration": 0.1744186046511622,
          "durationTicks": 15,
          "midi": 85,
          "name": "C#6",
          "ticks": 1572,
          "time": 18.27906976744186,
          "velocity": 0.07086614173228346
        },
        {
          "duration": 0.05813953488371837,
          "durationTicks": 5,
          "midi": 61,
          "name": "C#4",
          "ticks": 1585,
          "time": 18.430232558139537,
          "velocity": 0.16535433070866143
        },
        {
          "duration": 0.02325581395349019,
          "durationTicks": 2,
          "midi": 45,
          "name": "A2",
          "ticks": 1593,
          "time": 18.523255813953487,
          "velocity": 0.2677165354330709
        },
        {
          "duration": 0.04651162790697683,
          "durationTicks": 4,
          "midi": 58,
          "name": "A#3",
          "ticks": 1593,
          "time": 18.523255813953487,
          "velocity": 0.2125984251968504
        },
        {
          "duration": 0.4883720930232549,
          "durationTicks": 42,
          "midi": 75,
          "name": "D#5",
          "ticks": 1595,
          "time": 18.546511627906977,
          "velocity": 0.1889763779527559
        },
        {
          "duration": 0.5465116279069768,
          "durationTicks": 47,
          "midi": 47,
          "name": "B2",
          "ticks": 1596,
          "time": 18.558139534883722,
          "velocity": 0.25196850393700787
        },
        {
          "duration": 0.03488372093023173,
          "durationTicks": 3,
          "midi": 58,
          "name": "A#3",
          "ticks": 1598,
          "time": 18.58139534883721,
          "velocity": 0.11811023622047244
        },
        {
          "duration": 0.22093023255813904,
          "durationTicks": 19,
          "midi": 54,
          "name": "F#3",
          "ticks": 1624,
          "time": 18.88372093023256,
          "velocity": 0.2204724409448819
        },
        {
          "duration": 0.24418604651162568,
          "durationTicks": 21,
          "midi": 75,
          "name": "D#5",
          "ticks": 1643,
          "time": 19.1046511627907,
          "velocity": 0.1889763779527559
        },
        {
          "duration": 0.3255813953488378,
          "durationTicks": 28,
          "midi": 47,
          "name": "B2",
          "ticks": 1644,
          "time": 19.11627906976744,
          "velocity": 0.25196850393700787
        },
        {
          "duration": 0.27906976744186096,
          "durationTicks": 24,
          "midi": 54,
          "name": "F#3",
          "ticks": 1644,
          "time": 19.11627906976744,
          "velocity": 0.13385826771653545
        },
        {
          "duration": 0.08139534883720856,
          "durationTicks": 7,
          "midi": 82,
          "name": "A#5",
          "ticks": 1647,
          "time": 19.151162790697676,
          "velocity": 0.07874015748031496
        },
        {
          "duration": 0.04651162790697683,
          "durationTicks": 4,
          "midi": 61,
          "name": "C#4",
          "ticks": 1669,
          "time": 19.406976744186046,
          "velocity": 0.31496062992125984
        },
        {
          "duration": 0.023255813953486637,
          "durationTicks": 2,
          "midi": 59,
          "name": "B3",
          "ticks": 1671,
          "time": 19.430232558139537,
          "velocity": 0.28346456692913385
        },
        {
          "duration": 0.24418604651162568,
          "durationTicks": 21,
          "midi": 85,
          "name": "C#6",
          "ticks": 1671,
          "time": 19.430232558139537,
          "velocity": 0.07086614173228346
        },
        {
          "duration": 0.10465116279069875,
          "durationTicks": 9,
          "midi": 47,
          "name": "B2",
          "ticks": 1673,
          "time": 19.453488372093023,
          "velocity": 0.18110236220472442
        },
        {
          "duration": 0.06976744186046346,
          "durationTicks": 6,
          "midi": 59,
          "name": "B3",
          "ticks": 1674,
          "time": 19.46511627906977,
          "velocity": 0.33070866141732286
        },
        {
          "duration": 0.03488372093023173,
          "durationTicks": 3,
          "midi": 58,
          "name": "A#3",
          "ticks": 1680,
          "time": 19.53488372093023,
          "velocity": 0.25196850393700787
        },
        {
          "duration": 0.3255813953488378,
          "durationTicks": 28,
          "midi": 61,
          "name": "C#4",
          "ticks": 1684,
          "time": 19.58139534883721,
          "velocity": 0.1732283464566929
        },
        {
          "duration": 0.023255813953486637,
          "durationTicks": 2,
          "midi": 52,
          "name": "E3",
          "ticks": 1693,
          "time": 19.686046511627907,
          "velocity": 0.2283464566929134
        },
        {
          "duration": 0.08139534883720856,
          "durationTicks": 7,
          "midi": 41,
          "name": "F2",
          "ticks": 1694,
          "time": 19.697674418604652,
          "velocity": 0.3543307086614173
        },
        {
          "duration": 0.10465116279069875,
          "durationTicks": 9,
          "midi": 42,
          "name": "F#2",
          "ticks": 1701,
          "time": 19.77906976744186,
          "velocity": 0.3543307086614173
        },
        {
          "duration": 0.03488372093023173,
          "durationTicks": 3,
          "midi": 43,
          "name": "G2",
          "ticks": 1710,
          "time": 19.88372093023256,
          "velocity": 0.11811023622047244
        },
        {
          "duration": 0.06976744186046346,
          "durationTicks": 6,
          "midi": 42,
          "name": "F#2",
          "ticks": 1713,
          "time": 19.91860465116279,
          "velocity": 0.2283464566929134
        },
        {
          "duration": 0.05813953488372192,
          "durationTicks": 5,
          "midi": 42,
          "name": "F#2",
          "ticks": 1720,
          "time": 20,
          "velocity": 0.1732283464566929
        },
        {
          "duration": 0.11627906976744029,
          "durationTicks": 10,
          "midi": 49,
          "name": "C#3",
          "ticks": 1724,
          "time": 20.046511627906977,
          "velocity": 0.12598425196850394
        },
        {
          "duration": 0.08139534883720856,
          "durationTicks": 7,
          "midi": 42,
          "name": "F#2",
          "ticks": 1729,
          "time": 20.1046511627907,
          "velocity": 0.11811023622047244
        },
        {
          "duration": 0.05813953488372192,
          "durationTicks": 5,
          "midi": 49,
          "name": "C#3",
          "ticks": 1735,
          "time": 20.174418604651162,
          "velocity": 0.11023622047244094
        },
        {
          "duration": 0.2790697674418574,
          "durationTicks": 24,
          "midi": 61,
          "name": "C#4",
          "ticks": 1741,
          "time": 20.24418604651163,
          "velocity": 0.2283464566929134
        },
        {
          "duration": 0.05813953488372192,
          "durationTicks": 5,
          "midi": 42,
          "name": "F#2",
          "ticks": 1742,
          "time": 20.25581395348837,
          "velocity": 0.1732283464566929
        },
        {
          "duration": 0.10465116279069875,
          "durationTicks": 9,
          "midi": 49,
          "name": "C#3",
          "ticks": 1748,
          "time": 20.325581395348838,
          "velocity": 0.07874015748031496
        },
        {
          "duration": 0.05813953488372192,
          "durationTicks": 5,
          "midi": 42,
          "name": "F#2",
          "ticks": 1756,
          "time": 20.41860465116279,
          "velocity": 0.07086614173228346
        },
        {
          "duration": 0.8255813953488378,
          "durationTicks": 71,
          "midi": 58,
          "name": "A#3",
          "ticks": 1767,
          "time": 20.546511627906977,
          "velocity": 0.2992125984251969
        },
        {
          "duration": 0.03488372093023173,
          "durationTicks": 3,
          "midi": 53,
          "name": "F3",
          "ticks": 1790,
          "time": 20.813953488372093,
          "velocity": 0.23622047244094488
        },
        {
          "duration": 0.023255813953486637,
          "durationTicks": 2,
          "midi": 41,
          "name": "F2",
          "ticks": 1791,
          "time": 20.825581395348838,
          "velocity": 0.28346456692913385
        },
        {
          "duration": 0.12790697674418894,
          "durationTicks": 11,
          "midi": 42,
          "name": "F#2",
          "ticks": 1793,
          "time": 20.848837209302324,
          "velocity": 0.3464566929133858
        },
        {
          "duration": 0.03488372093023173,
          "durationTicks": 3,
          "midi": 43,
          "name": "G2",
          "ticks": 1804,
          "time": 20.976744186046513,
          "velocity": 0.14960629921259844
        },
        {
          "duration": 0.12790697674418539,
          "durationTicks": 11,
          "midi": 42,
          "name": "F#2",
          "ticks": 1807,
          "time": 21.011627906976745,
          "velocity": 0.2283464566929134
        },
        {
          "duration": 0.23255813953488413,
          "durationTicks": 20,
          "midi": 42,
          "name": "F#2",
          "ticks": 1820,
          "time": 21.162790697674417,
          "velocity": 0.16535433070866143
        },
        {
          "duration": 0.04651162790697683,
          "durationTicks": 4,
          "midi": 58,
          "name": "A#3",
          "ticks": 1839,
          "time": 21.38372093023256,
          "velocity": 0.1889763779527559
        },
        {
          "duration": 0.16279069767441712,
          "durationTicks": 14,
          "midi": 61,
          "name": "C#4",
          "ticks": 1839,
          "time": 21.38372093023256,
          "velocity": 0.2204724409448819
        },
        {
          "duration": 0.02325581395349019,
          "durationTicks": 2,
          "midi": 53,
          "name": "F3",
          "ticks": 1840,
          "time": 21.3953488372093,
          "velocity": 0.3779527559055118
        },
        {
          "duration": 0.1744186046511622,
          "durationTicks": 15,
          "midi": 42,
          "name": "F#2",
          "ticks": 1841,
          "time": 21.406976744186046,
          "velocity": 0.16535433070866143
        },
        {
          "duration": 0.03488372093023173,
          "durationTicks": 3,
          "midi": 54,
          "name": "F#3",
          "ticks": 1842,
          "time": 21.41860465116279,
          "velocity": 0.3543307086614173
        },
        {
          "duration": 0.16279069767441712,
          "durationTicks": 14,
          "midi": 54,
          "name": "F#3",
          "ticks": 1846,
          "time": 21.46511627906977,
          "velocity": 0.30708661417322836
        },
        {
          "duration": 0.04651162790697683,
          "durationTicks": 4,
          "midi": 58,
          "name": "A#3",
          "ticks": 1852,
          "time": 21.53488372093023,
          "velocity": 0.14960629921259844
        },
        {
          "duration": 0.06976744186046702,
          "durationTicks": 6,
          "midi": 61,
          "name": "C#4",
          "ticks": 1856,
          "time": 21.58139534883721,
          "velocity": 0.11811023622047244
        },
        {
          "duration": 0.03488372093023173,
          "durationTicks": 3,
          "midi": 50,
          "name": "D3",
          "ticks": 1861,
          "time": 21.63953488372093,
          "velocity": 0.1732283464566929
        },
        {
          "duration": 0.04651162790697683,
          "durationTicks": 4,
          "midi": 42,
          "name": "F#2",
          "ticks": 1862,
          "time": 21.651162790697676,
          "velocity": 0.14960629921259844
        },
        {
          "duration": 0.2906976744186025,
          "durationTicks": 25,
          "midi": 58,
          "name": "A#3",
          "ticks": 1862,
          "time": 21.651162790697676,
          "velocity": 0.30708661417322836
        },
        {
          "duration": 0.02325581395349019,
          "durationTicks": 2,
          "midi": 45,
          "name": "A2",
          "ticks": 1887,
          "time": 21.941860465116278,
          "velocity": 0.2755905511811024
        },
        {
          "duration": 0.13953488372093048,
          "durationTicks": 12,
          "midi": 61,
          "name": "C#4",
          "ticks": 1888,
          "time": 21.953488372093023,
          "velocity": 0.2755905511811024
        },
        {
          "duration": 0.5697674418604635,
          "durationTicks": 49,
          "midi": 47,
          "name": "B2",
          "ticks": 1889,
          "time": 21.96511627906977,
          "velocity": 0.23622047244094488
        },
        {
          "duration": 0.06976744186046346,
          "durationTicks": 6,
          "midi": 62,
          "name": "D4",
          "ticks": 1900,
          "time": 22.093023255813954,
          "velocity": 0.23622047244094488
        },
        {
          "duration": 0.03488372093023173,
          "durationTicks": 3,
          "midi": 54,
          "name": "F#3",
          "ticks": 1915,
          "time": 22.267441860465116,
          "velocity": 0.11811023622047244
        },
        {
          "duration": 0.23255813953488413,
          "durationTicks": 20,
          "midi": 54,
          "name": "F#3",
          "ticks": 1919,
          "time": 22.313953488372093,
          "velocity": 0.12598425196850394
        },
        {
          "duration": 0.25581395348837077,
          "durationTicks": 22,
          "midi": 47,
          "name": "B2",
          "ticks": 1939,
          "time": 22.546511627906977,
          "velocity": 0.2283464566929134
        },
        {
          "duration": 0.651162790697672,
          "durationTicks": 56,
          "midi": 75,
          "name": "D#5",
          "ticks": 1940,
          "time": 22.558139534883722,
          "velocity": 0.1968503937007874
        },
        {
          "duration": 0.7674418604651159,
          "durationTicks": 66,
          "midi": 59,
          "name": "B3",
          "ticks": 1963,
          "time": 22.825581395348838,
          "velocity": 0.2283464566929134
        },
        {
          "duration": 0.15116279069767202,
          "durationTicks": 13,
          "midi": 47,
          "name": "B2",
          "ticks": 1964,
          "time": 22.837209302325583,
          "velocity": 0.16535433070866143
        },
        {
          "duration": 0.02325581395349019,
          "durationTicks": 2,
          "midi": 45,
          "name": "A2",
          "ticks": 1985,
          "time": 23.08139534883721,
          "velocity": 0.2440944881889764
        },
        {
          "duration": 0.5348837209302317,
          "durationTicks": 46,
          "midi": 47,
          "name": "B2",
          "ticks": 1987,
          "time": 23.1046511627907,
          "velocity": 0.2047244094488189
        },
        {
          "duration": 0.24418604651162568,
          "durationTicks": 21,
          "midi": 54,
          "name": "F#3",
          "ticks": 2014,
          "time": 23.41860465116279,
          "velocity": 0.13385826771653545
        },
        {
          "duration": 0.03488372093023173,
          "durationTicks": 3,
          "midi": 63,
          "name": "D#4",
          "ticks": 2034,
          "time": 23.651162790697676,
          "velocity": 0.1732283464566929
        },
        {
          "duration": 0.2558139534883743,
          "durationTicks": 22,
          "midi": 47,
          "name": "B2",
          "ticks": 2035,
          "time": 23.662790697674417,
          "velocity": 0.2047244094488189
        },
        {
          "duration": 0.2093023255813975,
          "durationTicks": 18,
          "midi": 75,
          "name": "D#5",
          "ticks": 2035,
          "time": 23.662790697674417,
          "velocity": 0.1889763779527559
        },
        {
          "duration": 0.8837209302325597,
          "durationTicks": 76,
          "midi": 59,
          "name": "B3",
          "ticks": 2059,
          "time": 23.941860465116278,
          "velocity": 0.25196850393700787
        },
        {
          "duration": 0.16279069767442067,
          "durationTicks": 14,
          "midi": 77,
          "name": "F5",
          "ticks": 2059,
          "time": 23.941860465116278,
          "velocity": 0.1889763779527559
        },
        {
          "duration": 0.22093023255813904,
          "durationTicks": 19,
          "midi": 84,
          "name": "C6",
          "ticks": 2059,
          "time": 23.941860465116278,
          "velocity": 0.10236220472440945
        },
        {
          "duration": 0.09302325581395365,
          "durationTicks": 8,
          "midi": 47,
          "name": "B2",
          "ticks": 2060,
          "time": 23.953488372093023,
          "velocity": 0.1732283464566929
        },
        {
          "duration": 0.02325581395349019,
          "durationTicks": 2,
          "midi": 45,
          "name": "A2",
          "ticks": 2082,
          "time": 24.209302325581394,
          "velocity": 0.2677165354330709
        },
        {
          "duration": 0.023255813953486637,
          "durationTicks": 2,
          "midi": 47,
          "name": "B2",
          "ticks": 2084,
          "time": 24.232558139534884,
          "velocity": 0.2440944881889764
        },
        {
          "duration": 0.12790697674418539,
          "durationTicks": 11,
          "midi": 77,
          "name": "F5",
          "ticks": 2085,
          "time": 24.24418604651163,
          "velocity": 0.2992125984251969
        },
        {
          "duration": 0.11627906976744029,
          "durationTicks": 10,
          "midi": 84,
          "name": "C6",
          "ticks": 2085,
          "time": 24.24418604651163,
          "velocity": 0.1968503937007874
        },
        {
          "duration": 0.5465116279069768,
          "durationTicks": 47,
          "midi": 47,
          "name": "B2",
          "ticks": 2087,
          "time": 24.267441860465116,
          "velocity": 0.2204724409448819
        },
        {
          "duration": 0.3372093023255829,
          "durationTicks": 29,
          "midi": 66,
          "name": "F#4",
          "ticks": 2095,
          "time": 24.36046511627907,
          "velocity": 0.12598425196850394
        },
        {
          "duration": 0.25581395348837077,
          "durationTicks": 22,
          "midi": 85,
          "name": "C#6",
          "ticks": 2097,
          "time": 24.38372093023256,
          "velocity": 0.07874015748031496
        },
        {
          "duration": 0.023255813953486637,
          "durationTicks": 2,
          "midi": 50,
          "name": "D3",
          "ticks": 2135,
          "time": 24.825581395348838,
          "velocity": 0.25196850393700787
        },
        {
          "duration": 0.24418604651162568,
          "durationTicks": 21,
          "midi": 66,
          "name": "F#4",
          "ticks": 2136,
          "time": 24.837209302325583,
          "velocity": 0.12598425196850394
        },
        {
          "duration": 0.15116279069767202,
          "durationTicks": 13,
          "midi": 78,
          "name": "F#5",
          "ticks": 2136,
          "time": 24.837209302325583,
          "velocity": 0.12598425196850394
        },
        {
          "duration": 0.25581395348837077,
          "durationTicks": 22,
          "midi": 85,
          "name": "C#6",
          "ticks": 2136,
          "time": 24.837209302325583,
          "velocity": 0.1732283464566929
        },
        {
          "duration": 0.3837209302325597,
          "durationTicks": 33,
          "midi": 47,
          "name": "B2",
          "ticks": 2138,
          "time": 24.86046511627907,
          "velocity": 0.18110236220472442
        },
        {
          "duration": 0.22093023255813904,
          "durationTicks": 19,
          "midi": 78,
          "name": "F#5",
          "ticks": 2161,
          "time": 25.127906976744185,
          "velocity": 0.1968503937007874
        },
        {
          "duration": 0.23255813953488413,
          "durationTicks": 20,
          "midi": 85,
          "name": "C#6",
          "ticks": 2161,
          "time": 25.127906976744185,
          "velocity": 0.18110236220472442
        },
        {
          "duration": 0.22093023255813904,
          "durationTicks": 19,
          "midi": 66,
          "name": "F#4",
          "ticks": 2162,
          "time": 25.13953488372093,
          "velocity": 0.11023622047244094
        },
        {
          "duration": 0.3139534883720927,
          "durationTicks": 27,
          "midi": 59,
          "name": "B3",
          "ticks": 2163,
          "time": 25.151162790697676,
          "velocity": 0.1968503937007874
        },
        {
          "duration": 0.02325581395349019,
          "durationTicks": 2,
          "midi": 45,
          "name": "A2",
          "ticks": 2184,
          "time": 25.3953488372093,
          "velocity": 0.2677165354330709
        },
        {
          "duration": 0.1860465116279073,
          "durationTicks": 16,
          "midi": 77,
          "name": "F5",
          "ticks": 2185,
          "time": 25.406976744186046,
          "velocity": 0.2440944881889764
        },
        {
          "duration": 0.5348837209302317,
          "durationTicks": 46,
          "midi": 47,
          "name": "B2",
          "ticks": 2186,
          "time": 25.41860465116279,
          "velocity": 0.2283464566929134
        },
        {
          "duration": 0.4767441860465098,
          "durationTicks": 41,
          "midi": 84,
          "name": "C6",
          "ticks": 2186,
          "time": 25.41860465116279,
          "velocity": 0.16535433070866143
        },
        {
          "duration": 0.03488372093023173,
          "durationTicks": 3,
          "midi": 54,
          "name": "F#3",
          "ticks": 2210,
          "time": 25.697674418604652,
          "velocity": 0.14173228346456693
        },
        {
          "duration": 0.20930232558139394,
          "durationTicks": 18,
          "midi": 54,
          "name": "F#3",
          "ticks": 2214,
          "time": 25.74418604651163,
          "velocity": 0.15748031496062992
        },
        {
          "duration": 0.41860465116279144,
          "durationTicks": 36,
          "midi": 75,
          "name": "D#5",
          "ticks": 2233,
          "time": 25.96511627906977,
          "velocity": 0.14173228346456693
        },
        {
          "duration": 0.2093023255813975,
          "durationTicks": 18,
          "midi": 47,
          "name": "B2",
          "ticks": 2235,
          "time": 25.988372093023255,
          "velocity": 0.18110236220472442
        },
        {
          "duration": 0.12790697674418894,
          "durationTicks": 11,
          "midi": 58,
          "name": "A#3",
          "ticks": 2254,
          "time": 26.209302325581394,
          "velocity": 0.11023622047244094
        },
        {
          "duration": 0.03488372093023173,
          "durationTicks": 3,
          "midi": 41,
          "name": "F2",
          "ticks": 2276,
          "time": 26.46511627906977,
          "velocity": 0.28346456692913385
        },
        {
          "duration": 0.03488372093023173,
          "durationTicks": 3,
          "midi": 53,
          "name": "F3",
          "ticks": 2276,
          "time": 26.46511627906977,
          "velocity": 0.3228346456692913
        },
        {
          "duration": 0.47674418604651336,
          "durationTicks": 41,
          "midi": 61,
          "name": "C#4",
          "ticks": 2278,
          "time": 26.488372093023255,
          "velocity": 0.29133858267716534
        },
        {
          "duration": 0.12790697674418539,
          "durationTicks": 11,
          "midi": 42,
          "name": "F#2",
          "ticks": 2279,
          "time": 26.5,
          "velocity": 0.3464566929133858
        },
        {
          "duration": 0.03488372093023173,
          "durationTicks": 3,
          "midi": 43,
          "name": "G2",
          "ticks": 2290,
          "time": 26.627906976744185,
          "velocity": 0.14173228346456693
        },
        {
          "duration": 0.31395348837209625,
          "durationTicks": 27,
          "midi": 42,
          "name": "F#2",
          "ticks": 2293,
          "time": 26.662790697674417,
          "velocity": 0.23622047244094488
        },
        {
          "duration": 0.33720930232557933,
          "durationTicks": 29,
          "midi": 61,
          "name": "C#4",
          "ticks": 2320,
          "time": 26.976744186046513,
          "velocity": 0.2204724409448819
        },
        {
          "duration": 0.2674418604651194,
          "durationTicks": 23,
          "midi": 54,
          "name": "F#3",
          "ticks": 2324,
          "time": 27.023255813953487,
          "velocity": 0.16535433070866143
        },
        {
          "duration": 0.13953488372093048,
          "durationTicks": 12,
          "midi": 42,
          "name": "F#2",
          "ticks": 2325,
          "time": 27.03488372093023,
          "velocity": 0.12598425196850394
        },
        {
          "duration": 0.05813953488372192,
          "durationTicks": 5,
          "midi": 42,
          "name": "F#2",
          "ticks": 2346,
          "time": 27.27906976744186,
          "velocity": 0.15748031496062992
        },
        {
          "duration": 0.03488372093023173,
          "durationTicks": 3,
          "midi": 53,
          "name": "F3",
          "ticks": 2347,
          "time": 27.290697674418606,
          "velocity": 0.18110236220472442
        },
        {
          "duration": 0.3139534883720927,
          "durationTicks": 27,
          "midi": 58,
          "name": "A#3",
          "ticks": 2348,
          "time": 27.302325581395348,
          "velocity": 0.16535433070866143
        },
        {
          "duration": 0.13953488372093048,
          "durationTicks": 12,
          "midi": 42,
          "name": "F#2",
          "ticks": 2371,
          "time": 27.569767441860463,
          "velocity": 0.28346456692913385
        },
        {
          "duration": 0.034883720930235285,
          "durationTicks": 3,
          "midi": 43,
          "name": "G2",
          "ticks": 2383,
          "time": 27.709302325581394,
          "velocity": 0.07874015748031496
        },
        {
          "duration": 0.09302325581395365,
          "durationTicks": 8,
          "midi": 58,
          "name": "A#3",
          "ticks": 2384,
          "time": 27.72093023255814,
          "velocity": 0.09448818897637795
        },
        {
          "duration": 0.15116279069767202,
          "durationTicks": 13,
          "midi": 42,
          "name": "F#2",
          "ticks": 2386,
          "time": 27.74418604651163,
          "velocity": 0.1732283464566929
        },
        {
          "duration": 0.05813953488372192,
          "durationTicks": 5,
          "midi": 61,
          "name": "C#4",
          "ticks": 2396,
          "time": 27.86046511627907,
          "velocity": 0.1889763779527559
        },
        {
          "duration": 0.22093023255813904,
          "durationTicks": 19,
          "midi": 58,
          "name": "A#3",
          "ticks": 2398,
          "time": 27.88372093023256,
          "velocity": 0.14960629921259844
        },
        {
          "duration": 0.03488372093023173,
          "durationTicks": 3,
          "midi": 53,
          "name": "F3",
          "ticks": 2409,
          "time": 28.011627906976745,
          "velocity": 0.10236220472440945
        },
        {
          "duration": 0.2209302325581426,
          "durationTicks": 19,
          "midi": 75,
          "name": "D#5",
          "ticks": 2418,
          "time": 28.11627906976744,
          "velocity": 0.1732283464566929
        },
        {
          "duration": 0.2558139534883743,
          "durationTicks": 22,
          "midi": 47,
          "name": "B2",
          "ticks": 2419,
          "time": 28.127906976744185,
          "velocity": 0.18110236220472442
        },
        {
          "duration": 0.02325581395349019,
          "durationTicks": 2,
          "midi": 53,
          "name": "F3",
          "ticks": 2442,
          "time": 28.3953488372093,
          "velocity": 0.23622047244094488
        },
        {
          "duration": 0.30232558139535115,
          "durationTicks": 26,
          "midi": 61,
          "name": "C#4",
          "ticks": 2442,
          "time": 28.3953488372093,
          "velocity": 0.29133858267716534
        },
        {
          "duration": 0.1046511627906952,
          "durationTicks": 9,
          "midi": 47,
          "name": "B2",
          "ticks": 2444,
          "time": 28.41860465116279,
          "velocity": 0.18110236220472442
        },
        {
          "duration": 0.10465116279069875,
          "durationTicks": 9,
          "midi": 54,
          "name": "F#3",
          "ticks": 2447,
          "time": 28.453488372093023,
          "velocity": 0.13385826771653545
        },
        {
          "duration": 0.03488372093023173,
          "durationTicks": 3,
          "midi": 53,
          "name": "F3",
          "ticks": 2456,
          "time": 28.558139534883722,
          "velocity": 0.12598425196850394
        },
        {
          "duration": 0.034883720930235285,
          "durationTicks": 3,
          "midi": 53,
          "name": "F3",
          "ticks": 2469,
          "time": 28.709302325581394,
          "velocity": 0.2992125984251969
        },
        {
          "duration": 1.4302325581395365,
          "durationTicks": 123,
          "midi": 58,
          "name": "A#3",
          "ticks": 2469,
          "time": 28.709302325581394,
          "velocity": 0.36220472440944884
        },
        {
          "duration": 0.023255813953486637,
          "durationTicks": 2,
          "midi": 41,
          "name": "F2",
          "ticks": 2472,
          "time": 28.74418604651163,
          "velocity": 0.3228346456692913
        },
        {
          "duration": 0.13953488372093048,
          "durationTicks": 12,
          "midi": 42,
          "name": "F#2",
          "ticks": 2474,
          "time": 28.767441860465116,
          "velocity": 0.3464566929133858
        },
        {
          "duration": 0.03488372093023173,
          "durationTicks": 3,
          "midi": 43,
          "name": "G2",
          "ticks": 2486,
          "time": 28.906976744186046,
          "velocity": 0.16535433070866143
        },
        {
          "duration": 0.15116279069767558,
          "durationTicks": 13,
          "midi": 42,
          "name": "F#2",
          "ticks": 2489,
          "time": 28.941860465116278,
          "velocity": 0.23622047244094488
        },
        {
          "duration": 0.15116279069767202,
          "durationTicks": 13,
          "midi": 42,
          "name": "F#2",
          "ticks": 2503,
          "time": 29.1046511627907,
          "velocity": 0.1732283464566929
        },
        {
          "duration": 0.13953488372093048,
          "durationTicks": 12,
          "midi": 42,
          "name": "F#2",
          "ticks": 2521,
          "time": 29.313953488372093,
          "velocity": 0.13385826771653545
        },
        {
          "duration": 0.03488372093023173,
          "durationTicks": 3,
          "midi": 53,
          "name": "F3",
          "ticks": 2542,
          "time": 29.558139534883722,
          "velocity": 0.13385826771653545
        },
        {
          "duration": 0.03488372093023173,
          "durationTicks": 3,
          "midi": 53,
          "name": "F3",
          "ticks": 2564,
          "time": 29.813953488372093,
          "velocity": 0.2125984251968504
        },
        {
          "duration": 0.03488372093023173,
          "durationTicks": 3,
          "midi": 41,
          "name": "F2",
          "ticks": 2565,
          "time": 29.825581395348838,
          "velocity": 0.28346456692913385
        },
        {
          "duration": 0.12790697674418539,
          "durationTicks": 11,
          "midi": 42,
          "name": "F#2",
          "ticks": 2568,
          "time": 29.86046511627907,
          "velocity": 0.3228346456692913
        },
        {
          "duration": 0.03488372093023173,
          "durationTicks": 3,
          "midi": 43,
          "name": "G2",
          "ticks": 2579,
          "time": 29.988372093023255,
          "velocity": 0.11023622047244094
        },
        {
          "duration": 0.13953488372093048,
          "durationTicks": 12,
          "midi": 42,
          "name": "F#2",
          "ticks": 2582,
          "time": 30.023255813953487,
          "velocity": 0.1968503937007874
        },
        {
          "duration": 0.034883720930235285,
          "durationTicks": 3,
          "midi": 43,
          "name": "G2",
          "ticks": 2594,
          "time": 30.162790697674417,
          "velocity": 0.07086614173228346
        },
        {
          "duration": 0.13953488372093048,
          "durationTicks": 12,
          "midi": 42,
          "name": "F#2",
          "ticks": 2597,
          "time": 30.197674418604652,
          "velocity": 0.13385826771653545
        },
        {
          "duration": 0.3488372093023244,
          "durationTicks": 30,
          "midi": 58,
          "name": "A#3",
          "ticks": 2601,
          "time": 30.24418604651163,
          "velocity": 0.14960629921259844
        },
        {
          "duration": 0.09302325581395365,
          "durationTicks": 8,
          "midi": 42,
          "name": "F#2",
          "ticks": 2613,
          "time": 30.38372093023256,
          "velocity": 0.09448818897637795
        },
        {
          "duration": 0.04651162790697683,
          "durationTicks": 4,
          "midi": 54,
          "name": "F#3",
          "ticks": 2653,
          "time": 30.848837209302324,
          "velocity": 0.10236220472440945
        },
        {
          "duration": 0.034883720930235285,
          "durationTicks": 3,
          "midi": 41,
          "name": "F2",
          "ticks": 2661,
          "time": 30.941860465116278,
          "velocity": 0.29133858267716534
        },
        {
          "duration": 0.12790697674418539,
          "durationTicks": 11,
          "midi": 42,
          "name": "F#2",
          "ticks": 2664,
          "time": 30.976744186046513,
          "velocity": 0.3464566929133858
        },
        {
          "duration": 0.03488372093023173,
          "durationTicks": 3,
          "midi": 43,
          "name": "G2",
          "ticks": 2675,
          "time": 31.1046511627907,
          "velocity": 0.14960629921259844
        },
        {
          "duration": 0.13953488372093048,
          "durationTicks": 12,
          "midi": 42,
          "name": "F#2",
          "ticks": 2678,
          "time": 31.13953488372093,
          "velocity": 0.2204724409448819
        },
        {
          "duration": 0.20930232558139394,
          "durationTicks": 18,
          "midi": 42,
          "name": "F#2",
          "ticks": 2691,
          "time": 31.290697674418606,
          "velocity": 0.14173228346456693
        },
        {
          "duration": 0.04651162790697683,
          "durationTicks": 4,
          "midi": 54,
          "name": "F#3",
          "ticks": 2706,
          "time": 31.46511627906977,
          "velocity": 0.1968503937007874
        },
        {
          "duration": 0.023255813953486637,
          "durationTicks": 2,
          "midi": 53,
          "name": "F3",
          "ticks": 2710,
          "time": 31.511627906976745,
          "velocity": 0.3228346456692913
        },
        {
          "duration": 0.12790697674418894,
          "durationTicks": 11,
          "midi": 42,
          "name": "F#2",
          "ticks": 2711,
          "time": 31.523255813953487,
          "velocity": 0.1889763779527559
        },
        {
          "duration": 0.29069767441860606,
          "durationTicks": 25,
          "midi": 54,
          "name": "F#3",
          "ticks": 2712,
          "time": 31.53488372093023,
          "velocity": 0.2992125984251969
        },
        {
          "duration": 0.2906976744186025,
          "durationTicks": 25,
          "midi": 54,
          "name": "F#3",
          "ticks": 2738,
          "time": 31.837209302325583,
          "velocity": 0.25196850393700787
        },
        {
          "duration": 0.023255813953483084,
          "durationTicks": 2,
          "midi": 60,
          "name": "C4",
          "ticks": 2762,
          "time": 32.116279069767444,
          "velocity": 0.2283464566929134
        },
        {
          "duration": 0.5116279069767486,
          "durationTicks": 44,
          "midi": 61,
          "name": "C#4",
          "ticks": 2764,
          "time": 32.13953488372093,
          "velocity": 0.28346456692913385
        },
        {
          "duration": 0.02325581395349019,
          "durationTicks": 2,
          "midi": 49,
          "name": "C#3",
          "ticks": 2765,
          "time": 32.151162790697676,
          "velocity": 0.25196850393700787
        },
        {
          "duration": 0.25581395348837077,
          "durationTicks": 22,
          "midi": 49,
          "name": "C#3",
          "ticks": 2771,
          "time": 32.22093023255814,
          "velocity": 0.2047244094488189
        },
        {
          "duration": 0.17441860465115866,
          "durationTicks": 15,
          "midi": 49,
          "name": "C#3",
          "ticks": 2794,
          "time": 32.48837209302326,
          "velocity": 0.1732283464566929
        },
        {
          "duration": 0.5465116279069804,
          "durationTicks": 47,
          "midi": 61,
          "name": "C#4",
          "ticks": 2809,
          "time": 32.66279069767442,
          "velocity": 0.25196850393700787
        },
        {
          "duration": 0.25581395348837077,
          "durationTicks": 22,
          "midi": 49,
          "name": "C#3",
          "ticks": 2810,
          "time": 32.674418604651166,
          "velocity": 0.14173228346456693
        },
        {
          "duration": 0.06976744186046346,
          "durationTicks": 6,
          "midi": 49,
          "name": "C#3",
          "ticks": 2840,
          "time": 33.02325581395349,
          "velocity": 0.07874015748031496
        },
        {
          "duration": 0.2558139534883779,
          "durationTicks": 22,
          "midi": 49,
          "name": "C#3",
          "ticks": 2858,
          "time": 33.23255813953488,
          "velocity": 0.16535433070866143
        },
        {
          "duration": 0.03488372093023173,
          "durationTicks": 3,
          "midi": 49,
          "name": "C#3",
          "ticks": 2886,
          "time": 33.55813953488372,
          "velocity": 0.13385826771653545
        },
        {
          "duration": 0.13953488372093403,
          "durationTicks": 12,
          "midi": 49,
          "name": "C#3",
          "ticks": 2893,
          "time": 33.63953488372093,
          "velocity": 0.11023622047244094
        },
        {
          "duration": 0.16279069767442422,
          "durationTicks": 14,
          "midi": 61,
          "name": "C#4",
          "ticks": 2906,
          "time": 33.7906976744186,
          "velocity": 0.15748031496062992
        },
        {
          "duration": 0.16279069767441712,
          "durationTicks": 14,
          "midi": 49,
          "name": "C#3",
          "ticks": 2911,
          "time": 33.848837209302324,
          "velocity": 0.07086614173228346
        },
        {
          "duration": 0.04651162790698038,
          "durationTicks": 4,
          "midi": 53,
          "name": "F3",
          "ticks": 2928,
          "time": 34.04651162790697,
          "velocity": 0.2992125984251969
        },
        {
          "duration": 0.03488372093023173,
          "durationTicks": 3,
          "midi": 53,
          "name": "F3",
          "ticks": 2935,
          "time": 34.127906976744185,
          "velocity": 0.2125984251968504
        },
        {
          "duration": 0.03488372093023173,
          "durationTicks": 3,
          "midi": 53,
          "name": "F3",
          "ticks": 2955,
          "time": 34.36046511627907,
          "velocity": 0.3543307086614173
        },
        {
          "duration": 0.03488372093023173,
          "durationTicks": 3,
          "midi": 41,
          "name": "F2",
          "ticks": 2959,
          "time": 34.406976744186046,
          "velocity": 0.12598425196850394
        },
        {
          "duration": 0.03488372093023884,
          "durationTicks": 3,
          "midi": 51,
          "name": "D#3",
          "ticks": 2960,
          "time": 34.41860465116279,
          "velocity": 0.33070866141732286
        },
        {
          "duration": 0.02325581395349019,
          "durationTicks": 2,
          "midi": 54,
          "name": "F#3",
          "ticks": 2964,
          "time": 34.46511627906977,
          "velocity": 0.2755905511811024
        },
        {
          "duration": 0.023255813953483084,
          "durationTicks": 2,
          "midi": 53,
          "name": "F3",
          "ticks": 2966,
          "time": 34.48837209302326,
          "velocity": 0.3779527559055118
        },
        {
          "duration": 0.04651162790698038,
          "durationTicks": 4,
          "midi": 51,
          "name": "D#3",
          "ticks": 2968,
          "time": 34.51162790697674,
          "velocity": 0.2755905511811024
        },
        {
          "duration": 0.023255813953483084,
          "durationTicks": 2,
          "midi": 53,
          "name": "F3",
          "ticks": 2974,
          "time": 34.58139534883721,
          "velocity": 0.33070866141732286
        },
        {
          "duration": 0.02325581395349019,
          "durationTicks": 2,
          "midi": 51,
          "name": "D#3",
          "ticks": 2978,
          "time": 34.627906976744185,
          "velocity": 0.23622047244094488
        },
        {
          "duration": 0.023255813953483084,
          "durationTicks": 2,
          "midi": 54,
          "name": "F#3",
          "ticks": 2990,
          "time": 34.76744186046512,
          "velocity": 0.25984251968503935
        },
        {
          "duration": 0.03488372093023173,
          "durationTicks": 3,
          "midi": 54,
          "name": "F#3",
          "ticks": 2993,
          "time": 34.80232558139535,
          "velocity": 0.15748031496062992
        },
        {
          "duration": 0.30232558139534405,
          "durationTicks": 26,
          "midi": 51,
          "name": "D#3",
          "ticks": 3006,
          "time": 34.95348837209303,
          "velocity": 0.3700787401574803
        },
        {
          "duration": 0.17441860465115866,
          "durationTicks": 15,
          "midi": 51,
          "name": "D#3",
          "ticks": 3033,
          "time": 35.26744186046512,
          "velocity": 0.16535433070866143
        },
        {
          "duration": 0.02325581395349019,
          "durationTicks": 2,
          "midi": 50,
          "name": "D3",
          "ticks": 3056,
          "time": 35.53488372093023,
          "velocity": 0.2283464566929134
        },
        {
          "duration": 0.5348837209302317,
          "durationTicks": 46,
          "midi": 51,
          "name": "D#3",
          "ticks": 3058,
          "time": 35.55813953488372,
          "velocity": 0.30708661417322836
        },
        {
          "duration": 0.8837209302325633,
          "durationTicks": 76,
          "midi": 58,
          "name": "A#3",
          "ticks": 3081,
          "time": 35.825581395348834,
          "velocity": 0.2047244094488189
        },
        {
          "duration": 0.03488372093023173,
          "durationTicks": 3,
          "midi": 51,
          "name": "D#3",
          "ticks": 3111,
          "time": 36.174418604651166,
          "velocity": 0.08661417322834646
        },
        {
          "duration": 0.5813953488372121,
          "durationTicks": 50,
          "midi": 51,
          "name": "D#3",
          "ticks": 3156,
          "time": 36.69767441860465,
          "velocity": 0.36220472440944884
        },
        {
          "duration": 0.03488372093023173,
          "durationTicks": 3,
          "midi": 41,
          "name": "F2",
          "ticks": 3157,
          "time": 36.7093023255814,
          "velocity": 0.11023622047244094
        },
        {
          "duration": 0.5930232558139537,
          "durationTicks": 51,
          "midi": 58,
          "name": "A#3",
          "ticks": 3181,
          "time": 36.98837209302326,
          "velocity": 0.16535433070866143
        },
        {
          "duration": 0.25581395348837077,
          "durationTicks": 22,
          "midi": 51,
          "name": "D#3",
          "ticks": 3213,
          "time": 37.36046511627907,
          "velocity": 0.33070866141732286
        },
        {
          "duration": 0.03488372093023173,
          "durationTicks": 3,
          "midi": 52,
          "name": "E3",
          "ticks": 3235,
          "time": 37.616279069767444,
          "velocity": 0.23622047244094488
        },
        {
          "duration": 0.2674418604651123,
          "durationTicks": 23,
          "midi": 51,
          "name": "D#3",
          "ticks": 3238,
          "time": 37.651162790697676,
          "velocity": 0.4015748031496063
        },
        {
          "duration": 0.03488372093023173,
          "durationTicks": 3,
          "midi": 53,
          "name": "F3",
          "ticks": 3264,
          "time": 37.95348837209303,
          "velocity": 0.33070866141732286
        },
        {
          "duration": 0.03488372093023173,
          "durationTicks": 3,
          "midi": 42,
          "name": "F#2",
          "ticks": 3265,
          "time": 37.96511627906977,
          "velocity": 0.08661417322834646
        },
        {
          "duration": 0.023255813953483084,
          "durationTicks": 2,
          "midi": 54,
          "name": "F#3",
          "ticks": 3267,
          "time": 37.98837209302326,
          "velocity": 0.28346456692913385
        },
        {
          "duration": 0.02325581395349019,
          "durationTicks": 2,
          "midi": 53,
          "name": "F3",
          "ticks": 3269,
          "time": 38.01162790697674,
          "velocity": 0.3228346456692913
        },
        {
          "duration": 0.2325581395348877,
          "durationTicks": 20,
          "midi": 54,
          "name": "F#3",
          "ticks": 3271,
          "time": 38.03488372093023,
          "velocity": 0.28346456692913385
        },
        {
          "duration": 0.023255813953483084,
          "durationTicks": 2,
          "midi": 52,
          "name": "E3",
          "ticks": 3291,
          "time": 38.26744186046512,
          "velocity": 0.28346456692913385
        },
        {
          "duration": 0.02325581395349019,
          "durationTicks": 2,
          "midi": 53,
          "name": "F3",
          "ticks": 3293,
          "time": 38.2906976744186,
          "velocity": 0.3700787401574803
        },
        {
          "duration": 0.24418604651162923,
          "durationTicks": 21,
          "midi": 66,
          "name": "F#4",
          "ticks": 3293,
          "time": 38.2906976744186,
          "velocity": 0.07874015748031496
        },
        {
          "duration": 0.2093023255813975,
          "durationTicks": 18,
          "midi": 54,
          "name": "F#3",
          "ticks": 3298,
          "time": 38.348837209302324,
          "velocity": 0.2992125984251969
        },
        {
          "duration": 0.046511627906973274,
          "durationTicks": 4,
          "midi": 53,
          "name": "F3",
          "ticks": 3316,
          "time": 38.55813953488372,
          "velocity": 0.2992125984251969
        },
        {
          "duration": 0.13953488372093403,
          "durationTicks": 12,
          "midi": 56,
          "name": "G#3",
          "ticks": 3320,
          "time": 38.604651162790695,
          "velocity": 0.33070866141732286
        },
        {
          "duration": 0.1046511627907023,
          "durationTicks": 9,
          "midi": 75,
          "name": "D#5",
          "ticks": 3320,
          "time": 38.604651162790695,
          "velocity": 0.07874015748031496
        },
        {
          "duration": 0.046511627906973274,
          "durationTicks": 4,
          "midi": 57,
          "name": "A3",
          "ticks": 3332,
          "time": 38.74418604651163,
          "velocity": 0.3543307086614173
        },
        {
          "duration": 0.46511627906976827,
          "durationTicks": 40,
          "midi": 58,
          "name": "A#3",
          "ticks": 3336,
          "time": 38.7906976744186,
          "velocity": 0.3700787401574803
        },
        {
          "duration": 0.02325581395349019,
          "durationTicks": 2,
          "midi": 50,
          "name": "D3",
          "ticks": 3374,
          "time": 39.23255813953488,
          "velocity": 0.30708661417322836
        },
        {
          "duration": 0.02325581395349019,
          "durationTicks": 2,
          "midi": 55,
          "name": "G3",
          "ticks": 3376,
          "time": 39.25581395348837,
          "velocity": 0.2755905511811024
        },
        {
          "duration": 0.023255813953483084,
          "durationTicks": 2,
          "midi": 50,
          "name": "D3",
          "ticks": 3377,
          "time": 39.26744186046512,
          "velocity": 0.3543307086614173
        },
        {
          "duration": 0.25581395348837077,
          "durationTicks": 22,
          "midi": 68,
          "name": "G#4",
          "ticks": 3377,
          "time": 39.26744186046512,
          "velocity": 0.11023622047244094
        },
        {
          "duration": 0.13953488372092693,
          "durationTicks": 12,
          "midi": 75,
          "name": "D#5",
          "ticks": 3377,
          "time": 39.26744186046512,
          "velocity": 0.07874015748031496
        },
        {
          "duration": 0.02325581395349019,
          "durationTicks": 2,
          "midi": 57,
          "name": "A3",
          "ticks": 3378,
          "time": 39.27906976744186,
          "velocity": 0.33070866141732286
        },
        {
          "duration": 0.023255813953483084,
          "durationTicks": 2,
          "midi": 56,
          "name": "G#3",
          "ticks": 3380,
          "time": 39.30232558139535,
          "velocity": 0.31496062992125984
        },
        {
          "duration": 0.1860465116279073,
          "durationTicks": 16,
          "midi": 49,
          "name": "C#3",
          "ticks": 3382,
          "time": 39.325581395348834,
          "velocity": 0.25984251968503935
        },
        {
          "duration": 0.1860465116279002,
          "durationTicks": 16,
          "midi": 56,
          "name": "G#3",
          "ticks": 3385,
          "time": 39.36046511627907,
          "velocity": 0.33070866141732286
        },
        {
          "duration": 0.02325581395349019,
          "durationTicks": 2,
          "midi": 50,
          "name": "D3",
          "ticks": 3398,
          "time": 39.51162790697674,
          "velocity": 0.29133858267716534
        },
        {
          "duration": 0.25581395348837077,
          "durationTicks": 22,
          "midi": 49,
          "name": "C#3",
          "ticks": 3400,
          "time": 39.53488372093023,
          "velocity": 0.2440944881889764
        },
        {
          "duration": 0.5348837209302317,
          "durationTicks": 46,
          "midi": 56,
          "name": "G#3",
          "ticks": 3402,
          "time": 39.55813953488372,
          "velocity": 0.2755905511811024
        },
        {
          "duration": 0.5813953488372121,
          "durationTicks": 50,
          "midi": 61,
          "name": "C#4",
          "ticks": 3422,
          "time": 39.7906976744186,
          "velocity": 0.2125984251968504
        },
        {
          "duration": 0.03488372093023173,
          "durationTicks": 3,
          "midi": 49,
          "name": "C#3",
          "ticks": 3423,
          "time": 39.80232558139535,
          "velocity": 0.1968503937007874
        },
        {
          "duration": 0.22093023255813904,
          "durationTicks": 19,
          "midi": 49,
          "name": "C#3",
          "ticks": 3430,
          "time": 39.883720930232556,
          "velocity": 0.16535433070866143
        },
        {
          "duration": 0.03488372093023173,
          "durationTicks": 3,
          "midi": 41,
          "name": "F2",
          "ticks": 3450,
          "time": 40.116279069767444,
          "velocity": 0.09448818897637795
        },
        {
          "duration": 0.5581395348837219,
          "durationTicks": 48,
          "midi": 56,
          "name": "G#3",
          "ticks": 3450,
          "time": 40.116279069767444,
          "velocity": 0.28346456692913385
        },
        {
          "duration": 0.2558139534883779,
          "durationTicks": 22,
          "midi": 49,
          "name": "C#3",
          "ticks": 3476,
          "time": 40.41860465116279,
          "velocity": 0.2440944881889764
        },
        {
          "duration": 0.02325581395349019,
          "durationTicks": 2,
          "midi": 50,
          "name": "D3",
          "ticks": 3500,
          "time": 40.69767441860465,
          "velocity": 0.2677165354330709
        },
        {
          "duration": 0.03488372093023173,
          "durationTicks": 3,
          "midi": 49,
          "name": "C#3",
          "ticks": 3502,
          "time": 40.72093023255814,
          "velocity": 0.18110236220472442
        },
        {
          "duration": 0.03488372093023173,
          "durationTicks": 3,
          "midi": 49,
          "name": "C#3",
          "ticks": 3506,
          "time": 40.76744186046512,
          "velocity": 0.2047244094488189
        },
        {
          "duration": 0.03488372093023173,
          "durationTicks": 3,
          "midi": 49,
          "name": "C#3",
          "ticks": 3513,
          "time": 40.848837209302324,
          "velocity": 0.1732283464566929
        },
        {
          "duration": 0.04651162790698038,
          "durationTicks": 4,
          "midi": 56,
          "name": "G#3",
          "ticks": 3516,
          "time": 40.883720930232556,
          "velocity": 0.16535433070866143
        },
        {
          "duration": 0.03488372093023173,
          "durationTicks": 3,
          "midi": 49,
          "name": "C#3",
          "ticks": 3520,
          "time": 40.93023255813954,
          "velocity": 0.14960629921259844
        },
        {
          "duration": 0.5,
          "durationTicks": 43,
          "midi": 61,
          "name": "C#4",
          "ticks": 3520,
          "time": 40.93023255813954,
          "velocity": 0.15748031496062992
        },
        {
          "duration": 0.22093023255813904,
          "durationTicks": 19,
          "midi": 56,
          "name": "G#3",
          "ticks": 3524,
          "time": 40.97674418604651,
          "velocity": 0.14960629921259844
        },
        {
          "duration": 0.2093023255813975,
          "durationTicks": 18,
          "midi": 49,
          "name": "C#3",
          "ticks": 3527,
          "time": 41.01162790697674,
          "velocity": 0.14960629921259844
        },
        {
          "duration": 0.5697674418604706,
          "durationTicks": 49,
          "midi": 56,
          "name": "G#3",
          "ticks": 3546,
          "time": 41.23255813953488,
          "velocity": 0.25196850393700787
        },
        {
          "duration": 0.1860465116279073,
          "durationTicks": 16,
          "midi": 61,
          "name": "C#4",
          "ticks": 3572,
          "time": 41.53488372093023,
          "velocity": 0.09448818897637795
        },
        {
          "duration": 0.2674418604651194,
          "durationTicks": 23,
          "midi": 49,
          "name": "C#3",
          "ticks": 3573,
          "time": 41.54651162790697,
          "velocity": 0.2677165354330709
        },
        {
          "duration": 0.05813953488372192,
          "durationTicks": 5,
          "midi": 49,
          "name": "C#3",
          "ticks": 3597,
          "time": 41.825581395348834,
          "velocity": 0.23622047244094488
        },
        {
          "duration": 0.05813953488372192,
          "durationTicks": 5,
          "midi": 49,
          "name": "C#3",
          "ticks": 3604,
          "time": 41.906976744186046,
          "velocity": 0.1968503937007874
        },
        {
          "duration": 0.1046511627907023,
          "durationTicks": 9,
          "midi": 49,
          "name": "C#3",
          "ticks": 3610,
          "time": 41.97674418604651,
          "velocity": 0.1732283464566929
        },
        {
          "duration": 0.06976744186046346,
          "durationTicks": 6,
          "midi": 56,
          "name": "G#3",
          "ticks": 3612,
          "time": 42,
          "velocity": 0.13385826771653545
        },
        {
          "duration": 0.5697674418604635,
          "durationTicks": 49,
          "midi": 61,
          "name": "C#4",
          "ticks": 3620,
          "time": 42.093023255813954,
          "velocity": 0.15748031496062992
        },
        {
          "duration": 0.5232558139534831,
          "durationTicks": 45,
          "midi": 65,
          "name": "F4",
          "ticks": 3622,
          "time": 42.116279069767444,
          "velocity": 0.08661417322834646
        },
        {
          "duration": 0.03488372093023173,
          "durationTicks": 3,
          "midi": 53,
          "name": "F3",
          "ticks": 3623,
          "time": 42.127906976744185,
          "velocity": 0.4094488188976378
        },
        {
          "duration": 0.17441860465115866,
          "durationTicks": 15,
          "midi": 53,
          "name": "F3",
          "ticks": 3627,
          "time": 42.174418604651166,
          "velocity": 0.3543307086614173
        },
        {
          "duration": 0.02325581395349019,
          "durationTicks": 2,
          "midi": 54,
          "name": "F#3",
          "ticks": 3642,
          "time": 42.348837209302324,
          "velocity": 0.25984251968503935
        },
        {
          "duration": 0.03488372093023173,
          "durationTicks": 3,
          "midi": 41,
          "name": "F2",
          "ticks": 3644,
          "time": 42.372093023255815,
          "velocity": 0.07874015748031496
        },
        {
          "duration": 0.02325581395349019,
          "durationTicks": 2,
          "midi": 56,
          "name": "G#3",
          "ticks": 3644,
          "time": 42.372093023255815,
          "velocity": 0.2283464566929134
        },
        {
          "duration": 0.25581395348837077,
          "durationTicks": 22,
          "midi": 56,
          "name": "G#3",
          "ticks": 3647,
          "time": 42.406976744186046,
          "velocity": 0.2755905511811024
        },
        {
          "duration": 0.081395348837205,
          "durationTicks": 7,
          "midi": 53,
          "name": "F3",
          "ticks": 3668,
          "time": 42.651162790697676,
          "velocity": 0.4566929133858268
        },
        {
          "duration": 0.05813953488372192,
          "durationTicks": 5,
          "midi": 53,
          "name": "F3",
          "ticks": 3676,
          "time": 42.74418604651163,
          "velocity": 0.3700787401574803
        },
        {
          "duration": 0.023255813953483084,
          "durationTicks": 2,
          "midi": 54,
          "name": "F#3",
          "ticks": 3681,
          "time": 42.80232558139535,
          "velocity": 0.31496062992125984
        },
        {
          "duration": 0.03488372093023173,
          "durationTicks": 3,
          "midi": 53,
          "name": "F3",
          "ticks": 3687,
          "time": 42.872093023255815,
          "velocity": 0.25196850393700787
        },
        {
          "duration": 0.02325581395349019,
          "durationTicks": 2,
          "midi": 53,
          "name": "F3",
          "ticks": 3695,
          "time": 42.96511627906977,
          "velocity": 0.25196850393700787
        },
        {
          "duration": 0.03488372093023173,
          "durationTicks": 3,
          "midi": 49,
          "name": "C#3",
          "ticks": 3696,
          "time": 42.97674418604651,
          "velocity": 0.2047244094488189
        },
        {
          "duration": 0.04651162790698038,
          "durationTicks": 4,
          "midi": 53,
          "name": "F3",
          "ticks": 3707,
          "time": 43.104651162790695,
          "velocity": 0.2204724409448819
        },
        {
          "duration": 0.2093023255813975,
          "durationTicks": 18,
          "midi": 56,
          "name": "G#3",
          "ticks": 3718,
          "time": 43.23255813953488,
          "velocity": 0.3228346456692913
        },
        {
          "duration": 0.2674418604651194,
          "durationTicks": 23,
          "midi": 61,
          "name": "C#4",
          "ticks": 3718,
          "time": 43.23255813953488,
          "velocity": 0.12598425196850394
        },
        {
          "duration": 0.03488372093023173,
          "durationTicks": 3,
          "midi": 41,
          "name": "F2",
          "ticks": 3719,
          "time": 43.24418604651163,
          "velocity": 0.1889763779527559
        },
        {
          "duration": 0.03488372093023173,
          "durationTicks": 3,
          "midi": 49,
          "name": "C#3",
          "ticks": 3728,
          "time": 43.348837209302324,
          "velocity": 0.14960629921259844
        },
        {
          "duration": 0.02325581395349019,
          "durationTicks": 2,
          "midi": 50,
          "name": "D3",
          "ticks": 3741,
          "time": 43.5,
          "velocity": 0.25196850393700787
        },
        {
          "duration": 0.02325581395349019,
          "durationTicks": 2,
          "midi": 55,
          "name": "G3",
          "ticks": 3741,
          "time": 43.5,
          "velocity": 0.2440944881889764
        },
        {
          "duration": 0.023255813953483084,
          "durationTicks": 2,
          "midi": 52,
          "name": "E3",
          "ticks": 3743,
          "time": 43.52325581395349,
          "velocity": 0.4094488188976378
        },
        {
          "duration": 0.24418604651162923,
          "durationTicks": 21,
          "midi": 65,
          "name": "F4",
          "ticks": 3743,
          "time": 43.52325581395349,
          "velocity": 0.11811023622047244
        },
        {
          "duration": 0.023255813953483084,
          "durationTicks": 2,
          "midi": 56,
          "name": "G#3",
          "ticks": 3748,
          "time": 43.58139534883721,
          "velocity": 0.2283464566929134
        },
        {
          "duration": 0.046511627906973274,
          "durationTicks": 4,
          "midi": 53,
          "name": "F3",
          "ticks": 3749,
          "time": 43.593023255813954,
          "velocity": 0.33858267716535434
        },
        {
          "duration": 0.02325581395349019,
          "durationTicks": 2,
          "midi": 56,
          "name": "G#3",
          "ticks": 3757,
          "time": 43.68604651162791,
          "velocity": 0.2755905511811024
        },
        {
          "duration": 0.023255813953483084,
          "durationTicks": 2,
          "midi": 53,
          "name": "F3",
          "ticks": 3759,
          "time": 43.7093023255814,
          "velocity": 0.2283464566929134
        },
        {
          "duration": 0.02325581395349019,
          "durationTicks": 2,
          "midi": 52,
          "name": "E3",
          "ticks": 3768,
          "time": 43.81395348837209,
          "velocity": 0.4645669291338583
        },
        {
          "duration": 0.12790697674418539,
          "durationTicks": 11,
          "midi": 66,
          "name": "F#4",
          "ticks": 3768,
          "time": 43.81395348837209,
          "velocity": 0.11023622047244094
        },
        {
          "duration": 0.03488372093023884,
          "durationTicks": 3,
          "midi": 41,
          "name": "F2",
          "ticks": 3769,
          "time": 43.825581395348834,
          "velocity": 0.1889763779527559
        },
        {
          "duration": 0.02325581395349019,
          "durationTicks": 2,
          "midi": 51,
          "name": "D#3",
          "ticks": 3770,
          "time": 43.83720930232558,
          "velocity": 0.4409448818897638
        },
        {
          "duration": 0.046511627906973274,
          "durationTicks": 4,
          "midi": 51,
          "name": "D#3",
          "ticks": 3773,
          "time": 43.872093023255815,
          "velocity": 0.33070866141732286
        },
        {
          "duration": 0.023255813953483084,
          "durationTicks": 2,
          "midi": 55,
          "name": "G3",
          "ticks": 3775,
          "time": 43.895348837209305,
          "velocity": 0.25196850393700787
        },
        {
          "duration": 0.02325581395349019,
          "durationTicks": 2,
          "midi": 54,
          "name": "F#3",
          "ticks": 3778,
          "time": 43.93023255813954,
          "velocity": 0.3464566929133858
        },
        {
          "duration": 0.023255813953483084,
          "durationTicks": 2,
          "midi": 53,
          "name": "F3",
          "ticks": 3780,
          "time": 43.95348837209303,
          "velocity": 0.4094488188976378
        },
        {
          "duration": 0.03488372093023173,
          "durationTicks": 3,
          "midi": 54,
          "name": "F#3",
          "ticks": 3786,
          "time": 44.02325581395349,
          "velocity": 0.3700787401574803
        },
        {
          "duration": 0.02325581395349019,
          "durationTicks": 2,
          "midi": 54,
          "name": "F#3",
          "ticks": 3790,
          "time": 44.06976744186046,
          "velocity": 0.25984251968503935
        },
        {
          "duration": 0.03488372093023173,
          "durationTicks": 3,
          "midi": 58,
          "name": "A#3",
          "ticks": 3792,
          "time": 44.093023255813954,
          "velocity": 0.1732283464566929
        },
        {
          "duration": 0.02325581395349019,
          "durationTicks": 2,
          "midi": 54,
          "name": "F#3",
          "ticks": 3795,
          "time": 44.127906976744185,
          "velocity": 0.31496062992125984
        },
        {
          "duration": 0.04651162790698038,
          "durationTicks": 4,
          "midi": 54,
          "name": "F#3",
          "ticks": 3798,
          "time": 44.16279069767442,
          "velocity": 0.25196850393700787
        },
        {
          "duration": 0.09302325581395365,
          "durationTicks": 8,
          "midi": 58,
          "name": "A#3",
          "ticks": 3800,
          "time": 44.18604651162791,
          "velocity": 0.1968503937007874
        },
        {
          "duration": 0.09302325581395365,
          "durationTicks": 8,
          "midi": 54,
          "name": "F#3",
          "ticks": 3803,
          "time": 44.22093023255814,
          "velocity": 0.2992125984251969
        },
        {
          "duration": 0.04651162790698038,
          "durationTicks": 4,
          "midi": 54,
          "name": "F#3",
          "ticks": 3812,
          "time": 44.325581395348834,
          "velocity": 0.2677165354330709
        },
        {
          "duration": 0.06976744186046346,
          "durationTicks": 6,
          "midi": 58,
          "name": "A#3",
          "ticks": 3813,
          "time": 44.33720930232558,
          "velocity": 0.1889763779527559
        },
        {
          "duration": 0.27906976744186096,
          "durationTicks": 24,
          "midi": 54,
          "name": "F#3",
          "ticks": 3820,
          "time": 44.41860465116279,
          "velocity": 0.25196850393700787
        },
        {
          "duration": 0.04651162790698038,
          "durationTicks": 4,
          "midi": 58,
          "name": "A#3",
          "ticks": 3828,
          "time": 44.51162790697674,
          "velocity": 0.11023622047244094
        },
        {
          "duration": 0.2674418604651123,
          "durationTicks": 23,
          "midi": 54,
          "name": "F#3",
          "ticks": 3845,
          "time": 44.7093023255814,
          "velocity": 0.18110236220472442
        },
        {
          "duration": 0.4534883720930196,
          "durationTicks": 39,
          "midi": 51,
          "name": "D#3",
          "ticks": 3869,
          "time": 44.98837209302326,
          "velocity": 0.3937007874015748
        },
        {
          "duration": 0.5232558139534902,
          "durationTicks": 45,
          "midi": 58,
          "name": "A#3",
          "ticks": 3890,
          "time": 45.23255813953488,
          "velocity": 0.2047244094488189
        },
        {
          "duration": 0.09302325581394655,
          "durationTicks": 8,
          "midi": 51,
          "name": "D#3",
          "ticks": 3909,
          "time": 45.45348837209303,
          "velocity": 0.16535433070866143
        },
        {
          "duration": 0.16279069767441712,
          "durationTicks": 14,
          "midi": 66,
          "name": "F#4",
          "ticks": 3913,
          "time": 45.5,
          "velocity": 0.08661417322834646
        },
        {
          "duration": 0.02325581395349019,
          "durationTicks": 2,
          "midi": 50,
          "name": "D3",
          "ticks": 3960,
          "time": 46.04651162790697,
          "velocity": 0.25984251968503935
        },
        {
          "duration": 0.5,
          "durationTicks": 43,
          "midi": 51,
          "name": "D#3",
          "ticks": 3962,
          "time": 46.06976744186046,
          "velocity": 0.3700787401574803
        },
        {
          "duration": 0.03488372093023173,
          "durationTicks": 3,
          "midi": 41,
          "name": "F2",
          "ticks": 3963,
          "time": 46.08139534883721,
          "velocity": 0.12598425196850394
        },
        {
          "duration": 0.3372093023255829,
          "durationTicks": 29,
          "midi": 58,
          "name": "A#3",
          "ticks": 3984,
          "time": 46.325581395348834,
          "velocity": 0.2283464566929134
        },
        {
          "duration": 0.03488372093023173,
          "durationTicks": 3,
          "midi": 53,
          "name": "F3",
          "ticks": 4006,
          "time": 46.58139534883721,
          "velocity": 0.3543307086614173
        },
        {
          "duration": 0.5465116279069733,
          "durationTicks": 47,
          "midi": 66,
          "name": "F#4",
          "ticks": 4006,
          "time": 46.58139534883721,
          "velocity": 0.1968503937007874
        },
        {
          "duration": 0.023255813953483084,
          "durationTicks": 2,
          "midi": 54,
          "name": "F#3",
          "ticks": 4009,
          "time": 46.616279069767444,
          "velocity": 0.2755905511811024
        },
        {
          "duration": 0.02325581395349019,
          "durationTicks": 2,
          "midi": 53,
          "name": "F3",
          "ticks": 4011,
          "time": 46.63953488372093,
          "velocity": 0.33070866141732286
        },
        {
          "duration": 0.1860465116279073,
          "durationTicks": 16,
          "midi": 54,
          "name": "F#3",
          "ticks": 4013,
          "time": 46.66279069767442,
          "velocity": 0.2677165354330709
        },
        {
          "duration": 0.1046511627907023,
          "durationTicks": 9,
          "midi": 85,
          "name": "C#6",
          "ticks": 4019,
          "time": 46.73255813953488,
          "velocity": 0.08661417322834646
        },
        {
          "duration": 0.046511627906973274,
          "durationTicks": 4,
          "midi": 58,
          "name": "A#3",
          "ticks": 4020,
          "time": 46.74418604651163,
          "velocity": 0.15748031496062992
        },
        {
          "duration": 0.03488372093023173,
          "durationTicks": 3,
          "midi": 58,
          "name": "A#3",
          "ticks": 4029,
          "time": 46.848837209302324,
          "velocity": 0.10236220472440945
        },
        {
          "duration": 0.03488372093023173,
          "durationTicks": 3,
          "midi": 54,
          "name": "F#3",
          "ticks": 4030,
          "time": 46.86046511627907,
          "velocity": 0.23622047244094488
        },
        {
          "duration": 0.023255813953483084,
          "durationTicks": 2,
          "midi": 53,
          "name": "F3",
          "ticks": 4033,
          "time": 46.895348837209305,
          "velocity": 0.33070866141732286
        },
        {
          "duration": 0.19767441860465595,
          "durationTicks": 17,
          "midi": 54,
          "name": "F#3",
          "ticks": 4035,
          "time": 46.91860465116279,
          "velocity": 0.33070866141732286
        },
        {
          "duration": 0.03488372093023173,
          "durationTicks": 3,
          "midi": 53,
          "name": "F3",
          "ticks": 4052,
          "time": 47.116279069767444,
          "velocity": 0.2204724409448819
        },
        {
          "duration": 0.058139534883714816,
          "durationTicks": 5,
          "midi": 42,
          "name": "F#2",
          "ticks": 4057,
          "time": 47.174418604651166,
          "velocity": 0.1968503937007874
        },
        {
          "duration": 0.5348837209302317,
          "durationTicks": 46,
          "midi": 51,
          "name": "D#3",
          "ticks": 4057,
          "time": 47.174418604651166,
          "velocity": 0.3858267716535433
        },
        {
          "duration": 0.8255813953488342,
          "durationTicks": 71,
          "midi": 58,
          "name": "A#3",
          "ticks": 4058,
          "time": 47.18604651162791,
          "velocity": 0.3779527559055118
        },
        {
          "duration": 0.05813953488372192,
          "durationTicks": 5,
          "midi": 52,
          "name": "E3",
          "ticks": 4103,
          "time": 47.7093023255814,
          "velocity": 0.23622047244094488
        },
        {
          "duration": 0.03488372093023884,
          "durationTicks": 3,
          "midi": 42,
          "name": "F#2",
          "ticks": 4105,
          "time": 47.73255813953488,
          "velocity": 0.10236220472440945
        },
        {
          "duration": 0.16279069767442422,
          "durationTicks": 14,
          "midi": 51,
          "name": "D#3",
          "ticks": 4110,
          "time": 47.7906976744186,
          "velocity": 0.15748031496062992
        },
        {
          "duration": 0.05813953488372192,
          "durationTicks": 5,
          "midi": 61,
          "name": "C#4",
          "ticks": 4121,
          "time": 47.91860465116279,
          "velocity": 0.15748031496062992
        },
        {
          "duration": 0.23255813953488058,
          "durationTicks": 20,
          "midi": 61,
          "name": "C#4",
          "ticks": 4130,
          "time": 48.02325581395349,
          "velocity": 0.3228346456692913
        },
        {
          "duration": 0.04651162790698038,
          "durationTicks": 4,
          "midi": 51,
          "name": "D#3",
          "ticks": 4137,
          "time": 48.104651162790695,
          "velocity": 0.09448818897637795
        },
        {
          "duration": 0.05813953488372192,
          "durationTicks": 5,
          "midi": 58,
          "name": "A#3",
          "ticks": 4149,
          "time": 48.24418604651163,
          "velocity": 0.18110236220472442
        },
        {
          "duration": 0.023255813953483084,
          "durationTicks": 2,
          "midi": 43,
          "name": "G2",
          "ticks": 4154,
          "time": 48.30232558139535,
          "velocity": 0.2677165354330709
        },
        {
          "duration": 0.13953488372093403,
          "durationTicks": 12,
          "midi": 61,
          "name": "C#4",
          "ticks": 4155,
          "time": 48.31395348837209,
          "velocity": 0.30708661417322836
        },
        {
          "duration": 0.24418604651162923,
          "durationTicks": 21,
          "midi": 47,
          "name": "B2",
          "ticks": 4157,
          "time": 48.33720930232558,
          "velocity": 0.2440944881889764
        },
        {
          "duration": 0.06976744186046346,
          "durationTicks": 6,
          "midi": 62,
          "name": "D4",
          "ticks": 4167,
          "time": 48.45348837209303,
          "velocity": 0.2677165354330709
        },
        {
          "duration": 0.02325581395349019,
          "durationTicks": 2,
          "midi": 53,
          "name": "F3",
          "ticks": 4179,
          "time": 48.593023255813954,
          "velocity": 0.2440944881889764
        },
        {
          "duration": 0.5232558139534902,
          "durationTicks": 45,
          "midi": 47,
          "name": "B2",
          "ticks": 4180,
          "time": 48.604651162790695,
          "velocity": 0.2283464566929134
        },
        {
          "duration": 0.24418604651162923,
          "durationTicks": 21,
          "midi": 54,
          "name": "F#3",
          "ticks": 4181,
          "time": 48.616279069767444,
          "velocity": 0.2204724409448819
        },
        {
          "duration": 0.2674418604651123,
          "durationTicks": 23,
          "midi": 54,
          "name": "F#3",
          "ticks": 4203,
          "time": 48.872093023255815,
          "velocity": 0.13385826771653545
        },
        {
          "duration": 0.13953488372092693,
          "durationTicks": 12,
          "midi": 63,
          "name": "D#4",
          "ticks": 4203,
          "time": 48.872093023255815,
          "velocity": 0.1889763779527559
        },
        {
          "duration": 0.04651162790698038,
          "durationTicks": 4,
          "midi": 58,
          "name": "A#3",
          "ticks": 4226,
          "time": 49.13953488372093,
          "velocity": 0.23622047244094488
        },
        {
          "duration": 0.03488372093023173,
          "durationTicks": 3,
          "midi": 53,
          "name": "F3",
          "ticks": 4228,
          "time": 49.16279069767442,
          "velocity": 0.25196850393700787
        },
        {
          "duration": 0.15116279069767558,
          "durationTicks": 13,
          "midi": 73,
          "name": "C#5",
          "ticks": 4230,
          "time": 49.18604651162791,
          "velocity": 0.10236220472440945
        },
        {
          "duration": 0.5581395348837219,
          "durationTicks": 48,
          "midi": 61,
          "name": "C#4",
          "ticks": 4231,
          "time": 49.19767441860465,
          "velocity": 0.29133858267716534
        },
        {
          "duration": 0.03488372093023173,
          "durationTicks": 3,
          "midi": 41,
          "name": "F2",
          "ticks": 4251,
          "time": 49.43023255813954,
          "velocity": 0.3858267716535433
        },
        {
          "duration": 0.5232558139534831,
          "durationTicks": 45,
          "midi": 54,
          "name": "F#3",
          "ticks": 4253,
          "time": 49.45348837209303,
          "velocity": 0.29133858267716534
        },
        {
          "duration": 0.13953488372092693,
          "durationTicks": 12,
          "midi": 42,
          "name": "F#2",
          "ticks": 4254,
          "time": 49.46511627906977,
          "velocity": 0.4251968503937008
        },
        {
          "duration": 0.03488372093023173,
          "durationTicks": 3,
          "midi": 43,
          "name": "G2",
          "ticks": 4266,
          "time": 49.604651162790695,
          "velocity": 0.23622047244094488
        },
        {
          "duration": 0.3139534883720998,
          "durationTicks": 27,
          "midi": 42,
          "name": "F#2",
          "ticks": 4269,
          "time": 49.63953488372093,
          "velocity": 0.28346456692913385
        },
        {
          "duration": 0.3139534883720927,
          "durationTicks": 27,
          "midi": 61,
          "name": "C#4",
          "ticks": 4296,
          "time": 49.95348837209303,
          "velocity": 0.2283464566929134
        },
        {
          "duration": 0.081395348837205,
          "durationTicks": 7,
          "midi": 42,
          "name": "F#2",
          "ticks": 4297,
          "time": 49.96511627906977,
          "velocity": 0.2677165354330709
        },
        {
          "duration": 0.03488372093023884,
          "durationTicks": 3,
          "midi": 43,
          "name": "G2",
          "ticks": 4304,
          "time": 50.04651162790697,
          "velocity": 0.11811023622047244
        },
        {
          "duration": 0.24418604651162212,
          "durationTicks": 21,
          "midi": 42,
          "name": "F#2",
          "ticks": 4307,
          "time": 50.08139534883721,
          "velocity": 0.2125984251968504
        },
        {
          "duration": 0.023255813953483084,
          "durationTicks": 2,
          "midi": 53,
          "name": "F3",
          "ticks": 4323,
          "time": 50.26744186046512,
          "velocity": 0.23622047244094488
        },
        {
          "duration": 0.38372093023255616,
          "durationTicks": 33,
          "midi": 58,
          "name": "A#3",
          "ticks": 4323,
          "time": 50.26744186046512,
          "velocity": 0.23622047244094488
        },
        {
          "duration": 0.03488372093023173,
          "durationTicks": 3,
          "midi": 41,
          "name": "F2",
          "ticks": 4348,
          "time": 50.55813953488372,
          "velocity": 0.33070866141732286
        },
        {
          "duration": 0.30232558139534405,
          "durationTicks": 26,
          "midi": 54,
          "name": "F#3",
          "ticks": 4350,
          "time": 50.58139534883721,
          "velocity": 0.25196850393700787
        },
        {
          "duration": 0.12790697674418539,
          "durationTicks": 11,
          "midi": 42,
          "name": "F#2",
          "ticks": 4351,
          "time": 50.593023255813954,
          "velocity": 0.3779527559055118
        },
        {
          "duration": 0.03488372093023173,
          "durationTicks": 3,
          "midi": 43,
          "name": "G2",
          "ticks": 4362,
          "time": 50.72093023255814,
          "velocity": 0.16535433070866143
        },
        {
          "duration": 0.38372093023256326,
          "durationTicks": 33,
          "midi": 58,
          "name": "A#3",
          "ticks": 4363,
          "time": 50.73255813953488,
          "velocity": 0.18110236220472442
        },
        {
          "duration": 0.11627906976744384,
          "durationTicks": 10,
          "midi": 42,
          "name": "F#2",
          "ticks": 4365,
          "time": 50.75581395348837,
          "velocity": 0.25196850393700787
        },
        {
          "duration": 0.15116279069767558,
          "durationTicks": 13,
          "midi": 42,
          "name": "F#2",
          "ticks": 4379,
          "time": 50.91860465116279,
          "velocity": 0.1968503937007874
        },
        {
          "duration": 0.30232558139535115,
          "durationTicks": 26,
          "midi": 61,
          "name": "C#4",
          "ticks": 4397,
          "time": 51.127906976744185,
          "velocity": 0.2677165354330709
        },
        {
          "duration": 0.03488372093023173,
          "durationTicks": 3,
          "midi": 42,
          "name": "F#2",
          "ticks": 4400,
          "time": 51.16279069767442,
          "velocity": 0.1889763779527559
        },
        {
          "duration": 0.023255813953483084,
          "durationTicks": 2,
          "midi": 54,
          "name": "F#3",
          "ticks": 4401,
          "time": 51.174418604651166,
          "velocity": 0.25196850393700787
        },
        {
          "duration": 0.05813953488372192,
          "durationTicks": 5,
          "midi": 42,
          "name": "F#2",
          "ticks": 4404,
          "time": 51.2093023255814,
          "velocity": 0.08661417322834646
        },
        {
          "duration": 0.2093023255813904,
          "durationTicks": 18,
          "midi": 54,
          "name": "F#3",
          "ticks": 4404,
          "time": 51.2093023255814,
          "velocity": 0.25196850393700787
        },
        {
          "duration": 0.1046511627907023,
          "durationTicks": 9,
          "midi": 42,
          "name": "F#2",
          "ticks": 4416,
          "time": 51.348837209302324,
          "velocity": 0.08661417322834646
        },
        {
          "duration": 0.02325581395349019,
          "durationTicks": 2,
          "midi": 51,
          "name": "D#3",
          "ticks": 4421,
          "time": 51.406976744186046,
          "velocity": 0.2755905511811024
        },
        {
          "duration": 0.02325581395349019,
          "durationTicks": 2,
          "midi": 53,
          "name": "F3",
          "ticks": 4423,
          "time": 51.43023255813954,
          "velocity": 0.3937007874015748
        },
        {
          "duration": 0.09302325581395365,
          "durationTicks": 8,
          "midi": 58,
          "name": "A#3",
          "ticks": 4423,
          "time": 51.43023255813954,
          "velocity": 0.28346456692913385
        },
        {
          "duration": 0.22093023255813904,
          "durationTicks": 19,
          "midi": 66,
          "name": "F#4",
          "ticks": 4423,
          "time": 51.43023255813954,
          "velocity": 0.07874015748031496
        },
        {
          "duration": 0.2093023255813904,
          "durationTicks": 18,
          "midi": 54,
          "name": "F#3",
          "ticks": 4425,
          "time": 51.45348837209303,
          "velocity": 0.3543307086614173
        },
        {
          "duration": 0.11627906976743674,
          "durationTicks": 10,
          "midi": 58,
          "name": "A#3",
          "ticks": 4436,
          "time": 51.58139534883721,
          "velocity": 0.2755905511811024
        },
        {
          "duration": 0.02325581395349019,
          "durationTicks": 2,
          "midi": 53,
          "name": "F3",
          "ticks": 4443,
          "time": 51.66279069767442,
          "velocity": 0.25196850393700787
        },
        {
          "duration": 0.023255813953483084,
          "durationTicks": 2,
          "midi": 53,
          "name": "F3",
          "ticks": 4447,
          "time": 51.7093023255814,
          "velocity": 0.36220472440944884
        },
        {
          "duration": 0.02325581395349019,
          "durationTicks": 2,
          "midi": 41,
          "name": "F2",
          "ticks": 4448,
          "time": 51.72093023255814,
          "velocity": 0.3700787401574803
        },
        {
          "duration": 0.7558139534883708,
          "durationTicks": 65,
          "midi": 58,
          "name": "A#3",
          "ticks": 4448,
          "time": 51.72093023255814,
          "velocity": 0.33858267716535434
        },
        {
          "duration": 0.05813953488372192,
          "durationTicks": 5,
          "midi": 54,
          "name": "F#3",
          "ticks": 4449,
          "time": 51.73255813953488,
          "velocity": 0.2992125984251969
        },
        {
          "duration": 0.13953488372092693,
          "durationTicks": 12,
          "midi": 42,
          "name": "F#2",
          "ticks": 4450,
          "time": 51.74418604651163,
          "velocity": 0.4094488188976378
        },
        {
          "duration": 0.03488372093023173,
          "durationTicks": 3,
          "midi": 43,
          "name": "G2",
          "ticks": 4462,
          "time": 51.883720930232556,
          "velocity": 0.1968503937007874
        },
        {
          "duration": 0.06976744186047057,
          "durationTicks": 6,
          "midi": 42,
          "name": "F#2",
          "ticks": 4465,
          "time": 51.91860465116279,
          "velocity": 0.2755905511811024
        },
        {
          "duration": 0.04651162790698038,
          "durationTicks": 4,
          "midi": 49,
          "name": "C#3",
          "ticks": 4473,
          "time": 52.01162790697674,
          "velocity": 0.1968503937007874
        },
        {
          "duration": 0.16279069767441712,
          "durationTicks": 14,
          "midi": 42,
          "name": "F#2",
          "ticks": 4474,
          "time": 52.02325581395349,
          "velocity": 0.1968503937007874
        },
        {
          "duration": 0.05813953488372192,
          "durationTicks": 5,
          "midi": 49,
          "name": "C#3",
          "ticks": 4484,
          "time": 52.13953488372093,
          "velocity": 0.15748031496062992
        },
        {
          "duration": 0.03488372093023173,
          "durationTicks": 3,
          "midi": 42,
          "name": "F#2",
          "ticks": 4489,
          "time": 52.19767441860465,
          "velocity": 0.14960629921259844
        },
        {
          "duration": 0.03488372093023173,
          "durationTicks": 3,
          "midi": 49,
          "name": "C#3",
          "ticks": 4493,
          "time": 52.24418604651163,
          "velocity": 0.2283464566929134
        },
        {
          "duration": 0.02325581395349019,
          "durationTicks": 2,
          "midi": 50,
          "name": "D3",
          "ticks": 4496,
          "time": 52.27906976744186,
          "velocity": 0.25196850393700787
        },
        {
          "duration": 0.03488372093023173,
          "durationTicks": 3,
          "midi": 61,
          "name": "C#4",
          "ticks": 4496,
          "time": 52.27906976744186,
          "velocity": 0.25196850393700787
        },
        {
          "duration": 0.04651162790698038,
          "durationTicks": 4,
          "midi": 42,
          "name": "F#2",
          "ticks": 4500,
          "time": 52.325581395348834,
          "velocity": 0.14960629921259844
        },
        {
          "duration": 0.16279069767441712,
          "durationTicks": 14,
          "midi": 49,
          "name": "C#3",
          "ticks": 4504,
          "time": 52.372093023255815,
          "velocity": 0.11023622047244094
        },
        {
          "duration": 0.05813953488372192,
          "durationTicks": 5,
          "midi": 42,
          "name": "F#2",
          "ticks": 4510,
          "time": 52.44186046511628,
          "velocity": 0.07874015748031496
        },
        {
          "duration": 0.06976744186046346,
          "durationTicks": 6,
          "midi": 54,
          "name": "F#3",
          "ticks": 4511,
          "time": 52.45348837209303,
          "velocity": 0.09448818897637795
        },
        {
          "duration": 0.03488372093023173,
          "durationTicks": 3,
          "midi": 61,
          "name": "C#4",
          "ticks": 4512,
          "time": 52.46511627906977,
          "velocity": 0.14173228346456693
        },
        {
          "duration": 0.058139534883714816,
          "durationTicks": 5,
          "midi": 58,
          "name": "A#3",
          "ticks": 4514,
          "time": 52.48837209302326,
          "velocity": 0.12598425196850394
        },
        {
          "duration": 0.03488372093023884,
          "durationTicks": 3,
          "midi": 49,
          "name": "C#3",
          "ticks": 4519,
          "time": 52.54651162790697,
          "velocity": 0.10236220472440945
        },
        {
          "duration": 0.27906976744186096,
          "durationTicks": 24,
          "midi": 61,
          "name": "C#4",
          "ticks": 4519,
          "time": 52.54651162790697,
          "velocity": 0.3543307086614173
        },
        {
          "duration": 0.02325581395349019,
          "durationTicks": 2,
          "midi": 52,
          "name": "E3",
          "ticks": 4523,
          "time": 52.593023255813954,
          "velocity": 0.2440944881889764
        },
        {
          "duration": 0.058139534883714816,
          "durationTicks": 5,
          "midi": 42,
          "name": "F#2",
          "ticks": 4530,
          "time": 52.674418604651166,
          "velocity": 0.09448818897637795
        },
        {
          "duration": 0.03488372093023884,
          "durationTicks": 3,
          "midi": 53,
          "name": "F3",
          "ticks": 4535,
          "time": 52.73255813953488,
          "velocity": 0.12598425196850394
        },
        {
          "duration": 0.13953488372093403,
          "durationTicks": 12,
          "midi": 61,
          "name": "C#4",
          "ticks": 4545,
          "time": 52.848837209302324,
          "velocity": 0.33858267716535434
        },
        {
          "duration": 0.24418604651162923,
          "durationTicks": 21,
          "midi": 47,
          "name": "B2",
          "ticks": 4553,
          "time": 52.94186046511628,
          "velocity": 0.25196850393700787
        },
        {
          "duration": 0.058139534883714816,
          "durationTicks": 5,
          "midi": 62,
          "name": "D4",
          "ticks": 4557,
          "time": 52.98837209302326,
          "velocity": 0.30708661417322836
        },
        {
          "duration": 0.3720930232558146,
          "durationTicks": 32,
          "midi": 75,
          "name": "D#5",
          "ticks": 4561,
          "time": 53.03488372093023,
          "velocity": 0.14960629921259844
        },
        {
          "duration": 0.03488372093023173,
          "durationTicks": 3,
          "midi": 53,
          "name": "F3",
          "ticks": 4573,
          "time": 53.174418604651166,
          "velocity": 0.2440944881889764
        },
        {
          "duration": 0.5697674418604706,
          "durationTicks": 49,
          "midi": 47,
          "name": "B2",
          "ticks": 4575,
          "time": 53.19767441860465,
          "velocity": 0.23622047244094488
        },
        {
          "duration": 0.23255813953488058,
          "durationTicks": 20,
          "midi": 54,
          "name": "F#3",
          "ticks": 4579,
          "time": 53.24418604651163,
          "velocity": 0.16535433070866143
        },
        {
          "duration": 0.023255813953483084,
          "durationTicks": 2,
          "midi": 62,
          "name": "D4",
          "ticks": 4597,
          "time": 53.45348837209303,
          "velocity": 0.29133858267716534
        },
        {
          "duration": 0.13953488372092693,
          "durationTicks": 12,
          "midi": 75,
          "name": "D#5",
          "ticks": 4597,
          "time": 53.45348837209303,
          "velocity": 0.1968503937007874
        },
        {
          "duration": 0.08139534883721211,
          "durationTicks": 7,
          "midi": 63,
          "name": "D#4",
          "ticks": 4599,
          "time": 53.47674418604651,
          "velocity": 0.2204724409448819
        },
        {
          "duration": 0.2093023255813904,
          "durationTicks": 18,
          "midi": 54,
          "name": "F#3",
          "ticks": 4603,
          "time": 53.52325581395349,
          "velocity": 0.11023622047244094
        },
        {
          "duration": 0.06976744186046346,
          "durationTicks": 6,
          "midi": 82,
          "name": "A#5",
          "ticks": 4606,
          "time": 53.55813953488372,
          "velocity": 0.07086614173228346
        },
        {
          "duration": 0.03488372093023884,
          "durationTicks": 3,
          "midi": 62,
          "name": "D4",
          "ticks": 4621,
          "time": 53.73255813953488,
          "velocity": 0.12598425196850394
        },
        {
          "duration": 0.02325581395349019,
          "durationTicks": 2,
          "midi": 59,
          "name": "B3",
          "ticks": 4623,
          "time": 53.75581395348837,
          "velocity": 0.3464566929133858
        },
        {
          "duration": 0.023255813953483084,
          "durationTicks": 2,
          "midi": 53,
          "name": "F3",
          "ticks": 4624,
          "time": 53.76744186046512,
          "velocity": 0.2677165354330709
        },
        {
          "duration": 0.27906976744186096,
          "durationTicks": 24,
          "midi": 73,
          "name": "C#5",
          "ticks": 4625,
          "time": 53.77906976744186,
          "velocity": 0.14960629921259844
        },
        {
          "duration": 0.04651162790698038,
          "durationTicks": 4,
          "midi": 58,
          "name": "A#3",
          "ticks": 4628,
          "time": 53.81395348837209,
          "velocity": 0.28346456692913385
        },
        {
          "duration": 0.48837209302325846,
          "durationTicks": 42,
          "midi": 61,
          "name": "C#4",
          "ticks": 4628,
          "time": 53.81395348837209,
          "velocity": 0.25984251968503935
        },
        {
          "duration": 0.03488372093023173,
          "durationTicks": 3,
          "midi": 52,
          "name": "E3",
          "ticks": 4636,
          "time": 53.906976744186046,
          "velocity": 0.07874015748031496
        },
        {
          "duration": 0.046511627906973274,
          "durationTicks": 4,
          "midi": 41,
          "name": "F2",
          "ticks": 4646,
          "time": 54.02325581395349,
          "velocity": 0.3779527559055118
        },
        {
          "duration": 0.4534883720930196,
          "durationTicks": 39,
          "midi": 54,
          "name": "F#3",
          "ticks": 4649,
          "time": 54.05813953488372,
          "velocity": 0.2677165354330709
        },
        {
          "duration": 0.12790697674418539,
          "durationTicks": 11,
          "midi": 42,
          "name": "F#2",
          "ticks": 4650,
          "time": 54.06976744186046,
          "velocity": 0.4015748031496063
        },
        {
          "duration": 0.03488372093023173,
          "durationTicks": 3,
          "midi": 43,
          "name": "G2",
          "ticks": 4661,
          "time": 54.19767441860465,
          "velocity": 0.2047244094488189
        },
        {
          "duration": 0.09302325581395365,
          "durationTicks": 8,
          "midi": 42,
          "name": "F#2",
          "ticks": 4664,
          "time": 54.23255813953488,
          "velocity": 0.28346456692913385
        },
        {
          "duration": 0.06976744186046346,
          "durationTicks": 6,
          "midi": 42,
          "name": "F#2",
          "ticks": 4673,
          "time": 54.33720930232558,
          "velocity": 0.2440944881889764
        },
        {
          "duration": 0.13953488372093403,
          "durationTicks": 12,
          "midi": 42,
          "name": "F#2",
          "ticks": 4682,
          "time": 54.44186046511628,
          "velocity": 0.18110236220472442
        },
        {
          "duration": 0.3139534883720927,
          "durationTicks": 27,
          "midi": 61,
          "name": "C#4",
          "ticks": 4694,
          "time": 54.58139534883721,
          "velocity": 0.23622047244094488
        },
        {
          "duration": 0.13953488372092693,
          "durationTicks": 12,
          "midi": 42,
          "name": "F#2",
          "ticks": 4700,
          "time": 54.651162790697676,
          "velocity": 0.1732283464566929
        },
        {
          "duration": 0.12790697674418539,
          "durationTicks": 11,
          "midi": 42,
          "name": "F#2",
          "ticks": 4716,
          "time": 54.83720930232558,
          "velocity": 0.14173228346456693
        },
        {
          "duration": 0.8255813953488342,
          "durationTicks": 71,
          "midi": 58,
          "name": "A#3",
          "ticks": 4721,
          "time": 54.895348837209305,
          "velocity": 0.2992125984251969
        },
        {
          "duration": 0.03488372093023884,
          "durationTicks": 3,
          "midi": 42,
          "name": "F#2",
          "ticks": 4734,
          "time": 55.04651162790697,
          "velocity": 0.07086614173228346
        },
        {
          "duration": 0.023255813953483084,
          "durationTicks": 2,
          "midi": 53,
          "name": "F3",
          "ticks": 4745,
          "time": 55.174418604651166,
          "velocity": 0.2440944881889764
        },
        {
          "duration": 0.02325581395349019,
          "durationTicks": 2,
          "midi": 41,
          "name": "F2",
          "ticks": 4746,
          "time": 55.18604651162791,
          "velocity": 0.3543307086614173
        },
        {
          "duration": 0.12790697674418539,
          "durationTicks": 11,
          "midi": 42,
          "name": "F#2",
          "ticks": 4748,
          "time": 55.2093023255814,
          "velocity": 0.3779527559055118
        },
        {
          "duration": 0.03488372093023173,
          "durationTicks": 3,
          "midi": 43,
          "name": "G2",
          "ticks": 4759,
          "time": 55.33720930232558,
          "velocity": 0.1732283464566929
        },
        {
          "duration": 0.12790697674418539,
          "durationTicks": 11,
          "midi": 42,
          "name": "F#2",
          "ticks": 4762,
          "time": 55.372093023255815,
          "velocity": 0.2755905511811024
        },
        {
          "duration": 0.17441860465116577,
          "durationTicks": 15,
          "midi": 42,
          "name": "F#2",
          "ticks": 4777,
          "time": 55.54651162790697,
          "velocity": 0.18110236220472442
        },
        {
          "duration": 0.30232558139535115,
          "durationTicks": 26,
          "midi": 61,
          "name": "C#4",
          "ticks": 4793,
          "time": 55.73255813953488,
          "velocity": 0.28346456692913385
        },
        {
          "duration": 0.02325581395349019,
          "durationTicks": 2,
          "midi": 53,
          "name": "F3",
          "ticks": 4794,
          "time": 55.74418604651163,
          "velocity": 0.3858267716535433
        },
        {
          "duration": 0.023255813953483084,
          "durationTicks": 2,
          "midi": 54,
          "name": "F#3",
          "ticks": 4796,
          "time": 55.76744186046512,
          "velocity": 0.30708661417322836
        },
        {
          "duration": 0.1860465116279073,
          "durationTicks": 16,
          "midi": 54,
          "name": "F#3",
          "ticks": 4799,
          "time": 55.80232558139535,
          "velocity": 0.29133858267716534
        },
        {
          "duration": 0.03488372093023884,
          "durationTicks": 3,
          "midi": 42,
          "name": "F#2",
          "ticks": 4801,
          "time": 55.825581395348834,
          "velocity": 0.10236220472440945
        },
        {
          "duration": 0.06976744186047057,
          "durationTicks": 6,
          "midi": 58,
          "name": "A#3",
          "ticks": 4806,
          "time": 55.883720930232556,
          "velocity": 0.1732283464566929
        },
        {
          "duration": 0.05813953488372192,
          "durationTicks": 5,
          "midi": 42,
          "name": "F#2",
          "ticks": 4810,
          "time": 55.93023255813954,
          "velocity": 0.11023622047244094
        },
        {
          "duration": 0.27906976744186096,
          "durationTicks": 24,
          "midi": 58,
          "name": "A#3",
          "ticks": 4820,
          "time": 56.04651162790697,
          "velocity": 0.3464566929133858
        },
        {
          "duration": 0.25581395348837077,
          "durationTicks": 22,
          "midi": 66,
          "name": "F#4",
          "ticks": 4821,
          "time": 56.05813953488372,
          "velocity": 0.07086614173228346
        },
        {
          "duration": 0.04651162790698038,
          "durationTicks": 4,
          "midi": 42,
          "name": "F#2",
          "ticks": 4822,
          "time": 56.06976744186046,
          "velocity": 0.1968503937007874
        },
        {
          "duration": 0.16279069767442422,
          "durationTicks": 14,
          "midi": 54,
          "name": "F#3",
          "ticks": 4833,
          "time": 56.19767441860465,
          "velocity": 0.30708661417322836
        },
        {
          "duration": 0.023255813953483084,
          "durationTicks": 2,
          "midi": 53,
          "name": "F3",
          "ticks": 4847,
          "time": 56.36046511627907,
          "velocity": 0.2992125984251969
        },
        {
          "duration": 0.1046511627906952,
          "durationTicks": 9,
          "midi": 61,
          "name": "C#4",
          "ticks": 4847,
          "time": 56.36046511627907,
          "velocity": 0.33070866141732286
        },
        {
          "duration": 0.5116279069767486,
          "durationTicks": 44,
          "midi": 47,
          "name": "B2",
          "ticks": 4849,
          "time": 56.383720930232556,
          "velocity": 0.2047244094488189
        },
        {
          "duration": 0.05813953488372192,
          "durationTicks": 5,
          "midi": 62,
          "name": "D4",
          "ticks": 4856,
          "time": 56.46511627906977,
          "velocity": 0.29133858267716534
        },
        {
          "duration": 0.3604651162790731,
          "durationTicks": 31,
          "midi": 75,
          "name": "D#5",
          "ticks": 4860,
          "time": 56.51162790697674,
          "velocity": 0.11811023622047244
        },
        {
          "duration": 0.2093023255813975,
          "durationTicks": 18,
          "midi": 75,
          "name": "D#5",
          "ticks": 4894,
          "time": 56.906976744186046,
          "velocity": 0.2047244094488189
        },
        {
          "duration": 0.046511627906973274,
          "durationTicks": 4,
          "midi": 47,
          "name": "B2",
          "ticks": 4907,
          "time": 57.05813953488372,
          "velocity": 0.16535433070866143
        },
        {
          "duration": 0.05813953488372192,
          "durationTicks": 5,
          "midi": 47,
          "name": "B2",
          "ticks": 4912,
          "time": 57.116279069767444,
          "velocity": 0.1732283464566929
        },
        {
          "duration": 0.8720930232558146,
          "durationTicks": 75,
          "midi": 59,
          "name": "B3",
          "ticks": 4919,
          "time": 57.19767441860465,
          "velocity": 0.2677165354330709
        },
        {
          "duration": 0.09302325581395365,
          "durationTicks": 8,
          "midi": 47,
          "name": "B2",
          "ticks": 4922,
          "time": 57.23255813953488,
          "velocity": 0.1968503937007874
        },
        {
          "duration": 0.5,
          "durationTicks": 43,
          "midi": 75,
          "name": "D#5",
          "ticks": 4923,
          "time": 57.24418604651163,
          "velocity": 0.18110236220472442
        },
        {
          "duration": 0.15116279069766847,
          "durationTicks": 13,
          "midi": 94,
          "name": "A#6",
          "ticks": 4925,
          "time": 57.26744186046512,
          "velocity": 0.07086614173228346
        },
        {
          "duration": 0.02325581395349019,
          "durationTicks": 2,
          "midi": 45,
          "name": "A2",
          "ticks": 4943,
          "time": 57.47674418604651,
          "velocity": 0.2677165354330709
        },
        {
          "duration": 0.5232558139534831,
          "durationTicks": 45,
          "midi": 47,
          "name": "B2",
          "ticks": 4947,
          "time": 57.52325581395349,
          "velocity": 0.2125984251968504
        },
        {
          "duration": 0.04651162790698038,
          "durationTicks": 4,
          "midi": 63,
          "name": "D#4",
          "ticks": 4991,
          "time": 58.03488372093023,
          "velocity": 0.1732283464566929
        },
        {
          "duration": 0.2906976744186025,
          "durationTicks": 25,
          "midi": 47,
          "name": "B2",
          "ticks": 4993,
          "time": 58.05813953488372,
          "velocity": 0.2204724409448819
        },
        {
          "duration": 0.2093023255813904,
          "durationTicks": 18,
          "midi": 75,
          "name": "D#5",
          "ticks": 4995,
          "time": 58.08139534883721,
          "velocity": 0.14173228346456693
        },
        {
          "duration": 0.02325581395349019,
          "durationTicks": 2,
          "midi": 58,
          "name": "A#3",
          "ticks": 5017,
          "time": 58.33720930232558,
          "velocity": 0.33858267716535434
        },
        {
          "duration": 1.0697674418604635,
          "durationTicks": 92,
          "midi": 59,
          "name": "B3",
          "ticks": 5019,
          "time": 58.36046511627907,
          "velocity": 0.3464566929133858
        },
        {
          "duration": 0.24418604651162212,
          "durationTicks": 21,
          "midi": 77,
          "name": "F5",
          "ticks": 5019,
          "time": 58.36046511627907,
          "velocity": 0.2204724409448819
        },
        {
          "duration": 0.24418604651162212,
          "durationTicks": 21,
          "midi": 84,
          "name": "C6",
          "ticks": 5019,
          "time": 58.36046511627907,
          "velocity": 0.16535433070866143
        },
        {
          "duration": 0.12790697674418539,
          "durationTicks": 11,
          "midi": 47,
          "name": "B2",
          "ticks": 5020,
          "time": 58.372093023255815,
          "velocity": 0.15748031496062992
        },
        {
          "duration": 0.02325581395349019,
          "durationTicks": 2,
          "midi": 45,
          "name": "A2",
          "ticks": 5042,
          "time": 58.627906976744185,
          "velocity": 0.2677165354330709
        },
        {
          "duration": 0.11627906976744384,
          "durationTicks": 10,
          "midi": 77,
          "name": "F5",
          "ticks": 5044,
          "time": 58.651162790697676,
          "velocity": 0.28346456692913385
        },
        {
          "duration": 0.11627906976744384,
          "durationTicks": 10,
          "midi": 84,
          "name": "C6",
          "ticks": 5044,
          "time": 58.651162790697676,
          "velocity": 0.2125984251968504
        },
        {
          "duration": 0.5232558139534902,
          "durationTicks": 45,
          "midi": 47,
          "name": "B2",
          "ticks": 5047,
          "time": 58.68604651162791,
          "velocity": 0.1968503937007874
        },
        {
          "duration": 0.4534883720930196,
          "durationTicks": 39,
          "midi": 66,
          "name": "F#4",
          "ticks": 5054,
          "time": 58.76744186046512,
          "velocity": 0.07874015748031496
        },
        {
          "duration": 0.22093023255813904,
          "durationTicks": 19,
          "midi": 66,
          "name": "F#4",
          "ticks": 5097,
          "time": 59.26744186046512,
          "velocity": 0.15748031496062992
        },
        {
          "duration": 0.23255813953488058,
          "durationTicks": 20,
          "midi": 85,
          "name": "C#6",
          "ticks": 5097,
          "time": 59.26744186046512,
          "velocity": 0.1889763779527559
        },
        {
          "duration": 0.04651162790698038,
          "durationTicks": 4,
          "midi": 47,
          "name": "B2",
          "ticks": 5099,
          "time": 59.2906976744186,
          "velocity": 0.14173228346456693
        },
        {
          "duration": 0.04651162790698038,
          "durationTicks": 4,
          "midi": 47,
          "name": "B2",
          "ticks": 5104,
          "time": 59.348837209302324,
          "velocity": 0.14173228346456693
        },
        {
          "duration": 0.1046511627906952,
          "durationTicks": 9,
          "midi": 47,
          "name": "B2",
          "ticks": 5109,
          "time": 59.406976744186046,
          "velocity": 0.2125984251968504
        },
        {
          "duration": 0.02325581395349019,
          "durationTicks": 2,
          "midi": 58,
          "name": "A#3",
          "ticks": 5117,
          "time": 59.5,
          "velocity": 0.23622047244094488
        },
        {
          "duration": 0.03488372093023173,
          "durationTicks": 3,
          "midi": 52,
          "name": "E3",
          "ticks": 5119,
          "time": 59.52325581395349,
          "velocity": 0.2204724409448819
        },
        {
          "duration": 1.058139534883722,
          "durationTicks": 91,
          "midi": 59,
          "name": "B3",
          "ticks": 5119,
          "time": 59.52325581395349,
          "velocity": 0.25196850393700787
        },
        {
          "duration": 0.22093023255813904,
          "durationTicks": 19,
          "midi": 66,
          "name": "F#4",
          "ticks": 5119,
          "time": 59.52325581395349,
          "velocity": 0.15748031496062992
        },
        {
          "duration": 0.16279069767441712,
          "durationTicks": 14,
          "midi": 78,
          "name": "F#5",
          "ticks": 5119,
          "time": 59.52325581395349,
          "velocity": 0.15748031496062992
        },
        {
          "duration": 0.22093023255813904,
          "durationTicks": 19,
          "midi": 85,
          "name": "C#6",
          "ticks": 5119,
          "time": 59.52325581395349,
          "velocity": 0.15748031496062992
        },
        {
          "duration": 0.15116279069767558,
          "durationTicks": 13,
          "midi": 65,
          "name": "F4",
          "ticks": 5144,
          "time": 59.81395348837209,
          "velocity": 0.07874015748031496
        },
        {
          "duration": 0.23255813953488058,
          "durationTicks": 20,
          "midi": 77,
          "name": "F5",
          "ticks": 5144,
          "time": 59.81395348837209,
          "velocity": 0.29133858267716534
        },
        {
          "duration": 0.25581395348837077,
          "durationTicks": 22,
          "midi": 84,
          "name": "C6",
          "ticks": 5144,
          "time": 59.81395348837209,
          "velocity": 0.2047244094488189
        },
        {
          "duration": 0.30232558139535115,
          "durationTicks": 26,
          "midi": 47,
          "name": "B2",
          "ticks": 5145,
          "time": 59.825581395348834,
          "velocity": 0.2204724409448819
        },
        {
          "duration": 0.2674418604651123,
          "durationTicks": 23,
          "midi": 54,
          "name": "F#3",
          "ticks": 5170,
          "time": 60.116279069767444,
          "velocity": 0.2125984251968504
        },
        {
          "duration": 0.4418604651162781,
          "durationTicks": 38,
          "midi": 75,
          "name": "D#5",
          "ticks": 5170,
          "time": 60.116279069767444,
          "velocity": 0.18110236220472442
        },
        {
          "duration": 0.08139534883721211,
          "durationTicks": 7,
          "midi": 47,
          "name": "B2",
          "ticks": 5172,
          "time": 60.13953488372093,
          "velocity": 0.16535433070866143
        },
        {
          "duration": 0.13953488372093403,
          "durationTicks": 12,
          "midi": 47,
          "name": "B2",
          "ticks": 5180,
          "time": 60.23255813953488,
          "velocity": 0.18110236220472442
        },
        {
          "duration": 0.03488372093023173,
          "durationTicks": 3,
          "midi": 42,
          "name": "F#2",
          "ticks": 5193,
          "time": 60.383720930232556,
          "velocity": 0.2204724409448819
        },
        {
          "duration": 0.04651162790698038,
          "durationTicks": 4,
          "midi": 47,
          "name": "B2",
          "ticks": 5198,
          "time": 60.44186046511628,
          "velocity": 0.13385826771653545
        },
        {
          "duration": 0.15116279069767558,
          "durationTicks": 13,
          "midi": 54,
          "name": "F#3",
          "ticks": 5203,
          "time": 60.5,
          "velocity": 0.08661417322834646
        },
        {
          "duration": 0.05813953488372192,
          "durationTicks": 5,
          "midi": 47,
          "name": "B2",
          "ticks": 5211,
          "time": 60.593023255813954,
          "velocity": 0.10236220472440945
        },
        {
          "duration": 0.3139534883720927,
          "durationTicks": 27,
          "midi": 61,
          "name": "C#4",
          "ticks": 5217,
          "time": 60.66279069767442,
          "velocity": 0.3464566929133858
        },
        {
          "duration": 0.046511627906973274,
          "durationTicks": 4,
          "midi": 52,
          "name": "E3",
          "ticks": 5218,
          "time": 60.674418604651166,
          "velocity": 0.2755905511811024
        },
        {
          "duration": 0.046511627906973274,
          "durationTicks": 4,
          "midi": 41,
          "name": "F2",
          "ticks": 5219,
          "time": 60.68604651162791,
          "velocity": 0.18110236220472442
        },
        {
          "duration": 0.046511627906973274,
          "durationTicks": 4,
          "midi": 41,
          "name": "F2",
          "ticks": 5242,
          "time": 60.95348837209303,
          "velocity": 0.36220472440944884
        },
        {
          "duration": 0.4767441860465098,
          "durationTicks": 41,
          "midi": 54,
          "name": "F#3",
          "ticks": 5245,
          "time": 60.98837209302326,
          "velocity": 0.25196850393700787
        },
        {
          "duration": 0.12790697674418539,
          "durationTicks": 11,
          "midi": 42,
          "name": "F#2",
          "ticks": 5246,
          "time": 61,
          "velocity": 0.3858267716535433
        },
        {
          "duration": 0.3372093023255829,
          "durationTicks": 29,
          "midi": 61,
          "name": "C#4",
          "ticks": 5255,
          "time": 61.104651162790695,
          "velocity": 0.13385826771653545
        },
        {
          "duration": 0.03488372093023173,
          "durationTicks": 3,
          "midi": 43,
          "name": "G2",
          "ticks": 5257,
          "time": 61.127906976744185,
          "velocity": 0.14960629921259844
        },
        {
          "duration": 0.16279069767441712,
          "durationTicks": 14,
          "midi": 42,
          "name": "F#2",
          "ticks": 5260,
          "time": 61.16279069767442,
          "velocity": 0.2440944881889764
        },
        {
          "duration": 0.15116279069767558,
          "durationTicks": 13,
          "midi": 42,
          "name": "F#2",
          "ticks": 5275,
          "time": 61.33720930232558,
          "velocity": 0.1732283464566929
        },
        {
          "duration": 0.30232558139535115,
          "durationTicks": 26,
          "midi": 61,
          "name": "C#4",
          "ticks": 5287,
          "time": 61.47674418604651,
          "velocity": 0.2204724409448819
        },
        {
          "duration": 0.2325581395348877,
          "durationTicks": 20,
          "midi": 42,
          "name": "F#2",
          "ticks": 5292,
          "time": 61.53488372093023,
          "velocity": 0.11811023622047244
        },
        {
          "duration": 0.03488372093023173,
          "durationTicks": 3,
          "midi": 42,
          "name": "F#2",
          "ticks": 5313,
          "time": 61.77906976744186,
          "velocity": 0.14173228346456693
        },
        {
          "duration": 0.5465116279069733,
          "durationTicks": 47,
          "midi": 58,
          "name": "A#3",
          "ticks": 5313,
          "time": 61.77906976744186,
          "velocity": 0.14173228346456693
        },
        {
          "duration": 0.09302325581395365,
          "durationTicks": 8,
          "midi": 42,
          "name": "F#2",
          "ticks": 5322,
          "time": 61.883720930232556,
          "velocity": 0.09448818897637795
        },
        {
          "duration": 0.13953488372093403,
          "durationTicks": 12,
          "midi": 42,
          "name": "F#2",
          "ticks": 5344,
          "time": 62.13953488372093,
          "velocity": 0.29133858267716534
        },
        {
          "duration": 0.03488372093023173,
          "durationTicks": 3,
          "midi": 43,
          "name": "G2",
          "ticks": 5356,
          "time": 62.27906976744186,
          "velocity": 0.10236220472440945
        },
        {
          "duration": 0.2674418604651194,
          "durationTicks": 23,
          "midi": 42,
          "name": "F#2",
          "ticks": 5359,
          "time": 62.31395348837209,
          "velocity": 0.1732283464566929
        },
        {
          "duration": 0.03488372093023173,
          "durationTicks": 3,
          "midi": 51,
          "name": "D#3",
          "ticks": 5362,
          "time": 62.348837209302324,
          "velocity": 0.09448818897637795
        },
        {
          "duration": 0.03488372093023173,
          "durationTicks": 3,
          "midi": 42,
          "name": "F#2",
          "ticks": 5383,
          "time": 62.593023255813954,
          "velocity": 0.14960629921259844
        },
        {
          "duration": 0.02325581395349019,
          "durationTicks": 2,
          "midi": 45,
          "name": "A2",
          "ticks": 5388,
          "time": 62.651162790697676,
          "velocity": 0.2992125984251969
        },
        {
          "duration": 0.03488372093023173,
          "durationTicks": 3,
          "midi": 58,
          "name": "A#3",
          "ticks": 5388,
          "time": 62.651162790697676,
          "velocity": 0.2204724409448819
        },
        {
          "duration": 0.22093023255813904,
          "durationTicks": 19,
          "midi": 75,
          "name": "D#5",
          "ticks": 5391,
          "time": 62.68604651162791,
          "velocity": 0.15748031496062992
        },
        {
          "duration": 0.24418604651162923,
          "durationTicks": 21,
          "midi": 47,
          "name": "B2",
          "ticks": 5392,
          "time": 62.69767441860465,
          "velocity": 0.25984251968503935
        },
        {
          "duration": 0.2674418604651123,
          "durationTicks": 23,
          "midi": 61,
          "name": "C#4",
          "ticks": 5414,
          "time": 62.95348837209303,
          "velocity": 0.29133858267716534
        },
        {
          "duration": 0.04651162790698038,
          "durationTicks": 4,
          "midi": 47,
          "name": "B2",
          "ticks": 5416,
          "time": 62.97674418604651,
          "velocity": 0.2204724409448819
        },
        {
          "duration": 1.8139534883720927,
          "durationTicks": 156,
          "midi": 58,
          "name": "A#3",
          "ticks": 5439,
          "time": 63.24418604651163,
          "velocity": 0.4015748031496063
        },
        {
          "duration": 0.02325581395349019,
          "durationTicks": 2,
          "midi": 42,
          "name": "F#2",
          "ticks": 5440,
          "time": 63.25581395348837,
          "velocity": 0.2440944881889764
        },
        {
          "duration": 0.02325581395349019,
          "durationTicks": 2,
          "midi": 41,
          "name": "F2",
          "ticks": 5442,
          "time": 63.27906976744186,
          "velocity": 0.3228346456692913
        },
        {
          "duration": 0.13953488372092693,
          "durationTicks": 12,
          "midi": 42,
          "name": "F#2",
          "ticks": 5444,
          "time": 63.30232558139535,
          "velocity": 0.3464566929133858
        },
        {
          "duration": 0.03488372093023173,
          "durationTicks": 3,
          "midi": 43,
          "name": "G2",
          "ticks": 5456,
          "time": 63.44186046511628,
          "velocity": 0.12598425196850394
        },
        {
          "duration": 0.08139534883721211,
          "durationTicks": 7,
          "midi": 42,
          "name": "F#2",
          "ticks": 5459,
          "time": 63.47674418604651,
          "velocity": 0.2047244094488189
        },
        {
          "duration": 0.03488372093023173,
          "durationTicks": 3,
          "midi": 42,
          "name": "F#2",
          "ticks": 5468,
          "time": 63.58139534883721,
          "velocity": 0.12598425196850394
        },
        {
          "duration": 0.16279069767441712,
          "durationTicks": 14,
          "midi": 42,
          "name": "F#2",
          "ticks": 5472,
          "time": 63.627906976744185,
          "velocity": 0.1732283464566929
        },
        {
          "duration": 0.09302325581395365,
          "durationTicks": 8,
          "midi": 42,
          "name": "F#2",
          "ticks": 5488,
          "time": 63.81395348837209,
          "velocity": 0.11811023622047244
        },
        {
          "duration": 0.03488372093023884,
          "durationTicks": 3,
          "midi": 42,
          "name": "F#2",
          "ticks": 5511,
          "time": 64.0813953488372,
          "velocity": 0.09448818897637795
        },
        {
          "duration": 0.023255813953497295,
          "durationTicks": 2,
          "midi": 41,
          "name": "F2",
          "ticks": 5537,
          "time": 64.38372093023256,
          "velocity": 0.31496062992125984
        },
        {
          "duration": 0.12790697674418539,
          "durationTicks": 11,
          "midi": 42,
          "name": "F#2",
          "ticks": 5539,
          "time": 64.40697674418605,
          "velocity": 0.3464566929133858
        },
        {
          "duration": 0.04651162790696617,
          "durationTicks": 4,
          "midi": 43,
          "name": "G2",
          "ticks": 5550,
          "time": 64.53488372093024,
          "velocity": 0.13385826771653545
        },
        {
          "duration": 0.17441860465116577,
          "durationTicks": 15,
          "midi": 42,
          "name": "F#2",
          "ticks": 5554,
          "time": 64.5813953488372,
          "velocity": 0.2125984251968504
        },
        {
          "duration": 0.11627906976744384,
          "durationTicks": 10,
          "midi": 42,
          "name": "F#2",
          "ticks": 5570,
          "time": 64.76744186046511,
          "velocity": 0.12598425196850394
        },
        {
          "duration": 0.05813953488372192,
          "durationTicks": 5,
          "midi": 42,
          "name": "F#2",
          "ticks": 5581,
          "time": 64.8953488372093,
          "velocity": 0.15748031496062992
        },
        {
          "duration": 0.05813953488372192,
          "durationTicks": 5,
          "midi": 42,
          "name": "F#2",
          "ticks": 5597,
          "time": 65.0813953488372,
          "velocity": 0.07086614173228346
        },
        {
          "duration": 0.05813953488372192,
          "durationTicks": 5,
          "midi": 58,
          "name": "A#3",
          "ticks": 5603,
          "time": 65.15116279069767,
          "velocity": 0.10236220472440945
        },
        {
          "duration": 0.03488372093023884,
          "durationTicks": 3,
          "midi": 42,
          "name": "F#2",
          "ticks": 5607,
          "time": 65.19767441860465,
          "velocity": 0.07874015748031496
        },
        {
          "duration": 0.1860465116279073,
          "durationTicks": 16,
          "midi": 58,
          "name": "A#3",
          "ticks": 5618,
          "time": 65.32558139534883,
          "velocity": 0.10236220472440945
        },
        {
          "duration": 0.023255813953497295,
          "durationTicks": 2,
          "midi": 41,
          "name": "F2",
          "ticks": 5634,
          "time": 65.51162790697674,
          "velocity": 0.33858267716535434
        },
        {
          "duration": 0.13953488372092693,
          "durationTicks": 12,
          "midi": 42,
          "name": "F#2",
          "ticks": 5636,
          "time": 65.53488372093024,
          "velocity": 0.4015748031496063
        },
        {
          "duration": 0.034883720930224626,
          "durationTicks": 3,
          "midi": 43,
          "name": "G2",
          "ticks": 5648,
          "time": 65.67441860465117,
          "velocity": 0.2125984251968504
        },
        {
          "duration": 0.32558139534884845,
          "durationTicks": 28,
          "midi": 42,
          "name": "F#2",
          "ticks": 5651,
          "time": 65.70930232558139,
          "velocity": 0.2755905511811024
        },
        {
          "duration": 0.16279069767442422,
          "durationTicks": 14,
          "midi": 61,
          "name": "C#4",
          "ticks": 5682,
          "time": 66.06976744186046,
          "velocity": 0.14173228346456693
        },
        {
          "duration": 0.15116279069768268,
          "durationTicks": 13,
          "midi": 42,
          "name": "F#2",
          "ticks": 5683,
          "time": 66.0813953488372,
          "velocity": 0.1732283464566929
        },
        {
          "duration": 0.05813953488372192,
          "durationTicks": 5,
          "midi": 42,
          "name": "F#2",
          "ticks": 5701,
          "time": 66.29069767441861,
          "velocity": 0.08661417322834646
        },
        {
          "duration": 0.034883720930224626,
          "durationTicks": 3,
          "midi": 53,
          "name": "F3",
          "ticks": 5706,
          "time": 66.34883720930233,
          "velocity": 0.30708661417322836
        },
        {
          "duration": 0.19767441860464885,
          "durationTicks": 17,
          "midi": 54,
          "name": "F#3",
          "ticks": 5709,
          "time": 66.38372093023256,
          "velocity": 0.2677165354330709
        },
        {
          "duration": 0.04651162790698038,
          "durationTicks": 4,
          "midi": 58,
          "name": "A#3",
          "ticks": 5710,
          "time": 66.3953488372093,
          "velocity": 0.11811023622047244
        },
        {
          "duration": 0.05813953488372192,
          "durationTicks": 5,
          "midi": 42,
          "name": "F#2",
          "ticks": 5719,
          "time": 66.5,
          "velocity": 0.08661417322834646
        },
        {
          "duration": 0.05813953488372192,
          "durationTicks": 5,
          "midi": 54,
          "name": "F#3",
          "ticks": 5727,
          "time": 66.59302325581395,
          "velocity": 0.2677165354330709
        },
        {
          "duration": 0.023255813953483084,
          "durationTicks": 2,
          "midi": 48,
          "name": "C3",
          "ticks": 5730,
          "time": 66.62790697674419,
          "velocity": 0.2992125984251969
        },
        {
          "duration": 1.0232558139534973,
          "durationTicks": 88,
          "midi": 61,
          "name": "C#4",
          "ticks": 5731,
          "time": 66.63953488372093,
          "velocity": 0.2992125984251969
        },
        {
          "duration": 0.034883720930224626,
          "durationTicks": 3,
          "midi": 49,
          "name": "C#3",
          "ticks": 5733,
          "time": 66.66279069767442,
          "velocity": 0.2755905511811024
        },
        {
          "duration": 0.27906976744186807,
          "durationTicks": 24,
          "midi": 49,
          "name": "C#3",
          "ticks": 5737,
          "time": 66.70930232558139,
          "velocity": 0.2440944881889764
        },
        {
          "duration": 0.2093023255813904,
          "durationTicks": 18,
          "midi": 49,
          "name": "C#3",
          "ticks": 5762,
          "time": 67,
          "velocity": 0.2204724409448819
        },
        {
          "duration": 0.034883720930224626,
          "durationTicks": 3,
          "midi": 49,
          "name": "C#3",
          "ticks": 5781,
          "time": 67.22093023255815,
          "velocity": 0.18110236220472442
        },
        {
          "duration": 0.22093023255814614,
          "durationTicks": 19,
          "midi": 49,
          "name": "C#3",
          "ticks": 5785,
          "time": 67.26744186046511,
          "velocity": 0.16535433070866143
        },
        {
          "duration": 0.581395348837205,
          "durationTicks": 50,
          "midi": 56,
          "name": "G#3",
          "ticks": 5806,
          "time": 67.51162790697674,
          "velocity": 0.1732283464566929
        },
        {
          "duration": 0.09302325581396076,
          "durationTicks": 8,
          "midi": 49,
          "name": "C#3",
          "ticks": 5811,
          "time": 67.56976744186046,
          "velocity": 0.11811023622047244
        },
        {
          "duration": 0.25581395348837077,
          "durationTicks": 22,
          "midi": 49,
          "name": "C#3",
          "ticks": 5832,
          "time": 67.81395348837209,
          "velocity": 0.23622047244094488
        },
        {
          "duration": 0.03488372093023884,
          "durationTicks": 3,
          "midi": 49,
          "name": "C#3",
          "ticks": 5860,
          "time": 68.13953488372093,
          "velocity": 0.1968503937007874
        },
        {
          "duration": 0.15116279069766847,
          "durationTicks": 13,
          "midi": 49,
          "name": "C#3",
          "ticks": 5867,
          "time": 68.22093023255815,
          "velocity": 0.16535433070866143
        },
        {
          "duration": 0.16279069767442422,
          "durationTicks": 14,
          "midi": 61,
          "name": "C#4",
          "ticks": 5881,
          "time": 68.38372093023256,
          "velocity": 0.11023622047244094
        },
        {
          "duration": 0.2093023255813904,
          "durationTicks": 18,
          "midi": 49,
          "name": "C#3",
          "ticks": 5885,
          "time": 68.43023255813954,
          "velocity": 0.13385826771653545
        },
        {
          "duration": 0.023255813953497295,
          "durationTicks": 2,
          "midi": 52,
          "name": "E3",
          "ticks": 5904,
          "time": 68.65116279069767,
          "velocity": 0.36220472440944884
        },
        {
          "duration": 0.023255813953483084,
          "durationTicks": 2,
          "midi": 53,
          "name": "F3",
          "ticks": 5906,
          "time": 68.67441860465117,
          "velocity": 0.33070866141732286
        },
        {
          "duration": 0.023255813953497295,
          "durationTicks": 2,
          "midi": 54,
          "name": "F#3",
          "ticks": 5908,
          "time": 68.69767441860465,
          "velocity": 0.29133858267716534
        },
        {
          "duration": 0.06976744186046346,
          "durationTicks": 6,
          "midi": 53,
          "name": "F3",
          "ticks": 5910,
          "time": 68.72093023255815,
          "velocity": 0.29133858267716534
        },
        {
          "duration": 0.023255813953483084,
          "durationTicks": 2,
          "midi": 53,
          "name": "F3",
          "ticks": 5917,
          "time": 68.80232558139535,
          "velocity": 0.23622047244094488
        },
        {
          "duration": 0.04651162790698038,
          "durationTicks": 4,
          "midi": 53,
          "name": "F3",
          "ticks": 5920,
          "time": 68.83720930232558,
          "velocity": 0.23622047244094488
        },
        {
          "duration": 0.03488372093023884,
          "durationTicks": 3,
          "midi": 52,
          "name": "E3",
          "ticks": 5930,
          "time": 68.95348837209302,
          "velocity": 0.41732283464566927
        },
        {
          "duration": 0.023255813953483084,
          "durationTicks": 2,
          "midi": 51,
          "name": "D#3",
          "ticks": 5933,
          "time": 68.98837209302326,
          "velocity": 0.31496062992125984
        },
        {
          "duration": 0.023255813953497295,
          "durationTicks": 2,
          "midi": 52,
          "name": "E3",
          "ticks": 5935,
          "time": 69.01162790697674,
          "velocity": 0.3700787401574803
        },
        {
          "duration": 0.023255813953483084,
          "durationTicks": 2,
          "midi": 51,
          "name": "D#3",
          "ticks": 5937,
          "time": 69.03488372093024,
          "velocity": 0.28346456692913385
        },
        {
          "duration": 0.023255813953497295,
          "durationTicks": 2,
          "midi": 51,
          "name": "D#3",
          "ticks": 5942,
          "time": 69.09302325581395,
          "velocity": 0.25984251968503935
        },
        {
          "duration": 0.023255813953483084,
          "durationTicks": 2,
          "midi": 51,
          "name": "D#3",
          "ticks": 5945,
          "time": 69.12790697674419,
          "velocity": 0.23622047244094488
        },
        {
          "duration": 0.05813953488372192,
          "durationTicks": 5,
          "midi": 51,
          "name": "D#3",
          "ticks": 5948,
          "time": 69.16279069767442,
          "velocity": 0.2283464566929134
        },
        {
          "duration": 0.023255813953483084,
          "durationTicks": 2,
          "midi": 53,
          "name": "F3",
          "ticks": 5955,
          "time": 69.24418604651163,
          "velocity": 0.29133858267716534
        },
        {
          "duration": 0.023255813953497295,
          "durationTicks": 2,
          "midi": 54,
          "name": "F#3",
          "ticks": 5962,
          "time": 69.32558139534883,
          "velocity": 0.2283464566929134
        },
        {
          "duration": 0.06976744186046346,
          "durationTicks": 6,
          "midi": 51,
          "name": "D#3",
          "ticks": 5976,
          "time": 69.48837209302326,
          "velocity": 0.18110236220472442
        },
        {
          "duration": 0.24418604651162923,
          "durationTicks": 21,
          "midi": 51,
          "name": "D#3",
          "ticks": 5984,
          "time": 69.5813953488372,
          "velocity": 0.36220472440944884
        },
        {
          "duration": 0.16279069767442422,
          "durationTicks": 14,
          "midi": 51,
          "name": "D#3",
          "ticks": 6006,
          "time": 69.83720930232558,
          "velocity": 0.11811023622047244
        },
        {
          "duration": 0.5348837209302388,
          "durationTicks": 46,
          "midi": 51,
          "name": "D#3",
          "ticks": 6028,
          "time": 70.09302325581395,
          "velocity": 0.36220472440944884
        },
        {
          "duration": 0.5232558139534973,
          "durationTicks": 45,
          "midi": 58,
          "name": "A#3",
          "ticks": 6053,
          "time": 70.38372093023256,
          "velocity": 0.13385826771653545
        },
        {
          "duration": 0.48837209302325846,
          "durationTicks": 42,
          "midi": 51,
          "name": "D#3",
          "ticks": 6126,
          "time": 71.23255813953489,
          "velocity": 0.36220472440944884
        },
        {
          "duration": 0.034883720930224626,
          "durationTicks": 3,
          "midi": 41,
          "name": "F2",
          "ticks": 6127,
          "time": 71.24418604651163,
          "velocity": 0.11811023622047244
        },
        {
          "duration": 0.15116279069768268,
          "durationTicks": 13,
          "midi": 58,
          "name": "A#3",
          "ticks": 6155,
          "time": 71.56976744186046,
          "velocity": 0.10236220472440945
        },
        {
          "duration": 0.2906976744185954,
          "durationTicks": 25,
          "midi": 58,
          "name": "A#3",
          "ticks": 6169,
          "time": 71.73255813953489,
          "velocity": 0.10236220472440945
        },
        {
          "duration": 0.023255813953497295,
          "durationTicks": 2,
          "midi": 50,
          "name": "D3",
          "ticks": 6173,
          "time": 71.77906976744185,
          "velocity": 0.2755905511811024
        },
        {
          "duration": 0.25581395348837077,
          "durationTicks": 22,
          "midi": 51,
          "name": "D#3",
          "ticks": 6175,
          "time": 71.80232558139535,
          "velocity": 0.33070866141732286
        },
        {
          "duration": 0.034883720930224626,
          "durationTicks": 3,
          "midi": 52,
          "name": "E3",
          "ticks": 6197,
          "time": 72.05813953488372,
          "velocity": 0.2283464566929134
        },
        {
          "duration": 0.2674418604651265,
          "durationTicks": 23,
          "midi": 51,
          "name": "D#3",
          "ticks": 6200,
          "time": 72.09302325581395,
          "velocity": 0.4015748031496063
        },
        {
          "duration": 0.03488372093023884,
          "durationTicks": 3,
          "midi": 53,
          "name": "F3",
          "ticks": 6226,
          "time": 72.3953488372093,
          "velocity": 0.33070866141732286
        },
        {
          "duration": 0.04651162790696617,
          "durationTicks": 4,
          "midi": 42,
          "name": "F#2",
          "ticks": 6227,
          "time": 72.40697674418605,
          "velocity": 0.08661417322834646
        },
        {
          "duration": 0.023255813953483084,
          "durationTicks": 2,
          "midi": 54,
          "name": "F#3",
          "ticks": 6229,
          "time": 72.43023255813954,
          "velocity": 0.28346456692913385
        },
        {
          "duration": 0.023255813953497295,
          "durationTicks": 2,
          "midi": 53,
          "name": "F3",
          "ticks": 6231,
          "time": 72.45348837209302,
          "velocity": 0.3228346456692913
        },
        {
          "duration": 0.23255813953487348,
          "durationTicks": 20,
          "midi": 54,
          "name": "F#3",
          "ticks": 6233,
          "time": 72.47674418604652,
          "velocity": 0.28346456692913385
        },
        {
          "duration": 0.023255813953497295,
          "durationTicks": 2,
          "midi": 52,
          "name": "E3",
          "ticks": 6253,
          "time": 72.70930232558139,
          "velocity": 0.2755905511811024
        },
        {
          "duration": 0.023255813953483084,
          "durationTicks": 2,
          "midi": 53,
          "name": "F3",
          "ticks": 6255,
          "time": 72.73255813953489,
          "velocity": 0.3700787401574803
        },
        {
          "duration": 0.24418604651162923,
          "durationTicks": 21,
          "midi": 66,
          "name": "F#4",
          "ticks": 6255,
          "time": 72.73255813953489,
          "velocity": 0.07874015748031496
        },
        {
          "duration": 0.023255813953483084,
          "durationTicks": 2,
          "midi": 54,
          "name": "F#3",
          "ticks": 6257,
          "time": 72.75581395348837,
          "velocity": 0.2992125984251969
        },
        {
          "duration": 0.2093023255813904,
          "durationTicks": 18,
          "midi": 54,
          "name": "F#3",
          "ticks": 6260,
          "time": 72.79069767441861,
          "velocity": 0.2992125984251969
        },
        {
          "duration": 0.04651162790698038,
          "durationTicks": 4,
          "midi": 53,
          "name": "F3",
          "ticks": 6278,
          "time": 73,
          "velocity": 0.2992125984251969
        },
        {
          "duration": 0.15116279069766847,
          "durationTicks": 13,
          "midi": 56,
          "name": "G#3",
          "ticks": 6282,
          "time": 73.04651162790698,
          "velocity": 0.3464566929133858
        },
        {
          "duration": 0.10465116279068809,
          "durationTicks": 9,
          "midi": 75,
          "name": "D#5",
          "ticks": 6282,
          "time": 73.04651162790698,
          "velocity": 0.07874015748031496
        },
        {
          "duration": 0.03488372093023884,
          "durationTicks": 3,
          "midi": 57,
          "name": "A3",
          "ticks": 6295,
          "time": 73.19767441860465,
          "velocity": 0.3543307086614173
        },
        {
          "duration": 0.46511627906976116,
          "durationTicks": 40,
          "midi": 58,
          "name": "A#3",
          "ticks": 6298,
          "time": 73.23255813953489,
          "velocity": 0.3700787401574803
        },
        {
          "duration": 0.023255813953497295,
          "durationTicks": 2,
          "midi": 55,
          "name": "G3",
          "ticks": 6338,
          "time": 73.69767441860465,
          "velocity": 0.2755905511811024
        },
        {
          "duration": 0.023255813953497295,
          "durationTicks": 2,
          "midi": 50,
          "name": "D3",
          "ticks": 6339,
          "time": 73.70930232558139,
          "velocity": 0.3543307086614173
        },
        {
          "duration": 0.25581395348837077,
          "durationTicks": 22,
          "midi": 68,
          "name": "G#4",
          "ticks": 6339,
          "time": 73.70930232558139,
          "velocity": 0.11811023622047244
        },
        {
          "duration": 0.13953488372094114,
          "durationTicks": 12,
          "midi": 75,
          "name": "D#5",
          "ticks": 6339,
          "time": 73.70930232558139,
          "velocity": 0.07874015748031496
        },
        {
          "duration": 0.023255813953483084,
          "durationTicks": 2,
          "midi": 57,
          "name": "A3",
          "ticks": 6340,
          "time": 73.72093023255815,
          "velocity": 0.33070866141732286
        },
        {
          "duration": 0.023255813953483084,
          "durationTicks": 2,
          "midi": 56,
          "name": "G#3",
          "ticks": 6342,
          "time": 73.74418604651163,
          "velocity": 0.30708661417322836
        },
        {
          "duration": 0.1860465116279073,
          "durationTicks": 16,
          "midi": 49,
          "name": "C#3",
          "ticks": 6344,
          "time": 73.76744186046511,
          "velocity": 0.25984251968503935
        },
        {
          "duration": 0.1860465116279073,
          "durationTicks": 16,
          "midi": 56,
          "name": "G#3",
          "ticks": 6347,
          "time": 73.80232558139535,
          "velocity": 0.33070866141732286
        },
        {
          "duration": 0.023255813953497295,
          "durationTicks": 2,
          "midi": 50,
          "name": "D3",
          "ticks": 6360,
          "time": 73.95348837209302,
          "velocity": 0.28346456692913385
        },
        {
          "duration": 0.25581395348837077,
          "durationTicks": 22,
          "midi": 49,
          "name": "C#3",
          "ticks": 6362,
          "time": 73.97674418604652,
          "velocity": 0.2440944881889764
        },
        {
          "duration": 0.5348837209302388,
          "durationTicks": 46,
          "midi": 56,
          "name": "G#3",
          "ticks": 6364,
          "time": 74,
          "velocity": 0.2755905511811024
        },
        {
          "duration": 0.581395348837205,
          "durationTicks": 50,
          "midi": 61,
          "name": "C#4",
          "ticks": 6384,
          "time": 74.23255813953489,
          "velocity": 0.2125984251968504
        },
        {
          "duration": 0.034883720930224626,
          "durationTicks": 3,
          "midi": 49,
          "name": "C#3",
          "ticks": 6385,
          "time": 74.24418604651163,
          "velocity": 0.1968503937007874
        },
        {
          "duration": 0.22093023255814614,
          "durationTicks": 19,
          "midi": 49,
          "name": "C#3",
          "ticks": 6392,
          "time": 74.32558139534883,
          "velocity": 0.16535433070866143
        },
        {
          "duration": 0.034883720930224626,
          "durationTicks": 3,
          "midi": 41,
          "name": "F2",
          "ticks": 6412,
          "time": 74.55813953488372,
          "velocity": 0.09448818897637795
        },
        {
          "duration": 0.5581395348837219,
          "durationTicks": 48,
          "midi": 56,
          "name": "G#3",
          "ticks": 6412,
          "time": 74.55813953488372,
          "velocity": 0.28346456692913385
        },
        {
          "duration": 0.25581395348837077,
          "durationTicks": 22,
          "midi": 49,
          "name": "C#3",
          "ticks": 6438,
          "time": 74.86046511627907,
          "velocity": 0.2440944881889764
        },
        {
          "duration": 0.023255813953497295,
          "durationTicks": 2,
          "midi": 50,
          "name": "D3",
          "ticks": 6462,
          "time": 75.13953488372093,
          "velocity": 0.2677165354330709
        },
        {
          "duration": 0.034883720930224626,
          "durationTicks": 3,
          "midi": 49,
          "name": "C#3",
          "ticks": 6464,
          "time": 75.16279069767442,
          "velocity": 0.1732283464566929
        },
        {
          "duration": 0.06976744186046346,
          "durationTicks": 6,
          "midi": 49,
          "name": "C#3",
          "ticks": 6468,
          "time": 75.20930232558139,
          "velocity": 0.2047244094488189
        },
        {
          "duration": 0.034883720930224626,
          "durationTicks": 3,
          "midi": 49,
          "name": "C#3",
          "ticks": 6475,
          "time": 75.29069767441861,
          "velocity": 0.1732283464566929
        },
        {
          "duration": 0.04651162790698038,
          "durationTicks": 4,
          "midi": 56,
          "name": "G#3",
          "ticks": 6478,
          "time": 75.32558139534883,
          "velocity": 0.16535433070866143
        },
        {
          "duration": 0.2906976744186096,
          "durationTicks": 25,
          "midi": 49,
          "name": "C#3",
          "ticks": 6482,
          "time": 75.37209302325581,
          "velocity": 0.18110236220472442
        },
        {
          "duration": 0.22093023255813193,
          "durationTicks": 19,
          "midi": 56,
          "name": "G#3",
          "ticks": 6486,
          "time": 75.4186046511628,
          "velocity": 0.14960629921259844
        },
        {
          "duration": 0.581395348837205,
          "durationTicks": 50,
          "midi": 56,
          "name": "G#3",
          "ticks": 6507,
          "time": 75.66279069767442,
          "velocity": 0.25196850393700787
        },
        {
          "duration": 0.1860465116279073,
          "durationTicks": 16,
          "midi": 61,
          "name": "C#4",
          "ticks": 6534,
          "time": 75.97674418604652,
          "velocity": 0.09448818897637795
        },
        {
          "duration": 0.2674418604651123,
          "durationTicks": 23,
          "midi": 49,
          "name": "C#3",
          "ticks": 6535,
          "time": 75.98837209302326,
          "velocity": 0.2677165354330709
        },
        {
          "duration": 0.05813953488372192,
          "durationTicks": 5,
          "midi": 49,
          "name": "C#3",
          "ticks": 6559,
          "time": 76.26744186046511,
          "velocity": 0.2283464566929134
        },
        {
          "duration": 0.05813953488372192,
          "durationTicks": 5,
          "midi": 49,
          "name": "C#3",
          "ticks": 6566,
          "time": 76.34883720930233,
          "velocity": 0.1968503937007874
        },
        {
          "duration": 0.10465116279068809,
          "durationTicks": 9,
          "midi": 49,
          "name": "C#3",
          "ticks": 6572,
          "time": 76.4186046511628,
          "velocity": 0.18110236220472442
        },
        {
          "duration": 0.06976744186046346,
          "durationTicks": 6,
          "midi": 56,
          "name": "G#3",
          "ticks": 6574,
          "time": 76.44186046511628,
          "velocity": 0.13385826771653545
        },
        {
          "duration": 0.581395348837205,
          "durationTicks": 50,
          "midi": 61,
          "name": "C#4",
          "ticks": 6582,
          "time": 76.53488372093024,
          "velocity": 0.15748031496062992
        },
        {
          "duration": 0.5232558139534831,
          "durationTicks": 45,
          "midi": 65,
          "name": "F4",
          "ticks": 6584,
          "time": 76.55813953488372,
          "velocity": 0.08661417322834646
        },
        {
          "duration": 0.03488372093023884,
          "durationTicks": 3,
          "midi": 53,
          "name": "F3",
          "ticks": 6585,
          "time": 76.56976744186046,
          "velocity": 0.4094488188976378
        },
        {
          "duration": 0.17441860465116577,
          "durationTicks": 15,
          "midi": 53,
          "name": "F3",
          "ticks": 6589,
          "time": 76.61627906976744,
          "velocity": 0.3543307086614173
        },
        {
          "duration": 0.034883720930224626,
          "durationTicks": 3,
          "midi": 54,
          "name": "F#3",
          "ticks": 6604,
          "time": 76.79069767441861,
          "velocity": 0.25984251968503935
        },
        {
          "duration": 0.023255813953483084,
          "durationTicks": 2,
          "midi": 56,
          "name": "G#3",
          "ticks": 6606,
          "time": 76.81395348837209,
          "velocity": 0.2283464566929134
        },
        {
          "duration": 0.22093023255814614,
          "durationTicks": 19,
          "midi": 56,
          "name": "G#3",
          "ticks": 6612,
          "time": 76.88372093023256,
          "velocity": 0.2755905511811024
        },
        {
          "duration": 0.08139534883721922,
          "durationTicks": 7,
          "midi": 53,
          "name": "F3",
          "ticks": 6630,
          "time": 77.09302325581395,
          "velocity": 0.4566929133858268
        },
        {
          "duration": 0.05813953488372192,
          "durationTicks": 5,
          "midi": 53,
          "name": "F3",
          "ticks": 6638,
          "time": 77.18604651162791,
          "velocity": 0.3700787401574803
        },
        {
          "duration": 0.023255813953483084,
          "durationTicks": 2,
          "midi": 54,
          "name": "F#3",
          "ticks": 6643,
          "time": 77.24418604651163,
          "velocity": 0.31496062992125984
        },
        {
          "duration": 0.023255813953483084,
          "durationTicks": 2,
          "midi": 53,
          "name": "F3",
          "ticks": 6649,
          "time": 77.31395348837209,
          "velocity": 0.25984251968503935
        },
        {
          "duration": 0.023255813953483084,
          "durationTicks": 2,
          "midi": 53,
          "name": "F3",
          "ticks": 6654,
          "time": 77.37209302325581,
          "velocity": 0.25984251968503935
        },
        {
          "duration": 0.023255813953483084,
          "durationTicks": 2,
          "midi": 53,
          "name": "F3",
          "ticks": 6657,
          "time": 77.40697674418605,
          "velocity": 0.25984251968503935
        },
        {
          "duration": 0.04651162790698038,
          "durationTicks": 4,
          "midi": 56,
          "name": "G#3",
          "ticks": 6661,
          "time": 77.45348837209302,
          "velocity": 0.2204724409448819
        },
        {
          "duration": 0.04651162790696617,
          "durationTicks": 4,
          "midi": 53,
          "name": "F3",
          "ticks": 6669,
          "time": 77.54651162790698,
          "velocity": 0.2204724409448819
        },
        {
          "duration": 0.023255813953497295,
          "durationTicks": 2,
          "midi": 56,
          "name": "G#3",
          "ticks": 6677,
          "time": 77.63953488372093,
          "velocity": 0.25984251968503935
        },
        {
          "duration": 0.2093023255813904,
          "durationTicks": 18,
          "midi": 56,
          "name": "G#3",
          "ticks": 6680,
          "time": 77.67441860465117,
          "velocity": 0.3228346456692913
        },
        {
          "duration": 0.03488372093023884,
          "durationTicks": 3,
          "midi": 41,
          "name": "F2",
          "ticks": 6681,
          "time": 77.68604651162791,
          "velocity": 0.1889763779527559
        },
        {
          "duration": 0.25581395348837077,
          "durationTicks": 22,
          "midi": 61,
          "name": "C#4",
          "ticks": 6681,
          "time": 77.68604651162791,
          "velocity": 0.12598425196850394
        },
        {
          "duration": 0.034883720930224626,
          "durationTicks": 3,
          "midi": 49,
          "name": "C#3",
          "ticks": 6690,
          "time": 77.79069767441861,
          "velocity": 0.15748031496062992
        },
        {
          "duration": 0.03488372093023884,
          "durationTicks": 3,
          "midi": 49,
          "name": "C#3",
          "ticks": 6699,
          "time": 77.8953488372093,
          "velocity": 0.12598425196850394
        },
        {
          "duration": 0.023255813953483084,
          "durationTicks": 2,
          "midi": 50,
          "name": "D3",
          "ticks": 6703,
          "time": 77.94186046511628,
          "velocity": 0.25196850393700787
        },
        {
          "duration": 0.023255813953483084,
          "durationTicks": 2,
          "midi": 55,
          "name": "G3",
          "ticks": 6703,
          "time": 77.94186046511628,
          "velocity": 0.2440944881889764
        },
        {
          "duration": 0.023255813953497295,
          "durationTicks": 2,
          "midi": 52,
          "name": "E3",
          "ticks": 6705,
          "time": 77.96511627906976,
          "velocity": 0.4015748031496063
        },
        {
          "duration": 0.24418604651162923,
          "durationTicks": 21,
          "midi": 65,
          "name": "F4",
          "ticks": 6705,
          "time": 77.96511627906976,
          "velocity": 0.11811023622047244
        },
        {
          "duration": 0.023255813953497295,
          "durationTicks": 2,
          "midi": 56,
          "name": "G#3",
          "ticks": 6710,
          "time": 78.02325581395348,
          "velocity": 0.2283464566929134
        },
        {
          "duration": 0.04651162790696617,
          "durationTicks": 4,
          "midi": 53,
          "name": "F3",
          "ticks": 6711,
          "time": 78.03488372093024,
          "velocity": 0.33858267716535434
        },
        {
          "duration": 0.023255813953483084,
          "durationTicks": 2,
          "midi": 42,
          "name": "F#2",
          "ticks": 6730,
          "time": 78.25581395348837,
          "velocity": 0.23622047244094488
        },
        {
          "duration": 0.023255813953483084,
          "durationTicks": 2,
          "midi": 52,
          "name": "E3",
          "ticks": 6730,
          "time": 78.25581395348837,
          "velocity": 0.4645669291338583
        },
        {
          "duration": 0.12790697674418539,
          "durationTicks": 11,
          "midi": 66,
          "name": "F#4",
          "ticks": 6730,
          "time": 78.25581395348837,
          "velocity": 0.11023622047244094
        },
        {
          "duration": 0.023255813953497295,
          "durationTicks": 2,
          "midi": 51,
          "name": "D#3",
          "ticks": 6732,
          "time": 78.27906976744185,
          "velocity": 0.4409448818897638
        },
        {
          "duration": 0.023255813953497295,
          "durationTicks": 2,
          "midi": 55,
          "name": "G3",
          "ticks": 6737,
          "time": 78.33720930232558,
          "velocity": 0.2440944881889764
        },
        {
          "duration": 0.023255813953483084,
          "durationTicks": 2,
          "midi": 54,
          "name": "F#3",
          "ticks": 6740,
          "time": 78.37209302325581,
          "velocity": 0.3464566929133858
        },
        {
          "duration": 0.023255813953497295,
          "durationTicks": 2,
          "midi": 53,
          "name": "F3",
          "ticks": 6742,
          "time": 78.3953488372093,
          "velocity": 0.4094488188976378
        },
        {
          "duration": 0.023255813953483084,
          "durationTicks": 2,
          "midi": 54,
          "name": "F#3",
          "ticks": 6749,
          "time": 78.47674418604652,
          "velocity": 0.3700787401574803
        },
        {
          "duration": 0.023255813953497295,
          "durationTicks": 2,
          "midi": 54,
          "name": "F#3",
          "ticks": 6752,
          "time": 78.51162790697674,
          "velocity": 0.25984251968503935
        },
        {
          "duration": 0.023255813953483084,
          "durationTicks": 2,
          "midi": 54,
          "name": "F#3",
          "ticks": 6757,
          "time": 78.56976744186046,
          "velocity": 0.31496062992125984
        },
        {
          "duration": 0.04651162790696617,
          "durationTicks": 4,
          "midi": 54,
          "name": "F#3",
          "ticks": 6760,
          "time": 78.6046511627907,
          "velocity": 0.25196850393700787
        },
        {
          "duration": 0.09302325581396076,
          "durationTicks": 8,
          "midi": 58,
          "name": "A#3",
          "ticks": 6764,
          "time": 78.65116279069767,
          "velocity": 0.1968503937007874
        },
        {
          "duration": 0.09302325581394655,
          "durationTicks": 8,
          "midi": 54,
          "name": "F#3",
          "ticks": 6765,
          "time": 78.66279069767442,
          "velocity": 0.2992125984251969
        },
        {
          "duration": 0.04651162790698038,
          "durationTicks": 4,
          "midi": 54,
          "name": "F#3",
          "ticks": 6774,
          "time": 78.76744186046511,
          "velocity": 0.2677165354330709
        },
        {
          "duration": 0.06976744186047767,
          "durationTicks": 6,
          "midi": 58,
          "name": "A#3",
          "ticks": 6775,
          "time": 78.77906976744185,
          "velocity": 0.1889763779527559
        },
        {
          "duration": 0.27906976744185386,
          "durationTicks": 24,
          "midi": 54,
          "name": "F#3",
          "ticks": 6782,
          "time": 78.86046511627907,
          "velocity": 0.25196850393700787
        },
        {
          "duration": 0.04651162790698038,
          "durationTicks": 4,
          "midi": 58,
          "name": "A#3",
          "ticks": 6790,
          "time": 78.95348837209302,
          "velocity": 0.11023622047244094
        },
        {
          "duration": 0.2674418604651265,
          "durationTicks": 23,
          "midi": 54,
          "name": "F#3",
          "ticks": 6807,
          "time": 79.15116279069767,
          "velocity": 0.18110236220472442
        },
        {
          "duration": 0.4534883720930196,
          "durationTicks": 39,
          "midi": 51,
          "name": "D#3",
          "ticks": 6831,
          "time": 79.43023255813954,
          "velocity": 0.3937007874015748
        },
        {
          "duration": 0.5232558139534831,
          "durationTicks": 45,
          "midi": 58,
          "name": "A#3",
          "ticks": 6852,
          "time": 79.67441860465117,
          "velocity": 0.2047244094488189
        },
        {
          "duration": 0.09302325581396076,
          "durationTicks": 8,
          "midi": 51,
          "name": "D#3",
          "ticks": 6871,
          "time": 79.8953488372093,
          "velocity": 0.1732283464566929
        },
        {
          "duration": 0.16279069767442422,
          "durationTicks": 14,
          "midi": 66,
          "name": "F#4",
          "ticks": 6875,
          "time": 79.94186046511628,
          "velocity": 0.08661417322834646
        },
        {
          "duration": 0.5,
          "durationTicks": 43,
          "midi": 51,
          "name": "D#3",
          "ticks": 6924,
          "time": 80.51162790697674,
          "velocity": 0.3700787401574803
        },
        {
          "duration": 0.03488372093023884,
          "durationTicks": 3,
          "midi": 41,
          "name": "F2",
          "ticks": 6925,
          "time": 80.52325581395348,
          "velocity": 0.12598425196850394
        },
        {
          "duration": 0.33720930232559,
          "durationTicks": 29,
          "midi": 58,
          "name": "A#3",
          "ticks": 6946,
          "time": 80.76744186046511,
          "velocity": 0.2283464566929134
        },
        {
          "duration": 0.04651162790698038,
          "durationTicks": 4,
          "midi": 53,
          "name": "F3",
          "ticks": 6968,
          "time": 81.02325581395348,
          "velocity": 0.3543307086614173
        },
        {
          "duration": 0.5465116279069804,
          "durationTicks": 47,
          "midi": 66,
          "name": "F#4",
          "ticks": 6968,
          "time": 81.02325581395348,
          "velocity": 0.1968503937007874
        },
        {
          "duration": 0.023255813953483084,
          "durationTicks": 2,
          "midi": 54,
          "name": "F#3",
          "ticks": 6972,
          "time": 81.06976744186046,
          "velocity": 0.3228346456692913
        },
        {
          "duration": 0.1860465116279073,
          "durationTicks": 16,
          "midi": 54,
          "name": "F#3",
          "ticks": 6975,
          "time": 81.1046511627907,
          "velocity": 0.2677165354330709
        },
        {
          "duration": 0.10465116279068809,
          "durationTicks": 9,
          "midi": 85,
          "name": "C#6",
          "ticks": 6981,
          "time": 81.17441860465117,
          "velocity": 0.08661417322834646
        },
        {
          "duration": 0.04651162790698038,
          "durationTicks": 4,
          "midi": 58,
          "name": "A#3",
          "ticks": 6982,
          "time": 81.18604651162791,
          "velocity": 0.15748031496062992
        },
        {
          "duration": 0.034883720930224626,
          "durationTicks": 3,
          "midi": 58,
          "name": "A#3",
          "ticks": 6991,
          "time": 81.29069767441861,
          "velocity": 0.10236220472440945
        },
        {
          "duration": 0.034883720930224626,
          "durationTicks": 3,
          "midi": 54,
          "name": "F#3",
          "ticks": 6992,
          "time": 81.30232558139535,
          "velocity": 0.2283464566929134
        },
        {
          "duration": 0.023255813953497295,
          "durationTicks": 2,
          "midi": 53,
          "name": "F3",
          "ticks": 6995,
          "time": 81.33720930232558,
          "velocity": 0.33070866141732286
        },
        {
          "duration": 0.19767441860464885,
          "durationTicks": 17,
          "midi": 54,
          "name": "F#3",
          "ticks": 6997,
          "time": 81.36046511627907,
          "velocity": 0.33070866141732286
        },
        {
          "duration": 0.034883720930224626,
          "durationTicks": 3,
          "midi": 53,
          "name": "F3",
          "ticks": 7014,
          "time": 81.55813953488372,
          "velocity": 0.2204724409448819
        },
        {
          "duration": 0.05813953488372192,
          "durationTicks": 5,
          "midi": 42,
          "name": "F#2",
          "ticks": 7019,
          "time": 81.61627906976744,
          "velocity": 0.1968503937007874
        },
        {
          "duration": 0.5348837209302246,
          "durationTicks": 46,
          "midi": 51,
          "name": "D#3",
          "ticks": 7019,
          "time": 81.61627906976744,
          "velocity": 0.3858267716535433
        },
        {
          "duration": 0.8255813953488342,
          "durationTicks": 71,
          "midi": 58,
          "name": "A#3",
          "ticks": 7020,
          "time": 81.62790697674419,
          "velocity": 0.3779527559055118
        },
        {
          "duration": 0.05813953488372192,
          "durationTicks": 5,
          "midi": 52,
          "name": "E3",
          "ticks": 7065,
          "time": 82.15116279069767,
          "velocity": 0.23622047244094488
        },
        {
          "duration": 0.034883720930224626,
          "durationTicks": 3,
          "midi": 42,
          "name": "F#2",
          "ticks": 7067,
          "time": 82.17441860465117,
          "velocity": 0.10236220472440945
        },
        {
          "duration": 0.17441860465116577,
          "durationTicks": 15,
          "midi": 51,
          "name": "D#3",
          "ticks": 7072,
          "time": 82.23255813953489,
          "velocity": 0.15748031496062992
        },
        {
          "duration": 0.05813953488372192,
          "durationTicks": 5,
          "midi": 61,
          "name": "C#4",
          "ticks": 7083,
          "time": 82.36046511627907,
          "velocity": 0.15748031496062992
        },
        {
          "duration": 0.03488372093023884,
          "durationTicks": 3,
          "midi": 52,
          "name": "E3",
          "ticks": 7092,
          "time": 82.46511627906976,
          "velocity": 0.2047244094488189
        },
        {
          "duration": 0.2325581395348877,
          "durationTicks": 20,
          "midi": 61,
          "name": "C#4",
          "ticks": 7092,
          "time": 82.46511627906976,
          "velocity": 0.3228346456692913
        },
        {
          "duration": 0.04651162790696617,
          "durationTicks": 4,
          "midi": 51,
          "name": "D#3",
          "ticks": 7099,
          "time": 82.54651162790698,
          "velocity": 0.10236220472440945
        },
        {
          "duration": 0.04651162790698038,
          "durationTicks": 4,
          "midi": 58,
          "name": "A#3",
          "ticks": 7111,
          "time": 82.68604651162791,
          "velocity": 0.14173228346456693
        },
        {
          "duration": 0.023255813953483084,
          "durationTicks": 2,
          "midi": 43,
          "name": "G2",
          "ticks": 7116,
          "time": 82.74418604651163,
          "velocity": 0.25984251968503935
        },
        {
          "duration": 0.13953488372092693,
          "durationTicks": 12,
          "midi": 61,
          "name": "C#4",
          "ticks": 7117,
          "time": 82.75581395348837,
          "velocity": 0.30708661417322836
        },
        {
          "duration": 0.22093023255813193,
          "durationTicks": 19,
          "midi": 47,
          "name": "B2",
          "ticks": 7121,
          "time": 82.80232558139535,
          "velocity": 0.2440944881889764
        },
        {
          "duration": 0.06976744186046346,
          "durationTicks": 6,
          "midi": 62,
          "name": "D4",
          "ticks": 7129,
          "time": 82.8953488372093,
          "velocity": 0.2677165354330709
        },
        {
          "duration": 0.023255813953483084,
          "durationTicks": 2,
          "midi": 53,
          "name": "F3",
          "ticks": 7141,
          "time": 83.03488372093024,
          "velocity": 0.2440944881889764
        },
        {
          "duration": 0.5232558139534831,
          "durationTicks": 45,
          "midi": 47,
          "name": "B2",
          "ticks": 7142,
          "time": 83.04651162790698,
          "velocity": 0.2283464566929134
        },
        {
          "duration": 0.24418604651162923,
          "durationTicks": 21,
          "midi": 54,
          "name": "F#3",
          "ticks": 7143,
          "time": 83.05813953488372,
          "velocity": 0.2204724409448819
        },
        {
          "duration": 0.2674418604651123,
          "durationTicks": 23,
          "midi": 54,
          "name": "F#3",
          "ticks": 7165,
          "time": 83.31395348837209,
          "velocity": 0.13385826771653545
        },
        {
          "duration": 0.13953488372092693,
          "durationTicks": 12,
          "midi": 63,
          "name": "D#4",
          "ticks": 7165,
          "time": 83.31395348837209,
          "velocity": 0.1889763779527559
        },
        {
          "duration": 0.04651162790698038,
          "durationTicks": 4,
          "midi": 58,
          "name": "A#3",
          "ticks": 7188,
          "time": 83.5813953488372,
          "velocity": 0.2283464566929134
        },
        {
          "duration": 0.023255813953483084,
          "durationTicks": 2,
          "midi": 53,
          "name": "F3",
          "ticks": 7191,
          "time": 83.61627906976744,
          "velocity": 0.25196850393700787
        },
        {
          "duration": 0.15116279069766847,
          "durationTicks": 13,
          "midi": 73,
          "name": "C#5",
          "ticks": 7192,
          "time": 83.62790697674419,
          "velocity": 0.10236220472440945
        },
        {
          "duration": 0.5581395348837219,
          "durationTicks": 48,
          "midi": 61,
          "name": "C#4",
          "ticks": 7193,
          "time": 83.63953488372093,
          "velocity": 0.29133858267716534
        },
        {
          "duration": 0.03488372093023884,
          "durationTicks": 3,
          "midi": 41,
          "name": "F2",
          "ticks": 7213,
          "time": 83.87209302325581,
          "velocity": 0.3779527559055118
        },
        {
          "duration": 0.5232558139534973,
          "durationTicks": 45,
          "midi": 54,
          "name": "F#3",
          "ticks": 7215,
          "time": 83.8953488372093,
          "velocity": 0.2992125984251969
        },
        {
          "duration": 0.13953488372092693,
          "durationTicks": 12,
          "midi": 42,
          "name": "F#2",
          "ticks": 7216,
          "time": 83.90697674418605,
          "velocity": 0.4251968503937008
        },
        {
          "duration": 0.034883720930224626,
          "durationTicks": 3,
          "midi": 43,
          "name": "G2",
          "ticks": 7228,
          "time": 84.04651162790698,
          "velocity": 0.2283464566929134
        },
        {
          "duration": 0.3139534883720927,
          "durationTicks": 27,
          "midi": 42,
          "name": "F#2",
          "ticks": 7231,
          "time": 84.0813953488372,
          "velocity": 0.28346456692913385
        },
        {
          "duration": 0.3139534883720927,
          "durationTicks": 27,
          "midi": 61,
          "name": "C#4",
          "ticks": 7258,
          "time": 84.3953488372093,
          "velocity": 0.2283464566929134
        },
        {
          "duration": 0.081395348837205,
          "durationTicks": 7,
          "midi": 42,
          "name": "F#2",
          "ticks": 7259,
          "time": 84.40697674418605,
          "velocity": 0.2677165354330709
        },
        {
          "duration": 0.034883720930224626,
          "durationTicks": 3,
          "midi": 43,
          "name": "G2",
          "ticks": 7266,
          "time": 84.48837209302326,
          "velocity": 0.11811023622047244
        },
        {
          "duration": 0.24418604651162923,
          "durationTicks": 21,
          "midi": 42,
          "name": "F#2",
          "ticks": 7269,
          "time": 84.52325581395348,
          "velocity": 0.2125984251968504
        },
        {
          "duration": 0.023255813953497295,
          "durationTicks": 2,
          "midi": 53,
          "name": "F3",
          "ticks": 7285,
          "time": 84.70930232558139,
          "velocity": 0.23622047244094488
        },
        {
          "duration": 0.40697674418605345,
          "durationTicks": 35,
          "midi": 58,
          "name": "A#3",
          "ticks": 7285,
          "time": 84.70930232558139,
          "velocity": 0.23622047244094488
        },
        {
          "duration": 0.03488372093023884,
          "durationTicks": 3,
          "midi": 41,
          "name": "F2",
          "ticks": 7310,
          "time": 85,
          "velocity": 0.33070866141732286
        },
        {
          "duration": 0.30232558139535115,
          "durationTicks": 26,
          "midi": 54,
          "name": "F#3",
          "ticks": 7312,
          "time": 85.02325581395348,
          "velocity": 0.25196850393700787
        },
        {
          "duration": 0.12790697674418539,
          "durationTicks": 11,
          "midi": 42,
          "name": "F#2",
          "ticks": 7313,
          "time": 85.03488372093024,
          "velocity": 0.3779527559055118
        },
        {
          "duration": 0.034883720930224626,
          "durationTicks": 3,
          "midi": 43,
          "name": "G2",
          "ticks": 7324,
          "time": 85.16279069767442,
          "velocity": 0.16535433070866143
        },
        {
          "duration": 0.38372093023255616,
          "durationTicks": 33,
          "midi": 58,
          "name": "A#3",
          "ticks": 7325,
          "time": 85.17441860465117,
          "velocity": 0.1732283464566929
        },
        {
          "duration": 0.11627906976744384,
          "durationTicks": 10,
          "midi": 42,
          "name": "F#2",
          "ticks": 7327,
          "time": 85.19767441860465,
          "velocity": 0.25196850393700787
        },
        {
          "duration": 0.15116279069766847,
          "durationTicks": 13,
          "midi": 42,
          "name": "F#2",
          "ticks": 7341,
          "time": 85.36046511627907,
          "velocity": 0.1968503937007874
        },
        {
          "duration": 0.30232558139535115,
          "durationTicks": 26,
          "midi": 61,
          "name": "C#4",
          "ticks": 7359,
          "time": 85.56976744186046,
          "velocity": 0.2677165354330709
        },
        {
          "duration": 0.034883720930224626,
          "durationTicks": 3,
          "midi": 42,
          "name": "F#2",
          "ticks": 7362,
          "time": 85.6046511627907,
          "velocity": 0.1889763779527559
        },
        {
          "duration": 0.023255813953483084,
          "durationTicks": 2,
          "midi": 51,
          "name": "D#3",
          "ticks": 7363,
          "time": 85.61627906976744,
          "velocity": 0.25196850393700787
        },
        {
          "duration": 0.023255813953483084,
          "durationTicks": 2,
          "midi": 54,
          "name": "F#3",
          "ticks": 7363,
          "time": 85.61627906976744,
          "velocity": 0.25984251968503935
        },
        {
          "duration": 0.023255813953497295,
          "durationTicks": 2,
          "midi": 53,
          "name": "F3",
          "ticks": 7365,
          "time": 85.63953488372093,
          "velocity": 0.29133858267716534
        },
        {
          "duration": 0.05813953488372192,
          "durationTicks": 5,
          "midi": 42,
          "name": "F#2",
          "ticks": 7366,
          "time": 85.65116279069767,
          "velocity": 0.08661417322834646
        },
        {
          "duration": 0.19767441860464885,
          "durationTicks": 17,
          "midi": 54,
          "name": "F#3",
          "ticks": 7367,
          "time": 85.66279069767442,
          "velocity": 0.23622047244094488
        },
        {
          "duration": 0.09302325581394655,
          "durationTicks": 8,
          "midi": 42,
          "name": "F#2",
          "ticks": 7378,
          "time": 85.79069767441861,
          "velocity": 0.09448818897637795
        },
        {
          "duration": 0.023255813953483084,
          "durationTicks": 2,
          "midi": 51,
          "name": "D#3",
          "ticks": 7383,
          "time": 85.84883720930233,
          "velocity": 0.2755905511811024
        },
        {
          "duration": 0.023255813953483084,
          "durationTicks": 2,
          "midi": 53,
          "name": "F3",
          "ticks": 7385,
          "time": 85.87209302325581,
          "velocity": 0.3937007874015748
        },
        {
          "duration": 0.09302325581394655,
          "durationTicks": 8,
          "midi": 58,
          "name": "A#3",
          "ticks": 7385,
          "time": 85.87209302325581,
          "velocity": 0.28346456692913385
        },
        {
          "duration": 0.22093023255813193,
          "durationTicks": 19,
          "midi": 66,
          "name": "F#4",
          "ticks": 7385,
          "time": 85.87209302325581,
          "velocity": 0.07874015748031496
        },
        {
          "duration": 0.2093023255814046,
          "durationTicks": 18,
          "midi": 54,
          "name": "F#3",
          "ticks": 7387,
          "time": 85.8953488372093,
          "velocity": 0.3543307086614173
        },
        {
          "duration": 0.11627906976744384,
          "durationTicks": 10,
          "midi": 58,
          "name": "A#3",
          "ticks": 7398,
          "time": 86.02325581395348,
          "velocity": 0.2755905511811024
        },
        {
          "duration": 0.023255813953483084,
          "durationTicks": 2,
          "midi": 53,
          "name": "F3",
          "ticks": 7405,
          "time": 86.1046511627907,
          "velocity": 0.25984251968503935
        },
        {
          "duration": 0.023255813953497295,
          "durationTicks": 2,
          "midi": 53,
          "name": "F3",
          "ticks": 7409,
          "time": 86.15116279069767,
          "velocity": 0.36220472440944884
        },
        {
          "duration": 0.023255813953483084,
          "durationTicks": 2,
          "midi": 41,
          "name": "F2",
          "ticks": 7410,
          "time": 86.16279069767442,
          "velocity": 0.3700787401574803
        },
        {
          "duration": 0.7558139534883708,
          "durationTicks": 65,
          "midi": 58,
          "name": "A#3",
          "ticks": 7410,
          "time": 86.16279069767442,
          "velocity": 0.33070866141732286
        },
        {
          "duration": 0.05813953488372192,
          "durationTicks": 5,
          "midi": 54,
          "name": "F#3",
          "ticks": 7411,
          "time": 86.17441860465117,
          "velocity": 0.2992125984251969
        },
        {
          "duration": 0.13953488372092693,
          "durationTicks": 12,
          "midi": 42,
          "name": "F#2",
          "ticks": 7412,
          "time": 86.18604651162791,
          "velocity": 0.4094488188976378
        },
        {
          "duration": 0.03488372093023884,
          "durationTicks": 3,
          "midi": 43,
          "name": "G2",
          "ticks": 7424,
          "time": 86.32558139534883,
          "velocity": 0.1889763779527559
        },
        {
          "duration": 0.06976744186046346,
          "durationTicks": 6,
          "midi": 42,
          "name": "F#2",
          "ticks": 7427,
          "time": 86.36046511627907,
          "velocity": 0.2755905511811024
        },
        {
          "duration": 0.04651162790698038,
          "durationTicks": 4,
          "midi": 49,
          "name": "C#3",
          "ticks": 7435,
          "time": 86.45348837209302,
          "velocity": 0.1968503937007874
        },
        {
          "duration": 0.16279069767442422,
          "durationTicks": 14,
          "midi": 42,
          "name": "F#2",
          "ticks": 7436,
          "time": 86.46511627906976,
          "velocity": 0.1968503937007874
        },
        {
          "duration": 0.05813953488372192,
          "durationTicks": 5,
          "midi": 42,
          "name": "F#2",
          "ticks": 7451,
          "time": 86.63953488372093,
          "velocity": 0.14960629921259844
        },
        {
          "duration": 0.03488372093023884,
          "durationTicks": 3,
          "midi": 49,
          "name": "C#3",
          "ticks": 7455,
          "time": 86.68604651162791,
          "velocity": 0.2204724409448819
        },
        {
          "duration": 0.023255813953483084,
          "durationTicks": 2,
          "midi": 50,
          "name": "D3",
          "ticks": 7458,
          "time": 86.72093023255815,
          "velocity": 0.25196850393700787
        },
        {
          "duration": 0.12790697674418539,
          "durationTicks": 11,
          "midi": 61,
          "name": "C#4",
          "ticks": 7458,
          "time": 86.72093023255815,
          "velocity": 0.25196850393700787
        },
        {
          "duration": 0.04651162790698038,
          "durationTicks": 4,
          "midi": 42,
          "name": "F#2",
          "ticks": 7462,
          "time": 86.76744186046511,
          "velocity": 0.14960629921259844
        },
        {
          "duration": 0.03488372093023884,
          "durationTicks": 3,
          "midi": 49,
          "name": "C#3",
          "ticks": 7466,
          "time": 86.81395348837209,
          "velocity": 0.11811023622047244
        },
        {
          "duration": 0.11627906976744384,
          "durationTicks": 10,
          "midi": 49,
          "name": "C#3",
          "ticks": 7470,
          "time": 86.86046511627907,
          "velocity": 0.11023622047244094
        },
        {
          "duration": 0.05813953488372192,
          "durationTicks": 5,
          "midi": 42,
          "name": "F#2",
          "ticks": 7472,
          "time": 86.88372093023256,
          "velocity": 0.07086614173228346
        },
        {
          "duration": 0.06976744186046346,
          "durationTicks": 6,
          "midi": 54,
          "name": "F#3",
          "ticks": 7473,
          "time": 86.8953488372093,
          "velocity": 0.09448818897637795
        },
        {
          "duration": 0.05813953488372192,
          "durationTicks": 5,
          "midi": 58,
          "name": "A#3",
          "ticks": 7476,
          "time": 86.93023255813954,
          "velocity": 0.12598425196850394
        },
        {
          "duration": 0.034883720930224626,
          "durationTicks": 3,
          "midi": 49,
          "name": "C#3",
          "ticks": 7481,
          "time": 86.98837209302326,
          "velocity": 0.09448818897637795
        },
        {
          "duration": 0.27906976744185386,
          "durationTicks": 24,
          "midi": 61,
          "name": "C#4",
          "ticks": 7481,
          "time": 86.98837209302326,
          "velocity": 0.3543307086614173
        },
        {
          "duration": 0.023255813953483084,
          "durationTicks": 2,
          "midi": 52,
          "name": "E3",
          "ticks": 7485,
          "time": 87.03488372093024,
          "velocity": 0.2440944881889764
        },
        {
          "duration": 0.05813953488372192,
          "durationTicks": 5,
          "midi": 42,
          "name": "F#2",
          "ticks": 7492,
          "time": 87.11627906976744,
          "velocity": 0.09448818897637795
        },
        {
          "duration": 0.034883720930224626,
          "durationTicks": 3,
          "midi": 53,
          "name": "F3",
          "ticks": 7497,
          "time": 87.17441860465117,
          "velocity": 0.12598425196850394
        },
        {
          "duration": 0.13953488372092693,
          "durationTicks": 12,
          "midi": 61,
          "name": "C#4",
          "ticks": 7507,
          "time": 87.29069767441861,
          "velocity": 0.33858267716535434
        },
        {
          "duration": 0.034883720930224626,
          "durationTicks": 3,
          "midi": 52,
          "name": "E3",
          "ticks": 7508,
          "time": 87.30232558139535,
          "velocity": 0.1732283464566929
        },
        {
          "duration": 0.24418604651162923,
          "durationTicks": 21,
          "midi": 47,
          "name": "B2",
          "ticks": 7515,
          "time": 87.38372093023256,
          "velocity": 0.25984251968503935
        },
        {
          "duration": 0.05813953488372192,
          "durationTicks": 5,
          "midi": 62,
          "name": "D4",
          "ticks": 7519,
          "time": 87.43023255813954,
          "velocity": 0.31496062992125984
        },
        {
          "duration": 0.3720930232558146,
          "durationTicks": 32,
          "midi": 75,
          "name": "D#5",
          "ticks": 7523,
          "time": 87.47674418604652,
          "velocity": 0.14960629921259844
        },
        {
          "duration": 0.034883720930224626,
          "durationTicks": 3,
          "midi": 53,
          "name": "F3",
          "ticks": 7535,
          "time": 87.61627906976744,
          "velocity": 0.25196850393700787
        },
        {
          "duration": 0.27906976744186807,
          "durationTicks": 24,
          "midi": 47,
          "name": "B2",
          "ticks": 7537,
          "time": 87.63953488372093,
          "velocity": 0.23622047244094488
        },
        {
          "duration": 0.2325581395348877,
          "durationTicks": 20,
          "midi": 54,
          "name": "F#3",
          "ticks": 7541,
          "time": 87.68604651162791,
          "velocity": 0.16535433070866143
        },
        {
          "duration": 0.023255813953497295,
          "durationTicks": 2,
          "midi": 62,
          "name": "D4",
          "ticks": 7559,
          "time": 87.8953488372093,
          "velocity": 0.2992125984251969
        },
        {
          "duration": 0.13953488372094114,
          "durationTicks": 12,
          "midi": 75,
          "name": "D#5",
          "ticks": 7559,
          "time": 87.8953488372093,
          "velocity": 0.1968503937007874
        },
        {
          "duration": 0.081395348837205,
          "durationTicks": 7,
          "midi": 63,
          "name": "D#4",
          "ticks": 7561,
          "time": 87.9186046511628,
          "velocity": 0.2283464566929134
        },
        {
          "duration": 0.27906976744185386,
          "durationTicks": 24,
          "midi": 47,
          "name": "B2",
          "ticks": 7562,
          "time": 87.93023255813954,
          "velocity": 0.23622047244094488
        },
        {
          "duration": 0.19767441860464885,
          "durationTicks": 17,
          "midi": 54,
          "name": "F#3",
          "ticks": 7566,
          "time": 87.97674418604652,
          "velocity": 0.10236220472440945
        },
        {
          "duration": 0.06976744186046346,
          "durationTicks": 6,
          "midi": 82,
          "name": "A#5",
          "ticks": 7568,
          "time": 88,
          "velocity": 0.07086614173228346
        },
        {
          "duration": 0.034883720930224626,
          "durationTicks": 3,
          "midi": 62,
          "name": "D4",
          "ticks": 7583,
          "time": 88.17441860465117,
          "velocity": 0.12598425196850394
        },
        {
          "duration": 0.04651162790698038,
          "durationTicks": 4,
          "midi": 59,
          "name": "B3",
          "ticks": 7585,
          "time": 88.19767441860465,
          "velocity": 0.36220472440944884
        },
        {
          "duration": 0.023255813953497295,
          "durationTicks": 2,
          "midi": 53,
          "name": "F3",
          "ticks": 7586,
          "time": 88.20930232558139,
          "velocity": 0.25984251968503935
        },
        {
          "duration": 0.2906976744185954,
          "durationTicks": 25,
          "midi": 73,
          "name": "C#5",
          "ticks": 7587,
          "time": 88.22093023255815,
          "velocity": 0.14960629921259844
        },
        {
          "duration": 0.04651162790698038,
          "durationTicks": 4,
          "midi": 58,
          "name": "A#3",
          "ticks": 7590,
          "time": 88.25581395348837,
          "velocity": 0.28346456692913385
        },
        {
          "duration": 0.48837209302325846,
          "durationTicks": 42,
          "midi": 61,
          "name": "C#4",
          "ticks": 7590,
          "time": 88.25581395348837,
          "velocity": 0.25984251968503935
        },
        {
          "duration": 0.034883720930224626,
          "durationTicks": 3,
          "midi": 52,
          "name": "E3",
          "ticks": 7598,
          "time": 88.34883720930233,
          "velocity": 0.07874015748031496
        },
        {
          "duration": 0.04651162790698038,
          "durationTicks": 4,
          "midi": 41,
          "name": "F2",
          "ticks": 7608,
          "time": 88.46511627906976,
          "velocity": 0.3700787401574803
        },
        {
          "duration": 0.4534883720930196,
          "durationTicks": 39,
          "midi": 54,
          "name": "F#3",
          "ticks": 7611,
          "time": 88.5,
          "velocity": 0.2677165354330709
        },
        {
          "duration": 0.12790697674418539,
          "durationTicks": 11,
          "midi": 42,
          "name": "F#2",
          "ticks": 7612,
          "time": 88.51162790697674,
          "velocity": 0.4015748031496063
        },
        {
          "duration": 0.03488372093023884,
          "durationTicks": 3,
          "midi": 43,
          "name": "G2",
          "ticks": 7623,
          "time": 88.63953488372093,
          "velocity": 0.1968503937007874
        },
        {
          "duration": 0.09302325581394655,
          "durationTicks": 8,
          "midi": 42,
          "name": "F#2",
          "ticks": 7626,
          "time": 88.67441860465117,
          "velocity": 0.28346456692913385
        },
        {
          "duration": 0.06976744186047767,
          "durationTicks": 6,
          "midi": 42,
          "name": "F#2",
          "ticks": 7635,
          "time": 88.77906976744185,
          "velocity": 0.2440944881889764
        },
        {
          "duration": 0.13953488372092693,
          "durationTicks": 12,
          "midi": 42,
          "name": "F#2",
          "ticks": 7644,
          "time": 88.88372093023256,
          "velocity": 0.18110236220472442
        },
        {
          "duration": 0.3139534883720927,
          "durationTicks": 27,
          "midi": 61,
          "name": "C#4",
          "ticks": 7656,
          "time": 89.02325581395348,
          "velocity": 0.23622047244094488
        },
        {
          "duration": 0.13953488372094114,
          "durationTicks": 12,
          "midi": 42,
          "name": "F#2",
          "ticks": 7662,
          "time": 89.09302325581395,
          "velocity": 0.1732283464566929
        },
        {
          "duration": 0.1279069767441996,
          "durationTicks": 11,
          "midi": 42,
          "name": "F#2",
          "ticks": 7678,
          "time": 89.27906976744185,
          "velocity": 0.14173228346456693
        },
        {
          "duration": 0.8255813953488484,
          "durationTicks": 71,
          "midi": 58,
          "name": "A#3",
          "ticks": 7683,
          "time": 89.33720930232558,
          "velocity": 0.2992125984251969
        },
        {
          "duration": 0.034883720930224626,
          "durationTicks": 3,
          "midi": 42,
          "name": "F#2",
          "ticks": 7696,
          "time": 89.48837209302326,
          "velocity": 0.07086614173228346
        },
        {
          "duration": 0.023255813953483084,
          "durationTicks": 2,
          "midi": 53,
          "name": "F3",
          "ticks": 7707,
          "time": 89.61627906976744,
          "velocity": 0.2440944881889764
        },
        {
          "duration": 0.023255813953483084,
          "durationTicks": 2,
          "midi": 41,
          "name": "F2",
          "ticks": 7708,
          "time": 89.62790697674419,
          "velocity": 0.3543307086614173
        },
        {
          "duration": 0.12790697674418539,
          "durationTicks": 11,
          "midi": 42,
          "name": "F#2",
          "ticks": 7710,
          "time": 89.65116279069767,
          "velocity": 0.3779527559055118
        },
        {
          "duration": 0.03488372093023884,
          "durationTicks": 3,
          "midi": 43,
          "name": "G2",
          "ticks": 7721,
          "time": 89.77906976744185,
          "velocity": 0.1732283464566929
        },
        {
          "duration": 0.12790697674418539,
          "durationTicks": 11,
          "midi": 42,
          "name": "F#2",
          "ticks": 7724,
          "time": 89.81395348837209,
          "velocity": 0.2755905511811024
        },
        {
          "duration": 0.17441860465116577,
          "durationTicks": 15,
          "midi": 42,
          "name": "F#2",
          "ticks": 7739,
          "time": 89.98837209302326,
          "velocity": 0.1889763779527559
        },
        {
          "duration": 0.05813953488372192,
          "durationTicks": 5,
          "midi": 42,
          "name": "F#2",
          "ticks": 7755,
          "time": 90.17441860465117,
          "velocity": 0.16535433070866143
        },
        {
          "duration": 0.32558139534883423,
          "durationTicks": 28,
          "midi": 61,
          "name": "C#4",
          "ticks": 7755,
          "time": 90.17441860465117,
          "velocity": 0.28346456692913385
        },
        {
          "duration": 0.023255813953483084,
          "durationTicks": 2,
          "midi": 53,
          "name": "F3",
          "ticks": 7756,
          "time": 90.18604651162791,
          "velocity": 0.3858267716535433
        },
        {
          "duration": 0.023255813953497295,
          "durationTicks": 2,
          "midi": 54,
          "name": "F#3",
          "ticks": 7758,
          "time": 90.20930232558139,
          "velocity": 0.30708661417322836
        },
        {
          "duration": 0.1860465116279073,
          "durationTicks": 16,
          "midi": 54,
          "name": "F#3",
          "ticks": 7761,
          "time": 90.24418604651163,
          "velocity": 0.29133858267716534
        },
        {
          "duration": 0.03488372093023884,
          "durationTicks": 3,
          "midi": 42,
          "name": "F#2",
          "ticks": 7763,
          "time": 90.26744186046511,
          "velocity": 0.10236220472440945
        },
        {
          "duration": 0.06976744186046346,
          "durationTicks": 6,
          "midi": 58,
          "name": "A#3",
          "ticks": 7768,
          "time": 90.32558139534883,
          "velocity": 0.1732283464566929
        },
        {
          "duration": 0.1046511627907023,
          "durationTicks": 9,
          "midi": 42,
          "name": "F#2",
          "ticks": 7772,
          "time": 90.37209302325581,
          "velocity": 0.11023622047244094
        },
        {
          "duration": 0.27906976744185386,
          "durationTicks": 24,
          "midi": 58,
          "name": "A#3",
          "ticks": 7782,
          "time": 90.48837209302326,
          "velocity": 0.3464566929133858
        },
        {
          "duration": 0.30232558139535115,
          "durationTicks": 26,
          "midi": 66,
          "name": "F#4",
          "ticks": 7783,
          "time": 90.5,
          "velocity": 0.07874015748031496
        },
        {
          "duration": 0.04651162790698038,
          "durationTicks": 4,
          "midi": 42,
          "name": "F#2",
          "ticks": 7784,
          "time": 90.51162790697674,
          "velocity": 0.1968503937007874
        },
        {
          "duration": 0.16279069767442422,
          "durationTicks": 14,
          "midi": 54,
          "name": "F#3",
          "ticks": 7795,
          "time": 90.63953488372093,
          "velocity": 0.30708661417322836
        },
        {
          "duration": 0.023255813953483084,
          "durationTicks": 2,
          "midi": 53,
          "name": "F3",
          "ticks": 7809,
          "time": 90.80232558139535,
          "velocity": 0.30708661417322836
        },
        {
          "duration": 0.1046511627907023,
          "durationTicks": 9,
          "midi": 61,
          "name": "C#4",
          "ticks": 7809,
          "time": 90.80232558139535,
          "velocity": 0.33070866141732286
        },
        {
          "duration": 0.11627906976744384,
          "durationTicks": 10,
          "midi": 47,
          "name": "B2",
          "ticks": 7811,
          "time": 90.82558139534883,
          "velocity": 0.1968503937007874
        },
        {
          "duration": 0.05813953488370771,
          "durationTicks": 5,
          "midi": 62,
          "name": "D4",
          "ticks": 7818,
          "time": 90.90697674418605,
          "velocity": 0.29133858267716534
        },
        {
          "duration": 0.38372093023255616,
          "durationTicks": 33,
          "midi": 47,
          "name": "B2",
          "ticks": 7822,
          "time": 90.95348837209302,
          "velocity": 0.2047244094488189
        },
        {
          "duration": 0.3604651162790731,
          "durationTicks": 31,
          "midi": 75,
          "name": "D#5",
          "ticks": 7822,
          "time": 90.95348837209302,
          "velocity": 0.12598425196850394
        },
        {
          "duration": 0.2093023255813904,
          "durationTicks": 18,
          "midi": 75,
          "name": "D#5",
          "ticks": 7856,
          "time": 91.34883720930233,
          "velocity": 0.2047244094488189
        },
        {
          "duration": 0.04651162790698038,
          "durationTicks": 4,
          "midi": 47,
          "name": "B2",
          "ticks": 7864,
          "time": 91.44186046511628,
          "velocity": 0.18110236220472442
        },
        {
          "duration": 0.05813953488372192,
          "durationTicks": 5,
          "midi": 47,
          "name": "B2",
          "ticks": 7874,
          "time": 91.55813953488372,
          "velocity": 0.16535433070866143
        },
        {
          "duration": 0.8720930232558146,
          "durationTicks": 75,
          "midi": 59,
          "name": "B3",
          "ticks": 7881,
          "time": 91.63953488372093,
          "velocity": 0.2677165354330709
        },
        {
          "duration": 0.09302325581394655,
          "durationTicks": 8,
          "midi": 47,
          "name": "B2",
          "ticks": 7884,
          "time": 91.67441860465117,
          "velocity": 0.1968503937007874
        },
        {
          "duration": 0.5,
          "durationTicks": 43,
          "midi": 75,
          "name": "D#5",
          "ticks": 7885,
          "time": 91.68604651162791,
          "velocity": 0.18110236220472442
        },
        {
          "duration": 0.15116279069768268,
          "durationTicks": 13,
          "midi": 94,
          "name": "A#6",
          "ticks": 7887,
          "time": 91.70930232558139,
          "velocity": 0.07086614173228346
        },
        {
          "duration": 0.023255813953483084,
          "durationTicks": 2,
          "midi": 45,
          "name": "A2",
          "ticks": 7905,
          "time": 91.9186046511628,
          "velocity": 0.2677165354330709
        },
        {
          "duration": 0.5,
          "durationTicks": 43,
          "midi": 47,
          "name": "B2",
          "ticks": 7909,
          "time": 91.96511627906976,
          "velocity": 0.2125984251968504
        },
        {
          "duration": 0.04651162790696617,
          "durationTicks": 4,
          "midi": 63,
          "name": "D#4",
          "ticks": 7953,
          "time": 92.47674418604652,
          "velocity": 0.1732283464566929
        },
        {
          "duration": 0.2906976744186096,
          "durationTicks": 25,
          "midi": 47,
          "name": "B2",
          "ticks": 7955,
          "time": 92.5,
          "velocity": 0.2204724409448819
        },
        {
          "duration": 0.2093023255814046,
          "durationTicks": 18,
          "midi": 75,
          "name": "D#5",
          "ticks": 7957,
          "time": 92.52325581395348,
          "velocity": 0.14173228346456693
        },
        {
          "duration": 0.023255813953497295,
          "durationTicks": 2,
          "midi": 58,
          "name": "A#3",
          "ticks": 7979,
          "time": 92.77906976744185,
          "velocity": 0.33858267716535434
        },
        {
          "duration": 0.13953488372092693,
          "durationTicks": 12,
          "midi": 47,
          "name": "B2",
          "ticks": 7981,
          "time": 92.80232558139535,
          "velocity": 0.15748031496062992
        },
        {
          "duration": 1.0697674418604635,
          "durationTicks": 92,
          "midi": 59,
          "name": "B3",
          "ticks": 7981,
          "time": 92.80232558139535,
          "velocity": 0.3464566929133858
        },
        {
          "duration": 0.24418604651162923,
          "durationTicks": 21,
          "midi": 77,
          "name": "F5",
          "ticks": 7981,
          "time": 92.80232558139535,
          "velocity": 0.2204724409448819
        },
        {
          "duration": 0.24418604651162923,
          "durationTicks": 21,
          "midi": 84,
          "name": "C6",
          "ticks": 7981,
          "time": 92.80232558139535,
          "velocity": 0.16535433070866143
        },
        {
          "duration": 0.023255813953483084,
          "durationTicks": 2,
          "midi": 45,
          "name": "A2",
          "ticks": 8004,
          "time": 93.06976744186046,
          "velocity": 0.2677165354330709
        },
        {
          "duration": 0.11627906976744384,
          "durationTicks": 10,
          "midi": 77,
          "name": "F5",
          "ticks": 8006,
          "time": 93.09302325581395,
          "velocity": 0.28346456692913385
        },
        {
          "duration": 0.11627906976744384,
          "durationTicks": 10,
          "midi": 84,
          "name": "C6",
          "ticks": 8006,
          "time": 93.09302325581395,
          "velocity": 0.2125984251968504
        },
        {
          "duration": 0.5232558139534831,
          "durationTicks": 45,
          "midi": 47,
          "name": "B2",
          "ticks": 8009,
          "time": 93.12790697674419,
          "velocity": 0.2047244094488189
        },
        {
          "duration": 0.45348837209303383,
          "durationTicks": 39,
          "midi": 66,
          "name": "F#4",
          "ticks": 8016,
          "time": 93.20930232558139,
          "velocity": 0.07874015748031496
        },
        {
          "duration": 0.2093023255813904,
          "durationTicks": 18,
          "midi": 66,
          "name": "F#4",
          "ticks": 8060,
          "time": 93.72093023255815,
          "velocity": 0.15748031496062992
        },
        {
          "duration": 0.22093023255813193,
          "durationTicks": 19,
          "midi": 85,
          "name": "C#6",
          "ticks": 8060,
          "time": 93.72093023255815,
          "velocity": 0.1889763779527559
        },
        {
          "duration": 0.04651162790696617,
          "durationTicks": 4,
          "midi": 47,
          "name": "B2",
          "ticks": 8061,
          "time": 93.73255813953489,
          "velocity": 0.14173228346456693
        },
        {
          "duration": 0.04651162790696617,
          "durationTicks": 4,
          "midi": 47,
          "name": "B2",
          "ticks": 8066,
          "time": 93.79069767441861,
          "velocity": 0.14173228346456693
        },
        {
          "duration": 0.10465116279068809,
          "durationTicks": 9,
          "midi": 47,
          "name": "B2",
          "ticks": 8071,
          "time": 93.84883720930233,
          "velocity": 0.2125984251968504
        },
        {
          "duration": 0.023255813953483084,
          "durationTicks": 2,
          "midi": 58,
          "name": "A#3",
          "ticks": 8079,
          "time": 93.94186046511628,
          "velocity": 0.2283464566929134
        },
        {
          "duration": 0.05813953488372192,
          "durationTicks": 5,
          "midi": 52,
          "name": "E3",
          "ticks": 8081,
          "time": 93.96511627906976,
          "velocity": 0.2204724409448819
        },
        {
          "duration": 1.058139534883722,
          "durationTicks": 91,
          "midi": 59,
          "name": "B3",
          "ticks": 8081,
          "time": 93.96511627906976,
          "velocity": 0.25196850393700787
        },
        {
          "duration": 0.22093023255814614,
          "durationTicks": 19,
          "midi": 66,
          "name": "F#4",
          "ticks": 8081,
          "time": 93.96511627906976,
          "velocity": 0.15748031496062992
        },
        {
          "duration": 0.16279069767442422,
          "durationTicks": 14,
          "midi": 78,
          "name": "F#5",
          "ticks": 8081,
          "time": 93.96511627906976,
          "velocity": 0.15748031496062992
        },
        {
          "duration": 0.22093023255814614,
          "durationTicks": 19,
          "midi": 85,
          "name": "C#6",
          "ticks": 8081,
          "time": 93.96511627906976,
          "velocity": 0.15748031496062992
        },
        {
          "duration": 0.15116279069768268,
          "durationTicks": 13,
          "midi": 65,
          "name": "F4",
          "ticks": 8106,
          "time": 94.25581395348837,
          "velocity": 0.07874015748031496
        },
        {
          "duration": 0.2325581395348877,
          "durationTicks": 20,
          "midi": 77,
          "name": "F5",
          "ticks": 8106,
          "time": 94.25581395348837,
          "velocity": 0.29133858267716534
        },
        {
          "duration": 0.25581395348837077,
          "durationTicks": 22,
          "midi": 84,
          "name": "C6",
          "ticks": 8106,
          "time": 94.25581395348837,
          "velocity": 0.2047244094488189
        },
        {
          "duration": 0.30232558139535115,
          "durationTicks": 26,
          "midi": 47,
          "name": "B2",
          "ticks": 8107,
          "time": 94.26744186046511,
          "velocity": 0.2204724409448819
        },
        {
          "duration": 0.2674418604651123,
          "durationTicks": 23,
          "midi": 54,
          "name": "F#3",
          "ticks": 8132,
          "time": 94.55813953488372,
          "velocity": 0.2047244094488189
        },
        {
          "duration": 0.4418604651162781,
          "durationTicks": 38,
          "midi": 75,
          "name": "D#5",
          "ticks": 8132,
          "time": 94.55813953488372,
          "velocity": 0.18110236220472442
        },
        {
          "duration": 0.2325581395348877,
          "durationTicks": 20,
          "midi": 47,
          "name": "B2",
          "ticks": 8134,
          "time": 94.5813953488372,
          "velocity": 0.18110236220472442
        },
        {
          "duration": 0.04651162790698038,
          "durationTicks": 4,
          "midi": 47,
          "name": "B2",
          "ticks": 8160,
          "time": 94.88372093023256,
          "velocity": 0.14173228346456693
        },
        {
          "duration": 0.15116279069766847,
          "durationTicks": 13,
          "midi": 54,
          "name": "F#3",
          "ticks": 8165,
          "time": 94.94186046511628,
          "velocity": 0.08661417322834646
        },
        {
          "duration": 0.05813953488370771,
          "durationTicks": 5,
          "midi": 47,
          "name": "B2",
          "ticks": 8173,
          "time": 95.03488372093024,
          "velocity": 0.10236220472440945
        },
        {
          "duration": 0.023255813953483084,
          "durationTicks": 2,
          "midi": 53,
          "name": "F3",
          "ticks": 8179,
          "time": 95.1046511627907,
          "velocity": 0.30708661417322836
        },
        {
          "duration": 0.3139534883720927,
          "durationTicks": 27,
          "midi": 61,
          "name": "C#4",
          "ticks": 8179,
          "time": 95.1046511627907,
          "velocity": 0.3464566929133858
        },
        {
          "duration": 0.04651162790698038,
          "durationTicks": 4,
          "midi": 41,
          "name": "F2",
          "ticks": 8181,
          "time": 95.12790697674419,
          "velocity": 0.18110236220472442
        },
        {
          "duration": 0.03488372093023884,
          "durationTicks": 3,
          "midi": 52,
          "name": "E3",
          "ticks": 8181,
          "time": 95.12790697674419,
          "velocity": 0.18110236220472442
        },
        {
          "duration": 0.04651162790698038,
          "durationTicks": 4,
          "midi": 41,
          "name": "F2",
          "ticks": 8204,
          "time": 95.3953488372093,
          "velocity": 0.3543307086614173
        },
        {
          "duration": 0.4767441860465169,
          "durationTicks": 41,
          "midi": 54,
          "name": "F#3",
          "ticks": 8207,
          "time": 95.43023255813954,
          "velocity": 0.25196850393700787
        },
        {
          "duration": 0.12790697674418539,
          "durationTicks": 11,
          "midi": 42,
          "name": "F#2",
          "ticks": 8208,
          "time": 95.44186046511628,
          "velocity": 0.3858267716535433
        },
        {
          "duration": 0.3372093023255758,
          "durationTicks": 29,
          "midi": 61,
          "name": "C#4",
          "ticks": 8217,
          "time": 95.54651162790698,
          "velocity": 0.13385826771653545
        },
        {
          "duration": 0.03488372093023884,
          "durationTicks": 3,
          "midi": 43,
          "name": "G2",
          "ticks": 8219,
          "time": 95.56976744186046,
          "velocity": 0.14960629921259844
        },
        {
          "duration": 0.32558139534883423,
          "durationTicks": 28,
          "midi": 42,
          "name": "F#2",
          "ticks": 8222,
          "time": 95.6046511627907,
          "velocity": 0.2440944881889764
        },
        {
          "duration": 0.30232558139535115,
          "durationTicks": 26,
          "midi": 61,
          "name": "C#4",
          "ticks": 8249,
          "time": 95.9186046511628,
          "velocity": 0.2204724409448819
        },
        {
          "duration": 0.15116279069766847,
          "durationTicks": 13,
          "midi": 42,
          "name": "F#2",
          "ticks": 8254,
          "time": 95.97674418604652,
          "velocity": 0.11811023622047244
        },
        {
          "duration": 0.034883720930224626,
          "durationTicks": 3,
          "midi": 42,
          "name": "F#2",
          "ticks": 8275,
          "time": 96.22093023255815,
          "velocity": 0.14173228346456693
        },
        {
          "duration": 0.5465116279069662,
          "durationTicks": 47,
          "midi": 58,
          "name": "A#3",
          "ticks": 8275,
          "time": 96.22093023255815,
          "velocity": 0.14173228346456693
        },
        {
          "duration": 0.09302325581396076,
          "durationTicks": 8,
          "midi": 42,
          "name": "F#2",
          "ticks": 8284,
          "time": 96.32558139534883,
          "velocity": 0.09448818897637795
        },
        {
          "duration": 0.13953488372094114,
          "durationTicks": 12,
          "midi": 42,
          "name": "F#2",
          "ticks": 8306,
          "time": 96.5813953488372,
          "velocity": 0.29133858267716534
        },
        {
          "duration": 0.034883720930224626,
          "durationTicks": 3,
          "midi": 43,
          "name": "G2",
          "ticks": 8318,
          "time": 96.72093023255815,
          "velocity": 0.09448818897637795
        },
        {
          "duration": 0.2674418604651123,
          "durationTicks": 23,
          "midi": 42,
          "name": "F#2",
          "ticks": 8321,
          "time": 96.75581395348837,
          "velocity": 0.1732283464566929
        },
        {
          "duration": 0.034883720930224626,
          "durationTicks": 3,
          "midi": 51,
          "name": "D#3",
          "ticks": 8324,
          "time": 96.79069767441861,
          "velocity": 0.09448818897637795
        },
        {
          "duration": 0.034883720930224626,
          "durationTicks": 3,
          "midi": 42,
          "name": "F#2",
          "ticks": 8345,
          "time": 97.03488372093024,
          "velocity": 0.14960629921259844
        },
        {
          "duration": 0.023255813953497295,
          "durationTicks": 2,
          "midi": 45,
          "name": "A2",
          "ticks": 8350,
          "time": 97.09302325581395,
          "velocity": 0.2992125984251969
        },
        {
          "duration": 0.03488372093023884,
          "durationTicks": 3,
          "midi": 58,
          "name": "A#3",
          "ticks": 8350,
          "time": 97.09302325581395,
          "velocity": 0.2204724409448819
        },
        {
          "duration": 0.2906976744186096,
          "durationTicks": 25,
          "midi": 47,
          "name": "B2",
          "ticks": 8352,
          "time": 97.11627906976744,
          "velocity": 0.2677165354330709
        },
        {
          "duration": 0.22093023255814614,
          "durationTicks": 19,
          "midi": 75,
          "name": "D#5",
          "ticks": 8353,
          "time": 97.12790697674419,
          "velocity": 0.15748031496062992
        },
        {
          "duration": 0.2674418604651265,
          "durationTicks": 23,
          "midi": 61,
          "name": "C#4",
          "ticks": 8376,
          "time": 97.3953488372093,
          "velocity": 0.29133858267716534
        },
        {
          "duration": 0.04651162790696617,
          "durationTicks": 4,
          "midi": 47,
          "name": "B2",
          "ticks": 8378,
          "time": 97.4186046511628,
          "velocity": 0.2204724409448819
        },
        {
          "duration": 1.8139534883720927,
          "durationTicks": 156,
          "midi": 58,
          "name": "A#3",
          "ticks": 8401,
          "time": 97.68604651162791,
          "velocity": 0.4094488188976378
        },
        {
          "duration": 0.023255813953483084,
          "durationTicks": 2,
          "midi": 41,
          "name": "F2",
          "ticks": 8404,
          "time": 97.72093023255815,
          "velocity": 0.3228346456692913
        },
        {
          "duration": 0.13953488372092693,
          "durationTicks": 12,
          "midi": 42,
          "name": "F#2",
          "ticks": 8406,
          "time": 97.74418604651163,
          "velocity": 0.3464566929133858
        },
        {
          "duration": 0.03488372093023884,
          "durationTicks": 3,
          "midi": 43,
          "name": "G2",
          "ticks": 8418,
          "time": 97.88372093023256,
          "velocity": 0.12598425196850394
        },
        {
          "duration": 0.12790697674418539,
          "durationTicks": 11,
          "midi": 42,
          "name": "F#2",
          "ticks": 8421,
          "time": 97.9186046511628,
          "velocity": 0.2047244094488189
        },
        {
          "duration": 0.16279069767442422,
          "durationTicks": 14,
          "midi": 42,
          "name": "F#2",
          "ticks": 8434,
          "time": 98.06976744186046,
          "velocity": 0.1732283464566929
        },
        {
          "duration": 0.09302325581396076,
          "durationTicks": 8,
          "midi": 42,
          "name": "F#2",
          "ticks": 8450,
          "time": 98.25581395348837,
          "velocity": 0.11811023622047244
        },
        {
          "duration": 0.03488372093023884,
          "durationTicks": 3,
          "midi": 42,
          "name": "F#2",
          "ticks": 8473,
          "time": 98.52325581395348,
          "velocity": 0.09448818897637795
        },
        {
          "duration": 0.023255813953497295,
          "durationTicks": 2,
          "midi": 41,
          "name": "F2",
          "ticks": 8499,
          "time": 98.82558139534883,
          "velocity": 0.31496062992125984
        },
        {
          "duration": 0.12790697674418539,
          "durationTicks": 11,
          "midi": 42,
          "name": "F#2",
          "ticks": 8501,
          "time": 98.84883720930233,
          "velocity": 0.3464566929133858
        },
        {
          "duration": 0.04651162790696617,
          "durationTicks": 4,
          "midi": 43,
          "name": "G2",
          "ticks": 8512,
          "time": 98.97674418604652,
          "velocity": 0.13385826771653545
        },
        {
          "duration": 0.17441860465116577,
          "durationTicks": 15,
          "midi": 42,
          "name": "F#2",
          "ticks": 8516,
          "time": 99.02325581395348,
          "velocity": 0.2125984251968504
        },
        {
          "duration": 0.11627906976744384,
          "durationTicks": 10,
          "midi": 42,
          "name": "F#2",
          "ticks": 8532,
          "time": 99.20930232558139,
          "velocity": 0.12598425196850394
        },
        {
          "duration": 0.05813953488372192,
          "durationTicks": 5,
          "midi": 42,
          "name": "F#2",
          "ticks": 8543,
          "time": 99.33720930232558,
          "velocity": 0.15748031496062992
        },
        {
          "duration": 0.05813953488372192,
          "durationTicks": 5,
          "midi": 42,
          "name": "F#2",
          "ticks": 8559,
          "time": 99.52325581395348,
          "velocity": 0.07086614173228346
        },
        {
          "duration": 0.05813953488372192,
          "durationTicks": 5,
          "midi": 58,
          "name": "A#3",
          "ticks": 8565,
          "time": 99.59302325581395,
          "velocity": 0.10236220472440945
        },
        {
          "duration": 0.03488372093023884,
          "durationTicks": 3,
          "midi": 42,
          "name": "F#2",
          "ticks": 8569,
          "time": 99.63953488372093,
          "velocity": 0.08661417322834646
        },
        {
          "duration": 0.1860465116279073,
          "durationTicks": 16,
          "midi": 58,
          "name": "A#3",
          "ticks": 8580,
          "time": 99.76744186046511,
          "velocity": 0.10236220472440945
        },
        {
          "duration": 0.023255813953497295,
          "durationTicks": 2,
          "midi": 41,
          "name": "F2",
          "ticks": 8596,
          "time": 99.95348837209302,
          "velocity": 0.33858267716535434
        },
        {
          "duration": 0.13953488372092693,
          "durationTicks": 12,
          "midi": 42,
          "name": "F#2",
          "ticks": 8598,
          "time": 99.97674418604652,
          "velocity": 0.4015748031496063
        },
        {
          "duration": 0.034883720930224626,
          "durationTicks": 3,
          "midi": 43,
          "name": "G2",
          "ticks": 8610,
          "time": 100.11627906976744,
          "velocity": 0.2125984251968504
        },
        {
          "duration": 0.32558139534884845,
          "durationTicks": 28,
          "midi": 42,
          "name": "F#2",
          "ticks": 8613,
          "time": 100.15116279069767,
          "velocity": 0.2755905511811024
        },
        {
          "duration": 0.16279069767442422,
          "durationTicks": 14,
          "midi": 61,
          "name": "C#4",
          "ticks": 8644,
          "time": 100.51162790697674,
          "velocity": 0.14173228346456693
        },
        {
          "duration": 0.15116279069768268,
          "durationTicks": 13,
          "midi": 42,
          "name": "F#2",
          "ticks": 8645,
          "time": 100.52325581395348,
          "velocity": 0.1732283464566929
        },
        {
          "duration": 0.05813953488372192,
          "durationTicks": 5,
          "midi": 42,
          "name": "F#2",
          "ticks": 8663,
          "time": 100.73255813953489,
          "velocity": 0.08661417322834646
        },
        {
          "duration": 0.034883720930224626,
          "durationTicks": 3,
          "midi": 53,
          "name": "F3",
          "ticks": 8668,
          "time": 100.79069767441861,
          "velocity": 0.30708661417322836
        },
        {
          "duration": 0.19767441860464885,
          "durationTicks": 17,
          "midi": 54,
          "name": "F#3",
          "ticks": 8671,
          "time": 100.82558139534883,
          "velocity": 0.2677165354330709
        },
        {
          "duration": 0.05813953488372192,
          "durationTicks": 5,
          "midi": 42,
          "name": "F#2",
          "ticks": 8681,
          "time": 100.94186046511628,
          "velocity": 0.08661417322834646
        },
        {
          "duration": 0.05813953488370771,
          "durationTicks": 5,
          "midi": 54,
          "name": "F#3",
          "ticks": 8689,
          "time": 101.03488372093024,
          "velocity": 0.2677165354330709
        },
        {
          "duration": 0.023255813953483084,
          "durationTicks": 2,
          "midi": 48,
          "name": "C3",
          "ticks": 8692,
          "time": 101.06976744186046,
          "velocity": 0.2992125984251969
        },
        {
          "duration": 1.0232558139534973,
          "durationTicks": 88,
          "midi": 61,
          "name": "C#4",
          "ticks": 8693,
          "time": 101.0813953488372,
          "velocity": 0.2992125984251969
        },
        {
          "duration": 0.04651162790698038,
          "durationTicks": 4,
          "midi": 49,
          "name": "C#3",
          "ticks": 8694,
          "time": 101.09302325581395,
          "velocity": 0.29133858267716534
        },
        {
          "duration": 0.27906976744186807,
          "durationTicks": 24,
          "midi": 49,
          "name": "C#3",
          "ticks": 8699,
          "time": 101.15116279069767,
          "velocity": 0.2440944881889764
        },
        {
          "duration": 0.2093023255813904,
          "durationTicks": 18,
          "midi": 49,
          "name": "C#3",
          "ticks": 8724,
          "time": 101.44186046511628,
          "velocity": 0.2204724409448819
        },
        {
          "duration": 0.034883720930224626,
          "durationTicks": 3,
          "midi": 49,
          "name": "C#3",
          "ticks": 8743,
          "time": 101.66279069767442,
          "velocity": 0.18110236220472442
        },
        {
          "duration": 0.22093023255814614,
          "durationTicks": 19,
          "midi": 49,
          "name": "C#3",
          "ticks": 8747,
          "time": 101.70930232558139,
          "velocity": 0.16535433070866143
        },
        {
          "duration": 0.5697674418604635,
          "durationTicks": 49,
          "midi": 56,
          "name": "G#3",
          "ticks": 8768,
          "time": 101.95348837209302,
          "velocity": 0.1732283464566929
        },
        {
          "duration": 0.1046511627907023,
          "durationTicks": 9,
          "midi": 49,
          "name": "C#3",
          "ticks": 8773,
          "time": 102.01162790697674,
          "velocity": 0.11023622047244094
        },
        {
          "duration": 0.25581395348837077,
          "durationTicks": 22,
          "midi": 49,
          "name": "C#3",
          "ticks": 8794,
          "time": 102.25581395348837,
          "velocity": 0.23622047244094488
        },
        {
          "duration": 0.03488372093023884,
          "durationTicks": 3,
          "midi": 49,
          "name": "C#3",
          "ticks": 8822,
          "time": 102.5813953488372,
          "velocity": 0.1968503937007874
        },
        {
          "duration": 0.09302325581394655,
          "durationTicks": 8,
          "midi": 49,
          "name": "C#3",
          "ticks": 8829,
          "time": 102.66279069767442,
          "velocity": 0.1732283464566929
        },
        {
          "duration": 0.03488372093023884,
          "durationTicks": 3,
          "midi": 56,
          "name": "G#3",
          "ticks": 8837,
          "time": 102.75581395348837,
          "velocity": 0.09448818897637795
        },
        {
          "duration": 0.04651162790698038,
          "durationTicks": 4,
          "midi": 49,
          "name": "C#3",
          "ticks": 8838,
          "time": 102.76744186046511,
          "velocity": 0.15748031496062992
        },
        {
          "duration": 0.16279069767442422,
          "durationTicks": 14,
          "midi": 61,
          "name": "C#4",
          "ticks": 8843,
          "time": 102.82558139534883,
          "velocity": 0.10236220472440945
        },
        {
          "duration": 0.2093023255813904,
          "durationTicks": 18,
          "midi": 49,
          "name": "C#3",
          "ticks": 8847,
          "time": 102.87209302325581,
          "velocity": 0.13385826771653545
        },
        {
          "duration": 0.023255813953497295,
          "durationTicks": 2,
          "midi": 52,
          "name": "E3",
          "ticks": 8866,
          "time": 103.09302325581395,
          "velocity": 0.36220472440944884
        },
        {
          "duration": 0.023255813953483084,
          "durationTicks": 2,
          "midi": 53,
          "name": "F3",
          "ticks": 8868,
          "time": 103.11627906976744,
          "velocity": 0.33858267716535434
        },
        {
          "duration": 0.023255813953497295,
          "durationTicks": 2,
          "midi": 54,
          "name": "F#3",
          "ticks": 8870,
          "time": 103.13953488372093,
          "velocity": 0.2992125984251969
        },
        {
          "duration": 0.06976744186046346,
          "durationTicks": 6,
          "midi": 53,
          "name": "F3",
          "ticks": 8872,
          "time": 103.16279069767442,
          "velocity": 0.29133858267716534
        },
        {
          "duration": 0.023255813953483084,
          "durationTicks": 2,
          "midi": 53,
          "name": "F3",
          "ticks": 8879,
          "time": 103.24418604651163,
          "velocity": 0.2440944881889764
        },
        {
          "duration": 0.04651162790698038,
          "durationTicks": 4,
          "midi": 53,
          "name": "F3",
          "ticks": 8882,
          "time": 103.27906976744185,
          "velocity": 0.23622047244094488
        },
        {
          "duration": 0.03488372093023884,
          "durationTicks": 3,
          "midi": 52,
          "name": "E3",
          "ticks": 8892,
          "time": 103.3953488372093,
          "velocity": 0.41732283464566927
        },
        {
          "duration": 0.023255813953483084,
          "durationTicks": 2,
          "midi": 51,
          "name": "D#3",
          "ticks": 8895,
          "time": 103.43023255813954,
          "velocity": 0.31496062992125984
        },
        {
          "duration": 0.023255813953497295,
          "durationTicks": 2,
          "midi": 52,
          "name": "E3",
          "ticks": 8897,
          "time": 103.45348837209302,
          "velocity": 0.3700787401574803
        },
        {
          "duration": 0.023255813953483084,
          "durationTicks": 2,
          "midi": 51,
          "name": "D#3",
          "ticks": 8899,
          "time": 103.47674418604652,
          "velocity": 0.28346456692913385
        },
        {
          "duration": 0.023255813953483084,
          "durationTicks": 2,
          "midi": 51,
          "name": "D#3",
          "ticks": 8904,
          "time": 103.53488372093024,
          "velocity": 0.25984251968503935
        },
        {
          "duration": 0.023255813953483084,
          "durationTicks": 2,
          "midi": 51,
          "name": "D#3",
          "ticks": 8907,
          "time": 103.56976744186046,
          "velocity": 0.2283464566929134
        },
        {
          "duration": 0.05813953488372192,
          "durationTicks": 5,
          "midi": 51,
          "name": "D#3",
          "ticks": 8910,
          "time": 103.6046511627907,
          "velocity": 0.2283464566929134
        },
        {
          "duration": 0.023255813953483084,
          "durationTicks": 2,
          "midi": 53,
          "name": "F3",
          "ticks": 8917,
          "time": 103.68604651162791,
          "velocity": 0.28346456692913385
        },
        {
          "duration": 0.06976744186046346,
          "durationTicks": 6,
          "midi": 51,
          "name": "D#3",
          "ticks": 8938,
          "time": 103.93023255813954,
          "velocity": 0.18110236220472442
        },
        {
          "duration": 0.24418604651162923,
          "durationTicks": 21,
          "midi": 51,
          "name": "D#3",
          "ticks": 8946,
          "time": 104.02325581395348,
          "velocity": 0.36220472440944884
        },
        {
          "duration": 0.16279069767442422,
          "durationTicks": 14,
          "midi": 51,
          "name": "D#3",
          "ticks": 8968,
          "time": 104.27906976744185,
          "velocity": 0.11811023622047244
        },
        {
          "duration": 0.5348837209302246,
          "durationTicks": 46,
          "midi": 51,
          "name": "D#3",
          "ticks": 8990,
          "time": 104.53488372093024,
          "velocity": 0.36220472440944884
        },
        {
          "duration": 0.5232558139534973,
          "durationTicks": 45,
          "midi": 58,
          "name": "A#3",
          "ticks": 9015,
          "time": 104.82558139534883,
          "velocity": 0.13385826771653545
        },
        {
          "duration": 0.6162790697674438,
          "durationTicks": 53,
          "midi": 51,
          "name": "D#3",
          "ticks": 9088,
          "time": 105.67441860465117,
          "velocity": 0.36220472440944884
        },
        {
          "duration": 0.03488372093023884,
          "durationTicks": 3,
          "midi": 41,
          "name": "F2",
          "ticks": 9089,
          "time": 105.68604651162791,
          "velocity": 0.12598425196850394
        },
        {
          "duration": 0.2093023255814046,
          "durationTicks": 18,
          "midi": 58,
          "name": "A#3",
          "ticks": 9117,
          "time": 106.01162790697674,
          "velocity": 0.10236220472440945
        },
        {
          "duration": 0.2906976744186096,
          "durationTicks": 25,
          "midi": 58,
          "name": "A#3",
          "ticks": 9137,
          "time": 106.24418604651163,
          "velocity": 0.10236220472440945
        },
        {
          "duration": 0.034883720930224626,
          "durationTicks": 3,
          "midi": 58,
          "name": "A#3",
          "ticks": 9164,
          "time": 106.55813953488372,
          "velocity": 0.13385826771653545
        },
        {
          "duration": 0.9651162790697612,
          "durationTicks": 83,
          "midi": 58,
          "name": "A#3",
          "ticks": 9185,
          "time": 106.80232558139535,
          "velocity": 0.2204724409448819
        },
        {
          "duration": 0.3488372093023173,
          "durationTicks": 30,
          "midi": 51,
          "name": "D#3",
          "ticks": 9189,
          "time": 106.84883720930233,
          "velocity": 0.25984251968503935
        },
        {
          "duration": 0.32558139534883423,
          "durationTicks": 28,
          "midi": 51,
          "name": "D#3",
          "ticks": 9245,
          "time": 107.5,
          "velocity": 0.36220472440944884
        },
        {
          "duration": 0.43023255813953654,
          "durationTicks": 37,
          "midi": 58,
          "name": "A#3",
          "ticks": 9271,
          "time": 107.80232558139535,
          "velocity": 0.28346456692913385
        },
        {
          "duration": 0.25581395348837077,
          "durationTicks": 22,
          "midi": 51,
          "name": "D#3",
          "ticks": 9275,
          "time": 107.84883720930233,
          "velocity": 0.3543307086614173
        },
        {
          "duration": 0.023255813953497295,
          "durationTicks": 2,
          "midi": 54,
          "name": "F#3",
          "ticks": 9301,
          "time": 108.15116279069767,
          "velocity": 0.30708661417322836
        },
        {
          "duration": 0.023255813953483084,
          "durationTicks": 2,
          "midi": 51,
          "name": "D#3",
          "ticks": 9304,
          "time": 108.18604651162791,
          "velocity": 0.30708661417322836
        },
        {
          "duration": 0.023255813953483084,
          "durationTicks": 2,
          "midi": 54,
          "name": "F#3",
          "ticks": 9304,
          "time": 108.18604651162791,
          "velocity": 0.30708661417322836
        },
        {
          "duration": 0.023255813953483084,
          "durationTicks": 2,
          "midi": 51,
          "name": "D#3",
          "ticks": 9307,
          "time": 108.22093023255815,
          "velocity": 0.31496062992125984
        },
        {
          "duration": 0.023255813953483084,
          "durationTicks": 2,
          "midi": 54,
          "name": "F#3",
          "ticks": 9313,
          "time": 108.29069767441861,
          "velocity": 0.31496062992125984
        },
        {
          "duration": 0.06976744186046346,
          "durationTicks": 6,
          "midi": 58,
          "name": "A#3",
          "ticks": 9315,
          "time": 108.31395348837209,
          "velocity": 0.2125984251968504
        },
        {
          "duration": 0.04651162790698038,
          "durationTicks": 4,
          "midi": 54,
          "name": "F#3",
          "ticks": 9316,
          "time": 108.32558139534883,
          "velocity": 0.29133858267716534
        },
        {
          "duration": 0.05813953488372192,
          "durationTicks": 5,
          "midi": 54,
          "name": "F#3",
          "ticks": 9321,
          "time": 108.38372093023256,
          "velocity": 0.31496062992125984
        },
        {
          "duration": 0.034883720930224626,
          "durationTicks": 3,
          "midi": 63,
          "name": "D#4",
          "ticks": 9324,
          "time": 108.4186046511628,
          "velocity": 0.10236220472440945
        },
        {
          "duration": 0.06976744186046346,
          "durationTicks": 6,
          "midi": 58,
          "name": "A#3",
          "ticks": 9326,
          "time": 108.44186046511628,
          "velocity": 0.1968503937007874
        },
        {
          "duration": 0.023255813953483084,
          "durationTicks": 2,
          "midi": 53,
          "name": "F3",
          "ticks": 9331,
          "time": 108.5,
          "velocity": 0.36220472440944884
        },
        {
          "duration": 0.023255813953497295,
          "durationTicks": 2,
          "midi": 54,
          "name": "F#3",
          "ticks": 9333,
          "time": 108.52325581395348,
          "velocity": 0.2677165354330709
        },
        {
          "duration": 0.17441860465116577,
          "durationTicks": 15,
          "midi": 54,
          "name": "F#3",
          "ticks": 9336,
          "time": 108.55813953488372,
          "velocity": 0.29133858267716534
        },
        {
          "duration": 0.05813953488372192,
          "durationTicks": 5,
          "midi": 58,
          "name": "A#3",
          "ticks": 9351,
          "time": 108.73255813953489,
          "velocity": 0.14173228346456693
        },
        {
          "duration": 0.2674418604651123,
          "durationTicks": 23,
          "midi": 51,
          "name": "D#3",
          "ticks": 9352,
          "time": 108.74418604651163,
          "velocity": 0.4015748031496063
        },
        {
          "duration": 0.10465116279068809,
          "durationTicks": 9,
          "midi": 75,
          "name": "D#5",
          "ticks": 9356,
          "time": 108.79069767441861,
          "velocity": 0.11811023622047244
        },
        {
          "duration": 0.034883720930224626,
          "durationTicks": 3,
          "midi": 41,
          "name": "F2",
          "ticks": 9357,
          "time": 108.80232558139535,
          "velocity": 0.11023622047244094
        },
        {
          "duration": 0.09302325581394655,
          "durationTicks": 8,
          "midi": 56,
          "name": "G#3",
          "ticks": 9357,
          "time": 108.80232558139535,
          "velocity": 0.3464566929133858
        },
        {
          "duration": 0.04651162790698038,
          "durationTicks": 4,
          "midi": 57,
          "name": "A3",
          "ticks": 9365,
          "time": 108.8953488372093,
          "velocity": 0.3779527559055118
        },
        {
          "duration": 0.13953488372092693,
          "durationTicks": 12,
          "midi": 58,
          "name": "A#3",
          "ticks": 9369,
          "time": 108.94186046511628,
          "velocity": 0.33858267716535434
        },
        {
          "duration": 0.05813953488370771,
          "durationTicks": 5,
          "midi": 51,
          "name": "D#3",
          "ticks": 9377,
          "time": 109.03488372093024,
          "velocity": 0.2204724409448819
        },
        {
          "duration": 0.3139534883720927,
          "durationTicks": 27,
          "midi": 58,
          "name": "A#3",
          "ticks": 9385,
          "time": 109.12790697674419,
          "velocity": 0.4094488188976378
        },
        {
          "duration": 0.08139534883721922,
          "durationTicks": 7,
          "midi": 51,
          "name": "D#3",
          "ticks": 9386,
          "time": 109.13953488372093,
          "velocity": 0.1732283464566929
        },
        {
          "duration": 0.05813953488372192,
          "durationTicks": 5,
          "midi": 49,
          "name": "C#3",
          "ticks": 9406,
          "time": 109.37209302325581,
          "velocity": 0.29133858267716534
        },
        {
          "duration": 0.023255813953483084,
          "durationTicks": 2,
          "midi": 49,
          "name": "C#3",
          "ticks": 9412,
          "time": 109.44186046511628,
          "velocity": 0.2992125984251969
        },
        {
          "duration": 0.19767441860464885,
          "durationTicks": 17,
          "midi": 68,
          "name": "G#4",
          "ticks": 9412,
          "time": 109.44186046511628,
          "velocity": 0.10236220472440945
        },
        {
          "duration": 0.034883720930224626,
          "durationTicks": 3,
          "midi": 49,
          "name": "C#3",
          "ticks": 9415,
          "time": 109.47674418604652,
          "velocity": 0.28346456692913385
        },
        {
          "duration": 0.023255813953483084,
          "durationTicks": 2,
          "midi": 57,
          "name": "A3",
          "ticks": 9415,
          "time": 109.47674418604652,
          "velocity": 0.31496062992125984
        },
        {
          "duration": 0.13953488372094114,
          "durationTicks": 12,
          "midi": 49,
          "name": "C#3",
          "ticks": 9419,
          "time": 109.52325581395348,
          "velocity": 0.25196850393700787
        },
        {
          "duration": 0.023255813953497295,
          "durationTicks": 2,
          "midi": 57,
          "name": "A3",
          "ticks": 9419,
          "time": 109.52325581395348,
          "velocity": 0.31496062992125984
        },
        {
          "duration": 0.023255813953483084,
          "durationTicks": 2,
          "midi": 56,
          "name": "G#3",
          "ticks": 9421,
          "time": 109.54651162790698,
          "velocity": 0.2992125984251969
        },
        {
          "duration": 0.023255813953483084,
          "durationTicks": 2,
          "midi": 57,
          "name": "A3",
          "ticks": 9423,
          "time": 109.56976744186046,
          "velocity": 0.2992125984251969
        },
        {
          "duration": 0.3720930232558146,
          "durationTicks": 32,
          "midi": 56,
          "name": "G#3",
          "ticks": 9424,
          "time": 109.5813953488372,
          "velocity": 0.3464566929133858
        },
        {
          "duration": 0.034883720930224626,
          "durationTicks": 3,
          "midi": 49,
          "name": "C#3",
          "ticks": 9432,
          "time": 109.67441860465117,
          "velocity": 0.2440944881889764
        },
        {
          "duration": 0.22093023255813193,
          "durationTicks": 19,
          "midi": 49,
          "name": "C#3",
          "ticks": 9436,
          "time": 109.72093023255815,
          "velocity": 0.2125984251968504
        },
        {
          "duration": 0.023255813953497295,
          "durationTicks": 2,
          "midi": 53,
          "name": "F3",
          "ticks": 9456,
          "time": 109.95348837209302,
          "velocity": 0.28346456692913385
        },
        {
          "duration": 0.034883720930224626,
          "durationTicks": 3,
          "midi": 49,
          "name": "C#3",
          "ticks": 9459,
          "time": 109.98837209302326,
          "velocity": 0.18110236220472442
        },
        {
          "duration": 0.03488372093023884,
          "durationTicks": 3,
          "midi": 56,
          "name": "G#3",
          "ticks": 9462,
          "time": 110.02325581395348,
          "velocity": 0.23622047244094488
        },
        {
          "duration": 0.03488372093023884,
          "durationTicks": 3,
          "midi": 49,
          "name": "C#3",
          "ticks": 9468,
          "time": 110.09302325581395,
          "velocity": 0.1968503937007874
        },
        {
          "duration": 0.03488372093023884,
          "durationTicks": 3,
          "midi": 49,
          "name": "C#3",
          "ticks": 9477,
          "time": 110.19767441860465,
          "velocity": 0.18110236220472442
        },
        {
          "duration": 0.30232558139535115,
          "durationTicks": 26,
          "midi": 56,
          "name": "G#3",
          "ticks": 9478,
          "time": 110.20930232558139,
          "velocity": 0.2677165354330709
        },
        {
          "duration": 0.08139534883721922,
          "durationTicks": 7,
          "midi": 49,
          "name": "C#3",
          "ticks": 9489,
          "time": 110.33720930232558,
          "velocity": 0.13385826771653545
        },
        {
          "duration": 0.25581395348837077,
          "durationTicks": 22,
          "midi": 49,
          "name": "C#3",
          "ticks": 9508,
          "time": 110.55813953488372,
          "velocity": 0.12598425196850394
        },
        {
          "duration": 0.34883720930233153,
          "durationTicks": 30,
          "midi": 56,
          "name": "G#3",
          "ticks": 9526,
          "time": 110.76744186046511,
          "velocity": 0.16535433070866143
        },
        {
          "duration": 0.19767441860464885,
          "durationTicks": 17,
          "midi": 49,
          "name": "C#3",
          "ticks": 9536,
          "time": 110.88372093023256,
          "velocity": 0.07086614173228346
        },
        {
          "duration": 0.023255813953483084,
          "durationTicks": 2,
          "midi": 53,
          "name": "F3",
          "ticks": 9562,
          "time": 111.18604651162791,
          "velocity": 0.2440944881889764
        },
        {
          "duration": 0.03488372093023884,
          "durationTicks": 3,
          "midi": 54,
          "name": "F#3",
          "ticks": 9564,
          "time": 111.20930232558139,
          "velocity": 0.14960629921259844
        },
        {
          "duration": 0.04651162790698038,
          "durationTicks": 4,
          "midi": 53,
          "name": "F3",
          "ticks": 9567,
          "time": 111.24418604651163,
          "velocity": 0.16535433070866143
        },
        {
          "duration": 0.06976744186046346,
          "durationTicks": 6,
          "midi": 53,
          "name": "F3",
          "ticks": 9574,
          "time": 111.32558139534883,
          "velocity": 0.08661417322834646
        },
        {
          "duration": 0.5581395348837219,
          "durationTicks": 48,
          "midi": 56,
          "name": "G#3",
          "ticks": 9583,
          "time": 111.43023255813954,
          "velocity": 0.1968503937007874
        },
        {
          "duration": 0.2674418604651123,
          "durationTicks": 23,
          "midi": 49,
          "name": "C#3",
          "ticks": 9609,
          "time": 111.73255813953489,
          "velocity": 0.25196850393700787
        },
        {
          "duration": 0.24418604651162923,
          "durationTicks": 21,
          "midi": 49,
          "name": "C#3",
          "ticks": 9633,
          "time": 112.01162790697674,
          "velocity": 0.2677165354330709
        },
        {
          "duration": 0.03488372093023884,
          "durationTicks": 3,
          "midi": 41,
          "name": "F2",
          "ticks": 9634,
          "time": 112.02325581395348,
          "velocity": 0.1732283464566929
        },
        {
          "duration": 0.2325581395348877,
          "durationTicks": 20,
          "midi": 56,
          "name": "G#3",
          "ticks": 9634,
          "time": 112.02325581395348,
          "velocity": 0.07874015748031496
        },
        {
          "duration": 0.05813953488372192,
          "durationTicks": 5,
          "midi": 49,
          "name": "C#3",
          "ticks": 9655,
          "time": 112.26744186046511,
          "velocity": 0.29133858267716534
        },
        {
          "duration": 0.15116279069766847,
          "durationTicks": 13,
          "midi": 49,
          "name": "C#3",
          "ticks": 9667,
          "time": 112.40697674418605,
          "velocity": 0.2125984251968504
        },
        {
          "duration": 0.27906976744186807,
          "durationTicks": 24,
          "midi": 56,
          "name": "G#3",
          "ticks": 9682,
          "time": 112.5813953488372,
          "velocity": 0.2204724409448819
        },
        {
          "duration": 0.023255813953497295,
          "durationTicks": 2,
          "midi": 50,
          "name": "D3",
          "ticks": 9683,
          "time": 112.59302325581395,
          "velocity": 0.2755905511811024
        },
        {
          "duration": 0.06976744186047767,
          "durationTicks": 6,
          "midi": 61,
          "name": "C#4",
          "ticks": 9683,
          "time": 112.59302325581395,
          "velocity": 0.07874015748031496
        },
        {
          "duration": 0.17441860465116577,
          "durationTicks": 15,
          "midi": 49,
          "name": "C#3",
          "ticks": 9688,
          "time": 112.65116279069767,
          "velocity": 0.2125984251968504
        },
        {
          "duration": 0.034883720930224626,
          "durationTicks": 3,
          "midi": 61,
          "name": "C#4",
          "ticks": 9706,
          "time": 112.86046511627907,
          "velocity": 0.11023622047244094
        },
        {
          "duration": 0.023255813953497295,
          "durationTicks": 2,
          "midi": 52,
          "name": "E3",
          "ticks": 9708,
          "time": 112.88372093023256,
          "velocity": 0.3937007874015748
        },
        {
          "duration": 0.023255813953497295,
          "durationTicks": 2,
          "midi": 53,
          "name": "F3",
          "ticks": 9715,
          "time": 112.96511627906976,
          "velocity": 0.28346456692913385
        },
        {
          "duration": 0.03488372093023884,
          "durationTicks": 3,
          "midi": 53,
          "name": "F3",
          "ticks": 9720,
          "time": 113.02325581395348,
          "velocity": 0.2283464566929134
        },
        {
          "duration": 0.034883720930224626,
          "durationTicks": 3,
          "midi": 49,
          "name": "C#3",
          "ticks": 9728,
          "time": 113.11627906976744,
          "velocity": 0.25196850393700787
        },
        {
          "duration": 0.034883720930224626,
          "durationTicks": 3,
          "midi": 41,
          "name": "F2",
          "ticks": 9732,
          "time": 113.16279069767442,
          "velocity": 0.13385826771653545
        },
        {
          "duration": 0.023255813953483084,
          "durationTicks": 2,
          "midi": 53,
          "name": "F3",
          "ticks": 9732,
          "time": 113.16279069767442,
          "velocity": 0.2283464566929134
        },
        {
          "duration": 0.023255813953483084,
          "durationTicks": 2,
          "midi": 54,
          "name": "F#3",
          "ticks": 9734,
          "time": 113.18604651162791,
          "velocity": 0.33070866141732286
        },
        {
          "duration": 0.04651162790698038,
          "durationTicks": 4,
          "midi": 53,
          "name": "F3",
          "ticks": 9736,
          "time": 113.20930232558139,
          "velocity": 0.3700787401574803
        },
        {
          "duration": 0.04651162790698038,
          "durationTicks": 4,
          "midi": 53,
          "name": "F3",
          "ticks": 9741,
          "time": 113.26744186046511,
          "velocity": 0.2992125984251969
        },
        {
          "duration": 0.023255813953483084,
          "durationTicks": 2,
          "midi": 54,
          "name": "F#3",
          "ticks": 9745,
          "time": 113.31395348837209,
          "velocity": 0.23622047244094488
        },
        {
          "duration": 0.034883720930224626,
          "durationTicks": 3,
          "midi": 53,
          "name": "F3",
          "ticks": 9749,
          "time": 113.36046511627907,
          "velocity": 0.2204724409448819
        },
        {
          "duration": 0.034883720930224626,
          "durationTicks": 3,
          "midi": 49,
          "name": "C#3",
          "ticks": 9753,
          "time": 113.40697674418605,
          "velocity": 0.13385826771653545
        },
        {
          "duration": 0.023255813953483084,
          "durationTicks": 2,
          "midi": 55,
          "name": "G3",
          "ticks": 9754,
          "time": 113.4186046511628,
          "velocity": 0.28346456692913385
        },
        {
          "duration": 0.03488372093023884,
          "durationTicks": 3,
          "midi": 52,
          "name": "E3",
          "ticks": 9756,
          "time": 113.44186046511628,
          "velocity": 0.49606299212598426
        },
        {
          "duration": 0.081395348837205,
          "durationTicks": 7,
          "midi": 72,
          "name": "C5",
          "ticks": 9756,
          "time": 113.44186046511628,
          "velocity": 0.11023622047244094
        },
        {
          "duration": 0.023255813953483084,
          "durationTicks": 2,
          "midi": 53,
          "name": "F3",
          "ticks": 9759,
          "time": 113.47674418604652,
          "velocity": 0.4409448818897638
        },
        {
          "duration": 0.03488372093023884,
          "durationTicks": 3,
          "midi": 53,
          "name": "F3",
          "ticks": 9762,
          "time": 113.51162790697674,
          "velocity": 0.3937007874015748
        },
        {
          "duration": 0.09302325581394655,
          "durationTicks": 8,
          "midi": 53,
          "name": "F3",
          "ticks": 9771,
          "time": 113.61627906976744,
          "velocity": 0.2677165354330709
        },
        {
          "duration": 0.023255813953483084,
          "durationTicks": 2,
          "midi": 57,
          "name": "A3",
          "ticks": 9777,
          "time": 113.68604651162791,
          "velocity": 0.2283464566929134
        },
        {
          "duration": 0.023255813953483084,
          "durationTicks": 2,
          "midi": 56,
          "name": "G#3",
          "ticks": 9780,
          "time": 113.72093023255815,
          "velocity": 0.25984251968503935
        },
        {
          "duration": 0.24418604651162923,
          "durationTicks": 21,
          "midi": 56,
          "name": "G#3",
          "ticks": 9783,
          "time": 113.75581395348837,
          "velocity": 0.3464566929133858
        },
        {
          "duration": 0.03488372093023884,
          "durationTicks": 3,
          "midi": 42,
          "name": "F#2",
          "ticks": 9799,
          "time": 113.94186046511628,
          "velocity": 0.15748031496062992
        },
        {
          "duration": 0.06976744186047767,
          "durationTicks": 6,
          "midi": 51,
          "name": "D#3",
          "ticks": 9801,
          "time": 113.96511627906976,
          "velocity": 0.33858267716535434
        },
        {
          "duration": 0.023255813953483084,
          "durationTicks": 2,
          "midi": 51,
          "name": "D#3",
          "ticks": 9809,
          "time": 114.05813953488372,
          "velocity": 0.3228346456692913
        },
        {
          "duration": 0.023255813953497295,
          "durationTicks": 2,
          "midi": 51,
          "name": "D#3",
          "ticks": 9812,
          "time": 114.09302325581395,
          "velocity": 0.29133858267716534
        },
        {
          "duration": 0.034883720930224626,
          "durationTicks": 3,
          "midi": 55,
          "name": "G3",
          "ticks": 9814,
          "time": 114.11627906976744,
          "velocity": 0.31496062992125984
        },
        {
          "duration": 0.04651162790698038,
          "durationTicks": 4,
          "midi": 54,
          "name": "F#3",
          "ticks": 9821,
          "time": 114.19767441860465,
          "velocity": 0.28346456692913385
        },
        {
          "duration": 0.023255813953483084,
          "durationTicks": 2,
          "midi": 53,
          "name": "F3",
          "ticks": 9825,
          "time": 114.24418604651163,
          "velocity": 0.29133858267716534
        },
        {
          "duration": 0.05813953488372192,
          "durationTicks": 5,
          "midi": 54,
          "name": "F#3",
          "ticks": 9829,
          "time": 114.29069767441861,
          "velocity": 0.2755905511811024
        },
        {
          "duration": 0.081395348837205,
          "durationTicks": 7,
          "midi": 54,
          "name": "F#3",
          "ticks": 9835,
          "time": 114.36046511627907,
          "velocity": 0.25984251968503935
        },
        {
          "duration": 0.05813953488372192,
          "durationTicks": 5,
          "midi": 54,
          "name": "F#3",
          "ticks": 9846,
          "time": 114.48837209302326,
          "velocity": 0.1889763779527559
        },
        {
          "duration": 0.023255813953483084,
          "durationTicks": 2,
          "midi": 51,
          "name": "D#3",
          "ticks": 9853,
          "time": 114.56976744186046,
          "velocity": 0.3464566929133858
        },
        {
          "duration": 0.15116279069766847,
          "durationTicks": 13,
          "midi": 51,
          "name": "D#3",
          "ticks": 9856,
          "time": 114.6046511627907,
          "velocity": 0.3228346456692913
        },
        {
          "duration": 0.023255813953483084,
          "durationTicks": 2,
          "midi": 51,
          "name": "D#3",
          "ticks": 9873,
          "time": 114.80232558139535,
          "velocity": 0.2440944881889764
        },
        {
          "duration": 1.0465116279069804,
          "durationTicks": 90,
          "midi": 58,
          "name": "A#3",
          "ticks": 9874,
          "time": 114.81395348837209,
          "velocity": 0.31496062992125984
        },
        {
          "duration": 0.04651162790698038,
          "durationTicks": 4,
          "midi": 51,
          "name": "D#3",
          "ticks": 9884,
          "time": 114.93023255813954,
          "velocity": 0.11811023622047244
        },
        {
          "duration": 0.1860465116279073,
          "durationTicks": 16,
          "midi": 51,
          "name": "D#3",
          "ticks": 9898,
          "time": 115.09302325581395,
          "velocity": 0.2755905511811024
        },
        {
          "duration": 0.05813953488372192,
          "durationTicks": 5,
          "midi": 51,
          "name": "D#3",
          "ticks": 9915,
          "time": 115.29069767441861,
          "velocity": 0.2204724409448819
        },
        {
          "duration": 0.24418604651162923,
          "durationTicks": 21,
          "midi": 51,
          "name": "D#3",
          "ticks": 9944,
          "time": 115.62790697674419,
          "velocity": 0.2992125984251969
        },
        {
          "duration": 0.8837209302325562,
          "durationTicks": 76,
          "midi": 58,
          "name": "A#3",
          "ticks": 9967,
          "time": 115.8953488372093,
          "velocity": 0.25196850393700787
        },
        {
          "duration": 0.03488372093023884,
          "durationTicks": 3,
          "midi": 51,
          "name": "D#3",
          "ticks": 9972,
          "time": 115.95348837209302,
          "velocity": 0.13385826771653545
        },
        {
          "duration": 0.27906976744185386,
          "durationTicks": 24,
          "midi": 51,
          "name": "D#3",
          "ticks": 9992,
          "time": 116.18604651162791,
          "velocity": 0.33858267716535434
        },
        {
          "duration": 0.1860465116279073,
          "durationTicks": 16,
          "midi": 51,
          "name": "D#3",
          "ticks": 10020,
          "time": 116.51162790697674,
          "velocity": 0.16535433070866143
        },
        {
          "duration": 0.03488372093023884,
          "durationTicks": 3,
          "midi": 42,
          "name": "F#2",
          "ticks": 10043,
          "time": 116.77906976744185,
          "velocity": 0.13385826771653545
        },
        {
          "duration": 0.023255813953483084,
          "durationTicks": 2,
          "midi": 52,
          "name": "E3",
          "ticks": 10044,
          "time": 116.79069767441861,
          "velocity": 0.3937007874015748
        },
        {
          "duration": 0.04651162790696617,
          "durationTicks": 4,
          "midi": 54,
          "name": "F#3",
          "ticks": 10049,
          "time": 116.84883720930233,
          "velocity": 0.2440944881889764
        },
        {
          "duration": 0.023255813953483084,
          "durationTicks": 2,
          "midi": 54,
          "name": "F#3",
          "ticks": 10057,
          "time": 116.94186046511628,
          "velocity": 0.23622047244094488
        },
        {
          "duration": 0.04651162790696617,
          "durationTicks": 4,
          "midi": 54,
          "name": "F#3",
          "ticks": 10060,
          "time": 116.97674418604652,
          "velocity": 0.2440944881889764
        },
        {
          "duration": 0.04651162790696617,
          "durationTicks": 4,
          "midi": 58,
          "name": "A#3",
          "ticks": 10066,
          "time": 117.04651162790698,
          "velocity": 0.14960629921259844
        },
        {
          "duration": 0.034883720930224626,
          "durationTicks": 3,
          "midi": 53,
          "name": "F3",
          "ticks": 10067,
          "time": 117.05813953488372,
          "velocity": 0.33070866141732286
        },
        {
          "duration": 0.1860465116279073,
          "durationTicks": 16,
          "midi": 54,
          "name": "F#3",
          "ticks": 10070,
          "time": 117.09302325581395,
          "velocity": 0.29133858267716534
        },
        {
          "duration": 0.06976744186047767,
          "durationTicks": 6,
          "midi": 58,
          "name": "A#3",
          "ticks": 10075,
          "time": 117.15116279069767,
          "velocity": 0.1732283464566929
        },
        {
          "duration": 0.09302325581396076,
          "durationTicks": 8,
          "midi": 58,
          "name": "A#3",
          "ticks": 10084,
          "time": 117.25581395348837,
          "velocity": 0.2047244094488189
        },
        {
          "duration": 0.023255813953497295,
          "durationTicks": 2,
          "midi": 51,
          "name": "D#3",
          "ticks": 10091,
          "time": 117.33720930232558,
          "velocity": 0.31496062992125984
        },
        {
          "duration": 0.27906976744185386,
          "durationTicks": 24,
          "midi": 58,
          "name": "A#3",
          "ticks": 10093,
          "time": 117.36046511627907,
          "velocity": 0.3543307086614173
        },
        {
          "duration": 0.24418604651162923,
          "durationTicks": 21,
          "midi": 51,
          "name": "D#3",
          "ticks": 10094,
          "time": 117.37209302325581,
          "velocity": 0.31496062992125984
        },
        {
          "duration": 0.24418604651162923,
          "durationTicks": 21,
          "midi": 58,
          "name": "A#3",
          "ticks": 10118,
          "time": 117.65116279069767,
          "velocity": 0.3228346456692913
        },
        {
          "duration": 0.23255813953487348,
          "durationTicks": 20,
          "midi": 51,
          "name": "D#3",
          "ticks": 10141,
          "time": 117.9186046511628,
          "velocity": 0.36220472440944884
        },
        {
          "duration": 0.034883720930224626,
          "durationTicks": 3,
          "midi": 59,
          "name": "B3",
          "ticks": 10141,
          "time": 117.9186046511628,
          "velocity": 0.36220472440944884
        },
        {
          "duration": 0.03488372093023884,
          "durationTicks": 3,
          "midi": 60,
          "name": "C4",
          "ticks": 10144,
          "time": 117.95348837209302,
          "velocity": 0.33070866141732286
        },
        {
          "duration": 0.1860465116279073,
          "durationTicks": 16,
          "midi": 61,
          "name": "C#4",
          "ticks": 10147,
          "time": 117.98837209302326,
          "velocity": 0.30708661417322836
        },
        {
          "duration": 0.03488372093023884,
          "durationTicks": 3,
          "midi": 41,
          "name": "F2",
          "ticks": 10166,
          "time": 118.20930232558139,
          "velocity": 0.14960629921259844
        },
        {
          "duration": 0.04651162790698038,
          "durationTicks": 4,
          "midi": 51,
          "name": "D#3",
          "ticks": 10166,
          "time": 118.20930232558139,
          "velocity": 0.1889763779527559
        },
        {
          "duration": 0.2325581395348877,
          "durationTicks": 20,
          "midi": 61,
          "name": "C#4",
          "ticks": 10166,
          "time": 118.20930232558139,
          "velocity": 0.3228346456692913
        },
        {
          "duration": 0.04651162790696617,
          "durationTicks": 4,
          "midi": 56,
          "name": "G#3",
          "ticks": 10167,
          "time": 118.22093023255815,
          "velocity": 0.2204724409448819
        },
        {
          "duration": 0.04651162790698038,
          "durationTicks": 4,
          "midi": 52,
          "name": "E3",
          "ticks": 10172,
          "time": 118.27906976744185,
          "velocity": 0.09448818897637795
        },
        {
          "duration": 0.023255813953497295,
          "durationTicks": 2,
          "midi": 60,
          "name": "C4",
          "ticks": 10188,
          "time": 118.46511627906976,
          "velocity": 0.25196850393700787
        },
        {
          "duration": 0.023255813953483084,
          "durationTicks": 2,
          "midi": 45,
          "name": "A2",
          "ticks": 10189,
          "time": 118.47674418604652,
          "velocity": 0.3464566929133858
        },
        {
          "duration": 0.081395348837205,
          "durationTicks": 7,
          "midi": 61,
          "name": "C#4",
          "ticks": 10190,
          "time": 118.48837209302326,
          "velocity": 0.33858267716535434
        },
        {
          "duration": 0.5581395348837219,
          "durationTicks": 48,
          "midi": 47,
          "name": "B2",
          "ticks": 10191,
          "time": 118.5,
          "velocity": 0.31496062992125984
        },
        {
          "duration": 0.023255813953497295,
          "durationTicks": 2,
          "midi": 53,
          "name": "F3",
          "ticks": 10214,
          "time": 118.76744186046511,
          "velocity": 0.23622047244094488
        },
        {
          "duration": 0.034883720930224626,
          "durationTicks": 3,
          "midi": 54,
          "name": "F#3",
          "ticks": 10216,
          "time": 118.79069767441861,
          "velocity": 0.2125984251968504
        },
        {
          "duration": 0.2093023255814046,
          "durationTicks": 18,
          "midi": 54,
          "name": "F#3",
          "ticks": 10220,
          "time": 118.83720930232558,
          "velocity": 0.1889763779527559
        },
        {
          "duration": 0.023255813953483084,
          "durationTicks": 2,
          "midi": 53,
          "name": "F3",
          "ticks": 10239,
          "time": 119.05813953488372,
          "velocity": 0.31496062992125984
        },
        {
          "duration": 0.06976744186046346,
          "durationTicks": 6,
          "midi": 75,
          "name": "D#5",
          "ticks": 10239,
          "time": 119.05813953488372,
          "velocity": 0.14960629921259844
        },
        {
          "duration": 0.023255813953483084,
          "durationTicks": 2,
          "midi": 47,
          "name": "B2",
          "ticks": 10240,
          "time": 119.06976744186046,
          "velocity": 0.25196850393700787
        },
        {
          "duration": 0.24418604651162923,
          "durationTicks": 21,
          "midi": 47,
          "name": "B2",
          "ticks": 10243,
          "time": 119.1046511627907,
          "velocity": 0.2440944881889764
        },
        {
          "duration": 0.16279069767442422,
          "durationTicks": 14,
          "midi": 54,
          "name": "F#3",
          "ticks": 10247,
          "time": 119.15116279069767,
          "velocity": 0.13385826771653545
        },
        {
          "duration": 0.03488372093023884,
          "durationTicks": 3,
          "midi": 75,
          "name": "D#5",
          "ticks": 10257,
          "time": 119.26744186046511,
          "velocity": 0.07874015748031496
        },
        {
          "duration": 0.04651162790698038,
          "durationTicks": 4,
          "midi": 59,
          "name": "B3",
          "ticks": 10262,
          "time": 119.32558139534883,
          "velocity": 0.4015748031496063
        },
        {
          "duration": 0.023255813953497295,
          "durationTicks": 2,
          "midi": 53,
          "name": "F3",
          "ticks": 10263,
          "time": 119.33720930232558,
          "velocity": 0.2283464566929134
        },
        {
          "duration": 0.034883720930224626,
          "durationTicks": 3,
          "midi": 59,
          "name": "B3",
          "ticks": 10270,
          "time": 119.4186046511628,
          "velocity": 0.31496062992125984
        },
        {
          "duration": 0.5465116279069804,
          "durationTicks": 47,
          "midi": 61,
          "name": "C#4",
          "ticks": 10272,
          "time": 119.44186046511628,
          "velocity": 0.25196850393700787
        },
        {
          "duration": 0.15116279069768268,
          "durationTicks": 13,
          "midi": 42,
          "name": "F#2",
          "ticks": 10289,
          "time": 119.63953488372093,
          "velocity": 0.3937007874015748
        },
        {
          "duration": 0.023255813953497295,
          "durationTicks": 2,
          "midi": 53,
          "name": "F3",
          "ticks": 10289,
          "time": 119.63953488372093,
          "velocity": 0.28346456692913385
        },
        {
          "duration": 0.034883720930224626,
          "durationTicks": 3,
          "midi": 43,
          "name": "G2",
          "ticks": 10302,
          "time": 119.79069767441861,
          "velocity": 0.2125984251968504
        },
        {
          "duration": 0.11627906976744384,
          "durationTicks": 10,
          "midi": 42,
          "name": "F#2",
          "ticks": 10305,
          "time": 119.82558139534883,
          "velocity": 0.28346456692913385
        },
        {
          "duration": 0.16279069767441,
          "durationTicks": 14,
          "midi": 42,
          "name": "F#2",
          "ticks": 10319,
          "time": 119.98837209302326,
          "velocity": 0.2204724409448819
        },
        {
          "duration": 0.03488372093023884,
          "durationTicks": 3,
          "midi": 54,
          "name": "F#3",
          "ticks": 10333,
          "time": 120.15116279069767,
          "velocity": 0.12598425196850394
        },
        {
          "duration": 0.2906976744185954,
          "durationTicks": 25,
          "midi": 42,
          "name": "F#2",
          "ticks": 10335,
          "time": 120.17441860465117,
          "velocity": 0.23622047244094488
        },
        {
          "duration": 0.2906976744185954,
          "durationTicks": 25,
          "midi": 61,
          "name": "C#4",
          "ticks": 10335,
          "time": 120.17441860465117,
          "velocity": 0.1889763779527559
        },
        {
          "duration": 0.8139534883720927,
          "durationTicks": 70,
          "midi": 58,
          "name": "A#3",
          "ticks": 10361,
          "time": 120.47674418604652,
          "velocity": 0.23622047244094488
        },
        {
          "duration": 0.1046511627907023,
          "durationTicks": 9,
          "midi": 42,
          "name": "F#2",
          "ticks": 10363,
          "time": 120.5,
          "velocity": 0.11811023622047244
        },
        {
          "duration": 0.023255813953497295,
          "durationTicks": 2,
          "midi": 41,
          "name": "F2",
          "ticks": 10387,
          "time": 120.77906976744185,
          "velocity": 0.2440944881889764
        },
        {
          "duration": 0.12790697674418539,
          "durationTicks": 11,
          "midi": 42,
          "name": "F#2",
          "ticks": 10389,
          "time": 120.80232558139535,
          "velocity": 0.33858267716535434
        },
        {
          "duration": 0.04651162790698038,
          "durationTicks": 4,
          "midi": 43,
          "name": "G2",
          "ticks": 10400,
          "time": 120.93023255813954,
          "velocity": 0.1732283464566929
        },
        {
          "duration": 0.15116279069766847,
          "durationTicks": 13,
          "midi": 42,
          "name": "F#2",
          "ticks": 10404,
          "time": 120.97674418604652,
          "velocity": 0.25196850393700787
        },
        {
          "duration": 0.16279069767442422,
          "durationTicks": 14,
          "midi": 42,
          "name": "F#2",
          "ticks": 10418,
          "time": 121.13953488372093,
          "velocity": 0.1889763779527559
        },
        {
          "duration": 0.1860465116279073,
          "durationTicks": 16,
          "midi": 61,
          "name": "C#4",
          "ticks": 10431,
          "time": 121.29069767441861,
          "velocity": 0.1889763779527559
        },
        {
          "duration": 0.023255813953483084,
          "durationTicks": 2,
          "midi": 50,
          "name": "D3",
          "ticks": 10432,
          "time": 121.30232558139535,
          "velocity": 0.2755905511811024
        },
        {
          "duration": 0.023255813953497295,
          "durationTicks": 2,
          "midi": 53,
          "name": "F3",
          "ticks": 10434,
          "time": 121.32558139534883,
          "velocity": 0.3543307086614173
        },
        {
          "duration": 0.23255813953487348,
          "durationTicks": 20,
          "midi": 54,
          "name": "F#3",
          "ticks": 10436,
          "time": 121.34883720930233,
          "velocity": 0.31496062992125984
        },
        {
          "duration": 0.22093023255813193,
          "durationTicks": 19,
          "midi": 42,
          "name": "F#2",
          "ticks": 10437,
          "time": 121.36046511627907,
          "velocity": 0.1732283464566929
        },
        {
          "duration": 0.1046511627907023,
          "durationTicks": 9,
          "midi": 58,
          "name": "A#3",
          "ticks": 10455,
          "time": 121.56976744186046,
          "velocity": 0.18110236220472442
        },
        {
          "duration": 0.03488372093023884,
          "durationTicks": 3,
          "midi": 53,
          "name": "F3",
          "ticks": 10457,
          "time": 121.59302325581395,
          "velocity": 0.33858267716535434
        },
        {
          "duration": 0.15116279069766847,
          "durationTicks": 13,
          "midi": 54,
          "name": "F#3",
          "ticks": 10463,
          "time": 121.66279069767442,
          "velocity": 0.23622047244094488
        },
        {
          "duration": 0.11627906976744384,
          "durationTicks": 10,
          "midi": 58,
          "name": "A#3",
          "ticks": 10471,
          "time": 121.75581395348837,
          "velocity": 0.14960629921259844
        },
        {
          "duration": 0.04651162790698038,
          "durationTicks": 4,
          "midi": 53,
          "name": "F3",
          "ticks": 10476,
          "time": 121.81395348837209,
          "velocity": 0.1968503937007874
        },
        {
          "duration": 0.023255813953483084,
          "durationTicks": 2,
          "midi": 41,
          "name": "F2",
          "ticks": 10481,
          "time": 121.87209302325581,
          "velocity": 0.30708661417322836
        },
        {
          "duration": 0.13953488372094114,
          "durationTicks": 12,
          "midi": 42,
          "name": "F#2",
          "ticks": 10483,
          "time": 121.8953488372093,
          "velocity": 0.36220472440944884
        },
        {
          "duration": 0.5813953488372192,
          "durationTicks": 50,
          "midi": 58,
          "name": "A#3",
          "ticks": 10483,
          "time": 121.8953488372093,
          "velocity": 0.3779527559055118
        },
        {
          "duration": 0.034883720930224626,
          "durationTicks": 3,
          "midi": 43,
          "name": "G2",
          "ticks": 10495,
          "time": 122.03488372093024,
          "velocity": 0.1732283464566929
        },
        {
          "duration": 0.11627906976744384,
          "durationTicks": 10,
          "midi": 42,
          "name": "F#2",
          "ticks": 10498,
          "time": 122.06976744186046,
          "velocity": 0.2440944881889764
        },
        {
          "duration": 0.22093023255814614,
          "durationTicks": 19,
          "midi": 42,
          "name": "F#2",
          "ticks": 10509,
          "time": 122.19767441860465,
          "velocity": 0.23622047244094488
        },
        {
          "duration": 0.1046511627907023,
          "durationTicks": 9,
          "midi": 42,
          "name": "F#2",
          "ticks": 10531,
          "time": 122.45348837209302,
          "velocity": 0.14960629921259844
        },
        {
          "duration": 0.034883720930224626,
          "durationTicks": 3,
          "midi": 59,
          "name": "B3",
          "ticks": 10533,
          "time": 122.47674418604652,
          "velocity": 0.4015748031496063
        },
        {
          "duration": 0.04651162790698038,
          "durationTicks": 4,
          "midi": 60,
          "name": "C4",
          "ticks": 10536,
          "time": 122.51162790697674,
          "velocity": 0.30708661417322836
        },
        {
          "duration": 0.17441860465116577,
          "durationTicks": 15,
          "midi": 61,
          "name": "C#4",
          "ticks": 10540,
          "time": 122.55813953488372,
          "velocity": 0.33070866141732286
        },
        {
          "duration": 0.22093023255813193,
          "durationTicks": 19,
          "midi": 58,
          "name": "A#3",
          "ticks": 10555,
          "time": 122.73255813953489,
          "velocity": 0.33070866141732286
        },
        {
          "duration": 0.05813953488372192,
          "durationTicks": 5,
          "midi": 42,
          "name": "F#2",
          "ticks": 10559,
          "time": 122.77906976744185,
          "velocity": 0.14960629921259844
        },
        {
          "duration": 0.1860465116279073,
          "durationTicks": 16,
          "midi": 85,
          "name": "C#6",
          "ticks": 10560,
          "time": 122.79069767441861,
          "velocity": 0.07086614173228346
        },
        {
          "duration": 0.05813953488372192,
          "durationTicks": 5,
          "midi": 61,
          "name": "C#4",
          "ticks": 10573,
          "time": 122.94186046511628,
          "velocity": 0.16535433070866143
        },
        {
          "duration": 0.034883720930224626,
          "durationTicks": 3,
          "midi": 45,
          "name": "A2",
          "ticks": 10581,
          "time": 123.03488372093024,
          "velocity": 0.2677165354330709
        },
        {
          "duration": 0.04651162790696617,
          "durationTicks": 4,
          "midi": 58,
          "name": "A#3",
          "ticks": 10581,
          "time": 123.03488372093024,
          "velocity": 0.2047244094488189
        },
        {
          "duration": 0.48837209302325846,
          "durationTicks": 42,
          "midi": 75,
          "name": "D#5",
          "ticks": 10583,
          "time": 123.05813953488372,
          "velocity": 0.1889763779527559
        },
        {
          "duration": 0.5232558139534973,
          "durationTicks": 45,
          "midi": 47,
          "name": "B2",
          "ticks": 10586,
          "time": 123.09302325581395,
          "velocity": 0.25196850393700787
        },
        {
          "duration": 0.22093023255814614,
          "durationTicks": 19,
          "midi": 54,
          "name": "F#3",
          "ticks": 10612,
          "time": 123.3953488372093,
          "velocity": 0.2125984251968504
        },
        {
          "duration": 0.24418604651162923,
          "durationTicks": 21,
          "midi": 75,
          "name": "D#5",
          "ticks": 10631,
          "time": 123.61627906976744,
          "velocity": 0.1889763779527559
        },
        {
          "duration": 0.32558139534883423,
          "durationTicks": 28,
          "midi": 47,
          "name": "B2",
          "ticks": 10632,
          "time": 123.62790697674419,
          "velocity": 0.25196850393700787
        },
        {
          "duration": 0.27906976744186807,
          "durationTicks": 24,
          "midi": 54,
          "name": "F#3",
          "ticks": 10632,
          "time": 123.62790697674419,
          "velocity": 0.13385826771653545
        },
        {
          "duration": 0.081395348837205,
          "durationTicks": 7,
          "midi": 82,
          "name": "A#5",
          "ticks": 10635,
          "time": 123.66279069767442,
          "velocity": 0.07874015748031496
        },
        {
          "duration": 0.034883720930224626,
          "durationTicks": 3,
          "midi": 61,
          "name": "C#4",
          "ticks": 10658,
          "time": 123.93023255813954,
          "velocity": 0.31496062992125984
        },
        {
          "duration": 0.24418604651162923,
          "durationTicks": 21,
          "midi": 85,
          "name": "C#6",
          "ticks": 10659,
          "time": 123.94186046511628,
          "velocity": 0.07086614173228346
        },
        {
          "duration": 0.09302325581396076,
          "durationTicks": 8,
          "midi": 59,
          "name": "B3",
          "ticks": 10660,
          "time": 123.95348837209302,
          "velocity": 0.3464566929133858
        },
        {
          "duration": 0.1046511627907023,
          "durationTicks": 9,
          "midi": 47,
          "name": "B2",
          "ticks": 10661,
          "time": 123.96511627906976,
          "velocity": 0.18110236220472442
        },
        {
          "duration": 0.034883720930224626,
          "durationTicks": 3,
          "midi": 58,
          "name": "A#3",
          "ticks": 10668,
          "time": 124.04651162790698,
          "velocity": 0.25196850393700787
        },
        {
          "duration": 0.32558139534884845,
          "durationTicks": 28,
          "midi": 61,
          "name": "C#4",
          "ticks": 10672,
          "time": 124.09302325581395,
          "velocity": 0.1732283464566929
        },
        {
          "duration": 0.06976744186046346,
          "durationTicks": 6,
          "midi": 41,
          "name": "F2",
          "ticks": 10683,
          "time": 124.22093023255815,
          "velocity": 0.3543307086614173
        },
        {
          "duration": 0.10465116279068809,
          "durationTicks": 9,
          "midi": 42,
          "name": "F#2",
          "ticks": 10689,
          "time": 124.29069767441861,
          "velocity": 0.3543307086614173
        },
        {
          "duration": 0.03488372093023884,
          "durationTicks": 3,
          "midi": 43,
          "name": "G2",
          "ticks": 10698,
          "time": 124.3953488372093,
          "velocity": 0.11023622047244094
        },
        {
          "duration": 0.06976744186046346,
          "durationTicks": 6,
          "midi": 42,
          "name": "F#2",
          "ticks": 10701,
          "time": 124.43023255813954,
          "velocity": 0.2283464566929134
        },
        {
          "duration": 0.034883720930224626,
          "durationTicks": 3,
          "midi": 42,
          "name": "F#2",
          "ticks": 10710,
          "time": 124.53488372093024,
          "velocity": 0.15748031496062992
        },
        {
          "duration": 0.13953488372092693,
          "durationTicks": 12,
          "midi": 49,
          "name": "C#3",
          "ticks": 10712,
          "time": 124.55813953488372,
          "velocity": 0.13385826771653545
        },
        {
          "duration": 0.09302325581396076,
          "durationTicks": 8,
          "midi": 42,
          "name": "F#2",
          "ticks": 10718,
          "time": 124.62790697674419,
          "velocity": 0.11811023622047244
        },
        {
          "duration": 0.03488372093023884,
          "durationTicks": 3,
          "midi": 49,
          "name": "C#3",
          "ticks": 10725,
          "time": 124.70930232558139,
          "velocity": 0.11023622047244094
        },
        {
          "duration": 0.27906976744186807,
          "durationTicks": 24,
          "midi": 61,
          "name": "C#4",
          "ticks": 10729,
          "time": 124.75581395348837,
          "velocity": 0.23622047244094488
        },
        {
          "duration": 0.05813953488372192,
          "durationTicks": 5,
          "midi": 42,
          "name": "F#2",
          "ticks": 10730,
          "time": 124.76744186046511,
          "velocity": 0.18110236220472442
        },
        {
          "duration": 0.16279069767441,
          "durationTicks": 14,
          "midi": 49,
          "name": "C#3",
          "ticks": 10733,
          "time": 124.80232558139535,
          "velocity": 0.08661417322834646
        },
        {
          "duration": 0.04651162790698038,
          "durationTicks": 4,
          "midi": 42,
          "name": "F#2",
          "ticks": 10745,
          "time": 124.94186046511628,
          "velocity": 0.07086614173228346
        },
        {
          "duration": 0.8255813953488342,
          "durationTicks": 71,
          "midi": 58,
          "name": "A#3",
          "ticks": 10755,
          "time": 125.05813953488372,
          "velocity": 0.2992125984251969
        },
        {
          "duration": 0.03488372093023884,
          "durationTicks": 3,
          "midi": 53,
          "name": "F3",
          "ticks": 10778,
          "time": 125.32558139534883,
          "velocity": 0.2283464566929134
        },
        {
          "duration": 0.03488372093023884,
          "durationTicks": 3,
          "midi": 41,
          "name": "F2",
          "ticks": 10779,
          "time": 125.33720930232558,
          "velocity": 0.31496062992125984
        },
        {
          "duration": 0.11627906976744384,
          "durationTicks": 10,
          "midi": 42,
          "name": "F#2",
          "ticks": 10782,
          "time": 125.37209302325581,
          "velocity": 0.3464566929133858
        },
        {
          "duration": 0.034883720930224626,
          "durationTicks": 3,
          "midi": 43,
          "name": "G2",
          "ticks": 10792,
          "time": 125.48837209302326,
          "velocity": 0.15748031496062992
        },
        {
          "duration": 0.13953488372094114,
          "durationTicks": 12,
          "midi": 42,
          "name": "F#2",
          "ticks": 10795,
          "time": 125.52325581395348,
          "velocity": 0.2283464566929134
        },
        {
          "duration": 0.22093023255814614,
          "durationTicks": 19,
          "midi": 42,
          "name": "F#2",
          "ticks": 10809,
          "time": 125.68604651162791,
          "velocity": 0.16535433070866143
        },
        {
          "duration": 0.16279069767442422,
          "durationTicks": 14,
          "midi": 61,
          "name": "C#4",
          "ticks": 10827,
          "time": 125.8953488372093,
          "velocity": 0.2283464566929134
        },
        {
          "duration": 0.023255813953483084,
          "durationTicks": 2,
          "midi": 53,
          "name": "F3",
          "ticks": 10828,
          "time": 125.90697674418605,
          "velocity": 0.3858267716535433
        },
        {
          "duration": 0.17441860465115155,
          "durationTicks": 15,
          "midi": 42,
          "name": "F#2",
          "ticks": 10829,
          "time": 125.9186046511628,
          "velocity": 0.16535433070866143
        },
        {
          "duration": 0.034883720930224626,
          "durationTicks": 3,
          "midi": 54,
          "name": "F#3",
          "ticks": 10830,
          "time": 125.93023255813954,
          "velocity": 0.3464566929133858
        },
        {
          "duration": 0.15116279069766847,
          "durationTicks": 13,
          "midi": 54,
          "name": "F#3",
          "ticks": 10834,
          "time": 125.97674418604652,
          "velocity": 0.30708661417322836
        },
        {
          "duration": 0.06976744186047767,
          "durationTicks": 6,
          "midi": 61,
          "name": "C#4",
          "ticks": 10844,
          "time": 126.09302325581395,
          "velocity": 0.11811023622047244
        },
        {
          "duration": 0.03488372093023884,
          "durationTicks": 3,
          "midi": 50,
          "name": "D3",
          "ticks": 10849,
          "time": 126.15116279069767,
          "velocity": 0.15748031496062992
        },
        {
          "duration": 0.2906976744185954,
          "durationTicks": 25,
          "midi": 58,
          "name": "A#3",
          "ticks": 10850,
          "time": 126.16279069767442,
          "velocity": 0.30708661417322836
        },
        {
          "duration": 0.034883720930224626,
          "durationTicks": 3,
          "midi": 42,
          "name": "F#2",
          "ticks": 10851,
          "time": 126.17441860465117,
          "velocity": 0.14173228346456693
        },
        {
          "duration": 0.023255813953497295,
          "durationTicks": 2,
          "midi": 45,
          "name": "A2",
          "ticks": 10875,
          "time": 126.45348837209302,
          "velocity": 0.28346456692913385
        },
        {
          "duration": 0.15116279069768268,
          "durationTicks": 13,
          "midi": 61,
          "name": "C#4",
          "ticks": 10876,
          "time": 126.46511627906976,
          "velocity": 0.2755905511811024
        },
        {
          "duration": 0.8139534883720927,
          "durationTicks": 70,
          "midi": 47,
          "name": "B2",
          "ticks": 10879,
          "time": 126.5,
          "velocity": 0.23622047244094488
        },
        {
          "duration": 0.05813953488372192,
          "durationTicks": 5,
          "midi": 62,
          "name": "D4",
          "ticks": 10889,
          "time": 126.61627906976744,
          "velocity": 0.23622047244094488
        },
        {
          "duration": 0.03488372093023884,
          "durationTicks": 3,
          "midi": 54,
          "name": "F#3",
          "ticks": 10903,
          "time": 126.77906976744185,
          "velocity": 0.11811023622047244
        },
        {
          "duration": 0.2325581395348877,
          "durationTicks": 20,
          "midi": 54,
          "name": "F#3",
          "ticks": 10907,
          "time": 126.82558139534883,
          "velocity": 0.11811023622047244
        },
        {
          "duration": 0.6395348837209411,
          "durationTicks": 55,
          "midi": 75,
          "name": "D#5",
          "ticks": 10929,
          "time": 127.0813953488372,
          "velocity": 0.1968503937007874
        },
        {
          "duration": 0.17441860465116577,
          "durationTicks": 15,
          "midi": 47,
          "name": "B2",
          "ticks": 10950,
          "time": 127.32558139534883,
          "velocity": 0.16535433070866143
        },
        {
          "duration": 0.7674418604651265,
          "durationTicks": 66,
          "midi": 59,
          "name": "B3",
          "ticks": 10951,
          "time": 127.33720930232558,
          "velocity": 0.2283464566929134
        },
        {
          "duration": 0.5348837209302246,
          "durationTicks": 46,
          "midi": 47,
          "name": "B2",
          "ticks": 10975,
          "time": 127.61627906976744,
          "velocity": 0.2047244094488189
        },
        {
          "duration": 0.23255813953487348,
          "durationTicks": 20,
          "midi": 54,
          "name": "F#3",
          "ticks": 11002,
          "time": 127.93023255813954,
          "velocity": 0.13385826771653545
        },
        {
          "duration": 0.03488372093025305,
          "durationTicks": 3,
          "midi": 63,
          "name": "D#4",
          "ticks": 11022,
          "time": 128.1627906976744,
          "velocity": 0.1732283464566929
        },
        {
          "duration": 0.25581395348837077,
          "durationTicks": 22,
          "midi": 47,
          "name": "B2",
          "ticks": 11023,
          "time": 128.17441860465115,
          "velocity": 0.2125984251968504
        },
        {
          "duration": 0.2093023255814046,
          "durationTicks": 18,
          "midi": 75,
          "name": "D#5",
          "ticks": 11023,
          "time": 128.17441860465115,
          "velocity": 0.1968503937007874
        },
        {
          "duration": 0.8837209302325562,
          "durationTicks": 76,
          "midi": 59,
          "name": "B3",
          "ticks": 11047,
          "time": 128.45348837209303,
          "velocity": 0.25196850393700787
        },
        {
          "duration": 0.16279069767441,
          "durationTicks": 14,
          "midi": 77,
          "name": "F5",
          "ticks": 11047,
          "time": 128.45348837209303,
          "velocity": 0.1889763779527559
        },
        {
          "duration": 0.22093023255811772,
          "durationTicks": 19,
          "midi": 84,
          "name": "C6",
          "ticks": 11047,
          "time": 128.45348837209303,
          "velocity": 0.10236220472440945
        },
        {
          "duration": 0.09302325581393234,
          "durationTicks": 8,
          "midi": 47,
          "name": "B2",
          "ticks": 11048,
          "time": 128.46511627906978,
          "velocity": 0.1732283464566929
        },
        {
          "duration": 0.023255813953483084,
          "durationTicks": 2,
          "midi": 45,
          "name": "A2",
          "ticks": 11070,
          "time": 128.72093023255815,
          "velocity": 0.2677165354330709
        },
        {
          "duration": 0.023255813953483084,
          "durationTicks": 2,
          "midi": 47,
          "name": "B2",
          "ticks": 11072,
          "time": 128.74418604651163,
          "velocity": 0.2440944881889764
        },
        {
          "duration": 0.12790697674418539,
          "durationTicks": 11,
          "midi": 77,
          "name": "F5",
          "ticks": 11073,
          "time": 128.75581395348837,
          "velocity": 0.29133858267716534
        },
        {
          "duration": 0.11627906976744384,
          "durationTicks": 10,
          "midi": 84,
          "name": "C6",
          "ticks": 11073,
          "time": 128.75581395348837,
          "velocity": 0.1968503937007874
        },
        {
          "duration": 0.5465116279069946,
          "durationTicks": 47,
          "midi": 47,
          "name": "B2",
          "ticks": 11075,
          "time": 128.77906976744185,
          "velocity": 0.2283464566929134
        },
        {
          "duration": 0.33720930232559,
          "durationTicks": 29,
          "midi": 66,
          "name": "F#4",
          "ticks": 11083,
          "time": 128.87209302325581,
          "velocity": 0.12598425196850394
        },
        {
          "duration": 0.25581395348837077,
          "durationTicks": 22,
          "midi": 85,
          "name": "C#6",
          "ticks": 11085,
          "time": 128.8953488372093,
          "velocity": 0.07874015748031496
        },
        {
          "duration": 0.24418604651162923,
          "durationTicks": 21,
          "midi": 66,
          "name": "F#4",
          "ticks": 11124,
          "time": 129.34883720930233,
          "velocity": 0.13385826771653545
        },
        {
          "duration": 0.15116279069766847,
          "durationTicks": 13,
          "midi": 78,
          "name": "F#5",
          "ticks": 11124,
          "time": 129.34883720930233,
          "velocity": 0.13385826771653545
        },
        {
          "duration": 0.25581395348837077,
          "durationTicks": 22,
          "midi": 85,
          "name": "C#6",
          "ticks": 11124,
          "time": 129.34883720930233,
          "velocity": 0.1732283464566929
        },
        {
          "duration": 0.3953488372092977,
          "durationTicks": 34,
          "midi": 47,
          "name": "B2",
          "ticks": 11126,
          "time": 129.37209302325581,
          "velocity": 0.18110236220472442
        },
        {
          "duration": 0.22093023255814614,
          "durationTicks": 19,
          "midi": 78,
          "name": "F#5",
          "ticks": 11149,
          "time": 129.63953488372093,
          "velocity": 0.1968503937007874
        },
        {
          "duration": 0.2325581395348877,
          "durationTicks": 20,
          "midi": 85,
          "name": "C#6",
          "ticks": 11149,
          "time": 129.63953488372093,
          "velocity": 0.18110236220472442
        },
        {
          "duration": 0.22093023255814614,
          "durationTicks": 19,
          "midi": 66,
          "name": "F#4",
          "ticks": 11150,
          "time": 129.65116279069767,
          "velocity": 0.11811023622047244
        },
        {
          "duration": 0.3139534883721069,
          "durationTicks": 27,
          "midi": 59,
          "name": "B3",
          "ticks": 11151,
          "time": 129.6627906976744,
          "velocity": 0.1889763779527559
        },
        {
          "duration": 0.023255813953483084,
          "durationTicks": 2,
          "midi": 45,
          "name": "A2",
          "ticks": 11172,
          "time": 129.90697674418604,
          "velocity": 0.2677165354330709
        },
        {
          "duration": 0.534883720930253,
          "durationTicks": 46,
          "midi": 47,
          "name": "B2",
          "ticks": 11174,
          "time": 129.93023255813952,
          "velocity": 0.23622047244094488
        },
        {
          "duration": 0.17441860465117998,
          "durationTicks": 15,
          "midi": 77,
          "name": "F5",
          "ticks": 11174,
          "time": 129.93023255813952,
          "velocity": 0.25196850393700787
        },
        {
          "duration": 0.4767441860465169,
          "durationTicks": 41,
          "midi": 84,
          "name": "C6",
          "ticks": 11174,
          "time": 129.93023255813952,
          "velocity": 0.16535433070866143
        },
        {
          "duration": 0.03488372093025305,
          "durationTicks": 3,
          "midi": 53,
          "name": "F3",
          "ticks": 11196,
          "time": 130.1860465116279,
          "velocity": 0.18110236220472442
        },
        {
          "duration": 0.2093023255814046,
          "durationTicks": 18,
          "midi": 54,
          "name": "F#3",
          "ticks": 11202,
          "time": 130.25581395348837,
          "velocity": 0.15748031496062992
        },
        {
          "duration": 0.40697674418603924,
          "durationTicks": 35,
          "midi": 75,
          "name": "D#5",
          "ticks": 11222,
          "time": 130.48837209302326,
          "velocity": 0.14173228346456693
        },
        {
          "duration": 0.2093023255814046,
          "durationTicks": 18,
          "midi": 47,
          "name": "B2",
          "ticks": 11223,
          "time": 130.5,
          "velocity": 0.1889763779527559
        },
        {
          "duration": 0.034883720930224626,
          "durationTicks": 3,
          "midi": 53,
          "name": "F3",
          "ticks": 11225,
          "time": 130.52325581395348,
          "velocity": 0.12598425196850394
        },
        {
          "duration": 0.13953488372092693,
          "durationTicks": 12,
          "midi": 58,
          "name": "A#3",
          "ticks": 11242,
          "time": 130.72093023255815,
          "velocity": 0.11023622047244094
        },
        {
          "duration": 0.034883720930224626,
          "durationTicks": 3,
          "midi": 41,
          "name": "F2",
          "ticks": 11264,
          "time": 130.97674418604652,
          "velocity": 0.2755905511811024
        },
        {
          "duration": 0.034883720930224626,
          "durationTicks": 3,
          "midi": 53,
          "name": "F3",
          "ticks": 11264,
          "time": 130.97674418604652,
          "velocity": 0.31496062992125984
        },
        {
          "duration": 0.4767441860465169,
          "durationTicks": 41,
          "midi": 61,
          "name": "C#4",
          "ticks": 11266,
          "time": 131,
          "velocity": 0.29133858267716534
        },
        {
          "duration": 0.12790697674418539,
          "durationTicks": 11,
          "midi": 42,
          "name": "F#2",
          "ticks": 11267,
          "time": 131.01162790697674,
          "velocity": 0.3464566929133858
        },
        {
          "duration": 0.3139534883721069,
          "durationTicks": 27,
          "midi": 42,
          "name": "F#2",
          "ticks": 11281,
          "time": 131.17441860465115,
          "velocity": 0.23622047244094488
        },
        {
          "duration": 0.33720930232559,
          "durationTicks": 29,
          "midi": 61,
          "name": "C#4",
          "ticks": 11308,
          "time": 131.48837209302326,
          "velocity": 0.2204724409448819
        },
        {
          "duration": 0.2674418604651123,
          "durationTicks": 23,
          "midi": 54,
          "name": "F#3",
          "ticks": 11312,
          "time": 131.53488372093022,
          "velocity": 0.16535433070866143
        },
        {
          "duration": 0.12790697674418539,
          "durationTicks": 11,
          "midi": 42,
          "name": "F#2",
          "ticks": 11313,
          "time": 131.54651162790697,
          "velocity": 0.12598425196850394
        },
        {
          "duration": 0.06976744186047767,
          "durationTicks": 6,
          "midi": 42,
          "name": "F#2",
          "ticks": 11334,
          "time": 131.7906976744186,
          "velocity": 0.15748031496062992
        },
        {
          "duration": 0.25581395348837077,
          "durationTicks": 22,
          "midi": 58,
          "name": "A#3",
          "ticks": 11336,
          "time": 131.8139534883721,
          "velocity": 0.16535433070866143
        },
        {
          "duration": 0.023255813953483084,
          "durationTicks": 2,
          "midi": 41,
          "name": "F2",
          "ticks": 11358,
          "time": 132.06976744186048,
          "velocity": 0.23622047244094488
        },
        {
          "duration": 0.2674418604651123,
          "durationTicks": 23,
          "midi": 54,
          "name": "F#3",
          "ticks": 11359,
          "time": 132.08139534883722,
          "velocity": 0.2047244094488189
        },
        {
          "duration": 0.12790697674418539,
          "durationTicks": 11,
          "midi": 42,
          "name": "F#2",
          "ticks": 11360,
          "time": 132.09302325581396,
          "velocity": 0.28346456692913385
        },
        {
          "duration": 0.04651162790696617,
          "durationTicks": 4,
          "midi": 58,
          "name": "A#3",
          "ticks": 11361,
          "time": 132.1046511627907,
          "velocity": 0.11023622047244094
        },
        {
          "duration": 0.034883720930224626,
          "durationTicks": 3,
          "midi": 43,
          "name": "G2",
          "ticks": 11371,
          "time": 132.22093023255815,
          "velocity": 0.07874015748031496
        },
        {
          "duration": 0.15116279069766847,
          "durationTicks": 13,
          "midi": 42,
          "name": "F#2",
          "ticks": 11374,
          "time": 132.25581395348837,
          "velocity": 0.1732283464566929
        },
        {
          "duration": 0.09302325581396076,
          "durationTicks": 8,
          "midi": 58,
          "name": "A#3",
          "ticks": 11374,
          "time": 132.25581395348837,
          "velocity": 0.09448818897637795
        },
        {
          "duration": 0.05813953488370771,
          "durationTicks": 5,
          "midi": 61,
          "name": "C#4",
          "ticks": 11384,
          "time": 132.37209302325581,
          "velocity": 0.1968503937007874
        },
        {
          "duration": 0.22093023255814614,
          "durationTicks": 19,
          "midi": 58,
          "name": "A#3",
          "ticks": 11386,
          "time": 132.3953488372093,
          "velocity": 0.14960629921259844
        },
        {
          "duration": 0.03488372093025305,
          "durationTicks": 3,
          "midi": 53,
          "name": "F3",
          "ticks": 11398,
          "time": 132.53488372093022,
          "velocity": 0.10236220472440945
        },
        {
          "duration": 0.22093023255814614,
          "durationTicks": 19,
          "midi": 75,
          "name": "D#5",
          "ticks": 11406,
          "time": 132.62790697674419,
          "velocity": 0.1732283464566929
        },
        {
          "duration": 0.27906976744185386,
          "durationTicks": 24,
          "midi": 47,
          "name": "B2",
          "ticks": 11407,
          "time": 132.63953488372093,
          "velocity": 0.2204724409448819
        },
        {
          "duration": 0.023255813953483084,
          "durationTicks": 2,
          "midi": 53,
          "name": "F3",
          "ticks": 11430,
          "time": 132.90697674418604,
          "velocity": 0.2283464566929134
        },
        {
          "duration": 0.30232558139536536,
          "durationTicks": 26,
          "midi": 61,
          "name": "C#4",
          "ticks": 11430,
          "time": 132.90697674418604,
          "velocity": 0.29133858267716534
        },
        {
          "duration": 0.1046511627907023,
          "durationTicks": 9,
          "midi": 47,
          "name": "B2",
          "ticks": 11432,
          "time": 132.93023255813952,
          "velocity": 0.18110236220472442
        },
        {
          "duration": 0.09302325581396076,
          "durationTicks": 8,
          "midi": 54,
          "name": "F#3",
          "ticks": 11436,
          "time": 132.97674418604652,
          "velocity": 0.13385826771653545
        },
        {
          "duration": 0.04651162790696617,
          "durationTicks": 4,
          "midi": 53,
          "name": "F3",
          "ticks": 11444,
          "time": 133.06976744186048,
          "velocity": 0.12598425196850394
        },
        {
          "duration": 1.4186046511627808,
          "durationTicks": 122,
          "midi": 58,
          "name": "A#3",
          "ticks": 11458,
          "time": 133.2325581395349,
          "velocity": 0.36220472440944884
        },
        {
          "duration": 0.023255813953483084,
          "durationTicks": 2,
          "midi": 53,
          "name": "F3",
          "ticks": 11459,
          "time": 133.24418604651163,
          "velocity": 0.30708661417322836
        },
        {
          "duration": 0.023255813953483084,
          "durationTicks": 2,
          "midi": 41,
          "name": "F2",
          "ticks": 11460,
          "time": 133.25581395348837,
          "velocity": 0.31496062992125984
        },
        {
          "duration": 0.13953488372092693,
          "durationTicks": 12,
          "midi": 42,
          "name": "F#2",
          "ticks": 11462,
          "time": 133.27906976744185,
          "velocity": 0.3464566929133858
        },
        {
          "duration": 0.03488372093025305,
          "durationTicks": 3,
          "midi": 43,
          "name": "G2",
          "ticks": 11474,
          "time": 133.41860465116278,
          "velocity": 0.16535433070866143
        },
        {
          "duration": 0.15116279069766847,
          "durationTicks": 13,
          "midi": 42,
          "name": "F#2",
          "ticks": 11477,
          "time": 133.45348837209303,
          "velocity": 0.23622047244094488
        },
        {
          "duration": 0.17441860465115155,
          "durationTicks": 15,
          "midi": 42,
          "name": "F#2",
          "ticks": 11492,
          "time": 133.62790697674419,
          "velocity": 0.1732283464566929
        },
        {
          "duration": 0.13953488372092693,
          "durationTicks": 12,
          "midi": 42,
          "name": "F#2",
          "ticks": 11509,
          "time": 133.82558139534885,
          "velocity": 0.12598425196850394
        },
        {
          "duration": 0.034883720930224626,
          "durationTicks": 3,
          "midi": 53,
          "name": "F3",
          "ticks": 11552,
          "time": 134.32558139534885,
          "velocity": 0.2125984251968504
        },
        {
          "duration": 0.034883720930224626,
          "durationTicks": 3,
          "midi": 41,
          "name": "F2",
          "ticks": 11553,
          "time": 134.3372093023256,
          "velocity": 0.28346456692913385
        },
        {
          "duration": 0.12790697674418539,
          "durationTicks": 11,
          "midi": 42,
          "name": "F#2",
          "ticks": 11556,
          "time": 134.37209302325581,
          "velocity": 0.3228346456692913
        },
        {
          "duration": 0.034883720930224626,
          "durationTicks": 3,
          "midi": 43,
          "name": "G2",
          "ticks": 11567,
          "time": 134.5,
          "velocity": 0.10236220472440945
        },
        {
          "duration": 0.13953488372092693,
          "durationTicks": 12,
          "midi": 42,
          "name": "F#2",
          "ticks": 11570,
          "time": 134.53488372093022,
          "velocity": 0.1968503937007874
        },
        {
          "duration": 0.03488372093025305,
          "durationTicks": 3,
          "midi": 43,
          "name": "G2",
          "ticks": 11582,
          "time": 134.67441860465115,
          "velocity": 0.07086614173228346
        },
        {
          "duration": 0.13953488372092693,
          "durationTicks": 12,
          "midi": 42,
          "name": "F#2",
          "ticks": 11585,
          "time": 134.7093023255814,
          "velocity": 0.13385826771653545
        },
        {
          "duration": 0.34883720930233153,
          "durationTicks": 30,
          "midi": 58,
          "name": "A#3",
          "ticks": 11589,
          "time": 134.75581395348837,
          "velocity": 0.14960629921259844
        },
        {
          "duration": 0.09302325581396076,
          "durationTicks": 8,
          "midi": 42,
          "name": "F#2",
          "ticks": 11601,
          "time": 134.8953488372093,
          "velocity": 0.09448818897637795
        },
        {
          "duration": 0.04651162790696617,
          "durationTicks": 4,
          "midi": 54,
          "name": "F#3",
          "ticks": 11641,
          "time": 135.36046511627907,
          "velocity": 0.11023622047244094
        },
        {
          "duration": 0.034883720930224626,
          "durationTicks": 3,
          "midi": 53,
          "name": "F3",
          "ticks": 11649,
          "time": 135.45348837209303,
          "velocity": 0.2677165354330709
        },
        {
          "duration": 0.023255813953483084,
          "durationTicks": 2,
          "midi": 41,
          "name": "F2",
          "ticks": 11650,
          "time": 135.46511627906978,
          "velocity": 0.28346456692913385
        },
        {
          "duration": 0.12790697674418539,
          "durationTicks": 11,
          "midi": 42,
          "name": "F#2",
          "ticks": 11652,
          "time": 135.48837209302326,
          "velocity": 0.3464566929133858
        },
        {
          "duration": 0.04651162790696617,
          "durationTicks": 4,
          "midi": 43,
          "name": "G2",
          "ticks": 11663,
          "time": 135.61627906976744,
          "velocity": 0.15748031496062992
        },
        {
          "duration": 0.12790697674418539,
          "durationTicks": 11,
          "midi": 42,
          "name": "F#2",
          "ticks": 11667,
          "time": 135.6627906976744,
          "velocity": 0.2204724409448819
        },
        {
          "duration": 0.22093023255814614,
          "durationTicks": 19,
          "midi": 42,
          "name": "F#2",
          "ticks": 11679,
          "time": 135.80232558139534,
          "velocity": 0.14173228346456693
        },
        {
          "duration": 0.05813953488370771,
          "durationTicks": 5,
          "midi": 54,
          "name": "F#3",
          "ticks": 11694,
          "time": 135.97674418604652,
          "velocity": 0.2992125984251969
        },
        {
          "duration": 0.12790697674418539,
          "durationTicks": 11,
          "midi": 42,
          "name": "F#2",
          "ticks": 11699,
          "time": 136.03488372093022,
          "velocity": 0.1889763779527559
        },
        {
          "duration": 0.2906976744186238,
          "durationTicks": 25,
          "midi": 54,
          "name": "F#3",
          "ticks": 11700,
          "time": 136.04651162790697,
          "velocity": 0.29133858267716534
        },
        {
          "duration": 0.2906976744185954,
          "durationTicks": 25,
          "midi": 54,
          "name": "F#3",
          "ticks": 11726,
          "time": 136.34883720930233,
          "velocity": 0.25196850393700787
        },
        {
          "duration": 0.023255813953483084,
          "durationTicks": 2,
          "midi": 50,
          "name": "D3",
          "ticks": 11751,
          "time": 136.63953488372093,
          "velocity": 0.33070866141732286
        },
        {
          "duration": 0.5116279069767415,
          "durationTicks": 44,
          "midi": 61,
          "name": "C#4",
          "ticks": 11752,
          "time": 136.65116279069767,
          "velocity": 0.2755905511811024
        },
        {
          "duration": 0.44186046511626387,
          "durationTicks": 38,
          "midi": 49,
          "name": "C#3",
          "ticks": 11759,
          "time": 136.7325581395349,
          "velocity": 0.2125984251968504
        },
        {
          "duration": 0.5465116279069946,
          "durationTicks": 47,
          "midi": 61,
          "name": "C#4",
          "ticks": 11797,
          "time": 137.17441860465115,
          "velocity": 0.25196850393700787
        },
        {
          "duration": 0.2558139534883992,
          "durationTicks": 22,
          "midi": 49,
          "name": "C#3",
          "ticks": 11798,
          "time": 137.1860465116279,
          "velocity": 0.14173228346456693
        },
        {
          "duration": 0.06976744186047767,
          "durationTicks": 6,
          "midi": 49,
          "name": "C#3",
          "ticks": 11828,
          "time": 137.53488372093022,
          "velocity": 0.07874015748031496
        },
        {
          "duration": 0.27906976744185386,
          "durationTicks": 24,
          "midi": 49,
          "name": "C#3",
          "ticks": 11846,
          "time": 137.74418604651163,
          "velocity": 0.16535433070866143
        },
        {
          "duration": 0.034883720930224626,
          "durationTicks": 3,
          "midi": 49,
          "name": "C#3",
          "ticks": 11874,
          "time": 138.06976744186048,
          "velocity": 0.13385826771653545
        },
        {
          "duration": 0.16279069767441,
          "durationTicks": 14,
          "midi": 49,
          "name": "C#3",
          "ticks": 11879,
          "time": 138.12790697674419,
          "velocity": 0.11023622047244094
        },
        {
          "duration": 0.16279069767443843,
          "durationTicks": 14,
          "midi": 61,
          "name": "C#4",
          "ticks": 11894,
          "time": 138.30232558139534,
          "velocity": 0.15748031496062992
        },
        {
          "duration": 0.16279069767441,
          "durationTicks": 14,
          "midi": 49,
          "name": "C#3",
          "ticks": 11899,
          "time": 138.36046511627907,
          "velocity": 0.07086614173228346
        },
        {
          "duration": 0.04651162790699459,
          "durationTicks": 4,
          "midi": 53,
          "name": "F3",
          "ticks": 11916,
          "time": 138.5581395348837,
          "velocity": 0.2992125984251969
        },
        {
          "duration": 0.06976744186047767,
          "durationTicks": 6,
          "midi": 53,
          "name": "F3",
          "ticks": 11923,
          "time": 138.63953488372093,
          "velocity": 0.2047244094488189
        },
        {
          "duration": 0.023255813953483084,
          "durationTicks": 2,
          "midi": 53,
          "name": "F3",
          "ticks": 11943,
          "time": 138.87209302325581,
          "velocity": 0.3543307086614173
        },
        {
          "duration": 0.03488372093025305,
          "durationTicks": 3,
          "midi": 51,
          "name": "D#3",
          "ticks": 11948,
          "time": 138.93023255813952,
          "velocity": 0.33858267716535434
        },
        {
          "duration": 0.023255813953483084,
          "durationTicks": 2,
          "midi": 53,
          "name": "F3",
          "ticks": 11954,
          "time": 139,
          "velocity": 0.3779527559055118
        },
        {
          "duration": 0.023255813953511506,
          "durationTicks": 2,
          "midi": 51,
          "name": "D#3",
          "ticks": 11958,
          "time": 139.04651162790697,
          "velocity": 0.2755905511811024
        },
        {
          "duration": 0.023255813953483084,
          "durationTicks": 2,
          "midi": 54,
          "name": "F#3",
          "ticks": 11961,
          "time": 139.08139534883722,
          "velocity": 0.3228346456692913
        },
        {
          "duration": 0.023255813953483084,
          "durationTicks": 2,
          "midi": 51,
          "name": "D#3",
          "ticks": 11966,
          "time": 139.13953488372093,
          "velocity": 0.23622047244094488
        },
        {
          "duration": 0.023255813953483084,
          "durationTicks": 2,
          "midi": 54,
          "name": "F#3",
          "ticks": 11978,
          "time": 139.27906976744185,
          "velocity": 0.25984251968503935
        },
        {
          "duration": 0.04651162790696617,
          "durationTicks": 4,
          "midi": 54,
          "name": "F#3",
          "ticks": 11981,
          "time": 139.3139534883721,
          "velocity": 0.15748031496062992
        },
        {
          "duration": 0.48837209302325846,
          "durationTicks": 42,
          "midi": 51,
          "name": "D#3",
          "ticks": 11994,
          "time": 139.46511627906978,
          "velocity": 0.3700787401574803
        },
        {
          "duration": 0.5348837209302246,
          "durationTicks": 46,
          "midi": 51,
          "name": "D#3",
          "ticks": 12046,
          "time": 140.06976744186048,
          "velocity": 0.30708661417322836
        },
        {
          "duration": 0.8837209302325562,
          "durationTicks": 76,
          "midi": 58,
          "name": "A#3",
          "ticks": 12069,
          "time": 140.3372093023256,
          "velocity": 0.2047244094488189
        },
        {
          "duration": 0.03488372093025305,
          "durationTicks": 3,
          "midi": 51,
          "name": "D#3",
          "ticks": 12099,
          "time": 140.6860465116279,
          "velocity": 0.08661417322834646
        },
        {
          "duration": 0.5813953488371908,
          "durationTicks": 50,
          "midi": 51,
          "name": "D#3",
          "ticks": 12144,
          "time": 141.2093023255814,
          "velocity": 0.36220472440944884
        },
        {
          "duration": 0.034883720930224626,
          "durationTicks": 3,
          "midi": 41,
          "name": "F2",
          "ticks": 12145,
          "time": 141.22093023255815,
          "velocity": 0.11811023622047244
        },
        {
          "duration": 0.6046511627907023,
          "durationTicks": 52,
          "midi": 58,
          "name": "A#3",
          "ticks": 12169,
          "time": 141.5,
          "velocity": 0.16535433070866143
        },
        {
          "duration": 0.25581395348837077,
          "durationTicks": 22,
          "midi": 51,
          "name": "D#3",
          "ticks": 12201,
          "time": 141.87209302325581,
          "velocity": 0.33070866141732286
        },
        {
          "duration": 0.034883720930224626,
          "durationTicks": 3,
          "midi": 52,
          "name": "E3",
          "ticks": 12223,
          "time": 142.12790697674419,
          "velocity": 0.2204724409448819
        },
        {
          "duration": 0.2674418604651123,
          "durationTicks": 23,
          "midi": 51,
          "name": "D#3",
          "ticks": 12226,
          "time": 142.1627906976744,
          "velocity": 0.4015748031496063
        },
        {
          "duration": 0.034883720930224626,
          "durationTicks": 3,
          "midi": 53,
          "name": "F3",
          "ticks": 12252,
          "time": 142.46511627906978,
          "velocity": 0.33070866141732286
        },
        {
          "duration": 0.034883720930224626,
          "durationTicks": 3,
          "midi": 42,
          "name": "F#2",
          "ticks": 12254,
          "time": 142.48837209302326,
          "velocity": 0.08661417322834646
        },
        {
          "duration": 0.034883720930224626,
          "durationTicks": 3,
          "midi": 54,
          "name": "F#3",
          "ticks": 12255,
          "time": 142.5,
          "velocity": 0.3228346456692913
        },
        {
          "duration": 0.2325581395348877,
          "durationTicks": 20,
          "midi": 54,
          "name": "F#3",
          "ticks": 12259,
          "time": 142.54651162790697,
          "velocity": 0.28346456692913385
        },
        {
          "duration": 0.023255813953511506,
          "durationTicks": 2,
          "midi": 53,
          "name": "F3",
          "ticks": 12281,
          "time": 142.80232558139534,
          "velocity": 0.3700787401574803
        },
        {
          "duration": 0.24418604651162923,
          "durationTicks": 21,
          "midi": 66,
          "name": "F#4",
          "ticks": 12281,
          "time": 142.80232558139534,
          "velocity": 0.07874015748031496
        },
        {
          "duration": 0.023255813953483084,
          "durationTicks": 2,
          "midi": 54,
          "name": "F#3",
          "ticks": 12283,
          "time": 142.82558139534885,
          "velocity": 0.2992125984251969
        },
        {
          "duration": 0.2093023255814046,
          "durationTicks": 18,
          "midi": 54,
          "name": "F#3",
          "ticks": 12286,
          "time": 142.86046511627907,
          "velocity": 0.2992125984251969
        },
        {
          "duration": 0.04651162790696617,
          "durationTicks": 4,
          "midi": 53,
          "name": "F3",
          "ticks": 12304,
          "time": 143.06976744186048,
          "velocity": 0.29133858267716534
        },
        {
          "duration": 0.15116279069766847,
          "durationTicks": 13,
          "midi": 56,
          "name": "G#3",
          "ticks": 12308,
          "time": 143.11627906976744,
          "velocity": 0.3464566929133858
        },
        {
          "duration": 0.1046511627907023,
          "durationTicks": 9,
          "midi": 75,
          "name": "D#5",
          "ticks": 12308,
          "time": 143.11627906976744,
          "velocity": 0.07874015748031496
        },
        {
          "duration": 0.034883720930224626,
          "durationTicks": 3,
          "midi": 57,
          "name": "A3",
          "ticks": 12321,
          "time": 143.2674418604651,
          "velocity": 0.3543307086614173
        },
        {
          "duration": 0.4651162790697754,
          "durationTicks": 40,
          "midi": 58,
          "name": "A#3",
          "ticks": 12324,
          "time": 143.30232558139534,
          "velocity": 0.3700787401574803
        },
        {
          "duration": 0.023255813953483084,
          "durationTicks": 2,
          "midi": 55,
          "name": "G3",
          "ticks": 12364,
          "time": 143.7674418604651,
          "velocity": 0.2755905511811024
        },
        {
          "duration": 0.023255813953483084,
          "durationTicks": 2,
          "midi": 50,
          "name": "D3",
          "ticks": 12365,
          "time": 143.77906976744185,
          "velocity": 0.3543307086614173
        },
        {
          "duration": 0.25581395348837077,
          "durationTicks": 22,
          "midi": 68,
          "name": "G#4",
          "ticks": 12365,
          "time": 143.77906976744185,
          "velocity": 0.11811023622047244
        },
        {
          "duration": 0.13953488372092693,
          "durationTicks": 12,
          "midi": 75,
          "name": "D#5",
          "ticks": 12365,
          "time": 143.77906976744185,
          "velocity": 0.07874015748031496
        },
        {
          "duration": 0.023255813953511506,
          "durationTicks": 2,
          "midi": 57,
          "name": "A3",
          "ticks": 12366,
          "time": 143.7906976744186,
          "velocity": 0.33070866141732286
        },
        {
          "duration": 0.023255813953511506,
          "durationTicks": 2,
          "midi": 49,
          "name": "C#3",
          "ticks": 12367,
          "time": 143.80232558139534,
          "velocity": 0.25196850393700787
        },
        {
          "duration": 0.023255813953483084,
          "durationTicks": 2,
          "midi": 56,
          "name": "G#3",
          "ticks": 12368,
          "time": 143.8139534883721,
          "velocity": 0.2992125984251969
        },
        {
          "duration": 0.19767441860463464,
          "durationTicks": 17,
          "midi": 49,
          "name": "C#3",
          "ticks": 12370,
          "time": 143.8372093023256,
          "velocity": 0.28346456692913385
        },
        {
          "duration": 0.7325581395348877,
          "durationTicks": 63,
          "midi": 56,
          "name": "G#3",
          "ticks": 12373,
          "time": 143.87209302325581,
          "velocity": 0.33070866141732286
        },
        {
          "duration": 0.25581395348837077,
          "durationTicks": 22,
          "midi": 49,
          "name": "C#3",
          "ticks": 12388,
          "time": 144.04651162790697,
          "velocity": 0.23622047244094488
        },
        {
          "duration": 0.034883720930224626,
          "durationTicks": 3,
          "midi": 49,
          "name": "C#3",
          "ticks": 12411,
          "time": 144.3139534883721,
          "velocity": 0.1889763779527559
        },
        {
          "duration": 0.22093023255814614,
          "durationTicks": 19,
          "midi": 49,
          "name": "C#3",
          "ticks": 12418,
          "time": 144.3953488372093,
          "velocity": 0.16535433070866143
        },
        {
          "duration": 0.034883720930224626,
          "durationTicks": 3,
          "midi": 41,
          "name": "F2",
          "ticks": 12438,
          "time": 144.62790697674419,
          "velocity": 0.09448818897637795
        },
        {
          "duration": 0.5581395348837077,
          "durationTicks": 48,
          "midi": 56,
          "name": "G#3",
          "ticks": 12438,
          "time": 144.62790697674419,
          "velocity": 0.28346456692913385
        },
        {
          "duration": 0.25581395348837077,
          "durationTicks": 22,
          "midi": 49,
          "name": "C#3",
          "ticks": 12464,
          "time": 144.93023255813952,
          "velocity": 0.2440944881889764
        },
        {
          "duration": 0.023255813953483084,
          "durationTicks": 2,
          "midi": 50,
          "name": "D3",
          "ticks": 12488,
          "time": 145.2093023255814,
          "velocity": 0.25984251968503935
        },
        {
          "duration": 0.034883720930224626,
          "durationTicks": 3,
          "midi": 49,
          "name": "C#3",
          "ticks": 12490,
          "time": 145.2325581395349,
          "velocity": 0.18110236220472442
        },
        {
          "duration": 0.06976744186047767,
          "durationTicks": 6,
          "midi": 49,
          "name": "C#3",
          "ticks": 12494,
          "time": 145.27906976744185,
          "velocity": 0.2047244094488189
        },
        {
          "duration": 0.034883720930224626,
          "durationTicks": 3,
          "midi": 49,
          "name": "C#3",
          "ticks": 12501,
          "time": 145.36046511627907,
          "velocity": 0.1732283464566929
        },
        {
          "duration": 0.034883720930224626,
          "durationTicks": 3,
          "midi": 56,
          "name": "G#3",
          "ticks": 12504,
          "time": 145.3953488372093,
          "velocity": 0.16535433070866143
        },
        {
          "duration": 0.2906976744185954,
          "durationTicks": 25,
          "midi": 49,
          "name": "C#3",
          "ticks": 12508,
          "time": 145.4418604651163,
          "velocity": 0.18110236220472442
        },
        {
          "duration": 0.22093023255814614,
          "durationTicks": 19,
          "midi": 56,
          "name": "G#3",
          "ticks": 12512,
          "time": 145.48837209302326,
          "velocity": 0.14960629921259844
        },
        {
          "duration": 0.5813953488372192,
          "durationTicks": 50,
          "midi": 56,
          "name": "G#3",
          "ticks": 12533,
          "time": 145.7325581395349,
          "velocity": 0.25196850393700787
        },
        {
          "duration": 0.023255813953483084,
          "durationTicks": 2,
          "midi": 48,
          "name": "C3",
          "ticks": 12558,
          "time": 146.02325581395348,
          "velocity": 0.2677165354330709
        },
        {
          "duration": 0.18604651162792152,
          "durationTicks": 16,
          "midi": 61,
          "name": "C#4",
          "ticks": 12560,
          "time": 146.04651162790697,
          "velocity": 0.09448818897637795
        },
        {
          "duration": 0.26744186046514073,
          "durationTicks": 23,
          "midi": 49,
          "name": "C#3",
          "ticks": 12561,
          "time": 146.0581395348837,
          "velocity": 0.2677165354330709
        },
        {
          "duration": 0.034883720930224626,
          "durationTicks": 3,
          "midi": 49,
          "name": "C#3",
          "ticks": 12587,
          "time": 146.36046511627907,
          "velocity": 0.2047244094488189
        },
        {
          "duration": 0.17441860465117998,
          "durationTicks": 15,
          "midi": 49,
          "name": "C#3",
          "ticks": 12592,
          "time": 146.41860465116278,
          "velocity": 0.1968503937007874
        },
        {
          "duration": 0.04651162790699459,
          "durationTicks": 4,
          "midi": 56,
          "name": "G#3",
          "ticks": 12592,
          "time": 146.41860465116278,
          "velocity": 0.16535433070866143
        },
        {
          "duration": 0.1046511627907023,
          "durationTicks": 9,
          "midi": 56,
          "name": "G#3",
          "ticks": 12600,
          "time": 146.51162790697674,
          "velocity": 0.13385826771653545
        },
        {
          "duration": 0.5813953488371908,
          "durationTicks": 50,
          "midi": 61,
          "name": "C#4",
          "ticks": 12608,
          "time": 146.6046511627907,
          "velocity": 0.15748031496062992
        },
        {
          "duration": 0.5232558139534831,
          "durationTicks": 45,
          "midi": 65,
          "name": "F4",
          "ticks": 12610,
          "time": 146.62790697674419,
          "velocity": 0.08661417322834646
        },
        {
          "duration": 0.034883720930224626,
          "durationTicks": 3,
          "midi": 53,
          "name": "F3",
          "ticks": 12611,
          "time": 146.63953488372093,
          "velocity": 0.4094488188976378
        },
        {
          "duration": 0.17441860465117998,
          "durationTicks": 15,
          "midi": 53,
          "name": "F3",
          "ticks": 12615,
          "time": 146.6860465116279,
          "velocity": 0.3543307086614173
        },
        {
          "duration": 0.034883720930224626,
          "durationTicks": 3,
          "midi": 54,
          "name": "F#3",
          "ticks": 12630,
          "time": 146.86046511627907,
          "velocity": 0.25196850393700787
        },
        {
          "duration": 0.023255813953483084,
          "durationTicks": 2,
          "midi": 56,
          "name": "G#3",
          "ticks": 12632,
          "time": 146.88372093023256,
          "velocity": 0.2283464566929134
        },
        {
          "duration": 0.22093023255811772,
          "durationTicks": 19,
          "midi": 56,
          "name": "G#3",
          "ticks": 12638,
          "time": 146.95348837209303,
          "velocity": 0.2677165354330709
        },
        {
          "duration": 0.06976744186047767,
          "durationTicks": 6,
          "midi": 53,
          "name": "F3",
          "ticks": 12657,
          "time": 147.17441860465115,
          "velocity": 0.4566929133858268
        },
        {
          "duration": 0.05813953488373613,
          "durationTicks": 5,
          "midi": 53,
          "name": "F3",
          "ticks": 12664,
          "time": 147.25581395348837,
          "velocity": 0.3700787401574803
        },
        {
          "duration": 0.023255813953483084,
          "durationTicks": 2,
          "midi": 54,
          "name": "F#3",
          "ticks": 12669,
          "time": 147.3139534883721,
          "velocity": 0.31496062992125984
        },
        {
          "duration": 0.04651162790696617,
          "durationTicks": 4,
          "midi": 53,
          "name": "F3",
          "ticks": 12673,
          "time": 147.36046511627907,
          "velocity": 0.2677165354330709
        },
        {
          "duration": 0.023255813953483084,
          "durationTicks": 2,
          "midi": 53,
          "name": "F3",
          "ticks": 12680,
          "time": 147.4418604651163,
          "velocity": 0.25196850393700787
        },
        {
          "duration": 0.023255813953483084,
          "durationTicks": 2,
          "midi": 53,
          "name": "F3",
          "ticks": 12683,
          "time": 147.47674418604652,
          "velocity": 0.2677165354330709
        },
        {
          "duration": 0.2093023255814046,
          "durationTicks": 18,
          "midi": 56,
          "name": "G#3",
          "ticks": 12706,
          "time": 147.74418604651163,
          "velocity": 0.3228346456692913
        },
        {
          "duration": 0.034883720930224626,
          "durationTicks": 3,
          "midi": 41,
          "name": "F2",
          "ticks": 12707,
          "time": 147.75581395348837,
          "velocity": 0.1889763779527559
        },
        {
          "duration": 0.25581395348837077,
          "durationTicks": 22,
          "midi": 61,
          "name": "C#4",
          "ticks": 12707,
          "time": 147.75581395348837,
          "velocity": 0.12598425196850394
        },
        {
          "duration": 0.034883720930224626,
          "durationTicks": 3,
          "midi": 49,
          "name": "C#3",
          "ticks": 12716,
          "time": 147.86046511627907,
          "velocity": 0.15748031496062992
        },
        {
          "duration": 0.034883720930224626,
          "durationTicks": 3,
          "midi": 49,
          "name": "C#3",
          "ticks": 12725,
          "time": 147.96511627906978,
          "velocity": 0.12598425196850394
        },
        {
          "duration": 0.023255813953483084,
          "durationTicks": 2,
          "midi": 50,
          "name": "D3",
          "ticks": 12729,
          "time": 148.01162790697674,
          "velocity": 0.25196850393700787
        },
        {
          "duration": 0.023255813953483084,
          "durationTicks": 2,
          "midi": 55,
          "name": "G3",
          "ticks": 12729,
          "time": 148.01162790697674,
          "velocity": 0.2440944881889764
        },
        {
          "duration": 0.023255813953483084,
          "durationTicks": 2,
          "midi": 52,
          "name": "E3",
          "ticks": 12731,
          "time": 148.03488372093022,
          "velocity": 0.4015748031496063
        },
        {
          "duration": 0.24418604651162923,
          "durationTicks": 21,
          "midi": 65,
          "name": "F4",
          "ticks": 12731,
          "time": 148.03488372093022,
          "velocity": 0.11811023622047244
        },
        {
          "duration": 0.034883720930224626,
          "durationTicks": 3,
          "midi": 53,
          "name": "F3",
          "ticks": 12738,
          "time": 148.11627906976744,
          "velocity": 0.33858267716535434
        },
        {
          "duration": 0.023255813953483084,
          "durationTicks": 2,
          "midi": 55,
          "name": "G3",
          "ticks": 12749,
          "time": 148.24418604651163,
          "velocity": 0.25984251968503935
        },
        {
          "duration": 0.023255813953483084,
          "durationTicks": 2,
          "midi": 42,
          "name": "F#2",
          "ticks": 12756,
          "time": 148.32558139534885,
          "velocity": 0.23622047244094488
        },
        {
          "duration": 0.023255813953483084,
          "durationTicks": 2,
          "midi": 52,
          "name": "E3",
          "ticks": 12756,
          "time": 148.32558139534885,
          "velocity": 0.4566929133858268
        },
        {
          "duration": 0.12790697674418539,
          "durationTicks": 11,
          "midi": 66,
          "name": "F#4",
          "ticks": 12756,
          "time": 148.32558139534885,
          "velocity": 0.11023622047244094
        },
        {
          "duration": 0.023255813953483084,
          "durationTicks": 2,
          "midi": 54,
          "name": "F#3",
          "ticks": 12766,
          "time": 148.4418604651163,
          "velocity": 0.3464566929133858
        },
        {
          "duration": 0.023255813953483084,
          "durationTicks": 2,
          "midi": 53,
          "name": "F3",
          "ticks": 12768,
          "time": 148.46511627906978,
          "velocity": 0.4094488188976378
        },
        {
          "duration": 0.023255813953483084,
          "durationTicks": 2,
          "midi": 54,
          "name": "F#3",
          "ticks": 12770,
          "time": 148.48837209302326,
          "velocity": 0.2677165354330709
        },
        {
          "duration": 0.023255813953511506,
          "durationTicks": 2,
          "midi": 54,
          "name": "F#3",
          "ticks": 12775,
          "time": 148.54651162790697,
          "velocity": 0.3700787401574803
        },
        {
          "duration": 0.023255813953483084,
          "durationTicks": 2,
          "midi": 55,
          "name": "G3",
          "ticks": 12779,
          "time": 148.59302325581396,
          "velocity": 0.25984251968503935
        },
        {
          "duration": 0.04651162790696617,
          "durationTicks": 4,
          "midi": 58,
          "name": "A#3",
          "ticks": 12781,
          "time": 148.61627906976744,
          "velocity": 0.18110236220472442
        },
        {
          "duration": 0.023255813953483084,
          "durationTicks": 2,
          "midi": 54,
          "name": "F#3",
          "ticks": 12783,
          "time": 148.63953488372093,
          "velocity": 0.31496062992125984
        },
        {
          "duration": 0.04651162790699459,
          "durationTicks": 4,
          "midi": 54,
          "name": "F#3",
          "ticks": 12786,
          "time": 148.67441860465115,
          "velocity": 0.25196850393700787
        },
        {
          "duration": 0.09302325581396076,
          "durationTicks": 8,
          "midi": 54,
          "name": "F#3",
          "ticks": 12791,
          "time": 148.7325581395349,
          "velocity": 0.2992125984251969
        },
        {
          "duration": 0.06976744186047767,
          "durationTicks": 6,
          "midi": 58,
          "name": "A#3",
          "ticks": 12792,
          "time": 148.74418604651163,
          "velocity": 0.1968503937007874
        },
        {
          "duration": 0.04651162790696617,
          "durationTicks": 4,
          "midi": 54,
          "name": "F#3",
          "ticks": 12800,
          "time": 148.8372093023256,
          "velocity": 0.2677165354330709
        },
        {
          "duration": 0.09302325581396076,
          "durationTicks": 8,
          "midi": 58,
          "name": "A#3",
          "ticks": 12801,
          "time": 148.84883720930233,
          "velocity": 0.1968503937007874
        },
        {
          "duration": 0.2790697674418823,
          "durationTicks": 24,
          "midi": 54,
          "name": "F#3",
          "ticks": 12808,
          "time": 148.93023255813952,
          "velocity": 0.25196850393700787
        },
        {
          "duration": 0.06976744186047767,
          "durationTicks": 6,
          "midi": 58,
          "name": "A#3",
          "ticks": 12816,
          "time": 149.02325581395348,
          "velocity": 0.11811023622047244
        },
        {
          "duration": 0.2674418604651123,
          "durationTicks": 23,
          "midi": 54,
          "name": "F#3",
          "ticks": 12833,
          "time": 149.22093023255815,
          "velocity": 0.18110236220472442
        },
        {
          "duration": 0.45348837209303383,
          "durationTicks": 39,
          "midi": 51,
          "name": "D#3",
          "ticks": 12857,
          "time": 149.5,
          "velocity": 0.3937007874015748
        },
        {
          "duration": 0.5232558139534831,
          "durationTicks": 45,
          "midi": 58,
          "name": "A#3",
          "ticks": 12878,
          "time": 149.74418604651163,
          "velocity": 0.2047244094488189
        },
        {
          "duration": 0.05813953488370771,
          "durationTicks": 5,
          "midi": 51,
          "name": "D#3",
          "ticks": 12897,
          "time": 149.96511627906978,
          "velocity": 0.1732283464566929
        },
        {
          "duration": 0.16279069767441,
          "durationTicks": 14,
          "midi": 66,
          "name": "F#4",
          "ticks": 12901,
          "time": 150.01162790697674,
          "velocity": 0.08661417322834646
        },
        {
          "duration": 0.5,
          "durationTicks": 43,
          "midi": 51,
          "name": "D#3",
          "ticks": 12950,
          "time": 150.58139534883722,
          "velocity": 0.3700787401574803
        },
        {
          "duration": 0.034883720930224626,
          "durationTicks": 3,
          "midi": 41,
          "name": "F2",
          "ticks": 12951,
          "time": 150.59302325581396,
          "velocity": 0.13385826771653545
        },
        {
          "duration": 0.3604651162790731,
          "durationTicks": 31,
          "midi": 58,
          "name": "A#3",
          "ticks": 12972,
          "time": 150.8372093023256,
          "velocity": 0.2283464566929134
        },
        {
          "duration": 0.04651162790696617,
          "durationTicks": 4,
          "midi": 53,
          "name": "F3",
          "ticks": 12994,
          "time": 151.09302325581396,
          "velocity": 0.3543307086614173
        },
        {
          "duration": 0.5465116279069662,
          "durationTicks": 47,
          "midi": 66,
          "name": "F#4",
          "ticks": 12994,
          "time": 151.09302325581396,
          "velocity": 0.1968503937007874
        },
        {
          "duration": 0.023255813953483084,
          "durationTicks": 2,
          "midi": 54,
          "name": "F#3",
          "ticks": 12998,
          "time": 151.13953488372093,
          "velocity": 0.31496062992125984
        },
        {
          "duration": 0.18604651162792152,
          "durationTicks": 16,
          "midi": 54,
          "name": "F#3",
          "ticks": 13001,
          "time": 151.17441860465115,
          "velocity": 0.2677165354330709
        },
        {
          "duration": 0.11627906976744384,
          "durationTicks": 10,
          "midi": 85,
          "name": "C#6",
          "ticks": 13007,
          "time": 151.24418604651163,
          "velocity": 0.08661417322834646
        },
        {
          "duration": 0.04651162790699459,
          "durationTicks": 4,
          "midi": 58,
          "name": "A#3",
          "ticks": 13010,
          "time": 151.27906976744185,
          "velocity": 0.14173228346456693
        },
        {
          "duration": 0.034883720930224626,
          "durationTicks": 3,
          "midi": 58,
          "name": "A#3",
          "ticks": 13017,
          "time": 151.36046511627907,
          "velocity": 0.10236220472440945
        },
        {
          "duration": 0.034883720930224626,
          "durationTicks": 3,
          "midi": 54,
          "name": "F#3",
          "ticks": 13018,
          "time": 151.37209302325581,
          "velocity": 0.2125984251968504
        },
        {
          "duration": 0.023255813953483084,
          "durationTicks": 2,
          "midi": 53,
          "name": "F3",
          "ticks": 13021,
          "time": 151.40697674418604,
          "velocity": 0.33070866141732286
        },
        {
          "duration": 0.2093023255814046,
          "durationTicks": 18,
          "midi": 54,
          "name": "F#3",
          "ticks": 13023,
          "time": 151.43023255813952,
          "velocity": 0.33070866141732286
        },
        {
          "duration": 0.04651162790696617,
          "durationTicks": 4,
          "midi": 58,
          "name": "A#3",
          "ticks": 13041,
          "time": 151.63953488372093,
          "velocity": 0.07086614173228346
        },
        {
          "duration": 0.05813953488373613,
          "durationTicks": 5,
          "midi": 42,
          "name": "F#2",
          "ticks": 13045,
          "time": 151.6860465116279,
          "velocity": 0.2047244094488189
        },
        {
          "duration": 0.534883720930253,
          "durationTicks": 46,
          "midi": 51,
          "name": "D#3",
          "ticks": 13045,
          "time": 151.6860465116279,
          "velocity": 0.3858267716535433
        },
        {
          "duration": 0.82558139534882,
          "durationTicks": 71,
          "midi": 58,
          "name": "A#3",
          "ticks": 13046,
          "time": 151.69767441860466,
          "velocity": 0.3779527559055118
        },
        {
          "duration": 0.05813953488370771,
          "durationTicks": 5,
          "midi": 52,
          "name": "E3",
          "ticks": 13091,
          "time": 152.22093023255815,
          "velocity": 0.23622047244094488
        },
        {
          "duration": 0.034883720930224626,
          "durationTicks": 3,
          "midi": 42,
          "name": "F#2",
          "ticks": 13093,
          "time": 152.24418604651163,
          "velocity": 0.10236220472440945
        },
        {
          "duration": 0.17441860465117998,
          "durationTicks": 15,
          "midi": 51,
          "name": "D#3",
          "ticks": 13098,
          "time": 152.30232558139534,
          "velocity": 0.15748031496062992
        },
        {
          "duration": 0.034883720930224626,
          "durationTicks": 3,
          "midi": 61,
          "name": "C#4",
          "ticks": 13111,
          "time": 152.45348837209303,
          "velocity": 0.14173228346456693
        },
        {
          "duration": 0.034883720930224626,
          "durationTicks": 3,
          "midi": 51,
          "name": "D#3",
          "ticks": 13115,
          "time": 152.5,
          "velocity": 0.2204724409448819
        },
        {
          "duration": 0.03488372093025305,
          "durationTicks": 3,
          "midi": 52,
          "name": "E3",
          "ticks": 13118,
          "time": 152.53488372093022,
          "velocity": 0.2047244094488189
        },
        {
          "duration": 0.2325581395348877,
          "durationTicks": 20,
          "midi": 61,
          "name": "C#4",
          "ticks": 13118,
          "time": 152.53488372093022,
          "velocity": 0.3228346456692913
        },
        {
          "duration": 0.04651162790696617,
          "durationTicks": 4,
          "midi": 51,
          "name": "D#3",
          "ticks": 13125,
          "time": 152.61627906976744,
          "velocity": 0.10236220472440945
        },
        {
          "duration": 0.04651162790696617,
          "durationTicks": 4,
          "midi": 58,
          "name": "A#3",
          "ticks": 13137,
          "time": 152.75581395348837,
          "velocity": 0.14173228346456693
        },
        {
          "duration": 0.023255813953483084,
          "durationTicks": 2,
          "midi": 43,
          "name": "G2",
          "ticks": 13142,
          "time": 152.8139534883721,
          "velocity": 0.2440944881889764
        },
        {
          "duration": 0.13953488372092693,
          "durationTicks": 12,
          "midi": 61,
          "name": "C#4",
          "ticks": 13143,
          "time": 152.82558139534885,
          "velocity": 0.2992125984251969
        },
        {
          "duration": 0.22093023255814614,
          "durationTicks": 19,
          "midi": 47,
          "name": "B2",
          "ticks": 13147,
          "time": 152.87209302325581,
          "velocity": 0.2440944881889764
        },
        {
          "duration": 0.06976744186044925,
          "durationTicks": 6,
          "midi": 62,
          "name": "D4",
          "ticks": 13155,
          "time": 152.96511627906978,
          "velocity": 0.2677165354330709
        },
        {
          "duration": 0.023255813953483084,
          "durationTicks": 2,
          "midi": 53,
          "name": "F3",
          "ticks": 13167,
          "time": 153.1046511627907,
          "velocity": 0.2440944881889764
        },
        {
          "duration": 0.5232558139534831,
          "durationTicks": 45,
          "midi": 47,
          "name": "B2",
          "ticks": 13168,
          "time": 153.11627906976744,
          "velocity": 0.2283464566929134
        },
        {
          "duration": 0.24418604651162923,
          "durationTicks": 21,
          "midi": 54,
          "name": "F#3",
          "ticks": 13169,
          "time": 153.12790697674419,
          "velocity": 0.2204724409448819
        },
        {
          "duration": 0.2674418604651123,
          "durationTicks": 23,
          "midi": 54,
          "name": "F#3",
          "ticks": 13191,
          "time": 153.38372093023256,
          "velocity": 0.13385826771653545
        },
        {
          "duration": 0.13953488372092693,
          "durationTicks": 12,
          "midi": 63,
          "name": "D#4",
          "ticks": 13191,
          "time": 153.38372093023256,
          "velocity": 0.1889763779527559
        },
        {
          "duration": 0.023255813953483084,
          "durationTicks": 2,
          "midi": 58,
          "name": "A#3",
          "ticks": 13214,
          "time": 153.65116279069767,
          "velocity": 0.2283464566929134
        },
        {
          "duration": 0.023255813953511506,
          "durationTicks": 2,
          "midi": 53,
          "name": "F3",
          "ticks": 13217,
          "time": 153.6860465116279,
          "velocity": 0.25196850393700787
        },
        {
          "duration": 0.5930232558139608,
          "durationTicks": 51,
          "midi": 61,
          "name": "C#4",
          "ticks": 13217,
          "time": 153.6860465116279,
          "velocity": 0.29133858267716534
        },
        {
          "duration": 0.034883720930224626,
          "durationTicks": 3,
          "midi": 41,
          "name": "F2",
          "ticks": 13239,
          "time": 153.9418604651163,
          "velocity": 0.3779527559055118
        },
        {
          "duration": 0.5232558139534831,
          "durationTicks": 45,
          "midi": 54,
          "name": "F#3",
          "ticks": 13241,
          "time": 153.96511627906978,
          "velocity": 0.2992125984251969
        },
        {
          "duration": 0.13953488372092693,
          "durationTicks": 12,
          "midi": 42,
          "name": "F#2",
          "ticks": 13242,
          "time": 153.97674418604652,
          "velocity": 0.4251968503937008
        },
        {
          "duration": 0.034883720930224626,
          "durationTicks": 3,
          "midi": 43,
          "name": "G2",
          "ticks": 13254,
          "time": 154.11627906976744,
          "velocity": 0.2283464566929134
        },
        {
          "duration": 0.3139534883721069,
          "durationTicks": 27,
          "midi": 42,
          "name": "F#2",
          "ticks": 13257,
          "time": 154.15116279069767,
          "velocity": 0.28346456692913385
        },
        {
          "duration": 0.0813953488371908,
          "durationTicks": 7,
          "midi": 42,
          "name": "F#2",
          "ticks": 13285,
          "time": 154.47674418604652,
          "velocity": 0.2677165354330709
        },
        {
          "duration": 0.30232558139533694,
          "durationTicks": 26,
          "midi": 61,
          "name": "C#4",
          "ticks": 13285,
          "time": 154.47674418604652,
          "velocity": 0.2283464566929134
        },
        {
          "duration": 0.24418604651162923,
          "durationTicks": 21,
          "midi": 42,
          "name": "F#2",
          "ticks": 13295,
          "time": 154.59302325581396,
          "velocity": 0.2047244094488189
        },
        {
          "duration": 0.023255813953483084,
          "durationTicks": 2,
          "midi": 53,
          "name": "F3",
          "ticks": 13311,
          "time": 154.77906976744185,
          "velocity": 0.2283464566929134
        },
        {
          "duration": 0.30232558139536536,
          "durationTicks": 26,
          "midi": 58,
          "name": "A#3",
          "ticks": 13311,
          "time": 154.77906976744185,
          "velocity": 0.23622047244094488
        },
        {
          "duration": 0.034883720930224626,
          "durationTicks": 3,
          "midi": 41,
          "name": "F2",
          "ticks": 13336,
          "time": 155.06976744186048,
          "velocity": 0.33070866141732286
        },
        {
          "duration": 0.30232558139533694,
          "durationTicks": 26,
          "midi": 54,
          "name": "F#3",
          "ticks": 13338,
          "time": 155.09302325581396,
          "velocity": 0.25196850393700787
        },
        {
          "duration": 0.12790697674418539,
          "durationTicks": 11,
          "midi": 42,
          "name": "F#2",
          "ticks": 13339,
          "time": 155.1046511627907,
          "velocity": 0.3779527559055118
        },
        {
          "duration": 0.06976744186044925,
          "durationTicks": 6,
          "midi": 58,
          "name": "A#3",
          "ticks": 13340,
          "time": 155.11627906976744,
          "velocity": 0.18110236220472442
        },
        {
          "duration": 0.034883720930224626,
          "durationTicks": 3,
          "midi": 43,
          "name": "G2",
          "ticks": 13350,
          "time": 155.2325581395349,
          "velocity": 0.16535433070866143
        },
        {
          "duration": 0.38372093023255616,
          "durationTicks": 33,
          "midi": 58,
          "name": "A#3",
          "ticks": 13351,
          "time": 155.24418604651163,
          "velocity": 0.1732283464566929
        },
        {
          "duration": 0.11627906976744384,
          "durationTicks": 10,
          "midi": 42,
          "name": "F#2",
          "ticks": 13353,
          "time": 155.2674418604651,
          "velocity": 0.25196850393700787
        },
        {
          "duration": 0.034883720930224626,
          "durationTicks": 3,
          "midi": 49,
          "name": "C#3",
          "ticks": 13364,
          "time": 155.3953488372093,
          "velocity": 0.14173228346456693
        },
        {
          "duration": 0.1511627906976969,
          "durationTicks": 13,
          "midi": 42,
          "name": "F#2",
          "ticks": 13367,
          "time": 155.43023255813952,
          "velocity": 0.1889763779527559
        },
        {
          "duration": 0.30232558139536536,
          "durationTicks": 26,
          "midi": 61,
          "name": "C#4",
          "ticks": 13385,
          "time": 155.63953488372093,
          "velocity": 0.2677165354330709
        },
        {
          "duration": 0.1046511627907023,
          "durationTicks": 9,
          "midi": 42,
          "name": "F#2",
          "ticks": 13388,
          "time": 155.67441860465115,
          "velocity": 0.1889763779527559
        },
        {
          "duration": 0.023255813953511506,
          "durationTicks": 2,
          "midi": 51,
          "name": "D#3",
          "ticks": 13389,
          "time": 155.6860465116279,
          "velocity": 0.25984251968503935
        },
        {
          "duration": 0.023255813953511506,
          "durationTicks": 2,
          "midi": 54,
          "name": "F#3",
          "ticks": 13389,
          "time": 155.6860465116279,
          "velocity": 0.25984251968503935
        },
        {
          "duration": 0.023255813953483084,
          "durationTicks": 2,
          "midi": 53,
          "name": "F3",
          "ticks": 13391,
          "time": 155.7093023255814,
          "velocity": 0.29133858267716534
        },
        {
          "duration": 0.19767441860463464,
          "durationTicks": 17,
          "midi": 54,
          "name": "F#3",
          "ticks": 13393,
          "time": 155.7325581395349,
          "velocity": 0.23622047244094488
        },
        {
          "duration": 0.09302325581396076,
          "durationTicks": 8,
          "midi": 42,
          "name": "F#2",
          "ticks": 13404,
          "time": 155.86046511627907,
          "velocity": 0.09448818897637795
        },
        {
          "duration": 0.023255813953511506,
          "durationTicks": 2,
          "midi": 51,
          "name": "D#3",
          "ticks": 13409,
          "time": 155.91860465116278,
          "velocity": 0.2677165354330709
        },
        {
          "duration": 0.11627906976741542,
          "durationTicks": 10,
          "midi": 58,
          "name": "A#3",
          "ticks": 13411,
          "time": 155.9418604651163,
          "velocity": 0.28346456692913385
        },
        {
          "duration": 0.20930232558137618,
          "durationTicks": 18,
          "midi": 66,
          "name": "F#4",
          "ticks": 13412,
          "time": 155.95348837209303,
          "velocity": 0.07874015748031496
        },
        {
          "duration": 0.20930232558137618,
          "durationTicks": 18,
          "midi": 54,
          "name": "F#3",
          "ticks": 13413,
          "time": 155.96511627906978,
          "velocity": 0.3543307086614173
        },
        {
          "duration": 0.09302325581396076,
          "durationTicks": 8,
          "midi": 58,
          "name": "A#3",
          "ticks": 13426,
          "time": 156.11627906976744,
          "velocity": 0.2755905511811024
        },
        {
          "duration": 0.023255813953511506,
          "durationTicks": 2,
          "midi": 53,
          "name": "F3",
          "ticks": 13431,
          "time": 156.17441860465115,
          "velocity": 0.2677165354330709
        },
        {
          "duration": 0.023255813953483084,
          "durationTicks": 2,
          "midi": 53,
          "name": "F3",
          "ticks": 13435,
          "time": 156.22093023255815,
          "velocity": 0.36220472440944884
        },
        {
          "duration": 0.023255813953483084,
          "durationTicks": 2,
          "midi": 41,
          "name": "F2",
          "ticks": 13436,
          "time": 156.2325581395349,
          "velocity": 0.36220472440944884
        },
        {
          "duration": 0.05813953488370771,
          "durationTicks": 5,
          "midi": 54,
          "name": "F#3",
          "ticks": 13437,
          "time": 156.24418604651163,
          "velocity": 0.2992125984251969
        },
        {
          "duration": 0.7441860465116292,
          "durationTicks": 64,
          "midi": 58,
          "name": "A#3",
          "ticks": 13437,
          "time": 156.24418604651163,
          "velocity": 0.33070866141732286
        },
        {
          "duration": 0.13953488372092693,
          "durationTicks": 12,
          "midi": 42,
          "name": "F#2",
          "ticks": 13438,
          "time": 156.25581395348837,
          "velocity": 0.4094488188976378
        },
        {
          "duration": 0.034883720930224626,
          "durationTicks": 3,
          "midi": 43,
          "name": "G2",
          "ticks": 13450,
          "time": 156.3953488372093,
          "velocity": 0.1889763779527559
        },
        {
          "duration": 0.06976744186047767,
          "durationTicks": 6,
          "midi": 42,
          "name": "F#2",
          "ticks": 13453,
          "time": 156.43023255813952,
          "velocity": 0.2755905511811024
        },
        {
          "duration": 0.04651162790699459,
          "durationTicks": 4,
          "midi": 49,
          "name": "C#3",
          "ticks": 13461,
          "time": 156.52325581395348,
          "velocity": 0.1968503937007874
        },
        {
          "duration": 0.16279069767443843,
          "durationTicks": 14,
          "midi": 42,
          "name": "F#2",
          "ticks": 13462,
          "time": 156.53488372093022,
          "velocity": 0.1968503937007874
        },
        {
          "duration": 0.05813953488370771,
          "durationTicks": 5,
          "midi": 42,
          "name": "F#2",
          "ticks": 13477,
          "time": 156.7093023255814,
          "velocity": 0.14960629921259844
        },
        {
          "duration": 0.023255813953511506,
          "durationTicks": 2,
          "midi": 50,
          "name": "D3",
          "ticks": 13484,
          "time": 156.7906976744186,
          "velocity": 0.25984251968503935
        },
        {
          "duration": 0.1511627906976969,
          "durationTicks": 13,
          "midi": 61,
          "name": "C#4",
          "ticks": 13484,
          "time": 156.7906976744186,
          "velocity": 0.25196850393700787
        },
        {
          "duration": 0.04651162790696617,
          "durationTicks": 4,
          "midi": 42,
          "name": "F#2",
          "ticks": 13488,
          "time": 156.8372093023256,
          "velocity": 0.14960629921259844
        },
        {
          "duration": 0.034883720930224626,
          "durationTicks": 3,
          "midi": 49,
          "name": "C#3",
          "ticks": 13492,
          "time": 156.88372093023256,
          "velocity": 0.11811023622047244
        },
        {
          "duration": 0.11627906976744384,
          "durationTicks": 10,
          "midi": 49,
          "name": "C#3",
          "ticks": 13496,
          "time": 156.93023255813952,
          "velocity": 0.11023622047244094
        },
        {
          "duration": 0.09302325581393234,
          "durationTicks": 8,
          "midi": 42,
          "name": "F#2",
          "ticks": 13497,
          "time": 156.9418604651163,
          "velocity": 0.07086614173228346
        },
        {
          "duration": 0.034883720930224626,
          "durationTicks": 3,
          "midi": 54,
          "name": "F#3",
          "ticks": 13499,
          "time": 156.96511627906978,
          "velocity": 0.09448818897637795
        },
        {
          "duration": 0.05813953488373613,
          "durationTicks": 5,
          "midi": 54,
          "name": "F#3",
          "ticks": 13503,
          "time": 157.01162790697674,
          "velocity": 0.07874015748031496
        },
        {
          "duration": 0.04651162790696617,
          "durationTicks": 4,
          "midi": 58,
          "name": "A#3",
          "ticks": 13503,
          "time": 157.01162790697674,
          "velocity": 0.09448818897637795
        },
        {
          "duration": 0.2674418604651123,
          "durationTicks": 23,
          "midi": 61,
          "name": "C#4",
          "ticks": 13508,
          "time": 157.06976744186048,
          "velocity": 0.3543307086614173
        },
        {
          "duration": 0.023255813953483084,
          "durationTicks": 2,
          "midi": 52,
          "name": "E3",
          "ticks": 13511,
          "time": 157.1046511627907,
          "velocity": 0.2440944881889764
        },
        {
          "duration": 0.05813953488373613,
          "durationTicks": 5,
          "midi": 42,
          "name": "F#2",
          "ticks": 13518,
          "time": 157.1860465116279,
          "velocity": 0.09448818897637795
        },
        {
          "duration": 0.034883720930224626,
          "durationTicks": 3,
          "midi": 58,
          "name": "A#3",
          "ticks": 13522,
          "time": 157.2325581395349,
          "velocity": 0.18110236220472442
        },
        {
          "duration": 0.034883720930224626,
          "durationTicks": 3,
          "midi": 53,
          "name": "F3",
          "ticks": 13523,
          "time": 157.24418604651163,
          "velocity": 0.12598425196850394
        },
        {
          "duration": 0.15116279069766847,
          "durationTicks": 13,
          "midi": 61,
          "name": "C#4",
          "ticks": 13533,
          "time": 157.36046511627907,
          "velocity": 0.33858267716535434
        },
        {
          "duration": 0.034883720930224626,
          "durationTicks": 3,
          "midi": 52,
          "name": "E3",
          "ticks": 13534,
          "time": 157.37209302325581,
          "velocity": 0.1732283464566929
        },
        {
          "duration": 0.13953488372095535,
          "durationTicks": 12,
          "midi": 47,
          "name": "B2",
          "ticks": 13539,
          "time": 157.43023255813952,
          "velocity": 0.2677165354330709
        },
        {
          "duration": 0.04651162790696617,
          "durationTicks": 4,
          "midi": 62,
          "name": "D4",
          "ticks": 13546,
          "time": 157.51162790697674,
          "velocity": 0.31496062992125984
        },
        {
          "duration": 0.3720930232558146,
          "durationTicks": 32,
          "midi": 75,
          "name": "D#5",
          "ticks": 13549,
          "time": 157.54651162790697,
          "velocity": 0.14960629921259844
        },
        {
          "duration": 0.11627906976744384,
          "durationTicks": 10,
          "midi": 47,
          "name": "B2",
          "ticks": 13552,
          "time": 157.58139534883722,
          "velocity": 0.2440944881889764
        },
        {
          "duration": 0.03488372093025305,
          "durationTicks": 3,
          "midi": 53,
          "name": "F3",
          "ticks": 13561,
          "time": 157.6860465116279,
          "velocity": 0.25196850393700787
        },
        {
          "duration": 0.27906976744185386,
          "durationTicks": 24,
          "midi": 47,
          "name": "B2",
          "ticks": 13563,
          "time": 157.7093023255814,
          "velocity": 0.23622047244094488
        },
        {
          "duration": 0.2325581395348877,
          "durationTicks": 20,
          "midi": 54,
          "name": "F#3",
          "ticks": 13567,
          "time": 157.75581395348837,
          "velocity": 0.15748031496062992
        },
        {
          "duration": 0.023255813953483084,
          "durationTicks": 2,
          "midi": 62,
          "name": "D4",
          "ticks": 13585,
          "time": 157.96511627906978,
          "velocity": 0.2992125984251969
        },
        {
          "duration": 0.13953488372092693,
          "durationTicks": 12,
          "midi": 75,
          "name": "D#5",
          "ticks": 13585,
          "time": 157.96511627906978,
          "velocity": 0.1968503937007874
        },
        {
          "duration": 0.08139534883721922,
          "durationTicks": 7,
          "midi": 63,
          "name": "D#4",
          "ticks": 13587,
          "time": 157.98837209302326,
          "velocity": 0.2283464566929134
        },
        {
          "duration": 0.27906976744185386,
          "durationTicks": 24,
          "midi": 47,
          "name": "B2",
          "ticks": 13588,
          "time": 158,
          "velocity": 0.2440944881889764
        },
        {
          "duration": 0.19767441860466306,
          "durationTicks": 17,
          "midi": 54,
          "name": "F#3",
          "ticks": 13592,
          "time": 158.04651162790697,
          "velocity": 0.10236220472440945
        },
        {
          "duration": 0.06976744186044925,
          "durationTicks": 6,
          "midi": 82,
          "name": "A#5",
          "ticks": 13594,
          "time": 158.06976744186048,
          "velocity": 0.07086614173228346
        },
        {
          "duration": 0.04651162790699459,
          "durationTicks": 4,
          "midi": 59,
          "name": "B3",
          "ticks": 13611,
          "time": 158.2674418604651,
          "velocity": 0.36220472440944884
        },
        {
          "duration": 0.03488372093025305,
          "durationTicks": 3,
          "midi": 53,
          "name": "F3",
          "ticks": 13612,
          "time": 158.27906976744185,
          "velocity": 0.25984251968503935
        },
        {
          "duration": 0.2906976744186238,
          "durationTicks": 25,
          "midi": 73,
          "name": "C#5",
          "ticks": 13613,
          "time": 158.2906976744186,
          "velocity": 0.14960629921259844
        },
        {
          "duration": 0.04651162790696617,
          "durationTicks": 4,
          "midi": 58,
          "name": "A#3",
          "ticks": 13616,
          "time": 158.32558139534885,
          "velocity": 0.28346456692913385
        },
        {
          "duration": 0.023255813953483084,
          "durationTicks": 2,
          "midi": 61,
          "name": "C#4",
          "ticks": 13616,
          "time": 158.32558139534885,
          "velocity": 0.25984251968503935
        },
        {
          "duration": 0.45348837209303383,
          "durationTicks": 39,
          "midi": 61,
          "name": "C#4",
          "ticks": 13619,
          "time": 158.36046511627907,
          "velocity": 0.2440944881889764
        },
        {
          "duration": 0.04651162790699459,
          "durationTicks": 4,
          "midi": 41,
          "name": "F2",
          "ticks": 13634,
          "time": 158.53488372093022,
          "velocity": 0.3700787401574803
        },
        {
          "duration": 0.4767441860464885,
          "durationTicks": 41,
          "midi": 54,
          "name": "F#3",
          "ticks": 13637,
          "time": 158.56976744186048,
          "velocity": 0.2677165354330709
        },
        {
          "duration": 0.12790697674418539,
          "durationTicks": 11,
          "midi": 42,
          "name": "F#2",
          "ticks": 13638,
          "time": 158.58139534883722,
          "velocity": 0.4015748031496063
        },
        {
          "duration": 0.034883720930224626,
          "durationTicks": 3,
          "midi": 43,
          "name": "G2",
          "ticks": 13649,
          "time": 158.7093023255814,
          "velocity": 0.1968503937007874
        },
        {
          "duration": 0.09302325581396076,
          "durationTicks": 8,
          "midi": 42,
          "name": "F#2",
          "ticks": 13652,
          "time": 158.74418604651163,
          "velocity": 0.28346456692913385
        },
        {
          "duration": 0.0813953488371908,
          "durationTicks": 7,
          "midi": 42,
          "name": "F#2",
          "ticks": 13661,
          "time": 158.84883720930233,
          "velocity": 0.25196850393700787
        },
        {
          "duration": 0.15116279069766847,
          "durationTicks": 13,
          "midi": 42,
          "name": "F#2",
          "ticks": 13669,
          "time": 158.9418604651163,
          "velocity": 0.18110236220472442
        },
        {
          "duration": 0.3139534883720785,
          "durationTicks": 27,
          "midi": 61,
          "name": "C#4",
          "ticks": 13682,
          "time": 159.09302325581396,
          "velocity": 0.23622047244094488
        },
        {
          "duration": 0.13953488372092693,
          "durationTicks": 12,
          "midi": 42,
          "name": "F#2",
          "ticks": 13688,
          "time": 159.1627906976744,
          "velocity": 0.1732283464566929
        },
        {
          "duration": 0.11627906976744384,
          "durationTicks": 10,
          "midi": 42,
          "name": "F#2",
          "ticks": 13705,
          "time": 159.36046511627907,
          "velocity": 0.14173228346456693
        },
        {
          "duration": 0.8255813953488484,
          "durationTicks": 71,
          "midi": 58,
          "name": "A#3",
          "ticks": 13709,
          "time": 159.40697674418604,
          "velocity": 0.2992125984251969
        },
        {
          "duration": 0.03488372093025305,
          "durationTicks": 3,
          "midi": 42,
          "name": "F#2",
          "ticks": 13722,
          "time": 159.5581395348837,
          "velocity": 0.07086614173228346
        },
        {
          "duration": 0.023255813953511506,
          "durationTicks": 2,
          "midi": 53,
          "name": "F3",
          "ticks": 13733,
          "time": 159.6860465116279,
          "velocity": 0.2440944881889764
        },
        {
          "duration": 0.023255813953483084,
          "durationTicks": 2,
          "midi": 41,
          "name": "F2",
          "ticks": 13734,
          "time": 159.69767441860466,
          "velocity": 0.3543307086614173
        },
        {
          "duration": 0.12790697674418539,
          "durationTicks": 11,
          "midi": 42,
          "name": "F#2",
          "ticks": 13736,
          "time": 159.72093023255815,
          "velocity": 0.3779527559055118
        },
        {
          "duration": 0.034883720930224626,
          "durationTicks": 3,
          "midi": 43,
          "name": "G2",
          "ticks": 13747,
          "time": 159.84883720930233,
          "velocity": 0.16535433070866143
        },
        {
          "duration": 0.15116279069766847,
          "durationTicks": 13,
          "midi": 42,
          "name": "F#2",
          "ticks": 13750,
          "time": 159.88372093023256,
          "velocity": 0.2755905511811024
        },
        {
          "duration": 0.11627906976744384,
          "durationTicks": 10,
          "midi": 42,
          "name": "F#2",
          "ticks": 13765,
          "time": 160.0581395348837,
          "velocity": 0.1889763779527559
        },
        {
          "duration": 0.04651162790699459,
          "durationTicks": 4,
          "midi": 42,
          "name": "F#2",
          "ticks": 13776,
          "time": 160.1860465116279,
          "velocity": 0.12598425196850394
        },
        {
          "duration": 0.023255813953483084,
          "durationTicks": 2,
          "midi": 50,
          "name": "D3",
          "ticks": 13780,
          "time": 160.2325581395349,
          "velocity": 0.25984251968503935
        },
        {
          "duration": 0.05813953488370771,
          "durationTicks": 5,
          "midi": 42,
          "name": "F#2",
          "ticks": 13781,
          "time": 160.24418604651163,
          "velocity": 0.16535433070866143
        },
        {
          "duration": 0.3139534883720785,
          "durationTicks": 27,
          "midi": 61,
          "name": "C#4",
          "ticks": 13781,
          "time": 160.24418604651163,
          "velocity": 0.28346456692913385
        },
        {
          "duration": 0.023255813953483084,
          "durationTicks": 2,
          "midi": 53,
          "name": "F3",
          "ticks": 13782,
          "time": 160.25581395348837,
          "velocity": 0.3779527559055118
        },
        {
          "duration": 0.023255813953483084,
          "durationTicks": 2,
          "midi": 54,
          "name": "F#3",
          "ticks": 13784,
          "time": 160.27906976744185,
          "velocity": 0.2992125984251969
        },
        {
          "duration": 0.1860465116278931,
          "durationTicks": 16,
          "midi": 54,
          "name": "F#3",
          "ticks": 13787,
          "time": 160.3139534883721,
          "velocity": 0.2992125984251969
        },
        {
          "duration": 0.034883720930224626,
          "durationTicks": 3,
          "midi": 42,
          "name": "F#2",
          "ticks": 13789,
          "time": 160.3372093023256,
          "velocity": 0.11023622047244094
        },
        {
          "duration": 0.04651162790699459,
          "durationTicks": 4,
          "midi": 58,
          "name": "A#3",
          "ticks": 13796,
          "time": 160.41860465116278,
          "velocity": 0.16535433070866143
        },
        {
          "duration": 0.10465116279067388,
          "durationTicks": 9,
          "midi": 42,
          "name": "F#2",
          "ticks": 13798,
          "time": 160.4418604651163,
          "velocity": 0.11023622047244094
        },
        {
          "duration": 0.023255813953511506,
          "durationTicks": 2,
          "midi": 50,
          "name": "D3",
          "ticks": 13807,
          "time": 160.54651162790697,
          "velocity": 0.3464566929133858
        },
        {
          "duration": 0.25581395348837077,
          "durationTicks": 22,
          "midi": 66,
          "name": "F#4",
          "ticks": 13809,
          "time": 160.56976744186048,
          "velocity": 0.07086614173228346
        },
        {
          "duration": 0.25581395348837077,
          "durationTicks": 22,
          "midi": 58,
          "name": "A#3",
          "ticks": 13810,
          "time": 160.58139534883722,
          "velocity": 0.3464566929133858
        },
        {
          "duration": 0.023255813953483084,
          "durationTicks": 2,
          "midi": 54,
          "name": "F#3",
          "ticks": 13816,
          "time": 160.65116279069767,
          "velocity": 0.28346456692913385
        },
        {
          "duration": 0.16279069767441,
          "durationTicks": 14,
          "midi": 54,
          "name": "F#3",
          "ticks": 13821,
          "time": 160.7093023255814,
          "velocity": 0.31496062992125984
        },
        {
          "duration": 0.023255813953483084,
          "durationTicks": 2,
          "midi": 53,
          "name": "F3",
          "ticks": 13835,
          "time": 160.87209302325581,
          "velocity": 0.30708661417322836
        },
        {
          "duration": 0.1046511627907023,
          "durationTicks": 9,
          "midi": 61,
          "name": "C#4",
          "ticks": 13835,
          "time": 160.87209302325581,
          "velocity": 0.33070866141732286
        },
        {
          "duration": 0.05813953488373613,
          "durationTicks": 5,
          "midi": 47,
          "name": "B2",
          "ticks": 13837,
          "time": 160.8953488372093,
          "velocity": 0.1968503937007874
        },
        {
          "duration": 0.05813953488370771,
          "durationTicks": 5,
          "midi": 62,
          "name": "D4",
          "ticks": 13844,
          "time": 160.97674418604652,
          "velocity": 0.29133858267716534
        },
        {
          "duration": 0.38372093023255616,
          "durationTicks": 33,
          "midi": 47,
          "name": "B2",
          "ticks": 13848,
          "time": 161.02325581395348,
          "velocity": 0.2047244094488189
        },
        {
          "duration": 0.3604651162790731,
          "durationTicks": 31,
          "midi": 75,
          "name": "D#5",
          "ticks": 13848,
          "time": 161.02325581395348,
          "velocity": 0.12598425196850394
        },
        {
          "duration": 0.03488372093025305,
          "durationTicks": 3,
          "midi": 42,
          "name": "F#2",
          "ticks": 13882,
          "time": 161.41860465116278,
          "velocity": 0.2204724409448819
        },
        {
          "duration": 0.2093023255814046,
          "durationTicks": 18,
          "midi": 75,
          "name": "D#5",
          "ticks": 13882,
          "time": 161.41860465116278,
          "velocity": 0.1968503937007874
        },
        {
          "duration": 0.04651162790696617,
          "durationTicks": 4,
          "midi": 47,
          "name": "B2",
          "ticks": 13890,
          "time": 161.51162790697674,
          "velocity": 0.1732283464566929
        },
        {
          "duration": 0.05813953488370771,
          "durationTicks": 5,
          "midi": 47,
          "name": "B2",
          "ticks": 13900,
          "time": 161.62790697674419,
          "velocity": 0.15748031496062992
        },
        {
          "duration": 0.8720930232558146,
          "durationTicks": 75,
          "midi": 59,
          "name": "B3",
          "ticks": 13907,
          "time": 161.7093023255814,
          "velocity": 0.2677165354330709
        },
        {
          "duration": 0.09302325581396076,
          "durationTicks": 8,
          "midi": 47,
          "name": "B2",
          "ticks": 13910,
          "time": 161.74418604651163,
          "velocity": 0.1968503937007874
        },
        {
          "duration": 0.034883720930224626,
          "durationTicks": 3,
          "midi": 53,
          "name": "F3",
          "ticks": 13910,
          "time": 161.74418604651163,
          "velocity": 0.15748031496062992
        },
        {
          "duration": 0.5,
          "durationTicks": 43,
          "midi": 75,
          "name": "D#5",
          "ticks": 13911,
          "time": 161.75581395348837,
          "velocity": 0.18110236220472442
        },
        {
          "duration": 0.15116279069766847,
          "durationTicks": 13,
          "midi": 94,
          "name": "A#6",
          "ticks": 13913,
          "time": 161.77906976744185,
          "velocity": 0.07086614173228346
        },
        {
          "duration": 0.023255813953483084,
          "durationTicks": 2,
          "midi": 45,
          "name": "A2",
          "ticks": 13931,
          "time": 161.98837209302326,
          "velocity": 0.25984251968503935
        },
        {
          "duration": 0.5,
          "durationTicks": 43,
          "midi": 47,
          "name": "B2",
          "ticks": 13935,
          "time": 162.03488372093022,
          "velocity": 0.2125984251968504
        },
        {
          "duration": 0.04651162790699459,
          "durationTicks": 4,
          "midi": 63,
          "name": "D#4",
          "ticks": 13979,
          "time": 162.54651162790697,
          "velocity": 0.16535433070866143
        },
        {
          "duration": 0.13953488372092693,
          "durationTicks": 12,
          "midi": 47,
          "name": "B2",
          "ticks": 13981,
          "time": 162.56976744186048,
          "velocity": 0.1732283464566929
        },
        {
          "duration": 0.20930232558137618,
          "durationTicks": 18,
          "midi": 75,
          "name": "D#5",
          "ticks": 13983,
          "time": 162.59302325581396,
          "velocity": 0.14173228346456693
        },
        {
          "duration": 0.13953488372092693,
          "durationTicks": 12,
          "midi": 47,
          "name": "B2",
          "ticks": 13994,
          "time": 162.72093023255815,
          "velocity": 0.2204724409448819
        },
        {
          "duration": 0.023255813953483084,
          "durationTicks": 2,
          "midi": 58,
          "name": "A#3",
          "ticks": 14005,
          "time": 162.84883720930233,
          "velocity": 0.33070866141732286
        },
        {
          "duration": 1.0697674418604777,
          "durationTicks": 92,
          "midi": 59,
          "name": "B3",
          "ticks": 14007,
          "time": 162.87209302325581,
          "velocity": 0.3464566929133858
        },
        {
          "duration": 0.24418604651162923,
          "durationTicks": 21,
          "midi": 77,
          "name": "F5",
          "ticks": 14007,
          "time": 162.87209302325581,
          "velocity": 0.2125984251968504
        },
        {
          "duration": 0.2325581395348877,
          "durationTicks": 20,
          "midi": 84,
          "name": "C6",
          "ticks": 14008,
          "time": 162.88372093023256,
          "velocity": 0.16535433070866143
        },
        {
          "duration": 0.11627906976744384,
          "durationTicks": 10,
          "midi": 47,
          "name": "B2",
          "ticks": 14009,
          "time": 162.8953488372093,
          "velocity": 0.11811023622047244
        },
        {
          "duration": 0.023255813953483084,
          "durationTicks": 2,
          "midi": 45,
          "name": "A2",
          "ticks": 14030,
          "time": 163.13953488372093,
          "velocity": 0.25984251968503935
        },
        {
          "duration": 0.11627906976744384,
          "durationTicks": 10,
          "midi": 77,
          "name": "F5",
          "ticks": 14032,
          "time": 163.1627906976744,
          "velocity": 0.2755905511811024
        },
        {
          "duration": 0.11627906976744384,
          "durationTicks": 10,
          "midi": 84,
          "name": "C6",
          "ticks": 14032,
          "time": 163.1627906976744,
          "velocity": 0.2125984251968504
        },
        {
          "duration": 0.5232558139534831,
          "durationTicks": 45,
          "midi": 47,
          "name": "B2",
          "ticks": 14035,
          "time": 163.19767441860466,
          "velocity": 0.2047244094488189
        },
        {
          "duration": 0.45348837209303383,
          "durationTicks": 39,
          "midi": 66,
          "name": "F#4",
          "ticks": 14042,
          "time": 163.27906976744185,
          "velocity": 0.07874015748031496
        },
        {
          "duration": 0.2093023255814046,
          "durationTicks": 18,
          "midi": 66,
          "name": "F#4",
          "ticks": 14086,
          "time": 163.7906976744186,
          "velocity": 0.15748031496062992
        },
        {
          "duration": 0.22093023255814614,
          "durationTicks": 19,
          "midi": 85,
          "name": "C#6",
          "ticks": 14086,
          "time": 163.7906976744186,
          "velocity": 0.1889763779527559
        },
        {
          "duration": 0.04651162790699459,
          "durationTicks": 4,
          "midi": 47,
          "name": "B2",
          "ticks": 14087,
          "time": 163.80232558139534,
          "velocity": 0.14173228346456693
        },
        {
          "duration": 0.04651162790696617,
          "durationTicks": 4,
          "midi": 47,
          "name": "B2",
          "ticks": 14092,
          "time": 163.86046511627907,
          "velocity": 0.14173228346456693
        },
        {
          "duration": 0.1046511627907023,
          "durationTicks": 9,
          "midi": 47,
          "name": "B2",
          "ticks": 14097,
          "time": 163.91860465116278,
          "velocity": 0.2047244094488189
        },
        {
          "duration": 0.023255813953483084,
          "durationTicks": 2,
          "midi": 58,
          "name": "A#3",
          "ticks": 14105,
          "time": 164.01162790697674,
          "velocity": 0.2283464566929134
        },
        {
          "duration": 0.06976744186047767,
          "durationTicks": 6,
          "midi": 52,
          "name": "E3",
          "ticks": 14107,
          "time": 164.03488372093022,
          "velocity": 0.2204724409448819
        },
        {
          "duration": 1.0581395348837361,
          "durationTicks": 91,
          "midi": 59,
          "name": "B3",
          "ticks": 14107,
          "time": 164.03488372093022,
          "velocity": 0.25196850393700787
        },
        {
          "duration": 0.22093023255814614,
          "durationTicks": 19,
          "midi": 66,
          "name": "F#4",
          "ticks": 14107,
          "time": 164.03488372093022,
          "velocity": 0.15748031496062992
        },
        {
          "duration": 0.17441860465117998,
          "durationTicks": 15,
          "midi": 78,
          "name": "F#5",
          "ticks": 14107,
          "time": 164.03488372093022,
          "velocity": 0.15748031496062992
        },
        {
          "duration": 0.22093023255814614,
          "durationTicks": 19,
          "midi": 85,
          "name": "C#6",
          "ticks": 14107,
          "time": 164.03488372093022,
          "velocity": 0.15748031496062992
        },
        {
          "duration": 0.15116279069766847,
          "durationTicks": 13,
          "midi": 65,
          "name": "F4",
          "ticks": 14132,
          "time": 164.32558139534885,
          "velocity": 0.07086614173228346
        },
        {
          "duration": 0.23255813953485927,
          "durationTicks": 20,
          "midi": 77,
          "name": "F5",
          "ticks": 14132,
          "time": 164.32558139534885,
          "velocity": 0.29133858267716534
        },
        {
          "duration": 0.25581395348837077,
          "durationTicks": 22,
          "midi": 84,
          "name": "C6",
          "ticks": 14132,
          "time": 164.32558139534885,
          "velocity": 0.2047244094488189
        },
        {
          "duration": 0.30232558139533694,
          "durationTicks": 26,
          "midi": 47,
          "name": "B2",
          "ticks": 14133,
          "time": 164.3372093023256,
          "velocity": 0.2283464566929134
        },
        {
          "duration": 0.25581395348837077,
          "durationTicks": 22,
          "midi": 54,
          "name": "F#3",
          "ticks": 14158,
          "time": 164.62790697674419,
          "velocity": 0.18110236220472442
        },
        {
          "duration": 0.4418604651162923,
          "durationTicks": 38,
          "midi": 75,
          "name": "D#5",
          "ticks": 14158,
          "time": 164.62790697674419,
          "velocity": 0.18110236220472442
        },
        {
          "duration": 0.2325581395348877,
          "durationTicks": 20,
          "midi": 47,
          "name": "B2",
          "ticks": 14160,
          "time": 164.65116279069767,
          "velocity": 0.18110236220472442
        },
        {
          "duration": 0.034883720930224626,
          "durationTicks": 3,
          "midi": 42,
          "name": "F#2",
          "ticks": 14181,
          "time": 164.8953488372093,
          "velocity": 0.2125984251968504
        },
        {
          "duration": 0.15116279069766847,
          "durationTicks": 13,
          "midi": 54,
          "name": "F#3",
          "ticks": 14191,
          "time": 165.01162790697674,
          "velocity": 0.07874015748031496
        },
        {
          "duration": 0.05813953488370771,
          "durationTicks": 5,
          "midi": 47,
          "name": "B2",
          "ticks": 14199,
          "time": 165.1046511627907,
          "velocity": 0.11023622047244094
        },
        {
          "duration": 0.023255813953511506,
          "durationTicks": 2,
          "midi": 53,
          "name": "F3",
          "ticks": 14205,
          "time": 165.17441860465115,
          "velocity": 0.30708661417322836
        },
        {
          "duration": 0.3139534883721069,
          "durationTicks": 27,
          "midi": 61,
          "name": "C#4",
          "ticks": 14205,
          "time": 165.17441860465115,
          "velocity": 0.3464566929133858
        },
        {
          "duration": 0.034883720930224626,
          "durationTicks": 3,
          "midi": 52,
          "name": "E3",
          "ticks": 14207,
          "time": 165.19767441860466,
          "velocity": 0.18110236220472442
        },
        {
          "duration": 0.034883720930224626,
          "durationTicks": 3,
          "midi": 41,
          "name": "F2",
          "ticks": 14208,
          "time": 165.2093023255814,
          "velocity": 0.14173228346456693
        },
        {
          "duration": 0.04651162790696617,
          "durationTicks": 4,
          "midi": 41,
          "name": "F2",
          "ticks": 14230,
          "time": 165.46511627906978,
          "velocity": 0.3543307086614173
        },
        {
          "duration": 0.4767441860465169,
          "durationTicks": 41,
          "midi": 54,
          "name": "F#3",
          "ticks": 14233,
          "time": 165.5,
          "velocity": 0.25196850393700787
        },
        {
          "duration": 0.12790697674418539,
          "durationTicks": 11,
          "midi": 42,
          "name": "F#2",
          "ticks": 14234,
          "time": 165.51162790697674,
          "velocity": 0.3858267716535433
        },
        {
          "duration": 0.33720930232559,
          "durationTicks": 29,
          "midi": 61,
          "name": "C#4",
          "ticks": 14243,
          "time": 165.61627906976744,
          "velocity": 0.13385826771653545
        },
        {
          "duration": 0.034883720930224626,
          "durationTicks": 3,
          "midi": 43,
          "name": "G2",
          "ticks": 14245,
          "time": 165.63953488372093,
          "velocity": 0.14960629921259844
        },
        {
          "duration": 0.33720930232559,
          "durationTicks": 29,
          "midi": 42,
          "name": "F#2",
          "ticks": 14248,
          "time": 165.67441860465115,
          "velocity": 0.2440944881889764
        },
        {
          "duration": 0.2906976744185954,
          "durationTicks": 25,
          "midi": 61,
          "name": "C#4",
          "ticks": 14276,
          "time": 166,
          "velocity": 0.2204724409448819
        },
        {
          "duration": 0.1511627906976969,
          "durationTicks": 13,
          "midi": 42,
          "name": "F#2",
          "ticks": 14280,
          "time": 166.04651162790697,
          "velocity": 0.11811023622047244
        },
        {
          "duration": 0.03488372093025305,
          "durationTicks": 3,
          "midi": 42,
          "name": "F#2",
          "ticks": 14301,
          "time": 166.2906976744186,
          "velocity": 0.14173228346456693
        },
        {
          "duration": 0.5465116279069946,
          "durationTicks": 47,
          "midi": 58,
          "name": "A#3",
          "ticks": 14301,
          "time": 166.2906976744186,
          "velocity": 0.14173228346456693
        },
        {
          "duration": 0.08139534883721922,
          "durationTicks": 7,
          "midi": 42,
          "name": "F#2",
          "ticks": 14311,
          "time": 166.40697674418604,
          "velocity": 0.09448818897637795
        },
        {
          "duration": 0.13953488372092693,
          "durationTicks": 12,
          "midi": 42,
          "name": "F#2",
          "ticks": 14332,
          "time": 166.65116279069767,
          "velocity": 0.29133858267716534
        },
        {
          "duration": 0.03488372093025305,
          "durationTicks": 3,
          "midi": 43,
          "name": "G2",
          "ticks": 14344,
          "time": 166.7906976744186,
          "velocity": 0.09448818897637795
        },
        {
          "duration": 0.2674418604651123,
          "durationTicks": 23,
          "midi": 42,
          "name": "F#2",
          "ticks": 14347,
          "time": 166.82558139534885,
          "velocity": 0.1732283464566929
        },
        {
          "duration": 0.034883720930224626,
          "durationTicks": 3,
          "midi": 51,
          "name": "D#3",
          "ticks": 14350,
          "time": 166.86046511627907,
          "velocity": 0.09448818897637795
        },
        {
          "duration": 0.023255813953483084,
          "durationTicks": 2,
          "midi": 45,
          "name": "A2",
          "ticks": 14376,
          "time": 167.1627906976744,
          "velocity": 0.2992125984251969
        },
        {
          "duration": 0.03488372093025305,
          "durationTicks": 3,
          "midi": 58,
          "name": "A#3",
          "ticks": 14376,
          "time": 167.1627906976744,
          "velocity": 0.2125984251968504
        },
        {
          "duration": 0.023255813953511506,
          "durationTicks": 2,
          "midi": 47,
          "name": "B2",
          "ticks": 14378,
          "time": 167.1860465116279,
          "velocity": 0.23622047244094488
        },
        {
          "duration": 0.22093023255811772,
          "durationTicks": 19,
          "midi": 75,
          "name": "D#5",
          "ticks": 14379,
          "time": 167.19767441860466,
          "velocity": 0.15748031496062992
        },
        {
          "duration": 0.25581395348837077,
          "durationTicks": 22,
          "midi": 47,
          "name": "B2",
          "ticks": 14381,
          "time": 167.22093023255815,
          "velocity": 0.2677165354330709
        },
        {
          "duration": 0.2674418604651123,
          "durationTicks": 23,
          "midi": 61,
          "name": "C#4",
          "ticks": 14402,
          "time": 167.46511627906978,
          "velocity": 0.29133858267716534
        },
        {
          "duration": 0.05813953488370771,
          "durationTicks": 5,
          "midi": 47,
          "name": "B2",
          "ticks": 14404,
          "time": 167.48837209302326,
          "velocity": 0.2283464566929134
        },
        {
          "duration": 1.802325581395337,
          "durationTicks": 155,
          "midi": 58,
          "name": "A#3",
          "ticks": 14427,
          "time": 167.75581395348837,
          "velocity": 0.4015748031496063
        },
        {
          "duration": 0.023255813953511506,
          "durationTicks": 2,
          "midi": 41,
          "name": "F2",
          "ticks": 14430,
          "time": 167.7906976744186,
          "velocity": 0.3228346456692913
        },
        {
          "duration": 0.13953488372092693,
          "durationTicks": 12,
          "midi": 42,
          "name": "F#2",
          "ticks": 14432,
          "time": 167.8139534883721,
          "velocity": 0.3464566929133858
        },
        {
          "duration": 0.034883720930224626,
          "durationTicks": 3,
          "midi": 43,
          "name": "G2",
          "ticks": 14444,
          "time": 167.95348837209303,
          "velocity": 0.12598425196850394
        },
        {
          "duration": 0.12790697674418539,
          "durationTicks": 11,
          "midi": 42,
          "name": "F#2",
          "ticks": 14447,
          "time": 167.98837209302326,
          "velocity": 0.2047244094488189
        },
        {
          "duration": 0.15116279069766847,
          "durationTicks": 13,
          "midi": 42,
          "name": "F#2",
          "ticks": 14460,
          "time": 168.13953488372093,
          "velocity": 0.1732283464566929
        },
        {
          "duration": 0.09302325581393234,
          "durationTicks": 8,
          "midi": 42,
          "name": "F#2",
          "ticks": 14476,
          "time": 168.32558139534885,
          "velocity": 0.11811023622047244
        },
        {
          "duration": 0.034883720930224626,
          "durationTicks": 3,
          "midi": 42,
          "name": "F#2",
          "ticks": 14499,
          "time": 168.59302325581396,
          "velocity": 0.09448818897637795
        },
        {
          "duration": 0.023255813953483084,
          "durationTicks": 2,
          "midi": 41,
          "name": "F2",
          "ticks": 14525,
          "time": 168.8953488372093,
          "velocity": 0.31496062992125984
        },
        {
          "duration": 0.12790697674418539,
          "durationTicks": 11,
          "midi": 42,
          "name": "F#2",
          "ticks": 14527,
          "time": 168.91860465116278,
          "velocity": 0.3464566929133858
        },
        {
          "duration": 0.04651162790699459,
          "durationTicks": 4,
          "midi": 43,
          "name": "G2",
          "ticks": 14538,
          "time": 169.04651162790697,
          "velocity": 0.12598425196850394
        },
        {
          "duration": 0.17441860465115155,
          "durationTicks": 15,
          "midi": 42,
          "name": "F#2",
          "ticks": 14542,
          "time": 169.09302325581396,
          "velocity": 0.2125984251968504
        },
        {
          "duration": 0.11627906976744384,
          "durationTicks": 10,
          "midi": 42,
          "name": "F#2",
          "ticks": 14558,
          "time": 169.27906976744185,
          "velocity": 0.12598425196850394
        },
        {
          "duration": 0.24418604651162923,
          "durationTicks": 21,
          "midi": 42,
          "name": "F#2",
          "ticks": 14569,
          "time": 169.40697674418604,
          "velocity": 0.15748031496062992
        },
        {
          "duration": 0.06976744186047767,
          "durationTicks": 6,
          "midi": 58,
          "name": "A#3",
          "ticks": 14591,
          "time": 169.6627906976744,
          "velocity": 0.10236220472440945
        },
        {
          "duration": 0.034883720930224626,
          "durationTicks": 3,
          "midi": 42,
          "name": "F#2",
          "ticks": 14595,
          "time": 169.7093023255814,
          "velocity": 0.08661417322834646
        },
        {
          "duration": 0.1860465116278931,
          "durationTicks": 16,
          "midi": 58,
          "name": "A#3",
          "ticks": 14606,
          "time": 169.8372093023256,
          "velocity": 0.10236220472440945
        },
        {
          "duration": 0.034883720930224626,
          "durationTicks": 3,
          "midi": 41,
          "name": "F2",
          "ticks": 14622,
          "time": 170.02325581395348,
          "velocity": 0.3700787401574803
        },
        {
          "duration": 0.24418604651162923,
          "durationTicks": 21,
          "midi": 54,
          "name": "F#3",
          "ticks": 14624,
          "time": 170.04651162790697,
          "velocity": 0.2204724409448819
        },
        {
          "duration": 0.12790697674418539,
          "durationTicks": 11,
          "midi": 42,
          "name": "F#2",
          "ticks": 14625,
          "time": 170.0581395348837,
          "velocity": 0.4015748031496063
        },
        {
          "duration": 0.03488372093025305,
          "durationTicks": 3,
          "midi": 43,
          "name": "G2",
          "ticks": 14636,
          "time": 170.1860465116279,
          "velocity": 0.2047244094488189
        },
        {
          "duration": 0.32558139534882,
          "durationTicks": 28,
          "midi": 42,
          "name": "F#2",
          "ticks": 14639,
          "time": 170.22093023255815,
          "velocity": 0.2755905511811024
        },
        {
          "duration": 0.16279069767441,
          "durationTicks": 14,
          "midi": 61,
          "name": "C#4",
          "ticks": 14670,
          "time": 170.58139534883722,
          "velocity": 0.14173228346456693
        },
        {
          "duration": 0.15116279069766847,
          "durationTicks": 13,
          "midi": 42,
          "name": "F#2",
          "ticks": 14671,
          "time": 170.59302325581396,
          "velocity": 0.1732283464566929
        },
        {
          "duration": 0.05813953488373613,
          "durationTicks": 5,
          "midi": 42,
          "name": "F#2",
          "ticks": 14689,
          "time": 170.80232558139534,
          "velocity": 0.08661417322834646
        },
        {
          "duration": 0.034883720930224626,
          "durationTicks": 3,
          "midi": 53,
          "name": "F3",
          "ticks": 14694,
          "time": 170.86046511627907,
          "velocity": 0.31496062992125984
        },
        {
          "duration": 0.19767441860466306,
          "durationTicks": 17,
          "midi": 54,
          "name": "F#3",
          "ticks": 14697,
          "time": 170.8953488372093,
          "velocity": 0.2677165354330709
        },
        {
          "duration": 0.05813953488373613,
          "durationTicks": 5,
          "midi": 42,
          "name": "F#2",
          "ticks": 14707,
          "time": 171.01162790697674,
          "velocity": 0.08661417322834646
        },
        {
          "duration": 0.05813953488370771,
          "durationTicks": 5,
          "midi": 54,
          "name": "F#3",
          "ticks": 14715,
          "time": 171.1046511627907,
          "velocity": 0.25984251968503935
        },
        {
          "duration": 0.023255813953483084,
          "durationTicks": 2,
          "midi": 48,
          "name": "C3",
          "ticks": 14718,
          "time": 171.13953488372093,
          "velocity": 0.30708661417322836
        },
        {
          "duration": 1.023255813953483,
          "durationTicks": 88,
          "midi": 61,
          "name": "C#4",
          "ticks": 14719,
          "time": 171.15116279069767,
          "velocity": 0.2992125984251969
        },
        {
          "duration": 0.33720930232559,
          "durationTicks": 29,
          "midi": 49,
          "name": "C#3",
          "ticks": 14720,
          "time": 171.1627906976744,
          "velocity": 0.2992125984251969
        },
        {
          "duration": 0.2093023255814046,
          "durationTicks": 18,
          "midi": 49,
          "name": "C#3",
          "ticks": 14750,
          "time": 171.51162790697674,
          "velocity": 0.2204724409448819
        },
        {
          "duration": 0.034883720930224626,
          "durationTicks": 3,
          "midi": 41,
          "name": "F2",
          "ticks": 14768,
          "time": 171.72093023255815,
          "velocity": 0.11023622047244094
        },
        {
          "duration": 0.034883720930224626,
          "durationTicks": 3,
          "midi": 49,
          "name": "C#3",
          "ticks": 14769,
          "time": 171.7325581395349,
          "velocity": 0.1732283464566929
        },
        {
          "duration": 0.22093023255814614,
          "durationTicks": 19,
          "midi": 49,
          "name": "C#3",
          "ticks": 14773,
          "time": 171.77906976744185,
          "velocity": 0.16535433070866143
        },
        {
          "duration": 0.5697674418604777,
          "durationTicks": 49,
          "midi": 56,
          "name": "G#3",
          "ticks": 14794,
          "time": 172.02325581395348,
          "velocity": 0.1732283464566929
        },
        {
          "duration": 0.10465116279067388,
          "durationTicks": 9,
          "midi": 49,
          "name": "C#3",
          "ticks": 14799,
          "time": 172.08139534883722,
          "velocity": 0.11811023622047244
        },
        {
          "duration": 0.25581395348837077,
          "durationTicks": 22,
          "midi": 49,
          "name": "C#3",
          "ticks": 14820,
          "time": 172.32558139534885,
          "velocity": 0.23622047244094488
        },
        {
          "duration": 0.034883720930224626,
          "durationTicks": 3,
          "midi": 49,
          "name": "C#3",
          "ticks": 14848,
          "time": 172.65116279069767,
          "velocity": 0.1968503937007874
        },
        {
          "duration": 0.13953488372092693,
          "durationTicks": 12,
          "midi": 49,
          "name": "C#3",
          "ticks": 14855,
          "time": 172.7325581395349,
          "velocity": 0.1732283464566929
        },
        {
          "duration": 0.05813953488370771,
          "durationTicks": 5,
          "midi": 56,
          "name": "G#3",
          "ticks": 14863,
          "time": 172.82558139534885,
          "velocity": 0.13385826771653545
        },
        {
          "duration": 0.16279069767441,
          "durationTicks": 14,
          "midi": 61,
          "name": "C#4",
          "ticks": 14869,
          "time": 172.8953488372093,
          "velocity": 0.10236220472440945
        },
        {
          "duration": 0.16279069767441,
          "durationTicks": 14,
          "midi": 56,
          "name": "G#3",
          "ticks": 14874,
          "time": 172.95348837209303,
          "velocity": 0.07086614173228346
        },
        {
          "duration": 0.1860465116278931,
          "durationTicks": 16,
          "midi": 49,
          "name": "C#3",
          "ticks": 14875,
          "time": 172.96511627906978,
          "velocity": 0.12598425196850394
        },
        {
          "duration": 0.03488372093025305,
          "durationTicks": 3,
          "midi": 52,
          "name": "E3",
          "ticks": 14892,
          "time": 173.1627906976744,
          "velocity": 0.36220472440944884
        },
        {
          "duration": 0.023255813953483084,
          "durationTicks": 2,
          "midi": 54,
          "name": "F#3",
          "ticks": 14896,
          "time": 173.2093023255814,
          "velocity": 0.29133858267716534
        },
        {
          "duration": 0.023255813953483084,
          "durationTicks": 2,
          "midi": 53,
          "name": "F3",
          "ticks": 14900,
          "time": 173.25581395348837,
          "velocity": 0.2755905511811024
        },
        {
          "duration": 0.023255813953483084,
          "durationTicks": 2,
          "midi": 53,
          "name": "F3",
          "ticks": 14905,
          "time": 173.3139534883721,
          "velocity": 0.2440944881889764
        },
        {
          "duration": 0.04651162790696617,
          "durationTicks": 4,
          "midi": 53,
          "name": "F3",
          "ticks": 14908,
          "time": 173.34883720930233,
          "velocity": 0.23622047244094488
        },
        {
          "duration": 0.034883720930224626,
          "durationTicks": 3,
          "midi": 52,
          "name": "E3",
          "ticks": 14918,
          "time": 173.46511627906978,
          "velocity": 0.4094488188976378
        },
        {
          "duration": 0.023255813953483084,
          "durationTicks": 2,
          "midi": 51,
          "name": "D#3",
          "ticks": 14921,
          "time": 173.5,
          "velocity": 0.31496062992125984
        },
        {
          "duration": 0.023255813953483084,
          "durationTicks": 2,
          "midi": 52,
          "name": "E3",
          "ticks": 14923,
          "time": 173.52325581395348,
          "velocity": 0.3700787401574803
        },
        {
          "duration": 0.023255813953511506,
          "durationTicks": 2,
          "midi": 51,
          "name": "D#3",
          "ticks": 14925,
          "time": 173.54651162790697,
          "velocity": 0.29133858267716534
        },
        {
          "duration": 0.05813953488370771,
          "durationTicks": 5,
          "midi": 51,
          "name": "D#3",
          "ticks": 14930,
          "time": 173.6046511627907,
          "velocity": 0.2677165354330709
        },
        {
          "duration": 0.023255813953511506,
          "durationTicks": 2,
          "midi": 51,
          "name": "D#3",
          "ticks": 14936,
          "time": 173.67441860465115,
          "velocity": 0.2283464566929134
        },
        {
          "duration": 0.023255813953483084,
          "durationTicks": 2,
          "midi": 51,
          "name": "D#3",
          "ticks": 14939,
          "time": 173.7093023255814,
          "velocity": 0.2283464566929134
        },
        {
          "duration": 0.023255813953483084,
          "durationTicks": 2,
          "midi": 53,
          "name": "F3",
          "ticks": 14943,
          "time": 173.75581395348837,
          "velocity": 0.28346456692913385
        },
        {
          "duration": 0.06976744186047767,
          "durationTicks": 6,
          "midi": 51,
          "name": "D#3",
          "ticks": 14964,
          "time": 174,
          "velocity": 0.18110236220472442
        },
        {
          "duration": 0.24418604651162923,
          "durationTicks": 21,
          "midi": 51,
          "name": "D#3",
          "ticks": 14972,
          "time": 174.09302325581396,
          "velocity": 0.36220472440944884
        },
        {
          "duration": 0.16279069767441,
          "durationTicks": 14,
          "midi": 51,
          "name": "D#3",
          "ticks": 14994,
          "time": 174.34883720930233,
          "velocity": 0.11811023622047244
        },
        {
          "duration": 0.5348837209302246,
          "durationTicks": 46,
          "midi": 51,
          "name": "D#3",
          "ticks": 15016,
          "time": 174.6046511627907,
          "velocity": 0.36220472440944884
        },
        {
          "duration": 0.5232558139534831,
          "durationTicks": 45,
          "midi": 58,
          "name": "A#3",
          "ticks": 15041,
          "time": 174.8953488372093,
          "velocity": 0.13385826771653545
        },
        {
          "duration": 0.034883720930224626,
          "durationTicks": 3,
          "midi": 53,
          "name": "F3",
          "ticks": 15063,
          "time": 175.15116279069767,
          "velocity": 0.14960629921259844
        },
        {
          "duration": 0.5,
          "durationTicks": 43,
          "midi": 51,
          "name": "D#3",
          "ticks": 15114,
          "time": 175.74418604651163,
          "velocity": 0.36220472440944884
        },
        {
          "duration": 0.034883720930224626,
          "durationTicks": 3,
          "midi": 41,
          "name": "F2",
          "ticks": 15115,
          "time": 175.75581395348837,
          "velocity": 0.12598425196850394
        },
        {
          "duration": 0.15116279069766847,
          "durationTicks": 13,
          "midi": 58,
          "name": "A#3",
          "ticks": 15143,
          "time": 176.08139534883722,
          "velocity": 0.10236220472440945
        },
        {
          "duration": 0.30232558139533694,
          "durationTicks": 26,
          "midi": 58,
          "name": "A#3",
          "ticks": 15157,
          "time": 176.24418604651163,
          "velocity": 0.10236220472440945
        },
        {
          "duration": 0.25581395348837077,
          "durationTicks": 22,
          "midi": 51,
          "name": "D#3",
          "ticks": 15163,
          "time": 176.3139534883721,
          "velocity": 0.33070866141732286
        },
        {
          "duration": 0.034883720930224626,
          "durationTicks": 3,
          "midi": 52,
          "name": "E3",
          "ticks": 15185,
          "time": 176.56976744186048,
          "velocity": 0.2125984251968504
        },
        {
          "duration": 0.2674418604651123,
          "durationTicks": 23,
          "midi": 51,
          "name": "D#3",
          "ticks": 15188,
          "time": 176.6046511627907,
          "velocity": 0.4015748031496063
        },
        {
          "duration": 0.03488372093025305,
          "durationTicks": 3,
          "midi": 53,
          "name": "F3",
          "ticks": 15214,
          "time": 176.90697674418604,
          "velocity": 0.33858267716535434
        },
        {
          "duration": 0.03488372093025305,
          "durationTicks": 3,
          "midi": 42,
          "name": "F#2",
          "ticks": 15216,
          "time": 176.93023255813952,
          "velocity": 0.08661417322834646
        },
        {
          "duration": 0.18604651162792152,
          "durationTicks": 16,
          "midi": 66,
          "name": "F#4",
          "ticks": 15216,
          "time": 176.93023255813952,
          "velocity": 0.07086614173228346
        },
        {
          "duration": 0.034883720930224626,
          "durationTicks": 3,
          "midi": 54,
          "name": "F#3",
          "ticks": 15217,
          "time": 176.9418604651163,
          "velocity": 0.3228346456692913
        },
        {
          "duration": 0.2325581395348877,
          "durationTicks": 20,
          "midi": 54,
          "name": "F#3",
          "ticks": 15221,
          "time": 176.98837209302326,
          "velocity": 0.28346456692913385
        },
        {
          "duration": 0.023255813953483084,
          "durationTicks": 2,
          "midi": 53,
          "name": "F3",
          "ticks": 15243,
          "time": 177.24418604651163,
          "velocity": 0.36220472440944884
        },
        {
          "duration": 0.24418604651162923,
          "durationTicks": 21,
          "midi": 66,
          "name": "F#4",
          "ticks": 15243,
          "time": 177.24418604651163,
          "velocity": 0.07874015748031496
        },
        {
          "duration": 0.023255813953483084,
          "durationTicks": 2,
          "midi": 54,
          "name": "F#3",
          "ticks": 15245,
          "time": 177.2674418604651,
          "velocity": 0.29133858267716534
        },
        {
          "duration": 0.023255813953511506,
          "durationTicks": 2,
          "midi": 53,
          "name": "F3",
          "ticks": 15247,
          "time": 177.2906976744186,
          "velocity": 0.3464566929133858
        },
        {
          "duration": 0.19767441860463464,
          "durationTicks": 17,
          "midi": 54,
          "name": "F#3",
          "ticks": 15249,
          "time": 177.3139534883721,
          "velocity": 0.28346456692913385
        },
        {
          "duration": 0.04651162790696617,
          "durationTicks": 4,
          "midi": 53,
          "name": "F3",
          "ticks": 15266,
          "time": 177.51162790697674,
          "velocity": 0.29133858267716534
        },
        {
          "duration": 0.1511627906976969,
          "durationTicks": 13,
          "midi": 56,
          "name": "G#3",
          "ticks": 15270,
          "time": 177.5581395348837,
          "velocity": 0.3464566929133858
        },
        {
          "duration": 0.1046511627907023,
          "durationTicks": 9,
          "midi": 75,
          "name": "D#5",
          "ticks": 15270,
          "time": 177.5581395348837,
          "velocity": 0.07874015748031496
        },
        {
          "duration": 0.034883720930224626,
          "durationTicks": 3,
          "midi": 57,
          "name": "A3",
          "ticks": 15283,
          "time": 177.7093023255814,
          "velocity": 0.3543307086614173
        },
        {
          "duration": 0.4651162790697754,
          "durationTicks": 40,
          "midi": 58,
          "name": "A#3",
          "ticks": 15286,
          "time": 177.74418604651163,
          "velocity": 0.3700787401574803
        },
        {
          "duration": 0.023255813953483084,
          "durationTicks": 2,
          "midi": 50,
          "name": "D3",
          "ticks": 15327,
          "time": 178.22093023255815,
          "velocity": 0.3543307086614173
        },
        {
          "duration": 0.25581395348837077,
          "durationTicks": 22,
          "midi": 68,
          "name": "G#4",
          "ticks": 15327,
          "time": 178.22093023255815,
          "velocity": 0.11811023622047244
        },
        {
          "duration": 0.15116279069766847,
          "durationTicks": 13,
          "midi": 75,
          "name": "D#5",
          "ticks": 15327,
          "time": 178.22093023255815,
          "velocity": 0.07874015748031496
        },
        {
          "duration": 0.023255813953483084,
          "durationTicks": 2,
          "midi": 49,
          "name": "C#3",
          "ticks": 15329,
          "time": 178.24418604651163,
          "velocity": 0.25196850393700787
        },
        {
          "duration": 0.023255813953483084,
          "durationTicks": 2,
          "midi": 56,
          "name": "G#3",
          "ticks": 15330,
          "time": 178.25581395348837,
          "velocity": 0.2992125984251969
        },
        {
          "duration": 0.19767441860466306,
          "durationTicks": 17,
          "midi": 49,
          "name": "C#3",
          "ticks": 15332,
          "time": 178.27906976744185,
          "velocity": 0.2755905511811024
        },
        {
          "duration": 0.7325581395348593,
          "durationTicks": 63,
          "midi": 56,
          "name": "G#3",
          "ticks": 15335,
          "time": 178.3139534883721,
          "velocity": 0.33070866141732286
        },
        {
          "duration": 0.05813953488370771,
          "durationTicks": 5,
          "midi": 49,
          "name": "C#3",
          "ticks": 15350,
          "time": 178.48837209302326,
          "velocity": 0.2283464566929134
        },
        {
          "duration": 0.17441860465115155,
          "durationTicks": 15,
          "midi": 49,
          "name": "C#3",
          "ticks": 15357,
          "time": 178.56976744186048,
          "velocity": 0.23622047244094488
        },
        {
          "duration": 0.034883720930224626,
          "durationTicks": 3,
          "midi": 49,
          "name": "C#3",
          "ticks": 15373,
          "time": 178.75581395348837,
          "velocity": 0.1889763779527559
        },
        {
          "duration": 0.22093023255811772,
          "durationTicks": 19,
          "midi": 49,
          "name": "C#3",
          "ticks": 15380,
          "time": 178.8372093023256,
          "velocity": 0.16535433070866143
        },
        {
          "duration": 0.034883720930224626,
          "durationTicks": 3,
          "midi": 41,
          "name": "F2",
          "ticks": 15400,
          "time": 179.06976744186048,
          "velocity": 0.09448818897637795
        },
        {
          "duration": 0.5581395348837077,
          "durationTicks": 48,
          "midi": 56,
          "name": "G#3",
          "ticks": 15400,
          "time": 179.06976744186048,
          "velocity": 0.28346456692913385
        },
        {
          "duration": 0.25581395348837077,
          "durationTicks": 22,
          "midi": 49,
          "name": "C#3",
          "ticks": 15426,
          "time": 179.37209302325581,
          "velocity": 0.2440944881889764
        },
        {
          "duration": 0.023255813953483084,
          "durationTicks": 2,
          "midi": 49,
          "name": "C#3",
          "ticks": 15449,
          "time": 179.63953488372093,
          "velocity": 0.25984251968503935
        },
        {
          "duration": 0.03488372093025305,
          "durationTicks": 3,
          "midi": 49,
          "name": "C#3",
          "ticks": 15452,
          "time": 179.67441860465115,
          "velocity": 0.18110236220472442
        },
        {
          "duration": 0.04651162790696617,
          "durationTicks": 4,
          "midi": 49,
          "name": "C#3",
          "ticks": 15458,
          "time": 179.74418604651163,
          "velocity": 0.15748031496062992
        },
        {
          "duration": 0.12790697674418539,
          "durationTicks": 11,
          "midi": 49,
          "name": "C#3",
          "ticks": 15463,
          "time": 179.80232558139534,
          "velocity": 0.1968503937007874
        },
        {
          "duration": 0.04651162790696617,
          "durationTicks": 4,
          "midi": 56,
          "name": "G#3",
          "ticks": 15466,
          "time": 179.8372093023256,
          "velocity": 0.15748031496062992
        },
        {
          "duration": 0.23255813953485927,
          "durationTicks": 20,
          "midi": 49,
          "name": "C#3",
          "ticks": 15475,
          "time": 179.9418604651163,
          "velocity": 0.14173228346456693
        },
        {
          "duration": 0.19767441860463464,
          "durationTicks": 17,
          "midi": 56,
          "name": "G#3",
          "ticks": 15476,
          "time": 179.95348837209303,
          "velocity": 0.14960629921259844
        },
        {
          "duration": 0.5813953488372192,
          "durationTicks": 50,
          "midi": 56,
          "name": "G#3",
          "ticks": 15495,
          "time": 180.17441860465115,
          "velocity": 0.25196850393700787
        },
        {
          "duration": 0.1860465116278931,
          "durationTicks": 16,
          "midi": 61,
          "name": "C#4",
          "ticks": 15522,
          "time": 180.48837209302326,
          "velocity": 0.09448818897637795
        },
        {
          "duration": 0.2674418604651123,
          "durationTicks": 23,
          "midi": 49,
          "name": "C#3",
          "ticks": 15523,
          "time": 180.5,
          "velocity": 0.2677165354330709
        },
        {
          "duration": 0.03488372093025305,
          "durationTicks": 3,
          "midi": 49,
          "name": "C#3",
          "ticks": 15549,
          "time": 180.80232558139534,
          "velocity": 0.2047244094488189
        },
        {
          "duration": 0.06976744186044925,
          "durationTicks": 6,
          "midi": 49,
          "name": "C#3",
          "ticks": 15554,
          "time": 180.86046511627907,
          "velocity": 0.1968503937007874
        },
        {
          "duration": 0.08139534883721922,
          "durationTicks": 7,
          "midi": 56,
          "name": "G#3",
          "ticks": 15554,
          "time": 180.86046511627907,
          "velocity": 0.15748031496062992
        },
        {
          "duration": 0.06976744186044925,
          "durationTicks": 6,
          "midi": 49,
          "name": "C#3",
          "ticks": 15561,
          "time": 180.9418604651163,
          "velocity": 0.18110236220472442
        },
        {
          "duration": 0.06976744186044925,
          "durationTicks": 6,
          "midi": 56,
          "name": "G#3",
          "ticks": 15565,
          "time": 180.98837209302326,
          "velocity": 0.14173228346456693
        },
        {
          "duration": 0.5813953488372192,
          "durationTicks": 50,
          "midi": 61,
          "name": "C#4",
          "ticks": 15570,
          "time": 181.04651162790697,
          "velocity": 0.15748031496062992
        },
        {
          "duration": 0.5232558139534831,
          "durationTicks": 45,
          "midi": 65,
          "name": "F4",
          "ticks": 15572,
          "time": 181.06976744186048,
          "velocity": 0.08661417322834646
        },
        {
          "duration": 0.034883720930224626,
          "durationTicks": 3,
          "midi": 53,
          "name": "F3",
          "ticks": 15573,
          "time": 181.08139534883722,
          "velocity": 0.4094488188976378
        },
        {
          "duration": 0.17441860465115155,
          "durationTicks": 15,
          "midi": 53,
          "name": "F3",
          "ticks": 15577,
          "time": 181.12790697674419,
          "velocity": 0.3543307086614173
        },
        {
          "duration": 0.03488372093025305,
          "durationTicks": 3,
          "midi": 54,
          "name": "F#3",
          "ticks": 15592,
          "time": 181.30232558139534,
          "velocity": 0.25196850393700787
        },
        {
          "duration": 0.023255813953483084,
          "durationTicks": 2,
          "midi": 56,
          "name": "G#3",
          "ticks": 15597,
          "time": 181.36046511627907,
          "velocity": 0.2440944881889764
        },
        {
          "duration": 0.2093023255814046,
          "durationTicks": 18,
          "midi": 56,
          "name": "G#3",
          "ticks": 15600,
          "time": 181.3953488372093,
          "velocity": 0.2677165354330709
        },
        {
          "duration": 0.13953488372092693,
          "durationTicks": 12,
          "midi": 53,
          "name": "F3",
          "ticks": 15619,
          "time": 181.61627906976744,
          "velocity": 0.4645669291338583
        },
        {
          "duration": 0.023255813953483084,
          "durationTicks": 2,
          "midi": 54,
          "name": "F#3",
          "ticks": 15631,
          "time": 181.75581395348837,
          "velocity": 0.30708661417322836
        },
        {
          "duration": 0.023255813953511506,
          "durationTicks": 2,
          "midi": 53,
          "name": "F3",
          "ticks": 15635,
          "time": 181.80232558139534,
          "velocity": 0.2677165354330709
        },
        {
          "duration": 0.023255813953483084,
          "durationTicks": 2,
          "midi": 53,
          "name": "F3",
          "ticks": 15642,
          "time": 181.88372093023256,
          "velocity": 0.25196850393700787
        },
        {
          "duration": 0.023255813953511506,
          "durationTicks": 2,
          "midi": 53,
          "name": "F3",
          "ticks": 15645,
          "time": 181.91860465116278,
          "velocity": 0.2755905511811024
        },
        {
          "duration": 0.03488372093025305,
          "durationTicks": 3,
          "midi": 49,
          "name": "C#3",
          "ticks": 15657,
          "time": 182.0581395348837,
          "velocity": 0.2204724409448819
        },
        {
          "duration": 0.034883720930224626,
          "durationTicks": 3,
          "midi": 49,
          "name": "C#3",
          "ticks": 15664,
          "time": 182.13953488372093,
          "velocity": 0.1889763779527559
        },
        {
          "duration": 0.2093023255814046,
          "durationTicks": 18,
          "midi": 56,
          "name": "G#3",
          "ticks": 15668,
          "time": 182.1860465116279,
          "velocity": 0.3228346456692913
        },
        {
          "duration": 0.034883720930224626,
          "durationTicks": 3,
          "midi": 41,
          "name": "F2",
          "ticks": 15669,
          "time": 182.19767441860466,
          "velocity": 0.1889763779527559
        },
        {
          "duration": 0.25581395348837077,
          "durationTicks": 22,
          "midi": 61,
          "name": "C#4",
          "ticks": 15669,
          "time": 182.19767441860466,
          "velocity": 0.12598425196850394
        },
        {
          "duration": 0.03488372093025305,
          "durationTicks": 3,
          "midi": 49,
          "name": "C#3",
          "ticks": 15678,
          "time": 182.30232558139534,
          "velocity": 0.15748031496062992
        },
        {
          "duration": 0.03488372093025305,
          "durationTicks": 3,
          "midi": 49,
          "name": "C#3",
          "ticks": 15687,
          "time": 182.40697674418604,
          "velocity": 0.12598425196850394
        },
        {
          "duration": 0.023255813953483084,
          "durationTicks": 2,
          "midi": 50,
          "name": "D3",
          "ticks": 15691,
          "time": 182.45348837209303,
          "velocity": 0.2440944881889764
        },
        {
          "duration": 0.023255813953483084,
          "durationTicks": 2,
          "midi": 52,
          "name": "E3",
          "ticks": 15693,
          "time": 182.47674418604652,
          "velocity": 0.3937007874015748
        },
        {
          "duration": 0.24418604651162923,
          "durationTicks": 21,
          "midi": 65,
          "name": "F4",
          "ticks": 15693,
          "time": 182.47674418604652,
          "velocity": 0.11811023622047244
        },
        {
          "duration": 0.03488372093025305,
          "durationTicks": 3,
          "midi": 53,
          "name": "F3",
          "ticks": 15700,
          "time": 182.5581395348837,
          "velocity": 0.33070866141732286
        },
        {
          "duration": 0.023255813953483084,
          "durationTicks": 2,
          "midi": 56,
          "name": "G#3",
          "ticks": 15701,
          "time": 182.56976744186048,
          "velocity": 0.23622047244094488
        },
        {
          "duration": 0.023255813953511506,
          "durationTicks": 2,
          "midi": 56,
          "name": "G#3",
          "ticks": 15710,
          "time": 182.67441860465115,
          "velocity": 0.25984251968503935
        },
        {
          "duration": 0.034883720930224626,
          "durationTicks": 3,
          "midi": 52,
          "name": "E3",
          "ticks": 15717,
          "time": 182.75581395348837,
          "velocity": 0.4566929133858268
        },
        {
          "duration": 0.023255813953483084,
          "durationTicks": 2,
          "midi": 42,
          "name": "F#2",
          "ticks": 15718,
          "time": 182.7674418604651,
          "velocity": 0.23622047244094488
        },
        {
          "duration": 0.12790697674418539,
          "durationTicks": 11,
          "midi": 66,
          "name": "F#4",
          "ticks": 15718,
          "time": 182.7674418604651,
          "velocity": 0.11023622047244094
        },
        {
          "duration": 0.023255813953483084,
          "durationTicks": 2,
          "midi": 54,
          "name": "F#3",
          "ticks": 15728,
          "time": 182.88372093023256,
          "velocity": 0.3464566929133858
        },
        {
          "duration": 0.023255813953483084,
          "durationTicks": 2,
          "midi": 53,
          "name": "F3",
          "ticks": 15730,
          "time": 182.90697674418604,
          "velocity": 0.4094488188976378
        },
        {
          "duration": 0.03488372093025305,
          "durationTicks": 3,
          "midi": 54,
          "name": "F#3",
          "ticks": 15732,
          "time": 182.93023255813952,
          "velocity": 0.2755905511811024
        },
        {
          "duration": 0.023255813953483084,
          "durationTicks": 2,
          "midi": 54,
          "name": "F#3",
          "ticks": 15737,
          "time": 182.98837209302326,
          "velocity": 0.36220472440944884
        },
        {
          "duration": 0.023255813953483084,
          "durationTicks": 2,
          "midi": 55,
          "name": "G3",
          "ticks": 15741,
          "time": 183.03488372093022,
          "velocity": 0.25984251968503935
        },
        {
          "duration": 0.04651162790699459,
          "durationTicks": 4,
          "midi": 58,
          "name": "A#3",
          "ticks": 15743,
          "time": 183.0581395348837,
          "velocity": 0.18110236220472442
        },
        {
          "duration": 0.023255813953483084,
          "durationTicks": 2,
          "midi": 54,
          "name": "F#3",
          "ticks": 15745,
          "time": 183.08139534883722,
          "velocity": 0.31496062992125984
        },
        {
          "duration": 0.04651162790696617,
          "durationTicks": 4,
          "midi": 54,
          "name": "F#3",
          "ticks": 15748,
          "time": 183.11627906976744,
          "velocity": 0.25984251968503935
        },
        {
          "duration": 0.09302325581396076,
          "durationTicks": 8,
          "midi": 54,
          "name": "F#3",
          "ticks": 15753,
          "time": 183.17441860465115,
          "velocity": 0.2992125984251969
        },
        {
          "duration": 0.06976744186047767,
          "durationTicks": 6,
          "midi": 58,
          "name": "A#3",
          "ticks": 15754,
          "time": 183.1860465116279,
          "velocity": 0.1968503937007874
        },
        {
          "duration": 0.04651162790699459,
          "durationTicks": 4,
          "midi": 54,
          "name": "F#3",
          "ticks": 15762,
          "time": 183.27906976744185,
          "velocity": 0.2677165354330709
        },
        {
          "duration": 0.09302325581396076,
          "durationTicks": 8,
          "midi": 58,
          "name": "A#3",
          "ticks": 15763,
          "time": 183.2906976744186,
          "velocity": 0.1968503937007874
        },
        {
          "duration": 0.27906976744185386,
          "durationTicks": 24,
          "midi": 54,
          "name": "F#3",
          "ticks": 15770,
          "time": 183.37209302325581,
          "velocity": 0.25196850393700787
        },
        {
          "duration": 0.04651162790696617,
          "durationTicks": 4,
          "midi": 58,
          "name": "A#3",
          "ticks": 15780,
          "time": 183.48837209302326,
          "velocity": 0.10236220472440945
        },
        {
          "duration": 0.2674418604651123,
          "durationTicks": 23,
          "midi": 54,
          "name": "F#3",
          "ticks": 15795,
          "time": 183.6627906976744,
          "velocity": 0.18110236220472442
        },
        {
          "duration": 0.4534883720930054,
          "durationTicks": 39,
          "midi": 51,
          "name": "D#3",
          "ticks": 15819,
          "time": 183.9418604651163,
          "velocity": 0.3937007874015748
        },
        {
          "duration": 0.5232558139535115,
          "durationTicks": 45,
          "midi": 58,
          "name": "A#3",
          "ticks": 15840,
          "time": 184.1860465116279,
          "velocity": 0.2047244094488189
        },
        {
          "duration": 0.05813953488373613,
          "durationTicks": 5,
          "midi": 51,
          "name": "D#3",
          "ticks": 15859,
          "time": 184.40697674418604,
          "velocity": 0.1732283464566929
        },
        {
          "duration": 0.16279069767441,
          "durationTicks": 14,
          "midi": 66,
          "name": "F#4",
          "ticks": 15863,
          "time": 184.45348837209303,
          "velocity": 0.08661417322834646
        },
        {
          "duration": 0.27906976744185386,
          "durationTicks": 24,
          "midi": 58,
          "name": "A#3",
          "ticks": 15888,
          "time": 184.74418604651163,
          "velocity": 0.07086614173228346
        },
        {
          "duration": 0.5,
          "durationTicks": 43,
          "midi": 51,
          "name": "D#3",
          "ticks": 15912,
          "time": 185.02325581395348,
          "velocity": 0.3700787401574803
        },
        {
          "duration": 0.03488372093025305,
          "durationTicks": 3,
          "midi": 41,
          "name": "F2",
          "ticks": 15913,
          "time": 185.03488372093022,
          "velocity": 0.13385826771653545
        },
        {
          "duration": 0.3604651162790731,
          "durationTicks": 31,
          "midi": 58,
          "name": "A#3",
          "ticks": 15934,
          "time": 185.27906976744185,
          "velocity": 0.2283464566929134
        },
        {
          "duration": 0.04651162790699459,
          "durationTicks": 4,
          "midi": 53,
          "name": "F3",
          "ticks": 15956,
          "time": 185.53488372093022,
          "velocity": 0.3543307086614173
        },
        {
          "duration": 0.5465116279069946,
          "durationTicks": 47,
          "midi": 66,
          "name": "F#4",
          "ticks": 15956,
          "time": 185.53488372093022,
          "velocity": 0.1968503937007874
        },
        {
          "duration": 0.023255813953483084,
          "durationTicks": 2,
          "midi": 54,
          "name": "F#3",
          "ticks": 15960,
          "time": 185.58139534883722,
          "velocity": 0.31496062992125984
        },
        {
          "duration": 0.1860465116278931,
          "durationTicks": 16,
          "midi": 54,
          "name": "F#3",
          "ticks": 15963,
          "time": 185.61627906976744,
          "velocity": 0.2677165354330709
        },
        {
          "duration": 0.11627906976744384,
          "durationTicks": 10,
          "midi": 85,
          "name": "C#6",
          "ticks": 15969,
          "time": 185.6860465116279,
          "velocity": 0.08661417322834646
        },
        {
          "duration": 0.04651162790696617,
          "durationTicks": 4,
          "midi": 58,
          "name": "A#3",
          "ticks": 15972,
          "time": 185.72093023255815,
          "velocity": 0.14960629921259844
        },
        {
          "duration": 0.03488372093025305,
          "durationTicks": 3,
          "midi": 58,
          "name": "A#3",
          "ticks": 15979,
          "time": 185.80232558139534,
          "velocity": 0.10236220472440945
        },
        {
          "duration": 0.034883720930224626,
          "durationTicks": 3,
          "midi": 54,
          "name": "F#3",
          "ticks": 15980,
          "time": 185.8139534883721,
          "velocity": 0.2047244094488189
        },
        {
          "duration": 0.023255813953483084,
          "durationTicks": 2,
          "midi": 53,
          "name": "F3",
          "ticks": 15983,
          "time": 185.84883720930233,
          "velocity": 0.33070866141732286
        },
        {
          "duration": 0.2093023255814046,
          "durationTicks": 18,
          "midi": 54,
          "name": "F#3",
          "ticks": 15985,
          "time": 185.87209302325581,
          "velocity": 0.33070866141732286
        },
        {
          "duration": 0.034883720930224626,
          "durationTicks": 3,
          "midi": 58,
          "name": "A#3",
          "ticks": 16003,
          "time": 186.08139534883722,
          "velocity": 0.07086614173228346
        },
        {
          "duration": 0.05813953488370771,
          "durationTicks": 5,
          "midi": 42,
          "name": "F#2",
          "ticks": 16007,
          "time": 186.12790697674419,
          "velocity": 0.2047244094488189
        },
        {
          "duration": 0.5465116279069662,
          "durationTicks": 47,
          "midi": 51,
          "name": "D#3",
          "ticks": 16007,
          "time": 186.12790697674419,
          "velocity": 0.3858267716535433
        },
        {
          "duration": 0.8139534883721069,
          "durationTicks": 70,
          "midi": 58,
          "name": "A#3",
          "ticks": 16009,
          "time": 186.15116279069767,
          "velocity": 0.3779527559055118
        },
        {
          "duration": 0.04651162790699459,
          "durationTicks": 4,
          "midi": 52,
          "name": "E3",
          "ticks": 16054,
          "time": 186.67441860465115,
          "velocity": 0.23622047244094488
        },
        {
          "duration": 0.17441860465115155,
          "durationTicks": 15,
          "midi": 51,
          "name": "D#3",
          "ticks": 16060,
          "time": 186.74418604651163,
          "velocity": 0.15748031496062992
        },
        {
          "duration": 0.034883720930224626,
          "durationTicks": 3,
          "midi": 51,
          "name": "D#3",
          "ticks": 16077,
          "time": 186.9418604651163,
          "velocity": 0.2204724409448819
        },
        {
          "duration": 0.034883720930224626,
          "durationTicks": 3,
          "midi": 52,
          "name": "E3",
          "ticks": 16080,
          "time": 186.97674418604652,
          "velocity": 0.2047244094488189
        },
        {
          "duration": 0.2325581395348877,
          "durationTicks": 20,
          "midi": 61,
          "name": "C#4",
          "ticks": 16080,
          "time": 186.97674418604652,
          "velocity": 0.3228346456692913
        },
        {
          "duration": 0.04651162790699459,
          "durationTicks": 4,
          "midi": 51,
          "name": "D#3",
          "ticks": 16087,
          "time": 187.0581395348837,
          "velocity": 0.10236220472440945
        },
        {
          "duration": 0.04651162790696617,
          "durationTicks": 4,
          "midi": 58,
          "name": "A#3",
          "ticks": 16099,
          "time": 187.19767441860466,
          "velocity": 0.14173228346456693
        },
        {
          "duration": 0.023255813953483084,
          "durationTicks": 2,
          "midi": 43,
          "name": "G2",
          "ticks": 16104,
          "time": 187.25581395348837,
          "velocity": 0.2440944881889764
        },
        {
          "duration": 0.13953488372092693,
          "durationTicks": 12,
          "midi": 61,
          "name": "C#4",
          "ticks": 16105,
          "time": 187.2674418604651,
          "velocity": 0.2992125984251969
        },
        {
          "duration": 0.22093023255811772,
          "durationTicks": 19,
          "midi": 47,
          "name": "B2",
          "ticks": 16109,
          "time": 187.3139534883721,
          "velocity": 0.2440944881889764
        },
        {
          "duration": 0.06976744186047767,
          "durationTicks": 6,
          "midi": 62,
          "name": "D4",
          "ticks": 16117,
          "time": 187.40697674418604,
          "velocity": 0.2677165354330709
        },
        {
          "duration": 0.023255813953511506,
          "durationTicks": 2,
          "midi": 53,
          "name": "F3",
          "ticks": 16129,
          "time": 187.54651162790697,
          "velocity": 0.23622047244094488
        },
        {
          "duration": 0.5232558139535115,
          "durationTicks": 45,
          "midi": 47,
          "name": "B2",
          "ticks": 16130,
          "time": 187.5581395348837,
          "velocity": 0.2283464566929134
        },
        {
          "duration": 0.24418604651162923,
          "durationTicks": 21,
          "midi": 54,
          "name": "F#3",
          "ticks": 16131,
          "time": 187.56976744186048,
          "velocity": 0.2125984251968504
        },
        {
          "duration": 0.2674418604651123,
          "durationTicks": 23,
          "midi": 54,
          "name": "F#3",
          "ticks": 16153,
          "time": 187.82558139534885,
          "velocity": 0.13385826771653545
        },
        {
          "duration": 0.13953488372092693,
          "durationTicks": 12,
          "midi": 63,
          "name": "D#4",
          "ticks": 16153,
          "time": 187.82558139534885,
          "velocity": 0.1889763779527559
        },
        {
          "duration": 0.023255813953483084,
          "durationTicks": 2,
          "midi": 58,
          "name": "A#3",
          "ticks": 16176,
          "time": 188.09302325581396,
          "velocity": 0.2283464566929134
        },
        {
          "duration": 0.023255813953483084,
          "durationTicks": 2,
          "midi": 53,
          "name": "F3",
          "ticks": 16179,
          "time": 188.12790697674419,
          "velocity": 0.25196850393700787
        },
        {
          "duration": 0.25581395348837077,
          "durationTicks": 22,
          "midi": 61,
          "name": "C#4",
          "ticks": 16179,
          "time": 188.12790697674419,
          "velocity": 0.29133858267716534
        },
        {
          "duration": 0.034883720930224626,
          "durationTicks": 3,
          "midi": 41,
          "name": "F2",
          "ticks": 16201,
          "time": 188.38372093023256,
          "velocity": 0.3779527559055118
        },
        {
          "duration": 0.32558139534884845,
          "durationTicks": 28,
          "midi": 61,
          "name": "C#4",
          "ticks": 16202,
          "time": 188.3953488372093,
          "velocity": 0.2125984251968504
        },
        {
          "duration": 0.5232558139534831,
          "durationTicks": 45,
          "midi": 54,
          "name": "F#3",
          "ticks": 16203,
          "time": 188.40697674418604,
          "velocity": 0.2992125984251969
        },
        {
          "duration": 0.13953488372092693,
          "durationTicks": 12,
          "midi": 42,
          "name": "F#2",
          "ticks": 16204,
          "time": 188.41860465116278,
          "velocity": 0.4251968503937008
        },
        {
          "duration": 0.03488372093025305,
          "durationTicks": 3,
          "midi": 43,
          "name": "G2",
          "ticks": 16216,
          "time": 188.5581395348837,
          "velocity": 0.2283464566929134
        },
        {
          "duration": 0.3139534883720785,
          "durationTicks": 27,
          "midi": 42,
          "name": "F#2",
          "ticks": 16219,
          "time": 188.59302325581396,
          "velocity": 0.28346456692913385
        },
        {
          "duration": 0.08139534883721922,
          "durationTicks": 7,
          "midi": 42,
          "name": "F#2",
          "ticks": 16247,
          "time": 188.91860465116278,
          "velocity": 0.2677165354330709
        },
        {
          "duration": 0.30232558139536536,
          "durationTicks": 26,
          "midi": 61,
          "name": "C#4",
          "ticks": 16247,
          "time": 188.91860465116278,
          "velocity": 0.2283464566929134
        },
        {
          "duration": 0.24418604651162923,
          "durationTicks": 21,
          "midi": 42,
          "name": "F#2",
          "ticks": 16257,
          "time": 189.03488372093022,
          "velocity": 0.2047244094488189
        },
        {
          "duration": 0.023255813953483084,
          "durationTicks": 2,
          "midi": 53,
          "name": "F3",
          "ticks": 16273,
          "time": 189.22093023255815,
          "velocity": 0.2283464566929134
        },
        {
          "duration": 0.30232558139533694,
          "durationTicks": 26,
          "midi": 58,
          "name": "A#3",
          "ticks": 16273,
          "time": 189.22093023255815,
          "velocity": 0.23622047244094488
        },
        {
          "duration": 0.034883720930224626,
          "durationTicks": 3,
          "midi": 41,
          "name": "F2",
          "ticks": 16298,
          "time": 189.51162790697674,
          "velocity": 0.3228346456692913
        },
        {
          "duration": 0.30232558139536536,
          "durationTicks": 26,
          "midi": 54,
          "name": "F#3",
          "ticks": 16300,
          "time": 189.53488372093022,
          "velocity": 0.25196850393700787
        },
        {
          "duration": 0.12790697674418539,
          "durationTicks": 11,
          "midi": 42,
          "name": "F#2",
          "ticks": 16301,
          "time": 189.54651162790697,
          "velocity": 0.3779527559055118
        },
        {
          "duration": 0.09302325581396076,
          "durationTicks": 8,
          "midi": 58,
          "name": "A#3",
          "ticks": 16302,
          "time": 189.5581395348837,
          "velocity": 0.18110236220472442
        },
        {
          "duration": 0.03488372093025305,
          "durationTicks": 3,
          "midi": 43,
          "name": "G2",
          "ticks": 16312,
          "time": 189.67441860465115,
          "velocity": 0.16535433070866143
        },
        {
          "duration": 0.11627906976744384,
          "durationTicks": 10,
          "midi": 42,
          "name": "F#2",
          "ticks": 16315,
          "time": 189.7093023255814,
          "velocity": 0.25196850393700787
        },
        {
          "duration": 0.3604651162790731,
          "durationTicks": 31,
          "midi": 58,
          "name": "A#3",
          "ticks": 16315,
          "time": 189.7093023255814,
          "velocity": 0.1732283464566929
        },
        {
          "duration": 0.04651162790696617,
          "durationTicks": 4,
          "midi": 49,
          "name": "C#3",
          "ticks": 16325,
          "time": 189.82558139534885,
          "velocity": 0.14960629921259844
        },
        {
          "duration": 0.19767441860466306,
          "durationTicks": 17,
          "midi": 42,
          "name": "F#2",
          "ticks": 16329,
          "time": 189.87209302325581,
          "velocity": 0.1889763779527559
        },
        {
          "duration": 0.30232558139533694,
          "durationTicks": 26,
          "midi": 61,
          "name": "C#4",
          "ticks": 16347,
          "time": 190.08139534883722,
          "velocity": 0.2677165354330709
        },
        {
          "duration": 0.12790697674418539,
          "durationTicks": 11,
          "midi": 42,
          "name": "F#2",
          "ticks": 16348,
          "time": 190.09302325581396,
          "velocity": 0.1889763779527559
        },
        {
          "duration": 0.023255813953483084,
          "durationTicks": 2,
          "midi": 51,
          "name": "D#3",
          "ticks": 16351,
          "time": 190.12790697674419,
          "velocity": 0.25984251968503935
        },
        {
          "duration": 0.023255813953483084,
          "durationTicks": 2,
          "midi": 54,
          "name": "F#3",
          "ticks": 16351,
          "time": 190.12790697674419,
          "velocity": 0.25984251968503935
        },
        {
          "duration": 0.023255813953483084,
          "durationTicks": 2,
          "midi": 53,
          "name": "F3",
          "ticks": 16353,
          "time": 190.15116279069767,
          "velocity": 0.29133858267716534
        },
        {
          "duration": 0.18604651162792152,
          "durationTicks": 16,
          "midi": 54,
          "name": "F#3",
          "ticks": 16355,
          "time": 190.17441860465115,
          "velocity": 0.23622047244094488
        },
        {
          "duration": 0.09302325581396076,
          "durationTicks": 8,
          "midi": 42,
          "name": "F#2",
          "ticks": 16366,
          "time": 190.30232558139534,
          "velocity": 0.09448818897637795
        },
        {
          "duration": 0.023255813953483084,
          "durationTicks": 2,
          "midi": 51,
          "name": "D#3",
          "ticks": 16371,
          "time": 190.36046511627907,
          "velocity": 0.2677165354330709
        },
        {
          "duration": 0.11627906976744384,
          "durationTicks": 10,
          "midi": 58,
          "name": "A#3",
          "ticks": 16373,
          "time": 190.38372093023256,
          "velocity": 0.29133858267716534
        },
        {
          "duration": 0.2093023255814046,
          "durationTicks": 18,
          "midi": 66,
          "name": "F#4",
          "ticks": 16374,
          "time": 190.3953488372093,
          "velocity": 0.07874015748031496
        },
        {
          "duration": 0.2093023255814046,
          "durationTicks": 18,
          "midi": 54,
          "name": "F#3",
          "ticks": 16375,
          "time": 190.40697674418604,
          "velocity": 0.3543307086614173
        },
        {
          "duration": 0.09302325581396076,
          "durationTicks": 8,
          "midi": 58,
          "name": "A#3",
          "ticks": 16388,
          "time": 190.5581395348837,
          "velocity": 0.2755905511811024
        },
        {
          "duration": 0.023255813953483084,
          "durationTicks": 2,
          "midi": 53,
          "name": "F3",
          "ticks": 16393,
          "time": 190.61627906976744,
          "velocity": 0.2677165354330709
        },
        {
          "duration": 0.023255813953483084,
          "durationTicks": 2,
          "midi": 53,
          "name": "F3",
          "ticks": 16397,
          "time": 190.6627906976744,
          "velocity": 0.3700787401574803
        },
        {
          "duration": 0.023255813953511506,
          "durationTicks": 2,
          "midi": 41,
          "name": "F2",
          "ticks": 16398,
          "time": 190.67441860465115,
          "velocity": 0.36220472440944884
        },
        {
          "duration": 0.05813953488373613,
          "durationTicks": 5,
          "midi": 54,
          "name": "F#3",
          "ticks": 16399,
          "time": 190.6860465116279,
          "velocity": 0.2992125984251969
        },
        {
          "duration": 0.7558139534883992,
          "durationTicks": 65,
          "midi": 58,
          "name": "A#3",
          "ticks": 16399,
          "time": 190.6860465116279,
          "velocity": 0.33070866141732286
        },
        {
          "duration": 0.13953488372092693,
          "durationTicks": 12,
          "midi": 42,
          "name": "F#2",
          "ticks": 16400,
          "time": 190.69767441860466,
          "velocity": 0.4094488188976378
        },
        {
          "duration": 0.034883720930224626,
          "durationTicks": 3,
          "midi": 43,
          "name": "G2",
          "ticks": 16412,
          "time": 190.8372093023256,
          "velocity": 0.1889763779527559
        },
        {
          "duration": 0.06976744186047767,
          "durationTicks": 6,
          "midi": 42,
          "name": "F#2",
          "ticks": 16415,
          "time": 190.87209302325581,
          "velocity": 0.2755905511811024
        },
        {
          "duration": 0.04651162790696617,
          "durationTicks": 4,
          "midi": 49,
          "name": "C#3",
          "ticks": 16423,
          "time": 190.96511627906978,
          "velocity": 0.1968503937007874
        },
        {
          "duration": 0.2325581395348877,
          "durationTicks": 20,
          "midi": 42,
          "name": "F#2",
          "ticks": 16424,
          "time": 190.97674418604652,
          "velocity": 0.1968503937007874
        },
        {
          "duration": 0.034883720930224626,
          "durationTicks": 3,
          "midi": 49,
          "name": "C#3",
          "ticks": 16436,
          "time": 191.11627906976744,
          "velocity": 0.14173228346456693
        },
        {
          "duration": 0.06976744186047767,
          "durationTicks": 6,
          "midi": 49,
          "name": "C#3",
          "ticks": 16440,
          "time": 191.1627906976744,
          "velocity": 0.2125984251968504
        },
        {
          "duration": 0.023255813953483084,
          "durationTicks": 2,
          "midi": 50,
          "name": "D3",
          "ticks": 16446,
          "time": 191.2325581395349,
          "velocity": 0.25984251968503935
        },
        {
          "duration": 0.15116279069766847,
          "durationTicks": 13,
          "midi": 61,
          "name": "C#4",
          "ticks": 16446,
          "time": 191.2325581395349,
          "velocity": 0.25196850393700787
        },
        {
          "duration": 0.04651162790699459,
          "durationTicks": 4,
          "midi": 42,
          "name": "F#2",
          "ticks": 16450,
          "time": 191.27906976744185,
          "velocity": 0.14960629921259844
        },
        {
          "duration": 0.06976744186047767,
          "durationTicks": 6,
          "midi": 49,
          "name": "C#3",
          "ticks": 16451,
          "time": 191.2906976744186,
          "velocity": 0.14173228346456693
        },
        {
          "duration": 0.11627906976744384,
          "durationTicks": 10,
          "midi": 49,
          "name": "C#3",
          "ticks": 16458,
          "time": 191.37209302325581,
          "velocity": 0.11811023622047244
        },
        {
          "duration": 0.11627906976744384,
          "durationTicks": 10,
          "midi": 42,
          "name": "F#2",
          "ticks": 16459,
          "time": 191.38372093023256,
          "velocity": 0.07086614173228346
        },
        {
          "duration": 0.03488372093025305,
          "durationTicks": 3,
          "midi": 54,
          "name": "F#3",
          "ticks": 16461,
          "time": 191.40697674418604,
          "velocity": 0.09448818897637795
        },
        {
          "duration": 0.05813953488370771,
          "durationTicks": 5,
          "midi": 54,
          "name": "F#3",
          "ticks": 16465,
          "time": 191.45348837209303,
          "velocity": 0.07874015748031496
        },
        {
          "duration": 0.2674418604651123,
          "durationTicks": 23,
          "midi": 61,
          "name": "C#4",
          "ticks": 16470,
          "time": 191.51162790697674,
          "velocity": 0.3543307086614173
        },
        {
          "duration": 0.023255813953511506,
          "durationTicks": 2,
          "midi": 52,
          "name": "E3",
          "ticks": 16473,
          "time": 191.54651162790697,
          "velocity": 0.2440944881889764
        },
        {
          "duration": 0.06976744186047767,
          "durationTicks": 6,
          "midi": 42,
          "name": "F#2",
          "ticks": 16480,
          "time": 191.62790697674419,
          "velocity": 0.09448818897637795
        },
        {
          "duration": 0.03488372093025305,
          "durationTicks": 3,
          "midi": 58,
          "name": "A#3",
          "ticks": 16484,
          "time": 191.67441860465115,
          "velocity": 0.18110236220472442
        },
        {
          "duration": 0.03488372093025305,
          "durationTicks": 3,
          "midi": 53,
          "name": "F3",
          "ticks": 16485,
          "time": 191.6860465116279,
          "velocity": 0.12598425196850394
        },
        {
          "duration": 0.1511627906976969,
          "durationTicks": 13,
          "midi": 61,
          "name": "C#4",
          "ticks": 16495,
          "time": 191.80232558139534,
          "velocity": 0.33858267716535434
        },
        {
          "duration": 0.034883720930224626,
          "durationTicks": 3,
          "midi": 52,
          "name": "E3",
          "ticks": 16496,
          "time": 191.8139534883721,
          "velocity": 0.1732283464566929
        },
        {
          "duration": 0.11627906976744384,
          "durationTicks": 10,
          "midi": 47,
          "name": "B2",
          "ticks": 16503,
          "time": 191.8953488372093,
          "velocity": 0.25984251968503935
        },
        {
          "duration": 0.04651162790696617,
          "durationTicks": 4,
          "midi": 62,
          "name": "D4",
          "ticks": 16508,
          "time": 191.95348837209303,
          "velocity": 0.31496062992125984
        },
        {
          "duration": 0.3720930232558146,
          "durationTicks": 32,
          "midi": 75,
          "name": "D#5",
          "ticks": 16511,
          "time": 191.98837209302326,
          "velocity": 0.14960629921259844
        },
        {
          "duration": 0.11627906976744384,
          "durationTicks": 10,
          "midi": 47,
          "name": "B2",
          "ticks": 16514,
          "time": 192.02325581395348,
          "velocity": 0.2440944881889764
        },
        {
          "duration": 0.034883720930224626,
          "durationTicks": 3,
          "midi": 53,
          "name": "F3",
          "ticks": 16523,
          "time": 192.12790697674419,
          "velocity": 0.25196850393700787
        },
        {
          "duration": 0.27906976744185386,
          "durationTicks": 24,
          "midi": 47,
          "name": "B2",
          "ticks": 16525,
          "time": 192.15116279069767,
          "velocity": 0.23622047244094488
        },
        {
          "duration": 0.23255813953485927,
          "durationTicks": 20,
          "midi": 54,
          "name": "F#3",
          "ticks": 16529,
          "time": 192.19767441860466,
          "velocity": 0.15748031496062992
        },
        {
          "duration": 0.12790697674418539,
          "durationTicks": 11,
          "midi": 75,
          "name": "D#5",
          "ticks": 16548,
          "time": 192.41860465116278,
          "velocity": 0.1968503937007874
        },
        {
          "duration": 0.08139534883721922,
          "durationTicks": 7,
          "midi": 63,
          "name": "D#4",
          "ticks": 16549,
          "time": 192.43023255813952,
          "velocity": 0.23622047244094488
        },
        {
          "duration": 0.27906976744185386,
          "durationTicks": 24,
          "midi": 47,
          "name": "B2",
          "ticks": 16550,
          "time": 192.4418604651163,
          "velocity": 0.2440944881889764
        },
        {
          "duration": 0.19767441860463464,
          "durationTicks": 17,
          "midi": 54,
          "name": "F#3",
          "ticks": 16554,
          "time": 192.48837209302326,
          "velocity": 0.10236220472440945
        },
        {
          "duration": 0.06976744186047767,
          "durationTicks": 6,
          "midi": 82,
          "name": "A#5",
          "ticks": 16556,
          "time": 192.51162790697674,
          "velocity": 0.07086614173228346
        },
        {
          "duration": 0.04651162790696617,
          "durationTicks": 4,
          "midi": 59,
          "name": "B3",
          "ticks": 16573,
          "time": 192.7093023255814,
          "velocity": 0.3700787401574803
        },
        {
          "duration": 0.034883720930224626,
          "durationTicks": 3,
          "midi": 53,
          "name": "F3",
          "ticks": 16574,
          "time": 192.72093023255815,
          "velocity": 0.25984251968503935
        },
        {
          "duration": 0.2906976744185954,
          "durationTicks": 25,
          "midi": 73,
          "name": "C#5",
          "ticks": 16575,
          "time": 192.7325581395349,
          "velocity": 0.14960629921259844
        },
        {
          "duration": 0.04651162790699459,
          "durationTicks": 4,
          "midi": 58,
          "name": "A#3",
          "ticks": 16578,
          "time": 192.7674418604651,
          "velocity": 0.28346456692913385
        },
        {
          "duration": 0.023255813953483084,
          "durationTicks": 2,
          "midi": 61,
          "name": "C#4",
          "ticks": 16578,
          "time": 192.7674418604651,
          "velocity": 0.25984251968503935
        },
        {
          "duration": 0.45348837209303383,
          "durationTicks": 39,
          "midi": 61,
          "name": "C#4",
          "ticks": 16581,
          "time": 192.80232558139534,
          "velocity": 0.2440944881889764
        },
        {
          "duration": 0.04651162790696617,
          "durationTicks": 4,
          "midi": 41,
          "name": "F2",
          "ticks": 16596,
          "time": 192.97674418604652,
          "velocity": 0.3700787401574803
        },
        {
          "duration": 0.4767441860465169,
          "durationTicks": 41,
          "midi": 54,
          "name": "F#3",
          "ticks": 16599,
          "time": 193.01162790697674,
          "velocity": 0.2677165354330709
        },
        {
          "duration": 0.12790697674418539,
          "durationTicks": 11,
          "midi": 42,
          "name": "F#2",
          "ticks": 16600,
          "time": 193.02325581395348,
          "velocity": 0.4015748031496063
        },
        {
          "duration": 0.034883720930224626,
          "durationTicks": 3,
          "midi": 43,
          "name": "G2",
          "ticks": 16611,
          "time": 193.15116279069767,
          "velocity": 0.1968503937007874
        },
        {
          "duration": 0.09302325581396076,
          "durationTicks": 8,
          "midi": 42,
          "name": "F#2",
          "ticks": 16614,
          "time": 193.1860465116279,
          "velocity": 0.28346456692913385
        },
        {
          "duration": 0.08139534883721922,
          "durationTicks": 7,
          "midi": 42,
          "name": "F#2",
          "ticks": 16623,
          "time": 193.2906976744186,
          "velocity": 0.25196850393700787
        },
        {
          "duration": 0.15116279069766847,
          "durationTicks": 13,
          "midi": 42,
          "name": "F#2",
          "ticks": 16631,
          "time": 193.38372093023256,
          "velocity": 0.18110236220472442
        },
        {
          "duration": 0.3139534883721069,
          "durationTicks": 27,
          "midi": 61,
          "name": "C#4",
          "ticks": 16644,
          "time": 193.53488372093022,
          "velocity": 0.2440944881889764
        },
        {
          "duration": 0.13953488372092693,
          "durationTicks": 12,
          "midi": 42,
          "name": "F#2",
          "ticks": 16650,
          "time": 193.6046511627907,
          "velocity": 0.1732283464566929
        },
        {
          "duration": 0.11627906976744384,
          "durationTicks": 10,
          "midi": 42,
          "name": "F#2",
          "ticks": 16667,
          "time": 193.80232558139534,
          "velocity": 0.13385826771653545
        },
        {
          "duration": 0.82558139534882,
          "durationTicks": 71,
          "midi": 58,
          "name": "A#3",
          "ticks": 16671,
          "time": 193.84883720930233,
          "velocity": 0.2992125984251969
        },
        {
          "duration": 0.023255813953483084,
          "durationTicks": 2,
          "midi": 41,
          "name": "F2",
          "ticks": 16696,
          "time": 194.13953488372093,
          "velocity": 0.3543307086614173
        },
        {
          "duration": 0.12790697674418539,
          "durationTicks": 11,
          "midi": 42,
          "name": "F#2",
          "ticks": 16698,
          "time": 194.1627906976744,
          "velocity": 0.3779527559055118
        },
        {
          "duration": 0.03488372093025305,
          "durationTicks": 3,
          "midi": 43,
          "name": "G2",
          "ticks": 16709,
          "time": 194.2906976744186,
          "velocity": 0.16535433070866143
        },
        {
          "duration": 0.15116279069766847,
          "durationTicks": 13,
          "midi": 42,
          "name": "F#2",
          "ticks": 16712,
          "time": 194.32558139534885,
          "velocity": 0.2755905511811024
        },
        {
          "duration": 0.11627906976744384,
          "durationTicks": 10,
          "midi": 42,
          "name": "F#2",
          "ticks": 16727,
          "time": 194.5,
          "velocity": 0.1889763779527559
        },
        {
          "duration": 0.04651162790696617,
          "durationTicks": 4,
          "midi": 42,
          "name": "F#2",
          "ticks": 16738,
          "time": 194.62790697674419,
          "velocity": 0.13385826771653545
        },
        {
          "duration": 0.08139534883721922,
          "durationTicks": 7,
          "midi": 42,
          "name": "F#2",
          "ticks": 16743,
          "time": 194.6860465116279,
          "velocity": 0.15748031496062992
        },
        {
          "duration": 0.3139534883721069,
          "durationTicks": 27,
          "midi": 61,
          "name": "C#4",
          "ticks": 16743,
          "time": 194.6860465116279,
          "velocity": 0.28346456692913385
        },
        {
          "duration": 0.023255813953483084,
          "durationTicks": 2,
          "midi": 53,
          "name": "F3",
          "ticks": 16744,
          "time": 194.69767441860466,
          "velocity": 0.3779527559055118
        },
        {
          "duration": 0.023255813953483084,
          "durationTicks": 2,
          "midi": 54,
          "name": "F#3",
          "ticks": 16746,
          "time": 194.72093023255815,
          "velocity": 0.2992125984251969
        },
        {
          "duration": 0.18604651162792152,
          "durationTicks": 16,
          "midi": 54,
          "name": "F#3",
          "ticks": 16749,
          "time": 194.75581395348837,
          "velocity": 0.2992125984251969
        },
        {
          "duration": 0.03488372093025305,
          "durationTicks": 3,
          "midi": 42,
          "name": "F#2",
          "ticks": 16751,
          "time": 194.77906976744185,
          "velocity": 0.11023622047244094
        },
        {
          "duration": 0.04651162790696617,
          "durationTicks": 4,
          "midi": 58,
          "name": "A#3",
          "ticks": 16758,
          "time": 194.86046511627907,
          "velocity": 0.16535433070866143
        },
        {
          "duration": 0.1046511627907023,
          "durationTicks": 9,
          "midi": 42,
          "name": "F#2",
          "ticks": 16760,
          "time": 194.88372093023256,
          "velocity": 0.11023622047244094
        },
        {
          "duration": 0.023255813953483084,
          "durationTicks": 2,
          "midi": 50,
          "name": "D3",
          "ticks": 16769,
          "time": 194.98837209302326,
          "velocity": 0.3464566929133858
        },
        {
          "duration": 0.25581395348837077,
          "durationTicks": 22,
          "midi": 66,
          "name": "F#4",
          "ticks": 16771,
          "time": 195.01162790697674,
          "velocity": 0.07086614173228346
        },
        {
          "duration": 0.25581395348837077,
          "durationTicks": 22,
          "midi": 58,
          "name": "A#3",
          "ticks": 16772,
          "time": 195.02325581395348,
          "velocity": 0.3464566929133858
        },
        {
          "duration": 0.03488372093025305,
          "durationTicks": 3,
          "midi": 42,
          "name": "F#2",
          "ticks": 16773,
          "time": 195.03488372093022,
          "velocity": 0.16535433070866143
        },
        {
          "duration": 0.023255813953511506,
          "durationTicks": 2,
          "midi": 53,
          "name": "F3",
          "ticks": 16774,
          "time": 195.04651162790697,
          "velocity": 0.3543307086614173
        },
        {
          "duration": 0.023255813953483084,
          "durationTicks": 2,
          "midi": 54,
          "name": "F#3",
          "ticks": 16778,
          "time": 195.09302325581396,
          "velocity": 0.28346456692913385
        },
        {
          "duration": 0.05813953488373613,
          "durationTicks": 5,
          "midi": 54,
          "name": "F#3",
          "ticks": 16783,
          "time": 195.15116279069767,
          "velocity": 0.31496062992125984
        },
        {
          "duration": 0.09302325581396076,
          "durationTicks": 8,
          "midi": 54,
          "name": "F#3",
          "ticks": 16789,
          "time": 195.22093023255815,
          "velocity": 0.2992125984251969
        },
        {
          "duration": 0.023255813953483084,
          "durationTicks": 2,
          "midi": 53,
          "name": "F3",
          "ticks": 16797,
          "time": 195.3139534883721,
          "velocity": 0.30708661417322836
        },
        {
          "duration": 0.11627906976741542,
          "durationTicks": 10,
          "midi": 61,
          "name": "C#4",
          "ticks": 16797,
          "time": 195.3139534883721,
          "velocity": 0.33070866141732286
        },
        {
          "duration": 0.05813953488370771,
          "durationTicks": 5,
          "midi": 47,
          "name": "B2",
          "ticks": 16799,
          "time": 195.3372093023256,
          "velocity": 0.1968503937007874
        },
        {
          "duration": 0.04651162790699459,
          "durationTicks": 4,
          "midi": 62,
          "name": "D4",
          "ticks": 16807,
          "time": 195.43023255813952,
          "velocity": 0.29133858267716534
        },
        {
          "duration": 0.38372093023255616,
          "durationTicks": 33,
          "midi": 47,
          "name": "B2",
          "ticks": 16810,
          "time": 195.46511627906978,
          "velocity": 0.2047244094488189
        },
        {
          "duration": 0.3604651162790731,
          "durationTicks": 31,
          "midi": 75,
          "name": "D#5",
          "ticks": 16810,
          "time": 195.46511627906978,
          "velocity": 0.12598425196850394
        },
        {
          "duration": 0.2093023255814046,
          "durationTicks": 18,
          "midi": 75,
          "name": "D#5",
          "ticks": 16844,
          "time": 195.86046511627907,
          "velocity": 0.1968503937007874
        },
        {
          "duration": 0.05813953488370771,
          "durationTicks": 5,
          "midi": 47,
          "name": "B2",
          "ticks": 16862,
          "time": 196.06976744186048,
          "velocity": 0.14960629921259844
        },
        {
          "duration": 0.8837209302325562,
          "durationTicks": 76,
          "midi": 59,
          "name": "B3",
          "ticks": 16869,
          "time": 196.15116279069767,
          "velocity": 0.2677165354330709
        },
        {
          "duration": 0.09302325581396076,
          "durationTicks": 8,
          "midi": 47,
          "name": "B2",
          "ticks": 16872,
          "time": 196.1860465116279,
          "velocity": 0.1968503937007874
        },
        {
          "duration": 0.03488372093025305,
          "durationTicks": 3,
          "midi": 53,
          "name": "F3",
          "ticks": 16872,
          "time": 196.1860465116279,
          "velocity": 0.15748031496062992
        },
        {
          "duration": 0.5,
          "durationTicks": 43,
          "midi": 75,
          "name": "D#5",
          "ticks": 16873,
          "time": 196.19767441860466,
          "velocity": 0.18110236220472442
        },
        {
          "duration": 0.15116279069766847,
          "durationTicks": 13,
          "midi": 94,
          "name": "A#6",
          "ticks": 16875,
          "time": 196.22093023255815,
          "velocity": 0.07086614173228346
        },
        {
          "duration": 0.023255813953511506,
          "durationTicks": 2,
          "midi": 45,
          "name": "A2",
          "ticks": 16893,
          "time": 196.43023255813952,
          "velocity": 0.25196850393700787
        },
        {
          "duration": 0.5232558139534831,
          "durationTicks": 45,
          "midi": 47,
          "name": "B2",
          "ticks": 16895,
          "time": 196.45348837209303,
          "velocity": 0.23622047244094488
        },
        {
          "duration": 0.04651162790696617,
          "durationTicks": 4,
          "midi": 63,
          "name": "D#4",
          "ticks": 16941,
          "time": 196.98837209302326,
          "velocity": 0.15748031496062992
        },
        {
          "duration": 0.17441860465115155,
          "durationTicks": 15,
          "midi": 47,
          "name": "B2",
          "ticks": 16943,
          "time": 197.01162790697674,
          "velocity": 0.1732283464566929
        },
        {
          "duration": 0.2093023255814046,
          "durationTicks": 18,
          "midi": 75,
          "name": "D#5",
          "ticks": 16945,
          "time": 197.03488372093022,
          "velocity": 0.14173228346456693
        },
        {
          "duration": 0.10465116279067388,
          "durationTicks": 9,
          "midi": 47,
          "name": "B2",
          "ticks": 16959,
          "time": 197.19767441860466,
          "velocity": 0.2204724409448819
        },
        {
          "duration": 0.023255813953511506,
          "durationTicks": 2,
          "midi": 58,
          "name": "A#3",
          "ticks": 16967,
          "time": 197.2906976744186,
          "velocity": 0.33070866141732286
        },
        {
          "duration": 1.0697674418604493,
          "durationTicks": 92,
          "midi": 59,
          "name": "B3",
          "ticks": 16969,
          "time": 197.3139534883721,
          "velocity": 0.3464566929133858
        },
        {
          "duration": 0.23255813953485927,
          "durationTicks": 20,
          "midi": 77,
          "name": "F5",
          "ticks": 16970,
          "time": 197.32558139534885,
          "velocity": 0.2125984251968504
        },
        {
          "duration": 0.23255813953485927,
          "durationTicks": 20,
          "midi": 84,
          "name": "C6",
          "ticks": 16970,
          "time": 197.32558139534885,
          "velocity": 0.16535433070866143
        },
        {
          "duration": 0.11627906976744384,
          "durationTicks": 10,
          "midi": 47,
          "name": "B2",
          "ticks": 16971,
          "time": 197.3372093023256,
          "velocity": 0.11811023622047244
        },
        {
          "duration": 0.11627906976744384,
          "durationTicks": 10,
          "midi": 77,
          "name": "F5",
          "ticks": 16994,
          "time": 197.6046511627907,
          "velocity": 0.2755905511811024
        },
        {
          "duration": 0.11627906976744384,
          "durationTicks": 10,
          "midi": 84,
          "name": "C6",
          "ticks": 16994,
          "time": 197.6046511627907,
          "velocity": 0.2125984251968504
        },
        {
          "duration": 0.05813953488373613,
          "durationTicks": 5,
          "midi": 47,
          "name": "B2",
          "ticks": 16997,
          "time": 197.63953488372093,
          "velocity": 0.2047244094488189
        },
        {
          "duration": 0.04651162790696617,
          "durationTicks": 4,
          "midi": 47,
          "name": "B2",
          "ticks": 17003,
          "time": 197.7093023255814,
          "velocity": 0.1889763779527559
        },
        {
          "duration": 0.4534883720930054,
          "durationTicks": 39,
          "midi": 66,
          "name": "F#4",
          "ticks": 17004,
          "time": 197.72093023255815,
          "velocity": 0.08661417322834646
        },
        {
          "duration": 0.3953488372092977,
          "durationTicks": 34,
          "midi": 47,
          "name": "B2",
          "ticks": 17008,
          "time": 197.7674418604651,
          "velocity": 0.1968503937007874
        },
        {
          "duration": 0.2093023255814046,
          "durationTicks": 18,
          "midi": 66,
          "name": "F#4",
          "ticks": 17048,
          "time": 198.2325581395349,
          "velocity": 0.15748031496062992
        },
        {
          "duration": 0.22093023255814614,
          "durationTicks": 19,
          "midi": 85,
          "name": "C#6",
          "ticks": 17048,
          "time": 198.2325581395349,
          "velocity": 0.1889763779527559
        },
        {
          "duration": 0.04651162790696617,
          "durationTicks": 4,
          "midi": 47,
          "name": "B2",
          "ticks": 17049,
          "time": 198.24418604651163,
          "velocity": 0.14173228346456693
        },
        {
          "duration": 0.12790697674418539,
          "durationTicks": 11,
          "midi": 47,
          "name": "B2",
          "ticks": 17057,
          "time": 198.3372093023256,
          "velocity": 0.2047244094488189
        },
        {
          "duration": 0.06976744186044925,
          "durationTicks": 6,
          "midi": 52,
          "name": "E3",
          "ticks": 17069,
          "time": 198.47674418604652,
          "velocity": 0.2204724409448819
        },
        {
          "duration": 1.0581395348837077,
          "durationTicks": 91,
          "midi": 59,
          "name": "B3",
          "ticks": 17069,
          "time": 198.47674418604652,
          "velocity": 0.25196850393700787
        },
        {
          "duration": 0.22093023255814614,
          "durationTicks": 19,
          "midi": 66,
          "name": "F#4",
          "ticks": 17069,
          "time": 198.47674418604652,
          "velocity": 0.15748031496062992
        },
        {
          "duration": 0.17441860465115155,
          "durationTicks": 15,
          "midi": 78,
          "name": "F#5",
          "ticks": 17069,
          "time": 198.47674418604652,
          "velocity": 0.15748031496062992
        },
        {
          "duration": 0.22093023255814614,
          "durationTicks": 19,
          "midi": 85,
          "name": "C#6",
          "ticks": 17069,
          "time": 198.47674418604652,
          "velocity": 0.15748031496062992
        },
        {
          "duration": 0.15116279069766847,
          "durationTicks": 13,
          "midi": 65,
          "name": "F4",
          "ticks": 17094,
          "time": 198.7674418604651,
          "velocity": 0.07086614173228346
        },
        {
          "duration": 0.2325581395348877,
          "durationTicks": 20,
          "midi": 77,
          "name": "F5",
          "ticks": 17094,
          "time": 198.7674418604651,
          "velocity": 0.29133858267716534
        },
        {
          "duration": 0.25581395348837077,
          "durationTicks": 22,
          "midi": 84,
          "name": "C6",
          "ticks": 17094,
          "time": 198.7674418604651,
          "velocity": 0.2047244094488189
        },
        {
          "duration": 0.2441860465116008,
          "durationTicks": 21,
          "midi": 47,
          "name": "B2",
          "ticks": 17098,
          "time": 198.8139534883721,
          "velocity": 0.2283464566929134
        },
        {
          "duration": 0.25581395348837077,
          "durationTicks": 22,
          "midi": 54,
          "name": "F#3",
          "ticks": 17120,
          "time": 199.06976744186048,
          "velocity": 0.18110236220472442
        },
        {
          "duration": 0.4534883720930054,
          "durationTicks": 39,
          "midi": 75,
          "name": "D#5",
          "ticks": 17120,
          "time": 199.06976744186048,
          "velocity": 0.18110236220472442
        },
        {
          "duration": 0.2325581395348877,
          "durationTicks": 20,
          "midi": 47,
          "name": "B2",
          "ticks": 17122,
          "time": 199.09302325581396,
          "velocity": 0.18110236220472442
        },
        {
          "duration": 0.15116279069766847,
          "durationTicks": 13,
          "midi": 54,
          "name": "F#3",
          "ticks": 17153,
          "time": 199.45348837209303,
          "velocity": 0.07874015748031496
        },
        {
          "duration": 0.05813953488373613,
          "durationTicks": 5,
          "midi": 47,
          "name": "B2",
          "ticks": 17161,
          "time": 199.54651162790697,
          "velocity": 0.11023622047244094
        },
        {
          "duration": 0.023255813953483084,
          "durationTicks": 2,
          "midi": 53,
          "name": "F3",
          "ticks": 17167,
          "time": 199.61627906976744,
          "velocity": 0.2992125984251969
        },
        {
          "duration": 0.3139534883720785,
          "durationTicks": 27,
          "midi": 61,
          "name": "C#4",
          "ticks": 17167,
          "time": 199.61627906976744,
          "velocity": 0.3464566929133858
        },
        {
          "duration": 0.034883720930224626,
          "durationTicks": 3,
          "midi": 52,
          "name": "E3",
          "ticks": 17169,
          "time": 199.63953488372093,
          "velocity": 0.18110236220472442
        },
        {
          "duration": 0.034883720930224626,
          "durationTicks": 3,
          "midi": 41,
          "name": "F2",
          "ticks": 17170,
          "time": 199.65116279069767,
          "velocity": 0.14960629921259844
        },
        {
          "duration": 0.04651162790699459,
          "durationTicks": 4,
          "midi": 41,
          "name": "F2",
          "ticks": 17192,
          "time": 199.90697674418604,
          "velocity": 0.3543307086614173
        },
        {
          "duration": 0.4767441860464885,
          "durationTicks": 41,
          "midi": 54,
          "name": "F#3",
          "ticks": 17195,
          "time": 199.9418604651163,
          "velocity": 0.25196850393700787
        },
        {
          "duration": 0.12790697674418539,
          "durationTicks": 11,
          "midi": 42,
          "name": "F#2",
          "ticks": 17196,
          "time": 199.95348837209303,
          "velocity": 0.3858267716535433
        },
        {
          "duration": 0.32558139534884845,
          "durationTicks": 28,
          "midi": 61,
          "name": "C#4",
          "ticks": 17205,
          "time": 200.0581395348837,
          "velocity": 0.12598425196850394
        },
        {
          "duration": 0.034883720930224626,
          "durationTicks": 3,
          "midi": 43,
          "name": "G2",
          "ticks": 17207,
          "time": 200.08139534883722,
          "velocity": 0.14960629921259844
        },
        {
          "duration": 0.17441860465115155,
          "durationTicks": 15,
          "midi": 42,
          "name": "F#2",
          "ticks": 17210,
          "time": 200.11627906976744,
          "velocity": 0.23622047244094488
        },
        {
          "duration": 0.1511627906976969,
          "durationTicks": 13,
          "midi": 42,
          "name": "F#2",
          "ticks": 17226,
          "time": 200.30232558139534,
          "velocity": 0.15748031496062992
        },
        {
          "duration": 0.2906976744185954,
          "durationTicks": 25,
          "midi": 61,
          "name": "C#4",
          "ticks": 17238,
          "time": 200.4418604651163,
          "velocity": 0.2047244094488189
        },
        {
          "duration": 0.13953488372092693,
          "durationTicks": 12,
          "midi": 42,
          "name": "F#2",
          "ticks": 17243,
          "time": 200.5,
          "velocity": 0.09448818897637795
        },
        {
          "duration": 0.034883720930224626,
          "durationTicks": 3,
          "midi": 42,
          "name": "F#2",
          "ticks": 17263,
          "time": 200.7325581395349,
          "velocity": 0.11023622047244094
        },
        {
          "duration": 0.3953488372092977,
          "durationTicks": 34,
          "midi": 58,
          "name": "A#3",
          "ticks": 17264,
          "time": 200.74418604651163,
          "velocity": 0.10236220472440945
        },
        {
          "duration": 0.13953488372092693,
          "durationTicks": 12,
          "midi": 42,
          "name": "F#2",
          "ticks": 17294,
          "time": 201.09302325581396,
          "velocity": 0.2440944881889764
        },
        {
          "duration": 0.2674418604651123,
          "durationTicks": 23,
          "midi": 42,
          "name": "F#2",
          "ticks": 17309,
          "time": 201.2674418604651,
          "velocity": 0.11023622047244094
        },
        {
          "duration": 0.023255813953483084,
          "durationTicks": 2,
          "midi": 45,
          "name": "A2",
          "ticks": 17338,
          "time": 201.6046511627907,
          "velocity": 0.23622047244094488
        },
        {
          "duration": 0.19767441860466306,
          "durationTicks": 17,
          "midi": 75,
          "name": "D#5",
          "ticks": 17342,
          "time": 201.65116279069767,
          "velocity": 0.07874015748031496
        },
        {
          "duration": 0.25581395348837077,
          "durationTicks": 22,
          "midi": 47,
          "name": "B2",
          "ticks": 17343,
          "time": 201.6627906976744,
          "velocity": 0.1889763779527559
        },
        {
          "duration": 0.25581395348837077,
          "durationTicks": 22,
          "midi": 61,
          "name": "C#4",
          "ticks": 17364,
          "time": 201.90697674418604,
          "velocity": 0.2047244094488189
        },
        {
          "duration": 0.05813953488373613,
          "durationTicks": 5,
          "midi": 47,
          "name": "B2",
          "ticks": 17366,
          "time": 201.93023255813952,
          "velocity": 0.14960629921259844
        },
        {
          "duration": 1.2325581395348593,
          "durationTicks": 106,
          "midi": 58,
          "name": "A#3",
          "ticks": 17389,
          "time": 202.19767441860466,
          "velocity": 0.28346456692913385
        },
        {
          "duration": 0.13953488372092693,
          "durationTicks": 12,
          "midi": 42,
          "name": "F#2",
          "ticks": 17394,
          "time": 202.25581395348837,
          "velocity": 0.2440944881889764
        },
        {
          "duration": 0.10465116279067388,
          "durationTicks": 9,
          "midi": 42,
          "name": "F#2",
          "ticks": 17411,
          "time": 202.45348837209303,
          "velocity": 0.09448818897637795
        },
        {
          "duration": 0.12790697674418539,
          "durationTicks": 11,
          "midi": 42,
          "name": "F#2",
          "ticks": 17489,
          "time": 203.36046511627907,
          "velocity": 0.18110236220472442
        },
        {
          "duration": 0.18604651162792152,
          "durationTicks": 16,
          "midi": 58,
          "name": "A#3",
          "ticks": 17517,
          "time": 203.6860465116279,
          "velocity": 0.07086614173228346
        },
        {
          "duration": 0.11627906976744384,
          "durationTicks": 10,
          "midi": 42,
          "name": "F#2",
          "ticks": 17587,
          "time": 204.5,
          "velocity": 0.15748031496062992
        }
      ],
      "endOfTrackTicks": 17597
    }
  ]
}