{
  "header": {
    "keySignatures": [],
    "meta": [],
    "name": "",
    "ppq": 43,
    "tempos": [
      {
        "bpm": 120,
        "ticks": 0
      }
    ],
    "timeSignatures": []
  },
  "tracks": [
    {
      "channel": 0,
      "controlChanges": {},
      "pitchBends": [],
      "instrument": {
        "family": "piano",
        "number": 0,
        "name": "acoustic grand piano"
      },
      "name": "",
      "notes": [
        {
          "duration": 0.03488372093023256,
          "durationTicks": 3,
          "midi": 57,
          "name": "A3",
          "ticks": 0,
          "time": 0,
          "velocity": 0.30708661417322836
        },
        {
          "duration": 0.5697674418604651,
          "durationTicks": 49,
          "midi": 58,
          "name": "A#3",
          "ticks": 3,
          "time": 0.03488372093023256,
          "velocity": 0.25196850393700787
        },
        {
          "duration": 0.2790697674418604,
          "durationTicks": 24,
          "midi": 51,
          "name": "D#3",
          "ticks": 28,
          "time": 0.32558139534883723,
          "velocity": 0.14960629921259844
        },
        {
          "duration": 0.2325581395348837,
          "durationTicks": 20,
          "midi": 51,
          "name": "D#3",
          "ticks": 54,
          "time": 0.627906976744186,
          "velocity": 0.12598425196850394
        },
        {
          "duration": 0.16279069767441867,
          "durationTicks": 14,
          "midi": 58,
          "name": "A#3",
          "ticks": 57,
          "time": 0.6627906976744186,
          "velocity": 0.08661417322834646
        },
        {
          "duration": 0.5348837209302325,
          "durationTicks": 46,
          "midi": 51,
          "name": "D#3",
          "ticks": 80,
          "time": 0.9302325581395349,
          "velocity": 0.1968503937007874
        },
        {
          "duration": 0.7325581395348838,
          "durationTicks": 63,
          "midi": 58,
          "name": "A#3",
          "ticks": 80,
          "time": 0.9302325581395349,
          "velocity": 0.29133858267716534
        },
        {
          "duration": 0.4186046511627908,
          "durationTicks": 36,
          "midi": 62,
          "name": "D4",
          "ticks": 104,
          "time": 1.2093023255813953,
          "velocity": 0.15748031496062992
        },
        {
          "duration": 0.5465116279069768,
          "durationTicks": 47,
          "midi": 51,
          "name": "D#3",
          "ticks": 131,
          "time": 1.5232558139534884,
          "velocity": 0.1968503937007874
        },
        {
          "duration": 0.36046511627906974,
          "durationTicks": 31,
          "midi": 62,
          "name": "D4",
          "ticks": 145,
          "time": 1.686046511627907,
          "velocity": 0.13385826771653545
        },
        {
          "duration": 0.5465116279069768,
          "durationTicks": 47,
          "midi": 51,
          "name": "D#3",
          "ticks": 183,
          "time": 2.127906976744186,
          "velocity": 0.1968503937007874
        },
        {
          "duration": 0.30232558139534893,
          "durationTicks": 26,
          "midi": 51,
          "name": "D#3",
          "ticks": 237,
          "time": 2.755813953488372,
          "velocity": 0.1732283464566929
        },
        {
          "duration": 0.5348837209302326,
          "durationTicks": 46,
          "midi": 58,
          "name": "A#3",
          "ticks": 237,
          "time": 2.755813953488372,
          "velocity": 0.28346456692913385
        },
        {
          "duration": 0.2441860465116279,
          "durationTicks": 21,
          "midi": 51,
          "name": "D#3",
          "ticks": 264,
          "time": 3.0697674418604652,
          "velocity": 0.11811023622047244
        },
        {
          "duration": 0.2906976744186043,
          "durationTicks": 25,
          "midi": 58,
          "name": "A#3",
          "ticks": 290,
          "time": 3.372093023255814,
          "velocity": 0.28346456692913385
        },
        {
          "duration": 0.5232558139534884,
          "durationTicks": 45,
          "midi": 51,
          "name": "D#3",
          "ticks": 291,
          "time": 3.383720930232558,
          "velocity": 0.18110236220472442
        },
        {
          "duration": 0.37209302325581417,
          "durationTicks": 32,
          "midi": 62,
          "name": "D4",
          "ticks": 315,
          "time": 3.6627906976744184,
          "velocity": 0.15748031496062992
        },
        {
          "duration": 0.418604651162791,
          "durationTicks": 36,
          "midi": 58,
          "name": "A#3",
          "ticks": 316,
          "time": 3.6744186046511627,
          "velocity": 0.1968503937007874
        },
        {
          "duration": 0.13953488372093048,
          "durationTicks": 12,
          "midi": 51,
          "name": "D#3",
          "ticks": 340,
          "time": 3.953488372093023,
          "velocity": 0.11811023622047244
        },
        {
          "duration": 0.3488372093023253,
          "durationTicks": 30,
          "midi": 62,
          "name": "D4",
          "ticks": 353,
          "time": 4.104651162790698,
          "velocity": 0.14173228346456693
        },
        {
          "duration": 0.3488372093023253,
          "durationTicks": 30,
          "midi": 51,
          "name": "D#3",
          "ticks": 355,
          "time": 4.127906976744186,
          "velocity": 0.10236220472440945
        },
        {
          "duration": 0.11627906976744207,
          "durationTicks": 10,
          "midi": 58,
          "name": "A#3",
          "ticks": 355,
          "time": 4.127906976744186,
          "velocity": 0.07086614173228346
        },
        {
          "duration": 0.5697674418604652,
          "durationTicks": 49,
          "midi": 51,
          "name": "D#3",
          "ticks": 390,
          "time": 4.534883720930233,
          "velocity": 0.2440944881889764
        },
        {
          "duration": 0.5930232558139537,
          "durationTicks": 51,
          "midi": 58,
          "name": "A#3",
          "ticks": 419,
          "time": 4.872093023255814,
          "velocity": 0.25984251968503935
        },
        {
          "duration": 0.5348837209302326,
          "durationTicks": 46,
          "midi": 51,
          "name": "D#3",
          "ticks": 445,
          "time": 5.174418604651163,
          "velocity": 0.2047244094488189
        },
        {
          "duration": 0.023255813953488413,
          "durationTicks": 2,
          "midi": 57,
          "name": "A3",
          "ticks": 496,
          "time": 5.767441860465116,
          "velocity": 0.2440944881889764
        },
        {
          "duration": 0.5232558139534884,
          "durationTicks": 45,
          "midi": 51,
          "name": "D#3",
          "ticks": 498,
          "time": 5.790697674418604,
          "velocity": 0.1968503937007874
        },
        {
          "duration": 0.29069767441860517,
          "durationTicks": 25,
          "midi": 58,
          "name": "A#3",
          "ticks": 498,
          "time": 5.790697674418604,
          "velocity": 0.18110236220472442
        },
        {
          "duration": 0.3720930232558137,
          "durationTicks": 32,
          "midi": 62,
          "name": "D4",
          "ticks": 523,
          "time": 6.0813953488372094,
          "velocity": 0.16535433070866143
        },
        {
          "duration": 0.3604651162790695,
          "durationTicks": 31,
          "midi": 58,
          "name": "A#3",
          "ticks": 525,
          "time": 6.104651162790698,
          "velocity": 0.14173228346456693
        },
        {
          "duration": 0.1511627906976747,
          "durationTicks": 13,
          "midi": 51,
          "name": "D#3",
          "ticks": 549,
          "time": 6.383720930232558,
          "velocity": 0.13385826771653545
        },
        {
          "duration": 0.3488372093023253,
          "durationTicks": 30,
          "midi": 62,
          "name": "D4",
          "ticks": 562,
          "time": 6.534883720930233,
          "velocity": 0.15748031496062992
        },
        {
          "duration": 0.3488372093023253,
          "durationTicks": 30,
          "midi": 51,
          "name": "D#3",
          "ticks": 563,
          "time": 6.546511627906977,
          "velocity": 0.12598425196850394
        },
        {
          "duration": 0.5116279069767442,
          "durationTicks": 44,
          "midi": 51,
          "name": "D#3",
          "ticks": 601,
          "time": 6.988372093023256,
          "velocity": 0.1968503937007874
        },
        {
          "duration": 0.3023255813953485,
          "durationTicks": 26,
          "midi": 51,
          "name": "D#3",
          "ticks": 650,
          "time": 7.558139534883721,
          "velocity": 0.2677165354330709
        },
        {
          "duration": 0.5813953488372086,
          "durationTicks": 50,
          "midi": 58,
          "name": "A#3",
          "ticks": 651,
          "time": 7.569767441860465,
          "velocity": 0.28346456692913385
        },
        {
          "duration": 0.25581395348837255,
          "durationTicks": 22,
          "midi": 63,
          "name": "D#4",
          "ticks": 676,
          "time": 7.8604651162790695,
          "velocity": 0.09448818897637795
        },
        {
          "duration": 0.23255813953488325,
          "durationTicks": 20,
          "midi": 51,
          "name": "D#3",
          "ticks": 677,
          "time": 7.872093023255814,
          "velocity": 0.15748031496062992
        },
        {
          "duration": 0.23255813953488413,
          "durationTicks": 20,
          "midi": 67,
          "name": "G4",
          "ticks": 702,
          "time": 8.162790697674419,
          "velocity": 0.12598425196850394
        },
        {
          "duration": 0.5232558139534884,
          "durationTicks": 45,
          "midi": 51,
          "name": "D#3",
          "ticks": 703,
          "time": 8.174418604651162,
          "velocity": 0.2125984251968504
        },
        {
          "duration": 0.26744186046511587,
          "durationTicks": 23,
          "midi": 58,
          "name": "A#3",
          "ticks": 704,
          "time": 8.186046511627907,
          "velocity": 0.13385826771653545
        },
        {
          "duration": 0.5348837209302317,
          "durationTicks": 46,
          "midi": 51,
          "name": "D#3",
          "ticks": 753,
          "time": 8.755813953488373,
          "velocity": 0.2204724409448819
        },
        {
          "duration": 0.023255813953488413,
          "durationTicks": 2,
          "midi": 50,
          "name": "D3",
          "ticks": 803,
          "time": 9.337209302325581,
          "velocity": 0.25196850393700787
        },
        {
          "duration": 0.3023255813953494,
          "durationTicks": 26,
          "midi": 51,
          "name": "D#3",
          "ticks": 805,
          "time": 9.36046511627907,
          "velocity": 0.25196850393700787
        },
        {
          "duration": 0.023255813953488413,
          "durationTicks": 2,
          "midi": 57,
          "name": "A3",
          "ticks": 830,
          "time": 9.651162790697674,
          "velocity": 0.2992125984251969
        },
        {
          "duration": 0.23255813953488413,
          "durationTicks": 20,
          "midi": 51,
          "name": "D#3",
          "ticks": 832,
          "time": 9.674418604651162,
          "velocity": 0.1968503937007874
        },
        {
          "duration": 0.31395348837209447,
          "durationTicks": 27,
          "midi": 58,
          "name": "A#3",
          "ticks": 832,
          "time": 9.674418604651162,
          "velocity": 0.25196850393700787
        },
        {
          "duration": 0.2906976744186043,
          "durationTicks": 25,
          "midi": 51,
          "name": "D#3",
          "ticks": 860,
          "time": 10,
          "velocity": 0.1732283464566929
        },
        {
          "duration": 0.2906976744186043,
          "durationTicks": 25,
          "midi": 58,
          "name": "A#3",
          "ticks": 860,
          "time": 10,
          "velocity": 0.1732283464566929
        },
        {
          "duration": 0.3488372093023262,
          "durationTicks": 30,
          "midi": 65,
          "name": "F4",
          "ticks": 864,
          "time": 10.046511627906977,
          "velocity": 0.10236220472440945
        },
        {
          "duration": 0.23255813953488236,
          "durationTicks": 20,
          "midi": 51,
          "name": "D#3",
          "ticks": 886,
          "time": 10.30232558139535,
          "velocity": 0.10236220472440945
        },
        {
          "duration": 0.03488372093023173,
          "durationTicks": 3,
          "midi": 65,
          "name": "F4",
          "ticks": 907,
          "time": 10.546511627906977,
          "velocity": 0.07086614173228346
        },
        {
          "duration": 0.24418604651162745,
          "durationTicks": 21,
          "midi": 63,
          "name": "D#4",
          "ticks": 909,
          "time": 10.569767441860465,
          "velocity": 0.12598425196850394
        },
        {
          "duration": 0.5348837209302317,
          "durationTicks": 46,
          "midi": 51,
          "name": "D#3",
          "ticks": 911,
          "time": 10.593023255813954,
          "velocity": 0.1968503937007874
        },
        {
          "duration": 0.2906976744186043,
          "durationTicks": 25,
          "midi": 58,
          "name": "A#3",
          "ticks": 911,
          "time": 10.593023255813954,
          "velocity": 0.2992125984251969
        },
        {
          "duration": 0.39534883720930303,
          "durationTicks": 34,
          "midi": 62,
          "name": "D4",
          "ticks": 936,
          "time": 10.883720930232558,
          "velocity": 0.1889763779527559
        },
        {
          "duration": 0.5465116279069768,
          "durationTicks": 47,
          "midi": 51,
          "name": "D#3",
          "ticks": 964,
          "time": 11.209302325581396,
          "velocity": 0.1889763779527559
        },
        {
          "duration": 0.03488372093023173,
          "durationTicks": 3,
          "midi": 62,
          "name": "D4",
          "ticks": 980,
          "time": 11.395348837209303,
          "velocity": 0.09448818897637795
        },
        {
          "duration": 0.25581395348837255,
          "durationTicks": 22,
          "midi": 62,
          "name": "D4",
          "ticks": 985,
          "time": 11.453488372093023,
          "velocity": 0.11023622047244094
        },
        {
          "duration": 0.25581395348837255,
          "durationTicks": 22,
          "midi": 63,
          "name": "D#4",
          "ticks": 1016,
          "time": 11.813953488372093,
          "velocity": 0.11023622047244094
        },
        {
          "duration": 0.5232558139534884,
          "durationTicks": 45,
          "midi": 51,
          "name": "D#3",
          "ticks": 1017,
          "time": 11.825581395348838,
          "velocity": 0.2204724409448819
        },
        {
          "duration": 0.023255813953488413,
          "durationTicks": 2,
          "midi": 56,
          "name": "G#3",
          "ticks": 1066,
          "time": 12.395348837209303,
          "velocity": 0.29133858267716534
        },
        {
          "duration": 0.04651162790697683,
          "durationTicks": 4,
          "midi": 45,
          "name": "A2",
          "ticks": 1068,
          "time": 12.418604651162791,
          "velocity": 0.16535433070866143
        },
        {
          "duration": 0.27906976744186096,
          "durationTicks": 24,
          "midi": 58,
          "name": "A#3",
          "ticks": 1069,
          "time": 12.430232558139535,
          "velocity": 0.2047244094488189
        },
        {
          "duration": 0.26744186046511764,
          "durationTicks": 23,
          "midi": 58,
          "name": "A#3",
          "ticks": 1094,
          "time": 12.720930232558139,
          "velocity": 0.18110236220472442
        },
        {
          "duration": 0.20930232558139572,
          "durationTicks": 18,
          "midi": 63,
          "name": "D#4",
          "ticks": 1118,
          "time": 13,
          "velocity": 0.07874015748031496
        },
        {
          "duration": 0.26744186046511764,
          "durationTicks": 23,
          "midi": 51,
          "name": "D#3",
          "ticks": 1119,
          "time": 13.011627906976743,
          "velocity": 0.18110236220472442
        },
        {
          "duration": 0.24418604651162923,
          "durationTicks": 21,
          "midi": 58,
          "name": "A#3",
          "ticks": 1119,
          "time": 13.011627906976743,
          "velocity": 0.08661417322834646
        },
        {
          "duration": 0.25581395348837255,
          "durationTicks": 22,
          "midi": 51,
          "name": "D#3",
          "ticks": 1143,
          "time": 13.290697674418604,
          "velocity": 0.15748031496062992
        },
        {
          "duration": 0.38372093023255793,
          "durationTicks": 33,
          "midi": 62,
          "name": "D4",
          "ticks": 1143,
          "time": 13.290697674418604,
          "velocity": 0.1732283464566929
        },
        {
          "duration": 0.13953488372093048,
          "durationTicks": 12,
          "midi": 51,
          "name": "D#3",
          "ticks": 1170,
          "time": 13.604651162790697,
          "velocity": 0.2047244094488189
        },
        {
          "duration": 0.3488372093023262,
          "durationTicks": 30,
          "midi": 62,
          "name": "D4",
          "ticks": 1182,
          "time": 13.744186046511627,
          "velocity": 0.1968503937007874
        },
        {
          "duration": 0.3604651162790695,
          "durationTicks": 31,
          "midi": 51,
          "name": "D#3",
          "ticks": 1183,
          "time": 13.755813953488373,
          "velocity": 0.18110236220472442
        },
        {
          "duration": 0.5581395348837219,
          "durationTicks": 48,
          "midi": 63,
          "name": "D#4",
          "ticks": 1219,
          "time": 14.174418604651162,
          "velocity": 0.1889763779527559
        },
        {
          "duration": 0.3023255813953494,
          "durationTicks": 26,
          "midi": 51,
          "name": "D#3",
          "ticks": 1220,
          "time": 14.186046511627907,
          "velocity": 0.23622047244094488
        },
        {
          "duration": 0.023255813953488413,
          "durationTicks": 2,
          "midi": 57,
          "name": "A3",
          "ticks": 1245,
          "time": 14.476744186046512,
          "velocity": 0.25984251968503935
        },
        {
          "duration": 0.23255813953488413,
          "durationTicks": 20,
          "midi": 51,
          "name": "D#3",
          "ticks": 1247,
          "time": 14.5,
          "velocity": 0.1732283464566929
        },
        {
          "duration": 0.27906976744186096,
          "durationTicks": 24,
          "midi": 58,
          "name": "A#3",
          "ticks": 1247,
          "time": 14.5,
          "velocity": 0.2047244094488189
        },
        {
          "duration": 0.2906976744186043,
          "durationTicks": 25,
          "midi": 51,
          "name": "D#3",
          "ticks": 1272,
          "time": 14.790697674418604,
          "velocity": 0.1889763779527559
        },
        {
          "duration": 0.3023255813953494,
          "durationTicks": 26,
          "midi": 58,
          "name": "A#3",
          "ticks": 1272,
          "time": 14.790697674418604,
          "velocity": 0.1732283464566929
        },
        {
          "duration": 0.24418604651162745,
          "durationTicks": 21,
          "midi": 51,
          "name": "D#3",
          "ticks": 1298,
          "time": 15.093023255813954,
          "velocity": 0.18110236220472442
        },
        {
          "duration": 0.5465116279069768,
          "durationTicks": 47,
          "midi": 51,
          "name": "D#3",
          "ticks": 1324,
          "time": 15.395348837209303,
          "velocity": 0.2677165354330709
        },
        {
          "duration": 0.720930232558139,
          "durationTicks": 62,
          "midi": 58,
          "name": "A#3",
          "ticks": 1325,
          "time": 15.406976744186046,
          "velocity": 0.25984251968503935
        },
        {
          "duration": 0.38372093023255616,
          "durationTicks": 33,
          "midi": 62,
          "name": "D4",
          "ticks": 1349,
          "time": 15.686046511627907,
          "velocity": 0.1968503937007874
        },
        {
          "duration": 0.12790697674418539,
          "durationTicks": 11,
          "midi": 51,
          "name": "D#3",
          "ticks": 1377,
          "time": 16.011627906976745,
          "velocity": 0.14960629921259844
        },
        {
          "duration": 0.37209302325581106,
          "durationTicks": 32,
          "midi": 62,
          "name": "D4",
          "ticks": 1389,
          "time": 16.151162790697676,
          "velocity": 0.14173228346456693
        },
        {
          "duration": 0.3604651162790695,
          "durationTicks": 31,
          "midi": 51,
          "name": "D#3",
          "ticks": 1391,
          "time": 16.174418604651162,
          "velocity": 0.14173228346456693
        },
        {
          "duration": 0.09302325581395365,
          "durationTicks": 8,
          "midi": 58,
          "name": "A#3",
          "ticks": 1391,
          "time": 16.174418604651162,
          "velocity": 0.08661417322834646
        },
        {
          "duration": 0.5581395348837184,
          "durationTicks": 48,
          "midi": 51,
          "name": "D#3",
          "ticks": 1428,
          "time": 16.6046511627907,
          "velocity": 0.2283464566929134
        },
        {
          "duration": 0.023255813953486637,
          "durationTicks": 2,
          "midi": 48,
          "name": "C3",
          "ticks": 1479,
          "time": 17.197674418604652,
          "velocity": 0.2677165354330709
        },
        {
          "duration": 0.5930232558139537,
          "durationTicks": 51,
          "midi": 58,
          "name": "A#3",
          "ticks": 1481,
          "time": 17.22093023255814,
          "velocity": 0.2992125984251969
        },
        {
          "duration": 0.5465116279069768,
          "durationTicks": 47,
          "midi": 51,
          "name": "D#3",
          "ticks": 1482,
          "time": 17.232558139534884,
          "velocity": 0.2204724409448819
        },
        {
          "duration": 0.02325581395349019,
          "durationTicks": 2,
          "midi": 48,
          "name": "C3",
          "ticks": 1532,
          "time": 17.813953488372093,
          "velocity": 0.2283464566929134
        },
        {
          "duration": 0.2790697674418574,
          "durationTicks": 24,
          "midi": 58,
          "name": "A#3",
          "ticks": 1534,
          "time": 17.837209302325583,
          "velocity": 0.12598425196850394
        },
        {
          "duration": 0.22093023255813904,
          "durationTicks": 19,
          "midi": 67,
          "name": "G4",
          "ticks": 1534,
          "time": 17.837209302325583,
          "velocity": 0.10236220472440945
        },
        {
          "duration": 0.5232558139534902,
          "durationTicks": 45,
          "midi": 51,
          "name": "D#3",
          "ticks": 1535,
          "time": 17.848837209302324,
          "velocity": 0.2440944881889764
        },
        {
          "duration": 0.13953488372092693,
          "durationTicks": 12,
          "midi": 51,
          "name": "D#3",
          "ticks": 1585,
          "time": 18.430232558139537,
          "velocity": 0.2440944881889764
        },
        {
          "duration": 0.02325581395349019,
          "durationTicks": 2,
          "midi": 52,
          "name": "E3",
          "ticks": 1597,
          "time": 18.569767441860463,
          "velocity": 0.2440944881889764
        },
        {
          "duration": 0.3372093023255829,
          "durationTicks": 29,
          "midi": 51,
          "name": "D#3",
          "ticks": 1599,
          "time": 18.593023255813954,
          "velocity": 0.1889763779527559
        },
        {
          "duration": 0.4534883720930232,
          "durationTicks": 39,
          "midi": 63,
          "name": "D#4",
          "ticks": 1631,
          "time": 18.96511627906977,
          "velocity": 0.09448818897637795
        },
        {
          "duration": 0.29069767441860606,
          "durationTicks": 25,
          "midi": 51,
          "name": "D#3",
          "ticks": 1634,
          "time": 19,
          "velocity": 0.2047244094488189
        },
        {
          "duration": 0.023255813953486637,
          "durationTicks": 2,
          "midi": 45,
          "name": "A2",
          "ticks": 1659,
          "time": 19.290697674418606,
          "velocity": 0.30708661417322836
        },
        {
          "duration": 0.09302325581395365,
          "durationTicks": 8,
          "midi": 56,
          "name": "G#3",
          "ticks": 1659,
          "time": 19.290697674418606,
          "velocity": 0.3700787401574803
        },
        {
          "duration": 0.26744186046511587,
          "durationTicks": 23,
          "midi": 44,
          "name": "G#2",
          "ticks": 1661,
          "time": 19.313953488372093,
          "velocity": 0.2992125984251969
        },
        {
          "duration": 0.023255813953486637,
          "durationTicks": 2,
          "midi": 57,
          "name": "A3",
          "ticks": 1667,
          "time": 19.38372093023256,
          "velocity": 0.23622047244094488
        },
        {
          "duration": 0.05813953488371837,
          "durationTicks": 5,
          "midi": 58,
          "name": "A#3",
          "ticks": 1678,
          "time": 19.511627906976745,
          "velocity": 0.08661417322834646
        },
        {
          "duration": 0.26744186046511587,
          "durationTicks": 23,
          "midi": 51,
          "name": "D#3",
          "ticks": 1686,
          "time": 19.6046511627907,
          "velocity": 0.18110236220472442
        },
        {
          "duration": 0.06976744186046346,
          "durationTicks": 6,
          "midi": 58,
          "name": "A#3",
          "ticks": 1686,
          "time": 19.6046511627907,
          "velocity": 0.08661417322834646
        },
        {
          "duration": 0.23255813953488413,
          "durationTicks": 20,
          "midi": 44,
          "name": "G#2",
          "ticks": 1687,
          "time": 19.61627906976744,
          "velocity": 0.25196850393700787
        },
        {
          "duration": 0.03488372093023173,
          "durationTicks": 3,
          "midi": 55,
          "name": "G3",
          "ticks": 1709,
          "time": 19.872093023255815,
          "velocity": 0.3464566929133858
        },
        {
          "duration": 0.1046511627906952,
          "durationTicks": 9,
          "midi": 63,
          "name": "D#4",
          "ticks": 1710,
          "time": 19.88372093023256,
          "velocity": 0.11023622047244094
        },
        {
          "duration": 0.5581395348837219,
          "durationTicks": 48,
          "midi": 44,
          "name": "G#2",
          "ticks": 1712,
          "time": 19.906976744186046,
          "velocity": 0.30708661417322836
        },
        {
          "duration": 0.11627906976744029,
          "durationTicks": 10,
          "midi": 56,
          "name": "G#3",
          "ticks": 1712,
          "time": 19.906976744186046,
          "velocity": 0.3464566929133858
        },
        {
          "duration": 0.04651162790697683,
          "durationTicks": 4,
          "midi": 51,
          "name": "D#3",
          "ticks": 1717,
          "time": 19.96511627906977,
          "velocity": 0.11811023622047244
        },
        {
          "duration": 0.2674418604651194,
          "durationTicks": 23,
          "midi": 51,
          "name": "D#3",
          "ticks": 1738,
          "time": 20.209302325581394,
          "velocity": 0.15748031496062992
        },
        {
          "duration": 0.27906976744186096,
          "durationTicks": 24,
          "midi": 58,
          "name": "A#3",
          "ticks": 1738,
          "time": 20.209302325581394,
          "velocity": 0.23622047244094488
        },
        {
          "duration": 0.04651162790697683,
          "durationTicks": 4,
          "midi": 51,
          "name": "D#3",
          "ticks": 1762,
          "time": 20.488372093023255,
          "velocity": 0.16535433070866143
        },
        {
          "duration": 0.05813953488372192,
          "durationTicks": 5,
          "midi": 56,
          "name": "G#3",
          "ticks": 1763,
          "time": 20.5,
          "velocity": 0.31496062992125984
        },
        {
          "duration": 0.3023255813953476,
          "durationTicks": 26,
          "midi": 62,
          "name": "D4",
          "ticks": 1763,
          "time": 20.5,
          "velocity": 0.14960629921259844
        },
        {
          "duration": 0.5348837209302353,
          "durationTicks": 46,
          "midi": 44,
          "name": "G#2",
          "ticks": 1765,
          "time": 20.523255813953487,
          "velocity": 0.2440944881889764
        },
        {
          "duration": 0.023255813953486637,
          "durationTicks": 2,
          "midi": 57,
          "name": "A3",
          "ticks": 1768,
          "time": 20.558139534883722,
          "velocity": 0.2755905511811024
        },
        {
          "duration": 0.08139534883721211,
          "durationTicks": 7,
          "midi": 51,
          "name": "D#3",
          "ticks": 1769,
          "time": 20.569767441860463,
          "velocity": 0.11023622047244094
        },
        {
          "duration": 0.04651162790697683,
          "durationTicks": 4,
          "midi": 51,
          "name": "D#3",
          "ticks": 1779,
          "time": 20.686046511627907,
          "velocity": 0.09448818897637795
        },
        {
          "duration": 0.22093023255813904,
          "durationTicks": 19,
          "midi": 58,
          "name": "A#3",
          "ticks": 1780,
          "time": 20.697674418604652,
          "velocity": 0.10236220472440945
        },
        {
          "duration": 0.06976744186046346,
          "durationTicks": 6,
          "midi": 51,
          "name": "D#3",
          "ticks": 1792,
          "time": 20.837209302325583,
          "velocity": 0.07086614173228346
        },
        {
          "duration": 0.06976744186046346,
          "durationTicks": 6,
          "midi": 58,
          "name": "A#3",
          "ticks": 1802,
          "time": 20.953488372093023,
          "velocity": 0.08661417322834646
        },
        {
          "duration": 0.16279069767442067,
          "durationTicks": 14,
          "midi": 62,
          "name": "D4",
          "ticks": 1805,
          "time": 20.988372093023255,
          "velocity": 0.09448818897637795
        },
        {
          "duration": 0.12790697674418539,
          "durationTicks": 11,
          "midi": 56,
          "name": "G#3",
          "ticks": 1814,
          "time": 21.093023255813954,
          "velocity": 0.3543307086614173
        },
        {
          "duration": 0.27906976744186096,
          "durationTicks": 24,
          "midi": 44,
          "name": "G#2",
          "ticks": 1815,
          "time": 21.1046511627907,
          "velocity": 0.2992125984251969
        },
        {
          "duration": 0.03488372093023173,
          "durationTicks": 3,
          "midi": 62,
          "name": "D4",
          "ticks": 1821,
          "time": 21.174418604651162,
          "velocity": 0.07874015748031496
        },
        {
          "duration": 0.04651162790697683,
          "durationTicks": 4,
          "midi": 44,
          "name": "G#2",
          "ticks": 1840,
          "time": 21.3953488372093,
          "velocity": 0.2755905511811024
        },
        {
          "duration": 0.27906976744186096,
          "durationTicks": 24,
          "midi": 51,
          "name": "D#3",
          "ticks": 1841,
          "time": 21.406976744186046,
          "velocity": 0.1732283464566929
        },
        {
          "duration": 0.1976744186046524,
          "durationTicks": 17,
          "midi": 44,
          "name": "G#2",
          "ticks": 1845,
          "time": 21.453488372093023,
          "velocity": 0.2283464566929134
        },
        {
          "duration": 0.5581395348837184,
          "durationTicks": 48,
          "midi": 44,
          "name": "G#2",
          "ticks": 1866,
          "time": 21.697674418604652,
          "velocity": 0.28346456692913385
        },
        {
          "duration": 0.20930232558139394,
          "durationTicks": 18,
          "midi": 56,
          "name": "G#3",
          "ticks": 1866,
          "time": 21.697674418604652,
          "velocity": 0.3779527559055118
        },
        {
          "duration": 0.27906976744186096,
          "durationTicks": 24,
          "midi": 51,
          "name": "D#3",
          "ticks": 1892,
          "time": 22,
          "velocity": 0.16535433070866143
        },
        {
          "duration": 0.29069767441860606,
          "durationTicks": 25,
          "midi": 58,
          "name": "A#3",
          "ticks": 1892,
          "time": 22,
          "velocity": 0.2677165354330709
        },
        {
          "duration": 0.023255813953486637,
          "durationTicks": 2,
          "midi": 45,
          "name": "A2",
          "ticks": 1917,
          "time": 22.290697674418606,
          "velocity": 0.2677165354330709
        },
        {
          "duration": 0.023255813953486637,
          "durationTicks": 2,
          "midi": 57,
          "name": "A3",
          "ticks": 1917,
          "time": 22.290697674418606,
          "velocity": 0.3228346456692913
        },
        {
          "duration": 0.16279069767441712,
          "durationTicks": 14,
          "midi": 63,
          "name": "D#4",
          "ticks": 1917,
          "time": 22.290697674418606,
          "velocity": 0.09448818897637795
        },
        {
          "duration": 0.26744186046511587,
          "durationTicks": 23,
          "midi": 44,
          "name": "G#2",
          "ticks": 1919,
          "time": 22.313953488372093,
          "velocity": 0.2755905511811024
        },
        {
          "duration": 0.02325581395349019,
          "durationTicks": 2,
          "midi": 56,
          "name": "G#3",
          "ticks": 1919,
          "time": 22.313953488372093,
          "velocity": 0.3228346456692913
        },
        {
          "duration": 0.1744186046511622,
          "durationTicks": 15,
          "midi": 51,
          "name": "D#3",
          "ticks": 1922,
          "time": 22.348837209302324,
          "velocity": 0.12598425196850394
        },
        {
          "duration": 0.023255813953486637,
          "durationTicks": 2,
          "midi": 57,
          "name": "A3",
          "ticks": 1924,
          "time": 22.372093023255815,
          "velocity": 0.25984251968503935
        },
        {
          "duration": 0.08139534883720856,
          "durationTicks": 7,
          "midi": 58,
          "name": "A#3",
          "ticks": 1929,
          "time": 22.430232558139537,
          "velocity": 0.16535433070866143
        },
        {
          "duration": 0.29069767441860606,
          "durationTicks": 25,
          "midi": 58,
          "name": "A#3",
          "ticks": 1943,
          "time": 22.593023255813954,
          "velocity": 0.2755905511811024
        },
        {
          "duration": 0.24418604651162923,
          "durationTicks": 21,
          "midi": 51,
          "name": "D#3",
          "ticks": 1945,
          "time": 22.61627906976744,
          "velocity": 0.16535433070866143
        },
        {
          "duration": 0.2093023255813975,
          "durationTicks": 18,
          "midi": 44,
          "name": "G#2",
          "ticks": 1946,
          "time": 22.627906976744185,
          "velocity": 0.2125984251968504
        },
        {
          "duration": 0.023255813953486637,
          "durationTicks": 2,
          "midi": 55,
          "name": "G3",
          "ticks": 1967,
          "time": 22.872093023255815,
          "velocity": 0.33070866141732286
        },
        {
          "duration": 0.2906976744186025,
          "durationTicks": 25,
          "midi": 44,
          "name": "G#2",
          "ticks": 1968,
          "time": 22.88372093023256,
          "velocity": 0.28346456692913385
        },
        {
          "duration": 0.37209302325581106,
          "durationTicks": 32,
          "midi": 62,
          "name": "D4",
          "ticks": 1968,
          "time": 22.88372093023256,
          "velocity": 0.11811023622047244
        },
        {
          "duration": 0.04651162790697683,
          "durationTicks": 4,
          "midi": 56,
          "name": "G#3",
          "ticks": 1969,
          "time": 22.8953488372093,
          "velocity": 0.3937007874015748
        },
        {
          "duration": 0.02325581395349019,
          "durationTicks": 2,
          "midi": 57,
          "name": "A3",
          "ticks": 1973,
          "time": 22.941860465116278,
          "velocity": 0.30708661417322836
        },
        {
          "duration": 0.023255813953486637,
          "durationTicks": 2,
          "midi": 57,
          "name": "A3",
          "ticks": 1976,
          "time": 22.976744186046513,
          "velocity": 0.25196850393700787
        },
        {
          "duration": 0.24418604651162923,
          "durationTicks": 21,
          "midi": 58,
          "name": "A#3",
          "ticks": 1985,
          "time": 23.08139534883721,
          "velocity": 0.18110236220472442
        },
        {
          "duration": 0.25581395348837077,
          "durationTicks": 22,
          "midi": 44,
          "name": "G#2",
          "ticks": 1994,
          "time": 23.186046511627907,
          "velocity": 0.2440944881889764
        },
        {
          "duration": 0.05813953488371837,
          "durationTicks": 5,
          "midi": 51,
          "name": "D#3",
          "ticks": 1995,
          "time": 23.197674418604652,
          "velocity": 0.13385826771653545
        },
        {
          "duration": 0.04651162790697683,
          "durationTicks": 4,
          "midi": 51,
          "name": "D#3",
          "ticks": 2001,
          "time": 23.267441860465116,
          "velocity": 0.12598425196850394
        },
        {
          "duration": 0.3488372093023244,
          "durationTicks": 30,
          "midi": 62,
          "name": "D4",
          "ticks": 2006,
          "time": 23.325581395348838,
          "velocity": 0.18110236220472442
        },
        {
          "duration": 0.09302325581395365,
          "durationTicks": 8,
          "midi": 51,
          "name": "D#3",
          "ticks": 2007,
          "time": 23.337209302325583,
          "velocity": 0.12598425196850394
        },
        {
          "duration": 0.13953488372093048,
          "durationTicks": 12,
          "midi": 58,
          "name": "A#3",
          "ticks": 2007,
          "time": 23.337209302325583,
          "velocity": 0.15748031496062992
        },
        {
          "duration": 0.023255813953486637,
          "durationTicks": 2,
          "midi": 45,
          "name": "A2",
          "ticks": 2019,
          "time": 23.476744186046513,
          "velocity": 0.28346456692913385
        },
        {
          "duration": 0.11627906976744384,
          "durationTicks": 10,
          "midi": 56,
          "name": "G#3",
          "ticks": 2020,
          "time": 23.488372093023255,
          "velocity": 0.36220472440944884
        },
        {
          "duration": 0.23255813953488413,
          "durationTicks": 20,
          "midi": 44,
          "name": "G#2",
          "ticks": 2021,
          "time": 23.5,
          "velocity": 0.30708661417322836
        },
        {
          "duration": 0.29069767441860606,
          "durationTicks": 25,
          "midi": 51,
          "name": "D#3",
          "ticks": 2044,
          "time": 23.767441860465116,
          "velocity": 0.1732283464566929
        },
        {
          "duration": 0.3139534883720927,
          "durationTicks": 27,
          "midi": 55,
          "name": "G3",
          "ticks": 2068,
          "time": 24.046511627906977,
          "velocity": 0.3779527559055118
        },
        {
          "duration": 0.5465116279069768,
          "durationTicks": 47,
          "midi": 43,
          "name": "G2",
          "ticks": 2071,
          "time": 24.08139534883721,
          "velocity": 0.2047244094488189
        },
        {
          "duration": 0.03488372093023173,
          "durationTicks": 3,
          "midi": 51,
          "name": "D#3",
          "ticks": 2096,
          "time": 24.372093023255815,
          "velocity": 0.14960629921259844
        },
        {
          "duration": 0.24418604651162568,
          "durationTicks": 21,
          "midi": 51,
          "name": "D#3",
          "ticks": 2100,
          "time": 24.41860465116279,
          "velocity": 0.14960629921259844
        },
        {
          "duration": 0.06976744186046346,
          "durationTicks": 6,
          "midi": 58,
          "name": "A#3",
          "ticks": 2101,
          "time": 24.430232558139537,
          "velocity": 0.09448818897637795
        },
        {
          "duration": 0.03488372093023173,
          "durationTicks": 3,
          "midi": 44,
          "name": "G#2",
          "ticks": 2118,
          "time": 24.627906976744185,
          "velocity": 0.16535433070866143
        },
        {
          "duration": 0.03488372093023173,
          "durationTicks": 3,
          "midi": 44,
          "name": "G#2",
          "ticks": 2123,
          "time": 24.686046511627907,
          "velocity": 0.2440944881889764
        },
        {
          "duration": 0.29069767441860606,
          "durationTicks": 25,
          "midi": 55,
          "name": "G3",
          "ticks": 2123,
          "time": 24.686046511627907,
          "velocity": 0.33858267716535434
        },
        {
          "duration": 0.06976744186046346,
          "durationTicks": 6,
          "midi": 63,
          "name": "D#4",
          "ticks": 2123,
          "time": 24.686046511627907,
          "velocity": 0.09448818897637795
        },
        {
          "duration": 0.24418604651162923,
          "durationTicks": 21,
          "midi": 43,
          "name": "G2",
          "ticks": 2126,
          "time": 24.72093023255814,
          "velocity": 0.2047244094488189
        },
        {
          "duration": 0.10465116279069875,
          "durationTicks": 9,
          "midi": 63,
          "name": "D#4",
          "ticks": 2131,
          "time": 24.77906976744186,
          "velocity": 0.10236220472440945
        },
        {
          "duration": 0.023255813953486637,
          "durationTicks": 2,
          "midi": 44,
          "name": "G#2",
          "ticks": 2148,
          "time": 24.976744186046513,
          "velocity": 0.25984251968503935
        },
        {
          "duration": 0.27906976744186096,
          "durationTicks": 24,
          "midi": 58,
          "name": "A#3",
          "ticks": 2149,
          "time": 24.988372093023255,
          "velocity": 0.15748031496062992
        },
        {
          "duration": 0.1744186046511622,
          "durationTicks": 15,
          "midi": 43,
          "name": "G2",
          "ticks": 2155,
          "time": 25.058139534883722,
          "velocity": 0.1732283464566929
        },
        {
          "duration": 0.03488372093023173,
          "durationTicks": 3,
          "midi": 44,
          "name": "G#2",
          "ticks": 2170,
          "time": 25.232558139534884,
          "velocity": 0.15748031496062992
        },
        {
          "duration": 0.3139534883720927,
          "durationTicks": 27,
          "midi": 55,
          "name": "G3",
          "ticks": 2173,
          "time": 25.267441860465116,
          "velocity": 0.36220472440944884
        },
        {
          "duration": 0.27906976744186096,
          "durationTicks": 24,
          "midi": 62,
          "name": "D4",
          "ticks": 2174,
          "time": 25.27906976744186,
          "velocity": 0.14173228346456693
        },
        {
          "duration": 0.26744186046511587,
          "durationTicks": 23,
          "midi": 43,
          "name": "G2",
          "ticks": 2179,
          "time": 25.337209302325583,
          "velocity": 0.2125984251968504
        },
        {
          "duration": 0.11627906976744029,
          "durationTicks": 10,
          "midi": 51,
          "name": "D#3",
          "ticks": 2201,
          "time": 25.593023255813954,
          "velocity": 0.13385826771653545
        },
        {
          "duration": 0.023255813953486637,
          "durationTicks": 2,
          "midi": 44,
          "name": "G#2",
          "ticks": 2202,
          "time": 25.6046511627907,
          "velocity": 0.2283464566929134
        },
        {
          "duration": 0.06976744186046702,
          "durationTicks": 6,
          "midi": 43,
          "name": "G2",
          "ticks": 2207,
          "time": 25.662790697674417,
          "velocity": 0.2125984251968504
        },
        {
          "duration": 0.12790697674418539,
          "durationTicks": 11,
          "midi": 51,
          "name": "D#3",
          "ticks": 2213,
          "time": 25.732558139534884,
          "velocity": 0.11811023622047244
        },
        {
          "duration": 0.09302325581395365,
          "durationTicks": 8,
          "midi": 43,
          "name": "G2",
          "ticks": 2215,
          "time": 25.75581395348837,
          "velocity": 0.1889763779527559
        },
        {
          "duration": 0.27906976744186096,
          "durationTicks": 24,
          "midi": 62,
          "name": "D4",
          "ticks": 2220,
          "time": 25.813953488372093,
          "velocity": 0.14960629921259844
        },
        {
          "duration": 0.034883720930235285,
          "durationTicks": 3,
          "midi": 44,
          "name": "G#2",
          "ticks": 2223,
          "time": 25.848837209302324,
          "velocity": 0.12598425196850394
        },
        {
          "duration": 0.27906976744186096,
          "durationTicks": 24,
          "midi": 55,
          "name": "G3",
          "ticks": 2225,
          "time": 25.872093023255815,
          "velocity": 0.3464566929133858
        },
        {
          "duration": 0.2906976744186025,
          "durationTicks": 25,
          "midi": 43,
          "name": "G2",
          "ticks": 2226,
          "time": 25.88372093023256,
          "velocity": 0.2204724409448819
        },
        {
          "duration": 0.23255813953488413,
          "durationTicks": 20,
          "midi": 43,
          "name": "G2",
          "ticks": 2252,
          "time": 26.186046511627907,
          "velocity": 0.1968503937007874
        },
        {
          "duration": 0.09302325581395365,
          "durationTicks": 8,
          "midi": 51,
          "name": "D#3",
          "ticks": 2253,
          "time": 26.197674418604652,
          "velocity": 0.15748031496062992
        },
        {
          "duration": 0.16279069767442067,
          "durationTicks": 14,
          "midi": 51,
          "name": "D#3",
          "ticks": 2262,
          "time": 26.302325581395348,
          "velocity": 0.2440944881889764
        },
        {
          "duration": 0.27906976744186096,
          "durationTicks": 24,
          "midi": 55,
          "name": "G3",
          "ticks": 2276,
          "time": 26.46511627906977,
          "velocity": 0.3543307086614173
        },
        {
          "duration": 0.03488372093023173,
          "durationTicks": 3,
          "midi": 63,
          "name": "D#4",
          "ticks": 2276,
          "time": 26.46511627906977,
          "velocity": 0.09448818897637795
        },
        {
          "duration": 0.2906976744186025,
          "durationTicks": 25,
          "midi": 43,
          "name": "G2",
          "ticks": 2277,
          "time": 26.476744186046513,
          "velocity": 0.23622047244094488
        },
        {
          "duration": 0.034883720930235285,
          "durationTicks": 3,
          "midi": 57,
          "name": "A3",
          "ticks": 2301,
          "time": 26.75581395348837,
          "velocity": 0.2677165354330709
        },
        {
          "duration": 0.02325581395349019,
          "durationTicks": 2,
          "midi": 44,
          "name": "G#2",
          "ticks": 2302,
          "time": 26.767441860465116,
          "velocity": 0.25984251968503935
        },
        {
          "duration": 0.27906976744186096,
          "durationTicks": 24,
          "midi": 51,
          "name": "D#3",
          "ticks": 2303,
          "time": 26.77906976744186,
          "velocity": 0.16535433070866143
        },
        {
          "duration": 0.22093023255813904,
          "durationTicks": 19,
          "midi": 43,
          "name": "G2",
          "ticks": 2304,
          "time": 26.790697674418606,
          "velocity": 0.2047244094488189
        },
        {
          "duration": 0.24418604651162923,
          "durationTicks": 21,
          "midi": 58,
          "name": "A#3",
          "ticks": 2306,
          "time": 26.813953488372093,
          "velocity": 0.1889763779527559
        },
        {
          "duration": 0.03488372093023173,
          "durationTicks": 3,
          "midi": 44,
          "name": "G#2",
          "ticks": 2323,
          "time": 27.011627906976745,
          "velocity": 0.1732283464566929
        },
        {
          "duration": 0.25581395348837077,
          "durationTicks": 22,
          "midi": 55,
          "name": "G3",
          "ticks": 2326,
          "time": 27.046511627906977,
          "velocity": 0.36220472440944884
        },
        {
          "duration": 0.034883720930235285,
          "durationTicks": 3,
          "midi": 44,
          "name": "G#2",
          "ticks": 2328,
          "time": 27.069767441860463,
          "velocity": 0.25196850393700787
        },
        {
          "duration": 0.4767441860465098,
          "durationTicks": 41,
          "midi": 43,
          "name": "G2",
          "ticks": 2334,
          "time": 27.13953488372093,
          "velocity": 0.2047244094488189
        },
        {
          "duration": 0.03488372093023173,
          "durationTicks": 3,
          "midi": 58,
          "name": "A#3",
          "ticks": 2354,
          "time": 27.372093023255815,
          "velocity": 0.07086614173228346
        },
        {
          "duration": 0.24418604651162923,
          "durationTicks": 21,
          "midi": 51,
          "name": "D#3",
          "ticks": 2356,
          "time": 27.3953488372093,
          "velocity": 0.16535433070866143
        },
        {
          "duration": 0.3372093023255829,
          "durationTicks": 29,
          "midi": 55,
          "name": "G3",
          "ticks": 2379,
          "time": 27.662790697674417,
          "velocity": 0.4251968503937008
        },
        {
          "duration": 0.034883720930235285,
          "durationTicks": 3,
          "midi": 63,
          "name": "D#4",
          "ticks": 2379,
          "time": 27.662790697674417,
          "velocity": 0.11811023622047244
        },
        {
          "duration": 0.5348837209302317,
          "durationTicks": 46,
          "midi": 43,
          "name": "G2",
          "ticks": 2382,
          "time": 27.697674418604652,
          "velocity": 0.2204724409448819
        },
        {
          "duration": 0.03488372093023173,
          "durationTicks": 3,
          "midi": 51,
          "name": "D#3",
          "ticks": 2407,
          "time": 27.988372093023255,
          "velocity": 0.16535433070866143
        },
        {
          "duration": 0.06976744186046702,
          "durationTicks": 6,
          "midi": 51,
          "name": "D#3",
          "ticks": 2411,
          "time": 28.03488372093023,
          "velocity": 0.14173228346456693
        },
        {
          "duration": 0.15116279069767558,
          "durationTicks": 13,
          "midi": 51,
          "name": "D#3",
          "ticks": 2418,
          "time": 28.11627906976744,
          "velocity": 0.1732283464566929
        },
        {
          "duration": 0.05813953488372192,
          "durationTicks": 5,
          "midi": 44,
          "name": "G#2",
          "ticks": 2428,
          "time": 28.232558139534884,
          "velocity": 0.16535433070866143
        },
        {
          "duration": 0.2906976744186025,
          "durationTicks": 25,
          "midi": 55,
          "name": "G3",
          "ticks": 2432,
          "time": 28.27906976744186,
          "velocity": 0.3700787401574803
        },
        {
          "duration": 0.25581395348837077,
          "durationTicks": 22,
          "midi": 43,
          "name": "G2",
          "ticks": 2433,
          "time": 28.290697674418606,
          "velocity": 0.1889763779527559
        },
        {
          "duration": 0.09302325581395365,
          "durationTicks": 8,
          "midi": 51,
          "name": "D#3",
          "ticks": 2458,
          "time": 28.58139534883721,
          "velocity": 0.1732283464566929
        },
        {
          "duration": 0.023255813953486637,
          "durationTicks": 2,
          "midi": 44,
          "name": "G#2",
          "ticks": 2459,
          "time": 28.593023255813954,
          "velocity": 0.2283464566929134
        },
        {
          "duration": 0.1976744186046524,
          "durationTicks": 17,
          "midi": 43,
          "name": "G2",
          "ticks": 2461,
          "time": 28.61627906976744,
          "velocity": 0.2047244094488189
        },
        {
          "duration": 0.1744186046511622,
          "durationTicks": 15,
          "midi": 51,
          "name": "D#3",
          "ticks": 2467,
          "time": 28.686046511627907,
          "velocity": 0.16535433070866143
        },
        {
          "duration": 0.02325581395349019,
          "durationTicks": 2,
          "midi": 56,
          "name": "G#3",
          "ticks": 2481,
          "time": 28.848837209302324,
          "velocity": 0.2677165354330709
        },
        {
          "duration": 0.023255813953486637,
          "durationTicks": 2,
          "midi": 45,
          "name": "A2",
          "ticks": 2483,
          "time": 28.872093023255815,
          "velocity": 0.30708661417322836
        },
        {
          "duration": 0.05813953488371837,
          "durationTicks": 5,
          "midi": 56,
          "name": "G#3",
          "ticks": 2484,
          "time": 28.88372093023256,
          "velocity": 0.3700787401574803
        },
        {
          "duration": 0.3139534883720927,
          "durationTicks": 27,
          "midi": 44,
          "name": "G#2",
          "ticks": 2485,
          "time": 28.8953488372093,
          "velocity": 0.30708661417322836
        },
        {
          "duration": 0.04651162790697683,
          "durationTicks": 4,
          "midi": 51,
          "name": "D#3",
          "ticks": 2489,
          "time": 28.941860465116278,
          "velocity": 0.10236220472440945
        },
        {
          "duration": 0.03488372093023173,
          "durationTicks": 3,
          "midi": 58,
          "name": "A#3",
          "ticks": 2493,
          "time": 28.988372093023255,
          "velocity": 0.13385826771653545
        },
        {
          "duration": 0.3837209302325597,
          "durationTicks": 33,
          "midi": 58,
          "name": "A#3",
          "ticks": 2501,
          "time": 29.08139534883721,
          "velocity": 0.12598425196850394
        },
        {
          "duration": 0.10465116279069875,
          "durationTicks": 9,
          "midi": 51,
          "name": "D#3",
          "ticks": 2509,
          "time": 29.174418604651162,
          "velocity": 0.14173228346456693
        },
        {
          "duration": 0.2093023255813975,
          "durationTicks": 18,
          "midi": 44,
          "name": "G#2",
          "ticks": 2513,
          "time": 29.22093023255814,
          "velocity": 0.23622047244094488
        },
        {
          "duration": 0.1046511627906952,
          "durationTicks": 9,
          "midi": 51,
          "name": "D#3",
          "ticks": 2519,
          "time": 29.290697674418606,
          "velocity": 0.14173228346456693
        },
        {
          "duration": 0.04651162790697683,
          "durationTicks": 4,
          "midi": 51,
          "name": "D#3",
          "ticks": 2531,
          "time": 29.430232558139537,
          "velocity": 0.1968503937007874
        },
        {
          "duration": 0.023255813953486637,
          "durationTicks": 2,
          "midi": 55,
          "name": "G3",
          "ticks": 2534,
          "time": 29.46511627906977,
          "velocity": 0.3228346456692913
        },
        {
          "duration": 0.04651162790697683,
          "durationTicks": 4,
          "midi": 45,
          "name": "A2",
          "ticks": 2536,
          "time": 29.488372093023255,
          "velocity": 0.2992125984251969
        },
        {
          "duration": 0.09302325581395365,
          "durationTicks": 8,
          "midi": 56,
          "name": "G#3",
          "ticks": 2536,
          "time": 29.488372093023255,
          "velocity": 0.3543307086614173
        },
        {
          "duration": 0.15116279069767558,
          "durationTicks": 13,
          "midi": 63,
          "name": "D#4",
          "ticks": 2537,
          "time": 29.5,
          "velocity": 0.07874015748031496
        },
        {
          "duration": 0.2558139534883743,
          "durationTicks": 22,
          "midi": 44,
          "name": "G#2",
          "ticks": 2540,
          "time": 29.53488372093023,
          "velocity": 0.28346456692913385
        },
        {
          "duration": 0.034883720930235285,
          "durationTicks": 3,
          "midi": 51,
          "name": "D#3",
          "ticks": 2543,
          "time": 29.569767441860463,
          "velocity": 0.07874015748031496
        },
        {
          "duration": 0.023255813953486637,
          "durationTicks": 2,
          "midi": 57,
          "name": "A3",
          "ticks": 2561,
          "time": 29.77906976744186,
          "velocity": 0.2755905511811024
        },
        {
          "duration": 0.24418604651162923,
          "durationTicks": 21,
          "midi": 44,
          "name": "G#2",
          "ticks": 2563,
          "time": 29.802325581395348,
          "velocity": 0.2283464566929134
        },
        {
          "duration": 0.26744186046511587,
          "durationTicks": 23,
          "midi": 51,
          "name": "D#3",
          "ticks": 2563,
          "time": 29.802325581395348,
          "velocity": 0.16535433070866143
        },
        {
          "duration": 0.27906976744186096,
          "durationTicks": 24,
          "midi": 58,
          "name": "A#3",
          "ticks": 2563,
          "time": 29.802325581395348,
          "velocity": 0.25196850393700787
        },
        {
          "duration": 0.5348837209302317,
          "durationTicks": 46,
          "midi": 44,
          "name": "G#2",
          "ticks": 2588,
          "time": 30.093023255813954,
          "velocity": 0.2755905511811024
        },
        {
          "duration": 0.06976744186046346,
          "durationTicks": 6,
          "midi": 56,
          "name": "G#3",
          "ticks": 2588,
          "time": 30.093023255813954,
          "velocity": 0.36220472440944884
        },
        {
          "duration": 0.23255813953488413,
          "durationTicks": 20,
          "midi": 62,
          "name": "D4",
          "ticks": 2590,
          "time": 30.11627906976744,
          "velocity": 0.08661417322834646
        },
        {
          "duration": 0.04651162790697683,
          "durationTicks": 4,
          "midi": 51,
          "name": "D#3",
          "ticks": 2595,
          "time": 30.174418604651162,
          "velocity": 0.11023622047244094
        },
        {
          "duration": 0.22093023255813904,
          "durationTicks": 19,
          "midi": 58,
          "name": "A#3",
          "ticks": 2605,
          "time": 30.290697674418606,
          "velocity": 0.09448818897637795
        },
        {
          "duration": 0.06976744186046346,
          "durationTicks": 6,
          "midi": 62,
          "name": "D4",
          "ticks": 2613,
          "time": 30.38372093023256,
          "velocity": 0.08661417322834646
        },
        {
          "duration": 0.3372093023255829,
          "durationTicks": 29,
          "midi": 62,
          "name": "D4",
          "ticks": 2626,
          "time": 30.53488372093023,
          "velocity": 0.1889763779527559
        },
        {
          "duration": 0.03488372093023173,
          "durationTicks": 3,
          "midi": 45,
          "name": "A2",
          "ticks": 2634,
          "time": 30.627906976744185,
          "velocity": 0.1889763779527559
        },
        {
          "duration": 0.12790697674418539,
          "durationTicks": 11,
          "midi": 56,
          "name": "G#3",
          "ticks": 2638,
          "time": 30.674418604651162,
          "velocity": 0.33858267716535434
        },
        {
          "duration": 0.26744186046511587,
          "durationTicks": 23,
          "midi": 44,
          "name": "G#2",
          "ticks": 2639,
          "time": 30.686046511627907,
          "velocity": 0.28346456692913385
        },
        {
          "duration": 0.3023255813953476,
          "durationTicks": 26,
          "midi": 51,
          "name": "D#3",
          "ticks": 2664,
          "time": 30.976744186046513,
          "velocity": 0.2283464566929134
        },
        {
          "duration": 0.02325581395349019,
          "durationTicks": 2,
          "midi": 45,
          "name": "A2",
          "ticks": 2665,
          "time": 30.988372093023255,
          "velocity": 0.25196850393700787
        },
        {
          "duration": 0.23255813953488413,
          "durationTicks": 20,
          "midi": 44,
          "name": "G#2",
          "ticks": 2667,
          "time": 31.011627906976745,
          "velocity": 0.2440944881889764
        },
        {
          "duration": 0.2906976744186025,
          "durationTicks": 25,
          "midi": 44,
          "name": "G#2",
          "ticks": 2690,
          "time": 31.27906976744186,
          "velocity": 0.28346456692913385
        },
        {
          "duration": 0.13953488372093048,
          "durationTicks": 12,
          "midi": 56,
          "name": "G#3",
          "ticks": 2690,
          "time": 31.27906976744186,
          "velocity": 0.3779527559055118
        },
        {
          "duration": 0.1046511627906952,
          "durationTicks": 9,
          "midi": 51,
          "name": "D#3",
          "ticks": 2695,
          "time": 31.337209302325583,
          "velocity": 0.14960629921259844
        },
        {
          "duration": 0.04651162790697683,
          "durationTicks": 4,
          "midi": 51,
          "name": "D#3",
          "ticks": 2705,
          "time": 31.453488372093023,
          "velocity": 0.13385826771653545
        },
        {
          "duration": 0.24418604651162923,
          "durationTicks": 21,
          "midi": 44,
          "name": "G#2",
          "ticks": 2716,
          "time": 31.58139534883721,
          "velocity": 0.23622047244094488
        },
        {
          "duration": 0.03488372093023173,
          "durationTicks": 3,
          "midi": 51,
          "name": "D#3",
          "ticks": 2716,
          "time": 31.58139534883721,
          "velocity": 0.15748031496062992
        },
        {
          "duration": 0.26744186046511587,
          "durationTicks": 23,
          "midi": 58,
          "name": "A#3",
          "ticks": 2716,
          "time": 31.58139534883721,
          "velocity": 0.1889763779527559
        },
        {
          "duration": 0.23255813953488413,
          "durationTicks": 20,
          "midi": 51,
          "name": "D#3",
          "ticks": 2720,
          "time": 31.627906976744185,
          "velocity": 0.16535433070866143
        },
        {
          "duration": 0.09302325581395365,
          "durationTicks": 8,
          "midi": 56,
          "name": "G#3",
          "ticks": 2741,
          "time": 31.872093023255815,
          "velocity": 0.3700787401574803
        },
        {
          "duration": 0.23255813953488058,
          "durationTicks": 20,
          "midi": 63,
          "name": "D#4",
          "ticks": 2741,
          "time": 31.872093023255815,
          "velocity": 0.08661417322834646
        },
        {
          "duration": 0.5465116279069768,
          "durationTicks": 47,
          "midi": 44,
          "name": "G#2",
          "ticks": 2742,
          "time": 31.88372093023256,
          "velocity": 0.30708661417322836
        },
        {
          "duration": 0.27906976744186096,
          "durationTicks": 24,
          "midi": 58,
          "name": "A#3",
          "ticks": 2768,
          "time": 32.18604651162791,
          "velocity": 0.28346456692913385
        },
        {
          "duration": 0.2093023255813975,
          "durationTicks": 18,
          "midi": 51,
          "name": "D#3",
          "ticks": 2772,
          "time": 32.23255813953488,
          "velocity": 0.13385826771653545
        },
        {
          "duration": 0.06976744186046346,
          "durationTicks": 6,
          "midi": 56,
          "name": "G#3",
          "ticks": 2793,
          "time": 32.47674418604651,
          "velocity": 0.3543307086614173
        },
        {
          "duration": 0.5348837209302317,
          "durationTicks": 46,
          "midi": 44,
          "name": "G#2",
          "ticks": 2794,
          "time": 32.48837209302326,
          "velocity": 0.29133858267716534
        },
        {
          "duration": 0.3372093023255758,
          "durationTicks": 29,
          "midi": 62,
          "name": "D4",
          "ticks": 2794,
          "time": 32.48837209302326,
          "velocity": 0.10236220472440945
        },
        {
          "duration": 0.04651162790698038,
          "durationTicks": 4,
          "midi": 51,
          "name": "D#3",
          "ticks": 2798,
          "time": 32.53488372093023,
          "velocity": 0.08661417322834646
        },
        {
          "duration": 0.02325581395349019,
          "durationTicks": 2,
          "midi": 57,
          "name": "A3",
          "ticks": 2799,
          "time": 32.54651162790697,
          "velocity": 0.29133858267716534
        },
        {
          "duration": 0.03488372093023173,
          "durationTicks": 3,
          "midi": 58,
          "name": "A#3",
          "ticks": 2804,
          "time": 32.604651162790695,
          "velocity": 0.14960629921259844
        },
        {
          "duration": 0.2093023255813975,
          "durationTicks": 18,
          "midi": 58,
          "name": "A#3",
          "ticks": 2811,
          "time": 32.68604651162791,
          "velocity": 0.1732283464566929
        },
        {
          "duration": 0.03488372093023173,
          "durationTicks": 3,
          "midi": 51,
          "name": "D#3",
          "ticks": 2826,
          "time": 32.86046511627907,
          "velocity": 0.15748031496062992
        },
        {
          "duration": 0.12790697674418539,
          "durationTicks": 11,
          "midi": 62,
          "name": "D4",
          "ticks": 2832,
          "time": 32.93023255813954,
          "velocity": 0.09448818897637795
        },
        {
          "duration": 0.04651162790698038,
          "durationTicks": 4,
          "midi": 51,
          "name": "D#3",
          "ticks": 2833,
          "time": 32.94186046511628,
          "velocity": 0.07086614173228346
        },
        {
          "duration": 0.02325581395349019,
          "durationTicks": 2,
          "midi": 45,
          "name": "A2",
          "ticks": 2843,
          "time": 33.05813953488372,
          "velocity": 0.2755905511811024
        },
        {
          "duration": 0.12790697674418539,
          "durationTicks": 11,
          "midi": 56,
          "name": "G#3",
          "ticks": 2843,
          "time": 33.05813953488372,
          "velocity": 0.33070866141732286
        },
        {
          "duration": 0.03488372093023173,
          "durationTicks": 3,
          "midi": 62,
          "name": "D4",
          "ticks": 2844,
          "time": 33.06976744186046,
          "velocity": 0.11811023622047244
        },
        {
          "duration": 0.25581395348837077,
          "durationTicks": 22,
          "midi": 44,
          "name": "G#2",
          "ticks": 2845,
          "time": 33.08139534883721,
          "velocity": 0.2992125984251969
        },
        {
          "duration": 0.03488372093023173,
          "durationTicks": 3,
          "midi": 62,
          "name": "D4",
          "ticks": 2849,
          "time": 33.127906976744185,
          "velocity": 0.10236220472440945
        },
        {
          "duration": 0.22093023255813904,
          "durationTicks": 19,
          "midi": 63,
          "name": "D#4",
          "ticks": 2868,
          "time": 33.348837209302324,
          "velocity": 0.08661417322834646
        },
        {
          "duration": 0.2093023255813904,
          "durationTicks": 18,
          "midi": 51,
          "name": "D#3",
          "ticks": 2869,
          "time": 33.36046511627907,
          "velocity": 0.16535433070866143
        },
        {
          "duration": 0.03488372093023173,
          "durationTicks": 3,
          "midi": 56,
          "name": "G#3",
          "ticks": 2894,
          "time": 33.651162790697676,
          "velocity": 0.2283464566929134
        },
        {
          "duration": 0.02325581395349019,
          "durationTicks": 2,
          "midi": 45,
          "name": "A2",
          "ticks": 2895,
          "time": 33.66279069767442,
          "velocity": 0.31496062992125984
        },
        {
          "duration": 0.5348837209302317,
          "durationTicks": 46,
          "midi": 46,
          "name": "A#2",
          "ticks": 2897,
          "time": 33.68604651162791,
          "velocity": 0.33858267716535434
        },
        {
          "duration": 0.5232558139534831,
          "durationTicks": 45,
          "midi": 53,
          "name": "F3",
          "ticks": 2920,
          "time": 33.95348837209303,
          "velocity": 0.25984251968503935
        },
        {
          "duration": 0.03488372093023173,
          "durationTicks": 3,
          "midi": 45,
          "name": "A2",
          "ticks": 2945,
          "time": 34.24418604651163,
          "velocity": 0.3464566929133858
        },
        {
          "duration": 0.2093023255813975,
          "durationTicks": 18,
          "midi": 58,
          "name": "A#3",
          "ticks": 2946,
          "time": 34.25581395348837,
          "velocity": 0.15748031496062992
        },
        {
          "duration": 0.5232558139534902,
          "durationTicks": 45,
          "midi": 46,
          "name": "A#2",
          "ticks": 2948,
          "time": 34.27906976744186,
          "velocity": 0.3543307086614173
        },
        {
          "duration": 0.27906976744186096,
          "durationTicks": 24,
          "midi": 53,
          "name": "F3",
          "ticks": 2970,
          "time": 34.53488372093023,
          "velocity": 0.2283464566929134
        },
        {
          "duration": 0.5348837209302388,
          "durationTicks": 46,
          "midi": 46,
          "name": "A#2",
          "ticks": 2995,
          "time": 34.825581395348834,
          "velocity": 0.33070866141732286
        },
        {
          "duration": 0.3372093023255829,
          "durationTicks": 29,
          "midi": 62,
          "name": "D4",
          "ticks": 2995,
          "time": 34.825581395348834,
          "velocity": 0.11811023622047244
        },
        {
          "duration": 0.22093023255813904,
          "durationTicks": 19,
          "midi": 53,
          "name": "F3",
          "ticks": 2997,
          "time": 34.848837209302324,
          "velocity": 0.14173228346456693
        },
        {
          "duration": 0.12790697674418539,
          "durationTicks": 11,
          "midi": 53,
          "name": "F3",
          "ticks": 3020,
          "time": 35.116279069767444,
          "velocity": 0.18110236220472442
        },
        {
          "duration": 0.3604651162790731,
          "durationTicks": 31,
          "midi": 62,
          "name": "D4",
          "ticks": 3032,
          "time": 35.25581395348837,
          "velocity": 0.10236220472440945
        },
        {
          "duration": 0.1046511627906952,
          "durationTicks": 9,
          "midi": 53,
          "name": "F3",
          "ticks": 3034,
          "time": 35.27906976744186,
          "velocity": 0.14960629921259844
        },
        {
          "duration": 0.03488372093023173,
          "durationTicks": 3,
          "midi": 45,
          "name": "A2",
          "ticks": 3044,
          "time": 35.395348837209305,
          "velocity": 0.30708661417322836
        },
        {
          "duration": 0.24418604651162923,
          "durationTicks": 21,
          "midi": 58,
          "name": "A#3",
          "ticks": 3045,
          "time": 35.406976744186046,
          "velocity": 0.2440944881889764
        },
        {
          "duration": 0.27906976744186096,
          "durationTicks": 24,
          "midi": 46,
          "name": "A#2",
          "ticks": 3047,
          "time": 35.43023255813954,
          "velocity": 0.33858267716535434
        },
        {
          "duration": 0.2093023255813904,
          "durationTicks": 18,
          "midi": 53,
          "name": "F3",
          "ticks": 3047,
          "time": 35.43023255813954,
          "velocity": 0.11811023622047244
        },
        {
          "duration": 0.32558139534883423,
          "durationTicks": 28,
          "midi": 63,
          "name": "D#4",
          "ticks": 3071,
          "time": 35.7093023255814,
          "velocity": 0.10236220472440945
        },
        {
          "duration": 0.03488372093023173,
          "durationTicks": 3,
          "midi": 46,
          "name": "A#2",
          "ticks": 3072,
          "time": 35.72093023255814,
          "velocity": 0.25984251968503935
        },
        {
          "duration": 0.03488372093023884,
          "durationTicks": 3,
          "midi": 51,
          "name": "D#3",
          "ticks": 3081,
          "time": 35.825581395348834,
          "velocity": 0.2047244094488189
        },
        {
          "duration": 0.03488372093023173,
          "durationTicks": 3,
          "midi": 46,
          "name": "A#2",
          "ticks": 3083,
          "time": 35.848837209302324,
          "velocity": 0.1968503937007874
        },
        {
          "duration": 0.12790697674418539,
          "durationTicks": 11,
          "midi": 51,
          "name": "D#3",
          "ticks": 3085,
          "time": 35.872093023255815,
          "velocity": 0.2204724409448819
        },
        {
          "duration": 0.2906976744186096,
          "durationTicks": 25,
          "midi": 60,
          "name": "C4",
          "ticks": 3097,
          "time": 36.01162790697674,
          "velocity": 0.16535433070866143
        },
        {
          "duration": 0.02325581395349019,
          "durationTicks": 2,
          "midi": 48,
          "name": "C3",
          "ticks": 3099,
          "time": 36.03488372093023,
          "velocity": 0.25196850393700787
        },
        {
          "duration": 0.22093023255813904,
          "durationTicks": 19,
          "midi": 63,
          "name": "D#4",
          "ticks": 3101,
          "time": 36.05813953488372,
          "velocity": 0.07086614173228346
        },
        {
          "duration": 0.1046511627906952,
          "durationTicks": 9,
          "midi": 48,
          "name": "C3",
          "ticks": 3112,
          "time": 36.18604651162791,
          "velocity": 0.25984251968503935
        },
        {
          "duration": 0.30232558139535115,
          "durationTicks": 26,
          "midi": 58,
          "name": "A#3",
          "ticks": 3123,
          "time": 36.31395348837209,
          "velocity": 0.2755905511811024
        },
        {
          "duration": 0.02325581395349019,
          "durationTicks": 2,
          "midi": 50,
          "name": "D3",
          "ticks": 3126,
          "time": 36.348837209302324,
          "velocity": 0.25984251968503935
        },
        {
          "duration": 0.023255813953483084,
          "durationTicks": 2,
          "midi": 48,
          "name": "C3",
          "ticks": 3130,
          "time": 36.395348837209305,
          "velocity": 0.25196850393700787
        },
        {
          "duration": 0.023255813953483084,
          "durationTicks": 2,
          "midi": 51,
          "name": "D#3",
          "ticks": 3135,
          "time": 36.45348837209303,
          "velocity": 0.2283464566929134
        },
        {
          "duration": 0.03488372093023173,
          "durationTicks": 3,
          "midi": 51,
          "name": "D#3",
          "ticks": 3145,
          "time": 36.56976744186046,
          "velocity": 0.14173228346456693
        },
        {
          "duration": 0.02325581395349019,
          "durationTicks": 2,
          "midi": 46,
          "name": "A#2",
          "ticks": 3148,
          "time": 36.604651162790695,
          "velocity": 0.25984251968503935
        },
        {
          "duration": 0.27906976744186096,
          "durationTicks": 24,
          "midi": 63,
          "name": "D#4",
          "ticks": 3149,
          "time": 36.616279069767444,
          "velocity": 0.11811023622047244
        },
        {
          "duration": 0.03488372093023173,
          "durationTicks": 3,
          "midi": 47,
          "name": "B2",
          "ticks": 3150,
          "time": 36.627906976744185,
          "velocity": 0.31496062992125984
        },
        {
          "duration": 0.03488372093023173,
          "durationTicks": 3,
          "midi": 58,
          "name": "A#3",
          "ticks": 3152,
          "time": 36.651162790697676,
          "velocity": 0.1732283464566929
        },
        {
          "duration": 0.12790697674418539,
          "durationTicks": 11,
          "midi": 58,
          "name": "A#3",
          "ticks": 3156,
          "time": 36.69767441860465,
          "velocity": 0.14960629921259844
        },
        {
          "duration": 0.02325581395349019,
          "durationTicks": 2,
          "midi": 48,
          "name": "C3",
          "ticks": 3160,
          "time": 36.74418604651163,
          "velocity": 0.23622047244094488
        },
        {
          "duration": 0.02325581395349019,
          "durationTicks": 2,
          "midi": 48,
          "name": "C3",
          "ticks": 3163,
          "time": 36.77906976744186,
          "velocity": 0.2283464566929134
        },
        {
          "duration": 0.05813953488372192,
          "durationTicks": 5,
          "midi": 58,
          "name": "A#3",
          "ticks": 3169,
          "time": 36.848837209302324,
          "velocity": 0.16535433070866143
        },
        {
          "duration": 0.058139534883714816,
          "durationTicks": 5,
          "midi": 48,
          "name": "C3",
          "ticks": 3170,
          "time": 36.86046511627907,
          "velocity": 0.2283464566929134
        },
        {
          "duration": 0.5,
          "durationTicks": 43,
          "midi": 63,
          "name": "D#4",
          "ticks": 3175,
          "time": 36.91860465116279,
          "velocity": 0.09448818897637795
        },
        {
          "duration": 0.19767441860465595,
          "durationTicks": 17,
          "midi": 67,
          "name": "G4",
          "ticks": 3175,
          "time": 36.91860465116279,
          "velocity": 0.09448818897637795
        },
        {
          "duration": 0.02325581395349019,
          "durationTicks": 2,
          "midi": 50,
          "name": "D3",
          "ticks": 3176,
          "time": 36.93023255813954,
          "velocity": 0.2440944881889764
        },
        {
          "duration": 0.02325581395349019,
          "durationTicks": 2,
          "midi": 48,
          "name": "C3",
          "ticks": 3179,
          "time": 36.96511627906977,
          "velocity": 0.25984251968503935
        },
        {
          "duration": 0.05813953488372192,
          "durationTicks": 5,
          "midi": 58,
          "name": "A#3",
          "ticks": 3185,
          "time": 37.03488372093023,
          "velocity": 0.10236220472440945
        },
        {
          "duration": 0.02325581395349019,
          "durationTicks": 2,
          "midi": 50,
          "name": "D3",
          "ticks": 3186,
          "time": 37.04651162790697,
          "velocity": 0.2440944881889764
        },
        {
          "duration": 0.03488372093023173,
          "durationTicks": 3,
          "midi": 51,
          "name": "D#3",
          "ticks": 3195,
          "time": 37.151162790697676,
          "velocity": 0.1968503937007874
        },
        {
          "duration": 0.03488372093023173,
          "durationTicks": 3,
          "midi": 48,
          "name": "C3",
          "ticks": 3201,
          "time": 37.22093023255814,
          "velocity": 0.30708661417322836
        },
        {
          "duration": 0.081395348837205,
          "durationTicks": 7,
          "midi": 48,
          "name": "C3",
          "ticks": 3213,
          "time": 37.36046511627907,
          "velocity": 0.2440944881889764
        },
        {
          "duration": 0.1046511627906952,
          "durationTicks": 9,
          "midi": 48,
          "name": "C3",
          "ticks": 3221,
          "time": 37.45348837209303,
          "velocity": 0.2440944881889764
        },
        {
          "duration": 0.081395348837205,
          "durationTicks": 7,
          "midi": 63,
          "name": "D#4",
          "ticks": 3224,
          "time": 37.48837209302326,
          "velocity": 0.08661417322834646
        },
        {
          "duration": 0.05813953488372192,
          "durationTicks": 5,
          "midi": 48,
          "name": "C3",
          "ticks": 3237,
          "time": 37.63953488372093,
          "velocity": 0.23622047244094488
        },
        {
          "duration": 0.3720930232558146,
          "durationTicks": 32,
          "midi": 63,
          "name": "D#4",
          "ticks": 3237,
          "time": 37.63953488372093,
          "velocity": 0.13385826771653545
        },
        {
          "duration": 0.03488372093023173,
          "durationTicks": 3,
          "midi": 51,
          "name": "D#3",
          "ticks": 3248,
          "time": 37.76744186046512,
          "velocity": 0.14960629921259844
        },
        {
          "duration": 0.03488372093023173,
          "durationTicks": 3,
          "midi": 47,
          "name": "B2",
          "ticks": 3251,
          "time": 37.80232558139535,
          "velocity": 0.28346456692913385
        },
        {
          "duration": 0.05813953488372192,
          "durationTicks": 5,
          "midi": 60,
          "name": "C4",
          "ticks": 3251,
          "time": 37.80232558139535,
          "velocity": 0.09448818897637795
        },
        {
          "duration": 0.09302325581395365,
          "durationTicks": 8,
          "midi": 48,
          "name": "C3",
          "ticks": 3256,
          "time": 37.86046511627907,
          "velocity": 0.25984251968503935
        },
        {
          "duration": 0.03488372093023173,
          "durationTicks": 3,
          "midi": 46,
          "name": "A#2",
          "ticks": 3271,
          "time": 38.03488372093023,
          "velocity": 0.15748031496062992
        },
        {
          "duration": 0.03488372093023173,
          "durationTicks": 3,
          "midi": 51,
          "name": "D#3",
          "ticks": 3276,
          "time": 38.093023255813954,
          "velocity": 0.18110236220472442
        },
        {
          "duration": 0.03488372093023173,
          "durationTicks": 3,
          "midi": 46,
          "name": "A#2",
          "ticks": 3283,
          "time": 38.174418604651166,
          "velocity": 0.1889763779527559
        },
        {
          "duration": 0.04651162790698038,
          "durationTicks": 4,
          "midi": 46,
          "name": "A#2",
          "ticks": 3287,
          "time": 38.22093023255814,
          "velocity": 0.16535433070866143
        },
        {
          "duration": 0.05813953488372192,
          "durationTicks": 5,
          "midi": 51,
          "name": "D#3",
          "ticks": 3294,
          "time": 38.30232558139535,
          "velocity": 0.18110236220472442
        },
        {
          "duration": 0.023255813953483084,
          "durationTicks": 2,
          "midi": 57,
          "name": "A3",
          "ticks": 3299,
          "time": 38.36046511627907,
          "velocity": 0.4094488188976378
        },
        {
          "duration": 0.5697674418604706,
          "durationTicks": 49,
          "midi": 44,
          "name": "G#2",
          "ticks": 3301,
          "time": 38.383720930232556,
          "velocity": 0.2677165354330709
        },
        {
          "duration": 0.06976744186047057,
          "durationTicks": 6,
          "midi": 56,
          "name": "G#3",
          "ticks": 3301,
          "time": 38.383720930232556,
          "velocity": 0.3858267716535433
        },
        {
          "duration": 0.023255813953483084,
          "durationTicks": 2,
          "midi": 57,
          "name": "A3",
          "ticks": 3307,
          "time": 38.45348837209303,
          "velocity": 0.28346456692913385
        },
        {
          "duration": 0.17441860465116577,
          "durationTicks": 15,
          "midi": 58,
          "name": "A#3",
          "ticks": 3311,
          "time": 38.5,
          "velocity": 0.2125984251968504
        },
        {
          "duration": 0.27906976744186096,
          "durationTicks": 24,
          "midi": 51,
          "name": "D#3",
          "ticks": 3327,
          "time": 38.68604651162791,
          "velocity": 0.15748031496062992
        },
        {
          "duration": 0.06976744186047057,
          "durationTicks": 6,
          "midi": 58,
          "name": "A#3",
          "ticks": 3328,
          "time": 38.69767441860465,
          "velocity": 0.07086614173228346
        },
        {
          "duration": 0.02325581395349019,
          "durationTicks": 2,
          "midi": 45,
          "name": "A2",
          "ticks": 3352,
          "time": 38.97674418604651,
          "velocity": 0.2755905511811024
        },
        {
          "duration": 0.12790697674418539,
          "durationTicks": 11,
          "midi": 63,
          "name": "D#4",
          "ticks": 3352,
          "time": 38.97674418604651,
          "velocity": 0.12598425196850394
        },
        {
          "duration": 0.12790697674418539,
          "durationTicks": 11,
          "midi": 56,
          "name": "G#3",
          "ticks": 3353,
          "time": 38.98837209302326,
          "velocity": 0.3700787401574803
        },
        {
          "duration": 0.2906976744186025,
          "durationTicks": 25,
          "midi": 44,
          "name": "G#2",
          "ticks": 3354,
          "time": 39,
          "velocity": 0.2992125984251969
        },
        {
          "duration": 0.04651162790698038,
          "durationTicks": 4,
          "midi": 51,
          "name": "D#3",
          "ticks": 3357,
          "time": 39.03488372093023,
          "velocity": 0.11023622047244094
        },
        {
          "duration": 0.2906976744186096,
          "durationTicks": 25,
          "midi": 58,
          "name": "A#3",
          "ticks": 3379,
          "time": 39.2906976744186,
          "velocity": 0.31496062992125984
        },
        {
          "duration": 0.23255813953488058,
          "durationTicks": 20,
          "midi": 44,
          "name": "G#2",
          "ticks": 3380,
          "time": 39.30232558139535,
          "velocity": 0.25196850393700787
        },
        {
          "duration": 0.08139534883721211,
          "durationTicks": 7,
          "midi": 51,
          "name": "D#3",
          "ticks": 3381,
          "time": 39.31395348837209,
          "velocity": 0.13385826771653545
        },
        {
          "duration": 0.12790697674418539,
          "durationTicks": 11,
          "midi": 51,
          "name": "D#3",
          "ticks": 3391,
          "time": 39.43023255813954,
          "velocity": 0.16535433070866143
        },
        {
          "duration": 0.5697674418604635,
          "durationTicks": 49,
          "midi": 44,
          "name": "G#2",
          "ticks": 3403,
          "time": 39.56976744186046,
          "velocity": 0.2677165354330709
        },
        {
          "duration": 0.3139534883720927,
          "durationTicks": 27,
          "midi": 62,
          "name": "D4",
          "ticks": 3403,
          "time": 39.56976744186046,
          "velocity": 0.12598425196850394
        },
        {
          "duration": 0.06976744186046346,
          "durationTicks": 6,
          "midi": 56,
          "name": "G#3",
          "ticks": 3404,
          "time": 39.58139534883721,
          "velocity": 0.3858267716535433
        },
        {
          "duration": 0.02325581395349019,
          "durationTicks": 2,
          "midi": 57,
          "name": "A3",
          "ticks": 3410,
          "time": 39.651162790697676,
          "velocity": 0.30708661417322836
        },
        {
          "duration": 0.2093023255813975,
          "durationTicks": 18,
          "midi": 58,
          "name": "A#3",
          "ticks": 3422,
          "time": 39.7906976744186,
          "velocity": 0.11023622047244094
        },
        {
          "duration": 0.046511627906973274,
          "durationTicks": 4,
          "midi": 51,
          "name": "D#3",
          "ticks": 3431,
          "time": 39.895348837209305,
          "velocity": 0.11023622047244094
        },
        {
          "duration": 0.13953488372092693,
          "durationTicks": 12,
          "midi": 62,
          "name": "D4",
          "ticks": 3445,
          "time": 40.05813953488372,
          "velocity": 0.14173228346456693
        },
        {
          "duration": 0.04651162790698038,
          "durationTicks": 4,
          "midi": 51,
          "name": "D#3",
          "ticks": 3446,
          "time": 40.06976744186046,
          "velocity": 0.11023622047244094
        },
        {
          "duration": 0.05813953488372192,
          "durationTicks": 5,
          "midi": 58,
          "name": "A#3",
          "ticks": 3446,
          "time": 40.06976744186046,
          "velocity": 0.07086614173228346
        },
        {
          "duration": 0.03488372093023173,
          "durationTicks": 3,
          "midi": 51,
          "name": "D#3",
          "ticks": 3451,
          "time": 40.127906976744185,
          "velocity": 0.11811023622047244
        },
        {
          "duration": 0.1046511627906952,
          "durationTicks": 9,
          "midi": 56,
          "name": "G#3",
          "ticks": 3455,
          "time": 40.174418604651166,
          "velocity": 0.3543307086614173
        },
        {
          "duration": 0.5232558139534902,
          "durationTicks": 45,
          "midi": 44,
          "name": "G#2",
          "ticks": 3456,
          "time": 40.18604651162791,
          "velocity": 0.2992125984251969
        },
        {
          "duration": 0.03488372093023173,
          "durationTicks": 3,
          "midi": 62,
          "name": "D4",
          "ticks": 3459,
          "time": 40.22093023255814,
          "velocity": 0.10236220472440945
        },
        {
          "duration": 0.2906976744186025,
          "durationTicks": 25,
          "midi": 51,
          "name": "D#3",
          "ticks": 3479,
          "time": 40.45348837209303,
          "velocity": 0.1732283464566929
        },
        {
          "duration": 0.22093023255813904,
          "durationTicks": 19,
          "midi": 56,
          "name": "G#3",
          "ticks": 3504,
          "time": 40.74418604651163,
          "velocity": 0.3543307086614173
        },
        {
          "duration": 0.2674418604651123,
          "durationTicks": 23,
          "midi": 44,
          "name": "G#2",
          "ticks": 3506,
          "time": 40.76744186046512,
          "velocity": 0.31496062992125984
        },
        {
          "duration": 0.023255813953483084,
          "durationTicks": 2,
          "midi": 57,
          "name": "A3",
          "ticks": 3528,
          "time": 41.02325581395349,
          "velocity": 0.25984251968503935
        },
        {
          "duration": 0.2558139534883779,
          "durationTicks": 22,
          "midi": 44,
          "name": "G#2",
          "ticks": 3530,
          "time": 41.04651162790697,
          "velocity": 0.2755905511811024
        },
        {
          "duration": 0.30232558139535115,
          "durationTicks": 26,
          "midi": 58,
          "name": "A#3",
          "ticks": 3530,
          "time": 41.04651162790697,
          "velocity": 0.25984251968503935
        },
        {
          "duration": 0.081395348837205,
          "durationTicks": 7,
          "midi": 51,
          "name": "D#3",
          "ticks": 3533,
          "time": 41.08139534883721,
          "velocity": 0.13385826771653545
        },
        {
          "duration": 0.08139534883721211,
          "durationTicks": 7,
          "midi": 51,
          "name": "D#3",
          "ticks": 3543,
          "time": 41.19767441860465,
          "velocity": 0.11811023622047244
        },
        {
          "duration": 0.03488372093023173,
          "durationTicks": 3,
          "midi": 51,
          "name": "D#3",
          "ticks": 3553,
          "time": 41.31395348837209,
          "velocity": 0.2283464566929134
        },
        {
          "duration": 0.30232558139534405,
          "durationTicks": 26,
          "midi": 44,
          "name": "G#2",
          "ticks": 3557,
          "time": 41.36046511627907,
          "velocity": 0.2992125984251969
        },
        {
          "duration": 0.05813953488372192,
          "durationTicks": 5,
          "midi": 56,
          "name": "G#3",
          "ticks": 3558,
          "time": 41.372093023255815,
          "velocity": 0.3937007874015748
        },
        {
          "duration": 0.02325581395349019,
          "durationTicks": 2,
          "midi": 57,
          "name": "A3",
          "ticks": 3566,
          "time": 41.46511627906977,
          "velocity": 0.23622047244094488
        },
        {
          "duration": 0.03488372093023884,
          "durationTicks": 3,
          "midi": 57,
          "name": "A3",
          "ticks": 3581,
          "time": 41.63953488372093,
          "velocity": 0.2677165354330709
        },
        {
          "duration": 0.23255813953488058,
          "durationTicks": 20,
          "midi": 44,
          "name": "G#2",
          "ticks": 3584,
          "time": 41.674418604651166,
          "velocity": 0.2440944881889764
        },
        {
          "duration": 0.2674418604651123,
          "durationTicks": 23,
          "midi": 58,
          "name": "A#3",
          "ticks": 3584,
          "time": 41.674418604651166,
          "velocity": 0.2283464566929134
        },
        {
          "duration": 0.1046511627907023,
          "durationTicks": 9,
          "midi": 51,
          "name": "D#3",
          "ticks": 3589,
          "time": 41.73255813953488,
          "velocity": 0.13385826771653545
        },
        {
          "duration": 0.04651162790698038,
          "durationTicks": 4,
          "midi": 51,
          "name": "D#3",
          "ticks": 3599,
          "time": 41.848837209302324,
          "velocity": 0.11811023622047244
        },
        {
          "duration": 0.02325581395349019,
          "durationTicks": 2,
          "midi": 55,
          "name": "G3",
          "ticks": 3607,
          "time": 41.94186046511628,
          "velocity": 0.36220472440944884
        },
        {
          "duration": 0.5465116279069733,
          "durationTicks": 47,
          "midi": 44,
          "name": "G#2",
          "ticks": 3608,
          "time": 41.95348837209303,
          "velocity": 0.2992125984251969
        },
        {
          "duration": 0.09302325581395365,
          "durationTicks": 8,
          "midi": 56,
          "name": "G#3",
          "ticks": 3609,
          "time": 41.96511627906977,
          "velocity": 0.4015748031496063
        },
        {
          "duration": 0.03488372093023173,
          "durationTicks": 3,
          "midi": 62,
          "name": "D4",
          "ticks": 3610,
          "time": 41.97674418604651,
          "velocity": 0.09448818897637795
        },
        {
          "duration": 0.03488372093023173,
          "durationTicks": 3,
          "midi": 62,
          "name": "D4",
          "ticks": 3614,
          "time": 42.02325581395349,
          "velocity": 0.11811023622047244
        },
        {
          "duration": 0.02325581395349019,
          "durationTicks": 2,
          "midi": 57,
          "name": "A3",
          "ticks": 3617,
          "time": 42.05813953488372,
          "velocity": 0.2283464566929134
        },
        {
          "duration": 0.03488372093023173,
          "durationTicks": 3,
          "midi": 62,
          "name": "D4",
          "ticks": 3619,
          "time": 42.08139534883721,
          "velocity": 0.11023622047244094
        },
        {
          "duration": 0.03488372093023173,
          "durationTicks": 3,
          "midi": 62,
          "name": "D4",
          "ticks": 3623,
          "time": 42.127906976744185,
          "velocity": 0.11811023622047244
        },
        {
          "duration": 0.19767441860464885,
          "durationTicks": 17,
          "midi": 58,
          "name": "A#3",
          "ticks": 3627,
          "time": 42.174418604651166,
          "velocity": 0.09448818897637795
        },
        {
          "duration": 0.081395348837205,
          "durationTicks": 7,
          "midi": 51,
          "name": "D#3",
          "ticks": 3635,
          "time": 42.26744186046512,
          "velocity": 0.11023622047244094
        },
        {
          "duration": 0.22093023255813904,
          "durationTicks": 19,
          "midi": 62,
          "name": "D4",
          "ticks": 3645,
          "time": 42.383720930232556,
          "velocity": 0.18110236220472442
        },
        {
          "duration": 0.05813953488372192,
          "durationTicks": 5,
          "midi": 51,
          "name": "D#3",
          "ticks": 3647,
          "time": 42.406976744186046,
          "velocity": 0.11811023622047244
        },
        {
          "duration": 0.05813953488372192,
          "durationTicks": 5,
          "midi": 58,
          "name": "A#3",
          "ticks": 3647,
          "time": 42.406976744186046,
          "velocity": 0.08661417322834646
        },
        {
          "duration": 0.15116279069767558,
          "durationTicks": 13,
          "midi": 56,
          "name": "G#3",
          "ticks": 3657,
          "time": 42.52325581395349,
          "velocity": 0.3543307086614173
        },
        {
          "duration": 0.2558139534883779,
          "durationTicks": 22,
          "midi": 44,
          "name": "G#2",
          "ticks": 3659,
          "time": 42.54651162790697,
          "velocity": 0.28346456692913385
        },
        {
          "duration": 0.12790697674418539,
          "durationTicks": 11,
          "midi": 62,
          "name": "D4",
          "ticks": 3665,
          "time": 42.616279069767444,
          "velocity": 0.14960629921259844
        },
        {
          "duration": 0.27906976744186096,
          "durationTicks": 24,
          "midi": 51,
          "name": "D#3",
          "ticks": 3684,
          "time": 42.83720930232558,
          "velocity": 0.18110236220472442
        },
        {
          "duration": 0.3372093023255829,
          "durationTicks": 29,
          "midi": 43,
          "name": "G2",
          "ticks": 3708,
          "time": 43.116279069767444,
          "velocity": 0.1968503937007874
        },
        {
          "duration": 0.2906976744186025,
          "durationTicks": 25,
          "midi": 55,
          "name": "G3",
          "ticks": 3708,
          "time": 43.116279069767444,
          "velocity": 0.3700787401574803
        },
        {
          "duration": 0.06976744186046346,
          "durationTicks": 6,
          "midi": 58,
          "name": "A#3",
          "ticks": 3729,
          "time": 43.36046511627907,
          "velocity": 0.1889763779527559
        },
        {
          "duration": 0.06976744186046346,
          "durationTicks": 6,
          "midi": 51,
          "name": "D#3",
          "ticks": 3738,
          "time": 43.46511627906977,
          "velocity": 0.13385826771653545
        },
        {
          "duration": 0.24418604651162923,
          "durationTicks": 21,
          "midi": 58,
          "name": "A#3",
          "ticks": 3738,
          "time": 43.46511627906977,
          "velocity": 0.13385826771653545
        },
        {
          "duration": 0.19767441860465595,
          "durationTicks": 17,
          "midi": 43,
          "name": "G2",
          "ticks": 3739,
          "time": 43.47674418604651,
          "velocity": 0.1732283464566929
        },
        {
          "duration": 0.16279069767442422,
          "durationTicks": 14,
          "midi": 51,
          "name": "D#3",
          "ticks": 3745,
          "time": 43.54651162790697,
          "velocity": 0.1732283464566929
        },
        {
          "duration": 0.2674418604651194,
          "durationTicks": 23,
          "midi": 55,
          "name": "G3",
          "ticks": 3760,
          "time": 43.72093023255814,
          "velocity": 0.3700787401574803
        },
        {
          "duration": 0.03488372093023884,
          "durationTicks": 3,
          "midi": 44,
          "name": "G#2",
          "ticks": 3761,
          "time": 43.73255813953488,
          "velocity": 0.1889763779527559
        },
        {
          "duration": 0.23255813953488058,
          "durationTicks": 20,
          "midi": 43,
          "name": "G2",
          "ticks": 3764,
          "time": 43.76744186046512,
          "velocity": 0.18110236220472442
        },
        {
          "duration": 0.02325581395349019,
          "durationTicks": 2,
          "midi": 57,
          "name": "A3",
          "ticks": 3785,
          "time": 44.01162790697674,
          "velocity": 0.30708661417322836
        },
        {
          "duration": 0.03488372093023173,
          "durationTicks": 3,
          "midi": 44,
          "name": "G#2",
          "ticks": 3786,
          "time": 44.02325581395349,
          "velocity": 0.25984251968503935
        },
        {
          "duration": 0.27906976744186096,
          "durationTicks": 24,
          "midi": 58,
          "name": "A#3",
          "ticks": 3787,
          "time": 44.03488372093023,
          "velocity": 0.2283464566929134
        },
        {
          "duration": 0.24418604651162923,
          "durationTicks": 21,
          "midi": 51,
          "name": "D#3",
          "ticks": 3788,
          "time": 44.04651162790697,
          "velocity": 0.14960629921259844
        },
        {
          "duration": 0.03488372093023173,
          "durationTicks": 3,
          "midi": 43,
          "name": "G2",
          "ticks": 3789,
          "time": 44.05813953488372,
          "velocity": 0.15748031496062992
        },
        {
          "duration": 0.17441860465115866,
          "durationTicks": 15,
          "midi": 43,
          "name": "G2",
          "ticks": 3794,
          "time": 44.116279069767444,
          "velocity": 0.14960629921259844
        },
        {
          "duration": 0.19767441860465595,
          "durationTicks": 17,
          "midi": 55,
          "name": "G3",
          "ticks": 3809,
          "time": 44.2906976744186,
          "velocity": 0.31496062992125984
        },
        {
          "duration": 0.03488372093023173,
          "durationTicks": 3,
          "midi": 62,
          "name": "D4",
          "ticks": 3811,
          "time": 44.31395348837209,
          "velocity": 0.07874015748031496
        },
        {
          "duration": 0.2674418604651194,
          "durationTicks": 23,
          "midi": 43,
          "name": "G2",
          "ticks": 3814,
          "time": 44.348837209302324,
          "velocity": 0.2204724409448819
        },
        {
          "duration": 0.22093023255813904,
          "durationTicks": 19,
          "midi": 62,
          "name": "D4",
          "ticks": 3816,
          "time": 44.372093023255815,
          "velocity": 0.09448818897637795
        },
        {
          "duration": 0.09302325581395365,
          "durationTicks": 8,
          "midi": 58,
          "name": "A#3",
          "ticks": 3829,
          "time": 44.52325581395349,
          "velocity": 0.13385826771653545
        },
        {
          "duration": 0.11627906976743674,
          "durationTicks": 10,
          "midi": 51,
          "name": "D#3",
          "ticks": 3837,
          "time": 44.616279069767444,
          "velocity": 0.11811023622047244
        },
        {
          "duration": 0.03488372093023173,
          "durationTicks": 3,
          "midi": 62,
          "name": "D4",
          "ticks": 3837,
          "time": 44.616279069767444,
          "velocity": 0.07874015748031496
        },
        {
          "duration": 0.11627906976744384,
          "durationTicks": 10,
          "midi": 43,
          "name": "G2",
          "ticks": 3838,
          "time": 44.627906976744185,
          "velocity": 0.1889763779527559
        },
        {
          "duration": 0.11627906976744384,
          "durationTicks": 10,
          "midi": 58,
          "name": "A#3",
          "ticks": 3838,
          "time": 44.627906976744185,
          "velocity": 0.18110236220472442
        },
        {
          "duration": 0.13953488372093403,
          "durationTicks": 12,
          "midi": 51,
          "name": "D#3",
          "ticks": 3849,
          "time": 44.75581395348837,
          "velocity": 0.11023622047244094
        },
        {
          "duration": 0.3488372093023244,
          "durationTicks": 30,
          "midi": 62,
          "name": "D4",
          "ticks": 3850,
          "time": 44.76744186046512,
          "velocity": 0.14960629921259844
        },
        {
          "duration": 0.08139534883721211,
          "durationTicks": 7,
          "midi": 43,
          "name": "G2",
          "ticks": 3851,
          "time": 44.77906976744186,
          "velocity": 0.1732283464566929
        },
        {
          "duration": 0.11627906976744384,
          "durationTicks": 10,
          "midi": 58,
          "name": "A#3",
          "ticks": 3851,
          "time": 44.77906976744186,
          "velocity": 0.08661417322834646
        },
        {
          "duration": 0.04651162790698038,
          "durationTicks": 4,
          "midi": 43,
          "name": "G2",
          "ticks": 3860,
          "time": 44.883720930232556,
          "velocity": 0.1732283464566929
        },
        {
          "duration": 0.2674418604651194,
          "durationTicks": 23,
          "midi": 55,
          "name": "G3",
          "ticks": 3862,
          "time": 44.906976744186046,
          "velocity": 0.3464566929133858
        },
        {
          "duration": 0.5,
          "durationTicks": 43,
          "midi": 43,
          "name": "G2",
          "ticks": 3865,
          "time": 44.94186046511628,
          "velocity": 0.2047244094488189
        },
        {
          "duration": 0.03488372093023173,
          "durationTicks": 3,
          "midi": 51,
          "name": "D#3",
          "ticks": 3886,
          "time": 45.18604651162791,
          "velocity": 0.16535433070866143
        },
        {
          "duration": 0.2325581395348877,
          "durationTicks": 20,
          "midi": 51,
          "name": "D#3",
          "ticks": 3890,
          "time": 45.23255813953488,
          "velocity": 0.1732283464566929
        },
        {
          "duration": 0.2906976744186096,
          "durationTicks": 25,
          "midi": 55,
          "name": "G3",
          "ticks": 3911,
          "time": 45.47674418604651,
          "velocity": 0.3700787401574803
        },
        {
          "duration": 0.2906976744186025,
          "durationTicks": 25,
          "midi": 43,
          "name": "G2",
          "ticks": 3913,
          "time": 45.5,
          "velocity": 0.2440944881889764
        },
        {
          "duration": 0.27906976744186096,
          "durationTicks": 24,
          "midi": 51,
          "name": "D#3",
          "ticks": 3938,
          "time": 45.7906976744186,
          "velocity": 0.25984251968503935
        },
        {
          "duration": 0.2906976744186096,
          "durationTicks": 25,
          "midi": 58,
          "name": "A#3",
          "ticks": 3938,
          "time": 45.7906976744186,
          "velocity": 0.25196850393700787
        },
        {
          "duration": 0.22093023255813904,
          "durationTicks": 19,
          "midi": 43,
          "name": "G2",
          "ticks": 3939,
          "time": 45.80232558139535,
          "velocity": 0.1968503937007874
        },
        {
          "duration": 0.03488372093023173,
          "durationTicks": 3,
          "midi": 44,
          "name": "G#2",
          "ticks": 3958,
          "time": 46.02325581395349,
          "velocity": 0.15748031496062992
        },
        {
          "duration": 0.25581395348837077,
          "durationTicks": 22,
          "midi": 55,
          "name": "G3",
          "ticks": 3963,
          "time": 46.08139534883721,
          "velocity": 0.3700787401574803
        },
        {
          "duration": 0.22093023255813904,
          "durationTicks": 19,
          "midi": 43,
          "name": "G2",
          "ticks": 3964,
          "time": 46.093023255813954,
          "velocity": 0.1732283464566929
        },
        {
          "duration": 0.03488372093023173,
          "durationTicks": 3,
          "midi": 63,
          "name": "D#4",
          "ticks": 3965,
          "time": 46.104651162790695,
          "velocity": 0.11811023622047244
        },
        {
          "duration": 0.03488372093023173,
          "durationTicks": 3,
          "midi": 63,
          "name": "D#4",
          "ticks": 3970,
          "time": 46.16279069767442,
          "velocity": 0.11811023622047244
        },
        {
          "duration": 0.03488372093023173,
          "durationTicks": 3,
          "midi": 63,
          "name": "D#4",
          "ticks": 3975,
          "time": 46.22093023255814,
          "velocity": 0.10236220472440945
        },
        {
          "duration": 0.03488372093023173,
          "durationTicks": 3,
          "midi": 63,
          "name": "D#4",
          "ticks": 3980,
          "time": 46.27906976744186,
          "velocity": 0.08661417322834646
        },
        {
          "duration": 0.046511627906973274,
          "durationTicks": 4,
          "midi": 43,
          "name": "G2",
          "ticks": 3985,
          "time": 46.33720930232558,
          "velocity": 0.2440944881889764
        },
        {
          "duration": 0.046511627906973274,
          "durationTicks": 4,
          "midi": 63,
          "name": "D#4",
          "ticks": 3985,
          "time": 46.33720930232558,
          "velocity": 0.11811023622047244
        },
        {
          "duration": 0.03488372093023173,
          "durationTicks": 3,
          "midi": 58,
          "name": "A#3",
          "ticks": 3986,
          "time": 46.348837209302324,
          "velocity": 0.12598425196850394
        },
        {
          "duration": 0.046511627906973274,
          "durationTicks": 4,
          "midi": 51,
          "name": "D#3",
          "ticks": 3987,
          "time": 46.36046511627907,
          "velocity": 0.15748031496062992
        },
        {
          "duration": 0.02325581395349019,
          "durationTicks": 2,
          "midi": 44,
          "name": "G#2",
          "ticks": 3989,
          "time": 46.383720930232556,
          "velocity": 0.25196850393700787
        },
        {
          "duration": 0.19767441860465595,
          "durationTicks": 17,
          "midi": 67,
          "name": "G4",
          "ticks": 3989,
          "time": 46.383720930232556,
          "velocity": 0.09448818897637795
        },
        {
          "duration": 0.03488372093023173,
          "durationTicks": 3,
          "midi": 63,
          "name": "D#4",
          "ticks": 3991,
          "time": 46.406976744186046,
          "velocity": 0.13385826771653545
        },
        {
          "duration": 0.04651162790698038,
          "durationTicks": 4,
          "midi": 58,
          "name": "A#3",
          "ticks": 3992,
          "time": 46.41860465116279,
          "velocity": 0.11023622047244094
        },
        {
          "duration": 0.2093023255813975,
          "durationTicks": 18,
          "midi": 51,
          "name": "D#3",
          "ticks": 3994,
          "time": 46.44186046511628,
          "velocity": 0.14960629921259844
        },
        {
          "duration": 0.17441860465115866,
          "durationTicks": 15,
          "midi": 43,
          "name": "G2",
          "ticks": 3996,
          "time": 46.46511627906977,
          "velocity": 0.18110236220472442
        },
        {
          "duration": 0.12790697674418539,
          "durationTicks": 11,
          "midi": 58,
          "name": "A#3",
          "ticks": 4001,
          "time": 46.52325581395349,
          "velocity": 0.07874015748031496
        },
        {
          "duration": 0.3372093023255829,
          "durationTicks": 29,
          "midi": 55,
          "name": "G3",
          "ticks": 4013,
          "time": 46.66279069767442,
          "velocity": 0.3779527559055118
        },
        {
          "duration": 0.046511627906973274,
          "durationTicks": 4,
          "midi": 44,
          "name": "G#2",
          "ticks": 4014,
          "time": 46.674418604651166,
          "velocity": 0.2283464566929134
        },
        {
          "duration": 0.03488372093023173,
          "durationTicks": 3,
          "midi": 63,
          "name": "D#4",
          "ticks": 4014,
          "time": 46.674418604651166,
          "velocity": 0.12598425196850394
        },
        {
          "duration": 0.2325581395348877,
          "durationTicks": 20,
          "midi": 43,
          "name": "G2",
          "ticks": 4018,
          "time": 46.72093023255814,
          "velocity": 0.2125984251968504
        },
        {
          "duration": 0.03488372093023884,
          "durationTicks": 3,
          "midi": 63,
          "name": "D#4",
          "ticks": 4019,
          "time": 46.73255813953488,
          "velocity": 0.11023622047244094
        },
        {
          "duration": 0.03488372093023173,
          "durationTicks": 3,
          "midi": 63,
          "name": "D#4",
          "ticks": 4024,
          "time": 46.7906976744186,
          "velocity": 0.09448818897637795
        },
        {
          "duration": 0.1860465116279073,
          "durationTicks": 16,
          "midi": 43,
          "name": "G2",
          "ticks": 4039,
          "time": 46.96511627906977,
          "velocity": 0.2204724409448819
        },
        {
          "duration": 0.03488372093023173,
          "durationTicks": 3,
          "midi": 51,
          "name": "D#3",
          "ticks": 4041,
          "time": 46.98837209302326,
          "velocity": 0.11023622047244094
        },
        {
          "duration": 0.2093023255813975,
          "durationTicks": 18,
          "midi": 51,
          "name": "D#3",
          "ticks": 4045,
          "time": 47.03488372093023,
          "velocity": 0.11811023622047244
        },
        {
          "duration": 0.1860465116279073,
          "durationTicks": 16,
          "midi": 63,
          "name": "D#4",
          "ticks": 4052,
          "time": 47.116279069767444,
          "velocity": 0.14960629921259844
        },
        {
          "duration": 0.04651162790698038,
          "durationTicks": 4,
          "midi": 43,
          "name": "G2",
          "ticks": 4056,
          "time": 47.16279069767442,
          "velocity": 0.1889763779527559
        },
        {
          "duration": 0.03488372093023173,
          "durationTicks": 3,
          "midi": 44,
          "name": "G#2",
          "ticks": 4060,
          "time": 47.2093023255814,
          "velocity": 0.18110236220472442
        },
        {
          "duration": 0.3372093023255829,
          "durationTicks": 29,
          "midi": 55,
          "name": "G3",
          "ticks": 4063,
          "time": 47.24418604651163,
          "velocity": 0.36220472440944884
        },
        {
          "duration": 0.27906976744186096,
          "durationTicks": 24,
          "midi": 43,
          "name": "G2",
          "ticks": 4066,
          "time": 47.27906976744186,
          "velocity": 0.1889763779527559
        },
        {
          "duration": 0.03488372093023173,
          "durationTicks": 3,
          "midi": 63,
          "name": "D#4",
          "ticks": 4080,
          "time": 47.44186046511628,
          "velocity": 0.10236220472440945
        },
        {
          "duration": 0.03488372093023173,
          "durationTicks": 3,
          "midi": 44,
          "name": "G#2",
          "ticks": 4090,
          "time": 47.55813953488372,
          "velocity": 0.2677165354330709
        },
        {
          "duration": 0.03488372093023173,
          "durationTicks": 3,
          "midi": 63,
          "name": "D#4",
          "ticks": 4090,
          "time": 47.55813953488372,
          "velocity": 0.13385826771653545
        },
        {
          "duration": 0.2674418604651194,
          "durationTicks": 23,
          "midi": 51,
          "name": "D#3",
          "ticks": 4091,
          "time": 47.56976744186046,
          "velocity": 0.18110236220472442
        },
        {
          "duration": 0.03488372093023173,
          "durationTicks": 3,
          "midi": 43,
          "name": "G2",
          "ticks": 4093,
          "time": 47.593023255813954,
          "velocity": 0.1732283464566929
        },
        {
          "duration": 0.15116279069767558,
          "durationTicks": 13,
          "midi": 43,
          "name": "G2",
          "ticks": 4098,
          "time": 47.651162790697676,
          "velocity": 0.1732283464566929
        },
        {
          "duration": 0.046511627906973274,
          "durationTicks": 4,
          "midi": 56,
          "name": "G#3",
          "ticks": 4116,
          "time": 47.86046511627907,
          "velocity": 0.4015748031496063
        },
        {
          "duration": 0.5465116279069804,
          "durationTicks": 47,
          "midi": 44,
          "name": "G#2",
          "ticks": 4118,
          "time": 47.883720930232556,
          "velocity": 0.29133858267716534
        },
        {
          "duration": 0.02325581395349019,
          "durationTicks": 2,
          "midi": 57,
          "name": "A3",
          "ticks": 4123,
          "time": 47.94186046511628,
          "velocity": 0.2755905511811024
        },
        {
          "duration": 0.16279069767441712,
          "durationTicks": 14,
          "midi": 58,
          "name": "A#3",
          "ticks": 4127,
          "time": 47.98837209302326,
          "velocity": 0.2125984251968504
        },
        {
          "duration": 0.2906976744186025,
          "durationTicks": 25,
          "midi": 51,
          "name": "D#3",
          "ticks": 4141,
          "time": 48.151162790697676,
          "velocity": 0.14960629921259844
        },
        {
          "duration": 0.2906976744186096,
          "durationTicks": 25,
          "midi": 58,
          "name": "A#3",
          "ticks": 4142,
          "time": 48.16279069767442,
          "velocity": 0.18110236220472442
        },
        {
          "duration": 0.023255813953483084,
          "durationTicks": 2,
          "midi": 55,
          "name": "G3",
          "ticks": 4167,
          "time": 48.45348837209303,
          "velocity": 0.3700787401574803
        },
        {
          "duration": 0.03488372093023173,
          "durationTicks": 3,
          "midi": 45,
          "name": "A2",
          "ticks": 4168,
          "time": 48.46511627906977,
          "velocity": 0.2992125984251969
        },
        {
          "duration": 0.09302325581395365,
          "durationTicks": 8,
          "midi": 56,
          "name": "G#3",
          "ticks": 4169,
          "time": 48.47674418604651,
          "velocity": 0.3779527559055118
        },
        {
          "duration": 0.2674418604651194,
          "durationTicks": 23,
          "midi": 44,
          "name": "G#2",
          "ticks": 4171,
          "time": 48.5,
          "velocity": 0.28346456692913385
        },
        {
          "duration": 0.04651162790698038,
          "durationTicks": 4,
          "midi": 51,
          "name": "D#3",
          "ticks": 4175,
          "time": 48.54651162790697,
          "velocity": 0.07874015748031496
        },
        {
          "duration": 0.27906976744185386,
          "durationTicks": 24,
          "midi": 58,
          "name": "A#3",
          "ticks": 4194,
          "time": 48.76744186046512,
          "velocity": 0.29133858267716534
        },
        {
          "duration": 0.24418604651162923,
          "durationTicks": 21,
          "midi": 44,
          "name": "G#2",
          "ticks": 4195,
          "time": 48.77906976744186,
          "velocity": 0.2204724409448819
        },
        {
          "duration": 0.08139534883721211,
          "durationTicks": 7,
          "midi": 51,
          "name": "D#3",
          "ticks": 4199,
          "time": 48.825581395348834,
          "velocity": 0.10236220472440945
        },
        {
          "duration": 0.05813953488372192,
          "durationTicks": 5,
          "midi": 51,
          "name": "D#3",
          "ticks": 4212,
          "time": 48.97674418604651,
          "velocity": 0.09448818897637795
        },
        {
          "duration": 0.5348837209302317,
          "durationTicks": 46,
          "midi": 44,
          "name": "G#2",
          "ticks": 4220,
          "time": 49.06976744186046,
          "velocity": 0.28346456692913385
        },
        {
          "duration": 0.09302325581395365,
          "durationTicks": 8,
          "midi": 56,
          "name": "G#3",
          "ticks": 4220,
          "time": 49.06976744186046,
          "velocity": 0.3937007874015748
        },
        {
          "duration": 0.03488372093023173,
          "durationTicks": 3,
          "midi": 62,
          "name": "D4",
          "ticks": 4227,
          "time": 49.151162790697676,
          "velocity": 0.08661417322834646
        },
        {
          "duration": 0.03488372093023173,
          "durationTicks": 3,
          "midi": 62,
          "name": "D4",
          "ticks": 4236,
          "time": 49.25581395348837,
          "velocity": 0.09448818897637795
        },
        {
          "duration": 0.1860465116279073,
          "durationTicks": 16,
          "midi": 58,
          "name": "A#3",
          "ticks": 4239,
          "time": 49.2906976744186,
          "velocity": 0.11811023622047244
        },
        {
          "duration": 0.04651162790698038,
          "durationTicks": 4,
          "midi": 62,
          "name": "D4",
          "ticks": 4258,
          "time": 49.51162790697674,
          "velocity": 0.14173228346456693
        },
        {
          "duration": 0.27906976744186096,
          "durationTicks": 24,
          "midi": 62,
          "name": "D4",
          "ticks": 4263,
          "time": 49.56976744186046,
          "velocity": 0.13385826771653545
        },
        {
          "duration": 0.1279069767441925,
          "durationTicks": 11,
          "midi": 56,
          "name": "G#3",
          "ticks": 4269,
          "time": 49.63953488372093,
          "velocity": 0.36220472440944884
        },
        {
          "duration": 0.27906976744186096,
          "durationTicks": 24,
          "midi": 44,
          "name": "G#2",
          "ticks": 4270,
          "time": 49.651162790697676,
          "velocity": 0.2755905511811024
        },
        {
          "duration": 0.22093023255813904,
          "durationTicks": 19,
          "midi": 44,
          "name": "G#2",
          "ticks": 4297,
          "time": 49.96511627906977,
          "velocity": 0.2677165354330709
        },
        {
          "duration": 0.23255813953488058,
          "durationTicks": 20,
          "midi": 51,
          "name": "D#3",
          "ticks": 4299,
          "time": 49.98837209302326,
          "velocity": 0.16535433070866143
        },
        {
          "duration": 0.023255813953483084,
          "durationTicks": 2,
          "midi": 55,
          "name": "G3",
          "ticks": 4318,
          "time": 50.2093023255814,
          "velocity": 0.3228346456692913
        },
        {
          "duration": 0.5465116279069804,
          "durationTicks": 47,
          "midi": 44,
          "name": "G#2",
          "ticks": 4320,
          "time": 50.23255813953488,
          "velocity": 0.2755905511811024
        },
        {
          "duration": 0.13953488372093403,
          "durationTicks": 12,
          "midi": 56,
          "name": "G#3",
          "ticks": 4320,
          "time": 50.23255813953488,
          "velocity": 0.3779527559055118
        },
        {
          "duration": 0.04651162790698038,
          "durationTicks": 4,
          "midi": 51,
          "name": "D#3",
          "ticks": 4327,
          "time": 50.31395348837209,
          "velocity": 0.10236220472440945
        },
        {
          "duration": 0.04651162790698038,
          "durationTicks": 4,
          "midi": 51,
          "name": "D#3",
          "ticks": 4335,
          "time": 50.406976744186046,
          "velocity": 0.10236220472440945
        },
        {
          "duration": 0.2674418604651194,
          "durationTicks": 23,
          "midi": 58,
          "name": "A#3",
          "ticks": 4346,
          "time": 50.53488372093023,
          "velocity": 0.28346456692913385
        },
        {
          "duration": 0.2558139534883779,
          "durationTicks": 22,
          "midi": 51,
          "name": "D#3",
          "ticks": 4347,
          "time": 50.54651162790697,
          "velocity": 0.15748031496062992
        },
        {
          "duration": 0.2906976744186096,
          "durationTicks": 25,
          "midi": 44,
          "name": "G#2",
          "ticks": 4371,
          "time": 50.825581395348834,
          "velocity": 0.25984251968503935
        },
        {
          "duration": 0.02325581395349019,
          "durationTicks": 2,
          "midi": 56,
          "name": "G#3",
          "ticks": 4371,
          "time": 50.825581395348834,
          "velocity": 0.31496062992125984
        },
        {
          "duration": 0.02325581395349019,
          "durationTicks": 2,
          "midi": 57,
          "name": "A3",
          "ticks": 4373,
          "time": 50.848837209302324,
          "velocity": 0.31496062992125984
        },
        {
          "duration": 0.02325581395349019,
          "durationTicks": 2,
          "midi": 57,
          "name": "A3",
          "ticks": 4376,
          "time": 50.883720930232556,
          "velocity": 0.2440944881889764
        },
        {
          "duration": 0.046511627906973274,
          "durationTicks": 4,
          "midi": 51,
          "name": "D#3",
          "ticks": 4377,
          "time": 50.895348837209305,
          "velocity": 0.11023622047244094
        },
        {
          "duration": 0.11627906976743674,
          "durationTicks": 10,
          "midi": 58,
          "name": "A#3",
          "ticks": 4380,
          "time": 50.93023255813954,
          "velocity": 0.18110236220472442
        },
        {
          "duration": 0.04651162790698038,
          "durationTicks": 4,
          "midi": 51,
          "name": "D#3",
          "ticks": 4387,
          "time": 51.01162790697674,
          "velocity": 0.10236220472440945
        },
        {
          "duration": 0.2906976744186025,
          "durationTicks": 25,
          "midi": 58,
          "name": "A#3",
          "ticks": 4397,
          "time": 51.127906976744185,
          "velocity": 0.28346456692913385
        },
        {
          "duration": 0.22093023255813904,
          "durationTicks": 19,
          "midi": 44,
          "name": "G#2",
          "ticks": 4399,
          "time": 51.151162790697676,
          "velocity": 0.23622047244094488
        },
        {
          "duration": 0.22093023255813904,
          "durationTicks": 19,
          "midi": 51,
          "name": "D#3",
          "ticks": 4401,
          "time": 51.174418604651166,
          "velocity": 0.14173228346456693
        },
        {
          "duration": 0.05813953488372192,
          "durationTicks": 5,
          "midi": 45,
          "name": "A2",
          "ticks": 4418,
          "time": 51.372093023255815,
          "velocity": 0.25196850393700787
        },
        {
          "duration": 0.5232558139534902,
          "durationTicks": 45,
          "midi": 44,
          "name": "G#2",
          "ticks": 4423,
          "time": 51.43023255813954,
          "velocity": 0.29133858267716534
        },
        {
          "duration": 0.04651162790698038,
          "durationTicks": 4,
          "midi": 56,
          "name": "G#3",
          "ticks": 4424,
          "time": 51.44186046511628,
          "velocity": 0.3858267716535433
        },
        {
          "duration": 0.023255813953483084,
          "durationTicks": 2,
          "midi": 57,
          "name": "A3",
          "ticks": 4431,
          "time": 51.52325581395349,
          "velocity": 0.25984251968503935
        },
        {
          "duration": 0.03488372093023173,
          "durationTicks": 3,
          "midi": 58,
          "name": "A#3",
          "ticks": 4434,
          "time": 51.55813953488372,
          "velocity": 0.18110236220472442
        },
        {
          "duration": 0.19767441860464885,
          "durationTicks": 17,
          "midi": 58,
          "name": "A#3",
          "ticks": 4439,
          "time": 51.616279069767444,
          "velocity": 0.14960629921259844
        },
        {
          "duration": 0.03488372093023173,
          "durationTicks": 3,
          "midi": 62,
          "name": "D4",
          "ticks": 4444,
          "time": 51.674418604651166,
          "velocity": 0.09448818897637795
        },
        {
          "duration": 0.04651162790698038,
          "durationTicks": 4,
          "midi": 51,
          "name": "D#3",
          "ticks": 4448,
          "time": 51.72093023255814,
          "velocity": 0.08661417322834646
        },
        {
          "duration": 0.046511627906973274,
          "durationTicks": 4,
          "midi": 51,
          "name": "D#3",
          "ticks": 4458,
          "time": 51.83720930232558,
          "velocity": 0.08661417322834646
        },
        {
          "duration": 0.32558139534883423,
          "durationTicks": 28,
          "midi": 62,
          "name": "D4",
          "ticks": 4460,
          "time": 51.86046511627907,
          "velocity": 0.11023622047244094
        },
        {
          "duration": 0.023255813953483084,
          "durationTicks": 2,
          "midi": 55,
          "name": "G3",
          "ticks": 4471,
          "time": 51.98837209302326,
          "velocity": 0.31496062992125984
        },
        {
          "duration": 0.2325581395348877,
          "durationTicks": 20,
          "midi": 44,
          "name": "G#2",
          "ticks": 4473,
          "time": 52.01162790697674,
          "velocity": 0.28346456692913385
        },
        {
          "duration": 0.09302325581395365,
          "durationTicks": 8,
          "midi": 56,
          "name": "G#3",
          "ticks": 4473,
          "time": 52.01162790697674,
          "velocity": 0.3543307086614173
        },
        {
          "duration": 0.3372093023255829,
          "durationTicks": 29,
          "midi": 63,
          "name": "D#4",
          "ticks": 4496,
          "time": 52.27906976744186,
          "velocity": 0.11811023622047244
        },
        {
          "duration": 0.2093023255813975,
          "durationTicks": 18,
          "midi": 51,
          "name": "D#3",
          "ticks": 4497,
          "time": 52.2906976744186,
          "velocity": 0.1889763779527559
        },
        {
          "duration": 0.023255813953483084,
          "durationTicks": 2,
          "midi": 44,
          "name": "G#2",
          "ticks": 4522,
          "time": 52.58139534883721,
          "velocity": 0.2283464566929134
        },
        {
          "duration": 0.27906976744186096,
          "durationTicks": 24,
          "midi": 58,
          "name": "A#3",
          "ticks": 4522,
          "time": 52.58139534883721,
          "velocity": 0.16535433070866143
        },
        {
          "duration": 0.02325581395349019,
          "durationTicks": 2,
          "midi": 45,
          "name": "A2",
          "ticks": 4524,
          "time": 52.604651162790695,
          "velocity": 0.31496062992125984
        },
        {
          "duration": 0.5116279069767415,
          "durationTicks": 44,
          "midi": 46,
          "name": "A#2",
          "ticks": 4526,
          "time": 52.627906976744185,
          "velocity": 0.33858267716535434
        },
        {
          "duration": 0.2906976744186025,
          "durationTicks": 25,
          "midi": 53,
          "name": "F3",
          "ticks": 4547,
          "time": 52.872093023255815,
          "velocity": 0.2440944881889764
        },
        {
          "duration": 0.03488372093023173,
          "durationTicks": 3,
          "midi": 56,
          "name": "G#3",
          "ticks": 4573,
          "time": 53.174418604651166,
          "velocity": 0.2755905511811024
        },
        {
          "duration": 0.5697674418604635,
          "durationTicks": 49,
          "midi": 46,
          "name": "A#2",
          "ticks": 4574,
          "time": 53.18604651162791,
          "velocity": 0.30708661417322836
        },
        {
          "duration": 0.22093023255813904,
          "durationTicks": 19,
          "midi": 53,
          "name": "F3",
          "ticks": 4575,
          "time": 53.19767441860465,
          "velocity": 0.16535433070866143
        },
        {
          "duration": 0.27906976744186096,
          "durationTicks": 24,
          "midi": 53,
          "name": "F3",
          "ticks": 4600,
          "time": 53.48837209302326,
          "velocity": 0.2440944881889764
        },
        {
          "duration": 0.03488372093023173,
          "durationTicks": 3,
          "midi": 45,
          "name": "A2",
          "ticks": 4624,
          "time": 53.76744186046512,
          "velocity": 0.28346456692913385
        },
        {
          "duration": 0.3488372093023244,
          "durationTicks": 30,
          "midi": 62,
          "name": "D4",
          "ticks": 4624,
          "time": 53.76744186046512,
          "velocity": 0.11811023622047244
        },
        {
          "duration": 0.23255813953488058,
          "durationTicks": 20,
          "midi": 53,
          "name": "F3",
          "ticks": 4625,
          "time": 53.77906976744186,
          "velocity": 0.15748031496062992
        },
        {
          "duration": 0.40697674418604635,
          "durationTicks": 35,
          "midi": 58,
          "name": "A#3",
          "ticks": 4625,
          "time": 53.77906976744186,
          "velocity": 0.2204724409448819
        },
        {
          "duration": 0.23255813953488058,
          "durationTicks": 20,
          "midi": 46,
          "name": "A#2",
          "ticks": 4627,
          "time": 53.80232558139535,
          "velocity": 0.2992125984251969
        },
        {
          "duration": 0.30232558139535115,
          "durationTicks": 26,
          "midi": 46,
          "name": "A#2",
          "ticks": 4648,
          "time": 54.04651162790697,
          "velocity": 0.2204724409448819
        },
        {
          "duration": 0.13953488372093403,
          "durationTicks": 12,
          "midi": 53,
          "name": "F3",
          "ticks": 4648,
          "time": 54.04651162790697,
          "velocity": 0.2047244094488189
        },
        {
          "duration": 0.36046511627906597,
          "durationTicks": 31,
          "midi": 62,
          "name": "D4",
          "ticks": 4662,
          "time": 54.2093023255814,
          "velocity": 0.14960629921259844
        },
        {
          "duration": 0.12790697674418539,
          "durationTicks": 11,
          "midi": 53,
          "name": "F3",
          "ticks": 4663,
          "time": 54.22093023255814,
          "velocity": 0.15748031496062992
        },
        {
          "duration": 0.1860465116279073,
          "durationTicks": 16,
          "midi": 58,
          "name": "A#3",
          "ticks": 4676,
          "time": 54.372093023255815,
          "velocity": 0.13385826771653545
        },
        {
          "duration": 0.3488372093023244,
          "durationTicks": 30,
          "midi": 46,
          "name": "A#2",
          "ticks": 4677,
          "time": 54.383720930232556,
          "velocity": 0.33070866141732286
        },
        {
          "duration": 0.03488372093023173,
          "durationTicks": 3,
          "midi": 53,
          "name": "F3",
          "ticks": 4677,
          "time": 54.383720930232556,
          "velocity": 0.09448818897637795
        },
        {
          "duration": 0.08139534883721211,
          "durationTicks": 7,
          "midi": 53,
          "name": "F3",
          "ticks": 4688,
          "time": 54.51162790697674,
          "velocity": 0.07874015748031496
        },
        {
          "duration": 0.03488372093023173,
          "durationTicks": 3,
          "midi": 57,
          "name": "A3",
          "ticks": 4695,
          "time": 54.593023255813954,
          "velocity": 0.13385826771653545
        },
        {
          "duration": 0.2674418604651194,
          "durationTicks": 23,
          "midi": 63,
          "name": "D#4",
          "ticks": 4701,
          "time": 54.66279069767442,
          "velocity": 0.12598425196850394
        },
        {
          "duration": 0.03488372093023173,
          "durationTicks": 3,
          "midi": 51,
          "name": "D#3",
          "ticks": 4711,
          "time": 54.77906976744186,
          "velocity": 0.2047244094488189
        },
        {
          "duration": 0.1279069767441925,
          "durationTicks": 11,
          "midi": 51,
          "name": "D#3",
          "ticks": 4715,
          "time": 54.825581395348834,
          "velocity": 0.1968503937007874
        },
        {
          "duration": 0.023255813953483084,
          "durationTicks": 2,
          "midi": 47,
          "name": "B2",
          "ticks": 4726,
          "time": 54.95348837209303,
          "velocity": 0.28346456692913385
        },
        {
          "duration": 0.27906976744186096,
          "durationTicks": 24,
          "midi": 60,
          "name": "C4",
          "ticks": 4727,
          "time": 54.96511627906977,
          "velocity": 0.11023622047244094
        },
        {
          "duration": 0.1279069767441925,
          "durationTicks": 11,
          "midi": 48,
          "name": "C3",
          "ticks": 4734,
          "time": 55.04651162790697,
          "velocity": 0.25984251968503935
        },
        {
          "duration": 0.046511627906973274,
          "durationTicks": 4,
          "midi": 48,
          "name": "C3",
          "ticks": 4746,
          "time": 55.18604651162791,
          "velocity": 0.2204724409448819
        },
        {
          "duration": 0.02325581395349019,
          "durationTicks": 2,
          "midi": 49,
          "name": "C#3",
          "ticks": 4750,
          "time": 55.23255813953488,
          "velocity": 0.25196850393700787
        },
        {
          "duration": 0.27906976744185386,
          "durationTicks": 24,
          "midi": 58,
          "name": "A#3",
          "ticks": 4753,
          "time": 55.26744186046512,
          "velocity": 0.2047244094488189
        },
        {
          "duration": 0.02325581395349019,
          "durationTicks": 2,
          "midi": 50,
          "name": "D3",
          "ticks": 4754,
          "time": 55.27906976744186,
          "velocity": 0.2677165354330709
        },
        {
          "duration": 0.023255813953483084,
          "durationTicks": 2,
          "midi": 51,
          "name": "D#3",
          "ticks": 4756,
          "time": 55.30232558139535,
          "velocity": 0.25196850393700787
        },
        {
          "duration": 0.02325581395349019,
          "durationTicks": 2,
          "midi": 51,
          "name": "D#3",
          "ticks": 4763,
          "time": 55.383720930232556,
          "velocity": 0.25196850393700787
        },
        {
          "duration": 0.02325581395349019,
          "durationTicks": 2,
          "midi": 50,
          "name": "D3",
          "ticks": 4768,
          "time": 55.44186046511628,
          "velocity": 0.25196850393700787
        },
        {
          "duration": 0.02325581395349019,
          "durationTicks": 2,
          "midi": 50,
          "name": "D3",
          "ticks": 4771,
          "time": 55.47674418604651,
          "velocity": 0.2440944881889764
        },
        {
          "duration": 0.03488372093023173,
          "durationTicks": 3,
          "midi": 51,
          "name": "D#3",
          "ticks": 4775,
          "time": 55.52325581395349,
          "velocity": 0.23622047244094488
        },
        {
          "duration": 0.03488372093023173,
          "durationTicks": 3,
          "midi": 48,
          "name": "C3",
          "ticks": 4780,
          "time": 55.58139534883721,
          "velocity": 0.30708661417322836
        },
        {
          "duration": 0.1046511627906952,
          "durationTicks": 9,
          "midi": 58,
          "name": "A#3",
          "ticks": 4780,
          "time": 55.58139534883721,
          "velocity": 0.1732283464566929
        },
        {
          "duration": 0.046511627906973274,
          "durationTicks": 4,
          "midi": 58,
          "name": "A#3",
          "ticks": 4791,
          "time": 55.7093023255814,
          "velocity": 0.12598425196850394
        },
        {
          "duration": 0.04651162790698038,
          "durationTicks": 4,
          "midi": 48,
          "name": "C3",
          "ticks": 4792,
          "time": 55.72093023255814,
          "velocity": 0.2283464566929134
        },
        {
          "duration": 0.05813953488372192,
          "durationTicks": 5,
          "midi": 48,
          "name": "C3",
          "ticks": 4798,
          "time": 55.7906976744186,
          "velocity": 0.2047244094488189
        },
        {
          "duration": 0.03488372093023173,
          "durationTicks": 3,
          "midi": 58,
          "name": "A#3",
          "ticks": 4800,
          "time": 55.81395348837209,
          "velocity": 0.11811023622047244
        },
        {
          "duration": 0.2906976744186025,
          "durationTicks": 25,
          "midi": 63,
          "name": "D#4",
          "ticks": 4804,
          "time": 55.86046511627907,
          "velocity": 0.08661417322834646
        },
        {
          "duration": 0.22093023255813904,
          "durationTicks": 19,
          "midi": 67,
          "name": "G4",
          "ticks": 4804,
          "time": 55.86046511627907,
          "velocity": 0.13385826771653545
        },
        {
          "duration": 0.02325581395349019,
          "durationTicks": 2,
          "midi": 47,
          "name": "B2",
          "ticks": 4805,
          "time": 55.872093023255815,
          "velocity": 0.25196850393700787
        },
        {
          "duration": 0.023255813953483084,
          "durationTicks": 2,
          "midi": 50,
          "name": "D3",
          "ticks": 4807,
          "time": 55.895348837209305,
          "velocity": 0.23622047244094488
        },
        {
          "duration": 0.16279069767441712,
          "durationTicks": 14,
          "midi": 58,
          "name": "A#3",
          "ticks": 4807,
          "time": 55.895348837209305,
          "velocity": 0.10236220472440945
        },
        {
          "duration": 0.05813953488372192,
          "durationTicks": 5,
          "midi": 48,
          "name": "C3",
          "ticks": 4811,
          "time": 55.94186046511628,
          "velocity": 0.23622047244094488
        },
        {
          "duration": 0.03488372093023173,
          "durationTicks": 3,
          "midi": 47,
          "name": "B2",
          "ticks": 4831,
          "time": 56.174418604651166,
          "velocity": 0.33858267716535434
        },
        {
          "duration": 0.40697674418604635,
          "durationTicks": 35,
          "midi": 60,
          "name": "C4",
          "ticks": 4831,
          "time": 56.174418604651166,
          "velocity": 0.16535433070866143
        },
        {
          "duration": 0.023255813953483084,
          "durationTicks": 2,
          "midi": 49,
          "name": "C#3",
          "ticks": 4834,
          "time": 56.2093023255814,
          "velocity": 0.25196850393700787
        },
        {
          "duration": 0.02325581395349019,
          "durationTicks": 2,
          "midi": 47,
          "name": "B2",
          "ticks": 4836,
          "time": 56.23255813953488,
          "velocity": 0.25196850393700787
        },
        {
          "duration": 0.02325581395349019,
          "durationTicks": 2,
          "midi": 49,
          "name": "C#3",
          "ticks": 4838,
          "time": 56.25581395348837,
          "velocity": 0.2283464566929134
        },
        {
          "duration": 0.19767441860465595,
          "durationTicks": 17,
          "midi": 48,
          "name": "C3",
          "ticks": 4841,
          "time": 56.2906976744186,
          "velocity": 0.25196850393700787
        },
        {
          "duration": 0.06976744186046346,
          "durationTicks": 6,
          "midi": 48,
          "name": "C3",
          "ticks": 4861,
          "time": 56.52325581395349,
          "velocity": 0.2283464566929134
        },
        {
          "duration": 0.05813953488372192,
          "durationTicks": 5,
          "midi": 48,
          "name": "C3",
          "ticks": 4868,
          "time": 56.604651162790695,
          "velocity": 0.2440944881889764
        },
        {
          "duration": 0.046511627906973274,
          "durationTicks": 4,
          "midi": 56,
          "name": "G#3",
          "ticks": 4880,
          "time": 56.74418604651163,
          "velocity": 0.09448818897637795
        },
        {
          "duration": 0.03488372093023173,
          "durationTicks": 3,
          "midi": 47,
          "name": "B2",
          "ticks": 4881,
          "time": 56.75581395348837,
          "velocity": 0.2992125984251969
        },
        {
          "duration": 0.17441860465116577,
          "durationTicks": 15,
          "midi": 60,
          "name": "C4",
          "ticks": 4881,
          "time": 56.75581395348837,
          "velocity": 0.10236220472440945
        },
        {
          "duration": 0.1046511627906952,
          "durationTicks": 9,
          "midi": 48,
          "name": "C3",
          "ticks": 4888,
          "time": 56.83720930232558,
          "velocity": 0.25984251968503935
        },
        {
          "duration": 0.03488372093023173,
          "durationTicks": 3,
          "midi": 47,
          "name": "B2",
          "ticks": 4897,
          "time": 56.94186046511628,
          "velocity": 0.1889763779527559
        },
        {
          "duration": 0.04651162790698038,
          "durationTicks": 4,
          "midi": 46,
          "name": "A#2",
          "ticks": 4900,
          "time": 56.97674418604651,
          "velocity": 0.1732283464566929
        },
        {
          "duration": 0.06976744186046346,
          "durationTicks": 6,
          "midi": 51,
          "name": "D#3",
          "ticks": 4908,
          "time": 57.06976744186046,
          "velocity": 0.1968503937007874
        },
        {
          "duration": 0.03488372093023173,
          "durationTicks": 3,
          "midi": 46,
          "name": "A#2",
          "ticks": 4920,
          "time": 57.2093023255814,
          "velocity": 0.1968503937007874
        },
        {
          "duration": 0.03488372093023173,
          "durationTicks": 3,
          "midi": 51,
          "name": "D#3",
          "ticks": 4924,
          "time": 57.25581395348837,
          "velocity": 0.14173228346456693
        },
        {
          "duration": 0.02325581395349019,
          "durationTicks": 2,
          "midi": 55,
          "name": "G3",
          "ticks": 4930,
          "time": 57.325581395348834,
          "velocity": 0.3937007874015748
        },
        {
          "duration": 0.1046511627906952,
          "durationTicks": 9,
          "midi": 63,
          "name": "D#4",
          "ticks": 4931,
          "time": 57.33720930232558,
          "velocity": 0.12598425196850394
        },
        {
          "duration": 0.27906976744186096,
          "durationTicks": 24,
          "midi": 44,
          "name": "G#2",
          "ticks": 4932,
          "time": 57.348837209302324,
          "velocity": 0.2755905511811024
        },
        {
          "duration": 0.12790697674418539,
          "durationTicks": 11,
          "midi": 56,
          "name": "G#3",
          "ticks": 4932,
          "time": 57.348837209302324,
          "velocity": 0.41732283464566927
        },
        {
          "duration": 0.2906976744186025,
          "durationTicks": 25,
          "midi": 51,
          "name": "D#3",
          "ticks": 4958,
          "time": 57.651162790697676,
          "velocity": 0.1732283464566929
        },
        {
          "duration": 0.2325581395348877,
          "durationTicks": 20,
          "midi": 44,
          "name": "G#2",
          "ticks": 4959,
          "time": 57.66279069767442,
          "velocity": 0.23622047244094488
        },
        {
          "duration": 0.03488372093023173,
          "durationTicks": 3,
          "midi": 45,
          "name": "A2",
          "ticks": 4979,
          "time": 57.895348837209305,
          "velocity": 0.1889763779527559
        },
        {
          "duration": 0.30232558139534405,
          "durationTicks": 26,
          "midi": 44,
          "name": "G#2",
          "ticks": 4982,
          "time": 57.93023255813954,
          "velocity": 0.28346456692913385
        },
        {
          "duration": 0.13953488372093403,
          "durationTicks": 12,
          "midi": 56,
          "name": "G#3",
          "ticks": 4983,
          "time": 57.94186046511628,
          "velocity": 0.3779527559055118
        },
        {
          "duration": 0.04651162790698038,
          "durationTicks": 4,
          "midi": 51,
          "name": "D#3",
          "ticks": 4992,
          "time": 58.04651162790697,
          "velocity": 0.11811023622047244
        },
        {
          "duration": 0.25581395348837077,
          "durationTicks": 22,
          "midi": 44,
          "name": "G#2",
          "ticks": 5009,
          "time": 58.24418604651163,
          "velocity": 0.25984251968503935
        },
        {
          "duration": 0.046511627906973274,
          "durationTicks": 4,
          "midi": 51,
          "name": "D#3",
          "ticks": 5009,
          "time": 58.24418604651163,
          "velocity": 0.16535433070866143
        },
        {
          "duration": 0.22093023255813904,
          "durationTicks": 19,
          "midi": 51,
          "name": "D#3",
          "ticks": 5014,
          "time": 58.30232558139535,
          "velocity": 0.18110236220472442
        },
        {
          "duration": 0.023255813953483084,
          "durationTicks": 2,
          "midi": 55,
          "name": "G3",
          "ticks": 5033,
          "time": 58.52325581395349,
          "velocity": 0.3700787401574803
        },
        {
          "duration": 0.1046511627907023,
          "durationTicks": 9,
          "midi": 56,
          "name": "G#3",
          "ticks": 5035,
          "time": 58.54651162790697,
          "velocity": 0.4094488188976378
        },
        {
          "duration": 0.27906976744186096,
          "durationTicks": 24,
          "midi": 44,
          "name": "G#2",
          "ticks": 5036,
          "time": 58.55813953488372,
          "velocity": 0.2992125984251969
        },
        {
          "duration": 0.24418604651162923,
          "durationTicks": 21,
          "midi": 44,
          "name": "G#2",
          "ticks": 5061,
          "time": 58.848837209302324,
          "velocity": 0.25196850393700787
        },
        {
          "duration": 0.23255813953488058,
          "durationTicks": 20,
          "midi": 51,
          "name": "D#3",
          "ticks": 5065,
          "time": 58.895348837209305,
          "velocity": 0.1732283464566929
        },
        {
          "duration": 0.03488372093023173,
          "durationTicks": 3,
          "midi": 45,
          "name": "A2",
          "ticks": 5082,
          "time": 59.093023255813954,
          "velocity": 0.18110236220472442
        },
        {
          "duration": 0.13953488372093403,
          "durationTicks": 12,
          "midi": 56,
          "name": "G#3",
          "ticks": 5086,
          "time": 59.13953488372093,
          "velocity": 0.33858267716535434
        },
        {
          "duration": 0.27906976744186096,
          "durationTicks": 24,
          "midi": 44,
          "name": "G#2",
          "ticks": 5088,
          "time": 59.16279069767442,
          "velocity": 0.2755905511811024
        },
        {
          "duration": 0.046511627906973274,
          "durationTicks": 4,
          "midi": 51,
          "name": "D#3",
          "ticks": 5095,
          "time": 59.24418604651163,
          "velocity": 0.12598425196850394
        },
        {
          "duration": 0.046511627906973274,
          "durationTicks": 4,
          "midi": 51,
          "name": "D#3",
          "ticks": 5100,
          "time": 59.30232558139535,
          "velocity": 0.12598425196850394
        },
        {
          "duration": 0.2325581395348877,
          "durationTicks": 20,
          "midi": 44,
          "name": "G#2",
          "ticks": 5115,
          "time": 59.47674418604651,
          "velocity": 0.25196850393700787
        },
        {
          "duration": 0.27906976744186096,
          "durationTicks": 24,
          "midi": 51,
          "name": "D#3",
          "ticks": 5115,
          "time": 59.47674418604651,
          "velocity": 0.25984251968503935
        },
        {
          "duration": 0.081395348837205,
          "durationTicks": 7,
          "midi": 56,
          "name": "G#3",
          "ticks": 5138,
          "time": 59.74418604651163,
          "velocity": 0.3937007874015748
        },
        {
          "duration": 0.5465116279069733,
          "durationTicks": 47,
          "midi": 44,
          "name": "G#2",
          "ticks": 5140,
          "time": 59.76744186046512,
          "velocity": 0.29133858267716534
        },
        {
          "duration": 0.13953488372092693,
          "durationTicks": 12,
          "midi": 58,
          "name": "A#3",
          "ticks": 5159,
          "time": 59.98837209302326,
          "velocity": 0.07086614173228346
        },
        {
          "duration": 0.19767441860465595,
          "durationTicks": 17,
          "midi": 63,
          "name": "D#4",
          "ticks": 5164,
          "time": 60.04651162790697,
          "velocity": 0.10236220472440945
        },
        {
          "duration": 0.081395348837205,
          "durationTicks": 7,
          "midi": 51,
          "name": "D#3",
          "ticks": 5165,
          "time": 60.05813953488372,
          "velocity": 0.14960629921259844
        },
        {
          "duration": 0.1860465116279073,
          "durationTicks": 16,
          "midi": 51,
          "name": "D#3",
          "ticks": 5173,
          "time": 60.151162790697676,
          "velocity": 0.15748031496062992
        },
        {
          "duration": 0.12790697674418539,
          "durationTicks": 11,
          "midi": 56,
          "name": "G#3",
          "ticks": 5190,
          "time": 60.348837209302324,
          "velocity": 0.3700787401574803
        },
        {
          "duration": 0.03488372093023173,
          "durationTicks": 3,
          "midi": 45,
          "name": "A2",
          "ticks": 5191,
          "time": 60.36046511627907,
          "velocity": 0.30708661417322836
        },
        {
          "duration": 0.24418604651162212,
          "durationTicks": 21,
          "midi": 44,
          "name": "G#2",
          "ticks": 5194,
          "time": 60.395348837209305,
          "velocity": 0.2992125984251969
        },
        {
          "duration": 0.08139534883721211,
          "durationTicks": 7,
          "midi": 51,
          "name": "D#3",
          "ticks": 5196,
          "time": 60.41860465116279,
          "velocity": 0.11023622047244094
        },
        {
          "duration": 0.2674418604651123,
          "durationTicks": 23,
          "midi": 44,
          "name": "G#2",
          "ticks": 5216,
          "time": 60.651162790697676,
          "velocity": 0.2440944881889764
        },
        {
          "duration": 0.2906976744186096,
          "durationTicks": 25,
          "midi": 51,
          "name": "D#3",
          "ticks": 5217,
          "time": 60.66279069767442,
          "velocity": 0.1889763779527559
        },
        {
          "duration": 0.023255813953483084,
          "durationTicks": 2,
          "midi": 45,
          "name": "A2",
          "ticks": 5242,
          "time": 60.95348837209303,
          "velocity": 0.2992125984251969
        },
        {
          "duration": 0.22093023255813904,
          "durationTicks": 19,
          "midi": 56,
          "name": "G#3",
          "ticks": 5243,
          "time": 60.96511627906977,
          "velocity": 0.3779527559055118
        },
        {
          "duration": 0.27906976744186096,
          "durationTicks": 24,
          "midi": 44,
          "name": "G#2",
          "ticks": 5244,
          "time": 60.97674418604651,
          "velocity": 0.31496062992125984
        },
        {
          "duration": 0.046511627906973274,
          "durationTicks": 4,
          "midi": 51,
          "name": "D#3",
          "ticks": 5248,
          "time": 61.02325581395349,
          "velocity": 0.12598425196850394
        },
        {
          "duration": 0.25581395348837077,
          "durationTicks": 22,
          "midi": 44,
          "name": "G#2",
          "ticks": 5269,
          "time": 61.26744186046512,
          "velocity": 0.25196850393700787
        },
        {
          "duration": 0.27906976744185386,
          "durationTicks": 24,
          "midi": 51,
          "name": "D#3",
          "ticks": 5269,
          "time": 61.26744186046512,
          "velocity": 0.1889763779527559
        },
        {
          "duration": 0.2093023255813975,
          "durationTicks": 18,
          "midi": 56,
          "name": "G#3",
          "ticks": 5294,
          "time": 61.55813953488372,
          "velocity": 0.3700787401574803
        },
        {
          "duration": 0.2093023255813975,
          "durationTicks": 18,
          "midi": 44,
          "name": "G#2",
          "ticks": 5295,
          "time": 61.56976744186046,
          "velocity": 0.30708661417322836
        },
        {
          "duration": 0.04651162790698038,
          "durationTicks": 4,
          "midi": 51,
          "name": "D#3",
          "ticks": 5301,
          "time": 61.63953488372093,
          "velocity": 0.13385826771653545
        },
        {
          "duration": 0.03488372093023173,
          "durationTicks": 3,
          "midi": 51,
          "name": "D#3",
          "ticks": 5311,
          "time": 61.75581395348837,
          "velocity": 0.11811023622047244
        },
        {
          "duration": 0.2906976744186025,
          "durationTicks": 25,
          "midi": 51,
          "name": "D#3",
          "ticks": 5319,
          "time": 61.848837209302324,
          "velocity": 0.2047244094488189
        },
        {
          "duration": 0.3372093023255829,
          "durationTicks": 29,
          "midi": 55,
          "name": "G3",
          "ticks": 5343,
          "time": 62.127906976744185,
          "velocity": 0.3937007874015748
        },
        {
          "duration": 0.04651162790698038,
          "durationTicks": 4,
          "midi": 44,
          "name": "G#2",
          "ticks": 5344,
          "time": 62.13953488372093,
          "velocity": 0.2440944881889764
        },
        {
          "duration": 0.22093023255813904,
          "durationTicks": 19,
          "midi": 63,
          "name": "D#4",
          "ticks": 5345,
          "time": 62.151162790697676,
          "velocity": 0.1889763779527559
        },
        {
          "duration": 0.23255813953488058,
          "durationTicks": 20,
          "midi": 43,
          "name": "G2",
          "ticks": 5348,
          "time": 62.18604651162791,
          "velocity": 0.2204724409448819
        },
        {
          "duration": 0.5813953488372121,
          "durationTicks": 50,
          "midi": 63,
          "name": "D#4",
          "ticks": 5365,
          "time": 62.383720930232556,
          "velocity": 0.1732283464566929
        },
        {
          "duration": 0.046511627906973274,
          "durationTicks": 4,
          "midi": 43,
          "name": "G2",
          "ticks": 5369,
          "time": 62.43023255813954,
          "velocity": 0.23622047244094488
        },
        {
          "duration": 0.2093023255813904,
          "durationTicks": 18,
          "midi": 43,
          "name": "G2",
          "ticks": 5374,
          "time": 62.48837209302326,
          "velocity": 0.2125984251968504
        },
        {
          "duration": 0.23255813953488058,
          "durationTicks": 20,
          "midi": 51,
          "name": "D#3",
          "ticks": 5375,
          "time": 62.5,
          "velocity": 0.1889763779527559
        },
        {
          "duration": 0.2906976744186025,
          "durationTicks": 25,
          "midi": 55,
          "name": "G3",
          "ticks": 5396,
          "time": 62.74418604651163,
          "velocity": 0.3779527559055118
        },
        {
          "duration": 0.27906976744186096,
          "durationTicks": 24,
          "midi": 43,
          "name": "G2",
          "ticks": 5399,
          "time": 62.77906976744186,
          "velocity": 0.2125984251968504
        },
        {
          "duration": 0.03488372093023173,
          "durationTicks": 3,
          "midi": 63,
          "name": "D#4",
          "ticks": 5416,
          "time": 62.97674418604651,
          "velocity": 0.09448818897637795
        },
        {
          "duration": 0.03488372093023884,
          "durationTicks": 3,
          "midi": 63,
          "name": "D#4",
          "ticks": 5422,
          "time": 63.04651162790697,
          "velocity": 0.10236220472440945
        },
        {
          "duration": 0.02325581395349019,
          "durationTicks": 2,
          "midi": 44,
          "name": "G#2",
          "ticks": 5423,
          "time": 63.05813953488372,
          "velocity": 0.23622047244094488
        },
        {
          "duration": 0.25581395348837077,
          "durationTicks": 22,
          "midi": 51,
          "name": "D#3",
          "ticks": 5423,
          "time": 63.05813953488372,
          "velocity": 0.2047244094488189
        },
        {
          "duration": 0.15116279069767558,
          "durationTicks": 13,
          "midi": 43,
          "name": "G2",
          "ticks": 5428,
          "time": 63.116279069767444,
          "velocity": 0.1968503937007874
        },
        {
          "duration": 0.08139534883721211,
          "durationTicks": 7,
          "midi": 63,
          "name": "D#4",
          "ticks": 5445,
          "time": 63.31395348837209,
          "velocity": 0.14173228346456693
        },
        {
          "duration": 0.34883720930233153,
          "durationTicks": 30,
          "midi": 55,
          "name": "G3",
          "ticks": 5446,
          "time": 63.325581395348834,
          "velocity": 0.41732283464566927
        },
        {
          "duration": 0.03488372093023173,
          "durationTicks": 3,
          "midi": 44,
          "name": "G#2",
          "ticks": 5447,
          "time": 63.33720930232558,
          "velocity": 0.25984251968503935
        },
        {
          "duration": 0.2674418604651123,
          "durationTicks": 23,
          "midi": 43,
          "name": "G2",
          "ticks": 5450,
          "time": 63.372093023255815,
          "velocity": 0.2283464566929134
        },
        {
          "duration": 0.03488372093023173,
          "durationTicks": 3,
          "midi": 63,
          "name": "D#4",
          "ticks": 5459,
          "time": 63.47674418604651,
          "velocity": 0.12598425196850394
        },
        {
          "duration": 0.03488372093023884,
          "durationTicks": 3,
          "midi": 63,
          "name": "D#4",
          "ticks": 5465,
          "time": 63.54651162790697,
          "velocity": 0.10236220472440945
        },
        {
          "duration": 0.03488372093023173,
          "durationTicks": 3,
          "midi": 63,
          "name": "D#4",
          "ticks": 5471,
          "time": 63.616279069767444,
          "velocity": 0.10236220472440945
        },
        {
          "duration": 0.02325581395349019,
          "durationTicks": 2,
          "midi": 44,
          "name": "G#2",
          "ticks": 5473,
          "time": 63.63953488372093,
          "velocity": 0.25984251968503935
        },
        {
          "duration": 0.2325581395348877,
          "durationTicks": 20,
          "midi": 43,
          "name": "G2",
          "ticks": 5475,
          "time": 63.66279069767442,
          "velocity": 0.2125984251968504
        },
        {
          "duration": 0.03488372093023173,
          "durationTicks": 3,
          "midi": 63,
          "name": "D#4",
          "ticks": 5476,
          "time": 63.674418604651166,
          "velocity": 0.11811023622047244
        },
        {
          "duration": 0.03488372093023173,
          "durationTicks": 3,
          "midi": 51,
          "name": "D#3",
          "ticks": 5477,
          "time": 63.68604651162791,
          "velocity": 0.1732283464566929
        },
        {
          "duration": 0.19767441860465595,
          "durationTicks": 17,
          "midi": 51,
          "name": "D#3",
          "ticks": 5481,
          "time": 63.73255813953488,
          "velocity": 0.1889763779527559
        },
        {
          "duration": 0.03488372093023173,
          "durationTicks": 3,
          "midi": 44,
          "name": "G#2",
          "ticks": 5495,
          "time": 63.895348837209305,
          "velocity": 0.18110236220472442
        },
        {
          "duration": 0.32558139534883423,
          "durationTicks": 28,
          "midi": 55,
          "name": "G3",
          "ticks": 5499,
          "time": 63.94186046511628,
          "velocity": 0.3858267716535433
        },
        {
          "duration": 0.2558139534883779,
          "durationTicks": 22,
          "midi": 43,
          "name": "G2",
          "ticks": 5502,
          "time": 63.97674418604651,
          "velocity": 0.2204724409448819
        },
        {
          "duration": 0.023255813953483084,
          "durationTicks": 2,
          "midi": 44,
          "name": "G#2",
          "ticks": 5525,
          "time": 64.24418604651163,
          "velocity": 0.25984251968503935
        },
        {
          "duration": 0.27906976744186807,
          "durationTicks": 24,
          "midi": 51,
          "name": "D#3",
          "ticks": 5526,
          "time": 64.25581395348837,
          "velocity": 0.25984251968503935
        },
        {
          "duration": 0.2093023255814046,
          "durationTicks": 18,
          "midi": 43,
          "name": "G2",
          "ticks": 5527,
          "time": 64.26744186046511,
          "velocity": 0.2047244094488189
        },
        {
          "duration": 0.034883720930224626,
          "durationTicks": 3,
          "midi": 44,
          "name": "G#2",
          "ticks": 5545,
          "time": 64.47674418604652,
          "velocity": 0.18110236220472442
        },
        {
          "duration": 0.27906976744185386,
          "durationTicks": 24,
          "midi": 55,
          "name": "G3",
          "ticks": 5551,
          "time": 64.54651162790698,
          "velocity": 0.3779527559055118
        },
        {
          "duration": 0.25581395348837077,
          "durationTicks": 22,
          "midi": 43,
          "name": "G2",
          "ticks": 5554,
          "time": 64.5813953488372,
          "velocity": 0.1968503937007874
        },
        {
          "duration": 0.04651162790696617,
          "durationTicks": 4,
          "midi": 58,
          "name": "A#3",
          "ticks": 5567,
          "time": 64.73255813953489,
          "velocity": 0.15748031496062992
        },
        {
          "duration": 0.03488372093023884,
          "durationTicks": 3,
          "midi": 58,
          "name": "A#3",
          "ticks": 5574,
          "time": 64.81395348837209,
          "velocity": 0.14173228346456693
        },
        {
          "duration": 0.034883720930224626,
          "durationTicks": 3,
          "midi": 43,
          "name": "G2",
          "ticks": 5577,
          "time": 64.84883720930233,
          "velocity": 0.16535433070866143
        },
        {
          "duration": 0.27906976744185386,
          "durationTicks": 24,
          "midi": 51,
          "name": "D#3",
          "ticks": 5578,
          "time": 64.86046511627907,
          "velocity": 0.23622047244094488
        },
        {
          "duration": 0.2674418604651123,
          "durationTicks": 23,
          "midi": 58,
          "name": "A#3",
          "ticks": 5578,
          "time": 64.86046511627907,
          "velocity": 0.14173228346456693
        },
        {
          "duration": 0.15116279069766847,
          "durationTicks": 13,
          "midi": 43,
          "name": "G2",
          "ticks": 5585,
          "time": 64.94186046511628,
          "velocity": 0.1889763779527559
        },
        {
          "duration": 0.30232558139535115,
          "durationTicks": 26,
          "midi": 55,
          "name": "G3",
          "ticks": 5602,
          "time": 65.13953488372093,
          "velocity": 0.3700787401574803
        },
        {
          "duration": 0.27906976744185386,
          "durationTicks": 24,
          "midi": 43,
          "name": "G2",
          "ticks": 5605,
          "time": 65.17441860465117,
          "velocity": 0.2125984251968504
        },
        {
          "duration": 0.023255813953497295,
          "durationTicks": 2,
          "midi": 44,
          "name": "G#2",
          "ticks": 5629,
          "time": 65.45348837209302,
          "velocity": 0.2440944881889764
        },
        {
          "duration": 0.2906976744186096,
          "durationTicks": 25,
          "midi": 51,
          "name": "D#3",
          "ticks": 5629,
          "time": 65.45348837209302,
          "velocity": 0.2047244094488189
        },
        {
          "duration": 0.1860465116279073,
          "durationTicks": 16,
          "midi": 43,
          "name": "G2",
          "ticks": 5634,
          "time": 65.51162790697674,
          "velocity": 0.1968503937007874
        },
        {
          "duration": 0.04651162790698038,
          "durationTicks": 4,
          "midi": 44,
          "name": "G#2",
          "ticks": 5650,
          "time": 65.69767441860465,
          "velocity": 0.1732283464566929
        },
        {
          "duration": 0.27906976744185386,
          "durationTicks": 24,
          "midi": 43,
          "name": "G2",
          "ticks": 5654,
          "time": 65.74418604651163,
          "velocity": 0.2125984251968504
        },
        {
          "duration": 0.2906976744186096,
          "durationTicks": 25,
          "midi": 55,
          "name": "G3",
          "ticks": 5654,
          "time": 65.74418604651163,
          "velocity": 0.3543307086614173
        },
        {
          "duration": 0.04651162790698038,
          "durationTicks": 4,
          "midi": 51,
          "name": "D#3",
          "ticks": 5670,
          "time": 65.93023255813954,
          "velocity": 0.14173228346456693
        },
        {
          "duration": 0.023255813953497295,
          "durationTicks": 2,
          "midi": 44,
          "name": "G#2",
          "ticks": 5678,
          "time": 66.02325581395348,
          "velocity": 0.25984251968503935
        },
        {
          "duration": 0.2906976744185954,
          "durationTicks": 25,
          "midi": 51,
          "name": "D#3",
          "ticks": 5679,
          "time": 66.03488372093024,
          "velocity": 0.2677165354330709
        },
        {
          "duration": 0.09302325581394655,
          "durationTicks": 8,
          "midi": 43,
          "name": "G2",
          "ticks": 5680,
          "time": 66.04651162790698,
          "velocity": 0.2125984251968504
        },
        {
          "duration": 0.11627906976744384,
          "durationTicks": 10,
          "midi": 43,
          "name": "G2",
          "ticks": 5689,
          "time": 66.15116279069767,
          "velocity": 0.2204724409448819
        },
        {
          "duration": 0.03488372093023884,
          "durationTicks": 3,
          "midi": 44,
          "name": "G#2",
          "ticks": 5699,
          "time": 66.26744186046511,
          "velocity": 0.1968503937007874
        },
        {
          "duration": 0.22093023255814614,
          "durationTicks": 19,
          "midi": 55,
          "name": "G3",
          "ticks": 5703,
          "time": 66.31395348837209,
          "velocity": 0.3700787401574803
        },
        {
          "duration": 0.19767441860464885,
          "durationTicks": 17,
          "midi": 43,
          "name": "G2",
          "ticks": 5706,
          "time": 66.34883720930233,
          "velocity": 0.1968503937007874
        },
        {
          "duration": 0.034883720930224626,
          "durationTicks": 3,
          "midi": 51,
          "name": "D#3",
          "ticks": 5723,
          "time": 66.54651162790698,
          "velocity": 0.13385826771653545
        },
        {
          "duration": 0.27906976744186807,
          "durationTicks": 24,
          "midi": 51,
          "name": "D#3",
          "ticks": 5730,
          "time": 66.62790697674419,
          "velocity": 0.2047244094488189
        },
        {
          "duration": 0.5697674418604635,
          "durationTicks": 49,
          "midi": 44,
          "name": "G#2",
          "ticks": 5756,
          "time": 66.93023255813954,
          "velocity": 0.2755905511811024
        },
        {
          "duration": 0.05813953488372192,
          "durationTicks": 5,
          "midi": 56,
          "name": "G#3",
          "ticks": 5756,
          "time": 66.93023255813954,
          "velocity": 0.3937007874015748
        },
        {
          "duration": 0.023255813953483084,
          "durationTicks": 2,
          "midi": 57,
          "name": "A3",
          "ticks": 5761,
          "time": 66.98837209302326,
          "velocity": 0.31496062992125984
        },
        {
          "duration": 0.48837209302324425,
          "durationTicks": 42,
          "midi": 58,
          "name": "A#3",
          "ticks": 5765,
          "time": 67.03488372093024,
          "velocity": 0.2283464566929134
        },
        {
          "duration": 0.27906976744185386,
          "durationTicks": 24,
          "midi": 51,
          "name": "D#3",
          "ticks": 5782,
          "time": 67.23255813953489,
          "velocity": 0.16535433070866143
        },
        {
          "duration": 0.023255813953497295,
          "durationTicks": 2,
          "midi": 45,
          "name": "A2",
          "ticks": 5807,
          "time": 67.52325581395348,
          "velocity": 0.2440944881889764
        },
        {
          "duration": 0.023255813953497295,
          "durationTicks": 2,
          "midi": 55,
          "name": "G3",
          "ticks": 5807,
          "time": 67.52325581395348,
          "velocity": 0.33858267716535434
        },
        {
          "duration": 0.24418604651162923,
          "durationTicks": 21,
          "midi": 44,
          "name": "G#2",
          "ticks": 5809,
          "time": 67.54651162790698,
          "velocity": 0.29133858267716534
        },
        {
          "duration": 0.09302325581394655,
          "durationTicks": 8,
          "midi": 56,
          "name": "G#3",
          "ticks": 5809,
          "time": 67.54651162790698,
          "velocity": 0.3937007874015748
        },
        {
          "duration": 0.03488372093023884,
          "durationTicks": 3,
          "midi": 45,
          "name": "A2",
          "ticks": 5832,
          "time": 67.81395348837209,
          "velocity": 0.2992125984251969
        },
        {
          "duration": 0.25581395348837077,
          "durationTicks": 22,
          "midi": 44,
          "name": "G#2",
          "ticks": 5835,
          "time": 67.84883720930233,
          "velocity": 0.2677165354330709
        },
        {
          "duration": 0.09302325581394655,
          "durationTicks": 8,
          "midi": 51,
          "name": "D#3",
          "ticks": 5836,
          "time": 67.86046511627907,
          "velocity": 0.1732283464566929
        },
        {
          "duration": 0.17441860465116577,
          "durationTicks": 15,
          "midi": 51,
          "name": "D#3",
          "ticks": 5845,
          "time": 67.96511627906976,
          "velocity": 0.1732283464566929
        },
        {
          "duration": 0.1860465116279073,
          "durationTicks": 16,
          "midi": 63,
          "name": "D#4",
          "ticks": 5859,
          "time": 68.12790697674419,
          "velocity": 0.1889763779527559
        },
        {
          "duration": 0.13953488372092693,
          "durationTicks": 12,
          "midi": 56,
          "name": "G#3",
          "ticks": 5860,
          "time": 68.13953488372093,
          "velocity": 0.4015748031496063
        },
        {
          "duration": 0.5581395348837219,
          "durationTicks": 48,
          "midi": 44,
          "name": "G#2",
          "ticks": 5861,
          "time": 68.15116279069767,
          "velocity": 0.30708661417322836
        },
        {
          "duration": 0.04651162790696617,
          "durationTicks": 4,
          "midi": 51,
          "name": "D#3",
          "ticks": 5868,
          "time": 68.23255813953489,
          "velocity": 0.08661417322834646
        },
        {
          "duration": 0.2674418604651123,
          "durationTicks": 23,
          "midi": 51,
          "name": "D#3",
          "ticks": 5889,
          "time": 68.47674418604652,
          "velocity": 0.1889763779527559
        },
        {
          "duration": 0.22093023255814614,
          "durationTicks": 19,
          "midi": 56,
          "name": "G#3",
          "ticks": 5913,
          "time": 68.75581395348837,
          "velocity": 0.3779527559055118
        },
        {
          "duration": 0.27906976744186807,
          "durationTicks": 24,
          "midi": 44,
          "name": "G#2",
          "ticks": 5914,
          "time": 68.76744186046511,
          "velocity": 0.29133858267716534
        },
        {
          "duration": 0.1046511627907023,
          "durationTicks": 9,
          "midi": 51,
          "name": "D#3",
          "ticks": 5920,
          "time": 68.83720930232558,
          "velocity": 0.14173228346456693
        },
        {
          "duration": 0.04651162790698038,
          "durationTicks": 4,
          "midi": 51,
          "name": "D#3",
          "ticks": 5930,
          "time": 68.95348837209302,
          "velocity": 0.11811023622047244
        },
        {
          "duration": 0.023255813953483084,
          "durationTicks": 2,
          "midi": 45,
          "name": "A2",
          "ticks": 5938,
          "time": 69.04651162790698,
          "velocity": 0.23622047244094488
        },
        {
          "duration": 0.27906976744186807,
          "durationTicks": 24,
          "midi": 51,
          "name": "D#3",
          "ticks": 5940,
          "time": 69.06976744186046,
          "velocity": 0.1968503937007874
        },
        {
          "duration": 0.2325581395348877,
          "durationTicks": 20,
          "midi": 44,
          "name": "G#2",
          "ticks": 5942,
          "time": 69.09302325581395,
          "velocity": 0.2283464566929134
        },
        {
          "duration": 0.24418604651162923,
          "durationTicks": 21,
          "midi": 56,
          "name": "G#3",
          "ticks": 5966,
          "time": 69.37209302325581,
          "velocity": 0.4409448818897638
        },
        {
          "duration": 0.2906976744186096,
          "durationTicks": 25,
          "midi": 44,
          "name": "G#2",
          "ticks": 5967,
          "time": 69.38372093023256,
          "velocity": 0.31496062992125984
        },
        {
          "duration": 0.2906976744186096,
          "durationTicks": 25,
          "midi": 51,
          "name": "D#3",
          "ticks": 5993,
          "time": 69.68604651162791,
          "velocity": 0.2283464566929134
        },
        {
          "duration": 0.24418604651162923,
          "durationTicks": 21,
          "midi": 44,
          "name": "G#2",
          "ticks": 5995,
          "time": 69.70930232558139,
          "velocity": 0.25984251968503935
        },
        {
          "duration": 0.034883720930224626,
          "durationTicks": 3,
          "midi": 45,
          "name": "A2",
          "ticks": 6019,
          "time": 69.98837209302326,
          "velocity": 0.2992125984251969
        },
        {
          "duration": 0.2325581395348877,
          "durationTicks": 20,
          "midi": 56,
          "name": "G#3",
          "ticks": 6019,
          "time": 69.98837209302326,
          "velocity": 0.3858267716535433
        },
        {
          "duration": 0.25581395348837077,
          "durationTicks": 22,
          "midi": 44,
          "name": "G#2",
          "ticks": 6022,
          "time": 70.02325581395348,
          "velocity": 0.2992125984251969
        },
        {
          "duration": 0.081395348837205,
          "durationTicks": 7,
          "midi": 51,
          "name": "D#3",
          "ticks": 6024,
          "time": 70.04651162790698,
          "velocity": 0.14960629921259844
        },
        {
          "duration": 0.06976744186046346,
          "durationTicks": 6,
          "midi": 51,
          "name": "D#3",
          "ticks": 6032,
          "time": 70.13953488372093,
          "velocity": 0.13385826771653545
        },
        {
          "duration": 0.25581395348837077,
          "durationTicks": 22,
          "midi": 44,
          "name": "G#2",
          "ticks": 6045,
          "time": 70.29069767441861,
          "velocity": 0.2283464566929134
        },
        {
          "duration": 0.30232558139533694,
          "durationTicks": 26,
          "midi": 51,
          "name": "D#3",
          "ticks": 6045,
          "time": 70.29069767441861,
          "velocity": 0.2047244094488189
        },
        {
          "duration": 0.023255813953497295,
          "durationTicks": 2,
          "midi": 45,
          "name": "A2",
          "ticks": 6070,
          "time": 70.5813953488372,
          "velocity": 0.2440944881889764
        },
        {
          "duration": 0.1860465116279073,
          "durationTicks": 16,
          "midi": 44,
          "name": "G#2",
          "ticks": 6072,
          "time": 70.6046511627907,
          "velocity": 0.30708661417322836
        },
        {
          "duration": 0.1860465116279073,
          "durationTicks": 16,
          "midi": 56,
          "name": "G#3",
          "ticks": 6072,
          "time": 70.6046511627907,
          "velocity": 0.3937007874015748
        },
        {
          "duration": 0.04651162790696617,
          "durationTicks": 4,
          "midi": 51,
          "name": "D#3",
          "ticks": 6077,
          "time": 70.66279069767442,
          "velocity": 0.14173228346456693
        },
        {
          "duration": 0.03488372093023884,
          "durationTicks": 3,
          "midi": 51,
          "name": "D#3",
          "ticks": 6087,
          "time": 70.77906976744185,
          "velocity": 0.13385826771653545
        },
        {
          "duration": 0.27906976744186807,
          "durationTicks": 24,
          "midi": 51,
          "name": "D#3",
          "ticks": 6096,
          "time": 70.88372093023256,
          "velocity": 0.2047244094488189
        },
        {
          "duration": 0.023255813953497295,
          "durationTicks": 2,
          "midi": 45,
          "name": "A2",
          "ticks": 6123,
          "time": 71.19767441860465,
          "velocity": 0.2755905511811024
        },
        {
          "duration": 0.33720930232559,
          "durationTicks": 29,
          "midi": 56,
          "name": "G#3",
          "ticks": 6123,
          "time": 71.19767441860465,
          "velocity": 0.41732283464566927
        },
        {
          "duration": 0.17441860465115155,
          "durationTicks": 15,
          "midi": 44,
          "name": "G#2",
          "ticks": 6125,
          "time": 71.22093023255815,
          "velocity": 0.29133858267716534
        },
        {
          "duration": 0.04651162790698038,
          "durationTicks": 4,
          "midi": 51,
          "name": "D#3",
          "ticks": 6129,
          "time": 71.26744186046511,
          "velocity": 0.10236220472440945
        },
        {
          "duration": 0.17441860465116577,
          "durationTicks": 15,
          "midi": 60,
          "name": "C4",
          "ticks": 6139,
          "time": 71.38372093023256,
          "velocity": 0.07874015748031496
        },
        {
          "duration": 0.27906976744185386,
          "durationTicks": 24,
          "midi": 51,
          "name": "D#3",
          "ticks": 6149,
          "time": 71.5,
          "velocity": 0.1968503937007874
        },
        {
          "duration": 0.034883720930224626,
          "durationTicks": 3,
          "midi": 44,
          "name": "G#2",
          "ticks": 6174,
          "time": 71.79069767441861,
          "velocity": 0.2283464566929134
        },
        {
          "duration": 0.30232558139533694,
          "durationTicks": 26,
          "midi": 55,
          "name": "G3",
          "ticks": 6174,
          "time": 71.79069767441861,
          "velocity": 0.4251968503937008
        },
        {
          "duration": 0.12790697674418539,
          "durationTicks": 11,
          "midi": 70,
          "name": "A#4",
          "ticks": 6175,
          "time": 71.80232558139535,
          "velocity": 0.12598425196850394
        },
        {
          "duration": 0.03488372093023884,
          "durationTicks": 3,
          "midi": 63,
          "name": "D#4",
          "ticks": 6176,
          "time": 71.81395348837209,
          "velocity": 0.11811023622047244
        },
        {
          "duration": 0.2906976744186096,
          "durationTicks": 25,
          "midi": 43,
          "name": "G2",
          "ticks": 6177,
          "time": 71.82558139534883,
          "velocity": 0.23622047244094488
        },
        {
          "duration": 0.03488372093023884,
          "durationTicks": 3,
          "midi": 63,
          "name": "D#4",
          "ticks": 6181,
          "time": 71.87209302325581,
          "velocity": 0.12598425196850394
        },
        {
          "duration": 0.034883720930224626,
          "durationTicks": 3,
          "midi": 63,
          "name": "D#4",
          "ticks": 6186,
          "time": 71.93023255813954,
          "velocity": 0.12598425196850394
        },
        {
          "duration": 0.034883720930224626,
          "durationTicks": 3,
          "midi": 63,
          "name": "D#4",
          "ticks": 6191,
          "time": 71.98837209302326,
          "velocity": 0.11811023622047244
        },
        {
          "duration": 0.30232558139535115,
          "durationTicks": 26,
          "midi": 51,
          "name": "D#3",
          "ticks": 6201,
          "time": 72.1046511627907,
          "velocity": 0.23622047244094488
        },
        {
          "duration": 0.023255813953483084,
          "durationTicks": 2,
          "midi": 44,
          "name": "G#2",
          "ticks": 6202,
          "time": 72.11627906976744,
          "velocity": 0.2440944881889764
        },
        {
          "duration": 0.22093023255814614,
          "durationTicks": 19,
          "midi": 43,
          "name": "G2",
          "ticks": 6204,
          "time": 72.13953488372093,
          "velocity": 0.2047244094488189
        },
        {
          "duration": 0.32558139534883423,
          "durationTicks": 28,
          "midi": 55,
          "name": "G3",
          "ticks": 6227,
          "time": 72.40697674418605,
          "velocity": 0.3858267716535433
        },
        {
          "duration": 0.034883720930224626,
          "durationTicks": 3,
          "midi": 63,
          "name": "D#4",
          "ticks": 6227,
          "time": 72.40697674418605,
          "velocity": 0.10236220472440945
        },
        {
          "duration": 0.24418604651162923,
          "durationTicks": 21,
          "midi": 43,
          "name": "G2",
          "ticks": 6231,
          "time": 72.45348837209302,
          "velocity": 0.1889763779527559
        },
        {
          "duration": 0.03488372093023884,
          "durationTicks": 3,
          "midi": 63,
          "name": "D#4",
          "ticks": 6232,
          "time": 72.46511627906976,
          "velocity": 0.08661417322834646
        },
        {
          "duration": 0.03488372093023884,
          "durationTicks": 3,
          "midi": 43,
          "name": "G2",
          "ticks": 6257,
          "time": 72.75581395348837,
          "velocity": 0.1889763779527559
        },
        {
          "duration": 0.25581395348837077,
          "durationTicks": 22,
          "midi": 51,
          "name": "D#3",
          "ticks": 6258,
          "time": 72.76744186046511,
          "velocity": 0.1732283464566929
        },
        {
          "duration": 0.1860465116279073,
          "durationTicks": 16,
          "midi": 43,
          "name": "G2",
          "ticks": 6261,
          "time": 72.80232558139535,
          "velocity": 0.18110236220472442
        },
        {
          "duration": 0.32558139534884845,
          "durationTicks": 28,
          "midi": 55,
          "name": "G3",
          "ticks": 6280,
          "time": 73.02325581395348,
          "velocity": 0.4015748031496063
        },
        {
          "duration": 0.023255813953483084,
          "durationTicks": 2,
          "midi": 44,
          "name": "G#2",
          "ticks": 6281,
          "time": 73.03488372093024,
          "velocity": 0.23622047244094488
        },
        {
          "duration": 0.24418604651162923,
          "durationTicks": 21,
          "midi": 43,
          "name": "G2",
          "ticks": 6286,
          "time": 73.09302325581395,
          "velocity": 0.2125984251968504
        },
        {
          "duration": 0.023255813953497295,
          "durationTicks": 2,
          "midi": 44,
          "name": "G#2",
          "ticks": 6307,
          "time": 73.33720930232558,
          "velocity": 0.25984251968503935
        },
        {
          "duration": 0.30232558139533694,
          "durationTicks": 26,
          "midi": 51,
          "name": "D#3",
          "ticks": 6308,
          "time": 73.34883720930233,
          "velocity": 0.23622047244094488
        },
        {
          "duration": 0.23255813953487348,
          "durationTicks": 20,
          "midi": 43,
          "name": "G2",
          "ticks": 6309,
          "time": 73.36046511627907,
          "velocity": 0.2047244094488189
        },
        {
          "duration": 0.03488372093023884,
          "durationTicks": 3,
          "midi": 44,
          "name": "G#2",
          "ticks": 6329,
          "time": 73.59302325581395,
          "velocity": 0.18110236220472442
        },
        {
          "duration": 0.2093023255814046,
          "durationTicks": 18,
          "midi": 55,
          "name": "G3",
          "ticks": 6334,
          "time": 73.65116279069767,
          "velocity": 0.3937007874015748
        },
        {
          "duration": 0.17441860465116577,
          "durationTicks": 15,
          "midi": 43,
          "name": "G2",
          "ticks": 6337,
          "time": 73.68604651162791,
          "velocity": 0.1889763779527559
        },
        {
          "duration": 0.30232558139535115,
          "durationTicks": 26,
          "midi": 51,
          "name": "D#3",
          "ticks": 6359,
          "time": 73.94186046511628,
          "velocity": 0.23622047244094488
        },
        {
          "duration": 0.3488372093023173,
          "durationTicks": 30,
          "midi": 75,
          "name": "D#5",
          "ticks": 6385,
          "time": 74.24418604651163,
          "velocity": 0.12598425196850394
        },
        {
          "duration": 0.023255813953483084,
          "durationTicks": 2,
          "midi": 47,
          "name": "B2",
          "ticks": 6386,
          "time": 74.25581395348837,
          "velocity": 0.31496062992125984
        },
        {
          "duration": 0.06976744186046346,
          "durationTicks": 6,
          "midi": 60,
          "name": "C4",
          "ticks": 6386,
          "time": 74.25581395348837,
          "velocity": 0.1968503937007874
        },
        {
          "duration": 0.034883720930224626,
          "durationTicks": 3,
          "midi": 48,
          "name": "C3",
          "ticks": 6390,
          "time": 74.30232558139535,
          "velocity": 0.2992125984251969
        },
        {
          "duration": 0.40697674418605345,
          "durationTicks": 35,
          "midi": 63,
          "name": "D#4",
          "ticks": 6392,
          "time": 74.32558139534883,
          "velocity": 0.09448818897637795
        },
        {
          "duration": 0.05813953488372192,
          "durationTicks": 5,
          "midi": 60,
          "name": "C4",
          "ticks": 6396,
          "time": 74.37209302325581,
          "velocity": 0.14960629921259844
        },
        {
          "duration": 0.081395348837205,
          "durationTicks": 7,
          "midi": 48,
          "name": "C3",
          "ticks": 6405,
          "time": 74.47674418604652,
          "velocity": 0.31496062992125984
        },
        {
          "duration": 0.023255813953483084,
          "durationTicks": 2,
          "midi": 50,
          "name": "D3",
          "ticks": 6417,
          "time": 74.61627906976744,
          "velocity": 0.2755905511811024
        },
        {
          "duration": 0.05813953488372192,
          "durationTicks": 5,
          "midi": 60,
          "name": "C4",
          "ticks": 6418,
          "time": 74.62790697674419,
          "velocity": 0.11811023622047244
        },
        {
          "duration": 0.023255813953497295,
          "durationTicks": 2,
          "midi": 51,
          "name": "D#3",
          "ticks": 6419,
          "time": 74.63953488372093,
          "velocity": 0.2440944881889764
        },
        {
          "duration": 0.023255813953497295,
          "durationTicks": 2,
          "midi": 50,
          "name": "D3",
          "ticks": 6424,
          "time": 74.69767441860465,
          "velocity": 0.2677165354330709
        },
        {
          "duration": 0.023255813953483084,
          "durationTicks": 2,
          "midi": 51,
          "name": "D#3",
          "ticks": 6426,
          "time": 74.72093023255815,
          "velocity": 0.2440944881889764
        },
        {
          "duration": 0.023255813953497295,
          "durationTicks": 2,
          "midi": 50,
          "name": "D3",
          "ticks": 6431,
          "time": 74.77906976744185,
          "velocity": 0.2755905511811024
        },
        {
          "duration": 0.034883720930224626,
          "durationTicks": 3,
          "midi": 51,
          "name": "D#3",
          "ticks": 6433,
          "time": 74.80232558139535,
          "velocity": 0.2283464566929134
        },
        {
          "duration": 0.023255813953483084,
          "durationTicks": 2,
          "midi": 47,
          "name": "B2",
          "ticks": 6437,
          "time": 74.84883720930233,
          "velocity": 0.29133858267716534
        },
        {
          "duration": 0.27906976744185386,
          "durationTicks": 24,
          "midi": 60,
          "name": "C4",
          "ticks": 6438,
          "time": 74.86046511627907,
          "velocity": 0.10236220472440945
        },
        {
          "duration": 0.05813953488372192,
          "durationTicks": 5,
          "midi": 48,
          "name": "C3",
          "ticks": 6441,
          "time": 74.8953488372093,
          "velocity": 0.29133858267716534
        },
        {
          "duration": 0.023255813953497295,
          "durationTicks": 2,
          "midi": 48,
          "name": "C3",
          "ticks": 6451,
          "time": 75.01162790697674,
          "velocity": 0.23622047244094488
        },
        {
          "duration": 0.023255813953483084,
          "durationTicks": 2,
          "midi": 48,
          "name": "C3",
          "ticks": 6461,
          "time": 75.12790697674419,
          "velocity": 0.2755905511811024
        },
        {
          "duration": 0.023255813953483084,
          "durationTicks": 2,
          "midi": 50,
          "name": "D3",
          "ticks": 6464,
          "time": 75.16279069767442,
          "velocity": 0.25196850393700787
        },
        {
          "duration": 0.034883720930224626,
          "durationTicks": 3,
          "midi": 51,
          "name": "D#3",
          "ticks": 6486,
          "time": 75.4186046511628,
          "velocity": 0.2125984251968504
        },
        {
          "duration": 0.03488372093023884,
          "durationTicks": 3,
          "midi": 56,
          "name": "G#3",
          "ticks": 6489,
          "time": 75.45348837209302,
          "velocity": 0.11023622047244094
        },
        {
          "duration": 0.418604651162795,
          "durationTicks": 36,
          "midi": 60,
          "name": "C4",
          "ticks": 6489,
          "time": 75.45348837209302,
          "velocity": 0.14173228346456693
        },
        {
          "duration": 0.023255813953497295,
          "durationTicks": 2,
          "midi": 47,
          "name": "B2",
          "ticks": 6490,
          "time": 75.46511627906976,
          "velocity": 0.30708661417322836
        },
        {
          "duration": 0.08139534883721922,
          "durationTicks": 7,
          "midi": 48,
          "name": "C3",
          "ticks": 6495,
          "time": 75.52325581395348,
          "velocity": 0.29133858267716534
        },
        {
          "duration": 0.09302325581394655,
          "durationTicks": 8,
          "midi": 48,
          "name": "C3",
          "ticks": 6507,
          "time": 75.66279069767442,
          "velocity": 0.31496062992125984
        },
        {
          "duration": 0.32558139534883423,
          "durationTicks": 28,
          "midi": 63,
          "name": "D#4",
          "ticks": 6514,
          "time": 75.74418604651163,
          "velocity": 0.09448818897637795
        },
        {
          "duration": 0.023255813953483084,
          "durationTicks": 2,
          "midi": 50,
          "name": "D3",
          "ticks": 6518,
          "time": 75.79069767441861,
          "velocity": 0.2992125984251969
        },
        {
          "duration": 0.023255813953483084,
          "durationTicks": 2,
          "midi": 51,
          "name": "D#3",
          "ticks": 6520,
          "time": 75.81395348837209,
          "velocity": 0.2755905511811024
        },
        {
          "duration": 0.023255813953483084,
          "durationTicks": 2,
          "midi": 50,
          "name": "D3",
          "ticks": 6525,
          "time": 75.87209302325581,
          "velocity": 0.29133858267716534
        },
        {
          "duration": 0.023255813953497295,
          "durationTicks": 2,
          "midi": 51,
          "name": "D#3",
          "ticks": 6527,
          "time": 75.8953488372093,
          "velocity": 0.2755905511811024
        },
        {
          "duration": 0.023255813953497295,
          "durationTicks": 2,
          "midi": 50,
          "name": "D3",
          "ticks": 6532,
          "time": 75.95348837209302,
          "velocity": 0.28346456692913385
        },
        {
          "duration": 0.04651162790698038,
          "durationTicks": 4,
          "midi": 51,
          "name": "D#3",
          "ticks": 6537,
          "time": 76.01162790697674,
          "velocity": 0.25984251968503935
        },
        {
          "duration": 0.2093023255813904,
          "durationTicks": 18,
          "midi": 60,
          "name": "C4",
          "ticks": 6541,
          "time": 76.05813953488372,
          "velocity": 0.12598425196850394
        },
        {
          "duration": 0.023255813953483084,
          "durationTicks": 2,
          "midi": 47,
          "name": "B2",
          "ticks": 6542,
          "time": 76.06976744186046,
          "velocity": 0.2677165354330709
        },
        {
          "duration": 0.04651162790696617,
          "durationTicks": 4,
          "midi": 46,
          "name": "A#2",
          "ticks": 6561,
          "time": 76.29069767441861,
          "velocity": 0.1732283464566929
        },
        {
          "duration": 0.27906976744185386,
          "durationTicks": 24,
          "midi": 51,
          "name": "D#3",
          "ticks": 6567,
          "time": 76.36046511627907,
          "velocity": 0.25196850393700787
        },
        {
          "duration": 0.023255813953483084,
          "durationTicks": 2,
          "midi": 57,
          "name": "A3",
          "ticks": 6590,
          "time": 76.62790697674419,
          "velocity": 0.4251968503937008
        },
        {
          "duration": 0.06976744186047767,
          "durationTicks": 6,
          "midi": 56,
          "name": "G#3",
          "ticks": 6592,
          "time": 76.65116279069767,
          "velocity": 0.4330708661417323
        },
        {
          "duration": 0.2674418604651123,
          "durationTicks": 23,
          "midi": 44,
          "name": "G#2",
          "ticks": 6595,
          "time": 76.68604651162791,
          "velocity": 0.29133858267716534
        },
        {
          "duration": 0.1046511627907023,
          "durationTicks": 9,
          "midi": 51,
          "name": "D#3",
          "ticks": 6597,
          "time": 76.70930232558139,
          "velocity": 0.12598425196850394
        },
        {
          "duration": 0.023255813953483084,
          "durationTicks": 2,
          "midi": 57,
          "name": "A3",
          "ticks": 6598,
          "time": 76.72093023255815,
          "velocity": 0.33070866141732286
        },
        {
          "duration": 0.4651162790697754,
          "durationTicks": 40,
          "midi": 58,
          "name": "A#3",
          "ticks": 6602,
          "time": 76.76744186046511,
          "velocity": 0.25984251968503935
        },
        {
          "duration": 0.08139534883721922,
          "durationTicks": 7,
          "midi": 51,
          "name": "D#3",
          "ticks": 6607,
          "time": 76.82558139534883,
          "velocity": 0.12598425196850394
        },
        {
          "duration": 0.03488372093023884,
          "durationTicks": 3,
          "midi": 44,
          "name": "G#2",
          "ticks": 6619,
          "time": 76.96511627906976,
          "velocity": 0.18110236220472442
        },
        {
          "duration": 0.2674418604651123,
          "durationTicks": 23,
          "midi": 51,
          "name": "D#3",
          "ticks": 6620,
          "time": 76.97674418604652,
          "velocity": 0.2204724409448819
        },
        {
          "duration": 0.2093023255814046,
          "durationTicks": 18,
          "midi": 44,
          "name": "G#2",
          "ticks": 6623,
          "time": 77.01162790697674,
          "velocity": 0.2204724409448819
        },
        {
          "duration": 0.023255813953483084,
          "durationTicks": 2,
          "midi": 45,
          "name": "A2",
          "ticks": 6644,
          "time": 77.25581395348837,
          "velocity": 0.29133858267716534
        },
        {
          "duration": 0.09302325581396076,
          "durationTicks": 8,
          "midi": 56,
          "name": "G#3",
          "ticks": 6644,
          "time": 77.25581395348837,
          "velocity": 0.3858267716535433
        },
        {
          "duration": 0.27906976744186807,
          "durationTicks": 24,
          "midi": 44,
          "name": "G#2",
          "ticks": 6646,
          "time": 77.27906976744185,
          "velocity": 0.2992125984251969
        },
        {
          "duration": 0.06976744186046346,
          "durationTicks": 6,
          "midi": 51,
          "name": "D#3",
          "ticks": 6648,
          "time": 77.30232558139535,
          "velocity": 0.14173228346456693
        },
        {
          "duration": 0.04651162790698038,
          "durationTicks": 4,
          "midi": 51,
          "name": "D#3",
          "ticks": 6655,
          "time": 77.38372093023256,
          "velocity": 0.14173228346456693
        },
        {
          "duration": 0.04651162790698038,
          "durationTicks": 4,
          "midi": 51,
          "name": "D#3",
          "ticks": 6660,
          "time": 77.44186046511628,
          "velocity": 0.13385826771653545
        },
        {
          "duration": 0.2906976744186096,
          "durationTicks": 25,
          "midi": 51,
          "name": "D#3",
          "ticks": 6671,
          "time": 77.56976744186046,
          "velocity": 0.23622047244094488
        },
        {
          "duration": 0.24418604651162923,
          "durationTicks": 21,
          "midi": 44,
          "name": "G#2",
          "ticks": 6673,
          "time": 77.59302325581395,
          "velocity": 0.25196850393700787
        },
        {
          "duration": 0.09302325581394655,
          "durationTicks": 8,
          "midi": 56,
          "name": "G#3",
          "ticks": 6697,
          "time": 77.87209302325581,
          "velocity": 0.4251968503937008
        },
        {
          "duration": 0.2906976744186096,
          "durationTicks": 25,
          "midi": 44,
          "name": "G#2",
          "ticks": 6698,
          "time": 77.88372093023256,
          "velocity": 0.2992125984251969
        },
        {
          "duration": 0.04651162790698038,
          "durationTicks": 4,
          "midi": 51,
          "name": "D#3",
          "ticks": 6705,
          "time": 77.96511627906976,
          "velocity": 0.14173228346456693
        },
        {
          "duration": 0.24418604651162923,
          "durationTicks": 21,
          "midi": 58,
          "name": "A#3",
          "ticks": 6718,
          "time": 78.11627906976744,
          "velocity": 0.10236220472440945
        },
        {
          "duration": 0.24418604651162923,
          "durationTicks": 21,
          "midi": 44,
          "name": "G#2",
          "ticks": 6724,
          "time": 78.18604651162791,
          "velocity": 0.25984251968503935
        },
        {
          "duration": 0.23255813953487348,
          "durationTicks": 20,
          "midi": 51,
          "name": "D#3",
          "ticks": 6728,
          "time": 78.23255813953489,
          "velocity": 0.1889763779527559
        },
        {
          "duration": 0.034883720930224626,
          "durationTicks": 3,
          "midi": 45,
          "name": "A2",
          "ticks": 6745,
          "time": 78.43023255813954,
          "velocity": 0.18110236220472442
        },
        {
          "duration": 0.023255813953497295,
          "durationTicks": 2,
          "midi": 55,
          "name": "G3",
          "ticks": 6747,
          "time": 78.45348837209302,
          "velocity": 0.29133858267716534
        },
        {
          "duration": 0.2906976744186096,
          "durationTicks": 25,
          "midi": 44,
          "name": "G#2",
          "ticks": 6748,
          "time": 78.46511627906976,
          "velocity": 0.2755905511811024
        },
        {
          "duration": 0.12790697674418539,
          "durationTicks": 11,
          "midi": 56,
          "name": "G#3",
          "ticks": 6749,
          "time": 78.47674418604652,
          "velocity": 0.3700787401574803
        },
        {
          "duration": 0.27906976744186807,
          "durationTicks": 24,
          "midi": 51,
          "name": "D#3",
          "ticks": 6775,
          "time": 78.77906976744185,
          "velocity": 0.2440944881889764
        },
        {
          "duration": 0.23255813953487348,
          "durationTicks": 20,
          "midi": 44,
          "name": "G#2",
          "ticks": 6776,
          "time": 78.79069767441861,
          "velocity": 0.25984251968503935
        },
        {
          "duration": 0.2906976744186096,
          "durationTicks": 25,
          "midi": 44,
          "name": "G#2",
          "ticks": 6801,
          "time": 79.0813953488372,
          "velocity": 0.30708661417322836
        },
        {
          "duration": 0.13953488372094114,
          "durationTicks": 12,
          "midi": 56,
          "name": "G#3",
          "ticks": 6801,
          "time": 79.0813953488372,
          "velocity": 0.3858267716535433
        },
        {
          "duration": 0.1046511627907023,
          "durationTicks": 9,
          "midi": 51,
          "name": "D#3",
          "ticks": 6805,
          "time": 79.12790697674419,
          "velocity": 0.14173228346456693
        },
        {
          "duration": 0.04651162790698038,
          "durationTicks": 4,
          "midi": 51,
          "name": "D#3",
          "ticks": 6815,
          "time": 79.24418604651163,
          "velocity": 0.14173228346456693
        },
        {
          "duration": 0.2674418604651123,
          "durationTicks": 23,
          "midi": 44,
          "name": "G#2",
          "ticks": 6827,
          "time": 79.38372093023256,
          "velocity": 0.25984251968503935
        },
        {
          "duration": 0.27906976744186807,
          "durationTicks": 24,
          "midi": 51,
          "name": "D#3",
          "ticks": 6828,
          "time": 79.3953488372093,
          "velocity": 0.2047244094488189
        },
        {
          "duration": 0.023255813953483084,
          "durationTicks": 2,
          "midi": 45,
          "name": "A2",
          "ticks": 6853,
          "time": 79.68604651162791,
          "velocity": 0.30708661417322836
        },
        {
          "duration": 0.2093023255813904,
          "durationTicks": 18,
          "midi": 56,
          "name": "G#3",
          "ticks": 6853,
          "time": 79.68604651162791,
          "velocity": 0.3700787401574803
        },
        {
          "duration": 0.2674418604651265,
          "durationTicks": 23,
          "midi": 44,
          "name": "G#2",
          "ticks": 6855,
          "time": 79.70930232558139,
          "velocity": 0.31496062992125984
        },
        {
          "duration": 0.10465116279068809,
          "durationTicks": 9,
          "midi": 51,
          "name": "D#3",
          "ticks": 6857,
          "time": 79.73255813953489,
          "velocity": 0.15748031496062992
        },
        {
          "duration": 0.04651162790696617,
          "durationTicks": 4,
          "midi": 51,
          "name": "D#3",
          "ticks": 6867,
          "time": 79.84883720930233,
          "velocity": 0.14173228346456693
        },
        {
          "duration": 0.25581395348837077,
          "durationTicks": 22,
          "midi": 44,
          "name": "G#2",
          "ticks": 6879,
          "time": 79.98837209302326,
          "velocity": 0.25196850393700787
        },
        {
          "duration": 0.30232558139535115,
          "durationTicks": 26,
          "midi": 51,
          "name": "D#3",
          "ticks": 6879,
          "time": 79.98837209302326,
          "velocity": 0.2204724409448819
        },
        {
          "duration": 0.034883720930224626,
          "durationTicks": 3,
          "midi": 45,
          "name": "A2",
          "ticks": 6901,
          "time": 80.24418604651163,
          "velocity": 0.16535433070866143
        },
        {
          "duration": 0.13953488372092693,
          "durationTicks": 12,
          "midi": 56,
          "name": "G#3",
          "ticks": 6905,
          "time": 80.29069767441861,
          "velocity": 0.3937007874015748
        },
        {
          "duration": 0.2674418604651123,
          "durationTicks": 23,
          "midi": 44,
          "name": "G#2",
          "ticks": 6906,
          "time": 80.30232558139535,
          "velocity": 0.28346456692913385
        },
        {
          "duration": 0.04651162790696617,
          "durationTicks": 4,
          "midi": 51,
          "name": "D#3",
          "ticks": 6910,
          "time": 80.34883720930233,
          "velocity": 0.14173228346456693
        },
        {
          "duration": 0.04651162790696617,
          "durationTicks": 4,
          "midi": 51,
          "name": "D#3",
          "ticks": 6915,
          "time": 80.40697674418605,
          "velocity": 0.13385826771653545
        },
        {
          "duration": 0.25581395348837077,
          "durationTicks": 22,
          "midi": 44,
          "name": "G#2",
          "ticks": 6930,
          "time": 80.5813953488372,
          "velocity": 0.2440944881889764
        },
        {
          "duration": 0.27906976744186807,
          "durationTicks": 24,
          "midi": 51,
          "name": "D#3",
          "ticks": 6931,
          "time": 80.59302325581395,
          "velocity": 0.1889763779527559
        },
        {
          "duration": 0.03488372093023884,
          "durationTicks": 3,
          "midi": 45,
          "name": "A2",
          "ticks": 6952,
          "time": 80.83720930232558,
          "velocity": 0.1968503937007874
        },
        {
          "duration": 0.27906976744185386,
          "durationTicks": 24,
          "midi": 56,
          "name": "G#3",
          "ticks": 6955,
          "time": 80.87209302325581,
          "velocity": 0.4094488188976378
        },
        {
          "duration": 0.2093023255814046,
          "durationTicks": 18,
          "midi": 44,
          "name": "G#2",
          "ticks": 6957,
          "time": 80.8953488372093,
          "velocity": 0.29133858267716534
        },
        {
          "duration": 0.30232558139535115,
          "durationTicks": 26,
          "midi": 51,
          "name": "D#3",
          "ticks": 6982,
          "time": 81.18604651162791,
          "velocity": 0.2283464566929134
        },
        {
          "duration": 0.034883720930224626,
          "durationTicks": 3,
          "midi": 44,
          "name": "G#2",
          "ticks": 7008,
          "time": 81.48837209302326,
          "velocity": 0.2283464566929134
        },
        {
          "duration": 0.30232558139535115,
          "durationTicks": 26,
          "midi": 55,
          "name": "G3",
          "ticks": 7008,
          "time": 81.48837209302326,
          "velocity": 0.41732283464566927
        },
        {
          "duration": 0.034883720930224626,
          "durationTicks": 3,
          "midi": 63,
          "name": "D#4",
          "ticks": 7008,
          "time": 81.48837209302326,
          "velocity": 0.2047244094488189
        },
        {
          "duration": 0.27906976744186807,
          "durationTicks": 24,
          "midi": 43,
          "name": "G2",
          "ticks": 7011,
          "time": 81.52325581395348,
          "velocity": 0.2204724409448819
        },
        {
          "duration": 0.10465116279068809,
          "durationTicks": 9,
          "midi": 63,
          "name": "D#4",
          "ticks": 7012,
          "time": 81.53488372093024,
          "velocity": 0.1732283464566929
        },
        {
          "duration": 0.04651162790698038,
          "durationTicks": 4,
          "midi": 63,
          "name": "D#4",
          "ticks": 7022,
          "time": 81.65116279069767,
          "velocity": 0.14173228346456693
        },
        {
          "duration": 0.5232558139534973,
          "durationTicks": 45,
          "midi": 63,
          "name": "D#4",
          "ticks": 7027,
          "time": 81.70930232558139,
          "velocity": 0.18110236220472442
        },
        {
          "duration": 0.05813953488372192,
          "durationTicks": 5,
          "midi": 51,
          "name": "D#3",
          "ticks": 7034,
          "time": 81.79069767441861,
          "velocity": 0.1889763779527559
        },
        {
          "duration": 0.023255813953483084,
          "durationTicks": 2,
          "midi": 44,
          "name": "G#2",
          "ticks": 7035,
          "time": 81.80232558139535,
          "velocity": 0.23622047244094488
        },
        {
          "duration": 0.22093023255814614,
          "durationTicks": 19,
          "midi": 43,
          "name": "G2",
          "ticks": 7037,
          "time": 81.82558139534883,
          "velocity": 0.2125984251968504
        },
        {
          "duration": 0.2093023255813904,
          "durationTicks": 18,
          "midi": 51,
          "name": "D#3",
          "ticks": 7040,
          "time": 81.86046511627907,
          "velocity": 0.1889763779527559
        },
        {
          "duration": 0.3139534883720927,
          "durationTicks": 27,
          "midi": 55,
          "name": "G3",
          "ticks": 7059,
          "time": 82.0813953488372,
          "velocity": 0.3858267716535433
        },
        {
          "duration": 0.03488372093023884,
          "durationTicks": 3,
          "midi": 44,
          "name": "G#2",
          "ticks": 7060,
          "time": 82.09302325581395,
          "velocity": 0.2283464566929134
        },
        {
          "duration": 0.24418604651162923,
          "durationTicks": 21,
          "midi": 43,
          "name": "G2",
          "ticks": 7063,
          "time": 82.12790697674419,
          "velocity": 0.2047244094488189
        },
        {
          "duration": 0.034883720930224626,
          "durationTicks": 3,
          "midi": 63,
          "name": "D#4",
          "ticks": 7073,
          "time": 82.24418604651163,
          "velocity": 0.13385826771653545
        },
        {
          "duration": 0.023255813953497295,
          "durationTicks": 2,
          "midi": 44,
          "name": "G#2",
          "ticks": 7085,
          "time": 82.38372093023256,
          "velocity": 0.25196850393700787
        },
        {
          "duration": 0.30232558139535115,
          "durationTicks": 26,
          "midi": 51,
          "name": "D#3",
          "ticks": 7086,
          "time": 82.3953488372093,
          "velocity": 0.33070866141732286
        },
        {
          "duration": 0.16279069767442422,
          "durationTicks": 14,
          "midi": 43,
          "name": "G2",
          "ticks": 7092,
          "time": 82.46511627906976,
          "velocity": 0.2047244094488189
        },
        {
          "duration": 0.32558139534883423,
          "durationTicks": 28,
          "midi": 55,
          "name": "G3",
          "ticks": 7112,
          "time": 82.69767441860465,
          "velocity": 0.4094488188976378
        },
        {
          "duration": 0.27906976744186807,
          "durationTicks": 24,
          "midi": 43,
          "name": "G2",
          "ticks": 7113,
          "time": 82.70930232558139,
          "velocity": 0.2125984251968504
        },
        {
          "duration": 0.034883720930224626,
          "durationTicks": 3,
          "midi": 63,
          "name": "D#4",
          "ticks": 7125,
          "time": 82.84883720930233,
          "velocity": 0.10236220472440945
        },
        {
          "duration": 0.034883720930224626,
          "durationTicks": 3,
          "midi": 63,
          "name": "D#4",
          "ticks": 7130,
          "time": 82.90697674418605,
          "velocity": 0.10236220472440945
        },
        {
          "duration": 0.034883720930224626,
          "durationTicks": 3,
          "midi": 62,
          "name": "D4",
          "ticks": 7136,
          "time": 82.97674418604652,
          "velocity": 0.08661417322834646
        },
        {
          "duration": 0.023255813953497295,
          "durationTicks": 2,
          "midi": 44,
          "name": "G#2",
          "ticks": 7140,
          "time": 83.02325581395348,
          "velocity": 0.23622047244094488
        },
        {
          "duration": 0.2674418604651123,
          "durationTicks": 23,
          "midi": 51,
          "name": "D#3",
          "ticks": 7141,
          "time": 83.03488372093024,
          "velocity": 0.2125984251968504
        },
        {
          "duration": 0.17441860465116577,
          "durationTicks": 15,
          "midi": 43,
          "name": "G2",
          "ticks": 7145,
          "time": 83.0813953488372,
          "velocity": 0.2204724409448819
        },
        {
          "duration": 0.04651162790698038,
          "durationTicks": 4,
          "midi": 44,
          "name": "G#2",
          "ticks": 7160,
          "time": 83.25581395348837,
          "velocity": 0.1889763779527559
        },
        {
          "duration": 0.3139534883720927,
          "durationTicks": 27,
          "midi": 55,
          "name": "G3",
          "ticks": 7164,
          "time": 83.30232558139535,
          "velocity": 0.3937007874015748
        },
        {
          "duration": 0.24418604651161502,
          "durationTicks": 21,
          "midi": 43,
          "name": "G2",
          "ticks": 7168,
          "time": 83.34883720930233,
          "velocity": 0.2047244094488189
        },
        {
          "duration": 0.25581395348837077,
          "durationTicks": 22,
          "midi": 51,
          "name": "D#3",
          "ticks": 7192,
          "time": 83.62790697674419,
          "velocity": 0.1968503937007874
        },
        {
          "duration": 0.1860465116279073,
          "durationTicks": 16,
          "midi": 43,
          "name": "G2",
          "ticks": 7194,
          "time": 83.65116279069767,
          "velocity": 0.2047244094488189
        },
        {
          "duration": 0.03488372093023884,
          "durationTicks": 3,
          "midi": 44,
          "name": "G#2",
          "ticks": 7210,
          "time": 83.83720930232558,
          "velocity": 0.1732283464566929
        },
        {
          "duration": 0.03488372093023884,
          "durationTicks": 3,
          "midi": 57,
          "name": "A3",
          "ticks": 7214,
          "time": 83.88372093023256,
          "velocity": 0.3858267716535433
        },
        {
          "duration": 0.27906976744185386,
          "durationTicks": 24,
          "midi": 43,
          "name": "G2",
          "ticks": 7216,
          "time": 83.90697674418605,
          "velocity": 0.2047244094488189
        },
        {
          "duration": 0.17441860465115155,
          "durationTicks": 15,
          "midi": 55,
          "name": "G3",
          "ticks": 7217,
          "time": 83.9186046511628,
          "velocity": 0.3858267716535433
        },
        {
          "duration": 0.3953488372092977,
          "durationTicks": 34,
          "midi": 58,
          "name": "A#3",
          "ticks": 7235,
          "time": 84.12790697674419,
          "velocity": 0.2125984251968504
        },
        {
          "duration": 0.03488372093023884,
          "durationTicks": 3,
          "midi": 43,
          "name": "G2",
          "ticks": 7241,
          "time": 84.19767441860465,
          "velocity": 0.1732283464566929
        },
        {
          "duration": 0.30232558139533694,
          "durationTicks": 26,
          "midi": 51,
          "name": "D#3",
          "ticks": 7243,
          "time": 84.22093023255815,
          "velocity": 0.18110236220472442
        },
        {
          "duration": 0.2325581395348877,
          "durationTicks": 20,
          "midi": 43,
          "name": "G2",
          "ticks": 7246,
          "time": 84.25581395348837,
          "velocity": 0.18110236220472442
        },
        {
          "duration": 0.3139534883720927,
          "durationTicks": 27,
          "midi": 43,
          "name": "G2",
          "ticks": 7267,
          "time": 84.5,
          "velocity": 0.1968503937007874
        },
        {
          "duration": 0.30232558139535115,
          "durationTicks": 26,
          "midi": 55,
          "name": "G3",
          "ticks": 7269,
          "time": 84.52325581395348,
          "velocity": 0.3543307086614173
        },
        {
          "duration": 0.04651162790696617,
          "durationTicks": 4,
          "midi": 51,
          "name": "D#3",
          "ticks": 7287,
          "time": 84.73255813953489,
          "velocity": 0.11811023622047244
        },
        {
          "duration": 0.03488372093023884,
          "durationTicks": 3,
          "midi": 44,
          "name": "G#2",
          "ticks": 7295,
          "time": 84.82558139534883,
          "velocity": 0.23622047244094488
        },
        {
          "duration": 0.2906976744186096,
          "durationTicks": 25,
          "midi": 51,
          "name": "D#3",
          "ticks": 7295,
          "time": 84.82558139534883,
          "velocity": 0.2440944881889764
        },
        {
          "duration": 0.22093023255813193,
          "durationTicks": 19,
          "midi": 43,
          "name": "G2",
          "ticks": 7298,
          "time": 84.86046511627907,
          "velocity": 0.1968503937007874
        },
        {
          "duration": 0.3139534883720927,
          "durationTicks": 27,
          "midi": 55,
          "name": "G3",
          "ticks": 7320,
          "time": 85.11627906976744,
          "velocity": 0.3700787401574803
        },
        {
          "duration": 0.255813953488385,
          "durationTicks": 22,
          "midi": 43,
          "name": "G2",
          "ticks": 7323,
          "time": 85.15116279069767,
          "velocity": 0.2047244094488189
        },
        {
          "duration": 0.023255813953483084,
          "durationTicks": 2,
          "midi": 44,
          "name": "G#2",
          "ticks": 7345,
          "time": 85.40697674418605,
          "velocity": 0.25984251968503935
        },
        {
          "duration": 0.30232558139535115,
          "durationTicks": 26,
          "midi": 51,
          "name": "D#3",
          "ticks": 7346,
          "time": 85.4186046511628,
          "velocity": 0.1968503937007874
        },
        {
          "duration": 0.19767441860464885,
          "durationTicks": 17,
          "midi": 43,
          "name": "G2",
          "ticks": 7352,
          "time": 85.48837209302326,
          "velocity": 0.1968503937007874
        },
        {
          "duration": 0.22093023255814614,
          "durationTicks": 19,
          "midi": 55,
          "name": "G3",
          "ticks": 7371,
          "time": 85.70930232558139,
          "velocity": 0.3700787401574803
        },
        {
          "duration": 0.19767441860464885,
          "durationTicks": 17,
          "midi": 43,
          "name": "G2",
          "ticks": 7374,
          "time": 85.74418604651163,
          "velocity": 0.1968503937007874
        },
        {
          "duration": 0.03488372093023884,
          "durationTicks": 3,
          "midi": 51,
          "name": "D#3",
          "ticks": 7391,
          "time": 85.94186046511628,
          "velocity": 0.12598425196850394
        },
        {
          "duration": 0.30232558139533694,
          "durationTicks": 26,
          "midi": 51,
          "name": "D#3",
          "ticks": 7399,
          "time": 86.03488372093024,
          "velocity": 0.2047244094488189
        },
        {
          "duration": 0.03488372093023884,
          "durationTicks": 3,
          "midi": 57,
          "name": "A3",
          "ticks": 7423,
          "time": 86.31395348837209,
          "velocity": 0.4015748031496063
        },
        {
          "duration": 0.2674418604651265,
          "durationTicks": 23,
          "midi": 44,
          "name": "G#2",
          "ticks": 7425,
          "time": 86.33720930232558,
          "velocity": 0.30708661417322836
        },
        {
          "duration": 0.023255813953483084,
          "durationTicks": 2,
          "midi": 56,
          "name": "G#3",
          "ticks": 7426,
          "time": 86.34883720930233,
          "velocity": 0.3858267716535433
        },
        {
          "duration": 0.06976744186046346,
          "durationTicks": 6,
          "midi": 51,
          "name": "D#3",
          "ticks": 7430,
          "time": 86.3953488372093,
          "velocity": 0.13385826771653545
        },
        {
          "duration": 0.023255813953483084,
          "durationTicks": 2,
          "midi": 57,
          "name": "A3",
          "ticks": 7431,
          "time": 86.40697674418605,
          "velocity": 0.31496062992125984
        },
        {
          "duration": 0.418604651162795,
          "durationTicks": 36,
          "midi": 58,
          "name": "A#3",
          "ticks": 7436,
          "time": 86.46511627906976,
          "velocity": 0.2125984251968504
        },
        {
          "duration": 0.2674418604651123,
          "durationTicks": 23,
          "midi": 44,
          "name": "G#2",
          "ticks": 7449,
          "time": 86.61627906976744,
          "velocity": 0.2755905511811024
        },
        {
          "duration": 0.27906976744185386,
          "durationTicks": 24,
          "midi": 51,
          "name": "D#3",
          "ticks": 7449,
          "time": 86.61627906976744,
          "velocity": 0.2047244094488189
        },
        {
          "duration": 0.023255813953497295,
          "durationTicks": 2,
          "midi": 45,
          "name": "A2",
          "ticks": 7472,
          "time": 86.88372093023256,
          "velocity": 0.25984251968503935
        },
        {
          "duration": 0.27906976744185386,
          "durationTicks": 24,
          "midi": 44,
          "name": "G#2",
          "ticks": 7474,
          "time": 86.90697674418605,
          "velocity": 0.30708661417322836
        },
        {
          "duration": 0.09302325581394655,
          "durationTicks": 8,
          "midi": 56,
          "name": "G#3",
          "ticks": 7474,
          "time": 86.90697674418605,
          "velocity": 0.3779527559055118
        },
        {
          "duration": 0.04651162790698038,
          "durationTicks": 4,
          "midi": 51,
          "name": "D#3",
          "ticks": 7476,
          "time": 86.93023255813954,
          "velocity": 0.1732283464566929
        },
        {
          "duration": 0.04651162790698038,
          "durationTicks": 4,
          "midi": 51,
          "name": "D#3",
          "ticks": 7481,
          "time": 86.98837209302326,
          "velocity": 0.15748031496062992
        },
        {
          "duration": 0.03488372093023884,
          "durationTicks": 3,
          "midi": 45,
          "name": "A2",
          "ticks": 7500,
          "time": 87.20930232558139,
          "velocity": 0.33858267716535434
        },
        {
          "duration": 0.24418604651162923,
          "durationTicks": 21,
          "midi": 51,
          "name": "D#3",
          "ticks": 7502,
          "time": 87.23255813953489,
          "velocity": 0.2047244094488189
        },
        {
          "duration": 0.2093023255814046,
          "durationTicks": 18,
          "midi": 44,
          "name": "G#2",
          "ticks": 7505,
          "time": 87.26744186046511,
          "velocity": 0.2440944881889764
        },
        {
          "duration": 0.30232558139533694,
          "durationTicks": 26,
          "midi": 63,
          "name": "D#4",
          "ticks": 7523,
          "time": 87.47674418604652,
          "velocity": 0.14173228346456693
        },
        {
          "duration": 0.023255813953483084,
          "durationTicks": 2,
          "midi": 54,
          "name": "F#3",
          "ticks": 7524,
          "time": 87.48837209302326,
          "velocity": 0.25984251968503935
        },
        {
          "duration": 0.12790697674418539,
          "durationTicks": 11,
          "midi": 56,
          "name": "G#3",
          "ticks": 7526,
          "time": 87.51162790697674,
          "velocity": 0.3937007874015748
        },
        {
          "duration": 0.023255813953497295,
          "durationTicks": 2,
          "midi": 45,
          "name": "A2",
          "ticks": 7527,
          "time": 87.52325581395348,
          "velocity": 0.2755905511811024
        },
        {
          "duration": 0.19767441860464885,
          "durationTicks": 17,
          "midi": 44,
          "name": "G#2",
          "ticks": 7529,
          "time": 87.54651162790698,
          "velocity": 0.2677165354330709
        },
        {
          "duration": 0.1860465116279073,
          "durationTicks": 16,
          "midi": 51,
          "name": "D#3",
          "ticks": 7530,
          "time": 87.55813953488372,
          "velocity": 0.14173228346456693
        },
        {
          "duration": 0.3139534883720927,
          "durationTicks": 27,
          "midi": 51,
          "name": "D#3",
          "ticks": 7550,
          "time": 87.79069767441861,
          "velocity": 0.1889763779527559
        },
        {
          "duration": 0.25581395348837077,
          "durationTicks": 22,
          "midi": 44,
          "name": "G#2",
          "ticks": 7551,
          "time": 87.80232558139535,
          "velocity": 0.2125984251968504
        },
        {
          "duration": 0.3720930232558146,
          "durationTicks": 32,
          "midi": 75,
          "name": "D#5",
          "ticks": 7554,
          "time": 87.83720930232558,
          "velocity": 0.07874015748031496
        },
        {
          "duration": 0.2325581395348877,
          "durationTicks": 20,
          "midi": 56,
          "name": "G#3",
          "ticks": 7576,
          "time": 88.09302325581395,
          "velocity": 0.3858267716535433
        },
        {
          "duration": 0.27906976744185386,
          "durationTicks": 24,
          "midi": 44,
          "name": "G#2",
          "ticks": 7578,
          "time": 88.11627906976744,
          "velocity": 0.2755905511811024
        },
        {
          "duration": 0.04651162790698038,
          "durationTicks": 4,
          "midi": 51,
          "name": "D#3",
          "ticks": 7586,
          "time": 88.20930232558139,
          "velocity": 0.13385826771653545
        },
        {
          "duration": 0.04651162790698038,
          "durationTicks": 4,
          "midi": 51,
          "name": "D#3",
          "ticks": 7591,
          "time": 88.26744186046511,
          "velocity": 0.12598425196850394
        },
        {
          "duration": 0.23255813953487348,
          "durationTicks": 20,
          "midi": 44,
          "name": "G#2",
          "ticks": 7603,
          "time": 88.40697674418605,
          "velocity": 0.23622047244094488
        },
        {
          "duration": 0.2674418604651123,
          "durationTicks": 23,
          "midi": 51,
          "name": "D#3",
          "ticks": 7603,
          "time": 88.40697674418605,
          "velocity": 0.2125984251968504
        },
        {
          "duration": 0.023255813953483084,
          "durationTicks": 2,
          "midi": 55,
          "name": "G3",
          "ticks": 7627,
          "time": 88.68604651162791,
          "velocity": 0.3700787401574803
        },
        {
          "duration": 0.023255813953497295,
          "durationTicks": 2,
          "midi": 45,
          "name": "A2",
          "ticks": 7628,
          "time": 88.69767441860465,
          "velocity": 0.30708661417322836
        },
        {
          "duration": 0.12790697674418539,
          "durationTicks": 11,
          "midi": 56,
          "name": "G#3",
          "ticks": 7629,
          "time": 88.70930232558139,
          "velocity": 0.3937007874015748
        },
        {
          "duration": 0.27906976744185386,
          "durationTicks": 24,
          "midi": 44,
          "name": "G#2",
          "ticks": 7630,
          "time": 88.72093023255815,
          "velocity": 0.31496062992125984
        },
        {
          "duration": 0.06976744186046346,
          "durationTicks": 6,
          "midi": 51,
          "name": "D#3",
          "ticks": 7634,
          "time": 88.76744186046511,
          "velocity": 0.15748031496062992
        },
        {
          "duration": 0.24418604651162923,
          "durationTicks": 21,
          "midi": 44,
          "name": "G#2",
          "ticks": 7655,
          "time": 89.01162790697674,
          "velocity": 0.2755905511811024
        },
        {
          "duration": 0.25581395348837077,
          "durationTicks": 22,
          "midi": 51,
          "name": "D#3",
          "ticks": 7656,
          "time": 89.02325581395348,
          "velocity": 0.1968503937007874
        },
        {
          "duration": 0.023255813953483084,
          "durationTicks": 2,
          "midi": 45,
          "name": "A2",
          "ticks": 7679,
          "time": 89.29069767441861,
          "velocity": 0.2992125984251969
        },
        {
          "duration": 0.081395348837205,
          "durationTicks": 7,
          "midi": 63,
          "name": "D#4",
          "ticks": 7679,
          "time": 89.29069767441861,
          "velocity": 0.07086614173228346
        },
        {
          "duration": 0.2093023255813904,
          "durationTicks": 18,
          "midi": 56,
          "name": "G#3",
          "ticks": 7680,
          "time": 89.30232558139535,
          "velocity": 0.3858267716535433
        },
        {
          "duration": 0.25581395348837077,
          "durationTicks": 22,
          "midi": 44,
          "name": "G#2",
          "ticks": 7681,
          "time": 89.31395348837209,
          "velocity": 0.31496062992125984
        },
        {
          "duration": 0.06976744186046346,
          "durationTicks": 6,
          "midi": 51,
          "name": "D#3",
          "ticks": 7685,
          "time": 89.36046511627907,
          "velocity": 0.13385826771653545
        },
        {
          "duration": 0.24418604651162923,
          "durationTicks": 21,
          "midi": 44,
          "name": "G#2",
          "ticks": 7704,
          "time": 89.5813953488372,
          "velocity": 0.28346456692913385
        },
        {
          "duration": 0.27906976744186807,
          "durationTicks": 24,
          "midi": 51,
          "name": "D#3",
          "ticks": 7705,
          "time": 89.59302325581395,
          "velocity": 0.1968503937007874
        },
        {
          "duration": 0.023255813953497295,
          "durationTicks": 2,
          "midi": 45,
          "name": "A2",
          "ticks": 7730,
          "time": 89.88372093023256,
          "velocity": 0.30708661417322836
        },
        {
          "duration": 0.19767441860464885,
          "durationTicks": 17,
          "midi": 56,
          "name": "G#3",
          "ticks": 7730,
          "time": 89.88372093023256,
          "velocity": 0.3937007874015748
        },
        {
          "duration": 0.1860465116278931,
          "durationTicks": 16,
          "midi": 44,
          "name": "G#2",
          "ticks": 7732,
          "time": 89.90697674418605,
          "velocity": 0.30708661417322836
        },
        {
          "duration": 0.04651162790698038,
          "durationTicks": 4,
          "midi": 51,
          "name": "D#3",
          "ticks": 7736,
          "time": 89.95348837209302,
          "velocity": 0.13385826771653545
        },
        {
          "duration": 0.03488372093023884,
          "durationTicks": 3,
          "midi": 51,
          "name": "D#3",
          "ticks": 7746,
          "time": 90.06976744186046,
          "velocity": 0.12598425196850394
        },
        {
          "duration": 0.25581395348837077,
          "durationTicks": 22,
          "midi": 51,
          "name": "D#3",
          "ticks": 7756,
          "time": 90.18604651162791,
          "velocity": 0.1732283464566929
        },
        {
          "duration": 0.2325581395348877,
          "durationTicks": 20,
          "midi": 44,
          "name": "G#2",
          "ticks": 7779,
          "time": 90.45348837209302,
          "velocity": 0.2992125984251969
        },
        {
          "duration": 0.1860465116279073,
          "durationTicks": 16,
          "midi": 56,
          "name": "G#3",
          "ticks": 7779,
          "time": 90.45348837209302,
          "velocity": 0.4015748031496063
        },
        {
          "duration": 0.09302325581394655,
          "durationTicks": 8,
          "midi": 56,
          "name": "G#3",
          "ticks": 7799,
          "time": 90.68604651162791,
          "velocity": 0.16535433070866143
        },
        {
          "duration": 0.27906976744186807,
          "durationTicks": 24,
          "midi": 51,
          "name": "D#3",
          "ticks": 7807,
          "time": 90.77906976744185,
          "velocity": 0.1968503937007874
        },
        {
          "duration": 0.3139534883720927,
          "durationTicks": 27,
          "midi": 55,
          "name": "G3",
          "ticks": 7831,
          "time": 91.05813953488372,
          "velocity": 0.4094488188976378
        },
        {
          "duration": 0.03488372093023884,
          "durationTicks": 3,
          "midi": 44,
          "name": "G#2",
          "ticks": 7832,
          "time": 91.06976744186046,
          "velocity": 0.25196850393700787
        },
        {
          "duration": 0.1046511627907023,
          "durationTicks": 9,
          "midi": 70,
          "name": "A#4",
          "ticks": 7833,
          "time": 91.0813953488372,
          "velocity": 0.08661417322834646
        },
        {
          "duration": 0.2674418604651123,
          "durationTicks": 23,
          "midi": 43,
          "name": "G2",
          "ticks": 7835,
          "time": 91.1046511627907,
          "velocity": 0.2440944881889764
        },
        {
          "duration": 0.03488372093023884,
          "durationTicks": 3,
          "midi": 63,
          "name": "D#4",
          "ticks": 7844,
          "time": 91.20930232558139,
          "velocity": 0.12598425196850394
        },
        {
          "duration": 0.03488372093023884,
          "durationTicks": 3,
          "midi": 63,
          "name": "D#4",
          "ticks": 7849,
          "time": 91.26744186046511,
          "velocity": 0.11811023622047244
        },
        {
          "duration": 0.023255813953483084,
          "durationTicks": 2,
          "midi": 44,
          "name": "G#2",
          "ticks": 7858,
          "time": 91.37209302325581,
          "velocity": 0.25196850393700787
        },
        {
          "duration": 0.03488372093023884,
          "durationTicks": 3,
          "midi": 51,
          "name": "D#3",
          "ticks": 7859,
          "time": 91.38372093023256,
          "velocity": 0.1889763779527559
        },
        {
          "duration": 0.22093023255814614,
          "durationTicks": 19,
          "midi": 43,
          "name": "G2",
          "ticks": 7860,
          "time": 91.3953488372093,
          "velocity": 0.2283464566929134
        },
        {
          "duration": 0.2325581395348877,
          "durationTicks": 20,
          "midi": 51,
          "name": "D#3",
          "ticks": 7863,
          "time": 91.43023255813954,
          "velocity": 0.2125984251968504
        },
        {
          "duration": 0.034883720930224626,
          "durationTicks": 3,
          "midi": 44,
          "name": "G#2",
          "ticks": 7879,
          "time": 91.61627906976744,
          "velocity": 0.1732283464566929
        },
        {
          "duration": 0.33720930232559,
          "durationTicks": 29,
          "midi": 55,
          "name": "G3",
          "ticks": 7882,
          "time": 91.65116279069767,
          "velocity": 0.4015748031496063
        },
        {
          "duration": 0.2674418604651123,
          "durationTicks": 23,
          "midi": 43,
          "name": "G2",
          "ticks": 7886,
          "time": 91.69767441860465,
          "velocity": 0.1889763779527559
        },
        {
          "duration": 0.023255813953497295,
          "durationTicks": 2,
          "midi": 44,
          "name": "G#2",
          "ticks": 7909,
          "time": 91.96511627906976,
          "velocity": 0.2440944881889764
        },
        {
          "duration": 0.04651162790698038,
          "durationTicks": 4,
          "midi": 43,
          "name": "G2",
          "ticks": 7911,
          "time": 91.98837209302326,
          "velocity": 0.2047244094488189
        },
        {
          "duration": 0.2674418604651123,
          "durationTicks": 23,
          "midi": 51,
          "name": "D#3",
          "ticks": 7912,
          "time": 92,
          "velocity": 0.2125984251968504
        },
        {
          "duration": 0.17441860465116577,
          "durationTicks": 15,
          "midi": 43,
          "name": "G2",
          "ticks": 7916,
          "time": 92.04651162790698,
          "velocity": 0.18110236220472442
        },
        {
          "duration": 0.04651162790698038,
          "durationTicks": 4,
          "midi": 44,
          "name": "G#2",
          "ticks": 7936,
          "time": 92.27906976744185,
          "velocity": 0.2440944881889764
        },
        {
          "duration": 0.2906976744185954,
          "durationTicks": 25,
          "midi": 55,
          "name": "G3",
          "ticks": 7937,
          "time": 92.29069767441861,
          "velocity": 0.3858267716535433
        },
        {
          "duration": 0.25581395348837077,
          "durationTicks": 22,
          "midi": 43,
          "name": "G2",
          "ticks": 7940,
          "time": 92.32558139534883,
          "velocity": 0.2440944881889764
        },
        {
          "duration": 0.023255813953497295,
          "durationTicks": 2,
          "midi": 44,
          "name": "G#2",
          "ticks": 7962,
          "time": 92.5813953488372,
          "velocity": 0.2677165354330709
        },
        {
          "duration": 0.2906976744186096,
          "durationTicks": 25,
          "midi": 51,
          "name": "D#3",
          "ticks": 7963,
          "time": 92.59302325581395,
          "velocity": 0.2204724409448819
        },
        {
          "duration": 0.1860465116279073,
          "durationTicks": 16,
          "midi": 43,
          "name": "G2",
          "ticks": 7967,
          "time": 92.63953488372093,
          "velocity": 0.2204724409448819
        },
        {
          "duration": 0.03488372093023884,
          "durationTicks": 3,
          "midi": 44,
          "name": "G#2",
          "ticks": 7983,
          "time": 92.82558139534883,
          "velocity": 0.1732283464566929
        },
        {
          "duration": 0.04651162790698038,
          "durationTicks": 4,
          "midi": 44,
          "name": "G#2",
          "ticks": 7988,
          "time": 92.88372093023256,
          "velocity": 0.2204724409448819
        },
        {
          "duration": 0.2093023255813904,
          "durationTicks": 18,
          "midi": 55,
          "name": "G3",
          "ticks": 7988,
          "time": 92.88372093023256,
          "velocity": 0.4015748031496063
        },
        {
          "duration": 0.17441860465116577,
          "durationTicks": 15,
          "midi": 43,
          "name": "G2",
          "ticks": 7992,
          "time": 92.93023255813954,
          "velocity": 0.2047244094488189
        },
        {
          "duration": 0.04651162790698038,
          "durationTicks": 4,
          "midi": 51,
          "name": "D#3",
          "ticks": 8005,
          "time": 93.0813953488372,
          "velocity": 0.14960629921259844
        },
        {
          "duration": 0.1860465116279073,
          "durationTicks": 16,
          "midi": 51,
          "name": "D#3",
          "ticks": 8014,
          "time": 93.18604651162791,
          "velocity": 0.16535433070866143
        },
        {
          "duration": 0.9418604651162781,
          "durationTicks": 81,
          "midi": 48,
          "name": "C3",
          "ticks": 8039,
          "time": 93.47674418604652,
          "velocity": 0.3228346456692913
        },
        {
          "duration": 0.034883720930224626,
          "durationTicks": 3,
          "midi": 56,
          "name": "G#3",
          "ticks": 8040,
          "time": 93.48837209302326,
          "velocity": 0.2204724409448819
        },
        {
          "duration": 0.8720930232558146,
          "durationTicks": 75,
          "midi": 63,
          "name": "D#4",
          "ticks": 8040,
          "time": 93.48837209302326,
          "velocity": 0.1968503937007874
        },
        {
          "duration": 0.255813953488385,
          "durationTicks": 22,
          "midi": 74,
          "name": "D5",
          "ticks": 8092,
          "time": 94.09302325581395,
          "velocity": 0.2125984251968504
        },
        {
          "duration": 0.25581395348837077,
          "durationTicks": 22,
          "midi": 70,
          "name": "A#4",
          "ticks": 8118,
          "time": 94.3953488372093,
          "velocity": 0.14173228346456693
        },
        {
          "duration": 0.5465116279069804,
          "durationTicks": 47,
          "midi": 48,
          "name": "C3",
          "ticks": 8121,
          "time": 94.43023255813954,
          "velocity": 0.18110236220472442
        },
        {
          "duration": 0.30232558139535115,
          "durationTicks": 26,
          "midi": 67,
          "name": "G4",
          "ticks": 8143,
          "time": 94.68604651162791,
          "velocity": 0.2125984251968504
        },
        {
          "duration": 0.2906976744186096,
          "durationTicks": 25,
          "midi": 79,
          "name": "G5",
          "ticks": 8143,
          "time": 94.68604651162791,
          "velocity": 0.2125984251968504
        },
        {
          "duration": 0.23255813953487348,
          "durationTicks": 20,
          "midi": 65,
          "name": "F4",
          "ticks": 8168,
          "time": 94.97674418604652,
          "velocity": 0.13385826771653545
        },
        {
          "duration": 0.04651162790696617,
          "durationTicks": 4,
          "midi": 65,
          "name": "F4",
          "ticks": 8190,
          "time": 95.23255813953489,
          "velocity": 0.08661417322834646
        },
        {
          "duration": 0.27906976744186807,
          "durationTicks": 24,
          "midi": 63,
          "name": "D#4",
          "ticks": 8194,
          "time": 95.27906976744185,
          "velocity": 0.18110236220472442
        },
        {
          "duration": 0.034883720930224626,
          "durationTicks": 3,
          "midi": 45,
          "name": "A2",
          "ticks": 8195,
          "time": 95.29069767441861,
          "velocity": 0.10236220472440945
        },
        {
          "duration": 0.023255813953483084,
          "durationTicks": 2,
          "midi": 59,
          "name": "B3",
          "ticks": 8223,
          "time": 95.61627906976744,
          "velocity": 0.23622047244094488
        },
        {
          "duration": 0.19767441860464885,
          "durationTicks": 17,
          "midi": 58,
          "name": "A#3",
          "ticks": 8225,
          "time": 95.63953488372093,
          "velocity": 0.28346456692913385
        },
        {
          "duration": 0.023255813953497295,
          "durationTicks": 2,
          "midi": 45,
          "name": "A2",
          "ticks": 8247,
          "time": 95.8953488372093,
          "velocity": 0.33070866141732286
        },
        {
          "duration": 0.05813953488372192,
          "durationTicks": 5,
          "midi": 56,
          "name": "G#3",
          "ticks": 8247,
          "time": 95.8953488372093,
          "velocity": 0.4251968503937008
        },
        {
          "duration": 0.581395348837205,
          "durationTicks": 50,
          "midi": 44,
          "name": "G#2",
          "ticks": 8249,
          "time": 95.9186046511628,
          "velocity": 0.31496062992125984
        },
        {
          "duration": 0.034883720930224626,
          "durationTicks": 3,
          "midi": 58,
          "name": "A#3",
          "ticks": 8259,
          "time": 96.03488372093024,
          "velocity": 0.1889763779527559
        },
        {
          "duration": 0.6744186046511658,
          "durationTicks": 58,
          "midi": 58,
          "name": "A#3",
          "ticks": 8263,
          "time": 96.0813953488372,
          "velocity": 0.15748031496062992
        },
        {
          "duration": 1.2558139534883708,
          "durationTicks": 108,
          "midi": 51,
          "name": "D#3",
          "ticks": 8301,
          "time": 96.52325581395348,
          "velocity": 0.1968503937007874
        },
        {
          "duration": 1.2674418604651123,
          "durationTicks": 109,
          "midi": 44,
          "name": "G#2",
          "ticks": 8302,
          "time": 96.53488372093024,
          "velocity": 0.23622047244094488
        },
        {
          "duration": 0.12790697674418539,
          "durationTicks": 11,
          "midi": 79,
          "name": "G5",
          "ticks": 8410,
          "time": 97.79069767441861,
          "velocity": 0.14960629921259844
        },
        {
          "duration": 0.6162790697674438,
          "durationTicks": 53,
          "midi": 51,
          "name": "D#3",
          "ticks": 8411,
          "time": 97.80232558139535,
          "velocity": 0.10236220472440945
        },
        {
          "duration": 0.6046511627907023,
          "durationTicks": 52,
          "midi": 44,
          "name": "G#2",
          "ticks": 8412,
          "time": 97.81395348837209,
          "velocity": 0.15748031496062992
        },
        {
          "duration": 0.5465116279069662,
          "durationTicks": 47,
          "midi": 44,
          "name": "G#2",
          "ticks": 8469,
          "time": 98.47674418604652,
          "velocity": 0.14173228346456693
        },
        {
          "duration": 0.06976744186047767,
          "durationTicks": 6,
          "midi": 44,
          "name": "G#2",
          "ticks": 8527,
          "time": 99.15116279069767,
          "velocity": 0.07086614173228346
        },
        {
          "duration": 0.48837209302324425,
          "durationTicks": 42,
          "midi": 62,
          "name": "D4",
          "ticks": 8576,
          "time": 99.72093023255815,
          "velocity": 0.12598425196850394
        },
        {
          "duration": 0.2093023255813904,
          "durationTicks": 18,
          "midi": 75,
          "name": "D#5",
          "ticks": 8626,
          "time": 100.30232558139535,
          "velocity": 0.09448818897637795
        },
        {
          "duration": 0.023255813953483084,
          "durationTicks": 2,
          "midi": 47,
          "name": "B2",
          "ticks": 8680,
          "time": 100.93023255813954,
          "velocity": 0.2755905511811024
        },
        {
          "duration": 0.023255813953483084,
          "durationTicks": 2,
          "midi": 57,
          "name": "A3",
          "ticks": 8681,
          "time": 100.94186046511628,
          "velocity": 0.2440944881889764
        },
        {
          "duration": 0.05813953488372192,
          "durationTicks": 5,
          "midi": 65,
          "name": "F4",
          "ticks": 8681,
          "time": 100.94186046511628,
          "velocity": 0.07086614173228346
        },
        {
          "duration": 1.2906976744186096,
          "durationTicks": 111,
          "midi": 46,
          "name": "A#2",
          "ticks": 8682,
          "time": 100.95348837209302,
          "velocity": 0.3543307086614173
        },
        {
          "duration": 0.8023255813953512,
          "durationTicks": 69,
          "midi": 65,
          "name": "F4",
          "ticks": 8763,
          "time": 101.8953488372093,
          "velocity": 0.07086614173228346
        },
        {
          "duration": 0.8023255813953512,
          "durationTicks": 69,
          "midi": 74,
          "name": "D5",
          "ticks": 8794,
          "time": 102.25581395348837,
          "velocity": 0.1889763779527559
        },
        {
          "duration": 0.3953488372092977,
          "durationTicks": 34,
          "midi": 102,
          "name": "F#7",
          "ticks": 8794,
          "time": 102.25581395348837,
          "velocity": 0.2125984251968504
        },
        {
          "duration": 0.06976744186046346,
          "durationTicks": 6,
          "midi": 46,
          "name": "A#2",
          "ticks": 8797,
          "time": 102.29069767441861,
          "velocity": 0.09448818897637795
        },
        {
          "duration": 2.6511627906976827,
          "durationTicks": 228,
          "midi": 51,
          "name": "D#3",
          "ticks": 8908,
          "time": 103.5813953488372,
          "velocity": 0.3228346456692913
        },
        {
          "duration": 0.1046511627907023,
          "durationTicks": 9,
          "midi": 98,
          "name": "D7",
          "ticks": 8909,
          "time": 103.59302325581395,
          "velocity": 0.07086614173228346
        },
        {
          "duration": 0.06976744186046346,
          "durationTicks": 6,
          "midi": 70,
          "name": "A#4",
          "ticks": 8910,
          "time": 103.6046511627907,
          "velocity": 0.08661417322834646
        },
        {
          "duration": 0.22093023255813193,
          "durationTicks": 19,
          "midi": 56,
          "name": "G#3",
          "ticks": 9141,
          "time": 106.29069767441861,
          "velocity": 0.3937007874015748
        },
        {
          "duration": 1.1744186046511516,
          "durationTicks": 101,
          "midi": 44,
          "name": "G#2",
          "ticks": 9146,
          "time": 106.34883720930233,
          "velocity": 0.33858267716535434
        },
        {
          "duration": 1.0465116279069804,
          "durationTicks": 90,
          "midi": 60,
          "name": "C4",
          "ticks": 9153,
          "time": 106.43023255813954,
          "velocity": 0.08661417322834646
        },
        {
          "duration": 0.4534883720930196,
          "durationTicks": 39,
          "midi": 51,
          "name": "D#3",
          "ticks": 9195,
          "time": 106.9186046511628,
          "velocity": 0.15748031496062992
        },
        {
          "duration": 0.6511627906976685,
          "durationTicks": 56,
          "midi": 44,
          "name": "G#2",
          "ticks": 9248,
          "time": 107.53488372093024,
          "velocity": 0.2047244094488189
        },
        {
          "duration": 0.7906976744185954,
          "durationTicks": 68,
          "midi": 60,
          "name": "C4",
          "ticks": 9248,
          "time": 107.53488372093024,
          "velocity": 0.10236220472440945
        },
        {
          "duration": 1.1046511627907023,
          "durationTicks": 95,
          "midi": 44,
          "name": "G#2",
          "ticks": 9305,
          "time": 108.19767441860465,
          "velocity": 0.16535433070866143
        },
        {
          "duration": 0.034883720930224626,
          "durationTicks": 3,
          "midi": 45,
          "name": "A2",
          "ticks": 9400,
          "time": 109.30232558139535,
          "velocity": 0.14173228346456693
        },
        {
          "duration": 0.5465116279069804,
          "durationTicks": 47,
          "midi": 44,
          "name": "G#2",
          "ticks": 9406,
          "time": 109.37209302325581,
          "velocity": 0.13385826771653545
        },
        {
          "duration": 0.09302325581394655,
          "durationTicks": 8,
          "midi": 79,
          "name": "G5",
          "ticks": 9501,
          "time": 110.47674418604652,
          "velocity": 0.10236220472440945
        },
        {
          "duration": 0.023255813953497295,
          "durationTicks": 2,
          "midi": 45,
          "name": "A2",
          "ticks": 9553,
          "time": 111.0813953488372,
          "velocity": 0.33858267716535434
        },
        {
          "duration": 0.05813953488372192,
          "durationTicks": 5,
          "midi": 58,
          "name": "A#3",
          "ticks": 9553,
          "time": 111.0813953488372,
          "velocity": 0.14960629921259844
        },
        {
          "duration": 1.1744186046511516,
          "durationTicks": 101,
          "midi": 46,
          "name": "A#2",
          "ticks": 9555,
          "time": 111.1046511627907,
          "velocity": 0.3464566929133858
        },
        {
          "duration": 0.023255813953497295,
          "durationTicks": 2,
          "midi": 47,
          "name": "B2",
          "ticks": 9763,
          "time": 113.52325581395348,
          "velocity": 0.30708661417322836
        },
        {
          "duration": 0.5465116279069804,
          "durationTicks": 47,
          "midi": 48,
          "name": "C3",
          "ticks": 9768,
          "time": 113.5813953488372,
          "velocity": 0.2283464566929134
        },
        {
          "duration": 0.5581395348837219,
          "durationTicks": 48,
          "midi": 48,
          "name": "C3",
          "ticks": 9816,
          "time": 114.13953488372093,
          "velocity": 0.18110236220472442
        },
        {
          "duration": 0.32558139534884845,
          "durationTicks": 28,
          "midi": 48,
          "name": "C3",
          "ticks": 9871,
          "time": 114.77906976744185,
          "velocity": 0.12598425196850394
        },
        {
          "duration": 1.1162790697674296,
          "durationTicks": 96,
          "midi": 44,
          "name": "G#2",
          "ticks": 9968,
          "time": 115.90697674418605,
          "velocity": 0.28346456692913385
        },
        {
          "duration": 0.081395348837205,
          "durationTicks": 7,
          "midi": 56,
          "name": "G#3",
          "ticks": 9968,
          "time": 115.90697674418605,
          "velocity": 0.3937007874015748
        },
        {
          "duration": 0.3372093023255758,
          "durationTicks": 29,
          "midi": 58,
          "name": "A#3",
          "ticks": 9986,
          "time": 116.11627906976744,
          "velocity": 0.12598425196850394
        },
        {
          "duration": 0.30232558139535115,
          "durationTicks": 26,
          "midi": 51,
          "name": "D#3",
          "ticks": 9996,
          "time": 116.23255813953489,
          "velocity": 0.16535433070866143
        },
        {
          "duration": 0.46511627906976116,
          "durationTicks": 40,
          "midi": 51,
          "name": "D#3",
          "ticks": 10023,
          "time": 116.54651162790698,
          "velocity": 0.14960629921259844
        },
        {
          "duration": 0.5,
          "durationTicks": 43,
          "midi": 58,
          "name": "A#3",
          "ticks": 10023,
          "time": 116.54651162790698,
          "velocity": 0.25984251968503935
        },
        {
          "duration": 0.034883720930224626,
          "durationTicks": 3,
          "midi": 45,
          "name": "A2",
          "ticks": 10067,
          "time": 117.05813953488372,
          "velocity": 0.23622047244094488
        },
        {
          "duration": 0.48837209302325846,
          "durationTicks": 42,
          "midi": 58,
          "name": "A#3",
          "ticks": 10070,
          "time": 117.09302325581395,
          "velocity": 0.14960629921259844
        },
        {
          "duration": 0.1046511627907023,
          "durationTicks": 9,
          "midi": 44,
          "name": "G#2",
          "ticks": 10074,
          "time": 117.13953488372093,
          "velocity": 0.18110236220472442
        },
        {
          "duration": 0.40697674418605345,
          "durationTicks": 35,
          "midi": 44,
          "name": "G#2",
          "ticks": 10085,
          "time": 117.26744186046511,
          "velocity": 0.14173228346456693
        },
        {
          "duration": 0.03488372093023884,
          "durationTicks": 3,
          "midi": 79,
          "name": "G5",
          "ticks": 10121,
          "time": 117.68604651162791,
          "velocity": 0.07086614173228346
        },
        {
          "duration": 0.04651162790698038,
          "durationTicks": 4,
          "midi": 45,
          "name": "A2",
          "ticks": 10122,
          "time": 117.69767441860465,
          "velocity": 0.18110236220472442
        },
        {
          "duration": 0.3953488372092977,
          "durationTicks": 34,
          "midi": 44,
          "name": "G#2",
          "ticks": 10126,
          "time": 117.74418604651163,
          "velocity": 0.11023622047244094
        },
        {
          "duration": 0.2093023255813904,
          "durationTicks": 18,
          "midi": 56,
          "name": "G#3",
          "ticks": 10173,
          "time": 118.29069767441861,
          "velocity": 0.3543307086614173
        },
        {
          "duration": 1.16279069767441,
          "durationTicks": 100,
          "midi": 44,
          "name": "G#2",
          "ticks": 10174,
          "time": 118.30232558139535,
          "velocity": 0.29133858267716534
        },
        {
          "duration": 1.418604651162795,
          "durationTicks": 122,
          "midi": 51,
          "name": "D#3",
          "ticks": 10198,
          "time": 118.5813953488372,
          "velocity": 0.23622047244094488
        },
        {
          "duration": 0.5348837209302246,
          "durationTicks": 46,
          "midi": 44,
          "name": "G#2",
          "ticks": 10275,
          "time": 119.47674418604652,
          "velocity": 0.18110236220472442
        },
        {
          "duration": 0.034883720930224626,
          "durationTicks": 3,
          "midi": 62,
          "name": "D4",
          "ticks": 10282,
          "time": 119.55813953488372,
          "velocity": 0.08661417322834646
        },
        {
          "duration": 0.034883720930224626,
          "durationTicks": 3,
          "midi": 45,
          "name": "A2",
          "ticks": 10323,
          "time": 120.03488372093024,
          "velocity": 0.15748031496062992
        },
        {
          "duration": 0.46511627906976116,
          "durationTicks": 40,
          "midi": 51,
          "name": "D#3",
          "ticks": 10323,
          "time": 120.03488372093024,
          "velocity": 0.11811023622047244
        },
        {
          "duration": 0.30232558139535115,
          "durationTicks": 26,
          "midi": 44,
          "name": "G#2",
          "ticks": 10326,
          "time": 120.06976744186046,
          "velocity": 0.14173228346456693
        },
        {
          "duration": 0.023255813953483084,
          "durationTicks": 2,
          "midi": 45,
          "name": "A2",
          "ticks": 10372,
          "time": 120.6046511627907,
          "velocity": 0.33858267716535434
        },
        {
          "duration": 0.8837209302325562,
          "durationTicks": 76,
          "midi": 62,
          "name": "D4",
          "ticks": 10372,
          "time": 120.6046511627907,
          "velocity": 0.1732283464566929
        },
        {
          "duration": 1.1627906976744242,
          "durationTicks": 100,
          "midi": 46,
          "name": "A#2",
          "ticks": 10374,
          "time": 120.62790697674419,
          "velocity": 0.3543307086614173
        },
        {
          "duration": 0.3139534883720927,
          "durationTicks": 27,
          "midi": 53,
          "name": "F3",
          "ticks": 10397,
          "time": 120.8953488372093,
          "velocity": 0.25196850393700787
        },
        {
          "duration": 0.023255813953497295,
          "durationTicks": 2,
          "midi": 57,
          "name": "A3",
          "ticks": 10423,
          "time": 121.19767441860465,
          "velocity": 0.2992125984251969
        },
        {
          "duration": 0.25581395348837077,
          "durationTicks": 22,
          "midi": 53,
          "name": "F3",
          "ticks": 10425,
          "time": 121.22093023255815,
          "velocity": 0.13385826771653545
        },
        {
          "duration": 0.8837209302325562,
          "durationTicks": 76,
          "midi": 74,
          "name": "D5",
          "ticks": 10474,
          "time": 121.79069767441861,
          "velocity": 0.28346456692913385
        },
        {
          "duration": 0.1860465116279073,
          "durationTicks": 16,
          "midi": 58,
          "name": "A#3",
          "ticks": 10477,
          "time": 121.82558139534883,
          "velocity": 0.09448818897637795
        },
        {
          "duration": 0.09302325581396076,
          "durationTicks": 8,
          "midi": 102,
          "name": "F#7",
          "ticks": 10477,
          "time": 121.82558139534883,
          "velocity": 0.07874015748031496
        },
        {
          "duration": 0.24418604651162923,
          "durationTicks": 21,
          "midi": 98,
          "name": "D7",
          "ticks": 10578,
          "time": 123,
          "velocity": 0.16535433070866143
        },
        {
          "duration": 2.476744186046517,
          "durationTicks": 213,
          "midi": 51,
          "name": "D#3",
          "ticks": 10579,
          "time": 123.01162790697674,
          "velocity": 0.33858267716535434
        },
        {
          "duration": 0.03488372093023884,
          "durationTicks": 3,
          "midi": 70,
          "name": "A#4",
          "ticks": 10579,
          "time": 123.01162790697674,
          "velocity": 0.07874015748031496
        },
        {
          "duration": 1.139534883720927,
          "durationTicks": 98,
          "midi": 60,
          "name": "C4",
          "ticks": 10793,
          "time": 125.5,
          "velocity": 0.2047244094488189
        },
        {
          "duration": 0.03488372093023884,
          "durationTicks": 3,
          "midi": 45,
          "name": "A2",
          "ticks": 10795,
          "time": 125.52325581395348,
          "velocity": 0.36220472440944884
        },
        {
          "duration": 0.12790697674418539,
          "durationTicks": 11,
          "midi": 56,
          "name": "G#3",
          "ticks": 10797,
          "time": 125.54651162790698,
          "velocity": 0.11023622047244094
        },
        {
          "duration": 1.0116279069767415,
          "durationTicks": 87,
          "midi": 44,
          "name": "G#2",
          "ticks": 10798,
          "time": 125.55813953488372,
          "velocity": 0.3543307086614173
        },
        {
          "duration": 0.03488372093023884,
          "durationTicks": 3,
          "midi": 51,
          "name": "D#3",
          "ticks": 10820,
          "time": 125.81395348837209,
          "velocity": 0.13385826771653545
        },
        {
          "duration": 0.04651162790698038,
          "durationTicks": 4,
          "midi": 51,
          "name": "D#3",
          "ticks": 10852,
          "time": 126.18604651162791,
          "velocity": 0.09448818897637795
        },
        {
          "duration": 0.04651162790698038,
          "durationTicks": 4,
          "midi": 51,
          "name": "D#3",
          "ticks": 10857,
          "time": 126.24418604651163,
          "velocity": 0.08661417322834646
        },
        {
          "duration": 0.04651162790698038,
          "durationTicks": 4,
          "midi": 51,
          "name": "D#3",
          "ticks": 10862,
          "time": 126.30232558139535,
          "velocity": 0.07874015748031496
        },
        {
          "duration": 0.04651162790698038,
          "durationTicks": 4,
          "midi": 51,
          "name": "D#3",
          "ticks": 10867,
          "time": 126.36046511627907,
          "velocity": 0.07874015748031496
        },
        {
          "duration": 0.04651162790696617,
          "durationTicks": 4,
          "midi": 51,
          "name": "D#3",
          "ticks": 10872,
          "time": 126.4186046511628,
          "velocity": 0.07086614173228346
        },
        {
          "duration": 0.04651162790696617,
          "durationTicks": 4,
          "midi": 51,
          "name": "D#3",
          "ticks": 10877,
          "time": 126.47674418604652,
          "velocity": 0.07086614173228346
        },
        {
          "duration": 0.03488372093023884,
          "durationTicks": 3,
          "midi": 45,
          "name": "A2",
          "ticks": 10887,
          "time": 126.59302325581395,
          "velocity": 0.2440944881889764
        },
        {
          "duration": 0.03488372093023884,
          "durationTicks": 3,
          "midi": 55,
          "name": "G3",
          "ticks": 10891,
          "time": 126.63953488372093,
          "velocity": 0.2677165354330709
        },
        {
          "duration": 0.034883720930224626,
          "durationTicks": 3,
          "midi": 45,
          "name": "A2",
          "ticks": 10893,
          "time": 126.66279069767442,
          "velocity": 0.25196850393700787
        },
        {
          "duration": 0.05813953488372192,
          "durationTicks": 5,
          "midi": 56,
          "name": "G#3",
          "ticks": 10896,
          "time": 126.69767441860465,
          "velocity": 0.1732283464566929
        },
        {
          "duration": 0.5697674418604635,
          "durationTicks": 49,
          "midi": 60,
          "name": "C4",
          "ticks": 10900,
          "time": 126.74418604651163,
          "velocity": 0.07086614173228346
        },
        {
          "duration": 0.5930232558139608,
          "durationTicks": 51,
          "midi": 44,
          "name": "G#2",
          "ticks": 10901,
          "time": 126.75581395348837,
          "velocity": 0.18110236220472442
        },
        {
          "duration": 0.04651162790698038,
          "durationTicks": 4,
          "midi": 79,
          "name": "G5",
          "ticks": 10949,
          "time": 127.31395348837209,
          "velocity": 0.10236220472440945
        },
        {
          "duration": 0.4418604651162781,
          "durationTicks": 38,
          "midi": 44,
          "name": "G#2",
          "ticks": 10954,
          "time": 127.37209302325581,
          "velocity": 0.13385826771653545
        },
        {
          "duration": 0.03488372093023884,
          "durationTicks": 3,
          "midi": 55,
          "name": "G3",
          "ticks": 10997,
          "time": 127.87209302325581,
          "velocity": 0.33070866141732286
        },
        {
          "duration": 0.2906976744186096,
          "durationTicks": 25,
          "midi": 44,
          "name": "G#2",
          "ticks": 11000,
          "time": 127.90697674418605,
          "velocity": 0.2755905511811024
        },
        {
          "duration": 0.05813953488370771,
          "durationTicks": 5,
          "midi": 56,
          "name": "G#3",
          "ticks": 11000,
          "time": 127.90697674418605,
          "velocity": 0.3228346456692913
        },
        {
          "duration": 0.8953488372092977,
          "durationTicks": 77,
          "midi": 51,
          "name": "D#3",
          "ticks": 11026,
          "time": 128.2093023255814,
          "velocity": 0.23622047244094488
        },
        {
          "duration": 0.2674418604651123,
          "durationTicks": 23,
          "midi": 44,
          "name": "G#2",
          "ticks": 11028,
          "time": 128.2325581395349,
          "velocity": 0.2440944881889764
        },
        {
          "duration": 0.5813953488372192,
          "durationTicks": 50,
          "midi": 44,
          "name": "G#2",
          "ticks": 11052,
          "time": 128.51162790697674,
          "velocity": 0.2125984251968504
        },
        {
          "duration": 0.4767441860465169,
          "durationTicks": 41,
          "midi": 75,
          "name": "D#5",
          "ticks": 11053,
          "time": 128.52325581395348,
          "velocity": 0.11023622047244094
        },
        {
          "duration": 0.4534883720930054,
          "durationTicks": 39,
          "midi": 74,
          "name": "D5",
          "ticks": 11103,
          "time": 129.1046511627907,
          "velocity": 0.07086614173228346
        },
        {
          "duration": 0.5348837209302246,
          "durationTicks": 46,
          "midi": 51,
          "name": "D#3",
          "ticks": 11104,
          "time": 129.11627906976744,
          "velocity": 0.14173228346456693
        },
        {
          "duration": 0.30232558139533694,
          "durationTicks": 26,
          "midi": 62,
          "name": "D4",
          "ticks": 11104,
          "time": 129.11627906976744,
          "velocity": 0.07874015748031496
        },
        {
          "duration": 0.5232558139534831,
          "durationTicks": 45,
          "midi": 44,
          "name": "G#2",
          "ticks": 11106,
          "time": 129.13953488372093,
          "velocity": 0.14173228346456693
        },
        {
          "duration": 0.4651162790697754,
          "durationTicks": 40,
          "midi": 51,
          "name": "D#3",
          "ticks": 11153,
          "time": 129.6860465116279,
          "velocity": 0.09448818897637795
        },
        {
          "duration": 0.4186046511627808,
          "durationTicks": 36,
          "midi": 44,
          "name": "G#2",
          "ticks": 11160,
          "time": 129.7674418604651,
          "velocity": 0.08661417322834646
        },
        {
          "duration": 0.034883720930224626,
          "durationTicks": 3,
          "midi": 45,
          "name": "A2",
          "ticks": 11202,
          "time": 130.25581395348837,
          "velocity": 0.33858267716535434
        },
        {
          "duration": 1.3953488372092977,
          "durationTicks": 120,
          "midi": 62,
          "name": "D4",
          "ticks": 11202,
          "time": 130.25581395348837,
          "velocity": 0.14960629921259844
        },
        {
          "duration": 0.2906976744186238,
          "durationTicks": 25,
          "midi": 58,
          "name": "A#3",
          "ticks": 11204,
          "time": 130.27906976744185,
          "velocity": 0.16535433070866143
        },
        {
          "duration": 0.534883720930253,
          "durationTicks": 46,
          "midi": 46,
          "name": "A#2",
          "ticks": 11205,
          "time": 130.2906976744186,
          "velocity": 0.33858267716535434
        },
        {
          "duration": 0.2790697674418823,
          "durationTicks": 24,
          "midi": 53,
          "name": "F3",
          "ticks": 11228,
          "time": 130.5581395348837,
          "velocity": 0.2440944881889764
        },
        {
          "duration": 1.1162790697674438,
          "durationTicks": 96,
          "midi": 58,
          "name": "A#3",
          "ticks": 11254,
          "time": 130.86046511627907,
          "velocity": 0.2204724409448819
        },
        {
          "duration": 0.4767441860465169,
          "durationTicks": 41,
          "midi": 46,
          "name": "A#2",
          "ticks": 11255,
          "time": 130.87209302325581,
          "velocity": 0.13385826771653545
        },
        {
          "duration": 0.9651162790697754,
          "durationTicks": 83,
          "midi": 53,
          "name": "F3",
          "ticks": 11255,
          "time": 130.87209302325581,
          "velocity": 0.15748031496062992
        },
        {
          "duration": 0.06976744186047767,
          "durationTicks": 6,
          "midi": 46,
          "name": "A#2",
          "ticks": 11303,
          "time": 131.43023255813952,
          "velocity": 0.09448818897637795
        },
        {
          "duration": 0.034883720930224626,
          "durationTicks": 3,
          "midi": 53,
          "name": "F3",
          "ticks": 11397,
          "time": 132.52325581395348,
          "velocity": 0.1889763779527559
        },
        {
          "duration": 0.04651162790699459,
          "durationTicks": 4,
          "midi": 47,
          "name": "B2",
          "ticks": 11399,
          "time": 132.54651162790697,
          "velocity": 0.2992125984251969
        },
        {
          "duration": 0.05813953488370771,
          "durationTicks": 5,
          "midi": 60,
          "name": "C4",
          "ticks": 11401,
          "time": 132.56976744186048,
          "velocity": 0.11811023622047244
        },
        {
          "duration": 0.023255813953483084,
          "durationTicks": 2,
          "midi": 48,
          "name": "C3",
          "ticks": 11407,
          "time": 132.63953488372093,
          "velocity": 0.25196850393700787
        },
        {
          "duration": 0.4186046511627808,
          "durationTicks": 36,
          "midi": 58,
          "name": "A#3",
          "ticks": 11414,
          "time": 132.72093023255815,
          "velocity": 0.15748031496062992
        },
        {
          "duration": 0.034883720930224626,
          "durationTicks": 3,
          "midi": 62,
          "name": "D4",
          "ticks": 11519,
          "time": 133.9418604651163,
          "velocity": 0.07874015748031496
        },
        {
          "duration": 0.034883720930224626,
          "durationTicks": 3,
          "midi": 45,
          "name": "A2",
          "ticks": 11558,
          "time": 134.3953488372093,
          "velocity": 0.12598425196850394
        },
        {
          "duration": 0.3139534883720785,
          "durationTicks": 27,
          "midi": 44,
          "name": "G#2",
          "ticks": 11607,
          "time": 134.96511627906978,
          "velocity": 0.28346456692913385
        },
        {
          "duration": 0.0813953488371908,
          "durationTicks": 7,
          "midi": 56,
          "name": "G#3",
          "ticks": 11608,
          "time": 134.97674418604652,
          "velocity": 0.2992125984251969
        },
        {
          "duration": 0.13953488372092693,
          "durationTicks": 12,
          "midi": 58,
          "name": "A#3",
          "ticks": 11629,
          "time": 135.22093023255815,
          "velocity": 0.07874015748031496
        },
        {
          "duration": 0.03488372093025305,
          "durationTicks": 3,
          "midi": 44,
          "name": "G#2",
          "ticks": 11635,
          "time": 135.2906976744186,
          "velocity": 0.2440944881889764
        },
        {
          "duration": 0.2790697674418823,
          "durationTicks": 24,
          "midi": 51,
          "name": "D#3",
          "ticks": 11635,
          "time": 135.2906976744186,
          "velocity": 0.1889763779527559
        },
        {
          "duration": 0.19767441860463464,
          "durationTicks": 17,
          "midi": 44,
          "name": "G#2",
          "ticks": 11639,
          "time": 135.3372093023256,
          "velocity": 0.2125984251968504
        },
        {
          "duration": 0.03488372093025305,
          "durationTicks": 3,
          "midi": 55,
          "name": "G3",
          "ticks": 11658,
          "time": 135.5581395348837,
          "velocity": 0.2755905511811024
        },
        {
          "duration": 0.023255813953483084,
          "durationTicks": 2,
          "midi": 45,
          "name": "A2",
          "ticks": 11660,
          "time": 135.58139534883722,
          "velocity": 0.2755905511811024
        },
        {
          "duration": 0.1046511627907023,
          "durationTicks": 9,
          "midi": 56,
          "name": "G#3",
          "ticks": 11661,
          "time": 135.59302325581396,
          "velocity": 0.31496062992125984
        },
        {
          "duration": 0.5232558139534831,
          "durationTicks": 45,
          "midi": 44,
          "name": "G#2",
          "ticks": 11662,
          "time": 135.6046511627907,
          "velocity": 0.28346456692913385
        },
        {
          "duration": 0.06976744186047767,
          "durationTicks": 6,
          "midi": 51,
          "name": "D#3",
          "ticks": 11666,
          "time": 135.65116279069767,
          "velocity": 0.11811023622047244
        },
        {
          "duration": 0.04651162790699459,
          "durationTicks": 4,
          "midi": 51,
          "name": "D#3",
          "ticks": 11676,
          "time": 135.7674418604651,
          "velocity": 0.11023622047244094
        },
        {
          "duration": 0.24418604651162923,
          "durationTicks": 21,
          "midi": 51,
          "name": "D#3",
          "ticks": 11689,
          "time": 135.91860465116278,
          "velocity": 0.14173228346456693
        },
        {
          "duration": 0.5465116279069946,
          "durationTicks": 47,
          "midi": 44,
          "name": "G#2",
          "ticks": 11712,
          "time": 136.1860465116279,
          "velocity": 0.2992125984251969
        },
        {
          "duration": 0.1279069767442138,
          "durationTicks": 11,
          "midi": 56,
          "name": "G#3",
          "ticks": 11712,
          "time": 136.1860465116279,
          "velocity": 0.36220472440944884
        },
        {
          "duration": 0.2906976744185954,
          "durationTicks": 25,
          "midi": 51,
          "name": "D#3",
          "ticks": 11739,
          "time": 136.5,
          "velocity": 0.2125984251968504
        },
        {
          "duration": 0.22093023255814614,
          "durationTicks": 19,
          "midi": 56,
          "name": "G#3",
          "ticks": 11763,
          "time": 136.77906976744185,
          "velocity": 0.3543307086614173
        },
        {
          "duration": 0.3604651162790731,
          "durationTicks": 31,
          "midi": 44,
          "name": "G#2",
          "ticks": 11764,
          "time": 136.7906976744186,
          "velocity": 0.2992125984251969
        },
        {
          "duration": 0.27906976744185386,
          "durationTicks": 24,
          "midi": 51,
          "name": "D#3",
          "ticks": 11791,
          "time": 137.1046511627907,
          "velocity": 0.1889763779527559
        },
        {
          "duration": 0.023255813953483084,
          "durationTicks": 2,
          "midi": 45,
          "name": "A2",
          "ticks": 11815,
          "time": 137.38372093023256,
          "velocity": 0.33858267716535434
        },
        {
          "duration": 0.19767441860466306,
          "durationTicks": 17,
          "midi": 58,
          "name": "A#3",
          "ticks": 11816,
          "time": 137.3953488372093,
          "velocity": 0.18110236220472442
        },
        {
          "duration": 0.12790697674418539,
          "durationTicks": 11,
          "midi": 46,
          "name": "A#2",
          "ticks": 11817,
          "time": 137.40697674418604,
          "velocity": 0.3700787401574803
        },
        {
          "duration": 0.03488372093025305,
          "durationTicks": 3,
          "midi": 62,
          "name": "D4",
          "ticks": 11817,
          "time": 137.40697674418604,
          "velocity": 0.09448818897637795
        },
        {
          "duration": 0.09302325581393234,
          "durationTicks": 8,
          "midi": 62,
          "name": "D4",
          "ticks": 11822,
          "time": 137.46511627906978,
          "velocity": 0.08661417322834646
        },
        {
          "duration": 0.18604651162792152,
          "durationTicks": 16,
          "midi": 46,
          "name": "A#2",
          "ticks": 11829,
          "time": 137.54651162790697,
          "velocity": 0.29133858267716534
        },
        {
          "duration": 0.034883720930224626,
          "durationTicks": 3,
          "midi": 46,
          "name": "A#2",
          "ticks": 11848,
          "time": 137.7674418604651,
          "velocity": 0.25984251968503935
        },
        {
          "duration": 0.03488372093025305,
          "durationTicks": 3,
          "midi": 62,
          "name": "D4",
          "ticks": 11849,
          "time": 137.77906976744185,
          "velocity": 0.12598425196850394
        },
        {
          "duration": 0.04651162790696617,
          "durationTicks": 4,
          "midi": 46,
          "name": "A#2",
          "ticks": 11852,
          "time": 137.8139534883721,
          "velocity": 0.2440944881889764
        },
        {
          "duration": 0.034883720930224626,
          "durationTicks": 3,
          "midi": 46,
          "name": "A#2",
          "ticks": 11859,
          "time": 137.8953488372093,
          "velocity": 0.2283464566929134
        },
        {
          "duration": 0.06976744186044925,
          "durationTicks": 6,
          "midi": 51,
          "name": "D#3",
          "ticks": 11863,
          "time": 137.9418604651163,
          "velocity": 0.2047244094488189
        },
        {
          "duration": 0.034883720930224626,
          "durationTicks": 3,
          "midi": 62,
          "name": "D4",
          "ticks": 11864,
          "time": 137.95348837209303,
          "velocity": 0.09448818897637795
        },
        {
          "duration": 0.023255813953483084,
          "durationTicks": 2,
          "midi": 45,
          "name": "A2",
          "ticks": 11868,
          "time": 138,
          "velocity": 0.28346456692913385
        },
        {
          "duration": 0.2674418604651123,
          "durationTicks": 23,
          "midi": 58,
          "name": "A#3",
          "ticks": 11868,
          "time": 138,
          "velocity": 0.1889763779527559
        },
        {
          "duration": 0.13953488372092693,
          "durationTicks": 12,
          "midi": 46,
          "name": "A#2",
          "ticks": 11870,
          "time": 138.02325581395348,
          "velocity": 0.31496062992125984
        },
        {
          "duration": 0.17441860465115155,
          "durationTicks": 15,
          "midi": 46,
          "name": "A#2",
          "ticks": 11885,
          "time": 138.19767441860466,
          "velocity": 0.28346456692913385
        },
        {
          "duration": 0.09302325581396076,
          "durationTicks": 8,
          "midi": 46,
          "name": "A#2",
          "ticks": 11901,
          "time": 138.38372093023256,
          "velocity": 0.2125984251968504
        },
        {
          "duration": 0.034883720930224626,
          "durationTicks": 3,
          "midi": 46,
          "name": "A#2",
          "ticks": 11912,
          "time": 138.51162790697674,
          "velocity": 0.16535433070866143
        },
        {
          "duration": 0.03488372093025305,
          "durationTicks": 3,
          "midi": 51,
          "name": "D#3",
          "ticks": 11916,
          "time": 138.5581395348837,
          "velocity": 0.13385826771653545
        },
        {
          "duration": 0.1046511627907023,
          "durationTicks": 9,
          "midi": 46,
          "name": "A#2",
          "ticks": 11921,
          "time": 138.61627906976744,
          "velocity": 0.29133858267716534
        },
        {
          "duration": 0.05813953488370771,
          "durationTicks": 5,
          "midi": 46,
          "name": "A#2",
          "ticks": 11931,
          "time": 138.7325581395349,
          "velocity": 0.2440944881889764
        },
        {
          "duration": 0.09302325581396076,
          "durationTicks": 8,
          "midi": 46,
          "name": "A#2",
          "ticks": 11937,
          "time": 138.80232558139534,
          "velocity": 0.23622047244094488
        },
        {
          "duration": 0.03488372093025305,
          "durationTicks": 3,
          "midi": 46,
          "name": "A#2",
          "ticks": 11946,
          "time": 138.90697674418604,
          "velocity": 0.2125984251968504
        },
        {
          "duration": 0.034883720930224626,
          "durationTicks": 3,
          "midi": 46,
          "name": "A#2",
          "ticks": 11955,
          "time": 139.01162790697674,
          "velocity": 0.2047244094488189
        },
        {
          "duration": 0.04651162790699459,
          "durationTicks": 4,
          "midi": 46,
          "name": "A#2",
          "ticks": 11959,
          "time": 139.0581395348837,
          "velocity": 0.16535433070866143
        },
        {
          "duration": 0.04651162790696617,
          "durationTicks": 4,
          "midi": 51,
          "name": "D#3",
          "ticks": 11965,
          "time": 139.12790697674419,
          "velocity": 0.11811023622047244
        },
        {
          "duration": 0.03488372093025305,
          "durationTicks": 3,
          "midi": 45,
          "name": "A2",
          "ticks": 11969,
          "time": 139.17441860465115,
          "velocity": 0.28346456692913385
        },
        {
          "duration": 0.1860465116278931,
          "durationTicks": 16,
          "midi": 58,
          "name": "A#3",
          "ticks": 11971,
          "time": 139.19767441860466,
          "velocity": 0.18110236220472442
        },
        {
          "duration": 0.2674418604651123,
          "durationTicks": 23,
          "midi": 46,
          "name": "A#2",
          "ticks": 11972,
          "time": 139.2093023255814,
          "velocity": 0.3228346456692913
        },
        {
          "duration": 0.034883720930224626,
          "durationTicks": 3,
          "midi": 46,
          "name": "A#2",
          "ticks": 11996,
          "time": 139.48837209302326,
          "velocity": 0.2755905511811024
        },
        {
          "duration": 0.034883720930224626,
          "durationTicks": 3,
          "midi": 46,
          "name": "A#2",
          "ticks": 12005,
          "time": 139.59302325581396,
          "velocity": 0.2047244094488189
        },
        {
          "duration": 0.04651162790696617,
          "durationTicks": 4,
          "midi": 51,
          "name": "D#3",
          "ticks": 12009,
          "time": 139.63953488372093,
          "velocity": 0.18110236220472442
        },
        {
          "duration": 0.034883720930224626,
          "durationTicks": 3,
          "midi": 51,
          "name": "D#3",
          "ticks": 12016,
          "time": 139.72093023255815,
          "velocity": 0.18110236220472442
        },
        {
          "duration": 0.023255813953483084,
          "durationTicks": 2,
          "midi": 54,
          "name": "F#3",
          "ticks": 12020,
          "time": 139.7674418604651,
          "velocity": 0.33858267716535434
        },
        {
          "duration": 0.2906976744186238,
          "durationTicks": 25,
          "midi": 55,
          "name": "G3",
          "ticks": 12022,
          "time": 139.7906976744186,
          "velocity": 0.3700787401574803
        },
        {
          "duration": 0.03488372093025305,
          "durationTicks": 3,
          "midi": 44,
          "name": "G#2",
          "ticks": 12023,
          "time": 139.80232558139534,
          "velocity": 0.23622047244094488
        },
        {
          "duration": 0.04651162790696617,
          "durationTicks": 4,
          "midi": 43,
          "name": "G2",
          "ticks": 12029,
          "time": 139.87209302325581,
          "velocity": 0.2204724409448819
        },
        {
          "duration": 0.13953488372092693,
          "durationTicks": 12,
          "midi": 43,
          "name": "G2",
          "ticks": 12036,
          "time": 139.95348837209303,
          "velocity": 0.2047244094488189
        },
        {
          "duration": 0.034883720930224626,
          "durationTicks": 3,
          "midi": 58,
          "name": "A#3",
          "ticks": 12047,
          "time": 140.08139534883722,
          "velocity": 0.08661417322834646
        },
        {
          "duration": 0.034883720930224626,
          "durationTicks": 3,
          "midi": 44,
          "name": "G#2",
          "ticks": 12049,
          "time": 140.1046511627907,
          "velocity": 0.2440944881889764
        },
        {
          "duration": 0.25581395348837077,
          "durationTicks": 22,
          "midi": 51,
          "name": "D#3",
          "ticks": 12049,
          "time": 140.1046511627907,
          "velocity": 0.18110236220472442
        },
        {
          "duration": 0.19767441860466306,
          "durationTicks": 17,
          "midi": 43,
          "name": "G2",
          "ticks": 12052,
          "time": 140.13953488372093,
          "velocity": 0.2047244094488189
        },
        {
          "duration": 0.2906976744185954,
          "durationTicks": 25,
          "midi": 55,
          "name": "G3",
          "ticks": 12072,
          "time": 140.37209302325581,
          "velocity": 0.3228346456692913
        },
        {
          "duration": 0.25581395348837077,
          "durationTicks": 22,
          "midi": 43,
          "name": "G2",
          "ticks": 12076,
          "time": 140.41860465116278,
          "velocity": 0.2125984251968504
        },
        {
          "duration": 0.023255813953511506,
          "durationTicks": 2,
          "midi": 44,
          "name": "G#2",
          "ticks": 12098,
          "time": 140.67441860465115,
          "velocity": 0.25196850393700787
        },
        {
          "duration": 0.04651162790696617,
          "durationTicks": 4,
          "midi": 43,
          "name": "G2",
          "ticks": 12100,
          "time": 140.69767441860466,
          "velocity": 0.2125984251968504
        },
        {
          "duration": 0.27906976744185386,
          "durationTicks": 24,
          "midi": 51,
          "name": "D#3",
          "ticks": 12100,
          "time": 140.69767441860466,
          "velocity": 0.23622047244094488
        },
        {
          "duration": 0.17441860465115155,
          "durationTicks": 15,
          "midi": 43,
          "name": "G2",
          "ticks": 12105,
          "time": 140.75581395348837,
          "velocity": 0.1968503937007874
        },
        {
          "duration": 0.03488372093025305,
          "durationTicks": 3,
          "midi": 44,
          "name": "G#2",
          "ticks": 12120,
          "time": 140.93023255813952,
          "velocity": 0.16535433070866143
        },
        {
          "duration": 0.023255813953483084,
          "durationTicks": 2,
          "midi": 57,
          "name": "A3",
          "ticks": 12123,
          "time": 140.96511627906978,
          "velocity": 0.2440944881889764
        },
        {
          "duration": 0.3139534883720785,
          "durationTicks": 27,
          "midi": 55,
          "name": "G3",
          "ticks": 12125,
          "time": 140.98837209302326,
          "velocity": 0.41732283464566927
        },
        {
          "duration": 0.034883720930224626,
          "durationTicks": 3,
          "midi": 63,
          "name": "D#4",
          "ticks": 12125,
          "time": 140.98837209302326,
          "velocity": 0.11023622047244094
        },
        {
          "duration": 0.2674418604651123,
          "durationTicks": 23,
          "midi": 43,
          "name": "G2",
          "ticks": 12128,
          "time": 141.02325581395348,
          "velocity": 0.2204724409448819
        },
        {
          "duration": 0.03488372093025305,
          "durationTicks": 3,
          "midi": 63,
          "name": "D#4",
          "ticks": 12131,
          "time": 141.0581395348837,
          "velocity": 0.07086614173228346
        },
        {
          "duration": 0.023255813953511506,
          "durationTicks": 2,
          "midi": 44,
          "name": "G#2",
          "ticks": 12151,
          "time": 141.2906976744186,
          "velocity": 0.25984251968503935
        },
        {
          "duration": 0.22093023255811772,
          "durationTicks": 19,
          "midi": 43,
          "name": "G2",
          "ticks": 12153,
          "time": 141.3139534883721,
          "velocity": 0.2047244094488189
        },
        {
          "duration": 0.24418604651162923,
          "durationTicks": 21,
          "midi": 51,
          "name": "D#3",
          "ticks": 12155,
          "time": 141.3372093023256,
          "velocity": 0.16535433070866143
        },
        {
          "duration": 0.32558139534882,
          "durationTicks": 28,
          "midi": 55,
          "name": "G3",
          "ticks": 12176,
          "time": 141.58139534883722,
          "velocity": 0.3779527559055118
        },
        {
          "duration": 0.034883720930224626,
          "durationTicks": 3,
          "midi": 44,
          "name": "G#2",
          "ticks": 12177,
          "time": 141.59302325581396,
          "velocity": 0.15748031496062992
        },
        {
          "duration": 0.24418604651162923,
          "durationTicks": 21,
          "midi": 43,
          "name": "G2",
          "ticks": 12180,
          "time": 141.62790697674419,
          "velocity": 0.16535433070866143
        },
        {
          "duration": 0.27906976744185386,
          "durationTicks": 24,
          "midi": 51,
          "name": "D#3",
          "ticks": 12203,
          "time": 141.8953488372093,
          "velocity": 0.16535433070866143
        },
        {
          "duration": 0.03488372093025305,
          "durationTicks": 3,
          "midi": 44,
          "name": "G#2",
          "ticks": 12204,
          "time": 141.90697674418604,
          "velocity": 0.1968503937007874
        },
        {
          "duration": 0.04651162790696617,
          "durationTicks": 4,
          "midi": 43,
          "name": "G2",
          "ticks": 12207,
          "time": 141.9418604651163,
          "velocity": 0.14173228346456693
        },
        {
          "duration": 0.5930232558139608,
          "durationTicks": 51,
          "midi": 58,
          "name": "A#3",
          "ticks": 12228,
          "time": 142.1860465116279,
          "velocity": 0.2125984251968504
        },
        {
          "duration": 0.2674418604651123,
          "durationTicks": 23,
          "midi": 48,
          "name": "C3",
          "ticks": 12233,
          "time": 142.24418604651163,
          "velocity": 0.30708661417322836
        },
        {
          "duration": 0.023255813953511506,
          "durationTicks": 2,
          "midi": 51,
          "name": "D#3",
          "ticks": 12259,
          "time": 142.54651162790697,
          "velocity": 0.2440944881889764
        },
        {
          "duration": 0.023255813953483084,
          "durationTicks": 2,
          "midi": 50,
          "name": "D3",
          "ticks": 12264,
          "time": 142.6046511627907,
          "velocity": 0.2677165354330709
        },
        {
          "duration": 0.023255813953483084,
          "durationTicks": 2,
          "midi": 51,
          "name": "D#3",
          "ticks": 12266,
          "time": 142.62790697674419,
          "velocity": 0.2440944881889764
        },
        {
          "duration": 0.023255813953511506,
          "durationTicks": 2,
          "midi": 50,
          "name": "D3",
          "ticks": 12271,
          "time": 142.6860465116279,
          "velocity": 0.25984251968503935
        },
        {
          "duration": 0.034883720930224626,
          "durationTicks": 3,
          "midi": 51,
          "name": "D#3",
          "ticks": 12276,
          "time": 142.74418604651163,
          "velocity": 0.2204724409448819
        },
        {
          "duration": 0.023255813953483084,
          "durationTicks": 2,
          "midi": 48,
          "name": "C3",
          "ticks": 12285,
          "time": 142.84883720930233,
          "velocity": 0.28346456692913385
        },
        {
          "duration": 0.023255813953483084,
          "durationTicks": 2,
          "midi": 50,
          "name": "D3",
          "ticks": 12295,
          "time": 142.96511627906978,
          "velocity": 0.2440944881889764
        },
        {
          "duration": 0.06976744186047767,
          "durationTicks": 6,
          "midi": 48,
          "name": "C3",
          "ticks": 12299,
          "time": 143.01162790697674,
          "velocity": 0.30708661417322836
        },
        {
          "duration": 0.023255813953483084,
          "durationTicks": 2,
          "midi": 50,
          "name": "D3",
          "ticks": 12308,
          "time": 143.11627906976744,
          "velocity": 0.28346456692913385
        },
        {
          "duration": 0.023255813953483084,
          "durationTicks": 2,
          "midi": 51,
          "name": "D#3",
          "ticks": 12310,
          "time": 143.13953488372093,
          "velocity": 0.2677165354330709
        },
        {
          "duration": 0.023255813953483084,
          "durationTicks": 2,
          "midi": 50,
          "name": "D3",
          "ticks": 12315,
          "time": 143.19767441860466,
          "velocity": 0.28346456692913385
        },
        {
          "duration": 0.023255813953483084,
          "durationTicks": 2,
          "midi": 51,
          "name": "D#3",
          "ticks": 12317,
          "time": 143.22093023255815,
          "velocity": 0.2677165354330709
        },
        {
          "duration": 0.023255813953483084,
          "durationTicks": 2,
          "midi": 50,
          "name": "D3",
          "ticks": 12322,
          "time": 143.27906976744185,
          "velocity": 0.2677165354330709
        },
        {
          "duration": 0.06976744186044925,
          "durationTicks": 6,
          "midi": 51,
          "name": "D#3",
          "ticks": 12325,
          "time": 143.3139534883721,
          "velocity": 0.25196850393700787
        },
        {
          "duration": 0.023255813953483084,
          "durationTicks": 2,
          "midi": 50,
          "name": "D3",
          "ticks": 12333,
          "time": 143.40697674418604,
          "velocity": 0.2755905511811024
        },
        {
          "duration": 0.023255813953511506,
          "durationTicks": 2,
          "midi": 51,
          "name": "D#3",
          "ticks": 12335,
          "time": 143.43023255813952,
          "velocity": 0.25196850393700787
        },
        {
          "duration": 0.023255813953483084,
          "durationTicks": 2,
          "midi": 48,
          "name": "C3",
          "ticks": 12337,
          "time": 143.45348837209303,
          "velocity": 0.25984251968503935
        },
        {
          "duration": 0.023255813953483084,
          "durationTicks": 2,
          "midi": 51,
          "name": "D#3",
          "ticks": 12342,
          "time": 143.51162790697674,
          "velocity": 0.2440944881889764
        },
        {
          "duration": 0.023255813953483084,
          "durationTicks": 2,
          "midi": 50,
          "name": "D3",
          "ticks": 12347,
          "time": 143.56976744186048,
          "velocity": 0.25984251968503935
        },
        {
          "duration": 0.023255813953483084,
          "durationTicks": 2,
          "midi": 51,
          "name": "D#3",
          "ticks": 12349,
          "time": 143.59302325581396,
          "velocity": 0.23622047244094488
        },
        {
          "duration": 0.05813953488370771,
          "durationTicks": 5,
          "midi": 48,
          "name": "C3",
          "ticks": 12351,
          "time": 143.61627906976744,
          "velocity": 0.2125984251968504
        },
        {
          "duration": 0.023255813953483084,
          "durationTicks": 2,
          "midi": 51,
          "name": "D#3",
          "ticks": 12358,
          "time": 143.69767441860466,
          "velocity": 0.2440944881889764
        },
        {
          "duration": 0.023255813953483084,
          "durationTicks": 2,
          "midi": 50,
          "name": "D3",
          "ticks": 12363,
          "time": 143.75581395348837,
          "velocity": 0.25196850393700787
        },
        {
          "duration": 0.023255813953483084,
          "durationTicks": 2,
          "midi": 50,
          "name": "D3",
          "ticks": 12370,
          "time": 143.8372093023256,
          "velocity": 0.2440944881889764
        },
        {
          "duration": 0.04651162790699459,
          "durationTicks": 4,
          "midi": 51,
          "name": "D#3",
          "ticks": 12377,
          "time": 143.91860465116278,
          "velocity": 0.2125984251968504
        },
        {
          "duration": 0.19767441860463464,
          "durationTicks": 17,
          "midi": 60,
          "name": "C4",
          "ticks": 12382,
          "time": 143.97674418604652,
          "velocity": 0.08661417322834646
        },
        {
          "duration": 0.05813953488370771,
          "durationTicks": 5,
          "midi": 48,
          "name": "C3",
          "ticks": 12384,
          "time": 144,
          "velocity": 0.2755905511811024
        },
        {
          "duration": 0.023255813953483084,
          "durationTicks": 2,
          "midi": 50,
          "name": "D3",
          "ticks": 12407,
          "time": 144.2674418604651,
          "velocity": 0.2283464566929134
        },
        {
          "duration": 0.25581395348837077,
          "durationTicks": 22,
          "midi": 51,
          "name": "D#3",
          "ticks": 12409,
          "time": 144.2906976744186,
          "velocity": 0.2440944881889764
        },
        {
          "duration": 0.27906976744185386,
          "durationTicks": 24,
          "midi": 44,
          "name": "G#2",
          "ticks": 12433,
          "time": 144.56976744186048,
          "velocity": 0.2992125984251969
        },
        {
          "duration": 0.0813953488371908,
          "durationTicks": 7,
          "midi": 56,
          "name": "G#3",
          "ticks": 12433,
          "time": 144.56976744186048,
          "velocity": 0.3937007874015748
        },
        {
          "duration": 0.05813953488373613,
          "durationTicks": 5,
          "midi": 51,
          "name": "D#3",
          "ticks": 12439,
          "time": 144.63953488372093,
          "velocity": 0.13385826771653545
        },
        {
          "duration": 0.023255813953483084,
          "durationTicks": 2,
          "midi": 57,
          "name": "A3",
          "ticks": 12440,
          "time": 144.65116279069767,
          "velocity": 0.25196850393700787
        },
        {
          "duration": 0.20930232558137618,
          "durationTicks": 18,
          "midi": 58,
          "name": "A#3",
          "ticks": 12454,
          "time": 144.8139534883721,
          "velocity": 0.08661417322834646
        },
        {
          "duration": 0.2906976744185954,
          "durationTicks": 25,
          "midi": 51,
          "name": "D#3",
          "ticks": 12459,
          "time": 144.87209302325581,
          "velocity": 0.2047244094488189
        },
        {
          "duration": 0.2325581395348877,
          "durationTicks": 20,
          "midi": 44,
          "name": "G#2",
          "ticks": 12460,
          "time": 144.88372093023256,
          "velocity": 0.2440944881889764
        },
        {
          "duration": 0.13953488372092693,
          "durationTicks": 12,
          "midi": 56,
          "name": "G#3",
          "ticks": 12483,
          "time": 145.15116279069767,
          "velocity": 0.36220472440944884
        },
        {
          "duration": 0.2906976744186238,
          "durationTicks": 25,
          "midi": 44,
          "name": "G#2",
          "ticks": 12484,
          "time": 145.1627906976744,
          "velocity": 0.29133858267716534
        },
        {
          "duration": 0.2674418604651123,
          "durationTicks": 23,
          "midi": 51,
          "name": "D#3",
          "ticks": 12511,
          "time": 145.47674418604652,
          "velocity": 0.2125984251968504
        },
        {
          "duration": 0.2093023255814046,
          "durationTicks": 18,
          "midi": 44,
          "name": "G#2",
          "ticks": 12512,
          "time": 145.48837209302326,
          "velocity": 0.25984251968503935
        },
        {
          "duration": 0.023255813953483084,
          "durationTicks": 2,
          "midi": 55,
          "name": "G3",
          "ticks": 12534,
          "time": 145.74418604651163,
          "velocity": 0.3700787401574803
        },
        {
          "duration": 0.06976744186047767,
          "durationTicks": 6,
          "midi": 63,
          "name": "D#4",
          "ticks": 12535,
          "time": 145.75581395348837,
          "velocity": 0.07874015748031496
        },
        {
          "duration": 0.12790697674418539,
          "durationTicks": 11,
          "midi": 56,
          "name": "G#3",
          "ticks": 12536,
          "time": 145.7674418604651,
          "velocity": 0.3937007874015748
        },
        {
          "duration": 0.5232558139534831,
          "durationTicks": 45,
          "midi": 44,
          "name": "G#2",
          "ticks": 12537,
          "time": 145.77906976744185,
          "velocity": 0.28346456692913385
        },
        {
          "duration": 0.04651162790696617,
          "durationTicks": 4,
          "midi": 51,
          "name": "D#3",
          "ticks": 12542,
          "time": 145.8372093023256,
          "velocity": 0.13385826771653545
        },
        {
          "duration": 0.04651162790696617,
          "durationTicks": 4,
          "midi": 51,
          "name": "D#3",
          "ticks": 12552,
          "time": 145.95348837209303,
          "velocity": 0.11811023622047244
        },
        {
          "duration": 0.08139534883721922,
          "durationTicks": 7,
          "midi": 51,
          "name": "D#3",
          "ticks": 12561,
          "time": 146.0581395348837,
          "velocity": 0.15748031496062992
        },
        {
          "duration": 0.2093023255814046,
          "durationTicks": 18,
          "midi": 51,
          "name": "D#3",
          "ticks": 12569,
          "time": 146.15116279069767,
          "velocity": 0.16535433070866143
        },
        {
          "duration": 0.023255813953483084,
          "durationTicks": 2,
          "midi": 55,
          "name": "G3",
          "ticks": 12586,
          "time": 146.34883720930233,
          "velocity": 0.33070866141732286
        },
        {
          "duration": 0.023255813953483084,
          "durationTicks": 2,
          "midi": 45,
          "name": "A2",
          "ticks": 12588,
          "time": 146.37209302325581,
          "velocity": 0.2992125984251969
        },
        {
          "duration": 0.2325581395348877,
          "durationTicks": 20,
          "midi": 56,
          "name": "G#3",
          "ticks": 12588,
          "time": 146.37209302325581,
          "velocity": 0.3779527559055118
        },
        {
          "duration": 0.24418604651162923,
          "durationTicks": 21,
          "midi": 44,
          "name": "G#2",
          "ticks": 12590,
          "time": 146.3953488372093,
          "velocity": 0.30708661417322836
        },
        {
          "duration": 0.05813953488370771,
          "durationTicks": 5,
          "midi": 51,
          "name": "D#3",
          "ticks": 12594,
          "time": 146.4418604651163,
          "velocity": 0.09448818897637795
        },
        {
          "duration": 0.2790697674418823,
          "durationTicks": 24,
          "midi": 51,
          "name": "D#3",
          "ticks": 12613,
          "time": 146.6627906976744,
          "velocity": 0.25196850393700787
        },
        {
          "duration": 0.06976744186047767,
          "durationTicks": 6,
          "midi": 44,
          "name": "G#2",
          "ticks": 12615,
          "time": 146.6860465116279,
          "velocity": 0.2283464566929134
        },
        {
          "duration": 0.023255813953483084,
          "durationTicks": 2,
          "midi": 45,
          "name": "A2",
          "ticks": 12638,
          "time": 146.95348837209303,
          "velocity": 0.3700787401574803
        },
        {
          "duration": 0.5232558139534831,
          "durationTicks": 45,
          "midi": 62,
          "name": "D4",
          "ticks": 12638,
          "time": 146.95348837209303,
          "velocity": 0.1732283464566929
        },
        {
          "duration": 0.5813953488371908,
          "durationTicks": 50,
          "midi": 58,
          "name": "A#3",
          "ticks": 12639,
          "time": 146.96511627906978,
          "velocity": 0.29133858267716534
        },
        {
          "duration": 0.2674418604651123,
          "durationTicks": 23,
          "midi": 46,
          "name": "A#2",
          "ticks": 12640,
          "time": 146.97674418604652,
          "velocity": 0.3937007874015748
        },
        {
          "duration": 0.03488372093025305,
          "durationTicks": 3,
          "midi": 46,
          "name": "A#2",
          "ticks": 12667,
          "time": 147.2906976744186,
          "velocity": 0.29133858267716534
        },
        {
          "duration": 0.04651162790696617,
          "durationTicks": 4,
          "midi": 46,
          "name": "A#2",
          "ticks": 12671,
          "time": 147.3372093023256,
          "velocity": 0.28346456692913385
        },
        {
          "duration": 0.03488372093025305,
          "durationTicks": 3,
          "midi": 46,
          "name": "A#2",
          "ticks": 12678,
          "time": 147.41860465116278,
          "velocity": 0.25196850393700787
        },
        {
          "duration": 0.2674418604651123,
          "durationTicks": 23,
          "midi": 62,
          "name": "D4",
          "ticks": 12684,
          "time": 147.48837209302326,
          "velocity": 0.15748031496062992
        },
        {
          "duration": 0.04651162790696617,
          "durationTicks": 4,
          "midi": 51,
          "name": "D#3",
          "ticks": 12685,
          "time": 147.5,
          "velocity": 0.2047244094488189
        },
        {
          "duration": 0.03488372093025305,
          "durationTicks": 3,
          "midi": 45,
          "name": "A2",
          "ticks": 12689,
          "time": 147.54651162790697,
          "velocity": 0.31496062992125984
        },
        {
          "duration": 0.1860465116278931,
          "durationTicks": 16,
          "midi": 46,
          "name": "A#2",
          "ticks": 12692,
          "time": 147.58139534883722,
          "velocity": 0.3464566929133858
        },
        {
          "duration": 0.1046511627907023,
          "durationTicks": 9,
          "midi": 62,
          "name": "D4",
          "ticks": 12708,
          "time": 147.7674418604651,
          "velocity": 0.14960629921259844
        },
        {
          "duration": 0.05813953488373613,
          "durationTicks": 5,
          "midi": 46,
          "name": "A#2",
          "ticks": 12709,
          "time": 147.77906976744185,
          "velocity": 0.2677165354330709
        },
        {
          "duration": 0.023255813953483084,
          "durationTicks": 2,
          "midi": 46,
          "name": "A#2",
          "ticks": 12717,
          "time": 147.87209302325581,
          "velocity": 0.2677165354330709
        },
        {
          "duration": 0.034883720930224626,
          "durationTicks": 3,
          "midi": 62,
          "name": "D4",
          "ticks": 12718,
          "time": 147.88372093023256,
          "velocity": 0.14960629921259844
        },
        {
          "duration": 0.05813953488373613,
          "durationTicks": 5,
          "midi": 46,
          "name": "A#2",
          "ticks": 12722,
          "time": 147.93023255813952,
          "velocity": 0.2755905511811024
        },
        {
          "duration": 0.034883720930224626,
          "durationTicks": 3,
          "midi": 62,
          "name": "D4",
          "ticks": 12723,
          "time": 147.9418604651163,
          "velocity": 0.14173228346456693
        },
        {
          "duration": 0.17441860465115155,
          "durationTicks": 15,
          "midi": 51,
          "name": "D#3",
          "ticks": 12726,
          "time": 147.97674418604652,
          "velocity": 0.2440944881889764
        },
        {
          "duration": 0.034883720930224626,
          "durationTicks": 3,
          "midi": 62,
          "name": "D4",
          "ticks": 12728,
          "time": 148,
          "velocity": 0.12598425196850394
        },
        {
          "duration": 0.023255813953483084,
          "durationTicks": 2,
          "midi": 45,
          "name": "A2",
          "ticks": 12741,
          "time": 148.15116279069767,
          "velocity": 0.3464566929133858
        },
        {
          "duration": 0.2674418604651123,
          "durationTicks": 23,
          "midi": 58,
          "name": "A#3",
          "ticks": 12741,
          "time": 148.15116279069767,
          "velocity": 0.23622047244094488
        },
        {
          "duration": 0.1046511627907023,
          "durationTicks": 9,
          "midi": 46,
          "name": "A#2",
          "ticks": 12743,
          "time": 148.17441860465115,
          "velocity": 0.36220472440944884
        },
        {
          "duration": 0.06976744186047767,
          "durationTicks": 6,
          "midi": 46,
          "name": "A#2",
          "ticks": 12753,
          "time": 148.2906976744186,
          "velocity": 0.29133858267716534
        },
        {
          "duration": 0.06976744186047767,
          "durationTicks": 6,
          "midi": 46,
          "name": "A#2",
          "ticks": 12760,
          "time": 148.37209302325581,
          "velocity": 0.2992125984251969
        },
        {
          "duration": 0.023255813953483084,
          "durationTicks": 2,
          "midi": 46,
          "name": "A#2",
          "ticks": 12769,
          "time": 148.47674418604652,
          "velocity": 0.2677165354330709
        },
        {
          "duration": 0.05813953488373613,
          "durationTicks": 5,
          "midi": 46,
          "name": "A#2",
          "ticks": 12774,
          "time": 148.53488372093022,
          "velocity": 0.25984251968503935
        },
        {
          "duration": 0.09302325581396076,
          "durationTicks": 8,
          "midi": 51,
          "name": "D#3",
          "ticks": 12783,
          "time": 148.63953488372093,
          "velocity": 0.2440944881889764
        },
        {
          "duration": 0.2093023255814046,
          "durationTicks": 18,
          "midi": 84,
          "name": "C6",
          "ticks": 12791,
          "time": 148.7325581395349,
          "velocity": 0.09448818897637795
        },
        {
          "duration": 0.16279069767441,
          "durationTicks": 14,
          "midi": 46,
          "name": "A#2",
          "ticks": 12792,
          "time": 148.74418604651163,
          "velocity": 0.3543307086614173
        },
        {
          "duration": 0.13953488372092693,
          "durationTicks": 12,
          "midi": 46,
          "name": "A#2",
          "ticks": 12807,
          "time": 148.91860465116278,
          "velocity": 0.29133858267716534
        },
        {
          "duration": 0.05813953488370771,
          "durationTicks": 5,
          "midi": 46,
          "name": "A#2",
          "ticks": 12823,
          "time": 149.1046511627907,
          "velocity": 0.2677165354330709
        },
        {
          "duration": 0.023255813953511506,
          "durationTicks": 2,
          "midi": 46,
          "name": "A#2",
          "ticks": 12829,
          "time": 149.17441860465115,
          "velocity": 0.2440944881889764
        },
        {
          "duration": 0.034883720930224626,
          "durationTicks": 3,
          "midi": 46,
          "name": "A#2",
          "ticks": 12834,
          "time": 149.2325581395349,
          "velocity": 0.2204724409448819
        },
        {
          "duration": 0.05813953488373613,
          "durationTicks": 5,
          "midi": 51,
          "name": "D#3",
          "ticks": 12838,
          "time": 149.27906976744185,
          "velocity": 0.1889763779527559
        },
        {
          "duration": 0.1046511627907023,
          "durationTicks": 9,
          "midi": 63,
          "name": "D#4",
          "ticks": 12843,
          "time": 149.3372093023256,
          "velocity": 0.1968503937007874
        },
        {
          "duration": 0.30232558139533694,
          "durationTicks": 26,
          "midi": 55,
          "name": "G3",
          "ticks": 12844,
          "time": 149.34883720930233,
          "velocity": 0.4094488188976378
        },
        {
          "duration": 0.1046511627907023,
          "durationTicks": 9,
          "midi": 70,
          "name": "A#4",
          "ticks": 12845,
          "time": 149.36046511627907,
          "velocity": 0.11811023622047244
        },
        {
          "duration": 0.023255813953483084,
          "durationTicks": 2,
          "midi": 44,
          "name": "G#2",
          "ticks": 12847,
          "time": 149.38372093023256,
          "velocity": 0.2440944881889764
        },
        {
          "duration": 0.03488372093025305,
          "durationTicks": 3,
          "midi": 43,
          "name": "G2",
          "ticks": 12849,
          "time": 149.40697674418604,
          "velocity": 0.2125984251968504
        },
        {
          "duration": 0.1860465116278931,
          "durationTicks": 16,
          "midi": 43,
          "name": "G2",
          "ticks": 12853,
          "time": 149.45348837209303,
          "velocity": 0.1968503937007874
        },
        {
          "duration": 0.04651162790696617,
          "durationTicks": 4,
          "midi": 63,
          "name": "D#4",
          "ticks": 12853,
          "time": 149.45348837209303,
          "velocity": 0.14173228346456693
        },
        {
          "duration": 0.04651162790696617,
          "durationTicks": 4,
          "midi": 63,
          "name": "D#4",
          "ticks": 12858,
          "time": 149.51162790697674,
          "velocity": 0.12598425196850394
        },
        {
          "duration": 0.034883720930224626,
          "durationTicks": 3,
          "midi": 63,
          "name": "D#4",
          "ticks": 12864,
          "time": 149.58139534883722,
          "velocity": 0.13385826771653545
        },
        {
          "duration": 0.023255813953483084,
          "durationTicks": 2,
          "midi": 44,
          "name": "G#2",
          "ticks": 12869,
          "time": 149.63953488372093,
          "velocity": 0.23622047244094488
        },
        {
          "duration": 0.15116279069766847,
          "durationTicks": 13,
          "midi": 63,
          "name": "D#4",
          "ticks": 12870,
          "time": 149.65116279069767,
          "velocity": 0.18110236220472442
        },
        {
          "duration": 0.03488372093025305,
          "durationTicks": 3,
          "midi": 43,
          "name": "G2",
          "ticks": 12871,
          "time": 149.6627906976744,
          "velocity": 0.2125984251968504
        },
        {
          "duration": 0.2790697674418823,
          "durationTicks": 24,
          "midi": 51,
          "name": "D#3",
          "ticks": 12871,
          "time": 149.6627906976744,
          "velocity": 0.23622047244094488
        },
        {
          "duration": 0.023255813953483084,
          "durationTicks": 2,
          "midi": 44,
          "name": "G#2",
          "ticks": 12874,
          "time": 149.69767441860466,
          "velocity": 0.2283464566929134
        },
        {
          "duration": 0.17441860465115155,
          "durationTicks": 15,
          "midi": 43,
          "name": "G2",
          "ticks": 12876,
          "time": 149.72093023255815,
          "velocity": 0.1889763779527559
        },
        {
          "duration": 0.30232558139533694,
          "durationTicks": 26,
          "midi": 55,
          "name": "G3",
          "ticks": 12896,
          "time": 149.95348837209303,
          "velocity": 0.36220472440944884
        },
        {
          "duration": 0.27906976744185386,
          "durationTicks": 24,
          "midi": 43,
          "name": "G2",
          "ticks": 12898,
          "time": 149.97674418604652,
          "velocity": 0.2440944881889764
        },
        {
          "duration": 0.04651162790696617,
          "durationTicks": 4,
          "midi": 51,
          "name": "D#3",
          "ticks": 12911,
          "time": 150.12790697674419,
          "velocity": 0.1732283464566929
        },
        {
          "duration": 0.023255813953483084,
          "durationTicks": 2,
          "midi": 44,
          "name": "G#2",
          "ticks": 12922,
          "time": 150.25581395348837,
          "velocity": 0.2677165354330709
        },
        {
          "duration": 0.2906976744185954,
          "durationTicks": 25,
          "midi": 51,
          "name": "D#3",
          "ticks": 12922,
          "time": 150.25581395348837,
          "velocity": 0.2283464566929134
        },
        {
          "duration": 0.05813953488373613,
          "durationTicks": 5,
          "midi": 43,
          "name": "G2",
          "ticks": 12924,
          "time": 150.27906976744185,
          "velocity": 0.2125984251968504
        },
        {
          "duration": 0.13953488372092693,
          "durationTicks": 12,
          "midi": 43,
          "name": "G2",
          "ticks": 12930,
          "time": 150.34883720930233,
          "velocity": 0.18110236220472442
        },
        {
          "duration": 0.034883720930224626,
          "durationTicks": 3,
          "midi": 44,
          "name": "G#2",
          "ticks": 12942,
          "time": 150.48837209302326,
          "velocity": 0.1732283464566929
        },
        {
          "duration": 0.2093023255814046,
          "durationTicks": 18,
          "midi": 55,
          "name": "G3",
          "ticks": 12947,
          "time": 150.54651162790697,
          "velocity": 0.3779527559055118
        },
        {
          "duration": 0.24418604651162923,
          "durationTicks": 21,
          "midi": 43,
          "name": "G2",
          "ticks": 12951,
          "time": 150.59302325581396,
          "velocity": 0.2047244094488189
        },
        {
          "duration": 0.023255813953483084,
          "durationTicks": 2,
          "midi": 44,
          "name": "G#2",
          "ticks": 12973,
          "time": 150.84883720930233,
          "velocity": 0.2755905511811024
        },
        {
          "duration": 0.2906976744185954,
          "durationTicks": 25,
          "midi": 51,
          "name": "D#3",
          "ticks": 12974,
          "time": 150.86046511627907,
          "velocity": 0.2204724409448819
        },
        {
          "duration": 0.17441860465117998,
          "durationTicks": 15,
          "midi": 43,
          "name": "G2",
          "ticks": 12980,
          "time": 150.93023255813952,
          "velocity": 0.2047244094488189
        },
        {
          "duration": 0.22093023255814614,
          "durationTicks": 19,
          "midi": 55,
          "name": "G3",
          "ticks": 12998,
          "time": 151.13953488372093,
          "velocity": 0.36220472440944884
        },
        {
          "duration": 0.19767441860466306,
          "durationTicks": 17,
          "midi": 43,
          "name": "G2",
          "ticks": 13002,
          "time": 151.1860465116279,
          "velocity": 0.2125984251968504
        },
        {
          "duration": 0.27906976744185386,
          "durationTicks": 24,
          "midi": 51,
          "name": "D#3",
          "ticks": 13024,
          "time": 151.4418604651163,
          "velocity": 0.2204724409448819
        },
        {
          "duration": 0.023255813953483084,
          "durationTicks": 2,
          "midi": 47,
          "name": "B2",
          "ticks": 13050,
          "time": 151.74418604651163,
          "velocity": 0.3228346456692913
        },
        {
          "duration": 0.25581395348837077,
          "durationTicks": 22,
          "midi": 60,
          "name": "C4",
          "ticks": 13050,
          "time": 151.74418604651163,
          "velocity": 0.14960629921259844
        },
        {
          "duration": 0.2790697674418823,
          "durationTicks": 24,
          "midi": 48,
          "name": "C3",
          "ticks": 13054,
          "time": 151.7906976744186,
          "velocity": 0.29133858267716534
        },
        {
          "duration": 0.034883720930224626,
          "durationTicks": 3,
          "midi": 48,
          "name": "C3",
          "ticks": 13079,
          "time": 152.08139534883722,
          "velocity": 0.2755905511811024
        },
        {
          "duration": 0.03488372093025305,
          "durationTicks": 3,
          "midi": 51,
          "name": "D#3",
          "ticks": 13098,
          "time": 152.30232558139534,
          "velocity": 0.12598425196850394
        },
        {
          "duration": 0.4534883720930054,
          "durationTicks": 39,
          "midi": 60,
          "name": "C4",
          "ticks": 13102,
          "time": 152.34883720930233,
          "velocity": 0.14960629921259844
        },
        {
          "duration": 0.023255813953483084,
          "durationTicks": 2,
          "midi": 49,
          "name": "C#3",
          "ticks": 13106,
          "time": 152.3953488372093,
          "velocity": 0.25984251968503935
        },
        {
          "duration": 0.17441860465115155,
          "durationTicks": 15,
          "midi": 48,
          "name": "C3",
          "ticks": 13112,
          "time": 152.46511627906978,
          "velocity": 0.25984251968503935
        },
        {
          "duration": 0.023255813953483084,
          "durationTicks": 2,
          "midi": 50,
          "name": "D3",
          "ticks": 13137,
          "time": 152.75581395348837,
          "velocity": 0.2677165354330709
        },
        {
          "duration": 0.023255813953483084,
          "durationTicks": 2,
          "midi": 50,
          "name": "D3",
          "ticks": 13144,
          "time": 152.8372093023256,
          "velocity": 0.2677165354330709
        },
        {
          "duration": 0.03488372093025305,
          "durationTicks": 3,
          "midi": 51,
          "name": "D#3",
          "ticks": 13151,
          "time": 152.91860465116278,
          "velocity": 0.2283464566929134
        },
        {
          "duration": 0.2906976744185954,
          "durationTicks": 25,
          "midi": 60,
          "name": "C4",
          "ticks": 13155,
          "time": 152.96511627906978,
          "velocity": 0.11811023622047244
        },
        {
          "duration": 0.023255813953483084,
          "durationTicks": 2,
          "midi": 48,
          "name": "C3",
          "ticks": 13157,
          "time": 152.98837209302326,
          "velocity": 0.25196850393700787
        },
        {
          "duration": 0.023255813953483084,
          "durationTicks": 2,
          "midi": 51,
          "name": "D#3",
          "ticks": 13158,
          "time": 153,
          "velocity": 0.2283464566929134
        },
        {
          "duration": 0.023255813953483084,
          "durationTicks": 2,
          "midi": 48,
          "name": "C3",
          "ticks": 13160,
          "time": 153.02325581395348,
          "velocity": 0.28346456692913385
        },
        {
          "duration": 0.023255813953483084,
          "durationTicks": 2,
          "midi": 48,
          "name": "C3",
          "ticks": 13170,
          "time": 153.13953488372093,
          "velocity": 0.25984251968503935
        },
        {
          "duration": 0.06976744186044925,
          "durationTicks": 6,
          "midi": 48,
          "name": "C3",
          "ticks": 13175,
          "time": 153.19767441860466,
          "velocity": 0.2125984251968504
        },
        {
          "duration": 0.023255813953483084,
          "durationTicks": 2,
          "midi": 51,
          "name": "D#3",
          "ticks": 13185,
          "time": 153.3139534883721,
          "velocity": 0.2677165354330709
        },
        {
          "duration": 0.023255813953483084,
          "durationTicks": 2,
          "midi": 50,
          "name": "D3",
          "ticks": 13190,
          "time": 153.37209302325581,
          "velocity": 0.28346456692913385
        },
        {
          "duration": 0.023255813953483084,
          "durationTicks": 2,
          "midi": 51,
          "name": "D#3",
          "ticks": 13192,
          "time": 153.3953488372093,
          "velocity": 0.2755905511811024
        },
        {
          "duration": 0.023255813953483084,
          "durationTicks": 2,
          "midi": 50,
          "name": "D3",
          "ticks": 13197,
          "time": 153.45348837209303,
          "velocity": 0.2755905511811024
        },
        {
          "duration": 0.023255813953483084,
          "durationTicks": 2,
          "midi": 50,
          "name": "D3",
          "ticks": 13200,
          "time": 153.48837209302326,
          "velocity": 0.2677165354330709
        },
        {
          "duration": 0.03488372093025305,
          "durationTicks": 3,
          "midi": 51,
          "name": "D#3",
          "ticks": 13204,
          "time": 153.53488372093022,
          "velocity": 0.25984251968503935
        },
        {
          "duration": 0.22093023255811772,
          "durationTicks": 19,
          "midi": 60,
          "name": "C4",
          "ticks": 13207,
          "time": 153.56976744186048,
          "velocity": 0.14173228346456693
        },
        {
          "duration": 0.04651162790696617,
          "durationTicks": 4,
          "midi": 48,
          "name": "C3",
          "ticks": 13211,
          "time": 153.61627906976744,
          "velocity": 0.2992125984251969
        },
        {
          "duration": 0.023255813953483084,
          "durationTicks": 2,
          "midi": 51,
          "name": "D#3",
          "ticks": 13218,
          "time": 153.69767441860466,
          "velocity": 0.2440944881889764
        },
        {
          "duration": 0.04651162790699459,
          "durationTicks": 4,
          "midi": 46,
          "name": "A#2",
          "ticks": 13227,
          "time": 153.80232558139534,
          "velocity": 0.18110236220472442
        },
        {
          "duration": 0.27906976744185386,
          "durationTicks": 24,
          "midi": 51,
          "name": "D#3",
          "ticks": 13233,
          "time": 153.87209302325581,
          "velocity": 0.25984251968503935
        },
        {
          "duration": 0.08139534883721922,
          "durationTicks": 7,
          "midi": 56,
          "name": "G#3",
          "ticks": 13258,
          "time": 154.1627906976744,
          "velocity": 0.4094488188976378
        },
        {
          "duration": 0.023255813953511506,
          "durationTicks": 2,
          "midi": 45,
          "name": "A2",
          "ticks": 13259,
          "time": 154.17441860465115,
          "velocity": 0.30708661417322836
        },
        {
          "duration": 0.2674418604651123,
          "durationTicks": 23,
          "midi": 44,
          "name": "G#2",
          "ticks": 13261,
          "time": 154.19767441860466,
          "velocity": 0.2992125984251969
        },
        {
          "duration": 0.04651162790696617,
          "durationTicks": 4,
          "midi": 51,
          "name": "D#3",
          "ticks": 13266,
          "time": 154.25581395348837,
          "velocity": 0.13385826771653545
        },
        {
          "duration": 0.034883720930224626,
          "durationTicks": 3,
          "midi": 51,
          "name": "D#3",
          "ticks": 13286,
          "time": 154.48837209302326,
          "velocity": 0.14960629921259844
        },
        {
          "duration": 0.2325581395348877,
          "durationTicks": 20,
          "midi": 44,
          "name": "G#2",
          "ticks": 13287,
          "time": 154.5,
          "velocity": 0.25984251968503935
        },
        {
          "duration": 0.22093023255811772,
          "durationTicks": 19,
          "midi": 51,
          "name": "D#3",
          "ticks": 13293,
          "time": 154.56976744186048,
          "velocity": 0.2204724409448819
        },
        {
          "duration": 0.12790697674418539,
          "durationTicks": 11,
          "midi": 56,
          "name": "G#3",
          "ticks": 13311,
          "time": 154.77906976744185,
          "velocity": 0.3543307086614173
        },
        {
          "duration": 0.2790697674418823,
          "durationTicks": 24,
          "midi": 44,
          "name": "G#2",
          "ticks": 13312,
          "time": 154.7906976744186,
          "velocity": 0.25984251968503935
        },
        {
          "duration": 0.2674418604651123,
          "durationTicks": 23,
          "midi": 44,
          "name": "G#2",
          "ticks": 13337,
          "time": 155.08139534883722,
          "velocity": 0.2440944881889764
        },
        {
          "duration": 0.3139534883720785,
          "durationTicks": 27,
          "midi": 51,
          "name": "D#3",
          "ticks": 13338,
          "time": 155.09302325581396,
          "velocity": 0.1889763779527559
        },
        {
          "duration": 0.04651162790696617,
          "durationTicks": 4,
          "midi": 58,
          "name": "A#3",
          "ticks": 13338,
          "time": 155.09302325581396,
          "velocity": 0.15748031496062992
        },
        {
          "duration": 0.2093023255814046,
          "durationTicks": 18,
          "midi": 58,
          "name": "A#3",
          "ticks": 13343,
          "time": 155.15116279069767,
          "velocity": 0.13385826771653545
        },
        {
          "duration": 0.08139534883721922,
          "durationTicks": 7,
          "midi": 56,
          "name": "G#3",
          "ticks": 13364,
          "time": 155.3953488372093,
          "velocity": 0.36220472440944884
        },
        {
          "duration": 0.2674418604651123,
          "durationTicks": 23,
          "midi": 44,
          "name": "G#2",
          "ticks": 13365,
          "time": 155.40697674418604,
          "velocity": 0.28346456692913385
        },
        {
          "duration": 0.034883720930224626,
          "durationTicks": 3,
          "midi": 62,
          "name": "D4",
          "ticks": 13369,
          "time": 155.45348837209303,
          "velocity": 0.09448818897637795
        },
        {
          "duration": 0.03488372093025305,
          "durationTicks": 3,
          "midi": 62,
          "name": "D4",
          "ticks": 13387,
          "time": 155.6627906976744,
          "velocity": 0.11023622047244094
        },
        {
          "duration": 0.04651162790699459,
          "durationTicks": 4,
          "midi": 51,
          "name": "D#3",
          "ticks": 13389,
          "time": 155.6860465116279,
          "velocity": 0.13385826771653545
        },
        {
          "duration": 0.25581395348837077,
          "durationTicks": 22,
          "midi": 44,
          "name": "G#2",
          "ticks": 13391,
          "time": 155.7093023255814,
          "velocity": 0.2283464566929134
        },
        {
          "duration": 0.034883720930224626,
          "durationTicks": 3,
          "midi": 62,
          "name": "D4",
          "ticks": 13392,
          "time": 155.72093023255815,
          "velocity": 0.09448818897637795
        },
        {
          "duration": 0.08139534883721922,
          "durationTicks": 7,
          "midi": 51,
          "name": "D#3",
          "ticks": 13396,
          "time": 155.7674418604651,
          "velocity": 0.14173228346456693
        },
        {
          "duration": 0.20930232558137618,
          "durationTicks": 18,
          "midi": 62,
          "name": "D4",
          "ticks": 13403,
          "time": 155.84883720930233,
          "velocity": 0.12598425196850394
        },
        {
          "duration": 0.12790697674418539,
          "durationTicks": 11,
          "midi": 51,
          "name": "D#3",
          "ticks": 13404,
          "time": 155.86046511627907,
          "velocity": 0.1968503937007874
        },
        {
          "duration": 0.12790697674418539,
          "durationTicks": 11,
          "midi": 56,
          "name": "G#3",
          "ticks": 13416,
          "time": 156,
          "velocity": 0.3858267716535433
        },
        {
          "duration": 0.2325581395348877,
          "durationTicks": 20,
          "midi": 44,
          "name": "G#2",
          "ticks": 13417,
          "time": 156.01162790697674,
          "velocity": 0.2992125984251969
        },
        {
          "duration": 0.03488372093025305,
          "durationTicks": 3,
          "midi": 45,
          "name": "A2",
          "ticks": 13441,
          "time": 156.2906976744186,
          "velocity": 0.14173228346456693
        },
        {
          "duration": 0.30232558139536536,
          "durationTicks": 26,
          "midi": 51,
          "name": "D#3",
          "ticks": 13442,
          "time": 156.30232558139534,
          "velocity": 0.2047244094488189
        },
        {
          "duration": 0.034883720930224626,
          "durationTicks": 3,
          "midi": 45,
          "name": "A2",
          "ticks": 13467,
          "time": 156.59302325581396,
          "velocity": 0.3228346456692913
        },
        {
          "duration": 0.2325581395348877,
          "durationTicks": 20,
          "midi": 58,
          "name": "A#3",
          "ticks": 13469,
          "time": 156.61627906976744,
          "velocity": 0.15748031496062992
        },
        {
          "duration": 0.1046511627907023,
          "durationTicks": 9,
          "midi": 46,
          "name": "A#2",
          "ticks": 13470,
          "time": 156.62790697674419,
          "velocity": 0.3464566929133858
        },
        {
          "duration": 0.45348837209303383,
          "durationTicks": 39,
          "midi": 46,
          "name": "A#2",
          "ticks": 13480,
          "time": 156.74418604651163,
          "velocity": 0.2755905511811024
        },
        {
          "duration": 0.2906976744186238,
          "durationTicks": 25,
          "midi": 53,
          "name": "F3",
          "ticks": 13495,
          "time": 156.91860465116278,
          "velocity": 0.29133858267716534
        },
        {
          "duration": 0.023255813953483084,
          "durationTicks": 2,
          "midi": 45,
          "name": "A2",
          "ticks": 13522,
          "time": 157.2325581395349,
          "velocity": 0.33070866141732286
        },
        {
          "duration": 0.2093023255814046,
          "durationTicks": 18,
          "midi": 53,
          "name": "F3",
          "ticks": 13523,
          "time": 157.24418604651163,
          "velocity": 0.1732283464566929
        },
        {
          "duration": 0.24418604651162923,
          "durationTicks": 21,
          "midi": 46,
          "name": "A#2",
          "ticks": 13524,
          "time": 157.25581395348837,
          "velocity": 0.3543307086614173
        },
        {
          "duration": 0.023255813953483084,
          "durationTicks": 2,
          "midi": 54,
          "name": "F#3",
          "ticks": 13544,
          "time": 157.48837209302326,
          "velocity": 0.29133858267716534
        },
        {
          "duration": 0.2906976744185954,
          "durationTicks": 25,
          "midi": 46,
          "name": "A#2",
          "ticks": 13546,
          "time": 157.51162790697674,
          "velocity": 0.2677165354330709
        },
        {
          "duration": 0.12790697674418539,
          "durationTicks": 11,
          "midi": 53,
          "name": "F3",
          "ticks": 13547,
          "time": 157.52325581395348,
          "velocity": 0.2440944881889764
        },
        {
          "duration": 0.11627906976744384,
          "durationTicks": 10,
          "midi": 58,
          "name": "A#3",
          "ticks": 13547,
          "time": 157.52325581395348,
          "velocity": 0.2677165354330709
        },
        {
          "duration": 0.30232558139536536,
          "durationTicks": 26,
          "midi": 55,
          "name": "G3",
          "ticks": 13571,
          "time": 157.80232558139534,
          "velocity": 0.3858267716535433
        },
        {
          "duration": 0.04651162790696617,
          "durationTicks": 4,
          "midi": 43,
          "name": "G2",
          "ticks": 13576,
          "time": 157.86046511627907,
          "velocity": 0.18110236220472442
        },
        {
          "duration": 0.04651162790696617,
          "durationTicks": 4,
          "midi": 43,
          "name": "G2",
          "ticks": 13584,
          "time": 157.95348837209303,
          "velocity": 0.1732283464566929
        },
        {
          "duration": 0.08139534883721922,
          "durationTicks": 7,
          "midi": 43,
          "name": "G2",
          "ticks": 13589,
          "time": 158.01162790697674,
          "velocity": 0.2047244094488189
        },
        {
          "duration": 0.09302325581393234,
          "durationTicks": 8,
          "midi": 62,
          "name": "D4",
          "ticks": 13595,
          "time": 158.08139534883722,
          "velocity": 0.11811023622047244
        },
        {
          "duration": 0.04651162790696617,
          "durationTicks": 4,
          "midi": 55,
          "name": "G3",
          "ticks": 13598,
          "time": 158.11627906976744,
          "velocity": 0.11023622047244094
        },
        {
          "duration": 0.034883720930224626,
          "durationTicks": 3,
          "midi": 51,
          "name": "D#3",
          "ticks": 13601,
          "time": 158.15116279069767,
          "velocity": 0.14173228346456693
        },
        {
          "duration": 0.03488372093025305,
          "durationTicks": 3,
          "midi": 43,
          "name": "G2",
          "ticks": 13604,
          "time": 158.1860465116279,
          "velocity": 0.1889763779527559
        },
        {
          "duration": 0.04651162790696617,
          "durationTicks": 4,
          "midi": 51,
          "name": "D#3",
          "ticks": 13605,
          "time": 158.19767441860466,
          "velocity": 0.14173228346456693
        },
        {
          "duration": 0.034883720930224626,
          "durationTicks": 3,
          "midi": 44,
          "name": "G#2",
          "ticks": 13610,
          "time": 158.25581395348837,
          "velocity": 0.2125984251968504
        },
        {
          "duration": 0.12790697674418539,
          "durationTicks": 11,
          "midi": 51,
          "name": "D#3",
          "ticks": 13610,
          "time": 158.25581395348837,
          "velocity": 0.13385826771653545
        },
        {
          "duration": 0.4767441860465169,
          "durationTicks": 41,
          "midi": 44,
          "name": "G#2",
          "ticks": 13623,
          "time": 158.40697674418604,
          "velocity": 0.2992125984251969
        },
        {
          "duration": 0.2325581395348877,
          "durationTicks": 20,
          "midi": 56,
          "name": "G#3",
          "ticks": 13623,
          "time": 158.40697674418604,
          "velocity": 0.4015748031496063
        },
        {
          "duration": 0.034883720930224626,
          "durationTicks": 3,
          "midi": 52,
          "name": "E3",
          "ticks": 13650,
          "time": 158.72093023255815,
          "velocity": 0.07874015748031496
        },
        {
          "duration": 0.023255813953483084,
          "durationTicks": 2,
          "midi": 57,
          "name": "A3",
          "ticks": 13673,
          "time": 158.98837209302326,
          "velocity": 0.28346456692913385
        },
        {
          "duration": 0.034883720930224626,
          "durationTicks": 3,
          "midi": 45,
          "name": "A2",
          "ticks": 13674,
          "time": 159,
          "velocity": 0.33070866141732286
        },
        {
          "duration": 0.5465116279069662,
          "durationTicks": 47,
          "midi": 58,
          "name": "A#3",
          "ticks": 13675,
          "time": 159.01162790697674,
          "velocity": 0.2992125984251969
        },
        {
          "duration": 0.2674418604651123,
          "durationTicks": 23,
          "midi": 46,
          "name": "A#2",
          "ticks": 13677,
          "time": 159.03488372093022,
          "velocity": 0.33858267716535434
        },
        {
          "duration": 0.2674418604651123,
          "durationTicks": 23,
          "midi": 46,
          "name": "A#2",
          "ticks": 13701,
          "time": 159.3139534883721,
          "velocity": 0.25984251968503935
        },
        {
          "duration": 0.30232558139533694,
          "durationTicks": 26,
          "midi": 53,
          "name": "F3",
          "ticks": 13701,
          "time": 159.3139534883721,
          "velocity": 0.2125984251968504
        },
        {
          "duration": 0.2325581395348877,
          "durationTicks": 20,
          "midi": 53,
          "name": "F3",
          "ticks": 13728,
          "time": 159.62790697674419,
          "velocity": 0.14173228346456693
        },
        {
          "duration": 0.04651162790696617,
          "durationTicks": 4,
          "midi": 58,
          "name": "A#3",
          "ticks": 13728,
          "time": 159.62790697674419,
          "velocity": 0.07874015748031496
        },
        {
          "duration": 0.5465116279069662,
          "durationTicks": 47,
          "midi": 46,
          "name": "A#2",
          "ticks": 13729,
          "time": 159.63953488372093,
          "velocity": 0.3228346456692913
        },
        {
          "duration": 0.023255813953483084,
          "durationTicks": 2,
          "midi": 56,
          "name": "G#3",
          "ticks": 13752,
          "time": 159.90697674418604,
          "velocity": 0.33858267716535434
        },
        {
          "duration": 0.25581395348837077,
          "durationTicks": 22,
          "midi": 53,
          "name": "F3",
          "ticks": 13755,
          "time": 159.9418604651163,
          "velocity": 0.18110236220472442
        },
        {
          "duration": 0.3604651162790731,
          "durationTicks": 31,
          "midi": 62,
          "name": "D4",
          "ticks": 13779,
          "time": 160.22093023255815,
          "velocity": 0.07874015748031496
        },
        {
          "duration": 0.5581395348837077,
          "durationTicks": 48,
          "midi": 46,
          "name": "A#2",
          "ticks": 13780,
          "time": 160.2325581395349,
          "velocity": 0.33858267716535434
        },
        {
          "duration": 0.13953488372092693,
          "durationTicks": 12,
          "midi": 53,
          "name": "F3",
          "ticks": 13803,
          "time": 160.5,
          "velocity": 0.1968503937007874
        },
        {
          "duration": 0.13953488372095535,
          "durationTicks": 12,
          "midi": 53,
          "name": "F3",
          "ticks": 13818,
          "time": 160.67441860465115,
          "velocity": 0.1968503937007874
        },
        {
          "duration": 0.2674418604651123,
          "durationTicks": 23,
          "midi": 62,
          "name": "D4",
          "ticks": 13822,
          "time": 160.72093023255815,
          "velocity": 0.07874015748031496
        },
        {
          "duration": 0.034883720930224626,
          "durationTicks": 3,
          "midi": 45,
          "name": "A2",
          "ticks": 13830,
          "time": 160.8139534883721,
          "velocity": 0.30708661417322836
        },
        {
          "duration": 0.22093023255811772,
          "durationTicks": 19,
          "midi": 58,
          "name": "A#3",
          "ticks": 13831,
          "time": 160.82558139534885,
          "velocity": 0.2125984251968504
        },
        {
          "duration": 0.2906976744185954,
          "durationTicks": 25,
          "midi": 46,
          "name": "A#2",
          "ticks": 13833,
          "time": 160.84883720930233,
          "velocity": 0.33070866141732286
        },
        {
          "duration": 0.1860465116278931,
          "durationTicks": 16,
          "midi": 53,
          "name": "F3",
          "ticks": 13833,
          "time": 160.84883720930233,
          "velocity": 0.11811023622047244
        },
        {
          "duration": 0.04651162790699459,
          "durationTicks": 4,
          "midi": 46,
          "name": "A#2",
          "ticks": 13859,
          "time": 161.15116279069767,
          "velocity": 0.25196850393700787
        },
        {
          "duration": 0.034883720930224626,
          "durationTicks": 3,
          "midi": 46,
          "name": "A#2",
          "ticks": 13866,
          "time": 161.2325581395349,
          "velocity": 0.2283464566929134
        },
        {
          "duration": 0.10465116279067388,
          "durationTicks": 9,
          "midi": 51,
          "name": "D#3",
          "ticks": 13873,
          "time": 161.3139534883721,
          "velocity": 0.1968503937007874
        },
        {
          "duration": 0.22093023255814614,
          "durationTicks": 19,
          "midi": 60,
          "name": "C4",
          "ticks": 13882,
          "time": 161.41860465116278,
          "velocity": 0.11811023622047244
        },
        {
          "duration": 0.023255813953511506,
          "durationTicks": 2,
          "midi": 47,
          "name": "B2",
          "ticks": 13883,
          "time": 161.43023255813952,
          "velocity": 0.2755905511811024
        },
        {
          "duration": 0.023255813953483084,
          "durationTicks": 2,
          "midi": 48,
          "name": "C3",
          "ticks": 13888,
          "time": 161.48837209302326,
          "velocity": 0.29133858267716534
        },
        {
          "duration": 0.023255813953483084,
          "durationTicks": 2,
          "midi": 48,
          "name": "C3",
          "ticks": 13895,
          "time": 161.56976744186048,
          "velocity": 0.2440944881889764
        },
        {
          "duration": 0.034883720930224626,
          "durationTicks": 3,
          "midi": 48,
          "name": "C3",
          "ticks": 13900,
          "time": 161.62790697674419,
          "velocity": 0.2204724409448819
        },
        {
          "duration": 0.023255813953483084,
          "durationTicks": 2,
          "midi": 57,
          "name": "A3",
          "ticks": 13908,
          "time": 161.72093023255815,
          "velocity": 0.3543307086614173
        },
        {
          "duration": 0.8720930232558146,
          "durationTicks": 75,
          "midi": 58,
          "name": "A#3",
          "ticks": 13910,
          "time": 161.74418604651163,
          "velocity": 0.25984251968503935
        },
        {
          "duration": 0.04651162790699459,
          "durationTicks": 4,
          "midi": 51,
          "name": "D#3",
          "ticks": 13912,
          "time": 161.7674418604651,
          "velocity": 0.1889763779527559
        },
        {
          "duration": 0.06976744186044925,
          "durationTicks": 6,
          "midi": 51,
          "name": "D#3",
          "ticks": 13917,
          "time": 161.82558139534885,
          "velocity": 0.1889763779527559
        },
        {
          "duration": 0.1046511627907023,
          "durationTicks": 9,
          "midi": 51,
          "name": "D#3",
          "ticks": 13924,
          "time": 161.90697674418604,
          "velocity": 0.18110236220472442
        },
        {
          "duration": 0.05813953488373613,
          "durationTicks": 5,
          "midi": 48,
          "name": "C3",
          "ticks": 13936,
          "time": 162.04651162790697,
          "velocity": 0.30708661417322836
        },
        {
          "duration": 0.04651162790699459,
          "durationTicks": 4,
          "midi": 48,
          "name": "C3",
          "ticks": 13948,
          "time": 162.1860465116279,
          "velocity": 0.2440944881889764
        },
        {
          "duration": 0.08139534883721922,
          "durationTicks": 7,
          "midi": 48,
          "name": "C3",
          "ticks": 13953,
          "time": 162.24418604651163,
          "velocity": 0.2440944881889764
        },
        {
          "duration": 0.023255813953483084,
          "durationTicks": 2,
          "midi": 50,
          "name": "D3",
          "ticks": 13965,
          "time": 162.38372093023256,
          "velocity": 0.25196850393700787
        },
        {
          "duration": 0.023255813953483084,
          "durationTicks": 2,
          "midi": 48,
          "name": "C3",
          "ticks": 13967,
          "time": 162.40697674418604,
          "velocity": 0.23622047244094488
        },
        {
          "duration": 0.023255813953483084,
          "durationTicks": 2,
          "midi": 51,
          "name": "D#3",
          "ticks": 13974,
          "time": 162.48837209302326,
          "velocity": 0.2283464566929134
        },
        {
          "duration": 0.034883720930224626,
          "durationTicks": 3,
          "midi": 60,
          "name": "C4",
          "ticks": 13986,
          "time": 162.62790697674419,
          "velocity": 0.1732283464566929
        },
        {
          "duration": 0.023255813953511506,
          "durationTicks": 2,
          "midi": 49,
          "name": "C#3",
          "ticks": 13991,
          "time": 162.6860465116279,
          "velocity": 0.2755905511811024
        },
        {
          "duration": 0.023255813953483084,
          "durationTicks": 2,
          "midi": 47,
          "name": "B2",
          "ticks": 13993,
          "time": 162.7093023255814,
          "velocity": 0.25196850393700787
        },
        {
          "duration": 0.18604651162792152,
          "durationTicks": 16,
          "midi": 48,
          "name": "C3",
          "ticks": 13998,
          "time": 162.7674418604651,
          "velocity": 0.28346456692913385
        },
        {
          "duration": 0.06976744186047767,
          "durationTicks": 6,
          "midi": 48,
          "name": "C3",
          "ticks": 14022,
          "time": 163.04651162790697,
          "velocity": 0.25984251968503935
        },
        {
          "duration": 0.38372093023255616,
          "durationTicks": 33,
          "midi": 63,
          "name": "D#4",
          "ticks": 14024,
          "time": 163.06976744186048,
          "velocity": 0.14173228346456693
        },
        {
          "duration": 0.04651162790699459,
          "durationTicks": 4,
          "midi": 51,
          "name": "D#3",
          "ticks": 14034,
          "time": 163.1860465116279,
          "velocity": 0.1889763779527559
        },
        {
          "duration": 0.19767441860463464,
          "durationTicks": 17,
          "midi": 60,
          "name": "C4",
          "ticks": 14038,
          "time": 163.2325581395349,
          "velocity": 0.14173228346456693
        },
        {
          "duration": 0.023255813953483084,
          "durationTicks": 2,
          "midi": 47,
          "name": "B2",
          "ticks": 14039,
          "time": 163.24418604651163,
          "velocity": 0.2992125984251969
        },
        {
          "duration": 0.023255813953483084,
          "durationTicks": 2,
          "midi": 49,
          "name": "C#3",
          "ticks": 14041,
          "time": 163.2674418604651,
          "velocity": 0.23622047244094488
        },
        {
          "duration": 0.13953488372095535,
          "durationTicks": 12,
          "midi": 48,
          "name": "C3",
          "ticks": 14044,
          "time": 163.30232558139534,
          "velocity": 0.2755905511811024
        },
        {
          "duration": 0.05813953488370771,
          "durationTicks": 5,
          "midi": 46,
          "name": "A#2",
          "ticks": 14057,
          "time": 163.45348837209303,
          "velocity": 0.1889763779527559
        },
        {
          "duration": 0.09302325581396076,
          "durationTicks": 8,
          "midi": 51,
          "name": "D#3",
          "ticks": 14062,
          "time": 163.51162790697674,
          "velocity": 0.2125984251968504
        },
        {
          "duration": 0.034883720930224626,
          "durationTicks": 3,
          "midi": 46,
          "name": "A#2",
          "ticks": 14071,
          "time": 163.61627906976744,
          "velocity": 0.23622047244094488
        },
        {
          "duration": 0.1511627906976969,
          "durationTicks": 13,
          "midi": 51,
          "name": "D#3",
          "ticks": 14075,
          "time": 163.6627906976744,
          "velocity": 0.1968503937007874
        },
        {
          "duration": 0.023255813953483084,
          "durationTicks": 2,
          "midi": 55,
          "name": "G3",
          "ticks": 14089,
          "time": 163.82558139534885,
          "velocity": 0.25984251968503935
        },
        {
          "duration": 0.023255813953483084,
          "durationTicks": 2,
          "midi": 45,
          "name": "A2",
          "ticks": 14090,
          "time": 163.8372093023256,
          "velocity": 0.3228346456692913
        },
        {
          "duration": 0.08139534883721922,
          "durationTicks": 7,
          "midi": 44,
          "name": "G#2",
          "ticks": 14092,
          "time": 163.86046511627907,
          "velocity": 0.30708661417322836
        },
        {
          "duration": 0.034883720930224626,
          "durationTicks": 3,
          "midi": 56,
          "name": "G#3",
          "ticks": 14093,
          "time": 163.87209302325581,
          "velocity": 0.3543307086614173
        },
        {
          "duration": 0.04651162790699459,
          "durationTicks": 4,
          "midi": 51,
          "name": "D#3",
          "ticks": 14096,
          "time": 163.90697674418604,
          "velocity": 0.11023622047244094
        },
        {
          "duration": 0.17441860465115155,
          "durationTicks": 15,
          "midi": 44,
          "name": "G#2",
          "ticks": 14100,
          "time": 163.95348837209303,
          "velocity": 0.25196850393700787
        },
        {
          "duration": 0.023255813953483084,
          "durationTicks": 2,
          "midi": 57,
          "name": "A3",
          "ticks": 14102,
          "time": 163.97674418604652,
          "velocity": 0.2283464566929134
        },
        {
          "duration": 0.08139534883721922,
          "durationTicks": 7,
          "midi": 58,
          "name": "A#3",
          "ticks": 14107,
          "time": 164.03488372093022,
          "velocity": 0.2047244094488189
        },
        {
          "duration": 0.30232558139533694,
          "durationTicks": 26,
          "midi": 58,
          "name": "A#3",
          "ticks": 14115,
          "time": 164.12790697674419,
          "velocity": 0.1732283464566929
        },
        {
          "duration": 0.24418604651162923,
          "durationTicks": 21,
          "midi": 44,
          "name": "G#2",
          "ticks": 14116,
          "time": 164.13953488372093,
          "velocity": 0.23622047244094488
        },
        {
          "duration": 0.034883720930224626,
          "durationTicks": 3,
          "midi": 51,
          "name": "D#3",
          "ticks": 14116,
          "time": 164.13953488372093,
          "velocity": 0.16535433070866143
        },
        {
          "duration": 0.2558139534883992,
          "durationTicks": 22,
          "midi": 51,
          "name": "D#3",
          "ticks": 14120,
          "time": 164.1860465116279,
          "velocity": 0.16535433070866143
        },
        {
          "duration": 0.023255813953511506,
          "durationTicks": 2,
          "midi": 55,
          "name": "G3",
          "ticks": 14141,
          "time": 164.43023255813952,
          "velocity": 0.33070866141732286
        },
        {
          "duration": 0.04651162790696617,
          "durationTicks": 4,
          "midi": 45,
          "name": "A2",
          "ticks": 14142,
          "time": 164.4418604651163,
          "velocity": 0.30708661417322836
        },
        {
          "duration": 0.04651162790696617,
          "durationTicks": 4,
          "midi": 63,
          "name": "D#4",
          "ticks": 14142,
          "time": 164.4418604651163,
          "velocity": 0.09448818897637795
        },
        {
          "duration": 0.0813953488371908,
          "durationTicks": 7,
          "midi": 56,
          "name": "G#3",
          "ticks": 14143,
          "time": 164.45348837209303,
          "velocity": 0.36220472440944884
        },
        {
          "duration": 0.24418604651162923,
          "durationTicks": 21,
          "midi": 44,
          "name": "G#2",
          "ticks": 14146,
          "time": 164.48837209302326,
          "velocity": 0.2755905511811024
        },
        {
          "duration": 0.08139534883721922,
          "durationTicks": 7,
          "midi": 51,
          "name": "D#3",
          "ticks": 14148,
          "time": 164.51162790697674,
          "velocity": 0.11023622047244094
        },
        {
          "duration": 0.023255813953483084,
          "durationTicks": 2,
          "midi": 45,
          "name": "A2",
          "ticks": 14167,
          "time": 164.7325581395349,
          "velocity": 0.28346456692913385
        },
        {
          "duration": 0.2674418604651123,
          "durationTicks": 23,
          "midi": 58,
          "name": "A#3",
          "ticks": 14168,
          "time": 164.74418604651163,
          "velocity": 0.2125984251968504
        },
        {
          "duration": 0.034883720930224626,
          "durationTicks": 3,
          "midi": 44,
          "name": "G#2",
          "ticks": 14169,
          "time": 164.75581395348837,
          "velocity": 0.2283464566929134
        },
        {
          "duration": 0.17441860465117998,
          "durationTicks": 15,
          "midi": 44,
          "name": "G#2",
          "ticks": 14173,
          "time": 164.80232558139534,
          "velocity": 0.2204724409448819
        },
        {
          "duration": 0.04651162790696617,
          "durationTicks": 4,
          "midi": 45,
          "name": "A2",
          "ticks": 14188,
          "time": 164.97674418604652,
          "velocity": 0.1968503937007874
        },
        {
          "duration": 0.7093023255814046,
          "durationTicks": 61,
          "midi": 44,
          "name": "G#2",
          "ticks": 14192,
          "time": 165.02325581395348,
          "velocity": 0.28346456692913385
        },
        {
          "duration": 0.1046511627907023,
          "durationTicks": 9,
          "midi": 56,
          "name": "G#3",
          "ticks": 14192,
          "time": 165.02325581395348,
          "velocity": 0.3779527559055118
        },
        {
          "duration": 0.034883720930224626,
          "durationTicks": 3,
          "midi": 63,
          "name": "D#4",
          "ticks": 14192,
          "time": 165.02325581395348,
          "velocity": 0.08661417322834646
        },
        {
          "duration": 0.13953488372092693,
          "durationTicks": 12,
          "midi": 55,
          "name": "G3",
          "ticks": 14228,
          "time": 165.4418604651163,
          "velocity": 0.36220472440944884
        },
        {
          "duration": 0.11627906976744384,
          "durationTicks": 10,
          "midi": 56,
          "name": "G#3",
          "ticks": 14242,
          "time": 165.6046511627907,
          "velocity": 0.4015748031496063
        },
        {
          "duration": 0.25581395348837077,
          "durationTicks": 22,
          "midi": 53,
          "name": "F3",
          "ticks": 14269,
          "time": 165.91860465116278,
          "velocity": 0.25984251968503935
        },
        {
          "duration": 0.2906976744186238,
          "durationTicks": 25,
          "midi": 55,
          "name": "G3",
          "ticks": 14292,
          "time": 166.1860465116279,
          "velocity": 0.4251968503937008
        },
        {
          "duration": 0.2674418604651123,
          "durationTicks": 23,
          "midi": 43,
          "name": "G2",
          "ticks": 14295,
          "time": 166.22093023255815,
          "velocity": 0.2204724409448819
        },
        {
          "duration": 0.034883720930224626,
          "durationTicks": 3,
          "midi": 62,
          "name": "D4",
          "ticks": 14296,
          "time": 166.2325581395349,
          "velocity": 0.08661417322834646
        },
        {
          "duration": 0.034883720930224626,
          "durationTicks": 3,
          "midi": 62,
          "name": "D4",
          "ticks": 14316,
          "time": 166.46511627906978,
          "velocity": 0.07086614173228346
        },
        {
          "duration": 0.023255813953483084,
          "durationTicks": 2,
          "midi": 57,
          "name": "A3",
          "ticks": 14318,
          "time": 166.48837209302326,
          "velocity": 0.2677165354330709
        },
        {
          "duration": 0.023255813953483084,
          "durationTicks": 2,
          "midi": 58,
          "name": "A#3",
          "ticks": 14320,
          "time": 166.51162790697674,
          "velocity": 0.2283464566929134
        },
        {
          "duration": 0.034883720930224626,
          "durationTicks": 3,
          "midi": 44,
          "name": "G#2",
          "ticks": 14321,
          "time": 166.52325581395348,
          "velocity": 0.2283464566929134
        },
        {
          "duration": 0.023255813953483084,
          "durationTicks": 2,
          "midi": 54,
          "name": "F#3",
          "ticks": 14321,
          "time": 166.52325581395348,
          "velocity": 0.2755905511811024
        },
        {
          "duration": 0.25581395348837077,
          "durationTicks": 22,
          "midi": 58,
          "name": "A#3",
          "ticks": 14323,
          "time": 166.54651162790697,
          "velocity": 0.2440944881889764
        },
        {
          "duration": 0.2093023255814046,
          "durationTicks": 18,
          "midi": 43,
          "name": "G2",
          "ticks": 14324,
          "time": 166.5581395348837,
          "velocity": 0.2047244094488189
        },
        {
          "duration": 0.034883720930224626,
          "durationTicks": 3,
          "midi": 53,
          "name": "F3",
          "ticks": 14325,
          "time": 166.56976744186048,
          "velocity": 0.23622047244094488
        },
        {
          "duration": 0.1860465116278931,
          "durationTicks": 16,
          "midi": 53,
          "name": "F3",
          "ticks": 14329,
          "time": 166.61627906976744,
          "velocity": 0.2440944881889764
        },
        {
          "duration": 0.15116279069766847,
          "durationTicks": 13,
          "midi": 55,
          "name": "G3",
          "ticks": 14346,
          "time": 166.8139534883721,
          "velocity": 0.3858267716535433
        },
        {
          "duration": 0.034883720930224626,
          "durationTicks": 3,
          "midi": 44,
          "name": "G#2",
          "ticks": 14347,
          "time": 166.82558139534885,
          "velocity": 0.2047244094488189
        },
        {
          "duration": 0.034883720930224626,
          "durationTicks": 3,
          "midi": 63,
          "name": "D#4",
          "ticks": 14348,
          "time": 166.8372093023256,
          "velocity": 0.11023622047244094
        },
        {
          "duration": 0.2674418604651123,
          "durationTicks": 23,
          "midi": 43,
          "name": "G2",
          "ticks": 14350,
          "time": 166.86046511627907,
          "velocity": 0.2125984251968504
        },
        {
          "duration": 0.034883720930224626,
          "durationTicks": 3,
          "midi": 63,
          "name": "D#4",
          "ticks": 14353,
          "time": 166.8953488372093,
          "velocity": 0.11023622047244094
        },
        {
          "duration": 0.034883720930224626,
          "durationTicks": 3,
          "midi": 55,
          "name": "G3",
          "ticks": 14360,
          "time": 166.97674418604652,
          "velocity": 0.25984251968503935
        },
        {
          "duration": 0.27906976744185386,
          "durationTicks": 24,
          "midi": 53,
          "name": "F3",
          "ticks": 14373,
          "time": 167.12790697674419,
          "velocity": 0.2992125984251969
        },
        {
          "duration": 0.2325581395348877,
          "durationTicks": 20,
          "midi": 43,
          "name": "G2",
          "ticks": 14374,
          "time": 167.13953488372093,
          "velocity": 0.1968503937007874
        },
        {
          "duration": 0.22093023255814614,
          "durationTicks": 19,
          "midi": 58,
          "name": "A#3",
          "ticks": 14377,
          "time": 167.17441860465115,
          "velocity": 0.18110236220472442
        },
        {
          "duration": 0.15116279069766847,
          "durationTicks": 13,
          "midi": 55,
          "name": "G3",
          "ticks": 14397,
          "time": 167.40697674418604,
          "velocity": 0.3937007874015748
        },
        {
          "duration": 0.43023255813955075,
          "durationTicks": 37,
          "midi": 62,
          "name": "D4",
          "ticks": 14397,
          "time": 167.40697674418604,
          "velocity": 0.14960629921259844
        },
        {
          "duration": 0.03488372093025305,
          "durationTicks": 3,
          "midi": 44,
          "name": "G#2",
          "ticks": 14399,
          "time": 167.43023255813952,
          "velocity": 0.2204724409448819
        },
        {
          "duration": 0.25581395348837077,
          "durationTicks": 22,
          "midi": 43,
          "name": "G2",
          "ticks": 14402,
          "time": 167.46511627906978,
          "velocity": 0.2047244094488189
        },
        {
          "duration": 0.023255813953483084,
          "durationTicks": 2,
          "midi": 55,
          "name": "G3",
          "ticks": 14411,
          "time": 167.56976744186048,
          "velocity": 0.2677165354330709
        },
        {
          "duration": 0.034883720930224626,
          "durationTicks": 3,
          "midi": 55,
          "name": "G3",
          "ticks": 14416,
          "time": 167.62790697674419,
          "velocity": 0.23622047244094488
        },
        {
          "duration": 0.22093023255814614,
          "durationTicks": 19,
          "midi": 43,
          "name": "G2",
          "ticks": 14425,
          "time": 167.7325581395349,
          "velocity": 0.1968503937007874
        },
        {
          "duration": 0.034883720930224626,
          "durationTicks": 3,
          "midi": 53,
          "name": "F3",
          "ticks": 14427,
          "time": 167.75581395348837,
          "velocity": 0.1889763779527559
        },
        {
          "duration": 0.03488372093025305,
          "durationTicks": 3,
          "midi": 53,
          "name": "F3",
          "ticks": 14431,
          "time": 167.80232558139534,
          "velocity": 0.1968503937007874
        },
        {
          "duration": 0.11627906976744384,
          "durationTicks": 10,
          "midi": 53,
          "name": "F3",
          "ticks": 14437,
          "time": 167.87209302325581,
          "velocity": 0.2677165354330709
        },
        {
          "duration": 0.04651162790696617,
          "durationTicks": 4,
          "midi": 58,
          "name": "A#3",
          "ticks": 14437,
          "time": 167.87209302325581,
          "velocity": 0.07874015748031496
        },
        {
          "duration": 0.30232558139536536,
          "durationTicks": 26,
          "midi": 62,
          "name": "D4",
          "ticks": 14441,
          "time": 167.91860465116278,
          "velocity": 0.1732283464566929
        },
        {
          "duration": 0.24418604651162923,
          "durationTicks": 21,
          "midi": 55,
          "name": "G3",
          "ticks": 14447,
          "time": 167.98837209302326,
          "velocity": 0.41732283464566927
        },
        {
          "duration": 0.19767441860466306,
          "durationTicks": 17,
          "midi": 43,
          "name": "G2",
          "ticks": 14451,
          "time": 168.03488372093022,
          "velocity": 0.1968503937007874
        },
        {
          "duration": 0.034883720930224626,
          "durationTicks": 3,
          "midi": 55,
          "name": "G3",
          "ticks": 14470,
          "time": 168.25581395348837,
          "velocity": 0.2204724409448819
        },
        {
          "duration": 0.18604651162792152,
          "durationTicks": 16,
          "midi": 60,
          "name": "C4",
          "ticks": 14472,
          "time": 168.27906976744185,
          "velocity": 0.1732283464566929
        },
        {
          "duration": 0.2674418604651123,
          "durationTicks": 23,
          "midi": 51,
          "name": "D#3",
          "ticks": 14473,
          "time": 168.2906976744186,
          "velocity": 0.14960629921259844
        },
        {
          "duration": 0.034883720930224626,
          "durationTicks": 3,
          "midi": 47,
          "name": "B2",
          "ticks": 14498,
          "time": 168.58139534883722,
          "velocity": 0.2992125984251969
        },
        {
          "duration": 0.27906976744185386,
          "durationTicks": 24,
          "midi": 58,
          "name": "A#3",
          "ticks": 14499,
          "time": 168.59302325581396,
          "velocity": 0.30708661417322836
        },
        {
          "duration": 0.1046511627907023,
          "durationTicks": 9,
          "midi": 48,
          "name": "C3",
          "ticks": 14505,
          "time": 168.6627906976744,
          "velocity": 0.25196850393700787
        },
        {
          "duration": 0.2906976744185954,
          "durationTicks": 25,
          "midi": 58,
          "name": "A#3",
          "ticks": 14524,
          "time": 168.88372093023256,
          "velocity": 0.2204724409448819
        },
        {
          "duration": 0.034883720930224626,
          "durationTicks": 3,
          "midi": 51,
          "name": "D#3",
          "ticks": 14546,
          "time": 169.13953488372093,
          "velocity": 0.14960629921259844
        },
        {
          "duration": 0.023255813953511506,
          "durationTicks": 2,
          "midi": 46,
          "name": "A#2",
          "ticks": 14550,
          "time": 169.1860465116279,
          "velocity": 0.31496062992125984
        },
        {
          "duration": 0.5,
          "durationTicks": 43,
          "midi": 63,
          "name": "D#4",
          "ticks": 14550,
          "time": 169.1860465116279,
          "velocity": 0.12598425196850394
        },
        {
          "duration": 0.023255813953483084,
          "durationTicks": 2,
          "midi": 47,
          "name": "B2",
          "ticks": 14552,
          "time": 169.2093023255814,
          "velocity": 0.30708661417322836
        },
        {
          "duration": 0.15116279069766847,
          "durationTicks": 13,
          "midi": 58,
          "name": "A#3",
          "ticks": 14558,
          "time": 169.27906976744185,
          "velocity": 0.13385826771653545
        },
        {
          "duration": 0.04651162790699459,
          "durationTicks": 4,
          "midi": 48,
          "name": "C3",
          "ticks": 14560,
          "time": 169.30232558139534,
          "velocity": 0.23622047244094488
        },
        {
          "duration": 0.04651162790696617,
          "durationTicks": 4,
          "midi": 48,
          "name": "C3",
          "ticks": 14565,
          "time": 169.36046511627907,
          "velocity": 0.2440944881889764
        },
        {
          "duration": 0.05813953488373613,
          "durationTicks": 5,
          "midi": 48,
          "name": "C3",
          "ticks": 14570,
          "time": 169.41860465116278,
          "velocity": 0.2204724409448819
        },
        {
          "duration": 0.30232558139533694,
          "durationTicks": 26,
          "midi": 58,
          "name": "A#3",
          "ticks": 14577,
          "time": 169.5,
          "velocity": 0.28346456692913385
        },
        {
          "duration": 0.023255813953483084,
          "durationTicks": 2,
          "midi": 48,
          "name": "C3",
          "ticks": 14578,
          "time": 169.51162790697674,
          "velocity": 0.25196850393700787
        },
        {
          "duration": 0.023255813953483084,
          "durationTicks": 2,
          "midi": 46,
          "name": "A#2",
          "ticks": 14601,
          "time": 169.77906976744185,
          "velocity": 0.25984251968503935
        },
        {
          "duration": 0.023255813953511506,
          "durationTicks": 2,
          "midi": 47,
          "name": "B2",
          "ticks": 14603,
          "time": 169.80232558139534,
          "velocity": 0.2992125984251969
        },
        {
          "duration": 0.4186046511627808,
          "durationTicks": 36,
          "midi": 58,
          "name": "A#3",
          "ticks": 14604,
          "time": 169.8139534883721,
          "velocity": 0.2204724409448819
        },
        {
          "duration": 0.08139534883721922,
          "durationTicks": 7,
          "midi": 48,
          "name": "C3",
          "ticks": 14609,
          "time": 169.87209302325581,
          "velocity": 0.25984251968503935
        },
        {
          "duration": 0.1046511627907023,
          "durationTicks": 9,
          "midi": 62,
          "name": "D4",
          "ticks": 14610,
          "time": 169.88372093023256,
          "velocity": 0.14173228346456693
        },
        {
          "duration": 0.1046511627907023,
          "durationTicks": 9,
          "midi": 48,
          "name": "C3",
          "ticks": 14621,
          "time": 170.01162790697674,
          "velocity": 0.2755905511811024
        },
        {
          "duration": 0.04651162790696617,
          "durationTicks": 4,
          "midi": 62,
          "name": "D4",
          "ticks": 14621,
          "time": 170.01162790697674,
          "velocity": 0.14173228346456693
        },
        {
          "duration": 0.023255813953483084,
          "durationTicks": 2,
          "midi": 48,
          "name": "C3",
          "ticks": 14631,
          "time": 170.12790697674419,
          "velocity": 0.23622047244094488
        },
        {
          "duration": 0.023255813953483084,
          "durationTicks": 2,
          "midi": 50,
          "name": "D3",
          "ticks": 14637,
          "time": 170.19767441860466,
          "velocity": 0.2283464566929134
        },
        {
          "duration": 0.034883720930224626,
          "durationTicks": 3,
          "midi": 48,
          "name": "C3",
          "ticks": 14640,
          "time": 170.2325581395349,
          "velocity": 0.2440944881889764
        },
        {
          "duration": 0.11627906976744384,
          "durationTicks": 10,
          "midi": 58,
          "name": "A#3",
          "ticks": 14642,
          "time": 170.25581395348837,
          "velocity": 0.11023622047244094
        },
        {
          "duration": 0.023255813953483084,
          "durationTicks": 2,
          "midi": 47,
          "name": "B2",
          "ticks": 14654,
          "time": 170.3953488372093,
          "velocity": 0.30708661417322836
        },
        {
          "duration": 0.05813953488370771,
          "durationTicks": 5,
          "midi": 48,
          "name": "C3",
          "ticks": 14658,
          "time": 170.4418604651163,
          "velocity": 0.28346456692913385
        },
        {
          "duration": 0.05813953488370771,
          "durationTicks": 5,
          "midi": 60,
          "name": "C4",
          "ticks": 14670,
          "time": 170.58139534883722,
          "velocity": 0.07874015748031496
        },
        {
          "duration": 0.0813953488371908,
          "durationTicks": 7,
          "midi": 48,
          "name": "C3",
          "ticks": 14671,
          "time": 170.59302325581396,
          "velocity": 0.23622047244094488
        },
        {
          "duration": 0.023255813953483084,
          "durationTicks": 2,
          "midi": 50,
          "name": "D3",
          "ticks": 14687,
          "time": 170.77906976744185,
          "velocity": 0.2677165354330709
        },
        {
          "duration": 0.1046511627907023,
          "durationTicks": 9,
          "midi": 51,
          "name": "D#3",
          "ticks": 14697,
          "time": 170.8953488372093,
          "velocity": 0.2204724409448819
        },
        {
          "duration": 0.023255813953483084,
          "durationTicks": 2,
          "midi": 57,
          "name": "A3",
          "ticks": 14705,
          "time": 170.98837209302326,
          "velocity": 0.2440944881889764
        },
        {
          "duration": 0.023255813953483084,
          "durationTicks": 2,
          "midi": 45,
          "name": "A2",
          "ticks": 14706,
          "time": 171,
          "velocity": 0.33858267716535434
        },
        {
          "duration": 0.2093023255814046,
          "durationTicks": 18,
          "midi": 58,
          "name": "A#3",
          "ticks": 14707,
          "time": 171.01162790697674,
          "velocity": 0.12598425196850394
        },
        {
          "duration": 0.12790697674418539,
          "durationTicks": 11,
          "midi": 46,
          "name": "A#2",
          "ticks": 14708,
          "time": 171.02325581395348,
          "velocity": 0.3543307086614173
        },
        {
          "duration": 0.40697674418606766,
          "durationTicks": 35,
          "midi": 46,
          "name": "A#2",
          "ticks": 14720,
          "time": 171.1627906976744,
          "velocity": 0.25196850393700787
        },
        {
          "duration": 0.06976744186044925,
          "durationTicks": 6,
          "midi": 55,
          "name": "G3",
          "ticks": 14733,
          "time": 171.3139534883721,
          "velocity": 0.36220472440944884
        },
        {
          "duration": 0.04651162790699459,
          "durationTicks": 4,
          "midi": 55,
          "name": "G3",
          "ticks": 14740,
          "time": 171.3953488372093,
          "velocity": 0.2283464566929134
        },
        {
          "duration": 0.034883720930224626,
          "durationTicks": 3,
          "midi": 45,
          "name": "A2",
          "ticks": 14758,
          "time": 171.6046511627907,
          "velocity": 0.3464566929133858
        },
        {
          "duration": 0.8837209302325562,
          "durationTicks": 76,
          "midi": 63,
          "name": "D#4",
          "ticks": 14758,
          "time": 171.6046511627907,
          "velocity": 0.11811023622047244
        },
        {
          "duration": 0.5465116279069662,
          "durationTicks": 47,
          "midi": 46,
          "name": "A#2",
          "ticks": 14761,
          "time": 171.63953488372093,
          "velocity": 0.36220472440944884
        },
        {
          "duration": 0.27906976744185386,
          "durationTicks": 24,
          "midi": 55,
          "name": "G3",
          "ticks": 14784,
          "time": 171.90697674418604,
          "velocity": 0.36220472440944884
        },
        {
          "duration": 0.023255813953511506,
          "durationTicks": 2,
          "midi": 56,
          "name": "G#3",
          "ticks": 14808,
          "time": 172.1860465116279,
          "velocity": 0.25984251968503935
        },
        {
          "duration": 0.023255813953483084,
          "durationTicks": 2,
          "midi": 45,
          "name": "A2",
          "ticks": 14810,
          "time": 172.2093023255814,
          "velocity": 0.31496062992125984
        },
        {
          "duration": 0.5348837209302246,
          "durationTicks": 46,
          "midi": 46,
          "name": "A#2",
          "ticks": 14812,
          "time": 172.2325581395349,
          "velocity": 0.33070866141732286
        },
        {
          "duration": 0.19767441860466306,
          "durationTicks": 17,
          "midi": 55,
          "name": "G3",
          "ticks": 14836,
          "time": 172.51162790697674,
          "velocity": 0.29133858267716534
        },
        {
          "duration": 0.0813953488371908,
          "durationTicks": 7,
          "midi": 55,
          "name": "G3",
          "ticks": 14854,
          "time": 172.72093023255815,
          "velocity": 0.15748031496062992
        },
        {
          "duration": 0.023255813953483084,
          "durationTicks": 2,
          "midi": 45,
          "name": "A2",
          "ticks": 14862,
          "time": 172.8139534883721,
          "velocity": 0.3228346456692913
        },
        {
          "duration": 0.25581395348837077,
          "durationTicks": 22,
          "midi": 58,
          "name": "A#3",
          "ticks": 14863,
          "time": 172.82558139534885,
          "velocity": 0.15748031496062992
        },
        {
          "duration": 0.32558139534882,
          "durationTicks": 28,
          "midi": 46,
          "name": "A#2",
          "ticks": 14864,
          "time": 172.8372093023256,
          "velocity": 0.3464566929133858
        },
        {
          "duration": 0.034883720930224626,
          "durationTicks": 3,
          "midi": 46,
          "name": "A#2",
          "ticks": 14898,
          "time": 173.2325581395349,
          "velocity": 0.2283464566929134
        },
        {
          "duration": 0.09302325581396076,
          "durationTicks": 8,
          "midi": 56,
          "name": "G#3",
          "ticks": 14911,
          "time": 173.38372093023256,
          "velocity": 0.41732283464566927
        },
        {
          "duration": 0.03488372093025305,
          "durationTicks": 3,
          "midi": 45,
          "name": "A2",
          "ticks": 14913,
          "time": 173.40697674418604,
          "velocity": 0.30708661417322836
        },
        {
          "duration": 0.06976744186044925,
          "durationTicks": 6,
          "midi": 44,
          "name": "G#2",
          "ticks": 14916,
          "time": 173.4418604651163,
          "velocity": 0.25196850393700787
        },
        {
          "duration": 0.034883720930224626,
          "durationTicks": 3,
          "midi": 51,
          "name": "D#3",
          "ticks": 14921,
          "time": 173.5,
          "velocity": 0.11023622047244094
        },
        {
          "duration": 0.034883720930224626,
          "durationTicks": 3,
          "midi": 58,
          "name": "A#3",
          "ticks": 14923,
          "time": 173.52325581395348,
          "velocity": 0.1732283464566929
        },
        {
          "duration": 1.0813953488372192,
          "durationTicks": 93,
          "midi": 44,
          "name": "G#2",
          "ticks": 14924,
          "time": 173.53488372093022,
          "velocity": 0.25984251968503935
        },
        {
          "duration": 0.5930232558139608,
          "durationTicks": 51,
          "midi": 58,
          "name": "A#3",
          "ticks": 14930,
          "time": 173.6046511627907,
          "velocity": 0.16535433070866143
        },
        {
          "duration": 0.04651162790696617,
          "durationTicks": 4,
          "midi": 51,
          "name": "D#3",
          "ticks": 14952,
          "time": 173.86046511627907,
          "velocity": 0.08661417322834646
        },
        {
          "duration": 0.04651162790699459,
          "durationTicks": 4,
          "midi": 51,
          "name": "D#3",
          "ticks": 14957,
          "time": 173.91860465116278,
          "velocity": 0.07874015748031496
        },
        {
          "duration": 0.04651162790699459,
          "durationTicks": 4,
          "midi": 51,
          "name": "D#3",
          "ticks": 14967,
          "time": 174.03488372093022,
          "velocity": 0.07874015748031496
        },
        {
          "duration": 0.6860465116278931,
          "durationTicks": 59,
          "midi": 58,
          "name": "A#3",
          "ticks": 14991,
          "time": 174.3139534883721,
          "velocity": 0.1889763779527559
        },
        {
          "duration": 0.034883720930224626,
          "durationTicks": 3,
          "midi": 51,
          "name": "D#3",
          "ticks": 15016,
          "time": 174.6046511627907,
          "velocity": 0.11023622047244094
        },
        {
          "duration": 0.4302325581395223,
          "durationTicks": 37,
          "midi": 44,
          "name": "G#2",
          "ticks": 15018,
          "time": 174.62790697674419,
          "velocity": 0.1889763779527559
        },
        {
          "duration": 0.34883720930233153,
          "durationTicks": 30,
          "midi": 44,
          "name": "G#2",
          "ticks": 15060,
          "time": 175.11627906976744,
          "velocity": 0.15748031496062992
        },
        {
          "duration": 0.034883720930224626,
          "durationTicks": 3,
          "midi": 45,
          "name": "A2",
          "ticks": 15125,
          "time": 175.87209302325581,
          "velocity": 0.36220472440944884
        },
        {
          "duration": 0.8837209302325562,
          "durationTicks": 76,
          "midi": 46,
          "name": "A#2",
          "ticks": 15128,
          "time": 175.90697674418604,
          "velocity": 0.36220472440944884
        },
        {
          "duration": 0.22093023255814614,
          "durationTicks": 19,
          "midi": 46,
          "name": "A#2",
          "ticks": 15212,
          "time": 176.88372093023256,
          "velocity": 0.08661417322834646
        },
        {
          "duration": 0.04651162790699459,
          "durationTicks": 4,
          "midi": 46,
          "name": "A#2",
          "ticks": 15269,
          "time": 177.54651162790697,
          "velocity": 0.13385826771653545
        },
        {
          "duration": 0.03488372093025305,
          "durationTicks": 3,
          "midi": 57,
          "name": "A3",
          "ticks": 15334,
          "time": 178.30232558139534,
          "velocity": 0.2440944881889764
        },
        {
          "duration": 0.034883720930224626,
          "durationTicks": 3,
          "midi": 47,
          "name": "B2",
          "ticks": 15335,
          "time": 178.3139534883721,
          "velocity": 0.3700787401574803
        },
        {
          "duration": 0.25581395348837077,
          "durationTicks": 22,
          "midi": 48,
          "name": "C3",
          "ticks": 15342,
          "time": 178.3953488372093,
          "velocity": 0.2440944881889764
        },
        {
          "duration": 0.2325581395348877,
          "durationTicks": 20,
          "midi": 58,
          "name": "A#3",
          "ticks": 15343,
          "time": 178.40697674418604,
          "velocity": 0.14173228346456693
        },
        {
          "duration": 0.2906976744186238,
          "durationTicks": 25,
          "midi": 48,
          "name": "C3",
          "ticks": 15365,
          "time": 178.6627906976744,
          "velocity": 0.2204724409448819
        },
        {
          "duration": 0.2674418604651123,
          "durationTicks": 23,
          "midi": 48,
          "name": "C3",
          "ticks": 15391,
          "time": 178.96511627906978,
          "velocity": 0.1968503937007874
        },
        {
          "duration": 0.25581395348837077,
          "durationTicks": 22,
          "midi": 48,
          "name": "C3",
          "ticks": 15416,
          "time": 179.25581395348837,
          "velocity": 0.16535433070866143
        },
        {
          "duration": 0.3720930232558146,
          "durationTicks": 32,
          "midi": 48,
          "name": "C3",
          "ticks": 15444,
          "time": 179.58139534883722,
          "velocity": 0.14173228346456693
        },
        {
          "duration": 0.32558139534884845,
          "durationTicks": 28,
          "midi": 48,
          "name": "C3",
          "ticks": 15484,
          "time": 180.04651162790697,
          "velocity": 0.08661417322834646
        },
        {
          "duration": 0.8488372093023315,
          "durationTicks": 73,
          "midi": 63,
          "name": "D#4",
          "ticks": 15520,
          "time": 180.46511627906978,
          "velocity": 0.14173228346456693
        },
        {
          "duration": 0.6046511627907023,
          "durationTicks": 52,
          "midi": 51,
          "name": "D#3",
          "ticks": 15547,
          "time": 180.77906976744185,
          "velocity": 0.28346456692913385
        },
        {
          "duration": 0.023255813953483084,
          "durationTicks": 2,
          "midi": 57,
          "name": "A3",
          "ticks": 15573,
          "time": 181.08139534883722,
          "velocity": 0.2755905511811024
        },
        {
          "duration": 0.8837209302325562,
          "durationTicks": 76,
          "midi": 58,
          "name": "A#3",
          "ticks": 15575,
          "time": 181.1046511627907,
          "velocity": 0.2440944881889764
        },
        {
          "duration": 1.523255813953483,
          "durationTicks": 131,
          "midi": 51,
          "name": "D#3",
          "ticks": 15600,
          "time": 181.3953488372093,
          "velocity": 0.1889763779527559
        },
        {
          "duration": 0.25581395348837077,
          "durationTicks": 22,
          "midi": 51,
          "name": "D#3",
          "ticks": 15732,
          "time": 182.93023255813952,
          "velocity": 0.07874015748031496
        },
        {
          "duration": 0.023255813953483084,
          "durationTicks": 2,
          "midi": 45,
          "name": "A2",
          "ticks": 15758,
          "time": 183.2325581395349,
          "velocity": 0.2992125984251969
        },
        {
          "duration": 0.08139534883721922,
          "durationTicks": 7,
          "midi": 56,
          "name": "G#3",
          "ticks": 15758,
          "time": 183.2325581395349,
          "velocity": 0.33070866141732286
        },
        {
          "duration": 0.8837209302325562,
          "durationTicks": 76,
          "midi": 44,
          "name": "G#2",
          "ticks": 15760,
          "time": 183.25581395348837,
          "velocity": 0.2992125984251969
        },
        {
          "duration": 0.0813953488371908,
          "durationTicks": 7,
          "midi": 58,
          "name": "A#3",
          "ticks": 15778,
          "time": 183.46511627906978,
          "velocity": 0.12598425196850394
        },
        {
          "duration": 0.2906976744186238,
          "durationTicks": 25,
          "midi": 58,
          "name": "A#3",
          "ticks": 15838,
          "time": 184.1627906976744,
          "velocity": 0.15748031496062992
        },
        {
          "duration": 0.26744186046514073,
          "durationTicks": 23,
          "midi": 44,
          "name": "G#2",
          "ticks": 15840,
          "time": 184.1860465116279,
          "velocity": 0.2047244094488189
        },
        {
          "duration": 0.25581395348837077,
          "durationTicks": 22,
          "midi": 58,
          "name": "A#3",
          "ticks": 15864,
          "time": 184.46511627906978,
          "velocity": 0.11811023622047244
        },
        {
          "duration": 0.4302325581395223,
          "durationTicks": 37,
          "midi": 44,
          "name": "G#2",
          "ticks": 15866,
          "time": 184.48837209302326,
          "velocity": 0.1889763779527559
        },
        {
          "duration": 0.03488372093025305,
          "durationTicks": 3,
          "midi": 55,
          "name": "G3",
          "ticks": 15902,
          "time": 184.90697674418604,
          "velocity": 0.1889763779527559
        },
        {
          "duration": 0.034883720930224626,
          "durationTicks": 3,
          "midi": 45,
          "name": "A2",
          "ticks": 15905,
          "time": 184.9418604651163,
          "velocity": 0.15748031496062992
        },
        {
          "duration": 0.34883720930233153,
          "durationTicks": 30,
          "midi": 44,
          "name": "G#2",
          "ticks": 15908,
          "time": 184.97674418604652,
          "velocity": 0.13385826771653545
        },
        {
          "duration": 0.5116279069767415,
          "durationTicks": 44,
          "midi": 63,
          "name": "D#4",
          "ticks": 15945,
          "time": 185.40697674418604,
          "velocity": 0.13385826771653545
        },
        {
          "duration": 0.023255813953483084,
          "durationTicks": 2,
          "midi": 57,
          "name": "A3",
          "ticks": 15971,
          "time": 185.7093023255814,
          "velocity": 0.2992125984251969
        },
        {
          "duration": 0.023255813953483084,
          "durationTicks": 2,
          "midi": 45,
          "name": "A2",
          "ticks": 15972,
          "time": 185.72093023255815,
          "velocity": 0.3464566929133858
        },
        {
          "duration": 0.30232558139533694,
          "durationTicks": 26,
          "midi": 58,
          "name": "A#3",
          "ticks": 15973,
          "time": 185.7325581395349,
          "velocity": 0.23622047244094488
        },
        {
          "duration": 0.8837209302325562,
          "durationTicks": 76,
          "midi": 46,
          "name": "A#2",
          "ticks": 15974,
          "time": 185.74418604651163,
          "velocity": 0.36220472440944884
        },
        {
          "duration": 0.023255813953483084,
          "durationTicks": 2,
          "midi": 55,
          "name": "G3",
          "ticks": 15999,
          "time": 186.03488372093022,
          "velocity": 0.23622047244094488
        },
        {
          "duration": 0.11627906976744384,
          "durationTicks": 10,
          "midi": 46,
          "name": "A#2",
          "ticks": 16051,
          "time": 186.63953488372093,
          "velocity": 0.15748031496062992
        },
        {
          "duration": 0.7790697674418539,
          "durationTicks": 67,
          "midi": 58,
          "name": "A#3",
          "ticks": 16052,
          "time": 186.65116279069767,
          "velocity": 0.2677165354330709
        },
        {
          "duration": 0.40697674418603924,
          "durationTicks": 35,
          "midi": 62,
          "name": "D4",
          "ticks": 16079,
          "time": 186.96511627906978,
          "velocity": 0.12598425196850394
        },
        {
          "duration": 0.03488372093025305,
          "durationTicks": 3,
          "midi": 56,
          "name": "G#3",
          "ticks": 16161,
          "time": 187.91860465116278,
          "velocity": 0.15748031496062992
        },
        {
          "duration": 0.48837209302325846,
          "durationTicks": 42,
          "midi": 63,
          "name": "D#4",
          "ticks": 16162,
          "time": 187.93023255813952,
          "velocity": 0.14173228346456693
        },
        {
          "duration": 0.034883720930224626,
          "durationTicks": 3,
          "midi": 47,
          "name": "B2",
          "ticks": 16188,
          "time": 188.2325581395349,
          "velocity": 0.31496062992125984
        },
        {
          "duration": 0.2674418604651123,
          "durationTicks": 23,
          "midi": 48,
          "name": "C3",
          "ticks": 16193,
          "time": 188.2906976744186,
          "velocity": 0.25196850393700787
        },
        {
          "duration": 0.30232558139533694,
          "durationTicks": 26,
          "midi": 48,
          "name": "C3",
          "ticks": 16217,
          "time": 188.56976744186048,
          "velocity": 0.2125984251968504
        },
        {
          "duration": 0.25581395348837077,
          "durationTicks": 22,
          "midi": 48,
          "name": "C3",
          "ticks": 16244,
          "time": 188.88372093023256,
          "velocity": 0.1889763779527559
        },
        {
          "duration": 0.034883720930224626,
          "durationTicks": 3,
          "midi": 56,
          "name": "G#3",
          "ticks": 16265,
          "time": 189.12790697674419,
          "velocity": 0.2047244094488189
        },
        {
          "duration": 0.2325581395348877,
          "durationTicks": 20,
          "midi": 48,
          "name": "C3",
          "ticks": 16272,
          "time": 189.2093023255814,
          "velocity": 0.14960629921259844
        },
        {
          "duration": 0.3604651162790731,
          "durationTicks": 31,
          "midi": 48,
          "name": "C3",
          "ticks": 16300,
          "time": 189.53488372093022,
          "velocity": 0.1732283464566929
        },
        {
          "duration": 0.30232558139533694,
          "durationTicks": 26,
          "midi": 62,
          "name": "D4",
          "ticks": 16338,
          "time": 189.97674418604652,
          "velocity": 0.07874015748031496
        },
        {
          "duration": 0.24418604651162923,
          "durationTicks": 21,
          "midi": 63,
          "name": "D#4",
          "ticks": 16399,
          "time": 190.6860465116279,
          "velocity": 0.07874015748031496
        },
        {
          "duration": 0.2906976744185954,
          "durationTicks": 25,
          "midi": 51,
          "name": "D#3",
          "ticks": 16400,
          "time": 190.69767441860466,
          "velocity": 0.2440944881889764
        },
        {
          "duration": 0.27906976744185386,
          "durationTicks": 24,
          "midi": 51,
          "name": "D#3",
          "ticks": 16426,
          "time": 191,
          "velocity": 0.1968503937007874
        },
        {
          "duration": 0.27906976744185386,
          "durationTicks": 24,
          "midi": 58,
          "name": "A#3",
          "ticks": 16427,
          "time": 191.01162790697674,
          "velocity": 0.1889763779527559
        },
        {
          "duration": 0.5813953488372192,
          "durationTicks": 50,
          "midi": 51,
          "name": "D#3",
          "ticks": 16452,
          "time": 191.30232558139534,
          "velocity": 0.1889763779527559
        },
        {
          "duration": 0.20930232558137618,
          "durationTicks": 18,
          "midi": 58,
          "name": "A#3",
          "ticks": 16453,
          "time": 191.3139534883721,
          "velocity": 0.09448818897637795
        },
        {
          "duration": 0.2325581395348877,
          "durationTicks": 20,
          "midi": 79,
          "name": "G5",
          "ticks": 16477,
          "time": 191.59302325581396,
          "velocity": 0.10236220472440945
        },
        {
          "duration": 0.3953488372093261,
          "durationTicks": 34,
          "midi": 51,
          "name": "D#3",
          "ticks": 16505,
          "time": 191.91860465116278,
          "velocity": 0.09448818897637795
        },
        {
          "duration": 0.40697674418603924,
          "durationTicks": 35,
          "midi": 75,
          "name": "D#5",
          "ticks": 16546,
          "time": 192.3953488372093,
          "velocity": 0.07086614173228346
        },
        {
          "duration": 0.6046511627907023,
          "durationTicks": 52,
          "midi": 58,
          "name": "A#3",
          "ticks": 16611,
          "time": 193.15116279069767,
          "velocity": 0.25196850393700787
        },
        {
          "duration": 0.6395348837209269,
          "durationTicks": 55,
          "midi": 58,
          "name": "A#3",
          "ticks": 16691,
          "time": 194.08139534883722,
          "velocity": 0.2204724409448819
        },
        {
          "duration": 0.33720930232559,
          "durationTicks": 29,
          "midi": 62,
          "name": "D4",
          "ticks": 16718,
          "time": 194.3953488372093,
          "velocity": 0.11023622047244094
        },
        {
          "duration": 0.33720930232559,
          "durationTicks": 29,
          "midi": 62,
          "name": "D4",
          "ticks": 16753,
          "time": 194.80232558139534,
          "velocity": 0.12598425196850394
        },
        {
          "duration": 0.023255813953483084,
          "durationTicks": 2,
          "midi": 55,
          "name": "G3",
          "ticks": 16790,
          "time": 195.2325581395349,
          "velocity": 0.2440944881889764
        },
        {
          "duration": 0.3139534883720785,
          "durationTicks": 27,
          "midi": 63,
          "name": "D#4",
          "ticks": 16791,
          "time": 195.24418604651163,
          "velocity": 0.08661417322834646
        },
        {
          "duration": 0.034883720930224626,
          "durationTicks": 3,
          "midi": 45,
          "name": "A2",
          "ticks": 16792,
          "time": 195.25581395348837,
          "velocity": 0.12598425196850394
        },
        {
          "duration": 0.6976744186046631,
          "durationTicks": 60,
          "midi": 75,
          "name": "D#5",
          "ticks": 16792,
          "time": 195.25581395348837,
          "velocity": 0.11023622047244094
        },
        {
          "duration": 0.034883720930224626,
          "durationTicks": 3,
          "midi": 57,
          "name": "A3",
          "ticks": 16844,
          "time": 195.86046511627907,
          "velocity": 0.29133858267716534
        },
        {
          "duration": 0.5581395348837361,
          "durationTicks": 48,
          "midi": 58,
          "name": "A#3",
          "ticks": 16847,
          "time": 195.8953488372093,
          "velocity": 0.1889763779527559
        },
        {
          "duration": 0.6976744186046346,
          "durationTicks": 60,
          "midi": 58,
          "name": "A#3",
          "ticks": 16897,
          "time": 196.47674418604652,
          "velocity": 0.2125984251968504
        },
        {
          "duration": 0.034883720930224626,
          "durationTicks": 3,
          "midi": 45,
          "name": "A2",
          "ticks": 16959,
          "time": 197.19767441860466,
          "velocity": 0.09448818897637795
        },
        {
          "duration": 0.023255813953483084,
          "durationTicks": 2,
          "midi": 57,
          "name": "A3",
          "ticks": 17027,
          "time": 197.98837209302326,
          "velocity": 0.2440944881889764
        },
        {
          "duration": 0.034883720930224626,
          "durationTicks": 3,
          "midi": 45,
          "name": "A2",
          "ticks": 17028,
          "time": 198,
          "velocity": 0.11023622047244094
        },
        {
          "duration": 0.5930232558139608,
          "durationTicks": 51,
          "midi": 58,
          "name": "A#3",
          "ticks": 17029,
          "time": 198.01162790697674,
          "velocity": 0.1968503937007874
        },
        {
          "duration": 0.034883720930224626,
          "durationTicks": 3,
          "midi": 45,
          "name": "A2",
          "ticks": 17080,
          "time": 198.6046511627907,
          "velocity": 0.07086614173228346
        },
        {
          "duration": 0.27906976744185386,
          "durationTicks": 24,
          "midi": 58,
          "name": "A#3",
          "ticks": 17106,
          "time": 198.90697674418604,
          "velocity": 0.2204724409448819
        },
        {
          "duration": 0.034883720930224626,
          "durationTicks": 3,
          "midi": 45,
          "name": "A2",
          "ticks": 17131,
          "time": 199.19767441860466,
          "velocity": 0.09448818897637795
        },
        {
          "duration": 0.38372093023255616,
          "durationTicks": 33,
          "midi": 62,
          "name": "D4",
          "ticks": 17131,
          "time": 199.19767441860466,
          "velocity": 0.09448818897637795
        },
        {
          "duration": 0.3953488372092977,
          "durationTicks": 34,
          "midi": 58,
          "name": "A#3",
          "ticks": 17133,
          "time": 199.22093023255815,
          "velocity": 0.12598425196850394
        },
        {
          "duration": 0.04651162790696617,
          "durationTicks": 4,
          "midi": 45,
          "name": "A2",
          "ticks": 17208,
          "time": 200.09302325581396,
          "velocity": 0.15748031496062992
        },
        {
          "duration": 0.48837209302325846,
          "durationTicks": 42,
          "midi": 75,
          "name": "D#5",
          "ticks": 17208,
          "time": 200.09302325581396,
          "velocity": 0.09448818897637795
        },
        {
          "duration": 0.27906976744185386,
          "durationTicks": 24,
          "midi": 58,
          "name": "A#3",
          "ticks": 17261,
          "time": 200.7093023255814,
          "velocity": 0.16535433070866143
        },
        {
          "duration": 0.17441860465117998,
          "durationTicks": 15,
          "midi": 58,
          "name": "A#3",
          "ticks": 17288,
          "time": 201.02325581395348,
          "velocity": 0.07086614173228346
        },
        {
          "duration": 0.03488372093025305,
          "durationTicks": 3,
          "midi": 45,
          "name": "A2",
          "ticks": 17310,
          "time": 201.27906976744185,
          "velocity": 0.07874015748031496
        },
        {
          "duration": 0.24418604651162923,
          "durationTicks": 21,
          "midi": 75,
          "name": "D#5",
          "ticks": 17378,
          "time": 202.06976744186048,
          "velocity": 0.07086614173228346
        },
        {
          "duration": 0.09302325581396076,
          "durationTicks": 8,
          "midi": 44,
          "name": "G#2",
          "ticks": 18245,
          "time": 212.15116279069767,
          "velocity": 0.2755905511811024
        },
        {
          "duration": 0.1046511627907023,
          "durationTicks": 9,
          "midi": 56,
          "name": "G#3",
          "ticks": 18245,
          "time": 212.15116279069767,
          "velocity": 0.36220472440944884
        },
        {
          "duration": 0.05813953488373613,
          "durationTicks": 5,
          "midi": 45,
          "name": "A2",
          "ticks": 18256,
          "time": 212.27906976744185,
          "velocity": 0.33858267716535434
        },
        {
          "duration": 0.05813953488373613,
          "durationTicks": 5,
          "midi": 56,
          "name": "G#3",
          "ticks": 18258,
          "time": 212.30232558139534,
          "velocity": 0.10236220472440945
        },
        {
          "duration": 0.023255813953511506,
          "durationTicks": 2,
          "midi": 44,
          "name": "G#2",
          "ticks": 18268,
          "time": 212.41860465116278,
          "velocity": 0.25196850393700787
        },
        {
          "duration": 0.034883720930224626,
          "durationTicks": 3,
          "midi": 45,
          "name": "A2",
          "ticks": 18270,
          "time": 212.4418604651163,
          "velocity": 0.2755905511811024
        },
        {
          "duration": 0.05813953488370771,
          "durationTicks": 5,
          "midi": 44,
          "name": "G#2",
          "ticks": 18281,
          "time": 212.56976744186048,
          "velocity": 0.2125984251968504
        },
        {
          "duration": 2.6860465116279215,
          "durationTicks": 231,
          "midi": 44,
          "name": "G#2",
          "ticks": 18287,
          "time": 212.63953488372093,
          "velocity": 0.1968503937007874
        }
      ],
      "endOfTrackTicks": 18518
    }
  ]
}