{
  "header": {
    "keySignatures": [],
    "meta": [],
    "name": "",
    "ppq": 43,
    "tempos": [
      {
        "bpm": 120,
        "ticks": 0
      }
    ],
    "timeSignatures": []
  },
  "tracks": [
    {
      "channel": 0,
      "controlChanges": {},
      "pitchBends": [],
      "instrument": {
        "family": "piano",
        "number": 0,
        "name": "acoustic grand piano"
      },
      "name": "",
      "notes": [
        {
          "duration": 0.9418604651162791,
          "durationTicks": 81,
          "midi": 50,
          "name": "D3",
          "ticks": 0,
          "time": 0,
          "velocity": 0.36220472440944884
        },
        {
          "duration": 0.03488372093023256,
          "durationTicks": 3,
          "midi": 42,
          "name": "F#2",
          "ticks": 1,
          "time": 0.011627906976744186,
          "velocity": 0.13385826771653545
        },
        {
          "duration": 0.03488372093023255,
          "durationTicks": 3,
          "midi": 56,
          "name": "G#3",
          "ticks": 10,
          "time": 0.11627906976744186,
          "velocity": 0.33858267716535434
        },
        {
          "duration": 0.7093023255813954,
          "durationTicks": 61,
          "midi": 69,
          "name": "A4",
          "ticks": 10,
          "time": 0.11627906976744186,
          "velocity": 0.1732283464566929
        },
        {
          "duration": 0.7674418604651163,
          "durationTicks": 66,
          "midi": 57,
          "name": "A3",
          "ticks": 13,
          "time": 0.1511627906976744,
          "velocity": 0.36220472440944884
        },
        {
          "duration": 0.023255813953488413,
          "durationTicks": 2,
          "midi": 61,
          "name": "C#4",
          "ticks": 23,
          "time": 0.26744186046511625,
          "velocity": 0.23622047244094488
        },
        {
          "duration": 0.09302325581395349,
          "durationTicks": 8,
          "midi": 74,
          "name": "D5",
          "ticks": 23,
          "time": 0.26744186046511625,
          "velocity": 0.13385826771653545
        },
        {
          "duration": 0.023255813953488413,
          "durationTicks": 2,
          "midi": 55,
          "name": "G3",
          "ticks": 80,
          "time": 0.9302325581395349,
          "velocity": 0.3858267716535433
        },
        {
          "duration": 0.13953488372093015,
          "durationTicks": 12,
          "midi": 75,
          "name": "D#5",
          "ticks": 80,
          "time": 0.9302325581395349,
          "velocity": 0.11811023622047244
        },
        {
          "duration": 0.11627906976744196,
          "durationTicks": 10,
          "midi": 68,
          "name": "G#4",
          "ticks": 81,
          "time": 0.9418604651162791,
          "velocity": 0.11811023622047244
        },
        {
          "duration": 0.11627906976744173,
          "durationTicks": 10,
          "midi": 56,
          "name": "G#3",
          "ticks": 82,
          "time": 0.9534883720930233,
          "velocity": 0.3937007874015748
        },
        {
          "duration": 0.2093023255813955,
          "durationTicks": 18,
          "midi": 50,
          "name": "D3",
          "ticks": 84,
          "time": 0.9767441860465116,
          "velocity": 0.2204724409448819
        },
        {
          "duration": 0.04651162790697683,
          "durationTicks": 4,
          "midi": 57,
          "name": "A3",
          "ticks": 97,
          "time": 1.127906976744186,
          "velocity": 0.09448818897637795
        },
        {
          "duration": 0.18604651162790709,
          "durationTicks": 16,
          "midi": 55,
          "name": "G3",
          "ticks": 104,
          "time": 1.2093023255813953,
          "velocity": 0.3858267716535433
        },
        {
          "duration": 0.18604651162790686,
          "durationTicks": 16,
          "midi": 53,
          "name": "F3",
          "ticks": 123,
          "time": 1.430232558139535,
          "velocity": 0.3700787401574803
        },
        {
          "duration": 0.023255813953488413,
          "durationTicks": 2,
          "midi": 54,
          "name": "F#3",
          "ticks": 139,
          "time": 1.6162790697674418,
          "velocity": 0.2283464566929134
        },
        {
          "duration": 0.12790697674418605,
          "durationTicks": 11,
          "midi": 50,
          "name": "D3",
          "ticks": 146,
          "time": 1.697674418604651,
          "velocity": 0.3464566929133858
        },
        {
          "duration": 0.10465116279069764,
          "durationTicks": 9,
          "midi": 53,
          "name": "F3",
          "ticks": 159,
          "time": 1.8488372093023255,
          "velocity": 0.4251968503937008
        },
        {
          "duration": 0.2441860465116279,
          "durationTicks": 21,
          "midi": 55,
          "name": "G3",
          "ticks": 169,
          "time": 1.9651162790697674,
          "velocity": 0.41732283464566927
        },
        {
          "duration": 0.12790697674418627,
          "durationTicks": 11,
          "midi": 62,
          "name": "D4",
          "ticks": 170,
          "time": 1.9767441860465116,
          "velocity": 0.16535433070866143
        },
        {
          "duration": 0.13953488372093004,
          "durationTicks": 12,
          "midi": 48,
          "name": "C3",
          "ticks": 181,
          "time": 2.104651162790698,
          "velocity": 0.4015748031496063
        },
        {
          "duration": 0.023255813953488413,
          "durationTicks": 2,
          "midi": 47,
          "name": "B2",
          "ticks": 194,
          "time": 2.255813953488372,
          "velocity": 0.29133858267716534
        },
        {
          "duration": 0.03488372093023262,
          "durationTicks": 3,
          "midi": 49,
          "name": "C#3",
          "ticks": 196,
          "time": 2.2790697674418605,
          "velocity": 0.3858267716535433
        },
        {
          "duration": 0.7093023255813953,
          "durationTicks": 61,
          "midi": 62,
          "name": "D4",
          "ticks": 199,
          "time": 2.313953488372093,
          "velocity": 0.31496062992125984
        },
        {
          "duration": 0.034883720930232176,
          "durationTicks": 3,
          "midi": 49,
          "name": "C#3",
          "ticks": 202,
          "time": 2.3488372093023258,
          "velocity": 0.3779527559055118
        },
        {
          "duration": 0.19767441860465107,
          "durationTicks": 17,
          "midi": 81,
          "name": "A5",
          "ticks": 204,
          "time": 2.372093023255814,
          "velocity": 0.12598425196850394
        },
        {
          "duration": 0.03488372093023262,
          "durationTicks": 3,
          "midi": 49,
          "name": "C#3",
          "ticks": 208,
          "time": 2.4186046511627906,
          "velocity": 0.3700787401574803
        },
        {
          "duration": 0.023255813953488413,
          "durationTicks": 2,
          "midi": 49,
          "name": "C#3",
          "ticks": 214,
          "time": 2.488372093023256,
          "velocity": 0.3700787401574803
        },
        {
          "duration": 0.023255813953488413,
          "durationTicks": 2,
          "midi": 47,
          "name": "B2",
          "ticks": 217,
          "time": 2.5232558139534884,
          "velocity": 0.28346456692913385
        },
        {
          "duration": 0.03488372093023262,
          "durationTicks": 3,
          "midi": 49,
          "name": "C#3",
          "ticks": 219,
          "time": 2.546511627906977,
          "velocity": 0.36220472440944884
        },
        {
          "duration": 0.3023255813953485,
          "durationTicks": 26,
          "midi": 69,
          "name": "A4",
          "ticks": 224,
          "time": 2.604651162790698,
          "velocity": 0.2283464566929134
        },
        {
          "duration": 0.034883720930232176,
          "durationTicks": 3,
          "midi": 49,
          "name": "C#3",
          "ticks": 225,
          "time": 2.616279069767442,
          "velocity": 0.3779527559055118
        },
        {
          "duration": 0.02325581395348797,
          "durationTicks": 2,
          "midi": 56,
          "name": "G#3",
          "ticks": 225,
          "time": 2.616279069767442,
          "velocity": 0.25984251968503935
        },
        {
          "duration": 0.22093023255813993,
          "durationTicks": 19,
          "midi": 88,
          "name": "E6",
          "ticks": 226,
          "time": 2.627906976744186,
          "velocity": 0.11023622047244094
        },
        {
          "duration": 0.23255813953488413,
          "durationTicks": 20,
          "midi": 57,
          "name": "A3",
          "ticks": 227,
          "time": 2.63953488372093,
          "velocity": 0.23622047244094488
        },
        {
          "duration": 0.03488372093023262,
          "durationTicks": 3,
          "midi": 49,
          "name": "C#3",
          "ticks": 231,
          "time": 2.686046511627907,
          "velocity": 0.3464566929133858
        },
        {
          "duration": 0.023255813953488413,
          "durationTicks": 2,
          "midi": 47,
          "name": "B2",
          "ticks": 234,
          "time": 2.7209302325581395,
          "velocity": 0.25196850393700787
        },
        {
          "duration": 0.03488372093023262,
          "durationTicks": 3,
          "midi": 49,
          "name": "C#3",
          "ticks": 236,
          "time": 2.744186046511628,
          "velocity": 0.3464566929133858
        },
        {
          "duration": 0.03488372093023262,
          "durationTicks": 3,
          "midi": 49,
          "name": "C#3",
          "ticks": 242,
          "time": 2.813953488372093,
          "velocity": 0.33070866141732286
        },
        {
          "duration": 0.023255813953488413,
          "durationTicks": 2,
          "midi": 49,
          "name": "C#3",
          "ticks": 248,
          "time": 2.883720930232558,
          "velocity": 0.33858267716535434
        },
        {
          "duration": 0.03488372093023262,
          "durationTicks": 3,
          "midi": 49,
          "name": "C#3",
          "ticks": 253,
          "time": 2.941860465116279,
          "velocity": 0.33070866141732286
        },
        {
          "duration": 0.023255813953488413,
          "durationTicks": 2,
          "midi": 47,
          "name": "B2",
          "ticks": 256,
          "time": 2.9767441860465116,
          "velocity": 0.23622047244094488
        },
        {
          "duration": 0.023255813953488413,
          "durationTicks": 2,
          "midi": 49,
          "name": "C#3",
          "ticks": 259,
          "time": 3.011627906976744,
          "velocity": 0.28346456692913385
        },
        {
          "duration": 0.03488372093023262,
          "durationTicks": 3,
          "midi": 55,
          "name": "G3",
          "ticks": 259,
          "time": 3.011627906976744,
          "velocity": 0.4251968503937008
        },
        {
          "duration": 0.13953488372093004,
          "durationTicks": 12,
          "midi": 75,
          "name": "D#5",
          "ticks": 260,
          "time": 3.0232558139534884,
          "velocity": 0.14173228346456693
        },
        {
          "duration": 0.12790697674418583,
          "durationTicks": 11,
          "midi": 68,
          "name": "G#4",
          "ticks": 261,
          "time": 3.0348837209302326,
          "velocity": 0.07874015748031496
        },
        {
          "duration": 0.12790697674418583,
          "durationTicks": 11,
          "midi": 56,
          "name": "G#3",
          "ticks": 262,
          "time": 3.046511627906977,
          "velocity": 0.4015748031496063
        },
        {
          "duration": 0.03488372093023262,
          "durationTicks": 3,
          "midi": 49,
          "name": "C#3",
          "ticks": 264,
          "time": 3.0697674418604652,
          "velocity": 0.2992125984251969
        },
        {
          "duration": 0.023255813953488413,
          "durationTicks": 2,
          "midi": 49,
          "name": "C#3",
          "ticks": 270,
          "time": 3.13953488372093,
          "velocity": 0.2992125984251969
        },
        {
          "duration": 0.023255813953488413,
          "durationTicks": 2,
          "midi": 48,
          "name": "C3",
          "ticks": 274,
          "time": 3.186046511627907,
          "velocity": 0.2992125984251969
        },
        {
          "duration": 0.023255813953488413,
          "durationTicks": 2,
          "midi": 49,
          "name": "C#3",
          "ticks": 276,
          "time": 3.2093023255813953,
          "velocity": 0.30708661417322836
        },
        {
          "duration": 0.023255813953488413,
          "durationTicks": 2,
          "midi": 48,
          "name": "C3",
          "ticks": 282,
          "time": 3.2790697674418605,
          "velocity": 0.30708661417322836
        },
        {
          "duration": 0.2674418604651163,
          "durationTicks": 23,
          "midi": 55,
          "name": "G3",
          "ticks": 282,
          "time": 3.2790697674418605,
          "velocity": 0.4409448818897638
        },
        {
          "duration": 0.2441860465116279,
          "durationTicks": 21,
          "midi": 74,
          "name": "D5",
          "ticks": 282,
          "time": 3.2790697674418605,
          "velocity": 0.15748031496062992
        },
        {
          "duration": 0.023255813953488413,
          "durationTicks": 2,
          "midi": 49,
          "name": "C#3",
          "ticks": 287,
          "time": 3.3372093023255816,
          "velocity": 0.29133858267716534
        },
        {
          "duration": 0.11627906976744207,
          "durationTicks": 10,
          "midi": 48,
          "name": "C3",
          "ticks": 291,
          "time": 3.383720930232558,
          "velocity": 0.2283464566929134
        },
        {
          "duration": 0.19767441860465107,
          "durationTicks": 17,
          "midi": 65,
          "name": "F4",
          "ticks": 302,
          "time": 3.511627906976744,
          "velocity": 0.13385826771653545
        },
        {
          "duration": 0.17441860465116266,
          "durationTicks": 15,
          "midi": 53,
          "name": "F3",
          "ticks": 304,
          "time": 3.5348837209302326,
          "velocity": 0.31496062992125984
        },
        {
          "duration": 0.1511627906976747,
          "durationTicks": 13,
          "midi": 48,
          "name": "C3",
          "ticks": 312,
          "time": 3.627906976744186,
          "velocity": 0.2204724409448819
        },
        {
          "duration": 0.03488372093023262,
          "durationTicks": 3,
          "midi": 54,
          "name": "F#3",
          "ticks": 319,
          "time": 3.7093023255813953,
          "velocity": 0.16535433070866143
        },
        {
          "duration": 0.13953488372093004,
          "durationTicks": 12,
          "midi": 62,
          "name": "D4",
          "ticks": 325,
          "time": 3.7790697674418605,
          "velocity": 0.23622047244094488
        },
        {
          "duration": 0.08139534883720945,
          "durationTicks": 7,
          "midi": 50,
          "name": "D3",
          "ticks": 326,
          "time": 3.7906976744186047,
          "velocity": 0.3228346456692913
        },
        {
          "duration": 0.023255813953488413,
          "durationTicks": 2,
          "midi": 50,
          "name": "D3",
          "ticks": 334,
          "time": 3.883720930232558,
          "velocity": 0.31496062992125984
        },
        {
          "duration": 0.023255813953488413,
          "durationTicks": 2,
          "midi": 54,
          "name": "F#3",
          "ticks": 339,
          "time": 3.941860465116279,
          "velocity": 0.2755905511811024
        },
        {
          "duration": 0.058139534883721034,
          "durationTicks": 5,
          "midi": 53,
          "name": "F3",
          "ticks": 341,
          "time": 3.9651162790697674,
          "velocity": 0.33858267716535434
        },
        {
          "duration": 0.24418604651162834,
          "durationTicks": 21,
          "midi": 62,
          "name": "D4",
          "ticks": 341,
          "time": 3.9651162790697674,
          "velocity": 0.13385826771653545
        },
        {
          "duration": 0.3023255813953485,
          "durationTicks": 26,
          "midi": 55,
          "name": "G3",
          "ticks": 349,
          "time": 4.058139534883721,
          "velocity": 0.48031496062992124
        },
        {
          "duration": 0.2790697674418601,
          "durationTicks": 24,
          "midi": 74,
          "name": "D5",
          "ticks": 349,
          "time": 4.058139534883721,
          "velocity": 0.14960629921259844
        },
        {
          "duration": 0.5348837209302326,
          "durationTicks": 46,
          "midi": 71,
          "name": "B4",
          "ticks": 362,
          "time": 4.209302325581396,
          "velocity": 0.16535433070866143
        },
        {
          "duration": 0.10465116279069697,
          "durationTicks": 9,
          "midi": 47,
          "name": "B2",
          "ticks": 363,
          "time": 4.22093023255814,
          "velocity": 0.3543307086614173
        },
        {
          "duration": 0.023255813953488413,
          "durationTicks": 2,
          "midi": 48,
          "name": "C3",
          "ticks": 372,
          "time": 4.325581395348837,
          "velocity": 0.3543307086614173
        },
        {
          "duration": 0.023255813953488413,
          "durationTicks": 2,
          "midi": 48,
          "name": "C3",
          "ticks": 376,
          "time": 4.372093023255814,
          "velocity": 0.4015748031496063
        },
        {
          "duration": 0.023255813953488413,
          "durationTicks": 2,
          "midi": 48,
          "name": "C3",
          "ticks": 379,
          "time": 4.406976744186046,
          "velocity": 0.4015748031496063
        },
        {
          "duration": 0.03488372093023262,
          "durationTicks": 3,
          "midi": 62,
          "name": "D4",
          "ticks": 381,
          "time": 4.430232558139535,
          "velocity": 0.18110236220472442
        },
        {
          "duration": 0.023255813953488413,
          "durationTicks": 2,
          "midi": 48,
          "name": "C3",
          "ticks": 383,
          "time": 4.453488372093023,
          "velocity": 0.4015748031496063
        },
        {
          "duration": 0.023255813953488413,
          "durationTicks": 2,
          "midi": 59,
          "name": "B3",
          "ticks": 383,
          "time": 4.453488372093023,
          "velocity": 0.2283464566929134
        },
        {
          "duration": 0.4883720930232558,
          "durationTicks": 42,
          "midi": 74,
          "name": "D5",
          "ticks": 385,
          "time": 4.476744186046512,
          "velocity": 0.15748031496062992
        },
        {
          "duration": 0.04651162790697683,
          "durationTicks": 4,
          "midi": 59,
          "name": "B3",
          "ticks": 386,
          "time": 4.488372093023256,
          "velocity": 0.1732283464566929
        },
        {
          "duration": 1.0232558139534884,
          "durationTicks": 88,
          "midi": 62,
          "name": "D4",
          "ticks": 386,
          "time": 4.488372093023256,
          "velocity": 0.2992125984251969
        },
        {
          "duration": 0.023255813953488413,
          "durationTicks": 2,
          "midi": 48,
          "name": "C3",
          "ticks": 387,
          "time": 4.5,
          "velocity": 0.4015748031496063
        },
        {
          "duration": 0.023255813953488413,
          "durationTicks": 2,
          "midi": 48,
          "name": "C3",
          "ticks": 391,
          "time": 4.546511627906977,
          "velocity": 0.3937007874015748
        },
        {
          "duration": 0.023255813953488413,
          "durationTicks": 2,
          "midi": 47,
          "name": "B2",
          "ticks": 393,
          "time": 4.569767441860465,
          "velocity": 0.36220472440944884
        },
        {
          "duration": 0.023255813953488413,
          "durationTicks": 2,
          "midi": 48,
          "name": "C3",
          "ticks": 395,
          "time": 4.593023255813954,
          "velocity": 0.3858267716535433
        },
        {
          "duration": 0.023255813953488413,
          "durationTicks": 2,
          "midi": 47,
          "name": "B2",
          "ticks": 397,
          "time": 4.616279069767442,
          "velocity": 0.3700787401574803
        },
        {
          "duration": 0.023255813953488413,
          "durationTicks": 2,
          "midi": 48,
          "name": "C3",
          "ticks": 399,
          "time": 4.6395348837209305,
          "velocity": 0.3779527559055118
        },
        {
          "duration": 0.023255813953488413,
          "durationTicks": 2,
          "midi": 48,
          "name": "C3",
          "ticks": 402,
          "time": 4.674418604651163,
          "velocity": 0.3700787401574803
        },
        {
          "duration": 0.023255813953488413,
          "durationTicks": 2,
          "midi": 48,
          "name": "C3",
          "ticks": 406,
          "time": 4.72093023255814,
          "velocity": 0.3858267716535433
        },
        {
          "duration": 0.023255813953487525,
          "durationTicks": 2,
          "midi": 56,
          "name": "G#3",
          "ticks": 407,
          "time": 4.732558139534884,
          "velocity": 0.3858267716535433
        },
        {
          "duration": 0.24418604651162745,
          "durationTicks": 21,
          "midi": 69,
          "name": "A4",
          "ticks": 408,
          "time": 4.744186046511628,
          "velocity": 0.14173228346456693
        },
        {
          "duration": 0.24418604651162834,
          "durationTicks": 21,
          "midi": 57,
          "name": "A3",
          "ticks": 409,
          "time": 4.755813953488372,
          "velocity": 0.3700787401574803
        },
        {
          "duration": 0.023255813953488413,
          "durationTicks": 2,
          "midi": 48,
          "name": "C3",
          "ticks": 410,
          "time": 4.767441860465116,
          "velocity": 0.36220472440944884
        },
        {
          "duration": 0.023255813953488413,
          "durationTicks": 2,
          "midi": 48,
          "name": "C3",
          "ticks": 414,
          "time": 4.813953488372093,
          "velocity": 0.3543307086614173
        },
        {
          "duration": 0.023255813953488413,
          "durationTicks": 2,
          "midi": 47,
          "name": "B2",
          "ticks": 416,
          "time": 4.837209302325581,
          "velocity": 0.3228346456692913
        },
        {
          "duration": 0.023255813953488413,
          "durationTicks": 2,
          "midi": 48,
          "name": "C3",
          "ticks": 418,
          "time": 4.8604651162790695,
          "velocity": 0.3464566929133858
        },
        {
          "duration": 0.023255813953488413,
          "durationTicks": 2,
          "midi": 48,
          "name": "C3",
          "ticks": 421,
          "time": 4.895348837209302,
          "velocity": 0.33858267716535434
        },
        {
          "duration": 0.023255813953488413,
          "durationTicks": 2,
          "midi": 48,
          "name": "C3",
          "ticks": 425,
          "time": 4.941860465116279,
          "velocity": 0.33858267716535434
        },
        {
          "duration": 0.04651162790697683,
          "durationTicks": 4,
          "midi": 93,
          "name": "A6",
          "ticks": 428,
          "time": 4.976744186046512,
          "velocity": 0.16535433070866143
        },
        {
          "duration": 0.13953488372093048,
          "durationTicks": 12,
          "midi": 50,
          "name": "D3",
          "ticks": 429,
          "time": 4.988372093023256,
          "velocity": 0.3464566929133858
        },
        {
          "duration": 0.03488372093023262,
          "durationTicks": 3,
          "midi": 55,
          "name": "G3",
          "ticks": 440,
          "time": 5.116279069767442,
          "velocity": 0.4566929133858268
        },
        {
          "duration": 0.162790697674418,
          "durationTicks": 14,
          "midi": 75,
          "name": "D#5",
          "ticks": 441,
          "time": 5.127906976744186,
          "velocity": 0.1732283464566929
        },
        {
          "duration": 0.23255813953488325,
          "durationTicks": 20,
          "midi": 50,
          "name": "D3",
          "ticks": 442,
          "time": 5.1395348837209305,
          "velocity": 0.2677165354330709
        },
        {
          "duration": 0.1395348837209296,
          "durationTicks": 12,
          "midi": 68,
          "name": "G#4",
          "ticks": 442,
          "time": 5.1395348837209305,
          "velocity": 0.1889763779527559
        },
        {
          "duration": 0.12790697674418539,
          "durationTicks": 11,
          "midi": 56,
          "name": "G#3",
          "ticks": 443,
          "time": 5.151162790697675,
          "velocity": 0.44881889763779526
        },
        {
          "duration": 0.023255813953488413,
          "durationTicks": 2,
          "midi": 55,
          "name": "G3",
          "ticks": 454,
          "time": 5.27906976744186,
          "velocity": 0.25984251968503935
        },
        {
          "duration": 0.1627906976744189,
          "durationTicks": 14,
          "midi": 67,
          "name": "G4",
          "ticks": 463,
          "time": 5.383720930232558,
          "velocity": 0.18110236220472442
        },
        {
          "duration": 0.11627906976744207,
          "durationTicks": 10,
          "midi": 55,
          "name": "G3",
          "ticks": 465,
          "time": 5.406976744186046,
          "velocity": 0.36220472440944884
        },
        {
          "duration": 0.10465116279069786,
          "durationTicks": 9,
          "midi": 55,
          "name": "G3",
          "ticks": 476,
          "time": 5.534883720930233,
          "velocity": 0.4330708661417323
        },
        {
          "duration": 0.058139534883721034,
          "durationTicks": 5,
          "midi": 45,
          "name": "A2",
          "ticks": 479,
          "time": 5.569767441860465,
          "velocity": 0.12598425196850394
        },
        {
          "duration": 0.1744186046511622,
          "durationTicks": 15,
          "midi": 53,
          "name": "F3",
          "ticks": 485,
          "time": 5.6395348837209305,
          "velocity": 0.3779527559055118
        },
        {
          "duration": 0.11627906976744118,
          "durationTicks": 10,
          "midi": 45,
          "name": "A2",
          "ticks": 492,
          "time": 5.72093023255814,
          "velocity": 0.11811023622047244
        },
        {
          "duration": 0.04651162790697683,
          "durationTicks": 4,
          "midi": 54,
          "name": "F#3",
          "ticks": 500,
          "time": 5.813953488372093,
          "velocity": 0.2440944881889764
        },
        {
          "duration": 0.03488372093023262,
          "durationTicks": 3,
          "midi": 45,
          "name": "A2",
          "ticks": 503,
          "time": 5.848837209302325,
          "velocity": 0.07086614173228346
        },
        {
          "duration": 0.023255813953488413,
          "durationTicks": 2,
          "midi": 49,
          "name": "C#3",
          "ticks": 507,
          "time": 5.895348837209302,
          "velocity": 0.25984251968503935
        },
        {
          "duration": 0.12790697674418627,
          "durationTicks": 11,
          "midi": 62,
          "name": "D4",
          "ticks": 508,
          "time": 5.906976744186046,
          "velocity": 0.2204724409448819
        },
        {
          "duration": 0.12790697674418627,
          "durationTicks": 11,
          "midi": 78,
          "name": "F#5",
          "ticks": 508,
          "time": 5.906976744186046,
          "velocity": 0.15748031496062992
        },
        {
          "duration": 0.10465116279069786,
          "durationTicks": 9,
          "midi": 50,
          "name": "D3",
          "ticks": 509,
          "time": 5.9186046511627906,
          "velocity": 0.31496062992125984
        },
        {
          "duration": 0.13953488372093048,
          "durationTicks": 12,
          "midi": 53,
          "name": "F3",
          "ticks": 519,
          "time": 6.034883720930233,
          "velocity": 0.3937007874015748
        },
        {
          "duration": 0.03488372093023262,
          "durationTicks": 3,
          "midi": 45,
          "name": "A2",
          "ticks": 526,
          "time": 6.116279069767442,
          "velocity": 0.07086614173228346
        },
        {
          "duration": 0.12790697674418539,
          "durationTicks": 11,
          "midi": 55,
          "name": "G3",
          "ticks": 531,
          "time": 6.174418604651163,
          "velocity": 0.4330708661417323
        },
        {
          "duration": 0.10465116279069697,
          "durationTicks": 9,
          "midi": 74,
          "name": "D5",
          "ticks": 531,
          "time": 6.174418604651163,
          "velocity": 0.15748031496062992
        },
        {
          "duration": 0.03488372093023262,
          "durationTicks": 3,
          "midi": 45,
          "name": "A2",
          "ticks": 542,
          "time": 6.3023255813953485,
          "velocity": 0.36220472440944884
        },
        {
          "duration": 0.26744186046511675,
          "durationTicks": 23,
          "midi": 58,
          "name": "A#3",
          "ticks": 543,
          "time": 6.313953488372093,
          "velocity": 0.29133858267716534
        },
        {
          "duration": 0.6976744186046515,
          "durationTicks": 60,
          "midi": 46,
          "name": "A#2",
          "ticks": 545,
          "time": 6.337209302325581,
          "velocity": 0.33070866141732286
        },
        {
          "duration": 0.20930232558139572,
          "durationTicks": 18,
          "midi": 74,
          "name": "D5",
          "ticks": 546,
          "time": 6.348837209302325,
          "velocity": 0.09448818897637795
        },
        {
          "duration": 0.38372093023255793,
          "durationTicks": 33,
          "midi": 53,
          "name": "F3",
          "ticks": 553,
          "time": 6.430232558139535,
          "velocity": 0.3464566929133858
        },
        {
          "duration": 0.4883720930232558,
          "durationTicks": 42,
          "midi": 62,
          "name": "D4",
          "ticks": 566,
          "time": 6.5813953488372094,
          "velocity": 0.29133858267716534
        },
        {
          "duration": 0.09302325581395365,
          "durationTicks": 8,
          "midi": 81,
          "name": "A5",
          "ticks": 568,
          "time": 6.604651162790698,
          "velocity": 0.10236220472440945
        },
        {
          "duration": 0.11627906976744207,
          "durationTicks": 10,
          "midi": 81,
          "name": "A5",
          "ticks": 587,
          "time": 6.825581395348837,
          "velocity": 0.12598425196850394
        },
        {
          "duration": 0.20930232558139572,
          "durationTicks": 18,
          "midi": 57,
          "name": "A3",
          "ticks": 588,
          "time": 6.837209302325581,
          "velocity": 0.41732283464566927
        },
        {
          "duration": 0.13953488372093048,
          "durationTicks": 12,
          "midi": 45,
          "name": "A2",
          "ticks": 605,
          "time": 7.034883720930233,
          "velocity": 0.25196850393700787
        },
        {
          "duration": 0.04651162790697683,
          "durationTicks": 4,
          "midi": 57,
          "name": "A3",
          "ticks": 614,
          "time": 7.1395348837209305,
          "velocity": 0.2677165354330709
        },
        {
          "duration": 0.023255813953488413,
          "durationTicks": 2,
          "midi": 44,
          "name": "G#2",
          "ticks": 617,
          "time": 7.174418604651163,
          "velocity": 0.2440944881889764
        },
        {
          "duration": 0.1511627906976738,
          "durationTicks": 13,
          "midi": 68,
          "name": "G#4",
          "ticks": 617,
          "time": 7.174418604651163,
          "velocity": 0.2047244094488189
        },
        {
          "duration": 0.03488372093023262,
          "durationTicks": 3,
          "midi": 55,
          "name": "G3",
          "ticks": 618,
          "time": 7.186046511627907,
          "velocity": 0.47244094488188976
        },
        {
          "duration": 0.1511627906976738,
          "durationTicks": 13,
          "midi": 75,
          "name": "D#5",
          "ticks": 618,
          "time": 7.186046511627907,
          "velocity": 0.16535433070866143
        },
        {
          "duration": 0.10465116279069697,
          "durationTicks": 9,
          "midi": 56,
          "name": "G#3",
          "ticks": 621,
          "time": 7.22093023255814,
          "velocity": 0.44881889763779526
        },
        {
          "duration": 0.18604651162790642,
          "durationTicks": 16,
          "midi": 45,
          "name": "A2",
          "ticks": 623,
          "time": 7.244186046511628,
          "velocity": 0.2125984251968504
        },
        {
          "duration": 0.023255813953488413,
          "durationTicks": 2,
          "midi": 55,
          "name": "G3",
          "ticks": 630,
          "time": 7.325581395348837,
          "velocity": 0.3228346456692913
        },
        {
          "duration": 0.11627906976744207,
          "durationTicks": 10,
          "midi": 67,
          "name": "G4",
          "ticks": 640,
          "time": 7.441860465116279,
          "velocity": 0.16535433070866143
        },
        {
          "duration": 0.1511627906976747,
          "durationTicks": 13,
          "midi": 74,
          "name": "D5",
          "ticks": 640,
          "time": 7.441860465116279,
          "velocity": 0.2125984251968504
        },
        {
          "duration": 0.12790697674418627,
          "durationTicks": 11,
          "midi": 55,
          "name": "G3",
          "ticks": 641,
          "time": 7.453488372093023,
          "velocity": 0.4881889763779528
        },
        {
          "duration": 0.10465116279069786,
          "durationTicks": 9,
          "midi": 45,
          "name": "A2",
          "ticks": 644,
          "time": 7.488372093023256,
          "velocity": 0.1889763779527559
        },
        {
          "duration": 0.03488372093023262,
          "durationTicks": 3,
          "midi": 72,
          "name": "C5",
          "ticks": 650,
          "time": 7.558139534883721,
          "velocity": 0.16535433070866143
        },
        {
          "duration": 0.08139534883720945,
          "durationTicks": 7,
          "midi": 55,
          "name": "G3",
          "ticks": 654,
          "time": 7.604651162790698,
          "velocity": 0.11811023622047244
        },
        {
          "duration": 0.23255813953488325,
          "durationTicks": 20,
          "midi": 53,
          "name": "F3",
          "ticks": 662,
          "time": 7.6976744186046515,
          "velocity": 0.49606299212598426
        },
        {
          "duration": 0.22093023255813904,
          "durationTicks": 19,
          "midi": 60,
          "name": "C4",
          "ticks": 662,
          "time": 7.6976744186046515,
          "velocity": 0.3228346456692913
        },
        {
          "duration": 0.10465116279069786,
          "durationTicks": 9,
          "midi": 102,
          "name": "F#7",
          "ticks": 667,
          "time": 7.755813953488372,
          "velocity": 0.07086614173228346
        },
        {
          "duration": 0.04651162790697683,
          "durationTicks": 4,
          "midi": 76,
          "name": "E5",
          "ticks": 671,
          "time": 7.8023255813953485,
          "velocity": 0.11023622047244094
        },
        {
          "duration": 0.09302325581395365,
          "durationTicks": 8,
          "midi": 41,
          "name": "F2",
          "ticks": 674,
          "time": 7.837209302325581,
          "velocity": 0.4251968503937008
        },
        {
          "duration": 0.03488372093023262,
          "durationTicks": 3,
          "midi": 75,
          "name": "D#5",
          "ticks": 675,
          "time": 7.848837209302325,
          "velocity": 0.13385826771653545
        },
        {
          "duration": 0.03488372093023262,
          "durationTicks": 3,
          "midi": 76,
          "name": "E5",
          "ticks": 679,
          "time": 7.895348837209302,
          "velocity": 0.09448818897637795
        },
        {
          "duration": 0.04651162790697683,
          "durationTicks": 4,
          "midi": 42,
          "name": "F#2",
          "ticks": 682,
          "time": 7.930232558139535,
          "velocity": 0.4330708661417323
        },
        {
          "duration": 0.04651162790697683,
          "durationTicks": 4,
          "midi": 54,
          "name": "F#3",
          "ticks": 684,
          "time": 7.953488372093023,
          "velocity": 0.4409448818897638
        },
        {
          "duration": 0.06976744186046435,
          "durationTicks": 6,
          "midi": 60,
          "name": "C4",
          "ticks": 685,
          "time": 7.965116279069767,
          "velocity": 0.11811023622047244
        },
        {
          "duration": 0.023255813953487525,
          "durationTicks": 2,
          "midi": 42,
          "name": "F#2",
          "ticks": 687,
          "time": 7.988372093023256,
          "velocity": 0.41732283464566927
        },
        {
          "duration": 0.023255813953488413,
          "durationTicks": 2,
          "midi": 44,
          "name": "G#2",
          "ticks": 691,
          "time": 8.034883720930232,
          "velocity": 0.4094488188976378
        },
        {
          "duration": 0.03488372093023173,
          "durationTicks": 3,
          "midi": 60,
          "name": "C4",
          "ticks": 692,
          "time": 8.046511627906977,
          "velocity": 0.10236220472440945
        },
        {
          "duration": 0.058139534883720145,
          "durationTicks": 5,
          "midi": 76,
          "name": "E5",
          "ticks": 692,
          "time": 8.046511627906977,
          "velocity": 0.07086614173228346
        },
        {
          "duration": 0.023255813953488413,
          "durationTicks": 2,
          "midi": 55,
          "name": "G3",
          "ticks": 693,
          "time": 8.05813953488372,
          "velocity": 0.36220472440944884
        },
        {
          "duration": 0.03488372093023173,
          "durationTicks": 3,
          "midi": 45,
          "name": "A2",
          "ticks": 694,
          "time": 8.069767441860465,
          "velocity": 0.3700787401574803
        },
        {
          "duration": 0.023255813953488413,
          "durationTicks": 2,
          "midi": 56,
          "name": "G#3",
          "ticks": 695,
          "time": 8.081395348837209,
          "velocity": 0.2677165354330709
        },
        {
          "duration": 0.13953488372093048,
          "durationTicks": 12,
          "midi": 64,
          "name": "E4",
          "ticks": 697,
          "time": 8.104651162790697,
          "velocity": 0.14960629921259844
        },
        {
          "duration": 0.04651162790697683,
          "durationTicks": 4,
          "midi": 46,
          "name": "A#2",
          "ticks": 698,
          "time": 8.116279069767442,
          "velocity": 0.3700787401574803
        },
        {
          "duration": 0.03488372093023173,
          "durationTicks": 3,
          "midi": 57,
          "name": "A3",
          "ticks": 698,
          "time": 8.116279069767442,
          "velocity": 0.2204724409448819
        },
        {
          "duration": 0.06976744186046524,
          "durationTicks": 6,
          "midi": 80,
          "name": "G#5",
          "ticks": 699,
          "time": 8.127906976744185,
          "velocity": 0.07874015748031496
        },
        {
          "duration": 0.06976744186046524,
          "durationTicks": 6,
          "midi": 47,
          "name": "B2",
          "ticks": 702,
          "time": 8.162790697674419,
          "velocity": 0.4094488188976378
        },
        {
          "duration": 0.09302325581395365,
          "durationTicks": 8,
          "midi": 71,
          "name": "B4",
          "ticks": 704,
          "time": 8.186046511627907,
          "velocity": 0.2125984251968504
        },
        {
          "duration": 0.023255813953488413,
          "durationTicks": 2,
          "midi": 48,
          "name": "C3",
          "ticks": 708,
          "time": 8.232558139534884,
          "velocity": 0.4015748031496063
        },
        {
          "duration": 0.023255813953488413,
          "durationTicks": 2,
          "midi": 50,
          "name": "D3",
          "ticks": 711,
          "time": 8.267441860465116,
          "velocity": 0.3543307086614173
        },
        {
          "duration": 0.03488372093023351,
          "durationTicks": 3,
          "midi": 61,
          "name": "C#4",
          "ticks": 711,
          "time": 8.267441860465116,
          "velocity": 0.10236220472440945
        },
        {
          "duration": 0.03488372093023173,
          "durationTicks": 3,
          "midi": 50,
          "name": "D3",
          "ticks": 714,
          "time": 8.30232558139535,
          "velocity": 0.3937007874015748
        },
        {
          "duration": 0.023255813953488413,
          "durationTicks": 2,
          "midi": 51,
          "name": "D#3",
          "ticks": 717,
          "time": 8.337209302325581,
          "velocity": 0.33070866141732286
        },
        {
          "duration": 0.3720930232558146,
          "durationTicks": 32,
          "midi": 78,
          "name": "F#5",
          "ticks": 721,
          "time": 8.383720930232558,
          "velocity": 0.14960629921259844
        },
        {
          "duration": 0.09302325581395365,
          "durationTicks": 8,
          "midi": 96,
          "name": "C7",
          "ticks": 722,
          "time": 8.395348837209303,
          "velocity": 0.16535433070866143
        },
        {
          "duration": 0.05813953488372192,
          "durationTicks": 5,
          "midi": 42,
          "name": "F#2",
          "ticks": 723,
          "time": 8.406976744186046,
          "velocity": 0.2204724409448819
        },
        {
          "duration": 0.10465116279069697,
          "durationTicks": 9,
          "midi": 62,
          "name": "D4",
          "ticks": 723,
          "time": 8.406976744186046,
          "velocity": 0.2047244094488189
        },
        {
          "duration": 0.04651162790697683,
          "durationTicks": 4,
          "midi": 50,
          "name": "D3",
          "ticks": 729,
          "time": 8.476744186046512,
          "velocity": 0.2283464566929134
        },
        {
          "duration": 0.023255813953488413,
          "durationTicks": 2,
          "midi": 56,
          "name": "G#3",
          "ticks": 731,
          "time": 8.5,
          "velocity": 0.3228346456692913
        },
        {
          "duration": 0.11627906976744207,
          "durationTicks": 10,
          "midi": 81,
          "name": "A5",
          "ticks": 732,
          "time": 8.511627906976743,
          "velocity": 0.11811023622047244
        },
        {
          "duration": 0.05813953488372192,
          "durationTicks": 5,
          "midi": 88,
          "name": "E6",
          "ticks": 732,
          "time": 8.511627906976743,
          "velocity": 0.13385826771653545
        },
        {
          "duration": 0.023255813953488413,
          "durationTicks": 2,
          "midi": 49,
          "name": "C#3",
          "ticks": 733,
          "time": 8.523255813953488,
          "velocity": 0.33858267716535434
        },
        {
          "duration": 0.12790697674418539,
          "durationTicks": 11,
          "midi": 57,
          "name": "A3",
          "ticks": 733,
          "time": 8.523255813953488,
          "velocity": 0.3464566929133858
        },
        {
          "duration": 0.08139534883720856,
          "durationTicks": 7,
          "midi": 50,
          "name": "D3",
          "ticks": 735,
          "time": 8.546511627906977,
          "velocity": 0.41732283464566927
        },
        {
          "duration": 0.1511627906976738,
          "durationTicks": 13,
          "midi": 81,
          "name": "A5",
          "ticks": 743,
          "time": 8.63953488372093,
          "velocity": 0.1968503937007874
        },
        {
          "duration": 0.11627906976744207,
          "durationTicks": 10,
          "midi": 88,
          "name": "E6",
          "ticks": 743,
          "time": 8.63953488372093,
          "velocity": 0.08661417322834646
        },
        {
          "duration": 0.03488372093023351,
          "durationTicks": 3,
          "midi": 42,
          "name": "F#2",
          "ticks": 744,
          "time": 8.651162790697674,
          "velocity": 0.1968503937007874
        },
        {
          "duration": 0.12790697674418716,
          "durationTicks": 11,
          "midi": 62,
          "name": "D4",
          "ticks": 744,
          "time": 8.651162790697674,
          "velocity": 0.23622047244094488
        },
        {
          "duration": 0.04651162790697683,
          "durationTicks": 4,
          "midi": 51,
          "name": "D#3",
          "ticks": 745,
          "time": 8.662790697674419,
          "velocity": 0.1968503937007874
        },
        {
          "duration": 0.08139534883721034,
          "durationTicks": 7,
          "midi": 57,
          "name": "A3",
          "ticks": 746,
          "time": 8.674418604651162,
          "velocity": 0.2283464566929134
        },
        {
          "duration": 0.04651162790697683,
          "durationTicks": 4,
          "midi": 50,
          "name": "D3",
          "ticks": 749,
          "time": 8.709302325581396,
          "velocity": 0.14960629921259844
        },
        {
          "duration": 0.023255813953488413,
          "durationTicks": 2,
          "midi": 51,
          "name": "D#3",
          "ticks": 764,
          "time": 8.883720930232558,
          "velocity": 0.31496062992125984
        },
        {
          "duration": 0.10465116279069697,
          "durationTicks": 9,
          "midi": 50,
          "name": "D3",
          "ticks": 766,
          "time": 8.906976744186046,
          "velocity": 0.4015748031496063
        },
        {
          "duration": 0.1511627906976738,
          "durationTicks": 13,
          "midi": 69,
          "name": "A4",
          "ticks": 766,
          "time": 8.906976744186046,
          "velocity": 0.2283464566929134
        },
        {
          "duration": 0.12790697674418539,
          "durationTicks": 11,
          "midi": 76,
          "name": "E5",
          "ticks": 767,
          "time": 8.918604651162791,
          "velocity": 0.11023622047244094
        },
        {
          "duration": 0.1511627906976738,
          "durationTicks": 13,
          "midi": 57,
          "name": "A3",
          "ticks": 768,
          "time": 8.930232558139535,
          "velocity": 0.3464566929133858
        },
        {
          "duration": 0.174418604651164,
          "durationTicks": 15,
          "midi": 50,
          "name": "D3",
          "ticks": 777,
          "time": 9.034883720930232,
          "velocity": 0.4409448818897638
        },
        {
          "duration": 0.15116279069767558,
          "durationTicks": 13,
          "midi": 62,
          "name": "D4",
          "ticks": 799,
          "time": 9.290697674418604,
          "velocity": 0.2677165354330709
        },
        {
          "duration": 0.13953488372093048,
          "durationTicks": 12,
          "midi": 50,
          "name": "D3",
          "ticks": 801,
          "time": 9.313953488372093,
          "velocity": 0.4094488188976378
        },
        {
          "duration": 0.03488372093023351,
          "durationTicks": 3,
          "midi": 55,
          "name": "G3",
          "ticks": 801,
          "time": 9.313953488372093,
          "velocity": 0.4645669291338583
        },
        {
          "duration": 0.10465116279069875,
          "durationTicks": 9,
          "midi": 68,
          "name": "G#4",
          "ticks": 801,
          "time": 9.313953488372093,
          "velocity": 0.15748031496062992
        },
        {
          "duration": 0.11627906976744207,
          "durationTicks": 10,
          "midi": 75,
          "name": "D#5",
          "ticks": 801,
          "time": 9.313953488372093,
          "velocity": 0.13385826771653545
        },
        {
          "duration": 0.03488372093023173,
          "durationTicks": 3,
          "midi": 42,
          "name": "F#2",
          "ticks": 802,
          "time": 9.325581395348838,
          "velocity": 0.14173228346456693
        },
        {
          "duration": 0.08139534883720856,
          "durationTicks": 7,
          "midi": 56,
          "name": "G#3",
          "ticks": 804,
          "time": 9.348837209302326,
          "velocity": 0.4409448818897638
        },
        {
          "duration": 0.04651162790697683,
          "durationTicks": 4,
          "midi": 55,
          "name": "G3",
          "ticks": 811,
          "time": 9.430232558139535,
          "velocity": 0.29133858267716534
        },
        {
          "duration": 0.1627906976744189,
          "durationTicks": 14,
          "midi": 62,
          "name": "D4",
          "ticks": 821,
          "time": 9.546511627906977,
          "velocity": 0.25196850393700787
        },
        {
          "duration": 0.13953488372093048,
          "durationTicks": 12,
          "midi": 55,
          "name": "G3",
          "ticks": 822,
          "time": 9.55813953488372,
          "velocity": 0.5275590551181102
        },
        {
          "duration": 0.04651162790697683,
          "durationTicks": 4,
          "midi": 42,
          "name": "F#2",
          "ticks": 823,
          "time": 9.569767441860465,
          "velocity": 0.23622047244094488
        },
        {
          "duration": 0.03488372093023173,
          "durationTicks": 3,
          "midi": 72,
          "name": "C5",
          "ticks": 833,
          "time": 9.686046511627907,
          "velocity": 0.14173228346456693
        },
        {
          "duration": 0.05813953488372192,
          "durationTicks": 5,
          "midi": 42,
          "name": "F#2",
          "ticks": 834,
          "time": 9.69767441860465,
          "velocity": 0.16535433070866143
        },
        {
          "duration": 0.023255813953488413,
          "durationTicks": 2,
          "midi": 54,
          "name": "F#3",
          "ticks": 834,
          "time": 9.69767441860465,
          "velocity": 0.3228346456692913
        },
        {
          "duration": 0.08139534883721034,
          "durationTicks": 7,
          "midi": 55,
          "name": "G3",
          "ticks": 836,
          "time": 9.720930232558139,
          "velocity": 0.2283464566929134
        },
        {
          "duration": 0.023255813953488413,
          "durationTicks": 2,
          "midi": 50,
          "name": "D3",
          "ticks": 844,
          "time": 9.813953488372093,
          "velocity": 0.4566929133858268
        },
        {
          "duration": 0.09302325581395365,
          "durationTicks": 8,
          "midi": 77,
          "name": "F5",
          "ticks": 844,
          "time": 9.813953488372093,
          "velocity": 0.11811023622047244
        },
        {
          "duration": 0.10465116279069875,
          "durationTicks": 9,
          "midi": 65,
          "name": "F4",
          "ticks": 846,
          "time": 9.837209302325581,
          "velocity": 0.13385826771653545
        },
        {
          "duration": 0.023255813953488413,
          "durationTicks": 2,
          "midi": 50,
          "name": "D3",
          "ticks": 850,
          "time": 9.883720930232558,
          "velocity": 0.41732283464566927
        },
        {
          "duration": 0.023255813953488413,
          "durationTicks": 2,
          "midi": 50,
          "name": "D3",
          "ticks": 853,
          "time": 9.918604651162791,
          "velocity": 0.3700787401574803
        },
        {
          "duration": 0.11627906976744207,
          "durationTicks": 10,
          "midi": 62,
          "name": "D4",
          "ticks": 856,
          "time": 9.953488372093023,
          "velocity": 0.25984251968503935
        },
        {
          "duration": 0.08139534883720856,
          "durationTicks": 7,
          "midi": 50,
          "name": "D3",
          "ticks": 857,
          "time": 9.965116279069768,
          "velocity": 0.3937007874015748
        },
        {
          "duration": 0.1627906976744189,
          "durationTicks": 14,
          "midi": 78,
          "name": "F#5",
          "ticks": 864,
          "time": 10.046511627906977,
          "velocity": 0.16535433070866143
        },
        {
          "duration": 0.023255813953488413,
          "durationTicks": 2,
          "midi": 45,
          "name": "A2",
          "ticks": 865,
          "time": 10.05813953488372,
          "velocity": 0.2755905511811024
        },
        {
          "duration": 0.05813953488372192,
          "durationTicks": 5,
          "midi": 96,
          "name": "C7",
          "ticks": 865,
          "time": 10.05813953488372,
          "velocity": 0.10236220472440945
        },
        {
          "duration": 0.10465116279069875,
          "durationTicks": 9,
          "midi": 50,
          "name": "D3",
          "ticks": 867,
          "time": 10.081395348837209,
          "velocity": 0.3858267716535433
        },
        {
          "duration": 0.023255813953488413,
          "durationTicks": 2,
          "midi": 61,
          "name": "C#4",
          "ticks": 876,
          "time": 10.186046511627907,
          "velocity": 0.2283464566929134
        },
        {
          "duration": 0.05813953488372192,
          "durationTicks": 5,
          "midi": 69,
          "name": "A4",
          "ticks": 877,
          "time": 10.19767441860465,
          "velocity": 0.07874015748031496
        },
        {
          "duration": 0.04651162790697683,
          "durationTicks": 4,
          "midi": 42,
          "name": "F#2",
          "ticks": 878,
          "time": 10.209302325581396,
          "velocity": 0.18110236220472442
        },
        {
          "duration": 0.11627906976744207,
          "durationTicks": 10,
          "midi": 62,
          "name": "D4",
          "ticks": 878,
          "time": 10.209302325581396,
          "velocity": 0.2677165354330709
        },
        {
          "duration": 0.023255813953488413,
          "durationTicks": 2,
          "midi": 51,
          "name": "D#3",
          "ticks": 879,
          "time": 10.220930232558139,
          "velocity": 0.4645669291338583
        },
        {
          "duration": 0.09302325581395365,
          "durationTicks": 8,
          "midi": 65,
          "name": "F4",
          "ticks": 881,
          "time": 10.244186046511627,
          "velocity": 0.16535433070866143
        },
        {
          "duration": 0.023255813953488413,
          "durationTicks": 2,
          "midi": 50,
          "name": "D3",
          "ticks": 882,
          "time": 10.255813953488373,
          "velocity": 0.4330708661417323
        },
        {
          "duration": 0.023255813953488413,
          "durationTicks": 2,
          "midi": 49,
          "name": "C#3",
          "ticks": 887,
          "time": 10.313953488372093,
          "velocity": 0.2440944881889764
        },
        {
          "duration": 0.04651162790697683,
          "durationTicks": 4,
          "midi": 89,
          "name": "F6",
          "ticks": 887,
          "time": 10.313953488372093,
          "velocity": 0.2125984251968504
        },
        {
          "duration": 0.04651162790697683,
          "durationTicks": 4,
          "midi": 42,
          "name": "F#2",
          "ticks": 888,
          "time": 10.325581395348838,
          "velocity": 0.14960629921259844
        },
        {
          "duration": 0.25581395348837255,
          "durationTicks": 22,
          "midi": 55,
          "name": "G3",
          "ticks": 889,
          "time": 10.337209302325581,
          "velocity": 0.5196850393700787
        },
        {
          "duration": 0.24418604651162745,
          "durationTicks": 21,
          "midi": 74,
          "name": "D5",
          "ticks": 889,
          "time": 10.337209302325581,
          "velocity": 0.18110236220472442
        },
        {
          "duration": 0.03488372093023173,
          "durationTicks": 3,
          "midi": 47,
          "name": "B2",
          "ticks": 900,
          "time": 10.465116279069768,
          "velocity": 0.11811023622047244
        },
        {
          "duration": 0.12790697674418539,
          "durationTicks": 11,
          "midi": 60,
          "name": "C4",
          "ticks": 900,
          "time": 10.465116279069768,
          "velocity": 0.2992125984251969
        },
        {
          "duration": 0.023255813953488413,
          "durationTicks": 2,
          "midi": 48,
          "name": "C3",
          "ticks": 910,
          "time": 10.581395348837209,
          "velocity": 0.29133858267716534
        },
        {
          "duration": 0.03488372093023173,
          "durationTicks": 3,
          "midi": 62,
          "name": "D4",
          "ticks": 911,
          "time": 10.593023255813954,
          "velocity": 0.1889763779527559
        },
        {
          "duration": 0.26744186046511587,
          "durationTicks": 23,
          "midi": 78,
          "name": "F#5",
          "ticks": 911,
          "time": 10.593023255813954,
          "velocity": 0.15748031496062992
        },
        {
          "duration": 0.023255813953488413,
          "durationTicks": 2,
          "midi": 49,
          "name": "C#3",
          "ticks": 915,
          "time": 10.63953488372093,
          "velocity": 0.4015748031496063
        },
        {
          "duration": 0.023255813953488413,
          "durationTicks": 2,
          "midi": 47,
          "name": "B2",
          "ticks": 918,
          "time": 10.674418604651162,
          "velocity": 0.2992125984251969
        },
        {
          "duration": 0.04651162790697683,
          "durationTicks": 4,
          "midi": 62,
          "name": "D4",
          "ticks": 918,
          "time": 10.674418604651162,
          "velocity": 0.2677165354330709
        },
        {
          "duration": 0.15116279069767558,
          "durationTicks": 13,
          "midi": 74,
          "name": "D5",
          "ticks": 922,
          "time": 10.720930232558139,
          "velocity": 0.23622047244094488
        },
        {
          "duration": 0.1627906976744189,
          "durationTicks": 14,
          "midi": 81,
          "name": "A5",
          "ticks": 922,
          "time": 10.720930232558139,
          "velocity": 0.18110236220472442
        },
        {
          "duration": 0.06976744186046524,
          "durationTicks": 6,
          "midi": 67,
          "name": "G4",
          "ticks": 923,
          "time": 10.732558139534884,
          "velocity": 0.08661417322834646
        },
        {
          "duration": 0.09302325581395365,
          "durationTicks": 8,
          "midi": 72,
          "name": "C5",
          "ticks": 924,
          "time": 10.744186046511627,
          "velocity": 0.1968503937007874
        },
        {
          "duration": 0.023255813953488413,
          "durationTicks": 2,
          "midi": 47,
          "name": "B2",
          "ticks": 925,
          "time": 10.755813953488373,
          "velocity": 0.3464566929133858
        },
        {
          "duration": 0.023255813953488413,
          "durationTicks": 2,
          "midi": 60,
          "name": "C4",
          "ticks": 925,
          "time": 10.755813953488373,
          "velocity": 0.3543307086614173
        },
        {
          "duration": 0.04651162790697683,
          "durationTicks": 4,
          "midi": 48,
          "name": "C3",
          "ticks": 927,
          "time": 10.779069767441861,
          "velocity": 0.41732283464566927
        },
        {
          "duration": 0.023255813953488413,
          "durationTicks": 2,
          "midi": 62,
          "name": "D4",
          "ticks": 928,
          "time": 10.790697674418604,
          "velocity": 0.2992125984251969
        },
        {
          "duration": 0.023255813953488413,
          "durationTicks": 2,
          "midi": 62,
          "name": "D4",
          "ticks": 931,
          "time": 10.825581395348838,
          "velocity": 0.2677165354330709
        },
        {
          "duration": 0.03488372093023351,
          "durationTicks": 3,
          "midi": 98,
          "name": "D7",
          "ticks": 932,
          "time": 10.837209302325581,
          "velocity": 0.2125984251968504
        },
        {
          "duration": 0.023255813953488413,
          "durationTicks": 2,
          "midi": 49,
          "name": "C#3",
          "ticks": 933,
          "time": 10.848837209302326,
          "velocity": 0.3543307086614173
        },
        {
          "duration": 0.023255813953488413,
          "durationTicks": 2,
          "midi": 60,
          "name": "C4",
          "ticks": 933,
          "time": 10.848837209302326,
          "velocity": 0.2283464566929134
        },
        {
          "duration": 0.05813953488372192,
          "durationTicks": 5,
          "midi": 50,
          "name": "D3",
          "ticks": 938,
          "time": 10.906976744186046,
          "velocity": 0.1968503937007874
        },
        {
          "duration": 0.023255813953488413,
          "durationTicks": 2,
          "midi": 60,
          "name": "C4",
          "ticks": 944,
          "time": 10.976744186046512,
          "velocity": 0.33070866141732286
        },
        {
          "duration": 0.04651162790697683,
          "durationTicks": 4,
          "midi": 48,
          "name": "C3",
          "ticks": 946,
          "time": 11,
          "velocity": 0.4330708661417323
        },
        {
          "duration": 0.023255813953488413,
          "durationTicks": 2,
          "midi": 56,
          "name": "G#3",
          "ticks": 946,
          "time": 11,
          "velocity": 0.44881889763779526
        },
        {
          "duration": 0.1627906976744189,
          "durationTicks": 14,
          "midi": 76,
          "name": "E5",
          "ticks": 946,
          "time": 11,
          "velocity": 0.1732283464566929
        },
        {
          "duration": 0.174418604651164,
          "durationTicks": 15,
          "midi": 69,
          "name": "A4",
          "ticks": 947,
          "time": 11.011627906976743,
          "velocity": 0.23622047244094488
        },
        {
          "duration": 0.09302325581395365,
          "durationTicks": 8,
          "midi": 57,
          "name": "A3",
          "ticks": 948,
          "time": 11.023255813953488,
          "velocity": 0.41732283464566927
        },
        {
          "duration": 0.05813953488372192,
          "durationTicks": 5,
          "midi": 48,
          "name": "C3",
          "ticks": 951,
          "time": 11.05813953488372,
          "velocity": 0.3937007874015748
        },
        {
          "duration": 0.04651162790697683,
          "durationTicks": 4,
          "midi": 48,
          "name": "C3",
          "ticks": 957,
          "time": 11.127906976744185,
          "velocity": 0.4094488188976378
        },
        {
          "duration": 0.03488372093023351,
          "durationTicks": 3,
          "midi": 57,
          "name": "A3",
          "ticks": 957,
          "time": 11.127906976744185,
          "velocity": 0.36220472440944884
        },
        {
          "duration": 0.05813953488372192,
          "durationTicks": 5,
          "midi": 60,
          "name": "C4",
          "ticks": 961,
          "time": 11.174418604651162,
          "velocity": 0.14960629921259844
        },
        {
          "duration": 0.06976744186046524,
          "durationTicks": 6,
          "midi": 48,
          "name": "C3",
          "ticks": 962,
          "time": 11.186046511627907,
          "velocity": 0.3937007874015748
        },
        {
          "duration": 0.05813953488372192,
          "durationTicks": 5,
          "midi": 55,
          "name": "G3",
          "ticks": 967,
          "time": 11.244186046511627,
          "velocity": 0.2440944881889764
        },
        {
          "duration": 0.03488372093023173,
          "durationTicks": 3,
          "midi": 70,
          "name": "A#4",
          "ticks": 968,
          "time": 11.255813953488373,
          "velocity": 0.2047244094488189
        },
        {
          "duration": 0.03488372093023173,
          "durationTicks": 3,
          "midi": 42,
          "name": "F#2",
          "ticks": 970,
          "time": 11.279069767441861,
          "velocity": 0.2204724409448819
        },
        {
          "duration": 0.04651162790697683,
          "durationTicks": 4,
          "midi": 60,
          "name": "C4",
          "ticks": 978,
          "time": 11.372093023255815,
          "velocity": 0.3543307086614173
        },
        {
          "duration": 0.1511627906976738,
          "durationTicks": 13,
          "midi": 48,
          "name": "C3",
          "ticks": 980,
          "time": 11.395348837209303,
          "velocity": 0.41732283464566927
        },
        {
          "duration": 0.12790697674418539,
          "durationTicks": 11,
          "midi": 68,
          "name": "G#4",
          "ticks": 980,
          "time": 11.395348837209303,
          "velocity": 0.2204724409448819
        },
        {
          "duration": 0.023255813953488413,
          "durationTicks": 2,
          "midi": 55,
          "name": "G3",
          "ticks": 981,
          "time": 11.406976744186046,
          "velocity": 0.4881889763779528
        },
        {
          "duration": 0.11627906976744207,
          "durationTicks": 10,
          "midi": 75,
          "name": "D#5",
          "ticks": 981,
          "time": 11.406976744186046,
          "velocity": 0.13385826771653545
        },
        {
          "duration": 0.08139534883720856,
          "durationTicks": 7,
          "midi": 56,
          "name": "G#3",
          "ticks": 983,
          "time": 11.430232558139535,
          "velocity": 0.47244094488188976
        },
        {
          "duration": 0.023255813953488413,
          "durationTicks": 2,
          "midi": 55,
          "name": "G3",
          "ticks": 990,
          "time": 11.511627906976743,
          "velocity": 0.3543307086614173
        },
        {
          "duration": 0.03488372093023173,
          "durationTicks": 3,
          "midi": 70,
          "name": "A#4",
          "ticks": 991,
          "time": 11.523255813953488,
          "velocity": 0.15748031496062992
        },
        {
          "duration": 0.1511627906976738,
          "durationTicks": 13,
          "midi": 48,
          "name": "C3",
          "ticks": 1001,
          "time": 11.63953488372093,
          "velocity": 0.41732283464566927
        },
        {
          "duration": 0.13953488372093048,
          "durationTicks": 12,
          "midi": 55,
          "name": "G3",
          "ticks": 1003,
          "time": 11.662790697674419,
          "velocity": 0.5354330708661418
        },
        {
          "duration": 0.13953488372093048,
          "durationTicks": 12,
          "midi": 74,
          "name": "D5",
          "ticks": 1004,
          "time": 11.674418604651162,
          "velocity": 0.23622047244094488
        },
        {
          "duration": 0.09302325581395365,
          "durationTicks": 8,
          "midi": 55,
          "name": "G3",
          "ticks": 1016,
          "time": 11.813953488372093,
          "velocity": 0.2204724409448819
        },
        {
          "duration": 0.10465116279069697,
          "durationTicks": 9,
          "midi": 60,
          "name": "C4",
          "ticks": 1023,
          "time": 11.895348837209303,
          "velocity": 0.3464566929133858
        },
        {
          "duration": 0.05813953488372192,
          "durationTicks": 5,
          "midi": 53,
          "name": "F3",
          "ticks": 1024,
          "time": 11.906976744186046,
          "velocity": 0.3700787401574803
        },
        {
          "duration": 0.08139534883720856,
          "durationTicks": 7,
          "midi": 48,
          "name": "C3",
          "ticks": 1026,
          "time": 11.930232558139535,
          "velocity": 0.3779527559055118
        },
        {
          "duration": 0.03488372093023173,
          "durationTicks": 3,
          "midi": 53,
          "name": "F3",
          "ticks": 1032,
          "time": 12,
          "velocity": 0.3228346456692913
        },
        {
          "duration": 0.11627906976744207,
          "durationTicks": 10,
          "midi": 48,
          "name": "C3",
          "ticks": 1034,
          "time": 12.023255813953488,
          "velocity": 0.3858267716535433
        },
        {
          "duration": 0.023255813953488413,
          "durationTicks": 2,
          "midi": 55,
          "name": "G3",
          "ticks": 1045,
          "time": 12.151162790697674,
          "velocity": 0.29133858267716534
        },
        {
          "duration": 0.04651162790697683,
          "durationTicks": 4,
          "midi": 62,
          "name": "D4",
          "ticks": 1046,
          "time": 12.162790697674419,
          "velocity": 0.25984251968503935
        },
        {
          "duration": 0.12790697674418539,
          "durationTicks": 11,
          "midi": 78,
          "name": "F#5",
          "ticks": 1046,
          "time": 12.162790697674419,
          "velocity": 0.14960629921259844
        },
        {
          "duration": 0.023255813953488413,
          "durationTicks": 2,
          "midi": 49,
          "name": "C#3",
          "ticks": 1048,
          "time": 12.186046511627907,
          "velocity": 0.4251968503937008
        },
        {
          "duration": 0.03488372093023173,
          "durationTicks": 3,
          "midi": 48,
          "name": "C3",
          "ticks": 1050,
          "time": 12.209302325581396,
          "velocity": 0.3779527559055118
        },
        {
          "duration": 0.06976744186046524,
          "durationTicks": 6,
          "midi": 62,
          "name": "D4",
          "ticks": 1051,
          "time": 12.220930232558139,
          "velocity": 0.2283464566929134
        },
        {
          "duration": 0.023255813953488413,
          "durationTicks": 2,
          "midi": 49,
          "name": "C#3",
          "ticks": 1053,
          "time": 12.244186046511627,
          "velocity": 0.4251968503937008
        },
        {
          "duration": 0.023255813953488413,
          "durationTicks": 2,
          "midi": 50,
          "name": "D3",
          "ticks": 1055,
          "time": 12.267441860465116,
          "velocity": 0.36220472440944884
        },
        {
          "duration": 0.12790697674418716,
          "durationTicks": 11,
          "midi": 60,
          "name": "C4",
          "ticks": 1057,
          "time": 12.290697674418604,
          "velocity": 0.30708661417322836
        },
        {
          "duration": 0.11627906976744207,
          "durationTicks": 10,
          "midi": 48,
          "name": "C3",
          "ticks": 1059,
          "time": 12.313953488372093,
          "velocity": 0.3858267716535433
        },
        {
          "duration": 0.2790697674418592,
          "durationTicks": 24,
          "midi": 55,
          "name": "G3",
          "ticks": 1068,
          "time": 12.418604651162791,
          "velocity": 0.5196850393700787
        },
        {
          "duration": 0.11627906976744207,
          "durationTicks": 10,
          "midi": 74,
          "name": "D5",
          "ticks": 1069,
          "time": 12.430232558139535,
          "velocity": 0.15748031496062992
        },
        {
          "duration": 0.174418604651164,
          "durationTicks": 15,
          "midi": 47,
          "name": "B2",
          "ticks": 1078,
          "time": 12.534883720930232,
          "velocity": 0.47244094488188976
        },
        {
          "duration": 0.13953488372093048,
          "durationTicks": 12,
          "midi": 71,
          "name": "B4",
          "ticks": 1079,
          "time": 12.546511627906977,
          "velocity": 0.29133858267716534
        },
        {
          "duration": 0.12790697674418539,
          "durationTicks": 11,
          "midi": 74,
          "name": "D5",
          "ticks": 1081,
          "time": 12.569767441860465,
          "velocity": 0.1732283464566929
        },
        {
          "duration": 0.12790697674418716,
          "durationTicks": 11,
          "midi": 66,
          "name": "F#4",
          "ticks": 1082,
          "time": 12.581395348837209,
          "velocity": 0.07086614173228346
        },
        {
          "duration": 0.38372093023255793,
          "durationTicks": 33,
          "midi": 62,
          "name": "D4",
          "ticks": 1092,
          "time": 12.69767441860465,
          "velocity": 0.3464566929133858
        },
        {
          "duration": 0.023255813953488413,
          "durationTicks": 2,
          "midi": 48,
          "name": "C3",
          "ticks": 1093,
          "time": 12.709302325581396,
          "velocity": 0.4645669291338583
        },
        {
          "duration": 0.22093023255813904,
          "durationTicks": 19,
          "midi": 71,
          "name": "B4",
          "ticks": 1093,
          "time": 12.709302325581396,
          "velocity": 0.2677165354330709
        },
        {
          "duration": 0.023255813953488413,
          "durationTicks": 2,
          "midi": 47,
          "name": "B2",
          "ticks": 1095,
          "time": 12.732558139534884,
          "velocity": 0.4015748031496063
        },
        {
          "duration": 0.04651162790697683,
          "durationTicks": 4,
          "midi": 59,
          "name": "B3",
          "ticks": 1098,
          "time": 12.767441860465116,
          "velocity": 0.2125984251968504
        },
        {
          "duration": 0.023255813953488413,
          "durationTicks": 2,
          "midi": 58,
          "name": "A#3",
          "ticks": 1102,
          "time": 12.813953488372093,
          "velocity": 0.28346456692913385
        },
        {
          "duration": 0.13953488372093048,
          "durationTicks": 12,
          "midi": 66,
          "name": "F#4",
          "ticks": 1102,
          "time": 12.813953488372093,
          "velocity": 0.13385826771653545
        },
        {
          "duration": 0.023255813953488413,
          "durationTicks": 2,
          "midi": 75,
          "name": "D#5",
          "ticks": 1103,
          "time": 12.825581395348838,
          "velocity": 0.23622047244094488
        },
        {
          "duration": 0.03488372093023351,
          "durationTicks": 3,
          "midi": 50,
          "name": "D3",
          "ticks": 1104,
          "time": 12.837209302325581,
          "velocity": 0.2992125984251969
        },
        {
          "duration": 0.12790697674418716,
          "durationTicks": 11,
          "midi": 81,
          "name": "A5",
          "ticks": 1106,
          "time": 12.86046511627907,
          "velocity": 0.1889763779527559
        },
        {
          "duration": 0.023255813953488413,
          "durationTicks": 2,
          "midi": 50,
          "name": "D3",
          "ticks": 1108,
          "time": 12.883720930232558,
          "velocity": 0.23622047244094488
        },
        {
          "duration": 0.023255813953488413,
          "durationTicks": 2,
          "midi": 59,
          "name": "B3",
          "ticks": 1109,
          "time": 12.895348837209303,
          "velocity": 0.2283464566929134
        },
        {
          "duration": 0.023255813953488413,
          "durationTicks": 2,
          "midi": 50,
          "name": "D3",
          "ticks": 1111,
          "time": 12.918604651162791,
          "velocity": 0.23622047244094488
        },
        {
          "duration": 0.03488372093023351,
          "durationTicks": 3,
          "midi": 59,
          "name": "B3",
          "ticks": 1112,
          "time": 12.930232558139535,
          "velocity": 0.16535433070866143
        },
        {
          "duration": 0.11627906976744207,
          "durationTicks": 10,
          "midi": 50,
          "name": "D3",
          "ticks": 1114,
          "time": 12.953488372093023,
          "velocity": 0.29133858267716534
        },
        {
          "duration": 0.023255813953488413,
          "durationTicks": 2,
          "midi": 57,
          "name": "A3",
          "ticks": 1124,
          "time": 13.069767441860465,
          "velocity": 0.4094488188976378
        },
        {
          "duration": 0.023255813953488413,
          "durationTicks": 2,
          "midi": 45,
          "name": "A2",
          "ticks": 1125,
          "time": 13.081395348837209,
          "velocity": 0.3543307086614173
        },
        {
          "duration": 0.09302325581395365,
          "durationTicks": 8,
          "midi": 66,
          "name": "F#4",
          "ticks": 1125,
          "time": 13.081395348837209,
          "velocity": 0.07874015748031496
        },
        {
          "duration": 0.1744186046511622,
          "durationTicks": 15,
          "midi": 69,
          "name": "A4",
          "ticks": 1126,
          "time": 13.093023255813954,
          "velocity": 0.2283464566929134
        },
        {
          "duration": 0.06976744186046524,
          "durationTicks": 6,
          "midi": 71,
          "name": "B4",
          "ticks": 1126,
          "time": 13.093023255813954,
          "velocity": 0.2047244094488189
        },
        {
          "duration": 0.11627906976744207,
          "durationTicks": 10,
          "midi": 57,
          "name": "A3",
          "ticks": 1128,
          "time": 13.116279069767442,
          "velocity": 0.4094488188976378
        },
        {
          "duration": 0.10465116279069697,
          "durationTicks": 9,
          "midi": 76,
          "name": "E5",
          "ticks": 1128,
          "time": 13.116279069767442,
          "velocity": 0.09448818897637795
        },
        {
          "duration": 0.09302325581395365,
          "durationTicks": 8,
          "midi": 66,
          "name": "F#4",
          "ticks": 1136,
          "time": 13.209302325581396,
          "velocity": 0.13385826771653545
        },
        {
          "duration": 0.06976744186046524,
          "durationTicks": 6,
          "midi": 71,
          "name": "B4",
          "ticks": 1136,
          "time": 13.209302325581396,
          "velocity": 0.1889763779527559
        },
        {
          "duration": 0.023255813953488413,
          "durationTicks": 2,
          "midi": 48,
          "name": "C3",
          "ticks": 1138,
          "time": 13.232558139534884,
          "velocity": 0.3937007874015748
        },
        {
          "duration": 0.10465116279069697,
          "durationTicks": 9,
          "midi": 59,
          "name": "B3",
          "ticks": 1140,
          "time": 13.255813953488373,
          "velocity": 0.33858267716535434
        },
        {
          "duration": 0.04651162790697683,
          "durationTicks": 4,
          "midi": 62,
          "name": "D4",
          "ticks": 1144,
          "time": 13.30232558139535,
          "velocity": 0.16535433070866143
        },
        {
          "duration": 0.023255813953488413,
          "durationTicks": 2,
          "midi": 48,
          "name": "C3",
          "ticks": 1146,
          "time": 13.325581395348838,
          "velocity": 0.3858267716535433
        },
        {
          "duration": 0.05813953488372192,
          "durationTicks": 5,
          "midi": 42,
          "name": "F#2",
          "ticks": 1151,
          "time": 13.383720930232558,
          "velocity": 0.2047244094488189
        },
        {
          "duration": 0.03488372093023173,
          "durationTicks": 3,
          "midi": 50,
          "name": "D3",
          "ticks": 1154,
          "time": 13.418604651162791,
          "velocity": 0.07086614173228346
        },
        {
          "duration": 0.11627906976744207,
          "durationTicks": 10,
          "midi": 71,
          "name": "B4",
          "ticks": 1159,
          "time": 13.476744186046512,
          "velocity": 0.25196850393700787
        },
        {
          "duration": 0.10465116279069697,
          "durationTicks": 9,
          "midi": 47,
          "name": "B2",
          "ticks": 1161,
          "time": 13.5,
          "velocity": 0.3779527559055118
        },
        {
          "duration": 0.11627906976744207,
          "durationTicks": 10,
          "midi": 75,
          "name": "D#5",
          "ticks": 1161,
          "time": 13.5,
          "velocity": 0.09448818897637795
        },
        {
          "duration": 0.10465116279069875,
          "durationTicks": 9,
          "midi": 56,
          "name": "G#3",
          "ticks": 1162,
          "time": 13.511627906976743,
          "velocity": 0.47244094488188976
        },
        {
          "duration": 0.03488372093023173,
          "durationTicks": 3,
          "midi": 70,
          "name": "A#4",
          "ticks": 1171,
          "time": 13.616279069767442,
          "velocity": 0.1732283464566929
        },
        {
          "duration": 0.023255813953488413,
          "durationTicks": 2,
          "midi": 41,
          "name": "F2",
          "ticks": 1172,
          "time": 13.627906976744185,
          "velocity": 0.29133858267716534
        },
        {
          "duration": 0.03488372093023351,
          "durationTicks": 3,
          "midi": 59,
          "name": "B3",
          "ticks": 1172,
          "time": 13.627906976744185,
          "velocity": 0.07086614173228346
        },
        {
          "duration": 0.04651162790697683,
          "durationTicks": 4,
          "midi": 42,
          "name": "F#2",
          "ticks": 1174,
          "time": 13.651162790697674,
          "velocity": 0.2047244094488189
        },
        {
          "duration": 0.10465116279069697,
          "durationTicks": 9,
          "midi": 67,
          "name": "G4",
          "ticks": 1181,
          "time": 13.732558139534884,
          "velocity": 0.1732283464566929
        },
        {
          "duration": 0.11627906976744207,
          "durationTicks": 10,
          "midi": 71,
          "name": "B4",
          "ticks": 1181,
          "time": 13.732558139534884,
          "velocity": 0.2204724409448819
        },
        {
          "duration": 0.12790697674418539,
          "durationTicks": 11,
          "midi": 74,
          "name": "D5",
          "ticks": 1181,
          "time": 13.732558139534884,
          "velocity": 0.15748031496062992
        },
        {
          "duration": 0.1860465116279073,
          "durationTicks": 16,
          "midi": 55,
          "name": "G3",
          "ticks": 1182,
          "time": 13.744186046511627,
          "velocity": 0.5196850393700787
        },
        {
          "duration": 0.11627906976744207,
          "durationTicks": 10,
          "midi": 47,
          "name": "B2",
          "ticks": 1184,
          "time": 13.767441860465116,
          "velocity": 0.3858267716535433
        },
        {
          "duration": 0.023255813953486637,
          "durationTicks": 2,
          "midi": 45,
          "name": "A2",
          "ticks": 1203,
          "time": 13.988372093023257,
          "velocity": 0.4094488188976378
        },
        {
          "duration": 0.08139534883720856,
          "durationTicks": 7,
          "midi": 66,
          "name": "F#4",
          "ticks": 1203,
          "time": 13.988372093023257,
          "velocity": 0.1889763779527559
        },
        {
          "duration": 0.13953488372093048,
          "durationTicks": 12,
          "midi": 53,
          "name": "F3",
          "ticks": 1204,
          "time": 14,
          "velocity": 0.3858267716535433
        },
        {
          "duration": 0.10465116279069697,
          "durationTicks": 9,
          "midi": 59,
          "name": "B3",
          "ticks": 1204,
          "time": 14,
          "velocity": 0.3228346456692913
        },
        {
          "duration": 0.06976744186046524,
          "durationTicks": 6,
          "midi": 77,
          "name": "F5",
          "ticks": 1204,
          "time": 14,
          "velocity": 0.08661417322834646
        },
        {
          "duration": 0.023255813953488413,
          "durationTicks": 2,
          "midi": 47,
          "name": "B2",
          "ticks": 1205,
          "time": 14.011627906976743,
          "velocity": 0.3228346456692913
        },
        {
          "duration": 0.06976744186046524,
          "durationTicks": 6,
          "midi": 81,
          "name": "A5",
          "ticks": 1205,
          "time": 14.011627906976743,
          "velocity": 0.07086614173228346
        },
        {
          "duration": 0.058139534883720145,
          "durationTicks": 5,
          "midi": 47,
          "name": "B2",
          "ticks": 1208,
          "time": 14.046511627906977,
          "velocity": 0.33070866141732286
        },
        {
          "duration": 0.06976744186046524,
          "durationTicks": 6,
          "midi": 66,
          "name": "F#4",
          "ticks": 1214,
          "time": 14.116279069767442,
          "velocity": 0.09448818897637795
        },
        {
          "duration": 0.09302325581395365,
          "durationTicks": 8,
          "midi": 71,
          "name": "B4",
          "ticks": 1214,
          "time": 14.116279069767442,
          "velocity": 0.2283464566929134
        },
        {
          "duration": 0.20930232558139572,
          "durationTicks": 18,
          "midi": 59,
          "name": "B3",
          "ticks": 1215,
          "time": 14.127906976744185,
          "velocity": 0.33858267716535434
        },
        {
          "duration": 0.09302325581395365,
          "durationTicks": 8,
          "midi": 47,
          "name": "B2",
          "ticks": 1216,
          "time": 14.13953488372093,
          "velocity": 0.3543307086614173
        },
        {
          "duration": 0.023255813953488413,
          "durationTicks": 2,
          "midi": 46,
          "name": "A#2",
          "ticks": 1224,
          "time": 14.232558139534884,
          "velocity": 0.33858267716535434
        },
        {
          "duration": 0.05813953488372192,
          "durationTicks": 5,
          "midi": 66,
          "name": "F#4",
          "ticks": 1225,
          "time": 14.244186046511627,
          "velocity": 0.11811023622047244
        },
        {
          "duration": 0.04651162790697683,
          "durationTicks": 4,
          "midi": 47,
          "name": "B2",
          "ticks": 1226,
          "time": 14.255813953488373,
          "velocity": 0.3779527559055118
        },
        {
          "duration": 0.12790697674418716,
          "durationTicks": 11,
          "midi": 78,
          "name": "F#5",
          "ticks": 1227,
          "time": 14.267441860465116,
          "velocity": 0.11811023622047244
        },
        {
          "duration": 0.05813953488372192,
          "durationTicks": 5,
          "midi": 96,
          "name": "C7",
          "ticks": 1227,
          "time": 14.267441860465116,
          "velocity": 0.11811023622047244
        },
        {
          "duration": 0.023255813953488413,
          "durationTicks": 2,
          "midi": 48,
          "name": "C3",
          "ticks": 1230,
          "time": 14.30232558139535,
          "velocity": 0.4094488188976378
        },
        {
          "duration": 0.058139534883720145,
          "durationTicks": 5,
          "midi": 62,
          "name": "D4",
          "ticks": 1232,
          "time": 14.325581395348838,
          "velocity": 0.2125984251968504
        },
        {
          "duration": 0.023255813953488413,
          "durationTicks": 2,
          "midi": 48,
          "name": "C3",
          "ticks": 1233,
          "time": 14.337209302325581,
          "velocity": 0.4094488188976378
        },
        {
          "duration": 0.10465116279069875,
          "durationTicks": 9,
          "midi": 71,
          "name": "B4",
          "ticks": 1237,
          "time": 14.383720930232558,
          "velocity": 0.2204724409448819
        },
        {
          "duration": 0.023255813953488413,
          "durationTicks": 2,
          "midi": 52,
          "name": "E3",
          "ticks": 1238,
          "time": 14.395348837209303,
          "velocity": 0.3700787401574803
        },
        {
          "duration": 0.1395348837209287,
          "durationTicks": 12,
          "midi": 59,
          "name": "B3",
          "ticks": 1238,
          "time": 14.395348837209303,
          "velocity": 0.25196850393700787
        },
        {
          "duration": 0.10465116279069697,
          "durationTicks": 9,
          "midi": 47,
          "name": "B2",
          "ticks": 1239,
          "time": 14.406976744186046,
          "velocity": 0.3543307086614173
        },
        {
          "duration": 0.09302325581395365,
          "durationTicks": 8,
          "midi": 65,
          "name": "F4",
          "ticks": 1239,
          "time": 14.406976744186046,
          "velocity": 0.1732283464566929
        },
        {
          "duration": 0.06976744186046524,
          "durationTicks": 6,
          "midi": 53,
          "name": "F3",
          "ticks": 1240,
          "time": 14.418604651162791,
          "velocity": 0.33070866141732286
        },
        {
          "duration": 0.13953488372093048,
          "durationTicks": 12,
          "midi": 55,
          "name": "G3",
          "ticks": 1249,
          "time": 14.523255813953488,
          "velocity": 0.5118110236220472
        },
        {
          "duration": 0.10465116279069697,
          "durationTicks": 9,
          "midi": 74,
          "name": "D5",
          "ticks": 1249,
          "time": 14.523255813953488,
          "velocity": 0.18110236220472442
        },
        {
          "duration": 0.023255813953488413,
          "durationTicks": 2,
          "midi": 47,
          "name": "B2",
          "ticks": 1260,
          "time": 14.651162790697674,
          "velocity": 0.29133858267716534
        },
        {
          "duration": 0.41860465116278966,
          "durationTicks": 36,
          "midi": 65,
          "name": "F4",
          "ticks": 1261,
          "time": 14.662790697674419,
          "velocity": 0.25196850393700787
        },
        {
          "duration": 0.2906976744186043,
          "durationTicks": 25,
          "midi": 70,
          "name": "A#4",
          "ticks": 1261,
          "time": 14.662790697674419,
          "velocity": 0.29133858267716534
        },
        {
          "duration": 0.1627906976744189,
          "durationTicks": 14,
          "midi": 80,
          "name": "G#5",
          "ticks": 1262,
          "time": 14.674418604651162,
          "velocity": 0.10236220472440945
        },
        {
          "duration": 0.06976744186046524,
          "durationTicks": 6,
          "midi": 86,
          "name": "D6",
          "ticks": 1262,
          "time": 14.674418604651162,
          "velocity": 0.14173228346456693
        },
        {
          "duration": 0.15116279069767558,
          "durationTicks": 13,
          "midi": 96,
          "name": "C7",
          "ticks": 1262,
          "time": 14.674418604651162,
          "velocity": 0.14173228346456693
        },
        {
          "duration": 0.04651162790697683,
          "durationTicks": 4,
          "midi": 97,
          "name": "C#7",
          "ticks": 1262,
          "time": 14.674418604651162,
          "velocity": 0.08661417322834646
        },
        {
          "duration": 0.4767441860465116,
          "durationTicks": 41,
          "midi": 46,
          "name": "A#2",
          "ticks": 1263,
          "time": 14.686046511627907,
          "velocity": 0.47244094488188976
        },
        {
          "duration": 0.25581395348837255,
          "durationTicks": 22,
          "midi": 58,
          "name": "A#3",
          "ticks": 1263,
          "time": 14.686046511627907,
          "velocity": 0.4881889763779528
        },
        {
          "duration": 0.6511627906976756,
          "durationTicks": 56,
          "midi": 74,
          "name": "D5",
          "ticks": 1264,
          "time": 14.69767441860465,
          "velocity": 0.28346456692913385
        },
        {
          "duration": 0.06976744186046524,
          "durationTicks": 6,
          "midi": 93,
          "name": "A6",
          "ticks": 1265,
          "time": 14.709302325581396,
          "velocity": 0.08661417322834646
        },
        {
          "duration": 0.12790697674418539,
          "durationTicks": 11,
          "midi": 53,
          "name": "F3",
          "ticks": 1273,
          "time": 14.80232558139535,
          "velocity": 0.30708661417322836
        },
        {
          "duration": 0.08139534883720856,
          "durationTicks": 7,
          "midi": 69,
          "name": "A4",
          "ticks": 1287,
          "time": 14.965116279069768,
          "velocity": 0.1889763779527559
        },
        {
          "duration": 0.03488372093023173,
          "durationTicks": 3,
          "midi": 53,
          "name": "F3",
          "ticks": 1289,
          "time": 14.988372093023257,
          "velocity": 0.1889763779527559
        },
        {
          "duration": 0.20930232558139572,
          "durationTicks": 18,
          "midi": 69,
          "name": "A4",
          "ticks": 1295,
          "time": 15.05813953488372,
          "velocity": 0.1968503937007874
        },
        {
          "duration": 0.3255813953488378,
          "durationTicks": 28,
          "midi": 62,
          "name": "D4",
          "ticks": 1297,
          "time": 15.081395348837209,
          "velocity": 0.3700787401574803
        },
        {
          "duration": 0.3139534883720927,
          "durationTicks": 27,
          "midi": 81,
          "name": "A5",
          "ticks": 1298,
          "time": 15.093023255813954,
          "velocity": 0.2125984251968504
        },
        {
          "duration": 0.06976744186046524,
          "durationTicks": 6,
          "midi": 53,
          "name": "F3",
          "ticks": 1301,
          "time": 15.127906976744185,
          "velocity": 0.15748031496062992
        },
        {
          "duration": 0.058139534883720145,
          "durationTicks": 5,
          "midi": 47,
          "name": "B2",
          "ticks": 1304,
          "time": 15.162790697674419,
          "velocity": 0.2125984251968504
        },
        {
          "duration": 0.03488372093023173,
          "durationTicks": 3,
          "midi": 58,
          "name": "A#3",
          "ticks": 1304,
          "time": 15.162790697674419,
          "velocity": 0.3700787401574803
        },
        {
          "duration": 0.1627906976744189,
          "durationTicks": 14,
          "midi": 46,
          "name": "A#2",
          "ticks": 1309,
          "time": 15.220930232558139,
          "velocity": 0.23622047244094488
        },
        {
          "duration": 0.26744186046511764,
          "durationTicks": 23,
          "midi": 58,
          "name": "A#3",
          "ticks": 1309,
          "time": 15.220930232558139,
          "velocity": 0.3700787401574803
        },
        {
          "duration": 0.03488372093023173,
          "durationTicks": 3,
          "midi": 53,
          "name": "F3",
          "ticks": 1310,
          "time": 15.232558139534884,
          "velocity": 0.11811023622047244
        },
        {
          "duration": 0.058139534883720145,
          "durationTicks": 5,
          "midi": 53,
          "name": "F3",
          "ticks": 1316,
          "time": 15.30232558139535,
          "velocity": 0.10236220472440945
        },
        {
          "duration": 0.023255813953488413,
          "durationTicks": 2,
          "midi": 45,
          "name": "A2",
          "ticks": 1323,
          "time": 15.383720930232558,
          "velocity": 0.25984251968503935
        },
        {
          "duration": 0.04651162790697683,
          "durationTicks": 4,
          "midi": 63,
          "name": "D#4",
          "ticks": 1325,
          "time": 15.406976744186046,
          "velocity": 0.33070866141732286
        },
        {
          "duration": 0.03488372093023351,
          "durationTicks": 3,
          "midi": 82,
          "name": "A#5",
          "ticks": 1325,
          "time": 15.406976744186046,
          "velocity": 0.07874015748031496
        },
        {
          "duration": 0.04651162790697683,
          "durationTicks": 4,
          "midi": 47,
          "name": "B2",
          "ticks": 1326,
          "time": 15.418604651162791,
          "velocity": 0.41732283464566927
        },
        {
          "duration": 0.023255813953488413,
          "durationTicks": 2,
          "midi": 64,
          "name": "E4",
          "ticks": 1329,
          "time": 15.453488372093023,
          "velocity": 0.25984251968503935
        },
        {
          "duration": 0.058139534883720145,
          "durationTicks": 5,
          "midi": 72,
          "name": "C5",
          "ticks": 1331,
          "time": 15.476744186046512,
          "velocity": 0.15748031496062992
        },
        {
          "duration": 0.03488372093023173,
          "durationTicks": 3,
          "midi": 57,
          "name": "A3",
          "ticks": 1332,
          "time": 15.488372093023257,
          "velocity": 0.31496062992125984
        },
        {
          "duration": 0.03488372093023173,
          "durationTicks": 3,
          "midi": 45,
          "name": "A2",
          "ticks": 1333,
          "time": 15.5,
          "velocity": 0.4015748031496063
        },
        {
          "duration": 0.023255813953488413,
          "durationTicks": 2,
          "midi": 51,
          "name": "D#3",
          "ticks": 1333,
          "time": 15.5,
          "velocity": 0.3700787401574803
        },
        {
          "duration": 0.04651162790697683,
          "durationTicks": 4,
          "midi": 64,
          "name": "E4",
          "ticks": 1333,
          "time": 15.5,
          "velocity": 0.29133858267716534
        },
        {
          "duration": 0.03488372093023351,
          "durationTicks": 3,
          "midi": 44,
          "name": "G#2",
          "ticks": 1336,
          "time": 15.534883720930232,
          "velocity": 0.4251968503937008
        },
        {
          "duration": 0.023255813953488413,
          "durationTicks": 2,
          "midi": 41,
          "name": "F2",
          "ticks": 1341,
          "time": 15.593023255813954,
          "velocity": 0.2440944881889764
        },
        {
          "duration": 0.023255813953488413,
          "durationTicks": 2,
          "midi": 52,
          "name": "E3",
          "ticks": 1345,
          "time": 15.63953488372093,
          "velocity": 0.36220472440944884
        },
        {
          "duration": 0.058139534883720145,
          "durationTicks": 5,
          "midi": 64,
          "name": "E4",
          "ticks": 1347,
          "time": 15.662790697674419,
          "velocity": 0.3543307086614173
        },
        {
          "duration": 0.03488372093023173,
          "durationTicks": 3,
          "midi": 71,
          "name": "B4",
          "ticks": 1347,
          "time": 15.662790697674419,
          "velocity": 0.18110236220472442
        },
        {
          "duration": 0.03488372093023173,
          "durationTicks": 3,
          "midi": 74,
          "name": "D5",
          "ticks": 1347,
          "time": 15.662790697674419,
          "velocity": 0.10236220472440945
        },
        {
          "duration": 0.03488372093023351,
          "durationTicks": 3,
          "midi": 51,
          "name": "D#3",
          "ticks": 1348,
          "time": 15.674418604651162,
          "velocity": 0.3464566929133858
        },
        {
          "duration": 0.03488372093023351,
          "durationTicks": 3,
          "midi": 55,
          "name": "G3",
          "ticks": 1348,
          "time": 15.674418604651162,
          "velocity": 0.36220472440944884
        },
        {
          "duration": 0.2906976744186043,
          "durationTicks": 25,
          "midi": 71,
          "name": "B4",
          "ticks": 1351,
          "time": 15.709302325581396,
          "velocity": 0.3228346456692913
        },
        {
          "duration": 0.10465116279069697,
          "durationTicks": 9,
          "midi": 88,
          "name": "E6",
          "ticks": 1351,
          "time": 15.709302325581396,
          "velocity": 0.16535433070866143
        },
        {
          "duration": 0.023255813953488413,
          "durationTicks": 2,
          "midi": 55,
          "name": "G3",
          "ticks": 1352,
          "time": 15.720930232558139,
          "velocity": 0.4330708661417323
        },
        {
          "duration": 0.08139534883721034,
          "durationTicks": 7,
          "midi": 61,
          "name": "C#4",
          "ticks": 1352,
          "time": 15.720930232558139,
          "velocity": 0.28346456692913385
        },
        {
          "duration": 0.04651162790697683,
          "durationTicks": 4,
          "midi": 74,
          "name": "D5",
          "ticks": 1352,
          "time": 15.720930232558139,
          "velocity": 0.12598425196850394
        },
        {
          "duration": 0.04651162790697683,
          "durationTicks": 4,
          "midi": 80,
          "name": "G#5",
          "ticks": 1354,
          "time": 15.744186046511627,
          "velocity": 0.10236220472440945
        },
        {
          "duration": 0.09302325581395365,
          "durationTicks": 8,
          "midi": 52,
          "name": "E3",
          "ticks": 1355,
          "time": 15.755813953488373,
          "velocity": 0.4094488188976378
        },
        {
          "duration": 0.023255813953488413,
          "durationTicks": 2,
          "midi": 44,
          "name": "G#2",
          "ticks": 1356,
          "time": 15.767441860465116,
          "velocity": 0.3543307086614173
        },
        {
          "duration": 0.03488372093023351,
          "durationTicks": 3,
          "midi": 57,
          "name": "A3",
          "ticks": 1356,
          "time": 15.767441860465116,
          "velocity": 0.2992125984251969
        },
        {
          "duration": 0.04651162790697683,
          "durationTicks": 4,
          "midi": 99,
          "name": "D#7",
          "ticks": 1356,
          "time": 15.767441860465116,
          "velocity": 0.10236220472440945
        },
        {
          "duration": 0.06976744186046524,
          "durationTicks": 6,
          "midi": 101,
          "name": "F7",
          "ticks": 1356,
          "time": 15.767441860465116,
          "velocity": 0.09448818897637795
        },
        {
          "duration": 0.023255813953488413,
          "durationTicks": 2,
          "midi": 45,
          "name": "A2",
          "ticks": 1358,
          "time": 15.790697674418604,
          "velocity": 0.2440944881889764
        },
        {
          "duration": 0.08139534883720856,
          "durationTicks": 7,
          "midi": 86,
          "name": "D6",
          "ticks": 1359,
          "time": 15.80232558139535,
          "velocity": 0.07874015748031496
        },
        {
          "duration": 0.08139534883720856,
          "durationTicks": 7,
          "midi": 98,
          "name": "D7",
          "ticks": 1359,
          "time": 15.80232558139535,
          "velocity": 0.10236220472440945
        },
        {
          "duration": 0.12790697674418539,
          "durationTicks": 11,
          "midi": 61,
          "name": "C#4",
          "ticks": 1361,
          "time": 15.825581395348838,
          "velocity": 0.28346456692913385
        },
        {
          "duration": 0.24418604651162745,
          "durationTicks": 21,
          "midi": 55,
          "name": "G3",
          "ticks": 1363,
          "time": 15.848837209302326,
          "velocity": 0.5196850393700787
        },
        {
          "duration": 0.11627906976744207,
          "durationTicks": 10,
          "midi": 101,
          "name": "F7",
          "ticks": 1364,
          "time": 15.86046511627907,
          "velocity": 0.13385826771653545
        },
        {
          "duration": 0.11627906976744207,
          "durationTicks": 10,
          "midi": 74,
          "name": "D5",
          "ticks": 1366,
          "time": 15.883720930232558,
          "velocity": 0.23622047244094488
        },
        {
          "duration": 0.03488372093023351,
          "durationTicks": 3,
          "midi": 45,
          "name": "A2",
          "ticks": 1374,
          "time": 15.976744186046512,
          "velocity": 0.23622047244094488
        },
        {
          "duration": 0.04651162790697505,
          "durationTicks": 4,
          "midi": 64,
          "name": "E4",
          "ticks": 1375,
          "time": 15.988372093023257,
          "velocity": 0.11811023622047244
        },
        {
          "duration": 0.02325581395349019,
          "durationTicks": 2,
          "midi": 46,
          "name": "A#2",
          "ticks": 1378,
          "time": 16.023255813953487,
          "velocity": 0.2677165354330709
        },
        {
          "duration": 0.05813953488372192,
          "durationTicks": 5,
          "midi": 61,
          "name": "C#4",
          "ticks": 1378,
          "time": 16.023255813953487,
          "velocity": 0.08661417322834646
        },
        {
          "duration": 0.04651162790697683,
          "durationTicks": 4,
          "midi": 45,
          "name": "A2",
          "ticks": 1380,
          "time": 16.046511627906977,
          "velocity": 0.29133858267716534
        },
        {
          "duration": 0.023255813953486637,
          "durationTicks": 2,
          "midi": 56,
          "name": "G#3",
          "ticks": 1384,
          "time": 16.093023255813954,
          "velocity": 0.25984251968503935
        },
        {
          "duration": 0.023255813953486637,
          "durationTicks": 2,
          "midi": 62,
          "name": "D4",
          "ticks": 1384,
          "time": 16.093023255813954,
          "velocity": 0.25196850393700787
        },
        {
          "duration": 0.023255813953486637,
          "durationTicks": 2,
          "midi": 45,
          "name": "A2",
          "ticks": 1385,
          "time": 16.1046511627907,
          "velocity": 0.3543307086614173
        },
        {
          "duration": 0.023255813953486637,
          "durationTicks": 2,
          "midi": 64,
          "name": "E4",
          "ticks": 1385,
          "time": 16.1046511627907,
          "velocity": 0.29133858267716534
        },
        {
          "duration": 0.06976744186046346,
          "durationTicks": 6,
          "midi": 73,
          "name": "C#5",
          "ticks": 1385,
          "time": 16.1046511627907,
          "velocity": 0.2283464566929134
        },
        {
          "duration": 0.3139534883720927,
          "durationTicks": 27,
          "midi": 83,
          "name": "B5",
          "ticks": 1385,
          "time": 16.1046511627907,
          "velocity": 0.28346456692913385
        },
        {
          "duration": 0.02325581395349019,
          "durationTicks": 2,
          "midi": 55,
          "name": "G3",
          "ticks": 1386,
          "time": 16.11627906976744,
          "velocity": 0.3779527559055118
        },
        {
          "duration": 0.27906976744186096,
          "durationTicks": 24,
          "midi": 61,
          "name": "C#4",
          "ticks": 1386,
          "time": 16.11627906976744,
          "velocity": 0.44881889763779526
        },
        {
          "duration": 0.05813953488372192,
          "durationTicks": 5,
          "midi": 98,
          "name": "D7",
          "ticks": 1386,
          "time": 16.11627906976744,
          "velocity": 0.07874015748031496
        },
        {
          "duration": 0.2674418604651194,
          "durationTicks": 23,
          "midi": 101,
          "name": "F7",
          "ticks": 1386,
          "time": 16.11627906976744,
          "velocity": 0.1732283464566929
        },
        {
          "duration": 0.03488372093023173,
          "durationTicks": 3,
          "midi": 89,
          "name": "F6",
          "ticks": 1387,
          "time": 16.127906976744185,
          "velocity": 0.15748031496062992
        },
        {
          "duration": 0.05813953488372192,
          "durationTicks": 5,
          "midi": 92,
          "name": "G#6",
          "ticks": 1387,
          "time": 16.127906976744185,
          "velocity": 0.13385826771653545
        },
        {
          "duration": 0.06976744186046346,
          "durationTicks": 6,
          "midi": 67,
          "name": "G4",
          "ticks": 1388,
          "time": 16.13953488372093,
          "velocity": 0.1968503937007874
        },
        {
          "duration": 0.26744186046511587,
          "durationTicks": 23,
          "midi": 80,
          "name": "G#5",
          "ticks": 1388,
          "time": 16.13953488372093,
          "velocity": 0.25196850393700787
        },
        {
          "duration": 0.22093023255813904,
          "durationTicks": 19,
          "midi": 55,
          "name": "G3",
          "ticks": 1389,
          "time": 16.151162790697676,
          "velocity": 0.41732283464566927
        },
        {
          "duration": 0.034883720930235285,
          "durationTicks": 3,
          "midi": 44,
          "name": "G#2",
          "ticks": 1390,
          "time": 16.162790697674417,
          "velocity": 0.2204724409448819
        },
        {
          "duration": 0.2674418604651194,
          "durationTicks": 23,
          "midi": 71,
          "name": "B4",
          "ticks": 1390,
          "time": 16.162790697674417,
          "velocity": 0.18110236220472442
        },
        {
          "duration": 0.15116279069767558,
          "durationTicks": 13,
          "midi": 74,
          "name": "D5",
          "ticks": 1391,
          "time": 16.174418604651162,
          "velocity": 0.18110236220472442
        },
        {
          "duration": 0.15116279069767558,
          "durationTicks": 13,
          "midi": 89,
          "name": "F6",
          "ticks": 1391,
          "time": 16.174418604651162,
          "velocity": 0.15748031496062992
        },
        {
          "duration": 0.3255813953488378,
          "durationTicks": 28,
          "midi": 45,
          "name": "A2",
          "ticks": 1394,
          "time": 16.209302325581394,
          "velocity": 0.25984251968503935
        },
        {
          "duration": 0.1860465116279073,
          "durationTicks": 16,
          "midi": 76,
          "name": "E5",
          "ticks": 1400,
          "time": 16.27906976744186,
          "velocity": 0.12598425196850394
        },
        {
          "duration": 0.04651162790697683,
          "durationTicks": 4,
          "midi": 62,
          "name": "D4",
          "ticks": 1410,
          "time": 16.3953488372093,
          "velocity": 0.3858267716535433
        },
        {
          "duration": 0.02325581395349019,
          "durationTicks": 2,
          "midi": 63,
          "name": "D#4",
          "ticks": 1414,
          "time": 16.441860465116278,
          "velocity": 0.2755905511811024
        },
        {
          "duration": 0.034883720930235285,
          "durationTicks": 3,
          "midi": 82,
          "name": "A#5",
          "ticks": 1414,
          "time": 16.441860465116278,
          "velocity": 0.07086614173228346
        },
        {
          "duration": 0.03488372093023173,
          "durationTicks": 3,
          "midi": 54,
          "name": "F#3",
          "ticks": 1415,
          "time": 16.453488372093023,
          "velocity": 0.4409448818897638
        },
        {
          "duration": 0.03488372093023173,
          "durationTicks": 3,
          "midi": 83,
          "name": "B5",
          "ticks": 1416,
          "time": 16.46511627906977,
          "velocity": 0.13385826771653545
        },
        {
          "duration": 0.04651162790697683,
          "durationTicks": 4,
          "midi": 55,
          "name": "G3",
          "ticks": 1418,
          "time": 16.488372093023255,
          "velocity": 0.4330708661417323
        },
        {
          "duration": 0.023255813953486637,
          "durationTicks": 2,
          "midi": 65,
          "name": "F4",
          "ticks": 1420,
          "time": 16.511627906976745,
          "velocity": 0.2440944881889764
        },
        {
          "duration": 0.13953488372093048,
          "durationTicks": 12,
          "midi": 76,
          "name": "E5",
          "ticks": 1420,
          "time": 16.511627906976745,
          "velocity": 0.18110236220472442
        },
        {
          "duration": 0.034883720930235285,
          "durationTicks": 3,
          "midi": 69,
          "name": "A4",
          "ticks": 1421,
          "time": 16.523255813953487,
          "velocity": 0.2125984251968504
        },
        {
          "duration": 0.12790697674418539,
          "durationTicks": 11,
          "midi": 64,
          "name": "E4",
          "ticks": 1422,
          "time": 16.53488372093023,
          "velocity": 0.15748031496062992
        },
        {
          "duration": 0.13953488372093048,
          "durationTicks": 12,
          "midi": 57,
          "name": "A3",
          "ticks": 1426,
          "time": 16.58139534883721,
          "velocity": 0.23622047244094488
        },
        {
          "duration": 0.02325581395349019,
          "durationTicks": 2,
          "midi": 72,
          "name": "C5",
          "ticks": 1426,
          "time": 16.58139534883721,
          "velocity": 0.2283464566929134
        },
        {
          "duration": 0.04651162790697683,
          "durationTicks": 4,
          "midi": 45,
          "name": "A2",
          "ticks": 1429,
          "time": 16.61627906976744,
          "velocity": 0.2047244094488189
        },
        {
          "duration": 0.03488372093023173,
          "durationTicks": 3,
          "midi": 64,
          "name": "E4",
          "ticks": 1434,
          "time": 16.674418604651162,
          "velocity": 0.14173228346456693
        },
        {
          "duration": 0.03488372093023173,
          "durationTicks": 3,
          "midi": 43,
          "name": "G2",
          "ticks": 1436,
          "time": 16.697674418604652,
          "velocity": 0.28346456692913385
        },
        {
          "duration": 0.04651162790697683,
          "durationTicks": 4,
          "midi": 58,
          "name": "A#3",
          "ticks": 1438,
          "time": 16.72093023255814,
          "velocity": 0.28346456692913385
        },
        {
          "duration": 0.04651162790697683,
          "durationTicks": 4,
          "midi": 44,
          "name": "G#2",
          "ticks": 1439,
          "time": 16.732558139534884,
          "velocity": 0.4330708661417323
        },
        {
          "duration": 0.023255813953486637,
          "durationTicks": 2,
          "midi": 61,
          "name": "C#4",
          "ticks": 1439,
          "time": 16.732558139534884,
          "velocity": 0.30708661417322836
        },
        {
          "duration": 0.46511627906976827,
          "durationTicks": 40,
          "midi": 74,
          "name": "D5",
          "ticks": 1439,
          "time": 16.732558139534884,
          "velocity": 0.3464566929133858
        },
        {
          "duration": 0.41860465116279144,
          "durationTicks": 36,
          "midi": 76,
          "name": "E5",
          "ticks": 1439,
          "time": 16.732558139534884,
          "velocity": 0.2047244094488189
        },
        {
          "duration": 0.1860465116279073,
          "durationTicks": 16,
          "midi": 78,
          "name": "F#5",
          "ticks": 1439,
          "time": 16.732558139534884,
          "velocity": 0.14960629921259844
        },
        {
          "duration": 0.3023255813953476,
          "durationTicks": 26,
          "midi": 81,
          "name": "A5",
          "ticks": 1440,
          "time": 16.74418604651163,
          "velocity": 0.28346456692913385
        },
        {
          "duration": 0.1046511627906952,
          "durationTicks": 9,
          "midi": 96,
          "name": "C7",
          "ticks": 1440,
          "time": 16.74418604651163,
          "velocity": 0.14173228346456693
        },
        {
          "duration": 0.41860465116279144,
          "durationTicks": 36,
          "midi": 62,
          "name": "D4",
          "ticks": 1441,
          "time": 16.75581395348837,
          "velocity": 0.3858267716535433
        },
        {
          "duration": 0.22093023255813904,
          "durationTicks": 19,
          "midi": 57,
          "name": "A3",
          "ticks": 1442,
          "time": 16.767441860465116,
          "velocity": 0.3858267716535433
        },
        {
          "duration": 0.02325581395349019,
          "durationTicks": 2,
          "midi": 50,
          "name": "D3",
          "ticks": 1445,
          "time": 16.802325581395348,
          "velocity": 0.2677165354330709
        },
        {
          "duration": 0.03488372093023173,
          "durationTicks": 3,
          "midi": 50,
          "name": "D3",
          "ticks": 1448,
          "time": 16.837209302325583,
          "velocity": 0.29133858267716534
        },
        {
          "duration": 0.04651162790697683,
          "durationTicks": 4,
          "midi": 45,
          "name": "A2",
          "ticks": 1450,
          "time": 16.86046511627907,
          "velocity": 0.2992125984251969
        },
        {
          "duration": 0.046511627906973274,
          "durationTicks": 4,
          "midi": 78,
          "name": "F#5",
          "ticks": 1460,
          "time": 16.976744186046513,
          "velocity": 0.11023622047244094
        },
        {
          "duration": 0.02325581395349019,
          "durationTicks": 2,
          "midi": 55,
          "name": "G3",
          "ticks": 1461,
          "time": 16.988372093023255,
          "velocity": 0.41732283464566927
        },
        {
          "duration": 0.16279069767441712,
          "durationTicks": 14,
          "midi": 69,
          "name": "A4",
          "ticks": 1462,
          "time": 17,
          "velocity": 0.2440944881889764
        },
        {
          "duration": 0.03488372093023173,
          "durationTicks": 3,
          "midi": 42,
          "name": "F#2",
          "ticks": 1463,
          "time": 17.011627906976745,
          "velocity": 0.30708661417322836
        },
        {
          "duration": 0.11627906976744384,
          "durationTicks": 10,
          "midi": 50,
          "name": "D3",
          "ticks": 1464,
          "time": 17.023255813953487,
          "velocity": 0.31496062992125984
        },
        {
          "duration": 0.17441860465116577,
          "durationTicks": 15,
          "midi": 57,
          "name": "A3",
          "ticks": 1464,
          "time": 17.023255813953487,
          "velocity": 0.4015748031496063
        },
        {
          "duration": 0.05813953488372192,
          "durationTicks": 5,
          "midi": 90,
          "name": "F#6",
          "ticks": 1465,
          "time": 17.03488372093023,
          "velocity": 0.09448818897637795
        },
        {
          "duration": 0.05813953488371837,
          "durationTicks": 5,
          "midi": 50,
          "name": "D3",
          "ticks": 1475,
          "time": 17.151162790697676,
          "velocity": 0.31496062992125984
        },
        {
          "duration": 0.02325581395349019,
          "durationTicks": 2,
          "midi": 61,
          "name": "C#4",
          "ticks": 1477,
          "time": 17.174418604651162,
          "velocity": 0.25196850393700787
        },
        {
          "duration": 0.03488372093023173,
          "durationTicks": 3,
          "midi": 62,
          "name": "D4",
          "ticks": 1481,
          "time": 17.22093023255814,
          "velocity": 0.08661417322834646
        },
        {
          "duration": 0.03488372093023173,
          "durationTicks": 3,
          "midi": 44,
          "name": "G#2",
          "ticks": 1483,
          "time": 17.24418604651163,
          "velocity": 0.3700787401574803
        },
        {
          "duration": 0.13953488372093048,
          "durationTicks": 12,
          "midi": 76,
          "name": "E5",
          "ticks": 1483,
          "time": 17.24418604651163,
          "velocity": 0.23622047244094488
        },
        {
          "duration": 0.034883720930235285,
          "durationTicks": 3,
          "midi": 55,
          "name": "G3",
          "ticks": 1484,
          "time": 17.25581395348837,
          "velocity": 0.4251968503937008
        },
        {
          "duration": 0.04651162790697683,
          "durationTicks": 4,
          "midi": 66,
          "name": "F#4",
          "ticks": 1484,
          "time": 17.25581395348837,
          "velocity": 0.2125984251968504
        },
        {
          "duration": 0.11627906976744384,
          "durationTicks": 10,
          "midi": 62,
          "name": "D4",
          "ticks": 1485,
          "time": 17.267441860465116,
          "velocity": 0.3858267716535433
        },
        {
          "duration": 0.26744186046511587,
          "durationTicks": 23,
          "midi": 85,
          "name": "C#6",
          "ticks": 1485,
          "time": 17.267441860465116,
          "velocity": 0.14960629921259844
        },
        {
          "duration": 0.15116279069767558,
          "durationTicks": 13,
          "midi": 88,
          "name": "E6",
          "ticks": 1485,
          "time": 17.267441860465116,
          "velocity": 0.2755905511811024
        },
        {
          "duration": 0.13953488372093048,
          "durationTicks": 12,
          "midi": 69,
          "name": "A4",
          "ticks": 1486,
          "time": 17.27906976744186,
          "velocity": 0.3228346456692913
        },
        {
          "duration": 0.08139534883720856,
          "durationTicks": 7,
          "midi": 103,
          "name": "G7",
          "ticks": 1487,
          "time": 17.290697674418606,
          "velocity": 0.09448818897637795
        },
        {
          "duration": 0.034883720930235285,
          "durationTicks": 3,
          "midi": 50,
          "name": "D3",
          "ticks": 1488,
          "time": 17.302325581395348,
          "velocity": 0.2125984251968504
        },
        {
          "duration": 0.1976744186046524,
          "durationTicks": 17,
          "midi": 90,
          "name": "F#6",
          "ticks": 1489,
          "time": 17.313953488372093,
          "velocity": 0.14173228346456693
        },
        {
          "duration": 0.03488372093023173,
          "durationTicks": 3,
          "midi": 57,
          "name": "A3",
          "ticks": 1490,
          "time": 17.325581395348838,
          "velocity": 0.11811023622047244
        },
        {
          "duration": 0.023255813953486637,
          "durationTicks": 2,
          "midi": 57,
          "name": "A3",
          "ticks": 1495,
          "time": 17.38372093023256,
          "velocity": 0.3779527559055118
        },
        {
          "duration": 0.034883720930235285,
          "durationTicks": 3,
          "midi": 50,
          "name": "D3",
          "ticks": 1496,
          "time": 17.3953488372093,
          "velocity": 0.2992125984251969
        },
        {
          "duration": 0.11627906976744384,
          "durationTicks": 10,
          "midi": 62,
          "name": "D4",
          "ticks": 1496,
          "time": 17.3953488372093,
          "velocity": 0.3779527559055118
        },
        {
          "duration": 0.02325581395349019,
          "durationTicks": 2,
          "midi": 56,
          "name": "G#3",
          "ticks": 1497,
          "time": 17.406976744186046,
          "velocity": 0.4015748031496063
        },
        {
          "duration": 0.11627906976744029,
          "durationTicks": 10,
          "midi": 76,
          "name": "E5",
          "ticks": 1497,
          "time": 17.406976744186046,
          "velocity": 0.1889763779527559
        },
        {
          "duration": 0.03488372093023173,
          "durationTicks": 3,
          "midi": 44,
          "name": "G#2",
          "ticks": 1499,
          "time": 17.430232558139537,
          "velocity": 0.3464566929133858
        },
        {
          "duration": 0.03488372093023173,
          "durationTicks": 3,
          "midi": 45,
          "name": "A2",
          "ticks": 1502,
          "time": 17.46511627906977,
          "velocity": 0.33858267716535434
        },
        {
          "duration": 0.023255813953486637,
          "durationTicks": 2,
          "midi": 44,
          "name": "G#2",
          "ticks": 1505,
          "time": 17.5,
          "velocity": 0.36220472440944884
        },
        {
          "duration": 0.023255813953486637,
          "durationTicks": 2,
          "midi": 61,
          "name": "C#4",
          "ticks": 1506,
          "time": 17.511627906976745,
          "velocity": 0.29133858267716534
        },
        {
          "duration": 0.02325581395349019,
          "durationTicks": 2,
          "midi": 45,
          "name": "A2",
          "ticks": 1507,
          "time": 17.523255813953487,
          "velocity": 0.3858267716535433
        },
        {
          "duration": 0.02325581395349019,
          "durationTicks": 2,
          "midi": 50,
          "name": "D3",
          "ticks": 1508,
          "time": 17.53488372093023,
          "velocity": 0.30708661417322836
        },
        {
          "duration": 0.02325581395349019,
          "durationTicks": 2,
          "midi": 63,
          "name": "D#4",
          "ticks": 1508,
          "time": 17.53488372093023,
          "velocity": 0.23622047244094488
        },
        {
          "duration": 0.023255813953486637,
          "durationTicks": 2,
          "midi": 43,
          "name": "G2",
          "ticks": 1509,
          "time": 17.546511627906977,
          "velocity": 0.25984251968503935
        },
        {
          "duration": 0.39534883720930125,
          "durationTicks": 34,
          "midi": 86,
          "name": "D6",
          "ticks": 1516,
          "time": 17.627906976744185,
          "velocity": 0.18110236220472442
        },
        {
          "duration": 0.40697674418604635,
          "durationTicks": 35,
          "midi": 74,
          "name": "D5",
          "ticks": 1517,
          "time": 17.63953488372093,
          "velocity": 0.23622047244094488
        },
        {
          "duration": 0.04651162790697683,
          "durationTicks": 4,
          "midi": 76,
          "name": "E5",
          "ticks": 1517,
          "time": 17.63953488372093,
          "velocity": 0.13385826771653545
        },
        {
          "duration": 0.24418604651162923,
          "durationTicks": 21,
          "midi": 90,
          "name": "F#6",
          "ticks": 1517,
          "time": 17.63953488372093,
          "velocity": 0.1889763779527559
        },
        {
          "duration": 0.023255813953486637,
          "durationTicks": 2,
          "midi": 47,
          "name": "B2",
          "ticks": 1518,
          "time": 17.651162790697676,
          "velocity": 0.31496062992125984
        },
        {
          "duration": 0.023255813953486637,
          "durationTicks": 2,
          "midi": 57,
          "name": "A3",
          "ticks": 1518,
          "time": 17.651162790697676,
          "velocity": 0.31496062992125984
        },
        {
          "duration": 0.38372093023255616,
          "durationTicks": 33,
          "midi": 62,
          "name": "D4",
          "ticks": 1518,
          "time": 17.651162790697676,
          "velocity": 0.3937007874015748
        },
        {
          "duration": 0.13953488372093048,
          "durationTicks": 12,
          "midi": 68,
          "name": "G#4",
          "ticks": 1518,
          "time": 17.651162790697676,
          "velocity": 0.33858267716535434
        },
        {
          "duration": 0.37209302325581106,
          "durationTicks": 32,
          "midi": 85,
          "name": "C#6",
          "ticks": 1518,
          "time": 17.651162790697676,
          "velocity": 0.2125984251968504
        },
        {
          "duration": 0.034883720930235285,
          "durationTicks": 3,
          "midi": 96,
          "name": "C7",
          "ticks": 1519,
          "time": 17.662790697674417,
          "velocity": 0.10236220472440945
        },
        {
          "duration": 0.02325581395349019,
          "durationTicks": 2,
          "midi": 58,
          "name": "A#3",
          "ticks": 1520,
          "time": 17.674418604651162,
          "velocity": 0.25984251968503935
        },
        {
          "duration": 0.023255813953486637,
          "durationTicks": 2,
          "midi": 44,
          "name": "G#2",
          "ticks": 1521,
          "time": 17.686046511627907,
          "velocity": 0.3464566929133858
        },
        {
          "duration": 0.09302325581395365,
          "durationTicks": 8,
          "midi": 87,
          "name": "D#6",
          "ticks": 1521,
          "time": 17.686046511627907,
          "velocity": 0.07874015748031496
        },
        {
          "duration": 0.09302325581395365,
          "durationTicks": 8,
          "midi": 56,
          "name": "G#3",
          "ticks": 1522,
          "time": 17.697674418604652,
          "velocity": 0.4330708661417323
        },
        {
          "duration": 0.1976744186046524,
          "durationTicks": 17,
          "midi": 45,
          "name": "A2",
          "ticks": 1523,
          "time": 17.709302325581394,
          "velocity": 0.3228346456692913
        },
        {
          "duration": 0.12790697674418539,
          "durationTicks": 11,
          "midi": 69,
          "name": "A4",
          "ticks": 1530,
          "time": 17.790697674418606,
          "velocity": 0.2047244094488189
        },
        {
          "duration": 0.06976744186046346,
          "durationTicks": 6,
          "midi": 93,
          "name": "A6",
          "ticks": 1533,
          "time": 17.825581395348838,
          "velocity": 0.12598425196850394
        },
        {
          "duration": 0.02325581395349019,
          "durationTicks": 2,
          "midi": 58,
          "name": "A#3",
          "ticks": 1540,
          "time": 17.906976744186046,
          "velocity": 0.2440944881889764
        },
        {
          "duration": 0.03488372093023173,
          "durationTicks": 3,
          "midi": 54,
          "name": "F#3",
          "ticks": 1541,
          "time": 17.91860465116279,
          "velocity": 0.44881889763779526
        },
        {
          "duration": 0.11627906976744029,
          "durationTicks": 10,
          "midi": 67,
          "name": "G4",
          "ticks": 1541,
          "time": 17.91860465116279,
          "velocity": 0.2755905511811024
        },
        {
          "duration": 0.1046511627906952,
          "durationTicks": 9,
          "midi": 79,
          "name": "G5",
          "ticks": 1541,
          "time": 17.91860465116279,
          "velocity": 0.30708661417322836
        },
        {
          "duration": 0.06976744186046702,
          "durationTicks": 6,
          "midi": 83,
          "name": "B5",
          "ticks": 1543,
          "time": 17.941860465116278,
          "velocity": 0.12598425196850394
        },
        {
          "duration": 0.06976744186046346,
          "durationTicks": 6,
          "midi": 55,
          "name": "G3",
          "ticks": 1544,
          "time": 17.953488372093023,
          "velocity": 0.49606299212598426
        },
        {
          "duration": 0.046511627906973274,
          "durationTicks": 4,
          "midi": 90,
          "name": "F#6",
          "ticks": 1546,
          "time": 17.976744186046513,
          "velocity": 0.08661417322834646
        },
        {
          "duration": 0.08139534883720856,
          "durationTicks": 7,
          "midi": 45,
          "name": "A2",
          "ticks": 1548,
          "time": 18,
          "velocity": 0.33070866141732286
        },
        {
          "duration": 0.02325581395349019,
          "durationTicks": 2,
          "midi": 54,
          "name": "F#3",
          "ticks": 1550,
          "time": 18.023255813953487,
          "velocity": 0.31496062992125984
        },
        {
          "duration": 0.05813953488372192,
          "durationTicks": 5,
          "midi": 55,
          "name": "G3",
          "ticks": 1554,
          "time": 18.069767441860463,
          "velocity": 0.18110236220472442
        },
        {
          "duration": 0.03488372093023173,
          "durationTicks": 3,
          "midi": 44,
          "name": "G#2",
          "ticks": 1555,
          "time": 18.08139534883721,
          "velocity": 0.25196850393700787
        },
        {
          "duration": 0.034883720930235285,
          "durationTicks": 3,
          "midi": 66,
          "name": "F#4",
          "ticks": 1562,
          "time": 18.162790697674417,
          "velocity": 0.1889763779527559
        },
        {
          "duration": 0.2558139534883743,
          "durationTicks": 22,
          "midi": 74,
          "name": "D5",
          "ticks": 1562,
          "time": 18.162790697674417,
          "velocity": 0.1732283464566929
        },
        {
          "duration": 0.2674418604651194,
          "durationTicks": 23,
          "midi": 86,
          "name": "D6",
          "ticks": 1562,
          "time": 18.162790697674417,
          "velocity": 0.18110236220472442
        },
        {
          "duration": 0.4883720930232549,
          "durationTicks": 42,
          "midi": 62,
          "name": "D4",
          "ticks": 1563,
          "time": 18.174418604651162,
          "velocity": 0.4251968503937008
        },
        {
          "duration": 0.24418604651162923,
          "durationTicks": 21,
          "midi": 72,
          "name": "C5",
          "ticks": 1563,
          "time": 18.174418604651162,
          "velocity": 0.2047244094488189
        },
        {
          "duration": 0.22093023255813904,
          "durationTicks": 19,
          "midi": 77,
          "name": "F5",
          "ticks": 1563,
          "time": 18.174418604651162,
          "velocity": 0.1732283464566929
        },
        {
          "duration": 0.29069767441860606,
          "durationTicks": 25,
          "midi": 85,
          "name": "C#6",
          "ticks": 1563,
          "time": 18.174418604651162,
          "velocity": 0.18110236220472442
        },
        {
          "duration": 0.10465116279069875,
          "durationTicks": 9,
          "midi": 90,
          "name": "F#6",
          "ticks": 1563,
          "time": 18.174418604651162,
          "velocity": 0.10236220472440945
        },
        {
          "duration": 0.09302325581395365,
          "durationTicks": 8,
          "midi": 99,
          "name": "D#7",
          "ticks": 1563,
          "time": 18.174418604651162,
          "velocity": 0.10236220472440945
        },
        {
          "duration": 0.06976744186046702,
          "durationTicks": 6,
          "midi": 102,
          "name": "F#7",
          "ticks": 1563,
          "time": 18.174418604651162,
          "velocity": 0.14173228346456693
        },
        {
          "duration": 0.04651162790697683,
          "durationTicks": 4,
          "midi": 53,
          "name": "F3",
          "ticks": 1564,
          "time": 18.186046511627907,
          "velocity": 0.4094488188976378
        },
        {
          "duration": 0.034883720930235285,
          "durationTicks": 3,
          "midi": 44,
          "name": "G#2",
          "ticks": 1566,
          "time": 18.209302325581394,
          "velocity": 0.3858267716535433
        },
        {
          "duration": 0.1046511627906952,
          "durationTicks": 9,
          "midi": 45,
          "name": "A2",
          "ticks": 1569,
          "time": 18.24418604651163,
          "velocity": 0.3543307086614173
        },
        {
          "duration": 0.10465116279069875,
          "durationTicks": 9,
          "midi": 81,
          "name": "A5",
          "ticks": 1572,
          "time": 18.27906976744186,
          "velocity": 0.13385826771653545
        },
        {
          "duration": 0.02325581395349019,
          "durationTicks": 2,
          "midi": 53,
          "name": "F3",
          "ticks": 1574,
          "time": 18.302325581395348,
          "velocity": 0.31496062992125984
        },
        {
          "duration": 0.06976744186046346,
          "durationTicks": 6,
          "midi": 90,
          "name": "F#6",
          "ticks": 1577,
          "time": 18.337209302325583,
          "velocity": 0.11811023622047244
        },
        {
          "duration": 0.03488372093023173,
          "durationTicks": 3,
          "midi": 45,
          "name": "A2",
          "ticks": 1579,
          "time": 18.36046511627907,
          "velocity": 0.30708661417322836
        },
        {
          "duration": 0.02325581395349019,
          "durationTicks": 2,
          "midi": 51,
          "name": "D#3",
          "ticks": 1583,
          "time": 18.406976744186046,
          "velocity": 0.2992125984251969
        },
        {
          "duration": 0.19767441860464885,
          "durationTicks": 17,
          "midi": 90,
          "name": "F#6",
          "ticks": 1585,
          "time": 18.430232558139537,
          "velocity": 0.14173228346456693
        },
        {
          "duration": 0.11627906976744384,
          "durationTicks": 10,
          "midi": 76,
          "name": "E5",
          "ticks": 1586,
          "time": 18.441860465116278,
          "velocity": 0.10236220472440945
        },
        {
          "duration": 0.1046511627906952,
          "durationTicks": 9,
          "midi": 57,
          "name": "A3",
          "ticks": 1588,
          "time": 18.46511627906977,
          "velocity": 0.31496062992125984
        },
        {
          "duration": 0.02325581395349019,
          "durationTicks": 2,
          "midi": 50,
          "name": "D3",
          "ticks": 1590,
          "time": 18.488372093023255,
          "velocity": 0.36220472440944884
        },
        {
          "duration": 0.02325581395349019,
          "durationTicks": 2,
          "midi": 50,
          "name": "D3",
          "ticks": 1593,
          "time": 18.523255813953487,
          "velocity": 0.3858267716535433
        },
        {
          "duration": 0.04651162790697683,
          "durationTicks": 4,
          "midi": 45,
          "name": "A2",
          "ticks": 1596,
          "time": 18.558139534883722,
          "velocity": 0.3858267716535433
        },
        {
          "duration": 0.03488372093023173,
          "durationTicks": 3,
          "midi": 53,
          "name": "F3",
          "ticks": 1596,
          "time": 18.558139534883722,
          "velocity": 0.4251968503937008
        },
        {
          "duration": 0.1046511627906952,
          "durationTicks": 9,
          "midi": 77,
          "name": "F5",
          "ticks": 1596,
          "time": 18.558139534883722,
          "velocity": 0.1732283464566929
        },
        {
          "duration": 0.12790697674418894,
          "durationTicks": 11,
          "midi": 72,
          "name": "C5",
          "ticks": 1597,
          "time": 18.569767441860463,
          "velocity": 0.25984251968503935
        },
        {
          "duration": 0.023255813953486637,
          "durationTicks": 2,
          "midi": 54,
          "name": "F#3",
          "ticks": 1599,
          "time": 18.593023255813954,
          "velocity": 0.3779527559055118
        },
        {
          "duration": 0.08139534883721211,
          "durationTicks": 7,
          "midi": 45,
          "name": "A2",
          "ticks": 1601,
          "time": 18.61627906976744,
          "velocity": 0.4251968503937008
        },
        {
          "duration": 0.06976744186046702,
          "durationTicks": 6,
          "midi": 65,
          "name": "F4",
          "ticks": 1601,
          "time": 18.61627906976744,
          "velocity": 0.33858267716535434
        },
        {
          "duration": 0.02325581395349019,
          "durationTicks": 2,
          "midi": 53,
          "name": "F3",
          "ticks": 1602,
          "time": 18.627906976744185,
          "velocity": 0.33070866141732286
        },
        {
          "duration": 0.023255813953486637,
          "durationTicks": 2,
          "midi": 52,
          "name": "E3",
          "ticks": 1604,
          "time": 18.651162790697676,
          "velocity": 0.33858267716535434
        },
        {
          "duration": 0.12790697674418539,
          "durationTicks": 11,
          "midi": 76,
          "name": "E5",
          "ticks": 1604,
          "time": 18.651162790697676,
          "velocity": 0.16535433070866143
        },
        {
          "duration": 0.02325581395349019,
          "durationTicks": 2,
          "midi": 53,
          "name": "F3",
          "ticks": 1606,
          "time": 18.674418604651162,
          "velocity": 0.41732283464566927
        },
        {
          "duration": 0.38372093023255616,
          "durationTicks": 33,
          "midi": 64,
          "name": "E4",
          "ticks": 1607,
          "time": 18.686046511627907,
          "velocity": 0.30708661417322836
        },
        {
          "duration": 0.1860465116279073,
          "durationTicks": 16,
          "midi": 74,
          "name": "D5",
          "ticks": 1607,
          "time": 18.686046511627907,
          "velocity": 0.28346456692913385
        },
        {
          "duration": 0.13953488372093048,
          "durationTicks": 12,
          "midi": 79,
          "name": "G5",
          "ticks": 1607,
          "time": 18.686046511627907,
          "velocity": 0.1732283464566929
        },
        {
          "duration": 0.09302325581395365,
          "durationTicks": 8,
          "midi": 71,
          "name": "B4",
          "ticks": 1608,
          "time": 18.697674418604652,
          "velocity": 0.15748031496062992
        },
        {
          "duration": 0.08139534883721211,
          "durationTicks": 7,
          "midi": 45,
          "name": "A2",
          "ticks": 1609,
          "time": 18.709302325581394,
          "velocity": 0.4409448818897638
        },
        {
          "duration": 0.11627906976744384,
          "durationTicks": 10,
          "midi": 55,
          "name": "G3",
          "ticks": 1609,
          "time": 18.709302325581394,
          "velocity": 0.4881889763779528
        },
        {
          "duration": 0.10465116279069875,
          "durationTicks": 9,
          "midi": 89,
          "name": "F6",
          "ticks": 1609,
          "time": 18.709302325581394,
          "velocity": 0.16535433070866143
        },
        {
          "duration": 0.03488372093023173,
          "durationTicks": 3,
          "midi": 60,
          "name": "C4",
          "ticks": 1615,
          "time": 18.77906976744186,
          "velocity": 0.25196850393700787
        },
        {
          "duration": 0.03488372093023173,
          "durationTicks": 3,
          "midi": 44,
          "name": "G#2",
          "ticks": 1616,
          "time": 18.790697674418606,
          "velocity": 0.33070866141732286
        },
        {
          "duration": 0.04651162790697683,
          "durationTicks": 4,
          "midi": 72,
          "name": "C5",
          "ticks": 1618,
          "time": 18.813953488372093,
          "velocity": 0.18110236220472442
        },
        {
          "duration": 0.24418604651162568,
          "durationTicks": 21,
          "midi": 60,
          "name": "C4",
          "ticks": 1620,
          "time": 18.837209302325583,
          "velocity": 0.33070866141732286
        },
        {
          "duration": 0.02325581395349019,
          "durationTicks": 2,
          "midi": 48,
          "name": "C3",
          "ticks": 1621,
          "time": 18.848837209302324,
          "velocity": 0.3858267716535433
        },
        {
          "duration": 0.034883720930235285,
          "durationTicks": 3,
          "midi": 54,
          "name": "F#3",
          "ticks": 1621,
          "time": 18.848837209302324,
          "velocity": 0.44881889763779526
        },
        {
          "duration": 0.12790697674418539,
          "durationTicks": 11,
          "midi": 55,
          "name": "G3",
          "ticks": 1624,
          "time": 18.88372093023256,
          "velocity": 0.4566929133858268
        },
        {
          "duration": 0.20930232558139394,
          "durationTicks": 18,
          "midi": 84,
          "name": "C6",
          "ticks": 1624,
          "time": 18.88372093023256,
          "velocity": 0.09448818897637795
        },
        {
          "duration": 0.04651162790697683,
          "durationTicks": 4,
          "midi": 91,
          "name": "G6",
          "ticks": 1626,
          "time": 18.906976744186046,
          "velocity": 0.13385826771653545
        },
        {
          "duration": 0.02325581395349019,
          "durationTicks": 2,
          "midi": 48,
          "name": "C3",
          "ticks": 1629,
          "time": 18.941860465116278,
          "velocity": 0.36220472440944884
        },
        {
          "duration": 0.03488372093023173,
          "durationTicks": 3,
          "midi": 71,
          "name": "B4",
          "ticks": 1630,
          "time": 18.953488372093023,
          "velocity": 0.29133858267716534
        },
        {
          "duration": 0.1046511627906952,
          "durationTicks": 9,
          "midi": 48,
          "name": "C3",
          "ticks": 1632,
          "time": 18.976744186046513,
          "velocity": 0.3464566929133858
        },
        {
          "duration": 0.03488372093023173,
          "durationTicks": 3,
          "midi": 91,
          "name": "G6",
          "ticks": 1634,
          "time": 19,
          "velocity": 0.10236220472440945
        },
        {
          "duration": 0.05813953488372192,
          "durationTicks": 5,
          "midi": 55,
          "name": "G3",
          "ticks": 1636,
          "time": 19.023255813953487,
          "velocity": 0.33858267716535434
        },
        {
          "duration": 0.06976744186046702,
          "durationTicks": 6,
          "midi": 83,
          "name": "B5",
          "ticks": 1637,
          "time": 19.03488372093023,
          "velocity": 0.07874015748031496
        },
        {
          "duration": 0.1976744186046524,
          "durationTicks": 17,
          "midi": 74,
          "name": "D5",
          "ticks": 1640,
          "time": 19.069767441860463,
          "velocity": 0.4330708661417323
        },
        {
          "duration": 0.06976744186046702,
          "durationTicks": 6,
          "midi": 91,
          "name": "G6",
          "ticks": 1640,
          "time": 19.069767441860463,
          "velocity": 0.09448818897637795
        },
        {
          "duration": 0.13953488372093048,
          "durationTicks": 12,
          "midi": 81,
          "name": "A5",
          "ticks": 1641,
          "time": 19.08139534883721,
          "velocity": 0.23622047244094488
        },
        {
          "duration": 0.09302325581395365,
          "durationTicks": 8,
          "midi": 62,
          "name": "D4",
          "ticks": 1642,
          "time": 19.093023255813954,
          "velocity": 0.3937007874015748
        },
        {
          "duration": 0.04651162790697683,
          "durationTicks": 4,
          "midi": 78,
          "name": "F#5",
          "ticks": 1642,
          "time": 19.093023255813954,
          "velocity": 0.2047244094488189
        },
        {
          "duration": 0.023255813953486637,
          "durationTicks": 2,
          "midi": 52,
          "name": "E3",
          "ticks": 1643,
          "time": 19.1046511627907,
          "velocity": 0.4566929133858268
        },
        {
          "duration": 0.1046511627906952,
          "durationTicks": 9,
          "midi": 67,
          "name": "G4",
          "ticks": 1643,
          "time": 19.1046511627907,
          "velocity": 0.2204724409448819
        },
        {
          "duration": 0.08139534883720856,
          "durationTicks": 7,
          "midi": 76,
          "name": "E5",
          "ticks": 1645,
          "time": 19.127906976744185,
          "velocity": 0.1732283464566929
        },
        {
          "duration": 0.06976744186046346,
          "durationTicks": 6,
          "midi": 83,
          "name": "B5",
          "ticks": 1646,
          "time": 19.13953488372093,
          "velocity": 0.14173228346456693
        },
        {
          "duration": 0.08139534883720856,
          "durationTicks": 7,
          "midi": 72,
          "name": "C5",
          "ticks": 1649,
          "time": 19.174418604651162,
          "velocity": 0.15748031496062992
        },
        {
          "duration": 0.03488372093023173,
          "durationTicks": 3,
          "midi": 64,
          "name": "E4",
          "ticks": 1653,
          "time": 19.22093023255814,
          "velocity": 0.14173228346456693
        },
        {
          "duration": 0.023255813953486637,
          "durationTicks": 2,
          "midi": 52,
          "name": "E3",
          "ticks": 1654,
          "time": 19.232558139534884,
          "velocity": 0.25984251968503935
        },
        {
          "duration": 0.06976744186046346,
          "durationTicks": 6,
          "midi": 62,
          "name": "D4",
          "ticks": 1655,
          "time": 19.24418604651163,
          "velocity": 0.14173228346456693
        },
        {
          "duration": 0.023255813953486637,
          "durationTicks": 2,
          "midi": 55,
          "name": "G3",
          "ticks": 1662,
          "time": 19.325581395348838,
          "velocity": 0.4566929133858268
        },
        {
          "duration": 0.023255813953486637,
          "durationTicks": 2,
          "midi": 63,
          "name": "D#4",
          "ticks": 1663,
          "time": 19.337209302325583,
          "velocity": 0.29133858267716534
        },
        {
          "duration": 0.03488372093023173,
          "durationTicks": 3,
          "midi": 70,
          "name": "A#4",
          "ticks": 1663,
          "time": 19.337209302325583,
          "velocity": 0.28346456692913385
        },
        {
          "duration": 0.05813953488371837,
          "durationTicks": 5,
          "midi": 76,
          "name": "E5",
          "ticks": 1663,
          "time": 19.337209302325583,
          "velocity": 0.2283464566929134
        },
        {
          "duration": 0.02325581395349019,
          "durationTicks": 2,
          "midi": 58,
          "name": "A#3",
          "ticks": 1664,
          "time": 19.348837209302324,
          "velocity": 0.4645669291338583
        },
        {
          "duration": 0.1976744186046524,
          "durationTicks": 17,
          "midi": 84,
          "name": "C6",
          "ticks": 1664,
          "time": 19.348837209302324,
          "velocity": 0.2125984251968504
        },
        {
          "duration": 0.03488372093023173,
          "durationTicks": 3,
          "midi": 48,
          "name": "C3",
          "ticks": 1665,
          "time": 19.36046511627907,
          "velocity": 0.33070866141732286
        },
        {
          "duration": 0.02325581395349019,
          "durationTicks": 2,
          "midi": 61,
          "name": "C#4",
          "ticks": 1665,
          "time": 19.36046511627907,
          "velocity": 0.3228346456692913
        },
        {
          "duration": 0.25581395348837077,
          "durationTicks": 22,
          "midi": 64,
          "name": "E4",
          "ticks": 1665,
          "time": 19.36046511627907,
          "velocity": 0.28346456692913385
        },
        {
          "duration": 0.11627906976744384,
          "durationTicks": 10,
          "midi": 74,
          "name": "D5",
          "ticks": 1665,
          "time": 19.36046511627907,
          "velocity": 0.23622047244094488
        },
        {
          "duration": 0.11627906976744384,
          "durationTicks": 10,
          "midi": 81,
          "name": "A5",
          "ticks": 1665,
          "time": 19.36046511627907,
          "velocity": 0.23622047244094488
        },
        {
          "duration": 0.09302325581395365,
          "durationTicks": 8,
          "midi": 69,
          "name": "A4",
          "ticks": 1666,
          "time": 19.372093023255815,
          "velocity": 0.25196850393700787
        },
        {
          "duration": 0.023255813953486637,
          "durationTicks": 2,
          "midi": 54,
          "name": "F#3",
          "ticks": 1667,
          "time": 19.38372093023256,
          "velocity": 0.4645669291338583
        },
        {
          "duration": 0.05813953488371837,
          "durationTicks": 5,
          "midi": 103,
          "name": "G7",
          "ticks": 1667,
          "time": 19.38372093023256,
          "velocity": 0.11023622047244094
        },
        {
          "duration": 0.023255813953486637,
          "durationTicks": 2,
          "midi": 57,
          "name": "A3",
          "ticks": 1671,
          "time": 19.430232558139537,
          "velocity": 0.47244094488188976
        },
        {
          "duration": 0.034883720930235285,
          "durationTicks": 3,
          "midi": 91,
          "name": "G6",
          "ticks": 1672,
          "time": 19.441860465116278,
          "velocity": 0.08661417322834646
        },
        {
          "duration": 0.02325581395349019,
          "durationTicks": 2,
          "midi": 56,
          "name": "G#3",
          "ticks": 1673,
          "time": 19.453488372093023,
          "velocity": 0.48031496062992124
        },
        {
          "duration": 0.023255813953486637,
          "durationTicks": 2,
          "midi": 52,
          "name": "E3",
          "ticks": 1675,
          "time": 19.476744186046513,
          "velocity": 0.36220472440944884
        },
        {
          "duration": 0.1046511627906952,
          "durationTicks": 9,
          "midi": 83,
          "name": "B5",
          "ticks": 1675,
          "time": 19.476744186046513,
          "velocity": 0.09448818897637795
        },
        {
          "duration": 0.09302325581395365,
          "durationTicks": 8,
          "midi": 67,
          "name": "G4",
          "ticks": 1676,
          "time": 19.488372093023255,
          "velocity": 0.1732283464566929
        },
        {
          "duration": 0.08139534883720856,
          "durationTicks": 7,
          "midi": 60,
          "name": "C4",
          "ticks": 1677,
          "time": 19.5,
          "velocity": 0.1889763779527559
        },
        {
          "duration": 0.08139534883720856,
          "durationTicks": 7,
          "midi": 55,
          "name": "G3",
          "ticks": 1678,
          "time": 19.511627906976745,
          "velocity": 0.49606299212598426
        },
        {
          "duration": 0.05813953488372192,
          "durationTicks": 5,
          "midi": 48,
          "name": "C3",
          "ticks": 1680,
          "time": 19.53488372093023,
          "velocity": 0.3937007874015748
        },
        {
          "duration": 0.03488372093023173,
          "durationTicks": 3,
          "midi": 91,
          "name": "G6",
          "ticks": 1681,
          "time": 19.546511627906977,
          "velocity": 0.10236220472440945
        },
        {
          "duration": 0.023255813953486637,
          "durationTicks": 2,
          "midi": 55,
          "name": "G3",
          "ticks": 1686,
          "time": 19.6046511627907,
          "velocity": 0.4881889763779528
        },
        {
          "duration": 0.034883720930235285,
          "durationTicks": 3,
          "midi": 84,
          "name": "C6",
          "ticks": 1687,
          "time": 19.61627906976744,
          "velocity": 0.11023622047244094
        },
        {
          "duration": 0.02325581395349019,
          "durationTicks": 2,
          "midi": 54,
          "name": "F#3",
          "ticks": 1688,
          "time": 19.627906976744185,
          "velocity": 0.3464566929133858
        },
        {
          "duration": 0.03488372093023173,
          "durationTicks": 3,
          "midi": 60,
          "name": "C4",
          "ticks": 1688,
          "time": 19.627906976744185,
          "velocity": 0.29133858267716534
        },
        {
          "duration": 0.08139534883720856,
          "durationTicks": 7,
          "midi": 44,
          "name": "G#2",
          "ticks": 1690,
          "time": 19.651162790697676,
          "velocity": 0.3700787401574803
        },
        {
          "duration": 0.05813953488372192,
          "durationTicks": 5,
          "midi": 60,
          "name": "C4",
          "ticks": 1692,
          "time": 19.674418604651162,
          "velocity": 0.23622047244094488
        },
        {
          "duration": 0.05813953488372192,
          "durationTicks": 5,
          "midi": 56,
          "name": "G#3",
          "ticks": 1696,
          "time": 19.72093023255814,
          "velocity": 0.47244094488188976
        },
        {
          "duration": 0.1976744186046524,
          "durationTicks": 17,
          "midi": 76,
          "name": "E5",
          "ticks": 1697,
          "time": 19.732558139534884,
          "velocity": 0.2125984251968504
        },
        {
          "duration": 0.10465116279069875,
          "durationTicks": 9,
          "midi": 80,
          "name": "G#5",
          "ticks": 1697,
          "time": 19.732558139534884,
          "velocity": 0.23622047244094488
        },
        {
          "duration": 0.03488372093023173,
          "durationTicks": 3,
          "midi": 74,
          "name": "D5",
          "ticks": 1698,
          "time": 19.74418604651163,
          "velocity": 0.14173228346456693
        },
        {
          "duration": 0.08139534883720856,
          "durationTicks": 7,
          "midi": 83,
          "name": "B5",
          "ticks": 1698,
          "time": 19.74418604651163,
          "velocity": 0.11811023622047244
        },
        {
          "duration": 0.03488372093023173,
          "durationTicks": 3,
          "midi": 84,
          "name": "C6",
          "ticks": 1698,
          "time": 19.74418604651163,
          "velocity": 0.11811023622047244
        },
        {
          "duration": 0.02325581395349019,
          "durationTicks": 2,
          "midi": 48,
          "name": "C3",
          "ticks": 1699,
          "time": 19.75581395348837,
          "velocity": 0.2440944881889764
        },
        {
          "duration": 0.24418604651162923,
          "durationTicks": 21,
          "midi": 60,
          "name": "C4",
          "ticks": 1699,
          "time": 19.75581395348837,
          "velocity": 0.36220472440944884
        },
        {
          "duration": 0.23255813953488413,
          "durationTicks": 20,
          "midi": 64,
          "name": "E4",
          "ticks": 1699,
          "time": 19.75581395348837,
          "velocity": 0.30708661417322836
        },
        {
          "duration": 0.27906976744186096,
          "durationTicks": 24,
          "midi": 86,
          "name": "D6",
          "ticks": 1699,
          "time": 19.75581395348837,
          "velocity": 0.14173228346456693
        },
        {
          "duration": 0.05813953488372192,
          "durationTicks": 5,
          "midi": 91,
          "name": "G6",
          "ticks": 1699,
          "time": 19.75581395348837,
          "velocity": 0.09448818897637795
        },
        {
          "duration": 0.03488372093023173,
          "durationTicks": 3,
          "midi": 87,
          "name": "D#6",
          "ticks": 1700,
          "time": 19.767441860465116,
          "velocity": 0.10236220472440945
        },
        {
          "duration": 0.03488372093023173,
          "durationTicks": 3,
          "midi": 102,
          "name": "F#7",
          "ticks": 1700,
          "time": 19.767441860465116,
          "velocity": 0.11023622047244094
        },
        {
          "duration": 0.23255813953488413,
          "durationTicks": 20,
          "midi": 55,
          "name": "G3",
          "ticks": 1701,
          "time": 19.77906976744186,
          "velocity": 0.5275590551181102
        },
        {
          "duration": 0.03488372093023173,
          "durationTicks": 3,
          "midi": 79,
          "name": "G5",
          "ticks": 1706,
          "time": 19.837209302325583,
          "velocity": 0.12598425196850394
        },
        {
          "duration": 0.02325581395349019,
          "durationTicks": 2,
          "midi": 48,
          "name": "C3",
          "ticks": 1708,
          "time": 19.86046511627907,
          "velocity": 0.2283464566929134
        },
        {
          "duration": 0.06976744186046346,
          "durationTicks": 6,
          "midi": 83,
          "name": "B5",
          "ticks": 1709,
          "time": 19.872093023255815,
          "velocity": 0.11023622047244094
        },
        {
          "duration": 0.12790697674418539,
          "durationTicks": 11,
          "midi": 83,
          "name": "B5",
          "ticks": 1718,
          "time": 19.976744186046513,
          "velocity": 0.13385826771653545
        },
        {
          "duration": 0.16279069767442067,
          "durationTicks": 14,
          "midi": 76,
          "name": "E5",
          "ticks": 1719,
          "time": 19.988372093023255,
          "velocity": 0.1889763779527559
        },
        {
          "duration": 0.12790697674418539,
          "durationTicks": 11,
          "midi": 64,
          "name": "E4",
          "ticks": 1720,
          "time": 20,
          "velocity": 0.23622047244094488
        },
        {
          "duration": 0.09302325581395365,
          "durationTicks": 8,
          "midi": 79,
          "name": "G5",
          "ticks": 1720,
          "time": 20,
          "velocity": 0.2440944881889764
        },
        {
          "duration": 0.023255813953486637,
          "durationTicks": 2,
          "midi": 56,
          "name": "G#3",
          "ticks": 1721,
          "time": 20.011627906976745,
          "velocity": 0.5118110236220472
        },
        {
          "duration": 0.12790697674418539,
          "durationTicks": 11,
          "midi": 60,
          "name": "C4",
          "ticks": 1721,
          "time": 20.011627906976745,
          "velocity": 0.3700787401574803
        },
        {
          "duration": 0.10465116279069875,
          "durationTicks": 9,
          "midi": 55,
          "name": "G3",
          "ticks": 1723,
          "time": 20.03488372093023,
          "velocity": 0.5669291338582677
        },
        {
          "duration": 0.08139534883720856,
          "durationTicks": 7,
          "midi": 74,
          "name": "D5",
          "ticks": 1723,
          "time": 20.03488372093023,
          "velocity": 0.12598425196850394
        },
        {
          "duration": 0.10465116279069875,
          "durationTicks": 9,
          "midi": 84,
          "name": "C6",
          "ticks": 1723,
          "time": 20.03488372093023,
          "velocity": 0.12598425196850394
        },
        {
          "duration": 0.04651162790697683,
          "durationTicks": 4,
          "midi": 48,
          "name": "C3",
          "ticks": 1728,
          "time": 20.093023255813954,
          "velocity": 0.25984251968503935
        },
        {
          "duration": 0.023255813953486637,
          "durationTicks": 2,
          "midi": 65,
          "name": "F4",
          "ticks": 1733,
          "time": 20.151162790697676,
          "velocity": 0.2283464566929134
        },
        {
          "duration": 0.02325581395349019,
          "durationTicks": 2,
          "midi": 55,
          "name": "G3",
          "ticks": 1734,
          "time": 20.162790697674417,
          "velocity": 0.47244094488188976
        },
        {
          "duration": 0.02325581395349019,
          "durationTicks": 2,
          "midi": 44,
          "name": "G#2",
          "ticks": 1735,
          "time": 20.174418604651162,
          "velocity": 0.23622047244094488
        },
        {
          "duration": 0.06976744186046346,
          "durationTicks": 6,
          "midi": 56,
          "name": "G#3",
          "ticks": 1736,
          "time": 20.186046511627907,
          "velocity": 0.25984251968503935
        },
        {
          "duration": 0.08139534883720856,
          "durationTicks": 7,
          "midi": 60,
          "name": "C4",
          "ticks": 1736,
          "time": 20.186046511627907,
          "velocity": 0.2283464566929134
        },
        {
          "duration": 0.04651162790697683,
          "durationTicks": 4,
          "midi": 44,
          "name": "G#2",
          "ticks": 1738,
          "time": 20.209302325581394,
          "velocity": 0.18110236220472442
        },
        {
          "duration": 0.04651162790697683,
          "durationTicks": 4,
          "midi": 65,
          "name": "F4",
          "ticks": 1742,
          "time": 20.25581395348837,
          "velocity": 0.36220472440944884
        },
        {
          "duration": 0.27906976744186096,
          "durationTicks": 24,
          "midi": 72,
          "name": "C5",
          "ticks": 1743,
          "time": 20.267441860465116,
          "velocity": 0.2204724409448819
        },
        {
          "duration": 0.03488372093023173,
          "durationTicks": 3,
          "midi": 91,
          "name": "G6",
          "ticks": 1743,
          "time": 20.267441860465116,
          "velocity": 0.07086614173228346
        },
        {
          "duration": 0.03488372093023173,
          "durationTicks": 3,
          "midi": 97,
          "name": "C#7",
          "ticks": 1743,
          "time": 20.267441860465116,
          "velocity": 0.11811023622047244
        },
        {
          "duration": 0.11627906976744384,
          "durationTicks": 10,
          "midi": 100,
          "name": "E7",
          "ticks": 1743,
          "time": 20.267441860465116,
          "velocity": 0.08661417322834646
        },
        {
          "duration": 0.08139534883720856,
          "durationTicks": 7,
          "midi": 55,
          "name": "G3",
          "ticks": 1744,
          "time": 20.27906976744186,
          "velocity": 0.47244094488188976
        },
        {
          "duration": 0.23255813953488413,
          "durationTicks": 20,
          "midi": 60,
          "name": "C4",
          "ticks": 1744,
          "time": 20.27906976744186,
          "velocity": 0.3937007874015748
        },
        {
          "duration": 0.05813953488371837,
          "durationTicks": 5,
          "midi": 83,
          "name": "B5",
          "ticks": 1745,
          "time": 20.290697674418606,
          "velocity": 0.07874015748031496
        },
        {
          "duration": 0.06976744186046702,
          "durationTicks": 6,
          "midi": 64,
          "name": "E4",
          "ticks": 1746,
          "time": 20.302325581395348,
          "velocity": 0.30708661417322836
        },
        {
          "duration": 0.034883720930235285,
          "durationTicks": 3,
          "midi": 98,
          "name": "D7",
          "ticks": 1746,
          "time": 20.302325581395348,
          "velocity": 0.07874015748031496
        },
        {
          "duration": 0.05813953488372192,
          "durationTicks": 5,
          "midi": 91,
          "name": "G6",
          "ticks": 1750,
          "time": 20.348837209302324,
          "velocity": 0.09448818897637795
        },
        {
          "duration": 0.04651162790697683,
          "durationTicks": 4,
          "midi": 97,
          "name": "C#7",
          "ticks": 1750,
          "time": 20.348837209302324,
          "velocity": 0.13385826771653545
        },
        {
          "duration": 0.13953488372093048,
          "durationTicks": 12,
          "midi": 65,
          "name": "F4",
          "ticks": 1751,
          "time": 20.36046511627907,
          "velocity": 0.29133858267716534
        },
        {
          "duration": 0.15116279069767202,
          "durationTicks": 13,
          "midi": 55,
          "name": "G3",
          "ticks": 1752,
          "time": 20.372093023255815,
          "velocity": 0.47244094488188976
        },
        {
          "duration": 0.023255813953486637,
          "durationTicks": 2,
          "midi": 48,
          "name": "C3",
          "ticks": 1764,
          "time": 20.511627906976745,
          "velocity": 0.3464566929133858
        },
        {
          "duration": 0.023255813953486637,
          "durationTicks": 2,
          "midi": 62,
          "name": "D4",
          "ticks": 1764,
          "time": 20.511627906976745,
          "velocity": 0.28346456692913385
        },
        {
          "duration": 0.15116279069767202,
          "durationTicks": 13,
          "midi": 69,
          "name": "A4",
          "ticks": 1764,
          "time": 20.511627906976745,
          "velocity": 0.15748031496062992
        },
        {
          "duration": 0.15116279069767202,
          "durationTicks": 13,
          "midi": 74,
          "name": "D5",
          "ticks": 1764,
          "time": 20.511627906976745,
          "velocity": 0.30708661417322836
        },
        {
          "duration": 0.10465116279069875,
          "durationTicks": 9,
          "midi": 67,
          "name": "G4",
          "ticks": 1766,
          "time": 20.53488372093023,
          "velocity": 0.10236220472440945
        },
        {
          "duration": 0.023255813953486637,
          "durationTicks": 2,
          "midi": 62,
          "name": "D4",
          "ticks": 1767,
          "time": 20.546511627906977,
          "velocity": 0.2677165354330709
        },
        {
          "duration": 0.09302325581395365,
          "durationTicks": 8,
          "midi": 76,
          "name": "E5",
          "ticks": 1768,
          "time": 20.558139534883722,
          "velocity": 0.08661417322834646
        },
        {
          "duration": 0.02325581395349019,
          "durationTicks": 2,
          "midi": 50,
          "name": "D3",
          "ticks": 1770,
          "time": 20.58139534883721,
          "velocity": 0.4409448818897638
        },
        {
          "duration": 0.06976744186046702,
          "durationTicks": 6,
          "midi": 55,
          "name": "G3",
          "ticks": 1770,
          "time": 20.58139534883721,
          "velocity": 0.4330708661417323
        },
        {
          "duration": 0.03488372093023173,
          "durationTicks": 3,
          "midi": 65,
          "name": "F4",
          "ticks": 1775,
          "time": 20.63953488372093,
          "velocity": 0.2204724409448819
        },
        {
          "duration": 0.03488372093023173,
          "durationTicks": 3,
          "midi": 60,
          "name": "C4",
          "ticks": 1776,
          "time": 20.651162790697676,
          "velocity": 0.2677165354330709
        },
        {
          "duration": 0.02325581395349019,
          "durationTicks": 2,
          "midi": 49,
          "name": "C#3",
          "ticks": 1777,
          "time": 20.662790697674417,
          "velocity": 0.29133858267716534
        },
        {
          "duration": 0.04651162790697683,
          "durationTicks": 4,
          "midi": 89,
          "name": "F6",
          "ticks": 1777,
          "time": 20.662790697674417,
          "velocity": 0.14960629921259844
        },
        {
          "duration": 0.02325581395349019,
          "durationTicks": 2,
          "midi": 55,
          "name": "G3",
          "ticks": 1778,
          "time": 20.674418604651162,
          "velocity": 0.4094488188976378
        },
        {
          "duration": 0.04651162790697683,
          "durationTicks": 4,
          "midi": 44,
          "name": "G#2",
          "ticks": 1779,
          "time": 20.686046511627907,
          "velocity": 0.2677165354330709
        },
        {
          "duration": 0.09302325581395365,
          "durationTicks": 8,
          "midi": 65,
          "name": "F4",
          "ticks": 1779,
          "time": 20.686046511627907,
          "velocity": 0.2440944881889764
        },
        {
          "duration": 0.03488372093023173,
          "durationTicks": 3,
          "midi": 55,
          "name": "G3",
          "ticks": 1783,
          "time": 20.732558139534884,
          "velocity": 0.3937007874015748
        },
        {
          "duration": 0.02325581395349019,
          "durationTicks": 2,
          "midi": 56,
          "name": "G#3",
          "ticks": 1786,
          "time": 20.767441860465116,
          "velocity": 0.3937007874015748
        },
        {
          "duration": 0.04651162790697683,
          "durationTicks": 4,
          "midi": 71,
          "name": "B4",
          "ticks": 1786,
          "time": 20.767441860465116,
          "velocity": 0.2125984251968504
        },
        {
          "duration": 0.3604651162790695,
          "durationTicks": 31,
          "midi": 55,
          "name": "G3",
          "ticks": 1788,
          "time": 20.790697674418606,
          "velocity": 0.5433070866141733
        },
        {
          "duration": 0.04651162790697683,
          "durationTicks": 4,
          "midi": 62,
          "name": "D4",
          "ticks": 1788,
          "time": 20.790697674418606,
          "velocity": 0.14960629921259844
        },
        {
          "duration": 0.13953488372093048,
          "durationTicks": 12,
          "midi": 74,
          "name": "D5",
          "ticks": 1788,
          "time": 20.790697674418606,
          "velocity": 0.2440944881889764
        },
        {
          "duration": 0.034883720930235285,
          "durationTicks": 3,
          "midi": 89,
          "name": "F6",
          "ticks": 1789,
          "time": 20.802325581395348,
          "velocity": 0.10236220472440945
        },
        {
          "duration": 0.023255813953486637,
          "durationTicks": 2,
          "midi": 45,
          "name": "A2",
          "ticks": 1791,
          "time": 20.825581395348838,
          "velocity": 0.23622047244094488
        },
        {
          "duration": 0.04651162790697683,
          "durationTicks": 4,
          "midi": 62,
          "name": "D4",
          "ticks": 1799,
          "time": 20.91860465116279,
          "velocity": 0.1732283464566929
        },
        {
          "duration": 0.1046511627906952,
          "durationTicks": 9,
          "midi": 71,
          "name": "B4",
          "ticks": 1800,
          "time": 20.930232558139537,
          "velocity": 0.15748031496062992
        },
        {
          "duration": 0.02325581395349019,
          "durationTicks": 2,
          "midi": 45,
          "name": "A2",
          "ticks": 1802,
          "time": 20.953488372093023,
          "velocity": 0.36220472440944884
        },
        {
          "duration": 0.02325581395349019,
          "durationTicks": 2,
          "midi": 43,
          "name": "G2",
          "ticks": 1805,
          "time": 20.988372093023255,
          "velocity": 0.33070866141732286
        },
        {
          "duration": 0.03488372093023173,
          "durationTicks": 3,
          "midi": 62,
          "name": "D4",
          "ticks": 1806,
          "time": 21,
          "velocity": 0.12598425196850394
        },
        {
          "duration": 0.04651162790697683,
          "durationTicks": 4,
          "midi": 71,
          "name": "B4",
          "ticks": 1810,
          "time": 21.046511627906977,
          "velocity": 0.2755905511811024
        },
        {
          "duration": 0.05813953488372192,
          "durationTicks": 5,
          "midi": 71,
          "name": "B4",
          "ticks": 1818,
          "time": 21.13953488372093,
          "velocity": 0.16535433070866143
        },
        {
          "duration": 0.023255813953486637,
          "durationTicks": 2,
          "midi": 48,
          "name": "C3",
          "ticks": 1819,
          "time": 21.151162790697676,
          "velocity": 0.3858267716535433
        },
        {
          "duration": 0.023255813953486637,
          "durationTicks": 2,
          "midi": 59,
          "name": "B3",
          "ticks": 1819,
          "time": 21.151162790697676,
          "velocity": 0.2992125984251969
        },
        {
          "duration": 0.26744186046511587,
          "durationTicks": 23,
          "midi": 62,
          "name": "D4",
          "ticks": 1819,
          "time": 21.151162790697676,
          "velocity": 0.44881889763779526
        },
        {
          "duration": 0.06976744186046346,
          "durationTicks": 6,
          "midi": 88,
          "name": "E6",
          "ticks": 1819,
          "time": 21.151162790697676,
          "velocity": 0.12598425196850394
        },
        {
          "duration": 0.16279069767442067,
          "durationTicks": 14,
          "midi": 69,
          "name": "A4",
          "ticks": 1820,
          "time": 21.162790697674417,
          "velocity": 0.1968503937007874
        },
        {
          "duration": 0.13953488372093048,
          "durationTicks": 12,
          "midi": 81,
          "name": "A5",
          "ticks": 1821,
          "time": 21.174418604651162,
          "velocity": 0.2125984251968504
        },
        {
          "duration": 0.023255813953486637,
          "durationTicks": 2,
          "midi": 53,
          "name": "F3",
          "ticks": 1822,
          "time": 21.186046511627907,
          "velocity": 0.3543307086614173
        },
        {
          "duration": 0.03488372093023173,
          "durationTicks": 3,
          "midi": 78,
          "name": "F#5",
          "ticks": 1822,
          "time": 21.186046511627907,
          "velocity": 0.15748031496062992
        },
        {
          "duration": 0.04651162790697683,
          "durationTicks": 4,
          "midi": 83,
          "name": "B5",
          "ticks": 1822,
          "time": 21.186046511627907,
          "velocity": 0.1889763779527559
        },
        {
          "duration": 0.12790697674418539,
          "durationTicks": 11,
          "midi": 55,
          "name": "G3",
          "ticks": 1823,
          "time": 21.197674418604652,
          "velocity": 0.4566929133858268
        },
        {
          "duration": 0.023255813953486637,
          "durationTicks": 2,
          "midi": 50,
          "name": "D3",
          "ticks": 1827,
          "time": 21.24418604651163,
          "velocity": 0.3464566929133858
        },
        {
          "duration": 0.03488372093023173,
          "durationTicks": 3,
          "midi": 78,
          "name": "F#5",
          "ticks": 1827,
          "time": 21.24418604651163,
          "velocity": 0.09448818897637795
        },
        {
          "duration": 0.034883720930235285,
          "durationTicks": 3,
          "midi": 98,
          "name": "D7",
          "ticks": 1828,
          "time": 21.25581395348837,
          "velocity": 0.11811023622047244
        },
        {
          "duration": 0.03488372093023173,
          "durationTicks": 3,
          "midi": 56,
          "name": "G#3",
          "ticks": 1841,
          "time": 21.406976744186046,
          "velocity": 0.5118110236220472
        },
        {
          "duration": 0.11627906976744029,
          "durationTicks": 10,
          "midi": 74,
          "name": "D5",
          "ticks": 1842,
          "time": 21.41860465116279,
          "velocity": 0.2283464566929134
        },
        {
          "duration": 0.13953488372093048,
          "durationTicks": 12,
          "midi": 76,
          "name": "E5",
          "ticks": 1842,
          "time": 21.41860465116279,
          "velocity": 0.18110236220472442
        },
        {
          "duration": 0.023255813953486637,
          "durationTicks": 2,
          "midi": 70,
          "name": "A#4",
          "ticks": 1843,
          "time": 21.430232558139537,
          "velocity": 0.2440944881889764
        },
        {
          "duration": 0.12790697674418539,
          "durationTicks": 11,
          "midi": 81,
          "name": "A5",
          "ticks": 1844,
          "time": 21.441860465116278,
          "velocity": 0.25196850393700787
        },
        {
          "duration": 0.24418604651162923,
          "durationTicks": 21,
          "midi": 67,
          "name": "G4",
          "ticks": 1845,
          "time": 21.453488372093023,
          "velocity": 0.28346456692913385
        },
        {
          "duration": 0.10465116279069875,
          "durationTicks": 9,
          "midi": 69,
          "name": "A4",
          "ticks": 1845,
          "time": 21.453488372093023,
          "velocity": 0.28346456692913385
        },
        {
          "duration": 0.023255813953486637,
          "durationTicks": 2,
          "midi": 55,
          "name": "G3",
          "ticks": 1846,
          "time": 21.46511627906977,
          "velocity": 0.4566929133858268
        },
        {
          "duration": 0.09302325581395365,
          "durationTicks": 8,
          "midi": 100,
          "name": "E7",
          "ticks": 1846,
          "time": 21.46511627906977,
          "velocity": 0.1889763779527559
        },
        {
          "duration": 0.03488372093023173,
          "durationTicks": 3,
          "midi": 103,
          "name": "G7",
          "ticks": 1847,
          "time": 21.476744186046513,
          "velocity": 0.10236220472440945
        },
        {
          "duration": 0.2093023255813975,
          "durationTicks": 18,
          "midi": 62,
          "name": "D4",
          "ticks": 1848,
          "time": 21.488372093023255,
          "velocity": 0.2755905511811024
        },
        {
          "duration": 0.023255813953486637,
          "durationTicks": 2,
          "midi": 56,
          "name": "G#3",
          "ticks": 1849,
          "time": 21.5,
          "velocity": 0.4645669291338583
        },
        {
          "duration": 0.023255813953486637,
          "durationTicks": 2,
          "midi": 56,
          "name": "G#3",
          "ticks": 1853,
          "time": 21.546511627906977,
          "velocity": 0.44881889763779526
        },
        {
          "duration": 0.023255813953486637,
          "durationTicks": 2,
          "midi": 48,
          "name": "C3",
          "ticks": 1854,
          "time": 21.558139534883722,
          "velocity": 0.33858267716535434
        },
        {
          "duration": 0.11627906976744384,
          "durationTicks": 10,
          "midi": 55,
          "name": "G3",
          "ticks": 1855,
          "time": 21.569767441860463,
          "velocity": 0.33858267716535434
        },
        {
          "duration": 0.023255813953486637,
          "durationTicks": 2,
          "midi": 48,
          "name": "C3",
          "ticks": 1861,
          "time": 21.63953488372093,
          "velocity": 0.3700787401574803
        },
        {
          "duration": 0.02325581395349019,
          "durationTicks": 2,
          "midi": 45,
          "name": "A2",
          "ticks": 1863,
          "time": 21.662790697674417,
          "velocity": 0.33858267716535434
        },
        {
          "duration": 0.023255813953486637,
          "durationTicks": 2,
          "midi": 50,
          "name": "D3",
          "ticks": 1865,
          "time": 21.686046511627907,
          "velocity": 0.30708661417322836
        },
        {
          "duration": 0.023255813953486637,
          "durationTicks": 2,
          "midi": 56,
          "name": "G#3",
          "ticks": 1865,
          "time": 21.686046511627907,
          "velocity": 0.30708661417322836
        },
        {
          "duration": 0.04651162790697683,
          "durationTicks": 4,
          "midi": 74,
          "name": "D5",
          "ticks": 1866,
          "time": 21.697674418604652,
          "velocity": 0.15748031496062992
        },
        {
          "duration": 0.03488372093023173,
          "durationTicks": 3,
          "midi": 85,
          "name": "C#6",
          "ticks": 1866,
          "time": 21.697674418604652,
          "velocity": 0.09448818897637795
        },
        {
          "duration": 0.03488372093023173,
          "durationTicks": 3,
          "midi": 89,
          "name": "F6",
          "ticks": 1866,
          "time": 21.697674418604652,
          "velocity": 0.11023622047244094
        },
        {
          "duration": 0.034883720930235285,
          "durationTicks": 3,
          "midi": 55,
          "name": "G3",
          "ticks": 1867,
          "time": 21.709302325581394,
          "velocity": 0.4409448818897638
        },
        {
          "duration": 0.05813953488371837,
          "durationTicks": 5,
          "midi": 44,
          "name": "G#2",
          "ticks": 1870,
          "time": 21.74418604651163,
          "velocity": 0.30708661417322836
        },
        {
          "duration": 0.03488372093023173,
          "durationTicks": 3,
          "midi": 61,
          "name": "C#4",
          "ticks": 1870,
          "time": 21.74418604651163,
          "velocity": 0.09448818897637795
        },
        {
          "duration": 0.02325581395349019,
          "durationTicks": 2,
          "midi": 45,
          "name": "A2",
          "ticks": 1875,
          "time": 21.802325581395348,
          "velocity": 0.2283464566929134
        },
        {
          "duration": 0.034883720930235285,
          "durationTicks": 3,
          "midi": 63,
          "name": "D#4",
          "ticks": 1875,
          "time": 21.802325581395348,
          "velocity": 0.2125984251968504
        },
        {
          "duration": 0.04651162790697683,
          "durationTicks": 4,
          "midi": 71,
          "name": "B4",
          "ticks": 1875,
          "time": 21.802325581395348,
          "velocity": 0.29133858267716534
        },
        {
          "duration": 0.02325581395349019,
          "durationTicks": 2,
          "midi": 59,
          "name": "B3",
          "ticks": 1876,
          "time": 21.813953488372093,
          "velocity": 0.3228346456692913
        },
        {
          "duration": 0.12790697674418539,
          "durationTicks": 11,
          "midi": 80,
          "name": "G#5",
          "ticks": 1876,
          "time": 21.813953488372093,
          "velocity": 0.25196850393700787
        },
        {
          "duration": 0.023255813953486637,
          "durationTicks": 2,
          "midi": 55,
          "name": "G3",
          "ticks": 1877,
          "time": 21.825581395348838,
          "velocity": 0.3779527559055118
        },
        {
          "duration": 0.38372093023255616,
          "durationTicks": 33,
          "midi": 74,
          "name": "D5",
          "ticks": 1877,
          "time": 21.825581395348838,
          "velocity": 0.16535433070866143
        },
        {
          "duration": 0.13953488372093048,
          "durationTicks": 12,
          "midi": 86,
          "name": "D6",
          "ticks": 1877,
          "time": 21.825581395348838,
          "velocity": 0.3228346456692913
        },
        {
          "duration": 0.05813953488372192,
          "durationTicks": 5,
          "midi": 102,
          "name": "F#7",
          "ticks": 1877,
          "time": 21.825581395348838,
          "velocity": 0.11811023622047244
        },
        {
          "duration": 0.023255813953486637,
          "durationTicks": 2,
          "midi": 48,
          "name": "C3",
          "ticks": 1878,
          "time": 21.837209302325583,
          "velocity": 0.25984251968503935
        },
        {
          "duration": 0.023255813953486637,
          "durationTicks": 2,
          "midi": 68,
          "name": "G#4",
          "ticks": 1878,
          "time": 21.837209302325583,
          "velocity": 0.3779527559055118
        },
        {
          "duration": 0.03488372093023173,
          "durationTicks": 3,
          "midi": 79,
          "name": "G5",
          "ticks": 1878,
          "time": 21.837209302325583,
          "velocity": 0.07874015748031496
        },
        {
          "duration": 0.02325581395349019,
          "durationTicks": 2,
          "midi": 54,
          "name": "F#3",
          "ticks": 1879,
          "time": 21.848837209302324,
          "velocity": 0.3937007874015748
        },
        {
          "duration": 0.3837209302325597,
          "durationTicks": 33,
          "midi": 62,
          "name": "D4",
          "ticks": 1879,
          "time": 21.848837209302324,
          "velocity": 0.4015748031496063
        },
        {
          "duration": 0.02325581395349019,
          "durationTicks": 2,
          "midi": 67,
          "name": "G4",
          "ticks": 1879,
          "time": 21.848837209302324,
          "velocity": 0.2677165354330709
        },
        {
          "duration": 0.06976744186046702,
          "durationTicks": 6,
          "midi": 99,
          "name": "D#7",
          "ticks": 1880,
          "time": 21.86046511627907,
          "velocity": 0.08661417322834646
        },
        {
          "duration": 0.023255813953486637,
          "durationTicks": 2,
          "midi": 45,
          "name": "A2",
          "ticks": 1881,
          "time": 21.872093023255815,
          "velocity": 0.28346456692913385
        },
        {
          "duration": 0.19767441860464885,
          "durationTicks": 17,
          "midi": 55,
          "name": "G3",
          "ticks": 1881,
          "time": 21.872093023255815,
          "velocity": 0.4330708661417323
        },
        {
          "duration": 0.06976744186046346,
          "durationTicks": 6,
          "midi": 68,
          "name": "G#4",
          "ticks": 1881,
          "time": 21.872093023255815,
          "velocity": 0.36220472440944884
        },
        {
          "duration": 0.023255813953486637,
          "durationTicks": 2,
          "midi": 45,
          "name": "A2",
          "ticks": 1885,
          "time": 21.91860465116279,
          "velocity": 0.2992125984251969
        },
        {
          "duration": 0.02325581395349019,
          "durationTicks": 2,
          "midi": 48,
          "name": "C3",
          "ticks": 1887,
          "time": 21.941860465116278,
          "velocity": 0.3543307086614173
        },
        {
          "duration": 0.034883720930235285,
          "durationTicks": 3,
          "midi": 71,
          "name": "B4",
          "ticks": 1887,
          "time": 21.941860465116278,
          "velocity": 0.08661417322834646
        },
        {
          "duration": 0.023255813953486637,
          "durationTicks": 2,
          "midi": 45,
          "name": "A2",
          "ticks": 1892,
          "time": 22,
          "velocity": 0.29133858267716534
        },
        {
          "duration": 0.1860465116279073,
          "durationTicks": 16,
          "midi": 86,
          "name": "D6",
          "ticks": 1892,
          "time": 22,
          "velocity": 0.29133858267716534
        },
        {
          "duration": 0.02325581395349019,
          "durationTicks": 2,
          "midi": 48,
          "name": "C3",
          "ticks": 1894,
          "time": 22.023255813953487,
          "velocity": 0.2992125984251969
        },
        {
          "duration": 0.023255813953486637,
          "durationTicks": 2,
          "midi": 45,
          "name": "A2",
          "ticks": 1896,
          "time": 22.046511627906977,
          "velocity": 0.25984251968503935
        },
        {
          "duration": 0.02325581395349019,
          "durationTicks": 2,
          "midi": 56,
          "name": "G#3",
          "ticks": 1898,
          "time": 22.069767441860463,
          "velocity": 0.3464566929133858
        },
        {
          "duration": 0.034883720930235285,
          "durationTicks": 3,
          "midi": 45,
          "name": "A2",
          "ticks": 1902,
          "time": 22.11627906976744,
          "velocity": 0.33858267716535434
        },
        {
          "duration": 0.09302325581395365,
          "durationTicks": 8,
          "midi": 55,
          "name": "G3",
          "ticks": 1902,
          "time": 22.11627906976744,
          "velocity": 0.5039370078740157
        },
        {
          "duration": 0.023255813953486637,
          "durationTicks": 2,
          "midi": 43,
          "name": "G2",
          "ticks": 1905,
          "time": 22.151162790697676,
          "velocity": 0.3228346456692913
        },
        {
          "duration": 0.02325581395349019,
          "durationTicks": 2,
          "midi": 44,
          "name": "G#2",
          "ticks": 1907,
          "time": 22.174418604651162,
          "velocity": 0.3543307086614173
        },
        {
          "duration": 0.04651162790697683,
          "durationTicks": 4,
          "midi": 54,
          "name": "F#3",
          "ticks": 1912,
          "time": 22.232558139534884,
          "velocity": 0.4015748031496063
        },
        {
          "duration": 0.03488372093023173,
          "durationTicks": 3,
          "midi": 62,
          "name": "D4",
          "ticks": 1913,
          "time": 22.24418604651163,
          "velocity": 0.30708661417322836
        },
        {
          "duration": 0.03488372093023173,
          "durationTicks": 3,
          "midi": 86,
          "name": "D6",
          "ticks": 1913,
          "time": 22.24418604651163,
          "velocity": 0.14173228346456693
        },
        {
          "duration": 0.04651162790697683,
          "durationTicks": 4,
          "midi": 44,
          "name": "G#2",
          "ticks": 1916,
          "time": 22.27906976744186,
          "velocity": 0.23622047244094488
        },
        {
          "duration": 0.41860465116279144,
          "durationTicks": 36,
          "midi": 67,
          "name": "G4",
          "ticks": 1916,
          "time": 22.27906976744186,
          "velocity": 0.28346456692913385
        },
        {
          "duration": 0.08139534883720856,
          "durationTicks": 7,
          "midi": 62,
          "name": "D4",
          "ticks": 1917,
          "time": 22.290697674418606,
          "velocity": 0.33858267716535434
        },
        {
          "duration": 0.24418604651162568,
          "durationTicks": 21,
          "midi": 77,
          "name": "F5",
          "ticks": 1921,
          "time": 22.337209302325583,
          "velocity": 0.2125984251968504
        },
        {
          "duration": 0.24418604651162923,
          "durationTicks": 21,
          "midi": 72,
          "name": "C5",
          "ticks": 1922,
          "time": 22.348837209302324,
          "velocity": 0.23622047244094488
        },
        {
          "duration": 0.02325581395349019,
          "durationTicks": 2,
          "midi": 55,
          "name": "G3",
          "ticks": 1923,
          "time": 22.36046511627907,
          "velocity": 0.3858267716535433
        },
        {
          "duration": 0.04651162790697683,
          "durationTicks": 4,
          "midi": 95,
          "name": "B6",
          "ticks": 1923,
          "time": 22.36046511627907,
          "velocity": 0.08661417322834646
        },
        {
          "duration": 0.03488372093023173,
          "durationTicks": 3,
          "midi": 48,
          "name": "C3",
          "ticks": 1924,
          "time": 22.372093023255815,
          "velocity": 0.31496062992125984
        },
        {
          "duration": 0.22093023255813904,
          "durationTicks": 19,
          "midi": 62,
          "name": "D4",
          "ticks": 1925,
          "time": 22.38372093023256,
          "velocity": 0.3779527559055118
        },
        {
          "duration": 0.034883720930235285,
          "durationTicks": 3,
          "midi": 55,
          "name": "G3",
          "ticks": 1926,
          "time": 22.3953488372093,
          "velocity": 0.4881889763779528
        },
        {
          "duration": 0.1976744186046524,
          "durationTicks": 17,
          "midi": 86,
          "name": "D6",
          "ticks": 1927,
          "time": 22.406976744186046,
          "velocity": 0.2677165354330709
        },
        {
          "duration": 0.034883720930235285,
          "durationTicks": 3,
          "midi": 55,
          "name": "G3",
          "ticks": 1930,
          "time": 22.441860465116278,
          "velocity": 0.4094488188976378
        },
        {
          "duration": 0.1860465116279073,
          "durationTicks": 16,
          "midi": 83,
          "name": "B5",
          "ticks": 1930,
          "time": 22.441860465116278,
          "velocity": 0.10236220472440945
        },
        {
          "duration": 0.034883720930235285,
          "durationTicks": 3,
          "midi": 97,
          "name": "C#7",
          "ticks": 1930,
          "time": 22.441860465116278,
          "velocity": 0.08661417322834646
        },
        {
          "duration": 0.06976744186046346,
          "durationTicks": 6,
          "midi": 93,
          "name": "A6",
          "ticks": 1932,
          "time": 22.46511627906977,
          "velocity": 0.09448818897637795
        },
        {
          "duration": 0.04651162790697683,
          "durationTicks": 4,
          "midi": 55,
          "name": "G3",
          "ticks": 1934,
          "time": 22.488372093023255,
          "velocity": 0.3858267716535433
        },
        {
          "duration": 0.02325581395349019,
          "durationTicks": 2,
          "midi": 45,
          "name": "A2",
          "ticks": 1937,
          "time": 22.523255813953487,
          "velocity": 0.31496062992125984
        },
        {
          "duration": 0.023255813953486637,
          "durationTicks": 2,
          "midi": 48,
          "name": "C3",
          "ticks": 1940,
          "time": 22.558139534883722,
          "velocity": 0.3543307086614173
        },
        {
          "duration": 0.04651162790697683,
          "durationTicks": 4,
          "midi": 78,
          "name": "F#5",
          "ticks": 1940,
          "time": 22.558139534883722,
          "velocity": 0.08661417322834646
        },
        {
          "duration": 0.023255813953486637,
          "durationTicks": 2,
          "midi": 51,
          "name": "D#3",
          "ticks": 1943,
          "time": 22.593023255813954,
          "velocity": 0.2677165354330709
        },
        {
          "duration": 0.04651162790697683,
          "durationTicks": 4,
          "midi": 71,
          "name": "B4",
          "ticks": 1943,
          "time": 22.593023255813954,
          "velocity": 0.12598425196850394
        },
        {
          "duration": 0.12790697674418894,
          "durationTicks": 11,
          "midi": 55,
          "name": "G3",
          "ticks": 1945,
          "time": 22.61627906976744,
          "velocity": 0.4251968503937008
        },
        {
          "duration": 0.15116279069767558,
          "durationTicks": 13,
          "midi": 62,
          "name": "D4",
          "ticks": 1945,
          "time": 22.61627906976744,
          "velocity": 0.33070866141732286
        },
        {
          "duration": 0.08139534883720856,
          "durationTicks": 7,
          "midi": 69,
          "name": "A4",
          "ticks": 1947,
          "time": 22.63953488372093,
          "velocity": 0.13385826771653545
        },
        {
          "duration": 0.023255813953486637,
          "durationTicks": 2,
          "midi": 50,
          "name": "D3",
          "ticks": 1951,
          "time": 22.686046511627907,
          "velocity": 0.31496062992125984
        },
        {
          "duration": 0.023255813953486637,
          "durationTicks": 2,
          "midi": 43,
          "name": "G2",
          "ticks": 1952,
          "time": 22.697674418604652,
          "velocity": 0.2283464566929134
        },
        {
          "duration": 0.02325581395349019,
          "durationTicks": 2,
          "midi": 50,
          "name": "D3",
          "ticks": 1954,
          "time": 22.72093023255814,
          "velocity": 0.29133858267716534
        },
        {
          "duration": 0.11627906976744029,
          "durationTicks": 10,
          "midi": 65,
          "name": "F4",
          "ticks": 1955,
          "time": 22.732558139534884,
          "velocity": 0.2440944881889764
        },
        {
          "duration": 0.05813953488372192,
          "durationTicks": 5,
          "midi": 91,
          "name": "G6",
          "ticks": 1955,
          "time": 22.732558139534884,
          "velocity": 0.11023622047244094
        },
        {
          "duration": 0.11627906976744029,
          "durationTicks": 10,
          "midi": 72,
          "name": "C5",
          "ticks": 1956,
          "time": 22.74418604651163,
          "velocity": 0.23622047244094488
        },
        {
          "duration": 0.02325581395349019,
          "durationTicks": 2,
          "midi": 53,
          "name": "F3",
          "ticks": 1957,
          "time": 22.75581395348837,
          "velocity": 0.4330708661417323
        },
        {
          "duration": 0.04651162790697683,
          "durationTicks": 4,
          "midi": 98,
          "name": "D7",
          "ticks": 1957,
          "time": 22.75581395348837,
          "velocity": 0.09448818897637795
        },
        {
          "duration": 0.03488372093023173,
          "durationTicks": 3,
          "midi": 56,
          "name": "G#3",
          "ticks": 1960,
          "time": 22.790697674418606,
          "velocity": 0.4409448818897638
        },
        {
          "duration": 0.10465116279069875,
          "durationTicks": 9,
          "midi": 45,
          "name": "A2",
          "ticks": 1961,
          "time": 22.802325581395348,
          "velocity": 0.4015748031496063
        },
        {
          "duration": 0.03488372093023173,
          "durationTicks": 3,
          "midi": 97,
          "name": "C#7",
          "ticks": 1963,
          "time": 22.825581395348838,
          "velocity": 0.11023622047244094
        },
        {
          "duration": 0.034883720930235285,
          "durationTicks": 3,
          "midi": 71,
          "name": "B4",
          "ticks": 1965,
          "time": 22.848837209302324,
          "velocity": 0.08661417322834646
        },
        {
          "duration": 0.09302325581395365,
          "durationTicks": 8,
          "midi": 67,
          "name": "G4",
          "ticks": 1966,
          "time": 22.86046511627907,
          "velocity": 0.15748031496062992
        },
        {
          "duration": 0.12790697674418539,
          "durationTicks": 11,
          "midi": 74,
          "name": "D5",
          "ticks": 1966,
          "time": 22.86046511627907,
          "velocity": 0.2125984251968504
        },
        {
          "duration": 0.10465116279069875,
          "durationTicks": 9,
          "midi": 55,
          "name": "G3",
          "ticks": 1967,
          "time": 22.872093023255815,
          "velocity": 0.5196850393700787
        },
        {
          "duration": 0.09302325581395365,
          "durationTicks": 8,
          "midi": 83,
          "name": "B5",
          "ticks": 1967,
          "time": 22.872093023255815,
          "velocity": 0.09448818897637795
        },
        {
          "duration": 0.05813953488371837,
          "durationTicks": 5,
          "midi": 76,
          "name": "E5",
          "ticks": 1968,
          "time": 22.88372093023256,
          "velocity": 0.08661417322834646
        },
        {
          "duration": 0.05813953488372192,
          "durationTicks": 5,
          "midi": 64,
          "name": "E4",
          "ticks": 1969,
          "time": 22.8953488372093,
          "velocity": 0.10236220472440945
        },
        {
          "duration": 0.04651162790697683,
          "durationTicks": 4,
          "midi": 89,
          "name": "F6",
          "ticks": 1970,
          "time": 22.906976744186046,
          "velocity": 0.2755905511811024
        },
        {
          "duration": 0.03488372093023173,
          "durationTicks": 3,
          "midi": 45,
          "name": "A2",
          "ticks": 1971,
          "time": 22.91860465116279,
          "velocity": 0.3937007874015748
        },
        {
          "duration": 0.023255813953486637,
          "durationTicks": 2,
          "midi": 53,
          "name": "F3",
          "ticks": 1976,
          "time": 22.976744186046513,
          "velocity": 0.33070866141732286
        },
        {
          "duration": 0.046511627906973274,
          "durationTicks": 4,
          "midi": 58,
          "name": "A#3",
          "ticks": 1976,
          "time": 22.976744186046513,
          "velocity": 0.31496062992125984
        },
        {
          "duration": 0.11627906976744384,
          "durationTicks": 10,
          "midi": 89,
          "name": "F6",
          "ticks": 1977,
          "time": 22.988372093023255,
          "velocity": 0.13385826771653545
        },
        {
          "duration": 0.023255813953486637,
          "durationTicks": 2,
          "midi": 52,
          "name": "E3",
          "ticks": 1978,
          "time": 23,
          "velocity": 0.29133858267716534
        },
        {
          "duration": 0.023255813953486637,
          "durationTicks": 2,
          "midi": 43,
          "name": "G2",
          "ticks": 1979,
          "time": 23.011627906976745,
          "velocity": 0.3937007874015748
        },
        {
          "duration": 0.05813953488371837,
          "durationTicks": 5,
          "midi": 65,
          "name": "F4",
          "ticks": 1979,
          "time": 23.011627906976745,
          "velocity": 0.12598425196850394
        },
        {
          "duration": 0.03488372093023173,
          "durationTicks": 3,
          "midi": 74,
          "name": "D5",
          "ticks": 1979,
          "time": 23.011627906976745,
          "velocity": 0.08661417322834646
        },
        {
          "duration": 0.20930232558139394,
          "durationTicks": 18,
          "midi": 77,
          "name": "F5",
          "ticks": 1979,
          "time": 23.011627906976745,
          "velocity": 0.14960629921259844
        },
        {
          "duration": 0.02325581395349019,
          "durationTicks": 2,
          "midi": 45,
          "name": "A2",
          "ticks": 1981,
          "time": 23.03488372093023,
          "velocity": 0.4409448818897638
        },
        {
          "duration": 0.20930232558139394,
          "durationTicks": 18,
          "midi": 53,
          "name": "F3",
          "ticks": 1982,
          "time": 23.046511627906977,
          "velocity": 0.44881889763779526
        },
        {
          "duration": 0.22093023255813904,
          "durationTicks": 19,
          "midi": 58,
          "name": "A#3",
          "ticks": 1982,
          "time": 23.046511627906977,
          "velocity": 0.4015748031496063
        },
        {
          "duration": 0.03488372093023173,
          "durationTicks": 3,
          "midi": 69,
          "name": "A4",
          "ticks": 1982,
          "time": 23.046511627906977,
          "velocity": 0.10236220472440945
        },
        {
          "duration": 0.16279069767442067,
          "durationTicks": 14,
          "midi": 46,
          "name": "A#2",
          "ticks": 1985,
          "time": 23.08139534883721,
          "velocity": 0.4094488188976378
        },
        {
          "duration": 0.05813953488371837,
          "durationTicks": 5,
          "midi": 71,
          "name": "B4",
          "ticks": 1987,
          "time": 23.1046511627907,
          "velocity": 0.2677165354330709
        },
        {
          "duration": 0.05813953488372192,
          "durationTicks": 5,
          "midi": 72,
          "name": "C5",
          "ticks": 1997,
          "time": 23.22093023255814,
          "velocity": 0.2047244094488189
        },
        {
          "duration": 0.16279069767441712,
          "durationTicks": 14,
          "midi": 62,
          "name": "D4",
          "ticks": 1998,
          "time": 23.232558139534884,
          "velocity": 0.4251968503937008
        },
        {
          "duration": 0.03488372093023173,
          "durationTicks": 3,
          "midi": 78,
          "name": "F#5",
          "ticks": 1999,
          "time": 23.24418604651163,
          "velocity": 0.11023622047244094
        },
        {
          "duration": 0.11627906976744029,
          "durationTicks": 10,
          "midi": 81,
          "name": "A5",
          "ticks": 1999,
          "time": 23.24418604651163,
          "velocity": 0.1732283464566929
        },
        {
          "duration": 0.02325581395349019,
          "durationTicks": 2,
          "midi": 46,
          "name": "A#2",
          "ticks": 2000,
          "time": 23.25581395348837,
          "velocity": 0.3464566929133858
        },
        {
          "duration": 0.023255813953486637,
          "durationTicks": 2,
          "midi": 58,
          "name": "A#3",
          "ticks": 2002,
          "time": 23.27906976744186,
          "velocity": 0.3228346456692913
        },
        {
          "duration": 0.11627906976744029,
          "durationTicks": 10,
          "midi": 77,
          "name": "F5",
          "ticks": 2002,
          "time": 23.27906976744186,
          "velocity": 0.2047244094488189
        },
        {
          "duration": 0.08139534883720856,
          "durationTicks": 7,
          "midi": 53,
          "name": "F3",
          "ticks": 2005,
          "time": 23.313953488372093,
          "velocity": 0.33070866141732286
        },
        {
          "duration": 0.06976744186046702,
          "durationTicks": 6,
          "midi": 58,
          "name": "A#3",
          "ticks": 2005,
          "time": 23.313953488372093,
          "velocity": 0.3464566929133858
        },
        {
          "duration": 0.023255813953486637,
          "durationTicks": 2,
          "midi": 45,
          "name": "A2",
          "ticks": 2007,
          "time": 23.337209302325583,
          "velocity": 0.33858267716535434
        },
        {
          "duration": 0.023255813953486637,
          "durationTicks": 2,
          "midi": 57,
          "name": "A3",
          "ticks": 2011,
          "time": 23.38372093023256,
          "velocity": 0.29133858267716534
        },
        {
          "duration": 0.11627906976744029,
          "durationTicks": 10,
          "midi": 45,
          "name": "A2",
          "ticks": 2013,
          "time": 23.406976744186046,
          "velocity": 0.3464566929133858
        },
        {
          "duration": 0.06976744186046702,
          "durationTicks": 6,
          "midi": 62,
          "name": "D4",
          "ticks": 2013,
          "time": 23.406976744186046,
          "velocity": 0.15748031496062992
        },
        {
          "duration": 0.023255813953486637,
          "durationTicks": 2,
          "midi": 71,
          "name": "B4",
          "ticks": 2021,
          "time": 23.5,
          "velocity": 0.23622047244094488
        },
        {
          "duration": 0.12790697674418539,
          "durationTicks": 11,
          "midi": 88,
          "name": "E6",
          "ticks": 2021,
          "time": 23.5,
          "velocity": 0.25196850393700787
        },
        {
          "duration": 0.1860465116279073,
          "durationTicks": 16,
          "midi": 69,
          "name": "A4",
          "ticks": 2022,
          "time": 23.511627906976745,
          "velocity": 0.33070866141732286
        },
        {
          "duration": 0.12790697674418539,
          "durationTicks": 11,
          "midi": 74,
          "name": "D5",
          "ticks": 2022,
          "time": 23.511627906976745,
          "velocity": 0.14960629921259844
        },
        {
          "duration": 0.03488372093023173,
          "durationTicks": 3,
          "midi": 80,
          "name": "G#5",
          "ticks": 2022,
          "time": 23.511627906976745,
          "velocity": 0.14173228346456693
        },
        {
          "duration": 0.023255813953486637,
          "durationTicks": 2,
          "midi": 90,
          "name": "F#6",
          "ticks": 2022,
          "time": 23.511627906976745,
          "velocity": 0.23622047244094488
        },
        {
          "duration": 0.02325581395349019,
          "durationTicks": 2,
          "midi": 58,
          "name": "A#3",
          "ticks": 2023,
          "time": 23.523255813953487,
          "velocity": 0.4094488188976378
        },
        {
          "duration": 0.11627906976744384,
          "durationTicks": 10,
          "midi": 86,
          "name": "D6",
          "ticks": 2023,
          "time": 23.523255813953487,
          "velocity": 0.15748031496062992
        },
        {
          "duration": 0.2209302325581426,
          "durationTicks": 19,
          "midi": 89,
          "name": "F6",
          "ticks": 2023,
          "time": 23.523255813953487,
          "velocity": 0.1889763779527559
        },
        {
          "duration": 0.034883720930235285,
          "durationTicks": 3,
          "midi": 91,
          "name": "G6",
          "ticks": 2023,
          "time": 23.523255813953487,
          "velocity": 0.18110236220472442
        },
        {
          "duration": 0.04651162790697683,
          "durationTicks": 4,
          "midi": 65,
          "name": "F4",
          "ticks": 2024,
          "time": 23.53488372093023,
          "velocity": 0.1889763779527559
        },
        {
          "duration": 0.1744186046511622,
          "durationTicks": 15,
          "midi": 84,
          "name": "C6",
          "ticks": 2024,
          "time": 23.53488372093023,
          "velocity": 0.18110236220472442
        },
        {
          "duration": 0.023255813953486637,
          "durationTicks": 2,
          "midi": 45,
          "name": "A2",
          "ticks": 2025,
          "time": 23.546511627906977,
          "velocity": 0.3858267716535433
        },
        {
          "duration": 0.05813953488372192,
          "durationTicks": 5,
          "midi": 53,
          "name": "F3",
          "ticks": 2027,
          "time": 23.569767441860463,
          "velocity": 0.41732283464566927
        },
        {
          "duration": 0.034883720930235285,
          "durationTicks": 3,
          "midi": 57,
          "name": "A3",
          "ticks": 2027,
          "time": 23.569767441860463,
          "velocity": 0.4645669291338583
        },
        {
          "duration": 0.04651162790697683,
          "durationTicks": 4,
          "midi": 76,
          "name": "E5",
          "ticks": 2027,
          "time": 23.569767441860463,
          "velocity": 0.16535433070866143
        },
        {
          "duration": 0.03488372093023173,
          "durationTicks": 3,
          "midi": 64,
          "name": "E4",
          "ticks": 2028,
          "time": 23.58139534883721,
          "velocity": 0.07086614173228346
        },
        {
          "duration": 0.03488372093023173,
          "durationTicks": 3,
          "midi": 46,
          "name": "A#2",
          "ticks": 2030,
          "time": 23.6046511627907,
          "velocity": 0.3228346456692913
        },
        {
          "duration": 0.08139534883720856,
          "durationTicks": 7,
          "midi": 77,
          "name": "F5",
          "ticks": 2030,
          "time": 23.6046511627907,
          "velocity": 0.11811023622047244
        },
        {
          "duration": 0.08139534883720856,
          "durationTicks": 7,
          "midi": 53,
          "name": "F3",
          "ticks": 2036,
          "time": 23.674418604651162,
          "velocity": 0.36220472440944884
        },
        {
          "duration": 0.023255813953486637,
          "durationTicks": 2,
          "midi": 45,
          "name": "A2",
          "ticks": 2037,
          "time": 23.686046511627907,
          "velocity": 0.36220472440944884
        },
        {
          "duration": 0.05813953488372192,
          "durationTicks": 5,
          "midi": 46,
          "name": "A#2",
          "ticks": 2039,
          "time": 23.709302325581394,
          "velocity": 0.3700787401574803
        },
        {
          "duration": 0.05813953488372192,
          "durationTicks": 5,
          "midi": 59,
          "name": "B3",
          "ticks": 2039,
          "time": 23.709302325581394,
          "velocity": 0.2047244094488189
        },
        {
          "duration": 0.04651162790697683,
          "durationTicks": 4,
          "midi": 69,
          "name": "A4",
          "ticks": 2039,
          "time": 23.709302325581394,
          "velocity": 0.11811023622047244
        },
        {
          "duration": 0.03488372093023173,
          "durationTicks": 3,
          "midi": 45,
          "name": "A2",
          "ticks": 2044,
          "time": 23.767441860465116,
          "velocity": 0.33858267716535434
        },
        {
          "duration": 0.04651162790697683,
          "durationTicks": 4,
          "midi": 56,
          "name": "G#3",
          "ticks": 2044,
          "time": 23.767441860465116,
          "velocity": 0.48031496062992124
        },
        {
          "duration": 0.03488372093023173,
          "durationTicks": 3,
          "midi": 74,
          "name": "D5",
          "ticks": 2045,
          "time": 23.77906976744186,
          "velocity": 0.16535433070866143
        },
        {
          "duration": 0.02325581395349019,
          "durationTicks": 2,
          "midi": 42,
          "name": "F#2",
          "ticks": 2047,
          "time": 23.802325581395348,
          "velocity": 0.23622047244094488
        },
        {
          "duration": 0.08139534883720856,
          "durationTicks": 7,
          "midi": 44,
          "name": "G#2",
          "ticks": 2049,
          "time": 23.825581395348838,
          "velocity": 0.2677165354330709
        },
        {
          "duration": 0.09302325581395365,
          "durationTicks": 8,
          "midi": 56,
          "name": "G#3",
          "ticks": 2049,
          "time": 23.825581395348838,
          "velocity": 0.3937007874015748
        },
        {
          "duration": 0.12790697674418539,
          "durationTicks": 11,
          "midi": 80,
          "name": "G#5",
          "ticks": 2056,
          "time": 23.906976744186046,
          "velocity": 0.2677165354330709
        },
        {
          "duration": 0.03488372093023173,
          "durationTicks": 3,
          "midi": 88,
          "name": "E6",
          "ticks": 2056,
          "time": 23.906976744186046,
          "velocity": 0.12598425196850394
        },
        {
          "duration": 0.09302325581395365,
          "durationTicks": 8,
          "midi": 99,
          "name": "D#7",
          "ticks": 2056,
          "time": 23.906976744186046,
          "velocity": 0.18110236220472442
        },
        {
          "duration": 0.12790697674418539,
          "durationTicks": 11,
          "midi": 68,
          "name": "G#4",
          "ticks": 2057,
          "time": 23.91860465116279,
          "velocity": 0.3228346456692913
        },
        {
          "duration": 0.09302325581395365,
          "durationTicks": 8,
          "midi": 87,
          "name": "D#6",
          "ticks": 2057,
          "time": 23.91860465116279,
          "velocity": 0.1732283464566929
        },
        {
          "duration": 0.02325581395349019,
          "durationTicks": 2,
          "midi": 45,
          "name": "A2",
          "ticks": 2059,
          "time": 23.941860465116278,
          "velocity": 0.4015748031496063
        },
        {
          "duration": 0.04651162790697683,
          "durationTicks": 4,
          "midi": 55,
          "name": "G3",
          "ticks": 2059,
          "time": 23.941860465116278,
          "velocity": 0.4409448818897638
        },
        {
          "duration": 0.13953488372093048,
          "durationTicks": 12,
          "midi": 72,
          "name": "C5",
          "ticks": 2059,
          "time": 23.941860465116278,
          "velocity": 0.15748031496062992
        },
        {
          "duration": 0.08139534883720856,
          "durationTicks": 7,
          "midi": 75,
          "name": "D#5",
          "ticks": 2059,
          "time": 23.941860465116278,
          "velocity": 0.1732283464566929
        },
        {
          "duration": 0.11627906976744029,
          "durationTicks": 10,
          "midi": 60,
          "name": "C4",
          "ticks": 2060,
          "time": 23.953488372093023,
          "velocity": 0.25196850393700787
        },
        {
          "duration": 0.09302325581395365,
          "durationTicks": 8,
          "midi": 86,
          "name": "D6",
          "ticks": 2061,
          "time": 23.96511627906977,
          "velocity": 0.14960629921259844
        },
        {
          "duration": 0.02325581395349019,
          "durationTicks": 2,
          "midi": 56,
          "name": "G#3",
          "ticks": 2063,
          "time": 23.988372093023255,
          "velocity": 0.28346456692913385
        },
        {
          "duration": 0.023255813953486637,
          "durationTicks": 2,
          "midi": 43,
          "name": "G2",
          "ticks": 2064,
          "time": 24,
          "velocity": 0.4094488188976378
        },
        {
          "duration": 0.03488372093023173,
          "durationTicks": 3,
          "midi": 43,
          "name": "G2",
          "ticks": 2067,
          "time": 24.03488372093023,
          "velocity": 0.4015748031496063
        },
        {
          "duration": 0.04651162790697683,
          "durationTicks": 4,
          "midi": 44,
          "name": "G#2",
          "ticks": 2072,
          "time": 24.093023255813954,
          "velocity": 0.30708661417322836
        },
        {
          "duration": 0.023255813953486637,
          "durationTicks": 2,
          "midi": 55,
          "name": "G3",
          "ticks": 2077,
          "time": 24.151162790697676,
          "velocity": 0.3228346456692913
        },
        {
          "duration": 0.04651162790697683,
          "durationTicks": 4,
          "midi": 71,
          "name": "B4",
          "ticks": 2078,
          "time": 24.162790697674417,
          "velocity": 0.13385826771653545
        },
        {
          "duration": 0.03488372093023173,
          "durationTicks": 3,
          "midi": 53,
          "name": "F3",
          "ticks": 2079,
          "time": 24.174418604651162,
          "velocity": 0.3464566929133858
        },
        {
          "duration": 0.02325581395349019,
          "durationTicks": 2,
          "midi": 58,
          "name": "A#3",
          "ticks": 2079,
          "time": 24.174418604651162,
          "velocity": 0.31496062992125984
        },
        {
          "duration": 0.15116279069767558,
          "durationTicks": 13,
          "midi": 86,
          "name": "D6",
          "ticks": 2080,
          "time": 24.186046511627907,
          "velocity": 0.14173228346456693
        },
        {
          "duration": 0.1046511627906952,
          "durationTicks": 9,
          "midi": 74,
          "name": "D5",
          "ticks": 2081,
          "time": 24.197674418604652,
          "velocity": 0.18110236220472442
        },
        {
          "duration": 0.02325581395349019,
          "durationTicks": 2,
          "midi": 46,
          "name": "A#2",
          "ticks": 2082,
          "time": 24.209302325581394,
          "velocity": 0.29133858267716534
        },
        {
          "duration": 0.16279069767442067,
          "durationTicks": 14,
          "midi": 55,
          "name": "G3",
          "ticks": 2082,
          "time": 24.209302325581394,
          "velocity": 0.5275590551181102
        },
        {
          "duration": 0.034883720930235285,
          "durationTicks": 3,
          "midi": 60,
          "name": "C4",
          "ticks": 2082,
          "time": 24.209302325581394,
          "velocity": 0.2047244094488189
        },
        {
          "duration": 0.09302325581395365,
          "durationTicks": 8,
          "midi": 77,
          "name": "F5",
          "ticks": 2084,
          "time": 24.232558139534884,
          "velocity": 0.11023622047244094
        },
        {
          "duration": 0.06976744186046702,
          "durationTicks": 6,
          "midi": 60,
          "name": "C4",
          "ticks": 2086,
          "time": 24.25581395348837,
          "velocity": 0.16535433070866143
        },
        {
          "duration": 0.02325581395349019,
          "durationTicks": 2,
          "midi": 43,
          "name": "G2",
          "ticks": 2087,
          "time": 24.267441860465116,
          "velocity": 0.33858267716535434
        },
        {
          "duration": 0.02325581395349019,
          "durationTicks": 2,
          "midi": 44,
          "name": "G#2",
          "ticks": 2091,
          "time": 24.313953488372093,
          "velocity": 0.3464566929133858
        },
        {
          "duration": 0.05813953488372192,
          "durationTicks": 5,
          "midi": 44,
          "name": "G#2",
          "ticks": 2094,
          "time": 24.348837209302324,
          "velocity": 0.25984251968503935
        },
        {
          "duration": 0.023255813953486637,
          "durationTicks": 2,
          "midi": 53,
          "name": "F3",
          "ticks": 2100,
          "time": 24.41860465116279,
          "velocity": 0.36220472440944884
        },
        {
          "duration": 0.03488372093023173,
          "durationTicks": 3,
          "midi": 81,
          "name": "A5",
          "ticks": 2100,
          "time": 24.41860465116279,
          "velocity": 0.08661417322834646
        },
        {
          "duration": 0.08139534883720856,
          "durationTicks": 7,
          "midi": 91,
          "name": "G6",
          "ticks": 2100,
          "time": 24.41860465116279,
          "velocity": 0.11811023622047244
        },
        {
          "duration": 0.03488372093023173,
          "durationTicks": 3,
          "midi": 100,
          "name": "E7",
          "ticks": 2100,
          "time": 24.41860465116279,
          "velocity": 0.11023622047244094
        },
        {
          "duration": 0.03488372093023173,
          "durationTicks": 3,
          "midi": 101,
          "name": "F7",
          "ticks": 2100,
          "time": 24.41860465116279,
          "velocity": 0.08661417322834646
        },
        {
          "duration": 0.04651162790697683,
          "durationTicks": 4,
          "midi": 84,
          "name": "C6",
          "ticks": 2101,
          "time": 24.430232558139537,
          "velocity": 0.08661417322834646
        },
        {
          "duration": 0.11627906976744029,
          "durationTicks": 10,
          "midi": 98,
          "name": "D7",
          "ticks": 2101,
          "time": 24.430232558139537,
          "velocity": 0.13385826771653545
        },
        {
          "duration": 0.0930232558139501,
          "durationTicks": 8,
          "midi": 99,
          "name": "D#7",
          "ticks": 2101,
          "time": 24.430232558139537,
          "velocity": 0.10236220472440945
        },
        {
          "duration": 0.02325581395349019,
          "durationTicks": 2,
          "midi": 55,
          "name": "G3",
          "ticks": 2103,
          "time": 24.453488372093023,
          "velocity": 0.5118110236220472
        },
        {
          "duration": 0.16279069767441712,
          "durationTicks": 14,
          "midi": 86,
          "name": "D6",
          "ticks": 2103,
          "time": 24.453488372093023,
          "velocity": 0.13385826771653545
        },
        {
          "duration": 0.023255813953486637,
          "durationTicks": 2,
          "midi": 45,
          "name": "A2",
          "ticks": 2104,
          "time": 24.46511627906977,
          "velocity": 0.33858267716535434
        },
        {
          "duration": 0.09302325581395365,
          "durationTicks": 8,
          "midi": 60,
          "name": "C4",
          "ticks": 2104,
          "time": 24.46511627906977,
          "velocity": 0.2677165354330709
        },
        {
          "duration": 0.19767441860464885,
          "durationTicks": 17,
          "midi": 72,
          "name": "C5",
          "ticks": 2104,
          "time": 24.46511627906977,
          "velocity": 0.28346456692913385
        },
        {
          "duration": 0.011627906976741542,
          "durationTicks": 1,
          "midi": 56,
          "name": "G#3",
          "ticks": 2105,
          "time": 24.476744186046513,
          "velocity": 0.5118110236220472
        },
        {
          "duration": 0.02325581395349019,
          "durationTicks": 2,
          "midi": 55,
          "name": "G3",
          "ticks": 2106,
          "time": 24.488372093023255,
          "velocity": 0.5196850393700787
        },
        {
          "duration": 0.023255813953486637,
          "durationTicks": 2,
          "midi": 44,
          "name": "G#2",
          "ticks": 2107,
          "time": 24.5,
          "velocity": 0.3937007874015748
        },
        {
          "duration": 0.05813953488372192,
          "durationTicks": 5,
          "midi": 43,
          "name": "G2",
          "ticks": 2109,
          "time": 24.523255813953487,
          "velocity": 0.3858267716535433
        },
        {
          "duration": 0.034883720930235285,
          "durationTicks": 3,
          "midi": 55,
          "name": "G3",
          "ticks": 2109,
          "time": 24.523255813953487,
          "velocity": 0.4566929133858268
        },
        {
          "duration": 0.2558139534883743,
          "durationTicks": 22,
          "midi": 90,
          "name": "F#6",
          "ticks": 2113,
          "time": 24.569767441860463,
          "velocity": 0.13385826771653545
        },
        {
          "duration": 0.03488372093023173,
          "durationTicks": 3,
          "midi": 54,
          "name": "F#3",
          "ticks": 2114,
          "time": 24.58139534883721,
          "velocity": 0.4094488188976378
        },
        {
          "duration": 0.11627906976744384,
          "durationTicks": 10,
          "midi": 60,
          "name": "C4",
          "ticks": 2114,
          "time": 24.58139534883721,
          "velocity": 0.30708661417322836
        },
        {
          "duration": 0.023255813953486637,
          "durationTicks": 2,
          "midi": 44,
          "name": "G#2",
          "ticks": 2116,
          "time": 24.6046511627907,
          "velocity": 0.4015748031496063
        },
        {
          "duration": 0.04651162790697683,
          "durationTicks": 4,
          "midi": 55,
          "name": "G3",
          "ticks": 2117,
          "time": 24.61627906976744,
          "velocity": 0.3700787401574803
        },
        {
          "duration": 0.04651162790697683,
          "durationTicks": 4,
          "midi": 101,
          "name": "F7",
          "ticks": 2117,
          "time": 24.61627906976744,
          "velocity": 0.07086614173228346
        },
        {
          "duration": 0.06976744186046702,
          "durationTicks": 6,
          "midi": 83,
          "name": "B5",
          "ticks": 2118,
          "time": 24.627906976744185,
          "velocity": 0.07874015748031496
        },
        {
          "duration": 0.22093023255813904,
          "durationTicks": 19,
          "midi": 91,
          "name": "G6",
          "ticks": 2118,
          "time": 24.627906976744185,
          "velocity": 0.14960629921259844
        },
        {
          "duration": 0.023255813953486637,
          "durationTicks": 2,
          "midi": 44,
          "name": "G#2",
          "ticks": 2119,
          "time": 24.63953488372093,
          "velocity": 0.4330708661417323
        },
        {
          "duration": 0.02325581395349019,
          "durationTicks": 2,
          "midi": 56,
          "name": "G#3",
          "ticks": 2121,
          "time": 24.662790697674417,
          "velocity": 0.2677165354330709
        },
        {
          "duration": 0.13953488372093048,
          "durationTicks": 12,
          "midi": 71,
          "name": "B4",
          "ticks": 2121,
          "time": 24.662790697674417,
          "velocity": 0.2047244094488189
        },
        {
          "duration": 0.06976744186046702,
          "durationTicks": 6,
          "midi": 74,
          "name": "D5",
          "ticks": 2122,
          "time": 24.674418604651162,
          "velocity": 0.15748031496062992
        },
        {
          "duration": 0.2093023255813975,
          "durationTicks": 18,
          "midi": 86,
          "name": "D6",
          "ticks": 2122,
          "time": 24.674418604651162,
          "velocity": 0.2125984251968504
        },
        {
          "duration": 0.03488372093023173,
          "durationTicks": 3,
          "midi": 92,
          "name": "G#6",
          "ticks": 2122,
          "time": 24.674418604651162,
          "velocity": 0.08661417322834646
        },
        {
          "duration": 0.11627906976744029,
          "durationTicks": 10,
          "midi": 55,
          "name": "G3",
          "ticks": 2123,
          "time": 24.686046511627907,
          "velocity": 0.3228346456692913
        },
        {
          "duration": 0.1860465116279073,
          "durationTicks": 16,
          "midi": 60,
          "name": "C4",
          "ticks": 2125,
          "time": 24.709302325581394,
          "velocity": 0.29133858267716534
        },
        {
          "duration": 0.034883720930235285,
          "durationTicks": 3,
          "midi": 77,
          "name": "F5",
          "ticks": 2129,
          "time": 24.75581395348837,
          "velocity": 0.08661417322834646
        },
        {
          "duration": 0.04651162790697683,
          "durationTicks": 4,
          "midi": 43,
          "name": "G2",
          "ticks": 2131,
          "time": 24.77906976744186,
          "velocity": 0.3779527559055118
        },
        {
          "duration": 0.03488372093023173,
          "durationTicks": 3,
          "midi": 50,
          "name": "D3",
          "ticks": 2132,
          "time": 24.790697674418606,
          "velocity": 0.3937007874015748
        },
        {
          "duration": 0.12790697674418894,
          "durationTicks": 11,
          "midi": 77,
          "name": "F5",
          "ticks": 2133,
          "time": 24.802325581395348,
          "velocity": 0.1968503937007874
        },
        {
          "duration": 0.12790697674418539,
          "durationTicks": 11,
          "midi": 65,
          "name": "F4",
          "ticks": 2134,
          "time": 24.813953488372093,
          "velocity": 0.25196850393700787
        },
        {
          "duration": 0.03488372093023173,
          "durationTicks": 3,
          "midi": 100,
          "name": "E7",
          "ticks": 2134,
          "time": 24.813953488372093,
          "velocity": 0.14173228346456693
        },
        {
          "duration": 0.03488372093023173,
          "durationTicks": 3,
          "midi": 99,
          "name": "D#7",
          "ticks": 2135,
          "time": 24.825581395348838,
          "velocity": 0.07874015748031496
        },
        {
          "duration": 0.06976744186046346,
          "durationTicks": 6,
          "midi": 53,
          "name": "F3",
          "ticks": 2136,
          "time": 24.837209302325583,
          "velocity": 0.4645669291338583
        },
        {
          "duration": 0.02325581395349019,
          "durationTicks": 2,
          "midi": 43,
          "name": "G2",
          "ticks": 2141,
          "time": 24.8953488372093,
          "velocity": 0.41732283464566927
        },
        {
          "duration": 0.02325581395349019,
          "durationTicks": 2,
          "midi": 61,
          "name": "C#4",
          "ticks": 2141,
          "time": 24.8953488372093,
          "velocity": 0.2283464566929134
        },
        {
          "duration": 0.023255813953486637,
          "durationTicks": 2,
          "midi": 44,
          "name": "G#2",
          "ticks": 2143,
          "time": 24.91860465116279,
          "velocity": 0.4409448818897638
        },
        {
          "duration": 0.023255813953486637,
          "durationTicks": 2,
          "midi": 54,
          "name": "F#3",
          "ticks": 2144,
          "time": 24.930232558139537,
          "velocity": 0.44881889763779526
        },
        {
          "duration": 0.13953488372093048,
          "durationTicks": 12,
          "midi": 74,
          "name": "D5",
          "ticks": 2145,
          "time": 24.941860465116278,
          "velocity": 0.2283464566929134
        },
        {
          "duration": 0.11627906976744384,
          "durationTicks": 10,
          "midi": 79,
          "name": "G5",
          "ticks": 2145,
          "time": 24.941860465116278,
          "velocity": 0.1732283464566929
        },
        {
          "duration": 0.15116279069767558,
          "durationTicks": 13,
          "midi": 55,
          "name": "G3",
          "ticks": 2146,
          "time": 24.953488372093023,
          "velocity": 0.4881889763779528
        },
        {
          "duration": 0.0930232558139501,
          "durationTicks": 8,
          "midi": 44,
          "name": "G#2",
          "ticks": 2148,
          "time": 24.976744186046513,
          "velocity": 0.31496062992125984
        },
        {
          "duration": 0.02325581395349019,
          "durationTicks": 2,
          "midi": 64,
          "name": "E4",
          "ticks": 2157,
          "time": 25.08139534883721,
          "velocity": 0.2283464566929134
        },
        {
          "duration": 0.023255813953486637,
          "durationTicks": 2,
          "midi": 43,
          "name": "G2",
          "ticks": 2159,
          "time": 25.1046511627907,
          "velocity": 0.3543307086614173
        },
        {
          "duration": 0.26744186046511587,
          "durationTicks": 23,
          "midi": 57,
          "name": "A3",
          "ticks": 2159,
          "time": 25.1046511627907,
          "velocity": 0.4566929133858268
        },
        {
          "duration": 0.03488372093023173,
          "durationTicks": 3,
          "midi": 74,
          "name": "D5",
          "ticks": 2159,
          "time": 25.1046511627907,
          "velocity": 0.1732283464566929
        },
        {
          "duration": 0.03488372093023173,
          "durationTicks": 3,
          "midi": 84,
          "name": "C6",
          "ticks": 2159,
          "time": 25.1046511627907,
          "velocity": 0.09448818897637795
        },
        {
          "duration": 0.16279069767441712,
          "durationTicks": 14,
          "midi": 86,
          "name": "D6",
          "ticks": 2159,
          "time": 25.1046511627907,
          "velocity": 0.18110236220472442
        },
        {
          "duration": 0.22093023255813904,
          "durationTicks": 19,
          "midi": 94,
          "name": "A#6",
          "ticks": 2159,
          "time": 25.1046511627907,
          "velocity": 0.16535433070866143
        },
        {
          "duration": 0.08139534883720856,
          "durationTicks": 7,
          "midi": 97,
          "name": "C#7",
          "ticks": 2159,
          "time": 25.1046511627907,
          "velocity": 0.1889763779527559
        },
        {
          "duration": 0.24418604651162568,
          "durationTicks": 21,
          "midi": 102,
          "name": "F#7",
          "ticks": 2159,
          "time": 25.1046511627907,
          "velocity": 0.14960629921259844
        },
        {
          "duration": 0.13953488372093048,
          "durationTicks": 12,
          "midi": 103,
          "name": "G7",
          "ticks": 2159,
          "time": 25.1046511627907,
          "velocity": 0.10236220472440945
        },
        {
          "duration": 0.2558139534883743,
          "durationTicks": 22,
          "midi": 76,
          "name": "E5",
          "ticks": 2160,
          "time": 25.11627906976744,
          "velocity": 0.2440944881889764
        },
        {
          "duration": 0.09302325581395365,
          "durationTicks": 8,
          "midi": 90,
          "name": "F#6",
          "ticks": 2161,
          "time": 25.127906976744185,
          "velocity": 0.10236220472440945
        },
        {
          "duration": 0.023255813953486637,
          "durationTicks": 2,
          "midi": 41,
          "name": "F2",
          "ticks": 2162,
          "time": 25.13953488372093,
          "velocity": 0.2677165354330709
        },
        {
          "duration": 0.24418604651162923,
          "durationTicks": 21,
          "midi": 50,
          "name": "D3",
          "ticks": 2162,
          "time": 25.13953488372093,
          "velocity": 0.3700787401574803
        },
        {
          "duration": 0.04651162790697683,
          "durationTicks": 4,
          "midi": 64,
          "name": "E4",
          "ticks": 2162,
          "time": 25.13953488372093,
          "velocity": 0.2677165354330709
        },
        {
          "duration": 0.23255813953488413,
          "durationTicks": 20,
          "midi": 78,
          "name": "F#5",
          "ticks": 2162,
          "time": 25.13953488372093,
          "velocity": 0.14173228346456693
        },
        {
          "duration": 0.03488372093023173,
          "durationTicks": 3,
          "midi": 81,
          "name": "A5",
          "ticks": 2162,
          "time": 25.13953488372093,
          "velocity": 0.07874015748031496
        },
        {
          "duration": 0.1860465116279073,
          "durationTicks": 16,
          "midi": 62,
          "name": "D4",
          "ticks": 2166,
          "time": 25.186046511627907,
          "velocity": 0.3937007874015748
        },
        {
          "duration": 0.3023255813953476,
          "durationTicks": 26,
          "midi": 93,
          "name": "A6",
          "ticks": 2167,
          "time": 25.197674418604652,
          "velocity": 0.18110236220472442
        },
        {
          "duration": 0.3372093023255829,
          "durationTicks": 29,
          "midi": 74,
          "name": "D5",
          "ticks": 2169,
          "time": 25.22093023255814,
          "velocity": 0.4409448818897638
        },
        {
          "duration": 0.3139534883720927,
          "durationTicks": 27,
          "midi": 81,
          "name": "A5",
          "ticks": 2170,
          "time": 25.232558139534884,
          "velocity": 0.2440944881889764
        },
        {
          "duration": 0.04651162790697683,
          "durationTicks": 4,
          "midi": 97,
          "name": "C#7",
          "ticks": 2170,
          "time": 25.232558139534884,
          "velocity": 0.08661417322834646
        },
        {
          "duration": 0.023255813953486637,
          "durationTicks": 2,
          "midi": 61,
          "name": "C#4",
          "ticks": 2182,
          "time": 25.372093023255815,
          "velocity": 0.41732283464566927
        },
        {
          "duration": 0.03488372093023173,
          "durationTicks": 3,
          "midi": 90,
          "name": "F#6",
          "ticks": 2182,
          "time": 25.372093023255815,
          "velocity": 0.11023622047244094
        },
        {
          "duration": 0.12790697674418539,
          "durationTicks": 11,
          "midi": 98,
          "name": "D7",
          "ticks": 2182,
          "time": 25.372093023255815,
          "velocity": 0.2440944881889764
        },
        {
          "duration": 0.03488372093023173,
          "durationTicks": 3,
          "midi": 44,
          "name": "G#2",
          "ticks": 2183,
          "time": 25.38372093023256,
          "velocity": 0.3700787401574803
        },
        {
          "duration": 0.1744186046511622,
          "durationTicks": 15,
          "midi": 57,
          "name": "A3",
          "ticks": 2183,
          "time": 25.38372093023256,
          "velocity": 0.3858267716535433
        },
        {
          "duration": 0.04651162790697683,
          "durationTicks": 4,
          "midi": 102,
          "name": "F#7",
          "ticks": 2183,
          "time": 25.38372093023256,
          "velocity": 0.13385826771653545
        },
        {
          "duration": 0.12790697674418539,
          "durationTicks": 11,
          "midi": 62,
          "name": "D4",
          "ticks": 2184,
          "time": 25.3953488372093,
          "velocity": 0.4330708661417323
        },
        {
          "duration": 0.13953488372093048,
          "durationTicks": 12,
          "midi": 76,
          "name": "E5",
          "ticks": 2184,
          "time": 25.3953488372093,
          "velocity": 0.2047244094488189
        },
        {
          "duration": 0.04651162790697683,
          "durationTicks": 4,
          "midi": 50,
          "name": "D3",
          "ticks": 2188,
          "time": 25.441860465116278,
          "velocity": 0.2992125984251969
        },
        {
          "duration": 0.023255813953486637,
          "durationTicks": 2,
          "midi": 50,
          "name": "D3",
          "ticks": 2193,
          "time": 25.5,
          "velocity": 0.2992125984251969
        },
        {
          "duration": 0.05813953488372192,
          "durationTicks": 5,
          "midi": 50,
          "name": "D3",
          "ticks": 2196,
          "time": 25.53488372093023,
          "velocity": 0.2204724409448819
        },
        {
          "duration": 0.02325581395349019,
          "durationTicks": 2,
          "midi": 53,
          "name": "F3",
          "ticks": 2204,
          "time": 25.627906976744185,
          "velocity": 0.33070866141732286
        },
        {
          "duration": 0.02325581395349019,
          "durationTicks": 2,
          "midi": 58,
          "name": "A#3",
          "ticks": 2204,
          "time": 25.627906976744185,
          "velocity": 0.30708661417322836
        },
        {
          "duration": 0.25581395348837077,
          "durationTicks": 22,
          "midi": 74,
          "name": "D5",
          "ticks": 2205,
          "time": 25.63953488372093,
          "velocity": 0.2204724409448819
        },
        {
          "duration": 0.25581395348837077,
          "durationTicks": 22,
          "midi": 76,
          "name": "E5",
          "ticks": 2205,
          "time": 25.63953488372093,
          "velocity": 0.2047244094488189
        },
        {
          "duration": 0.023255813953486637,
          "durationTicks": 2,
          "midi": 42,
          "name": "F#2",
          "ticks": 2206,
          "time": 25.651162790697676,
          "velocity": 0.33070866141732286
        },
        {
          "duration": 0.023255813953486637,
          "durationTicks": 2,
          "midi": 63,
          "name": "D#4",
          "ticks": 2206,
          "time": 25.651162790697676,
          "velocity": 0.25984251968503935
        },
        {
          "duration": 0.04651162790697683,
          "durationTicks": 4,
          "midi": 66,
          "name": "F#4",
          "ticks": 2206,
          "time": 25.651162790697676,
          "velocity": 0.23622047244094488
        },
        {
          "duration": 0.27906976744186096,
          "durationTicks": 24,
          "midi": 69,
          "name": "A4",
          "ticks": 2206,
          "time": 25.651162790697676,
          "velocity": 0.4251968503937008
        },
        {
          "duration": 0.02325581395349019,
          "durationTicks": 2,
          "midi": 50,
          "name": "D3",
          "ticks": 2207,
          "time": 25.662790697674417,
          "velocity": 0.23622047244094488
        },
        {
          "duration": 0.05813953488372192,
          "durationTicks": 5,
          "midi": 83,
          "name": "B5",
          "ticks": 2207,
          "time": 25.662790697674417,
          "velocity": 0.09448818897637795
        },
        {
          "duration": 0.2209302325581426,
          "durationTicks": 19,
          "midi": 93,
          "name": "A6",
          "ticks": 2207,
          "time": 25.662790697674417,
          "velocity": 0.2440944881889764
        },
        {
          "duration": 0.02325581395349019,
          "durationTicks": 2,
          "midi": 44,
          "name": "G#2",
          "ticks": 2208,
          "time": 25.674418604651162,
          "velocity": 0.3779527559055118
        },
        {
          "duration": 0.23255813953488413,
          "durationTicks": 20,
          "midi": 57,
          "name": "A3",
          "ticks": 2208,
          "time": 25.674418604651162,
          "velocity": 0.4645669291338583
        },
        {
          "duration": 0.05813953488372192,
          "durationTicks": 5,
          "midi": 62,
          "name": "D4",
          "ticks": 2209,
          "time": 25.686046511627907,
          "velocity": 0.25984251968503935
        },
        {
          "duration": 0.05813953488371837,
          "durationTicks": 5,
          "midi": 50,
          "name": "D3",
          "ticks": 2210,
          "time": 25.697674418604652,
          "velocity": 0.29133858267716534
        },
        {
          "duration": 0.12790697674418894,
          "durationTicks": 11,
          "midi": 83,
          "name": "B5",
          "ticks": 2215,
          "time": 25.75581395348837,
          "velocity": 0.1732283464566929
        },
        {
          "duration": 0.11627906976744029,
          "durationTicks": 10,
          "midi": 64,
          "name": "E4",
          "ticks": 2217,
          "time": 25.77906976744186,
          "velocity": 0.29133858267716534
        },
        {
          "duration": 0.02325581395349019,
          "durationTicks": 2,
          "midi": 44,
          "name": "G#2",
          "ticks": 2219,
          "time": 25.802325581395348,
          "velocity": 0.31496062992125984
        },
        {
          "duration": 0.023255813953486637,
          "durationTicks": 2,
          "midi": 45,
          "name": "A2",
          "ticks": 2222,
          "time": 25.837209302325583,
          "velocity": 0.2677165354330709
        },
        {
          "duration": 0.023255813953486637,
          "durationTicks": 2,
          "midi": 50,
          "name": "D3",
          "ticks": 2222,
          "time": 25.837209302325583,
          "velocity": 0.28346456692913385
        },
        {
          "duration": 0.09302325581395365,
          "durationTicks": 8,
          "midi": 50,
          "name": "D3",
          "ticks": 2227,
          "time": 25.8953488372093,
          "velocity": 0.33070866141732286
        },
        {
          "duration": 0.02325581395349019,
          "durationTicks": 2,
          "midi": 55,
          "name": "G3",
          "ticks": 2228,
          "time": 25.906976744186046,
          "velocity": 0.2755905511811024
        },
        {
          "duration": 0.02325581395349019,
          "durationTicks": 2,
          "midi": 44,
          "name": "G#2",
          "ticks": 2231,
          "time": 25.941860465116278,
          "velocity": 0.2440944881889764
        },
        {
          "duration": 0.04651162790697683,
          "durationTicks": 4,
          "midi": 55,
          "name": "G3",
          "ticks": 2235,
          "time": 25.988372093023255,
          "velocity": 0.4015748031496063
        },
        {
          "duration": 0.40697674418604635,
          "durationTicks": 35,
          "midi": 74,
          "name": "D5",
          "ticks": 2237,
          "time": 26.011627906976745,
          "velocity": 0.25196850393700787
        },
        {
          "duration": 0.43023255813953654,
          "durationTicks": 37,
          "midi": 62,
          "name": "D4",
          "ticks": 2238,
          "time": 26.023255813953487,
          "velocity": 0.4094488188976378
        },
        {
          "duration": 0.13953488372093048,
          "durationTicks": 12,
          "midi": 68,
          "name": "G#4",
          "ticks": 2238,
          "time": 26.023255813953487,
          "velocity": 0.41732283464566927
        },
        {
          "duration": 0.16279069767442067,
          "durationTicks": 14,
          "midi": 93,
          "name": "A6",
          "ticks": 2238,
          "time": 26.023255813953487,
          "velocity": 0.11811023622047244
        },
        {
          "duration": 0.11627906976744384,
          "durationTicks": 10,
          "midi": 102,
          "name": "F#7",
          "ticks": 2238,
          "time": 26.023255813953487,
          "velocity": 0.12598425196850394
        },
        {
          "duration": 0.24418604651162923,
          "durationTicks": 21,
          "midi": 76,
          "name": "E5",
          "ticks": 2239,
          "time": 26.03488372093023,
          "velocity": 0.12598425196850394
        },
        {
          "duration": 0.023255813953486637,
          "durationTicks": 2,
          "midi": 44,
          "name": "G#2",
          "ticks": 2240,
          "time": 26.046511627906977,
          "velocity": 0.25196850393700787
        },
        {
          "duration": 0.06976744186046346,
          "durationTicks": 6,
          "midi": 71,
          "name": "B4",
          "ticks": 2240,
          "time": 26.046511627906977,
          "velocity": 0.2204724409448819
        },
        {
          "duration": 0.3720930232558146,
          "durationTicks": 32,
          "midi": 88,
          "name": "E6",
          "ticks": 2240,
          "time": 26.046511627906977,
          "velocity": 0.1968503937007874
        },
        {
          "duration": 0.10465116279069875,
          "durationTicks": 9,
          "midi": 99,
          "name": "D#7",
          "ticks": 2240,
          "time": 26.046511627906977,
          "velocity": 0.16535433070866143
        },
        {
          "duration": 0.03488372093023173,
          "durationTicks": 3,
          "midi": 50,
          "name": "D3",
          "ticks": 2241,
          "time": 26.058139534883722,
          "velocity": 0.2992125984251969
        },
        {
          "duration": 0.1976744186046524,
          "durationTicks": 17,
          "midi": 57,
          "name": "A3",
          "ticks": 2242,
          "time": 26.069767441860463,
          "velocity": 0.30708661417322836
        },
        {
          "duration": 0.1744186046511622,
          "durationTicks": 15,
          "midi": 50,
          "name": "D3",
          "ticks": 2245,
          "time": 26.1046511627907,
          "velocity": 0.3543307086614173
        },
        {
          "duration": 0.08139534883721211,
          "durationTicks": 7,
          "midi": 67,
          "name": "G4",
          "ticks": 2250,
          "time": 26.162790697674417,
          "velocity": 0.2440944881889764
        },
        {
          "duration": 0.05813953488372192,
          "durationTicks": 5,
          "midi": 58,
          "name": "A#3",
          "ticks": 2259,
          "time": 26.267441860465116,
          "velocity": 0.3464566929133858
        },
        {
          "duration": 0.13953488372093048,
          "durationTicks": 12,
          "midi": 67,
          "name": "G4",
          "ticks": 2260,
          "time": 26.27906976744186,
          "velocity": 0.3937007874015748
        },
        {
          "duration": 0.023255813953486637,
          "durationTicks": 2,
          "midi": 55,
          "name": "G3",
          "ticks": 2261,
          "time": 26.290697674418606,
          "velocity": 0.25984251968503935
        },
        {
          "duration": 0.1046511627906952,
          "durationTicks": 9,
          "midi": 71,
          "name": "B4",
          "ticks": 2261,
          "time": 26.290697674418606,
          "velocity": 0.30708661417322836
        },
        {
          "duration": 0.11627906976744029,
          "durationTicks": 10,
          "midi": 91,
          "name": "G6",
          "ticks": 2261,
          "time": 26.290697674418606,
          "velocity": 0.3228346456692913
        },
        {
          "duration": 0.04651162790697683,
          "durationTicks": 4,
          "midi": 98,
          "name": "D7",
          "ticks": 2261,
          "time": 26.290697674418606,
          "velocity": 0.15748031496062992
        },
        {
          "duration": 0.06976744186046702,
          "durationTicks": 6,
          "midi": 45,
          "name": "A2",
          "ticks": 2262,
          "time": 26.302325581395348,
          "velocity": 0.3228346456692913
        },
        {
          "duration": 0.034883720930235285,
          "durationTicks": 3,
          "midi": 76,
          "name": "E5",
          "ticks": 2262,
          "time": 26.302325581395348,
          "velocity": 0.08661417322834646
        },
        {
          "duration": 0.023255813953486637,
          "durationTicks": 2,
          "midi": 50,
          "name": "D3",
          "ticks": 2264,
          "time": 26.325581395348838,
          "velocity": 0.28346456692913385
        },
        {
          "duration": 0.05813953488372192,
          "durationTicks": 5,
          "midi": 98,
          "name": "D7",
          "ticks": 2268,
          "time": 26.372093023255815,
          "velocity": 0.11811023622047244
        },
        {
          "duration": 0.06976744186046346,
          "durationTicks": 6,
          "midi": 57,
          "name": "A3",
          "ticks": 2272,
          "time": 26.41860465116279,
          "velocity": 0.28346456692913385
        },
        {
          "duration": 0.023255813953486637,
          "durationTicks": 2,
          "midi": 66,
          "name": "F#4",
          "ticks": 2272,
          "time": 26.41860465116279,
          "velocity": 0.3228346456692913
        },
        {
          "duration": 0.03488372093023173,
          "durationTicks": 3,
          "midi": 45,
          "name": "A2",
          "ticks": 2276,
          "time": 26.46511627906977,
          "velocity": 0.3228346456692913
        },
        {
          "duration": 0.034883720930235285,
          "durationTicks": 3,
          "midi": 61,
          "name": "C#4",
          "ticks": 2281,
          "time": 26.523255813953487,
          "velocity": 0.2677165354330709
        },
        {
          "duration": 0.02325581395349019,
          "durationTicks": 2,
          "midi": 55,
          "name": "G3",
          "ticks": 2282,
          "time": 26.53488372093023,
          "velocity": 0.3700787401574803
        },
        {
          "duration": 0.16279069767442067,
          "durationTicks": 14,
          "midi": 74,
          "name": "D5",
          "ticks": 2282,
          "time": 26.53488372093023,
          "velocity": 0.23622047244094488
        },
        {
          "duration": 0.25581395348837077,
          "durationTicks": 22,
          "midi": 84,
          "name": "C6",
          "ticks": 2283,
          "time": 26.546511627906977,
          "velocity": 0.31496062992125984
        },
        {
          "duration": 0.15116279069767558,
          "durationTicks": 13,
          "midi": 88,
          "name": "E6",
          "ticks": 2283,
          "time": 26.546511627906977,
          "velocity": 0.18110236220472442
        },
        {
          "duration": 0.04651162790697683,
          "durationTicks": 4,
          "midi": 93,
          "name": "A6",
          "ticks": 2283,
          "time": 26.546511627906977,
          "velocity": 0.10236220472440945
        },
        {
          "duration": 0.24418604651162568,
          "durationTicks": 21,
          "midi": 62,
          "name": "D4",
          "ticks": 2284,
          "time": 26.558139534883722,
          "velocity": 0.3779527559055118
        },
        {
          "duration": 0.24418604651162568,
          "durationTicks": 21,
          "midi": 65,
          "name": "F4",
          "ticks": 2284,
          "time": 26.558139534883722,
          "velocity": 0.41732283464566927
        },
        {
          "duration": 0.3720930232558146,
          "durationTicks": 32,
          "midi": 69,
          "name": "A4",
          "ticks": 2284,
          "time": 26.558139534883722,
          "velocity": 0.15748031496062992
        },
        {
          "duration": 0.2558139534883743,
          "durationTicks": 22,
          "midi": 57,
          "name": "A3",
          "ticks": 2285,
          "time": 26.569767441860463,
          "velocity": 0.3779527559055118
        },
        {
          "duration": 0.03488372093023173,
          "durationTicks": 3,
          "midi": 44,
          "name": "G#2",
          "ticks": 2286,
          "time": 26.58139534883721,
          "velocity": 0.25984251968503935
        },
        {
          "duration": 0.034883720930235285,
          "durationTicks": 3,
          "midi": 45,
          "name": "A2",
          "ticks": 2289,
          "time": 26.61627906976744,
          "velocity": 0.25196850393700787
        },
        {
          "duration": 0.034883720930235285,
          "durationTicks": 3,
          "midi": 45,
          "name": "A2",
          "ticks": 2293,
          "time": 26.662790697674417,
          "velocity": 0.28346456692913385
        },
        {
          "duration": 0.03488372093023173,
          "durationTicks": 3,
          "midi": 45,
          "name": "A2",
          "ticks": 2299,
          "time": 26.732558139534884,
          "velocity": 0.23622047244094488
        },
        {
          "duration": 0.023255813953486637,
          "durationTicks": 2,
          "midi": 50,
          "name": "D3",
          "ticks": 2303,
          "time": 26.77906976744186,
          "velocity": 0.2283464566929134
        },
        {
          "duration": 0.16279069767441712,
          "durationTicks": 14,
          "midi": 76,
          "name": "E5",
          "ticks": 2303,
          "time": 26.77906976744186,
          "velocity": 0.2204724409448819
        },
        {
          "duration": 0.02325581395349019,
          "durationTicks": 2,
          "midi": 45,
          "name": "A2",
          "ticks": 2305,
          "time": 26.802325581395348,
          "velocity": 0.25984251968503935
        },
        {
          "duration": 0.02325581395349019,
          "durationTicks": 2,
          "midi": 55,
          "name": "G3",
          "ticks": 2306,
          "time": 26.813953488372093,
          "velocity": 0.2440944881889764
        },
        {
          "duration": 0.10465116279069875,
          "durationTicks": 9,
          "midi": 62,
          "name": "D4",
          "ticks": 2306,
          "time": 26.813953488372093,
          "velocity": 0.2204724409448819
        },
        {
          "duration": 0.06976744186046702,
          "durationTicks": 6,
          "midi": 57,
          "name": "A3",
          "ticks": 2309,
          "time": 26.848837209302324,
          "velocity": 0.15748031496062992
        },
        {
          "duration": 0.02325581395349019,
          "durationTicks": 2,
          "midi": 45,
          "name": "A2",
          "ticks": 2310,
          "time": 26.86046511627907,
          "velocity": 0.2677165354330709
        },
        {
          "duration": 0.03488372093023173,
          "durationTicks": 3,
          "midi": 64,
          "name": "E4",
          "ticks": 2314,
          "time": 26.906976744186046,
          "velocity": 0.36220472440944884
        },
        {
          "duration": 0.04651162790697683,
          "durationTicks": 4,
          "midi": 44,
          "name": "G#2",
          "ticks": 2316,
          "time": 26.930232558139537,
          "velocity": 0.3543307086614173
        },
        {
          "duration": 0.03488372093023173,
          "durationTicks": 3,
          "midi": 56,
          "name": "G#3",
          "ticks": 2316,
          "time": 26.930232558139537,
          "velocity": 0.3779527559055118
        },
        {
          "duration": 0.13953488372092693,
          "durationTicks": 12,
          "midi": 77,
          "name": "F5",
          "ticks": 2316,
          "time": 26.930232558139537,
          "velocity": 0.2677165354330709
        },
        {
          "duration": 0.11627906976744029,
          "durationTicks": 10,
          "midi": 84,
          "name": "C6",
          "ticks": 2316,
          "time": 26.930232558139537,
          "velocity": 0.23622047244094488
        },
        {
          "duration": 0.11627906976744384,
          "durationTicks": 10,
          "midi": 65,
          "name": "F4",
          "ticks": 2317,
          "time": 26.941860465116278,
          "velocity": 0.4015748031496063
        },
        {
          "duration": 0.10465116279069875,
          "durationTicks": 9,
          "midi": 69,
          "name": "A4",
          "ticks": 2318,
          "time": 26.953488372093023,
          "velocity": 0.2204724409448819
        },
        {
          "duration": 0.03488372093023173,
          "durationTicks": 3,
          "midi": 50,
          "name": "D3",
          "ticks": 2319,
          "time": 26.96511627906977,
          "velocity": 0.2204724409448819
        },
        {
          "duration": 0.023255813953486637,
          "durationTicks": 2,
          "midi": 62,
          "name": "D4",
          "ticks": 2319,
          "time": 26.96511627906977,
          "velocity": 0.25196850393700787
        },
        {
          "duration": 0.08139534883720856,
          "durationTicks": 7,
          "midi": 57,
          "name": "A3",
          "ticks": 2321,
          "time": 26.988372093023255,
          "velocity": 0.3543307086614173
        },
        {
          "duration": 0.023255813953486637,
          "durationTicks": 2,
          "midi": 44,
          "name": "G#2",
          "ticks": 2322,
          "time": 27,
          "velocity": 0.28346456692913385
        },
        {
          "duration": 0.16279069767441712,
          "durationTicks": 14,
          "midi": 62,
          "name": "D4",
          "ticks": 2322,
          "time": 27,
          "velocity": 0.2677165354330709
        },
        {
          "duration": 0.08139534883721211,
          "durationTicks": 7,
          "midi": 45,
          "name": "A2",
          "ticks": 2324,
          "time": 27.023255813953487,
          "velocity": 0.2992125984251969
        },
        {
          "duration": 0.03488372093023173,
          "durationTicks": 3,
          "midi": 88,
          "name": "E6",
          "ticks": 2326,
          "time": 27.046511627906977,
          "velocity": 0.08661417322834646
        },
        {
          "duration": 0.12790697674418539,
          "durationTicks": 11,
          "midi": 67,
          "name": "G4",
          "ticks": 2327,
          "time": 27.058139534883722,
          "velocity": 0.2992125984251969
        },
        {
          "duration": 0.1046511627906952,
          "durationTicks": 9,
          "midi": 71,
          "name": "B4",
          "ticks": 2327,
          "time": 27.058139534883722,
          "velocity": 0.2125984251968504
        },
        {
          "duration": 0.1046511627906952,
          "durationTicks": 9,
          "midi": 95,
          "name": "B6",
          "ticks": 2327,
          "time": 27.058139534883722,
          "velocity": 0.1889763779527559
        },
        {
          "duration": 0.13953488372093048,
          "durationTicks": 12,
          "midi": 55,
          "name": "G3",
          "ticks": 2328,
          "time": 27.069767441860463,
          "velocity": 0.44881889763779526
        },
        {
          "duration": 0.034883720930235285,
          "durationTicks": 3,
          "midi": 78,
          "name": "F#5",
          "ticks": 2332,
          "time": 27.11627906976744,
          "velocity": 0.14173228346456693
        },
        {
          "duration": 0.04651162790697683,
          "durationTicks": 4,
          "midi": 60,
          "name": "C4",
          "ticks": 2337,
          "time": 27.174418604651162,
          "velocity": 0.31496062992125984
        },
        {
          "duration": 0.04651162790697683,
          "durationTicks": 4,
          "midi": 63,
          "name": "D#4",
          "ticks": 2338,
          "time": 27.186046511627907,
          "velocity": 0.2992125984251969
        },
        {
          "duration": 0.05813953488372192,
          "durationTicks": 5,
          "midi": 71,
          "name": "B4",
          "ticks": 2340,
          "time": 27.209302325581394,
          "velocity": 0.18110236220472442
        },
        {
          "duration": 0.06976744186046702,
          "durationTicks": 6,
          "midi": 88,
          "name": "E6",
          "ticks": 2340,
          "time": 27.209302325581394,
          "velocity": 0.12598425196850394
        },
        {
          "duration": 0.22093023255813904,
          "durationTicks": 19,
          "midi": 74,
          "name": "D5",
          "ticks": 2341,
          "time": 27.22093023255814,
          "velocity": 0.15748031496062992
        },
        {
          "duration": 0.023255813953486637,
          "durationTicks": 2,
          "midi": 51,
          "name": "D#3",
          "ticks": 2342,
          "time": 27.232558139534884,
          "velocity": 0.3543307086614173
        },
        {
          "duration": 0.19767441860464885,
          "durationTicks": 17,
          "midi": 64,
          "name": "E4",
          "ticks": 2343,
          "time": 27.24418604651163,
          "velocity": 0.2125984251968504
        },
        {
          "duration": 0.02325581395349019,
          "durationTicks": 2,
          "midi": 51,
          "name": "D#3",
          "ticks": 2345,
          "time": 27.267441860465116,
          "velocity": 0.3700787401574803
        },
        {
          "duration": 0.16279069767442067,
          "durationTicks": 14,
          "midi": 60,
          "name": "C4",
          "ticks": 2345,
          "time": 27.267441860465116,
          "velocity": 0.31496062992125984
        },
        {
          "duration": 0.023255813953486637,
          "durationTicks": 2,
          "midi": 51,
          "name": "D#3",
          "ticks": 2350,
          "time": 27.325581395348838,
          "velocity": 0.3937007874015748
        },
        {
          "duration": 0.023255813953486637,
          "durationTicks": 2,
          "midi": 67,
          "name": "G4",
          "ticks": 2350,
          "time": 27.325581395348838,
          "velocity": 0.23622047244094488
        },
        {
          "duration": 0.02325581395349019,
          "durationTicks": 2,
          "midi": 52,
          "name": "E3",
          "ticks": 2352,
          "time": 27.348837209302324,
          "velocity": 0.3779527559055118
        },
        {
          "duration": 0.02325581395349019,
          "durationTicks": 2,
          "midi": 44,
          "name": "G#2",
          "ticks": 2353,
          "time": 27.36046511627907,
          "velocity": 0.2440944881889764
        },
        {
          "duration": 0.023255813953486637,
          "durationTicks": 2,
          "midi": 52,
          "name": "E3",
          "ticks": 2355,
          "time": 27.38372093023256,
          "velocity": 0.36220472440944884
        },
        {
          "duration": 0.1046511627906952,
          "durationTicks": 9,
          "midi": 88,
          "name": "E6",
          "ticks": 2359,
          "time": 27.430232558139537,
          "velocity": 0.08661417322834646
        },
        {
          "duration": 0.12790697674418539,
          "durationTicks": 11,
          "midi": 86,
          "name": "D6",
          "ticks": 2360,
          "time": 27.441860465116278,
          "velocity": 0.2440944881889764
        },
        {
          "duration": 0.02325581395349019,
          "durationTicks": 2,
          "midi": 53,
          "name": "F3",
          "ticks": 2361,
          "time": 27.453488372093023,
          "velocity": 0.4881889763779528
        },
        {
          "duration": 0.1860465116279073,
          "durationTicks": 16,
          "midi": 74,
          "name": "D5",
          "ticks": 2361,
          "time": 27.453488372093023,
          "velocity": 0.28346456692913385
        },
        {
          "duration": 0.12790697674418539,
          "durationTicks": 11,
          "midi": 81,
          "name": "A5",
          "ticks": 2361,
          "time": 27.453488372093023,
          "velocity": 0.09448818897637795
        },
        {
          "duration": 0.13953488372093048,
          "durationTicks": 12,
          "midi": 93,
          "name": "A6",
          "ticks": 2362,
          "time": 27.46511627906977,
          "velocity": 0.25984251968503935
        },
        {
          "duration": 0.23255813953488058,
          "durationTicks": 20,
          "midi": 55,
          "name": "G3",
          "ticks": 2363,
          "time": 27.476744186046513,
          "velocity": 0.5118110236220472
        },
        {
          "duration": 0.12790697674418539,
          "durationTicks": 11,
          "midi": 62,
          "name": "D4",
          "ticks": 2363,
          "time": 27.476744186046513,
          "velocity": 0.4015748031496063
        },
        {
          "duration": 0.023255813953486637,
          "durationTicks": 2,
          "midi": 66,
          "name": "F#4",
          "ticks": 2363,
          "time": 27.476744186046513,
          "velocity": 0.2992125984251969
        },
        {
          "duration": 0.023255813953486637,
          "durationTicks": 2,
          "midi": 72,
          "name": "C5",
          "ticks": 2363,
          "time": 27.476744186046513,
          "velocity": 0.23622047244094488
        },
        {
          "duration": 0.06976744186046346,
          "durationTicks": 6,
          "midi": 72,
          "name": "C5",
          "ticks": 2366,
          "time": 27.511627906976745,
          "velocity": 0.2283464566929134
        },
        {
          "duration": 0.04651162790697683,
          "durationTicks": 4,
          "midi": 71,
          "name": "B4",
          "ticks": 2371,
          "time": 27.569767441860463,
          "velocity": 0.12598425196850394
        },
        {
          "duration": 0.02325581395349019,
          "durationTicks": 2,
          "midi": 53,
          "name": "F3",
          "ticks": 2383,
          "time": 27.709302325581394,
          "velocity": 0.4330708661417323
        },
        {
          "duration": 0.02325581395349019,
          "durationTicks": 2,
          "midi": 60,
          "name": "C4",
          "ticks": 2383,
          "time": 27.709302325581394,
          "velocity": 0.31496062992125984
        },
        {
          "duration": 0.06976744186046702,
          "durationTicks": 6,
          "midi": 71,
          "name": "B4",
          "ticks": 2384,
          "time": 27.72093023255814,
          "velocity": 0.29133858267716534
        },
        {
          "duration": 0.26744186046511587,
          "durationTicks": 23,
          "midi": 74,
          "name": "D5",
          "ticks": 2384,
          "time": 27.72093023255814,
          "velocity": 0.2755905511811024
        },
        {
          "duration": 0.023255813953486637,
          "durationTicks": 2,
          "midi": 41,
          "name": "F2",
          "ticks": 2385,
          "time": 27.732558139534884,
          "velocity": 0.2283464566929134
        },
        {
          "duration": 0.25581395348837077,
          "durationTicks": 22,
          "midi": 79,
          "name": "G5",
          "ticks": 2385,
          "time": 27.732558139534884,
          "velocity": 0.1968503937007874
        },
        {
          "duration": 0.08139534883720856,
          "durationTicks": 7,
          "midi": 88,
          "name": "E6",
          "ticks": 2385,
          "time": 27.732558139534884,
          "velocity": 0.2047244094488189
        },
        {
          "duration": 0.23255813953488413,
          "durationTicks": 20,
          "midi": 69,
          "name": "A4",
          "ticks": 2386,
          "time": 27.74418604651163,
          "velocity": 0.36220472440944884
        },
        {
          "duration": 0.04651162790697683,
          "durationTicks": 4,
          "midi": 57,
          "name": "A3",
          "ticks": 2387,
          "time": 27.75581395348837,
          "velocity": 0.4566929133858268
        },
        {
          "duration": 0.2093023255813975,
          "durationTicks": 18,
          "midi": 64,
          "name": "E4",
          "ticks": 2387,
          "time": 27.75581395348837,
          "velocity": 0.13385826771653545
        },
        {
          "duration": 0.1860465116279073,
          "durationTicks": 16,
          "midi": 93,
          "name": "A6",
          "ticks": 2387,
          "time": 27.75581395348837,
          "velocity": 0.1889763779527559
        },
        {
          "duration": 0.04651162790697683,
          "durationTicks": 4,
          "midi": 71,
          "name": "B4",
          "ticks": 2391,
          "time": 27.802325581395348,
          "velocity": 0.1889763779527559
        },
        {
          "duration": 0.10465116279069875,
          "durationTicks": 9,
          "midi": 57,
          "name": "A3",
          "ticks": 2392,
          "time": 27.813953488372093,
          "velocity": 0.47244094488188976
        },
        {
          "duration": 0.05813953488372192,
          "durationTicks": 5,
          "midi": 103,
          "name": "G7",
          "ticks": 2392,
          "time": 27.813953488372093,
          "velocity": 0.11023622047244094
        },
        {
          "duration": 0.04651162790697683,
          "durationTicks": 4,
          "midi": 72,
          "name": "C5",
          "ticks": 2395,
          "time": 27.848837209302324,
          "velocity": 0.2204724409448819
        },
        {
          "duration": 0.12790697674418894,
          "durationTicks": 11,
          "midi": 89,
          "name": "F6",
          "ticks": 2395,
          "time": 27.848837209302324,
          "velocity": 0.11811023622047244
        },
        {
          "duration": 0.034883720930235285,
          "durationTicks": 3,
          "midi": 99,
          "name": "D#7",
          "ticks": 2395,
          "time": 27.848837209302324,
          "velocity": 0.07086614173228346
        },
        {
          "duration": 0.06976744186046346,
          "durationTicks": 6,
          "midi": 67,
          "name": "G4",
          "ticks": 2397,
          "time": 27.872093023255815,
          "velocity": 0.14960629921259844
        },
        {
          "duration": 0.09302325581395365,
          "durationTicks": 8,
          "midi": 98,
          "name": "D7",
          "ticks": 2397,
          "time": 27.872093023255815,
          "velocity": 0.07086614173228346
        },
        {
          "duration": 0.023255813953486637,
          "durationTicks": 2,
          "midi": 51,
          "name": "D#3",
          "ticks": 2398,
          "time": 27.88372093023256,
          "velocity": 0.36220472440944884
        },
        {
          "duration": 0.04651162790697683,
          "durationTicks": 4,
          "midi": 88,
          "name": "E6",
          "ticks": 2398,
          "time": 27.88372093023256,
          "velocity": 0.11023622047244094
        },
        {
          "duration": 0.05813953488372192,
          "durationTicks": 5,
          "midi": 83,
          "name": "B5",
          "ticks": 2399,
          "time": 27.8953488372093,
          "velocity": 0.11023622047244094
        },
        {
          "duration": 0.023255813953486637,
          "durationTicks": 2,
          "midi": 51,
          "name": "D#3",
          "ticks": 2402,
          "time": 27.930232558139537,
          "velocity": 0.3543307086614173
        },
        {
          "duration": 0.023255813953486637,
          "durationTicks": 2,
          "midi": 57,
          "name": "A3",
          "ticks": 2402,
          "time": 27.930232558139537,
          "velocity": 0.3700787401574803
        },
        {
          "duration": 0.06976744186046346,
          "durationTicks": 6,
          "midi": 71,
          "name": "B4",
          "ticks": 2402,
          "time": 27.930232558139537,
          "velocity": 0.2047244094488189
        },
        {
          "duration": 0.02325581395349019,
          "durationTicks": 2,
          "midi": 56,
          "name": "G#3",
          "ticks": 2404,
          "time": 27.953488372093023,
          "velocity": 0.36220472440944884
        },
        {
          "duration": 0.05813953488372192,
          "durationTicks": 5,
          "midi": 42,
          "name": "F#2",
          "ticks": 2408,
          "time": 28,
          "velocity": 0.2992125984251969
        },
        {
          "duration": 0.09302325581395365,
          "durationTicks": 8,
          "midi": 55,
          "name": "G3",
          "ticks": 2408,
          "time": 28,
          "velocity": 0.3464566929133858
        },
        {
          "duration": 0.03488372093023173,
          "durationTicks": 3,
          "midi": 72,
          "name": "C5",
          "ticks": 2408,
          "time": 28,
          "velocity": 0.09448818897637795
        },
        {
          "duration": 0.03488372093023173,
          "durationTicks": 3,
          "midi": 60,
          "name": "C4",
          "ticks": 2416,
          "time": 28.093023255813954,
          "velocity": 0.3543307086614173
        },
        {
          "duration": 0.023255813953486637,
          "durationTicks": 2,
          "midi": 55,
          "name": "G3",
          "ticks": 2417,
          "time": 28.1046511627907,
          "velocity": 0.3937007874015748
        },
        {
          "duration": 0.09302325581395365,
          "durationTicks": 8,
          "midi": 79,
          "name": "G5",
          "ticks": 2417,
          "time": 28.1046511627907,
          "velocity": 0.16535433070866143
        },
        {
          "duration": 0.12790697674418539,
          "durationTicks": 11,
          "midi": 87,
          "name": "D#6",
          "ticks": 2417,
          "time": 28.1046511627907,
          "velocity": 0.13385826771653545
        },
        {
          "duration": 0.12790697674418894,
          "durationTicks": 11,
          "midi": 68,
          "name": "G#4",
          "ticks": 2418,
          "time": 28.11627906976744,
          "velocity": 0.4015748031496063
        },
        {
          "duration": 0.3953488372093048,
          "durationTicks": 34,
          "midi": 74,
          "name": "D5",
          "ticks": 2418,
          "time": 28.11627906976744,
          "velocity": 0.2677165354330709
        },
        {
          "duration": 0.04651162790697683,
          "durationTicks": 4,
          "midi": 83,
          "name": "B5",
          "ticks": 2418,
          "time": 28.11627906976744,
          "velocity": 0.12598425196850394
        },
        {
          "duration": 0.10465116279069875,
          "durationTicks": 9,
          "midi": 99,
          "name": "D#7",
          "ticks": 2418,
          "time": 28.11627906976744,
          "velocity": 0.14960629921259844
        },
        {
          "duration": 0.04651162790697683,
          "durationTicks": 4,
          "midi": 71,
          "name": "B4",
          "ticks": 2419,
          "time": 28.127906976744185,
          "velocity": 0.18110236220472442
        },
        {
          "duration": 0.3372093023255829,
          "durationTicks": 29,
          "midi": 89,
          "name": "F6",
          "ticks": 2419,
          "time": 28.127906976744185,
          "velocity": 0.11811023622047244
        },
        {
          "duration": 0.09302325581395365,
          "durationTicks": 8,
          "midi": 102,
          "name": "F#7",
          "ticks": 2419,
          "time": 28.127906976744185,
          "velocity": 0.12598425196850394
        },
        {
          "duration": 0.22093023255813904,
          "durationTicks": 19,
          "midi": 55,
          "name": "G3",
          "ticks": 2420,
          "time": 28.13953488372093,
          "velocity": 0.4645669291338583
        },
        {
          "duration": 0.023255813953486637,
          "durationTicks": 2,
          "midi": 60,
          "name": "C4",
          "ticks": 2420,
          "time": 28.13953488372093,
          "velocity": 0.23622047244094488
        },
        {
          "duration": 0.11627906976744029,
          "durationTicks": 10,
          "midi": 96,
          "name": "C7",
          "ticks": 2421,
          "time": 28.151162790697676,
          "velocity": 0.11023622047244094
        },
        {
          "duration": 0.1976744186046524,
          "durationTicks": 17,
          "midi": 64,
          "name": "E4",
          "ticks": 2422,
          "time": 28.162790697674417,
          "velocity": 0.2992125984251969
        },
        {
          "duration": 0.1860465116279073,
          "durationTicks": 16,
          "midi": 72,
          "name": "C5",
          "ticks": 2422,
          "time": 28.162790697674417,
          "velocity": 0.1889763779527559
        },
        {
          "duration": 0.1744186046511622,
          "durationTicks": 15,
          "midi": 60,
          "name": "C4",
          "ticks": 2423,
          "time": 28.174418604651162,
          "velocity": 0.2047244094488189
        },
        {
          "duration": 0.16279069767442067,
          "durationTicks": 14,
          "midi": 79,
          "name": "G5",
          "ticks": 2426,
          "time": 28.209302325581394,
          "velocity": 0.18110236220472442
        },
        {
          "duration": 0.03488372093023173,
          "durationTicks": 3,
          "midi": 83,
          "name": "B5",
          "ticks": 2428,
          "time": 28.232558139534884,
          "velocity": 0.07086614173228346
        },
        {
          "duration": 0.05813953488372192,
          "durationTicks": 5,
          "midi": 83,
          "name": "B5",
          "ticks": 2436,
          "time": 28.325581395348838,
          "velocity": 0.15748031496062992
        },
        {
          "duration": 0.03488372093023173,
          "durationTicks": 3,
          "midi": 54,
          "name": "F#3",
          "ticks": 2439,
          "time": 28.36046511627907,
          "velocity": 0.44881889763779526
        },
        {
          "duration": 0.02325581395349019,
          "durationTicks": 2,
          "midi": 62,
          "name": "D4",
          "ticks": 2439,
          "time": 28.36046511627907,
          "velocity": 0.3228346456692913
        },
        {
          "duration": 0.03488372093023173,
          "durationTicks": 3,
          "midi": 72,
          "name": "C5",
          "ticks": 2439,
          "time": 28.36046511627907,
          "velocity": 0.29133858267716534
        },
        {
          "duration": 0.11627906976744029,
          "durationTicks": 10,
          "midi": 76,
          "name": "E5",
          "ticks": 2440,
          "time": 28.372093023255815,
          "velocity": 0.14960629921259844
        },
        {
          "duration": 0.12790697674418539,
          "durationTicks": 11,
          "midi": 98,
          "name": "D7",
          "ticks": 2440,
          "time": 28.372093023255815,
          "velocity": 0.28346456692913385
        },
        {
          "duration": 0.15116279069767202,
          "durationTicks": 13,
          "midi": 64,
          "name": "E4",
          "ticks": 2441,
          "time": 28.38372093023256,
          "velocity": 0.25196850393700787
        },
        {
          "duration": 0.11627906976744029,
          "durationTicks": 10,
          "midi": 91,
          "name": "G6",
          "ticks": 2441,
          "time": 28.38372093023256,
          "velocity": 0.28346456692913385
        },
        {
          "duration": 0.11627906976744384,
          "durationTicks": 10,
          "midi": 55,
          "name": "G3",
          "ticks": 2442,
          "time": 28.3953488372093,
          "velocity": 0.44881889763779526
        },
        {
          "duration": 0.05813953488372192,
          "durationTicks": 5,
          "midi": 71,
          "name": "B4",
          "ticks": 2442,
          "time": 28.3953488372093,
          "velocity": 0.33858267716535434
        },
        {
          "duration": 0.06976744186046702,
          "durationTicks": 6,
          "midi": 72,
          "name": "C5",
          "ticks": 2446,
          "time": 28.441860465116278,
          "velocity": 0.2283464566929134
        },
        {
          "duration": 0.02325581395349019,
          "durationTicks": 2,
          "midi": 44,
          "name": "G#2",
          "ticks": 2450,
          "time": 28.488372093023255,
          "velocity": 0.28346456692913385
        },
        {
          "duration": 0.023255813953486637,
          "durationTicks": 2,
          "midi": 66,
          "name": "F#4",
          "ticks": 2451,
          "time": 28.5,
          "velocity": 0.28346456692913385
        },
        {
          "duration": 0.03488372093023173,
          "durationTicks": 3,
          "midi": 71,
          "name": "B4",
          "ticks": 2451,
          "time": 28.5,
          "velocity": 0.13385826771653545
        },
        {
          "duration": 0.023255813953486637,
          "durationTicks": 2,
          "midi": 53,
          "name": "F3",
          "ticks": 2452,
          "time": 28.511627906976745,
          "velocity": 0.36220472440944884
        },
        {
          "duration": 0.04651162790697683,
          "durationTicks": 4,
          "midi": 41,
          "name": "F2",
          "ticks": 2453,
          "time": 28.523255813953487,
          "velocity": 0.3464566929133858
        },
        {
          "duration": 0.05813953488372192,
          "durationTicks": 5,
          "midi": 55,
          "name": "G3",
          "ticks": 2455,
          "time": 28.546511627906977,
          "velocity": 0.33070866141732286
        },
        {
          "duration": 0.05813953488371837,
          "durationTicks": 5,
          "midi": 54,
          "name": "F#3",
          "ticks": 2460,
          "time": 28.6046511627907,
          "velocity": 0.4645669291338583
        },
        {
          "duration": 0.02325581395349019,
          "durationTicks": 2,
          "midi": 44,
          "name": "G#2",
          "ticks": 2461,
          "time": 28.61627906976744,
          "velocity": 0.25984251968503935
        },
        {
          "duration": 0.2558139534883743,
          "durationTicks": 22,
          "midi": 60,
          "name": "C4",
          "ticks": 2461,
          "time": 28.61627906976744,
          "velocity": 0.33070866141732286
        },
        {
          "duration": 0.27906976744186096,
          "durationTicks": 24,
          "midi": 65,
          "name": "F4",
          "ticks": 2461,
          "time": 28.61627906976744,
          "velocity": 0.4330708661417323
        },
        {
          "duration": 0.2674418604651194,
          "durationTicks": 23,
          "midi": 74,
          "name": "D5",
          "ticks": 2461,
          "time": 28.61627906976744,
          "velocity": 0.23622047244094488
        },
        {
          "duration": 0.1976744186046524,
          "durationTicks": 17,
          "midi": 79,
          "name": "G5",
          "ticks": 2461,
          "time": 28.61627906976744,
          "velocity": 0.1732283464566929
        },
        {
          "duration": 0.16279069767442067,
          "durationTicks": 14,
          "midi": 98,
          "name": "D7",
          "ticks": 2461,
          "time": 28.61627906976744,
          "velocity": 0.16535433070866143
        },
        {
          "duration": 0.23255813953488413,
          "durationTicks": 20,
          "midi": 84,
          "name": "C6",
          "ticks": 2462,
          "time": 28.627906976744185,
          "velocity": 0.25984251968503935
        },
        {
          "duration": 0.23255813953488413,
          "durationTicks": 20,
          "midi": 89,
          "name": "F6",
          "ticks": 2462,
          "time": 28.627906976744185,
          "velocity": 0.3228346456692913
        },
        {
          "duration": 0.2209302325581426,
          "durationTicks": 19,
          "midi": 55,
          "name": "G3",
          "ticks": 2465,
          "time": 28.662790697674417,
          "velocity": 0.4645669291338583
        },
        {
          "duration": 0.1860465116279073,
          "durationTicks": 16,
          "midi": 83,
          "name": "B5",
          "ticks": 2473,
          "time": 28.75581395348837,
          "velocity": 0.12598425196850394
        },
        {
          "duration": 0.06976744186046346,
          "durationTicks": 6,
          "midi": 48,
          "name": "C3",
          "ticks": 2476,
          "time": 28.790697674418606,
          "velocity": 0.29133858267716534
        },
        {
          "duration": 0.1046511627906952,
          "durationTicks": 9,
          "midi": 71,
          "name": "B4",
          "ticks": 2476,
          "time": 28.790697674418606,
          "velocity": 0.18110236220472442
        },
        {
          "duration": 0.023255813953486637,
          "durationTicks": 2,
          "midi": 62,
          "name": "D4",
          "ticks": 2484,
          "time": 28.88372093023256,
          "velocity": 0.3700787401574803
        },
        {
          "duration": 0.04651162790697683,
          "durationTicks": 4,
          "midi": 102,
          "name": "F#7",
          "ticks": 2484,
          "time": 28.88372093023256,
          "velocity": 0.07874015748031496
        },
        {
          "duration": 0.12790697674418539,
          "durationTicks": 11,
          "midi": 72,
          "name": "C5",
          "ticks": 2485,
          "time": 28.8953488372093,
          "velocity": 0.16535433070866143
        },
        {
          "duration": 0.05813953488372192,
          "durationTicks": 5,
          "midi": 79,
          "name": "G5",
          "ticks": 2485,
          "time": 28.8953488372093,
          "velocity": 0.10236220472440945
        },
        {
          "duration": 0.06976744186046702,
          "durationTicks": 6,
          "midi": 89,
          "name": "F6",
          "ticks": 2485,
          "time": 28.8953488372093,
          "velocity": 0.07086614173228346
        },
        {
          "duration": 0.09302325581395365,
          "durationTicks": 8,
          "midi": 55,
          "name": "G3",
          "ticks": 2486,
          "time": 28.906976744186046,
          "velocity": 0.3779527559055118
        },
        {
          "duration": 0.023255813953486637,
          "durationTicks": 2,
          "midi": 48,
          "name": "C3",
          "ticks": 2488,
          "time": 28.930232558139537,
          "velocity": 0.31496062992125984
        },
        {
          "duration": 0.19767441860464885,
          "durationTicks": 17,
          "midi": 74,
          "name": "D5",
          "ticks": 2488,
          "time": 28.930232558139537,
          "velocity": 0.18110236220472442
        },
        {
          "duration": 0.02325581395349019,
          "durationTicks": 2,
          "midi": 62,
          "name": "D4",
          "ticks": 2490,
          "time": 28.953488372093023,
          "velocity": 0.3700787401574803
        },
        {
          "duration": 0.11627906976744029,
          "durationTicks": 10,
          "midi": 60,
          "name": "C4",
          "ticks": 2492,
          "time": 28.976744186046513,
          "velocity": 0.29133858267716534
        },
        {
          "duration": 0.13953488372093048,
          "durationTicks": 12,
          "midi": 65,
          "name": "F4",
          "ticks": 2493,
          "time": 28.988372093023255,
          "velocity": 0.44881889763779526
        },
        {
          "duration": 0.13953488372093048,
          "durationTicks": 12,
          "midi": 84,
          "name": "C6",
          "ticks": 2493,
          "time": 28.988372093023255,
          "velocity": 0.2125984251968504
        },
        {
          "duration": 0.13953488372093048,
          "durationTicks": 12,
          "midi": 89,
          "name": "F6",
          "ticks": 2493,
          "time": 28.988372093023255,
          "velocity": 0.3543307086614173
        },
        {
          "duration": 0.023255813953486637,
          "durationTicks": 2,
          "midi": 48,
          "name": "C3",
          "ticks": 2494,
          "time": 29,
          "velocity": 0.2992125984251969
        },
        {
          "duration": 0.04651162790697683,
          "durationTicks": 4,
          "midi": 88,
          "name": "E6",
          "ticks": 2496,
          "time": 29.023255813953487,
          "velocity": 0.11023622047244094
        },
        {
          "duration": 0.04651162790697683,
          "durationTicks": 4,
          "midi": 48,
          "name": "C3",
          "ticks": 2497,
          "time": 29.03488372093023,
          "velocity": 0.31496062992125984
        },
        {
          "duration": 0.23255813953488413,
          "durationTicks": 20,
          "midi": 71,
          "name": "B4",
          "ticks": 2497,
          "time": 29.03488372093023,
          "velocity": 0.2677165354330709
        },
        {
          "duration": 0.09302325581395365,
          "durationTicks": 8,
          "midi": 55,
          "name": "G3",
          "ticks": 2498,
          "time": 29.046511627906977,
          "velocity": 0.4409448818897638
        },
        {
          "duration": 0.08139534883720856,
          "durationTicks": 7,
          "midi": 79,
          "name": "G5",
          "ticks": 2498,
          "time": 29.046511627906977,
          "velocity": 0.13385826771653545
        },
        {
          "duration": 0.12790697674418539,
          "durationTicks": 11,
          "midi": 67,
          "name": "G4",
          "ticks": 2506,
          "time": 29.13953488372093,
          "velocity": 0.3858267716535433
        },
        {
          "duration": 0.11627906976744029,
          "durationTicks": 10,
          "midi": 78,
          "name": "F#5",
          "ticks": 2506,
          "time": 29.13953488372093,
          "velocity": 0.11811023622047244
        },
        {
          "duration": 0.06976744186046346,
          "durationTicks": 6,
          "midi": 86,
          "name": "D6",
          "ticks": 2506,
          "time": 29.13953488372093,
          "velocity": 0.13385826771653545
        },
        {
          "duration": 0.33720930232557933,
          "durationTicks": 29,
          "midi": 55,
          "name": "G3",
          "ticks": 2507,
          "time": 29.151162790697676,
          "velocity": 0.5039370078740157
        },
        {
          "duration": 0.2093023255813975,
          "durationTicks": 18,
          "midi": 74,
          "name": "D5",
          "ticks": 2508,
          "time": 29.162790697674417,
          "velocity": 0.12598425196850394
        },
        {
          "duration": 0.04651162790697683,
          "durationTicks": 4,
          "midi": 64,
          "name": "E4",
          "ticks": 2509,
          "time": 29.174418604651162,
          "velocity": 0.18110236220472442
        },
        {
          "duration": 0.034883720930235285,
          "durationTicks": 3,
          "midi": 60,
          "name": "C4",
          "ticks": 2516,
          "time": 29.25581395348837,
          "velocity": 0.25196850393700787
        },
        {
          "duration": 0.11627906976744029,
          "durationTicks": 10,
          "midi": 62,
          "name": "D4",
          "ticks": 2519,
          "time": 29.290697674418606,
          "velocity": 0.25984251968503935
        },
        {
          "duration": 0.03488372093023173,
          "durationTicks": 3,
          "midi": 44,
          "name": "G#2",
          "ticks": 2527,
          "time": 29.38372093023256,
          "velocity": 0.30708661417322836
        },
        {
          "duration": 0.348837209302328,
          "durationTicks": 30,
          "midi": 74,
          "name": "D5",
          "ticks": 2528,
          "time": 29.3953488372093,
          "velocity": 0.4094488188976378
        },
        {
          "duration": 0.08139534883720856,
          "durationTicks": 7,
          "midi": 62,
          "name": "D4",
          "ticks": 2530,
          "time": 29.41860465116279,
          "velocity": 0.3937007874015748
        },
        {
          "duration": 0.02325581395349019,
          "durationTicks": 2,
          "midi": 67,
          "name": "G4",
          "ticks": 2536,
          "time": 29.488372093023255,
          "velocity": 0.25196850393700787
        },
        {
          "duration": 0.023255813953486637,
          "durationTicks": 2,
          "midi": 48,
          "name": "C3",
          "ticks": 2537,
          "time": 29.5,
          "velocity": 0.28346456692913385
        },
        {
          "duration": 0.13953488372093048,
          "durationTicks": 12,
          "midi": 93,
          "name": "A6",
          "ticks": 2537,
          "time": 29.5,
          "velocity": 0.25196850393700787
        },
        {
          "duration": 0.08139534883720856,
          "durationTicks": 7,
          "midi": 98,
          "name": "D7",
          "ticks": 2537,
          "time": 29.5,
          "velocity": 0.1968503937007874
        },
        {
          "duration": 0.25581395348837077,
          "durationTicks": 22,
          "midi": 62,
          "name": "D4",
          "ticks": 2538,
          "time": 29.511627906976745,
          "velocity": 0.44881889763779526
        },
        {
          "duration": 0.04651162790697683,
          "durationTicks": 4,
          "midi": 71,
          "name": "B4",
          "ticks": 2538,
          "time": 29.511627906976745,
          "velocity": 0.1968503937007874
        },
        {
          "duration": 0.12790697674418539,
          "durationTicks": 11,
          "midi": 67,
          "name": "G4",
          "ticks": 2541,
          "time": 29.546511627906977,
          "velocity": 0.12598425196850394
        },
        {
          "duration": 0.13953488372093048,
          "durationTicks": 12,
          "midi": 69,
          "name": "A4",
          "ticks": 2541,
          "time": 29.546511627906977,
          "velocity": 0.11023622047244094
        },
        {
          "duration": 0.09302325581395365,
          "durationTicks": 8,
          "midi": 88,
          "name": "E6",
          "ticks": 2542,
          "time": 29.558139534883722,
          "velocity": 0.08661417322834646
        },
        {
          "duration": 0.10465116279069875,
          "durationTicks": 9,
          "midi": 78,
          "name": "F#5",
          "ticks": 2543,
          "time": 29.569767441860463,
          "velocity": 0.11023622047244094
        },
        {
          "duration": 0.03488372093023173,
          "durationTicks": 3,
          "midi": 55,
          "name": "G3",
          "ticks": 2544,
          "time": 29.58139534883721,
          "velocity": 0.29133858267716534
        },
        {
          "duration": 0.02325581395349019,
          "durationTicks": 2,
          "midi": 50,
          "name": "D3",
          "ticks": 2547,
          "time": 29.61627906976744,
          "velocity": 0.36220472440944884
        },
        {
          "duration": 0.023255813953486637,
          "durationTicks": 2,
          "midi": 50,
          "name": "D3",
          "ticks": 2550,
          "time": 29.651162790697676,
          "velocity": 0.33858267716535434
        },
        {
          "duration": 0.023255813953486637,
          "durationTicks": 2,
          "midi": 48,
          "name": "C3",
          "ticks": 2553,
          "time": 29.686046511627907,
          "velocity": 0.3228346456692913
        },
        {
          "duration": 0.03488372093023173,
          "durationTicks": 3,
          "midi": 42,
          "name": "F#2",
          "ticks": 2556,
          "time": 29.72093023255814,
          "velocity": 0.1732283464566929
        },
        {
          "duration": 0.05813953488372192,
          "durationTicks": 5,
          "midi": 64,
          "name": "E4",
          "ticks": 2560,
          "time": 29.767441860465116,
          "velocity": 0.2992125984251969
        },
        {
          "duration": 0.03488372093023173,
          "durationTicks": 3,
          "midi": 45,
          "name": "A2",
          "ticks": 2561,
          "time": 29.77906976744186,
          "velocity": 0.4330708661417323
        },
        {
          "duration": 0.023255813953486637,
          "durationTicks": 2,
          "midi": 56,
          "name": "G#3",
          "ticks": 2562,
          "time": 29.790697674418606,
          "velocity": 0.5118110236220472
        },
        {
          "duration": 0.05813953488371837,
          "durationTicks": 5,
          "midi": 88,
          "name": "E6",
          "ticks": 2562,
          "time": 29.790697674418606,
          "velocity": 0.1889763779527559
        },
        {
          "duration": 0.04651162790697683,
          "durationTicks": 4,
          "midi": 74,
          "name": "D5",
          "ticks": 2563,
          "time": 29.802325581395348,
          "velocity": 0.10236220472440945
        },
        {
          "duration": 0.05813953488372192,
          "durationTicks": 5,
          "midi": 103,
          "name": "G7",
          "ticks": 2563,
          "time": 29.802325581395348,
          "velocity": 0.13385826771653545
        },
        {
          "duration": 0.1860465116279073,
          "durationTicks": 16,
          "midi": 57,
          "name": "A3",
          "ticks": 2564,
          "time": 29.813953488372093,
          "velocity": 0.5196850393700787
        },
        {
          "duration": 0.03488372093023173,
          "durationTicks": 3,
          "midi": 61,
          "name": "C#4",
          "ticks": 2565,
          "time": 29.825581395348838,
          "velocity": 0.25196850393700787
        },
        {
          "duration": 0.06976744186046346,
          "durationTicks": 6,
          "midi": 78,
          "name": "F#5",
          "ticks": 2565,
          "time": 29.825581395348838,
          "velocity": 0.09448818897637795
        },
        {
          "duration": 0.03488372093023173,
          "durationTicks": 3,
          "midi": 101,
          "name": "F7",
          "ticks": 2565,
          "time": 29.825581395348838,
          "velocity": 0.08661417322834646
        },
        {
          "duration": 0.023255813953486637,
          "durationTicks": 2,
          "midi": 44,
          "name": "G#2",
          "ticks": 2566,
          "time": 29.837209302325583,
          "velocity": 0.3228346456692913
        },
        {
          "duration": 0.03488372093023173,
          "durationTicks": 3,
          "midi": 62,
          "name": "D4",
          "ticks": 2568,
          "time": 29.86046511627907,
          "velocity": 0.2047244094488189
        },
        {
          "duration": 0.16279069767441712,
          "durationTicks": 14,
          "midi": 66,
          "name": "F#4",
          "ticks": 2570,
          "time": 29.88372093023256,
          "velocity": 0.14173228346456693
        },
        {
          "duration": 0.08139534883721211,
          "durationTicks": 7,
          "midi": 79,
          "name": "G5",
          "ticks": 2571,
          "time": 29.8953488372093,
          "velocity": 0.07874015748031496
        },
        {
          "duration": 0.09302325581395365,
          "durationTicks": 8,
          "midi": 88,
          "name": "E6",
          "ticks": 2572,
          "time": 29.906976744186046,
          "velocity": 0.16535433070866143
        },
        {
          "duration": 0.03488372093023173,
          "durationTicks": 3,
          "midi": 75,
          "name": "D#5",
          "ticks": 2573,
          "time": 29.91860465116279,
          "velocity": 0.12598425196850394
        },
        {
          "duration": 0.13953488372093048,
          "durationTicks": 12,
          "midi": 89,
          "name": "F6",
          "ticks": 2573,
          "time": 29.91860465116279,
          "velocity": 0.16535433070866143
        },
        {
          "duration": 0.023255813953486637,
          "durationTicks": 2,
          "midi": 43,
          "name": "G2",
          "ticks": 2574,
          "time": 29.930232558139537,
          "velocity": 0.28346456692913385
        },
        {
          "duration": 0.04651162790697683,
          "durationTicks": 4,
          "midi": 74,
          "name": "D5",
          "ticks": 2574,
          "time": 29.930232558139537,
          "velocity": 0.16535433070866143
        },
        {
          "duration": 0.02325581395349019,
          "durationTicks": 2,
          "midi": 45,
          "name": "A2",
          "ticks": 2576,
          "time": 29.953488372093023,
          "velocity": 0.3700787401574803
        },
        {
          "duration": 0.023255813953486637,
          "durationTicks": 2,
          "midi": 56,
          "name": "G#3",
          "ticks": 2580,
          "time": 30,
          "velocity": 0.4251968503937008
        },
        {
          "duration": 0.02325581395349019,
          "durationTicks": 2,
          "midi": 58,
          "name": "A#3",
          "ticks": 2582,
          "time": 30.023255813953487,
          "velocity": 0.2677165354330709
        },
        {
          "duration": 0.03488372093023173,
          "durationTicks": 3,
          "midi": 48,
          "name": "C3",
          "ticks": 2583,
          "time": 30.03488372093023,
          "velocity": 0.3779527559055118
        },
        {
          "duration": 0.023255813953486637,
          "durationTicks": 2,
          "midi": 56,
          "name": "G#3",
          "ticks": 2585,
          "time": 30.058139534883722,
          "velocity": 0.2992125984251969
        },
        {
          "duration": 0.034883720930235285,
          "durationTicks": 3,
          "midi": 44,
          "name": "G#2",
          "ticks": 2586,
          "time": 30.069767441860463,
          "velocity": 0.4094488188976378
        },
        {
          "duration": 0.10465116279069875,
          "durationTicks": 9,
          "midi": 55,
          "name": "G3",
          "ticks": 2587,
          "time": 30.08139534883721,
          "velocity": 0.4094488188976378
        },
        {
          "duration": 0.27906976744186096,
          "durationTicks": 24,
          "midi": 62,
          "name": "D4",
          "ticks": 2594,
          "time": 30.162790697674417,
          "velocity": 0.3937007874015748
        },
        {
          "duration": 0.13953488372093048,
          "durationTicks": 12,
          "midi": 68,
          "name": "G#4",
          "ticks": 2594,
          "time": 30.162790697674417,
          "velocity": 0.4094488188976378
        },
        {
          "duration": 0.034883720930235285,
          "durationTicks": 3,
          "midi": 102,
          "name": "F#7",
          "ticks": 2594,
          "time": 30.162790697674417,
          "velocity": 0.14173228346456693
        },
        {
          "duration": 0.09302325581395365,
          "durationTicks": 8,
          "midi": 71,
          "name": "B4",
          "ticks": 2595,
          "time": 30.174418604651162,
          "velocity": 0.28346456692913385
        },
        {
          "duration": 0.03488372093023173,
          "durationTicks": 3,
          "midi": 85,
          "name": "C#6",
          "ticks": 2595,
          "time": 30.174418604651162,
          "velocity": 0.11811023622047244
        },
        {
          "duration": 0.12790697674418539,
          "durationTicks": 11,
          "midi": 87,
          "name": "D#6",
          "ticks": 2595,
          "time": 30.174418604651162,
          "velocity": 0.10236220472440945
        },
        {
          "duration": 0.11627906976744384,
          "durationTicks": 10,
          "midi": 99,
          "name": "D#7",
          "ticks": 2595,
          "time": 30.174418604651162,
          "velocity": 0.18110236220472442
        },
        {
          "duration": 0.06976744186046346,
          "durationTicks": 6,
          "midi": 79,
          "name": "G5",
          "ticks": 2596,
          "time": 30.186046511627907,
          "velocity": 0.1889763779527559
        },
        {
          "duration": 0.2093023255813975,
          "durationTicks": 18,
          "midi": 55,
          "name": "G3",
          "ticks": 2598,
          "time": 30.209302325581394,
          "velocity": 0.44881889763779526
        },
        {
          "duration": 0.23255813953488413,
          "durationTicks": 20,
          "midi": 89,
          "name": "F6",
          "ticks": 2598,
          "time": 30.209302325581394,
          "velocity": 0.10236220472440945
        },
        {
          "duration": 0.15116279069767558,
          "durationTicks": 13,
          "midi": 79,
          "name": "G5",
          "ticks": 2603,
          "time": 30.267441860465116,
          "velocity": 0.14173228346456693
        },
        {
          "duration": 0.25581395348837077,
          "durationTicks": 22,
          "midi": 86,
          "name": "D6",
          "ticks": 2607,
          "time": 30.313953488372093,
          "velocity": 0.2992125984251969
        },
        {
          "duration": 0.03488372093023173,
          "durationTicks": 3,
          "midi": 55,
          "name": "G3",
          "ticks": 2617,
          "time": 30.430232558139537,
          "velocity": 0.2440944881889764
        },
        {
          "duration": 0.12790697674418539,
          "durationTicks": 11,
          "midi": 67,
          "name": "G4",
          "ticks": 2617,
          "time": 30.430232558139537,
          "velocity": 0.4645669291338583
        },
        {
          "duration": 0.02325581395349019,
          "durationTicks": 2,
          "midi": 45,
          "name": "A2",
          "ticks": 2618,
          "time": 30.441860465116278,
          "velocity": 0.3464566929133858
        },
        {
          "duration": 0.09302325581395365,
          "durationTicks": 8,
          "midi": 71,
          "name": "B4",
          "ticks": 2618,
          "time": 30.441860465116278,
          "velocity": 0.3228346456692913
        },
        {
          "duration": 0.12790697674418539,
          "durationTicks": 11,
          "midi": 62,
          "name": "D4",
          "ticks": 2619,
          "time": 30.453488372093023,
          "velocity": 0.31496062992125984
        },
        {
          "duration": 0.08139534883720856,
          "durationTicks": 7,
          "midi": 81,
          "name": "A5",
          "ticks": 2620,
          "time": 30.46511627906977,
          "velocity": 0.10236220472440945
        },
        {
          "duration": 0.13953488372092693,
          "durationTicks": 12,
          "midi": 55,
          "name": "G3",
          "ticks": 2621,
          "time": 30.476744186046513,
          "velocity": 0.4409448818897638
        },
        {
          "duration": 0.08139534883720856,
          "durationTicks": 7,
          "midi": 93,
          "name": "A6",
          "ticks": 2621,
          "time": 30.476744186046513,
          "velocity": 0.10236220472440945
        },
        {
          "duration": 0.04651162790697683,
          "durationTicks": 4,
          "midi": 89,
          "name": "F6",
          "ticks": 2626,
          "time": 30.53488372093023,
          "velocity": 0.07874015748031496
        },
        {
          "duration": 0.023255813953486637,
          "durationTicks": 2,
          "midi": 48,
          "name": "C3",
          "ticks": 2628,
          "time": 30.558139534883722,
          "velocity": 0.33070866141732286
        },
        {
          "duration": 0.03488372093023173,
          "durationTicks": 3,
          "midi": 66,
          "name": "F#4",
          "ticks": 2628,
          "time": 30.558139534883722,
          "velocity": 0.2677165354330709
        },
        {
          "duration": 0.03488372093023173,
          "durationTicks": 3,
          "midi": 74,
          "name": "D5",
          "ticks": 2632,
          "time": 30.6046511627907,
          "velocity": 0.11023622047244094
        },
        {
          "duration": 0.02325581395349019,
          "durationTicks": 2,
          "midi": 51,
          "name": "D#3",
          "ticks": 2634,
          "time": 30.627906976744185,
          "velocity": 0.3228346456692913
        },
        {
          "duration": 0.03488372093023173,
          "durationTicks": 3,
          "midi": 50,
          "name": "D3",
          "ticks": 2636,
          "time": 30.651162790697676,
          "velocity": 0.28346456692913385
        },
        {
          "duration": 0.04651162790697683,
          "durationTicks": 4,
          "midi": 55,
          "name": "G3",
          "ticks": 2636,
          "time": 30.651162790697676,
          "velocity": 0.23622047244094488
        },
        {
          "duration": 0.023255813953486637,
          "durationTicks": 2,
          "midi": 60,
          "name": "C4",
          "ticks": 2639,
          "time": 30.686046511627907,
          "velocity": 0.2440944881889764
        },
        {
          "duration": 0.26744186046511587,
          "durationTicks": 23,
          "midi": 65,
          "name": "F4",
          "ticks": 2639,
          "time": 30.686046511627907,
          "velocity": 0.41732283464566927
        },
        {
          "duration": 0.25581395348837077,
          "durationTicks": 22,
          "midi": 84,
          "name": "C6",
          "ticks": 2639,
          "time": 30.686046511627907,
          "velocity": 0.2755905511811024
        },
        {
          "duration": 0.24418604651162923,
          "durationTicks": 21,
          "midi": 89,
          "name": "F6",
          "ticks": 2639,
          "time": 30.686046511627907,
          "velocity": 0.3228346456692913
        },
        {
          "duration": 0.27906976744186096,
          "durationTicks": 24,
          "midi": 74,
          "name": "D5",
          "ticks": 2641,
          "time": 30.709302325581394,
          "velocity": 0.28346456692913385
        },
        {
          "duration": 0.08139534883720856,
          "durationTicks": 7,
          "midi": 98,
          "name": "D7",
          "ticks": 2642,
          "time": 30.72093023255814,
          "velocity": 0.11023622047244094
        },
        {
          "duration": 0.23255813953488413,
          "durationTicks": 20,
          "midi": 55,
          "name": "G3",
          "ticks": 2643,
          "time": 30.732558139534884,
          "velocity": 0.5039370078740157
        },
        {
          "duration": 0.10465116279069875,
          "durationTicks": 9,
          "midi": 69,
          "name": "A4",
          "ticks": 2646,
          "time": 30.767441860465116,
          "velocity": 0.11023622047244094
        },
        {
          "duration": 0.04651162790697683,
          "durationTicks": 4,
          "midi": 43,
          "name": "G2",
          "ticks": 2661,
          "time": 30.941860465116278,
          "velocity": 0.25984251968503935
        },
        {
          "duration": 0.11627906976744029,
          "durationTicks": 10,
          "midi": 62,
          "name": "D4",
          "ticks": 2663,
          "time": 30.96511627906977,
          "velocity": 0.3858267716535433
        },
        {
          "duration": 0.22093023255813904,
          "durationTicks": 19,
          "midi": 55,
          "name": "G3",
          "ticks": 2664,
          "time": 30.976744186046513,
          "velocity": 0.4645669291338583
        },
        {
          "duration": 0.02325581395349019,
          "durationTicks": 2,
          "midi": 44,
          "name": "G#2",
          "ticks": 2665,
          "time": 30.988372093023255,
          "velocity": 0.25984251968503935
        },
        {
          "duration": 0.10465116279069875,
          "durationTicks": 9,
          "midi": 75,
          "name": "D#5",
          "ticks": 2665,
          "time": 30.988372093023255,
          "velocity": 0.1889763779527559
        },
        {
          "duration": 0.1860465116279073,
          "durationTicks": 16,
          "midi": 89,
          "name": "F6",
          "ticks": 2665,
          "time": 30.988372093023255,
          "velocity": 0.33070866141732286
        },
        {
          "duration": 0.023255813953486637,
          "durationTicks": 2,
          "midi": 66,
          "name": "F#4",
          "ticks": 2671,
          "time": 31.058139534883722,
          "velocity": 0.33858267716535434
        },
        {
          "duration": 0.034883720930235285,
          "durationTicks": 3,
          "midi": 44,
          "name": "G#2",
          "ticks": 2672,
          "time": 31.069767441860463,
          "velocity": 0.30708661417322836
        },
        {
          "duration": 0.13953488372093048,
          "durationTicks": 12,
          "midi": 77,
          "name": "F5",
          "ticks": 2672,
          "time": 31.069767441860463,
          "velocity": 0.2204724409448819
        },
        {
          "duration": 0.10465116279069875,
          "durationTicks": 9,
          "midi": 84,
          "name": "C6",
          "ticks": 2672,
          "time": 31.069767441860463,
          "velocity": 0.1889763779527559
        },
        {
          "duration": 0.09302325581395365,
          "durationTicks": 8,
          "midi": 65,
          "name": "F4",
          "ticks": 2673,
          "time": 31.08139534883721,
          "velocity": 0.4409448818897638
        },
        {
          "duration": 0.02325581395349019,
          "durationTicks": 2,
          "midi": 44,
          "name": "G#2",
          "ticks": 2676,
          "time": 31.11627906976744,
          "velocity": 0.4015748031496063
        },
        {
          "duration": 0.02325581395349019,
          "durationTicks": 2,
          "midi": 44,
          "name": "G#2",
          "ticks": 2680,
          "time": 31.162790697674417,
          "velocity": 0.2677165354330709
        },
        {
          "duration": 0.03488372093023173,
          "durationTicks": 3,
          "midi": 45,
          "name": "A2",
          "ticks": 2682,
          "time": 31.186046511627907,
          "velocity": 0.2677165354330709
        },
        {
          "duration": 0.12790697674418539,
          "durationTicks": 11,
          "midi": 67,
          "name": "G4",
          "ticks": 2683,
          "time": 31.197674418604652,
          "velocity": 0.4094488188976378
        },
        {
          "duration": 0.11627906976744029,
          "durationTicks": 10,
          "midi": 86,
          "name": "D6",
          "ticks": 2683,
          "time": 31.197674418604652,
          "velocity": 0.28346456692913385
        },
        {
          "duration": 0.05813953488372192,
          "durationTicks": 5,
          "midi": 91,
          "name": "G6",
          "ticks": 2685,
          "time": 31.22093023255814,
          "velocity": 0.11811023622047244
        },
        {
          "duration": 0.023255813953486637,
          "durationTicks": 2,
          "midi": 41,
          "name": "F2",
          "ticks": 2686,
          "time": 31.232558139534884,
          "velocity": 0.28346456692913385
        },
        {
          "duration": 0.02325581395349019,
          "durationTicks": 2,
          "midi": 42,
          "name": "F#2",
          "ticks": 2688,
          "time": 31.25581395348837,
          "velocity": 0.3464566929133858
        },
        {
          "duration": 0.04651162790697683,
          "durationTicks": 4,
          "midi": 52,
          "name": "E3",
          "ticks": 2690,
          "time": 31.27906976744186,
          "velocity": 0.16535433070866143
        },
        {
          "duration": 0.023255813953486637,
          "durationTicks": 2,
          "midi": 52,
          "name": "E3",
          "ticks": 2695,
          "time": 31.337209302325583,
          "velocity": 0.2677165354330709
        },
        {
          "duration": 0.023255813953486637,
          "durationTicks": 2,
          "midi": 58,
          "name": "A#3",
          "ticks": 2695,
          "time": 31.337209302325583,
          "velocity": 0.2677165354330709
        },
        {
          "duration": 0.034883720930235285,
          "durationTicks": 3,
          "midi": 66,
          "name": "F#4",
          "ticks": 2696,
          "time": 31.348837209302324,
          "velocity": 0.23622047244094488
        },
        {
          "duration": 0.034883720930235285,
          "durationTicks": 3,
          "midi": 91,
          "name": "G6",
          "ticks": 2696,
          "time": 31.348837209302324,
          "velocity": 0.12598425196850394
        },
        {
          "duration": 0.02325581395349019,
          "durationTicks": 2,
          "midi": 57,
          "name": "A3",
          "ticks": 2697,
          "time": 31.36046511627907,
          "velocity": 0.4409448818897638
        },
        {
          "duration": 0.26744186046511587,
          "durationTicks": 23,
          "midi": 70,
          "name": "A#4",
          "ticks": 2697,
          "time": 31.36046511627907,
          "velocity": 0.2204724409448819
        },
        {
          "duration": 0.12790697674418539,
          "durationTicks": 11,
          "midi": 75,
          "name": "D#5",
          "ticks": 2698,
          "time": 31.372093023255815,
          "velocity": 0.13385826771653545
        },
        {
          "duration": 0.22093023255813904,
          "durationTicks": 19,
          "midi": 77,
          "name": "F5",
          "ticks": 2698,
          "time": 31.372093023255815,
          "velocity": 0.18110236220472442
        },
        {
          "duration": 0.04651162790697683,
          "durationTicks": 4,
          "midi": 98,
          "name": "D7",
          "ticks": 2698,
          "time": 31.372093023255815,
          "velocity": 0.25984251968503935
        },
        {
          "duration": 0.09302325581395365,
          "durationTicks": 8,
          "midi": 58,
          "name": "A#3",
          "ticks": 2699,
          "time": 31.38372093023256,
          "velocity": 0.3543307086614173
        },
        {
          "duration": 0.1046511627906952,
          "durationTicks": 9,
          "midi": 65,
          "name": "F4",
          "ticks": 2699,
          "time": 31.38372093023256,
          "velocity": 0.29133858267716534
        },
        {
          "duration": 0.02325581395349019,
          "durationTicks": 2,
          "midi": 45,
          "name": "A2",
          "ticks": 2700,
          "time": 31.3953488372093,
          "velocity": 0.4409448818897638
        },
        {
          "duration": 0.02325581395349019,
          "durationTicks": 2,
          "midi": 54,
          "name": "F#3",
          "ticks": 2701,
          "time": 31.406976744186046,
          "velocity": 0.29133858267716534
        },
        {
          "duration": 0.16279069767441712,
          "durationTicks": 14,
          "midi": 97,
          "name": "C#7",
          "ticks": 2702,
          "time": 31.41860465116279,
          "velocity": 0.23622047244094488
        },
        {
          "duration": 0.02325581395349019,
          "durationTicks": 2,
          "midi": 41,
          "name": "F2",
          "ticks": 2705,
          "time": 31.453488372093023,
          "velocity": 0.36220472440944884
        },
        {
          "duration": 0.023255813953486637,
          "durationTicks": 2,
          "midi": 54,
          "name": "F#3",
          "ticks": 2706,
          "time": 31.46511627906977,
          "velocity": 0.31496062992125984
        },
        {
          "duration": 0.023255813953486637,
          "durationTicks": 2,
          "midi": 67,
          "name": "G4",
          "ticks": 2707,
          "time": 31.476744186046513,
          "velocity": 0.2677165354330709
        },
        {
          "duration": 0.15116279069767202,
          "durationTicks": 13,
          "midi": 72,
          "name": "C5",
          "ticks": 2707,
          "time": 31.476744186046513,
          "velocity": 0.1732283464566929
        },
        {
          "duration": 0.02325581395349019,
          "durationTicks": 2,
          "midi": 53,
          "name": "F3",
          "ticks": 2708,
          "time": 31.488372093023255,
          "velocity": 0.2283464566929134
        },
        {
          "duration": 0.10465116279069875,
          "durationTicks": 9,
          "midi": 58,
          "name": "A#3",
          "ticks": 2708,
          "time": 31.488372093023255,
          "velocity": 0.33858267716535434
        },
        {
          "duration": 0.05813953488372192,
          "durationTicks": 5,
          "midi": 62,
          "name": "D4",
          "ticks": 2708,
          "time": 31.488372093023255,
          "velocity": 0.2677165354330709
        },
        {
          "duration": 0.023255813953486637,
          "durationTicks": 2,
          "midi": 44,
          "name": "G#2",
          "ticks": 2709,
          "time": 31.5,
          "velocity": 0.41732283464566927
        },
        {
          "duration": 0.09302325581395365,
          "durationTicks": 8,
          "midi": 65,
          "name": "F4",
          "ticks": 2710,
          "time": 31.511627906976745,
          "velocity": 0.1968503937007874
        },
        {
          "duration": 0.02325581395349019,
          "durationTicks": 2,
          "midi": 46,
          "name": "A#2",
          "ticks": 2711,
          "time": 31.523255813953487,
          "velocity": 0.3858267716535433
        },
        {
          "duration": 0.04651162790697683,
          "durationTicks": 4,
          "midi": 53,
          "name": "F3",
          "ticks": 2712,
          "time": 31.53488372093023,
          "velocity": 0.15748031496062992
        },
        {
          "duration": 0.02325581395349019,
          "durationTicks": 2,
          "midi": 46,
          "name": "A#2",
          "ticks": 2716,
          "time": 31.58139534883721,
          "velocity": 0.2992125984251969
        },
        {
          "duration": 0.03488372093023173,
          "durationTicks": 3,
          "midi": 98,
          "name": "D7",
          "ticks": 2716,
          "time": 31.58139534883721,
          "velocity": 0.12598425196850394
        },
        {
          "duration": 0.023255813953486637,
          "durationTicks": 2,
          "midi": 55,
          "name": "G3",
          "ticks": 2718,
          "time": 31.6046511627907,
          "velocity": 0.2992125984251969
        },
        {
          "duration": 0.11627906976744029,
          "durationTicks": 10,
          "midi": 81,
          "name": "A5",
          "ticks": 2718,
          "time": 31.6046511627907,
          "velocity": 0.13385826771653545
        },
        {
          "duration": 0.05813953488371837,
          "durationTicks": 5,
          "midi": 86,
          "name": "D6",
          "ticks": 2718,
          "time": 31.6046511627907,
          "velocity": 0.15748031496062992
        },
        {
          "duration": 0.12790697674418894,
          "durationTicks": 11,
          "midi": 62,
          "name": "D4",
          "ticks": 2719,
          "time": 31.61627906976744,
          "velocity": 0.4094488188976378
        },
        {
          "duration": 0.12790697674418894,
          "durationTicks": 11,
          "midi": 93,
          "name": "A6",
          "ticks": 2719,
          "time": 31.61627906976744,
          "velocity": 0.3464566929133858
        },
        {
          "duration": 0.10465116279069875,
          "durationTicks": 9,
          "midi": 102,
          "name": "F#7",
          "ticks": 2719,
          "time": 31.61627906976744,
          "velocity": 0.18110236220472442
        },
        {
          "duration": 0.12790697674418539,
          "durationTicks": 11,
          "midi": 77,
          "name": "F5",
          "ticks": 2720,
          "time": 31.627906976744185,
          "velocity": 0.14960629921259844
        },
        {
          "duration": 0.08139534883720856,
          "durationTicks": 7,
          "midi": 41,
          "name": "F2",
          "ticks": 2721,
          "time": 31.63953488372093,
          "velocity": 0.3700787401574803
        },
        {
          "duration": 0.10465116279069875,
          "durationTicks": 9,
          "midi": 53,
          "name": "F3",
          "ticks": 2721,
          "time": 31.63953488372093,
          "velocity": 0.3858267716535433
        },
        {
          "duration": 0.13953488372093048,
          "durationTicks": 12,
          "midi": 70,
          "name": "A#4",
          "ticks": 2721,
          "time": 31.63953488372093,
          "velocity": 0.1968503937007874
        },
        {
          "duration": 0.10465116279069875,
          "durationTicks": 9,
          "midi": 72,
          "name": "C5",
          "ticks": 2721,
          "time": 31.63953488372093,
          "velocity": 0.1732283464566929
        },
        {
          "duration": 0.1046511627906952,
          "durationTicks": 9,
          "midi": 58,
          "name": "A#3",
          "ticks": 2722,
          "time": 31.651162790697676,
          "velocity": 0.28346456692913385
        },
        {
          "duration": 0.04651162790697683,
          "durationTicks": 4,
          "midi": 97,
          "name": "C#7",
          "ticks": 2726,
          "time": 31.697674418604652,
          "velocity": 0.09448818897637795
        },
        {
          "duration": 0.023255813953486637,
          "durationTicks": 2,
          "midi": 41,
          "name": "F2",
          "ticks": 2729,
          "time": 31.732558139534884,
          "velocity": 0.3464566929133858
        },
        {
          "duration": 0.02325581395349019,
          "durationTicks": 2,
          "midi": 57,
          "name": "A3",
          "ticks": 2731,
          "time": 31.75581395348837,
          "velocity": 0.30708661417322836
        },
        {
          "duration": 0.02325581395349019,
          "durationTicks": 2,
          "midi": 41,
          "name": "F2",
          "ticks": 2732,
          "time": 31.767441860465116,
          "velocity": 0.33070866141732286
        },
        {
          "duration": 0.023255813953486637,
          "durationTicks": 2,
          "midi": 60,
          "name": "C4",
          "ticks": 2741,
          "time": 31.872093023255815,
          "velocity": 0.3858267716535433
        },
        {
          "duration": 0.023255813953486637,
          "durationTicks": 2,
          "midi": 66,
          "name": "F#4",
          "ticks": 2741,
          "time": 31.872093023255815,
          "velocity": 0.2440944881889764
        },
        {
          "duration": 0.13953488372093048,
          "durationTicks": 12,
          "midi": 77,
          "name": "F5",
          "ticks": 2742,
          "time": 31.88372093023256,
          "velocity": 0.2047244094488189
        },
        {
          "duration": 0.18604651162790375,
          "durationTicks": 16,
          "midi": 88,
          "name": "E6",
          "ticks": 2742,
          "time": 31.88372093023256,
          "velocity": 0.1968503937007874
        },
        {
          "duration": 0.1976744186046524,
          "durationTicks": 17,
          "midi": 103,
          "name": "G7",
          "ticks": 2742,
          "time": 31.88372093023256,
          "velocity": 0.25196850393700787
        },
        {
          "duration": 0.04651162790697683,
          "durationTicks": 4,
          "midi": 44,
          "name": "G#2",
          "ticks": 2743,
          "time": 31.8953488372093,
          "velocity": 0.4015748031496063
        },
        {
          "duration": 0.02325581395349019,
          "durationTicks": 2,
          "midi": 53,
          "name": "F3",
          "ticks": 2743,
          "time": 31.8953488372093,
          "velocity": 0.3937007874015748
        },
        {
          "duration": 0.02325581395349019,
          "durationTicks": 2,
          "midi": 61,
          "name": "C#4",
          "ticks": 2743,
          "time": 31.8953488372093,
          "velocity": 0.33070866141732286
        },
        {
          "duration": 0.20930232558139394,
          "durationTicks": 18,
          "midi": 69,
          "name": "A4",
          "ticks": 2743,
          "time": 31.8953488372093,
          "velocity": 0.4094488188976378
        },
        {
          "duration": 0.034883720930235285,
          "durationTicks": 3,
          "midi": 74,
          "name": "D5",
          "ticks": 2743,
          "time": 31.8953488372093,
          "velocity": 0.09448818897637795
        },
        {
          "duration": 0.1976744186046524,
          "durationTicks": 17,
          "midi": 97,
          "name": "C#7",
          "ticks": 2743,
          "time": 31.8953488372093,
          "velocity": 0.14173228346456693
        },
        {
          "duration": 0.04651162790697683,
          "durationTicks": 4,
          "midi": 72,
          "name": "C5",
          "ticks": 2744,
          "time": 31.906976744186046,
          "velocity": 0.1732283464566929
        },
        {
          "duration": 0.04651162790697683,
          "durationTicks": 4,
          "midi": 101,
          "name": "F7",
          "ticks": 2744,
          "time": 31.906976744186046,
          "velocity": 0.07086614173228346
        },
        {
          "duration": 0.023255813953486637,
          "durationTicks": 2,
          "midi": 54,
          "name": "F#3",
          "ticks": 2745,
          "time": 31.91860465116279,
          "velocity": 0.3858267716535433
        },
        {
          "duration": 0.06976744186046346,
          "durationTicks": 6,
          "midi": 58,
          "name": "A#3",
          "ticks": 2745,
          "time": 31.91860465116279,
          "velocity": 0.4015748031496063
        },
        {
          "duration": 0.081395348837205,
          "durationTicks": 7,
          "midi": 65,
          "name": "F4",
          "ticks": 2746,
          "time": 31.930232558139537,
          "velocity": 0.14173228346456693
        },
        {
          "duration": 0.05813953488372192,
          "durationTicks": 5,
          "midi": 53,
          "name": "F3",
          "ticks": 2747,
          "time": 31.941860465116278,
          "velocity": 0.36220472440944884
        },
        {
          "duration": 0.05813953488372192,
          "durationTicks": 5,
          "midi": 41,
          "name": "F2",
          "ticks": 2749,
          "time": 31.96511627906977,
          "velocity": 0.2755905511811024
        },
        {
          "duration": 0.023255813953486637,
          "durationTicks": 2,
          "midi": 59,
          "name": "B3",
          "ticks": 2751,
          "time": 31.988372093023255,
          "velocity": 0.33070866141732286
        },
        {
          "duration": 0.02325581395349019,
          "durationTicks": 2,
          "midi": 54,
          "name": "F#3",
          "ticks": 2752,
          "time": 32,
          "velocity": 0.4566929133858268
        },
        {
          "duration": 0.06976744186046346,
          "durationTicks": 6,
          "midi": 53,
          "name": "F3",
          "ticks": 2754,
          "time": 32.02325581395349,
          "velocity": 0.44881889763779526
        },
        {
          "duration": 0.023255813953483084,
          "durationTicks": 2,
          "midi": 59,
          "name": "B3",
          "ticks": 2754,
          "time": 32.02325581395349,
          "velocity": 0.2677165354330709
        },
        {
          "duration": 0.081395348837205,
          "durationTicks": 7,
          "midi": 58,
          "name": "A#3",
          "ticks": 2757,
          "time": 32.05813953488372,
          "velocity": 0.41732283464566927
        },
        {
          "duration": 0.09302325581395365,
          "durationTicks": 8,
          "midi": 72,
          "name": "C5",
          "ticks": 2758,
          "time": 32.06976744186046,
          "velocity": 0.11023622047244094
        },
        {
          "duration": 0.05813953488372192,
          "durationTicks": 5,
          "midi": 89,
          "name": "F6",
          "ticks": 2758,
          "time": 32.06976744186046,
          "velocity": 0.08661417322834646
        },
        {
          "duration": 0.023255813953483084,
          "durationTicks": 2,
          "midi": 45,
          "name": "A2",
          "ticks": 2759,
          "time": 32.08139534883721,
          "velocity": 0.28346456692913385
        },
        {
          "duration": 0.05813953488372192,
          "durationTicks": 5,
          "midi": 65,
          "name": "F4",
          "ticks": 2760,
          "time": 32.093023255813954,
          "velocity": 0.10236220472440945
        },
        {
          "duration": 0.02325581395349019,
          "durationTicks": 2,
          "midi": 53,
          "name": "F3",
          "ticks": 2761,
          "time": 32.104651162790695,
          "velocity": 0.33070866141732286
        },
        {
          "duration": 0.02325581395349019,
          "durationTicks": 2,
          "midi": 46,
          "name": "A#2",
          "ticks": 2763,
          "time": 32.127906976744185,
          "velocity": 0.2440944881889764
        },
        {
          "duration": 0.046511627906973274,
          "durationTicks": 4,
          "midi": 45,
          "name": "A2",
          "ticks": 2765,
          "time": 32.151162790697676,
          "velocity": 0.3700787401574803
        },
        {
          "duration": 0.02325581395349019,
          "durationTicks": 2,
          "midi": 53,
          "name": "F3",
          "ticks": 2765,
          "time": 32.151162790697676,
          "velocity": 0.33858267716535434
        },
        {
          "duration": 0.06976744186046346,
          "durationTicks": 6,
          "midi": 58,
          "name": "A#3",
          "ticks": 2767,
          "time": 32.174418604651166,
          "velocity": 0.18110236220472442
        },
        {
          "duration": 0.02325581395349019,
          "durationTicks": 2,
          "midi": 62,
          "name": "D4",
          "ticks": 2772,
          "time": 32.23255813953488,
          "velocity": 0.31496062992125984
        },
        {
          "duration": 0.13953488372093403,
          "durationTicks": 12,
          "midi": 68,
          "name": "G#4",
          "ticks": 2774,
          "time": 32.25581395348837,
          "velocity": 0.3543307086614173
        },
        {
          "duration": 0.03488372093023173,
          "durationTicks": 3,
          "midi": 84,
          "name": "C6",
          "ticks": 2774,
          "time": 32.25581395348837,
          "velocity": 0.14173228346456693
        },
        {
          "duration": 0.03488372093023173,
          "durationTicks": 3,
          "midi": 85,
          "name": "C#6",
          "ticks": 2774,
          "time": 32.25581395348837,
          "velocity": 0.14960629921259844
        },
        {
          "duration": 0.12790697674418539,
          "durationTicks": 11,
          "midi": 96,
          "name": "C7",
          "ticks": 2774,
          "time": 32.25581395348837,
          "velocity": 0.1889763779527559
        },
        {
          "duration": 0.12790697674418539,
          "durationTicks": 11,
          "midi": 102,
          "name": "F#7",
          "ticks": 2774,
          "time": 32.25581395348837,
          "velocity": 0.16535433070866143
        },
        {
          "duration": 0.11627906976743674,
          "durationTicks": 10,
          "midi": 92,
          "name": "G#6",
          "ticks": 2775,
          "time": 32.26744186046512,
          "velocity": 0.2283464566929134
        },
        {
          "duration": 0.15116279069767558,
          "durationTicks": 13,
          "midi": 72,
          "name": "C5",
          "ticks": 2776,
          "time": 32.27906976744186,
          "velocity": 0.30708661417322836
        },
        {
          "duration": 0.13953488372092693,
          "durationTicks": 12,
          "midi": 88,
          "name": "E6",
          "ticks": 2776,
          "time": 32.27906976744186,
          "velocity": 0.14173228346456693
        },
        {
          "duration": 0.12790697674418539,
          "durationTicks": 11,
          "midi": 99,
          "name": "D#7",
          "ticks": 2776,
          "time": 32.27906976744186,
          "velocity": 0.13385826771653545
        },
        {
          "duration": 0.02325581395349019,
          "durationTicks": 2,
          "midi": 43,
          "name": "G2",
          "ticks": 2777,
          "time": 32.2906976744186,
          "velocity": 0.2992125984251969
        },
        {
          "duration": 0.12790697674418539,
          "durationTicks": 11,
          "midi": 60,
          "name": "C4",
          "ticks": 2777,
          "time": 32.2906976744186,
          "velocity": 0.36220472440944884
        },
        {
          "duration": 0.11627906976744384,
          "durationTicks": 10,
          "midi": 83,
          "name": "B5",
          "ticks": 2777,
          "time": 32.2906976744186,
          "velocity": 0.07874015748031496
        },
        {
          "duration": 0.1046511627907023,
          "durationTicks": 9,
          "midi": 87,
          "name": "D#6",
          "ticks": 2777,
          "time": 32.2906976744186,
          "velocity": 0.14173228346456693
        },
        {
          "duration": 0.15116279069767558,
          "durationTicks": 13,
          "midi": 55,
          "name": "G3",
          "ticks": 2778,
          "time": 32.30232558139535,
          "velocity": 0.5039370078740157
        },
        {
          "duration": 0.09302325581395365,
          "durationTicks": 8,
          "midi": 74,
          "name": "D5",
          "ticks": 2780,
          "time": 32.325581395348834,
          "velocity": 0.09448818897637795
        },
        {
          "duration": 0.02325581395349019,
          "durationTicks": 2,
          "midi": 42,
          "name": "F#2",
          "ticks": 2782,
          "time": 32.348837209302324,
          "velocity": 0.2677165354330709
        },
        {
          "duration": 0.023255813953483084,
          "durationTicks": 2,
          "midi": 44,
          "name": "G#2",
          "ticks": 2786,
          "time": 32.395348837209305,
          "velocity": 0.33070866141732286
        },
        {
          "duration": 0.02325581395349019,
          "durationTicks": 2,
          "midi": 43,
          "name": "G2",
          "ticks": 2788,
          "time": 32.41860465116279,
          "velocity": 0.3858267716535433
        },
        {
          "duration": 0.03488372093023173,
          "durationTicks": 3,
          "midi": 60,
          "name": "C4",
          "ticks": 2790,
          "time": 32.44186046511628,
          "velocity": 0.1732283464566929
        },
        {
          "duration": 0.058139534883714816,
          "durationTicks": 5,
          "midi": 42,
          "name": "F#2",
          "ticks": 2791,
          "time": 32.45348837209303,
          "velocity": 0.36220472440944884
        },
        {
          "duration": 0.03488372093023173,
          "durationTicks": 3,
          "midi": 55,
          "name": "G3",
          "ticks": 2792,
          "time": 32.46511627906977,
          "velocity": 0.1968503937007874
        },
        {
          "duration": 0.02325581395349019,
          "durationTicks": 2,
          "midi": 56,
          "name": "G#3",
          "ticks": 2795,
          "time": 32.5,
          "velocity": 0.23622047244094488
        },
        {
          "duration": 0.17441860465116577,
          "durationTicks": 15,
          "midi": 86,
          "name": "D6",
          "ticks": 2795,
          "time": 32.5,
          "velocity": 0.23622047244094488
        },
        {
          "duration": 0.15116279069767558,
          "durationTicks": 13,
          "midi": 67,
          "name": "G4",
          "ticks": 2796,
          "time": 32.51162790697674,
          "velocity": 0.41732283464566927
        },
        {
          "duration": 0.15116279069767558,
          "durationTicks": 13,
          "midi": 83,
          "name": "B5",
          "ticks": 2797,
          "time": 32.52325581395349,
          "velocity": 0.11811023622047244
        },
        {
          "duration": 0.02325581395349019,
          "durationTicks": 2,
          "midi": 44,
          "name": "G#2",
          "ticks": 2798,
          "time": 32.53488372093023,
          "velocity": 0.31496062992125984
        },
        {
          "duration": 0.13953488372093403,
          "durationTicks": 12,
          "midi": 60,
          "name": "C4",
          "ticks": 2798,
          "time": 32.53488372093023,
          "velocity": 0.31496062992125984
        },
        {
          "duration": 0.05813953488372192,
          "durationTicks": 5,
          "midi": 71,
          "name": "B4",
          "ticks": 2798,
          "time": 32.53488372093023,
          "velocity": 0.3543307086614173
        },
        {
          "duration": 0.22093023255814614,
          "durationTicks": 19,
          "midi": 55,
          "name": "G3",
          "ticks": 2799,
          "time": 32.54651162790697,
          "velocity": 0.5354330708661418
        },
        {
          "duration": 0.03488372093023884,
          "durationTicks": 3,
          "midi": 84,
          "name": "C6",
          "ticks": 2799,
          "time": 32.54651162790697,
          "velocity": 0.08661417322834646
        },
        {
          "duration": 0.1279069767441925,
          "durationTicks": 11,
          "midi": 88,
          "name": "E6",
          "ticks": 2799,
          "time": 32.54651162790697,
          "velocity": 0.2047244094488189
        },
        {
          "duration": 0.11627906976744384,
          "durationTicks": 10,
          "midi": 91,
          "name": "G6",
          "ticks": 2799,
          "time": 32.54651162790697,
          "velocity": 0.23622047244094488
        },
        {
          "duration": 0.02325581395349019,
          "durationTicks": 2,
          "midi": 45,
          "name": "A2",
          "ticks": 2800,
          "time": 32.55813953488372,
          "velocity": 0.30708661417322836
        },
        {
          "duration": 0.1046511627906952,
          "durationTicks": 9,
          "midi": 89,
          "name": "F6",
          "ticks": 2800,
          "time": 32.55813953488372,
          "velocity": 0.07086614173228346
        },
        {
          "duration": 0.02325581395349019,
          "durationTicks": 2,
          "midi": 43,
          "name": "G2",
          "ticks": 2807,
          "time": 32.63953488372093,
          "velocity": 0.2440944881889764
        },
        {
          "duration": 0.03488372093023173,
          "durationTicks": 3,
          "midi": 66,
          "name": "F#4",
          "ticks": 2809,
          "time": 32.66279069767442,
          "velocity": 0.31496062992125984
        },
        {
          "duration": 0.05813953488372192,
          "durationTicks": 5,
          "midi": 42,
          "name": "F#2",
          "ticks": 2815,
          "time": 32.73255813953488,
          "velocity": 0.31496062992125984
        },
        {
          "duration": 0.3488372093023244,
          "durationTicks": 30,
          "midi": 65,
          "name": "F4",
          "ticks": 2820,
          "time": 32.7906976744186,
          "velocity": 0.3937007874015748
        },
        {
          "duration": 0.36046511627906597,
          "durationTicks": 31,
          "midi": 72,
          "name": "C5",
          "ticks": 2821,
          "time": 32.80232558139535,
          "velocity": 0.2755905511811024
        },
        {
          "duration": 0.3488372093023244,
          "durationTicks": 30,
          "midi": 84,
          "name": "C6",
          "ticks": 2821,
          "time": 32.80232558139535,
          "velocity": 0.31496062992125984
        },
        {
          "duration": 0.13953488372092693,
          "durationTicks": 12,
          "midi": 88,
          "name": "E6",
          "ticks": 2821,
          "time": 32.80232558139535,
          "velocity": 0.12598425196850394
        },
        {
          "duration": 0.06976744186046346,
          "durationTicks": 6,
          "midi": 89,
          "name": "F6",
          "ticks": 2821,
          "time": 32.80232558139535,
          "velocity": 0.2440944881889764
        },
        {
          "duration": 0.12790697674418539,
          "durationTicks": 11,
          "midi": 55,
          "name": "G3",
          "ticks": 2822,
          "time": 32.81395348837209,
          "velocity": 0.49606299212598426
        },
        {
          "duration": 0.12790697674418539,
          "durationTicks": 11,
          "midi": 60,
          "name": "C4",
          "ticks": 2822,
          "time": 32.81395348837209,
          "velocity": 0.3464566929133858
        },
        {
          "duration": 0.1046511627906952,
          "durationTicks": 9,
          "midi": 79,
          "name": "G5",
          "ticks": 2822,
          "time": 32.81395348837209,
          "velocity": 0.13385826771653545
        },
        {
          "duration": 0.02325581395349019,
          "durationTicks": 2,
          "midi": 45,
          "name": "A2",
          "ticks": 2823,
          "time": 32.825581395348834,
          "velocity": 0.30708661417322836
        },
        {
          "duration": 0.03488372093023173,
          "durationTicks": 3,
          "midi": 74,
          "name": "D5",
          "ticks": 2825,
          "time": 32.848837209302324,
          "velocity": 0.08661417322834646
        },
        {
          "duration": 0.02325581395349019,
          "durationTicks": 2,
          "midi": 42,
          "name": "F#2",
          "ticks": 2827,
          "time": 32.872093023255815,
          "velocity": 0.23622047244094488
        },
        {
          "duration": 0.1860465116279002,
          "durationTicks": 16,
          "midi": 55,
          "name": "G3",
          "ticks": 2834,
          "time": 32.95348837209303,
          "velocity": 0.5039370078740157
        },
        {
          "duration": 0.12790697674418539,
          "durationTicks": 11,
          "midi": 60,
          "name": "C4",
          "ticks": 2835,
          "time": 32.96511627906977,
          "velocity": 0.3228346456692913
        },
        {
          "duration": 0.2674418604651123,
          "durationTicks": 23,
          "midi": 74,
          "name": "D5",
          "ticks": 2835,
          "time": 32.96511627906977,
          "velocity": 0.2992125984251969
        },
        {
          "duration": 0.12790697674418539,
          "durationTicks": 11,
          "midi": 79,
          "name": "G5",
          "ticks": 2837,
          "time": 32.98837209302326,
          "velocity": 0.07086614173228346
        },
        {
          "duration": 0.03488372093023173,
          "durationTicks": 3,
          "midi": 48,
          "name": "C3",
          "ticks": 2841,
          "time": 33.03488372093023,
          "velocity": 0.3228346456692913
        },
        {
          "duration": 0.03488372093023173,
          "durationTicks": 3,
          "midi": 48,
          "name": "C3",
          "ticks": 2845,
          "time": 33.08139534883721,
          "velocity": 0.33858267716535434
        },
        {
          "duration": 0.11627906976744384,
          "durationTicks": 10,
          "midi": 76,
          "name": "E5",
          "ticks": 2847,
          "time": 33.104651162790695,
          "velocity": 0.2440944881889764
        },
        {
          "duration": 0.02325581395349019,
          "durationTicks": 2,
          "midi": 43,
          "name": "G2",
          "ticks": 2849,
          "time": 33.127906976744185,
          "velocity": 0.25196850393700787
        },
        {
          "duration": 0.02325581395349019,
          "durationTicks": 2,
          "midi": 48,
          "name": "C3",
          "ticks": 2851,
          "time": 33.151162790697676,
          "velocity": 0.36220472440944884
        },
        {
          "duration": 0.02325581395349019,
          "durationTicks": 2,
          "midi": 55,
          "name": "G3",
          "ticks": 2851,
          "time": 33.151162790697676,
          "velocity": 0.4645669291338583
        },
        {
          "duration": 0.02325581395349019,
          "durationTicks": 2,
          "midi": 63,
          "name": "D#4",
          "ticks": 2851,
          "time": 33.151162790697676,
          "velocity": 0.23622047244094488
        },
        {
          "duration": 0.03488372093023173,
          "durationTicks": 3,
          "midi": 61,
          "name": "C#4",
          "ticks": 2852,
          "time": 33.16279069767442,
          "velocity": 0.3858267716535433
        },
        {
          "duration": 0.023255813953483084,
          "durationTicks": 2,
          "midi": 54,
          "name": "F#3",
          "ticks": 2853,
          "time": 33.174418604651166,
          "velocity": 0.3543307086614173
        },
        {
          "duration": 0.02325581395349019,
          "durationTicks": 2,
          "midi": 44,
          "name": "G#2",
          "ticks": 2854,
          "time": 33.18604651162791,
          "velocity": 0.3937007874015748
        },
        {
          "duration": 0.03488372093023173,
          "durationTicks": 3,
          "midi": 55,
          "name": "G3",
          "ticks": 2855,
          "time": 33.19767441860465,
          "velocity": 0.4645669291338583
        },
        {
          "duration": 0.03488372093023173,
          "durationTicks": 3,
          "midi": 62,
          "name": "D4",
          "ticks": 2855,
          "time": 33.19767441860465,
          "velocity": 0.33070866141732286
        },
        {
          "duration": 0.02325581395349019,
          "durationTicks": 2,
          "midi": 56,
          "name": "G#3",
          "ticks": 2858,
          "time": 33.23255813953488,
          "velocity": 0.44881889763779526
        },
        {
          "duration": 0.02325581395349019,
          "durationTicks": 2,
          "midi": 63,
          "name": "D#4",
          "ticks": 2858,
          "time": 33.23255813953488,
          "velocity": 0.3464566929133858
        },
        {
          "duration": 0.03488372093023173,
          "durationTicks": 3,
          "midi": 50,
          "name": "D3",
          "ticks": 2859,
          "time": 33.24418604651163,
          "velocity": 0.4015748031496063
        },
        {
          "duration": 0.02325581395349019,
          "durationTicks": 2,
          "midi": 57,
          "name": "A3",
          "ticks": 2860,
          "time": 33.25581395348837,
          "velocity": 0.3700787401574803
        },
        {
          "duration": 0.05813953488372192,
          "durationTicks": 5,
          "midi": 64,
          "name": "E4",
          "ticks": 2860,
          "time": 33.25581395348837,
          "velocity": 0.33858267716535434
        },
        {
          "duration": 0.04651162790698038,
          "durationTicks": 4,
          "midi": 83,
          "name": "B5",
          "ticks": 2860,
          "time": 33.25581395348837,
          "velocity": 0.18110236220472442
        },
        {
          "duration": 0.05813953488372192,
          "durationTicks": 5,
          "midi": 88,
          "name": "E6",
          "ticks": 2860,
          "time": 33.25581395348837,
          "velocity": 0.09448818897637795
        },
        {
          "duration": 0.02325581395349019,
          "durationTicks": 2,
          "midi": 51,
          "name": "D#3",
          "ticks": 2862,
          "time": 33.27906976744186,
          "velocity": 0.4094488188976378
        },
        {
          "duration": 0.02325581395349019,
          "durationTicks": 2,
          "midi": 58,
          "name": "A#3",
          "ticks": 2862,
          "time": 33.27906976744186,
          "velocity": 0.25984251968503935
        },
        {
          "duration": 0.023255813953483084,
          "durationTicks": 2,
          "midi": 52,
          "name": "E3",
          "ticks": 2864,
          "time": 33.30232558139535,
          "velocity": 0.3700787401574803
        },
        {
          "duration": 0.023255813953483084,
          "durationTicks": 2,
          "midi": 72,
          "name": "C5",
          "ticks": 2864,
          "time": 33.30232558139535,
          "velocity": 0.2440944881889764
        },
        {
          "duration": 0.13953488372092693,
          "durationTicks": 12,
          "midi": 84,
          "name": "C6",
          "ticks": 2864,
          "time": 33.30232558139535,
          "velocity": 0.25196850393700787
        },
        {
          "duration": 0.13953488372093403,
          "durationTicks": 12,
          "midi": 65,
          "name": "F4",
          "ticks": 2865,
          "time": 33.31395348837209,
          "velocity": 0.33070866141732286
        },
        {
          "duration": 0.02325581395349019,
          "durationTicks": 2,
          "midi": 53,
          "name": "F3",
          "ticks": 2866,
          "time": 33.325581395348834,
          "velocity": 0.2992125984251969
        },
        {
          "duration": 0.02325581395349019,
          "durationTicks": 2,
          "midi": 55,
          "name": "G3",
          "ticks": 2868,
          "time": 33.348837209302324,
          "velocity": 0.28346456692913385
        },
        {
          "duration": 0.03488372093023173,
          "durationTicks": 3,
          "midi": 74,
          "name": "D5",
          "ticks": 2868,
          "time": 33.348837209302324,
          "velocity": 0.10236220472440945
        },
        {
          "duration": 0.03488372093023173,
          "durationTicks": 3,
          "midi": 55,
          "name": "G3",
          "ticks": 2871,
          "time": 33.383720930232556,
          "velocity": 0.1732283464566929
        },
        {
          "duration": 0.02325581395349019,
          "durationTicks": 2,
          "midi": 43,
          "name": "G2",
          "ticks": 2876,
          "time": 33.44186046511628,
          "velocity": 0.2677165354330709
        },
        {
          "duration": 0.5465116279069733,
          "durationTicks": 47,
          "midi": 77,
          "name": "F5",
          "ticks": 2877,
          "time": 33.45348837209303,
          "velocity": 0.2992125984251969
        },
        {
          "duration": 0.02325581395349019,
          "durationTicks": 2,
          "midi": 44,
          "name": "G#2",
          "ticks": 2878,
          "time": 33.46511627906977,
          "velocity": 0.3700787401574803
        },
        {
          "duration": 0.02325581395349019,
          "durationTicks": 2,
          "midi": 51,
          "name": "D#3",
          "ticks": 2878,
          "time": 33.46511627906977,
          "velocity": 0.3937007874015748
        },
        {
          "duration": 0.5581395348837219,
          "durationTicks": 48,
          "midi": 65,
          "name": "F4",
          "ticks": 2878,
          "time": 33.46511627906977,
          "velocity": 0.4409448818897638
        },
        {
          "duration": 0.38372093023255616,
          "durationTicks": 33,
          "midi": 84,
          "name": "C6",
          "ticks": 2878,
          "time": 33.46511627906977,
          "velocity": 0.33070866141732286
        },
        {
          "duration": 0.02325581395349019,
          "durationTicks": 2,
          "midi": 56,
          "name": "G#3",
          "ticks": 2879,
          "time": 33.47674418604651,
          "velocity": 0.4094488188976378
        },
        {
          "duration": 0.22093023255813904,
          "durationTicks": 19,
          "midi": 93,
          "name": "A6",
          "ticks": 2879,
          "time": 33.47674418604651,
          "velocity": 0.12598425196850394
        },
        {
          "duration": 0.06976744186046346,
          "durationTicks": 6,
          "midi": 50,
          "name": "D3",
          "ticks": 2880,
          "time": 33.48837209302326,
          "velocity": 0.4409448818897638
        },
        {
          "duration": 0.2093023255813975,
          "durationTicks": 18,
          "midi": 57,
          "name": "A3",
          "ticks": 2881,
          "time": 33.5,
          "velocity": 0.31496062992125984
        },
        {
          "duration": 0.023255813953483084,
          "durationTicks": 2,
          "midi": 45,
          "name": "A2",
          "ticks": 2891,
          "time": 33.616279069767444,
          "velocity": 0.3543307086614173
        },
        {
          "duration": 0.023255813953483084,
          "durationTicks": 2,
          "midi": 50,
          "name": "D3",
          "ticks": 2891,
          "time": 33.616279069767444,
          "velocity": 0.3543307086614173
        },
        {
          "duration": 0.03488372093023173,
          "durationTicks": 3,
          "midi": 45,
          "name": "A2",
          "ticks": 2896,
          "time": 33.674418604651166,
          "velocity": 0.3464566929133858
        },
        {
          "duration": 0.023255813953483084,
          "durationTicks": 2,
          "midi": 63,
          "name": "D#4",
          "ticks": 2899,
          "time": 33.7093023255814,
          "velocity": 0.2440944881889764
        },
        {
          "duration": 0.04651162790698038,
          "durationTicks": 4,
          "midi": 50,
          "name": "D3",
          "ticks": 2901,
          "time": 33.73255813953488,
          "velocity": 0.4015748031496063
        },
        {
          "duration": 0.02325581395349019,
          "durationTicks": 2,
          "midi": 58,
          "name": "A#3",
          "ticks": 2901,
          "time": 33.73255813953488,
          "velocity": 0.3543307086614173
        },
        {
          "duration": 0.081395348837205,
          "durationTicks": 7,
          "midi": 93,
          "name": "A6",
          "ticks": 2902,
          "time": 33.74418604651163,
          "velocity": 0.09448818897637795
        },
        {
          "duration": 0.11627906976744384,
          "durationTicks": 10,
          "midi": 57,
          "name": "A3",
          "ticks": 2903,
          "time": 33.75581395348837,
          "velocity": 0.3464566929133858
        },
        {
          "duration": 0.03488372093023173,
          "durationTicks": 3,
          "midi": 50,
          "name": "D3",
          "ticks": 2906,
          "time": 33.7906976744186,
          "velocity": 0.4015748031496063
        },
        {
          "duration": 0.03488372093023173,
          "durationTicks": 3,
          "midi": 45,
          "name": "A2",
          "ticks": 2908,
          "time": 33.81395348837209,
          "velocity": 0.3700787401574803
        },
        {
          "duration": 0.03488372093023173,
          "durationTicks": 3,
          "midi": 44,
          "name": "G#2",
          "ticks": 2911,
          "time": 33.848837209302324,
          "velocity": 0.3779527559055118
        },
        {
          "duration": 0.12790697674418539,
          "durationTicks": 11,
          "midi": 84,
          "name": "C6",
          "ticks": 2912,
          "time": 33.86046511627907,
          "velocity": 0.31496062992125984
        },
        {
          "duration": 0.11627906976743674,
          "durationTicks": 10,
          "midi": 93,
          "name": "A6",
          "ticks": 2912,
          "time": 33.86046511627907,
          "velocity": 0.08661417322834646
        },
        {
          "duration": 0.02325581395349019,
          "durationTicks": 2,
          "midi": 43,
          "name": "G2",
          "ticks": 2914,
          "time": 33.883720930232556,
          "velocity": 0.3228346456692913
        },
        {
          "duration": 0.02325581395349019,
          "durationTicks": 2,
          "midi": 42,
          "name": "F#2",
          "ticks": 2916,
          "time": 33.906976744186046,
          "velocity": 0.25984251968503935
        },
        {
          "duration": 0.12790697674418539,
          "durationTicks": 11,
          "midi": 57,
          "name": "A3",
          "ticks": 2923,
          "time": 33.98837209302326,
          "velocity": 0.4094488188976378
        },
        {
          "duration": 0.05813953488372192,
          "durationTicks": 5,
          "midi": 50,
          "name": "D3",
          "ticks": 2924,
          "time": 34,
          "velocity": 0.3937007874015748
        },
        {
          "duration": 0.046511627906973274,
          "durationTicks": 4,
          "midi": 64,
          "name": "E4",
          "ticks": 2926,
          "time": 34.02325581395349,
          "velocity": 0.14173228346456693
        },
        {
          "duration": 0.02325581395349019,
          "durationTicks": 2,
          "midi": 45,
          "name": "A2",
          "ticks": 2932,
          "time": 34.093023255813954,
          "velocity": 0.2992125984251969
        },
        {
          "duration": 0.02325581395349019,
          "durationTicks": 2,
          "midi": 50,
          "name": "D3",
          "ticks": 2932,
          "time": 34.093023255813954,
          "velocity": 0.3228346456692913
        },
        {
          "duration": 0.16279069767441712,
          "durationTicks": 14,
          "midi": 65,
          "name": "F4",
          "ticks": 2934,
          "time": 34.116279069767444,
          "velocity": 0.4251968503937008
        },
        {
          "duration": 0.081395348837205,
          "durationTicks": 7,
          "midi": 74,
          "name": "D5",
          "ticks": 2934,
          "time": 34.116279069767444,
          "velocity": 0.18110236220472442
        },
        {
          "duration": 0.13953488372092693,
          "durationTicks": 12,
          "midi": 84,
          "name": "C6",
          "ticks": 2934,
          "time": 34.116279069767444,
          "velocity": 0.33070866141732286
        },
        {
          "duration": 0.02325581395349019,
          "durationTicks": 2,
          "midi": 50,
          "name": "D3",
          "ticks": 2935,
          "time": 34.127906976744185,
          "velocity": 0.36220472440944884
        },
        {
          "duration": 0.03488372093023173,
          "durationTicks": 3,
          "midi": 69,
          "name": "A4",
          "ticks": 2935,
          "time": 34.127906976744185,
          "velocity": 0.18110236220472442
        },
        {
          "duration": 0.1046511627906952,
          "durationTicks": 9,
          "midi": 93,
          "name": "A6",
          "ticks": 2935,
          "time": 34.127906976744185,
          "velocity": 0.14173228346456693
        },
        {
          "duration": 0.03488372093023884,
          "durationTicks": 3,
          "midi": 56,
          "name": "G#3",
          "ticks": 2936,
          "time": 34.13953488372093,
          "velocity": 0.3779527559055118
        },
        {
          "duration": 0.09302325581395365,
          "durationTicks": 8,
          "midi": 45,
          "name": "A2",
          "ticks": 2939,
          "time": 34.174418604651166,
          "velocity": 0.4094488188976378
        },
        {
          "duration": 0.02325581395349019,
          "durationTicks": 2,
          "midi": 43,
          "name": "G2",
          "ticks": 2948,
          "time": 34.27906976744186,
          "velocity": 0.31496062992125984
        },
        {
          "duration": 0.046511627906973274,
          "durationTicks": 4,
          "midi": 42,
          "name": "F#2",
          "ticks": 2950,
          "time": 34.30232558139535,
          "velocity": 0.25196850393700787
        },
        {
          "duration": 0.046511627906973274,
          "durationTicks": 4,
          "midi": 55,
          "name": "G3",
          "ticks": 2953,
          "time": 34.33720930232558,
          "velocity": 0.4645669291338583
        },
        {
          "duration": 0.03488372093023173,
          "durationTicks": 3,
          "midi": 62,
          "name": "D4",
          "ticks": 2954,
          "time": 34.348837209302324,
          "velocity": 0.29133858267716534
        },
        {
          "duration": 0.02325581395349019,
          "durationTicks": 2,
          "midi": 45,
          "name": "A2",
          "ticks": 2956,
          "time": 34.372093023255815,
          "velocity": 0.3858267716535433
        },
        {
          "duration": 0.23255813953488058,
          "durationTicks": 20,
          "midi": 57,
          "name": "A3",
          "ticks": 2958,
          "time": 34.395348837209305,
          "velocity": 0.47244094488188976
        },
        {
          "duration": 0.2674418604651123,
          "durationTicks": 23,
          "midi": 65,
          "name": "F4",
          "ticks": 2958,
          "time": 34.395348837209305,
          "velocity": 0.4330708661417323
        },
        {
          "duration": 0.2674418604651123,
          "durationTicks": 23,
          "midi": 84,
          "name": "C6",
          "ticks": 2958,
          "time": 34.395348837209305,
          "velocity": 0.3228346456692913
        },
        {
          "duration": 0.13953488372092693,
          "durationTicks": 12,
          "midi": 50,
          "name": "D3",
          "ticks": 2959,
          "time": 34.406976744186046,
          "velocity": 0.3779527559055118
        },
        {
          "duration": 0.2093023255813975,
          "durationTicks": 18,
          "midi": 93,
          "name": "A6",
          "ticks": 2959,
          "time": 34.406976744186046,
          "velocity": 0.15748031496062992
        },
        {
          "duration": 0.046511627906973274,
          "durationTicks": 4,
          "midi": 50,
          "name": "D3",
          "ticks": 2972,
          "time": 34.55813953488372,
          "velocity": 0.28346456692913385
        },
        {
          "duration": 0.023255813953483084,
          "durationTicks": 2,
          "midi": 44,
          "name": "G#2",
          "ticks": 2977,
          "time": 34.616279069767444,
          "velocity": 0.28346456692913385
        },
        {
          "duration": 0.023255813953483084,
          "durationTicks": 2,
          "midi": 62,
          "name": "D4",
          "ticks": 2977,
          "time": 34.616279069767444,
          "velocity": 0.2677165354330709
        },
        {
          "duration": 0.02325581395349019,
          "durationTicks": 2,
          "midi": 56,
          "name": "G#3",
          "ticks": 2978,
          "time": 34.627906976744185,
          "velocity": 0.47244094488188976
        },
        {
          "duration": 0.04651162790698038,
          "durationTicks": 4,
          "midi": 69,
          "name": "A4",
          "ticks": 2978,
          "time": 34.627906976744185,
          "velocity": 0.18110236220472442
        },
        {
          "duration": 0.13953488372092693,
          "durationTicks": 12,
          "midi": 57,
          "name": "A3",
          "ticks": 2980,
          "time": 34.651162790697676,
          "velocity": 0.4409448818897638
        },
        {
          "duration": 0.13953488372092693,
          "durationTicks": 12,
          "midi": 62,
          "name": "D4",
          "ticks": 2982,
          "time": 34.674418604651166,
          "velocity": 0.4094488188976378
        },
        {
          "duration": 0.02325581395349019,
          "durationTicks": 2,
          "midi": 45,
          "name": "A2",
          "ticks": 2983,
          "time": 34.68604651162791,
          "velocity": 0.3543307086614173
        },
        {
          "duration": 0.02325581395349019,
          "durationTicks": 2,
          "midi": 50,
          "name": "D3",
          "ticks": 2983,
          "time": 34.68604651162791,
          "velocity": 0.3228346456692913
        },
        {
          "duration": 0.04651162790698038,
          "durationTicks": 4,
          "midi": 42,
          "name": "F#2",
          "ticks": 2992,
          "time": 34.7906976744186,
          "velocity": 0.2677165354330709
        },
        {
          "duration": 0.03488372093023173,
          "durationTicks": 3,
          "midi": 74,
          "name": "D5",
          "ticks": 3000,
          "time": 34.883720930232556,
          "velocity": 0.1889763779527559
        },
        {
          "duration": 0.023255813953483084,
          "durationTicks": 2,
          "midi": 56,
          "name": "G#3",
          "ticks": 3001,
          "time": 34.895348837209305,
          "velocity": 0.4645669291338583
        },
        {
          "duration": 0.023255813953483084,
          "durationTicks": 2,
          "midi": 62,
          "name": "D4",
          "ticks": 3001,
          "time": 34.895348837209305,
          "velocity": 0.25196850393700787
        },
        {
          "duration": 0.09302325581395365,
          "durationTicks": 8,
          "midi": 57,
          "name": "A3",
          "ticks": 3003,
          "time": 34.91860465116279,
          "velocity": 0.4645669291338583
        },
        {
          "duration": 0.38372093023256326,
          "durationTicks": 33,
          "midi": 86,
          "name": "D6",
          "ticks": 3003,
          "time": 34.91860465116279,
          "velocity": 0.25984251968503935
        },
        {
          "duration": 0.38372093023255616,
          "durationTicks": 33,
          "midi": 74,
          "name": "D5",
          "ticks": 3004,
          "time": 34.93023255813954,
          "velocity": 0.2992125984251969
        },
        {
          "duration": 0.03488372093023173,
          "durationTicks": 3,
          "midi": 50,
          "name": "D3",
          "ticks": 3005,
          "time": 34.94186046511628,
          "velocity": 0.33070866141732286
        },
        {
          "duration": 0.3720930232558146,
          "durationTicks": 32,
          "midi": 62,
          "name": "D4",
          "ticks": 3005,
          "time": 34.94186046511628,
          "velocity": 0.4409448818897638
        },
        {
          "duration": 0.09302325581395365,
          "durationTicks": 8,
          "midi": 102,
          "name": "F#7",
          "ticks": 3008,
          "time": 34.97674418604651,
          "velocity": 0.09448818897637795
        },
        {
          "duration": 0.12790697674418539,
          "durationTicks": 11,
          "midi": 57,
          "name": "A3",
          "ticks": 3013,
          "time": 35.03488372093023,
          "velocity": 0.41732283464566927
        },
        {
          "duration": 0.03488372093023173,
          "durationTicks": 3,
          "midi": 50,
          "name": "D3",
          "ticks": 3015,
          "time": 35.05813953488372,
          "velocity": 0.3543307086614173
        },
        {
          "duration": 0.03488372093023173,
          "durationTicks": 3,
          "midi": 45,
          "name": "A2",
          "ticks": 3021,
          "time": 35.127906976744185,
          "velocity": 0.33070866141732286
        },
        {
          "duration": 0.02325581395349019,
          "durationTicks": 2,
          "midi": 50,
          "name": "D3",
          "ticks": 3021,
          "time": 35.127906976744185,
          "velocity": 0.3543307086614173
        },
        {
          "duration": 0.1046511627906952,
          "durationTicks": 9,
          "midi": 57,
          "name": "A3",
          "ticks": 3025,
          "time": 35.174418604651166,
          "velocity": 0.48031496062992124
        },
        {
          "duration": 0.09302325581395365,
          "durationTicks": 8,
          "midi": 50,
          "name": "D3",
          "ticks": 3026,
          "time": 35.18604651162791,
          "velocity": 0.3464566929133858
        },
        {
          "duration": 0.03488372093023173,
          "durationTicks": 3,
          "midi": 44,
          "name": "G#2",
          "ticks": 3034,
          "time": 35.27906976744186,
          "velocity": 0.3779527559055118
        },
        {
          "duration": 0.11627906976743674,
          "durationTicks": 10,
          "midi": 50,
          "name": "D3",
          "ticks": 3036,
          "time": 35.30232558139535,
          "velocity": 0.3937007874015748
        },
        {
          "duration": 0.02325581395349019,
          "durationTicks": 2,
          "midi": 61,
          "name": "C#4",
          "ticks": 3037,
          "time": 35.31395348837209,
          "velocity": 0.41732283464566927
        },
        {
          "duration": 0.02325581395349019,
          "durationTicks": 2,
          "midi": 60,
          "name": "C4",
          "ticks": 3039,
          "time": 35.33720930232558,
          "velocity": 0.3779527559055118
        },
        {
          "duration": 0.023255813953483084,
          "durationTicks": 2,
          "midi": 59,
          "name": "B3",
          "ticks": 3041,
          "time": 35.36046511627907,
          "velocity": 0.3228346456692913
        },
        {
          "duration": 0.03488372093023173,
          "durationTicks": 3,
          "midi": 57,
          "name": "A3",
          "ticks": 3044,
          "time": 35.395348837209305,
          "velocity": 0.3464566929133858
        },
        {
          "duration": 0.04651162790698038,
          "durationTicks": 4,
          "midi": 42,
          "name": "F#2",
          "ticks": 3046,
          "time": 35.41860465116279,
          "velocity": 0.2047244094488189
        },
        {
          "duration": 0.05813953488372192,
          "durationTicks": 5,
          "midi": 57,
          "name": "A3",
          "ticks": 3048,
          "time": 35.44186046511628,
          "velocity": 0.2440944881889764
        },
        {
          "duration": 0.03488372093023173,
          "durationTicks": 3,
          "midi": 61,
          "name": "C#4",
          "ticks": 3055,
          "time": 35.52325581395349,
          "velocity": 0.47244094488188976
        },
        {
          "duration": 0.03488372093023173,
          "durationTicks": 3,
          "midi": 41,
          "name": "F2",
          "ticks": 3056,
          "time": 35.53488372093023,
          "velocity": 0.31496062992125984
        },
        {
          "duration": 0.03488372093023173,
          "durationTicks": 3,
          "midi": 54,
          "name": "F#3",
          "ticks": 3056,
          "time": 35.53488372093023,
          "velocity": 0.30708661417322836
        },
        {
          "duration": 0.03488372093023884,
          "durationTicks": 3,
          "midi": 74,
          "name": "D5",
          "ticks": 3057,
          "time": 35.54651162790697,
          "velocity": 0.3228346456692913
        },
        {
          "duration": 0.02325581395349019,
          "durationTicks": 2,
          "midi": 42,
          "name": "F#2",
          "ticks": 3059,
          "time": 35.56976744186046,
          "velocity": 0.3779527559055118
        },
        {
          "duration": 0.22093023255813904,
          "durationTicks": 19,
          "midi": 55,
          "name": "G3",
          "ticks": 3059,
          "time": 35.56976744186046,
          "velocity": 0.3228346456692913
        },
        {
          "duration": 0.02325581395349019,
          "durationTicks": 2,
          "midi": 63,
          "name": "D#4",
          "ticks": 3059,
          "time": 35.56976744186046,
          "velocity": 0.4251968503937008
        },
        {
          "duration": 0.046511627906973274,
          "durationTicks": 4,
          "midi": 43,
          "name": "G2",
          "ticks": 3061,
          "time": 35.593023255813954,
          "velocity": 0.3779527559055118
        },
        {
          "duration": 0.02325581395349019,
          "durationTicks": 2,
          "midi": 64,
          "name": "E4",
          "ticks": 3061,
          "time": 35.593023255813954,
          "velocity": 0.3937007874015748
        },
        {
          "duration": 0.32558139534884134,
          "durationTicks": 28,
          "midi": 84,
          "name": "C6",
          "ticks": 3062,
          "time": 35.604651162790695,
          "velocity": 0.30708661417322836
        },
        {
          "duration": 0.16279069767441712,
          "durationTicks": 14,
          "midi": 65,
          "name": "F4",
          "ticks": 3063,
          "time": 35.616279069767444,
          "velocity": 0.4015748031496063
        },
        {
          "duration": 0.06976744186046346,
          "durationTicks": 6,
          "midi": 99,
          "name": "D#7",
          "ticks": 3064,
          "time": 35.627906976744185,
          "velocity": 0.10236220472440945
        },
        {
          "duration": 0.02325581395349019,
          "durationTicks": 2,
          "midi": 43,
          "name": "G2",
          "ticks": 3067,
          "time": 35.66279069767442,
          "velocity": 0.3464566929133858
        },
        {
          "duration": 0.03488372093023173,
          "durationTicks": 3,
          "midi": 43,
          "name": "G2",
          "ticks": 3075,
          "time": 35.75581395348837,
          "velocity": 0.33858267716535434
        },
        {
          "duration": 0.03488372093023173,
          "durationTicks": 3,
          "midi": 62,
          "name": "D4",
          "ticks": 3077,
          "time": 35.77906976744186,
          "velocity": 0.25196850393700787
        },
        {
          "duration": 0.03488372093023173,
          "durationTicks": 3,
          "midi": 66,
          "name": "F#4",
          "ticks": 3077,
          "time": 35.77906976744186,
          "velocity": 0.25196850393700787
        },
        {
          "duration": 0.12790697674418539,
          "durationTicks": 11,
          "midi": 72,
          "name": "C5",
          "ticks": 3078,
          "time": 35.7906976744186,
          "velocity": 0.2047244094488189
        },
        {
          "duration": 0.15116279069767558,
          "durationTicks": 13,
          "midi": 55,
          "name": "G3",
          "ticks": 3079,
          "time": 35.80232558139535,
          "velocity": 0.4566929133858268
        },
        {
          "duration": 0.11627906976743674,
          "durationTicks": 10,
          "midi": 77,
          "name": "F5",
          "ticks": 3079,
          "time": 35.80232558139535,
          "velocity": 0.2283464566929134
        },
        {
          "duration": 0.02325581395349019,
          "durationTicks": 2,
          "midi": 60,
          "name": "C4",
          "ticks": 3080,
          "time": 35.81395348837209,
          "velocity": 0.2677165354330709
        },
        {
          "duration": 0.1046511627906952,
          "durationTicks": 9,
          "midi": 65,
          "name": "F4",
          "ticks": 3080,
          "time": 35.81395348837209,
          "velocity": 0.33858267716535434
        },
        {
          "duration": 0.02325581395349019,
          "durationTicks": 2,
          "midi": 48,
          "name": "C3",
          "ticks": 3081,
          "time": 35.825581395348834,
          "velocity": 0.3228346456692913
        },
        {
          "duration": 0.046511627906973274,
          "durationTicks": 4,
          "midi": 43,
          "name": "G2",
          "ticks": 3085,
          "time": 35.872093023255815,
          "velocity": 0.3464566929133858
        },
        {
          "duration": 0.02325581395349019,
          "durationTicks": 2,
          "midi": 63,
          "name": "D#4",
          "ticks": 3091,
          "time": 35.94186046511628,
          "velocity": 0.2677165354330709
        },
        {
          "duration": 0.16279069767441712,
          "durationTicks": 14,
          "midi": 77,
          "name": "F5",
          "ticks": 3092,
          "time": 35.95348837209303,
          "velocity": 0.29133858267716534
        },
        {
          "duration": 0.12790697674418539,
          "durationTicks": 11,
          "midi": 84,
          "name": "C6",
          "ticks": 3092,
          "time": 35.95348837209303,
          "velocity": 0.31496062992125984
        },
        {
          "duration": 0.12790697674418539,
          "durationTicks": 11,
          "midi": 65,
          "name": "F4",
          "ticks": 3093,
          "time": 35.96511627906977,
          "velocity": 0.4251968503937008
        },
        {
          "duration": 0.09302325581395365,
          "durationTicks": 8,
          "midi": 93,
          "name": "A6",
          "ticks": 3093,
          "time": 35.96511627906977,
          "velocity": 0.14960629921259844
        },
        {
          "duration": 0.03488372093023173,
          "durationTicks": 3,
          "midi": 42,
          "name": "F#2",
          "ticks": 3096,
          "time": 36,
          "velocity": 0.2125984251968504
        },
        {
          "duration": 0.04651162790698038,
          "durationTicks": 4,
          "midi": 42,
          "name": "F#2",
          "ticks": 3102,
          "time": 36.06976744186046,
          "velocity": 0.3700787401574803
        },
        {
          "duration": 0.12790697674418539,
          "durationTicks": 11,
          "midi": 55,
          "name": "G3",
          "ticks": 3102,
          "time": 36.06976744186046,
          "velocity": 0.3700787401574803
        },
        {
          "duration": 0.058139534883714816,
          "durationTicks": 5,
          "midi": 60,
          "name": "C4",
          "ticks": 3103,
          "time": 36.08139534883721,
          "velocity": 0.30708661417322836
        },
        {
          "duration": 0.046511627906973274,
          "durationTicks": 4,
          "midi": 43,
          "name": "G2",
          "ticks": 3106,
          "time": 36.116279069767444,
          "velocity": 0.3937007874015748
        },
        {
          "duration": 0.11627906976744384,
          "durationTicks": 10,
          "midi": 67,
          "name": "G4",
          "ticks": 3113,
          "time": 36.19767441860465,
          "velocity": 0.4251968503937008
        },
        {
          "duration": 0.1046511627907023,
          "durationTicks": 9,
          "midi": 72,
          "name": "C5",
          "ticks": 3113,
          "time": 36.19767441860465,
          "velocity": 0.2204724409448819
        },
        {
          "duration": 0.08139534883721211,
          "durationTicks": 7,
          "midi": 74,
          "name": "D5",
          "ticks": 3113,
          "time": 36.19767441860465,
          "velocity": 0.11023622047244094
        },
        {
          "duration": 0.11627906976744384,
          "durationTicks": 10,
          "midi": 91,
          "name": "G6",
          "ticks": 3113,
          "time": 36.19767441860465,
          "velocity": 0.28346456692913385
        },
        {
          "duration": 0.1046511627907023,
          "durationTicks": 9,
          "midi": 95,
          "name": "B6",
          "ticks": 3113,
          "time": 36.19767441860465,
          "velocity": 0.1732283464566929
        },
        {
          "duration": 0.1046511627906952,
          "durationTicks": 9,
          "midi": 60,
          "name": "C4",
          "ticks": 3114,
          "time": 36.2093023255814,
          "velocity": 0.3228346456692913
        },
        {
          "duration": 0.02325581395349019,
          "durationTicks": 2,
          "midi": 44,
          "name": "G#2",
          "ticks": 3115,
          "time": 36.22093023255814,
          "velocity": 0.3779527559055118
        },
        {
          "duration": 0.13953488372093403,
          "durationTicks": 12,
          "midi": 55,
          "name": "G3",
          "ticks": 3115,
          "time": 36.22093023255814,
          "velocity": 0.48031496062992124
        },
        {
          "duration": 0.06976744186046346,
          "durationTicks": 6,
          "midi": 98,
          "name": "D7",
          "ticks": 3115,
          "time": 36.22093023255814,
          "velocity": 0.16535433070866143
        },
        {
          "duration": 0.06976744186046346,
          "durationTicks": 6,
          "midi": 86,
          "name": "D6",
          "ticks": 3119,
          "time": 36.26744186046512,
          "velocity": 0.2992125984251969
        },
        {
          "duration": 0.023255813953483084,
          "durationTicks": 2,
          "midi": 43,
          "name": "G2",
          "ticks": 3122,
          "time": 36.30232558139535,
          "velocity": 0.36220472440944884
        },
        {
          "duration": 0.03488372093023884,
          "durationTicks": 3,
          "midi": 42,
          "name": "F#2",
          "ticks": 3124,
          "time": 36.325581395348834,
          "velocity": 0.3228346456692913
        },
        {
          "duration": 0.023255813953483084,
          "durationTicks": 2,
          "midi": 54,
          "name": "F#3",
          "ticks": 3127,
          "time": 36.36046511627907,
          "velocity": 0.36220472440944884
        },
        {
          "duration": 0.08139534883721211,
          "durationTicks": 7,
          "midi": 42,
          "name": "F#2",
          "ticks": 3129,
          "time": 36.383720930232556,
          "velocity": 0.2125984251968504
        },
        {
          "duration": 0.05813953488372192,
          "durationTicks": 5,
          "midi": 55,
          "name": "G3",
          "ticks": 3129,
          "time": 36.383720930232556,
          "velocity": 0.28346456692913385
        },
        {
          "duration": 0.25581395348837077,
          "durationTicks": 22,
          "midi": 55,
          "name": "G3",
          "ticks": 3135,
          "time": 36.45348837209303,
          "velocity": 0.5354330708661418
        },
        {
          "duration": 0.046511627906973274,
          "durationTicks": 4,
          "midi": 80,
          "name": "G#5",
          "ticks": 3135,
          "time": 36.45348837209303,
          "velocity": 0.13385826771653545
        },
        {
          "duration": 0.13953488372092693,
          "durationTicks": 12,
          "midi": 92,
          "name": "G#6",
          "ticks": 3135,
          "time": 36.45348837209303,
          "velocity": 0.3464566929133858
        },
        {
          "duration": 0.03488372093023173,
          "durationTicks": 3,
          "midi": 44,
          "name": "G#2",
          "ticks": 3136,
          "time": 36.46511627906977,
          "velocity": 0.36220472440944884
        },
        {
          "duration": 0.13953488372092693,
          "durationTicks": 12,
          "midi": 68,
          "name": "G#4",
          "ticks": 3136,
          "time": 36.46511627906977,
          "velocity": 0.25984251968503935
        },
        {
          "duration": 0.12790697674418539,
          "durationTicks": 11,
          "midi": 74,
          "name": "D5",
          "ticks": 3136,
          "time": 36.46511627906977,
          "velocity": 0.12598425196850394
        },
        {
          "duration": 0.081395348837205,
          "durationTicks": 7,
          "midi": 102,
          "name": "F#7",
          "ticks": 3136,
          "time": 36.46511627906977,
          "velocity": 0.13385826771653545
        },
        {
          "duration": 0.09302325581395365,
          "durationTicks": 8,
          "midi": 60,
          "name": "C4",
          "ticks": 3137,
          "time": 36.47674418604651,
          "velocity": 0.23622047244094488
        },
        {
          "duration": 0.1046511627907023,
          "durationTicks": 9,
          "midi": 99,
          "name": "D#7",
          "ticks": 3137,
          "time": 36.47674418604651,
          "velocity": 0.08661417322834646
        },
        {
          "duration": 0.02325581395349019,
          "durationTicks": 2,
          "midi": 43,
          "name": "G2",
          "ticks": 3139,
          "time": 36.5,
          "velocity": 0.3543307086614173
        },
        {
          "duration": 0.02325581395349019,
          "durationTicks": 2,
          "midi": 43,
          "name": "G2",
          "ticks": 3147,
          "time": 36.593023255813954,
          "velocity": 0.3700787401574803
        },
        {
          "duration": 0.04651162790698038,
          "durationTicks": 4,
          "midi": 60,
          "name": "C4",
          "ticks": 3151,
          "time": 36.63953488372093,
          "velocity": 0.14173228346456693
        },
        {
          "duration": 0.046511627906973274,
          "durationTicks": 4,
          "midi": 43,
          "name": "G2",
          "ticks": 3155,
          "time": 36.68604651162791,
          "velocity": 0.36220472440944884
        },
        {
          "duration": 0.1046511627907023,
          "durationTicks": 9,
          "midi": 68,
          "name": "G#4",
          "ticks": 3156,
          "time": 36.69767441860465,
          "velocity": 0.3464566929133858
        },
        {
          "duration": 0.1046511627907023,
          "durationTicks": 9,
          "midi": 92,
          "name": "G#6",
          "ticks": 3156,
          "time": 36.69767441860465,
          "velocity": 0.28346456692913385
        },
        {
          "duration": 0.023255813953483084,
          "durationTicks": 2,
          "midi": 59,
          "name": "B3",
          "ticks": 3157,
          "time": 36.7093023255814,
          "velocity": 0.31496062992125984
        },
        {
          "duration": 0.09302325581395365,
          "durationTicks": 8,
          "midi": 72,
          "name": "C5",
          "ticks": 3158,
          "time": 36.72093023255814,
          "velocity": 0.2047244094488189
        },
        {
          "duration": 0.09302325581395365,
          "durationTicks": 8,
          "midi": 55,
          "name": "G3",
          "ticks": 3159,
          "time": 36.73255813953488,
          "velocity": 0.49606299212598426
        },
        {
          "duration": 0.1046511627907023,
          "durationTicks": 9,
          "midi": 60,
          "name": "C4",
          "ticks": 3159,
          "time": 36.73255813953488,
          "velocity": 0.3937007874015748
        },
        {
          "duration": 0.02325581395349019,
          "durationTicks": 2,
          "midi": 45,
          "name": "A2",
          "ticks": 3160,
          "time": 36.74418604651163,
          "velocity": 0.30708661417322836
        },
        {
          "duration": 0.03488372093023173,
          "durationTicks": 3,
          "midi": 43,
          "name": "G2",
          "ticks": 3166,
          "time": 36.81395348837209,
          "velocity": 0.30708661417322836
        },
        {
          "duration": 0.06976744186046346,
          "durationTicks": 6,
          "midi": 67,
          "name": "G4",
          "ticks": 3168,
          "time": 36.83720930232558,
          "velocity": 0.3228346456692913
        },
        {
          "duration": 0.081395348837205,
          "durationTicks": 7,
          "midi": 91,
          "name": "G6",
          "ticks": 3168,
          "time": 36.83720930232558,
          "velocity": 0.3228346456692913
        },
        {
          "duration": 0.06976744186046346,
          "durationTicks": 6,
          "midi": 95,
          "name": "B6",
          "ticks": 3168,
          "time": 36.83720930232558,
          "velocity": 0.15748031496062992
        },
        {
          "duration": 0.04651162790698038,
          "durationTicks": 4,
          "midi": 42,
          "name": "F#2",
          "ticks": 3169,
          "time": 36.848837209302324,
          "velocity": 0.3543307086614173
        },
        {
          "duration": 0.03488372093023173,
          "durationTicks": 3,
          "midi": 60,
          "name": "C4",
          "ticks": 3169,
          "time": 36.848837209302324,
          "velocity": 0.2204724409448819
        },
        {
          "duration": 0.11627906976743674,
          "durationTicks": 10,
          "midi": 77,
          "name": "F5",
          "ticks": 3173,
          "time": 36.895348837209305,
          "velocity": 0.2992125984251969
        },
        {
          "duration": 0.11627906976743674,
          "durationTicks": 10,
          "midi": 84,
          "name": "C6",
          "ticks": 3173,
          "time": 36.895348837209305,
          "velocity": 0.2755905511811024
        },
        {
          "duration": 0.12790697674418539,
          "durationTicks": 11,
          "midi": 65,
          "name": "F4",
          "ticks": 3174,
          "time": 36.906976744186046,
          "velocity": 0.4015748031496063
        },
        {
          "duration": 0.06976744186046346,
          "durationTicks": 6,
          "midi": 93,
          "name": "A6",
          "ticks": 3174,
          "time": 36.906976744186046,
          "velocity": 0.13385826771653545
        },
        {
          "duration": 0.06976744186046346,
          "durationTicks": 6,
          "midi": 99,
          "name": "D#7",
          "ticks": 3174,
          "time": 36.906976744186046,
          "velocity": 0.13385826771653545
        },
        {
          "duration": 0.081395348837205,
          "durationTicks": 7,
          "midi": 55,
          "name": "G3",
          "ticks": 3181,
          "time": 36.98837209302326,
          "velocity": 0.48031496062992124
        },
        {
          "duration": 0.023255813953483084,
          "durationTicks": 2,
          "midi": 60,
          "name": "C4",
          "ticks": 3181,
          "time": 36.98837209302326,
          "velocity": 0.4015748031496063
        },
        {
          "duration": 0.24418604651162212,
          "durationTicks": 21,
          "midi": 74,
          "name": "D5",
          "ticks": 3181,
          "time": 36.98837209302326,
          "velocity": 0.13385826771653545
        },
        {
          "duration": 0.12790697674418539,
          "durationTicks": 11,
          "midi": 86,
          "name": "D6",
          "ticks": 3182,
          "time": 37,
          "velocity": 0.15748031496062992
        },
        {
          "duration": 0.081395348837205,
          "durationTicks": 7,
          "midi": 62,
          "name": "D4",
          "ticks": 3184,
          "time": 37.02325581395349,
          "velocity": 0.3543307086614173
        },
        {
          "duration": 0.05813953488372192,
          "durationTicks": 5,
          "midi": 43,
          "name": "G2",
          "ticks": 3187,
          "time": 37.05813953488372,
          "velocity": 0.36220472440944884
        },
        {
          "duration": 0.02325581395349019,
          "durationTicks": 2,
          "midi": 56,
          "name": "G#3",
          "ticks": 3191,
          "time": 37.104651162790695,
          "velocity": 0.29133858267716534
        },
        {
          "duration": 0.02325581395349019,
          "durationTicks": 2,
          "midi": 61,
          "name": "C#4",
          "ticks": 3191,
          "time": 37.104651162790695,
          "velocity": 0.2440944881889764
        },
        {
          "duration": 0.13953488372093403,
          "durationTicks": 12,
          "midi": 65,
          "name": "F4",
          "ticks": 3191,
          "time": 37.104651162790695,
          "velocity": 0.36220472440944884
        },
        {
          "duration": 0.12790697674418539,
          "durationTicks": 11,
          "midi": 84,
          "name": "C6",
          "ticks": 3191,
          "time": 37.104651162790695,
          "velocity": 0.2440944881889764
        },
        {
          "duration": 0.11627906976744384,
          "durationTicks": 10,
          "midi": 93,
          "name": "A6",
          "ticks": 3191,
          "time": 37.104651162790695,
          "velocity": 0.15748031496062992
        },
        {
          "duration": 0.11627906976744384,
          "durationTicks": 10,
          "midi": 55,
          "name": "G3",
          "ticks": 3193,
          "time": 37.127906976744185,
          "velocity": 0.49606299212598426
        },
        {
          "duration": 0.1046511627906952,
          "durationTicks": 9,
          "midi": 60,
          "name": "C4",
          "ticks": 3193,
          "time": 37.127906976744185,
          "velocity": 0.30708661417322836
        },
        {
          "duration": 0.03488372093023173,
          "durationTicks": 3,
          "midi": 43,
          "name": "G2",
          "ticks": 3199,
          "time": 37.19767441860465,
          "velocity": 0.33070866141732286
        },
        {
          "duration": 0.03488372093023173,
          "durationTicks": 3,
          "midi": 86,
          "name": "D6",
          "ticks": 3200,
          "time": 37.2093023255814,
          "velocity": 0.1732283464566929
        },
        {
          "duration": 0.03488372093023173,
          "durationTicks": 3,
          "midi": 54,
          "name": "F#3",
          "ticks": 3203,
          "time": 37.24418604651163,
          "velocity": 0.3779527559055118
        },
        {
          "duration": 0.06976744186046346,
          "durationTicks": 6,
          "midi": 79,
          "name": "G5",
          "ticks": 3203,
          "time": 37.24418604651163,
          "velocity": 0.2047244094488189
        },
        {
          "duration": 0.04651162790698038,
          "durationTicks": 4,
          "midi": 43,
          "name": "G2",
          "ticks": 3204,
          "time": 37.25581395348837,
          "velocity": 0.4094488188976378
        },
        {
          "duration": 0.11627906976744384,
          "durationTicks": 10,
          "midi": 60,
          "name": "C4",
          "ticks": 3204,
          "time": 37.25581395348837,
          "velocity": 0.3228346456692913
        },
        {
          "duration": 0.17441860465116577,
          "durationTicks": 15,
          "midi": 67,
          "name": "G4",
          "ticks": 3204,
          "time": 37.25581395348837,
          "velocity": 0.3937007874015748
        },
        {
          "duration": 0.08139534883721211,
          "durationTicks": 7,
          "midi": 74,
          "name": "D5",
          "ticks": 3204,
          "time": 37.25581395348837,
          "velocity": 0.1732283464566929
        },
        {
          "duration": 0.1860465116279073,
          "durationTicks": 16,
          "midi": 91,
          "name": "G6",
          "ticks": 3204,
          "time": 37.25581395348837,
          "velocity": 0.29133858267716534
        },
        {
          "duration": 0.16279069767441712,
          "durationTicks": 14,
          "midi": 95,
          "name": "B6",
          "ticks": 3204,
          "time": 37.25581395348837,
          "velocity": 0.16535433070866143
        },
        {
          "duration": 0.11627906976744384,
          "durationTicks": 10,
          "midi": 98,
          "name": "D7",
          "ticks": 3207,
          "time": 37.2906976744186,
          "velocity": 0.09448818897637795
        },
        {
          "duration": 0.12790697674418539,
          "durationTicks": 11,
          "midi": 86,
          "name": "D6",
          "ticks": 3208,
          "time": 37.30232558139535,
          "velocity": 0.2283464566929134
        },
        {
          "duration": 0.05813953488372192,
          "durationTicks": 5,
          "midi": 43,
          "name": "G2",
          "ticks": 3209,
          "time": 37.31395348837209,
          "velocity": 0.3858267716535433
        },
        {
          "duration": 0.2674418604651194,
          "durationTicks": 23,
          "midi": 55,
          "name": "G3",
          "ticks": 3212,
          "time": 37.348837209302324,
          "velocity": 0.4881889763779528
        },
        {
          "duration": 0.12790697674418539,
          "durationTicks": 11,
          "midi": 60,
          "name": "C4",
          "ticks": 3215,
          "time": 37.383720930232556,
          "velocity": 0.2755905511811024
        },
        {
          "duration": 0.15116279069767558,
          "durationTicks": 13,
          "midi": 74,
          "name": "D5",
          "ticks": 3215,
          "time": 37.383720930232556,
          "velocity": 0.18110236220472442
        },
        {
          "duration": 0.02325581395349019,
          "durationTicks": 2,
          "midi": 43,
          "name": "G2",
          "ticks": 3219,
          "time": 37.43023255813954,
          "velocity": 0.3937007874015748
        },
        {
          "duration": 0.02325581395349019,
          "durationTicks": 2,
          "midi": 66,
          "name": "F#4",
          "ticks": 3219,
          "time": 37.43023255813954,
          "velocity": 0.3464566929133858
        },
        {
          "duration": 0.02325581395349019,
          "durationTicks": 2,
          "midi": 85,
          "name": "C#6",
          "ticks": 3219,
          "time": 37.43023255813954,
          "velocity": 0.2283464566929134
        },
        {
          "duration": 0.023255813953483084,
          "durationTicks": 2,
          "midi": 65,
          "name": "F4",
          "ticks": 3221,
          "time": 37.45348837209303,
          "velocity": 0.33070866141732286
        },
        {
          "duration": 0.023255813953483084,
          "durationTicks": 2,
          "midi": 84,
          "name": "C6",
          "ticks": 3221,
          "time": 37.45348837209303,
          "velocity": 0.2283464566929134
        },
        {
          "duration": 0.02325581395349019,
          "durationTicks": 2,
          "midi": 43,
          "name": "G2",
          "ticks": 3223,
          "time": 37.47674418604651,
          "velocity": 0.3937007874015748
        },
        {
          "duration": 0.02325581395349019,
          "durationTicks": 2,
          "midi": 64,
          "name": "E4",
          "ticks": 3223,
          "time": 37.47674418604651,
          "velocity": 0.31496062992125984
        },
        {
          "duration": 0.02325581395349019,
          "durationTicks": 2,
          "midi": 63,
          "name": "D#4",
          "ticks": 3225,
          "time": 37.5,
          "velocity": 0.2992125984251969
        },
        {
          "duration": 0.023255813953483084,
          "durationTicks": 2,
          "midi": 44,
          "name": "G#2",
          "ticks": 3227,
          "time": 37.52325581395349,
          "velocity": 0.41732283464566927
        },
        {
          "duration": 0.023255813953483084,
          "durationTicks": 2,
          "midi": 62,
          "name": "D4",
          "ticks": 3227,
          "time": 37.52325581395349,
          "velocity": 0.2283464566929134
        },
        {
          "duration": 0.04651162790698038,
          "durationTicks": 4,
          "midi": 43,
          "name": "G2",
          "ticks": 3229,
          "time": 37.54651162790697,
          "velocity": 0.4094488188976378
        },
        {
          "duration": 0.02325581395349019,
          "durationTicks": 2,
          "midi": 61,
          "name": "C#4",
          "ticks": 3231,
          "time": 37.56976744186046,
          "velocity": 0.2283464566929134
        },
        {
          "duration": 0.04651162790698038,
          "durationTicks": 4,
          "midi": 43,
          "name": "G2",
          "ticks": 3234,
          "time": 37.604651162790695,
          "velocity": 0.4015748031496063
        },
        {
          "duration": 0.02325581395349019,
          "durationTicks": 2,
          "midi": 60,
          "name": "C4",
          "ticks": 3236,
          "time": 37.627906976744185,
          "velocity": 0.44881889763779526
        },
        {
          "duration": 0.02325581395349019,
          "durationTicks": 2,
          "midi": 50,
          "name": "D3",
          "ticks": 3237,
          "time": 37.63953488372093,
          "velocity": 0.28346456692913385
        },
        {
          "duration": 0.04651162790698038,
          "durationTicks": 4,
          "midi": 73,
          "name": "C#5",
          "ticks": 3237,
          "time": 37.63953488372093,
          "velocity": 0.2125984251968504
        },
        {
          "duration": 0.24418604651162923,
          "durationTicks": 21,
          "midi": 55,
          "name": "G3",
          "ticks": 3238,
          "time": 37.651162790697676,
          "velocity": 0.4094488188976378
        },
        {
          "duration": 0.02325581395349019,
          "durationTicks": 2,
          "midi": 41,
          "name": "F2",
          "ticks": 3239,
          "time": 37.66279069767442,
          "velocity": 0.30708661417322836
        },
        {
          "duration": 0.02325581395349019,
          "durationTicks": 2,
          "midi": 62,
          "name": "D4",
          "ticks": 3239,
          "time": 37.66279069767442,
          "velocity": 0.4881889763779528
        },
        {
          "duration": 0.15116279069766847,
          "durationTicks": 13,
          "midi": 50,
          "name": "D3",
          "ticks": 3240,
          "time": 37.674418604651166,
          "velocity": 0.36220472440944884
        },
        {
          "duration": 0.02325581395349019,
          "durationTicks": 2,
          "midi": 42,
          "name": "F#2",
          "ticks": 3241,
          "time": 37.68604651162791,
          "velocity": 0.36220472440944884
        },
        {
          "duration": 0.02325581395349019,
          "durationTicks": 2,
          "midi": 64,
          "name": "E4",
          "ticks": 3242,
          "time": 37.69767441860465,
          "velocity": 0.4094488188976378
        },
        {
          "duration": 0.16279069767441712,
          "durationTicks": 14,
          "midi": 43,
          "name": "G2",
          "ticks": 3243,
          "time": 37.7093023255814,
          "velocity": 0.3543307086614173
        },
        {
          "duration": 0.16279069767441712,
          "durationTicks": 14,
          "midi": 84,
          "name": "C6",
          "ticks": 3243,
          "time": 37.7093023255814,
          "velocity": 0.25196850393700787
        },
        {
          "duration": 0.16279069767441712,
          "durationTicks": 14,
          "midi": 89,
          "name": "F6",
          "ticks": 3243,
          "time": 37.7093023255814,
          "velocity": 0.1889763779527559
        },
        {
          "duration": 0.16279069767441712,
          "durationTicks": 14,
          "midi": 65,
          "name": "F4",
          "ticks": 3244,
          "time": 37.72093023255814,
          "velocity": 0.4094488188976378
        },
        {
          "duration": 0.03488372093023173,
          "durationTicks": 3,
          "midi": 50,
          "name": "D3",
          "ticks": 3254,
          "time": 37.83720930232558,
          "velocity": 0.29133858267716534
        },
        {
          "duration": 0.02325581395349019,
          "durationTicks": 2,
          "midi": 42,
          "name": "F#2",
          "ticks": 3257,
          "time": 37.872093023255815,
          "velocity": 0.33858267716535434
        },
        {
          "duration": 0.03488372093023173,
          "durationTicks": 3,
          "midi": 41,
          "name": "F2",
          "ticks": 3259,
          "time": 37.895348837209305,
          "velocity": 0.3464566929133858
        },
        {
          "duration": 0.046511627906973274,
          "durationTicks": 4,
          "midi": 74,
          "name": "D5",
          "ticks": 3259,
          "time": 37.895348837209305,
          "velocity": 0.1968503937007874
        },
        {
          "duration": 0.12790697674418539,
          "durationTicks": 11,
          "midi": 84,
          "name": "C6",
          "ticks": 3259,
          "time": 37.895348837209305,
          "velocity": 0.2677165354330709
        },
        {
          "duration": 0.11627906976743674,
          "durationTicks": 10,
          "midi": 89,
          "name": "F6",
          "ticks": 3259,
          "time": 37.895348837209305,
          "velocity": 0.2047244094488189
        },
        {
          "duration": 0.11627906976744384,
          "durationTicks": 10,
          "midi": 65,
          "name": "F4",
          "ticks": 3260,
          "time": 37.906976744186046,
          "velocity": 0.3858267716535433
        },
        {
          "duration": 0.02325581395349019,
          "durationTicks": 2,
          "midi": 42,
          "name": "F#2",
          "ticks": 3262,
          "time": 37.93023255813954,
          "velocity": 0.4094488188976378
        },
        {
          "duration": 0.11627906976743674,
          "durationTicks": 10,
          "midi": 50,
          "name": "D3",
          "ticks": 3262,
          "time": 37.93023255813954,
          "velocity": 0.44881889763779526
        },
        {
          "duration": 0.09302325581394655,
          "durationTicks": 8,
          "midi": 43,
          "name": "G2",
          "ticks": 3264,
          "time": 37.95348837209303,
          "velocity": 0.4094488188976378
        },
        {
          "duration": 0.15116279069767558,
          "durationTicks": 13,
          "midi": 65,
          "name": "F4",
          "ticks": 3272,
          "time": 38.04651162790697,
          "velocity": 0.4094488188976378
        },
        {
          "duration": 0.13953488372093403,
          "durationTicks": 12,
          "midi": 84,
          "name": "C6",
          "ticks": 3272,
          "time": 38.04651162790697,
          "velocity": 0.29133858267716534
        },
        {
          "duration": 0.1279069767441925,
          "durationTicks": 11,
          "midi": 89,
          "name": "F6",
          "ticks": 3272,
          "time": 38.04651162790697,
          "velocity": 0.2440944881889764
        },
        {
          "duration": 0.081395348837205,
          "durationTicks": 7,
          "midi": 103,
          "name": "G7",
          "ticks": 3273,
          "time": 38.05813953488372,
          "velocity": 0.10236220472440945
        },
        {
          "duration": 0.08139534883721211,
          "durationTicks": 7,
          "midi": 42,
          "name": "F#2",
          "ticks": 3274,
          "time": 38.06976744186046,
          "velocity": 0.3779527559055118
        },
        {
          "duration": 0.02325581395349019,
          "durationTicks": 2,
          "midi": 54,
          "name": "F#3",
          "ticks": 3281,
          "time": 38.151162790697676,
          "velocity": 0.30708661417322836
        },
        {
          "duration": 0.12790697674418539,
          "durationTicks": 11,
          "midi": 55,
          "name": "G3",
          "ticks": 3283,
          "time": 38.174418604651166,
          "velocity": 0.47244094488188976
        },
        {
          "duration": 0.16279069767441712,
          "durationTicks": 14,
          "midi": 62,
          "name": "D4",
          "ticks": 3283,
          "time": 38.174418604651166,
          "velocity": 0.29133858267716534
        },
        {
          "duration": 0.046511627906973274,
          "durationTicks": 4,
          "midi": 42,
          "name": "F#2",
          "ticks": 3284,
          "time": 38.18604651162791,
          "velocity": 0.4015748031496063
        },
        {
          "duration": 0.046511627906973274,
          "durationTicks": 4,
          "midi": 50,
          "name": "D3",
          "ticks": 3286,
          "time": 38.2093023255814,
          "velocity": 0.3858267716535433
        },
        {
          "duration": 0.05813953488372192,
          "durationTicks": 5,
          "midi": 43,
          "name": "G2",
          "ticks": 3288,
          "time": 38.23255813953488,
          "velocity": 0.3937007874015748
        },
        {
          "duration": 0.17441860465116577,
          "durationTicks": 15,
          "midi": 86,
          "name": "D6",
          "ticks": 3293,
          "time": 38.2906976744186,
          "velocity": 0.4015748031496063
        },
        {
          "duration": 0.13953488372092693,
          "durationTicks": 12,
          "midi": 67,
          "name": "G4",
          "ticks": 3294,
          "time": 38.30232558139535,
          "velocity": 0.4251968503937008
        },
        {
          "duration": 0.12790697674418539,
          "durationTicks": 11,
          "midi": 95,
          "name": "B6",
          "ticks": 3294,
          "time": 38.30232558139535,
          "velocity": 0.16535433070866143
        },
        {
          "duration": 0.081395348837205,
          "durationTicks": 7,
          "midi": 103,
          "name": "G7",
          "ticks": 3294,
          "time": 38.30232558139535,
          "velocity": 0.13385826771653545
        },
        {
          "duration": 0.11627906976744384,
          "durationTicks": 10,
          "midi": 50,
          "name": "D3",
          "ticks": 3295,
          "time": 38.31395348837209,
          "velocity": 0.3779527559055118
        },
        {
          "duration": 0.02325581395349019,
          "durationTicks": 2,
          "midi": 43,
          "name": "G2",
          "ticks": 3296,
          "time": 38.325581395348834,
          "velocity": 0.33858267716535434
        },
        {
          "duration": 0.02325581395349019,
          "durationTicks": 2,
          "midi": 42,
          "name": "F#2",
          "ticks": 3298,
          "time": 38.348837209302324,
          "velocity": 0.3464566929133858
        },
        {
          "duration": 0.09302325581395365,
          "durationTicks": 8,
          "midi": 43,
          "name": "G2",
          "ticks": 3300,
          "time": 38.372093023255815,
          "velocity": 0.4094488188976378
        },
        {
          "duration": 0.03488372093023173,
          "durationTicks": 3,
          "midi": 54,
          "name": "F#3",
          "ticks": 3307,
          "time": 38.45348837209303,
          "velocity": 0.2204724409448819
        },
        {
          "duration": 0.1046511627906952,
          "durationTicks": 9,
          "midi": 42,
          "name": "F#2",
          "ticks": 3308,
          "time": 38.46511627906977,
          "velocity": 0.3858267716535433
        },
        {
          "duration": 0.03488372093023173,
          "durationTicks": 3,
          "midi": 67,
          "name": "G4",
          "ticks": 3308,
          "time": 38.46511627906977,
          "velocity": 0.09448818897637795
        },
        {
          "duration": 0.16279069767441712,
          "durationTicks": 14,
          "midi": 87,
          "name": "D#6",
          "ticks": 3316,
          "time": 38.55813953488372,
          "velocity": 0.2677165354330709
        },
        {
          "duration": 0.02325581395349019,
          "durationTicks": 2,
          "midi": 56,
          "name": "G#3",
          "ticks": 3317,
          "time": 38.56976744186046,
          "velocity": 0.28346456692913385
        },
        {
          "duration": 0.03488372093023173,
          "durationTicks": 3,
          "midi": 62,
          "name": "D4",
          "ticks": 3317,
          "time": 38.56976744186046,
          "velocity": 0.14173228346456693
        },
        {
          "duration": 0.15116279069767558,
          "durationTicks": 13,
          "midi": 68,
          "name": "G#4",
          "ticks": 3317,
          "time": 38.56976744186046,
          "velocity": 0.41732283464566927
        },
        {
          "duration": 0.15116279069767558,
          "durationTicks": 13,
          "midi": 92,
          "name": "G#6",
          "ticks": 3317,
          "time": 38.56976744186046,
          "velocity": 0.14173228346456693
        },
        {
          "duration": 0.15116279069767558,
          "durationTicks": 13,
          "midi": 96,
          "name": "C7",
          "ticks": 3317,
          "time": 38.56976744186046,
          "velocity": 0.15748031496062992
        },
        {
          "duration": 0.12790697674418539,
          "durationTicks": 11,
          "midi": 102,
          "name": "F#7",
          "ticks": 3317,
          "time": 38.56976744186046,
          "velocity": 0.1889763779527559
        },
        {
          "duration": 0.11627906976743674,
          "durationTicks": 10,
          "midi": 50,
          "name": "D3",
          "ticks": 3318,
          "time": 38.58139534883721,
          "velocity": 0.4094488188976378
        },
        {
          "duration": 0.03488372093023173,
          "durationTicks": 3,
          "midi": 43,
          "name": "G2",
          "ticks": 3319,
          "time": 38.593023255813954,
          "velocity": 0.3937007874015748
        },
        {
          "duration": 0.2325581395348877,
          "durationTicks": 20,
          "midi": 55,
          "name": "G3",
          "ticks": 3320,
          "time": 38.604651162790695,
          "velocity": 0.44881889763779526
        },
        {
          "duration": 0.16279069767442422,
          "durationTicks": 14,
          "midi": 43,
          "name": "G2",
          "ticks": 3323,
          "time": 38.63953488372093,
          "velocity": 0.36220472440944884
        },
        {
          "duration": 0.023255813953483084,
          "durationTicks": 2,
          "midi": 50,
          "name": "D3",
          "ticks": 3329,
          "time": 38.7093023255814,
          "velocity": 0.2755905511811024
        },
        {
          "duration": 0.023255813953483084,
          "durationTicks": 2,
          "midi": 50,
          "name": "D3",
          "ticks": 3334,
          "time": 38.76744186046512,
          "velocity": 0.2440944881889764
        },
        {
          "duration": 0.023255813953483084,
          "durationTicks": 2,
          "midi": 44,
          "name": "G#2",
          "ticks": 3337,
          "time": 38.80232558139535,
          "velocity": 0.3543307086614173
        },
        {
          "duration": 0.03488372093023173,
          "durationTicks": 3,
          "midi": 61,
          "name": "C#4",
          "ticks": 3338,
          "time": 38.81395348837209,
          "velocity": 0.2204724409448819
        },
        {
          "duration": 0.02325581395349019,
          "durationTicks": 2,
          "midi": 68,
          "name": "G#4",
          "ticks": 3338,
          "time": 38.81395348837209,
          "velocity": 0.33858267716535434
        },
        {
          "duration": 0.11627906976744384,
          "durationTicks": 10,
          "midi": 50,
          "name": "D3",
          "ticks": 3339,
          "time": 38.825581395348834,
          "velocity": 0.4251968503937008
        },
        {
          "duration": 0.1279069767441925,
          "durationTicks": 11,
          "midi": 81,
          "name": "A5",
          "ticks": 3339,
          "time": 38.825581395348834,
          "velocity": 0.3228346456692913
        },
        {
          "duration": 0.13953488372093403,
          "durationTicks": 12,
          "midi": 88,
          "name": "E6",
          "ticks": 3339,
          "time": 38.825581395348834,
          "velocity": 0.18110236220472442
        },
        {
          "duration": 0.16279069767441712,
          "durationTicks": 14,
          "midi": 69,
          "name": "A4",
          "ticks": 3340,
          "time": 38.83720930232558,
          "velocity": 0.3937007874015748
        },
        {
          "duration": 0.11627906976744384,
          "durationTicks": 10,
          "midi": 43,
          "name": "G2",
          "ticks": 3341,
          "time": 38.848837209302324,
          "velocity": 0.4094488188976378
        },
        {
          "duration": 0.1046511627906952,
          "durationTicks": 9,
          "midi": 42,
          "name": "F#2",
          "ticks": 3351,
          "time": 38.96511627906977,
          "velocity": 0.3464566929133858
        },
        {
          "duration": 0.02325581395349019,
          "durationTicks": 2,
          "midi": 53,
          "name": "F3",
          "ticks": 3359,
          "time": 39.05813953488372,
          "velocity": 0.41732283464566927
        },
        {
          "duration": 0.1860465116279073,
          "durationTicks": 16,
          "midi": 84,
          "name": "C6",
          "ticks": 3360,
          "time": 39.06976744186046,
          "velocity": 0.2440944881889764
        },
        {
          "duration": 0.058139534883714816,
          "durationTicks": 5,
          "midi": 62,
          "name": "D4",
          "ticks": 3361,
          "time": 39.08139534883721,
          "velocity": 0.18110236220472442
        },
        {
          "duration": 0.06976744186046346,
          "durationTicks": 6,
          "midi": 72,
          "name": "C5",
          "ticks": 3361,
          "time": 39.08139534883721,
          "velocity": 0.3543307086614173
        },
        {
          "duration": 0.058139534883714816,
          "durationTicks": 5,
          "midi": 74,
          "name": "D5",
          "ticks": 3361,
          "time": 39.08139534883721,
          "velocity": 0.18110236220472442
        },
        {
          "duration": 0.11627906976744384,
          "durationTicks": 10,
          "midi": 43,
          "name": "G2",
          "ticks": 3362,
          "time": 39.093023255813954,
          "velocity": 0.41732283464566927
        },
        {
          "duration": 0.06976744186046346,
          "durationTicks": 6,
          "midi": 50,
          "name": "D3",
          "ticks": 3362,
          "time": 39.093023255813954,
          "velocity": 0.4094488188976378
        },
        {
          "duration": 0.11627906976744384,
          "durationTicks": 10,
          "midi": 103,
          "name": "G7",
          "ticks": 3362,
          "time": 39.093023255813954,
          "velocity": 0.12598425196850394
        },
        {
          "duration": 0.02325581395349019,
          "durationTicks": 2,
          "midi": 54,
          "name": "F#3",
          "ticks": 3363,
          "time": 39.104651162790695,
          "velocity": 0.3228346456692913
        },
        {
          "duration": 0.19767441860465595,
          "durationTicks": 17,
          "midi": 72,
          "name": "C5",
          "ticks": 3368,
          "time": 39.16279069767442,
          "velocity": 0.30708661417322836
        },
        {
          "duration": 0.36046511627906597,
          "durationTicks": 31,
          "midi": 55,
          "name": "G3",
          "ticks": 3372,
          "time": 39.2093023255814,
          "velocity": 0.49606299212598426
        },
        {
          "duration": 0.08139534883721211,
          "durationTicks": 7,
          "midi": 74,
          "name": "D5",
          "ticks": 3373,
          "time": 39.22093023255814,
          "velocity": 0.14173228346456693
        },
        {
          "duration": 0.09302325581395365,
          "durationTicks": 8,
          "midi": 43,
          "name": "G2",
          "ticks": 3374,
          "time": 39.23255813953488,
          "velocity": 0.3858267716535433
        },
        {
          "duration": 0.11627906976744384,
          "durationTicks": 10,
          "midi": 50,
          "name": "D3",
          "ticks": 3374,
          "time": 39.23255813953488,
          "velocity": 0.41732283464566927
        },
        {
          "duration": 0.046511627906973274,
          "durationTicks": 4,
          "midi": 50,
          "name": "D3",
          "ticks": 3385,
          "time": 39.36046511627907,
          "velocity": 0.3779527559055118
        },
        {
          "duration": 0.13953488372092693,
          "durationTicks": 12,
          "midi": 69,
          "name": "A4",
          "ticks": 3385,
          "time": 39.36046511627907,
          "velocity": 0.36220472440944884
        },
        {
          "duration": 0.08139534883721211,
          "durationTicks": 7,
          "midi": 43,
          "name": "G2",
          "ticks": 3386,
          "time": 39.372093023255815,
          "velocity": 0.3543307086614173
        },
        {
          "duration": 0.05813953488372192,
          "durationTicks": 5,
          "midi": 88,
          "name": "E6",
          "ticks": 3386,
          "time": 39.372093023255815,
          "velocity": 0.07874015748031496
        },
        {
          "duration": 0.1046511627906952,
          "durationTicks": 9,
          "midi": 93,
          "name": "A6",
          "ticks": 3386,
          "time": 39.372093023255815,
          "velocity": 0.1732283464566929
        },
        {
          "duration": 0.05813953488372192,
          "durationTicks": 5,
          "midi": 100,
          "name": "E7",
          "ticks": 3386,
          "time": 39.372093023255815,
          "velocity": 0.07874015748031496
        },
        {
          "duration": 0.09302325581395365,
          "durationTicks": 8,
          "midi": 103,
          "name": "G7",
          "ticks": 3386,
          "time": 39.372093023255815,
          "velocity": 0.10236220472440945
        },
        {
          "duration": 0.02325581395349019,
          "durationTicks": 2,
          "midi": 50,
          "name": "D3",
          "ticks": 3390,
          "time": 39.41860465116279,
          "velocity": 0.3464566929133858
        },
        {
          "duration": 0.12790697674418539,
          "durationTicks": 11,
          "midi": 62,
          "name": "D4",
          "ticks": 3393,
          "time": 39.45348837209303,
          "velocity": 0.25196850393700787
        },
        {
          "duration": 0.09302325581395365,
          "durationTicks": 8,
          "midi": 43,
          "name": "G2",
          "ticks": 3395,
          "time": 39.47674418604651,
          "velocity": 0.4330708661417323
        },
        {
          "duration": 0.04651162790698038,
          "durationTicks": 4,
          "midi": 42,
          "name": "F#2",
          "ticks": 3403,
          "time": 39.56976744186046,
          "velocity": 0.41732283464566927
        },
        {
          "duration": 0.03488372093023173,
          "durationTicks": 3,
          "midi": 55,
          "name": "G3",
          "ticks": 3404,
          "time": 39.58139534883721,
          "velocity": 0.2204724409448819
        },
        {
          "duration": 0.19767441860464885,
          "durationTicks": 17,
          "midi": 65,
          "name": "F4",
          "ticks": 3407,
          "time": 39.616279069767444,
          "velocity": 0.36220472440944884
        },
        {
          "duration": 0.17441860465115866,
          "durationTicks": 15,
          "midi": 84,
          "name": "C6",
          "ticks": 3407,
          "time": 39.616279069767444,
          "velocity": 0.2992125984251969
        },
        {
          "duration": 0.03488372093023173,
          "durationTicks": 3,
          "midi": 55,
          "name": "G3",
          "ticks": 3410,
          "time": 39.651162790697676,
          "velocity": 0.25984251968503935
        },
        {
          "duration": 0.19767441860464885,
          "durationTicks": 17,
          "midi": 93,
          "name": "A6",
          "ticks": 3410,
          "time": 39.651162790697676,
          "velocity": 0.2677165354330709
        },
        {
          "duration": 0.19767441860465595,
          "durationTicks": 17,
          "midi": 69,
          "name": "A4",
          "ticks": 3411,
          "time": 39.66279069767442,
          "velocity": 0.41732283464566927
        },
        {
          "duration": 0.05813953488372192,
          "durationTicks": 5,
          "midi": 103,
          "name": "G7",
          "ticks": 3411,
          "time": 39.66279069767442,
          "velocity": 0.15748031496062992
        },
        {
          "duration": 0.023255813953483084,
          "durationTicks": 2,
          "midi": 42,
          "name": "F#2",
          "ticks": 3412,
          "time": 39.674418604651166,
          "velocity": 0.25196850393700787
        },
        {
          "duration": 0.046511627906973274,
          "durationTicks": 4,
          "midi": 100,
          "name": "E7",
          "ticks": 3412,
          "time": 39.674418604651166,
          "velocity": 0.11023622047244094
        },
        {
          "duration": 0.13953488372092693,
          "durationTicks": 12,
          "midi": 88,
          "name": "E6",
          "ticks": 3413,
          "time": 39.68604651162791,
          "velocity": 0.10236220472440945
        },
        {
          "duration": 0.03488372093023173,
          "durationTicks": 3,
          "midi": 44,
          "name": "G#2",
          "ticks": 3414,
          "time": 39.69767441860465,
          "velocity": 0.36220472440944884
        },
        {
          "duration": 0.13953488372093403,
          "durationTicks": 12,
          "midi": 74,
          "name": "D5",
          "ticks": 3414,
          "time": 39.69767441860465,
          "velocity": 0.2440944881889764
        },
        {
          "duration": 0.15116279069767558,
          "durationTicks": 13,
          "midi": 86,
          "name": "D6",
          "ticks": 3414,
          "time": 39.69767441860465,
          "velocity": 0.33070866141732286
        },
        {
          "duration": 0.09302325581395365,
          "durationTicks": 8,
          "midi": 102,
          "name": "F#7",
          "ticks": 3416,
          "time": 39.72093023255814,
          "velocity": 0.08661417322834646
        },
        {
          "duration": 0.2325581395348877,
          "durationTicks": 20,
          "midi": 53,
          "name": "F3",
          "ticks": 3417,
          "time": 39.73255813953488,
          "velocity": 0.3937007874015748
        },
        {
          "duration": 0.2325581395348877,
          "durationTicks": 20,
          "midi": 58,
          "name": "A#3",
          "ticks": 3417,
          "time": 39.73255813953488,
          "velocity": 0.3858267716535433
        },
        {
          "duration": 0.023255813953483084,
          "durationTicks": 2,
          "midi": 42,
          "name": "F#2",
          "ticks": 3420,
          "time": 39.76744186046512,
          "velocity": 0.3464566929133858
        },
        {
          "duration": 0.17441860465116577,
          "durationTicks": 15,
          "midi": 41,
          "name": "F2",
          "ticks": 3422,
          "time": 39.7906976744186,
          "velocity": 0.3700787401574803
        },
        {
          "duration": 0.03488372093023173,
          "durationTicks": 3,
          "midi": 74,
          "name": "D5",
          "ticks": 3428,
          "time": 39.86046511627907,
          "velocity": 0.1968503937007874
        },
        {
          "duration": 0.02325581395349019,
          "durationTicks": 2,
          "midi": 55,
          "name": "G3",
          "ticks": 3437,
          "time": 39.96511627906977,
          "velocity": 0.30708661417322836
        },
        {
          "duration": 0.11627906976744384,
          "durationTicks": 10,
          "midi": 74,
          "name": "D5",
          "ticks": 3437,
          "time": 39.96511627906977,
          "velocity": 0.30708661417322836
        },
        {
          "duration": 0.12790697674418539,
          "durationTicks": 11,
          "midi": 93,
          "name": "A6",
          "ticks": 3437,
          "time": 39.96511627906977,
          "velocity": 0.28346456692913385
        },
        {
          "duration": 0.13953488372092693,
          "durationTicks": 12,
          "midi": 53,
          "name": "F3",
          "ticks": 3439,
          "time": 39.98837209302326,
          "velocity": 0.3228346456692913
        },
        {
          "duration": 0.11627906976743674,
          "durationTicks": 10,
          "midi": 70,
          "name": "A#4",
          "ticks": 3439,
          "time": 39.98837209302326,
          "velocity": 0.2125984251968504
        },
        {
          "duration": 0.046511627906973274,
          "durationTicks": 4,
          "midi": 72,
          "name": "C5",
          "ticks": 3440,
          "time": 40,
          "velocity": 0.14173228346456693
        },
        {
          "duration": 0.16279069767442422,
          "durationTicks": 14,
          "midi": 58,
          "name": "A#3",
          "ticks": 3441,
          "time": 40.01162790697674,
          "velocity": 0.3700787401574803
        },
        {
          "duration": 0.02325581395349019,
          "durationTicks": 2,
          "midi": 46,
          "name": "A#2",
          "ticks": 3444,
          "time": 40.04651162790697,
          "velocity": 0.3464566929133858
        },
        {
          "duration": 0.046511627906973274,
          "durationTicks": 4,
          "midi": 73,
          "name": "C#5",
          "ticks": 3447,
          "time": 40.08139534883721,
          "velocity": 0.1968503937007874
        },
        {
          "duration": 0.02325581395349019,
          "durationTicks": 2,
          "midi": 45,
          "name": "A2",
          "ticks": 3448,
          "time": 40.093023255813954,
          "velocity": 0.36220472440944884
        },
        {
          "duration": 0.03488372093023173,
          "durationTicks": 3,
          "midi": 45,
          "name": "A2",
          "ticks": 3453,
          "time": 40.151162790697676,
          "velocity": 0.30708661417322836
        },
        {
          "duration": 0.02325581395349019,
          "durationTicks": 2,
          "midi": 46,
          "name": "A#2",
          "ticks": 3456,
          "time": 40.18604651162791,
          "velocity": 0.31496062992125984
        },
        {
          "duration": 0.023255813953483084,
          "durationTicks": 2,
          "midi": 45,
          "name": "A2",
          "ticks": 3458,
          "time": 40.2093023255814,
          "velocity": 0.3858267716535433
        },
        {
          "duration": 0.02325581395349019,
          "durationTicks": 2,
          "midi": 60,
          "name": "C4",
          "ticks": 3459,
          "time": 40.22093023255814,
          "velocity": 0.3464566929133858
        },
        {
          "duration": 0.03488372093023173,
          "durationTicks": 3,
          "midi": 77,
          "name": "F5",
          "ticks": 3459,
          "time": 40.22093023255814,
          "velocity": 0.13385826771653545
        },
        {
          "duration": 0.3720930232558146,
          "durationTicks": 32,
          "midi": 58,
          "name": "A#3",
          "ticks": 3461,
          "time": 40.24418604651163,
          "velocity": 0.41732283464566927
        },
        {
          "duration": 0.03488372093023173,
          "durationTicks": 3,
          "midi": 66,
          "name": "F#4",
          "ticks": 3461,
          "time": 40.24418604651163,
          "velocity": 0.08661417322834646
        },
        {
          "duration": 0.36046511627906597,
          "durationTicks": 31,
          "midi": 93,
          "name": "A6",
          "ticks": 3461,
          "time": 40.24418604651163,
          "velocity": 0.25984251968503935
        },
        {
          "duration": 0.02325581395349019,
          "durationTicks": 2,
          "midi": 45,
          "name": "A2",
          "ticks": 3462,
          "time": 40.25581395348837,
          "velocity": 0.33858267716535434
        },
        {
          "duration": 0.1046511627907023,
          "durationTicks": 9,
          "midi": 74,
          "name": "D5",
          "ticks": 3462,
          "time": 40.25581395348837,
          "velocity": 0.2677165354330709
        },
        {
          "duration": 0.12790697674418539,
          "durationTicks": 11,
          "midi": 86,
          "name": "D6",
          "ticks": 3462,
          "time": 40.25581395348837,
          "velocity": 0.2677165354330709
        },
        {
          "duration": 0.02325581395349019,
          "durationTicks": 2,
          "midi": 41,
          "name": "F2",
          "ticks": 3465,
          "time": 40.2906976744186,
          "velocity": 0.4015748031496063
        },
        {
          "duration": 0.03488372093023884,
          "durationTicks": 3,
          "midi": 41,
          "name": "F2",
          "ticks": 3468,
          "time": 40.325581395348834,
          "velocity": 0.3858267716535433
        },
        {
          "duration": 0.046511627906973274,
          "durationTicks": 4,
          "midi": 73,
          "name": "C#5",
          "ticks": 3471,
          "time": 40.36046511627907,
          "velocity": 0.12598425196850394
        },
        {
          "duration": 0.15116279069766847,
          "durationTicks": 13,
          "midi": 81,
          "name": "A5",
          "ticks": 3471,
          "time": 40.36046511627907,
          "velocity": 0.2677165354330709
        },
        {
          "duration": 0.12790697674418539,
          "durationTicks": 11,
          "midi": 88,
          "name": "E6",
          "ticks": 3471,
          "time": 40.36046511627907,
          "velocity": 0.11023622047244094
        },
        {
          "duration": 0.03488372093023173,
          "durationTicks": 3,
          "midi": 54,
          "name": "F#3",
          "ticks": 3472,
          "time": 40.372093023255815,
          "velocity": 0.4645669291338583
        },
        {
          "duration": 0.23255813953488058,
          "durationTicks": 20,
          "midi": 69,
          "name": "A4",
          "ticks": 3472,
          "time": 40.372093023255815,
          "velocity": 0.3937007874015748
        },
        {
          "duration": 0.08139534883721211,
          "durationTicks": 7,
          "midi": 100,
          "name": "E7",
          "ticks": 3472,
          "time": 40.372093023255815,
          "velocity": 0.11023622047244094
        },
        {
          "duration": 0.023255813953483084,
          "durationTicks": 2,
          "midi": 41,
          "name": "F2",
          "ticks": 3474,
          "time": 40.395348837209305,
          "velocity": 0.3858267716535433
        },
        {
          "duration": 0.06976744186046346,
          "durationTicks": 6,
          "midi": 53,
          "name": "F3",
          "ticks": 3475,
          "time": 40.406976744186046,
          "velocity": 0.3937007874015748
        },
        {
          "duration": 0.02325581395349019,
          "durationTicks": 2,
          "midi": 42,
          "name": "F#2",
          "ticks": 3476,
          "time": 40.41860465116279,
          "velocity": 0.4015748031496063
        },
        {
          "duration": 0.023255813953483084,
          "durationTicks": 2,
          "midi": 41,
          "name": "F2",
          "ticks": 3479,
          "time": 40.45348837209303,
          "velocity": 0.3700787401574803
        },
        {
          "duration": 0.11627906976743674,
          "durationTicks": 10,
          "midi": 74,
          "name": "D5",
          "ticks": 3482,
          "time": 40.48837209302326,
          "velocity": 0.2992125984251969
        },
        {
          "duration": 0.02325581395349019,
          "durationTicks": 2,
          "midi": 45,
          "name": "A2",
          "ticks": 3483,
          "time": 40.5,
          "velocity": 0.33070866141732286
        },
        {
          "duration": 0.03488372093023884,
          "durationTicks": 3,
          "midi": 53,
          "name": "F3",
          "ticks": 3487,
          "time": 40.54651162790697,
          "velocity": 0.14173228346456693
        },
        {
          "duration": 0.02325581395349019,
          "durationTicks": 2,
          "midi": 45,
          "name": "A2",
          "ticks": 3488,
          "time": 40.55813953488372,
          "velocity": 0.2677165354330709
        },
        {
          "duration": 0.023255813953483084,
          "durationTicks": 2,
          "midi": 42,
          "name": "F#2",
          "ticks": 3493,
          "time": 40.616279069767444,
          "velocity": 0.2677165354330709
        },
        {
          "duration": 0.023255813953483084,
          "durationTicks": 2,
          "midi": 57,
          "name": "A3",
          "ticks": 3493,
          "time": 40.616279069767444,
          "velocity": 0.3464566929133858
        },
        {
          "duration": 0.02325581395349019,
          "durationTicks": 2,
          "midi": 48,
          "name": "C3",
          "ticks": 3494,
          "time": 40.627906976744185,
          "velocity": 0.3779527559055118
        },
        {
          "duration": 0.22093023255813904,
          "durationTicks": 19,
          "midi": 84,
          "name": "C6",
          "ticks": 3494,
          "time": 40.627906976744185,
          "velocity": 0.25196850393700787
        },
        {
          "duration": 0.19767441860465595,
          "durationTicks": 17,
          "midi": 91,
          "name": "G6",
          "ticks": 3495,
          "time": 40.63953488372093,
          "velocity": 0.36220472440944884
        },
        {
          "duration": 0.24418604651162923,
          "durationTicks": 21,
          "midi": 55,
          "name": "G3",
          "ticks": 3496,
          "time": 40.651162790697676,
          "velocity": 0.4881889763779528
        },
        {
          "duration": 0.16279069767441712,
          "durationTicks": 14,
          "midi": 100,
          "name": "E7",
          "ticks": 3496,
          "time": 40.651162790697676,
          "velocity": 0.1732283464566929
        },
        {
          "duration": 0.03488372093023173,
          "durationTicks": 3,
          "midi": 74,
          "name": "D5",
          "ticks": 3498,
          "time": 40.674418604651166,
          "velocity": 0.07086614173228346
        },
        {
          "duration": 0.02325581395349019,
          "durationTicks": 2,
          "midi": 43,
          "name": "G2",
          "ticks": 3500,
          "time": 40.69767441860465,
          "velocity": 0.2677165354330709
        },
        {
          "duration": 0.12790697674418539,
          "durationTicks": 11,
          "midi": 72,
          "name": "C5",
          "ticks": 3509,
          "time": 40.80232558139535,
          "velocity": 0.3779527559055118
        },
        {
          "duration": 0.04651162790698038,
          "durationTicks": 4,
          "midi": 60,
          "name": "C4",
          "ticks": 3510,
          "time": 40.81395348837209,
          "velocity": 0.11811023622047244
        },
        {
          "duration": 0.03488372093023173,
          "durationTicks": 3,
          "midi": 92,
          "name": "G#6",
          "ticks": 3512,
          "time": 40.83720930232558,
          "velocity": 0.30708661417322836
        },
        {
          "duration": 0.03488372093023173,
          "durationTicks": 3,
          "midi": 97,
          "name": "C#7",
          "ticks": 3512,
          "time": 40.83720930232558,
          "velocity": 0.11811023622047244
        },
        {
          "duration": 0.02325581395349019,
          "durationTicks": 2,
          "midi": 85,
          "name": "C#6",
          "ticks": 3513,
          "time": 40.848837209302324,
          "velocity": 0.25196850393700787
        },
        {
          "duration": 0.02325581395349019,
          "durationTicks": 2,
          "midi": 44,
          "name": "G#2",
          "ticks": 3515,
          "time": 40.872093023255815,
          "velocity": 0.28346456692913385
        },
        {
          "duration": 0.15116279069767558,
          "durationTicks": 13,
          "midi": 91,
          "name": "G6",
          "ticks": 3515,
          "time": 40.872093023255815,
          "velocity": 0.2755905511811024
        },
        {
          "duration": 0.06976744186046346,
          "durationTicks": 6,
          "midi": 60,
          "name": "C4",
          "ticks": 3517,
          "time": 40.895348837209305,
          "velocity": 0.33070866141732286
        },
        {
          "duration": 0.12790697674418539,
          "durationTicks": 11,
          "midi": 55,
          "name": "G3",
          "ticks": 3518,
          "time": 40.906976744186046,
          "velocity": 0.5275590551181102
        },
        {
          "duration": 0.02325581395349019,
          "durationTicks": 2,
          "midi": 43,
          "name": "G2",
          "ticks": 3520,
          "time": 40.93023255813954,
          "velocity": 0.31496062992125984
        },
        {
          "duration": 0.1046511627906952,
          "durationTicks": 9,
          "midi": 72,
          "name": "C5",
          "ticks": 3522,
          "time": 40.95348837209303,
          "velocity": 0.33858267716535434
        },
        {
          "duration": 0.02325581395349019,
          "durationTicks": 2,
          "midi": 42,
          "name": "F#2",
          "ticks": 3527,
          "time": 41.01162790697674,
          "velocity": 0.33858267716535434
        },
        {
          "duration": 0.046511627906973274,
          "durationTicks": 4,
          "midi": 85,
          "name": "C#6",
          "ticks": 3528,
          "time": 41.02325581395349,
          "velocity": 0.1889763779527559
        },
        {
          "duration": 0.046511627906973274,
          "durationTicks": 4,
          "midi": 92,
          "name": "G#6",
          "ticks": 3528,
          "time": 41.02325581395349,
          "velocity": 0.2047244094488189
        },
        {
          "duration": 0.06976744186046346,
          "durationTicks": 6,
          "midi": 41,
          "name": "F2",
          "ticks": 3529,
          "time": 41.03488372093023,
          "velocity": 0.33858267716535434
        },
        {
          "duration": 0.16279069767441712,
          "durationTicks": 14,
          "midi": 72,
          "name": "C5",
          "ticks": 3532,
          "time": 41.06976744186046,
          "velocity": 0.29133858267716534
        },
        {
          "duration": 0.1046511627907023,
          "durationTicks": 9,
          "midi": 91,
          "name": "G6",
          "ticks": 3532,
          "time": 41.06976744186046,
          "velocity": 0.1732283464566929
        },
        {
          "duration": 0.1860465116279073,
          "durationTicks": 16,
          "midi": 55,
          "name": "G3",
          "ticks": 3534,
          "time": 41.093023255813954,
          "velocity": 0.5275590551181102
        },
        {
          "duration": 0.03488372093023173,
          "durationTicks": 3,
          "midi": 45,
          "name": "A2",
          "ticks": 3540,
          "time": 41.16279069767442,
          "velocity": 0.33070866141732286
        },
        {
          "duration": 0.03488372093023173,
          "durationTicks": 3,
          "midi": 62,
          "name": "D4",
          "ticks": 3542,
          "time": 41.18604651162791,
          "velocity": 0.14173228346456693
        },
        {
          "duration": 0.03488372093023173,
          "durationTicks": 3,
          "midi": 91,
          "name": "G6",
          "ticks": 3542,
          "time": 41.18604651162791,
          "velocity": 0.08661417322834646
        },
        {
          "duration": 0.05813953488372192,
          "durationTicks": 5,
          "midi": 71,
          "name": "B4",
          "ticks": 3545,
          "time": 41.22093023255814,
          "velocity": 0.15748031496062992
        },
        {
          "duration": 0.03488372093023884,
          "durationTicks": 3,
          "midi": 43,
          "name": "G2",
          "ticks": 3546,
          "time": 41.23255813953488,
          "velocity": 0.3700787401574803
        },
        {
          "duration": 0.02325581395349019,
          "durationTicks": 2,
          "midi": 61,
          "name": "C#4",
          "ticks": 3550,
          "time": 41.27906976744186,
          "velocity": 0.2440944881889764
        },
        {
          "duration": 0.03488372093023173,
          "durationTicks": 3,
          "midi": 42,
          "name": "F#2",
          "ticks": 3551,
          "time": 41.2906976744186,
          "velocity": 0.36220472440944884
        },
        {
          "duration": 0.12790697674418539,
          "durationTicks": 11,
          "midi": 55,
          "name": "G3",
          "ticks": 3551,
          "time": 41.2906976744186,
          "velocity": 0.5039370078740157
        },
        {
          "duration": 0.04651162790698038,
          "durationTicks": 4,
          "midi": 74,
          "name": "D5",
          "ticks": 3551,
          "time": 41.2906976744186,
          "velocity": 0.09448818897637795
        },
        {
          "duration": 0.081395348837205,
          "durationTicks": 7,
          "midi": 60,
          "name": "C4",
          "ticks": 3552,
          "time": 41.30232558139535,
          "velocity": 0.25196850393700787
        },
        {
          "duration": 0.03488372093023173,
          "durationTicks": 3,
          "midi": 48,
          "name": "C3",
          "ticks": 3553,
          "time": 41.31395348837209,
          "velocity": 0.33858267716535434
        },
        {
          "duration": 0.02325581395349019,
          "durationTicks": 2,
          "midi": 42,
          "name": "F#2",
          "ticks": 3555,
          "time": 41.33720930232558,
          "velocity": 0.29133858267716534
        },
        {
          "duration": 0.058139534883714816,
          "durationTicks": 5,
          "midi": 48,
          "name": "C3",
          "ticks": 3557,
          "time": 41.36046511627907,
          "velocity": 0.3228346456692913
        },
        {
          "duration": 0.02325581395349019,
          "durationTicks": 2,
          "midi": 61,
          "name": "C#4",
          "ticks": 3559,
          "time": 41.383720930232556,
          "velocity": 0.25984251968503935
        },
        {
          "duration": 0.04651162790698038,
          "durationTicks": 4,
          "midi": 74,
          "name": "D5",
          "ticks": 3562,
          "time": 41.41860465116279,
          "velocity": 0.10236220472440945
        },
        {
          "duration": 0.081395348837205,
          "durationTicks": 7,
          "midi": 55,
          "name": "G3",
          "ticks": 3563,
          "time": 41.43023255813954,
          "velocity": 0.5118110236220472
        },
        {
          "duration": 0.046511627906973274,
          "durationTicks": 4,
          "midi": 60,
          "name": "C4",
          "ticks": 3565,
          "time": 41.45348837209303,
          "velocity": 0.1732283464566929
        },
        {
          "duration": 0.08139534883721211,
          "durationTicks": 7,
          "midi": 74,
          "name": "D5",
          "ticks": 3570,
          "time": 41.51162790697674,
          "velocity": 0.25984251968503935
        },
        {
          "duration": 0.15116279069767558,
          "durationTicks": 13,
          "midi": 78,
          "name": "F#5",
          "ticks": 3570,
          "time": 41.51162790697674,
          "velocity": 0.2047244094488189
        },
        {
          "duration": 0.03488372093023173,
          "durationTicks": 3,
          "midi": 62,
          "name": "D4",
          "ticks": 3571,
          "time": 41.52325581395349,
          "velocity": 0.3228346456692913
        },
        {
          "duration": 0.43023255813953654,
          "durationTicks": 37,
          "midi": 69,
          "name": "A4",
          "ticks": 3571,
          "time": 41.52325581395349,
          "velocity": 0.33858267716535434
        },
        {
          "duration": 0.11627906976744384,
          "durationTicks": 10,
          "midi": 55,
          "name": "G3",
          "ticks": 3573,
          "time": 41.54651162790697,
          "velocity": 0.48031496062992124
        },
        {
          "duration": 0.03488372093023884,
          "durationTicks": 3,
          "midi": 71,
          "name": "B4",
          "ticks": 3573,
          "time": 41.54651162790697,
          "velocity": 0.1968503937007874
        },
        {
          "duration": 0.02325581395349019,
          "durationTicks": 2,
          "midi": 62,
          "name": "D4",
          "ticks": 3575,
          "time": 41.56976744186046,
          "velocity": 0.33070866141732286
        },
        {
          "duration": 0.03488372093023173,
          "durationTicks": 3,
          "midi": 79,
          "name": "G5",
          "ticks": 3575,
          "time": 41.56976744186046,
          "velocity": 0.11811023622047244
        },
        {
          "duration": 0.023255813953483084,
          "durationTicks": 2,
          "midi": 72,
          "name": "C5",
          "ticks": 3576,
          "time": 41.58139534883721,
          "velocity": 0.28346456692913385
        },
        {
          "duration": 0.02325581395349019,
          "durationTicks": 2,
          "midi": 42,
          "name": "F#2",
          "ticks": 3577,
          "time": 41.593023255813954,
          "velocity": 0.3228346456692913
        },
        {
          "duration": 0.02325581395349019,
          "durationTicks": 2,
          "midi": 60,
          "name": "C4",
          "ticks": 3577,
          "time": 41.593023255813954,
          "velocity": 0.3858267716535433
        },
        {
          "duration": 0.03488372093023173,
          "durationTicks": 3,
          "midi": 74,
          "name": "D5",
          "ticks": 3579,
          "time": 41.616279069767444,
          "velocity": 0.31496062992125984
        },
        {
          "duration": 0.02325581395349019,
          "durationTicks": 2,
          "midi": 43,
          "name": "G2",
          "ticks": 3580,
          "time": 41.627906976744185,
          "velocity": 0.4015748031496063
        },
        {
          "duration": 0.03488372093023173,
          "durationTicks": 3,
          "midi": 64,
          "name": "E4",
          "ticks": 3582,
          "time": 41.651162790697676,
          "velocity": 0.3937007874015748
        },
        {
          "duration": 0.02325581395349019,
          "durationTicks": 2,
          "midi": 43,
          "name": "G2",
          "ticks": 3583,
          "time": 41.66279069767442,
          "velocity": 0.3464566929133858
        },
        {
          "duration": 0.6627906976744171,
          "durationTicks": 57,
          "midi": 74,
          "name": "D5",
          "ticks": 3583,
          "time": 41.66279069767442,
          "velocity": 0.2440944881889764
        },
        {
          "duration": 0.12790697674418539,
          "durationTicks": 11,
          "midi": 50,
          "name": "D3",
          "ticks": 3584,
          "time": 41.674418604651166,
          "velocity": 0.3543307086614173
        },
        {
          "duration": 0.03488372093023173,
          "durationTicks": 3,
          "midi": 98,
          "name": "D7",
          "ticks": 3584,
          "time": 41.674418604651166,
          "velocity": 0.2047244094488189
        },
        {
          "duration": 0.03488372093023173,
          "durationTicks": 3,
          "midi": 55,
          "name": "G3",
          "ticks": 3585,
          "time": 41.68604651162791,
          "velocity": 0.2440944881889764
        },
        {
          "duration": 0.08139534883721211,
          "durationTicks": 7,
          "midi": 65,
          "name": "F4",
          "ticks": 3585,
          "time": 41.68604651162791,
          "velocity": 0.36220472440944884
        },
        {
          "duration": 0.02325581395349019,
          "durationTicks": 2,
          "midi": 41,
          "name": "F2",
          "ticks": 3586,
          "time": 41.69767441860465,
          "velocity": 0.25984251968503935
        },
        {
          "duration": 0.046511627906973274,
          "durationTicks": 4,
          "midi": 41,
          "name": "F2",
          "ticks": 3593,
          "time": 41.77906976744186,
          "velocity": 0.3464566929133858
        },
        {
          "duration": 0.23255813953488058,
          "durationTicks": 20,
          "midi": 57,
          "name": "A3",
          "ticks": 3596,
          "time": 41.81395348837209,
          "velocity": 0.47244094488188976
        },
        {
          "duration": 0.22093023255813904,
          "durationTicks": 19,
          "midi": 65,
          "name": "F4",
          "ticks": 3596,
          "time": 41.81395348837209,
          "velocity": 0.3779527559055118
        },
        {
          "duration": 0.25581395348837077,
          "durationTicks": 22,
          "midi": 93,
          "name": "A6",
          "ticks": 3596,
          "time": 41.81395348837209,
          "velocity": 0.12598425196850394
        },
        {
          "duration": 0.15116279069767558,
          "durationTicks": 13,
          "midi": 50,
          "name": "D3",
          "ticks": 3597,
          "time": 41.825581395348834,
          "velocity": 0.4330708661417323
        },
        {
          "duration": 0.2325581395348877,
          "durationTicks": 20,
          "midi": 103,
          "name": "G7",
          "ticks": 3597,
          "time": 41.825581395348834,
          "velocity": 0.1889763779527559
        },
        {
          "duration": 0.22093023255813904,
          "durationTicks": 19,
          "midi": 88,
          "name": "E6",
          "ticks": 3598,
          "time": 41.83720930232558,
          "velocity": 0.2283464566929134
        },
        {
          "duration": 0.11627906976743674,
          "durationTicks": 10,
          "midi": 97,
          "name": "C#7",
          "ticks": 3606,
          "time": 41.93023255813954,
          "velocity": 0.09448818897637795
        },
        {
          "duration": 0.06976744186046346,
          "durationTicks": 6,
          "midi": 50,
          "name": "D3",
          "ticks": 3611,
          "time": 41.98837209302326,
          "velocity": 0.4015748031496063
        },
        {
          "duration": 0.02325581395349019,
          "durationTicks": 2,
          "midi": 45,
          "name": "A2",
          "ticks": 3617,
          "time": 42.05813953488372,
          "velocity": 0.4094488188976378
        },
        {
          "duration": 0.02325581395349019,
          "durationTicks": 2,
          "midi": 57,
          "name": "A3",
          "ticks": 3617,
          "time": 42.05813953488372,
          "velocity": 0.4645669291338583
        },
        {
          "duration": 0.2906976744186025,
          "durationTicks": 25,
          "midi": 77,
          "name": "F5",
          "ticks": 3617,
          "time": 42.05813953488372,
          "velocity": 0.30708661417322836
        },
        {
          "duration": 0.1046511627906952,
          "durationTicks": 9,
          "midi": 84,
          "name": "C6",
          "ticks": 3617,
          "time": 42.05813953488372,
          "velocity": 0.08661417322834646
        },
        {
          "duration": 0.12790697674418539,
          "durationTicks": 11,
          "midi": 65,
          "name": "F4",
          "ticks": 3618,
          "time": 42.06976744186046,
          "velocity": 0.3937007874015748
        },
        {
          "duration": 0.03488372093023173,
          "durationTicks": 3,
          "midi": 71,
          "name": "B4",
          "ticks": 3618,
          "time": 42.06976744186046,
          "velocity": 0.1889763779527559
        },
        {
          "duration": 0.023255813953483084,
          "durationTicks": 2,
          "midi": 44,
          "name": "G#2",
          "ticks": 3619,
          "time": 42.08139534883721,
          "velocity": 0.3779527559055118
        },
        {
          "duration": 0.023255813953483084,
          "durationTicks": 2,
          "midi": 56,
          "name": "G#3",
          "ticks": 3619,
          "time": 42.08139534883721,
          "velocity": 0.4566929133858268
        },
        {
          "duration": 0.12790697674418539,
          "durationTicks": 11,
          "midi": 57,
          "name": "A3",
          "ticks": 3620,
          "time": 42.093023255813954,
          "velocity": 0.4330708661417323
        },
        {
          "duration": 0.02325581395349019,
          "durationTicks": 2,
          "midi": 62,
          "name": "D4",
          "ticks": 3620,
          "time": 42.093023255813954,
          "velocity": 0.25196850393700787
        },
        {
          "duration": 0.11627906976744384,
          "durationTicks": 10,
          "midi": 88,
          "name": "E6",
          "ticks": 3620,
          "time": 42.093023255813954,
          "velocity": 0.16535433070866143
        },
        {
          "duration": 0.05813953488372192,
          "durationTicks": 5,
          "midi": 45,
          "name": "A2",
          "ticks": 3623,
          "time": 42.127906976744185,
          "velocity": 0.33858267716535434
        },
        {
          "duration": 0.06976744186046346,
          "durationTicks": 6,
          "midi": 62,
          "name": "D4",
          "ticks": 3623,
          "time": 42.127906976744185,
          "velocity": 0.2755905511811024
        },
        {
          "duration": 0.02325581395349019,
          "durationTicks": 2,
          "midi": 53,
          "name": "F3",
          "ticks": 3631,
          "time": 42.22093023255814,
          "velocity": 0.33858267716535434
        },
        {
          "duration": 0.13953488372093403,
          "durationTicks": 12,
          "midi": 65,
          "name": "F4",
          "ticks": 3631,
          "time": 42.22093023255814,
          "velocity": 0.3779527559055118
        },
        {
          "duration": 0.1046511627906952,
          "durationTicks": 9,
          "midi": 96,
          "name": "C7",
          "ticks": 3631,
          "time": 42.22093023255814,
          "velocity": 0.07086614173228346
        },
        {
          "duration": 0.09302325581395365,
          "durationTicks": 8,
          "midi": 84,
          "name": "C6",
          "ticks": 3632,
          "time": 42.23255813953488,
          "velocity": 0.07086614173228346
        },
        {
          "duration": 0.1046511627907023,
          "durationTicks": 9,
          "midi": 88,
          "name": "E6",
          "ticks": 3632,
          "time": 42.23255813953488,
          "velocity": 0.2047244094488189
        },
        {
          "duration": 0.11627906976744384,
          "durationTicks": 10,
          "midi": 103,
          "name": "G7",
          "ticks": 3632,
          "time": 42.23255813953488,
          "velocity": 0.14960629921259844
        },
        {
          "duration": 0.11627906976744384,
          "durationTicks": 10,
          "midi": 69,
          "name": "A4",
          "ticks": 3633,
          "time": 42.24418604651163,
          "velocity": 0.25196850393700787
        },
        {
          "duration": 0.06976744186046346,
          "durationTicks": 6,
          "midi": 50,
          "name": "D3",
          "ticks": 3634,
          "time": 42.25581395348837,
          "velocity": 0.2283464566929134
        },
        {
          "duration": 0.13953488372093403,
          "durationTicks": 12,
          "midi": 57,
          "name": "A3",
          "ticks": 3639,
          "time": 42.31395348837209,
          "velocity": 0.4251968503937008
        },
        {
          "duration": 0.02325581395349019,
          "durationTicks": 2,
          "midi": 44,
          "name": "G#2",
          "ticks": 3641,
          "time": 42.33720930232558,
          "velocity": 0.4094488188976378
        },
        {
          "duration": 0.09302325581395365,
          "durationTicks": 8,
          "midi": 50,
          "name": "D3",
          "ticks": 3642,
          "time": 42.348837209302324,
          "velocity": 0.3937007874015748
        },
        {
          "duration": 0.09302325581395365,
          "durationTicks": 8,
          "midi": 64,
          "name": "E4",
          "ticks": 3643,
          "time": 42.36046511627907,
          "velocity": 0.1732283464566929
        },
        {
          "duration": 0.6162790697674438,
          "durationTicks": 53,
          "midi": 74,
          "name": "D5",
          "ticks": 3647,
          "time": 42.406976744186046,
          "velocity": 0.29133858267716534
        },
        {
          "duration": 0.03488372093023173,
          "durationTicks": 3,
          "midi": 50,
          "name": "D3",
          "ticks": 3651,
          "time": 42.45348837209303,
          "velocity": 0.44881889763779526
        },
        {
          "duration": 0.046511627906973274,
          "durationTicks": 4,
          "midi": 55,
          "name": "G3",
          "ticks": 3651,
          "time": 42.45348837209303,
          "velocity": 0.4015748031496063
        },
        {
          "duration": 0.023255813953483084,
          "durationTicks": 2,
          "midi": 60,
          "name": "C4",
          "ticks": 3651,
          "time": 42.45348837209303,
          "velocity": 0.2440944881889764
        },
        {
          "duration": 0.13953488372092693,
          "durationTicks": 12,
          "midi": 65,
          "name": "F4",
          "ticks": 3651,
          "time": 42.45348837209303,
          "velocity": 0.3779527559055118
        },
        {
          "duration": 0.03488372093023173,
          "durationTicks": 3,
          "midi": 71,
          "name": "B4",
          "ticks": 3652,
          "time": 42.46511627906977,
          "velocity": 0.08661417322834646
        },
        {
          "duration": 0.15116279069767558,
          "durationTicks": 13,
          "midi": 69,
          "name": "A4",
          "ticks": 3653,
          "time": 42.47674418604651,
          "velocity": 0.30708661417322836
        },
        {
          "duration": 0.03488372093023173,
          "durationTicks": 3,
          "midi": 45,
          "name": "A2",
          "ticks": 3654,
          "time": 42.48837209302326,
          "velocity": 0.4251968503937008
        },
        {
          "duration": 0.1046511627906952,
          "durationTicks": 9,
          "midi": 88,
          "name": "E6",
          "ticks": 3654,
          "time": 42.48837209302326,
          "velocity": 0.2283464566929134
        },
        {
          "duration": 0.1046511627906952,
          "durationTicks": 9,
          "midi": 103,
          "name": "G7",
          "ticks": 3654,
          "time": 42.48837209302326,
          "velocity": 0.15748031496062992
        },
        {
          "duration": 0.046511627906973274,
          "durationTicks": 4,
          "midi": 45,
          "name": "A2",
          "ticks": 3660,
          "time": 42.55813953488372,
          "velocity": 0.4015748031496063
        },
        {
          "duration": 0.02325581395349019,
          "durationTicks": 2,
          "midi": 50,
          "name": "D3",
          "ticks": 3660,
          "time": 42.55813953488372,
          "velocity": 0.3543307086614173
        },
        {
          "duration": 0.046511627906973274,
          "durationTicks": 4,
          "midi": 56,
          "name": "G#3",
          "ticks": 3663,
          "time": 42.593023255813954,
          "velocity": 0.2992125984251969
        },
        {
          "duration": 0.03488372093023173,
          "durationTicks": 3,
          "midi": 64,
          "name": "E4",
          "ticks": 3663,
          "time": 42.593023255813954,
          "velocity": 0.33070866141732286
        },
        {
          "duration": 0.046511627906973274,
          "durationTicks": 4,
          "midi": 43,
          "name": "G2",
          "ticks": 3665,
          "time": 42.616279069767444,
          "velocity": 0.36220472440944884
        },
        {
          "duration": 0.046511627906973274,
          "durationTicks": 4,
          "midi": 50,
          "name": "D3",
          "ticks": 3665,
          "time": 42.616279069767444,
          "velocity": 0.2047244094488189
        },
        {
          "duration": 0.09302325581395365,
          "durationTicks": 8,
          "midi": 62,
          "name": "D4",
          "ticks": 3666,
          "time": 42.627906976744185,
          "velocity": 0.2283464566929134
        },
        {
          "duration": 0.06976744186047057,
          "durationTicks": 6,
          "midi": 57,
          "name": "A3",
          "ticks": 3667,
          "time": 42.63953488372093,
          "velocity": 0.2755905511811024
        },
        {
          "duration": 0.03488372093023173,
          "durationTicks": 3,
          "midi": 50,
          "name": "D3",
          "ticks": 3670,
          "time": 42.674418604651166,
          "velocity": 0.25196850393700787
        },
        {
          "duration": 0.13953488372093403,
          "durationTicks": 12,
          "midi": 65,
          "name": "F4",
          "ticks": 3674,
          "time": 42.72093023255814,
          "velocity": 0.3937007874015748
        },
        {
          "duration": 0.08139534883721211,
          "durationTicks": 7,
          "midi": 62,
          "name": "D4",
          "ticks": 3675,
          "time": 42.73255813953488,
          "velocity": 0.3464566929133858
        },
        {
          "duration": 0.081395348837205,
          "durationTicks": 7,
          "midi": 57,
          "name": "A3",
          "ticks": 3676,
          "time": 42.74418604651163,
          "velocity": 0.3779527559055118
        },
        {
          "duration": 0.16279069767441712,
          "durationTicks": 14,
          "midi": 81,
          "name": "A5",
          "ticks": 3676,
          "time": 42.74418604651163,
          "velocity": 0.2677165354330709
        },
        {
          "duration": 0.13953488372092693,
          "durationTicks": 12,
          "midi": 88,
          "name": "E6",
          "ticks": 3676,
          "time": 42.74418604651163,
          "velocity": 0.2283464566929134
        },
        {
          "duration": 0.13953488372092693,
          "durationTicks": 12,
          "midi": 103,
          "name": "G7",
          "ticks": 3676,
          "time": 42.74418604651163,
          "velocity": 0.1732283464566929
        },
        {
          "duration": 0.03488372093023173,
          "durationTicks": 3,
          "midi": 45,
          "name": "A2",
          "ticks": 3677,
          "time": 42.75581395348837,
          "velocity": 0.3700787401574803
        },
        {
          "duration": 0.03488372093023173,
          "durationTicks": 3,
          "midi": 45,
          "name": "A2",
          "ticks": 3681,
          "time": 42.80232558139535,
          "velocity": 0.3228346456692913
        },
        {
          "duration": 0.13953488372093403,
          "durationTicks": 12,
          "midi": 50,
          "name": "D3",
          "ticks": 3683,
          "time": 42.825581395348834,
          "velocity": 0.3543307086614173
        },
        {
          "duration": 0.12790697674418539,
          "durationTicks": 11,
          "midi": 57,
          "name": "A3",
          "ticks": 3684,
          "time": 42.83720930232558,
          "velocity": 0.2283464566929134
        },
        {
          "duration": 0.02325581395349019,
          "durationTicks": 2,
          "midi": 76,
          "name": "E5",
          "ticks": 3695,
          "time": 42.96511627906977,
          "velocity": 0.23622047244094488
        },
        {
          "duration": 0.1860465116279073,
          "durationTicks": 16,
          "midi": 64,
          "name": "E4",
          "ticks": 3696,
          "time": 42.97674418604651,
          "velocity": 0.41732283464566927
        },
        {
          "duration": 0.15116279069767558,
          "durationTicks": 13,
          "midi": 83,
          "name": "B5",
          "ticks": 3696,
          "time": 42.97674418604651,
          "velocity": 0.2440944881889764
        },
        {
          "duration": 0.1046511627906952,
          "durationTicks": 9,
          "midi": 86,
          "name": "D6",
          "ticks": 3697,
          "time": 42.98837209302326,
          "velocity": 0.41732283464566927
        },
        {
          "duration": 0.1046511627906952,
          "durationTicks": 9,
          "midi": 57,
          "name": "A3",
          "ticks": 3698,
          "time": 43,
          "velocity": 0.44881889763779526
        },
        {
          "duration": 0.1046511627906952,
          "durationTicks": 9,
          "midi": 67,
          "name": "G4",
          "ticks": 3698,
          "time": 43,
          "velocity": 0.3228346456692913
        },
        {
          "duration": 0.1046511627907023,
          "durationTicks": 9,
          "midi": 50,
          "name": "D3",
          "ticks": 3699,
          "time": 43.01162790697674,
          "velocity": 0.3464566929133858
        },
        {
          "duration": 0.04651162790698038,
          "durationTicks": 4,
          "midi": 56,
          "name": "G#3",
          "ticks": 3709,
          "time": 43.127906976744185,
          "velocity": 0.2440944881889764
        },
        {
          "duration": 0.05813953488372192,
          "durationTicks": 5,
          "midi": 42,
          "name": "F#2",
          "ticks": 3710,
          "time": 43.13953488372093,
          "velocity": 0.29133858267716534
        },
        {
          "duration": 0.1046511627907023,
          "durationTicks": 9,
          "midi": 69,
          "name": "A4",
          "ticks": 3710,
          "time": 43.13953488372093,
          "velocity": 0.11023622047244094
        },
        {
          "duration": 0.08139534883721211,
          "durationTicks": 7,
          "midi": 74,
          "name": "D5",
          "ticks": 3710,
          "time": 43.13953488372093,
          "velocity": 0.10236220472440945
        },
        {
          "duration": 0.05813953488372192,
          "durationTicks": 5,
          "midi": 50,
          "name": "D3",
          "ticks": 3712,
          "time": 43.16279069767442,
          "velocity": 0.18110236220472442
        },
        {
          "duration": 0.06976744186046346,
          "durationTicks": 6,
          "midi": 62,
          "name": "D4",
          "ticks": 3712,
          "time": 43.16279069767442,
          "velocity": 0.3543307086614173
        },
        {
          "duration": 0.046511627906973274,
          "durationTicks": 4,
          "midi": 57,
          "name": "A3",
          "ticks": 3713,
          "time": 43.174418604651166,
          "velocity": 0.11811023622047244
        },
        {
          "duration": 0.2325581395348877,
          "durationTicks": 20,
          "midi": 76,
          "name": "E5",
          "ticks": 3717,
          "time": 43.22093023255814,
          "velocity": 0.2125984251968504
        },
        {
          "duration": 0.24418604651162923,
          "durationTicks": 21,
          "midi": 83,
          "name": "B5",
          "ticks": 3717,
          "time": 43.22093023255814,
          "velocity": 0.2755905511811024
        },
        {
          "duration": 0.02325581395349019,
          "durationTicks": 2,
          "midi": 55,
          "name": "G3",
          "ticks": 3718,
          "time": 43.23255813953488,
          "velocity": 0.29133858267716534
        },
        {
          "duration": 0.2325581395348877,
          "durationTicks": 20,
          "midi": 64,
          "name": "E4",
          "ticks": 3718,
          "time": 43.23255813953488,
          "velocity": 0.4566929133858268
        },
        {
          "duration": 0.1046511627906952,
          "durationTicks": 9,
          "midi": 74,
          "name": "D5",
          "ticks": 3719,
          "time": 43.24418604651163,
          "velocity": 0.2204724409448819
        },
        {
          "duration": 0.22093023255813904,
          "durationTicks": 19,
          "midi": 86,
          "name": "D6",
          "ticks": 3719,
          "time": 43.24418604651163,
          "velocity": 0.4251968503937008
        },
        {
          "duration": 0.19767441860465595,
          "durationTicks": 17,
          "midi": 67,
          "name": "G4",
          "ticks": 3720,
          "time": 43.25581395348837,
          "velocity": 0.31496062992125984
        },
        {
          "duration": 0.03488372093023173,
          "durationTicks": 3,
          "midi": 55,
          "name": "G3",
          "ticks": 3721,
          "time": 43.26744186046512,
          "velocity": 0.3858267716535433
        },
        {
          "duration": 0.06976744186046346,
          "durationTicks": 6,
          "midi": 57,
          "name": "A3",
          "ticks": 3724,
          "time": 43.30232558139535,
          "velocity": 0.3543307086614173
        },
        {
          "duration": 0.02325581395349019,
          "durationTicks": 2,
          "midi": 45,
          "name": "A2",
          "ticks": 3727,
          "time": 43.33720930232558,
          "velocity": 0.28346456692913385
        },
        {
          "duration": 0.02325581395349019,
          "durationTicks": 2,
          "midi": 50,
          "name": "D3",
          "ticks": 3727,
          "time": 43.33720930232558,
          "velocity": 0.25984251968503935
        },
        {
          "duration": 0.02325581395349019,
          "durationTicks": 2,
          "midi": 55,
          "name": "G3",
          "ticks": 3730,
          "time": 43.372093023255815,
          "velocity": 0.2677165354330709
        },
        {
          "duration": 0.06976744186047057,
          "durationTicks": 6,
          "midi": 74,
          "name": "D5",
          "ticks": 3731,
          "time": 43.383720930232556,
          "velocity": 0.08661417322834646
        },
        {
          "duration": 0.046511627906973274,
          "durationTicks": 4,
          "midi": 50,
          "name": "D3",
          "ticks": 3732,
          "time": 43.395348837209305,
          "velocity": 0.3779527559055118
        },
        {
          "duration": 0.06976744186047057,
          "durationTicks": 6,
          "midi": 57,
          "name": "A3",
          "ticks": 3734,
          "time": 43.41860465116279,
          "velocity": 0.1968503937007874
        },
        {
          "duration": 0.02325581395349019,
          "durationTicks": 2,
          "midi": 63,
          "name": "D#4",
          "ticks": 3738,
          "time": 43.46511627906977,
          "velocity": 0.33070866141732286
        },
        {
          "duration": 0.13953488372092693,
          "durationTicks": 12,
          "midi": 74,
          "name": "D5",
          "ticks": 3738,
          "time": 43.46511627906977,
          "velocity": 0.31496062992125984
        },
        {
          "duration": 0.04651162790698038,
          "durationTicks": 4,
          "midi": 50,
          "name": "D3",
          "ticks": 3739,
          "time": 43.47674418604651,
          "velocity": 0.3779527559055118
        },
        {
          "duration": 0.02325581395349019,
          "durationTicks": 2,
          "midi": 45,
          "name": "A2",
          "ticks": 3741,
          "time": 43.5,
          "velocity": 0.33858267716535434
        },
        {
          "duration": 0.02325581395349019,
          "durationTicks": 2,
          "midi": 61,
          "name": "C#4",
          "ticks": 3741,
          "time": 43.5,
          "velocity": 0.4015748031496063
        },
        {
          "duration": 0.03488372093023173,
          "durationTicks": 3,
          "midi": 71,
          "name": "B4",
          "ticks": 3741,
          "time": 43.5,
          "velocity": 0.14960629921259844
        },
        {
          "duration": 0.046511627906973274,
          "durationTicks": 4,
          "midi": 57,
          "name": "A3",
          "ticks": 3743,
          "time": 43.52325581395349,
          "velocity": 0.4094488188976378
        },
        {
          "duration": 0.04651162790698038,
          "durationTicks": 4,
          "midi": 50,
          "name": "D3",
          "ticks": 3744,
          "time": 43.53488372093023,
          "velocity": 0.3858267716535433
        },
        {
          "duration": 0.02325581395349019,
          "durationTicks": 2,
          "midi": 45,
          "name": "A2",
          "ticks": 3746,
          "time": 43.55813953488372,
          "velocity": 0.36220472440944884
        },
        {
          "duration": 0.046511627906973274,
          "durationTicks": 4,
          "midi": 64,
          "name": "E4",
          "ticks": 3748,
          "time": 43.58139534883721,
          "velocity": 0.1732283464566929
        },
        {
          "duration": 0.02325581395349019,
          "durationTicks": 2,
          "midi": 58,
          "name": "A#3",
          "ticks": 3750,
          "time": 43.604651162790695,
          "velocity": 0.2677165354330709
        },
        {
          "duration": 0.02325581395349019,
          "durationTicks": 2,
          "midi": 51,
          "name": "D#3",
          "ticks": 3752,
          "time": 43.627906976744185,
          "velocity": 0.3858267716535433
        },
        {
          "duration": 0.03488372093023173,
          "durationTicks": 3,
          "midi": 61,
          "name": "C#4",
          "ticks": 3752,
          "time": 43.627906976744185,
          "velocity": 0.3858267716535433
        },
        {
          "duration": 0.8255813953488413,
          "durationTicks": 71,
          "midi": 74,
          "name": "D5",
          "ticks": 3752,
          "time": 43.627906976744185,
          "velocity": 0.3858267716535433
        },
        {
          "duration": 0.05813953488372192,
          "durationTicks": 5,
          "midi": 81,
          "name": "A5",
          "ticks": 3752,
          "time": 43.627906976744185,
          "velocity": 0.1889763779527559
        },
        {
          "duration": 0.418604651162795,
          "durationTicks": 36,
          "midi": 69,
          "name": "A4",
          "ticks": 3753,
          "time": 43.63953488372093,
          "velocity": 0.33858267716535434
        },
        {
          "duration": 0.08139534883721211,
          "durationTicks": 7,
          "midi": 78,
          "name": "F#5",
          "ticks": 3753,
          "time": 43.63953488372093,
          "velocity": 0.14960629921259844
        },
        {
          "duration": 0.25581395348837077,
          "durationTicks": 22,
          "midi": 50,
          "name": "D3",
          "ticks": 3754,
          "time": 43.651162790697676,
          "velocity": 0.47244094488188976
        },
        {
          "duration": 0.12790697674418539,
          "durationTicks": 11,
          "midi": 57,
          "name": "A3",
          "ticks": 3755,
          "time": 43.66279069767442,
          "velocity": 0.4330708661417323
        },
        {
          "duration": 0.03488372093023173,
          "durationTicks": 3,
          "midi": 76,
          "name": "E5",
          "ticks": 3758,
          "time": 43.69767441860465,
          "velocity": 0.1968503937007874
        },
        {
          "duration": 0.023255813953483084,
          "durationTicks": 2,
          "midi": 64,
          "name": "E4",
          "ticks": 3759,
          "time": 43.7093023255814,
          "velocity": 0.33858267716535434
        },
        {
          "duration": 0.13953488372093403,
          "durationTicks": 12,
          "midi": 65,
          "name": "F4",
          "ticks": 3761,
          "time": 43.73255813953488,
          "velocity": 0.3228346456692913
        },
        {
          "duration": 0.03488372093023173,
          "durationTicks": 3,
          "midi": 93,
          "name": "A6",
          "ticks": 3764,
          "time": 43.76744186046512,
          "velocity": 0.07874015748031496
        },
        {
          "duration": 0.04651162790698038,
          "durationTicks": 4,
          "midi": 42,
          "name": "F#2",
          "ticks": 3766,
          "time": 43.7906976744186,
          "velocity": 0.2047244094488189
        },
        {
          "duration": 0.04651162790698038,
          "durationTicks": 4,
          "midi": 56,
          "name": "G#3",
          "ticks": 3766,
          "time": 43.7906976744186,
          "velocity": 0.2992125984251969
        },
        {
          "duration": 0.02325581395349019,
          "durationTicks": 2,
          "midi": 55,
          "name": "G3",
          "ticks": 3770,
          "time": 43.83720930232558,
          "velocity": 0.25196850393700787
        },
        {
          "duration": 0.13953488372092693,
          "durationTicks": 12,
          "midi": 84,
          "name": "C6",
          "ticks": 3775,
          "time": 43.895348837209305,
          "velocity": 0.08661417322834646
        },
        {
          "duration": 0.22093023255813904,
          "durationTicks": 19,
          "midi": 65,
          "name": "F4",
          "ticks": 3776,
          "time": 43.906976744186046,
          "velocity": 0.3700787401574803
        },
        {
          "duration": 0.2325581395348877,
          "durationTicks": 20,
          "midi": 55,
          "name": "G3",
          "ticks": 3777,
          "time": 43.91860465116279,
          "velocity": 0.48031496062992124
        },
        {
          "duration": 0.02325581395349019,
          "durationTicks": 2,
          "midi": 62,
          "name": "D4",
          "ticks": 3777,
          "time": 43.91860465116279,
          "velocity": 0.2755905511811024
        },
        {
          "duration": 0.2093023255813975,
          "durationTicks": 18,
          "midi": 88,
          "name": "E6",
          "ticks": 3777,
          "time": 43.91860465116279,
          "velocity": 0.2047244094488189
        },
        {
          "duration": 0.02325581395349019,
          "durationTicks": 2,
          "midi": 42,
          "name": "F#2",
          "ticks": 3778,
          "time": 43.93023255813954,
          "velocity": 0.4094488188976378
        },
        {
          "duration": 0.12790697674418539,
          "durationTicks": 11,
          "midi": 103,
          "name": "G7",
          "ticks": 3778,
          "time": 43.93023255813954,
          "velocity": 0.12598425196850394
        },
        {
          "duration": 0.02325581395349019,
          "durationTicks": 2,
          "midi": 62,
          "name": "D4",
          "ticks": 3782,
          "time": 43.97674418604651,
          "velocity": 0.25196850393700787
        },
        {
          "duration": 0.12790697674418539,
          "durationTicks": 11,
          "midi": 62,
          "name": "D4",
          "ticks": 3785,
          "time": 44.01162790697674,
          "velocity": 0.2992125984251969
        },
        {
          "duration": 0.023255813953483084,
          "durationTicks": 2,
          "midi": 49,
          "name": "C#3",
          "ticks": 3786,
          "time": 44.02325581395349,
          "velocity": 0.3937007874015748
        },
        {
          "duration": 0.023255813953483084,
          "durationTicks": 2,
          "midi": 49,
          "name": "C#3",
          "ticks": 3791,
          "time": 44.08139534883721,
          "velocity": 0.41732283464566927
        },
        {
          "duration": 0.4418604651162781,
          "durationTicks": 38,
          "midi": 69,
          "name": "A4",
          "ticks": 3793,
          "time": 44.104651162790695,
          "velocity": 0.33070866141732286
        },
        {
          "duration": 0.03488372093023173,
          "durationTicks": 3,
          "midi": 43,
          "name": "G2",
          "ticks": 3794,
          "time": 44.116279069767444,
          "velocity": 0.3858267716535433
        },
        {
          "duration": 0.02325581395349019,
          "durationTicks": 2,
          "midi": 54,
          "name": "F#3",
          "ticks": 3797,
          "time": 44.151162790697676,
          "velocity": 0.41732283464566927
        },
        {
          "duration": 0.12790697674418539,
          "durationTicks": 11,
          "midi": 65,
          "name": "F4",
          "ticks": 3797,
          "time": 44.151162790697676,
          "velocity": 0.3779527559055118
        },
        {
          "duration": 0.02325581395349019,
          "durationTicks": 2,
          "midi": 43,
          "name": "G2",
          "ticks": 3798,
          "time": 44.16279069767442,
          "velocity": 0.41732283464566927
        },
        {
          "duration": 0.16279069767441712,
          "durationTicks": 14,
          "midi": 55,
          "name": "G3",
          "ticks": 3799,
          "time": 44.174418604651166,
          "velocity": 0.4409448818897638
        },
        {
          "duration": 0.023255813953483084,
          "durationTicks": 2,
          "midi": 59,
          "name": "B3",
          "ticks": 3799,
          "time": 44.174418604651166,
          "velocity": 0.2755905511811024
        },
        {
          "duration": 0.09302325581395365,
          "durationTicks": 8,
          "midi": 84,
          "name": "C6",
          "ticks": 3799,
          "time": 44.174418604651166,
          "velocity": 0.09448818897637795
        },
        {
          "duration": 0.11627906976743674,
          "durationTicks": 10,
          "midi": 88,
          "name": "E6",
          "ticks": 3799,
          "time": 44.174418604651166,
          "velocity": 0.14960629921259844
        },
        {
          "duration": 0.046511627906973274,
          "durationTicks": 4,
          "midi": 103,
          "name": "G7",
          "ticks": 3799,
          "time": 44.174418604651166,
          "velocity": 0.07874015748031496
        },
        {
          "duration": 0.03488372093023173,
          "durationTicks": 3,
          "midi": 42,
          "name": "F#2",
          "ticks": 3800,
          "time": 44.18604651162791,
          "velocity": 0.36220472440944884
        },
        {
          "duration": 0.02325581395349019,
          "durationTicks": 2,
          "midi": 59,
          "name": "B3",
          "ticks": 3808,
          "time": 44.27906976744186,
          "velocity": 0.25984251968503935
        },
        {
          "duration": 0.02325581395349019,
          "durationTicks": 2,
          "midi": 64,
          "name": "E4",
          "ticks": 3808,
          "time": 44.27906976744186,
          "velocity": 0.2283464566929134
        },
        {
          "duration": 0.13953488372092693,
          "durationTicks": 12,
          "midi": 65,
          "name": "F4",
          "ticks": 3810,
          "time": 44.30232558139535,
          "velocity": 0.31496062992125984
        },
        {
          "duration": 0.1046511627906952,
          "durationTicks": 9,
          "midi": 88,
          "name": "E6",
          "ticks": 3811,
          "time": 44.31395348837209,
          "velocity": 0.1732283464566929
        },
        {
          "duration": 0.09302325581395365,
          "durationTicks": 8,
          "midi": 103,
          "name": "G7",
          "ticks": 3812,
          "time": 44.325581395348834,
          "velocity": 0.08661417322834646
        },
        {
          "duration": 0.046511627906973274,
          "durationTicks": 4,
          "midi": 42,
          "name": "F#2",
          "ticks": 3813,
          "time": 44.33720930232558,
          "velocity": 0.30708661417322836
        },
        {
          "duration": 0.02325581395349019,
          "durationTicks": 2,
          "midi": 54,
          "name": "F#3",
          "ticks": 3813,
          "time": 44.33720930232558,
          "velocity": 0.3543307086614173
        },
        {
          "duration": 0.13953488372092693,
          "durationTicks": 12,
          "midi": 62,
          "name": "D4",
          "ticks": 3813,
          "time": 44.33720930232558,
          "velocity": 0.2755905511811024
        },
        {
          "duration": 0.08139534883721211,
          "durationTicks": 7,
          "midi": 50,
          "name": "D3",
          "ticks": 3814,
          "time": 44.348837209302324,
          "velocity": 0.3228346456692913
        },
        {
          "duration": 0.058139534883714816,
          "durationTicks": 5,
          "midi": 55,
          "name": "G3",
          "ticks": 3815,
          "time": 44.36046511627907,
          "velocity": 0.2677165354330709
        },
        {
          "duration": 0.03488372093023884,
          "durationTicks": 3,
          "midi": 43,
          "name": "G2",
          "ticks": 3820,
          "time": 44.41860465116279,
          "velocity": 0.4330708661417323
        },
        {
          "duration": 0.13953488372092693,
          "durationTicks": 12,
          "midi": 55,
          "name": "G3",
          "ticks": 3821,
          "time": 44.43023255813954,
          "velocity": 0.4409448818897638
        },
        {
          "duration": 0.03488372093023173,
          "durationTicks": 3,
          "midi": 42,
          "name": "F#2",
          "ticks": 3823,
          "time": 44.45348837209303,
          "velocity": 0.4015748031496063
        },
        {
          "duration": 0.046511627906973274,
          "durationTicks": 4,
          "midi": 62,
          "name": "D4",
          "ticks": 3826,
          "time": 44.48837209302326,
          "velocity": 0.36220472440944884
        },
        {
          "duration": 0.02325581395349019,
          "durationTicks": 2,
          "midi": 43,
          "name": "G2",
          "ticks": 3828,
          "time": 44.51162790697674,
          "velocity": 0.3464566929133858
        },
        {
          "duration": 0.12790697674418539,
          "durationTicks": 11,
          "midi": 77,
          "name": "F5",
          "ticks": 3829,
          "time": 44.52325581395349,
          "velocity": 0.2125984251968504
        },
        {
          "duration": 0.12790697674418539,
          "durationTicks": 11,
          "midi": 65,
          "name": "F4",
          "ticks": 3830,
          "time": 44.53488372093023,
          "velocity": 0.4094488188976378
        },
        {
          "duration": 0.30232558139535115,
          "durationTicks": 26,
          "midi": 74,
          "name": "D5",
          "ticks": 3830,
          "time": 44.53488372093023,
          "velocity": 0.1732283464566929
        },
        {
          "duration": 0.11627906976744384,
          "durationTicks": 10,
          "midi": 88,
          "name": "E6",
          "ticks": 3831,
          "time": 44.54651162790697,
          "velocity": 0.23622047244094488
        },
        {
          "duration": 0.1046511627906952,
          "durationTicks": 9,
          "midi": 72,
          "name": "C5",
          "ticks": 3832,
          "time": 44.55813953488372,
          "velocity": 0.15748031496062992
        },
        {
          "duration": 0.12790697674418539,
          "durationTicks": 11,
          "midi": 81,
          "name": "A5",
          "ticks": 3832,
          "time": 44.55813953488372,
          "velocity": 0.28346456692913385
        },
        {
          "duration": 0.11627906976744384,
          "durationTicks": 10,
          "midi": 103,
          "name": "G7",
          "ticks": 3832,
          "time": 44.55813953488372,
          "velocity": 0.15748031496062992
        },
        {
          "duration": 0.03488372093023173,
          "durationTicks": 3,
          "midi": 44,
          "name": "G#2",
          "ticks": 3833,
          "time": 44.56976744186046,
          "velocity": 0.4330708661417323
        },
        {
          "duration": 0.08139534883721211,
          "durationTicks": 7,
          "midi": 60,
          "name": "C4",
          "ticks": 3833,
          "time": 44.56976744186046,
          "velocity": 0.3464566929133858
        },
        {
          "duration": 0.1046511627907023,
          "durationTicks": 9,
          "midi": 69,
          "name": "A4",
          "ticks": 3833,
          "time": 44.56976744186046,
          "velocity": 0.2283464566929134
        },
        {
          "duration": 0.1860465116279073,
          "durationTicks": 16,
          "midi": 55,
          "name": "G3",
          "ticks": 3834,
          "time": 44.58139534883721,
          "velocity": 0.5118110236220472
        },
        {
          "duration": 0.02325581395349019,
          "durationTicks": 2,
          "midi": 43,
          "name": "G2",
          "ticks": 3836,
          "time": 44.604651162790695,
          "velocity": 0.2440944881889764
        },
        {
          "duration": 0.03488372093023884,
          "durationTicks": 3,
          "midi": 97,
          "name": "C#7",
          "ticks": 3839,
          "time": 44.63953488372093,
          "velocity": 0.08661417322834646
        },
        {
          "duration": 0.02325581395349019,
          "durationTicks": 2,
          "midi": 43,
          "name": "G2",
          "ticks": 3841,
          "time": 44.66279069767442,
          "velocity": 0.29133858267716534
        },
        {
          "duration": 0.02325581395349019,
          "durationTicks": 2,
          "midi": 64,
          "name": "E4",
          "ticks": 3841,
          "time": 44.66279069767442,
          "velocity": 0.30708661417322836
        },
        {
          "duration": 0.12790697674418539,
          "durationTicks": 11,
          "midi": 62,
          "name": "D4",
          "ticks": 3842,
          "time": 44.674418604651166,
          "velocity": 0.3464566929133858
        },
        {
          "duration": 0.02325581395349019,
          "durationTicks": 2,
          "midi": 43,
          "name": "G2",
          "ticks": 3844,
          "time": 44.69767441860465,
          "velocity": 0.33070866141732286
        },
        {
          "duration": 0.11627906976744384,
          "durationTicks": 10,
          "midi": 69,
          "name": "A4",
          "ticks": 3844,
          "time": 44.69767441860465,
          "velocity": 0.2204724409448819
        },
        {
          "duration": 0.06976744186046346,
          "durationTicks": 6,
          "midi": 50,
          "name": "D3",
          "ticks": 3846,
          "time": 44.72093023255814,
          "velocity": 0.25196850393700787
        },
        {
          "duration": 0.03488372093023884,
          "durationTicks": 3,
          "midi": 41,
          "name": "F2",
          "ticks": 3847,
          "time": 44.73255813953488,
          "velocity": 0.29133858267716534
        },
        {
          "duration": 0.023255813953483084,
          "durationTicks": 2,
          "midi": 42,
          "name": "F#2",
          "ticks": 3850,
          "time": 44.76744186046512,
          "velocity": 0.2440944881889764
        },
        {
          "duration": 0.03488372093023173,
          "durationTicks": 3,
          "midi": 55,
          "name": "G3",
          "ticks": 3851,
          "time": 44.77906976744186,
          "velocity": 0.33858267716535434
        },
        {
          "duration": 0.1860465116279073,
          "durationTicks": 16,
          "midi": 76,
          "name": "E5",
          "ticks": 3852,
          "time": 44.7906976744186,
          "velocity": 0.2125984251968504
        },
        {
          "duration": 0.15116279069767558,
          "durationTicks": 13,
          "midi": 83,
          "name": "B5",
          "ticks": 3853,
          "time": 44.80232558139535,
          "velocity": 0.25984251968503935
        },
        {
          "duration": 0.02325581395349019,
          "durationTicks": 2,
          "midi": 57,
          "name": "A3",
          "ticks": 3854,
          "time": 44.81395348837209,
          "velocity": 0.31496062992125984
        },
        {
          "duration": 0.17441860465116577,
          "durationTicks": 15,
          "midi": 64,
          "name": "E4",
          "ticks": 3854,
          "time": 44.81395348837209,
          "velocity": 0.4015748031496063
        },
        {
          "duration": 0.13953488372093403,
          "durationTicks": 12,
          "midi": 67,
          "name": "G4",
          "ticks": 3854,
          "time": 44.81395348837209,
          "velocity": 0.3228346456692913
        },
        {
          "duration": 0.11627906976744384,
          "durationTicks": 10,
          "midi": 86,
          "name": "D6",
          "ticks": 3854,
          "time": 44.81395348837209,
          "velocity": 0.4015748031496063
        },
        {
          "duration": 0.1046511627907023,
          "durationTicks": 9,
          "midi": 72,
          "name": "C5",
          "ticks": 3855,
          "time": 44.825581395348834,
          "velocity": 0.2677165354330709
        },
        {
          "duration": 0.23255813953488058,
          "durationTicks": 20,
          "midi": 55,
          "name": "G3",
          "ticks": 3856,
          "time": 44.83720930232558,
          "velocity": 0.5118110236220472
        },
        {
          "duration": 0.02325581395349019,
          "durationTicks": 2,
          "midi": 45,
          "name": "A2",
          "ticks": 3857,
          "time": 44.848837209302324,
          "velocity": 0.33070866141732286
        },
        {
          "duration": 0.02325581395349019,
          "durationTicks": 2,
          "midi": 61,
          "name": "C#4",
          "ticks": 3857,
          "time": 44.848837209302324,
          "velocity": 0.2440944881889764
        },
        {
          "duration": 0.06976744186046346,
          "durationTicks": 6,
          "midi": 60,
          "name": "C4",
          "ticks": 3859,
          "time": 44.872093023255815,
          "velocity": 0.2283464566929134
        },
        {
          "duration": 0.19767441860464885,
          "durationTicks": 17,
          "midi": 74,
          "name": "D5",
          "ticks": 3861,
          "time": 44.895348837209305,
          "velocity": 0.12598425196850394
        },
        {
          "duration": 0.32558139534883423,
          "durationTicks": 28,
          "midi": 69,
          "name": "A4",
          "ticks": 3862,
          "time": 44.906976744186046,
          "velocity": 0.31496062992125984
        },
        {
          "duration": 0.06976744186046346,
          "durationTicks": 6,
          "midi": 43,
          "name": "G2",
          "ticks": 3867,
          "time": 44.96511627906977,
          "velocity": 0.3543307086614173
        },
        {
          "duration": 0.02325581395349019,
          "durationTicks": 2,
          "midi": 43,
          "name": "G2",
          "ticks": 3875,
          "time": 45.05813953488372,
          "velocity": 0.31496062992125984
        },
        {
          "duration": 0.03488372093023173,
          "durationTicks": 3,
          "midi": 54,
          "name": "F#3",
          "ticks": 3876,
          "time": 45.06976744186046,
          "velocity": 0.4251968503937008
        },
        {
          "duration": 0.11627906976744384,
          "durationTicks": 10,
          "midi": 65,
          "name": "F4",
          "ticks": 3876,
          "time": 45.06976744186046,
          "velocity": 0.4409448818897638
        },
        {
          "duration": 0.023255813953483084,
          "durationTicks": 2,
          "midi": 59,
          "name": "B3",
          "ticks": 3877,
          "time": 45.08139534883721,
          "velocity": 0.2677165354330709
        },
        {
          "duration": 0.09302325581395365,
          "durationTicks": 8,
          "midi": 93,
          "name": "A6",
          "ticks": 3877,
          "time": 45.08139534883721,
          "velocity": 0.08661417322834646
        },
        {
          "duration": 0.09302325581395365,
          "durationTicks": 8,
          "midi": 72,
          "name": "C5",
          "ticks": 3878,
          "time": 45.093023255813954,
          "velocity": 0.2125984251968504
        },
        {
          "duration": 0.09302325581395365,
          "durationTicks": 8,
          "midi": 88,
          "name": "E6",
          "ticks": 3878,
          "time": 45.093023255813954,
          "velocity": 0.13385826771653545
        },
        {
          "duration": 0.1046511627906952,
          "durationTicks": 9,
          "midi": 97,
          "name": "C#7",
          "ticks": 3878,
          "time": 45.093023255813954,
          "velocity": 0.12598425196850394
        },
        {
          "duration": 0.13953488372093403,
          "durationTicks": 12,
          "midi": 55,
          "name": "G3",
          "ticks": 3879,
          "time": 45.104651162790695,
          "velocity": 0.47244094488188976
        },
        {
          "duration": 0.11627906976744384,
          "durationTicks": 10,
          "midi": 74,
          "name": "D5",
          "ticks": 3879,
          "time": 45.104651162790695,
          "velocity": 0.11811023622047244
        },
        {
          "duration": 0.02325581395349019,
          "durationTicks": 2,
          "midi": 43,
          "name": "G2",
          "ticks": 3881,
          "time": 45.127906976744185,
          "velocity": 0.41732283464566927
        },
        {
          "duration": 0.03488372093023173,
          "durationTicks": 3,
          "midi": 43,
          "name": "G2",
          "ticks": 3884,
          "time": 45.16279069767442,
          "velocity": 0.4251968503937008
        },
        {
          "duration": 0.06976744186046346,
          "durationTicks": 6,
          "midi": 64,
          "name": "E4",
          "ticks": 3886,
          "time": 45.18604651162791,
          "velocity": 0.3700787401574803
        },
        {
          "duration": 0.06976744186047057,
          "durationTicks": 6,
          "midi": 42,
          "name": "F#2",
          "ticks": 3887,
          "time": 45.19767441860465,
          "velocity": 0.3779527559055118
        },
        {
          "duration": 0.03488372093023173,
          "durationTicks": 3,
          "midi": 50,
          "name": "D3",
          "ticks": 3891,
          "time": 45.24418604651163,
          "velocity": 0.16535433070866143
        },
        {
          "duration": 0.04651162790698038,
          "durationTicks": 4,
          "midi": 55,
          "name": "G3",
          "ticks": 3892,
          "time": 45.25581395348837,
          "velocity": 0.11023622047244094
        },
        {
          "duration": 0.12790697674418539,
          "durationTicks": 11,
          "midi": 55,
          "name": "G3",
          "ticks": 3900,
          "time": 45.348837209302324,
          "velocity": 0.44881889763779526
        },
        {
          "duration": 0.16279069767441712,
          "durationTicks": 14,
          "midi": 74,
          "name": "D5",
          "ticks": 3900,
          "time": 45.348837209302324,
          "velocity": 0.3937007874015748
        },
        {
          "duration": 0.16279069767441712,
          "durationTicks": 14,
          "midi": 86,
          "name": "D6",
          "ticks": 3900,
          "time": 45.348837209302324,
          "velocity": 0.41732283464566927
        },
        {
          "duration": 0.12790697674418539,
          "durationTicks": 11,
          "midi": 102,
          "name": "F#7",
          "ticks": 3900,
          "time": 45.348837209302324,
          "velocity": 0.2125984251968504
        },
        {
          "duration": 0.11627906976744384,
          "durationTicks": 10,
          "midi": 93,
          "name": "A6",
          "ticks": 3902,
          "time": 45.372093023255815,
          "velocity": 0.09448818897637795
        },
        {
          "duration": 0.046511627906973274,
          "durationTicks": 4,
          "midi": 72,
          "name": "C5",
          "ticks": 3904,
          "time": 45.395348837209305,
          "velocity": 0.09448818897637795
        },
        {
          "duration": 0.02325581395349019,
          "durationTicks": 2,
          "midi": 43,
          "name": "G2",
          "ticks": 3906,
          "time": 45.41860465116279,
          "velocity": 0.3937007874015748
        },
        {
          "duration": 0.03488372093023173,
          "durationTicks": 3,
          "midi": 44,
          "name": "G#2",
          "ticks": 3910,
          "time": 45.46511627906977,
          "velocity": 0.4015748031496063
        },
        {
          "duration": 0.11627906976744384,
          "durationTicks": 10,
          "midi": 60,
          "name": "C4",
          "ticks": 3911,
          "time": 45.47674418604651,
          "velocity": 0.30708661417322836
        },
        {
          "duration": 0.02325581395349019,
          "durationTicks": 2,
          "midi": 42,
          "name": "F#2",
          "ticks": 3913,
          "time": 45.5,
          "velocity": 0.3858267716535433
        },
        {
          "duration": 0.1860465116279073,
          "durationTicks": 16,
          "midi": 55,
          "name": "G3",
          "ticks": 3913,
          "time": 45.5,
          "velocity": 0.4409448818897638
        },
        {
          "duration": 0.02325581395349019,
          "durationTicks": 2,
          "midi": 43,
          "name": "G2",
          "ticks": 3916,
          "time": 45.53488372093023,
          "velocity": 0.3700787401574803
        },
        {
          "duration": 0.09302325581395365,
          "durationTicks": 8,
          "midi": 69,
          "name": "A4",
          "ticks": 3921,
          "time": 45.593023255813954,
          "velocity": 0.29133858267716534
        },
        {
          "duration": 0.09302325581395365,
          "durationTicks": 8,
          "midi": 97,
          "name": "C#7",
          "ticks": 3921,
          "time": 45.593023255813954,
          "velocity": 0.18110236220472442
        },
        {
          "duration": 0.08139534883721211,
          "durationTicks": 7,
          "midi": 100,
          "name": "E7",
          "ticks": 3921,
          "time": 45.593023255813954,
          "velocity": 0.14960629921259844
        },
        {
          "duration": 0.09302325581395365,
          "durationTicks": 8,
          "midi": 103,
          "name": "G7",
          "ticks": 3921,
          "time": 45.593023255813954,
          "velocity": 0.2283464566929134
        },
        {
          "duration": 0.03488372093023173,
          "durationTicks": 3,
          "midi": 72,
          "name": "C5",
          "ticks": 3922,
          "time": 45.604651162790695,
          "velocity": 0.15748031496062992
        },
        {
          "duration": 0.02325581395349019,
          "durationTicks": 2,
          "midi": 48,
          "name": "C3",
          "ticks": 3925,
          "time": 45.63953488372093,
          "velocity": 0.2992125984251969
        },
        {
          "duration": 0.02325581395349019,
          "durationTicks": 2,
          "midi": 56,
          "name": "G#3",
          "ticks": 3929,
          "time": 45.68604651162791,
          "velocity": 0.2755905511811024
        },
        {
          "duration": 0.02325581395349019,
          "durationTicks": 2,
          "midi": 61,
          "name": "C#4",
          "ticks": 3932,
          "time": 45.72093023255814,
          "velocity": 0.30708661417322836
        },
        {
          "duration": 0.13953488372093403,
          "durationTicks": 12,
          "midi": 67,
          "name": "G4",
          "ticks": 3932,
          "time": 45.72093023255814,
          "velocity": 0.4566929133858268
        },
        {
          "duration": 0.15116279069767558,
          "durationTicks": 13,
          "midi": 86,
          "name": "D6",
          "ticks": 3932,
          "time": 45.72093023255814,
          "velocity": 0.2204724409448819
        },
        {
          "duration": 0.1046511627907023,
          "durationTicks": 9,
          "midi": 95,
          "name": "B6",
          "ticks": 3933,
          "time": 45.73255813953488,
          "velocity": 0.14173228346456693
        },
        {
          "duration": 0.12790697674418539,
          "durationTicks": 11,
          "midi": 55,
          "name": "G3",
          "ticks": 3934,
          "time": 45.74418604651163,
          "velocity": 0.41732283464566927
        },
        {
          "duration": 0.1046511627906952,
          "durationTicks": 9,
          "midi": 60,
          "name": "C4",
          "ticks": 3934,
          "time": 45.74418604651163,
          "velocity": 0.33858267716535434
        },
        {
          "duration": 0.05813953488372192,
          "durationTicks": 5,
          "midi": 101,
          "name": "F7",
          "ticks": 3934,
          "time": 45.74418604651163,
          "velocity": 0.07874015748031496
        },
        {
          "duration": 0.02325581395349019,
          "durationTicks": 2,
          "midi": 43,
          "name": "G2",
          "ticks": 3940,
          "time": 45.81395348837209,
          "velocity": 0.41732283464566927
        },
        {
          "duration": 0.03488372093023173,
          "durationTicks": 3,
          "midi": 59,
          "name": "B3",
          "ticks": 3943,
          "time": 45.848837209302324,
          "velocity": 0.14960629921259844
        },
        {
          "duration": 0.08139534883721211,
          "durationTicks": 7,
          "midi": 55,
          "name": "G3",
          "ticks": 3946,
          "time": 45.883720930232556,
          "velocity": 0.3543307086614173
        },
        {
          "duration": 0.06976744186046346,
          "durationTicks": 6,
          "midi": 43,
          "name": "G2",
          "ticks": 3947,
          "time": 45.895348837209305,
          "velocity": 0.4015748031496063
        },
        {
          "duration": 0.03488372093023173,
          "durationTicks": 3,
          "midi": 44,
          "name": "G#2",
          "ticks": 3953,
          "time": 45.96511627906977,
          "velocity": 0.3937007874015748
        },
        {
          "duration": 0.2906976744186096,
          "durationTicks": 25,
          "midi": 86,
          "name": "D6",
          "ticks": 3954,
          "time": 45.97674418604651,
          "velocity": 0.3779527559055118
        },
        {
          "duration": 0.24418604651162212,
          "durationTicks": 21,
          "midi": 55,
          "name": "G3",
          "ticks": 3955,
          "time": 45.98837209302326,
          "velocity": 0.41732283464566927
        },
        {
          "duration": 0.023255813953483084,
          "durationTicks": 2,
          "midi": 60,
          "name": "C4",
          "ticks": 3955,
          "time": 45.98837209302326,
          "velocity": 0.2992125984251969
        },
        {
          "duration": 0.24418604651162212,
          "durationTicks": 21,
          "midi": 74,
          "name": "D5",
          "ticks": 3955,
          "time": 45.98837209302326,
          "velocity": 0.3543307086614173
        },
        {
          "duration": 0.3604651162790731,
          "durationTicks": 31,
          "midi": 93,
          "name": "A6",
          "ticks": 3956,
          "time": 46,
          "velocity": 0.13385826771653545
        },
        {
          "duration": 0.23255813953488058,
          "durationTicks": 20,
          "midi": 102,
          "name": "F#7",
          "ticks": 3956,
          "time": 46,
          "velocity": 0.11811023622047244
        },
        {
          "duration": 0.02325581395349019,
          "durationTicks": 2,
          "midi": 42,
          "name": "F#2",
          "ticks": 3957,
          "time": 46.01162790697674,
          "velocity": 0.4094488188976378
        },
        {
          "duration": 0.023255813953483084,
          "durationTicks": 2,
          "midi": 59,
          "name": "B3",
          "ticks": 3958,
          "time": 46.02325581395349,
          "velocity": 0.23622047244094488
        },
        {
          "duration": 0.02325581395349019,
          "durationTicks": 2,
          "midi": 43,
          "name": "G2",
          "ticks": 3960,
          "time": 46.04651162790697,
          "velocity": 0.3937007874015748
        },
        {
          "duration": 0.1046511627907023,
          "durationTicks": 9,
          "midi": 66,
          "name": "F#4",
          "ticks": 3960,
          "time": 46.04651162790697,
          "velocity": 0.08661417322834646
        },
        {
          "duration": 0.02325581395349019,
          "durationTicks": 2,
          "midi": 43,
          "name": "G2",
          "ticks": 3967,
          "time": 46.127906976744185,
          "velocity": 0.36220472440944884
        },
        {
          "duration": 0.02325581395349019,
          "durationTicks": 2,
          "midi": 44,
          "name": "G#2",
          "ticks": 3969,
          "time": 46.151162790697676,
          "velocity": 0.4566929133858268
        },
        {
          "duration": 0.023255813953483084,
          "durationTicks": 2,
          "midi": 43,
          "name": "G2",
          "ticks": 3974,
          "time": 46.2093023255814,
          "velocity": 0.36220472440944884
        },
        {
          "duration": 0.02325581395349019,
          "durationTicks": 2,
          "midi": 68,
          "name": "G#4",
          "ticks": 3976,
          "time": 46.23255813953488,
          "velocity": 0.2992125984251969
        },
        {
          "duration": 0.02325581395349019,
          "durationTicks": 2,
          "midi": 73,
          "name": "C#5",
          "ticks": 3976,
          "time": 46.23255813953488,
          "velocity": 0.25196850393700787
        },
        {
          "duration": 0.12790697674418539,
          "durationTicks": 11,
          "midi": 81,
          "name": "A5",
          "ticks": 3977,
          "time": 46.24418604651163,
          "velocity": 0.2125984251968504
        },
        {
          "duration": 0.12790697674418539,
          "durationTicks": 11,
          "midi": 97,
          "name": "C#7",
          "ticks": 3977,
          "time": 46.24418604651163,
          "velocity": 0.25984251968503935
        },
        {
          "duration": 0.09302325581395365,
          "durationTicks": 8,
          "midi": 100,
          "name": "E7",
          "ticks": 3977,
          "time": 46.24418604651163,
          "velocity": 0.10236220472440945
        },
        {
          "duration": 0.11627906976744384,
          "durationTicks": 10,
          "midi": 103,
          "name": "G7",
          "ticks": 3977,
          "time": 46.24418604651163,
          "velocity": 0.1968503937007874
        },
        {
          "duration": 0.02325581395349019,
          "durationTicks": 2,
          "midi": 44,
          "name": "G#2",
          "ticks": 3978,
          "time": 46.25581395348837,
          "velocity": 0.3937007874015748
        },
        {
          "duration": 0.1046511627907023,
          "durationTicks": 9,
          "midi": 55,
          "name": "G3",
          "ticks": 3978,
          "time": 46.25581395348837,
          "velocity": 0.3228346456692913
        },
        {
          "duration": 0.13953488372093403,
          "durationTicks": 12,
          "midi": 69,
          "name": "A4",
          "ticks": 3978,
          "time": 46.25581395348837,
          "velocity": 0.3464566929133858
        },
        {
          "duration": 0.03488372093023173,
          "durationTicks": 3,
          "midi": 83,
          "name": "B5",
          "ticks": 3979,
          "time": 46.26744186046512,
          "velocity": 0.10236220472440945
        },
        {
          "duration": 0.03488372093023173,
          "durationTicks": 3,
          "midi": 62,
          "name": "D4",
          "ticks": 3981,
          "time": 46.2906976744186,
          "velocity": 0.14173228346456693
        },
        {
          "duration": 0.03488372093023173,
          "durationTicks": 3,
          "midi": 66,
          "name": "F#4",
          "ticks": 3982,
          "time": 46.30232558139535,
          "velocity": 0.07086614173228346
        },
        {
          "duration": 0.03488372093023173,
          "durationTicks": 3,
          "midi": 88,
          "name": "E6",
          "ticks": 3985,
          "time": 46.33720930232558,
          "velocity": 0.1968503937007874
        },
        {
          "duration": 0.03488372093023173,
          "durationTicks": 3,
          "midi": 66,
          "name": "F#4",
          "ticks": 3988,
          "time": 46.372093023255815,
          "velocity": 0.18110236220472442
        },
        {
          "duration": 0.1046511627906952,
          "durationTicks": 9,
          "midi": 71,
          "name": "B4",
          "ticks": 3988,
          "time": 46.372093023255815,
          "velocity": 0.3543307086614173
        },
        {
          "duration": 0.02325581395349019,
          "durationTicks": 2,
          "midi": 54,
          "name": "F#3",
          "ticks": 3989,
          "time": 46.383720930232556,
          "velocity": 0.3858267716535433
        },
        {
          "duration": 0.06976744186046346,
          "durationTicks": 6,
          "midi": 59,
          "name": "B3",
          "ticks": 3990,
          "time": 46.395348837209305,
          "velocity": 0.4409448818897638
        },
        {
          "duration": 0.12790697674418539,
          "durationTicks": 11,
          "midi": 55,
          "name": "G3",
          "ticks": 3991,
          "time": 46.406976744186046,
          "velocity": 0.4094488188976378
        },
        {
          "duration": 0.02325581395349019,
          "durationTicks": 2,
          "midi": 48,
          "name": "C3",
          "ticks": 3992,
          "time": 46.41860465116279,
          "velocity": 0.3700787401574803
        },
        {
          "duration": 0.04651162790698038,
          "durationTicks": 4,
          "midi": 59,
          "name": "B3",
          "ticks": 3997,
          "time": 46.47674418604651,
          "velocity": 0.2204724409448819
        },
        {
          "duration": 0.12790697674418539,
          "durationTicks": 11,
          "midi": 67,
          "name": "G4",
          "ticks": 4000,
          "time": 46.51162790697674,
          "velocity": 0.4251968503937008
        },
        {
          "duration": 0.12790697674418539,
          "durationTicks": 11,
          "midi": 86,
          "name": "D6",
          "ticks": 4001,
          "time": 46.52325581395349,
          "velocity": 0.2755905511811024
        },
        {
          "duration": 0.02325581395349019,
          "durationTicks": 2,
          "midi": 44,
          "name": "G#2",
          "ticks": 4002,
          "time": 46.53488372093023,
          "velocity": 0.3858267716535433
        },
        {
          "duration": 0.02325581395349019,
          "durationTicks": 2,
          "midi": 54,
          "name": "F#3",
          "ticks": 4002,
          "time": 46.53488372093023,
          "velocity": 0.23622047244094488
        },
        {
          "duration": 0.04651162790698038,
          "durationTicks": 4,
          "midi": 71,
          "name": "B4",
          "ticks": 4002,
          "time": 46.53488372093023,
          "velocity": 0.2204724409448819
        },
        {
          "duration": 0.05813953488372192,
          "durationTicks": 5,
          "midi": 95,
          "name": "B6",
          "ticks": 4003,
          "time": 46.54651162790697,
          "velocity": 0.07086614173228346
        },
        {
          "duration": 0.046511627906973274,
          "durationTicks": 4,
          "midi": 55,
          "name": "G3",
          "ticks": 4004,
          "time": 46.55813953488372,
          "velocity": 0.2125984251968504
        },
        {
          "duration": 0.03488372093023173,
          "durationTicks": 3,
          "midi": 50,
          "name": "D3",
          "ticks": 4007,
          "time": 46.593023255813954,
          "velocity": 0.2440944881889764
        },
        {
          "duration": 0.03488372093023173,
          "durationTicks": 3,
          "midi": 62,
          "name": "D4",
          "ticks": 4010,
          "time": 46.627906976744185,
          "velocity": 0.2755905511811024
        },
        {
          "duration": 0.02325581395349019,
          "durationTicks": 2,
          "midi": 58,
          "name": "A#3",
          "ticks": 4011,
          "time": 46.63953488372093,
          "velocity": 0.3228346456692913
        },
        {
          "duration": 0.02325581395349019,
          "durationTicks": 2,
          "midi": 66,
          "name": "F#4",
          "ticks": 4011,
          "time": 46.63953488372093,
          "velocity": 0.2283464566929134
        },
        {
          "duration": 0.11627906976744384,
          "durationTicks": 10,
          "midi": 71,
          "name": "B4",
          "ticks": 4011,
          "time": 46.63953488372093,
          "velocity": 0.33858267716535434
        },
        {
          "duration": 0.02325581395349019,
          "durationTicks": 2,
          "midi": 54,
          "name": "F#3",
          "ticks": 4012,
          "time": 46.651162790697676,
          "velocity": 0.4094488188976378
        },
        {
          "duration": 0.06976744186046346,
          "durationTicks": 6,
          "midi": 87,
          "name": "D#6",
          "ticks": 4012,
          "time": 46.651162790697676,
          "velocity": 0.11811023622047244
        },
        {
          "duration": 0.05813953488372192,
          "durationTicks": 5,
          "midi": 59,
          "name": "B3",
          "ticks": 4013,
          "time": 46.66279069767442,
          "velocity": 0.33070866141732286
        },
        {
          "duration": 0.02325581395349019,
          "durationTicks": 2,
          "midi": 63,
          "name": "D#4",
          "ticks": 4013,
          "time": 46.66279069767442,
          "velocity": 0.23622047244094488
        },
        {
          "duration": 0.1046511627906952,
          "durationTicks": 9,
          "midi": 55,
          "name": "G3",
          "ticks": 4014,
          "time": 46.674418604651166,
          "velocity": 0.44881889763779526
        },
        {
          "duration": 0.02325581395349019,
          "durationTicks": 2,
          "midi": 42,
          "name": "F#2",
          "ticks": 4015,
          "time": 46.68604651162791,
          "velocity": 0.3858267716535433
        },
        {
          "duration": 0.02325581395349019,
          "durationTicks": 2,
          "midi": 45,
          "name": "A2",
          "ticks": 4023,
          "time": 46.77906976744186,
          "velocity": 0.3937007874015748
        },
        {
          "duration": 0.1046511627906952,
          "durationTicks": 9,
          "midi": 65,
          "name": "F4",
          "ticks": 4023,
          "time": 46.77906976744186,
          "velocity": 0.4409448818897638
        },
        {
          "duration": 0.11627906976744384,
          "durationTicks": 10,
          "midi": 84,
          "name": "C6",
          "ticks": 4023,
          "time": 46.77906976744186,
          "velocity": 0.2440944881889764
        },
        {
          "duration": 0.1046511627907023,
          "durationTicks": 9,
          "midi": 93,
          "name": "A6",
          "ticks": 4024,
          "time": 46.7906976744186,
          "velocity": 0.16535433070866143
        },
        {
          "duration": 0.05813953488372192,
          "durationTicks": 5,
          "midi": 50,
          "name": "D3",
          "ticks": 4028,
          "time": 46.83720930232558,
          "velocity": 0.2283464566929134
        },
        {
          "duration": 0.04651162790698038,
          "durationTicks": 4,
          "midi": 60,
          "name": "C4",
          "ticks": 4032,
          "time": 46.883720930232556,
          "velocity": 0.4409448818897638
        },
        {
          "duration": 0.11627906976744384,
          "durationTicks": 10,
          "midi": 71,
          "name": "B4",
          "ticks": 4032,
          "time": 46.883720930232556,
          "velocity": 0.3464566929133858
        },
        {
          "duration": 0.16279069767441712,
          "durationTicks": 14,
          "midi": 55,
          "name": "G3",
          "ticks": 4033,
          "time": 46.895348837209305,
          "velocity": 0.47244094488188976
        },
        {
          "duration": 0.09302325581395365,
          "durationTicks": 8,
          "midi": 97,
          "name": "C#7",
          "ticks": 4033,
          "time": 46.895348837209305,
          "velocity": 0.11811023622047244
        },
        {
          "duration": 0.09302325581395365,
          "durationTicks": 8,
          "midi": 99,
          "name": "D#7",
          "ticks": 4033,
          "time": 46.895348837209305,
          "velocity": 0.09448818897637795
        },
        {
          "duration": 0.03488372093023173,
          "durationTicks": 3,
          "midi": 66,
          "name": "F#4",
          "ticks": 4034,
          "time": 46.906976744186046,
          "velocity": 0.14173228346456693
        },
        {
          "duration": 0.05813953488372192,
          "durationTicks": 5,
          "midi": 74,
          "name": "D5",
          "ticks": 4034,
          "time": 46.906976744186046,
          "velocity": 0.11811023622047244
        },
        {
          "duration": 0.06976744186046346,
          "durationTicks": 6,
          "midi": 102,
          "name": "F#7",
          "ticks": 4034,
          "time": 46.906976744186046,
          "velocity": 0.11811023622047244
        },
        {
          "duration": 0.02325581395349019,
          "durationTicks": 2,
          "midi": 42,
          "name": "F#2",
          "ticks": 4037,
          "time": 46.94186046511628,
          "velocity": 0.3464566929133858
        },
        {
          "duration": 0.023255813953483084,
          "durationTicks": 2,
          "midi": 60,
          "name": "C4",
          "ticks": 4041,
          "time": 46.98837209302326,
          "velocity": 0.30708661417322836
        },
        {
          "duration": 0.27906976744186096,
          "durationTicks": 24,
          "midi": 72,
          "name": "C5",
          "ticks": 4045,
          "time": 47.03488372093023,
          "velocity": 0.3937007874015748
        },
        {
          "duration": 0.27906976744186096,
          "durationTicks": 24,
          "midi": 100,
          "name": "E7",
          "ticks": 4045,
          "time": 47.03488372093023,
          "velocity": 0.3228346456692913
        },
        {
          "duration": 0.02325581395349019,
          "durationTicks": 2,
          "midi": 42,
          "name": "F#2",
          "ticks": 4046,
          "time": 47.04651162790697,
          "velocity": 0.30708661417322836
        },
        {
          "duration": 0.1279069767441925,
          "durationTicks": 11,
          "midi": 91,
          "name": "G6",
          "ticks": 4046,
          "time": 47.04651162790697,
          "velocity": 0.11023622047244094
        },
        {
          "duration": 0.04651162790698038,
          "durationTicks": 4,
          "midi": 43,
          "name": "G2",
          "ticks": 4048,
          "time": 47.06976744186046,
          "velocity": 0.28346456692913385
        },
        {
          "duration": 0.02325581395349019,
          "durationTicks": 2,
          "midi": 47,
          "name": "B2",
          "ticks": 4055,
          "time": 47.151162790697676,
          "velocity": 0.31496062992125984
        },
        {
          "duration": 0.12790697674418539,
          "durationTicks": 11,
          "midi": 55,
          "name": "G3",
          "ticks": 4058,
          "time": 47.18604651162791,
          "velocity": 0.4566929133858268
        },
        {
          "duration": 0.03488372093023173,
          "durationTicks": 3,
          "midi": 59,
          "name": "B3",
          "ticks": 4058,
          "time": 47.18604651162791,
          "velocity": 0.28346456692913385
        },
        {
          "duration": 0.03488372093023173,
          "durationTicks": 3,
          "midi": 74,
          "name": "D5",
          "ticks": 4058,
          "time": 47.18604651162791,
          "velocity": 0.08661417322834646
        },
        {
          "duration": 0.02325581395349019,
          "durationTicks": 2,
          "midi": 42,
          "name": "F#2",
          "ticks": 4059,
          "time": 47.19767441860465,
          "velocity": 0.36220472440944884
        },
        {
          "duration": 0.06976744186047057,
          "durationTicks": 6,
          "midi": 62,
          "name": "D4",
          "ticks": 4059,
          "time": 47.19767441860465,
          "velocity": 0.2440944881889764
        },
        {
          "duration": 0.02325581395349019,
          "durationTicks": 2,
          "midi": 43,
          "name": "G2",
          "ticks": 4062,
          "time": 47.23255813953488,
          "velocity": 0.30708661417322836
        },
        {
          "duration": 0.1046511627906952,
          "durationTicks": 9,
          "midi": 67,
          "name": "G4",
          "ticks": 4069,
          "time": 47.31395348837209,
          "velocity": 0.4409448818897638
        },
        {
          "duration": 0.03488372093023173,
          "durationTicks": 3,
          "midi": 86,
          "name": "D6",
          "ticks": 4069,
          "time": 47.31395348837209,
          "velocity": 0.10236220472440945
        },
        {
          "duration": 0.02325581395349019,
          "durationTicks": 2,
          "midi": 44,
          "name": "G#2",
          "ticks": 4072,
          "time": 47.348837209302324,
          "velocity": 0.31496062992125984
        },
        {
          "duration": 0.06976744186046346,
          "durationTicks": 6,
          "midi": 55,
          "name": "G3",
          "ticks": 4072,
          "time": 47.348837209302324,
          "velocity": 0.18110236220472442
        },
        {
          "duration": 0.046511627906973274,
          "durationTicks": 4,
          "midi": 50,
          "name": "D3",
          "ticks": 4073,
          "time": 47.36046511627907,
          "velocity": 0.15748031496062992
        },
        {
          "duration": 0.05813953488372192,
          "durationTicks": 5,
          "midi": 86,
          "name": "D6",
          "ticks": 4075,
          "time": 47.383720930232556,
          "velocity": 0.25196850393700787
        },
        {
          "duration": 0.02325581395349019,
          "durationTicks": 2,
          "midi": 49,
          "name": "C#3",
          "ticks": 4077,
          "time": 47.406976744186046,
          "velocity": 0.33070866141732286
        },
        {
          "duration": 0.02325581395349019,
          "durationTicks": 2,
          "midi": 61,
          "name": "C#4",
          "ticks": 4077,
          "time": 47.406976744186046,
          "velocity": 0.3700787401574803
        },
        {
          "duration": 0.04651162790698038,
          "durationTicks": 4,
          "midi": 66,
          "name": "F#4",
          "ticks": 4078,
          "time": 47.41860465116279,
          "velocity": 0.31496062992125984
        },
        {
          "duration": 0.12790697674418539,
          "durationTicks": 11,
          "midi": 71,
          "name": "B4",
          "ticks": 4078,
          "time": 47.41860465116279,
          "velocity": 0.3700787401574803
        },
        {
          "duration": 0.11627906976743674,
          "durationTicks": 10,
          "midi": 55,
          "name": "G3",
          "ticks": 4079,
          "time": 47.43023255813954,
          "velocity": 0.4645669291338583
        },
        {
          "duration": 0.02325581395349019,
          "durationTicks": 2,
          "midi": 60,
          "name": "C4",
          "ticks": 4079,
          "time": 47.43023255813954,
          "velocity": 0.41732283464566927
        },
        {
          "duration": 0.03488372093023173,
          "durationTicks": 3,
          "midi": 74,
          "name": "D5",
          "ticks": 4079,
          "time": 47.43023255813954,
          "velocity": 0.12598425196850394
        },
        {
          "duration": 0.06976744186046346,
          "durationTicks": 6,
          "midi": 87,
          "name": "D#6",
          "ticks": 4080,
          "time": 47.44186046511628,
          "velocity": 0.09448818897637795
        },
        {
          "duration": 0.023255813953483084,
          "durationTicks": 2,
          "midi": 42,
          "name": "F#2",
          "ticks": 4081,
          "time": 47.45348837209303,
          "velocity": 0.3543307086614173
        },
        {
          "duration": 0.06976744186046346,
          "durationTicks": 6,
          "midi": 59,
          "name": "B3",
          "ticks": 4081,
          "time": 47.45348837209303,
          "velocity": 0.3858267716535433
        },
        {
          "duration": 0.03488372093023173,
          "durationTicks": 3,
          "midi": 60,
          "name": "C4",
          "ticks": 4087,
          "time": 47.52325581395349,
          "velocity": 0.3228346456692913
        },
        {
          "duration": 0.03488372093023884,
          "durationTicks": 3,
          "midi": 54,
          "name": "F#3",
          "ticks": 4089,
          "time": 47.54651162790697,
          "velocity": 0.25196850393700787
        },
        {
          "duration": 0.02325581395349019,
          "durationTicks": 2,
          "midi": 42,
          "name": "F#2",
          "ticks": 4090,
          "time": 47.55813953488372,
          "velocity": 0.4094488188976378
        },
        {
          "duration": 0.15116279069767558,
          "durationTicks": 13,
          "midi": 65,
          "name": "F4",
          "ticks": 4090,
          "time": 47.55813953488372,
          "velocity": 0.4409448818897638
        },
        {
          "duration": 0.06976744186046346,
          "durationTicks": 6,
          "midi": 84,
          "name": "C6",
          "ticks": 4090,
          "time": 47.55813953488372,
          "velocity": 0.2204724409448819
        },
        {
          "duration": 0.02325581395349019,
          "durationTicks": 2,
          "midi": 60,
          "name": "C4",
          "ticks": 4091,
          "time": 47.56976744186046,
          "velocity": 0.2677165354330709
        },
        {
          "duration": 0.04651162790698038,
          "durationTicks": 4,
          "midi": 93,
          "name": "A6",
          "ticks": 4091,
          "time": 47.56976744186046,
          "velocity": 0.14173228346456693
        },
        {
          "duration": 0.22093023255813904,
          "durationTicks": 19,
          "midi": 55,
          "name": "G3",
          "ticks": 4092,
          "time": 47.58139534883721,
          "velocity": 0.5039370078740157
        },
        {
          "duration": 0.02325581395349019,
          "durationTicks": 2,
          "midi": 47,
          "name": "B2",
          "ticks": 4093,
          "time": 47.593023255813954,
          "velocity": 0.3779527559055118
        },
        {
          "duration": 0.02325581395349019,
          "durationTicks": 2,
          "midi": 45,
          "name": "A2",
          "ticks": 4098,
          "time": 47.651162790697676,
          "velocity": 0.44881889763779526
        },
        {
          "duration": 0.03488372093023173,
          "durationTicks": 3,
          "midi": 62,
          "name": "D4",
          "ticks": 4098,
          "time": 47.651162790697676,
          "velocity": 0.23622047244094488
        },
        {
          "duration": 0.02325581395349019,
          "durationTicks": 2,
          "midi": 59,
          "name": "B3",
          "ticks": 4099,
          "time": 47.66279069767442,
          "velocity": 0.25984251968503935
        },
        {
          "duration": 0.04651162790698038,
          "durationTicks": 4,
          "midi": 69,
          "name": "A4",
          "ticks": 4099,
          "time": 47.66279069767442,
          "velocity": 0.14960629921259844
        },
        {
          "duration": 0.02325581395349019,
          "durationTicks": 2,
          "midi": 48,
          "name": "C3",
          "ticks": 4101,
          "time": 47.68604651162791,
          "velocity": 0.47244094488188976
        },
        {
          "duration": 0.023255813953483084,
          "durationTicks": 2,
          "midi": 64,
          "name": "E4",
          "ticks": 4103,
          "time": 47.7093023255814,
          "velocity": 0.2440944881889764
        },
        {
          "duration": 0.06976744186047057,
          "durationTicks": 6,
          "midi": 71,
          "name": "B4",
          "ticks": 4105,
          "time": 47.73255813953488,
          "velocity": 0.25196850393700787
        },
        {
          "duration": 0.05813953488372192,
          "durationTicks": 5,
          "midi": 59,
          "name": "B3",
          "ticks": 4106,
          "time": 47.74418604651163,
          "velocity": 0.3464566929133858
        },
        {
          "duration": 0.03488372093023173,
          "durationTicks": 3,
          "midi": 54,
          "name": "F#3",
          "ticks": 4111,
          "time": 47.80232558139535,
          "velocity": 0.3937007874015748
        },
        {
          "duration": 0.023255813953483084,
          "durationTicks": 2,
          "midi": 60,
          "name": "C4",
          "ticks": 4111,
          "time": 47.80232558139535,
          "velocity": 0.30708661417322836
        },
        {
          "duration": 0.03488372093023884,
          "durationTicks": 3,
          "midi": 41,
          "name": "F2",
          "ticks": 4113,
          "time": 47.825581395348834,
          "velocity": 0.31496062992125984
        },
        {
          "duration": 0.04651162790698038,
          "durationTicks": 4,
          "midi": 59,
          "name": "B3",
          "ticks": 4113,
          "time": 47.825581395348834,
          "velocity": 0.33858267716535434
        },
        {
          "duration": 0.04651162790698038,
          "durationTicks": 4,
          "midi": 79,
          "name": "G5",
          "ticks": 4113,
          "time": 47.825581395348834,
          "velocity": 0.09448818897637795
        },
        {
          "duration": 0.1046511627907023,
          "durationTicks": 9,
          "midi": 83,
          "name": "B5",
          "ticks": 4113,
          "time": 47.825581395348834,
          "velocity": 0.23622047244094488
        },
        {
          "duration": 0.22093023255813904,
          "durationTicks": 19,
          "midi": 55,
          "name": "G3",
          "ticks": 4114,
          "time": 47.83720930232558,
          "velocity": 0.41732283464566927
        },
        {
          "duration": 0.12790697674418539,
          "durationTicks": 11,
          "midi": 64,
          "name": "E4",
          "ticks": 4114,
          "time": 47.83720930232558,
          "velocity": 0.4251968503937008
        },
        {
          "duration": 0.1046511627906952,
          "durationTicks": 9,
          "midi": 92,
          "name": "G#6",
          "ticks": 4114,
          "time": 47.83720930232558,
          "velocity": 0.14173228346456693
        },
        {
          "duration": 0.081395348837205,
          "durationTicks": 7,
          "midi": 102,
          "name": "F#7",
          "ticks": 4114,
          "time": 47.83720930232558,
          "velocity": 0.18110236220472442
        },
        {
          "duration": 0.02325581395349019,
          "durationTicks": 2,
          "midi": 42,
          "name": "F#2",
          "ticks": 4117,
          "time": 47.872093023255815,
          "velocity": 0.3937007874015748
        },
        {
          "duration": 0.023255813953483084,
          "durationTicks": 2,
          "midi": 44,
          "name": "G#2",
          "ticks": 4119,
          "time": 47.895348837209305,
          "velocity": 0.44881889763779526
        },
        {
          "duration": 0.02325581395349019,
          "durationTicks": 2,
          "midi": 43,
          "name": "G2",
          "ticks": 4121,
          "time": 47.91860465116279,
          "velocity": 0.41732283464566927
        },
        {
          "duration": 0.06976744186046346,
          "durationTicks": 6,
          "midi": 43,
          "name": "G2",
          "ticks": 4124,
          "time": 47.95348837209303,
          "velocity": 0.4015748031496063
        },
        {
          "duration": 0.081395348837205,
          "durationTicks": 7,
          "midi": 59,
          "name": "B3",
          "ticks": 4127,
          "time": 47.98837209302326,
          "velocity": 0.28346456692913385
        },
        {
          "duration": 0.02325581395349019,
          "durationTicks": 2,
          "midi": 44,
          "name": "G#2",
          "ticks": 4133,
          "time": 48.05813953488372,
          "velocity": 0.3858267716535433
        },
        {
          "duration": 0.02325581395349019,
          "durationTicks": 2,
          "midi": 65,
          "name": "F4",
          "ticks": 4133,
          "time": 48.05813953488372,
          "velocity": 0.2440944881889764
        },
        {
          "duration": 0.03488372093023173,
          "durationTicks": 3,
          "midi": 78,
          "name": "F#5",
          "ticks": 4133,
          "time": 48.05813953488372,
          "velocity": 0.14960629921259844
        },
        {
          "duration": 0.02325581395349019,
          "durationTicks": 2,
          "midi": 60,
          "name": "C4",
          "ticks": 4134,
          "time": 48.06976744186046,
          "velocity": 0.28346456692913385
        },
        {
          "duration": 0.06976744186046346,
          "durationTicks": 6,
          "midi": 70,
          "name": "A#4",
          "ticks": 4134,
          "time": 48.06976744186046,
          "velocity": 0.1732283464566929
        },
        {
          "duration": 0.04651162790698038,
          "durationTicks": 4,
          "midi": 74,
          "name": "D5",
          "ticks": 4134,
          "time": 48.06976744186046,
          "velocity": 0.1968503937007874
        },
        {
          "duration": 0.03488372093023173,
          "durationTicks": 3,
          "midi": 76,
          "name": "E5",
          "ticks": 4134,
          "time": 48.06976744186046,
          "velocity": 0.13385826771653545
        },
        {
          "duration": 0.03488372093023173,
          "durationTicks": 3,
          "midi": 81,
          "name": "A5",
          "ticks": 4134,
          "time": 48.06976744186046,
          "velocity": 0.11023622047244094
        },
        {
          "duration": 0.03488372093023173,
          "durationTicks": 3,
          "midi": 93,
          "name": "A6",
          "ticks": 4134,
          "time": 48.06976744186046,
          "velocity": 0.1889763779527559
        },
        {
          "duration": 0.046511627906973274,
          "durationTicks": 4,
          "midi": 67,
          "name": "G4",
          "ticks": 4135,
          "time": 48.08139534883721,
          "velocity": 0.1968503937007874
        },
        {
          "duration": 0.011627906976741542,
          "durationTicks": 1,
          "midi": 54,
          "name": "F#3",
          "ticks": 4136,
          "time": 48.093023255813954,
          "velocity": 0.5511811023622047
        },
        {
          "duration": 0.02325581395349019,
          "durationTicks": 2,
          "midi": 55,
          "name": "G3",
          "ticks": 4137,
          "time": 48.104651162790695,
          "velocity": 0.5433070866141733
        },
        {
          "duration": 0.2093023255813904,
          "durationTicks": 18,
          "midi": 65,
          "name": "F4",
          "ticks": 4138,
          "time": 48.116279069767444,
          "velocity": 0.1889763779527559
        },
        {
          "duration": 0.03488372093023173,
          "durationTicks": 3,
          "midi": 84,
          "name": "C6",
          "ticks": 4138,
          "time": 48.116279069767444,
          "velocity": 0.10236220472440945
        },
        {
          "duration": 0.03488372093023173,
          "durationTicks": 3,
          "midi": 41,
          "name": "F2",
          "ticks": 4139,
          "time": 48.127906976744185,
          "velocity": 0.33858267716535434
        },
        {
          "duration": 0.011627906976741542,
          "durationTicks": 1,
          "midi": 56,
          "name": "G#3",
          "ticks": 4139,
          "time": 48.127906976744185,
          "velocity": 0.5354330708661418
        },
        {
          "duration": 0.02325581395349019,
          "durationTicks": 2,
          "midi": 57,
          "name": "A3",
          "ticks": 4140,
          "time": 48.13953488372093,
          "velocity": 0.5275590551181102
        },
        {
          "duration": 0.03488372093023173,
          "durationTicks": 3,
          "midi": 69,
          "name": "A4",
          "ticks": 4142,
          "time": 48.16279069767442,
          "velocity": 0.30708661417322836
        },
        {
          "duration": 0.12790697674418539,
          "durationTicks": 11,
          "midi": 53,
          "name": "F3",
          "ticks": 4143,
          "time": 48.174418604651166,
          "velocity": 0.29133858267716534
        },
        {
          "duration": 0.06976744186046346,
          "durationTicks": 6,
          "midi": 86,
          "name": "D6",
          "ticks": 4143,
          "time": 48.174418604651166,
          "velocity": 0.14960629921259844
        },
        {
          "duration": 0.17441860465116577,
          "durationTicks": 15,
          "midi": 58,
          "name": "A#3",
          "ticks": 4144,
          "time": 48.18604651162791,
          "velocity": 0.4015748031496063
        },
        {
          "duration": 0.02325581395349019,
          "durationTicks": 2,
          "midi": 42,
          "name": "F#2",
          "ticks": 4155,
          "time": 48.31395348837209,
          "velocity": 0.3858267716535433
        },
        {
          "duration": 0.09302325581395365,
          "durationTicks": 8,
          "midi": 77,
          "name": "F5",
          "ticks": 4157,
          "time": 48.33720930232558,
          "velocity": 0.15748031496062992
        },
        {
          "duration": 0.11627906976744384,
          "durationTicks": 10,
          "midi": 53,
          "name": "F3",
          "ticks": 4158,
          "time": 48.348837209302324,
          "velocity": 0.2677165354330709
        },
        {
          "duration": 0.1046511627907023,
          "durationTicks": 9,
          "midi": 74,
          "name": "D5",
          "ticks": 4158,
          "time": 48.348837209302324,
          "velocity": 0.25984251968503935
        },
        {
          "duration": 0.023255813953483084,
          "durationTicks": 2,
          "midi": 42,
          "name": "F#2",
          "ticks": 4159,
          "time": 48.36046511627907,
          "velocity": 0.4330708661417323
        },
        {
          "duration": 0.06976744186046346,
          "durationTicks": 6,
          "midi": 62,
          "name": "D4",
          "ticks": 4159,
          "time": 48.36046511627907,
          "velocity": 0.3858267716535433
        },
        {
          "duration": 0.1046511627906952,
          "durationTicks": 9,
          "midi": 58,
          "name": "A#3",
          "ticks": 4160,
          "time": 48.372093023255815,
          "velocity": 0.3700787401574803
        },
        {
          "duration": 0.06976744186047057,
          "durationTicks": 6,
          "midi": 41,
          "name": "F2",
          "ticks": 4161,
          "time": 48.383720930232556,
          "velocity": 0.4015748031496063
        },
        {
          "duration": 0.02325581395349019,
          "durationTicks": 2,
          "midi": 55,
          "name": "G3",
          "ticks": 4168,
          "time": 48.46511627906977,
          "velocity": 0.2440944881889764
        },
        {
          "duration": 0.1046511627906952,
          "durationTicks": 9,
          "midi": 76,
          "name": "E5",
          "ticks": 4168,
          "time": 48.46511627906977,
          "velocity": 0.2125984251968504
        },
        {
          "duration": 0.13953488372093403,
          "durationTicks": 12,
          "midi": 64,
          "name": "E4",
          "ticks": 4169,
          "time": 48.47674418604651,
          "velocity": 0.49606299212598426
        },
        {
          "duration": 0.023255813953483084,
          "durationTicks": 2,
          "midi": 57,
          "name": "A3",
          "ticks": 4170,
          "time": 48.48837209302326,
          "velocity": 0.2440944881889764
        },
        {
          "duration": 0.03488372093023173,
          "durationTicks": 3,
          "midi": 52,
          "name": "E3",
          "ticks": 4172,
          "time": 48.51162790697674,
          "velocity": 0.07086614173228346
        },
        {
          "duration": 0.02325581395349019,
          "durationTicks": 2,
          "midi": 40,
          "name": "E2",
          "ticks": 4174,
          "time": 48.53488372093023,
          "velocity": 0.2677165354330709
        },
        {
          "duration": 0.03488372093023173,
          "durationTicks": 3,
          "midi": 58,
          "name": "A#3",
          "ticks": 4174,
          "time": 48.53488372093023,
          "velocity": 0.12598425196850394
        },
        {
          "duration": 0.03488372093023173,
          "durationTicks": 3,
          "midi": 83,
          "name": "B5",
          "ticks": 4176,
          "time": 48.55813953488372,
          "velocity": 0.13385826771653545
        },
        {
          "duration": 0.023255813953483084,
          "durationTicks": 2,
          "midi": 53,
          "name": "F3",
          "ticks": 4178,
          "time": 48.58139534883721,
          "velocity": 0.36220472440944884
        },
        {
          "duration": 0.023255813953483084,
          "durationTicks": 2,
          "midi": 59,
          "name": "B3",
          "ticks": 4178,
          "time": 48.58139534883721,
          "velocity": 0.33070866141732286
        },
        {
          "duration": 0.023255813953483084,
          "durationTicks": 2,
          "midi": 53,
          "name": "F3",
          "ticks": 4181,
          "time": 48.616279069767444,
          "velocity": 0.23622047244094488
        },
        {
          "duration": 0.1046511627906952,
          "durationTicks": 9,
          "midi": 58,
          "name": "A#3",
          "ticks": 4181,
          "time": 48.616279069767444,
          "velocity": 0.3858267716535433
        },
        {
          "duration": 0.02325581395349019,
          "durationTicks": 2,
          "midi": 41,
          "name": "F2",
          "ticks": 4185,
          "time": 48.66279069767442,
          "velocity": 0.3464566929133858
        },
        {
          "duration": 0.03488372093023173,
          "durationTicks": 3,
          "midi": 65,
          "name": "F4",
          "ticks": 4185,
          "time": 48.66279069767442,
          "velocity": 0.1968503937007874
        },
        {
          "duration": 0.02325581395349019,
          "durationTicks": 2,
          "midi": 41,
          "name": "F2",
          "ticks": 4188,
          "time": 48.69767441860465,
          "velocity": 0.3464566929133858
        },
        {
          "duration": 0.15116279069767558,
          "durationTicks": 13,
          "midi": 65,
          "name": "F4",
          "ticks": 4189,
          "time": 48.7093023255814,
          "velocity": 0.48031496062992124
        },
        {
          "duration": 0.13953488372092693,
          "durationTicks": 12,
          "midi": 84,
          "name": "C6",
          "ticks": 4189,
          "time": 48.7093023255814,
          "velocity": 0.18110236220472442
        },
        {
          "duration": 0.11627906976743674,
          "durationTicks": 10,
          "midi": 89,
          "name": "F6",
          "ticks": 4189,
          "time": 48.7093023255814,
          "velocity": 0.2125984251968504
        },
        {
          "duration": 0.09302325581395365,
          "durationTicks": 8,
          "midi": 103,
          "name": "G7",
          "ticks": 4189,
          "time": 48.7093023255814,
          "velocity": 0.14173228346456693
        },
        {
          "duration": 0.02325581395349019,
          "durationTicks": 2,
          "midi": 41,
          "name": "F2",
          "ticks": 4191,
          "time": 48.73255813953488,
          "velocity": 0.33070866141732286
        },
        {
          "duration": 0.02325581395349019,
          "durationTicks": 2,
          "midi": 54,
          "name": "F#3",
          "ticks": 4191,
          "time": 48.73255813953488,
          "velocity": 0.4094488188976378
        },
        {
          "duration": 0.02325581395349019,
          "durationTicks": 2,
          "midi": 58,
          "name": "A#3",
          "ticks": 4191,
          "time": 48.73255813953488,
          "velocity": 0.2440944881889764
        },
        {
          "duration": 0.08139534883721211,
          "durationTicks": 7,
          "midi": 53,
          "name": "F3",
          "ticks": 4193,
          "time": 48.75581395348837,
          "velocity": 0.36220472440944884
        },
        {
          "duration": 0.081395348837205,
          "durationTicks": 7,
          "midi": 58,
          "name": "A#3",
          "ticks": 4194,
          "time": 48.76744186046512,
          "velocity": 0.25984251968503935
        },
        {
          "duration": 0.02325581395349019,
          "durationTicks": 2,
          "midi": 46,
          "name": "A#2",
          "ticks": 4198,
          "time": 48.81395348837209,
          "velocity": 0.3464566929133858
        },
        {
          "duration": 0.046511627906973274,
          "durationTicks": 4,
          "midi": 64,
          "name": "E4",
          "ticks": 4202,
          "time": 48.86046511627907,
          "velocity": 0.33858267716535434
        },
        {
          "duration": 0.02325581395349019,
          "durationTicks": 2,
          "midi": 41,
          "name": "F2",
          "ticks": 4203,
          "time": 48.872093023255815,
          "velocity": 0.3228346456692913
        },
        {
          "duration": 0.023255813953483084,
          "durationTicks": 2,
          "midi": 42,
          "name": "F#2",
          "ticks": 4205,
          "time": 48.895348837209305,
          "velocity": 0.3464566929133858
        },
        {
          "duration": 0.023255813953483084,
          "durationTicks": 2,
          "midi": 53,
          "name": "F3",
          "ticks": 4205,
          "time": 48.895348837209305,
          "velocity": 0.25984251968503935
        },
        {
          "duration": 0.02325581395349019,
          "durationTicks": 2,
          "midi": 55,
          "name": "G3",
          "ticks": 4208,
          "time": 48.93023255813954,
          "velocity": 0.31496062992125984
        },
        {
          "duration": 0.5697674418604635,
          "durationTicks": 49,
          "midi": 64,
          "name": "E4",
          "ticks": 4208,
          "time": 48.93023255813954,
          "velocity": 0.4566929133858268
        },
        {
          "duration": 0.046511627906973274,
          "durationTicks": 4,
          "midi": 88,
          "name": "E6",
          "ticks": 4208,
          "time": 48.93023255813954,
          "velocity": 0.16535433070866143
        },
        {
          "duration": 0.06976744186046346,
          "durationTicks": 6,
          "midi": 83,
          "name": "B5",
          "ticks": 4209,
          "time": 48.94186046511628,
          "velocity": 0.09448818897637795
        },
        {
          "duration": 0.17441860465116577,
          "durationTicks": 15,
          "midi": 95,
          "name": "B6",
          "ticks": 4209,
          "time": 48.94186046511628,
          "velocity": 0.14173228346456693
        },
        {
          "duration": 0.023255813953483084,
          "durationTicks": 2,
          "midi": 54,
          "name": "F#3",
          "ticks": 4210,
          "time": 48.95348837209303,
          "velocity": 0.31496062992125984
        },
        {
          "duration": 0.046511627906973274,
          "durationTicks": 4,
          "midi": 60,
          "name": "C4",
          "ticks": 4211,
          "time": 48.96511627906977,
          "velocity": 0.30708661417322836
        },
        {
          "duration": 0.5348837209302317,
          "durationTicks": 46,
          "midi": 67,
          "name": "G4",
          "ticks": 4211,
          "time": 48.96511627906977,
          "velocity": 0.4409448818897638
        },
        {
          "duration": 0.15116279069767558,
          "durationTicks": 13,
          "midi": 91,
          "name": "G6",
          "ticks": 4211,
          "time": 48.96511627906977,
          "velocity": 0.2440944881889764
        },
        {
          "duration": 0.02325581395349019,
          "durationTicks": 2,
          "midi": 45,
          "name": "A2",
          "ticks": 4212,
          "time": 48.97674418604651,
          "velocity": 0.33070866141732286
        },
        {
          "duration": 0.27906976744186096,
          "durationTicks": 24,
          "midi": 72,
          "name": "C5",
          "ticks": 4212,
          "time": 48.97674418604651,
          "velocity": 0.30708661417322836
        },
        {
          "duration": 0.19767441860464885,
          "durationTicks": 17,
          "midi": 55,
          "name": "G3",
          "ticks": 4213,
          "time": 48.98837209302326,
          "velocity": 0.5433070866141733
        },
        {
          "duration": 0.12790697674418539,
          "durationTicks": 11,
          "midi": 74,
          "name": "D5",
          "ticks": 4215,
          "time": 49.01162790697674,
          "velocity": 0.1732283464566929
        },
        {
          "duration": 0.023255813953483084,
          "durationTicks": 2,
          "midi": 43,
          "name": "G2",
          "ticks": 4216,
          "time": 49.02325581395349,
          "velocity": 0.36220472440944884
        },
        {
          "duration": 0.04651162790698038,
          "durationTicks": 4,
          "midi": 60,
          "name": "C4",
          "ticks": 4220,
          "time": 49.06976744186046,
          "velocity": 0.14960629921259844
        },
        {
          "duration": 0.02325581395349019,
          "durationTicks": 2,
          "midi": 47,
          "name": "B2",
          "ticks": 4223,
          "time": 49.104651162790695,
          "velocity": 0.2755905511811024
        },
        {
          "duration": 0.08139534883721211,
          "durationTicks": 7,
          "midi": 83,
          "name": "B5",
          "ticks": 4223,
          "time": 49.104651162790695,
          "velocity": 0.09448818897637795
        },
        {
          "duration": 0.13953488372093403,
          "durationTicks": 12,
          "midi": 91,
          "name": "G6",
          "ticks": 4226,
          "time": 49.13953488372093,
          "velocity": 0.2047244094488189
        },
        {
          "duration": 0.06976744186046346,
          "durationTicks": 6,
          "midi": 95,
          "name": "B6",
          "ticks": 4232,
          "time": 49.2093023255814,
          "velocity": 0.07874015748031496
        },
        {
          "duration": 0.11627906976744384,
          "durationTicks": 10,
          "midi": 55,
          "name": "G3",
          "ticks": 4236,
          "time": 49.25581395348837,
          "velocity": 0.4566929133858268
        },
        {
          "duration": 0.11627906976744384,
          "durationTicks": 10,
          "midi": 60,
          "name": "C4",
          "ticks": 4236,
          "time": 49.25581395348837,
          "velocity": 0.3700787401574803
        },
        {
          "duration": 0.023255813953483084,
          "durationTicks": 2,
          "midi": 44,
          "name": "G#2",
          "ticks": 4237,
          "time": 49.26744186046512,
          "velocity": 0.3228346456692913
        },
        {
          "duration": 0.13953488372092693,
          "durationTicks": 12,
          "midi": 74,
          "name": "D5",
          "ticks": 4237,
          "time": 49.26744186046512,
          "velocity": 0.15748031496062992
        },
        {
          "duration": 0.046511627906973274,
          "durationTicks": 4,
          "midi": 83,
          "name": "B5",
          "ticks": 4243,
          "time": 49.33720930232558,
          "velocity": 0.11811023622047244
        },
        {
          "duration": 0.08139534883721211,
          "durationTicks": 7,
          "midi": 42,
          "name": "F#2",
          "ticks": 4250,
          "time": 49.41860465116279,
          "velocity": 0.33858267716535434
        },
        {
          "duration": 0.046511627906973274,
          "durationTicks": 4,
          "midi": 55,
          "name": "G3",
          "ticks": 4253,
          "time": 49.45348837209303,
          "velocity": 0.14960629921259844
        },
        {
          "duration": 0.046511627906973274,
          "durationTicks": 4,
          "midi": 87,
          "name": "D#6",
          "ticks": 4256,
          "time": 49.48837209302326,
          "velocity": 0.09448818897637795
        },
        {
          "duration": 0.02325581395349019,
          "durationTicks": 2,
          "midi": 65,
          "name": "F4",
          "ticks": 4257,
          "time": 49.5,
          "velocity": 0.3543307086614173
        },
        {
          "duration": 0.02325581395349019,
          "durationTicks": 2,
          "midi": 68,
          "name": "G#4",
          "ticks": 4257,
          "time": 49.5,
          "velocity": 0.2677165354330709
        },
        {
          "duration": 0.16279069767442422,
          "durationTicks": 14,
          "midi": 55,
          "name": "G3",
          "ticks": 4258,
          "time": 49.51162790697674,
          "velocity": 0.48031496062992124
        },
        {
          "duration": 0.13953488372093403,
          "durationTicks": 12,
          "midi": 60,
          "name": "C4",
          "ticks": 4258,
          "time": 49.51162790697674,
          "velocity": 0.3700787401574803
        },
        {
          "duration": 0.15116279069767558,
          "durationTicks": 13,
          "midi": 74,
          "name": "D5",
          "ticks": 4258,
          "time": 49.51162790697674,
          "velocity": 0.2440944881889764
        },
        {
          "duration": 0.13953488372093403,
          "durationTicks": 12,
          "midi": 79,
          "name": "G5",
          "ticks": 4258,
          "time": 49.51162790697674,
          "velocity": 0.2125984251968504
        },
        {
          "duration": 0.03488372093023173,
          "durationTicks": 3,
          "midi": 88,
          "name": "E6",
          "ticks": 4259,
          "time": 49.52325581395349,
          "velocity": 0.07086614173228346
        },
        {
          "duration": 0.03488372093023173,
          "durationTicks": 3,
          "midi": 68,
          "name": "G#4",
          "ticks": 4260,
          "time": 49.53488372093023,
          "velocity": 0.28346456692913385
        },
        {
          "duration": 0.05813953488372192,
          "durationTicks": 5,
          "midi": 83,
          "name": "B5",
          "ticks": 4260,
          "time": 49.53488372093023,
          "velocity": 0.15748031496062992
        },
        {
          "duration": 0.02325581395349019,
          "durationTicks": 2,
          "midi": 71,
          "name": "B4",
          "ticks": 4261,
          "time": 49.54651162790697,
          "velocity": 0.2677165354330709
        },
        {
          "duration": 0.09302325581395365,
          "durationTicks": 8,
          "midi": 48,
          "name": "C3",
          "ticks": 4262,
          "time": 49.55813953488372,
          "velocity": 0.3700787401574803
        },
        {
          "duration": 0.30232558139535115,
          "durationTicks": 26,
          "midi": 60,
          "name": "C4",
          "ticks": 4271,
          "time": 49.66279069767442,
          "velocity": 0.30708661417322836
        },
        {
          "duration": 0.22093023255813904,
          "durationTicks": 19,
          "midi": 55,
          "name": "G3",
          "ticks": 4273,
          "time": 49.68604651162791,
          "velocity": 0.4566929133858268
        },
        {
          "duration": 0.2325581395348877,
          "durationTicks": 20,
          "midi": 48,
          "name": "C3",
          "ticks": 4277,
          "time": 49.73255813953488,
          "velocity": 0.4251968503937008
        },
        {
          "duration": 0.046511627906973274,
          "durationTicks": 4,
          "midi": 84,
          "name": "C6",
          "ticks": 4291,
          "time": 49.895348837209305,
          "velocity": 0.18110236220472442
        },
        {
          "duration": 0.03488372093023173,
          "durationTicks": 3,
          "midi": 86,
          "name": "D6",
          "ticks": 4291,
          "time": 49.895348837209305,
          "velocity": 0.15748031496062992
        },
        {
          "duration": 0.03488372093023173,
          "durationTicks": 3,
          "midi": 49,
          "name": "C#3",
          "ticks": 4297,
          "time": 49.96511627906977,
          "velocity": 0.4015748031496063
        },
        {
          "duration": 0.03488372093023173,
          "durationTicks": 3,
          "midi": 56,
          "name": "G#3",
          "ticks": 4297,
          "time": 49.96511627906977,
          "velocity": 0.36220472440944884
        },
        {
          "duration": 0.02325581395349019,
          "durationTicks": 2,
          "midi": 50,
          "name": "D3",
          "ticks": 4300,
          "time": 50,
          "velocity": 0.4409448818897638
        },
        {
          "duration": 0.02325581395349019,
          "durationTicks": 2,
          "midi": 57,
          "name": "A3",
          "ticks": 4300,
          "time": 50,
          "velocity": 0.3464566929133858
        },
        {
          "duration": 0.03488372093023173,
          "durationTicks": 3,
          "midi": 63,
          "name": "D#4",
          "ticks": 4302,
          "time": 50.02325581395349,
          "velocity": 0.2283464566929134
        },
        {
          "duration": 0.03488372093023173,
          "durationTicks": 3,
          "midi": 52,
          "name": "E3",
          "ticks": 4303,
          "time": 50.03488372093023,
          "velocity": 0.4330708661417323
        },
        {
          "duration": 0.02325581395349019,
          "durationTicks": 2,
          "midi": 59,
          "name": "B3",
          "ticks": 4303,
          "time": 50.03488372093023,
          "velocity": 0.3937007874015748
        },
        {
          "duration": 0.06976744186046346,
          "durationTicks": 6,
          "midi": 58,
          "name": "A#3",
          "ticks": 4305,
          "time": 50.05813953488372,
          "velocity": 0.47244094488188976
        },
        {
          "duration": 0.03488372093023173,
          "durationTicks": 3,
          "midi": 93,
          "name": "A6",
          "ticks": 4305,
          "time": 50.05813953488372,
          "velocity": 0.09448818897637795
        },
        {
          "duration": 0.03488372093023173,
          "durationTicks": 3,
          "midi": 45,
          "name": "A2",
          "ticks": 4306,
          "time": 50.06976744186046,
          "velocity": 0.47244094488188976
        },
        {
          "duration": 0.1046511627907023,
          "durationTicks": 9,
          "midi": 65,
          "name": "F4",
          "ticks": 4309,
          "time": 50.104651162790695,
          "velocity": 0.2677165354330709
        },
        {
          "duration": 0.03488372093023173,
          "durationTicks": 3,
          "midi": 98,
          "name": "D7",
          "ticks": 4309,
          "time": 50.104651162790695,
          "velocity": 0.14173228346456693
        },
        {
          "duration": 0.05813953488372192,
          "durationTicks": 5,
          "midi": 53,
          "name": "F3",
          "ticks": 4310,
          "time": 50.116279069767444,
          "velocity": 0.4409448818897638
        },
        {
          "duration": 0.05813953488372192,
          "durationTicks": 5,
          "midi": 72,
          "name": "C5",
          "ticks": 4311,
          "time": 50.127906976744185,
          "velocity": 0.14173228346456693
        },
        {
          "duration": 0.06976744186046346,
          "durationTicks": 6,
          "midi": 87,
          "name": "D#6",
          "ticks": 4311,
          "time": 50.127906976744185,
          "velocity": 0.09448818897637795
        },
        {
          "duration": 0.03488372093023884,
          "durationTicks": 3,
          "midi": 58,
          "name": "A#3",
          "ticks": 4312,
          "time": 50.13953488372093,
          "velocity": 0.3543307086614173
        },
        {
          "duration": 0.02325581395349019,
          "durationTicks": 2,
          "midi": 46,
          "name": "A#2",
          "ticks": 4314,
          "time": 50.16279069767442,
          "velocity": 0.28346456692913385
        },
        {
          "duration": 0.25581395348837077,
          "durationTicks": 22,
          "midi": 79,
          "name": "G5",
          "ticks": 4315,
          "time": 50.174418604651166,
          "velocity": 0.2204724409448819
        },
        {
          "duration": 0.2674418604651123,
          "durationTicks": 23,
          "midi": 81,
          "name": "A5",
          "ticks": 4315,
          "time": 50.174418604651166,
          "velocity": 0.13385826771653545
        },
        {
          "duration": 0.23255813953488058,
          "durationTicks": 20,
          "midi": 84,
          "name": "C6",
          "ticks": 4316,
          "time": 50.18604651162791,
          "velocity": 0.2125984251968504
        },
        {
          "duration": 0.023255813953483084,
          "durationTicks": 2,
          "midi": 53,
          "name": "F3",
          "ticks": 4318,
          "time": 50.2093023255814,
          "velocity": 0.4330708661417323
        },
        {
          "duration": 0.22093023255813904,
          "durationTicks": 19,
          "midi": 74,
          "name": "D5",
          "ticks": 4318,
          "time": 50.2093023255814,
          "velocity": 0.13385826771653545
        },
        {
          "duration": 0.6744186046511658,
          "durationTicks": 58,
          "midi": 101,
          "name": "F7",
          "ticks": 4319,
          "time": 50.22093023255814,
          "velocity": 0.2677165354330709
        },
        {
          "duration": 0.7209302325581461,
          "durationTicks": 62,
          "midi": 72,
          "name": "C5",
          "ticks": 4320,
          "time": 50.23255813953488,
          "velocity": 0.28346456692913385
        },
        {
          "duration": 0.03488372093023173,
          "durationTicks": 3,
          "midi": 45,
          "name": "A2",
          "ticks": 4321,
          "time": 50.24418604651163,
          "velocity": 0.36220472440944884
        },
        {
          "duration": 0.1860465116279073,
          "durationTicks": 16,
          "midi": 53,
          "name": "F3",
          "ticks": 4321,
          "time": 50.24418604651163,
          "velocity": 0.41732283464566927
        },
        {
          "duration": 0.02325581395349019,
          "durationTicks": 2,
          "midi": 60,
          "name": "C4",
          "ticks": 4321,
          "time": 50.24418604651163,
          "velocity": 0.29133858267716534
        },
        {
          "duration": 0.046511627906973274,
          "durationTicks": 4,
          "midi": 98,
          "name": "D7",
          "ticks": 4323,
          "time": 50.26744186046512,
          "velocity": 0.11023622047244094
        },
        {
          "duration": 0.03488372093023173,
          "durationTicks": 3,
          "midi": 58,
          "name": "A#3",
          "ticks": 4325,
          "time": 50.2906976744186,
          "velocity": 0.31496062992125984
        },
        {
          "duration": 0.023255813953483084,
          "durationTicks": 2,
          "midi": 46,
          "name": "A#2",
          "ticks": 4326,
          "time": 50.30232558139535,
          "velocity": 0.30708661417322836
        },
        {
          "duration": 0.03488372093023884,
          "durationTicks": 3,
          "midi": 60,
          "name": "C4",
          "ticks": 4328,
          "time": 50.325581395348834,
          "velocity": 0.2992125984251969
        },
        {
          "duration": 0.06976744186046346,
          "durationTicks": 6,
          "midi": 46,
          "name": "A#2",
          "ticks": 4331,
          "time": 50.36046511627907,
          "velocity": 0.33070866141732286
        },
        {
          "duration": 0.05813953488372192,
          "durationTicks": 5,
          "midi": 87,
          "name": "D#6",
          "ticks": 4332,
          "time": 50.372093023255815,
          "velocity": 0.07086614173228346
        },
        {
          "duration": 0.023255813953483084,
          "durationTicks": 2,
          "midi": 60,
          "name": "C4",
          "ticks": 4334,
          "time": 50.395348837209305,
          "velocity": 0.28346456692913385
        },
        {
          "duration": 0.02325581395349019,
          "durationTicks": 2,
          "midi": 45,
          "name": "A2",
          "ticks": 4337,
          "time": 50.43023255813954,
          "velocity": 0.28346456692913385
        },
        {
          "duration": 0.02325581395349019,
          "durationTicks": 2,
          "midi": 56,
          "name": "G#3",
          "ticks": 4337,
          "time": 50.43023255813954,
          "velocity": 0.4015748031496063
        },
        {
          "duration": 0.02325581395349019,
          "durationTicks": 2,
          "midi": 60,
          "name": "C4",
          "ticks": 4337,
          "time": 50.43023255813954,
          "velocity": 0.3700787401574803
        },
        {
          "duration": 0.17441860465115866,
          "durationTicks": 15,
          "midi": 53,
          "name": "F3",
          "ticks": 4339,
          "time": 50.45348837209303,
          "velocity": 0.4645669291338583
        },
        {
          "duration": 0.1860465116279002,
          "durationTicks": 16,
          "midi": 58,
          "name": "A#3",
          "ticks": 4339,
          "time": 50.45348837209303,
          "velocity": 0.4094488188976378
        },
        {
          "duration": 0.4767441860465098,
          "durationTicks": 41,
          "midi": 84,
          "name": "C6",
          "ticks": 4339,
          "time": 50.45348837209303,
          "velocity": 0.28346456692913385
        },
        {
          "duration": 0.17441860465115866,
          "durationTicks": 15,
          "midi": 74,
          "name": "D5",
          "ticks": 4340,
          "time": 50.46511627906977,
          "velocity": 0.11811023622047244
        },
        {
          "duration": 0.3488372093023244,
          "durationTicks": 30,
          "midi": 81,
          "name": "A5",
          "ticks": 4340,
          "time": 50.46511627906977,
          "velocity": 0.11811023622047244
        },
        {
          "duration": 0.16279069767441712,
          "durationTicks": 14,
          "midi": 46,
          "name": "A#2",
          "ticks": 4343,
          "time": 50.5,
          "velocity": 0.41732283464566927
        },
        {
          "duration": 0.43023255813953654,
          "durationTicks": 37,
          "midi": 79,
          "name": "G5",
          "ticks": 4347,
          "time": 50.54651162790697,
          "velocity": 0.14960629921259844
        },
        {
          "duration": 0.03488372093023884,
          "durationTicks": 3,
          "midi": 57,
          "name": "A3",
          "ticks": 4355,
          "time": 50.63953488372093,
          "velocity": 0.25984251968503935
        },
        {
          "duration": 0.03488372093023884,
          "durationTicks": 3,
          "midi": 60,
          "name": "C4",
          "ticks": 4355,
          "time": 50.63953488372093,
          "velocity": 0.25984251968503935
        },
        {
          "duration": 0.046511627906973274,
          "durationTicks": 4,
          "midi": 53,
          "name": "F3",
          "ticks": 4358,
          "time": 50.674418604651166,
          "velocity": 0.2755905511811024
        },
        {
          "duration": 0.023255813953483084,
          "durationTicks": 2,
          "midi": 58,
          "name": "A#3",
          "ticks": 4358,
          "time": 50.674418604651166,
          "velocity": 0.30708661417322836
        },
        {
          "duration": 0.02325581395349019,
          "durationTicks": 2,
          "midi": 57,
          "name": "A3",
          "ticks": 4360,
          "time": 50.69767441860465,
          "velocity": 0.2992125984251969
        },
        {
          "duration": 0.05813953488372192,
          "durationTicks": 5,
          "midi": 46,
          "name": "A#2",
          "ticks": 4363,
          "time": 50.73255813953488,
          "velocity": 0.3700787401574803
        },
        {
          "duration": 0.046511627906973274,
          "durationTicks": 4,
          "midi": 70,
          "name": "A#4",
          "ticks": 4364,
          "time": 50.74418604651163,
          "velocity": 0.11023622047244094
        },
        {
          "duration": 0.04651162790698038,
          "durationTicks": 4,
          "midi": 53,
          "name": "F3",
          "ticks": 4365,
          "time": 50.75581395348837,
          "velocity": 0.2125984251968504
        },
        {
          "duration": 0.06976744186046346,
          "durationTicks": 6,
          "midi": 58,
          "name": "A#3",
          "ticks": 4365,
          "time": 50.75581395348837,
          "velocity": 0.4094488188976378
        },
        {
          "duration": 0.15116279069767558,
          "durationTicks": 13,
          "midi": 53,
          "name": "F3",
          "ticks": 4373,
          "time": 50.848837209302324,
          "velocity": 0.48031496062992124
        },
        {
          "duration": 0.03488372093023173,
          "durationTicks": 3,
          "midi": 45,
          "name": "A2",
          "ticks": 4374,
          "time": 50.86046511627907,
          "velocity": 0.4566929133858268
        },
        {
          "duration": 0.03488372093023173,
          "durationTicks": 3,
          "midi": 46,
          "name": "A#2",
          "ticks": 4377,
          "time": 50.895348837209305,
          "velocity": 0.41732283464566927
        },
        {
          "duration": 0.023255813953483084,
          "durationTicks": 2,
          "midi": 59,
          "name": "B3",
          "ticks": 4377,
          "time": 50.895348837209305,
          "velocity": 0.25984251968503935
        },
        {
          "duration": 0.06976744186047057,
          "durationTicks": 6,
          "midi": 60,
          "name": "C4",
          "ticks": 4379,
          "time": 50.91860465116279,
          "velocity": 0.2755905511811024
        },
        {
          "duration": 0.02325581395349019,
          "durationTicks": 2,
          "midi": 46,
          "name": "A#2",
          "ticks": 4381,
          "time": 50.94186046511628,
          "velocity": 0.4330708661417323
        },
        {
          "duration": 0.02325581395349019,
          "durationTicks": 2,
          "midi": 45,
          "name": "A2",
          "ticks": 4383,
          "time": 50.96511627906977,
          "velocity": 0.4330708661417323
        },
        {
          "duration": 0.03488372093023173,
          "durationTicks": 3,
          "midi": 70,
          "name": "A#4",
          "ticks": 4384,
          "time": 50.97674418604651,
          "velocity": 0.12598425196850394
        },
        {
          "duration": 0.023255813953483084,
          "durationTicks": 2,
          "midi": 44,
          "name": "G#2",
          "ticks": 4385,
          "time": 50.98837209302326,
          "velocity": 0.3464566929133858
        },
        {
          "duration": 0.03488372093023173,
          "durationTicks": 3,
          "midi": 44,
          "name": "G#2",
          "ticks": 4388,
          "time": 51.02325581395349,
          "velocity": 0.2283464566929134
        },
        {
          "duration": 0.3953488372092977,
          "durationTicks": 34,
          "midi": 77,
          "name": "F5",
          "ticks": 4393,
          "time": 51.08139534883721,
          "velocity": 0.25984251968503935
        },
        {
          "duration": 0.27906976744186096,
          "durationTicks": 24,
          "midi": 65,
          "name": "F4",
          "ticks": 4394,
          "time": 51.093023255813954,
          "velocity": 0.3779527559055118
        },
        {
          "duration": 0.05813953488372192,
          "durationTicks": 5,
          "midi": 72,
          "name": "C5",
          "ticks": 4394,
          "time": 51.093023255813954,
          "velocity": 0.14173228346456693
        },
        {
          "duration": 0.13953488372092693,
          "durationTicks": 12,
          "midi": 84,
          "name": "C6",
          "ticks": 4394,
          "time": 51.093023255813954,
          "velocity": 0.18110236220472442
        },
        {
          "duration": 0.02325581395349019,
          "durationTicks": 2,
          "midi": 43,
          "name": "G2",
          "ticks": 4395,
          "time": 51.104651162790695,
          "velocity": 0.3228346456692913
        },
        {
          "duration": 0.15116279069767558,
          "durationTicks": 13,
          "midi": 53,
          "name": "F3",
          "ticks": 4395,
          "time": 51.104651162790695,
          "velocity": 0.47244094488188976
        },
        {
          "duration": 0.27906976744186096,
          "durationTicks": 24,
          "midi": 58,
          "name": "A#3",
          "ticks": 4396,
          "time": 51.116279069767444,
          "velocity": 0.3779527559055118
        },
        {
          "duration": 0.23255813953488058,
          "durationTicks": 20,
          "midi": 74,
          "name": "D5",
          "ticks": 4396,
          "time": 51.116279069767444,
          "velocity": 0.07086614173228346
        },
        {
          "duration": 0.13953488372092693,
          "durationTicks": 12,
          "midi": 86,
          "name": "D6",
          "ticks": 4396,
          "time": 51.116279069767444,
          "velocity": 0.15748031496062992
        },
        {
          "duration": 0.02325581395349019,
          "durationTicks": 2,
          "midi": 45,
          "name": "A2",
          "ticks": 4399,
          "time": 51.151162790697676,
          "velocity": 0.4094488188976378
        },
        {
          "duration": 0.02325581395349019,
          "durationTicks": 2,
          "midi": 46,
          "name": "A#2",
          "ticks": 4403,
          "time": 51.19767441860465,
          "velocity": 0.3543307086614173
        },
        {
          "duration": 0.02325581395349019,
          "durationTicks": 2,
          "midi": 45,
          "name": "A2",
          "ticks": 4405,
          "time": 51.22093023255814,
          "velocity": 0.3858267716535433
        },
        {
          "duration": 0.17441860465116577,
          "durationTicks": 15,
          "midi": 91,
          "name": "G6",
          "ticks": 4405,
          "time": 51.22093023255814,
          "velocity": 0.09448818897637795
        },
        {
          "duration": 0.13953488372093403,
          "durationTicks": 12,
          "midi": 93,
          "name": "A6",
          "ticks": 4406,
          "time": 51.23255813953488,
          "velocity": 0.1732283464566929
        },
        {
          "duration": 0.15116279069767558,
          "durationTicks": 13,
          "midi": 101,
          "name": "F7",
          "ticks": 4406,
          "time": 51.23255813953488,
          "velocity": 0.2204724409448819
        },
        {
          "duration": 0.081395348837205,
          "durationTicks": 7,
          "midi": 46,
          "name": "A#2",
          "ticks": 4407,
          "time": 51.24418604651163,
          "velocity": 0.3858267716535433
        },
        {
          "duration": 0.15116279069767558,
          "durationTicks": 13,
          "midi": 84,
          "name": "C6",
          "ticks": 4408,
          "time": 51.25581395348837,
          "velocity": 0.14173228346456693
        },
        {
          "duration": 0.058139534883714816,
          "durationTicks": 5,
          "midi": 53,
          "name": "F3",
          "ticks": 4409,
          "time": 51.26744186046512,
          "velocity": 0.2992125984251969
        },
        {
          "duration": 0.02325581395349019,
          "durationTicks": 2,
          "midi": 52,
          "name": "E3",
          "ticks": 4416,
          "time": 51.348837209302324,
          "velocity": 0.2992125984251969
        },
        {
          "duration": 0.16279069767441712,
          "durationTicks": 14,
          "midi": 62,
          "name": "D4",
          "ticks": 4416,
          "time": 51.348837209302324,
          "velocity": 0.4251968503937008
        },
        {
          "duration": 0.15116279069767558,
          "durationTicks": 13,
          "midi": 81,
          "name": "A5",
          "ticks": 4416,
          "time": 51.348837209302324,
          "velocity": 0.11811023622047244
        },
        {
          "duration": 0.03488372093023173,
          "durationTicks": 3,
          "midi": 46,
          "name": "A#2",
          "ticks": 4417,
          "time": 51.36046511627907,
          "velocity": 0.3779527559055118
        },
        {
          "duration": 0.1860465116279002,
          "durationTicks": 16,
          "midi": 74,
          "name": "D5",
          "ticks": 4417,
          "time": 51.36046511627907,
          "velocity": 0.44881889763779526
        },
        {
          "duration": 0.081395348837205,
          "durationTicks": 7,
          "midi": 98,
          "name": "D7",
          "ticks": 4417,
          "time": 51.36046511627907,
          "velocity": 0.07874015748031496
        },
        {
          "duration": 0.1046511627906952,
          "durationTicks": 9,
          "midi": 53,
          "name": "F3",
          "ticks": 4418,
          "time": 51.372093023255815,
          "velocity": 0.44881889763779526
        },
        {
          "duration": 0.06976744186046346,
          "durationTicks": 6,
          "midi": 58,
          "name": "A#3",
          "ticks": 4421,
          "time": 51.406976744186046,
          "velocity": 0.3700787401574803
        },
        {
          "duration": 0.06976744186046346,
          "durationTicks": 6,
          "midi": 72,
          "name": "C5",
          "ticks": 4421,
          "time": 51.406976744186046,
          "velocity": 0.08661417322834646
        },
        {
          "duration": 0.06976744186047057,
          "durationTicks": 6,
          "midi": 46,
          "name": "A#2",
          "ticks": 4422,
          "time": 51.41860465116279,
          "velocity": 0.3700787401574803
        },
        {
          "duration": 0.02325581395349019,
          "durationTicks": 2,
          "midi": 52,
          "name": "E3",
          "ticks": 4427,
          "time": 51.47674418604651,
          "velocity": 0.30708661417322836
        },
        {
          "duration": 0.023255813953483084,
          "durationTicks": 2,
          "midi": 45,
          "name": "A2",
          "ticks": 4428,
          "time": 51.48837209302326,
          "velocity": 0.3464566929133858
        },
        {
          "duration": 0.03488372093023173,
          "durationTicks": 3,
          "midi": 71,
          "name": "B4",
          "ticks": 4428,
          "time": 51.48837209302326,
          "velocity": 0.11811023622047244
        },
        {
          "duration": 0.02325581395349019,
          "durationTicks": 2,
          "midi": 53,
          "name": "F3",
          "ticks": 4429,
          "time": 51.5,
          "velocity": 0.25196850393700787
        },
        {
          "duration": 0.08139534883721211,
          "durationTicks": 7,
          "midi": 77,
          "name": "F5",
          "ticks": 4429,
          "time": 51.5,
          "velocity": 0.2283464566929134
        },
        {
          "duration": 0.08139534883721211,
          "durationTicks": 7,
          "midi": 101,
          "name": "F7",
          "ticks": 4429,
          "time": 51.5,
          "velocity": 0.16535433070866143
        },
        {
          "duration": 0.06976744186047057,
          "durationTicks": 6,
          "midi": 93,
          "name": "A6",
          "ticks": 4430,
          "time": 51.51162790697674,
          "velocity": 0.07874015748031496
        },
        {
          "duration": 0.03488372093023173,
          "durationTicks": 3,
          "midi": 44,
          "name": "G#2",
          "ticks": 4432,
          "time": 51.53488372093023,
          "velocity": 0.4094488188976378
        },
        {
          "duration": 0.023255813953483084,
          "durationTicks": 2,
          "midi": 44,
          "name": "G#2",
          "ticks": 4436,
          "time": 51.58139534883721,
          "velocity": 0.25196850393700787
        },
        {
          "duration": 0.16279069767442422,
          "durationTicks": 14,
          "midi": 67,
          "name": "G4",
          "ticks": 4438,
          "time": 51.604651162790695,
          "velocity": 0.25984251968503935
        },
        {
          "duration": 0.16279069767441712,
          "durationTicks": 14,
          "midi": 79,
          "name": "G5",
          "ticks": 4439,
          "time": 51.616279069767444,
          "velocity": 0.36220472440944884
        },
        {
          "duration": 0.03488372093023173,
          "durationTicks": 3,
          "midi": 84,
          "name": "C6",
          "ticks": 4440,
          "time": 51.627906976744185,
          "velocity": 0.13385826771653545
        },
        {
          "duration": 0.2325581395348877,
          "durationTicks": 20,
          "midi": 53,
          "name": "F3",
          "ticks": 4441,
          "time": 51.63953488372093,
          "velocity": 0.47244094488188976
        },
        {
          "duration": 0.3604651162790731,
          "durationTicks": 31,
          "midi": 72,
          "name": "C5",
          "ticks": 4441,
          "time": 51.63953488372093,
          "velocity": 0.1889763779527559
        },
        {
          "duration": 0.13953488372093403,
          "durationTicks": 12,
          "midi": 74,
          "name": "D5",
          "ticks": 4441,
          "time": 51.63953488372093,
          "velocity": 0.11811023622047244
        },
        {
          "duration": 0.06976744186047057,
          "durationTicks": 6,
          "midi": 101,
          "name": "F7",
          "ticks": 4441,
          "time": 51.63953488372093,
          "velocity": 0.15748031496062992
        },
        {
          "duration": 0.03488372093023173,
          "durationTicks": 3,
          "midi": 46,
          "name": "A#2",
          "ticks": 4442,
          "time": 51.651162790697676,
          "velocity": 0.3858267716535433
        },
        {
          "duration": 0.06976744186047057,
          "durationTicks": 6,
          "midi": 95,
          "name": "B6",
          "ticks": 4446,
          "time": 51.69767441860465,
          "velocity": 0.09448818897637795
        },
        {
          "duration": 0.06976744186047057,
          "durationTicks": 6,
          "midi": 98,
          "name": "D7",
          "ticks": 4446,
          "time": 51.69767441860465,
          "velocity": 0.10236220472440945
        },
        {
          "duration": 0.09302325581395365,
          "durationTicks": 8,
          "midi": 46,
          "name": "A#2",
          "ticks": 4452,
          "time": 51.76744186046512,
          "velocity": 0.3858267716535433
        },
        {
          "duration": 0.13953488372092693,
          "durationTicks": 12,
          "midi": 68,
          "name": "G#4",
          "ticks": 4452,
          "time": 51.76744186046512,
          "velocity": 0.2677165354330709
        },
        {
          "duration": 0.12790697674418539,
          "durationTicks": 11,
          "midi": 87,
          "name": "D#6",
          "ticks": 4452,
          "time": 51.76744186046512,
          "velocity": 0.12598425196850394
        },
        {
          "duration": 0.12790697674418539,
          "durationTicks": 11,
          "midi": 80,
          "name": "G#5",
          "ticks": 4453,
          "time": 51.77906976744186,
          "velocity": 0.36220472440944884
        },
        {
          "duration": 0.081395348837205,
          "durationTicks": 7,
          "midi": 99,
          "name": "D#7",
          "ticks": 4455,
          "time": 51.80232558139535,
          "velocity": 0.14173228346456693
        },
        {
          "duration": 0.05813953488372192,
          "durationTicks": 5,
          "midi": 74,
          "name": "D5",
          "ticks": 4458,
          "time": 51.83720930232558,
          "velocity": 0.10236220472440945
        },
        {
          "duration": 0.02325581395349019,
          "durationTicks": 2,
          "midi": 46,
          "name": "A#2",
          "ticks": 4461,
          "time": 51.872093023255815,
          "velocity": 0.36220472440944884
        },
        {
          "duration": 0.02325581395349019,
          "durationTicks": 2,
          "midi": 55,
          "name": "G3",
          "ticks": 4462,
          "time": 51.883720930232556,
          "velocity": 0.4015748031496063
        },
        {
          "duration": 0.023255813953483084,
          "durationTicks": 2,
          "midi": 47,
          "name": "B2",
          "ticks": 4463,
          "time": 51.895348837209305,
          "velocity": 0.33858267716535434
        },
        {
          "duration": 0.03488372093023173,
          "durationTicks": 3,
          "midi": 86,
          "name": "D6",
          "ticks": 4463,
          "time": 51.895348837209305,
          "velocity": 0.13385826771653545
        },
        {
          "duration": 0.11627906976744384,
          "durationTicks": 10,
          "midi": 53,
          "name": "F3",
          "ticks": 4464,
          "time": 51.906976744186046,
          "velocity": 0.3858267716535433
        },
        {
          "duration": 0.13953488372092693,
          "durationTicks": 12,
          "midi": 67,
          "name": "G4",
          "ticks": 4464,
          "time": 51.906976744186046,
          "velocity": 0.2283464566929134
        },
        {
          "duration": 0.16279069767441712,
          "durationTicks": 14,
          "midi": 79,
          "name": "G5",
          "ticks": 4464,
          "time": 51.906976744186046,
          "velocity": 0.4015748031496063
        },
        {
          "duration": 0.03488372093023884,
          "durationTicks": 3,
          "midi": 46,
          "name": "A#2",
          "ticks": 4465,
          "time": 51.91860465116279,
          "velocity": 0.4015748031496063
        },
        {
          "duration": 0.05813953488372192,
          "durationTicks": 5,
          "midi": 46,
          "name": "A#2",
          "ticks": 4469,
          "time": 51.96511627906977,
          "velocity": 0.3700787401574803
        },
        {
          "duration": 0.08139534883721211,
          "durationTicks": 7,
          "midi": 77,
          "name": "F5",
          "ticks": 4475,
          "time": 52.03488372093023,
          "velocity": 0.1732283464566929
        },
        {
          "duration": 0.08139534883721211,
          "durationTicks": 7,
          "midi": 72,
          "name": "C5",
          "ticks": 4476,
          "time": 52.04651162790697,
          "velocity": 0.11023622047244094
        },
        {
          "duration": 0.03488372093023884,
          "durationTicks": 3,
          "midi": 74,
          "name": "D5",
          "ticks": 4476,
          "time": 52.04651162790697,
          "velocity": 0.11023622047244094
        },
        {
          "duration": 0.09302325581395365,
          "durationTicks": 8,
          "midi": 66,
          "name": "F#4",
          "ticks": 4477,
          "time": 52.05813953488372,
          "velocity": 0.2755905511811024
        },
        {
          "duration": 0.04651162790698038,
          "durationTicks": 4,
          "midi": 52,
          "name": "E3",
          "ticks": 4478,
          "time": 52.06976744186046,
          "velocity": 0.3228346456692913
        },
        {
          "duration": 0.03488372093023173,
          "durationTicks": 3,
          "midi": 57,
          "name": "A3",
          "ticks": 4478,
          "time": 52.06976744186046,
          "velocity": 0.30708661417322836
        },
        {
          "duration": 0.04651162790698038,
          "durationTicks": 4,
          "midi": 84,
          "name": "C6",
          "ticks": 4478,
          "time": 52.06976744186046,
          "velocity": 0.14960629921259844
        },
        {
          "duration": 0.046511627906973274,
          "durationTicks": 4,
          "midi": 45,
          "name": "A2",
          "ticks": 4480,
          "time": 52.093023255813954,
          "velocity": 0.3700787401574803
        },
        {
          "duration": 0.04651162790698038,
          "durationTicks": 4,
          "midi": 59,
          "name": "B3",
          "ticks": 4483,
          "time": 52.127906976744185,
          "velocity": 0.3858267716535433
        },
        {
          "duration": 0.02325581395349019,
          "durationTicks": 2,
          "midi": 46,
          "name": "A#2",
          "ticks": 4484,
          "time": 52.13953488372093,
          "velocity": 0.30708661417322836
        },
        {
          "duration": 0.02325581395349019,
          "durationTicks": 2,
          "midi": 65,
          "name": "F4",
          "ticks": 4484,
          "time": 52.13953488372093,
          "velocity": 0.2440944881889764
        },
        {
          "duration": 0.02325581395349019,
          "durationTicks": 2,
          "midi": 53,
          "name": "F3",
          "ticks": 4485,
          "time": 52.151162790697676,
          "velocity": 0.3779527559055118
        },
        {
          "duration": 0.2906976744186025,
          "durationTicks": 25,
          "midi": 74,
          "name": "D5",
          "ticks": 4485,
          "time": 52.151162790697676,
          "velocity": 0.4015748031496063
        },
        {
          "duration": 0.13953488372092693,
          "durationTicks": 12,
          "midi": 62,
          "name": "D4",
          "ticks": 4487,
          "time": 52.174418604651166,
          "velocity": 0.3937007874015748
        },
        {
          "duration": 0.27906976744186096,
          "durationTicks": 24,
          "midi": 55,
          "name": "G3",
          "ticks": 4488,
          "time": 52.18604651162791,
          "velocity": 0.5039370078740157
        },
        {
          "duration": 0.06976744186047057,
          "durationTicks": 6,
          "midi": 45,
          "name": "A2",
          "ticks": 4489,
          "time": 52.19767441860465,
          "velocity": 0.4409448818897638
        },
        {
          "duration": 0.03488372093023173,
          "durationTicks": 3,
          "midi": 43,
          "name": "G2",
          "ticks": 4496,
          "time": 52.27906976744186,
          "velocity": 0.25196850393700787
        },
        {
          "duration": 0.2093023255813904,
          "durationTicks": 18,
          "midi": 84,
          "name": "C6",
          "ticks": 4498,
          "time": 52.30232558139535,
          "velocity": 0.2677165354330709
        },
        {
          "duration": 0.1046511627906952,
          "durationTicks": 9,
          "midi": 101,
          "name": "F7",
          "ticks": 4498,
          "time": 52.30232558139535,
          "velocity": 0.1968503937007874
        },
        {
          "duration": 0.1046511627906952,
          "durationTicks": 9,
          "midi": 79,
          "name": "G5",
          "ticks": 4499,
          "time": 52.31395348837209,
          "velocity": 0.3858267716535433
        },
        {
          "duration": 0.05813953488372192,
          "durationTicks": 5,
          "midi": 90,
          "name": "F#6",
          "ticks": 4500,
          "time": 52.325581395348834,
          "velocity": 0.07086614173228346
        },
        {
          "duration": 0.02325581395349019,
          "durationTicks": 2,
          "midi": 43,
          "name": "G2",
          "ticks": 4501,
          "time": 52.33720930232558,
          "velocity": 0.33858267716535434
        },
        {
          "duration": 0.06976744186046346,
          "durationTicks": 6,
          "midi": 62,
          "name": "D4",
          "ticks": 4501,
          "time": 52.33720930232558,
          "velocity": 0.3779527559055118
        },
        {
          "duration": 0.02325581395349019,
          "durationTicks": 2,
          "midi": 43,
          "name": "G2",
          "ticks": 4504,
          "time": 52.372093023255815,
          "velocity": 0.31496062992125984
        },
        {
          "duration": 0.06976744186046346,
          "durationTicks": 6,
          "midi": 60,
          "name": "C4",
          "ticks": 4506,
          "time": 52.395348837209305,
          "velocity": 0.31496062992125984
        },
        {
          "duration": 0.081395348837205,
          "durationTicks": 7,
          "midi": 65,
          "name": "F4",
          "ticks": 4506,
          "time": 52.395348837209305,
          "velocity": 0.2204724409448819
        },
        {
          "duration": 0.081395348837205,
          "durationTicks": 7,
          "midi": 93,
          "name": "A6",
          "ticks": 4506,
          "time": 52.395348837209305,
          "velocity": 0.09448818897637795
        },
        {
          "duration": 0.04651162790698038,
          "durationTicks": 4,
          "midi": 48,
          "name": "C3",
          "ticks": 4507,
          "time": 52.406976744186046,
          "velocity": 0.3464566929133858
        },
        {
          "duration": 0.046511627906973274,
          "durationTicks": 4,
          "midi": 48,
          "name": "C3",
          "ticks": 4512,
          "time": 52.46511627906977,
          "velocity": 0.3228346456692913
        },
        {
          "duration": 0.046511627906973274,
          "durationTicks": 4,
          "midi": 91,
          "name": "G6",
          "ticks": 4512,
          "time": 52.46511627906977,
          "velocity": 0.11811023622047244
        },
        {
          "duration": 0.02325581395349019,
          "durationTicks": 2,
          "midi": 55,
          "name": "G3",
          "ticks": 4513,
          "time": 52.47674418604651,
          "velocity": 0.2677165354330709
        },
        {
          "duration": 0.2674418604651194,
          "durationTicks": 23,
          "midi": 74,
          "name": "D5",
          "ticks": 4513,
          "time": 52.47674418604651,
          "velocity": 0.44881889763779526
        },
        {
          "duration": 0.2093023255813904,
          "durationTicks": 18,
          "midi": 81,
          "name": "A5",
          "ticks": 4514,
          "time": 52.48837209302326,
          "velocity": 0.07874015748031496
        },
        {
          "duration": 0.1860465116279073,
          "durationTicks": 16,
          "midi": 62,
          "name": "D4",
          "ticks": 4515,
          "time": 52.5,
          "velocity": 0.4251968503937008
        },
        {
          "duration": 0.023255813953483084,
          "durationTicks": 2,
          "midi": 42,
          "name": "F#2",
          "ticks": 4517,
          "time": 52.52325581395349,
          "velocity": 0.2992125984251969
        },
        {
          "duration": 0.02325581395349019,
          "durationTicks": 2,
          "midi": 54,
          "name": "F#3",
          "ticks": 4519,
          "time": 52.54651162790697,
          "velocity": 0.33070866141732286
        },
        {
          "duration": 0.15116279069767558,
          "durationTicks": 13,
          "midi": 77,
          "name": "F5",
          "ticks": 4519,
          "time": 52.54651162790697,
          "velocity": 0.2283464566929134
        },
        {
          "duration": 0.081395348837205,
          "durationTicks": 7,
          "midi": 65,
          "name": "F4",
          "ticks": 4520,
          "time": 52.55813953488372,
          "velocity": 0.23622047244094488
        },
        {
          "duration": 0.1860465116279073,
          "durationTicks": 16,
          "midi": 71,
          "name": "B4",
          "ticks": 4520,
          "time": 52.55813953488372,
          "velocity": 0.15748031496062992
        },
        {
          "duration": 0.1860465116279073,
          "durationTicks": 16,
          "midi": 84,
          "name": "C6",
          "ticks": 4520,
          "time": 52.55813953488372,
          "velocity": 0.2992125984251969
        },
        {
          "duration": 0.17441860465116577,
          "durationTicks": 15,
          "midi": 55,
          "name": "G3",
          "ticks": 4521,
          "time": 52.56976744186046,
          "velocity": 0.41732283464566927
        },
        {
          "duration": 0.03488372093023173,
          "durationTicks": 3,
          "midi": 76,
          "name": "E5",
          "ticks": 4521,
          "time": 52.56976744186046,
          "velocity": 0.14960629921259844
        },
        {
          "duration": 0.06976744186046346,
          "durationTicks": 6,
          "midi": 93,
          "name": "A6",
          "ticks": 4522,
          "time": 52.58139534883721,
          "velocity": 0.13385826771653545
        },
        {
          "duration": 0.15116279069767558,
          "durationTicks": 13,
          "midi": 79,
          "name": "G5",
          "ticks": 4524,
          "time": 52.604651162790695,
          "velocity": 0.11811023622047244
        },
        {
          "duration": 0.023255813953483084,
          "durationTicks": 2,
          "midi": 44,
          "name": "G#2",
          "ticks": 4525,
          "time": 52.616279069767444,
          "velocity": 0.4330708661417323
        },
        {
          "duration": 0.03488372093023173,
          "durationTicks": 3,
          "midi": 65,
          "name": "F4",
          "ticks": 4528,
          "time": 52.651162790697676,
          "velocity": 0.2125984251968504
        },
        {
          "duration": 0.02325581395349019,
          "durationTicks": 2,
          "midi": 43,
          "name": "G2",
          "ticks": 4531,
          "time": 52.68604651162791,
          "velocity": 0.2992125984251969
        },
        {
          "duration": 0.02325581395349019,
          "durationTicks": 2,
          "midi": 48,
          "name": "C3",
          "ticks": 4531,
          "time": 52.68604651162791,
          "velocity": 0.3228346456692913
        },
        {
          "duration": 0.02325581395349019,
          "durationTicks": 2,
          "midi": 43,
          "name": "G2",
          "ticks": 4537,
          "time": 52.75581395348837,
          "velocity": 0.3700787401574803
        },
        {
          "duration": 0.03488372093023173,
          "durationTicks": 3,
          "midi": 71,
          "name": "B4",
          "ticks": 4537,
          "time": 52.75581395348837,
          "velocity": 0.12598425196850394
        },
        {
          "duration": 0.02325581395349019,
          "durationTicks": 2,
          "midi": 44,
          "name": "G#2",
          "ticks": 4539,
          "time": 52.77906976744186,
          "velocity": 0.3700787401574803
        },
        {
          "duration": 0.02325581395349019,
          "durationTicks": 2,
          "midi": 54,
          "name": "F#3",
          "ticks": 4539,
          "time": 52.77906976744186,
          "velocity": 0.25196850393700787
        },
        {
          "duration": 0.6395348837209269,
          "durationTicks": 55,
          "midi": 67,
          "name": "G4",
          "ticks": 4539,
          "time": 52.77906976744186,
          "velocity": 0.2677165354330709
        },
        {
          "duration": 0.7906976744186025,
          "durationTicks": 68,
          "midi": 79,
          "name": "G5",
          "ticks": 4539,
          "time": 52.77906976744186,
          "velocity": 0.3779527559055118
        },
        {
          "duration": 0.2674418604651194,
          "durationTicks": 23,
          "midi": 86,
          "name": "D6",
          "ticks": 4540,
          "time": 52.7906976744186,
          "velocity": 0.14173228346456693
        },
        {
          "duration": 0.3720930232558146,
          "durationTicks": 32,
          "midi": 101,
          "name": "F7",
          "ticks": 4540,
          "time": 52.7906976744186,
          "velocity": 0.23622047244094488
        },
        {
          "duration": 0.1279069767441925,
          "durationTicks": 11,
          "midi": 44,
          "name": "G#2",
          "ticks": 4543,
          "time": 52.825581395348834,
          "velocity": 0.33858267716535434
        },
        {
          "duration": 0.02325581395349019,
          "durationTicks": 2,
          "midi": 55,
          "name": "G3",
          "ticks": 4543,
          "time": 52.825581395348834,
          "velocity": 0.36220472440944884
        },
        {
          "duration": 0.13953488372093403,
          "durationTicks": 12,
          "midi": 95,
          "name": "B6",
          "ticks": 4545,
          "time": 52.848837209302324,
          "velocity": 0.16535433070866143
        },
        {
          "duration": 0.02325581395349019,
          "durationTicks": 2,
          "midi": 55,
          "name": "G3",
          "ticks": 4553,
          "time": 52.94186046511628,
          "velocity": 0.41732283464566927
        },
        {
          "duration": 0.03488372093023173,
          "durationTicks": 3,
          "midi": 89,
          "name": "F6",
          "ticks": 4553,
          "time": 52.94186046511628,
          "velocity": 0.14173228346456693
        },
        {
          "duration": 0.023255813953483084,
          "durationTicks": 2,
          "midi": 45,
          "name": "A2",
          "ticks": 4554,
          "time": 52.95348837209303,
          "velocity": 0.3700787401574803
        },
        {
          "duration": 0.1046511627906952,
          "durationTicks": 9,
          "midi": 60,
          "name": "C4",
          "ticks": 4554,
          "time": 52.95348837209303,
          "velocity": 0.31496062992125984
        },
        {
          "duration": 0.09302325581394655,
          "durationTicks": 8,
          "midi": 76,
          "name": "E5",
          "ticks": 4554,
          "time": 52.95348837209303,
          "velocity": 0.2125984251968504
        },
        {
          "duration": 0.03488372093023173,
          "durationTicks": 3,
          "midi": 90,
          "name": "F#6",
          "ticks": 4554,
          "time": 52.95348837209303,
          "velocity": 0.09448818897637795
        },
        {
          "duration": 0.02325581395349019,
          "durationTicks": 2,
          "midi": 43,
          "name": "G2",
          "ticks": 4556,
          "time": 52.97674418604651,
          "velocity": 0.4094488188976378
        },
        {
          "duration": 0.046511627906973274,
          "durationTicks": 4,
          "midi": 55,
          "name": "G3",
          "ticks": 4558,
          "time": 53,
          "velocity": 0.4094488188976378
        },
        {
          "duration": 0.023255813953483084,
          "durationTicks": 2,
          "midi": 44,
          "name": "G#2",
          "ticks": 4560,
          "time": 53.02325581395349,
          "velocity": 0.3779527559055118
        },
        {
          "duration": 0.02325581395349019,
          "durationTicks": 2,
          "midi": 44,
          "name": "G#2",
          "ticks": 4563,
          "time": 53.05813953488372,
          "velocity": 0.2992125984251969
        },
        {
          "duration": 0.02325581395349019,
          "durationTicks": 2,
          "midi": 55,
          "name": "G3",
          "ticks": 4563,
          "time": 53.05813953488372,
          "velocity": 0.25984251968503935
        },
        {
          "duration": 0.03488372093023173,
          "durationTicks": 3,
          "midi": 43,
          "name": "G2",
          "ticks": 4565,
          "time": 53.08139534883721,
          "velocity": 0.25984251968503935
        },
        {
          "duration": 0.06976744186047057,
          "durationTicks": 6,
          "midi": 56,
          "name": "G#3",
          "ticks": 4567,
          "time": 53.104651162790695,
          "velocity": 0.1732283464566929
        },
        {
          "duration": 0.03488372093023173,
          "durationTicks": 3,
          "midi": 45,
          "name": "A2",
          "ticks": 4568,
          "time": 53.116279069767444,
          "velocity": 0.36220472440944884
        },
        {
          "duration": 0.03488372093023173,
          "durationTicks": 3,
          "midi": 44,
          "name": "G#2",
          "ticks": 4571,
          "time": 53.151162790697676,
          "velocity": 0.1968503937007874
        },
        {
          "duration": 0.023255813953483084,
          "durationTicks": 2,
          "midi": 58,
          "name": "A#3",
          "ticks": 4573,
          "time": 53.174418604651166,
          "velocity": 0.3464566929133858
        },
        {
          "duration": 0.23255813953488058,
          "durationTicks": 20,
          "midi": 55,
          "name": "G3",
          "ticks": 4576,
          "time": 53.2093023255814,
          "velocity": 0.5354330708661418
        },
        {
          "duration": 0.02325581395349019,
          "durationTicks": 2,
          "midi": 45,
          "name": "A2",
          "ticks": 4577,
          "time": 53.22093023255814,
          "velocity": 0.33070866141732286
        },
        {
          "duration": 0.3720930232558146,
          "durationTicks": 32,
          "midi": 60,
          "name": "C4",
          "ticks": 4577,
          "time": 53.22093023255814,
          "velocity": 0.3464566929133858
        },
        {
          "duration": 0.13953488372093403,
          "durationTicks": 12,
          "midi": 48,
          "name": "C3",
          "ticks": 4585,
          "time": 53.31395348837209,
          "velocity": 0.3228346456692913
        },
        {
          "duration": 0.12790697674418539,
          "durationTicks": 11,
          "midi": 67,
          "name": "G4",
          "ticks": 4596,
          "time": 53.44186046511628,
          "velocity": 0.2125984251968504
        },
        {
          "duration": 0.05813953488372192,
          "durationTicks": 5,
          "midi": 84,
          "name": "C6",
          "ticks": 4598,
          "time": 53.46511627906977,
          "velocity": 0.07874015748031496
        },
        {
          "duration": 0.11627906976744384,
          "durationTicks": 10,
          "midi": 86,
          "name": "D6",
          "ticks": 4598,
          "time": 53.46511627906977,
          "velocity": 0.1732283464566929
        },
        {
          "duration": 0.06976744186046346,
          "durationTicks": 6,
          "midi": 48,
          "name": "C3",
          "ticks": 4599,
          "time": 53.47674418604651,
          "velocity": 0.36220472440944884
        },
        {
          "duration": 0.15116279069767558,
          "durationTicks": 13,
          "midi": 55,
          "name": "G3",
          "ticks": 4599,
          "time": 53.47674418604651,
          "velocity": 0.4409448818897638
        },
        {
          "duration": 0.03488372093023173,
          "durationTicks": 3,
          "midi": 80,
          "name": "G#5",
          "ticks": 4607,
          "time": 53.56976744186046,
          "velocity": 0.14960629921259844
        },
        {
          "duration": 0.023255813953483084,
          "durationTicks": 2,
          "midi": 43,
          "name": "G2",
          "ticks": 4608,
          "time": 53.58139534883721,
          "velocity": 0.2440944881889764
        },
        {
          "duration": 0.023255813953483084,
          "durationTicks": 2,
          "midi": 43,
          "name": "G2",
          "ticks": 4611,
          "time": 53.616279069767444,
          "velocity": 0.25196850393700787
        },
        {
          "duration": 0.03488372093023173,
          "durationTicks": 3,
          "midi": 56,
          "name": "G#3",
          "ticks": 4612,
          "time": 53.627906976744185,
          "velocity": 0.14960629921259844
        },
        {
          "duration": 0.03488372093023173,
          "durationTicks": 3,
          "midi": 45,
          "name": "A2",
          "ticks": 4614,
          "time": 53.651162790697676,
          "velocity": 0.1889763779527559
        },
        {
          "duration": 0.02325581395349019,
          "durationTicks": 2,
          "midi": 55,
          "name": "G3",
          "ticks": 4617,
          "time": 53.68604651162791,
          "velocity": 0.4094488188976378
        },
        {
          "duration": 0.02325581395349019,
          "durationTicks": 2,
          "midi": 60,
          "name": "C4",
          "ticks": 4617,
          "time": 53.68604651162791,
          "velocity": 0.2992125984251969
        },
        {
          "duration": 0.04651162790698038,
          "durationTicks": 4,
          "midi": 45,
          "name": "A2",
          "ticks": 4618,
          "time": 53.69767441860465,
          "velocity": 0.3543307086614173
        },
        {
          "duration": 0.3720930232558146,
          "durationTicks": 32,
          "midi": 86,
          "name": "D6",
          "ticks": 4619,
          "time": 53.7093023255814,
          "velocity": 0.13385826771653545
        },
        {
          "duration": 0.25581395348837077,
          "durationTicks": 22,
          "midi": 60,
          "name": "C4",
          "ticks": 4620,
          "time": 53.72093023255814,
          "velocity": 0.33858267716535434
        },
        {
          "duration": 0.1279069767441925,
          "durationTicks": 11,
          "midi": 55,
          "name": "G3",
          "ticks": 4621,
          "time": 53.73255813953488,
          "velocity": 0.5275590551181102
        },
        {
          "duration": 0.1860465116279073,
          "durationTicks": 16,
          "midi": 48,
          "name": "C3",
          "ticks": 4627,
          "time": 53.80232558139535,
          "velocity": 0.3464566929133858
        },
        {
          "duration": 0.1046511627906952,
          "durationTicks": 9,
          "midi": 55,
          "name": "G3",
          "ticks": 4633,
          "time": 53.872093023255815,
          "velocity": 0.3937007874015748
        },
        {
          "duration": 0.2674418604651123,
          "durationTicks": 23,
          "midi": 68,
          "name": "G#4",
          "ticks": 4641,
          "time": 53.96511627906977,
          "velocity": 0.3543307086614173
        },
        {
          "duration": 0.046511627906973274,
          "durationTicks": 4,
          "midi": 71,
          "name": "B4",
          "ticks": 4641,
          "time": 53.96511627906977,
          "velocity": 0.2283464566929134
        },
        {
          "duration": 0.02325581395349019,
          "durationTicks": 2,
          "midi": 54,
          "name": "F#3",
          "ticks": 4642,
          "time": 53.97674418604651,
          "velocity": 0.44881889763779526
        },
        {
          "duration": 0.2674418604651194,
          "durationTicks": 23,
          "midi": 87,
          "name": "D#6",
          "ticks": 4642,
          "time": 53.97674418604651,
          "velocity": 0.2677165354330709
        },
        {
          "duration": 0.06976744186046346,
          "durationTicks": 6,
          "midi": 102,
          "name": "F#7",
          "ticks": 4642,
          "time": 53.97674418604651,
          "velocity": 0.13385826771653545
        },
        {
          "duration": 0.1046511627906952,
          "durationTicks": 9,
          "midi": 60,
          "name": "C4",
          "ticks": 4643,
          "time": 53.98837209302326,
          "velocity": 0.28346456692913385
        },
        {
          "duration": 0.09302325581395365,
          "durationTicks": 8,
          "midi": 55,
          "name": "G3",
          "ticks": 4644,
          "time": 54,
          "velocity": 0.48031496062992124
        },
        {
          "duration": 0.02325581395349019,
          "durationTicks": 2,
          "midi": 48,
          "name": "C3",
          "ticks": 4650,
          "time": 54.06976744186046,
          "velocity": 0.29133858267716534
        },
        {
          "duration": 0.02325581395349019,
          "durationTicks": 2,
          "midi": 62,
          "name": "D4",
          "ticks": 4652,
          "time": 54.093023255813954,
          "velocity": 0.29133858267716534
        },
        {
          "duration": 0.04651162790698038,
          "durationTicks": 4,
          "midi": 43,
          "name": "G2",
          "ticks": 4653,
          "time": 54.104651162790695,
          "velocity": 0.33858267716535434
        },
        {
          "duration": 0.081395348837205,
          "durationTicks": 7,
          "midi": 55,
          "name": "G3",
          "ticks": 4654,
          "time": 54.116279069767444,
          "velocity": 0.4645669291338583
        },
        {
          "duration": 0.05813953488372192,
          "durationTicks": 5,
          "midi": 60,
          "name": "C4",
          "ticks": 4654,
          "time": 54.116279069767444,
          "velocity": 0.28346456692913385
        },
        {
          "duration": 0.09302325581395365,
          "durationTicks": 8,
          "midi": 86,
          "name": "D6",
          "ticks": 4655,
          "time": 54.127906976744185,
          "velocity": 0.09448818897637795
        },
        {
          "duration": 0.023255813953483084,
          "durationTicks": 2,
          "midi": 44,
          "name": "G#2",
          "ticks": 4659,
          "time": 54.174418604651166,
          "velocity": 0.3858267716535433
        },
        {
          "duration": 0.02325581395349019,
          "durationTicks": 2,
          "midi": 43,
          "name": "G2",
          "ticks": 4661,
          "time": 54.19767441860465,
          "velocity": 0.30708661417322836
        },
        {
          "duration": 0.03488372093023173,
          "durationTicks": 3,
          "midi": 55,
          "name": "G3",
          "ticks": 4662,
          "time": 54.2093023255814,
          "velocity": 0.4330708661417323
        },
        {
          "duration": 0.04651162790698038,
          "durationTicks": 4,
          "midi": 44,
          "name": "G#2",
          "ticks": 4663,
          "time": 54.22093023255814,
          "velocity": 0.4015748031496063
        },
        {
          "duration": 0.13953488372093403,
          "durationTicks": 12,
          "midi": 64,
          "name": "E4",
          "ticks": 4663,
          "time": 54.22093023255814,
          "velocity": 0.2125984251968504
        },
        {
          "duration": 0.1279069767441925,
          "durationTicks": 11,
          "midi": 69,
          "name": "A4",
          "ticks": 4664,
          "time": 54.23255813953488,
          "velocity": 0.3700787401574803
        },
        {
          "duration": 0.03488372093023173,
          "durationTicks": 3,
          "midi": 56,
          "name": "G#3",
          "ticks": 4665,
          "time": 54.24418604651163,
          "velocity": 0.47244094488188976
        },
        {
          "duration": 0.09302325581395365,
          "durationTicks": 8,
          "midi": 45,
          "name": "A2",
          "ticks": 4667,
          "time": 54.26744186046512,
          "velocity": 0.4330708661417323
        },
        {
          "duration": 0.16279069767441712,
          "durationTicks": 14,
          "midi": 84,
          "name": "C6",
          "ticks": 4674,
          "time": 54.348837209302324,
          "velocity": 0.3543307086614173
        },
        {
          "duration": 0.02325581395349019,
          "durationTicks": 2,
          "midi": 50,
          "name": "D3",
          "ticks": 4676,
          "time": 54.372093023255815,
          "velocity": 0.3700787401574803
        },
        {
          "duration": 0.13953488372092693,
          "durationTicks": 12,
          "midi": 72,
          "name": "C5",
          "ticks": 4676,
          "time": 54.372093023255815,
          "velocity": 0.41732283464566927
        },
        {
          "duration": 0.24418604651162923,
          "durationTicks": 21,
          "midi": 76,
          "name": "E5",
          "ticks": 4676,
          "time": 54.372093023255815,
          "velocity": 0.2125984251968504
        },
        {
          "duration": 0.11627906976744384,
          "durationTicks": 10,
          "midi": 85,
          "name": "C#6",
          "ticks": 4676,
          "time": 54.372093023255815,
          "velocity": 0.12598425196850394
        },
        {
          "duration": 0.11627906976744384,
          "durationTicks": 10,
          "midi": 100,
          "name": "E7",
          "ticks": 4676,
          "time": 54.372093023255815,
          "velocity": 0.14960629921259844
        },
        {
          "duration": 0.02325581395349019,
          "durationTicks": 2,
          "midi": 44,
          "name": "G#2",
          "ticks": 4677,
          "time": 54.383720930232556,
          "velocity": 0.33858267716535434
        },
        {
          "duration": 0.12790697674418539,
          "durationTicks": 11,
          "midi": 91,
          "name": "G6",
          "ticks": 4677,
          "time": 54.383720930232556,
          "velocity": 0.16535433070866143
        },
        {
          "duration": 0.1046511627906952,
          "durationTicks": 9,
          "midi": 45,
          "name": "A2",
          "ticks": 4681,
          "time": 54.43023255813954,
          "velocity": 0.4094488188976378
        },
        {
          "duration": 0.06976744186046346,
          "durationTicks": 6,
          "midi": 64,
          "name": "E4",
          "ticks": 4684,
          "time": 54.46511627906977,
          "velocity": 0.08661417322834646
        },
        {
          "duration": 0.02325581395349019,
          "durationTicks": 2,
          "midi": 50,
          "name": "D3",
          "ticks": 4688,
          "time": 54.51162790697674,
          "velocity": 0.2992125984251969
        },
        {
          "duration": 0.04651162790698038,
          "durationTicks": 4,
          "midi": 45,
          "name": "A2",
          "ticks": 4693,
          "time": 54.56976744186046,
          "velocity": 0.3228346456692913
        },
        {
          "duration": 0.02325581395349019,
          "durationTicks": 2,
          "midi": 50,
          "name": "D3",
          "ticks": 4693,
          "time": 54.56976744186046,
          "velocity": 0.31496062992125984
        },
        {
          "duration": 0.02325581395349019,
          "durationTicks": 2,
          "midi": 52,
          "name": "E3",
          "ticks": 4696,
          "time": 54.604651162790695,
          "velocity": 0.29133858267716534
        },
        {
          "duration": 0.24418604651162923,
          "durationTicks": 21,
          "midi": 84,
          "name": "C6",
          "ticks": 4696,
          "time": 54.604651162790695,
          "velocity": 0.2047244094488189
        },
        {
          "duration": 0.2674418604651194,
          "durationTicks": 23,
          "midi": 85,
          "name": "C#6",
          "ticks": 4696,
          "time": 54.604651162790695,
          "velocity": 0.1732283464566929
        },
        {
          "duration": 0.12790697674418539,
          "durationTicks": 11,
          "midi": 86,
          "name": "D6",
          "ticks": 4696,
          "time": 54.604651162790695,
          "velocity": 0.12598425196850394
        },
        {
          "duration": 0.023255813953483084,
          "durationTicks": 2,
          "midi": 63,
          "name": "D#4",
          "ticks": 4697,
          "time": 54.616279069767444,
          "velocity": 0.3543307086614173
        },
        {
          "duration": 0.24418604651162923,
          "durationTicks": 21,
          "midi": 78,
          "name": "F#5",
          "ticks": 4697,
          "time": 54.616279069767444,
          "velocity": 0.08661417322834646
        },
        {
          "duration": 0.1046511627906952,
          "durationTicks": 9,
          "midi": 88,
          "name": "E6",
          "ticks": 4697,
          "time": 54.616279069767444,
          "velocity": 0.18110236220472442
        },
        {
          "duration": 0.06976744186046346,
          "durationTicks": 6,
          "midi": 93,
          "name": "A6",
          "ticks": 4697,
          "time": 54.616279069767444,
          "velocity": 0.16535433070866143
        },
        {
          "duration": 0.24418604651162923,
          "durationTicks": 21,
          "midi": 57,
          "name": "A3",
          "ticks": 4698,
          "time": 54.627906976744185,
          "velocity": 0.4251968503937008
        },
        {
          "duration": 0.2674418604651194,
          "durationTicks": 23,
          "midi": 76,
          "name": "E5",
          "ticks": 4698,
          "time": 54.627906976744185,
          "velocity": 0.2440944881889764
        },
        {
          "duration": 0.2325581395348877,
          "durationTicks": 20,
          "midi": 45,
          "name": "A2",
          "ticks": 4699,
          "time": 54.63953488372093,
          "velocity": 0.4409448818897638
        },
        {
          "duration": 0.2325581395348877,
          "durationTicks": 20,
          "midi": 62,
          "name": "D4",
          "ticks": 4699,
          "time": 54.63953488372093,
          "velocity": 0.33858267716535434
        },
        {
          "duration": 0.04651162790698038,
          "durationTicks": 4,
          "midi": 103,
          "name": "G7",
          "ticks": 4699,
          "time": 54.63953488372093,
          "velocity": 0.09448818897637795
        },
        {
          "duration": 0.03488372093023173,
          "durationTicks": 3,
          "midi": 93,
          "name": "A6",
          "ticks": 4706,
          "time": 54.72093023255814,
          "velocity": 0.07874015748031496
        },
        {
          "duration": 0.11627906976744384,
          "durationTicks": 10,
          "midi": 68,
          "name": "G#4",
          "ticks": 4708,
          "time": 54.74418604651163,
          "velocity": 0.29133858267716534
        },
        {
          "duration": 0.03488372093023173,
          "durationTicks": 3,
          "midi": 44,
          "name": "G#2",
          "ticks": 4719,
          "time": 54.872093023255815,
          "velocity": 0.4015748031496063
        },
        {
          "duration": 0.08139534883721211,
          "durationTicks": 7,
          "midi": 101,
          "name": "F7",
          "ticks": 4720,
          "time": 54.883720930232556,
          "velocity": 0.15748031496062992
        },
        {
          "duration": 0.081395348837205,
          "durationTicks": 7,
          "midi": 67,
          "name": "G4",
          "ticks": 4721,
          "time": 54.895348837209305,
          "velocity": 0.2677165354330709
        },
        {
          "duration": 0.09302325581395365,
          "durationTicks": 8,
          "midi": 79,
          "name": "G5",
          "ticks": 4721,
          "time": 54.895348837209305,
          "velocity": 0.3779527559055118
        },
        {
          "duration": 0.02325581395349019,
          "durationTicks": 2,
          "midi": 45,
          "name": "A2",
          "ticks": 4722,
          "time": 54.906976744186046,
          "velocity": 0.3937007874015748
        },
        {
          "duration": 0.08139534883721211,
          "durationTicks": 7,
          "midi": 56,
          "name": "G#3",
          "ticks": 4723,
          "time": 54.91860465116279,
          "velocity": 0.25984251968503935
        },
        {
          "duration": 0.06976744186046346,
          "durationTicks": 6,
          "midi": 44,
          "name": "G#2",
          "ticks": 4724,
          "time": 54.93023255813954,
          "velocity": 0.2992125984251969
        },
        {
          "duration": 0.05813953488372192,
          "durationTicks": 5,
          "midi": 69,
          "name": "A4",
          "ticks": 4725,
          "time": 54.94186046511628,
          "velocity": 0.23622047244094488
        },
        {
          "duration": 0.05813953488372192,
          "durationTicks": 5,
          "midi": 57,
          "name": "A3",
          "ticks": 4730,
          "time": 55,
          "velocity": 0.4330708661417323
        },
        {
          "duration": 0.03488372093023173,
          "durationTicks": 3,
          "midi": 68,
          "name": "G#4",
          "ticks": 4730,
          "time": 55,
          "velocity": 0.25196850393700787
        },
        {
          "duration": 0.12790697674418539,
          "durationTicks": 11,
          "midi": 77,
          "name": "F5",
          "ticks": 4730,
          "time": 55,
          "velocity": 0.23622047244094488
        },
        {
          "duration": 0.15116279069767558,
          "durationTicks": 13,
          "midi": 84,
          "name": "C6",
          "ticks": 4730,
          "time": 55,
          "velocity": 0.15748031496062992
        },
        {
          "duration": 0.02325581395349019,
          "durationTicks": 2,
          "midi": 50,
          "name": "D3",
          "ticks": 4731,
          "time": 55.01162790697674,
          "velocity": 0.36220472440944884
        },
        {
          "duration": 0.1046511627907023,
          "durationTicks": 9,
          "midi": 65,
          "name": "F4",
          "ticks": 4731,
          "time": 55.01162790697674,
          "velocity": 0.33070866141732286
        },
        {
          "duration": 0.1046511627907023,
          "durationTicks": 9,
          "midi": 85,
          "name": "C#6",
          "ticks": 4731,
          "time": 55.01162790697674,
          "velocity": 0.16535433070866143
        },
        {
          "duration": 0.09302325581395365,
          "durationTicks": 8,
          "midi": 86,
          "name": "D6",
          "ticks": 4732,
          "time": 55.02325581395349,
          "velocity": 0.14173228346456693
        },
        {
          "duration": 0.09302325581395365,
          "durationTicks": 8,
          "midi": 62,
          "name": "D4",
          "ticks": 4733,
          "time": 55.03488372093023,
          "velocity": 0.29133858267716534
        },
        {
          "duration": 0.09302325581395365,
          "durationTicks": 8,
          "midi": 45,
          "name": "A2",
          "ticks": 4734,
          "time": 55.04651162790697,
          "velocity": 0.4094488188976378
        },
        {
          "duration": 0.02325581395349019,
          "durationTicks": 2,
          "midi": 61,
          "name": "C#4",
          "ticks": 4741,
          "time": 55.127906976744185,
          "velocity": 0.2440944881889764
        },
        {
          "duration": 0.03488372093023884,
          "durationTicks": 3,
          "midi": 55,
          "name": "G3",
          "ticks": 4742,
          "time": 55.13953488372093,
          "velocity": 0.3937007874015748
        },
        {
          "duration": 0.17441860465116577,
          "durationTicks": 15,
          "midi": 74,
          "name": "D5",
          "ticks": 4742,
          "time": 55.13953488372093,
          "velocity": 0.4015748031496063
        },
        {
          "duration": 0.1046511627906952,
          "durationTicks": 9,
          "midi": 62,
          "name": "D4",
          "ticks": 4743,
          "time": 55.151162790697676,
          "velocity": 0.3700787401574803
        },
        {
          "duration": 0.04651162790698038,
          "durationTicks": 4,
          "midi": 90,
          "name": "F#6",
          "ticks": 4744,
          "time": 55.16279069767442,
          "velocity": 0.07874015748031496
        },
        {
          "duration": 0.023255813953483084,
          "durationTicks": 2,
          "midi": 43,
          "name": "G2",
          "ticks": 4745,
          "time": 55.174418604651166,
          "velocity": 0.2440944881889764
        },
        {
          "duration": 0.023255813953483084,
          "durationTicks": 2,
          "midi": 56,
          "name": "G#3",
          "ticks": 4745,
          "time": 55.174418604651166,
          "velocity": 0.25984251968503935
        },
        {
          "duration": 0.08139534883721211,
          "durationTicks": 7,
          "midi": 44,
          "name": "G#2",
          "ticks": 4747,
          "time": 55.19767441860465,
          "velocity": 0.2677165354330709
        },
        {
          "duration": 0.3953488372092977,
          "durationTicks": 34,
          "midi": 57,
          "name": "A3",
          "ticks": 4753,
          "time": 55.26744186046512,
          "velocity": 0.5039370078740157
        },
        {
          "duration": 0.12790697674418539,
          "durationTicks": 11,
          "midi": 64,
          "name": "E4",
          "ticks": 4753,
          "time": 55.26744186046512,
          "velocity": 0.36220472440944884
        },
        {
          "duration": 0.1046511627906952,
          "durationTicks": 9,
          "midi": 85,
          "name": "C#6",
          "ticks": 4754,
          "time": 55.27906976744186,
          "velocity": 0.1732283464566929
        },
        {
          "duration": 0.08139534883721211,
          "durationTicks": 7,
          "midi": 78,
          "name": "F#5",
          "ticks": 4755,
          "time": 55.2906976744186,
          "velocity": 0.11811023622047244
        },
        {
          "duration": 0.09302325581395365,
          "durationTicks": 8,
          "midi": 84,
          "name": "C6",
          "ticks": 4755,
          "time": 55.2906976744186,
          "velocity": 0.11023622047244094
        },
        {
          "duration": 0.2325581395348877,
          "durationTicks": 20,
          "midi": 45,
          "name": "A2",
          "ticks": 4758,
          "time": 55.325581395348834,
          "velocity": 0.4015748031496063
        },
        {
          "duration": 0.09302325581395365,
          "durationTicks": 8,
          "midi": 98,
          "name": "D7",
          "ticks": 4766,
          "time": 55.41860465116279,
          "velocity": 0.18110236220472442
        },
        {
          "duration": 0.081395348837205,
          "durationTicks": 7,
          "midi": 64,
          "name": "E4",
          "ticks": 4767,
          "time": 55.43023255813954,
          "velocity": 0.3937007874015748
        },
        {
          "duration": 0.13953488372093403,
          "durationTicks": 12,
          "midi": 65,
          "name": "F4",
          "ticks": 4774,
          "time": 55.51162790697674,
          "velocity": 0.3543307086614173
        },
        {
          "duration": 0.13953488372093403,
          "durationTicks": 12,
          "midi": 84,
          "name": "C6",
          "ticks": 4774,
          "time": 55.51162790697674,
          "velocity": 0.11811023622047244
        },
        {
          "duration": 0.09302325581395365,
          "durationTicks": 8,
          "midi": 62,
          "name": "D4",
          "ticks": 4777,
          "time": 55.54651162790697,
          "velocity": 0.29133858267716534
        },
        {
          "duration": 0.06976744186047057,
          "durationTicks": 6,
          "midi": 45,
          "name": "A2",
          "ticks": 4782,
          "time": 55.604651162790695,
          "velocity": 0.41732283464566927
        },
        {
          "duration": 0.02325581395349019,
          "durationTicks": 2,
          "midi": 56,
          "name": "G#3",
          "ticks": 4787,
          "time": 55.66279069767442,
          "velocity": 0.3700787401574803
        },
        {
          "duration": 0.13953488372093403,
          "durationTicks": 12,
          "midi": 79,
          "name": "G5",
          "ticks": 4787,
          "time": 55.66279069767442,
          "velocity": 0.41732283464566927
        },
        {
          "duration": 0.11627906976743674,
          "durationTicks": 10,
          "midi": 67,
          "name": "G4",
          "ticks": 4788,
          "time": 55.674418604651166,
          "velocity": 0.30708661417322836
        },
        {
          "duration": 0.11627906976743674,
          "durationTicks": 10,
          "midi": 101,
          "name": "F7",
          "ticks": 4788,
          "time": 55.674418604651166,
          "velocity": 0.1889763779527559
        },
        {
          "duration": 0.046511627906973274,
          "durationTicks": 4,
          "midi": 45,
          "name": "A2",
          "ticks": 4789,
          "time": 55.68604651162791,
          "velocity": 0.3858267716535433
        },
        {
          "duration": 0.04651162790698038,
          "durationTicks": 4,
          "midi": 44,
          "name": "G#2",
          "ticks": 4793,
          "time": 55.73255813953488,
          "velocity": 0.2992125984251969
        },
        {
          "duration": 0.023255813953483084,
          "durationTicks": 2,
          "midi": 59,
          "name": "B3",
          "ticks": 4796,
          "time": 55.76744186046512,
          "velocity": 0.3464566929133858
        },
        {
          "duration": 0.023255813953483084,
          "durationTicks": 2,
          "midi": 56,
          "name": "G#3",
          "ticks": 4799,
          "time": 55.80232558139535,
          "velocity": 0.49606299212598426
        },
        {
          "duration": 0.2674418604651123,
          "durationTicks": 23,
          "midi": 62,
          "name": "D4",
          "ticks": 4799,
          "time": 55.80232558139535,
          "velocity": 0.2677165354330709
        },
        {
          "duration": 0.13953488372092693,
          "durationTicks": 12,
          "midi": 69,
          "name": "A4",
          "ticks": 4799,
          "time": 55.80232558139535,
          "velocity": 0.29133858267716534
        },
        {
          "duration": 0.46511627906976827,
          "durationTicks": 40,
          "midi": 76,
          "name": "E5",
          "ticks": 4800,
          "time": 55.81395348837209,
          "velocity": 0.2047244094488189
        },
        {
          "duration": 0.27906976744186096,
          "durationTicks": 24,
          "midi": 84,
          "name": "C6",
          "ticks": 4800,
          "time": 55.81395348837209,
          "velocity": 0.15748031496062992
        },
        {
          "duration": 0.02325581395349019,
          "durationTicks": 2,
          "midi": 44,
          "name": "G#2",
          "ticks": 4801,
          "time": 55.825581395348834,
          "velocity": 0.47244094488188976
        },
        {
          "duration": 0.03488372093023884,
          "durationTicks": 3,
          "midi": 79,
          "name": "G5",
          "ticks": 4801,
          "time": 55.825581395348834,
          "velocity": 0.08661417322834646
        },
        {
          "duration": 0.05813953488372192,
          "durationTicks": 5,
          "midi": 93,
          "name": "A6",
          "ticks": 4801,
          "time": 55.825581395348834,
          "velocity": 0.07086614173228346
        },
        {
          "duration": 0.2325581395348877,
          "durationTicks": 20,
          "midi": 45,
          "name": "A2",
          "ticks": 4803,
          "time": 55.848837209302324,
          "velocity": 0.48031496062992124
        },
        {
          "duration": 0.05813953488372192,
          "durationTicks": 5,
          "midi": 80,
          "name": "G#5",
          "ticks": 4810,
          "time": 55.93023255813954,
          "velocity": 0.2755905511811024
        },
        {
          "duration": 0.03488372093023173,
          "durationTicks": 3,
          "midi": 99,
          "name": "D#7",
          "ticks": 4810,
          "time": 55.93023255813954,
          "velocity": 0.11811023622047244
        },
        {
          "duration": 0.05813953488372192,
          "durationTicks": 5,
          "midi": 68,
          "name": "G#4",
          "ticks": 4811,
          "time": 55.94186046511628,
          "velocity": 0.3464566929133858
        },
        {
          "duration": 0.05813953488372192,
          "durationTicks": 5,
          "midi": 87,
          "name": "D#6",
          "ticks": 4811,
          "time": 55.94186046511628,
          "velocity": 0.14173228346456693
        },
        {
          "duration": 0.23255813953488058,
          "durationTicks": 20,
          "midi": 81,
          "name": "A5",
          "ticks": 4815,
          "time": 55.98837209302326,
          "velocity": 0.2677165354330709
        },
        {
          "duration": 0.11627906976743674,
          "durationTicks": 10,
          "midi": 100,
          "name": "E7",
          "ticks": 4815,
          "time": 55.98837209302326,
          "velocity": 0.23622047244094488
        },
        {
          "duration": 0.06976744186046346,
          "durationTicks": 6,
          "midi": 97,
          "name": "C#7",
          "ticks": 4816,
          "time": 56,
          "velocity": 0.10236220472440945
        },
        {
          "duration": 0.03488372093023173,
          "durationTicks": 3,
          "midi": 73,
          "name": "C#5",
          "ticks": 4823,
          "time": 56.08139534883721,
          "velocity": 0.09448818897637795
        },
        {
          "duration": 0.12790697674418539,
          "durationTicks": 11,
          "midi": 45,
          "name": "A2",
          "ticks": 4824,
          "time": 56.093023255813954,
          "velocity": 0.4330708661417323
        },
        {
          "duration": 0.17441860465116577,
          "durationTicks": 15,
          "midi": 62,
          "name": "D4",
          "ticks": 4824,
          "time": 56.093023255813954,
          "velocity": 0.23622047244094488
        },
        {
          "duration": 0.13953488372093403,
          "durationTicks": 12,
          "midi": 84,
          "name": "C6",
          "ticks": 4833,
          "time": 56.19767441860465,
          "velocity": 0.3543307086614173
        },
        {
          "duration": 0.023255813953483084,
          "durationTicks": 2,
          "midi": 56,
          "name": "G#3",
          "ticks": 4834,
          "time": 56.2093023255814,
          "velocity": 0.3937007874015748
        },
        {
          "duration": 0.13953488372092693,
          "durationTicks": 12,
          "midi": 72,
          "name": "C5",
          "ticks": 4834,
          "time": 56.2093023255814,
          "velocity": 0.41732283464566927
        },
        {
          "duration": 0.06976744186046346,
          "durationTicks": 6,
          "midi": 78,
          "name": "F#5",
          "ticks": 4834,
          "time": 56.2093023255814,
          "velocity": 0.09448818897637795
        },
        {
          "duration": 0.1046511627906952,
          "durationTicks": 9,
          "midi": 100,
          "name": "E7",
          "ticks": 4834,
          "time": 56.2093023255814,
          "velocity": 0.2047244094488189
        },
        {
          "duration": 0.02325581395349019,
          "durationTicks": 2,
          "midi": 50,
          "name": "D3",
          "ticks": 4835,
          "time": 56.22093023255814,
          "velocity": 0.3228346456692913
        },
        {
          "duration": 0.05813953488372192,
          "durationTicks": 5,
          "midi": 57,
          "name": "A3",
          "ticks": 4836,
          "time": 56.23255813953488,
          "velocity": 0.29133858267716534
        },
        {
          "duration": 0.03488372093023173,
          "durationTicks": 3,
          "midi": 45,
          "name": "A2",
          "ticks": 4838,
          "time": 56.25581395348837,
          "velocity": 0.4330708661417323
        },
        {
          "duration": 0.02325581395349019,
          "durationTicks": 2,
          "midi": 44,
          "name": "G#2",
          "ticks": 4841,
          "time": 56.2906976744186,
          "velocity": 0.4094488188976378
        },
        {
          "duration": 0.1046511627906952,
          "durationTicks": 9,
          "midi": 64,
          "name": "E4",
          "ticks": 4843,
          "time": 56.31395348837209,
          "velocity": 0.1732283464566929
        },
        {
          "duration": 0.02325581395349019,
          "durationTicks": 2,
          "midi": 44,
          "name": "G#2",
          "ticks": 4844,
          "time": 56.325581395348834,
          "velocity": 0.4094488188976378
        },
        {
          "duration": 0.08139534883721211,
          "durationTicks": 7,
          "midi": 57,
          "name": "A3",
          "ticks": 4844,
          "time": 56.325581395348834,
          "velocity": 0.28346456692913385
        },
        {
          "duration": 0.06976744186046346,
          "durationTicks": 6,
          "midi": 52,
          "name": "E3",
          "ticks": 4845,
          "time": 56.33720930232558,
          "velocity": 0.2283464566929134
        },
        {
          "duration": 0.06976744186046346,
          "durationTicks": 6,
          "midi": 45,
          "name": "A2",
          "ticks": 4846,
          "time": 56.348837209302324,
          "velocity": 0.3858267716535433
        },
        {
          "duration": 0.05813953488372192,
          "durationTicks": 5,
          "midi": 71,
          "name": "B4",
          "ticks": 4848,
          "time": 56.372093023255815,
          "velocity": 0.09448818897637795
        },
        {
          "duration": 0.02325581395349019,
          "durationTicks": 2,
          "midi": 44,
          "name": "G#2",
          "ticks": 4854,
          "time": 56.44186046511628,
          "velocity": 0.29133858267716534
        },
        {
          "duration": 0.5232558139534831,
          "durationTicks": 45,
          "midi": 56,
          "name": "G#3",
          "ticks": 4855,
          "time": 56.45348837209303,
          "velocity": 0.5196850393700787
        },
        {
          "duration": 0.13953488372092693,
          "durationTicks": 12,
          "midi": 85,
          "name": "C#6",
          "ticks": 4855,
          "time": 56.45348837209303,
          "velocity": 0.28346456692913385
        },
        {
          "duration": 0.13953488372092693,
          "durationTicks": 12,
          "midi": 101,
          "name": "F7",
          "ticks": 4855,
          "time": 56.45348837209303,
          "velocity": 0.23622047244094488
        },
        {
          "duration": 0.02325581395349019,
          "durationTicks": 2,
          "midi": 43,
          "name": "G2",
          "ticks": 4856,
          "time": 56.46511627906977,
          "velocity": 0.2992125984251969
        },
        {
          "duration": 0.046511627906973274,
          "durationTicks": 4,
          "midi": 72,
          "name": "C5",
          "ticks": 4856,
          "time": 56.46511627906977,
          "velocity": 0.18110236220472442
        },
        {
          "duration": 0.05813953488372192,
          "durationTicks": 5,
          "midi": 77,
          "name": "F5",
          "ticks": 4856,
          "time": 56.46511627906977,
          "velocity": 0.10236220472440945
        },
        {
          "duration": 0.03488372093023173,
          "durationTicks": 3,
          "midi": 63,
          "name": "D#4",
          "ticks": 4857,
          "time": 56.47674418604651,
          "velocity": 0.25196850393700787
        },
        {
          "duration": 0.1860465116279073,
          "durationTicks": 16,
          "midi": 44,
          "name": "G#2",
          "ticks": 4858,
          "time": 56.48837209302326,
          "velocity": 0.4094488188976378
        },
        {
          "duration": 0.23255813953488058,
          "durationTicks": 20,
          "midi": 61,
          "name": "C#4",
          "ticks": 4859,
          "time": 56.5,
          "velocity": 0.31496062992125984
        },
        {
          "duration": 0.11627906976744384,
          "durationTicks": 10,
          "midi": 84,
          "name": "C6",
          "ticks": 4867,
          "time": 56.593023255813954,
          "velocity": 0.10236220472440945
        },
        {
          "duration": 0.02325581395349019,
          "durationTicks": 2,
          "midi": 43,
          "name": "G2",
          "ticks": 4876,
          "time": 56.69767441860465,
          "velocity": 0.33070866141732286
        },
        {
          "duration": 0.03488372093023173,
          "durationTicks": 3,
          "midi": 71,
          "name": "B4",
          "ticks": 4877,
          "time": 56.7093023255814,
          "velocity": 0.16535433070866143
        },
        {
          "duration": 0.11627906976743674,
          "durationTicks": 10,
          "midi": 87,
          "name": "D#6",
          "ticks": 4877,
          "time": 56.7093023255814,
          "velocity": 0.2125984251968504
        },
        {
          "duration": 0.12790697674418539,
          "durationTicks": 11,
          "midi": 99,
          "name": "D#7",
          "ticks": 4877,
          "time": 56.7093023255814,
          "velocity": 0.2283464566929134
        },
        {
          "duration": 0.09302325581395365,
          "durationTicks": 8,
          "midi": 63,
          "name": "D#4",
          "ticks": 4881,
          "time": 56.75581395348837,
          "velocity": 0.2204724409448819
        },
        {
          "duration": 0.17441860465115866,
          "durationTicks": 15,
          "midi": 44,
          "name": "G#2",
          "ticks": 4882,
          "time": 56.76744186046512,
          "velocity": 0.4251968503937008
        },
        {
          "duration": 0.16279069767441712,
          "durationTicks": 14,
          "midi": 84,
          "name": "C6",
          "ticks": 4883,
          "time": 56.77906976744186,
          "velocity": 0.09448818897637795
        },
        {
          "duration": 0.11627906976744384,
          "durationTicks": 10,
          "midi": 61,
          "name": "C#4",
          "ticks": 4888,
          "time": 56.83720930232558,
          "velocity": 0.25196850393700787
        },
        {
          "duration": 0.023255813953483084,
          "durationTicks": 2,
          "midi": 44,
          "name": "G#2",
          "ticks": 4898,
          "time": 56.95348837209303,
          "velocity": 0.3858267716535433
        },
        {
          "duration": 0.023255813953483084,
          "durationTicks": 2,
          "midi": 62,
          "name": "D4",
          "ticks": 4898,
          "time": 56.95348837209303,
          "velocity": 0.2283464566929134
        },
        {
          "duration": 0.15116279069767558,
          "durationTicks": 13,
          "midi": 80,
          "name": "G#5",
          "ticks": 4899,
          "time": 56.96511627906977,
          "velocity": 0.31496062992125984
        },
        {
          "duration": 0.13953488372092693,
          "durationTicks": 12,
          "midi": 87,
          "name": "D#6",
          "ticks": 4899,
          "time": 56.96511627906977,
          "velocity": 0.18110236220472442
        },
        {
          "duration": 0.13953488372092693,
          "durationTicks": 12,
          "midi": 99,
          "name": "D#7",
          "ticks": 4899,
          "time": 56.96511627906977,
          "velocity": 0.29133858267716534
        },
        {
          "duration": 0.02325581395349019,
          "durationTicks": 2,
          "midi": 57,
          "name": "A3",
          "ticks": 4900,
          "time": 56.97674418604651,
          "velocity": 0.30708661417322836
        },
        {
          "duration": 0.12790697674418539,
          "durationTicks": 11,
          "midi": 68,
          "name": "G#4",
          "ticks": 4900,
          "time": 56.97674418604651,
          "velocity": 0.3464566929133858
        },
        {
          "duration": 0.03488372093023173,
          "durationTicks": 3,
          "midi": 45,
          "name": "A2",
          "ticks": 4901,
          "time": 56.98837209302326,
          "velocity": 0.33070866141732286
        },
        {
          "duration": 0.02325581395349019,
          "durationTicks": 2,
          "midi": 55,
          "name": "G3",
          "ticks": 4902,
          "time": 57,
          "velocity": 0.29133858267716534
        },
        {
          "duration": 0.023255813953483084,
          "durationTicks": 2,
          "midi": 58,
          "name": "A#3",
          "ticks": 4909,
          "time": 57.08139534883721,
          "velocity": 0.36220472440944884
        },
        {
          "duration": 0.03488372093023173,
          "durationTicks": 3,
          "midi": 84,
          "name": "C6",
          "ticks": 4910,
          "time": 57.093023255813954,
          "velocity": 0.15748031496062992
        },
        {
          "duration": 0.05813953488372192,
          "durationTicks": 5,
          "midi": 86,
          "name": "D6",
          "ticks": 4910,
          "time": 57.093023255813954,
          "velocity": 0.10236220472440945
        },
        {
          "duration": 0.02325581395349019,
          "durationTicks": 2,
          "midi": 57,
          "name": "A3",
          "ticks": 4911,
          "time": 57.104651162790695,
          "velocity": 0.49606299212598426
        },
        {
          "duration": 0.023255813953483084,
          "durationTicks": 2,
          "midi": 47,
          "name": "B2",
          "ticks": 4912,
          "time": 57.116279069767444,
          "velocity": 0.29133858267716534
        },
        {
          "duration": 0.081395348837205,
          "durationTicks": 7,
          "midi": 79,
          "name": "G5",
          "ticks": 4912,
          "time": 57.116279069767444,
          "velocity": 0.16535433070866143
        },
        {
          "duration": 0.2325581395348877,
          "durationTicks": 20,
          "midi": 56,
          "name": "G#3",
          "ticks": 4913,
          "time": 57.127906976744185,
          "velocity": 0.5433070866141733
        },
        {
          "duration": 0.04651162790698038,
          "durationTicks": 4,
          "midi": 61,
          "name": "C#4",
          "ticks": 4913,
          "time": 57.127906976744185,
          "velocity": 0.15748031496062992
        },
        {
          "duration": 0.05813953488372192,
          "durationTicks": 5,
          "midi": 72,
          "name": "C5",
          "ticks": 4914,
          "time": 57.13953488372093,
          "velocity": 0.07874015748031496
        },
        {
          "duration": 0.03488372093023173,
          "durationTicks": 3,
          "midi": 44,
          "name": "G#2",
          "ticks": 4917,
          "time": 57.174418604651166,
          "velocity": 0.3779527559055118
        },
        {
          "duration": 0.02325581395349019,
          "durationTicks": 2,
          "midi": 44,
          "name": "G#2",
          "ticks": 4921,
          "time": 57.22093023255814,
          "velocity": 0.3779527559055118
        },
        {
          "duration": 0.1046511627906952,
          "durationTicks": 9,
          "midi": 65,
          "name": "F4",
          "ticks": 4921,
          "time": 57.22093023255814,
          "velocity": 0.29133858267716534
        },
        {
          "duration": 0.04651162790698038,
          "durationTicks": 4,
          "midi": 84,
          "name": "C6",
          "ticks": 4922,
          "time": 57.23255813953488,
          "velocity": 0.08661417322834646
        },
        {
          "duration": 0.08139534883721211,
          "durationTicks": 7,
          "midi": 44,
          "name": "G#2",
          "ticks": 4924,
          "time": 57.25581395348837,
          "velocity": 0.33070866141732286
        },
        {
          "duration": 0.32558139534884134,
          "durationTicks": 28,
          "midi": 79,
          "name": "G5",
          "ticks": 4932,
          "time": 57.348837209302324,
          "velocity": 0.3700787401574803
        },
        {
          "duration": 0.03488372093023173,
          "durationTicks": 3,
          "midi": 47,
          "name": "B2",
          "ticks": 4933,
          "time": 57.36046511627907,
          "velocity": 0.30708661417322836
        },
        {
          "duration": 0.023255813953483084,
          "durationTicks": 2,
          "midi": 57,
          "name": "A3",
          "ticks": 4933,
          "time": 57.36046511627907,
          "velocity": 0.3937007874015748
        },
        {
          "duration": 0.30232558139534405,
          "durationTicks": 26,
          "midi": 67,
          "name": "G4",
          "ticks": 4933,
          "time": 57.36046511627907,
          "velocity": 0.23622047244094488
        },
        {
          "duration": 0.03488372093023173,
          "durationTicks": 3,
          "midi": 71,
          "name": "B4",
          "ticks": 4933,
          "time": 57.36046511627907,
          "velocity": 0.1968503937007874
        },
        {
          "duration": 0.15116279069766847,
          "durationTicks": 13,
          "midi": 86,
          "name": "D6",
          "ticks": 4933,
          "time": 57.36046511627907,
          "velocity": 0.2677165354330709
        },
        {
          "duration": 0.12790697674418539,
          "durationTicks": 11,
          "midi": 101,
          "name": "F7",
          "ticks": 4933,
          "time": 57.36046511627907,
          "velocity": 0.1732283464566929
        },
        {
          "duration": 0.11627906976744384,
          "durationTicks": 10,
          "midi": 77,
          "name": "F5",
          "ticks": 4934,
          "time": 57.372093023255815,
          "velocity": 0.2677165354330709
        },
        {
          "duration": 0.09302325581395365,
          "durationTicks": 8,
          "midi": 58,
          "name": "A#3",
          "ticks": 4935,
          "time": 57.383720930232556,
          "velocity": 0.3464566929133858
        },
        {
          "duration": 0.03488372093023173,
          "durationTicks": 3,
          "midi": 45,
          "name": "A2",
          "ticks": 4936,
          "time": 57.395348837209305,
          "velocity": 0.4094488188976378
        },
        {
          "duration": 0.08139534883721211,
          "durationTicks": 7,
          "midi": 63,
          "name": "D#4",
          "ticks": 4937,
          "time": 57.406976744186046,
          "velocity": 0.1732283464566929
        },
        {
          "duration": 0.02325581395349019,
          "durationTicks": 2,
          "midi": 46,
          "name": "A#2",
          "ticks": 4939,
          "time": 57.43023255813954,
          "velocity": 0.3464566929133858
        },
        {
          "duration": 0.081395348837205,
          "durationTicks": 7,
          "midi": 95,
          "name": "B6",
          "ticks": 4939,
          "time": 57.43023255813954,
          "velocity": 0.14960629921259844
        },
        {
          "duration": 0.03488372093023173,
          "durationTicks": 3,
          "midi": 51,
          "name": "D#3",
          "ticks": 4940,
          "time": 57.44186046511628,
          "velocity": 0.3464566929133858
        },
        {
          "duration": 0.02325581395349019,
          "durationTicks": 2,
          "midi": 46,
          "name": "A#2",
          "ticks": 4942,
          "time": 57.46511627906977,
          "velocity": 0.29133858267716534
        },
        {
          "duration": 0.03488372093023173,
          "durationTicks": 3,
          "midi": 85,
          "name": "C#6",
          "ticks": 4942,
          "time": 57.46511627906977,
          "velocity": 0.09448818897637795
        },
        {
          "duration": 0.02325581395349019,
          "durationTicks": 2,
          "midi": 57,
          "name": "A3",
          "ticks": 4943,
          "time": 57.47674418604651,
          "velocity": 0.3464566929133858
        },
        {
          "duration": 0.03488372093023173,
          "durationTicks": 3,
          "midi": 45,
          "name": "A2",
          "ticks": 4944,
          "time": 57.48837209302326,
          "velocity": 0.23622047244094488
        },
        {
          "duration": 0.046511627906973274,
          "durationTicks": 4,
          "midi": 53,
          "name": "F3",
          "ticks": 4945,
          "time": 57.5,
          "velocity": 0.25984251968503935
        },
        {
          "duration": 0.09302325581395365,
          "durationTicks": 8,
          "midi": 44,
          "name": "G#2",
          "ticks": 4947,
          "time": 57.52325581395349,
          "velocity": 0.2204724409448819
        },
        {
          "duration": 0.05813953488372192,
          "durationTicks": 5,
          "midi": 98,
          "name": "D7",
          "ticks": 4947,
          "time": 57.52325581395349,
          "velocity": 0.13385826771653545
        },
        {
          "duration": 0.046511627906973274,
          "durationTicks": 4,
          "midi": 95,
          "name": "B6",
          "ticks": 4953,
          "time": 57.593023255813954,
          "velocity": 0.11023622047244094
        },
        {
          "duration": 0.023255813953483084,
          "durationTicks": 2,
          "midi": 62,
          "name": "D4",
          "ticks": 4955,
          "time": 57.616279069767444,
          "velocity": 0.2440944881889764
        },
        {
          "duration": 0.04651162790698038,
          "durationTicks": 4,
          "midi": 76,
          "name": "E5",
          "ticks": 4956,
          "time": 57.627906976744185,
          "velocity": 0.1889763779527559
        },
        {
          "duration": 0.03488372093023884,
          "durationTicks": 3,
          "midi": 47,
          "name": "B2",
          "ticks": 4957,
          "time": 57.63953488372093,
          "velocity": 0.3228346456692913
        },
        {
          "duration": 0.11627906976744384,
          "durationTicks": 10,
          "midi": 58,
          "name": "A#3",
          "ticks": 4957,
          "time": 57.63953488372093,
          "velocity": 0.4409448818897638
        },
        {
          "duration": 0.1279069767441925,
          "durationTicks": 11,
          "midi": 86,
          "name": "D6",
          "ticks": 4957,
          "time": 57.63953488372093,
          "velocity": 0.1732283464566929
        },
        {
          "duration": 0.11627906976744384,
          "durationTicks": 10,
          "midi": 89,
          "name": "F6",
          "ticks": 4958,
          "time": 57.651162790697676,
          "velocity": 0.2677165354330709
        },
        {
          "duration": 0.11627906976744384,
          "durationTicks": 10,
          "midi": 63,
          "name": "D#4",
          "ticks": 4959,
          "time": 57.66279069767442,
          "velocity": 0.2440944881889764
        },
        {
          "duration": 0.05813953488372192,
          "durationTicks": 5,
          "midi": 68,
          "name": "G#4",
          "ticks": 4959,
          "time": 57.66279069767442,
          "velocity": 0.2125984251968504
        },
        {
          "duration": 0.08139534883721211,
          "durationTicks": 7,
          "midi": 82,
          "name": "A#5",
          "ticks": 4959,
          "time": 57.66279069767442,
          "velocity": 0.16535433070866143
        },
        {
          "duration": 0.03488372093023173,
          "durationTicks": 3,
          "midi": 45,
          "name": "A2",
          "ticks": 4960,
          "time": 57.674418604651166,
          "velocity": 0.4015748031496063
        },
        {
          "duration": 0.023255813953483084,
          "durationTicks": 2,
          "midi": 51,
          "name": "D#3",
          "ticks": 4960,
          "time": 57.674418604651166,
          "velocity": 0.4015748031496063
        },
        {
          "duration": 0.081395348837205,
          "durationTicks": 7,
          "midi": 77,
          "name": "F5",
          "ticks": 4960,
          "time": 57.674418604651166,
          "velocity": 0.11811023622047244
        },
        {
          "duration": 0.046511627906973274,
          "durationTicks": 4,
          "midi": 80,
          "name": "G#5",
          "ticks": 4960,
          "time": 57.674418604651166,
          "velocity": 0.30708661417322836
        },
        {
          "duration": 0.046511627906973274,
          "durationTicks": 4,
          "midi": 87,
          "name": "D#6",
          "ticks": 4960,
          "time": 57.674418604651166,
          "velocity": 0.08661417322834646
        },
        {
          "duration": 0.023255813953483084,
          "durationTicks": 2,
          "midi": 46,
          "name": "A#2",
          "ticks": 4963,
          "time": 57.7093023255814,
          "velocity": 0.36220472440944884
        },
        {
          "duration": 0.02325581395349019,
          "durationTicks": 2,
          "midi": 51,
          "name": "D#3",
          "ticks": 4964,
          "time": 57.72093023255814,
          "velocity": 0.36220472440944884
        },
        {
          "duration": 0.1860465116279073,
          "durationTicks": 16,
          "midi": 67,
          "name": "G4",
          "ticks": 4964,
          "time": 57.72093023255814,
          "velocity": 0.2125984251968504
        },
        {
          "duration": 0.1860465116279073,
          "durationTicks": 16,
          "midi": 79,
          "name": "G5",
          "ticks": 4964,
          "time": 57.72093023255814,
          "velocity": 0.30708661417322836
        },
        {
          "duration": 0.11627906976744384,
          "durationTicks": 10,
          "midi": 44,
          "name": "G#2",
          "ticks": 4967,
          "time": 57.75581395348837,
          "velocity": 0.29133858267716534
        },
        {
          "duration": 0.02325581395349019,
          "durationTicks": 2,
          "midi": 57,
          "name": "A3",
          "ticks": 4967,
          "time": 57.75581395348837,
          "velocity": 0.3228346456692913
        },
        {
          "duration": 0.04651162790698038,
          "durationTicks": 4,
          "midi": 56,
          "name": "G#3",
          "ticks": 4975,
          "time": 57.848837209302324,
          "velocity": 0.4094488188976378
        },
        {
          "duration": 0.02325581395349019,
          "durationTicks": 2,
          "midi": 62,
          "name": "D4",
          "ticks": 4977,
          "time": 57.872093023255815,
          "velocity": 0.31496062992125984
        },
        {
          "duration": 0.04651162790698038,
          "durationTicks": 4,
          "midi": 84,
          "name": "C6",
          "ticks": 4978,
          "time": 57.883720930232556,
          "velocity": 0.11023622047244094
        },
        {
          "duration": 0.081395348837205,
          "durationTicks": 7,
          "midi": 70,
          "name": "A#4",
          "ticks": 4979,
          "time": 57.895348837209305,
          "velocity": 0.11023622047244094
        },
        {
          "duration": 0.03488372093023173,
          "durationTicks": 3,
          "midi": 77,
          "name": "F5",
          "ticks": 4979,
          "time": 57.895348837209305,
          "velocity": 0.07874015748031496
        },
        {
          "duration": 0.4418604651162781,
          "durationTicks": 38,
          "midi": 58,
          "name": "A#3",
          "ticks": 4980,
          "time": 57.906976744186046,
          "velocity": 0.4566929133858268
        },
        {
          "duration": 0.04651162790698038,
          "durationTicks": 4,
          "midi": 66,
          "name": "F#4",
          "ticks": 4980,
          "time": 57.906976744186046,
          "velocity": 0.2440944881889764
        },
        {
          "duration": 0.12790697674418539,
          "durationTicks": 11,
          "midi": 86,
          "name": "D6",
          "ticks": 4980,
          "time": 57.906976744186046,
          "velocity": 0.15748031496062992
        },
        {
          "duration": 0.03488372093023173,
          "durationTicks": 3,
          "midi": 89,
          "name": "F6",
          "ticks": 4980,
          "time": 57.906976744186046,
          "velocity": 0.10236220472440945
        },
        {
          "duration": 0.06976744186047057,
          "durationTicks": 6,
          "midi": 63,
          "name": "D#4",
          "ticks": 4981,
          "time": 57.91860465116279,
          "velocity": 0.2992125984251969
        },
        {
          "duration": 0.03488372093023884,
          "durationTicks": 3,
          "midi": 85,
          "name": "C#6",
          "ticks": 4981,
          "time": 57.91860465116279,
          "velocity": 0.16535433070866143
        },
        {
          "duration": 0.04651162790698038,
          "durationTicks": 4,
          "midi": 84,
          "name": "C6",
          "ticks": 4983,
          "time": 57.94186046511628,
          "velocity": 0.11023622047244094
        },
        {
          "duration": 0.046511627906973274,
          "durationTicks": 4,
          "midi": 51,
          "name": "D#3",
          "ticks": 4985,
          "time": 57.96511627906977,
          "velocity": 0.33858267716535434
        },
        {
          "duration": 0.12790697674418539,
          "durationTicks": 11,
          "midi": 77,
          "name": "F5",
          "ticks": 4990,
          "time": 58.02325581395349,
          "velocity": 0.12598425196850394
        },
        {
          "duration": 0.03488372093023173,
          "durationTicks": 3,
          "midi": 53,
          "name": "F3",
          "ticks": 4991,
          "time": 58.03488372093023,
          "velocity": 0.4094488188976378
        },
        {
          "duration": 0.16279069767442422,
          "durationTicks": 14,
          "midi": 74,
          "name": "D5",
          "ticks": 4992,
          "time": 58.04651162790697,
          "velocity": 0.16535433070866143
        },
        {
          "duration": 0.03488372093023173,
          "durationTicks": 3,
          "midi": 45,
          "name": "A2",
          "ticks": 4993,
          "time": 58.05813953488372,
          "velocity": 0.41732283464566927
        },
        {
          "duration": 0.23255813953488058,
          "durationTicks": 20,
          "midi": 85,
          "name": "C#6",
          "ticks": 4996,
          "time": 58.093023255813954,
          "velocity": 0.11811023622047244
        },
        {
          "duration": 0.023255813953483084,
          "durationTicks": 2,
          "midi": 46,
          "name": "A#2",
          "ticks": 4998,
          "time": 58.116279069767444,
          "velocity": 0.3228346456692913
        },
        {
          "duration": 0.03488372093023173,
          "durationTicks": 3,
          "midi": 46,
          "name": "A#2",
          "ticks": 5003,
          "time": 58.174418604651166,
          "velocity": 0.36220472440944884
        },
        {
          "duration": 0.04651162790698038,
          "durationTicks": 4,
          "midi": 46,
          "name": "A#2",
          "ticks": 5007,
          "time": 58.22093023255814,
          "velocity": 0.3464566929133858
        },
        {
          "duration": 0.03488372093023173,
          "durationTicks": 3,
          "midi": 46,
          "name": "A#2",
          "ticks": 5012,
          "time": 58.27906976744186,
          "velocity": 0.36220472440944884
        },
        {
          "duration": 0.03488372093023173,
          "durationTicks": 3,
          "midi": 77,
          "name": "F5",
          "ticks": 5014,
          "time": 58.30232558139535,
          "velocity": 0.13385826771653545
        },
        {
          "duration": 0.03488372093023173,
          "durationTicks": 3,
          "midi": 45,
          "name": "A2",
          "ticks": 5017,
          "time": 58.33720930232558,
          "velocity": 0.41732283464566927
        },
        {
          "duration": 0.03488372093023173,
          "durationTicks": 3,
          "midi": 56,
          "name": "G#3",
          "ticks": 5019,
          "time": 58.36046511627907,
          "velocity": 0.2440944881889764
        },
        {
          "duration": 0.15116279069767558,
          "durationTicks": 13,
          "midi": 44,
          "name": "G#2",
          "ticks": 5020,
          "time": 58.372093023255815,
          "velocity": 0.4094488188976378
        },
        {
          "duration": 0.023255813953483084,
          "durationTicks": 2,
          "midi": 55,
          "name": "G3",
          "ticks": 5022,
          "time": 58.395348837209305,
          "velocity": 0.25196850393700787
        },
        {
          "duration": 0.06976744186046346,
          "durationTicks": 6,
          "midi": 53,
          "name": "F3",
          "ticks": 5026,
          "time": 58.44186046511628,
          "velocity": 0.13385826771653545
        },
        {
          "duration": 0.023255813953483084,
          "durationTicks": 2,
          "midi": 61,
          "name": "C#4",
          "ticks": 5033,
          "time": 58.52325581395349,
          "velocity": 0.3858267716535433
        },
        {
          "duration": 0.24418604651162923,
          "durationTicks": 21,
          "midi": 74,
          "name": "D5",
          "ticks": 5033,
          "time": 58.52325581395349,
          "velocity": 0.4330708661417323
        },
        {
          "duration": 0.06976744186046346,
          "durationTicks": 6,
          "midi": 77,
          "name": "F5",
          "ticks": 5034,
          "time": 58.53488372093023,
          "velocity": 0.11023622047244094
        },
        {
          "duration": 0.13953488372093403,
          "durationTicks": 12,
          "midi": 81,
          "name": "A5",
          "ticks": 5034,
          "time": 58.53488372093023,
          "velocity": 0.12598425196850394
        },
        {
          "duration": 0.04651162790698038,
          "durationTicks": 4,
          "midi": 90,
          "name": "F#6",
          "ticks": 5034,
          "time": 58.53488372093023,
          "velocity": 0.10236220472440945
        },
        {
          "duration": 0.06976744186046346,
          "durationTicks": 6,
          "midi": 93,
          "name": "A6",
          "ticks": 5034,
          "time": 58.53488372093023,
          "velocity": 0.14960629921259844
        },
        {
          "duration": 0.03488372093023173,
          "durationTicks": 3,
          "midi": 100,
          "name": "E7",
          "ticks": 5034,
          "time": 58.53488372093023,
          "velocity": 0.09448818897637795
        },
        {
          "duration": 0.02325581395349019,
          "durationTicks": 2,
          "midi": 50,
          "name": "D3",
          "ticks": 5035,
          "time": 58.54651162790697,
          "velocity": 0.28346456692913385
        },
        {
          "duration": 0.1860465116279073,
          "durationTicks": 16,
          "midi": 62,
          "name": "D4",
          "ticks": 5035,
          "time": 58.54651162790697,
          "velocity": 0.4094488188976378
        },
        {
          "duration": 0.11627906976744384,
          "durationTicks": 10,
          "midi": 84,
          "name": "C6",
          "ticks": 5035,
          "time": 58.54651162790697,
          "velocity": 0.15748031496062992
        },
        {
          "duration": 0.046511627906973274,
          "durationTicks": 4,
          "midi": 72,
          "name": "C5",
          "ticks": 5036,
          "time": 58.55813953488372,
          "velocity": 0.11811023622047244
        },
        {
          "duration": 0.023255813953483084,
          "durationTicks": 2,
          "midi": 45,
          "name": "A2",
          "ticks": 5038,
          "time": 58.58139534883721,
          "velocity": 0.4251968503937008
        },
        {
          "duration": 0.09302325581395365,
          "durationTicks": 8,
          "midi": 102,
          "name": "F#7",
          "ticks": 5038,
          "time": 58.58139534883721,
          "velocity": 0.13385826771653545
        },
        {
          "duration": 0.02325581395349019,
          "durationTicks": 2,
          "midi": 46,
          "name": "A#2",
          "ticks": 5040,
          "time": 58.604651162790695,
          "velocity": 0.3858267716535433
        },
        {
          "duration": 0.2093023255813975,
          "durationTicks": 18,
          "midi": 53,
          "name": "F3",
          "ticks": 5040,
          "time": 58.604651162790695,
          "velocity": 0.3700787401574803
        },
        {
          "duration": 0.1860465116279073,
          "durationTicks": 16,
          "midi": 58,
          "name": "A#3",
          "ticks": 5043,
          "time": 58.63953488372093,
          "velocity": 0.3543307086614173
        },
        {
          "duration": 0.03488372093023173,
          "durationTicks": 3,
          "midi": 72,
          "name": "C5",
          "ticks": 5045,
          "time": 58.66279069767442,
          "velocity": 0.09448818897637795
        },
        {
          "duration": 0.023255813953483084,
          "durationTicks": 2,
          "midi": 46,
          "name": "A#2",
          "ticks": 5046,
          "time": 58.674418604651166,
          "velocity": 0.3858267716535433
        },
        {
          "duration": 0.03488372093023173,
          "durationTicks": 3,
          "midi": 46,
          "name": "A#2",
          "ticks": 5049,
          "time": 58.7093023255814,
          "velocity": 0.3543307086614173
        },
        {
          "duration": 0.09302325581395365,
          "durationTicks": 8,
          "midi": 72,
          "name": "C5",
          "ticks": 5049,
          "time": 58.7093023255814,
          "velocity": 0.11811023622047244
        },
        {
          "duration": 0.02325581395349019,
          "durationTicks": 2,
          "midi": 46,
          "name": "A#2",
          "ticks": 5053,
          "time": 58.75581395348837,
          "velocity": 0.3858267716535433
        },
        {
          "duration": 0.02325581395349019,
          "durationTicks": 2,
          "midi": 62,
          "name": "D4",
          "ticks": 5055,
          "time": 58.77906976744186,
          "velocity": 0.25984251968503935
        },
        {
          "duration": 0.02325581395349019,
          "durationTicks": 2,
          "midi": 45,
          "name": "A2",
          "ticks": 5056,
          "time": 58.7906976744186,
          "velocity": 0.3700787401574803
        },
        {
          "duration": 0.046511627906973274,
          "durationTicks": 4,
          "midi": 64,
          "name": "E4",
          "ticks": 5057,
          "time": 58.80232558139535,
          "velocity": 0.3779527559055118
        },
        {
          "duration": 0.17441860465115866,
          "durationTicks": 15,
          "midi": 98,
          "name": "D7",
          "ticks": 5057,
          "time": 58.80232558139535,
          "velocity": 0.30708661417322836
        },
        {
          "duration": 0.13953488372093403,
          "durationTicks": 12,
          "midi": 79,
          "name": "G5",
          "ticks": 5058,
          "time": 58.81395348837209,
          "velocity": 0.3543307086614173
        },
        {
          "duration": 0.03488372093023173,
          "durationTicks": 3,
          "midi": 82,
          "name": "A#5",
          "ticks": 5058,
          "time": 58.81395348837209,
          "velocity": 0.09448818897637795
        },
        {
          "duration": 0.04651162790698038,
          "durationTicks": 4,
          "midi": 92,
          "name": "G#6",
          "ticks": 5058,
          "time": 58.81395348837209,
          "velocity": 0.10236220472440945
        },
        {
          "duration": 0.02325581395349019,
          "durationTicks": 2,
          "midi": 60,
          "name": "C4",
          "ticks": 5059,
          "time": 58.825581395348834,
          "velocity": 0.36220472440944884
        },
        {
          "duration": 0.03488372093023884,
          "durationTicks": 3,
          "midi": 70,
          "name": "A#4",
          "ticks": 5059,
          "time": 58.825581395348834,
          "velocity": 0.1732283464566929
        },
        {
          "duration": 0.02325581395349019,
          "durationTicks": 2,
          "midi": 43,
          "name": "G2",
          "ticks": 5060,
          "time": 58.83720930232558,
          "velocity": 0.3228346456692913
        },
        {
          "duration": 0.2325581395348877,
          "durationTicks": 20,
          "midi": 58,
          "name": "A#3",
          "ticks": 5061,
          "time": 58.848837209302324,
          "velocity": 0.4015748031496063
        },
        {
          "duration": 0.02325581395349019,
          "durationTicks": 2,
          "midi": 65,
          "name": "F4",
          "ticks": 5061,
          "time": 58.848837209302324,
          "velocity": 0.3858267716535433
        },
        {
          "duration": 0.19767441860464885,
          "durationTicks": 17,
          "midi": 74,
          "name": "D5",
          "ticks": 5061,
          "time": 58.848837209302324,
          "velocity": 0.16535433070866143
        },
        {
          "duration": 0.06976744186046346,
          "durationTicks": 6,
          "midi": 102,
          "name": "F#7",
          "ticks": 5061,
          "time": 58.848837209302324,
          "velocity": 0.14173228346456693
        },
        {
          "duration": 0.22093023255813904,
          "durationTicks": 19,
          "midi": 53,
          "name": "F3",
          "ticks": 5062,
          "time": 58.86046511627907,
          "velocity": 0.3858267716535433
        },
        {
          "duration": 0.09302325581395365,
          "durationTicks": 8,
          "midi": 64,
          "name": "E4",
          "ticks": 5062,
          "time": 58.86046511627907,
          "velocity": 0.3700787401574803
        },
        {
          "duration": 0.24418604651162212,
          "durationTicks": 21,
          "midi": 72,
          "name": "C5",
          "ticks": 5062,
          "time": 58.86046511627907,
          "velocity": 0.18110236220472442
        },
        {
          "duration": 0.17441860465115866,
          "durationTicks": 15,
          "midi": 86,
          "name": "D6",
          "ticks": 5062,
          "time": 58.86046511627907,
          "velocity": 0.1732283464566929
        },
        {
          "duration": 0.17441860465115866,
          "durationTicks": 15,
          "midi": 89,
          "name": "F6",
          "ticks": 5063,
          "time": 58.872093023255815,
          "velocity": 0.11811023622047244
        },
        {
          "duration": 0.16279069767441712,
          "durationTicks": 14,
          "midi": 84,
          "name": "C6",
          "ticks": 5064,
          "time": 58.883720930232556,
          "velocity": 0.18110236220472442
        },
        {
          "duration": 0.03488372093023173,
          "durationTicks": 3,
          "midi": 99,
          "name": "D#7",
          "ticks": 5068,
          "time": 58.93023255813954,
          "velocity": 0.14960629921259844
        },
        {
          "duration": 0.02325581395349019,
          "durationTicks": 2,
          "midi": 46,
          "name": "A#2",
          "ticks": 5069,
          "time": 58.94186046511628,
          "velocity": 0.29133858267716534
        },
        {
          "duration": 0.02325581395349019,
          "durationTicks": 2,
          "midi": 45,
          "name": "A2",
          "ticks": 5071,
          "time": 58.96511627906977,
          "velocity": 0.30708661417322836
        },
        {
          "duration": 0.02325581395349019,
          "durationTicks": 2,
          "midi": 46,
          "name": "A#2",
          "ticks": 5075,
          "time": 59.01162790697674,
          "velocity": 0.2755905511811024
        },
        {
          "duration": 0.17441860465115866,
          "durationTicks": 15,
          "midi": 77,
          "name": "F5",
          "ticks": 5079,
          "time": 59.05813953488372,
          "velocity": 0.33070866141732286
        },
        {
          "duration": 0.779069767441861,
          "durationTicks": 67,
          "midi": 65,
          "name": "F4",
          "ticks": 5080,
          "time": 59.06976744186046,
          "velocity": 0.4015748031496063
        },
        {
          "duration": 0.03488372093023173,
          "durationTicks": 3,
          "midi": 85,
          "name": "C#6",
          "ticks": 5080,
          "time": 59.06976744186046,
          "velocity": 0.14960629921259844
        },
        {
          "duration": 0.09302325581395365,
          "durationTicks": 8,
          "midi": 93,
          "name": "A6",
          "ticks": 5080,
          "time": 59.06976744186046,
          "velocity": 0.12598425196850394
        },
        {
          "duration": 0.12790697674418539,
          "durationTicks": 11,
          "midi": 99,
          "name": "D#7",
          "ticks": 5080,
          "time": 59.06976744186046,
          "velocity": 0.15748031496062992
        },
        {
          "duration": 0.023255813953483084,
          "durationTicks": 2,
          "midi": 44,
          "name": "G#2",
          "ticks": 5081,
          "time": 59.08139534883721,
          "velocity": 0.33070866141732286
        },
        {
          "duration": 0.05813953488372192,
          "durationTicks": 5,
          "midi": 56,
          "name": "G#3",
          "ticks": 5082,
          "time": 59.093023255813954,
          "velocity": 0.4015748031496063
        },
        {
          "duration": 0.22093023255813904,
          "durationTicks": 19,
          "midi": 69,
          "name": "A4",
          "ticks": 5082,
          "time": 59.093023255813954,
          "velocity": 0.33858267716535434
        },
        {
          "duration": 0.06976744186046346,
          "durationTicks": 6,
          "midi": 103,
          "name": "G7",
          "ticks": 5082,
          "time": 59.093023255813954,
          "velocity": 0.10236220472440945
        },
        {
          "duration": 0.02325581395349019,
          "durationTicks": 2,
          "midi": 46,
          "name": "A#2",
          "ticks": 5083,
          "time": 59.104651162790695,
          "velocity": 0.2992125984251969
        },
        {
          "duration": 0.04651162790698038,
          "durationTicks": 4,
          "midi": 45,
          "name": "A2",
          "ticks": 5085,
          "time": 59.127906976744185,
          "velocity": 0.30708661417322836
        },
        {
          "duration": 0.03488372093023884,
          "durationTicks": 3,
          "midi": 59,
          "name": "B3",
          "ticks": 5086,
          "time": 59.13953488372093,
          "velocity": 0.15748031496062992
        },
        {
          "duration": 0.15116279069767558,
          "durationTicks": 13,
          "midi": 88,
          "name": "E6",
          "ticks": 5086,
          "time": 59.13953488372093,
          "velocity": 0.08661417322834646
        },
        {
          "duration": 0.02325581395349019,
          "durationTicks": 2,
          "midi": 48,
          "name": "C3",
          "ticks": 5090,
          "time": 59.18604651162791,
          "velocity": 0.2440944881889764
        },
        {
          "duration": 0.05813953488372192,
          "durationTicks": 5,
          "midi": 84,
          "name": "C6",
          "ticks": 5092,
          "time": 59.2093023255814,
          "velocity": 0.15748031496062992
        },
        {
          "duration": 0.02325581395349019,
          "durationTicks": 2,
          "midi": 46,
          "name": "A#2",
          "ticks": 5093,
          "time": 59.22093023255814,
          "velocity": 0.3464566929133858
        },
        {
          "duration": 0.13953488372093403,
          "durationTicks": 12,
          "midi": 53,
          "name": "F3",
          "ticks": 5094,
          "time": 59.23255813953488,
          "velocity": 0.44881889763779526
        },
        {
          "duration": 0.02325581395349019,
          "durationTicks": 2,
          "midi": 45,
          "name": "A2",
          "ticks": 5095,
          "time": 59.24418604651163,
          "velocity": 0.4015748031496063
        },
        {
          "duration": 0.081395348837205,
          "durationTicks": 7,
          "midi": 74,
          "name": "D5",
          "ticks": 5095,
          "time": 59.24418604651163,
          "velocity": 0.08661417322834646
        },
        {
          "duration": 0.046511627906973274,
          "durationTicks": 4,
          "midi": 58,
          "name": "A#3",
          "ticks": 5098,
          "time": 59.27906976744186,
          "velocity": 0.3937007874015748
        },
        {
          "duration": 0.02325581395349019,
          "durationTicks": 2,
          "midi": 46,
          "name": "A#2",
          "ticks": 5099,
          "time": 59.2906976744186,
          "velocity": 0.31496062992125984
        },
        {
          "duration": 0.02325581395349019,
          "durationTicks": 2,
          "midi": 45,
          "name": "A2",
          "ticks": 5101,
          "time": 59.31395348837209,
          "velocity": 0.36220472440944884
        },
        {
          "duration": 0.1046511627906952,
          "durationTicks": 9,
          "midi": 81,
          "name": "A5",
          "ticks": 5101,
          "time": 59.31395348837209,
          "velocity": 0.31496062992125984
        },
        {
          "duration": 0.03488372093023173,
          "durationTicks": 3,
          "midi": 84,
          "name": "C6",
          "ticks": 5101,
          "time": 59.31395348837209,
          "velocity": 0.10236220472440945
        },
        {
          "duration": 0.06976744186046346,
          "durationTicks": 6,
          "midi": 97,
          "name": "C#7",
          "ticks": 5101,
          "time": 59.31395348837209,
          "velocity": 0.07086614173228346
        },
        {
          "duration": 0.09302325581395365,
          "durationTicks": 8,
          "midi": 100,
          "name": "E7",
          "ticks": 5101,
          "time": 59.31395348837209,
          "velocity": 0.14173228346456693
        },
        {
          "duration": 0.16279069767442422,
          "durationTicks": 14,
          "midi": 69,
          "name": "A4",
          "ticks": 5102,
          "time": 59.325581395348834,
          "velocity": 0.3464566929133858
        },
        {
          "duration": 0.04651162790698038,
          "durationTicks": 4,
          "midi": 88,
          "name": "E6",
          "ticks": 5102,
          "time": 59.325581395348834,
          "velocity": 0.14960629921259844
        },
        {
          "duration": 0.15116279069767558,
          "durationTicks": 13,
          "midi": 101,
          "name": "F7",
          "ticks": 5102,
          "time": 59.325581395348834,
          "velocity": 0.23622047244094488
        },
        {
          "duration": 0.05813953488372192,
          "durationTicks": 5,
          "midi": 103,
          "name": "G7",
          "ticks": 5103,
          "time": 59.33720930232558,
          "velocity": 0.1732283464566929
        },
        {
          "duration": 0.1046511627907023,
          "durationTicks": 9,
          "midi": 59,
          "name": "B3",
          "ticks": 5104,
          "time": 59.348837209302324,
          "velocity": 0.25196850393700787
        },
        {
          "duration": 0.02325581395349019,
          "durationTicks": 2,
          "midi": 44,
          "name": "G#2",
          "ticks": 5107,
          "time": 59.383720930232556,
          "velocity": 0.33858267716535434
        },
        {
          "duration": 0.03488372093023173,
          "durationTicks": 3,
          "midi": 45,
          "name": "A2",
          "ticks": 5109,
          "time": 59.406976744186046,
          "velocity": 0.2755905511811024
        },
        {
          "duration": 0.02325581395349019,
          "durationTicks": 2,
          "midi": 55,
          "name": "G3",
          "ticks": 5112,
          "time": 59.44186046511628,
          "velocity": 0.2992125984251969
        },
        {
          "duration": 0.03488372093023173,
          "durationTicks": 3,
          "midi": 96,
          "name": "C7",
          "ticks": 5112,
          "time": 59.44186046511628,
          "velocity": 0.07086614173228346
        },
        {
          "duration": 0.02325581395349019,
          "durationTicks": 2,
          "midi": 42,
          "name": "F#2",
          "ticks": 5114,
          "time": 59.46511627906977,
          "velocity": 0.23622047244094488
        },
        {
          "duration": 0.16279069767441712,
          "durationTicks": 14,
          "midi": 53,
          "name": "F3",
          "ticks": 5115,
          "time": 59.47674418604651,
          "velocity": 0.4566929133858268
        },
        {
          "duration": 0.24418604651162923,
          "durationTicks": 21,
          "midi": 58,
          "name": "A#3",
          "ticks": 5115,
          "time": 59.47674418604651,
          "velocity": 0.3700787401574803
        },
        {
          "duration": 0.1046511627907023,
          "durationTicks": 9,
          "midi": 74,
          "name": "D5",
          "ticks": 5115,
          "time": 59.47674418604651,
          "velocity": 0.13385826771653545
        },
        {
          "duration": 0.03488372093023173,
          "durationTicks": 3,
          "midi": 72,
          "name": "C5",
          "ticks": 5116,
          "time": 59.48837209302326,
          "velocity": 0.10236220472440945
        },
        {
          "duration": 0.05813953488372192,
          "durationTicks": 5,
          "midi": 89,
          "name": "F6",
          "ticks": 5117,
          "time": 59.5,
          "velocity": 0.07086614173228346
        },
        {
          "duration": 0.02325581395349019,
          "durationTicks": 2,
          "midi": 46,
          "name": "A#2",
          "ticks": 5118,
          "time": 59.51162790697674,
          "velocity": 0.3858267716535433
        },
        {
          "duration": 0.06976744186047057,
          "durationTicks": 6,
          "midi": 84,
          "name": "C6",
          "ticks": 5118,
          "time": 59.51162790697674,
          "velocity": 0.14173228346456693
        },
        {
          "duration": 0.09302325581395365,
          "durationTicks": 8,
          "midi": 46,
          "name": "A#2",
          "ticks": 5125,
          "time": 59.593023255813954,
          "velocity": 0.3700787401574803
        },
        {
          "duration": 0.3720930232558146,
          "durationTicks": 32,
          "midi": 70,
          "name": "A#4",
          "ticks": 5125,
          "time": 59.593023255813954,
          "velocity": 0.4094488188976378
        },
        {
          "duration": 0.3372093023255829,
          "durationTicks": 29,
          "midi": 101,
          "name": "F7",
          "ticks": 5125,
          "time": 59.593023255813954,
          "velocity": 0.29133858267716534
        },
        {
          "duration": 0.08139534883721211,
          "durationTicks": 7,
          "midi": 74,
          "name": "D5",
          "ticks": 5126,
          "time": 59.604651162790695,
          "velocity": 0.14960629921259844
        },
        {
          "duration": 0.36046511627906597,
          "durationTicks": 31,
          "midi": 76,
          "name": "E5",
          "ticks": 5127,
          "time": 59.616279069767444,
          "velocity": 0.33070866141732286
        },
        {
          "duration": 0.05813953488372192,
          "durationTicks": 5,
          "midi": 53,
          "name": "F3",
          "ticks": 5130,
          "time": 59.651162790697676,
          "velocity": 0.28346456692913385
        },
        {
          "duration": 0.02325581395349019,
          "durationTicks": 2,
          "midi": 56,
          "name": "G#3",
          "ticks": 5137,
          "time": 59.73255813953488,
          "velocity": 0.3464566929133858
        },
        {
          "duration": 0.02325581395349019,
          "durationTicks": 2,
          "midi": 45,
          "name": "A2",
          "ticks": 5139,
          "time": 59.75581395348837,
          "velocity": 0.4251968503937008
        },
        {
          "duration": 0.06976744186046346,
          "durationTicks": 6,
          "midi": 60,
          "name": "C4",
          "ticks": 5139,
          "time": 59.75581395348837,
          "velocity": 0.30708661417322836
        },
        {
          "duration": 0.02325581395349019,
          "durationTicks": 2,
          "midi": 46,
          "name": "A#2",
          "ticks": 5141,
          "time": 59.77906976744186,
          "velocity": 0.4330708661417323
        },
        {
          "duration": 0.02325581395349019,
          "durationTicks": 2,
          "midi": 45,
          "name": "A2",
          "ticks": 5146,
          "time": 59.83720930232558,
          "velocity": 0.33070866141732286
        },
        {
          "duration": 0.023255813953483084,
          "durationTicks": 2,
          "midi": 44,
          "name": "G#2",
          "ticks": 5148,
          "time": 59.86046511627907,
          "velocity": 0.2283464566929134
        },
        {
          "duration": 0.03488372093023173,
          "durationTicks": 3,
          "midi": 56,
          "name": "G#3",
          "ticks": 5148,
          "time": 59.86046511627907,
          "velocity": 0.3779527559055118
        },
        {
          "duration": 0.02325581395349019,
          "durationTicks": 2,
          "midi": 45,
          "name": "A2",
          "ticks": 5150,
          "time": 59.883720930232556,
          "velocity": 0.23622047244094488
        },
        {
          "duration": 0.03488372093023173,
          "durationTicks": 3,
          "midi": 59,
          "name": "B3",
          "ticks": 5150,
          "time": 59.883720930232556,
          "velocity": 0.2125984251968504
        },
        {
          "duration": 0.046511627906973274,
          "durationTicks": 4,
          "midi": 59,
          "name": "B3",
          "ticks": 5154,
          "time": 59.93023255813954,
          "velocity": 0.2440944881889764
        },
        {
          "duration": 0.02325581395349019,
          "durationTicks": 2,
          "midi": 56,
          "name": "G#3",
          "ticks": 5158,
          "time": 59.97674418604651,
          "velocity": 0.4566929133858268
        },
        {
          "duration": 0.03488372093023173,
          "durationTicks": 3,
          "midi": 64,
          "name": "E4",
          "ticks": 5158,
          "time": 59.97674418604651,
          "velocity": 0.2204724409448819
        },
        {
          "duration": 0.13953488372093403,
          "durationTicks": 12,
          "midi": 72,
          "name": "C5",
          "ticks": 5158,
          "time": 59.97674418604651,
          "velocity": 0.14960629921259844
        },
        {
          "duration": 0.25581395348837077,
          "durationTicks": 22,
          "midi": 77,
          "name": "F5",
          "ticks": 5158,
          "time": 59.97674418604651,
          "velocity": 0.13385826771653545
        },
        {
          "duration": 0.023255813953483084,
          "durationTicks": 2,
          "midi": 43,
          "name": "G2",
          "ticks": 5159,
          "time": 59.98837209302326,
          "velocity": 0.3700787401574803
        },
        {
          "duration": 0.25581395348837077,
          "durationTicks": 22,
          "midi": 53,
          "name": "F3",
          "ticks": 5160,
          "time": 60,
          "velocity": 0.5118110236220472
        },
        {
          "duration": 0.09302325581395365,
          "durationTicks": 8,
          "midi": 74,
          "name": "D5",
          "ticks": 5160,
          "time": 60,
          "velocity": 0.10236220472440945
        },
        {
          "duration": 0.09302325581395365,
          "durationTicks": 8,
          "midi": 84,
          "name": "C6",
          "ticks": 5160,
          "time": 60,
          "velocity": 0.16535433070866143
        },
        {
          "duration": 0.023255813953483084,
          "durationTicks": 2,
          "midi": 46,
          "name": "A#2",
          "ticks": 5162,
          "time": 60.02325581395349,
          "velocity": 0.3700787401574803
        },
        {
          "duration": 0.03488372093023173,
          "durationTicks": 3,
          "midi": 46,
          "name": "A#2",
          "ticks": 5166,
          "time": 60.06976744186046,
          "velocity": 0.3543307086614173
        },
        {
          "duration": 0.02325581395349019,
          "durationTicks": 2,
          "midi": 45,
          "name": "A2",
          "ticks": 5169,
          "time": 60.104651162790695,
          "velocity": 0.3937007874015748
        },
        {
          "duration": 0.3953488372092977,
          "durationTicks": 34,
          "midi": 70,
          "name": "A#4",
          "ticks": 5170,
          "time": 60.116279069767444,
          "velocity": 0.4566929133858268
        },
        {
          "duration": 0.04651162790698038,
          "durationTicks": 4,
          "midi": 46,
          "name": "A#2",
          "ticks": 5171,
          "time": 60.127906976744185,
          "velocity": 0.3779527559055118
        },
        {
          "duration": 0.1046511627906952,
          "durationTicks": 9,
          "midi": 98,
          "name": "D7",
          "ticks": 5171,
          "time": 60.127906976744185,
          "velocity": 0.12598425196850394
        },
        {
          "duration": 0.25581395348837077,
          "durationTicks": 22,
          "midi": 101,
          "name": "F7",
          "ticks": 5171,
          "time": 60.127906976744185,
          "velocity": 0.1732283464566929
        },
        {
          "duration": 0.38372093023256326,
          "durationTicks": 33,
          "midi": 74,
          "name": "D5",
          "ticks": 5172,
          "time": 60.13953488372093,
          "velocity": 0.3228346456692913
        },
        {
          "duration": 0.06976744186047057,
          "durationTicks": 6,
          "midi": 102,
          "name": "F#7",
          "ticks": 5172,
          "time": 60.13953488372093,
          "velocity": 0.09448818897637795
        },
        {
          "duration": 0.08139534883721211,
          "durationTicks": 7,
          "midi": 46,
          "name": "A#2",
          "ticks": 5176,
          "time": 60.18604651162791,
          "velocity": 0.4015748031496063
        },
        {
          "duration": 0.13953488372093403,
          "durationTicks": 12,
          "midi": 77,
          "name": "F5",
          "ticks": 5182,
          "time": 60.25581395348837,
          "velocity": 0.13385826771653545
        },
        {
          "duration": 0.11627906976743674,
          "durationTicks": 10,
          "midi": 58,
          "name": "A#3",
          "ticks": 5183,
          "time": 60.26744186046512,
          "velocity": 0.30708661417322836
        },
        {
          "duration": 0.03488372093023173,
          "durationTicks": 3,
          "midi": 46,
          "name": "A#2",
          "ticks": 5184,
          "time": 60.27906976744186,
          "velocity": 0.4409448818897638
        },
        {
          "duration": 0.06976744186047057,
          "durationTicks": 6,
          "midi": 53,
          "name": "F3",
          "ticks": 5185,
          "time": 60.2906976744186,
          "velocity": 0.2677165354330709
        },
        {
          "duration": 0.05813953488372192,
          "durationTicks": 5,
          "midi": 46,
          "name": "A#2",
          "ticks": 5188,
          "time": 60.325581395348834,
          "velocity": 0.3937007874015748
        },
        {
          "duration": 0.11627906976744384,
          "durationTicks": 10,
          "midi": 84,
          "name": "C6",
          "ticks": 5192,
          "time": 60.372093023255815,
          "velocity": 0.2204724409448819
        },
        {
          "duration": 0.03488372093023173,
          "durationTicks": 3,
          "midi": 90,
          "name": "F#6",
          "ticks": 5192,
          "time": 60.372093023255815,
          "velocity": 0.10236220472440945
        },
        {
          "duration": 0.02325581395349019,
          "durationTicks": 2,
          "midi": 59,
          "name": "B3",
          "ticks": 5193,
          "time": 60.383720930232556,
          "velocity": 0.3543307086614173
        },
        {
          "duration": 0.023255813953483084,
          "durationTicks": 2,
          "midi": 43,
          "name": "G2",
          "ticks": 5194,
          "time": 60.395348837209305,
          "velocity": 0.3543307086614173
        },
        {
          "duration": 0.09302325581395365,
          "durationTicks": 8,
          "midi": 65,
          "name": "F4",
          "ticks": 5194,
          "time": 60.395348837209305,
          "velocity": 0.2125984251968504
        },
        {
          "duration": 0.03488372093023173,
          "durationTicks": 3,
          "midi": 53,
          "name": "F3",
          "ticks": 5195,
          "time": 60.406976744186046,
          "velocity": 0.4251968503937008
        },
        {
          "duration": 0.1046511627907023,
          "durationTicks": 9,
          "midi": 45,
          "name": "A2",
          "ticks": 5196,
          "time": 60.41860465116279,
          "velocity": 0.4251968503937008
        },
        {
          "duration": 0.02325581395349019,
          "durationTicks": 2,
          "midi": 58,
          "name": "A#3",
          "ticks": 5197,
          "time": 60.43023255813954,
          "velocity": 0.23622047244094488
        },
        {
          "duration": 0.046511627906973274,
          "durationTicks": 4,
          "midi": 101,
          "name": "F7",
          "ticks": 5197,
          "time": 60.43023255813954,
          "velocity": 0.07874015748031496
        },
        {
          "duration": 0.02325581395349019,
          "durationTicks": 2,
          "midi": 59,
          "name": "B3",
          "ticks": 5201,
          "time": 60.47674418604651,
          "velocity": 0.29133858267716534
        },
        {
          "duration": 0.02325581395349019,
          "durationTicks": 2,
          "midi": 59,
          "name": "B3",
          "ticks": 5204,
          "time": 60.51162790697674,
          "velocity": 0.33070866141732286
        },
        {
          "duration": 0.03488372093023173,
          "durationTicks": 3,
          "midi": 66,
          "name": "F#4",
          "ticks": 5204,
          "time": 60.51162790697674,
          "velocity": 0.1732283464566929
        },
        {
          "duration": 0.023255813953483084,
          "durationTicks": 2,
          "midi": 44,
          "name": "G#2",
          "ticks": 5205,
          "time": 60.52325581395349,
          "velocity": 0.3464566929133858
        },
        {
          "duration": 0.08139534883721211,
          "durationTicks": 7,
          "midi": 100,
          "name": "E7",
          "ticks": 5206,
          "time": 60.53488372093023,
          "velocity": 0.11023622047244094
        },
        {
          "duration": 0.02325581395349019,
          "durationTicks": 2,
          "midi": 55,
          "name": "G3",
          "ticks": 5207,
          "time": 60.54651162790697,
          "velocity": 0.41732283464566927
        },
        {
          "duration": 0.09302325581395365,
          "durationTicks": 8,
          "midi": 76,
          "name": "E5",
          "ticks": 5207,
          "time": 60.54651162790697,
          "velocity": 0.2204724409448819
        },
        {
          "duration": 0.046511627906973274,
          "durationTicks": 4,
          "midi": 89,
          "name": "F6",
          "ticks": 5208,
          "time": 60.55813953488372,
          "velocity": 0.14173228346456693
        },
        {
          "duration": 0.03488372093023173,
          "durationTicks": 3,
          "midi": 44,
          "name": "G#2",
          "ticks": 5209,
          "time": 60.56976744186046,
          "velocity": 0.3464566929133858
        },
        {
          "duration": 0.03488372093023173,
          "durationTicks": 3,
          "midi": 86,
          "name": "D6",
          "ticks": 5209,
          "time": 60.56976744186046,
          "velocity": 0.07086614173228346
        },
        {
          "duration": 0.05813953488372192,
          "durationTicks": 5,
          "midi": 55,
          "name": "G3",
          "ticks": 5211,
          "time": 60.593023255813954,
          "velocity": 0.4015748031496063
        },
        {
          "duration": 0.02325581395349019,
          "durationTicks": 2,
          "midi": 45,
          "name": "A2",
          "ticks": 5212,
          "time": 60.604651162790695,
          "velocity": 0.36220472440944884
        },
        {
          "duration": 0.02325581395349019,
          "durationTicks": 2,
          "midi": 44,
          "name": "G#2",
          "ticks": 5214,
          "time": 60.627906976744185,
          "velocity": 0.3858267716535433
        },
        {
          "duration": 0.03488372093023173,
          "durationTicks": 3,
          "midi": 74,
          "name": "D5",
          "ticks": 5214,
          "time": 60.627906976744185,
          "velocity": 0.07086614173228346
        },
        {
          "duration": 0.03488372093023173,
          "durationTicks": 3,
          "midi": 84,
          "name": "C6",
          "ticks": 5214,
          "time": 60.627906976744185,
          "velocity": 0.1968503937007874
        },
        {
          "duration": 0.16279069767441712,
          "durationTicks": 14,
          "midi": 86,
          "name": "D6",
          "ticks": 5214,
          "time": 60.627906976744185,
          "velocity": 0.18110236220472442
        },
        {
          "duration": 0.34883720930233153,
          "durationTicks": 30,
          "midi": 88,
          "name": "E6",
          "ticks": 5215,
          "time": 60.63953488372093,
          "velocity": 0.29133858267716534
        },
        {
          "duration": 0.02325581395349019,
          "durationTicks": 2,
          "midi": 43,
          "name": "G2",
          "ticks": 5216,
          "time": 60.651162790697676,
          "velocity": 0.4015748031496063
        },
        {
          "duration": 0.25581395348837077,
          "durationTicks": 22,
          "midi": 60,
          "name": "C4",
          "ticks": 5216,
          "time": 60.651162790697676,
          "velocity": 0.33858267716535434
        },
        {
          "duration": 0.43023255813953654,
          "durationTicks": 37,
          "midi": 76,
          "name": "E5",
          "ticks": 5216,
          "time": 60.651162790697676,
          "velocity": 0.3779527559055118
        },
        {
          "duration": 0.02325581395349019,
          "durationTicks": 2,
          "midi": 55,
          "name": "G3",
          "ticks": 5217,
          "time": 60.66279069767442,
          "velocity": 0.4015748031496063
        },
        {
          "duration": 0.1046511627906952,
          "durationTicks": 9,
          "midi": 91,
          "name": "G6",
          "ticks": 5218,
          "time": 60.674418604651166,
          "velocity": 0.14960629921259844
        },
        {
          "duration": 0.03488372093023173,
          "durationTicks": 3,
          "midi": 95,
          "name": "B6",
          "ticks": 5218,
          "time": 60.674418604651166,
          "velocity": 0.08661417322834646
        },
        {
          "duration": 0.02325581395349019,
          "durationTicks": 2,
          "midi": 43,
          "name": "G2",
          "ticks": 5219,
          "time": 60.68604651162791,
          "velocity": 0.4251968503937008
        },
        {
          "duration": 0.13953488372092693,
          "durationTicks": 12,
          "midi": 91,
          "name": "G6",
          "ticks": 5232,
          "time": 60.83720930232558,
          "velocity": 0.11811023622047244
        },
        {
          "duration": 0.023255813953483084,
          "durationTicks": 2,
          "midi": 43,
          "name": "G2",
          "ticks": 5234,
          "time": 60.86046511627907,
          "velocity": 0.33070866141732286
        },
        {
          "duration": 0.023255813953483084,
          "durationTicks": 2,
          "midi": 56,
          "name": "G#3",
          "ticks": 5237,
          "time": 60.895348837209305,
          "velocity": 0.29133858267716534
        },
        {
          "duration": 0.03488372093023173,
          "durationTicks": 3,
          "midi": 61,
          "name": "C#4",
          "ticks": 5238,
          "time": 60.906976744186046,
          "velocity": 0.33858267716535434
        },
        {
          "duration": 0.24418604651162923,
          "durationTicks": 21,
          "midi": 67,
          "name": "G4",
          "ticks": 5238,
          "time": 60.906976744186046,
          "velocity": 0.2440944881889764
        },
        {
          "duration": 0.04651162790698038,
          "durationTicks": 4,
          "midi": 44,
          "name": "G#2",
          "ticks": 5239,
          "time": 60.91860465116279,
          "velocity": 0.4409448818897638
        },
        {
          "duration": 0.2093023255813975,
          "durationTicks": 18,
          "midi": 55,
          "name": "G3",
          "ticks": 5239,
          "time": 60.91860465116279,
          "velocity": 0.47244094488188976
        },
        {
          "duration": 0.43023255813953654,
          "durationTicks": 37,
          "midi": 86,
          "name": "D6",
          "ticks": 5239,
          "time": 60.91860465116279,
          "velocity": 0.33858267716535434
        },
        {
          "duration": 0.03488372093023173,
          "durationTicks": 3,
          "midi": 95,
          "name": "B6",
          "ticks": 5244,
          "time": 60.97674418604651,
          "velocity": 0.10236220472440945
        },
        {
          "duration": 0.04651162790698038,
          "durationTicks": 4,
          "midi": 48,
          "name": "C3",
          "ticks": 5247,
          "time": 61.01162790697674,
          "velocity": 0.33070866141732286
        },
        {
          "duration": 0.11627906976744384,
          "durationTicks": 10,
          "midi": 71,
          "name": "B4",
          "ticks": 5247,
          "time": 61.01162790697674,
          "velocity": 0.12598425196850394
        },
        {
          "duration": 0.04651162790698038,
          "durationTicks": 4,
          "midi": 62,
          "name": "D4",
          "ticks": 5249,
          "time": 61.03488372093023,
          "velocity": 0.1732283464566929
        },
        {
          "duration": 0.09302325581395365,
          "durationTicks": 8,
          "midi": 91,
          "name": "G6",
          "ticks": 5249,
          "time": 61.03488372093023,
          "velocity": 0.11023622047244094
        },
        {
          "duration": 0.02325581395349019,
          "durationTicks": 2,
          "midi": 43,
          "name": "G2",
          "ticks": 5250,
          "time": 61.04651162790697,
          "velocity": 0.36220472440944884
        },
        {
          "duration": 0.02325581395349019,
          "durationTicks": 2,
          "midi": 48,
          "name": "C3",
          "ticks": 5255,
          "time": 61.104651162790695,
          "velocity": 0.33070866141732286
        },
        {
          "duration": 0.03488372093023173,
          "durationTicks": 3,
          "midi": 77,
          "name": "F5",
          "ticks": 5256,
          "time": 61.116279069767444,
          "velocity": 0.09448818897637795
        },
        {
          "duration": 0.03488372093023173,
          "durationTicks": 3,
          "midi": 54,
          "name": "F#3",
          "ticks": 5257,
          "time": 61.127906976744185,
          "velocity": 0.2283464566929134
        },
        {
          "duration": 0.04651162790698038,
          "durationTicks": 4,
          "midi": 70,
          "name": "A#4",
          "ticks": 5257,
          "time": 61.127906976744185,
          "velocity": 0.16535433070866143
        },
        {
          "duration": 0.34883720930233153,
          "durationTicks": 30,
          "midi": 74,
          "name": "D5",
          "ticks": 5258,
          "time": 61.13953488372093,
          "velocity": 0.4409448818897638
        },
        {
          "duration": 0.27906976744186096,
          "durationTicks": 24,
          "midi": 93,
          "name": "A6",
          "ticks": 5258,
          "time": 61.13953488372093,
          "velocity": 0.16535433070866143
        },
        {
          "duration": 0.03488372093023173,
          "durationTicks": 3,
          "midi": 57,
          "name": "A3",
          "ticks": 5259,
          "time": 61.151162790697676,
          "velocity": 0.3858267716535433
        },
        {
          "duration": 0.3139534883720927,
          "durationTicks": 27,
          "midi": 101,
          "name": "F7",
          "ticks": 5259,
          "time": 61.151162790697676,
          "velocity": 0.1968503937007874
        },
        {
          "duration": 0.02325581395349019,
          "durationTicks": 2,
          "midi": 44,
          "name": "G#2",
          "ticks": 5260,
          "time": 61.16279069767442,
          "velocity": 0.28346456692913385
        },
        {
          "duration": 0.04651162790698038,
          "durationTicks": 4,
          "midi": 64,
          "name": "E4",
          "ticks": 5260,
          "time": 61.16279069767442,
          "velocity": 0.25196850393700787
        },
        {
          "duration": 0.3139534883720927,
          "durationTicks": 27,
          "midi": 77,
          "name": "F5",
          "ticks": 5260,
          "time": 61.16279069767442,
          "velocity": 0.3464566929133858
        },
        {
          "duration": 0.03488372093023173,
          "durationTicks": 3,
          "midi": 102,
          "name": "F#7",
          "ticks": 5260,
          "time": 61.16279069767442,
          "velocity": 0.09448818897637795
        },
        {
          "duration": 0.02325581395349019,
          "durationTicks": 2,
          "midi": 47,
          "name": "B2",
          "ticks": 5262,
          "time": 61.18604651162791,
          "velocity": 0.30708661417322836
        },
        {
          "duration": 0.081395348837205,
          "durationTicks": 7,
          "midi": 56,
          "name": "G#3",
          "ticks": 5264,
          "time": 61.2093023255814,
          "velocity": 0.33070866141732286
        },
        {
          "duration": 0.03488372093023173,
          "durationTicks": 3,
          "midi": 61,
          "name": "C#4",
          "ticks": 5264,
          "time": 61.2093023255814,
          "velocity": 0.14960629921259844
        },
        {
          "duration": 0.046511627906973274,
          "durationTicks": 4,
          "midi": 66,
          "name": "F#4",
          "ticks": 5264,
          "time": 61.2093023255814,
          "velocity": 0.1732283464566929
        },
        {
          "duration": 0.05813953488372192,
          "durationTicks": 5,
          "midi": 44,
          "name": "G#2",
          "ticks": 5265,
          "time": 61.22093023255814,
          "velocity": 0.31496062992125984
        },
        {
          "duration": 0.046511627906973274,
          "durationTicks": 4,
          "midi": 66,
          "name": "F#4",
          "ticks": 5269,
          "time": 61.26744186046512,
          "velocity": 0.08661417322834646
        },
        {
          "duration": 0.03488372093023173,
          "durationTicks": 3,
          "midi": 47,
          "name": "B2",
          "ticks": 5271,
          "time": 61.2906976744186,
          "velocity": 0.31496062992125984
        },
        {
          "duration": 0.11627906976744384,
          "durationTicks": 10,
          "midi": 55,
          "name": "G3",
          "ticks": 5273,
          "time": 61.31395348837209,
          "velocity": 0.5275590551181102
        },
        {
          "duration": 0.09302325581395365,
          "durationTicks": 8,
          "midi": 60,
          "name": "C4",
          "ticks": 5273,
          "time": 61.31395348837209,
          "velocity": 0.25196850393700787
        },
        {
          "duration": 0.02325581395349019,
          "durationTicks": 2,
          "midi": 44,
          "name": "G#2",
          "ticks": 5275,
          "time": 61.33720930232558,
          "velocity": 0.3464566929133858
        },
        {
          "duration": 0.023255813953483084,
          "durationTicks": 2,
          "midi": 43,
          "name": "G2",
          "ticks": 5280,
          "time": 61.395348837209305,
          "velocity": 0.2677165354330709
        },
        {
          "duration": 0.02325581395349019,
          "durationTicks": 2,
          "midi": 44,
          "name": "G#2",
          "ticks": 5282,
          "time": 61.41860465116279,
          "velocity": 0.3464566929133858
        },
        {
          "duration": 0.03488372093023173,
          "durationTicks": 3,
          "midi": 55,
          "name": "G3",
          "ticks": 5284,
          "time": 61.44186046511628,
          "velocity": 0.2992125984251969
        },
        {
          "duration": 0.04651162790698038,
          "durationTicks": 4,
          "midi": 56,
          "name": "G#3",
          "ticks": 5287,
          "time": 61.47674418604651,
          "velocity": 0.2204724409448819
        },
        {
          "duration": 0.03488372093023173,
          "durationTicks": 3,
          "midi": 78,
          "name": "F#5",
          "ticks": 5287,
          "time": 61.47674418604651,
          "velocity": 0.2047244094488189
        },
        {
          "duration": 0.046511627906973274,
          "durationTicks": 4,
          "midi": 44,
          "name": "G#2",
          "ticks": 5288,
          "time": 61.48837209302326,
          "velocity": 0.16535433070866143
        },
        {
          "duration": 0.023255813953483084,
          "durationTicks": 2,
          "midi": 75,
          "name": "D#5",
          "ticks": 5288,
          "time": 61.48837209302326,
          "velocity": 0.29133858267716534
        },
        {
          "duration": 0.13953488372093403,
          "durationTicks": 12,
          "midi": 76,
          "name": "E5",
          "ticks": 5290,
          "time": 61.51162790697674,
          "velocity": 0.2992125984251969
        },
        {
          "duration": 0.13953488372093403,
          "durationTicks": 12,
          "midi": 79,
          "name": "G5",
          "ticks": 5290,
          "time": 61.51162790697674,
          "velocity": 0.2047244094488189
        },
        {
          "duration": 0.38372093023256326,
          "durationTicks": 33,
          "midi": 84,
          "name": "C6",
          "ticks": 5293,
          "time": 61.54651162790697,
          "velocity": 0.1889763779527559
        },
        {
          "duration": 0.06976744186047057,
          "durationTicks": 6,
          "midi": 86,
          "name": "D6",
          "ticks": 5293,
          "time": 61.54651162790697,
          "velocity": 0.14960629921259844
        },
        {
          "duration": 0.3953488372093048,
          "durationTicks": 34,
          "midi": 67,
          "name": "G4",
          "ticks": 5294,
          "time": 61.55813953488372,
          "velocity": 0.2677165354330709
        },
        {
          "duration": 0.03488372093023173,
          "durationTicks": 3,
          "midi": 83,
          "name": "B5",
          "ticks": 5294,
          "time": 61.55813953488372,
          "velocity": 0.09448818897637795
        },
        {
          "duration": 0.02325581395349019,
          "durationTicks": 2,
          "midi": 44,
          "name": "G#2",
          "ticks": 5295,
          "time": 61.56976744186046,
          "velocity": 0.3228346456692913
        },
        {
          "duration": 0.3720930232558146,
          "durationTicks": 32,
          "midi": 60,
          "name": "C4",
          "ticks": 5295,
          "time": 61.56976744186046,
          "velocity": 0.3228346456692913
        },
        {
          "duration": 0.09302325581395365,
          "durationTicks": 8,
          "midi": 55,
          "name": "G3",
          "ticks": 5296,
          "time": 61.58139534883721,
          "velocity": 0.44881889763779526
        },
        {
          "duration": 0.36046511627906597,
          "durationTicks": 31,
          "midi": 71,
          "name": "B4",
          "ticks": 5296,
          "time": 61.58139534883721,
          "velocity": 0.2204724409448819
        },
        {
          "duration": 0.03488372093023173,
          "durationTicks": 3,
          "midi": 74,
          "name": "D5",
          "ticks": 5296,
          "time": 61.58139534883721,
          "velocity": 0.07874015748031496
        },
        {
          "duration": 0.12790697674418539,
          "durationTicks": 11,
          "midi": 90,
          "name": "F#6",
          "ticks": 5296,
          "time": 61.58139534883721,
          "velocity": 0.14960629921259844
        },
        {
          "duration": 0.02325581395349019,
          "durationTicks": 2,
          "midi": 44,
          "name": "G#2",
          "ticks": 5298,
          "time": 61.604651162790695,
          "velocity": 0.44881889763779526
        },
        {
          "duration": 0.03488372093023173,
          "durationTicks": 3,
          "midi": 89,
          "name": "F6",
          "ticks": 5298,
          "time": 61.604651162790695,
          "velocity": 0.12598425196850394
        },
        {
          "duration": 0.30232558139535115,
          "durationTicks": 26,
          "midi": 86,
          "name": "D6",
          "ticks": 5302,
          "time": 61.651162790697676,
          "velocity": 0.15748031496062992
        },
        {
          "duration": 0.3372093023255829,
          "durationTicks": 29,
          "midi": 76,
          "name": "E5",
          "ticks": 5303,
          "time": 61.66279069767442,
          "velocity": 0.3779527559055118
        },
        {
          "duration": 0.3139534883720927,
          "durationTicks": 27,
          "midi": 91,
          "name": "G6",
          "ticks": 5303,
          "time": 61.66279069767442,
          "velocity": 0.3228346456692913
        },
        {
          "duration": 0.023255813953483084,
          "durationTicks": 2,
          "midi": 48,
          "name": "C3",
          "ticks": 5304,
          "time": 61.674418604651166,
          "velocity": 0.33858267716535434
        },
        {
          "duration": 0.3139534883720927,
          "durationTicks": 27,
          "midi": 79,
          "name": "G5",
          "ticks": 5304,
          "time": 61.674418604651166,
          "velocity": 0.4251968503937008
        },
        {
          "duration": 0.15116279069767558,
          "durationTicks": 13,
          "midi": 55,
          "name": "G3",
          "ticks": 5305,
          "time": 61.68604651162791,
          "velocity": 0.30708661417322836
        },
        {
          "duration": 0.17441860465116577,
          "durationTicks": 15,
          "midi": 95,
          "name": "B6",
          "ticks": 5306,
          "time": 61.69767441860465,
          "velocity": 0.13385826771653545
        },
        {
          "duration": 0.046511627906973274,
          "durationTicks": 4,
          "midi": 43,
          "name": "G2",
          "ticks": 5310,
          "time": 61.74418604651163,
          "velocity": 0.4094488188976378
        },
        {
          "duration": 0.1046511627907023,
          "durationTicks": 9,
          "midi": 55,
          "name": "G3",
          "ticks": 5319,
          "time": 61.848837209302324,
          "velocity": 0.3700787401574803
        },
        {
          "duration": 0.02325581395349019,
          "durationTicks": 2,
          "midi": 48,
          "name": "C3",
          "ticks": 5325,
          "time": 61.91860465116279,
          "velocity": 0.3937007874015748
        },
        {
          "duration": 0.1046511627907023,
          "durationTicks": 9,
          "midi": 44,
          "name": "G#2",
          "ticks": 5330,
          "time": 61.97674418604651,
          "velocity": 0.36220472440944884
        },
        {
          "duration": 0.02325581395349019,
          "durationTicks": 2,
          "midi": 55,
          "name": "G3",
          "ticks": 5330,
          "time": 61.97674418604651,
          "velocity": 0.44881889763779526
        },
        {
          "duration": 0.046511627906973274,
          "durationTicks": 4,
          "midi": 87,
          "name": "D#6",
          "ticks": 5331,
          "time": 61.98837209302326,
          "velocity": 0.14173228346456693
        },
        {
          "duration": 0.08139534883721211,
          "durationTicks": 7,
          "midi": 56,
          "name": "G#3",
          "ticks": 5332,
          "time": 62,
          "velocity": 0.4645669291338583
        },
        {
          "duration": 0.046511627906973274,
          "durationTicks": 4,
          "midi": 75,
          "name": "D#5",
          "ticks": 5332,
          "time": 62,
          "velocity": 0.25984251968503935
        },
        {
          "duration": 0.06976744186047057,
          "durationTicks": 6,
          "midi": 74,
          "name": "D5",
          "ticks": 5336,
          "time": 62.04651162790697,
          "velocity": 0.12598425196850394
        },
        {
          "duration": 0.06976744186046346,
          "durationTicks": 6,
          "midi": 76,
          "name": "E5",
          "ticks": 5338,
          "time": 62.06976744186046,
          "velocity": 0.16535433070866143
        },
        {
          "duration": 0.2325581395348877,
          "durationTicks": 20,
          "midi": 86,
          "name": "D6",
          "ticks": 5338,
          "time": 62.06976744186046,
          "velocity": 0.18110236220472442
        },
        {
          "duration": 0.5232558139534831,
          "durationTicks": 45,
          "midi": 55,
          "name": "G3",
          "ticks": 5339,
          "time": 62.08139534883721,
          "velocity": 0.5433070866141733
        },
        {
          "duration": 0.03488372093023173,
          "durationTicks": 3,
          "midi": 48,
          "name": "C3",
          "ticks": 5340,
          "time": 62.093023255813954,
          "velocity": 0.33858267716535434
        },
        {
          "duration": 0.03488372093023173,
          "durationTicks": 3,
          "midi": 91,
          "name": "G6",
          "ticks": 5343,
          "time": 62.127906976744185,
          "velocity": 0.07086614173228346
        },
        {
          "duration": 0.2906976744186025,
          "durationTicks": 25,
          "midi": 100,
          "name": "E7",
          "ticks": 5348,
          "time": 62.18604651162791,
          "velocity": 0.25984251968503935
        },
        {
          "duration": 0.3372093023255758,
          "durationTicks": 29,
          "midi": 76,
          "name": "E5",
          "ticks": 5350,
          "time": 62.2093023255814,
          "velocity": 0.3464566929133858
        },
        {
          "duration": 0.04651162790698038,
          "durationTicks": 4,
          "midi": 48,
          "name": "C3",
          "ticks": 5352,
          "time": 62.23255813953488,
          "velocity": 0.3779527559055118
        },
        {
          "duration": 0.06976744186046346,
          "durationTicks": 6,
          "midi": 91,
          "name": "G6",
          "ticks": 5356,
          "time": 62.27906976744186,
          "velocity": 0.11811023622047244
        },
        {
          "duration": 0.023255813953483084,
          "durationTicks": 2,
          "midi": 49,
          "name": "C#3",
          "ticks": 5363,
          "time": 62.36046511627907,
          "velocity": 0.29133858267716534
        },
        {
          "duration": 0.11627906976744384,
          "durationTicks": 10,
          "midi": 60,
          "name": "C4",
          "ticks": 5364,
          "time": 62.372093023255815,
          "velocity": 0.28346456692913385
        },
        {
          "duration": 0.04651162790698038,
          "durationTicks": 4,
          "midi": 48,
          "name": "C3",
          "ticks": 5370,
          "time": 62.44186046511628,
          "velocity": 0.3464566929133858
        },
        {
          "duration": 0.023255813953483084,
          "durationTicks": 2,
          "midi": 49,
          "name": "C#3",
          "ticks": 5374,
          "time": 62.48837209302326,
          "velocity": 0.31496062992125984
        },
        {
          "duration": 0.03488372093023173,
          "durationTicks": 3,
          "midi": 83,
          "name": "B5",
          "ticks": 5376,
          "time": 62.51162790697674,
          "velocity": 0.14960629921259844
        },
        {
          "duration": 0.023255813953483084,
          "durationTicks": 2,
          "midi": 71,
          "name": "B4",
          "ticks": 5377,
          "time": 62.52325581395349,
          "velocity": 0.23622047244094488
        },
        {
          "duration": 0.06976744186047057,
          "durationTicks": 6,
          "midi": 70,
          "name": "A#4",
          "ticks": 5379,
          "time": 62.54651162790697,
          "velocity": 0.25984251968503935
        },
        {
          "duration": 0.02325581395349019,
          "durationTicks": 2,
          "midi": 45,
          "name": "A2",
          "ticks": 5381,
          "time": 62.56976744186046,
          "velocity": 0.2440944881889764
        },
        {
          "duration": 0.02325581395349019,
          "durationTicks": 2,
          "midi": 56,
          "name": "G#3",
          "ticks": 5384,
          "time": 62.604651162790695,
          "velocity": 0.4566929133858268
        },
        {
          "duration": 0.09302325581395365,
          "durationTicks": 8,
          "midi": 45,
          "name": "A2",
          "ticks": 5385,
          "time": 62.616279069767444,
          "velocity": 0.4330708661417323
        },
        {
          "duration": 0.09302325581395365,
          "durationTicks": 8,
          "midi": 64,
          "name": "E4",
          "ticks": 5385,
          "time": 62.616279069767444,
          "velocity": 0.1889763779527559
        },
        {
          "duration": 0.02325581395349019,
          "durationTicks": 2,
          "midi": 58,
          "name": "A#3",
          "ticks": 5387,
          "time": 62.63953488372093,
          "velocity": 0.3228346456692913
        },
        {
          "duration": 0.02325581395349019,
          "durationTicks": 2,
          "midi": 53,
          "name": "F3",
          "ticks": 5392,
          "time": 62.69767441860465,
          "velocity": 0.2440944881889764
        },
        {
          "duration": 0.03488372093023173,
          "durationTicks": 3,
          "midi": 66,
          "name": "F#4",
          "ticks": 5392,
          "time": 62.69767441860465,
          "velocity": 0.15748031496062992
        },
        {
          "duration": 0.06976744186047057,
          "durationTicks": 6,
          "midi": 85,
          "name": "C#6",
          "ticks": 5392,
          "time": 62.69767441860465,
          "velocity": 0.1889763779527559
        },
        {
          "duration": 0.2674418604651123,
          "durationTicks": 23,
          "midi": 88,
          "name": "E6",
          "ticks": 5393,
          "time": 62.7093023255814,
          "velocity": 0.2283464566929134
        },
        {
          "duration": 0.09302325581395365,
          "durationTicks": 8,
          "midi": 103,
          "name": "G7",
          "ticks": 5393,
          "time": 62.7093023255814,
          "velocity": 0.18110236220472442
        },
        {
          "duration": 0.02325581395349019,
          "durationTicks": 2,
          "midi": 71,
          "name": "B4",
          "ticks": 5394,
          "time": 62.72093023255814,
          "velocity": 0.25984251968503935
        },
        {
          "duration": 0.779069767441861,
          "durationTicks": 67,
          "midi": 74,
          "name": "D5",
          "ticks": 5394,
          "time": 62.72093023255814,
          "velocity": 0.3543307086614173
        },
        {
          "duration": 0.02325581395349019,
          "durationTicks": 2,
          "midi": 56,
          "name": "G#3",
          "ticks": 5395,
          "time": 62.73255813953488,
          "velocity": 0.3779527559055118
        },
        {
          "duration": 0.02325581395349019,
          "durationTicks": 2,
          "midi": 63,
          "name": "D#4",
          "ticks": 5395,
          "time": 62.73255813953488,
          "velocity": 0.29133858267716534
        },
        {
          "duration": 0.46511627906976827,
          "durationTicks": 40,
          "midi": 102,
          "name": "F#7",
          "ticks": 5395,
          "time": 62.73255813953488,
          "velocity": 0.12598425196850394
        },
        {
          "duration": 0.02325581395349019,
          "durationTicks": 2,
          "midi": 43,
          "name": "G2",
          "ticks": 5396,
          "time": 62.74418604651163,
          "velocity": 0.3228346456692913
        },
        {
          "duration": 0.5116279069767415,
          "durationTicks": 44,
          "midi": 76,
          "name": "E5",
          "ticks": 5396,
          "time": 62.74418604651163,
          "velocity": 0.11811023622047244
        },
        {
          "duration": 0.24418604651162923,
          "durationTicks": 21,
          "midi": 84,
          "name": "C6",
          "ticks": 5396,
          "time": 62.74418604651163,
          "velocity": 0.2204724409448819
        },
        {
          "duration": 0.02325581395349019,
          "durationTicks": 2,
          "midi": 55,
          "name": "G3",
          "ticks": 5397,
          "time": 62.75581395348837,
          "velocity": 0.36220472440944884
        },
        {
          "duration": 0.2325581395348877,
          "durationTicks": 20,
          "midi": 62,
          "name": "D4",
          "ticks": 5397,
          "time": 62.75581395348837,
          "velocity": 0.31496062992125984
        },
        {
          "duration": 0.03488372093023173,
          "durationTicks": 3,
          "midi": 44,
          "name": "G#2",
          "ticks": 5398,
          "time": 62.76744186046512,
          "velocity": 0.47244094488188976
        },
        {
          "duration": 0.15116279069767558,
          "durationTicks": 13,
          "midi": 57,
          "name": "A3",
          "ticks": 5400,
          "time": 62.7906976744186,
          "velocity": 0.28346456692913385
        },
        {
          "duration": 0.19767441860464885,
          "durationTicks": 17,
          "midi": 45,
          "name": "A2",
          "ticks": 5401,
          "time": 62.80232558139535,
          "velocity": 0.47244094488188976
        },
        {
          "duration": 0.03488372093023173,
          "durationTicks": 3,
          "midi": 56,
          "name": "G#3",
          "ticks": 5417,
          "time": 62.98837209302326,
          "velocity": 0.4409448818897638
        },
        {
          "duration": 0.023255813953483084,
          "durationTicks": 2,
          "midi": 63,
          "name": "D#4",
          "ticks": 5417,
          "time": 62.98837209302326,
          "velocity": 0.3228346456692913
        },
        {
          "duration": 0.05813953488372192,
          "durationTicks": 5,
          "midi": 79,
          "name": "G5",
          "ticks": 5418,
          "time": 63,
          "velocity": 0.11023622047244094
        },
        {
          "duration": 0.2558139534883779,
          "durationTicks": 22,
          "midi": 62,
          "name": "D4",
          "ticks": 5419,
          "time": 63.01162790697674,
          "velocity": 0.33070866141732286
        },
        {
          "duration": 0.2093023255813975,
          "durationTicks": 18,
          "midi": 85,
          "name": "C#6",
          "ticks": 5419,
          "time": 63.01162790697674,
          "velocity": 0.14960629921259844
        },
        {
          "duration": 0.23255813953488058,
          "durationTicks": 20,
          "midi": 45,
          "name": "A2",
          "ticks": 5420,
          "time": 63.02325581395349,
          "velocity": 0.47244094488188976
        },
        {
          "duration": 0.02325581395349019,
          "durationTicks": 2,
          "midi": 56,
          "name": "G#3",
          "ticks": 5438,
          "time": 63.23255813953488,
          "velocity": 0.3464566929133858
        },
        {
          "duration": 0.03488372093023884,
          "durationTicks": 3,
          "midi": 79,
          "name": "G5",
          "ticks": 5438,
          "time": 63.23255813953488,
          "velocity": 0.10236220472440945
        },
        {
          "duration": 0.03488372093023173,
          "durationTicks": 3,
          "midi": 55,
          "name": "G3",
          "ticks": 5440,
          "time": 63.25581395348837,
          "velocity": 0.3858267716535433
        },
        {
          "duration": 0.06976744186046346,
          "durationTicks": 6,
          "midi": 44,
          "name": "G#2",
          "ticks": 5442,
          "time": 63.27906976744186,
          "velocity": 0.28346456692913385
        },
        {
          "duration": 0.02325581395349019,
          "durationTicks": 2,
          "midi": 55,
          "name": "G3",
          "ticks": 5448,
          "time": 63.348837209302324,
          "velocity": 0.4015748031496063
        },
        {
          "duration": 0.023255813953483084,
          "durationTicks": 2,
          "midi": 61,
          "name": "C#4",
          "ticks": 5449,
          "time": 63.36046511627907,
          "velocity": 0.2992125984251969
        },
        {
          "duration": 0.13953488372092693,
          "durationTicks": 12,
          "midi": 76,
          "name": "E5",
          "ticks": 5449,
          "time": 63.36046511627907,
          "velocity": 0.11023622047244094
        },
        {
          "duration": 0.03488372093023173,
          "durationTicks": 3,
          "midi": 56,
          "name": "G#3",
          "ticks": 5450,
          "time": 63.372093023255815,
          "velocity": 0.5039370078740157
        },
        {
          "duration": 0.06976744186047057,
          "durationTicks": 6,
          "midi": 84,
          "name": "C6",
          "ticks": 5451,
          "time": 63.383720930232556,
          "velocity": 0.14960629921259844
        },
        {
          "duration": 0.11627906976743674,
          "durationTicks": 10,
          "midi": 45,
          "name": "A2",
          "ticks": 5452,
          "time": 63.395348837209305,
          "velocity": 0.44881889763779526
        },
        {
          "duration": 0.08139534883721211,
          "durationTicks": 7,
          "midi": 62,
          "name": "D4",
          "ticks": 5453,
          "time": 63.406976744186046,
          "velocity": 0.2440944881889764
        },
        {
          "duration": 0.02325581395349019,
          "durationTicks": 2,
          "midi": 44,
          "name": "G#2",
          "ticks": 5462,
          "time": 63.51162790697674,
          "velocity": 0.4015748031496063
        },
        {
          "duration": 0.1046511627907023,
          "durationTicks": 9,
          "midi": 44,
          "name": "G#2",
          "ticks": 5465,
          "time": 63.54651162790697,
          "velocity": 0.3700787401574803
        },
        {
          "duration": 0.02325581395349019,
          "durationTicks": 2,
          "midi": 55,
          "name": "G3",
          "ticks": 5470,
          "time": 63.604651162790695,
          "velocity": 0.4330708661417323
        },
        {
          "duration": 0.03488372093023173,
          "durationTicks": 3,
          "midi": 61,
          "name": "C#4",
          "ticks": 5470,
          "time": 63.604651162790695,
          "velocity": 0.2992125984251969
        },
        {
          "duration": 0.02325581395349019,
          "durationTicks": 2,
          "midi": 56,
          "name": "G#3",
          "ticks": 5472,
          "time": 63.627906976744185,
          "velocity": 0.49606299212598426
        },
        {
          "duration": 0.2093023255813975,
          "durationTicks": 18,
          "midi": 69,
          "name": "A4",
          "ticks": 5472,
          "time": 63.627906976744185,
          "velocity": 0.3858267716535433
        },
        {
          "duration": 0.09302325581395365,
          "durationTicks": 8,
          "midi": 62,
          "name": "D4",
          "ticks": 5473,
          "time": 63.63953488372093,
          "velocity": 0.28346456692913385
        },
        {
          "duration": 0.1046511627907023,
          "durationTicks": 9,
          "midi": 76,
          "name": "E5",
          "ticks": 5473,
          "time": 63.63953488372093,
          "velocity": 0.08661417322834646
        },
        {
          "duration": 0.05813953488372192,
          "durationTicks": 5,
          "midi": 84,
          "name": "C6",
          "ticks": 5473,
          "time": 63.63953488372093,
          "velocity": 0.11811023622047244
        },
        {
          "duration": 0.23255813953488058,
          "durationTicks": 20,
          "midi": 57,
          "name": "A3",
          "ticks": 5474,
          "time": 63.651162790697676,
          "velocity": 0.5039370078740157
        },
        {
          "duration": 0.03488372093023173,
          "durationTicks": 3,
          "midi": 44,
          "name": "G#2",
          "ticks": 5475,
          "time": 63.66279069767442,
          "velocity": 0.4409448818897638
        },
        {
          "duration": 0.05813953488372192,
          "durationTicks": 5,
          "midi": 45,
          "name": "A2",
          "ticks": 5478,
          "time": 63.69767441860465,
          "velocity": 0.4330708661417323
        },
        {
          "duration": 0.1046511627906952,
          "durationTicks": 9,
          "midi": 88,
          "name": "E6",
          "ticks": 5482,
          "time": 63.74418604651163,
          "velocity": 0.2047244094488189
        },
        {
          "duration": 0.09302325581395365,
          "durationTicks": 8,
          "midi": 103,
          "name": "G7",
          "ticks": 5482,
          "time": 63.74418604651163,
          "velocity": 0.25984251968503935
        },
        {
          "duration": 0.13953488372093403,
          "durationTicks": 12,
          "midi": 62,
          "name": "D4",
          "ticks": 5483,
          "time": 63.75581395348837,
          "velocity": 0.25196850393700787
        },
        {
          "duration": 0.12790697674418539,
          "durationTicks": 11,
          "midi": 45,
          "name": "A2",
          "ticks": 5484,
          "time": 63.76744186046512,
          "velocity": 0.3700787401574803
        },
        {
          "duration": 0.09302325581395365,
          "durationTicks": 8,
          "midi": 76,
          "name": "E5",
          "ticks": 5492,
          "time": 63.86046511627907,
          "velocity": 0.07086614173228346
        },
        {
          "duration": 0.03488372093023173,
          "durationTicks": 3,
          "midi": 56,
          "name": "G#3",
          "ticks": 5494,
          "time": 63.883720930232556,
          "velocity": 0.4094488188976378
        },
        {
          "duration": 0.09302325581395365,
          "durationTicks": 8,
          "midi": 80,
          "name": "G#5",
          "ticks": 5494,
          "time": 63.883720930232556,
          "velocity": 0.2204724409448819
        },
        {
          "duration": 0.12790697674417828,
          "durationTicks": 11,
          "midi": 85,
          "name": "C#6",
          "ticks": 5495,
          "time": 63.895348837209305,
          "velocity": 0.14173228346456693
        },
        {
          "duration": 0.046511627906973274,
          "durationTicks": 4,
          "midi": 99,
          "name": "D#7",
          "ticks": 5495,
          "time": 63.895348837209305,
          "velocity": 0.08661417322834646
        },
        {
          "duration": 0.09302325581395365,
          "durationTicks": 8,
          "midi": 62,
          "name": "D4",
          "ticks": 5496,
          "time": 63.906976744186046,
          "velocity": 0.25196850393700787
        },
        {
          "duration": 0.02325581395349019,
          "durationTicks": 2,
          "midi": 44,
          "name": "G#2",
          "ticks": 5497,
          "time": 63.91860465116279,
          "velocity": 0.4251968503937008
        },
        {
          "duration": 0.09302325581395365,
          "durationTicks": 8,
          "midi": 57,
          "name": "A3",
          "ticks": 5497,
          "time": 63.91860465116279,
          "velocity": 0.4409448818897638
        },
        {
          "duration": 0.03488372093023173,
          "durationTicks": 3,
          "midi": 68,
          "name": "G#4",
          "ticks": 5498,
          "time": 63.93023255813954,
          "velocity": 0.2047244094488189
        },
        {
          "duration": 0.06976744186046346,
          "durationTicks": 6,
          "midi": 45,
          "name": "A2",
          "ticks": 5499,
          "time": 63.94186046511628,
          "velocity": 0.4409448818897638
        },
        {
          "duration": 0.09302325581394655,
          "durationTicks": 8,
          "midi": 67,
          "name": "G4",
          "ticks": 5504,
          "time": 64,
          "velocity": 0.2992125984251969
        },
        {
          "duration": 0.04651162790698038,
          "durationTicks": 4,
          "midi": 44,
          "name": "G#2",
          "ticks": 5505,
          "time": 64.01162790697674,
          "velocity": 0.4251968503937008
        },
        {
          "duration": 0.04651162790698038,
          "durationTicks": 4,
          "midi": 95,
          "name": "B6",
          "ticks": 5506,
          "time": 64.02325581395348,
          "velocity": 0.07086614173228346
        },
        {
          "duration": 0.03488372093023884,
          "durationTicks": 3,
          "midi": 44,
          "name": "G#2",
          "ticks": 5512,
          "time": 64.09302325581395,
          "velocity": 0.1889763779527559
        },
        {
          "duration": 0.05813953488372192,
          "durationTicks": 5,
          "midi": 71,
          "name": "B4",
          "ticks": 5513,
          "time": 64.1046511627907,
          "velocity": 0.18110236220472442
        },
        {
          "duration": 0.023255813953483084,
          "durationTicks": 2,
          "midi": 43,
          "name": "G2",
          "ticks": 5515,
          "time": 64.12790697674419,
          "velocity": 0.2440944881889764
        },
        {
          "duration": 0.023255813953483084,
          "durationTicks": 2,
          "midi": 55,
          "name": "G3",
          "ticks": 5515,
          "time": 64.12790697674419,
          "velocity": 0.4330708661417323
        },
        {
          "duration": 0.1046511627907023,
          "durationTicks": 9,
          "midi": 78,
          "name": "F#5",
          "ticks": 5515,
          "time": 64.12790697674419,
          "velocity": 0.2440944881889764
        },
        {
          "duration": 0.06976744186046346,
          "durationTicks": 6,
          "midi": 86,
          "name": "D6",
          "ticks": 5515,
          "time": 64.12790697674419,
          "velocity": 0.18110236220472442
        },
        {
          "duration": 0.27906976744186807,
          "durationTicks": 24,
          "midi": 62,
          "name": "D4",
          "ticks": 5516,
          "time": 64.13953488372093,
          "velocity": 0.33070866141732286
        },
        {
          "duration": 0.13953488372092693,
          "durationTicks": 12,
          "midi": 66,
          "name": "F#4",
          "ticks": 5516,
          "time": 64.13953488372093,
          "velocity": 0.33070866141732286
        },
        {
          "duration": 0.04651162790698038,
          "durationTicks": 4,
          "midi": 69,
          "name": "A4",
          "ticks": 5516,
          "time": 64.13953488372093,
          "velocity": 0.14173228346456693
        },
        {
          "duration": 0.03488372093023884,
          "durationTicks": 3,
          "midi": 44,
          "name": "G#2",
          "ticks": 5517,
          "time": 64.15116279069767,
          "velocity": 0.4566929133858268
        },
        {
          "duration": 0.13953488372094114,
          "durationTicks": 12,
          "midi": 76,
          "name": "E5",
          "ticks": 5517,
          "time": 64.15116279069767,
          "velocity": 0.14960629921259844
        },
        {
          "duration": 0.2674418604651265,
          "durationTicks": 23,
          "midi": 84,
          "name": "C6",
          "ticks": 5517,
          "time": 64.15116279069767,
          "velocity": 0.15748031496062992
        },
        {
          "duration": 0.04651162790698038,
          "durationTicks": 4,
          "midi": 100,
          "name": "E7",
          "ticks": 5517,
          "time": 64.15116279069767,
          "velocity": 0.11023622047244094
        },
        {
          "duration": 0.04651162790696617,
          "durationTicks": 4,
          "midi": 94,
          "name": "A#6",
          "ticks": 5518,
          "time": 64.16279069767442,
          "velocity": 0.12598425196850394
        },
        {
          "duration": 0.04651162790696617,
          "durationTicks": 4,
          "midi": 97,
          "name": "C#7",
          "ticks": 5518,
          "time": 64.16279069767442,
          "velocity": 0.10236220472440945
        },
        {
          "duration": 0.46511627906976116,
          "durationTicks": 40,
          "midi": 57,
          "name": "A3",
          "ticks": 5519,
          "time": 64.17441860465117,
          "velocity": 0.47244094488188976
        },
        {
          "duration": 0.24418604651162923,
          "durationTicks": 21,
          "midi": 45,
          "name": "A2",
          "ticks": 5520,
          "time": 64.18604651162791,
          "velocity": 0.4881889763779528
        },
        {
          "duration": 0.034883720930224626,
          "durationTicks": 3,
          "midi": 85,
          "name": "C#6",
          "ticks": 5523,
          "time": 64.22093023255815,
          "velocity": 0.09448818897637795
        },
        {
          "duration": 0.1046511627907023,
          "durationTicks": 9,
          "midi": 65,
          "name": "F4",
          "ticks": 5528,
          "time": 64.27906976744185,
          "velocity": 0.33858267716535434
        },
        {
          "duration": 0.09302325581396076,
          "durationTicks": 8,
          "midi": 101,
          "name": "F7",
          "ticks": 5528,
          "time": 64.27906976744185,
          "velocity": 0.16535433070866143
        },
        {
          "duration": 0.11627906976742963,
          "durationTicks": 10,
          "midi": 76,
          "name": "E5",
          "ticks": 5539,
          "time": 64.40697674418605,
          "velocity": 0.2755905511811024
        },
        {
          "duration": 0.05813953488372192,
          "durationTicks": 5,
          "midi": 92,
          "name": "G#6",
          "ticks": 5540,
          "time": 64.4186046511628,
          "velocity": 0.09448818897637795
        },
        {
          "duration": 0.04651162790698038,
          "durationTicks": 4,
          "midi": 64,
          "name": "E4",
          "ticks": 5541,
          "time": 64.43023255813954,
          "velocity": 0.3464566929133858
        },
        {
          "duration": 0.05813953488372192,
          "durationTicks": 5,
          "midi": 83,
          "name": "B5",
          "ticks": 5541,
          "time": 64.43023255813954,
          "velocity": 0.14173228346456693
        },
        {
          "duration": 0.11627906976744384,
          "durationTicks": 10,
          "midi": 85,
          "name": "C#6",
          "ticks": 5541,
          "time": 64.43023255813954,
          "velocity": 0.11023622047244094
        },
        {
          "duration": 0.023255813953497295,
          "durationTicks": 2,
          "midi": 50,
          "name": "D3",
          "ticks": 5544,
          "time": 64.46511627906976,
          "velocity": 0.3464566929133858
        },
        {
          "duration": 0.09302325581394655,
          "durationTicks": 8,
          "midi": 45,
          "name": "A2",
          "ticks": 5545,
          "time": 64.47674418604652,
          "velocity": 0.4330708661417323
        },
        {
          "duration": 0.034883720930224626,
          "durationTicks": 3,
          "midi": 62,
          "name": "D4",
          "ticks": 5546,
          "time": 64.48837209302326,
          "velocity": 0.2677165354330709
        },
        {
          "duration": 0.081395348837205,
          "durationTicks": 7,
          "midi": 63,
          "name": "D#4",
          "ticks": 5550,
          "time": 64.53488372093024,
          "velocity": 0.44881889763779526
        },
        {
          "duration": 0.081395348837205,
          "durationTicks": 7,
          "midi": 82,
          "name": "A#5",
          "ticks": 5550,
          "time": 64.53488372093024,
          "velocity": 0.18110236220472442
        },
        {
          "duration": 0.034883720930224626,
          "durationTicks": 3,
          "midi": 91,
          "name": "G6",
          "ticks": 5552,
          "time": 64.55813953488372,
          "velocity": 0.09448818897637795
        },
        {
          "duration": 0.03488372093023884,
          "durationTicks": 3,
          "midi": 46,
          "name": "A#2",
          "ticks": 5553,
          "time": 64.56976744186046,
          "velocity": 0.3858267716535433
        },
        {
          "duration": 0.04651162790698038,
          "durationTicks": 4,
          "midi": 44,
          "name": "G#2",
          "ticks": 5557,
          "time": 64.61627906976744,
          "velocity": 0.4330708661417323
        },
        {
          "duration": 0.16279069767441,
          "durationTicks": 14,
          "midi": 71,
          "name": "B4",
          "ticks": 5557,
          "time": 64.61627906976744,
          "velocity": 0.1968503937007874
        },
        {
          "duration": 0.034883720930224626,
          "durationTicks": 3,
          "midi": 85,
          "name": "C#6",
          "ticks": 5557,
          "time": 64.61627906976744,
          "velocity": 0.07874015748031496
        },
        {
          "duration": 0.023255813953483084,
          "durationTicks": 2,
          "midi": 63,
          "name": "D#4",
          "ticks": 5558,
          "time": 64.62790697674419,
          "velocity": 0.2283464566929134
        },
        {
          "duration": 0.11627906976744384,
          "durationTicks": 10,
          "midi": 74,
          "name": "D5",
          "ticks": 5560,
          "time": 64.65116279069767,
          "velocity": 0.36220472440944884
        },
        {
          "duration": 0.09302325581394655,
          "durationTicks": 8,
          "midi": 62,
          "name": "D4",
          "ticks": 5561,
          "time": 64.66279069767442,
          "velocity": 0.4094488188976378
        },
        {
          "duration": 0.023255813953483084,
          "durationTicks": 2,
          "midi": 44,
          "name": "G#2",
          "ticks": 5562,
          "time": 64.67441860465117,
          "velocity": 0.28346456692913385
        },
        {
          "duration": 0.081395348837205,
          "durationTicks": 7,
          "midi": 81,
          "name": "A5",
          "ticks": 5562,
          "time": 64.67441860465117,
          "velocity": 0.14173228346456693
        },
        {
          "duration": 0.03488372093023884,
          "durationTicks": 3,
          "midi": 56,
          "name": "G#3",
          "ticks": 5563,
          "time": 64.68604651162791,
          "velocity": 0.4645669291338583
        },
        {
          "duration": 0.05813953488372192,
          "durationTicks": 5,
          "midi": 45,
          "name": "A2",
          "ticks": 5564,
          "time": 64.69767441860465,
          "velocity": 0.4015748031496063
        },
        {
          "duration": 0.04651162790698038,
          "durationTicks": 4,
          "midi": 56,
          "name": "G#3",
          "ticks": 5569,
          "time": 64.75581395348837,
          "velocity": 0.3543307086614173
        },
        {
          "duration": 0.023255813953497295,
          "durationTicks": 2,
          "midi": 43,
          "name": "G2",
          "ticks": 5570,
          "time": 64.76744186046511,
          "velocity": 0.2283464566929134
        },
        {
          "duration": 0.1046511627907023,
          "durationTicks": 9,
          "midi": 61,
          "name": "C#4",
          "ticks": 5573,
          "time": 64.80232558139535,
          "velocity": 0.44881889763779526
        },
        {
          "duration": 0.5465116279069804,
          "durationTicks": 47,
          "midi": 68,
          "name": "G#4",
          "ticks": 5573,
          "time": 64.80232558139535,
          "velocity": 0.1968503937007874
        },
        {
          "duration": 0.5348837209302388,
          "durationTicks": 46,
          "midi": 56,
          "name": "G#3",
          "ticks": 5574,
          "time": 64.81395348837209,
          "velocity": 0.5039370078740157
        },
        {
          "duration": 0.27906976744185386,
          "durationTicks": 24,
          "midi": 84,
          "name": "C6",
          "ticks": 5574,
          "time": 64.81395348837209,
          "velocity": 0.14173228346456693
        },
        {
          "duration": 0.05813953488372192,
          "durationTicks": 5,
          "midi": 77,
          "name": "F5",
          "ticks": 5575,
          "time": 64.82558139534883,
          "velocity": 0.15748031496062992
        },
        {
          "duration": 0.15116279069766847,
          "durationTicks": 13,
          "midi": 44,
          "name": "G#2",
          "ticks": 5579,
          "time": 64.87209302325581,
          "velocity": 0.4330708661417323
        },
        {
          "duration": 0.06976744186046346,
          "durationTicks": 6,
          "midi": 73,
          "name": "C#5",
          "ticks": 5582,
          "time": 64.90697674418605,
          "velocity": 0.2677165354330709
        },
        {
          "duration": 0.05813953488372192,
          "durationTicks": 5,
          "midi": 61,
          "name": "C#4",
          "ticks": 5583,
          "time": 64.9186046511628,
          "velocity": 0.33858267716535434
        },
        {
          "duration": 0.023255813953483084,
          "durationTicks": 2,
          "midi": 62,
          "name": "D4",
          "ticks": 5588,
          "time": 64.97674418604652,
          "velocity": 0.3543307086614173
        },
        {
          "duration": 0.081395348837205,
          "durationTicks": 7,
          "midi": 73,
          "name": "C#5",
          "ticks": 5589,
          "time": 64.98837209302326,
          "velocity": 0.28346456692913385
        },
        {
          "duration": 0.081395348837205,
          "durationTicks": 7,
          "midi": 61,
          "name": "C#4",
          "ticks": 5590,
          "time": 65,
          "velocity": 0.4330708661417323
        },
        {
          "duration": 0.04651162790696617,
          "durationTicks": 4,
          "midi": 44,
          "name": "G#2",
          "ticks": 5594,
          "time": 65.04651162790698,
          "velocity": 0.3858267716535433
        },
        {
          "duration": 0.04651162790698038,
          "durationTicks": 4,
          "midi": 71,
          "name": "B4",
          "ticks": 5596,
          "time": 65.06976744186046,
          "velocity": 0.14173228346456693
        },
        {
          "duration": 0.24418604651162923,
          "durationTicks": 21,
          "midi": 73,
          "name": "C#5",
          "ticks": 5597,
          "time": 65.0813953488372,
          "velocity": 0.3464566929133858
        },
        {
          "duration": 0.06976744186047767,
          "durationTicks": 6,
          "midi": 61,
          "name": "C#4",
          "ticks": 5598,
          "time": 65.09302325581395,
          "velocity": 0.36220472440944884
        },
        {
          "duration": 0.16279069767441,
          "durationTicks": 14,
          "midi": 44,
          "name": "G#2",
          "ticks": 5600,
          "time": 65.11627906976744,
          "velocity": 0.4409448818897638
        },
        {
          "duration": 0.1860465116279073,
          "durationTicks": 16,
          "midi": 84,
          "name": "C6",
          "ticks": 5603,
          "time": 65.15116279069767,
          "velocity": 0.09448818897637795
        },
        {
          "duration": 0.05813953488372192,
          "durationTicks": 5,
          "midi": 61,
          "name": "C#4",
          "ticks": 5605,
          "time": 65.17441860465117,
          "velocity": 0.4251968503937008
        },
        {
          "duration": 0.023255813953483084,
          "durationTicks": 2,
          "midi": 63,
          "name": "D#4",
          "ticks": 5610,
          "time": 65.23255813953489,
          "velocity": 0.25984251968503935
        },
        {
          "duration": 0.13953488372092693,
          "durationTicks": 12,
          "midi": 61,
          "name": "C#4",
          "ticks": 5612,
          "time": 65.25581395348837,
          "velocity": 0.4881889763779528
        },
        {
          "duration": 0.04651162790698038,
          "durationTicks": 4,
          "midi": 92,
          "name": "G#6",
          "ticks": 5613,
          "time": 65.26744186046511,
          "velocity": 0.07874015748031496
        },
        {
          "duration": 0.1279069767441996,
          "durationTicks": 11,
          "midi": 80,
          "name": "G#5",
          "ticks": 5614,
          "time": 65.27906976744185,
          "velocity": 0.2047244094488189
        },
        {
          "duration": 0.023255813953483084,
          "durationTicks": 2,
          "midi": 56,
          "name": "G#3",
          "ticks": 5621,
          "time": 65.36046511627907,
          "velocity": 0.31496062992125984
        },
        {
          "duration": 0.034883720930224626,
          "durationTicks": 3,
          "midi": 67,
          "name": "G4",
          "ticks": 5621,
          "time": 65.36046511627907,
          "velocity": 0.12598425196850394
        },
        {
          "duration": 0.06976744186046346,
          "durationTicks": 6,
          "midi": 44,
          "name": "G#2",
          "ticks": 5622,
          "time": 65.37209302325581,
          "velocity": 0.3228346456692913
        },
        {
          "duration": 0.023255813953497295,
          "durationTicks": 2,
          "midi": 60,
          "name": "C4",
          "ticks": 5624,
          "time": 65.3953488372093,
          "velocity": 0.3464566929133858
        },
        {
          "duration": 0.023255813953483084,
          "durationTicks": 2,
          "midi": 55,
          "name": "G3",
          "ticks": 5627,
          "time": 65.43023255813954,
          "velocity": 0.30708661417322836
        },
        {
          "duration": 0.1046511627907023,
          "durationTicks": 9,
          "midi": 92,
          "name": "G#6",
          "ticks": 5627,
          "time": 65.43023255813954,
          "velocity": 0.10236220472440945
        },
        {
          "duration": 0.12790697674418539,
          "durationTicks": 11,
          "midi": 80,
          "name": "G#5",
          "ticks": 5628,
          "time": 65.44186046511628,
          "velocity": 0.11023622047244094
        },
        {
          "duration": 0.03488372093023884,
          "durationTicks": 3,
          "midi": 97,
          "name": "C#7",
          "ticks": 5628,
          "time": 65.44186046511628,
          "velocity": 0.12598425196850394
        },
        {
          "duration": 0.023255813953497295,
          "durationTicks": 2,
          "midi": 57,
          "name": "A3",
          "ticks": 5629,
          "time": 65.45348837209302,
          "velocity": 0.4566929133858268
        },
        {
          "duration": 0.04651162790698038,
          "durationTicks": 4,
          "midi": 87,
          "name": "D#6",
          "ticks": 5629,
          "time": 65.45348837209302,
          "velocity": 0.10236220472440945
        },
        {
          "duration": 0.023255813953497295,
          "durationTicks": 2,
          "midi": 47,
          "name": "B2",
          "ticks": 5630,
          "time": 65.46511627906976,
          "velocity": 0.33070866141732286
        },
        {
          "duration": 0.11627906976744384,
          "durationTicks": 10,
          "midi": 61,
          "name": "C#4",
          "ticks": 5630,
          "time": 65.46511627906976,
          "velocity": 0.4409448818897638
        },
        {
          "duration": 0.11627906976744384,
          "durationTicks": 10,
          "midi": 68,
          "name": "G#4",
          "ticks": 5630,
          "time": 65.46511627906976,
          "velocity": 0.18110236220472442
        },
        {
          "duration": 0.1860465116279073,
          "durationTicks": 16,
          "midi": 56,
          "name": "G#3",
          "ticks": 5632,
          "time": 65.48837209302326,
          "velocity": 0.5196850393700787
        },
        {
          "duration": 0.023255813953483084,
          "durationTicks": 2,
          "midi": 44,
          "name": "G#2",
          "ticks": 5633,
          "time": 65.5,
          "velocity": 0.33070866141732286
        },
        {
          "duration": 0.04651162790698038,
          "durationTicks": 4,
          "midi": 44,
          "name": "G#2",
          "ticks": 5638,
          "time": 65.55813953488372,
          "velocity": 0.3700787401574803
        },
        {
          "duration": 0.22093023255813193,
          "durationTicks": 19,
          "midi": 74,
          "name": "D5",
          "ticks": 5638,
          "time": 65.55813953488372,
          "velocity": 0.4094488188976378
        },
        {
          "duration": 0.04651162790698038,
          "durationTicks": 4,
          "midi": 62,
          "name": "D4",
          "ticks": 5640,
          "time": 65.5813953488372,
          "velocity": 0.3937007874015748
        },
        {
          "duration": 0.034883720930224626,
          "durationTicks": 3,
          "midi": 44,
          "name": "G#2",
          "ticks": 5643,
          "time": 65.61627906976744,
          "velocity": 0.2755905511811024
        },
        {
          "duration": 0.06976744186046346,
          "durationTicks": 6,
          "midi": 62,
          "name": "D4",
          "ticks": 5645,
          "time": 65.63953488372093,
          "velocity": 0.4251968503937008
        },
        {
          "duration": 0.04651162790698038,
          "durationTicks": 4,
          "midi": 71,
          "name": "B4",
          "ticks": 5645,
          "time": 65.63953488372093,
          "velocity": 0.2047244094488189
        },
        {
          "duration": 0.12790697674418539,
          "durationTicks": 11,
          "midi": 81,
          "name": "A5",
          "ticks": 5646,
          "time": 65.65116279069767,
          "velocity": 0.2755905511811024
        },
        {
          "duration": 0.034883720930224626,
          "durationTicks": 3,
          "midi": 43,
          "name": "G2",
          "ticks": 5648,
          "time": 65.67441860465117,
          "velocity": 0.2677165354330709
        },
        {
          "duration": 0.023255813953497295,
          "durationTicks": 2,
          "midi": 56,
          "name": "G#3",
          "ticks": 5650,
          "time": 65.69767441860465,
          "velocity": 0.2440944881889764
        },
        {
          "duration": 0.03488372093023884,
          "durationTicks": 3,
          "midi": 61,
          "name": "C#4",
          "ticks": 5651,
          "time": 65.70930232558139,
          "velocity": 0.3700787401574803
        },
        {
          "duration": 0.13953488372092693,
          "durationTicks": 12,
          "midi": 77,
          "name": "F5",
          "ticks": 5653,
          "time": 65.73255813953489,
          "velocity": 0.16535433070866143
        },
        {
          "duration": 0.023255813953483084,
          "durationTicks": 2,
          "midi": 62,
          "name": "D4",
          "ticks": 5654,
          "time": 65.74418604651163,
          "velocity": 0.36220472440944884
        },
        {
          "duration": 0.04651162790698038,
          "durationTicks": 4,
          "midi": 45,
          "name": "A2",
          "ticks": 5655,
          "time": 65.75581395348837,
          "velocity": 0.4330708661417323
        },
        {
          "duration": 0.11627906976744384,
          "durationTicks": 10,
          "midi": 58,
          "name": "A#3",
          "ticks": 5655,
          "time": 65.75581395348837,
          "velocity": 0.4330708661417323
        },
        {
          "duration": 0.1046511627907023,
          "durationTicks": 9,
          "midi": 84,
          "name": "C6",
          "ticks": 5655,
          "time": 65.75581395348837,
          "velocity": 0.12598425196850394
        },
        {
          "duration": 0.3604651162790731,
          "durationTicks": 31,
          "midi": 63,
          "name": "D#4",
          "ticks": 5656,
          "time": 65.76744186046511,
          "velocity": 0.44881889763779526
        },
        {
          "duration": 0.5116279069767558,
          "durationTicks": 44,
          "midi": 75,
          "name": "D#5",
          "ticks": 5657,
          "time": 65.77906976744185,
          "velocity": 0.4645669291338583
        },
        {
          "duration": 0.5,
          "durationTicks": 43,
          "midi": 82,
          "name": "A#5",
          "ticks": 5658,
          "time": 65.79069767441861,
          "velocity": 0.28346456692913385
        },
        {
          "duration": 0.04651162790698038,
          "durationTicks": 4,
          "midi": 51,
          "name": "D#3",
          "ticks": 5659,
          "time": 65.80232558139535,
          "velocity": 0.3858267716535433
        },
        {
          "duration": 0.1860465116279073,
          "durationTicks": 16,
          "midi": 91,
          "name": "G6",
          "ticks": 5660,
          "time": 65.81395348837209,
          "velocity": 0.11023622047244094
        },
        {
          "duration": 0.023255813953497295,
          "durationTicks": 2,
          "midi": 47,
          "name": "B2",
          "ticks": 5662,
          "time": 65.83720930232558,
          "velocity": 0.33858267716535434
        },
        {
          "duration": 0.023255813953497295,
          "durationTicks": 2,
          "midi": 45,
          "name": "A2",
          "ticks": 5666,
          "time": 65.88372093023256,
          "velocity": 0.2677165354330709
        },
        {
          "duration": 0.06976744186046346,
          "durationTicks": 6,
          "midi": 44,
          "name": "G#2",
          "ticks": 5668,
          "time": 65.90697674418605,
          "velocity": 0.2125984251968504
        },
        {
          "duration": 0.15116279069766847,
          "durationTicks": 13,
          "midi": 58,
          "name": "A#3",
          "ticks": 5675,
          "time": 65.98837209302326,
          "velocity": 0.4094488188976378
        },
        {
          "duration": 0.05813953488372192,
          "durationTicks": 5,
          "midi": 84,
          "name": "C6",
          "ticks": 5676,
          "time": 66,
          "velocity": 0.1889763779527559
        },
        {
          "duration": 0.05813953488372192,
          "durationTicks": 5,
          "midi": 86,
          "name": "D6",
          "ticks": 5676,
          "time": 66,
          "velocity": 0.11811023622047244
        },
        {
          "duration": 0.03488372093023884,
          "durationTicks": 3,
          "midi": 90,
          "name": "F#6",
          "ticks": 5676,
          "time": 66,
          "velocity": 0.14960629921259844
        },
        {
          "duration": 0.11627906976744384,
          "durationTicks": 10,
          "midi": 77,
          "name": "F5",
          "ticks": 5678,
          "time": 66.02325581395348,
          "velocity": 0.14173228346456693
        },
        {
          "duration": 0.09302325581396076,
          "durationTicks": 8,
          "midi": 89,
          "name": "F6",
          "ticks": 5678,
          "time": 66.02325581395348,
          "velocity": 0.2047244094488189
        },
        {
          "duration": 0.13953488372094114,
          "durationTicks": 12,
          "midi": 91,
          "name": "G6",
          "ticks": 5678,
          "time": 66.02325581395348,
          "velocity": 0.13385826771653545
        },
        {
          "duration": 0.034883720930224626,
          "durationTicks": 3,
          "midi": 45,
          "name": "A2",
          "ticks": 5679,
          "time": 66.03488372093024,
          "velocity": 0.4409448818897638
        },
        {
          "duration": 0.09302325581394655,
          "durationTicks": 8,
          "midi": 85,
          "name": "C#6",
          "ticks": 5680,
          "time": 66.04651162790698,
          "velocity": 0.2125984251968504
        },
        {
          "duration": 0.023255813953483084,
          "durationTicks": 2,
          "midi": 46,
          "name": "A#2",
          "ticks": 5682,
          "time": 66.06976744186046,
          "velocity": 0.3779527559055118
        },
        {
          "duration": 0.023255813953497295,
          "durationTicks": 2,
          "midi": 47,
          "name": "B2",
          "ticks": 5684,
          "time": 66.09302325581395,
          "velocity": 0.36220472440944884
        },
        {
          "duration": 0.034883720930224626,
          "durationTicks": 3,
          "midi": 45,
          "name": "A2",
          "ticks": 5686,
          "time": 66.11627906976744,
          "velocity": 0.3543307086614173
        },
        {
          "duration": 0.023255813953483084,
          "durationTicks": 2,
          "midi": 64,
          "name": "E4",
          "ticks": 5687,
          "time": 66.12790697674419,
          "velocity": 0.3700787401574803
        },
        {
          "duration": 0.1046511627907023,
          "durationTicks": 9,
          "midi": 44,
          "name": "G#2",
          "ticks": 5689,
          "time": 66.15116279069767,
          "velocity": 0.36220472440944884
        },
        {
          "duration": 0.13953488372094114,
          "durationTicks": 12,
          "midi": 63,
          "name": "D#4",
          "ticks": 5689,
          "time": 66.15116279069767,
          "velocity": 0.4251968503937008
        },
        {
          "duration": 0.023255813953483084,
          "durationTicks": 2,
          "midi": 55,
          "name": "G3",
          "ticks": 5690,
          "time": 66.16279069767442,
          "velocity": 0.29133858267716534
        },
        {
          "duration": 0.03488372093023884,
          "durationTicks": 3,
          "midi": 57,
          "name": "A3",
          "ticks": 5694,
          "time": 66.20930232558139,
          "velocity": 0.25984251968503935
        },
        {
          "duration": 0.023255813953483084,
          "durationTicks": 2,
          "midi": 55,
          "name": "G3",
          "ticks": 5697,
          "time": 66.24418604651163,
          "velocity": 0.44881889763779526
        },
        {
          "duration": 0.04651162790698038,
          "durationTicks": 4,
          "midi": 77,
          "name": "F5",
          "ticks": 5698,
          "time": 66.25581395348837,
          "velocity": 0.1889763779527559
        },
        {
          "duration": 0.15116279069768268,
          "durationTicks": 13,
          "midi": 86,
          "name": "D6",
          "ticks": 5698,
          "time": 66.25581395348837,
          "velocity": 0.09448818897637795
        },
        {
          "duration": 0.04651162790698038,
          "durationTicks": 4,
          "midi": 45,
          "name": "A2",
          "ticks": 5700,
          "time": 66.27906976744185,
          "velocity": 0.4566929133858268
        },
        {
          "duration": 0.22093023255814614,
          "durationTicks": 19,
          "midi": 58,
          "name": "A#3",
          "ticks": 5700,
          "time": 66.27906976744185,
          "velocity": 0.41732283464566927
        },
        {
          "duration": 0.034883720930224626,
          "durationTicks": 3,
          "midi": 64,
          "name": "E4",
          "ticks": 5701,
          "time": 66.29069767441861,
          "velocity": 0.3779527559055118
        },
        {
          "duration": 0.04651162790696617,
          "durationTicks": 4,
          "midi": 83,
          "name": "B5",
          "ticks": 5701,
          "time": 66.29069767441861,
          "velocity": 0.2283464566929134
        },
        {
          "duration": 0.12790697674418539,
          "durationTicks": 11,
          "midi": 63,
          "name": "D#4",
          "ticks": 5704,
          "time": 66.32558139534883,
          "velocity": 0.4330708661417323
        },
        {
          "duration": 0.03488372093023884,
          "durationTicks": 3,
          "midi": 51,
          "name": "D#3",
          "ticks": 5705,
          "time": 66.33720930232558,
          "velocity": 0.3464566929133858
        },
        {
          "duration": 0.11627906976744384,
          "durationTicks": 10,
          "midi": 82,
          "name": "A#5",
          "ticks": 5705,
          "time": 66.33720930232558,
          "velocity": 0.1889763779527559
        },
        {
          "duration": 0.023255813953497295,
          "durationTicks": 2,
          "midi": 51,
          "name": "D#3",
          "ticks": 5709,
          "time": 66.38372093023256,
          "velocity": 0.31496062992125984
        },
        {
          "duration": 0.22093023255814614,
          "durationTicks": 19,
          "midi": 77,
          "name": "F5",
          "ticks": 5709,
          "time": 66.38372093023256,
          "velocity": 0.25196850393700787
        },
        {
          "duration": 0.023255813953497295,
          "durationTicks": 2,
          "midi": 45,
          "name": "A2",
          "ticks": 5710,
          "time": 66.3953488372093,
          "velocity": 0.31496062992125984
        },
        {
          "duration": 0.023255813953483084,
          "durationTicks": 2,
          "midi": 52,
          "name": "E3",
          "ticks": 5711,
          "time": 66.40697674418605,
          "velocity": 0.33858267716535434
        },
        {
          "duration": 0.081395348837205,
          "durationTicks": 7,
          "midi": 80,
          "name": "G#5",
          "ticks": 5711,
          "time": 66.40697674418605,
          "velocity": 0.13385826771653545
        },
        {
          "duration": 0.06976744186046346,
          "durationTicks": 6,
          "midi": 84,
          "name": "C6",
          "ticks": 5712,
          "time": 66.4186046511628,
          "velocity": 0.1732283464566929
        },
        {
          "duration": 0.034883720930224626,
          "durationTicks": 3,
          "midi": 100,
          "name": "E7",
          "ticks": 5712,
          "time": 66.4186046511628,
          "velocity": 0.07874015748031496
        },
        {
          "duration": 0.034883720930224626,
          "durationTicks": 3,
          "midi": 45,
          "name": "A2",
          "ticks": 5713,
          "time": 66.43023255813954,
          "velocity": 0.4094488188976378
        },
        {
          "duration": 0.30232558139535115,
          "durationTicks": 26,
          "midi": 86,
          "name": "D6",
          "ticks": 5713,
          "time": 66.43023255813954,
          "velocity": 0.1968503937007874
        },
        {
          "duration": 0.03488372093023884,
          "durationTicks": 3,
          "midi": 62,
          "name": "D4",
          "ticks": 5715,
          "time": 66.45348837209302,
          "velocity": 0.47244094488188976
        },
        {
          "duration": 0.03488372093023884,
          "durationTicks": 3,
          "midi": 81,
          "name": "A5",
          "ticks": 5715,
          "time": 66.45348837209302,
          "velocity": 0.09448818897637795
        },
        {
          "duration": 0.034883720930224626,
          "durationTicks": 3,
          "midi": 47,
          "name": "B2",
          "ticks": 5717,
          "time": 66.47674418604652,
          "velocity": 0.3228346456692913
        },
        {
          "duration": 0.04651162790696617,
          "durationTicks": 4,
          "midi": 85,
          "name": "C#6",
          "ticks": 5717,
          "time": 66.47674418604652,
          "velocity": 0.15748031496062992
        },
        {
          "duration": 0.2906976744185954,
          "durationTicks": 25,
          "midi": 63,
          "name": "D#4",
          "ticks": 5718,
          "time": 66.48837209302326,
          "velocity": 0.3858267716535433
        },
        {
          "duration": 0.023255813953483084,
          "durationTicks": 2,
          "midi": 60,
          "name": "C4",
          "ticks": 5719,
          "time": 66.5,
          "velocity": 0.4094488188976378
        },
        {
          "duration": 0.04651162790698038,
          "durationTicks": 4,
          "midi": 84,
          "name": "C6",
          "ticks": 5719,
          "time": 66.5,
          "velocity": 0.13385826771653545
        },
        {
          "duration": 0.04651162790696617,
          "durationTicks": 4,
          "midi": 46,
          "name": "A#2",
          "ticks": 5722,
          "time": 66.53488372093024,
          "velocity": 0.3228346456692913
        },
        {
          "duration": 0.22093023255813193,
          "durationTicks": 19,
          "midi": 58,
          "name": "A#3",
          "ticks": 5722,
          "time": 66.53488372093024,
          "velocity": 0.4015748031496063
        },
        {
          "duration": 0.06976744186046346,
          "durationTicks": 6,
          "midi": 85,
          "name": "C#6",
          "ticks": 5723,
          "time": 66.54651162790698,
          "velocity": 0.07874015748031496
        },
        {
          "duration": 0.06976744186047767,
          "durationTicks": 6,
          "midi": 46,
          "name": "A#2",
          "ticks": 5727,
          "time": 66.59302325581395,
          "velocity": 0.36220472440944884
        },
        {
          "duration": 0.05813953488372192,
          "durationTicks": 5,
          "midi": 89,
          "name": "F6",
          "ticks": 5736,
          "time": 66.69767441860465,
          "velocity": 0.07086614173228346
        },
        {
          "duration": 0.034883720930224626,
          "durationTicks": 3,
          "midi": 77,
          "name": "F5",
          "ticks": 5740,
          "time": 66.74418604651163,
          "velocity": 0.14173228346456693
        },
        {
          "duration": 0.03488372093023884,
          "durationTicks": 3,
          "midi": 56,
          "name": "G#3",
          "ticks": 5742,
          "time": 66.76744186046511,
          "velocity": 0.2755905511811024
        },
        {
          "duration": 0.03488372093023884,
          "durationTicks": 3,
          "midi": 62,
          "name": "D4",
          "ticks": 5743,
          "time": 66.77906976744185,
          "velocity": 0.30708661417322836
        },
        {
          "duration": 0.023255813953483084,
          "durationTicks": 2,
          "midi": 51,
          "name": "D#3",
          "ticks": 5744,
          "time": 66.79069767441861,
          "velocity": 0.30708661417322836
        },
        {
          "duration": 0.023255813953483084,
          "durationTicks": 2,
          "midi": 57,
          "name": "A3",
          "ticks": 5745,
          "time": 66.80232558139535,
          "velocity": 0.4330708661417323
        },
        {
          "duration": 0.03488372093023884,
          "durationTicks": 3,
          "midi": 56,
          "name": "G#3",
          "ticks": 5747,
          "time": 66.82558139534883,
          "velocity": 0.3700787401574803
        },
        {
          "duration": 0.15116279069768268,
          "durationTicks": 13,
          "midi": 65,
          "name": "F4",
          "ticks": 5747,
          "time": 66.82558139534883,
          "velocity": 0.2992125984251969
        },
        {
          "duration": 0.023255813953483084,
          "durationTicks": 2,
          "midi": 44,
          "name": "G#2",
          "ticks": 5749,
          "time": 66.84883720930233,
          "velocity": 0.4566929133858268
        },
        {
          "duration": 0.05813953488372192,
          "durationTicks": 5,
          "midi": 58,
          "name": "A#3",
          "ticks": 5750,
          "time": 66.86046511627907,
          "velocity": 0.41732283464566927
        },
        {
          "duration": 0.04651162790698038,
          "durationTicks": 4,
          "midi": 72,
          "name": "C5",
          "ticks": 5750,
          "time": 66.86046511627907,
          "velocity": 0.07874015748031496
        },
        {
          "duration": 0.32558139534883423,
          "durationTicks": 28,
          "midi": 53,
          "name": "F3",
          "ticks": 5751,
          "time": 66.87209302325581,
          "velocity": 0.5118110236220472
        },
        {
          "duration": 0.034883720930224626,
          "durationTicks": 3,
          "midi": 72,
          "name": "C5",
          "ticks": 5755,
          "time": 66.9186046511628,
          "velocity": 0.2047244094488189
        },
        {
          "duration": 0.6744186046511516,
          "durationTicks": 58,
          "midi": 84,
          "name": "C6",
          "ticks": 5755,
          "time": 66.9186046511628,
          "velocity": 0.3228346456692913
        },
        {
          "duration": 0.25581395348837077,
          "durationTicks": 22,
          "midi": 70,
          "name": "A#4",
          "ticks": 5756,
          "time": 66.93023255813954,
          "velocity": 0.3228346456692913
        },
        {
          "duration": 0.03488372093023884,
          "durationTicks": 3,
          "midi": 60,
          "name": "C4",
          "ticks": 5757,
          "time": 66.94186046511628,
          "velocity": 0.3937007874015748
        },
        {
          "duration": 0.11627906976744384,
          "durationTicks": 10,
          "midi": 81,
          "name": "A5",
          "ticks": 5758,
          "time": 66.95348837209302,
          "velocity": 0.07086614173228346
        },
        {
          "duration": 0.023255813953497295,
          "durationTicks": 2,
          "midi": 46,
          "name": "A#2",
          "ticks": 5759,
          "time": 66.96511627906976,
          "velocity": 0.3779527559055118
        },
        {
          "duration": 0.05813953488372192,
          "durationTicks": 5,
          "midi": 92,
          "name": "G#6",
          "ticks": 5759,
          "time": 66.96511627906976,
          "velocity": 0.14173228346456693
        },
        {
          "duration": 0.03488372093023884,
          "durationTicks": 3,
          "midi": 93,
          "name": "A6",
          "ticks": 5759,
          "time": 66.96511627906976,
          "velocity": 0.12598425196850394
        },
        {
          "duration": 0.418604651162795,
          "durationTicks": 36,
          "midi": 58,
          "name": "A#3",
          "ticks": 5761,
          "time": 66.98837209302326,
          "velocity": 0.49606299212598426
        },
        {
          "duration": 0.06976744186046346,
          "durationTicks": 6,
          "midi": 93,
          "name": "A6",
          "ticks": 5764,
          "time": 67.02325581395348,
          "velocity": 0.13385826771653545
        },
        {
          "duration": 0.023255813953483084,
          "durationTicks": 2,
          "midi": 46,
          "name": "A#2",
          "ticks": 5765,
          "time": 67.03488372093024,
          "velocity": 0.3543307086614173
        },
        {
          "duration": 0.15116279069766847,
          "durationTicks": 13,
          "midi": 72,
          "name": "C5",
          "ticks": 5765,
          "time": 67.03488372093024,
          "velocity": 0.14960629921259844
        },
        {
          "duration": 0.04651162790698038,
          "durationTicks": 4,
          "midi": 92,
          "name": "G#6",
          "ticks": 5767,
          "time": 67.05813953488372,
          "velocity": 0.11023622047244094
        },
        {
          "duration": 0.023255813953483084,
          "durationTicks": 2,
          "midi": 46,
          "name": "A#2",
          "ticks": 5768,
          "time": 67.06976744186046,
          "velocity": 0.36220472440944884
        },
        {
          "duration": 0.034883720930224626,
          "durationTicks": 3,
          "midi": 46,
          "name": "A#2",
          "ticks": 5771,
          "time": 67.1046511627907,
          "velocity": 0.3700787401574803
        },
        {
          "duration": 0.04651162790698038,
          "durationTicks": 4,
          "midi": 93,
          "name": "A6",
          "ticks": 5772,
          "time": 67.11627906976744,
          "velocity": 0.09448818897637795
        },
        {
          "duration": 0.24418604651162923,
          "durationTicks": 21,
          "midi": 81,
          "name": "A5",
          "ticks": 5777,
          "time": 67.17441860465117,
          "velocity": 0.09448818897637795
        },
        {
          "duration": 0.03488372093023884,
          "durationTicks": 3,
          "midi": 93,
          "name": "A6",
          "ticks": 5778,
          "time": 67.18604651162791,
          "velocity": 0.15748031496062992
        },
        {
          "duration": 0.023255813953497295,
          "durationTicks": 2,
          "midi": 46,
          "name": "A#2",
          "ticks": 5779,
          "time": 67.19767441860465,
          "velocity": 0.3700787401574803
        },
        {
          "duration": 0.04651162790698038,
          "durationTicks": 4,
          "midi": 98,
          "name": "D7",
          "ticks": 5780,
          "time": 67.20930232558139,
          "velocity": 0.09448818897637795
        },
        {
          "duration": 0.2093023255813904,
          "durationTicks": 18,
          "midi": 74,
          "name": "D5",
          "ticks": 5781,
          "time": 67.22093023255815,
          "velocity": 0.11811023622047244
        },
        {
          "duration": 0.19767441860464885,
          "durationTicks": 17,
          "midi": 53,
          "name": "F3",
          "ticks": 5783,
          "time": 67.24418604651163,
          "velocity": 0.2440944881889764
        },
        {
          "duration": 0.04651162790698038,
          "durationTicks": 4,
          "midi": 82,
          "name": "A#5",
          "ticks": 5783,
          "time": 67.24418604651163,
          "velocity": 0.08661417322834646
        },
        {
          "duration": 0.034883720930224626,
          "durationTicks": 3,
          "midi": 92,
          "name": "G#6",
          "ticks": 5783,
          "time": 67.24418604651163,
          "velocity": 0.08661417322834646
        },
        {
          "duration": 0.04651162790698038,
          "durationTicks": 4,
          "midi": 93,
          "name": "A6",
          "ticks": 5784,
          "time": 67.25581395348837,
          "velocity": 0.11811023622047244
        },
        {
          "duration": 0.04651162790698038,
          "durationTicks": 4,
          "midi": 92,
          "name": "G#6",
          "ticks": 5790,
          "time": 67.32558139534883,
          "velocity": 0.09448818897637795
        },
        {
          "duration": 0.05813953488372192,
          "durationTicks": 5,
          "midi": 93,
          "name": "A6",
          "ticks": 5792,
          "time": 67.34883720930233,
          "velocity": 0.11023622047244094
        },
        {
          "duration": 0.023255813953483084,
          "durationTicks": 2,
          "midi": 46,
          "name": "A#2",
          "ticks": 5797,
          "time": 67.40697674418605,
          "velocity": 0.29133858267716534
        },
        {
          "duration": 0.023255813953483084,
          "durationTicks": 2,
          "midi": 60,
          "name": "C4",
          "ticks": 5798,
          "time": 67.4186046511628,
          "velocity": 0.36220472440944884
        },
        {
          "duration": 0.023255813953483084,
          "durationTicks": 2,
          "midi": 42,
          "name": "F#2",
          "ticks": 5799,
          "time": 67.43023255813954,
          "velocity": 0.2755905511811024
        },
        {
          "duration": 0.023255813953497295,
          "durationTicks": 2,
          "midi": 60,
          "name": "C4",
          "ticks": 5801,
          "time": 67.45348837209302,
          "velocity": 0.3858267716535433
        },
        {
          "duration": 0.023255813953483084,
          "durationTicks": 2,
          "midi": 53,
          "name": "F3",
          "ticks": 5803,
          "time": 67.47674418604652,
          "velocity": 0.33858267716535434
        },
        {
          "duration": 0.04651162790696617,
          "durationTicks": 4,
          "midi": 70,
          "name": "A#4",
          "ticks": 5803,
          "time": 67.47674418604652,
          "velocity": 0.10236220472440945
        },
        {
          "duration": 0.05813953488372192,
          "durationTicks": 5,
          "midi": 58,
          "name": "A#3",
          "ticks": 5804,
          "time": 67.48837209302326,
          "velocity": 0.3858267716535433
        },
        {
          "duration": 0.04651162790698038,
          "durationTicks": 4,
          "midi": 53,
          "name": "F3",
          "ticks": 5807,
          "time": 67.52325581395348,
          "velocity": 0.2047244094488189
        },
        {
          "duration": 0.023255813953483084,
          "durationTicks": 2,
          "midi": 58,
          "name": "A#3",
          "ticks": 5810,
          "time": 67.55813953488372,
          "velocity": 0.4015748031496063
        },
        {
          "duration": 0.023255813953483084,
          "durationTicks": 2,
          "midi": 44,
          "name": "G#2",
          "ticks": 5811,
          "time": 67.56976744186046,
          "velocity": 0.3858267716535433
        },
        {
          "duration": 0.15116279069768268,
          "durationTicks": 13,
          "midi": 70,
          "name": "A#4",
          "ticks": 5812,
          "time": 67.5813953488372,
          "velocity": 0.2125984251968504
        },
        {
          "duration": 0.09302325581396076,
          "durationTicks": 8,
          "midi": 58,
          "name": "A#3",
          "ticks": 5813,
          "time": 67.59302325581395,
          "velocity": 0.4251968503937008
        },
        {
          "duration": 0.09302325581396076,
          "durationTicks": 8,
          "midi": 88,
          "name": "E6",
          "ticks": 5813,
          "time": 67.59302325581395,
          "velocity": 0.08661417322834646
        },
        {
          "duration": 0.10465116279068809,
          "durationTicks": 9,
          "midi": 53,
          "name": "F3",
          "ticks": 5814,
          "time": 67.6046511627907,
          "velocity": 0.4251968503937008
        },
        {
          "duration": 0.10465116279068809,
          "durationTicks": 9,
          "midi": 86,
          "name": "D6",
          "ticks": 5814,
          "time": 67.6046511627907,
          "velocity": 0.11023622047244094
        },
        {
          "duration": 0.06976744186046346,
          "durationTicks": 6,
          "midi": 81,
          "name": "A5",
          "ticks": 5817,
          "time": 67.63953488372093,
          "velocity": 0.07874015748031496
        },
        {
          "duration": 0.05813953488372192,
          "durationTicks": 5,
          "midi": 84,
          "name": "C6",
          "ticks": 5822,
          "time": 67.69767441860465,
          "velocity": 0.11023622047244094
        },
        {
          "duration": 0.023255813953483084,
          "durationTicks": 2,
          "midi": 42,
          "name": "F#2",
          "ticks": 5830,
          "time": 67.79069767441861,
          "velocity": 0.3543307086614173
        },
        {
          "duration": 0.023255813953483084,
          "durationTicks": 2,
          "midi": 46,
          "name": "A#2",
          "ticks": 5832,
          "time": 67.81395348837209,
          "velocity": 0.33858267716535434
        },
        {
          "duration": 0.03488372093023884,
          "durationTicks": 3,
          "midi": 56,
          "name": "G#3",
          "ticks": 5832,
          "time": 67.81395348837209,
          "velocity": 0.3543307086614173
        },
        {
          "duration": 0.023255813953483084,
          "durationTicks": 2,
          "midi": 46,
          "name": "A#2",
          "ticks": 5835,
          "time": 67.84883720930233,
          "velocity": 0.2992125984251969
        },
        {
          "duration": 0.23255813953487348,
          "durationTicks": 20,
          "midi": 53,
          "name": "F3",
          "ticks": 5835,
          "time": 67.84883720930233,
          "velocity": 0.3937007874015748
        },
        {
          "duration": 0.24418604651161502,
          "durationTicks": 21,
          "midi": 58,
          "name": "A#3",
          "ticks": 5835,
          "time": 67.84883720930233,
          "velocity": 0.4094488188976378
        },
        {
          "duration": 0.2674418604651123,
          "durationTicks": 23,
          "midi": 77,
          "name": "F5",
          "ticks": 5835,
          "time": 67.84883720930233,
          "velocity": 0.3228346456692913
        },
        {
          "duration": 0.27906976744185386,
          "durationTicks": 24,
          "midi": 65,
          "name": "F4",
          "ticks": 5836,
          "time": 67.86046511627907,
          "velocity": 0.48031496062992124
        },
        {
          "duration": 0.2906976744185954,
          "durationTicks": 25,
          "midi": 74,
          "name": "D5",
          "ticks": 5836,
          "time": 67.86046511627907,
          "velocity": 0.2755905511811024
        },
        {
          "duration": 0.023255813953483084,
          "durationTicks": 2,
          "midi": 42,
          "name": "F#2",
          "ticks": 5837,
          "time": 67.87209302325581,
          "velocity": 0.3543307086614173
        },
        {
          "duration": 0.13953488372094114,
          "durationTicks": 12,
          "midi": 41,
          "name": "F2",
          "ticks": 5839,
          "time": 67.8953488372093,
          "velocity": 0.3779527559055118
        },
        {
          "duration": 0.15116279069768268,
          "durationTicks": 13,
          "midi": 72,
          "name": "C5",
          "ticks": 5839,
          "time": 67.8953488372093,
          "velocity": 0.10236220472440945
        },
        {
          "duration": 0.13953488372092693,
          "durationTicks": 12,
          "midi": 84,
          "name": "C6",
          "ticks": 5847,
          "time": 67.98837209302326,
          "velocity": 0.2283464566929134
        },
        {
          "duration": 0.09302325581394655,
          "durationTicks": 8,
          "midi": 93,
          "name": "A6",
          "ticks": 5847,
          "time": 67.98837209302326,
          "velocity": 0.11023622047244094
        },
        {
          "duration": 0.04651162790696617,
          "durationTicks": 4,
          "midi": 41,
          "name": "F2",
          "ticks": 5852,
          "time": 68.04651162790698,
          "velocity": 0.3228346456692913
        },
        {
          "duration": 0.023255813953497295,
          "durationTicks": 2,
          "midi": 54,
          "name": "F#3",
          "ticks": 5855,
          "time": 68.0813953488372,
          "velocity": 0.36220472440944884
        },
        {
          "duration": 0.023255813953497295,
          "durationTicks": 2,
          "midi": 40,
          "name": "E2",
          "ticks": 5856,
          "time": 68.09302325581395,
          "velocity": 0.31496062992125984
        },
        {
          "duration": 0.15116279069766847,
          "durationTicks": 13,
          "midi": 70,
          "name": "A#4",
          "ticks": 5857,
          "time": 68.1046511627907,
          "velocity": 0.14960629921259844
        },
        {
          "duration": 0.10465116279068809,
          "durationTicks": 9,
          "midi": 93,
          "name": "A6",
          "ticks": 5857,
          "time": 68.1046511627907,
          "velocity": 0.23622047244094488
        },
        {
          "duration": 0.11627906976744384,
          "durationTicks": 10,
          "midi": 62,
          "name": "D4",
          "ticks": 5858,
          "time": 68.11627906976744,
          "velocity": 0.3779527559055118
        },
        {
          "duration": 0.1046511627907023,
          "durationTicks": 9,
          "midi": 53,
          "name": "F3",
          "ticks": 5859,
          "time": 68.12790697674419,
          "velocity": 0.4015748031496063
        },
        {
          "duration": 0.09302325581396076,
          "durationTicks": 8,
          "midi": 58,
          "name": "A#3",
          "ticks": 5859,
          "time": 68.12790697674419,
          "velocity": 0.31496062992125984
        },
        {
          "duration": 0.05813953488372192,
          "durationTicks": 5,
          "midi": 87,
          "name": "D#6",
          "ticks": 5859,
          "time": 68.12790697674419,
          "velocity": 0.12598425196850394
        },
        {
          "duration": 0.1046511627907023,
          "durationTicks": 9,
          "midi": 41,
          "name": "F2",
          "ticks": 5860,
          "time": 68.13953488372093,
          "velocity": 0.3937007874015748
        },
        {
          "duration": 0.7790697674418681,
          "durationTicks": 67,
          "midi": 77,
          "name": "F5",
          "ticks": 5860,
          "time": 68.13953488372093,
          "velocity": 0.30708661417322836
        },
        {
          "duration": 0.06976744186046346,
          "durationTicks": 6,
          "midi": 75,
          "name": "D#5",
          "ticks": 5863,
          "time": 68.17441860465117,
          "velocity": 0.2047244094488189
        },
        {
          "duration": 0.04651162790696617,
          "durationTicks": 4,
          "midi": 54,
          "name": "F#3",
          "ticks": 5868,
          "time": 68.23255813953489,
          "velocity": 0.4094488188976378
        },
        {
          "duration": 0.11627906976744384,
          "durationTicks": 10,
          "midi": 84,
          "name": "C6",
          "ticks": 5868,
          "time": 68.23255813953489,
          "velocity": 0.30708661417322836
        },
        {
          "duration": 0.09302325581394655,
          "durationTicks": 8,
          "midi": 93,
          "name": "A6",
          "ticks": 5869,
          "time": 68.24418604651163,
          "velocity": 0.15748031496062992
        },
        {
          "duration": 0.09302325581396076,
          "durationTicks": 8,
          "midi": 65,
          "name": "F4",
          "ticks": 5870,
          "time": 68.25581395348837,
          "velocity": 0.4015748031496063
        },
        {
          "duration": 0.023255813953497295,
          "durationTicks": 2,
          "midi": 44,
          "name": "G#2",
          "ticks": 5871,
          "time": 68.26744186046511,
          "velocity": 0.3464566929133858
        },
        {
          "duration": 0.08139534883721922,
          "durationTicks": 7,
          "midi": 53,
          "name": "F3",
          "ticks": 5872,
          "time": 68.27906976744185,
          "velocity": 0.33070866141732286
        },
        {
          "duration": 0.03488372093023884,
          "durationTicks": 3,
          "midi": 70,
          "name": "A#4",
          "ticks": 5872,
          "time": 68.27906976744185,
          "velocity": 0.07086614173228346
        },
        {
          "duration": 0.023255813953483084,
          "durationTicks": 2,
          "midi": 53,
          "name": "F3",
          "ticks": 5880,
          "time": 68.37209302325581,
          "velocity": 0.4015748031496063
        },
        {
          "duration": 0.40697674418603924,
          "durationTicks": 35,
          "midi": 58,
          "name": "A#3",
          "ticks": 5880,
          "time": 68.37209302325581,
          "velocity": 0.4094488188976378
        },
        {
          "duration": 0.15116279069766847,
          "durationTicks": 13,
          "midi": 67,
          "name": "G4",
          "ticks": 5880,
          "time": 68.37209302325581,
          "velocity": 0.3700787401574803
        },
        {
          "duration": 0.15116279069766847,
          "durationTicks": 13,
          "midi": 86,
          "name": "D6",
          "ticks": 5880,
          "time": 68.37209302325581,
          "velocity": 0.23622047244094488
        },
        {
          "duration": 0.15116279069766847,
          "durationTicks": 13,
          "midi": 91,
          "name": "G6",
          "ticks": 5880,
          "time": 68.37209302325581,
          "velocity": 0.2992125984251969
        },
        {
          "duration": 0.3953488372092977,
          "durationTicks": 34,
          "midi": 74,
          "name": "D5",
          "ticks": 5881,
          "time": 68.38372093023256,
          "velocity": 0.15748031496062992
        },
        {
          "duration": 0.023255813953497295,
          "durationTicks": 2,
          "midi": 42,
          "name": "F#2",
          "ticks": 5882,
          "time": 68.3953488372093,
          "velocity": 0.33070866141732286
        },
        {
          "duration": 0.04651162790698038,
          "durationTicks": 4,
          "midi": 65,
          "name": "F4",
          "ticks": 5882,
          "time": 68.3953488372093,
          "velocity": 0.2125984251968504
        },
        {
          "duration": 0.2093023255813904,
          "durationTicks": 18,
          "midi": 53,
          "name": "F3",
          "ticks": 5883,
          "time": 68.40697674418605,
          "velocity": 0.30708661417322836
        },
        {
          "duration": 0.023255813953483084,
          "durationTicks": 2,
          "midi": 41,
          "name": "F2",
          "ticks": 5884,
          "time": 68.4186046511628,
          "velocity": 0.3464566929133858
        },
        {
          "duration": 0.1860465116279073,
          "durationTicks": 16,
          "midi": 72,
          "name": "C5",
          "ticks": 5884,
          "time": 68.4186046511628,
          "velocity": 0.11811023622047244
        },
        {
          "duration": 0.08139534883721922,
          "durationTicks": 7,
          "midi": 41,
          "name": "F2",
          "ticks": 5887,
          "time": 68.45348837209302,
          "velocity": 0.33070866141732286
        },
        {
          "duration": 0.04651162790698038,
          "durationTicks": 4,
          "midi": 68,
          "name": "G#4",
          "ticks": 5893,
          "time": 68.52325581395348,
          "velocity": 0.4094488188976378
        },
        {
          "duration": 0.04651162790698038,
          "durationTicks": 4,
          "midi": 92,
          "name": "G#6",
          "ticks": 5893,
          "time": 68.52325581395348,
          "velocity": 0.28346456692913385
        },
        {
          "duration": 0.06976744186046346,
          "durationTicks": 6,
          "midi": 41,
          "name": "F2",
          "ticks": 5895,
          "time": 68.54651162790698,
          "velocity": 0.30708661417322836
        },
        {
          "duration": 0.034883720930224626,
          "durationTicks": 3,
          "midi": 81,
          "name": "A5",
          "ticks": 5895,
          "time": 68.54651162790698,
          "velocity": 0.13385826771653545
        },
        {
          "duration": 0.05813953488372192,
          "durationTicks": 5,
          "midi": 69,
          "name": "A4",
          "ticks": 5897,
          "time": 68.56976744186046,
          "velocity": 0.4409448818897638
        },
        {
          "duration": 0.19767441860464885,
          "durationTicks": 17,
          "midi": 93,
          "name": "A6",
          "ticks": 5897,
          "time": 68.56976744186046,
          "velocity": 0.28346456692913385
        },
        {
          "duration": 0.04651162790698038,
          "durationTicks": 4,
          "midi": 96,
          "name": "C7",
          "ticks": 5897,
          "time": 68.56976744186046,
          "velocity": 0.07874015748031496
        },
        {
          "duration": 0.023255813953483084,
          "durationTicks": 2,
          "midi": 54,
          "name": "F#3",
          "ticks": 5901,
          "time": 68.61627906976744,
          "velocity": 0.2755905511811024
        },
        {
          "duration": 0.023255813953483084,
          "durationTicks": 2,
          "midi": 41,
          "name": "F2",
          "ticks": 5902,
          "time": 68.62790697674419,
          "velocity": 0.29133858267716534
        },
        {
          "duration": 0.04651162790698038,
          "durationTicks": 4,
          "midi": 68,
          "name": "G#4",
          "ticks": 5902,
          "time": 68.62790697674419,
          "velocity": 0.4251968503937008
        },
        {
          "duration": 0.04651162790698038,
          "durationTicks": 4,
          "midi": 92,
          "name": "G#6",
          "ticks": 5903,
          "time": 68.63953488372093,
          "velocity": 0.18110236220472442
        },
        {
          "duration": 0.04651162790698038,
          "durationTicks": 4,
          "midi": 88,
          "name": "E6",
          "ticks": 5904,
          "time": 68.65116279069767,
          "velocity": 0.07086614173228346
        },
        {
          "duration": 0.034883720930224626,
          "durationTicks": 3,
          "midi": 45,
          "name": "A2",
          "ticks": 5906,
          "time": 68.67441860465117,
          "velocity": 0.25196850393700787
        },
        {
          "duration": 0.081395348837205,
          "durationTicks": 7,
          "midi": 67,
          "name": "G4",
          "ticks": 5906,
          "time": 68.67441860465117,
          "velocity": 0.36220472440944884
        },
        {
          "duration": 0.05813953488372192,
          "durationTicks": 5,
          "midi": 53,
          "name": "F3",
          "ticks": 5907,
          "time": 68.68604651162791,
          "velocity": 0.2440944881889764
        },
        {
          "duration": 0.081395348837205,
          "durationTicks": 7,
          "midi": 91,
          "name": "G6",
          "ticks": 5907,
          "time": 68.68604651162791,
          "velocity": 0.14173228346456693
        },
        {
          "duration": 0.08139534883721922,
          "durationTicks": 7,
          "midi": 72,
          "name": "C5",
          "ticks": 5909,
          "time": 68.70930232558139,
          "velocity": 0.07874015748031496
        },
        {
          "duration": 0.06976744186046346,
          "durationTicks": 6,
          "midi": 86,
          "name": "D6",
          "ticks": 5909,
          "time": 68.70930232558139,
          "velocity": 0.2125984251968504
        },
        {
          "duration": 0.023255813953483084,
          "durationTicks": 2,
          "midi": 66,
          "name": "F#4",
          "ticks": 5913,
          "time": 68.75581395348837,
          "velocity": 0.30708661417322836
        },
        {
          "duration": 0.16279069767442422,
          "durationTicks": 14,
          "midi": 84,
          "name": "C6",
          "ticks": 5913,
          "time": 68.75581395348837,
          "velocity": 0.28346456692913385
        },
        {
          "duration": 0.04651162790698038,
          "durationTicks": 4,
          "midi": 52,
          "name": "E3",
          "ticks": 5915,
          "time": 68.77906976744185,
          "velocity": 0.30708661417322836
        },
        {
          "duration": 0.13953488372094114,
          "durationTicks": 12,
          "midi": 65,
          "name": "F4",
          "ticks": 5915,
          "time": 68.77906976744185,
          "velocity": 0.3464566929133858
        },
        {
          "duration": 0.034883720930224626,
          "durationTicks": 3,
          "midi": 57,
          "name": "A3",
          "ticks": 5917,
          "time": 68.80232558139535,
          "velocity": 0.2677165354330709
        },
        {
          "duration": 0.05813953488372192,
          "durationTicks": 5,
          "midi": 52,
          "name": "E3",
          "ticks": 5920,
          "time": 68.83720930232558,
          "velocity": 0.25984251968503935
        },
        {
          "duration": 0.023255813953483084,
          "durationTicks": 2,
          "midi": 61,
          "name": "C#4",
          "ticks": 5922,
          "time": 68.86046511627907,
          "velocity": 0.36220472440944884
        },
        {
          "duration": 0.04651162790698038,
          "durationTicks": 4,
          "midi": 74,
          "name": "D5",
          "ticks": 5923,
          "time": 68.87209302325581,
          "velocity": 0.13385826771653545
        },
        {
          "duration": 0.023255813953497295,
          "durationTicks": 2,
          "midi": 44,
          "name": "G#2",
          "ticks": 5924,
          "time": 68.88372093023256,
          "velocity": 0.25984251968503935
        },
        {
          "duration": 0.09302325581396076,
          "durationTicks": 8,
          "midi": 62,
          "name": "D4",
          "ticks": 5924,
          "time": 68.88372093023256,
          "velocity": 0.3543307086614173
        },
        {
          "duration": 0.023255813953497295,
          "durationTicks": 2,
          "midi": 55,
          "name": "G3",
          "ticks": 5925,
          "time": 68.8953488372093,
          "velocity": 0.33858267716535434
        },
        {
          "duration": 0.023255813953483084,
          "durationTicks": 2,
          "midi": 43,
          "name": "G2",
          "ticks": 5926,
          "time": 68.90697674418605,
          "velocity": 0.30708661417322836
        },
        {
          "duration": 0.023255813953483084,
          "durationTicks": 2,
          "midi": 54,
          "name": "F#3",
          "ticks": 5927,
          "time": 68.9186046511628,
          "velocity": 0.2677165354330709
        },
        {
          "duration": 0.034883720930224626,
          "durationTicks": 3,
          "midi": 67,
          "name": "G4",
          "ticks": 5927,
          "time": 68.9186046511628,
          "velocity": 0.1968503937007874
        },
        {
          "duration": 0.034883720930224626,
          "durationTicks": 3,
          "midi": 53,
          "name": "F3",
          "ticks": 5933,
          "time": 68.98837209302326,
          "velocity": 0.28346456692913385
        },
        {
          "duration": 0.03488372093023884,
          "durationTicks": 3,
          "midi": 48,
          "name": "C3",
          "ticks": 5934,
          "time": 69,
          "velocity": 0.2755905511811024
        },
        {
          "duration": 0.05813953488372192,
          "durationTicks": 5,
          "midi": 67,
          "name": "G4",
          "ticks": 5934,
          "time": 69,
          "velocity": 0.3937007874015748
        },
        {
          "duration": 0.081395348837205,
          "durationTicks": 7,
          "midi": 86,
          "name": "D6",
          "ticks": 5934,
          "time": 69,
          "velocity": 0.2755905511811024
        },
        {
          "duration": 0.06976744186046346,
          "durationTicks": 6,
          "midi": 91,
          "name": "G6",
          "ticks": 5934,
          "time": 69,
          "velocity": 0.28346456692913385
        },
        {
          "duration": 0.24418604651162923,
          "durationTicks": 21,
          "midi": 55,
          "name": "G3",
          "ticks": 5936,
          "time": 69.02325581395348,
          "velocity": 0.5275590551181102
        },
        {
          "duration": 0.1046511627907023,
          "durationTicks": 9,
          "midi": 88,
          "name": "E6",
          "ticks": 5936,
          "time": 69.02325581395348,
          "velocity": 0.14173228346456693
        },
        {
          "duration": 0.10465116279068809,
          "durationTicks": 9,
          "midi": 60,
          "name": "C4",
          "ticks": 5937,
          "time": 69.03488372093024,
          "velocity": 0.3228346456692913
        },
        {
          "duration": 0.023255813953483084,
          "durationTicks": 2,
          "midi": 43,
          "name": "G2",
          "ticks": 5938,
          "time": 69.04651162790698,
          "velocity": 0.30708661417322836
        },
        {
          "duration": 0.10465116279068809,
          "durationTicks": 9,
          "midi": 83,
          "name": "B5",
          "ticks": 5938,
          "time": 69.04651162790698,
          "velocity": 0.09448818897637795
        },
        {
          "duration": 0.13953488372092693,
          "durationTicks": 12,
          "midi": 84,
          "name": "C6",
          "ticks": 5939,
          "time": 69.05813953488372,
          "velocity": 0.2755905511811024
        },
        {
          "duration": 0.13953488372092693,
          "durationTicks": 12,
          "midi": 65,
          "name": "F4",
          "ticks": 5940,
          "time": 69.06976744186046,
          "velocity": 0.4015748031496063
        },
        {
          "duration": 0.06976744186046346,
          "durationTicks": 6,
          "midi": 89,
          "name": "F6",
          "ticks": 5944,
          "time": 69.11627906976744,
          "velocity": 0.11023622047244094
        },
        {
          "duration": 0.03488372093023884,
          "durationTicks": 3,
          "midi": 43,
          "name": "G2",
          "ticks": 5945,
          "time": 69.12790697674419,
          "velocity": 0.25984251968503935
        },
        {
          "duration": 0.3720930232558146,
          "durationTicks": 32,
          "midi": 74,
          "name": "D5",
          "ticks": 5947,
          "time": 69.15116279069767,
          "velocity": 0.2283464566929134
        },
        {
          "duration": 0.023255813953483084,
          "durationTicks": 2,
          "midi": 62,
          "name": "D4",
          "ticks": 5950,
          "time": 69.18604651162791,
          "velocity": 0.41732283464566927
        },
        {
          "duration": 0.08139534883721922,
          "durationTicks": 7,
          "midi": 83,
          "name": "B5",
          "ticks": 5952,
          "time": 69.20930232558139,
          "velocity": 0.10236220472440945
        },
        {
          "duration": 0.081395348837205,
          "durationTicks": 7,
          "midi": 88,
          "name": "E6",
          "ticks": 5954,
          "time": 69.23255813953489,
          "velocity": 0.11023622047244094
        },
        {
          "duration": 0.2674418604651123,
          "durationTicks": 23,
          "midi": 60,
          "name": "C4",
          "ticks": 5955,
          "time": 69.24418604651163,
          "velocity": 0.4251968503937008
        },
        {
          "duration": 0.023255813953497295,
          "durationTicks": 2,
          "midi": 44,
          "name": "G#2",
          "ticks": 5957,
          "time": 69.26744186046511,
          "velocity": 0.3543307086614173
        },
        {
          "duration": 0.17441860465116577,
          "durationTicks": 15,
          "midi": 65,
          "name": "F4",
          "ticks": 5957,
          "time": 69.26744186046511,
          "velocity": 0.4015748031496063
        },
        {
          "duration": 0.1279069767441996,
          "durationTicks": 11,
          "midi": 93,
          "name": "A6",
          "ticks": 5958,
          "time": 69.27906976744185,
          "velocity": 0.13385826771653545
        },
        {
          "duration": 0.023255813953483084,
          "durationTicks": 2,
          "midi": 43,
          "name": "G2",
          "ticks": 5960,
          "time": 69.30232558139535,
          "velocity": 0.28346456692913385
        },
        {
          "duration": 0.04651162790698038,
          "durationTicks": 4,
          "midi": 55,
          "name": "G3",
          "ticks": 5962,
          "time": 69.32558139534883,
          "velocity": 0.2125984251968504
        },
        {
          "duration": 0.17441860465115155,
          "durationTicks": 15,
          "midi": 43,
          "name": "G2",
          "ticks": 5964,
          "time": 69.34883720930233,
          "velocity": 0.3228346456692913
        },
        {
          "duration": 0.023255813953497295,
          "durationTicks": 2,
          "midi": 61,
          "name": "C#4",
          "ticks": 5978,
          "time": 69.51162790697674,
          "velocity": 0.28346456692913385
        },
        {
          "duration": 0.023255813953497295,
          "durationTicks": 2,
          "midi": 45,
          "name": "A2",
          "ticks": 5979,
          "time": 69.52325581395348,
          "velocity": 0.31496062992125984
        },
        {
          "duration": 0.10465116279068809,
          "durationTicks": 9,
          "midi": 55,
          "name": "G3",
          "ticks": 5980,
          "time": 69.53488372093024,
          "velocity": 0.3464566929133858
        },
        {
          "duration": 0.023255813953483084,
          "durationTicks": 2,
          "midi": 60,
          "name": "C4",
          "ticks": 5980,
          "time": 69.53488372093024,
          "velocity": 0.30708661417322836
        },
        {
          "duration": 0.30232558139533694,
          "durationTicks": 26,
          "midi": 67,
          "name": "G4",
          "ticks": 5980,
          "time": 69.53488372093024,
          "velocity": 0.3858267716535433
        },
        {
          "duration": 0.023255813953483084,
          "durationTicks": 2,
          "midi": 43,
          "name": "G2",
          "ticks": 5981,
          "time": 69.54651162790698,
          "velocity": 0.4094488188976378
        },
        {
          "duration": 0.2906976744185954,
          "durationTicks": 25,
          "midi": 86,
          "name": "D6",
          "ticks": 5981,
          "time": 69.54651162790698,
          "velocity": 0.3543307086614173
        },
        {
          "duration": 0.2093023255813904,
          "durationTicks": 18,
          "midi": 91,
          "name": "G6",
          "ticks": 5982,
          "time": 69.55813953488372,
          "velocity": 0.2204724409448819
        },
        {
          "duration": 0.04651162790698038,
          "durationTicks": 4,
          "midi": 95,
          "name": "B6",
          "ticks": 5982,
          "time": 69.55813953488372,
          "velocity": 0.12598425196850394
        },
        {
          "duration": 0.03488372093023884,
          "durationTicks": 3,
          "midi": 43,
          "name": "G2",
          "ticks": 5984,
          "time": 69.5813953488372,
          "velocity": 0.4094488188976378
        },
        {
          "duration": 0.05813953488372192,
          "durationTicks": 5,
          "midi": 43,
          "name": "G2",
          "ticks": 5989,
          "time": 69.63953488372093,
          "velocity": 0.3464566929133858
        },
        {
          "duration": 0.13953488372094114,
          "durationTicks": 12,
          "midi": 72,
          "name": "C5",
          "ticks": 5990,
          "time": 69.65116279069767,
          "velocity": 0.2047244094488189
        },
        {
          "duration": 0.12790697674418539,
          "durationTicks": 11,
          "midi": 88,
          "name": "E6",
          "ticks": 5990,
          "time": 69.65116279069767,
          "velocity": 0.1732283464566929
        },
        {
          "duration": 0.4767441860465027,
          "durationTicks": 41,
          "midi": 60,
          "name": "C4",
          "ticks": 5991,
          "time": 69.66279069767442,
          "velocity": 0.4015748031496063
        },
        {
          "duration": 0.11627906976744384,
          "durationTicks": 10,
          "midi": 55,
          "name": "G3",
          "ticks": 5992,
          "time": 69.67441860465117,
          "velocity": 0.4881889763779528
        },
        {
          "duration": 0.023255813953497295,
          "durationTicks": 2,
          "midi": 43,
          "name": "G2",
          "ticks": 5995,
          "time": 69.70930232558139,
          "velocity": 0.3543307086614173
        },
        {
          "duration": 0.023255813953483084,
          "durationTicks": 2,
          "midi": 43,
          "name": "G2",
          "ticks": 5999,
          "time": 69.75581395348837,
          "velocity": 0.3543307086614173
        },
        {
          "duration": 0.023255813953483084,
          "durationTicks": 2,
          "midi": 43,
          "name": "G2",
          "ticks": 6002,
          "time": 69.79069767441861,
          "velocity": 0.33070866141732286
        },
        {
          "duration": 0.023255813953483084,
          "durationTicks": 2,
          "midi": 54,
          "name": "F#3",
          "ticks": 6002,
          "time": 69.79069767441861,
          "velocity": 0.2283464566929134
        },
        {
          "duration": 0.023255813953483084,
          "durationTicks": 2,
          "midi": 45,
          "name": "A2",
          "ticks": 6004,
          "time": 69.81395348837209,
          "velocity": 0.3700787401574803
        },
        {
          "duration": 0.023255813953483084,
          "durationTicks": 2,
          "midi": 55,
          "name": "G3",
          "ticks": 6004,
          "time": 69.81395348837209,
          "velocity": 0.2677165354330709
        },
        {
          "duration": 0.023255813953497295,
          "durationTicks": 2,
          "midi": 56,
          "name": "G#3",
          "ticks": 6006,
          "time": 69.83720930232558,
          "velocity": 0.28346456692913385
        },
        {
          "duration": 0.09302325581396076,
          "durationTicks": 8,
          "midi": 68,
          "name": "G#4",
          "ticks": 6006,
          "time": 69.83720930232558,
          "velocity": 0.4251968503937008
        },
        {
          "duration": 0.08139534883721922,
          "durationTicks": 7,
          "midi": 87,
          "name": "D#6",
          "ticks": 6006,
          "time": 69.83720930232558,
          "velocity": 0.14960629921259844
        },
        {
          "duration": 0.04651162790698038,
          "durationTicks": 4,
          "midi": 55,
          "name": "G3",
          "ticks": 6008,
          "time": 69.86046511627907,
          "velocity": 0.33858267716535434
        },
        {
          "duration": 0.03488372093023884,
          "durationTicks": 3,
          "midi": 43,
          "name": "G2",
          "ticks": 6011,
          "time": 69.8953488372093,
          "velocity": 0.3464566929133858
        },
        {
          "duration": 0.023255813953483084,
          "durationTicks": 2,
          "midi": 56,
          "name": "G#3",
          "ticks": 6012,
          "time": 69.90697674418605,
          "velocity": 0.3779527559055118
        },
        {
          "duration": 0.1860465116279073,
          "durationTicks": 16,
          "midi": 67,
          "name": "G4",
          "ticks": 6013,
          "time": 69.9186046511628,
          "velocity": 0.3779527559055118
        },
        {
          "duration": 0.23255813953487348,
          "durationTicks": 20,
          "midi": 88,
          "name": "E6",
          "ticks": 6013,
          "time": 69.9186046511628,
          "velocity": 0.14960629921259844
        },
        {
          "duration": 0.2325581395348877,
          "durationTicks": 20,
          "midi": 55,
          "name": "G3",
          "ticks": 6014,
          "time": 69.93023255813954,
          "velocity": 0.5275590551181102
        },
        {
          "duration": 0.034883720930224626,
          "durationTicks": 3,
          "midi": 83,
          "name": "B5",
          "ticks": 6014,
          "time": 69.93023255813954,
          "velocity": 0.09448818897637795
        },
        {
          "duration": 0.023255813953483084,
          "durationTicks": 2,
          "midi": 45,
          "name": "A2",
          "ticks": 6015,
          "time": 69.94186046511628,
          "velocity": 0.2992125984251969
        },
        {
          "duration": 0.04651162790698038,
          "durationTicks": 4,
          "midi": 43,
          "name": "G2",
          "ticks": 6019,
          "time": 69.98837209302326,
          "velocity": 0.31496062992125984
        },
        {
          "duration": 0.11627906976744384,
          "durationTicks": 10,
          "midi": 86,
          "name": "D6",
          "ticks": 6020,
          "time": 70,
          "velocity": 0.11811023622047244
        },
        {
          "duration": 0.25581395348837077,
          "durationTicks": 22,
          "midi": 83,
          "name": "B5",
          "ticks": 6025,
          "time": 70.05813953488372,
          "velocity": 0.12598425196850394
        },
        {
          "duration": 0.03488372093023884,
          "durationTicks": 3,
          "midi": 43,
          "name": "G2",
          "ticks": 6027,
          "time": 70.0813953488372,
          "velocity": 0.3543307086614173
        },
        {
          "duration": 0.09302325581394655,
          "durationTicks": 8,
          "midi": 68,
          "name": "G#4",
          "ticks": 6029,
          "time": 70.1046511627907,
          "velocity": 0.41732283464566927
        },
        {
          "duration": 0.04651162790696617,
          "durationTicks": 4,
          "midi": 76,
          "name": "E5",
          "ticks": 6029,
          "time": 70.1046511627907,
          "velocity": 0.07086614173228346
        },
        {
          "duration": 0.023255813953497295,
          "durationTicks": 2,
          "midi": 43,
          "name": "G2",
          "ticks": 6032,
          "time": 70.13953488372093,
          "velocity": 0.3464566929133858
        },
        {
          "duration": 0.023255813953483084,
          "durationTicks": 2,
          "midi": 43,
          "name": "G2",
          "ticks": 6035,
          "time": 70.17441860465117,
          "velocity": 0.3858267716535433
        },
        {
          "duration": 0.023255813953483084,
          "durationTicks": 2,
          "midi": 53,
          "name": "F3",
          "ticks": 6035,
          "time": 70.17441860465117,
          "velocity": 0.3228346456692913
        },
        {
          "duration": 0.11627906976744384,
          "durationTicks": 10,
          "midi": 88,
          "name": "E6",
          "ticks": 6035,
          "time": 70.17441860465117,
          "velocity": 0.16535433070866143
        },
        {
          "duration": 0.2325581395348877,
          "durationTicks": 20,
          "midi": 60,
          "name": "C4",
          "ticks": 6036,
          "time": 70.18604651162791,
          "velocity": 0.3700787401574803
        },
        {
          "duration": 0.11627906976744384,
          "durationTicks": 10,
          "midi": 74,
          "name": "D5",
          "ticks": 6036,
          "time": 70.18604651162791,
          "velocity": 0.1889763779527559
        },
        {
          "duration": 0.023255813953497295,
          "durationTicks": 2,
          "midi": 44,
          "name": "G#2",
          "ticks": 6037,
          "time": 70.19767441860465,
          "velocity": 0.36220472440944884
        },
        {
          "duration": 0.11627906976744384,
          "durationTicks": 10,
          "midi": 67,
          "name": "G4",
          "ticks": 6037,
          "time": 70.19767441860465,
          "velocity": 0.3464566929133858
        },
        {
          "duration": 0.11627906976744384,
          "durationTicks": 10,
          "midi": 55,
          "name": "G3",
          "ticks": 6038,
          "time": 70.20930232558139,
          "velocity": 0.48031496062992124
        },
        {
          "duration": 0.034883720930224626,
          "durationTicks": 3,
          "midi": 43,
          "name": "G2",
          "ticks": 6041,
          "time": 70.24418604651163,
          "velocity": 0.3464566929133858
        },
        {
          "duration": 0.1046511627907023,
          "durationTicks": 9,
          "midi": 68,
          "name": "G#4",
          "ticks": 6047,
          "time": 70.31395348837209,
          "velocity": 0.36220472440944884
        },
        {
          "duration": 0.023255813953497295,
          "durationTicks": 2,
          "midi": 54,
          "name": "F#3",
          "ticks": 6048,
          "time": 70.32558139534883,
          "velocity": 0.25984251968503935
        },
        {
          "duration": 0.03488372093023884,
          "durationTicks": 3,
          "midi": 74,
          "name": "D5",
          "ticks": 6048,
          "time": 70.32558139534883,
          "velocity": 0.14173228346456693
        },
        {
          "duration": 0.081395348837205,
          "durationTicks": 7,
          "midi": 55,
          "name": "G3",
          "ticks": 6050,
          "time": 70.34883720930233,
          "velocity": 0.3937007874015748
        },
        {
          "duration": 0.04651162790696617,
          "durationTicks": 4,
          "midi": 43,
          "name": "G2",
          "ticks": 6056,
          "time": 70.4186046511628,
          "velocity": 0.3543307086614173
        },
        {
          "duration": 0.023255813953483084,
          "durationTicks": 2,
          "midi": 54,
          "name": "F#3",
          "ticks": 6057,
          "time": 70.43023255813954,
          "velocity": 0.3700787401574803
        },
        {
          "duration": 0.40697674418603924,
          "durationTicks": 35,
          "midi": 72,
          "name": "C5",
          "ticks": 6057,
          "time": 70.43023255813954,
          "velocity": 0.28346456692913385
        },
        {
          "duration": 0.11627906976744384,
          "durationTicks": 10,
          "midi": 88,
          "name": "E6",
          "ticks": 6057,
          "time": 70.43023255813954,
          "velocity": 0.1889763779527559
        },
        {
          "duration": 0.05813953488372192,
          "durationTicks": 5,
          "midi": 60,
          "name": "C4",
          "ticks": 6058,
          "time": 70.44186046511628,
          "velocity": 0.3228346456692913
        },
        {
          "duration": 0.2093023255814046,
          "durationTicks": 18,
          "midi": 55,
          "name": "G3",
          "ticks": 6059,
          "time": 70.45348837209302,
          "velocity": 0.4094488188976378
        },
        {
          "duration": 0.023255813953497295,
          "durationTicks": 2,
          "midi": 43,
          "name": "G2",
          "ticks": 6064,
          "time": 70.51162790697674,
          "velocity": 0.4094488188976378
        },
        {
          "duration": 0.04651162790698038,
          "durationTicks": 4,
          "midi": 60,
          "name": "C4",
          "ticks": 6064,
          "time": 70.51162790697674,
          "velocity": 0.25196850393700787
        },
        {
          "duration": 0.023255813953483084,
          "durationTicks": 2,
          "midi": 60,
          "name": "C4",
          "ticks": 6069,
          "time": 70.56976744186046,
          "velocity": 0.25196850393700787
        },
        {
          "duration": 0.023255813953483084,
          "durationTicks": 2,
          "midi": 43,
          "name": "G2",
          "ticks": 6072,
          "time": 70.6046511627907,
          "velocity": 0.41732283464566927
        },
        {
          "duration": 0.05813953488372192,
          "durationTicks": 5,
          "midi": 60,
          "name": "C4",
          "ticks": 6072,
          "time": 70.6046511627907,
          "velocity": 0.29133858267716534
        },
        {
          "duration": 0.023255813953483084,
          "durationTicks": 2,
          "midi": 61,
          "name": "C#4",
          "ticks": 6077,
          "time": 70.66279069767442,
          "velocity": 0.28346456692913385
        },
        {
          "duration": 0.06976744186046346,
          "durationTicks": 6,
          "midi": 60,
          "name": "C4",
          "ticks": 6079,
          "time": 70.68604651162791,
          "velocity": 0.3858267716535433
        },
        {
          "duration": 0.25581395348837077,
          "durationTicks": 22,
          "midi": 68,
          "name": "G#4",
          "ticks": 6080,
          "time": 70.69767441860465,
          "velocity": 0.4330708661417323
        },
        {
          "duration": 0.09302325581396076,
          "durationTicks": 8,
          "midi": 88,
          "name": "E6",
          "ticks": 6080,
          "time": 70.69767441860465,
          "velocity": 0.08661417322834646
        },
        {
          "duration": 0.023255813953497295,
          "durationTicks": 2,
          "midi": 43,
          "name": "G2",
          "ticks": 6081,
          "time": 70.70930232558139,
          "velocity": 0.2755905511811024
        },
        {
          "duration": 0.09302325581396076,
          "durationTicks": 8,
          "midi": 55,
          "name": "G3",
          "ticks": 6081,
          "time": 70.70930232558139,
          "velocity": 0.4881889763779528
        },
        {
          "duration": 0.2325581395348877,
          "durationTicks": 20,
          "midi": 87,
          "name": "D#6",
          "ticks": 6081,
          "time": 70.70930232558139,
          "velocity": 0.11811023622047244
        },
        {
          "duration": 0.24418604651162923,
          "durationTicks": 21,
          "midi": 92,
          "name": "G#6",
          "ticks": 6081,
          "time": 70.70930232558139,
          "velocity": 0.23622047244094488
        },
        {
          "duration": 0.22093023255814614,
          "durationTicks": 19,
          "midi": 102,
          "name": "F#7",
          "ticks": 6081,
          "time": 70.70930232558139,
          "velocity": 0.11023622047244094
        },
        {
          "duration": 0.081395348837205,
          "durationTicks": 7,
          "midi": 76,
          "name": "E5",
          "ticks": 6082,
          "time": 70.72093023255815,
          "velocity": 0.08661417322834646
        },
        {
          "duration": 0.081395348837205,
          "durationTicks": 7,
          "midi": 96,
          "name": "C7",
          "ticks": 6082,
          "time": 70.72093023255815,
          "velocity": 0.08661417322834646
        },
        {
          "duration": 0.023255813953483084,
          "durationTicks": 2,
          "midi": 43,
          "name": "G2",
          "ticks": 6085,
          "time": 70.75581395348837,
          "velocity": 0.3858267716535433
        },
        {
          "duration": 0.03488372093023884,
          "durationTicks": 3,
          "midi": 60,
          "name": "C4",
          "ticks": 6086,
          "time": 70.76744186046511,
          "velocity": 0.3228346456692913
        },
        {
          "duration": 0.023255813953483084,
          "durationTicks": 2,
          "midi": 45,
          "name": "A2",
          "ticks": 6090,
          "time": 70.81395348837209,
          "velocity": 0.3464566929133858
        },
        {
          "duration": 0.03488372093023884,
          "durationTicks": 3,
          "midi": 60,
          "name": "C4",
          "ticks": 6090,
          "time": 70.81395348837209,
          "velocity": 0.2283464566929134
        },
        {
          "duration": 0.09302325581394655,
          "durationTicks": 8,
          "midi": 96,
          "name": "C7",
          "ticks": 6093,
          "time": 70.84883720930233,
          "velocity": 0.2440944881889764
        },
        {
          "duration": 0.10465116279068809,
          "durationTicks": 9,
          "midi": 55,
          "name": "G3",
          "ticks": 6094,
          "time": 70.86046511627907,
          "velocity": 0.3779527559055118
        },
        {
          "duration": 0.04651162790698038,
          "durationTicks": 4,
          "midi": 41,
          "name": "F2",
          "ticks": 6095,
          "time": 70.87209302325581,
          "velocity": 0.2047244094488189
        },
        {
          "duration": 0.023255813953483084,
          "durationTicks": 2,
          "midi": 60,
          "name": "C4",
          "ticks": 6099,
          "time": 70.9186046511628,
          "velocity": 0.23622047244094488
        },
        {
          "duration": 0.023255813953483084,
          "durationTicks": 2,
          "midi": 44,
          "name": "G#2",
          "ticks": 6101,
          "time": 70.94186046511628,
          "velocity": 0.3228346456692913
        },
        {
          "duration": 0.15116279069768268,
          "durationTicks": 13,
          "midi": 69,
          "name": "A4",
          "ticks": 6102,
          "time": 70.95348837209302,
          "velocity": 0.3779527559055118
        },
        {
          "duration": 0.03488372093023884,
          "durationTicks": 3,
          "midi": 43,
          "name": "G2",
          "ticks": 6103,
          "time": 70.96511627906976,
          "velocity": 0.25196850393700787
        },
        {
          "duration": 0.10465116279068809,
          "durationTicks": 9,
          "midi": 88,
          "name": "E6",
          "ticks": 6105,
          "time": 70.98837209302326,
          "velocity": 0.16535433070866143
        },
        {
          "duration": 0.023255813953483084,
          "durationTicks": 2,
          "midi": 43,
          "name": "G2",
          "ticks": 6109,
          "time": 71.03488372093024,
          "velocity": 0.2677165354330709
        },
        {
          "duration": 0.023255813953483084,
          "durationTicks": 2,
          "midi": 58,
          "name": "A#3",
          "ticks": 6110,
          "time": 71.04651162790698,
          "velocity": 0.2677165354330709
        },
        {
          "duration": 0.023255813953483084,
          "durationTicks": 2,
          "midi": 45,
          "name": "A2",
          "ticks": 6111,
          "time": 71.05813953488372,
          "velocity": 0.44881889763779526
        },
        {
          "duration": 0.034883720930224626,
          "durationTicks": 3,
          "midi": 102,
          "name": "F#7",
          "ticks": 6111,
          "time": 71.05813953488372,
          "velocity": 0.07874015748031496
        },
        {
          "duration": 0.16279069767442422,
          "durationTicks": 14,
          "midi": 72,
          "name": "C5",
          "ticks": 6112,
          "time": 71.06976744186046,
          "velocity": 0.36220472440944884
        },
        {
          "duration": 0.06976744186046346,
          "durationTicks": 6,
          "midi": 50,
          "name": "D3",
          "ticks": 6113,
          "time": 71.0813953488372,
          "velocity": 0.3937007874015748
        },
        {
          "duration": 0.13953488372094114,
          "durationTicks": 12,
          "midi": 84,
          "name": "C6",
          "ticks": 6113,
          "time": 71.0813953488372,
          "velocity": 0.36220472440944884
        },
        {
          "duration": 0.11627906976744384,
          "durationTicks": 10,
          "midi": 91,
          "name": "G6",
          "ticks": 6113,
          "time": 71.0813953488372,
          "velocity": 0.15748031496062992
        },
        {
          "duration": 0.06976744186047767,
          "durationTicks": 6,
          "midi": 100,
          "name": "E7",
          "ticks": 6114,
          "time": 71.09302325581395,
          "velocity": 0.13385826771653545
        },
        {
          "duration": 0.1860465116279073,
          "durationTicks": 16,
          "midi": 76,
          "name": "E5",
          "ticks": 6117,
          "time": 71.12790697674419,
          "velocity": 0.08661417322834646
        },
        {
          "duration": 0.04651162790698038,
          "durationTicks": 4,
          "midi": 103,
          "name": "G7",
          "ticks": 6118,
          "time": 71.13953488372093,
          "velocity": 0.1732283464566929
        },
        {
          "duration": 0.06976744186046346,
          "durationTicks": 6,
          "midi": 50,
          "name": "D3",
          "ticks": 6120,
          "time": 71.16279069767442,
          "velocity": 0.3779527559055118
        },
        {
          "duration": 0.2906976744185954,
          "durationTicks": 25,
          "midi": 69,
          "name": "A4",
          "ticks": 6121,
          "time": 71.17441860465117,
          "velocity": 0.44881889763779526
        },
        {
          "duration": 0.04651162790698038,
          "durationTicks": 4,
          "midi": 50,
          "name": "D3",
          "ticks": 6127,
          "time": 71.24418604651163,
          "velocity": 0.3700787401574803
        },
        {
          "duration": 0.023255813953497295,
          "durationTicks": 2,
          "midi": 45,
          "name": "A2",
          "ticks": 6129,
          "time": 71.26744186046511,
          "velocity": 0.3228346456692913
        },
        {
          "duration": 0.2906976744185954,
          "durationTicks": 25,
          "midi": 50,
          "name": "D3",
          "ticks": 6132,
          "time": 71.30232558139535,
          "velocity": 0.3700787401574803
        },
        {
          "duration": 0.2674418604651123,
          "durationTicks": 23,
          "midi": 88,
          "name": "E6",
          "ticks": 6134,
          "time": 71.32558139534883,
          "velocity": 0.2677165354330709
        },
        {
          "duration": 0.09302325581396076,
          "durationTicks": 8,
          "midi": 103,
          "name": "G7",
          "ticks": 6134,
          "time": 71.32558139534883,
          "velocity": 0.1968503937007874
        },
        {
          "duration": 0.24418604651162923,
          "durationTicks": 21,
          "midi": 74,
          "name": "D5",
          "ticks": 6135,
          "time": 71.33720930232558,
          "velocity": 0.28346456692913385
        },
        {
          "duration": 0.023255813953483084,
          "durationTicks": 2,
          "midi": 58,
          "name": "A#3",
          "ticks": 6136,
          "time": 71.34883720930233,
          "velocity": 0.2677165354330709
        },
        {
          "duration": 0.23255813953487348,
          "durationTicks": 20,
          "midi": 78,
          "name": "F#5",
          "ticks": 6136,
          "time": 71.34883720930233,
          "velocity": 0.12598425196850394
        },
        {
          "duration": 0.2674418604651123,
          "durationTicks": 23,
          "midi": 76,
          "name": "E5",
          "ticks": 6137,
          "time": 71.36046511627907,
          "velocity": 0.13385826771653545
        },
        {
          "duration": 0.06976744186046346,
          "durationTicks": 6,
          "midi": 57,
          "name": "A3",
          "ticks": 6138,
          "time": 71.37209302325581,
          "velocity": 0.25984251968503935
        },
        {
          "duration": 0.06976744186047767,
          "durationTicks": 6,
          "midi": 68,
          "name": "G#4",
          "ticks": 6146,
          "time": 71.46511627906976,
          "velocity": 0.4015748031496063
        },
        {
          "duration": 0.08139534883721922,
          "durationTicks": 7,
          "midi": 87,
          "name": "D#6",
          "ticks": 6146,
          "time": 71.46511627906976,
          "velocity": 0.16535433070866143
        },
        {
          "duration": 0.09302325581394655,
          "durationTicks": 8,
          "midi": 57,
          "name": "A3",
          "ticks": 6148,
          "time": 71.48837209302326,
          "velocity": 0.25196850393700787
        },
        {
          "duration": 0.09302325581396076,
          "durationTicks": 8,
          "midi": 67,
          "name": "G4",
          "ticks": 6157,
          "time": 71.59302325581395,
          "velocity": 0.4015748031496063
        },
        {
          "duration": 0.11627906976744384,
          "durationTicks": 10,
          "midi": 86,
          "name": "D6",
          "ticks": 6157,
          "time": 71.59302325581395,
          "velocity": 0.2283464566929134
        },
        {
          "duration": 0.023255813953483084,
          "durationTicks": 2,
          "midi": 45,
          "name": "A2",
          "ticks": 6158,
          "time": 71.6046511627907,
          "velocity": 0.3937007874015748
        },
        {
          "duration": 0.023255813953483084,
          "durationTicks": 2,
          "midi": 58,
          "name": "A#3",
          "ticks": 6158,
          "time": 71.6046511627907,
          "velocity": 0.31496062992125984
        },
        {
          "duration": 0.023255813953483084,
          "durationTicks": 2,
          "midi": 63,
          "name": "D#4",
          "ticks": 6158,
          "time": 71.6046511627907,
          "velocity": 0.2755905511811024
        },
        {
          "duration": 0.03488372093023884,
          "durationTicks": 3,
          "midi": 50,
          "name": "D3",
          "ticks": 6160,
          "time": 71.62790697674419,
          "velocity": 0.3700787401574803
        },
        {
          "duration": 0.09302325581396076,
          "durationTicks": 8,
          "midi": 57,
          "name": "A3",
          "ticks": 6160,
          "time": 71.62790697674419,
          "velocity": 0.3700787401574803
        },
        {
          "duration": 0.05813953488372192,
          "durationTicks": 5,
          "midi": 91,
          "name": "G6",
          "ticks": 6161,
          "time": 71.63953488372093,
          "velocity": 0.11023622047244094
        },
        {
          "duration": 0.023255813953483084,
          "durationTicks": 2,
          "midi": 66,
          "name": "F#4",
          "ticks": 6165,
          "time": 71.68604651162791,
          "velocity": 0.2677165354330709
        },
        {
          "duration": 0.04651162790698038,
          "durationTicks": 4,
          "midi": 45,
          "name": "A2",
          "ticks": 6166,
          "time": 71.69767441860465,
          "velocity": 0.36220472440944884
        },
        {
          "duration": 0.023255813953483084,
          "durationTicks": 2,
          "midi": 61,
          "name": "C#4",
          "ticks": 6168,
          "time": 71.72093023255815,
          "velocity": 0.36220472440944884
        },
        {
          "duration": 0.2093023255813904,
          "durationTicks": 18,
          "midi": 74,
          "name": "D5",
          "ticks": 6168,
          "time": 71.72093023255815,
          "velocity": 0.33070866141732286
        },
        {
          "duration": 0.10465116279068809,
          "durationTicks": 9,
          "midi": 77,
          "name": "F5",
          "ticks": 6169,
          "time": 71.73255813953489,
          "velocity": 0.3228346456692913
        },
        {
          "duration": 0.11627906976744384,
          "durationTicks": 10,
          "midi": 81,
          "name": "A5",
          "ticks": 6169,
          "time": 71.73255813953489,
          "velocity": 0.14960629921259844
        },
        {
          "duration": 0.25581395348837077,
          "durationTicks": 22,
          "midi": 62,
          "name": "D4",
          "ticks": 6170,
          "time": 71.74418604651163,
          "velocity": 0.5196850393700787
        },
        {
          "duration": 0.081395348837205,
          "durationTicks": 7,
          "midi": 65,
          "name": "F4",
          "ticks": 6170,
          "time": 71.74418604651163,
          "velocity": 0.3937007874015748
        },
        {
          "duration": 0.11627906976744384,
          "durationTicks": 10,
          "midi": 88,
          "name": "E6",
          "ticks": 6170,
          "time": 71.74418604651163,
          "velocity": 0.12598425196850394
        },
        {
          "duration": 0.1046511627907023,
          "durationTicks": 9,
          "midi": 57,
          "name": "A3",
          "ticks": 6171,
          "time": 71.75581395348837,
          "velocity": 0.4094488188976378
        },
        {
          "duration": 0.03488372093023884,
          "durationTicks": 3,
          "midi": 45,
          "name": "A2",
          "ticks": 6172,
          "time": 71.76744186046511,
          "velocity": 0.29133858267716534
        },
        {
          "duration": 0.023255813953497295,
          "durationTicks": 2,
          "midi": 45,
          "name": "A2",
          "ticks": 6178,
          "time": 71.83720930232558,
          "velocity": 0.2755905511811024
        },
        {
          "duration": 0.023255813953497295,
          "durationTicks": 2,
          "midi": 50,
          "name": "D3",
          "ticks": 6178,
          "time": 71.83720930232558,
          "velocity": 0.28346456692913385
        },
        {
          "duration": 0.023255813953483084,
          "durationTicks": 2,
          "midi": 48,
          "name": "C3",
          "ticks": 6180,
          "time": 71.86046511627907,
          "velocity": 0.33070866141732286
        },
        {
          "duration": 0.05813953488372192,
          "durationTicks": 5,
          "midi": 102,
          "name": "F#7",
          "ticks": 6181,
          "time": 71.87209302325581,
          "velocity": 0.14173228346456693
        },
        {
          "duration": 0.13953488372092693,
          "durationTicks": 12,
          "midi": 57,
          "name": "A3",
          "ticks": 6182,
          "time": 71.88372093023256,
          "velocity": 0.4330708661417323
        },
        {
          "duration": 0.03488372093023884,
          "durationTicks": 3,
          "midi": 71,
          "name": "B4",
          "ticks": 6182,
          "time": 71.88372093023256,
          "velocity": 0.11811023622047244
        },
        {
          "duration": 0.12790697674418539,
          "durationTicks": 11,
          "midi": 50,
          "name": "D3",
          "ticks": 6183,
          "time": 71.8953488372093,
          "velocity": 0.3464566929133858
        },
        {
          "duration": 0.04651162790698038,
          "durationTicks": 4,
          "midi": 90,
          "name": "F#6",
          "ticks": 6183,
          "time": 71.8953488372093,
          "velocity": 0.09448818897637795
        },
        {
          "duration": 0.2674418604651123,
          "durationTicks": 23,
          "midi": 64,
          "name": "E4",
          "ticks": 6191,
          "time": 71.98837209302326,
          "velocity": 0.47244094488188976
        },
        {
          "duration": 0.023255813953497295,
          "durationTicks": 2,
          "midi": 45,
          "name": "A2",
          "ticks": 6193,
          "time": 72.01162790697674,
          "velocity": 0.33070866141732286
        },
        {
          "duration": 0.22093023255814614,
          "durationTicks": 19,
          "midi": 81,
          "name": "A5",
          "ticks": 6194,
          "time": 72.02325581395348,
          "velocity": 0.16535433070866143
        },
        {
          "duration": 0.023255813953483084,
          "durationTicks": 2,
          "midi": 42,
          "name": "F#2",
          "ticks": 6195,
          "time": 72.03488372093024,
          "velocity": 0.25196850393700787
        },
        {
          "duration": 0.24418604651161502,
          "durationTicks": 21,
          "midi": 50,
          "name": "D3",
          "ticks": 6195,
          "time": 72.03488372093024,
          "velocity": 0.4015748031496063
        },
        {
          "duration": 0.22093023255813193,
          "durationTicks": 19,
          "midi": 57,
          "name": "A3",
          "ticks": 6195,
          "time": 72.03488372093024,
          "velocity": 0.44881889763779526
        },
        {
          "duration": 0.10465116279068809,
          "durationTicks": 9,
          "midi": 74,
          "name": "D5",
          "ticks": 6195,
          "time": 72.03488372093024,
          "velocity": 0.11811023622047244
        },
        {
          "duration": 0.03488372093023884,
          "durationTicks": 3,
          "midi": 83,
          "name": "B5",
          "ticks": 6203,
          "time": 72.12790697674419,
          "velocity": 0.11023622047244094
        },
        {
          "duration": 0.1046511627907023,
          "durationTicks": 9,
          "midi": 102,
          "name": "F#7",
          "ticks": 6203,
          "time": 72.12790697674419,
          "velocity": 0.1968503937007874
        },
        {
          "duration": 0.08139534883721922,
          "durationTicks": 7,
          "midi": 92,
          "name": "G#6",
          "ticks": 6204,
          "time": 72.13953488372093,
          "velocity": 0.09448818897637795
        },
        {
          "duration": 0.2674418604651123,
          "durationTicks": 23,
          "midi": 74,
          "name": "D5",
          "ticks": 6206,
          "time": 72.16279069767442,
          "velocity": 0.25984251968503935
        },
        {
          "duration": 0.11627906976744384,
          "durationTicks": 10,
          "midi": 65,
          "name": "F4",
          "ticks": 6214,
          "time": 72.25581395348837,
          "velocity": 0.4566929133858268
        },
        {
          "duration": 0.1046511627907023,
          "durationTicks": 9,
          "midi": 84,
          "name": "C6",
          "ticks": 6214,
          "time": 72.25581395348837,
          "velocity": 0.2047244094488189
        },
        {
          "duration": 0.11627906976744384,
          "durationTicks": 10,
          "midi": 57,
          "name": "A3",
          "ticks": 6216,
          "time": 72.27906976744185,
          "velocity": 0.44881889763779526
        },
        {
          "duration": 0.08139534883721922,
          "durationTicks": 7,
          "midi": 89,
          "name": "F6",
          "ticks": 6216,
          "time": 72.27906976744185,
          "velocity": 0.14173228346456693
        },
        {
          "duration": 0.10465116279068809,
          "durationTicks": 9,
          "midi": 50,
          "name": "D3",
          "ticks": 6217,
          "time": 72.29069767441861,
          "velocity": 0.4015748031496063
        },
        {
          "duration": 0.03488372093023884,
          "durationTicks": 3,
          "midi": 70,
          "name": "A#4",
          "ticks": 6226,
          "time": 72.3953488372093,
          "velocity": 0.18110236220472442
        },
        {
          "duration": 0.023255813953483084,
          "durationTicks": 2,
          "midi": 57,
          "name": "A3",
          "ticks": 6227,
          "time": 72.40697674418605,
          "velocity": 0.4015748031496063
        },
        {
          "duration": 0.10465116279068809,
          "durationTicks": 9,
          "midi": 45,
          "name": "A2",
          "ticks": 6228,
          "time": 72.4186046511628,
          "velocity": 0.3543307086614173
        },
        {
          "duration": 0.10465116279068809,
          "durationTicks": 9,
          "midi": 67,
          "name": "G4",
          "ticks": 6228,
          "time": 72.4186046511628,
          "velocity": 0.4330708661417323
        },
        {
          "duration": 0.023255813953483084,
          "durationTicks": 2,
          "midi": 51,
          "name": "D#3",
          "ticks": 6229,
          "time": 72.43023255813954,
          "velocity": 0.33858267716535434
        },
        {
          "duration": 0.09302325581396076,
          "durationTicks": 8,
          "midi": 57,
          "name": "A3",
          "ticks": 6230,
          "time": 72.44186046511628,
          "velocity": 0.4251968503937008
        },
        {
          "duration": 0.34883720930233153,
          "durationTicks": 30,
          "midi": 62,
          "name": "D4",
          "ticks": 6230,
          "time": 72.44186046511628,
          "velocity": 0.41732283464566927
        },
        {
          "duration": 0.09302325581396076,
          "durationTicks": 8,
          "midi": 86,
          "name": "D6",
          "ticks": 6232,
          "time": 72.46511627906976,
          "velocity": 0.16535433070866143
        },
        {
          "duration": 0.023255813953497295,
          "durationTicks": 2,
          "midi": 46,
          "name": "A#2",
          "ticks": 6237,
          "time": 72.52325581395348,
          "velocity": 0.33858267716535434
        },
        {
          "duration": 0.03488372093023884,
          "durationTicks": 3,
          "midi": 66,
          "name": "F#4",
          "ticks": 6237,
          "time": 72.52325581395348,
          "velocity": 0.29133858267716534
        },
        {
          "duration": 0.023255813953483084,
          "durationTicks": 2,
          "midi": 56,
          "name": "G#3",
          "ticks": 6238,
          "time": 72.53488372093024,
          "velocity": 0.4251968503937008
        },
        {
          "duration": 0.13953488372092693,
          "durationTicks": 12,
          "midi": 69,
          "name": "A4",
          "ticks": 6238,
          "time": 72.53488372093024,
          "velocity": 0.2047244094488189
        },
        {
          "duration": 0.24418604651161502,
          "durationTicks": 21,
          "midi": 81,
          "name": "A5",
          "ticks": 6238,
          "time": 72.53488372093024,
          "velocity": 0.2125984251968504
        },
        {
          "duration": 0.023255813953483084,
          "durationTicks": 2,
          "midi": 45,
          "name": "A2",
          "ticks": 6239,
          "time": 72.54651162790698,
          "velocity": 0.2677165354330709
        },
        {
          "duration": 0.023255813953483084,
          "durationTicks": 2,
          "midi": 50,
          "name": "D3",
          "ticks": 6239,
          "time": 72.54651162790698,
          "velocity": 0.31496062992125984
        },
        {
          "duration": 0.06976744186046346,
          "durationTicks": 6,
          "midi": 50,
          "name": "D3",
          "ticks": 6242,
          "time": 72.5813953488372,
          "velocity": 0.3464566929133858
        },
        {
          "duration": 0.34883720930233153,
          "durationTicks": 30,
          "midi": 57,
          "name": "A3",
          "ticks": 6242,
          "time": 72.5813953488372,
          "velocity": 0.48031496062992124
        },
        {
          "duration": 0.05813953488372192,
          "durationTicks": 5,
          "midi": 88,
          "name": "E6",
          "ticks": 6245,
          "time": 72.61627906976744,
          "velocity": 0.08661417322834646
        },
        {
          "duration": 0.06976744186046346,
          "durationTicks": 6,
          "midi": 45,
          "name": "A2",
          "ticks": 6249,
          "time": 72.66279069767442,
          "velocity": 0.36220472440944884
        },
        {
          "duration": 0.12790697674418539,
          "durationTicks": 11,
          "midi": 86,
          "name": "D6",
          "ticks": 6249,
          "time": 72.66279069767442,
          "velocity": 0.36220472440944884
        },
        {
          "duration": 0.10465116279068809,
          "durationTicks": 9,
          "midi": 67,
          "name": "G4",
          "ticks": 6250,
          "time": 72.67441860465117,
          "velocity": 0.44881889763779526
        },
        {
          "duration": 0.04651162790698038,
          "durationTicks": 4,
          "midi": 91,
          "name": "G6",
          "ticks": 6250,
          "time": 72.67441860465117,
          "velocity": 0.10236220472440945
        },
        {
          "duration": 0.09302325581394655,
          "durationTicks": 8,
          "midi": 95,
          "name": "B6",
          "ticks": 6251,
          "time": 72.68604651162791,
          "velocity": 0.1732283464566929
        },
        {
          "duration": 0.05813953488372192,
          "durationTicks": 5,
          "midi": 101,
          "name": "F7",
          "ticks": 6251,
          "time": 72.68604651162791,
          "velocity": 0.09448818897637795
        },
        {
          "duration": 0.023255813953497295,
          "durationTicks": 2,
          "midi": 50,
          "name": "D3",
          "ticks": 6253,
          "time": 72.70930232558139,
          "velocity": 0.2992125984251969
        },
        {
          "duration": 0.023255813953497295,
          "durationTicks": 2,
          "midi": 50,
          "name": "D3",
          "ticks": 6258,
          "time": 72.76744186046511,
          "velocity": 0.29133858267716534
        },
        {
          "duration": 0.03488372093023884,
          "durationTicks": 3,
          "midi": 68,
          "name": "G#4",
          "ticks": 6259,
          "time": 72.77906976744185,
          "velocity": 0.4330708661417323
        },
        {
          "duration": 0.023255813953483084,
          "durationTicks": 2,
          "midi": 61,
          "name": "C#4",
          "ticks": 6260,
          "time": 72.79069767441861,
          "velocity": 0.23622047244094488
        },
        {
          "duration": 0.081395348837205,
          "durationTicks": 7,
          "midi": 81,
          "name": "A5",
          "ticks": 6261,
          "time": 72.80232558139535,
          "velocity": 0.18110236220472442
        },
        {
          "duration": 0.15116279069766847,
          "durationTicks": 13,
          "midi": 88,
          "name": "E6",
          "ticks": 6261,
          "time": 72.80232558139535,
          "velocity": 0.14960629921259844
        },
        {
          "duration": 0.16279069767442422,
          "durationTicks": 14,
          "midi": 62,
          "name": "D4",
          "ticks": 6262,
          "time": 72.81395348837209,
          "velocity": 0.2440944881889764
        },
        {
          "duration": 0.03488372093023884,
          "durationTicks": 3,
          "midi": 97,
          "name": "C#7",
          "ticks": 6262,
          "time": 72.81395348837209,
          "velocity": 0.11023622047244094
        },
        {
          "duration": 0.04651162790698038,
          "durationTicks": 4,
          "midi": 50,
          "name": "D3",
          "ticks": 6263,
          "time": 72.82558139534883,
          "velocity": 0.3543307086614173
        },
        {
          "duration": 0.03488372093023884,
          "durationTicks": 3,
          "midi": 76,
          "name": "E5",
          "ticks": 6264,
          "time": 72.83720930232558,
          "velocity": 0.07086614173228346
        },
        {
          "duration": 0.05813953488372192,
          "durationTicks": 5,
          "midi": 50,
          "name": "D3",
          "ticks": 6268,
          "time": 72.88372093023256,
          "velocity": 0.33070866141732286
        },
        {
          "duration": 0.023255813953483084,
          "durationTicks": 2,
          "midi": 56,
          "name": "G#3",
          "ticks": 6272,
          "time": 72.93023255813954,
          "velocity": 0.36220472440944884
        },
        {
          "duration": 0.11627906976744384,
          "durationTicks": 10,
          "midi": 72,
          "name": "C5",
          "ticks": 6273,
          "time": 72.94186046511628,
          "velocity": 0.33070866141732286
        },
        {
          "duration": 0.17441860465116577,
          "durationTicks": 15,
          "midi": 84,
          "name": "C6",
          "ticks": 6273,
          "time": 72.94186046511628,
          "velocity": 0.3464566929133858
        },
        {
          "duration": 0.08139534883721922,
          "durationTicks": 7,
          "midi": 57,
          "name": "A3",
          "ticks": 6274,
          "time": 72.95348837209302,
          "velocity": 0.36220472440944884
        },
        {
          "duration": 0.06976744186046346,
          "durationTicks": 6,
          "midi": 91,
          "name": "G6",
          "ticks": 6274,
          "time": 72.95348837209302,
          "velocity": 0.12598425196850394
        },
        {
          "duration": 0.023255813953483084,
          "durationTicks": 2,
          "midi": 45,
          "name": "A2",
          "ticks": 6276,
          "time": 72.97674418604652,
          "velocity": 0.29133858267716534
        },
        {
          "duration": 0.023255813953483084,
          "durationTicks": 2,
          "midi": 50,
          "name": "D3",
          "ticks": 6276,
          "time": 72.97674418604652,
          "velocity": 0.3228346456692913
        },
        {
          "duration": 0.03488372093023884,
          "durationTicks": 3,
          "midi": 45,
          "name": "A2",
          "ticks": 6279,
          "time": 73.01162790697674,
          "velocity": 0.33858267716535434
        },
        {
          "duration": 0.034883720930224626,
          "durationTicks": 3,
          "midi": 44,
          "name": "G#2",
          "ticks": 6282,
          "time": 73.04651162790698,
          "velocity": 0.4409448818897638
        },
        {
          "duration": 0.034883720930224626,
          "durationTicks": 3,
          "midi": 71,
          "name": "B4",
          "ticks": 6283,
          "time": 73.05813953488372,
          "velocity": 0.14960629921259844
        },
        {
          "duration": 0.03488372093023884,
          "durationTicks": 3,
          "midi": 55,
          "name": "G3",
          "ticks": 6284,
          "time": 73.06976744186046,
          "velocity": 0.3464566929133858
        },
        {
          "duration": 0.05813953488372192,
          "durationTicks": 5,
          "midi": 91,
          "name": "G6",
          "ticks": 6284,
          "time": 73.06976744186046,
          "velocity": 0.2047244094488189
        },
        {
          "duration": 0.06976744186046346,
          "durationTicks": 6,
          "midi": 72,
          "name": "C5",
          "ticks": 6285,
          "time": 73.0813953488372,
          "velocity": 0.2283464566929134
        },
        {
          "duration": 0.06976744186046346,
          "durationTicks": 6,
          "midi": 56,
          "name": "G#3",
          "ticks": 6287,
          "time": 73.1046511627907,
          "velocity": 0.2204724409448819
        },
        {
          "duration": 0.04651162790698038,
          "durationTicks": 4,
          "midi": 44,
          "name": "G#2",
          "ticks": 6289,
          "time": 73.12790697674419,
          "velocity": 0.3937007874015748
        },
        {
          "duration": 0.023255813953483084,
          "durationTicks": 2,
          "midi": 45,
          "name": "A2",
          "ticks": 6293,
          "time": 73.17441860465117,
          "velocity": 0.3700787401574803
        },
        {
          "duration": 0.38372093023255616,
          "durationTicks": 33,
          "midi": 75,
          "name": "D#5",
          "ticks": 6293,
          "time": 73.17441860465117,
          "velocity": 0.2125984251968504
        },
        {
          "duration": 0.03488372093023884,
          "durationTicks": 3,
          "midi": 63,
          "name": "D#4",
          "ticks": 6295,
          "time": 73.19767441860465,
          "velocity": 0.2283464566929134
        },
        {
          "duration": 0.023255813953497295,
          "durationTicks": 2,
          "midi": 45,
          "name": "A2",
          "ticks": 6296,
          "time": 73.20930232558139,
          "velocity": 0.3937007874015748
        },
        {
          "duration": 0.25581395348837077,
          "durationTicks": 22,
          "midi": 56,
          "name": "G#3",
          "ticks": 6296,
          "time": 73.20930232558139,
          "velocity": 0.4015748031496063
        },
        {
          "duration": 0.15116279069768268,
          "durationTicks": 13,
          "midi": 85,
          "name": "C#6",
          "ticks": 6296,
          "time": 73.20930232558139,
          "velocity": 0.4251968503937008
        },
        {
          "duration": 0.13953488372094114,
          "durationTicks": 12,
          "midi": 92,
          "name": "G#6",
          "ticks": 6296,
          "time": 73.20930232558139,
          "velocity": 0.1889763779527559
        },
        {
          "duration": 0.13953488372094114,
          "durationTicks": 12,
          "midi": 101,
          "name": "F7",
          "ticks": 6296,
          "time": 73.20930232558139,
          "velocity": 0.09448818897637795
        },
        {
          "duration": 0.23255813953487348,
          "durationTicks": 20,
          "midi": 73,
          "name": "C#5",
          "ticks": 6297,
          "time": 73.22093023255815,
          "velocity": 0.4409448818897638
        },
        {
          "duration": 0.11627906976742963,
          "durationTicks": 10,
          "midi": 102,
          "name": "F#7",
          "ticks": 6297,
          "time": 73.22093023255815,
          "velocity": 0.11811023622047244
        },
        {
          "duration": 0.06976744186046346,
          "durationTicks": 6,
          "midi": 44,
          "name": "G#2",
          "ticks": 6298,
          "time": 73.23255813953489,
          "velocity": 0.3700787401574803
        },
        {
          "duration": 0.09302325581396076,
          "durationTicks": 8,
          "midi": 63,
          "name": "D#4",
          "ticks": 6302,
          "time": 73.27906976744185,
          "velocity": 0.10236220472440945
        },
        {
          "duration": 0.03488372093023884,
          "durationTicks": 3,
          "midi": 44,
          "name": "G#2",
          "ticks": 6306,
          "time": 73.32558139534883,
          "velocity": 0.3543307086614173
        },
        {
          "duration": 0.03488372093023884,
          "durationTicks": 3,
          "midi": 44,
          "name": "G#2",
          "ticks": 6311,
          "time": 73.38372093023256,
          "velocity": 0.3700787401574803
        },
        {
          "duration": 0.04651162790698038,
          "durationTicks": 4,
          "midi": 63,
          "name": "D#4",
          "ticks": 6311,
          "time": 73.38372093023256,
          "velocity": 0.11023622047244094
        },
        {
          "duration": 0.03488372093023884,
          "durationTicks": 3,
          "midi": 102,
          "name": "F#7",
          "ticks": 6316,
          "time": 73.44186046511628,
          "velocity": 0.12598425196850394
        },
        {
          "duration": 0.023255813953497295,
          "durationTicks": 2,
          "midi": 55,
          "name": "G3",
          "ticks": 6318,
          "time": 73.46511627906976,
          "velocity": 0.49606299212598426
        },
        {
          "duration": 0.12790697674418539,
          "durationTicks": 11,
          "midi": 68,
          "name": "G#4",
          "ticks": 6318,
          "time": 73.46511627906976,
          "velocity": 0.4566929133858268
        },
        {
          "duration": 0.2674418604651265,
          "durationTicks": 23,
          "midi": 77,
          "name": "F5",
          "ticks": 6318,
          "time": 73.46511627906976,
          "velocity": 0.15748031496062992
        },
        {
          "duration": 0.2093023255813904,
          "durationTicks": 18,
          "midi": 56,
          "name": "G#3",
          "ticks": 6320,
          "time": 73.48837209302326,
          "velocity": 0.44881889763779526
        },
        {
          "duration": 0.2093023255813904,
          "durationTicks": 18,
          "midi": 63,
          "name": "D#4",
          "ticks": 6320,
          "time": 73.48837209302326,
          "velocity": 0.16535433070866143
        },
        {
          "duration": 0.22093023255813193,
          "durationTicks": 19,
          "midi": 73,
          "name": "C#5",
          "ticks": 6320,
          "time": 73.48837209302326,
          "velocity": 0.23622047244094488
        },
        {
          "duration": 0.15116279069766847,
          "durationTicks": 13,
          "midi": 49,
          "name": "C#3",
          "ticks": 6321,
          "time": 73.5,
          "velocity": 0.31496062992125984
        },
        {
          "duration": 0.034883720930224626,
          "durationTicks": 3,
          "midi": 99,
          "name": "D#7",
          "ticks": 6324,
          "time": 73.53488372093024,
          "velocity": 0.07874015748031496
        },
        {
          "duration": 0.034883720930224626,
          "durationTicks": 3,
          "midi": 87,
          "name": "D#6",
          "ticks": 6326,
          "time": 73.55813953488372,
          "velocity": 0.10236220472440945
        },
        {
          "duration": 0.05813953488372192,
          "durationTicks": 5,
          "midi": 49,
          "name": "C#3",
          "ticks": 6335,
          "time": 73.66279069767442,
          "velocity": 0.3228346456692913
        },
        {
          "duration": 0.13953488372094114,
          "durationTicks": 12,
          "midi": 68,
          "name": "G#4",
          "ticks": 6339,
          "time": 73.70930232558139,
          "velocity": 0.48031496062992124
        },
        {
          "duration": 0.023255813953483084,
          "durationTicks": 2,
          "midi": 55,
          "name": "G3",
          "ticks": 6340,
          "time": 73.72093023255815,
          "velocity": 0.2992125984251969
        },
        {
          "duration": 0.09302325581394655,
          "durationTicks": 8,
          "midi": 61,
          "name": "C#4",
          "ticks": 6340,
          "time": 73.72093023255815,
          "velocity": 0.31496062992125984
        },
        {
          "duration": 0.11627906976742963,
          "durationTicks": 10,
          "midi": 87,
          "name": "D#6",
          "ticks": 6340,
          "time": 73.72093023255815,
          "velocity": 0.11023622047244094
        },
        {
          "duration": 0.05813953488372192,
          "durationTicks": 5,
          "midi": 99,
          "name": "D#7",
          "ticks": 6341,
          "time": 73.73255813953489,
          "velocity": 0.11811023622047244
        },
        {
          "duration": 0.081395348837205,
          "durationTicks": 7,
          "midi": 56,
          "name": "G#3",
          "ticks": 6342,
          "time": 73.74418604651163,
          "velocity": 0.3858267716535433
        },
        {
          "duration": 0.023255813953483084,
          "durationTicks": 2,
          "midi": 44,
          "name": "G#2",
          "ticks": 6343,
          "time": 73.75581395348837,
          "velocity": 0.3543307086614173
        },
        {
          "duration": 0.023255813953497295,
          "durationTicks": 2,
          "midi": 50,
          "name": "D3",
          "ticks": 6349,
          "time": 73.82558139534883,
          "velocity": 0.2992125984251969
        },
        {
          "duration": 0.023255813953497295,
          "durationTicks": 2,
          "midi": 58,
          "name": "A#3",
          "ticks": 6349,
          "time": 73.82558139534883,
          "velocity": 0.33858267716535434
        },
        {
          "duration": 0.12790697674418539,
          "durationTicks": 11,
          "midi": 73,
          "name": "C#5",
          "ticks": 6349,
          "time": 73.82558139534883,
          "velocity": 0.16535433070866143
        },
        {
          "duration": 0.12790697674418539,
          "durationTicks": 11,
          "midi": 61,
          "name": "C#4",
          "ticks": 6350,
          "time": 73.83720930232558,
          "velocity": 0.3937007874015748
        },
        {
          "duration": 0.12790697674418539,
          "durationTicks": 11,
          "midi": 86,
          "name": "D6",
          "ticks": 6350,
          "time": 73.83720930232558,
          "velocity": 0.1968503937007874
        },
        {
          "duration": 0.10465116279068809,
          "durationTicks": 9,
          "midi": 67,
          "name": "G4",
          "ticks": 6351,
          "time": 73.84883720930233,
          "velocity": 0.3700787401574803
        },
        {
          "duration": 0.04651162790696617,
          "durationTicks": 4,
          "midi": 80,
          "name": "G#5",
          "ticks": 6351,
          "time": 73.84883720930233,
          "velocity": 0.13385826771653545
        },
        {
          "duration": 0.11627906976742963,
          "durationTicks": 10,
          "midi": 89,
          "name": "F6",
          "ticks": 6351,
          "time": 73.84883720930233,
          "velocity": 0.08661417322834646
        },
        {
          "duration": 0.03488372093023884,
          "durationTicks": 3,
          "midi": 49,
          "name": "C#3",
          "ticks": 6353,
          "time": 73.87209302325581,
          "velocity": 0.3464566929133858
        },
        {
          "duration": 0.11627906976744384,
          "durationTicks": 10,
          "midi": 56,
          "name": "G#3",
          "ticks": 6353,
          "time": 73.87209302325581,
          "velocity": 0.3779527559055118
        },
        {
          "duration": 0.023255813953497295,
          "durationTicks": 2,
          "midi": 45,
          "name": "A2",
          "ticks": 6360,
          "time": 73.95348837209302,
          "velocity": 0.30708661417322836
        },
        {
          "duration": 0.023255813953497295,
          "durationTicks": 2,
          "midi": 60,
          "name": "C4",
          "ticks": 6361,
          "time": 73.96511627906976,
          "velocity": 0.2677165354330709
        },
        {
          "duration": 0.1046511627907023,
          "durationTicks": 9,
          "midi": 65,
          "name": "F4",
          "ticks": 6361,
          "time": 73.96511627906976,
          "velocity": 0.28346456692913385
        },
        {
          "duration": 0.11627906976744384,
          "durationTicks": 10,
          "midi": 84,
          "name": "C6",
          "ticks": 6361,
          "time": 73.96511627906976,
          "velocity": 0.11811023622047244
        },
        {
          "duration": 0.09302325581394655,
          "durationTicks": 8,
          "midi": 42,
          "name": "F#2",
          "ticks": 6363,
          "time": 73.98837209302326,
          "velocity": 0.2677165354330709
        },
        {
          "duration": 0.04651162790698038,
          "durationTicks": 4,
          "midi": 61,
          "name": "C#4",
          "ticks": 6363,
          "time": 73.98837209302326,
          "velocity": 0.1732283464566929
        },
        {
          "duration": 0.034883720930224626,
          "durationTicks": 3,
          "midi": 98,
          "name": "D7",
          "ticks": 6367,
          "time": 74.03488372093024,
          "velocity": 0.1968503937007874
        },
        {
          "duration": 0.03488372093023884,
          "durationTicks": 3,
          "midi": 57,
          "name": "A3",
          "ticks": 6371,
          "time": 74.0813953488372,
          "velocity": 0.3464566929133858
        },
        {
          "duration": 0.023255813953497295,
          "durationTicks": 2,
          "midi": 47,
          "name": "B2",
          "ticks": 6372,
          "time": 74.09302325581395,
          "velocity": 0.2677165354330709
        },
        {
          "duration": 0.15116279069768268,
          "durationTicks": 13,
          "midi": 75,
          "name": "D#5",
          "ticks": 6372,
          "time": 74.09302325581395,
          "velocity": 0.2204724409448819
        },
        {
          "duration": 0.19767441860464885,
          "durationTicks": 17,
          "midi": 63,
          "name": "D#4",
          "ticks": 6373,
          "time": 74.1046511627907,
          "velocity": 0.3858267716535433
        },
        {
          "duration": 0.24418604651162923,
          "durationTicks": 21,
          "midi": 67,
          "name": "G4",
          "ticks": 6373,
          "time": 74.1046511627907,
          "velocity": 0.48031496062992124
        },
        {
          "duration": 0.11627906976744384,
          "durationTicks": 10,
          "midi": 82,
          "name": "A#5",
          "ticks": 6373,
          "time": 74.1046511627907,
          "velocity": 0.12598425196850394
        },
        {
          "duration": 0.23255813953487348,
          "durationTicks": 20,
          "midi": 86,
          "name": "D6",
          "ticks": 6373,
          "time": 74.1046511627907,
          "velocity": 0.2283464566929134
        },
        {
          "duration": 0.16279069767441,
          "durationTicks": 14,
          "midi": 101,
          "name": "F7",
          "ticks": 6373,
          "time": 74.1046511627907,
          "velocity": 0.15748031496062992
        },
        {
          "duration": 0.06976744186046346,
          "durationTicks": 6,
          "midi": 58,
          "name": "A#3",
          "ticks": 6374,
          "time": 74.11627906976744,
          "velocity": 0.29133858267716534
        },
        {
          "duration": 0.1046511627907023,
          "durationTicks": 9,
          "midi": 51,
          "name": "D#3",
          "ticks": 6375,
          "time": 74.12790697674419,
          "velocity": 0.3779527559055118
        },
        {
          "duration": 0.2093023255813904,
          "durationTicks": 18,
          "midi": 91,
          "name": "G6",
          "ticks": 6375,
          "time": 74.12790697674419,
          "velocity": 0.2283464566929134
        },
        {
          "duration": 0.03488372093023884,
          "durationTicks": 3,
          "midi": 58,
          "name": "A#3",
          "ticks": 6381,
          "time": 74.19767441860465,
          "velocity": 0.28346456692913385
        },
        {
          "duration": 0.05813953488372192,
          "durationTicks": 5,
          "midi": 71,
          "name": "B4",
          "ticks": 6384,
          "time": 74.23255813953489,
          "velocity": 0.1968503937007874
        },
        {
          "duration": 0.04651162790698038,
          "durationTicks": 4,
          "midi": 58,
          "name": "A#3",
          "ticks": 6385,
          "time": 74.24418604651163,
          "velocity": 0.2125984251968504
        },
        {
          "duration": 0.03488372093023884,
          "durationTicks": 3,
          "midi": 45,
          "name": "A2",
          "ticks": 6386,
          "time": 74.25581395348837,
          "velocity": 0.3464566929133858
        },
        {
          "duration": 0.023255813953497295,
          "durationTicks": 2,
          "midi": 51,
          "name": "D#3",
          "ticks": 6388,
          "time": 74.27906976744185,
          "velocity": 0.2283464566929134
        },
        {
          "duration": 0.034883720930224626,
          "durationTicks": 3,
          "midi": 44,
          "name": "G#2",
          "ticks": 6389,
          "time": 74.29069767441861,
          "velocity": 0.14960629921259844
        },
        {
          "duration": 0.034883720930224626,
          "durationTicks": 3,
          "midi": 57,
          "name": "A3",
          "ticks": 6394,
          "time": 74.34883720930233,
          "velocity": 0.4094488188976378
        },
        {
          "duration": 0.17441860465115155,
          "durationTicks": 15,
          "midi": 63,
          "name": "D#4",
          "ticks": 6394,
          "time": 74.34883720930233,
          "velocity": 0.3858267716535433
        },
        {
          "duration": 0.04651162790696617,
          "durationTicks": 4,
          "midi": 68,
          "name": "G#4",
          "ticks": 6394,
          "time": 74.34883720930233,
          "velocity": 0.44881889763779526
        },
        {
          "duration": 0.023255813953483084,
          "durationTicks": 2,
          "midi": 47,
          "name": "B2",
          "ticks": 6395,
          "time": 74.36046511627907,
          "velocity": 0.2283464566929134
        },
        {
          "duration": 0.12790697674418539,
          "durationTicks": 11,
          "midi": 70,
          "name": "A#4",
          "ticks": 6396,
          "time": 74.37209302325581,
          "velocity": 0.23622047244094488
        },
        {
          "duration": 0.03488372093023884,
          "durationTicks": 3,
          "midi": 92,
          "name": "G#6",
          "ticks": 6396,
          "time": 74.37209302325581,
          "velocity": 0.10236220472440945
        },
        {
          "duration": 0.1046511627907023,
          "durationTicks": 9,
          "midi": 58,
          "name": "A#3",
          "ticks": 6397,
          "time": 74.38372093023256,
          "velocity": 0.3858267716535433
        },
        {
          "duration": 0.15116279069768268,
          "durationTicks": 13,
          "midi": 86,
          "name": "D6",
          "ticks": 6397,
          "time": 74.38372093023256,
          "velocity": 0.15748031496062992
        },
        {
          "duration": 0.1046511627907023,
          "durationTicks": 9,
          "midi": 51,
          "name": "D#3",
          "ticks": 6398,
          "time": 74.3953488372093,
          "velocity": 0.33858267716535434
        },
        {
          "duration": 0.15116279069768268,
          "durationTicks": 13,
          "midi": 67,
          "name": "G4",
          "ticks": 6398,
          "time": 74.3953488372093,
          "velocity": 0.4330708661417323
        },
        {
          "duration": 0.023255813953483084,
          "durationTicks": 2,
          "midi": 57,
          "name": "A3",
          "ticks": 6406,
          "time": 74.48837209302326,
          "velocity": 0.2755905511811024
        },
        {
          "duration": 0.04651162790698038,
          "durationTicks": 4,
          "midi": 50,
          "name": "D3",
          "ticks": 6407,
          "time": 74.5,
          "velocity": 0.2992125984251969
        },
        {
          "duration": 0.04651162790698038,
          "durationTicks": 4,
          "midi": 71,
          "name": "B4",
          "ticks": 6407,
          "time": 74.5,
          "velocity": 0.1732283464566929
        },
        {
          "duration": 0.05813953488372192,
          "durationTicks": 5,
          "midi": 58,
          "name": "A#3",
          "ticks": 6408,
          "time": 74.51162790697674,
          "velocity": 0.2992125984251969
        },
        {
          "duration": 0.034883720930224626,
          "durationTicks": 3,
          "midi": 51,
          "name": "D#3",
          "ticks": 6411,
          "time": 74.54651162790698,
          "velocity": 0.2283464566929134
        },
        {
          "duration": 0.05813953488372192,
          "durationTicks": 5,
          "midi": 68,
          "name": "G#4",
          "ticks": 6411,
          "time": 74.54651162790698,
          "velocity": 0.44881889763779526
        },
        {
          "duration": 0.03488372093023884,
          "durationTicks": 3,
          "midi": 87,
          "name": "D#6",
          "ticks": 6413,
          "time": 74.56976744186046,
          "velocity": 0.08661417322834646
        },
        {
          "duration": 0.034883720930224626,
          "durationTicks": 3,
          "midi": 62,
          "name": "D4",
          "ticks": 6416,
          "time": 74.6046511627907,
          "velocity": 0.3700787401574803
        },
        {
          "duration": 0.13953488372092693,
          "durationTicks": 12,
          "midi": 67,
          "name": "G4",
          "ticks": 6416,
          "time": 74.6046511627907,
          "velocity": 0.4094488188976378
        },
        {
          "duration": 0.023255813953483084,
          "durationTicks": 2,
          "midi": 56,
          "name": "G#3",
          "ticks": 6418,
          "time": 74.62790697674419,
          "velocity": 0.4094488188976378
        },
        {
          "duration": 0.40697674418605345,
          "durationTicks": 35,
          "midi": 75,
          "name": "D#5",
          "ticks": 6418,
          "time": 74.62790697674419,
          "velocity": 0.28346456692913385
        },
        {
          "duration": 0.418604651162795,
          "durationTicks": 36,
          "midi": 63,
          "name": "D#4",
          "ticks": 6419,
          "time": 74.63953488372093,
          "velocity": 0.4094488188976378
        },
        {
          "duration": 0.12790697674418539,
          "durationTicks": 11,
          "midi": 82,
          "name": "A#5",
          "ticks": 6419,
          "time": 74.63953488372093,
          "velocity": 0.10236220472440945
        },
        {
          "duration": 0.1046511627907023,
          "durationTicks": 9,
          "midi": 58,
          "name": "A#3",
          "ticks": 6420,
          "time": 74.65116279069767,
          "velocity": 0.33858267716535434
        },
        {
          "duration": 0.10465116279068809,
          "durationTicks": 9,
          "midi": 51,
          "name": "D#3",
          "ticks": 6421,
          "time": 74.66279069767442,
          "velocity": 0.3779527559055118
        },
        {
          "duration": 0.06976744186046346,
          "durationTicks": 6,
          "midi": 68,
          "name": "G#4",
          "ticks": 6428,
          "time": 74.74418604651163,
          "velocity": 0.41732283464566927
        },
        {
          "duration": 0.023255813953497295,
          "durationTicks": 2,
          "midi": 45,
          "name": "A2",
          "ticks": 6431,
          "time": 74.77906976744185,
          "velocity": 0.3543307086614173
        },
        {
          "duration": 0.2674418604651265,
          "durationTicks": 23,
          "midi": 58,
          "name": "A#3",
          "ticks": 6431,
          "time": 74.77906976744185,
          "velocity": 0.4015748031496063
        },
        {
          "duration": 0.2674418604651265,
          "durationTicks": 23,
          "midi": 77,
          "name": "F5",
          "ticks": 6431,
          "time": 74.77906976744185,
          "velocity": 0.16535433070866143
        },
        {
          "duration": 0.23255813953487348,
          "durationTicks": 20,
          "midi": 51,
          "name": "D#3",
          "ticks": 6432,
          "time": 74.79069767441861,
          "velocity": 0.3858267716535433
        },
        {
          "duration": 0.15116279069766847,
          "durationTicks": 13,
          "midi": 67,
          "name": "G4",
          "ticks": 6434,
          "time": 74.81395348837209,
          "velocity": 0.3937007874015748
        },
        {
          "duration": 0.081395348837205,
          "durationTicks": 7,
          "midi": 86,
          "name": "D6",
          "ticks": 6439,
          "time": 74.87209302325581,
          "velocity": 0.16535433070866143
        },
        {
          "duration": 0.023255813953497295,
          "durationTicks": 2,
          "midi": 66,
          "name": "F#4",
          "ticks": 6447,
          "time": 74.96511627906976,
          "velocity": 0.2677165354330709
        },
        {
          "duration": 0.023255813953483084,
          "durationTicks": 2,
          "midi": 46,
          "name": "A#2",
          "ticks": 6454,
          "time": 75.04651162790698,
          "velocity": 0.3228346456692913
        },
        {
          "duration": 0.04651162790696617,
          "durationTicks": 4,
          "midi": 57,
          "name": "A3",
          "ticks": 6454,
          "time": 75.04651162790698,
          "velocity": 0.4094488188976378
        },
        {
          "duration": 0.034883720930224626,
          "durationTicks": 3,
          "midi": 62,
          "name": "D4",
          "ticks": 6455,
          "time": 75.05813953488372,
          "velocity": 0.3464566929133858
        },
        {
          "duration": 0.03488372093023884,
          "durationTicks": 3,
          "midi": 45,
          "name": "A2",
          "ticks": 6456,
          "time": 75.06976744186046,
          "velocity": 0.29133858267716534
        },
        {
          "duration": 0.04651162790698038,
          "durationTicks": 4,
          "midi": 56,
          "name": "G#3",
          "ticks": 6458,
          "time": 75.09302325581395,
          "velocity": 0.41732283464566927
        },
        {
          "duration": 0.03488372093023884,
          "durationTicks": 3,
          "midi": 61,
          "name": "C#4",
          "ticks": 6458,
          "time": 75.09302325581395,
          "velocity": 0.25196850393700787
        },
        {
          "duration": 0.034883720930224626,
          "durationTicks": 3,
          "midi": 44,
          "name": "G#2",
          "ticks": 6459,
          "time": 75.1046511627907,
          "velocity": 0.33070866141732286
        },
        {
          "duration": 0.05813953488372192,
          "durationTicks": 5,
          "midi": 55,
          "name": "G3",
          "ticks": 6462,
          "time": 75.13953488372093,
          "velocity": 0.3543307086614173
        },
        {
          "duration": 0.034883720930224626,
          "durationTicks": 3,
          "midi": 43,
          "name": "G2",
          "ticks": 6464,
          "time": 75.16279069767442,
          "velocity": 0.3779527559055118
        },
        {
          "duration": 0.023255813953497295,
          "durationTicks": 2,
          "midi": 42,
          "name": "F#2",
          "ticks": 6467,
          "time": 75.19767441860465,
          "velocity": 0.3543307086614173
        },
        {
          "duration": 0.023255813953483084,
          "durationTicks": 2,
          "midi": 41,
          "name": "F2",
          "ticks": 6471,
          "time": 75.24418604651163,
          "velocity": 0.29133858267716534
        },
        {
          "duration": 0.023255813953483084,
          "durationTicks": 2,
          "midi": 61,
          "name": "C#4",
          "ticks": 6472,
          "time": 75.25581395348837,
          "velocity": 0.44881889763779526
        },
        {
          "duration": 0.2325581395348877,
          "durationTicks": 20,
          "midi": 74,
          "name": "D5",
          "ticks": 6472,
          "time": 75.25581395348837,
          "velocity": 0.30708661417322836
        },
        {
          "duration": 0.08139534883721922,
          "durationTicks": 7,
          "midi": 81,
          "name": "A5",
          "ticks": 6473,
          "time": 75.26744186046511,
          "velocity": 0.2204724409448819
        },
        {
          "duration": 0.03488372093023884,
          "durationTicks": 3,
          "midi": 88,
          "name": "E6",
          "ticks": 6473,
          "time": 75.26744186046511,
          "velocity": 0.12598425196850394
        },
        {
          "duration": 0.19767441860464885,
          "durationTicks": 17,
          "midi": 90,
          "name": "F#6",
          "ticks": 6473,
          "time": 75.26744186046511,
          "velocity": 0.14960629921259844
        },
        {
          "duration": 0.22093023255814614,
          "durationTicks": 19,
          "midi": 62,
          "name": "D4",
          "ticks": 6474,
          "time": 75.27906976744185,
          "velocity": 0.4566929133858268
        },
        {
          "duration": 0.03488372093023884,
          "durationTicks": 3,
          "midi": 70,
          "name": "A#4",
          "ticks": 6474,
          "time": 75.27906976744185,
          "velocity": 0.10236220472440945
        },
        {
          "duration": 0.19767441860466306,
          "durationTicks": 17,
          "midi": 84,
          "name": "C6",
          "ticks": 6474,
          "time": 75.27906976744185,
          "velocity": 0.3700787401574803
        },
        {
          "duration": 0.023255813953483084,
          "durationTicks": 2,
          "midi": 55,
          "name": "G3",
          "ticks": 6475,
          "time": 75.29069767441861,
          "velocity": 0.33858267716535434
        },
        {
          "duration": 0.04651162790696617,
          "durationTicks": 4,
          "midi": 58,
          "name": "A#3",
          "ticks": 6475,
          "time": 75.29069767441861,
          "velocity": 0.3228346456692913
        },
        {
          "duration": 0.2093023255813904,
          "durationTicks": 18,
          "midi": 65,
          "name": "F4",
          "ticks": 6475,
          "time": 75.29069767441861,
          "velocity": 0.3464566929133858
        },
        {
          "duration": 0.04651162790698038,
          "durationTicks": 4,
          "midi": 42,
          "name": "F#2",
          "ticks": 6476,
          "time": 75.30232558139535,
          "velocity": 0.33858267716535434
        },
        {
          "duration": 0.25581395348837077,
          "durationTicks": 22,
          "midi": 53,
          "name": "F3",
          "ticks": 6477,
          "time": 75.31395348837209,
          "velocity": 0.3228346456692913
        },
        {
          "duration": 0.17441860465115155,
          "durationTicks": 15,
          "midi": 41,
          "name": "F2",
          "ticks": 6480,
          "time": 75.34883720930233,
          "velocity": 0.2992125984251969
        },
        {
          "duration": 0.17441860465115155,
          "durationTicks": 15,
          "midi": 58,
          "name": "A#3",
          "ticks": 6480,
          "time": 75.34883720930233,
          "velocity": 0.3543307086614173
        },
        {
          "duration": 0.16279069767442422,
          "durationTicks": 14,
          "midi": 81,
          "name": "A5",
          "ticks": 6483,
          "time": 75.38372093023256,
          "velocity": 0.16535433070866143
        },
        {
          "duration": 0.04651162790698038,
          "durationTicks": 4,
          "midi": 74,
          "name": "D5",
          "ticks": 6494,
          "time": 75.51162790697674,
          "velocity": 0.14960629921259844
        },
        {
          "duration": 0.16279069767441,
          "durationTicks": 14,
          "midi": 76,
          "name": "E5",
          "ticks": 6496,
          "time": 75.53488372093024,
          "velocity": 0.3464566929133858
        },
        {
          "duration": 0.023255813953483084,
          "durationTicks": 2,
          "midi": 43,
          "name": "G2",
          "ticks": 6497,
          "time": 75.54651162790698,
          "velocity": 0.2755905511811024
        },
        {
          "duration": 0.023255813953483084,
          "durationTicks": 2,
          "midi": 57,
          "name": "A3",
          "ticks": 6497,
          "time": 75.54651162790698,
          "velocity": 0.3779527559055118
        },
        {
          "duration": 0.15116279069766847,
          "durationTicks": 13,
          "midi": 64,
          "name": "E4",
          "ticks": 6497,
          "time": 75.54651162790698,
          "velocity": 0.4330708661417323
        },
        {
          "duration": 0.09302325581394655,
          "durationTicks": 8,
          "midi": 95,
          "name": "B6",
          "ticks": 6497,
          "time": 75.54651162790698,
          "velocity": 0.1732283464566929
        },
        {
          "duration": 0.11627906976744384,
          "durationTicks": 10,
          "midi": 102,
          "name": "F#7",
          "ticks": 6497,
          "time": 75.54651162790698,
          "velocity": 0.2440944881889764
        },
        {
          "duration": 0.1046511627907023,
          "durationTicks": 9,
          "midi": 79,
          "name": "G5",
          "ticks": 6498,
          "time": 75.55813953488372,
          "velocity": 0.14960629921259844
        },
        {
          "duration": 0.03488372093023884,
          "durationTicks": 3,
          "midi": 42,
          "name": "F#2",
          "ticks": 6499,
          "time": 75.56976744186046,
          "velocity": 0.2677165354330709
        },
        {
          "duration": 0.2093023255813904,
          "durationTicks": 18,
          "midi": 58,
          "name": "A#3",
          "ticks": 6499,
          "time": 75.56976744186046,
          "velocity": 0.41732283464566927
        },
        {
          "duration": 0.05813953488372192,
          "durationTicks": 5,
          "midi": 67,
          "name": "G4",
          "ticks": 6499,
          "time": 75.56976744186046,
          "velocity": 0.33070866141732286
        },
        {
          "duration": 0.2093023255814046,
          "durationTicks": 18,
          "midi": 53,
          "name": "F3",
          "ticks": 6500,
          "time": 75.5813953488372,
          "velocity": 0.33858267716535434
        },
        {
          "duration": 0.05813953488372192,
          "durationTicks": 5,
          "midi": 86,
          "name": "D6",
          "ticks": 6500,
          "time": 75.5813953488372,
          "velocity": 0.1889763779527559
        },
        {
          "duration": 0.03488372093023884,
          "durationTicks": 3,
          "midi": 92,
          "name": "G#6",
          "ticks": 6501,
          "time": 75.59302325581395,
          "velocity": 0.07874015748031496
        },
        {
          "duration": 0.10465116279068809,
          "durationTicks": 9,
          "midi": 84,
          "name": "C6",
          "ticks": 6507,
          "time": 75.66279069767442,
          "velocity": 0.15748031496062992
        },
        {
          "duration": 0.04651162790698038,
          "durationTicks": 4,
          "midi": 75,
          "name": "D#5",
          "ticks": 6509,
          "time": 75.68604651162791,
          "velocity": 0.08661417322834646
        },
        {
          "duration": 0.3720930232558146,
          "durationTicks": 32,
          "midi": 77,
          "name": "F5",
          "ticks": 6509,
          "time": 75.68604651162791,
          "velocity": 0.3937007874015748
        },
        {
          "duration": 0.03488372093023884,
          "durationTicks": 3,
          "midi": 65,
          "name": "F4",
          "ticks": 6510,
          "time": 75.69767441860465,
          "velocity": 0.33858267716535434
        },
        {
          "duration": 0.03488372093023884,
          "durationTicks": 3,
          "midi": 44,
          "name": "G#2",
          "ticks": 6515,
          "time": 75.75581395348837,
          "velocity": 0.25984251968503935
        },
        {
          "duration": 0.11627906976744384,
          "durationTicks": 10,
          "midi": 65,
          "name": "F4",
          "ticks": 6519,
          "time": 75.80232558139535,
          "velocity": 0.3543307086614173
        },
        {
          "duration": 0.15116279069766847,
          "durationTicks": 13,
          "midi": 69,
          "name": "A4",
          "ticks": 6520,
          "time": 75.81395348837209,
          "velocity": 0.3543307086614173
        },
        {
          "duration": 0.08139534883721922,
          "durationTicks": 7,
          "midi": 88,
          "name": "E6",
          "ticks": 6521,
          "time": 75.82558139534883,
          "velocity": 0.13385826771653545
        },
        {
          "duration": 0.09302325581396076,
          "durationTicks": 8,
          "midi": 97,
          "name": "C#7",
          "ticks": 6521,
          "time": 75.82558139534883,
          "velocity": 0.15748031496062992
        },
        {
          "duration": 0.023255813953483084,
          "durationTicks": 2,
          "midi": 46,
          "name": "A#2",
          "ticks": 6523,
          "time": 75.84883720930233,
          "velocity": 0.28346456692913385
        },
        {
          "duration": 0.023255813953497295,
          "durationTicks": 2,
          "midi": 60,
          "name": "C4",
          "ticks": 6527,
          "time": 75.8953488372093,
          "velocity": 0.33070866141732286
        },
        {
          "duration": 0.023255813953483084,
          "durationTicks": 2,
          "midi": 55,
          "name": "G3",
          "ticks": 6528,
          "time": 75.90697674418605,
          "velocity": 0.4251968503937008
        },
        {
          "duration": 0.12790697674418539,
          "durationTicks": 11,
          "midi": 58,
          "name": "A#3",
          "ticks": 6530,
          "time": 75.93023255813954,
          "velocity": 0.3858267716535433
        },
        {
          "duration": 0.11627906976744384,
          "durationTicks": 10,
          "midi": 65,
          "name": "F4",
          "ticks": 6530,
          "time": 75.93023255813954,
          "velocity": 0.1732283464566929
        },
        {
          "duration": 0.1046511627907023,
          "durationTicks": 9,
          "midi": 53,
          "name": "F3",
          "ticks": 6531,
          "time": 75.94186046511628,
          "velocity": 0.33070866141732286
        },
        {
          "duration": 0.04651162790698038,
          "durationTicks": 4,
          "midi": 84,
          "name": "C6",
          "ticks": 6531,
          "time": 75.94186046511628,
          "velocity": 0.09448818897637795
        },
        {
          "duration": 0.10465116279068809,
          "durationTicks": 9,
          "midi": 74,
          "name": "D5",
          "ticks": 6534,
          "time": 75.97674418604652,
          "velocity": 0.30708661417322836
        },
        {
          "duration": 0.023255813953497295,
          "durationTicks": 2,
          "midi": 46,
          "name": "A#2",
          "ticks": 6538,
          "time": 76.02325581395348,
          "velocity": 0.33070866141732286
        },
        {
          "duration": 0.081395348837205,
          "durationTicks": 7,
          "midi": 102,
          "name": "F#7",
          "ticks": 6541,
          "time": 76.05813953488372,
          "velocity": 0.12598425196850394
        },
        {
          "duration": 0.03488372093023884,
          "durationTicks": 3,
          "midi": 42,
          "name": "F#2",
          "ticks": 6542,
          "time": 76.06976744186046,
          "velocity": 0.23622047244094488
        },
        {
          "duration": 0.2906976744186096,
          "durationTicks": 25,
          "midi": 77,
          "name": "F5",
          "ticks": 6542,
          "time": 76.06976744186046,
          "velocity": 0.36220472440944884
        },
        {
          "duration": 0.1046511627907023,
          "durationTicks": 9,
          "midi": 89,
          "name": "F6",
          "ticks": 6542,
          "time": 76.06976744186046,
          "velocity": 0.3779527559055118
        },
        {
          "duration": 0.023255813953497295,
          "durationTicks": 2,
          "midi": 57,
          "name": "A3",
          "ticks": 6543,
          "time": 76.0813953488372,
          "velocity": 0.28346456692913385
        },
        {
          "duration": 0.27906976744186807,
          "durationTicks": 24,
          "midi": 93,
          "name": "A6",
          "ticks": 6543,
          "time": 76.0813953488372,
          "velocity": 0.2047244094488189
        },
        {
          "duration": 0.06976744186046346,
          "durationTicks": 6,
          "midi": 58,
          "name": "A#3",
          "ticks": 6545,
          "time": 76.1046511627907,
          "velocity": 0.18110236220472442
        },
        {
          "duration": 0.11627906976744384,
          "durationTicks": 10,
          "midi": 74,
          "name": "D5",
          "ticks": 6545,
          "time": 76.1046511627907,
          "velocity": 0.1968503937007874
        },
        {
          "duration": 0.023255813953483084,
          "durationTicks": 2,
          "midi": 45,
          "name": "A2",
          "ticks": 6551,
          "time": 76.17441860465117,
          "velocity": 0.29133858267716534
        },
        {
          "duration": 0.24418604651162923,
          "durationTicks": 21,
          "midi": 53,
          "name": "F3",
          "ticks": 6552,
          "time": 76.18604651162791,
          "velocity": 0.44881889763779526
        },
        {
          "duration": 0.11627906976744384,
          "durationTicks": 10,
          "midi": 70,
          "name": "A#4",
          "ticks": 6552,
          "time": 76.18604651162791,
          "velocity": 0.15748031496062992
        },
        {
          "duration": 0.04651162790698038,
          "durationTicks": 4,
          "midi": 87,
          "name": "D#6",
          "ticks": 6552,
          "time": 76.18604651162791,
          "velocity": 0.07086614173228346
        },
        {
          "duration": 0.5348837209302388,
          "durationTicks": 46,
          "midi": 72,
          "name": "C5",
          "ticks": 6554,
          "time": 76.20930232558139,
          "velocity": 0.3543307086614173
        },
        {
          "duration": 0.023255813953483084,
          "durationTicks": 2,
          "midi": 42,
          "name": "F#2",
          "ticks": 6555,
          "time": 76.22093023255815,
          "velocity": 0.3228346456692913
        },
        {
          "duration": 0.09302325581394655,
          "durationTicks": 8,
          "midi": 58,
          "name": "A#3",
          "ticks": 6555,
          "time": 76.22093023255815,
          "velocity": 0.29133858267716534
        },
        {
          "duration": 0.034883720930224626,
          "durationTicks": 3,
          "midi": 98,
          "name": "D7",
          "ticks": 6556,
          "time": 76.23255813953489,
          "velocity": 0.08661417322834646
        },
        {
          "duration": 0.04651162790698038,
          "durationTicks": 4,
          "midi": 41,
          "name": "F2",
          "ticks": 6557,
          "time": 76.24418604651163,
          "velocity": 0.3464566929133858
        },
        {
          "duration": 0.04651162790696617,
          "durationTicks": 4,
          "midi": 75,
          "name": "D#5",
          "ticks": 6561,
          "time": 76.29069767441861,
          "velocity": 0.1732283464566929
        },
        {
          "duration": 0.15116279069766847,
          "durationTicks": 13,
          "midi": 86,
          "name": "D6",
          "ticks": 6562,
          "time": 76.30232558139535,
          "velocity": 0.13385826771653545
        },
        {
          "duration": 0.40697674418605345,
          "durationTicks": 35,
          "midi": 84,
          "name": "C6",
          "ticks": 6563,
          "time": 76.31395348837209,
          "velocity": 0.4566929133858268
        },
        {
          "duration": 0.04651162790698038,
          "durationTicks": 4,
          "midi": 100,
          "name": "E7",
          "ticks": 6564,
          "time": 76.32558139534883,
          "velocity": 0.10236220472440945
        },
        {
          "duration": 0.023255813953483084,
          "durationTicks": 2,
          "midi": 41,
          "name": "F2",
          "ticks": 6566,
          "time": 76.34883720930233,
          "velocity": 0.2992125984251969
        },
        {
          "duration": 0.3604651162790731,
          "durationTicks": 31,
          "midi": 76,
          "name": "E5",
          "ticks": 6567,
          "time": 76.36046511627907,
          "velocity": 0.49606299212598426
        },
        {
          "duration": 0.3139534883720927,
          "durationTicks": 27,
          "midi": 95,
          "name": "B6",
          "ticks": 6568,
          "time": 76.37209302325581,
          "velocity": 0.14960629921259844
        },
        {
          "duration": 0.023255813953497295,
          "durationTicks": 2,
          "midi": 41,
          "name": "F2",
          "ticks": 6569,
          "time": 76.38372093023256,
          "velocity": 0.29133858267716534
        },
        {
          "duration": 0.03488372093023884,
          "durationTicks": 3,
          "midi": 58,
          "name": "A#3",
          "ticks": 6569,
          "time": 76.38372093023256,
          "velocity": 0.2204724409448819
        },
        {
          "duration": 0.05813953488370771,
          "durationTicks": 5,
          "midi": 74,
          "name": "D5",
          "ticks": 6571,
          "time": 76.40697674418605,
          "velocity": 0.14173228346456693
        },
        {
          "duration": 0.023255813953483084,
          "durationTicks": 2,
          "midi": 41,
          "name": "F2",
          "ticks": 6572,
          "time": 76.4186046511628,
          "velocity": 0.2677165354330709
        },
        {
          "duration": 0.023255813953483084,
          "durationTicks": 2,
          "midi": 57,
          "name": "A3",
          "ticks": 6574,
          "time": 76.44186046511628,
          "velocity": 0.36220472440944884
        },
        {
          "duration": 0.11627906976744384,
          "durationTicks": 10,
          "midi": 53,
          "name": "F3",
          "ticks": 6575,
          "time": 76.45348837209302,
          "velocity": 0.3464566929133858
        },
        {
          "duration": 0.11627906976744384,
          "durationTicks": 10,
          "midi": 70,
          "name": "A#4",
          "ticks": 6575,
          "time": 76.45348837209302,
          "velocity": 0.12598425196850394
        },
        {
          "duration": 0.13953488372092693,
          "durationTicks": 12,
          "midi": 93,
          "name": "A6",
          "ticks": 6575,
          "time": 76.45348837209302,
          "velocity": 0.28346456692913385
        },
        {
          "duration": 0.023255813953497295,
          "durationTicks": 2,
          "midi": 42,
          "name": "F#2",
          "ticks": 6576,
          "time": 76.46511627906976,
          "velocity": 0.3543307086614173
        },
        {
          "duration": 0.1046511627907023,
          "durationTicks": 9,
          "midi": 86,
          "name": "D6",
          "ticks": 6576,
          "time": 76.46511627906976,
          "velocity": 0.07086614173228346
        },
        {
          "duration": 0.09302325581394655,
          "durationTicks": 8,
          "midi": 41,
          "name": "F2",
          "ticks": 6578,
          "time": 76.48837209302326,
          "velocity": 0.3464566929133858
        },
        {
          "duration": 0.081395348837205,
          "durationTicks": 7,
          "midi": 58,
          "name": "A#3",
          "ticks": 6579,
          "time": 76.5,
          "velocity": 0.2677165354330709
        },
        {
          "duration": 0.023255813953497295,
          "durationTicks": 2,
          "midi": 74,
          "name": "D5",
          "ticks": 6580,
          "time": 76.51162790697674,
          "velocity": 0.2440944881889764
        },
        {
          "duration": 0.04651162790696617,
          "durationTicks": 4,
          "midi": 74,
          "name": "D5",
          "ticks": 6583,
          "time": 76.54651162790698,
          "velocity": 0.2204724409448819
        },
        {
          "duration": 0.023255813953483084,
          "durationTicks": 2,
          "midi": 52,
          "name": "E3",
          "ticks": 6585,
          "time": 76.56976744186046,
          "velocity": 0.33858267716535434
        },
        {
          "duration": 0.023255813953497295,
          "durationTicks": 2,
          "midi": 53,
          "name": "F3",
          "ticks": 6587,
          "time": 76.59302325581395,
          "velocity": 0.41732283464566927
        },
        {
          "duration": 0.023255813953483084,
          "durationTicks": 2,
          "midi": 44,
          "name": "G#2",
          "ticks": 6588,
          "time": 76.6046511627907,
          "velocity": 0.31496062992125984
        },
        {
          "duration": 0.023255813953483084,
          "durationTicks": 2,
          "midi": 58,
          "name": "A#3",
          "ticks": 6588,
          "time": 76.6046511627907,
          "velocity": 0.30708661417322836
        },
        {
          "duration": 0.023255813953497295,
          "durationTicks": 2,
          "midi": 45,
          "name": "A2",
          "ticks": 6592,
          "time": 76.65116279069767,
          "velocity": 0.25984251968503935
        },
        {
          "duration": 0.023255813953497295,
          "durationTicks": 2,
          "midi": 46,
          "name": "A#2",
          "ticks": 6596,
          "time": 76.69767441860465,
          "velocity": 0.3464566929133858
        },
        {
          "duration": 0.15116279069768268,
          "durationTicks": 13,
          "midi": 53,
          "name": "F3",
          "ticks": 6597,
          "time": 76.70930232558139,
          "velocity": 0.4251968503937008
        },
        {
          "duration": 0.13953488372094114,
          "durationTicks": 12,
          "midi": 58,
          "name": "A#3",
          "ticks": 6597,
          "time": 76.70930232558139,
          "velocity": 0.3937007874015748
        },
        {
          "duration": 0.2325581395348877,
          "durationTicks": 20,
          "midi": 77,
          "name": "F5",
          "ticks": 6597,
          "time": 76.70930232558139,
          "velocity": 0.2204724409448819
        },
        {
          "duration": 0.023255813953483084,
          "durationTicks": 2,
          "midi": 43,
          "name": "G2",
          "ticks": 6598,
          "time": 76.72093023255815,
          "velocity": 0.33070866141732286
        },
        {
          "duration": 0.04651162790696617,
          "durationTicks": 4,
          "midi": 93,
          "name": "A6",
          "ticks": 6598,
          "time": 76.72093023255815,
          "velocity": 0.12598425196850394
        },
        {
          "duration": 0.04651162790696617,
          "durationTicks": 4,
          "midi": 71,
          "name": "B4",
          "ticks": 6599,
          "time": 76.73255813953489,
          "velocity": 0.18110236220472442
        },
        {
          "duration": 0.034883720930224626,
          "durationTicks": 3,
          "midi": 87,
          "name": "D#6",
          "ticks": 6600,
          "time": 76.74418604651163,
          "velocity": 0.07086614173228346
        },
        {
          "duration": 0.12790697674418539,
          "durationTicks": 11,
          "midi": 41,
          "name": "F2",
          "ticks": 6601,
          "time": 76.75581395348837,
          "velocity": 0.3543307086614173
        },
        {
          "duration": 0.12790697674418539,
          "durationTicks": 11,
          "midi": 81,
          "name": "A5",
          "ticks": 6608,
          "time": 76.83720930232558,
          "velocity": 0.14173228346456693
        },
        {
          "duration": 0.04651162790698038,
          "durationTicks": 4,
          "midi": 60,
          "name": "C4",
          "ticks": 6610,
          "time": 76.86046511627907,
          "velocity": 0.29133858267716534
        },
        {
          "duration": 0.3372093023255758,
          "durationTicks": 29,
          "midi": 70,
          "name": "A#4",
          "ticks": 6610,
          "time": 76.86046511627907,
          "velocity": 0.4251968503937008
        },
        {
          "duration": 0.034883720930224626,
          "durationTicks": 3,
          "midi": 84,
          "name": "C6",
          "ticks": 6610,
          "time": 76.86046511627907,
          "velocity": 0.11811023622047244
        },
        {
          "duration": 0.3488372093023173,
          "durationTicks": 30,
          "midi": 86,
          "name": "D6",
          "ticks": 6610,
          "time": 76.86046511627907,
          "velocity": 0.33070866141732286
        },
        {
          "duration": 0.023255813953497295,
          "durationTicks": 2,
          "midi": 40,
          "name": "E2",
          "ticks": 6612,
          "time": 76.88372093023256,
          "velocity": 0.2677165354330709
        },
        {
          "duration": 0.03488372093023884,
          "durationTicks": 3,
          "midi": 54,
          "name": "F#3",
          "ticks": 6612,
          "time": 76.88372093023256,
          "velocity": 0.3228346456692913
        },
        {
          "duration": 0.2325581395348877,
          "durationTicks": 20,
          "midi": 74,
          "name": "D5",
          "ticks": 6613,
          "time": 76.8953488372093,
          "velocity": 0.23622047244094488
        },
        {
          "duration": 0.06976744186046346,
          "durationTicks": 6,
          "midi": 101,
          "name": "F7",
          "ticks": 6613,
          "time": 76.8953488372093,
          "velocity": 0.10236220472440945
        },
        {
          "duration": 0.034883720930224626,
          "durationTicks": 3,
          "midi": 41,
          "name": "F2",
          "ticks": 6614,
          "time": 76.90697674418605,
          "velocity": 0.36220472440944884
        },
        {
          "duration": 0.2906976744185954,
          "durationTicks": 25,
          "midi": 93,
          "name": "A6",
          "ticks": 6614,
          "time": 76.90697674418605,
          "velocity": 0.23622047244094488
        },
        {
          "duration": 0.023255813953483084,
          "durationTicks": 2,
          "midi": 59,
          "name": "B3",
          "ticks": 6617,
          "time": 76.94186046511628,
          "velocity": 0.2755905511811024
        },
        {
          "duration": 0.04651162790698038,
          "durationTicks": 4,
          "midi": 89,
          "name": "F6",
          "ticks": 6617,
          "time": 76.94186046511628,
          "velocity": 0.11023622047244094
        },
        {
          "duration": 0.04651162790698038,
          "durationTicks": 4,
          "midi": 41,
          "name": "F2",
          "ticks": 6618,
          "time": 76.95348837209302,
          "velocity": 0.3543307086614173
        },
        {
          "duration": 0.023255813953497295,
          "durationTicks": 2,
          "midi": 51,
          "name": "D#3",
          "ticks": 6619,
          "time": 76.96511627906976,
          "velocity": 0.33070866141732286
        },
        {
          "duration": 0.13953488372094114,
          "durationTicks": 12,
          "midi": 58,
          "name": "A#3",
          "ticks": 6619,
          "time": 76.96511627906976,
          "velocity": 0.3937007874015748
        },
        {
          "duration": 0.023255813953483084,
          "durationTicks": 2,
          "midi": 53,
          "name": "F3",
          "ticks": 6622,
          "time": 77,
          "velocity": 0.3858267716535433
        },
        {
          "duration": 0.06976744186046346,
          "durationTicks": 6,
          "midi": 102,
          "name": "F#7",
          "ticks": 6624,
          "time": 77.02325581395348,
          "velocity": 0.07086614173228346
        },
        {
          "duration": 0.05813953488370771,
          "durationTicks": 5,
          "midi": 53,
          "name": "F3",
          "ticks": 6625,
          "time": 77.03488372093024,
          "velocity": 0.3464566929133858
        },
        {
          "duration": 0.023255813953483084,
          "durationTicks": 2,
          "midi": 41,
          "name": "F2",
          "ticks": 6626,
          "time": 77.04651162790698,
          "velocity": 0.2992125984251969
        },
        {
          "duration": 0.023255813953497295,
          "durationTicks": 2,
          "midi": 42,
          "name": "F#2",
          "ticks": 6630,
          "time": 77.09302325581395,
          "velocity": 0.33858267716535434
        },
        {
          "duration": 0.023255813953483084,
          "durationTicks": 2,
          "midi": 53,
          "name": "F3",
          "ticks": 6631,
          "time": 77.1046511627907,
          "velocity": 0.31496062992125984
        },
        {
          "duration": 0.023255813953483084,
          "durationTicks": 2,
          "midi": 59,
          "name": "B3",
          "ticks": 6631,
          "time": 77.1046511627907,
          "velocity": 0.2755905511811024
        },
        {
          "duration": 0.09302325581394655,
          "durationTicks": 8,
          "midi": 88,
          "name": "E6",
          "ticks": 6632,
          "time": 77.11627906976744,
          "velocity": 0.10236220472440945
        },
        {
          "duration": 0.023255813953483084,
          "durationTicks": 2,
          "midi": 46,
          "name": "A#2",
          "ticks": 6633,
          "time": 77.12790697674419,
          "velocity": 0.3228346456692913
        },
        {
          "duration": 0.1046511627907023,
          "durationTicks": 9,
          "midi": 53,
          "name": "F3",
          "ticks": 6635,
          "time": 77.15116279069767,
          "velocity": 0.2992125984251969
        },
        {
          "duration": 0.1046511627907023,
          "durationTicks": 9,
          "midi": 81,
          "name": "A5",
          "ticks": 6635,
          "time": 77.15116279069767,
          "velocity": 0.07874015748031496
        },
        {
          "duration": 0.023255813953483084,
          "durationTicks": 2,
          "midi": 46,
          "name": "A#2",
          "ticks": 6642,
          "time": 77.23255813953489,
          "velocity": 0.30708661417322836
        },
        {
          "duration": 0.05813953488372192,
          "durationTicks": 5,
          "midi": 66,
          "name": "F#4",
          "ticks": 6643,
          "time": 77.24418604651163,
          "velocity": 0.14173228346456693
        },
        {
          "duration": 0.03488372093023884,
          "durationTicks": 3,
          "midi": 47,
          "name": "B2",
          "ticks": 6644,
          "time": 77.25581395348837,
          "velocity": 0.3228346456692913
        },
        {
          "duration": 0.03488372093023884,
          "durationTicks": 3,
          "midi": 54,
          "name": "F#3",
          "ticks": 6644,
          "time": 77.25581395348837,
          "velocity": 0.3700787401574803
        },
        {
          "duration": 0.081395348837205,
          "durationTicks": 7,
          "midi": 48,
          "name": "C3",
          "ticks": 6647,
          "time": 77.29069767441861,
          "velocity": 0.3464566929133858
        },
        {
          "duration": 0.05813953488372192,
          "durationTicks": 5,
          "midi": 55,
          "name": "G3",
          "ticks": 6647,
          "time": 77.29069767441861,
          "velocity": 0.3858267716535433
        },
        {
          "duration": 0.034883720930224626,
          "durationTicks": 3,
          "midi": 62,
          "name": "D4",
          "ticks": 6647,
          "time": 77.29069767441861,
          "velocity": 0.11023622047244094
        },
        {
          "duration": 0.46511627906976116,
          "durationTicks": 40,
          "midi": 67,
          "name": "G4",
          "ticks": 6653,
          "time": 77.36046511627907,
          "velocity": 0.2047244094488189
        },
        {
          "duration": 0.034883720930224626,
          "durationTicks": 3,
          "midi": 82,
          "name": "A#5",
          "ticks": 6653,
          "time": 77.36046511627907,
          "velocity": 0.07086614173228346
        },
        {
          "duration": 0.30232558139535115,
          "durationTicks": 26,
          "midi": 84,
          "name": "C6",
          "ticks": 6653,
          "time": 77.36046511627907,
          "velocity": 0.4330708661417323
        },
        {
          "duration": 0.023255813953483084,
          "durationTicks": 2,
          "midi": 44,
          "name": "G#2",
          "ticks": 6654,
          "time": 77.37209302325581,
          "velocity": 0.2992125984251969
        },
        {
          "duration": 0.023255813953483084,
          "durationTicks": 2,
          "midi": 59,
          "name": "B3",
          "ticks": 6654,
          "time": 77.37209302325581,
          "velocity": 0.2755905511811024
        },
        {
          "duration": 0.023255813953483084,
          "durationTicks": 2,
          "midi": 73,
          "name": "C#5",
          "ticks": 6654,
          "time": 77.37209302325581,
          "velocity": 0.2283464566929134
        },
        {
          "duration": 0.27906976744185386,
          "durationTicks": 24,
          "midi": 74,
          "name": "D5",
          "ticks": 6654,
          "time": 77.37209302325581,
          "velocity": 0.25984251968503935
        },
        {
          "duration": 0.48837209302325846,
          "durationTicks": 42,
          "midi": 76,
          "name": "E5",
          "ticks": 6654,
          "time": 77.37209302325581,
          "velocity": 0.47244094488188976
        },
        {
          "duration": 0.06976744186046346,
          "durationTicks": 6,
          "midi": 91,
          "name": "G6",
          "ticks": 6655,
          "time": 77.38372093023256,
          "velocity": 0.11023622047244094
        },
        {
          "duration": 0.24418604651162923,
          "durationTicks": 21,
          "midi": 55,
          "name": "G3",
          "ticks": 6656,
          "time": 77.3953488372093,
          "velocity": 0.5118110236220472
        },
        {
          "duration": 0.25581395348837077,
          "durationTicks": 22,
          "midi": 60,
          "name": "C4",
          "ticks": 6656,
          "time": 77.3953488372093,
          "velocity": 0.3228346456692913
        },
        {
          "duration": 0.27906976744186807,
          "durationTicks": 24,
          "midi": 95,
          "name": "B6",
          "ticks": 6656,
          "time": 77.3953488372093,
          "velocity": 0.14173228346456693
        },
        {
          "duration": 0.023255813953483084,
          "durationTicks": 2,
          "midi": 43,
          "name": "G2",
          "ticks": 6658,
          "time": 77.4186046511628,
          "velocity": 0.31496062992125984
        },
        {
          "duration": 0.04651162790698038,
          "durationTicks": 4,
          "midi": 89,
          "name": "F6",
          "ticks": 6662,
          "time": 77.46511627906976,
          "velocity": 0.07086614173228346
        },
        {
          "duration": 0.03488372093023884,
          "durationTicks": 3,
          "midi": 43,
          "name": "G2",
          "ticks": 6666,
          "time": 77.51162790697674,
          "velocity": 0.33070866141732286
        },
        {
          "duration": 0.023255813953483084,
          "durationTicks": 2,
          "midi": 44,
          "name": "G#2",
          "ticks": 6675,
          "time": 77.61627906976744,
          "velocity": 0.33858267716535434
        },
        {
          "duration": 0.27906976744186807,
          "durationTicks": 24,
          "midi": 79,
          "name": "G5",
          "ticks": 6676,
          "time": 77.62790697674419,
          "velocity": 0.23622047244094488
        },
        {
          "duration": 0.08139534883721922,
          "durationTicks": 7,
          "midi": 83,
          "name": "B5",
          "ticks": 6677,
          "time": 77.63953488372093,
          "velocity": 0.10236220472440945
        },
        {
          "duration": 0.023255813953497295,
          "durationTicks": 2,
          "midi": 44,
          "name": "G#2",
          "ticks": 6678,
          "time": 77.65116279069767,
          "velocity": 0.3543307086614173
        },
        {
          "duration": 0.2093023255814046,
          "durationTicks": 18,
          "midi": 55,
          "name": "G3",
          "ticks": 6678,
          "time": 77.65116279069767,
          "velocity": 0.41732283464566927
        },
        {
          "duration": 0.03488372093023884,
          "durationTicks": 3,
          "midi": 86,
          "name": "D6",
          "ticks": 6678,
          "time": 77.65116279069767,
          "velocity": 0.07086614173228346
        },
        {
          "duration": 0.034883720930224626,
          "durationTicks": 3,
          "midi": 43,
          "name": "G2",
          "ticks": 6680,
          "time": 77.67441860465117,
          "velocity": 0.3464566929133858
        },
        {
          "duration": 0.023255813953483084,
          "durationTicks": 2,
          "midi": 43,
          "name": "G2",
          "ticks": 6685,
          "time": 77.73255813953489,
          "velocity": 0.3543307086614173
        },
        {
          "duration": 0.03488372093023884,
          "durationTicks": 3,
          "midi": 43,
          "name": "G2",
          "ticks": 6688,
          "time": 77.76744186046511,
          "velocity": 0.3543307086614173
        },
        {
          "duration": 0.023255813953497295,
          "durationTicks": 2,
          "midi": 43,
          "name": "G2",
          "ticks": 6693,
          "time": 77.82558139534883,
          "velocity": 0.3543307086614173
        },
        {
          "duration": 0.034883720930224626,
          "durationTicks": 3,
          "midi": 56,
          "name": "G#3",
          "ticks": 6696,
          "time": 77.86046511627907,
          "velocity": 0.31496062992125984
        },
        {
          "duration": 0.034883720930224626,
          "durationTicks": 3,
          "midi": 75,
          "name": "D#5",
          "ticks": 6696,
          "time": 77.86046511627907,
          "velocity": 0.2283464566929134
        },
        {
          "duration": 0.04651162790698038,
          "durationTicks": 4,
          "midi": 83,
          "name": "B5",
          "ticks": 6696,
          "time": 77.86046511627907,
          "velocity": 0.07874015748031496
        },
        {
          "duration": 0.05813953488372192,
          "durationTicks": 5,
          "midi": 86,
          "name": "D6",
          "ticks": 6696,
          "time": 77.86046511627907,
          "velocity": 0.2677165354330709
        },
        {
          "duration": 0.27906976744185386,
          "durationTicks": 24,
          "midi": 98,
          "name": "D7",
          "ticks": 6696,
          "time": 77.86046511627907,
          "velocity": 0.29133858267716534
        },
        {
          "duration": 0.2674418604651123,
          "durationTicks": 23,
          "midi": 102,
          "name": "F#7",
          "ticks": 6696,
          "time": 77.86046511627907,
          "velocity": 0.29133858267716534
        },
        {
          "duration": 0.023255813953483084,
          "durationTicks": 2,
          "midi": 42,
          "name": "F#2",
          "ticks": 6697,
          "time": 77.87209302325581,
          "velocity": 0.30708661417322836
        },
        {
          "duration": 0.03488372093023884,
          "durationTicks": 3,
          "midi": 66,
          "name": "F#4",
          "ticks": 6698,
          "time": 77.88372093023256,
          "velocity": 0.14960629921259844
        },
        {
          "duration": 0.03488372093023884,
          "durationTicks": 3,
          "midi": 72,
          "name": "C5",
          "ticks": 6698,
          "time": 77.88372093023256,
          "velocity": 0.15748031496062992
        },
        {
          "duration": 0.32558139534883423,
          "durationTicks": 28,
          "midi": 77,
          "name": "F5",
          "ticks": 6698,
          "time": 77.88372093023256,
          "velocity": 0.33070866141732286
        },
        {
          "duration": 0.24418604651162923,
          "durationTicks": 21,
          "midi": 74,
          "name": "D5",
          "ticks": 6699,
          "time": 77.8953488372093,
          "velocity": 0.2677165354330709
        },
        {
          "duration": 0.023255813953483084,
          "durationTicks": 2,
          "midi": 54,
          "name": "F#3",
          "ticks": 6700,
          "time": 77.90697674418605,
          "velocity": 0.4330708661417323
        },
        {
          "duration": 0.04651162790696617,
          "durationTicks": 4,
          "midi": 60,
          "name": "C4",
          "ticks": 6700,
          "time": 77.90697674418605,
          "velocity": 0.3464566929133858
        },
        {
          "duration": 0.3488372093023173,
          "durationTicks": 30,
          "midi": 55,
          "name": "G3",
          "ticks": 6702,
          "time": 77.93023255813954,
          "velocity": 0.49606299212598426
        },
        {
          "duration": 0.05813953488372192,
          "durationTicks": 5,
          "midi": 43,
          "name": "G2",
          "ticks": 6705,
          "time": 77.96511627906976,
          "velocity": 0.33070866141732286
        },
        {
          "duration": 0.12790697674418539,
          "durationTicks": 11,
          "midi": 93,
          "name": "A6",
          "ticks": 6706,
          "time": 77.97674418604652,
          "velocity": 0.13385826771653545
        },
        {
          "duration": 0.6627906976744242,
          "durationTicks": 57,
          "midi": 60,
          "name": "C4",
          "ticks": 6709,
          "time": 78.01162790697674,
          "velocity": 0.44881889763779526
        },
        {
          "duration": 0.023255813953497295,
          "durationTicks": 2,
          "midi": 48,
          "name": "C3",
          "ticks": 6710,
          "time": 78.02325581395348,
          "velocity": 0.28346456692913385
        },
        {
          "duration": 0.13953488372094114,
          "durationTicks": 12,
          "midi": 88,
          "name": "E6",
          "ticks": 6710,
          "time": 78.02325581395348,
          "velocity": 0.14960629921259844
        },
        {
          "duration": 0.03488372093023884,
          "durationTicks": 3,
          "midi": 43,
          "name": "G2",
          "ticks": 6716,
          "time": 78.09302325581395,
          "velocity": 0.31496062992125984
        },
        {
          "duration": 0.023255813953483084,
          "durationTicks": 2,
          "midi": 44,
          "name": "G#2",
          "ticks": 6723,
          "time": 78.17441860465117,
          "velocity": 0.4015748031496063
        },
        {
          "duration": 0.03488372093023884,
          "durationTicks": 3,
          "midi": 42,
          "name": "F#2",
          "ticks": 6725,
          "time": 78.19767441860465,
          "velocity": 0.31496062992125984
        },
        {
          "duration": 0.04651162790698038,
          "durationTicks": 4,
          "midi": 54,
          "name": "F#3",
          "ticks": 6732,
          "time": 78.27906976744185,
          "velocity": 0.4330708661417323
        },
        {
          "duration": 0.4418604651162923,
          "durationTicks": 38,
          "midi": 88,
          "name": "E6",
          "ticks": 6732,
          "time": 78.27906976744185,
          "velocity": 0.3543307086614173
        },
        {
          "duration": 0.11627906976744384,
          "durationTicks": 10,
          "midi": 67,
          "name": "G4",
          "ticks": 6733,
          "time": 78.29069767441861,
          "velocity": 0.1732283464566929
        },
        {
          "duration": 0.40697674418603924,
          "durationTicks": 35,
          "midi": 79,
          "name": "G5",
          "ticks": 6733,
          "time": 78.29069767441861,
          "velocity": 0.25196850393700787
        },
        {
          "duration": 0.38372093023255616,
          "durationTicks": 33,
          "midi": 83,
          "name": "B5",
          "ticks": 6733,
          "time": 78.29069767441861,
          "velocity": 0.16535433070866143
        },
        {
          "duration": 0.023255813953483084,
          "durationTicks": 2,
          "midi": 44,
          "name": "G#2",
          "ticks": 6734,
          "time": 78.30232558139535,
          "velocity": 0.2992125984251969
        },
        {
          "duration": 0.08139534883721922,
          "durationTicks": 7,
          "midi": 55,
          "name": "G3",
          "ticks": 6736,
          "time": 78.32558139534883,
          "velocity": 0.44881889763779526
        },
        {
          "duration": 0.34883720930233153,
          "durationTicks": 30,
          "midi": 76,
          "name": "E5",
          "ticks": 6742,
          "time": 78.3953488372093,
          "velocity": 0.48031496062992124
        },
        {
          "duration": 0.023255813953483084,
          "durationTicks": 2,
          "midi": 43,
          "name": "G2",
          "ticks": 6744,
          "time": 78.4186046511628,
          "velocity": 0.2992125984251969
        },
        {
          "duration": 0.25581395348837077,
          "durationTicks": 22,
          "midi": 91,
          "name": "G6",
          "ticks": 6745,
          "time": 78.43023255813954,
          "velocity": 0.30708661417322836
        },
        {
          "duration": 0.2906976744186096,
          "durationTicks": 25,
          "midi": 98,
          "name": "D7",
          "ticks": 6745,
          "time": 78.43023255813954,
          "velocity": 0.25984251968503935
        },
        {
          "duration": 0.04651162790698038,
          "durationTicks": 4,
          "midi": 48,
          "name": "C3",
          "ticks": 6747,
          "time": 78.45348837209302,
          "velocity": 0.2755905511811024
        },
        {
          "duration": 0.06976744186046346,
          "durationTicks": 6,
          "midi": 67,
          "name": "G4",
          "ticks": 6747,
          "time": 78.45348837209302,
          "velocity": 0.11023622047244094
        },
        {
          "duration": 0.05813953488372192,
          "durationTicks": 5,
          "midi": 55,
          "name": "G3",
          "ticks": 6748,
          "time": 78.46511627906976,
          "velocity": 0.1889763779527559
        },
        {
          "duration": 0.03488372093023884,
          "durationTicks": 3,
          "midi": 43,
          "name": "G2",
          "ticks": 6752,
          "time": 78.51162790697674,
          "velocity": 0.2992125984251969
        },
        {
          "duration": 0.03488372093023884,
          "durationTicks": 3,
          "midi": 54,
          "name": "F#3",
          "ticks": 6753,
          "time": 78.52325581395348,
          "velocity": 0.4094488188976378
        },
        {
          "duration": 0.023255813953483084,
          "durationTicks": 2,
          "midi": 44,
          "name": "G#2",
          "ticks": 6756,
          "time": 78.55813953488372,
          "velocity": 0.3228346456692913
        },
        {
          "duration": 0.11627906976744384,
          "durationTicks": 10,
          "midi": 55,
          "name": "G3",
          "ticks": 6756,
          "time": 78.55813953488372,
          "velocity": 0.49606299212598426
        },
        {
          "duration": 0.023255813953483084,
          "durationTicks": 2,
          "midi": 43,
          "name": "G2",
          "ticks": 6760,
          "time": 78.6046511627907,
          "velocity": 0.30708661417322836
        },
        {
          "duration": 0.03488372093023884,
          "durationTicks": 3,
          "midi": 44,
          "name": "G#2",
          "ticks": 6764,
          "time": 78.65116279069767,
          "velocity": 0.33858267716535434
        },
        {
          "duration": 0.023255813953483084,
          "durationTicks": 2,
          "midi": 54,
          "name": "F#3",
          "ticks": 6766,
          "time": 78.67441860465117,
          "velocity": 0.3858267716535433
        },
        {
          "duration": 0.09302325581394655,
          "durationTicks": 8,
          "midi": 60,
          "name": "C4",
          "ticks": 6767,
          "time": 78.68604651162791,
          "velocity": 0.25196850393700787
        },
        {
          "duration": 0.023255813953497295,
          "durationTicks": 2,
          "midi": 44,
          "name": "G#2",
          "ticks": 6768,
          "time": 78.69767441860465,
          "velocity": 0.31496062992125984
        },
        {
          "duration": 0.09302325581396076,
          "durationTicks": 8,
          "midi": 55,
          "name": "G3",
          "ticks": 6768,
          "time": 78.69767441860465,
          "velocity": 0.4409448818897638
        },
        {
          "duration": 0.023255813953483084,
          "durationTicks": 2,
          "midi": 42,
          "name": "F#2",
          "ticks": 6772,
          "time": 78.74418604651163,
          "velocity": 0.28346456692913385
        },
        {
          "duration": 0.023255813953497295,
          "durationTicks": 2,
          "midi": 43,
          "name": "G2",
          "ticks": 6774,
          "time": 78.76744186046511,
          "velocity": 0.2992125984251969
        },
        {
          "duration": 0.023255813953497295,
          "durationTicks": 2,
          "midi": 61,
          "name": "C#4",
          "ticks": 6775,
          "time": 78.77906976744185,
          "velocity": 0.3464566929133858
        },
        {
          "duration": 0.023255813953483084,
          "durationTicks": 2,
          "midi": 56,
          "name": "G#3",
          "ticks": 6776,
          "time": 78.79069767441861,
          "velocity": 0.4409448818897638
        },
        {
          "duration": 0.36046511627905886,
          "durationTicks": 31,
          "midi": 72,
          "name": "C5",
          "ticks": 6776,
          "time": 78.79069767441861,
          "velocity": 0.2992125984251969
        },
        {
          "duration": 0.16279069767441,
          "durationTicks": 14,
          "midi": 79,
          "name": "G5",
          "ticks": 6776,
          "time": 78.79069767441861,
          "velocity": 0.2047244094488189
        },
        {
          "duration": 0.4418604651162781,
          "durationTicks": 38,
          "midi": 88,
          "name": "E6",
          "ticks": 6776,
          "time": 78.79069767441861,
          "velocity": 0.25984251968503935
        },
        {
          "duration": 0.023255813953483084,
          "durationTicks": 2,
          "midi": 47,
          "name": "B2",
          "ticks": 6777,
          "time": 78.80232558139535,
          "velocity": 0.28346456692913385
        },
        {
          "duration": 0.24418604651162923,
          "durationTicks": 21,
          "midi": 60,
          "name": "C4",
          "ticks": 6777,
          "time": 78.80232558139535,
          "velocity": 0.4094488188976378
        },
        {
          "duration": 0.12790697674418539,
          "durationTicks": 11,
          "midi": 67,
          "name": "G4",
          "ticks": 6777,
          "time": 78.80232558139535,
          "velocity": 0.18110236220472442
        },
        {
          "duration": 0.11627906976744384,
          "durationTicks": 10,
          "midi": 55,
          "name": "G3",
          "ticks": 6778,
          "time": 78.81395348837209,
          "velocity": 0.5275590551181102
        },
        {
          "duration": 0.4767441860465169,
          "durationTicks": 41,
          "midi": 76,
          "name": "E5",
          "ticks": 6778,
          "time": 78.81395348837209,
          "velocity": 0.4409448818897638
        },
        {
          "duration": 0.05813953488372192,
          "durationTicks": 5,
          "midi": 86,
          "name": "D6",
          "ticks": 6778,
          "time": 78.81395348837209,
          "velocity": 0.09448818897637795
        },
        {
          "duration": 0.023255813953497295,
          "durationTicks": 2,
          "midi": 48,
          "name": "C3",
          "ticks": 6779,
          "time": 78.82558139534883,
          "velocity": 0.2283464566929134
        },
        {
          "duration": 0.034883720930224626,
          "durationTicks": 3,
          "midi": 48,
          "name": "C3",
          "ticks": 6782,
          "time": 78.86046511627907,
          "velocity": 0.2283464566929134
        },
        {
          "duration": 0.05813953488372192,
          "durationTicks": 5,
          "midi": 74,
          "name": "D5",
          "ticks": 6784,
          "time": 78.88372093023256,
          "velocity": 0.07874015748031496
        },
        {
          "duration": 0.36046511627905886,
          "durationTicks": 31,
          "midi": 84,
          "name": "C6",
          "ticks": 6787,
          "time": 78.9186046511628,
          "velocity": 0.49606299212598426
        },
        {
          "duration": 0.30232558139535115,
          "durationTicks": 26,
          "midi": 91,
          "name": "G6",
          "ticks": 6788,
          "time": 78.93023255813954,
          "velocity": 0.2283464566929134
        },
        {
          "duration": 0.3720930232558146,
          "durationTicks": 32,
          "midi": 55,
          "name": "G3",
          "ticks": 6789,
          "time": 78.94186046511628,
          "velocity": 0.49606299212598426
        },
        {
          "duration": 0.05813953488372192,
          "durationTicks": 5,
          "midi": 48,
          "name": "C3",
          "ticks": 6791,
          "time": 78.96511627906976,
          "velocity": 0.2992125984251969
        },
        {
          "duration": 0.255813953488385,
          "durationTicks": 22,
          "midi": 95,
          "name": "B6",
          "ticks": 6791,
          "time": 78.96511627906976,
          "velocity": 0.2047244094488189
        },
        {
          "duration": 0.09302325581396076,
          "durationTicks": 8,
          "midi": 79,
          "name": "G5",
          "ticks": 6795,
          "time": 79.01162790697674,
          "velocity": 0.08661417322834646
        },
        {
          "duration": 0.023255813953483084,
          "durationTicks": 2,
          "midi": 48,
          "name": "C3",
          "ticks": 6797,
          "time": 79.03488372093024,
          "velocity": 0.33858267716535434
        },
        {
          "duration": 0.023255813953483084,
          "durationTicks": 2,
          "midi": 60,
          "name": "C4",
          "ticks": 6799,
          "time": 79.05813953488372,
          "velocity": 0.2283464566929134
        },
        {
          "duration": 0.05813953488372192,
          "durationTicks": 5,
          "midi": 48,
          "name": "C3",
          "ticks": 6800,
          "time": 79.06976744186046,
          "velocity": 0.31496062992125984
        },
        {
          "duration": 0.023255813953497295,
          "durationTicks": 2,
          "midi": 42,
          "name": "F#2",
          "ticks": 6801,
          "time": 79.0813953488372,
          "velocity": 0.2440944881889764
        },
        {
          "duration": 0.034883720930224626,
          "durationTicks": 3,
          "midi": 43,
          "name": "G2",
          "ticks": 6804,
          "time": 79.11627906976744,
          "velocity": 0.33858267716535434
        },
        {
          "duration": 0.03488372093023884,
          "durationTicks": 3,
          "midi": 74,
          "name": "D5",
          "ticks": 6810,
          "time": 79.18604651162791,
          "velocity": 0.15748031496062992
        },
        {
          "duration": 0.05813953488372192,
          "durationTicks": 5,
          "midi": 83,
          "name": "B5",
          "ticks": 6810,
          "time": 79.18604651162791,
          "velocity": 0.11811023622047244
        },
        {
          "duration": 0.023255813953497295,
          "durationTicks": 2,
          "midi": 49,
          "name": "C#3",
          "ticks": 6811,
          "time": 79.19767441860465,
          "velocity": 0.2677165354330709
        },
        {
          "duration": 0.1046511627907023,
          "durationTicks": 9,
          "midi": 79,
          "name": "G5",
          "ticks": 6812,
          "time": 79.20930232558139,
          "velocity": 0.11811023622047244
        },
        {
          "duration": 0.10465116279068809,
          "durationTicks": 9,
          "midi": 74,
          "name": "D5",
          "ticks": 6814,
          "time": 79.23255813953489,
          "velocity": 0.16535433070866143
        },
        {
          "duration": 0.09302325581396076,
          "durationTicks": 8,
          "midi": 71,
          "name": "B4",
          "ticks": 6816,
          "time": 79.25581395348837,
          "velocity": 0.2204724409448819
        },
        {
          "duration": 0.03488372093023884,
          "durationTicks": 3,
          "midi": 43,
          "name": "G2",
          "ticks": 6817,
          "time": 79.26744186046511,
          "velocity": 0.28346456692913385
        },
        {
          "duration": 0.04651162790698038,
          "durationTicks": 4,
          "midi": 61,
          "name": "C#4",
          "ticks": 6820,
          "time": 79.30232558139535,
          "velocity": 0.14960629921259844
        },
        {
          "duration": 0.023255813953483084,
          "durationTicks": 2,
          "midi": 44,
          "name": "G#2",
          "ticks": 6821,
          "time": 79.31395348837209,
          "velocity": 0.2992125984251969
        },
        {
          "duration": 0.03488372093023884,
          "durationTicks": 3,
          "midi": 50,
          "name": "D3",
          "ticks": 6823,
          "time": 79.33720930232558,
          "velocity": 0.29133858267716534
        },
        {
          "duration": 0.023255813953497295,
          "durationTicks": 2,
          "midi": 56,
          "name": "G#3",
          "ticks": 6823,
          "time": 79.33720930232558,
          "velocity": 0.23622047244094488
        },
        {
          "duration": 0.034883720930224626,
          "durationTicks": 3,
          "midi": 57,
          "name": "A3",
          "ticks": 6825,
          "time": 79.36046511627907,
          "velocity": 0.2125984251968504
        },
        {
          "duration": 0.03488372093023884,
          "durationTicks": 3,
          "midi": 50,
          "name": "D3",
          "ticks": 6827,
          "time": 79.38372093023256,
          "velocity": 0.30708661417322836
        },
        {
          "duration": 0.023255813953483084,
          "durationTicks": 2,
          "midi": 55,
          "name": "G3",
          "ticks": 6829,
          "time": 79.40697674418605,
          "velocity": 0.2440944881889764
        },
        {
          "duration": 0.023255813953483084,
          "durationTicks": 2,
          "midi": 61,
          "name": "C#4",
          "ticks": 6830,
          "time": 79.4186046511628,
          "velocity": 0.2440944881889764
        },
        {
          "duration": 0.023255813953483084,
          "durationTicks": 2,
          "midi": 50,
          "name": "D3",
          "ticks": 6831,
          "time": 79.43023255813954,
          "velocity": 0.3779527559055118
        },
        {
          "duration": 0.2674418604651123,
          "durationTicks": 23,
          "midi": 76,
          "name": "E5",
          "ticks": 6831,
          "time": 79.43023255813954,
          "velocity": 0.30708661417322836
        },
        {
          "duration": 0.7906976744186096,
          "durationTicks": 68,
          "midi": 69,
          "name": "A4",
          "ticks": 6832,
          "time": 79.44186046511628,
          "velocity": 0.41732283464566927
        },
        {
          "duration": 0.023255813953497295,
          "durationTicks": 2,
          "midi": 44,
          "name": "G#2",
          "ticks": 6833,
          "time": 79.45348837209302,
          "velocity": 0.25196850393700787
        },
        {
          "duration": 0.04651162790698038,
          "durationTicks": 4,
          "midi": 57,
          "name": "A3",
          "ticks": 6833,
          "time": 79.45348837209302,
          "velocity": 0.47244094488188976
        },
        {
          "duration": 0.25581395348837077,
          "durationTicks": 22,
          "midi": 62,
          "name": "D4",
          "ticks": 6833,
          "time": 79.45348837209302,
          "velocity": 0.36220472440944884
        },
        {
          "duration": 0.3139534883720927,
          "durationTicks": 27,
          "midi": 97,
          "name": "C#7",
          "ticks": 6833,
          "time": 79.45348837209302,
          "velocity": 0.2283464566929134
        },
        {
          "duration": 0.7325581395348735,
          "durationTicks": 63,
          "midi": 86,
          "name": "D6",
          "ticks": 6835,
          "time": 79.47674418604652,
          "velocity": 0.36220472440944884
        },
        {
          "duration": 0.05813953488372192,
          "durationTicks": 5,
          "midi": 50,
          "name": "D3",
          "ticks": 6836,
          "time": 79.48837209302326,
          "velocity": 0.33858267716535434
        },
        {
          "duration": 0.6162790697674438,
          "durationTicks": 53,
          "midi": 93,
          "name": "A6",
          "ticks": 6836,
          "time": 79.48837209302326,
          "velocity": 0.2992125984251969
        },
        {
          "duration": 0.03488372093023884,
          "durationTicks": 3,
          "midi": 44,
          "name": "G#2",
          "ticks": 6838,
          "time": 79.51162790697674,
          "velocity": 0.29133858267716534
        },
        {
          "duration": 0.19767441860464885,
          "durationTicks": 17,
          "midi": 57,
          "name": "A3",
          "ticks": 6838,
          "time": 79.51162790697674,
          "velocity": 0.3543307086614173
        },
        {
          "duration": 0.023255813953483084,
          "durationTicks": 2,
          "midi": 45,
          "name": "A2",
          "ticks": 6841,
          "time": 79.54651162790698,
          "velocity": 0.30708661417322836
        },
        {
          "duration": 0.023255813953483084,
          "durationTicks": 2,
          "midi": 45,
          "name": "A2",
          "ticks": 6846,
          "time": 79.6046511627907,
          "velocity": 0.2755905511811024
        },
        {
          "duration": 0.023255813953483084,
          "durationTicks": 2,
          "midi": 50,
          "name": "D3",
          "ticks": 6846,
          "time": 79.6046511627907,
          "velocity": 0.29133858267716534
        },
        {
          "duration": 0.27906976744185386,
          "durationTicks": 24,
          "midi": 50,
          "name": "D3",
          "ticks": 6851,
          "time": 79.66279069767442,
          "velocity": 0.3543307086614173
        },
        {
          "duration": 0.023255813953483084,
          "durationTicks": 2,
          "midi": 45,
          "name": "A2",
          "ticks": 6853,
          "time": 79.68604651162791,
          "velocity": 0.25196850393700787
        },
        {
          "duration": 0.16279069767442422,
          "durationTicks": 14,
          "midi": 78,
          "name": "F#5",
          "ticks": 6854,
          "time": 79.69767441860465,
          "velocity": 0.15748031496062992
        },
        {
          "duration": 0.023255813953497295,
          "durationTicks": 2,
          "midi": 56,
          "name": "G#3",
          "ticks": 6855,
          "time": 79.70930232558139,
          "velocity": 0.28346456692913385
        },
        {
          "duration": 0.12790697674418539,
          "durationTicks": 11,
          "midi": 76,
          "name": "E5",
          "ticks": 6855,
          "time": 79.70930232558139,
          "velocity": 0.1968503937007874
        },
        {
          "duration": 0.2093023255813904,
          "durationTicks": 18,
          "midi": 57,
          "name": "A3",
          "ticks": 6857,
          "time": 79.73255813953489,
          "velocity": 0.29133858267716534
        },
        {
          "duration": 0.04651162790698038,
          "durationTicks": 4,
          "midi": 97,
          "name": "C#7",
          "ticks": 6865,
          "time": 79.82558139534883,
          "velocity": 0.07874015748031496
        },
        {
          "duration": 0.03488372093023884,
          "durationTicks": 3,
          "midi": 56,
          "name": "G#3",
          "ticks": 6877,
          "time": 79.96511627906976,
          "velocity": 0.3464566929133858
        },
        {
          "duration": 0.03488372093023884,
          "durationTicks": 3,
          "midi": 61,
          "name": "C#4",
          "ticks": 6877,
          "time": 79.96511627906976,
          "velocity": 0.25984251968503935
        },
        {
          "duration": 0.09302325581394655,
          "durationTicks": 8,
          "midi": 42,
          "name": "F#2",
          "ticks": 6878,
          "time": 79.97674418604652,
          "velocity": 0.3228346456692913
        },
        {
          "duration": 0.05813953488372192,
          "durationTicks": 5,
          "midi": 57,
          "name": "A3",
          "ticks": 6880,
          "time": 80,
          "velocity": 0.23622047244094488
        },
        {
          "duration": 0.023255813953483084,
          "durationTicks": 2,
          "midi": 64,
          "name": "E4",
          "ticks": 6885,
          "time": 80.05813953488372,
          "velocity": 0.25196850393700787
        },
        {
          "duration": 0.22093023255814614,
          "durationTicks": 19,
          "midi": 74,
          "name": "D5",
          "ticks": 6886,
          "time": 80.06976744186046,
          "velocity": 0.3228346456692913
        },
        {
          "duration": 0.11627906976744384,
          "durationTicks": 10,
          "midi": 88,
          "name": "E6",
          "ticks": 6887,
          "time": 80.0813953488372,
          "velocity": 0.14960629921259844
        },
        {
          "duration": 0.023255813953497295,
          "durationTicks": 2,
          "midi": 48,
          "name": "C3",
          "ticks": 6888,
          "time": 80.09302325581395,
          "velocity": 0.2755905511811024
        },
        {
          "duration": 0.1279069767441996,
          "durationTicks": 11,
          "midi": 57,
          "name": "A3",
          "ticks": 6888,
          "time": 80.09302325581395,
          "velocity": 0.3858267716535433
        },
        {
          "duration": 0.13953488372094114,
          "durationTicks": 12,
          "midi": 62,
          "name": "D4",
          "ticks": 6888,
          "time": 80.09302325581395,
          "velocity": 0.4330708661417323
        },
        {
          "duration": 0.04651162790698038,
          "durationTicks": 4,
          "midi": 50,
          "name": "D3",
          "ticks": 6892,
          "time": 80.13953488372093,
          "velocity": 0.23622047244094488
        },
        {
          "duration": 0.023255813953483084,
          "durationTicks": 2,
          "midi": 44,
          "name": "G#2",
          "ticks": 6899,
          "time": 80.22093023255815,
          "velocity": 0.3543307086614173
        },
        {
          "duration": 0.023255813953483084,
          "durationTicks": 2,
          "midi": 58,
          "name": "A#3",
          "ticks": 6899,
          "time": 80.22093023255815,
          "velocity": 0.3543307086614173
        },
        {
          "duration": 0.034883720930224626,
          "durationTicks": 3,
          "midi": 57,
          "name": "A3",
          "ticks": 6901,
          "time": 80.24418604651163,
          "velocity": 0.41732283464566927
        },
        {
          "duration": 0.03488372093023884,
          "durationTicks": 3,
          "midi": 43,
          "name": "G2",
          "ticks": 6902,
          "time": 80.25581395348837,
          "velocity": 0.2125984251968504
        },
        {
          "duration": 0.05813953488372192,
          "durationTicks": 5,
          "midi": 62,
          "name": "D4",
          "ticks": 6904,
          "time": 80.27906976744185,
          "velocity": 0.12598425196850394
        },
        {
          "duration": 0.05813953488372192,
          "durationTicks": 5,
          "midi": 57,
          "name": "A3",
          "ticks": 6905,
          "time": 80.29069767441861,
          "velocity": 0.2440944881889764
        },
        {
          "duration": 0.023255813953497295,
          "durationTicks": 2,
          "midi": 61,
          "name": "C#4",
          "ticks": 6909,
          "time": 80.33720930232558,
          "velocity": 0.30708661417322836
        },
        {
          "duration": 0.023255813953483084,
          "durationTicks": 2,
          "midi": 55,
          "name": "G3",
          "ticks": 6910,
          "time": 80.34883720930233,
          "velocity": 0.4094488188976378
        },
        {
          "duration": 0.25581395348837077,
          "durationTicks": 22,
          "midi": 74,
          "name": "D5",
          "ticks": 6910,
          "time": 80.34883720930233,
          "velocity": 0.31496062992125984
        },
        {
          "duration": 0.25581395348837077,
          "durationTicks": 22,
          "midi": 62,
          "name": "D4",
          "ticks": 6911,
          "time": 80.36046511627907,
          "velocity": 0.4015748031496063
        },
        {
          "duration": 0.23255813953487348,
          "durationTicks": 20,
          "midi": 69,
          "name": "A4",
          "ticks": 6911,
          "time": 80.36046511627907,
          "velocity": 0.3858267716535433
        },
        {
          "duration": 0.023255813953483084,
          "durationTicks": 2,
          "midi": 46,
          "name": "A#2",
          "ticks": 6912,
          "time": 80.37209302325581,
          "velocity": 0.2440944881889764
        },
        {
          "duration": 0.023255813953483084,
          "durationTicks": 2,
          "midi": 56,
          "name": "G#3",
          "ticks": 6912,
          "time": 80.37209302325581,
          "velocity": 0.41732283464566927
        },
        {
          "duration": 0.04651162790698038,
          "durationTicks": 4,
          "midi": 50,
          "name": "D3",
          "ticks": 6913,
          "time": 80.38372093023256,
          "velocity": 0.28346456692913385
        },
        {
          "duration": 0.05813953488372192,
          "durationTicks": 5,
          "midi": 88,
          "name": "E6",
          "ticks": 6913,
          "time": 80.38372093023256,
          "velocity": 0.09448818897637795
        },
        {
          "duration": 0.06976744186046346,
          "durationTicks": 6,
          "midi": 57,
          "name": "A3",
          "ticks": 6914,
          "time": 80.3953488372093,
          "velocity": 0.33858267716535434
        },
        {
          "duration": 0.1046511627907023,
          "durationTicks": 9,
          "midi": 88,
          "name": "E6",
          "ticks": 6920,
          "time": 80.46511627906976,
          "velocity": 0.3464566929133858
        },
        {
          "duration": 0.034883720930224626,
          "durationTicks": 3,
          "midi": 57,
          "name": "A3",
          "ticks": 6921,
          "time": 80.47674418604652,
          "velocity": 0.3779527559055118
        },
        {
          "duration": 0.081395348837205,
          "durationTicks": 7,
          "midi": 93,
          "name": "A6",
          "ticks": 6921,
          "time": 80.47674418604652,
          "velocity": 0.2204724409448819
        },
        {
          "duration": 0.09302325581394655,
          "durationTicks": 8,
          "midi": 97,
          "name": "C#7",
          "ticks": 6921,
          "time": 80.47674418604652,
          "velocity": 0.15748031496062992
        },
        {
          "duration": 0.09302325581394655,
          "durationTicks": 8,
          "midi": 103,
          "name": "G7",
          "ticks": 6921,
          "time": 80.47674418604652,
          "velocity": 0.16535433070866143
        },
        {
          "duration": 0.06976744186046346,
          "durationTicks": 6,
          "midi": 50,
          "name": "D3",
          "ticks": 6923,
          "time": 80.5,
          "velocity": 0.2677165354330709
        },
        {
          "duration": 0.1046511627907023,
          "durationTicks": 9,
          "midi": 57,
          "name": "A3",
          "ticks": 6925,
          "time": 80.52325581395348,
          "velocity": 0.4330708661417323
        },
        {
          "duration": 0.03488372093023884,
          "durationTicks": 3,
          "midi": 44,
          "name": "G#2",
          "ticks": 6930,
          "time": 80.5813953488372,
          "velocity": 0.3228346456692913
        },
        {
          "duration": 0.11627906976744384,
          "durationTicks": 10,
          "midi": 68,
          "name": "G#4",
          "ticks": 6931,
          "time": 80.59302325581395,
          "velocity": 0.3937007874015748
        },
        {
          "duration": 0.09302325581396076,
          "durationTicks": 8,
          "midi": 99,
          "name": "D#7",
          "ticks": 6931,
          "time": 80.59302325581395,
          "velocity": 0.15748031496062992
        },
        {
          "duration": 0.023255813953483084,
          "durationTicks": 2,
          "midi": 45,
          "name": "A2",
          "ticks": 6933,
          "time": 80.61627906976744,
          "velocity": 0.36220472440944884
        },
        {
          "duration": 0.06976744186046346,
          "durationTicks": 6,
          "midi": 87,
          "name": "D#6",
          "ticks": 6933,
          "time": 80.61627906976744,
          "velocity": 0.13385826771653545
        },
        {
          "duration": 0.17441860465116577,
          "durationTicks": 15,
          "midi": 74,
          "name": "D5",
          "ticks": 6934,
          "time": 80.62790697674419,
          "velocity": 0.2125984251968504
        },
        {
          "duration": 0.11627906976744384,
          "durationTicks": 10,
          "midi": 57,
          "name": "A3",
          "ticks": 6935,
          "time": 80.63953488372093,
          "velocity": 0.44881889763779526
        },
        {
          "duration": 0.1046511627907023,
          "durationTicks": 9,
          "midi": 62,
          "name": "D4",
          "ticks": 6935,
          "time": 80.63953488372093,
          "velocity": 0.25984251968503935
        },
        {
          "duration": 0.1046511627907023,
          "durationTicks": 9,
          "midi": 50,
          "name": "D3",
          "ticks": 6936,
          "time": 80.65116279069767,
          "velocity": 0.3779527559055118
        },
        {
          "duration": 0.1046511627907023,
          "durationTicks": 9,
          "midi": 81,
          "name": "A5",
          "ticks": 6936,
          "time": 80.65116279069767,
          "velocity": 0.12598425196850394
        },
        {
          "duration": 0.034883720930224626,
          "durationTicks": 3,
          "midi": 96,
          "name": "C7",
          "ticks": 6937,
          "time": 80.66279069767442,
          "velocity": 0.10236220472440945
        },
        {
          "duration": 0.13953488372092693,
          "durationTicks": 12,
          "midi": 86,
          "name": "D6",
          "ticks": 6939,
          "time": 80.68604651162791,
          "velocity": 0.33858267716535434
        },
        {
          "duration": 0.09302325581394655,
          "durationTicks": 8,
          "midi": 67,
          "name": "G4",
          "ticks": 6943,
          "time": 80.73255813953489,
          "velocity": 0.3937007874015748
        },
        {
          "duration": 0.04651162790698038,
          "durationTicks": 4,
          "midi": 61,
          "name": "C#4",
          "ticks": 6944,
          "time": 80.74418604651163,
          "velocity": 0.2992125984251969
        },
        {
          "duration": 0.081395348837205,
          "durationTicks": 7,
          "midi": 57,
          "name": "A3",
          "ticks": 6948,
          "time": 80.79069767441861,
          "velocity": 0.3228346456692913
        },
        {
          "duration": 0.3488372093023173,
          "durationTicks": 30,
          "midi": 62,
          "name": "D4",
          "ticks": 6948,
          "time": 80.79069767441861,
          "velocity": 0.4094488188976378
        },
        {
          "duration": 0.03488372093023884,
          "durationTicks": 3,
          "midi": 43,
          "name": "G2",
          "ticks": 6950,
          "time": 80.81395348837209,
          "velocity": 0.1889763779527559
        },
        {
          "duration": 0.17441860465116577,
          "durationTicks": 15,
          "midi": 66,
          "name": "F#4",
          "ticks": 6951,
          "time": 80.82558139534883,
          "velocity": 0.36220472440944884
        },
        {
          "duration": 0.023255813953483084,
          "durationTicks": 2,
          "midi": 45,
          "name": "A2",
          "ticks": 6955,
          "time": 80.87209302325581,
          "velocity": 0.25196850393700787
        },
        {
          "duration": 0.023255813953483084,
          "durationTicks": 2,
          "midi": 56,
          "name": "G#3",
          "ticks": 6955,
          "time": 80.87209302325581,
          "velocity": 0.3858267716535433
        },
        {
          "duration": 0.03488372093023884,
          "durationTicks": 3,
          "midi": 102,
          "name": "F#7",
          "ticks": 6955,
          "time": 80.87209302325581,
          "velocity": 0.10236220472440945
        },
        {
          "duration": 0.38372093023255616,
          "durationTicks": 33,
          "midi": 69,
          "name": "A4",
          "ticks": 6956,
          "time": 80.88372093023256,
          "velocity": 0.23622047244094488
        },
        {
          "duration": 0.12790697674418539,
          "durationTicks": 11,
          "midi": 88,
          "name": "E6",
          "ticks": 6957,
          "time": 80.8953488372093,
          "velocity": 0.14173228346456693
        },
        {
          "duration": 0.034883720930224626,
          "durationTicks": 3,
          "midi": 50,
          "name": "D3",
          "ticks": 6959,
          "time": 80.9186046511628,
          "velocity": 0.2992125984251969
        },
        {
          "duration": 0.06976744186046346,
          "durationTicks": 6,
          "midi": 57,
          "name": "A3",
          "ticks": 6959,
          "time": 80.9186046511628,
          "velocity": 0.25196850393700787
        },
        {
          "duration": 0.17441860465116577,
          "durationTicks": 15,
          "midi": 50,
          "name": "D3",
          "ticks": 6963,
          "time": 80.96511627906976,
          "velocity": 0.3543307086614173
        },
        {
          "duration": 0.034883720930224626,
          "durationTicks": 3,
          "midi": 45,
          "name": "A2",
          "ticks": 6965,
          "time": 80.98837209302326,
          "velocity": 0.2992125984251969
        },
        {
          "duration": 0.12790697674418539,
          "durationTicks": 11,
          "midi": 77,
          "name": "F5",
          "ticks": 6966,
          "time": 81,
          "velocity": 0.33858267716535434
        },
        {
          "duration": 0.1046511627907023,
          "durationTicks": 9,
          "midi": 84,
          "name": "C6",
          "ticks": 6966,
          "time": 81,
          "velocity": 0.4094488188976378
        },
        {
          "duration": 0.081395348837205,
          "durationTicks": 7,
          "midi": 65,
          "name": "F4",
          "ticks": 6967,
          "time": 81.01162790697674,
          "velocity": 0.3858267716535433
        },
        {
          "duration": 0.1046511627907023,
          "durationTicks": 9,
          "midi": 57,
          "name": "A3",
          "ticks": 6968,
          "time": 81.02325581395348,
          "velocity": 0.3228346456692913
        },
        {
          "duration": 0.12790697674418539,
          "durationTicks": 11,
          "midi": 76,
          "name": "E5",
          "ticks": 6976,
          "time": 81.11627906976744,
          "velocity": 0.41732283464566927
        },
        {
          "duration": 0.06976744186046346,
          "durationTicks": 6,
          "midi": 64,
          "name": "E4",
          "ticks": 6978,
          "time": 81.13953488372093,
          "velocity": 0.41732283464566927
        },
        {
          "duration": 0.16279069767442422,
          "durationTicks": 14,
          "midi": 74,
          "name": "D5",
          "ticks": 6978,
          "time": 81.13953488372093,
          "velocity": 0.31496062992125984
        },
        {
          "duration": 0.03488372093023884,
          "durationTicks": 3,
          "midi": 83,
          "name": "B5",
          "ticks": 6978,
          "time": 81.13953488372093,
          "velocity": 0.08661417322834646
        },
        {
          "duration": 0.08139534883721922,
          "durationTicks": 7,
          "midi": 95,
          "name": "B6",
          "ticks": 6978,
          "time": 81.13953488372093,
          "velocity": 0.1889763779527559
        },
        {
          "duration": 0.03488372093023884,
          "durationTicks": 3,
          "midi": 98,
          "name": "D7",
          "ticks": 6978,
          "time": 81.13953488372093,
          "velocity": 0.07874015748031496
        },
        {
          "duration": 0.023255813953497295,
          "durationTicks": 2,
          "midi": 51,
          "name": "D#3",
          "ticks": 6979,
          "time": 81.15116279069767,
          "velocity": 0.23622047244094488
        },
        {
          "duration": 0.10465116279068809,
          "durationTicks": 9,
          "midi": 57,
          "name": "A3",
          "ticks": 6980,
          "time": 81.16279069767442,
          "velocity": 0.4409448818897638
        },
        {
          "duration": 0.081395348837205,
          "durationTicks": 7,
          "midi": 50,
          "name": "D3",
          "ticks": 6981,
          "time": 81.17441860465117,
          "velocity": 0.2755905511811024
        },
        {
          "duration": 0.023255813953497295,
          "durationTicks": 2,
          "midi": 62,
          "name": "D4",
          "ticks": 6983,
          "time": 81.19767441860465,
          "velocity": 0.4015748031496063
        },
        {
          "duration": 0.04651162790696617,
          "durationTicks": 4,
          "midi": 62,
          "name": "D4",
          "ticks": 6986,
          "time": 81.23255813953489,
          "velocity": 0.4015748031496063
        },
        {
          "duration": 0.023255813953483084,
          "durationTicks": 2,
          "midi": 51,
          "name": "D#3",
          "ticks": 6988,
          "time": 81.25581395348837,
          "velocity": 0.33070866141732286
        },
        {
          "duration": 0.11627906976744384,
          "durationTicks": 10,
          "midi": 63,
          "name": "D#4",
          "ticks": 6990,
          "time": 81.27906976744185,
          "velocity": 0.44881889763779526
        },
        {
          "duration": 0.03488372093023884,
          "durationTicks": 3,
          "midi": 71,
          "name": "B4",
          "ticks": 6990,
          "time": 81.27906976744185,
          "velocity": 0.14960629921259844
        },
        {
          "duration": 0.06976744186047767,
          "durationTicks": 6,
          "midi": 78,
          "name": "F#5",
          "ticks": 6990,
          "time": 81.27906976744185,
          "velocity": 0.13385826771653545
        },
        {
          "duration": 0.09302325581396076,
          "durationTicks": 8,
          "midi": 88,
          "name": "E6",
          "ticks": 6990,
          "time": 81.27906976744185,
          "velocity": 0.18110236220472442
        },
        {
          "duration": 0.08139534883721922,
          "durationTicks": 7,
          "midi": 97,
          "name": "C#7",
          "ticks": 6990,
          "time": 81.27906976744185,
          "velocity": 0.2047244094488189
        },
        {
          "duration": 0.023255813953483084,
          "durationTicks": 2,
          "midi": 54,
          "name": "F#3",
          "ticks": 6991,
          "time": 81.29069767441861,
          "velocity": 0.23622047244094488
        },
        {
          "duration": 0.15116279069766847,
          "durationTicks": 13,
          "midi": 81,
          "name": "A5",
          "ticks": 6991,
          "time": 81.29069767441861,
          "velocity": 0.2440944881889764
        },
        {
          "duration": 0.06976744186046346,
          "durationTicks": 6,
          "midi": 99,
          "name": "D#7",
          "ticks": 6991,
          "time": 81.29069767441861,
          "velocity": 0.14173228346456693
        },
        {
          "duration": 0.06976744186046346,
          "durationTicks": 6,
          "midi": 50,
          "name": "D3",
          "ticks": 6992,
          "time": 81.30232558139535,
          "velocity": 0.36220472440944884
        },
        {
          "duration": 0.03488372093023884,
          "durationTicks": 3,
          "midi": 57,
          "name": "A3",
          "ticks": 6993,
          "time": 81.31395348837209,
          "velocity": 0.1889763779527559
        },
        {
          "duration": 0.04651162790696617,
          "durationTicks": 4,
          "midi": 74,
          "name": "D5",
          "ticks": 6996,
          "time": 81.34883720930233,
          "velocity": 0.1968503937007874
        },
        {
          "duration": 0.03488372093023884,
          "durationTicks": 3,
          "midi": 44,
          "name": "G#2",
          "ticks": 6998,
          "time": 81.37209302325581,
          "velocity": 0.1968503937007874
        },
        {
          "duration": 0.023255813953497295,
          "durationTicks": 2,
          "midi": 57,
          "name": "A3",
          "ticks": 6999,
          "time": 81.38372093023256,
          "velocity": 0.4094488188976378
        },
        {
          "duration": 0.05813953488372192,
          "durationTicks": 5,
          "midi": 73,
          "name": "C#5",
          "ticks": 6999,
          "time": 81.38372093023256,
          "velocity": 0.1968503937007874
        },
        {
          "duration": 0.034883720930224626,
          "durationTicks": 3,
          "midi": 45,
          "name": "A2",
          "ticks": 7001,
          "time": 81.40697674418605,
          "velocity": 0.2440944881889764
        },
        {
          "duration": 0.034883720930224626,
          "durationTicks": 3,
          "midi": 61,
          "name": "C#4",
          "ticks": 7001,
          "time": 81.40697674418605,
          "velocity": 0.4645669291338583
        },
        {
          "duration": 0.10465116279068809,
          "durationTicks": 9,
          "midi": 56,
          "name": "G#3",
          "ticks": 7002,
          "time": 81.4186046511628,
          "velocity": 0.41732283464566927
        },
        {
          "duration": 0.04651162790698038,
          "durationTicks": 4,
          "midi": 86,
          "name": "D6",
          "ticks": 7003,
          "time": 81.43023255813954,
          "velocity": 0.11811023622047244
        },
        {
          "duration": 0.04651162790698038,
          "durationTicks": 4,
          "midi": 62,
          "name": "D4",
          "ticks": 7004,
          "time": 81.44186046511628,
          "velocity": 0.3858267716535433
        },
        {
          "duration": 0.04651162790698038,
          "durationTicks": 4,
          "midi": 61,
          "name": "C#4",
          "ticks": 7008,
          "time": 81.48837209302326,
          "velocity": 0.3700787401574803
        },
        {
          "duration": 0.023255813953497295,
          "durationTicks": 2,
          "midi": 48,
          "name": "C3",
          "ticks": 7010,
          "time": 81.51162790697674,
          "velocity": 0.33070866141732286
        },
        {
          "duration": 0.2093023255814046,
          "durationTicks": 18,
          "midi": 75,
          "name": "D#5",
          "ticks": 7010,
          "time": 81.51162790697674,
          "velocity": 0.15748031496062992
        },
        {
          "duration": 0.023255813953497295,
          "durationTicks": 2,
          "midi": 55,
          "name": "G3",
          "ticks": 7011,
          "time": 81.52325581395348,
          "velocity": 0.3779527559055118
        },
        {
          "duration": 0.04651162790698038,
          "durationTicks": 4,
          "midi": 77,
          "name": "F5",
          "ticks": 7011,
          "time": 81.52325581395348,
          "velocity": 0.09448818897637795
        },
        {
          "duration": 0.081395348837205,
          "durationTicks": 7,
          "midi": 80,
          "name": "G#5",
          "ticks": 7012,
          "time": 81.53488372093024,
          "velocity": 0.14960629921259844
        },
        {
          "duration": 0.09302325581394655,
          "durationTicks": 8,
          "midi": 85,
          "name": "C#6",
          "ticks": 7012,
          "time": 81.53488372093024,
          "velocity": 0.2283464566929134
        },
        {
          "duration": 0.05813953488370771,
          "durationTicks": 5,
          "midi": 87,
          "name": "D#6",
          "ticks": 7012,
          "time": 81.53488372093024,
          "velocity": 0.16535433070866143
        },
        {
          "duration": 0.16279069767441,
          "durationTicks": 14,
          "midi": 56,
          "name": "G#3",
          "ticks": 7013,
          "time": 81.54651162790698,
          "velocity": 0.4251968503937008
        },
        {
          "duration": 0.19767441860464885,
          "durationTicks": 17,
          "midi": 73,
          "name": "C#5",
          "ticks": 7013,
          "time": 81.54651162790698,
          "velocity": 0.29133858267716534
        },
        {
          "duration": 0.09302325581394655,
          "durationTicks": 8,
          "midi": 89,
          "name": "F6",
          "ticks": 7013,
          "time": 81.54651162790698,
          "velocity": 0.18110236220472442
        },
        {
          "duration": 0.023255813953483084,
          "durationTicks": 2,
          "midi": 48,
          "name": "C3",
          "ticks": 7014,
          "time": 81.55813953488372,
          "velocity": 0.3779527559055118
        },
        {
          "duration": 0.16279069767442422,
          "durationTicks": 14,
          "midi": 61,
          "name": "C#4",
          "ticks": 7014,
          "time": 81.55813953488372,
          "velocity": 0.47244094488188976
        },
        {
          "duration": 0.04651162790698038,
          "durationTicks": 4,
          "midi": 103,
          "name": "G7",
          "ticks": 7014,
          "time": 81.55813953488372,
          "velocity": 0.14173228346456693
        },
        {
          "duration": 0.023255813953497295,
          "durationTicks": 2,
          "midi": 49,
          "name": "C#3",
          "ticks": 7016,
          "time": 81.5813953488372,
          "velocity": 0.36220472440944884
        },
        {
          "duration": 0.03488372093023884,
          "durationTicks": 3,
          "midi": 44,
          "name": "G#2",
          "ticks": 7021,
          "time": 81.63953488372093,
          "velocity": 0.3937007874015748
        },
        {
          "duration": 0.023255813953497295,
          "durationTicks": 2,
          "midi": 48,
          "name": "C3",
          "ticks": 7026,
          "time": 81.69767441860465,
          "velocity": 0.3700787401574803
        },
        {
          "duration": 0.03488372093023884,
          "durationTicks": 3,
          "midi": 89,
          "name": "F6",
          "ticks": 7027,
          "time": 81.70930232558139,
          "velocity": 0.15748031496062992
        },
        {
          "duration": 0.06976744186046346,
          "durationTicks": 6,
          "midi": 56,
          "name": "G#3",
          "ticks": 7028,
          "time": 81.72093023255815,
          "velocity": 0.3858267716535433
        },
        {
          "duration": 0.034883720930224626,
          "durationTicks": 3,
          "midi": 80,
          "name": "G#5",
          "ticks": 7028,
          "time": 81.72093023255815,
          "velocity": 0.15748031496062992
        },
        {
          "duration": 0.034883720930224626,
          "durationTicks": 3,
          "midi": 61,
          "name": "C#4",
          "ticks": 7029,
          "time": 81.73255813953489,
          "velocity": 0.4645669291338583
        },
        {
          "duration": 0.05813953488372192,
          "durationTicks": 5,
          "midi": 61,
          "name": "C#4",
          "ticks": 7033,
          "time": 81.77906976744185,
          "velocity": 0.4645669291338583
        },
        {
          "duration": 0.03488372093023884,
          "durationTicks": 3,
          "midi": 75,
          "name": "D#5",
          "ticks": 7033,
          "time": 81.77906976744185,
          "velocity": 0.09448818897637795
        },
        {
          "duration": 0.023255813953483084,
          "durationTicks": 2,
          "midi": 45,
          "name": "A2",
          "ticks": 7034,
          "time": 81.79069767441861,
          "velocity": 0.4015748031496063
        },
        {
          "duration": 0.04651162790696617,
          "durationTicks": 4,
          "midi": 80,
          "name": "G#5",
          "ticks": 7034,
          "time": 81.79069767441861,
          "velocity": 0.12598425196850394
        },
        {
          "duration": 0.034883720930224626,
          "durationTicks": 3,
          "midi": 55,
          "name": "G3",
          "ticks": 7035,
          "time": 81.80232558139535,
          "velocity": 0.4330708661417323
        },
        {
          "duration": 0.023255813953483084,
          "durationTicks": 2,
          "midi": 44,
          "name": "G#2",
          "ticks": 7036,
          "time": 81.81395348837209,
          "velocity": 0.36220472440944884
        },
        {
          "duration": 0.06976744186046346,
          "durationTicks": 6,
          "midi": 87,
          "name": "D#6",
          "ticks": 7036,
          "time": 81.81395348837209,
          "velocity": 0.14173228346456693
        },
        {
          "duration": 0.08139534883721922,
          "durationTicks": 7,
          "midi": 56,
          "name": "G#3",
          "ticks": 7038,
          "time": 81.83720930232558,
          "velocity": 0.3858267716535433
        },
        {
          "duration": 0.08139534883721922,
          "durationTicks": 7,
          "midi": 73,
          "name": "C#5",
          "ticks": 7038,
          "time": 81.83720930232558,
          "velocity": 0.33070866141732286
        },
        {
          "duration": 0.05813953488372192,
          "durationTicks": 5,
          "midi": 99,
          "name": "D#7",
          "ticks": 7038,
          "time": 81.83720930232558,
          "velocity": 0.14173228346456693
        },
        {
          "duration": 0.034883720930224626,
          "durationTicks": 3,
          "midi": 44,
          "name": "G#2",
          "ticks": 7039,
          "time": 81.84883720930233,
          "velocity": 0.4094488188976378
        },
        {
          "duration": 0.05813953488372192,
          "durationTicks": 5,
          "midi": 61,
          "name": "C#4",
          "ticks": 7039,
          "time": 81.84883720930233,
          "velocity": 0.4015748031496063
        },
        {
          "duration": 0.05813953488372192,
          "durationTicks": 5,
          "midi": 80,
          "name": "G#5",
          "ticks": 7039,
          "time": 81.84883720930233,
          "velocity": 0.11023622047244094
        },
        {
          "duration": 0.034883720930224626,
          "durationTicks": 3,
          "midi": 89,
          "name": "F6",
          "ticks": 7039,
          "time": 81.84883720930233,
          "velocity": 0.11023622047244094
        },
        {
          "duration": 0.023255813953497295,
          "durationTicks": 2,
          "midi": 44,
          "name": "G#2",
          "ticks": 7043,
          "time": 81.8953488372093,
          "velocity": 0.3779527559055118
        },
        {
          "duration": 0.023255813953483084,
          "durationTicks": 2,
          "midi": 60,
          "name": "C4",
          "ticks": 7044,
          "time": 81.90697674418605,
          "velocity": 0.3858267716535433
        },
        {
          "duration": 0.17441860465115155,
          "durationTicks": 15,
          "midi": 85,
          "name": "C#6",
          "ticks": 7045,
          "time": 81.9186046511628,
          "velocity": 0.25196850393700787
        },
        {
          "duration": 0.10465116279068809,
          "durationTicks": 9,
          "midi": 87,
          "name": "D#6",
          "ticks": 7045,
          "time": 81.9186046511628,
          "velocity": 0.07086614173228346
        },
        {
          "duration": 0.034883720930224626,
          "durationTicks": 3,
          "midi": 44,
          "name": "G#2",
          "ticks": 7046,
          "time": 81.93023255813954,
          "velocity": 0.2992125984251969
        },
        {
          "duration": 0.023255813953483084,
          "durationTicks": 2,
          "midi": 57,
          "name": "A3",
          "ticks": 7046,
          "time": 81.93023255813954,
          "velocity": 0.23622047244094488
        },
        {
          "duration": 0.12790697674418539,
          "durationTicks": 11,
          "midi": 61,
          "name": "C#4",
          "ticks": 7046,
          "time": 81.93023255813954,
          "velocity": 0.47244094488188976
        },
        {
          "duration": 0.418604651162795,
          "durationTicks": 36,
          "midi": 80,
          "name": "G#5",
          "ticks": 7046,
          "time": 81.93023255813954,
          "velocity": 0.2283464566929134
        },
        {
          "duration": 0.08139534883721922,
          "durationTicks": 7,
          "midi": 56,
          "name": "G#3",
          "ticks": 7048,
          "time": 81.95348837209302,
          "velocity": 0.3464566929133858
        },
        {
          "duration": 0.023255813953483084,
          "durationTicks": 2,
          "midi": 44,
          "name": "G#2",
          "ticks": 7050,
          "time": 81.97674418604652,
          "velocity": 0.3700787401574803
        },
        {
          "duration": 0.05813953488372192,
          "durationTicks": 5,
          "midi": 99,
          "name": "D#7",
          "ticks": 7051,
          "time": 81.98837209302326,
          "velocity": 0.09448818897637795
        },
        {
          "duration": 0.03488372093023884,
          "durationTicks": 3,
          "midi": 44,
          "name": "G#2",
          "ticks": 7053,
          "time": 82.01162790697674,
          "velocity": 0.33858267716535434
        },
        {
          "duration": 0.023255813953483084,
          "durationTicks": 2,
          "midi": 57,
          "name": "A3",
          "ticks": 7055,
          "time": 82.03488372093024,
          "velocity": 0.2992125984251969
        },
        {
          "duration": 0.023255813953483084,
          "durationTicks": 2,
          "midi": 48,
          "name": "C3",
          "ticks": 7058,
          "time": 82.06976744186046,
          "velocity": 0.31496062992125984
        },
        {
          "duration": 0.023255813953483084,
          "durationTicks": 2,
          "midi": 55,
          "name": "G3",
          "ticks": 7058,
          "time": 82.06976744186046,
          "velocity": 0.4015748031496063
        },
        {
          "duration": 0.04651162790698038,
          "durationTicks": 4,
          "midi": 61,
          "name": "C#4",
          "ticks": 7058,
          "time": 82.06976744186046,
          "velocity": 0.47244094488188976
        },
        {
          "duration": 0.05813953488372192,
          "durationTicks": 5,
          "midi": 56,
          "name": "G#3",
          "ticks": 7060,
          "time": 82.09302325581395,
          "velocity": 0.33070866141732286
        },
        {
          "duration": 0.023255813953483084,
          "durationTicks": 2,
          "midi": 60,
          "name": "C4",
          "ticks": 7062,
          "time": 82.11627906976744,
          "velocity": 0.3779527559055118
        },
        {
          "duration": 0.05813953488372192,
          "durationTicks": 5,
          "midi": 99,
          "name": "D#7",
          "ticks": 7063,
          "time": 82.12790697674419,
          "velocity": 0.10236220472440945
        },
        {
          "duration": 0.19767441860464885,
          "durationTicks": 17,
          "midi": 61,
          "name": "C#4",
          "ticks": 7064,
          "time": 82.13953488372093,
          "velocity": 0.5118110236220472
        },
        {
          "duration": 0.023255813953497295,
          "durationTicks": 2,
          "midi": 57,
          "name": "A3",
          "ticks": 7065,
          "time": 82.15116279069767,
          "velocity": 0.3228346456692913
        },
        {
          "duration": 0.034883720930224626,
          "durationTicks": 3,
          "midi": 48,
          "name": "C3",
          "ticks": 7067,
          "time": 82.17441860465117,
          "velocity": 0.3228346456692913
        },
        {
          "duration": 0.04651162790698038,
          "durationTicks": 4,
          "midi": 87,
          "name": "D#6",
          "ticks": 7068,
          "time": 82.18604651162791,
          "velocity": 0.16535433070866143
        },
        {
          "duration": 0.023255813953497295,
          "durationTicks": 2,
          "midi": 55,
          "name": "G3",
          "ticks": 7069,
          "time": 82.19767441860465,
          "velocity": 0.4330708661417323
        },
        {
          "duration": 0.08139534883721922,
          "durationTicks": 7,
          "midi": 75,
          "name": "D#5",
          "ticks": 7070,
          "time": 82.20930232558139,
          "velocity": 0.11023622047244094
        },
        {
          "duration": 0.023255813953483084,
          "durationTicks": 2,
          "midi": 49,
          "name": "C#3",
          "ticks": 7071,
          "time": 82.22093023255815,
          "velocity": 0.30708661417322836
        },
        {
          "duration": 0.10465116279068809,
          "durationTicks": 9,
          "midi": 56,
          "name": "G#3",
          "ticks": 7071,
          "time": 82.22093023255815,
          "velocity": 0.3937007874015748
        },
        {
          "duration": 0.06976744186046346,
          "durationTicks": 6,
          "midi": 89,
          "name": "F6",
          "ticks": 7071,
          "time": 82.22093023255815,
          "velocity": 0.08661417322834646
        },
        {
          "duration": 0.023255813953483084,
          "durationTicks": 2,
          "midi": 44,
          "name": "G#2",
          "ticks": 7072,
          "time": 82.23255813953489,
          "velocity": 0.30708661417322836
        },
        {
          "duration": 0.023255813953497295,
          "durationTicks": 2,
          "midi": 44,
          "name": "G#2",
          "ticks": 7075,
          "time": 82.26744186046511,
          "velocity": 0.3228346456692913
        },
        {
          "duration": 0.04651162790698038,
          "durationTicks": 4,
          "midi": 99,
          "name": "D#7",
          "ticks": 7076,
          "time": 82.27906976744185,
          "velocity": 0.14960629921259844
        },
        {
          "duration": 0.03488372093023884,
          "durationTicks": 3,
          "midi": 96,
          "name": "C7",
          "ticks": 7079,
          "time": 82.31395348837209,
          "velocity": 0.2283464566929134
        },
        {
          "duration": 0.023255813953497295,
          "durationTicks": 2,
          "midi": 57,
          "name": "A3",
          "ticks": 7081,
          "time": 82.33720930232558,
          "velocity": 0.3228346456692913
        },
        {
          "duration": 0.023255813953497295,
          "durationTicks": 2,
          "midi": 60,
          "name": "C4",
          "ticks": 7081,
          "time": 82.33720930232558,
          "velocity": 0.3464566929133858
        },
        {
          "duration": 0.11627906976744384,
          "durationTicks": 10,
          "midi": 62,
          "name": "D4",
          "ticks": 7084,
          "time": 82.37209302325581,
          "velocity": 0.4409448818897638
        },
        {
          "duration": 0.12790697674418539,
          "durationTicks": 11,
          "midi": 86,
          "name": "D6",
          "ticks": 7084,
          "time": 82.37209302325581,
          "velocity": 0.1889763779527559
        },
        {
          "duration": 0.04651162790698038,
          "durationTicks": 4,
          "midi": 42,
          "name": "F#2",
          "ticks": 7086,
          "time": 82.3953488372093,
          "velocity": 0.25984251968503935
        },
        {
          "duration": 0.034883720930224626,
          "durationTicks": 3,
          "midi": 53,
          "name": "F3",
          "ticks": 7088,
          "time": 82.4186046511628,
          "velocity": 0.25196850393700787
        },
        {
          "duration": 0.023255813953483084,
          "durationTicks": 2,
          "midi": 57,
          "name": "A3",
          "ticks": 7088,
          "time": 82.4186046511628,
          "velocity": 0.2677165354330709
        },
        {
          "duration": 0.06976744186046346,
          "durationTicks": 6,
          "midi": 81,
          "name": "A5",
          "ticks": 7088,
          "time": 82.4186046511628,
          "velocity": 0.2204724409448819
        },
        {
          "duration": 0.11627906976744384,
          "durationTicks": 10,
          "midi": 58,
          "name": "A#3",
          "ticks": 7090,
          "time": 82.44186046511628,
          "velocity": 0.44881889763779526
        },
        {
          "duration": 0.09302325581396076,
          "durationTicks": 8,
          "midi": 87,
          "name": "D#6",
          "ticks": 7090,
          "time": 82.44186046511628,
          "velocity": 0.18110236220472442
        },
        {
          "duration": 0.023255813953497295,
          "durationTicks": 2,
          "midi": 48,
          "name": "C3",
          "ticks": 7092,
          "time": 82.46511627906976,
          "velocity": 0.2755905511811024
        },
        {
          "duration": 0.04651162790698038,
          "durationTicks": 4,
          "midi": 75,
          "name": "D#5",
          "ticks": 7092,
          "time": 82.46511627906976,
          "velocity": 0.29133858267716534
        },
        {
          "duration": 0.023255813953483084,
          "durationTicks": 2,
          "midi": 51,
          "name": "D#3",
          "ticks": 7093,
          "time": 82.47674418604652,
          "velocity": 0.2992125984251969
        },
        {
          "duration": 0.023255813953483084,
          "durationTicks": 2,
          "midi": 63,
          "name": "D#4",
          "ticks": 7094,
          "time": 82.48837209302326,
          "velocity": 0.33858267716535434
        },
        {
          "duration": 0.04651162790698038,
          "durationTicks": 4,
          "midi": 62,
          "name": "D4",
          "ticks": 7096,
          "time": 82.51162790697674,
          "velocity": 0.49606299212598426
        },
        {
          "duration": 0.05813953488372192,
          "durationTicks": 5,
          "midi": 79,
          "name": "G5",
          "ticks": 7096,
          "time": 82.51162790697674,
          "velocity": 0.08661417322834646
        },
        {
          "duration": 0.05813953488372192,
          "durationTicks": 5,
          "midi": 81,
          "name": "A5",
          "ticks": 7096,
          "time": 82.51162790697674,
          "velocity": 0.2047244094488189
        },
        {
          "duration": 0.023255813953497295,
          "durationTicks": 2,
          "midi": 45,
          "name": "A2",
          "ticks": 7097,
          "time": 82.52325581395348,
          "velocity": 0.3228346456692913
        },
        {
          "duration": 0.04651162790698038,
          "durationTicks": 4,
          "midi": 51,
          "name": "D#3",
          "ticks": 7097,
          "time": 82.52325581395348,
          "velocity": 0.3464566929133858
        },
        {
          "duration": 0.24418604651162923,
          "durationTicks": 21,
          "midi": 75,
          "name": "D#5",
          "ticks": 7099,
          "time": 82.54651162790698,
          "velocity": 0.4566929133858268
        },
        {
          "duration": 0.023255813953483084,
          "durationTicks": 2,
          "midi": 61,
          "name": "C#4",
          "ticks": 7100,
          "time": 82.55813953488372,
          "velocity": 0.3858267716535433
        },
        {
          "duration": 0.17441860465116577,
          "durationTicks": 15,
          "midi": 94,
          "name": "A#6",
          "ticks": 7101,
          "time": 82.56976744186046,
          "velocity": 0.2204724409448819
        },
        {
          "duration": 0.06976744186046346,
          "durationTicks": 6,
          "midi": 91,
          "name": "G6",
          "ticks": 7102,
          "time": 82.5813953488372,
          "velocity": 0.08661417322834646
        },
        {
          "duration": 0.12790697674418539,
          "durationTicks": 11,
          "midi": 97,
          "name": "C#7",
          "ticks": 7102,
          "time": 82.5813953488372,
          "velocity": 0.13385826771653545
        },
        {
          "duration": 0.19767441860466306,
          "durationTicks": 17,
          "midi": 63,
          "name": "D#4",
          "ticks": 7103,
          "time": 82.59302325581395,
          "velocity": 0.5039370078740157
        },
        {
          "duration": 0.03488372093023884,
          "durationTicks": 3,
          "midi": 71,
          "name": "B4",
          "ticks": 7103,
          "time": 82.59302325581395,
          "velocity": 0.2283464566929134
        },
        {
          "duration": 0.081395348837205,
          "durationTicks": 7,
          "midi": 44,
          "name": "G#2",
          "ticks": 7104,
          "time": 82.6046511627907,
          "velocity": 0.30708661417322836
        },
        {
          "duration": 0.081395348837205,
          "durationTicks": 7,
          "midi": 58,
          "name": "A#3",
          "ticks": 7105,
          "time": 82.61627906976744,
          "velocity": 0.13385826771653545
        },
        {
          "duration": 0.03488372093023884,
          "durationTicks": 3,
          "midi": 52,
          "name": "E3",
          "ticks": 7108,
          "time": 82.65116279069767,
          "velocity": 0.10236220472440945
        },
        {
          "duration": 0.023255813953497295,
          "durationTicks": 2,
          "midi": 55,
          "name": "G3",
          "ticks": 7112,
          "time": 82.69767441860465,
          "velocity": 0.2992125984251969
        },
        {
          "duration": 0.03488372093023884,
          "durationTicks": 3,
          "midi": 78,
          "name": "F#5",
          "ticks": 7113,
          "time": 82.70930232558139,
          "velocity": 0.14960629921259844
        },
        {
          "duration": 0.13953488372092693,
          "durationTicks": 12,
          "midi": 70,
          "name": "A#4",
          "ticks": 7114,
          "time": 82.72093023255815,
          "velocity": 0.1732283464566929
        },
        {
          "duration": 0.12790697674418539,
          "durationTicks": 11,
          "midi": 58,
          "name": "A#3",
          "ticks": 7115,
          "time": 82.73255813953489,
          "velocity": 0.3464566929133858
        },
        {
          "duration": 0.12790697674418539,
          "durationTicks": 11,
          "midi": 51,
          "name": "D#3",
          "ticks": 7116,
          "time": 82.74418604651163,
          "velocity": 0.3937007874015748
        },
        {
          "duration": 0.023255813953483084,
          "durationTicks": 2,
          "midi": 64,
          "name": "E4",
          "ticks": 7120,
          "time": 82.79069767441861,
          "velocity": 0.4015748031496063
        },
        {
          "duration": 0.023255813953483084,
          "durationTicks": 2,
          "midi": 76,
          "name": "E5",
          "ticks": 7120,
          "time": 82.79069767441861,
          "velocity": 0.4094488188976378
        },
        {
          "duration": 0.04651162790698038,
          "durationTicks": 4,
          "midi": 79,
          "name": "G5",
          "ticks": 7121,
          "time": 82.80232558139535,
          "velocity": 0.07086614173228346
        },
        {
          "duration": 0.15116279069766847,
          "durationTicks": 13,
          "midi": 63,
          "name": "D#4",
          "ticks": 7122,
          "time": 82.81395348837209,
          "velocity": 0.4881889763779528
        },
        {
          "duration": 0.11627906976744384,
          "durationTicks": 10,
          "midi": 91,
          "name": "G6",
          "ticks": 7124,
          "time": 82.83720930232558,
          "velocity": 0.11811023622047244
        },
        {
          "duration": 0.034883720930224626,
          "durationTicks": 3,
          "midi": 74,
          "name": "D5",
          "ticks": 7125,
          "time": 82.84883720930233,
          "velocity": 0.12598425196850394
        },
        {
          "duration": 0.023255813953483084,
          "durationTicks": 2,
          "midi": 45,
          "name": "A2",
          "ticks": 7126,
          "time": 82.86046511627907,
          "velocity": 0.36220472440944884
        },
        {
          "duration": 0.06976744186046346,
          "durationTicks": 6,
          "midi": 94,
          "name": "A#6",
          "ticks": 7127,
          "time": 82.87209302325581,
          "velocity": 0.07874015748031496
        },
        {
          "duration": 0.03488372093023884,
          "durationTicks": 3,
          "midi": 44,
          "name": "G#2",
          "ticks": 7128,
          "time": 82.88372093023256,
          "velocity": 0.25984251968503935
        },
        {
          "duration": 0.04651162790696617,
          "durationTicks": 4,
          "midi": 58,
          "name": "A#3",
          "ticks": 7131,
          "time": 82.9186046511628,
          "velocity": 0.12598425196850394
        },
        {
          "duration": 0.03488372093023884,
          "durationTicks": 3,
          "midi": 64,
          "name": "E4",
          "ticks": 7135,
          "time": 82.96511627906976,
          "velocity": 0.4566929133858268
        },
        {
          "duration": 0.023255813953483084,
          "durationTicks": 2,
          "midi": 47,
          "name": "B2",
          "ticks": 7136,
          "time": 82.97674418604652,
          "velocity": 0.3700787401574803
        },
        {
          "duration": 0.30232558139533694,
          "durationTicks": 26,
          "midi": 75,
          "name": "D#5",
          "ticks": 7136,
          "time": 82.97674418604652,
          "velocity": 0.4015748031496063
        },
        {
          "duration": 0.24418604651162923,
          "durationTicks": 21,
          "midi": 82,
          "name": "A#5",
          "ticks": 7136,
          "time": 82.97674418604652,
          "velocity": 0.2125984251968504
        },
        {
          "duration": 0.10465116279068809,
          "durationTicks": 9,
          "midi": 70,
          "name": "A#4",
          "ticks": 7137,
          "time": 82.98837209302326,
          "velocity": 0.25984251968503935
        },
        {
          "duration": 0.06976744186046346,
          "durationTicks": 6,
          "midi": 92,
          "name": "G#6",
          "ticks": 7137,
          "time": 82.98837209302326,
          "velocity": 0.11023622047244094
        },
        {
          "duration": 0.13953488372092693,
          "durationTicks": 12,
          "midi": 63,
          "name": "D#4",
          "ticks": 7138,
          "time": 83,
          "velocity": 0.48031496062992124
        },
        {
          "duration": 0.11627906976744384,
          "durationTicks": 10,
          "midi": 79,
          "name": "G5",
          "ticks": 7138,
          "time": 83,
          "velocity": 0.15748031496062992
        },
        {
          "duration": 0.04651162790698038,
          "durationTicks": 4,
          "midi": 86,
          "name": "D6",
          "ticks": 7138,
          "time": 83,
          "velocity": 0.11811023622047244
        },
        {
          "duration": 0.081395348837205,
          "durationTicks": 7,
          "midi": 51,
          "name": "D#3",
          "ticks": 7139,
          "time": 83.01162790697674,
          "velocity": 0.4330708661417323
        },
        {
          "duration": 0.06976744186046346,
          "durationTicks": 6,
          "midi": 58,
          "name": "A#3",
          "ticks": 7140,
          "time": 83.02325581395348,
          "velocity": 0.23622047244094488
        },
        {
          "duration": 0.2325581395348877,
          "durationTicks": 20,
          "midi": 51,
          "name": "D#3",
          "ticks": 7148,
          "time": 83.11627906976744,
          "velocity": 0.41732283464566927
        },
        {
          "duration": 0.2325581395348877,
          "durationTicks": 20,
          "midi": 58,
          "name": "A#3",
          "ticks": 7148,
          "time": 83.11627906976744,
          "velocity": 0.36220472440944884
        },
        {
          "duration": 0.06976744186046346,
          "durationTicks": 6,
          "midi": 64,
          "name": "E4",
          "ticks": 7150,
          "time": 83.13953488372093,
          "velocity": 0.4251968503937008
        },
        {
          "duration": 0.17441860465116577,
          "durationTicks": 15,
          "midi": 77,
          "name": "F5",
          "ticks": 7153,
          "time": 83.17441860465117,
          "velocity": 0.18110236220472442
        },
        {
          "duration": 0.2093023255814046,
          "durationTicks": 18,
          "midi": 63,
          "name": "D#4",
          "ticks": 7156,
          "time": 83.20930232558139,
          "velocity": 0.4409448818897638
        },
        {
          "duration": 0.04651162790696617,
          "durationTicks": 4,
          "midi": 57,
          "name": "A3",
          "ticks": 7168,
          "time": 83.34883720930233,
          "velocity": 0.3700787401574803
        },
        {
          "duration": 0.034883720930224626,
          "durationTicks": 3,
          "midi": 74,
          "name": "D5",
          "ticks": 7169,
          "time": 83.36046511627907,
          "velocity": 0.2440944881889764
        },
        {
          "duration": 0.03488372093023884,
          "durationTicks": 3,
          "midi": 56,
          "name": "G#3",
          "ticks": 7172,
          "time": 83.3953488372093,
          "velocity": 0.4251968503937008
        },
        {
          "duration": 0.04651162790696617,
          "durationTicks": 4,
          "midi": 74,
          "name": "D5",
          "ticks": 7173,
          "time": 83.40697674418605,
          "velocity": 0.2047244094488189
        },
        {
          "duration": 0.034883720930224626,
          "durationTicks": 3,
          "midi": 44,
          "name": "G#2",
          "ticks": 7174,
          "time": 83.4186046511628,
          "velocity": 0.33858267716535434
        },
        {
          "duration": 0.034883720930224626,
          "durationTicks": 3,
          "midi": 55,
          "name": "G3",
          "ticks": 7175,
          "time": 83.43023255813954,
          "velocity": 0.4330708661417323
        },
        {
          "duration": 0.023255813953483084,
          "durationTicks": 2,
          "midi": 61,
          "name": "C#4",
          "ticks": 7175,
          "time": 83.43023255813954,
          "velocity": 0.3858267716535433
        },
        {
          "duration": 0.03488372093023884,
          "durationTicks": 3,
          "midi": 66,
          "name": "F#4",
          "ticks": 7177,
          "time": 83.45348837209302,
          "velocity": 0.16535433070866143
        },
        {
          "duration": 0.023255813953483084,
          "durationTicks": 2,
          "midi": 43,
          "name": "G2",
          "ticks": 7179,
          "time": 83.47674418604652,
          "velocity": 0.28346456692913385
        },
        {
          "duration": 0.023255813953483084,
          "durationTicks": 2,
          "midi": 57,
          "name": "A3",
          "ticks": 7179,
          "time": 83.47674418604652,
          "velocity": 0.29133858267716534
        },
        {
          "duration": 0.023255813953497295,
          "durationTicks": 2,
          "midi": 55,
          "name": "G3",
          "ticks": 7182,
          "time": 83.51162790697674,
          "velocity": 0.4566929133858268
        },
        {
          "duration": 0.8953488372092977,
          "durationTicks": 77,
          "midi": 77,
          "name": "F5",
          "ticks": 7184,
          "time": 83.53488372093024,
          "velocity": 0.2755905511811024
        },
        {
          "duration": 1.360465116279073,
          "durationTicks": 117,
          "midi": 58,
          "name": "A#3",
          "ticks": 7185,
          "time": 83.54651162790698,
          "velocity": 0.4645669291338583
        },
        {
          "duration": 0.5697674418604635,
          "durationTicks": 49,
          "midi": 74,
          "name": "D5",
          "ticks": 7185,
          "time": 83.54651162790698,
          "velocity": 0.23622047244094488
        },
        {
          "duration": 0.023255813953483084,
          "durationTicks": 2,
          "midi": 51,
          "name": "D#3",
          "ticks": 7186,
          "time": 83.55813953488372,
          "velocity": 0.36220472440944884
        },
        {
          "duration": 0.023255813953497295,
          "durationTicks": 2,
          "midi": 53,
          "name": "F3",
          "ticks": 7188,
          "time": 83.5813953488372,
          "velocity": 0.3937007874015748
        },
        {
          "duration": 0.15116279069766847,
          "durationTicks": 13,
          "midi": 79,
          "name": "G5",
          "ticks": 7190,
          "time": 83.6046511627907,
          "velocity": 0.14960629921259844
        },
        {
          "duration": 0.3372093023255758,
          "durationTicks": 29,
          "midi": 84,
          "name": "C6",
          "ticks": 7190,
          "time": 83.6046511627907,
          "velocity": 0.2992125984251969
        },
        {
          "duration": 0.034883720930224626,
          "durationTicks": 3,
          "midi": 98,
          "name": "D7",
          "ticks": 7190,
          "time": 83.6046511627907,
          "velocity": 0.10236220472440945
        },
        {
          "duration": 0.034883720930224626,
          "durationTicks": 3,
          "midi": 72,
          "name": "C5",
          "ticks": 7191,
          "time": 83.61627906976744,
          "velocity": 0.18110236220472442
        },
        {
          "duration": 1.1046511627907023,
          "durationTicks": 95,
          "midi": 65,
          "name": "F4",
          "ticks": 7192,
          "time": 83.62790697674419,
          "velocity": 0.4015748031496063
        },
        {
          "duration": 0.09302325581396076,
          "durationTicks": 8,
          "midi": 95,
          "name": "B6",
          "ticks": 7193,
          "time": 83.63953488372093,
          "velocity": 0.10236220472440945
        },
        {
          "duration": 0.11627906976744384,
          "durationTicks": 10,
          "midi": 101,
          "name": "F7",
          "ticks": 7193,
          "time": 83.63953488372093,
          "velocity": 0.11811023622047244
        },
        {
          "duration": 0.4534883720930196,
          "durationTicks": 39,
          "midi": 53,
          "name": "F3",
          "ticks": 7195,
          "time": 83.66279069767442,
          "velocity": 0.3700787401574803
        },
        {
          "duration": 0.023255813953483084,
          "durationTicks": 2,
          "midi": 45,
          "name": "A2",
          "ticks": 7196,
          "time": 83.67441860465117,
          "velocity": 0.4251968503937008
        },
        {
          "duration": 0.023255813953497295,
          "durationTicks": 2,
          "midi": 46,
          "name": "A#2",
          "ticks": 7198,
          "time": 83.69767441860465,
          "velocity": 0.33070866141732286
        },
        {
          "duration": 0.023255813953483084,
          "durationTicks": 2,
          "midi": 47,
          "name": "B2",
          "ticks": 7200,
          "time": 83.72093023255815,
          "velocity": 0.3464566929133858
        },
        {
          "duration": 0.023255813953497295,
          "durationTicks": 2,
          "midi": 46,
          "name": "A#2",
          "ticks": 7209,
          "time": 83.82558139534883,
          "velocity": 0.36220472440944884
        },
        {
          "duration": 0.3139534883720927,
          "durationTicks": 27,
          "midi": 72,
          "name": "C5",
          "ticks": 7209,
          "time": 83.82558139534883,
          "velocity": 0.23622047244094488
        },
        {
          "duration": 0.023255813953483084,
          "durationTicks": 2,
          "midi": 46,
          "name": "A#2",
          "ticks": 7212,
          "time": 83.86046511627907,
          "velocity": 0.36220472440944884
        },
        {
          "duration": 0.06976744186046346,
          "durationTicks": 6,
          "midi": 46,
          "name": "A#2",
          "ticks": 7215,
          "time": 83.8953488372093,
          "velocity": 0.4015748031496063
        },
        {
          "duration": 0.43023255813953654,
          "durationTicks": 37,
          "midi": 84,
          "name": "C6",
          "ticks": 7221,
          "time": 83.96511627906976,
          "velocity": 0.28346456692913385
        },
        {
          "duration": 0.023255813953483084,
          "durationTicks": 2,
          "midi": 46,
          "name": "A#2",
          "ticks": 7222,
          "time": 83.97674418604652,
          "velocity": 0.41732283464566927
        },
        {
          "duration": 0.023255813953497295,
          "durationTicks": 2,
          "midi": 46,
          "name": "A#2",
          "ticks": 7226,
          "time": 84.02325581395348,
          "velocity": 0.4015748031496063
        },
        {
          "duration": 0.023255813953483084,
          "durationTicks": 2,
          "midi": 46,
          "name": "A#2",
          "ticks": 7229,
          "time": 84.05813953488372,
          "velocity": 0.4015748031496063
        },
        {
          "duration": 0.1046511627907023,
          "durationTicks": 9,
          "midi": 46,
          "name": "A#2",
          "ticks": 7232,
          "time": 84.09302325581395,
          "velocity": 0.4251968503937008
        },
        {
          "duration": 0.05813953488372192,
          "durationTicks": 5,
          "midi": 53,
          "name": "F3",
          "ticks": 7235,
          "time": 84.12790697674419,
          "velocity": 0.2047244094488189
        },
        {
          "duration": 0.27906976744186807,
          "durationTicks": 24,
          "midi": 74,
          "name": "D5",
          "ticks": 7235,
          "time": 84.12790697674419,
          "velocity": 0.29133858267716534
        },
        {
          "duration": 0.023255813953483084,
          "durationTicks": 2,
          "midi": 71,
          "name": "B4",
          "ticks": 7238,
          "time": 84.16279069767442,
          "velocity": 0.3937007874015748
        },
        {
          "duration": 0.2093023255814046,
          "durationTicks": 18,
          "midi": 72,
          "name": "C5",
          "ticks": 7241,
          "time": 84.19767441860465,
          "velocity": 0.2283464566929134
        },
        {
          "duration": 0.33720930232559,
          "durationTicks": 29,
          "midi": 46,
          "name": "A#2",
          "ticks": 7242,
          "time": 84.20930232558139,
          "velocity": 0.44881889763779526
        },
        {
          "duration": 0.19767441860464885,
          "durationTicks": 17,
          "midi": 79,
          "name": "G5",
          "ticks": 7249,
          "time": 84.29069767441861,
          "velocity": 0.07086614173228346
        },
        {
          "duration": 0.11627906976744384,
          "durationTicks": 10,
          "midi": 72,
          "name": "C5",
          "ticks": 7263,
          "time": 84.45348837209302,
          "velocity": 0.1968503937007874
        },
        {
          "duration": 0.023255813953483084,
          "durationTicks": 2,
          "midi": 47,
          "name": "B2",
          "ticks": 7271,
          "time": 84.54651162790698,
          "velocity": 0.49606299212598426
        },
        {
          "duration": 0.023255813953483084,
          "durationTicks": 2,
          "midi": 44,
          "name": "G#2",
          "ticks": 7273,
          "time": 84.56976744186046,
          "velocity": 0.5275590551181102
        },
        {
          "duration": 0.023255813953497295,
          "durationTicks": 2,
          "midi": 46,
          "name": "A#2",
          "ticks": 7275,
          "time": 84.59302325581395,
          "velocity": 0.4094488188976378
        },
        {
          "duration": 0.15116279069768268,
          "durationTicks": 13,
          "midi": 84,
          "name": "C6",
          "ticks": 7275,
          "time": 84.59302325581395,
          "velocity": 0.11811023622047244
        },
        {
          "duration": 0.1046511627907023,
          "durationTicks": 9,
          "midi": 46,
          "name": "A#2",
          "ticks": 7280,
          "time": 84.65116279069767,
          "velocity": 0.4251968503937008
        },
        {
          "duration": 0.05813953488372192,
          "durationTicks": 5,
          "midi": 45,
          "name": "A2",
          "ticks": 7289,
          "time": 84.75581395348837,
          "velocity": 0.41732283464566927
        },
        {
          "duration": 0.24418604651162923,
          "durationTicks": 21,
          "midi": 65,
          "name": "F4",
          "ticks": 7289,
          "time": 84.75581395348837,
          "velocity": 0.2283464566929134
        },
        {
          "duration": 0.034883720930224626,
          "durationTicks": 3,
          "midi": 74,
          "name": "D5",
          "ticks": 7292,
          "time": 84.79069767441861,
          "velocity": 0.33070866141732286
        },
        {
          "duration": 0.04651162790696617,
          "durationTicks": 4,
          "midi": 84,
          "name": "C6",
          "ticks": 7292,
          "time": 84.79069767441861,
          "velocity": 0.14960629921259844
        },
        {
          "duration": 0.023255813953483084,
          "durationTicks": 2,
          "midi": 44,
          "name": "G#2",
          "ticks": 7294,
          "time": 84.81395348837209,
          "velocity": 0.2440944881889764
        },
        {
          "duration": 0.06976744186047767,
          "durationTicks": 6,
          "midi": 45,
          "name": "A2",
          "ticks": 7296,
          "time": 84.83720930232558,
          "velocity": 0.4015748031496063
        },
        {
          "duration": 0.034883720930224626,
          "durationTicks": 3,
          "midi": 46,
          "name": "A#2",
          "ticks": 7302,
          "time": 84.90697674418605,
          "velocity": 0.3543307086614173
        },
        {
          "duration": 0.04651162790696617,
          "durationTicks": 4,
          "midi": 53,
          "name": "F3",
          "ticks": 7303,
          "time": 84.9186046511628,
          "velocity": 0.4881889763779528
        },
        {
          "duration": 0.11627906976744384,
          "durationTicks": 10,
          "midi": 60,
          "name": "C4",
          "ticks": 7303,
          "time": 84.9186046511628,
          "velocity": 0.3779527559055118
        },
        {
          "duration": 0.2093023255813904,
          "durationTicks": 18,
          "midi": 53,
          "name": "F3",
          "ticks": 7308,
          "time": 84.97674418604652,
          "velocity": 0.3937007874015748
        },
        {
          "duration": 0.15116279069766847,
          "durationTicks": 13,
          "midi": 58,
          "name": "A#3",
          "ticks": 7315,
          "time": 85.05813953488372,
          "velocity": 0.36220472440944884
        },
        {
          "duration": 0.023255813953497295,
          "durationTicks": 2,
          "midi": 46,
          "name": "A#2",
          "ticks": 7317,
          "time": 85.0813953488372,
          "velocity": 0.3779527559055118
        },
        {
          "duration": 0.023255813953497295,
          "durationTicks": 2,
          "midi": 46,
          "name": "A#2",
          "ticks": 7323,
          "time": 85.15116279069767,
          "velocity": 0.3543307086614173
        },
        {
          "duration": 0.04651162790698038,
          "durationTicks": 4,
          "midi": 46,
          "name": "A#2",
          "ticks": 7326,
          "time": 85.18604651162791,
          "velocity": 0.31496062992125984
        },
        {
          "duration": 0.03488372093023884,
          "durationTicks": 3,
          "midi": 52,
          "name": "E3",
          "ticks": 7326,
          "time": 85.18604651162791,
          "velocity": 0.4409448818897638
        },
        {
          "duration": 0.023255813953483084,
          "durationTicks": 2,
          "midi": 72,
          "name": "C5",
          "ticks": 7326,
          "time": 85.18604651162791,
          "velocity": 0.2992125984251969
        },
        {
          "duration": 0.48837209302325846,
          "durationTicks": 42,
          "midi": 77,
          "name": "F5",
          "ticks": 7326,
          "time": 85.18604651162791,
          "velocity": 0.3228346456692913
        },
        {
          "duration": 0.081395348837205,
          "durationTicks": 7,
          "midi": 74,
          "name": "D5",
          "ticks": 7327,
          "time": 85.19767441860465,
          "velocity": 0.41732283464566927
        },
        {
          "duration": 0.03488372093023884,
          "durationTicks": 3,
          "midi": 81,
          "name": "A5",
          "ticks": 7327,
          "time": 85.19767441860465,
          "velocity": 0.1968503937007874
        },
        {
          "duration": 0.03488372093023884,
          "durationTicks": 3,
          "midi": 83,
          "name": "B5",
          "ticks": 7327,
          "time": 85.19767441860465,
          "velocity": 0.2047244094488189
        },
        {
          "duration": 0.48837209302325846,
          "durationTicks": 42,
          "midi": 65,
          "name": "F4",
          "ticks": 7328,
          "time": 85.20930232558139,
          "velocity": 0.36220472440944884
        },
        {
          "duration": 0.25581395348837077,
          "durationTicks": 22,
          "midi": 53,
          "name": "F3",
          "ticks": 7329,
          "time": 85.22093023255815,
          "velocity": 0.4881889763779528
        },
        {
          "duration": 0.023255813953483084,
          "durationTicks": 2,
          "midi": 45,
          "name": "A2",
          "ticks": 7330,
          "time": 85.23255813953489,
          "velocity": 0.31496062992125984
        },
        {
          "duration": 0.48837209302325846,
          "durationTicks": 42,
          "midi": 72,
          "name": "C5",
          "ticks": 7330,
          "time": 85.23255813953489,
          "velocity": 0.1968503937007874
        },
        {
          "duration": 0.034883720930224626,
          "durationTicks": 3,
          "midi": 58,
          "name": "A#3",
          "ticks": 7331,
          "time": 85.24418604651163,
          "velocity": 0.10236220472440945
        },
        {
          "duration": 0.3372093023255758,
          "durationTicks": 29,
          "midi": 87,
          "name": "D#6",
          "ticks": 7331,
          "time": 85.24418604651163,
          "velocity": 0.07874015748031496
        },
        {
          "duration": 0.081395348837205,
          "durationTicks": 7,
          "midi": 53,
          "name": "F3",
          "ticks": 7354,
          "time": 85.51162790697674,
          "velocity": 0.3228346456692913
        },
        {
          "duration": 0.03488372093023884,
          "durationTicks": 3,
          "midi": 41,
          "name": "F2",
          "ticks": 7364,
          "time": 85.62790697674419,
          "velocity": 0.3228346456692913
        },
        {
          "duration": 0.04651162790696617,
          "durationTicks": 4,
          "midi": 42,
          "name": "F#2",
          "ticks": 7367,
          "time": 85.66279069767442,
          "velocity": 0.25196850393700787
        },
        {
          "duration": 0.03488372093023884,
          "durationTicks": 3,
          "midi": 56,
          "name": "G#3",
          "ticks": 7371,
          "time": 85.70930232558139,
          "velocity": 0.3464566929133858
        },
        {
          "duration": 0.7558139534883708,
          "durationTicks": 65,
          "midi": 76,
          "name": "E5",
          "ticks": 7371,
          "time": 85.70930232558139,
          "velocity": 0.3543307086614173
        },
        {
          "duration": 0.11627906976742963,
          "durationTicks": 10,
          "midi": 71,
          "name": "B4",
          "ticks": 7372,
          "time": 85.72093023255815,
          "velocity": 0.30708661417322836
        },
        {
          "duration": 0.2093023255813904,
          "durationTicks": 18,
          "midi": 94,
          "name": "A#6",
          "ticks": 7372,
          "time": 85.72093023255815,
          "velocity": 0.1732283464566929
        },
        {
          "duration": 0.7325581395348735,
          "durationTicks": 63,
          "midi": 64,
          "name": "E4",
          "ticks": 7373,
          "time": 85.73255813953489,
          "velocity": 0.3464566929133858
        },
        {
          "duration": 0.3139534883720927,
          "durationTicks": 27,
          "midi": 102,
          "name": "F#7",
          "ticks": 7373,
          "time": 85.73255813953489,
          "velocity": 0.14960629921259844
        },
        {
          "duration": 0.12790697674418539,
          "durationTicks": 11,
          "midi": 79,
          "name": "G5",
          "ticks": 7374,
          "time": 85.74418604651163,
          "velocity": 0.14960629921259844
        },
        {
          "duration": 0.06976744186046346,
          "durationTicks": 6,
          "midi": 55,
          "name": "G3",
          "ticks": 7375,
          "time": 85.75581395348837,
          "velocity": 0.49606299212598426
        },
        {
          "duration": 0.023255813953483084,
          "durationTicks": 2,
          "midi": 61,
          "name": "C#4",
          "ticks": 7375,
          "time": 85.75581395348837,
          "velocity": 0.2755905511811024
        },
        {
          "duration": 0.418604651162795,
          "durationTicks": 36,
          "midi": 81,
          "name": "A5",
          "ticks": 7377,
          "time": 85.77906976744185,
          "velocity": 0.09448818897637795
        },
        {
          "duration": 0.24418604651162923,
          "durationTicks": 21,
          "midi": 74,
          "name": "D5",
          "ticks": 7378,
          "time": 85.79069767441861,
          "velocity": 0.14173228346456693
        },
        {
          "duration": 0.13953488372092693,
          "durationTicks": 12,
          "midi": 101,
          "name": "F7",
          "ticks": 7381,
          "time": 85.82558139534883,
          "velocity": 0.07874015748031496
        },
        {
          "duration": 0.023255813953497295,
          "durationTicks": 2,
          "midi": 55,
          "name": "G3",
          "ticks": 7382,
          "time": 85.83720930232558,
          "velocity": 0.3858267716535433
        },
        {
          "duration": 0.023255813953497295,
          "durationTicks": 2,
          "midi": 72,
          "name": "C5",
          "ticks": 7382,
          "time": 85.83720930232558,
          "velocity": 0.30708661417322836
        },
        {
          "duration": 0.023255813953483084,
          "durationTicks": 2,
          "midi": 52,
          "name": "E3",
          "ticks": 7383,
          "time": 85.84883720930233,
          "velocity": 0.3700787401574803
        },
        {
          "duration": 0.023255813953483084,
          "durationTicks": 2,
          "midi": 71,
          "name": "B4",
          "ticks": 7383,
          "time": 85.84883720930233,
          "velocity": 0.2677165354330709
        },
        {
          "duration": 0.023255813953483084,
          "durationTicks": 2,
          "midi": 72,
          "name": "C5",
          "ticks": 7385,
          "time": 85.87209302325581,
          "velocity": 0.31496062992125984
        },
        {
          "duration": 0.023255813953497295,
          "durationTicks": 2,
          "midi": 71,
          "name": "B4",
          "ticks": 7386,
          "time": 85.88372093023256,
          "velocity": 0.2755905511811024
        },
        {
          "duration": 0.2906976744185954,
          "durationTicks": 25,
          "midi": 67,
          "name": "G4",
          "ticks": 7388,
          "time": 85.90697674418605,
          "velocity": 0.10236220472440945
        },
        {
          "duration": 0.023255813953483084,
          "durationTicks": 2,
          "midi": 72,
          "name": "C5",
          "ticks": 7388,
          "time": 85.90697674418605,
          "velocity": 0.30708661417322836
        },
        {
          "duration": 0.5465116279069662,
          "durationTicks": 47,
          "midi": 71,
          "name": "B4",
          "ticks": 7389,
          "time": 85.9186046511628,
          "velocity": 0.44881889763779526
        },
        {
          "duration": 0.034883720930224626,
          "durationTicks": 3,
          "midi": 93,
          "name": "A6",
          "ticks": 7389,
          "time": 85.9186046511628,
          "velocity": 0.11023622047244094
        },
        {
          "duration": 0.023255813953497295,
          "durationTicks": 2,
          "midi": 62,
          "name": "D4",
          "ticks": 7392,
          "time": 85.95348837209302,
          "velocity": 0.28346456692913385
        },
        {
          "duration": 0.12790697674418539,
          "durationTicks": 11,
          "midi": 94,
          "name": "A#6",
          "ticks": 7392,
          "time": 85.95348837209302,
          "velocity": 0.11023622047244094
        },
        {
          "duration": 0.03488372093023884,
          "durationTicks": 3,
          "midi": 43,
          "name": "G2",
          "ticks": 7397,
          "time": 86.01162790697674,
          "velocity": 0.3543307086614173
        },
        {
          "duration": 0.034883720930224626,
          "durationTicks": 3,
          "midi": 94,
          "name": "A#6",
          "ticks": 7406,
          "time": 86.11627906976744,
          "velocity": 0.09448818897637795
        },
        {
          "duration": 0.34883720930233153,
          "durationTicks": 30,
          "midi": 55,
          "name": "G3",
          "ticks": 7408,
          "time": 86.13953488372093,
          "velocity": 0.2992125984251969
        },
        {
          "duration": 0.023255813953483084,
          "durationTicks": 2,
          "midi": 43,
          "name": "G2",
          "ticks": 7410,
          "time": 86.16279069767442,
          "velocity": 0.3464566929133858
        },
        {
          "duration": 0.03488372093023884,
          "durationTicks": 3,
          "midi": 74,
          "name": "D5",
          "ticks": 7414,
          "time": 86.20930232558139,
          "velocity": 0.08661417322834646
        },
        {
          "duration": 0.05813953488372192,
          "durationTicks": 5,
          "midi": 86,
          "name": "D6",
          "ticks": 7416,
          "time": 86.23255813953489,
          "velocity": 0.23622047244094488
        },
        {
          "duration": 0.023255813953483084,
          "durationTicks": 2,
          "midi": 48,
          "name": "C3",
          "ticks": 7418,
          "time": 86.25581395348837,
          "velocity": 0.2755905511811024
        },
        {
          "duration": 0.25581395348837077,
          "durationTicks": 22,
          "midi": 74,
          "name": "D5",
          "ticks": 7418,
          "time": 86.25581395348837,
          "velocity": 0.2992125984251969
        },
        {
          "duration": 0.03488372093023884,
          "durationTicks": 3,
          "midi": 78,
          "name": "F#5",
          "ticks": 7418,
          "time": 86.25581395348837,
          "velocity": 0.12598425196850394
        },
        {
          "duration": 0.03488372093023884,
          "durationTicks": 3,
          "midi": 81,
          "name": "A5",
          "ticks": 7418,
          "time": 86.25581395348837,
          "velocity": 0.11811023622047244
        },
        {
          "duration": 0.03488372093023884,
          "durationTicks": 3,
          "midi": 48,
          "name": "C3",
          "ticks": 7423,
          "time": 86.31395348837209,
          "velocity": 0.2992125984251969
        },
        {
          "duration": 0.034883720930224626,
          "durationTicks": 3,
          "midi": 48,
          "name": "C3",
          "ticks": 7427,
          "time": 86.36046511627907,
          "velocity": 0.3228346456692913
        },
        {
          "duration": 0.023255813953483084,
          "durationTicks": 2,
          "midi": 48,
          "name": "C3",
          "ticks": 7432,
          "time": 86.4186046511628,
          "velocity": 0.31496062992125984
        },
        {
          "duration": 0.023255813953497295,
          "durationTicks": 2,
          "midi": 48,
          "name": "C3",
          "ticks": 7436,
          "time": 86.46511627906976,
          "velocity": 0.28346456692913385
        },
        {
          "duration": 0.03488372093023884,
          "durationTicks": 3,
          "midi": 72,
          "name": "C5",
          "ticks": 7436,
          "time": 86.46511627906976,
          "velocity": 0.25196850393700787
        },
        {
          "duration": 0.081395348837205,
          "durationTicks": 7,
          "midi": 64,
          "name": "E4",
          "ticks": 7438,
          "time": 86.48837209302326,
          "velocity": 0.36220472440944884
        },
        {
          "duration": 0.06976744186046346,
          "durationTicks": 6,
          "midi": 83,
          "name": "B5",
          "ticks": 7438,
          "time": 86.48837209302326,
          "velocity": 0.11023622047244094
        },
        {
          "duration": 0.081395348837205,
          "durationTicks": 7,
          "midi": 95,
          "name": "B6",
          "ticks": 7438,
          "time": 86.48837209302326,
          "velocity": 0.14173228346456693
        },
        {
          "duration": 0.04651162790698038,
          "durationTicks": 4,
          "midi": 96,
          "name": "C7",
          "ticks": 7438,
          "time": 86.48837209302326,
          "velocity": 0.13385826771653545
        },
        {
          "duration": 0.09302325581394655,
          "durationTicks": 8,
          "midi": 102,
          "name": "F#7",
          "ticks": 7438,
          "time": 86.48837209302326,
          "velocity": 0.2047244094488189
        },
        {
          "duration": 0.06976744186046346,
          "durationTicks": 6,
          "midi": 71,
          "name": "B4",
          "ticks": 7439,
          "time": 86.5,
          "velocity": 0.3228346456692913
        },
        {
          "duration": 0.05813953488372192,
          "durationTicks": 5,
          "midi": 94,
          "name": "A#6",
          "ticks": 7440,
          "time": 86.51162790697674,
          "velocity": 0.1732283464566929
        },
        {
          "duration": 0.023255813953483084,
          "durationTicks": 2,
          "midi": 48,
          "name": "C3",
          "ticks": 7443,
          "time": 86.54651162790698,
          "velocity": 0.33070866141732286
        },
        {
          "duration": 0.1046511627907023,
          "durationTicks": 9,
          "midi": 65,
          "name": "F4",
          "ticks": 7445,
          "time": 86.56976744186046,
          "velocity": 0.3228346456692913
        },
        {
          "duration": 0.11627906976744384,
          "durationTicks": 10,
          "midi": 72,
          "name": "C5",
          "ticks": 7445,
          "time": 86.56976744186046,
          "velocity": 0.2755905511811024
        },
        {
          "duration": 0.04651162790698038,
          "durationTicks": 4,
          "midi": 53,
          "name": "F3",
          "ticks": 7446,
          "time": 86.5813953488372,
          "velocity": 0.4409448818897638
        },
        {
          "duration": 0.05813953488372192,
          "durationTicks": 5,
          "midi": 74,
          "name": "D5",
          "ticks": 7446,
          "time": 86.5813953488372,
          "velocity": 0.11023622047244094
        },
        {
          "duration": 0.04651162790698038,
          "durationTicks": 4,
          "midi": 60,
          "name": "C4",
          "ticks": 7450,
          "time": 86.62790697674419,
          "velocity": 0.2204724409448819
        },
        {
          "duration": 0.05813953488372192,
          "durationTicks": 5,
          "midi": 41,
          "name": "F2",
          "ticks": 7451,
          "time": 86.63953488372093,
          "velocity": 0.5039370078740157
        },
        {
          "duration": 0.09302325581394655,
          "durationTicks": 8,
          "midi": 64,
          "name": "E4",
          "ticks": 7454,
          "time": 86.67441860465117,
          "velocity": 0.2677165354330709
        },
        {
          "duration": 0.16279069767441,
          "durationTicks": 14,
          "midi": 67,
          "name": "G4",
          "ticks": 7454,
          "time": 86.67441860465117,
          "velocity": 0.2047244094488189
        },
        {
          "duration": 0.19767441860464885,
          "durationTicks": 17,
          "midi": 72,
          "name": "C5",
          "ticks": 7456,
          "time": 86.69767441860465,
          "velocity": 0.23622047244094488
        },
        {
          "duration": 0.023255813953483084,
          "durationTicks": 2,
          "midi": 51,
          "name": "D#3",
          "ticks": 7458,
          "time": 86.72093023255815,
          "velocity": 0.30708661417322836
        },
        {
          "duration": 0.023255813953483084,
          "durationTicks": 2,
          "midi": 48,
          "name": "C3",
          "ticks": 7461,
          "time": 86.75581395348837,
          "velocity": 0.28346456692913385
        },
        {
          "duration": 0.19767441860464885,
          "durationTicks": 17,
          "midi": 74,
          "name": "D5",
          "ticks": 7462,
          "time": 86.76744186046511,
          "velocity": 0.3464566929133858
        },
        {
          "duration": 0.10465116279068809,
          "durationTicks": 9,
          "midi": 69,
          "name": "A4",
          "ticks": 7464,
          "time": 86.79069767441861,
          "velocity": 0.30708661417322836
        },
        {
          "duration": 0.46511627906976116,
          "durationTicks": 40,
          "midi": 62,
          "name": "D4",
          "ticks": 7466,
          "time": 86.81395348837209,
          "velocity": 0.33070866141732286
        },
        {
          "duration": 0.03488372093023884,
          "durationTicks": 3,
          "midi": 49,
          "name": "C#3",
          "ticks": 7473,
          "time": 86.8953488372093,
          "velocity": 0.3464566929133858
        },
        {
          "duration": 0.03488372093023884,
          "durationTicks": 3,
          "midi": 70,
          "name": "A#4",
          "ticks": 7473,
          "time": 86.8953488372093,
          "velocity": 0.4094488188976378
        },
        {
          "duration": 0.03488372093023884,
          "durationTicks": 3,
          "midi": 83,
          "name": "B5",
          "ticks": 7473,
          "time": 86.8953488372093,
          "velocity": 0.08661417322834646
        },
        {
          "duration": 0.09302325581394655,
          "durationTicks": 8,
          "midi": 72,
          "name": "C5",
          "ticks": 7475,
          "time": 86.9186046511628,
          "velocity": 0.13385826771653545
        },
        {
          "duration": 0.023255813953483084,
          "durationTicks": 2,
          "midi": 51,
          "name": "D#3",
          "ticks": 7476,
          "time": 86.93023255813954,
          "velocity": 0.25984251968503935
        },
        {
          "duration": 0.3139534883720927,
          "durationTicks": 27,
          "midi": 69,
          "name": "A4",
          "ticks": 7476,
          "time": 86.93023255813954,
          "velocity": 0.2283464566929134
        },
        {
          "duration": 0.03488372093023884,
          "durationTicks": 3,
          "midi": 49,
          "name": "C#3",
          "ticks": 7478,
          "time": 86.95348837209302,
          "velocity": 0.36220472440944884
        },
        {
          "duration": 0.023255813953483084,
          "durationTicks": 2,
          "midi": 52,
          "name": "E3",
          "ticks": 7482,
          "time": 87,
          "velocity": 0.31496062992125984
        },
        {
          "duration": 0.023255813953483084,
          "durationTicks": 2,
          "midi": 41,
          "name": "F2",
          "ticks": 7485,
          "time": 87.03488372093024,
          "velocity": 0.5118110236220472
        },
        {
          "duration": 0.023255813953483084,
          "durationTicks": 2,
          "midi": 51,
          "name": "D#3",
          "ticks": 7487,
          "time": 87.05813953488372,
          "velocity": 0.2440944881889764
        },
        {
          "duration": 0.023255813953497295,
          "durationTicks": 2,
          "midi": 49,
          "name": "C#3",
          "ticks": 7489,
          "time": 87.0813953488372,
          "velocity": 0.33070866141732286
        },
        {
          "duration": 0.023255813953483084,
          "durationTicks": 2,
          "midi": 50,
          "name": "D3",
          "ticks": 7491,
          "time": 87.1046511627907,
          "velocity": 0.33070866141732286
        },
        {
          "duration": 0.17441860465115155,
          "durationTicks": 15,
          "midi": 72,
          "name": "C5",
          "ticks": 7491,
          "time": 87.1046511627907,
          "velocity": 0.14173228346456693
        },
        {
          "duration": 0.03488372093023884,
          "durationTicks": 3,
          "midi": 49,
          "name": "C#3",
          "ticks": 7495,
          "time": 87.15116279069767,
          "velocity": 0.36220472440944884
        },
        {
          "duration": 0.27906976744185386,
          "durationTicks": 24,
          "midi": 74,
          "name": "D5",
          "ticks": 7496,
          "time": 87.16279069767442,
          "velocity": 0.3700787401574803
        },
        {
          "duration": 0.023255813953483084,
          "durationTicks": 2,
          "midi": 50,
          "name": "D3",
          "ticks": 7501,
          "time": 87.22093023255815,
          "velocity": 0.33858267716535434
        },
        {
          "duration": 0.023255813953497295,
          "durationTicks": 2,
          "midi": 48,
          "name": "C3",
          "ticks": 7505,
          "time": 87.26744186046511,
          "velocity": 0.31496062992125984
        },
        {
          "duration": 0.3139534883720927,
          "durationTicks": 27,
          "midi": 67,
          "name": "G4",
          "ticks": 7505,
          "time": 87.26744186046511,
          "velocity": 0.29133858267716534
        },
        {
          "duration": 0.2093023255814046,
          "durationTicks": 18,
          "midi": 76,
          "name": "E5",
          "ticks": 7505,
          "time": 87.26744186046511,
          "velocity": 0.2125984251968504
        },
        {
          "duration": 0.023255813953497295,
          "durationTicks": 2,
          "midi": 70,
          "name": "A#4",
          "ticks": 7506,
          "time": 87.27906976744185,
          "velocity": 0.3464566929133858
        },
        {
          "duration": 0.30232558139535115,
          "durationTicks": 26,
          "midi": 84,
          "name": "C6",
          "ticks": 7506,
          "time": 87.27906976744185,
          "velocity": 0.25196850393700787
        },
        {
          "duration": 0.09302325581396076,
          "durationTicks": 8,
          "midi": 90,
          "name": "F#6",
          "ticks": 7506,
          "time": 87.27906976744185,
          "velocity": 0.18110236220472442
        },
        {
          "duration": 0.04651162790698038,
          "durationTicks": 4,
          "midi": 94,
          "name": "A#6",
          "ticks": 7506,
          "time": 87.27906976744185,
          "velocity": 0.13385826771653545
        },
        {
          "duration": 0.03488372093023884,
          "durationTicks": 3,
          "midi": 103,
          "name": "G7",
          "ticks": 7506,
          "time": 87.27906976744185,
          "velocity": 0.11023622047244094
        },
        {
          "duration": 0.023255813953483084,
          "durationTicks": 2,
          "midi": 47,
          "name": "B2",
          "ticks": 7507,
          "time": 87.29069767441861,
          "velocity": 0.4015748031496063
        },
        {
          "duration": 0.30232558139533694,
          "durationTicks": 26,
          "midi": 60,
          "name": "C4",
          "ticks": 7507,
          "time": 87.29069767441861,
          "velocity": 0.3937007874015748
        },
        {
          "duration": 0.2093023255813904,
          "durationTicks": 18,
          "midi": 91,
          "name": "G6",
          "ticks": 7507,
          "time": 87.29069767441861,
          "velocity": 0.18110236220472442
        },
        {
          "duration": 0.03488372093023884,
          "durationTicks": 3,
          "midi": 92,
          "name": "G#6",
          "ticks": 7510,
          "time": 87.32558139534883,
          "velocity": 0.14173228346456693
        },
        {
          "duration": 0.22093023255814614,
          "durationTicks": 19,
          "midi": 48,
          "name": "C3",
          "ticks": 7511,
          "time": 87.33720930232558,
          "velocity": 0.4094488188976378
        },
        {
          "duration": 0.023255813953483084,
          "durationTicks": 2,
          "midi": 54,
          "name": "F#3",
          "ticks": 7529,
          "time": 87.54651162790698,
          "velocity": 0.2755905511811024
        },
        {
          "duration": 0.05813953488372192,
          "durationTicks": 5,
          "midi": 70,
          "name": "A#4",
          "ticks": 7530,
          "time": 87.55813953488372,
          "velocity": 0.30708661417322836
        },
        {
          "duration": 0.04651162790698038,
          "durationTicks": 4,
          "midi": 68,
          "name": "G#4",
          "ticks": 7532,
          "time": 87.5813953488372,
          "velocity": 0.15748031496062992
        },
        {
          "duration": 0.023255813953497295,
          "durationTicks": 2,
          "midi": 50,
          "name": "D3",
          "ticks": 7533,
          "time": 87.59302325581395,
          "velocity": 0.3779527559055118
        },
        {
          "duration": 0.03488372093023884,
          "durationTicks": 3,
          "midi": 61,
          "name": "C#4",
          "ticks": 7533,
          "time": 87.59302325581395,
          "velocity": 0.3543307086614173
        },
        {
          "duration": 0.03488372093023884,
          "durationTicks": 3,
          "midi": 77,
          "name": "F5",
          "ticks": 7533,
          "time": 87.59302325581395,
          "velocity": 0.10236220472440945
        },
        {
          "duration": 0.03488372093023884,
          "durationTicks": 3,
          "midi": 62,
          "name": "D4",
          "ticks": 7536,
          "time": 87.62790697674419,
          "velocity": 0.30708661417322836
        },
        {
          "duration": 0.023255813953497295,
          "durationTicks": 2,
          "midi": 50,
          "name": "D3",
          "ticks": 7537,
          "time": 87.63953488372093,
          "velocity": 0.3858267716535433
        },
        {
          "duration": 0.023255813953483084,
          "durationTicks": 2,
          "midi": 51,
          "name": "D#3",
          "ticks": 7539,
          "time": 87.66279069767442,
          "velocity": 0.4094488188976378
        },
        {
          "duration": 0.034883720930224626,
          "durationTicks": 3,
          "midi": 70,
          "name": "A#4",
          "ticks": 7539,
          "time": 87.66279069767442,
          "velocity": 0.12598425196850394
        },
        {
          "duration": 0.034883720930224626,
          "durationTicks": 3,
          "midi": 44,
          "name": "G#2",
          "ticks": 7540,
          "time": 87.67441860465117,
          "velocity": 0.30708661417322836
        },
        {
          "duration": 0.03488372093023884,
          "durationTicks": 3,
          "midi": 52,
          "name": "E3",
          "ticks": 7541,
          "time": 87.68604651162791,
          "velocity": 0.48031496062992124
        },
        {
          "duration": 0.03488372093023884,
          "durationTicks": 3,
          "midi": 71,
          "name": "B4",
          "ticks": 7541,
          "time": 87.68604651162791,
          "velocity": 0.1732283464566929
        },
        {
          "duration": 0.034883720930224626,
          "durationTicks": 3,
          "midi": 53,
          "name": "F3",
          "ticks": 7544,
          "time": 87.72093023255815,
          "velocity": 0.4881889763779528
        },
        {
          "duration": 0.023255813953483084,
          "durationTicks": 2,
          "midi": 64,
          "name": "E4",
          "ticks": 7546,
          "time": 87.74418604651163,
          "velocity": 0.2440944881889764
        },
        {
          "duration": 0.1046511627907023,
          "durationTicks": 9,
          "midi": 72,
          "name": "C5",
          "ticks": 7547,
          "time": 87.75581395348837,
          "velocity": 0.1968503937007874
        },
        {
          "duration": 0.05813953488372192,
          "durationTicks": 5,
          "midi": 65,
          "name": "F4",
          "ticks": 7548,
          "time": 87.76744186046511,
          "velocity": 0.2992125984251969
        },
        {
          "duration": 0.023255813953497295,
          "durationTicks": 2,
          "midi": 53,
          "name": "F3",
          "ticks": 7549,
          "time": 87.77906976744185,
          "velocity": 0.3543307086614173
        },
        {
          "duration": 0.05813953488372192,
          "durationTicks": 5,
          "midi": 59,
          "name": "B3",
          "ticks": 7549,
          "time": 87.77906976744185,
          "velocity": 0.3464566929133858
        },
        {
          "duration": 0.05813953488372192,
          "durationTicks": 5,
          "midi": 89,
          "name": "F6",
          "ticks": 7549,
          "time": 87.77906976744185,
          "velocity": 0.1732283464566929
        },
        {
          "duration": 0.6744186046511516,
          "durationTicks": 58,
          "midi": 74,
          "name": "D5",
          "ticks": 7550,
          "time": 87.79069767441861,
          "velocity": 0.3228346456692913
        },
        {
          "duration": 0.04651162790696617,
          "durationTicks": 4,
          "midi": 78,
          "name": "F#5",
          "ticks": 7550,
          "time": 87.79069767441861,
          "velocity": 0.14960629921259844
        },
        {
          "duration": 0.023255813953483084,
          "durationTicks": 2,
          "midi": 41,
          "name": "F2",
          "ticks": 7551,
          "time": 87.80232558139535,
          "velocity": 0.3700787401574803
        },
        {
          "duration": 0.023255813953483084,
          "durationTicks": 2,
          "midi": 54,
          "name": "F#3",
          "ticks": 7551,
          "time": 87.80232558139535,
          "velocity": 0.4251968503937008
        },
        {
          "duration": 0.04651162790698038,
          "durationTicks": 4,
          "midi": 55,
          "name": "G3",
          "ticks": 7553,
          "time": 87.82558139534883,
          "velocity": 0.5275590551181102
        },
        {
          "duration": 0.03488372093023884,
          "durationTicks": 3,
          "midi": 87,
          "name": "D#6",
          "ticks": 7553,
          "time": 87.82558139534883,
          "velocity": 0.07874015748031496
        },
        {
          "duration": 0.05813953488372192,
          "durationTicks": 5,
          "midi": 78,
          "name": "F#5",
          "ticks": 7555,
          "time": 87.84883720930233,
          "velocity": 0.10236220472440945
        },
        {
          "duration": 0.06976744186046346,
          "durationTicks": 6,
          "midi": 89,
          "name": "F6",
          "ticks": 7555,
          "time": 87.84883720930233,
          "velocity": 0.08661417322834646
        },
        {
          "duration": 0.034883720930224626,
          "durationTicks": 3,
          "midi": 100,
          "name": "E7",
          "ticks": 7555,
          "time": 87.84883720930233,
          "velocity": 0.09448818897637795
        },
        {
          "duration": 0.034883720930224626,
          "durationTicks": 3,
          "midi": 66,
          "name": "F#4",
          "ticks": 7556,
          "time": 87.86046511627907,
          "velocity": 0.31496062992125984
        },
        {
          "duration": 0.023255813953483084,
          "durationTicks": 2,
          "midi": 59,
          "name": "B3",
          "ticks": 7557,
          "time": 87.87209302325581,
          "velocity": 0.33070866141732286
        },
        {
          "duration": 0.03488372093023884,
          "durationTicks": 3,
          "midi": 72,
          "name": "C5",
          "ticks": 7557,
          "time": 87.87209302325581,
          "velocity": 0.1732283464566929
        },
        {
          "duration": 0.05813953488372192,
          "durationTicks": 5,
          "midi": 83,
          "name": "B5",
          "ticks": 7558,
          "time": 87.88372093023256,
          "velocity": 0.08661417322834646
        },
        {
          "duration": 0.011627906976755753,
          "durationTicks": 1,
          "midi": 54,
          "name": "F#3",
          "ticks": 7559,
          "time": 87.8953488372093,
          "velocity": 0.5196850393700787
        },
        {
          "duration": 0.023255813953497295,
          "durationTicks": 2,
          "midi": 65,
          "name": "F4",
          "ticks": 7559,
          "time": 87.8953488372093,
          "velocity": 0.25196850393700787
        },
        {
          "duration": 0.023255813953483084,
          "durationTicks": 2,
          "midi": 59,
          "name": "B3",
          "ticks": 7562,
          "time": 87.93023255813954,
          "velocity": 0.29133858267716534
        },
        {
          "duration": 0.04651162790698038,
          "durationTicks": 4,
          "midi": 66,
          "name": "F#4",
          "ticks": 7562,
          "time": 87.93023255813954,
          "velocity": 0.3779527559055118
        },
        {
          "duration": 0.081395348837205,
          "durationTicks": 7,
          "midi": 72,
          "name": "C5",
          "ticks": 7563,
          "time": 87.94186046511628,
          "velocity": 0.2125984251968504
        },
        {
          "duration": 0.3139534883720927,
          "durationTicks": 27,
          "midi": 89,
          "name": "F6",
          "ticks": 7563,
          "time": 87.94186046511628,
          "velocity": 0.1889763779527559
        },
        {
          "duration": 0.4418604651162781,
          "durationTicks": 38,
          "midi": 77,
          "name": "F5",
          "ticks": 7564,
          "time": 87.95348837209302,
          "velocity": 0.2047244094488189
        },
        {
          "duration": 0.06976744186046346,
          "durationTicks": 6,
          "midi": 87,
          "name": "D#6",
          "ticks": 7564,
          "time": 87.95348837209302,
          "velocity": 0.11023622047244094
        },
        {
          "duration": 0.03488372093023884,
          "durationTicks": 3,
          "midi": 53,
          "name": "F3",
          "ticks": 7565,
          "time": 87.96511627906976,
          "velocity": 0.5039370078740157
        },
        {
          "duration": 0.05813953488372192,
          "durationTicks": 5,
          "midi": 66,
          "name": "F#4",
          "ticks": 7568,
          "time": 88,
          "velocity": 0.3779527559055118
        },
        {
          "duration": 0.09302325581396076,
          "durationTicks": 8,
          "midi": 53,
          "name": "F3",
          "ticks": 7569,
          "time": 88.01162790697674,
          "velocity": 0.49606299212598426
        },
        {
          "duration": 0.13953488372092693,
          "durationTicks": 12,
          "midi": 72,
          "name": "C5",
          "ticks": 7571,
          "time": 88.03488372093024,
          "velocity": 0.2204724409448819
        },
        {
          "duration": 0.023255813953483084,
          "durationTicks": 2,
          "midi": 59,
          "name": "B3",
          "ticks": 7574,
          "time": 88.06976744186046,
          "velocity": 0.2440944881889764
        },
        {
          "duration": 0.023255813953497295,
          "durationTicks": 2,
          "midi": 47,
          "name": "B2",
          "ticks": 7575,
          "time": 88.0813953488372,
          "velocity": 0.3543307086614173
        },
        {
          "duration": 0.05813953488372192,
          "durationTicks": 5,
          "midi": 66,
          "name": "F#4",
          "ticks": 7575,
          "time": 88.0813953488372,
          "velocity": 0.3779527559055118
        },
        {
          "duration": 0.023255813953483084,
          "durationTicks": 2,
          "midi": 54,
          "name": "F#3",
          "ticks": 7577,
          "time": 88.1046511627907,
          "velocity": 0.4566929133858268
        },
        {
          "duration": 0.09302325581394655,
          "durationTicks": 8,
          "midi": 59,
          "name": "B3",
          "ticks": 7577,
          "time": 88.1046511627907,
          "velocity": 0.23622047244094488
        },
        {
          "duration": 0.1860465116279073,
          "durationTicks": 16,
          "midi": 87,
          "name": "D#6",
          "ticks": 7578,
          "time": 88.11627906976744,
          "velocity": 0.08661417322834646
        },
        {
          "duration": 0.023255813953483084,
          "durationTicks": 2,
          "midi": 46,
          "name": "A#2",
          "ticks": 7579,
          "time": 88.12790697674419,
          "velocity": 0.3858267716535433
        },
        {
          "duration": 0.22093023255814614,
          "durationTicks": 19,
          "midi": 53,
          "name": "F3",
          "ticks": 7579,
          "time": 88.12790697674419,
          "velocity": 0.48031496062992124
        },
        {
          "duration": 0.023255813953497295,
          "durationTicks": 2,
          "midi": 67,
          "name": "G4",
          "ticks": 7580,
          "time": 88.13953488372093,
          "velocity": 0.23622047244094488
        },
        {
          "duration": 0.03488372093023884,
          "durationTicks": 3,
          "midi": 47,
          "name": "B2",
          "ticks": 7581,
          "time": 88.15116279069767,
          "velocity": 0.36220472440944884
        },
        {
          "duration": 0.03488372093023884,
          "durationTicks": 3,
          "midi": 66,
          "name": "F#4",
          "ticks": 7581,
          "time": 88.15116279069767,
          "velocity": 0.3700787401574803
        },
        {
          "duration": 0.1860465116279073,
          "durationTicks": 16,
          "midi": 84,
          "name": "C6",
          "ticks": 7583,
          "time": 88.17441860465117,
          "velocity": 0.25196850393700787
        },
        {
          "duration": 0.1046511627907023,
          "durationTicks": 9,
          "midi": 59,
          "name": "B3",
          "ticks": 7586,
          "time": 88.20930232558139,
          "velocity": 0.14960629921259844
        },
        {
          "duration": 0.023255813953497295,
          "durationTicks": 2,
          "midi": 66,
          "name": "F#4",
          "ticks": 7586,
          "time": 88.20930232558139,
          "velocity": 0.3779527559055118
        },
        {
          "duration": 0.12790697674418539,
          "durationTicks": 11,
          "midi": 72,
          "name": "C5",
          "ticks": 7586,
          "time": 88.20930232558139,
          "velocity": 0.2204724409448819
        },
        {
          "duration": 0.04651162790696617,
          "durationTicks": 4,
          "midi": 47,
          "name": "B2",
          "ticks": 7588,
          "time": 88.23255813953489,
          "velocity": 0.36220472440944884
        },
        {
          "duration": 0.034883720930224626,
          "durationTicks": 3,
          "midi": 66,
          "name": "F#4",
          "ticks": 7589,
          "time": 88.24418604651163,
          "velocity": 0.36220472440944884
        },
        {
          "duration": 0.05813953488372192,
          "durationTicks": 5,
          "midi": 47,
          "name": "B2",
          "ticks": 7593,
          "time": 88.29069767441861,
          "velocity": 0.3543307086614173
        },
        {
          "duration": 0.03488372093023884,
          "durationTicks": 3,
          "midi": 87,
          "name": "D#6",
          "ticks": 7596,
          "time": 88.32558139534883,
          "velocity": 0.16535433070866143
        },
        {
          "duration": 0.03488372093023884,
          "durationTicks": 3,
          "midi": 95,
          "name": "B6",
          "ticks": 7596,
          "time": 88.32558139534883,
          "velocity": 0.14173228346456693
        },
        {
          "duration": 0.04651162790698038,
          "durationTicks": 4,
          "midi": 70,
          "name": "A#4",
          "ticks": 7597,
          "time": 88.33720930232558,
          "velocity": 0.3937007874015748
        },
        {
          "duration": 0.05813953488372192,
          "durationTicks": 5,
          "midi": 83,
          "name": "B5",
          "ticks": 7597,
          "time": 88.33720930232558,
          "velocity": 0.14173228346456693
        },
        {
          "duration": 0.034883720930224626,
          "durationTicks": 3,
          "midi": 75,
          "name": "D#5",
          "ticks": 7598,
          "time": 88.34883720930233,
          "velocity": 0.1968503937007874
        },
        {
          "duration": 0.034883720930224626,
          "durationTicks": 3,
          "midi": 53,
          "name": "F3",
          "ticks": 7599,
          "time": 88.36046511627907,
          "velocity": 0.4566929133858268
        },
        {
          "duration": 0.023255813953497295,
          "durationTicks": 2,
          "midi": 71,
          "name": "B4",
          "ticks": 7601,
          "time": 88.38372093023256,
          "velocity": 0.23622047244094488
        },
        {
          "duration": 0.023255813953497295,
          "durationTicks": 2,
          "midi": 52,
          "name": "E3",
          "ticks": 7602,
          "time": 88.3953488372093,
          "velocity": 0.4566929133858268
        },
        {
          "duration": 0.24418604651161502,
          "durationTicks": 21,
          "midi": 72,
          "name": "C5",
          "ticks": 7603,
          "time": 88.40697674418605,
          "velocity": 0.25984251968503935
        },
        {
          "duration": 0.06976744186046346,
          "durationTicks": 6,
          "midi": 53,
          "name": "F3",
          "ticks": 7604,
          "time": 88.4186046511628,
          "velocity": 0.4881889763779528
        },
        {
          "duration": 0.06976744186046346,
          "durationTicks": 6,
          "midi": 89,
          "name": "F6",
          "ticks": 7604,
          "time": 88.4186046511628,
          "velocity": 0.11023622047244094
        },
        {
          "duration": 0.023255813953497295,
          "durationTicks": 2,
          "midi": 66,
          "name": "F#4",
          "ticks": 7607,
          "time": 88.45348837209302,
          "velocity": 0.3228346456692913
        },
        {
          "duration": 0.034883720930224626,
          "durationTicks": 3,
          "midi": 47,
          "name": "B2",
          "ticks": 7609,
          "time": 88.47674418604652,
          "velocity": 0.4251968503937008
        },
        {
          "duration": 0.2093023255813904,
          "durationTicks": 18,
          "midi": 87,
          "name": "D#6",
          "ticks": 7610,
          "time": 88.48837209302326,
          "velocity": 0.1889763779527559
        },
        {
          "duration": 0.03488372093023884,
          "durationTicks": 3,
          "midi": 53,
          "name": "F3",
          "ticks": 7612,
          "time": 88.51162790697674,
          "velocity": 0.4251968503937008
        },
        {
          "duration": 0.023255813953483084,
          "durationTicks": 2,
          "midi": 46,
          "name": "A#2",
          "ticks": 7615,
          "time": 88.54651162790698,
          "velocity": 0.3464566929133858
        },
        {
          "duration": 0.023255813953483084,
          "durationTicks": 2,
          "midi": 54,
          "name": "F#3",
          "ticks": 7615,
          "time": 88.54651162790698,
          "velocity": 0.3464566929133858
        },
        {
          "duration": 0.034883720930224626,
          "durationTicks": 3,
          "midi": 74,
          "name": "D5",
          "ticks": 7615,
          "time": 88.54651162790698,
          "velocity": 0.08661417322834646
        },
        {
          "duration": 0.2906976744185954,
          "durationTicks": 25,
          "midi": 89,
          "name": "F6",
          "ticks": 7615,
          "time": 88.54651162790698,
          "velocity": 0.25984251968503935
        },
        {
          "duration": 0.023255813953483084,
          "durationTicks": 2,
          "midi": 48,
          "name": "C3",
          "ticks": 7617,
          "time": 88.56976744186046,
          "velocity": 0.33858267716535434
        },
        {
          "duration": 0.1860465116279073,
          "durationTicks": 16,
          "midi": 53,
          "name": "F3",
          "ticks": 7617,
          "time": 88.56976744186046,
          "velocity": 0.47244094488188976
        },
        {
          "duration": 0.04651162790698038,
          "durationTicks": 4,
          "midi": 91,
          "name": "G6",
          "ticks": 7618,
          "time": 88.5813953488372,
          "velocity": 0.07874015748031496
        },
        {
          "duration": 0.034883720930224626,
          "durationTicks": 3,
          "midi": 47,
          "name": "B2",
          "ticks": 7620,
          "time": 88.6046511627907,
          "velocity": 0.3779527559055118
        },
        {
          "duration": 0.04651162790698038,
          "durationTicks": 4,
          "midi": 84,
          "name": "C6",
          "ticks": 7624,
          "time": 88.65116279069767,
          "velocity": 0.07086614173228346
        },
        {
          "duration": 0.22093023255813193,
          "durationTicks": 19,
          "midi": 72,
          "name": "C5",
          "ticks": 7625,
          "time": 88.66279069767442,
          "velocity": 0.2125984251968504
        },
        {
          "duration": 0.023255813953497295,
          "durationTicks": 2,
          "midi": 47,
          "name": "B2",
          "ticks": 7628,
          "time": 88.69767441860465,
          "velocity": 0.36220472440944884
        },
        {
          "duration": 0.034883720930224626,
          "durationTicks": 3,
          "midi": 61,
          "name": "C#4",
          "ticks": 7631,
          "time": 88.73255813953489,
          "velocity": 0.18110236220472442
        },
        {
          "duration": 0.034883720930224626,
          "durationTicks": 3,
          "midi": 41,
          "name": "F2",
          "ticks": 7632,
          "time": 88.74418604651163,
          "velocity": 0.5118110236220472
        },
        {
          "duration": 0.034883720930224626,
          "durationTicks": 3,
          "midi": 47,
          "name": "B2",
          "ticks": 7646,
          "time": 88.90697674418605,
          "velocity": 0.33070866141732286
        },
        {
          "duration": 0.034883720930224626,
          "durationTicks": 3,
          "midi": 70,
          "name": "A#4",
          "ticks": 7652,
          "time": 88.97674418604652,
          "velocity": 0.3858267716535433
        },
        {
          "duration": 0.034883720930224626,
          "durationTicks": 3,
          "midi": 74,
          "name": "D5",
          "ticks": 7652,
          "time": 88.97674418604652,
          "velocity": 0.3700787401574803
        },
        {
          "duration": 0.023255813953497295,
          "durationTicks": 2,
          "midi": 73,
          "name": "C#5",
          "ticks": 7655,
          "time": 89.01162790697674,
          "velocity": 0.2283464566929134
        },
        {
          "duration": 0.03488372093023884,
          "durationTicks": 3,
          "midi": 75,
          "name": "D#5",
          "ticks": 7655,
          "time": 89.01162790697674,
          "velocity": 0.2125984251968504
        },
        {
          "duration": 0.1046511627907023,
          "durationTicks": 9,
          "midi": 72,
          "name": "C5",
          "ticks": 7656,
          "time": 89.02325581395348,
          "velocity": 0.14960629921259844
        },
        {
          "duration": 0.05813953488372192,
          "durationTicks": 5,
          "midi": 89,
          "name": "F6",
          "ticks": 7656,
          "time": 89.02325581395348,
          "velocity": 0.07874015748031496
        },
        {
          "duration": 0.023255813953483084,
          "durationTicks": 2,
          "midi": 44,
          "name": "G#2",
          "ticks": 7664,
          "time": 89.11627906976744,
          "velocity": 0.5039370078740157
        },
        {
          "duration": 0.023255813953497295,
          "durationTicks": 2,
          "midi": 41,
          "name": "F2",
          "ticks": 7666,
          "time": 89.13953488372093,
          "velocity": 0.5118110236220472
        },
        {
          "duration": 0.22093023255813193,
          "durationTicks": 19,
          "midi": 72,
          "name": "C5",
          "ticks": 7668,
          "time": 89.16279069767442,
          "velocity": 0.2047244094488189
        },
        {
          "duration": 0.2325581395348877,
          "durationTicks": 20,
          "midi": 87,
          "name": "D#6",
          "ticks": 7669,
          "time": 89.17441860465117,
          "velocity": 0.11811023622047244
        },
        {
          "duration": 0.11627906976744384,
          "durationTicks": 10,
          "midi": 89,
          "name": "F6",
          "ticks": 7670,
          "time": 89.18604651162791,
          "velocity": 0.11023622047244094
        },
        {
          "duration": 0.03488372093023884,
          "durationTicks": 3,
          "midi": 45,
          "name": "A2",
          "ticks": 7671,
          "time": 89.19767441860465,
          "velocity": 0.3228346456692913
        },
        {
          "duration": 0.09302325581396076,
          "durationTicks": 8,
          "midi": 89,
          "name": "F6",
          "ticks": 7682,
          "time": 89.32558139534883,
          "velocity": 0.1889763779527559
        },
        {
          "duration": 0.3720930232558146,
          "durationTicks": 32,
          "midi": 53,
          "name": "F3",
          "ticks": 7684,
          "time": 89.34883720930233,
          "velocity": 0.4881889763779528
        },
        {
          "duration": 0.081395348837205,
          "durationTicks": 7,
          "midi": 74,
          "name": "D5",
          "ticks": 7686,
          "time": 89.37209302325581,
          "velocity": 0.33858267716535434
        },
        {
          "duration": 0.023255813953497295,
          "durationTicks": 2,
          "midi": 46,
          "name": "A#2",
          "ticks": 7687,
          "time": 89.38372093023256,
          "velocity": 0.3228346456692913
        },
        {
          "duration": 0.03488372093023884,
          "durationTicks": 3,
          "midi": 70,
          "name": "A#4",
          "ticks": 7687,
          "time": 89.38372093023256,
          "velocity": 0.4409448818897638
        },
        {
          "duration": 0.03488372093023884,
          "durationTicks": 3,
          "midi": 81,
          "name": "A5",
          "ticks": 7687,
          "time": 89.38372093023256,
          "velocity": 0.14173228346456693
        },
        {
          "duration": 0.023255813953483084,
          "durationTicks": 2,
          "midi": 71,
          "name": "B4",
          "ticks": 7689,
          "time": 89.40697674418605,
          "velocity": 0.3543307086614173
        },
        {
          "duration": 0.034883720930224626,
          "durationTicks": 3,
          "midi": 70,
          "name": "A#4",
          "ticks": 7691,
          "time": 89.43023255813954,
          "velocity": 0.14960629921259844
        },
        {
          "duration": 0.10465116279068809,
          "durationTicks": 9,
          "midi": 72,
          "name": "C5",
          "ticks": 7695,
          "time": 89.47674418604652,
          "velocity": 0.18110236220472442
        },
        {
          "duration": 0.04651162790698038,
          "durationTicks": 4,
          "midi": 89,
          "name": "F6",
          "ticks": 7696,
          "time": 89.48837209302326,
          "velocity": 0.13385826771653545
        },
        {
          "duration": 0.03488372093023884,
          "durationTicks": 3,
          "midi": 46,
          "name": "A#2",
          "ticks": 7697,
          "time": 89.5,
          "velocity": 0.31496062992125984
        },
        {
          "duration": 0.023255813953483084,
          "durationTicks": 2,
          "midi": 46,
          "name": "A#2",
          "ticks": 7702,
          "time": 89.55813953488372,
          "velocity": 0.3228346456692913
        },
        {
          "duration": 0.05813953488372192,
          "durationTicks": 5,
          "midi": 72,
          "name": "C5",
          "ticks": 7706,
          "time": 89.6046511627907,
          "velocity": 0.2283464566929134
        },
        {
          "duration": 0.09302325581396076,
          "durationTicks": 8,
          "midi": 89,
          "name": "F6",
          "ticks": 7708,
          "time": 89.62790697674419,
          "velocity": 0.12598425196850394
        },
        {
          "duration": 0.034883720930224626,
          "durationTicks": 3,
          "midi": 71,
          "name": "B4",
          "ticks": 7711,
          "time": 89.66279069767442,
          "velocity": 0.2204724409448819
        },
        {
          "duration": 0.03488372093023884,
          "durationTicks": 3,
          "midi": 42,
          "name": "F#2",
          "ticks": 7713,
          "time": 89.68604651162791,
          "velocity": 0.2047244094488189
        },
        {
          "duration": 0.023255813953483084,
          "durationTicks": 2,
          "midi": 44,
          "name": "G#2",
          "ticks": 7716,
          "time": 89.72093023255815,
          "velocity": 0.25984251968503935
        },
        {
          "duration": 0.05813953488372192,
          "durationTicks": 5,
          "midi": 53,
          "name": "F3",
          "ticks": 7717,
          "time": 89.73255813953489,
          "velocity": 0.4566929133858268
        },
        {
          "duration": 0.06976744186047767,
          "durationTicks": 6,
          "midi": 42,
          "name": "F#2",
          "ticks": 7721,
          "time": 89.77906976744185,
          "velocity": 0.3228346456692913
        },
        {
          "duration": 0.023255813953497295,
          "durationTicks": 2,
          "midi": 70,
          "name": "A#4",
          "ticks": 7721,
          "time": 89.77906976744185,
          "velocity": 0.2283464566929134
        },
        {
          "duration": 0.023255813953483084,
          "durationTicks": 2,
          "midi": 52,
          "name": "E3",
          "ticks": 7722,
          "time": 89.79069767441861,
          "velocity": 0.47244094488188976
        },
        {
          "duration": 0.05813953488372192,
          "durationTicks": 5,
          "midi": 65,
          "name": "F4",
          "ticks": 7722,
          "time": 89.79069767441861,
          "velocity": 0.2992125984251969
        },
        {
          "duration": 0.04651162790696617,
          "durationTicks": 4,
          "midi": 72,
          "name": "C5",
          "ticks": 7722,
          "time": 89.79069767441861,
          "velocity": 0.14173228346456693
        },
        {
          "duration": 0.38372093023255616,
          "durationTicks": 33,
          "midi": 89,
          "name": "F6",
          "ticks": 7722,
          "time": 89.79069767441861,
          "velocity": 0.15748031496062992
        },
        {
          "duration": 0.03488372093023884,
          "durationTicks": 3,
          "midi": 53,
          "name": "F3",
          "ticks": 7724,
          "time": 89.81395348837209,
          "velocity": 0.48031496062992124
        },
        {
          "duration": 0.17441860465116577,
          "durationTicks": 15,
          "midi": 84,
          "name": "C6",
          "ticks": 7724,
          "time": 89.81395348837209,
          "velocity": 0.14173228346456693
        },
        {
          "duration": 0.023255813953483084,
          "durationTicks": 2,
          "midi": 54,
          "name": "F#3",
          "ticks": 7727,
          "time": 89.84883720930233,
          "velocity": 0.3858267716535433
        },
        {
          "duration": 0.09302325581394655,
          "durationTicks": 8,
          "midi": 72,
          "name": "C5",
          "ticks": 7727,
          "time": 89.84883720930233,
          "velocity": 0.25196850393700787
        },
        {
          "duration": 0.5581395348837219,
          "durationTicks": 48,
          "midi": 87,
          "name": "D#6",
          "ticks": 7727,
          "time": 89.84883720930233,
          "velocity": 0.13385826771653545
        },
        {
          "duration": 0.023255813953483084,
          "durationTicks": 2,
          "midi": 45,
          "name": "A2",
          "ticks": 7728,
          "time": 89.86046511627907,
          "velocity": 0.29133858267716534
        },
        {
          "duration": 0.10465116279068809,
          "durationTicks": 9,
          "midi": 65,
          "name": "F4",
          "ticks": 7728,
          "time": 89.86046511627907,
          "velocity": 0.3228346456692913
        },
        {
          "duration": 0.1046511627907023,
          "durationTicks": 9,
          "midi": 53,
          "name": "F3",
          "ticks": 7729,
          "time": 89.87209302325581,
          "velocity": 0.5196850393700787
        },
        {
          "duration": 0.023255813953483084,
          "durationTicks": 2,
          "midi": 60,
          "name": "C4",
          "ticks": 7732,
          "time": 89.90697674418605,
          "velocity": 0.2440944881889764
        },
        {
          "duration": 0.30232558139533694,
          "durationTicks": 26,
          "midi": 74,
          "name": "D5",
          "ticks": 7732,
          "time": 89.90697674418605,
          "velocity": 0.2440944881889764
        },
        {
          "duration": 0.023255813953483084,
          "durationTicks": 2,
          "midi": 63,
          "name": "D#4",
          "ticks": 7733,
          "time": 89.9186046511628,
          "velocity": 0.29133858267716534
        },
        {
          "duration": 0.06976744186046346,
          "durationTicks": 6,
          "midi": 81,
          "name": "A5",
          "ticks": 7733,
          "time": 89.9186046511628,
          "velocity": 0.18110236220472442
        },
        {
          "duration": 0.023255813953483084,
          "durationTicks": 2,
          "midi": 59,
          "name": "B3",
          "ticks": 7734,
          "time": 89.93023255813954,
          "velocity": 0.28346456692913385
        },
        {
          "duration": 0.09302325581394655,
          "durationTicks": 8,
          "midi": 79,
          "name": "G5",
          "ticks": 7734,
          "time": 89.93023255813954,
          "velocity": 0.15748031496062992
        },
        {
          "duration": 0.034883720930224626,
          "durationTicks": 3,
          "midi": 83,
          "name": "B5",
          "ticks": 7734,
          "time": 89.93023255813954,
          "velocity": 0.10236220472440945
        },
        {
          "duration": 1.2674418604651123,
          "durationTicks": 109,
          "midi": 62,
          "name": "D4",
          "ticks": 7735,
          "time": 89.94186046511628,
          "velocity": 0.3858267716535433
        },
        {
          "duration": 0.023255813953497295,
          "durationTicks": 2,
          "midi": 42,
          "name": "F#2",
          "ticks": 7736,
          "time": 89.95348837209302,
          "velocity": 0.25984251968503935
        },
        {
          "duration": 0.25581395348837077,
          "durationTicks": 22,
          "midi": 72,
          "name": "C5",
          "ticks": 7736,
          "time": 89.95348837209302,
          "velocity": 0.2677165354330709
        },
        {
          "duration": 0.023255813953483084,
          "durationTicks": 2,
          "midi": 52,
          "name": "E3",
          "ticks": 7738,
          "time": 89.97674418604652,
          "velocity": 0.4566929133858268
        },
        {
          "duration": 0.023255813953483084,
          "durationTicks": 2,
          "midi": 43,
          "name": "G2",
          "ticks": 7740,
          "time": 90,
          "velocity": 0.2992125984251969
        },
        {
          "duration": 0.023255813953483084,
          "durationTicks": 2,
          "midi": 53,
          "name": "F3",
          "ticks": 7740,
          "time": 90,
          "velocity": 0.4566929133858268
        },
        {
          "duration": 0.034883720930224626,
          "durationTicks": 3,
          "midi": 53,
          "name": "F3",
          "ticks": 7743,
          "time": 90.03488372093024,
          "velocity": 0.4251968503937008
        },
        {
          "duration": 0.05813953488372192,
          "durationTicks": 5,
          "midi": 81,
          "name": "A5",
          "ticks": 7744,
          "time": 90.04651162790698,
          "velocity": 0.07874015748031496
        },
        {
          "duration": 0.023255813953483084,
          "durationTicks": 2,
          "midi": 44,
          "name": "G#2",
          "ticks": 7745,
          "time": 90.05813953488372,
          "velocity": 0.2992125984251969
        },
        {
          "duration": 0.023255813953497295,
          "durationTicks": 2,
          "midi": 43,
          "name": "G2",
          "ticks": 7747,
          "time": 90.0813953488372,
          "velocity": 0.28346456692913385
        },
        {
          "duration": 0.17441860465116577,
          "durationTicks": 15,
          "midi": 53,
          "name": "F3",
          "ticks": 7747,
          "time": 90.0813953488372,
          "velocity": 0.4015748031496063
        },
        {
          "duration": 0.023255813953483084,
          "durationTicks": 2,
          "midi": 59,
          "name": "B3",
          "ticks": 7749,
          "time": 90.1046511627907,
          "velocity": 0.25196850393700787
        },
        {
          "duration": 0.023255813953497295,
          "durationTicks": 2,
          "midi": 43,
          "name": "G2",
          "ticks": 7753,
          "time": 90.15116279069767,
          "velocity": 0.2283464566929134
        },
        {
          "duration": 0.24418604651162923,
          "durationTicks": 21,
          "midi": 81,
          "name": "A5",
          "ticks": 7754,
          "time": 90.16279069767442,
          "velocity": 0.16535433070866143
        },
        {
          "duration": 0.023255813953483084,
          "durationTicks": 2,
          "midi": 44,
          "name": "G#2",
          "ticks": 7755,
          "time": 90.17441860465117,
          "velocity": 0.29133858267716534
        },
        {
          "duration": 0.034883720930224626,
          "durationTicks": 3,
          "midi": 66,
          "name": "F#4",
          "ticks": 7755,
          "time": 90.17441860465117,
          "velocity": 0.33858267716535434
        },
        {
          "duration": 0.023255813953497295,
          "durationTicks": 2,
          "midi": 73,
          "name": "C#5",
          "ticks": 7758,
          "time": 90.20930232558139,
          "velocity": 0.2755905511811024
        },
        {
          "duration": 0.16279069767441,
          "durationTicks": 14,
          "midi": 72,
          "name": "C5",
          "ticks": 7760,
          "time": 90.23255813953489,
          "velocity": 0.2992125984251969
        },
        {
          "duration": 0.034883720930224626,
          "durationTicks": 3,
          "midi": 66,
          "name": "F#4",
          "ticks": 7761,
          "time": 90.24418604651163,
          "velocity": 0.33858267716535434
        },
        {
          "duration": 0.16279069767442422,
          "durationTicks": 14,
          "midi": 77,
          "name": "F5",
          "ticks": 7761,
          "time": 90.24418604651163,
          "velocity": 0.14960629921259844
        },
        {
          "duration": 0.023255813953483084,
          "durationTicks": 2,
          "midi": 44,
          "name": "G#2",
          "ticks": 7762,
          "time": 90.25581395348837,
          "velocity": 0.29133858267716534
        },
        {
          "duration": 0.023255813953497295,
          "durationTicks": 2,
          "midi": 43,
          "name": "G2",
          "ticks": 7764,
          "time": 90.27906976744185,
          "velocity": 0.28346456692913385
        },
        {
          "duration": 0.03488372093023884,
          "durationTicks": 3,
          "midi": 65,
          "name": "F4",
          "ticks": 7764,
          "time": 90.27906976744185,
          "velocity": 0.29133858267716534
        },
        {
          "duration": 0.034883720930224626,
          "durationTicks": 3,
          "midi": 66,
          "name": "F#4",
          "ticks": 7765,
          "time": 90.29069767441861,
          "velocity": 0.31496062992125984
        },
        {
          "duration": 0.03488372093023884,
          "durationTicks": 3,
          "midi": 65,
          "name": "F4",
          "ticks": 7768,
          "time": 90.32558139534883,
          "velocity": 0.28346456692913385
        },
        {
          "duration": 0.023255813953497295,
          "durationTicks": 2,
          "midi": 44,
          "name": "G#2",
          "ticks": 7769,
          "time": 90.33720930232558,
          "velocity": 0.30708661417322836
        },
        {
          "duration": 0.023255813953483084,
          "durationTicks": 2,
          "midi": 43,
          "name": "G2",
          "ticks": 7771,
          "time": 90.36046511627907,
          "velocity": 0.2992125984251969
        },
        {
          "duration": 0.023255813953497295,
          "durationTicks": 2,
          "midi": 66,
          "name": "F#4",
          "ticks": 7773,
          "time": 90.38372093023256,
          "velocity": 0.31496062992125984
        },
        {
          "duration": 0.03488372093023884,
          "durationTicks": 3,
          "midi": 73,
          "name": "C#5",
          "ticks": 7774,
          "time": 90.3953488372093,
          "velocity": 0.30708661417322836
        },
        {
          "duration": 0.034883720930224626,
          "durationTicks": 3,
          "midi": 59,
          "name": "B3",
          "ticks": 7775,
          "time": 90.40697674418605,
          "velocity": 0.18110236220472442
        },
        {
          "duration": 0.04651162790696617,
          "durationTicks": 4,
          "midi": 86,
          "name": "D6",
          "ticks": 7775,
          "time": 90.40697674418605,
          "velocity": 0.1889763779527559
        },
        {
          "duration": 0.023255813953483084,
          "durationTicks": 2,
          "midi": 70,
          "name": "A#4",
          "ticks": 7776,
          "time": 90.4186046511628,
          "velocity": 0.3464566929133858
        },
        {
          "duration": 0.05813953488372192,
          "durationTicks": 5,
          "midi": 84,
          "name": "C6",
          "ticks": 7776,
          "time": 90.4186046511628,
          "velocity": 0.1732283464566929
        },
        {
          "duration": 0.034883720930224626,
          "durationTicks": 3,
          "midi": 88,
          "name": "E6",
          "ticks": 7776,
          "time": 90.4186046511628,
          "velocity": 0.12598425196850394
        },
        {
          "duration": 0.034883720930224626,
          "durationTicks": 3,
          "midi": 99,
          "name": "D#7",
          "ticks": 7776,
          "time": 90.4186046511628,
          "velocity": 0.11811023622047244
        },
        {
          "duration": 0.7790697674418539,
          "durationTicks": 67,
          "midi": 55,
          "name": "G3",
          "ticks": 7777,
          "time": 90.43023255813954,
          "velocity": 0.33858267716535434
        },
        {
          "duration": 0.04651162790698038,
          "durationTicks": 4,
          "midi": 66,
          "name": "F#4",
          "ticks": 7777,
          "time": 90.43023255813954,
          "velocity": 0.2755905511811024
        },
        {
          "duration": 0.023255813953483084,
          "durationTicks": 2,
          "midi": 74,
          "name": "D5",
          "ticks": 7777,
          "time": 90.43023255813954,
          "velocity": 0.3937007874015748
        },
        {
          "duration": 0.034883720930224626,
          "durationTicks": 3,
          "midi": 81,
          "name": "A5",
          "ticks": 7777,
          "time": 90.43023255813954,
          "velocity": 0.2047244094488189
        },
        {
          "duration": 0.034883720930224626,
          "durationTicks": 3,
          "midi": 87,
          "name": "D#6",
          "ticks": 7777,
          "time": 90.43023255813954,
          "velocity": 0.16535433070866143
        },
        {
          "duration": 0.023255813953483084,
          "durationTicks": 2,
          "midi": 71,
          "name": "B4",
          "ticks": 7778,
          "time": 90.44186046511628,
          "velocity": 0.23622047244094488
        },
        {
          "duration": 0.023255813953497295,
          "durationTicks": 2,
          "midi": 73,
          "name": "C#5",
          "ticks": 7779,
          "time": 90.45348837209302,
          "velocity": 0.2755905511811024
        },
        {
          "duration": 0.11627906976744384,
          "durationTicks": 10,
          "midi": 65,
          "name": "F4",
          "ticks": 7780,
          "time": 90.46511627906976,
          "velocity": 0.2755905511811024
        },
        {
          "duration": 0.11627906976742963,
          "durationTicks": 10,
          "midi": 72,
          "name": "C5",
          "ticks": 7781,
          "time": 90.47674418604652,
          "velocity": 0.2204724409448819
        },
        {
          "duration": 0.12790697674418539,
          "durationTicks": 11,
          "midi": 81,
          "name": "A5",
          "ticks": 7782,
          "time": 90.48837209302326,
          "velocity": 0.11023622047244094
        },
        {
          "duration": 0.023255813953483084,
          "durationTicks": 2,
          "midi": 43,
          "name": "G2",
          "ticks": 7788,
          "time": 90.55813953488372,
          "velocity": 0.25196850393700787
        },
        {
          "duration": 0.023255813953497295,
          "durationTicks": 2,
          "midi": 66,
          "name": "F#4",
          "ticks": 7790,
          "time": 90.5813953488372,
          "velocity": 0.2755905511811024
        },
        {
          "duration": 0.08139534883721922,
          "durationTicks": 7,
          "midi": 73,
          "name": "C#5",
          "ticks": 7791,
          "time": 90.59302325581395,
          "velocity": 0.23622047244094488
        },
        {
          "duration": 0.023255813953497295,
          "durationTicks": 2,
          "midi": 66,
          "name": "F#4",
          "ticks": 7795,
          "time": 90.63953488372093,
          "velocity": 0.23622047244094488
        },
        {
          "duration": 0.034883720930224626,
          "durationTicks": 3,
          "midi": 72,
          "name": "C5",
          "ticks": 7798,
          "time": 90.67441860465117,
          "velocity": 0.1732283464566929
        },
        {
          "duration": 0.03488372093023884,
          "durationTicks": 3,
          "midi": 65,
          "name": "F4",
          "ticks": 7799,
          "time": 90.68604651162791,
          "velocity": 0.2047244094488189
        },
        {
          "duration": 0.034883720930224626,
          "durationTicks": 3,
          "midi": 72,
          "name": "C5",
          "ticks": 7802,
          "time": 90.72093023255815,
          "velocity": 0.09448818897637795
        },
        {
          "duration": 0.023255813953483084,
          "durationTicks": 2,
          "midi": 44,
          "name": "G#2",
          "ticks": 7803,
          "time": 90.73255813953489,
          "velocity": 0.25984251968503935
        },
        {
          "duration": 0.034883720930224626,
          "durationTicks": 3,
          "midi": 72,
          "name": "C5",
          "ticks": 7808,
          "time": 90.79069767441861,
          "velocity": 0.16535433070866143
        },
        {
          "duration": 0.06976744186046346,
          "durationTicks": 6,
          "midi": 73,
          "name": "C#5",
          "ticks": 7811,
          "time": 90.82558139534883,
          "velocity": 0.14960629921259844
        },
        {
          "duration": 0.03488372093023884,
          "durationTicks": 3,
          "midi": 65,
          "name": "F4",
          "ticks": 7812,
          "time": 90.83720930232558,
          "velocity": 0.1732283464566929
        },
        {
          "duration": 0.05813953488372192,
          "durationTicks": 5,
          "midi": 42,
          "name": "F#2",
          "ticks": 7813,
          "time": 90.84883720930233,
          "velocity": 0.4094488188976378
        },
        {
          "duration": 0.03488372093023884,
          "durationTicks": 3,
          "midi": 65,
          "name": "F4",
          "ticks": 7816,
          "time": 90.88372093023256,
          "velocity": 0.14960629921259844
        },
        {
          "duration": 0.05813953488372192,
          "durationTicks": 5,
          "midi": 65,
          "name": "F4",
          "ticks": 7824,
          "time": 90.97674418604652,
          "velocity": 0.14960629921259844
        },
        {
          "duration": 0.04651162790698038,
          "durationTicks": 4,
          "midi": 70,
          "name": "A#4",
          "ticks": 7832,
          "time": 91.06976744186046,
          "velocity": 0.4566929133858268
        },
        {
          "duration": 0.04651162790698038,
          "durationTicks": 4,
          "midi": 65,
          "name": "F4",
          "ticks": 7833,
          "time": 91.0813953488372,
          "velocity": 0.1732283464566929
        },
        {
          "duration": 0.034883720930224626,
          "durationTicks": 3,
          "midi": 71,
          "name": "B4",
          "ticks": 7835,
          "time": 91.1046511627907,
          "velocity": 0.25984251968503935
        },
        {
          "duration": 0.04651162790698038,
          "durationTicks": 4,
          "midi": 65,
          "name": "F4",
          "ticks": 7841,
          "time": 91.17441860465117,
          "velocity": 0.1732283464566929
        },
        {
          "duration": 0.011627906976741542,
          "durationTicks": 1,
          "midi": 42,
          "name": "F#2",
          "ticks": 7845,
          "time": 91.22093023255815,
          "velocity": 0.5275590551181102
        },
        {
          "duration": 0.2906976744185954,
          "durationTicks": 25,
          "midi": 62,
          "name": "D4",
          "ticks": 7845,
          "time": 91.22093023255815,
          "velocity": 0.2992125984251969
        },
        {
          "duration": 0.011627906976741542,
          "durationTicks": 1,
          "midi": 41,
          "name": "F2",
          "ticks": 7846,
          "time": 91.23255813953489,
          "velocity": 0.5118110236220472
        },
        {
          "duration": 0.12790697674418539,
          "durationTicks": 11,
          "midi": 91,
          "name": "G6",
          "ticks": 7846,
          "time": 91.23255813953489,
          "velocity": 0.3543307086614173
        },
        {
          "duration": 0.023255813953483084,
          "durationTicks": 2,
          "midi": 41,
          "name": "F2",
          "ticks": 7848,
          "time": 91.25581395348837,
          "velocity": 0.3464566929133858
        },
        {
          "duration": 0.24418604651162923,
          "durationTicks": 21,
          "midi": 55,
          "name": "G3",
          "ticks": 7848,
          "time": 91.25581395348837,
          "velocity": 0.3228346456692913
        },
        {
          "duration": 0.023255813953497295,
          "durationTicks": 2,
          "midi": 70,
          "name": "A#4",
          "ticks": 7866,
          "time": 91.46511627906976,
          "velocity": 0.4330708661417323
        },
        {
          "duration": 0.04651162790698038,
          "durationTicks": 4,
          "midi": 74,
          "name": "D5",
          "ticks": 7866,
          "time": 91.46511627906976,
          "velocity": 0.3543307086614173
        },
        {
          "duration": 0.05813953488372192,
          "durationTicks": 5,
          "midi": 79,
          "name": "G5",
          "ticks": 7866,
          "time": 91.46511627906976,
          "velocity": 0.18110236220472442
        },
        {
          "duration": 0.05813953488372192,
          "durationTicks": 5,
          "midi": 83,
          "name": "B5",
          "ticks": 7866,
          "time": 91.46511627906976,
          "velocity": 0.29133858267716534
        },
        {
          "duration": 0.034883720930224626,
          "durationTicks": 3,
          "midi": 71,
          "name": "B4",
          "ticks": 7868,
          "time": 91.48837209302326,
          "velocity": 0.36220472440944884
        },
        {
          "duration": 0.06976744186046346,
          "durationTicks": 6,
          "midi": 77,
          "name": "F5",
          "ticks": 7868,
          "time": 91.48837209302326,
          "velocity": 0.2992125984251969
        },
        {
          "duration": 0.05813953488372192,
          "durationTicks": 5,
          "midi": 81,
          "name": "A5",
          "ticks": 7868,
          "time": 91.48837209302326,
          "velocity": 0.11023622047244094
        },
        {
          "duration": 0.04651162790698038,
          "durationTicks": 4,
          "midi": 65,
          "name": "F4",
          "ticks": 7869,
          "time": 91.5,
          "velocity": 0.33070866141732286
        },
        {
          "duration": 0.04651162790698038,
          "durationTicks": 4,
          "midi": 53,
          "name": "F3",
          "ticks": 7870,
          "time": 91.51162790697674,
          "velocity": 0.5275590551181102
        },
        {
          "duration": 0.05813953488372192,
          "durationTicks": 5,
          "midi": 72,
          "name": "C5",
          "ticks": 7870,
          "time": 91.51162790697674,
          "velocity": 0.1889763779527559
        },
        {
          "duration": 0.12790697674418539,
          "durationTicks": 11,
          "midi": 62,
          "name": "D4",
          "ticks": 7871,
          "time": 91.52325581395348,
          "velocity": 0.30708661417322836
        },
        {
          "duration": 0.023255813953483084,
          "durationTicks": 2,
          "midi": 52,
          "name": "E3",
          "ticks": 7874,
          "time": 91.55813953488372,
          "velocity": 0.4566929133858268
        },
        {
          "duration": 0.023255813953483084,
          "durationTicks": 2,
          "midi": 55,
          "name": "G3",
          "ticks": 7878,
          "time": 91.6046511627907,
          "velocity": 0.3464566929133858
        },
        {
          "duration": 0.023255813953483084,
          "durationTicks": 2,
          "midi": 54,
          "name": "F#3",
          "ticks": 7880,
          "time": 91.62790697674419,
          "velocity": 0.3464566929133858
        },
        {
          "duration": 0.03488372093023884,
          "durationTicks": 3,
          "midi": 61,
          "name": "C#4",
          "ticks": 7882,
          "time": 91.65116279069767,
          "velocity": 0.2677165354330709
        },
        {
          "duration": 0.03488372093023884,
          "durationTicks": 3,
          "midi": 48,
          "name": "C3",
          "ticks": 7885,
          "time": 91.68604651162791,
          "velocity": 0.3700787401574803
        },
        {
          "duration": 0.03488372093023884,
          "durationTicks": 3,
          "midi": 59,
          "name": "B3",
          "ticks": 7887,
          "time": 91.70930232558139,
          "velocity": 0.2125984251968504
        },
        {
          "duration": 0.023255813953483084,
          "durationTicks": 2,
          "midi": 45,
          "name": "A2",
          "ticks": 7890,
          "time": 91.74418604651163,
          "velocity": 0.3700787401574803
        },
        {
          "duration": 0.034883720930224626,
          "durationTicks": 3,
          "midi": 71,
          "name": "B4",
          "ticks": 7890,
          "time": 91.74418604651163,
          "velocity": 0.10236220472440945
        },
        {
          "duration": 0.04651162790698038,
          "durationTicks": 4,
          "midi": 57,
          "name": "A3",
          "ticks": 7892,
          "time": 91.76744186046511,
          "velocity": 0.3228346456692913
        },
        {
          "duration": 0.05813953488372192,
          "durationTicks": 5,
          "midi": 45,
          "name": "A2",
          "ticks": 7893,
          "time": 91.77906976744185,
          "velocity": 0.4330708661417323
        },
        {
          "duration": 0.03488372093023884,
          "durationTicks": 3,
          "midi": 56,
          "name": "G#3",
          "ticks": 7896,
          "time": 91.81395348837209,
          "velocity": 0.33858267716535434
        },
        {
          "duration": 0.023255813953497295,
          "durationTicks": 2,
          "midi": 44,
          "name": "G#2",
          "ticks": 7898,
          "time": 91.83720930232558,
          "velocity": 0.4251968503937008
        },
        {
          "duration": 0.023255813953483084,
          "durationTicks": 2,
          "midi": 70,
          "name": "A#4",
          "ticks": 7899,
          "time": 91.84883720930233,
          "velocity": 0.2283464566929134
        },
        {
          "duration": 0.023255813953483084,
          "durationTicks": 2,
          "midi": 45,
          "name": "A2",
          "ticks": 7900,
          "time": 91.86046511627907,
          "velocity": 0.3700787401574803
        },
        {
          "duration": 0.023255813953497295,
          "durationTicks": 2,
          "midi": 53,
          "name": "F3",
          "ticks": 7903,
          "time": 91.8953488372093,
          "velocity": 0.30708661417322836
        },
        {
          "duration": 0.023255813953483084,
          "durationTicks": 2,
          "midi": 42,
          "name": "F#2",
          "ticks": 7907,
          "time": 91.94186046511628,
          "velocity": 0.25196850393700787
        },
        {
          "duration": 0.023255813953497295,
          "durationTicks": 2,
          "midi": 56,
          "name": "G#3",
          "ticks": 7908,
          "time": 91.95348837209302,
          "velocity": 0.28346456692913385
        },
        {
          "duration": 0.03488372093023884,
          "durationTicks": 3,
          "midi": 65,
          "name": "F4",
          "ticks": 7909,
          "time": 91.96511627906976,
          "velocity": 0.1968503937007874
        },
        {
          "duration": 0.034883720930224626,
          "durationTicks": 3,
          "midi": 71,
          "name": "B4",
          "ticks": 7910,
          "time": 91.97674418604652,
          "velocity": 0.25984251968503935
        },
        {
          "duration": 0.023255813953483084,
          "durationTicks": 2,
          "midi": 45,
          "name": "A2",
          "ticks": 7911,
          "time": 91.98837209302326,
          "velocity": 0.4094488188976378
        },
        {
          "duration": 0.05813953488372192,
          "durationTicks": 5,
          "midi": 75,
          "name": "D#5",
          "ticks": 7911,
          "time": 91.98837209302326,
          "velocity": 0.2992125984251969
        },
        {
          "duration": 0.13953488372092693,
          "durationTicks": 12,
          "midi": 84,
          "name": "C6",
          "ticks": 7911,
          "time": 91.98837209302326,
          "velocity": 0.16535433070866143
        },
        {
          "duration": 0.023255813953483084,
          "durationTicks": 2,
          "midi": 59,
          "name": "B3",
          "ticks": 7912,
          "time": 92,
          "velocity": 0.3779527559055118
        },
        {
          "duration": 0.5116279069767415,
          "durationTicks": 44,
          "midi": 77,
          "name": "F5",
          "ticks": 7912,
          "time": 92,
          "velocity": 0.2204724409448819
        },
        {
          "duration": 0.081395348837205,
          "durationTicks": 7,
          "midi": 79,
          "name": "G5",
          "ticks": 7912,
          "time": 92,
          "velocity": 0.13385826771653545
        },
        {
          "duration": 0.023255813953497295,
          "durationTicks": 2,
          "midi": 44,
          "name": "G#2",
          "ticks": 7913,
          "time": 92.01162790697674,
          "velocity": 0.44881889763779526
        },
        {
          "duration": 0.09302325581396076,
          "durationTicks": 8,
          "midi": 70,
          "name": "A#4",
          "ticks": 7913,
          "time": 92.01162790697674,
          "velocity": 0.2992125984251969
        },
        {
          "duration": 0.5116279069767415,
          "durationTicks": 44,
          "midi": 72,
          "name": "C5",
          "ticks": 7913,
          "time": 92.01162790697674,
          "velocity": 0.29133858267716534
        },
        {
          "duration": 0.06976744186046346,
          "durationTicks": 6,
          "midi": 58,
          "name": "A#3",
          "ticks": 7914,
          "time": 92.02325581395348,
          "velocity": 0.3779527559055118
        },
        {
          "duration": 0.023255813953483084,
          "durationTicks": 2,
          "midi": 74,
          "name": "D5",
          "ticks": 7916,
          "time": 92.04651162790698,
          "velocity": 0.2440944881889764
        },
        {
          "duration": 0.3720930232558146,
          "durationTicks": 32,
          "midi": 65,
          "name": "F4",
          "ticks": 7917,
          "time": 92.05813953488372,
          "velocity": 0.3464566929133858
        },
        {
          "duration": 0.023255813953483084,
          "durationTicks": 2,
          "midi": 75,
          "name": "D#5",
          "ticks": 7917,
          "time": 92.05813953488372,
          "velocity": 0.2283464566929134
        },
        {
          "duration": 0.04651162790698038,
          "durationTicks": 4,
          "midi": 92,
          "name": "G#6",
          "ticks": 7918,
          "time": 92.06976744186046,
          "velocity": 0.10236220472440945
        },
        {
          "duration": 0.023255813953497295,
          "durationTicks": 2,
          "midi": 74,
          "name": "D5",
          "ticks": 7919,
          "time": 92.0813953488372,
          "velocity": 0.2283464566929134
        },
        {
          "duration": 0.023255813953497295,
          "durationTicks": 2,
          "midi": 48,
          "name": "C3",
          "ticks": 7920,
          "time": 92.09302325581395,
          "velocity": 0.31496062992125984
        },
        {
          "duration": 0.04651162790698038,
          "durationTicks": 4,
          "midi": 75,
          "name": "D#5",
          "ticks": 7920,
          "time": 92.09302325581395,
          "velocity": 0.25196850393700787
        },
        {
          "duration": 0.3139534883720927,
          "durationTicks": 27,
          "midi": 58,
          "name": "A#3",
          "ticks": 7921,
          "time": 92.1046511627907,
          "velocity": 0.4645669291338583
        },
        {
          "duration": 0.034883720930224626,
          "durationTicks": 3,
          "midi": 45,
          "name": "A2",
          "ticks": 7922,
          "time": 92.11627906976744,
          "velocity": 0.4645669291338583
        },
        {
          "duration": 0.3139534883720927,
          "durationTicks": 27,
          "midi": 53,
          "name": "F3",
          "ticks": 7922,
          "time": 92.11627906976744,
          "velocity": 0.4015748031496063
        },
        {
          "duration": 0.034883720930224626,
          "durationTicks": 3,
          "midi": 74,
          "name": "D5",
          "ticks": 7922,
          "time": 92.11627906976744,
          "velocity": 0.23622047244094488
        },
        {
          "duration": 0.05813953488372192,
          "durationTicks": 5,
          "midi": 75,
          "name": "D#5",
          "ticks": 7925,
          "time": 92.15116279069767,
          "velocity": 0.2283464566929134
        },
        {
          "duration": 0.19767441860464885,
          "durationTicks": 17,
          "midi": 74,
          "name": "D5",
          "ticks": 7928,
          "time": 92.18604651162791,
          "velocity": 0.2283464566929134
        },
        {
          "duration": 0.13953488372092693,
          "durationTicks": 12,
          "midi": 79,
          "name": "G5",
          "ticks": 7928,
          "time": 92.18604651162791,
          "velocity": 0.12598425196850394
        },
        {
          "duration": 0.023255813953483084,
          "durationTicks": 2,
          "midi": 45,
          "name": "A2",
          "ticks": 7931,
          "time": 92.22093023255815,
          "velocity": 0.4645669291338583
        },
        {
          "duration": 0.023255813953483084,
          "durationTicks": 2,
          "midi": 46,
          "name": "A#2",
          "ticks": 7933,
          "time": 92.24418604651163,
          "velocity": 0.31496062992125984
        },
        {
          "duration": 0.023255813953483084,
          "durationTicks": 2,
          "midi": 45,
          "name": "A2",
          "ticks": 7937,
          "time": 92.29069767441861,
          "velocity": 0.47244094488188976
        },
        {
          "duration": 0.023255813953497295,
          "durationTicks": 2,
          "midi": 46,
          "name": "A#2",
          "ticks": 7941,
          "time": 92.33720930232558,
          "velocity": 0.33070866141732286
        },
        {
          "duration": 0.023255813953483084,
          "durationTicks": 2,
          "midi": 46,
          "name": "A#2",
          "ticks": 7944,
          "time": 92.37209302325581,
          "velocity": 0.4409448818897638
        },
        {
          "duration": 0.023255813953483084,
          "durationTicks": 2,
          "midi": 46,
          "name": "A#2",
          "ticks": 7947,
          "time": 92.40697674418605,
          "velocity": 0.3543307086614173
        },
        {
          "duration": 0.023255813953483084,
          "durationTicks": 2,
          "midi": 59,
          "name": "B3",
          "ticks": 7948,
          "time": 92.4186046511628,
          "velocity": 0.3464566929133858
        },
        {
          "duration": 0.023255813953483084,
          "durationTicks": 2,
          "midi": 42,
          "name": "F#2",
          "ticks": 7949,
          "time": 92.43023255813954,
          "velocity": 0.3543307086614173
        },
        {
          "duration": 0.13953488372092693,
          "durationTicks": 12,
          "midi": 74,
          "name": "D5",
          "ticks": 7949,
          "time": 92.43023255813954,
          "velocity": 0.30708661417322836
        },
        {
          "duration": 0.05813953488372192,
          "durationTicks": 5,
          "midi": 53,
          "name": "F3",
          "ticks": 7950,
          "time": 92.44186046511628,
          "velocity": 0.33070866141732286
        },
        {
          "duration": 0.05813953488372192,
          "durationTicks": 5,
          "midi": 58,
          "name": "A#3",
          "ticks": 7950,
          "time": 92.44186046511628,
          "velocity": 0.4094488188976378
        },
        {
          "duration": 0.7790697674418681,
          "durationTicks": 67,
          "midi": 65,
          "name": "F4",
          "ticks": 7950,
          "time": 92.44186046511628,
          "velocity": 0.3700787401574803
        },
        {
          "duration": 0.023255813953483084,
          "durationTicks": 2,
          "midi": 46,
          "name": "A#2",
          "ticks": 7955,
          "time": 92.5,
          "velocity": 0.41732283464566927
        },
        {
          "duration": 0.06976744186046346,
          "durationTicks": 6,
          "midi": 53,
          "name": "F3",
          "ticks": 7956,
          "time": 92.51162790697674,
          "velocity": 0.2992125984251969
        },
        {
          "duration": 0.03488372093023884,
          "durationTicks": 3,
          "midi": 78,
          "name": "F#5",
          "ticks": 7956,
          "time": 92.51162790697674,
          "velocity": 0.15748031496062992
        },
        {
          "duration": 0.04651162790698038,
          "durationTicks": 4,
          "midi": 85,
          "name": "C#6",
          "ticks": 7956,
          "time": 92.51162790697674,
          "velocity": 0.13385826771653545
        },
        {
          "duration": 0.04651162790698038,
          "durationTicks": 4,
          "midi": 71,
          "name": "B4",
          "ticks": 7957,
          "time": 92.52325581395348,
          "velocity": 0.4094488188976378
        },
        {
          "duration": 0.03488372093023884,
          "durationTicks": 3,
          "midi": 81,
          "name": "A5",
          "ticks": 7957,
          "time": 92.52325581395348,
          "velocity": 0.12598425196850394
        },
        {
          "duration": 0.05813953488370771,
          "durationTicks": 5,
          "midi": 46,
          "name": "A#2",
          "ticks": 7958,
          "time": 92.53488372093024,
          "velocity": 0.4251968503937008
        },
        {
          "duration": 0.04651162790698038,
          "durationTicks": 4,
          "midi": 73,
          "name": "C#5",
          "ticks": 7960,
          "time": 92.55813953488372,
          "velocity": 0.14960629921259844
        },
        {
          "duration": 0.023255813953483084,
          "durationTicks": 2,
          "midi": 59,
          "name": "B3",
          "ticks": 7961,
          "time": 92.56976744186046,
          "velocity": 0.3543307086614173
        },
        {
          "duration": 0.13953488372092693,
          "durationTicks": 12,
          "midi": 70,
          "name": "A#4",
          "ticks": 7961,
          "time": 92.56976744186046,
          "velocity": 0.18110236220472442
        },
        {
          "duration": 0.05813953488372192,
          "durationTicks": 5,
          "midi": 45,
          "name": "A2",
          "ticks": 7963,
          "time": 92.59302325581395,
          "velocity": 0.4566929133858268
        },
        {
          "duration": 0.16279069767442422,
          "durationTicks": 14,
          "midi": 53,
          "name": "F3",
          "ticks": 7963,
          "time": 92.59302325581395,
          "velocity": 0.2992125984251969
        },
        {
          "duration": 0.13953488372094114,
          "durationTicks": 12,
          "midi": 86,
          "name": "D6",
          "ticks": 7963,
          "time": 92.59302325581395,
          "velocity": 0.10236220472440945
        },
        {
          "duration": 0.30232558139535115,
          "durationTicks": 26,
          "midi": 58,
          "name": "A#3",
          "ticks": 7964,
          "time": 92.6046511627907,
          "velocity": 0.48031496062992124
        },
        {
          "duration": 0.27906976744185386,
          "durationTicks": 24,
          "midi": 72,
          "name": "C5",
          "ticks": 7965,
          "time": 92.61627906976744,
          "velocity": 0.1889763779527559
        },
        {
          "duration": 0.023255813953483084,
          "durationTicks": 2,
          "midi": 46,
          "name": "A#2",
          "ticks": 7971,
          "time": 92.68604651162791,
          "velocity": 0.4015748031496063
        },
        {
          "duration": 0.023255813953483084,
          "durationTicks": 2,
          "midi": 46,
          "name": "A#2",
          "ticks": 7974,
          "time": 92.72093023255815,
          "velocity": 0.36220472440944884
        },
        {
          "duration": 0.04651162790698038,
          "durationTicks": 4,
          "midi": 46,
          "name": "A#2",
          "ticks": 7977,
          "time": 92.75581395348837,
          "velocity": 0.4251968503937008
        },
        {
          "duration": 0.13953488372092693,
          "durationTicks": 12,
          "midi": 86,
          "name": "D6",
          "ticks": 7977,
          "time": 92.75581395348837,
          "velocity": 0.10236220472440945
        },
        {
          "duration": 0.05813953488372192,
          "durationTicks": 5,
          "midi": 75,
          "name": "D#5",
          "ticks": 7978,
          "time": 92.76744186046511,
          "velocity": 0.11811023622047244
        },
        {
          "duration": 0.08139534883721922,
          "durationTicks": 7,
          "midi": 46,
          "name": "A#2",
          "ticks": 7984,
          "time": 92.83720930232558,
          "velocity": 0.5196850393700787
        },
        {
          "duration": 0.04651162790698038,
          "durationTicks": 4,
          "midi": 71,
          "name": "B4",
          "ticks": 7989,
          "time": 92.8953488372093,
          "velocity": 0.09448818897637795
        },
        {
          "duration": 0.1046511627907023,
          "durationTicks": 9,
          "midi": 74,
          "name": "D5",
          "ticks": 7989,
          "time": 92.8953488372093,
          "velocity": 0.11811023622047244
        },
        {
          "duration": 0.023255813953483084,
          "durationTicks": 2,
          "midi": 57,
          "name": "A3",
          "ticks": 7990,
          "time": 92.90697674418605,
          "velocity": 0.3543307086614173
        },
        {
          "duration": 0.034883720930224626,
          "durationTicks": 3,
          "midi": 42,
          "name": "F#2",
          "ticks": 7991,
          "time": 92.9186046511628,
          "velocity": 0.5275590551181102
        },
        {
          "duration": 0.19767441860464885,
          "durationTicks": 17,
          "midi": 58,
          "name": "A#3",
          "ticks": 7992,
          "time": 92.93023255813954,
          "velocity": 0.36220472440944884
        },
        {
          "duration": 0.06976744186047767,
          "durationTicks": 6,
          "midi": 46,
          "name": "A#2",
          "ticks": 7995,
          "time": 92.96511627906976,
          "velocity": 0.4015748031496063
        },
        {
          "duration": 0.023255813953483084,
          "durationTicks": 2,
          "midi": 46,
          "name": "A#2",
          "ticks": 8002,
          "time": 93.04651162790698,
          "velocity": 0.33070866141732286
        },
        {
          "duration": 0.05813953488372192,
          "durationTicks": 5,
          "midi": 74,
          "name": "D5",
          "ticks": 8005,
          "time": 93.0813953488372,
          "velocity": 0.10236220472440945
        },
        {
          "duration": 0.05813953488372192,
          "durationTicks": 5,
          "midi": 45,
          "name": "A2",
          "ticks": 8009,
          "time": 93.12790697674419,
          "velocity": 0.47244094488188976
        },
        {
          "duration": 0.023255813953483084,
          "durationTicks": 2,
          "midi": 55,
          "name": "G3",
          "ticks": 8009,
          "time": 93.12790697674419,
          "velocity": 0.28346456692913385
        },
        {
          "duration": 0.03488372093023884,
          "durationTicks": 3,
          "midi": 59,
          "name": "B3",
          "ticks": 8010,
          "time": 93.13953488372093,
          "velocity": 0.1968503937007874
        },
        {
          "duration": 0.05813953488372192,
          "durationTicks": 5,
          "midi": 70,
          "name": "A#4",
          "ticks": 8011,
          "time": 93.15116279069767,
          "velocity": 0.36220472440944884
        },
        {
          "duration": 0.03488372093023884,
          "durationTicks": 3,
          "midi": 74,
          "name": "D5",
          "ticks": 8011,
          "time": 93.15116279069767,
          "velocity": 0.4251968503937008
        },
        {
          "duration": 0.05813953488372192,
          "durationTicks": 5,
          "midi": 58,
          "name": "A#3",
          "ticks": 8012,
          "time": 93.16279069767442,
          "velocity": 0.2283464566929134
        },
        {
          "duration": 0.03488372093023884,
          "durationTicks": 3,
          "midi": 73,
          "name": "C#5",
          "ticks": 8014,
          "time": 93.18604651162791,
          "velocity": 0.30708661417322836
        },
        {
          "duration": 0.023255813953483084,
          "durationTicks": 2,
          "midi": 57,
          "name": "A3",
          "ticks": 8017,
          "time": 93.22093023255815,
          "velocity": 0.36220472440944884
        },
        {
          "duration": 0.06976744186046346,
          "durationTicks": 6,
          "midi": 70,
          "name": "A#4",
          "ticks": 8017,
          "time": 93.22093023255815,
          "velocity": 0.16535433070866143
        },
        {
          "duration": 0.06976744186046346,
          "durationTicks": 6,
          "midi": 86,
          "name": "D6",
          "ticks": 8017,
          "time": 93.22093023255815,
          "velocity": 0.14960629921259844
        },
        {
          "duration": 0.034883720930224626,
          "durationTicks": 3,
          "midi": 46,
          "name": "A#2",
          "ticks": 8018,
          "time": 93.23255813953489,
          "velocity": 0.4251968503937008
        },
        {
          "duration": 0.13953488372092693,
          "durationTicks": 12,
          "midi": 74,
          "name": "D5",
          "ticks": 8018,
          "time": 93.23255813953489,
          "velocity": 0.11811023622047244
        },
        {
          "duration": 0.13953488372092693,
          "durationTicks": 12,
          "midi": 65,
          "name": "F4",
          "ticks": 8019,
          "time": 93.24418604651163,
          "velocity": 0.2440944881889764
        },
        {
          "duration": 0.023255813953497295,
          "durationTicks": 2,
          "midi": 46,
          "name": "A#2",
          "ticks": 8022,
          "time": 93.27906976744185,
          "velocity": 0.4881889763779528
        },
        {
          "duration": 0.04651162790696617,
          "durationTicks": 4,
          "midi": 71,
          "name": "B4",
          "ticks": 8023,
          "time": 93.29069767441861,
          "velocity": 0.12598425196850394
        },
        {
          "duration": 0.011627906976741542,
          "durationTicks": 1,
          "midi": 45,
          "name": "A2",
          "ticks": 8024,
          "time": 93.30232558139535,
          "velocity": 0.5354330708661418
        },
        {
          "duration": 0.081395348837205,
          "durationTicks": 7,
          "midi": 58,
          "name": "A#3",
          "ticks": 8024,
          "time": 93.30232558139535,
          "velocity": 0.3543307086614173
        },
        {
          "duration": 0.16279069767441,
          "durationTicks": 14,
          "midi": 89,
          "name": "F6",
          "ticks": 8024,
          "time": 93.30232558139535,
          "velocity": 0.14960629921259844
        },
        {
          "duration": 0.023255813953483084,
          "durationTicks": 2,
          "midi": 42,
          "name": "F#2",
          "ticks": 8025,
          "time": 93.31395348837209,
          "velocity": 0.5039370078740157
        },
        {
          "duration": 0.023255813953483084,
          "durationTicks": 2,
          "midi": 46,
          "name": "A#2",
          "ticks": 8028,
          "time": 93.34883720930233,
          "velocity": 0.30708661417322836
        },
        {
          "duration": 0.023255813953497295,
          "durationTicks": 2,
          "midi": 57,
          "name": "A3",
          "ticks": 8031,
          "time": 93.38372093023256,
          "velocity": 0.3937007874015748
        },
        {
          "duration": 0.08139534883721922,
          "durationTicks": 7,
          "midi": 74,
          "name": "D5",
          "ticks": 8032,
          "time": 93.3953488372093,
          "velocity": 0.16535433070866143
        },
        {
          "duration": 0.034883720930224626,
          "durationTicks": 3,
          "midi": 45,
          "name": "A2",
          "ticks": 8033,
          "time": 93.40697674418605,
          "velocity": 0.48031496062992124
        },
        {
          "duration": 0.081395348837205,
          "durationTicks": 7,
          "midi": 58,
          "name": "A#3",
          "ticks": 8033,
          "time": 93.40697674418605,
          "velocity": 0.3543307086614173
        },
        {
          "duration": 0.081395348837205,
          "durationTicks": 7,
          "midi": 65,
          "name": "F4",
          "ticks": 8033,
          "time": 93.40697674418605,
          "velocity": 0.2047244094488189
        },
        {
          "duration": 0.04651162790698038,
          "durationTicks": 4,
          "midi": 46,
          "name": "A#2",
          "ticks": 8036,
          "time": 93.44186046511628,
          "velocity": 0.4409448818897638
        },
        {
          "duration": 0.034883720930224626,
          "durationTicks": 3,
          "midi": 47,
          "name": "B2",
          "ticks": 8040,
          "time": 93.48837209302326,
          "velocity": 0.4409448818897638
        },
        {
          "duration": 0.05813953488372192,
          "durationTicks": 5,
          "midi": 65,
          "name": "F4",
          "ticks": 8041,
          "time": 93.5,
          "velocity": 0.1889763779527559
        },
        {
          "duration": 0.03488372093023884,
          "durationTicks": 3,
          "midi": 61,
          "name": "C#4",
          "ticks": 8042,
          "time": 93.51162790697674,
          "velocity": 0.13385826771653545
        },
        {
          "duration": 0.023255813953483084,
          "durationTicks": 2,
          "midi": 84,
          "name": "C6",
          "ticks": 8045,
          "time": 93.54651162790698,
          "velocity": 0.29133858267716534
        },
        {
          "duration": 0.034883720930224626,
          "durationTicks": 3,
          "midi": 52,
          "name": "E3",
          "ticks": 8046,
          "time": 93.55813953488372,
          "velocity": 0.4409448818897638
        },
        {
          "duration": 0.034883720930224626,
          "durationTicks": 3,
          "midi": 85,
          "name": "C#6",
          "ticks": 8046,
          "time": 93.55813953488372,
          "velocity": 0.25984251968503935
        },
        {
          "duration": 0.04651162790698038,
          "durationTicks": 4,
          "midi": 86,
          "name": "D6",
          "ticks": 8046,
          "time": 93.55813953488372,
          "velocity": 0.2125984251968504
        },
        {
          "duration": 0.06976744186046346,
          "durationTicks": 6,
          "midi": 87,
          "name": "D#6",
          "ticks": 8046,
          "time": 93.55813953488372,
          "velocity": 0.13385826771653545
        },
        {
          "duration": 0.1046511627907023,
          "durationTicks": 9,
          "midi": 74,
          "name": "D5",
          "ticks": 8047,
          "time": 93.56976744186046,
          "velocity": 0.25984251968503935
        },
        {
          "duration": 0.04651162790698038,
          "durationTicks": 4,
          "midi": 80,
          "name": "G#5",
          "ticks": 8047,
          "time": 93.56976744186046,
          "velocity": 0.07086614173228346
        },
        {
          "duration": 0.03488372093023884,
          "durationTicks": 3,
          "midi": 81,
          "name": "A5",
          "ticks": 8047,
          "time": 93.56976744186046,
          "velocity": 0.1732283464566929
        },
        {
          "duration": 0.081395348837205,
          "durationTicks": 7,
          "midi": 83,
          "name": "B5",
          "ticks": 8047,
          "time": 93.56976744186046,
          "velocity": 0.3543307086614173
        },
        {
          "duration": 0.03488372093023884,
          "durationTicks": 3,
          "midi": 71,
          "name": "B4",
          "ticks": 8048,
          "time": 93.5813953488372,
          "velocity": 0.3464566929133858
        },
        {
          "duration": 0.03488372093023884,
          "durationTicks": 3,
          "midi": 44,
          "name": "G#2",
          "ticks": 8049,
          "time": 93.59302325581395,
          "velocity": 0.18110236220472442
        },
        {
          "duration": 0.04651162790698038,
          "durationTicks": 4,
          "midi": 53,
          "name": "F3",
          "ticks": 8049,
          "time": 93.59302325581395,
          "velocity": 0.49606299212598426
        },
        {
          "duration": 0.03488372093023884,
          "durationTicks": 3,
          "midi": 84,
          "name": "C6",
          "ticks": 8049,
          "time": 93.59302325581395,
          "velocity": 0.14960629921259844
        },
        {
          "duration": 0.27906976744185386,
          "durationTicks": 24,
          "midi": 72,
          "name": "C5",
          "ticks": 8051,
          "time": 93.61627906976744,
          "velocity": 0.2677165354330709
        },
        {
          "duration": 0.03488372093023884,
          "durationTicks": 3,
          "midi": 70,
          "name": "A#4",
          "ticks": 8052,
          "time": 93.62790697674419,
          "velocity": 0.25196850393700787
        },
        {
          "duration": 0.023255813953497295,
          "durationTicks": 2,
          "midi": 54,
          "name": "F#3",
          "ticks": 8053,
          "time": 93.63953488372093,
          "velocity": 0.3858267716535433
        },
        {
          "duration": 0.16279069767442422,
          "durationTicks": 14,
          "midi": 65,
          "name": "F4",
          "ticks": 8053,
          "time": 93.63953488372093,
          "velocity": 0.30708661417322836
        },
        {
          "duration": 0.43023255813953654,
          "durationTicks": 37,
          "midi": 89,
          "name": "F6",
          "ticks": 8053,
          "time": 93.63953488372093,
          "velocity": 0.2204724409448819
        },
        {
          "duration": 0.04651162790698038,
          "durationTicks": 4,
          "midi": 45,
          "name": "A2",
          "ticks": 8054,
          "time": 93.65116279069767,
          "velocity": 0.33858267716535434
        },
        {
          "duration": 0.13953488372094114,
          "durationTicks": 12,
          "midi": 87,
          "name": "D#6",
          "ticks": 8054,
          "time": 93.65116279069767,
          "velocity": 0.14173228346456693
        },
        {
          "duration": 0.08139534883721922,
          "durationTicks": 7,
          "midi": 91,
          "name": "G6",
          "ticks": 8054,
          "time": 93.65116279069767,
          "velocity": 0.11023622047244094
        },
        {
          "duration": 0.13953488372092693,
          "durationTicks": 12,
          "midi": 53,
          "name": "F3",
          "ticks": 8055,
          "time": 93.66279069767442,
          "velocity": 0.48031496062992124
        },
        {
          "duration": 0.05813953488370771,
          "durationTicks": 5,
          "midi": 45,
          "name": "A2",
          "ticks": 8060,
          "time": 93.72093023255815,
          "velocity": 0.2677165354330709
        },
        {
          "duration": 0.023255813953483084,
          "durationTicks": 2,
          "midi": 54,
          "name": "F#3",
          "ticks": 8067,
          "time": 93.80232558139535,
          "velocity": 0.3464566929133858
        },
        {
          "duration": 0.15116279069766847,
          "durationTicks": 13,
          "midi": 65,
          "name": "F4",
          "ticks": 8068,
          "time": 93.81395348837209,
          "velocity": 0.31496062992125984
        },
        {
          "duration": 0.06976744186046346,
          "durationTicks": 6,
          "midi": 87,
          "name": "D#6",
          "ticks": 8068,
          "time": 93.81395348837209,
          "velocity": 0.11023622047244094
        },
        {
          "duration": 0.05813953488372192,
          "durationTicks": 5,
          "midi": 91,
          "name": "G6",
          "ticks": 8068,
          "time": 93.81395348837209,
          "velocity": 0.13385826771653545
        },
        {
          "duration": 0.06976744186046346,
          "durationTicks": 6,
          "midi": 53,
          "name": "F3",
          "ticks": 8069,
          "time": 93.82558139534883,
          "velocity": 0.44881889763779526
        },
        {
          "duration": 0.023255813953483084,
          "durationTicks": 2,
          "midi": 42,
          "name": "F#2",
          "ticks": 8073,
          "time": 93.87209302325581,
          "velocity": 0.28346456692913385
        },
        {
          "duration": 0.03488372093023884,
          "durationTicks": 3,
          "midi": 44,
          "name": "G#2",
          "ticks": 8075,
          "time": 93.8953488372093,
          "velocity": 0.31496062992125984
        },
        {
          "duration": 0.06976744186046346,
          "durationTicks": 6,
          "midi": 53,
          "name": "F3",
          "ticks": 8076,
          "time": 93.90697674418605,
          "velocity": 0.5039370078740157
        },
        {
          "duration": 0.05813953488370771,
          "durationTicks": 5,
          "midi": 72,
          "name": "C5",
          "ticks": 8076,
          "time": 93.90697674418605,
          "velocity": 0.16535433070866143
        },
        {
          "duration": 0.023255813953497295,
          "durationTicks": 2,
          "midi": 45,
          "name": "A2",
          "ticks": 8080,
          "time": 93.95348837209302,
          "velocity": 0.2755905511811024
        },
        {
          "duration": 0.023255813953483084,
          "durationTicks": 2,
          "midi": 44,
          "name": "G#2",
          "ticks": 8082,
          "time": 93.97674418604652,
          "velocity": 0.33858267716535434
        },
        {
          "duration": 0.06976744186046346,
          "durationTicks": 6,
          "midi": 65,
          "name": "F4",
          "ticks": 8082,
          "time": 93.97674418604652,
          "velocity": 0.3228346456692913
        },
        {
          "duration": 0.034883720930224626,
          "durationTicks": 3,
          "midi": 72,
          "name": "C5",
          "ticks": 8082,
          "time": 93.97674418604652,
          "velocity": 0.12598425196850394
        },
        {
          "duration": 0.06976744186046346,
          "durationTicks": 6,
          "midi": 53,
          "name": "F3",
          "ticks": 8083,
          "time": 93.98837209302326,
          "velocity": 0.5039370078740157
        },
        {
          "duration": 0.023255813953497295,
          "durationTicks": 2,
          "midi": 41,
          "name": "F2",
          "ticks": 8085,
          "time": 94.01162790697674,
          "velocity": 0.30708661417322836
        },
        {
          "duration": 0.46511627906976116,
          "durationTicks": 40,
          "midi": 64,
          "name": "E4",
          "ticks": 8088,
          "time": 94.04651162790698,
          "velocity": 0.3779527559055118
        },
        {
          "duration": 0.08139534883721922,
          "durationTicks": 7,
          "midi": 55,
          "name": "G3",
          "ticks": 8092,
          "time": 94.09302325581395,
          "velocity": 0.5590551181102362
        },
        {
          "duration": 0.05813953488372192,
          "durationTicks": 5,
          "midi": 74,
          "name": "D5",
          "ticks": 8093,
          "time": 94.1046511627907,
          "velocity": 0.16535433070866143
        },
        {
          "duration": 0.03488372093023884,
          "durationTicks": 3,
          "midi": 72,
          "name": "C5",
          "ticks": 8095,
          "time": 94.12790697674419,
          "velocity": 0.2125984251968504
        },
        {
          "duration": 0.16279069767442422,
          "durationTicks": 14,
          "midi": 83,
          "name": "B5",
          "ticks": 8096,
          "time": 94.13953488372093,
          "velocity": 0.11023622047244094
        },
        {
          "duration": 0.38372093023255616,
          "durationTicks": 33,
          "midi": 86,
          "name": "D6",
          "ticks": 8096,
          "time": 94.13953488372093,
          "velocity": 0.2125984251968504
        },
        {
          "duration": 0.023255813953497295,
          "durationTicks": 2,
          "midi": 45,
          "name": "A2",
          "ticks": 8097,
          "time": 94.15116279069767,
          "velocity": 0.2992125984251969
        },
        {
          "duration": 0.08139534883721922,
          "durationTicks": 7,
          "midi": 71,
          "name": "B4",
          "ticks": 8097,
          "time": 94.15116279069767,
          "velocity": 0.2677165354330709
        },
        {
          "duration": 0.023255813953483084,
          "durationTicks": 2,
          "midi": 52,
          "name": "E3",
          "ticks": 8099,
          "time": 94.17441860465117,
          "velocity": 0.4251968503937008
        },
        {
          "duration": 0.06976744186046346,
          "durationTicks": 6,
          "midi": 79,
          "name": "G5",
          "ticks": 8100,
          "time": 94.18604651162791,
          "velocity": 0.08661417322834646
        },
        {
          "duration": 0.7906976744186096,
          "durationTicks": 68,
          "midi": 67,
          "name": "G4",
          "ticks": 8102,
          "time": 94.20930232558139,
          "velocity": 0.2125984251968504
        },
        {
          "duration": 0.04651162790696617,
          "durationTicks": 4,
          "midi": 72,
          "name": "C5",
          "ticks": 8103,
          "time": 94.22093023255815,
          "velocity": 0.23622047244094488
        },
        {
          "duration": 0.38372093023255616,
          "durationTicks": 33,
          "midi": 74,
          "name": "D5",
          "ticks": 8104,
          "time": 94.23255813953489,
          "velocity": 0.2125984251968504
        },
        {
          "duration": 0.1860465116279073,
          "durationTicks": 16,
          "midi": 71,
          "name": "B4",
          "ticks": 8106,
          "time": 94.25581395348837,
          "velocity": 0.2992125984251969
        },
        {
          "duration": 0.023255813953483084,
          "durationTicks": 2,
          "midi": 52,
          "name": "E3",
          "ticks": 8109,
          "time": 94.29069767441861,
          "velocity": 0.4566929133858268
        },
        {
          "duration": 0.023255813953483084,
          "durationTicks": 2,
          "midi": 51,
          "name": "D#3",
          "ticks": 8122,
          "time": 94.44186046511628,
          "velocity": 0.44881889763779526
        },
        {
          "duration": 0.04651162790698038,
          "durationTicks": 4,
          "midi": 71,
          "name": "B4",
          "ticks": 8123,
          "time": 94.45348837209302,
          "velocity": 0.1968503937007874
        },
        {
          "duration": 0.023255813953483084,
          "durationTicks": 2,
          "midi": 52,
          "name": "E3",
          "ticks": 8126,
          "time": 94.48837209302326,
          "velocity": 0.4645669291338583
        },
        {
          "duration": 0.04651162790698038,
          "durationTicks": 4,
          "midi": 72,
          "name": "C5",
          "ticks": 8127,
          "time": 94.5,
          "velocity": 0.18110236220472442
        },
        {
          "duration": 0.1046511627907023,
          "durationTicks": 9,
          "midi": 76,
          "name": "E5",
          "ticks": 8128,
          "time": 94.51162790697674,
          "velocity": 0.18110236220472442
        },
        {
          "duration": 0.023255813953483084,
          "durationTicks": 2,
          "midi": 51,
          "name": "D#3",
          "ticks": 8130,
          "time": 94.53488372093024,
          "velocity": 0.4409448818897638
        },
        {
          "duration": 0.24418604651161502,
          "durationTicks": 21,
          "midi": 64,
          "name": "E4",
          "ticks": 8130,
          "time": 94.53488372093024,
          "velocity": 0.3779527559055118
        },
        {
          "duration": 0.04651162790696617,
          "durationTicks": 4,
          "midi": 71,
          "name": "B4",
          "ticks": 8131,
          "time": 94.54651162790698,
          "velocity": 0.18110236220472442
        },
        {
          "duration": 0.023255813953483084,
          "durationTicks": 2,
          "midi": 52,
          "name": "E3",
          "ticks": 8132,
          "time": 94.55813953488372,
          "velocity": 0.4645669291338583
        },
        {
          "duration": 0.04651162790698038,
          "durationTicks": 4,
          "midi": 87,
          "name": "D#6",
          "ticks": 8135,
          "time": 94.59302325581395,
          "velocity": 0.28346456692913385
        },
        {
          "duration": 0.08139534883721922,
          "durationTicks": 7,
          "midi": 88,
          "name": "E6",
          "ticks": 8135,
          "time": 94.59302325581395,
          "velocity": 0.2440944881889764
        },
        {
          "duration": 0.034883720930224626,
          "durationTicks": 3,
          "midi": 70,
          "name": "A#4",
          "ticks": 8136,
          "time": 94.6046511627907,
          "velocity": 0.33070866141732286
        },
        {
          "duration": 0.034883720930224626,
          "durationTicks": 3,
          "midi": 97,
          "name": "C#7",
          "ticks": 8136,
          "time": 94.6046511627907,
          "velocity": 0.11023622047244094
        },
        {
          "duration": 0.034883720930224626,
          "durationTicks": 3,
          "midi": 98,
          "name": "D7",
          "ticks": 8136,
          "time": 94.6046511627907,
          "velocity": 0.07086614173228346
        },
        {
          "duration": 0.034883720930224626,
          "durationTicks": 3,
          "midi": 81,
          "name": "A5",
          "ticks": 8137,
          "time": 94.61627906976744,
          "velocity": 0.10236220472440945
        },
        {
          "duration": 0.04651162790698038,
          "durationTicks": 4,
          "midi": 84,
          "name": "C6",
          "ticks": 8137,
          "time": 94.61627906976744,
          "velocity": 0.14960629921259844
        },
        {
          "duration": 0.04651162790698038,
          "durationTicks": 4,
          "midi": 74,
          "name": "D5",
          "ticks": 8138,
          "time": 94.62790697674419,
          "velocity": 0.12598425196850394
        },
        {
          "duration": 0.4534883720930196,
          "durationTicks": 39,
          "midi": 86,
          "name": "D6",
          "ticks": 8138,
          "time": 94.62790697674419,
          "velocity": 0.2440944881889764
        },
        {
          "duration": 0.023255813953497295,
          "durationTicks": 2,
          "midi": 71,
          "name": "B4",
          "ticks": 8139,
          "time": 94.63953488372093,
          "velocity": 0.23622047244094488
        },
        {
          "duration": 0.08139534883721922,
          "durationTicks": 7,
          "midi": 52,
          "name": "E3",
          "ticks": 8140,
          "time": 94.65116279069767,
          "velocity": 0.4566929133858268
        },
        {
          "duration": 0.034883720930224626,
          "durationTicks": 3,
          "midi": 75,
          "name": "D#5",
          "ticks": 8142,
          "time": 94.67441860465117,
          "velocity": 0.11023622047244094
        },
        {
          "duration": 0.40697674418603924,
          "durationTicks": 35,
          "midi": 71,
          "name": "B4",
          "ticks": 8143,
          "time": 94.68604651162791,
          "velocity": 0.28346456692913385
        },
        {
          "duration": 0.04651162790696617,
          "durationTicks": 4,
          "midi": 74,
          "name": "D5",
          "ticks": 8146,
          "time": 94.72093023255815,
          "velocity": 0.13385826771653545
        },
        {
          "duration": 0.05813953488372192,
          "durationTicks": 5,
          "midi": 52,
          "name": "E3",
          "ticks": 8148,
          "time": 94.74418604651163,
          "velocity": 0.4409448818897638
        },
        {
          "duration": 0.03488372093023884,
          "durationTicks": 3,
          "midi": 62,
          "name": "D4",
          "ticks": 8149,
          "time": 94.75581395348837,
          "velocity": 0.28346456692913385
        },
        {
          "duration": 0.04651162790696617,
          "durationTicks": 4,
          "midi": 74,
          "name": "D5",
          "ticks": 8152,
          "time": 94.79069767441861,
          "velocity": 0.11023622047244094
        },
        {
          "duration": 0.04651162790698038,
          "durationTicks": 4,
          "midi": 52,
          "name": "E3",
          "ticks": 8159,
          "time": 94.87209302325581,
          "velocity": 0.4409448818897638
        },
        {
          "duration": 0.023255813953483084,
          "durationTicks": 2,
          "midi": 51,
          "name": "D#3",
          "ticks": 8163,
          "time": 94.9186046511628,
          "velocity": 0.41732283464566927
        },
        {
          "duration": 0.05813953488372192,
          "durationTicks": 5,
          "midi": 74,
          "name": "D5",
          "ticks": 8165,
          "time": 94.94186046511628,
          "velocity": 0.11811023622047244
        },
        {
          "duration": 0.023255813953497295,
          "durationTicks": 2,
          "midi": 51,
          "name": "D#3",
          "ticks": 8166,
          "time": 94.95348837209302,
          "velocity": 0.3937007874015748
        },
        {
          "duration": 0.034883720930224626,
          "durationTicks": 3,
          "midi": 52,
          "name": "E3",
          "ticks": 8168,
          "time": 94.97674418604652,
          "velocity": 0.4330708661417323
        },
        {
          "duration": 0.023255813953483084,
          "durationTicks": 2,
          "midi": 41,
          "name": "F2",
          "ticks": 8170,
          "time": 95,
          "velocity": 0.5039370078740157
        },
        {
          "duration": 0.023255813953497295,
          "durationTicks": 2,
          "midi": 42,
          "name": "F#2",
          "ticks": 8172,
          "time": 95.02325581395348,
          "velocity": 0.4251968503937008
        },
        {
          "duration": 0.04651162790698038,
          "durationTicks": 4,
          "midi": 52,
          "name": "E3",
          "ticks": 8172,
          "time": 95.02325581395348,
          "velocity": 0.4251968503937008
        },
        {
          "duration": 0.2093023255814046,
          "durationTicks": 18,
          "midi": 67,
          "name": "G4",
          "ticks": 8172,
          "time": 95.02325581395348,
          "velocity": 0.15748031496062992
        },
        {
          "duration": 0.05813953488372192,
          "durationTicks": 5,
          "midi": 62,
          "name": "D4",
          "ticks": 8178,
          "time": 95.09302325581395,
          "velocity": 0.1889763779527559
        },
        {
          "duration": 0.03488372093023884,
          "durationTicks": 3,
          "midi": 84,
          "name": "C6",
          "ticks": 8178,
          "time": 95.09302325581395,
          "velocity": 0.08661417322834646
        },
        {
          "duration": 0.04651162790696617,
          "durationTicks": 4,
          "midi": 50,
          "name": "D3",
          "ticks": 8179,
          "time": 95.1046511627907,
          "velocity": 0.4251968503937008
        },
        {
          "duration": 0.023255813953497295,
          "durationTicks": 2,
          "midi": 51,
          "name": "D#3",
          "ticks": 8183,
          "time": 95.15116279069767,
          "velocity": 0.3700787401574803
        },
        {
          "duration": 0.023255813953497295,
          "durationTicks": 2,
          "midi": 61,
          "name": "C#4",
          "ticks": 8183,
          "time": 95.15116279069767,
          "velocity": 0.30708661417322836
        },
        {
          "duration": 0.3139534883720927,
          "durationTicks": 27,
          "midi": 62,
          "name": "D4",
          "ticks": 8185,
          "time": 95.17441860465117,
          "velocity": 0.3937007874015748
        },
        {
          "duration": 0.15116279069766847,
          "durationTicks": 13,
          "midi": 84,
          "name": "C6",
          "ticks": 8185,
          "time": 95.17441860465117,
          "velocity": 0.2125984251968504
        },
        {
          "duration": 0.12790697674418539,
          "durationTicks": 11,
          "midi": 50,
          "name": "D3",
          "ticks": 8186,
          "time": 95.18604651162791,
          "velocity": 0.4094488188976378
        },
        {
          "duration": 0.04651162790698038,
          "durationTicks": 4,
          "midi": 69,
          "name": "A4",
          "ticks": 8186,
          "time": 95.18604651162791,
          "velocity": 0.11023622047244094
        },
        {
          "duration": 0.023255813953483084,
          "durationTicks": 2,
          "midi": 70,
          "name": "A#4",
          "ticks": 8190,
          "time": 95.23255813953489,
          "velocity": 0.33070866141732286
        },
        {
          "duration": 0.034883720930224626,
          "durationTicks": 3,
          "midi": 79,
          "name": "G5",
          "ticks": 8190,
          "time": 95.23255813953489,
          "velocity": 0.12598425196850394
        },
        {
          "duration": 0.04651162790698038,
          "durationTicks": 4,
          "midi": 78,
          "name": "F#5",
          "ticks": 8191,
          "time": 95.24418604651163,
          "velocity": 0.08661417322834646
        },
        {
          "duration": 0.05813953488372192,
          "durationTicks": 5,
          "midi": 97,
          "name": "C#7",
          "ticks": 8191,
          "time": 95.24418604651163,
          "velocity": 0.11811023622047244
        },
        {
          "duration": 0.25581395348837077,
          "durationTicks": 22,
          "midi": 69,
          "name": "A4",
          "ticks": 8192,
          "time": 95.25581395348837,
          "velocity": 0.2125984251968504
        },
        {
          "duration": 0.04651162790698038,
          "durationTicks": 4,
          "midi": 71,
          "name": "B4",
          "ticks": 8192,
          "time": 95.25581395348837,
          "velocity": 0.28346456692913385
        },
        {
          "duration": 0.04651162790698038,
          "durationTicks": 4,
          "midi": 90,
          "name": "F#6",
          "ticks": 8192,
          "time": 95.25581395348837,
          "velocity": 0.09448818897637795
        },
        {
          "duration": 0.04651162790698038,
          "durationTicks": 4,
          "midi": 50,
          "name": "D3",
          "ticks": 8198,
          "time": 95.32558139534883,
          "velocity": 0.4409448818897638
        },
        {
          "duration": 0.011627906976755753,
          "durationTicks": 1,
          "midi": 41,
          "name": "F2",
          "ticks": 8204,
          "time": 95.3953488372093,
          "velocity": 0.5118110236220472
        },
        {
          "duration": 0.023255813953483084,
          "durationTicks": 2,
          "midi": 42,
          "name": "F#2",
          "ticks": 8205,
          "time": 95.40697674418605,
          "velocity": 0.4251968503937008
        },
        {
          "duration": 0.23255813953487348,
          "durationTicks": 20,
          "midi": 84,
          "name": "C6",
          "ticks": 8205,
          "time": 95.40697674418605,
          "velocity": 0.16535433070866143
        },
        {
          "duration": 0.06976744186046346,
          "durationTicks": 6,
          "midi": 50,
          "name": "D3",
          "ticks": 8206,
          "time": 95.4186046511628,
          "velocity": 0.3937007874015748
        },
        {
          "duration": 0.023255813953483084,
          "durationTicks": 2,
          "midi": 45,
          "name": "A2",
          "ticks": 8212,
          "time": 95.48837209302326,
          "velocity": 0.3779527559055118
        },
        {
          "duration": 0.09302325581394655,
          "durationTicks": 8,
          "midi": 62,
          "name": "D4",
          "ticks": 8213,
          "time": 95.5,
          "velocity": 0.33858267716535434
        },
        {
          "duration": 0.06976744186046346,
          "durationTicks": 6,
          "midi": 50,
          "name": "D3",
          "ticks": 8214,
          "time": 95.51162790697674,
          "velocity": 0.4015748031496063
        },
        {
          "duration": 0.04651162790696617,
          "durationTicks": 4,
          "midi": 69,
          "name": "A4",
          "ticks": 8216,
          "time": 95.53488372093024,
          "velocity": 0.10236220472440945
        },
        {
          "duration": 0.023255813953483084,
          "durationTicks": 2,
          "midi": 56,
          "name": "G#3",
          "ticks": 8219,
          "time": 95.56976744186046,
          "velocity": 0.2677165354330709
        },
        {
          "duration": 0.023255813953497295,
          "durationTicks": 2,
          "midi": 45,
          "name": "A2",
          "ticks": 8220,
          "time": 95.5813953488372,
          "velocity": 0.3858267716535433
        },
        {
          "duration": 0.023255813953497295,
          "durationTicks": 2,
          "midi": 61,
          "name": "C#4",
          "ticks": 8221,
          "time": 95.59302325581395,
          "velocity": 0.31496062992125984
        },
        {
          "duration": 0.04651162790698038,
          "durationTicks": 4,
          "midi": 72,
          "name": "C5",
          "ticks": 8221,
          "time": 95.59302325581395,
          "velocity": 0.1732283464566929
        },
        {
          "duration": 0.023255813953483084,
          "durationTicks": 2,
          "midi": 44,
          "name": "G#2",
          "ticks": 8222,
          "time": 95.6046511627907,
          "velocity": 0.3700787401574803
        },
        {
          "duration": 0.5348837209302246,
          "durationTicks": 46,
          "midi": 60,
          "name": "C4",
          "ticks": 8223,
          "time": 95.61627906976744,
          "velocity": 0.3937007874015748
        },
        {
          "duration": 0.12790697674418539,
          "durationTicks": 11,
          "midi": 74,
          "name": "D5",
          "ticks": 8223,
          "time": 95.61627906976744,
          "velocity": 0.2992125984251969
        },
        {
          "duration": 0.023255813953483084,
          "durationTicks": 2,
          "midi": 47,
          "name": "B2",
          "ticks": 8224,
          "time": 95.62790697674419,
          "velocity": 0.29133858267716534
        },
        {
          "duration": 0.03488372093023884,
          "durationTicks": 3,
          "midi": 70,
          "name": "A#4",
          "ticks": 8224,
          "time": 95.62790697674419,
          "velocity": 0.3937007874015748
        },
        {
          "duration": 0.06976744186046346,
          "durationTicks": 6,
          "midi": 79,
          "name": "G5",
          "ticks": 8225,
          "time": 95.63953488372093,
          "velocity": 0.1732283464566929
        },
        {
          "duration": 0.06976744186046346,
          "durationTicks": 6,
          "midi": 88,
          "name": "E6",
          "ticks": 8225,
          "time": 95.63953488372093,
          "velocity": 0.10236220472440945
        },
        {
          "duration": 0.03488372093023884,
          "durationTicks": 3,
          "midi": 94,
          "name": "A#6",
          "ticks": 8225,
          "time": 95.63953488372093,
          "velocity": 0.10236220472440945
        },
        {
          "duration": 0.33720930232559,
          "durationTicks": 29,
          "midi": 76,
          "name": "E5",
          "ticks": 8226,
          "time": 95.65116279069767,
          "velocity": 0.12598425196850394
        },
        {
          "duration": 0.27906976744186807,
          "durationTicks": 24,
          "midi": 84,
          "name": "C6",
          "ticks": 8226,
          "time": 95.65116279069767,
          "velocity": 0.2204724409448819
        },
        {
          "duration": 0.06976744186047767,
          "durationTicks": 6,
          "midi": 87,
          "name": "D#6",
          "ticks": 8226,
          "time": 95.65116279069767,
          "velocity": 0.1968503937007874
        },
        {
          "duration": 0.48837209302324425,
          "durationTicks": 42,
          "midi": 67,
          "name": "G4",
          "ticks": 8227,
          "time": 95.66279069767442,
          "velocity": 0.2283464566929134
        },
        {
          "duration": 0.12790697674418539,
          "durationTicks": 11,
          "midi": 90,
          "name": "F#6",
          "ticks": 8227,
          "time": 95.66279069767442,
          "velocity": 0.07874015748031496
        },
        {
          "duration": 0.034883720930224626,
          "durationTicks": 3,
          "midi": 83,
          "name": "B5",
          "ticks": 8228,
          "time": 95.67441860465117,
          "velocity": 0.1889763779527559
        },
        {
          "duration": 0.03488372093023884,
          "durationTicks": 3,
          "midi": 82,
          "name": "A#5",
          "ticks": 8229,
          "time": 95.68604651162791,
          "velocity": 0.12598425196850394
        },
        {
          "duration": 0.11627906976742963,
          "durationTicks": 10,
          "midi": 48,
          "name": "C3",
          "ticks": 8232,
          "time": 95.72093023255815,
          "velocity": 0.4645669291338583
        },
        {
          "duration": 0.2093023255813904,
          "durationTicks": 18,
          "midi": 48,
          "name": "C3",
          "ticks": 8243,
          "time": 95.84883720930233,
          "velocity": 0.48031496062992124
        },
        {
          "duration": 0.05813953488372192,
          "durationTicks": 5,
          "midi": 98,
          "name": "D7",
          "ticks": 8250,
          "time": 95.93023255813954,
          "velocity": 0.1732283464566929
        },
        {
          "duration": 0.03488372093023884,
          "durationTicks": 3,
          "midi": 95,
          "name": "B6",
          "ticks": 8251,
          "time": 95.94186046511628,
          "velocity": 0.12598425196850394
        },
        {
          "duration": 0.03488372093023884,
          "durationTicks": 3,
          "midi": 97,
          "name": "C#7",
          "ticks": 8251,
          "time": 95.94186046511628,
          "velocity": 0.16535433070866143
        },
        {
          "duration": 0.03488372093023884,
          "durationTicks": 3,
          "midi": 90,
          "name": "F#6",
          "ticks": 8252,
          "time": 95.95348837209302,
          "velocity": 0.07874015748031496
        },
        {
          "duration": 0.05813953488372192,
          "durationTicks": 5,
          "midi": 76,
          "name": "E5",
          "ticks": 8258,
          "time": 96.02325581395348,
          "velocity": 0.11023622047244094
        },
        {
          "duration": 0.081395348837205,
          "durationTicks": 7,
          "midi": 48,
          "name": "C3",
          "ticks": 8262,
          "time": 96.06976744186046,
          "velocity": 0.4409448818897638
        },
        {
          "duration": 0.023255813953497295,
          "durationTicks": 2,
          "midi": 49,
          "name": "C#3",
          "ticks": 8269,
          "time": 96.15116279069767,
          "velocity": 0.4645669291338583
        },
        {
          "duration": 0.6279069767441854,
          "durationTicks": 54,
          "midi": 57,
          "name": "A3",
          "ticks": 8269,
          "time": 96.15116279069767,
          "velocity": 0.4881889763779528
        },
        {
          "duration": 0.40697674418603924,
          "durationTicks": 35,
          "midi": 81,
          "name": "A5",
          "ticks": 8270,
          "time": 96.16279069767442,
          "velocity": 0.2204724409448819
        },
        {
          "duration": 0.034883720930224626,
          "durationTicks": 3,
          "midi": 71,
          "name": "B4",
          "ticks": 8271,
          "time": 96.17441860465117,
          "velocity": 0.11023622047244094
        },
        {
          "duration": 0.7441860465116292,
          "durationTicks": 64,
          "midi": 74,
          "name": "D5",
          "ticks": 8272,
          "time": 96.18604651162791,
          "velocity": 0.28346456692913385
        },
        {
          "duration": 0.5697674418604635,
          "durationTicks": 49,
          "midi": 50,
          "name": "D3",
          "ticks": 8273,
          "time": 96.19767441860465,
          "velocity": 0.4881889763779528
        },
        {
          "duration": 0.1860465116279073,
          "durationTicks": 16,
          "midi": 76,
          "name": "E5",
          "ticks": 8273,
          "time": 96.19767441860465,
          "velocity": 0.18110236220472442
        },
        {
          "duration": 0.04651162790698038,
          "durationTicks": 4,
          "midi": 100,
          "name": "E7",
          "ticks": 8273,
          "time": 96.19767441860465,
          "velocity": 0.09448818897637795
        },
        {
          "duration": 0.04651162790698038,
          "durationTicks": 4,
          "midi": 84,
          "name": "C6",
          "ticks": 8277,
          "time": 96.24418604651163,
          "velocity": 0.07086614173228346
        },
        {
          "duration": 0.24418604651162923,
          "durationTicks": 21,
          "midi": 84,
          "name": "C6",
          "ticks": 8293,
          "time": 96.43023255813954,
          "velocity": 0.2047244094488189
        },
        {
          "duration": 0.12790697674418539,
          "durationTicks": 11,
          "midi": 76,
          "name": "E5",
          "ticks": 8302,
          "time": 96.53488372093024,
          "velocity": 0.09448818897637795
        },
        {
          "duration": 0.034883720930224626,
          "durationTicks": 3,
          "midi": 70,
          "name": "A#4",
          "ticks": 8314,
          "time": 96.67441860465117,
          "velocity": 0.4094488188976378
        },
        {
          "duration": 0.034883720930224626,
          "durationTicks": 3,
          "midi": 81,
          "name": "A5",
          "ticks": 8314,
          "time": 96.67441860465117,
          "velocity": 0.07086614173228346
        },
        {
          "duration": 0.034883720930224626,
          "durationTicks": 3,
          "midi": 83,
          "name": "B5",
          "ticks": 8314,
          "time": 96.67441860465117,
          "velocity": 0.14173228346456693
        },
        {
          "duration": 0.034883720930224626,
          "durationTicks": 3,
          "midi": 87,
          "name": "D#6",
          "ticks": 8314,
          "time": 96.67441860465117,
          "velocity": 0.1889763779527559
        },
        {
          "duration": 0.06976744186046346,
          "durationTicks": 6,
          "midi": 84,
          "name": "C6",
          "ticks": 8315,
          "time": 96.68604651162791,
          "velocity": 0.14960629921259844
        },
        {
          "duration": 0.03488372093023884,
          "durationTicks": 3,
          "midi": 88,
          "name": "E6",
          "ticks": 8315,
          "time": 96.68604651162791,
          "velocity": 0.12598425196850394
        },
        {
          "duration": 0.04651162790698038,
          "durationTicks": 4,
          "midi": 71,
          "name": "B4",
          "ticks": 8317,
          "time": 96.70930232558139,
          "velocity": 0.31496062992125984
        },
        {
          "duration": 0.03488372093023884,
          "durationTicks": 3,
          "midi": 61,
          "name": "C#4",
          "ticks": 8321,
          "time": 96.75581395348837,
          "velocity": 0.3779527559055118
        },
        {
          "duration": 0.03488372093023884,
          "durationTicks": 3,
          "midi": 76,
          "name": "E5",
          "ticks": 8322,
          "time": 96.76744186046511,
          "velocity": 0.07086614173228346
        },
        {
          "duration": 0.25581395348837077,
          "durationTicks": 22,
          "midi": 90,
          "name": "F#6",
          "ticks": 8322,
          "time": 96.76744186046511,
          "velocity": 0.16535433070866143
        },
        {
          "duration": 0.06976744186047767,
          "durationTicks": 6,
          "midi": 50,
          "name": "D3",
          "ticks": 8323,
          "time": 96.77906976744185,
          "velocity": 0.44881889763779526
        },
        {
          "duration": 0.04651162790698038,
          "durationTicks": 4,
          "midi": 78,
          "name": "F#5",
          "ticks": 8323,
          "time": 96.77906976744185,
          "velocity": 0.09448818897637795
        },
        {
          "duration": 0.05813953488372192,
          "durationTicks": 5,
          "midi": 88,
          "name": "E6",
          "ticks": 8323,
          "time": 96.77906976744185,
          "velocity": 0.09448818897637795
        },
        {
          "duration": 0.2906976744185954,
          "durationTicks": 25,
          "midi": 57,
          "name": "A3",
          "ticks": 8324,
          "time": 96.79069767441861,
          "velocity": 0.33858267716535434
        },
        {
          "duration": 0.04651162790696617,
          "durationTicks": 4,
          "midi": 97,
          "name": "C#7",
          "ticks": 8324,
          "time": 96.79069767441861,
          "velocity": 0.09448818897637795
        },
        {
          "duration": 0.27906976744186807,
          "durationTicks": 24,
          "midi": 76,
          "name": "E5",
          "ticks": 8327,
          "time": 96.82558139534883,
          "velocity": 0.14173228346456693
        },
        {
          "duration": 0.06976744186046346,
          "durationTicks": 6,
          "midi": 50,
          "name": "D3",
          "ticks": 8330,
          "time": 96.86046511627907,
          "velocity": 0.4330708661417323
        },
        {
          "duration": 0.023255813953483084,
          "durationTicks": 2,
          "midi": 61,
          "name": "C#4",
          "ticks": 8335,
          "time": 96.9186046511628,
          "velocity": 0.29133858267716534
        },
        {
          "duration": 0.081395348837205,
          "durationTicks": 7,
          "midi": 78,
          "name": "F#5",
          "ticks": 8336,
          "time": 96.93023255813954,
          "velocity": 0.11023622047244094
        },
        {
          "duration": 0.6395348837209269,
          "durationTicks": 55,
          "midi": 84,
          "name": "C6",
          "ticks": 8336,
          "time": 96.93023255813954,
          "velocity": 0.2204724409448819
        },
        {
          "duration": 0.05813953488372192,
          "durationTicks": 5,
          "midi": 97,
          "name": "C#7",
          "ticks": 8336,
          "time": 96.93023255813954,
          "velocity": 0.14960629921259844
        },
        {
          "duration": 0.05813953488372192,
          "durationTicks": 5,
          "midi": 45,
          "name": "A2",
          "ticks": 8337,
          "time": 96.94186046511628,
          "velocity": 0.4015748031496063
        },
        {
          "duration": 1.081395348837205,
          "durationTicks": 93,
          "midi": 62,
          "name": "D4",
          "ticks": 8337,
          "time": 96.94186046511628,
          "velocity": 0.44881889763779526
        },
        {
          "duration": 0.12790697674418539,
          "durationTicks": 11,
          "midi": 86,
          "name": "D6",
          "ticks": 8337,
          "time": 96.94186046511628,
          "velocity": 0.09448818897637795
        },
        {
          "duration": 0.023255813953483084,
          "durationTicks": 2,
          "midi": 44,
          "name": "G#2",
          "ticks": 8342,
          "time": 97,
          "velocity": 0.29133858267716534
        },
        {
          "duration": 0.04651162790696617,
          "durationTicks": 4,
          "midi": 50,
          "name": "D3",
          "ticks": 8345,
          "time": 97.03488372093024,
          "velocity": 0.3464566929133858
        },
        {
          "duration": 0.023255813953497295,
          "durationTicks": 2,
          "midi": 41,
          "name": "F2",
          "ticks": 8350,
          "time": 97.09302325581395,
          "velocity": 0.4881889763779528
        },
        {
          "duration": 0.05813953488372192,
          "durationTicks": 5,
          "midi": 50,
          "name": "D3",
          "ticks": 8350,
          "time": 97.09302325581395,
          "velocity": 0.3700787401574803
        },
        {
          "duration": 0.05813953488372192,
          "durationTicks": 5,
          "midi": 57,
          "name": "A3",
          "ticks": 8351,
          "time": 97.1046511627907,
          "velocity": 0.1889763779527559
        },
        {
          "duration": 0.30232558139535115,
          "durationTicks": 26,
          "midi": 50,
          "name": "D3",
          "ticks": 8357,
          "time": 97.17441860465117,
          "velocity": 0.3700787401574803
        },
        {
          "duration": 0.04651162790698038,
          "durationTicks": 4,
          "midi": 57,
          "name": "A3",
          "ticks": 8358,
          "time": 97.18604651162791,
          "velocity": 0.2125984251968504
        },
        {
          "duration": 0.11627906976744384,
          "durationTicks": 10,
          "midi": 57,
          "name": "A3",
          "ticks": 8363,
          "time": 97.24418604651163,
          "velocity": 0.25984251968503935
        },
        {
          "duration": 0.06976744186046346,
          "durationTicks": 6,
          "midi": 78,
          "name": "F#5",
          "ticks": 8363,
          "time": 97.24418604651163,
          "velocity": 0.11023622047244094
        },
        {
          "duration": 0.03488372093023884,
          "durationTicks": 3,
          "midi": 97,
          "name": "C#7",
          "ticks": 8365,
          "time": 97.26744186046511,
          "velocity": 0.09448818897637795
        },
        {
          "duration": 0.023255813953483084,
          "durationTicks": 2,
          "midi": 45,
          "name": "A2",
          "ticks": 8368,
          "time": 97.30232558139535,
          "velocity": 0.33858267716535434
        },
        {
          "duration": 0.03488372093023884,
          "durationTicks": 3,
          "midi": 70,
          "name": "A#4",
          "ticks": 8371,
          "time": 97.33720930232558,
          "velocity": 0.3779527559055118
        },
        {
          "duration": 0.03488372093023884,
          "durationTicks": 3,
          "midi": 90,
          "name": "F#6",
          "ticks": 8371,
          "time": 97.33720930232558,
          "velocity": 0.12598425196850394
        },
        {
          "duration": 0.03488372093023884,
          "durationTicks": 3,
          "midi": 71,
          "name": "B4",
          "ticks": 8374,
          "time": 97.37209302325581,
          "velocity": 0.16535433070866143
        },
        {
          "duration": 0.04651162790696617,
          "durationTicks": 4,
          "midi": 97,
          "name": "C#7",
          "ticks": 8377,
          "time": 97.40697674418605,
          "velocity": 0.08661417322834646
        },
        {
          "duration": 0.04651162790698038,
          "durationTicks": 4,
          "midi": 57,
          "name": "A3",
          "ticks": 8379,
          "time": 97.43023255813954,
          "velocity": 0.23622047244094488
        },
        {
          "duration": 0.03488372093023884,
          "durationTicks": 3,
          "midi": 69,
          "name": "A4",
          "ticks": 8381,
          "time": 97.45348837209302,
          "velocity": 0.23622047244094488
        },
        {
          "duration": 0.023255813953483084,
          "durationTicks": 2,
          "midi": 58,
          "name": "A#3",
          "ticks": 8383,
          "time": 97.47674418604652,
          "velocity": 0.31496062992125984
        },
        {
          "duration": 0.10465116279068809,
          "durationTicks": 9,
          "midi": 50,
          "name": "D3",
          "ticks": 8384,
          "time": 97.48837209302326,
          "velocity": 0.4094488188976378
        },
        {
          "duration": 0.03488372093023884,
          "durationTicks": 3,
          "midi": 41,
          "name": "F2",
          "ticks": 8385,
          "time": 97.5,
          "velocity": 0.4645669291338583
        },
        {
          "duration": 0.22093023255814614,
          "durationTicks": 19,
          "midi": 69,
          "name": "A4",
          "ticks": 8387,
          "time": 97.52325581395348,
          "velocity": 0.31496062992125984
        },
        {
          "duration": 0.04651162790698038,
          "durationTicks": 4,
          "midi": 57,
          "name": "A3",
          "ticks": 8390,
          "time": 97.55813953488372,
          "velocity": 0.15748031496062992
        },
        {
          "duration": 0.04651162790698038,
          "durationTicks": 4,
          "midi": 102,
          "name": "F#7",
          "ticks": 8391,
          "time": 97.56976744186046,
          "velocity": 0.07086614173228346
        },
        {
          "duration": 0.1860465116279073,
          "durationTicks": 16,
          "midi": 50,
          "name": "D3",
          "ticks": 8394,
          "time": 97.6046511627907,
          "velocity": 0.3858267716535433
        },
        {
          "duration": 0.40697674418605345,
          "durationTicks": 35,
          "midi": 84,
          "name": "C6",
          "ticks": 8396,
          "time": 97.62790697674419,
          "velocity": 0.2440944881889764
        },
        {
          "duration": 0.023255813953497295,
          "durationTicks": 2,
          "midi": 45,
          "name": "A2",
          "ticks": 8398,
          "time": 97.65116279069767,
          "velocity": 0.33070866141732286
        },
        {
          "duration": 0.023255813953483084,
          "durationTicks": 2,
          "midi": 83,
          "name": "B5",
          "ticks": 8405,
          "time": 97.73255813953489,
          "velocity": 0.25196850393700787
        },
        {
          "duration": 0.04651162790696617,
          "durationTicks": 4,
          "midi": 87,
          "name": "D#6",
          "ticks": 8405,
          "time": 97.73255813953489,
          "velocity": 0.12598425196850394
        },
        {
          "duration": 0.023255813953483084,
          "durationTicks": 2,
          "midi": 70,
          "name": "A#4",
          "ticks": 8406,
          "time": 97.74418604651163,
          "velocity": 0.3464566929133858
        },
        {
          "duration": 0.04651162790698038,
          "durationTicks": 4,
          "midi": 81,
          "name": "A5",
          "ticks": 8406,
          "time": 97.74418604651163,
          "velocity": 0.11811023622047244
        },
        {
          "duration": 0.023255813953497295,
          "durationTicks": 2,
          "midi": 71,
          "name": "B4",
          "ticks": 8408,
          "time": 97.76744186046511,
          "velocity": 0.2440944881889764
        },
        {
          "duration": 0.09302325581394655,
          "durationTicks": 8,
          "midi": 69,
          "name": "A4",
          "ticks": 8410,
          "time": 97.79069767441861,
          "velocity": 0.2125984251968504
        },
        {
          "duration": 0.11627906976744384,
          "durationTicks": 10,
          "midi": 93,
          "name": "A6",
          "ticks": 8410,
          "time": 97.79069767441861,
          "velocity": 0.09448818897637795
        },
        {
          "duration": 0.034883720930224626,
          "durationTicks": 3,
          "midi": 56,
          "name": "G#3",
          "ticks": 8411,
          "time": 97.80232558139535,
          "velocity": 0.15748031496062992
        },
        {
          "duration": 0.15116279069766847,
          "durationTicks": 13,
          "midi": 50,
          "name": "D3",
          "ticks": 8412,
          "time": 97.81395348837209,
          "velocity": 0.3858267716535433
        },
        {
          "duration": 0.03488372093023884,
          "durationTicks": 3,
          "midi": 57,
          "name": "A3",
          "ticks": 8417,
          "time": 97.87209302325581,
          "velocity": 0.15748031496062992
        },
        {
          "duration": 0.034883720930224626,
          "durationTicks": 3,
          "midi": 69,
          "name": "A4",
          "ticks": 8422,
          "time": 97.93023255813954,
          "velocity": 0.11811023622047244
        },
        {
          "duration": 0.04651162790696617,
          "durationTicks": 4,
          "midi": 50,
          "name": "D3",
          "ticks": 8426,
          "time": 97.97674418604652,
          "velocity": 0.4094488188976378
        },
        {
          "duration": 0.04651162790698038,
          "durationTicks": 4,
          "midi": 56,
          "name": "G#3",
          "ticks": 8429,
          "time": 98.01162790697674,
          "velocity": 0.36220472440944884
        },
        {
          "duration": 0.023255813953497295,
          "durationTicks": 2,
          "midi": 60,
          "name": "C4",
          "ticks": 8430,
          "time": 98.02325581395348,
          "velocity": 0.29133858267716534
        },
        {
          "duration": 0.03488372093023884,
          "durationTicks": 3,
          "midi": 69,
          "name": "A4",
          "ticks": 8430,
          "time": 98.02325581395348,
          "velocity": 0.23622047244094488
        },
        {
          "duration": 0.034883720930224626,
          "durationTicks": 3,
          "midi": 85,
          "name": "C#6",
          "ticks": 8431,
          "time": 98.03488372093024,
          "velocity": 0.14960629921259844
        },
        {
          "duration": 0.04651162790696617,
          "durationTicks": 4,
          "midi": 49,
          "name": "C#3",
          "ticks": 8432,
          "time": 98.04651162790698,
          "velocity": 0.41732283464566927
        },
        {
          "duration": 0.04651162790698038,
          "durationTicks": 4,
          "midi": 68,
          "name": "G#4",
          "ticks": 8433,
          "time": 98.05813953488372,
          "velocity": 0.18110236220472442
        },
        {
          "duration": 0.034883720930224626,
          "durationTicks": 3,
          "midi": 71,
          "name": "B4",
          "ticks": 8438,
          "time": 98.11627906976744,
          "velocity": 0.14173228346456693
        },
        {
          "duration": 0.03488372093023884,
          "durationTicks": 3,
          "midi": 60,
          "name": "C4",
          "ticks": 8439,
          "time": 98.12790697674419,
          "velocity": 0.36220472440944884
        },
        {
          "duration": 0.04651162790698038,
          "durationTicks": 4,
          "midi": 66,
          "name": "F#4",
          "ticks": 8439,
          "time": 98.12790697674419,
          "velocity": 0.15748031496062992
        },
        {
          "duration": 0.023255813953497295,
          "durationTicks": 2,
          "midi": 46,
          "name": "A#2",
          "ticks": 8441,
          "time": 98.15116279069767,
          "velocity": 0.3779527559055118
        },
        {
          "duration": 0.05813953488372192,
          "durationTicks": 5,
          "midi": 58,
          "name": "A#3",
          "ticks": 8443,
          "time": 98.17441860465117,
          "velocity": 0.29133858267716534
        },
        {
          "duration": 0.023255813953483084,
          "durationTicks": 2,
          "midi": 46,
          "name": "A#2",
          "ticks": 8444,
          "time": 98.18604651162791,
          "velocity": 0.4015748031496063
        },
        {
          "duration": 0.06976744186046346,
          "durationTicks": 6,
          "midi": 45,
          "name": "A2",
          "ticks": 8446,
          "time": 98.20930232558139,
          "velocity": 0.4330708661417323
        },
        {
          "duration": 0.05813953488372192,
          "durationTicks": 5,
          "midi": 56,
          "name": "G#3",
          "ticks": 8448,
          "time": 98.23255813953489,
          "velocity": 0.4409448818897638
        },
        {
          "duration": 0.11627906976744384,
          "durationTicks": 10,
          "midi": 64,
          "name": "E4",
          "ticks": 8449,
          "time": 98.24418604651163,
          "velocity": 0.3228346456692913
        },
        {
          "duration": 0.034883720930224626,
          "durationTicks": 3,
          "midi": 69,
          "name": "A4",
          "ticks": 8449,
          "time": 98.24418604651163,
          "velocity": 0.13385826771653545
        },
        {
          "duration": 0.04651162790698038,
          "durationTicks": 4,
          "midi": 73,
          "name": "C#5",
          "ticks": 8449,
          "time": 98.24418604651163,
          "velocity": 0.18110236220472442
        },
        {
          "duration": 0.081395348837205,
          "durationTicks": 7,
          "midi": 89,
          "name": "F6",
          "ticks": 8449,
          "time": 98.24418604651163,
          "velocity": 0.16535433070866143
        },
        {
          "duration": 0.034883720930224626,
          "durationTicks": 3,
          "midi": 91,
          "name": "G6",
          "ticks": 8449,
          "time": 98.24418604651163,
          "velocity": 0.14960629921259844
        },
        {
          "duration": 0.05813953488372192,
          "durationTicks": 5,
          "midi": 79,
          "name": "G5",
          "ticks": 8450,
          "time": 98.25581395348837,
          "velocity": 0.10236220472440945
        },
        {
          "duration": 0.03488372093023884,
          "durationTicks": 3,
          "midi": 87,
          "name": "D#6",
          "ticks": 8451,
          "time": 98.26744186046511,
          "velocity": 0.07086614173228346
        },
        {
          "duration": 0.32558139534884845,
          "durationTicks": 28,
          "midi": 74,
          "name": "D5",
          "ticks": 8452,
          "time": 98.27906976744185,
          "velocity": 0.25196850393700787
        },
        {
          "duration": 0.5116279069767558,
          "durationTicks": 44,
          "midi": 81,
          "name": "A5",
          "ticks": 8452,
          "time": 98.27906976744185,
          "velocity": 0.2440944881889764
        },
        {
          "duration": 0.7790697674418539,
          "durationTicks": 67,
          "midi": 57,
          "name": "A3",
          "ticks": 8453,
          "time": 98.29069767441861,
          "velocity": 0.4645669291338583
        },
        {
          "duration": 0.023255813953483084,
          "durationTicks": 2,
          "midi": 45,
          "name": "A2",
          "ticks": 8455,
          "time": 98.31395348837209,
          "velocity": 0.4094488188976378
        },
        {
          "duration": 0.32558139534883423,
          "durationTicks": 28,
          "midi": 62,
          "name": "D4",
          "ticks": 8458,
          "time": 98.34883720930233,
          "velocity": 0.36220472440944884
        },
        {
          "duration": 0.04651162790698038,
          "durationTicks": 4,
          "midi": 78,
          "name": "F#5",
          "ticks": 8459,
          "time": 98.36046511627907,
          "velocity": 0.07874015748031496
        },
        {
          "duration": 0.04651162790698038,
          "durationTicks": 4,
          "midi": 45,
          "name": "A2",
          "ticks": 8460,
          "time": 98.37209302325581,
          "velocity": 0.33070866141732286
        },
        {
          "duration": 0.12790697674418539,
          "durationTicks": 11,
          "midi": 89,
          "name": "F6",
          "ticks": 8460,
          "time": 98.37209302325581,
          "velocity": 0.14960629921259844
        },
        {
          "duration": 0.023255813953497295,
          "durationTicks": 2,
          "midi": 50,
          "name": "D3",
          "ticks": 8462,
          "time": 98.3953488372093,
          "velocity": 0.33070866141732286
        },
        {
          "duration": 0.04651162790698038,
          "durationTicks": 4,
          "midi": 50,
          "name": "D3",
          "ticks": 8465,
          "time": 98.43023255813954,
          "velocity": 0.3464566929133858
        },
        {
          "duration": 0.023255813953497295,
          "durationTicks": 2,
          "midi": 45,
          "name": "A2",
          "ticks": 8467,
          "time": 98.45348837209302,
          "velocity": 0.31496062992125984
        },
        {
          "duration": 0.06976744186046346,
          "durationTicks": 6,
          "midi": 79,
          "name": "G5",
          "ticks": 8467,
          "time": 98.45348837209302,
          "velocity": 0.08661417322834646
        },
        {
          "duration": 0.04651162790696617,
          "durationTicks": 4,
          "midi": 45,
          "name": "A2",
          "ticks": 8474,
          "time": 98.53488372093024,
          "velocity": 0.33858267716535434
        },
        {
          "duration": 0.023255813953483084,
          "durationTicks": 2,
          "midi": 50,
          "name": "D3",
          "ticks": 8474,
          "time": 98.53488372093024,
          "velocity": 0.30708661417322836
        },
        {
          "duration": 0.05813953488372192,
          "durationTicks": 5,
          "midi": 85,
          "name": "C#6",
          "ticks": 8475,
          "time": 98.54651162790698,
          "velocity": 0.07874015748031496
        },
        {
          "duration": 0.17441860465116577,
          "durationTicks": 15,
          "midi": 73,
          "name": "C#5",
          "ticks": 8479,
          "time": 98.59302325581395,
          "velocity": 0.1732283464566929
        },
        {
          "duration": 0.023255813953483084,
          "durationTicks": 2,
          "midi": 45,
          "name": "A2",
          "ticks": 8481,
          "time": 98.61627906976744,
          "velocity": 0.33858267716535434
        },
        {
          "duration": 0.023255813953483084,
          "durationTicks": 2,
          "midi": 50,
          "name": "D3",
          "ticks": 8481,
          "time": 98.61627906976744,
          "velocity": 0.2992125984251969
        },
        {
          "duration": 0.06976744186046346,
          "durationTicks": 6,
          "midi": 45,
          "name": "A2",
          "ticks": 8486,
          "time": 98.67441860465117,
          "velocity": 0.33858267716535434
        },
        {
          "duration": 0.023255813953483084,
          "durationTicks": 2,
          "midi": 62,
          "name": "D4",
          "ticks": 8487,
          "time": 98.68604651162791,
          "velocity": 0.3700787401574803
        },
        {
          "duration": 0.023255813953497295,
          "durationTicks": 2,
          "midi": 50,
          "name": "D3",
          "ticks": 8488,
          "time": 98.69767441860465,
          "velocity": 0.29133858267716534
        },
        {
          "duration": 0.7674418604651123,
          "durationTicks": 66,
          "midi": 64,
          "name": "E4",
          "ticks": 8488,
          "time": 98.69767441860465,
          "velocity": 0.4015748031496063
        },
        {
          "duration": 0.43023255813953654,
          "durationTicks": 37,
          "midi": 45,
          "name": "A2",
          "ticks": 8493,
          "time": 98.75581395348837,
          "velocity": 0.33070866141732286
        },
        {
          "duration": 0.04651162790698038,
          "durationTicks": 4,
          "midi": 71,
          "name": "B4",
          "ticks": 8494,
          "time": 98.76744186046511,
          "velocity": 0.4409448818897638
        },
        {
          "duration": 0.13953488372094114,
          "durationTicks": 12,
          "midi": 89,
          "name": "F6",
          "ticks": 8494,
          "time": 98.76744186046511,
          "velocity": 0.09448818897637795
        },
        {
          "duration": 0.023255813953497295,
          "durationTicks": 2,
          "midi": 73,
          "name": "C#5",
          "ticks": 8495,
          "time": 98.77906976744185,
          "velocity": 0.25984251968503935
        },
        {
          "duration": 0.09302325581396076,
          "durationTicks": 8,
          "midi": 73,
          "name": "C#5",
          "ticks": 8498,
          "time": 98.81395348837209,
          "velocity": 0.23622047244094488
        },
        {
          "duration": 0.03488372093023884,
          "durationTicks": 3,
          "midi": 71,
          "name": "B4",
          "ticks": 8500,
          "time": 98.83720930232558,
          "velocity": 0.2204724409448819
        },
        {
          "duration": 0.04651162790698038,
          "durationTicks": 4,
          "midi": 71,
          "name": "B4",
          "ticks": 8505,
          "time": 98.8953488372093,
          "velocity": 0.10236220472440945
        },
        {
          "duration": 0.06976744186046346,
          "durationTicks": 6,
          "midi": 74,
          "name": "D5",
          "ticks": 8505,
          "time": 98.8953488372093,
          "velocity": 0.1732283464566929
        },
        {
          "duration": 0.22093023255814614,
          "durationTicks": 19,
          "midi": 73,
          "name": "C#5",
          "ticks": 8511,
          "time": 98.96511627906976,
          "velocity": 0.15748031496062992
        },
        {
          "duration": 0.30232558139535115,
          "durationTicks": 26,
          "midi": 69,
          "name": "A4",
          "ticks": 8523,
          "time": 99.1046511627907,
          "velocity": 0.2677165354330709
        },
        {
          "duration": 0.04651162790698038,
          "durationTicks": 4,
          "midi": 73,
          "name": "C#5",
          "ticks": 8532,
          "time": 99.20930232558139,
          "velocity": 0.07874015748031496
        },
        {
          "duration": 0.023255813953483084,
          "durationTicks": 2,
          "midi": 46,
          "name": "A#2",
          "ticks": 8536,
          "time": 99.25581395348837,
          "velocity": 0.29133858267716534
        },
        {
          "duration": 0.16279069767442422,
          "durationTicks": 14,
          "midi": 74,
          "name": "D5",
          "ticks": 8536,
          "time": 99.25581395348837,
          "velocity": 0.13385826771653545
        },
        {
          "duration": 0.023255813953497295,
          "durationTicks": 2,
          "midi": 44,
          "name": "G#2",
          "ticks": 8538,
          "time": 99.27906976744185,
          "velocity": 0.31496062992125984
        },
        {
          "duration": 0.24418604651162923,
          "durationTicks": 21,
          "midi": 45,
          "name": "A2",
          "ticks": 8540,
          "time": 99.30232558139535,
          "velocity": 0.30708661417322836
        },
        {
          "duration": 0.023255813953483084,
          "durationTicks": 2,
          "midi": 70,
          "name": "A#4",
          "ticks": 8551,
          "time": 99.43023255813954,
          "velocity": 0.28346456692913385
        },
        {
          "duration": 0.034883720930224626,
          "durationTicks": 3,
          "midi": 83,
          "name": "B5",
          "ticks": 8551,
          "time": 99.43023255813954,
          "velocity": 0.12598425196850394
        },
        {
          "duration": 0.04651162790698038,
          "durationTicks": 4,
          "midi": 74,
          "name": "D5",
          "ticks": 8552,
          "time": 99.44186046511628,
          "velocity": 0.4094488188976378
        },
        {
          "duration": 0.1046511627907023,
          "durationTicks": 9,
          "midi": 62,
          "name": "D4",
          "ticks": 8553,
          "time": 99.45348837209302,
          "velocity": 0.2677165354330709
        },
        {
          "duration": 0.03488372093023884,
          "durationTicks": 3,
          "midi": 73,
          "name": "C#5",
          "ticks": 8558,
          "time": 99.51162790697674,
          "velocity": 0.09448818897637795
        },
        {
          "duration": 0.13953488372092693,
          "durationTicks": 12,
          "midi": 76,
          "name": "E5",
          "ticks": 8561,
          "time": 99.54651162790698,
          "velocity": 0.12598425196850394
        },
        {
          "duration": 0.11627906976744384,
          "durationTicks": 10,
          "midi": 64,
          "name": "E4",
          "ticks": 8562,
          "time": 99.55813953488372,
          "velocity": 0.2755905511811024
        },
        {
          "duration": 0.023255813953483084,
          "durationTicks": 2,
          "midi": 41,
          "name": "F2",
          "ticks": 8563,
          "time": 99.56976744186046,
          "velocity": 0.5275590551181102
        },
        {
          "duration": 0.09302325581396076,
          "durationTicks": 8,
          "midi": 73,
          "name": "C#5",
          "ticks": 8563,
          "time": 99.56976744186046,
          "velocity": 0.10236220472440945
        },
        {
          "duration": 0.2093023255814046,
          "durationTicks": 18,
          "midi": 69,
          "name": "A4",
          "ticks": 8564,
          "time": 99.5813953488372,
          "velocity": 0.18110236220472442
        },
        {
          "duration": 0.03488372093023884,
          "durationTicks": 3,
          "midi": 44,
          "name": "G#2",
          "ticks": 8569,
          "time": 99.63953488372093,
          "velocity": 0.2677165354330709
        },
        {
          "duration": 0.11627906976744384,
          "durationTicks": 10,
          "midi": 62,
          "name": "D4",
          "ticks": 8572,
          "time": 99.67441860465117,
          "velocity": 0.2204724409448819
        },
        {
          "duration": 0.09302325581394655,
          "durationTicks": 8,
          "midi": 45,
          "name": "A2",
          "ticks": 8573,
          "time": 99.68604651162791,
          "velocity": 0.25196850393700787
        },
        {
          "duration": 0.11627906976744384,
          "durationTicks": 10,
          "midi": 73,
          "name": "C#5",
          "ticks": 8573,
          "time": 99.68604651162791,
          "velocity": 0.16535433070866143
        },
        {
          "duration": 0.023255813953483084,
          "durationTicks": 2,
          "midi": 45,
          "name": "A2",
          "ticks": 8582,
          "time": 99.79069767441861,
          "velocity": 0.25196850393700787
        },
        {
          "duration": 0.081395348837205,
          "durationTicks": 7,
          "midi": 74,
          "name": "D5",
          "ticks": 8582,
          "time": 99.79069767441861,
          "velocity": 0.2125984251968504
        },
        {
          "duration": 0.034883720930224626,
          "durationTicks": 3,
          "midi": 79,
          "name": "G5",
          "ticks": 8583,
          "time": 99.80232558139535,
          "velocity": 0.10236220472440945
        },
        {
          "duration": 0.06976744186046346,
          "durationTicks": 6,
          "midi": 55,
          "name": "G3",
          "ticks": 8584,
          "time": 99.81395348837209,
          "velocity": 0.5433070866141733
        },
        {
          "duration": 0.03488372093023884,
          "durationTicks": 3,
          "midi": 71,
          "name": "B4",
          "ticks": 8585,
          "time": 99.82558139534883,
          "velocity": 0.13385826771653545
        },
        {
          "duration": 0.03488372093023884,
          "durationTicks": 3,
          "midi": 73,
          "name": "C#5",
          "ticks": 8589,
          "time": 99.87209302325581,
          "velocity": 0.18110236220472442
        },
        {
          "duration": 0.03488372093023884,
          "durationTicks": 3,
          "midi": 78,
          "name": "F#5",
          "ticks": 8589,
          "time": 99.87209302325581,
          "velocity": 0.07086614173228346
        },
        {
          "duration": 0.023255813953497295,
          "durationTicks": 2,
          "midi": 53,
          "name": "F3",
          "ticks": 8591,
          "time": 99.8953488372093,
          "velocity": 0.4015748031496063
        },
        {
          "duration": 0.04651162790698038,
          "durationTicks": 4,
          "midi": 52,
          "name": "E3",
          "ticks": 8595,
          "time": 99.94186046511628,
          "velocity": 0.3464566929133858
        },
        {
          "duration": 0.03488372093023884,
          "durationTicks": 3,
          "midi": 55,
          "name": "G3",
          "ticks": 8600,
          "time": 100,
          "velocity": 0.13385826771653545
        },
        {
          "duration": 0.03488372093023884,
          "durationTicks": 3,
          "midi": 50,
          "name": "D3",
          "ticks": 8602,
          "time": 100.02325581395348,
          "velocity": 0.18110236220472442
        },
        {
          "duration": 0.034883720930224626,
          "durationTicks": 3,
          "midi": 61,
          "name": "C#4",
          "ticks": 8605,
          "time": 100.05813953488372,
          "velocity": 0.09448818897637795
        },
        {
          "duration": 0.04651162790698038,
          "durationTicks": 4,
          "midi": 48,
          "name": "C3",
          "ticks": 8607,
          "time": 100.0813953488372,
          "velocity": 0.18110236220472442
        },
        {
          "duration": 0.05813953488372192,
          "durationTicks": 5,
          "midi": 46,
          "name": "A#2",
          "ticks": 8612,
          "time": 100.13953488372093,
          "velocity": 0.18110236220472442
        },
        {
          "duration": 0.081395348837205,
          "durationTicks": 7,
          "midi": 44,
          "name": "G#2",
          "ticks": 8619,
          "time": 100.22093023255815,
          "velocity": 0.25196850393700787
        },
        {
          "duration": 0.3953488372093119,
          "durationTicks": 34,
          "midi": 74,
          "name": "D5",
          "ticks": 8628,
          "time": 100.32558139534883,
          "velocity": 0.33858267716535434
        },
        {
          "duration": 0.03488372093023884,
          "durationTicks": 3,
          "midi": 77,
          "name": "F5",
          "ticks": 8628,
          "time": 100.32558139534883,
          "velocity": 0.2125984251968504
        },
        {
          "duration": 0.03488372093023884,
          "durationTicks": 3,
          "midi": 45,
          "name": "A2",
          "ticks": 8629,
          "time": 100.33720930232558,
          "velocity": 0.41732283464566927
        },
        {
          "duration": 0.5232558139534973,
          "durationTicks": 45,
          "midi": 70,
          "name": "A#4",
          "ticks": 8629,
          "time": 100.33720930232558,
          "velocity": 0.4094488188976378
        },
        {
          "duration": 0.3953488372092977,
          "durationTicks": 34,
          "midi": 58,
          "name": "A#3",
          "ticks": 8630,
          "time": 100.34883720930233,
          "velocity": 0.4094488188976378
        },
        {
          "duration": 0.24418604651162923,
          "durationTicks": 21,
          "midi": 46,
          "name": "A#2",
          "ticks": 8632,
          "time": 100.37209302325581,
          "velocity": 0.3464566929133858
        },
        {
          "duration": 0.06976744186046346,
          "durationTicks": 6,
          "midi": 89,
          "name": "F6",
          "ticks": 8639,
          "time": 100.45348837209302,
          "velocity": 0.14960629921259844
        },
        {
          "duration": 0.06976744186046346,
          "durationTicks": 6,
          "midi": 89,
          "name": "F6",
          "ticks": 8648,
          "time": 100.55813953488372,
          "velocity": 0.13385826771653545
        },
        {
          "duration": 0.15116279069766847,
          "durationTicks": 13,
          "midi": 62,
          "name": "D4",
          "ticks": 8652,
          "time": 100.6046511627907,
          "velocity": 0.31496062992125984
        },
        {
          "duration": 0.023255813953483084,
          "durationTicks": 2,
          "midi": 45,
          "name": "A2",
          "ticks": 8653,
          "time": 100.61627906976744,
          "velocity": 0.3543307086614173
        },
        {
          "duration": 0.12790697674418539,
          "durationTicks": 11,
          "midi": 46,
          "name": "A#2",
          "ticks": 8655,
          "time": 100.63953488372093,
          "velocity": 0.3858267716535433
        },
        {
          "duration": 0.1860465116279073,
          "durationTicks": 16,
          "midi": 89,
          "name": "F6",
          "ticks": 8657,
          "time": 100.66279069767442,
          "velocity": 0.18110236220472442
        },
        {
          "duration": 0.023255813953483084,
          "durationTicks": 2,
          "midi": 59,
          "name": "B3",
          "ticks": 8664,
          "time": 100.74418604651163,
          "velocity": 0.3464566929133858
        },
        {
          "duration": 0.12790697674418539,
          "durationTicks": 11,
          "midi": 86,
          "name": "D6",
          "ticks": 8664,
          "time": 100.74418604651163,
          "velocity": 0.11811023622047244
        },
        {
          "duration": 0.13953488372092693,
          "durationTicks": 12,
          "midi": 74,
          "name": "D5",
          "ticks": 8665,
          "time": 100.75581395348837,
          "velocity": 0.2992125984251969
        },
        {
          "duration": 0.1046511627907023,
          "durationTicks": 9,
          "midi": 58,
          "name": "A#3",
          "ticks": 8666,
          "time": 100.76744186046511,
          "velocity": 0.3858267716535433
        },
        {
          "duration": 0.08139534883721922,
          "durationTicks": 7,
          "midi": 46,
          "name": "A#2",
          "ticks": 8667,
          "time": 100.77906976744185,
          "velocity": 0.3228346456692913
        },
        {
          "duration": 0.09302325581396076,
          "durationTicks": 8,
          "midi": 62,
          "name": "D4",
          "ticks": 8667,
          "time": 100.77906976744185,
          "velocity": 0.28346456692913385
        },
        {
          "duration": 0.034883720930224626,
          "durationTicks": 3,
          "midi": 44,
          "name": "G#2",
          "ticks": 8674,
          "time": 100.86046511627907,
          "velocity": 0.3464566929133858
        },
        {
          "duration": 0.023255813953483084,
          "durationTicks": 2,
          "midi": 55,
          "name": "G3",
          "ticks": 8675,
          "time": 100.87209302325581,
          "velocity": 0.25196850393700787
        },
        {
          "duration": 0.023255813953483084,
          "durationTicks": 2,
          "midi": 61,
          "name": "C#4",
          "ticks": 8675,
          "time": 100.87209302325581,
          "velocity": 0.25196850393700787
        },
        {
          "duration": 0.03488372093023884,
          "durationTicks": 3,
          "midi": 70,
          "name": "A#4",
          "ticks": 8675,
          "time": 100.87209302325581,
          "velocity": 0.1968503937007874
        },
        {
          "duration": 0.023255813953483084,
          "durationTicks": 2,
          "midi": 58,
          "name": "A#3",
          "ticks": 8684,
          "time": 100.97674418604652,
          "velocity": 0.2992125984251969
        },
        {
          "duration": 0.023255813953483084,
          "durationTicks": 2,
          "midi": 45,
          "name": "A2",
          "ticks": 8685,
          "time": 100.98837209302326,
          "velocity": 0.3228346456692913
        },
        {
          "duration": 0.12790697674418539,
          "durationTicks": 11,
          "midi": 69,
          "name": "A4",
          "ticks": 8685,
          "time": 100.98837209302326,
          "velocity": 0.2755905511811024
        },
        {
          "duration": 0.11627906976744384,
          "durationTicks": 10,
          "midi": 57,
          "name": "A3",
          "ticks": 8686,
          "time": 101,
          "velocity": 0.4330708661417323
        },
        {
          "duration": 0.023255813953497295,
          "durationTicks": 2,
          "midi": 43,
          "name": "G2",
          "ticks": 8687,
          "time": 101.01162790697674,
          "velocity": 0.25984251968503935
        },
        {
          "duration": 0.1046511627907023,
          "durationTicks": 9,
          "midi": 76,
          "name": "E5",
          "ticks": 8687,
          "time": 101.01162790697674,
          "velocity": 0.12598425196850394
        },
        {
          "duration": 0.11627906976744384,
          "durationTicks": 10,
          "midi": 97,
          "name": "C#7",
          "ticks": 8687,
          "time": 101.01162790697674,
          "velocity": 0.07086614173228346
        },
        {
          "duration": 0.023255813953483084,
          "durationTicks": 2,
          "midi": 48,
          "name": "C3",
          "ticks": 8696,
          "time": 101.11627906976744,
          "velocity": 0.3700787401574803
        },
        {
          "duration": 0.023255813953483084,
          "durationTicks": 2,
          "midi": 61,
          "name": "C#4",
          "ticks": 8696,
          "time": 101.11627906976744,
          "velocity": 0.33070866141732286
        },
        {
          "duration": 0.38372093023255616,
          "durationTicks": 33,
          "midi": 70,
          "name": "A#4",
          "ticks": 8696,
          "time": 101.11627906976744,
          "velocity": 0.3858267716535433
        },
        {
          "duration": 0.034883720930224626,
          "durationTicks": 3,
          "midi": 74,
          "name": "D5",
          "ticks": 8696,
          "time": 101.11627906976744,
          "velocity": 0.15748031496062992
        },
        {
          "duration": 0.2906976744186096,
          "durationTicks": 25,
          "midi": 77,
          "name": "F5",
          "ticks": 8696,
          "time": 101.11627906976744,
          "velocity": 0.15748031496062992
        },
        {
          "duration": 0.04651162790698038,
          "durationTicks": 4,
          "midi": 89,
          "name": "F6",
          "ticks": 8696,
          "time": 101.11627906976744,
          "velocity": 0.16535433070866143
        },
        {
          "duration": 0.25581395348837077,
          "durationTicks": 22,
          "midi": 58,
          "name": "A#3",
          "ticks": 8698,
          "time": 101.13953488372093,
          "velocity": 0.5039370078740157
        },
        {
          "duration": 0.06976744186046346,
          "durationTicks": 6,
          "midi": 89,
          "name": "F6",
          "ticks": 8701,
          "time": 101.17441860465117,
          "velocity": 0.1732283464566929
        },
        {
          "duration": 0.03488372093023884,
          "durationTicks": 3,
          "midi": 44,
          "name": "G#2",
          "ticks": 8702,
          "time": 101.18604651162791,
          "velocity": 0.08661417322834646
        },
        {
          "duration": 0.023255813953497295,
          "durationTicks": 2,
          "midi": 45,
          "name": "A2",
          "ticks": 8710,
          "time": 101.27906976744185,
          "velocity": 0.3700787401574803
        },
        {
          "duration": 0.25581395348837077,
          "durationTicks": 22,
          "midi": 74,
          "name": "D5",
          "ticks": 8711,
          "time": 101.29069767441861,
          "velocity": 0.1968503937007874
        },
        {
          "duration": 0.06976744186046346,
          "durationTicks": 6,
          "midi": 46,
          "name": "A#2",
          "ticks": 8714,
          "time": 101.32558139534883,
          "velocity": 0.3464566929133858
        },
        {
          "duration": 0.15116279069768268,
          "durationTicks": 13,
          "midi": 80,
          "name": "G#5",
          "ticks": 8720,
          "time": 101.3953488372093,
          "velocity": 0.13385826771653545
        },
        {
          "duration": 0.023255813953483084,
          "durationTicks": 2,
          "midi": 55,
          "name": "G3",
          "ticks": 8721,
          "time": 101.40697674418605,
          "velocity": 0.4881889763779528
        },
        {
          "duration": 0.081395348837205,
          "durationTicks": 7,
          "midi": 46,
          "name": "A#2",
          "ticks": 8722,
          "time": 101.4186046511628,
          "velocity": 0.2992125984251969
        },
        {
          "duration": 0.011627906976741542,
          "durationTicks": 1,
          "midi": 57,
          "name": "A3",
          "ticks": 8723,
          "time": 101.43023255813954,
          "velocity": 0.5275590551181102
        },
        {
          "duration": 0.04651162790698038,
          "durationTicks": 4,
          "midi": 68,
          "name": "G#4",
          "ticks": 8723,
          "time": 101.43023255813954,
          "velocity": 0.12598425196850394
        },
        {
          "duration": 0.03488372093023884,
          "durationTicks": 3,
          "midi": 57,
          "name": "A3",
          "ticks": 8726,
          "time": 101.46511627906976,
          "velocity": 0.5118110236220472
        },
        {
          "duration": 0.05813953488372192,
          "durationTicks": 5,
          "midi": 89,
          "name": "F6",
          "ticks": 8728,
          "time": 101.48837209302326,
          "velocity": 0.16535433070866143
        },
        {
          "duration": 0.03488372093023884,
          "durationTicks": 3,
          "midi": 45,
          "name": "A2",
          "ticks": 8729,
          "time": 101.5,
          "velocity": 0.31496062992125984
        },
        {
          "duration": 0.12790697674418539,
          "durationTicks": 11,
          "midi": 70,
          "name": "A#4",
          "ticks": 8730,
          "time": 101.51162790697674,
          "velocity": 0.2440944881889764
        },
        {
          "duration": 0.09302325581396076,
          "durationTicks": 8,
          "midi": 58,
          "name": "A#3",
          "ticks": 8731,
          "time": 101.52325581395348,
          "velocity": 0.3937007874015748
        },
        {
          "duration": 0.03488372093023884,
          "durationTicks": 3,
          "midi": 89,
          "name": "F6",
          "ticks": 8736,
          "time": 101.5813953488372,
          "velocity": 0.10236220472440945
        },
        {
          "duration": 0.05813953488372192,
          "durationTicks": 5,
          "midi": 71,
          "name": "B4",
          "ticks": 8740,
          "time": 101.62790697674419,
          "velocity": 0.12598425196850394
        },
        {
          "duration": 0.023255813953497295,
          "durationTicks": 2,
          "midi": 47,
          "name": "B2",
          "ticks": 8741,
          "time": 101.63953488372093,
          "velocity": 0.25984251968503935
        },
        {
          "duration": 0.023255813953483084,
          "durationTicks": 2,
          "midi": 45,
          "name": "A2",
          "ticks": 8743,
          "time": 101.66279069767442,
          "velocity": 0.31496062992125984
        },
        {
          "duration": 0.023255813953483084,
          "durationTicks": 2,
          "midi": 46,
          "name": "A#2",
          "ticks": 8745,
          "time": 101.68604651162791,
          "velocity": 0.2677165354330709
        },
        {
          "duration": 0.023255813953497295,
          "durationTicks": 2,
          "midi": 45,
          "name": "A2",
          "ticks": 8747,
          "time": 101.70930232558139,
          "velocity": 0.2992125984251969
        },
        {
          "duration": 0.06976744186046346,
          "durationTicks": 6,
          "midi": 76,
          "name": "E5",
          "ticks": 8748,
          "time": 101.72093023255815,
          "velocity": 0.25196850393700787
        },
        {
          "duration": 0.03488372093023884,
          "durationTicks": 3,
          "midi": 45,
          "name": "A2",
          "ticks": 8752,
          "time": 101.76744186046511,
          "velocity": 0.3700787401574803
        },
        {
          "duration": 0.1046511627907023,
          "durationTicks": 9,
          "midi": 55,
          "name": "G3",
          "ticks": 8753,
          "time": 101.77906976744185,
          "velocity": 0.5511811023622047
        },
        {
          "duration": 0.16279069767441,
          "durationTicks": 14,
          "midi": 74,
          "name": "D5",
          "ticks": 8754,
          "time": 101.79069767441861,
          "velocity": 0.25984251968503935
        },
        {
          "duration": 0.19767441860464885,
          "durationTicks": 17,
          "midi": 77,
          "name": "F5",
          "ticks": 8762,
          "time": 101.88372093023256,
          "velocity": 0.33070866141732286
        },
        {
          "duration": 0.023255813953497295,
          "durationTicks": 2,
          "midi": 55,
          "name": "G3",
          "ticks": 8763,
          "time": 101.8953488372093,
          "velocity": 0.5275590551181102
        },
        {
          "duration": 0.2093023255814046,
          "durationTicks": 18,
          "midi": 65,
          "name": "F4",
          "ticks": 8763,
          "time": 101.8953488372093,
          "velocity": 0.3779527559055118
        },
        {
          "duration": 0.19767441860464885,
          "durationTicks": 17,
          "midi": 84,
          "name": "C6",
          "ticks": 8763,
          "time": 101.8953488372093,
          "velocity": 0.1732283464566929
        },
        {
          "duration": 0.034883720930224626,
          "durationTicks": 3,
          "midi": 54,
          "name": "F#3",
          "ticks": 8765,
          "time": 101.9186046511628,
          "velocity": 0.3858267716535433
        },
        {
          "duration": 0.034883720930224626,
          "durationTicks": 3,
          "midi": 43,
          "name": "G2",
          "ticks": 8766,
          "time": 101.93023255813954,
          "velocity": 0.2047244094488189
        },
        {
          "duration": 0.034883720930224626,
          "durationTicks": 3,
          "midi": 42,
          "name": "F#2",
          "ticks": 8776,
          "time": 102.04651162790698,
          "velocity": 0.2204724409448819
        },
        {
          "duration": 0.11627906976744384,
          "durationTicks": 10,
          "midi": 50,
          "name": "D3",
          "ticks": 8776,
          "time": 102.04651162790698,
          "velocity": 0.41732283464566927
        },
        {
          "duration": 0.12790697674418539,
          "durationTicks": 11,
          "midi": 81,
          "name": "A5",
          "ticks": 8778,
          "time": 102.06976744186046,
          "velocity": 0.09448818897637795
        },
        {
          "duration": 0.08139534883721922,
          "durationTicks": 7,
          "midi": 78,
          "name": "F#5",
          "ticks": 8779,
          "time": 102.0813953488372,
          "velocity": 0.18110236220472442
        },
        {
          "duration": 0.12790697674418539,
          "durationTicks": 11,
          "midi": 65,
          "name": "F4",
          "ticks": 8786,
          "time": 102.16279069767442,
          "velocity": 0.2125984251968504
        },
        {
          "duration": 0.1046511627907023,
          "durationTicks": 9,
          "midi": 72,
          "name": "C5",
          "ticks": 8788,
          "time": 102.18604651162791,
          "velocity": 0.11023622047244094
        },
        {
          "duration": 0.05813953488372192,
          "durationTicks": 5,
          "midi": 97,
          "name": "C#7",
          "ticks": 8789,
          "time": 102.19767441860465,
          "velocity": 0.10236220472440945
        },
        {
          "duration": 0.08139534883721922,
          "durationTicks": 7,
          "midi": 53,
          "name": "F3",
          "ticks": 8790,
          "time": 102.20930232558139,
          "velocity": 0.36220472440944884
        },
        {
          "duration": 0.11627906976744384,
          "durationTicks": 10,
          "midi": 86,
          "name": "D6",
          "ticks": 8797,
          "time": 102.29069767441861,
          "velocity": 0.08661417322834646
        },
        {
          "duration": 0.12790697674418539,
          "durationTicks": 11,
          "midi": 55,
          "name": "G3",
          "ticks": 8798,
          "time": 102.30232558139535,
          "velocity": 0.5196850393700787
        },
        {
          "duration": 0.6511627906976685,
          "durationTicks": 56,
          "midi": 74,
          "name": "D5",
          "ticks": 8798,
          "time": 102.30232558139535,
          "velocity": 0.33858267716535434
        },
        {
          "duration": 0.05813953488372192,
          "durationTicks": 5,
          "midi": 60,
          "name": "C4",
          "ticks": 8806,
          "time": 102.3953488372093,
          "velocity": 0.30708661417322836
        },
        {
          "duration": 0.023255813953483084,
          "durationTicks": 2,
          "midi": 64,
          "name": "E4",
          "ticks": 8807,
          "time": 102.40697674418605,
          "velocity": 0.28346456692913385
        },
        {
          "duration": 0.5116279069767415,
          "durationTicks": 44,
          "midi": 76,
          "name": "E5",
          "ticks": 8808,
          "time": 102.4186046511628,
          "velocity": 0.44881889763779526
        },
        {
          "duration": 0.38372093023255616,
          "durationTicks": 33,
          "midi": 83,
          "name": "B5",
          "ticks": 8808,
          "time": 102.4186046511628,
          "velocity": 0.25196850393700787
        },
        {
          "duration": 0.4651162790697754,
          "durationTicks": 40,
          "midi": 64,
          "name": "E4",
          "ticks": 8810,
          "time": 102.44186046511628,
          "velocity": 0.4094488188976378
        },
        {
          "duration": 0.48837209302325846,
          "durationTicks": 42,
          "midi": 48,
          "name": "C3",
          "ticks": 8811,
          "time": 102.45348837209302,
          "velocity": 0.3700787401574803
        },
        {
          "duration": 0.4767441860465169,
          "durationTicks": 41,
          "midi": 55,
          "name": "G3",
          "ticks": 8812,
          "time": 102.46511627906976,
          "velocity": 0.4015748031496063
        },
        {
          "duration": 0.1046511627907023,
          "durationTicks": 9,
          "midi": 102,
          "name": "F#7",
          "ticks": 8817,
          "time": 102.52325581395348,
          "velocity": 0.09448818897637795
        },
        {
          "duration": 0.04651162790698038,
          "durationTicks": 4,
          "midi": 83,
          "name": "B5",
          "ticks": 8843,
          "time": 102.82558139534883,
          "velocity": 0.09448818897637795
        },
        {
          "duration": 0.05813953488372192,
          "durationTicks": 5,
          "midi": 62,
          "name": "D4",
          "ticks": 8849,
          "time": 102.8953488372093,
          "velocity": 0.2992125984251969
        },
        {
          "duration": 0.03488372093023884,
          "durationTicks": 3,
          "midi": 76,
          "name": "E5",
          "ticks": 8854,
          "time": 102.95348837209302,
          "velocity": 0.16535433070866143
        },
        {
          "duration": 0.034883720930224626,
          "durationTicks": 3,
          "midi": 55,
          "name": "G3",
          "ticks": 8856,
          "time": 102.97674418604652,
          "velocity": 0.16535433070866143
        },
        {
          "duration": 0.03488372093023884,
          "durationTicks": 3,
          "midi": 44,
          "name": "G#2",
          "ticks": 8860,
          "time": 103.02325581395348,
          "velocity": 0.2047244094488189
        },
        {
          "duration": 0.034883720930224626,
          "durationTicks": 3,
          "midi": 45,
          "name": "A2",
          "ticks": 8863,
          "time": 103.05813953488372,
          "velocity": 0.33070866141732286
        },
        {
          "duration": 0.12790697674418539,
          "durationTicks": 11,
          "midi": 57,
          "name": "A3",
          "ticks": 8864,
          "time": 103.06976744186046,
          "velocity": 0.44881889763779526
        },
        {
          "duration": 0.023255813953483084,
          "durationTicks": 2,
          "midi": 70,
          "name": "A#4",
          "ticks": 8864,
          "time": 103.06976744186046,
          "velocity": 0.2283464566929134
        },
        {
          "duration": 0.03488372093023884,
          "durationTicks": 3,
          "midi": 44,
          "name": "G#2",
          "ticks": 8866,
          "time": 103.09302325581395,
          "velocity": 0.25984251968503935
        },
        {
          "duration": 0.1279069767441996,
          "durationTicks": 11,
          "midi": 76,
          "name": "E5",
          "ticks": 8866,
          "time": 103.09302325581395,
          "velocity": 0.1968503937007874
        },
        {
          "duration": 0.03488372093023884,
          "durationTicks": 3,
          "midi": 44,
          "name": "G#2",
          "ticks": 8871,
          "time": 103.15116279069767,
          "velocity": 0.08661417322834646
        },
        {
          "duration": 0.03488372093023884,
          "durationTicks": 3,
          "midi": 65,
          "name": "F4",
          "ticks": 8874,
          "time": 103.18604651162791,
          "velocity": 0.2677165354330709
        },
        {
          "duration": 0.03488372093023884,
          "durationTicks": 3,
          "midi": 68,
          "name": "G#4",
          "ticks": 8874,
          "time": 103.18604651162791,
          "velocity": 0.13385826771653545
        },
        {
          "duration": 0.023255813953497295,
          "durationTicks": 2,
          "midi": 61,
          "name": "C#4",
          "ticks": 8875,
          "time": 103.19767441860465,
          "velocity": 0.3543307086614173
        },
        {
          "duration": 0.27906976744186807,
          "durationTicks": 24,
          "midi": 74,
          "name": "D5",
          "ticks": 8875,
          "time": 103.19767441860465,
          "velocity": 0.3937007874015748
        },
        {
          "duration": 0.4767441860465027,
          "durationTicks": 41,
          "midi": 62,
          "name": "D4",
          "ticks": 8877,
          "time": 103.22093023255815,
          "velocity": 0.3937007874015748
        },
        {
          "duration": 0.05813953488372192,
          "durationTicks": 5,
          "midi": 102,
          "name": "F#7",
          "ticks": 8878,
          "time": 103.23255813953489,
          "velocity": 0.16535433070866143
        },
        {
          "duration": 0.11627906976744384,
          "durationTicks": 10,
          "midi": 48,
          "name": "C3",
          "ticks": 8887,
          "time": 103.33720930232558,
          "velocity": 0.28346456692913385
        },
        {
          "duration": 0.04651162790698038,
          "durationTicks": 4,
          "midi": 102,
          "name": "F#7",
          "ticks": 8887,
          "time": 103.33720930232558,
          "velocity": 0.08661417322834646
        },
        {
          "duration": 0.023255813953497295,
          "durationTicks": 2,
          "midi": 55,
          "name": "G3",
          "ticks": 8898,
          "time": 103.46511627906976,
          "velocity": 0.4881889763779528
        },
        {
          "duration": 0.11627906976742963,
          "durationTicks": 10,
          "midi": 68,
          "name": "G#4",
          "ticks": 8899,
          "time": 103.47674418604652,
          "velocity": 0.1968503937007874
        },
        {
          "duration": 0.12790697674418539,
          "durationTicks": 11,
          "midi": 56,
          "name": "G#3",
          "ticks": 8900,
          "time": 103.48837209302326,
          "velocity": 0.48031496062992124
        },
        {
          "duration": 0.05813953488372192,
          "durationTicks": 5,
          "midi": 48,
          "name": "C3",
          "ticks": 8903,
          "time": 103.52325581395348,
          "velocity": 0.12598425196850394
        },
        {
          "duration": 0.034883720930224626,
          "durationTicks": 3,
          "midi": 90,
          "name": "F#6",
          "ticks": 8904,
          "time": 103.53488372093024,
          "velocity": 0.07086614173228346
        },
        {
          "duration": 0.13953488372094114,
          "durationTicks": 12,
          "midi": 93,
          "name": "A6",
          "ticks": 8908,
          "time": 103.5813953488372,
          "velocity": 0.2125984251968504
        },
        {
          "duration": 0.081395348837205,
          "durationTicks": 7,
          "midi": 55,
          "name": "G3",
          "ticks": 8911,
          "time": 103.61627906976744,
          "velocity": 0.3700787401574803
        },
        {
          "duration": 0.03488372093023884,
          "durationTicks": 3,
          "midi": 44,
          "name": "G#2",
          "ticks": 8912,
          "time": 103.62790697674419,
          "velocity": 0.07874015748031496
        },
        {
          "duration": 0.081395348837205,
          "durationTicks": 7,
          "midi": 56,
          "name": "G#3",
          "ticks": 8918,
          "time": 103.69767441860465,
          "velocity": 0.29133858267716534
        },
        {
          "duration": 0.023255813953483084,
          "durationTicks": 2,
          "midi": 48,
          "name": "C3",
          "ticks": 8920,
          "time": 103.72093023255815,
          "velocity": 0.29133858267716534
        },
        {
          "duration": 0.023255813953483084,
          "durationTicks": 2,
          "midi": 66,
          "name": "F#4",
          "ticks": 8921,
          "time": 103.73255813953489,
          "velocity": 0.23622047244094488
        },
        {
          "duration": 0.05813953488372192,
          "durationTicks": 5,
          "midi": 48,
          "name": "C3",
          "ticks": 8926,
          "time": 103.79069767441861,
          "velocity": 0.33858267716535434
        },
        {
          "duration": 0.04651162790698038,
          "durationTicks": 4,
          "midi": 56,
          "name": "G#3",
          "ticks": 8929,
          "time": 103.82558139534883,
          "velocity": 0.4330708661417323
        },
        {
          "duration": 0.16279069767442422,
          "durationTicks": 14,
          "midi": 67,
          "name": "G4",
          "ticks": 8929,
          "time": 103.82558139534883,
          "velocity": 0.25984251968503935
        },
        {
          "duration": 0.15116279069766847,
          "durationTicks": 13,
          "midi": 74,
          "name": "D5",
          "ticks": 8931,
          "time": 103.84883720930233,
          "velocity": 0.2677165354330709
        },
        {
          "duration": 0.1046511627907023,
          "durationTicks": 9,
          "midi": 55,
          "name": "G3",
          "ticks": 8933,
          "time": 103.87209302325581,
          "velocity": 0.5511811023622047
        },
        {
          "duration": 0.023255813953497295,
          "durationTicks": 2,
          "midi": 61,
          "name": "C#4",
          "ticks": 8941,
          "time": 103.96511627906976,
          "velocity": 0.2992125984251969
        },
        {
          "duration": 0.023255813953483084,
          "durationTicks": 2,
          "midi": 56,
          "name": "G#3",
          "ticks": 8942,
          "time": 103.97674418604652,
          "velocity": 0.4330708661417323
        },
        {
          "duration": 0.12790697674418539,
          "durationTicks": 11,
          "midi": 84,
          "name": "C6",
          "ticks": 8942,
          "time": 103.97674418604652,
          "velocity": 0.1889763779527559
        },
        {
          "duration": 0.2093023255813904,
          "durationTicks": 18,
          "midi": 60,
          "name": "C4",
          "ticks": 8943,
          "time": 103.98837209302326,
          "velocity": 0.4409448818897638
        },
        {
          "duration": 0.023255813953483084,
          "durationTicks": 2,
          "midi": 63,
          "name": "D#4",
          "ticks": 8943,
          "time": 103.98837209302326,
          "velocity": 0.23622047244094488
        },
        {
          "duration": 0.023255813953483084,
          "durationTicks": 2,
          "midi": 71,
          "name": "B4",
          "ticks": 8944,
          "time": 104,
          "velocity": 0.2283464566929134
        },
        {
          "duration": 0.17441860465116577,
          "durationTicks": 15,
          "midi": 100,
          "name": "E7",
          "ticks": 8944,
          "time": 104,
          "velocity": 0.14173228346456693
        },
        {
          "duration": 0.081395348837205,
          "durationTicks": 7,
          "midi": 91,
          "name": "G6",
          "ticks": 8945,
          "time": 104.01162790697674,
          "velocity": 0.11811023622047244
        },
        {
          "duration": 0.05813953488370771,
          "durationTicks": 5,
          "midi": 42,
          "name": "F#2",
          "ticks": 8947,
          "time": 104.03488372093024,
          "velocity": 0.1732283464566929
        },
        {
          "duration": 0.034883720930224626,
          "durationTicks": 3,
          "midi": 55,
          "name": "G3",
          "ticks": 8947,
          "time": 104.03488372093024,
          "velocity": 0.2204724409448819
        },
        {
          "duration": 0.03488372093023884,
          "durationTicks": 3,
          "midi": 42,
          "name": "F#2",
          "ticks": 8955,
          "time": 104.12790697674419,
          "velocity": 0.2283464566929134
        },
        {
          "duration": 0.13953488372092693,
          "durationTicks": 12,
          "midi": 50,
          "name": "D3",
          "ticks": 8955,
          "time": 104.12790697674419,
          "velocity": 0.41732283464566927
        },
        {
          "duration": 0.034883720930224626,
          "durationTicks": 3,
          "midi": 66,
          "name": "F#4",
          "ticks": 8965,
          "time": 104.24418604651163,
          "velocity": 0.12598425196850394
        },
        {
          "duration": 0.04651162790698038,
          "durationTicks": 4,
          "midi": 44,
          "name": "G#2",
          "ticks": 8968,
          "time": 104.27906976744185,
          "velocity": 0.25984251968503935
        },
        {
          "duration": 0.03488372093023884,
          "durationTicks": 3,
          "midi": 45,
          "name": "A2",
          "ticks": 8972,
          "time": 104.32558139534883,
          "velocity": 0.11811023622047244
        },
        {
          "duration": 0.034883720930224626,
          "durationTicks": 3,
          "midi": 66,
          "name": "F#4",
          "ticks": 8975,
          "time": 104.36046511627907,
          "velocity": 0.1732283464566929
        },
        {
          "duration": 0.04651162790698038,
          "durationTicks": 4,
          "midi": 76,
          "name": "E5",
          "ticks": 8975,
          "time": 104.36046511627907,
          "velocity": 0.29133858267716534
        },
        {
          "duration": 0.15116279069766847,
          "durationTicks": 13,
          "midi": 55,
          "name": "G3",
          "ticks": 8976,
          "time": 104.37209302325581,
          "velocity": 0.5275590551181102
        },
        {
          "duration": 0.11627906976744384,
          "durationTicks": 10,
          "midi": 86,
          "name": "D6",
          "ticks": 8976,
          "time": 104.37209302325581,
          "velocity": 0.14960629921259844
        },
        {
          "duration": 0.03488372093023884,
          "durationTicks": 3,
          "midi": 93,
          "name": "A6",
          "ticks": 8976,
          "time": 104.37209302325581,
          "velocity": 0.1732283464566929
        },
        {
          "duration": 0.6744186046511658,
          "durationTicks": 58,
          "midi": 74,
          "name": "D5",
          "ticks": 8977,
          "time": 104.38372093023256,
          "velocity": 0.2755905511811024
        },
        {
          "duration": 0.03488372093023884,
          "durationTicks": 3,
          "midi": 43,
          "name": "G2",
          "ticks": 8978,
          "time": 104.3953488372093,
          "velocity": 0.15748031496062992
        },
        {
          "duration": 0.11627906976744384,
          "durationTicks": 10,
          "midi": 64,
          "name": "E4",
          "ticks": 8987,
          "time": 104.5,
          "velocity": 0.3937007874015748
        },
        {
          "duration": 0.11627906976744384,
          "durationTicks": 10,
          "midi": 83,
          "name": "B5",
          "ticks": 8987,
          "time": 104.5,
          "velocity": 0.2204724409448819
        },
        {
          "duration": 0.023255813953497295,
          "durationTicks": 2,
          "midi": 46,
          "name": "A#2",
          "ticks": 8988,
          "time": 104.51162790697674,
          "velocity": 0.31496062992125984
        },
        {
          "duration": 0.023255813953497295,
          "durationTicks": 2,
          "midi": 68,
          "name": "G#4",
          "ticks": 8988,
          "time": 104.51162790697674,
          "velocity": 0.2283464566929134
        },
        {
          "duration": 0.5465116279069804,
          "durationTicks": 47,
          "midi": 71,
          "name": "B4",
          "ticks": 8988,
          "time": 104.51162790697674,
          "velocity": 0.25984251968503935
        },
        {
          "duration": 0.023255813953497295,
          "durationTicks": 2,
          "midi": 77,
          "name": "F5",
          "ticks": 8988,
          "time": 104.51162790697674,
          "velocity": 0.29133858267716534
        },
        {
          "duration": 0.5232558139534831,
          "durationTicks": 45,
          "midi": 47,
          "name": "B2",
          "ticks": 8990,
          "time": 104.53488372093024,
          "velocity": 0.3543307086614173
        },
        {
          "duration": 0.38372093023255616,
          "durationTicks": 33,
          "midi": 55,
          "name": "G3",
          "ticks": 8990,
          "time": 104.53488372093024,
          "velocity": 0.4094488188976378
        },
        {
          "duration": 0.10465116279068809,
          "durationTicks": 9,
          "midi": 76,
          "name": "E5",
          "ticks": 8990,
          "time": 104.53488372093024,
          "velocity": 0.4094488188976378
        },
        {
          "duration": 0.081395348837205,
          "durationTicks": 7,
          "midi": 100,
          "name": "E7",
          "ticks": 8990,
          "time": 104.53488372093024,
          "velocity": 0.08661417322834646
        },
        {
          "duration": 0.46511627906976116,
          "durationTicks": 40,
          "midi": 65,
          "name": "F4",
          "ticks": 8997,
          "time": 104.61627906976744,
          "velocity": 0.3543307086614173
        },
        {
          "duration": 0.2674418604651123,
          "durationTicks": 23,
          "midi": 84,
          "name": "C6",
          "ticks": 8997,
          "time": 104.61627906976744,
          "velocity": 0.1889763779527559
        },
        {
          "duration": 0.4651162790697754,
          "durationTicks": 40,
          "midi": 77,
          "name": "F5",
          "ticks": 8999,
          "time": 104.63953488372093,
          "velocity": 0.3779527559055118
        },
        {
          "duration": 0.04651162790696617,
          "durationTicks": 4,
          "midi": 62,
          "name": "D4",
          "ticks": 9012,
          "time": 104.79069767441861,
          "velocity": 0.2992125984251969
        },
        {
          "duration": 0.19767441860464885,
          "durationTicks": 17,
          "midi": 81,
          "name": "A5",
          "ticks": 9017,
          "time": 104.84883720930233,
          "velocity": 0.10236220472440945
        },
        {
          "duration": 0.023255813953497295,
          "durationTicks": 2,
          "midi": 62,
          "name": "D4",
          "ticks": 9020,
          "time": 104.88372093023256,
          "velocity": 0.2283464566929134
        },
        {
          "duration": 0.04651162790696617,
          "durationTicks": 4,
          "midi": 69,
          "name": "A4",
          "ticks": 9023,
          "time": 104.9186046511628,
          "velocity": 0.15748031496062992
        },
        {
          "duration": 0.12790697674418539,
          "durationTicks": 11,
          "midi": 96,
          "name": "C7",
          "ticks": 9023,
          "time": 104.9186046511628,
          "velocity": 0.14173228346456693
        },
        {
          "duration": 0.08139534883721922,
          "durationTicks": 7,
          "midi": 84,
          "name": "C6",
          "ticks": 9026,
          "time": 104.95348837209302,
          "velocity": 0.07874015748031496
        },
        {
          "duration": 0.09302325581396076,
          "durationTicks": 8,
          "midi": 55,
          "name": "G3",
          "ticks": 9027,
          "time": 104.96511627906976,
          "velocity": 0.2440944881889764
        },
        {
          "duration": 0.04651162790698038,
          "durationTicks": 4,
          "midi": 62,
          "name": "D4",
          "ticks": 9031,
          "time": 105.01162790697674,
          "velocity": 0.1889763779527559
        },
        {
          "duration": 0.034883720930224626,
          "durationTicks": 3,
          "midi": 55,
          "name": "G3",
          "ticks": 9044,
          "time": 105.16279069767442,
          "velocity": 0.3937007874015748
        },
        {
          "duration": 0.023255813953483084,
          "durationTicks": 2,
          "midi": 46,
          "name": "A#2",
          "ticks": 9045,
          "time": 105.17441860465117,
          "velocity": 0.2755905511811024
        },
        {
          "duration": 0.034883720930224626,
          "durationTicks": 3,
          "midi": 76,
          "name": "E5",
          "ticks": 9045,
          "time": 105.17441860465117,
          "velocity": 0.2992125984251969
        },
        {
          "duration": 0.023255813953483084,
          "durationTicks": 2,
          "midi": 70,
          "name": "A#4",
          "ticks": 9046,
          "time": 105.18604651162791,
          "velocity": 0.2283464566929134
        },
        {
          "duration": 0.12790697674418539,
          "durationTicks": 11,
          "midi": 57,
          "name": "A3",
          "ticks": 9048,
          "time": 105.20930232558139,
          "velocity": 0.4330708661417323
        },
        {
          "duration": 0.08139534883721922,
          "durationTicks": 7,
          "midi": 42,
          "name": "F#2",
          "ticks": 9058,
          "time": 105.32558139534883,
          "velocity": 0.2677165354330709
        },
        {
          "duration": 0.5232558139534973,
          "durationTicks": 45,
          "midi": 77,
          "name": "F5",
          "ticks": 9058,
          "time": 105.32558139534883,
          "velocity": 0.4015748031496063
        },
        {
          "duration": 0.5116279069767415,
          "durationTicks": 44,
          "midi": 84,
          "name": "C6",
          "ticks": 9058,
          "time": 105.32558139534883,
          "velocity": 0.2440944881889764
        },
        {
          "duration": 0.5232558139534831,
          "durationTicks": 45,
          "midi": 65,
          "name": "F4",
          "ticks": 9060,
          "time": 105.34883720930233,
          "velocity": 0.29133858267716534
        },
        {
          "duration": 0.12790697674418539,
          "durationTicks": 11,
          "midi": 47,
          "name": "B2",
          "ticks": 9068,
          "time": 105.44186046511628,
          "velocity": 0.3464566929133858
        },
        {
          "duration": 0.023255813953483084,
          "durationTicks": 2,
          "midi": 55,
          "name": "G3",
          "ticks": 9079,
          "time": 105.56976744186046,
          "velocity": 0.48031496062992124
        },
        {
          "duration": 0.081395348837205,
          "durationTicks": 7,
          "midi": 75,
          "name": "D#5",
          "ticks": 9079,
          "time": 105.56976744186046,
          "velocity": 0.13385826771653545
        },
        {
          "duration": 0.17441860465116577,
          "durationTicks": 15,
          "midi": 68,
          "name": "G#4",
          "ticks": 9080,
          "time": 105.5813953488372,
          "velocity": 0.2283464566929134
        },
        {
          "duration": 0.1046511627907023,
          "durationTicks": 9,
          "midi": 47,
          "name": "B2",
          "ticks": 9081,
          "time": 105.59302325581395,
          "velocity": 0.2992125984251969
        },
        {
          "duration": 0.13953488372094114,
          "durationTicks": 12,
          "midi": 56,
          "name": "G#3",
          "ticks": 9081,
          "time": 105.59302325581395,
          "velocity": 0.47244094488188976
        },
        {
          "duration": 0.05813953488372192,
          "durationTicks": 5,
          "midi": 56,
          "name": "G#3",
          "ticks": 9094,
          "time": 105.74418604651163,
          "velocity": 0.14960629921259844
        },
        {
          "duration": 0.023255813953483084,
          "durationTicks": 2,
          "midi": 45,
          "name": "A2",
          "ticks": 9099,
          "time": 105.80232558139535,
          "velocity": 0.25196850393700787
        },
        {
          "duration": 0.03488372093023884,
          "durationTicks": 3,
          "midi": 55,
          "name": "G3",
          "ticks": 9101,
          "time": 105.82558139534883,
          "velocity": 0.2047244094488189
        },
        {
          "duration": 0.03488372093023884,
          "durationTicks": 3,
          "midi": 76,
          "name": "E5",
          "ticks": 9102,
          "time": 105.83720930232558,
          "velocity": 0.18110236220472442
        },
        {
          "duration": 0.17441860465115155,
          "durationTicks": 15,
          "midi": 55,
          "name": "G3",
          "ticks": 9109,
          "time": 105.9186046511628,
          "velocity": 0.5433070866141733
        },
        {
          "duration": 0.16279069767442422,
          "durationTicks": 14,
          "midi": 74,
          "name": "D5",
          "ticks": 9111,
          "time": 105.94186046511628,
          "velocity": 0.2440944881889764
        },
        {
          "duration": 0.03488372093023884,
          "durationTicks": 3,
          "midi": 44,
          "name": "G#2",
          "ticks": 9112,
          "time": 105.95348837209302,
          "velocity": 0.1968503937007874
        },
        {
          "duration": 0.04651162790698038,
          "durationTicks": 4,
          "midi": 71,
          "name": "B4",
          "ticks": 9122,
          "time": 106.06976744186046,
          "velocity": 0.1889763779527559
        },
        {
          "duration": 0.2093023255814046,
          "durationTicks": 18,
          "midi": 84,
          "name": "C6",
          "ticks": 9123,
          "time": 106.0813953488372,
          "velocity": 0.2992125984251969
        },
        {
          "duration": 0.2093023255814046,
          "durationTicks": 18,
          "midi": 65,
          "name": "F4",
          "ticks": 9124,
          "time": 106.09302325581395,
          "velocity": 0.4094488188976378
        },
        {
          "duration": 0.023255813953483084,
          "durationTicks": 2,
          "midi": 55,
          "name": "G3",
          "ticks": 9125,
          "time": 106.1046511627907,
          "velocity": 0.4015748031496063
        },
        {
          "duration": 0.13953488372094114,
          "durationTicks": 12,
          "midi": 50,
          "name": "D3",
          "ticks": 9134,
          "time": 106.20930232558139,
          "velocity": 0.3937007874015748
        },
        {
          "duration": 0.034883720930224626,
          "durationTicks": 3,
          "midi": 42,
          "name": "F#2",
          "ticks": 9136,
          "time": 106.23255813953489,
          "velocity": 0.11023622047244094
        },
        {
          "duration": 0.023255813953483084,
          "durationTicks": 2,
          "midi": 53,
          "name": "F3",
          "ticks": 9147,
          "time": 106.36046511627907,
          "velocity": 0.25196850393700787
        },
        {
          "duration": 0.04651162790698038,
          "durationTicks": 4,
          "midi": 53,
          "name": "F3",
          "ticks": 9150,
          "time": 106.3953488372093,
          "velocity": 0.1968503937007874
        },
        {
          "duration": 0.03488372093023884,
          "durationTicks": 3,
          "midi": 76,
          "name": "E5",
          "ticks": 9154,
          "time": 106.44186046511628,
          "velocity": 0.1732283464566929
        },
        {
          "duration": 0.023255813953497295,
          "durationTicks": 2,
          "midi": 54,
          "name": "F#3",
          "ticks": 9156,
          "time": 106.46511627906976,
          "velocity": 0.33858267716535434
        },
        {
          "duration": 0.12790697674418539,
          "durationTicks": 11,
          "midi": 67,
          "name": "G4",
          "ticks": 9157,
          "time": 106.47674418604652,
          "velocity": 0.18110236220472442
        },
        {
          "duration": 0.7093023255813904,
          "durationTicks": 61,
          "midi": 74,
          "name": "D5",
          "ticks": 9157,
          "time": 106.47674418604652,
          "velocity": 0.2992125984251969
        },
        {
          "duration": 0.10465116279068809,
          "durationTicks": 9,
          "midi": 55,
          "name": "G3",
          "ticks": 9158,
          "time": 106.48837209302326,
          "velocity": 0.49606299212598426
        },
        {
          "duration": 0.023255813953497295,
          "durationTicks": 2,
          "midi": 60,
          "name": "C4",
          "ticks": 9166,
          "time": 106.5813953488372,
          "velocity": 0.25984251968503935
        },
        {
          "duration": 0.1860465116279073,
          "durationTicks": 16,
          "midi": 76,
          "name": "E5",
          "ticks": 9166,
          "time": 106.5813953488372,
          "velocity": 0.41732283464566927
        },
        {
          "duration": 0.16279069767442422,
          "durationTicks": 14,
          "midi": 64,
          "name": "E4",
          "ticks": 9167,
          "time": 106.59302325581395,
          "velocity": 0.3937007874015748
        },
        {
          "duration": 0.023255813953483084,
          "durationTicks": 2,
          "midi": 52,
          "name": "E3",
          "ticks": 9168,
          "time": 106.6046511627907,
          "velocity": 0.3937007874015748
        },
        {
          "duration": 0.2906976744185954,
          "durationTicks": 25,
          "midi": 71,
          "name": "B4",
          "ticks": 9168,
          "time": 106.6046511627907,
          "velocity": 0.25984251968503935
        },
        {
          "duration": 0.12790697674418539,
          "durationTicks": 11,
          "midi": 67,
          "name": "G4",
          "ticks": 9169,
          "time": 106.61627906976744,
          "velocity": 0.30708661417322836
        },
        {
          "duration": 0.5348837209302388,
          "durationTicks": 46,
          "midi": 47,
          "name": "B2",
          "ticks": 9170,
          "time": 106.62790697674419,
          "velocity": 0.36220472440944884
        },
        {
          "duration": 0.24418604651162923,
          "durationTicks": 21,
          "midi": 55,
          "name": "G3",
          "ticks": 9170,
          "time": 106.62790697674419,
          "velocity": 0.4015748031496063
        },
        {
          "duration": 0.43023255813953654,
          "durationTicks": 37,
          "midi": 84,
          "name": "C6",
          "ticks": 9180,
          "time": 106.74418604651163,
          "velocity": 0.2755905511811024
        },
        {
          "duration": 0.4651162790697754,
          "durationTicks": 40,
          "midi": 65,
          "name": "F4",
          "ticks": 9181,
          "time": 106.75581395348837,
          "velocity": 0.36220472440944884
        },
        {
          "duration": 0.4651162790697754,
          "durationTicks": 40,
          "midi": 77,
          "name": "F5",
          "ticks": 9182,
          "time": 106.76744186046511,
          "velocity": 0.3937007874015748
        },
        {
          "duration": 0.03488372093023884,
          "durationTicks": 3,
          "midi": 62,
          "name": "D4",
          "ticks": 9191,
          "time": 106.87209302325581,
          "velocity": 0.30708661417322836
        },
        {
          "duration": 0.25581395348837077,
          "durationTicks": 22,
          "midi": 55,
          "name": "G3",
          "ticks": 9192,
          "time": 106.88372093023256,
          "velocity": 0.2677165354330709
        },
        {
          "duration": 0.19767441860464885,
          "durationTicks": 17,
          "midi": 81,
          "name": "A5",
          "ticks": 9196,
          "time": 106.93023255813954,
          "velocity": 0.07874015748031496
        },
        {
          "duration": 0.03488372093023884,
          "durationTicks": 3,
          "midi": 56,
          "name": "G#3",
          "ticks": 9214,
          "time": 107.13953488372093,
          "velocity": 0.1968503937007874
        },
        {
          "duration": 0.03488372093023884,
          "durationTicks": 3,
          "midi": 71,
          "name": "B4",
          "ticks": 9215,
          "time": 107.15116279069767,
          "velocity": 0.16535433070866143
        },
        {
          "duration": 0.023255813953497295,
          "durationTicks": 2,
          "midi": 56,
          "name": "G#3",
          "ticks": 9225,
          "time": 107.26744186046511,
          "velocity": 0.41732283464566927
        },
        {
          "duration": 0.11627906976744384,
          "durationTicks": 10,
          "midi": 69,
          "name": "A4",
          "ticks": 9225,
          "time": 107.26744186046511,
          "velocity": 0.1732283464566929
        },
        {
          "duration": 0.04651162790698038,
          "durationTicks": 4,
          "midi": 77,
          "name": "F5",
          "ticks": 9225,
          "time": 107.26744186046511,
          "velocity": 0.2755905511811024
        },
        {
          "duration": 0.023255813953497295,
          "durationTicks": 2,
          "midi": 43,
          "name": "G2",
          "ticks": 9226,
          "time": 107.27906976744185,
          "velocity": 0.2440944881889764
        },
        {
          "duration": 0.09302325581394655,
          "durationTicks": 8,
          "midi": 57,
          "name": "A3",
          "ticks": 9227,
          "time": 107.29069767441861,
          "velocity": 0.4330708661417323
        },
        {
          "duration": 0.06976744186046346,
          "durationTicks": 6,
          "midi": 76,
          "name": "E5",
          "ticks": 9229,
          "time": 107.31395348837209,
          "velocity": 0.09448818897637795
        },
        {
          "duration": 0.03488372093023884,
          "durationTicks": 3,
          "midi": 55,
          "name": "G3",
          "ticks": 9236,
          "time": 107.3953488372093,
          "velocity": 0.16535433070866143
        },
        {
          "duration": 0.5348837209302246,
          "durationTicks": 46,
          "midi": 84,
          "name": "C6",
          "ticks": 9238,
          "time": 107.4186046511628,
          "velocity": 0.2992125984251969
        },
        {
          "duration": 0.5348837209302246,
          "durationTicks": 46,
          "midi": 77,
          "name": "F5",
          "ticks": 9239,
          "time": 107.43023255813954,
          "velocity": 0.3937007874015748
        },
        {
          "duration": 0.023255813953483084,
          "durationTicks": 2,
          "midi": 53,
          "name": "F3",
          "ticks": 9240,
          "time": 107.44186046511628,
          "velocity": 0.29133858267716534
        },
        {
          "duration": 0.5232558139534831,
          "durationTicks": 45,
          "midi": 65,
          "name": "F4",
          "ticks": 9240,
          "time": 107.44186046511628,
          "velocity": 0.41732283464566927
        },
        {
          "duration": 0.13953488372092693,
          "durationTicks": 12,
          "midi": 47,
          "name": "B2",
          "ticks": 9246,
          "time": 107.51162790697674,
          "velocity": 0.29133858267716534
        },
        {
          "duration": 0.15116279069768268,
          "durationTicks": 13,
          "midi": 68,
          "name": "G#4",
          "ticks": 9258,
          "time": 107.65116279069767,
          "velocity": 0.23622047244094488
        },
        {
          "duration": 0.023255813953483084,
          "durationTicks": 2,
          "midi": 55,
          "name": "G3",
          "ticks": 9259,
          "time": 107.66279069767442,
          "velocity": 0.5039370078740157
        },
        {
          "duration": 0.1046511627907023,
          "durationTicks": 9,
          "midi": 47,
          "name": "B2",
          "ticks": 9261,
          "time": 107.68604651162791,
          "velocity": 0.18110236220472442
        },
        {
          "duration": 0.13953488372092693,
          "durationTicks": 12,
          "midi": 56,
          "name": "G#3",
          "ticks": 9261,
          "time": 107.68604651162791,
          "velocity": 0.4881889763779528
        },
        {
          "duration": 0.03488372093023884,
          "durationTicks": 3,
          "midi": 56,
          "name": "G#3",
          "ticks": 9274,
          "time": 107.83720930232558,
          "velocity": 0.2125984251968504
        },
        {
          "duration": 0.023255813953483084,
          "durationTicks": 2,
          "midi": 45,
          "name": "A2",
          "ticks": 9280,
          "time": 107.90697674418605,
          "velocity": 0.28346456692913385
        },
        {
          "duration": 0.04651162790698038,
          "durationTicks": 4,
          "midi": 47,
          "name": "B2",
          "ticks": 9282,
          "time": 107.93023255813954,
          "velocity": 0.1889763779527559
        },
        {
          "duration": 0.034883720930224626,
          "durationTicks": 3,
          "midi": 47,
          "name": "B2",
          "ticks": 9287,
          "time": 107.98837209302326,
          "velocity": 0.1968503937007874
        },
        {
          "duration": 0.15116279069766847,
          "durationTicks": 13,
          "midi": 67,
          "name": "G4",
          "ticks": 9291,
          "time": 108.03488372093024,
          "velocity": 0.2440944881889764
        },
        {
          "duration": 0.12790697674418539,
          "durationTicks": 11,
          "midi": 55,
          "name": "G3",
          "ticks": 9292,
          "time": 108.04651162790698,
          "velocity": 0.5511811023622047
        },
        {
          "duration": 0.17441860465116577,
          "durationTicks": 15,
          "midi": 74,
          "name": "D5",
          "ticks": 9292,
          "time": 108.04651162790698,
          "velocity": 0.2125984251968504
        },
        {
          "duration": 0.034883720930224626,
          "durationTicks": 3,
          "midi": 71,
          "name": "B4",
          "ticks": 9303,
          "time": 108.17441860465117,
          "velocity": 0.2204724409448819
        },
        {
          "duration": 0.023255813953483084,
          "durationTicks": 2,
          "midi": 63,
          "name": "D#4",
          "ticks": 9304,
          "time": 108.18604651162791,
          "velocity": 0.25196850393700787
        },
        {
          "duration": 0.023255813953483084,
          "durationTicks": 2,
          "midi": 66,
          "name": "F#4",
          "ticks": 9304,
          "time": 108.18604651162791,
          "velocity": 0.25984251968503935
        },
        {
          "duration": 0.19767441860464885,
          "durationTicks": 17,
          "midi": 84,
          "name": "C6",
          "ticks": 9304,
          "time": 108.18604651162791,
          "velocity": 0.2204724409448819
        },
        {
          "duration": 0.05813953488372192,
          "durationTicks": 5,
          "midi": 89,
          "name": "F6",
          "ticks": 9305,
          "time": 108.19767441860465,
          "velocity": 0.23622047244094488
        },
        {
          "duration": 0.05813953488372192,
          "durationTicks": 5,
          "midi": 56,
          "name": "G#3",
          "ticks": 9306,
          "time": 108.20930232558139,
          "velocity": 0.4251968503937008
        },
        {
          "duration": 0.17441860465116577,
          "durationTicks": 15,
          "midi": 65,
          "name": "F4",
          "ticks": 9306,
          "time": 108.20930232558139,
          "velocity": 0.3858267716535433
        },
        {
          "duration": 0.13953488372092693,
          "durationTicks": 12,
          "midi": 50,
          "name": "D3",
          "ticks": 9315,
          "time": 108.31395348837209,
          "velocity": 0.4251968503937008
        },
        {
          "duration": 0.09302325581396076,
          "durationTicks": 8,
          "midi": 53,
          "name": "F3",
          "ticks": 9328,
          "time": 108.46511627906976,
          "velocity": 0.4330708661417323
        },
        {
          "duration": 0.04651162790696617,
          "durationTicks": 4,
          "midi": 44,
          "name": "G#2",
          "ticks": 9329,
          "time": 108.47674418604652,
          "velocity": 0.15748031496062992
        },
        {
          "duration": 0.04651162790696617,
          "durationTicks": 4,
          "midi": 64,
          "name": "E4",
          "ticks": 9334,
          "time": 108.53488372093024,
          "velocity": 0.1732283464566929
        },
        {
          "duration": 0.034883720930224626,
          "durationTicks": 3,
          "midi": 54,
          "name": "F#3",
          "ticks": 9336,
          "time": 108.55813953488372,
          "velocity": 0.4566929133858268
        },
        {
          "duration": 0.6627906976744242,
          "durationTicks": 57,
          "midi": 74,
          "name": "D5",
          "ticks": 9337,
          "time": 108.56976744186046,
          "velocity": 0.3543307086614173
        },
        {
          "duration": 0.3139534883720927,
          "durationTicks": 27,
          "midi": 67,
          "name": "G4",
          "ticks": 9338,
          "time": 108.5813953488372,
          "velocity": 0.23622047244094488
        },
        {
          "duration": 0.27906976744186807,
          "durationTicks": 24,
          "midi": 55,
          "name": "G3",
          "ticks": 9339,
          "time": 108.59302325581395,
          "velocity": 0.5118110236220472
        },
        {
          "duration": 0.023255813953483084,
          "durationTicks": 2,
          "midi": 60,
          "name": "C4",
          "ticks": 9347,
          "time": 108.68604651162791,
          "velocity": 0.2992125984251969
        },
        {
          "duration": 0.5232558139534973,
          "durationTicks": 45,
          "midi": 77,
          "name": "F5",
          "ticks": 9348,
          "time": 108.69767441860465,
          "velocity": 0.2047244094488189
        },
        {
          "duration": 0.5116279069767558,
          "durationTicks": 44,
          "midi": 70,
          "name": "A#4",
          "ticks": 9349,
          "time": 108.70930232558139,
          "velocity": 0.3464566929133858
        },
        {
          "duration": 0.2325581395348877,
          "durationTicks": 20,
          "midi": 46,
          "name": "A#2",
          "ticks": 9353,
          "time": 108.75581395348837,
          "velocity": 0.3543307086614173
        },
        {
          "duration": 0.33720930232559,
          "durationTicks": 29,
          "midi": 58,
          "name": "A#3",
          "ticks": 9364,
          "time": 108.88372093023256,
          "velocity": 0.4094488188976378
        },
        {
          "duration": 0.05813953488372192,
          "durationTicks": 5,
          "midi": 62,
          "name": "D4",
          "ticks": 9371,
          "time": 108.96511627906976,
          "velocity": 0.30708661417322836
        },
        {
          "duration": 0.1860465116279073,
          "durationTicks": 16,
          "midi": 81,
          "name": "A5",
          "ticks": 9376,
          "time": 109.02325581395348,
          "velocity": 0.12598425196850394
        },
        {
          "duration": 0.05813953488370771,
          "durationTicks": 5,
          "midi": 46,
          "name": "A#2",
          "ticks": 9377,
          "time": 109.03488372093024,
          "velocity": 0.28346456692913385
        },
        {
          "duration": 0.22093023255813193,
          "durationTicks": 19,
          "midi": 62,
          "name": "D4",
          "ticks": 9377,
          "time": 109.03488372093024,
          "velocity": 0.28346456692913385
        },
        {
          "duration": 0.10465116279068809,
          "durationTicks": 9,
          "midi": 46,
          "name": "A#2",
          "ticks": 9383,
          "time": 109.1046511627907,
          "velocity": 0.31496062992125984
        },
        {
          "duration": 0.023255813953483084,
          "durationTicks": 2,
          "midi": 57,
          "name": "A3",
          "ticks": 9393,
          "time": 109.22093023255815,
          "velocity": 0.33070866141732286
        },
        {
          "duration": 0.06976744186046346,
          "durationTicks": 6,
          "midi": 58,
          "name": "A#3",
          "ticks": 9395,
          "time": 109.24418604651163,
          "velocity": 0.14960629921259844
        },
        {
          "duration": 0.03488372093023884,
          "durationTicks": 3,
          "midi": 43,
          "name": "G2",
          "ticks": 9398,
          "time": 109.27906976744185,
          "velocity": 0.2440944881889764
        },
        {
          "duration": 0.03488372093023884,
          "durationTicks": 3,
          "midi": 56,
          "name": "G#3",
          "ticks": 9403,
          "time": 109.33720930232558,
          "velocity": 0.4094488188976378
        },
        {
          "duration": 0.023255813953483084,
          "durationTicks": 2,
          "midi": 70,
          "name": "A#4",
          "ticks": 9405,
          "time": 109.36046511627907,
          "velocity": 0.25984251968503935
        },
        {
          "duration": 0.11627906976744384,
          "durationTicks": 10,
          "midi": 57,
          "name": "A3",
          "ticks": 9406,
          "time": 109.37209302325581,
          "velocity": 0.4645669291338583
        },
        {
          "duration": 0.034883720930224626,
          "durationTicks": 3,
          "midi": 100,
          "name": "E7",
          "ticks": 9409,
          "time": 109.40697674418605,
          "velocity": 0.08661417322834646
        },
        {
          "duration": 0.023255813953497295,
          "durationTicks": 2,
          "midi": 51,
          "name": "D#3",
          "ticks": 9414,
          "time": 109.46511627906976,
          "velocity": 0.28346456692913385
        },
        {
          "duration": 0.034883720930224626,
          "durationTicks": 3,
          "midi": 76,
          "name": "E5",
          "ticks": 9415,
          "time": 109.47674418604652,
          "velocity": 0.2047244094488189
        },
        {
          "duration": 0.5116279069767415,
          "durationTicks": 44,
          "midi": 70,
          "name": "A#4",
          "ticks": 9416,
          "time": 109.48837209302326,
          "velocity": 0.3937007874015748
        },
        {
          "duration": 0.023255813953497295,
          "durationTicks": 2,
          "midi": 53,
          "name": "F3",
          "ticks": 9418,
          "time": 109.51162790697674,
          "velocity": 0.3543307086614173
        },
        {
          "duration": 0.25581395348837077,
          "durationTicks": 22,
          "midi": 58,
          "name": "A#3",
          "ticks": 9418,
          "time": 109.51162790697674,
          "velocity": 0.44881889763779526
        },
        {
          "duration": 0.05813953488370771,
          "durationTicks": 5,
          "midi": 89,
          "name": "F6",
          "ticks": 9420,
          "time": 109.53488372093024,
          "velocity": 0.1889763779527559
        },
        {
          "duration": 0.05813953488372192,
          "durationTicks": 5,
          "midi": 89,
          "name": "F6",
          "ticks": 9427,
          "time": 109.61627906976744,
          "velocity": 0.16535433070866143
        },
        {
          "duration": 0.24418604651162923,
          "durationTicks": 21,
          "midi": 74,
          "name": "D5",
          "ticks": 9428,
          "time": 109.62790697674419,
          "velocity": 0.16535433070866143
        },
        {
          "duration": 0.03488372093023884,
          "durationTicks": 3,
          "midi": 46,
          "name": "A#2",
          "ticks": 9429,
          "time": 109.63953488372093,
          "velocity": 0.33070866141732286
        },
        {
          "duration": 0.081395348837205,
          "durationTicks": 7,
          "midi": 46,
          "name": "A#2",
          "ticks": 9433,
          "time": 109.68604651162791,
          "velocity": 0.33858267716535434
        },
        {
          "duration": 0.05813953488372192,
          "durationTicks": 5,
          "midi": 89,
          "name": "F6",
          "ticks": 9435,
          "time": 109.70930232558139,
          "velocity": 0.12598425196850394
        },
        {
          "duration": 0.023255813953497295,
          "durationTicks": 2,
          "midi": 45,
          "name": "A2",
          "ticks": 9440,
          "time": 109.76744186046511,
          "velocity": 0.3464566929133858
        },
        {
          "duration": 0.03488372093023884,
          "durationTicks": 3,
          "midi": 56,
          "name": "G#3",
          "ticks": 9441,
          "time": 109.77906976744185,
          "velocity": 0.5039370078740157
        },
        {
          "duration": 0.15116279069768268,
          "durationTicks": 13,
          "midi": 80,
          "name": "G#5",
          "ticks": 9441,
          "time": 109.77906976744185,
          "velocity": 0.10236220472440945
        },
        {
          "duration": 0.023255813953483084,
          "durationTicks": 2,
          "midi": 46,
          "name": "A#2",
          "ticks": 9442,
          "time": 109.79069767441861,
          "velocity": 0.25196850393700787
        },
        {
          "duration": 0.04651162790698038,
          "durationTicks": 4,
          "midi": 89,
          "name": "F6",
          "ticks": 9444,
          "time": 109.81395348837209,
          "velocity": 0.10236220472440945
        },
        {
          "duration": 0.04651162790698038,
          "durationTicks": 4,
          "midi": 46,
          "name": "A#2",
          "ticks": 9445,
          "time": 109.82558139534883,
          "velocity": 0.23622047244094488
        },
        {
          "duration": 0.023255813953483084,
          "durationTicks": 2,
          "midi": 57,
          "name": "A3",
          "ticks": 9447,
          "time": 109.84883720930233,
          "velocity": 0.49606299212598426
        },
        {
          "duration": 0.023255813953497295,
          "durationTicks": 2,
          "midi": 57,
          "name": "A3",
          "ticks": 9450,
          "time": 109.88372093023256,
          "velocity": 0.47244094488188976
        },
        {
          "duration": 0.03488372093023884,
          "durationTicks": 3,
          "midi": 75,
          "name": "D#5",
          "ticks": 9451,
          "time": 109.8953488372093,
          "velocity": 0.08661417322834646
        },
        {
          "duration": 0.09302325581396076,
          "durationTicks": 8,
          "midi": 89,
          "name": "F6",
          "ticks": 9451,
          "time": 109.8953488372093,
          "velocity": 0.16535433070866143
        },
        {
          "duration": 0.023255813953483084,
          "durationTicks": 2,
          "midi": 58,
          "name": "A#3",
          "ticks": 9452,
          "time": 109.90697674418605,
          "velocity": 0.3937007874015748
        },
        {
          "duration": 0.04651162790698038,
          "durationTicks": 4,
          "midi": 58,
          "name": "A#3",
          "ticks": 9455,
          "time": 109.94186046511628,
          "velocity": 0.41732283464566927
        },
        {
          "duration": 0.023255813953483084,
          "durationTicks": 2,
          "midi": 46,
          "name": "A#2",
          "ticks": 9458,
          "time": 109.97674418604652,
          "velocity": 0.25196850393700787
        },
        {
          "duration": 0.023255813953483084,
          "durationTicks": 2,
          "midi": 45,
          "name": "A2",
          "ticks": 9460,
          "time": 110,
          "velocity": 0.3228346456692913
        },
        {
          "duration": 0.03488372093023884,
          "durationTicks": 3,
          "midi": 54,
          "name": "F#3",
          "ticks": 9461,
          "time": 110.01162790697674,
          "velocity": 0.2204724409448819
        },
        {
          "duration": 0.03488372093023884,
          "durationTicks": 3,
          "midi": 70,
          "name": "A#4",
          "ticks": 9461,
          "time": 110.01162790697674,
          "velocity": 0.11811023622047244
        },
        {
          "duration": 0.30232558139535115,
          "durationTicks": 26,
          "midi": 74,
          "name": "D5",
          "ticks": 9461,
          "time": 110.01162790697674,
          "velocity": 0.25196850393700787
        },
        {
          "duration": 0.023255813953497295,
          "durationTicks": 2,
          "midi": 46,
          "name": "A#2",
          "ticks": 9462,
          "time": 110.02325581395348,
          "velocity": 0.2992125984251969
        },
        {
          "duration": 0.023255813953483084,
          "durationTicks": 2,
          "midi": 45,
          "name": "A2",
          "ticks": 9464,
          "time": 110.04651162790698,
          "velocity": 0.30708661417322836
        },
        {
          "duration": 0.06976744186046346,
          "durationTicks": 6,
          "midi": 58,
          "name": "A#3",
          "ticks": 9465,
          "time": 110.05813953488372,
          "velocity": 0.1732283464566929
        },
        {
          "duration": 0.023255813953497295,
          "durationTicks": 2,
          "midi": 46,
          "name": "A#2",
          "ticks": 9468,
          "time": 110.09302325581395,
          "velocity": 0.25196850393700787
        },
        {
          "duration": 0.023255813953483084,
          "durationTicks": 2,
          "midi": 44,
          "name": "G#2",
          "ticks": 9471,
          "time": 110.12790697674419,
          "velocity": 0.30708661417322836
        },
        {
          "duration": 0.13953488372092693,
          "durationTicks": 12,
          "midi": 67,
          "name": "G4",
          "ticks": 9471,
          "time": 110.12790697674419,
          "velocity": 0.29133858267716534
        },
        {
          "duration": 0.03488372093023884,
          "durationTicks": 3,
          "midi": 76,
          "name": "E5",
          "ticks": 9471,
          "time": 110.12790697674419,
          "velocity": 0.1889763779527559
        },
        {
          "duration": 0.12790697674418539,
          "durationTicks": 11,
          "midi": 55,
          "name": "G3",
          "ticks": 9472,
          "time": 110.13953488372093,
          "velocity": 0.5433070866141733
        },
        {
          "duration": 0.04651162790696617,
          "durationTicks": 4,
          "midi": 46,
          "name": "A#2",
          "ticks": 9479,
          "time": 110.22093023255815,
          "velocity": 0.1889763779527559
        },
        {
          "duration": 0.03488372093023884,
          "durationTicks": 3,
          "midi": 54,
          "name": "F#3",
          "ticks": 9483,
          "time": 110.26744186046511,
          "velocity": 0.3937007874015748
        },
        {
          "duration": 0.19767441860464885,
          "durationTicks": 17,
          "midi": 65,
          "name": "F4",
          "ticks": 9483,
          "time": 110.26744186046511,
          "velocity": 0.4330708661417323
        },
        {
          "duration": 0.1860465116279073,
          "durationTicks": 16,
          "midi": 84,
          "name": "C6",
          "ticks": 9483,
          "time": 110.26744186046511,
          "velocity": 0.1968503937007874
        },
        {
          "duration": 0.023255813953497295,
          "durationTicks": 2,
          "midi": 72,
          "name": "C5",
          "ticks": 9484,
          "time": 110.27906976744185,
          "velocity": 0.23622047244094488
        },
        {
          "duration": 0.12790697674418539,
          "durationTicks": 11,
          "midi": 50,
          "name": "D3",
          "ticks": 9495,
          "time": 110.40697674418605,
          "velocity": 0.4094488188976378
        },
        {
          "duration": 0.10465116279068809,
          "durationTicks": 9,
          "midi": 53,
          "name": "F3",
          "ticks": 9507,
          "time": 110.54651162790698,
          "velocity": 0.4881889763779528
        },
        {
          "duration": 0.08139534883721922,
          "durationTicks": 7,
          "midi": 87,
          "name": "D#6",
          "ticks": 9510,
          "time": 110.5813953488372,
          "velocity": 0.09448818897637795
        },
        {
          "duration": 0.06976744186046346,
          "durationTicks": 6,
          "midi": 72,
          "name": "C5",
          "ticks": 9512,
          "time": 110.6046511627907,
          "velocity": 0.11023622047244094
        },
        {
          "duration": 0.15116279069768268,
          "durationTicks": 13,
          "midi": 67,
          "name": "G4",
          "ticks": 9516,
          "time": 110.65116279069767,
          "velocity": 0.1968503937007874
        },
        {
          "duration": 0.6744186046511658,
          "durationTicks": 58,
          "midi": 74,
          "name": "D5",
          "ticks": 9516,
          "time": 110.65116279069767,
          "velocity": 0.36220472440944884
        },
        {
          "duration": 0.034883720930224626,
          "durationTicks": 3,
          "midi": 42,
          "name": "F#2",
          "ticks": 9517,
          "time": 110.66279069767442,
          "velocity": 0.14960629921259844
        },
        {
          "duration": 0.6395348837209269,
          "durationTicks": 55,
          "midi": 55,
          "name": "G3",
          "ticks": 9517,
          "time": 110.66279069767442,
          "velocity": 0.49606299212598426
        },
        {
          "duration": 0.034883720930224626,
          "durationTicks": 3,
          "midi": 96,
          "name": "C7",
          "ticks": 9517,
          "time": 110.66279069767442,
          "velocity": 0.23622047244094488
        },
        {
          "duration": 0.5232558139534831,
          "durationTicks": 45,
          "midi": 48,
          "name": "C3",
          "ticks": 9528,
          "time": 110.79069767441861,
          "velocity": 0.4330708661417323
        },
        {
          "duration": 0.5,
          "durationTicks": 43,
          "midi": 76,
          "name": "E5",
          "ticks": 9528,
          "time": 110.79069767441861,
          "velocity": 0.48031496062992124
        },
        {
          "duration": 0.2674418604651123,
          "durationTicks": 23,
          "midi": 83,
          "name": "B5",
          "ticks": 9528,
          "time": 110.79069767441861,
          "velocity": 0.2283464566929134
        },
        {
          "duration": 0.5,
          "durationTicks": 43,
          "midi": 64,
          "name": "E4",
          "ticks": 9529,
          "time": 110.80232558139535,
          "velocity": 0.4094488188976378
        },
        {
          "duration": 0.13953488372092693,
          "durationTicks": 12,
          "midi": 79,
          "name": "G5",
          "ticks": 9529,
          "time": 110.80232558139535,
          "velocity": 0.09448818897637795
        },
        {
          "duration": 0.06976744186046346,
          "durationTicks": 6,
          "midi": 102,
          "name": "F#7",
          "ticks": 9530,
          "time": 110.81395348837209,
          "velocity": 0.14960629921259844
        },
        {
          "duration": 0.03488372093023884,
          "durationTicks": 3,
          "midi": 83,
          "name": "B5",
          "ticks": 9554,
          "time": 111.09302325581395,
          "velocity": 0.07874015748031496
        },
        {
          "duration": 0.1860465116279073,
          "durationTicks": 16,
          "midi": 79,
          "name": "G5",
          "ticks": 9555,
          "time": 111.1046511627907,
          "velocity": 0.12598425196850394
        },
        {
          "duration": 0.023255813953483084,
          "durationTicks": 2,
          "midi": 57,
          "name": "A3",
          "ticks": 9573,
          "time": 111.31395348837209,
          "velocity": 0.2677165354330709
        },
        {
          "duration": 0.03488372093023884,
          "durationTicks": 3,
          "midi": 70,
          "name": "A#4",
          "ticks": 9574,
          "time": 111.32558139534883,
          "velocity": 0.25984251968503935
        },
        {
          "duration": 0.03488372093023884,
          "durationTicks": 3,
          "midi": 44,
          "name": "G#2",
          "ticks": 9578,
          "time": 111.37209302325581,
          "velocity": 0.1968503937007874
        },
        {
          "duration": 0.11627906976744384,
          "durationTicks": 10,
          "midi": 57,
          "name": "A3",
          "ticks": 9585,
          "time": 111.45348837209302,
          "velocity": 0.4409448818897638
        },
        {
          "duration": 0.04651162790698038,
          "durationTicks": 4,
          "midi": 76,
          "name": "E5",
          "ticks": 9585,
          "time": 111.45348837209302,
          "velocity": 0.07874015748031496
        },
        {
          "duration": 0.13953488372092693,
          "durationTicks": 12,
          "midi": 97,
          "name": "C#7",
          "ticks": 9585,
          "time": 111.45348837209302,
          "velocity": 0.09448818897637795
        },
        {
          "duration": 0.03488372093023884,
          "durationTicks": 3,
          "midi": 44,
          "name": "G#2",
          "ticks": 9589,
          "time": 111.5,
          "velocity": 0.1732283464566929
        },
        {
          "duration": 0.023255813953483084,
          "durationTicks": 2,
          "midi": 58,
          "name": "A#3",
          "ticks": 9595,
          "time": 111.56976744186046,
          "velocity": 0.30708661417322836
        },
        {
          "duration": 0.5348837209302388,
          "durationTicks": 46,
          "midi": 62,
          "name": "D4",
          "ticks": 9596,
          "time": 111.5813953488372,
          "velocity": 0.3937007874015748
        },
        {
          "duration": 0.03488372093023884,
          "durationTicks": 3,
          "midi": 90,
          "name": "F#6",
          "ticks": 9596,
          "time": 111.5813953488372,
          "velocity": 0.13385826771653545
        },
        {
          "duration": 0.5348837209302388,
          "durationTicks": 46,
          "midi": 93,
          "name": "A6",
          "ticks": 9597,
          "time": 111.59302325581395,
          "velocity": 0.2440944881889764
        },
        {
          "duration": 0.05813953488372192,
          "durationTicks": 5,
          "midi": 102,
          "name": "F#7",
          "ticks": 9597,
          "time": 111.59302325581395,
          "velocity": 0.14173228346456693
        },
        {
          "duration": 0.034883720930224626,
          "durationTicks": 3,
          "midi": 53,
          "name": "F3",
          "ticks": 9598,
          "time": 111.6046511627907,
          "velocity": 0.2755905511811024
        },
        {
          "duration": 0.25581395348837077,
          "durationTicks": 22,
          "midi": 48,
          "name": "C3",
          "ticks": 9606,
          "time": 111.69767441860465,
          "velocity": 0.3464566929133858
        },
        {
          "duration": 0.03488372093023884,
          "durationTicks": 3,
          "midi": 55,
          "name": "G3",
          "ticks": 9617,
          "time": 111.82558139534883,
          "velocity": 0.4881889763779528
        },
        {
          "duration": 0.16279069767441,
          "durationTicks": 14,
          "midi": 68,
          "name": "G#4",
          "ticks": 9619,
          "time": 111.84883720930233,
          "velocity": 0.18110236220472442
        },
        {
          "duration": 0.034883720930224626,
          "durationTicks": 3,
          "midi": 87,
          "name": "D#6",
          "ticks": 9619,
          "time": 111.84883720930233,
          "velocity": 0.07086614173228346
        },
        {
          "duration": 0.16279069767441,
          "durationTicks": 14,
          "midi": 56,
          "name": "G#3",
          "ticks": 9620,
          "time": 111.86046511627907,
          "velocity": 0.4881889763779528
        },
        {
          "duration": 0.04651162790698038,
          "durationTicks": 4,
          "midi": 55,
          "name": "G3",
          "ticks": 9634,
          "time": 112.02325581395348,
          "velocity": 0.3543307086614173
        },
        {
          "duration": 0.05813953488372192,
          "durationTicks": 5,
          "midi": 48,
          "name": "C3",
          "ticks": 9641,
          "time": 112.1046511627907,
          "velocity": 0.2992125984251969
        },
        {
          "duration": 0.034883720930224626,
          "durationTicks": 3,
          "midi": 55,
          "name": "G3",
          "ticks": 9642,
          "time": 112.11627906976744,
          "velocity": 0.2125984251968504
        },
        {
          "duration": 0.04651162790698038,
          "durationTicks": 4,
          "midi": 48,
          "name": "C3",
          "ticks": 9647,
          "time": 112.17441860465117,
          "velocity": 0.2283464566929134
        },
        {
          "duration": 0.13953488372092693,
          "durationTicks": 12,
          "midi": 67,
          "name": "G4",
          "ticks": 9652,
          "time": 112.23255813953489,
          "velocity": 0.2677165354330709
        },
        {
          "duration": 0.034883720930224626,
          "durationTicks": 3,
          "midi": 84,
          "name": "C6",
          "ticks": 9652,
          "time": 112.23255813953489,
          "velocity": 0.11811023622047244
        },
        {
          "duration": 0.12790697674418539,
          "durationTicks": 11,
          "midi": 55,
          "name": "G3",
          "ticks": 9653,
          "time": 112.24418604651163,
          "velocity": 0.5433070866141733
        },
        {
          "duration": 0.15116279069766847,
          "durationTicks": 13,
          "midi": 74,
          "name": "D5",
          "ticks": 9653,
          "time": 112.24418604651163,
          "velocity": 0.2047244094488189
        },
        {
          "duration": 0.03488372093023884,
          "durationTicks": 3,
          "midi": 48,
          "name": "C3",
          "ticks": 9659,
          "time": 112.31395348837209,
          "velocity": 0.14960629921259844
        },
        {
          "duration": 0.034883720930224626,
          "durationTicks": 3,
          "midi": 68,
          "name": "G#4",
          "ticks": 9663,
          "time": 112.36046511627907,
          "velocity": 0.11811023622047244
        },
        {
          "duration": 0.03488372093023884,
          "durationTicks": 3,
          "midi": 54,
          "name": "F#3",
          "ticks": 9664,
          "time": 112.37209302325581,
          "velocity": 0.4645669291338583
        },
        {
          "duration": 0.04651162790698038,
          "durationTicks": 4,
          "midi": 72,
          "name": "C5",
          "ticks": 9664,
          "time": 112.37209302325581,
          "velocity": 0.23622047244094488
        },
        {
          "duration": 0.22093023255814614,
          "durationTicks": 19,
          "midi": 60,
          "name": "C4",
          "ticks": 9665,
          "time": 112.38372093023256,
          "velocity": 0.44881889763779526
        },
        {
          "duration": 0.03488372093023884,
          "durationTicks": 3,
          "midi": 76,
          "name": "E5",
          "ticks": 9665,
          "time": 112.38372093023256,
          "velocity": 0.14173228346456693
        },
        {
          "duration": 0.04651162790696617,
          "durationTicks": 4,
          "midi": 55,
          "name": "G3",
          "ticks": 9667,
          "time": 112.40697674418605,
          "velocity": 0.2204724409448819
        },
        {
          "duration": 0.12790697674418539,
          "durationTicks": 11,
          "midi": 100,
          "name": "E7",
          "ticks": 9667,
          "time": 112.40697674418605,
          "velocity": 0.08661417322834646
        },
        {
          "duration": 0.13953488372092693,
          "durationTicks": 12,
          "midi": 50,
          "name": "D3",
          "ticks": 9674,
          "time": 112.48837209302326,
          "velocity": 0.4251968503937008
        },
        {
          "duration": 0.023255813953497295,
          "durationTicks": 2,
          "midi": 54,
          "name": "F#3",
          "ticks": 9688,
          "time": 112.65116279069767,
          "velocity": 0.2283464566929134
        },
        {
          "duration": 0.04651162790698038,
          "durationTicks": 4,
          "midi": 53,
          "name": "F3",
          "ticks": 9690,
          "time": 112.67441860465117,
          "velocity": 0.3228346456692913
        },
        {
          "duration": 0.13953488372092693,
          "durationTicks": 12,
          "midi": 55,
          "name": "G3",
          "ticks": 9695,
          "time": 112.73255813953489,
          "velocity": 0.5354330708661418
        },
        {
          "duration": 0.11627906976744384,
          "durationTicks": 10,
          "midi": 86,
          "name": "D6",
          "ticks": 9695,
          "time": 112.73255813953489,
          "velocity": 0.14960629921259844
        },
        {
          "duration": 0.12790697674418539,
          "durationTicks": 11,
          "midi": 74,
          "name": "D5",
          "ticks": 9696,
          "time": 112.74418604651163,
          "velocity": 0.1889763779527559
        },
        {
          "duration": 0.03488372093023884,
          "durationTicks": 3,
          "midi": 84,
          "name": "C6",
          "ticks": 9697,
          "time": 112.75581395348837,
          "velocity": 0.1732283464566929
        },
        {
          "duration": 0.034883720930224626,
          "durationTicks": 3,
          "midi": 44,
          "name": "G#2",
          "ticks": 9700,
          "time": 112.79069767441861,
          "velocity": 0.15748031496062992
        },
        {
          "duration": 0.03488372093023884,
          "durationTicks": 3,
          "midi": 70,
          "name": "A#4",
          "ticks": 9707,
          "time": 112.87209302325581,
          "velocity": 0.2440944881889764
        },
        {
          "duration": 0.023255813953497295,
          "durationTicks": 2,
          "midi": 50,
          "name": "D3",
          "ticks": 9708,
          "time": 112.88372093023256,
          "velocity": 0.4094488188976378
        },
        {
          "duration": 0.03488372093023884,
          "durationTicks": 3,
          "midi": 56,
          "name": "G#3",
          "ticks": 9709,
          "time": 112.8953488372093,
          "velocity": 0.4409448818897638
        },
        {
          "duration": 0.03488372093023884,
          "durationTicks": 3,
          "midi": 76,
          "name": "E5",
          "ticks": 9709,
          "time": 112.8953488372093,
          "velocity": 0.10236220472440945
        },
        {
          "duration": 0.22093023255814614,
          "durationTicks": 19,
          "midi": 84,
          "name": "C6",
          "ticks": 9709,
          "time": 112.8953488372093,
          "velocity": 0.28346456692913385
        },
        {
          "duration": 0.11627906976742963,
          "durationTicks": 10,
          "midi": 60,
          "name": "C4",
          "ticks": 9710,
          "time": 112.90697674418605,
          "velocity": 0.4251968503937008
        },
        {
          "duration": 0.22093023255813193,
          "durationTicks": 19,
          "midi": 69,
          "name": "A4",
          "ticks": 9710,
          "time": 112.90697674418605,
          "velocity": 0.2283464566929134
        },
        {
          "duration": 0.034883720930224626,
          "durationTicks": 3,
          "midi": 71,
          "name": "B4",
          "ticks": 9710,
          "time": 112.90697674418605,
          "velocity": 0.2204724409448819
        },
        {
          "duration": 0.05813953488370771,
          "durationTicks": 5,
          "midi": 97,
          "name": "C#7",
          "ticks": 9710,
          "time": 112.90697674418605,
          "velocity": 0.11023622047244094
        },
        {
          "duration": 0.22093023255813193,
          "durationTicks": 19,
          "midi": 50,
          "name": "D3",
          "ticks": 9711,
          "time": 112.9186046511628,
          "velocity": 0.4015748031496063
        },
        {
          "duration": 0.11627906976744384,
          "durationTicks": 10,
          "midi": 91,
          "name": "G6",
          "ticks": 9711,
          "time": 112.9186046511628,
          "velocity": 0.1968503937007874
        },
        {
          "duration": 0.03488372093023884,
          "durationTicks": 3,
          "midi": 100,
          "name": "E7",
          "ticks": 9714,
          "time": 112.95348837209302,
          "velocity": 0.08661417322834646
        },
        {
          "duration": 0.03488372093023884,
          "durationTicks": 3,
          "midi": 61,
          "name": "C#4",
          "ticks": 9720,
          "time": 113.02325581395348,
          "velocity": 0.4015748031496063
        },
        {
          "duration": 0.04651162790698038,
          "durationTicks": 4,
          "midi": 85,
          "name": "C#6",
          "ticks": 9720,
          "time": 113.02325581395348,
          "velocity": 0.2992125984251969
        },
        {
          "duration": 1.2441860465116292,
          "durationTicks": 107,
          "midi": 62,
          "name": "D4",
          "ticks": 9723,
          "time": 113.05813953488372,
          "velocity": 0.47244094488188976
        },
        {
          "duration": 0.7093023255813904,
          "durationTicks": 61,
          "midi": 86,
          "name": "D6",
          "ticks": 9723,
          "time": 113.05813953488372,
          "velocity": 0.29133858267716534
        },
        {
          "duration": 0.09302325581394655,
          "durationTicks": 8,
          "midi": 93,
          "name": "A6",
          "ticks": 9723,
          "time": 113.05813953488372,
          "velocity": 0.13385826771653545
        },
        {
          "duration": 0.023255813953497295,
          "durationTicks": 2,
          "midi": 56,
          "name": "G#3",
          "ticks": 9730,
          "time": 113.13953488372093,
          "velocity": 0.4015748031496063
        },
        {
          "duration": 0.12790697674418539,
          "durationTicks": 11,
          "midi": 50,
          "name": "D3",
          "ticks": 9731,
          "time": 113.15116279069767,
          "velocity": 0.3858267716535433
        },
        {
          "duration": 0.10465116279068809,
          "durationTicks": 9,
          "midi": 57,
          "name": "A3",
          "ticks": 9732,
          "time": 113.16279069767442,
          "velocity": 0.3700787401574803
        },
        {
          "duration": 0.4186046511627808,
          "durationTicks": 36,
          "midi": 93,
          "name": "A6",
          "ticks": 9733,
          "time": 113.17441860465117,
          "velocity": 0.18110236220472442
        },
        {
          "duration": 0.04651162790698038,
          "durationTicks": 4,
          "midi": 76,
          "name": "E5",
          "ticks": 9734,
          "time": 113.18604651162791,
          "velocity": 0.07874015748031496
        },
        {
          "duration": 0.03488372093023884,
          "durationTicks": 3,
          "midi": 69,
          "name": "A4",
          "ticks": 9752,
          "time": 113.3953488372093,
          "velocity": 0.2204724409448819
        },
        {
          "duration": 0.17441860465116577,
          "durationTicks": 15,
          "midi": 76,
          "name": "E5",
          "ticks": 9752,
          "time": 113.3953488372093,
          "velocity": 0.2204724409448819
        },
        {
          "duration": 0.13953488372092693,
          "durationTicks": 12,
          "midi": 57,
          "name": "A3",
          "ticks": 9753,
          "time": 113.40697674418605,
          "velocity": 0.4881889763779528
        },
        {
          "duration": 0.12790697674418539,
          "durationTicks": 11,
          "midi": 97,
          "name": "C#7",
          "ticks": 9754,
          "time": 113.4186046511628,
          "velocity": 0.13385826771653545
        },
        {
          "duration": 0.11627906976744384,
          "durationTicks": 10,
          "midi": 50,
          "name": "D3",
          "ticks": 9755,
          "time": 113.43023255813954,
          "velocity": 0.2440944881889764
        },
        {
          "duration": 0.081395348837205,
          "durationTicks": 7,
          "midi": 85,
          "name": "C#6",
          "ticks": 9760,
          "time": 113.48837209302326,
          "velocity": 0.10236220472440945
        },
        {
          "duration": 0.1279069767441996,
          "durationTicks": 11,
          "midi": 57,
          "name": "A3",
          "ticks": 9785,
          "time": 113.77906976744185,
          "velocity": 0.47244094488188976
        },
        {
          "duration": 0.1279069767441996,
          "durationTicks": 11,
          "midi": 78,
          "name": "F#5",
          "ticks": 9785,
          "time": 113.77906976744185,
          "velocity": 0.10236220472440945
        },
        {
          "duration": 0.12790697674418539,
          "durationTicks": 11,
          "midi": 76,
          "name": "E5",
          "ticks": 9786,
          "time": 113.79069767441861,
          "velocity": 0.1968503937007874
        },
        {
          "duration": 0.06976744186046346,
          "durationTicks": 6,
          "midi": 96,
          "name": "C7",
          "ticks": 9786,
          "time": 113.79069767441861,
          "velocity": 0.09448818897637795
        },
        {
          "duration": 0.11627906976744384,
          "durationTicks": 10,
          "midi": 50,
          "name": "D3",
          "ticks": 9787,
          "time": 113.80232558139535,
          "velocity": 0.2755905511811024
        },
        {
          "duration": 0.03488372093023884,
          "durationTicks": 3,
          "midi": 55,
          "name": "G3",
          "ticks": 9806,
          "time": 114.02325581395348,
          "velocity": 0.48031496062992124
        },
        {
          "duration": 0.034883720930224626,
          "durationTicks": 3,
          "midi": 69,
          "name": "A4",
          "ticks": 9807,
          "time": 114.03488372093024,
          "velocity": 0.3228346456692913
        },
        {
          "duration": 0.11627906976744384,
          "durationTicks": 10,
          "midi": 78,
          "name": "F#5",
          "ticks": 9808,
          "time": 114.04651162790698,
          "velocity": 0.07086614173228346
        },
        {
          "duration": 0.11627906976744384,
          "durationTicks": 10,
          "midi": 80,
          "name": "G#5",
          "ticks": 9808,
          "time": 114.04651162790698,
          "velocity": 0.13385826771653545
        },
        {
          "duration": 0.11627906976744384,
          "durationTicks": 10,
          "midi": 56,
          "name": "G#3",
          "ticks": 9809,
          "time": 114.05813953488372,
          "velocity": 0.49606299212598426
        },
        {
          "duration": 0.081395348837205,
          "durationTicks": 7,
          "midi": 50,
          "name": "D3",
          "ticks": 9810,
          "time": 114.06976744186046,
          "velocity": 0.2677165354330709
        },
        {
          "duration": 0.05813953488372192,
          "durationTicks": 5,
          "midi": 81,
          "name": "A5",
          "ticks": 9812,
          "time": 114.09302325581395,
          "velocity": 0.07086614173228346
        },
        {
          "duration": 0.023255813953483084,
          "durationTicks": 2,
          "midi": 69,
          "name": "A4",
          "ticks": 9818,
          "time": 114.16279069767442,
          "velocity": 0.2283464566929134
        },
        {
          "duration": 0.023255813953497295,
          "durationTicks": 2,
          "midi": 52,
          "name": "E3",
          "ticks": 9828,
          "time": 114.27906976744185,
          "velocity": 0.28346456692913385
        },
        {
          "duration": 0.15116279069766847,
          "durationTicks": 13,
          "midi": 65,
          "name": "F4",
          "ticks": 9829,
          "time": 114.29069767441861,
          "velocity": 0.2283464566929134
        },
        {
          "duration": 0.12790697674418539,
          "durationTicks": 11,
          "midi": 53,
          "name": "F3",
          "ticks": 9830,
          "time": 114.30232558139535,
          "velocity": 0.3858267716535433
        },
        {
          "duration": 0.22093023255813193,
          "durationTicks": 19,
          "midi": 76,
          "name": "E5",
          "ticks": 9830,
          "time": 114.30232558139535,
          "velocity": 0.25196850393700787
        },
        {
          "duration": 0.25581395348837077,
          "durationTicks": 22,
          "midi": 87,
          "name": "D#6",
          "ticks": 9830,
          "time": 114.30232558139535,
          "velocity": 0.1889763779527559
        },
        {
          "duration": 0.09302325581396076,
          "durationTicks": 8,
          "midi": 72,
          "name": "C5",
          "ticks": 9832,
          "time": 114.32558139534883,
          "velocity": 0.07086614173228346
        },
        {
          "duration": 0.09302325581396076,
          "durationTicks": 8,
          "midi": 60,
          "name": "C4",
          "ticks": 9833,
          "time": 114.33720930232558,
          "velocity": 0.25984251968503935
        },
        {
          "duration": 0.034883720930224626,
          "durationTicks": 3,
          "midi": 71,
          "name": "B4",
          "ticks": 9840,
          "time": 114.4186046511628,
          "velocity": 0.2047244094488189
        },
        {
          "duration": 0.081395348837205,
          "durationTicks": 7,
          "midi": 60,
          "name": "C4",
          "ticks": 9842,
          "time": 114.44186046511628,
          "velocity": 0.36220472440944884
        },
        {
          "duration": 0.06976744186046346,
          "durationTicks": 6,
          "midi": 48,
          "name": "C3",
          "ticks": 9843,
          "time": 114.45348837209302,
          "velocity": 0.3858267716535433
        },
        {
          "duration": 0.023255813953497295,
          "durationTicks": 2,
          "midi": 52,
          "name": "E3",
          "ticks": 9843,
          "time": 114.45348837209302,
          "velocity": 0.3779527559055118
        },
        {
          "duration": 0.05813953488372192,
          "durationTicks": 5,
          "midi": 47,
          "name": "B2",
          "ticks": 9849,
          "time": 114.52325581395348,
          "velocity": 0.36220472440944884
        },
        {
          "duration": 0.05813953488372192,
          "durationTicks": 5,
          "midi": 66,
          "name": "F#4",
          "ticks": 9849,
          "time": 114.52325581395348,
          "velocity": 0.11811023622047244
        },
        {
          "duration": 0.06976744186046346,
          "durationTicks": 6,
          "midi": 75,
          "name": "D#5",
          "ticks": 9849,
          "time": 114.52325581395348,
          "velocity": 0.1732283464566929
        },
        {
          "duration": 0.12790697674418539,
          "durationTicks": 11,
          "midi": 62,
          "name": "D4",
          "ticks": 9852,
          "time": 114.55813953488372,
          "velocity": 0.36220472440944884
        },
        {
          "duration": 0.12790697674418539,
          "durationTicks": 11,
          "midi": 69,
          "name": "A4",
          "ticks": 9852,
          "time": 114.55813953488372,
          "velocity": 0.3700787401574803
        },
        {
          "duration": 0.04651162790698038,
          "durationTicks": 4,
          "midi": 78,
          "name": "F#5",
          "ticks": 9853,
          "time": 114.56976744186046,
          "velocity": 0.15748031496062992
        },
        {
          "duration": 0.09302325581396076,
          "durationTicks": 8,
          "midi": 85,
          "name": "C#6",
          "ticks": 9853,
          "time": 114.56976744186046,
          "velocity": 0.10236220472440945
        },
        {
          "duration": 0.16279069767442422,
          "durationTicks": 14,
          "midi": 76,
          "name": "E5",
          "ticks": 9854,
          "time": 114.5813953488372,
          "velocity": 0.12598425196850394
        },
        {
          "duration": 0.023255813953497295,
          "durationTicks": 2,
          "midi": 45,
          "name": "A2",
          "ticks": 9855,
          "time": 114.59302325581395,
          "velocity": 0.4330708661417323
        },
        {
          "duration": 0.034883720930224626,
          "durationTicks": 3,
          "midi": 46,
          "name": "A#2",
          "ticks": 9857,
          "time": 114.61627906976744,
          "velocity": 0.3779527559055118
        },
        {
          "duration": 0.05813953488372192,
          "durationTicks": 5,
          "midi": 79,
          "name": "G5",
          "ticks": 9858,
          "time": 114.62790697674419,
          "velocity": 0.08661417322834646
        },
        {
          "duration": 0.03488372093023884,
          "durationTicks": 3,
          "midi": 45,
          "name": "A2",
          "ticks": 9860,
          "time": 114.65116279069767,
          "velocity": 0.3464566929133858
        },
        {
          "duration": 0.05813953488372192,
          "durationTicks": 5,
          "midi": 65,
          "name": "F4",
          "ticks": 9862,
          "time": 114.67441860465117,
          "velocity": 0.15748031496062992
        },
        {
          "duration": 0.04651162790698038,
          "durationTicks": 4,
          "midi": 60,
          "name": "C4",
          "ticks": 9863,
          "time": 114.68604651162791,
          "velocity": 0.23622047244094488
        },
        {
          "duration": 0.023255813953497295,
          "durationTicks": 2,
          "midi": 47,
          "name": "B2",
          "ticks": 9864,
          "time": 114.69767441860465,
          "velocity": 0.3858267716535433
        },
        {
          "duration": 0.081395348837205,
          "durationTicks": 7,
          "midi": 87,
          "name": "D#6",
          "ticks": 9864,
          "time": 114.69767441860465,
          "velocity": 0.11023622047244094
        },
        {
          "duration": 0.023255813953483084,
          "durationTicks": 2,
          "midi": 45,
          "name": "A2",
          "ticks": 9867,
          "time": 114.73255813953489,
          "velocity": 0.4015748031496063
        },
        {
          "duration": 0.04651162790696617,
          "durationTicks": 4,
          "midi": 54,
          "name": "F#3",
          "ticks": 9867,
          "time": 114.73255813953489,
          "velocity": 0.31496062992125984
        },
        {
          "duration": 0.034883720930224626,
          "durationTicks": 3,
          "midi": 72,
          "name": "C5",
          "ticks": 9867,
          "time": 114.73255813953489,
          "velocity": 0.10236220472440945
        },
        {
          "duration": 0.2325581395348877,
          "durationTicks": 20,
          "midi": 74,
          "name": "D5",
          "ticks": 9869,
          "time": 114.75581395348837,
          "velocity": 0.3464566929133858
        },
        {
          "duration": 0.03488372093023884,
          "durationTicks": 3,
          "midi": 43,
          "name": "G2",
          "ticks": 9871,
          "time": 114.77906976744185,
          "velocity": 0.33070866141732286
        },
        {
          "duration": 0.081395348837205,
          "durationTicks": 7,
          "midi": 42,
          "name": "F#2",
          "ticks": 9874,
          "time": 114.81395348837209,
          "velocity": 0.33858267716535434
        },
        {
          "duration": 0.15116279069766847,
          "durationTicks": 13,
          "midi": 67,
          "name": "G4",
          "ticks": 9874,
          "time": 114.81395348837209,
          "velocity": 0.31496062992125984
        },
        {
          "duration": 0.12790697674418539,
          "durationTicks": 11,
          "midi": 55,
          "name": "G3",
          "ticks": 9875,
          "time": 114.82558139534883,
          "velocity": 0.5118110236220472
        },
        {
          "duration": 0.1046511627907023,
          "durationTicks": 9,
          "midi": 99,
          "name": "D#7",
          "ticks": 9875,
          "time": 114.82558139534883,
          "velocity": 0.12598425196850394
        },
        {
          "duration": 0.12790697674418539,
          "durationTicks": 11,
          "midi": 62,
          "name": "D4",
          "ticks": 9876,
          "time": 114.83720930232558,
          "velocity": 0.1968503937007874
        },
        {
          "duration": 0.05813953488372192,
          "durationTicks": 5,
          "midi": 41,
          "name": "F2",
          "ticks": 9881,
          "time": 114.8953488372093,
          "velocity": 0.3228346456692913
        },
        {
          "duration": 0.023255813953497295,
          "durationTicks": 2,
          "midi": 54,
          "name": "F#3",
          "ticks": 9886,
          "time": 114.95348837209302,
          "velocity": 0.28346456692913385
        },
        {
          "duration": 0.09302325581396076,
          "durationTicks": 8,
          "midi": 71,
          "name": "B4",
          "ticks": 9886,
          "time": 114.95348837209302,
          "velocity": 0.25984251968503935
        },
        {
          "duration": 0.023255813953483084,
          "durationTicks": 2,
          "midi": 48,
          "name": "C3",
          "ticks": 9889,
          "time": 114.98837209302326,
          "velocity": 0.25196850393700787
        },
        {
          "duration": 0.023255813953483084,
          "durationTicks": 2,
          "midi": 55,
          "name": "G3",
          "ticks": 9890,
          "time": 115,
          "velocity": 0.31496062992125984
        },
        {
          "duration": 0.05813953488372192,
          "durationTicks": 5,
          "midi": 42,
          "name": "F#2",
          "ticks": 9892,
          "time": 115.02325581395348,
          "velocity": 0.18110236220472442
        },
        {
          "duration": 0.11627906976744384,
          "durationTicks": 10,
          "midi": 50,
          "name": "D3",
          "ticks": 9898,
          "time": 115.09302325581395,
          "velocity": 0.4330708661417323
        },
        {
          "duration": 0.22093023255814614,
          "durationTicks": 19,
          "midi": 69,
          "name": "A4",
          "ticks": 9901,
          "time": 115.12790697674419,
          "velocity": 0.23622047244094488
        },
        {
          "duration": 0.023255813953497295,
          "durationTicks": 2,
          "midi": 49,
          "name": "C#3",
          "ticks": 9908,
          "time": 115.20930232558139,
          "velocity": 0.4094488188976378
        },
        {
          "duration": 0.06976744186046346,
          "durationTicks": 6,
          "midi": 78,
          "name": "F#5",
          "ticks": 9909,
          "time": 115.22093023255815,
          "velocity": 0.14173228346456693
        },
        {
          "duration": 0.12790697674418539,
          "durationTicks": 11,
          "midi": 86,
          "name": "D6",
          "ticks": 9909,
          "time": 115.22093023255815,
          "velocity": 0.2125984251968504
        },
        {
          "duration": 0.023255813953483084,
          "durationTicks": 2,
          "midi": 51,
          "name": "D#3",
          "ticks": 9910,
          "time": 115.23255813953489,
          "velocity": 0.4251968503937008
        },
        {
          "duration": 0.12790697674418539,
          "durationTicks": 11,
          "midi": 57,
          "name": "A3",
          "ticks": 9910,
          "time": 115.23255813953489,
          "velocity": 0.4566929133858268
        },
        {
          "duration": 0.17441860465116577,
          "durationTicks": 15,
          "midi": 74,
          "name": "D5",
          "ticks": 9910,
          "time": 115.23255813953489,
          "velocity": 0.3228346456692913
        },
        {
          "duration": 0.12790697674418539,
          "durationTicks": 11,
          "midi": 76,
          "name": "E5",
          "ticks": 9910,
          "time": 115.23255813953489,
          "velocity": 0.1889763779527559
        },
        {
          "duration": 0.04651162790696617,
          "durationTicks": 4,
          "midi": 97,
          "name": "C#7",
          "ticks": 9910,
          "time": 115.23255813953489,
          "velocity": 0.10236220472440945
        },
        {
          "duration": 0.12790697674418539,
          "durationTicks": 11,
          "midi": 50,
          "name": "D3",
          "ticks": 9912,
          "time": 115.25581395348837,
          "velocity": 0.4566929133858268
        },
        {
          "duration": 0.03488372093023884,
          "durationTicks": 3,
          "midi": 42,
          "name": "F#2",
          "ticks": 9914,
          "time": 115.27906976744185,
          "velocity": 0.28346456692913385
        },
        {
          "duration": 0.034883720930224626,
          "durationTicks": 3,
          "midi": 93,
          "name": "A6",
          "ticks": 9916,
          "time": 115.30232558139535,
          "velocity": 0.10236220472440945
        },
        {
          "duration": 0.034883720930224626,
          "durationTicks": 3,
          "midi": 56,
          "name": "G#3",
          "ticks": 9921,
          "time": 115.36046511627907,
          "velocity": 0.33070866141732286
        },
        {
          "duration": 0.04651162790696617,
          "durationTicks": 4,
          "midi": 57,
          "name": "A3",
          "ticks": 9926,
          "time": 115.4186046511628,
          "velocity": 0.14173228346456693
        },
        {
          "duration": 0.034883720930224626,
          "durationTicks": 3,
          "midi": 55,
          "name": "G3",
          "ticks": 9931,
          "time": 115.47674418604652,
          "velocity": 0.41732283464566927
        },
        {
          "duration": 0.023255813953483084,
          "durationTicks": 2,
          "midi": 48,
          "name": "C3",
          "ticks": 9932,
          "time": 115.48837209302326,
          "velocity": 0.41732283464566927
        },
        {
          "duration": 0.16279069767441,
          "durationTicks": 14,
          "midi": 62,
          "name": "D4",
          "ticks": 9932,
          "time": 115.48837209302326,
          "velocity": 0.2755905511811024
        },
        {
          "duration": 0.023255813953483084,
          "durationTicks": 2,
          "midi": 70,
          "name": "A#4",
          "ticks": 9932,
          "time": 115.48837209302326,
          "velocity": 0.2677165354330709
        },
        {
          "duration": 0.034883720930224626,
          "durationTicks": 3,
          "midi": 88,
          "name": "E6",
          "ticks": 9932,
          "time": 115.48837209302326,
          "velocity": 0.14960629921259844
        },
        {
          "duration": 0.15116279069766847,
          "durationTicks": 13,
          "midi": 81,
          "name": "A5",
          "ticks": 9933,
          "time": 115.5,
          "velocity": 0.1889763779527559
        },
        {
          "duration": 0.13953488372092693,
          "durationTicks": 12,
          "midi": 69,
          "name": "A4",
          "ticks": 9934,
          "time": 115.51162790697674,
          "velocity": 0.30708661417322836
        },
        {
          "duration": 0.13953488372092693,
          "durationTicks": 12,
          "midi": 76,
          "name": "E5",
          "ticks": 9934,
          "time": 115.51162790697674,
          "velocity": 0.2440944881889764
        },
        {
          "duration": 0.023255813953497295,
          "durationTicks": 2,
          "midi": 44,
          "name": "G#2",
          "ticks": 9935,
          "time": 115.52325581395348,
          "velocity": 0.4409448818897638
        },
        {
          "duration": 0.12790697674418539,
          "durationTicks": 11,
          "midi": 57,
          "name": "A3",
          "ticks": 9935,
          "time": 115.52325581395348,
          "velocity": 0.3937007874015748
        },
        {
          "duration": 0.12790697674418539,
          "durationTicks": 11,
          "midi": 71,
          "name": "B4",
          "ticks": 9935,
          "time": 115.52325581395348,
          "velocity": 0.25196850393700787
        },
        {
          "duration": 0.023255813953483084,
          "durationTicks": 2,
          "midi": 52,
          "name": "E3",
          "ticks": 9936,
          "time": 115.53488372093024,
          "velocity": 0.29133858267716534
        },
        {
          "duration": 0.023255813953483084,
          "durationTicks": 2,
          "midi": 51,
          "name": "D#3",
          "ticks": 9938,
          "time": 115.55813953488372,
          "velocity": 0.3464566929133858
        },
        {
          "duration": 0.09302325581396076,
          "durationTicks": 8,
          "midi": 45,
          "name": "A2",
          "ticks": 9939,
          "time": 115.56976744186046,
          "velocity": 0.4094488188976378
        },
        {
          "duration": 0.04651162790698038,
          "durationTicks": 4,
          "midi": 78,
          "name": "F#5",
          "ticks": 9940,
          "time": 115.5813953488372,
          "velocity": 0.07086614173228346
        },
        {
          "duration": 0.023255813953483084,
          "durationTicks": 2,
          "midi": 44,
          "name": "G#2",
          "ticks": 9947,
          "time": 115.66279069767442,
          "velocity": 0.36220472440944884
        },
        {
          "duration": 0.05813953488372192,
          "durationTicks": 5,
          "midi": 42,
          "name": "F#2",
          "ticks": 9949,
          "time": 115.68604651162791,
          "velocity": 0.2677165354330709
        },
        {
          "duration": 0.023255813953483084,
          "durationTicks": 2,
          "midi": 57,
          "name": "A3",
          "ticks": 9964,
          "time": 115.86046511627907,
          "velocity": 0.3779527559055118
        },
        {
          "duration": 0.12790697674418539,
          "durationTicks": 11,
          "midi": 56,
          "name": "G#3",
          "ticks": 9966,
          "time": 115.88372093023256,
          "velocity": 0.5196850393700787
        },
        {
          "duration": 0.13953488372092693,
          "durationTicks": 12,
          "midi": 72,
          "name": "C5",
          "ticks": 9966,
          "time": 115.88372093023256,
          "velocity": 0.14960629921259844
        },
        {
          "duration": 0.13953488372092693,
          "durationTicks": 12,
          "midi": 75,
          "name": "D#5",
          "ticks": 9966,
          "time": 115.88372093023256,
          "velocity": 0.31496062992125984
        },
        {
          "duration": 0.09302325581396076,
          "durationTicks": 8,
          "midi": 69,
          "name": "A4",
          "ticks": 9967,
          "time": 115.8953488372093,
          "velocity": 0.25196850393700787
        },
        {
          "duration": 0.034883720930224626,
          "durationTicks": 3,
          "midi": 63,
          "name": "D#4",
          "ticks": 9968,
          "time": 115.90697674418605,
          "velocity": 0.25984251968503935
        },
        {
          "duration": 0.06976744186046346,
          "durationTicks": 6,
          "midi": 78,
          "name": "F#5",
          "ticks": 9968,
          "time": 115.90697674418605,
          "velocity": 0.14173228346456693
        },
        {
          "duration": 0.04651162790696617,
          "durationTicks": 4,
          "midi": 96,
          "name": "C7",
          "ticks": 9968,
          "time": 115.90697674418605,
          "velocity": 0.07874015748031496
        },
        {
          "duration": 0.023255813953483084,
          "durationTicks": 2,
          "midi": 43,
          "name": "G2",
          "ticks": 9969,
          "time": 115.9186046511628,
          "velocity": 0.3700787401574803
        },
        {
          "duration": 0.081395348837205,
          "durationTicks": 7,
          "midi": 51,
          "name": "D#3",
          "ticks": 9969,
          "time": 115.9186046511628,
          "velocity": 0.4566929133858268
        },
        {
          "duration": 0.034883720930224626,
          "durationTicks": 3,
          "midi": 98,
          "name": "D7",
          "ticks": 9969,
          "time": 115.9186046511628,
          "velocity": 0.11811023622047244
        },
        {
          "duration": 0.023255813953483084,
          "durationTicks": 2,
          "midi": 44,
          "name": "G#2",
          "ticks": 9971,
          "time": 115.94186046511628,
          "velocity": 0.3779527559055118
        },
        {
          "duration": 0.023255813953483084,
          "durationTicks": 2,
          "midi": 44,
          "name": "G#2",
          "ticks": 9974,
          "time": 115.97674418604652,
          "velocity": 0.3543307086614173
        },
        {
          "duration": 0.034883720930224626,
          "durationTicks": 3,
          "midi": 62,
          "name": "D4",
          "ticks": 9974,
          "time": 115.97674418604652,
          "velocity": 0.2677165354330709
        },
        {
          "duration": 0.04651162790698038,
          "durationTicks": 4,
          "midi": 80,
          "name": "G#5",
          "ticks": 9975,
          "time": 115.98837209302326,
          "velocity": 0.10236220472440945
        },
        {
          "duration": 0.03488372093023884,
          "durationTicks": 3,
          "midi": 43,
          "name": "G2",
          "ticks": 9976,
          "time": 116,
          "velocity": 0.3700787401574803
        },
        {
          "duration": 0.023255813953497295,
          "durationTicks": 2,
          "midi": 70,
          "name": "A#4",
          "ticks": 9978,
          "time": 116.02325581395348,
          "velocity": 0.2283464566929134
        },
        {
          "duration": 0.081395348837205,
          "durationTicks": 7,
          "midi": 42,
          "name": "F#2",
          "ticks": 9979,
          "time": 116.03488372093024,
          "velocity": 0.2755905511811024
        },
        {
          "duration": 0.15116279069766847,
          "durationTicks": 13,
          "midi": 62,
          "name": "D4",
          "ticks": 9987,
          "time": 116.12790697674419,
          "velocity": 0.33858267716535434
        },
        {
          "duration": 0.03488372093023884,
          "durationTicks": 3,
          "midi": 56,
          "name": "G#3",
          "ticks": 9988,
          "time": 116.13953488372093,
          "velocity": 0.3858267716535433
        },
        {
          "duration": 0.11627906976742963,
          "durationTicks": 10,
          "midi": 67,
          "name": "G4",
          "ticks": 9990,
          "time": 116.16279069767442,
          "velocity": 0.25984251968503935
        },
        {
          "duration": 0.09302325581394655,
          "durationTicks": 8,
          "midi": 55,
          "name": "G3",
          "ticks": 9991,
          "time": 116.17441860465117,
          "velocity": 0.4881889763779528
        },
        {
          "duration": 0.04651162790698038,
          "durationTicks": 4,
          "midi": 43,
          "name": "G2",
          "ticks": 9994,
          "time": 116.20930232558139,
          "velocity": 0.3543307086614173
        },
        {
          "duration": 0.03488372093023884,
          "durationTicks": 3,
          "midi": 54,
          "name": "F#3",
          "ticks": 9999,
          "time": 116.26744186046511,
          "velocity": 0.3228346456692913
        },
        {
          "duration": 0.06976744186046346,
          "durationTicks": 6,
          "midi": 72,
          "name": "C5",
          "ticks": 9999,
          "time": 116.26744186046511,
          "velocity": 0.23622047244094488
        },
        {
          "duration": 0.05813953488372192,
          "durationTicks": 5,
          "midi": 42,
          "name": "F#2",
          "ticks": 10000,
          "time": 116.27906976744185,
          "velocity": 0.30708661417322836
        },
        {
          "duration": 0.034883720930224626,
          "durationTicks": 3,
          "midi": 55,
          "name": "G3",
          "ticks": 10002,
          "time": 116.30232558139535,
          "velocity": 0.29133858267716534
        },
        {
          "duration": 0.03488372093023884,
          "durationTicks": 3,
          "midi": 41,
          "name": "F2",
          "ticks": 10005,
          "time": 116.33720930232558,
          "velocity": 0.2283464566929134
        },
        {
          "duration": 0.06976744186047767,
          "durationTicks": 6,
          "midi": 56,
          "name": "G#3",
          "ticks": 10005,
          "time": 116.33720930232558,
          "velocity": 0.14960629921259844
        },
        {
          "duration": 0.1046511627907023,
          "durationTicks": 9,
          "midi": 76,
          "name": "E5",
          "ticks": 10010,
          "time": 116.3953488372093,
          "velocity": 0.16535433070866143
        },
        {
          "duration": 0.12790697674418539,
          "durationTicks": 11,
          "midi": 84,
          "name": "C6",
          "ticks": 10010,
          "time": 116.3953488372093,
          "velocity": 0.2283464566929134
        },
        {
          "duration": 0.34883720930233153,
          "durationTicks": 30,
          "midi": 87,
          "name": "D#6",
          "ticks": 10010,
          "time": 116.3953488372093,
          "velocity": 0.2440944881889764
        },
        {
          "duration": 0.06976744186046346,
          "durationTicks": 6,
          "midi": 97,
          "name": "C#7",
          "ticks": 10010,
          "time": 116.3953488372093,
          "velocity": 0.14960629921259844
        },
        {
          "duration": 0.13953488372092693,
          "durationTicks": 12,
          "midi": 65,
          "name": "F4",
          "ticks": 10011,
          "time": 116.40697674418605,
          "velocity": 0.2204724409448819
        },
        {
          "duration": 0.10465116279068809,
          "durationTicks": 9,
          "midi": 95,
          "name": "B6",
          "ticks": 10011,
          "time": 116.40697674418605,
          "velocity": 0.1732283464566929
        },
        {
          "duration": 0.05813953488370771,
          "durationTicks": 5,
          "midi": 101,
          "name": "F7",
          "ticks": 10011,
          "time": 116.40697674418605,
          "velocity": 0.14173228346456693
        },
        {
          "duration": 0.24418604651162923,
          "durationTicks": 21,
          "midi": 72,
          "name": "C5",
          "ticks": 10012,
          "time": 116.4186046511628,
          "velocity": 0.13385826771653545
        },
        {
          "duration": 0.05813953488372192,
          "durationTicks": 5,
          "midi": 79,
          "name": "G5",
          "ticks": 10012,
          "time": 116.4186046511628,
          "velocity": 0.13385826771653545
        },
        {
          "duration": 0.11627906976744384,
          "durationTicks": 10,
          "midi": 81,
          "name": "A5",
          "ticks": 10012,
          "time": 116.4186046511628,
          "velocity": 0.09448818897637795
        },
        {
          "duration": 0.023255813953483084,
          "durationTicks": 2,
          "midi": 43,
          "name": "G2",
          "ticks": 10013,
          "time": 116.43023255813954,
          "velocity": 0.4015748031496063
        },
        {
          "duration": 0.023255813953483084,
          "durationTicks": 2,
          "midi": 54,
          "name": "F#3",
          "ticks": 10013,
          "time": 116.43023255813954,
          "velocity": 0.3543307086614173
        },
        {
          "duration": 0.24418604651162923,
          "durationTicks": 21,
          "midi": 60,
          "name": "C4",
          "ticks": 10015,
          "time": 116.45348837209302,
          "velocity": 0.29133858267716534
        },
        {
          "duration": 0.05813953488372192,
          "durationTicks": 5,
          "midi": 41,
          "name": "F2",
          "ticks": 10016,
          "time": 116.46511627906976,
          "velocity": 0.3543307086614173
        },
        {
          "duration": 0.255813953488385,
          "durationTicks": 22,
          "midi": 48,
          "name": "C3",
          "ticks": 10016,
          "time": 116.46511627906976,
          "velocity": 0.4409448818897638
        },
        {
          "duration": 0.05813953488372192,
          "durationTicks": 5,
          "midi": 75,
          "name": "D#5",
          "ticks": 10018,
          "time": 116.48837209302326,
          "velocity": 0.10236220472440945
        },
        {
          "duration": 0.06976744186046346,
          "durationTicks": 6,
          "midi": 98,
          "name": "D7",
          "ticks": 10019,
          "time": 116.5,
          "velocity": 0.1732283464566929
        },
        {
          "duration": 0.06976744186046346,
          "durationTicks": 6,
          "midi": 76,
          "name": "E5",
          "ticks": 10022,
          "time": 116.53488372093024,
          "velocity": 0.14173228346456693
        },
        {
          "duration": 0.16279069767441,
          "durationTicks": 14,
          "midi": 79,
          "name": "G5",
          "ticks": 10023,
          "time": 116.54651162790698,
          "velocity": 0.1889763779527559
        },
        {
          "duration": 0.12790697674418539,
          "durationTicks": 11,
          "midi": 67,
          "name": "G4",
          "ticks": 10024,
          "time": 116.55813953488372,
          "velocity": 0.2283464566929134
        },
        {
          "duration": 0.05813953488372192,
          "durationTicks": 5,
          "midi": 75,
          "name": "D#5",
          "ticks": 10025,
          "time": 116.56976744186046,
          "velocity": 0.10236220472440945
        },
        {
          "duration": 0.081395348837205,
          "durationTicks": 7,
          "midi": 84,
          "name": "C6",
          "ticks": 10025,
          "time": 116.56976744186046,
          "velocity": 0.1732283464566929
        },
        {
          "duration": 0.06976744186046346,
          "durationTicks": 6,
          "midi": 95,
          "name": "B6",
          "ticks": 10026,
          "time": 116.5813953488372,
          "velocity": 0.12598425196850394
        },
        {
          "duration": 0.081395348837205,
          "durationTicks": 7,
          "midi": 76,
          "name": "E5",
          "ticks": 10029,
          "time": 116.61627906976744,
          "velocity": 0.1732283464566929
        },
        {
          "duration": 0.03488372093023884,
          "durationTicks": 3,
          "midi": 54,
          "name": "F#3",
          "ticks": 10035,
          "time": 116.68604651162791,
          "velocity": 0.41732283464566927
        },
        {
          "duration": 0.023255813953483084,
          "durationTicks": 2,
          "midi": 55,
          "name": "G3",
          "ticks": 10038,
          "time": 116.72093023255815,
          "velocity": 0.4566929133858268
        },
        {
          "duration": 0.034883720930224626,
          "durationTicks": 3,
          "midi": 71,
          "name": "B4",
          "ticks": 10039,
          "time": 116.73255813953489,
          "velocity": 0.15748031496062992
        },
        {
          "duration": 0.023255813953483084,
          "durationTicks": 2,
          "midi": 56,
          "name": "G#3",
          "ticks": 10040,
          "time": 116.74418604651163,
          "velocity": 0.41732283464566927
        },
        {
          "duration": 0.04651162790698038,
          "durationTicks": 4,
          "midi": 74,
          "name": "D5",
          "ticks": 10040,
          "time": 116.74418604651163,
          "velocity": 0.2992125984251969
        },
        {
          "duration": 0.034883720930224626,
          "durationTicks": 3,
          "midi": 80,
          "name": "G#5",
          "ticks": 10040,
          "time": 116.74418604651163,
          "velocity": 0.11811023622047244
        },
        {
          "duration": 0.04651162790698038,
          "durationTicks": 4,
          "midi": 53,
          "name": "F3",
          "ticks": 10042,
          "time": 116.76744186046511,
          "velocity": 0.33858267716535434
        },
        {
          "duration": 0.05813953488372192,
          "durationTicks": 5,
          "midi": 70,
          "name": "A#4",
          "ticks": 10042,
          "time": 116.76744186046511,
          "velocity": 0.2204724409448819
        },
        {
          "duration": 0.04651162790698038,
          "durationTicks": 4,
          "midi": 72,
          "name": "C5",
          "ticks": 10043,
          "time": 116.77906976744185,
          "velocity": 0.1732283464566929
        },
        {
          "duration": 0.13953488372092693,
          "durationTicks": 12,
          "midi": 67,
          "name": "G4",
          "ticks": 10044,
          "time": 116.79069767441861,
          "velocity": 0.13385826771653545
        },
        {
          "duration": 0.12790697674418539,
          "durationTicks": 11,
          "midi": 60,
          "name": "C4",
          "ticks": 10045,
          "time": 116.80232558139535,
          "velocity": 0.4330708661417323
        },
        {
          "duration": 0.12790697674418539,
          "durationTicks": 11,
          "midi": 76,
          "name": "E5",
          "ticks": 10045,
          "time": 116.80232558139535,
          "velocity": 0.07874015748031496
        },
        {
          "duration": 0.023255813953483084,
          "durationTicks": 2,
          "midi": 54,
          "name": "F#3",
          "ticks": 10046,
          "time": 116.81395348837209,
          "velocity": 0.3858267716535433
        },
        {
          "duration": 0.04651162790698038,
          "durationTicks": 4,
          "midi": 100,
          "name": "E7",
          "ticks": 10046,
          "time": 116.81395348837209,
          "velocity": 0.07086614173228346
        },
        {
          "duration": 0.11627906976744384,
          "durationTicks": 10,
          "midi": 48,
          "name": "C3",
          "ticks": 10047,
          "time": 116.82558139534883,
          "velocity": 0.3700787401574803
        },
        {
          "duration": 0.09302325581396076,
          "durationTicks": 8,
          "midi": 95,
          "name": "B6",
          "ticks": 10048,
          "time": 116.83720930232558,
          "velocity": 0.08661417322834646
        },
        {
          "duration": 0.03488372093023884,
          "durationTicks": 3,
          "midi": 99,
          "name": "D#7",
          "ticks": 10048,
          "time": 116.83720930232558,
          "velocity": 0.07874015748031496
        },
        {
          "duration": 0.11627906976744384,
          "durationTicks": 10,
          "midi": 74,
          "name": "D5",
          "ticks": 10056,
          "time": 116.93023255813954,
          "velocity": 0.15748031496062992
        },
        {
          "duration": 0.05813953488372192,
          "durationTicks": 5,
          "midi": 50,
          "name": "D3",
          "ticks": 10057,
          "time": 116.94186046511628,
          "velocity": 0.3858267716535433
        },
        {
          "duration": 0.09302325581396076,
          "durationTicks": 8,
          "midi": 69,
          "name": "A4",
          "ticks": 10057,
          "time": 116.94186046511628,
          "velocity": 0.1732283464566929
        },
        {
          "duration": 0.081395348837205,
          "durationTicks": 7,
          "midi": 78,
          "name": "F#5",
          "ticks": 10057,
          "time": 116.94186046511628,
          "velocity": 0.11023622047244094
        },
        {
          "duration": 0.24418604651162923,
          "durationTicks": 21,
          "midi": 77,
          "name": "F5",
          "ticks": 10064,
          "time": 117.02325581395348,
          "velocity": 0.2283464566929134
        },
        {
          "duration": 0.3953488372092977,
          "durationTicks": 34,
          "midi": 65,
          "name": "F4",
          "ticks": 10065,
          "time": 117.03488372093024,
          "velocity": 0.3937007874015748
        },
        {
          "duration": 0.09302325581394655,
          "durationTicks": 8,
          "midi": 84,
          "name": "C6",
          "ticks": 10065,
          "time": 117.03488372093024,
          "velocity": 0.15748031496062992
        },
        {
          "duration": 0.023255813953483084,
          "durationTicks": 2,
          "midi": 52,
          "name": "E3",
          "ticks": 10066,
          "time": 117.04651162790698,
          "velocity": 0.44881889763779526
        },
        {
          "duration": 0.25581395348837077,
          "durationTicks": 22,
          "midi": 58,
          "name": "A#3",
          "ticks": 10066,
          "time": 117.04651162790698,
          "velocity": 0.4330708661417323
        },
        {
          "duration": 0.3139534883720927,
          "durationTicks": 27,
          "midi": 72,
          "name": "C5",
          "ticks": 10067,
          "time": 117.05813953488372,
          "velocity": 0.2677165354330709
        },
        {
          "duration": 0.48837209302325846,
          "durationTicks": 42,
          "midi": 81,
          "name": "A5",
          "ticks": 10067,
          "time": 117.05813953488372,
          "velocity": 0.2755905511811024
        },
        {
          "duration": 0.06976744186046346,
          "durationTicks": 6,
          "midi": 91,
          "name": "G6",
          "ticks": 10067,
          "time": 117.05813953488372,
          "velocity": 0.12598425196850394
        },
        {
          "duration": 0.023255813953483084,
          "durationTicks": 2,
          "midi": 45,
          "name": "A2",
          "ticks": 10068,
          "time": 117.06976744186046,
          "velocity": 0.41732283464566927
        },
        {
          "duration": 0.2325581395348877,
          "durationTicks": 20,
          "midi": 53,
          "name": "F3",
          "ticks": 10068,
          "time": 117.06976744186046,
          "velocity": 0.49606299212598426
        },
        {
          "duration": 0.04651162790698038,
          "durationTicks": 4,
          "midi": 98,
          "name": "D7",
          "ticks": 10069,
          "time": 117.0813953488372,
          "velocity": 0.23622047244094488
        },
        {
          "duration": 0.22093023255814614,
          "durationTicks": 19,
          "midi": 46,
          "name": "A#2",
          "ticks": 10070,
          "time": 117.09302325581395,
          "velocity": 0.4094488188976378
        },
        {
          "duration": 0.06976744186047767,
          "durationTicks": 6,
          "midi": 74,
          "name": "D5",
          "ticks": 10075,
          "time": 117.15116279069767,
          "velocity": 0.09448818897637795
        },
        {
          "duration": 0.03488372093023884,
          "durationTicks": 3,
          "midi": 98,
          "name": "D7",
          "ticks": 10075,
          "time": 117.15116279069767,
          "velocity": 0.14173228346456693
        },
        {
          "duration": 0.06976744186046346,
          "durationTicks": 6,
          "midi": 87,
          "name": "D#6",
          "ticks": 10078,
          "time": 117.18604651162791,
          "velocity": 0.07874015748031496
        },
        {
          "duration": 0.05813953488372192,
          "durationTicks": 5,
          "midi": 98,
          "name": "D7",
          "ticks": 10083,
          "time": 117.24418604651163,
          "velocity": 0.14960629921259844
        },
        {
          "duration": 0.023255813953483084,
          "durationTicks": 2,
          "midi": 54,
          "name": "F#3",
          "ticks": 10088,
          "time": 117.30232558139535,
          "velocity": 0.3937007874015748
        },
        {
          "duration": 0.24418604651162923,
          "durationTicks": 21,
          "midi": 58,
          "name": "A#3",
          "ticks": 10091,
          "time": 117.33720930232558,
          "velocity": 0.3779527559055118
        },
        {
          "duration": 0.05813953488372192,
          "durationTicks": 5,
          "midi": 45,
          "name": "A2",
          "ticks": 10092,
          "time": 117.34883720930233,
          "velocity": 0.44881889763779526
        },
        {
          "duration": 0.05813953488372192,
          "durationTicks": 5,
          "midi": 53,
          "name": "F3",
          "ticks": 10092,
          "time": 117.34883720930233,
          "velocity": 0.3543307086614173
        },
        {
          "duration": 0.04651162790698038,
          "durationTicks": 4,
          "midi": 72,
          "name": "C5",
          "ticks": 10096,
          "time": 117.3953488372093,
          "velocity": 0.16535433070866143
        },
        {
          "duration": 0.034883720930224626,
          "durationTicks": 3,
          "midi": 52,
          "name": "E3",
          "ticks": 10097,
          "time": 117.40697674418605,
          "velocity": 0.36220472440944884
        },
        {
          "duration": 0.12790697674418539,
          "durationTicks": 11,
          "midi": 62,
          "name": "D4",
          "ticks": 10099,
          "time": 117.43023255813954,
          "velocity": 0.4251968503937008
        },
        {
          "duration": 0.08139534883721922,
          "durationTicks": 7,
          "midi": 69,
          "name": "A4",
          "ticks": 10101,
          "time": 117.45348837209302,
          "velocity": 0.2755905511811024
        },
        {
          "duration": 0.09302325581396076,
          "durationTicks": 8,
          "midi": 72,
          "name": "C5",
          "ticks": 10106,
          "time": 117.51162790697674,
          "velocity": 0.11811023622047244
        },
        {
          "duration": 0.04651162790698038,
          "durationTicks": 4,
          "midi": 63,
          "name": "D#4",
          "ticks": 10110,
          "time": 117.55813953488372,
          "velocity": 0.4251968503937008
        },
        {
          "duration": 0.03488372093023884,
          "durationTicks": 3,
          "midi": 51,
          "name": "D#3",
          "ticks": 10111,
          "time": 117.56976744186046,
          "velocity": 0.3858267716535433
        },
        {
          "duration": 0.15116279069768268,
          "durationTicks": 13,
          "midi": 74,
          "name": "D5",
          "ticks": 10112,
          "time": 117.5813953488372,
          "velocity": 0.1968503937007874
        },
        {
          "duration": 0.2093023255814046,
          "durationTicks": 18,
          "midi": 58,
          "name": "A#3",
          "ticks": 10113,
          "time": 117.59302325581395,
          "velocity": 0.4015748031496063
        },
        {
          "duration": 0.1279069767441996,
          "durationTicks": 11,
          "midi": 81,
          "name": "A5",
          "ticks": 10113,
          "time": 117.59302325581395,
          "velocity": 0.1732283464566929
        },
        {
          "duration": 0.12790697674418539,
          "durationTicks": 11,
          "midi": 62,
          "name": "D4",
          "ticks": 10114,
          "time": 117.6046511627907,
          "velocity": 0.4094488188976378
        },
        {
          "duration": 0.1860465116279073,
          "durationTicks": 16,
          "midi": 78,
          "name": "F#5",
          "ticks": 10115,
          "time": 117.61627906976744,
          "velocity": 0.13385826771653545
        },
        {
          "duration": 0.06976744186046346,
          "durationTicks": 6,
          "midi": 69,
          "name": "A4",
          "ticks": 10117,
          "time": 117.63953488372093,
          "velocity": 0.09448818897637795
        },
        {
          "duration": 0.023255813953483084,
          "durationTicks": 2,
          "midi": 50,
          "name": "D3",
          "ticks": 10121,
          "time": 117.68604651162791,
          "velocity": 0.4409448818897638
        },
        {
          "duration": 0.023255813953483084,
          "durationTicks": 2,
          "midi": 54,
          "name": "F#3",
          "ticks": 10124,
          "time": 117.72093023255815,
          "velocity": 0.4330708661417323
        },
        {
          "duration": 0.04651162790696617,
          "durationTicks": 4,
          "midi": 63,
          "name": "D#4",
          "ticks": 10125,
          "time": 117.73255813953489,
          "velocity": 0.33858267716535434
        },
        {
          "duration": 0.011627906976741542,
          "durationTicks": 1,
          "midi": 53,
          "name": "F3",
          "ticks": 10126,
          "time": 117.74418604651163,
          "velocity": 0.5118110236220472
        },
        {
          "duration": 0.023255813953497295,
          "durationTicks": 2,
          "midi": 50,
          "name": "D3",
          "ticks": 10128,
          "time": 117.76744186046511,
          "velocity": 0.41732283464566927
        },
        {
          "duration": 0.023255813953483084,
          "durationTicks": 2,
          "midi": 47,
          "name": "B2",
          "ticks": 10132,
          "time": 117.81395348837209,
          "velocity": 0.23622047244094488
        },
        {
          "duration": 0.023255813953497295,
          "durationTicks": 2,
          "midi": 48,
          "name": "C3",
          "ticks": 10134,
          "time": 117.83720930232558,
          "velocity": 0.3464566929133858
        },
        {
          "duration": 0.034883720930224626,
          "durationTicks": 3,
          "midi": 70,
          "name": "A#4",
          "ticks": 10136,
          "time": 117.86046511627907,
          "velocity": 0.11811023622047244
        },
        {
          "duration": 0.05813953488372192,
          "durationTicks": 5,
          "midi": 46,
          "name": "A#2",
          "ticks": 10137,
          "time": 117.87209302325581,
          "velocity": 0.4330708661417323
        },
        {
          "duration": 0.09302325581394655,
          "durationTicks": 8,
          "midi": 65,
          "name": "F4",
          "ticks": 10137,
          "time": 117.87209302325581,
          "velocity": 0.2755905511811024
        },
        {
          "duration": 0.05813953488372192,
          "durationTicks": 5,
          "midi": 53,
          "name": "F3",
          "ticks": 10138,
          "time": 117.88372093023256,
          "velocity": 0.36220472440944884
        },
        {
          "duration": 0.03488372093023884,
          "durationTicks": 3,
          "midi": 46,
          "name": "A#2",
          "ticks": 10143,
          "time": 117.94186046511628,
          "velocity": 0.3779527559055118
        },
        {
          "duration": 0.04651162790698038,
          "durationTicks": 4,
          "midi": 91,
          "name": "G6",
          "ticks": 10144,
          "time": 117.95348837209302,
          "velocity": 0.14960629921259844
        },
        {
          "duration": 0.05813953488372192,
          "durationTicks": 5,
          "midi": 100,
          "name": "E7",
          "ticks": 10144,
          "time": 117.95348837209302,
          "velocity": 0.14960629921259844
        },
        {
          "duration": 0.05813953488372192,
          "durationTicks": 5,
          "midi": 102,
          "name": "F#7",
          "ticks": 10144,
          "time": 117.95348837209302,
          "velocity": 0.10236220472440945
        },
        {
          "duration": 0.03488372093023884,
          "durationTicks": 3,
          "midi": 55,
          "name": "G3",
          "ticks": 10145,
          "time": 117.96511627906976,
          "velocity": 0.5511811023622047
        },
        {
          "duration": 0.08139534883721922,
          "durationTicks": 7,
          "midi": 77,
          "name": "F5",
          "ticks": 10145,
          "time": 117.96511627906976,
          "velocity": 0.14960629921259844
        },
        {
          "duration": 0.12790697674418539,
          "durationTicks": 11,
          "midi": 83,
          "name": "B5",
          "ticks": 10145,
          "time": 117.96511627906976,
          "velocity": 0.14173228346456693
        },
        {
          "duration": 0.40697674418603924,
          "durationTicks": 35,
          "midi": 65,
          "name": "F4",
          "ticks": 10146,
          "time": 117.97674418604652,
          "velocity": 0.2992125984251969
        },
        {
          "duration": 0.17441860465115155,
          "durationTicks": 15,
          "midi": 74,
          "name": "D5",
          "ticks": 10146,
          "time": 117.97674418604652,
          "velocity": 0.28346456692913385
        },
        {
          "duration": 0.011627906976741542,
          "durationTicks": 1,
          "midi": 54,
          "name": "F#3",
          "ticks": 10148,
          "time": 118,
          "velocity": 0.5196850393700787
        },
        {
          "duration": 0.023255813953497295,
          "durationTicks": 2,
          "midi": 45,
          "name": "A2",
          "ticks": 10149,
          "time": 118.01162790697674,
          "velocity": 0.4015748031496063
        },
        {
          "duration": 0.05813953488372192,
          "durationTicks": 5,
          "midi": 91,
          "name": "G6",
          "ticks": 10150,
          "time": 118.02325581395348,
          "velocity": 0.11023622047244094
        },
        {
          "duration": 0.22093023255813193,
          "durationTicks": 19,
          "midi": 46,
          "name": "A#2",
          "ticks": 10151,
          "time": 118.03488372093024,
          "velocity": 0.3858267716535433
        },
        {
          "duration": 0.023255813953483084,
          "durationTicks": 2,
          "midi": 56,
          "name": "G#3",
          "ticks": 10153,
          "time": 118.05813953488372,
          "velocity": 0.3700787401574803
        },
        {
          "duration": 0.023255813953497295,
          "durationTicks": 2,
          "midi": 53,
          "name": "F3",
          "ticks": 10156,
          "time": 118.09302325581395,
          "velocity": 0.3937007874015748
        },
        {
          "duration": 0.03488372093023884,
          "durationTicks": 3,
          "midi": 68,
          "name": "G#4",
          "ticks": 10156,
          "time": 118.09302325581395,
          "velocity": 0.09448818897637795
        },
        {
          "duration": 0.03488372093023884,
          "durationTicks": 3,
          "midi": 80,
          "name": "G#5",
          "ticks": 10156,
          "time": 118.09302325581395,
          "velocity": 0.13385826771653545
        },
        {
          "duration": 0.023255813953483084,
          "durationTicks": 2,
          "midi": 57,
          "name": "A3",
          "ticks": 10158,
          "time": 118.11627906976744,
          "velocity": 0.41732283464566927
        },
        {
          "duration": 0.17441860465116577,
          "durationTicks": 15,
          "midi": 81,
          "name": "A5",
          "ticks": 10158,
          "time": 118.11627906976744,
          "velocity": 0.29133858267716534
        },
        {
          "duration": 0.081395348837205,
          "durationTicks": 7,
          "midi": 53,
          "name": "F3",
          "ticks": 10159,
          "time": 118.12790697674419,
          "velocity": 0.3464566929133858
        },
        {
          "duration": 0.023255813953483084,
          "durationTicks": 2,
          "midi": 58,
          "name": "A#3",
          "ticks": 10162,
          "time": 118.16279069767442,
          "velocity": 0.3937007874015748
        },
        {
          "duration": 0.13953488372094114,
          "durationTicks": 12,
          "midi": 72,
          "name": "C5",
          "ticks": 10166,
          "time": 118.20930232558139,
          "velocity": 0.2677165354330709
        },
        {
          "duration": 0.034883720930224626,
          "durationTicks": 3,
          "midi": 60,
          "name": "C4",
          "ticks": 10167,
          "time": 118.22093023255815,
          "velocity": 0.4251968503937008
        },
        {
          "duration": 0.12790697674418539,
          "durationTicks": 11,
          "midi": 79,
          "name": "G5",
          "ticks": 10167,
          "time": 118.22093023255815,
          "velocity": 0.16535433070866143
        },
        {
          "duration": 0.11627906976742963,
          "durationTicks": 10,
          "midi": 88,
          "name": "E6",
          "ticks": 10167,
          "time": 118.22093023255815,
          "velocity": 0.10236220472440945
        },
        {
          "duration": 0.034883720930224626,
          "durationTicks": 3,
          "midi": 55,
          "name": "G3",
          "ticks": 10168,
          "time": 118.23255813953489,
          "velocity": 0.3858267716535433
        },
        {
          "duration": 0.1046511627907023,
          "durationTicks": 9,
          "midi": 46,
          "name": "A#2",
          "ticks": 10171,
          "time": 118.26744186046511,
          "velocity": 0.4015748031496063
        },
        {
          "duration": 0.08139534883721922,
          "durationTicks": 7,
          "midi": 53,
          "name": "F3",
          "ticks": 10171,
          "time": 118.26744186046511,
          "velocity": 0.4015748031496063
        },
        {
          "duration": 0.023255813953497295,
          "durationTicks": 2,
          "midi": 60,
          "name": "C4",
          "ticks": 10171,
          "time": 118.26744186046511,
          "velocity": 0.3858267716535433
        },
        {
          "duration": 0.023255813953483084,
          "durationTicks": 2,
          "midi": 60,
          "name": "C4",
          "ticks": 10174,
          "time": 118.30232558139535,
          "velocity": 0.3779527559055118
        },
        {
          "duration": 0.15116279069766847,
          "durationTicks": 13,
          "midi": 76,
          "name": "E5",
          "ticks": 10179,
          "time": 118.36046511627907,
          "velocity": 0.2992125984251969
        },
        {
          "duration": 0.023255813953483084,
          "durationTicks": 2,
          "midi": 47,
          "name": "B2",
          "ticks": 10180,
          "time": 118.37209302325581,
          "velocity": 0.41732283464566927
        },
        {
          "duration": 0.081395348837205,
          "durationTicks": 7,
          "midi": 91,
          "name": "G6",
          "ticks": 10180,
          "time": 118.37209302325581,
          "velocity": 0.13385826771653545
        },
        {
          "duration": 0.023255813953497295,
          "durationTicks": 2,
          "midi": 58,
          "name": "A#3",
          "ticks": 10181,
          "time": 118.38372093023256,
          "velocity": 0.33070866141732286
        },
        {
          "duration": 0.1046511627907023,
          "durationTicks": 9,
          "midi": 69,
          "name": "A4",
          "ticks": 10181,
          "time": 118.38372093023256,
          "velocity": 0.2283464566929134
        },
        {
          "duration": 0.11627906976744384,
          "durationTicks": 10,
          "midi": 46,
          "name": "A#2",
          "ticks": 10182,
          "time": 118.3953488372093,
          "velocity": 0.4566929133858268
        },
        {
          "duration": 0.023255813953483084,
          "durationTicks": 2,
          "midi": 57,
          "name": "A3",
          "ticks": 10184,
          "time": 118.4186046511628,
          "velocity": 0.4330708661417323
        },
        {
          "duration": 0.10465116279068809,
          "durationTicks": 9,
          "midi": 72,
          "name": "C5",
          "ticks": 10190,
          "time": 118.48837209302326,
          "velocity": 0.3700787401574803
        },
        {
          "duration": 0.11627906976744384,
          "durationTicks": 10,
          "midi": 79,
          "name": "G5",
          "ticks": 10190,
          "time": 118.48837209302326,
          "velocity": 0.2204724409448819
        },
        {
          "duration": 0.03488372093023884,
          "durationTicks": 3,
          "midi": 56,
          "name": "G#3",
          "ticks": 10191,
          "time": 118.5,
          "velocity": 0.4409448818897638
        },
        {
          "duration": 0.15116279069766847,
          "durationTicks": 13,
          "midi": 65,
          "name": "F4",
          "ticks": 10191,
          "time": 118.5,
          "velocity": 0.2755905511811024
        },
        {
          "duration": 0.03488372093023884,
          "durationTicks": 3,
          "midi": 81,
          "name": "A5",
          "ticks": 10193,
          "time": 118.52325581395348,
          "velocity": 0.08661417322834646
        },
        {
          "duration": 0.034883720930224626,
          "durationTicks": 3,
          "midi": 45,
          "name": "A2",
          "ticks": 10194,
          "time": 118.53488372093024,
          "velocity": 0.41732283464566927
        },
        {
          "duration": 0.22093023255813193,
          "durationTicks": 19,
          "midi": 53,
          "name": "F3",
          "ticks": 10194,
          "time": 118.53488372093024,
          "velocity": 0.4881889763779528
        },
        {
          "duration": 0.2325581395348877,
          "durationTicks": 20,
          "midi": 46,
          "name": "A#2",
          "ticks": 10197,
          "time": 118.56976744186046,
          "velocity": 0.4015748031496063
        },
        {
          "duration": 0.023255813953497295,
          "durationTicks": 2,
          "midi": 61,
          "name": "C#4",
          "ticks": 10199,
          "time": 118.59302325581395,
          "velocity": 0.2283464566929134
        },
        {
          "duration": 0.08139534883721922,
          "durationTicks": 7,
          "midi": 71,
          "name": "B4",
          "ticks": 10199,
          "time": 118.59302325581395,
          "velocity": 0.2125984251968504
        },
        {
          "duration": 0.15116279069768268,
          "durationTicks": 13,
          "midi": 74,
          "name": "D5",
          "ticks": 10199,
          "time": 118.59302325581395,
          "velocity": 0.41732283464566927
        },
        {
          "duration": 0.15116279069766847,
          "durationTicks": 13,
          "midi": 81,
          "name": "A5",
          "ticks": 10201,
          "time": 118.61627906976744,
          "velocity": 0.3779527559055118
        },
        {
          "duration": 0.1046511627907023,
          "durationTicks": 9,
          "midi": 62,
          "name": "D4",
          "ticks": 10203,
          "time": 118.63953488372093,
          "velocity": 0.3464566929133858
        },
        {
          "duration": 0.09302325581394655,
          "durationTicks": 8,
          "midi": 77,
          "name": "F5",
          "ticks": 10206,
          "time": 118.67441860465117,
          "velocity": 0.10236220472440945
        },
        {
          "duration": 0.034883720930224626,
          "durationTicks": 3,
          "midi": 63,
          "name": "D#4",
          "ticks": 10212,
          "time": 118.74418604651163,
          "velocity": 0.3858267716535433
        },
        {
          "duration": 0.034883720930224626,
          "durationTicks": 3,
          "midi": 82,
          "name": "A#5",
          "ticks": 10212,
          "time": 118.74418604651163,
          "velocity": 0.11023622047244094
        },
        {
          "duration": 0.04651162790698038,
          "durationTicks": 4,
          "midi": 91,
          "name": "G6",
          "ticks": 10212,
          "time": 118.74418604651163,
          "velocity": 0.09448818897637795
        },
        {
          "duration": 0.04651162790698038,
          "durationTicks": 4,
          "midi": 72,
          "name": "C5",
          "ticks": 10214,
          "time": 118.76744186046511,
          "velocity": 0.14173228346456693
        },
        {
          "duration": 0.13953488372094114,
          "durationTicks": 12,
          "midi": 53,
          "name": "F3",
          "ticks": 10215,
          "time": 118.77906976744185,
          "velocity": 0.48031496062992124
        },
        {
          "duration": 0.1279069767441996,
          "durationTicks": 11,
          "midi": 64,
          "name": "E4",
          "ticks": 10215,
          "time": 118.77906976744185,
          "velocity": 0.3700787401574803
        },
        {
          "duration": 0.19767441860466306,
          "durationTicks": 17,
          "midi": 83,
          "name": "B5",
          "ticks": 10215,
          "time": 118.77906976744185,
          "velocity": 0.15748031496062992
        },
        {
          "duration": 0.09302325581396076,
          "durationTicks": 8,
          "midi": 89,
          "name": "F6",
          "ticks": 10215,
          "time": 118.77906976744185,
          "velocity": 0.11811023622047244
        },
        {
          "duration": 0.2093023255814046,
          "durationTicks": 18,
          "midi": 98,
          "name": "D7",
          "ticks": 10215,
          "time": 118.77906976744185,
          "velocity": 0.18110236220472442
        },
        {
          "duration": 0.06976744186046346,
          "durationTicks": 6,
          "midi": 74,
          "name": "D5",
          "ticks": 10217,
          "time": 118.80232558139535,
          "velocity": 0.15748031496062992
        },
        {
          "duration": 0.023255813953497295,
          "durationTicks": 2,
          "midi": 45,
          "name": "A2",
          "ticks": 10220,
          "time": 118.83720930232558,
          "velocity": 0.41732283464566927
        },
        {
          "duration": 0.081395348837205,
          "durationTicks": 7,
          "midi": 46,
          "name": "A#2",
          "ticks": 10222,
          "time": 118.86046511627907,
          "velocity": 0.4251968503937008
        },
        {
          "duration": 0.11627906976744384,
          "durationTicks": 10,
          "midi": 79,
          "name": "G5",
          "ticks": 10224,
          "time": 118.88372093023256,
          "velocity": 0.23622047244094488
        },
        {
          "duration": 0.04651162790698038,
          "durationTicks": 4,
          "midi": 101,
          "name": "F7",
          "ticks": 10225,
          "time": 118.8953488372093,
          "velocity": 0.07086614173228346
        },
        {
          "duration": 0.023255813953483084,
          "durationTicks": 2,
          "midi": 54,
          "name": "F#3",
          "ticks": 10227,
          "time": 118.9186046511628,
          "velocity": 0.3779527559055118
        },
        {
          "duration": 0.034883720930224626,
          "durationTicks": 3,
          "midi": 64,
          "name": "E4",
          "ticks": 10227,
          "time": 118.9186046511628,
          "velocity": 0.3228346456692913
        },
        {
          "duration": 0.081395348837205,
          "durationTicks": 7,
          "midi": 53,
          "name": "F3",
          "ticks": 10229,
          "time": 118.94186046511628,
          "velocity": 0.33070866141732286
        },
        {
          "duration": 0.06976744186046346,
          "durationTicks": 6,
          "midi": 46,
          "name": "A#2",
          "ticks": 10230,
          "time": 118.95348837209302,
          "velocity": 0.41732283464566927
        },
        {
          "duration": 0.05813953488372192,
          "durationTicks": 5,
          "midi": 71,
          "name": "B4",
          "ticks": 10233,
          "time": 118.98837209302326,
          "velocity": 0.1732283464566929
        },
        {
          "duration": 0.13953488372092693,
          "durationTicks": 12,
          "midi": 76,
          "name": "E5",
          "ticks": 10234,
          "time": 119,
          "velocity": 0.3779527559055118
        },
        {
          "duration": 0.023255813953497295,
          "durationTicks": 2,
          "midi": 59,
          "name": "B3",
          "ticks": 10235,
          "time": 119.01162790697674,
          "velocity": 0.28346456692913385
        },
        {
          "duration": 0.081395348837205,
          "durationTicks": 7,
          "midi": 83,
          "name": "B5",
          "ticks": 10235,
          "time": 119.01162790697674,
          "velocity": 0.3700787401574803
        },
        {
          "duration": 0.1046511627907023,
          "durationTicks": 9,
          "midi": 98,
          "name": "D7",
          "ticks": 10235,
          "time": 119.01162790697674,
          "velocity": 0.2677165354330709
        },
        {
          "duration": 0.08139534883721922,
          "durationTicks": 7,
          "midi": 64,
          "name": "E4",
          "ticks": 10236,
          "time": 119.02325581395348,
          "velocity": 0.3464566929133858
        },
        {
          "duration": 0.023255813953483084,
          "durationTicks": 2,
          "midi": 54,
          "name": "F#3",
          "ticks": 10237,
          "time": 119.03488372093024,
          "velocity": 0.3228346456692913
        },
        {
          "duration": 0.034883720930224626,
          "durationTicks": 3,
          "midi": 45,
          "name": "A2",
          "ticks": 10238,
          "time": 119.04651162790698,
          "velocity": 0.1889763779527559
        },
        {
          "duration": 0.1046511627907023,
          "durationTicks": 9,
          "midi": 55,
          "name": "G3",
          "ticks": 10239,
          "time": 119.05813953488372,
          "velocity": 0.4015748031496063
        },
        {
          "duration": 0.034883720930224626,
          "durationTicks": 3,
          "midi": 64,
          "name": "E4",
          "ticks": 10244,
          "time": 119.11627906976744,
          "velocity": 0.2204724409448819
        },
        {
          "duration": 0.03488372093023884,
          "durationTicks": 3,
          "midi": 77,
          "name": "F5",
          "ticks": 10246,
          "time": 119.13953488372093,
          "velocity": 0.25984251968503935
        },
        {
          "duration": 0.09302325581396076,
          "durationTicks": 8,
          "midi": 99,
          "name": "D#7",
          "ticks": 10246,
          "time": 119.13953488372093,
          "velocity": 0.18110236220472442
        },
        {
          "duration": 0.03488372093023884,
          "durationTicks": 3,
          "midi": 65,
          "name": "F4",
          "ticks": 10247,
          "time": 119.15116279069767,
          "velocity": 0.28346456692913385
        },
        {
          "duration": 0.2325581395348877,
          "durationTicks": 20,
          "midi": 76,
          "name": "E5",
          "ticks": 10247,
          "time": 119.15116279069767,
          "velocity": 0.2204724409448819
        },
        {
          "duration": 0.023255813953483084,
          "durationTicks": 2,
          "midi": 56,
          "name": "G#3",
          "ticks": 10248,
          "time": 119.16279069767442,
          "velocity": 0.25196850393700787
        },
        {
          "duration": 0.10465116279068809,
          "durationTicks": 9,
          "midi": 82,
          "name": "A#5",
          "ticks": 10249,
          "time": 119.17441860465117,
          "velocity": 0.12598425196850394
        },
        {
          "duration": 0.04651162790698038,
          "durationTicks": 4,
          "midi": 83,
          "name": "B5",
          "ticks": 10249,
          "time": 119.17441860465117,
          "velocity": 0.07086614173228346
        },
        {
          "duration": 0.034883720930224626,
          "durationTicks": 3,
          "midi": 86,
          "name": "D6",
          "ticks": 10249,
          "time": 119.17441860465117,
          "velocity": 0.16535433070866143
        },
        {
          "duration": 0.05813953488372192,
          "durationTicks": 5,
          "midi": 96,
          "name": "C7",
          "ticks": 10249,
          "time": 119.17441860465117,
          "velocity": 0.09448818897637795
        },
        {
          "duration": 0.2325581395348877,
          "durationTicks": 20,
          "midi": 55,
          "name": "G3",
          "ticks": 10250,
          "time": 119.18604651162791,
          "velocity": 0.4881889763779528
        },
        {
          "duration": 0.1046511627907023,
          "durationTicks": 9,
          "midi": 60,
          "name": "C4",
          "ticks": 10250,
          "time": 119.18604651162791,
          "velocity": 0.3937007874015748
        },
        {
          "duration": 0.06976744186046346,
          "durationTicks": 6,
          "midi": 65,
          "name": "F4",
          "ticks": 10251,
          "time": 119.19767441860465,
          "velocity": 0.1889763779527559
        },
        {
          "duration": 0.09302325581396076,
          "durationTicks": 8,
          "midi": 97,
          "name": "C#7",
          "ticks": 10251,
          "time": 119.19767441860465,
          "velocity": 0.10236220472440945
        },
        {
          "duration": 0.04651162790698038,
          "durationTicks": 4,
          "midi": 84,
          "name": "C6",
          "ticks": 10252,
          "time": 119.20930232558139,
          "velocity": 0.12598425196850394
        },
        {
          "duration": 0.023255813953483084,
          "durationTicks": 2,
          "midi": 48,
          "name": "C3",
          "ticks": 10254,
          "time": 119.23255813953489,
          "velocity": 0.3543307086614173
        },
        {
          "duration": 0.05813953488372192,
          "durationTicks": 5,
          "midi": 86,
          "name": "D6",
          "ticks": 10255,
          "time": 119.24418604651163,
          "velocity": 0.14173228346456693
        },
        {
          "duration": 0.15116279069768268,
          "durationTicks": 13,
          "midi": 48,
          "name": "C3",
          "ticks": 10257,
          "time": 119.26744186046511,
          "velocity": 0.3464566929133858
        },
        {
          "duration": 0.15116279069768268,
          "durationTicks": 13,
          "midi": 74,
          "name": "D5",
          "ticks": 10257,
          "time": 119.26744186046511,
          "velocity": 0.4015748031496063
        },
        {
          "duration": 0.11627906976744384,
          "durationTicks": 10,
          "midi": 83,
          "name": "B5",
          "ticks": 10257,
          "time": 119.26744186046511,
          "velocity": 0.11023622047244094
        },
        {
          "duration": 0.11627906976744384,
          "durationTicks": 10,
          "midi": 81,
          "name": "A5",
          "ticks": 10258,
          "time": 119.27906976744185,
          "velocity": 0.3779527559055118
        },
        {
          "duration": 0.1860465116279073,
          "durationTicks": 16,
          "midi": 79,
          "name": "G5",
          "ticks": 10259,
          "time": 119.29069767441861,
          "velocity": 0.09448818897637795
        },
        {
          "duration": 0.023255813953483084,
          "durationTicks": 2,
          "midi": 62,
          "name": "D4",
          "ticks": 10260,
          "time": 119.30232558139535,
          "velocity": 0.36220472440944884
        },
        {
          "duration": 0.023255813953497295,
          "durationTicks": 2,
          "midi": 62,
          "name": "D4",
          "ticks": 10263,
          "time": 119.33720930232558,
          "velocity": 0.33858267716535434
        },
        {
          "duration": 0.05813953488372192,
          "durationTicks": 5,
          "midi": 60,
          "name": "C4",
          "ticks": 10266,
          "time": 119.37209302325581,
          "velocity": 0.3543307086614173
        },
        {
          "duration": 0.12790697674418539,
          "durationTicks": 11,
          "midi": 83,
          "name": "B5",
          "ticks": 10268,
          "time": 119.3953488372093,
          "velocity": 0.3228346456692913
        },
        {
          "duration": 0.03488372093023884,
          "durationTicks": 3,
          "midi": 88,
          "name": "E6",
          "ticks": 10268,
          "time": 119.3953488372093,
          "velocity": 0.12598425196850394
        },
        {
          "duration": 0.11627906976744384,
          "durationTicks": 10,
          "midi": 98,
          "name": "D7",
          "ticks": 10268,
          "time": 119.3953488372093,
          "velocity": 0.2125984251968504
        },
        {
          "duration": 0.09302325581396076,
          "durationTicks": 8,
          "midi": 102,
          "name": "F#7",
          "ticks": 10268,
          "time": 119.3953488372093,
          "velocity": 0.18110236220472442
        },
        {
          "duration": 0.10465116279068809,
          "durationTicks": 9,
          "midi": 64,
          "name": "E4",
          "ticks": 10269,
          "time": 119.40697674418605,
          "velocity": 0.1968503937007874
        },
        {
          "duration": 0.10465116279068809,
          "durationTicks": 9,
          "midi": 76,
          "name": "E5",
          "ticks": 10269,
          "time": 119.40697674418605,
          "velocity": 0.2440944881889764
        },
        {
          "duration": 0.2325581395348877,
          "durationTicks": 20,
          "midi": 55,
          "name": "G3",
          "ticks": 10271,
          "time": 119.43023255813954,
          "velocity": 0.4881889763779528
        },
        {
          "duration": 0.22093023255814614,
          "durationTicks": 19,
          "midi": 60,
          "name": "C4",
          "ticks": 10273,
          "time": 119.45348837209302,
          "velocity": 0.30708661417322836
        },
        {
          "duration": 0.17441860465116577,
          "durationTicks": 15,
          "midi": 48,
          "name": "C3",
          "ticks": 10276,
          "time": 119.48837209302326,
          "velocity": 0.36220472440944884
        },
        {
          "duration": 0.081395348837205,
          "durationTicks": 7,
          "midi": 77,
          "name": "F5",
          "ticks": 10278,
          "time": 119.51162790697674,
          "velocity": 0.2204724409448819
        },
        {
          "duration": 0.1046511627907023,
          "durationTicks": 9,
          "midi": 83,
          "name": "B5",
          "ticks": 10284,
          "time": 119.5813953488372,
          "velocity": 0.23622047244094488
        },
        {
          "duration": 0.08139534883721922,
          "durationTicks": 7,
          "midi": 64,
          "name": "E4",
          "ticks": 10285,
          "time": 119.59302325581395,
          "velocity": 0.25196850393700787
        },
        {
          "duration": 0.16279069767442422,
          "durationTicks": 14,
          "midi": 74,
          "name": "D5",
          "ticks": 10290,
          "time": 119.65116279069767,
          "velocity": 0.15748031496062992
        },
        {
          "duration": 0.13953488372092693,
          "durationTicks": 12,
          "midi": 48,
          "name": "C3",
          "ticks": 10292,
          "time": 119.67441860465117,
          "velocity": 0.44881889763779526
        },
        {
          "duration": 0.17441860465116577,
          "durationTicks": 15,
          "midi": 76,
          "name": "E5",
          "ticks": 10301,
          "time": 119.77906976744185,
          "velocity": 0.30708661417322836
        },
        {
          "duration": 0.15116279069768268,
          "durationTicks": 13,
          "midi": 83,
          "name": "B5",
          "ticks": 10301,
          "time": 119.77906976744185,
          "velocity": 0.3700787401574803
        },
        {
          "duration": 0.1279069767441996,
          "durationTicks": 11,
          "midi": 98,
          "name": "D7",
          "ticks": 10301,
          "time": 119.77906976744185,
          "velocity": 0.2125984251968504
        },
        {
          "duration": 0.11627906976744384,
          "durationTicks": 10,
          "midi": 64,
          "name": "E4",
          "ticks": 10302,
          "time": 119.79069767441861,
          "velocity": 0.29133858267716534
        },
        {
          "duration": 0.10465116279068809,
          "durationTicks": 9,
          "midi": 102,
          "name": "F#7",
          "ticks": 10302,
          "time": 119.79069767441861,
          "velocity": 0.16535433070866143
        },
        {
          "duration": 0.09302325581396076,
          "durationTicks": 8,
          "midi": 48,
          "name": "C3",
          "ticks": 10305,
          "time": 119.82558139534883,
          "velocity": 0.3937007874015748
        },
        {
          "duration": 0.13953488372092693,
          "durationTicks": 12,
          "midi": 74,
          "name": "D5",
          "ticks": 10313,
          "time": 119.9186046511628,
          "velocity": 0.3779527559055118
        },
        {
          "duration": 0.11627906976744384,
          "durationTicks": 10,
          "midi": 81,
          "name": "A5",
          "ticks": 10313,
          "time": 119.9186046511628,
          "velocity": 0.31496062992125984
        },
        {
          "duration": 0.1046511627907023,
          "durationTicks": 9,
          "midi": 55,
          "name": "G3",
          "ticks": 10314,
          "time": 119.93023255813954,
          "velocity": 0.36220472440944884
        },
        {
          "duration": 0.023255813953483084,
          "durationTicks": 2,
          "midi": 62,
          "name": "D4",
          "ticks": 10314,
          "time": 119.93023255813954,
          "velocity": 0.36220472440944884
        },
        {
          "duration": 0.04651162790698038,
          "durationTicks": 4,
          "midi": 98,
          "name": "D7",
          "ticks": 10314,
          "time": 119.93023255813954,
          "velocity": 0.07086614173228346
        },
        {
          "duration": 0.023255813953497295,
          "durationTicks": 2,
          "midi": 62,
          "name": "D4",
          "ticks": 10317,
          "time": 119.96511627906976,
          "velocity": 0.30708661417322836
        },
        {
          "duration": 0.06976744186046346,
          "durationTicks": 6,
          "midi": 48,
          "name": "C3",
          "ticks": 10319,
          "time": 119.98837209302326,
          "velocity": 0.3543307086614173
        },
        {
          "duration": 0.023255813953483084,
          "durationTicks": 2,
          "midi": 55,
          "name": "G3",
          "ticks": 10324,
          "time": 120.04651162790698,
          "velocity": 0.4330708661417323
        },
        {
          "duration": 0.25581395348837077,
          "durationTicks": 22,
          "midi": 76,
          "name": "E5",
          "ticks": 10325,
          "time": 120.05813953488372,
          "velocity": 0.2755905511811024
        },
        {
          "duration": 0.09302325581394655,
          "durationTicks": 8,
          "midi": 81,
          "name": "A5",
          "ticks": 10325,
          "time": 120.05813953488372,
          "velocity": 0.14960629921259844
        },
        {
          "duration": 0.09302325581394655,
          "durationTicks": 8,
          "midi": 91,
          "name": "G6",
          "ticks": 10325,
          "time": 120.05813953488372,
          "velocity": 0.14173228346456693
        },
        {
          "duration": 0.06976744186046346,
          "durationTicks": 6,
          "midi": 99,
          "name": "D#7",
          "ticks": 10325,
          "time": 120.05813953488372,
          "velocity": 0.11023622047244094
        },
        {
          "duration": 0.04651162790698038,
          "durationTicks": 4,
          "midi": 100,
          "name": "E7",
          "ticks": 10325,
          "time": 120.05813953488372,
          "velocity": 0.10236220472440945
        },
        {
          "duration": 0.09302325581396076,
          "durationTicks": 8,
          "midi": 69,
          "name": "A4",
          "ticks": 10326,
          "time": 120.06976744186046,
          "velocity": 0.18110236220472442
        },
        {
          "duration": 0.2674418604651265,
          "durationTicks": 23,
          "midi": 48,
          "name": "C3",
          "ticks": 10327,
          "time": 120.0813953488372,
          "velocity": 0.3858267716535433
        },
        {
          "duration": 0.24418604651162923,
          "durationTicks": 21,
          "midi": 55,
          "name": "G3",
          "ticks": 10327,
          "time": 120.0813953488372,
          "velocity": 0.5511811023622047
        },
        {
          "duration": 0.22093023255813193,
          "durationTicks": 19,
          "midi": 79,
          "name": "G5",
          "ticks": 10330,
          "time": 120.11627906976744,
          "velocity": 0.07086614173228346
        },
        {
          "duration": 0.13953488372092693,
          "durationTicks": 12,
          "midi": 74,
          "name": "D5",
          "ticks": 10336,
          "time": 120.18604651162791,
          "velocity": 0.33070866141732286
        },
        {
          "duration": 0.11627906976744384,
          "durationTicks": 10,
          "midi": 81,
          "name": "A5",
          "ticks": 10336,
          "time": 120.18604651162791,
          "velocity": 0.2677165354330709
        },
        {
          "duration": 0.04651162790698038,
          "durationTicks": 4,
          "midi": 62,
          "name": "D4",
          "ticks": 10338,
          "time": 120.20930232558139,
          "velocity": 0.3228346456692913
        },
        {
          "duration": 0.023255813953497295,
          "durationTicks": 2,
          "midi": 62,
          "name": "D4",
          "ticks": 10343,
          "time": 120.26744186046511,
          "velocity": 0.2755905511811024
        },
        {
          "duration": 0.1046511627907023,
          "durationTicks": 9,
          "midi": 64,
          "name": "E4",
          "ticks": 10347,
          "time": 120.31395348837209,
          "velocity": 0.25196850393700787
        },
        {
          "duration": 0.11627906976744384,
          "durationTicks": 10,
          "midi": 83,
          "name": "B5",
          "ticks": 10347,
          "time": 120.31395348837209,
          "velocity": 0.33858267716535434
        },
        {
          "duration": 0.1046511627907023,
          "durationTicks": 9,
          "midi": 88,
          "name": "E6",
          "ticks": 10347,
          "time": 120.31395348837209,
          "velocity": 0.1732283464566929
        },
        {
          "duration": 0.11627906976744384,
          "durationTicks": 10,
          "midi": 98,
          "name": "D7",
          "ticks": 10347,
          "time": 120.31395348837209,
          "velocity": 0.23622047244094488
        },
        {
          "duration": 0.12790697674418539,
          "durationTicks": 11,
          "midi": 76,
          "name": "E5",
          "ticks": 10348,
          "time": 120.32558139534883,
          "velocity": 0.29133858267716534
        },
        {
          "duration": 0.023255813953483084,
          "durationTicks": 2,
          "midi": 49,
          "name": "C#3",
          "ticks": 10350,
          "time": 120.34883720930233,
          "velocity": 0.33070866141732286
        },
        {
          "duration": 0.10465116279068809,
          "durationTicks": 9,
          "midi": 55,
          "name": "G3",
          "ticks": 10350,
          "time": 120.34883720930233,
          "velocity": 0.48031496062992124
        },
        {
          "duration": 0.023255813953483084,
          "durationTicks": 2,
          "midi": 48,
          "name": "C3",
          "ticks": 10352,
          "time": 120.37209302325581,
          "velocity": 0.36220472440944884
        },
        {
          "duration": 0.04651162790696617,
          "durationTicks": 4,
          "midi": 48,
          "name": "C3",
          "ticks": 10355,
          "time": 120.40697674418605,
          "velocity": 0.3779527559055118
        },
        {
          "duration": 0.1046511627907023,
          "durationTicks": 9,
          "midi": 77,
          "name": "F5",
          "ticks": 10358,
          "time": 120.44186046511628,
          "velocity": 0.2755905511811024
        },
        {
          "duration": 0.1046511627907023,
          "durationTicks": 9,
          "midi": 84,
          "name": "C6",
          "ticks": 10358,
          "time": 120.44186046511628,
          "velocity": 0.2125984251968504
        },
        {
          "duration": 0.06976744186046346,
          "durationTicks": 6,
          "midi": 99,
          "name": "D#7",
          "ticks": 10359,
          "time": 120.45348837209302,
          "velocity": 0.1732283464566929
        },
        {
          "duration": 0.08139534883721922,
          "durationTicks": 7,
          "midi": 65,
          "name": "F4",
          "ticks": 10360,
          "time": 120.46511627906976,
          "velocity": 0.1889763779527559
        },
        {
          "duration": 0.04651162790696617,
          "durationTicks": 4,
          "midi": 55,
          "name": "G3",
          "ticks": 10361,
          "time": 120.47674418604652,
          "velocity": 0.4330708661417323
        },
        {
          "duration": 0.023255813953483084,
          "durationTicks": 2,
          "midi": 49,
          "name": "C#3",
          "ticks": 10362,
          "time": 120.48837209302326,
          "velocity": 0.2755905511811024
        },
        {
          "duration": 0.09302325581394655,
          "durationTicks": 8,
          "midi": 60,
          "name": "C4",
          "ticks": 10363,
          "time": 120.5,
          "velocity": 0.2755905511811024
        },
        {
          "duration": 0.09302325581396076,
          "durationTicks": 8,
          "midi": 48,
          "name": "C3",
          "ticks": 10364,
          "time": 120.51162790697674,
          "velocity": 0.3228346456692913
        },
        {
          "duration": 0.05813953488372192,
          "durationTicks": 5,
          "midi": 56,
          "name": "G#3",
          "ticks": 10367,
          "time": 120.54651162790698,
          "velocity": 0.4645669291338583
        },
        {
          "duration": 0.03488372093023884,
          "durationTicks": 3,
          "midi": 74,
          "name": "D5",
          "ticks": 10369,
          "time": 120.56976744186046,
          "velocity": 0.2047244094488189
        },
        {
          "duration": 0.03488372093023884,
          "durationTicks": 3,
          "midi": 78,
          "name": "F#5",
          "ticks": 10369,
          "time": 120.56976744186046,
          "velocity": 0.2204724409448819
        },
        {
          "duration": 0.12790697674418539,
          "durationTicks": 11,
          "midi": 67,
          "name": "G4",
          "ticks": 10370,
          "time": 120.5813953488372,
          "velocity": 0.2204724409448819
        },
        {
          "duration": 0.08139534883721922,
          "durationTicks": 7,
          "midi": 101,
          "name": "F7",
          "ticks": 10370,
          "time": 120.5813953488372,
          "velocity": 0.16535433070866143
        },
        {
          "duration": 0.25581395348837077,
          "durationTicks": 22,
          "midi": 55,
          "name": "G3",
          "ticks": 10372,
          "time": 120.6046511627907,
          "velocity": 0.5039370078740157
        },
        {
          "duration": 0.24418604651162923,
          "durationTicks": 21,
          "midi": 60,
          "name": "C4",
          "ticks": 10372,
          "time": 120.6046511627907,
          "velocity": 0.31496062992125984
        },
        {
          "duration": 0.09302325581394655,
          "durationTicks": 8,
          "midi": 79,
          "name": "G5",
          "ticks": 10372,
          "time": 120.6046511627907,
          "velocity": 0.36220472440944884
        },
        {
          "duration": 0.19767441860464885,
          "durationTicks": 17,
          "midi": 89,
          "name": "F6",
          "ticks": 10372,
          "time": 120.6046511627907,
          "velocity": 0.11811023622047244
        },
        {
          "duration": 0.4534883720930196,
          "durationTicks": 39,
          "midi": 76,
          "name": "E5",
          "ticks": 10373,
          "time": 120.61627906976744,
          "velocity": 0.1968503937007874
        },
        {
          "duration": 0.081395348837205,
          "durationTicks": 7,
          "midi": 95,
          "name": "B6",
          "ticks": 10373,
          "time": 120.61627906976744,
          "velocity": 0.11023622047244094
        },
        {
          "duration": 0.04651162790696617,
          "durationTicks": 4,
          "midi": 48,
          "name": "C3",
          "ticks": 10377,
          "time": 120.66279069767442,
          "velocity": 0.2992125984251969
        },
        {
          "duration": 0.17441860465116577,
          "durationTicks": 15,
          "midi": 79,
          "name": "G5",
          "ticks": 10381,
          "time": 120.70930232558139,
          "velocity": 0.13385826771653545
        },
        {
          "duration": 0.12790697674418539,
          "durationTicks": 11,
          "midi": 81,
          "name": "A5",
          "ticks": 10381,
          "time": 120.70930232558139,
          "velocity": 0.3937007874015748
        },
        {
          "duration": 0.12790697674418539,
          "durationTicks": 11,
          "midi": 69,
          "name": "A4",
          "ticks": 10382,
          "time": 120.72093023255815,
          "velocity": 0.2992125984251969
        },
        {
          "duration": 0.081395348837205,
          "durationTicks": 7,
          "midi": 100,
          "name": "E7",
          "ticks": 10382,
          "time": 120.72093023255815,
          "velocity": 0.15748031496062992
        },
        {
          "duration": 0.09302325581394655,
          "durationTicks": 8,
          "midi": 103,
          "name": "G7",
          "ticks": 10382,
          "time": 120.72093023255815,
          "velocity": 0.13385826771653545
        },
        {
          "duration": 0.11627906976744384,
          "durationTicks": 10,
          "midi": 48,
          "name": "C3",
          "ticks": 10384,
          "time": 120.74418604651163,
          "velocity": 0.2992125984251969
        },
        {
          "duration": 0.10465116279068809,
          "durationTicks": 9,
          "midi": 70,
          "name": "A#4",
          "ticks": 10393,
          "time": 120.84883720930233,
          "velocity": 0.2047244094488189
        },
        {
          "duration": 0.10465116279068809,
          "durationTicks": 9,
          "midi": 82,
          "name": "A#5",
          "ticks": 10393,
          "time": 120.84883720930233,
          "velocity": 0.30708661417322836
        },
        {
          "duration": 0.11627906976744384,
          "durationTicks": 10,
          "midi": 89,
          "name": "F6",
          "ticks": 10394,
          "time": 120.86046511627907,
          "velocity": 0.18110236220472442
        },
        {
          "duration": 0.11627906976744384,
          "durationTicks": 10,
          "midi": 55,
          "name": "G3",
          "ticks": 10395,
          "time": 120.87209302325581,
          "velocity": 0.5039370078740157
        },
        {
          "duration": 0.1046511627907023,
          "durationTicks": 9,
          "midi": 60,
          "name": "C4",
          "ticks": 10395,
          "time": 120.87209302325581,
          "velocity": 0.25984251968503935
        },
        {
          "duration": 0.05813953488372192,
          "durationTicks": 5,
          "midi": 98,
          "name": "D7",
          "ticks": 10396,
          "time": 120.88372093023256,
          "velocity": 0.08661417322834646
        },
        {
          "duration": 0.05813953488372192,
          "durationTicks": 5,
          "midi": 48,
          "name": "C3",
          "ticks": 10400,
          "time": 120.93023255813954,
          "velocity": 0.31496062992125984
        },
        {
          "duration": 0.11627906976744384,
          "durationTicks": 10,
          "midi": 71,
          "name": "B4",
          "ticks": 10403,
          "time": 120.96511627906976,
          "velocity": 0.4330708661417323
        },
        {
          "duration": 0.11627906976744384,
          "durationTicks": 10,
          "midi": 90,
          "name": "F#6",
          "ticks": 10403,
          "time": 120.96511627906976,
          "velocity": 0.2283464566929134
        },
        {
          "duration": 0.05813953488372192,
          "durationTicks": 5,
          "midi": 53,
          "name": "F3",
          "ticks": 10406,
          "time": 121,
          "velocity": 0.3700787401574803
        },
        {
          "duration": 0.06976744186046346,
          "durationTicks": 6,
          "midi": 60,
          "name": "C4",
          "ticks": 10406,
          "time": 121,
          "velocity": 0.23622047244094488
        },
        {
          "duration": 0.06976744186046346,
          "durationTicks": 6,
          "midi": 48,
          "name": "C3",
          "ticks": 10407,
          "time": 121.01162790697674,
          "velocity": 0.33070866141732286
        },
        {
          "duration": 0.034883720930224626,
          "durationTicks": 3,
          "midi": 99,
          "name": "D#7",
          "ticks": 10410,
          "time": 121.04651162790698,
          "velocity": 0.11023622047244094
        },
        {
          "duration": 0.023255813953497295,
          "durationTicks": 2,
          "midi": 47,
          "name": "B2",
          "ticks": 10413,
          "time": 121.0813953488372,
          "velocity": 0.33070866141732286
        },
        {
          "duration": 0.03488372093023884,
          "durationTicks": 3,
          "midi": 54,
          "name": "F#3",
          "ticks": 10413,
          "time": 121.0813953488372,
          "velocity": 0.30708661417322836
        },
        {
          "duration": 0.034883720930224626,
          "durationTicks": 3,
          "midi": 71,
          "name": "B4",
          "ticks": 10415,
          "time": 121.1046511627907,
          "velocity": 0.28346456692913385
        },
        {
          "duration": 0.11627906976744384,
          "durationTicks": 10,
          "midi": 91,
          "name": "G6",
          "ticks": 10415,
          "time": 121.1046511627907,
          "velocity": 0.15748031496062992
        },
        {
          "duration": 0.1046511627907023,
          "durationTicks": 9,
          "midi": 62,
          "name": "D4",
          "ticks": 10416,
          "time": 121.11627906976744,
          "velocity": 0.16535433070866143
        },
        {
          "duration": 0.11627906976744384,
          "durationTicks": 10,
          "midi": 84,
          "name": "C6",
          "ticks": 10416,
          "time": 121.11627906976744,
          "velocity": 0.25196850393700787
        },
        {
          "duration": 0.1046511627907023,
          "durationTicks": 9,
          "midi": 100,
          "name": "E7",
          "ticks": 10416,
          "time": 121.11627906976744,
          "velocity": 0.1732283464566929
        },
        {
          "duration": 0.12790697674418539,
          "durationTicks": 11,
          "midi": 45,
          "name": "A2",
          "ticks": 10417,
          "time": 121.12790697674419,
          "velocity": 0.44881889763779526
        },
        {
          "duration": 0.08139534883721922,
          "durationTicks": 7,
          "midi": 72,
          "name": "C5",
          "ticks": 10418,
          "time": 121.13953488372093,
          "velocity": 0.2283464566929134
        },
        {
          "duration": 0.023255813953483084,
          "durationTicks": 2,
          "midi": 63,
          "name": "D#4",
          "ticks": 10426,
          "time": 121.23255813953489,
          "velocity": 0.3228346456692913
        },
        {
          "duration": 0.081395348837205,
          "durationTicks": 7,
          "midi": 66,
          "name": "F#4",
          "ticks": 10426,
          "time": 121.23255813953489,
          "velocity": 0.33858267716535434
        },
        {
          "duration": 0.081395348837205,
          "durationTicks": 7,
          "midi": 78,
          "name": "F#5",
          "ticks": 10426,
          "time": 121.23255813953489,
          "velocity": 0.4094488188976378
        },
        {
          "duration": 0.06976744186046346,
          "durationTicks": 6,
          "midi": 85,
          "name": "C#6",
          "ticks": 10426,
          "time": 121.23255813953489,
          "velocity": 0.1968503937007874
        },
        {
          "duration": 0.06976744186046346,
          "durationTicks": 6,
          "midi": 100,
          "name": "E7",
          "ticks": 10426,
          "time": 121.23255813953489,
          "velocity": 0.16535433070866143
        },
        {
          "duration": 0.7674418604651123,
          "durationTicks": 66,
          "midi": 76,
          "name": "E5",
          "ticks": 10427,
          "time": 121.24418604651163,
          "velocity": 0.4094488188976378
        },
        {
          "duration": 0.04651162790698038,
          "durationTicks": 4,
          "midi": 102,
          "name": "F#7",
          "ticks": 10427,
          "time": 121.24418604651163,
          "velocity": 0.2125984251968504
        },
        {
          "duration": 0.25581395348837077,
          "durationTicks": 22,
          "midi": 62,
          "name": "D4",
          "ticks": 10428,
          "time": 121.25581395348837,
          "velocity": 0.3700787401574803
        },
        {
          "duration": 0.2674418604651265,
          "durationTicks": 23,
          "midi": 45,
          "name": "A2",
          "ticks": 10429,
          "time": 121.26744186046511,
          "velocity": 0.4330708661417323
        },
        {
          "duration": 0.04651162790698038,
          "durationTicks": 4,
          "midi": 84,
          "name": "C6",
          "ticks": 10429,
          "time": 121.26744186046511,
          "velocity": 0.07874015748031496
        },
        {
          "duration": 0.30232558139535115,
          "durationTicks": 26,
          "midi": 67,
          "name": "G4",
          "ticks": 10433,
          "time": 121.31395348837209,
          "velocity": 0.33070866141732286
        },
        {
          "duration": 0.22093023255814614,
          "durationTicks": 19,
          "midi": 101,
          "name": "F7",
          "ticks": 10433,
          "time": 121.31395348837209,
          "velocity": 0.12598425196850394
        },
        {
          "duration": 0.1046511627907023,
          "durationTicks": 9,
          "midi": 98,
          "name": "D7",
          "ticks": 10435,
          "time": 121.33720930232558,
          "velocity": 0.11023622047244094
        },
        {
          "duration": 0.023255813953497295,
          "durationTicks": 2,
          "midi": 58,
          "name": "A#3",
          "ticks": 10450,
          "time": 121.51162790697674,
          "velocity": 0.3464566929133858
        },
        {
          "duration": 0.03488372093023884,
          "durationTicks": 3,
          "midi": 69,
          "name": "A4",
          "ticks": 10450,
          "time": 121.51162790697674,
          "velocity": 0.15748031496062992
        },
        {
          "duration": 0.22093023255813193,
          "durationTicks": 19,
          "midi": 57,
          "name": "A3",
          "ticks": 10452,
          "time": 121.53488372093024,
          "velocity": 0.4409448818897638
        },
        {
          "duration": 0.034883720930224626,
          "durationTicks": 3,
          "midi": 62,
          "name": "D4",
          "ticks": 10452,
          "time": 121.53488372093024,
          "velocity": 0.2677165354330709
        },
        {
          "duration": 0.19767441860464885,
          "durationTicks": 17,
          "midi": 45,
          "name": "A2",
          "ticks": 10455,
          "time": 121.56976744186046,
          "velocity": 0.3779527559055118
        },
        {
          "duration": 0.03488372093023884,
          "durationTicks": 3,
          "midi": 62,
          "name": "D4",
          "ticks": 10457,
          "time": 121.59302325581395,
          "velocity": 0.25196850393700787
        },
        {
          "duration": 0.023255813953483084,
          "durationTicks": 2,
          "midi": 71,
          "name": "B4",
          "ticks": 10458,
          "time": 121.6046511627907,
          "velocity": 0.2440944881889764
        },
        {
          "duration": 0.2906976744186096,
          "durationTicks": 25,
          "midi": 64,
          "name": "E4",
          "ticks": 10459,
          "time": 121.61627906976744,
          "velocity": 0.44881889763779526
        },
        {
          "duration": 0.3953488372092977,
          "durationTicks": 34,
          "midi": 83,
          "name": "B5",
          "ticks": 10459,
          "time": 121.61627906976744,
          "velocity": 0.3464566929133858
        },
        {
          "duration": 0.27906976744186807,
          "durationTicks": 24,
          "midi": 98,
          "name": "D7",
          "ticks": 10460,
          "time": 121.62790697674419,
          "velocity": 0.25984251968503935
        },
        {
          "duration": 0.03488372093023884,
          "durationTicks": 3,
          "midi": 100,
          "name": "E7",
          "ticks": 10461,
          "time": 121.63953488372093,
          "velocity": 0.10236220472440945
        },
        {
          "duration": 0.023255813953483084,
          "durationTicks": 2,
          "midi": 55,
          "name": "G3",
          "ticks": 10471,
          "time": 121.75581395348837,
          "velocity": 0.3779527559055118
        },
        {
          "duration": 0.04651162790698038,
          "durationTicks": 4,
          "midi": 57,
          "name": "A3",
          "ticks": 10473,
          "time": 121.77906976744185,
          "velocity": 0.3779527559055118
        },
        {
          "duration": 0.11627906976744384,
          "durationTicks": 10,
          "midi": 45,
          "name": "A2",
          "ticks": 10474,
          "time": 121.79069767441861,
          "velocity": 0.47244094488188976
        },
        {
          "duration": 0.03488372093023884,
          "durationTicks": 3,
          "midi": 56,
          "name": "G#3",
          "ticks": 10482,
          "time": 121.88372093023256,
          "velocity": 0.4015748031496063
        },
        {
          "duration": 0.11627906976744384,
          "durationTicks": 10,
          "midi": 69,
          "name": "A4",
          "ticks": 10482,
          "time": 121.88372093023256,
          "velocity": 0.2440944881889764
        },
        {
          "duration": 0.1046511627907023,
          "durationTicks": 9,
          "midi": 85,
          "name": "C#6",
          "ticks": 10482,
          "time": 121.88372093023256,
          "velocity": 0.14173228346456693
        },
        {
          "duration": 0.023255813953483084,
          "durationTicks": 2,
          "midi": 46,
          "name": "A#2",
          "ticks": 10484,
          "time": 121.90697674418605,
          "velocity": 0.3858267716535433
        },
        {
          "duration": 0.023255813953483084,
          "durationTicks": 2,
          "midi": 62,
          "name": "D4",
          "ticks": 10484,
          "time": 121.90697674418605,
          "velocity": 0.4094488188976378
        },
        {
          "duration": 0.06976744186046346,
          "durationTicks": 6,
          "midi": 64,
          "name": "E4",
          "ticks": 10485,
          "time": 121.9186046511628,
          "velocity": 0.3937007874015748
        },
        {
          "duration": 0.09302325581394655,
          "durationTicks": 8,
          "midi": 45,
          "name": "A2",
          "ticks": 10486,
          "time": 121.93023255813954,
          "velocity": 0.47244094488188976
        },
        {
          "duration": 0.023255813953483084,
          "durationTicks": 2,
          "midi": 62,
          "name": "D4",
          "ticks": 10490,
          "time": 121.97674418604652,
          "velocity": 0.3543307086614173
        },
        {
          "duration": 0.15116279069766847,
          "durationTicks": 13,
          "midi": 84,
          "name": "C6",
          "ticks": 10492,
          "time": 122,
          "velocity": 0.2440944881889764
        },
        {
          "duration": 0.2674418604651123,
          "durationTicks": 23,
          "midi": 89,
          "name": "F6",
          "ticks": 10492,
          "time": 122,
          "velocity": 0.2283464566929134
        },
        {
          "duration": 0.5,
          "durationTicks": 43,
          "midi": 65,
          "name": "F4",
          "ticks": 10493,
          "time": 122.01162790697674,
          "velocity": 0.4015748031496063
        },
        {
          "duration": 0.04651162790698038,
          "durationTicks": 4,
          "midi": 71,
          "name": "B4",
          "ticks": 10493,
          "time": 122.01162790697674,
          "velocity": 0.16535433070866143
        },
        {
          "duration": 0.03488372093023884,
          "durationTicks": 3,
          "midi": 90,
          "name": "F#6",
          "ticks": 10493,
          "time": 122.01162790697674,
          "velocity": 0.11023622047244094
        },
        {
          "duration": 0.13953488372092693,
          "durationTicks": 12,
          "midi": 99,
          "name": "D#7",
          "ticks": 10493,
          "time": 122.01162790697674,
          "velocity": 0.1968503937007874
        },
        {
          "duration": 0.09302325581396076,
          "durationTicks": 8,
          "midi": 56,
          "name": "G#3",
          "ticks": 10494,
          "time": 122.02325581395348,
          "velocity": 0.4409448818897638
        },
        {
          "duration": 0.034883720930224626,
          "durationTicks": 3,
          "midi": 45,
          "name": "A2",
          "ticks": 10495,
          "time": 122.03488372093024,
          "velocity": 0.33070866141732286
        },
        {
          "duration": 0.034883720930224626,
          "durationTicks": 3,
          "midi": 91,
          "name": "G6",
          "ticks": 10495,
          "time": 122.03488372093024,
          "velocity": 0.13385826771653545
        },
        {
          "duration": 0.023255813953483084,
          "durationTicks": 2,
          "midi": 44,
          "name": "G#2",
          "ticks": 10498,
          "time": 122.06976744186046,
          "velocity": 0.2677165354330709
        },
        {
          "duration": 0.023255813953483084,
          "durationTicks": 2,
          "midi": 57,
          "name": "A3",
          "ticks": 10502,
          "time": 122.11627906976744,
          "velocity": 0.4409448818897638
        },
        {
          "duration": 0.13953488372092693,
          "durationTicks": 12,
          "midi": 75,
          "name": "D#5",
          "ticks": 10502,
          "time": 122.11627906976744,
          "velocity": 0.18110236220472442
        },
        {
          "duration": 0.8953488372092977,
          "durationTicks": 77,
          "midi": 61,
          "name": "C#4",
          "ticks": 10503,
          "time": 122.12790697674419,
          "velocity": 0.31496062992125984
        },
        {
          "duration": 0.3604651162790731,
          "durationTicks": 31,
          "midi": 68,
          "name": "G#4",
          "ticks": 10503,
          "time": 122.12790697674419,
          "velocity": 0.29133858267716534
        },
        {
          "duration": 0.023255813953497295,
          "durationTicks": 2,
          "midi": 55,
          "name": "G3",
          "ticks": 10504,
          "time": 122.13953488372093,
          "velocity": 0.4881889763779528
        },
        {
          "duration": 0.023255813953497295,
          "durationTicks": 2,
          "midi": 48,
          "name": "C3",
          "ticks": 10505,
          "time": 122.15116279069767,
          "velocity": 0.31496062992125984
        },
        {
          "duration": 0.23255813953487348,
          "durationTicks": 20,
          "midi": 56,
          "name": "G#3",
          "ticks": 10506,
          "time": 122.16279069767442,
          "velocity": 0.4566929133858268
        },
        {
          "duration": 0.1860465116279073,
          "durationTicks": 16,
          "midi": 84,
          "name": "C6",
          "ticks": 10507,
          "time": 122.17441860465117,
          "velocity": 0.2677165354330709
        },
        {
          "duration": 0.3139534883720927,
          "durationTicks": 27,
          "midi": 93,
          "name": "A6",
          "ticks": 10508,
          "time": 122.18604651162791,
          "velocity": 0.14173228346456693
        },
        {
          "duration": 0.15116279069768268,
          "durationTicks": 13,
          "midi": 44,
          "name": "G#2",
          "ticks": 10510,
          "time": 122.20930232558139,
          "velocity": 0.4409448818897638
        },
        {
          "duration": 0.12790697674418539,
          "durationTicks": 11,
          "midi": 72,
          "name": "C5",
          "ticks": 10510,
          "time": 122.20930232558139,
          "velocity": 0.09448818897637795
        },
        {
          "duration": 0.15116279069766847,
          "durationTicks": 13,
          "midi": 84,
          "name": "C6",
          "ticks": 10524,
          "time": 122.37209302325581,
          "velocity": 0.23622047244094488
        },
        {
          "duration": 0.04651162790698038,
          "durationTicks": 4,
          "midi": 44,
          "name": "G#2",
          "ticks": 10526,
          "time": 122.3953488372093,
          "velocity": 0.36220472440944884
        },
        {
          "duration": 0.023255813953497295,
          "durationTicks": 2,
          "midi": 57,
          "name": "A3",
          "ticks": 10526,
          "time": 122.3953488372093,
          "velocity": 0.4566929133858268
        },
        {
          "duration": 0.10465116279068809,
          "durationTicks": 9,
          "midi": 75,
          "name": "D#5",
          "ticks": 10527,
          "time": 122.40697674418605,
          "velocity": 0.10236220472440945
        },
        {
          "duration": 0.11627906976744384,
          "durationTicks": 10,
          "midi": 56,
          "name": "G#3",
          "ticks": 10528,
          "time": 122.4186046511628,
          "velocity": 0.49606299212598426
        },
        {
          "duration": 0.034883720930224626,
          "durationTicks": 3,
          "midi": 44,
          "name": "G#2",
          "ticks": 10533,
          "time": 122.47674418604652,
          "velocity": 0.36220472440944884
        },
        {
          "duration": 0.023255813953497295,
          "durationTicks": 2,
          "midi": 45,
          "name": "A2",
          "ticks": 10536,
          "time": 122.51162790697674,
          "velocity": 0.31496062992125984
        },
        {
          "duration": 0.023255813953497295,
          "durationTicks": 2,
          "midi": 66,
          "name": "F#4",
          "ticks": 10536,
          "time": 122.51162790697674,
          "velocity": 0.2992125984251969
        },
        {
          "duration": 0.16279069767442422,
          "durationTicks": 14,
          "midi": 77,
          "name": "F5",
          "ticks": 10537,
          "time": 122.52325581395348,
          "velocity": 0.2992125984251969
        },
        {
          "duration": 0.023255813953483084,
          "durationTicks": 2,
          "midi": 57,
          "name": "A3",
          "ticks": 10538,
          "time": 122.53488372093024,
          "velocity": 0.4094488188976378
        },
        {
          "duration": 0.12790697674418539,
          "durationTicks": 11,
          "midi": 65,
          "name": "F4",
          "ticks": 10538,
          "time": 122.53488372093024,
          "velocity": 0.31496062992125984
        },
        {
          "duration": 0.04651162790696617,
          "durationTicks": 4,
          "midi": 84,
          "name": "C6",
          "ticks": 10539,
          "time": 122.54651162790698,
          "velocity": 0.08661417322834646
        },
        {
          "duration": 0.38372093023255616,
          "durationTicks": 33,
          "midi": 56,
          "name": "G#3",
          "ticks": 10540,
          "time": 122.55813953488372,
          "velocity": 0.48031496062992124
        },
        {
          "duration": 0.1046511627907023,
          "durationTicks": 9,
          "midi": 44,
          "name": "G#2",
          "ticks": 10542,
          "time": 122.5813953488372,
          "velocity": 0.4566929133858268
        },
        {
          "duration": 0.1046511627907023,
          "durationTicks": 9,
          "midi": 84,
          "name": "C6",
          "ticks": 10547,
          "time": 122.63953488372093,
          "velocity": 0.16535433070866143
        },
        {
          "duration": 0.081395348837205,
          "durationTicks": 7,
          "midi": 72,
          "name": "C5",
          "ticks": 10550,
          "time": 122.67441860465117,
          "velocity": 0.07086614173228346
        },
        {
          "duration": 0.03488372093023884,
          "durationTicks": 3,
          "midi": 66,
          "name": "F#4",
          "ticks": 10551,
          "time": 122.68604651162791,
          "velocity": 0.30708661417322836
        },
        {
          "duration": 0.081395348837205,
          "durationTicks": 7,
          "midi": 44,
          "name": "G#2",
          "ticks": 10552,
          "time": 122.69767441860465,
          "velocity": 0.4330708661417323
        },
        {
          "duration": 0.04651162790696617,
          "durationTicks": 4,
          "midi": 65,
          "name": "F4",
          "ticks": 10554,
          "time": 122.72093023255815,
          "velocity": 0.2440944881889764
        },
        {
          "duration": 0.09302325581396076,
          "durationTicks": 8,
          "midi": 84,
          "name": "C6",
          "ticks": 10558,
          "time": 122.76744186046511,
          "velocity": 0.07874015748031496
        },
        {
          "duration": 0.03488372093023884,
          "durationTicks": 3,
          "midi": 72,
          "name": "C5",
          "ticks": 10559,
          "time": 122.77906976744185,
          "velocity": 0.10236220472440945
        },
        {
          "duration": 0.05813953488372192,
          "durationTicks": 5,
          "midi": 44,
          "name": "G#2",
          "ticks": 10560,
          "time": 122.79069767441861,
          "velocity": 0.4015748031496063
        },
        {
          "duration": 0.04651162790696617,
          "durationTicks": 4,
          "midi": 65,
          "name": "F4",
          "ticks": 10560,
          "time": 122.79069767441861,
          "velocity": 0.1968503937007874
        },
        {
          "duration": 0.04651162790698038,
          "durationTicks": 4,
          "midi": 44,
          "name": "G#2",
          "ticks": 10566,
          "time": 122.86046511627907,
          "velocity": 0.36220472440944884
        },
        {
          "duration": 0.034883720930224626,
          "durationTicks": 3,
          "midi": 43,
          "name": "G2",
          "ticks": 10572,
          "time": 122.93023255813954,
          "velocity": 0.29133858267716534
        },
        {
          "duration": 0.11627906976744384,
          "durationTicks": 10,
          "midi": 84,
          "name": "C6",
          "ticks": 10572,
          "time": 122.93023255813954,
          "velocity": 0.12598425196850394
        },
        {
          "duration": 0.2674418604651265,
          "durationTicks": 23,
          "midi": 56,
          "name": "G#3",
          "ticks": 10574,
          "time": 122.95348837209302,
          "velocity": 0.47244094488188976
        },
        {
          "duration": 0.023255813953497295,
          "durationTicks": 2,
          "midi": 44,
          "name": "G#2",
          "ticks": 10575,
          "time": 122.96511627906976,
          "velocity": 0.3543307086614173
        },
        {
          "duration": 0.023255813953497295,
          "durationTicks": 2,
          "midi": 44,
          "name": "G#2",
          "ticks": 10580,
          "time": 123.02325581395348,
          "velocity": 0.3700787401574803
        },
        {
          "duration": 0.023255813953483084,
          "durationTicks": 2,
          "midi": 63,
          "name": "D#4",
          "ticks": 10581,
          "time": 123.03488372093024,
          "velocity": 0.3228346456692913
        },
        {
          "duration": 0.13953488372092693,
          "durationTicks": 12,
          "midi": 76,
          "name": "E5",
          "ticks": 10581,
          "time": 123.03488372093024,
          "velocity": 0.3464566929133858
        },
        {
          "duration": 0.10465116279068809,
          "durationTicks": 9,
          "midi": 83,
          "name": "B5",
          "ticks": 10582,
          "time": 123.04651162790698,
          "velocity": 0.25984251968503935
        },
        {
          "duration": 0.034883720930224626,
          "durationTicks": 3,
          "midi": 92,
          "name": "G#6",
          "ticks": 10582,
          "time": 123.04651162790698,
          "velocity": 0.10236220472440945
        },
        {
          "duration": 0.09302325581394655,
          "durationTicks": 8,
          "midi": 100,
          "name": "E7",
          "ticks": 10582,
          "time": 123.04651162790698,
          "velocity": 0.16535433070866143
        },
        {
          "duration": 0.09302325581394655,
          "durationTicks": 8,
          "midi": 64,
          "name": "E4",
          "ticks": 10583,
          "time": 123.05813953488372,
          "velocity": 0.33070866141732286
        },
        {
          "duration": 0.09302325581394655,
          "durationTicks": 8,
          "midi": 98,
          "name": "D7",
          "ticks": 10583,
          "time": 123.05813953488372,
          "velocity": 0.1889763779527559
        },
        {
          "duration": 0.03488372093023884,
          "durationTicks": 3,
          "midi": 43,
          "name": "G2",
          "ticks": 10584,
          "time": 123.06976744186046,
          "velocity": 0.33858267716535434
        },
        {
          "duration": 0.16279069767441,
          "durationTicks": 14,
          "midi": 44,
          "name": "G#2",
          "ticks": 10587,
          "time": 123.1046511627907,
          "velocity": 0.4015748031496063
        },
        {
          "duration": 0.023255813953497295,
          "durationTicks": 2,
          "midi": 63,
          "name": "D#4",
          "ticks": 10591,
          "time": 123.15116279069767,
          "velocity": 0.28346456692913385
        },
        {
          "duration": 0.11627906976742963,
          "durationTicks": 10,
          "midi": 77,
          "name": "F5",
          "ticks": 10592,
          "time": 123.16279069767442,
          "velocity": 0.3700787401574803
        },
        {
          "duration": 0.10465116279068809,
          "durationTicks": 9,
          "midi": 84,
          "name": "C6",
          "ticks": 10592,
          "time": 123.16279069767442,
          "velocity": 0.2047244094488189
        },
        {
          "duration": 0.081395348837205,
          "durationTicks": 7,
          "midi": 65,
          "name": "F4",
          "ticks": 10594,
          "time": 123.18604651162791,
          "velocity": 0.30708661417322836
        },
        {
          "duration": 0.03488372093023884,
          "durationTicks": 3,
          "midi": 99,
          "name": "D#7",
          "ticks": 10594,
          "time": 123.18604651162791,
          "velocity": 0.08661417322834646
        },
        {
          "duration": 0.034883720930224626,
          "durationTicks": 3,
          "midi": 57,
          "name": "A3",
          "ticks": 10599,
          "time": 123.24418604651163,
          "velocity": 0.2283464566929134
        },
        {
          "duration": 0.023255813953497295,
          "durationTicks": 2,
          "midi": 45,
          "name": "A2",
          "ticks": 10601,
          "time": 123.26744186046511,
          "velocity": 0.3543307086614173
        },
        {
          "duration": 0.023255813953497295,
          "durationTicks": 2,
          "midi": 56,
          "name": "G#3",
          "ticks": 10602,
          "time": 123.27906976744185,
          "velocity": 0.2992125984251969
        },
        {
          "duration": 0.023255813953483084,
          "durationTicks": 2,
          "midi": 44,
          "name": "G#2",
          "ticks": 10603,
          "time": 123.29069767441861,
          "velocity": 0.31496062992125984
        },
        {
          "duration": 0.38372093023255616,
          "durationTicks": 33,
          "midi": 79,
          "name": "G5",
          "ticks": 10603,
          "time": 123.29069767441861,
          "velocity": 0.2992125984251969
        },
        {
          "duration": 0.034883720930224626,
          "durationTicks": 3,
          "midi": 67,
          "name": "G4",
          "ticks": 10604,
          "time": 123.30232558139535,
          "velocity": 0.1968503937007874
        },
        {
          "duration": 0.06976744186046346,
          "durationTicks": 6,
          "midi": 98,
          "name": "D7",
          "ticks": 10604,
          "time": 123.30232558139535,
          "velocity": 0.2755905511811024
        },
        {
          "duration": 0.09302325581394655,
          "durationTicks": 8,
          "midi": 101,
          "name": "F7",
          "ticks": 10604,
          "time": 123.30232558139535,
          "velocity": 0.13385826771653545
        },
        {
          "duration": 0.16279069767442422,
          "durationTicks": 14,
          "midi": 95,
          "name": "B6",
          "ticks": 10605,
          "time": 123.31395348837209,
          "velocity": 0.13385826771653545
        },
        {
          "duration": 0.24418604651162923,
          "durationTicks": 21,
          "midi": 55,
          "name": "G3",
          "ticks": 10606,
          "time": 123.32558139534883,
          "velocity": 0.47244094488188976
        },
        {
          "duration": 0.15116279069768268,
          "durationTicks": 13,
          "midi": 86,
          "name": "D6",
          "ticks": 10606,
          "time": 123.32558139534883,
          "velocity": 0.13385826771653545
        },
        {
          "duration": 0.023255813953497295,
          "durationTicks": 2,
          "midi": 47,
          "name": "B2",
          "ticks": 10607,
          "time": 123.33720930232558,
          "velocity": 0.3228346456692913
        },
        {
          "duration": 0.05813953488372192,
          "durationTicks": 5,
          "midi": 60,
          "name": "C4",
          "ticks": 10607,
          "time": 123.33720930232558,
          "velocity": 0.33070866141732286
        },
        {
          "duration": 0.2325581395348877,
          "durationTicks": 20,
          "midi": 74,
          "name": "D5",
          "ticks": 10607,
          "time": 123.33720930232558,
          "velocity": 0.13385826771653545
        },
        {
          "duration": 0.06976744186046346,
          "durationTicks": 6,
          "midi": 77,
          "name": "F5",
          "ticks": 10608,
          "time": 123.34883720930233,
          "velocity": 0.14173228346456693
        },
        {
          "duration": 0.034883720930224626,
          "durationTicks": 3,
          "midi": 48,
          "name": "C3",
          "ticks": 10609,
          "time": 123.36046511627907,
          "velocity": 0.33858267716535434
        },
        {
          "duration": 0.19767441860464885,
          "durationTicks": 17,
          "midi": 48,
          "name": "C3",
          "ticks": 10613,
          "time": 123.40697674418605,
          "velocity": 0.3464566929133858
        },
        {
          "duration": 0.13953488372092693,
          "durationTicks": 12,
          "midi": 77,
          "name": "F5",
          "ticks": 10615,
          "time": 123.43023255813954,
          "velocity": 0.11811023622047244
        },
        {
          "duration": 0.03488372093023884,
          "durationTicks": 3,
          "midi": 92,
          "name": "G#6",
          "ticks": 10616,
          "time": 123.44186046511628,
          "velocity": 0.07874015748031496
        },
        {
          "duration": 0.15116279069768268,
          "durationTicks": 13,
          "midi": 95,
          "name": "B6",
          "ticks": 10622,
          "time": 123.51162790697674,
          "velocity": 0.12598425196850394
        },
        {
          "duration": 0.023255813953483084,
          "durationTicks": 2,
          "midi": 56,
          "name": "G#3",
          "ticks": 10627,
          "time": 123.56976744186046,
          "velocity": 0.36220472440944884
        },
        {
          "duration": 0.1046511627907023,
          "durationTicks": 9,
          "midi": 55,
          "name": "G3",
          "ticks": 10629,
          "time": 123.59302325581395,
          "velocity": 0.4409448818897638
        },
        {
          "duration": 0.22093023255813193,
          "durationTicks": 19,
          "midi": 60,
          "name": "C4",
          "ticks": 10630,
          "time": 123.6046511627907,
          "velocity": 0.3543307086614173
        },
        {
          "duration": 0.22093023255813193,
          "durationTicks": 19,
          "midi": 74,
          "name": "D5",
          "ticks": 10630,
          "time": 123.6046511627907,
          "velocity": 0.1889763779527559
        },
        {
          "duration": 0.09302325581394655,
          "durationTicks": 8,
          "midi": 91,
          "name": "G6",
          "ticks": 10636,
          "time": 123.67441860465117,
          "velocity": 0.14960629921259844
        },
        {
          "duration": 0.023255813953497295,
          "durationTicks": 2,
          "midi": 48,
          "name": "C3",
          "ticks": 10638,
          "time": 123.69767441860465,
          "velocity": 0.29133858267716534
        },
        {
          "duration": 0.24418604651162923,
          "durationTicks": 21,
          "midi": 76,
          "name": "E5",
          "ticks": 10638,
          "time": 123.69767441860465,
          "velocity": 0.41732283464566927
        },
        {
          "duration": 0.25581395348837077,
          "durationTicks": 22,
          "midi": 83,
          "name": "B5",
          "ticks": 10638,
          "time": 123.69767441860465,
          "velocity": 0.3543307086614173
        },
        {
          "duration": 0.2325581395348877,
          "durationTicks": 20,
          "midi": 64,
          "name": "E4",
          "ticks": 10639,
          "time": 123.70930232558139,
          "velocity": 0.41732283464566927
        },
        {
          "duration": 0.19767441860466306,
          "durationTicks": 17,
          "midi": 98,
          "name": "D7",
          "ticks": 10639,
          "time": 123.70930232558139,
          "velocity": 0.25196850393700787
        },
        {
          "duration": 0.081395348837205,
          "durationTicks": 7,
          "midi": 55,
          "name": "G3",
          "ticks": 10640,
          "time": 123.72093023255815,
          "velocity": 0.14173228346456693
        },
        {
          "duration": 0.023255813953497295,
          "durationTicks": 2,
          "midi": 43,
          "name": "G2",
          "ticks": 10644,
          "time": 123.76744186046511,
          "velocity": 0.36220472440944884
        },
        {
          "duration": 0.03488372093023884,
          "durationTicks": 3,
          "midi": 92,
          "name": "G#6",
          "ticks": 10644,
          "time": 123.76744186046511,
          "velocity": 0.07874015748031496
        },
        {
          "duration": 0.04651162790698038,
          "durationTicks": 4,
          "midi": 44,
          "name": "G#2",
          "ticks": 10648,
          "time": 123.81395348837209,
          "velocity": 0.3937007874015748
        },
        {
          "duration": 0.023255813953497295,
          "durationTicks": 2,
          "midi": 53,
          "name": "F3",
          "ticks": 10649,
          "time": 123.82558139534883,
          "velocity": 0.3858267716535433
        },
        {
          "duration": 0.081395348837205,
          "durationTicks": 7,
          "midi": 55,
          "name": "G3",
          "ticks": 10652,
          "time": 123.86046511627907,
          "velocity": 0.30708661417322836
        },
        {
          "duration": 0.04651162790698038,
          "durationTicks": 4,
          "midi": 87,
          "name": "D#6",
          "ticks": 10658,
          "time": 123.93023255813954,
          "velocity": 0.1968503937007874
        },
        {
          "duration": 0.023255813953483084,
          "durationTicks": 2,
          "midi": 48,
          "name": "C3",
          "ticks": 10659,
          "time": 123.94186046511628,
          "velocity": 0.3543307086614173
        },
        {
          "duration": 0.03488372093023884,
          "durationTicks": 3,
          "midi": 63,
          "name": "D#4",
          "ticks": 10659,
          "time": 123.94186046511628,
          "velocity": 0.4015748031496063
        },
        {
          "duration": 0.12790697674418539,
          "durationTicks": 11,
          "midi": 86,
          "name": "D6",
          "ticks": 10660,
          "time": 123.95348837209302,
          "velocity": 0.1889763779527559
        },
        {
          "duration": 0.023255813953497295,
          "durationTicks": 2,
          "midi": 54,
          "name": "F#3",
          "ticks": 10661,
          "time": 123.96511627906976,
          "velocity": 0.49606299212598426
        },
        {
          "duration": 0.48837209302324425,
          "durationTicks": 42,
          "midi": 62,
          "name": "D4",
          "ticks": 10662,
          "time": 123.97674418604652,
          "velocity": 0.4251968503937008
        },
        {
          "duration": 0.8604651162790589,
          "durationTicks": 74,
          "midi": 74,
          "name": "D5",
          "ticks": 10662,
          "time": 123.97674418604652,
          "velocity": 0.44881889763779526
        },
        {
          "duration": 0.8488372093023173,
          "durationTicks": 73,
          "midi": 81,
          "name": "A5",
          "ticks": 10662,
          "time": 123.97674418604652,
          "velocity": 0.3700787401574803
        },
        {
          "duration": 0.09302325581394655,
          "durationTicks": 8,
          "midi": 55,
          "name": "G3",
          "ticks": 10663,
          "time": 123.98837209302326,
          "velocity": 0.49606299212598426
        },
        {
          "duration": 0.04651162790696617,
          "durationTicks": 4,
          "midi": 48,
          "name": "C3",
          "ticks": 10667,
          "time": 124.03488372093024,
          "velocity": 0.3543307086614173
        },
        {
          "duration": 0.023255813953497295,
          "durationTicks": 2,
          "midi": 56,
          "name": "G#3",
          "ticks": 10671,
          "time": 124.0813953488372,
          "velocity": 0.33858267716535434
        },
        {
          "duration": 0.06976744186047767,
          "durationTicks": 6,
          "midi": 100,
          "name": "E7",
          "ticks": 10672,
          "time": 124.09302325581395,
          "velocity": 0.09448818897637795
        },
        {
          "duration": 0.023255813953483084,
          "durationTicks": 2,
          "midi": 55,
          "name": "G3",
          "ticks": 10673,
          "time": 124.1046511627907,
          "velocity": 0.33070866141732286
        },
        {
          "duration": 0.11627906976744384,
          "durationTicks": 10,
          "midi": 98,
          "name": "D7",
          "ticks": 10673,
          "time": 124.1046511627907,
          "velocity": 0.07086614173228346
        },
        {
          "duration": 0.023255813953483084,
          "durationTicks": 2,
          "midi": 42,
          "name": "F#2",
          "ticks": 10675,
          "time": 124.12790697674419,
          "velocity": 0.23622047244094488
        },
        {
          "duration": 0.05813953488372192,
          "durationTicks": 5,
          "midi": 56,
          "name": "G#3",
          "ticks": 10675,
          "time": 124.12790697674419,
          "velocity": 0.11023622047244094
        },
        {
          "duration": 0.04651162790698038,
          "durationTicks": 4,
          "midi": 91,
          "name": "G6",
          "ticks": 10675,
          "time": 124.12790697674419,
          "velocity": 0.07874015748031496
        },
        {
          "duration": 0.023255813953483084,
          "durationTicks": 2,
          "midi": 44,
          "name": "G#2",
          "ticks": 10679,
          "time": 124.17441860465117,
          "velocity": 0.2283464566929134
        },
        {
          "duration": 0.03488372093023884,
          "durationTicks": 3,
          "midi": 55,
          "name": "G3",
          "ticks": 10680,
          "time": 124.18604651162791,
          "velocity": 0.3937007874015748
        },
        {
          "duration": 0.03488372093023884,
          "durationTicks": 3,
          "midi": 85,
          "name": "C#6",
          "ticks": 10682,
          "time": 124.20930232558139,
          "velocity": 0.13385826771653545
        },
        {
          "duration": 0.023255813953483084,
          "durationTicks": 2,
          "midi": 44,
          "name": "G#2",
          "ticks": 10683,
          "time": 124.22093023255815,
          "velocity": 0.3543307086614173
        },
        {
          "duration": 0.25581395348837077,
          "durationTicks": 22,
          "midi": 66,
          "name": "F#4",
          "ticks": 10683,
          "time": 124.22093023255815,
          "velocity": 0.2755905511811024
        },
        {
          "duration": 0.12790697674418539,
          "durationTicks": 11,
          "midi": 54,
          "name": "F#3",
          "ticks": 10684,
          "time": 124.23255813953489,
          "velocity": 0.5039370078740157
        },
        {
          "duration": 0.023255813953483084,
          "durationTicks": 2,
          "midi": 46,
          "name": "A#2",
          "ticks": 10686,
          "time": 124.25581395348837,
          "velocity": 0.3464566929133858
        },
        {
          "duration": 0.03488372093023884,
          "durationTicks": 3,
          "midi": 85,
          "name": "C#6",
          "ticks": 10686,
          "time": 124.25581395348837,
          "velocity": 0.11023622047244094
        },
        {
          "duration": 0.06976744186046346,
          "durationTicks": 6,
          "midi": 47,
          "name": "B2",
          "ticks": 10692,
          "time": 124.32558139534883,
          "velocity": 0.4015748031496063
        },
        {
          "duration": 0.023255813953483084,
          "durationTicks": 2,
          "midi": 60,
          "name": "C4",
          "ticks": 10694,
          "time": 124.34883720930233,
          "velocity": 0.33858267716535434
        },
        {
          "duration": 0.023255813953497295,
          "durationTicks": 2,
          "midi": 59,
          "name": "B3",
          "ticks": 10698,
          "time": 124.3953488372093,
          "velocity": 0.2677165354330709
        },
        {
          "duration": 0.023255813953483084,
          "durationTicks": 2,
          "midi": 47,
          "name": "B2",
          "ticks": 10699,
          "time": 124.40697674418605,
          "velocity": 0.3779527559055118
        },
        {
          "duration": 0.023255813953483084,
          "durationTicks": 2,
          "midi": 47,
          "name": "B2",
          "ticks": 10702,
          "time": 124.44186046511628,
          "velocity": 0.3543307086614173
        },
        {
          "duration": 0.13953488372092693,
          "durationTicks": 12,
          "midi": 62,
          "name": "D4",
          "ticks": 10705,
          "time": 124.47674418604652,
          "velocity": 0.4015748031496063
        },
        {
          "duration": 0.04651162790696617,
          "durationTicks": 4,
          "midi": 85,
          "name": "C#6",
          "ticks": 10705,
          "time": 124.47674418604652,
          "velocity": 0.14173228346456693
        },
        {
          "duration": 0.023255813953483084,
          "durationTicks": 2,
          "midi": 47,
          "name": "B2",
          "ticks": 10707,
          "time": 124.5,
          "velocity": 0.3779527559055118
        },
        {
          "duration": 0.06976744186046346,
          "durationTicks": 6,
          "midi": 54,
          "name": "F#3",
          "ticks": 10707,
          "time": 124.5,
          "velocity": 0.36220472440944884
        },
        {
          "duration": 0.023255813953483084,
          "durationTicks": 2,
          "midi": 47,
          "name": "B2",
          "ticks": 10710,
          "time": 124.53488372093024,
          "velocity": 0.36220472440944884
        },
        {
          "duration": 0.023255813953483084,
          "durationTicks": 2,
          "midi": 47,
          "name": "B2",
          "ticks": 10713,
          "time": 124.56976744186046,
          "velocity": 0.3700787401574803
        },
        {
          "duration": 0.03488372093023884,
          "durationTicks": 3,
          "midi": 44,
          "name": "G#2",
          "ticks": 10718,
          "time": 124.62790697674419,
          "velocity": 0.3700787401574803
        },
        {
          "duration": 0.1860465116279073,
          "durationTicks": 16,
          "midi": 62,
          "name": "D4",
          "ticks": 10718,
          "time": 124.62790697674419,
          "velocity": 0.3937007874015748
        },
        {
          "duration": 0.09302325581396076,
          "durationTicks": 8,
          "midi": 54,
          "name": "F#3",
          "ticks": 10719,
          "time": 124.63953488372093,
          "velocity": 0.44881889763779526
        },
        {
          "duration": 0.023255813953483084,
          "durationTicks": 2,
          "midi": 59,
          "name": "B3",
          "ticks": 10721,
          "time": 124.66279069767442,
          "velocity": 0.25984251968503935
        },
        {
          "duration": 0.023255813953483084,
          "durationTicks": 2,
          "midi": 59,
          "name": "B3",
          "ticks": 10726,
          "time": 124.72093023255815,
          "velocity": 0.30708661417322836
        },
        {
          "duration": 0.011627906976741542,
          "durationTicks": 1,
          "midi": 55,
          "name": "G3",
          "ticks": 10730,
          "time": 124.76744186046511,
          "velocity": 0.5275590551181102
        },
        {
          "duration": 0.13953488372094114,
          "durationTicks": 12,
          "midi": 54,
          "name": "F#3",
          "ticks": 10731,
          "time": 124.77906976744185,
          "velocity": 0.5039370078740157
        },
        {
          "duration": 0.09302325581396076,
          "durationTicks": 8,
          "midi": 85,
          "name": "C#6",
          "ticks": 10731,
          "time": 124.77906976744185,
          "velocity": 0.12598425196850394
        },
        {
          "duration": 0.023255813953483084,
          "durationTicks": 2,
          "midi": 46,
          "name": "A#2",
          "ticks": 10732,
          "time": 124.79069767441861,
          "velocity": 0.3858267716535433
        },
        {
          "duration": 0.05813953488372192,
          "durationTicks": 5,
          "midi": 73,
          "name": "C#5",
          "ticks": 10736,
          "time": 124.83720930232558,
          "velocity": 0.13385826771653545
        },
        {
          "duration": 0.04651162790696617,
          "durationTicks": 4,
          "midi": 47,
          "name": "B2",
          "ticks": 10737,
          "time": 124.84883720930233,
          "velocity": 0.3700787401574803
        },
        {
          "duration": 0.034883720930224626,
          "durationTicks": 3,
          "midi": 60,
          "name": "C4",
          "ticks": 10737,
          "time": 124.84883720930233,
          "velocity": 0.4330708661417323
        },
        {
          "duration": 0.06976744186046346,
          "durationTicks": 6,
          "midi": 90,
          "name": "F#6",
          "ticks": 10739,
          "time": 124.87209302325581,
          "velocity": 0.08661417322834646
        },
        {
          "duration": 0.09302325581394655,
          "durationTicks": 8,
          "midi": 47,
          "name": "B2",
          "ticks": 10742,
          "time": 124.90697674418605,
          "velocity": 0.3937007874015748
        },
        {
          "duration": 0.023255813953483084,
          "durationTicks": 2,
          "midi": 61,
          "name": "C#4",
          "ticks": 10742,
          "time": 124.90697674418605,
          "velocity": 0.2755905511811024
        },
        {
          "duration": 0.023255813953483084,
          "durationTicks": 2,
          "midi": 53,
          "name": "F3",
          "ticks": 10750,
          "time": 125,
          "velocity": 0.3700787401574803
        },
        {
          "duration": 0.023255813953497295,
          "durationTicks": 2,
          "midi": 59,
          "name": "B3",
          "ticks": 10751,
          "time": 125.01162790697674,
          "velocity": 0.28346456692913385
        },
        {
          "duration": 0.12790697674418539,
          "durationTicks": 11,
          "midi": 73,
          "name": "C#5",
          "ticks": 10751,
          "time": 125.01162790697674,
          "velocity": 0.15748031496062992
        },
        {
          "duration": 0.09302325581396076,
          "durationTicks": 8,
          "midi": 54,
          "name": "F#3",
          "ticks": 10752,
          "time": 125.02325581395348,
          "velocity": 0.44881889763779526
        },
        {
          "duration": 0.023255813953483084,
          "durationTicks": 2,
          "midi": 47,
          "name": "B2",
          "ticks": 10753,
          "time": 125.03488372093024,
          "velocity": 0.3858267716535433
        },
        {
          "duration": 0.09302325581394655,
          "durationTicks": 8,
          "midi": 59,
          "name": "B3",
          "ticks": 10755,
          "time": 125.05813953488372,
          "velocity": 0.3858267716535433
        },
        {
          "duration": 0.081395348837205,
          "durationTicks": 7,
          "midi": 47,
          "name": "B2",
          "ticks": 10756,
          "time": 125.06976744186046,
          "velocity": 0.3858267716535433
        },
        {
          "duration": 0.12790697674418539,
          "durationTicks": 11,
          "midi": 72,
          "name": "C5",
          "ticks": 10762,
          "time": 125.13953488372093,
          "velocity": 0.33858267716535434
        },
        {
          "duration": 0.1046511627907023,
          "durationTicks": 9,
          "midi": 79,
          "name": "G5",
          "ticks": 10762,
          "time": 125.13953488372093,
          "velocity": 0.2204724409448819
        },
        {
          "duration": 0.03488372093023884,
          "durationTicks": 3,
          "midi": 55,
          "name": "G3",
          "ticks": 10763,
          "time": 125.15116279069767,
          "velocity": 0.3937007874015748
        },
        {
          "duration": 0.1046511627907023,
          "durationTicks": 9,
          "midi": 60,
          "name": "C4",
          "ticks": 10763,
          "time": 125.15116279069767,
          "velocity": 0.48031496062992124
        },
        {
          "duration": 0.09302325581396076,
          "durationTicks": 8,
          "midi": 88,
          "name": "E6",
          "ticks": 10763,
          "time": 125.15116279069767,
          "velocity": 0.2125984251968504
        },
        {
          "duration": 0.023255813953483084,
          "durationTicks": 2,
          "midi": 47,
          "name": "B2",
          "ticks": 10764,
          "time": 125.16279069767442,
          "velocity": 0.3937007874015748
        },
        {
          "duration": 0.04651162790698038,
          "durationTicks": 4,
          "midi": 54,
          "name": "F#3",
          "ticks": 10766,
          "time": 125.18604651162791,
          "velocity": 0.3228346456692913
        },
        {
          "duration": 0.04651162790698038,
          "durationTicks": 4,
          "midi": 47,
          "name": "B2",
          "ticks": 10767,
          "time": 125.19767441860465,
          "velocity": 0.3700787401574803
        },
        {
          "duration": 0.04651162790696617,
          "durationTicks": 4,
          "midi": 55,
          "name": "G3",
          "ticks": 10770,
          "time": 125.23255813953489,
          "velocity": 0.36220472440944884
        },
        {
          "duration": 0.1046511627907023,
          "durationTicks": 9,
          "midi": 61,
          "name": "C#4",
          "ticks": 10773,
          "time": 125.26744186046511,
          "velocity": 0.4645669291338583
        },
        {
          "duration": 0.05813953488372192,
          "durationTicks": 5,
          "midi": 44,
          "name": "G#2",
          "ticks": 10774,
          "time": 125.27906976744185,
          "velocity": 0.4645669291338583
        },
        {
          "duration": 0.08139534883721922,
          "durationTicks": 7,
          "midi": 80,
          "name": "G#5",
          "ticks": 10774,
          "time": 125.27906976744185,
          "velocity": 0.1968503937007874
        },
        {
          "duration": 0.05813953488372192,
          "durationTicks": 5,
          "midi": 99,
          "name": "D#7",
          "ticks": 10775,
          "time": 125.29069767441861,
          "velocity": 0.08661417322834646
        },
        {
          "duration": 0.03488372093023884,
          "durationTicks": 3,
          "midi": 45,
          "name": "A2",
          "ticks": 10779,
          "time": 125.33720930232558,
          "velocity": 0.44881889763779526
        },
        {
          "duration": 0.04651162790698038,
          "durationTicks": 4,
          "midi": 53,
          "name": "F3",
          "ticks": 10781,
          "time": 125.36046511627907,
          "velocity": 0.16535433070866143
        },
        {
          "duration": 0.03488372093023884,
          "durationTicks": 3,
          "midi": 58,
          "name": "A#3",
          "ticks": 10782,
          "time": 125.37209302325581,
          "velocity": 0.3464566929133858
        },
        {
          "duration": 0.023255813953483084,
          "durationTicks": 2,
          "midi": 57,
          "name": "A3",
          "ticks": 10785,
          "time": 125.40697674418605,
          "velocity": 0.4094488188976378
        },
        {
          "duration": 0.8139534883720927,
          "durationTicks": 70,
          "midi": 74,
          "name": "D5",
          "ticks": 10785,
          "time": 125.40697674418605,
          "velocity": 0.4409448818897638
        },
        {
          "duration": 0.22093023255813193,
          "durationTicks": 19,
          "midi": 77,
          "name": "F5",
          "ticks": 10786,
          "time": 125.4186046511628,
          "velocity": 0.1968503937007874
        },
        {
          "duration": 0.25581395348837077,
          "durationTicks": 22,
          "midi": 58,
          "name": "A#3",
          "ticks": 10787,
          "time": 125.43023255813954,
          "velocity": 0.41732283464566927
        },
        {
          "duration": 0.7790697674418539,
          "durationTicks": 67,
          "midi": 62,
          "name": "D4",
          "ticks": 10787,
          "time": 125.43023255813954,
          "velocity": 0.41732283464566927
        },
        {
          "duration": 0.06976744186046346,
          "durationTicks": 6,
          "midi": 65,
          "name": "F4",
          "ticks": 10787,
          "time": 125.43023255813954,
          "velocity": 0.30708661417322836
        },
        {
          "duration": 0.1860465116279073,
          "durationTicks": 16,
          "midi": 81,
          "name": "A5",
          "ticks": 10787,
          "time": 125.43023255813954,
          "velocity": 0.2047244094488189
        },
        {
          "duration": 0.03488372093023884,
          "durationTicks": 3,
          "midi": 45,
          "name": "A2",
          "ticks": 10788,
          "time": 125.44186046511628,
          "velocity": 0.4409448818897638
        },
        {
          "duration": 0.25581395348837077,
          "durationTicks": 22,
          "midi": 53,
          "name": "F3",
          "ticks": 10788,
          "time": 125.44186046511628,
          "velocity": 0.4094488188976378
        },
        {
          "duration": 0.06976744186047767,
          "durationTicks": 6,
          "midi": 84,
          "name": "C6",
          "ticks": 10790,
          "time": 125.46511627906976,
          "velocity": 0.13385826771653545
        },
        {
          "duration": 0.034883720930224626,
          "durationTicks": 3,
          "midi": 46,
          "name": "A#2",
          "ticks": 10791,
          "time": 125.47674418604652,
          "velocity": 0.3700787401574803
        },
        {
          "duration": 0.1860465116279073,
          "durationTicks": 16,
          "midi": 46,
          "name": "A#2",
          "ticks": 10795,
          "time": 125.52325581395348,
          "velocity": 0.4015748031496063
        },
        {
          "duration": 0.04651162790698038,
          "durationTicks": 4,
          "midi": 84,
          "name": "C6",
          "ticks": 10800,
          "time": 125.5813953488372,
          "velocity": 0.07874015748031496
        },
        {
          "duration": 0.2674418604651123,
          "durationTicks": 23,
          "midi": 77,
          "name": "F5",
          "ticks": 10810,
          "time": 125.69767441860465,
          "velocity": 0.2283464566929134
        },
        {
          "duration": 0.13953488372094114,
          "durationTicks": 12,
          "midi": 72,
          "name": "C5",
          "ticks": 10811,
          "time": 125.70930232558139,
          "velocity": 0.09448818897637795
        },
        {
          "duration": 0.22093023255813193,
          "durationTicks": 19,
          "midi": 58,
          "name": "A#3",
          "ticks": 10812,
          "time": 125.72093023255815,
          "velocity": 0.33070866141732286
        },
        {
          "duration": 0.04651162790696617,
          "durationTicks": 4,
          "midi": 45,
          "name": "A2",
          "ticks": 10813,
          "time": 125.73255813953489,
          "velocity": 0.3779527559055118
        },
        {
          "duration": 0.2093023255813904,
          "durationTicks": 18,
          "midi": 53,
          "name": "F3",
          "ticks": 10813,
          "time": 125.73255813953489,
          "velocity": 0.4330708661417323
        },
        {
          "duration": 0.13953488372092693,
          "durationTicks": 12,
          "midi": 46,
          "name": "A#2",
          "ticks": 10819,
          "time": 125.80232558139535,
          "velocity": 0.3464566929133858
        },
        {
          "duration": 0.11627906976744384,
          "durationTicks": 10,
          "midi": 58,
          "name": "A#3",
          "ticks": 10833,
          "time": 125.96511627906976,
          "velocity": 0.3858267716535433
        },
        {
          "duration": 0.023255813953483084,
          "durationTicks": 2,
          "midi": 53,
          "name": "F3",
          "ticks": 10834,
          "time": 125.97674418604652,
          "velocity": 0.4251968503937008
        },
        {
          "duration": 0.09302325581394655,
          "durationTicks": 8,
          "midi": 46,
          "name": "A#2",
          "ticks": 10835,
          "time": 125.98837209302326,
          "velocity": 0.4015748031496063
        },
        {
          "duration": 0.03488372093023884,
          "durationTicks": 3,
          "midi": 55,
          "name": "G3",
          "ticks": 10843,
          "time": 126.0813953488372,
          "velocity": 0.4409448818897638
        },
        {
          "duration": 0.023255813953497295,
          "durationTicks": 2,
          "midi": 46,
          "name": "A#2",
          "ticks": 10844,
          "time": 126.09302325581395,
          "velocity": 0.3228346456692913
        },
        {
          "duration": 0.023255813953483084,
          "durationTicks": 2,
          "midi": 56,
          "name": "G#3",
          "ticks": 10846,
          "time": 126.11627906976744,
          "velocity": 0.4094488188976378
        },
        {
          "duration": 0.023255813953497295,
          "durationTicks": 2,
          "midi": 45,
          "name": "A2",
          "ticks": 10848,
          "time": 126.13953488372093,
          "velocity": 0.4330708661417323
        },
        {
          "duration": 0.04651162790698038,
          "durationTicks": 4,
          "midi": 56,
          "name": "G#3",
          "ticks": 10849,
          "time": 126.15116279069767,
          "velocity": 0.25984251968503935
        },
        {
          "duration": 0.034883720930224626,
          "durationTicks": 3,
          "midi": 46,
          "name": "A#2",
          "ticks": 10850,
          "time": 126.16279069767442,
          "velocity": 0.36220472440944884
        },
        {
          "duration": 0.04651162790696617,
          "durationTicks": 4,
          "midi": 45,
          "name": "A2",
          "ticks": 10856,
          "time": 126.23255813953489,
          "velocity": 0.4566929133858268
        },
        {
          "duration": 0.023255813953483084,
          "durationTicks": 2,
          "midi": 53,
          "name": "F3",
          "ticks": 10856,
          "time": 126.23255813953489,
          "velocity": 0.3937007874015748
        },
        {
          "duration": 0.05813953488372192,
          "durationTicks": 5,
          "midi": 53,
          "name": "F3",
          "ticks": 10859,
          "time": 126.26744186046511,
          "velocity": 0.4015748031496063
        },
        {
          "duration": 0.023255813953497295,
          "durationTicks": 2,
          "midi": 58,
          "name": "A#3",
          "ticks": 10859,
          "time": 126.26744186046511,
          "velocity": 0.28346456692913385
        },
        {
          "duration": 0.05813953488372192,
          "durationTicks": 5,
          "midi": 46,
          "name": "A#2",
          "ticks": 10860,
          "time": 126.27906976744185,
          "velocity": 0.3700787401574803
        },
        {
          "duration": 0.04651162790696617,
          "durationTicks": 4,
          "midi": 81,
          "name": "A5",
          "ticks": 10866,
          "time": 126.34883720930233,
          "velocity": 0.12598425196850394
        },
        {
          "duration": 0.04651162790698038,
          "durationTicks": 4,
          "midi": 53,
          "name": "F3",
          "ticks": 10867,
          "time": 126.36046511627907,
          "velocity": 0.5039370078740157
        },
        {
          "duration": 0.09302325581394655,
          "durationTicks": 8,
          "midi": 74,
          "name": "D5",
          "ticks": 10868,
          "time": 126.37209302325581,
          "velocity": 0.15748031496062992
        },
        {
          "duration": 0.03488372093023884,
          "durationTicks": 3,
          "midi": 70,
          "name": "A#4",
          "ticks": 10869,
          "time": 126.38372093023256,
          "velocity": 0.08661417322834646
        },
        {
          "duration": 0.03488372093023884,
          "durationTicks": 3,
          "midi": 84,
          "name": "C6",
          "ticks": 10869,
          "time": 126.38372093023256,
          "velocity": 0.08661417322834646
        },
        {
          "duration": 0.2093023255814046,
          "durationTicks": 18,
          "midi": 58,
          "name": "A#3",
          "ticks": 10870,
          "time": 126.3953488372093,
          "velocity": 0.3937007874015748
        },
        {
          "duration": 0.05813953488370771,
          "durationTicks": 5,
          "midi": 46,
          "name": "A#2",
          "ticks": 10871,
          "time": 126.40697674418605,
          "velocity": 0.3700787401574803
        },
        {
          "duration": 0.15116279069766847,
          "durationTicks": 13,
          "midi": 53,
          "name": "F3",
          "ticks": 10872,
          "time": 126.4186046511628,
          "velocity": 0.44881889763779526
        },
        {
          "duration": 0.03488372093023884,
          "durationTicks": 3,
          "midi": 78,
          "name": "F#5",
          "ticks": 10874,
          "time": 126.44186046511628,
          "velocity": 0.25196850393700787
        },
        {
          "duration": 0.06976744186047767,
          "durationTicks": 6,
          "midi": 84,
          "name": "C6",
          "ticks": 10876,
          "time": 126.46511627906976,
          "velocity": 0.15748031496062992
        },
        {
          "duration": 0.3720930232558146,
          "durationTicks": 32,
          "midi": 46,
          "name": "A#2",
          "ticks": 10877,
          "time": 126.47674418604652,
          "velocity": 0.41732283464566927
        },
        {
          "duration": 0.23255813953487348,
          "durationTicks": 20,
          "midi": 77,
          "name": "F5",
          "ticks": 10877,
          "time": 126.47674418604652,
          "velocity": 0.2047244094488189
        },
        {
          "duration": 0.04651162790698038,
          "durationTicks": 4,
          "midi": 100,
          "name": "E7",
          "ticks": 10879,
          "time": 126.5,
          "velocity": 0.1889763779527559
        },
        {
          "duration": 0.30232558139535115,
          "durationTicks": 26,
          "midi": 72,
          "name": "C5",
          "ticks": 10880,
          "time": 126.51162790697674,
          "velocity": 0.29133858267716534
        },
        {
          "duration": 0.06976744186046346,
          "durationTicks": 6,
          "midi": 53,
          "name": "F3",
          "ticks": 10890,
          "time": 126.62790697674419,
          "velocity": 0.3700787401574803
        },
        {
          "duration": 0.023255813953497295,
          "durationTicks": 2,
          "midi": 52,
          "name": "E3",
          "ticks": 10896,
          "time": 126.69767441860465,
          "velocity": 0.29133858267716534
        },
        {
          "duration": 0.04651162790696617,
          "durationTicks": 4,
          "midi": 64,
          "name": "E4",
          "ticks": 10899,
          "time": 126.73255813953489,
          "velocity": 0.14173228346456693
        },
        {
          "duration": 0.023255813953483084,
          "durationTicks": 2,
          "midi": 53,
          "name": "F3",
          "ticks": 10900,
          "time": 126.74418604651163,
          "velocity": 0.3464566929133858
        },
        {
          "duration": 0.023255813953497295,
          "durationTicks": 2,
          "midi": 53,
          "name": "F3",
          "ticks": 10903,
          "time": 126.77906976744185,
          "velocity": 0.2440944881889764
        },
        {
          "duration": 0.023255813953483084,
          "durationTicks": 2,
          "midi": 55,
          "name": "G3",
          "ticks": 10909,
          "time": 126.84883720930233,
          "velocity": 0.4566929133858268
        },
        {
          "duration": 0.38372093023255616,
          "durationTicks": 33,
          "midi": 65,
          "name": "F4",
          "ticks": 10910,
          "time": 126.86046511627907,
          "velocity": 0.3228346456692913
        },
        {
          "duration": 0.081395348837205,
          "durationTicks": 7,
          "midi": 53,
          "name": "F3",
          "ticks": 10911,
          "time": 126.87209302325581,
          "velocity": 0.4645669291338583
        },
        {
          "duration": 0.09302325581396076,
          "durationTicks": 8,
          "midi": 74,
          "name": "D5",
          "ticks": 10912,
          "time": 126.88372093023256,
          "velocity": 0.09448818897637795
        },
        {
          "duration": 0.023255813953497295,
          "durationTicks": 2,
          "midi": 46,
          "name": "A#2",
          "ticks": 10913,
          "time": 126.8953488372093,
          "velocity": 0.33858267716535434
        },
        {
          "duration": 0.023255813953483084,
          "durationTicks": 2,
          "midi": 46,
          "name": "A#2",
          "ticks": 10916,
          "time": 126.93023255813954,
          "velocity": 0.3779527559055118
        },
        {
          "duration": 0.03488372093023884,
          "durationTicks": 3,
          "midi": 81,
          "name": "A5",
          "ticks": 10918,
          "time": 126.95348837209302,
          "velocity": 0.07086614173228346
        },
        {
          "duration": 0.12790697674418539,
          "durationTicks": 11,
          "midi": 57,
          "name": "A3",
          "ticks": 10919,
          "time": 126.96511627906976,
          "velocity": 0.5039370078740157
        },
        {
          "duration": 0.05813953488372192,
          "durationTicks": 5,
          "midi": 76,
          "name": "E5",
          "ticks": 10919,
          "time": 126.96511627906976,
          "velocity": 0.14960629921259844
        },
        {
          "duration": 0.05813953488372192,
          "durationTicks": 5,
          "midi": 74,
          "name": "D5",
          "ticks": 10921,
          "time": 126.98837209302326,
          "velocity": 0.28346456692913385
        },
        {
          "duration": 0.023255813953483084,
          "durationTicks": 2,
          "midi": 45,
          "name": "A2",
          "ticks": 10922,
          "time": 127,
          "velocity": 0.3779527559055118
        },
        {
          "duration": 0.03488372093023884,
          "durationTicks": 3,
          "midi": 53,
          "name": "F3",
          "ticks": 10923,
          "time": 127.01162790697674,
          "velocity": 0.33070866141732286
        },
        {
          "duration": 0.04651162790698038,
          "durationTicks": 4,
          "midi": 46,
          "name": "A#2",
          "ticks": 10924,
          "time": 127.02325581395348,
          "velocity": 0.3700787401574803
        },
        {
          "duration": 0.08139534883721922,
          "durationTicks": 7,
          "midi": 103,
          "name": "G7",
          "ticks": 10924,
          "time": 127.02325581395348,
          "velocity": 0.14960629921259844
        },
        {
          "duration": 0.2093023255813904,
          "durationTicks": 18,
          "midi": 76,
          "name": "E5",
          "ticks": 10925,
          "time": 127.03488372093024,
          "velocity": 0.14960629921259844
        },
        {
          "duration": 0.19767441860464885,
          "durationTicks": 17,
          "midi": 88,
          "name": "E6",
          "ticks": 10925,
          "time": 127.03488372093024,
          "velocity": 0.1732283464566929
        },
        {
          "duration": 0.22093023255813193,
          "durationTicks": 19,
          "midi": 89,
          "name": "F6",
          "ticks": 10926,
          "time": 127.04651162790698,
          "velocity": 0.11811023622047244
        },
        {
          "duration": 0.04651162790698038,
          "durationTicks": 4,
          "midi": 46,
          "name": "A#2",
          "ticks": 10929,
          "time": 127.0813953488372,
          "velocity": 0.3464566929133858
        },
        {
          "duration": 0.023255813953497295,
          "durationTicks": 2,
          "midi": 58,
          "name": "A#3",
          "ticks": 10930,
          "time": 127.09302325581395,
          "velocity": 0.41732283464566927
        },
        {
          "duration": 0.1046511627907023,
          "durationTicks": 9,
          "midi": 53,
          "name": "F3",
          "ticks": 10933,
          "time": 127.12790697674419,
          "velocity": 0.41732283464566927
        },
        {
          "duration": 0.11627906976744384,
          "durationTicks": 10,
          "midi": 46,
          "name": "A#2",
          "ticks": 10934,
          "time": 127.13953488372093,
          "velocity": 0.41732283464566927
        },
        {
          "duration": 0.2093023255814046,
          "durationTicks": 18,
          "midi": 74,
          "name": "D5",
          "ticks": 10934,
          "time": 127.13953488372093,
          "velocity": 0.11811023622047244
        },
        {
          "duration": 0.11627906976744384,
          "durationTicks": 10,
          "midi": 57,
          "name": "A3",
          "ticks": 10935,
          "time": 127.15116279069767,
          "velocity": 0.4881889763779528
        },
        {
          "duration": 0.023255813953483084,
          "durationTicks": 2,
          "midi": 64,
          "name": "E4",
          "ticks": 10943,
          "time": 127.24418604651163,
          "velocity": 0.2992125984251969
        },
        {
          "duration": 0.05813953488372192,
          "durationTicks": 5,
          "midi": 77,
          "name": "F5",
          "ticks": 10943,
          "time": 127.24418604651163,
          "velocity": 0.11811023622047244
        },
        {
          "duration": 0.05813953488372192,
          "durationTicks": 5,
          "midi": 84,
          "name": "C6",
          "ticks": 10943,
          "time": 127.24418604651163,
          "velocity": 0.14960629921259844
        },
        {
          "duration": 0.1046511627907023,
          "durationTicks": 9,
          "midi": 72,
          "name": "C5",
          "ticks": 10944,
          "time": 127.25581395348837,
          "velocity": 0.14173228346456693
        },
        {
          "duration": 0.023255813953497295,
          "durationTicks": 2,
          "midi": 53,
          "name": "F3",
          "ticks": 10945,
          "time": 127.26744186046511,
          "velocity": 0.3858267716535433
        },
        {
          "duration": 0.023255813953497295,
          "durationTicks": 2,
          "midi": 58,
          "name": "A#3",
          "ticks": 10945,
          "time": 127.26744186046511,
          "velocity": 0.4251968503937008
        },
        {
          "duration": 0.04651162790698038,
          "durationTicks": 4,
          "midi": 45,
          "name": "A2",
          "ticks": 10946,
          "time": 127.27906976744185,
          "velocity": 0.31496062992125984
        },
        {
          "duration": 0.023255813953483084,
          "durationTicks": 2,
          "midi": 53,
          "name": "F3",
          "ticks": 10948,
          "time": 127.30232558139535,
          "velocity": 0.3543307086614173
        },
        {
          "duration": 0.03488372093023884,
          "durationTicks": 3,
          "midi": 57,
          "name": "A3",
          "ticks": 10949,
          "time": 127.31395348837209,
          "velocity": 0.44881889763779526
        },
        {
          "duration": 0.03488372093023884,
          "durationTicks": 3,
          "midi": 75,
          "name": "D#5",
          "ticks": 10950,
          "time": 127.32558139534883,
          "velocity": 0.10236220472440945
        },
        {
          "duration": 0.04651162790696617,
          "durationTicks": 4,
          "midi": 56,
          "name": "G#3",
          "ticks": 10952,
          "time": 127.34883720930233,
          "velocity": 0.4645669291338583
        },
        {
          "duration": 0.023255813953483084,
          "durationTicks": 2,
          "midi": 46,
          "name": "A#2",
          "ticks": 10953,
          "time": 127.36046511627907,
          "velocity": 0.31496062992125984
        },
        {
          "duration": 0.03488372093023884,
          "durationTicks": 3,
          "midi": 66,
          "name": "F#4",
          "ticks": 10954,
          "time": 127.37209302325581,
          "velocity": 0.08661417322834646
        },
        {
          "duration": 0.023255813953497295,
          "durationTicks": 2,
          "midi": 47,
          "name": "B2",
          "ticks": 10955,
          "time": 127.38372093023256,
          "velocity": 0.3228346456692913
        },
        {
          "duration": 0.06976744186046346,
          "durationTicks": 6,
          "midi": 55,
          "name": "G3",
          "ticks": 10956,
          "time": 127.3953488372093,
          "velocity": 0.5118110236220472
        },
        {
          "duration": 0.06976744186046346,
          "durationTicks": 6,
          "midi": 48,
          "name": "C3",
          "ticks": 10957,
          "time": 127.40697674418605,
          "velocity": 0.2992125984251969
        },
        {
          "duration": 0.023255813953497295,
          "durationTicks": 2,
          "midi": 54,
          "name": "F#3",
          "ticks": 10962,
          "time": 127.46511627906976,
          "velocity": 0.5275590551181102
        },
        {
          "duration": 0.05813953488372192,
          "durationTicks": 5,
          "midi": 83,
          "name": "B5",
          "ticks": 10962,
          "time": 127.46511627906976,
          "velocity": 0.14173228346456693
        },
        {
          "duration": 0.023255813953483084,
          "durationTicks": 2,
          "midi": 47,
          "name": "B2",
          "ticks": 10963,
          "time": 127.47674418604652,
          "velocity": 0.33070866141732286
        },
        {
          "duration": 0.2906976744185954,
          "durationTicks": 25,
          "midi": 74,
          "name": "D5",
          "ticks": 10963,
          "time": 127.47674418604652,
          "velocity": 0.18110236220472442
        },
        {
          "duration": 0.30232558139535115,
          "durationTicks": 26,
          "midi": 55,
          "name": "G3",
          "ticks": 10964,
          "time": 127.48837209302326,
          "velocity": 0.5748031496062992
        },
        {
          "duration": 0.27906976744185386,
          "durationTicks": 24,
          "midi": 76,
          "name": "E5",
          "ticks": 10965,
          "time": 127.5,
          "velocity": 0.15748031496062992
        },
        {
          "duration": 0.023255813953497295,
          "durationTicks": 2,
          "midi": 45,
          "name": "A2",
          "ticks": 10966,
          "time": 127.51162790697674,
          "velocity": 0.3228346456692913
        },
        {
          "duration": 0.3488372093023173,
          "durationTicks": 30,
          "midi": 79,
          "name": "G5",
          "ticks": 10968,
          "time": 127.53488372093024,
          "velocity": 0.29133858267716534
        },
        {
          "duration": 0.06976744186046346,
          "durationTicks": 6,
          "midi": 101,
          "name": "F7",
          "ticks": 10968,
          "time": 127.53488372093024,
          "velocity": 0.13385826771653545
        },
        {
          "duration": 0.46511627906976116,
          "durationTicks": 40,
          "midi": 60,
          "name": "C4",
          "ticks": 10969,
          "time": 127.54651162790698,
          "velocity": 0.3543307086614173
        },
        {
          "duration": 0.3139534883720927,
          "durationTicks": 27,
          "midi": 83,
          "name": "B5",
          "ticks": 10970,
          "time": 127.55813953488372,
          "velocity": 0.13385826771653545
        },
        {
          "duration": 0.40697674418605345,
          "durationTicks": 35,
          "midi": 48,
          "name": "C3",
          "ticks": 10971,
          "time": 127.56976744186046,
          "velocity": 0.3937007874015748
        },
        {
          "duration": 0.04651162790698038,
          "durationTicks": 4,
          "midi": 86,
          "name": "D6",
          "ticks": 10988,
          "time": 127.76744186046511,
          "velocity": 0.13385826771653545
        },
        {
          "duration": 0.2093023255813904,
          "durationTicks": 18,
          "midi": 76,
          "name": "E5",
          "ticks": 10990,
          "time": 127.79069767441861,
          "velocity": 0.14173228346456693
        },
        {
          "duration": 0.09302325581394655,
          "durationTicks": 8,
          "midi": 55,
          "name": "G3",
          "ticks": 10991,
          "time": 127.80232558139535,
          "velocity": 0.5196850393700787
        },
        {
          "duration": 0.03488372093023884,
          "durationTicks": 3,
          "midi": 78,
          "name": "F#5",
          "ticks": 10998,
          "time": 127.88372093023256,
          "velocity": 0.2125984251968504
        },
        {
          "duration": 0.023255813953497295,
          "durationTicks": 2,
          "midi": 56,
          "name": "G#3",
          "ticks": 10999,
          "time": 127.8953488372093,
          "velocity": 0.33858267716535434
        },
        {
          "duration": 0.06976744186046346,
          "durationTicks": 6,
          "midi": 55,
          "name": "G3",
          "ticks": 11001,
          "time": 127.9186046511628,
          "velocity": 0.3937007874015748
        },
        {
          "duration": 0.023255813953483084,
          "durationTicks": 2,
          "midi": 65,
          "name": "F4",
          "ticks": 11007,
          "time": 127.98837209302326,
          "velocity": 0.25196850393700787
        },
        {
          "duration": 0.04651162790696617,
          "durationTicks": 4,
          "midi": 53,
          "name": "F3",
          "ticks": 11008,
          "time": 128,
          "velocity": 0.5275590551181102
        },
        {
          "duration": 0.3720930232558146,
          "durationTicks": 32,
          "midi": 77,
          "name": "F5",
          "ticks": 11010,
          "time": 128.02325581395348,
          "velocity": 0.2755905511811024
        },
        {
          "duration": 0.023255813953483084,
          "durationTicks": 2,
          "midi": 60,
          "name": "C4",
          "ticks": 11011,
          "time": 128.03488372093022,
          "velocity": 0.2677165354330709
        },
        {
          "duration": 0.33720930232559,
          "durationTicks": 29,
          "midi": 84,
          "name": "C6",
          "ticks": 11011,
          "time": 128.03488372093022,
          "velocity": 0.2125984251968504
        },
        {
          "duration": 0.03488372093025305,
          "durationTicks": 3,
          "midi": 98,
          "name": "D7",
          "ticks": 11011,
          "time": 128.03488372093022,
          "velocity": 0.18110236220472442
        },
        {
          "duration": 0.08139534883721922,
          "durationTicks": 7,
          "midi": 101,
          "name": "F7",
          "ticks": 11012,
          "time": 128.04651162790697,
          "velocity": 0.13385826771653545
        },
        {
          "duration": 0.023255813953511506,
          "durationTicks": 2,
          "midi": 56,
          "name": "G#3",
          "ticks": 11013,
          "time": 128.0581395348837,
          "velocity": 0.4330708661417323
        },
        {
          "duration": 0.0813953488371908,
          "durationTicks": 7,
          "midi": 60,
          "name": "C4",
          "ticks": 11014,
          "time": 128.06976744186048,
          "velocity": 0.23622047244094488
        },
        {
          "duration": 0.034883720930224626,
          "durationTicks": 3,
          "midi": 81,
          "name": "A5",
          "ticks": 11014,
          "time": 128.06976744186048,
          "velocity": 0.14960629921259844
        },
        {
          "duration": 0.10465116279067388,
          "durationTicks": 9,
          "midi": 97,
          "name": "C#7",
          "ticks": 11014,
          "time": 128.06976744186048,
          "velocity": 0.14173228346456693
        },
        {
          "duration": 0.034883720930224626,
          "durationTicks": 3,
          "midi": 55,
          "name": "G3",
          "ticks": 11015,
          "time": 128.08139534883722,
          "velocity": 0.49606299212598426
        },
        {
          "duration": 0.034883720930224626,
          "durationTicks": 3,
          "midi": 70,
          "name": "A#4",
          "ticks": 11015,
          "time": 128.08139534883722,
          "velocity": 0.25196850393700787
        },
        {
          "duration": 0.06976744186044925,
          "durationTicks": 6,
          "midi": 99,
          "name": "D#7",
          "ticks": 11017,
          "time": 128.1046511627907,
          "velocity": 0.08661417322834646
        },
        {
          "duration": 0.05813953488370771,
          "durationTicks": 5,
          "midi": 48,
          "name": "C3",
          "ticks": 11018,
          "time": 128.11627906976744,
          "velocity": 0.3464566929133858
        },
        {
          "duration": 0.023255813953483084,
          "durationTicks": 2,
          "midi": 54,
          "name": "F#3",
          "ticks": 11019,
          "time": 128.12790697674419,
          "velocity": 0.44881889763779526
        },
        {
          "duration": 0.2674418604651123,
          "durationTicks": 23,
          "midi": 65,
          "name": "F4",
          "ticks": 11020,
          "time": 128.13953488372093,
          "velocity": 0.33070866141732286
        },
        {
          "duration": 0.2325581395348877,
          "durationTicks": 20,
          "midi": 81,
          "name": "A5",
          "ticks": 11022,
          "time": 128.1627906976744,
          "velocity": 0.07086614173228346
        },
        {
          "duration": 0.023255813953511506,
          "durationTicks": 2,
          "midi": 56,
          "name": "G#3",
          "ticks": 11023,
          "time": 128.17441860465115,
          "velocity": 0.4094488188976378
        },
        {
          "duration": 0.034883720930224626,
          "durationTicks": 3,
          "midi": 55,
          "name": "G3",
          "ticks": 11025,
          "time": 128.19767441860466,
          "velocity": 0.49606299212598426
        },
        {
          "duration": 0.023255813953483084,
          "durationTicks": 2,
          "midi": 55,
          "name": "G3",
          "ticks": 11029,
          "time": 128.24418604651163,
          "velocity": 0.4330708661417323
        },
        {
          "duration": 0.09302325581393234,
          "durationTicks": 8,
          "midi": 60,
          "name": "C4",
          "ticks": 11035,
          "time": 128.3139534883721,
          "velocity": 0.25984251968503935
        },
        {
          "duration": 0.05813953488370771,
          "durationTicks": 5,
          "midi": 48,
          "name": "C3",
          "ticks": 11037,
          "time": 128.3372093023256,
          "velocity": 0.3858267716535433
        },
        {
          "duration": 0.023255813953483084,
          "durationTicks": 2,
          "midi": 55,
          "name": "G3",
          "ticks": 11037,
          "time": 128.3372093023256,
          "velocity": 0.44881889763779526
        },
        {
          "duration": 0.034883720930224626,
          "durationTicks": 3,
          "midi": 55,
          "name": "G3",
          "ticks": 11040,
          "time": 128.37209302325581,
          "velocity": 0.4409448818897638
        },
        {
          "duration": 0.023255813953511506,
          "durationTicks": 2,
          "midi": 57,
          "name": "A3",
          "ticks": 11044,
          "time": 128.41860465116278,
          "velocity": 0.47244094488188976
        },
        {
          "duration": 0.12790697674418539,
          "durationTicks": 11,
          "midi": 79,
          "name": "G5",
          "ticks": 11044,
          "time": 128.41860465116278,
          "velocity": 0.18110236220472442
        },
        {
          "duration": 0.12790697674418539,
          "durationTicks": 11,
          "midi": 55,
          "name": "G3",
          "ticks": 11045,
          "time": 128.43023255813952,
          "velocity": 0.5275590551181102
        },
        {
          "duration": 0.67441860465118,
          "durationTicks": 58,
          "midi": 76,
          "name": "E5",
          "ticks": 11045,
          "time": 128.43023255813952,
          "velocity": 0.31496062992125984
        },
        {
          "duration": 0.04651162790696617,
          "durationTicks": 4,
          "midi": 60,
          "name": "C4",
          "ticks": 11047,
          "time": 128.45348837209303,
          "velocity": 0.11023622047244094
        },
        {
          "duration": 0.034883720930224626,
          "durationTicks": 3,
          "midi": 48,
          "name": "C3",
          "ticks": 11050,
          "time": 128.48837209302326,
          "velocity": 0.4015748031496063
        },
        {
          "duration": 0.33720930232559,
          "durationTicks": 29,
          "midi": 64,
          "name": "E4",
          "ticks": 11054,
          "time": 128.53488372093022,
          "velocity": 0.33858267716535434
        },
        {
          "duration": 0.45348837209303383,
          "durationTicks": 39,
          "midi": 83,
          "name": "B5",
          "ticks": 11054,
          "time": 128.53488372093022,
          "velocity": 0.30708661417322836
        },
        {
          "duration": 0.43023255813955075,
          "durationTicks": 37,
          "midi": 71,
          "name": "B4",
          "ticks": 11055,
          "time": 128.54651162790697,
          "velocity": 0.25196850393700787
        },
        {
          "duration": 0.06976744186044925,
          "durationTicks": 6,
          "midi": 55,
          "name": "G3",
          "ticks": 11057,
          "time": 128.56976744186048,
          "velocity": 0.5511811023622047
        },
        {
          "duration": 0.09302325581393234,
          "durationTicks": 8,
          "midi": 79,
          "name": "G5",
          "ticks": 11059,
          "time": 128.59302325581396,
          "velocity": 0.13385826771653545
        },
        {
          "duration": 0.034883720930224626,
          "durationTicks": 3,
          "midi": 98,
          "name": "D7",
          "ticks": 11059,
          "time": 128.59302325581396,
          "velocity": 0.11023622047244094
        },
        {
          "duration": 0.04651162790696617,
          "durationTicks": 4,
          "midi": 60,
          "name": "C4",
          "ticks": 11062,
          "time": 128.62790697674419,
          "velocity": 0.14173228346456693
        },
        {
          "duration": 0.05813953488373613,
          "durationTicks": 5,
          "midi": 102,
          "name": "F#7",
          "ticks": 11064,
          "time": 128.65116279069767,
          "velocity": 0.11023622047244094
        },
        {
          "duration": 0.10465116279067388,
          "durationTicks": 9,
          "midi": 60,
          "name": "C4",
          "ticks": 11068,
          "time": 128.69767441860466,
          "velocity": 0.2047244094488189
        },
        {
          "duration": 0.04651162790696617,
          "durationTicks": 4,
          "midi": 55,
          "name": "G3",
          "ticks": 11070,
          "time": 128.72093023255815,
          "velocity": 0.47244094488188976
        },
        {
          "duration": 0.06976744186044925,
          "durationTicks": 6,
          "midi": 79,
          "name": "G5",
          "ticks": 11070,
          "time": 128.72093023255815,
          "velocity": 0.07086614173228346
        },
        {
          "duration": 0.034883720930224626,
          "durationTicks": 3,
          "midi": 102,
          "name": "F#7",
          "ticks": 11073,
          "time": 128.75581395348837,
          "velocity": 0.07874015748031496
        },
        {
          "duration": 0.18604651162792152,
          "durationTicks": 16,
          "midi": 92,
          "name": "G#6",
          "ticks": 11074,
          "time": 128.7674418604651,
          "velocity": 0.12598425196850394
        },
        {
          "duration": 0.023255813953483084,
          "durationTicks": 2,
          "midi": 55,
          "name": "G3",
          "ticks": 11075,
          "time": 128.77906976744185,
          "velocity": 0.4330708661417323
        },
        {
          "duration": 0.10465116279067388,
          "durationTicks": 9,
          "midi": 60,
          "name": "C4",
          "ticks": 11078,
          "time": 128.8139534883721,
          "velocity": 0.2992125984251969
        },
        {
          "duration": 0.034883720930224626,
          "durationTicks": 3,
          "midi": 67,
          "name": "G4",
          "ticks": 11078,
          "time": 128.8139534883721,
          "velocity": 0.14173228346456693
        },
        {
          "duration": 0.034883720930224626,
          "durationTicks": 3,
          "midi": 55,
          "name": "G3",
          "ticks": 11080,
          "time": 128.8372093023256,
          "velocity": 0.48031496062992124
        },
        {
          "duration": 0.034883720930224626,
          "durationTicks": 3,
          "midi": 52,
          "name": "E3",
          "ticks": 11084,
          "time": 128.88372093023256,
          "velocity": 0.4251968503937008
        },
        {
          "duration": 0.023255813953511506,
          "durationTicks": 2,
          "midi": 51,
          "name": "D#3",
          "ticks": 11087,
          "time": 128.91860465116278,
          "velocity": 0.3937007874015748
        },
        {
          "duration": 0.023255813953483084,
          "durationTicks": 2,
          "midi": 44,
          "name": "G#2",
          "ticks": 11089,
          "time": 128.9418604651163,
          "velocity": 0.3464566929133858
        },
        {
          "duration": 0.0813953488371908,
          "durationTicks": 7,
          "midi": 55,
          "name": "G3",
          "ticks": 11089,
          "time": 128.9418604651163,
          "velocity": 0.5039370078740157
        },
        {
          "duration": 0.32558139534882,
          "durationTicks": 28,
          "midi": 79,
          "name": "G5",
          "ticks": 11090,
          "time": 128.95348837209303,
          "velocity": 0.09448818897637795
        },
        {
          "duration": 0.1046511627907023,
          "durationTicks": 9,
          "midi": 60,
          "name": "C4",
          "ticks": 11092,
          "time": 128.97674418604652,
          "velocity": 0.2204724409448819
        },
        {
          "duration": 0.023255813953483084,
          "durationTicks": 2,
          "midi": 48,
          "name": "C3",
          "ticks": 11094,
          "time": 129,
          "velocity": 0.33070866141732286
        },
        {
          "duration": 0.023255813953483084,
          "durationTicks": 2,
          "midi": 55,
          "name": "G3",
          "ticks": 11097,
          "time": 129.03488372093022,
          "velocity": 0.3937007874015748
        },
        {
          "duration": 0.023255813953511506,
          "durationTicks": 2,
          "midi": 47,
          "name": "B2",
          "ticks": 11098,
          "time": 129.04651162790697,
          "velocity": 0.4330708661417323
        },
        {
          "duration": 0.13953488372095535,
          "durationTicks": 12,
          "midi": 65,
          "name": "F4",
          "ticks": 11099,
          "time": 129.0581395348837,
          "velocity": 0.23622047244094488
        },
        {
          "duration": 0.06976744186047767,
          "durationTicks": 6,
          "midi": 89,
          "name": "F6",
          "ticks": 11099,
          "time": 129.0581395348837,
          "velocity": 0.08661417322834646
        },
        {
          "duration": 0.023255813953483084,
          "durationTicks": 2,
          "midi": 55,
          "name": "G3",
          "ticks": 11100,
          "time": 129.06976744186048,
          "velocity": 0.5433070866141733
        },
        {
          "duration": 0.034883720930224626,
          "durationTicks": 3,
          "midi": 81,
          "name": "A5",
          "ticks": 11100,
          "time": 129.06976744186048,
          "velocity": 0.12598425196850394
        },
        {
          "duration": 0.034883720930224626,
          "durationTicks": 3,
          "midi": 70,
          "name": "A#4",
          "ticks": 11101,
          "time": 129.08139534883722,
          "velocity": 0.09448818897637795
        },
        {
          "duration": 0.023255813953483084,
          "durationTicks": 2,
          "midi": 56,
          "name": "G#3",
          "ticks": 11102,
          "time": 129.09302325581396,
          "velocity": 0.4881889763779528
        },
        {
          "duration": 0.11627906976744384,
          "durationTicks": 10,
          "midi": 60,
          "name": "C4",
          "ticks": 11102,
          "time": 129.09302325581396,
          "velocity": 0.25984251968503935
        },
        {
          "duration": 0.25581395348837077,
          "durationTicks": 22,
          "midi": 77,
          "name": "F5",
          "ticks": 11103,
          "time": 129.1046511627907,
          "velocity": 0.2440944881889764
        },
        {
          "duration": 0.2674418604651123,
          "durationTicks": 23,
          "midi": 84,
          "name": "C6",
          "ticks": 11103,
          "time": 129.1046511627907,
          "velocity": 0.2047244094488189
        },
        {
          "duration": 0.2325581395348877,
          "durationTicks": 20,
          "midi": 101,
          "name": "F7",
          "ticks": 11104,
          "time": 129.11627906976744,
          "velocity": 0.14173228346456693
        },
        {
          "duration": 0.04651162790696617,
          "durationTicks": 4,
          "midi": 99,
          "name": "D#7",
          "ticks": 11105,
          "time": 129.12790697674419,
          "velocity": 0.07874015748031496
        },
        {
          "duration": 0.19767441860466306,
          "durationTicks": 17,
          "midi": 81,
          "name": "A5",
          "ticks": 11107,
          "time": 129.15116279069767,
          "velocity": 0.09448818897637795
        },
        {
          "duration": 0.023255813953483084,
          "durationTicks": 2,
          "midi": 53,
          "name": "F3",
          "ticks": 11108,
          "time": 129.1627906976744,
          "velocity": 0.4409448818897638
        },
        {
          "duration": 0.023255813953483084,
          "durationTicks": 2,
          "midi": 56,
          "name": "G#3",
          "ticks": 11112,
          "time": 129.2093023255814,
          "velocity": 0.3858267716535433
        },
        {
          "duration": 0.023255813953483084,
          "durationTicks": 2,
          "midi": 49,
          "name": "C#3",
          "ticks": 11114,
          "time": 129.2325581395349,
          "velocity": 0.3464566929133858
        },
        {
          "duration": 0.04651162790696617,
          "durationTicks": 4,
          "midi": 55,
          "name": "G3",
          "ticks": 11114,
          "time": 129.2325581395349,
          "velocity": 0.49606299212598426
        },
        {
          "duration": 0.06976744186047767,
          "durationTicks": 6,
          "midi": 60,
          "name": "C4",
          "ticks": 11115,
          "time": 129.24418604651163,
          "velocity": 0.2283464566929134
        },
        {
          "duration": 0.1046511627907023,
          "durationTicks": 9,
          "midi": 65,
          "name": "F4",
          "ticks": 11115,
          "time": 129.24418604651163,
          "velocity": 0.2204724409448819
        },
        {
          "duration": 0.03488372093025305,
          "durationTicks": 3,
          "midi": 48,
          "name": "C3",
          "ticks": 11119,
          "time": 129.2906976744186,
          "velocity": 0.36220472440944884
        },
        {
          "duration": 0.06976744186047767,
          "durationTicks": 6,
          "midi": 53,
          "name": "F3",
          "ticks": 11119,
          "time": 129.2906976744186,
          "velocity": 0.3543307086614173
        },
        {
          "duration": 0.06976744186044925,
          "durationTicks": 6,
          "midi": 91,
          "name": "G6",
          "ticks": 11123,
          "time": 129.3372093023256,
          "velocity": 0.23622047244094488
        },
        {
          "duration": 0.023255813953483084,
          "durationTicks": 2,
          "midi": 64,
          "name": "E4",
          "ticks": 11124,
          "time": 129.34883720930233,
          "velocity": 0.2677165354330709
        },
        {
          "duration": 0.05813953488370771,
          "durationTicks": 5,
          "midi": 78,
          "name": "F#5",
          "ticks": 11124,
          "time": 129.34883720930233,
          "velocity": 0.2440944881889764
        },
        {
          "duration": 0.023255813953483084,
          "durationTicks": 2,
          "midi": 45,
          "name": "A2",
          "ticks": 11125,
          "time": 129.36046511627907,
          "velocity": 0.2992125984251969
        },
        {
          "duration": 0.034883720930224626,
          "durationTicks": 3,
          "midi": 54,
          "name": "F#3",
          "ticks": 11125,
          "time": 129.36046511627907,
          "velocity": 0.44881889763779526
        },
        {
          "duration": 0.1046511627907023,
          "durationTicks": 9,
          "midi": 55,
          "name": "G3",
          "ticks": 11128,
          "time": 129.3953488372093,
          "velocity": 0.5275590551181102
        },
        {
          "duration": 0.05813953488373613,
          "durationTicks": 5,
          "midi": 74,
          "name": "D5",
          "ticks": 11128,
          "time": 129.3953488372093,
          "velocity": 0.13385826771653545
        },
        {
          "duration": 0.05813953488373613,
          "durationTicks": 5,
          "midi": 45,
          "name": "A2",
          "ticks": 11131,
          "time": 129.43023255813952,
          "velocity": 0.30708661417322836
        },
        {
          "duration": 0.023255813953483084,
          "durationTicks": 2,
          "midi": 68,
          "name": "G#4",
          "ticks": 11132,
          "time": 129.4418604651163,
          "velocity": 0.2283464566929134
        },
        {
          "duration": 0.023255813953483084,
          "durationTicks": 2,
          "midi": 61,
          "name": "C#4",
          "ticks": 11134,
          "time": 129.46511627906978,
          "velocity": 0.33858267716535434
        },
        {
          "duration": 0.0813953488371908,
          "durationTicks": 7,
          "midi": 74,
          "name": "D5",
          "ticks": 11135,
          "time": 129.47674418604652,
          "velocity": 0.14173228346456693
        },
        {
          "duration": 0.034883720930224626,
          "durationTicks": 3,
          "midi": 44,
          "name": "G#2",
          "ticks": 11136,
          "time": 129.48837209302326,
          "velocity": 0.25196850393700787
        },
        {
          "duration": 0.11627906976744384,
          "durationTicks": 10,
          "midi": 62,
          "name": "D4",
          "ticks": 11136,
          "time": 129.48837209302326,
          "velocity": 0.29133858267716534
        },
        {
          "duration": 0.023255813953483084,
          "durationTicks": 2,
          "midi": 68,
          "name": "G#4",
          "ticks": 11136,
          "time": 129.48837209302326,
          "velocity": 0.2283464566929134
        },
        {
          "duration": 0.023255813953483084,
          "durationTicks": 2,
          "midi": 57,
          "name": "A3",
          "ticks": 11138,
          "time": 129.51162790697674,
          "velocity": 0.36220472440944884
        },
        {
          "duration": 0.08139534883721922,
          "durationTicks": 7,
          "midi": 67,
          "name": "G4",
          "ticks": 11138,
          "time": 129.51162790697674,
          "velocity": 0.1889763779527559
        },
        {
          "duration": 0.7441860465116292,
          "durationTicks": 64,
          "midi": 79,
          "name": "G5",
          "ticks": 11138,
          "time": 129.51162790697674,
          "velocity": 0.3228346456692913
        },
        {
          "duration": 0.03488372093025305,
          "durationTicks": 3,
          "midi": 44,
          "name": "G#2",
          "ticks": 11140,
          "time": 129.53488372093022,
          "velocity": 0.1732283464566929
        },
        {
          "duration": 0.023255813953483084,
          "durationTicks": 2,
          "midi": 56,
          "name": "G#3",
          "ticks": 11140,
          "time": 129.53488372093022,
          "velocity": 0.44881889763779526
        },
        {
          "duration": 0.023255813953483084,
          "durationTicks": 2,
          "midi": 50,
          "name": "D3",
          "ticks": 11143,
          "time": 129.56976744186048,
          "velocity": 0.3228346456692913
        },
        {
          "duration": 0.12790697674418539,
          "durationTicks": 11,
          "midi": 55,
          "name": "G3",
          "ticks": 11145,
          "time": 129.59302325581396,
          "velocity": 0.5354330708661418
        },
        {
          "duration": 0.30232558139533694,
          "durationTicks": 26,
          "midi": 83,
          "name": "B5",
          "ticks": 11145,
          "time": 129.59302325581396,
          "velocity": 0.1732283464566929
        },
        {
          "duration": 0.5697674418604493,
          "durationTicks": 49,
          "midi": 74,
          "name": "D5",
          "ticks": 11146,
          "time": 129.6046511627907,
          "velocity": 0.25984251968503935
        },
        {
          "duration": 0.2674418604651123,
          "durationTicks": 23,
          "midi": 85,
          "name": "C#6",
          "ticks": 11146,
          "time": 129.6046511627907,
          "velocity": 0.15748031496062992
        },
        {
          "duration": 0.30232558139533694,
          "durationTicks": 26,
          "midi": 76,
          "name": "E5",
          "ticks": 11147,
          "time": 129.61627906976744,
          "velocity": 0.14173228346456693
        },
        {
          "duration": 0.04651162790696617,
          "durationTicks": 4,
          "midi": 44,
          "name": "G#2",
          "ticks": 11148,
          "time": 129.62790697674419,
          "velocity": 0.29133858267716534
        },
        {
          "duration": 0.2325581395348877,
          "durationTicks": 20,
          "midi": 62,
          "name": "D4",
          "ticks": 11148,
          "time": 129.62790697674419,
          "velocity": 0.3779527559055118
        },
        {
          "duration": 0.06976744186047767,
          "durationTicks": 6,
          "midi": 71,
          "name": "B4",
          "ticks": 11148,
          "time": 129.62790697674419,
          "velocity": 0.14173228346456693
        },
        {
          "duration": 0.3720930232558146,
          "durationTicks": 32,
          "midi": 93,
          "name": "A6",
          "ticks": 11148,
          "time": 129.62790697674419,
          "velocity": 0.2125984251968504
        },
        {
          "duration": 0.11627906976744384,
          "durationTicks": 10,
          "midi": 101,
          "name": "F7",
          "ticks": 11149,
          "time": 129.63953488372093,
          "velocity": 0.13385826771653545
        },
        {
          "duration": 0.17441860465117998,
          "durationTicks": 15,
          "midi": 69,
          "name": "A4",
          "ticks": 11150,
          "time": 129.65116279069767,
          "velocity": 0.12598425196850394
        },
        {
          "duration": 0.06976744186044925,
          "durationTicks": 6,
          "midi": 44,
          "name": "G#2",
          "ticks": 11154,
          "time": 129.69767441860466,
          "velocity": 0.2283464566929134
        },
        {
          "duration": 0.023255813953483084,
          "durationTicks": 2,
          "midi": 56,
          "name": "G#3",
          "ticks": 11156,
          "time": 129.72093023255815,
          "velocity": 0.48031496062992124
        },
        {
          "duration": 0.023255813953483084,
          "durationTicks": 2,
          "midi": 55,
          "name": "G3",
          "ticks": 11158,
          "time": 129.74418604651163,
          "velocity": 0.44881889763779526
        },
        {
          "duration": 0.023255813953511506,
          "durationTicks": 2,
          "midi": 57,
          "name": "A3",
          "ticks": 11162,
          "time": 129.7906976744186,
          "velocity": 0.48031496062992124
        },
        {
          "duration": 0.09302325581396076,
          "durationTicks": 8,
          "midi": 101,
          "name": "F7",
          "ticks": 11162,
          "time": 129.7906976744186,
          "velocity": 0.09448818897637795
        },
        {
          "duration": 0.023255813953483084,
          "durationTicks": 2,
          "midi": 55,
          "name": "G3",
          "ticks": 11168,
          "time": 129.86046511627907,
          "velocity": 0.4251968503937008
        },
        {
          "duration": 0.13953488372092693,
          "durationTicks": 12,
          "midi": 69,
          "name": "A4",
          "ticks": 11169,
          "time": 129.87209302325581,
          "velocity": 0.2283464566929134
        },
        {
          "duration": 0.19767441860466306,
          "durationTicks": 17,
          "midi": 84,
          "name": "C6",
          "ticks": 11170,
          "time": 129.88372093023256,
          "velocity": 0.15748031496062992
        },
        {
          "duration": 0.34883720930233153,
          "durationTicks": 30,
          "midi": 62,
          "name": "D4",
          "ticks": 11171,
          "time": 129.8953488372093,
          "velocity": 0.3464566929133858
        },
        {
          "duration": 0.15116279069766847,
          "durationTicks": 13,
          "midi": 85,
          "name": "C#6",
          "ticks": 11172,
          "time": 129.90697674418604,
          "velocity": 0.10236220472440945
        },
        {
          "duration": 0.2906976744186238,
          "durationTicks": 25,
          "midi": 67,
          "name": "G4",
          "ticks": 11173,
          "time": 129.91860465116278,
          "velocity": 0.28346456692913385
        },
        {
          "duration": 0.22093023255814614,
          "durationTicks": 19,
          "midi": 83,
          "name": "B5",
          "ticks": 11173,
          "time": 129.91860465116278,
          "velocity": 0.09448818897637795
        },
        {
          "duration": 0.023255813953483084,
          "durationTicks": 2,
          "midi": 56,
          "name": "G#3",
          "ticks": 11175,
          "time": 129.9418604651163,
          "velocity": 0.44881889763779526
        },
        {
          "duration": 0.023255813953483084,
          "durationTicks": 2,
          "midi": 57,
          "name": "A3",
          "ticks": 11177,
          "time": 129.96511627906978,
          "velocity": 0.4330708661417323
        },
        {
          "duration": 0.09302325581396076,
          "durationTicks": 8,
          "midi": 50,
          "name": "D3",
          "ticks": 11182,
          "time": 130.02325581395348,
          "velocity": 0.2677165354330709
        },
        {
          "duration": 0.04651162790699459,
          "durationTicks": 4,
          "midi": 57,
          "name": "A3",
          "ticks": 11182,
          "time": 130.02325581395348,
          "velocity": 0.4409448818897638
        },
        {
          "duration": 0.034883720930224626,
          "durationTicks": 3,
          "midi": 56,
          "name": "G#3",
          "ticks": 11186,
          "time": 130.06976744186048,
          "velocity": 0.41732283464566927
        },
        {
          "duration": 0.023255813953483084,
          "durationTicks": 2,
          "midi": 55,
          "name": "G3",
          "ticks": 11190,
          "time": 130.11627906976744,
          "velocity": 0.4015748031496063
        },
        {
          "duration": 0.023255813953483084,
          "durationTicks": 2,
          "midi": 51,
          "name": "D#3",
          "ticks": 11192,
          "time": 130.13953488372093,
          "velocity": 0.4094488188976378
        },
        {
          "duration": 0.09302325581396076,
          "durationTicks": 8,
          "midi": 50,
          "name": "D3",
          "ticks": 11194,
          "time": 130.1627906976744,
          "velocity": 0.3937007874015748
        },
        {
          "duration": 0.034883720930224626,
          "durationTicks": 3,
          "midi": 61,
          "name": "C#4",
          "ticks": 11201,
          "time": 130.24418604651163,
          "velocity": 0.3543307086614173
        },
        {
          "duration": 0.05813953488370771,
          "durationTicks": 5,
          "midi": 74,
          "name": "D5",
          "ticks": 11201,
          "time": 130.24418604651163,
          "velocity": 0.2992125984251969
        },
        {
          "duration": 0.034883720930224626,
          "durationTicks": 3,
          "midi": 76,
          "name": "E5",
          "ticks": 11202,
          "time": 130.25581395348837,
          "velocity": 0.11811023622047244
        },
        {
          "duration": 0.1046511627907023,
          "durationTicks": 9,
          "midi": 56,
          "name": "G#3",
          "ticks": 11204,
          "time": 130.27906976744185,
          "velocity": 0.4251968503937008
        },
        {
          "duration": 0.09302325581396076,
          "durationTicks": 8,
          "midi": 62,
          "name": "D4",
          "ticks": 11204,
          "time": 130.27906976744185,
          "velocity": 0.2440944881889764
        },
        {
          "duration": 0.06976744186047767,
          "durationTicks": 6,
          "midi": 50,
          "name": "D3",
          "ticks": 11205,
          "time": 130.2906976744186,
          "velocity": 0.31496062992125984
        },
        {
          "duration": 0.034883720930224626,
          "durationTicks": 3,
          "midi": 61,
          "name": "C#4",
          "ticks": 11213,
          "time": 130.38372093023256,
          "velocity": 0.23622047244094488
        },
        {
          "duration": 0.09302325581396076,
          "durationTicks": 8,
          "midi": 50,
          "name": "D3",
          "ticks": 11215,
          "time": 130.40697674418604,
          "velocity": 0.3779527559055118
        },
        {
          "duration": 0.09302325581396076,
          "durationTicks": 8,
          "midi": 57,
          "name": "A3",
          "ticks": 11216,
          "time": 130.41860465116278,
          "velocity": 0.33858267716535434
        },
        {
          "duration": 0.04651162790696617,
          "durationTicks": 4,
          "midi": 68,
          "name": "G#4",
          "ticks": 11222,
          "time": 130.48837209302326,
          "velocity": 0.18110236220472442
        },
        {
          "duration": 0.05813953488370771,
          "durationTicks": 5,
          "midi": 93,
          "name": "A6",
          "ticks": 11222,
          "time": 130.48837209302326,
          "velocity": 0.1889763779527559
        },
        {
          "duration": 0.023255813953483084,
          "durationTicks": 2,
          "midi": 63,
          "name": "D#4",
          "ticks": 11223,
          "time": 130.5,
          "velocity": 0.3543307086614173
        },
        {
          "duration": 0.2093023255814046,
          "durationTicks": 18,
          "midi": 74,
          "name": "D5",
          "ticks": 11223,
          "time": 130.5,
          "velocity": 0.1889763779527559
        },
        {
          "duration": 0.05813953488370771,
          "durationTicks": 5,
          "midi": 77,
          "name": "F5",
          "ticks": 11223,
          "time": 130.5,
          "velocity": 0.25196850393700787
        },
        {
          "duration": 0.3604651162790731,
          "durationTicks": 31,
          "midi": 84,
          "name": "C6",
          "ticks": 11223,
          "time": 130.5,
          "velocity": 0.28346456692913385
        },
        {
          "duration": 0.05813953488373613,
          "durationTicks": 5,
          "midi": 62,
          "name": "D4",
          "ticks": 11225,
          "time": 130.52325581395348,
          "velocity": 0.44881889763779526
        },
        {
          "duration": 0.3720930232558146,
          "durationTicks": 32,
          "midi": 57,
          "name": "A3",
          "ticks": 11226,
          "time": 130.53488372093022,
          "velocity": 0.4330708661417323
        },
        {
          "duration": 0.04651162790699459,
          "durationTicks": 4,
          "midi": 65,
          "name": "F4",
          "ticks": 11226,
          "time": 130.53488372093022,
          "velocity": 0.41732283464566927
        },
        {
          "duration": 0.6279069767441854,
          "durationTicks": 54,
          "midi": 76,
          "name": "E5",
          "ticks": 11228,
          "time": 130.5581395348837,
          "velocity": 0.4566929133858268
        },
        {
          "duration": 0.11627906976741542,
          "durationTicks": 10,
          "midi": 92,
          "name": "G#6",
          "ticks": 11229,
          "time": 130.56976744186048,
          "velocity": 0.15748031496062992
        },
        {
          "duration": 0.19767441860463464,
          "durationTicks": 17,
          "midi": 98,
          "name": "D7",
          "ticks": 11229,
          "time": 130.56976744186048,
          "velocity": 0.14960629921259844
        },
        {
          "duration": 0.09302325581393234,
          "durationTicks": 8,
          "midi": 83,
          "name": "B5",
          "ticks": 11230,
          "time": 130.58139534883722,
          "velocity": 0.11811023622047244
        },
        {
          "duration": 0.0813953488371908,
          "durationTicks": 7,
          "midi": 93,
          "name": "A6",
          "ticks": 11230,
          "time": 130.58139534883722,
          "velocity": 0.15748031496062992
        },
        {
          "duration": 0.04651162790696617,
          "durationTicks": 4,
          "midi": 50,
          "name": "D3",
          "ticks": 11231,
          "time": 130.59302325581396,
          "velocity": 0.2755905511811024
        },
        {
          "duration": 0.034883720930224626,
          "durationTicks": 3,
          "midi": 64,
          "name": "E4",
          "ticks": 11232,
          "time": 130.6046511627907,
          "velocity": 0.4409448818897638
        },
        {
          "duration": 0.023255813953483084,
          "durationTicks": 2,
          "midi": 62,
          "name": "D4",
          "ticks": 11235,
          "time": 130.63953488372093,
          "velocity": 0.4094488188976378
        },
        {
          "duration": 0.034883720930224626,
          "durationTicks": 3,
          "midi": 79,
          "name": "G5",
          "ticks": 11235,
          "time": 130.63953488372093,
          "velocity": 0.16535433070866143
        },
        {
          "duration": 0.11627906976744384,
          "durationTicks": 10,
          "midi": 50,
          "name": "D3",
          "ticks": 11236,
          "time": 130.65116279069767,
          "velocity": 0.28346456692913385
        },
        {
          "duration": 0.03488372093025305,
          "durationTicks": 3,
          "midi": 65,
          "name": "F4",
          "ticks": 11237,
          "time": 130.6627906976744,
          "velocity": 0.4015748031496063
        },
        {
          "duration": 0.06976744186047767,
          "durationTicks": 6,
          "midi": 85,
          "name": "C#6",
          "ticks": 11237,
          "time": 130.6627906976744,
          "velocity": 0.14173228346456693
        },
        {
          "duration": 0.08139534883721922,
          "durationTicks": 7,
          "midi": 62,
          "name": "D4",
          "ticks": 11238,
          "time": 130.67441860465115,
          "velocity": 0.3779527559055118
        },
        {
          "duration": 0.034883720930224626,
          "durationTicks": 3,
          "midi": 93,
          "name": "A6",
          "ticks": 11241,
          "time": 130.7093023255814,
          "velocity": 0.08661417322834646
        },
        {
          "duration": 0.45348837209303383,
          "durationTicks": 39,
          "midi": 83,
          "name": "B5",
          "ticks": 11244,
          "time": 130.74418604651163,
          "velocity": 0.11023622047244094
        },
        {
          "duration": 0.04651162790699459,
          "durationTicks": 4,
          "midi": 64,
          "name": "E4",
          "ticks": 11246,
          "time": 130.7674418604651,
          "velocity": 0.36220472440944884
        },
        {
          "duration": 0.06976744186047767,
          "durationTicks": 6,
          "midi": 93,
          "name": "A6",
          "ticks": 11247,
          "time": 130.77906976744185,
          "velocity": 0.1889763779527559
        },
        {
          "duration": 0.0813953488371908,
          "durationTicks": 7,
          "midi": 50,
          "name": "D3",
          "ticks": 11250,
          "time": 130.8139534883721,
          "velocity": 0.2204724409448819
        },
        {
          "duration": 0.023255813953483084,
          "durationTicks": 2,
          "midi": 62,
          "name": "D4",
          "ticks": 11250,
          "time": 130.8139534883721,
          "velocity": 0.3228346456692913
        },
        {
          "duration": 0.04651162790696617,
          "durationTicks": 4,
          "midi": 62,
          "name": "D4",
          "ticks": 11253,
          "time": 130.84883720930233,
          "velocity": 0.3543307086614173
        },
        {
          "duration": 0.04651162790696617,
          "durationTicks": 4,
          "midi": 85,
          "name": "C#6",
          "ticks": 11253,
          "time": 130.84883720930233,
          "velocity": 0.12598425196850394
        },
        {
          "duration": 0.15116279069766847,
          "durationTicks": 13,
          "midi": 64,
          "name": "E4",
          "ticks": 11256,
          "time": 130.88372093023256,
          "velocity": 0.4015748031496063
        },
        {
          "duration": 0.03488372093025305,
          "durationTicks": 3,
          "midi": 56,
          "name": "G#3",
          "ticks": 11258,
          "time": 130.90697674418604,
          "velocity": 0.4409448818897638
        },
        {
          "duration": 0.03488372093025305,
          "durationTicks": 3,
          "midi": 69,
          "name": "A4",
          "ticks": 11260,
          "time": 130.93023255813952,
          "velocity": 0.08661417322834646
        },
        {
          "duration": 0.034883720930224626,
          "durationTicks": 3,
          "midi": 44,
          "name": "G#2",
          "ticks": 11261,
          "time": 130.9418604651163,
          "velocity": 0.2992125984251969
        },
        {
          "duration": 0.034883720930224626,
          "durationTicks": 3,
          "midi": 50,
          "name": "D3",
          "ticks": 11263,
          "time": 130.96511627906978,
          "velocity": 0.2992125984251969
        },
        {
          "duration": 0.7325581395348877,
          "durationTicks": 63,
          "midi": 57,
          "name": "A3",
          "ticks": 11263,
          "time": 130.96511627906978,
          "velocity": 0.4409448818897638
        },
        {
          "duration": 0.4186046511628092,
          "durationTicks": 36,
          "midi": 84,
          "name": "C6",
          "ticks": 11268,
          "time": 131.02325581395348,
          "velocity": 0.2992125984251969
        },
        {
          "duration": 0.023255813953483084,
          "durationTicks": 2,
          "midi": 61,
          "name": "C#4",
          "ticks": 11269,
          "time": 131.03488372093022,
          "velocity": 0.3228346456692913
        },
        {
          "duration": 0.1046511627907023,
          "durationTicks": 9,
          "midi": 65,
          "name": "F4",
          "ticks": 11269,
          "time": 131.03488372093022,
          "velocity": 0.4094488188976378
        },
        {
          "duration": 0.5116279069767415,
          "durationTicks": 44,
          "midi": 74,
          "name": "D5",
          "ticks": 11269,
          "time": 131.03488372093022,
          "velocity": 0.3858267716535433
        },
        {
          "duration": 0.11627906976744384,
          "durationTicks": 10,
          "midi": 93,
          "name": "A6",
          "ticks": 11269,
          "time": 131.03488372093022,
          "velocity": 0.2125984251968504
        },
        {
          "duration": 0.023255813953511506,
          "durationTicks": 2,
          "midi": 62,
          "name": "D4",
          "ticks": 11271,
          "time": 131.0581395348837,
          "velocity": 0.3543307086614173
        },
        {
          "duration": 0.25581395348837077,
          "durationTicks": 22,
          "midi": 50,
          "name": "D3",
          "ticks": 11272,
          "time": 131.06976744186048,
          "velocity": 0.28346456692913385
        },
        {
          "duration": 0.05813953488373613,
          "durationTicks": 5,
          "midi": 65,
          "name": "F4",
          "ticks": 11279,
          "time": 131.15116279069767,
          "velocity": 0.4015748031496063
        },
        {
          "duration": 0.11627906976744384,
          "durationTicks": 10,
          "midi": 62,
          "name": "D4",
          "ticks": 11282,
          "time": 131.1860465116279,
          "velocity": 0.3700787401574803
        },
        {
          "duration": 0.04651162790699459,
          "durationTicks": 4,
          "midi": 93,
          "name": "A6",
          "ticks": 11282,
          "time": 131.1860465116279,
          "velocity": 0.13385826771653545
        },
        {
          "duration": 0.05813953488370771,
          "durationTicks": 5,
          "midi": 65,
          "name": "F4",
          "ticks": 11285,
          "time": 131.22093023255815,
          "velocity": 0.31496062992125984
        },
        {
          "duration": 0.13953488372095535,
          "durationTicks": 12,
          "midi": 65,
          "name": "F4",
          "ticks": 11292,
          "time": 131.30232558139534,
          "velocity": 0.2677165354330709
        },
        {
          "duration": 0.023255813953483084,
          "durationTicks": 2,
          "midi": 45,
          "name": "A2",
          "ticks": 11294,
          "time": 131.32558139534885,
          "velocity": 0.2755905511811024
        },
        {
          "duration": 0.11627906976744384,
          "durationTicks": 10,
          "midi": 62,
          "name": "D4",
          "ticks": 11294,
          "time": 131.32558139534885,
          "velocity": 0.33070866141732286
        },
        {
          "duration": 0.0813953488371908,
          "durationTicks": 7,
          "midi": 50,
          "name": "D3",
          "ticks": 11296,
          "time": 131.34883720930233,
          "velocity": 0.2204724409448819
        },
        {
          "duration": 0.3139534883720785,
          "durationTicks": 27,
          "midi": 93,
          "name": "A6",
          "ticks": 11296,
          "time": 131.34883720930233,
          "velocity": 0.2047244094488189
        },
        {
          "duration": 0.023255813953483084,
          "durationTicks": 2,
          "midi": 63,
          "name": "D#4",
          "ticks": 11304,
          "time": 131.4418604651163,
          "velocity": 0.3543307086614173
        },
        {
          "duration": 0.04651162790696617,
          "durationTicks": 4,
          "midi": 88,
          "name": "E6",
          "ticks": 11304,
          "time": 131.4418604651163,
          "velocity": 0.07874015748031496
        },
        {
          "duration": 0.24418604651162923,
          "durationTicks": 21,
          "midi": 76,
          "name": "E5",
          "ticks": 11305,
          "time": 131.45348837209303,
          "velocity": 0.1732283464566929
        },
        {
          "duration": 0.06976744186044925,
          "durationTicks": 6,
          "midi": 102,
          "name": "F#7",
          "ticks": 11305,
          "time": 131.45348837209303,
          "velocity": 0.12598425196850394
        },
        {
          "duration": 0.023255813953483084,
          "durationTicks": 2,
          "midi": 44,
          "name": "G#2",
          "ticks": 11306,
          "time": 131.46511627906978,
          "velocity": 0.2755905511811024
        },
        {
          "duration": 0.5,
          "durationTicks": 43,
          "midi": 62,
          "name": "D4",
          "ticks": 11306,
          "time": 131.46511627906978,
          "velocity": 0.41732283464566927
        },
        {
          "duration": 0.06976744186044925,
          "durationTicks": 6,
          "midi": 50,
          "name": "D3",
          "ticks": 11308,
          "time": 131.48837209302326,
          "velocity": 0.2283464566929134
        },
        {
          "duration": 0.04651162790699459,
          "durationTicks": 4,
          "midi": 92,
          "name": "G#6",
          "ticks": 11313,
          "time": 131.54651162790697,
          "velocity": 0.07086614173228346
        },
        {
          "duration": 0.023255813953511506,
          "durationTicks": 2,
          "midi": 44,
          "name": "G#2",
          "ticks": 11314,
          "time": 131.5581395348837,
          "velocity": 0.28346456692913385
        },
        {
          "duration": 0.12790697674418539,
          "durationTicks": 11,
          "midi": 85,
          "name": "C#6",
          "ticks": 11314,
          "time": 131.5581395348837,
          "velocity": 0.28346456692913385
        },
        {
          "duration": 0.09302325581393234,
          "durationTicks": 8,
          "midi": 101,
          "name": "F7",
          "ticks": 11315,
          "time": 131.56976744186048,
          "velocity": 0.2125984251968504
        },
        {
          "duration": 0.05813953488370771,
          "durationTicks": 5,
          "midi": 73,
          "name": "C#5",
          "ticks": 11316,
          "time": 131.58139534883722,
          "velocity": 0.2992125984251969
        },
        {
          "duration": 0.09302325581393234,
          "durationTicks": 8,
          "midi": 50,
          "name": "D3",
          "ticks": 11317,
          "time": 131.59302325581396,
          "velocity": 0.25196850393700787
        },
        {
          "duration": 0.03488372093025305,
          "durationTicks": 3,
          "midi": 71,
          "name": "B4",
          "ticks": 11324,
          "time": 131.67441860465115,
          "velocity": 0.31496062992125984
        },
        {
          "duration": 0.023255813953511506,
          "durationTicks": 2,
          "midi": 43,
          "name": "G2",
          "ticks": 11325,
          "time": 131.6860465116279,
          "velocity": 0.2283464566929134
        },
        {
          "duration": 0.023255813953511506,
          "durationTicks": 2,
          "midi": 51,
          "name": "D#3",
          "ticks": 11325,
          "time": 131.6860465116279,
          "velocity": 0.23622047244094488
        },
        {
          "duration": 0.03488372093025305,
          "durationTicks": 3,
          "midi": 90,
          "name": "F#6",
          "ticks": 11325,
          "time": 131.6860465116279,
          "velocity": 0.12598425196850394
        },
        {
          "duration": 0.05813953488370771,
          "durationTicks": 5,
          "midi": 81,
          "name": "A5",
          "ticks": 11326,
          "time": 131.69767441860466,
          "velocity": 0.10236220472440945
        },
        {
          "duration": 0.12790697674418539,
          "durationTicks": 11,
          "midi": 84,
          "name": "C6",
          "ticks": 11326,
          "time": 131.69767441860466,
          "velocity": 0.3464566929133858
        },
        {
          "duration": 0.20930232558137618,
          "durationTicks": 18,
          "midi": 72,
          "name": "C5",
          "ticks": 11327,
          "time": 131.7093023255814,
          "velocity": 0.3464566929133858
        },
        {
          "duration": 0.1046511627907023,
          "durationTicks": 9,
          "midi": 91,
          "name": "G6",
          "ticks": 11327,
          "time": 131.7093023255814,
          "velocity": 0.14960629921259844
        },
        {
          "duration": 0.24418604651162923,
          "durationTicks": 21,
          "midi": 57,
          "name": "A3",
          "ticks": 11328,
          "time": 131.72093023255815,
          "velocity": 0.4094488188976378
        },
        {
          "duration": 0.05813953488370771,
          "durationTicks": 5,
          "midi": 44,
          "name": "G#2",
          "ticks": 11330,
          "time": 131.74418604651163,
          "velocity": 0.23622047244094488
        },
        {
          "duration": 0.03488372093025305,
          "durationTicks": 3,
          "midi": 45,
          "name": "A2",
          "ticks": 11335,
          "time": 131.80232558139534,
          "velocity": 0.10236220472440945
        },
        {
          "duration": 0.30232558139533694,
          "durationTicks": 26,
          "midi": 85,
          "name": "C#6",
          "ticks": 11336,
          "time": 131.8139534883721,
          "velocity": 0.18110236220472442
        },
        {
          "duration": 0.034883720930224626,
          "durationTicks": 3,
          "midi": 44,
          "name": "G#2",
          "ticks": 11338,
          "time": 131.8372093023256,
          "velocity": 0.09448818897637795
        },
        {
          "duration": 0.0813953488371908,
          "durationTicks": 7,
          "midi": 93,
          "name": "A6",
          "ticks": 11339,
          "time": 131.84883720930233,
          "velocity": 0.07874015748031496
        },
        {
          "duration": 0.04651162790699459,
          "durationTicks": 4,
          "midi": 84,
          "name": "C6",
          "ticks": 11345,
          "time": 131.91860465116278,
          "velocity": 0.15748031496062992
        },
        {
          "duration": 0.05813953488373613,
          "durationTicks": 5,
          "midi": 72,
          "name": "C5",
          "ticks": 11346,
          "time": 131.93023255813952,
          "velocity": 0.25984251968503935
        },
        {
          "duration": 0.25581395348837077,
          "durationTicks": 22,
          "midi": 76,
          "name": "E5",
          "ticks": 11348,
          "time": 131.95348837209303,
          "velocity": 0.23622047244094488
        },
        {
          "duration": 0.034883720930224626,
          "durationTicks": 3,
          "midi": 61,
          "name": "C#4",
          "ticks": 11349,
          "time": 131.96511627906978,
          "velocity": 0.2677165354330709
        },
        {
          "duration": 0.2325581395348877,
          "durationTicks": 20,
          "midi": 57,
          "name": "A3",
          "ticks": 11350,
          "time": 131.97674418604652,
          "velocity": 0.3858267716535433
        },
        {
          "duration": 0.1046511627907023,
          "durationTicks": 9,
          "midi": 74,
          "name": "D5",
          "ticks": 11351,
          "time": 131.98837209302326,
          "velocity": 0.12598425196850394
        },
        {
          "duration": 0.2093023255814046,
          "durationTicks": 18,
          "midi": 62,
          "name": "D4",
          "ticks": 11352,
          "time": 132,
          "velocity": 0.30708661417322836
        },
        {
          "duration": 0.023255813953483084,
          "durationTicks": 2,
          "midi": 50,
          "name": "D3",
          "ticks": 11353,
          "time": 132.01162790697674,
          "velocity": 0.31496062992125984
        },
        {
          "duration": 0.09302325581396076,
          "durationTicks": 8,
          "midi": 72,
          "name": "C5",
          "ticks": 11353,
          "time": 132.01162790697674,
          "velocity": 0.2204724409448819
        },
        {
          "duration": 0.03488372093025305,
          "durationTicks": 3,
          "midi": 44,
          "name": "G#2",
          "ticks": 11355,
          "time": 132.03488372093022,
          "velocity": 0.2992125984251969
        },
        {
          "duration": 0.16279069767443843,
          "durationTicks": 14,
          "midi": 50,
          "name": "D3",
          "ticks": 11356,
          "time": 132.04651162790697,
          "velocity": 0.29133858267716534
        },
        {
          "duration": 0.023255813953483084,
          "durationTicks": 2,
          "midi": 71,
          "name": "B4",
          "ticks": 11360,
          "time": 132.09302325581396,
          "velocity": 0.2677165354330709
        },
        {
          "duration": 0.05813953488370771,
          "durationTicks": 5,
          "midi": 72,
          "name": "C5",
          "ticks": 11362,
          "time": 132.11627906976744,
          "velocity": 0.3464566929133858
        },
        {
          "duration": 0.1511627906976969,
          "durationTicks": 13,
          "midi": 72,
          "name": "C5",
          "ticks": 11368,
          "time": 132.1860465116279,
          "velocity": 0.3700787401574803
        },
        {
          "duration": 0.023255813953483084,
          "durationTicks": 2,
          "midi": 56,
          "name": "G#3",
          "ticks": 11370,
          "time": 132.2093023255814,
          "velocity": 0.3543307086614173
        },
        {
          "duration": 0.034883720930224626,
          "durationTicks": 3,
          "midi": 45,
          "name": "A2",
          "ticks": 11373,
          "time": 132.24418604651163,
          "velocity": 0.3464566929133858
        },
        {
          "duration": 0.1046511627907023,
          "durationTicks": 9,
          "midi": 57,
          "name": "A3",
          "ticks": 11373,
          "time": 132.24418604651163,
          "velocity": 0.3700787401574803
        },
        {
          "duration": 0.2325581395348877,
          "durationTicks": 20,
          "midi": 62,
          "name": "D4",
          "ticks": 11373,
          "time": 132.24418604651163,
          "velocity": 0.3779527559055118
        },
        {
          "duration": 0.03488372093025305,
          "durationTicks": 3,
          "midi": 44,
          "name": "G#2",
          "ticks": 11376,
          "time": 132.27906976744185,
          "velocity": 0.33070866141732286
        },
        {
          "duration": 0.11627906976744384,
          "durationTicks": 10,
          "midi": 91,
          "name": "G6",
          "ticks": 11377,
          "time": 132.2906976744186,
          "velocity": 0.11023622047244094
        },
        {
          "duration": 0.04651162790696617,
          "durationTicks": 4,
          "midi": 65,
          "name": "F4",
          "ticks": 11381,
          "time": 132.3372093023256,
          "velocity": 0.25984251968503935
        },
        {
          "duration": 0.034883720930224626,
          "durationTicks": 3,
          "midi": 88,
          "name": "E6",
          "ticks": 11381,
          "time": 132.3372093023256,
          "velocity": 0.09448818897637795
        },
        {
          "duration": 0.023255813953483084,
          "durationTicks": 2,
          "midi": 45,
          "name": "A2",
          "ticks": 11383,
          "time": 132.36046511627907,
          "velocity": 0.3700787401574803
        },
        {
          "duration": 0.11627906976744384,
          "durationTicks": 10,
          "midi": 57,
          "name": "A3",
          "ticks": 11383,
          "time": 132.36046511627907,
          "velocity": 0.4251968503937008
        },
        {
          "duration": 0.12790697674418539,
          "durationTicks": 11,
          "midi": 72,
          "name": "C5",
          "ticks": 11383,
          "time": 132.36046511627907,
          "velocity": 0.36220472440944884
        },
        {
          "duration": 0.05813953488370771,
          "durationTicks": 5,
          "midi": 85,
          "name": "C#6",
          "ticks": 11383,
          "time": 132.36046511627907,
          "velocity": 0.1968503937007874
        },
        {
          "duration": 0.09302325581396076,
          "durationTicks": 8,
          "midi": 50,
          "name": "D3",
          "ticks": 11385,
          "time": 132.38372093023256,
          "velocity": 0.30708661417322836
        },
        {
          "duration": 0.023255813953483084,
          "durationTicks": 2,
          "midi": 65,
          "name": "F4",
          "ticks": 11386,
          "time": 132.3953488372093,
          "velocity": 0.25196850393700787
        },
        {
          "duration": 0.09302325581396076,
          "durationTicks": 8,
          "midi": 76,
          "name": "E5",
          "ticks": 11386,
          "time": 132.3953488372093,
          "velocity": 0.12598425196850394
        },
        {
          "duration": 0.08139534883721922,
          "durationTicks": 7,
          "midi": 93,
          "name": "A6",
          "ticks": 11386,
          "time": 132.3953488372093,
          "velocity": 0.12598425196850394
        },
        {
          "duration": 0.03488372093025305,
          "durationTicks": 3,
          "midi": 42,
          "name": "F#2",
          "ticks": 11388,
          "time": 132.41860465116278,
          "velocity": 0.16535433070866143
        },
        {
          "duration": 0.023255813953483084,
          "durationTicks": 2,
          "midi": 46,
          "name": "A#2",
          "ticks": 11393,
          "time": 132.47674418604652,
          "velocity": 0.3543307086614173
        },
        {
          "duration": 0.023255813953483084,
          "durationTicks": 2,
          "midi": 61,
          "name": "C#4",
          "ticks": 11393,
          "time": 132.47674418604652,
          "velocity": 0.2755905511811024
        },
        {
          "duration": 0.11627906976744384,
          "durationTicks": 10,
          "midi": 57,
          "name": "A3",
          "ticks": 11395,
          "time": 132.5,
          "velocity": 0.33858267716535434
        },
        {
          "duration": 0.09302325581396076,
          "durationTicks": 8,
          "midi": 62,
          "name": "D4",
          "ticks": 11395,
          "time": 132.5,
          "velocity": 0.30708661417322836
        },
        {
          "duration": 0.05813953488370771,
          "durationTicks": 5,
          "midi": 72,
          "name": "C5",
          "ticks": 11395,
          "time": 132.5,
          "velocity": 0.2047244094488189
        },
        {
          "duration": 0.04651162790696617,
          "durationTicks": 4,
          "midi": 44,
          "name": "G#2",
          "ticks": 11396,
          "time": 132.51162790697674,
          "velocity": 0.3464566929133858
        },
        {
          "duration": 1.1046511627907023,
          "durationTicks": 95,
          "midi": 84,
          "name": "C6",
          "ticks": 11396,
          "time": 132.51162790697674,
          "velocity": 0.36220472440944884
        },
        {
          "duration": 0.04651162790699459,
          "durationTicks": 4,
          "midi": 50,
          "name": "D3",
          "ticks": 11397,
          "time": 132.52325581395348,
          "velocity": 0.2677165354330709
        },
        {
          "duration": 0.023255813953511506,
          "durationTicks": 2,
          "midi": 71,
          "name": "B4",
          "ticks": 11400,
          "time": 132.5581395348837,
          "velocity": 0.4094488188976378
        },
        {
          "duration": 0.023255813953483084,
          "durationTicks": 2,
          "midi": 48,
          "name": "C3",
          "ticks": 11401,
          "time": 132.56976744186048,
          "velocity": 0.25196850393700787
        },
        {
          "duration": 0.12790697674418539,
          "durationTicks": 11,
          "midi": 72,
          "name": "C5",
          "ticks": 11402,
          "time": 132.58139534883722,
          "velocity": 0.4094488188976378
        },
        {
          "duration": 0.034883720930224626,
          "durationTicks": 3,
          "midi": 88,
          "name": "E6",
          "ticks": 11402,
          "time": 132.58139534883722,
          "velocity": 0.11811023622047244
        },
        {
          "duration": 0.05813953488370771,
          "durationTicks": 5,
          "midi": 93,
          "name": "A6",
          "ticks": 11402,
          "time": 132.58139534883722,
          "velocity": 0.18110236220472442
        },
        {
          "duration": 0.034883720930224626,
          "durationTicks": 3,
          "midi": 45,
          "name": "A2",
          "ticks": 11403,
          "time": 132.59302325581396,
          "velocity": 0.23622047244094488
        },
        {
          "duration": 0.38372093023255616,
          "durationTicks": 33,
          "midi": 77,
          "name": "F5",
          "ticks": 11403,
          "time": 132.59302325581396,
          "velocity": 0.28346456692913385
        },
        {
          "duration": 0.023255813953483084,
          "durationTicks": 2,
          "midi": 61,
          "name": "C#4",
          "ticks": 11404,
          "time": 132.6046511627907,
          "velocity": 0.33858267716535434
        },
        {
          "duration": 0.25581395348837077,
          "durationTicks": 22,
          "midi": 65,
          "name": "F4",
          "ticks": 11404,
          "time": 132.6046511627907,
          "velocity": 0.3464566929133858
        },
        {
          "duration": 0.3139534883720785,
          "durationTicks": 27,
          "midi": 74,
          "name": "D5",
          "ticks": 11404,
          "time": 132.6046511627907,
          "velocity": 0.2204724409448819
        },
        {
          "duration": 0.09302325581396076,
          "durationTicks": 8,
          "midi": 57,
          "name": "A3",
          "ticks": 11406,
          "time": 132.62790697674419,
          "velocity": 0.4015748031496063
        },
        {
          "duration": 0.3604651162790731,
          "durationTicks": 31,
          "midi": 62,
          "name": "D4",
          "ticks": 11406,
          "time": 132.62790697674419,
          "velocity": 0.3937007874015748
        },
        {
          "duration": 0.034883720930224626,
          "durationTicks": 3,
          "midi": 100,
          "name": "E7",
          "ticks": 11406,
          "time": 132.62790697674419,
          "velocity": 0.09448818897637795
        },
        {
          "duration": 0.05813953488373613,
          "durationTicks": 5,
          "midi": 50,
          "name": "D3",
          "ticks": 11407,
          "time": 132.63953488372093,
          "velocity": 0.25196850393700787
        },
        {
          "duration": 0.06976744186047767,
          "durationTicks": 6,
          "midi": 93,
          "name": "A6",
          "ticks": 11409,
          "time": 132.6627906976744,
          "velocity": 0.2204724409448819
        },
        {
          "duration": 0.023255813953483084,
          "durationTicks": 2,
          "midi": 49,
          "name": "C#3",
          "ticks": 11412,
          "time": 132.69767441860466,
          "velocity": 0.25984251968503935
        },
        {
          "duration": 0.05813953488370771,
          "durationTicks": 5,
          "midi": 91,
          "name": "G6",
          "ticks": 11413,
          "time": 132.7093023255814,
          "velocity": 0.07874015748031496
        },
        {
          "duration": 0.3953488372092977,
          "durationTicks": 34,
          "midi": 100,
          "name": "E7",
          "ticks": 11413,
          "time": 132.7093023255814,
          "velocity": 0.25196850393700787
        },
        {
          "duration": 0.04651162790696617,
          "durationTicks": 4,
          "midi": 42,
          "name": "F#2",
          "ticks": 11414,
          "time": 132.72093023255815,
          "velocity": 0.13385826771653545
        },
        {
          "duration": 0.15116279069766847,
          "durationTicks": 13,
          "midi": 50,
          "name": "D3",
          "ticks": 11414,
          "time": 132.72093023255815,
          "velocity": 0.25196850393700787
        },
        {
          "duration": 0.40697674418603924,
          "durationTicks": 35,
          "midi": 72,
          "name": "C5",
          "ticks": 11414,
          "time": 132.72093023255815,
          "velocity": 0.2992125984251969
        },
        {
          "duration": 0.27906976744185386,
          "durationTicks": 24,
          "midi": 57,
          "name": "A3",
          "ticks": 11415,
          "time": 132.7325581395349,
          "velocity": 0.3937007874015748
        },
        {
          "duration": 0.05813953488370771,
          "durationTicks": 5,
          "midi": 93,
          "name": "A6",
          "ticks": 11416,
          "time": 132.74418604651163,
          "velocity": 0.18110236220472442
        },
        {
          "duration": 0.04651162790699459,
          "durationTicks": 4,
          "midi": 85,
          "name": "C#6",
          "ticks": 11421,
          "time": 132.80232558139534,
          "velocity": 0.07874015748031496
        },
        {
          "duration": 0.16279069767441,
          "durationTicks": 14,
          "midi": 93,
          "name": "A6",
          "ticks": 11423,
          "time": 132.82558139534885,
          "velocity": 0.25984251968503935
        },
        {
          "duration": 0.08139534883721922,
          "durationTicks": 7,
          "midi": 65,
          "name": "F4",
          "ticks": 11427,
          "time": 132.87209302325581,
          "velocity": 0.29133858267716534
        },
        {
          "duration": 0.034883720930224626,
          "durationTicks": 3,
          "midi": 45,
          "name": "A2",
          "ticks": 11437,
          "time": 132.98837209302326,
          "velocity": 0.31496062992125984
        },
        {
          "duration": 0.023255813953483084,
          "durationTicks": 2,
          "midi": 53,
          "name": "F3",
          "ticks": 11437,
          "time": 132.98837209302326,
          "velocity": 0.28346456692913385
        },
        {
          "duration": 0.023255813953483084,
          "durationTicks": 2,
          "midi": 58,
          "name": "A#3",
          "ticks": 11439,
          "time": 133.01162790697674,
          "velocity": 0.33858267716535434
        },
        {
          "duration": 0.05813953488373613,
          "durationTicks": 5,
          "midi": 44,
          "name": "G#2",
          "ticks": 11440,
          "time": 133.02325581395348,
          "velocity": 0.31496062992125984
        },
        {
          "duration": 0.08139534883721922,
          "durationTicks": 7,
          "midi": 57,
          "name": "A3",
          "ticks": 11441,
          "time": 133.03488372093022,
          "velocity": 0.3937007874015748
        },
        {
          "duration": 0.06976744186047767,
          "durationTicks": 6,
          "midi": 62,
          "name": "D4",
          "ticks": 11441,
          "time": 133.03488372093022,
          "velocity": 0.13385826771653545
        },
        {
          "duration": 0.04651162790696617,
          "durationTicks": 4,
          "midi": 50,
          "name": "D3",
          "ticks": 11444,
          "time": 133.06976744186048,
          "velocity": 0.2755905511811024
        },
        {
          "duration": 0.034883720930224626,
          "durationTicks": 3,
          "midi": 68,
          "name": "G#4",
          "ticks": 11447,
          "time": 133.1046511627907,
          "velocity": 0.23622047244094488
        },
        {
          "duration": 0.17441860465115155,
          "durationTicks": 15,
          "midi": 77,
          "name": "F5",
          "ticks": 11447,
          "time": 133.1046511627907,
          "velocity": 0.29133858267716534
        },
        {
          "duration": 0.034883720930224626,
          "durationTicks": 3,
          "midi": 88,
          "name": "E6",
          "ticks": 11447,
          "time": 133.1046511627907,
          "velocity": 0.10236220472440945
        },
        {
          "duration": 0.1046511627907023,
          "durationTicks": 9,
          "midi": 93,
          "name": "A6",
          "ticks": 11447,
          "time": 133.1046511627907,
          "velocity": 0.2440944881889764
        },
        {
          "duration": 0.023255813953483084,
          "durationTicks": 2,
          "midi": 58,
          "name": "A#3",
          "ticks": 11448,
          "time": 133.11627906976744,
          "velocity": 0.3700787401574803
        },
        {
          "duration": 0.13953488372092693,
          "durationTicks": 12,
          "midi": 74,
          "name": "D5",
          "ticks": 11448,
          "time": 133.11627906976744,
          "velocity": 0.14960629921259844
        },
        {
          "duration": 0.11627906976744384,
          "durationTicks": 10,
          "midi": 50,
          "name": "D3",
          "ticks": 11449,
          "time": 133.12790697674419,
          "velocity": 0.3464566929133858
        },
        {
          "duration": 0.12790697674418539,
          "durationTicks": 11,
          "midi": 62,
          "name": "D4",
          "ticks": 11449,
          "time": 133.12790697674419,
          "velocity": 0.3464566929133858
        },
        {
          "duration": 0.13953488372092693,
          "durationTicks": 12,
          "midi": 65,
          "name": "F4",
          "ticks": 11449,
          "time": 133.12790697674419,
          "velocity": 0.2992125984251969
        },
        {
          "duration": 0.04651162790696617,
          "durationTicks": 4,
          "midi": 71,
          "name": "B4",
          "ticks": 11449,
          "time": 133.12790697674419,
          "velocity": 0.33070866141732286
        },
        {
          "duration": 0.12790697674418539,
          "durationTicks": 11,
          "midi": 86,
          "name": "D6",
          "ticks": 11449,
          "time": 133.12790697674419,
          "velocity": 0.1889763779527559
        },
        {
          "duration": 0.11627906976744384,
          "durationTicks": 10,
          "midi": 57,
          "name": "A3",
          "ticks": 11450,
          "time": 133.13953488372093,
          "velocity": 0.41732283464566927
        },
        {
          "duration": 0.03488372093025305,
          "durationTicks": 3,
          "midi": 70,
          "name": "A#4",
          "ticks": 11453,
          "time": 133.17441860465115,
          "velocity": 0.29133858267716534
        },
        {
          "duration": 0.16279069767441,
          "durationTicks": 14,
          "midi": 93,
          "name": "A6",
          "ticks": 11457,
          "time": 133.22093023255815,
          "velocity": 0.16535433070866143
        },
        {
          "duration": 0.023255813953483084,
          "durationTicks": 2,
          "midi": 55,
          "name": "G3",
          "ticks": 11460,
          "time": 133.25581395348837,
          "velocity": 0.4566929133858268
        },
        {
          "duration": 0.034883720930224626,
          "durationTicks": 3,
          "midi": 68,
          "name": "G#4",
          "ticks": 11460,
          "time": 133.25581395348837,
          "velocity": 0.2125984251968504
        },
        {
          "duration": 0.3139534883721069,
          "durationTicks": 27,
          "midi": 74,
          "name": "D5",
          "ticks": 11461,
          "time": 133.2674418604651,
          "velocity": 0.2440944881889764
        },
        {
          "duration": 0.023255813953483084,
          "durationTicks": 2,
          "midi": 56,
          "name": "G#3",
          "ticks": 11462,
          "time": 133.27906976744185,
          "velocity": 0.44881889763779526
        },
        {
          "duration": 0.08139534883721922,
          "durationTicks": 7,
          "midi": 62,
          "name": "D4",
          "ticks": 11462,
          "time": 133.27906976744185,
          "velocity": 0.25196850393700787
        },
        {
          "duration": 0.3139534883721069,
          "durationTicks": 27,
          "midi": 65,
          "name": "F4",
          "ticks": 11462,
          "time": 133.27906976744185,
          "velocity": 0.33858267716535434
        },
        {
          "duration": 0.27906976744185386,
          "durationTicks": 24,
          "midi": 81,
          "name": "A5",
          "ticks": 11462,
          "time": 133.27906976744185,
          "velocity": 0.16535433070866143
        },
        {
          "duration": 0.2906976744186238,
          "durationTicks": 25,
          "midi": 69,
          "name": "A4",
          "ticks": 11463,
          "time": 133.2906976744186,
          "velocity": 0.25196850393700787
        },
        {
          "duration": 0.03488372093025305,
          "durationTicks": 3,
          "midi": 44,
          "name": "G#2",
          "ticks": 11464,
          "time": 133.30232558139534,
          "velocity": 0.23622047244094488
        },
        {
          "duration": 0.05813953488373613,
          "durationTicks": 5,
          "midi": 50,
          "name": "D3",
          "ticks": 11464,
          "time": 133.30232558139534,
          "velocity": 0.25196850393700787
        },
        {
          "duration": 0.26744186046514073,
          "durationTicks": 23,
          "midi": 57,
          "name": "A3",
          "ticks": 11464,
          "time": 133.30232558139534,
          "velocity": 0.4330708661417323
        },
        {
          "duration": 0.04651162790696617,
          "durationTicks": 4,
          "midi": 62,
          "name": "D4",
          "ticks": 11470,
          "time": 133.37209302325581,
          "velocity": 0.2283464566929134
        },
        {
          "duration": 0.09302325581396076,
          "durationTicks": 8,
          "midi": 50,
          "name": "D3",
          "ticks": 11472,
          "time": 133.3953488372093,
          "velocity": 0.33070866141732286
        },
        {
          "duration": 0.023255813953483084,
          "durationTicks": 2,
          "midi": 42,
          "name": "F#2",
          "ticks": 11480,
          "time": 133.48837209302326,
          "velocity": 0.3464566929133858
        },
        {
          "duration": 0.034883720930224626,
          "durationTicks": 3,
          "midi": 53,
          "name": "F3",
          "ticks": 11481,
          "time": 133.5,
          "velocity": 0.4094488188976378
        },
        {
          "duration": 0.04651162790696617,
          "durationTicks": 4,
          "midi": 71,
          "name": "B4",
          "ticks": 11481,
          "time": 133.5,
          "velocity": 0.2125984251968504
        },
        {
          "duration": 0.023255813953511506,
          "durationTicks": 2,
          "midi": 48,
          "name": "C3",
          "ticks": 11485,
          "time": 133.54651162790697,
          "velocity": 0.4251968503937008
        },
        {
          "duration": 0.06976744186044925,
          "durationTicks": 6,
          "midi": 74,
          "name": "D5",
          "ticks": 11489,
          "time": 133.59302325581396,
          "velocity": 0.15748031496062992
        },
        {
          "duration": 0.05813953488370771,
          "durationTicks": 5,
          "midi": 55,
          "name": "G3",
          "ticks": 11490,
          "time": 133.6046511627907,
          "velocity": 0.4881889763779528
        },
        {
          "duration": 0.05813953488370771,
          "durationTicks": 5,
          "midi": 61,
          "name": "C#4",
          "ticks": 11490,
          "time": 133.6046511627907,
          "velocity": 0.3464566929133858
        },
        {
          "duration": 0.04651162790696617,
          "durationTicks": 4,
          "midi": 69,
          "name": "A4",
          "ticks": 11490,
          "time": 133.6046511627907,
          "velocity": 0.14960629921259844
        },
        {
          "duration": 0.023255813953483084,
          "durationTicks": 2,
          "midi": 42,
          "name": "F#2",
          "ticks": 11491,
          "time": 133.61627906976744,
          "velocity": 0.2677165354330709
        },
        {
          "duration": 0.04651162790696617,
          "durationTicks": 4,
          "midi": 50,
          "name": "D3",
          "ticks": 11492,
          "time": 133.62790697674419,
          "velocity": 0.44881889763779526
        },
        {
          "duration": 0.023255813953511506,
          "durationTicks": 2,
          "midi": 51,
          "name": "D#3",
          "ticks": 11496,
          "time": 133.67441860465115,
          "velocity": 0.3700787401574803
        },
        {
          "duration": 0.023255813953511506,
          "durationTicks": 2,
          "midi": 59,
          "name": "B3",
          "ticks": 11496,
          "time": 133.67441860465115,
          "velocity": 0.25984251968503935
        },
        {
          "duration": 0.06976744186047767,
          "durationTicks": 6,
          "midi": 65,
          "name": "F4",
          "ticks": 11497,
          "time": 133.6860465116279,
          "velocity": 0.2283464566929134
        },
        {
          "duration": 0.023255813953511506,
          "durationTicks": 2,
          "midi": 71,
          "name": "B4",
          "ticks": 11497,
          "time": 133.6860465116279,
          "velocity": 0.25984251968503935
        },
        {
          "duration": 0.023255813953483084,
          "durationTicks": 2,
          "midi": 53,
          "name": "F3",
          "ticks": 11498,
          "time": 133.69767441860466,
          "velocity": 0.3779527559055118
        },
        {
          "duration": 0.04651162790696617,
          "durationTicks": 4,
          "midi": 46,
          "name": "A#2",
          "ticks": 11499,
          "time": 133.7093023255814,
          "velocity": 0.36220472440944884
        },
        {
          "duration": 0.04651162790696617,
          "durationTicks": 4,
          "midi": 70,
          "name": "A#4",
          "ticks": 11499,
          "time": 133.7093023255814,
          "velocity": 0.1968503937007874
        },
        {
          "duration": 0.04651162790696617,
          "durationTicks": 4,
          "midi": 72,
          "name": "C5",
          "ticks": 11499,
          "time": 133.7093023255814,
          "velocity": 0.11811023622047244
        },
        {
          "duration": 0.034883720930224626,
          "durationTicks": 3,
          "midi": 53,
          "name": "F3",
          "ticks": 11501,
          "time": 133.7325581395349,
          "velocity": 0.3543307086614173
        },
        {
          "duration": 0.04651162790696617,
          "durationTicks": 4,
          "midi": 71,
          "name": "B4",
          "ticks": 11503,
          "time": 133.75581395348837,
          "velocity": 0.2755905511811024
        },
        {
          "duration": 0.25581395348837077,
          "durationTicks": 22,
          "midi": 65,
          "name": "F4",
          "ticks": 11504,
          "time": 133.7674418604651,
          "velocity": 0.2204724409448819
        },
        {
          "duration": 0.24418604651162923,
          "durationTicks": 21,
          "midi": 81,
          "name": "A5",
          "ticks": 11504,
          "time": 133.7674418604651,
          "velocity": 0.18110236220472442
        },
        {
          "duration": 0.06976744186047767,
          "durationTicks": 6,
          "midi": 88,
          "name": "E6",
          "ticks": 11504,
          "time": 133.7674418604651,
          "velocity": 0.14173228346456693
        },
        {
          "duration": 0.19767441860466306,
          "durationTicks": 17,
          "midi": 58,
          "name": "A#3",
          "ticks": 11505,
          "time": 133.77906976744185,
          "velocity": 0.3700787401574803
        },
        {
          "duration": 0.023255813953511506,
          "durationTicks": 2,
          "midi": 45,
          "name": "A2",
          "ticks": 11507,
          "time": 133.80232558139534,
          "velocity": 0.4645669291338583
        },
        {
          "duration": 0.023255813953511506,
          "durationTicks": 2,
          "midi": 54,
          "name": "F#3",
          "ticks": 11507,
          "time": 133.80232558139534,
          "velocity": 0.33070866141732286
        },
        {
          "duration": 0.19767441860463464,
          "durationTicks": 17,
          "midi": 46,
          "name": "A#2",
          "ticks": 11509,
          "time": 133.82558139534885,
          "velocity": 0.4251968503937008
        },
        {
          "duration": 0.13953488372092693,
          "durationTicks": 12,
          "midi": 53,
          "name": "F3",
          "ticks": 11509,
          "time": 133.82558139534885,
          "velocity": 0.2677165354330709
        },
        {
          "duration": 0.16279069767441,
          "durationTicks": 14,
          "midi": 80,
          "name": "G#5",
          "ticks": 11509,
          "time": 133.82558139534885,
          "velocity": 0.07874015748031496
        },
        {
          "duration": 0.09302325581396076,
          "durationTicks": 8,
          "midi": 72,
          "name": "C5",
          "ticks": 11518,
          "time": 133.93023255813952,
          "velocity": 0.15748031496062992
        },
        {
          "duration": 0.04651162790696617,
          "durationTicks": 4,
          "midi": 68,
          "name": "G#4",
          "ticks": 11522,
          "time": 133.97674418604652,
          "velocity": 0.1889763779527559
        },
        {
          "duration": 0.034883720930224626,
          "durationTicks": 3,
          "midi": 84,
          "name": "C6",
          "ticks": 11522,
          "time": 133.97674418604652,
          "velocity": 0.25196850393700787
        },
        {
          "duration": 0.011627906976741542,
          "durationTicks": 1,
          "midi": 56,
          "name": "G#3",
          "ticks": 11524,
          "time": 134,
          "velocity": 0.5196850393700787
        },
        {
          "duration": 0.023255813953483084,
          "durationTicks": 2,
          "midi": 57,
          "name": "A3",
          "ticks": 11525,
          "time": 134.01162790697674,
          "velocity": 0.5118110236220472
        },
        {
          "duration": 0.034883720930224626,
          "durationTicks": 3,
          "midi": 85,
          "name": "C#6",
          "ticks": 11525,
          "time": 134.01162790697674,
          "velocity": 0.10236220472440945
        },
        {
          "duration": 0.023255813953483084,
          "durationTicks": 2,
          "midi": 47,
          "name": "B2",
          "ticks": 11526,
          "time": 134.02325581395348,
          "velocity": 0.3937007874015748
        },
        {
          "duration": 0.023255813953483084,
          "durationTicks": 2,
          "midi": 55,
          "name": "G3",
          "ticks": 11527,
          "time": 134.03488372093022,
          "velocity": 0.3937007874015748
        },
        {
          "duration": 0.023255813953483084,
          "durationTicks": 2,
          "midi": 58,
          "name": "A#3",
          "ticks": 11527,
          "time": 134.03488372093022,
          "velocity": 0.3937007874015748
        },
        {
          "duration": 0.24418604651162923,
          "durationTicks": 21,
          "midi": 65,
          "name": "F4",
          "ticks": 11527,
          "time": 134.03488372093022,
          "velocity": 0.2283464566929134
        },
        {
          "duration": 0.03488372093025305,
          "durationTicks": 3,
          "midi": 80,
          "name": "G#5",
          "ticks": 11528,
          "time": 134.04651162790697,
          "velocity": 0.08661417322834646
        },
        {
          "duration": 0.2325581395348877,
          "durationTicks": 20,
          "midi": 53,
          "name": "F3",
          "ticks": 11529,
          "time": 134.0581395348837,
          "velocity": 0.36220472440944884
        },
        {
          "duration": 0.023255813953511506,
          "durationTicks": 2,
          "midi": 59,
          "name": "B3",
          "ticks": 11529,
          "time": 134.0581395348837,
          "velocity": 0.3858267716535433
        },
        {
          "duration": 0.24418604651162923,
          "durationTicks": 21,
          "midi": 72,
          "name": "C5",
          "ticks": 11529,
          "time": 134.0581395348837,
          "velocity": 0.2755905511811024
        },
        {
          "duration": 0.22093023255811772,
          "durationTicks": 19,
          "midi": 46,
          "name": "A#2",
          "ticks": 11530,
          "time": 134.06976744186048,
          "velocity": 0.3779527559055118
        },
        {
          "duration": 0.0813953488371908,
          "durationTicks": 7,
          "midi": 82,
          "name": "A#5",
          "ticks": 11530,
          "time": 134.06976744186048,
          "velocity": 0.07086614173228346
        },
        {
          "duration": 0.3488372093023031,
          "durationTicks": 30,
          "midi": 60,
          "name": "C4",
          "ticks": 11531,
          "time": 134.08139534883722,
          "velocity": 0.4566929133858268
        },
        {
          "duration": 0.20930232558137618,
          "durationTicks": 18,
          "midi": 79,
          "name": "G5",
          "ticks": 11531,
          "time": 134.08139534883722,
          "velocity": 0.11023622047244094
        },
        {
          "duration": 0.15116279069766847,
          "durationTicks": 13,
          "midi": 70,
          "name": "A#4",
          "ticks": 11537,
          "time": 134.15116279069767,
          "velocity": 0.2047244094488189
        },
        {
          "duration": 0.27906976744185386,
          "durationTicks": 24,
          "midi": 86,
          "name": "D6",
          "ticks": 11548,
          "time": 134.27906976744185,
          "velocity": 0.3543307086614173
        },
        {
          "duration": 0.24418604651162923,
          "durationTicks": 21,
          "midi": 67,
          "name": "G4",
          "ticks": 11549,
          "time": 134.2906976744186,
          "velocity": 0.31496062992125984
        },
        {
          "duration": 0.023255813953511506,
          "durationTicks": 2,
          "midi": 44,
          "name": "G#2",
          "ticks": 11550,
          "time": 134.30232558139534,
          "velocity": 0.4094488188976378
        },
        {
          "duration": 0.19767441860466306,
          "durationTicks": 17,
          "midi": 95,
          "name": "B6",
          "ticks": 11550,
          "time": 134.30232558139534,
          "velocity": 0.10236220472440945
        },
        {
          "duration": 0.10465116279067388,
          "durationTicks": 9,
          "midi": 53,
          "name": "F3",
          "ticks": 11551,
          "time": 134.3139534883721,
          "velocity": 0.4409448818897638
        },
        {
          "duration": 0.023255813953483084,
          "durationTicks": 2,
          "midi": 45,
          "name": "A2",
          "ticks": 11552,
          "time": 134.32558139534885,
          "velocity": 0.36220472440944884
        },
        {
          "duration": 0.04651162790696617,
          "durationTicks": 4,
          "midi": 70,
          "name": "A#4",
          "ticks": 11552,
          "time": 134.32558139534885,
          "velocity": 0.1889763779527559
        },
        {
          "duration": 0.05813953488370771,
          "durationTicks": 5,
          "midi": 46,
          "name": "A#2",
          "ticks": 11556,
          "time": 134.37209302325581,
          "velocity": 0.3464566929133858
        },
        {
          "duration": 0.023255813953511506,
          "durationTicks": 2,
          "midi": 58,
          "name": "A#3",
          "ticks": 11560,
          "time": 134.41860465116278,
          "velocity": 0.4409448818897638
        },
        {
          "duration": 0.023255813953511506,
          "durationTicks": 2,
          "midi": 47,
          "name": "B2",
          "ticks": 11561,
          "time": 134.43023255813952,
          "velocity": 0.3779527559055118
        },
        {
          "duration": 0.05813953488370771,
          "durationTicks": 5,
          "midi": 60,
          "name": "C4",
          "ticks": 11563,
          "time": 134.45348837209303,
          "velocity": 0.4015748031496063
        },
        {
          "duration": 0.06976744186044925,
          "durationTicks": 6,
          "midi": 46,
          "name": "A#2",
          "ticks": 11564,
          "time": 134.46511627906978,
          "velocity": 0.3543307086614173
        },
        {
          "duration": 0.04651162790696617,
          "durationTicks": 4,
          "midi": 53,
          "name": "F3",
          "ticks": 11565,
          "time": 134.47674418604652,
          "velocity": 0.30708661417322836
        },
        {
          "duration": 0.023255813953483084,
          "durationTicks": 2,
          "midi": 54,
          "name": "F#3",
          "ticks": 11569,
          "time": 134.52325581395348,
          "velocity": 0.2677165354330709
        },
        {
          "duration": 0.023255813953483084,
          "durationTicks": 2,
          "midi": 66,
          "name": "F#4",
          "ticks": 11570,
          "time": 134.53488372093022,
          "velocity": 0.2992125984251969
        },
        {
          "duration": 0.13953488372092693,
          "durationTicks": 12,
          "midi": 72,
          "name": "C5",
          "ticks": 11571,
          "time": 134.54651162790697,
          "velocity": 0.1968503937007874
        },
        {
          "duration": 0.2093023255814046,
          "durationTicks": 18,
          "midi": 84,
          "name": "C6",
          "ticks": 11571,
          "time": 134.54651162790697,
          "velocity": 0.2283464566929134
        },
        {
          "duration": 0.13953488372095535,
          "durationTicks": 12,
          "midi": 60,
          "name": "C4",
          "ticks": 11572,
          "time": 134.5581395348837,
          "velocity": 0.4881889763779528
        },
        {
          "duration": 0.023255813953483084,
          "durationTicks": 2,
          "midi": 45,
          "name": "A2",
          "ticks": 11573,
          "time": 134.56976744186048,
          "velocity": 0.4330708661417323
        },
        {
          "duration": 0.09302325581393234,
          "durationTicks": 8,
          "midi": 53,
          "name": "F3",
          "ticks": 11573,
          "time": 134.56976744186048,
          "velocity": 0.30708661417322836
        },
        {
          "duration": 0.034883720930224626,
          "durationTicks": 3,
          "midi": 91,
          "name": "G6",
          "ticks": 11573,
          "time": 134.56976744186048,
          "velocity": 0.07086614173228346
        },
        {
          "duration": 0.023255813953483084,
          "durationTicks": 2,
          "midi": 46,
          "name": "A#2",
          "ticks": 11575,
          "time": 134.59302325581396,
          "velocity": 0.3464566929133858
        },
        {
          "duration": 0.05813953488370771,
          "durationTicks": 5,
          "midi": 46,
          "name": "A#2",
          "ticks": 11578,
          "time": 134.62790697674419,
          "velocity": 0.3464566929133858
        },
        {
          "duration": 0.06976744186047767,
          "durationTicks": 6,
          "midi": 79,
          "name": "G5",
          "ticks": 11582,
          "time": 134.67441860465115,
          "velocity": 0.13385826771653545
        },
        {
          "duration": 0.023255813953511506,
          "durationTicks": 2,
          "midi": 52,
          "name": "E3",
          "ticks": 11583,
          "time": 134.6860465116279,
          "velocity": 0.4015748031496063
        },
        {
          "duration": 0.40697674418606766,
          "durationTicks": 35,
          "midi": 70,
          "name": "A#4",
          "ticks": 11583,
          "time": 134.6860465116279,
          "velocity": 0.33858267716535434
        },
        {
          "duration": 0.09302325581396076,
          "durationTicks": 8,
          "midi": 81,
          "name": "A5",
          "ticks": 11583,
          "time": 134.6860465116279,
          "velocity": 0.08661417322834646
        },
        {
          "duration": 0.11627906976744384,
          "durationTicks": 10,
          "midi": 65,
          "name": "F4",
          "ticks": 11584,
          "time": 134.69767441860466,
          "velocity": 0.25984251968503935
        },
        {
          "duration": 0.023255813953483084,
          "durationTicks": 2,
          "midi": 44,
          "name": "G#2",
          "ticks": 11585,
          "time": 134.7093023255814,
          "velocity": 0.31496062992125984
        },
        {
          "duration": 0.38372093023255616,
          "durationTicks": 33,
          "midi": 53,
          "name": "F3",
          "ticks": 11585,
          "time": 134.7093023255814,
          "velocity": 0.4409448818897638
        },
        {
          "duration": 0.32558139534884845,
          "durationTicks": 28,
          "midi": 58,
          "name": "A#3",
          "ticks": 11588,
          "time": 134.74418604651163,
          "velocity": 0.49606299212598426
        },
        {
          "duration": 0.05813953488373613,
          "durationTicks": 5,
          "midi": 46,
          "name": "A#2",
          "ticks": 11590,
          "time": 134.7674418604651,
          "velocity": 0.25984251968503935
        },
        {
          "duration": 0.034883720930224626,
          "durationTicks": 3,
          "midi": 74,
          "name": "D5",
          "ticks": 11590,
          "time": 134.7674418604651,
          "velocity": 0.07874015748031496
        },
        {
          "duration": 0.05813953488370771,
          "durationTicks": 5,
          "midi": 81,
          "name": "A5",
          "ticks": 11594,
          "time": 134.8139534883721,
          "velocity": 0.16535433070866143
        },
        {
          "duration": 0.06976744186044925,
          "durationTicks": 6,
          "midi": 86,
          "name": "D6",
          "ticks": 11594,
          "time": 134.8139534883721,
          "velocity": 0.18110236220472442
        },
        {
          "duration": 0.05813953488370771,
          "durationTicks": 5,
          "midi": 62,
          "name": "D4",
          "ticks": 11595,
          "time": 134.82558139534885,
          "velocity": 0.4566929133858268
        },
        {
          "duration": 0.05813953488370771,
          "durationTicks": 5,
          "midi": 90,
          "name": "F#6",
          "ticks": 11595,
          "time": 134.82558139534885,
          "velocity": 0.28346456692913385
        },
        {
          "duration": 0.04651162790696617,
          "durationTicks": 4,
          "midi": 96,
          "name": "C7",
          "ticks": 11595,
          "time": 134.82558139534885,
          "velocity": 0.2047244094488189
        },
        {
          "duration": 0.1046511627907023,
          "durationTicks": 9,
          "midi": 46,
          "name": "A#2",
          "ticks": 11596,
          "time": 134.8372093023256,
          "velocity": 0.25984251968503935
        },
        {
          "duration": 0.034883720930224626,
          "durationTicks": 3,
          "midi": 63,
          "name": "D#4",
          "ticks": 11600,
          "time": 134.88372093023256,
          "velocity": 0.4094488188976378
        },
        {
          "duration": 0.30232558139536536,
          "durationTicks": 26,
          "midi": 76,
          "name": "E5",
          "ticks": 11602,
          "time": 134.90697674418604,
          "velocity": 0.25984251968503935
        },
        {
          "duration": 0.6046511627907023,
          "durationTicks": 52,
          "midi": 64,
          "name": "E4",
          "ticks": 11603,
          "time": 134.91860465116278,
          "velocity": 0.47244094488188976
        },
        {
          "duration": 0.11627906976744384,
          "durationTicks": 10,
          "midi": 86,
          "name": "D6",
          "ticks": 11607,
          "time": 134.96511627906978,
          "velocity": 0.1732283464566929
        },
        {
          "duration": 0.11627906976744384,
          "durationTicks": 10,
          "midi": 72,
          "name": "C5",
          "ticks": 11608,
          "time": 134.97674418604652,
          "velocity": 0.16535433070866143
        },
        {
          "duration": 0.09302325581396076,
          "durationTicks": 8,
          "midi": 74,
          "name": "D5",
          "ticks": 11608,
          "time": 134.97674418604652,
          "velocity": 0.10236220472440945
        },
        {
          "duration": 0.1046511627907023,
          "durationTicks": 9,
          "midi": 81,
          "name": "A5",
          "ticks": 11608,
          "time": 134.97674418604652,
          "velocity": 0.16535433070866143
        },
        {
          "duration": 0.06976744186047767,
          "durationTicks": 6,
          "midi": 46,
          "name": "A#2",
          "ticks": 11610,
          "time": 135,
          "velocity": 0.2992125984251969
        },
        {
          "duration": 0.04651162790696617,
          "durationTicks": 4,
          "midi": 92,
          "name": "G#6",
          "ticks": 11611,
          "time": 135.01162790697674,
          "velocity": 0.11811023622047244
        },
        {
          "duration": 0.023255813953483084,
          "durationTicks": 2,
          "midi": 43,
          "name": "G2",
          "ticks": 11617,
          "time": 135.08139534883722,
          "velocity": 0.3858267716535433
        },
        {
          "duration": 0.25581395348837077,
          "durationTicks": 22,
          "midi": 58,
          "name": "A#3",
          "ticks": 11619,
          "time": 135.1046511627907,
          "velocity": 0.41732283464566927
        },
        {
          "duration": 0.08139534883721922,
          "durationTicks": 7,
          "midi": 53,
          "name": "F3",
          "ticks": 11620,
          "time": 135.11627906976744,
          "velocity": 0.30708661417322836
        },
        {
          "duration": 0.09302325581396076,
          "durationTicks": 8,
          "midi": 46,
          "name": "A#2",
          "ticks": 11621,
          "time": 135.12790697674419,
          "velocity": 0.3937007874015748
        },
        {
          "duration": 0.13953488372092693,
          "durationTicks": 12,
          "midi": 81,
          "name": "A5",
          "ticks": 11628,
          "time": 135.2093023255814,
          "velocity": 0.13385826771653545
        },
        {
          "duration": 0.2906976744185954,
          "durationTicks": 25,
          "midi": 83,
          "name": "B5",
          "ticks": 11628,
          "time": 135.2093023255814,
          "velocity": 0.23622047244094488
        },
        {
          "duration": 0.24418604651162923,
          "durationTicks": 21,
          "midi": 102,
          "name": "F#7",
          "ticks": 11628,
          "time": 135.2093023255814,
          "velocity": 0.25984251968503935
        },
        {
          "duration": 0.27906976744185386,
          "durationTicks": 24,
          "midi": 92,
          "name": "G#6",
          "ticks": 11629,
          "time": 135.22093023255815,
          "velocity": 0.1732283464566929
        },
        {
          "duration": 0.06976744186044925,
          "durationTicks": 6,
          "midi": 98,
          "name": "D7",
          "ticks": 11630,
          "time": 135.2325581395349,
          "velocity": 0.09448818897637795
        },
        {
          "duration": 0.023255813953483084,
          "durationTicks": 2,
          "midi": 45,
          "name": "A2",
          "ticks": 11632,
          "time": 135.25581395348837,
          "velocity": 0.33070866141732286
        },
        {
          "duration": 0.08139534883721922,
          "durationTicks": 7,
          "midi": 53,
          "name": "F3",
          "ticks": 11632,
          "time": 135.25581395348837,
          "velocity": 0.3543307086614173
        },
        {
          "duration": 0.06976744186047767,
          "durationTicks": 6,
          "midi": 46,
          "name": "A#2",
          "ticks": 11634,
          "time": 135.27906976744185,
          "velocity": 0.3464566929133858
        },
        {
          "duration": 0.034883720930224626,
          "durationTicks": 3,
          "midi": 45,
          "name": "A2",
          "ticks": 11641,
          "time": 135.36046511627907,
          "velocity": 0.4409448818897638
        },
        {
          "duration": 0.04651162790696617,
          "durationTicks": 4,
          "midi": 71,
          "name": "B4",
          "ticks": 11641,
          "time": 135.36046511627907,
          "velocity": 0.14173228346456693
        },
        {
          "duration": 0.2093023255814046,
          "durationTicks": 18,
          "midi": 58,
          "name": "A#3",
          "ticks": 11642,
          "time": 135.37209302325581,
          "velocity": 0.4251968503937008
        },
        {
          "duration": 0.04651162790699459,
          "durationTicks": 4,
          "midi": 53,
          "name": "F3",
          "ticks": 11644,
          "time": 135.3953488372093,
          "velocity": 0.23622047244094488
        },
        {
          "duration": 0.06976744186047767,
          "durationTicks": 6,
          "midi": 46,
          "name": "A#2",
          "ticks": 11646,
          "time": 135.41860465116278,
          "velocity": 0.4094488188976378
        },
        {
          "duration": 0.034883720930224626,
          "durationTicks": 3,
          "midi": 71,
          "name": "B4",
          "ticks": 11651,
          "time": 135.47674418604652,
          "velocity": 0.2204724409448819
        },
        {
          "duration": 0.023255813953483084,
          "durationTicks": 2,
          "midi": 45,
          "name": "A2",
          "ticks": 11653,
          "time": 135.5,
          "velocity": 0.3858267716535433
        },
        {
          "duration": 0.06976744186047767,
          "durationTicks": 6,
          "midi": 46,
          "name": "A#2",
          "ticks": 11655,
          "time": 135.52325581395348,
          "velocity": 0.3779527559055118
        },
        {
          "duration": 0.06976744186047767,
          "durationTicks": 6,
          "midi": 53,
          "name": "F3",
          "ticks": 11655,
          "time": 135.52325581395348,
          "velocity": 0.3228346456692913
        },
        {
          "duration": 0.023255813953483084,
          "durationTicks": 2,
          "midi": 63,
          "name": "D#4",
          "ticks": 11655,
          "time": 135.52325581395348,
          "velocity": 0.3543307086614173
        },
        {
          "duration": 0.03488372093025305,
          "durationTicks": 3,
          "midi": 62,
          "name": "D4",
          "ticks": 11657,
          "time": 135.54651162790697,
          "velocity": 0.3228346456692913
        },
        {
          "duration": 0.15116279069766847,
          "durationTicks": 13,
          "midi": 65,
          "name": "F4",
          "ticks": 11660,
          "time": 135.58139534883722,
          "velocity": 0.4645669291338583
        },
        {
          "duration": 0.15116279069766847,
          "durationTicks": 13,
          "midi": 84,
          "name": "C6",
          "ticks": 11661,
          "time": 135.59302325581396,
          "velocity": 0.29133858267716534
        },
        {
          "duration": 0.15116279069766847,
          "durationTicks": 13,
          "midi": 89,
          "name": "F6",
          "ticks": 11661,
          "time": 135.59302325581396,
          "velocity": 0.33070866141732286
        },
        {
          "duration": 0.11627906976744384,
          "durationTicks": 10,
          "midi": 99,
          "name": "D#7",
          "ticks": 11661,
          "time": 135.59302325581396,
          "velocity": 0.07874015748031496
        },
        {
          "duration": 0.06976744186044925,
          "durationTicks": 6,
          "midi": 91,
          "name": "G6",
          "ticks": 11662,
          "time": 135.6046511627907,
          "velocity": 0.08661417322834646
        },
        {
          "duration": 0.06976744186044925,
          "durationTicks": 6,
          "midi": 86,
          "name": "D6",
          "ticks": 11663,
          "time": 135.61627906976744,
          "velocity": 0.09448818897637795
        },
        {
          "duration": 0.034883720930224626,
          "durationTicks": 3,
          "midi": 98,
          "name": "D7",
          "ticks": 11663,
          "time": 135.61627906976744,
          "velocity": 0.13385826771653545
        },
        {
          "duration": 0.11627906976744384,
          "durationTicks": 10,
          "midi": 58,
          "name": "A#3",
          "ticks": 11664,
          "time": 135.62790697674419,
          "velocity": 0.3228346456692913
        },
        {
          "duration": 0.12790697674418539,
          "durationTicks": 11,
          "midi": 72,
          "name": "C5",
          "ticks": 11664,
          "time": 135.62790697674419,
          "velocity": 0.28346456692913385
        },
        {
          "duration": 0.13953488372092693,
          "durationTicks": 12,
          "midi": 81,
          "name": "A5",
          "ticks": 11664,
          "time": 135.62790697674419,
          "velocity": 0.14173228346456693
        },
        {
          "duration": 0.11627906976744384,
          "durationTicks": 10,
          "midi": 53,
          "name": "F3",
          "ticks": 11665,
          "time": 135.63953488372093,
          "velocity": 0.3779527559055118
        },
        {
          "duration": 0.09302325581396076,
          "durationTicks": 8,
          "midi": 82,
          "name": "A#5",
          "ticks": 11665,
          "time": 135.63953488372093,
          "velocity": 0.07086614173228346
        },
        {
          "duration": 0.09302325581396076,
          "durationTicks": 8,
          "midi": 46,
          "name": "A#2",
          "ticks": 11667,
          "time": 135.6627906976744,
          "velocity": 0.3700787401574803
        },
        {
          "duration": 0.05813953488373613,
          "durationTicks": 5,
          "midi": 80,
          "name": "G#5",
          "ticks": 11669,
          "time": 135.6860465116279,
          "velocity": 0.07874015748031496
        },
        {
          "duration": 0.034883720930224626,
          "durationTicks": 3,
          "midi": 64,
          "name": "E4",
          "ticks": 11673,
          "time": 135.7325581395349,
          "velocity": 0.3228346456692913
        },
        {
          "duration": 0.034883720930224626,
          "durationTicks": 3,
          "midi": 98,
          "name": "D7",
          "ticks": 11673,
          "time": 135.7325581395349,
          "velocity": 0.10236220472440945
        },
        {
          "duration": 0.034883720930224626,
          "durationTicks": 3,
          "midi": 47,
          "name": "B2",
          "ticks": 11675,
          "time": 135.75581395348837,
          "velocity": 0.4015748031496063
        },
        {
          "duration": 0.034883720930224626,
          "durationTicks": 3,
          "midi": 54,
          "name": "F#3",
          "ticks": 11675,
          "time": 135.75581395348837,
          "velocity": 0.44881889763779526
        },
        {
          "duration": 0.034883720930224626,
          "durationTicks": 3,
          "midi": 71,
          "name": "B4",
          "ticks": 11675,
          "time": 135.75581395348837,
          "velocity": 0.2677165354330709
        },
        {
          "duration": 0.04651162790699459,
          "durationTicks": 4,
          "midi": 48,
          "name": "C3",
          "ticks": 11678,
          "time": 135.7906976744186,
          "velocity": 0.4094488188976378
        },
        {
          "duration": 0.32558139534884845,
          "durationTicks": 28,
          "midi": 55,
          "name": "G3",
          "ticks": 11678,
          "time": 135.7906976744186,
          "velocity": 0.4645669291338583
        },
        {
          "duration": 0.04651162790699459,
          "durationTicks": 4,
          "midi": 72,
          "name": "C5",
          "ticks": 11678,
          "time": 135.7906976744186,
          "velocity": 0.2440944881889764
        },
        {
          "duration": 0.034883720930224626,
          "durationTicks": 3,
          "midi": 66,
          "name": "F#4",
          "ticks": 11681,
          "time": 135.82558139534885,
          "velocity": 0.2204724409448819
        },
        {
          "duration": 0.04651162790696617,
          "durationTicks": 4,
          "midi": 71,
          "name": "B4",
          "ticks": 11682,
          "time": 135.8372093023256,
          "velocity": 0.15748031496062992
        },
        {
          "duration": 0.15116279069766847,
          "durationTicks": 13,
          "midi": 64,
          "name": "E4",
          "ticks": 11684,
          "time": 135.86046511627907,
          "velocity": 0.4645669291338583
        },
        {
          "duration": 0.15116279069766847,
          "durationTicks": 13,
          "midi": 83,
          "name": "B5",
          "ticks": 11684,
          "time": 135.86046511627907,
          "velocity": 0.23622047244094488
        },
        {
          "duration": 0.034883720930224626,
          "durationTicks": 3,
          "midi": 92,
          "name": "G#6",
          "ticks": 11684,
          "time": 135.86046511627907,
          "velocity": 0.08661417322834646
        },
        {
          "duration": 0.12790697674418539,
          "durationTicks": 11,
          "midi": 102,
          "name": "F#7",
          "ticks": 11684,
          "time": 135.86046511627907,
          "velocity": 0.2204724409448819
        },
        {
          "duration": 0.4767441860465169,
          "durationTicks": 41,
          "midi": 60,
          "name": "C4",
          "ticks": 11685,
          "time": 135.87209302325581,
          "velocity": 0.49606299212598426
        },
        {
          "duration": 0.2325581395348877,
          "durationTicks": 20,
          "midi": 48,
          "name": "C3",
          "ticks": 11686,
          "time": 135.88372093023256,
          "velocity": 0.3937007874015748
        },
        {
          "duration": 0.2093023255814046,
          "durationTicks": 18,
          "midi": 74,
          "name": "D5",
          "ticks": 11689,
          "time": 135.91860465116278,
          "velocity": 0.12598425196850394
        },
        {
          "duration": 0.04651162790699459,
          "durationTicks": 4,
          "midi": 98,
          "name": "D7",
          "ticks": 11689,
          "time": 135.91860465116278,
          "velocity": 0.08661417322834646
        },
        {
          "duration": 0.034883720930224626,
          "durationTicks": 3,
          "midi": 89,
          "name": "F6",
          "ticks": 11696,
          "time": 136,
          "velocity": 0.1732283464566929
        },
        {
          "duration": 0.034883720930224626,
          "durationTicks": 3,
          "midi": 98,
          "name": "D7",
          "ticks": 11696,
          "time": 136,
          "velocity": 0.07086614173228346
        },
        {
          "duration": 0.023255813953483084,
          "durationTicks": 2,
          "midi": 77,
          "name": "F5",
          "ticks": 11697,
          "time": 136.01162790697674,
          "velocity": 0.23622047244094488
        },
        {
          "duration": 0.15116279069766847,
          "durationTicks": 13,
          "midi": 64,
          "name": "E4",
          "ticks": 11698,
          "time": 136.02325581395348,
          "velocity": 0.4566929133858268
        },
        {
          "duration": 0.19767441860466306,
          "durationTicks": 17,
          "midi": 83,
          "name": "B5",
          "ticks": 11699,
          "time": 136.03488372093022,
          "velocity": 0.2125984251968504
        },
        {
          "duration": 0.13953488372095535,
          "durationTicks": 12,
          "midi": 79,
          "name": "G5",
          "ticks": 11701,
          "time": 136.0581395348837,
          "velocity": 0.12598425196850394
        },
        {
          "duration": 0.023255813953483084,
          "durationTicks": 2,
          "midi": 54,
          "name": "F#3",
          "ticks": 11709,
          "time": 136.15116279069767,
          "velocity": 0.4094488188976378
        },
        {
          "duration": 0.30232558139536536,
          "durationTicks": 26,
          "midi": 67,
          "name": "G4",
          "ticks": 11709,
          "time": 136.15116279069767,
          "velocity": 0.3858267716535433
        },
        {
          "duration": 0.16279069767443843,
          "durationTicks": 14,
          "midi": 86,
          "name": "D6",
          "ticks": 11709,
          "time": 136.15116279069767,
          "velocity": 0.10236220472440945
        },
        {
          "duration": 0.04651162790699459,
          "durationTicks": 4,
          "midi": 102,
          "name": "F#7",
          "ticks": 11709,
          "time": 136.15116279069767,
          "velocity": 0.13385826771653545
        },
        {
          "duration": 0.13953488372092693,
          "durationTicks": 12,
          "midi": 48,
          "name": "C3",
          "ticks": 11710,
          "time": 136.1627906976744,
          "velocity": 0.3464566929133858
        },
        {
          "duration": 0.06976744186047767,
          "durationTicks": 6,
          "midi": 74,
          "name": "D5",
          "ticks": 11710,
          "time": 136.1627906976744,
          "velocity": 0.14173228346456693
        },
        {
          "duration": 0.22093023255814614,
          "durationTicks": 19,
          "midi": 55,
          "name": "G3",
          "ticks": 11711,
          "time": 136.17441860465115,
          "velocity": 0.4330708661417323
        },
        {
          "duration": 0.13953488372092693,
          "durationTicks": 12,
          "midi": 74,
          "name": "D5",
          "ticks": 11718,
          "time": 136.25581395348837,
          "velocity": 0.09448818897637795
        },
        {
          "duration": 0.12790697674418539,
          "durationTicks": 11,
          "midi": 76,
          "name": "E5",
          "ticks": 11720,
          "time": 136.27906976744185,
          "velocity": 0.2440944881889764
        },
        {
          "duration": 0.08139534883721922,
          "durationTicks": 7,
          "midi": 64,
          "name": "E4",
          "ticks": 11721,
          "time": 136.2906976744186,
          "velocity": 0.41732283464566927
        },
        {
          "duration": 0.09302325581396076,
          "durationTicks": 8,
          "midi": 83,
          "name": "B5",
          "ticks": 11721,
          "time": 136.2906976744186,
          "velocity": 0.1732283464566929
        },
        {
          "duration": 0.05813953488370771,
          "durationTicks": 5,
          "midi": 48,
          "name": "C3",
          "ticks": 11723,
          "time": 136.3139534883721,
          "velocity": 0.3543307086614173
        },
        {
          "duration": 0.16279069767441,
          "durationTicks": 14,
          "midi": 91,
          "name": "G6",
          "ticks": 11724,
          "time": 136.32558139534885,
          "velocity": 0.2204724409448819
        },
        {
          "duration": 0.04651162790696617,
          "durationTicks": 4,
          "midi": 60,
          "name": "C4",
          "ticks": 11728,
          "time": 136.37209302325581,
          "velocity": 0.3543307086614173
        },
        {
          "duration": 0.04651162790696617,
          "durationTicks": 4,
          "midi": 86,
          "name": "D6",
          "ticks": 11728,
          "time": 136.37209302325581,
          "velocity": 0.25196850393700787
        },
        {
          "duration": 0.11627906976744384,
          "durationTicks": 10,
          "midi": 84,
          "name": "C6",
          "ticks": 11729,
          "time": 136.38372093023256,
          "velocity": 0.31496062992125984
        },
        {
          "duration": 0.1046511627907023,
          "durationTicks": 9,
          "midi": 100,
          "name": "E7",
          "ticks": 11729,
          "time": 136.38372093023256,
          "velocity": 0.12598425196850394
        },
        {
          "duration": 0.1046511627907023,
          "durationTicks": 9,
          "midi": 55,
          "name": "G3",
          "ticks": 11732,
          "time": 136.41860465116278,
          "velocity": 0.5275590551181102
        },
        {
          "duration": 0.19767441860463464,
          "durationTicks": 17,
          "midi": 48,
          "name": "C3",
          "ticks": 11734,
          "time": 136.4418604651163,
          "velocity": 0.3937007874015748
        },
        {
          "duration": 0.12790697674418539,
          "durationTicks": 11,
          "midi": 74,
          "name": "D5",
          "ticks": 11739,
          "time": 136.5,
          "velocity": 0.3228346456692913
        },
        {
          "duration": 0.12790697674418539,
          "durationTicks": 11,
          "midi": 93,
          "name": "A6",
          "ticks": 11739,
          "time": 136.5,
          "velocity": 0.1889763779527559
        },
        {
          "duration": 0.034883720930224626,
          "durationTicks": 3,
          "midi": 54,
          "name": "F#3",
          "ticks": 11741,
          "time": 136.52325581395348,
          "velocity": 0.4645669291338583
        },
        {
          "duration": 0.06976744186047767,
          "durationTicks": 6,
          "midi": 55,
          "name": "G3",
          "ticks": 11744,
          "time": 136.5581395348837,
          "velocity": 0.4645669291338583
        },
        {
          "duration": 0.04651162790696617,
          "durationTicks": 4,
          "midi": 75,
          "name": "D#5",
          "ticks": 11750,
          "time": 136.62790697674419,
          "velocity": 0.36220472440944884
        },
        {
          "duration": 0.023255813953483084,
          "durationTicks": 2,
          "midi": 49,
          "name": "C#3",
          "ticks": 11751,
          "time": 136.63953488372093,
          "velocity": 0.4015748031496063
        },
        {
          "duration": 0.3720930232558146,
          "durationTicks": 32,
          "midi": 60,
          "name": "C4",
          "ticks": 11752,
          "time": 136.65116279069767,
          "velocity": 0.4330708661417323
        },
        {
          "duration": 0.04651162790699459,
          "durationTicks": 4,
          "midi": 67,
          "name": "G4",
          "ticks": 11752,
          "time": 136.65116279069767,
          "velocity": 0.16535433070866143
        },
        {
          "duration": 0.12790697674418539,
          "durationTicks": 11,
          "midi": 48,
          "name": "C3",
          "ticks": 11753,
          "time": 136.6627906976744,
          "velocity": 0.4251968503937008
        },
        {
          "duration": 0.1046511627907023,
          "durationTicks": 9,
          "midi": 76,
          "name": "E5",
          "ticks": 11753,
          "time": 136.6627906976744,
          "velocity": 0.3937007874015748
        },
        {
          "duration": 0.1046511627907023,
          "durationTicks": 9,
          "midi": 55,
          "name": "G3",
          "ticks": 11754,
          "time": 136.67441860465115,
          "velocity": 0.4330708661417323
        },
        {
          "duration": 0.03488372093025305,
          "durationTicks": 3,
          "midi": 56,
          "name": "G#3",
          "ticks": 11763,
          "time": 136.77906976744185,
          "velocity": 0.4645669291338583
        },
        {
          "duration": 0.17441860465117998,
          "durationTicks": 15,
          "midi": 69,
          "name": "A4",
          "ticks": 11763,
          "time": 136.77906976744185,
          "velocity": 0.30708661417322836
        },
        {
          "duration": 0.04651162790699459,
          "durationTicks": 4,
          "midi": 88,
          "name": "E6",
          "ticks": 11763,
          "time": 136.77906976744185,
          "velocity": 0.18110236220472442
        },
        {
          "duration": 0.1046511627907023,
          "durationTicks": 9,
          "midi": 83,
          "name": "B5",
          "ticks": 11765,
          "time": 136.80232558139534,
          "velocity": 0.10236220472440945
        },
        {
          "duration": 0.22093023255811772,
          "durationTicks": 19,
          "midi": 55,
          "name": "G3",
          "ticks": 11766,
          "time": 136.8139534883721,
          "velocity": 0.5196850393700787
        },
        {
          "duration": 0.06976744186044925,
          "durationTicks": 6,
          "midi": 48,
          "name": "C3",
          "ticks": 11768,
          "time": 136.8372093023256,
          "velocity": 0.2204724409448819
        },
        {
          "duration": 0.05813953488370771,
          "durationTicks": 5,
          "midi": 88,
          "name": "E6",
          "ticks": 11769,
          "time": 136.84883720930233,
          "velocity": 0.13385826771653545
        },
        {
          "duration": 0.15116279069766847,
          "durationTicks": 13,
          "midi": 76,
          "name": "E5",
          "ticks": 11773,
          "time": 136.8953488372093,
          "velocity": 0.4645669291338583
        },
        {
          "duration": 0.13953488372092693,
          "durationTicks": 12,
          "midi": 95,
          "name": "B6",
          "ticks": 11774,
          "time": 136.90697674418604,
          "velocity": 0.28346456692913385
        },
        {
          "duration": 0.09302325581393234,
          "durationTicks": 8,
          "midi": 48,
          "name": "C3",
          "ticks": 11777,
          "time": 136.9418604651163,
          "velocity": 0.2440944881889764
        },
        {
          "duration": 0.023255813953483084,
          "durationTicks": 2,
          "midi": 61,
          "name": "C#4",
          "ticks": 11784,
          "time": 137.02325581395348,
          "velocity": 0.31496062992125984
        },
        {
          "duration": 0.12790697674418539,
          "durationTicks": 11,
          "midi": 60,
          "name": "C4",
          "ticks": 11786,
          "time": 137.04651162790697,
          "velocity": 0.4015748031496063
        },
        {
          "duration": 0.1511627906976969,
          "durationTicks": 13,
          "midi": 77,
          "name": "F5",
          "ticks": 11786,
          "time": 137.04651162790697,
          "velocity": 0.31496062992125984
        },
        {
          "duration": 0.023255813953511506,
          "durationTicks": 2,
          "midi": 42,
          "name": "F#2",
          "ticks": 11787,
          "time": 137.0581395348837,
          "velocity": 0.25984251968503935
        },
        {
          "duration": 0.26744186046514073,
          "durationTicks": 23,
          "midi": 55,
          "name": "G3",
          "ticks": 11787,
          "time": 137.0581395348837,
          "velocity": 0.5118110236220472
        },
        {
          "duration": 0.10465116279067388,
          "durationTicks": 9,
          "midi": 48,
          "name": "C3",
          "ticks": 11789,
          "time": 137.08139534883722,
          "velocity": 0.3700787401574803
        },
        {
          "duration": 0.04651162790696617,
          "durationTicks": 4,
          "midi": 102,
          "name": "F#7",
          "ticks": 11789,
          "time": 137.08139534883722,
          "velocity": 0.07086614173228346
        },
        {
          "duration": 0.03488372093025305,
          "durationTicks": 3,
          "midi": 66,
          "name": "F#4",
          "ticks": 11797,
          "time": 137.17441860465115,
          "velocity": 0.10236220472440945
        },
        {
          "duration": 0.16279069767443843,
          "durationTicks": 14,
          "midi": 82,
          "name": "A#5",
          "ticks": 11797,
          "time": 137.17441860465115,
          "velocity": 0.33070866141732286
        },
        {
          "duration": 0.023255813953511506,
          "durationTicks": 2,
          "midi": 46,
          "name": "A#2",
          "ticks": 11798,
          "time": 137.1860465116279,
          "velocity": 0.3937007874015748
        },
        {
          "duration": 0.10465116279067388,
          "durationTicks": 9,
          "midi": 60,
          "name": "C4",
          "ticks": 11799,
          "time": 137.19767441860466,
          "velocity": 0.31496062992125984
        },
        {
          "duration": 0.12790697674418539,
          "durationTicks": 11,
          "midi": 70,
          "name": "A#4",
          "ticks": 11800,
          "time": 137.2093023255814,
          "velocity": 0.25196850393700787
        },
        {
          "duration": 0.34883720930233153,
          "durationTicks": 30,
          "midi": 48,
          "name": "C3",
          "ticks": 11801,
          "time": 137.22093023255815,
          "velocity": 0.3937007874015748
        },
        {
          "duration": 0.2441860465116008,
          "durationTicks": 21,
          "midi": 60,
          "name": "C4",
          "ticks": 11809,
          "time": 137.3139534883721,
          "velocity": 0.4330708661417323
        },
        {
          "duration": 0.16279069767441,
          "durationTicks": 14,
          "midi": 77,
          "name": "F5",
          "ticks": 11809,
          "time": 137.3139534883721,
          "velocity": 0.41732283464566927
        },
        {
          "duration": 0.11627906976741542,
          "durationTicks": 10,
          "midi": 96,
          "name": "C7",
          "ticks": 11809,
          "time": 137.3139534883721,
          "velocity": 0.14173228346456693
        },
        {
          "duration": 0.13953488372092693,
          "durationTicks": 12,
          "midi": 88,
          "name": "E6",
          "ticks": 11810,
          "time": 137.32558139534885,
          "velocity": 0.12598425196850394
        },
        {
          "duration": 0.2325581395348877,
          "durationTicks": 20,
          "midi": 55,
          "name": "G3",
          "ticks": 11812,
          "time": 137.34883720930233,
          "velocity": 0.49606299212598426
        },
        {
          "duration": 0.11627906976744384,
          "durationTicks": 10,
          "midi": 91,
          "name": "G6",
          "ticks": 11821,
          "time": 137.45348837209303,
          "velocity": 0.15748031496062992
        },
        {
          "duration": 0.06976744186044925,
          "durationTicks": 6,
          "midi": 79,
          "name": "G5",
          "ticks": 11823,
          "time": 137.47674418604652,
          "velocity": 0.11023622047244094
        },
        {
          "duration": 0.0813953488371908,
          "durationTicks": 7,
          "midi": 98,
          "name": "D7",
          "ticks": 11823,
          "time": 137.47674418604652,
          "velocity": 0.07874015748031496
        },
        {
          "duration": 0.023255813953511506,
          "durationTicks": 2,
          "midi": 61,
          "name": "C#4",
          "ticks": 11830,
          "time": 137.5581395348837,
          "velocity": 0.30708661417322836
        },
        {
          "duration": 0.034883720930224626,
          "durationTicks": 3,
          "midi": 83,
          "name": "B5",
          "ticks": 11831,
          "time": 137.56976744186048,
          "velocity": 0.08661417322834646
        },
        {
          "duration": 0.05813953488370771,
          "durationTicks": 5,
          "midi": 48,
          "name": "C3",
          "ticks": 11832,
          "time": 137.58139534883722,
          "velocity": 0.30708661417322836
        },
        {
          "duration": 0.11627906976744384,
          "durationTicks": 10,
          "midi": 60,
          "name": "C4",
          "ticks": 11832,
          "time": 137.58139534883722,
          "velocity": 0.4251968503937008
        },
        {
          "duration": 0.034883720930224626,
          "durationTicks": 3,
          "midi": 75,
          "name": "D#5",
          "ticks": 11832,
          "time": 137.58139534883722,
          "velocity": 0.14173228346456693
        },
        {
          "duration": 0.17441860465115155,
          "durationTicks": 15,
          "midi": 84,
          "name": "C6",
          "ticks": 11832,
          "time": 137.58139534883722,
          "velocity": 0.23622047244094488
        },
        {
          "duration": 0.0813953488371908,
          "durationTicks": 7,
          "midi": 79,
          "name": "G5",
          "ticks": 11833,
          "time": 137.59302325581396,
          "velocity": 0.11023622047244094
        },
        {
          "duration": 0.05813953488370771,
          "durationTicks": 5,
          "midi": 88,
          "name": "E6",
          "ticks": 11833,
          "time": 137.59302325581396,
          "velocity": 0.10236220472440945
        },
        {
          "duration": 0.22093023255814614,
          "durationTicks": 19,
          "midi": 91,
          "name": "G6",
          "ticks": 11833,
          "time": 137.59302325581396,
          "velocity": 0.2992125984251969
        },
        {
          "duration": 0.1046511627907023,
          "durationTicks": 9,
          "midi": 55,
          "name": "G3",
          "ticks": 11834,
          "time": 137.6046511627907,
          "velocity": 0.5039370078740157
        },
        {
          "duration": 0.04651162790699459,
          "durationTicks": 4,
          "midi": 48,
          "name": "C3",
          "ticks": 11838,
          "time": 137.65116279069767,
          "velocity": 0.2992125984251969
        },
        {
          "duration": 0.034883720930224626,
          "durationTicks": 3,
          "midi": 80,
          "name": "G#5",
          "ticks": 11842,
          "time": 137.69767441860466,
          "velocity": 0.09448818897637795
        },
        {
          "duration": 0.06976744186044925,
          "durationTicks": 6,
          "midi": 42,
          "name": "F#2",
          "ticks": 11843,
          "time": 137.7093023255814,
          "velocity": 0.3228346456692913
        },
        {
          "duration": 0.05813953488370771,
          "durationTicks": 5,
          "midi": 59,
          "name": "B3",
          "ticks": 11844,
          "time": 137.72093023255815,
          "velocity": 0.29133858267716534
        },
        {
          "duration": 0.1046511627907023,
          "durationTicks": 9,
          "midi": 98,
          "name": "D7",
          "ticks": 11844,
          "time": 137.72093023255815,
          "velocity": 0.25196850393700787
        },
        {
          "duration": 0.04651162790696617,
          "durationTicks": 4,
          "midi": 64,
          "name": "E4",
          "ticks": 11845,
          "time": 137.7325581395349,
          "velocity": 0.13385826771653545
        },
        {
          "duration": 0.08139534883721922,
          "durationTicks": 7,
          "midi": 79,
          "name": "G5",
          "ticks": 11845,
          "time": 137.7325581395349,
          "velocity": 0.23622047244094488
        },
        {
          "duration": 0.04651162790696617,
          "durationTicks": 4,
          "midi": 80,
          "name": "G#5",
          "ticks": 11852,
          "time": 137.8139534883721,
          "velocity": 0.2677165354330709
        },
        {
          "duration": 0.04651162790696617,
          "durationTicks": 4,
          "midi": 71,
          "name": "B4",
          "ticks": 11853,
          "time": 137.82558139534885,
          "velocity": 0.2125984251968504
        },
        {
          "duration": 0.023255813953483084,
          "durationTicks": 2,
          "midi": 55,
          "name": "G3",
          "ticks": 11854,
          "time": 137.8372093023256,
          "velocity": 0.36220472440944884
        },
        {
          "duration": 0.9302325581395223,
          "durationTicks": 80,
          "midi": 81,
          "name": "A5",
          "ticks": 11855,
          "time": 137.84883720930233,
          "velocity": 0.4094488188976378
        },
        {
          "duration": 0.023255813953483084,
          "durationTicks": 2,
          "midi": 57,
          "name": "A3",
          "ticks": 11857,
          "time": 137.87209302325581,
          "velocity": 0.2283464566929134
        },
        {
          "duration": 0.05813953488373613,
          "durationTicks": 5,
          "midi": 51,
          "name": "D#3",
          "ticks": 11858,
          "time": 137.88372093023256,
          "velocity": 0.2992125984251969
        },
        {
          "duration": 0.023255813953511506,
          "durationTicks": 2,
          "midi": 42,
          "name": "F#2",
          "ticks": 11862,
          "time": 137.93023255813952,
          "velocity": 0.2755905511811024
        },
        {
          "duration": 0.034883720930224626,
          "durationTicks": 3,
          "midi": 45,
          "name": "A2",
          "ticks": 11864,
          "time": 137.95348837209303,
          "velocity": 0.3858267716535433
        },
        {
          "duration": 0.27906976744185386,
          "durationTicks": 24,
          "midi": 74,
          "name": "D5",
          "ticks": 11864,
          "time": 137.95348837209303,
          "velocity": 0.23622047244094488
        },
        {
          "duration": 0.034883720930224626,
          "durationTicks": 3,
          "midi": 90,
          "name": "F#6",
          "ticks": 11864,
          "time": 137.95348837209303,
          "velocity": 0.11811023622047244
        },
        {
          "duration": 0.4186046511627808,
          "durationTicks": 36,
          "midi": 88,
          "name": "E6",
          "ticks": 11865,
          "time": 137.96511627906978,
          "velocity": 0.14173228346456693
        },
        {
          "duration": 0.04651162790696617,
          "durationTicks": 4,
          "midi": 92,
          "name": "G#6",
          "ticks": 11865,
          "time": 137.96511627906978,
          "velocity": 0.14960629921259844
        },
        {
          "duration": 0.06976744186044925,
          "durationTicks": 6,
          "midi": 50,
          "name": "D3",
          "ticks": 11866,
          "time": 137.97674418604652,
          "velocity": 0.36220472440944884
        },
        {
          "duration": 0.24418604651162923,
          "durationTicks": 21,
          "midi": 57,
          "name": "A3",
          "ticks": 11866,
          "time": 137.97674418604652,
          "velocity": 0.44881889763779526
        },
        {
          "duration": 0.48837209302325846,
          "durationTicks": 42,
          "midi": 62,
          "name": "D4",
          "ticks": 11866,
          "time": 137.97674418604652,
          "velocity": 0.3700787401574803
        },
        {
          "duration": 0.09302325581396076,
          "durationTicks": 8,
          "midi": 91,
          "name": "G6",
          "ticks": 11866,
          "time": 137.97674418604652,
          "velocity": 0.3464566929133858
        },
        {
          "duration": 0.0813953488371908,
          "durationTicks": 7,
          "midi": 98,
          "name": "D7",
          "ticks": 11866,
          "time": 137.97674418604652,
          "velocity": 0.1968503937007874
        },
        {
          "duration": 0.05813953488370771,
          "durationTicks": 5,
          "midi": 76,
          "name": "E5",
          "ticks": 11867,
          "time": 137.98837209302326,
          "velocity": 0.11811023622047244
        },
        {
          "duration": 0.08139534883721922,
          "durationTicks": 7,
          "midi": 79,
          "name": "G5",
          "ticks": 11867,
          "time": 137.98837209302326,
          "velocity": 0.2047244094488189
        },
        {
          "duration": 0.06976744186047767,
          "durationTicks": 6,
          "midi": 50,
          "name": "D3",
          "ticks": 11873,
          "time": 138.0581395348837,
          "velocity": 0.3779527559055118
        },
        {
          "duration": 0.023255813953483084,
          "durationTicks": 2,
          "midi": 45,
          "name": "A2",
          "ticks": 11882,
          "time": 138.1627906976744,
          "velocity": 0.3464566929133858
        },
        {
          "duration": 0.04651162790699459,
          "durationTicks": 4,
          "midi": 50,
          "name": "D3",
          "ticks": 11882,
          "time": 138.1627906976744,
          "velocity": 0.36220472440944884
        },
        {
          "duration": 0.034883720930224626,
          "durationTicks": 3,
          "midi": 45,
          "name": "A2",
          "ticks": 11885,
          "time": 138.19767441860466,
          "velocity": 0.3937007874015748
        },
        {
          "duration": 0.2906976744185954,
          "durationTicks": 25,
          "midi": 76,
          "name": "E5",
          "ticks": 11886,
          "time": 138.2093023255814,
          "velocity": 0.2047244094488189
        },
        {
          "duration": 0.2325581395348877,
          "durationTicks": 20,
          "midi": 57,
          "name": "A3",
          "ticks": 11888,
          "time": 138.2325581395349,
          "velocity": 0.41732283464566927
        },
        {
          "duration": 0.034883720930224626,
          "durationTicks": 3,
          "midi": 71,
          "name": "B4",
          "ticks": 11888,
          "time": 138.2325581395349,
          "velocity": 0.12598425196850394
        },
        {
          "duration": 0.15116279069766847,
          "durationTicks": 13,
          "midi": 50,
          "name": "D3",
          "ticks": 11889,
          "time": 138.24418604651163,
          "velocity": 0.3937007874015748
        },
        {
          "duration": 0.11627906976744384,
          "durationTicks": 10,
          "midi": 100,
          "name": "E7",
          "ticks": 11889,
          "time": 138.24418604651163,
          "velocity": 0.18110236220472442
        },
        {
          "duration": 0.034883720930224626,
          "durationTicks": 3,
          "midi": 102,
          "name": "F#7",
          "ticks": 11889,
          "time": 138.24418604651163,
          "velocity": 0.07874015748031496
        },
        {
          "duration": 0.04651162790699459,
          "durationTicks": 4,
          "midi": 50,
          "name": "D3",
          "ticks": 11903,
          "time": 138.40697674418604,
          "velocity": 0.33858267716535434
        },
        {
          "duration": 0.08139534883721922,
          "durationTicks": 7,
          "midi": 100,
          "name": "E7",
          "ticks": 11903,
          "time": 138.40697674418604,
          "velocity": 0.15748031496062992
        },
        {
          "duration": 0.03488372093025305,
          "durationTicks": 3,
          "midi": 45,
          "name": "A2",
          "ticks": 11905,
          "time": 138.43023255813952,
          "velocity": 0.33070866141732286
        },
        {
          "duration": 0.023255813953483084,
          "durationTicks": 2,
          "midi": 46,
          "name": "A#2",
          "ticks": 11908,
          "time": 138.46511627906978,
          "velocity": 0.30708661417322836
        },
        {
          "duration": 0.034883720930224626,
          "durationTicks": 3,
          "midi": 51,
          "name": "D#3",
          "ticks": 11908,
          "time": 138.46511627906978,
          "velocity": 0.3858267716535433
        },
        {
          "duration": 0.023255813953483084,
          "durationTicks": 2,
          "midi": 56,
          "name": "G#3",
          "ticks": 11908,
          "time": 138.46511627906978,
          "velocity": 0.3700787401574803
        },
        {
          "duration": 0.023255813953483084,
          "durationTicks": 2,
          "midi": 64,
          "name": "E4",
          "ticks": 11909,
          "time": 138.47674418604652,
          "velocity": 0.2440944881889764
        },
        {
          "duration": 0.034883720930224626,
          "durationTicks": 3,
          "midi": 44,
          "name": "G#2",
          "ticks": 11910,
          "time": 138.48837209302326,
          "velocity": 0.4251968503937008
        },
        {
          "duration": 0.12790697674418539,
          "durationTicks": 11,
          "midi": 57,
          "name": "A3",
          "ticks": 11910,
          "time": 138.48837209302326,
          "velocity": 0.4251968503937008
        },
        {
          "duration": 0.023255813953483084,
          "durationTicks": 2,
          "midi": 50,
          "name": "D3",
          "ticks": 11911,
          "time": 138.5,
          "velocity": 0.3700787401574803
        },
        {
          "duration": 0.2325581395348877,
          "durationTicks": 20,
          "midi": 62,
          "name": "D4",
          "ticks": 11911,
          "time": 138.5,
          "velocity": 0.3779527559055118
        },
        {
          "duration": 0.22093023255814614,
          "durationTicks": 19,
          "midi": 100,
          "name": "E7",
          "ticks": 11911,
          "time": 138.5,
          "velocity": 0.2677165354330709
        },
        {
          "duration": 0.06976744186044925,
          "durationTicks": 6,
          "midi": 45,
          "name": "A2",
          "ticks": 11918,
          "time": 138.58139534883722,
          "velocity": 0.3700787401574803
        },
        {
          "duration": 0.023255813953483084,
          "durationTicks": 2,
          "midi": 50,
          "name": "D3",
          "ticks": 11918,
          "time": 138.58139534883722,
          "velocity": 0.33070866141732286
        },
        {
          "duration": 0.11627906976744384,
          "durationTicks": 10,
          "midi": 69,
          "name": "A4",
          "ticks": 11922,
          "time": 138.62790697674419,
          "velocity": 0.14960629921259844
        },
        {
          "duration": 0.1046511627907023,
          "durationTicks": 9,
          "midi": 88,
          "name": "E6",
          "ticks": 11922,
          "time": 138.62790697674419,
          "velocity": 0.15748031496062992
        },
        {
          "duration": 0.1046511627907023,
          "durationTicks": 9,
          "midi": 79,
          "name": "G5",
          "ticks": 11923,
          "time": 138.63953488372093,
          "velocity": 0.18110236220472442
        },
        {
          "duration": 0.12790697674418539,
          "durationTicks": 11,
          "midi": 98,
          "name": "D7",
          "ticks": 11923,
          "time": 138.63953488372093,
          "velocity": 0.1889763779527559
        },
        {
          "duration": 0.05813953488373613,
          "durationTicks": 5,
          "midi": 57,
          "name": "A3",
          "ticks": 11924,
          "time": 138.65116279069767,
          "velocity": 0.23622047244094488
        },
        {
          "duration": 0.04651162790699459,
          "durationTicks": 4,
          "midi": 45,
          "name": "A2",
          "ticks": 11925,
          "time": 138.6627906976744,
          "velocity": 0.2992125984251969
        },
        {
          "duration": 0.023255813953483084,
          "durationTicks": 2,
          "midi": 50,
          "name": "D3",
          "ticks": 11925,
          "time": 138.6627906976744,
          "velocity": 0.2755905511811024
        },
        {
          "duration": 0.023255813953483084,
          "durationTicks": 2,
          "midi": 55,
          "name": "G3",
          "ticks": 11932,
          "time": 138.74418604651163,
          "velocity": 0.4251968503937008
        },
        {
          "duration": 0.06976744186047767,
          "durationTicks": 6,
          "midi": 42,
          "name": "F#2",
          "ticks": 11934,
          "time": 138.7674418604651,
          "velocity": 0.3228346456692913
        },
        {
          "duration": 0.023255813953483084,
          "durationTicks": 2,
          "midi": 54,
          "name": "F#3",
          "ticks": 11934,
          "time": 138.7674418604651,
          "velocity": 0.33858267716535434
        },
        {
          "duration": 0.08139534883721922,
          "durationTicks": 7,
          "midi": 77,
          "name": "F5",
          "ticks": 11934,
          "time": 138.7674418604651,
          "velocity": 0.2204724409448819
        },
        {
          "duration": 0.034883720930224626,
          "durationTicks": 3,
          "midi": 41,
          "name": "F2",
          "ticks": 11940,
          "time": 138.8372093023256,
          "velocity": 0.10236220472440945
        },
        {
          "duration": 0.023255813953483084,
          "durationTicks": 2,
          "midi": 56,
          "name": "G#3",
          "ticks": 11941,
          "time": 138.84883720930233,
          "velocity": 0.2283464566929134
        },
        {
          "duration": 0.3953488372092977,
          "durationTicks": 34,
          "midi": 73,
          "name": "C#5",
          "ticks": 11942,
          "time": 138.86046511627907,
          "velocity": 0.25196850393700787
        },
        {
          "duration": 0.034883720930224626,
          "durationTicks": 3,
          "midi": 55,
          "name": "G3",
          "ticks": 11943,
          "time": 138.87209302325581,
          "velocity": 0.44881889763779526
        },
        {
          "duration": 0.04651162790696617,
          "durationTicks": 4,
          "midi": 77,
          "name": "F5",
          "ticks": 11943,
          "time": 138.87209302325581,
          "velocity": 0.07874015748031496
        },
        {
          "duration": 0.24418604651162923,
          "durationTicks": 21,
          "midi": 61,
          "name": "C#4",
          "ticks": 11944,
          "time": 138.88372093023256,
          "velocity": 0.4330708661417323
        },
        {
          "duration": 0.24418604651162923,
          "durationTicks": 21,
          "midi": 75,
          "name": "D#5",
          "ticks": 11944,
          "time": 138.88372093023256,
          "velocity": 0.1968503937007874
        },
        {
          "duration": 0.06976744186047767,
          "durationTicks": 6,
          "midi": 79,
          "name": "G5",
          "ticks": 11944,
          "time": 138.88372093023256,
          "velocity": 0.25196850393700787
        },
        {
          "duration": 0.08139534883721922,
          "durationTicks": 7,
          "midi": 91,
          "name": "G6",
          "ticks": 11944,
          "time": 138.88372093023256,
          "velocity": 0.2677165354330709
        },
        {
          "duration": 0.06976744186047767,
          "durationTicks": 6,
          "midi": 98,
          "name": "D7",
          "ticks": 11945,
          "time": 138.8953488372093,
          "velocity": 0.2125984251968504
        },
        {
          "duration": 0.24418604651162923,
          "durationTicks": 21,
          "midi": 56,
          "name": "G#3",
          "ticks": 11946,
          "time": 138.90697674418604,
          "velocity": 0.4330708661417323
        },
        {
          "duration": 0.023255813953511506,
          "durationTicks": 2,
          "midi": 45,
          "name": "A2",
          "ticks": 11947,
          "time": 138.91860465116278,
          "velocity": 0.23622047244094488
        },
        {
          "duration": 0.1046511627907023,
          "durationTicks": 9,
          "midi": 99,
          "name": "D#7",
          "ticks": 11948,
          "time": 138.93023255813952,
          "velocity": 0.14173228346456693
        },
        {
          "duration": 0.32558139534882,
          "durationTicks": 28,
          "midi": 92,
          "name": "G#6",
          "ticks": 11949,
          "time": 138.9418604651163,
          "velocity": 0.2204724409448819
        },
        {
          "duration": 0.3139534883720785,
          "durationTicks": 27,
          "midi": 80,
          "name": "G#5",
          "ticks": 11950,
          "time": 138.95348837209303,
          "velocity": 0.29133858267716534
        },
        {
          "duration": 0.023255813953511506,
          "durationTicks": 2,
          "midi": 44,
          "name": "G#2",
          "ticks": 11958,
          "time": 139.04651162790697,
          "velocity": 0.2283464566929134
        },
        {
          "duration": 0.023255813953483084,
          "durationTicks": 2,
          "midi": 44,
          "name": "G#2",
          "ticks": 11963,
          "time": 139.1046511627907,
          "velocity": 0.2283464566929134
        },
        {
          "duration": 0.023255813953483084,
          "durationTicks": 2,
          "midi": 44,
          "name": "G#2",
          "ticks": 11966,
          "time": 139.13953488372093,
          "velocity": 0.29133858267716534
        },
        {
          "duration": 0.12790697674418539,
          "durationTicks": 11,
          "midi": 61,
          "name": "C#4",
          "ticks": 11967,
          "time": 139.15116279069767,
          "velocity": 0.3779527559055118
        },
        {
          "duration": 0.1046511627907023,
          "durationTicks": 9,
          "midi": 87,
          "name": "D#6",
          "ticks": 11967,
          "time": 139.15116279069767,
          "velocity": 0.12598425196850394
        },
        {
          "duration": 0.023255813953483084,
          "durationTicks": 2,
          "midi": 55,
          "name": "G3",
          "ticks": 11968,
          "time": 139.1627906976744,
          "velocity": 0.3858267716535433
        },
        {
          "duration": 0.023255813953511506,
          "durationTicks": 2,
          "midi": 44,
          "name": "G#2",
          "ticks": 11970,
          "time": 139.1860465116279,
          "velocity": 0.30708661417322836
        },
        {
          "duration": 0.09302325581396076,
          "durationTicks": 8,
          "midi": 56,
          "name": "G#3",
          "ticks": 11970,
          "time": 139.1860465116279,
          "velocity": 0.3543307086614173
        },
        {
          "duration": 0.04651162790696617,
          "durationTicks": 4,
          "midi": 99,
          "name": "D#7",
          "ticks": 11972,
          "time": 139.2093023255814,
          "velocity": 0.13385826771653545
        },
        {
          "duration": 0.023255813953483084,
          "durationTicks": 2,
          "midi": 44,
          "name": "G#2",
          "ticks": 11973,
          "time": 139.22093023255815,
          "velocity": 0.3228346456692913
        },
        {
          "duration": 0.034883720930224626,
          "durationTicks": 3,
          "midi": 74,
          "name": "D5",
          "ticks": 11976,
          "time": 139.25581395348837,
          "velocity": 0.09448818897637795
        },
        {
          "duration": 0.12790697674418539,
          "durationTicks": 11,
          "midi": 80,
          "name": "G#5",
          "ticks": 11978,
          "time": 139.27906976744185,
          "velocity": 0.3464566929133858
        },
        {
          "duration": 0.03488372093025305,
          "durationTicks": 3,
          "midi": 43,
          "name": "G2",
          "ticks": 11979,
          "time": 139.2906976744186,
          "velocity": 0.4015748031496063
        },
        {
          "duration": 0.1046511627907023,
          "durationTicks": 9,
          "midi": 56,
          "name": "G#3",
          "ticks": 11979,
          "time": 139.2906976744186,
          "velocity": 0.44881889763779526
        },
        {
          "duration": 0.12790697674418539,
          "durationTicks": 11,
          "midi": 63,
          "name": "D#4",
          "ticks": 11979,
          "time": 139.2906976744186,
          "velocity": 0.25196850393700787
        },
        {
          "duration": 0.09302325581396076,
          "durationTicks": 8,
          "midi": 99,
          "name": "D#7",
          "ticks": 11979,
          "time": 139.2906976744186,
          "velocity": 0.09448818897637795
        },
        {
          "duration": 0.034883720930224626,
          "durationTicks": 3,
          "midi": 44,
          "name": "G#2",
          "ticks": 11982,
          "time": 139.32558139534885,
          "velocity": 0.3228346456692913
        },
        {
          "duration": 0.023255813953483084,
          "durationTicks": 2,
          "midi": 57,
          "name": "A3",
          "ticks": 11988,
          "time": 139.3953488372093,
          "velocity": 0.36220472440944884
        },
        {
          "duration": 0.034883720930224626,
          "durationTicks": 3,
          "midi": 102,
          "name": "F#7",
          "ticks": 11988,
          "time": 139.3953488372093,
          "velocity": 0.10236220472440945
        },
        {
          "duration": 0.023255813953483084,
          "durationTicks": 2,
          "midi": 40,
          "name": "E2",
          "ticks": 11989,
          "time": 139.40697674418604,
          "velocity": 0.23622047244094488
        },
        {
          "duration": 0.3953488372092977,
          "durationTicks": 34,
          "midi": 68,
          "name": "G#4",
          "ticks": 11989,
          "time": 139.40697674418604,
          "velocity": 0.16535433070866143
        },
        {
          "duration": 0.03488372093025305,
          "durationTicks": 3,
          "midi": 71,
          "name": "B4",
          "ticks": 11989,
          "time": 139.40697674418604,
          "velocity": 0.12598425196850394
        },
        {
          "duration": 0.18604651162792152,
          "durationTicks": 16,
          "midi": 87,
          "name": "D#6",
          "ticks": 11989,
          "time": 139.40697674418604,
          "velocity": 0.2440944881889764
        },
        {
          "duration": 0.38372093023255616,
          "durationTicks": 33,
          "midi": 56,
          "name": "G#3",
          "ticks": 11990,
          "time": 139.41860465116278,
          "velocity": 0.47244094488188976
        },
        {
          "duration": 0.2325581395348877,
          "durationTicks": 20,
          "midi": 61,
          "name": "C#4",
          "ticks": 11990,
          "time": 139.41860465116278,
          "velocity": 0.2992125984251969
        },
        {
          "duration": 0.11627906976744384,
          "durationTicks": 10,
          "midi": 92,
          "name": "G#6",
          "ticks": 11990,
          "time": 139.41860465116278,
          "velocity": 0.12598425196850394
        },
        {
          "duration": 0.30232558139536536,
          "durationTicks": 26,
          "midi": 80,
          "name": "G#5",
          "ticks": 11991,
          "time": 139.43023255813952,
          "velocity": 0.3700787401574803
        },
        {
          "duration": 0.034883720930224626,
          "durationTicks": 3,
          "midi": 49,
          "name": "C#3",
          "ticks": 11993,
          "time": 139.45348837209303,
          "velocity": 0.3779527559055118
        },
        {
          "duration": 0.34883720930233153,
          "durationTicks": 30,
          "midi": 75,
          "name": "D#5",
          "ticks": 11994,
          "time": 139.46511627906978,
          "velocity": 0.2755905511811024
        },
        {
          "duration": 0.17441860465117998,
          "durationTicks": 15,
          "midi": 77,
          "name": "F5",
          "ticks": 12002,
          "time": 139.5581395348837,
          "velocity": 0.10236220472440945
        },
        {
          "duration": 0.023255813953483084,
          "durationTicks": 2,
          "midi": 49,
          "name": "C#3",
          "ticks": 12005,
          "time": 139.59302325581396,
          "velocity": 0.3779527559055118
        },
        {
          "duration": 0.034883720930224626,
          "durationTicks": 3,
          "midi": 49,
          "name": "C#3",
          "ticks": 12010,
          "time": 139.65116279069767,
          "velocity": 0.31496062992125984
        },
        {
          "duration": 0.023255813953483084,
          "durationTicks": 2,
          "midi": 60,
          "name": "C4",
          "ticks": 12010,
          "time": 139.65116279069767,
          "velocity": 0.29133858267716534
        },
        {
          "duration": 0.2325581395348877,
          "durationTicks": 20,
          "midi": 73,
          "name": "C#5",
          "ticks": 12012,
          "time": 139.67441860465115,
          "velocity": 0.23622047244094488
        },
        {
          "duration": 0.13953488372095535,
          "durationTicks": 12,
          "midi": 61,
          "name": "C#4",
          "ticks": 12013,
          "time": 139.6860465116279,
          "velocity": 0.2992125984251969
        },
        {
          "duration": 0.08139534883721922,
          "durationTicks": 7,
          "midi": 91,
          "name": "G6",
          "ticks": 12013,
          "time": 139.6860465116279,
          "velocity": 0.14173228346456693
        },
        {
          "duration": 0.06976744186047767,
          "durationTicks": 6,
          "midi": 98,
          "name": "D7",
          "ticks": 12013,
          "time": 139.6860465116279,
          "velocity": 0.25984251968503935
        },
        {
          "duration": 0.05813953488370771,
          "durationTicks": 5,
          "midi": 79,
          "name": "G5",
          "ticks": 12015,
          "time": 139.7093023255814,
          "velocity": 0.13385826771653545
        },
        {
          "duration": 0.034883720930224626,
          "durationTicks": 3,
          "midi": 102,
          "name": "F#7",
          "ticks": 12016,
          "time": 139.72093023255815,
          "velocity": 0.07086614173228346
        },
        {
          "duration": 0.023255813953483084,
          "durationTicks": 2,
          "midi": 49,
          "name": "C#3",
          "ticks": 12017,
          "time": 139.7325581395349,
          "velocity": 0.3543307086614173
        },
        {
          "duration": 0.1046511627907023,
          "durationTicks": 9,
          "midi": 77,
          "name": "F5",
          "ticks": 12022,
          "time": 139.7906976744186,
          "velocity": 0.4094488188976378
        },
        {
          "duration": 0.023255813953511506,
          "durationTicks": 2,
          "midi": 43,
          "name": "G2",
          "ticks": 12023,
          "time": 139.80232558139534,
          "velocity": 0.3543307086614173
        },
        {
          "duration": 0.023255813953511506,
          "durationTicks": 2,
          "midi": 55,
          "name": "G3",
          "ticks": 12023,
          "time": 139.80232558139534,
          "velocity": 0.4015748031496063
        },
        {
          "duration": 0.09302325581396076,
          "durationTicks": 8,
          "midi": 96,
          "name": "C7",
          "ticks": 12023,
          "time": 139.80232558139534,
          "velocity": 0.1732283464566929
        },
        {
          "duration": 0.023255813953483084,
          "durationTicks": 2,
          "midi": 42,
          "name": "F#2",
          "ticks": 12025,
          "time": 139.82558139534885,
          "velocity": 0.36220472440944884
        },
        {
          "duration": 0.12790697674418539,
          "durationTicks": 11,
          "midi": 56,
          "name": "G#3",
          "ticks": 12025,
          "time": 139.82558139534885,
          "velocity": 0.4251968503937008
        },
        {
          "duration": 0.12790697674418539,
          "durationTicks": 11,
          "midi": 61,
          "name": "C#4",
          "ticks": 12026,
          "time": 139.8372093023256,
          "velocity": 0.33070866141732286
        },
        {
          "duration": 0.11627906976744384,
          "durationTicks": 10,
          "midi": 75,
          "name": "D#5",
          "ticks": 12026,
          "time": 139.8372093023256,
          "velocity": 0.16535433070866143
        },
        {
          "duration": 0.023255813953483084,
          "durationTicks": 2,
          "midi": 44,
          "name": "G#2",
          "ticks": 12028,
          "time": 139.86046511627907,
          "velocity": 0.2755905511811024
        },
        {
          "duration": 0.023255813953483084,
          "durationTicks": 2,
          "midi": 63,
          "name": "D#4",
          "ticks": 12031,
          "time": 139.8953488372093,
          "velocity": 0.2440944881889764
        },
        {
          "duration": 0.04651162790699459,
          "durationTicks": 4,
          "midi": 77,
          "name": "F5",
          "ticks": 12033,
          "time": 139.91860465116278,
          "velocity": 0.14173228346456693
        },
        {
          "duration": 0.06976744186047767,
          "durationTicks": 6,
          "midi": 98,
          "name": "D7",
          "ticks": 12033,
          "time": 139.91860465116278,
          "velocity": 0.2755905511811024
        },
        {
          "duration": 0.023255813953483084,
          "durationTicks": 2,
          "midi": 44,
          "name": "G#2",
          "ticks": 12035,
          "time": 139.9418604651163,
          "velocity": 0.3543307086614173
        },
        {
          "duration": 0.023255813953483084,
          "durationTicks": 2,
          "midi": 55,
          "name": "G3",
          "ticks": 12036,
          "time": 139.95348837209303,
          "velocity": 0.4094488188976378
        },
        {
          "duration": 0.023255813953483084,
          "durationTicks": 2,
          "midi": 56,
          "name": "G#3",
          "ticks": 12038,
          "time": 139.97674418604652,
          "velocity": 0.2992125984251969
        },
        {
          "duration": 0.034883720930224626,
          "durationTicks": 3,
          "midi": 61,
          "name": "C#4",
          "ticks": 12038,
          "time": 139.97674418604652,
          "velocity": 0.16535433070866143
        },
        {
          "duration": 0.023255813953483084,
          "durationTicks": 2,
          "midi": 42,
          "name": "F#2",
          "ticks": 12040,
          "time": 140,
          "velocity": 0.3228346456692913
        },
        {
          "duration": 0.04651162790696617,
          "durationTicks": 4,
          "midi": 55,
          "name": "G3",
          "ticks": 12040,
          "time": 140,
          "velocity": 0.3464566929133858
        },
        {
          "duration": 0.05813953488373613,
          "durationTicks": 5,
          "midi": 44,
          "name": "G#2",
          "ticks": 12042,
          "time": 140.02325581395348,
          "velocity": 0.31496062992125984
        },
        {
          "duration": 0.023255813953511506,
          "durationTicks": 2,
          "midi": 54,
          "name": "F#3",
          "ticks": 12044,
          "time": 140.04651162790697,
          "velocity": 0.47244094488188976
        },
        {
          "duration": 0.08139534883721922,
          "durationTicks": 7,
          "midi": 75,
          "name": "D#5",
          "ticks": 12045,
          "time": 140.0581395348837,
          "velocity": 0.44881889763779526
        },
        {
          "duration": 0.24418604651162923,
          "durationTicks": 21,
          "midi": 55,
          "name": "G3",
          "ticks": 12046,
          "time": 140.06976744186048,
          "velocity": 0.5118110236220472
        },
        {
          "duration": 0.05813953488370771,
          "durationTicks": 5,
          "midi": 99,
          "name": "D#7",
          "ticks": 12046,
          "time": 140.06976744186048,
          "velocity": 0.2047244094488189
        },
        {
          "duration": 0.023255813953483084,
          "durationTicks": 2,
          "midi": 43,
          "name": "G2",
          "ticks": 12047,
          "time": 140.08139534883722,
          "velocity": 0.3543307086614173
        },
        {
          "duration": 0.0813953488371908,
          "durationTicks": 7,
          "midi": 60,
          "name": "C4",
          "ticks": 12047,
          "time": 140.08139534883722,
          "velocity": 0.25984251968503935
        },
        {
          "duration": 0.4767441860465169,
          "durationTicks": 41,
          "midi": 72,
          "name": "C5",
          "ticks": 12048,
          "time": 140.09302325581396,
          "velocity": 0.29133858267716534
        },
        {
          "duration": 0.32558139534884845,
          "durationTicks": 28,
          "midi": 76,
          "name": "E5",
          "ticks": 12051,
          "time": 140.12790697674419,
          "velocity": 0.4881889763779528
        },
        {
          "duration": 0.11627906976744384,
          "durationTicks": 10,
          "midi": 95,
          "name": "B6",
          "ticks": 12051,
          "time": 140.12790697674419,
          "velocity": 0.11811023622047244
        },
        {
          "duration": 0.023255813953483084,
          "durationTicks": 2,
          "midi": 43,
          "name": "G2",
          "ticks": 12052,
          "time": 140.13953488372093,
          "velocity": 0.3700787401574803
        },
        {
          "duration": 0.17441860465117998,
          "durationTicks": 15,
          "midi": 74,
          "name": "D5",
          "ticks": 12052,
          "time": 140.13953488372093,
          "velocity": 0.23622047244094488
        },
        {
          "duration": 0.023255813953483084,
          "durationTicks": 2,
          "midi": 60,
          "name": "C4",
          "ticks": 12058,
          "time": 140.2093023255814,
          "velocity": 0.23622047244094488
        },
        {
          "duration": 0.023255813953483084,
          "durationTicks": 2,
          "midi": 43,
          "name": "G2",
          "ticks": 12060,
          "time": 140.2325581395349,
          "velocity": 0.3779527559055118
        },
        {
          "duration": 0.04651162790696617,
          "durationTicks": 4,
          "midi": 60,
          "name": "C4",
          "ticks": 12061,
          "time": 140.24418604651163,
          "velocity": 0.2440944881889764
        },
        {
          "duration": 0.24418604651162923,
          "durationTicks": 21,
          "midi": 60,
          "name": "C4",
          "ticks": 12066,
          "time": 140.30232558139534,
          "velocity": 0.3543307086614173
        },
        {
          "duration": 0.034883720930224626,
          "durationTicks": 3,
          "midi": 43,
          "name": "G2",
          "ticks": 12067,
          "time": 140.3139534883721,
          "velocity": 0.36220472440944884
        },
        {
          "duration": 0.023255813953483084,
          "durationTicks": 2,
          "midi": 54,
          "name": "F#3",
          "ticks": 12067,
          "time": 140.3139534883721,
          "velocity": 0.3937007874015748
        },
        {
          "duration": 0.11627906976744384,
          "durationTicks": 10,
          "midi": 95,
          "name": "B6",
          "ticks": 12068,
          "time": 140.32558139534885,
          "velocity": 0.2047244094488189
        },
        {
          "duration": 0.20930232558137618,
          "durationTicks": 18,
          "midi": 55,
          "name": "G3",
          "ticks": 12069,
          "time": 140.3372093023256,
          "velocity": 0.4566929133858268
        },
        {
          "duration": 0.19767441860463464,
          "durationTicks": 17,
          "midi": 74,
          "name": "D5",
          "ticks": 12070,
          "time": 140.34883720930233,
          "velocity": 0.16535433070866143
        },
        {
          "duration": 0.023255813953483084,
          "durationTicks": 2,
          "midi": 43,
          "name": "G2",
          "ticks": 12072,
          "time": 140.37209302325581,
          "velocity": 0.30708661417322836
        },
        {
          "duration": 0.023255813953483084,
          "durationTicks": 2,
          "midi": 43,
          "name": "G2",
          "ticks": 12080,
          "time": 140.46511627906978,
          "velocity": 0.33858267716535434
        },
        {
          "duration": 0.023255813953511506,
          "durationTicks": 2,
          "midi": 54,
          "name": "F#3",
          "ticks": 12087,
          "time": 140.54651162790697,
          "velocity": 0.3228346456692913
        },
        {
          "duration": 0.17441860465117998,
          "durationTicks": 15,
          "midi": 76,
          "name": "E5",
          "ticks": 12087,
          "time": 140.54651162790697,
          "velocity": 0.49606299212598426
        },
        {
          "duration": 0.11627906976744384,
          "durationTicks": 10,
          "midi": 95,
          "name": "B6",
          "ticks": 12088,
          "time": 140.5581395348837,
          "velocity": 0.2047244094488189
        },
        {
          "duration": 0.023255813953483084,
          "durationTicks": 2,
          "midi": 44,
          "name": "G#2",
          "ticks": 12089,
          "time": 140.56976744186048,
          "velocity": 0.33858267716535434
        },
        {
          "duration": 0.05813953488370771,
          "durationTicks": 5,
          "midi": 60,
          "name": "C4",
          "ticks": 12090,
          "time": 140.58139534883722,
          "velocity": 0.2992125984251969
        },
        {
          "duration": 0.1046511627907023,
          "durationTicks": 9,
          "midi": 55,
          "name": "G3",
          "ticks": 12091,
          "time": 140.59302325581396,
          "velocity": 0.4881889763779528
        },
        {
          "duration": 0.034883720930224626,
          "durationTicks": 3,
          "midi": 74,
          "name": "D5",
          "ticks": 12091,
          "time": 140.59302325581396,
          "velocity": 0.08661417322834646
        },
        {
          "duration": 0.04651162790696617,
          "durationTicks": 4,
          "midi": 43,
          "name": "G2",
          "ticks": 12093,
          "time": 140.61627906976744,
          "velocity": 0.3937007874015748
        },
        {
          "duration": 0.023255813953511506,
          "durationTicks": 2,
          "midi": 43,
          "name": "G2",
          "ticks": 12099,
          "time": 140.6860465116279,
          "velocity": 0.4015748031496063
        },
        {
          "duration": 0.023255813953483084,
          "durationTicks": 2,
          "midi": 56,
          "name": "G#3",
          "ticks": 12100,
          "time": 140.69767441860466,
          "velocity": 0.3543307086614173
        },
        {
          "duration": 0.11627906976744384,
          "durationTicks": 10,
          "midi": 60,
          "name": "C4",
          "ticks": 12100,
          "time": 140.69767441860466,
          "velocity": 0.3937007874015748
        },
        {
          "duration": 0.05813953488370771,
          "durationTicks": 5,
          "midi": 74,
          "name": "D5",
          "ticks": 12101,
          "time": 140.7093023255814,
          "velocity": 0.18110236220472442
        },
        {
          "duration": 0.1046511627907023,
          "durationTicks": 9,
          "midi": 86,
          "name": "D6",
          "ticks": 12101,
          "time": 140.7093023255814,
          "velocity": 0.2992125984251969
        },
        {
          "duration": 0.0813953488371908,
          "durationTicks": 7,
          "midi": 93,
          "name": "A6",
          "ticks": 12101,
          "time": 140.7093023255814,
          "velocity": 0.2125984251968504
        },
        {
          "duration": 0.06976744186044925,
          "durationTicks": 6,
          "midi": 100,
          "name": "E7",
          "ticks": 12101,
          "time": 140.7093023255814,
          "velocity": 0.07874015748031496
        },
        {
          "duration": 0.09302325581396076,
          "durationTicks": 8,
          "midi": 55,
          "name": "G3",
          "ticks": 12102,
          "time": 140.72093023255815,
          "velocity": 0.3779527559055118
        },
        {
          "duration": 0.0813953488371908,
          "durationTicks": 7,
          "midi": 88,
          "name": "E6",
          "ticks": 12102,
          "time": 140.72093023255815,
          "velocity": 0.10236220472440945
        },
        {
          "duration": 0.023255813953483084,
          "durationTicks": 2,
          "midi": 43,
          "name": "G2",
          "ticks": 12107,
          "time": 140.77906976744185,
          "velocity": 0.4015748031496063
        },
        {
          "duration": 0.034883720930224626,
          "durationTicks": 3,
          "midi": 71,
          "name": "B4",
          "ticks": 12110,
          "time": 140.8139534883721,
          "velocity": 0.18110236220472442
        },
        {
          "duration": 0.10465116279067388,
          "durationTicks": 9,
          "midi": 91,
          "name": "G6",
          "ticks": 12111,
          "time": 140.82558139534885,
          "velocity": 0.2125984251968504
        },
        {
          "duration": 0.023255813953483084,
          "durationTicks": 2,
          "midi": 60,
          "name": "C4",
          "ticks": 12112,
          "time": 140.8372093023256,
          "velocity": 0.28346456692913385
        },
        {
          "duration": 0.034883720930224626,
          "durationTicks": 3,
          "midi": 55,
          "name": "G3",
          "ticks": 12113,
          "time": 140.84883720930233,
          "velocity": 0.31496062992125984
        },
        {
          "duration": 0.11627906976744384,
          "durationTicks": 10,
          "midi": 72,
          "name": "C5",
          "ticks": 12113,
          "time": 140.84883720930233,
          "velocity": 0.3464566929133858
        },
        {
          "duration": 0.05813953488373613,
          "durationTicks": 5,
          "midi": 54,
          "name": "F#3",
          "ticks": 12116,
          "time": 140.88372093023256,
          "velocity": 0.28346456692913385
        },
        {
          "duration": 0.05813953488373613,
          "durationTicks": 5,
          "midi": 41,
          "name": "F2",
          "ticks": 12119,
          "time": 140.91860465116278,
          "velocity": 0.2677165354330709
        },
        {
          "duration": 0.0813953488371908,
          "durationTicks": 7,
          "midi": 74,
          "name": "D5",
          "ticks": 12121,
          "time": 140.9418604651163,
          "velocity": 0.25984251968503935
        },
        {
          "duration": 0.4186046511627808,
          "durationTicks": 36,
          "midi": 78,
          "name": "F#5",
          "ticks": 12121,
          "time": 140.9418604651163,
          "velocity": 0.25196850393700787
        },
        {
          "duration": 0.10465116279067388,
          "durationTicks": 9,
          "midi": 86,
          "name": "D6",
          "ticks": 12121,
          "time": 140.9418604651163,
          "velocity": 0.41732283464566927
        },
        {
          "duration": 0.023255813953483084,
          "durationTicks": 2,
          "midi": 58,
          "name": "A#3",
          "ticks": 12122,
          "time": 140.95348837209303,
          "velocity": 0.3937007874015748
        },
        {
          "duration": 0.3953488372092977,
          "durationTicks": 34,
          "midi": 82,
          "name": "A#5",
          "ticks": 12122,
          "time": 140.95348837209303,
          "velocity": 0.1732283464566929
        },
        {
          "duration": 0.034883720930224626,
          "durationTicks": 3,
          "midi": 87,
          "name": "D#6",
          "ticks": 12122,
          "time": 140.95348837209303,
          "velocity": 0.12598425196850394
        },
        {
          "duration": 0.15116279069766847,
          "durationTicks": 13,
          "midi": 93,
          "name": "A6",
          "ticks": 12122,
          "time": 140.95348837209303,
          "velocity": 0.2755905511811024
        },
        {
          "duration": 0.46511627906974695,
          "durationTicks": 40,
          "midi": 71,
          "name": "B4",
          "ticks": 12123,
          "time": 140.96511627906978,
          "velocity": 0.41732283464566927
        },
        {
          "duration": 0.06976744186044925,
          "durationTicks": 6,
          "midi": 101,
          "name": "F7",
          "ticks": 12123,
          "time": 140.96511627906978,
          "velocity": 0.09448818897637795
        },
        {
          "duration": 0.034883720930224626,
          "durationTicks": 3,
          "midi": 102,
          "name": "F#7",
          "ticks": 12123,
          "time": 140.96511627906978,
          "velocity": 0.13385826771653545
        },
        {
          "duration": 0.24418604651162923,
          "durationTicks": 21,
          "midi": 54,
          "name": "F#3",
          "ticks": 12124,
          "time": 140.97674418604652,
          "velocity": 0.4330708661417323
        },
        {
          "duration": 0.2325581395348877,
          "durationTicks": 20,
          "midi": 59,
          "name": "B3",
          "ticks": 12124,
          "time": 140.97674418604652,
          "velocity": 0.28346456692913385
        },
        {
          "duration": 0.12790697674418539,
          "durationTicks": 11,
          "midi": 75,
          "name": "D#5",
          "ticks": 12128,
          "time": 141.02325581395348,
          "velocity": 0.3700787401574803
        },
        {
          "duration": 0.05813953488373613,
          "durationTicks": 5,
          "midi": 47,
          "name": "B2",
          "ticks": 12139,
          "time": 141.15116279069767,
          "velocity": 0.25984251968503935
        },
        {
          "duration": 0.023255813953483084,
          "durationTicks": 2,
          "midi": 45,
          "name": "A2",
          "ticks": 12144,
          "time": 141.2093023255814,
          "velocity": 0.28346456692913385
        },
        {
          "duration": 0.11627906976744384,
          "durationTicks": 10,
          "midi": 93,
          "name": "A6",
          "ticks": 12145,
          "time": 141.22093023255815,
          "velocity": 0.12598425196850394
        },
        {
          "duration": 0.023255813953483084,
          "durationTicks": 2,
          "midi": 53,
          "name": "F3",
          "ticks": 12146,
          "time": 141.2325581395349,
          "velocity": 0.30708661417322836
        },
        {
          "duration": 0.04651162790696617,
          "durationTicks": 4,
          "midi": 87,
          "name": "D#6",
          "ticks": 12146,
          "time": 141.2325581395349,
          "velocity": 0.08661417322834646
        },
        {
          "duration": 0.09302325581396076,
          "durationTicks": 8,
          "midi": 99,
          "name": "D#7",
          "ticks": 12146,
          "time": 141.2325581395349,
          "velocity": 0.14960629921259844
        },
        {
          "duration": 0.04651162790696617,
          "durationTicks": 4,
          "midi": 75,
          "name": "D#5",
          "ticks": 12147,
          "time": 141.24418604651163,
          "velocity": 0.10236220472440945
        },
        {
          "duration": 0.05813953488370771,
          "durationTicks": 5,
          "midi": 81,
          "name": "A5",
          "ticks": 12147,
          "time": 141.24418604651163,
          "velocity": 0.09448818897637795
        },
        {
          "duration": 0.09302325581396076,
          "durationTicks": 8,
          "midi": 88,
          "name": "E6",
          "ticks": 12147,
          "time": 141.24418604651163,
          "velocity": 0.09448818897637795
        },
        {
          "duration": 0.09302325581396076,
          "durationTicks": 8,
          "midi": 54,
          "name": "F#3",
          "ticks": 12148,
          "time": 141.25581395348837,
          "velocity": 0.36220472440944884
        },
        {
          "duration": 0.11627906976744384,
          "durationTicks": 10,
          "midi": 59,
          "name": "B3",
          "ticks": 12148,
          "time": 141.25581395348837,
          "velocity": 0.3464566929133858
        },
        {
          "duration": 0.04651162790699459,
          "durationTicks": 4,
          "midi": 42,
          "name": "F#2",
          "ticks": 12152,
          "time": 141.30232558139534,
          "velocity": 0.2992125984251969
        },
        {
          "duration": 0.023255813953483084,
          "durationTicks": 2,
          "midi": 55,
          "name": "G3",
          "ticks": 12156,
          "time": 141.34883720930233,
          "velocity": 0.2992125984251969
        },
        {
          "duration": 0.1046511627907023,
          "durationTicks": 9,
          "midi": 75,
          "name": "D#5",
          "ticks": 12157,
          "time": 141.36046511627907,
          "velocity": 0.3937007874015748
        },
        {
          "duration": 0.023255813953483084,
          "durationTicks": 2,
          "midi": 41,
          "name": "F2",
          "ticks": 12158,
          "time": 141.37209302325581,
          "velocity": 0.30708661417322836
        },
        {
          "duration": 0.023255813953483084,
          "durationTicks": 2,
          "midi": 60,
          "name": "C4",
          "ticks": 12158,
          "time": 141.37209302325581,
          "velocity": 0.3464566929133858
        },
        {
          "duration": 0.04651162790696617,
          "durationTicks": 4,
          "midi": 94,
          "name": "A#6",
          "ticks": 12158,
          "time": 141.37209302325581,
          "velocity": 0.13385826771653545
        },
        {
          "duration": 0.05813953488370771,
          "durationTicks": 5,
          "midi": 99,
          "name": "D#7",
          "ticks": 12158,
          "time": 141.37209302325581,
          "velocity": 0.18110236220472442
        },
        {
          "duration": 0.034883720930224626,
          "durationTicks": 3,
          "midi": 55,
          "name": "G3",
          "ticks": 12160,
          "time": 141.3953488372093,
          "velocity": 0.2755905511811024
        },
        {
          "duration": 0.1046511627907023,
          "durationTicks": 9,
          "midi": 59,
          "name": "B3",
          "ticks": 12160,
          "time": 141.3953488372093,
          "velocity": 0.33070866141732286
        },
        {
          "duration": 0.05813953488373613,
          "durationTicks": 5,
          "midi": 41,
          "name": "F2",
          "ticks": 12161,
          "time": 141.40697674418604,
          "velocity": 0.3543307086614173
        },
        {
          "duration": 0.05813953488373613,
          "durationTicks": 5,
          "midi": 54,
          "name": "F#3",
          "ticks": 12163,
          "time": 141.43023255813952,
          "velocity": 0.30708661417322836
        },
        {
          "duration": 0.034883720930224626,
          "durationTicks": 3,
          "midi": 76,
          "name": "E5",
          "ticks": 12165,
          "time": 141.45348837209303,
          "velocity": 0.18110236220472442
        },
        {
          "duration": 0.04651162790696617,
          "durationTicks": 4,
          "midi": 42,
          "name": "F#2",
          "ticks": 12166,
          "time": 141.46511627906978,
          "velocity": 0.41732283464566927
        },
        {
          "duration": 0.0813953488371908,
          "durationTicks": 7,
          "midi": 90,
          "name": "F#6",
          "ticks": 12166,
          "time": 141.46511627906978,
          "velocity": 0.13385826771653545
        },
        {
          "duration": 0.06976744186044925,
          "durationTicks": 6,
          "midi": 97,
          "name": "C#7",
          "ticks": 12166,
          "time": 141.46511627906978,
          "velocity": 0.2677165354330709
        },
        {
          "duration": 0.12790697674418539,
          "durationTicks": 11,
          "midi": 88,
          "name": "E6",
          "ticks": 12168,
          "time": 141.48837209302326,
          "velocity": 0.13385826771653545
        },
        {
          "duration": 0.023255813953483084,
          "durationTicks": 2,
          "midi": 55,
          "name": "G3",
          "ticks": 12169,
          "time": 141.5,
          "velocity": 0.4409448818897638
        },
        {
          "duration": 0.06976744186047767,
          "durationTicks": 6,
          "midi": 59,
          "name": "B3",
          "ticks": 12170,
          "time": 141.51162790697674,
          "velocity": 0.3228346456692913
        },
        {
          "duration": 0.4767441860465169,
          "durationTicks": 41,
          "midi": 66,
          "name": "F#4",
          "ticks": 12170,
          "time": 141.51162790697674,
          "velocity": 0.3937007874015748
        },
        {
          "duration": 0.09302325581396076,
          "durationTicks": 8,
          "midi": 73,
          "name": "C#5",
          "ticks": 12170,
          "time": 141.51162790697674,
          "velocity": 0.07874015748031496
        },
        {
          "duration": 0.05813953488373613,
          "durationTicks": 5,
          "midi": 42,
          "name": "F#2",
          "ticks": 12171,
          "time": 141.52325581395348,
          "velocity": 0.41732283464566927
        },
        {
          "duration": 0.22093023255814614,
          "durationTicks": 19,
          "midi": 54,
          "name": "F#3",
          "ticks": 12171,
          "time": 141.52325581395348,
          "velocity": 0.4409448818897638
        },
        {
          "duration": 0.17441860465117998,
          "durationTicks": 15,
          "midi": 75,
          "name": "D#5",
          "ticks": 12171,
          "time": 141.52325581395348,
          "velocity": 0.3543307086614173
        },
        {
          "duration": 0.023255813953483084,
          "durationTicks": 2,
          "midi": 42,
          "name": "F#2",
          "ticks": 12177,
          "time": 141.59302325581396,
          "velocity": 0.41732283464566927
        },
        {
          "duration": 0.023255813953483084,
          "durationTicks": 2,
          "midi": 59,
          "name": "B3",
          "ticks": 12177,
          "time": 141.59302325581396,
          "velocity": 0.31496062992125984
        },
        {
          "duration": 0.04651162790696617,
          "durationTicks": 4,
          "midi": 42,
          "name": "F#2",
          "ticks": 12180,
          "time": 141.62790697674419,
          "velocity": 0.4094488188976378
        },
        {
          "duration": 0.1046511627907023,
          "durationTicks": 9,
          "midi": 59,
          "name": "B3",
          "ticks": 12180,
          "time": 141.62790697674419,
          "velocity": 0.3228346456692913
        },
        {
          "duration": 0.03488372093025305,
          "durationTicks": 3,
          "midi": 73,
          "name": "C#5",
          "ticks": 12183,
          "time": 141.6627906976744,
          "velocity": 0.07874015748031496
        },
        {
          "duration": 0.06976744186047767,
          "durationTicks": 6,
          "midi": 83,
          "name": "B5",
          "ticks": 12183,
          "time": 141.6627906976744,
          "velocity": 0.2677165354330709
        },
        {
          "duration": 0.13953488372092693,
          "durationTicks": 12,
          "midi": 90,
          "name": "F#6",
          "ticks": 12183,
          "time": 141.6627906976744,
          "velocity": 0.2677165354330709
        },
        {
          "duration": 0.1511627906976969,
          "durationTicks": 13,
          "midi": 71,
          "name": "B4",
          "ticks": 12184,
          "time": 141.67441860465115,
          "velocity": 0.3700787401574803
        },
        {
          "duration": 0.023255813953511506,
          "durationTicks": 2,
          "midi": 47,
          "name": "B2",
          "ticks": 12185,
          "time": 141.6860465116279,
          "velocity": 0.3228346456692913
        },
        {
          "duration": 0.1046511627907023,
          "durationTicks": 9,
          "midi": 85,
          "name": "C#6",
          "ticks": 12189,
          "time": 141.7325581395349,
          "velocity": 0.16535433070866143
        },
        {
          "duration": 0.023255813953483084,
          "durationTicks": 2,
          "midi": 55,
          "name": "G3",
          "ticks": 12190,
          "time": 141.74418604651163,
          "velocity": 0.44881889763779526
        },
        {
          "duration": 0.023255813953483084,
          "durationTicks": 2,
          "midi": 42,
          "name": "F#2",
          "ticks": 12191,
          "time": 141.75581395348837,
          "velocity": 0.3700787401574803
        },
        {
          "duration": 0.023255813953483084,
          "durationTicks": 2,
          "midi": 59,
          "name": "B3",
          "ticks": 12191,
          "time": 141.75581395348837,
          "velocity": 0.2992125984251969
        },
        {
          "duration": 0.05813953488373613,
          "durationTicks": 5,
          "midi": 54,
          "name": "F#3",
          "ticks": 12192,
          "time": 141.7674418604651,
          "velocity": 0.4251968503937008
        },
        {
          "duration": 0.023255813953511506,
          "durationTicks": 2,
          "midi": 59,
          "name": "B3",
          "ticks": 12194,
          "time": 141.7906976744186,
          "velocity": 0.23622047244094488
        },
        {
          "duration": 0.023255813953511506,
          "durationTicks": 2,
          "midi": 62,
          "name": "D4",
          "ticks": 12195,
          "time": 141.80232558139534,
          "velocity": 0.36220472440944884
        },
        {
          "duration": 0.023255813953483084,
          "durationTicks": 2,
          "midi": 42,
          "name": "F#2",
          "ticks": 12196,
          "time": 141.8139534883721,
          "velocity": 0.3858267716535433
        },
        {
          "duration": 0.04651162790696617,
          "durationTicks": 4,
          "midi": 75,
          "name": "D#5",
          "ticks": 12196,
          "time": 141.8139534883721,
          "velocity": 0.14173228346456693
        },
        {
          "duration": 0.06976744186044925,
          "durationTicks": 6,
          "midi": 82,
          "name": "A#5",
          "ticks": 12196,
          "time": 141.8139534883721,
          "velocity": 0.08661417322834646
        },
        {
          "duration": 0.12790697674418539,
          "durationTicks": 11,
          "midi": 63,
          "name": "D#4",
          "ticks": 12197,
          "time": 141.82558139534885,
          "velocity": 0.4566929133858268
        },
        {
          "duration": 0.034883720930224626,
          "durationTicks": 3,
          "midi": 49,
          "name": "C#3",
          "ticks": 12201,
          "time": 141.87209302325581,
          "velocity": 0.3464566929133858
        },
        {
          "duration": 0.034883720930224626,
          "durationTicks": 3,
          "midi": 55,
          "name": "G3",
          "ticks": 12201,
          "time": 141.87209302325581,
          "velocity": 0.5354330708661418
        },
        {
          "duration": 0.08139534883721922,
          "durationTicks": 7,
          "midi": 54,
          "name": "F#3",
          "ticks": 12204,
          "time": 141.90697674418604,
          "velocity": 0.5118110236220472
        },
        {
          "duration": 0.04651162790699459,
          "durationTicks": 4,
          "midi": 59,
          "name": "B3",
          "ticks": 12204,
          "time": 141.90697674418604,
          "velocity": 0.4409448818897638
        },
        {
          "duration": 0.023255813953511506,
          "durationTicks": 2,
          "midi": 43,
          "name": "G2",
          "ticks": 12206,
          "time": 141.93023255813952,
          "velocity": 0.3228346456692913
        },
        {
          "duration": 0.04651162790696617,
          "durationTicks": 4,
          "midi": 42,
          "name": "F#2",
          "ticks": 12208,
          "time": 141.95348837209303,
          "velocity": 0.3543307086614173
        },
        {
          "duration": 0.034883720930224626,
          "durationTicks": 3,
          "midi": 59,
          "name": "B3",
          "ticks": 12209,
          "time": 141.96511627906978,
          "velocity": 0.41732283464566927
        },
        {
          "duration": 0.04651162790696617,
          "durationTicks": 4,
          "midi": 74,
          "name": "D5",
          "ticks": 12210,
          "time": 141.97674418604652,
          "velocity": 0.11811023622047244
        },
        {
          "duration": 0.034883720930224626,
          "durationTicks": 3,
          "midi": 55,
          "name": "G3",
          "ticks": 12211,
          "time": 141.98837209302326,
          "velocity": 0.4645669291338583
        },
        {
          "duration": 0.034883720930224626,
          "durationTicks": 3,
          "midi": 43,
          "name": "G2",
          "ticks": 12212,
          "time": 142,
          "velocity": 0.3464566929133858
        },
        {
          "duration": 0.023255813953483084,
          "durationTicks": 2,
          "midi": 58,
          "name": "A#3",
          "ticks": 12212,
          "time": 142,
          "velocity": 0.41732283464566927
        },
        {
          "duration": 0.034883720930224626,
          "durationTicks": 3,
          "midi": 50,
          "name": "D3",
          "ticks": 12213,
          "time": 142.01162790697674,
          "velocity": 0.3228346456692913
        },
        {
          "duration": 0.034883720930224626,
          "durationTicks": 3,
          "midi": 71,
          "name": "B4",
          "ticks": 12213,
          "time": 142.01162790697674,
          "velocity": 0.14173228346456693
        },
        {
          "duration": 0.023255813953483084,
          "durationTicks": 2,
          "midi": 57,
          "name": "A3",
          "ticks": 12214,
          "time": 142.02325581395348,
          "velocity": 0.4881889763779528
        },
        {
          "duration": 0.03488372093025305,
          "durationTicks": 3,
          "midi": 44,
          "name": "G#2",
          "ticks": 12215,
          "time": 142.03488372093022,
          "velocity": 0.3543307086614173
        },
        {
          "duration": 0.03488372093025305,
          "durationTicks": 3,
          "midi": 63,
          "name": "D#4",
          "ticks": 12215,
          "time": 142.03488372093022,
          "velocity": 0.23622047244094488
        },
        {
          "duration": 0.023255813953511506,
          "durationTicks": 2,
          "midi": 56,
          "name": "G#3",
          "ticks": 12216,
          "time": 142.04651162790697,
          "velocity": 0.48031496062992124
        },
        {
          "duration": 0.023255813953483084,
          "durationTicks": 2,
          "midi": 45,
          "name": "A2",
          "ticks": 12218,
          "time": 142.06976744186048,
          "velocity": 0.30708661417322836
        },
        {
          "duration": 0.05813953488370771,
          "durationTicks": 5,
          "midi": 64,
          "name": "E4",
          "ticks": 12218,
          "time": 142.06976744186048,
          "velocity": 0.23622047244094488
        },
        {
          "duration": 0.034883720930224626,
          "durationTicks": 3,
          "midi": 71,
          "name": "B4",
          "ticks": 12218,
          "time": 142.06976744186048,
          "velocity": 0.2047244094488189
        },
        {
          "duration": 0.04651162790696617,
          "durationTicks": 4,
          "midi": 53,
          "name": "F3",
          "ticks": 12219,
          "time": 142.08139534883722,
          "velocity": 0.4881889763779528
        },
        {
          "duration": 0.034883720930224626,
          "durationTicks": 3,
          "midi": 58,
          "name": "A#3",
          "ticks": 12220,
          "time": 142.09302325581396,
          "velocity": 0.3228346456692913
        },
        {
          "duration": 0.023255813953483084,
          "durationTicks": 2,
          "midi": 47,
          "name": "B2",
          "ticks": 12222,
          "time": 142.11627906976744,
          "velocity": 0.3858267716535433
        },
        {
          "duration": 0.2906976744185954,
          "durationTicks": 25,
          "midi": 72,
          "name": "C5",
          "ticks": 12222,
          "time": 142.11627906976744,
          "velocity": 0.25196850393700787
        },
        {
          "duration": 0.24418604651162923,
          "durationTicks": 21,
          "midi": 74,
          "name": "D5",
          "ticks": 12222,
          "time": 142.11627906976744,
          "velocity": 0.1889763779527559
        },
        {
          "duration": 0.034883720930224626,
          "durationTicks": 3,
          "midi": 55,
          "name": "G3",
          "ticks": 12224,
          "time": 142.13953488372093,
          "velocity": 0.41732283464566927
        },
        {
          "duration": 0.24418604651162923,
          "durationTicks": 21,
          "midi": 65,
          "name": "F4",
          "ticks": 12225,
          "time": 142.15116279069767,
          "velocity": 0.4409448818897638
        },
        {
          "duration": 0.24418604651162923,
          "durationTicks": 21,
          "midi": 70,
          "name": "A#4",
          "ticks": 12225,
          "time": 142.15116279069767,
          "velocity": 0.2440944881889764
        },
        {
          "duration": 0.27906976744185386,
          "durationTicks": 24,
          "midi": 81,
          "name": "A5",
          "ticks": 12225,
          "time": 142.15116279069767,
          "velocity": 0.2283464566929134
        },
        {
          "duration": 0.03488372093025305,
          "durationTicks": 3,
          "midi": 100,
          "name": "E7",
          "ticks": 12226,
          "time": 142.1627906976744,
          "velocity": 0.07874015748031496
        },
        {
          "duration": 0.22093023255814614,
          "durationTicks": 19,
          "midi": 46,
          "name": "A#2",
          "ticks": 12227,
          "time": 142.17441860465115,
          "velocity": 0.4015748031496063
        },
        {
          "duration": 0.16279069767441,
          "durationTicks": 14,
          "midi": 80,
          "name": "G#5",
          "ticks": 12229,
          "time": 142.19767441860466,
          "velocity": 0.11811023622047244
        },
        {
          "duration": 0.09302325581393234,
          "durationTicks": 8,
          "midi": 53,
          "name": "F3",
          "ticks": 12230,
          "time": 142.2093023255814,
          "velocity": 0.2283464566929134
        },
        {
          "duration": 0.04651162790696617,
          "durationTicks": 4,
          "midi": 76,
          "name": "E5",
          "ticks": 12242,
          "time": 142.34883720930233,
          "velocity": 0.2992125984251969
        },
        {
          "duration": 0.034883720930224626,
          "durationTicks": 3,
          "midi": 83,
          "name": "B5",
          "ticks": 12242,
          "time": 142.34883720930233,
          "velocity": 0.13385826771653545
        },
        {
          "duration": 0.023255813953483084,
          "durationTicks": 2,
          "midi": 55,
          "name": "G3",
          "ticks": 12244,
          "time": 142.37209302325581,
          "velocity": 0.2440944881889764
        },
        {
          "duration": 0.034883720930224626,
          "durationTicks": 3,
          "midi": 74,
          "name": "D5",
          "ticks": 12245,
          "time": 142.38372093023256,
          "velocity": 0.10236220472440945
        },
        {
          "duration": 0.2674418604651123,
          "durationTicks": 23,
          "midi": 58,
          "name": "A#3",
          "ticks": 12246,
          "time": 142.3953488372093,
          "velocity": 0.4015748031496063
        },
        {
          "duration": 0.03488372093025305,
          "durationTicks": 3,
          "midi": 86,
          "name": "D6",
          "ticks": 12247,
          "time": 142.40697674418604,
          "velocity": 0.14173228346456693
        },
        {
          "duration": 0.023255813953511506,
          "durationTicks": 2,
          "midi": 47,
          "name": "B2",
          "ticks": 12248,
          "time": 142.41860465116278,
          "velocity": 0.3858267716535433
        },
        {
          "duration": 0.023255813953511506,
          "durationTicks": 2,
          "midi": 54,
          "name": "F#3",
          "ticks": 12248,
          "time": 142.41860465116278,
          "velocity": 0.4330708661417323
        },
        {
          "duration": 0.34883720930233153,
          "durationTicks": 30,
          "midi": 65,
          "name": "F4",
          "ticks": 12248,
          "time": 142.41860465116278,
          "velocity": 0.28346456692913385
        },
        {
          "duration": 0.023255813953511506,
          "durationTicks": 2,
          "midi": 68,
          "name": "G#4",
          "ticks": 12248,
          "time": 142.41860465116278,
          "velocity": 0.2992125984251969
        },
        {
          "duration": 0.03488372093025305,
          "durationTicks": 3,
          "midi": 88,
          "name": "E6",
          "ticks": 12248,
          "time": 142.41860465116278,
          "velocity": 0.13385826771653545
        },
        {
          "duration": 0.03488372093025305,
          "durationTicks": 3,
          "midi": 72,
          "name": "C5",
          "ticks": 12249,
          "time": 142.43023255813952,
          "velocity": 0.1968503937007874
        },
        {
          "duration": 0.2441860465116008,
          "durationTicks": 21,
          "midi": 53,
          "name": "F3",
          "ticks": 12250,
          "time": 142.4418604651163,
          "velocity": 0.41732283464566927
        },
        {
          "duration": 0.023255813953483084,
          "durationTicks": 2,
          "midi": 69,
          "name": "A4",
          "ticks": 12250,
          "time": 142.4418604651163,
          "velocity": 0.29133858267716534
        },
        {
          "duration": 0.034883720930224626,
          "durationTicks": 3,
          "midi": 83,
          "name": "B5",
          "ticks": 12251,
          "time": 142.45348837209303,
          "velocity": 0.2677165354330709
        },
        {
          "duration": 0.19767441860463464,
          "durationTicks": 17,
          "midi": 46,
          "name": "A#2",
          "ticks": 12252,
          "time": 142.46511627906978,
          "velocity": 0.3464566929133858
        },
        {
          "duration": 0.023255813953483084,
          "durationTicks": 2,
          "midi": 71,
          "name": "B4",
          "ticks": 12253,
          "time": 142.47674418604652,
          "velocity": 0.25984251968503935
        },
        {
          "duration": 0.0813953488371908,
          "durationTicks": 7,
          "midi": 82,
          "name": "A#5",
          "ticks": 12253,
          "time": 142.47674418604652,
          "velocity": 0.14960629921259844
        },
        {
          "duration": 0.38372093023255616,
          "durationTicks": 33,
          "midi": 91,
          "name": "G6",
          "ticks": 12253,
          "time": 142.47674418604652,
          "velocity": 0.18110236220472442
        },
        {
          "duration": 0.22093023255814614,
          "durationTicks": 19,
          "midi": 72,
          "name": "C5",
          "ticks": 12254,
          "time": 142.48837209302326,
          "velocity": 0.2283464566929134
        },
        {
          "duration": 0.40697674418603924,
          "durationTicks": 35,
          "midi": 84,
          "name": "C6",
          "ticks": 12254,
          "time": 142.48837209302326,
          "velocity": 0.33070866141732286
        },
        {
          "duration": 0.2906976744186238,
          "durationTicks": 25,
          "midi": 89,
          "name": "F6",
          "ticks": 12269,
          "time": 142.6627906976744,
          "velocity": 0.25984251968503935
        },
        {
          "duration": 0.32558139534884845,
          "durationTicks": 28,
          "midi": 77,
          "name": "F5",
          "ticks": 12270,
          "time": 142.67441860465115,
          "velocity": 0.3700787401574803
        },
        {
          "duration": 0.0813953488371908,
          "durationTicks": 7,
          "midi": 53,
          "name": "F3",
          "ticks": 12272,
          "time": 142.69767441860466,
          "velocity": 0.44881889763779526
        },
        {
          "duration": 0.034883720930224626,
          "durationTicks": 3,
          "midi": 70,
          "name": "A#4",
          "ticks": 12272,
          "time": 142.69767441860466,
          "velocity": 0.2204724409448819
        },
        {
          "duration": 0.33720930232556157,
          "durationTicks": 29,
          "midi": 58,
          "name": "A#3",
          "ticks": 12273,
          "time": 142.7093023255814,
          "velocity": 0.4094488188976378
        },
        {
          "duration": 0.023255813953483084,
          "durationTicks": 2,
          "midi": 45,
          "name": "A2",
          "ticks": 12274,
          "time": 142.72093023255815,
          "velocity": 0.4015748031496063
        },
        {
          "duration": 0.17441860465115155,
          "durationTicks": 15,
          "midi": 46,
          "name": "A#2",
          "ticks": 12276,
          "time": 142.74418604651163,
          "velocity": 0.4015748031496063
        },
        {
          "duration": 0.023255813953483084,
          "durationTicks": 2,
          "midi": 54,
          "name": "F#3",
          "ticks": 12279,
          "time": 142.77906976744185,
          "velocity": 0.3543307086614173
        },
        {
          "duration": 0.05813953488373613,
          "durationTicks": 5,
          "midi": 71,
          "name": "B4",
          "ticks": 12279,
          "time": 142.77906976744185,
          "velocity": 0.16535433070866143
        },
        {
          "duration": 0.09302325581396076,
          "durationTicks": 8,
          "midi": 53,
          "name": "F3",
          "ticks": 12281,
          "time": 142.80232558139534,
          "velocity": 0.3700787401574803
        },
        {
          "duration": 0.034883720930224626,
          "durationTicks": 3,
          "midi": 72,
          "name": "C5",
          "ticks": 12289,
          "time": 142.8953488372093,
          "velocity": 0.07874015748031496
        },
        {
          "duration": 0.023255813953483084,
          "durationTicks": 2,
          "midi": 55,
          "name": "G3",
          "ticks": 12290,
          "time": 142.90697674418604,
          "velocity": 0.28346456692913385
        },
        {
          "duration": 0.023255813953511506,
          "durationTicks": 2,
          "midi": 42,
          "name": "F#2",
          "ticks": 12291,
          "time": 142.91860465116278,
          "velocity": 0.3779527559055118
        },
        {
          "duration": 0.3604651162790731,
          "durationTicks": 31,
          "midi": 84,
          "name": "C6",
          "ticks": 12291,
          "time": 142.91860465116278,
          "velocity": 0.1968503937007874
        },
        {
          "duration": 0.4418604651162923,
          "durationTicks": 38,
          "midi": 91,
          "name": "G6",
          "ticks": 12292,
          "time": 142.93023255813952,
          "velocity": 0.2677165354330709
        },
        {
          "duration": 0.10465116279067388,
          "durationTicks": 9,
          "midi": 53,
          "name": "F3",
          "ticks": 12293,
          "time": 142.9418604651163,
          "velocity": 0.3228346456692913
        },
        {
          "duration": 0.11627906976741542,
          "durationTicks": 10,
          "midi": 72,
          "name": "C5",
          "ticks": 12293,
          "time": 142.9418604651163,
          "velocity": 0.2677165354330709
        },
        {
          "duration": 0.023255813953483084,
          "durationTicks": 2,
          "midi": 46,
          "name": "A#2",
          "ticks": 12295,
          "time": 142.96511627906978,
          "velocity": 0.3464566929133858
        },
        {
          "duration": 0.05813953488370771,
          "durationTicks": 5,
          "midi": 46,
          "name": "A#2",
          "ticks": 12298,
          "time": 143,
          "velocity": 0.36220472440944884
        },
        {
          "duration": 0.3953488372093261,
          "durationTicks": 34,
          "midi": 70,
          "name": "A#4",
          "ticks": 12303,
          "time": 143.0581395348837,
          "velocity": 0.36220472440944884
        },
        {
          "duration": 0.11627906976744384,
          "durationTicks": 10,
          "midi": 77,
          "name": "F5",
          "ticks": 12303,
          "time": 143.0581395348837,
          "velocity": 0.2204724409448819
        },
        {
          "duration": 0.2790697674418823,
          "durationTicks": 24,
          "midi": 81,
          "name": "A5",
          "ticks": 12303,
          "time": 143.0581395348837,
          "velocity": 0.2125984251968504
        },
        {
          "duration": 0.25581395348837077,
          "durationTicks": 22,
          "midi": 65,
          "name": "F4",
          "ticks": 12304,
          "time": 143.06976744186048,
          "velocity": 0.14960629921259844
        },
        {
          "duration": 0.023255813953483084,
          "durationTicks": 2,
          "midi": 41,
          "name": "F2",
          "ticks": 12305,
          "time": 143.08139534883722,
          "velocity": 0.28346456692913385
        },
        {
          "duration": 0.2325581395348877,
          "durationTicks": 20,
          "midi": 58,
          "name": "A#3",
          "ticks": 12305,
          "time": 143.08139534883722,
          "velocity": 0.4330708661417323
        },
        {
          "duration": 0.22093023255814614,
          "durationTicks": 19,
          "midi": 53,
          "name": "F3",
          "ticks": 12306,
          "time": 143.09302325581396,
          "velocity": 0.4566929133858268
        },
        {
          "duration": 0.023255813953483084,
          "durationTicks": 2,
          "midi": 45,
          "name": "A2",
          "ticks": 12307,
          "time": 143.1046511627907,
          "velocity": 0.3543307086614173
        },
        {
          "duration": 0.17441860465117998,
          "durationTicks": 15,
          "midi": 46,
          "name": "A#2",
          "ticks": 12312,
          "time": 143.1627906976744,
          "velocity": 0.3464566929133858
        },
        {
          "duration": 0.03488372093025305,
          "durationTicks": 3,
          "midi": 72,
          "name": "C5",
          "ticks": 12313,
          "time": 143.17441860465115,
          "velocity": 0.14173228346456693
        },
        {
          "duration": 0.8139534883721069,
          "durationTicks": 70,
          "midi": 76,
          "name": "E5",
          "ticks": 12313,
          "time": 143.17441860465115,
          "velocity": 0.4566929133858268
        },
        {
          "duration": 0.3720930232558146,
          "durationTicks": 32,
          "midi": 95,
          "name": "B6",
          "ticks": 12314,
          "time": 143.1860465116279,
          "velocity": 0.23622047244094488
        },
        {
          "duration": 0.034883720930224626,
          "durationTicks": 3,
          "midi": 72,
          "name": "C5",
          "ticks": 12317,
          "time": 143.22093023255815,
          "velocity": 0.18110236220472442
        },
        {
          "duration": 0.04651162790699459,
          "durationTicks": 4,
          "midi": 72,
          "name": "C5",
          "ticks": 12324,
          "time": 143.30232558139534,
          "velocity": 0.13385826771653545
        },
        {
          "duration": 0.023255813953483084,
          "durationTicks": 2,
          "midi": 54,
          "name": "F#3",
          "ticks": 12325,
          "time": 143.3139534883721,
          "velocity": 0.4330708661417323
        },
        {
          "duration": 0.13953488372092693,
          "durationTicks": 12,
          "midi": 74,
          "name": "D5",
          "ticks": 12326,
          "time": 143.32558139534885,
          "velocity": 0.07086614173228346
        },
        {
          "duration": 0.09302325581393234,
          "durationTicks": 8,
          "midi": 84,
          "name": "C6",
          "ticks": 12326,
          "time": 143.32558139534885,
          "velocity": 0.15748031496062992
        },
        {
          "duration": 0.1046511627907023,
          "durationTicks": 9,
          "midi": 53,
          "name": "F3",
          "ticks": 12327,
          "time": 143.3372093023256,
          "velocity": 0.3779527559055118
        },
        {
          "duration": 0.11627906976744384,
          "durationTicks": 10,
          "midi": 58,
          "name": "A#3",
          "ticks": 12327,
          "time": 143.3372093023256,
          "velocity": 0.41732283464566927
        },
        {
          "duration": 0.09302325581396076,
          "durationTicks": 8,
          "midi": 46,
          "name": "A#2",
          "ticks": 12328,
          "time": 143.34883720930233,
          "velocity": 0.33858267716535434
        },
        {
          "duration": 0.04651162790699459,
          "durationTicks": 4,
          "midi": 91,
          "name": "G6",
          "ticks": 12332,
          "time": 143.3953488372093,
          "velocity": 0.10236220472440945
        },
        {
          "duration": 0.05813953488370771,
          "durationTicks": 5,
          "midi": 54,
          "name": "F#3",
          "ticks": 12337,
          "time": 143.45348837209303,
          "velocity": 0.4645669291338583
        },
        {
          "duration": 0.034883720930224626,
          "durationTicks": 3,
          "midi": 71,
          "name": "B4",
          "ticks": 12337,
          "time": 143.45348837209303,
          "velocity": 0.2047244094488189
        },
        {
          "duration": 0.09302325581396076,
          "durationTicks": 8,
          "midi": 58,
          "name": "A#3",
          "ticks": 12339,
          "time": 143.47674418604652,
          "velocity": 0.3937007874015748
        },
        {
          "duration": 0.08139534883721922,
          "durationTicks": 7,
          "midi": 46,
          "name": "A#2",
          "ticks": 12340,
          "time": 143.48837209302326,
          "velocity": 0.33070866141732286
        },
        {
          "duration": 0.08139534883721922,
          "durationTicks": 7,
          "midi": 65,
          "name": "F4",
          "ticks": 12340,
          "time": 143.48837209302326,
          "velocity": 0.11023622047244094
        },
        {
          "duration": 0.06976744186047767,
          "durationTicks": 6,
          "midi": 53,
          "name": "F3",
          "ticks": 12342,
          "time": 143.51162790697674,
          "velocity": 0.4015748031496063
        },
        {
          "duration": 0.023255813953483084,
          "durationTicks": 2,
          "midi": 47,
          "name": "B2",
          "ticks": 12347,
          "time": 143.56976744186048,
          "velocity": 0.30708661417322836
        },
        {
          "duration": 0.034883720930224626,
          "durationTicks": 3,
          "midi": 84,
          "name": "C6",
          "ticks": 12347,
          "time": 143.56976744186048,
          "velocity": 0.14960629921259844
        },
        {
          "duration": 0.38372093023255616,
          "durationTicks": 33,
          "midi": 95,
          "name": "B6",
          "ticks": 12348,
          "time": 143.58139534883722,
          "velocity": 0.25196850393700787
        },
        {
          "duration": 0.023255813953483084,
          "durationTicks": 2,
          "midi": 45,
          "name": "A2",
          "ticks": 12349,
          "time": 143.59302325581396,
          "velocity": 0.3858267716535433
        },
        {
          "duration": 0.12790697674418539,
          "durationTicks": 11,
          "midi": 58,
          "name": "A#3",
          "ticks": 12349,
          "time": 143.59302325581396,
          "velocity": 0.4409448818897638
        },
        {
          "duration": 0.11627906976744384,
          "durationTicks": 10,
          "midi": 65,
          "name": "F4",
          "ticks": 12350,
          "time": 143.6046511627907,
          "velocity": 0.15748031496062992
        },
        {
          "duration": 0.11627906976744384,
          "durationTicks": 10,
          "midi": 81,
          "name": "A5",
          "ticks": 12350,
          "time": 143.6046511627907,
          "velocity": 0.14173228346456693
        },
        {
          "duration": 0.1046511627907023,
          "durationTicks": 9,
          "midi": 46,
          "name": "A#2",
          "ticks": 12351,
          "time": 143.61627906976744,
          "velocity": 0.36220472440944884
        },
        {
          "duration": 0.1046511627907023,
          "durationTicks": 9,
          "midi": 53,
          "name": "F3",
          "ticks": 12351,
          "time": 143.61627906976744,
          "velocity": 0.31496062992125984
        },
        {
          "duration": 0.04651162790696617,
          "durationTicks": 4,
          "midi": 91,
          "name": "G6",
          "ticks": 12352,
          "time": 143.62790697674419,
          "velocity": 0.07874015748031496
        },
        {
          "duration": 0.023255813953483084,
          "durationTicks": 2,
          "midi": 51,
          "name": "D#3",
          "ticks": 12360,
          "time": 143.72093023255815,
          "velocity": 0.33858267716535434
        },
        {
          "duration": 0.023255813953483084,
          "durationTicks": 2,
          "midi": 55,
          "name": "G3",
          "ticks": 12361,
          "time": 143.7325581395349,
          "velocity": 0.3937007874015748
        },
        {
          "duration": 0.15116279069766847,
          "durationTicks": 13,
          "midi": 65,
          "name": "F4",
          "ticks": 12361,
          "time": 143.7325581395349,
          "velocity": 0.16535433070866143
        },
        {
          "duration": 0.04651162790696617,
          "durationTicks": 4,
          "midi": 72,
          "name": "C5",
          "ticks": 12362,
          "time": 143.74418604651163,
          "velocity": 0.15748031496062992
        },
        {
          "duration": 0.06976744186047767,
          "durationTicks": 6,
          "midi": 53,
          "name": "F3",
          "ticks": 12363,
          "time": 143.75581395348837,
          "velocity": 0.4251968503937008
        },
        {
          "duration": 0.2093023255814046,
          "durationTicks": 18,
          "midi": 58,
          "name": "A#3",
          "ticks": 12364,
          "time": 143.7674418604651,
          "velocity": 0.3700787401574803
        },
        {
          "duration": 0.08139534883721922,
          "durationTicks": 7,
          "midi": 46,
          "name": "A#2",
          "ticks": 12365,
          "time": 143.77906976744185,
          "velocity": 0.3858267716535433
        },
        {
          "duration": 0.023255813953483084,
          "durationTicks": 2,
          "midi": 55,
          "name": "G3",
          "ticks": 12370,
          "time": 143.8372093023256,
          "velocity": 0.30708661417322836
        },
        {
          "duration": 0.023255813953483084,
          "durationTicks": 2,
          "midi": 53,
          "name": "F3",
          "ticks": 12372,
          "time": 143.86046511627907,
          "velocity": 0.41732283464566927
        },
        {
          "duration": 0.06976744186047767,
          "durationTicks": 6,
          "midi": 53,
          "name": "F3",
          "ticks": 12375,
          "time": 143.8953488372093,
          "velocity": 0.31496062992125984
        },
        {
          "duration": 0.023255813953483084,
          "durationTicks": 2,
          "midi": 47,
          "name": "B2",
          "ticks": 12380,
          "time": 143.95348837209303,
          "velocity": 0.28346456692913385
        },
        {
          "duration": 0.034883720930224626,
          "durationTicks": 3,
          "midi": 72,
          "name": "C5",
          "ticks": 12380,
          "time": 143.95348837209303,
          "velocity": 0.14173228346456693
        },
        {
          "duration": 0.11627906976744384,
          "durationTicks": 10,
          "midi": 58,
          "name": "A#3",
          "ticks": 12383,
          "time": 143.98837209302326,
          "velocity": 0.3543307086614173
        },
        {
          "duration": 0.034883720930224626,
          "durationTicks": 3,
          "midi": 66,
          "name": "F#4",
          "ticks": 12383,
          "time": 143.98837209302326,
          "velocity": 0.13385826771653545
        },
        {
          "duration": 0.023255813953483084,
          "durationTicks": 2,
          "midi": 71,
          "name": "B4",
          "ticks": 12383,
          "time": 143.98837209302326,
          "velocity": 0.25196850393700787
        },
        {
          "duration": 0.24418604651162923,
          "durationTicks": 21,
          "midi": 77,
          "name": "F5",
          "ticks": 12383,
          "time": 143.98837209302326,
          "velocity": 0.3464566929133858
        },
        {
          "duration": 0.034883720930224626,
          "durationTicks": 3,
          "midi": 86,
          "name": "D6",
          "ticks": 12383,
          "time": 143.98837209302326,
          "velocity": 0.10236220472440945
        },
        {
          "duration": 0.04651162790696617,
          "durationTicks": 4,
          "midi": 88,
          "name": "E6",
          "ticks": 12383,
          "time": 143.98837209302326,
          "velocity": 0.18110236220472442
        },
        {
          "duration": 0.24418604651162923,
          "durationTicks": 21,
          "midi": 96,
          "name": "C7",
          "ticks": 12383,
          "time": 143.98837209302326,
          "velocity": 0.2283464566929134
        },
        {
          "duration": 0.034883720930224626,
          "durationTicks": 3,
          "midi": 99,
          "name": "D#7",
          "ticks": 12383,
          "time": 143.98837209302326,
          "velocity": 0.07874015748031496
        },
        {
          "duration": 0.09302325581396076,
          "durationTicks": 8,
          "midi": 72,
          "name": "C5",
          "ticks": 12385,
          "time": 144.01162790697674,
          "velocity": 0.29133858267716534
        },
        {
          "duration": 0.06976744186047767,
          "durationTicks": 6,
          "midi": 80,
          "name": "G#5",
          "ticks": 12385,
          "time": 144.01162790697674,
          "velocity": 0.07086614173228346
        },
        {
          "duration": 0.11627906976744384,
          "durationTicks": 10,
          "midi": 101,
          "name": "F7",
          "ticks": 12385,
          "time": 144.01162790697674,
          "velocity": 0.11023622047244094
        },
        {
          "duration": 0.08139534883721922,
          "durationTicks": 7,
          "midi": 65,
          "name": "F4",
          "ticks": 12386,
          "time": 144.02325581395348,
          "velocity": 0.14173228346456693
        },
        {
          "duration": 0.11627906976744384,
          "durationTicks": 10,
          "midi": 91,
          "name": "G6",
          "ticks": 12386,
          "time": 144.02325581395348,
          "velocity": 0.2283464566929134
        },
        {
          "duration": 0.06976744186047767,
          "durationTicks": 6,
          "midi": 53,
          "name": "F3",
          "ticks": 12387,
          "time": 144.03488372093022,
          "velocity": 0.2992125984251969
        },
        {
          "duration": 0.05813953488373613,
          "durationTicks": 5,
          "midi": 46,
          "name": "A#2",
          "ticks": 12388,
          "time": 144.04651162790697,
          "velocity": 0.36220472440944884
        },
        {
          "duration": 0.08139534883721922,
          "durationTicks": 7,
          "midi": 100,
          "name": "E7",
          "ticks": 12388,
          "time": 144.04651162790697,
          "velocity": 0.11023622047244094
        },
        {
          "duration": 0.023255813953483084,
          "durationTicks": 2,
          "midi": 47,
          "name": "B2",
          "ticks": 12393,
          "time": 144.1046511627907,
          "velocity": 0.3779527559055118
        },
        {
          "duration": 0.034883720930224626,
          "durationTicks": 3,
          "midi": 54,
          "name": "F#3",
          "ticks": 12393,
          "time": 144.1046511627907,
          "velocity": 0.3937007874015748
        },
        {
          "duration": 0.09302325581396076,
          "durationTicks": 8,
          "midi": 48,
          "name": "C3",
          "ticks": 12395,
          "time": 144.12790697674419,
          "velocity": 0.3937007874015748
        },
        {
          "duration": 0.06976744186047767,
          "durationTicks": 6,
          "midi": 84,
          "name": "C6",
          "ticks": 12395,
          "time": 144.12790697674419,
          "velocity": 0.1968503937007874
        },
        {
          "duration": 0.34883720930233153,
          "durationTicks": 30,
          "midi": 55,
          "name": "G3",
          "ticks": 12396,
          "time": 144.13953488372093,
          "velocity": 0.49606299212598426
        },
        {
          "duration": 0.023255813953483084,
          "durationTicks": 2,
          "midi": 61,
          "name": "C#4",
          "ticks": 12402,
          "time": 144.2093023255814,
          "velocity": 0.2755905511811024
        },
        {
          "duration": 0.0813953488371908,
          "durationTicks": 7,
          "midi": 88,
          "name": "E6",
          "ticks": 12403,
          "time": 144.22093023255815,
          "velocity": 0.12598425196850394
        },
        {
          "duration": 0.05813953488370771,
          "durationTicks": 5,
          "midi": 76,
          "name": "E5",
          "ticks": 12404,
          "time": 144.2325581395349,
          "velocity": 0.36220472440944884
        },
        {
          "duration": 0.13953488372092693,
          "durationTicks": 12,
          "midi": 83,
          "name": "B5",
          "ticks": 12404,
          "time": 144.2325581395349,
          "velocity": 0.11023622047244094
        },
        {
          "duration": 0.034883720930224626,
          "durationTicks": 3,
          "midi": 94,
          "name": "A#6",
          "ticks": 12404,
          "time": 144.2325581395349,
          "velocity": 0.09448818897637795
        },
        {
          "duration": 0.2325581395348877,
          "durationTicks": 20,
          "midi": 48,
          "name": "C3",
          "ticks": 12405,
          "time": 144.24418604651163,
          "velocity": 0.3700787401574803
        },
        {
          "duration": 0.30232558139533694,
          "durationTicks": 26,
          "midi": 72,
          "name": "C5",
          "ticks": 12405,
          "time": 144.24418604651163,
          "velocity": 0.3228346456692913
        },
        {
          "duration": 0.17441860465115155,
          "durationTicks": 15,
          "midi": 86,
          "name": "D6",
          "ticks": 12406,
          "time": 144.25581395348837,
          "velocity": 0.13385826771653545
        },
        {
          "duration": 0.2325581395348877,
          "durationTicks": 20,
          "midi": 74,
          "name": "D5",
          "ticks": 12407,
          "time": 144.2674418604651,
          "velocity": 0.2440944881889764
        },
        {
          "duration": 0.023255813953483084,
          "durationTicks": 2,
          "midi": 66,
          "name": "F#4",
          "ticks": 12424,
          "time": 144.46511627906978,
          "velocity": 0.3858267716535433
        },
        {
          "duration": 0.023255813953483084,
          "durationTicks": 2,
          "midi": 43,
          "name": "G2",
          "ticks": 12426,
          "time": 144.48837209302326,
          "velocity": 0.41732283464566927
        },
        {
          "duration": 0.034883720930224626,
          "durationTicks": 3,
          "midi": 53,
          "name": "F3",
          "ticks": 12426,
          "time": 144.48837209302326,
          "velocity": 0.3464566929133858
        },
        {
          "duration": 0.023255813953483084,
          "durationTicks": 2,
          "midi": 67,
          "name": "G4",
          "ticks": 12426,
          "time": 144.48837209302326,
          "velocity": 0.3464566929133858
        },
        {
          "duration": 0.05813953488373613,
          "durationTicks": 5,
          "midi": 83,
          "name": "B5",
          "ticks": 12428,
          "time": 144.51162790697674,
          "velocity": 0.25196850393700787
        },
        {
          "duration": 0.08139534883721922,
          "durationTicks": 7,
          "midi": 88,
          "name": "E6",
          "ticks": 12428,
          "time": 144.51162790697674,
          "velocity": 0.14960629921259844
        },
        {
          "duration": 0.023255813953483084,
          "durationTicks": 2,
          "midi": 61,
          "name": "C#4",
          "ticks": 12429,
          "time": 144.52325581395348,
          "velocity": 0.2755905511811024
        },
        {
          "duration": 0.034883720930224626,
          "durationTicks": 3,
          "midi": 69,
          "name": "A4",
          "ticks": 12429,
          "time": 144.52325581395348,
          "velocity": 0.31496062992125984
        },
        {
          "duration": 0.2674418604651123,
          "durationTicks": 23,
          "midi": 74,
          "name": "D5",
          "ticks": 12429,
          "time": 144.52325581395348,
          "velocity": 0.1732283464566929
        },
        {
          "duration": 0.22093023255814614,
          "durationTicks": 19,
          "midi": 48,
          "name": "C3",
          "ticks": 12430,
          "time": 144.53488372093022,
          "velocity": 0.3464566929133858
        },
        {
          "duration": 0.2093023255814046,
          "durationTicks": 18,
          "midi": 55,
          "name": "G3",
          "ticks": 12430,
          "time": 144.53488372093022,
          "velocity": 0.4645669291338583
        },
        {
          "duration": 0.04651162790699459,
          "durationTicks": 4,
          "midi": 71,
          "name": "B4",
          "ticks": 12431,
          "time": 144.54651162790697,
          "velocity": 0.2755905511811024
        },
        {
          "duration": 0.03488372093025305,
          "durationTicks": 3,
          "midi": 76,
          "name": "E5",
          "ticks": 12431,
          "time": 144.54651162790697,
          "velocity": 0.07874015748031496
        },
        {
          "duration": 0.3720930232558146,
          "durationTicks": 32,
          "midi": 84,
          "name": "C6",
          "ticks": 12433,
          "time": 144.56976744186048,
          "velocity": 0.29133858267716534
        },
        {
          "duration": 0.1860465116278931,
          "durationTicks": 16,
          "midi": 72,
          "name": "C5",
          "ticks": 12434,
          "time": 144.58139534883722,
          "velocity": 0.23622047244094488
        },
        {
          "duration": 0.05813953488370771,
          "durationTicks": 5,
          "midi": 91,
          "name": "G6",
          "ticks": 12435,
          "time": 144.59302325581396,
          "velocity": 0.07086614173228346
        },
        {
          "duration": 0.05813953488373613,
          "durationTicks": 5,
          "midi": 88,
          "name": "E6",
          "ticks": 12442,
          "time": 144.67441860465115,
          "velocity": 0.07086614173228346
        },
        {
          "duration": 0.023255813953483084,
          "durationTicks": 2,
          "midi": 59,
          "name": "B3",
          "ticks": 12448,
          "time": 144.74418604651163,
          "velocity": 0.3543307086614173
        },
        {
          "duration": 0.06976744186047767,
          "durationTicks": 6,
          "midi": 67,
          "name": "G4",
          "ticks": 12449,
          "time": 144.75581395348837,
          "velocity": 0.18110236220472442
        },
        {
          "duration": 0.1046511627907023,
          "durationTicks": 9,
          "midi": 60,
          "name": "C4",
          "ticks": 12450,
          "time": 144.7674418604651,
          "velocity": 0.31496062992125984
        },
        {
          "duration": 0.2093023255814046,
          "durationTicks": 18,
          "midi": 77,
          "name": "F5",
          "ticks": 12450,
          "time": 144.7674418604651,
          "velocity": 0.3779527559055118
        },
        {
          "duration": 0.11627906976744384,
          "durationTicks": 10,
          "midi": 48,
          "name": "C3",
          "ticks": 12451,
          "time": 144.77906976744185,
          "velocity": 0.4094488188976378
        },
        {
          "duration": 0.1046511627907023,
          "durationTicks": 9,
          "midi": 55,
          "name": "G3",
          "ticks": 12451,
          "time": 144.77906976744185,
          "velocity": 0.4645669291338583
        },
        {
          "duration": 0.023255813953483084,
          "durationTicks": 2,
          "midi": 56,
          "name": "G#3",
          "ticks": 12460,
          "time": 144.88372093023256,
          "velocity": 0.4409448818897638
        },
        {
          "duration": 0.08139534883721922,
          "durationTicks": 7,
          "midi": 55,
          "name": "G3",
          "ticks": 12462,
          "time": 144.90697674418604,
          "velocity": 0.48031496062992124
        },
        {
          "duration": 0.05813953488373613,
          "durationTicks": 5,
          "midi": 48,
          "name": "C3",
          "ticks": 12463,
          "time": 144.91860465116278,
          "velocity": 0.23622047244094488
        },
        {
          "duration": 0.04651162790696617,
          "durationTicks": 4,
          "midi": 61,
          "name": "C#4",
          "ticks": 12467,
          "time": 144.96511627906978,
          "velocity": 0.2204724409448819
        },
        {
          "duration": 0.023255813953483084,
          "durationTicks": 2,
          "midi": 42,
          "name": "F#2",
          "ticks": 12469,
          "time": 144.98837209302326,
          "velocity": 0.36220472440944884
        },
        {
          "duration": 0.034883720930224626,
          "durationTicks": 3,
          "midi": 67,
          "name": "G4",
          "ticks": 12470,
          "time": 145,
          "velocity": 0.12598425196850394
        },
        {
          "duration": 0.11627906976744384,
          "durationTicks": 10,
          "midi": 48,
          "name": "C3",
          "ticks": 12471,
          "time": 145.01162790697674,
          "velocity": 0.4094488188976378
        },
        {
          "duration": 0.023255813953483084,
          "durationTicks": 2,
          "midi": 54,
          "name": "F#3",
          "ticks": 12471,
          "time": 145.01162790697674,
          "velocity": 0.4251968503937008
        },
        {
          "duration": 0.2093023255814046,
          "durationTicks": 18,
          "midi": 93,
          "name": "A6",
          "ticks": 12471,
          "time": 145.01162790697674,
          "velocity": 0.2992125984251969
        },
        {
          "duration": 0.2093023255814046,
          "durationTicks": 18,
          "midi": 81,
          "name": "A5",
          "ticks": 12472,
          "time": 145.02325581395348,
          "velocity": 0.2755905511811024
        },
        {
          "duration": 0.19767441860466306,
          "durationTicks": 17,
          "midi": 100,
          "name": "E7",
          "ticks": 12472,
          "time": 145.02325581395348,
          "velocity": 0.2125984251968504
        },
        {
          "duration": 0.1046511627907023,
          "durationTicks": 9,
          "midi": 55,
          "name": "G3",
          "ticks": 12473,
          "time": 145.03488372093022,
          "velocity": 0.44881889763779526
        },
        {
          "duration": 0.034883720930224626,
          "durationTicks": 3,
          "midi": 84,
          "name": "C6",
          "ticks": 12481,
          "time": 145.12790697674419,
          "velocity": 0.13385826771653545
        },
        {
          "duration": 0.25581395348837077,
          "durationTicks": 22,
          "midi": 60,
          "name": "C4",
          "ticks": 12482,
          "time": 145.13953488372093,
          "velocity": 0.4330708661417323
        },
        {
          "duration": 0.13953488372092693,
          "durationTicks": 12,
          "midi": 88,
          "name": "E6",
          "ticks": 12482,
          "time": 145.13953488372093,
          "velocity": 0.14173228346456693
        },
        {
          "duration": 0.24418604651162923,
          "durationTicks": 21,
          "midi": 55,
          "name": "G3",
          "ticks": 12483,
          "time": 145.15116279069767,
          "velocity": 0.5039370078740157
        },
        {
          "duration": 0.25581395348837077,
          "durationTicks": 22,
          "midi": 48,
          "name": "C3",
          "ticks": 12484,
          "time": 145.1627906976744,
          "velocity": 0.3779527559055118
        },
        {
          "duration": 0.08139534883721922,
          "durationTicks": 7,
          "midi": 77,
          "name": "F5",
          "ticks": 12494,
          "time": 145.27906976744185,
          "velocity": 0.3858267716535433
        },
        {
          "duration": 0.08139534883721922,
          "durationTicks": 7,
          "midi": 96,
          "name": "C7",
          "ticks": 12494,
          "time": 145.27906976744185,
          "velocity": 0.11023622047244094
        },
        {
          "duration": 0.16279069767443843,
          "durationTicks": 14,
          "midi": 91,
          "name": "G6",
          "ticks": 12495,
          "time": 145.2906976744186,
          "velocity": 0.18110236220472442
        },
        {
          "duration": 0.16279069767441,
          "durationTicks": 14,
          "midi": 79,
          "name": "G5",
          "ticks": 12503,
          "time": 145.38372093023256,
          "velocity": 0.1732283464566929
        },
        {
          "duration": 0.034883720930224626,
          "durationTicks": 3,
          "midi": 54,
          "name": "F#3",
          "ticks": 12504,
          "time": 145.3953488372093,
          "velocity": 0.3937007874015748
        },
        {
          "duration": 0.25581395348837077,
          "durationTicks": 22,
          "midi": 60,
          "name": "C4",
          "ticks": 12505,
          "time": 145.40697674418604,
          "velocity": 0.44881889763779526
        },
        {
          "duration": 0.11627906976744384,
          "durationTicks": 10,
          "midi": 67,
          "name": "G4",
          "ticks": 12505,
          "time": 145.40697674418604,
          "velocity": 0.14173228346456693
        },
        {
          "duration": 0.06976744186047767,
          "durationTicks": 6,
          "midi": 88,
          "name": "E6",
          "ticks": 12506,
          "time": 145.41860465116278,
          "velocity": 0.07086614173228346
        },
        {
          "duration": 0.1046511627907023,
          "durationTicks": 9,
          "midi": 48,
          "name": "C3",
          "ticks": 12507,
          "time": 145.43023255813952,
          "velocity": 0.3464566929133858
        },
        {
          "duration": 0.1046511627907023,
          "durationTicks": 9,
          "midi": 55,
          "name": "G3",
          "ticks": 12507,
          "time": 145.43023255813952,
          "velocity": 0.4566929133858268
        },
        {
          "duration": 0.023255813953483084,
          "durationTicks": 2,
          "midi": 56,
          "name": "G#3",
          "ticks": 12516,
          "time": 145.53488372093022,
          "velocity": 0.3464566929133858
        },
        {
          "duration": 0.13953488372092693,
          "durationTicks": 12,
          "midi": 48,
          "name": "C3",
          "ticks": 12517,
          "time": 145.54651162790697,
          "velocity": 0.4251968503937008
        },
        {
          "duration": 0.13953488372092693,
          "durationTicks": 12,
          "midi": 67,
          "name": "G4",
          "ticks": 12517,
          "time": 145.54651162790697,
          "velocity": 0.1889763779527559
        },
        {
          "duration": 0.11627906976744384,
          "durationTicks": 10,
          "midi": 55,
          "name": "G3",
          "ticks": 12518,
          "time": 145.5581395348837,
          "velocity": 0.4251968503937008
        },
        {
          "duration": 0.023255813953483084,
          "durationTicks": 2,
          "midi": 76,
          "name": "E5",
          "ticks": 12526,
          "time": 145.65116279069767,
          "velocity": 0.2992125984251969
        },
        {
          "duration": 0.3720930232558146,
          "durationTicks": 32,
          "midi": 89,
          "name": "F6",
          "ticks": 12527,
          "time": 145.6627906976744,
          "velocity": 0.2283464566929134
        },
        {
          "duration": 0.32558139534884845,
          "durationTicks": 28,
          "midi": 96,
          "name": "C7",
          "ticks": 12527,
          "time": 145.6627906976744,
          "velocity": 0.1968503937007874
        },
        {
          "duration": 0.3720930232558146,
          "durationTicks": 32,
          "midi": 77,
          "name": "F5",
          "ticks": 12528,
          "time": 145.67441860465115,
          "velocity": 0.4094488188976378
        },
        {
          "duration": 0.2558139534883992,
          "durationTicks": 22,
          "midi": 55,
          "name": "G3",
          "ticks": 12529,
          "time": 145.6860465116279,
          "velocity": 0.5039370078740157
        },
        {
          "duration": 0.3837209302325846,
          "durationTicks": 33,
          "midi": 60,
          "name": "C4",
          "ticks": 12529,
          "time": 145.6860465116279,
          "velocity": 0.4015748031496063
        },
        {
          "duration": 0.2325581395348877,
          "durationTicks": 20,
          "midi": 48,
          "name": "C3",
          "ticks": 12531,
          "time": 145.7093023255814,
          "velocity": 0.25984251968503935
        },
        {
          "duration": 0.0813953488371908,
          "durationTicks": 7,
          "midi": 91,
          "name": "G6",
          "ticks": 12531,
          "time": 145.7093023255814,
          "velocity": 0.15748031496062992
        },
        {
          "duration": 0.05813953488370771,
          "durationTicks": 5,
          "midi": 91,
          "name": "G6",
          "ticks": 12541,
          "time": 145.82558139534885,
          "velocity": 0.07086614173228346
        },
        {
          "duration": 0.034883720930224626,
          "durationTicks": 3,
          "midi": 54,
          "name": "F#3",
          "ticks": 12551,
          "time": 145.9418604651163,
          "velocity": 0.4330708661417323
        },
        {
          "duration": 0.034883720930224626,
          "durationTicks": 3,
          "midi": 42,
          "name": "F#2",
          "ticks": 12552,
          "time": 145.95348837209303,
          "velocity": 0.23622047244094488
        },
        {
          "duration": 0.10465116279067388,
          "durationTicks": 9,
          "midi": 67,
          "name": "G4",
          "ticks": 12552,
          "time": 145.95348837209303,
          "velocity": 0.1889763779527559
        },
        {
          "duration": 0.09302325581393234,
          "durationTicks": 8,
          "midi": 88,
          "name": "E6",
          "ticks": 12552,
          "time": 145.95348837209303,
          "velocity": 0.07086614173228346
        },
        {
          "duration": 0.09302325581396076,
          "durationTicks": 8,
          "midi": 48,
          "name": "C3",
          "ticks": 12554,
          "time": 145.97674418604652,
          "velocity": 0.2204724409448819
        },
        {
          "duration": 0.1046511627907023,
          "durationTicks": 9,
          "midi": 55,
          "name": "G3",
          "ticks": 12554,
          "time": 145.97674418604652,
          "velocity": 0.47244094488188976
        },
        {
          "duration": 0.16279069767443843,
          "durationTicks": 14,
          "midi": 98,
          "name": "D7",
          "ticks": 12560,
          "time": 146.04651162790697,
          "velocity": 0.23622047244094488
        },
        {
          "duration": 0.12790697674418539,
          "durationTicks": 11,
          "midi": 79,
          "name": "G5",
          "ticks": 12562,
          "time": 146.06976744186048,
          "velocity": 0.2283464566929134
        },
        {
          "duration": 0.04651162790696617,
          "durationTicks": 4,
          "midi": 61,
          "name": "C#4",
          "ticks": 12564,
          "time": 146.09302325581396,
          "velocity": 0.3228346456692913
        },
        {
          "duration": 0.11627906976744384,
          "durationTicks": 10,
          "midi": 50,
          "name": "D3",
          "ticks": 12565,
          "time": 146.1046511627907,
          "velocity": 0.44881889763779526
        },
        {
          "duration": 0.05813953488370771,
          "durationTicks": 5,
          "midi": 74,
          "name": "D5",
          "ticks": 12567,
          "time": 146.12790697674419,
          "velocity": 0.11023622047244094
        },
        {
          "duration": 0.04651162790696617,
          "durationTicks": 4,
          "midi": 71,
          "name": "B4",
          "ticks": 12574,
          "time": 146.2093023255814,
          "velocity": 0.1889763779527559
        },
        {
          "duration": 0.08139534883721922,
          "durationTicks": 7,
          "midi": 50,
          "name": "D3",
          "ticks": 12577,
          "time": 146.24418604651163,
          "velocity": 0.41732283464566927
        },
        {
          "duration": 0.2674418604651123,
          "durationTicks": 23,
          "midi": 69,
          "name": "A4",
          "ticks": 12585,
          "time": 146.3372093023256,
          "velocity": 0.2677165354330709
        },
        {
          "duration": 0.034883720930224626,
          "durationTicks": 3,
          "midi": 76,
          "name": "E5",
          "ticks": 12585,
          "time": 146.3372093023256,
          "velocity": 0.07874015748031496
        },
        {
          "duration": 0.4302325581395223,
          "durationTicks": 37,
          "midi": 86,
          "name": "D6",
          "ticks": 12585,
          "time": 146.3372093023256,
          "velocity": 0.2992125984251969
        },
        {
          "duration": 0.25581395348837077,
          "durationTicks": 22,
          "midi": 50,
          "name": "D3",
          "ticks": 12586,
          "time": 146.34883720930233,
          "velocity": 0.44881889763779526
        },
        {
          "duration": 0.48837209302325846,
          "durationTicks": 42,
          "midi": 57,
          "name": "A3",
          "ticks": 12587,
          "time": 146.36046511627907,
          "velocity": 0.44881889763779526
        },
        {
          "duration": 0.22093023255814614,
          "durationTicks": 19,
          "midi": 90,
          "name": "F#6",
          "ticks": 12587,
          "time": 146.36046511627907,
          "velocity": 0.14173228346456693
        },
        {
          "duration": 0.13953488372092693,
          "durationTicks": 12,
          "midi": 77,
          "name": "F5",
          "ticks": 12588,
          "time": 146.37209302325581,
          "velocity": 0.11811023622047244
        },
        {
          "duration": 0.2093023255814046,
          "durationTicks": 18,
          "midi": 88,
          "name": "E6",
          "ticks": 12588,
          "time": 146.37209302325581,
          "velocity": 0.13385826771653545
        },
        {
          "duration": 0.04651162790696617,
          "durationTicks": 4,
          "midi": 102,
          "name": "F#7",
          "ticks": 12588,
          "time": 146.37209302325581,
          "velocity": 0.14960629921259844
        },
        {
          "duration": 0.6395348837209269,
          "durationTicks": 55,
          "midi": 81,
          "name": "A5",
          "ticks": 12590,
          "time": 146.3953488372093,
          "velocity": 0.2677165354330709
        },
        {
          "duration": 0.13953488372092693,
          "durationTicks": 12,
          "midi": 65,
          "name": "F4",
          "ticks": 12595,
          "time": 146.45348837209303,
          "velocity": 0.23622047244094488
        },
        {
          "duration": 0.15116279069766847,
          "durationTicks": 13,
          "midi": 93,
          "name": "A6",
          "ticks": 12607,
          "time": 146.59302325581396,
          "velocity": 0.2677165354330709
        },
        {
          "duration": 0.4767441860465169,
          "durationTicks": 41,
          "midi": 62,
          "name": "D4",
          "ticks": 12608,
          "time": 146.6046511627907,
          "velocity": 0.30708661417322836
        },
        {
          "duration": 0.24418604651162923,
          "durationTicks": 21,
          "midi": 77,
          "name": "F5",
          "ticks": 12609,
          "time": 146.61627906976744,
          "velocity": 0.16535433070866143
        },
        {
          "duration": 0.22093023255814614,
          "durationTicks": 19,
          "midi": 65,
          "name": "F4",
          "ticks": 12611,
          "time": 146.63953488372093,
          "velocity": 0.2677165354330709
        },
        {
          "duration": 0.17441860465117998,
          "durationTicks": 15,
          "midi": 50,
          "name": "D3",
          "ticks": 12613,
          "time": 146.6627906976744,
          "velocity": 0.23622047244094488
        },
        {
          "duration": 0.034883720930224626,
          "durationTicks": 3,
          "midi": 73,
          "name": "C#5",
          "ticks": 12621,
          "time": 146.75581395348837,
          "velocity": 0.16535433070866143
        },
        {
          "duration": 0.1860465116278931,
          "durationTicks": 16,
          "midi": 97,
          "name": "C#7",
          "ticks": 12630,
          "time": 146.86046511627907,
          "velocity": 0.2125984251968504
        },
        {
          "duration": 0.1860465116278931,
          "durationTicks": 16,
          "midi": 103,
          "name": "G7",
          "ticks": 12630,
          "time": 146.86046511627907,
          "velocity": 0.25984251968503935
        },
        {
          "duration": 0.17441860465115155,
          "durationTicks": 15,
          "midi": 93,
          "name": "A6",
          "ticks": 12631,
          "time": 146.87209302325581,
          "velocity": 0.30708661417322836
        },
        {
          "duration": 0.19767441860466306,
          "durationTicks": 17,
          "midi": 50,
          "name": "D3",
          "ticks": 12632,
          "time": 146.88372093023256,
          "velocity": 0.41732283464566927
        },
        {
          "duration": 0.11627906976744384,
          "durationTicks": 10,
          "midi": 57,
          "name": "A3",
          "ticks": 12632,
          "time": 146.88372093023256,
          "velocity": 0.4094488188976378
        },
        {
          "duration": 0.05813953488373613,
          "durationTicks": 5,
          "midi": 57,
          "name": "A3",
          "ticks": 12643,
          "time": 147.01162790697674,
          "velocity": 0.3464566929133858
        },
        {
          "duration": 0.023255813953483084,
          "durationTicks": 2,
          "midi": 52,
          "name": "E3",
          "ticks": 12650,
          "time": 147.09302325581396,
          "velocity": 0.28346456692913385
        },
        {
          "duration": 0.034883720930224626,
          "durationTicks": 3,
          "midi": 59,
          "name": "B3",
          "ticks": 12650,
          "time": 147.09302325581396,
          "velocity": 0.29133858267716534
        },
        {
          "duration": 0.034883720930224626,
          "durationTicks": 3,
          "midi": 67,
          "name": "G4",
          "ticks": 12651,
          "time": 147.1046511627907,
          "velocity": 0.31496062992125984
        },
        {
          "duration": 0.05813953488370771,
          "durationTicks": 5,
          "midi": 69,
          "name": "A4",
          "ticks": 12652,
          "time": 147.11627906976744,
          "velocity": 0.2204724409448819
        },
        {
          "duration": 0.13953488372092693,
          "durationTicks": 12,
          "midi": 50,
          "name": "D3",
          "ticks": 12653,
          "time": 147.12790697674419,
          "velocity": 0.4409448818897638
        },
        {
          "duration": 0.1046511627907023,
          "durationTicks": 9,
          "midi": 57,
          "name": "A3",
          "ticks": 12653,
          "time": 147.12790697674419,
          "velocity": 0.4409448818897638
        },
        {
          "duration": 0.12790697674418539,
          "durationTicks": 11,
          "midi": 68,
          "name": "G#4",
          "ticks": 12662,
          "time": 147.2325581395349,
          "velocity": 0.3937007874015748
        },
        {
          "duration": 0.13953488372092693,
          "durationTicks": 12,
          "midi": 87,
          "name": "D#6",
          "ticks": 12662,
          "time": 147.2325581395349,
          "velocity": 0.2677165354330709
        },
        {
          "duration": 0.13953488372092693,
          "durationTicks": 12,
          "midi": 92,
          "name": "G#6",
          "ticks": 12662,
          "time": 147.2325581395349,
          "velocity": 0.2677165354330709
        },
        {
          "duration": 0.05813953488370771,
          "durationTicks": 5,
          "midi": 96,
          "name": "C7",
          "ticks": 12663,
          "time": 147.24418604651163,
          "velocity": 0.08661417322834646
        },
        {
          "duration": 0.11627906976744384,
          "durationTicks": 10,
          "midi": 102,
          "name": "F#7",
          "ticks": 12663,
          "time": 147.24418604651163,
          "velocity": 0.23622047244094488
        },
        {
          "duration": 0.023255813953483084,
          "durationTicks": 2,
          "midi": 56,
          "name": "G#3",
          "ticks": 12664,
          "time": 147.25581395348837,
          "velocity": 0.44881889763779526
        },
        {
          "duration": 0.2674418604651123,
          "durationTicks": 23,
          "midi": 65,
          "name": "F4",
          "ticks": 12664,
          "time": 147.25581395348837,
          "velocity": 0.3228346456692913
        },
        {
          "duration": 0.2325581395348877,
          "durationTicks": 20,
          "midi": 76,
          "name": "E5",
          "ticks": 12664,
          "time": 147.25581395348837,
          "velocity": 0.18110236220472442
        },
        {
          "duration": 0.22093023255814614,
          "durationTicks": 19,
          "midi": 84,
          "name": "C6",
          "ticks": 12664,
          "time": 147.25581395348837,
          "velocity": 0.11023622047244094
        },
        {
          "duration": 0.3720930232558146,
          "durationTicks": 32,
          "midi": 81,
          "name": "A5",
          "ticks": 12665,
          "time": 147.2674418604651,
          "velocity": 0.1889763779527559
        },
        {
          "duration": 0.22093023255814614,
          "durationTicks": 19,
          "midi": 57,
          "name": "A3",
          "ticks": 12666,
          "time": 147.27906976744185,
          "velocity": 0.4094488188976378
        },
        {
          "duration": 0.34883720930233153,
          "durationTicks": 30,
          "midi": 62,
          "name": "D4",
          "ticks": 12666,
          "time": 147.27906976744185,
          "velocity": 0.25984251968503935
        },
        {
          "duration": 0.22093023255814614,
          "durationTicks": 19,
          "midi": 50,
          "name": "D3",
          "ticks": 12667,
          "time": 147.2906976744186,
          "velocity": 0.33858267716535434
        },
        {
          "duration": 0.023255813953483084,
          "durationTicks": 2,
          "midi": 68,
          "name": "G#4",
          "ticks": 12684,
          "time": 147.48837209302326,
          "velocity": 0.2677165354330709
        },
        {
          "duration": 0.16279069767441,
          "durationTicks": 14,
          "midi": 86,
          "name": "D6",
          "ticks": 12685,
          "time": 147.5,
          "velocity": 0.4094488188976378
        },
        {
          "duration": 0.15116279069766847,
          "durationTicks": 13,
          "midi": 91,
          "name": "G6",
          "ticks": 12685,
          "time": 147.5,
          "velocity": 0.15748031496062992
        },
        {
          "duration": 0.15116279069766847,
          "durationTicks": 13,
          "midi": 95,
          "name": "B6",
          "ticks": 12685,
          "time": 147.5,
          "velocity": 0.23622047244094488
        },
        {
          "duration": 0.13953488372092693,
          "durationTicks": 12,
          "midi": 67,
          "name": "G4",
          "ticks": 12686,
          "time": 147.51162790697674,
          "velocity": 0.3779527559055118
        },
        {
          "duration": 0.04651162790696617,
          "durationTicks": 4,
          "midi": 96,
          "name": "C7",
          "ticks": 12686,
          "time": 147.51162790697674,
          "velocity": 0.10236220472440945
        },
        {
          "duration": 0.08139534883721922,
          "durationTicks": 7,
          "midi": 101,
          "name": "F7",
          "ticks": 12686,
          "time": 147.51162790697674,
          "velocity": 0.08661417322834646
        },
        {
          "duration": 0.11627906976744384,
          "durationTicks": 10,
          "midi": 57,
          "name": "A3",
          "ticks": 12687,
          "time": 147.52325581395348,
          "velocity": 0.4251968503937008
        },
        {
          "duration": 0.1046511627907023,
          "durationTicks": 9,
          "midi": 76,
          "name": "E5",
          "ticks": 12688,
          "time": 147.53488372093022,
          "velocity": 0.12598425196850394
        },
        {
          "duration": 0.03488372093025305,
          "durationTicks": 3,
          "midi": 50,
          "name": "D3",
          "ticks": 12689,
          "time": 147.54651162790697,
          "velocity": 0.25196850393700787
        },
        {
          "duration": 0.04651162790696617,
          "durationTicks": 4,
          "midi": 50,
          "name": "D3",
          "ticks": 12693,
          "time": 147.59302325581396,
          "velocity": 0.2047244094488189
        },
        {
          "duration": 0.04651162790696617,
          "durationTicks": 4,
          "midi": 84,
          "name": "C6",
          "ticks": 12693,
          "time": 147.59302325581396,
          "velocity": 0.08661417322834646
        },
        {
          "duration": 0.04651162790696617,
          "durationTicks": 4,
          "midi": 70,
          "name": "A#4",
          "ticks": 12696,
          "time": 147.62790697674419,
          "velocity": 0.18110236220472442
        },
        {
          "duration": 0.11627906976744384,
          "durationTicks": 10,
          "midi": 62,
          "name": "D4",
          "ticks": 12697,
          "time": 147.63953488372093,
          "velocity": 0.33858267716535434
        },
        {
          "duration": 0.13953488372092693,
          "durationTicks": 12,
          "midi": 50,
          "name": "D3",
          "ticks": 12698,
          "time": 147.65116279069767,
          "velocity": 0.4566929133858268
        },
        {
          "duration": 0.09302325581396076,
          "durationTicks": 8,
          "midi": 57,
          "name": "A3",
          "ticks": 12700,
          "time": 147.67441860465115,
          "velocity": 0.44881889763779526
        },
        {
          "duration": 0.034883720930224626,
          "durationTicks": 3,
          "midi": 65,
          "name": "F4",
          "ticks": 12703,
          "time": 147.7093023255814,
          "velocity": 0.2047244094488189
        },
        {
          "duration": 0.2906976744185954,
          "durationTicks": 25,
          "midi": 84,
          "name": "C6",
          "ticks": 12706,
          "time": 147.74418604651163,
          "velocity": 0.33070866141732286
        },
        {
          "duration": 0.2674418604651123,
          "durationTicks": 23,
          "midi": 89,
          "name": "F6",
          "ticks": 12706,
          "time": 147.74418604651163,
          "velocity": 0.3543307086614173
        },
        {
          "duration": 0.30232558139533694,
          "durationTicks": 26,
          "midi": 65,
          "name": "F4",
          "ticks": 12707,
          "time": 147.75581395348837,
          "velocity": 0.4566929133858268
        },
        {
          "duration": 0.023255813953483084,
          "durationTicks": 2,
          "midi": 58,
          "name": "A#3",
          "ticks": 12708,
          "time": 147.7674418604651,
          "velocity": 0.36220472440944884
        },
        {
          "duration": 0.24418604651162923,
          "durationTicks": 21,
          "midi": 57,
          "name": "A3",
          "ticks": 12710,
          "time": 147.7906976744186,
          "velocity": 0.4645669291338583
        },
        {
          "duration": 0.24418604651162923,
          "durationTicks": 21,
          "midi": 74,
          "name": "D5",
          "ticks": 12710,
          "time": 147.7906976744186,
          "velocity": 0.23622047244094488
        },
        {
          "duration": 0.2790697674418823,
          "durationTicks": 24,
          "midi": 81,
          "name": "A5",
          "ticks": 12711,
          "time": 147.80232558139534,
          "velocity": 0.2440944881889764
        },
        {
          "duration": 0.22093023255811772,
          "durationTicks": 19,
          "midi": 50,
          "name": "D3",
          "ticks": 12712,
          "time": 147.8139534883721,
          "velocity": 0.29133858267716534
        },
        {
          "duration": 0.12790697674418539,
          "durationTicks": 11,
          "midi": 62,
          "name": "D4",
          "ticks": 12728,
          "time": 148,
          "velocity": 0.4566929133858268
        },
        {
          "duration": 0.09302325581396076,
          "durationTicks": 8,
          "midi": 90,
          "name": "F#6",
          "ticks": 12730,
          "time": 148.02325581395348,
          "velocity": 0.15748031496062992
        },
        {
          "duration": 0.023255813953483084,
          "durationTicks": 2,
          "midi": 43,
          "name": "G2",
          "ticks": 12731,
          "time": 148.03488372093022,
          "velocity": 0.2755905511811024
        },
        {
          "duration": 0.04651162790699459,
          "durationTicks": 4,
          "midi": 86,
          "name": "D6",
          "ticks": 12731,
          "time": 148.03488372093022,
          "velocity": 0.07874015748031496
        },
        {
          "duration": 0.18604651162792152,
          "durationTicks": 16,
          "midi": 69,
          "name": "A4",
          "ticks": 12732,
          "time": 148.04651162790697,
          "velocity": 0.1732283464566929
        },
        {
          "duration": 0.03488372093025305,
          "durationTicks": 3,
          "midi": 42,
          "name": "F#2",
          "ticks": 12733,
          "time": 148.0581395348837,
          "velocity": 0.2125984251968504
        },
        {
          "duration": 0.06976744186047767,
          "durationTicks": 6,
          "midi": 50,
          "name": "D3",
          "ticks": 12733,
          "time": 148.0581395348837,
          "velocity": 0.3779527559055118
        },
        {
          "duration": 0.06976744186047767,
          "durationTicks": 6,
          "midi": 57,
          "name": "A3",
          "ticks": 12733,
          "time": 148.0581395348837,
          "velocity": 0.4015748031496063
        },
        {
          "duration": 0.023255813953483084,
          "durationTicks": 2,
          "midi": 65,
          "name": "F4",
          "ticks": 12734,
          "time": 148.06976744186048,
          "velocity": 0.30708661417322836
        },
        {
          "duration": 0.15116279069766847,
          "durationTicks": 13,
          "midi": 65,
          "name": "F4",
          "ticks": 12737,
          "time": 148.1046511627907,
          "velocity": 0.4881889763779528
        },
        {
          "duration": 0.023255813953483084,
          "durationTicks": 2,
          "midi": 49,
          "name": "C#3",
          "ticks": 12739,
          "time": 148.12790697674419,
          "velocity": 0.2755905511811024
        },
        {
          "duration": 0.12790697674418539,
          "durationTicks": 11,
          "midi": 84,
          "name": "C6",
          "ticks": 12739,
          "time": 148.12790697674419,
          "velocity": 0.2755905511811024
        },
        {
          "duration": 0.12790697674418539,
          "durationTicks": 11,
          "midi": 89,
          "name": "F6",
          "ticks": 12739,
          "time": 148.12790697674419,
          "velocity": 0.30708661417322836
        },
        {
          "duration": 0.04651162790699459,
          "durationTicks": 4,
          "midi": 42,
          "name": "F#2",
          "ticks": 12742,
          "time": 148.1627906976744,
          "velocity": 0.2755905511811024
        },
        {
          "duration": 0.2325581395348877,
          "durationTicks": 20,
          "midi": 50,
          "name": "D3",
          "ticks": 12743,
          "time": 148.17441860465115,
          "velocity": 0.4409448818897638
        },
        {
          "duration": 0.11627906976744384,
          "durationTicks": 10,
          "midi": 57,
          "name": "A3",
          "ticks": 12743,
          "time": 148.17441860465115,
          "velocity": 0.4251968503937008
        },
        {
          "duration": 0.11627906976744384,
          "durationTicks": 10,
          "midi": 86,
          "name": "D6",
          "ticks": 12750,
          "time": 148.25581395348837,
          "velocity": 0.1889763779527559
        },
        {
          "duration": 0.09302325581396076,
          "durationTicks": 8,
          "midi": 67,
          "name": "G4",
          "ticks": 12751,
          "time": 148.2674418604651,
          "velocity": 0.3700787401574803
        },
        {
          "duration": 0.08139534883721922,
          "durationTicks": 7,
          "midi": 57,
          "name": "A3",
          "ticks": 12754,
          "time": 148.30232558139534,
          "velocity": 0.4094488188976378
        },
        {
          "duration": 0.034883720930224626,
          "durationTicks": 3,
          "midi": 66,
          "name": "F#4",
          "ticks": 12759,
          "time": 148.36046511627907,
          "velocity": 0.33070866141732286
        },
        {
          "duration": 0.04651162790699459,
          "durationTicks": 4,
          "midi": 76,
          "name": "E5",
          "ticks": 12762,
          "time": 148.3953488372093,
          "velocity": 0.2992125984251969
        },
        {
          "duration": 0.023255813953483084,
          "durationTicks": 2,
          "midi": 51,
          "name": "D#3",
          "ticks": 12763,
          "time": 148.40697674418604,
          "velocity": 0.4251968503937008
        },
        {
          "duration": 0.023255813953483084,
          "durationTicks": 2,
          "midi": 60,
          "name": "C4",
          "ticks": 12763,
          "time": 148.40697674418604,
          "velocity": 0.25984251968503935
        },
        {
          "duration": 0.03488372093025305,
          "durationTicks": 3,
          "midi": 66,
          "name": "F#4",
          "ticks": 12763,
          "time": 148.40697674418604,
          "velocity": 0.1732283464566929
        },
        {
          "duration": 0.023255813953511506,
          "durationTicks": 2,
          "midi": 55,
          "name": "G3",
          "ticks": 12764,
          "time": 148.41860465116278,
          "velocity": 0.4330708661417323
        },
        {
          "duration": 0.25581395348837077,
          "durationTicks": 22,
          "midi": 50,
          "name": "D3",
          "ticks": 12765,
          "time": 148.43023255813952,
          "velocity": 0.44881889763779526
        },
        {
          "duration": 0.3720930232558146,
          "durationTicks": 32,
          "midi": 81,
          "name": "A5",
          "ticks": 12765,
          "time": 148.43023255813952,
          "velocity": 0.23622047244094488
        },
        {
          "duration": 0.23255813953485927,
          "durationTicks": 20,
          "midi": 57,
          "name": "A3",
          "ticks": 12767,
          "time": 148.45348837209303,
          "velocity": 0.4330708661417323
        },
        {
          "duration": 0.23255813953485927,
          "durationTicks": 20,
          "midi": 65,
          "name": "F4",
          "ticks": 12767,
          "time": 148.45348837209303,
          "velocity": 0.25984251968503935
        },
        {
          "duration": 0.023255813953511506,
          "durationTicks": 2,
          "midi": 45,
          "name": "A2",
          "ticks": 12786,
          "time": 148.67441860465115,
          "velocity": 0.36220472440944884
        },
        {
          "duration": 0.13953488372095535,
          "durationTicks": 12,
          "midi": 74,
          "name": "D5",
          "ticks": 12786,
          "time": 148.67441860465115,
          "velocity": 0.36220472440944884
        },
        {
          "duration": 0.1511627906976969,
          "durationTicks": 13,
          "midi": 86,
          "name": "D6",
          "ticks": 12786,
          "time": 148.67441860465115,
          "velocity": 0.3700787401574803
        },
        {
          "duration": 0.1279069767442138,
          "durationTicks": 11,
          "midi": 88,
          "name": "E6",
          "ticks": 12787,
          "time": 148.6860465116279,
          "velocity": 0.16535433070866143
        },
        {
          "duration": 0.13953488372095535,
          "durationTicks": 12,
          "midi": 93,
          "name": "A6",
          "ticks": 12787,
          "time": 148.6860465116279,
          "velocity": 0.23622047244094488
        },
        {
          "duration": 0.24418604651162923,
          "durationTicks": 21,
          "midi": 62,
          "name": "D4",
          "ticks": 12788,
          "time": 148.69767441860466,
          "velocity": 0.2440944881889764
        },
        {
          "duration": 0.23255813953485927,
          "durationTicks": 20,
          "midi": 69,
          "name": "A4",
          "ticks": 12788,
          "time": 148.69767441860466,
          "velocity": 0.25196850393700787
        },
        {
          "duration": 0.20930232558137618,
          "durationTicks": 18,
          "midi": 50,
          "name": "D3",
          "ticks": 12789,
          "time": 148.7093023255814,
          "velocity": 0.3858267716535433
        },
        {
          "duration": 0.20930232558137618,
          "durationTicks": 18,
          "midi": 57,
          "name": "A3",
          "ticks": 12789,
          "time": 148.7093023255814,
          "velocity": 0.4330708661417323
        },
        {
          "duration": 0.22093023255811772,
          "durationTicks": 19,
          "midi": 65,
          "name": "F4",
          "ticks": 12789,
          "time": 148.7093023255814,
          "velocity": 0.2204724409448819
        },
        {
          "duration": 0.034883720930224626,
          "durationTicks": 3,
          "midi": 74,
          "name": "D5",
          "ticks": 12800,
          "time": 148.8372093023256,
          "velocity": 0.2440944881889764
        },
        {
          "duration": 0.27906976744185386,
          "durationTicks": 24,
          "midi": 81,
          "name": "A5",
          "ticks": 12801,
          "time": 148.84883720930233,
          "velocity": 0.30708661417322836
        },
        {
          "duration": 0.023255813953511506,
          "durationTicks": 2,
          "midi": 56,
          "name": "G#3",
          "ticks": 12807,
          "time": 148.91860465116278,
          "velocity": 0.31496062992125984
        },
        {
          "duration": 0.1511627906976969,
          "durationTicks": 13,
          "midi": 103,
          "name": "G7",
          "ticks": 12808,
          "time": 148.93023255813952,
          "velocity": 0.2283464566929134
        },
        {
          "duration": 0.20930232558137618,
          "durationTicks": 18,
          "midi": 69,
          "name": "A4",
          "ticks": 12809,
          "time": 148.9418604651163,
          "velocity": 0.4251968503937008
        },
        {
          "duration": 0.0813953488371908,
          "durationTicks": 7,
          "midi": 97,
          "name": "C#7",
          "ticks": 12809,
          "time": 148.9418604651163,
          "velocity": 0.11811023622047244
        },
        {
          "duration": 0.22093023255811772,
          "durationTicks": 19,
          "midi": 50,
          "name": "D3",
          "ticks": 12810,
          "time": 148.95348837209303,
          "velocity": 0.4251968503937008
        },
        {
          "duration": 0.09302325581393234,
          "durationTicks": 8,
          "midi": 57,
          "name": "A3",
          "ticks": 12810,
          "time": 148.95348837209303,
          "velocity": 0.4015748031496063
        },
        {
          "duration": 0.10465116279067388,
          "durationTicks": 9,
          "midi": 57,
          "name": "A3",
          "ticks": 12820,
          "time": 149.06976744186048,
          "velocity": 0.3700787401574803
        },
        {
          "duration": 0.13953488372095535,
          "durationTicks": 12,
          "midi": 62,
          "name": "D4",
          "ticks": 12829,
          "time": 149.17441860465115,
          "velocity": 0.30708661417322836
        },
        {
          "duration": 0.13953488372092693,
          "durationTicks": 12,
          "midi": 50,
          "name": "D3",
          "ticks": 12831,
          "time": 149.19767441860466,
          "velocity": 0.41732283464566927
        },
        {
          "duration": 0.11627906976744384,
          "durationTicks": 10,
          "midi": 57,
          "name": "A3",
          "ticks": 12831,
          "time": 149.19767441860466,
          "velocity": 0.44881889763779526
        },
        {
          "duration": 0.1046511627907023,
          "durationTicks": 9,
          "midi": 65,
          "name": "F4",
          "ticks": 12832,
          "time": 149.2093023255814,
          "velocity": 0.2047244094488189
        },
        {
          "duration": 0.04651162790699459,
          "durationTicks": 4,
          "midi": 92,
          "name": "G#6",
          "ticks": 12840,
          "time": 149.30232558139534,
          "velocity": 0.11023622047244094
        },
        {
          "duration": 0.034883720930224626,
          "durationTicks": 3,
          "midi": 56,
          "name": "G#3",
          "ticks": 12841,
          "time": 149.3139534883721,
          "velocity": 0.44881889763779526
        },
        {
          "duration": 0.04651162790696617,
          "durationTicks": 4,
          "midi": 80,
          "name": "G#5",
          "ticks": 12841,
          "time": 149.3139534883721,
          "velocity": 0.13385826771653545
        },
        {
          "duration": 0.13953488372092693,
          "durationTicks": 12,
          "midi": 87,
          "name": "D#6",
          "ticks": 12841,
          "time": 149.3139534883721,
          "velocity": 0.2283464566929134
        },
        {
          "duration": 0.11627906976744384,
          "durationTicks": 10,
          "midi": 65,
          "name": "F4",
          "ticks": 12842,
          "time": 149.32558139534885,
          "velocity": 0.31496062992125984
        },
        {
          "duration": 0.11627906976744384,
          "durationTicks": 10,
          "midi": 84,
          "name": "C6",
          "ticks": 12842,
          "time": 149.32558139534885,
          "velocity": 0.11811023622047244
        },
        {
          "duration": 0.06976744186044925,
          "durationTicks": 6,
          "midi": 102,
          "name": "F#7",
          "ticks": 12842,
          "time": 149.32558139534885,
          "velocity": 0.11023622047244094
        },
        {
          "duration": 0.023255813953483084,
          "durationTicks": 2,
          "midi": 49,
          "name": "C#3",
          "ticks": 12843,
          "time": 149.3372093023256,
          "velocity": 0.31496062992125984
        },
        {
          "duration": 0.13953488372092693,
          "durationTicks": 12,
          "midi": 74,
          "name": "D5",
          "ticks": 12843,
          "time": 149.3372093023256,
          "velocity": 0.23622047244094488
        },
        {
          "duration": 0.11627906976744384,
          "durationTicks": 10,
          "midi": 81,
          "name": "A5",
          "ticks": 12843,
          "time": 149.3372093023256,
          "velocity": 0.1889763779527559
        },
        {
          "duration": 0.11627906976744384,
          "durationTicks": 10,
          "midi": 57,
          "name": "A3",
          "ticks": 12844,
          "time": 149.34883720930233,
          "velocity": 0.4409448818897638
        },
        {
          "duration": 0.034883720930224626,
          "durationTicks": 3,
          "midi": 100,
          "name": "E7",
          "ticks": 12844,
          "time": 149.34883720930233,
          "velocity": 0.07086614173228346
        },
        {
          "duration": 0.09302325581396076,
          "durationTicks": 8,
          "midi": 50,
          "name": "D3",
          "ticks": 12845,
          "time": 149.36046511627907,
          "velocity": 0.3543307086614173
        },
        {
          "duration": 0.023255813953483084,
          "durationTicks": 2,
          "midi": 49,
          "name": "C#3",
          "ticks": 12853,
          "time": 149.45348837209303,
          "velocity": 0.3464566929133858
        },
        {
          "duration": 0.023255813953483084,
          "durationTicks": 2,
          "midi": 67,
          "name": "G4",
          "ticks": 12853,
          "time": 149.45348837209303,
          "velocity": 0.28346456692913385
        },
        {
          "duration": 0.06976744186044925,
          "durationTicks": 6,
          "midi": 42,
          "name": "F#2",
          "ticks": 12855,
          "time": 149.47674418604652,
          "velocity": 0.23622047244094488
        },
        {
          "duration": 0.023255813953483084,
          "durationTicks": 2,
          "midi": 56,
          "name": "G#3",
          "ticks": 12855,
          "time": 149.47674418604652,
          "velocity": 0.3779527559055118
        },
        {
          "duration": 0.08139534883721922,
          "durationTicks": 7,
          "midi": 57,
          "name": "A3",
          "ticks": 12857,
          "time": 149.5,
          "velocity": 0.23622047244094488
        },
        {
          "duration": 0.023255813953483084,
          "durationTicks": 2,
          "midi": 63,
          "name": "D#4",
          "ticks": 12863,
          "time": 149.56976744186048,
          "velocity": 0.2755905511811024
        },
        {
          "duration": 0.06976744186044925,
          "durationTicks": 6,
          "midi": 67,
          "name": "G4",
          "ticks": 12863,
          "time": 149.56976744186048,
          "velocity": 0.3858267716535433
        },
        {
          "duration": 0.16279069767441,
          "durationTicks": 14,
          "midi": 86,
          "name": "D6",
          "ticks": 12863,
          "time": 149.56976744186048,
          "velocity": 0.3858267716535433
        },
        {
          "duration": 0.034883720930224626,
          "durationTicks": 3,
          "midi": 70,
          "name": "A#4",
          "ticks": 12864,
          "time": 149.58139534883722,
          "velocity": 0.1889763779527559
        },
        {
          "duration": 0.13953488372092693,
          "durationTicks": 12,
          "midi": 91,
          "name": "G6",
          "ticks": 12864,
          "time": 149.58139534883722,
          "velocity": 0.23622047244094488
        },
        {
          "duration": 0.13953488372092693,
          "durationTicks": 12,
          "midi": 95,
          "name": "B6",
          "ticks": 12864,
          "time": 149.58139534883722,
          "velocity": 0.14173228346456693
        },
        {
          "duration": 0.13953488372092693,
          "durationTicks": 12,
          "midi": 57,
          "name": "A3",
          "ticks": 12865,
          "time": 149.59302325581396,
          "velocity": 0.47244094488188976
        },
        {
          "duration": 0.15116279069766847,
          "durationTicks": 13,
          "midi": 74,
          "name": "D5",
          "ticks": 12865,
          "time": 149.59302325581396,
          "velocity": 0.2283464566929134
        },
        {
          "duration": 0.034883720930224626,
          "durationTicks": 3,
          "midi": 78,
          "name": "F#5",
          "ticks": 12865,
          "time": 149.59302325581396,
          "velocity": 0.11023622047244094
        },
        {
          "duration": 0.1046511627907023,
          "durationTicks": 9,
          "midi": 62,
          "name": "D4",
          "ticks": 12866,
          "time": 149.6046511627907,
          "velocity": 0.1732283464566929
        },
        {
          "duration": 0.11627906976744384,
          "durationTicks": 10,
          "midi": 81,
          "name": "A5",
          "ticks": 12866,
          "time": 149.6046511627907,
          "velocity": 0.2047244094488189
        },
        {
          "duration": 0.1046511627907023,
          "durationTicks": 9,
          "midi": 84,
          "name": "C6",
          "ticks": 12866,
          "time": 149.6046511627907,
          "velocity": 0.07874015748031496
        },
        {
          "duration": 0.06976744186044925,
          "durationTicks": 6,
          "midi": 88,
          "name": "E6",
          "ticks": 12866,
          "time": 149.6046511627907,
          "velocity": 0.10236220472440945
        },
        {
          "duration": 0.1046511627907023,
          "durationTicks": 9,
          "midi": 50,
          "name": "D3",
          "ticks": 12868,
          "time": 149.62790697674419,
          "velocity": 0.33070866141732286
        },
        {
          "duration": 0.09302325581396076,
          "durationTicks": 8,
          "midi": 65,
          "name": "F4",
          "ticks": 12868,
          "time": 149.62790697674419,
          "velocity": 0.3464566929133858
        },
        {
          "duration": 0.034883720930224626,
          "durationTicks": 3,
          "midi": 76,
          "name": "E5",
          "ticks": 12868,
          "time": 149.62790697674419,
          "velocity": 0.07874015748031496
        },
        {
          "duration": 0.06976744186047767,
          "durationTicks": 6,
          "midi": 42,
          "name": "F#2",
          "ticks": 12879,
          "time": 149.75581395348837,
          "velocity": 0.2283464566929134
        },
        {
          "duration": 0.05813953488373613,
          "durationTicks": 5,
          "midi": 57,
          "name": "A3",
          "ticks": 12880,
          "time": 149.7674418604651,
          "velocity": 0.16535433070866143
        },
        {
          "duration": 0.023255813953483084,
          "durationTicks": 2,
          "midi": 59,
          "name": "B3",
          "ticks": 12885,
          "time": 149.82558139534885,
          "velocity": 0.25984251968503935
        },
        {
          "duration": 0.4534883720930054,
          "durationTicks": 39,
          "midi": 65,
          "name": "F4",
          "ticks": 12885,
          "time": 149.82558139534885,
          "velocity": 0.4645669291338583
        },
        {
          "duration": 0.034883720930224626,
          "durationTicks": 3,
          "midi": 83,
          "name": "B5",
          "ticks": 12885,
          "time": 149.82558139534885,
          "velocity": 0.16535433070866143
        },
        {
          "duration": 0.44186046511626387,
          "durationTicks": 38,
          "midi": 84,
          "name": "C6",
          "ticks": 12886,
          "time": 149.8372093023256,
          "velocity": 0.3700787401574803
        },
        {
          "duration": 0.11627906976744384,
          "durationTicks": 10,
          "midi": 93,
          "name": "A6",
          "ticks": 12886,
          "time": 149.8372093023256,
          "velocity": 0.15748031496062992
        },
        {
          "duration": 0.16279069767441,
          "durationTicks": 14,
          "midi": 101,
          "name": "F7",
          "ticks": 12886,
          "time": 149.8372093023256,
          "velocity": 0.11023622047244094
        },
        {
          "duration": 0.023255813953483084,
          "durationTicks": 2,
          "midi": 46,
          "name": "A#2",
          "ticks": 12887,
          "time": 149.84883720930233,
          "velocity": 0.2755905511811024
        },
        {
          "duration": 0.12790697674418539,
          "durationTicks": 11,
          "midi": 57,
          "name": "A3",
          "ticks": 12887,
          "time": 149.84883720930233,
          "velocity": 0.4645669291338583
        },
        {
          "duration": 0.32558139534882,
          "durationTicks": 28,
          "midi": 74,
          "name": "D5",
          "ticks": 12887,
          "time": 149.84883720930233,
          "velocity": 0.23622047244094488
        },
        {
          "duration": 0.40697674418603924,
          "durationTicks": 35,
          "midi": 89,
          "name": "F6",
          "ticks": 12887,
          "time": 149.84883720930233,
          "velocity": 0.2677165354330709
        },
        {
          "duration": 0.1046511627907023,
          "durationTicks": 9,
          "midi": 50,
          "name": "D3",
          "ticks": 12889,
          "time": 149.87209302325581,
          "velocity": 0.4094488188976378
        },
        {
          "duration": 0.023255813953483084,
          "durationTicks": 2,
          "midi": 55,
          "name": "G3",
          "ticks": 12898,
          "time": 149.97674418604652,
          "velocity": 0.3779527559055118
        },
        {
          "duration": 0.034883720930224626,
          "durationTicks": 3,
          "midi": 71,
          "name": "B4",
          "ticks": 12898,
          "time": 149.97674418604652,
          "velocity": 0.14173228346456693
        },
        {
          "duration": 0.17441860465115155,
          "durationTicks": 15,
          "midi": 50,
          "name": "D3",
          "ticks": 12899,
          "time": 149.98837209302326,
          "velocity": 0.44881889763779526
        },
        {
          "duration": 0.13953488372092693,
          "durationTicks": 12,
          "midi": 57,
          "name": "A3",
          "ticks": 12901,
          "time": 150.01162790697674,
          "velocity": 0.3464566929133858
        },
        {
          "duration": 0.09302325581396076,
          "durationTicks": 8,
          "midi": 88,
          "name": "E6",
          "ticks": 12901,
          "time": 150.01162790697674,
          "velocity": 0.08661417322834646
        },
        {
          "duration": 0.08139534883721922,
          "durationTicks": 7,
          "midi": 93,
          "name": "A6",
          "ticks": 12902,
          "time": 150.02325581395348,
          "velocity": 0.11023622047244094
        },
        {
          "duration": 0.04651162790699459,
          "durationTicks": 4,
          "midi": 56,
          "name": "G#3",
          "ticks": 12913,
          "time": 150.15116279069767,
          "velocity": 0.4015748031496063
        },
        {
          "duration": 0.03488372093025305,
          "durationTicks": 3,
          "midi": 49,
          "name": "C#3",
          "ticks": 12914,
          "time": 150.1627906976744,
          "velocity": 0.36220472440944884
        },
        {
          "duration": 0.034883720930224626,
          "durationTicks": 3,
          "midi": 48,
          "name": "C3",
          "ticks": 12917,
          "time": 150.19767441860466,
          "velocity": 0.36220472440944884
        },
        {
          "duration": 0.023255813953483084,
          "durationTicks": 2,
          "midi": 55,
          "name": "G3",
          "ticks": 12917,
          "time": 150.19767441860466,
          "velocity": 0.41732283464566927
        },
        {
          "duration": 0.04651162790696617,
          "durationTicks": 4,
          "midi": 54,
          "name": "F#3",
          "ticks": 12919,
          "time": 150.22093023255815,
          "velocity": 0.3937007874015748
        },
        {
          "duration": 0.023255813953483084,
          "durationTicks": 2,
          "midi": 47,
          "name": "B2",
          "ticks": 12920,
          "time": 150.2325581395349,
          "velocity": 0.3464566929133858
        },
        {
          "duration": 0.034883720930224626,
          "durationTicks": 3,
          "midi": 60,
          "name": "C4",
          "ticks": 12920,
          "time": 150.2325581395349,
          "velocity": 0.25984251968503935
        },
        {
          "duration": 0.023255813953483084,
          "durationTicks": 2,
          "midi": 46,
          "name": "A#2",
          "ticks": 12922,
          "time": 150.25581395348837,
          "velocity": 0.33858267716535434
        },
        {
          "duration": 0.023255813953483084,
          "durationTicks": 2,
          "midi": 45,
          "name": "A2",
          "ticks": 12924,
          "time": 150.27906976744185,
          "velocity": 0.33070866141732286
        },
        {
          "duration": 0.03488372093025305,
          "durationTicks": 3,
          "midi": 70,
          "name": "A#4",
          "ticks": 12924,
          "time": 150.27906976744185,
          "velocity": 0.15748031496062992
        },
        {
          "duration": 0.023255813953511506,
          "durationTicks": 2,
          "midi": 44,
          "name": "G#2",
          "ticks": 12926,
          "time": 150.30232558139534,
          "velocity": 0.36220472440944884
        },
        {
          "duration": 0.023255813953511506,
          "durationTicks": 2,
          "midi": 62,
          "name": "D4",
          "ticks": 12926,
          "time": 150.30232558139534,
          "velocity": 0.3858267716535433
        },
        {
          "duration": 0.023255813953483084,
          "durationTicks": 2,
          "midi": 43,
          "name": "G2",
          "ticks": 12928,
          "time": 150.32558139534885,
          "velocity": 0.3543307086614173
        },
        {
          "duration": 0.023255813953483084,
          "durationTicks": 2,
          "midi": 60,
          "name": "C4",
          "ticks": 12929,
          "time": 150.3372093023256,
          "velocity": 0.3779527559055118
        },
        {
          "duration": 0.04651162790696617,
          "durationTicks": 4,
          "midi": 42,
          "name": "F#2",
          "ticks": 12930,
          "time": 150.34883720930233,
          "velocity": 0.36220472440944884
        },
        {
          "duration": 0.023255813953483084,
          "durationTicks": 2,
          "midi": 59,
          "name": "B3",
          "ticks": 12931,
          "time": 150.36046511627907,
          "velocity": 0.31496062992125984
        },
        {
          "duration": 0.05813953488373613,
          "durationTicks": 5,
          "midi": 70,
          "name": "A#4",
          "ticks": 12933,
          "time": 150.38372093023256,
          "velocity": 0.15748031496062992
        },
        {
          "duration": 0.09302325581396076,
          "durationTicks": 8,
          "midi": 74,
          "name": "D5",
          "ticks": 12936,
          "time": 150.41860465116278,
          "velocity": 0.07874015748031496
        },
        {
          "duration": 0.06976744186047767,
          "durationTicks": 6,
          "midi": 58,
          "name": "A#3",
          "ticks": 12937,
          "time": 150.43023255813952,
          "velocity": 0.2992125984251969
        },
        {
          "duration": 0.023255813953483084,
          "durationTicks": 2,
          "midi": 53,
          "name": "F3",
          "ticks": 12940,
          "time": 150.46511627906978,
          "velocity": 0.3700787401574803
        },
        {
          "duration": 0.05813953488370771,
          "durationTicks": 5,
          "midi": 46,
          "name": "A#2",
          "ticks": 12942,
          "time": 150.48837209302326,
          "velocity": 0.4330708661417323
        },
        {
          "duration": 0.034883720930224626,
          "durationTicks": 3,
          "midi": 53,
          "name": "F3",
          "ticks": 12945,
          "time": 150.52325581395348,
          "velocity": 0.33858267716535434
        },
        {
          "duration": 0.023255813953483084,
          "durationTicks": 2,
          "midi": 60,
          "name": "C4",
          "ticks": 12945,
          "time": 150.52325581395348,
          "velocity": 0.3700787401574803
        },
        {
          "duration": 0.04651162790699459,
          "durationTicks": 4,
          "midi": 67,
          "name": "G4",
          "ticks": 12945,
          "time": 150.52325581395348,
          "velocity": 0.15748031496062992
        },
        {
          "duration": 0.3953488372092977,
          "durationTicks": 34,
          "midi": 76,
          "name": "E5",
          "ticks": 12945,
          "time": 150.52325581395348,
          "velocity": 0.10236220472440945
        },
        {
          "duration": 0.023255813953511506,
          "durationTicks": 2,
          "midi": 47,
          "name": "B2",
          "ticks": 12947,
          "time": 150.54651162790697,
          "velocity": 0.44881889763779526
        },
        {
          "duration": 0.023255813953511506,
          "durationTicks": 2,
          "midi": 57,
          "name": "A3",
          "ticks": 12948,
          "time": 150.5581395348837,
          "velocity": 0.33858267716535434
        },
        {
          "duration": 0.023255813953483084,
          "durationTicks": 2,
          "midi": 48,
          "name": "C3",
          "ticks": 12949,
          "time": 150.56976744186048,
          "velocity": 0.3228346456692913
        },
        {
          "duration": 0.034883720930224626,
          "durationTicks": 3,
          "midi": 61,
          "name": "C#4",
          "ticks": 12949,
          "time": 150.56976744186048,
          "velocity": 0.4015748031496063
        },
        {
          "duration": 0.5581395348837077,
          "durationTicks": 48,
          "midi": 74,
          "name": "D5",
          "ticks": 12949,
          "time": 150.56976744186048,
          "velocity": 0.23622047244094488
        },
        {
          "duration": 0.034883720930224626,
          "durationTicks": 3,
          "midi": 57,
          "name": "A3",
          "ticks": 12953,
          "time": 150.61627906976744,
          "velocity": 0.33070866141732286
        },
        {
          "duration": 1.6511627906976685,
          "durationTicks": 142,
          "midi": 62,
          "name": "D4",
          "ticks": 12954,
          "time": 150.62790697674419,
          "velocity": 0.4094488188976378
        },
        {
          "duration": 0.023255813953483084,
          "durationTicks": 2,
          "midi": 46,
          "name": "A#2",
          "ticks": 12956,
          "time": 150.65116279069767,
          "velocity": 0.30708661417322836
        },
        {
          "duration": 0.034883720930224626,
          "durationTicks": 3,
          "midi": 58,
          "name": "A#3",
          "ticks": 12960,
          "time": 150.69767441860466,
          "velocity": 0.29133858267716534
        },
        {
          "duration": 0.023255813953483084,
          "durationTicks": 2,
          "midi": 57,
          "name": "A3",
          "ticks": 12965,
          "time": 150.75581395348837,
          "velocity": 0.2440944881889764
        },
        {
          "duration": 0.03488372093025305,
          "durationTicks": 3,
          "midi": 58,
          "name": "A#3",
          "ticks": 12967,
          "time": 150.77906976744185,
          "velocity": 0.25984251968503935
        },
        {
          "duration": 0.023255813953483084,
          "durationTicks": 2,
          "midi": 57,
          "name": "A3",
          "ticks": 12972,
          "time": 150.8372093023256,
          "velocity": 0.23622047244094488
        },
        {
          "duration": 0.023255813953483084,
          "durationTicks": 2,
          "midi": 58,
          "name": "A#3",
          "ticks": 12974,
          "time": 150.86046511627907,
          "velocity": 0.2440944881889764
        },
        {
          "duration": 0.19767441860466306,
          "durationTicks": 17,
          "midi": 81,
          "name": "A5",
          "ticks": 12978,
          "time": 150.90697674418604,
          "velocity": 0.23622047244094488
        },
        {
          "duration": 0.023255813953511506,
          "durationTicks": 2,
          "midi": 57,
          "name": "A3",
          "ticks": 12979,
          "time": 150.91860465116278,
          "velocity": 0.29133858267716534
        },
        {
          "duration": 0.18604651162792152,
          "durationTicks": 16,
          "midi": 102,
          "name": "F#7",
          "ticks": 12979,
          "time": 150.91860465116278,
          "velocity": 0.14960629921259844
        },
        {
          "duration": 0.04651162790699459,
          "durationTicks": 4,
          "midi": 46,
          "name": "A#2",
          "ticks": 12980,
          "time": 150.93023255813952,
          "velocity": 0.36220472440944884
        },
        {
          "duration": 0.2906976744186238,
          "durationTicks": 25,
          "midi": 46,
          "name": "A#2",
          "ticks": 12988,
          "time": 151.02325581395348,
          "velocity": 0.31496062992125984
        },
        {
          "duration": 0.1046511627907023,
          "durationTicks": 9,
          "midi": 53,
          "name": "F3",
          "ticks": 12988,
          "time": 151.02325581395348,
          "velocity": 0.14173228346456693
        },
        {
          "duration": 0.1511627906976969,
          "durationTicks": 13,
          "midi": 53,
          "name": "F3",
          "ticks": 13000,
          "time": 151.1627906976744,
          "velocity": 0.2992125984251969
        },
        {
          "duration": 0.04651162790696617,
          "durationTicks": 4,
          "midi": 67,
          "name": "G4",
          "ticks": 13013,
          "time": 151.3139534883721,
          "velocity": 0.25196850393700787
        },
        {
          "duration": 0.034883720930224626,
          "durationTicks": 3,
          "midi": 55,
          "name": "G3",
          "ticks": 13014,
          "time": 151.32558139534885,
          "velocity": 0.5118110236220472
        },
        {
          "duration": 0.7906976744185954,
          "durationTicks": 68,
          "midi": 46,
          "name": "A#2",
          "ticks": 13016,
          "time": 151.34883720930233,
          "velocity": 0.30708661417322836
        },
        {
          "duration": 0.12790697674418539,
          "durationTicks": 11,
          "midi": 65,
          "name": "F4",
          "ticks": 13016,
          "time": 151.34883720930233,
          "velocity": 0.08661417322834646
        },
        {
          "duration": 0.034883720930224626,
          "durationTicks": 3,
          "midi": 56,
          "name": "G#3",
          "ticks": 13017,
          "time": 151.36046511627907,
          "velocity": 0.44881889763779526
        },
        {
          "duration": 0.2906976744185954,
          "durationTicks": 25,
          "midi": 57,
          "name": "A3",
          "ticks": 13020,
          "time": 151.3953488372093,
          "velocity": 0.4330708661417323
        },
        {
          "duration": 0.2906976744186238,
          "durationTicks": 25,
          "midi": 76,
          "name": "E5",
          "ticks": 13021,
          "time": 151.40697674418604,
          "velocity": 0.14960629921259844
        },
        {
          "duration": 0.05813953488370771,
          "durationTicks": 5,
          "midi": 65,
          "name": "F4",
          "ticks": 13047,
          "time": 151.7093023255814,
          "velocity": 0.08661417322834646
        },
        {
          "duration": 0.023255813953483084,
          "durationTicks": 2,
          "midi": 55,
          "name": "G3",
          "ticks": 13048,
          "time": 151.72093023255815,
          "velocity": 0.44881889763779526
        },
        {
          "duration": 0.19767441860463464,
          "durationTicks": 17,
          "midi": 68,
          "name": "G#4",
          "ticks": 13048,
          "time": 151.72093023255815,
          "velocity": 0.2204724409448819
        },
        {
          "duration": 0.16279069767441,
          "durationTicks": 14,
          "midi": 75,
          "name": "D#5",
          "ticks": 13048,
          "time": 151.72093023255815,
          "velocity": 0.13385826771653545
        },
        {
          "duration": 0.16279069767441,
          "durationTicks": 14,
          "midi": 84,
          "name": "C6",
          "ticks": 13049,
          "time": 151.7325581395349,
          "velocity": 0.08661417322834646
        },
        {
          "duration": 0.2906976744185954,
          "durationTicks": 25,
          "midi": 56,
          "name": "G#3",
          "ticks": 13050,
          "time": 151.74418604651163,
          "velocity": 0.47244094488188976
        },
        {
          "duration": 0.27906976744185386,
          "durationTicks": 24,
          "midi": 55,
          "name": "G3",
          "ticks": 13080,
          "time": 152.09302325581396,
          "velocity": 0.5039370078740157
        },
        {
          "duration": 0.034883720930224626,
          "durationTicks": 3,
          "midi": 89,
          "name": "F6",
          "ticks": 13080,
          "time": 152.09302325581396,
          "velocity": 0.08661417322834646
        },
        {
          "duration": 0.06976744186044925,
          "durationTicks": 6,
          "midi": 97,
          "name": "C#7",
          "ticks": 13080,
          "time": 152.09302325581396,
          "velocity": 0.10236220472440945
        },
        {
          "duration": 0.11627906976744384,
          "durationTicks": 10,
          "midi": 102,
          "name": "F#7",
          "ticks": 13080,
          "time": 152.09302325581396,
          "velocity": 0.11023622047244094
        },
        {
          "duration": 0.1046511627907023,
          "durationTicks": 9,
          "midi": 46,
          "name": "A#2",
          "ticks": 13085,
          "time": 152.15116279069767,
          "velocity": 0.23622047244094488
        },
        {
          "duration": 0.1046511627907023,
          "durationTicks": 9,
          "midi": 45,
          "name": "A2",
          "ticks": 13094,
          "time": 152.25581395348837,
          "velocity": 0.2047244094488189
        },
        {
          "duration": 0.1860465116278931,
          "durationTicks": 16,
          "midi": 65,
          "name": "F4",
          "ticks": 13104,
          "time": 152.37209302325581,
          "velocity": 0.29133858267716534
        },
        {
          "duration": 0.08139534883721922,
          "durationTicks": 7,
          "midi": 53,
          "name": "F3",
          "ticks": 13105,
          "time": 152.38372093023256,
          "velocity": 0.33858267716535434
        },
        {
          "duration": 0.05813953488370771,
          "durationTicks": 5,
          "midi": 60,
          "name": "C4",
          "ticks": 13112,
          "time": 152.46511627906978,
          "velocity": 0.1889763779527559
        },
        {
          "duration": 0.17441860465115155,
          "durationTicks": 15,
          "midi": 48,
          "name": "C3",
          "ticks": 13113,
          "time": 152.47674418604652,
          "velocity": 0.3937007874015748
        },
        {
          "duration": 0.13953488372092693,
          "durationTicks": 12,
          "midi": 55,
          "name": "G3",
          "ticks": 13119,
          "time": 152.54651162790697,
          "velocity": 0.4645669291338583
        },
        {
          "duration": 0.04651162790699459,
          "durationTicks": 4,
          "midi": 64,
          "name": "E4",
          "ticks": 13120,
          "time": 152.5581395348837,
          "velocity": 0.2283464566929134
        },
        {
          "duration": 0.6162790697674154,
          "durationTicks": 53,
          "midi": 71,
          "name": "B4",
          "ticks": 13121,
          "time": 152.56976744186048,
          "velocity": 0.30708661417322836
        },
        {
          "duration": 0.034883720930224626,
          "durationTicks": 3,
          "midi": 59,
          "name": "B3",
          "ticks": 13126,
          "time": 152.62790697674419,
          "velocity": 0.29133858267716534
        },
        {
          "duration": 1.7325581395348877,
          "durationTicks": 149,
          "midi": 64,
          "name": "E4",
          "ticks": 13126,
          "time": 152.62790697674419,
          "velocity": 0.3779527559055118
        },
        {
          "duration": 0.5,
          "durationTicks": 43,
          "midi": 86,
          "name": "D6",
          "ticks": 13128,
          "time": 152.65116279069767,
          "velocity": 0.13385826771653545
        },
        {
          "duration": 0.03488372093025305,
          "durationTicks": 3,
          "midi": 96,
          "name": "C7",
          "ticks": 13129,
          "time": 152.6627906976744,
          "velocity": 0.07086614173228346
        },
        {
          "duration": 0.06976744186047767,
          "durationTicks": 6,
          "midi": 102,
          "name": "F#7",
          "ticks": 13129,
          "time": 152.6627906976744,
          "velocity": 0.09448818897637795
        },
        {
          "duration": 0.04651162790699459,
          "durationTicks": 4,
          "midi": 59,
          "name": "B3",
          "ticks": 13131,
          "time": 152.6860465116279,
          "velocity": 0.23622047244094488
        },
        {
          "duration": 0.04651162790696617,
          "durationTicks": 4,
          "midi": 59,
          "name": "B3",
          "ticks": 13136,
          "time": 152.74418604651163,
          "velocity": 0.2125984251968504
        },
        {
          "duration": 0.023255813953483084,
          "durationTicks": 2,
          "midi": 48,
          "name": "C3",
          "ticks": 13142,
          "time": 152.8139534883721,
          "velocity": 0.30708661417322836
        },
        {
          "duration": 0.034883720930224626,
          "durationTicks": 3,
          "midi": 59,
          "name": "B3",
          "ticks": 13142,
          "time": 152.8139534883721,
          "velocity": 0.1889763779527559
        },
        {
          "duration": 0.023255813953483084,
          "durationTicks": 2,
          "midi": 53,
          "name": "F3",
          "ticks": 13145,
          "time": 152.84883720930233,
          "velocity": 0.33858267716535434
        },
        {
          "duration": 0.023255813953483084,
          "durationTicks": 2,
          "midi": 48,
          "name": "C3",
          "ticks": 13147,
          "time": 152.87209302325581,
          "velocity": 0.30708661417322836
        },
        {
          "duration": 0.04651162790696617,
          "durationTicks": 4,
          "midi": 59,
          "name": "B3",
          "ticks": 13148,
          "time": 152.88372093023256,
          "velocity": 0.14173228346456693
        },
        {
          "duration": 0.023255813953511506,
          "durationTicks": 2,
          "midi": 48,
          "name": "C3",
          "ticks": 13152,
          "time": 152.93023255813952,
          "velocity": 0.31496062992125984
        },
        {
          "duration": 0.034883720930224626,
          "durationTicks": 3,
          "midi": 59,
          "name": "B3",
          "ticks": 13154,
          "time": 152.95348837209303,
          "velocity": 0.11023622047244094
        },
        {
          "duration": 0.023255813953483084,
          "durationTicks": 2,
          "midi": 48,
          "name": "C3",
          "ticks": 13157,
          "time": 152.98837209302326,
          "velocity": 0.30708661417322836
        },
        {
          "duration": 1.2209302325581461,
          "durationTicks": 105,
          "midi": 48,
          "name": "C3",
          "ticks": 13160,
          "time": 153.02325581395348,
          "velocity": 0.3228346456692913
        },
        {
          "duration": 0.034883720930224626,
          "durationTicks": 3,
          "midi": 59,
          "name": "B3",
          "ticks": 13160,
          "time": 153.02325581395348,
          "velocity": 0.08661417322834646
        },
        {
          "duration": 0.04651162790696617,
          "durationTicks": 4,
          "midi": 71,
          "name": "B4",
          "ticks": 13176,
          "time": 153.2093023255814,
          "velocity": 0.07874015748031496
        },
        {
          "duration": 0.2906976744185954,
          "durationTicks": 25,
          "midi": 71,
          "name": "B4",
          "ticks": 13190,
          "time": 153.37209302325581,
          "velocity": 0.2440944881889764
        },
        {
          "duration": 0.04651162790699459,
          "durationTicks": 4,
          "midi": 71,
          "name": "B4",
          "ticks": 13224,
          "time": 153.7674418604651,
          "velocity": 0.07874015748031496
        },
        {
          "duration": 0.2906976744186238,
          "durationTicks": 25,
          "midi": 71,
          "name": "B4",
          "ticks": 13249,
          "time": 154.0581395348837,
          "velocity": 0.13385826771653545
        },
        {
          "duration": 0.15116279069766847,
          "durationTicks": 13,
          "midi": 50,
          "name": "D3",
          "ticks": 13289,
          "time": 154.52325581395348,
          "velocity": 0.3779527559055118
        },
        {
          "duration": 0.6511627906976685,
          "durationTicks": 56,
          "midi": 74,
          "name": "D5",
          "ticks": 13293,
          "time": 154.56976744186048,
          "velocity": 0.31496062992125984
        },
        {
          "duration": 0.1046511627907023,
          "durationTicks": 9,
          "midi": 65,
          "name": "F4",
          "ticks": 13298,
          "time": 154.62790697674419,
          "velocity": 0.11023622047244094
        },
        {
          "duration": 0.023255813953511506,
          "durationTicks": 2,
          "midi": 49,
          "name": "C#3",
          "ticks": 13302,
          "time": 154.67441860465115,
          "velocity": 0.4015748031496063
        },
        {
          "duration": 0.034883720930224626,
          "durationTicks": 3,
          "midi": 71,
          "name": "B4",
          "ticks": 13304,
          "time": 154.69767441860466,
          "velocity": 0.3228346456692913
        },
        {
          "duration": 0.023255813953483084,
          "durationTicks": 2,
          "midi": 49,
          "name": "C#3",
          "ticks": 13305,
          "time": 154.7093023255814,
          "velocity": 0.33858267716535434
        },
        {
          "duration": 1.3139534883720785,
          "durationTicks": 113,
          "midi": 84,
          "name": "C6",
          "ticks": 13305,
          "time": 154.7093023255814,
          "velocity": 0.31496062992125984
        },
        {
          "duration": 1.2674418604651123,
          "durationTicks": 109,
          "midi": 72,
          "name": "C5",
          "ticks": 13306,
          "time": 154.72093023255815,
          "velocity": 0.33070866141732286
        },
        {
          "duration": 0.33720930232559,
          "durationTicks": 29,
          "midi": 50,
          "name": "D3",
          "ticks": 13307,
          "time": 154.7325581395349,
          "velocity": 0.30708661417322836
        },
        {
          "duration": 0.3139534883720785,
          "durationTicks": 27,
          "midi": 62,
          "name": "D4",
          "ticks": 13307,
          "time": 154.7325581395349,
          "velocity": 0.3464566929133858
        },
        {
          "duration": 0.023255813953511506,
          "durationTicks": 2,
          "midi": 61,
          "name": "C#4",
          "ticks": 13334,
          "time": 155.04651162790697,
          "velocity": 0.33858267716535434
        },
        {
          "duration": 0.16279069767443843,
          "durationTicks": 14,
          "midi": 81,
          "name": "A5",
          "ticks": 13334,
          "time": 155.04651162790697,
          "velocity": 0.14960629921259844
        },
        {
          "duration": 0.1511627906976969,
          "durationTicks": 13,
          "midi": 90,
          "name": "F#6",
          "ticks": 13335,
          "time": 155.0581395348837,
          "velocity": 0.09448818897637795
        },
        {
          "duration": 0.12790697674418539,
          "durationTicks": 11,
          "midi": 102,
          "name": "F#7",
          "ticks": 13335,
          "time": 155.0581395348837,
          "velocity": 0.12598425196850394
        },
        {
          "duration": 0.15116279069766847,
          "durationTicks": 13,
          "midi": 62,
          "name": "D4",
          "ticks": 13336,
          "time": 155.06976744186048,
          "velocity": 0.3228346456692913
        },
        {
          "duration": 0.3604651162790731,
          "durationTicks": 31,
          "midi": 50,
          "name": "D3",
          "ticks": 13337,
          "time": 155.08139534883722,
          "velocity": 0.25196850393700787
        },
        {
          "duration": 1.2674418604651123,
          "durationTicks": 109,
          "midi": 62,
          "name": "D4",
          "ticks": 13350,
          "time": 155.2325581395349,
          "velocity": 0.28346456692913385
        },
        {
          "duration": 0.04651162790696617,
          "durationTicks": 4,
          "midi": 67,
          "name": "G4",
          "ticks": 13368,
          "time": 155.4418604651163,
          "velocity": 0.16535433070866143
        },
        {
          "duration": 0.034883720930224626,
          "durationTicks": 3,
          "midi": 55,
          "name": "G3",
          "ticks": 13369,
          "time": 155.45348837209303,
          "velocity": 0.48031496062992124
        },
        {
          "duration": 0.34883720930233153,
          "durationTicks": 30,
          "midi": 50,
          "name": "D3",
          "ticks": 13372,
          "time": 155.48837209302326,
          "velocity": 0.23622047244094488
        },
        {
          "duration": 0.034883720930224626,
          "durationTicks": 3,
          "midi": 56,
          "name": "G#3",
          "ticks": 13372,
          "time": 155.48837209302326,
          "velocity": 0.4251968503937008
        },
        {
          "duration": 0.2674418604651123,
          "durationTicks": 23,
          "midi": 57,
          "name": "A3",
          "ticks": 13375,
          "time": 155.52325581395348,
          "velocity": 0.3858267716535433
        },
        {
          "duration": 0.03488372093025305,
          "durationTicks": 3,
          "midi": 56,
          "name": "G#3",
          "ticks": 13398,
          "time": 155.7906976744186,
          "velocity": 0.18110236220472442
        },
        {
          "duration": 0.034883720930224626,
          "durationTicks": 3,
          "midi": 65,
          "name": "F4",
          "ticks": 13402,
          "time": 155.8372093023256,
          "velocity": 0.09448818897637795
        },
        {
          "duration": 0.15116279069766847,
          "durationTicks": 13,
          "midi": 75,
          "name": "D#5",
          "ticks": 13402,
          "time": 155.8372093023256,
          "velocity": 0.11811023622047244
        },
        {
          "duration": 0.17441860465115155,
          "durationTicks": 15,
          "midi": 68,
          "name": "G#4",
          "ticks": 13403,
          "time": 155.84883720930233,
          "velocity": 0.2204724409448819
        },
        {
          "duration": 0.25581395348837077,
          "durationTicks": 22,
          "midi": 56,
          "name": "G#3",
          "ticks": 13404,
          "time": 155.86046511627907,
          "velocity": 0.44881889763779526
        },
        {
          "duration": 0.1046511627907023,
          "durationTicks": 9,
          "midi": 50,
          "name": "D3",
          "ticks": 13407,
          "time": 155.8953488372093,
          "velocity": 0.16535433070866143
        },
        {
          "duration": 0.19767441860466306,
          "durationTicks": 17,
          "midi": 50,
          "name": "D3",
          "ticks": 13417,
          "time": 156.01162790697674,
          "velocity": 0.13385826771653545
        },
        {
          "duration": 0.30232558139533694,
          "durationTicks": 26,
          "midi": 67,
          "name": "G4",
          "ticks": 13434,
          "time": 156.2093023255814,
          "velocity": 0.2047244094488189
        },
        {
          "duration": 0.2906976744185954,
          "durationTicks": 25,
          "midi": 55,
          "name": "G3",
          "ticks": 13435,
          "time": 156.22093023255815,
          "velocity": 0.48031496062992124
        },
        {
          "duration": 0.1860465116278931,
          "durationTicks": 16,
          "midi": 83,
          "name": "B5",
          "ticks": 13443,
          "time": 156.3139534883721,
          "velocity": 0.07086614173228346
        },
        {
          "duration": 0.2325581395348877,
          "durationTicks": 20,
          "midi": 65,
          "name": "F4",
          "ticks": 13460,
          "time": 156.51162790697674,
          "velocity": 0.2047244094488189
        },
        {
          "duration": 0.08139534883721922,
          "durationTicks": 7,
          "midi": 53,
          "name": "F3",
          "ticks": 13461,
          "time": 156.52325581395348,
          "velocity": 0.2755905511811024
        },
        {
          "duration": 0.023255813953483084,
          "durationTicks": 2,
          "midi": 53,
          "name": "F3",
          "ticks": 13469,
          "time": 156.61627906976744,
          "velocity": 0.2283464566929134
        },
        {
          "duration": 0.023255813953483084,
          "durationTicks": 2,
          "midi": 56,
          "name": "G#3",
          "ticks": 13471,
          "time": 156.63953488372093,
          "velocity": 0.2992125984251969
        },
        {
          "duration": 0.023255813953483084,
          "durationTicks": 2,
          "midi": 42,
          "name": "F#2",
          "ticks": 13472,
          "time": 156.65116279069767,
          "velocity": 0.3937007874015748
        },
        {
          "duration": 0.08139534883721922,
          "durationTicks": 7,
          "midi": 55,
          "name": "G3",
          "ticks": 13473,
          "time": 156.6627906976744,
          "velocity": 0.4015748031496063
        },
        {
          "duration": 0.04651162790699459,
          "durationTicks": 4,
          "midi": 43,
          "name": "G2",
          "ticks": 13474,
          "time": 156.67441860465115,
          "velocity": 0.4409448818897638
        },
        {
          "duration": 0.023255813953483084,
          "durationTicks": 2,
          "midi": 50,
          "name": "D3",
          "ticks": 13478,
          "time": 156.72093023255815,
          "velocity": 0.3937007874015748
        },
        {
          "duration": 0.08139534883721922,
          "durationTicks": 7,
          "midi": 43,
          "name": "G2",
          "ticks": 13479,
          "time": 156.7325581395349,
          "velocity": 0.4094488188976378
        },
        {
          "duration": 0.023255813953483084,
          "durationTicks": 2,
          "midi": 50,
          "name": "D3",
          "ticks": 13481,
          "time": 156.75581395348837,
          "velocity": 0.4094488188976378
        },
        {
          "duration": 0.023255813953511506,
          "durationTicks": 2,
          "midi": 63,
          "name": "D#4",
          "ticks": 13484,
          "time": 156.7906976744186,
          "velocity": 0.2992125984251969
        },
        {
          "duration": 0.19767441860466306,
          "durationTicks": 17,
          "midi": 50,
          "name": "D3",
          "ticks": 13485,
          "time": 156.80232558139534,
          "velocity": 0.44881889763779526
        },
        {
          "duration": 0.03488372093025305,
          "durationTicks": 3,
          "midi": 78,
          "name": "F#5",
          "ticks": 13485,
          "time": 156.80232558139534,
          "velocity": 0.12598425196850394
        },
        {
          "duration": 0.023255813953483084,
          "durationTicks": 2,
          "midi": 58,
          "name": "A#3",
          "ticks": 13487,
          "time": 156.82558139534885,
          "velocity": 0.2677165354330709
        },
        {
          "duration": 0.4651162790697754,
          "durationTicks": 40,
          "midi": 71,
          "name": "B4",
          "ticks": 13489,
          "time": 156.84883720930233,
          "velocity": 0.12598425196850394
        },
        {
          "duration": 0.034883720930224626,
          "durationTicks": 3,
          "midi": 102,
          "name": "F#7",
          "ticks": 13489,
          "time": 156.84883720930233,
          "velocity": 0.10236220472440945
        },
        {
          "duration": 0.04651162790696617,
          "durationTicks": 4,
          "midi": 43,
          "name": "G2",
          "ticks": 13491,
          "time": 156.87209302325581,
          "velocity": 0.33070866141732286
        },
        {
          "duration": 0.05813953488370771,
          "durationTicks": 5,
          "midi": 78,
          "name": "F#5",
          "ticks": 13491,
          "time": 156.87209302325581,
          "velocity": 0.09448818897637795
        },
        {
          "duration": 0.8837209302325846,
          "durationTicks": 76,
          "midi": 43,
          "name": "G2",
          "ticks": 13496,
          "time": 156.93023255813952,
          "velocity": 0.31496062992125984
        },
        {
          "duration": 0.05813953488373613,
          "durationTicks": 5,
          "midi": 50,
          "name": "D3",
          "ticks": 13503,
          "time": 157.01162790697674,
          "velocity": 0.23622047244094488
        },
        {
          "duration": 0.034883720930224626,
          "durationTicks": 3,
          "midi": 59,
          "name": "B3",
          "ticks": 13515,
          "time": 157.15116279069767,
          "velocity": 0.14960629921259844
        },
        {
          "duration": 0.06976744186044925,
          "durationTicks": 6,
          "midi": 50,
          "name": "D3",
          "ticks": 13519,
          "time": 157.19767441860466,
          "velocity": 0.1968503937007874
        },
        {
          "duration": 0.04651162790696617,
          "durationTicks": 4,
          "midi": 50,
          "name": "D3",
          "ticks": 13531,
          "time": 157.3372093023256,
          "velocity": 0.10236220472440945
        },
        {
          "duration": 0.06976744186047767,
          "durationTicks": 6,
          "midi": 50,
          "name": "D3",
          "ticks": 13538,
          "time": 157.41860465116278,
          "velocity": 0.1889763779527559
        },
        {
          "duration": 0.04651162790696617,
          "durationTicks": 4,
          "midi": 50,
          "name": "D3",
          "ticks": 13545,
          "time": 157.5,
          "velocity": 0.13385826771653545
        },
        {
          "duration": 0.9069767441860392,
          "durationTicks": 78,
          "midi": 50,
          "name": "D3",
          "ticks": 13552,
          "time": 157.58139534883722,
          "velocity": 0.2125984251968504
        },
        {
          "duration": 0.034883720930224626,
          "durationTicks": 3,
          "midi": 45,
          "name": "A2",
          "ticks": 13651,
          "time": 158.7325581395349,
          "velocity": 0.3700787401574803
        },
        {
          "duration": 0.06976744186047767,
          "durationTicks": 6,
          "midi": 58,
          "name": "A#3",
          "ticks": 13652,
          "time": 158.74418604651163,
          "velocity": 0.2755905511811024
        },
        {
          "duration": 0.03488372093025305,
          "durationTicks": 3,
          "midi": 46,
          "name": "A#2",
          "ticks": 13656,
          "time": 158.7906976744186,
          "velocity": 0.3464566929133858
        },
        {
          "duration": 0.034883720930224626,
          "durationTicks": 3,
          "midi": 65,
          "name": "F4",
          "ticks": 13658,
          "time": 158.8139534883721,
          "velocity": 0.14173228346456693
        },
        {
          "duration": 0.04651162790696617,
          "durationTicks": 4,
          "midi": 60,
          "name": "C4",
          "ticks": 13659,
          "time": 158.82558139534885,
          "velocity": 0.4015748031496063
        },
        {
          "duration": 0.034883720930224626,
          "durationTicks": 3,
          "midi": 86,
          "name": "D6",
          "ticks": 13659,
          "time": 158.82558139534885,
          "velocity": 0.11023622047244094
        },
        {
          "duration": 0.023255813953483084,
          "durationTicks": 2,
          "midi": 48,
          "name": "C3",
          "ticks": 13660,
          "time": 158.8372093023256,
          "velocity": 0.3543307086614173
        },
        {
          "duration": 0.034883720930224626,
          "durationTicks": 3,
          "midi": 76,
          "name": "E5",
          "ticks": 13660,
          "time": 158.8372093023256,
          "velocity": 0.08661417322834646
        },
        {
          "duration": 0.05813953488370771,
          "durationTicks": 5,
          "midi": 65,
          "name": "F4",
          "ticks": 13662,
          "time": 158.86046511627907,
          "velocity": 0.07086614173228346
        },
        {
          "duration": 0.023255813953483084,
          "durationTicks": 2,
          "midi": 48,
          "name": "C3",
          "ticks": 13663,
          "time": 158.87209302325581,
          "velocity": 0.44881889763779526
        },
        {
          "duration": 0.034883720930224626,
          "durationTicks": 3,
          "midi": 61,
          "name": "C#4",
          "ticks": 13663,
          "time": 158.87209302325581,
          "velocity": 0.33070866141732286
        },
        {
          "duration": 0.023255813953483084,
          "durationTicks": 2,
          "midi": 57,
          "name": "A3",
          "ticks": 13664,
          "time": 158.88372093023256,
          "velocity": 0.2755905511811024
        },
        {
          "duration": 0.22093023255814614,
          "durationTicks": 19,
          "midi": 62,
          "name": "D4",
          "ticks": 13666,
          "time": 158.90697674418604,
          "velocity": 0.3779527559055118
        },
        {
          "duration": 0.023255813953511506,
          "durationTicks": 2,
          "midi": 50,
          "name": "D3",
          "ticks": 13668,
          "time": 158.93023255813952,
          "velocity": 0.3858267716535433
        },
        {
          "duration": 0.034883720930224626,
          "durationTicks": 3,
          "midi": 57,
          "name": "A3",
          "ticks": 13669,
          "time": 158.9418604651163,
          "velocity": 0.2992125984251969
        },
        {
          "duration": 0.023255813953483084,
          "durationTicks": 2,
          "midi": 50,
          "name": "D3",
          "ticks": 13671,
          "time": 158.96511627906978,
          "velocity": 0.3543307086614173
        },
        {
          "duration": 0.05813953488370771,
          "durationTicks": 5,
          "midi": 57,
          "name": "A3",
          "ticks": 13673,
          "time": 158.98837209302326,
          "velocity": 0.2677165354330709
        },
        {
          "duration": 0.023255813953483084,
          "durationTicks": 2,
          "midi": 50,
          "name": "D3",
          "ticks": 13674,
          "time": 159,
          "velocity": 0.3543307086614173
        },
        {
          "duration": 0.023255813953483084,
          "durationTicks": 2,
          "midi": 50,
          "name": "D3",
          "ticks": 13677,
          "time": 159.03488372093022,
          "velocity": 0.3464566929133858
        },
        {
          "duration": 0.06976744186047767,
          "durationTicks": 6,
          "midi": 57,
          "name": "A3",
          "ticks": 13679,
          "time": 159.0581395348837,
          "velocity": 0.23622047244094488
        },
        {
          "duration": 0.05813953488373613,
          "durationTicks": 5,
          "midi": 57,
          "name": "A3",
          "ticks": 13686,
          "time": 159.13953488372093,
          "velocity": 0.2204724409448819
        },
        {
          "duration": 1.476744186046517,
          "durationTicks": 127,
          "midi": 62,
          "name": "D4",
          "ticks": 13689,
          "time": 159.17441860465115,
          "velocity": 0.41732283464566927
        },
        {
          "duration": 0.04651162790696617,
          "durationTicks": 4,
          "midi": 57,
          "name": "A3",
          "ticks": 13693,
          "time": 159.22093023255815,
          "velocity": 0.2755905511811024
        },
        {
          "duration": 0.023255813953483084,
          "durationTicks": 2,
          "midi": 46,
          "name": "A#2",
          "ticks": 13695,
          "time": 159.24418604651163,
          "velocity": 0.2992125984251969
        },
        {
          "duration": 0.18604651162792152,
          "durationTicks": 16,
          "midi": 90,
          "name": "F#6",
          "ticks": 13696,
          "time": 159.25581395348837,
          "velocity": 0.08661417322834646
        },
        {
          "duration": 0.3720930232558146,
          "durationTicks": 32,
          "midi": 46,
          "name": "A#2",
          "ticks": 13698,
          "time": 159.27906976744185,
          "velocity": 0.2992125984251969
        },
        {
          "duration": 0.04651162790699459,
          "durationTicks": 4,
          "midi": 53,
          "name": "F3",
          "ticks": 13698,
          "time": 159.27906976744185,
          "velocity": 0.09448818897637795
        },
        {
          "duration": 0.034883720930224626,
          "durationTicks": 3,
          "midi": 57,
          "name": "A3",
          "ticks": 13701,
          "time": 159.3139534883721,
          "velocity": 0.16535433070866143
        },
        {
          "duration": 0.13953488372092693,
          "durationTicks": 12,
          "midi": 53,
          "name": "F3",
          "ticks": 13703,
          "time": 159.3372093023256,
          "velocity": 0.08661417322834646
        },
        {
          "duration": 0.03488372093025305,
          "durationTicks": 3,
          "midi": 57,
          "name": "A3",
          "ticks": 13720,
          "time": 159.53488372093022,
          "velocity": 0.10236220472440945
        },
        {
          "duration": 0.06976744186047767,
          "durationTicks": 6,
          "midi": 55,
          "name": "G3",
          "ticks": 13730,
          "time": 159.65116279069767,
          "velocity": 0.5118110236220472
        },
        {
          "duration": 0.05813953488373613,
          "durationTicks": 5,
          "midi": 83,
          "name": "B5",
          "ticks": 13730,
          "time": 159.65116279069767,
          "velocity": 0.09448818897637795
        },
        {
          "duration": 0.023255813953511506,
          "durationTicks": 2,
          "midi": 45,
          "name": "A2",
          "ticks": 13732,
          "time": 159.67441860465115,
          "velocity": 0.30708661417322836
        },
        {
          "duration": 0.3488372093023031,
          "durationTicks": 30,
          "midi": 46,
          "name": "A#2",
          "ticks": 13734,
          "time": 159.69767441860466,
          "velocity": 0.2677165354330709
        },
        {
          "duration": 0.04651162790696617,
          "durationTicks": 4,
          "midi": 68,
          "name": "G#4",
          "ticks": 13735,
          "time": 159.7093023255814,
          "velocity": 0.1889763779527559
        },
        {
          "duration": 0.034883720930224626,
          "durationTicks": 3,
          "midi": 56,
          "name": "G#3",
          "ticks": 13736,
          "time": 159.72093023255815,
          "velocity": 0.4094488188976378
        },
        {
          "duration": 0.2325581395348877,
          "durationTicks": 20,
          "midi": 57,
          "name": "A3",
          "ticks": 13739,
          "time": 159.75581395348837,
          "velocity": 0.36220472440944884
        },
        {
          "duration": 0.023255813953483084,
          "durationTicks": 2,
          "midi": 56,
          "name": "G#3",
          "ticks": 13759,
          "time": 159.98837209302326,
          "velocity": 0.31496062992125984
        },
        {
          "duration": 0.023255813953511506,
          "durationTicks": 2,
          "midi": 55,
          "name": "G3",
          "ticks": 13764,
          "time": 160.04651162790697,
          "velocity": 0.4645669291338583
        },
        {
          "duration": 0.18604651162792152,
          "durationTicks": 16,
          "midi": 68,
          "name": "G#4",
          "ticks": 13764,
          "time": 160.04651162790697,
          "velocity": 0.1968503937007874
        },
        {
          "duration": 0.17441860465117998,
          "durationTicks": 15,
          "midi": 84,
          "name": "C6",
          "ticks": 13764,
          "time": 160.04651162790697,
          "velocity": 0.2047244094488189
        },
        {
          "duration": 0.2906976744185954,
          "durationTicks": 25,
          "midi": 56,
          "name": "G#3",
          "ticks": 13766,
          "time": 160.06976744186048,
          "velocity": 0.48031496062992124
        },
        {
          "duration": 0.3953488372092977,
          "durationTicks": 34,
          "midi": 46,
          "name": "A#2",
          "ticks": 13767,
          "time": 160.08139534883722,
          "velocity": 0.2755905511811024
        },
        {
          "duration": 0.2906976744186238,
          "durationTicks": 25,
          "midi": 55,
          "name": "G3",
          "ticks": 13796,
          "time": 160.41860465116278,
          "velocity": 0.5118110236220472
        },
        {
          "duration": 0.2790697674418823,
          "durationTicks": 24,
          "midi": 83,
          "name": "B5",
          "ticks": 13797,
          "time": 160.43023255813952,
          "velocity": 0.10236220472440945
        },
        {
          "duration": 0.09302325581393234,
          "durationTicks": 8,
          "midi": 91,
          "name": "G6",
          "ticks": 13798,
          "time": 160.4418604651163,
          "velocity": 0.07086614173228346
        },
        {
          "duration": 0.13953488372092693,
          "durationTicks": 12,
          "midi": 46,
          "name": "A#2",
          "ticks": 13802,
          "time": 160.48837209302326,
          "velocity": 0.2283464566929134
        },
        {
          "duration": 0.05813953488370771,
          "durationTicks": 5,
          "midi": 45,
          "name": "A2",
          "ticks": 13814,
          "time": 160.62790697674419,
          "velocity": 0.14960629921259844
        },
        {
          "duration": 0.17441860465115155,
          "durationTicks": 15,
          "midi": 65,
          "name": "F4",
          "ticks": 13821,
          "time": 160.7093023255814,
          "velocity": 0.23622047244094488
        },
        {
          "duration": 0.0813953488371908,
          "durationTicks": 7,
          "midi": 53,
          "name": "F3",
          "ticks": 13822,
          "time": 160.72093023255815,
          "velocity": 0.3937007874015748
        },
        {
          "duration": 0.16279069767441,
          "durationTicks": 14,
          "midi": 72,
          "name": "C5",
          "ticks": 13822,
          "time": 160.72093023255815,
          "velocity": 0.09448818897637795
        },
        {
          "duration": 0.03488372093025305,
          "durationTicks": 3,
          "midi": 44,
          "name": "G#2",
          "ticks": 13829,
          "time": 160.80232558139534,
          "velocity": 0.3937007874015748
        },
        {
          "duration": 0.06976744186044925,
          "durationTicks": 6,
          "midi": 53,
          "name": "F3",
          "ticks": 13830,
          "time": 160.8139534883721,
          "velocity": 0.33070866141732286
        },
        {
          "duration": 0.10465116279067388,
          "durationTicks": 9,
          "midi": 57,
          "name": "A3",
          "ticks": 13830,
          "time": 160.8139534883721,
          "velocity": 0.3543307086614173
        },
        {
          "duration": 0.1046511627907023,
          "durationTicks": 9,
          "midi": 45,
          "name": "A2",
          "ticks": 13832,
          "time": 160.8372093023256,
          "velocity": 0.3464566929133858
        },
        {
          "duration": 0.023255813953483084,
          "durationTicks": 2,
          "midi": 52,
          "name": "E3",
          "ticks": 13836,
          "time": 160.88372093023256,
          "velocity": 0.31496062992125984
        },
        {
          "duration": 0.06976744186047767,
          "durationTicks": 6,
          "midi": 55,
          "name": "G3",
          "ticks": 13839,
          "time": 160.91860465116278,
          "velocity": 0.47244094488188976
        },
        {
          "duration": 0.7790697674418823,
          "durationTicks": 67,
          "midi": 74,
          "name": "D5",
          "ticks": 13839,
          "time": 160.91860465116278,
          "velocity": 0.18110236220472442
        },
        {
          "duration": 0.023255813953483084,
          "durationTicks": 2,
          "midi": 45,
          "name": "A2",
          "ticks": 13842,
          "time": 160.95348837209303,
          "velocity": 0.29133858267716534
        },
        {
          "duration": 0.30232558139533694,
          "durationTicks": 26,
          "midi": 60,
          "name": "C4",
          "ticks": 13844,
          "time": 160.97674418604652,
          "velocity": 0.28346456692913385
        },
        {
          "duration": 0.7441860465116292,
          "durationTicks": 64,
          "midi": 64,
          "name": "E4",
          "ticks": 13844,
          "time": 160.97674418604652,
          "velocity": 0.31496062992125984
        },
        {
          "duration": 0.30232558139533694,
          "durationTicks": 26,
          "midi": 83,
          "name": "B5",
          "ticks": 13844,
          "time": 160.97674418604652,
          "velocity": 0.11023622047244094
        },
        {
          "duration": 0.023255813953483084,
          "durationTicks": 2,
          "midi": 52,
          "name": "E3",
          "ticks": 13845,
          "time": 160.98837209302326,
          "velocity": 0.48031496062992124
        },
        {
          "duration": 1.0813953488372192,
          "durationTicks": 93,
          "midi": 45,
          "name": "A2",
          "ticks": 13847,
          "time": 161.01162790697674,
          "velocity": 0.3858267716535433
        },
        {
          "duration": 0.034883720930224626,
          "durationTicks": 3,
          "midi": 52,
          "name": "E3",
          "ticks": 13848,
          "time": 161.02325581395348,
          "velocity": 0.4409448818897638
        },
        {
          "duration": 0.11627906976744384,
          "durationTicks": 10,
          "midi": 71,
          "name": "B4",
          "ticks": 13849,
          "time": 161.03488372093022,
          "velocity": 0.2283464566929134
        },
        {
          "duration": 0.023255813953483084,
          "durationTicks": 2,
          "midi": 52,
          "name": "E3",
          "ticks": 13856,
          "time": 161.11627906976744,
          "velocity": 0.4015748031496063
        },
        {
          "duration": 0.023255813953483084,
          "durationTicks": 2,
          "midi": 52,
          "name": "E3",
          "ticks": 13867,
          "time": 161.24418604651163,
          "velocity": 0.33858267716535434
        },
        {
          "duration": 0.023255813953483084,
          "durationTicks": 2,
          "midi": 56,
          "name": "G#3",
          "ticks": 13869,
          "time": 161.2674418604651,
          "velocity": 0.3228346456692913
        },
        {
          "duration": 0.023255813953511506,
          "durationTicks": 2,
          "midi": 56,
          "name": "G#3",
          "ticks": 13872,
          "time": 161.30232558139534,
          "velocity": 0.30708661417322836
        },
        {
          "duration": 0.19767441860463464,
          "durationTicks": 17,
          "midi": 72,
          "name": "C5",
          "ticks": 13873,
          "time": 161.3139534883721,
          "velocity": 0.1889763779527559
        },
        {
          "duration": 0.023255813953483084,
          "durationTicks": 2,
          "midi": 58,
          "name": "A#3",
          "ticks": 13874,
          "time": 161.32558139534885,
          "velocity": 0.25196850393700787
        },
        {
          "duration": 0.034883720930224626,
          "durationTicks": 3,
          "midi": 60,
          "name": "C4",
          "ticks": 13877,
          "time": 161.36046511627907,
          "velocity": 0.1889763779527559
        },
        {
          "duration": 0.023255813953483084,
          "durationTicks": 2,
          "midi": 55,
          "name": "G3",
          "ticks": 13878,
          "time": 161.37209302325581,
          "velocity": 0.31496062992125984
        },
        {
          "duration": 0.023255813953511506,
          "durationTicks": 2,
          "midi": 56,
          "name": "G#3",
          "ticks": 13883,
          "time": 161.43023255813952,
          "velocity": 0.2755905511811024
        },
        {
          "duration": 0.023255813953483084,
          "durationTicks": 2,
          "midi": 56,
          "name": "G#3",
          "ticks": 13886,
          "time": 161.46511627906978,
          "velocity": 0.2677165354330709
        },
        {
          "duration": 0.034883720930224626,
          "durationTicks": 3,
          "midi": 60,
          "name": "C4",
          "ticks": 13887,
          "time": 161.47674418604652,
          "velocity": 0.15748031496062992
        },
        {
          "duration": 0.04651162790696617,
          "durationTicks": 4,
          "midi": 55,
          "name": "G3",
          "ticks": 13890,
          "time": 161.51162790697674,
          "velocity": 0.25196850393700787
        },
        {
          "duration": 0.13953488372092693,
          "durationTicks": 12,
          "midi": 60,
          "name": "C4",
          "ticks": 13891,
          "time": 161.52325581395348,
          "velocity": 0.14173228346456693
        },
        {
          "duration": 0.40697674418603924,
          "durationTicks": 35,
          "midi": 72,
          "name": "C5",
          "ticks": 13895,
          "time": 161.56976744186048,
          "velocity": 0.2125984251968504
        },
        {
          "duration": 0.034883720930224626,
          "durationTicks": 3,
          "midi": 55,
          "name": "G3",
          "ticks": 13901,
          "time": 161.63953488372093,
          "velocity": 0.18110236220472442
        },
        {
          "duration": 0.03488372093025305,
          "durationTicks": 3,
          "midi": 60,
          "name": "C4",
          "ticks": 13904,
          "time": 161.67441860465115,
          "velocity": 0.10236220472440945
        },
        {
          "duration": 0.11627906976744384,
          "durationTicks": 10,
          "midi": 65,
          "name": "F4",
          "ticks": 13913,
          "time": 161.77906976744185,
          "velocity": 0.25196850393700787
        },
        {
          "duration": 0.11627906976744384,
          "durationTicks": 10,
          "midi": 53,
          "name": "F3",
          "ticks": 13914,
          "time": 161.7906976744186,
          "velocity": 0.41732283464566927
        },
        {
          "duration": 0.8488372093023315,
          "durationTicks": 73,
          "midi": 64,
          "name": "E4",
          "ticks": 13923,
          "time": 161.8953488372093,
          "velocity": 0.2755905511811024
        },
        {
          "duration": 0.2906976744186238,
          "durationTicks": 25,
          "midi": 72,
          "name": "C5",
          "ticks": 13934,
          "time": 162.02325581395348,
          "velocity": 0.13385826771653545
        },
        {
          "duration": 0.9767441860465169,
          "durationTicks": 84,
          "midi": 60,
          "name": "C4",
          "ticks": 13937,
          "time": 162.0581395348837,
          "velocity": 0.3543307086614173
        },
        {
          "duration": 0.22093023255811772,
          "durationTicks": 19,
          "midi": 86,
          "name": "D6",
          "ticks": 13938,
          "time": 162.06976744186048,
          "velocity": 0.13385826771653545
        },
        {
          "duration": 0.06976744186044925,
          "durationTicks": 6,
          "midi": 94,
          "name": "A#6",
          "ticks": 13938,
          "time": 162.06976744186048,
          "velocity": 0.13385826771653545
        },
        {
          "duration": 0.023255813953511506,
          "durationTicks": 2,
          "midi": 47,
          "name": "B2",
          "ticks": 13948,
          "time": 162.1860465116279,
          "velocity": 0.3543307086614173
        },
        {
          "duration": 0.023255813953483084,
          "durationTicks": 2,
          "midi": 47,
          "name": "B2",
          "ticks": 13952,
          "time": 162.2325581395349,
          "velocity": 0.3464566929133858
        },
        {
          "duration": 0.023255813953483084,
          "durationTicks": 2,
          "midi": 48,
          "name": "C3",
          "ticks": 13976,
          "time": 162.51162790697674,
          "velocity": 0.33070866141732286
        },
        {
          "duration": 0.023255813953483084,
          "durationTicks": 2,
          "midi": 49,
          "name": "C#3",
          "ticks": 13978,
          "time": 162.53488372093022,
          "velocity": 0.29133858267716534
        },
        {
          "duration": 0.023255813953511506,
          "durationTicks": 2,
          "midi": 48,
          "name": "C3",
          "ticks": 13980,
          "time": 162.5581395348837,
          "velocity": 0.3464566929133858
        },
        {
          "duration": 0.023255813953483084,
          "durationTicks": 2,
          "midi": 49,
          "name": "C#3",
          "ticks": 13982,
          "time": 162.58139534883722,
          "velocity": 0.29133858267716534
        },
        {
          "duration": 0.023255813953483084,
          "durationTicks": 2,
          "midi": 47,
          "name": "B2",
          "ticks": 13984,
          "time": 162.6046511627907,
          "velocity": 0.33070866141732286
        },
        {
          "duration": 0.023255813953483084,
          "durationTicks": 2,
          "midi": 47,
          "name": "B2",
          "ticks": 13988,
          "time": 162.65116279069767,
          "velocity": 0.3228346456692913
        },
        {
          "duration": 0.034883720930224626,
          "durationTicks": 3,
          "midi": 48,
          "name": "C3",
          "ticks": 13992,
          "time": 162.69767441860466,
          "velocity": 0.31496062992125984
        },
        {
          "duration": 0.023255813953483084,
          "durationTicks": 2,
          "midi": 48,
          "name": "C3",
          "ticks": 13996,
          "time": 162.74418604651163,
          "velocity": 0.3228346456692913
        },
        {
          "duration": 0.023255813953483084,
          "durationTicks": 2,
          "midi": 49,
          "name": "C#3",
          "ticks": 13998,
          "time": 162.7674418604651,
          "velocity": 0.29133858267716534
        },
        {
          "duration": 0.023255813953511506,
          "durationTicks": 2,
          "midi": 48,
          "name": "C3",
          "ticks": 14000,
          "time": 162.7906976744186,
          "velocity": 0.3228346456692913
        },
        {
          "duration": 0.023255813953483084,
          "durationTicks": 2,
          "midi": 49,
          "name": "C#3",
          "ticks": 14006,
          "time": 162.86046511627907,
          "velocity": 0.28346456692913385
        },
        {
          "duration": 0.023255813953511506,
          "durationTicks": 2,
          "midi": 48,
          "name": "C3",
          "ticks": 14012,
          "time": 162.93023255813952,
          "velocity": 0.30708661417322836
        },
        {
          "duration": 0.034883720930224626,
          "durationTicks": 3,
          "midi": 48,
          "name": "C3",
          "ticks": 14015,
          "time": 162.96511627906978,
          "velocity": 0.29133858267716534
        },
        {
          "duration": 0.9302325581395507,
          "durationTicks": 80,
          "midi": 50,
          "name": "D3",
          "ticks": 14022,
          "time": 163.04651162790697,
          "velocity": 0.36220472440944884
        },
        {
          "duration": 0.023255813953483084,
          "durationTicks": 2,
          "midi": 56,
          "name": "G#3",
          "ticks": 14032,
          "time": 163.1627906976744,
          "velocity": 0.33070866141732286
        },
        {
          "duration": 0.6976744186046631,
          "durationTicks": 60,
          "midi": 69,
          "name": "A4",
          "ticks": 14032,
          "time": 163.1627906976744,
          "velocity": 0.16535433070866143
        },
        {
          "duration": 0.7674418604651407,
          "durationTicks": 66,
          "midi": 57,
          "name": "A3",
          "ticks": 14034,
          "time": 163.1860465116279,
          "velocity": 0.3543307086614173
        },
        {
          "duration": 0.023255813953511506,
          "durationTicks": 2,
          "midi": 61,
          "name": "C#4",
          "ticks": 14044,
          "time": 163.30232558139534,
          "velocity": 0.23622047244094488
        },
        {
          "duration": 0.09302325581396076,
          "durationTicks": 8,
          "midi": 74,
          "name": "D5",
          "ticks": 14044,
          "time": 163.30232558139534,
          "velocity": 0.12598425196850394
        },
        {
          "duration": 0.023255813953483084,
          "durationTicks": 2,
          "midi": 55,
          "name": "G3",
          "ticks": 14101,
          "time": 163.96511627906978,
          "velocity": 0.3779527559055118
        },
        {
          "duration": 0.13953488372092693,
          "durationTicks": 12,
          "midi": 75,
          "name": "D#5",
          "ticks": 14101,
          "time": 163.96511627906978,
          "velocity": 0.11811023622047244
        },
        {
          "duration": 0.11627906976744384,
          "durationTicks": 10,
          "midi": 68,
          "name": "G#4",
          "ticks": 14102,
          "time": 163.97674418604652,
          "velocity": 0.11023622047244094
        },
        {
          "duration": 0.11627906976744384,
          "durationTicks": 10,
          "midi": 56,
          "name": "G#3",
          "ticks": 14103,
          "time": 163.98837209302326,
          "velocity": 0.3858267716535433
        },
        {
          "duration": 0.2093023255814046,
          "durationTicks": 18,
          "midi": 50,
          "name": "D3",
          "ticks": 14105,
          "time": 164.01162790697674,
          "velocity": 0.2204724409448819
        },
        {
          "duration": 0.03488372093025305,
          "durationTicks": 3,
          "midi": 57,
          "name": "A3",
          "ticks": 14119,
          "time": 164.17441860465115,
          "velocity": 0.10236220472440945
        },
        {
          "duration": 0.19767441860463464,
          "durationTicks": 17,
          "midi": 55,
          "name": "G3",
          "ticks": 14124,
          "time": 164.2325581395349,
          "velocity": 0.3779527559055118
        },
        {
          "duration": 0.1860465116278931,
          "durationTicks": 16,
          "midi": 53,
          "name": "F3",
          "ticks": 14144,
          "time": 164.46511627906978,
          "velocity": 0.36220472440944884
        },
        {
          "duration": 0.034883720930224626,
          "durationTicks": 3,
          "midi": 42,
          "name": "F#2",
          "ticks": 14145,
          "time": 164.47674418604652,
          "velocity": 0.13385826771653545
        },
        {
          "duration": 0.034883720930224626,
          "durationTicks": 3,
          "midi": 54,
          "name": "F#3",
          "ticks": 14160,
          "time": 164.65116279069767,
          "velocity": 0.2204724409448819
        },
        {
          "duration": 0.12790697674418539,
          "durationTicks": 11,
          "midi": 50,
          "name": "D3",
          "ticks": 14167,
          "time": 164.7325581395349,
          "velocity": 0.3464566929133858
        },
        {
          "duration": 0.1046511627907023,
          "durationTicks": 9,
          "midi": 53,
          "name": "F3",
          "ticks": 14180,
          "time": 164.88372093023256,
          "velocity": 0.41732283464566927
        },
        {
          "duration": 0.06976744186047767,
          "durationTicks": 6,
          "midi": 62,
          "name": "D4",
          "ticks": 14184,
          "time": 164.93023255813952,
          "velocity": 0.07086614173228346
        },
        {
          "duration": 0.24418604651162923,
          "durationTicks": 21,
          "midi": 55,
          "name": "G3",
          "ticks": 14190,
          "time": 165,
          "velocity": 0.4094488188976378
        },
        {
          "duration": 0.12790697674418539,
          "durationTicks": 11,
          "midi": 62,
          "name": "D4",
          "ticks": 14191,
          "time": 165.01162790697674,
          "velocity": 0.15748031496062992
        },
        {
          "duration": 0.13953488372092693,
          "durationTicks": 12,
          "midi": 48,
          "name": "C3",
          "ticks": 14202,
          "time": 165.13953488372093,
          "velocity": 0.4015748031496063
        },
        {
          "duration": 0.023255813953511506,
          "durationTicks": 2,
          "midi": 47,
          "name": "B2",
          "ticks": 14215,
          "time": 165.2906976744186,
          "velocity": 0.2992125984251969
        },
        {
          "duration": 0.034883720930224626,
          "durationTicks": 3,
          "midi": 49,
          "name": "C#3",
          "ticks": 14217,
          "time": 165.3139534883721,
          "velocity": 0.3779527559055118
        },
        {
          "duration": 0.7093023255813762,
          "durationTicks": 61,
          "midi": 62,
          "name": "D4",
          "ticks": 14220,
          "time": 165.34883720930233,
          "velocity": 0.30708661417322836
        },
        {
          "duration": 0.034883720930224626,
          "durationTicks": 3,
          "midi": 49,
          "name": "C#3",
          "ticks": 14223,
          "time": 165.38372093023256,
          "velocity": 0.3779527559055118
        },
        {
          "duration": 0.19767441860466306,
          "durationTicks": 17,
          "midi": 81,
          "name": "A5",
          "ticks": 14225,
          "time": 165.40697674418604,
          "velocity": 0.12598425196850394
        },
        {
          "duration": 0.034883720930224626,
          "durationTicks": 3,
          "midi": 49,
          "name": "C#3",
          "ticks": 14229,
          "time": 165.45348837209303,
          "velocity": 0.36220472440944884
        },
        {
          "duration": 0.023255813953483084,
          "durationTicks": 2,
          "midi": 49,
          "name": "C#3",
          "ticks": 14235,
          "time": 165.52325581395348,
          "velocity": 0.36220472440944884
        },
        {
          "duration": 0.034883720930224626,
          "durationTicks": 3,
          "midi": 49,
          "name": "C#3",
          "ticks": 14240,
          "time": 165.58139534883722,
          "velocity": 0.3543307086614173
        },
        {
          "duration": 0.034883720930224626,
          "durationTicks": 3,
          "midi": 49,
          "name": "C#3",
          "ticks": 14246,
          "time": 165.65116279069767,
          "velocity": 0.3700787401574803
        },
        {
          "duration": 0.023255813953483084,
          "durationTicks": 2,
          "midi": 56,
          "name": "G#3",
          "ticks": 14246,
          "time": 165.65116279069767,
          "velocity": 0.25196850393700787
        },
        {
          "duration": 0.27906976744185386,
          "durationTicks": 24,
          "midi": 69,
          "name": "A4",
          "ticks": 14246,
          "time": 165.65116279069767,
          "velocity": 0.2204724409448819
        },
        {
          "duration": 0.22093023255814614,
          "durationTicks": 19,
          "midi": 88,
          "name": "E6",
          "ticks": 14247,
          "time": 165.6627906976744,
          "velocity": 0.10236220472440945
        },
        {
          "duration": 0.22093023255814614,
          "durationTicks": 19,
          "midi": 57,
          "name": "A3",
          "ticks": 14248,
          "time": 165.67441860465115,
          "velocity": 0.2283464566929134
        },
        {
          "duration": 0.023255813953483084,
          "durationTicks": 2,
          "midi": 49,
          "name": "C#3",
          "ticks": 14252,
          "time": 165.72093023255815,
          "velocity": 0.33858267716535434
        },
        {
          "duration": 0.023255813953483084,
          "durationTicks": 2,
          "midi": 47,
          "name": "B2",
          "ticks": 14255,
          "time": 165.75581395348837,
          "velocity": 0.25984251968503935
        },
        {
          "duration": 0.03488372093025305,
          "durationTicks": 3,
          "midi": 49,
          "name": "C#3",
          "ticks": 14257,
          "time": 165.77906976744185,
          "velocity": 0.33858267716535434
        },
        {
          "duration": 0.034883720930224626,
          "durationTicks": 3,
          "midi": 49,
          "name": "C#3",
          "ticks": 14263,
          "time": 165.84883720930233,
          "velocity": 0.33070866141732286
        },
        {
          "duration": 0.023255813953511506,
          "durationTicks": 2,
          "midi": 49,
          "name": "C#3",
          "ticks": 14269,
          "time": 165.91860465116278,
          "velocity": 0.33070866141732286
        },
        {
          "duration": 0.034883720930224626,
          "durationTicks": 3,
          "midi": 49,
          "name": "C#3",
          "ticks": 14274,
          "time": 165.97674418604652,
          "velocity": 0.33070866141732286
        },
        {
          "duration": 0.023255813953483084,
          "durationTicks": 2,
          "midi": 47,
          "name": "B2",
          "ticks": 14277,
          "time": 166.01162790697674,
          "velocity": 0.2440944881889764
        },
        {
          "duration": 0.023255813953511506,
          "durationTicks": 2,
          "midi": 49,
          "name": "C#3",
          "ticks": 14280,
          "time": 166.04651162790697,
          "velocity": 0.28346456692913385
        },
        {
          "duration": 0.03488372093025305,
          "durationTicks": 3,
          "midi": 55,
          "name": "G3",
          "ticks": 14280,
          "time": 166.04651162790697,
          "velocity": 0.41732283464566927
        },
        {
          "duration": 0.13953488372095535,
          "durationTicks": 12,
          "midi": 75,
          "name": "D#5",
          "ticks": 14281,
          "time": 166.0581395348837,
          "velocity": 0.14173228346456693
        },
        {
          "duration": 0.12790697674418539,
          "durationTicks": 11,
          "midi": 68,
          "name": "G#4",
          "ticks": 14282,
          "time": 166.06976744186048,
          "velocity": 0.07874015748031496
        },
        {
          "duration": 0.11627906976744384,
          "durationTicks": 10,
          "midi": 56,
          "name": "G#3",
          "ticks": 14283,
          "time": 166.08139534883722,
          "velocity": 0.3937007874015748
        },
        {
          "duration": 0.023255813953483084,
          "durationTicks": 2,
          "midi": 49,
          "name": "C#3",
          "ticks": 14285,
          "time": 166.1046511627907,
          "velocity": 0.2992125984251969
        },
        {
          "duration": 0.023255813953511506,
          "durationTicks": 2,
          "midi": 49,
          "name": "C#3",
          "ticks": 14291,
          "time": 166.17441860465115,
          "velocity": 0.2992125984251969
        },
        {
          "duration": 0.023255813953483084,
          "durationTicks": 2,
          "midi": 55,
          "name": "G3",
          "ticks": 14293,
          "time": 166.19767441860466,
          "velocity": 0.25196850393700787
        },
        {
          "duration": 0.034883720930224626,
          "durationTicks": 3,
          "midi": 49,
          "name": "C#3",
          "ticks": 14296,
          "time": 166.2325581395349,
          "velocity": 0.2992125984251969
        },
        {
          "duration": 0.023255813953483084,
          "durationTicks": 2,
          "midi": 48,
          "name": "C3",
          "ticks": 14303,
          "time": 166.3139534883721,
          "velocity": 0.29133858267716534
        },
        {
          "duration": 0.2441860465116008,
          "durationTicks": 21,
          "midi": 55,
          "name": "G3",
          "ticks": 14303,
          "time": 166.3139534883721,
          "velocity": 0.4409448818897638
        },
        {
          "duration": 0.2441860465116008,
          "durationTicks": 21,
          "midi": 74,
          "name": "D5",
          "ticks": 14303,
          "time": 166.3139534883721,
          "velocity": 0.15748031496062992
        },
        {
          "duration": 0.023255813953483084,
          "durationTicks": 2,
          "midi": 49,
          "name": "C#3",
          "ticks": 14308,
          "time": 166.37209302325581,
          "velocity": 0.28346456692913385
        },
        {
          "duration": 0.11627906976744384,
          "durationTicks": 10,
          "midi": 48,
          "name": "C3",
          "ticks": 14312,
          "time": 166.41860465116278,
          "velocity": 0.2204724409448819
        },
        {
          "duration": 0.19767441860466306,
          "durationTicks": 17,
          "midi": 65,
          "name": "F4",
          "ticks": 14323,
          "time": 166.54651162790697,
          "velocity": 0.12598425196850394
        },
        {
          "duration": 0.17441860465115155,
          "durationTicks": 15,
          "midi": 53,
          "name": "F3",
          "ticks": 14325,
          "time": 166.56976744186048,
          "velocity": 0.31496062992125984
        },
        {
          "duration": 0.19767441860466306,
          "durationTicks": 17,
          "midi": 48,
          "name": "C3",
          "ticks": 14329,
          "time": 166.61627906976744,
          "velocity": 0.2204724409448819
        },
        {
          "duration": 0.13953488372092693,
          "durationTicks": 12,
          "midi": 62,
          "name": "D4",
          "ticks": 14346,
          "time": 166.8139534883721,
          "velocity": 0.2283464566929134
        },
        {
          "duration": 0.0813953488371908,
          "durationTicks": 7,
          "midi": 50,
          "name": "D3",
          "ticks": 14347,
          "time": 166.82558139534885,
          "velocity": 0.3228346456692913
        },
        {
          "duration": 0.023255813953511506,
          "durationTicks": 2,
          "midi": 50,
          "name": "D3",
          "ticks": 14355,
          "time": 166.91860465116278,
          "velocity": 0.30708661417322836
        },
        {
          "duration": 0.06976744186044925,
          "durationTicks": 6,
          "midi": 53,
          "name": "F3",
          "ticks": 14361,
          "time": 166.98837209302326,
          "velocity": 0.33858267716535434
        },
        {
          "duration": 0.24418604651162923,
          "durationTicks": 21,
          "midi": 62,
          "name": "D4",
          "ticks": 14362,
          "time": 167,
          "velocity": 0.13385826771653545
        },
        {
          "duration": 0.30232558139533694,
          "durationTicks": 26,
          "midi": 55,
          "name": "G3",
          "ticks": 14370,
          "time": 167.09302325581396,
          "velocity": 0.47244094488188976
        },
        {
          "duration": 0.2674418604651123,
          "durationTicks": 23,
          "midi": 74,
          "name": "D5",
          "ticks": 14371,
          "time": 167.1046511627907,
          "velocity": 0.14173228346456693
        },
        {
          "duration": 0.3720930232558146,
          "durationTicks": 32,
          "midi": 71,
          "name": "B4",
          "ticks": 14383,
          "time": 167.24418604651163,
          "velocity": 0.15748031496062992
        },
        {
          "duration": 0.1046511627907023,
          "durationTicks": 9,
          "midi": 47,
          "name": "B2",
          "ticks": 14384,
          "time": 167.25581395348837,
          "velocity": 0.3543307086614173
        },
        {
          "duration": 0.023255813953483084,
          "durationTicks": 2,
          "midi": 48,
          "name": "C3",
          "ticks": 14393,
          "time": 167.36046511627907,
          "velocity": 0.3464566929133858
        },
        {
          "duration": 0.023255813953483084,
          "durationTicks": 2,
          "midi": 48,
          "name": "C3",
          "ticks": 14400,
          "time": 167.4418604651163,
          "velocity": 0.4015748031496063
        },
        {
          "duration": 0.034883720930224626,
          "durationTicks": 3,
          "midi": 59,
          "name": "B3",
          "ticks": 14400,
          "time": 167.4418604651163,
          "velocity": 0.2047244094488189
        },
        {
          "duration": 0.05813953488370771,
          "durationTicks": 5,
          "midi": 62,
          "name": "D4",
          "ticks": 14400,
          "time": 167.4418604651163,
          "velocity": 0.1732283464566929
        },
        {
          "duration": 0.023255813953483084,
          "durationTicks": 2,
          "midi": 48,
          "name": "C3",
          "ticks": 14404,
          "time": 167.48837209302326,
          "velocity": 0.4015748031496063
        },
        {
          "duration": 0.023255813953483084,
          "durationTicks": 2,
          "midi": 59,
          "name": "B3",
          "ticks": 14404,
          "time": 167.48837209302326,
          "velocity": 0.2283464566929134
        },
        {
          "duration": 0.48837209302325846,
          "durationTicks": 42,
          "midi": 74,
          "name": "D5",
          "ticks": 14406,
          "time": 167.51162790697674,
          "velocity": 0.15748031496062992
        },
        {
          "duration": 1.023255813953483,
          "durationTicks": 88,
          "midi": 62,
          "name": "D4",
          "ticks": 14407,
          "time": 167.52325581395348,
          "velocity": 0.29133858267716534
        },
        {
          "duration": 0.023255813953483084,
          "durationTicks": 2,
          "midi": 48,
          "name": "C3",
          "ticks": 14408,
          "time": 167.53488372093022,
          "velocity": 0.3937007874015748
        },
        {
          "duration": 0.023255813953483084,
          "durationTicks": 2,
          "midi": 48,
          "name": "C3",
          "ticks": 14412,
          "time": 167.58139534883722,
          "velocity": 0.3937007874015748
        },
        {
          "duration": 0.023255813953483084,
          "durationTicks": 2,
          "midi": 47,
          "name": "B2",
          "ticks": 14414,
          "time": 167.6046511627907,
          "velocity": 0.3700787401574803
        },
        {
          "duration": 0.023255813953483084,
          "durationTicks": 2,
          "midi": 48,
          "name": "C3",
          "ticks": 14416,
          "time": 167.62790697674419,
          "velocity": 0.3858267716535433
        },
        {
          "duration": 0.023255813953483084,
          "durationTicks": 2,
          "midi": 48,
          "name": "C3",
          "ticks": 14419,
          "time": 167.6627906976744,
          "velocity": 0.3700787401574803
        },
        {
          "duration": 0.023255813953483084,
          "durationTicks": 2,
          "midi": 48,
          "name": "C3",
          "ticks": 14423,
          "time": 167.7093023255814,
          "velocity": 0.3700787401574803
        },
        {
          "duration": 0.023255813953483084,
          "durationTicks": 2,
          "midi": 48,
          "name": "C3",
          "ticks": 14427,
          "time": 167.75581395348837,
          "velocity": 0.3858267716535433
        },
        {
          "duration": 0.023255813953483084,
          "durationTicks": 2,
          "midi": 56,
          "name": "G#3",
          "ticks": 14428,
          "time": 167.7674418604651,
          "velocity": 0.3858267716535433
        },
        {
          "duration": 0.24418604651162923,
          "durationTicks": 21,
          "midi": 69,
          "name": "A4",
          "ticks": 14429,
          "time": 167.77906976744185,
          "velocity": 0.13385826771653545
        },
        {
          "duration": 0.24418604651162923,
          "durationTicks": 21,
          "midi": 57,
          "name": "A3",
          "ticks": 14430,
          "time": 167.7906976744186,
          "velocity": 0.36220472440944884
        },
        {
          "duration": 0.023255813953511506,
          "durationTicks": 2,
          "midi": 48,
          "name": "C3",
          "ticks": 14431,
          "time": 167.80232558139534,
          "velocity": 0.3543307086614173
        },
        {
          "duration": 0.023255813953483084,
          "durationTicks": 2,
          "midi": 47,
          "name": "B2",
          "ticks": 14433,
          "time": 167.82558139534885,
          "velocity": 0.3228346456692913
        },
        {
          "duration": 0.023255813953483084,
          "durationTicks": 2,
          "midi": 48,
          "name": "C3",
          "ticks": 14435,
          "time": 167.84883720930233,
          "velocity": 0.3464566929133858
        },
        {
          "duration": 0.023255813953483084,
          "durationTicks": 2,
          "midi": 47,
          "name": "B2",
          "ticks": 14437,
          "time": 167.87209302325581,
          "velocity": 0.33070866141732286
        },
        {
          "duration": 0.023255813953483084,
          "durationTicks": 2,
          "midi": 48,
          "name": "C3",
          "ticks": 14439,
          "time": 167.8953488372093,
          "velocity": 0.33858267716535434
        },
        {
          "duration": 0.023255813953511506,
          "durationTicks": 2,
          "midi": 48,
          "name": "C3",
          "ticks": 14442,
          "time": 167.93023255813952,
          "velocity": 0.33858267716535434
        },
        {
          "duration": 0.023255813953483084,
          "durationTicks": 2,
          "midi": 48,
          "name": "C3",
          "ticks": 14446,
          "time": 167.97674418604652,
          "velocity": 0.3464566929133858
        },
        {
          "duration": 0.04651162790696617,
          "durationTicks": 4,
          "midi": 93,
          "name": "A6",
          "ticks": 14449,
          "time": 168.01162790697674,
          "velocity": 0.16535433070866143
        },
        {
          "duration": 0.13953488372092693,
          "durationTicks": 12,
          "midi": 50,
          "name": "D3",
          "ticks": 14450,
          "time": 168.02325581395348,
          "velocity": 0.3464566929133858
        },
        {
          "duration": 0.023255813953483084,
          "durationTicks": 2,
          "midi": 55,
          "name": "G3",
          "ticks": 14462,
          "time": 168.1627906976744,
          "velocity": 0.4566929133858268
        },
        {
          "duration": 0.1511627906976969,
          "durationTicks": 13,
          "midi": 75,
          "name": "D#5",
          "ticks": 14462,
          "time": 168.1627906976744,
          "velocity": 0.1732283464566929
        },
        {
          "duration": 0.13953488372095535,
          "durationTicks": 12,
          "midi": 68,
          "name": "G#4",
          "ticks": 14463,
          "time": 168.17441860465115,
          "velocity": 0.18110236220472442
        },
        {
          "duration": 0.22093023255814614,
          "durationTicks": 19,
          "midi": 50,
          "name": "D3",
          "ticks": 14464,
          "time": 168.1860465116279,
          "velocity": 0.25196850393700787
        },
        {
          "duration": 0.1279069767442138,
          "durationTicks": 11,
          "midi": 56,
          "name": "G#3",
          "ticks": 14464,
          "time": 168.1860465116279,
          "velocity": 0.4409448818897638
        },
        {
          "duration": 0.023255813953483084,
          "durationTicks": 2,
          "midi": 55,
          "name": "G3",
          "ticks": 14475,
          "time": 168.3139534883721,
          "velocity": 0.25984251968503935
        },
        {
          "duration": 0.16279069767443843,
          "durationTicks": 14,
          "midi": 67,
          "name": "G4",
          "ticks": 14484,
          "time": 168.41860465116278,
          "velocity": 0.1732283464566929
        },
        {
          "duration": 0.11627906976741542,
          "durationTicks": 10,
          "midi": 55,
          "name": "G3",
          "ticks": 14486,
          "time": 168.4418604651163,
          "velocity": 0.3543307086614173
        },
        {
          "duration": 0.023255813953483084,
          "durationTicks": 2,
          "midi": 50,
          "name": "D3",
          "ticks": 14488,
          "time": 168.46511627906978,
          "velocity": 0.2283464566929134
        },
        {
          "duration": 0.09302325581393234,
          "durationTicks": 8,
          "midi": 55,
          "name": "G3",
          "ticks": 14497,
          "time": 168.56976744186048,
          "velocity": 0.4409448818897638
        },
        {
          "duration": 0.05813953488370771,
          "durationTicks": 5,
          "midi": 45,
          "name": "A2",
          "ticks": 14500,
          "time": 168.6046511627907,
          "velocity": 0.14173228346456693
        },
        {
          "duration": 0.17441860465117998,
          "durationTicks": 15,
          "midi": 53,
          "name": "F3",
          "ticks": 14506,
          "time": 168.67441860465115,
          "velocity": 0.3779527559055118
        },
        {
          "duration": 0.11627906976744384,
          "durationTicks": 10,
          "midi": 45,
          "name": "A2",
          "ticks": 14513,
          "time": 168.75581395348837,
          "velocity": 0.11811023622047244
        },
        {
          "duration": 0.04651162790696617,
          "durationTicks": 4,
          "midi": 54,
          "name": "F#3",
          "ticks": 14521,
          "time": 168.84883720930233,
          "velocity": 0.2440944881889764
        },
        {
          "duration": 0.034883720930224626,
          "durationTicks": 3,
          "midi": 45,
          "name": "A2",
          "ticks": 14524,
          "time": 168.88372093023256,
          "velocity": 0.07086614173228346
        },
        {
          "duration": 0.11627906976741542,
          "durationTicks": 10,
          "midi": 50,
          "name": "D3",
          "ticks": 14529,
          "time": 168.9418604651163,
          "velocity": 0.31496062992125984
        },
        {
          "duration": 0.12790697674418539,
          "durationTicks": 11,
          "midi": 78,
          "name": "F#5",
          "ticks": 14529,
          "time": 168.9418604651163,
          "velocity": 0.15748031496062992
        },
        {
          "duration": 0.12790697674418539,
          "durationTicks": 11,
          "midi": 53,
          "name": "F3",
          "ticks": 14540,
          "time": 169.06976744186048,
          "velocity": 0.3937007874015748
        },
        {
          "duration": 0.12790697674418539,
          "durationTicks": 11,
          "midi": 55,
          "name": "G3",
          "ticks": 14552,
          "time": 169.2093023255814,
          "velocity": 0.4251968503937008
        },
        {
          "duration": 0.1046511627907023,
          "durationTicks": 9,
          "midi": 74,
          "name": "D5",
          "ticks": 14552,
          "time": 169.2093023255814,
          "velocity": 0.15748031496062992
        },
        {
          "duration": 0.034883720930224626,
          "durationTicks": 3,
          "midi": 45,
          "name": "A2",
          "ticks": 14563,
          "time": 169.3372093023256,
          "velocity": 0.36220472440944884
        },
        {
          "duration": 0.2674418604651123,
          "durationTicks": 23,
          "midi": 58,
          "name": "A#3",
          "ticks": 14564,
          "time": 169.34883720930233,
          "velocity": 0.29133858267716534
        },
        {
          "duration": 0.2093023255814046,
          "durationTicks": 18,
          "midi": 74,
          "name": "D5",
          "ticks": 14567,
          "time": 169.38372093023256,
          "velocity": 0.10236220472440945
        },
        {
          "duration": 0.67441860465118,
          "durationTicks": 58,
          "midi": 46,
          "name": "A#2",
          "ticks": 14568,
          "time": 169.3953488372093,
          "velocity": 0.33070866141732286
        },
        {
          "duration": 0.38372093023255616,
          "durationTicks": 33,
          "midi": 53,
          "name": "F3",
          "ticks": 14574,
          "time": 169.46511627906978,
          "velocity": 0.33858267716535434
        },
        {
          "duration": 0.48837209302325846,
          "durationTicks": 42,
          "midi": 62,
          "name": "D4",
          "ticks": 14587,
          "time": 169.61627906976744,
          "velocity": 0.29133858267716534
        },
        {
          "duration": 0.09302325581396076,
          "durationTicks": 8,
          "midi": 81,
          "name": "A5",
          "ticks": 14589,
          "time": 169.63953488372093,
          "velocity": 0.10236220472440945
        },
        {
          "duration": 0.12790697674418539,
          "durationTicks": 11,
          "midi": 81,
          "name": "A5",
          "ticks": 14608,
          "time": 169.86046511627907,
          "velocity": 0.12598425196850394
        },
        {
          "duration": 0.2093023255814046,
          "durationTicks": 18,
          "midi": 57,
          "name": "A3",
          "ticks": 14609,
          "time": 169.87209302325581,
          "velocity": 0.4251968503937008
        },
        {
          "duration": 0.13953488372092693,
          "durationTicks": 12,
          "midi": 45,
          "name": "A2",
          "ticks": 14626,
          "time": 170.06976744186048,
          "velocity": 0.25196850393700787
        },
        {
          "duration": 0.023255813953483084,
          "durationTicks": 2,
          "midi": 44,
          "name": "G#2",
          "ticks": 14638,
          "time": 170.2093023255814,
          "velocity": 0.2440944881889764
        },
        {
          "duration": 0.034883720930224626,
          "durationTicks": 3,
          "midi": 55,
          "name": "G3",
          "ticks": 14638,
          "time": 170.2093023255814,
          "velocity": 0.47244094488188976
        },
        {
          "duration": 0.15116279069766847,
          "durationTicks": 13,
          "midi": 68,
          "name": "G#4",
          "ticks": 14638,
          "time": 170.2093023255814,
          "velocity": 0.2047244094488189
        },
        {
          "duration": 0.15116279069766847,
          "durationTicks": 13,
          "midi": 75,
          "name": "D#5",
          "ticks": 14639,
          "time": 170.22093023255815,
          "velocity": 0.15748031496062992
        },
        {
          "duration": 0.11627906976744384,
          "durationTicks": 10,
          "midi": 56,
          "name": "G#3",
          "ticks": 14641,
          "time": 170.24418604651163,
          "velocity": 0.4566929133858268
        },
        {
          "duration": 0.18604651162792152,
          "durationTicks": 16,
          "midi": 45,
          "name": "A2",
          "ticks": 14644,
          "time": 170.27906976744185,
          "velocity": 0.2125984251968504
        },
        {
          "duration": 0.023255813953483084,
          "durationTicks": 2,
          "midi": 55,
          "name": "G3",
          "ticks": 14651,
          "time": 170.36046511627907,
          "velocity": 0.31496062992125984
        },
        {
          "duration": 0.11627906976744384,
          "durationTicks": 10,
          "midi": 67,
          "name": "G4",
          "ticks": 14661,
          "time": 170.47674418604652,
          "velocity": 0.16535433070866143
        },
        {
          "duration": 0.15116279069766847,
          "durationTicks": 13,
          "midi": 74,
          "name": "D5",
          "ticks": 14661,
          "time": 170.47674418604652,
          "velocity": 0.2125984251968504
        },
        {
          "duration": 0.12790697674418539,
          "durationTicks": 11,
          "midi": 55,
          "name": "G3",
          "ticks": 14662,
          "time": 170.48837209302326,
          "velocity": 0.49606299212598426
        },
        {
          "duration": 0.1046511627907023,
          "durationTicks": 9,
          "midi": 45,
          "name": "A2",
          "ticks": 14665,
          "time": 170.52325581395348,
          "velocity": 0.18110236220472442
        },
        {
          "duration": 0.034883720930224626,
          "durationTicks": 3,
          "midi": 72,
          "name": "C5",
          "ticks": 14671,
          "time": 170.59302325581396,
          "velocity": 0.1732283464566929
        },
        {
          "duration": 0.08139534883721922,
          "durationTicks": 7,
          "midi": 55,
          "name": "G3",
          "ticks": 14675,
          "time": 170.63953488372093,
          "velocity": 0.11811023622047244
        },
        {
          "duration": 0.023255813953483084,
          "durationTicks": 2,
          "midi": 53,
          "name": "F3",
          "ticks": 14683,
          "time": 170.7325581395349,
          "velocity": 0.47244094488188976
        },
        {
          "duration": 0.11627906976744384,
          "durationTicks": 10,
          "midi": 60,
          "name": "C4",
          "ticks": 14683,
          "time": 170.7325581395349,
          "velocity": 0.23622047244094488
        },
        {
          "duration": 0.2093023255814046,
          "durationTicks": 18,
          "midi": 102,
          "name": "F#7",
          "ticks": 14684,
          "time": 170.74418604651163,
          "velocity": 0.09448818897637795
        },
        {
          "duration": 0.09302325581396076,
          "durationTicks": 8,
          "midi": 53,
          "name": "F3",
          "ticks": 14686,
          "time": 170.7674418604651,
          "velocity": 0.4251968503937008
        },
        {
          "duration": 0.023255813953483084,
          "durationTicks": 2,
          "midi": 59,
          "name": "B3",
          "ticks": 14693,
          "time": 170.84883720930233,
          "velocity": 0.23622047244094488
        },
        {
          "duration": 0.05813953488370771,
          "durationTicks": 5,
          "midi": 101,
          "name": "F7",
          "ticks": 14694,
          "time": 170.86046511627907,
          "velocity": 0.18110236220472442
        },
        {
          "duration": 0.09302325581396076,
          "durationTicks": 8,
          "midi": 41,
          "name": "F2",
          "ticks": 14695,
          "time": 170.87209302325581,
          "velocity": 0.3858267716535433
        },
        {
          "duration": 0.1046511627907023,
          "durationTicks": 9,
          "midi": 53,
          "name": "F3",
          "ticks": 14695,
          "time": 170.87209302325581,
          "velocity": 0.47244094488188976
        },
        {
          "duration": 0.04651162790696617,
          "durationTicks": 4,
          "midi": 60,
          "name": "C4",
          "ticks": 14695,
          "time": 170.87209302325581,
          "velocity": 0.2283464566929134
        },
        {
          "duration": 0.04651162790696617,
          "durationTicks": 4,
          "midi": 75,
          "name": "D#5",
          "ticks": 14696,
          "time": 170.88372093023256,
          "velocity": 0.14173228346456693
        },
        {
          "duration": 0.03488372093025305,
          "durationTicks": 3,
          "midi": 76,
          "name": "E5",
          "ticks": 14700,
          "time": 170.93023255813952,
          "velocity": 0.11811023622047244
        },
        {
          "duration": 0.023255813953483084,
          "durationTicks": 2,
          "midi": 60,
          "name": "C4",
          "ticks": 14702,
          "time": 170.95348837209303,
          "velocity": 0.2440944881889764
        },
        {
          "duration": 0.06976744186044925,
          "durationTicks": 6,
          "midi": 42,
          "name": "F#2",
          "ticks": 14703,
          "time": 170.96511627906978,
          "velocity": 0.3937007874015748
        },
        {
          "duration": 0.034883720930224626,
          "durationTicks": 3,
          "midi": 65,
          "name": "F4",
          "ticks": 14704,
          "time": 170.97674418604652,
          "velocity": 0.08661417322834646
        },
        {
          "duration": 0.023255813953483084,
          "durationTicks": 2,
          "midi": 55,
          "name": "G3",
          "ticks": 14706,
          "time": 171,
          "velocity": 0.4094488188976378
        },
        {
          "duration": 0.034883720930224626,
          "durationTicks": 3,
          "midi": 60,
          "name": "C4",
          "ticks": 14707,
          "time": 171.01162790697674,
          "velocity": 0.07086614173228346
        },
        {
          "duration": 0.023255813953483084,
          "durationTicks": 2,
          "midi": 54,
          "name": "F#3",
          "ticks": 14708,
          "time": 171.02325581395348,
          "velocity": 0.4645669291338583
        },
        {
          "duration": 0.023255813953483084,
          "durationTicks": 2,
          "midi": 43,
          "name": "G2",
          "ticks": 14709,
          "time": 171.03488372093022,
          "velocity": 0.3700787401574803
        },
        {
          "duration": 0.04651162790699459,
          "durationTicks": 4,
          "midi": 60,
          "name": "C4",
          "ticks": 14711,
          "time": 171.0581395348837,
          "velocity": 0.11023622047244094
        },
        {
          "duration": 0.023255813953483084,
          "durationTicks": 2,
          "midi": 44,
          "name": "G#2",
          "ticks": 14712,
          "time": 171.06976744186048,
          "velocity": 0.3228346456692913
        },
        {
          "duration": 0.023255813953483084,
          "durationTicks": 2,
          "midi": 55,
          "name": "G3",
          "ticks": 14712,
          "time": 171.06976744186048,
          "velocity": 0.3700787401574803
        },
        {
          "duration": 0.13953488372092693,
          "durationTicks": 12,
          "midi": 64,
          "name": "E4",
          "ticks": 14718,
          "time": 171.13953488372093,
          "velocity": 0.15748031496062992
        },
        {
          "duration": 0.023255813953483084,
          "durationTicks": 2,
          "midi": 51,
          "name": "D#3",
          "ticks": 14719,
          "time": 171.15116279069767,
          "velocity": 0.3543307086614173
        },
        {
          "duration": 0.023255813953483084,
          "durationTicks": 2,
          "midi": 57,
          "name": "A3",
          "ticks": 14719,
          "time": 171.15116279069767,
          "velocity": 0.2677165354330709
        },
        {
          "duration": 0.06976744186047767,
          "durationTicks": 6,
          "midi": 58,
          "name": "A#3",
          "ticks": 14721,
          "time": 171.17441860465115,
          "velocity": 0.1968503937007874
        },
        {
          "duration": 0.034883720930224626,
          "durationTicks": 3,
          "midi": 47,
          "name": "B2",
          "ticks": 14723,
          "time": 171.19767441860466,
          "velocity": 0.36220472440944884
        },
        {
          "duration": 0.05813953488370771,
          "durationTicks": 5,
          "midi": 52,
          "name": "E3",
          "ticks": 14725,
          "time": 171.22093023255815,
          "velocity": 0.2755905511811024
        },
        {
          "duration": 0.04651162790696617,
          "durationTicks": 4,
          "midi": 71,
          "name": "B4",
          "ticks": 14726,
          "time": 171.2325581395349,
          "velocity": 0.14173228346456693
        },
        {
          "duration": 0.023255813953511506,
          "durationTicks": 2,
          "midi": 48,
          "name": "C3",
          "ticks": 14732,
          "time": 171.30232558139534,
          "velocity": 0.30708661417322836
        },
        {
          "duration": 0.034883720930224626,
          "durationTicks": 3,
          "midi": 49,
          "name": "C#3",
          "ticks": 14734,
          "time": 171.32558139534885,
          "velocity": 0.30708661417322836
        },
        {
          "duration": 0.04651162790696617,
          "durationTicks": 4,
          "midi": 50,
          "name": "D3",
          "ticks": 14737,
          "time": 171.36046511627907,
          "velocity": 0.33070866141732286
        },
        {
          "duration": 0.023255813953483084,
          "durationTicks": 2,
          "midi": 47,
          "name": "B2",
          "ticks": 14741,
          "time": 171.40697674418604,
          "velocity": 0.41732283464566927
        },
        {
          "duration": 0.3720930232558146,
          "durationTicks": 32,
          "midi": 78,
          "name": "F#5",
          "ticks": 14742,
          "time": 171.41860465116278,
          "velocity": 0.15748031496062992
        },
        {
          "duration": 0.09302325581396076,
          "durationTicks": 8,
          "midi": 96,
          "name": "C7",
          "ticks": 14743,
          "time": 171.43023255813952,
          "velocity": 0.16535433070866143
        },
        {
          "duration": 0.09302325581393234,
          "durationTicks": 8,
          "midi": 62,
          "name": "D4",
          "ticks": 14744,
          "time": 171.4418604651163,
          "velocity": 0.2047244094488189
        },
        {
          "duration": 0.034883720930224626,
          "durationTicks": 3,
          "midi": 42,
          "name": "F#2",
          "ticks": 14746,
          "time": 171.46511627906978,
          "velocity": 0.08661417322834646
        },
        {
          "duration": 0.04651162790696617,
          "durationTicks": 4,
          "midi": 50,
          "name": "D3",
          "ticks": 14750,
          "time": 171.51162790697674,
          "velocity": 0.2283464566929134
        },
        {
          "duration": 0.023255813953483084,
          "durationTicks": 2,
          "midi": 56,
          "name": "G#3",
          "ticks": 14752,
          "time": 171.53488372093022,
          "velocity": 0.33070866141732286
        },
        {
          "duration": 0.06976744186047767,
          "durationTicks": 6,
          "midi": 88,
          "name": "E6",
          "ticks": 14752,
          "time": 171.53488372093022,
          "velocity": 0.12598425196850394
        },
        {
          "duration": 0.11627906976744384,
          "durationTicks": 10,
          "midi": 81,
          "name": "A5",
          "ticks": 14753,
          "time": 171.54651162790697,
          "velocity": 0.11023622047244094
        },
        {
          "duration": 0.023255813953511506,
          "durationTicks": 2,
          "midi": 49,
          "name": "C#3",
          "ticks": 14754,
          "time": 171.5581395348837,
          "velocity": 0.33858267716535434
        },
        {
          "duration": 0.12790697674418539,
          "durationTicks": 11,
          "midi": 57,
          "name": "A3",
          "ticks": 14754,
          "time": 171.5581395348837,
          "velocity": 0.3464566929133858
        },
        {
          "duration": 0.0813953488371908,
          "durationTicks": 7,
          "midi": 50,
          "name": "D3",
          "ticks": 14756,
          "time": 171.58139534883722,
          "velocity": 0.41732283464566927
        },
        {
          "duration": 0.1511627906976969,
          "durationTicks": 13,
          "midi": 81,
          "name": "A5",
          "ticks": 14764,
          "time": 171.67441860465115,
          "velocity": 0.1732283464566929
        },
        {
          "duration": 0.11627906976744384,
          "durationTicks": 10,
          "midi": 88,
          "name": "E6",
          "ticks": 14764,
          "time": 171.67441860465115,
          "velocity": 0.07874015748031496
        },
        {
          "duration": 0.1279069767442138,
          "durationTicks": 11,
          "midi": 62,
          "name": "D4",
          "ticks": 14765,
          "time": 171.6860465116279,
          "velocity": 0.2440944881889764
        },
        {
          "duration": 0.05813953488370771,
          "durationTicks": 5,
          "midi": 51,
          "name": "D#3",
          "ticks": 14766,
          "time": 171.69767441860466,
          "velocity": 0.1889763779527559
        },
        {
          "duration": 0.0813953488371908,
          "durationTicks": 7,
          "midi": 57,
          "name": "A3",
          "ticks": 14767,
          "time": 171.7093023255814,
          "velocity": 0.23622047244094488
        },
        {
          "duration": 0.034883720930224626,
          "durationTicks": 3,
          "midi": 50,
          "name": "D3",
          "ticks": 14771,
          "time": 171.75581395348837,
          "velocity": 0.15748031496062992
        },
        {
          "duration": 0.023255813953511506,
          "durationTicks": 2,
          "midi": 51,
          "name": "D#3",
          "ticks": 14785,
          "time": 171.91860465116278,
          "velocity": 0.3228346456692913
        },
        {
          "duration": 0.10465116279067388,
          "durationTicks": 9,
          "midi": 50,
          "name": "D3",
          "ticks": 14787,
          "time": 171.9418604651163,
          "velocity": 0.4015748031496063
        },
        {
          "duration": 0.17441860465115155,
          "durationTicks": 15,
          "midi": 57,
          "name": "A3",
          "ticks": 14787,
          "time": 171.9418604651163,
          "velocity": 0.3543307086614173
        },
        {
          "duration": 0.12790697674418539,
          "durationTicks": 11,
          "midi": 76,
          "name": "E5",
          "ticks": 14788,
          "time": 171.95348837209303,
          "velocity": 0.11023622047244094
        },
        {
          "duration": 0.17441860465115155,
          "durationTicks": 15,
          "midi": 50,
          "name": "D3",
          "ticks": 14798,
          "time": 172.06976744186048,
          "velocity": 0.4409448818897638
        },
        {
          "duration": 0.16279069767441,
          "durationTicks": 14,
          "midi": 62,
          "name": "D4",
          "ticks": 14820,
          "time": 172.32558139534885,
          "velocity": 0.2677165354330709
        },
        {
          "duration": 0.12790697674418539,
          "durationTicks": 11,
          "midi": 50,
          "name": "D3",
          "ticks": 14822,
          "time": 172.34883720930233,
          "velocity": 0.4094488188976378
        },
        {
          "duration": 0.034883720930224626,
          "durationTicks": 3,
          "midi": 55,
          "name": "G3",
          "ticks": 14822,
          "time": 172.34883720930233,
          "velocity": 0.47244094488188976
        },
        {
          "duration": 0.1046511627907023,
          "durationTicks": 9,
          "midi": 68,
          "name": "G#4",
          "ticks": 14822,
          "time": 172.34883720930233,
          "velocity": 0.15748031496062992
        },
        {
          "duration": 0.11627906976744384,
          "durationTicks": 10,
          "midi": 75,
          "name": "D#5",
          "ticks": 14822,
          "time": 172.34883720930233,
          "velocity": 0.12598425196850394
        },
        {
          "duration": 0.034883720930224626,
          "durationTicks": 3,
          "midi": 42,
          "name": "F#2",
          "ticks": 14823,
          "time": 172.36046511627907,
          "velocity": 0.12598425196850394
        },
        {
          "duration": 0.08139534883721922,
          "durationTicks": 7,
          "midi": 56,
          "name": "G#3",
          "ticks": 14825,
          "time": 172.38372093023256,
          "velocity": 0.4409448818897638
        },
        {
          "duration": 0.04651162790696617,
          "durationTicks": 4,
          "midi": 55,
          "name": "G3",
          "ticks": 14832,
          "time": 172.46511627906978,
          "velocity": 0.28346456692913385
        },
        {
          "duration": 0.16279069767441,
          "durationTicks": 14,
          "midi": 62,
          "name": "D4",
          "ticks": 14842,
          "time": 172.58139534883722,
          "velocity": 0.2440944881889764
        },
        {
          "duration": 0.1046511627907023,
          "durationTicks": 9,
          "midi": 67,
          "name": "G4",
          "ticks": 14843,
          "time": 172.59302325581396,
          "velocity": 0.15748031496062992
        },
        {
          "duration": 0.04651162790696617,
          "durationTicks": 4,
          "midi": 42,
          "name": "F#2",
          "ticks": 14844,
          "time": 172.6046511627907,
          "velocity": 0.2204724409448819
        },
        {
          "duration": 0.12790697674418539,
          "durationTicks": 11,
          "midi": 55,
          "name": "G3",
          "ticks": 14844,
          "time": 172.6046511627907,
          "velocity": 0.5275590551181102
        },
        {
          "duration": 0.06976744186044925,
          "durationTicks": 6,
          "midi": 42,
          "name": "F#2",
          "ticks": 14854,
          "time": 172.72093023255815,
          "velocity": 0.16535433070866143
        },
        {
          "duration": 0.034883720930224626,
          "durationTicks": 3,
          "midi": 72,
          "name": "C5",
          "ticks": 14854,
          "time": 172.72093023255815,
          "velocity": 0.14173228346456693
        },
        {
          "duration": 0.023255813953483084,
          "durationTicks": 2,
          "midi": 54,
          "name": "F#3",
          "ticks": 14855,
          "time": 172.7325581395349,
          "velocity": 0.31496062992125984
        },
        {
          "duration": 0.08139534883721922,
          "durationTicks": 7,
          "midi": 55,
          "name": "G3",
          "ticks": 14857,
          "time": 172.75581395348837,
          "velocity": 0.2204724409448819
        },
        {
          "duration": 0.11627906976744384,
          "durationTicks": 10,
          "midi": 62,
          "name": "D4",
          "ticks": 14865,
          "time": 172.84883720930233,
          "velocity": 0.2755905511811024
        },
        {
          "duration": 0.09302325581396076,
          "durationTicks": 8,
          "midi": 77,
          "name": "F5",
          "ticks": 14865,
          "time": 172.84883720930233,
          "velocity": 0.11811023622047244
        },
        {
          "duration": 0.11627906976744384,
          "durationTicks": 10,
          "midi": 65,
          "name": "F4",
          "ticks": 14866,
          "time": 172.86046511627907,
          "velocity": 0.13385826771653545
        },
        {
          "duration": 0.034883720930224626,
          "durationTicks": 3,
          "midi": 50,
          "name": "D3",
          "ticks": 14874,
          "time": 172.95348837209303,
          "velocity": 0.36220472440944884
        },
        {
          "duration": 0.1046511627907023,
          "durationTicks": 9,
          "midi": 62,
          "name": "D4",
          "ticks": 14877,
          "time": 172.98837209302326,
          "velocity": 0.25984251968503935
        },
        {
          "duration": 0.08139534883721922,
          "durationTicks": 7,
          "midi": 50,
          "name": "D3",
          "ticks": 14878,
          "time": 173,
          "velocity": 0.4015748031496063
        },
        {
          "duration": 0.16279069767441,
          "durationTicks": 14,
          "midi": 78,
          "name": "F#5",
          "ticks": 14885,
          "time": 173.08139534883722,
          "velocity": 0.15748031496062992
        },
        {
          "duration": 0.023255813953483084,
          "durationTicks": 2,
          "midi": 45,
          "name": "A2",
          "ticks": 14886,
          "time": 173.09302325581396,
          "velocity": 0.29133858267716534
        },
        {
          "duration": 0.034883720930224626,
          "durationTicks": 3,
          "midi": 63,
          "name": "D#4",
          "ticks": 14886,
          "time": 173.09302325581396,
          "velocity": 0.2204724409448819
        },
        {
          "duration": 0.04651162790696617,
          "durationTicks": 4,
          "midi": 96,
          "name": "C7",
          "ticks": 14886,
          "time": 173.09302325581396,
          "velocity": 0.12598425196850394
        },
        {
          "duration": 0.1046511627907023,
          "durationTicks": 9,
          "midi": 50,
          "name": "D3",
          "ticks": 14888,
          "time": 173.11627906976744,
          "velocity": 0.3858267716535433
        },
        {
          "duration": 0.023255813953483084,
          "durationTicks": 2,
          "midi": 61,
          "name": "C#4",
          "ticks": 14897,
          "time": 173.22093023255815,
          "velocity": 0.2283464566929134
        },
        {
          "duration": 0.05813953488370771,
          "durationTicks": 5,
          "midi": 69,
          "name": "A4",
          "ticks": 14898,
          "time": 173.2325581395349,
          "velocity": 0.07874015748031496
        },
        {
          "duration": 0.04651162790696617,
          "durationTicks": 4,
          "midi": 42,
          "name": "F#2",
          "ticks": 14899,
          "time": 173.24418604651163,
          "velocity": 0.1968503937007874
        },
        {
          "duration": 0.11627906976744384,
          "durationTicks": 10,
          "midi": 62,
          "name": "D4",
          "ticks": 14899,
          "time": 173.24418604651163,
          "velocity": 0.2677165354330709
        },
        {
          "duration": 0.023255813953483084,
          "durationTicks": 2,
          "midi": 51,
          "name": "D#3",
          "ticks": 14900,
          "time": 173.25581395348837,
          "velocity": 0.4645669291338583
        },
        {
          "duration": 0.09302325581396076,
          "durationTicks": 8,
          "midi": 65,
          "name": "F4",
          "ticks": 14902,
          "time": 173.27906976744185,
          "velocity": 0.1732283464566929
        },
        {
          "duration": 0.023255813953511506,
          "durationTicks": 2,
          "midi": 50,
          "name": "D3",
          "ticks": 14903,
          "time": 173.2906976744186,
          "velocity": 0.4330708661417323
        },
        {
          "duration": 0.05813953488370771,
          "durationTicks": 5,
          "midi": 42,
          "name": "F#2",
          "ticks": 14908,
          "time": 173.34883720930233,
          "velocity": 0.15748031496062992
        },
        {
          "duration": 0.04651162790696617,
          "durationTicks": 4,
          "midi": 89,
          "name": "F6",
          "ticks": 14908,
          "time": 173.34883720930233,
          "velocity": 0.2204724409448819
        },
        {
          "duration": 0.25581395348837077,
          "durationTicks": 22,
          "midi": 55,
          "name": "G3",
          "ticks": 14910,
          "time": 173.37209302325581,
          "velocity": 0.5196850393700787
        },
        {
          "duration": 0.24418604651162923,
          "durationTicks": 21,
          "midi": 74,
          "name": "D5",
          "ticks": 14910,
          "time": 173.37209302325581,
          "velocity": 0.1889763779527559
        },
        {
          "duration": 0.04651162790696617,
          "durationTicks": 4,
          "midi": 47,
          "name": "B2",
          "ticks": 14921,
          "time": 173.5,
          "velocity": 0.13385826771653545
        },
        {
          "duration": 0.12790697674418539,
          "durationTicks": 11,
          "midi": 60,
          "name": "C4",
          "ticks": 14921,
          "time": 173.5,
          "velocity": 0.30708661417322836
        },
        {
          "duration": 0.034883720930224626,
          "durationTicks": 3,
          "midi": 48,
          "name": "C3",
          "ticks": 14931,
          "time": 173.61627906976744,
          "velocity": 0.29133858267716534
        },
        {
          "duration": 0.034883720930224626,
          "durationTicks": 3,
          "midi": 62,
          "name": "D4",
          "ticks": 14932,
          "time": 173.62790697674419,
          "velocity": 0.2047244094488189
        },
        {
          "duration": 0.2674418604651123,
          "durationTicks": 23,
          "midi": 78,
          "name": "F#5",
          "ticks": 14932,
          "time": 173.62790697674419,
          "velocity": 0.15748031496062992
        },
        {
          "duration": 0.023255813953511506,
          "durationTicks": 2,
          "midi": 49,
          "name": "C#3",
          "ticks": 14936,
          "time": 173.67441860465115,
          "velocity": 0.4015748031496063
        },
        {
          "duration": 0.08139534883721922,
          "durationTicks": 7,
          "midi": 62,
          "name": "D4",
          "ticks": 14936,
          "time": 173.67441860465115,
          "velocity": 0.2755905511811024
        },
        {
          "duration": 0.023255813953483084,
          "durationTicks": 2,
          "midi": 47,
          "name": "B2",
          "ticks": 14939,
          "time": 173.7093023255814,
          "velocity": 0.30708661417322836
        },
        {
          "duration": 0.17441860465115155,
          "durationTicks": 15,
          "midi": 81,
          "name": "A5",
          "ticks": 14942,
          "time": 173.74418604651163,
          "velocity": 0.18110236220472442
        },
        {
          "duration": 0.15116279069766847,
          "durationTicks": 13,
          "midi": 74,
          "name": "D5",
          "ticks": 14943,
          "time": 173.75581395348837,
          "velocity": 0.23622047244094488
        },
        {
          "duration": 0.06976744186047767,
          "durationTicks": 6,
          "midi": 67,
          "name": "G4",
          "ticks": 14944,
          "time": 173.7674418604651,
          "velocity": 0.07086614173228346
        },
        {
          "duration": 0.09302325581396076,
          "durationTicks": 8,
          "midi": 72,
          "name": "C5",
          "ticks": 14944,
          "time": 173.7674418604651,
          "velocity": 0.2204724409448819
        },
        {
          "duration": 0.023255813953511506,
          "durationTicks": 2,
          "midi": 47,
          "name": "B2",
          "ticks": 14946,
          "time": 173.7906976744186,
          "velocity": 0.3543307086614173
        },
        {
          "duration": 0.023255813953511506,
          "durationTicks": 2,
          "midi": 60,
          "name": "C4",
          "ticks": 14946,
          "time": 173.7906976744186,
          "velocity": 0.3464566929133858
        },
        {
          "duration": 0.04651162790696617,
          "durationTicks": 4,
          "midi": 48,
          "name": "C3",
          "ticks": 14948,
          "time": 173.8139534883721,
          "velocity": 0.41732283464566927
        },
        {
          "duration": 0.023255813953483084,
          "durationTicks": 2,
          "midi": 62,
          "name": "D4",
          "ticks": 14949,
          "time": 173.82558139534885,
          "velocity": 0.2992125984251969
        },
        {
          "duration": 0.023255813953483084,
          "durationTicks": 2,
          "midi": 62,
          "name": "D4",
          "ticks": 14952,
          "time": 173.86046511627907,
          "velocity": 0.25984251968503935
        },
        {
          "duration": 0.034883720930224626,
          "durationTicks": 3,
          "midi": 98,
          "name": "D7",
          "ticks": 14953,
          "time": 173.87209302325581,
          "velocity": 0.2047244094488189
        },
        {
          "duration": 0.023255813953483084,
          "durationTicks": 2,
          "midi": 49,
          "name": "C#3",
          "ticks": 14954,
          "time": 173.88372093023256,
          "velocity": 0.3543307086614173
        },
        {
          "duration": 0.023255813953483084,
          "durationTicks": 2,
          "midi": 60,
          "name": "C4",
          "ticks": 14954,
          "time": 173.88372093023256,
          "velocity": 0.2283464566929134
        },
        {
          "duration": 0.05813953488370771,
          "durationTicks": 5,
          "midi": 50,
          "name": "D3",
          "ticks": 14959,
          "time": 173.9418604651163,
          "velocity": 0.2047244094488189
        },
        {
          "duration": 0.023255813953483084,
          "durationTicks": 2,
          "midi": 60,
          "name": "C4",
          "ticks": 14965,
          "time": 174.01162790697674,
          "velocity": 0.33070866141732286
        },
        {
          "duration": 0.04651162790699459,
          "durationTicks": 4,
          "midi": 48,
          "name": "C3",
          "ticks": 14967,
          "time": 174.03488372093022,
          "velocity": 0.4330708661417323
        },
        {
          "duration": 0.023255813953483084,
          "durationTicks": 2,
          "midi": 56,
          "name": "G#3",
          "ticks": 14967,
          "time": 174.03488372093022,
          "velocity": 0.44881889763779526
        },
        {
          "duration": 0.18604651162792152,
          "durationTicks": 16,
          "midi": 69,
          "name": "A4",
          "ticks": 14967,
          "time": 174.03488372093022,
          "velocity": 0.2440944881889764
        },
        {
          "duration": 0.16279069767443843,
          "durationTicks": 14,
          "midi": 76,
          "name": "E5",
          "ticks": 14967,
          "time": 174.03488372093022,
          "velocity": 0.1732283464566929
        },
        {
          "duration": 0.09302325581396076,
          "durationTicks": 8,
          "midi": 57,
          "name": "A3",
          "ticks": 14969,
          "time": 174.0581395348837,
          "velocity": 0.41732283464566927
        },
        {
          "duration": 0.11627906976744384,
          "durationTicks": 10,
          "midi": 48,
          "name": "C3",
          "ticks": 14972,
          "time": 174.09302325581396,
          "velocity": 0.4094488188976378
        },
        {
          "duration": 0.03488372093025305,
          "durationTicks": 3,
          "midi": 57,
          "name": "A3",
          "ticks": 14978,
          "time": 174.1627906976744,
          "velocity": 0.36220472440944884
        },
        {
          "duration": 0.034883720930224626,
          "durationTicks": 3,
          "midi": 57,
          "name": "A3",
          "ticks": 14982,
          "time": 174.2093023255814,
          "velocity": 0.16535433070866143
        },
        {
          "duration": 0.06976744186044925,
          "durationTicks": 6,
          "midi": 48,
          "name": "C3",
          "ticks": 14983,
          "time": 174.22093023255815,
          "velocity": 0.3937007874015748
        },
        {
          "duration": 0.04651162790699459,
          "durationTicks": 4,
          "midi": 55,
          "name": "G3",
          "ticks": 14988,
          "time": 174.27906976744185,
          "velocity": 0.2440944881889764
        },
        {
          "duration": 0.03488372093025305,
          "durationTicks": 3,
          "midi": 70,
          "name": "A#4",
          "ticks": 14989,
          "time": 174.2906976744186,
          "velocity": 0.2047244094488189
        },
        {
          "duration": 0.04651162790699459,
          "durationTicks": 4,
          "midi": 60,
          "name": "C4",
          "ticks": 14999,
          "time": 174.40697674418604,
          "velocity": 0.3543307086614173
        },
        {
          "duration": 0.13953488372092693,
          "durationTicks": 12,
          "midi": 68,
          "name": "G#4",
          "ticks": 15000,
          "time": 174.41860465116278,
          "velocity": 0.2204724409448819
        },
        {
          "duration": 0.13953488372095535,
          "durationTicks": 12,
          "midi": 48,
          "name": "C3",
          "ticks": 15001,
          "time": 174.43023255813952,
          "velocity": 0.41732283464566927
        },
        {
          "duration": 0.023255813953483084,
          "durationTicks": 2,
          "midi": 55,
          "name": "G3",
          "ticks": 15002,
          "time": 174.4418604651163,
          "velocity": 0.4881889763779528
        },
        {
          "duration": 0.11627906976741542,
          "durationTicks": 10,
          "midi": 75,
          "name": "D#5",
          "ticks": 15002,
          "time": 174.4418604651163,
          "velocity": 0.13385826771653545
        },
        {
          "duration": 0.0813953488371908,
          "durationTicks": 7,
          "midi": 56,
          "name": "G#3",
          "ticks": 15004,
          "time": 174.46511627906978,
          "velocity": 0.4645669291338583
        },
        {
          "duration": 0.023255813953511506,
          "durationTicks": 2,
          "midi": 55,
          "name": "G3",
          "ticks": 15011,
          "time": 174.54651162790697,
          "velocity": 0.3464566929133858
        },
        {
          "duration": 0.03488372093025305,
          "durationTicks": 3,
          "midi": 70,
          "name": "A#4",
          "ticks": 15012,
          "time": 174.5581395348837,
          "velocity": 0.16535433070866143
        },
        {
          "duration": 0.12790697674418539,
          "durationTicks": 11,
          "midi": 60,
          "name": "C4",
          "ticks": 15022,
          "time": 174.67441860465115,
          "velocity": 0.33070866141732286
        },
        {
          "duration": 0.13953488372095535,
          "durationTicks": 12,
          "midi": 48,
          "name": "C3",
          "ticks": 15023,
          "time": 174.6860465116279,
          "velocity": 0.4251968503937008
        },
        {
          "duration": 0.13953488372092693,
          "durationTicks": 12,
          "midi": 55,
          "name": "G3",
          "ticks": 15024,
          "time": 174.69767441860466,
          "velocity": 0.5354330708661418
        },
        {
          "duration": 0.12790697674418539,
          "durationTicks": 11,
          "midi": 74,
          "name": "D5",
          "ticks": 15025,
          "time": 174.7093023255814,
          "velocity": 0.23622047244094488
        },
        {
          "duration": 0.06976744186044925,
          "durationTicks": 6,
          "midi": 55,
          "name": "G3",
          "ticks": 15037,
          "time": 174.84883720930233,
          "velocity": 0.2204724409448819
        },
        {
          "duration": 0.1046511627907023,
          "durationTicks": 9,
          "midi": 60,
          "name": "C4",
          "ticks": 15044,
          "time": 174.93023255813952,
          "velocity": 0.3464566929133858
        },
        {
          "duration": 0.05813953488370771,
          "durationTicks": 5,
          "midi": 53,
          "name": "F3",
          "ticks": 15045,
          "time": 174.9418604651163,
          "velocity": 0.3700787401574803
        },
        {
          "duration": 0.0813953488371908,
          "durationTicks": 7,
          "midi": 48,
          "name": "C3",
          "ticks": 15047,
          "time": 174.96511627906978,
          "velocity": 0.3700787401574803
        },
        {
          "duration": 0.03488372093025305,
          "durationTicks": 3,
          "midi": 53,
          "name": "F3",
          "ticks": 15053,
          "time": 175.03488372093022,
          "velocity": 0.3228346456692913
        },
        {
          "duration": 0.10465116279067388,
          "durationTicks": 9,
          "midi": 48,
          "name": "C3",
          "ticks": 15056,
          "time": 175.06976744186048,
          "velocity": 0.3858267716535433
        },
        {
          "duration": 0.023255813953511506,
          "durationTicks": 2,
          "midi": 42,
          "name": "F#2",
          "ticks": 15066,
          "time": 175.1860465116279,
          "velocity": 0.33070866141732286
        },
        {
          "duration": 0.023255813953511506,
          "durationTicks": 2,
          "midi": 55,
          "name": "G3",
          "ticks": 15066,
          "time": 175.1860465116279,
          "velocity": 0.29133858267716534
        },
        {
          "duration": 0.04651162790696617,
          "durationTicks": 4,
          "midi": 62,
          "name": "D4",
          "ticks": 15067,
          "time": 175.19767441860466,
          "velocity": 0.2677165354330709
        },
        {
          "duration": 0.12790697674418539,
          "durationTicks": 11,
          "midi": 78,
          "name": "F#5",
          "ticks": 15067,
          "time": 175.19767441860466,
          "velocity": 0.14173228346456693
        },
        {
          "duration": 0.023255813953483084,
          "durationTicks": 2,
          "midi": 49,
          "name": "C#3",
          "ticks": 15069,
          "time": 175.22093023255815,
          "velocity": 0.4330708661417323
        },
        {
          "duration": 0.06976744186047767,
          "durationTicks": 6,
          "midi": 62,
          "name": "D4",
          "ticks": 15072,
          "time": 175.25581395348837,
          "velocity": 0.23622047244094488
        },
        {
          "duration": 0.023255813953483084,
          "durationTicks": 2,
          "midi": 49,
          "name": "C#3",
          "ticks": 15074,
          "time": 175.27906976744185,
          "velocity": 0.4251968503937008
        },
        {
          "duration": 0.12790697674418539,
          "durationTicks": 11,
          "midi": 60,
          "name": "C4",
          "ticks": 15078,
          "time": 175.32558139534885,
          "velocity": 0.2992125984251969
        },
        {
          "duration": 0.11627906976744384,
          "durationTicks": 10,
          "midi": 48,
          "name": "C3",
          "ticks": 15080,
          "time": 175.34883720930233,
          "velocity": 0.3858267716535433
        },
        {
          "duration": 0.27906976744185386,
          "durationTicks": 24,
          "midi": 55,
          "name": "G3",
          "ticks": 15089,
          "time": 175.45348837209303,
          "velocity": 0.5196850393700787
        },
        {
          "duration": 0.27906976744185386,
          "durationTicks": 24,
          "midi": 74,
          "name": "D5",
          "ticks": 15089,
          "time": 175.45348837209303,
          "velocity": 0.1732283464566929
        },
        {
          "duration": 0.17441860465115155,
          "durationTicks": 15,
          "midi": 47,
          "name": "B2",
          "ticks": 15099,
          "time": 175.56976744186048,
          "velocity": 0.47244094488188976
        },
        {
          "duration": 0.13953488372092693,
          "durationTicks": 12,
          "midi": 71,
          "name": "B4",
          "ticks": 15100,
          "time": 175.58139534883722,
          "velocity": 0.29133858267716534
        },
        {
          "duration": 0.13953488372092693,
          "durationTicks": 12,
          "midi": 66,
          "name": "F#4",
          "ticks": 15102,
          "time": 175.6046511627907,
          "velocity": 0.07086614173228346
        },
        {
          "duration": 0.38372093023255616,
          "durationTicks": 33,
          "midi": 62,
          "name": "D4",
          "ticks": 15113,
          "time": 175.7325581395349,
          "velocity": 0.3543307086614173
        },
        {
          "duration": 0.023255813953483084,
          "durationTicks": 2,
          "midi": 48,
          "name": "C3",
          "ticks": 15114,
          "time": 175.74418604651163,
          "velocity": 0.4566929133858268
        },
        {
          "duration": 0.22093023255814614,
          "durationTicks": 19,
          "midi": 71,
          "name": "B4",
          "ticks": 15114,
          "time": 175.74418604651163,
          "velocity": 0.2755905511811024
        },
        {
          "duration": 0.023255813953483084,
          "durationTicks": 2,
          "midi": 47,
          "name": "B2",
          "ticks": 15116,
          "time": 175.7674418604651,
          "velocity": 0.4094488188976378
        },
        {
          "duration": 0.04651162790699459,
          "durationTicks": 4,
          "midi": 59,
          "name": "B3",
          "ticks": 15119,
          "time": 175.80232558139534,
          "velocity": 0.2204724409448819
        },
        {
          "duration": 0.023255813953483084,
          "durationTicks": 2,
          "midi": 48,
          "name": "C3",
          "ticks": 15121,
          "time": 175.82558139534885,
          "velocity": 0.4015748031496063
        },
        {
          "duration": 0.023255813953483084,
          "durationTicks": 2,
          "midi": 58,
          "name": "A#3",
          "ticks": 15123,
          "time": 175.84883720930233,
          "velocity": 0.29133858267716534
        },
        {
          "duration": 0.13953488372092693,
          "durationTicks": 12,
          "midi": 66,
          "name": "F#4",
          "ticks": 15123,
          "time": 175.84883720930233,
          "velocity": 0.12598425196850394
        },
        {
          "duration": 0.034883720930224626,
          "durationTicks": 3,
          "midi": 50,
          "name": "D3",
          "ticks": 15125,
          "time": 175.87209302325581,
          "velocity": 0.28346456692913385
        },
        {
          "duration": 0.2325581395348877,
          "durationTicks": 20,
          "midi": 81,
          "name": "A5",
          "ticks": 15127,
          "time": 175.8953488372093,
          "velocity": 0.1889763779527559
        },
        {
          "duration": 0.023255813953511506,
          "durationTicks": 2,
          "midi": 50,
          "name": "D3",
          "ticks": 15129,
          "time": 175.91860465116278,
          "velocity": 0.23622047244094488
        },
        {
          "duration": 0.023255813953511506,
          "durationTicks": 2,
          "midi": 59,
          "name": "B3",
          "ticks": 15130,
          "time": 175.93023255813952,
          "velocity": 0.2283464566929134
        },
        {
          "duration": 0.023255813953483084,
          "durationTicks": 2,
          "midi": 50,
          "name": "D3",
          "ticks": 15132,
          "time": 175.95348837209303,
          "velocity": 0.23622047244094488
        },
        {
          "duration": 0.034883720930224626,
          "durationTicks": 3,
          "midi": 59,
          "name": "B3",
          "ticks": 15133,
          "time": 175.96511627906978,
          "velocity": 0.16535433070866143
        },
        {
          "duration": 0.12790697674418539,
          "durationTicks": 11,
          "midi": 50,
          "name": "D3",
          "ticks": 15135,
          "time": 175.98837209302326,
          "velocity": 0.30708661417322836
        },
        {
          "duration": 0.023255813953483084,
          "durationTicks": 2,
          "midi": 45,
          "name": "A2",
          "ticks": 15146,
          "time": 176.11627906976744,
          "velocity": 0.3543307086614173
        },
        {
          "duration": 0.023255813953483084,
          "durationTicks": 2,
          "midi": 56,
          "name": "G#3",
          "ticks": 15146,
          "time": 176.11627906976744,
          "velocity": 0.4251968503937008
        },
        {
          "duration": 0.08139534883721922,
          "durationTicks": 7,
          "midi": 66,
          "name": "F#4",
          "ticks": 15146,
          "time": 176.11627906976744,
          "velocity": 0.07874015748031496
        },
        {
          "duration": 0.17441860465115155,
          "durationTicks": 15,
          "midi": 69,
          "name": "A4",
          "ticks": 15147,
          "time": 176.12790697674419,
          "velocity": 0.2204724409448819
        },
        {
          "duration": 0.06976744186047767,
          "durationTicks": 6,
          "midi": 71,
          "name": "B4",
          "ticks": 15147,
          "time": 176.12790697674419,
          "velocity": 0.1889763779527559
        },
        {
          "duration": 0.023255813953483084,
          "durationTicks": 2,
          "midi": 57,
          "name": "A3",
          "ticks": 15149,
          "time": 176.15116279069767,
          "velocity": 0.3779527559055118
        },
        {
          "duration": 0.11627906976744384,
          "durationTicks": 10,
          "midi": 76,
          "name": "E5",
          "ticks": 15149,
          "time": 176.15116279069767,
          "velocity": 0.09448818897637795
        },
        {
          "duration": 0.08139534883721922,
          "durationTicks": 7,
          "midi": 57,
          "name": "A3",
          "ticks": 15152,
          "time": 176.1860465116279,
          "velocity": 0.4094488188976378
        },
        {
          "duration": 0.034883720930224626,
          "durationTicks": 3,
          "midi": 62,
          "name": "D4",
          "ticks": 15153,
          "time": 176.19767441860466,
          "velocity": 0.1732283464566929
        },
        {
          "duration": 0.09302325581396076,
          "durationTicks": 8,
          "midi": 66,
          "name": "F#4",
          "ticks": 15157,
          "time": 176.24418604651163,
          "velocity": 0.14960629921259844
        },
        {
          "duration": 0.06976744186047767,
          "durationTicks": 6,
          "midi": 71,
          "name": "B4",
          "ticks": 15157,
          "time": 176.24418604651163,
          "velocity": 0.1968503937007874
        },
        {
          "duration": 0.023255813953483084,
          "durationTicks": 2,
          "midi": 48,
          "name": "C3",
          "ticks": 15159,
          "time": 176.2674418604651,
          "velocity": 0.3937007874015748
        },
        {
          "duration": 0.1046511627907023,
          "durationTicks": 9,
          "midi": 59,
          "name": "B3",
          "ticks": 15161,
          "time": 176.2906976744186,
          "velocity": 0.33070866141732286
        },
        {
          "duration": 0.04651162790696617,
          "durationTicks": 4,
          "midi": 62,
          "name": "D4",
          "ticks": 15165,
          "time": 176.3372093023256,
          "velocity": 0.15748031496062992
        },
        {
          "duration": 0.023255813953483084,
          "durationTicks": 2,
          "midi": 48,
          "name": "C3",
          "ticks": 15167,
          "time": 176.36046511627907,
          "velocity": 0.3858267716535433
        },
        {
          "duration": 0.05813953488373613,
          "durationTicks": 5,
          "midi": 42,
          "name": "F#2",
          "ticks": 15172,
          "time": 176.41860465116278,
          "velocity": 0.2047244094488189
        },
        {
          "duration": 0.034883720930224626,
          "durationTicks": 3,
          "midi": 50,
          "name": "D3",
          "ticks": 15175,
          "time": 176.45348837209303,
          "velocity": 0.07086614173228346
        },
        {
          "duration": 0.023255813953483084,
          "durationTicks": 2,
          "midi": 49,
          "name": "C#3",
          "ticks": 15178,
          "time": 176.48837209302326,
          "velocity": 0.23622047244094488
        },
        {
          "duration": 0.023255813953483084,
          "durationTicks": 2,
          "midi": 46,
          "name": "A#2",
          "ticks": 15180,
          "time": 176.51162790697674,
          "velocity": 0.31496062992125984
        },
        {
          "duration": 0.11627906976744384,
          "durationTicks": 10,
          "midi": 71,
          "name": "B4",
          "ticks": 15180,
          "time": 176.51162790697674,
          "velocity": 0.25196850393700787
        },
        {
          "duration": 0.1046511627907023,
          "durationTicks": 9,
          "midi": 47,
          "name": "B2",
          "ticks": 15182,
          "time": 176.53488372093022,
          "velocity": 0.3779527559055118
        },
        {
          "duration": 0.1046511627907023,
          "durationTicks": 9,
          "midi": 75,
          "name": "D#5",
          "ticks": 15182,
          "time": 176.53488372093022,
          "velocity": 0.10236220472440945
        },
        {
          "duration": 0.1046511627907023,
          "durationTicks": 9,
          "midi": 56,
          "name": "G#3",
          "ticks": 15183,
          "time": 176.54651162790697,
          "velocity": 0.47244094488188976
        },
        {
          "duration": 0.034883720930224626,
          "durationTicks": 3,
          "midi": 70,
          "name": "A#4",
          "ticks": 15192,
          "time": 176.65116279069767,
          "velocity": 0.1732283464566929
        },
        {
          "duration": 0.023255813953483084,
          "durationTicks": 2,
          "midi": 41,
          "name": "F2",
          "ticks": 15193,
          "time": 176.6627906976744,
          "velocity": 0.29133858267716534
        },
        {
          "duration": 0.03488372093025305,
          "durationTicks": 3,
          "midi": 59,
          "name": "B3",
          "ticks": 15193,
          "time": 176.6627906976744,
          "velocity": 0.07874015748031496
        },
        {
          "duration": 0.05813953488373613,
          "durationTicks": 5,
          "midi": 42,
          "name": "F#2",
          "ticks": 15195,
          "time": 176.6860465116279,
          "velocity": 0.2047244094488189
        },
        {
          "duration": 0.1046511627907023,
          "durationTicks": 9,
          "midi": 67,
          "name": "G4",
          "ticks": 15202,
          "time": 176.7674418604651,
          "velocity": 0.1732283464566929
        },
        {
          "duration": 0.15116279069766847,
          "durationTicks": 13,
          "midi": 71,
          "name": "B4",
          "ticks": 15202,
          "time": 176.7674418604651,
          "velocity": 0.2283464566929134
        },
        {
          "duration": 0.12790697674418539,
          "durationTicks": 11,
          "midi": 74,
          "name": "D5",
          "ticks": 15202,
          "time": 176.7674418604651,
          "velocity": 0.15748031496062992
        },
        {
          "duration": 0.18604651162792152,
          "durationTicks": 16,
          "midi": 55,
          "name": "G3",
          "ticks": 15203,
          "time": 176.77906976744185,
          "velocity": 0.5196850393700787
        },
        {
          "duration": 0.11627906976744384,
          "durationTicks": 10,
          "midi": 47,
          "name": "B2",
          "ticks": 15205,
          "time": 176.80232558139534,
          "velocity": 0.3858267716535433
        },
        {
          "duration": 0.023255813953483084,
          "durationTicks": 2,
          "midi": 45,
          "name": "A2",
          "ticks": 15224,
          "time": 177.02325581395348,
          "velocity": 0.4015748031496063
        },
        {
          "duration": 0.034883720930224626,
          "durationTicks": 3,
          "midi": 66,
          "name": "F#4",
          "ticks": 15224,
          "time": 177.02325581395348,
          "velocity": 0.1732283464566929
        },
        {
          "duration": 0.12790697674418539,
          "durationTicks": 11,
          "midi": 53,
          "name": "F3",
          "ticks": 15225,
          "time": 177.03488372093022,
          "velocity": 0.3858267716535433
        },
        {
          "duration": 0.1046511627907023,
          "durationTicks": 9,
          "midi": 59,
          "name": "B3",
          "ticks": 15225,
          "time": 177.03488372093022,
          "velocity": 0.3228346456692913
        },
        {
          "duration": 0.06976744186047767,
          "durationTicks": 6,
          "midi": 77,
          "name": "F5",
          "ticks": 15225,
          "time": 177.03488372093022,
          "velocity": 0.09448818897637795
        },
        {
          "duration": 0.023255813953511506,
          "durationTicks": 2,
          "midi": 47,
          "name": "B2",
          "ticks": 15226,
          "time": 177.04651162790697,
          "velocity": 0.31496062992125984
        },
        {
          "duration": 0.05813953488370771,
          "durationTicks": 5,
          "midi": 47,
          "name": "B2",
          "ticks": 15229,
          "time": 177.08139534883722,
          "velocity": 0.3228346456692913
        },
        {
          "duration": 0.023255813953483084,
          "durationTicks": 2,
          "midi": 60,
          "name": "C4",
          "ticks": 15234,
          "time": 177.13953488372093,
          "velocity": 0.2283464566929134
        },
        {
          "duration": 0.06976744186047767,
          "durationTicks": 6,
          "midi": 66,
          "name": "F#4",
          "ticks": 15235,
          "time": 177.15116279069767,
          "velocity": 0.10236220472440945
        },
        {
          "duration": 0.09302325581396076,
          "durationTicks": 8,
          "midi": 71,
          "name": "B4",
          "ticks": 15235,
          "time": 177.15116279069767,
          "velocity": 0.2204724409448819
        },
        {
          "duration": 0.1046511627907023,
          "durationTicks": 9,
          "midi": 59,
          "name": "B3",
          "ticks": 15236,
          "time": 177.1627906976744,
          "velocity": 0.2677165354330709
        },
        {
          "duration": 0.09302325581396076,
          "durationTicks": 8,
          "midi": 47,
          "name": "B2",
          "ticks": 15237,
          "time": 177.17441860465115,
          "velocity": 0.3543307086614173
        },
        {
          "duration": 0.023255813953483084,
          "durationTicks": 2,
          "midi": 46,
          "name": "A#2",
          "ticks": 15245,
          "time": 177.2674418604651,
          "velocity": 0.33858267716535434
        },
        {
          "duration": 0.09302325581396076,
          "durationTicks": 8,
          "midi": 59,
          "name": "B3",
          "ticks": 15246,
          "time": 177.27906976744185,
          "velocity": 0.33070866141732286
        },
        {
          "duration": 0.05813953488373613,
          "durationTicks": 5,
          "midi": 66,
          "name": "F#4",
          "ticks": 15246,
          "time": 177.27906976744185,
          "velocity": 0.12598425196850394
        },
        {
          "duration": 0.04651162790699459,
          "durationTicks": 4,
          "midi": 47,
          "name": "B2",
          "ticks": 15247,
          "time": 177.2906976744186,
          "velocity": 0.3858267716535433
        },
        {
          "duration": 0.05813953488373613,
          "durationTicks": 5,
          "midi": 96,
          "name": "C7",
          "ticks": 15248,
          "time": 177.30232558139534,
          "velocity": 0.11023622047244094
        },
        {
          "duration": 0.023255813953483084,
          "durationTicks": 2,
          "midi": 48,
          "name": "C3",
          "ticks": 15251,
          "time": 177.3372093023256,
          "velocity": 0.4015748031496063
        },
        {
          "duration": 0.05813953488370771,
          "durationTicks": 5,
          "midi": 62,
          "name": "D4",
          "ticks": 15253,
          "time": 177.36046511627907,
          "velocity": 0.2047244094488189
        },
        {
          "duration": 0.023255813953483084,
          "durationTicks": 2,
          "midi": 48,
          "name": "C3",
          "ticks": 15254,
          "time": 177.37209302325581,
          "velocity": 0.41732283464566927
        },
        {
          "duration": 0.1046511627907023,
          "durationTicks": 9,
          "midi": 71,
          "name": "B4",
          "ticks": 15258,
          "time": 177.41860465116278,
          "velocity": 0.2283464566929134
        },
        {
          "duration": 0.11627906976744384,
          "durationTicks": 10,
          "midi": 59,
          "name": "B3",
          "ticks": 15259,
          "time": 177.43023255813952,
          "velocity": 0.25984251968503935
        },
        {
          "duration": 0.0813953488371908,
          "durationTicks": 7,
          "midi": 53,
          "name": "F3",
          "ticks": 15260,
          "time": 177.4418604651163,
          "velocity": 0.36220472440944884
        },
        {
          "duration": 0.09302325581393234,
          "durationTicks": 8,
          "midi": 47,
          "name": "B2",
          "ticks": 15261,
          "time": 177.45348837209303,
          "velocity": 0.3543307086614173
        },
        {
          "duration": 0.11627906976744384,
          "durationTicks": 10,
          "midi": 55,
          "name": "G3",
          "ticks": 15270,
          "time": 177.5581395348837,
          "velocity": 0.5196850393700787
        },
        {
          "duration": 0.1046511627907023,
          "durationTicks": 9,
          "midi": 74,
          "name": "D5",
          "ticks": 15270,
          "time": 177.5581395348837,
          "velocity": 0.1732283464566929
        },
        {
          "duration": 0.023255813953483084,
          "durationTicks": 2,
          "midi": 42,
          "name": "F#2",
          "ticks": 15278,
          "time": 177.65116279069767,
          "velocity": 0.2440944881889764
        },
        {
          "duration": 0.023255813953511506,
          "durationTicks": 2,
          "midi": 46,
          "name": "A#2",
          "ticks": 15281,
          "time": 177.6860465116279,
          "velocity": 0.4251968503937008
        },
        {
          "duration": 0.4418604651162923,
          "durationTicks": 38,
          "midi": 65,
          "name": "F4",
          "ticks": 15281,
          "time": 177.6860465116279,
          "velocity": 0.29133858267716534
        },
        {
          "duration": 0.03488372093025305,
          "durationTicks": 3,
          "midi": 82,
          "name": "A#5",
          "ticks": 15281,
          "time": 177.6860465116279,
          "velocity": 0.07874015748031496
        },
        {
          "duration": 0.06976744186047767,
          "durationTicks": 6,
          "midi": 92,
          "name": "G#6",
          "ticks": 15281,
          "time": 177.6860465116279,
          "velocity": 0.11023622047244094
        },
        {
          "duration": 0.19767441860463464,
          "durationTicks": 17,
          "midi": 84,
          "name": "C6",
          "ticks": 15282,
          "time": 177.69767441860466,
          "velocity": 0.09448818897637795
        },
        {
          "duration": 0.2674418604651123,
          "durationTicks": 23,
          "midi": 58,
          "name": "A#3",
          "ticks": 15283,
          "time": 177.7093023255814,
          "velocity": 0.36220472440944884
        },
        {
          "duration": 0.7325581395348877,
          "durationTicks": 63,
          "midi": 74,
          "name": "D5",
          "ticks": 15283,
          "time": 177.7093023255814,
          "velocity": 0.28346456692913385
        },
        {
          "duration": 0.7209302325581461,
          "durationTicks": 62,
          "midi": 46,
          "name": "A#2",
          "ticks": 15284,
          "time": 177.72093023255815,
          "velocity": 0.44881889763779526
        },
        {
          "duration": 0.12790697674418539,
          "durationTicks": 11,
          "midi": 53,
          "name": "F3",
          "ticks": 15294,
          "time": 177.8372093023256,
          "velocity": 0.31496062992125984
        },
        {
          "duration": 0.034883720930224626,
          "durationTicks": 3,
          "midi": 57,
          "name": "A3",
          "ticks": 15306,
          "time": 177.97674418604652,
          "velocity": 0.3937007874015748
        },
        {
          "duration": 0.034883720930224626,
          "durationTicks": 3,
          "midi": 53,
          "name": "F3",
          "ticks": 15308,
          "time": 178,
          "velocity": 0.2204724409448819
        },
        {
          "duration": 0.09302325581396076,
          "durationTicks": 8,
          "midi": 57,
          "name": "A3",
          "ticks": 15311,
          "time": 178.03488372093022,
          "velocity": 0.2677165354330709
        },
        {
          "duration": 0.32558139534884845,
          "durationTicks": 28,
          "midi": 62,
          "name": "D4",
          "ticks": 15318,
          "time": 178.11627906976744,
          "velocity": 0.3700787401574803
        },
        {
          "duration": 0.11627906976744384,
          "durationTicks": 10,
          "midi": 65,
          "name": "F4",
          "ticks": 15320,
          "time": 178.13953488372093,
          "velocity": 0.2755905511811024
        },
        {
          "duration": 0.10465116279067388,
          "durationTicks": 9,
          "midi": 57,
          "name": "A3",
          "ticks": 15325,
          "time": 178.19767441860466,
          "velocity": 0.2204724409448819
        },
        {
          "duration": 0.04651162790696617,
          "durationTicks": 4,
          "midi": 63,
          "name": "D#4",
          "ticks": 15346,
          "time": 178.4418604651163,
          "velocity": 0.33070866141732286
        },
        {
          "duration": 0.023255813953483084,
          "durationTicks": 2,
          "midi": 47,
          "name": "B2",
          "ticks": 15348,
          "time": 178.46511627906978,
          "velocity": 0.3937007874015748
        },
        {
          "duration": 0.04651162790696617,
          "durationTicks": 4,
          "midi": 64,
          "name": "E4",
          "ticks": 15350,
          "time": 178.48837209302326,
          "velocity": 0.2125984251968504
        },
        {
          "duration": 0.04651162790696617,
          "durationTicks": 4,
          "midi": 44,
          "name": "G#2",
          "ticks": 15351,
          "time": 178.5,
          "velocity": 0.3464566929133858
        },
        {
          "duration": 0.06976744186047767,
          "durationTicks": 6,
          "midi": 72,
          "name": "C5",
          "ticks": 15351,
          "time": 178.5,
          "velocity": 0.1732283464566929
        },
        {
          "duration": 0.05813953488373613,
          "durationTicks": 5,
          "midi": 51,
          "name": "D#3",
          "ticks": 15354,
          "time": 178.53488372093022,
          "velocity": 0.36220472440944884
        },
        {
          "duration": 0.023255813953511506,
          "durationTicks": 2,
          "midi": 42,
          "name": "F#2",
          "ticks": 15356,
          "time": 178.5581395348837,
          "velocity": 0.33070866141732286
        },
        {
          "duration": 0.04651162790696617,
          "durationTicks": 4,
          "midi": 41,
          "name": "F2",
          "ticks": 15358,
          "time": 178.58139534883722,
          "velocity": 0.33070866141732286
        },
        {
          "duration": 0.023255813953511506,
          "durationTicks": 2,
          "midi": 52,
          "name": "E3",
          "ticks": 15366,
          "time": 178.67441860465115,
          "velocity": 0.36220472440944884
        },
        {
          "duration": 0.04651162790699459,
          "durationTicks": 4,
          "midi": 74,
          "name": "D5",
          "ticks": 15367,
          "time": 178.6860465116279,
          "velocity": 0.08661417322834646
        },
        {
          "duration": 0.33720930232556157,
          "durationTicks": 29,
          "midi": 71,
          "name": "B4",
          "ticks": 15368,
          "time": 178.69767441860466,
          "velocity": 0.3228346456692913
        },
        {
          "duration": 0.034883720930224626,
          "durationTicks": 3,
          "midi": 51,
          "name": "D#3",
          "ticks": 15369,
          "time": 178.7093023255814,
          "velocity": 0.33858267716535434
        },
        {
          "duration": 0.034883720930224626,
          "durationTicks": 3,
          "midi": 55,
          "name": "G3",
          "ticks": 15369,
          "time": 178.7093023255814,
          "velocity": 0.36220472440944884
        },
        {
          "duration": 0.1046511627907023,
          "durationTicks": 9,
          "midi": 88,
          "name": "E6",
          "ticks": 15372,
          "time": 178.74418604651163,
          "velocity": 0.13385826771653545
        },
        {
          "duration": 0.023255813953483084,
          "durationTicks": 2,
          "midi": 55,
          "name": "G3",
          "ticks": 15373,
          "time": 178.75581395348837,
          "velocity": 0.4330708661417323
        },
        {
          "duration": 0.08139534883721922,
          "durationTicks": 7,
          "midi": 61,
          "name": "C#4",
          "ticks": 15373,
          "time": 178.75581395348837,
          "velocity": 0.28346456692913385
        },
        {
          "duration": 0.04651162790696617,
          "durationTicks": 4,
          "midi": 74,
          "name": "D5",
          "ticks": 15373,
          "time": 178.75581395348837,
          "velocity": 0.14173228346456693
        },
        {
          "duration": 0.11627906976744384,
          "durationTicks": 10,
          "midi": 80,
          "name": "G#5",
          "ticks": 15375,
          "time": 178.77906976744185,
          "velocity": 0.12598425196850394
        },
        {
          "duration": 0.09302325581396076,
          "durationTicks": 8,
          "midi": 52,
          "name": "E3",
          "ticks": 15376,
          "time": 178.7906976744186,
          "velocity": 0.4094488188976378
        },
        {
          "duration": 0.09302325581396076,
          "durationTicks": 8,
          "midi": 99,
          "name": "D#7",
          "ticks": 15376,
          "time": 178.7906976744186,
          "velocity": 0.11023622047244094
        },
        {
          "duration": 0.023255813953511506,
          "durationTicks": 2,
          "midi": 44,
          "name": "G#2",
          "ticks": 15377,
          "time": 178.80232558139534,
          "velocity": 0.3543307086614173
        },
        {
          "duration": 0.03488372093025305,
          "durationTicks": 3,
          "midi": 57,
          "name": "A3",
          "ticks": 15377,
          "time": 178.80232558139534,
          "velocity": 0.29133858267716534
        },
        {
          "duration": 0.023255813953483084,
          "durationTicks": 2,
          "midi": 46,
          "name": "A#2",
          "ticks": 15380,
          "time": 178.8372093023256,
          "velocity": 0.25984251968503935
        },
        {
          "duration": 0.04651162790696617,
          "durationTicks": 4,
          "midi": 86,
          "name": "D6",
          "ticks": 15380,
          "time": 178.8372093023256,
          "velocity": 0.11023622047244094
        },
        {
          "duration": 0.023255813953483084,
          "durationTicks": 2,
          "midi": 44,
          "name": "G#2",
          "ticks": 15382,
          "time": 178.86046511627907,
          "velocity": 0.31496062992125984
        },
        {
          "duration": 0.12790697674418539,
          "durationTicks": 11,
          "midi": 61,
          "name": "C#4",
          "ticks": 15382,
          "time": 178.86046511627907,
          "velocity": 0.29133858267716534
        },
        {
          "duration": 0.24418604651162923,
          "durationTicks": 21,
          "midi": 55,
          "name": "G3",
          "ticks": 15384,
          "time": 178.88372093023256,
          "velocity": 0.5118110236220472
        },
        {
          "duration": 0.034883720930224626,
          "durationTicks": 3,
          "midi": 88,
          "name": "E6",
          "ticks": 15384,
          "time": 178.88372093023256,
          "velocity": 0.14173228346456693
        },
        {
          "duration": 0.1046511627907023,
          "durationTicks": 9,
          "midi": 101,
          "name": "F7",
          "ticks": 15385,
          "time": 178.8953488372093,
          "velocity": 0.10236220472440945
        },
        {
          "duration": 0.11627906976744384,
          "durationTicks": 10,
          "midi": 74,
          "name": "D5",
          "ticks": 15387,
          "time": 178.91860465116278,
          "velocity": 0.2283464566929134
        },
        {
          "duration": 0.034883720930224626,
          "durationTicks": 3,
          "midi": 79,
          "name": "G5",
          "ticks": 15389,
          "time": 178.9418604651163,
          "velocity": 0.07086614173228346
        },
        {
          "duration": 0.06976744186047767,
          "durationTicks": 6,
          "midi": 64,
          "name": "E4",
          "ticks": 15394,
          "time": 179,
          "velocity": 0.15748031496062992
        },
        {
          "duration": 0.04651162790696617,
          "durationTicks": 4,
          "midi": 45,
          "name": "A2",
          "ticks": 15395,
          "time": 179.01162790697674,
          "velocity": 0.23622047244094488
        },
        {
          "duration": 0.05813953488373613,
          "durationTicks": 5,
          "midi": 61,
          "name": "C#4",
          "ticks": 15399,
          "time": 179.0581395348837,
          "velocity": 0.07874015748031496
        },
        {
          "duration": 0.05813953488370771,
          "durationTicks": 5,
          "midi": 45,
          "name": "A2",
          "ticks": 15400,
          "time": 179.06976744186048,
          "velocity": 0.29133858267716534
        },
        {
          "duration": 0.023255813953483084,
          "durationTicks": 2,
          "midi": 56,
          "name": "G#3",
          "ticks": 15405,
          "time": 179.12790697674419,
          "velocity": 0.25984251968503935
        },
        {
          "duration": 0.023255813953483084,
          "durationTicks": 2,
          "midi": 62,
          "name": "D4",
          "ticks": 15405,
          "time": 179.12790697674419,
          "velocity": 0.2677165354330709
        },
        {
          "duration": 0.023255813953483084,
          "durationTicks": 2,
          "midi": 45,
          "name": "A2",
          "ticks": 15406,
          "time": 179.13953488372093,
          "velocity": 0.3543307086614173
        },
        {
          "duration": 0.023255813953483084,
          "durationTicks": 2,
          "midi": 64,
          "name": "E4",
          "ticks": 15406,
          "time": 179.13953488372093,
          "velocity": 0.29133858267716534
        },
        {
          "duration": 0.09302325581396076,
          "durationTicks": 8,
          "midi": 73,
          "name": "C#5",
          "ticks": 15406,
          "time": 179.13953488372093,
          "velocity": 0.2440944881889764
        },
        {
          "duration": 0.3139534883721069,
          "durationTicks": 27,
          "midi": 83,
          "name": "B5",
          "ticks": 15406,
          "time": 179.13953488372093,
          "velocity": 0.2755905511811024
        },
        {
          "duration": 0.27906976744185386,
          "durationTicks": 24,
          "midi": 61,
          "name": "C#4",
          "ticks": 15407,
          "time": 179.15116279069767,
          "velocity": 0.44881889763779526
        },
        {
          "duration": 0.2674418604651123,
          "durationTicks": 23,
          "midi": 101,
          "name": "F7",
          "ticks": 15407,
          "time": 179.15116279069767,
          "velocity": 0.1889763779527559
        },
        {
          "duration": 0.023255813953483084,
          "durationTicks": 2,
          "midi": 54,
          "name": "F#3",
          "ticks": 15408,
          "time": 179.1627906976744,
          "velocity": 0.3858267716535433
        },
        {
          "duration": 0.08139534883721922,
          "durationTicks": 7,
          "midi": 67,
          "name": "G4",
          "ticks": 15408,
          "time": 179.1627906976744,
          "velocity": 0.2047244094488189
        },
        {
          "duration": 0.03488372093025305,
          "durationTicks": 3,
          "midi": 89,
          "name": "F6",
          "ticks": 15408,
          "time": 179.1627906976744,
          "velocity": 0.15748031496062992
        },
        {
          "duration": 0.05813953488373613,
          "durationTicks": 5,
          "midi": 92,
          "name": "G#6",
          "ticks": 15408,
          "time": 179.1627906976744,
          "velocity": 0.14960629921259844
        },
        {
          "duration": 0.26744186046514073,
          "durationTicks": 23,
          "midi": 80,
          "name": "G#5",
          "ticks": 15409,
          "time": 179.17441860465115,
          "velocity": 0.25196850393700787
        },
        {
          "duration": 0.22093023255814614,
          "durationTicks": 19,
          "midi": 55,
          "name": "G3",
          "ticks": 15410,
          "time": 179.1860465116279,
          "velocity": 0.4251968503937008
        },
        {
          "duration": 0.034883720930224626,
          "durationTicks": 3,
          "midi": 44,
          "name": "G#2",
          "ticks": 15411,
          "time": 179.19767441860466,
          "velocity": 0.2204724409448819
        },
        {
          "duration": 0.25581395348837077,
          "durationTicks": 22,
          "midi": 71,
          "name": "B4",
          "ticks": 15411,
          "time": 179.19767441860466,
          "velocity": 0.1889763779527559
        },
        {
          "duration": 0.15116279069766847,
          "durationTicks": 13,
          "midi": 89,
          "name": "F6",
          "ticks": 15412,
          "time": 179.2093023255814,
          "velocity": 0.15748031496062992
        },
        {
          "duration": 0.13953488372092693,
          "durationTicks": 12,
          "midi": 74,
          "name": "D5",
          "ticks": 15413,
          "time": 179.22093023255815,
          "velocity": 0.18110236220472442
        },
        {
          "duration": 0.32558139534884845,
          "durationTicks": 28,
          "midi": 45,
          "name": "A2",
          "ticks": 15415,
          "time": 179.24418604651163,
          "velocity": 0.25984251968503935
        },
        {
          "duration": 0.05813953488373613,
          "durationTicks": 5,
          "midi": 99,
          "name": "D#7",
          "ticks": 15419,
          "time": 179.2906976744186,
          "velocity": 0.07086614173228346
        },
        {
          "duration": 0.1860465116278931,
          "durationTicks": 16,
          "midi": 76,
          "name": "E5",
          "ticks": 15421,
          "time": 179.3139534883721,
          "velocity": 0.12598425196850394
        },
        {
          "duration": 0.04651162790699459,
          "durationTicks": 4,
          "midi": 62,
          "name": "D4",
          "ticks": 15431,
          "time": 179.43023255813952,
          "velocity": 0.3700787401574803
        },
        {
          "duration": 0.034883720930224626,
          "durationTicks": 3,
          "midi": 53,
          "name": "F3",
          "ticks": 15432,
          "time": 179.4418604651163,
          "velocity": 0.1732283464566929
        },
        {
          "duration": 0.023255813953483084,
          "durationTicks": 2,
          "midi": 63,
          "name": "D#4",
          "ticks": 15435,
          "time": 179.47674418604652,
          "velocity": 0.25196850393700787
        },
        {
          "duration": 0.023255813953483084,
          "durationTicks": 2,
          "midi": 54,
          "name": "F#3",
          "ticks": 15436,
          "time": 179.48837209302326,
          "velocity": 0.3858267716535433
        },
        {
          "duration": 0.034883720930224626,
          "durationTicks": 3,
          "midi": 83,
          "name": "B5",
          "ticks": 15437,
          "time": 179.5,
          "velocity": 0.14960629921259844
        },
        {
          "duration": 0.05813953488373613,
          "durationTicks": 5,
          "midi": 55,
          "name": "G3",
          "ticks": 15438,
          "time": 179.51162790697674,
          "velocity": 0.4409448818897638
        },
        {
          "duration": 0.04651162790696617,
          "durationTicks": 4,
          "midi": 88,
          "name": "E6",
          "ticks": 15438,
          "time": 179.51162790697674,
          "velocity": 0.08661417322834646
        },
        {
          "duration": 0.023255813953511506,
          "durationTicks": 2,
          "midi": 65,
          "name": "F4",
          "ticks": 15441,
          "time": 179.54651162790697,
          "velocity": 0.2440944881889764
        },
        {
          "duration": 0.13953488372092693,
          "durationTicks": 12,
          "midi": 76,
          "name": "E5",
          "ticks": 15441,
          "time": 179.54651162790697,
          "velocity": 0.1889763779527559
        },
        {
          "duration": 0.04651162790699459,
          "durationTicks": 4,
          "midi": 69,
          "name": "A4",
          "ticks": 15442,
          "time": 179.5581395348837,
          "velocity": 0.1889763779527559
        },
        {
          "duration": 0.13953488372092693,
          "durationTicks": 12,
          "midi": 64,
          "name": "E4",
          "ticks": 15443,
          "time": 179.56976744186048,
          "velocity": 0.1732283464566929
        },
        {
          "duration": 0.023255813953483084,
          "durationTicks": 2,
          "midi": 71,
          "name": "B4",
          "ticks": 15445,
          "time": 179.59302325581396,
          "velocity": 0.23622047244094488
        },
        {
          "duration": 0.05813953488370771,
          "durationTicks": 5,
          "midi": 57,
          "name": "A3",
          "ticks": 15447,
          "time": 179.61627906976744,
          "velocity": 0.2204724409448819
        },
        {
          "duration": 0.06976744186047767,
          "durationTicks": 6,
          "midi": 45,
          "name": "A2",
          "ticks": 15448,
          "time": 179.62790697674419,
          "velocity": 0.2125984251968504
        },
        {
          "duration": 0.034883720930224626,
          "durationTicks": 3,
          "midi": 50,
          "name": "D3",
          "ticks": 15459,
          "time": 179.75581395348837,
          "velocity": 0.3543307086614173
        },
        {
          "duration": 0.034883720930224626,
          "durationTicks": 3,
          "midi": 61,
          "name": "C#4",
          "ticks": 15459,
          "time": 179.75581395348837,
          "velocity": 0.36220472440944884
        },
        {
          "duration": 0.45348837209303383,
          "durationTicks": 39,
          "midi": 74,
          "name": "D5",
          "ticks": 15460,
          "time": 179.7674418604651,
          "velocity": 0.31496062992125984
        },
        {
          "duration": 0.25581395348837077,
          "durationTicks": 22,
          "midi": 57,
          "name": "A3",
          "ticks": 15461,
          "time": 179.77906976744185,
          "velocity": 0.48031496062992124
        },
        {
          "duration": 0.06976744186047767,
          "durationTicks": 6,
          "midi": 88,
          "name": "E6",
          "ticks": 15461,
          "time": 179.77906976744185,
          "velocity": 0.14173228346456693
        },
        {
          "duration": 0.38372093023255616,
          "durationTicks": 33,
          "midi": 62,
          "name": "D4",
          "ticks": 15462,
          "time": 179.7906976744186,
          "velocity": 0.4566929133858268
        },
        {
          "duration": 0.18604651162792152,
          "durationTicks": 16,
          "midi": 76,
          "name": "E5",
          "ticks": 15462,
          "time": 179.7906976744186,
          "velocity": 0.16535433070866143
        },
        {
          "duration": 0.3953488372092977,
          "durationTicks": 34,
          "midi": 81,
          "name": "A5",
          "ticks": 15462,
          "time": 179.7906976744186,
          "velocity": 0.23622047244094488
        },
        {
          "duration": 0.08139534883721922,
          "durationTicks": 7,
          "midi": 102,
          "name": "F#7",
          "ticks": 15463,
          "time": 179.80232558139534,
          "velocity": 0.14173228346456693
        },
        {
          "duration": 0.2325581395348877,
          "durationTicks": 20,
          "midi": 50,
          "name": "D3",
          "ticks": 15466,
          "time": 179.8372093023256,
          "velocity": 0.3464566929133858
        },
        {
          "duration": 0.023255813953483084,
          "durationTicks": 2,
          "midi": 41,
          "name": "F2",
          "ticks": 15481,
          "time": 180.01162790697674,
          "velocity": 0.31496062992125984
        },
        {
          "duration": 0.034883720930224626,
          "durationTicks": 3,
          "midi": 78,
          "name": "F#5",
          "ticks": 15481,
          "time": 180.01162790697674,
          "velocity": 0.15748031496062992
        },
        {
          "duration": 0.16279069767441,
          "durationTicks": 14,
          "midi": 93,
          "name": "A6",
          "ticks": 15482,
          "time": 180.02325581395348,
          "velocity": 0.2440944881889764
        },
        {
          "duration": 0.05813953488373613,
          "durationTicks": 5,
          "midi": 79,
          "name": "G5",
          "ticks": 15483,
          "time": 180.03488372093022,
          "velocity": 0.11811023622047244
        },
        {
          "duration": 0.03488372093025305,
          "durationTicks": 3,
          "midi": 102,
          "name": "F#7",
          "ticks": 15483,
          "time": 180.03488372093022,
          "velocity": 0.10236220472440945
        },
        {
          "duration": 0.11627906976744384,
          "durationTicks": 10,
          "midi": 57,
          "name": "A3",
          "ticks": 15485,
          "time": 180.0581395348837,
          "velocity": 0.48031496062992124
        },
        {
          "duration": 0.12790697674418539,
          "durationTicks": 11,
          "midi": 76,
          "name": "E5",
          "ticks": 15485,
          "time": 180.0581395348837,
          "velocity": 0.15748031496062992
        },
        {
          "duration": 0.09302325581393234,
          "durationTicks": 8,
          "midi": 45,
          "name": "A2",
          "ticks": 15487,
          "time": 180.08139534883722,
          "velocity": 0.4251968503937008
        },
        {
          "duration": 0.05813953488373613,
          "durationTicks": 5,
          "midi": 56,
          "name": "G#3",
          "ticks": 15495,
          "time": 180.17441860465115,
          "velocity": 0.4015748031496063
        },
        {
          "duration": 0.03488372093025305,
          "durationTicks": 3,
          "midi": 45,
          "name": "A2",
          "ticks": 15496,
          "time": 180.1860465116279,
          "velocity": 0.36220472440944884
        },
        {
          "duration": 0.034883720930224626,
          "durationTicks": 3,
          "midi": 50,
          "name": "D3",
          "ticks": 15498,
          "time": 180.2093023255814,
          "velocity": 0.28346456692913385
        },
        {
          "duration": 0.17441860465117998,
          "durationTicks": 15,
          "midi": 76,
          "name": "E5",
          "ticks": 15505,
          "time": 180.2906976744186,
          "velocity": 0.23622047244094488
        },
        {
          "duration": 0.023255813953511506,
          "durationTicks": 2,
          "midi": 56,
          "name": "G#3",
          "ticks": 15506,
          "time": 180.30232558139534,
          "velocity": 0.5118110236220472
        },
        {
          "duration": 0.25581395348837077,
          "durationTicks": 22,
          "midi": 62,
          "name": "D4",
          "ticks": 15506,
          "time": 180.30232558139534,
          "velocity": 0.36220472440944884
        },
        {
          "duration": 0.13953488372095535,
          "durationTicks": 12,
          "midi": 81,
          "name": "A5",
          "ticks": 15506,
          "time": 180.30232558139534,
          "velocity": 0.2992125984251969
        },
        {
          "duration": 0.13953488372095535,
          "durationTicks": 12,
          "midi": 88,
          "name": "E6",
          "ticks": 15506,
          "time": 180.30232558139534,
          "velocity": 0.28346456692913385
        },
        {
          "duration": 0.2441860465116008,
          "durationTicks": 21,
          "midi": 69,
          "name": "A4",
          "ticks": 15507,
          "time": 180.3139534883721,
          "velocity": 0.33070866141732286
        },
        {
          "duration": 0.023255813953483084,
          "durationTicks": 2,
          "midi": 45,
          "name": "A2",
          "ticks": 15508,
          "time": 180.32558139534885,
          "velocity": 0.31496062992125984
        },
        {
          "duration": 0.09302325581393234,
          "durationTicks": 8,
          "midi": 57,
          "name": "A3",
          "ticks": 15508,
          "time": 180.32558139534885,
          "velocity": 0.33070866141732286
        },
        {
          "duration": 0.0813953488371908,
          "durationTicks": 7,
          "midi": 103,
          "name": "G7",
          "ticks": 15508,
          "time": 180.32558139534885,
          "velocity": 0.15748031496062992
        },
        {
          "duration": 0.04651162790696617,
          "durationTicks": 4,
          "midi": 44,
          "name": "G#2",
          "ticks": 15510,
          "time": 180.34883720930233,
          "velocity": 0.3858267716535433
        },
        {
          "duration": 0.034883720930224626,
          "durationTicks": 3,
          "midi": 97,
          "name": "C#7",
          "ticks": 15510,
          "time": 180.34883720930233,
          "velocity": 0.11023622047244094
        },
        {
          "duration": 0.03488372093025305,
          "durationTicks": 3,
          "midi": 44,
          "name": "G#2",
          "ticks": 15515,
          "time": 180.40697674418604,
          "velocity": 0.33858267716535434
        },
        {
          "duration": 0.11627906976741542,
          "durationTicks": 10,
          "midi": 45,
          "name": "A2",
          "ticks": 15518,
          "time": 180.4418604651163,
          "velocity": 0.3543307086614173
        },
        {
          "duration": 0.10465116279067388,
          "durationTicks": 9,
          "midi": 57,
          "name": "A3",
          "ticks": 15519,
          "time": 180.45348837209303,
          "velocity": 0.3937007874015748
        },
        {
          "duration": 0.03488372093025305,
          "durationTicks": 3,
          "midi": 73,
          "name": "C#5",
          "ticks": 15527,
          "time": 180.54651162790697,
          "velocity": 0.08661417322834646
        },
        {
          "duration": 0.023255813953511506,
          "durationTicks": 2,
          "midi": 44,
          "name": "G#2",
          "ticks": 15528,
          "time": 180.5581395348837,
          "velocity": 0.3228346456692913
        },
        {
          "duration": 0.023255813953483084,
          "durationTicks": 2,
          "midi": 57,
          "name": "A3",
          "ticks": 15530,
          "time": 180.58139534883722,
          "velocity": 0.2283464566929134
        },
        {
          "duration": 0.03488372093025305,
          "durationTicks": 3,
          "midi": 55,
          "name": "G3",
          "ticks": 15538,
          "time": 180.67441860465115,
          "velocity": 0.3858267716535433
        },
        {
          "duration": 0.023255813953511506,
          "durationTicks": 2,
          "midi": 61,
          "name": "C#4",
          "ticks": 15538,
          "time": 180.67441860465115,
          "velocity": 0.25984251968503935
        },
        {
          "duration": 0.03488372093025305,
          "durationTicks": 3,
          "midi": 86,
          "name": "D6",
          "ticks": 15538,
          "time": 180.67441860465115,
          "velocity": 0.2204724409448819
        },
        {
          "duration": 0.13953488372095535,
          "durationTicks": 12,
          "midi": 68,
          "name": "G#4",
          "ticks": 15539,
          "time": 180.6860465116279,
          "velocity": 0.30708661417322836
        },
        {
          "duration": 0.06976744186047767,
          "durationTicks": 6,
          "midi": 74,
          "name": "D5",
          "ticks": 15539,
          "time": 180.6860465116279,
          "velocity": 0.15748031496062992
        },
        {
          "duration": 0.03488372093025305,
          "durationTicks": 3,
          "midi": 76,
          "name": "E5",
          "ticks": 15539,
          "time": 180.6860465116279,
          "velocity": 0.13385826771653545
        },
        {
          "duration": 0.24418604651162923,
          "durationTicks": 21,
          "midi": 62,
          "name": "D4",
          "ticks": 15540,
          "time": 180.69767441860466,
          "velocity": 0.3858267716535433
        },
        {
          "duration": 0.0813953488371908,
          "durationTicks": 7,
          "midi": 87,
          "name": "D#6",
          "ticks": 15540,
          "time": 180.69767441860466,
          "velocity": 0.09448818897637795
        },
        {
          "duration": 0.034883720930224626,
          "durationTicks": 3,
          "midi": 89,
          "name": "F6",
          "ticks": 15540,
          "time": 180.69767441860466,
          "velocity": 0.11811023622047244
        },
        {
          "duration": 0.09302325581393234,
          "durationTicks": 8,
          "midi": 85,
          "name": "C#6",
          "ticks": 15541,
          "time": 180.7093023255814,
          "velocity": 0.07086614173228346
        },
        {
          "duration": 0.04651162790696617,
          "durationTicks": 4,
          "midi": 93,
          "name": "A6",
          "ticks": 15541,
          "time": 180.7093023255814,
          "velocity": 0.13385826771653545
        },
        {
          "duration": 0.05813953488370771,
          "durationTicks": 5,
          "midi": 45,
          "name": "A2",
          "ticks": 15543,
          "time": 180.7325581395349,
          "velocity": 0.33070866141732286
        },
        {
          "duration": 0.08139534883721922,
          "durationTicks": 7,
          "midi": 56,
          "name": "G#3",
          "ticks": 15543,
          "time": 180.7325581395349,
          "velocity": 0.4566929133858268
        },
        {
          "duration": 0.04651162790696617,
          "durationTicks": 4,
          "midi": 75,
          "name": "D#5",
          "ticks": 15544,
          "time": 180.74418604651163,
          "velocity": 0.14960629921259844
        },
        {
          "duration": 0.1046511627907023,
          "durationTicks": 9,
          "midi": 93,
          "name": "A6",
          "ticks": 15548,
          "time": 180.7906976744186,
          "velocity": 0.11811023622047244
        },
        {
          "duration": 0.034883720930224626,
          "durationTicks": 3,
          "midi": 97,
          "name": "C#7",
          "ticks": 15551,
          "time": 180.82558139534885,
          "velocity": 0.07086614173228346
        },
        {
          "duration": 0.11627906976744384,
          "durationTicks": 10,
          "midi": 57,
          "name": "A3",
          "ticks": 15552,
          "time": 180.8372093023256,
          "velocity": 0.36220472440944884
        },
        {
          "duration": 0.023255813953483084,
          "durationTicks": 2,
          "midi": 45,
          "name": "A2",
          "ticks": 15556,
          "time": 180.88372093023256,
          "velocity": 0.23622047244094488
        },
        {
          "duration": 0.023255813953483084,
          "durationTicks": 2,
          "midi": 50,
          "name": "D3",
          "ticks": 15556,
          "time": 180.88372093023256,
          "velocity": 0.2440944881889764
        },
        {
          "duration": 0.023255813953511506,
          "durationTicks": 2,
          "midi": 50,
          "name": "D3",
          "ticks": 15559,
          "time": 180.91860465116278,
          "velocity": 0.28346456692913385
        },
        {
          "duration": 0.023255813953483084,
          "durationTicks": 2,
          "midi": 61,
          "name": "C#4",
          "ticks": 15561,
          "time": 180.9418604651163,
          "velocity": 0.25984251968503935
        },
        {
          "duration": 0.12790697674418539,
          "durationTicks": 11,
          "midi": 67,
          "name": "G4",
          "ticks": 15561,
          "time": 180.9418604651163,
          "velocity": 0.28346456692913385
        },
        {
          "duration": 0.16279069767441,
          "durationTicks": 14,
          "midi": 79,
          "name": "G5",
          "ticks": 15561,
          "time": 180.9418604651163,
          "velocity": 0.29133858267716534
        },
        {
          "duration": 0.023255813953483084,
          "durationTicks": 2,
          "midi": 44,
          "name": "G#2",
          "ticks": 15562,
          "time": 180.95348837209303,
          "velocity": 0.3700787401574803
        },
        {
          "duration": 0.1046511627907023,
          "durationTicks": 9,
          "midi": 62,
          "name": "D4",
          "ticks": 15563,
          "time": 180.96511627906978,
          "velocity": 0.1968503937007874
        },
        {
          "duration": 0.0813953488371908,
          "durationTicks": 7,
          "midi": 45,
          "name": "A2",
          "ticks": 15564,
          "time": 180.97674418604652,
          "velocity": 0.36220472440944884
        },
        {
          "duration": 0.13953488372092693,
          "durationTicks": 12,
          "midi": 55,
          "name": "G3",
          "ticks": 15564,
          "time": 180.97674418604652,
          "velocity": 0.48031496062992124
        },
        {
          "duration": 0.023255813953483084,
          "durationTicks": 2,
          "midi": 46,
          "name": "A#2",
          "ticks": 15572,
          "time": 181.06976744186048,
          "velocity": 0.30708661417322836
        },
        {
          "duration": 0.034883720930224626,
          "durationTicks": 3,
          "midi": 66,
          "name": "F#4",
          "ticks": 15572,
          "time": 181.06976744186048,
          "velocity": 0.14960629921259844
        },
        {
          "duration": 0.06976744186044925,
          "durationTicks": 6,
          "midi": 44,
          "name": "G#2",
          "ticks": 15574,
          "time": 181.09302325581396,
          "velocity": 0.3543307086614173
        },
        {
          "duration": 0.1046511627907023,
          "durationTicks": 9,
          "midi": 65,
          "name": "F4",
          "ticks": 15582,
          "time": 181.1860465116279,
          "velocity": 0.2283464566929134
        },
        {
          "duration": 0.4651162790697754,
          "durationTicks": 40,
          "midi": 86,
          "name": "D6",
          "ticks": 15582,
          "time": 181.1860465116279,
          "velocity": 0.25984251968503935
        },
        {
          "duration": 0.023255813953483084,
          "durationTicks": 2,
          "midi": 42,
          "name": "F#2",
          "ticks": 15583,
          "time": 181.19767441860466,
          "velocity": 0.23622047244094488
        },
        {
          "duration": 0.023255813953483084,
          "durationTicks": 2,
          "midi": 54,
          "name": "F#3",
          "ticks": 15583,
          "time": 181.19767441860466,
          "velocity": 0.4330708661417323
        },
        {
          "duration": 0.12790697674418539,
          "durationTicks": 11,
          "midi": 74,
          "name": "D5",
          "ticks": 15583,
          "time": 181.19767441860466,
          "velocity": 0.13385826771653545
        },
        {
          "duration": 0.25581395348837077,
          "durationTicks": 22,
          "midi": 62,
          "name": "D4",
          "ticks": 15584,
          "time": 181.2093023255814,
          "velocity": 0.33858267716535434
        },
        {
          "duration": 0.24418604651162923,
          "durationTicks": 21,
          "midi": 72,
          "name": "C5",
          "ticks": 15584,
          "time": 181.2093023255814,
          "velocity": 0.2283464566929134
        },
        {
          "duration": 0.25581395348837077,
          "durationTicks": 22,
          "midi": 81,
          "name": "A5",
          "ticks": 15584,
          "time": 181.2093023255814,
          "velocity": 0.16535433070866143
        },
        {
          "duration": 0.034883720930224626,
          "durationTicks": 3,
          "midi": 91,
          "name": "G6",
          "ticks": 15584,
          "time": 181.2093023255814,
          "velocity": 0.08661417322834646
        },
        {
          "duration": 0.1046511627907023,
          "durationTicks": 9,
          "midi": 99,
          "name": "D#7",
          "ticks": 15584,
          "time": 181.2093023255814,
          "velocity": 0.07874015748031496
        },
        {
          "duration": 0.034883720930224626,
          "durationTicks": 3,
          "midi": 53,
          "name": "F3",
          "ticks": 15585,
          "time": 181.22093023255815,
          "velocity": 0.41732283464566927
        },
        {
          "duration": 0.04651162790696617,
          "durationTicks": 4,
          "midi": 44,
          "name": "G#2",
          "ticks": 15586,
          "time": 181.2325581395349,
          "velocity": 0.36220472440944884
        },
        {
          "duration": 0.3604651162790731,
          "durationTicks": 31,
          "midi": 57,
          "name": "A3",
          "ticks": 15586,
          "time": 181.2325581395349,
          "velocity": 0.44881889763779526
        },
        {
          "duration": 0.08139534883721922,
          "durationTicks": 7,
          "midi": 45,
          "name": "A2",
          "ticks": 15590,
          "time": 181.27906976744185,
          "velocity": 0.3779527559055118
        },
        {
          "duration": 0.04651162790699459,
          "durationTicks": 4,
          "midi": 65,
          "name": "F4",
          "ticks": 15592,
          "time": 181.30232558139534,
          "velocity": 0.2125984251968504
        },
        {
          "duration": 0.023255813953483084,
          "durationTicks": 2,
          "midi": 45,
          "name": "A2",
          "ticks": 15600,
          "time": 181.3953488372093,
          "velocity": 0.2677165354330709
        },
        {
          "duration": 0.023255813953511506,
          "durationTicks": 2,
          "midi": 48,
          "name": "C3",
          "ticks": 15602,
          "time": 181.41860465116278,
          "velocity": 0.2677165354330709
        },
        {
          "duration": 0.16279069767441,
          "durationTicks": 14,
          "midi": 74,
          "name": "D5",
          "ticks": 15605,
          "time": 181.45348837209303,
          "velocity": 0.36220472440944884
        },
        {
          "duration": 0.1046511627907023,
          "durationTicks": 9,
          "midi": 50,
          "name": "D3",
          "ticks": 15607,
          "time": 181.47674418604652,
          "velocity": 0.3937007874015748
        },
        {
          "duration": 0.13953488372092693,
          "durationTicks": 12,
          "midi": 53,
          "name": "F3",
          "ticks": 15617,
          "time": 181.59302325581396,
          "velocity": 0.4409448818897638
        },
        {
          "duration": 0.12790697674418539,
          "durationTicks": 11,
          "midi": 77,
          "name": "F5",
          "ticks": 15617,
          "time": 181.59302325581396,
          "velocity": 0.2047244094488189
        },
        {
          "duration": 0.15116279069766847,
          "durationTicks": 13,
          "midi": 72,
          "name": "C5",
          "ticks": 15618,
          "time": 181.6046511627907,
          "velocity": 0.23622047244094488
        },
        {
          "duration": 0.1046511627907023,
          "durationTicks": 9,
          "midi": 57,
          "name": "A3",
          "ticks": 15619,
          "time": 181.61627906976744,
          "velocity": 0.36220472440944884
        },
        {
          "duration": 0.034883720930224626,
          "durationTicks": 3,
          "midi": 62,
          "name": "D4",
          "ticks": 15619,
          "time": 181.61627906976744,
          "velocity": 0.29133858267716534
        },
        {
          "duration": 0.023255813953483084,
          "durationTicks": 2,
          "midi": 46,
          "name": "A#2",
          "ticks": 15620,
          "time": 181.62790697674419,
          "velocity": 0.2755905511811024
        },
        {
          "duration": 0.19767441860466306,
          "durationTicks": 17,
          "midi": 45,
          "name": "A2",
          "ticks": 15622,
          "time": 181.65116279069767,
          "velocity": 0.3700787401574803
        },
        {
          "duration": 0.04651162790699459,
          "durationTicks": 4,
          "midi": 62,
          "name": "D4",
          "ticks": 15623,
          "time": 181.6627906976744,
          "velocity": 0.25984251968503935
        },
        {
          "duration": 0.5697674418604493,
          "durationTicks": 49,
          "midi": 74,
          "name": "D5",
          "ticks": 15628,
          "time": 181.72093023255815,
          "velocity": 0.41732283464566927
        },
        {
          "duration": 0.12790697674418539,
          "durationTicks": 11,
          "midi": 79,
          "name": "G5",
          "ticks": 15628,
          "time": 181.72093023255815,
          "velocity": 0.15748031496062992
        },
        {
          "duration": 0.023255813953483084,
          "durationTicks": 2,
          "midi": 56,
          "name": "G#3",
          "ticks": 15629,
          "time": 181.7325581395349,
          "velocity": 0.31496062992125984
        },
        {
          "duration": 0.04651162790696617,
          "durationTicks": 4,
          "midi": 64,
          "name": "E4",
          "ticks": 15629,
          "time": 181.7325581395349,
          "velocity": 0.2204724409448819
        },
        {
          "duration": 0.08139534883721922,
          "durationTicks": 7,
          "midi": 78,
          "name": "F#5",
          "ticks": 15629,
          "time": 181.7325581395349,
          "velocity": 0.15748031496062992
        },
        {
          "duration": 0.11627906976744384,
          "durationTicks": 10,
          "midi": 83,
          "name": "B5",
          "ticks": 15629,
          "time": 181.7325581395349,
          "velocity": 0.13385826771653545
        },
        {
          "duration": 0.1046511627907023,
          "durationTicks": 9,
          "midi": 89,
          "name": "F6",
          "ticks": 15629,
          "time": 181.7325581395349,
          "velocity": 0.13385826771653545
        },
        {
          "duration": 0.08139534883721922,
          "durationTicks": 7,
          "midi": 69,
          "name": "A4",
          "ticks": 15630,
          "time": 181.74418604651163,
          "velocity": 0.13385826771653545
        },
        {
          "duration": 0.08139534883721922,
          "durationTicks": 7,
          "midi": 71,
          "name": "B4",
          "ticks": 15631,
          "time": 181.75581395348837,
          "velocity": 0.2204724409448819
        },
        {
          "duration": 0.023255813953483084,
          "durationTicks": 2,
          "midi": 56,
          "name": "G#3",
          "ticks": 15632,
          "time": 181.7674418604651,
          "velocity": 0.3779527559055118
        },
        {
          "duration": 0.05813953488373613,
          "durationTicks": 5,
          "midi": 62,
          "name": "D4",
          "ticks": 15632,
          "time": 181.7674418604651,
          "velocity": 0.18110236220472442
        },
        {
          "duration": 0.04651162790699459,
          "durationTicks": 4,
          "midi": 67,
          "name": "G4",
          "ticks": 15634,
          "time": 181.7906976744186,
          "velocity": 0.14960629921259844
        },
        {
          "duration": 0.034883720930224626,
          "durationTicks": 3,
          "midi": 56,
          "name": "G#3",
          "ticks": 15637,
          "time": 181.82558139534885,
          "velocity": 0.25984251968503935
        },
        {
          "duration": 0.12790697674418539,
          "durationTicks": 11,
          "midi": 55,
          "name": "G3",
          "ticks": 15640,
          "time": 181.86046511627907,
          "velocity": 0.4094488188976378
        },
        {
          "duration": 0.034883720930224626,
          "durationTicks": 3,
          "midi": 76,
          "name": "E5",
          "ticks": 15640,
          "time": 181.86046511627907,
          "velocity": 0.11023622047244094
        },
        {
          "duration": 0.023255813953483084,
          "durationTicks": 2,
          "midi": 45,
          "name": "A2",
          "ticks": 15641,
          "time": 181.87209302325581,
          "velocity": 0.33070866141732286
        },
        {
          "duration": 0.2325581395348877,
          "durationTicks": 20,
          "midi": 60,
          "name": "C4",
          "ticks": 15641,
          "time": 181.87209302325581,
          "velocity": 0.28346456692913385
        },
        {
          "duration": 0.11627906976744384,
          "durationTicks": 10,
          "midi": 71,
          "name": "B4",
          "ticks": 15641,
          "time": 181.87209302325581,
          "velocity": 0.25984251968503935
        },
        {
          "duration": 0.24418604651162923,
          "durationTicks": 21,
          "midi": 64,
          "name": "E4",
          "ticks": 15642,
          "time": 181.88372093023256,
          "velocity": 0.3228346456692913
        },
        {
          "duration": 0.3720930232558146,
          "durationTicks": 32,
          "midi": 84,
          "name": "C6",
          "ticks": 15642,
          "time": 181.88372093023256,
          "velocity": 0.2047244094488189
        },
        {
          "duration": 0.034883720930224626,
          "durationTicks": 3,
          "midi": 48,
          "name": "C3",
          "ticks": 15643,
          "time": 181.8953488372093,
          "velocity": 0.3464566929133858
        },
        {
          "duration": 0.06976744186047767,
          "durationTicks": 6,
          "midi": 91,
          "name": "G6",
          "ticks": 15643,
          "time": 181.8953488372093,
          "velocity": 0.12598425196850394
        },
        {
          "duration": 0.034883720930224626,
          "durationTicks": 3,
          "midi": 48,
          "name": "C3",
          "ticks": 15651,
          "time": 181.98837209302326,
          "velocity": 0.31496062992125984
        },
        {
          "duration": 0.023255813953483084,
          "durationTicks": 2,
          "midi": 55,
          "name": "G3",
          "ticks": 15652,
          "time": 182,
          "velocity": 0.36220472440944884
        },
        {
          "duration": 0.1046511627907023,
          "durationTicks": 9,
          "midi": 71,
          "name": "B4",
          "ticks": 15652,
          "time": 182,
          "velocity": 0.33858267716535434
        },
        {
          "duration": 0.023255813953511506,
          "durationTicks": 2,
          "midi": 55,
          "name": "G3",
          "ticks": 15656,
          "time": 182.04651162790697,
          "velocity": 0.25196850393700787
        },
        {
          "duration": 0.05813953488373613,
          "durationTicks": 5,
          "midi": 48,
          "name": "C3",
          "ticks": 15657,
          "time": 182.0581395348837,
          "velocity": 0.30708661417322836
        },
        {
          "duration": 0.023255813953483084,
          "durationTicks": 2,
          "midi": 54,
          "name": "F#3",
          "ticks": 15661,
          "time": 182.1046511627907,
          "velocity": 0.3700787401574803
        },
        {
          "duration": 0.023255813953483084,
          "durationTicks": 2,
          "midi": 60,
          "name": "C4",
          "ticks": 15662,
          "time": 182.11627906976744,
          "velocity": 0.3700787401574803
        },
        {
          "duration": 0.15116279069766847,
          "durationTicks": 13,
          "midi": 81,
          "name": "A5",
          "ticks": 15662,
          "time": 182.11627906976744,
          "velocity": 0.2204724409448819
        },
        {
          "duration": 0.1046511627907023,
          "durationTicks": 9,
          "midi": 83,
          "name": "B5",
          "ticks": 15662,
          "time": 182.11627906976744,
          "velocity": 0.18110236220472442
        },
        {
          "duration": 0.04651162790696617,
          "durationTicks": 4,
          "midi": 55,
          "name": "G3",
          "ticks": 15663,
          "time": 182.12790697674419,
          "velocity": 0.36220472440944884
        },
        {
          "duration": 0.08139534883721922,
          "durationTicks": 7,
          "midi": 62,
          "name": "D4",
          "ticks": 15663,
          "time": 182.12790697674419,
          "velocity": 0.4015748031496063
        },
        {
          "duration": 0.12790697674418539,
          "durationTicks": 11,
          "midi": 71,
          "name": "B4",
          "ticks": 15663,
          "time": 182.12790697674419,
          "velocity": 0.2204724409448819
        },
        {
          "duration": 0.04651162790696617,
          "durationTicks": 4,
          "midi": 78,
          "name": "F#5",
          "ticks": 15663,
          "time": 182.12790697674419,
          "velocity": 0.2125984251968504
        },
        {
          "duration": 0.11627906976744384,
          "durationTicks": 10,
          "midi": 48,
          "name": "C3",
          "ticks": 15665,
          "time": 182.15116279069767,
          "velocity": 0.3779527559055118
        },
        {
          "duration": 0.023255813953483084,
          "durationTicks": 2,
          "midi": 62,
          "name": "D4",
          "ticks": 15671,
          "time": 182.22093023255815,
          "velocity": 0.2992125984251969
        },
        {
          "duration": 0.04651162790696617,
          "durationTicks": 4,
          "midi": 64,
          "name": "E4",
          "ticks": 15673,
          "time": 182.24418604651163,
          "velocity": 0.25196850393700787
        },
        {
          "duration": 0.034883720930224626,
          "durationTicks": 3,
          "midi": 47,
          "name": "B2",
          "ticks": 15675,
          "time": 182.2674418604651,
          "velocity": 0.3228346456692913
        },
        {
          "duration": 0.05813953488373613,
          "durationTicks": 5,
          "midi": 62,
          "name": "D4",
          "ticks": 15677,
          "time": 182.2906976744186,
          "velocity": 0.13385826771653545
        },
        {
          "duration": 0.023255813953483084,
          "durationTicks": 2,
          "midi": 56,
          "name": "G#3",
          "ticks": 15683,
          "time": 182.36046511627907,
          "velocity": 0.4251968503937008
        },
        {
          "duration": 0.04651162790696617,
          "durationTicks": 4,
          "midi": 70,
          "name": "A#4",
          "ticks": 15683,
          "time": 182.36046511627907,
          "velocity": 0.28346456692913385
        },
        {
          "duration": 0.034883720930224626,
          "durationTicks": 3,
          "midi": 88,
          "name": "E6",
          "ticks": 15684,
          "time": 182.37209302325581,
          "velocity": 0.13385826771653545
        },
        {
          "duration": 0.06976744186047767,
          "durationTicks": 6,
          "midi": 97,
          "name": "C#7",
          "ticks": 15684,
          "time": 182.37209302325581,
          "velocity": 0.11023622047244094
        },
        {
          "duration": 0.023255813953483084,
          "durationTicks": 2,
          "midi": 57,
          "name": "A3",
          "ticks": 15685,
          "time": 182.38372093023256,
          "velocity": 0.4645669291338583
        },
        {
          "duration": 0.1046511627907023,
          "durationTicks": 9,
          "midi": 64,
          "name": "E4",
          "ticks": 15685,
          "time": 182.38372093023256,
          "velocity": 0.2755905511811024
        },
        {
          "duration": 0.034883720930224626,
          "durationTicks": 3,
          "midi": 74,
          "name": "D5",
          "ticks": 15685,
          "time": 182.38372093023256,
          "velocity": 0.18110236220472442
        },
        {
          "duration": 0.12790697674418539,
          "durationTicks": 11,
          "midi": 81,
          "name": "A5",
          "ticks": 15685,
          "time": 182.38372093023256,
          "velocity": 0.23622047244094488
        },
        {
          "duration": 0.25581395348837077,
          "durationTicks": 22,
          "midi": 83,
          "name": "B5",
          "ticks": 15685,
          "time": 182.38372093023256,
          "velocity": 0.2283464566929134
        },
        {
          "duration": 0.1046511627907023,
          "durationTicks": 9,
          "midi": 67,
          "name": "G4",
          "ticks": 15686,
          "time": 182.3953488372093,
          "velocity": 0.2204724409448819
        },
        {
          "duration": 0.023255813953483084,
          "durationTicks": 2,
          "midi": 58,
          "name": "A#3",
          "ticks": 15687,
          "time": 182.40697674418604,
          "velocity": 0.4015748031496063
        },
        {
          "duration": 0.09302325581396076,
          "durationTicks": 8,
          "midi": 69,
          "name": "A4",
          "ticks": 15687,
          "time": 182.40697674418604,
          "velocity": 0.2440944881889764
        },
        {
          "duration": 0.09302325581396076,
          "durationTicks": 8,
          "midi": 96,
          "name": "C7",
          "ticks": 15687,
          "time": 182.40697674418604,
          "velocity": 0.07874015748031496
        },
        {
          "duration": 0.1046511627907023,
          "durationTicks": 9,
          "midi": 100,
          "name": "E7",
          "ticks": 15687,
          "time": 182.40697674418604,
          "velocity": 0.14960629921259844
        },
        {
          "duration": 0.08139534883721922,
          "durationTicks": 7,
          "midi": 57,
          "name": "A3",
          "ticks": 15689,
          "time": 182.43023255813952,
          "velocity": 0.4566929133858268
        },
        {
          "duration": 0.05813953488373613,
          "durationTicks": 5,
          "midi": 103,
          "name": "G7",
          "ticks": 15689,
          "time": 182.43023255813952,
          "velocity": 0.07086614173228346
        },
        {
          "duration": 0.04651162790696617,
          "durationTicks": 4,
          "midi": 72,
          "name": "C5",
          "ticks": 15691,
          "time": 182.45348837209303,
          "velocity": 0.1732283464566929
        },
        {
          "duration": 0.034883720930224626,
          "durationTicks": 3,
          "midi": 63,
          "name": "D#4",
          "ticks": 15694,
          "time": 182.48837209302326,
          "velocity": 0.23622047244094488
        },
        {
          "duration": 0.12790697674418539,
          "durationTicks": 11,
          "midi": 84,
          "name": "C6",
          "ticks": 15695,
          "time": 182.5,
          "velocity": 0.11023622047244094
        },
        {
          "duration": 0.034883720930224626,
          "durationTicks": 3,
          "midi": 56,
          "name": "G#3",
          "ticks": 15696,
          "time": 182.51162790697674,
          "velocity": 0.36220472440944884
        },
        {
          "duration": 0.13953488372092693,
          "durationTicks": 12,
          "midi": 60,
          "name": "C4",
          "ticks": 15696,
          "time": 182.51162790697674,
          "velocity": 0.33858267716535434
        },
        {
          "duration": 0.11627906976744384,
          "durationTicks": 10,
          "midi": 67,
          "name": "G4",
          "ticks": 15697,
          "time": 182.52325581395348,
          "velocity": 0.07874015748031496
        },
        {
          "duration": 0.16279069767441,
          "durationTicks": 14,
          "midi": 74,
          "name": "D5",
          "ticks": 15697,
          "time": 182.52325581395348,
          "velocity": 0.11811023622047244
        },
        {
          "duration": 0.06976744186047767,
          "durationTicks": 6,
          "midi": 55,
          "name": "G3",
          "ticks": 15699,
          "time": 182.54651162790697,
          "velocity": 0.4094488188976378
        },
        {
          "duration": 0.04651162790696617,
          "durationTicks": 4,
          "midi": 79,
          "name": "G5",
          "ticks": 15704,
          "time": 182.6046511627907,
          "velocity": 0.10236220472440945
        },
        {
          "duration": 0.034883720930224626,
          "durationTicks": 3,
          "midi": 48,
          "name": "C3",
          "ticks": 15706,
          "time": 182.62790697674419,
          "velocity": 0.3779527559055118
        },
        {
          "duration": 0.023255813953483084,
          "durationTicks": 2,
          "midi": 63,
          "name": "D#4",
          "ticks": 15717,
          "time": 182.75581395348837,
          "velocity": 0.31496062992125984
        },
        {
          "duration": 0.06976744186047767,
          "durationTicks": 6,
          "midi": 72,
          "name": "C5",
          "ticks": 15718,
          "time": 182.7674418604651,
          "velocity": 0.14173228346456693
        },
        {
          "duration": 0.05813953488373613,
          "durationTicks": 5,
          "midi": 76,
          "name": "E5",
          "ticks": 15718,
          "time": 182.7674418604651,
          "velocity": 0.25196850393700787
        },
        {
          "duration": 0.11627906976744384,
          "durationTicks": 10,
          "midi": 80,
          "name": "G#5",
          "ticks": 15718,
          "time": 182.7674418604651,
          "velocity": 0.23622047244094488
        },
        {
          "duration": 0.06976744186047767,
          "durationTicks": 6,
          "midi": 83,
          "name": "B5",
          "ticks": 15718,
          "time": 182.7674418604651,
          "velocity": 0.1889763779527559
        },
        {
          "duration": 0.3604651162790731,
          "durationTicks": 31,
          "midi": 64,
          "name": "E4",
          "ticks": 15719,
          "time": 182.77906976744185,
          "velocity": 0.36220472440944884
        },
        {
          "duration": 0.1046511627907023,
          "durationTicks": 9,
          "midi": 68,
          "name": "G#4",
          "ticks": 15719,
          "time": 182.77906976744185,
          "velocity": 0.30708661417322836
        },
        {
          "duration": 0.03488372093025305,
          "durationTicks": 3,
          "midi": 98,
          "name": "D7",
          "ticks": 15719,
          "time": 182.77906976744185,
          "velocity": 0.08661417322834646
        },
        {
          "duration": 0.3720930232558146,
          "durationTicks": 32,
          "midi": 60,
          "name": "C4",
          "ticks": 15720,
          "time": 182.7906976744186,
          "velocity": 0.3779527559055118
        },
        {
          "duration": 0.03488372093025305,
          "durationTicks": 3,
          "midi": 86,
          "name": "D6",
          "ticks": 15720,
          "time": 182.7906976744186,
          "velocity": 0.11811023622047244
        },
        {
          "duration": 0.03488372093025305,
          "durationTicks": 3,
          "midi": 87,
          "name": "D#6",
          "ticks": 15720,
          "time": 182.7906976744186,
          "velocity": 0.11023622047244094
        },
        {
          "duration": 0.03488372093025305,
          "durationTicks": 3,
          "midi": 102,
          "name": "F#7",
          "ticks": 15720,
          "time": 182.7906976744186,
          "velocity": 0.08661417322834646
        },
        {
          "duration": 0.023255813953483084,
          "durationTicks": 2,
          "midi": 55,
          "name": "G3",
          "ticks": 15722,
          "time": 182.8139534883721,
          "velocity": 0.4330708661417323
        },
        {
          "duration": 0.04651162790696617,
          "durationTicks": 4,
          "midi": 75,
          "name": "D#5",
          "ticks": 15722,
          "time": 182.8139534883721,
          "velocity": 0.11023622047244094
        },
        {
          "duration": 0.04651162790696617,
          "durationTicks": 4,
          "midi": 55,
          "name": "G3",
          "ticks": 15725,
          "time": 182.84883720930233,
          "velocity": 0.44881889763779526
        },
        {
          "duration": 0.1860465116278931,
          "durationTicks": 16,
          "midi": 86,
          "name": "D6",
          "ticks": 15726,
          "time": 182.86046511627907,
          "velocity": 0.14173228346456693
        },
        {
          "duration": 0.12790697674418539,
          "durationTicks": 11,
          "midi": 74,
          "name": "D5",
          "ticks": 15729,
          "time": 182.8953488372093,
          "velocity": 0.11811023622047244
        },
        {
          "duration": 0.08139534883721922,
          "durationTicks": 7,
          "midi": 83,
          "name": "B5",
          "ticks": 15729,
          "time": 182.8953488372093,
          "velocity": 0.11023622047244094
        },
        {
          "duration": 0.11627906976744384,
          "durationTicks": 10,
          "midi": 55,
          "name": "G3",
          "ticks": 15731,
          "time": 182.91860465116278,
          "velocity": 0.3700787401574803
        },
        {
          "duration": 0.12790697674418539,
          "durationTicks": 11,
          "midi": 79,
          "name": "G5",
          "ticks": 15739,
          "time": 183.01162790697674,
          "velocity": 0.25196850393700787
        },
        {
          "duration": 0.13953488372092693,
          "durationTicks": 12,
          "midi": 83,
          "name": "B5",
          "ticks": 15739,
          "time": 183.01162790697674,
          "velocity": 0.12598425196850394
        },
        {
          "duration": 0.1046511627907023,
          "durationTicks": 9,
          "midi": 67,
          "name": "G4",
          "ticks": 15741,
          "time": 183.03488372093022,
          "velocity": 0.16535433070866143
        },
        {
          "duration": 0.03488372093025305,
          "durationTicks": 3,
          "midi": 48,
          "name": "C3",
          "ticks": 15742,
          "time": 183.04651162790697,
          "velocity": 0.3228346456692913
        },
        {
          "duration": 0.023255813953511506,
          "durationTicks": 2,
          "midi": 56,
          "name": "G#3",
          "ticks": 15742,
          "time": 183.04651162790697,
          "velocity": 0.3858267716535433
        },
        {
          "duration": 0.1046511627907023,
          "durationTicks": 9,
          "midi": 74,
          "name": "D5",
          "ticks": 15742,
          "time": 183.04651162790697,
          "velocity": 0.12598425196850394
        },
        {
          "duration": 0.12790697674418539,
          "durationTicks": 11,
          "midi": 55,
          "name": "G3",
          "ticks": 15744,
          "time": 183.06976744186048,
          "velocity": 0.47244094488188976
        },
        {
          "duration": 0.023255813953483084,
          "durationTicks": 2,
          "midi": 46,
          "name": "A#2",
          "ticks": 15752,
          "time": 183.1627906976744,
          "velocity": 0.2283464566929134
        },
        {
          "duration": 0.023255813953483084,
          "durationTicks": 2,
          "midi": 53,
          "name": "F3",
          "ticks": 15755,
          "time": 183.19767441860466,
          "velocity": 0.29133858267716534
        },
        {
          "duration": 0.06976744186044925,
          "durationTicks": 6,
          "midi": 64,
          "name": "E4",
          "ticks": 15756,
          "time": 183.2093023255814,
          "velocity": 0.1732283464566929
        },
        {
          "duration": 0.023255813953483084,
          "durationTicks": 2,
          "midi": 58,
          "name": "A#3",
          "ticks": 15762,
          "time": 183.27906976744185,
          "velocity": 0.30708661417322836
        },
        {
          "duration": 0.06976744186047767,
          "durationTicks": 6,
          "midi": 76,
          "name": "E5",
          "ticks": 15762,
          "time": 183.27906976744185,
          "velocity": 0.1968503937007874
        },
        {
          "duration": 0.13953488372092693,
          "durationTicks": 12,
          "midi": 64,
          "name": "E4",
          "ticks": 15763,
          "time": 183.2906976744186,
          "velocity": 0.33858267716535434
        },
        {
          "duration": 0.30232558139536536,
          "durationTicks": 26,
          "midi": 72,
          "name": "C5",
          "ticks": 15763,
          "time": 183.2906976744186,
          "velocity": 0.3228346456692913
        },
        {
          "duration": 0.03488372093025305,
          "durationTicks": 3,
          "midi": 77,
          "name": "F5",
          "ticks": 15763,
          "time": 183.2906976744186,
          "velocity": 0.15748031496062992
        },
        {
          "duration": 0.16279069767443843,
          "durationTicks": 14,
          "midi": 79,
          "name": "G5",
          "ticks": 15763,
          "time": 183.2906976744186,
          "velocity": 0.11023622047244094
        },
        {
          "duration": 0.3720930232558146,
          "durationTicks": 32,
          "midi": 86,
          "name": "D6",
          "ticks": 15763,
          "time": 183.2906976744186,
          "velocity": 0.12598425196850394
        },
        {
          "duration": 0.04651162790699459,
          "durationTicks": 4,
          "midi": 55,
          "name": "G3",
          "ticks": 15764,
          "time": 183.30232558139534,
          "velocity": 0.48031496062992124
        },
        {
          "duration": 0.25581395348837077,
          "durationTicks": 22,
          "midi": 60,
          "name": "C4",
          "ticks": 15764,
          "time": 183.30232558139534,
          "velocity": 0.3700787401574803
        },
        {
          "duration": 0.03488372093025305,
          "durationTicks": 3,
          "midi": 99,
          "name": "D#7",
          "ticks": 15764,
          "time": 183.30232558139534,
          "velocity": 0.07874015748031496
        },
        {
          "duration": 0.04651162790696617,
          "durationTicks": 4,
          "midi": 97,
          "name": "C#7",
          "ticks": 15765,
          "time": 183.3139534883721,
          "velocity": 0.11023622047244094
        },
        {
          "duration": 0.16279069767441,
          "durationTicks": 14,
          "midi": 77,
          "name": "F5",
          "ticks": 15768,
          "time": 183.34883720930233,
          "velocity": 0.14960629921259844
        },
        {
          "duration": 0.023255813953483084,
          "durationTicks": 2,
          "midi": 53,
          "name": "F3",
          "ticks": 15769,
          "time": 183.36046511627907,
          "velocity": 0.4881889763779528
        },
        {
          "duration": 0.05813953488373613,
          "durationTicks": 5,
          "midi": 97,
          "name": "C#7",
          "ticks": 15771,
          "time": 183.38372093023256,
          "velocity": 0.14173228346456693
        },
        {
          "duration": 0.08139534883721922,
          "durationTicks": 7,
          "midi": 55,
          "name": "G3",
          "ticks": 15772,
          "time": 183.3953488372093,
          "velocity": 0.48031496062992124
        },
        {
          "duration": 0.05813953488373613,
          "durationTicks": 5,
          "midi": 65,
          "name": "F4",
          "ticks": 15774,
          "time": 183.41860465116278,
          "velocity": 0.30708661417322836
        },
        {
          "duration": 0.09302325581396076,
          "durationTicks": 8,
          "midi": 55,
          "name": "G3",
          "ticks": 15780,
          "time": 183.48837209302326,
          "velocity": 0.4330708661417323
        },
        {
          "duration": 0.034883720930224626,
          "durationTicks": 3,
          "midi": 65,
          "name": "F4",
          "ticks": 15780,
          "time": 183.48837209302326,
          "velocity": 0.28346456692913385
        },
        {
          "duration": 0.2093023255814046,
          "durationTicks": 18,
          "midi": 76,
          "name": "E5",
          "ticks": 15782,
          "time": 183.51162790697674,
          "velocity": 0.18110236220472442
        },
        {
          "duration": 0.023255813953483084,
          "durationTicks": 2,
          "midi": 47,
          "name": "B2",
          "ticks": 15784,
          "time": 183.53488372093022,
          "velocity": 0.3464566929133858
        },
        {
          "duration": 0.023255813953483084,
          "durationTicks": 2,
          "midi": 65,
          "name": "F4",
          "ticks": 15784,
          "time": 183.53488372093022,
          "velocity": 0.2677165354330709
        },
        {
          "duration": 0.15116279069766847,
          "durationTicks": 13,
          "midi": 74,
          "name": "D5",
          "ticks": 15784,
          "time": 183.53488372093022,
          "velocity": 0.2755905511811024
        },
        {
          "duration": 0.09302325581396076,
          "durationTicks": 8,
          "midi": 69,
          "name": "A4",
          "ticks": 15785,
          "time": 183.54651162790697,
          "velocity": 0.1968503937007874
        },
        {
          "duration": 0.023255813953511506,
          "durationTicks": 2,
          "midi": 48,
          "name": "C3",
          "ticks": 15786,
          "time": 183.5581395348837,
          "velocity": 0.3937007874015748
        },
        {
          "duration": 0.023255813953511506,
          "durationTicks": 2,
          "midi": 61,
          "name": "C#4",
          "ticks": 15786,
          "time": 183.5581395348837,
          "velocity": 0.3228346456692913
        },
        {
          "duration": 0.023255813953483084,
          "durationTicks": 2,
          "midi": 53,
          "name": "F3",
          "ticks": 15788,
          "time": 183.58139534883722,
          "velocity": 0.41732283464566927
        },
        {
          "duration": 0.023255813953483084,
          "durationTicks": 2,
          "midi": 64,
          "name": "E4",
          "ticks": 15788,
          "time": 183.58139534883722,
          "velocity": 0.29133858267716534
        },
        {
          "duration": 0.023255813953483084,
          "durationTicks": 2,
          "midi": 45,
          "name": "A2",
          "ticks": 15790,
          "time": 183.6046511627907,
          "velocity": 0.2755905511811024
        },
        {
          "duration": 0.11627906976744384,
          "durationTicks": 10,
          "midi": 83,
          "name": "B5",
          "ticks": 15790,
          "time": 183.6046511627907,
          "velocity": 0.15748031496062992
        },
        {
          "duration": 0.023255813953483084,
          "durationTicks": 2,
          "midi": 51,
          "name": "D#3",
          "ticks": 15791,
          "time": 183.61627906976744,
          "velocity": 0.4094488188976378
        },
        {
          "duration": 0.12790697674418539,
          "durationTicks": 11,
          "midi": 64,
          "name": "E4",
          "ticks": 15791,
          "time": 183.61627906976744,
          "velocity": 0.33070866141732286
        },
        {
          "duration": 0.034883720930224626,
          "durationTicks": 3,
          "midi": 55,
          "name": "G3",
          "ticks": 15793,
          "time": 183.63953488372093,
          "velocity": 0.25196850393700787
        },
        {
          "duration": 0.06976744186047767,
          "durationTicks": 6,
          "midi": 72,
          "name": "C5",
          "ticks": 15796,
          "time": 183.67441860465115,
          "velocity": 0.23622047244094488
        },
        {
          "duration": 0.034883720930224626,
          "durationTicks": 3,
          "midi": 98,
          "name": "D7",
          "ticks": 15798,
          "time": 183.69767441860466,
          "velocity": 0.07874015748031496
        },
        {
          "duration": 0.04651162790696617,
          "durationTicks": 4,
          "midi": 77,
          "name": "F5",
          "ticks": 15799,
          "time": 183.7093023255814,
          "velocity": 0.11811023622047244
        },
        {
          "duration": 0.05813953488370771,
          "durationTicks": 5,
          "midi": 55,
          "name": "G3",
          "ticks": 15800,
          "time": 183.72093023255815,
          "velocity": 0.4251968503937008
        },
        {
          "duration": 0.12790697674418539,
          "durationTicks": 11,
          "midi": 83,
          "name": "B5",
          "ticks": 15801,
          "time": 183.7325581395349,
          "velocity": 0.1968503937007874
        },
        {
          "duration": 0.06976744186047767,
          "durationTicks": 6,
          "midi": 65,
          "name": "F4",
          "ticks": 15802,
          "time": 183.74418604651163,
          "velocity": 0.28346456692913385
        },
        {
          "duration": 0.2325581395348877,
          "durationTicks": 20,
          "midi": 71,
          "name": "B4",
          "ticks": 15802,
          "time": 183.74418604651163,
          "velocity": 0.25984251968503935
        },
        {
          "duration": 0.023255813953483084,
          "durationTicks": 2,
          "midi": 59,
          "name": "B3",
          "ticks": 15804,
          "time": 183.7674418604651,
          "velocity": 0.23622047244094488
        },
        {
          "duration": 0.03488372093025305,
          "durationTicks": 3,
          "midi": 45,
          "name": "A2",
          "ticks": 15805,
          "time": 183.77906976744185,
          "velocity": 0.10236220472440945
        },
        {
          "duration": 0.023255813953483084,
          "durationTicks": 2,
          "midi": 54,
          "name": "F#3",
          "ticks": 15805,
          "time": 183.77906976744185,
          "velocity": 0.3937007874015748
        },
        {
          "duration": 0.023255813953511506,
          "durationTicks": 2,
          "midi": 56,
          "name": "G#3",
          "ticks": 15807,
          "time": 183.80232558139534,
          "velocity": 0.3937007874015748
        },
        {
          "duration": 0.034883720930224626,
          "durationTicks": 3,
          "midi": 44,
          "name": "G#2",
          "ticks": 15808,
          "time": 183.8139534883721,
          "velocity": 0.25196850393700787
        },
        {
          "duration": 0.10465116279067388,
          "durationTicks": 9,
          "midi": 74,
          "name": "D5",
          "ticks": 15808,
          "time": 183.8139534883721,
          "velocity": 0.2047244094488189
        },
        {
          "duration": 0.04651162790696617,
          "durationTicks": 4,
          "midi": 79,
          "name": "G5",
          "ticks": 15808,
          "time": 183.8139534883721,
          "velocity": 0.11811023622047244
        },
        {
          "duration": 0.10465116279067388,
          "durationTicks": 9,
          "midi": 55,
          "name": "G3",
          "ticks": 15809,
          "time": 183.82558139534885,
          "velocity": 0.5196850393700787
        },
        {
          "duration": 0.023255813953483084,
          "durationTicks": 2,
          "midi": 44,
          "name": "G#2",
          "ticks": 15812,
          "time": 183.86046511627907,
          "velocity": 0.3464566929133858
        },
        {
          "duration": 0.034883720930224626,
          "durationTicks": 3,
          "midi": 62,
          "name": "D4",
          "ticks": 15813,
          "time": 183.87209302325581,
          "velocity": 0.1968503937007874
        },
        {
          "duration": 0.034883720930224626,
          "durationTicks": 3,
          "midi": 44,
          "name": "G#2",
          "ticks": 15815,
          "time": 183.8953488372093,
          "velocity": 0.3464566929133858
        },
        {
          "duration": 0.04651162790699459,
          "durationTicks": 4,
          "midi": 54,
          "name": "F#3",
          "ticks": 15818,
          "time": 183.93023255813952,
          "velocity": 0.47244094488188976
        },
        {
          "duration": 0.04651162790699459,
          "durationTicks": 4,
          "midi": 62,
          "name": "D4",
          "ticks": 15818,
          "time": 183.93023255813952,
          "velocity": 0.1889763779527559
        },
        {
          "duration": 0.04651162790696617,
          "durationTicks": 4,
          "midi": 45,
          "name": "A2",
          "ticks": 15820,
          "time": 183.95348837209303,
          "velocity": 0.3464566929133858
        },
        {
          "duration": 0.20930232558137618,
          "durationTicks": 18,
          "midi": 55,
          "name": "G3",
          "ticks": 15822,
          "time": 183.97674418604652,
          "velocity": 0.4645669291338583
        },
        {
          "duration": 0.13953488372092693,
          "durationTicks": 12,
          "midi": 62,
          "name": "D4",
          "ticks": 15825,
          "time": 184.01162790697674,
          "velocity": 0.16535433070866143
        },
        {
          "duration": 0.023255813953483084,
          "durationTicks": 2,
          "midi": 45,
          "name": "A2",
          "ticks": 15826,
          "time": 184.02325581395348,
          "velocity": 0.33858267716535434
        },
        {
          "duration": 0.05813953488373613,
          "durationTicks": 5,
          "midi": 71,
          "name": "B4",
          "ticks": 15829,
          "time": 184.0581395348837,
          "velocity": 0.2755905511811024
        },
        {
          "duration": 0.023255813953483084,
          "durationTicks": 2,
          "midi": 48,
          "name": "C3",
          "ticks": 15834,
          "time": 184.11627906976744,
          "velocity": 0.28346456692913385
        },
        {
          "duration": 0.09302325581396076,
          "durationTicks": 8,
          "midi": 71,
          "name": "B4",
          "ticks": 15835,
          "time": 184.12790697674419,
          "velocity": 0.2125984251968504
        },
        {
          "duration": 0.023255813953511506,
          "durationTicks": 2,
          "midi": 64,
          "name": "E4",
          "ticks": 15840,
          "time": 184.1860465116279,
          "velocity": 0.28346456692913385
        },
        {
          "duration": 0.18604651162792152,
          "durationTicks": 16,
          "midi": 74,
          "name": "D5",
          "ticks": 15840,
          "time": 184.1860465116279,
          "velocity": 0.41732283464566927
        },
        {
          "duration": 0.1511627906976969,
          "durationTicks": 13,
          "midi": 93,
          "name": "A6",
          "ticks": 15840,
          "time": 184.1860465116279,
          "velocity": 0.11811023622047244
        },
        {
          "duration": 0.15116279069766847,
          "durationTicks": 13,
          "midi": 67,
          "name": "G4",
          "ticks": 15841,
          "time": 184.19767441860466,
          "velocity": 0.25984251968503935
        },
        {
          "duration": 0.11627906976744384,
          "durationTicks": 10,
          "midi": 78,
          "name": "F#5",
          "ticks": 15841,
          "time": 184.19767441860466,
          "velocity": 0.2047244094488189
        },
        {
          "duration": 0.15116279069766847,
          "durationTicks": 13,
          "midi": 81,
          "name": "A5",
          "ticks": 15841,
          "time": 184.19767441860466,
          "velocity": 0.25196850393700787
        },
        {
          "duration": 0.09302325581396076,
          "durationTicks": 8,
          "midi": 62,
          "name": "D4",
          "ticks": 15843,
          "time": 184.22093023255815,
          "velocity": 0.3779527559055118
        },
        {
          "duration": 0.05813953488370771,
          "durationTicks": 5,
          "midi": 55,
          "name": "G3",
          "ticks": 15844,
          "time": 184.2325581395349,
          "velocity": 0.3858267716535433
        },
        {
          "duration": 0.09302325581396076,
          "durationTicks": 8,
          "midi": 96,
          "name": "C7",
          "ticks": 15844,
          "time": 184.2325581395349,
          "velocity": 0.08661417322834646
        },
        {
          "duration": 0.1046511627907023,
          "durationTicks": 9,
          "midi": 71,
          "name": "B4",
          "ticks": 15845,
          "time": 184.24418604651163,
          "velocity": 0.1889763779527559
        },
        {
          "duration": 0.023255813953483084,
          "durationTicks": 2,
          "midi": 50,
          "name": "D3",
          "ticks": 15848,
          "time": 184.27906976744185,
          "velocity": 0.3858267716535433
        },
        {
          "duration": 0.023255813953511506,
          "durationTicks": 2,
          "midi": 55,
          "name": "G3",
          "ticks": 15850,
          "time": 184.30232558139534,
          "velocity": 0.2440944881889764
        },
        {
          "duration": 0.12790697674418539,
          "durationTicks": 11,
          "midi": 62,
          "name": "D4",
          "ticks": 15852,
          "time": 184.32558139534885,
          "velocity": 0.15748031496062992
        },
        {
          "duration": 0.023255813953483084,
          "durationTicks": 2,
          "midi": 45,
          "name": "A2",
          "ticks": 15853,
          "time": 184.3372093023256,
          "velocity": 0.36220472440944884
        },
        {
          "duration": 0.034883720930224626,
          "durationTicks": 3,
          "midi": 56,
          "name": "G#3",
          "ticks": 15855,
          "time": 184.36046511627907,
          "velocity": 0.09448818897637795
        },
        {
          "duration": 0.05813953488373613,
          "durationTicks": 5,
          "midi": 44,
          "name": "G#2",
          "ticks": 15857,
          "time": 184.38372093023256,
          "velocity": 0.1732283464566929
        },
        {
          "duration": 0.023255813953511506,
          "durationTicks": 2,
          "midi": 53,
          "name": "F3",
          "ticks": 15861,
          "time": 184.43023255813952,
          "velocity": 0.25984251968503935
        },
        {
          "duration": 0.023255813953483084,
          "durationTicks": 2,
          "midi": 55,
          "name": "G3",
          "ticks": 15863,
          "time": 184.45348837209303,
          "velocity": 0.47244094488188976
        },
        {
          "duration": 0.04651162790696617,
          "durationTicks": 4,
          "midi": 88,
          "name": "E6",
          "ticks": 15863,
          "time": 184.45348837209303,
          "velocity": 0.12598425196850394
        },
        {
          "duration": 0.023255813953483084,
          "durationTicks": 2,
          "midi": 70,
          "name": "A#4",
          "ticks": 15864,
          "time": 184.46511627906978,
          "velocity": 0.29133858267716534
        },
        {
          "duration": 0.0813953488371908,
          "durationTicks": 7,
          "midi": 74,
          "name": "D5",
          "ticks": 15864,
          "time": 184.46511627906978,
          "velocity": 0.1968503937007874
        },
        {
          "duration": 0.13953488372092693,
          "durationTicks": 12,
          "midi": 76,
          "name": "E5",
          "ticks": 15864,
          "time": 184.46511627906978,
          "velocity": 0.15748031496062992
        },
        {
          "duration": 0.2674418604651123,
          "durationTicks": 23,
          "midi": 86,
          "name": "D6",
          "ticks": 15864,
          "time": 184.46511627906978,
          "velocity": 0.2125984251968504
        },
        {
          "duration": 0.19767441860463464,
          "durationTicks": 17,
          "midi": 81,
          "name": "A5",
          "ticks": 15865,
          "time": 184.47674418604652,
          "velocity": 0.25196850393700787
        },
        {
          "duration": 0.2674418604651123,
          "durationTicks": 23,
          "midi": 62,
          "name": "D4",
          "ticks": 15866,
          "time": 184.48837209302326,
          "velocity": 0.36220472440944884
        },
        {
          "duration": 0.09302325581396076,
          "durationTicks": 8,
          "midi": 69,
          "name": "A4",
          "ticks": 15866,
          "time": 184.48837209302326,
          "velocity": 0.30708661417322836
        },
        {
          "duration": 0.11627906976744384,
          "durationTicks": 10,
          "midi": 83,
          "name": "B5",
          "ticks": 15866,
          "time": 184.48837209302326,
          "velocity": 0.07874015748031496
        },
        {
          "duration": 0.1046511627907023,
          "durationTicks": 9,
          "midi": 100,
          "name": "E7",
          "ticks": 15866,
          "time": 184.48837209302326,
          "velocity": 0.1889763779527559
        },
        {
          "duration": 0.05813953488370771,
          "durationTicks": 5,
          "midi": 103,
          "name": "G7",
          "ticks": 15866,
          "time": 184.48837209302326,
          "velocity": 0.08661417322834646
        },
        {
          "duration": 0.023255813953483084,
          "durationTicks": 2,
          "midi": 57,
          "name": "A3",
          "ticks": 15870,
          "time": 184.53488372093022,
          "velocity": 0.44881889763779526
        },
        {
          "duration": 0.023255813953511506,
          "durationTicks": 2,
          "midi": 45,
          "name": "A2",
          "ticks": 15872,
          "time": 184.5581395348837,
          "velocity": 0.29133858267716534
        },
        {
          "duration": 0.034883720930224626,
          "durationTicks": 3,
          "midi": 57,
          "name": "A3",
          "ticks": 15873,
          "time": 184.56976744186048,
          "velocity": 0.41732283464566927
        },
        {
          "duration": 0.13953488372092693,
          "durationTicks": 12,
          "midi": 67,
          "name": "G4",
          "ticks": 15874,
          "time": 184.58139534883722,
          "velocity": 0.25984251968503935
        },
        {
          "duration": 0.034883720930224626,
          "durationTicks": 3,
          "midi": 70,
          "name": "A#4",
          "ticks": 15874,
          "time": 184.58139534883722,
          "velocity": 0.2125984251968504
        },
        {
          "duration": 0.023255813953483084,
          "durationTicks": 2,
          "midi": 48,
          "name": "C3",
          "ticks": 15877,
          "time": 184.61627906976744,
          "velocity": 0.3228346456692913
        },
        {
          "duration": 0.08139534883721922,
          "durationTicks": 7,
          "midi": 55,
          "name": "G3",
          "ticks": 15877,
          "time": 184.61627906976744,
          "velocity": 0.3937007874015748
        },
        {
          "duration": 0.023255813953483084,
          "durationTicks": 2,
          "midi": 46,
          "name": "A#2",
          "ticks": 15879,
          "time": 184.63953488372093,
          "velocity": 0.2677165354330709
        },
        {
          "duration": 0.023255813953511506,
          "durationTicks": 2,
          "midi": 46,
          "name": "A#2",
          "ticks": 15882,
          "time": 184.67441860465115,
          "velocity": 0.2677165354330709
        },
        {
          "duration": 0.05813953488373613,
          "durationTicks": 5,
          "midi": 69,
          "name": "A4",
          "ticks": 15883,
          "time": 184.6860465116279,
          "velocity": 0.16535433070866143
        },
        {
          "duration": 0.023255813953483084,
          "durationTicks": 2,
          "midi": 48,
          "name": "C3",
          "ticks": 15884,
          "time": 184.69767441860466,
          "velocity": 0.33070866141732286
        },
        {
          "duration": 0.023255813953483084,
          "durationTicks": 2,
          "midi": 50,
          "name": "D3",
          "ticks": 15886,
          "time": 184.72093023255815,
          "velocity": 0.3858267716535433
        },
        {
          "duration": 0.1046511627907023,
          "durationTicks": 9,
          "midi": 56,
          "name": "G#3",
          "ticks": 15886,
          "time": 184.72093023255815,
          "velocity": 0.3937007874015748
        },
        {
          "duration": 0.06976744186047767,
          "durationTicks": 6,
          "midi": 44,
          "name": "G#2",
          "ticks": 15890,
          "time": 184.7674418604651,
          "velocity": 0.33070866141732286
        },
        {
          "duration": 0.04651162790696617,
          "durationTicks": 4,
          "midi": 71,
          "name": "B4",
          "ticks": 15896,
          "time": 184.8372093023256,
          "velocity": 0.28346456692913385
        },
        {
          "duration": 0.40697674418603924,
          "durationTicks": 35,
          "midi": 86,
          "name": "D6",
          "ticks": 15896,
          "time": 184.8372093023256,
          "velocity": 0.25196850393700787
        },
        {
          "duration": 0.40697674418603924,
          "durationTicks": 35,
          "midi": 62,
          "name": "D4",
          "ticks": 15897,
          "time": 184.84883720930233,
          "velocity": 0.4015748031496063
        },
        {
          "duration": 0.023255813953483084,
          "durationTicks": 2,
          "midi": 67,
          "name": "G4",
          "ticks": 15897,
          "time": 184.84883720930233,
          "velocity": 0.3543307086614173
        },
        {
          "duration": 0.11627906976744384,
          "durationTicks": 10,
          "midi": 80,
          "name": "G#5",
          "ticks": 15897,
          "time": 184.84883720930233,
          "velocity": 0.2440944881889764
        },
        {
          "duration": 0.034883720930224626,
          "durationTicks": 3,
          "midi": 55,
          "name": "G3",
          "ticks": 15898,
          "time": 184.86046511627907,
          "velocity": 0.4330708661417323
        },
        {
          "duration": 0.05813953488370771,
          "durationTicks": 5,
          "midi": 99,
          "name": "D#7",
          "ticks": 15899,
          "time": 184.87209302325581,
          "velocity": 0.12598425196850394
        },
        {
          "duration": 0.05813953488373613,
          "durationTicks": 5,
          "midi": 68,
          "name": "G#4",
          "ticks": 15901,
          "time": 184.8953488372093,
          "velocity": 0.3858267716535433
        },
        {
          "duration": 0.22093023255814614,
          "durationTicks": 19,
          "midi": 78,
          "name": "F#5",
          "ticks": 15902,
          "time": 184.90697674418604,
          "velocity": 0.12598425196850394
        },
        {
          "duration": 0.023255813953511506,
          "durationTicks": 2,
          "midi": 55,
          "name": "G3",
          "ticks": 15903,
          "time": 184.91860465116278,
          "velocity": 0.3464566929133858
        },
        {
          "duration": 0.13953488372092693,
          "durationTicks": 12,
          "midi": 55,
          "name": "G3",
          "ticks": 15906,
          "time": 184.95348837209303,
          "velocity": 0.3858267716535433
        },
        {
          "duration": 0.023255813953483084,
          "durationTicks": 2,
          "midi": 48,
          "name": "C3",
          "ticks": 15917,
          "time": 185.08139534883722,
          "velocity": 0.28346456692913385
        },
        {
          "duration": 0.023255813953483084,
          "durationTicks": 2,
          "midi": 56,
          "name": "G#3",
          "ticks": 15918,
          "time": 185.09302325581396,
          "velocity": 0.33070866141732286
        },
        {
          "duration": 0.034883720930224626,
          "durationTicks": 3,
          "midi": 69,
          "name": "A4",
          "ticks": 15918,
          "time": 185.09302325581396,
          "velocity": 0.14173228346456693
        },
        {
          "duration": 0.12790697674418539,
          "durationTicks": 11,
          "midi": 67,
          "name": "G4",
          "ticks": 15920,
          "time": 185.11627906976744,
          "velocity": 0.23622047244094488
        },
        {
          "duration": 0.11627906976744384,
          "durationTicks": 10,
          "midi": 79,
          "name": "G5",
          "ticks": 15920,
          "time": 185.11627906976744,
          "velocity": 0.2440944881889764
        },
        {
          "duration": 0.023255813953483084,
          "durationTicks": 2,
          "midi": 44,
          "name": "G#2",
          "ticks": 15921,
          "time": 185.12790697674419,
          "velocity": 0.2283464566929134
        },
        {
          "duration": 0.023255813953483084,
          "durationTicks": 2,
          "midi": 54,
          "name": "F#3",
          "ticks": 15921,
          "time": 185.12790697674419,
          "velocity": 0.5039370078740157
        },
        {
          "duration": 0.1046511627907023,
          "durationTicks": 9,
          "midi": 55,
          "name": "G3",
          "ticks": 15923,
          "time": 185.15116279069767,
          "velocity": 0.5039370078740157
        },
        {
          "duration": 0.034883720930224626,
          "durationTicks": 3,
          "midi": 44,
          "name": "G#2",
          "ticks": 15933,
          "time": 185.2674418604651,
          "velocity": 0.2677165354330709
        },
        {
          "duration": 0.06976744186047767,
          "durationTicks": 6,
          "midi": 67,
          "name": "G4",
          "ticks": 15933,
          "time": 185.2674418604651,
          "velocity": 0.09448818897637795
        },
        {
          "duration": 0.05813953488373613,
          "durationTicks": 5,
          "midi": 55,
          "name": "G3",
          "ticks": 15936,
          "time": 185.30232558139534,
          "velocity": 0.23622047244094488
        },
        {
          "duration": 0.04651162790696617,
          "durationTicks": 4,
          "midi": 44,
          "name": "G#2",
          "ticks": 15937,
          "time": 185.3139534883721,
          "velocity": 0.11023622047244094
        },
        {
          "duration": 0.19767441860463464,
          "durationTicks": 17,
          "midi": 86,
          "name": "D6",
          "ticks": 15940,
          "time": 185.34883720930233,
          "velocity": 0.31496062992125984
        },
        {
          "duration": 0.15116279069766847,
          "durationTicks": 13,
          "midi": 67,
          "name": "G4",
          "ticks": 15941,
          "time": 185.36046511627907,
          "velocity": 0.30708661417322836
        },
        {
          "duration": 0.4186046511627808,
          "durationTicks": 36,
          "midi": 74,
          "name": "D5",
          "ticks": 15941,
          "time": 185.36046511627907,
          "velocity": 0.3464566929133858
        },
        {
          "duration": 0.2325581395348877,
          "durationTicks": 20,
          "midi": 77,
          "name": "F5",
          "ticks": 15941,
          "time": 185.36046511627907,
          "velocity": 0.23622047244094488
        },
        {
          "duration": 0.4651162790697754,
          "durationTicks": 40,
          "midi": 62,
          "name": "D4",
          "ticks": 15942,
          "time": 185.37209302325581,
          "velocity": 0.4409448818897638
        },
        {
          "duration": 0.09302325581396076,
          "durationTicks": 8,
          "midi": 95,
          "name": "B6",
          "ticks": 15942,
          "time": 185.37209302325581,
          "velocity": 0.10236220472440945
        },
        {
          "duration": 0.04651162790696617,
          "durationTicks": 4,
          "midi": 55,
          "name": "G3",
          "ticks": 15943,
          "time": 185.38372093023256,
          "velocity": 0.5039370078740157
        },
        {
          "duration": 0.04651162790699459,
          "durationTicks": 4,
          "midi": 65,
          "name": "F4",
          "ticks": 15944,
          "time": 185.3953488372093,
          "velocity": 0.2125984251968504
        },
        {
          "duration": 0.24418604651162923,
          "durationTicks": 21,
          "midi": 72,
          "name": "C5",
          "ticks": 15944,
          "time": 185.3953488372093,
          "velocity": 0.2204724409448819
        },
        {
          "duration": 0.034883720930224626,
          "durationTicks": 3,
          "midi": 55,
          "name": "G3",
          "ticks": 15948,
          "time": 185.4418604651163,
          "velocity": 0.4409448818897638
        },
        {
          "duration": 0.05813953488370771,
          "durationTicks": 5,
          "midi": 65,
          "name": "F4",
          "ticks": 15949,
          "time": 185.45348837209303,
          "velocity": 0.2204724409448819
        },
        {
          "duration": 0.04651162790696617,
          "durationTicks": 4,
          "midi": 97,
          "name": "C#7",
          "ticks": 15950,
          "time": 185.46511627906978,
          "velocity": 0.13385826771653545
        },
        {
          "duration": 0.023255813953483084,
          "durationTicks": 2,
          "midi": 43,
          "name": "G2",
          "ticks": 15951,
          "time": 185.47674418604652,
          "velocity": 0.31496062992125984
        },
        {
          "duration": 0.034883720930224626,
          "durationTicks": 3,
          "midi": 55,
          "name": "G3",
          "ticks": 15952,
          "time": 185.48837209302326,
          "velocity": 0.3937007874015748
        },
        {
          "duration": 0.023255813953483084,
          "durationTicks": 2,
          "midi": 65,
          "name": "F4",
          "ticks": 15955,
          "time": 185.52325581395348,
          "velocity": 0.23622047244094488
        },
        {
          "duration": 0.03488372093025305,
          "durationTicks": 3,
          "midi": 67,
          "name": "G4",
          "ticks": 15957,
          "time": 185.54651162790697,
          "velocity": 0.2204724409448819
        },
        {
          "duration": 0.023255813953483084,
          "durationTicks": 2,
          "midi": 45,
          "name": "A2",
          "ticks": 15959,
          "time": 185.56976744186048,
          "velocity": 0.31496062992125984
        },
        {
          "duration": 0.034883720930224626,
          "durationTicks": 3,
          "midi": 65,
          "name": "F4",
          "ticks": 15959,
          "time": 185.56976744186048,
          "velocity": 0.23622047244094488
        },
        {
          "duration": 0.13953488372092693,
          "durationTicks": 12,
          "midi": 67,
          "name": "G4",
          "ticks": 15961,
          "time": 185.59302325581396,
          "velocity": 0.25984251968503935
        },
        {
          "duration": 0.034883720930224626,
          "durationTicks": 3,
          "midi": 78,
          "name": "F#5",
          "ticks": 15961,
          "time": 185.59302325581396,
          "velocity": 0.07874015748031496
        },
        {
          "duration": 0.023255813953483084,
          "durationTicks": 2,
          "midi": 48,
          "name": "C3",
          "ticks": 15962,
          "time": 185.6046511627907,
          "velocity": 0.3700787401574803
        },
        {
          "duration": 0.023255813953483084,
          "durationTicks": 2,
          "midi": 56,
          "name": "G#3",
          "ticks": 15963,
          "time": 185.61627906976744,
          "velocity": 0.25984251968503935
        },
        {
          "duration": 0.12790697674418539,
          "durationTicks": 11,
          "midi": 55,
          "name": "G3",
          "ticks": 15965,
          "time": 185.63953488372093,
          "velocity": 0.4409448818897638
        },
        {
          "duration": 0.19767441860466306,
          "durationTicks": 17,
          "midi": 69,
          "name": "A4",
          "ticks": 15965,
          "time": 185.63953488372093,
          "velocity": 0.1968503937007874
        },
        {
          "duration": 0.034883720930224626,
          "durationTicks": 3,
          "midi": 71,
          "name": "B4",
          "ticks": 15965,
          "time": 185.63953488372093,
          "velocity": 0.08661417322834646
        },
        {
          "duration": 0.0813953488371908,
          "durationTicks": 7,
          "midi": 50,
          "name": "D3",
          "ticks": 15970,
          "time": 185.69767441860466,
          "velocity": 0.3779527559055118
        },
        {
          "duration": 0.12790697674418539,
          "durationTicks": 11,
          "midi": 65,
          "name": "F4",
          "ticks": 15976,
          "time": 185.7674418604651,
          "velocity": 0.2677165354330709
        },
        {
          "duration": 0.11627906976744384,
          "durationTicks": 10,
          "midi": 72,
          "name": "C5",
          "ticks": 15977,
          "time": 185.77906976744185,
          "velocity": 0.2283464566929134
        },
        {
          "duration": 0.023255813953511506,
          "durationTicks": 2,
          "midi": 54,
          "name": "F#3",
          "ticks": 15978,
          "time": 185.7906976744186,
          "velocity": 0.47244094488188976
        },
        {
          "duration": 0.023255813953483084,
          "durationTicks": 2,
          "midi": 53,
          "name": "F3",
          "ticks": 15982,
          "time": 185.8372093023256,
          "velocity": 0.3779527559055118
        },
        {
          "duration": 0.05813953488370771,
          "durationTicks": 5,
          "midi": 59,
          "name": "B3",
          "ticks": 15983,
          "time": 185.84883720930233,
          "velocity": 0.3228346456692913
        },
        {
          "duration": 0.023255813953483084,
          "durationTicks": 2,
          "midi": 52,
          "name": "E3",
          "ticks": 15984,
          "time": 185.86046511627907,
          "velocity": 0.23622047244094488
        },
        {
          "duration": 0.06976744186047767,
          "durationTicks": 6,
          "midi": 44,
          "name": "G#2",
          "ticks": 15985,
          "time": 185.87209302325581,
          "velocity": 0.3858267716535433
        },
        {
          "duration": 0.11627906976744384,
          "durationTicks": 10,
          "midi": 79,
          "name": "G5",
          "ticks": 15986,
          "time": 185.88372093023256,
          "velocity": 0.16535433070866143
        },
        {
          "duration": 0.11627906976744384,
          "durationTicks": 10,
          "midi": 83,
          "name": "B5",
          "ticks": 15986,
          "time": 185.88372093023256,
          "velocity": 0.15748031496062992
        },
        {
          "duration": 0.09302325581396076,
          "durationTicks": 8,
          "midi": 64,
          "name": "E4",
          "ticks": 15987,
          "time": 185.8953488372093,
          "velocity": 0.25196850393700787
        },
        {
          "duration": 0.034883720930224626,
          "durationTicks": 3,
          "midi": 67,
          "name": "G4",
          "ticks": 15987,
          "time": 185.8953488372093,
          "velocity": 0.15748031496062992
        },
        {
          "duration": 0.18604651162792152,
          "durationTicks": 16,
          "midi": 74,
          "name": "D5",
          "ticks": 15987,
          "time": 185.8953488372093,
          "velocity": 0.2204724409448819
        },
        {
          "duration": 0.09302325581396076,
          "durationTicks": 8,
          "midi": 55,
          "name": "G3",
          "ticks": 15988,
          "time": 185.90697674418604,
          "velocity": 0.5196850393700787
        },
        {
          "duration": 0.04651162790696617,
          "durationTicks": 4,
          "midi": 45,
          "name": "A2",
          "ticks": 15993,
          "time": 185.96511627906978,
          "velocity": 0.3700787401574803
        },
        {
          "duration": 0.023255813953483084,
          "durationTicks": 2,
          "midi": 53,
          "name": "F3",
          "ticks": 15997,
          "time": 186.01162790697674,
          "velocity": 0.4566929133858268
        },
        {
          "duration": 0.034883720930224626,
          "durationTicks": 3,
          "midi": 72,
          "name": "C5",
          "ticks": 15998,
          "time": 186.02325581395348,
          "velocity": 0.12598425196850394
        },
        {
          "duration": 0.34883720930233153,
          "durationTicks": 30,
          "midi": 84,
          "name": "C6",
          "ticks": 15998,
          "time": 186.02325581395348,
          "velocity": 0.13385826771653545
        },
        {
          "duration": 0.19767441860466306,
          "durationTicks": 17,
          "midi": 89,
          "name": "F6",
          "ticks": 15998,
          "time": 186.02325581395348,
          "velocity": 0.14173228346456693
        },
        {
          "duration": 0.03488372093025305,
          "durationTicks": 3,
          "midi": 45,
          "name": "A2",
          "ticks": 15999,
          "time": 186.03488372093022,
          "velocity": 0.3937007874015748
        },
        {
          "duration": 0.023255813953483084,
          "durationTicks": 2,
          "midi": 52,
          "name": "E3",
          "ticks": 15999,
          "time": 186.03488372093022,
          "velocity": 0.41732283464566927
        },
        {
          "duration": 0.11627906976744384,
          "durationTicks": 10,
          "midi": 53,
          "name": "F3",
          "ticks": 16001,
          "time": 186.0581395348837,
          "velocity": 0.4566929133858268
        },
        {
          "duration": 0.19767441860466306,
          "durationTicks": 17,
          "midi": 58,
          "name": "A#3",
          "ticks": 16001,
          "time": 186.0581395348837,
          "velocity": 0.3700787401574803
        },
        {
          "duration": 0.023255813953483084,
          "durationTicks": 2,
          "midi": 46,
          "name": "A#2",
          "ticks": 16007,
          "time": 186.12790697674419,
          "velocity": 0.36220472440944884
        },
        {
          "duration": 0.034883720930224626,
          "durationTicks": 3,
          "midi": 71,
          "name": "B4",
          "ticks": 16009,
          "time": 186.15116279069767,
          "velocity": 0.25984251968503935
        },
        {
          "duration": 0.06976744186047767,
          "durationTicks": 6,
          "midi": 53,
          "name": "F3",
          "ticks": 16012,
          "time": 186.1860465116279,
          "velocity": 0.31496062992125984
        },
        {
          "duration": 0.023255813953483084,
          "durationTicks": 2,
          "midi": 46,
          "name": "A#2",
          "ticks": 16013,
          "time": 186.19767441860466,
          "velocity": 0.3464566929133858
        },
        {
          "duration": 0.023255813953483084,
          "durationTicks": 2,
          "midi": 46,
          "name": "A#2",
          "ticks": 16016,
          "time": 186.2325581395349,
          "velocity": 0.33070866141732286
        },
        {
          "duration": 0.023255813953483084,
          "durationTicks": 2,
          "midi": 56,
          "name": "G#3",
          "ticks": 16019,
          "time": 186.2674418604651,
          "velocity": 0.3779527559055118
        },
        {
          "duration": 0.17441860465117998,
          "durationTicks": 15,
          "midi": 74,
          "name": "D5",
          "ticks": 16019,
          "time": 186.2674418604651,
          "velocity": 0.4094488188976378
        },
        {
          "duration": 0.11627906976744384,
          "durationTicks": 10,
          "midi": 62,
          "name": "D4",
          "ticks": 16020,
          "time": 186.27906976744185,
          "velocity": 0.4094488188976378
        },
        {
          "duration": 0.11627906976744384,
          "durationTicks": 10,
          "midi": 81,
          "name": "A5",
          "ticks": 16020,
          "time": 186.27906976744185,
          "velocity": 0.14173228346456693
        },
        {
          "duration": 0.023255813953511506,
          "durationTicks": 2,
          "midi": 51,
          "name": "D#3",
          "ticks": 16021,
          "time": 186.2906976744186,
          "velocity": 0.33070866141732286
        },
        {
          "duration": 0.09302325581396076,
          "durationTicks": 8,
          "midi": 58,
          "name": "A#3",
          "ticks": 16021,
          "time": 186.2906976744186,
          "velocity": 0.33858267716535434
        },
        {
          "duration": 0.023255813953511506,
          "durationTicks": 2,
          "midi": 45,
          "name": "A2",
          "ticks": 16022,
          "time": 186.30232558139534,
          "velocity": 0.4330708661417323
        },
        {
          "duration": 0.13953488372092693,
          "durationTicks": 12,
          "midi": 53,
          "name": "F3",
          "ticks": 16023,
          "time": 186.3139534883721,
          "velocity": 0.3937007874015748
        },
        {
          "duration": 0.034883720930224626,
          "durationTicks": 3,
          "midi": 46,
          "name": "A#2",
          "ticks": 16024,
          "time": 186.32558139534885,
          "velocity": 0.30708661417322836
        },
        {
          "duration": 0.04651162790696617,
          "durationTicks": 4,
          "midi": 72,
          "name": "C5",
          "ticks": 16026,
          "time": 186.34883720930233,
          "velocity": 0.07874015748031496
        },
        {
          "duration": 0.12790697674418539,
          "durationTicks": 11,
          "midi": 45,
          "name": "A2",
          "ticks": 16029,
          "time": 186.38372093023256,
          "velocity": 0.3464566929133858
        },
        {
          "duration": 0.05813953488370771,
          "durationTicks": 5,
          "midi": 62,
          "name": "D4",
          "ticks": 16034,
          "time": 186.4418604651163,
          "velocity": 0.14960629921259844
        },
        {
          "duration": 0.04651162790696617,
          "durationTicks": 4,
          "midi": 52,
          "name": "E3",
          "ticks": 16035,
          "time": 186.45348837209303,
          "velocity": 0.12598425196850394
        },
        {
          "duration": 0.023255813953483084,
          "durationTicks": 2,
          "midi": 55,
          "name": "G3",
          "ticks": 16041,
          "time": 186.52325581395348,
          "velocity": 0.5196850393700787
        },
        {
          "duration": 0.023255813953483084,
          "durationTicks": 2,
          "midi": 46,
          "name": "A#2",
          "ticks": 16042,
          "time": 186.53488372093022,
          "velocity": 0.3228346456692913
        },
        {
          "duration": 0.2325581395348877,
          "durationTicks": 20,
          "midi": 65,
          "name": "F4",
          "ticks": 16042,
          "time": 186.53488372093022,
          "velocity": 0.25196850393700787
        },
        {
          "duration": 0.2093023255814046,
          "durationTicks": 18,
          "midi": 69,
          "name": "A4",
          "ticks": 16042,
          "time": 186.53488372093022,
          "velocity": 0.3228346456692913
        },
        {
          "duration": 0.12790697674418539,
          "durationTicks": 11,
          "midi": 53,
          "name": "F3",
          "ticks": 16043,
          "time": 186.54651162790697,
          "velocity": 0.4409448818897638
        },
        {
          "duration": 0.11627906976744384,
          "durationTicks": 10,
          "midi": 74,
          "name": "D5",
          "ticks": 16043,
          "time": 186.54651162790697,
          "velocity": 0.18110236220472442
        },
        {
          "duration": 0.11627906976744384,
          "durationTicks": 10,
          "midi": 88,
          "name": "E6",
          "ticks": 16043,
          "time": 186.54651162790697,
          "velocity": 0.2125984251968504
        },
        {
          "duration": 0.023255813953511506,
          "durationTicks": 2,
          "midi": 45,
          "name": "A2",
          "ticks": 16044,
          "time": 186.5581395348837,
          "velocity": 0.4409448818897638
        },
        {
          "duration": 0.11627906976741542,
          "durationTicks": 10,
          "midi": 76,
          "name": "E5",
          "ticks": 16045,
          "time": 186.56976744186048,
          "velocity": 0.14173228346456693
        },
        {
          "duration": 0.023255813953483084,
          "durationTicks": 2,
          "midi": 46,
          "name": "A#2",
          "ticks": 16046,
          "time": 186.58139534883722,
          "velocity": 0.4015748031496063
        },
        {
          "duration": 0.034883720930224626,
          "durationTicks": 3,
          "midi": 57,
          "name": "A3",
          "ticks": 16047,
          "time": 186.59302325581396,
          "velocity": 0.4645669291338583
        },
        {
          "duration": 0.023255813953483084,
          "durationTicks": 2,
          "midi": 57,
          "name": "A3",
          "ticks": 16051,
          "time": 186.63953488372093,
          "velocity": 0.3700787401574803
        },
        {
          "duration": 0.023255813953483084,
          "durationTicks": 2,
          "midi": 46,
          "name": "A#2",
          "ticks": 16052,
          "time": 186.65116279069767,
          "velocity": 0.33858267716535434
        },
        {
          "duration": 0.023255813953511506,
          "durationTicks": 2,
          "midi": 43,
          "name": "G2",
          "ticks": 16055,
          "time": 186.6860465116279,
          "velocity": 0.3543307086614173
        },
        {
          "duration": 0.06976744186044925,
          "durationTicks": 6,
          "midi": 53,
          "name": "F3",
          "ticks": 16056,
          "time": 186.69767441860466,
          "velocity": 0.3700787401574803
        },
        {
          "duration": 0.04651162790696617,
          "durationTicks": 4,
          "midi": 58,
          "name": "A#3",
          "ticks": 16056,
          "time": 186.69767441860466,
          "velocity": 0.3700787401574803
        },
        {
          "duration": 0.034883720930224626,
          "durationTicks": 3,
          "midi": 72,
          "name": "C5",
          "ticks": 16057,
          "time": 186.7093023255814,
          "velocity": 0.08661417322834646
        },
        {
          "duration": 0.04651162790696617,
          "durationTicks": 4,
          "midi": 45,
          "name": "A2",
          "ticks": 16058,
          "time": 186.72093023255815,
          "velocity": 0.3700787401574803
        },
        {
          "duration": 0.034883720930224626,
          "durationTicks": 3,
          "midi": 52,
          "name": "E3",
          "ticks": 16062,
          "time": 186.7674418604651,
          "velocity": 0.29133858267716534
        },
        {
          "duration": 0.023255813953483084,
          "durationTicks": 2,
          "midi": 45,
          "name": "A2",
          "ticks": 16063,
          "time": 186.77906976744185,
          "velocity": 0.2440944881889764
        },
        {
          "duration": 0.023255813953511506,
          "durationTicks": 2,
          "midi": 55,
          "name": "G3",
          "ticks": 16065,
          "time": 186.80232558139534,
          "velocity": 0.41732283464566927
        },
        {
          "duration": 0.034883720930224626,
          "durationTicks": 3,
          "midi": 65,
          "name": "F4",
          "ticks": 16066,
          "time": 186.8139534883721,
          "velocity": 0.25196850393700787
        },
        {
          "duration": 0.034883720930224626,
          "durationTicks": 3,
          "midi": 56,
          "name": "G#3",
          "ticks": 16069,
          "time": 186.84883720930233,
          "velocity": 0.1889763779527559
        },
        {
          "duration": 0.04651162790699459,
          "durationTicks": 4,
          "midi": 71,
          "name": "B4",
          "ticks": 16076,
          "time": 186.93023255813952,
          "velocity": 0.2125984251968504
        },
        {
          "duration": 0.11627906976744384,
          "durationTicks": 10,
          "midi": 84,
          "name": "C6",
          "ticks": 16076,
          "time": 186.93023255813952,
          "velocity": 0.1732283464566929
        },
        {
          "duration": 0.023255813953483084,
          "durationTicks": 2,
          "midi": 48,
          "name": "C3",
          "ticks": 16077,
          "time": 186.9418604651163,
          "velocity": 0.33858267716535434
        },
        {
          "duration": 0.12790697674418539,
          "durationTicks": 11,
          "midi": 80,
          "name": "G#5",
          "ticks": 16077,
          "time": 186.9418604651163,
          "velocity": 0.25984251968503935
        },
        {
          "duration": 0.034883720930224626,
          "durationTicks": 3,
          "midi": 86,
          "name": "D6",
          "ticks": 16077,
          "time": 186.9418604651163,
          "velocity": 0.16535433070866143
        },
        {
          "duration": 0.11627906976741542,
          "durationTicks": 10,
          "midi": 99,
          "name": "D#7",
          "ticks": 16077,
          "time": 186.9418604651163,
          "velocity": 0.15748031496062992
        },
        {
          "duration": 0.11627906976744384,
          "durationTicks": 10,
          "midi": 68,
          "name": "G#4",
          "ticks": 16078,
          "time": 186.95348837209303,
          "velocity": 0.3228346456692913
        },
        {
          "duration": 0.10465116279067388,
          "durationTicks": 9,
          "midi": 87,
          "name": "D#6",
          "ticks": 16078,
          "time": 186.95348837209303,
          "velocity": 0.18110236220472442
        },
        {
          "duration": 0.04651162790696617,
          "durationTicks": 4,
          "midi": 102,
          "name": "F#7",
          "ticks": 16078,
          "time": 186.95348837209303,
          "velocity": 0.11811023622047244
        },
        {
          "duration": 0.05813953488370771,
          "durationTicks": 5,
          "midi": 55,
          "name": "G3",
          "ticks": 16079,
          "time": 186.96511627906978,
          "velocity": 0.3858267716535433
        },
        {
          "duration": 0.0813953488371908,
          "durationTicks": 7,
          "midi": 60,
          "name": "C4",
          "ticks": 16079,
          "time": 186.96511627906978,
          "velocity": 0.28346456692913385
        },
        {
          "duration": 0.09302325581393234,
          "durationTicks": 8,
          "midi": 75,
          "name": "D#5",
          "ticks": 16079,
          "time": 186.96511627906978,
          "velocity": 0.18110236220472442
        },
        {
          "duration": 0.0813953488371908,
          "durationTicks": 7,
          "midi": 77,
          "name": "F5",
          "ticks": 16080,
          "time": 186.97674418604652,
          "velocity": 0.11811023622047244
        },
        {
          "duration": 0.023255813953483084,
          "durationTicks": 2,
          "midi": 44,
          "name": "G#2",
          "ticks": 16082,
          "time": 187,
          "velocity": 0.41732283464566927
        },
        {
          "duration": 0.03488372093025305,
          "durationTicks": 3,
          "midi": 56,
          "name": "G#3",
          "ticks": 16086,
          "time": 187.04651162790697,
          "velocity": 0.3464566929133858
        },
        {
          "duration": 0.04651162790696617,
          "durationTicks": 4,
          "midi": 55,
          "name": "G3",
          "ticks": 16089,
          "time": 187.08139534883722,
          "velocity": 0.3228346456692913
        },
        {
          "duration": 0.09302325581393234,
          "durationTicks": 8,
          "midi": 44,
          "name": "G#2",
          "ticks": 16090,
          "time": 187.09302325581396,
          "velocity": 0.2677165354330709
        },
        {
          "duration": 0.03488372093025305,
          "durationTicks": 3,
          "midi": 56,
          "name": "G#3",
          "ticks": 16098,
          "time": 187.1860465116279,
          "velocity": 0.47244094488188976
        },
        {
          "duration": 0.1279069767442138,
          "durationTicks": 11,
          "midi": 67,
          "name": "G4",
          "ticks": 16098,
          "time": 187.1860465116279,
          "velocity": 0.28346456692913385
        },
        {
          "duration": 0.03488372093025305,
          "durationTicks": 3,
          "midi": 87,
          "name": "D#6",
          "ticks": 16098,
          "time": 187.1860465116279,
          "velocity": 0.11811023622047244
        },
        {
          "duration": 0.16279069767441,
          "durationTicks": 14,
          "midi": 74,
          "name": "D5",
          "ticks": 16099,
          "time": 187.19767441860466,
          "velocity": 0.2125984251968504
        },
        {
          "duration": 0.04651162790696617,
          "durationTicks": 4,
          "midi": 85,
          "name": "C#6",
          "ticks": 16099,
          "time": 187.19767441860466,
          "velocity": 0.14173228346456693
        },
        {
          "duration": 0.13953488372092693,
          "durationTicks": 12,
          "midi": 72,
          "name": "C5",
          "ticks": 16100,
          "time": 187.2093023255814,
          "velocity": 0.18110236220472442
        },
        {
          "duration": 0.023255813953483084,
          "durationTicks": 2,
          "midi": 46,
          "name": "A#2",
          "ticks": 16101,
          "time": 187.22093023255815,
          "velocity": 0.3464566929133858
        },
        {
          "duration": 0.1046511627907023,
          "durationTicks": 9,
          "midi": 55,
          "name": "G3",
          "ticks": 16101,
          "time": 187.22093023255815,
          "velocity": 0.5433070866141733
        },
        {
          "duration": 0.11627906976744384,
          "durationTicks": 10,
          "midi": 60,
          "name": "C4",
          "ticks": 16101,
          "time": 187.22093023255815,
          "velocity": 0.25984251968503935
        },
        {
          "duration": 0.023255813953483084,
          "durationTicks": 2,
          "midi": 44,
          "name": "G#2",
          "ticks": 16105,
          "time": 187.2674418604651,
          "velocity": 0.4409448818897638
        },
        {
          "duration": 0.023255813953483084,
          "durationTicks": 2,
          "midi": 56,
          "name": "G#3",
          "ticks": 16110,
          "time": 187.32558139534885,
          "velocity": 0.23622047244094488
        },
        {
          "duration": 0.04651162790696617,
          "durationTicks": 4,
          "midi": 56,
          "name": "G#3",
          "ticks": 16113,
          "time": 187.36046511627907,
          "velocity": 0.2440944881889764
        },
        {
          "duration": 0.023255813953483084,
          "durationTicks": 2,
          "midi": 66,
          "name": "F#4",
          "ticks": 16121,
          "time": 187.45348837209303,
          "velocity": 0.28346456692913385
        },
        {
          "duration": 0.2674418604651123,
          "durationTicks": 23,
          "midi": 77,
          "name": "F5",
          "ticks": 16121,
          "time": 187.45348837209303,
          "velocity": 0.2204724409448819
        },
        {
          "duration": 0.034883720930224626,
          "durationTicks": 3,
          "midi": 81,
          "name": "A5",
          "ticks": 16121,
          "time": 187.45348837209303,
          "velocity": 0.09448818897637795
        },
        {
          "duration": 0.0813953488371908,
          "durationTicks": 7,
          "midi": 91,
          "name": "G6",
          "ticks": 16121,
          "time": 187.45348837209303,
          "velocity": 0.13385826771653545
        },
        {
          "duration": 0.10465116279067388,
          "durationTicks": 9,
          "midi": 99,
          "name": "D#7",
          "ticks": 16121,
          "time": 187.45348837209303,
          "velocity": 0.08661417322834646
        },
        {
          "duration": 0.023255813953483084,
          "durationTicks": 2,
          "midi": 53,
          "name": "F3",
          "ticks": 16122,
          "time": 187.46511627906978,
          "velocity": 0.4330708661417323
        },
        {
          "duration": 0.023255813953483084,
          "durationTicks": 2,
          "midi": 58,
          "name": "A#3",
          "ticks": 16122,
          "time": 187.46511627906978,
          "velocity": 0.3937007874015748
        },
        {
          "duration": 0.22093023255811772,
          "durationTicks": 19,
          "midi": 72,
          "name": "C5",
          "ticks": 16122,
          "time": 187.46511627906978,
          "velocity": 0.29133858267716534
        },
        {
          "duration": 0.11627906976744384,
          "durationTicks": 10,
          "midi": 98,
          "name": "D7",
          "ticks": 16122,
          "time": 187.46511627906978,
          "velocity": 0.11811023622047244
        },
        {
          "duration": 0.011627906976741542,
          "durationTicks": 1,
          "midi": 54,
          "name": "F#3",
          "ticks": 16124,
          "time": 187.48837209302326,
          "velocity": 0.5118110236220472
        },
        {
          "duration": 0.15116279069766847,
          "durationTicks": 13,
          "midi": 86,
          "name": "D6",
          "ticks": 16124,
          "time": 187.48837209302326,
          "velocity": 0.18110236220472442
        },
        {
          "duration": 0.05813953488370771,
          "durationTicks": 5,
          "midi": 55,
          "name": "G3",
          "ticks": 16125,
          "time": 187.5,
          "velocity": 0.4645669291338583
        },
        {
          "duration": 0.08139534883721922,
          "durationTicks": 7,
          "midi": 60,
          "name": "C4",
          "ticks": 16125,
          "time": 187.5,
          "velocity": 0.29133858267716534
        },
        {
          "duration": 0.023255813953483084,
          "durationTicks": 2,
          "midi": 43,
          "name": "G2",
          "ticks": 16132,
          "time": 187.58139534883722,
          "velocity": 0.36220472440944884
        },
        {
          "duration": 0.04651162790696617,
          "durationTicks": 4,
          "midi": 53,
          "name": "F3",
          "ticks": 16132,
          "time": 187.58139534883722,
          "velocity": 0.3858267716535433
        },
        {
          "duration": 0.04651162790696617,
          "durationTicks": 4,
          "midi": 61,
          "name": "C#4",
          "ticks": 16132,
          "time": 187.58139534883722,
          "velocity": 0.2440944881889764
        },
        {
          "duration": 0.2674418604651123,
          "durationTicks": 23,
          "midi": 74,
          "name": "D5",
          "ticks": 16132,
          "time": 187.58139534883722,
          "velocity": 0.1732283464566929
        },
        {
          "duration": 0.023255813953483084,
          "durationTicks": 2,
          "midi": 45,
          "name": "A2",
          "ticks": 16134,
          "time": 187.6046511627907,
          "velocity": 0.3858267716535433
        },
        {
          "duration": 0.09302325581396076,
          "durationTicks": 8,
          "midi": 83,
          "name": "B5",
          "ticks": 16134,
          "time": 187.6046511627907,
          "velocity": 0.07874015748031496
        },
        {
          "duration": 0.09302325581396076,
          "durationTicks": 8,
          "midi": 93,
          "name": "A6",
          "ticks": 16134,
          "time": 187.6046511627907,
          "velocity": 0.12598425196850394
        },
        {
          "duration": 0.034883720930224626,
          "durationTicks": 3,
          "midi": 67,
          "name": "G4",
          "ticks": 16135,
          "time": 187.61627906976744,
          "velocity": 0.25984251968503935
        },
        {
          "duration": 0.023255813953483084,
          "durationTicks": 2,
          "midi": 55,
          "name": "G3",
          "ticks": 16136,
          "time": 187.62790697674419,
          "velocity": 0.47244094488188976
        },
        {
          "duration": 0.2906976744185954,
          "durationTicks": 25,
          "midi": 60,
          "name": "C4",
          "ticks": 16136,
          "time": 187.62790697674419,
          "velocity": 0.2992125984251969
        },
        {
          "duration": 0.18604651162792152,
          "durationTicks": 16,
          "midi": 91,
          "name": "G6",
          "ticks": 16136,
          "time": 187.62790697674419,
          "velocity": 0.25196850393700787
        },
        {
          "duration": 0.034883720930224626,
          "durationTicks": 3,
          "midi": 65,
          "name": "F4",
          "ticks": 16137,
          "time": 187.63953488372093,
          "velocity": 0.2440944881889764
        },
        {
          "duration": 0.25581395348837077,
          "durationTicks": 22,
          "midi": 79,
          "name": "G5",
          "ticks": 16138,
          "time": 187.65116279069767,
          "velocity": 0.11811023622047244
        },
        {
          "duration": 0.023255813953483084,
          "durationTicks": 2,
          "midi": 43,
          "name": "G2",
          "ticks": 16139,
          "time": 187.6627906976744,
          "velocity": 0.4015748031496063
        },
        {
          "duration": 0.04651162790699459,
          "durationTicks": 4,
          "midi": 55,
          "name": "G3",
          "ticks": 16139,
          "time": 187.6627906976744,
          "velocity": 0.4094488188976378
        },
        {
          "duration": 0.08139534883721922,
          "durationTicks": 7,
          "midi": 71,
          "name": "B4",
          "ticks": 16140,
          "time": 187.67441860465115,
          "velocity": 0.25196850393700787
        },
        {
          "duration": 0.034883720930224626,
          "durationTicks": 3,
          "midi": 92,
          "name": "G#6",
          "ticks": 16142,
          "time": 187.69767441860466,
          "velocity": 0.08661417322834646
        },
        {
          "duration": 0.023255813953483084,
          "durationTicks": 2,
          "midi": 50,
          "name": "D3",
          "ticks": 16144,
          "time": 187.72093023255815,
          "velocity": 0.3700787401574803
        },
        {
          "duration": 0.11627906976744384,
          "durationTicks": 10,
          "midi": 55,
          "name": "G3",
          "ticks": 16144,
          "time": 187.72093023255815,
          "velocity": 0.33070866141732286
        },
        {
          "duration": 0.023255813953483084,
          "durationTicks": 2,
          "midi": 51,
          "name": "D#3",
          "ticks": 16146,
          "time": 187.74418604651163,
          "velocity": 0.31496062992125984
        },
        {
          "duration": 0.034883720930224626,
          "durationTicks": 3,
          "midi": 49,
          "name": "C#3",
          "ticks": 16148,
          "time": 187.7674418604651,
          "velocity": 0.3937007874015748
        },
        {
          "duration": 0.023255813953483084,
          "durationTicks": 2,
          "midi": 43,
          "name": "G2",
          "ticks": 16149,
          "time": 187.77906976744185,
          "velocity": 0.2992125984251969
        },
        {
          "duration": 0.034883720930224626,
          "durationTicks": 3,
          "midi": 50,
          "name": "D3",
          "ticks": 16153,
          "time": 187.82558139534885,
          "velocity": 0.3779527559055118
        },
        {
          "duration": 0.12790697674418539,
          "durationTicks": 11,
          "midi": 77,
          "name": "F5",
          "ticks": 16154,
          "time": 187.8372093023256,
          "velocity": 0.2125984251968504
        },
        {
          "duration": 0.05813953488370771,
          "durationTicks": 5,
          "midi": 83,
          "name": "B5",
          "ticks": 16154,
          "time": 187.8372093023256,
          "velocity": 0.11023622047244094
        },
        {
          "duration": 0.05813953488370771,
          "durationTicks": 5,
          "midi": 91,
          "name": "G6",
          "ticks": 16154,
          "time": 187.8372093023256,
          "velocity": 0.1889763779527559
        },
        {
          "duration": 0.12790697674418539,
          "durationTicks": 11,
          "midi": 65,
          "name": "F4",
          "ticks": 16155,
          "time": 187.84883720930233,
          "velocity": 0.2440944881889764
        },
        {
          "duration": 0.04651162790696617,
          "durationTicks": 4,
          "midi": 99,
          "name": "D#7",
          "ticks": 16155,
          "time": 187.84883720930233,
          "velocity": 0.09448818897637795
        },
        {
          "duration": 0.034883720930224626,
          "durationTicks": 3,
          "midi": 100,
          "name": "E7",
          "ticks": 16155,
          "time": 187.84883720930233,
          "velocity": 0.13385826771653545
        },
        {
          "duration": 0.034883720930224626,
          "durationTicks": 3,
          "midi": 101,
          "name": "F7",
          "ticks": 16155,
          "time": 187.84883720930233,
          "velocity": 0.08661417322834646
        },
        {
          "duration": 0.1046511627907023,
          "durationTicks": 9,
          "midi": 53,
          "name": "F3",
          "ticks": 16156,
          "time": 187.86046511627907,
          "velocity": 0.44881889763779526
        },
        {
          "duration": 0.04651162790696617,
          "durationTicks": 4,
          "midi": 98,
          "name": "D7",
          "ticks": 16156,
          "time": 187.86046511627907,
          "velocity": 0.1889763779527559
        },
        {
          "duration": 0.034883720930224626,
          "durationTicks": 3,
          "midi": 102,
          "name": "F#7",
          "ticks": 16156,
          "time": 187.86046511627907,
          "velocity": 0.07086614173228346
        },
        {
          "duration": 0.023255813953483084,
          "durationTicks": 2,
          "midi": 43,
          "name": "G2",
          "ticks": 16160,
          "time": 187.90697674418604,
          "velocity": 0.3779527559055118
        },
        {
          "duration": 0.023255813953511506,
          "durationTicks": 2,
          "midi": 61,
          "name": "C#4",
          "ticks": 16161,
          "time": 187.91860465116278,
          "velocity": 0.25984251968503935
        },
        {
          "duration": 0.034883720930224626,
          "durationTicks": 3,
          "midi": 97,
          "name": "C#7",
          "ticks": 16163,
          "time": 187.9418604651163,
          "velocity": 0.14960629921259844
        },
        {
          "duration": 0.023255813953483084,
          "durationTicks": 2,
          "midi": 45,
          "name": "A2",
          "ticks": 16164,
          "time": 187.95348837209303,
          "velocity": 0.44881889763779526
        },
        {
          "duration": 0.034883720930224626,
          "durationTicks": 3,
          "midi": 54,
          "name": "F#3",
          "ticks": 16165,
          "time": 187.96511627906978,
          "velocity": 0.5118110236220472
        },
        {
          "duration": 0.15116279069766847,
          "durationTicks": 13,
          "midi": 74,
          "name": "D5",
          "ticks": 16165,
          "time": 187.96511627906978,
          "velocity": 0.2440944881889764
        },
        {
          "duration": 0.1046511627907023,
          "durationTicks": 9,
          "midi": 67,
          "name": "G4",
          "ticks": 16166,
          "time": 187.97674418604652,
          "velocity": 0.16535433070866143
        },
        {
          "duration": 0.11627906976744384,
          "durationTicks": 10,
          "midi": 79,
          "name": "G5",
          "ticks": 16166,
          "time": 187.97674418604652,
          "velocity": 0.1968503937007874
        },
        {
          "duration": 0.05813953488370771,
          "durationTicks": 5,
          "midi": 83,
          "name": "B5",
          "ticks": 16167,
          "time": 187.98837209302326,
          "velocity": 0.07086614173228346
        },
        {
          "duration": 0.08139534883721922,
          "durationTicks": 7,
          "midi": 44,
          "name": "G#2",
          "ticks": 16168,
          "time": 188,
          "velocity": 0.3228346456692913
        },
        {
          "duration": 0.12790697674418539,
          "durationTicks": 11,
          "midi": 55,
          "name": "G3",
          "ticks": 16168,
          "time": 188,
          "velocity": 0.5039370078740157
        },
        {
          "duration": 0.023255813953483084,
          "durationTicks": 2,
          "midi": 49,
          "name": "C#3",
          "ticks": 16179,
          "time": 188.12790697674419,
          "velocity": 0.4330708661417323
        },
        {
          "duration": 0.45348837209303383,
          "durationTicks": 39,
          "midi": 81,
          "name": "A5",
          "ticks": 16179,
          "time": 188.12790697674419,
          "velocity": 0.2440944881889764
        },
        {
          "duration": 0.04651162790696617,
          "durationTicks": 4,
          "midi": 88,
          "name": "E6",
          "ticks": 16179,
          "time": 188.12790697674419,
          "velocity": 0.16535433070866143
        },
        {
          "duration": 0.24418604651162923,
          "durationTicks": 21,
          "midi": 57,
          "name": "A3",
          "ticks": 16180,
          "time": 188.13953488372093,
          "velocity": 0.4566929133858268
        },
        {
          "duration": 0.05813953488373613,
          "durationTicks": 5,
          "midi": 62,
          "name": "D4",
          "ticks": 16180,
          "time": 188.13953488372093,
          "velocity": 0.33070866141732286
        },
        {
          "duration": 0.17441860465117998,
          "durationTicks": 15,
          "midi": 97,
          "name": "C#7",
          "ticks": 16180,
          "time": 188.13953488372093,
          "velocity": 0.12598425196850394
        },
        {
          "duration": 0.22093023255814614,
          "durationTicks": 19,
          "midi": 50,
          "name": "D3",
          "ticks": 16181,
          "time": 188.15116279069767,
          "velocity": 0.44881889763779526
        },
        {
          "duration": 0.25581395348837077,
          "durationTicks": 22,
          "midi": 76,
          "name": "E5",
          "ticks": 16181,
          "time": 188.15116279069767,
          "velocity": 0.2440944881889764
        },
        {
          "duration": 0.2093023255814046,
          "durationTicks": 18,
          "midi": 78,
          "name": "F#5",
          "ticks": 16181,
          "time": 188.15116279069767,
          "velocity": 0.16535433070866143
        },
        {
          "duration": 0.023255813953511506,
          "durationTicks": 2,
          "midi": 40,
          "name": "E2",
          "ticks": 16183,
          "time": 188.17441860465115,
          "velocity": 0.2440944881889764
        },
        {
          "duration": 0.11627906976744384,
          "durationTicks": 10,
          "midi": 94,
          "name": "A#6",
          "ticks": 16183,
          "time": 188.17441860465115,
          "velocity": 0.12598425196850394
        },
        {
          "duration": 0.10465116279067388,
          "durationTicks": 9,
          "midi": 64,
          "name": "E4",
          "ticks": 16185,
          "time": 188.19767441860466,
          "velocity": 0.25196850393700787
        },
        {
          "duration": 0.7325581395348877,
          "durationTicks": 63,
          "midi": 74,
          "name": "D5",
          "ticks": 16186,
          "time": 188.2093023255814,
          "velocity": 0.3937007874015748
        },
        {
          "duration": 0.023255813953483084,
          "durationTicks": 2,
          "midi": 58,
          "name": "A#3",
          "ticks": 16201,
          "time": 188.38372093023256,
          "velocity": 0.36220472440944884
        },
        {
          "duration": 0.023255813953483084,
          "durationTicks": 2,
          "midi": 44,
          "name": "G#2",
          "ticks": 16202,
          "time": 188.3953488372093,
          "velocity": 0.3779527559055118
        },
        {
          "duration": 0.15116279069766847,
          "durationTicks": 13,
          "midi": 57,
          "name": "A3",
          "ticks": 16203,
          "time": 188.40697674418604,
          "velocity": 0.41732283464566927
        },
        {
          "duration": 0.023255813953483084,
          "durationTicks": 2,
          "midi": 65,
          "name": "F4",
          "ticks": 16203,
          "time": 188.40697674418604,
          "velocity": 0.2440944881889764
        },
        {
          "duration": 0.03488372093025305,
          "durationTicks": 3,
          "midi": 44,
          "name": "G#2",
          "ticks": 16205,
          "time": 188.43023255813952,
          "velocity": 0.3858267716535433
        },
        {
          "duration": 0.12790697674418539,
          "durationTicks": 11,
          "midi": 62,
          "name": "D4",
          "ticks": 16205,
          "time": 188.43023255813952,
          "velocity": 0.4330708661417323
        },
        {
          "duration": 0.13953488372095535,
          "durationTicks": 12,
          "midi": 76,
          "name": "E5",
          "ticks": 16205,
          "time": 188.43023255813952,
          "velocity": 0.18110236220472442
        },
        {
          "duration": 0.11627906976741542,
          "durationTicks": 10,
          "midi": 50,
          "name": "D3",
          "ticks": 16206,
          "time": 188.4418604651163,
          "velocity": 0.30708661417322836
        },
        {
          "duration": 0.023255813953511506,
          "durationTicks": 2,
          "midi": 56,
          "name": "G#3",
          "ticks": 16216,
          "time": 188.5581395348837,
          "velocity": 0.29133858267716534
        },
        {
          "duration": 0.034883720930224626,
          "durationTicks": 3,
          "midi": 50,
          "name": "D3",
          "ticks": 16217,
          "time": 188.56976744186048,
          "velocity": 0.2204724409448819
        },
        {
          "duration": 0.03488372093025305,
          "durationTicks": 3,
          "midi": 66,
          "name": "F#4",
          "ticks": 16226,
          "time": 188.67441860465115,
          "velocity": 0.2440944881889764
        },
        {
          "duration": 0.2790697674418823,
          "durationTicks": 24,
          "midi": 69,
          "name": "A4",
          "ticks": 16226,
          "time": 188.67441860465115,
          "velocity": 0.36220472440944884
        },
        {
          "duration": 0.05813953488373613,
          "durationTicks": 5,
          "midi": 44,
          "name": "G#2",
          "ticks": 16227,
          "time": 188.6860465116279,
          "velocity": 0.41732283464566927
        },
        {
          "duration": 0.023255813953511506,
          "durationTicks": 2,
          "midi": 56,
          "name": "G#3",
          "ticks": 16227,
          "time": 188.6860465116279,
          "velocity": 0.48031496062992124
        },
        {
          "duration": 0.24418604651162923,
          "durationTicks": 21,
          "midi": 76,
          "name": "E5",
          "ticks": 16227,
          "time": 188.6860465116279,
          "velocity": 0.1968503937007874
        },
        {
          "duration": 0.17441860465117998,
          "durationTicks": 15,
          "midi": 88,
          "name": "E6",
          "ticks": 16227,
          "time": 188.6860465116279,
          "velocity": 0.2047244094488189
        },
        {
          "duration": 0.17441860465117998,
          "durationTicks": 15,
          "midi": 93,
          "name": "A6",
          "ticks": 16227,
          "time": 188.6860465116279,
          "velocity": 0.29133858267716534
        },
        {
          "duration": 0.24418604651162923,
          "durationTicks": 21,
          "midi": 57,
          "name": "A3",
          "ticks": 16229,
          "time": 188.7093023255814,
          "velocity": 0.4645669291338583
        },
        {
          "duration": 0.05813953488370771,
          "durationTicks": 5,
          "midi": 62,
          "name": "D4",
          "ticks": 16230,
          "time": 188.72093023255815,
          "velocity": 0.25984251968503935
        },
        {
          "duration": 0.08139534883721922,
          "durationTicks": 7,
          "midi": 50,
          "name": "D3",
          "ticks": 16231,
          "time": 188.7325581395349,
          "velocity": 0.28346456692913385
        },
        {
          "duration": 0.034883720930224626,
          "durationTicks": 3,
          "midi": 103,
          "name": "G7",
          "ticks": 16231,
          "time": 188.7325581395349,
          "velocity": 0.09448818897637795
        },
        {
          "duration": 0.13953488372092693,
          "durationTicks": 12,
          "midi": 83,
          "name": "B5",
          "ticks": 16235,
          "time": 188.77906976744185,
          "velocity": 0.1732283464566929
        },
        {
          "duration": 0.023255813953511506,
          "durationTicks": 2,
          "midi": 62,
          "name": "D4",
          "ticks": 16237,
          "time": 188.80232558139534,
          "velocity": 0.2992125984251969
        },
        {
          "duration": 0.10465116279067388,
          "durationTicks": 9,
          "midi": 64,
          "name": "E4",
          "ticks": 16238,
          "time": 188.8139534883721,
          "velocity": 0.29133858267716534
        },
        {
          "duration": 0.023255813953483084,
          "durationTicks": 2,
          "midi": 45,
          "name": "A2",
          "ticks": 16243,
          "time": 188.87209302325581,
          "velocity": 0.2677165354330709
        },
        {
          "duration": 0.023255813953483084,
          "durationTicks": 2,
          "midi": 50,
          "name": "D3",
          "ticks": 16243,
          "time": 188.87209302325581,
          "velocity": 0.29133858267716534
        },
        {
          "duration": 0.023255813953483084,
          "durationTicks": 2,
          "midi": 48,
          "name": "C3",
          "ticks": 16245,
          "time": 188.8953488372093,
          "velocity": 0.30708661417322836
        },
        {
          "duration": 0.023255813953483084,
          "durationTicks": 2,
          "midi": 50,
          "name": "D3",
          "ticks": 16250,
          "time": 188.95348837209303,
          "velocity": 0.25984251968503935
        },
        {
          "duration": 0.04651162790696617,
          "durationTicks": 4,
          "midi": 44,
          "name": "G#2",
          "ticks": 16251,
          "time": 188.96511627906978,
          "velocity": 0.3543307086614173
        },
        {
          "duration": 0.023255813953483084,
          "durationTicks": 2,
          "midi": 44,
          "name": "G#2",
          "ticks": 16256,
          "time": 189.02325581395348,
          "velocity": 0.33070866141732286
        },
        {
          "duration": 0.023255813953511506,
          "durationTicks": 2,
          "midi": 61,
          "name": "C#4",
          "ticks": 16258,
          "time": 189.04651162790697,
          "velocity": 0.3700787401574803
        },
        {
          "duration": 0.40697674418606766,
          "durationTicks": 35,
          "midi": 74,
          "name": "D5",
          "ticks": 16258,
          "time": 189.04651162790697,
          "velocity": 0.2755905511811024
        },
        {
          "duration": 0.023255813953511506,
          "durationTicks": 2,
          "midi": 55,
          "name": "G3",
          "ticks": 16259,
          "time": 189.0581395348837,
          "velocity": 0.47244094488188976
        },
        {
          "duration": 0.13953488372095535,
          "durationTicks": 12,
          "midi": 68,
          "name": "G#4",
          "ticks": 16259,
          "time": 189.0581395348837,
          "velocity": 0.3700787401574803
        },
        {
          "duration": 0.16279069767443843,
          "durationTicks": 14,
          "midi": 93,
          "name": "A6",
          "ticks": 16259,
          "time": 189.0581395348837,
          "velocity": 0.12598425196850394
        },
        {
          "duration": 0.44186046511626387,
          "durationTicks": 38,
          "midi": 62,
          "name": "D4",
          "ticks": 16260,
          "time": 189.06976744186048,
          "velocity": 0.4094488188976378
        },
        {
          "duration": 0.034883720930224626,
          "durationTicks": 3,
          "midi": 84,
          "name": "C6",
          "ticks": 16260,
          "time": 189.06976744186048,
          "velocity": 0.18110236220472442
        },
        {
          "duration": 0.034883720930224626,
          "durationTicks": 3,
          "midi": 102,
          "name": "F#7",
          "ticks": 16260,
          "time": 189.06976744186048,
          "velocity": 0.13385826771653545
        },
        {
          "duration": 0.2325581395348877,
          "durationTicks": 20,
          "midi": 76,
          "name": "E5",
          "ticks": 16261,
          "time": 189.08139534883722,
          "velocity": 0.12598425196850394
        },
        {
          "duration": 0.034883720930224626,
          "durationTicks": 3,
          "midi": 79,
          "name": "G5",
          "ticks": 16261,
          "time": 189.08139534883722,
          "velocity": 0.09448818897637795
        },
        {
          "duration": 0.3720930232558146,
          "durationTicks": 32,
          "midi": 88,
          "name": "E6",
          "ticks": 16261,
          "time": 189.08139534883722,
          "velocity": 0.1968503937007874
        },
        {
          "duration": 0.11627906976744384,
          "durationTicks": 10,
          "midi": 92,
          "name": "G#6",
          "ticks": 16261,
          "time": 189.08139534883722,
          "velocity": 0.25984251968503935
        },
        {
          "duration": 0.023255813953483084,
          "durationTicks": 2,
          "midi": 45,
          "name": "A2",
          "ticks": 16262,
          "time": 189.09302325581396,
          "velocity": 0.3464566929133858
        },
        {
          "duration": 0.17441860465115155,
          "durationTicks": 15,
          "midi": 71,
          "name": "B4",
          "ticks": 16262,
          "time": 189.09302325581396,
          "velocity": 0.3228346456692913
        },
        {
          "duration": 0.22093023255814614,
          "durationTicks": 19,
          "midi": 50,
          "name": "D3",
          "ticks": 16263,
          "time": 189.1046511627907,
          "velocity": 0.33070866141732286
        },
        {
          "duration": 0.09302325581396076,
          "durationTicks": 8,
          "midi": 99,
          "name": "D#7",
          "ticks": 16263,
          "time": 189.1046511627907,
          "velocity": 0.11023622047244094
        },
        {
          "duration": 0.13953488372092693,
          "durationTicks": 12,
          "midi": 67,
          "name": "G4",
          "ticks": 16281,
          "time": 189.3139534883721,
          "velocity": 0.4094488188976378
        },
        {
          "duration": 0.16279069767441,
          "durationTicks": 14,
          "midi": 91,
          "name": "G6",
          "ticks": 16282,
          "time": 189.32558139534885,
          "velocity": 0.3228346456692913
        },
        {
          "duration": 0.023255813953483084,
          "durationTicks": 2,
          "midi": 45,
          "name": "A2",
          "ticks": 16283,
          "time": 189.3372093023256,
          "velocity": 0.29133858267716534
        },
        {
          "duration": 0.09302325581393234,
          "durationTicks": 8,
          "midi": 71,
          "name": "B4",
          "ticks": 16283,
          "time": 189.3372093023256,
          "velocity": 0.28346456692913385
        },
        {
          "duration": 0.1046511627907023,
          "durationTicks": 9,
          "midi": 81,
          "name": "A5",
          "ticks": 16284,
          "time": 189.34883720930233,
          "velocity": 0.07086614173228346
        },
        {
          "duration": 0.034883720930224626,
          "durationTicks": 3,
          "midi": 57,
          "name": "A3",
          "ticks": 16285,
          "time": 189.36046511627907,
          "velocity": 0.23622047244094488
        },
        {
          "duration": 0.023255813953483084,
          "durationTicks": 2,
          "midi": 45,
          "name": "A2",
          "ticks": 16287,
          "time": 189.38372093023256,
          "velocity": 0.25984251968503935
        },
        {
          "duration": 0.023255813953483084,
          "durationTicks": 2,
          "midi": 50,
          "name": "D3",
          "ticks": 16287,
          "time": 189.38372093023256,
          "velocity": 0.28346456692913385
        },
        {
          "duration": 0.03488372093025305,
          "durationTicks": 3,
          "midi": 50,
          "name": "D3",
          "ticks": 16290,
          "time": 189.41860465116278,
          "velocity": 0.31496062992125984
        },
        {
          "duration": 0.023255813953483084,
          "durationTicks": 2,
          "midi": 58,
          "name": "A#3",
          "ticks": 16292,
          "time": 189.4418604651163,
          "velocity": 0.25196850393700787
        },
        {
          "duration": 0.034883720930224626,
          "durationTicks": 3,
          "midi": 66,
          "name": "F#4",
          "ticks": 16293,
          "time": 189.45348837209303,
          "velocity": 0.33070866141732286
        },
        {
          "duration": 0.1046511627907023,
          "durationTicks": 9,
          "midi": 57,
          "name": "A3",
          "ticks": 16294,
          "time": 189.46511627906978,
          "velocity": 0.2755905511811024
        },
        {
          "duration": 0.09302325581396076,
          "durationTicks": 8,
          "midi": 45,
          "name": "A2",
          "ticks": 16297,
          "time": 189.5,
          "velocity": 0.3464566929133858
        },
        {
          "duration": 0.023255813953511506,
          "durationTicks": 2,
          "midi": 61,
          "name": "C#4",
          "ticks": 16302,
          "time": 189.5581395348837,
          "velocity": 0.25984251968503935
        },
        {
          "duration": 0.034883720930224626,
          "durationTicks": 3,
          "midi": 55,
          "name": "G3",
          "ticks": 16303,
          "time": 189.56976744186048,
          "velocity": 0.3700787401574803
        },
        {
          "duration": 0.16279069767441,
          "durationTicks": 14,
          "midi": 74,
          "name": "D5",
          "ticks": 16303,
          "time": 189.56976744186048,
          "velocity": 0.23622047244094488
        },
        {
          "duration": 0.034883720930224626,
          "durationTicks": 3,
          "midi": 76,
          "name": "E5",
          "ticks": 16303,
          "time": 189.56976744186048,
          "velocity": 0.14960629921259844
        },
        {
          "duration": 0.16279069767441,
          "durationTicks": 14,
          "midi": 88,
          "name": "E6",
          "ticks": 16303,
          "time": 189.56976744186048,
          "velocity": 0.1889763779527559
        },
        {
          "duration": 0.023255813953483084,
          "durationTicks": 2,
          "midi": 62,
          "name": "D4",
          "ticks": 16304,
          "time": 189.58139534883722,
          "velocity": 0.2992125984251969
        },
        {
          "duration": 0.13953488372092693,
          "durationTicks": 12,
          "midi": 69,
          "name": "A4",
          "ticks": 16304,
          "time": 189.58139534883722,
          "velocity": 0.1889763779527559
        },
        {
          "duration": 0.2674418604651123,
          "durationTicks": 23,
          "midi": 65,
          "name": "F4",
          "ticks": 16305,
          "time": 189.59302325581396,
          "velocity": 0.47244094488188976
        },
        {
          "duration": 0.2093023255814046,
          "durationTicks": 18,
          "midi": 62,
          "name": "D4",
          "ticks": 16307,
          "time": 189.61627906976744,
          "velocity": 0.36220472440944884
        },
        {
          "duration": 0.1046511627907023,
          "durationTicks": 9,
          "midi": 57,
          "name": "A3",
          "ticks": 16308,
          "time": 189.62790697674419,
          "velocity": 0.36220472440944884
        },
        {
          "duration": 0.034883720930224626,
          "durationTicks": 3,
          "midi": 50,
          "name": "D3",
          "ticks": 16309,
          "time": 189.63953488372093,
          "velocity": 0.09448818897637795
        },
        {
          "duration": 0.03488372093025305,
          "durationTicks": 3,
          "midi": 44,
          "name": "G#2",
          "ticks": 16311,
          "time": 189.6627906976744,
          "velocity": 0.2047244094488189
        },
        {
          "duration": 0.023255813953483084,
          "durationTicks": 2,
          "midi": 45,
          "name": "A2",
          "ticks": 16314,
          "time": 189.69767441860466,
          "velocity": 0.2283464566929134
        },
        {
          "duration": 0.023255813953483084,
          "durationTicks": 2,
          "midi": 44,
          "name": "G#2",
          "ticks": 16316,
          "time": 189.72093023255815,
          "velocity": 0.25984251968503935
        },
        {
          "duration": 0.1046511627907023,
          "durationTicks": 9,
          "midi": 57,
          "name": "A3",
          "ticks": 16318,
          "time": 189.74418604651163,
          "velocity": 0.33858267716535434
        },
        {
          "duration": 0.034883720930224626,
          "durationTicks": 3,
          "midi": 45,
          "name": "A2",
          "ticks": 16320,
          "time": 189.7674418604651,
          "velocity": 0.2440944881889764
        },
        {
          "duration": 0.06976744186044925,
          "durationTicks": 6,
          "midi": 45,
          "name": "A2",
          "ticks": 16324,
          "time": 189.8139534883721,
          "velocity": 0.29133858267716534
        },
        {
          "duration": 0.023255813953483084,
          "durationTicks": 2,
          "midi": 50,
          "name": "D3",
          "ticks": 16324,
          "time": 189.8139534883721,
          "velocity": 0.23622047244094488
        },
        {
          "duration": 0.20930232558137618,
          "durationTicks": 18,
          "midi": 74,
          "name": "D5",
          "ticks": 16325,
          "time": 189.82558139534885,
          "velocity": 0.29133858267716534
        },
        {
          "duration": 0.13953488372092693,
          "durationTicks": 12,
          "midi": 81,
          "name": "A5",
          "ticks": 16326,
          "time": 189.8372093023256,
          "velocity": 0.1968503937007874
        },
        {
          "duration": 0.17441860465115155,
          "durationTicks": 15,
          "midi": 88,
          "name": "E6",
          "ticks": 16326,
          "time": 189.8372093023256,
          "velocity": 0.18110236220472442
        },
        {
          "duration": 0.023255813953483084,
          "durationTicks": 2,
          "midi": 58,
          "name": "A#3",
          "ticks": 16327,
          "time": 189.84883720930233,
          "velocity": 0.25196850393700787
        },
        {
          "duration": 0.1046511627907023,
          "durationTicks": 9,
          "midi": 62,
          "name": "D4",
          "ticks": 16327,
          "time": 189.84883720930233,
          "velocity": 0.3858267716535433
        },
        {
          "duration": 0.12790697674418539,
          "durationTicks": 11,
          "midi": 76,
          "name": "E5",
          "ticks": 16327,
          "time": 189.84883720930233,
          "velocity": 0.2204724409448819
        },
        {
          "duration": 0.06976744186047767,
          "durationTicks": 6,
          "midi": 45,
          "name": "A2",
          "ticks": 16331,
          "time": 189.8953488372093,
          "velocity": 0.2755905511811024
        },
        {
          "duration": 0.04651162790696617,
          "durationTicks": 4,
          "midi": 44,
          "name": "G#2",
          "ticks": 16337,
          "time": 189.96511627906978,
          "velocity": 0.3858267716535433
        },
        {
          "duration": 0.11627906976744384,
          "durationTicks": 10,
          "midi": 65,
          "name": "F4",
          "ticks": 16337,
          "time": 189.96511627906978,
          "velocity": 0.4251968503937008
        },
        {
          "duration": 0.023255813953483084,
          "durationTicks": 2,
          "midi": 56,
          "name": "G#3",
          "ticks": 16338,
          "time": 189.97674418604652,
          "velocity": 0.3937007874015748
        },
        {
          "duration": 0.034883720930224626,
          "durationTicks": 3,
          "midi": 101,
          "name": "F7",
          "ticks": 16338,
          "time": 189.97674418604652,
          "velocity": 0.10236220472440945
        },
        {
          "duration": 0.1046511627907023,
          "durationTicks": 9,
          "midi": 69,
          "name": "A4",
          "ticks": 16339,
          "time": 189.98837209302326,
          "velocity": 0.23622047244094488
        },
        {
          "duration": 0.09302325581396076,
          "durationTicks": 8,
          "midi": 84,
          "name": "C6",
          "ticks": 16339,
          "time": 189.98837209302326,
          "velocity": 0.14960629921259844
        },
        {
          "duration": 0.034883720930224626,
          "durationTicks": 3,
          "midi": 58,
          "name": "A#3",
          "ticks": 16341,
          "time": 190.01162790697674,
          "velocity": 0.2204724409448819
        },
        {
          "duration": 0.023255813953483084,
          "durationTicks": 2,
          "midi": 45,
          "name": "A2",
          "ticks": 16343,
          "time": 190.03488372093022,
          "velocity": 0.23622047244094488
        },
        {
          "duration": 0.023255813953483084,
          "durationTicks": 2,
          "midi": 62,
          "name": "D4",
          "ticks": 16343,
          "time": 190.03488372093022,
          "velocity": 0.25984251968503935
        },
        {
          "duration": 0.03488372093025305,
          "durationTicks": 3,
          "midi": 57,
          "name": "A3",
          "ticks": 16344,
          "time": 190.04651162790697,
          "velocity": 0.3464566929133858
        },
        {
          "duration": 0.12790697674418539,
          "durationTicks": 11,
          "midi": 62,
          "name": "D4",
          "ticks": 16346,
          "time": 190.06976744186048,
          "velocity": 0.29133858267716534
        },
        {
          "duration": 0.04651162790696617,
          "durationTicks": 4,
          "midi": 45,
          "name": "A2",
          "ticks": 16347,
          "time": 190.08139534883722,
          "velocity": 0.33858267716535434
        },
        {
          "duration": 0.13953488372092693,
          "durationTicks": 12,
          "midi": 67,
          "name": "G4",
          "ticks": 16348,
          "time": 190.09302325581396,
          "velocity": 0.4330708661417323
        },
        {
          "duration": 0.1046511627907023,
          "durationTicks": 9,
          "midi": 71,
          "name": "B4",
          "ticks": 16348,
          "time": 190.09302325581396,
          "velocity": 0.16535433070866143
        },
        {
          "duration": 0.12790697674418539,
          "durationTicks": 11,
          "midi": 86,
          "name": "D6",
          "ticks": 16348,
          "time": 190.09302325581396,
          "velocity": 0.2677165354330709
        },
        {
          "duration": 0.05813953488370771,
          "durationTicks": 5,
          "midi": 55,
          "name": "G3",
          "ticks": 16349,
          "time": 190.1046511627907,
          "velocity": 0.41732283464566927
        },
        {
          "duration": 0.023255813953483084,
          "durationTicks": 2,
          "midi": 44,
          "name": "G#2",
          "ticks": 16351,
          "time": 190.12790697674419,
          "velocity": 0.31496062992125984
        },
        {
          "duration": 0.023255813953511506,
          "durationTicks": 2,
          "midi": 45,
          "name": "A2",
          "ticks": 16355,
          "time": 190.17441860465115,
          "velocity": 0.25984251968503935
        },
        {
          "duration": 0.05813953488373613,
          "durationTicks": 5,
          "midi": 55,
          "name": "G3",
          "ticks": 16355,
          "time": 190.17441860465115,
          "velocity": 0.4015748031496063
        },
        {
          "duration": 0.2674418604651123,
          "durationTicks": 23,
          "midi": 60,
          "name": "C4",
          "ticks": 16358,
          "time": 190.2093023255814,
          "velocity": 0.3228346456692913
        },
        {
          "duration": 0.023255813953483084,
          "durationTicks": 2,
          "midi": 44,
          "name": "G#2",
          "ticks": 16359,
          "time": 190.22093023255815,
          "velocity": 0.3228346456692913
        },
        {
          "duration": 0.27906976744185386,
          "durationTicks": 24,
          "midi": 83,
          "name": "B5",
          "ticks": 16361,
          "time": 190.24418604651163,
          "velocity": 0.14960629921259844
        },
        {
          "duration": 0.22093023255814614,
          "durationTicks": 19,
          "midi": 64,
          "name": "E4",
          "ticks": 16362,
          "time": 190.25581395348837,
          "velocity": 0.2283464566929134
        },
        {
          "duration": 0.05813953488373613,
          "durationTicks": 5,
          "midi": 71,
          "name": "B4",
          "ticks": 16362,
          "time": 190.25581395348837,
          "velocity": 0.13385826771653545
        },
        {
          "duration": 0.22093023255814614,
          "durationTicks": 19,
          "midi": 74,
          "name": "D5",
          "ticks": 16362,
          "time": 190.25581395348837,
          "velocity": 0.2047244094488189
        },
        {
          "duration": 0.06976744186047767,
          "durationTicks": 6,
          "midi": 88,
          "name": "E6",
          "ticks": 16362,
          "time": 190.25581395348837,
          "velocity": 0.11811023622047244
        },
        {
          "duration": 0.023255813953483084,
          "durationTicks": 2,
          "midi": 51,
          "name": "D#3",
          "ticks": 16363,
          "time": 190.2674418604651,
          "velocity": 0.36220472440944884
        },
        {
          "duration": 0.023255813953511506,
          "durationTicks": 2,
          "midi": 51,
          "name": "D#3",
          "ticks": 16366,
          "time": 190.30232558139534,
          "velocity": 0.3700787401574803
        },
        {
          "duration": 0.023255813953483084,
          "durationTicks": 2,
          "midi": 52,
          "name": "E3",
          "ticks": 16369,
          "time": 190.3372093023256,
          "velocity": 0.33858267716535434
        },
        {
          "duration": 0.034883720930224626,
          "durationTicks": 3,
          "midi": 52,
          "name": "E3",
          "ticks": 16372,
          "time": 190.37209302325581,
          "velocity": 0.3937007874015748
        },
        {
          "duration": 0.023255813953483084,
          "durationTicks": 2,
          "midi": 53,
          "name": "F3",
          "ticks": 16379,
          "time": 190.45348837209303,
          "velocity": 0.36220472440944884
        },
        {
          "duration": 0.04651162790696617,
          "durationTicks": 4,
          "midi": 72,
          "name": "C5",
          "ticks": 16382,
          "time": 190.48837209302326,
          "velocity": 0.2125984251968504
        },
        {
          "duration": 0.05813953488370771,
          "durationTicks": 5,
          "midi": 86,
          "name": "D6",
          "ticks": 16382,
          "time": 190.48837209302326,
          "velocity": 0.2125984251968504
        },
        {
          "duration": 0.27906976744185386,
          "durationTicks": 24,
          "midi": 74,
          "name": "D5",
          "ticks": 16383,
          "time": 190.5,
          "velocity": 0.4409448818897638
        },
        {
          "duration": 0.034883720930224626,
          "durationTicks": 3,
          "midi": 78,
          "name": "F#5",
          "ticks": 16383,
          "time": 190.5,
          "velocity": 0.12598425196850394
        },
        {
          "duration": 0.19767441860466306,
          "durationTicks": 17,
          "midi": 55,
          "name": "G3",
          "ticks": 16384,
          "time": 190.51162790697674,
          "velocity": 0.4881889763779528
        },
        {
          "duration": 0.11627906976744384,
          "durationTicks": 10,
          "midi": 62,
          "name": "D4",
          "ticks": 16384,
          "time": 190.51162790697674,
          "velocity": 0.36220472440944884
        },
        {
          "duration": 0.04651162790696617,
          "durationTicks": 4,
          "midi": 88,
          "name": "E6",
          "ticks": 16384,
          "time": 190.51162790697674,
          "velocity": 0.09448818897637795
        },
        {
          "duration": 0.12790697674418539,
          "durationTicks": 11,
          "midi": 93,
          "name": "A6",
          "ticks": 16384,
          "time": 190.51162790697674,
          "velocity": 0.14960629921259844
        },
        {
          "duration": 0.023255813953511506,
          "durationTicks": 2,
          "midi": 72,
          "name": "C5",
          "ticks": 16387,
          "time": 190.54651162790697,
          "velocity": 0.23622047244094488
        },
        {
          "duration": 0.03488372093025305,
          "durationTicks": 3,
          "midi": 79,
          "name": "G5",
          "ticks": 16387,
          "time": 190.54651162790697,
          "velocity": 0.07086614173228346
        },
        {
          "duration": 0.04651162790696617,
          "durationTicks": 4,
          "midi": 98,
          "name": "D7",
          "ticks": 16389,
          "time": 190.56976744186048,
          "velocity": 0.10236220472440945
        },
        {
          "duration": 0.034883720930224626,
          "durationTicks": 3,
          "midi": 47,
          "name": "B2",
          "ticks": 16396,
          "time": 190.65116279069767,
          "velocity": 0.09448818897637795
        },
        {
          "duration": 0.023255813953483084,
          "durationTicks": 2,
          "midi": 59,
          "name": "B3",
          "ticks": 16404,
          "time": 190.74418604651163,
          "velocity": 0.31496062992125984
        },
        {
          "duration": 0.023255813953483084,
          "durationTicks": 2,
          "midi": 42,
          "name": "F#2",
          "ticks": 16405,
          "time": 190.75581395348837,
          "velocity": 0.3937007874015748
        },
        {
          "duration": 0.25581395348837077,
          "durationTicks": 22,
          "midi": 64,
          "name": "E4",
          "ticks": 16405,
          "time": 190.75581395348837,
          "velocity": 0.2992125984251969
        },
        {
          "duration": 0.034883720930224626,
          "durationTicks": 3,
          "midi": 88,
          "name": "E6",
          "ticks": 16405,
          "time": 190.75581395348837,
          "velocity": 0.07874015748031496
        },
        {
          "duration": 0.034883720930224626,
          "durationTicks": 3,
          "midi": 56,
          "name": "G#3",
          "ticks": 16406,
          "time": 190.7674418604651,
          "velocity": 0.5039370078740157
        },
        {
          "duration": 0.24418604651162923,
          "durationTicks": 21,
          "midi": 79,
          "name": "G5",
          "ticks": 16406,
          "time": 190.7674418604651,
          "velocity": 0.18110236220472442
        },
        {
          "duration": 0.03488372093025305,
          "durationTicks": 3,
          "midi": 44,
          "name": "G#2",
          "ticks": 16407,
          "time": 190.77906976744185,
          "velocity": 0.4094488188976378
        },
        {
          "duration": 0.023255813953483084,
          "durationTicks": 2,
          "midi": 61,
          "name": "C#4",
          "ticks": 16407,
          "time": 190.77906976744185,
          "velocity": 0.2755905511811024
        },
        {
          "duration": 0.2093023255814046,
          "durationTicks": 18,
          "midi": 69,
          "name": "A4",
          "ticks": 16407,
          "time": 190.77906976744185,
          "velocity": 0.3858267716535433
        },
        {
          "duration": 0.16279069767443843,
          "durationTicks": 14,
          "midi": 93,
          "name": "A6",
          "ticks": 16408,
          "time": 190.7906976744186,
          "velocity": 0.13385826771653545
        },
        {
          "duration": 0.04651162790699459,
          "durationTicks": 4,
          "midi": 57,
          "name": "A3",
          "ticks": 16409,
          "time": 190.80232558139534,
          "velocity": 0.4330708661417323
        },
        {
          "duration": 0.023255813953483084,
          "durationTicks": 2,
          "midi": 45,
          "name": "A2",
          "ticks": 16410,
          "time": 190.8139534883721,
          "velocity": 0.3700787401574803
        },
        {
          "duration": 0.20930232558137618,
          "durationTicks": 18,
          "midi": 74,
          "name": "D5",
          "ticks": 16410,
          "time": 190.8139534883721,
          "velocity": 0.25196850393700787
        },
        {
          "duration": 0.09302325581393234,
          "durationTicks": 8,
          "midi": 88,
          "name": "E6",
          "ticks": 16411,
          "time": 190.82558139534885,
          "velocity": 0.08661417322834646
        },
        {
          "duration": 0.04651162790696617,
          "durationTicks": 4,
          "midi": 71,
          "name": "B4",
          "ticks": 16412,
          "time": 190.8372093023256,
          "velocity": 0.18110236220472442
        },
        {
          "duration": 0.06976744186044925,
          "durationTicks": 6,
          "midi": 57,
          "name": "A3",
          "ticks": 16414,
          "time": 190.86046511627907,
          "velocity": 0.4566929133858268
        },
        {
          "duration": 0.034883720930224626,
          "durationTicks": 3,
          "midi": 48,
          "name": "C3",
          "ticks": 16415,
          "time": 190.87209302325581,
          "velocity": 0.33858267716535434
        },
        {
          "duration": 0.05813953488373613,
          "durationTicks": 5,
          "midi": 72,
          "name": "C5",
          "ticks": 16416,
          "time": 190.88372093023256,
          "velocity": 0.2125984251968504
        },
        {
          "duration": 0.11627906976744384,
          "durationTicks": 10,
          "midi": 89,
          "name": "F6",
          "ticks": 16417,
          "time": 190.8953488372093,
          "velocity": 0.11811023622047244
        },
        {
          "duration": 0.023255813953511506,
          "durationTicks": 2,
          "midi": 56,
          "name": "G#3",
          "ticks": 16420,
          "time": 190.93023255813952,
          "velocity": 0.4330708661417323
        },
        {
          "duration": 0.04651162790696617,
          "durationTicks": 4,
          "midi": 83,
          "name": "B5",
          "ticks": 16421,
          "time": 190.9418604651163,
          "velocity": 0.11811023622047244
        },
        {
          "duration": 0.023255813953483084,
          "durationTicks": 2,
          "midi": 48,
          "name": "C3",
          "ticks": 16422,
          "time": 190.95348837209303,
          "velocity": 0.29133858267716534
        },
        {
          "duration": 0.06976744186044925,
          "durationTicks": 6,
          "midi": 71,
          "name": "B4",
          "ticks": 16423,
          "time": 190.96511627906978,
          "velocity": 0.2204724409448819
        },
        {
          "duration": 0.034883720930224626,
          "durationTicks": 3,
          "midi": 55,
          "name": "G3",
          "ticks": 16424,
          "time": 190.97674418604652,
          "velocity": 0.36220472440944884
        },
        {
          "duration": 0.023255813953483084,
          "durationTicks": 2,
          "midi": 47,
          "name": "B2",
          "ticks": 16426,
          "time": 191,
          "velocity": 0.2992125984251969
        },
        {
          "duration": 0.06976744186047767,
          "durationTicks": 6,
          "midi": 72,
          "name": "C5",
          "ticks": 16426,
          "time": 191,
          "velocity": 0.10236220472440945
        },
        {
          "duration": 0.023255813953483084,
          "durationTicks": 2,
          "midi": 56,
          "name": "G#3",
          "ticks": 16427,
          "time": 191.01162790697674,
          "velocity": 0.33070866141732286
        },
        {
          "duration": 0.023255813953483084,
          "durationTicks": 2,
          "midi": 42,
          "name": "F#2",
          "ticks": 16429,
          "time": 191.03488372093022,
          "velocity": 0.30708661417322836
        },
        {
          "duration": 0.09302325581396076,
          "durationTicks": 8,
          "midi": 55,
          "name": "G3",
          "ticks": 16429,
          "time": 191.03488372093022,
          "velocity": 0.36220472440944884
        },
        {
          "duration": 0.03488372093025305,
          "durationTicks": 3,
          "midi": 44,
          "name": "G#2",
          "ticks": 16431,
          "time": 191.0581395348837,
          "velocity": 0.31496062992125984
        },
        {
          "duration": 0.023255813953483084,
          "durationTicks": 2,
          "midi": 67,
          "name": "G4",
          "ticks": 16437,
          "time": 191.12790697674419,
          "velocity": 0.3543307086614173
        },
        {
          "duration": 0.04651162790696617,
          "durationTicks": 4,
          "midi": 72,
          "name": "C5",
          "ticks": 16437,
          "time": 191.12790697674419,
          "velocity": 0.31496062992125984
        },
        {
          "duration": 0.05813953488370771,
          "durationTicks": 5,
          "midi": 86,
          "name": "D6",
          "ticks": 16437,
          "time": 191.12790697674419,
          "velocity": 0.16535433070866143
        },
        {
          "duration": 0.25581395348837077,
          "durationTicks": 22,
          "midi": 55,
          "name": "G3",
          "ticks": 16438,
          "time": 191.13953488372093,
          "velocity": 0.48031496062992124
        },
        {
          "duration": 0.2325581395348877,
          "durationTicks": 20,
          "midi": 60,
          "name": "C4",
          "ticks": 16438,
          "time": 191.13953488372093,
          "velocity": 0.3464566929133858
        },
        {
          "duration": 0.40697674418603924,
          "durationTicks": 35,
          "midi": 74,
          "name": "D5",
          "ticks": 16438,
          "time": 191.13953488372093,
          "velocity": 0.2440944881889764
        },
        {
          "duration": 0.1046511627907023,
          "durationTicks": 9,
          "midi": 92,
          "name": "G#6",
          "ticks": 16438,
          "time": 191.13953488372093,
          "velocity": 0.1732283464566929
        },
        {
          "duration": 0.12790697674418539,
          "durationTicks": 11,
          "midi": 99,
          "name": "D#7",
          "ticks": 16438,
          "time": 191.13953488372093,
          "velocity": 0.2047244094488189
        },
        {
          "duration": 0.04651162790696617,
          "durationTicks": 4,
          "midi": 102,
          "name": "F#7",
          "ticks": 16438,
          "time": 191.13953488372093,
          "velocity": 0.14960629921259844
        },
        {
          "duration": 0.38372093023255616,
          "durationTicks": 33,
          "midi": 64,
          "name": "E4",
          "ticks": 16439,
          "time": 191.15116279069767,
          "velocity": 0.3543307086614173
        },
        {
          "duration": 0.11627906976744384,
          "durationTicks": 10,
          "midi": 68,
          "name": "G#4",
          "ticks": 16439,
          "time": 191.15116279069767,
          "velocity": 0.41732283464566927
        },
        {
          "duration": 0.15116279069766847,
          "durationTicks": 13,
          "midi": 83,
          "name": "B5",
          "ticks": 16439,
          "time": 191.15116279069767,
          "velocity": 0.12598425196850394
        },
        {
          "duration": 0.11627906976744384,
          "durationTicks": 10,
          "midi": 87,
          "name": "D#6",
          "ticks": 16439,
          "time": 191.15116279069767,
          "velocity": 0.1889763779527559
        },
        {
          "duration": 0.17441860465117998,
          "durationTicks": 15,
          "midi": 71,
          "name": "B4",
          "ticks": 16441,
          "time": 191.17441860465115,
          "velocity": 0.3858267716535433
        },
        {
          "duration": 0.22093023255814614,
          "durationTicks": 19,
          "midi": 89,
          "name": "F6",
          "ticks": 16441,
          "time": 191.17441860465115,
          "velocity": 0.10236220472440945
        },
        {
          "duration": 0.034883720930224626,
          "durationTicks": 3,
          "midi": 83,
          "name": "B5",
          "ticks": 16458,
          "time": 191.37209302325581,
          "velocity": 0.16535433070866143
        },
        {
          "duration": 0.023255813953483084,
          "durationTicks": 2,
          "midi": 45,
          "name": "A2",
          "ticks": 16459,
          "time": 191.38372093023256,
          "velocity": 0.28346456692913385
        },
        {
          "duration": 0.023255813953483084,
          "durationTicks": 2,
          "midi": 54,
          "name": "F#3",
          "ticks": 16460,
          "time": 191.3953488372093,
          "velocity": 0.3700787401574803
        },
        {
          "duration": 0.15116279069766847,
          "durationTicks": 13,
          "midi": 91,
          "name": "G6",
          "ticks": 16460,
          "time": 191.3953488372093,
          "velocity": 0.3228346456692913
        },
        {
          "duration": 0.09302325581396076,
          "durationTicks": 8,
          "midi": 71,
          "name": "B4",
          "ticks": 16461,
          "time": 191.40697674418604,
          "velocity": 0.2992125984251969
        },
        {
          "duration": 0.12790697674418539,
          "durationTicks": 11,
          "midi": 55,
          "name": "G3",
          "ticks": 16462,
          "time": 191.41860465116278,
          "velocity": 0.4409448818897638
        },
        {
          "duration": 0.05813953488370771,
          "durationTicks": 5,
          "midi": 88,
          "name": "E6",
          "ticks": 16466,
          "time": 191.46511627906978,
          "velocity": 0.11023622047244094
        },
        {
          "duration": 0.05813953488370771,
          "durationTicks": 5,
          "midi": 72,
          "name": "C5",
          "ticks": 16468,
          "time": 191.48837209302326,
          "velocity": 0.1968503937007874
        },
        {
          "duration": 0.023255813953483084,
          "durationTicks": 2,
          "midi": 44,
          "name": "G#2",
          "ticks": 16471,
          "time": 191.52325581395348,
          "velocity": 0.28346456692913385
        },
        {
          "duration": 0.03488372093025305,
          "durationTicks": 3,
          "midi": 66,
          "name": "F#4",
          "ticks": 16472,
          "time": 191.53488372093022,
          "velocity": 0.33858267716535434
        },
        {
          "duration": 0.09302325581396076,
          "durationTicks": 8,
          "midi": 41,
          "name": "F2",
          "ticks": 16473,
          "time": 191.54651162790697,
          "velocity": 0.3543307086614173
        },
        {
          "duration": 0.023255813953511506,
          "durationTicks": 2,
          "midi": 53,
          "name": "F3",
          "ticks": 16473,
          "time": 191.54651162790697,
          "velocity": 0.3700787401574803
        },
        {
          "duration": 0.05813953488370771,
          "durationTicks": 5,
          "midi": 55,
          "name": "G3",
          "ticks": 16476,
          "time": 191.58139534883722,
          "velocity": 0.3464566929133858
        },
        {
          "duration": 0.05813953488373613,
          "durationTicks": 5,
          "midi": 54,
          "name": "F#3",
          "ticks": 16481,
          "time": 191.63953488372093,
          "velocity": 0.4409448818897638
        },
        {
          "duration": 0.24418604651162923,
          "durationTicks": 21,
          "midi": 60,
          "name": "C4",
          "ticks": 16482,
          "time": 191.65116279069767,
          "velocity": 0.36220472440944884
        },
        {
          "duration": 0.5116279069767415,
          "durationTicks": 44,
          "midi": 74,
          "name": "D5",
          "ticks": 16482,
          "time": 191.65116279069767,
          "velocity": 0.2677165354330709
        },
        {
          "duration": 0.18604651162792152,
          "durationTicks": 16,
          "midi": 79,
          "name": "G5",
          "ticks": 16482,
          "time": 191.65116279069767,
          "velocity": 0.18110236220472442
        },
        {
          "duration": 0.15116279069766847,
          "durationTicks": 13,
          "midi": 98,
          "name": "D7",
          "ticks": 16482,
          "time": 191.65116279069767,
          "velocity": 0.1732283464566929
        },
        {
          "duration": 0.03488372093025305,
          "durationTicks": 3,
          "midi": 44,
          "name": "G#2",
          "ticks": 16483,
          "time": 191.6627906976744,
          "velocity": 0.25984251968503935
        },
        {
          "duration": 0.04651162790699459,
          "durationTicks": 4,
          "midi": 99,
          "name": "D#7",
          "ticks": 16483,
          "time": 191.6627906976744,
          "velocity": 0.07086614173228346
        },
        {
          "duration": 0.24418604651162923,
          "durationTicks": 21,
          "midi": 65,
          "name": "F4",
          "ticks": 16484,
          "time": 191.67441860465115,
          "velocity": 0.4409448818897638
        },
        {
          "duration": 0.023255813953483084,
          "durationTicks": 2,
          "midi": 43,
          "name": "G2",
          "ticks": 16486,
          "time": 191.69767441860466,
          "velocity": 0.25196850393700787
        },
        {
          "duration": 0.20930232558137618,
          "durationTicks": 18,
          "midi": 55,
          "name": "G3",
          "ticks": 16486,
          "time": 191.69767441860466,
          "velocity": 0.4645669291338583
        },
        {
          "duration": 0.04651162790699459,
          "durationTicks": 4,
          "midi": 41,
          "name": "F2",
          "ticks": 16493,
          "time": 191.77906976744185,
          "velocity": 0.2047244094488189
        },
        {
          "duration": 0.18604651162792152,
          "durationTicks": 16,
          "midi": 83,
          "name": "B5",
          "ticks": 16494,
          "time": 191.7906976744186,
          "velocity": 0.11811023622047244
        },
        {
          "duration": 0.034883720930224626,
          "durationTicks": 3,
          "midi": 88,
          "name": "E6",
          "ticks": 16496,
          "time": 191.8139534883721,
          "velocity": 0.08661417322834646
        },
        {
          "duration": 0.10465116279067388,
          "durationTicks": 9,
          "midi": 71,
          "name": "B4",
          "ticks": 16497,
          "time": 191.82558139534885,
          "velocity": 0.18110236220472442
        },
        {
          "duration": 0.0813953488371908,
          "durationTicks": 7,
          "midi": 48,
          "name": "C3",
          "ticks": 16498,
          "time": 191.8372093023256,
          "velocity": 0.30708661417322836
        },
        {
          "duration": 0.023255813953511506,
          "durationTicks": 2,
          "midi": 53,
          "name": "F3",
          "ticks": 16505,
          "time": 191.91860465116278,
          "velocity": 0.33858267716535434
        },
        {
          "duration": 0.06976744186047767,
          "durationTicks": 6,
          "midi": 79,
          "name": "G5",
          "ticks": 16505,
          "time": 191.91860465116278,
          "velocity": 0.10236220472440945
        },
        {
          "duration": 0.023255813953511506,
          "durationTicks": 2,
          "midi": 48,
          "name": "C3",
          "ticks": 16506,
          "time": 191.93023255813952,
          "velocity": 0.2992125984251969
        },
        {
          "duration": 0.12790697674418539,
          "durationTicks": 11,
          "midi": 72,
          "name": "C5",
          "ticks": 16506,
          "time": 191.93023255813952,
          "velocity": 0.16535433070866143
        },
        {
          "duration": 0.08139534883721922,
          "durationTicks": 7,
          "midi": 81,
          "name": "A5",
          "ticks": 16506,
          "time": 191.93023255813952,
          "velocity": 0.07086614173228346
        },
        {
          "duration": 0.10465116279067388,
          "durationTicks": 9,
          "midi": 55,
          "name": "G3",
          "ticks": 16507,
          "time": 191.9418604651163,
          "velocity": 0.3937007874015748
        },
        {
          "duration": 0.04651162790696617,
          "durationTicks": 4,
          "midi": 48,
          "name": "C3",
          "ticks": 16509,
          "time": 191.96511627906978,
          "velocity": 0.31496062992125984
        },
        {
          "duration": 0.023255813953483084,
          "durationTicks": 2,
          "midi": 62,
          "name": "D4",
          "ticks": 16511,
          "time": 191.98837209302326,
          "velocity": 0.3937007874015748
        },
        {
          "duration": 0.034883720930224626,
          "durationTicks": 3,
          "midi": 48,
          "name": "C3",
          "ticks": 16514,
          "time": 192.02325581395348,
          "velocity": 0.30708661417322836
        },
        {
          "duration": 0.1046511627907023,
          "durationTicks": 9,
          "midi": 65,
          "name": "F4",
          "ticks": 16515,
          "time": 192.03488372093022,
          "velocity": 0.4409448818897638
        },
        {
          "duration": 0.25581395348837077,
          "durationTicks": 22,
          "midi": 71,
          "name": "B4",
          "ticks": 16516,
          "time": 192.04651162790697,
          "velocity": 0.2440944881889764
        },
        {
          "duration": 0.04651162790699459,
          "durationTicks": 4,
          "midi": 88,
          "name": "E6",
          "ticks": 16517,
          "time": 192.0581395348837,
          "velocity": 0.11811023622047244
        },
        {
          "duration": 0.04651162790696617,
          "durationTicks": 4,
          "midi": 48,
          "name": "C3",
          "ticks": 16518,
          "time": 192.06976744186048,
          "velocity": 0.2992125984251969
        },
        {
          "duration": 0.09302325581393234,
          "durationTicks": 8,
          "midi": 55,
          "name": "G3",
          "ticks": 16519,
          "time": 192.08139534883722,
          "velocity": 0.4409448818897638
        },
        {
          "duration": 0.22093023255811772,
          "durationTicks": 19,
          "midi": 79,
          "name": "G5",
          "ticks": 16519,
          "time": 192.08139534883722,
          "velocity": 0.29133858267716534
        },
        {
          "duration": 0.023255813953483084,
          "durationTicks": 2,
          "midi": 64,
          "name": "E4",
          "ticks": 16523,
          "time": 192.12790697674419,
          "velocity": 0.25196850393700787
        },
        {
          "duration": 0.023255813953483084,
          "durationTicks": 2,
          "midi": 66,
          "name": "F#4",
          "ticks": 16524,
          "time": 192.13953488372093,
          "velocity": 0.23622047244094488
        },
        {
          "duration": 0.16279069767443843,
          "durationTicks": 14,
          "midi": 86,
          "name": "D6",
          "ticks": 16525,
          "time": 192.15116279069767,
          "velocity": 0.28346456692913385
        },
        {
          "duration": 0.34883720930233153,
          "durationTicks": 30,
          "midi": 55,
          "name": "G3",
          "ticks": 16528,
          "time": 192.1860465116279,
          "velocity": 0.5275590551181102
        },
        {
          "duration": 0.0813953488371908,
          "durationTicks": 7,
          "midi": 89,
          "name": "F6",
          "ticks": 16529,
          "time": 192.19767441860466,
          "velocity": 0.07086614173228346
        },
        {
          "duration": 0.04651162790696617,
          "durationTicks": 4,
          "midi": 62,
          "name": "D4",
          "ticks": 16534,
          "time": 192.25581395348837,
          "velocity": 0.18110236220472442
        },
        {
          "duration": 0.023255813953511506,
          "durationTicks": 2,
          "midi": 60,
          "name": "C4",
          "ticks": 16537,
          "time": 192.2906976744186,
          "velocity": 0.25984251968503935
        },
        {
          "duration": 0.2906976744186238,
          "durationTicks": 25,
          "midi": 74,
          "name": "D5",
          "ticks": 16537,
          "time": 192.2906976744186,
          "velocity": 0.23622047244094488
        },
        {
          "duration": 0.023255813953511506,
          "durationTicks": 2,
          "midi": 45,
          "name": "A2",
          "ticks": 16538,
          "time": 192.30232558139534,
          "velocity": 0.3779527559055118
        },
        {
          "duration": 0.4186046511627808,
          "durationTicks": 36,
          "midi": 62,
          "name": "D4",
          "ticks": 16540,
          "time": 192.32558139534885,
          "velocity": 0.4645669291338583
        },
        {
          "duration": 0.034883720930224626,
          "durationTicks": 3,
          "midi": 66,
          "name": "F#4",
          "ticks": 16540,
          "time": 192.32558139534885,
          "velocity": 0.14960629921259844
        },
        {
          "duration": 0.034883720930224626,
          "durationTicks": 3,
          "midi": 71,
          "name": "B4",
          "ticks": 16541,
          "time": 192.3372093023256,
          "velocity": 0.12598425196850394
        },
        {
          "duration": 0.034883720930224626,
          "durationTicks": 3,
          "midi": 59,
          "name": "B3",
          "ticks": 16542,
          "time": 192.34883720930233,
          "velocity": 0.11811023622047244
        },
        {
          "duration": 0.023255813953511506,
          "durationTicks": 2,
          "midi": 45,
          "name": "A2",
          "ticks": 16548,
          "time": 192.41860465116278,
          "velocity": 0.30708661417322836
        },
        {
          "duration": 0.023255813953483084,
          "durationTicks": 2,
          "midi": 45,
          "name": "A2",
          "ticks": 16551,
          "time": 192.45348837209303,
          "velocity": 0.3700787401574803
        },
        {
          "duration": 0.023255813953483084,
          "durationTicks": 2,
          "midi": 44,
          "name": "G#2",
          "ticks": 16555,
          "time": 192.5,
          "velocity": 0.33070866141732286
        },
        {
          "duration": 0.023255813953483084,
          "durationTicks": 2,
          "midi": 43,
          "name": "G2",
          "ticks": 16557,
          "time": 192.52325581395348,
          "velocity": 0.33070866141732286
        },
        {
          "duration": 0.023255813953511506,
          "durationTicks": 2,
          "midi": 42,
          "name": "F#2",
          "ticks": 16559,
          "time": 192.54651162790697,
          "velocity": 0.3228346456692913
        },
        {
          "duration": 0.08139534883721922,
          "durationTicks": 7,
          "midi": 81,
          "name": "A5",
          "ticks": 16559,
          "time": 192.54651162790697,
          "velocity": 0.11023622047244094
        },
        {
          "duration": 0.12790697674418539,
          "durationTicks": 11,
          "midi": 93,
          "name": "A6",
          "ticks": 16559,
          "time": 192.54651162790697,
          "velocity": 0.2677165354330709
        },
        {
          "duration": 0.05813953488373613,
          "durationTicks": 5,
          "midi": 98,
          "name": "D7",
          "ticks": 16559,
          "time": 192.54651162790697,
          "velocity": 0.14960629921259844
        },
        {
          "duration": 0.04651162790699459,
          "durationTicks": 4,
          "midi": 71,
          "name": "B4",
          "ticks": 16560,
          "time": 192.5581395348837,
          "velocity": 0.18110236220472442
        },
        {
          "duration": 0.1511627906976969,
          "durationTicks": 13,
          "midi": 78,
          "name": "F#5",
          "ticks": 16560,
          "time": 192.5581395348837,
          "velocity": 0.13385826771653545
        },
        {
          "duration": 0.15116279069766847,
          "durationTicks": 13,
          "midi": 69,
          "name": "A4",
          "ticks": 16561,
          "time": 192.56976744186048,
          "velocity": 0.13385826771653545
        },
        {
          "duration": 0.12790697674418539,
          "durationTicks": 11,
          "midi": 88,
          "name": "E6",
          "ticks": 16562,
          "time": 192.58139534883722,
          "velocity": 0.09448818897637795
        },
        {
          "duration": 0.11627906976744384,
          "durationTicks": 10,
          "midi": 67,
          "name": "G4",
          "ticks": 16563,
          "time": 192.59302325581396,
          "velocity": 0.13385826771653545
        },
        {
          "duration": 0.023255813953483084,
          "durationTicks": 2,
          "midi": 50,
          "name": "D3",
          "ticks": 16568,
          "time": 192.65116279069767,
          "velocity": 0.3700787401574803
        },
        {
          "duration": 0.05813953488373613,
          "durationTicks": 5,
          "midi": 89,
          "name": "F6",
          "ticks": 16568,
          "time": 192.65116279069767,
          "velocity": 0.07874015748031496
        },
        {
          "duration": 0.023255813953483084,
          "durationTicks": 2,
          "midi": 55,
          "name": "G3",
          "ticks": 16569,
          "time": 192.6627906976744,
          "velocity": 0.2440944881889764
        },
        {
          "duration": 0.023255813953511506,
          "durationTicks": 2,
          "midi": 50,
          "name": "D3",
          "ticks": 16571,
          "time": 192.6860465116279,
          "velocity": 0.3464566929133858
        },
        {
          "duration": 0.034883720930224626,
          "durationTicks": 3,
          "midi": 41,
          "name": "F2",
          "ticks": 16578,
          "time": 192.7674418604651,
          "velocity": 0.13385826771653545
        },
        {
          "duration": 0.05813953488373613,
          "durationTicks": 5,
          "midi": 62,
          "name": "D4",
          "ticks": 16578,
          "time": 192.7674418604651,
          "velocity": 0.14960629921259844
        },
        {
          "duration": 0.023255813953511506,
          "durationTicks": 2,
          "midi": 42,
          "name": "F#2",
          "ticks": 16581,
          "time": 192.80232558139534,
          "velocity": 0.2677165354330709
        },
        {
          "duration": 0.023255813953483084,
          "durationTicks": 2,
          "midi": 57,
          "name": "A3",
          "ticks": 16582,
          "time": 192.8139534883721,
          "velocity": 0.48031496062992124
        },
        {
          "duration": 0.04651162790696617,
          "durationTicks": 4,
          "midi": 61,
          "name": "C#4",
          "ticks": 16583,
          "time": 192.82558139534885,
          "velocity": 0.3543307086614173
        },
        {
          "duration": 0.13953488372092693,
          "durationTicks": 12,
          "midi": 88,
          "name": "E6",
          "ticks": 16584,
          "time": 192.8372093023256,
          "velocity": 0.15748031496062992
        },
        {
          "duration": 0.16279069767441,
          "durationTicks": 14,
          "midi": 57,
          "name": "A3",
          "ticks": 16585,
          "time": 192.84883720930233,
          "velocity": 0.47244094488188976
        },
        {
          "duration": 0.04651162790696617,
          "durationTicks": 4,
          "midi": 74,
          "name": "D5",
          "ticks": 16585,
          "time": 192.84883720930233,
          "velocity": 0.12598425196850394
        },
        {
          "duration": 0.05813953488370771,
          "durationTicks": 5,
          "midi": 78,
          "name": "F#5",
          "ticks": 16587,
          "time": 192.87209302325581,
          "velocity": 0.09448818897637795
        },
        {
          "duration": 0.13953488372092693,
          "durationTicks": 12,
          "midi": 93,
          "name": "A6",
          "ticks": 16588,
          "time": 192.88372093023256,
          "velocity": 0.1732283464566929
        },
        {
          "duration": 0.08139534883721922,
          "durationTicks": 7,
          "midi": 66,
          "name": "F#4",
          "ticks": 16591,
          "time": 192.91860465116278,
          "velocity": 0.14173228346456693
        },
        {
          "duration": 0.13953488372092693,
          "durationTicks": 12,
          "midi": 89,
          "name": "F6",
          "ticks": 16594,
          "time": 192.95348837209303,
          "velocity": 0.14173228346456693
        },
        {
          "duration": 0.023255813953483084,
          "durationTicks": 2,
          "midi": 45,
          "name": "A2",
          "ticks": 16597,
          "time": 192.98837209302326,
          "velocity": 0.3464566929133858
        },
        {
          "duration": 0.05813953488373613,
          "durationTicks": 5,
          "midi": 55,
          "name": "G3",
          "ticks": 16599,
          "time": 193.01162790697674,
          "velocity": 0.41732283464566927
        },
        {
          "duration": 0.023255813953483084,
          "durationTicks": 2,
          "midi": 48,
          "name": "C3",
          "ticks": 16604,
          "time": 193.06976744186048,
          "velocity": 0.3858267716535433
        },
        {
          "duration": 0.034883720930224626,
          "durationTicks": 3,
          "midi": 56,
          "name": "G#3",
          "ticks": 16605,
          "time": 193.08139534883722,
          "velocity": 0.36220472440944884
        },
        {
          "duration": 0.1046511627907023,
          "durationTicks": 9,
          "midi": 55,
          "name": "G3",
          "ticks": 16608,
          "time": 193.11627906976744,
          "velocity": 0.41732283464566927
        },
        {
          "duration": 0.023255813953483084,
          "durationTicks": 2,
          "midi": 41,
          "name": "F2",
          "ticks": 16609,
          "time": 193.12790697674419,
          "velocity": 0.2440944881889764
        },
        {
          "duration": 0.1046511627907023,
          "durationTicks": 9,
          "midi": 79,
          "name": "G5",
          "ticks": 16616,
          "time": 193.2093023255814,
          "velocity": 0.23622047244094488
        },
        {
          "duration": 0.2674418604651123,
          "durationTicks": 23,
          "midi": 62,
          "name": "D4",
          "ticks": 16617,
          "time": 193.22093023255815,
          "velocity": 0.31496062992125984
        },
        {
          "duration": 0.12790697674418539,
          "durationTicks": 11,
          "midi": 68,
          "name": "G#4",
          "ticks": 16617,
          "time": 193.22093023255815,
          "velocity": 0.4251968503937008
        },
        {
          "duration": 0.12790697674418539,
          "durationTicks": 11,
          "midi": 92,
          "name": "G#6",
          "ticks": 16617,
          "time": 193.22093023255815,
          "velocity": 0.1968503937007874
        },
        {
          "duration": 0.11627906976744384,
          "durationTicks": 10,
          "midi": 102,
          "name": "F#7",
          "ticks": 16617,
          "time": 193.22093023255815,
          "velocity": 0.15748031496062992
        },
        {
          "duration": 0.19767441860466306,
          "durationTicks": 17,
          "midi": 71,
          "name": "B4",
          "ticks": 16619,
          "time": 193.24418604651163,
          "velocity": 0.2755905511811024
        },
        {
          "duration": 0.034883720930224626,
          "durationTicks": 3,
          "midi": 81,
          "name": "A5",
          "ticks": 16619,
          "time": 193.24418604651163,
          "velocity": 0.09448818897637795
        },
        {
          "duration": 0.25581395348837077,
          "durationTicks": 22,
          "midi": 89,
          "name": "F6",
          "ticks": 16619,
          "time": 193.24418604651163,
          "velocity": 0.12598425196850394
        },
        {
          "duration": 0.11627906976744384,
          "durationTicks": 10,
          "midi": 99,
          "name": "D#7",
          "ticks": 16619,
          "time": 193.24418604651163,
          "velocity": 0.18110236220472442
        },
        {
          "duration": 0.2325581395348877,
          "durationTicks": 20,
          "midi": 55,
          "name": "G3",
          "ticks": 16620,
          "time": 193.25581395348837,
          "velocity": 0.4566929133858268
        },
        {
          "duration": 0.3139534883720785,
          "durationTicks": 27,
          "midi": 79,
          "name": "G5",
          "ticks": 16626,
          "time": 193.32558139534885,
          "velocity": 0.30708661417322836
        },
        {
          "duration": 0.023255813953483084,
          "durationTicks": 2,
          "midi": 49,
          "name": "C#3",
          "ticks": 16630,
          "time": 193.37209302325581,
          "velocity": 0.28346456692913385
        },
        {
          "duration": 0.03488372093025305,
          "durationTicks": 3,
          "midi": 50,
          "name": "D3",
          "ticks": 16635,
          "time": 193.43023255813952,
          "velocity": 0.25984251968503935
        },
        {
          "duration": 0.17441860465115155,
          "durationTicks": 15,
          "midi": 91,
          "name": "G6",
          "ticks": 16638,
          "time": 193.46511627906978,
          "velocity": 0.3464566929133858
        },
        {
          "duration": 0.023255813953483084,
          "durationTicks": 2,
          "midi": 54,
          "name": "F#3",
          "ticks": 16640,
          "time": 193.48837209302326,
          "velocity": 0.3700787401574803
        },
        {
          "duration": 0.09302325581396076,
          "durationTicks": 8,
          "midi": 71,
          "name": "B4",
          "ticks": 16640,
          "time": 193.48837209302326,
          "velocity": 0.30708661417322836
        },
        {
          "duration": 0.12790697674418539,
          "durationTicks": 11,
          "midi": 62,
          "name": "D4",
          "ticks": 16641,
          "time": 193.5,
          "velocity": 0.31496062992125984
        },
        {
          "duration": 0.08139534883721922,
          "durationTicks": 7,
          "midi": 93,
          "name": "A6",
          "ticks": 16641,
          "time": 193.5,
          "velocity": 0.10236220472440945
        },
        {
          "duration": 0.023255813953483084,
          "durationTicks": 2,
          "midi": 49,
          "name": "C#3",
          "ticks": 16642,
          "time": 193.51162790697674,
          "velocity": 0.33070866141732286
        },
        {
          "duration": 0.13953488372092693,
          "durationTicks": 12,
          "midi": 55,
          "name": "G3",
          "ticks": 16642,
          "time": 193.51162790697674,
          "velocity": 0.4330708661417323
        },
        {
          "duration": 0.09302325581396076,
          "durationTicks": 8,
          "midi": 89,
          "name": "F6",
          "ticks": 16643,
          "time": 193.52325581395348,
          "velocity": 0.08661417322834646
        },
        {
          "duration": 0.023255813953483084,
          "durationTicks": 2,
          "midi": 49,
          "name": "C#3",
          "ticks": 16649,
          "time": 193.59302325581396,
          "velocity": 0.31496062992125984
        },
        {
          "duration": 0.023255813953483084,
          "durationTicks": 2,
          "midi": 66,
          "name": "F#4",
          "ticks": 16651,
          "time": 193.61627906976744,
          "velocity": 0.29133858267716534
        },
        {
          "duration": 0.034883720930224626,
          "durationTicks": 3,
          "midi": 74,
          "name": "D5",
          "ticks": 16653,
          "time": 193.63953488372093,
          "velocity": 0.09448818897637795
        },
        {
          "duration": 0.04651162790699459,
          "durationTicks": 4,
          "midi": 50,
          "name": "D3",
          "ticks": 16656,
          "time": 193.67441860465115,
          "velocity": 0.3228346456692913
        },
        {
          "duration": 0.04651162790696617,
          "durationTicks": 4,
          "midi": 55,
          "name": "G3",
          "ticks": 16659,
          "time": 193.7093023255814,
          "velocity": 0.2204724409448819
        },
        {
          "duration": 0.2906976744185954,
          "durationTicks": 25,
          "midi": 65,
          "name": "F4",
          "ticks": 16661,
          "time": 193.7325581395349,
          "velocity": 0.44881889763779526
        },
        {
          "duration": 0.3604651162790731,
          "durationTicks": 31,
          "midi": 74,
          "name": "D5",
          "ticks": 16662,
          "time": 193.74418604651163,
          "velocity": 0.28346456692913385
        },
        {
          "duration": 0.034883720930224626,
          "durationTicks": 3,
          "midi": 97,
          "name": "C#7",
          "ticks": 16662,
          "time": 193.74418604651163,
          "velocity": 0.09448818897637795
        },
        {
          "duration": 0.034883720930224626,
          "durationTicks": 3,
          "midi": 45,
          "name": "A2",
          "ticks": 16664,
          "time": 193.7674418604651,
          "velocity": 0.33858267716535434
        },
        {
          "duration": 0.40697674418603924,
          "durationTicks": 35,
          "midi": 55,
          "name": "G3",
          "ticks": 16664,
          "time": 193.7674418604651,
          "velocity": 0.4881889763779528
        },
        {
          "duration": 0.11627906976744384,
          "durationTicks": 10,
          "midi": 98,
          "name": "D7",
          "ticks": 16664,
          "time": 193.7674418604651,
          "velocity": 0.07874015748031496
        },
        {
          "duration": 0.0813953488371908,
          "durationTicks": 7,
          "midi": 69,
          "name": "A4",
          "ticks": 16669,
          "time": 193.82558139534885,
          "velocity": 0.08661417322834646
        },
        {
          "duration": 0.11627906976744384,
          "durationTicks": 10,
          "midi": 62,
          "name": "D4",
          "ticks": 16684,
          "time": 194,
          "velocity": 0.4094488188976378
        },
        {
          "duration": 0.1046511627907023,
          "durationTicks": 9,
          "midi": 65,
          "name": "F4",
          "ticks": 16694,
          "time": 194.11627906976744,
          "velocity": 0.4015748031496063
        },
        {
          "duration": 0.023255813953483084,
          "durationTicks": 2,
          "midi": 43,
          "name": "G2",
          "ticks": 16695,
          "time": 194.12790697674419,
          "velocity": 0.36220472440944884
        },
        {
          "duration": 0.023255813953483084,
          "durationTicks": 2,
          "midi": 44,
          "name": "G#2",
          "ticks": 16697,
          "time": 194.15116279069767,
          "velocity": 0.4015748031496063
        },
        {
          "duration": 0.03488372093025305,
          "durationTicks": 3,
          "midi": 55,
          "name": "G3",
          "ticks": 16700,
          "time": 194.1860465116279,
          "velocity": 0.23622047244094488
        },
        {
          "duration": 0.023255813953483084,
          "durationTicks": 2,
          "midi": 44,
          "name": "G#2",
          "ticks": 16701,
          "time": 194.19767441860466,
          "velocity": 0.29133858267716534
        },
        {
          "duration": 0.023255813953483084,
          "durationTicks": 2,
          "midi": 45,
          "name": "A2",
          "ticks": 16703,
          "time": 194.22093023255815,
          "velocity": 0.2992125984251969
        },
        {
          "duration": 0.15116279069766847,
          "durationTicks": 13,
          "midi": 79,
          "name": "G5",
          "ticks": 16704,
          "time": 194.2325581395349,
          "velocity": 0.3228346456692913
        },
        {
          "duration": 0.12790697674418539,
          "durationTicks": 11,
          "midi": 67,
          "name": "G4",
          "ticks": 16705,
          "time": 194.24418604651163,
          "velocity": 0.4015748031496063
        },
        {
          "duration": 0.12790697674418539,
          "durationTicks": 11,
          "midi": 86,
          "name": "D6",
          "ticks": 16705,
          "time": 194.24418604651163,
          "velocity": 0.23622047244094488
        },
        {
          "duration": 0.034883720930224626,
          "durationTicks": 3,
          "midi": 57,
          "name": "A3",
          "ticks": 16707,
          "time": 194.2674418604651,
          "velocity": 0.1968503937007874
        },
        {
          "duration": 0.03488372093025305,
          "durationTicks": 3,
          "midi": 42,
          "name": "F#2",
          "ticks": 16708,
          "time": 194.27906976744185,
          "velocity": 0.36220472440944884
        },
        {
          "duration": 0.06976744186044925,
          "durationTicks": 6,
          "midi": 52,
          "name": "E3",
          "ticks": 16711,
          "time": 194.3139534883721,
          "velocity": 0.1732283464566929
        },
        {
          "duration": 0.2674418604651123,
          "durationTicks": 23,
          "midi": 70,
          "name": "A#4",
          "ticks": 16718,
          "time": 194.3953488372093,
          "velocity": 0.25196850393700787
        },
        {
          "duration": 0.034883720930224626,
          "durationTicks": 3,
          "midi": 93,
          "name": "A6",
          "ticks": 16718,
          "time": 194.3953488372093,
          "velocity": 0.07086614173228346
        },
        {
          "duration": 0.2325581395348877,
          "durationTicks": 20,
          "midi": 58,
          "name": "A#3",
          "ticks": 16719,
          "time": 194.40697674418604,
          "velocity": 0.4094488188976378
        },
        {
          "duration": 0.08139534883721922,
          "durationTicks": 7,
          "midi": 75,
          "name": "D#5",
          "ticks": 16719,
          "time": 194.40697674418604,
          "velocity": 0.15748031496062992
        },
        {
          "duration": 0.25581395348837077,
          "durationTicks": 22,
          "midi": 77,
          "name": "F5",
          "ticks": 16719,
          "time": 194.40697674418604,
          "velocity": 0.1889763779527559
        },
        {
          "duration": 0.03488372093025305,
          "durationTicks": 3,
          "midi": 98,
          "name": "D7",
          "ticks": 16719,
          "time": 194.40697674418604,
          "velocity": 0.2677165354330709
        },
        {
          "duration": 0.03488372093025305,
          "durationTicks": 3,
          "midi": 54,
          "name": "F#3",
          "ticks": 16721,
          "time": 194.43023255813952,
          "velocity": 0.28346456692913385
        },
        {
          "duration": 0.2093023255814046,
          "durationTicks": 18,
          "midi": 65,
          "name": "F4",
          "ticks": 16721,
          "time": 194.43023255813952,
          "velocity": 0.2047244094488189
        },
        {
          "duration": 0.1860465116278931,
          "durationTicks": 16,
          "midi": 97,
          "name": "C#7",
          "ticks": 16722,
          "time": 194.4418604651163,
          "velocity": 0.25196850393700787
        },
        {
          "duration": 0.034883720930224626,
          "durationTicks": 3,
          "midi": 72,
          "name": "C5",
          "ticks": 16724,
          "time": 194.46511627906978,
          "velocity": 0.1732283464566929
        },
        {
          "duration": 0.023255813953483084,
          "durationTicks": 2,
          "midi": 46,
          "name": "A#2",
          "ticks": 16726,
          "time": 194.48837209302326,
          "velocity": 0.3543307086614173
        },
        {
          "duration": 0.05813953488373613,
          "durationTicks": 5,
          "midi": 75,
          "name": "D#5",
          "ticks": 16729,
          "time": 194.52325581395348,
          "velocity": 0.07086614173228346
        },
        {
          "duration": 0.023255813953483084,
          "durationTicks": 2,
          "midi": 44,
          "name": "G#2",
          "ticks": 16730,
          "time": 194.53488372093022,
          "velocity": 0.4094488188976378
        },
        {
          "duration": 0.15116279069766847,
          "durationTicks": 13,
          "midi": 72,
          "name": "C5",
          "ticks": 16730,
          "time": 194.53488372093022,
          "velocity": 0.15748031496062992
        },
        {
          "duration": 0.06976744186047767,
          "durationTicks": 6,
          "midi": 53,
          "name": "F3",
          "ticks": 16731,
          "time": 194.54651162790697,
          "velocity": 0.15748031496062992
        },
        {
          "duration": 0.023255813953511506,
          "durationTicks": 2,
          "midi": 46,
          "name": "A#2",
          "ticks": 16732,
          "time": 194.5581395348837,
          "velocity": 0.3779527559055118
        },
        {
          "duration": 0.2906976744185954,
          "durationTicks": 25,
          "midi": 74,
          "name": "D5",
          "ticks": 16739,
          "time": 194.63953488372093,
          "velocity": 0.3779527559055118
        },
        {
          "duration": 0.034883720930224626,
          "durationTicks": 3,
          "midi": 44,
          "name": "G#2",
          "ticks": 16740,
          "time": 194.65116279069767,
          "velocity": 0.3700787401574803
        },
        {
          "duration": 0.11627906976744384,
          "durationTicks": 10,
          "midi": 81,
          "name": "A5",
          "ticks": 16740,
          "time": 194.65116279069767,
          "velocity": 0.10236220472440945
        },
        {
          "duration": 0.15116279069766847,
          "durationTicks": 13,
          "midi": 93,
          "name": "A6",
          "ticks": 16740,
          "time": 194.65116279069767,
          "velocity": 0.33070866141732286
        },
        {
          "duration": 0.023255813953483084,
          "durationTicks": 2,
          "midi": 55,
          "name": "G3",
          "ticks": 16741,
          "time": 194.6627906976744,
          "velocity": 0.4015748031496063
        },
        {
          "duration": 0.11627906976744384,
          "durationTicks": 10,
          "midi": 62,
          "name": "D4",
          "ticks": 16741,
          "time": 194.6627906976744,
          "velocity": 0.4015748031496063
        },
        {
          "duration": 0.03488372093025305,
          "durationTicks": 3,
          "midi": 66,
          "name": "F#4",
          "ticks": 16741,
          "time": 194.6627906976744,
          "velocity": 0.36220472440944884
        },
        {
          "duration": 0.13953488372095535,
          "durationTicks": 12,
          "midi": 70,
          "name": "A#4",
          "ticks": 16742,
          "time": 194.67441860465115,
          "velocity": 0.1889763779527559
        },
        {
          "duration": 0.11627906976744384,
          "durationTicks": 10,
          "midi": 77,
          "name": "F5",
          "ticks": 16742,
          "time": 194.67441860465115,
          "velocity": 0.1889763779527559
        },
        {
          "duration": 0.09302325581396076,
          "durationTicks": 8,
          "midi": 53,
          "name": "F3",
          "ticks": 16743,
          "time": 194.6860465116279,
          "velocity": 0.3779527559055118
        },
        {
          "duration": 0.03488372093025305,
          "durationTicks": 3,
          "midi": 58,
          "name": "A#3",
          "ticks": 16743,
          "time": 194.6860465116279,
          "velocity": 0.25984251968503935
        },
        {
          "duration": 0.09302325581393234,
          "durationTicks": 8,
          "midi": 72,
          "name": "C5",
          "ticks": 16744,
          "time": 194.69767441860466,
          "velocity": 0.13385826771653545
        },
        {
          "duration": 0.05813953488370771,
          "durationTicks": 5,
          "midi": 41,
          "name": "F2",
          "ticks": 16747,
          "time": 194.7325581395349,
          "velocity": 0.36220472440944884
        },
        {
          "duration": 0.05813953488370771,
          "durationTicks": 5,
          "midi": 58,
          "name": "A#3",
          "ticks": 16747,
          "time": 194.7325581395349,
          "velocity": 0.2755905511811024
        },
        {
          "duration": 0.023255813953511506,
          "durationTicks": 2,
          "midi": 41,
          "name": "F2",
          "ticks": 16753,
          "time": 194.80232558139534,
          "velocity": 0.3464566929133858
        },
        {
          "duration": 0.023255813953511506,
          "durationTicks": 2,
          "midi": 58,
          "name": "A#3",
          "ticks": 16753,
          "time": 194.80232558139534,
          "velocity": 0.2283464566929134
        },
        {
          "duration": 0.023255813953483084,
          "durationTicks": 2,
          "midi": 41,
          "name": "F2",
          "ticks": 16756,
          "time": 194.8372093023256,
          "velocity": 0.30708661417322836
        },
        {
          "duration": 0.023255813953483084,
          "durationTicks": 2,
          "midi": 40,
          "name": "E2",
          "ticks": 16758,
          "time": 194.86046511627907,
          "velocity": 0.2283464566929134
        },
        {
          "duration": 0.023255813953483084,
          "durationTicks": 2,
          "midi": 60,
          "name": "C4",
          "ticks": 16762,
          "time": 194.90697674418604,
          "velocity": 0.36220472440944884
        },
        {
          "duration": 0.13953488372092693,
          "durationTicks": 12,
          "midi": 77,
          "name": "F5",
          "ticks": 16763,
          "time": 194.91860465116278,
          "velocity": 0.2047244094488189
        },
        {
          "duration": 0.13953488372092693,
          "durationTicks": 12,
          "midi": 93,
          "name": "A6",
          "ticks": 16763,
          "time": 194.91860465116278,
          "velocity": 0.1889763779527559
        },
        {
          "duration": 0.05813953488373613,
          "durationTicks": 5,
          "midi": 57,
          "name": "A3",
          "ticks": 16764,
          "time": 194.93023255813952,
          "velocity": 0.5118110236220472
        },
        {
          "duration": 0.1046511627907023,
          "durationTicks": 9,
          "midi": 88,
          "name": "E6",
          "ticks": 16764,
          "time": 194.93023255813952,
          "velocity": 0.12598425196850394
        },
        {
          "duration": 0.023255813953483084,
          "durationTicks": 2,
          "midi": 45,
          "name": "A2",
          "ticks": 16765,
          "time": 194.9418604651163,
          "velocity": 0.3858267716535433
        },
        {
          "duration": 0.04651162790696617,
          "durationTicks": 4,
          "midi": 98,
          "name": "D7",
          "ticks": 16765,
          "time": 194.9418604651163,
          "velocity": 0.07874015748031496
        },
        {
          "duration": 0.17441860465115155,
          "durationTicks": 15,
          "midi": 103,
          "name": "G7",
          "ticks": 16765,
          "time": 194.9418604651163,
          "velocity": 0.2047244094488189
        },
        {
          "duration": 0.0813953488371908,
          "durationTicks": 7,
          "midi": 65,
          "name": "F4",
          "ticks": 16767,
          "time": 194.96511627906978,
          "velocity": 0.16535433070866143
        },
        {
          "duration": 0.06976744186044925,
          "durationTicks": 6,
          "midi": 72,
          "name": "C5",
          "ticks": 16768,
          "time": 194.97674418604652,
          "velocity": 0.09448818897637795
        },
        {
          "duration": 0.04651162790696617,
          "durationTicks": 4,
          "midi": 82,
          "name": "A#5",
          "ticks": 16768,
          "time": 194.97674418604652,
          "velocity": 0.07086614173228346
        },
        {
          "duration": 0.034883720930224626,
          "durationTicks": 3,
          "midi": 57,
          "name": "A3",
          "ticks": 16770,
          "time": 195,
          "velocity": 0.49606299212598426
        },
        {
          "duration": 0.03488372093025305,
          "durationTicks": 3,
          "midi": 42,
          "name": "F#2",
          "ticks": 16773,
          "time": 195.03488372093022,
          "velocity": 0.29133858267716534
        },
        {
          "duration": 0.04651162790699459,
          "durationTicks": 4,
          "midi": 57,
          "name": "A3",
          "ticks": 16774,
          "time": 195.04651162790697,
          "velocity": 0.4645669291338583
        },
        {
          "duration": 0.06976744186047767,
          "durationTicks": 6,
          "midi": 97,
          "name": "C#7",
          "ticks": 16774,
          "time": 195.04651162790697,
          "velocity": 0.07086614173228346
        },
        {
          "duration": 0.09302325581393234,
          "durationTicks": 8,
          "midi": 53,
          "name": "F3",
          "ticks": 16776,
          "time": 195.06976744186048,
          "velocity": 0.3700787401574803
        },
        {
          "duration": 0.034883720930224626,
          "durationTicks": 3,
          "midi": 46,
          "name": "A#2",
          "ticks": 16777,
          "time": 195.08139534883722,
          "velocity": 0.25984251968503935
        },
        {
          "duration": 0.0813953488371908,
          "durationTicks": 7,
          "midi": 89,
          "name": "F6",
          "ticks": 16777,
          "time": 195.08139534883722,
          "velocity": 0.10236220472440945
        },
        {
          "duration": 0.034883720930224626,
          "durationTicks": 3,
          "midi": 93,
          "name": "A6",
          "ticks": 16777,
          "time": 195.08139534883722,
          "velocity": 0.12598425196850394
        },
        {
          "duration": 0.04651162790696617,
          "durationTicks": 4,
          "midi": 88,
          "name": "E6",
          "ticks": 16778,
          "time": 195.09302325581396,
          "velocity": 0.12598425196850394
        },
        {
          "duration": 0.09302325581396076,
          "durationTicks": 8,
          "midi": 72,
          "name": "C5",
          "ticks": 16779,
          "time": 195.1046511627907,
          "velocity": 0.11811023622047244
        },
        {
          "duration": 0.023255813953483084,
          "durationTicks": 2,
          "midi": 45,
          "name": "A2",
          "ticks": 16780,
          "time": 195.11627906976744,
          "velocity": 0.28346456692913385
        },
        {
          "duration": 0.05813953488370771,
          "durationTicks": 5,
          "midi": 58,
          "name": "A#3",
          "ticks": 16780,
          "time": 195.11627906976744,
          "velocity": 0.3858267716535433
        },
        {
          "duration": 0.034883720930224626,
          "durationTicks": 3,
          "midi": 58,
          "name": "A#3",
          "ticks": 16788,
          "time": 195.2093023255814,
          "velocity": 0.12598425196850394
        },
        {
          "duration": 0.023255813953483084,
          "durationTicks": 2,
          "midi": 41,
          "name": "F2",
          "ticks": 16793,
          "time": 195.2674418604651,
          "velocity": 0.2440944881889764
        },
        {
          "duration": 0.023255813953483084,
          "durationTicks": 2,
          "midi": 53,
          "name": "F3",
          "ticks": 16794,
          "time": 195.27906976744185,
          "velocity": 0.25984251968503935
        },
        {
          "duration": 0.03488372093025305,
          "durationTicks": 3,
          "midi": 61,
          "name": "C#4",
          "ticks": 16794,
          "time": 195.27906976744185,
          "velocity": 0.2283464566929134
        },
        {
          "duration": 0.04651162790699459,
          "durationTicks": 4,
          "midi": 57,
          "name": "A3",
          "ticks": 16795,
          "time": 195.2906976744186,
          "velocity": 0.4015748031496063
        },
        {
          "duration": 0.13953488372092693,
          "durationTicks": 12,
          "midi": 87,
          "name": "D#6",
          "ticks": 16795,
          "time": 195.2906976744186,
          "velocity": 0.31496062992125984
        },
        {
          "duration": 0.12790697674418539,
          "durationTicks": 11,
          "midi": 68,
          "name": "G#4",
          "ticks": 16796,
          "time": 195.30232558139534,
          "velocity": 0.3937007874015748
        },
        {
          "duration": 0.12790697674418539,
          "durationTicks": 11,
          "midi": 92,
          "name": "G#6",
          "ticks": 16796,
          "time": 195.30232558139534,
          "velocity": 0.23622047244094488
        },
        {
          "duration": 0.023255813953483084,
          "durationTicks": 2,
          "midi": 48,
          "name": "C3",
          "ticks": 16797,
          "time": 195.3139534883721,
          "velocity": 0.2677165354330709
        },
        {
          "duration": 0.023255813953483084,
          "durationTicks": 2,
          "midi": 72,
          "name": "C5",
          "ticks": 16797,
          "time": 195.3139534883721,
          "velocity": 0.3700787401574803
        },
        {
          "duration": 0.034883720930224626,
          "durationTicks": 3,
          "midi": 74,
          "name": "D5",
          "ticks": 16797,
          "time": 195.3139534883721,
          "velocity": 0.09448818897637795
        },
        {
          "duration": 0.12790697674418539,
          "durationTicks": 11,
          "midi": 88,
          "name": "E6",
          "ticks": 16797,
          "time": 195.3139534883721,
          "velocity": 0.14960629921259844
        },
        {
          "duration": 0.034883720930224626,
          "durationTicks": 3,
          "midi": 96,
          "name": "C7",
          "ticks": 16797,
          "time": 195.3139534883721,
          "velocity": 0.13385826771653545
        },
        {
          "duration": 0.12790697674418539,
          "durationTicks": 11,
          "midi": 60,
          "name": "C4",
          "ticks": 16798,
          "time": 195.32558139534885,
          "velocity": 0.3779527559055118
        },
        {
          "duration": 0.19767441860463464,
          "durationTicks": 17,
          "midi": 55,
          "name": "G3",
          "ticks": 16799,
          "time": 195.3372093023256,
          "velocity": 0.5118110236220472
        },
        {
          "duration": 0.023255813953483084,
          "durationTicks": 2,
          "midi": 71,
          "name": "B4",
          "ticks": 16799,
          "time": 195.3372093023256,
          "velocity": 0.3228346456692913
        },
        {
          "duration": 0.09302325581396076,
          "durationTicks": 8,
          "midi": 74,
          "name": "D5",
          "ticks": 16801,
          "time": 195.36046511627907,
          "velocity": 0.11023622047244094
        },
        {
          "duration": 0.023255813953483084,
          "durationTicks": 2,
          "midi": 43,
          "name": "G2",
          "ticks": 16803,
          "time": 195.38372093023256,
          "velocity": 0.30708661417322836
        },
        {
          "duration": 0.05813953488373613,
          "durationTicks": 5,
          "midi": 43,
          "name": "G2",
          "ticks": 16806,
          "time": 195.41860465116278,
          "velocity": 0.3858267716535433
        },
        {
          "duration": 0.034883720930224626,
          "durationTicks": 3,
          "midi": 60,
          "name": "C4",
          "ticks": 16811,
          "time": 195.47674418604652,
          "velocity": 0.1732283464566929
        },
        {
          "duration": 0.09302325581396076,
          "durationTicks": 8,
          "midi": 42,
          "name": "F#2",
          "ticks": 16812,
          "time": 195.48837209302326,
          "velocity": 0.3543307086614173
        },
        {
          "duration": 0.1511627906976969,
          "durationTicks": 13,
          "midi": 86,
          "name": "D6",
          "ticks": 16817,
          "time": 195.54651162790697,
          "velocity": 0.36220472440944884
        },
        {
          "duration": 0.03488372093025305,
          "durationTicks": 3,
          "midi": 64,
          "name": "E4",
          "ticks": 16818,
          "time": 195.5581395348837,
          "velocity": 0.1732283464566929
        },
        {
          "duration": 0.13953488372095535,
          "durationTicks": 12,
          "midi": 67,
          "name": "G4",
          "ticks": 16818,
          "time": 195.5581395348837,
          "velocity": 0.4251968503937008
        },
        {
          "duration": 0.13953488372095535,
          "durationTicks": 12,
          "midi": 91,
          "name": "G6",
          "ticks": 16818,
          "time": 195.5581395348837,
          "velocity": 0.28346456692913385
        },
        {
          "duration": 0.034883720930224626,
          "durationTicks": 3,
          "midi": 72,
          "name": "C5",
          "ticks": 16819,
          "time": 195.56976744186048,
          "velocity": 0.2992125984251969
        },
        {
          "duration": 0.13953488372092693,
          "durationTicks": 12,
          "midi": 88,
          "name": "E6",
          "ticks": 16819,
          "time": 195.56976744186048,
          "velocity": 0.2125984251968504
        },
        {
          "duration": 0.034883720930224626,
          "durationTicks": 3,
          "midi": 45,
          "name": "A2",
          "ticks": 16820,
          "time": 195.58139534883722,
          "velocity": 0.28346456692913385
        },
        {
          "duration": 0.11627906976744384,
          "durationTicks": 10,
          "midi": 60,
          "name": "C4",
          "ticks": 16820,
          "time": 195.58139534883722,
          "velocity": 0.28346456692913385
        },
        {
          "duration": 0.12790697674418539,
          "durationTicks": 11,
          "midi": 83,
          "name": "B5",
          "ticks": 16820,
          "time": 195.58139534883722,
          "velocity": 0.18110236220472442
        },
        {
          "duration": 0.20930232558137618,
          "durationTicks": 18,
          "midi": 55,
          "name": "G3",
          "ticks": 16821,
          "time": 195.59302325581396,
          "velocity": 0.5354330708661418
        },
        {
          "duration": 0.023255813953483084,
          "durationTicks": 2,
          "midi": 42,
          "name": "F#2",
          "ticks": 16826,
          "time": 195.65116279069767,
          "velocity": 0.25196850393700787
        },
        {
          "duration": 0.034883720930224626,
          "durationTicks": 3,
          "midi": 66,
          "name": "F#4",
          "ticks": 16830,
          "time": 195.69767441860466,
          "velocity": 0.1732283464566929
        },
        {
          "duration": 0.08139534883721922,
          "durationTicks": 7,
          "midi": 42,
          "name": "F#2",
          "ticks": 16834,
          "time": 195.74418604651163,
          "velocity": 0.3228346456692913
        },
        {
          "duration": 0.13953488372092693,
          "durationTicks": 12,
          "midi": 55,
          "name": "G3",
          "ticks": 16841,
          "time": 195.82558139534885,
          "velocity": 0.47244094488188976
        },
        {
          "duration": 0.15116279069766847,
          "durationTicks": 13,
          "midi": 60,
          "name": "C4",
          "ticks": 16841,
          "time": 195.82558139534885,
          "velocity": 0.3228346456692913
        },
        {
          "duration": 0.22093023255811772,
          "durationTicks": 19,
          "midi": 65,
          "name": "F4",
          "ticks": 16841,
          "time": 195.82558139534885,
          "velocity": 0.4251968503937008
        },
        {
          "duration": 0.06976744186044925,
          "durationTicks": 6,
          "midi": 96,
          "name": "C7",
          "ticks": 16841,
          "time": 195.82558139534885,
          "velocity": 0.10236220472440945
        },
        {
          "duration": 0.11627906976744384,
          "durationTicks": 10,
          "midi": 88,
          "name": "E6",
          "ticks": 16842,
          "time": 195.8372093023256,
          "velocity": 0.11811023622047244
        },
        {
          "duration": 0.08139534883721922,
          "durationTicks": 7,
          "midi": 79,
          "name": "G5",
          "ticks": 16844,
          "time": 195.86046511627907,
          "velocity": 0.11811023622047244
        },
        {
          "duration": 0.023255813953483084,
          "durationTicks": 2,
          "midi": 44,
          "name": "G#2",
          "ticks": 16847,
          "time": 195.8953488372093,
          "velocity": 0.33858267716535434
        },
        {
          "duration": 0.0813953488371908,
          "durationTicks": 7,
          "midi": 96,
          "name": "C7",
          "ticks": 16851,
          "time": 195.9418604651163,
          "velocity": 0.14960629921259844
        },
        {
          "duration": 0.023255813953483084,
          "durationTicks": 2,
          "midi": 54,
          "name": "F#3",
          "ticks": 16853,
          "time": 195.96511627906978,
          "velocity": 0.36220472440944884
        },
        {
          "duration": 0.2325581395348877,
          "durationTicks": 20,
          "midi": 55,
          "name": "G3",
          "ticks": 16855,
          "time": 195.98837209302326,
          "velocity": 0.5118110236220472
        },
        {
          "duration": 0.04651162790696617,
          "durationTicks": 4,
          "midi": 60,
          "name": "C4",
          "ticks": 16855,
          "time": 195.98837209302326,
          "velocity": 0.33070866141732286
        },
        {
          "duration": 0.24418604651162923,
          "durationTicks": 21,
          "midi": 74,
          "name": "D5",
          "ticks": 16856,
          "time": 196,
          "velocity": 0.2204724409448819
        },
        {
          "duration": 0.023255813953483084,
          "durationTicks": 2,
          "midi": 48,
          "name": "C3",
          "ticks": 16859,
          "time": 196.03488372093022,
          "velocity": 0.31496062992125984
        },
        {
          "duration": 0.03488372093025305,
          "durationTicks": 3,
          "midi": 64,
          "name": "E4",
          "ticks": 16860,
          "time": 196.04651162790697,
          "velocity": 0.3228346456692913
        },
        {
          "duration": 0.09302325581396076,
          "durationTicks": 8,
          "midi": 79,
          "name": "G5",
          "ticks": 16861,
          "time": 196.0581395348837,
          "velocity": 0.10236220472440945
        },
        {
          "duration": 0.034883720930224626,
          "durationTicks": 3,
          "midi": 48,
          "name": "C3",
          "ticks": 16862,
          "time": 196.06976744186048,
          "velocity": 0.33070866141732286
        },
        {
          "duration": 0.034883720930224626,
          "durationTicks": 3,
          "midi": 61,
          "name": "C#4",
          "ticks": 16863,
          "time": 196.08139534883722,
          "velocity": 0.2125984251968504
        },
        {
          "duration": 0.13953488372092693,
          "durationTicks": 12,
          "midi": 76,
          "name": "E5",
          "ticks": 16865,
          "time": 196.1046511627907,
          "velocity": 0.14173228346456693
        },
        {
          "duration": 0.04651162790696617,
          "durationTicks": 4,
          "midi": 48,
          "name": "C3",
          "ticks": 16866,
          "time": 196.11627906976744,
          "velocity": 0.3464566929133858
        },
        {
          "duration": 0.034883720930224626,
          "durationTicks": 3,
          "midi": 79,
          "name": "G5",
          "ticks": 16875,
          "time": 196.22093023255815,
          "velocity": 0.14960629921259844
        },
        {
          "duration": 0.023255813953483084,
          "durationTicks": 2,
          "midi": 61,
          "name": "C#4",
          "ticks": 16877,
          "time": 196.24418604651163,
          "velocity": 0.4330708661417323
        },
        {
          "duration": 0.023255813953483084,
          "durationTicks": 2,
          "midi": 49,
          "name": "C#3",
          "ticks": 16878,
          "time": 196.25581395348837,
          "velocity": 0.3543307086614173
        },
        {
          "duration": 0.023255813953483084,
          "durationTicks": 2,
          "midi": 56,
          "name": "G#3",
          "ticks": 16879,
          "time": 196.2674418604651,
          "velocity": 0.4251968503937008
        },
        {
          "duration": 0.05813953488373613,
          "durationTicks": 5,
          "midi": 74,
          "name": "D5",
          "ticks": 16879,
          "time": 196.2674418604651,
          "velocity": 0.15748031496062992
        },
        {
          "duration": 0.03488372093025305,
          "durationTicks": 3,
          "midi": 50,
          "name": "D3",
          "ticks": 16880,
          "time": 196.27906976744185,
          "velocity": 0.3937007874015748
        },
        {
          "duration": 0.04651162790699459,
          "durationTicks": 4,
          "midi": 69,
          "name": "A4",
          "ticks": 16880,
          "time": 196.27906976744185,
          "velocity": 0.14173228346456693
        },
        {
          "duration": 0.023255813953511506,
          "durationTicks": 2,
          "midi": 57,
          "name": "A3",
          "ticks": 16881,
          "time": 196.2906976744186,
          "velocity": 0.33070866141732286
        },
        {
          "duration": 0.023255813953511506,
          "durationTicks": 2,
          "midi": 64,
          "name": "E4",
          "ticks": 16881,
          "time": 196.2906976744186,
          "velocity": 0.4409448818897638
        },
        {
          "duration": 0.023255813953483084,
          "durationTicks": 2,
          "midi": 58,
          "name": "A#3",
          "ticks": 16883,
          "time": 196.3139534883721,
          "velocity": 0.2755905511811024
        },
        {
          "duration": 0.17441860465115155,
          "durationTicks": 15,
          "midi": 65,
          "name": "F4",
          "ticks": 16883,
          "time": 196.3139534883721,
          "velocity": 0.41732283464566927
        },
        {
          "duration": 0.023255813953483084,
          "durationTicks": 2,
          "midi": 52,
          "name": "E3",
          "ticks": 16884,
          "time": 196.32558139534885,
          "velocity": 0.3858267716535433
        },
        {
          "duration": 0.034883720930224626,
          "durationTicks": 3,
          "midi": 72,
          "name": "C5",
          "ticks": 16885,
          "time": 196.3372093023256,
          "velocity": 0.2440944881889764
        },
        {
          "duration": 0.023255813953483084,
          "durationTicks": 2,
          "midi": 55,
          "name": "G3",
          "ticks": 16889,
          "time": 196.38372093023256,
          "velocity": 0.28346456692913385
        },
        {
          "duration": 0.034883720930224626,
          "durationTicks": 3,
          "midi": 74,
          "name": "D5",
          "ticks": 16889,
          "time": 196.38372093023256,
          "velocity": 0.11023622047244094
        },
        {
          "duration": 0.03488372093025305,
          "durationTicks": 3,
          "midi": 55,
          "name": "G3",
          "ticks": 16892,
          "time": 196.41860465116278,
          "velocity": 0.16535433070866143
        },
        {
          "duration": 0.034883720930224626,
          "durationTicks": 3,
          "midi": 57,
          "name": "A3",
          "ticks": 16898,
          "time": 196.48837209302326,
          "velocity": 0.4251968503937008
        },
        {
          "duration": 0.023255813953483084,
          "durationTicks": 2,
          "midi": 64,
          "name": "E4",
          "ticks": 16898,
          "time": 196.48837209302326,
          "velocity": 0.25196850393700787
        },
        {
          "duration": 0.034883720930224626,
          "durationTicks": 3,
          "midi": 44,
          "name": "G#2",
          "ticks": 16899,
          "time": 196.5,
          "velocity": 0.4409448818897638
        },
        {
          "duration": 0.04651162790696617,
          "durationTicks": 4,
          "midi": 70,
          "name": "A#4",
          "ticks": 16899,
          "time": 196.5,
          "velocity": 0.07874015748031496
        },
        {
          "duration": 0.023255813953483084,
          "durationTicks": 2,
          "midi": 50,
          "name": "D3",
          "ticks": 16900,
          "time": 196.51162790697674,
          "velocity": 0.41732283464566927
        },
        {
          "duration": 0.2325581395348877,
          "durationTicks": 20,
          "midi": 65,
          "name": "F4",
          "ticks": 16900,
          "time": 196.51162790697674,
          "velocity": 0.4330708661417323
        },
        {
          "duration": 0.2093023255814046,
          "durationTicks": 18,
          "midi": 57,
          "name": "A3",
          "ticks": 16902,
          "time": 196.53488372093022,
          "velocity": 0.31496062992125984
        },
        {
          "duration": 0.06976744186047767,
          "durationTicks": 6,
          "midi": 50,
          "name": "D3",
          "ticks": 16903,
          "time": 196.54651162790697,
          "velocity": 0.4251968503937008
        },
        {
          "duration": 0.04651162790699459,
          "durationTicks": 4,
          "midi": 45,
          "name": "A2",
          "ticks": 16912,
          "time": 196.65116279069767,
          "velocity": 0.36220472440944884
        },
        {
          "duration": 0.023255813953483084,
          "durationTicks": 2,
          "midi": 50,
          "name": "D3",
          "ticks": 16912,
          "time": 196.65116279069767,
          "velocity": 0.3464566929133858
        },
        {
          "duration": 0.034883720930224626,
          "durationTicks": 3,
          "midi": 45,
          "name": "A2",
          "ticks": 16917,
          "time": 196.7093023255814,
          "velocity": 0.3543307086614173
        },
        {
          "duration": 0.034883720930224626,
          "durationTicks": 3,
          "midi": 64,
          "name": "E4",
          "ticks": 16920,
          "time": 196.74418604651163,
          "velocity": 0.3779527559055118
        },
        {
          "duration": 0.034883720930224626,
          "durationTicks": 3,
          "midi": 71,
          "name": "B4",
          "ticks": 16921,
          "time": 196.75581395348837,
          "velocity": 0.18110236220472442
        },
        {
          "duration": 0.12790697674418539,
          "durationTicks": 11,
          "midi": 57,
          "name": "A3",
          "ticks": 16923,
          "time": 196.77906976744185,
          "velocity": 0.36220472440944884
        },
        {
          "duration": 0.1046511627907023,
          "durationTicks": 9,
          "midi": 65,
          "name": "F4",
          "ticks": 16923,
          "time": 196.77906976744185,
          "velocity": 0.41732283464566927
        },
        {
          "duration": 0.023255813953511506,
          "durationTicks": 2,
          "midi": 50,
          "name": "D3",
          "ticks": 16924,
          "time": 196.7906976744186,
          "velocity": 0.3937007874015748
        },
        {
          "duration": 0.023255813953483084,
          "durationTicks": 2,
          "midi": 44,
          "name": "G#2",
          "ticks": 16932,
          "time": 196.88372093023256,
          "velocity": 0.3700787401574803
        },
        {
          "duration": 0.13953488372092693,
          "durationTicks": 12,
          "midi": 65,
          "name": "F4",
          "ticks": 16933,
          "time": 196.8953488372093,
          "velocity": 0.4645669291338583
        },
        {
          "duration": 0.12790697674418539,
          "durationTicks": 11,
          "midi": 84,
          "name": "C6",
          "ticks": 16934,
          "time": 196.90697674418604,
          "velocity": 0.14960629921259844
        },
        {
          "duration": 0.05813953488373613,
          "durationTicks": 5,
          "midi": 42,
          "name": "F#2",
          "ticks": 16935,
          "time": 196.91860465116278,
          "velocity": 0.2755905511811024
        },
        {
          "duration": 0.08139534883721922,
          "durationTicks": 7,
          "midi": 103,
          "name": "G7",
          "ticks": 16935,
          "time": 196.91860465116278,
          "velocity": 0.11023622047244094
        },
        {
          "duration": 0.12790697674418539,
          "durationTicks": 11,
          "midi": 57,
          "name": "A3",
          "ticks": 16944,
          "time": 197.02325581395348,
          "velocity": 0.41732283464566927
        },
        {
          "duration": 0.05813953488373613,
          "durationTicks": 5,
          "midi": 50,
          "name": "D3",
          "ticks": 16945,
          "time": 197.03488372093022,
          "velocity": 0.3858267716535433
        },
        {
          "duration": 0.04651162790699459,
          "durationTicks": 4,
          "midi": 64,
          "name": "E4",
          "ticks": 16945,
          "time": 197.03488372093022,
          "velocity": 0.31496062992125984
        },
        {
          "duration": 0.03488372093025305,
          "durationTicks": 3,
          "midi": 44,
          "name": "G#2",
          "ticks": 16946,
          "time": 197.04651162790697,
          "velocity": 0.4330708661417323
        },
        {
          "duration": 0.023255813953483084,
          "durationTicks": 2,
          "midi": 50,
          "name": "D3",
          "ticks": 16953,
          "time": 197.12790697674419,
          "velocity": 0.33070866141732286
        },
        {
          "duration": 0.04651162790699459,
          "durationTicks": 4,
          "midi": 55,
          "name": "G3",
          "ticks": 16955,
          "time": 197.15116279069767,
          "velocity": 0.3858267716535433
        },
        {
          "duration": 0.09302325581396076,
          "durationTicks": 8,
          "midi": 74,
          "name": "D5",
          "ticks": 16955,
          "time": 197.15116279069767,
          "velocity": 0.1889763779527559
        },
        {
          "duration": 0.023255813953483084,
          "durationTicks": 2,
          "midi": 50,
          "name": "D3",
          "ticks": 16956,
          "time": 197.1627906976744,
          "velocity": 0.3700787401574803
        },
        {
          "duration": 0.11627906976744384,
          "durationTicks": 10,
          "midi": 65,
          "name": "F4",
          "ticks": 16956,
          "time": 197.1627906976744,
          "velocity": 0.4566929133858268
        },
        {
          "duration": 0.09302325581393234,
          "durationTicks": 8,
          "midi": 45,
          "name": "A2",
          "ticks": 16960,
          "time": 197.2093023255814,
          "velocity": 0.3858267716535433
        },
        {
          "duration": 0.03488372093025305,
          "durationTicks": 3,
          "midi": 64,
          "name": "E4",
          "ticks": 16966,
          "time": 197.27906976744185,
          "velocity": 0.16535433070866143
        },
        {
          "duration": 0.04651162790699459,
          "durationTicks": 4,
          "midi": 55,
          "name": "G3",
          "ticks": 16967,
          "time": 197.2906976744186,
          "velocity": 0.14173228346456693
        },
        {
          "duration": 0.023255813953511506,
          "durationTicks": 2,
          "midi": 44,
          "name": "G#2",
          "ticks": 16968,
          "time": 197.30232558139534,
          "velocity": 0.3700787401574803
        },
        {
          "duration": 0.023255813953483084,
          "durationTicks": 2,
          "midi": 42,
          "name": "F#2",
          "ticks": 16971,
          "time": 197.3372093023256,
          "velocity": 0.2440944881889764
        },
        {
          "duration": 0.04651162790696617,
          "durationTicks": 4,
          "midi": 55,
          "name": "G3",
          "ticks": 16974,
          "time": 197.37209302325581,
          "velocity": 0.4645669291338583
        },
        {
          "duration": 0.034883720930224626,
          "durationTicks": 3,
          "midi": 62,
          "name": "D4",
          "ticks": 16975,
          "time": 197.38372093023256,
          "velocity": 0.2755905511811024
        },
        {
          "duration": 0.023255813953483084,
          "durationTicks": 2,
          "midi": 44,
          "name": "G#2",
          "ticks": 16976,
          "time": 197.3953488372093,
          "velocity": 0.33858267716535434
        },
        {
          "duration": 0.2325581395348877,
          "durationTicks": 20,
          "midi": 50,
          "name": "D3",
          "ticks": 16979,
          "time": 197.43023255813952,
          "velocity": 0.3937007874015748
        },
        {
          "duration": 0.2325581395348877,
          "durationTicks": 20,
          "midi": 57,
          "name": "A3",
          "ticks": 16979,
          "time": 197.43023255813952,
          "velocity": 0.4881889763779528
        },
        {
          "duration": 0.25581395348837077,
          "durationTicks": 22,
          "midi": 65,
          "name": "F4",
          "ticks": 16979,
          "time": 197.43023255813952,
          "velocity": 0.4409448818897638
        },
        {
          "duration": 0.023255813953483084,
          "durationTicks": 2,
          "midi": 44,
          "name": "G#2",
          "ticks": 16998,
          "time": 197.65116279069767,
          "velocity": 0.30708661417322836
        },
        {
          "duration": 0.04651162790699459,
          "durationTicks": 4,
          "midi": 61,
          "name": "C#4",
          "ticks": 16998,
          "time": 197.65116279069767,
          "velocity": 0.3464566929133858
        },
        {
          "duration": 0.023255813953483084,
          "durationTicks": 2,
          "midi": 56,
          "name": "G#3",
          "ticks": 16999,
          "time": 197.6627906976744,
          "velocity": 0.4645669291338583
        },
        {
          "duration": 0.03488372093025305,
          "durationTicks": 3,
          "midi": 69,
          "name": "A4",
          "ticks": 16999,
          "time": 197.6627906976744,
          "velocity": 0.16535433070866143
        },
        {
          "duration": 0.13953488372092693,
          "durationTicks": 12,
          "midi": 74,
          "name": "D5",
          "ticks": 16999,
          "time": 197.6627906976744,
          "velocity": 0.2440944881889764
        },
        {
          "duration": 0.1046511627907023,
          "durationTicks": 9,
          "midi": 57,
          "name": "A3",
          "ticks": 17001,
          "time": 197.6860465116279,
          "velocity": 0.44881889763779526
        },
        {
          "duration": 0.08139534883721922,
          "durationTicks": 7,
          "midi": 102,
          "name": "F#7",
          "ticks": 17001,
          "time": 197.6860465116279,
          "velocity": 0.09448818897637795
        },
        {
          "duration": 0.04651162790696617,
          "durationTicks": 4,
          "midi": 45,
          "name": "A2",
          "ticks": 17002,
          "time": 197.69767441860466,
          "velocity": 0.3543307086614173
        },
        {
          "duration": 0.04651162790696617,
          "durationTicks": 4,
          "midi": 50,
          "name": "D3",
          "ticks": 17002,
          "time": 197.69767441860466,
          "velocity": 0.33858267716535434
        },
        {
          "duration": 0.09302325581393234,
          "durationTicks": 8,
          "midi": 62,
          "name": "D4",
          "ticks": 17002,
          "time": 197.69767441860466,
          "velocity": 0.4015748031496063
        },
        {
          "duration": 0.034883720930224626,
          "durationTicks": 3,
          "midi": 45,
          "name": "A2",
          "ticks": 17007,
          "time": 197.75581395348837,
          "velocity": 0.33858267716535434
        },
        {
          "duration": 0.04651162790696617,
          "durationTicks": 4,
          "midi": 42,
          "name": "F#2",
          "ticks": 17013,
          "time": 197.82558139534885,
          "velocity": 0.25984251968503935
        },
        {
          "duration": 0.023255813953511506,
          "durationTicks": 2,
          "midi": 56,
          "name": "G#3",
          "ticks": 17022,
          "time": 197.93023255813952,
          "velocity": 0.4645669291338583
        },
        {
          "duration": 0.11627906976744384,
          "durationTicks": 10,
          "midi": 74,
          "name": "D5",
          "ticks": 17022,
          "time": 197.93023255813952,
          "velocity": 0.30708661417322836
        },
        {
          "duration": 0.023255813953483084,
          "durationTicks": 2,
          "midi": 47,
          "name": "B2",
          "ticks": 17023,
          "time": 197.9418604651163,
          "velocity": 0.3464566929133858
        },
        {
          "duration": 0.09302325581393234,
          "durationTicks": 8,
          "midi": 62,
          "name": "D4",
          "ticks": 17023,
          "time": 197.9418604651163,
          "velocity": 0.4566929133858268
        },
        {
          "duration": 0.06976744186044925,
          "durationTicks": 6,
          "midi": 96,
          "name": "C7",
          "ticks": 17023,
          "time": 197.9418604651163,
          "velocity": 0.08661417322834646
        },
        {
          "duration": 0.06976744186044925,
          "durationTicks": 6,
          "midi": 102,
          "name": "F#7",
          "ticks": 17023,
          "time": 197.9418604651163,
          "velocity": 0.14173228346456693
        },
        {
          "duration": 0.23255813953485927,
          "durationTicks": 20,
          "midi": 57,
          "name": "A3",
          "ticks": 17024,
          "time": 197.95348837209303,
          "velocity": 0.4409448818897638
        },
        {
          "duration": 0.06976744186044925,
          "durationTicks": 6,
          "midi": 45,
          "name": "A2",
          "ticks": 17025,
          "time": 197.96511627906978,
          "velocity": 0.3543307086614173
        },
        {
          "duration": 0.06976744186044925,
          "durationTicks": 6,
          "midi": 81,
          "name": "A5",
          "ticks": 17025,
          "time": 197.96511627906978,
          "velocity": 0.14173228346456693
        },
        {
          "duration": 0.023255813953483084,
          "durationTicks": 2,
          "midi": 50,
          "name": "D3",
          "ticks": 17027,
          "time": 197.98837209302326,
          "velocity": 0.3228346456692913
        },
        {
          "duration": 0.03488372093025305,
          "durationTicks": 3,
          "midi": 63,
          "name": "D#4",
          "ticks": 17031,
          "time": 198.03488372093022,
          "velocity": 0.4566929133858268
        },
        {
          "duration": 0.03488372093025305,
          "durationTicks": 3,
          "midi": 82,
          "name": "A#5",
          "ticks": 17031,
          "time": 198.03488372093022,
          "velocity": 0.1732283464566929
        },
        {
          "duration": 0.13953488372092693,
          "durationTicks": 12,
          "midi": 62,
          "name": "D4",
          "ticks": 17034,
          "time": 198.06976744186048,
          "velocity": 0.4881889763779528
        },
        {
          "duration": 0.11627906976741542,
          "durationTicks": 10,
          "midi": 81,
          "name": "A5",
          "ticks": 17034,
          "time": 198.06976744186048,
          "velocity": 0.16535433070866143
        },
        {
          "duration": 0.034883720930224626,
          "durationTicks": 3,
          "midi": 50,
          "name": "D3",
          "ticks": 17036,
          "time": 198.09302325581396,
          "velocity": 0.3543307086614173
        },
        {
          "duration": 0.04651162790696617,
          "durationTicks": 4,
          "midi": 50,
          "name": "D3",
          "ticks": 17040,
          "time": 198.13953488372093,
          "velocity": 0.3543307086614173
        },
        {
          "duration": 0.023255813953511506,
          "durationTicks": 2,
          "midi": 56,
          "name": "G#3",
          "ticks": 17044,
          "time": 198.1860465116279,
          "velocity": 0.4881889763779528
        },
        {
          "duration": 0.06976744186044925,
          "durationTicks": 6,
          "midi": 75,
          "name": "D#5",
          "ticks": 17045,
          "time": 198.19767441860466,
          "velocity": 0.15748031496062992
        },
        {
          "duration": 0.1046511627907023,
          "durationTicks": 9,
          "midi": 57,
          "name": "A3",
          "ticks": 17046,
          "time": 198.2093023255814,
          "velocity": 0.4881889763779528
        },
        {
          "duration": 0.05813953488370771,
          "durationTicks": 5,
          "midi": 63,
          "name": "D#4",
          "ticks": 17046,
          "time": 198.2093023255814,
          "velocity": 0.4330708661417323
        },
        {
          "duration": 0.09302325581396076,
          "durationTicks": 8,
          "midi": 50,
          "name": "D3",
          "ticks": 17047,
          "time": 198.22093023255815,
          "velocity": 0.3464566929133858
        },
        {
          "duration": 0.04651162790696617,
          "durationTicks": 4,
          "midi": 82,
          "name": "A#5",
          "ticks": 17048,
          "time": 198.2325581395349,
          "velocity": 0.15748031496062992
        },
        {
          "duration": 0.023255813953483084,
          "durationTicks": 2,
          "midi": 62,
          "name": "D4",
          "ticks": 17051,
          "time": 198.2674418604651,
          "velocity": 0.41732283464566927
        },
        {
          "duration": 0.023255813953511506,
          "durationTicks": 2,
          "midi": 61,
          "name": "C#4",
          "ticks": 17053,
          "time": 198.2906976744186,
          "velocity": 0.4330708661417323
        },
        {
          "duration": 0.034883720930224626,
          "durationTicks": 3,
          "midi": 44,
          "name": "G#2",
          "ticks": 17055,
          "time": 198.3139534883721,
          "velocity": 0.3858267716535433
        },
        {
          "duration": 0.023255813953483084,
          "durationTicks": 2,
          "midi": 60,
          "name": "C4",
          "ticks": 17055,
          "time": 198.3139534883721,
          "velocity": 0.4094488188976378
        },
        {
          "duration": 0.0813953488371908,
          "durationTicks": 7,
          "midi": 74,
          "name": "D5",
          "ticks": 17056,
          "time": 198.32558139534885,
          "velocity": 0.14960629921259844
        },
        {
          "duration": 0.09302325581393234,
          "durationTicks": 8,
          "midi": 50,
          "name": "D3",
          "ticks": 17057,
          "time": 198.3372093023256,
          "velocity": 0.3858267716535433
        },
        {
          "duration": 0.034883720930224626,
          "durationTicks": 3,
          "midi": 57,
          "name": "A3",
          "ticks": 17058,
          "time": 198.34883720930233,
          "velocity": 0.4566929133858268
        },
        {
          "duration": 0.023255813953511506,
          "durationTicks": 2,
          "midi": 54,
          "name": "F#3",
          "ticks": 17064,
          "time": 198.41860465116278,
          "velocity": 0.30708661417322836
        },
        {
          "duration": 0.04651162790696617,
          "durationTicks": 4,
          "midi": 56,
          "name": "G#3",
          "ticks": 17066,
          "time": 198.4418604651163,
          "velocity": 0.3228346456692913
        },
        {
          "duration": 0.04651162790696617,
          "durationTicks": 4,
          "midi": 42,
          "name": "F#2",
          "ticks": 17067,
          "time": 198.45348837209303,
          "velocity": 0.2047244094488189
        },
        {
          "duration": 0.023255813953511506,
          "durationTicks": 2,
          "midi": 55,
          "name": "G3",
          "ticks": 17075,
          "time": 198.54651162790697,
          "velocity": 0.3543307086614173
        },
        {
          "duration": 0.023255813953511506,
          "durationTicks": 2,
          "midi": 73,
          "name": "C#5",
          "ticks": 17076,
          "time": 198.5581395348837,
          "velocity": 0.2755905511811024
        },
        {
          "duration": 0.023255813953483084,
          "durationTicks": 2,
          "midi": 61,
          "name": "C#4",
          "ticks": 17077,
          "time": 198.56976744186048,
          "velocity": 0.3858267716535433
        },
        {
          "duration": 0.023255813953483084,
          "durationTicks": 2,
          "midi": 42,
          "name": "F#2",
          "ticks": 17078,
          "time": 198.58139534883722,
          "velocity": 0.3779527559055118
        },
        {
          "duration": 0.034883720930224626,
          "durationTicks": 3,
          "midi": 74,
          "name": "D5",
          "ticks": 17078,
          "time": 198.58139534883722,
          "velocity": 0.23622047244094488
        },
        {
          "duration": 0.24418604651162923,
          "durationTicks": 21,
          "midi": 55,
          "name": "G3",
          "ticks": 17079,
          "time": 198.59302325581396,
          "velocity": 0.3779527559055118
        },
        {
          "duration": 0.023255813953483084,
          "durationTicks": 2,
          "midi": 41,
          "name": "F2",
          "ticks": 17080,
          "time": 198.6046511627907,
          "velocity": 0.36220472440944884
        },
        {
          "duration": 0.023255813953483084,
          "durationTicks": 2,
          "midi": 64,
          "name": "E4",
          "ticks": 17081,
          "time": 198.61627906976744,
          "velocity": 0.3464566929133858
        },
        {
          "duration": 0.04651162790696617,
          "durationTicks": 4,
          "midi": 43,
          "name": "G2",
          "ticks": 17082,
          "time": 198.62790697674419,
          "velocity": 0.3937007874015748
        },
        {
          "duration": 0.18604651162792152,
          "durationTicks": 16,
          "midi": 84,
          "name": "C6",
          "ticks": 17082,
          "time": 198.62790697674419,
          "velocity": 0.14960629921259844
        },
        {
          "duration": 0.17441860465117998,
          "durationTicks": 15,
          "midi": 65,
          "name": "F4",
          "ticks": 17083,
          "time": 198.63953488372093,
          "velocity": 0.3464566929133858
        },
        {
          "duration": 0.034883720930224626,
          "durationTicks": 3,
          "midi": 43,
          "name": "G2",
          "ticks": 17088,
          "time": 198.69767441860466,
          "velocity": 0.33858267716535434
        },
        {
          "duration": 0.03488372093025305,
          "durationTicks": 3,
          "midi": 43,
          "name": "G2",
          "ticks": 17096,
          "time": 198.7906976744186,
          "velocity": 0.3464566929133858
        },
        {
          "duration": 0.023255813953511506,
          "durationTicks": 2,
          "midi": 61,
          "name": "C#4",
          "ticks": 17097,
          "time": 198.80232558139534,
          "velocity": 0.29133858267716534
        },
        {
          "duration": 0.04651162790696617,
          "durationTicks": 4,
          "midi": 74,
          "name": "D5",
          "ticks": 17098,
          "time": 198.8139534883721,
          "velocity": 0.18110236220472442
        },
        {
          "duration": 0.034883720930224626,
          "durationTicks": 3,
          "midi": 62,
          "name": "D4",
          "ticks": 17099,
          "time": 198.82558139534885,
          "velocity": 0.3464566929133858
        },
        {
          "duration": 0.1046511627907023,
          "durationTicks": 9,
          "midi": 65,
          "name": "F4",
          "ticks": 17100,
          "time": 198.8372093023256,
          "velocity": 0.2440944881889764
        },
        {
          "duration": 0.1046511627907023,
          "durationTicks": 9,
          "midi": 72,
          "name": "C5",
          "ticks": 17100,
          "time": 198.8372093023256,
          "velocity": 0.2204724409448819
        },
        {
          "duration": 0.12790697674418539,
          "durationTicks": 11,
          "midi": 55,
          "name": "G3",
          "ticks": 17101,
          "time": 198.84883720930233,
          "velocity": 0.4566929133858268
        },
        {
          "duration": 0.023255813953483084,
          "durationTicks": 2,
          "midi": 48,
          "name": "C3",
          "ticks": 17102,
          "time": 198.86046511627907,
          "velocity": 0.3228346456692913
        },
        {
          "duration": 0.04651162790699459,
          "durationTicks": 4,
          "midi": 43,
          "name": "G2",
          "ticks": 17106,
          "time": 198.90697674418604,
          "velocity": 0.3464566929133858
        },
        {
          "duration": 0.04651162790699459,
          "durationTicks": 4,
          "midi": 60,
          "name": "C4",
          "ticks": 17106,
          "time": 198.90697674418604,
          "velocity": 0.1889763779527559
        },
        {
          "duration": 0.15116279069766847,
          "durationTicks": 13,
          "midi": 65,
          "name": "F4",
          "ticks": 17111,
          "time": 198.96511627906978,
          "velocity": 0.3700787401574803
        },
        {
          "duration": 0.16279069767441,
          "durationTicks": 14,
          "midi": 77,
          "name": "F5",
          "ticks": 17111,
          "time": 198.96511627906978,
          "velocity": 0.3700787401574803
        },
        {
          "duration": 0.023255813953483084,
          "durationTicks": 2,
          "midi": 54,
          "name": "F#3",
          "ticks": 17112,
          "time": 198.97674418604652,
          "velocity": 0.30708661417322836
        },
        {
          "duration": 0.05813953488370771,
          "durationTicks": 5,
          "midi": 42,
          "name": "F#2",
          "ticks": 17113,
          "time": 198.98837209302326,
          "velocity": 0.25196850393700787
        },
        {
          "duration": 0.034883720930224626,
          "durationTicks": 3,
          "midi": 55,
          "name": "G3",
          "ticks": 17114,
          "time": 199,
          "velocity": 0.25984251968503935
        },
        {
          "duration": 0.023255813953483084,
          "durationTicks": 2,
          "midi": 54,
          "name": "F#3",
          "ticks": 17121,
          "time": 199.08139534883722,
          "velocity": 0.2283464566929134
        },
        {
          "duration": 0.034883720930224626,
          "durationTicks": 3,
          "midi": 42,
          "name": "F#2",
          "ticks": 17123,
          "time": 199.1046511627907,
          "velocity": 0.3779527559055118
        },
        {
          "duration": 0.1046511627907023,
          "durationTicks": 9,
          "midi": 55,
          "name": "G3",
          "ticks": 17123,
          "time": 199.1046511627907,
          "velocity": 0.33858267716535434
        },
        {
          "duration": 0.05813953488370771,
          "durationTicks": 5,
          "midi": 60,
          "name": "C4",
          "ticks": 17124,
          "time": 199.11627906976744,
          "velocity": 0.28346456692913385
        },
        {
          "duration": 0.05813953488373613,
          "durationTicks": 5,
          "midi": 43,
          "name": "G2",
          "ticks": 17126,
          "time": 199.13953488372093,
          "velocity": 0.3858267716535433
        },
        {
          "duration": 0.04651162790696617,
          "durationTicks": 4,
          "midi": 43,
          "name": "G2",
          "ticks": 17132,
          "time": 199.2093023255814,
          "velocity": 0.3543307086614173
        },
        {
          "duration": 0.023255813953483084,
          "durationTicks": 2,
          "midi": 54,
          "name": "F#3",
          "ticks": 17132,
          "time": 199.2093023255814,
          "velocity": 0.2283464566929134
        },
        {
          "duration": 0.12790697674418539,
          "durationTicks": 11,
          "midi": 67,
          "name": "G4",
          "ticks": 17132,
          "time": 199.2093023255814,
          "velocity": 0.4330708661417323
        },
        {
          "duration": 0.13953488372092693,
          "durationTicks": 12,
          "midi": 86,
          "name": "D6",
          "ticks": 17132,
          "time": 199.2093023255814,
          "velocity": 0.3228346456692913
        },
        {
          "duration": 0.023255813953483084,
          "durationTicks": 2,
          "midi": 53,
          "name": "F3",
          "ticks": 17134,
          "time": 199.2325581395349,
          "velocity": 0.33858267716535434
        },
        {
          "duration": 0.1046511627907023,
          "durationTicks": 9,
          "midi": 72,
          "name": "C5",
          "ticks": 17134,
          "time": 199.2325581395349,
          "velocity": 0.1968503937007874
        },
        {
          "duration": 0.05813953488370771,
          "durationTicks": 5,
          "midi": 74,
          "name": "D5",
          "ticks": 17134,
          "time": 199.2325581395349,
          "velocity": 0.10236220472440945
        },
        {
          "duration": 0.1046511627907023,
          "durationTicks": 9,
          "midi": 60,
          "name": "C4",
          "ticks": 17135,
          "time": 199.24418604651163,
          "velocity": 0.31496062992125984
        },
        {
          "duration": 0.023255813953483084,
          "durationTicks": 2,
          "midi": 44,
          "name": "G#2",
          "ticks": 17136,
          "time": 199.25581395348837,
          "velocity": 0.3937007874015748
        },
        {
          "duration": 0.13953488372092693,
          "durationTicks": 12,
          "midi": 55,
          "name": "G3",
          "ticks": 17136,
          "time": 199.25581395348837,
          "velocity": 0.4645669291338583
        },
        {
          "duration": 0.034883720930224626,
          "durationTicks": 3,
          "midi": 43,
          "name": "G2",
          "ticks": 17143,
          "time": 199.3372093023256,
          "velocity": 0.3700787401574803
        },
        {
          "duration": 0.023255813953483084,
          "durationTicks": 2,
          "midi": 42,
          "name": "F#2",
          "ticks": 17146,
          "time": 199.37209302325581,
          "velocity": 0.28346456692913385
        },
        {
          "duration": 0.05813953488373613,
          "durationTicks": 5,
          "midi": 55,
          "name": "G3",
          "ticks": 17149,
          "time": 199.40697674418604,
          "velocity": 0.33070866141732286
        },
        {
          "duration": 0.05813953488373613,
          "durationTicks": 5,
          "midi": 42,
          "name": "F#2",
          "ticks": 17150,
          "time": 199.41860465116278,
          "velocity": 0.2047244094488189
        },
        {
          "duration": 0.034883720930224626,
          "durationTicks": 3,
          "midi": 56,
          "name": "G#3",
          "ticks": 17154,
          "time": 199.46511627906978,
          "velocity": 0.36220472440944884
        },
        {
          "duration": 0.2325581395348877,
          "durationTicks": 20,
          "midi": 87,
          "name": "D#6",
          "ticks": 17154,
          "time": 199.46511627906978,
          "velocity": 0.2440944881889764
        },
        {
          "duration": 0.19767441860463464,
          "durationTicks": 17,
          "midi": 68,
          "name": "G#4",
          "ticks": 17155,
          "time": 199.47674418604652,
          "velocity": 0.4251968503937008
        },
        {
          "duration": 0.19767441860463464,
          "durationTicks": 17,
          "midi": 102,
          "name": "F#7",
          "ticks": 17155,
          "time": 199.47674418604652,
          "velocity": 0.15748031496062992
        },
        {
          "duration": 0.034883720930224626,
          "durationTicks": 3,
          "midi": 72,
          "name": "C5",
          "ticks": 17156,
          "time": 199.48837209302326,
          "velocity": 0.18110236220472442
        },
        {
          "duration": 0.023255813953483084,
          "durationTicks": 2,
          "midi": 45,
          "name": "A2",
          "ticks": 17157,
          "time": 199.5,
          "velocity": 0.3700787401574803
        },
        {
          "duration": 0.16279069767441,
          "durationTicks": 14,
          "midi": 55,
          "name": "G3",
          "ticks": 17157,
          "time": 199.5,
          "velocity": 0.5275590551181102
        },
        {
          "duration": 0.11627906976744384,
          "durationTicks": 10,
          "midi": 74,
          "name": "D5",
          "ticks": 17157,
          "time": 199.5,
          "velocity": 0.11811023622047244
        },
        {
          "duration": 0.06976744186047767,
          "durationTicks": 6,
          "midi": 60,
          "name": "C4",
          "ticks": 17159,
          "time": 199.52325581395348,
          "velocity": 0.2440944881889764
        },
        {
          "duration": 0.04651162790699459,
          "durationTicks": 4,
          "midi": 43,
          "name": "G2",
          "ticks": 17160,
          "time": 199.53488372093022,
          "velocity": 0.3464566929133858
        },
        {
          "duration": 0.034883720930224626,
          "durationTicks": 3,
          "midi": 43,
          "name": "G2",
          "ticks": 17168,
          "time": 199.62790697674419,
          "velocity": 0.36220472440944884
        },
        {
          "duration": 0.08139534883721922,
          "durationTicks": 7,
          "midi": 55,
          "name": "G3",
          "ticks": 17172,
          "time": 199.67441860465115,
          "velocity": 0.2440944881889764
        },
        {
          "duration": 0.05813953488373613,
          "durationTicks": 5,
          "midi": 60,
          "name": "C4",
          "ticks": 17172,
          "time": 199.67441860465115,
          "velocity": 0.12598425196850394
        },
        {
          "duration": 0.034883720930224626,
          "durationTicks": 3,
          "midi": 43,
          "name": "G2",
          "ticks": 17176,
          "time": 199.72093023255815,
          "velocity": 0.3543307086614173
        },
        {
          "duration": 0.08139534883721922,
          "durationTicks": 7,
          "midi": 68,
          "name": "G#4",
          "ticks": 17177,
          "time": 199.7325581395349,
          "velocity": 0.3543307086614173
        },
        {
          "duration": 0.12790697674418539,
          "durationTicks": 11,
          "midi": 60,
          "name": "C4",
          "ticks": 17178,
          "time": 199.74418604651163,
          "velocity": 0.4015748031496063
        },
        {
          "duration": 0.06976744186047767,
          "durationTicks": 6,
          "midi": 87,
          "name": "D#6",
          "ticks": 17178,
          "time": 199.74418604651163,
          "velocity": 0.13385826771653545
        },
        {
          "duration": 0.05813953488370771,
          "durationTicks": 5,
          "midi": 102,
          "name": "F#7",
          "ticks": 17178,
          "time": 199.74418604651163,
          "velocity": 0.12598425196850394
        },
        {
          "duration": 0.023255813953483084,
          "durationTicks": 2,
          "midi": 45,
          "name": "A2",
          "ticks": 17180,
          "time": 199.7674418604651,
          "velocity": 0.3700787401574803
        },
        {
          "duration": 0.08139534883721922,
          "durationTicks": 7,
          "midi": 55,
          "name": "G3",
          "ticks": 17180,
          "time": 199.7674418604651,
          "velocity": 0.49606299212598426
        },
        {
          "duration": 0.06976744186044925,
          "durationTicks": 6,
          "midi": 43,
          "name": "G2",
          "ticks": 17185,
          "time": 199.82558139534885,
          "velocity": 0.3543307086614173
        },
        {
          "duration": 0.05813953488370771,
          "durationTicks": 5,
          "midi": 67,
          "name": "G4",
          "ticks": 17189,
          "time": 199.87209302325581,
          "velocity": 0.3937007874015748
        },
        {
          "duration": 0.06976744186047767,
          "durationTicks": 6,
          "midi": 86,
          "name": "D6",
          "ticks": 17189,
          "time": 199.87209302325581,
          "velocity": 0.2204724409448819
        },
        {
          "duration": 0.05813953488370771,
          "durationTicks": 5,
          "midi": 101,
          "name": "F7",
          "ticks": 17189,
          "time": 199.87209302325581,
          "velocity": 0.10236220472440945
        },
        {
          "duration": 0.023255813953483084,
          "durationTicks": 2,
          "midi": 42,
          "name": "F#2",
          "ticks": 17191,
          "time": 199.8953488372093,
          "velocity": 0.33858267716535434
        },
        {
          "duration": 0.03488372093025305,
          "durationTicks": 3,
          "midi": 41,
          "name": "F2",
          "ticks": 17193,
          "time": 199.91860465116278,
          "velocity": 0.25984251968503935
        },
        {
          "duration": 0.06976744186047767,
          "durationTicks": 6,
          "midi": 84,
          "name": "C6",
          "ticks": 17194,
          "time": 199.93023255813952,
          "velocity": 0.1732283464566929
        },
        {
          "duration": 0.0813953488371908,
          "durationTicks": 7,
          "midi": 65,
          "name": "F4",
          "ticks": 17195,
          "time": 199.9418604651163,
          "velocity": 0.3228346456692913
        },
        {
          "duration": 0.034883720930224626,
          "durationTicks": 3,
          "midi": 103,
          "name": "G7",
          "ticks": 17195,
          "time": 199.9418604651163,
          "velocity": 0.13385826771653545
        },
        {
          "duration": 0.08139534883721922,
          "durationTicks": 7,
          "midi": 55,
          "name": "G3",
          "ticks": 17202,
          "time": 200.02325581395348,
          "velocity": 0.4881889763779528
        },
        {
          "duration": 0.2325581395348877,
          "durationTicks": 20,
          "midi": 74,
          "name": "D5",
          "ticks": 17202,
          "time": 200.02325581395348,
          "velocity": 0.30708661417322836
        },
        {
          "duration": 0.05813953488373613,
          "durationTicks": 5,
          "midi": 81,
          "name": "A5",
          "ticks": 17203,
          "time": 200.03488372093022,
          "velocity": 0.07086614173228346
        },
        {
          "duration": 0.023255813953511506,
          "durationTicks": 2,
          "midi": 60,
          "name": "C4",
          "ticks": 17204,
          "time": 200.04651162790697,
          "velocity": 0.33070866141732286
        },
        {
          "duration": 0.05813953488370771,
          "durationTicks": 5,
          "midi": 62,
          "name": "D4",
          "ticks": 17207,
          "time": 200.08139534883722,
          "velocity": 0.29133858267716534
        },
        {
          "duration": 0.05813953488370771,
          "durationTicks": 5,
          "midi": 43,
          "name": "G2",
          "ticks": 17208,
          "time": 200.09302325581396,
          "velocity": 0.3858267716535433
        },
        {
          "duration": 0.12790697674418539,
          "durationTicks": 11,
          "midi": 65,
          "name": "F4",
          "ticks": 17211,
          "time": 200.12790697674419,
          "velocity": 0.3937007874015748
        },
        {
          "duration": 0.11627906976744384,
          "durationTicks": 10,
          "midi": 60,
          "name": "C4",
          "ticks": 17213,
          "time": 200.15116279069767,
          "velocity": 0.28346456692913385
        },
        {
          "duration": 0.08139534883721922,
          "durationTicks": 7,
          "midi": 96,
          "name": "C7",
          "ticks": 17213,
          "time": 200.15116279069767,
          "velocity": 0.09448818897637795
        },
        {
          "duration": 0.06976744186047767,
          "durationTicks": 6,
          "midi": 103,
          "name": "G7",
          "ticks": 17213,
          "time": 200.15116279069767,
          "velocity": 0.07874015748031496
        },
        {
          "duration": 0.1046511627907023,
          "durationTicks": 9,
          "midi": 55,
          "name": "G3",
          "ticks": 17214,
          "time": 200.1627906976744,
          "velocity": 0.4881889763779528
        },
        {
          "duration": 0.023255813953511506,
          "durationTicks": 2,
          "midi": 48,
          "name": "C3",
          "ticks": 17216,
          "time": 200.1860465116279,
          "velocity": 0.28346456692913385
        },
        {
          "duration": 0.023255813953483084,
          "durationTicks": 2,
          "midi": 42,
          "name": "F#2",
          "ticks": 17217,
          "time": 200.19767441860466,
          "velocity": 0.33858267716535434
        },
        {
          "duration": 0.023255813953483084,
          "durationTicks": 2,
          "midi": 43,
          "name": "G2",
          "ticks": 17220,
          "time": 200.2325581395349,
          "velocity": 0.30708661417322836
        },
        {
          "duration": 0.023255813953483084,
          "durationTicks": 2,
          "midi": 48,
          "name": "C3",
          "ticks": 17222,
          "time": 200.25581395348837,
          "velocity": 0.3228346456692913
        },
        {
          "duration": 0.05813953488373613,
          "durationTicks": 5,
          "midi": 54,
          "name": "F#3",
          "ticks": 17223,
          "time": 200.2674418604651,
          "velocity": 0.3779527559055118
        },
        {
          "duration": 0.18604651162792152,
          "durationTicks": 16,
          "midi": 67,
          "name": "G4",
          "ticks": 17223,
          "time": 200.2674418604651,
          "velocity": 0.4566929133858268
        },
        {
          "duration": 0.023255813953483084,
          "durationTicks": 2,
          "midi": 45,
          "name": "A2",
          "ticks": 17224,
          "time": 200.27906976744185,
          "velocity": 0.3858267716535433
        },
        {
          "duration": 0.24418604651162923,
          "durationTicks": 21,
          "midi": 60,
          "name": "C4",
          "ticks": 17224,
          "time": 200.27906976744185,
          "velocity": 0.31496062992125984
        },
        {
          "duration": 0.17441860465117998,
          "durationTicks": 15,
          "midi": 86,
          "name": "D6",
          "ticks": 17224,
          "time": 200.27906976744185,
          "velocity": 0.28346456692913385
        },
        {
          "duration": 0.04651162790699459,
          "durationTicks": 4,
          "midi": 91,
          "name": "G6",
          "ticks": 17224,
          "time": 200.27906976744185,
          "velocity": 0.11023622047244094
        },
        {
          "duration": 0.22093023255814614,
          "durationTicks": 19,
          "midi": 74,
          "name": "D5",
          "ticks": 17225,
          "time": 200.2906976744186,
          "velocity": 0.1732283464566929
        },
        {
          "duration": 0.06976744186047767,
          "durationTicks": 6,
          "midi": 95,
          "name": "B6",
          "ticks": 17225,
          "time": 200.2906976744186,
          "velocity": 0.08661417322834646
        },
        {
          "duration": 0.023255813953511506,
          "durationTicks": 2,
          "midi": 43,
          "name": "G2",
          "ticks": 17226,
          "time": 200.30232558139534,
          "velocity": 0.31496062992125984
        },
        {
          "duration": 0.034883720930224626,
          "durationTicks": 3,
          "midi": 55,
          "name": "G3",
          "ticks": 17228,
          "time": 200.32558139534885,
          "velocity": 0.30708661417322836
        },
        {
          "duration": 0.05813953488370771,
          "durationTicks": 5,
          "midi": 43,
          "name": "G2",
          "ticks": 17229,
          "time": 200.3372093023256,
          "velocity": 0.3937007874015748
        },
        {
          "duration": 0.2674418604651123,
          "durationTicks": 23,
          "midi": 55,
          "name": "G3",
          "ticks": 17233,
          "time": 200.38372093023256,
          "velocity": 0.4881889763779528
        },
        {
          "duration": 0.023255813953483084,
          "durationTicks": 2,
          "midi": 66,
          "name": "F#4",
          "ticks": 17239,
          "time": 200.45348837209303,
          "velocity": 0.3937007874015748
        },
        {
          "duration": 0.023255813953483084,
          "durationTicks": 2,
          "midi": 43,
          "name": "G2",
          "ticks": 17240,
          "time": 200.46511627906978,
          "velocity": 0.4015748031496063
        },
        {
          "duration": 0.023255813953483084,
          "durationTicks": 2,
          "midi": 43,
          "name": "G2",
          "ticks": 17244,
          "time": 200.51162790697674,
          "velocity": 0.4015748031496063
        },
        {
          "duration": 0.03488372093025305,
          "durationTicks": 3,
          "midi": 60,
          "name": "C4",
          "ticks": 17248,
          "time": 200.5581395348837,
          "velocity": 0.1968503937007874
        },
        {
          "duration": 0.023255813953483084,
          "durationTicks": 2,
          "midi": 43,
          "name": "G2",
          "ticks": 17249,
          "time": 200.56976744186048,
          "velocity": 0.36220472440944884
        },
        {
          "duration": 0.023255813953483084,
          "durationTicks": 2,
          "midi": 43,
          "name": "G2",
          "ticks": 17252,
          "time": 200.6046511627907,
          "velocity": 0.36220472440944884
        },
        {
          "duration": 0.04651162790696617,
          "durationTicks": 4,
          "midi": 43,
          "name": "G2",
          "ticks": 17255,
          "time": 200.63953488372093,
          "velocity": 0.4015748031496063
        },
        {
          "duration": 0.023255813953483084,
          "durationTicks": 2,
          "midi": 61,
          "name": "C#4",
          "ticks": 17257,
          "time": 200.6627906976744,
          "velocity": 0.4330708661417323
        },
        {
          "duration": 0.03488372093025305,
          "durationTicks": 3,
          "midi": 74,
          "name": "D5",
          "ticks": 17258,
          "time": 200.67441860465115,
          "velocity": 0.28346456692913385
        },
        {
          "duration": 0.023255813953511506,
          "durationTicks": 2,
          "midi": 62,
          "name": "D4",
          "ticks": 17259,
          "time": 200.6860465116279,
          "velocity": 0.4251968503937008
        },
        {
          "duration": 0.023255813953483084,
          "durationTicks": 2,
          "midi": 41,
          "name": "F2",
          "ticks": 17260,
          "time": 200.69767441860466,
          "velocity": 0.29133858267716534
        },
        {
          "duration": 0.22093023255811772,
          "durationTicks": 19,
          "midi": 55,
          "name": "G3",
          "ticks": 17260,
          "time": 200.69767441860466,
          "velocity": 0.4015748031496063
        },
        {
          "duration": 0.15116279069766847,
          "durationTicks": 13,
          "midi": 50,
          "name": "D3",
          "ticks": 17261,
          "time": 200.7093023255814,
          "velocity": 0.36220472440944884
        },
        {
          "duration": 0.023255813953483084,
          "durationTicks": 2,
          "midi": 64,
          "name": "E4",
          "ticks": 17262,
          "time": 200.72093023255815,
          "velocity": 0.4566929133858268
        },
        {
          "duration": 0.17441860465115155,
          "durationTicks": 15,
          "midi": 43,
          "name": "G2",
          "ticks": 17263,
          "time": 200.7325581395349,
          "velocity": 0.36220472440944884
        },
        {
          "duration": 0.16279069767441,
          "durationTicks": 14,
          "midi": 65,
          "name": "F4",
          "ticks": 17264,
          "time": 200.74418604651163,
          "velocity": 0.44881889763779526
        },
        {
          "duration": 0.1860465116278931,
          "durationTicks": 16,
          "midi": 84,
          "name": "C6",
          "ticks": 17264,
          "time": 200.74418604651163,
          "velocity": 0.15748031496062992
        },
        {
          "duration": 0.04651162790696617,
          "durationTicks": 4,
          "midi": 103,
          "name": "G7",
          "ticks": 17265,
          "time": 200.75581395348837,
          "velocity": 0.08661417322834646
        },
        {
          "duration": 0.034883720930224626,
          "durationTicks": 3,
          "midi": 50,
          "name": "D3",
          "ticks": 17275,
          "time": 200.87209302325581,
          "velocity": 0.28346456692913385
        },
        {
          "duration": 0.023255813953483084,
          "durationTicks": 2,
          "midi": 64,
          "name": "E4",
          "ticks": 17277,
          "time": 200.8953488372093,
          "velocity": 0.23622047244094488
        },
        {
          "duration": 0.04651162790699459,
          "durationTicks": 4,
          "midi": 41,
          "name": "F2",
          "ticks": 17279,
          "time": 200.91860465116278,
          "velocity": 0.3779527559055118
        },
        {
          "duration": 0.023255813953511506,
          "durationTicks": 2,
          "midi": 54,
          "name": "F#3",
          "ticks": 17279,
          "time": 200.91860465116278,
          "velocity": 0.3937007874015748
        },
        {
          "duration": 0.12790697674418539,
          "durationTicks": 11,
          "midi": 65,
          "name": "F4",
          "ticks": 17279,
          "time": 200.91860465116278,
          "velocity": 0.3779527559055118
        },
        {
          "duration": 0.04651162790699459,
          "durationTicks": 4,
          "midi": 74,
          "name": "D5",
          "ticks": 17280,
          "time": 200.93023255813952,
          "velocity": 0.2047244094488189
        },
        {
          "duration": 0.023255813953483084,
          "durationTicks": 2,
          "midi": 42,
          "name": "F#2",
          "ticks": 17283,
          "time": 200.96511627906978,
          "velocity": 0.41732283464566927
        },
        {
          "duration": 0.11627906976744384,
          "durationTicks": 10,
          "midi": 50,
          "name": "D3",
          "ticks": 17283,
          "time": 200.96511627906978,
          "velocity": 0.4566929133858268
        },
        {
          "duration": 0.1046511627907023,
          "durationTicks": 9,
          "midi": 43,
          "name": "G2",
          "ticks": 17285,
          "time": 200.98837209302326,
          "velocity": 0.41732283464566927
        },
        {
          "duration": 0.16279069767441,
          "durationTicks": 14,
          "midi": 65,
          "name": "F4",
          "ticks": 17293,
          "time": 201.08139534883722,
          "velocity": 0.4094488188976378
        },
        {
          "duration": 0.09302325581393234,
          "durationTicks": 8,
          "midi": 42,
          "name": "F#2",
          "ticks": 17294,
          "time": 201.09302325581396,
          "velocity": 0.3858267716535433
        },
        {
          "duration": 0.15116279069766847,
          "durationTicks": 13,
          "midi": 55,
          "name": "G3",
          "ticks": 17304,
          "time": 201.2093023255814,
          "velocity": 0.47244094488188976
        },
        {
          "duration": 0.034883720930224626,
          "durationTicks": 3,
          "midi": 42,
          "name": "F#2",
          "ticks": 17305,
          "time": 201.22093023255815,
          "velocity": 0.3700787401574803
        },
        {
          "duration": 0.16279069767441,
          "durationTicks": 14,
          "midi": 62,
          "name": "D4",
          "ticks": 17305,
          "time": 201.22093023255815,
          "velocity": 0.25984251968503935
        },
        {
          "duration": 0.04651162790696617,
          "durationTicks": 4,
          "midi": 50,
          "name": "D3",
          "ticks": 17307,
          "time": 201.24418604651163,
          "velocity": 0.3858267716535433
        },
        {
          "duration": 0.06976744186047767,
          "durationTicks": 6,
          "midi": 43,
          "name": "G2",
          "ticks": 17308,
          "time": 201.25581395348837,
          "velocity": 0.3858267716535433
        },
        {
          "duration": 0.12790697674418539,
          "durationTicks": 11,
          "midi": 86,
          "name": "D6",
          "ticks": 17314,
          "time": 201.32558139534885,
          "velocity": 0.3228346456692913
        },
        {
          "duration": 0.09302325581393234,
          "durationTicks": 8,
          "midi": 103,
          "name": "G7",
          "ticks": 17315,
          "time": 201.3372093023256,
          "velocity": 0.1968503937007874
        },
        {
          "duration": 0.11627906976744384,
          "durationTicks": 10,
          "midi": 50,
          "name": "D3",
          "ticks": 17316,
          "time": 201.34883720930233,
          "velocity": 0.3937007874015748
        },
        {
          "duration": 0.11627906976744384,
          "durationTicks": 10,
          "midi": 43,
          "name": "G2",
          "ticks": 17318,
          "time": 201.37209302325581,
          "velocity": 0.4094488188976378
        },
        {
          "duration": 0.023255813953483084,
          "durationTicks": 2,
          "midi": 66,
          "name": "F#4",
          "ticks": 17324,
          "time": 201.4418604651163,
          "velocity": 0.2677165354330709
        },
        {
          "duration": 0.04651162790696617,
          "durationTicks": 4,
          "midi": 67,
          "name": "G4",
          "ticks": 17326,
          "time": 201.46511627906978,
          "velocity": 0.10236220472440945
        },
        {
          "duration": 0.11627906976744384,
          "durationTicks": 10,
          "midi": 42,
          "name": "F#2",
          "ticks": 17328,
          "time": 201.48837209302326,
          "velocity": 0.4015748031496063
        },
        {
          "duration": 0.034883720930224626,
          "durationTicks": 3,
          "midi": 55,
          "name": "G3",
          "ticks": 17330,
          "time": 201.51162790697674,
          "velocity": 0.15748031496062992
        },
        {
          "duration": 0.034883720930224626,
          "durationTicks": 3,
          "midi": 61,
          "name": "C#4",
          "ticks": 17336,
          "time": 201.58139534883722,
          "velocity": 0.23622047244094488
        },
        {
          "duration": 0.22093023255811772,
          "durationTicks": 19,
          "midi": 87,
          "name": "D#6",
          "ticks": 17336,
          "time": 201.58139534883722,
          "velocity": 0.2677165354330709
        },
        {
          "duration": 0.20930232558137618,
          "durationTicks": 18,
          "midi": 68,
          "name": "G#4",
          "ticks": 17337,
          "time": 201.59302325581396,
          "velocity": 0.4015748031496063
        },
        {
          "duration": 0.09302325581396076,
          "durationTicks": 8,
          "midi": 50,
          "name": "D3",
          "ticks": 17339,
          "time": 201.61627906976744,
          "velocity": 0.41732283464566927
        },
        {
          "duration": 0.19767441860466306,
          "durationTicks": 17,
          "midi": 43,
          "name": "G2",
          "ticks": 17341,
          "time": 201.63953488372093,
          "velocity": 0.4094488188976378
        },
        {
          "duration": 0.023255813953483084,
          "durationTicks": 2,
          "midi": 50,
          "name": "D3",
          "ticks": 17350,
          "time": 201.74418604651163,
          "velocity": 0.2677165354330709
        },
        {
          "duration": 0.04651162790699459,
          "durationTicks": 4,
          "midi": 50,
          "name": "D3",
          "ticks": 17353,
          "time": 201.77906976744185,
          "velocity": 0.2677165354330709
        },
        {
          "duration": 0.023255813953483084,
          "durationTicks": 2,
          "midi": 44,
          "name": "G#2",
          "ticks": 17358,
          "time": 201.8372093023256,
          "velocity": 0.3543307086614173
        },
        {
          "duration": 0.16279069767441,
          "durationTicks": 14,
          "midi": 69,
          "name": "A4",
          "ticks": 17358,
          "time": 201.8372093023256,
          "velocity": 0.3779527559055118
        },
        {
          "duration": 0.1046511627907023,
          "durationTicks": 9,
          "midi": 103,
          "name": "G7",
          "ticks": 17358,
          "time": 201.8372093023256,
          "velocity": 0.1732283464566929
        },
        {
          "duration": 0.05813953488370771,
          "durationTicks": 5,
          "midi": 97,
          "name": "C#7",
          "ticks": 17359,
          "time": 201.84883720930233,
          "velocity": 0.09448818897637795
        },
        {
          "duration": 0.11627906976744384,
          "durationTicks": 10,
          "midi": 50,
          "name": "D3",
          "ticks": 17360,
          "time": 201.86046511627907,
          "velocity": 0.4409448818897638
        },
        {
          "duration": 0.08139534883721922,
          "durationTicks": 7,
          "midi": 43,
          "name": "G2",
          "ticks": 17363,
          "time": 201.8953488372093,
          "velocity": 0.4251968503937008
        },
        {
          "duration": 0.1046511627907023,
          "durationTicks": 9,
          "midi": 42,
          "name": "F#2",
          "ticks": 17372,
          "time": 202,
          "velocity": 0.33858267716535434
        },
        {
          "duration": 0.2325581395348877,
          "durationTicks": 20,
          "midi": 84,
          "name": "C6",
          "ticks": 17380,
          "time": 202.09302325581396,
          "velocity": 0.44881889763779526
        },
        {
          "duration": 0.06976744186044925,
          "durationTicks": 6,
          "midi": 62,
          "name": "D4",
          "ticks": 17381,
          "time": 202.1046511627907,
          "velocity": 0.2125984251968504
        },
        {
          "duration": 0.24418604651162923,
          "durationTicks": 21,
          "midi": 72,
          "name": "C5",
          "ticks": 17381,
          "time": 202.1046511627907,
          "velocity": 0.33858267716535434
        },
        {
          "duration": 0.2093023255814046,
          "durationTicks": 18,
          "midi": 91,
          "name": "G6",
          "ticks": 17381,
          "time": 202.1046511627907,
          "velocity": 0.14960629921259844
        },
        {
          "duration": 0.1046511627907023,
          "durationTicks": 9,
          "midi": 50,
          "name": "D3",
          "ticks": 17382,
          "time": 202.11627906976744,
          "velocity": 0.4015748031496063
        },
        {
          "duration": 0.11627906976744384,
          "durationTicks": 10,
          "midi": 43,
          "name": "G2",
          "ticks": 17383,
          "time": 202.12790697674419,
          "velocity": 0.4094488188976378
        },
        {
          "duration": 0.3604651162790731,
          "durationTicks": 31,
          "midi": 55,
          "name": "G3",
          "ticks": 17393,
          "time": 202.24418604651163,
          "velocity": 0.48031496062992124
        },
        {
          "duration": 0.05813953488373613,
          "durationTicks": 5,
          "midi": 50,
          "name": "D3",
          "ticks": 17395,
          "time": 202.2674418604651,
          "velocity": 0.3464566929133858
        },
        {
          "duration": 0.04651162790699459,
          "durationTicks": 4,
          "midi": 74,
          "name": "D5",
          "ticks": 17395,
          "time": 202.2674418604651,
          "velocity": 0.14960629921259844
        },
        {
          "duration": 0.08139534883721922,
          "durationTicks": 7,
          "midi": 43,
          "name": "G2",
          "ticks": 17396,
          "time": 202.27906976744185,
          "velocity": 0.3858267716535433
        },
        {
          "duration": 0.023255813953483084,
          "durationTicks": 2,
          "midi": 50,
          "name": "D3",
          "ticks": 17401,
          "time": 202.3372093023256,
          "velocity": 0.3700787401574803
        },
        {
          "duration": 0.034883720930224626,
          "durationTicks": 3,
          "midi": 61,
          "name": "C#4",
          "ticks": 17403,
          "time": 202.36046511627907,
          "velocity": 0.1889763779527559
        },
        {
          "duration": 0.06976744186044925,
          "durationTicks": 6,
          "midi": 81,
          "name": "A5",
          "ticks": 17403,
          "time": 202.36046511627907,
          "velocity": 0.2204724409448819
        },
        {
          "duration": 0.04651162790696617,
          "durationTicks": 4,
          "midi": 50,
          "name": "D3",
          "ticks": 17404,
          "time": 202.37209302325581,
          "velocity": 0.4251968503937008
        },
        {
          "duration": 0.11627906976744384,
          "durationTicks": 10,
          "midi": 69,
          "name": "A4",
          "ticks": 17404,
          "time": 202.37209302325581,
          "velocity": 0.3858267716535433
        },
        {
          "duration": 0.09302325581396076,
          "durationTicks": 8,
          "midi": 103,
          "name": "G7",
          "ticks": 17404,
          "time": 202.37209302325581,
          "velocity": 0.16535433070866143
        },
        {
          "duration": 0.034883720930224626,
          "durationTicks": 3,
          "midi": 42,
          "name": "F#2",
          "ticks": 17406,
          "time": 202.3953488372093,
          "velocity": 0.31496062992125984
        },
        {
          "duration": 0.05813953488373613,
          "durationTicks": 5,
          "midi": 43,
          "name": "G2",
          "ticks": 17409,
          "time": 202.43023255813952,
          "velocity": 0.36220472440944884
        },
        {
          "duration": 0.023255813953483084,
          "durationTicks": 2,
          "midi": 50,
          "name": "D3",
          "ticks": 17411,
          "time": 202.45348837209303,
          "velocity": 0.3464566929133858
        },
        {
          "duration": 0.023255813953483084,
          "durationTicks": 2,
          "midi": 44,
          "name": "G#2",
          "ticks": 17414,
          "time": 202.48837209302326,
          "velocity": 0.41732283464566927
        },
        {
          "duration": 0.1046511627907023,
          "durationTicks": 9,
          "midi": 62,
          "name": "D4",
          "ticks": 17414,
          "time": 202.48837209302326,
          "velocity": 0.2677165354330709
        },
        {
          "duration": 0.09302325581396076,
          "durationTicks": 8,
          "midi": 43,
          "name": "G2",
          "ticks": 17416,
          "time": 202.51162790697674,
          "velocity": 0.4409448818897638
        },
        {
          "duration": 0.023255813953483084,
          "durationTicks": 2,
          "midi": 42,
          "name": "F#2",
          "ticks": 17424,
          "time": 202.6046511627907,
          "velocity": 0.4015748031496063
        },
        {
          "duration": 0.04651162790696617,
          "durationTicks": 4,
          "midi": 55,
          "name": "G3",
          "ticks": 17425,
          "time": 202.61627906976744,
          "velocity": 0.2677165354330709
        },
        {
          "duration": 0.023255813953483084,
          "durationTicks": 2,
          "midi": 41,
          "name": "F2",
          "ticks": 17426,
          "time": 202.62790697674419,
          "velocity": 0.3858267716535433
        },
        {
          "duration": 0.11627906976744384,
          "durationTicks": 10,
          "midi": 81,
          "name": "A5",
          "ticks": 17430,
          "time": 202.67441860465115,
          "velocity": 0.2283464566929134
        },
        {
          "duration": 0.023255813953511506,
          "durationTicks": 2,
          "midi": 55,
          "name": "G3",
          "ticks": 17431,
          "time": 202.6860465116279,
          "velocity": 0.2755905511811024
        },
        {
          "duration": 0.19767441860466306,
          "durationTicks": 17,
          "midi": 69,
          "name": "A4",
          "ticks": 17431,
          "time": 202.6860465116279,
          "velocity": 0.4094488188976378
        },
        {
          "duration": 0.03488372093025305,
          "durationTicks": 3,
          "midi": 103,
          "name": "G7",
          "ticks": 17431,
          "time": 202.6860465116279,
          "velocity": 0.09448818897637795
        },
        {
          "duration": 0.023255813953483084,
          "durationTicks": 2,
          "midi": 44,
          "name": "G#2",
          "ticks": 17432,
          "time": 202.69767441860466,
          "velocity": 0.2677165354330709
        },
        {
          "duration": 0.1860465116278931,
          "durationTicks": 16,
          "midi": 74,
          "name": "D5",
          "ticks": 17434,
          "time": 202.72093023255815,
          "velocity": 0.30708661417322836
        },
        {
          "duration": 0.13953488372092693,
          "durationTicks": 12,
          "midi": 86,
          "name": "D6",
          "ticks": 17434,
          "time": 202.72093023255815,
          "velocity": 0.41732283464566927
        },
        {
          "duration": 0.12790697674418539,
          "durationTicks": 11,
          "midi": 102,
          "name": "F#7",
          "ticks": 17434,
          "time": 202.72093023255815,
          "velocity": 0.2677165354330709
        },
        {
          "duration": 0.05813953488370771,
          "durationTicks": 5,
          "midi": 44,
          "name": "G#2",
          "ticks": 17436,
          "time": 202.74418604651163,
          "velocity": 0.4094488188976378
        },
        {
          "duration": 0.22093023255814614,
          "durationTicks": 19,
          "midi": 53,
          "name": "F3",
          "ticks": 17438,
          "time": 202.7674418604651,
          "velocity": 0.4015748031496063
        },
        {
          "duration": 0.2325581395348877,
          "durationTicks": 20,
          "midi": 58,
          "name": "A#3",
          "ticks": 17438,
          "time": 202.7674418604651,
          "velocity": 0.3858267716535433
        },
        {
          "duration": 0.09302325581396076,
          "durationTicks": 8,
          "midi": 77,
          "name": "F5",
          "ticks": 17438,
          "time": 202.7674418604651,
          "velocity": 0.11023622047244094
        },
        {
          "duration": 0.1860465116278931,
          "durationTicks": 16,
          "midi": 41,
          "name": "F2",
          "ticks": 17442,
          "time": 202.8139534883721,
          "velocity": 0.36220472440944884
        },
        {
          "duration": 0.16279069767441,
          "durationTicks": 14,
          "midi": 74,
          "name": "D5",
          "ticks": 17457,
          "time": 202.98837209302326,
          "velocity": 0.3464566929133858
        },
        {
          "duration": 0.12790697674418539,
          "durationTicks": 11,
          "midi": 98,
          "name": "D7",
          "ticks": 17457,
          "time": 202.98837209302326,
          "velocity": 0.2440944881889764
        },
        {
          "duration": 0.11627906976744384,
          "durationTicks": 10,
          "midi": 102,
          "name": "F#7",
          "ticks": 17457,
          "time": 202.98837209302326,
          "velocity": 0.25196850393700787
        },
        {
          "duration": 0.05813953488370771,
          "durationTicks": 5,
          "midi": 93,
          "name": "A6",
          "ticks": 17458,
          "time": 203,
          "velocity": 0.11023622047244094
        },
        {
          "duration": 0.13953488372092693,
          "durationTicks": 12,
          "midi": 53,
          "name": "F3",
          "ticks": 17460,
          "time": 203.02325581395348,
          "velocity": 0.33070866141732286
        },
        {
          "duration": 0.13953488372092693,
          "durationTicks": 12,
          "midi": 58,
          "name": "A#3",
          "ticks": 17460,
          "time": 203.02325581395348,
          "velocity": 0.3700787401574803
        },
        {
          "duration": 0.03488372093025305,
          "durationTicks": 3,
          "midi": 72,
          "name": "C5",
          "ticks": 17461,
          "time": 203.03488372093022,
          "velocity": 0.14173228346456693
        },
        {
          "duration": 0.034883720930224626,
          "durationTicks": 3,
          "midi": 72,
          "name": "C5",
          "ticks": 17465,
          "time": 203.08139534883722,
          "velocity": 0.07874015748031496
        },
        {
          "duration": 0.023255813953483084,
          "durationTicks": 2,
          "midi": 45,
          "name": "A2",
          "ticks": 17466,
          "time": 203.09302325581396,
          "velocity": 0.3543307086614173
        },
        {
          "duration": 0.023255813953483084,
          "durationTicks": 2,
          "midi": 45,
          "name": "A2",
          "ticks": 17469,
          "time": 203.12790697674419,
          "velocity": 0.36220472440944884
        },
        {
          "duration": 0.03488372093025305,
          "durationTicks": 3,
          "midi": 58,
          "name": "A#3",
          "ticks": 17473,
          "time": 203.17441860465115,
          "velocity": 0.1968503937007874
        },
        {
          "duration": 0.03488372093025305,
          "durationTicks": 3,
          "midi": 45,
          "name": "A2",
          "ticks": 17474,
          "time": 203.1860465116279,
          "velocity": 0.30708661417322836
        },
        {
          "duration": 0.023255813953483084,
          "durationTicks": 2,
          "midi": 46,
          "name": "A#2",
          "ticks": 17477,
          "time": 203.22093023255815,
          "velocity": 0.3228346456692913
        },
        {
          "duration": 0.023255813953483084,
          "durationTicks": 2,
          "midi": 45,
          "name": "A2",
          "ticks": 17479,
          "time": 203.24418604651163,
          "velocity": 0.3779527559055118
        },
        {
          "duration": 0.023255813953483084,
          "durationTicks": 2,
          "midi": 60,
          "name": "C4",
          "ticks": 17480,
          "time": 203.25581395348837,
          "velocity": 0.33858267716535434
        },
        {
          "duration": 0.034883720930224626,
          "durationTicks": 3,
          "midi": 77,
          "name": "F5",
          "ticks": 17480,
          "time": 203.25581395348837,
          "velocity": 0.14960629921259844
        },
        {
          "duration": 0.023255813953483084,
          "durationTicks": 2,
          "midi": 44,
          "name": "G#2",
          "ticks": 17481,
          "time": 203.2674418604651,
          "velocity": 0.3464566929133858
        },
        {
          "duration": 0.04651162790699459,
          "durationTicks": 4,
          "midi": 66,
          "name": "F#4",
          "ticks": 17481,
          "time": 203.2674418604651,
          "velocity": 0.14960629921259844
        },
        {
          "duration": 0.1046511627907023,
          "durationTicks": 9,
          "midi": 74,
          "name": "D5",
          "ticks": 17481,
          "time": 203.2674418604651,
          "velocity": 0.36220472440944884
        },
        {
          "duration": 0.09302325581396076,
          "durationTicks": 8,
          "midi": 102,
          "name": "F#7",
          "ticks": 17481,
          "time": 203.2674418604651,
          "velocity": 0.25196850393700787
        },
        {
          "duration": 0.33720930232559,
          "durationTicks": 29,
          "midi": 58,
          "name": "A#3",
          "ticks": 17482,
          "time": 203.27906976744185,
          "velocity": 0.41732283464566927
        },
        {
          "duration": 0.023255813953511506,
          "durationTicks": 2,
          "midi": 45,
          "name": "A2",
          "ticks": 17483,
          "time": 203.2906976744186,
          "velocity": 0.3779527559055118
        },
        {
          "duration": 0.05813953488370771,
          "durationTicks": 5,
          "midi": 41,
          "name": "F2",
          "ticks": 17486,
          "time": 203.32558139534885,
          "velocity": 0.3937007874015748
        },
        {
          "duration": 0.023255813953483084,
          "durationTicks": 2,
          "midi": 54,
          "name": "F#3",
          "ticks": 17491,
          "time": 203.38372093023256,
          "velocity": 0.36220472440944884
        },
        {
          "duration": 0.13953488372092693,
          "durationTicks": 12,
          "midi": 69,
          "name": "A4",
          "ticks": 17492,
          "time": 203.3953488372093,
          "velocity": 0.3700787401574803
        },
        {
          "duration": 0.11627906976744384,
          "durationTicks": 10,
          "midi": 93,
          "name": "A6",
          "ticks": 17492,
          "time": 203.3953488372093,
          "velocity": 0.12598425196850394
        },
        {
          "duration": 0.11627906976744384,
          "durationTicks": 10,
          "midi": 103,
          "name": "G7",
          "ticks": 17492,
          "time": 203.3953488372093,
          "velocity": 0.1889763779527559
        },
        {
          "duration": 0.1046511627907023,
          "durationTicks": 9,
          "midi": 53,
          "name": "F3",
          "ticks": 17493,
          "time": 203.40697674418604,
          "velocity": 0.44881889763779526
        },
        {
          "duration": 0.09302325581396076,
          "durationTicks": 8,
          "midi": 97,
          "name": "C#7",
          "ticks": 17493,
          "time": 203.40697674418604,
          "velocity": 0.09448818897637795
        },
        {
          "duration": 0.023255813953511506,
          "durationTicks": 2,
          "midi": 41,
          "name": "F2",
          "ticks": 17495,
          "time": 203.43023255813952,
          "velocity": 0.3779527559055118
        },
        {
          "duration": 0.04651162790696617,
          "durationTicks": 4,
          "midi": 41,
          "name": "F2",
          "ticks": 17498,
          "time": 203.46511627906978,
          "velocity": 0.3858267716535433
        },
        {
          "duration": 0.12790697674418539,
          "durationTicks": 11,
          "midi": 74,
          "name": "D5",
          "ticks": 17501,
          "time": 203.5,
          "velocity": 0.3858267716535433
        },
        {
          "duration": 0.1046511627907023,
          "durationTicks": 9,
          "midi": 102,
          "name": "F#7",
          "ticks": 17502,
          "time": 203.51162790697674,
          "velocity": 0.15748031496062992
        },
        {
          "duration": 0.034883720930224626,
          "durationTicks": 3,
          "midi": 53,
          "name": "F3",
          "ticks": 17503,
          "time": 203.52325581395348,
          "velocity": 0.2283464566929134
        },
        {
          "duration": 0.03488372093025305,
          "durationTicks": 3,
          "midi": 96,
          "name": "C7",
          "ticks": 17505,
          "time": 203.54651162790697,
          "velocity": 0.16535433070866143
        },
        {
          "duration": 0.023255813953483084,
          "durationTicks": 2,
          "midi": 41,
          "name": "F2",
          "ticks": 17512,
          "time": 203.62790697674419,
          "velocity": 0.23622047244094488
        },
        {
          "duration": 0.5697674418604777,
          "durationTicks": 49,
          "midi": 84,
          "name": "C6",
          "ticks": 17515,
          "time": 203.6627906976744,
          "velocity": 0.3700787401574803
        },
        {
          "duration": 0.04651162790699459,
          "durationTicks": 4,
          "midi": 48,
          "name": "C3",
          "ticks": 17516,
          "time": 203.67441860465115,
          "velocity": 0.3779527559055118
        },
        {
          "duration": 0.023255813953511506,
          "durationTicks": 2,
          "midi": 71,
          "name": "B4",
          "ticks": 17516,
          "time": 203.67441860465115,
          "velocity": 0.3228346456692913
        },
        {
          "duration": 0.11627906976744384,
          "durationTicks": 10,
          "midi": 91,
          "name": "G6",
          "ticks": 17516,
          "time": 203.67441860465115,
          "velocity": 0.10236220472440945
        },
        {
          "duration": 0.1046511627907023,
          "durationTicks": 9,
          "midi": 100,
          "name": "E7",
          "ticks": 17516,
          "time": 203.67441860465115,
          "velocity": 0.10236220472440945
        },
        {
          "duration": 0.24418604651162923,
          "durationTicks": 21,
          "midi": 55,
          "name": "G3",
          "ticks": 17517,
          "time": 203.6860465116279,
          "velocity": 0.4881889763779528
        },
        {
          "duration": 0.05813953488373613,
          "durationTicks": 5,
          "midi": 74,
          "name": "D5",
          "ticks": 17517,
          "time": 203.6860465116279,
          "velocity": 0.07874015748031496
        },
        {
          "duration": 0.04651162790699459,
          "durationTicks": 4,
          "midi": 43,
          "name": "G2",
          "ticks": 17524,
          "time": 203.7674418604651,
          "velocity": 0.2992125984251969
        },
        {
          "duration": 0.09302325581393234,
          "durationTicks": 8,
          "midi": 60,
          "name": "C4",
          "ticks": 17528,
          "time": 203.8139534883721,
          "velocity": 0.16535433070866143
        },
        {
          "duration": 0.09302325581396076,
          "durationTicks": 8,
          "midi": 100,
          "name": "E7",
          "ticks": 17531,
          "time": 203.84883720930233,
          "velocity": 0.08661417322834646
        },
        {
          "duration": 0.06976744186047767,
          "durationTicks": 6,
          "midi": 60,
          "name": "C4",
          "ticks": 17538,
          "time": 203.93023255813952,
          "velocity": 0.31496062992125984
        },
        {
          "duration": 0.03488372093025305,
          "durationTicks": 3,
          "midi": 67,
          "name": "G4",
          "ticks": 17538,
          "time": 203.93023255813952,
          "velocity": 0.16535433070866143
        },
        {
          "duration": 0.30232558139536536,
          "durationTicks": 26,
          "midi": 72,
          "name": "C5",
          "ticks": 17538,
          "time": 203.93023255813952,
          "velocity": 0.3228346456692913
        },
        {
          "duration": 0.12790697674418539,
          "durationTicks": 11,
          "midi": 55,
          "name": "G3",
          "ticks": 17539,
          "time": 203.9418604651163,
          "velocity": 0.5275590551181102
        },
        {
          "duration": 0.023255813953483084,
          "durationTicks": 2,
          "midi": 43,
          "name": "G2",
          "ticks": 17541,
          "time": 203.96511627906978,
          "velocity": 0.33070866141732286
        },
        {
          "duration": 0.023255813953511506,
          "durationTicks": 2,
          "midi": 42,
          "name": "F#2",
          "ticks": 17548,
          "time": 204.04651162790697,
          "velocity": 0.3464566929133858
        },
        {
          "duration": 0.06976744186044925,
          "durationTicks": 6,
          "midi": 41,
          "name": "F2",
          "ticks": 17550,
          "time": 204.06976744186048,
          "velocity": 0.3464566929133858
        },
        {
          "duration": 0.18604651162792152,
          "durationTicks": 16,
          "midi": 55,
          "name": "G3",
          "ticks": 17555,
          "time": 204.12790697674419,
          "velocity": 0.5275590551181102
        },
        {
          "duration": 0.034883720930224626,
          "durationTicks": 3,
          "midi": 42,
          "name": "F#2",
          "ticks": 17557,
          "time": 204.15116279069767,
          "velocity": 0.1968503937007874
        },
        {
          "duration": 0.023255813953483084,
          "durationTicks": 2,
          "midi": 45,
          "name": "A2",
          "ticks": 17561,
          "time": 204.19767441860466,
          "velocity": 0.33070866141732286
        },
        {
          "duration": 0.05813953488373613,
          "durationTicks": 5,
          "midi": 43,
          "name": "G2",
          "ticks": 17567,
          "time": 204.2674418604651,
          "velocity": 0.3779527559055118
        },
        {
          "duration": 0.023255813953483084,
          "durationTicks": 2,
          "midi": 72,
          "name": "C5",
          "ticks": 17571,
          "time": 204.3139534883721,
          "velocity": 0.2283464566929134
        },
        {
          "duration": 0.12790697674418539,
          "durationTicks": 11,
          "midi": 55,
          "name": "G3",
          "ticks": 17572,
          "time": 204.32558139534885,
          "velocity": 0.5039370078740157
        },
        {
          "duration": 0.0813953488371908,
          "durationTicks": 7,
          "midi": 60,
          "name": "C4",
          "ticks": 17573,
          "time": 204.3372093023256,
          "velocity": 0.25984251968503935
        },
        {
          "duration": 0.06976744186044925,
          "durationTicks": 6,
          "midi": 71,
          "name": "B4",
          "ticks": 17573,
          "time": 204.3372093023256,
          "velocity": 0.2125984251968504
        },
        {
          "duration": 0.0813953488371908,
          "durationTicks": 7,
          "midi": 48,
          "name": "C3",
          "ticks": 17574,
          "time": 204.34883720930233,
          "velocity": 0.33070866141732286
        },
        {
          "duration": 0.0813953488371908,
          "durationTicks": 7,
          "midi": 55,
          "name": "G3",
          "ticks": 17584,
          "time": 204.46511627906978,
          "velocity": 0.5118110236220472
        },
        {
          "duration": 0.034883720930224626,
          "durationTicks": 3,
          "midi": 74,
          "name": "D5",
          "ticks": 17584,
          "time": 204.46511627906978,
          "velocity": 0.08661417322834646
        },
        {
          "duration": 0.034883720930224626,
          "durationTicks": 3,
          "midi": 60,
          "name": "C4",
          "ticks": 17586,
          "time": 204.48837209302326,
          "velocity": 0.18110236220472442
        },
        {
          "duration": 0.023255813953483084,
          "durationTicks": 2,
          "midi": 43,
          "name": "G2",
          "ticks": 17589,
          "time": 204.52325581395348,
          "velocity": 0.31496062992125984
        },
        {
          "duration": 0.04651162790699459,
          "durationTicks": 4,
          "midi": 62,
          "name": "D4",
          "ticks": 17590,
          "time": 204.53488372093022,
          "velocity": 0.25984251968503935
        },
        {
          "duration": 0.04651162790699459,
          "durationTicks": 4,
          "midi": 69,
          "name": "A4",
          "ticks": 17591,
          "time": 204.54651162790697,
          "velocity": 0.18110236220472442
        },
        {
          "duration": 0.04651162790696617,
          "durationTicks": 4,
          "midi": 42,
          "name": "F#2",
          "ticks": 17593,
          "time": 204.56976744186048,
          "velocity": 0.3858267716535433
        },
        {
          "duration": 0.16279069767441,
          "durationTicks": 14,
          "midi": 55,
          "name": "G3",
          "ticks": 17594,
          "time": 204.58139534883722,
          "velocity": 0.4251968503937008
        },
        {
          "duration": 0.04651162790696617,
          "durationTicks": 4,
          "midi": 74,
          "name": "D5",
          "ticks": 17596,
          "time": 204.6046511627907,
          "velocity": 0.2283464566929134
        },
        {
          "duration": 0.034883720930224626,
          "durationTicks": 3,
          "midi": 60,
          "name": "C4",
          "ticks": 17598,
          "time": 204.62790697674419,
          "velocity": 0.3937007874015748
        },
        {
          "duration": 0.023255813953483084,
          "durationTicks": 2,
          "midi": 43,
          "name": "G2",
          "ticks": 17601,
          "time": 204.6627906976744,
          "velocity": 0.3858267716535433
        },
        {
          "duration": 0.023255813953483084,
          "durationTicks": 2,
          "midi": 61,
          "name": "C#4",
          "ticks": 17601,
          "time": 204.6627906976744,
          "velocity": 0.3543307086614173
        },
        {
          "duration": 0.04651162790699459,
          "durationTicks": 4,
          "midi": 74,
          "name": "D5",
          "ticks": 17602,
          "time": 204.67441860465115,
          "velocity": 0.25984251968503935
        },
        {
          "duration": 0.023255813953483084,
          "durationTicks": 2,
          "midi": 43,
          "name": "G2",
          "ticks": 17604,
          "time": 204.69767441860466,
          "velocity": 0.33070866141732286
        },
        {
          "duration": 0.04651162790696617,
          "durationTicks": 4,
          "midi": 98,
          "name": "D7",
          "ticks": 17604,
          "time": 204.69767441860466,
          "velocity": 0.2047244094488189
        },
        {
          "duration": 0.023255813953483084,
          "durationTicks": 2,
          "midi": 63,
          "name": "D#4",
          "ticks": 17605,
          "time": 204.7093023255814,
          "velocity": 0.33070866141732286
        },
        {
          "duration": 0.023255813953483084,
          "durationTicks": 2,
          "midi": 42,
          "name": "F#2",
          "ticks": 17606,
          "time": 204.72093023255815,
          "velocity": 0.2992125984251969
        },
        {
          "duration": 0.04651162790696617,
          "durationTicks": 4,
          "midi": 64,
          "name": "E4",
          "ticks": 17607,
          "time": 204.7325581395349,
          "velocity": 0.2755905511811024
        },
        {
          "duration": 0.034883720930224626,
          "durationTicks": 3,
          "midi": 42,
          "name": "F#2",
          "ticks": 17609,
          "time": 204.75581395348837,
          "velocity": 0.2047244094488189
        },
        {
          "duration": 0.08139534883721922,
          "durationTicks": 7,
          "midi": 50,
          "name": "D3",
          "ticks": 17609,
          "time": 204.75581395348837,
          "velocity": 0.30708661417322836
        },
        {
          "duration": 0.03488372093025305,
          "durationTicks": 3,
          "midi": 96,
          "name": "C7",
          "ticks": 17611,
          "time": 204.77906976744185,
          "velocity": 0.11023622047244094
        },
        {
          "duration": 0.24418604651162923,
          "durationTicks": 21,
          "midi": 57,
          "name": "A3",
          "ticks": 17616,
          "time": 204.8372093023256,
          "velocity": 0.4645669291338583
        },
        {
          "duration": 0.24418604651162923,
          "durationTicks": 21,
          "midi": 65,
          "name": "F4",
          "ticks": 17616,
          "time": 204.8372093023256,
          "velocity": 0.41732283464566927
        },
        {
          "duration": 0.15116279069766847,
          "durationTicks": 13,
          "midi": 50,
          "name": "D3",
          "ticks": 17618,
          "time": 204.86046511627907,
          "velocity": 0.4251968503937008
        },
        {
          "duration": 0.2325581395348877,
          "durationTicks": 20,
          "midi": 97,
          "name": "C#7",
          "ticks": 17618,
          "time": 204.86046511627907,
          "velocity": 0.15748031496062992
        },
        {
          "duration": 0.16279069767441,
          "durationTicks": 14,
          "midi": 103,
          "name": "G7",
          "ticks": 17618,
          "time": 204.86046511627907,
          "velocity": 0.10236220472440945
        },
        {
          "duration": 0.023255813953483084,
          "durationTicks": 2,
          "midi": 62,
          "name": "D4",
          "ticks": 17632,
          "time": 205.02325581395348,
          "velocity": 0.2440944881889764
        },
        {
          "duration": 0.04651162790699459,
          "durationTicks": 4,
          "midi": 50,
          "name": "D3",
          "ticks": 17634,
          "time": 205.04651162790697,
          "velocity": 0.4015748031496063
        },
        {
          "duration": 0.023255813953483084,
          "durationTicks": 2,
          "midi": 45,
          "name": "A2",
          "ticks": 17638,
          "time": 205.09302325581396,
          "velocity": 0.4251968503937008
        },
        {
          "duration": 0.15116279069766847,
          "durationTicks": 13,
          "midi": 57,
          "name": "A3",
          "ticks": 17638,
          "time": 205.09302325581396,
          "velocity": 0.4566929133858268
        },
        {
          "duration": 0.023255813953483084,
          "durationTicks": 2,
          "midi": 64,
          "name": "E4",
          "ticks": 17638,
          "time": 205.09302325581396,
          "velocity": 0.3543307086614173
        },
        {
          "duration": 0.12790697674418539,
          "durationTicks": 11,
          "midi": 77,
          "name": "F5",
          "ticks": 17639,
          "time": 205.1046511627907,
          "velocity": 0.2283464566929134
        },
        {
          "duration": 0.023255813953483084,
          "durationTicks": 2,
          "midi": 44,
          "name": "G#2",
          "ticks": 17640,
          "time": 205.11627906976744,
          "velocity": 0.3937007874015748
        },
        {
          "duration": 0.11627906976744384,
          "durationTicks": 10,
          "midi": 50,
          "name": "D3",
          "ticks": 17640,
          "time": 205.11627906976744,
          "velocity": 0.3700787401574803
        },
        {
          "duration": 0.1046511627907023,
          "durationTicks": 9,
          "midi": 65,
          "name": "F4",
          "ticks": 17640,
          "time": 205.11627906976744,
          "velocity": 0.4015748031496063
        },
        {
          "duration": 0.08139534883721922,
          "durationTicks": 7,
          "midi": 74,
          "name": "D5",
          "ticks": 17640,
          "time": 205.11627906976744,
          "velocity": 0.1968503937007874
        },
        {
          "duration": 0.1046511627907023,
          "durationTicks": 9,
          "midi": 97,
          "name": "C#7",
          "ticks": 17642,
          "time": 205.13953488372093,
          "velocity": 0.07086614173228346
        },
        {
          "duration": 0.023255813953483084,
          "durationTicks": 2,
          "midi": 43,
          "name": "G2",
          "ticks": 17650,
          "time": 205.2325581395349,
          "velocity": 0.25984251968503935
        },
        {
          "duration": 0.15116279069766847,
          "durationTicks": 13,
          "midi": 65,
          "name": "F4",
          "ticks": 17651,
          "time": 205.24418604651163,
          "velocity": 0.3858267716535433
        },
        {
          "duration": 0.12790697674418539,
          "durationTicks": 11,
          "midi": 89,
          "name": "F6",
          "ticks": 17651,
          "time": 205.24418604651163,
          "velocity": 0.2047244094488189
        },
        {
          "duration": 0.11627906976744384,
          "durationTicks": 10,
          "midi": 97,
          "name": "C#7",
          "ticks": 17653,
          "time": 205.2674418604651,
          "velocity": 0.11811023622047244
        },
        {
          "duration": 0.06976744186047767,
          "durationTicks": 6,
          "midi": 50,
          "name": "D3",
          "ticks": 17654,
          "time": 205.27906976744185,
          "velocity": 0.14960629921259844
        },
        {
          "duration": 0.13953488372092693,
          "durationTicks": 12,
          "midi": 57,
          "name": "A3",
          "ticks": 17660,
          "time": 205.34883720930233,
          "velocity": 0.4094488188976378
        },
        {
          "duration": 0.034883720930224626,
          "durationTicks": 3,
          "midi": 44,
          "name": "G#2",
          "ticks": 17661,
          "time": 205.36046511627907,
          "velocity": 0.41732283464566927
        },
        {
          "duration": 0.16279069767441,
          "durationTicks": 14,
          "midi": 62,
          "name": "D4",
          "ticks": 17661,
          "time": 205.36046511627907,
          "velocity": 0.33070866141732286
        },
        {
          "duration": 0.09302325581396076,
          "durationTicks": 8,
          "midi": 50,
          "name": "D3",
          "ticks": 17663,
          "time": 205.38372093023256,
          "velocity": 0.4015748031496063
        },
        {
          "duration": 0.04651162790696617,
          "durationTicks": 4,
          "midi": 50,
          "name": "D3",
          "ticks": 17672,
          "time": 205.48837209302326,
          "velocity": 0.4251968503937008
        },
        {
          "duration": 0.023255813953483084,
          "durationTicks": 2,
          "midi": 55,
          "name": "G3",
          "ticks": 17672,
          "time": 205.48837209302326,
          "velocity": 0.4015748031496063
        },
        {
          "duration": 0.15116279069766847,
          "durationTicks": 13,
          "midi": 77,
          "name": "F5",
          "ticks": 17672,
          "time": 205.48837209302326,
          "velocity": 0.2440944881889764
        },
        {
          "duration": 0.12790697674418539,
          "durationTicks": 11,
          "midi": 65,
          "name": "F4",
          "ticks": 17673,
          "time": 205.5,
          "velocity": 0.3779527559055118
        },
        {
          "duration": 0.12790697674418539,
          "durationTicks": 11,
          "midi": 97,
          "name": "C#7",
          "ticks": 17674,
          "time": 205.51162790697674,
          "velocity": 0.1968503937007874
        },
        {
          "duration": 0.16279069767441,
          "durationTicks": 14,
          "midi": 69,
          "name": "A4",
          "ticks": 17675,
          "time": 205.52325581395348,
          "velocity": 0.33070866141732286
        },
        {
          "duration": 0.08139534883721922,
          "durationTicks": 7,
          "midi": 57,
          "name": "A3",
          "ticks": 17677,
          "time": 205.54651162790697,
          "velocity": 0.2440944881889764
        },
        {
          "duration": 0.06976744186044925,
          "durationTicks": 6,
          "midi": 45,
          "name": "A2",
          "ticks": 17679,
          "time": 205.56976744186048,
          "velocity": 0.4015748031496063
        },
        {
          "duration": 0.04651162790696617,
          "durationTicks": 4,
          "midi": 56,
          "name": "G#3",
          "ticks": 17684,
          "time": 205.62790697674419,
          "velocity": 0.30708661417322836
        },
        {
          "duration": 0.034883720930224626,
          "durationTicks": 3,
          "midi": 64,
          "name": "E4",
          "ticks": 17684,
          "time": 205.62790697674419,
          "velocity": 0.30708661417322836
        },
        {
          "duration": 0.034883720930224626,
          "durationTicks": 3,
          "midi": 61,
          "name": "C#4",
          "ticks": 17685,
          "time": 205.63953488372093,
          "velocity": 0.1889763779527559
        },
        {
          "duration": 0.04651162790699459,
          "durationTicks": 4,
          "midi": 43,
          "name": "G2",
          "ticks": 17686,
          "time": 205.65116279069767,
          "velocity": 0.36220472440944884
        },
        {
          "duration": 0.06976744186047767,
          "durationTicks": 6,
          "midi": 57,
          "name": "A3",
          "ticks": 17688,
          "time": 205.67441860465115,
          "velocity": 0.28346456692913385
        },
        {
          "duration": 0.06976744186047767,
          "durationTicks": 6,
          "midi": 62,
          "name": "D4",
          "ticks": 17688,
          "time": 205.67441860465115,
          "velocity": 0.16535433070866143
        },
        {
          "duration": 0.034883720930224626,
          "durationTicks": 3,
          "midi": 50,
          "name": "D3",
          "ticks": 17690,
          "time": 205.69767441860466,
          "velocity": 0.07086614173228346
        },
        {
          "duration": 0.22093023255814614,
          "durationTicks": 19,
          "midi": 65,
          "name": "F4",
          "ticks": 17694,
          "time": 205.74418604651163,
          "velocity": 0.3779527559055118
        },
        {
          "duration": 0.09302325581396076,
          "durationTicks": 8,
          "midi": 74,
          "name": "D5",
          "ticks": 17695,
          "time": 205.75581395348837,
          "velocity": 0.25196850393700787
        },
        {
          "duration": 0.05813953488373613,
          "durationTicks": 5,
          "midi": 103,
          "name": "G7",
          "ticks": 17696,
          "time": 205.7674418604651,
          "velocity": 0.13385826771653545
        },
        {
          "duration": 0.09302325581396076,
          "durationTicks": 8,
          "midi": 45,
          "name": "A2",
          "ticks": 17697,
          "time": 205.77906976744185,
          "velocity": 0.3700787401574803
        },
        {
          "duration": 0.19767441860466306,
          "durationTicks": 17,
          "midi": 97,
          "name": "C#7",
          "ticks": 17697,
          "time": 205.77906976744185,
          "velocity": 0.15748031496062992
        },
        {
          "duration": 0.023255813953511506,
          "durationTicks": 2,
          "midi": 62,
          "name": "D4",
          "ticks": 17699,
          "time": 205.80232558139534,
          "velocity": 0.2677165354330709
        },
        {
          "duration": 0.12790697674418539,
          "durationTicks": 11,
          "midi": 57,
          "name": "A3",
          "ticks": 17705,
          "time": 205.87209302325581,
          "velocity": 0.23622047244094488
        },
        {
          "duration": 0.04651162790696617,
          "durationTicks": 4,
          "midi": 62,
          "name": "D4",
          "ticks": 17705,
          "time": 205.87209302325581,
          "velocity": 0.2047244094488189
        },
        {
          "duration": 0.13953488372092693,
          "durationTicks": 12,
          "midi": 50,
          "name": "D3",
          "ticks": 17706,
          "time": 205.88372093023256,
          "velocity": 0.31496062992125984
        },
        {
          "duration": 0.023255813953483084,
          "durationTicks": 2,
          "midi": 64,
          "name": "E4",
          "ticks": 17713,
          "time": 205.96511627906978,
          "velocity": 0.2992125984251969
        },
        {
          "duration": 0.023255813953483084,
          "durationTicks": 2,
          "midi": 59,
          "name": "B3",
          "ticks": 17716,
          "time": 206,
          "velocity": 0.2283464566929134
        },
        {
          "duration": 0.023255813953483084,
          "durationTicks": 2,
          "midi": 65,
          "name": "F4",
          "ticks": 17717,
          "time": 206.01162790697674,
          "velocity": 0.33858267716535434
        },
        {
          "duration": 0.11627906976744384,
          "durationTicks": 10,
          "midi": 74,
          "name": "D5",
          "ticks": 17717,
          "time": 206.01162790697674,
          "velocity": 0.28346456692913385
        },
        {
          "duration": 0.11627906976744384,
          "durationTicks": 10,
          "midi": 88,
          "name": "E6",
          "ticks": 17717,
          "time": 206.01162790697674,
          "velocity": 0.1732283464566929
        },
        {
          "duration": 0.023255813953483084,
          "durationTicks": 2,
          "midi": 49,
          "name": "C#3",
          "ticks": 17718,
          "time": 206.02325581395348,
          "velocity": 0.36220472440944884
        },
        {
          "duration": 0.11627906976744384,
          "durationTicks": 10,
          "midi": 57,
          "name": "A3",
          "ticks": 17718,
          "time": 206.02325581395348,
          "velocity": 0.44881889763779526
        },
        {
          "duration": 0.08139534883721922,
          "durationTicks": 7,
          "midi": 92,
          "name": "G#6",
          "ticks": 17718,
          "time": 206.02325581395348,
          "velocity": 0.11811023622047244
        },
        {
          "duration": 0.1046511627907023,
          "durationTicks": 9,
          "midi": 64,
          "name": "E4",
          "ticks": 17719,
          "time": 206.03488372093022,
          "velocity": 0.4330708661417323
        },
        {
          "duration": 0.08139534883721922,
          "durationTicks": 7,
          "midi": 67,
          "name": "G4",
          "ticks": 17719,
          "time": 206.03488372093022,
          "velocity": 0.2677165354330709
        },
        {
          "duration": 0.04651162790696617,
          "durationTicks": 4,
          "midi": 50,
          "name": "D3",
          "ticks": 17722,
          "time": 206.06976744186048,
          "velocity": 0.2992125984251969
        },
        {
          "duration": 0.11627906976744384,
          "durationTicks": 10,
          "midi": 62,
          "name": "D4",
          "ticks": 17729,
          "time": 206.15116279069767,
          "velocity": 0.2283464566929134
        },
        {
          "duration": 0.04651162790699459,
          "durationTicks": 4,
          "midi": 56,
          "name": "G#3",
          "ticks": 17730,
          "time": 206.1627906976744,
          "velocity": 0.2283464566929134
        },
        {
          "duration": 0.05813953488373613,
          "durationTicks": 5,
          "midi": 42,
          "name": "F#2",
          "ticks": 17731,
          "time": 206.17441860465115,
          "velocity": 0.2992125984251969
        },
        {
          "duration": 0.04651162790696617,
          "durationTicks": 4,
          "midi": 57,
          "name": "A3",
          "ticks": 17734,
          "time": 206.2093023255814,
          "velocity": 0.08661417322834646
        },
        {
          "duration": 0.22093023255814614,
          "durationTicks": 19,
          "midi": 64,
          "name": "E4",
          "ticks": 17740,
          "time": 206.27906976744185,
          "velocity": 0.41732283464566927
        },
        {
          "duration": 0.1046511627907023,
          "durationTicks": 9,
          "midi": 74,
          "name": "D5",
          "ticks": 17740,
          "time": 206.27906976744185,
          "velocity": 0.15748031496062992
        },
        {
          "duration": 0.19767441860466306,
          "durationTicks": 17,
          "midi": 88,
          "name": "E6",
          "ticks": 17740,
          "time": 206.27906976744185,
          "velocity": 0.23622047244094488
        },
        {
          "duration": 0.12790697674418539,
          "durationTicks": 11,
          "midi": 92,
          "name": "G#6",
          "ticks": 17740,
          "time": 206.27906976744185,
          "velocity": 0.15748031496062992
        },
        {
          "duration": 0.023255813953511506,
          "durationTicks": 2,
          "midi": 45,
          "name": "A2",
          "ticks": 17742,
          "time": 206.30232558139534,
          "velocity": 0.3543307086614173
        },
        {
          "duration": 0.03488372093025305,
          "durationTicks": 3,
          "midi": 55,
          "name": "G3",
          "ticks": 17742,
          "time": 206.30232558139534,
          "velocity": 0.41732283464566927
        },
        {
          "duration": 0.04651162790696617,
          "durationTicks": 4,
          "midi": 95,
          "name": "B6",
          "ticks": 17743,
          "time": 206.3139534883721,
          "velocity": 0.07874015748031496
        },
        {
          "duration": 0.06976744186044925,
          "durationTicks": 6,
          "midi": 57,
          "name": "A3",
          "ticks": 17745,
          "time": 206.3372093023256,
          "velocity": 0.3543307086614173
        },
        {
          "duration": 0.04651162790696617,
          "durationTicks": 4,
          "midi": 50,
          "name": "D3",
          "ticks": 17746,
          "time": 206.34883720930233,
          "velocity": 0.33070866141732286
        },
        {
          "duration": 0.023255813953483084,
          "durationTicks": 2,
          "midi": 45,
          "name": "A2",
          "ticks": 17748,
          "time": 206.37209302325581,
          "velocity": 0.2755905511811024
        },
        {
          "duration": 0.023255813953483084,
          "durationTicks": 2,
          "midi": 55,
          "name": "G3",
          "ticks": 17751,
          "time": 206.40697674418604,
          "velocity": 0.2992125984251969
        },
        {
          "duration": 0.12790697674418539,
          "durationTicks": 11,
          "midi": 50,
          "name": "D3",
          "ticks": 17753,
          "time": 206.43023255813952,
          "velocity": 0.3937007874015748
        },
        {
          "duration": 0.04651162790696617,
          "durationTicks": 4,
          "midi": 57,
          "name": "A3",
          "ticks": 17755,
          "time": 206.45348837209303,
          "velocity": 0.1889763779527559
        },
        {
          "duration": 0.023255813953483084,
          "durationTicks": 2,
          "midi": 66,
          "name": "F#4",
          "ticks": 17759,
          "time": 206.5,
          "velocity": 0.23622047244094488
        },
        {
          "duration": 0.023255813953483084,
          "durationTicks": 2,
          "midi": 45,
          "name": "A2",
          "ticks": 17762,
          "time": 206.53488372093022,
          "velocity": 0.3543307086614173
        },
        {
          "duration": 0.023255813953483084,
          "durationTicks": 2,
          "midi": 61,
          "name": "C#4",
          "ticks": 17762,
          "time": 206.53488372093022,
          "velocity": 0.3779527559055118
        },
        {
          "duration": 0.03488372093025305,
          "durationTicks": 3,
          "midi": 71,
          "name": "B4",
          "ticks": 17762,
          "time": 206.53488372093022,
          "velocity": 0.16535433070866143
        },
        {
          "duration": 0.08139534883721922,
          "durationTicks": 7,
          "midi": 57,
          "name": "A3",
          "ticks": 17764,
          "time": 206.5581395348837,
          "velocity": 0.36220472440944884
        },
        {
          "duration": 0.1046511627907023,
          "durationTicks": 9,
          "midi": 62,
          "name": "D4",
          "ticks": 17764,
          "time": 206.5581395348837,
          "velocity": 0.3228346456692913
        },
        {
          "duration": 0.04651162790696617,
          "durationTicks": 4,
          "midi": 50,
          "name": "D3",
          "ticks": 17765,
          "time": 206.56976744186048,
          "velocity": 0.4015748031496063
        },
        {
          "duration": 0.034883720930224626,
          "durationTicks": 3,
          "midi": 50,
          "name": "D3",
          "ticks": 17770,
          "time": 206.62790697674419,
          "velocity": 0.3858267716535433
        },
        {
          "duration": 0.1046511627907023,
          "durationTicks": 9,
          "midi": 64,
          "name": "E4",
          "ticks": 17773,
          "time": 206.6627906976744,
          "velocity": 0.2755905511811024
        },
        {
          "duration": 0.023255813953511506,
          "durationTicks": 2,
          "midi": 45,
          "name": "A2",
          "ticks": 17774,
          "time": 206.67441860465115,
          "velocity": 0.4251968503937008
        },
        {
          "duration": 0.08139534883721922,
          "durationTicks": 7,
          "midi": 57,
          "name": "A3",
          "ticks": 17774,
          "time": 206.67441860465115,
          "velocity": 0.49606299212598426
        },
        {
          "duration": 0.09302325581396076,
          "durationTicks": 8,
          "midi": 74,
          "name": "D5",
          "ticks": 17774,
          "time": 206.67441860465115,
          "velocity": 0.16535433070866143
        },
        {
          "duration": 0.023255813953483084,
          "durationTicks": 2,
          "midi": 44,
          "name": "G#2",
          "ticks": 17776,
          "time": 206.69767441860466,
          "velocity": 0.3937007874015748
        },
        {
          "duration": 0.06976744186044925,
          "durationTicks": 6,
          "midi": 45,
          "name": "A2",
          "ticks": 17778,
          "time": 206.72093023255815,
          "velocity": 0.33858267716535434
        },
        {
          "duration": 0.023255813953483084,
          "durationTicks": 2,
          "midi": 50,
          "name": "D3",
          "ticks": 17780,
          "time": 206.74418604651163,
          "velocity": 0.2755905511811024
        },
        {
          "duration": 0.05813953488373613,
          "durationTicks": 5,
          "midi": 57,
          "name": "A3",
          "ticks": 17782,
          "time": 206.7674418604651,
          "velocity": 0.3779527559055118
        },
        {
          "duration": 0.03488372093025305,
          "durationTicks": 3,
          "midi": 74,
          "name": "D5",
          "ticks": 17785,
          "time": 206.80232558139534,
          "velocity": 0.2204724409448819
        },
        {
          "duration": 0.04651162790696617,
          "durationTicks": 4,
          "midi": 42,
          "name": "F#2",
          "ticks": 17786,
          "time": 206.8139534883721,
          "velocity": 0.2283464566929134
        },
        {
          "duration": 0.034883720930224626,
          "durationTicks": 3,
          "midi": 89,
          "name": "F6",
          "ticks": 17786,
          "time": 206.8139534883721,
          "velocity": 0.13385826771653545
        },
        {
          "duration": 0.10465116279067388,
          "durationTicks": 9,
          "midi": 50,
          "name": "D3",
          "ticks": 17787,
          "time": 206.82558139534885,
          "velocity": 0.30708661417322836
        },
        {
          "duration": 0.04651162790696617,
          "durationTicks": 4,
          "midi": 56,
          "name": "G#3",
          "ticks": 17787,
          "time": 206.82558139534885,
          "velocity": 0.28346456692913385
        },
        {
          "duration": 0.023255813953483084,
          "durationTicks": 2,
          "midi": 61,
          "name": "C#4",
          "ticks": 17787,
          "time": 206.82558139534885,
          "velocity": 0.2283464566929134
        },
        {
          "duration": 0.12790697674418539,
          "durationTicks": 11,
          "midi": 74,
          "name": "D5",
          "ticks": 17789,
          "time": 206.84883720930233,
          "velocity": 0.12598425196850394
        },
        {
          "duration": 0.04651162790696617,
          "durationTicks": 4,
          "midi": 64,
          "name": "E4",
          "ticks": 17790,
          "time": 206.86046511627907,
          "velocity": 0.2677165354330709
        },
        {
          "duration": 0.034883720930224626,
          "durationTicks": 3,
          "midi": 55,
          "name": "G3",
          "ticks": 17791,
          "time": 206.87209302325581,
          "velocity": 0.2440944881889764
        },
        {
          "duration": 0.1046511627907023,
          "durationTicks": 9,
          "midi": 62,
          "name": "D4",
          "ticks": 17792,
          "time": 206.88372093023256,
          "velocity": 0.3858267716535433
        },
        {
          "duration": 0.023255813953511506,
          "durationTicks": 2,
          "midi": 42,
          "name": "F#2",
          "ticks": 17796,
          "time": 206.93023255813952,
          "velocity": 0.3779527559055118
        },
        {
          "duration": 0.25581395348837077,
          "durationTicks": 22,
          "midi": 77,
          "name": "F5",
          "ticks": 17796,
          "time": 206.93023255813952,
          "velocity": 0.2283464566929134
        },
        {
          "duration": 0.2441860465116008,
          "durationTicks": 21,
          "midi": 55,
          "name": "G3",
          "ticks": 17797,
          "time": 206.9418604651163,
          "velocity": 0.4645669291338583
        },
        {
          "duration": 0.2441860465116008,
          "durationTicks": 21,
          "midi": 65,
          "name": "F4",
          "ticks": 17797,
          "time": 206.9418604651163,
          "velocity": 0.33858267716535434
        },
        {
          "duration": 0.25581395348837077,
          "durationTicks": 22,
          "midi": 69,
          "name": "A4",
          "ticks": 17798,
          "time": 206.95348837209303,
          "velocity": 0.31496062992125984
        },
        {
          "duration": 0.22093023255814614,
          "durationTicks": 19,
          "midi": 97,
          "name": "C#7",
          "ticks": 17800,
          "time": 206.97674418604652,
          "velocity": 0.11023622047244094
        },
        {
          "duration": 0.06976744186044925,
          "durationTicks": 6,
          "midi": 103,
          "name": "G7",
          "ticks": 17800,
          "time": 206.97674418604652,
          "velocity": 0.11023622047244094
        },
        {
          "duration": 0.023255813953483084,
          "durationTicks": 2,
          "midi": 43,
          "name": "G2",
          "ticks": 17801,
          "time": 206.98837209302326,
          "velocity": 0.3700787401574803
        },
        {
          "duration": 0.17441860465115155,
          "durationTicks": 15,
          "midi": 62,
          "name": "D4",
          "ticks": 17803,
          "time": 207.01162790697674,
          "velocity": 0.28346456692913385
        },
        {
          "duration": 0.023255813953511506,
          "durationTicks": 2,
          "midi": 54,
          "name": "F#3",
          "ticks": 17818,
          "time": 207.1860465116279,
          "velocity": 0.4094488188976378
        },
        {
          "duration": 0.023255813953511506,
          "durationTicks": 2,
          "midi": 61,
          "name": "C#4",
          "ticks": 17818,
          "time": 207.1860465116279,
          "velocity": 0.2755905511811024
        },
        {
          "duration": 0.023255813953483084,
          "durationTicks": 2,
          "midi": 64,
          "name": "E4",
          "ticks": 17819,
          "time": 207.19767441860466,
          "velocity": 0.33070866141732286
        },
        {
          "duration": 0.3953488372092977,
          "durationTicks": 34,
          "midi": 55,
          "name": "G3",
          "ticks": 17820,
          "time": 207.2093023255814,
          "velocity": 0.4566929133858268
        },
        {
          "duration": 0.06976744186044925,
          "durationTicks": 6,
          "midi": 74,
          "name": "D5",
          "ticks": 17820,
          "time": 207.2093023255814,
          "velocity": 0.14960629921259844
        },
        {
          "duration": 0.25581395348837077,
          "durationTicks": 22,
          "midi": 77,
          "name": "F5",
          "ticks": 17820,
          "time": 207.2093023255814,
          "velocity": 0.2125984251968504
        },
        {
          "duration": 0.023255813953483084,
          "durationTicks": 2,
          "midi": 42,
          "name": "F#2",
          "ticks": 17821,
          "time": 207.22093023255815,
          "velocity": 0.3937007874015748
        },
        {
          "duration": 0.24418604651162923,
          "durationTicks": 21,
          "midi": 65,
          "name": "F4",
          "ticks": 17821,
          "time": 207.22093023255815,
          "velocity": 0.3543307086614173
        },
        {
          "duration": 0.023255813953483084,
          "durationTicks": 2,
          "midi": 62,
          "name": "D4",
          "ticks": 17822,
          "time": 207.2325581395349,
          "velocity": 0.2755905511811024
        },
        {
          "duration": 0.1046511627907023,
          "durationTicks": 9,
          "midi": 69,
          "name": "A4",
          "ticks": 17822,
          "time": 207.2325581395349,
          "velocity": 0.1889763779527559
        },
        {
          "duration": 0.034883720930224626,
          "durationTicks": 3,
          "midi": 72,
          "name": "C5",
          "ticks": 17822,
          "time": 207.2325581395349,
          "velocity": 0.08661417322834646
        },
        {
          "duration": 0.023255813953483084,
          "durationTicks": 2,
          "midi": 62,
          "name": "D4",
          "ticks": 17825,
          "time": 207.2674418604651,
          "velocity": 0.2677165354330709
        },
        {
          "duration": 0.30232558139536536,
          "durationTicks": 26,
          "midi": 62,
          "name": "D4",
          "ticks": 17828,
          "time": 207.30232558139534,
          "velocity": 0.33070866141732286
        },
        {
          "duration": 0.023255813953483084,
          "durationTicks": 2,
          "midi": 43,
          "name": "G2",
          "ticks": 17829,
          "time": 207.3139534883721,
          "velocity": 0.41732283464566927
        },
        {
          "duration": 0.06976744186044925,
          "durationTicks": 6,
          "midi": 42,
          "name": "F#2",
          "ticks": 17832,
          "time": 207.34883720930233,
          "velocity": 0.36220472440944884
        },
        {
          "duration": 0.15116279069766847,
          "durationTicks": 13,
          "midi": 69,
          "name": "A4",
          "ticks": 17833,
          "time": 207.36046511627907,
          "velocity": 0.30708661417322836
        },
        {
          "duration": 0.05813953488373613,
          "durationTicks": 5,
          "midi": 50,
          "name": "D3",
          "ticks": 17836,
          "time": 207.3953488372093,
          "velocity": 0.2283464566929134
        },
        {
          "duration": 0.023255813953483084,
          "durationTicks": 2,
          "midi": 43,
          "name": "G2",
          "ticks": 17841,
          "time": 207.45348837209303,
          "velocity": 0.3700787401574803
        },
        {
          "duration": 0.023255813953483084,
          "durationTicks": 2,
          "midi": 43,
          "name": "G2",
          "ticks": 17852,
          "time": 207.58139534883722,
          "velocity": 0.3858267716535433
        },
        {
          "duration": 0.16279069767441,
          "durationTicks": 14,
          "midi": 69,
          "name": "A4",
          "ticks": 17853,
          "time": 207.59302325581396,
          "velocity": 0.2992125984251969
        },
        {
          "duration": 0.09302325581393234,
          "durationTicks": 8,
          "midi": 72,
          "name": "C5",
          "ticks": 17853,
          "time": 207.59302325581396,
          "velocity": 0.14960629921259844
        },
        {
          "duration": 0.05813953488370771,
          "durationTicks": 5,
          "midi": 60,
          "name": "C4",
          "ticks": 17854,
          "time": 207.6046511627907,
          "velocity": 0.36220472440944884
        },
        {
          "duration": 0.12790697674418539,
          "durationTicks": 11,
          "midi": 65,
          "name": "F4",
          "ticks": 17854,
          "time": 207.6046511627907,
          "velocity": 0.36220472440944884
        },
        {
          "duration": 0.04651162790696617,
          "durationTicks": 4,
          "midi": 103,
          "name": "G7",
          "ticks": 17854,
          "time": 207.6046511627907,
          "velocity": 0.11023622047244094
        },
        {
          "duration": 0.2325581395348877,
          "durationTicks": 20,
          "midi": 55,
          "name": "G3",
          "ticks": 17855,
          "time": 207.61627906976744,
          "velocity": 0.5118110236220472
        },
        {
          "duration": 0.04651162790696617,
          "durationTicks": 4,
          "midi": 74,
          "name": "D5",
          "ticks": 17856,
          "time": 207.62790697674419,
          "velocity": 0.09448818897637795
        },
        {
          "duration": 0.023255813953483084,
          "durationTicks": 2,
          "midi": 44,
          "name": "G#2",
          "ticks": 17858,
          "time": 207.65116279069767,
          "velocity": 0.30708661417322836
        },
        {
          "duration": 0.034883720930224626,
          "durationTicks": 3,
          "midi": 61,
          "name": "C#4",
          "ticks": 17864,
          "time": 207.72093023255815,
          "velocity": 0.2125984251968504
        },
        {
          "duration": 0.034883720930224626,
          "durationTicks": 3,
          "midi": 64,
          "name": "E4",
          "ticks": 17865,
          "time": 207.7325581395349,
          "velocity": 0.28346456692913385
        },
        {
          "duration": 0.023255813953483084,
          "durationTicks": 2,
          "midi": 42,
          "name": "F#2",
          "ticks": 17866,
          "time": 207.74418604651163,
          "velocity": 0.31496062992125984
        },
        {
          "duration": 0.05813953488373613,
          "durationTicks": 5,
          "midi": 41,
          "name": "F2",
          "ticks": 17868,
          "time": 207.7674418604651,
          "velocity": 0.2992125984251969
        },
        {
          "duration": 0.09302325581396076,
          "durationTicks": 8,
          "midi": 62,
          "name": "D4",
          "ticks": 17868,
          "time": 207.7674418604651,
          "velocity": 0.3228346456692913
        },
        {
          "duration": 0.05813953488373613,
          "durationTicks": 5,
          "midi": 50,
          "name": "D3",
          "ticks": 17870,
          "time": 207.7906976744186,
          "velocity": 0.2047244094488189
        },
        {
          "duration": 0.034883720930224626,
          "durationTicks": 3,
          "midi": 42,
          "name": "F#2",
          "ticks": 17873,
          "time": 207.82558139534885,
          "velocity": 0.18110236220472442
        },
        {
          "duration": 0.24418604651162923,
          "durationTicks": 21,
          "midi": 88,
          "name": "E6",
          "ticks": 17875,
          "time": 207.84883720930233,
          "velocity": 0.16535433070866143
        },
        {
          "duration": 0.25581395348837077,
          "durationTicks": 22,
          "midi": 55,
          "name": "G3",
          "ticks": 17876,
          "time": 207.86046511627907,
          "velocity": 0.5196850393700787
        },
        {
          "duration": 0.27906976744185386,
          "durationTicks": 24,
          "midi": 64,
          "name": "E4",
          "ticks": 17876,
          "time": 207.86046511627907,
          "velocity": 0.3937007874015748
        },
        {
          "duration": 0.023255813953483084,
          "durationTicks": 2,
          "midi": 68,
          "name": "G#4",
          "ticks": 17876,
          "time": 207.86046511627907,
          "velocity": 0.23622047244094488
        },
        {
          "duration": 0.1860465116278931,
          "durationTicks": 16,
          "midi": 92,
          "name": "G#6",
          "ticks": 17876,
          "time": 207.86046511627907,
          "velocity": 0.13385826771653545
        },
        {
          "duration": 0.023255813953483084,
          "durationTicks": 2,
          "midi": 61,
          "name": "C#4",
          "ticks": 17877,
          "time": 207.87209302325581,
          "velocity": 0.2992125984251969
        },
        {
          "duration": 0.09302325581396076,
          "durationTicks": 8,
          "midi": 72,
          "name": "C5",
          "ticks": 17877,
          "time": 207.87209302325581,
          "velocity": 0.2755905511811024
        },
        {
          "duration": 0.1046511627907023,
          "durationTicks": 9,
          "midi": 98,
          "name": "D7",
          "ticks": 17877,
          "time": 207.87209302325581,
          "velocity": 0.07874015748031496
        },
        {
          "duration": 0.023255813953483084,
          "durationTicks": 2,
          "midi": 45,
          "name": "A2",
          "ticks": 17878,
          "time": 207.88372093023256,
          "velocity": 0.3700787401574803
        },
        {
          "duration": 0.06976744186047767,
          "durationTicks": 6,
          "midi": 60,
          "name": "C4",
          "ticks": 17879,
          "time": 207.8953488372093,
          "velocity": 0.2755905511811024
        },
        {
          "duration": 0.023255813953511506,
          "durationTicks": 2,
          "midi": 43,
          "name": "G2",
          "ticks": 17882,
          "time": 207.93023255813952,
          "velocity": 0.31496062992125984
        },
        {
          "duration": 0.023255813953483084,
          "durationTicks": 2,
          "midi": 43,
          "name": "G2",
          "ticks": 17888,
          "time": 208,
          "velocity": 0.3543307086614173
        },
        {
          "duration": 0.023255813953483084,
          "durationTicks": 2,
          "midi": 43,
          "name": "G2",
          "ticks": 17896,
          "time": 208.09302325581396,
          "velocity": 0.3543307086614173
        },
        {
          "duration": 0.09302325581396076,
          "durationTicks": 8,
          "midi": 72,
          "name": "C5",
          "ticks": 17898,
          "time": 208.11627906976744,
          "velocity": 0.1968503937007874
        },
        {
          "duration": 0.06976744186047767,
          "durationTicks": 6,
          "midi": 89,
          "name": "F6",
          "ticks": 17899,
          "time": 208.12790697674419,
          "velocity": 0.16535433070866143
        },
        {
          "duration": 0.13953488372092693,
          "durationTicks": 12,
          "midi": 55,
          "name": "G3",
          "ticks": 17900,
          "time": 208.13953488372093,
          "velocity": 0.47244094488188976
        },
        {
          "duration": 0.06976744186047767,
          "durationTicks": 6,
          "midi": 65,
          "name": "F4",
          "ticks": 17900,
          "time": 208.13953488372093,
          "velocity": 0.3700787401574803
        },
        {
          "duration": 0.034883720930224626,
          "durationTicks": 3,
          "midi": 103,
          "name": "G7",
          "ticks": 17900,
          "time": 208.13953488372093,
          "velocity": 0.07874015748031496
        },
        {
          "duration": 0.1046511627907023,
          "durationTicks": 9,
          "midi": 69,
          "name": "A4",
          "ticks": 17901,
          "time": 208.15116279069767,
          "velocity": 0.30708661417322836
        },
        {
          "duration": 0.08139534883721922,
          "durationTicks": 7,
          "midi": 43,
          "name": "G2",
          "ticks": 17902,
          "time": 208.1627906976744,
          "velocity": 0.4015748031496063
        },
        {
          "duration": 0.06976744186044925,
          "durationTicks": 6,
          "midi": 64,
          "name": "E4",
          "ticks": 17906,
          "time": 208.2093023255814,
          "velocity": 0.31496062992125984
        },
        {
          "duration": 0.05813953488370771,
          "durationTicks": 5,
          "midi": 42,
          "name": "F#2",
          "ticks": 17909,
          "time": 208.24418604651163,
          "velocity": 0.3779527559055118
        },
        {
          "duration": 0.03488372093025305,
          "durationTicks": 3,
          "midi": 55,
          "name": "G3",
          "ticks": 17914,
          "time": 208.30232558139534,
          "velocity": 0.08661417322834646
        },
        {
          "duration": 0.13953488372092693,
          "durationTicks": 12,
          "midi": 55,
          "name": "G3",
          "ticks": 17920,
          "time": 208.37209302325581,
          "velocity": 0.4645669291338583
        },
        {
          "duration": 0.24418604651162923,
          "durationTicks": 21,
          "midi": 86,
          "name": "D6",
          "ticks": 17921,
          "time": 208.38372093023256,
          "velocity": 0.2677165354330709
        },
        {
          "duration": 0.2093023255814046,
          "durationTicks": 18,
          "midi": 102,
          "name": "F#7",
          "ticks": 17921,
          "time": 208.38372093023256,
          "velocity": 0.2047244094488189
        },
        {
          "duration": 0.22093023255814614,
          "durationTicks": 19,
          "midi": 74,
          "name": "D5",
          "ticks": 17922,
          "time": 208.3953488372093,
          "velocity": 0.3858267716535433
        },
        {
          "duration": 0.04651162790699459,
          "durationTicks": 4,
          "midi": 72,
          "name": "C5",
          "ticks": 17924,
          "time": 208.41860465116278,
          "velocity": 0.11023622047244094
        },
        {
          "duration": 0.04651162790696617,
          "durationTicks": 4,
          "midi": 43,
          "name": "G2",
          "ticks": 17927,
          "time": 208.45348837209303,
          "velocity": 0.3858267716535433
        },
        {
          "duration": 0.034883720930224626,
          "durationTicks": 3,
          "midi": 44,
          "name": "G#2",
          "ticks": 17931,
          "time": 208.5,
          "velocity": 0.4015748031496063
        },
        {
          "duration": 0.11627906976744384,
          "durationTicks": 10,
          "midi": 60,
          "name": "C4",
          "ticks": 17932,
          "time": 208.51162790697674,
          "velocity": 0.31496062992125984
        },
        {
          "duration": 0.023255813953483084,
          "durationTicks": 2,
          "midi": 42,
          "name": "F#2",
          "ticks": 17934,
          "time": 208.53488372093022,
          "velocity": 0.3858267716535433
        },
        {
          "duration": 0.1046511627907023,
          "durationTicks": 9,
          "midi": 55,
          "name": "G3",
          "ticks": 17934,
          "time": 208.53488372093022,
          "velocity": 0.4094488188976378
        },
        {
          "duration": 0.034883720930224626,
          "durationTicks": 3,
          "midi": 43,
          "name": "G2",
          "ticks": 17937,
          "time": 208.56976744186048,
          "velocity": 0.3700787401574803
        },
        {
          "duration": 0.04651162790696617,
          "durationTicks": 4,
          "midi": 74,
          "name": "D5",
          "ticks": 17942,
          "time": 208.62790697674419,
          "velocity": 0.15748031496062992
        },
        {
          "duration": 0.06976744186047767,
          "durationTicks": 6,
          "midi": 69,
          "name": "A4",
          "ticks": 17943,
          "time": 208.63953488372093,
          "velocity": 0.1968503937007874
        },
        {
          "duration": 0.034883720930224626,
          "durationTicks": 3,
          "midi": 72,
          "name": "C5",
          "ticks": 17943,
          "time": 208.63953488372093,
          "velocity": 0.16535433070866143
        },
        {
          "duration": 0.06976744186047767,
          "durationTicks": 6,
          "midi": 55,
          "name": "G3",
          "ticks": 17944,
          "time": 208.65116279069767,
          "velocity": 0.44881889763779526
        },
        {
          "duration": 0.04651162790699459,
          "durationTicks": 4,
          "midi": 103,
          "name": "G7",
          "ticks": 17944,
          "time": 208.65116279069767,
          "velocity": 0.10236220472440945
        },
        {
          "duration": 0.04651162790699459,
          "durationTicks": 4,
          "midi": 48,
          "name": "C3",
          "ticks": 17946,
          "time": 208.67441860465115,
          "velocity": 0.28346456692913385
        },
        {
          "duration": 0.023255813953483084,
          "durationTicks": 2,
          "midi": 55,
          "name": "G3",
          "ticks": 17951,
          "time": 208.7325581395349,
          "velocity": 0.28346456692913385
        },
        {
          "duration": 0.034883720930224626,
          "durationTicks": 3,
          "midi": 56,
          "name": "G#3",
          "ticks": 17953,
          "time": 208.75581395348837,
          "velocity": 0.33858267716535434
        },
        {
          "duration": 0.13953488372092693,
          "durationTicks": 12,
          "midi": 67,
          "name": "G4",
          "ticks": 17953,
          "time": 208.75581395348837,
          "velocity": 0.3779527559055118
        },
        {
          "duration": 0.023255813953483084,
          "durationTicks": 2,
          "midi": 51,
          "name": "D#3",
          "ticks": 17954,
          "time": 208.7674418604651,
          "velocity": 0.33858267716535434
        },
        {
          "duration": 0.034883720930224626,
          "durationTicks": 3,
          "midi": 86,
          "name": "D6",
          "ticks": 17954,
          "time": 208.7674418604651,
          "velocity": 0.08661417322834646
        },
        {
          "duration": 0.05813953488373613,
          "durationTicks": 5,
          "midi": 95,
          "name": "B6",
          "ticks": 17954,
          "time": 208.7674418604651,
          "velocity": 0.10236220472440945
        },
        {
          "duration": 0.023255813953483084,
          "durationTicks": 2,
          "midi": 42,
          "name": "F#2",
          "ticks": 17955,
          "time": 208.77906976744185,
          "velocity": 0.33858267716535434
        },
        {
          "duration": 0.1046511627907023,
          "durationTicks": 9,
          "midi": 60,
          "name": "C4",
          "ticks": 17955,
          "time": 208.77906976744185,
          "velocity": 0.33070866141732286
        },
        {
          "duration": 0.11627906976744384,
          "durationTicks": 10,
          "midi": 91,
          "name": "G6",
          "ticks": 17955,
          "time": 208.77906976744185,
          "velocity": 0.15748031496062992
        },
        {
          "duration": 0.11627906976744384,
          "durationTicks": 10,
          "midi": 55,
          "name": "G3",
          "ticks": 17956,
          "time": 208.7906976744186,
          "velocity": 0.4330708661417323
        },
        {
          "duration": 0.023255813953483084,
          "durationTicks": 2,
          "midi": 42,
          "name": "F#2",
          "ticks": 17958,
          "time": 208.8139534883721,
          "velocity": 0.4015748031496063
        },
        {
          "duration": 0.04651162790696617,
          "durationTicks": 4,
          "midi": 43,
          "name": "G2",
          "ticks": 17961,
          "time": 208.84883720930233,
          "velocity": 0.4251968503937008
        },
        {
          "duration": 0.034883720930224626,
          "durationTicks": 3,
          "midi": 60,
          "name": "C4",
          "ticks": 17965,
          "time": 208.8953488372093,
          "velocity": 0.16535433070866143
        },
        {
          "duration": 0.09302325581396076,
          "durationTicks": 8,
          "midi": 43,
          "name": "G2",
          "ticks": 17966,
          "time": 208.90697674418604,
          "velocity": 0.4015748031496063
        },
        {
          "duration": 0.023255813953483084,
          "durationTicks": 2,
          "midi": 44,
          "name": "G#2",
          "ticks": 17974,
          "time": 209,
          "velocity": 0.3543307086614173
        },
        {
          "duration": 0.2325581395348877,
          "durationTicks": 20,
          "midi": 86,
          "name": "D6",
          "ticks": 17975,
          "time": 209.01162790697674,
          "velocity": 0.2204724409448819
        },
        {
          "duration": 0.023255813953483084,
          "durationTicks": 2,
          "midi": 43,
          "name": "G2",
          "ticks": 17976,
          "time": 209.02325581395348,
          "velocity": 0.4566929133858268
        },
        {
          "duration": 0.034883720930224626,
          "durationTicks": 3,
          "midi": 66,
          "name": "F#4",
          "ticks": 17976,
          "time": 209.02325581395348,
          "velocity": 0.1732283464566929
        },
        {
          "duration": 0.24418604651162923,
          "durationTicks": 21,
          "midi": 74,
          "name": "D5",
          "ticks": 17976,
          "time": 209.02325581395348,
          "velocity": 0.3858267716535433
        },
        {
          "duration": 0.22093023255814614,
          "durationTicks": 19,
          "midi": 102,
          "name": "F#7",
          "ticks": 17976,
          "time": 209.02325581395348,
          "velocity": 0.15748031496062992
        },
        {
          "duration": 0.023255813953511506,
          "durationTicks": 2,
          "midi": 42,
          "name": "F#2",
          "ticks": 17978,
          "time": 209.04651162790697,
          "velocity": 0.4409448818897638
        },
        {
          "duration": 0.023255813953511506,
          "durationTicks": 2,
          "midi": 59,
          "name": "B3",
          "ticks": 17979,
          "time": 209.0581395348837,
          "velocity": 0.2440944881889764
        },
        {
          "duration": 0.06976744186044925,
          "durationTicks": 6,
          "midi": 66,
          "name": "F#4",
          "ticks": 17981,
          "time": 209.08139534883722,
          "velocity": 0.09448818897637795
        },
        {
          "duration": 0.023255813953483084,
          "durationTicks": 2,
          "midi": 43,
          "name": "G2",
          "ticks": 17988,
          "time": 209.1627906976744,
          "velocity": 0.3700787401574803
        },
        {
          "duration": 0.023255813953511506,
          "durationTicks": 2,
          "midi": 44,
          "name": "G#2",
          "ticks": 17990,
          "time": 209.1860465116279,
          "velocity": 0.4566929133858268
        },
        {
          "duration": 0.023255813953483084,
          "durationTicks": 2,
          "midi": 44,
          "name": "G#2",
          "ticks": 17997,
          "time": 209.2674418604651,
          "velocity": 0.4330708661417323
        },
        {
          "duration": 0.13953488372092693,
          "durationTicks": 12,
          "midi": 69,
          "name": "A4",
          "ticks": 17998,
          "time": 209.27906976744185,
          "velocity": 0.3858267716535433
        },
        {
          "duration": 0.04651162790699459,
          "durationTicks": 4,
          "midi": 74,
          "name": "D5",
          "ticks": 17998,
          "time": 209.27906976744185,
          "velocity": 0.18110236220472442
        },
        {
          "duration": 0.13953488372092693,
          "durationTicks": 12,
          "midi": 103,
          "name": "G7",
          "ticks": 17998,
          "time": 209.27906976744185,
          "velocity": 0.25196850393700787
        },
        {
          "duration": 0.1046511627907023,
          "durationTicks": 9,
          "midi": 55,
          "name": "G3",
          "ticks": 17999,
          "time": 209.2906976744186,
          "velocity": 0.33070866141732286
        },
        {
          "duration": 0.12790697674418539,
          "durationTicks": 11,
          "midi": 97,
          "name": "C#7",
          "ticks": 17999,
          "time": 209.2906976744186,
          "velocity": 0.1732283464566929
        },
        {
          "duration": 0.023255813953511506,
          "durationTicks": 2,
          "midi": 59,
          "name": "B3",
          "ticks": 18000,
          "time": 209.30232558139534,
          "velocity": 0.2283464566929134
        },
        {
          "duration": 0.06976744186047767,
          "durationTicks": 6,
          "midi": 66,
          "name": "F#4",
          "ticks": 18000,
          "time": 209.30232558139534,
          "velocity": 0.07874015748031496
        },
        {
          "duration": 0.023255813953483084,
          "durationTicks": 2,
          "midi": 43,
          "name": "G2",
          "ticks": 18005,
          "time": 209.36046511627907,
          "velocity": 0.36220472440944884
        },
        {
          "duration": 0.16279069767443843,
          "durationTicks": 14,
          "midi": 55,
          "name": "G3",
          "ticks": 18009,
          "time": 209.40697674418604,
          "velocity": 0.4015748031496063
        },
        {
          "duration": 0.06976744186047767,
          "durationTicks": 6,
          "midi": 66,
          "name": "F#4",
          "ticks": 18010,
          "time": 209.41860465116278,
          "velocity": 0.12598425196850394
        },
        {
          "duration": 0.11627906976744384,
          "durationTicks": 10,
          "midi": 71,
          "name": "B4",
          "ticks": 18010,
          "time": 209.41860465116278,
          "velocity": 0.2204724409448819
        },
        {
          "duration": 0.023255813953483084,
          "durationTicks": 2,
          "midi": 48,
          "name": "C3",
          "ticks": 18013,
          "time": 209.45348837209303,
          "velocity": 0.36220472440944884
        },
        {
          "duration": 0.06976744186044925,
          "durationTicks": 6,
          "midi": 59,
          "name": "B3",
          "ticks": 18014,
          "time": 209.46511627906978,
          "velocity": 0.33858267716535434
        },
        {
          "duration": 0.04651162790699459,
          "durationTicks": 4,
          "midi": 62,
          "name": "D4",
          "ticks": 18019,
          "time": 209.52325581395348,
          "velocity": 0.11811023622047244
        },
        {
          "duration": 0.023255813953483084,
          "durationTicks": 2,
          "midi": 48,
          "name": "C3",
          "ticks": 18020,
          "time": 209.53488372093022,
          "velocity": 0.33858267716535434
        },
        {
          "duration": 0.11627906976744384,
          "durationTicks": 10,
          "midi": 67,
          "name": "G4",
          "ticks": 18022,
          "time": 209.5581395348837,
          "velocity": 0.4094488188976378
        },
        {
          "duration": 0.034883720930224626,
          "durationTicks": 3,
          "midi": 86,
          "name": "D6",
          "ticks": 18023,
          "time": 209.56976744186048,
          "velocity": 0.08661417322834646
        },
        {
          "duration": 0.0813953488371908,
          "durationTicks": 7,
          "midi": 95,
          "name": "B6",
          "ticks": 18023,
          "time": 209.56976744186048,
          "velocity": 0.15748031496062992
        },
        {
          "duration": 0.023255813953483084,
          "durationTicks": 2,
          "midi": 42,
          "name": "F#2",
          "ticks": 18024,
          "time": 209.58139534883722,
          "velocity": 0.2440944881889764
        },
        {
          "duration": 0.034883720930224626,
          "durationTicks": 3,
          "midi": 91,
          "name": "G6",
          "ticks": 18024,
          "time": 209.58139534883722,
          "velocity": 0.08661417322834646
        },
        {
          "duration": 0.05813953488370771,
          "durationTicks": 5,
          "midi": 50,
          "name": "D3",
          "ticks": 18026,
          "time": 209.6046511627907,
          "velocity": 0.23622047244094488
        },
        {
          "duration": 0.13953488372095535,
          "durationTicks": 12,
          "midi": 55,
          "name": "G3",
          "ticks": 18032,
          "time": 209.67441860465115,
          "velocity": 0.44881889763779526
        },
        {
          "duration": 0.023255813953511506,
          "durationTicks": 2,
          "midi": 62,
          "name": "D4",
          "ticks": 18032,
          "time": 209.67441860465115,
          "velocity": 0.28346456692913385
        },
        {
          "duration": 0.1046511627907023,
          "durationTicks": 9,
          "midi": 83,
          "name": "B5",
          "ticks": 18032,
          "time": 209.67441860465115,
          "velocity": 0.08661417322834646
        },
        {
          "duration": 0.11627906976744384,
          "durationTicks": 10,
          "midi": 87,
          "name": "D#6",
          "ticks": 18032,
          "time": 209.67441860465115,
          "velocity": 0.11811023622047244
        },
        {
          "duration": 0.023255813953511506,
          "durationTicks": 2,
          "midi": 50,
          "name": "D3",
          "ticks": 18033,
          "time": 209.6860465116279,
          "velocity": 0.4094488188976378
        },
        {
          "duration": 0.023255813953511506,
          "durationTicks": 2,
          "midi": 70,
          "name": "A#4",
          "ticks": 18033,
          "time": 209.6860465116279,
          "velocity": 0.23622047244094488
        },
        {
          "duration": 0.03488372093025305,
          "durationTicks": 3,
          "midi": 102,
          "name": "F#7",
          "ticks": 18033,
          "time": 209.6860465116279,
          "velocity": 0.12598425196850394
        },
        {
          "duration": 0.034883720930224626,
          "durationTicks": 3,
          "midi": 59,
          "name": "B3",
          "ticks": 18034,
          "time": 209.69767441860466,
          "velocity": 0.3543307086614173
        },
        {
          "duration": 0.023255813953483084,
          "durationTicks": 2,
          "midi": 63,
          "name": "D#4",
          "ticks": 18034,
          "time": 209.69767441860466,
          "velocity": 0.2283464566929134
        },
        {
          "duration": 0.023255813953483084,
          "durationTicks": 2,
          "midi": 48,
          "name": "C3",
          "ticks": 18035,
          "time": 209.7093023255814,
          "velocity": 0.4330708661417323
        },
        {
          "duration": 0.023255813953483084,
          "durationTicks": 2,
          "midi": 42,
          "name": "F#2",
          "ticks": 18036,
          "time": 209.72093023255815,
          "velocity": 0.3779527559055118
        },
        {
          "duration": 0.04651162790696617,
          "durationTicks": 4,
          "midi": 59,
          "name": "B3",
          "ticks": 18038,
          "time": 209.74418604651163,
          "velocity": 0.33858267716535434
        },
        {
          "duration": 0.023255813953483084,
          "durationTicks": 2,
          "midi": 45,
          "name": "A2",
          "ticks": 18044,
          "time": 209.8139534883721,
          "velocity": 0.3937007874015748
        },
        {
          "duration": 0.10465116279067388,
          "durationTicks": 9,
          "midi": 65,
          "name": "F4",
          "ticks": 18044,
          "time": 209.8139534883721,
          "velocity": 0.3543307086614173
        },
        {
          "duration": 0.09302325581393234,
          "durationTicks": 8,
          "midi": 84,
          "name": "C6",
          "ticks": 18044,
          "time": 209.8139534883721,
          "velocity": 0.1889763779527559
        },
        {
          "duration": 0.05813953488370771,
          "durationTicks": 5,
          "midi": 55,
          "name": "G3",
          "ticks": 18045,
          "time": 209.82558139534885,
          "velocity": 0.28346456692913385
        },
        {
          "duration": 0.06976744186044925,
          "durationTicks": 6,
          "midi": 101,
          "name": "F7",
          "ticks": 18046,
          "time": 209.8372093023256,
          "velocity": 0.07874015748031496
        },
        {
          "duration": 0.05813953488370771,
          "durationTicks": 5,
          "midi": 93,
          "name": "A6",
          "ticks": 18048,
          "time": 209.86046511627907,
          "velocity": 0.08661417322834646
        },
        {
          "duration": 0.05813953488370771,
          "durationTicks": 5,
          "midi": 50,
          "name": "D3",
          "ticks": 18049,
          "time": 209.87209302325581,
          "velocity": 0.2125984251968504
        },
        {
          "duration": 0.023255813953511506,
          "durationTicks": 2,
          "midi": 60,
          "name": "C4",
          "ticks": 18053,
          "time": 209.91860465116278,
          "velocity": 0.25984251968503935
        },
        {
          "duration": 0.19767441860463464,
          "durationTicks": 17,
          "midi": 55,
          "name": "G3",
          "ticks": 18055,
          "time": 209.9418604651163,
          "velocity": 0.47244094488188976
        },
        {
          "duration": 0.04651162790696617,
          "durationTicks": 4,
          "midi": 66,
          "name": "F#4",
          "ticks": 18055,
          "time": 209.9418604651163,
          "velocity": 0.07874015748031496
        },
        {
          "duration": 0.05813953488370771,
          "durationTicks": 5,
          "midi": 74,
          "name": "D5",
          "ticks": 18055,
          "time": 209.9418604651163,
          "velocity": 0.11023622047244094
        },
        {
          "duration": 0.10465116279067388,
          "durationTicks": 9,
          "midi": 71,
          "name": "B4",
          "ticks": 18056,
          "time": 209.95348837209303,
          "velocity": 0.1968503937007874
        },
        {
          "duration": 0.023255813953483084,
          "durationTicks": 2,
          "midi": 48,
          "name": "C3",
          "ticks": 18061,
          "time": 210.01162790697674,
          "velocity": 0.36220472440944884
        },
        {
          "duration": 0.023255813953483084,
          "durationTicks": 2,
          "midi": 44,
          "name": "G#2",
          "ticks": 18067,
          "time": 210.08139534883722,
          "velocity": 0.3700787401574803
        },
        {
          "duration": 0.33720930232556157,
          "durationTicks": 29,
          "midi": 72,
          "name": "C5",
          "ticks": 18067,
          "time": 210.08139534883722,
          "velocity": 0.4015748031496063
        },
        {
          "duration": 0.11627906976744384,
          "durationTicks": 10,
          "midi": 100,
          "name": "E7",
          "ticks": 18067,
          "time": 210.08139534883722,
          "velocity": 0.2047244094488189
        },
        {
          "duration": 0.04651162790696617,
          "durationTicks": 4,
          "midi": 50,
          "name": "D3",
          "ticks": 18071,
          "time": 210.12790697674419,
          "velocity": 0.1889763779527559
        },
        {
          "duration": 0.023255813953511506,
          "durationTicks": 2,
          "midi": 47,
          "name": "B2",
          "ticks": 18076,
          "time": 210.1860465116279,
          "velocity": 0.33070866141732286
        },
        {
          "duration": 0.2325581395348877,
          "durationTicks": 20,
          "midi": 55,
          "name": "G3",
          "ticks": 18079,
          "time": 210.22093023255815,
          "velocity": 0.4566929133858268
        },
        {
          "duration": 0.04651162790696617,
          "durationTicks": 4,
          "midi": 74,
          "name": "D5",
          "ticks": 18079,
          "time": 210.22093023255815,
          "velocity": 0.10236220472440945
        },
        {
          "duration": 0.023255813953483084,
          "durationTicks": 2,
          "midi": 59,
          "name": "B3",
          "ticks": 18080,
          "time": 210.2325581395349,
          "velocity": 0.2677165354330709
        },
        {
          "duration": 0.04651162790696617,
          "durationTicks": 4,
          "midi": 62,
          "name": "D4",
          "ticks": 18080,
          "time": 210.2325581395349,
          "velocity": 0.25984251968503935
        },
        {
          "duration": 0.023255813953483084,
          "durationTicks": 2,
          "midi": 48,
          "name": "C3",
          "ticks": 18083,
          "time": 210.2674418604651,
          "velocity": 0.3700787401574803
        },
        {
          "duration": 0.023255813953483084,
          "durationTicks": 2,
          "midi": 45,
          "name": "A2",
          "ticks": 18088,
          "time": 210.32558139534885,
          "velocity": 0.3937007874015748
        },
        {
          "duration": 0.034883720930224626,
          "durationTicks": 3,
          "midi": 42,
          "name": "F#2",
          "ticks": 18091,
          "time": 210.36046511627907,
          "velocity": 0.28346456692913385
        },
        {
          "duration": 0.11627906976744384,
          "durationTicks": 10,
          "midi": 95,
          "name": "B6",
          "ticks": 18091,
          "time": 210.36046511627907,
          "velocity": 0.11811023622047244
        },
        {
          "duration": 0.04651162790699459,
          "durationTicks": 4,
          "midi": 50,
          "name": "D3",
          "ticks": 18094,
          "time": 210.3953488372093,
          "velocity": 0.14960629921259844
        },
        {
          "duration": 0.023255813953483084,
          "durationTicks": 2,
          "midi": 49,
          "name": "C#3",
          "ticks": 18098,
          "time": 210.4418604651163,
          "velocity": 0.3228346456692913
        },
        {
          "duration": 0.034883720930224626,
          "durationTicks": 3,
          "midi": 70,
          "name": "A#4",
          "ticks": 18098,
          "time": 210.4418604651163,
          "velocity": 0.25196850393700787
        },
        {
          "duration": 0.11627906976744384,
          "durationTicks": 10,
          "midi": 55,
          "name": "G3",
          "ticks": 18100,
          "time": 210.46511627906978,
          "velocity": 0.4881889763779528
        },
        {
          "duration": 0.04651162790696617,
          "durationTicks": 4,
          "midi": 66,
          "name": "F#4",
          "ticks": 18100,
          "time": 210.46511627906978,
          "velocity": 0.2677165354330709
        },
        {
          "duration": 0.16279069767441,
          "durationTicks": 14,
          "midi": 71,
          "name": "B4",
          "ticks": 18101,
          "time": 210.47674418604652,
          "velocity": 0.1732283464566929
        },
        {
          "duration": 0.034883720930224626,
          "durationTicks": 3,
          "midi": 74,
          "name": "D5",
          "ticks": 18101,
          "time": 210.47674418604652,
          "velocity": 0.07086614173228346
        },
        {
          "duration": 0.023255813953483084,
          "durationTicks": 2,
          "midi": 42,
          "name": "F#2",
          "ticks": 18102,
          "time": 210.48837209302326,
          "velocity": 0.4015748031496063
        },
        {
          "duration": 0.023255813953483084,
          "durationTicks": 2,
          "midi": 43,
          "name": "G2",
          "ticks": 18109,
          "time": 210.56976744186048,
          "velocity": 0.3937007874015748
        },
        {
          "duration": 0.023255813953483084,
          "durationTicks": 2,
          "midi": 59,
          "name": "B3",
          "ticks": 18109,
          "time": 210.56976744186048,
          "velocity": 0.2677165354330709
        },
        {
          "duration": 0.023255813953483084,
          "durationTicks": 2,
          "midi": 42,
          "name": "F#2",
          "ticks": 18111,
          "time": 210.59302325581396,
          "velocity": 0.41732283464566927
        },
        {
          "duration": 0.034883720930224626,
          "durationTicks": 3,
          "midi": 62,
          "name": "D4",
          "ticks": 18111,
          "time": 210.59302325581396,
          "velocity": 0.2204724409448819
        },
        {
          "duration": 0.2325581395348877,
          "durationTicks": 20,
          "midi": 55,
          "name": "G3",
          "ticks": 18112,
          "time": 210.6046511627907,
          "velocity": 0.4566929133858268
        },
        {
          "duration": 0.1046511627907023,
          "durationTicks": 9,
          "midi": 84,
          "name": "C6",
          "ticks": 18114,
          "time": 210.62790697674419,
          "velocity": 0.23622047244094488
        },
        {
          "duration": 0.1046511627907023,
          "durationTicks": 9,
          "midi": 65,
          "name": "F4",
          "ticks": 18115,
          "time": 210.63953488372093,
          "velocity": 0.36220472440944884
        },
        {
          "duration": 0.03488372093025305,
          "durationTicks": 3,
          "midi": 93,
          "name": "A6",
          "ticks": 18119,
          "time": 210.6860465116279,
          "velocity": 0.07874015748031496
        },
        {
          "duration": 0.034883720930224626,
          "durationTicks": 3,
          "midi": 59,
          "name": "B3",
          "ticks": 18120,
          "time": 210.69767441860466,
          "velocity": 0.2992125984251969
        },
        {
          "duration": 0.023255813953483084,
          "durationTicks": 2,
          "midi": 48,
          "name": "C3",
          "ticks": 18122,
          "time": 210.72093023255815,
          "velocity": 0.47244094488188976
        },
        {
          "duration": 0.12790697674418539,
          "durationTicks": 11,
          "midi": 71,
          "name": "B4",
          "ticks": 18123,
          "time": 210.7325581395349,
          "velocity": 0.2125984251968504
        },
        {
          "duration": 0.11627906976744384,
          "durationTicks": 10,
          "midi": 78,
          "name": "F#5",
          "ticks": 18124,
          "time": 210.74418604651163,
          "velocity": 0.11811023622047244
        },
        {
          "duration": 0.023255813953483084,
          "durationTicks": 2,
          "midi": 48,
          "name": "C3",
          "ticks": 18126,
          "time": 210.7674418604651,
          "velocity": 0.4409448818897638
        },
        {
          "duration": 0.023255813953483084,
          "durationTicks": 2,
          "midi": 59,
          "name": "B3",
          "ticks": 18131,
          "time": 210.82558139534885,
          "velocity": 0.28346456692913385
        },
        {
          "duration": 0.034883720930224626,
          "durationTicks": 3,
          "midi": 54,
          "name": "F#3",
          "ticks": 18132,
          "time": 210.8372093023256,
          "velocity": 0.41732283464566927
        },
        {
          "duration": 0.023255813953483084,
          "durationTicks": 2,
          "midi": 41,
          "name": "F2",
          "ticks": 18134,
          "time": 210.86046511627907,
          "velocity": 0.3543307086614173
        },
        {
          "duration": 0.023255813953483084,
          "durationTicks": 2,
          "midi": 59,
          "name": "B3",
          "ticks": 18134,
          "time": 210.86046511627907,
          "velocity": 0.31496062992125984
        },
        {
          "duration": 0.22093023255814614,
          "durationTicks": 19,
          "midi": 55,
          "name": "G3",
          "ticks": 18135,
          "time": 210.87209302325581,
          "velocity": 0.4566929133858268
        },
        {
          "duration": 0.1046511627907023,
          "durationTicks": 9,
          "midi": 102,
          "name": "F#7",
          "ticks": 18136,
          "time": 210.88372093023256,
          "velocity": 0.23622047244094488
        },
        {
          "duration": 0.023255813953483084,
          "durationTicks": 2,
          "midi": 43,
          "name": "G2",
          "ticks": 18137,
          "time": 210.8953488372093,
          "velocity": 0.4015748031496063
        },
        {
          "duration": 0.12790697674418539,
          "durationTicks": 11,
          "midi": 64,
          "name": "E4",
          "ticks": 18137,
          "time": 210.8953488372093,
          "velocity": 0.3543307086614173
        },
        {
          "duration": 0.08139534883721922,
          "durationTicks": 7,
          "midi": 83,
          "name": "B5",
          "ticks": 18137,
          "time": 210.8953488372093,
          "velocity": 0.12598425196850394
        },
        {
          "duration": 0.023255813953511506,
          "durationTicks": 2,
          "midi": 59,
          "name": "B3",
          "ticks": 18139,
          "time": 210.91860465116278,
          "velocity": 0.28346456692913385
        },
        {
          "duration": 0.023255813953511506,
          "durationTicks": 2,
          "midi": 44,
          "name": "G#2",
          "ticks": 18140,
          "time": 210.93023255813952,
          "velocity": 0.44881889763779526
        },
        {
          "duration": 0.023255813953483084,
          "durationTicks": 2,
          "midi": 43,
          "name": "G2",
          "ticks": 18142,
          "time": 210.95348837209303,
          "velocity": 0.4330708661417323
        },
        {
          "duration": 0.03488372093025305,
          "durationTicks": 3,
          "midi": 42,
          "name": "F#2",
          "ticks": 18149,
          "time": 211.03488372093022,
          "velocity": 0.3700787401574803
        },
        {
          "duration": 0.05813953488373613,
          "durationTicks": 5,
          "midi": 59,
          "name": "B3",
          "ticks": 18150,
          "time": 211.04651162790697,
          "velocity": 0.25196850393700787
        },
        {
          "duration": 0.023255813953483084,
          "durationTicks": 2,
          "midi": 44,
          "name": "G#2",
          "ticks": 18154,
          "time": 211.09302325581396,
          "velocity": 0.4094488188976378
        },
        {
          "duration": 0.04651162790696617,
          "durationTicks": 4,
          "midi": 78,
          "name": "F#5",
          "ticks": 18154,
          "time": 211.09302325581396,
          "velocity": 0.11811023622047244
        },
        {
          "duration": 0.023255813953483084,
          "durationTicks": 2,
          "midi": 57,
          "name": "A3",
          "ticks": 18155,
          "time": 211.1046511627907,
          "velocity": 0.30708661417322836
        },
        {
          "duration": 0.034883720930224626,
          "durationTicks": 3,
          "midi": 64,
          "name": "E4",
          "ticks": 18155,
          "time": 211.1046511627907,
          "velocity": 0.2125984251968504
        },
        {
          "duration": 0.034883720930224626,
          "durationTicks": 3,
          "midi": 93,
          "name": "A6",
          "ticks": 18155,
          "time": 211.1046511627907,
          "velocity": 0.18110236220472442
        },
        {
          "duration": 0.023255813953483084,
          "durationTicks": 2,
          "midi": 47,
          "name": "B2",
          "ticks": 18156,
          "time": 211.11627906976744,
          "velocity": 0.33858267716535434
        },
        {
          "duration": 0.05813953488370771,
          "durationTicks": 5,
          "midi": 70,
          "name": "A#4",
          "ticks": 18156,
          "time": 211.11627906976744,
          "velocity": 0.2125984251968504
        },
        {
          "duration": 0.05813953488370771,
          "durationTicks": 5,
          "midi": 84,
          "name": "C6",
          "ticks": 18157,
          "time": 211.12790697674419,
          "velocity": 0.1968503937007874
        },
        {
          "duration": 0.05813953488373613,
          "durationTicks": 5,
          "midi": 68,
          "name": "G#4",
          "ticks": 18158,
          "time": 211.13953488372093,
          "velocity": 0.2204724409448819
        },
        {
          "duration": 0.034883720930224626,
          "durationTicks": 3,
          "midi": 75,
          "name": "D#5",
          "ticks": 18159,
          "time": 211.15116279069767,
          "velocity": 0.10236220472440945
        },
        {
          "duration": 0.03488372093025305,
          "durationTicks": 3,
          "midi": 41,
          "name": "F2",
          "ticks": 18160,
          "time": 211.1627906976744,
          "velocity": 0.3464566929133858
        },
        {
          "duration": 0.18604651162792152,
          "durationTicks": 16,
          "midi": 65,
          "name": "F4",
          "ticks": 18160,
          "time": 211.1627906976744,
          "velocity": 0.10236220472440945
        },
        {
          "duration": 0.023255813953511506,
          "durationTicks": 2,
          "midi": 57,
          "name": "A3",
          "ticks": 18162,
          "time": 211.1860465116279,
          "velocity": 0.5039370078740157
        },
        {
          "duration": 0.023255813953483084,
          "durationTicks": 2,
          "midi": 58,
          "name": "A#3",
          "ticks": 18164,
          "time": 211.2093023255814,
          "velocity": 0.36220472440944884
        },
        {
          "duration": 0.12790697674418539,
          "durationTicks": 11,
          "midi": 77,
          "name": "F5",
          "ticks": 18166,
          "time": 211.2325581395349,
          "velocity": 0.13385826771653545
        },
        {
          "duration": 0.11627906976744384,
          "durationTicks": 10,
          "midi": 86,
          "name": "D6",
          "ticks": 18166,
          "time": 211.2325581395349,
          "velocity": 0.09448818897637795
        },
        {
          "duration": 0.034883720930224626,
          "durationTicks": 3,
          "midi": 58,
          "name": "A#3",
          "ticks": 18167,
          "time": 211.24418604651163,
          "velocity": 0.2992125984251969
        },
        {
          "duration": 0.09302325581396076,
          "durationTicks": 8,
          "midi": 53,
          "name": "F3",
          "ticks": 18168,
          "time": 211.25581395348837,
          "velocity": 0.25984251968503935
        },
        {
          "duration": 0.05813953488373613,
          "durationTicks": 5,
          "midi": 58,
          "name": "A#3",
          "ticks": 18171,
          "time": 211.2906976744186,
          "velocity": 0.2992125984251969
        },
        {
          "duration": 0.023255813953483084,
          "durationTicks": 2,
          "midi": 42,
          "name": "F#2",
          "ticks": 18176,
          "time": 211.34883720930233,
          "velocity": 0.3779527559055118
        },
        {
          "duration": 0.034883720930224626,
          "durationTicks": 3,
          "midi": 57,
          "name": "A3",
          "ticks": 18176,
          "time": 211.34883720930233,
          "velocity": 0.4015748031496063
        },
        {
          "duration": 0.15116279069766847,
          "durationTicks": 13,
          "midi": 70,
          "name": "A#4",
          "ticks": 18177,
          "time": 211.36046511627907,
          "velocity": 0.23622047244094488
        },
        {
          "duration": 0.11627906976744384,
          "durationTicks": 10,
          "midi": 62,
          "name": "D4",
          "ticks": 18178,
          "time": 211.37209302325581,
          "velocity": 0.33070866141732286
        },
        {
          "duration": 0.09302325581396076,
          "durationTicks": 8,
          "midi": 77,
          "name": "F5",
          "ticks": 18178,
          "time": 211.37209302325581,
          "velocity": 0.16535433070866143
        },
        {
          "duration": 0.12790697674418539,
          "durationTicks": 11,
          "midi": 58,
          "name": "A#3",
          "ticks": 18179,
          "time": 211.38372093023256,
          "velocity": 0.3700787401574803
        },
        {
          "duration": 0.09302325581396076,
          "durationTicks": 8,
          "midi": 53,
          "name": "F3",
          "ticks": 18180,
          "time": 211.3953488372093,
          "velocity": 0.2047244094488189
        },
        {
          "duration": 0.023255813953483084,
          "durationTicks": 2,
          "midi": 41,
          "name": "F2",
          "ticks": 18181,
          "time": 211.40697674418604,
          "velocity": 0.4015748031496063
        },
        {
          "duration": 0.023255813953483084,
          "durationTicks": 2,
          "midi": 41,
          "name": "F2",
          "ticks": 18186,
          "time": 211.46511627906978,
          "velocity": 0.4015748031496063
        },
        {
          "duration": 0.023255813953483084,
          "durationTicks": 2,
          "midi": 41,
          "name": "F2",
          "ticks": 18189,
          "time": 211.5,
          "velocity": 0.36220472440944884
        },
        {
          "duration": 0.18604651162792152,
          "durationTicks": 16,
          "midi": 64,
          "name": "E4",
          "ticks": 18190,
          "time": 211.51162790697674,
          "velocity": 0.3700787401574803
        },
        {
          "duration": 0.12790697674418539,
          "durationTicks": 11,
          "midi": 88,
          "name": "E6",
          "ticks": 18190,
          "time": 211.51162790697674,
          "velocity": 0.18110236220472442
        },
        {
          "duration": 0.023255813953483084,
          "durationTicks": 2,
          "midi": 40,
          "name": "E2",
          "ticks": 18191,
          "time": 211.52325581395348,
          "velocity": 0.29133858267716534
        },
        {
          "duration": 0.08139534883721922,
          "durationTicks": 7,
          "midi": 58,
          "name": "A#3",
          "ticks": 18191,
          "time": 211.52325581395348,
          "velocity": 0.2283464566929134
        },
        {
          "duration": 0.11627906976744384,
          "durationTicks": 10,
          "midi": 92,
          "name": "G#6",
          "ticks": 18191,
          "time": 211.52325581395348,
          "velocity": 0.12598425196850394
        },
        {
          "duration": 0.023255813953483084,
          "durationTicks": 2,
          "midi": 41,
          "name": "F2",
          "ticks": 18196,
          "time": 211.58139534883722,
          "velocity": 0.29133858267716534
        },
        {
          "duration": 0.034883720930224626,
          "durationTicks": 3,
          "midi": 53,
          "name": "F3",
          "ticks": 18198,
          "time": 211.6046511627907,
          "velocity": 0.3543307086614173
        },
        {
          "duration": 0.034883720930224626,
          "durationTicks": 3,
          "midi": 74,
          "name": "D5",
          "ticks": 18199,
          "time": 211.61627906976744,
          "velocity": 0.14173228346456693
        },
        {
          "duration": 0.13953488372092693,
          "durationTicks": 12,
          "midi": 58,
          "name": "A#3",
          "ticks": 18202,
          "time": 211.65116279069767,
          "velocity": 0.3779527559055118
        },
        {
          "duration": 0.04651162790696617,
          "durationTicks": 4,
          "midi": 65,
          "name": "F4",
          "ticks": 18206,
          "time": 211.69767441860466,
          "velocity": 0.14173228346456693
        },
        {
          "duration": 0.12790697674418539,
          "durationTicks": 11,
          "midi": 77,
          "name": "F5",
          "ticks": 18210,
          "time": 211.74418604651163,
          "velocity": 0.18110236220472442
        },
        {
          "duration": 0.11627906976744384,
          "durationTicks": 10,
          "midi": 89,
          "name": "F6",
          "ticks": 18210,
          "time": 211.74418604651163,
          "velocity": 0.2440944881889764
        },
        {
          "duration": 0.11627906976744384,
          "durationTicks": 10,
          "midi": 65,
          "name": "F4",
          "ticks": 18211,
          "time": 211.75581395348837,
          "velocity": 0.3858267716535433
        },
        {
          "duration": 0.11627906976744384,
          "durationTicks": 10,
          "midi": 84,
          "name": "C6",
          "ticks": 18211,
          "time": 211.75581395348837,
          "velocity": 0.09448818897637795
        },
        {
          "duration": 0.04651162790696617,
          "durationTicks": 4,
          "midi": 99,
          "name": "D#7",
          "ticks": 18211,
          "time": 211.75581395348837,
          "velocity": 0.09448818897637795
        },
        {
          "duration": 0.06976744186047767,
          "durationTicks": 6,
          "midi": 103,
          "name": "G7",
          "ticks": 18211,
          "time": 211.75581395348837,
          "velocity": 0.13385826771653545
        },
        {
          "duration": 0.1046511627907023,
          "durationTicks": 9,
          "midi": 53,
          "name": "F3",
          "ticks": 18212,
          "time": 211.7674418604651,
          "velocity": 0.4015748031496063
        },
        {
          "duration": 0.023255813953511506,
          "durationTicks": 2,
          "midi": 45,
          "name": "A2",
          "ticks": 18214,
          "time": 211.7906976744186,
          "velocity": 0.3858267716535433
        },
        {
          "duration": 0.08139534883721922,
          "durationTicks": 7,
          "midi": 58,
          "name": "A#3",
          "ticks": 18215,
          "time": 211.80232558139534,
          "velocity": 0.28346456692913385
        },
        {
          "duration": 0.023255813953483084,
          "durationTicks": 2,
          "midi": 64,
          "name": "E4",
          "ticks": 18221,
          "time": 211.87209302325581,
          "velocity": 0.25984251968503935
        },
        {
          "duration": 0.04651162790699459,
          "durationTicks": 4,
          "midi": 41,
          "name": "F2",
          "ticks": 18224,
          "time": 211.90697674418604,
          "velocity": 0.33070866141732286
        },
        {
          "duration": 0.8953488372092977,
          "durationTicks": 77,
          "midi": 64,
          "name": "E4",
          "ticks": 18227,
          "time": 211.9418604651163,
          "velocity": 0.3937007874015748
        },
        {
          "duration": 0.20930232558137618,
          "durationTicks": 18,
          "midi": 88,
          "name": "E6",
          "ticks": 18228,
          "time": 211.95348837209303,
          "velocity": 0.1968503937007874
        },
        {
          "duration": 0.034883720930224626,
          "durationTicks": 3,
          "midi": 54,
          "name": "F#3",
          "ticks": 18229,
          "time": 211.96511627906978,
          "velocity": 0.2204724409448819
        },
        {
          "duration": 0.06976744186044925,
          "durationTicks": 6,
          "midi": 92,
          "name": "G#6",
          "ticks": 18229,
          "time": 211.96511627906978,
          "velocity": 0.11023622047244094
        },
        {
          "duration": 0.034883720930224626,
          "durationTicks": 3,
          "midi": 42,
          "name": "F#2",
          "ticks": 18230,
          "time": 211.97674418604652,
          "velocity": 0.33858267716535434
        },
        {
          "duration": 0.023255813953483084,
          "durationTicks": 2,
          "midi": 58,
          "name": "A#3",
          "ticks": 18232,
          "time": 212,
          "velocity": 0.33070866141732286
        },
        {
          "duration": 0.8255813953488484,
          "durationTicks": 71,
          "midi": 67,
          "name": "G4",
          "ticks": 18232,
          "time": 212,
          "velocity": 0.44881889763779526
        },
        {
          "duration": 0.05813953488370771,
          "durationTicks": 5,
          "midi": 103,
          "name": "G7",
          "ticks": 18232,
          "time": 212,
          "velocity": 0.12598425196850394
        },
        {
          "duration": 0.023255813953483084,
          "durationTicks": 2,
          "midi": 54,
          "name": "F#3",
          "ticks": 18233,
          "time": 212.01162790697674,
          "velocity": 0.48031496062992124
        },
        {
          "duration": 0.023255813953483084,
          "durationTicks": 2,
          "midi": 46,
          "name": "A#2",
          "ticks": 18234,
          "time": 212.02325581395348,
          "velocity": 0.29133858267716534
        },
        {
          "duration": 0.023255813953483084,
          "durationTicks": 2,
          "midi": 59,
          "name": "B3",
          "ticks": 18234,
          "time": 212.02325581395348,
          "velocity": 0.25984251968503935
        },
        {
          "duration": 0.83720930232559,
          "durationTicks": 72,
          "midi": 72,
          "name": "C5",
          "ticks": 18234,
          "time": 212.02325581395348,
          "velocity": 0.4015748031496063
        },
        {
          "duration": 0.13953488372092693,
          "durationTicks": 12,
          "midi": 55,
          "name": "G3",
          "ticks": 18235,
          "time": 212.03488372093022,
          "velocity": 0.5511811023622047
        },
        {
          "duration": 0.13953488372092693,
          "durationTicks": 12,
          "midi": 74,
          "name": "D5",
          "ticks": 18235,
          "time": 212.03488372093022,
          "velocity": 0.1889763779527559
        },
        {
          "duration": 0.03488372093025305,
          "durationTicks": 3,
          "midi": 60,
          "name": "C4",
          "ticks": 18237,
          "time": 212.0581395348837,
          "velocity": 0.11023622047244094
        },
        {
          "duration": 0.034883720930224626,
          "durationTicks": 3,
          "midi": 43,
          "name": "G2",
          "ticks": 18238,
          "time": 212.06976744186048,
          "velocity": 0.33858267716535434
        },
        {
          "duration": 0.023255813953483084,
          "durationTicks": 2,
          "midi": 48,
          "name": "C3",
          "ticks": 18239,
          "time": 212.08139534883722,
          "velocity": 0.28346456692913385
        },
        {
          "duration": 0.04651162790696617,
          "durationTicks": 4,
          "midi": 60,
          "name": "C4",
          "ticks": 18241,
          "time": 212.1046511627907,
          "velocity": 0.11811023622047244
        },
        {
          "duration": 0.023255813953483084,
          "durationTicks": 2,
          "midi": 43,
          "name": "G2",
          "ticks": 18242,
          "time": 212.11627906976744,
          "velocity": 0.3464566929133858
        },
        {
          "duration": 0.03488372093025305,
          "durationTicks": 3,
          "midi": 55,
          "name": "G3",
          "ticks": 18248,
          "time": 212.1860465116279,
          "velocity": 0.3228346456692913
        },
        {
          "duration": 0.11627906976744384,
          "durationTicks": 10,
          "midi": 55,
          "name": "G3",
          "ticks": 18257,
          "time": 212.2906976744186,
          "velocity": 0.4645669291338583
        },
        {
          "duration": 0.11627906976744384,
          "durationTicks": 10,
          "midi": 60,
          "name": "C4",
          "ticks": 18257,
          "time": 212.2906976744186,
          "velocity": 0.3858267716535433
        },
        {
          "duration": 0.023255813953511506,
          "durationTicks": 2,
          "midi": 44,
          "name": "G#2",
          "ticks": 18258,
          "time": 212.30232558139534,
          "velocity": 0.3228346456692913
        },
        {
          "duration": 0.0813953488371908,
          "durationTicks": 7,
          "midi": 74,
          "name": "D5",
          "ticks": 18259,
          "time": 212.3139534883721,
          "velocity": 0.1889763779527559
        },
        {
          "duration": 0.06976744186044925,
          "durationTicks": 6,
          "midi": 83,
          "name": "B5",
          "ticks": 18259,
          "time": 212.3139534883721,
          "velocity": 0.07086614173228346
        },
        {
          "duration": 0.034883720930224626,
          "durationTicks": 3,
          "midi": 88,
          "name": "E6",
          "ticks": 18260,
          "time": 212.32558139534885,
          "velocity": 0.07874015748031496
        },
        {
          "duration": 0.0813953488371908,
          "durationTicks": 7,
          "midi": 42,
          "name": "F#2",
          "ticks": 18271,
          "time": 212.45348837209303,
          "velocity": 0.33858267716535434
        },
        {
          "duration": 0.04651162790696617,
          "durationTicks": 4,
          "midi": 55,
          "name": "G3",
          "ticks": 18274,
          "time": 212.48837209302326,
          "velocity": 0.13385826771653545
        },
        {
          "duration": 0.16279069767443843,
          "durationTicks": 14,
          "midi": 55,
          "name": "G3",
          "ticks": 18279,
          "time": 212.54651162790697,
          "velocity": 0.48031496062992124
        },
        {
          "duration": 0.12790697674418539,
          "durationTicks": 11,
          "midi": 60,
          "name": "C4",
          "ticks": 18279,
          "time": 212.54651162790697,
          "velocity": 0.36220472440944884
        },
        {
          "duration": 0.1511627906976969,
          "durationTicks": 13,
          "midi": 74,
          "name": "D5",
          "ticks": 18279,
          "time": 212.54651162790697,
          "velocity": 0.2125984251968504
        },
        {
          "duration": 0.023255813953511506,
          "durationTicks": 2,
          "midi": 45,
          "name": "A2",
          "ticks": 18280,
          "time": 212.5581395348837,
          "velocity": 0.33858267716535434
        },
        {
          "duration": 0.10465116279067388,
          "durationTicks": 9,
          "midi": 48,
          "name": "C3",
          "ticks": 18282,
          "time": 212.58139534883722,
          "velocity": 0.3700787401574803
        },
        {
          "duration": 0.04651162790696617,
          "durationTicks": 4,
          "midi": 42,
          "name": "F#2",
          "ticks": 18292,
          "time": 212.69767441860466,
          "velocity": 0.4094488188976378
        },
        {
          "duration": 0.10465116279067388,
          "durationTicks": 9,
          "midi": 60,
          "name": "C4",
          "ticks": 18292,
          "time": 212.69767441860466,
          "velocity": 0.30708661417322836
        },
        {
          "duration": 0.1860465116278931,
          "durationTicks": 16,
          "midi": 55,
          "name": "G3",
          "ticks": 18294,
          "time": 212.72093023255815,
          "velocity": 0.4645669291338583
        },
        {
          "duration": 0.08139534883721922,
          "durationTicks": 7,
          "midi": 48,
          "name": "C3",
          "ticks": 18298,
          "time": 212.7674418604651,
          "velocity": 0.4015748031496063
        },
        {
          "duration": 0.06976744186044925,
          "durationTicks": 6,
          "midi": 48,
          "name": "C3",
          "ticks": 18306,
          "time": 212.86046511627907,
          "velocity": 0.4251968503937008
        },
        {
          "duration": 0.08139534883721922,
          "durationTicks": 7,
          "midi": 76,
          "name": "E5",
          "ticks": 18310,
          "time": 212.90697674418604,
          "velocity": 0.08661417322834646
        },
        {
          "duration": 0.06976744186047767,
          "durationTicks": 6,
          "midi": 72,
          "name": "C5",
          "ticks": 18311,
          "time": 212.91860465116278,
          "velocity": 0.11811023622047244
        },
        {
          "duration": 0.03488372093025305,
          "durationTicks": 3,
          "midi": 55,
          "name": "G3",
          "ticks": 18312,
          "time": 212.93023255813952,
          "velocity": 0.4330708661417323
        },
        {
          "duration": 0.023255813953483084,
          "durationTicks": 2,
          "midi": 43,
          "name": "G2",
          "ticks": 18313,
          "time": 212.9418604651163,
          "velocity": 0.4251968503937008
        },
        {
          "duration": 0.023255813953483084,
          "durationTicks": 2,
          "midi": 60,
          "name": "C4",
          "ticks": 18315,
          "time": 212.96511627906978,
          "velocity": 0.2755905511811024
        },
        {
          "duration": 0.04651162790696617,
          "durationTicks": 4,
          "midi": 61,
          "name": "C#4",
          "ticks": 18317,
          "time": 212.98837209302326,
          "velocity": 0.31496062992125984
        },
        {
          "duration": 0.023255813953483084,
          "durationTicks": 2,
          "midi": 49,
          "name": "C#3",
          "ticks": 18319,
          "time": 213.01162790697674,
          "velocity": 0.41732283464566927
        },
        {
          "duration": 0.023255813953483084,
          "durationTicks": 2,
          "midi": 56,
          "name": "G#3",
          "ticks": 18319,
          "time": 213.01162790697674,
          "velocity": 0.3543307086614173
        },
        {
          "duration": 0.023255813953483084,
          "durationTicks": 2,
          "midi": 57,
          "name": "A3",
          "ticks": 18321,
          "time": 213.03488372093022,
          "velocity": 0.3700787401574803
        },
        {
          "duration": 0.03488372093025305,
          "durationTicks": 3,
          "midi": 74,
          "name": "D5",
          "ticks": 18322,
          "time": 213.04651162790697,
          "velocity": 0.14173228346456693
        },
        {
          "duration": 0.03488372093025305,
          "durationTicks": 3,
          "midi": 64,
          "name": "E4",
          "ticks": 18323,
          "time": 213.0581395348837,
          "velocity": 0.31496062992125984
        },
        {
          "duration": 0.034883720930224626,
          "durationTicks": 3,
          "midi": 52,
          "name": "E3",
          "ticks": 18324,
          "time": 213.06976744186048,
          "velocity": 0.4251968503937008
        },
        {
          "duration": 0.023255813953483084,
          "durationTicks": 2,
          "midi": 44,
          "name": "G#2",
          "ticks": 18325,
          "time": 213.08139534883722,
          "velocity": 0.48031496062992124
        },
        {
          "duration": 0.023255813953483084,
          "durationTicks": 2,
          "midi": 71,
          "name": "B4",
          "ticks": 18325,
          "time": 213.08139534883722,
          "velocity": 0.25984251968503935
        },
        {
          "duration": 0.05813953488370771,
          "durationTicks": 5,
          "midi": 58,
          "name": "A#3",
          "ticks": 18326,
          "time": 213.09302325581396,
          "velocity": 0.4409448818897638
        },
        {
          "duration": 0.023255813953483084,
          "durationTicks": 2,
          "midi": 45,
          "name": "A2",
          "ticks": 18327,
          "time": 213.1046511627907,
          "velocity": 0.5275590551181102
        },
        {
          "duration": 0.023255813953483084,
          "durationTicks": 2,
          "midi": 45,
          "name": "A2",
          "ticks": 18330,
          "time": 213.13953488372093,
          "velocity": 0.31496062992125984
        },
        {
          "duration": 0.5697674418604777,
          "durationTicks": 49,
          "midi": 65,
          "name": "F4",
          "ticks": 18330,
          "time": 213.13953488372093,
          "velocity": 0.3700787401574803
        },
        {
          "duration": 0.8488372093023315,
          "durationTicks": 73,
          "midi": 72,
          "name": "C5",
          "ticks": 18330,
          "time": 213.13953488372093,
          "velocity": 0.2677165354330709
        },
        {
          "duration": 0.034883720930224626,
          "durationTicks": 3,
          "midi": 98,
          "name": "D7",
          "ticks": 18330,
          "time": 213.13953488372093,
          "velocity": 0.14960629921259844
        },
        {
          "duration": 0.19767441860466306,
          "durationTicks": 17,
          "midi": 53,
          "name": "F3",
          "ticks": 18331,
          "time": 213.15116279069767,
          "velocity": 0.5118110236220472
        },
        {
          "duration": 0.05813953488373613,
          "durationTicks": 5,
          "midi": 87,
          "name": "D#6",
          "ticks": 18332,
          "time": 213.1627906976744,
          "velocity": 0.14173228346456693
        },
        {
          "duration": 0.03488372093025305,
          "durationTicks": 3,
          "midi": 44,
          "name": "G#2",
          "ticks": 18333,
          "time": 213.17441860465115,
          "velocity": 0.3858267716535433
        },
        {
          "duration": 0.04651162790699459,
          "durationTicks": 4,
          "midi": 58,
          "name": "A#3",
          "ticks": 18333,
          "time": 213.17441860465115,
          "velocity": 0.3779527559055118
        },
        {
          "duration": 0.1511627906976969,
          "durationTicks": 13,
          "midi": 81,
          "name": "A5",
          "ticks": 18334,
          "time": 213.1860465116279,
          "velocity": 0.07874015748031496
        },
        {
          "duration": 0.19767441860466306,
          "durationTicks": 17,
          "midi": 90,
          "name": "F#6",
          "ticks": 18334,
          "time": 213.1860465116279,
          "velocity": 0.1968503937007874
        },
        {
          "duration": 0.38372093023255616,
          "durationTicks": 33,
          "midi": 79,
          "name": "G5",
          "ticks": 18335,
          "time": 213.19767441860466,
          "velocity": 0.18110236220472442
        },
        {
          "duration": 0.04651162790696617,
          "durationTicks": 4,
          "midi": 98,
          "name": "D7",
          "ticks": 18335,
          "time": 213.19767441860466,
          "velocity": 0.12598425196850394
        },
        {
          "duration": 0.09302325581393234,
          "durationTicks": 8,
          "midi": 92,
          "name": "G#6",
          "ticks": 18336,
          "time": 213.2093023255814,
          "velocity": 0.08661417322834646
        },
        {
          "duration": 0.12790697674418539,
          "durationTicks": 11,
          "midi": 96,
          "name": "C7",
          "ticks": 18337,
          "time": 213.22093023255815,
          "velocity": 0.09448818897637795
        },
        {
          "duration": 0.023255813953483084,
          "durationTicks": 2,
          "midi": 45,
          "name": "A2",
          "ticks": 18338,
          "time": 213.2325581395349,
          "velocity": 0.3464566929133858
        },
        {
          "duration": 0.023255813953483084,
          "durationTicks": 2,
          "midi": 60,
          "name": "C4",
          "ticks": 18339,
          "time": 213.24418604651163,
          "velocity": 0.36220472440944884
        },
        {
          "duration": 0.6046511627907023,
          "durationTicks": 52,
          "midi": 101,
          "name": "F7",
          "ticks": 18339,
          "time": 213.24418604651163,
          "velocity": 0.2755905511811024
        },
        {
          "duration": 0.023255813953483084,
          "durationTicks": 2,
          "midi": 58,
          "name": "A#3",
          "ticks": 18342,
          "time": 213.27906976744185,
          "velocity": 0.3228346456692913
        },
        {
          "duration": 0.05813953488370771,
          "durationTicks": 5,
          "midi": 58,
          "name": "A#3",
          "ticks": 18346,
          "time": 213.32558139534885,
          "velocity": 0.1968503937007874
        },
        {
          "duration": 0.08139534883721922,
          "durationTicks": 7,
          "midi": 53,
          "name": "F3",
          "ticks": 18351,
          "time": 213.38372093023256,
          "velocity": 0.31496062992125984
        },
        {
          "duration": 0.04651162790696617,
          "durationTicks": 4,
          "midi": 87,
          "name": "D#6",
          "ticks": 18351,
          "time": 213.38372093023256,
          "velocity": 0.07874015748031496
        },
        {
          "duration": 0.04651162790699459,
          "durationTicks": 4,
          "midi": 60,
          "name": "C4",
          "ticks": 18353,
          "time": 213.40697674418604,
          "velocity": 0.2047244094488189
        },
        {
          "duration": 0.023255813953483084,
          "durationTicks": 2,
          "midi": 52,
          "name": "E3",
          "ticks": 18358,
          "time": 213.46511627906978,
          "velocity": 0.3700787401574803
        },
        {
          "duration": 0.023255813953483084,
          "durationTicks": 2,
          "midi": 57,
          "name": "A3",
          "ticks": 18358,
          "time": 213.46511627906978,
          "velocity": 0.3543307086614173
        },
        {
          "duration": 0.25581395348837077,
          "durationTicks": 22,
          "midi": 74,
          "name": "D5",
          "ticks": 18358,
          "time": 213.46511627906978,
          "velocity": 0.1732283464566929
        },
        {
          "duration": 0.034883720930224626,
          "durationTicks": 3,
          "midi": 102,
          "name": "F#7",
          "ticks": 18359,
          "time": 213.47674418604652,
          "velocity": 0.10236220472440945
        },
        {
          "duration": 0.15116279069766847,
          "durationTicks": 13,
          "midi": 53,
          "name": "F3",
          "ticks": 18360,
          "time": 213.48837209302326,
          "velocity": 0.4330708661417323
        },
        {
          "duration": 0.16279069767441,
          "durationTicks": 14,
          "midi": 58,
          "name": "A#3",
          "ticks": 18363,
          "time": 213.52325581395348,
          "velocity": 0.2283464566929134
        },
        {
          "duration": 0.04651162790699459,
          "durationTicks": 4,
          "midi": 53,
          "name": "F3",
          "ticks": 18374,
          "time": 213.65116279069767,
          "velocity": 0.16535433070866143
        },
        {
          "duration": 0.33720930232559,
          "durationTicks": 29,
          "midi": 79,
          "name": "G5",
          "ticks": 18376,
          "time": 213.67441860465115,
          "velocity": 0.12598425196850394
        },
        {
          "duration": 0.17441860465117998,
          "durationTicks": 15,
          "midi": 81,
          "name": "A5",
          "ticks": 18377,
          "time": 213.6860465116279,
          "velocity": 0.07086614173228346
        },
        {
          "duration": 0.12790697674418539,
          "durationTicks": 11,
          "midi": 53,
          "name": "F3",
          "ticks": 18380,
          "time": 213.72093023255815,
          "velocity": 0.4094488188976378
        },
        {
          "duration": 0.06976744186044925,
          "durationTicks": 6,
          "midi": 58,
          "name": "A#3",
          "ticks": 18380,
          "time": 213.72093023255815,
          "velocity": 0.31496062992125984
        },
        {
          "duration": 0.04651162790696617,
          "durationTicks": 4,
          "midi": 45,
          "name": "A2",
          "ticks": 18382,
          "time": 213.74418604651163,
          "velocity": 0.3858267716535433
        },
        {
          "duration": 0.22093023255814614,
          "durationTicks": 19,
          "midi": 74,
          "name": "D5",
          "ticks": 18383,
          "time": 213.75581395348837,
          "velocity": 0.11811023622047244
        },
        {
          "duration": 0.03488372093025305,
          "durationTicks": 3,
          "midi": 46,
          "name": "A#2",
          "ticks": 18386,
          "time": 213.7906976744186,
          "velocity": 0.23622047244094488
        },
        {
          "duration": 0.034883720930224626,
          "durationTicks": 3,
          "midi": 70,
          "name": "A#4",
          "ticks": 18388,
          "time": 213.8139534883721,
          "velocity": 0.07874015748031496
        },
        {
          "duration": 0.023255813953483084,
          "durationTicks": 2,
          "midi": 47,
          "name": "B2",
          "ticks": 18392,
          "time": 213.86046511627907,
          "velocity": 0.31496062992125984
        },
        {
          "duration": 0.11627906976744384,
          "durationTicks": 10,
          "midi": 53,
          "name": "F3",
          "ticks": 18392,
          "time": 213.86046511627907,
          "velocity": 0.5039370078740157
        },
        {
          "duration": 0.13953488372092693,
          "durationTicks": 12,
          "midi": 58,
          "name": "A#3",
          "ticks": 18393,
          "time": 213.87209302325581,
          "velocity": 0.33858267716535434
        },
        {
          "duration": 0.11627906976744384,
          "durationTicks": 10,
          "midi": 46,
          "name": "A#2",
          "ticks": 18394,
          "time": 213.88372093023256,
          "velocity": 0.4251968503937008
        },
        {
          "duration": 0.11627906976744384,
          "durationTicks": 10,
          "midi": 81,
          "name": "A5",
          "ticks": 18394,
          "time": 213.88372093023256,
          "velocity": 0.07086614173228346
        },
        {
          "duration": 0.034883720930224626,
          "durationTicks": 3,
          "midi": 52,
          "name": "E3",
          "ticks": 18402,
          "time": 213.97674418604652,
          "velocity": 0.3858267716535433
        },
        {
          "duration": 0.034883720930224626,
          "durationTicks": 3,
          "midi": 65,
          "name": "F4",
          "ticks": 18402,
          "time": 213.97674418604652,
          "velocity": 0.1968503937007874
        },
        {
          "duration": 0.023255813953483084,
          "durationTicks": 2,
          "midi": 45,
          "name": "A2",
          "ticks": 18404,
          "time": 214,
          "velocity": 0.3937007874015748
        },
        {
          "duration": 0.11627906976744384,
          "durationTicks": 10,
          "midi": 53,
          "name": "F3",
          "ticks": 18405,
          "time": 214.01162790697674,
          "velocity": 0.3779527559055118
        },
        {
          "duration": 0.023255813953483084,
          "durationTicks": 2,
          "midi": 58,
          "name": "A#3",
          "ticks": 18406,
          "time": 214.02325581395348,
          "velocity": 0.2677165354330709
        },
        {
          "duration": 0.2906976744185954,
          "durationTicks": 25,
          "midi": 65,
          "name": "F4",
          "ticks": 18414,
          "time": 214.11627906976744,
          "velocity": 0.3937007874015748
        },
        {
          "duration": 0.13953488372092693,
          "durationTicks": 12,
          "midi": 72,
          "name": "C5",
          "ticks": 18415,
          "time": 214.12790697674419,
          "velocity": 0.1968503937007874
        },
        {
          "duration": 0.023255813953483084,
          "durationTicks": 2,
          "midi": 44,
          "name": "G#2",
          "ticks": 18417,
          "time": 214.15116279069767,
          "velocity": 0.3858267716535433
        },
        {
          "duration": 0.11627906976744384,
          "durationTicks": 10,
          "midi": 53,
          "name": "F3",
          "ticks": 18417,
          "time": 214.15116279069767,
          "velocity": 0.47244094488188976
        },
        {
          "duration": 0.08139534883721922,
          "durationTicks": 7,
          "midi": 90,
          "name": "F#6",
          "ticks": 18417,
          "time": 214.15116279069767,
          "velocity": 0.13385826771653545
        },
        {
          "duration": 0.11627906976744384,
          "durationTicks": 10,
          "midi": 58,
          "name": "A#3",
          "ticks": 18418,
          "time": 214.1627906976744,
          "velocity": 0.30708661417322836
        },
        {
          "duration": 0.023255813953511506,
          "durationTicks": 2,
          "midi": 45,
          "name": "A2",
          "ticks": 18419,
          "time": 214.17441860465115,
          "velocity": 0.4094488188976378
        },
        {
          "duration": 0.023255813953483084,
          "durationTicks": 2,
          "midi": 46,
          "name": "A#2",
          "ticks": 18426,
          "time": 214.25581395348837,
          "velocity": 0.31496062992125984
        },
        {
          "duration": 0.12790697674418539,
          "durationTicks": 11,
          "midi": 93,
          "name": "A6",
          "ticks": 18427,
          "time": 214.2674418604651,
          "velocity": 0.15748031496062992
        },
        {
          "duration": 0.15116279069766847,
          "durationTicks": 13,
          "midi": 101,
          "name": "F7",
          "ticks": 18427,
          "time": 214.2674418604651,
          "velocity": 0.2204724409448819
        },
        {
          "duration": 0.1046511627907023,
          "durationTicks": 9,
          "midi": 53,
          "name": "F3",
          "ticks": 18428,
          "time": 214.27906976744185,
          "velocity": 0.2755905511811024
        },
        {
          "duration": 0.1046511627907023,
          "durationTicks": 9,
          "midi": 72,
          "name": "C5",
          "ticks": 18428,
          "time": 214.27906976744185,
          "velocity": 0.16535433070866143
        },
        {
          "duration": 0.05813953488373613,
          "durationTicks": 5,
          "midi": 96,
          "name": "C7",
          "ticks": 18428,
          "time": 214.27906976744185,
          "velocity": 0.13385826771653545
        },
        {
          "duration": 0.06976744186047767,
          "durationTicks": 6,
          "midi": 99,
          "name": "D#7",
          "ticks": 18428,
          "time": 214.27906976744185,
          "velocity": 0.07086614173228346
        },
        {
          "duration": 0.1046511627907023,
          "durationTicks": 9,
          "midi": 58,
          "name": "A#3",
          "ticks": 18429,
          "time": 214.2906976744186,
          "velocity": 0.30708661417322836
        },
        {
          "duration": 0.023255813953483084,
          "durationTicks": 2,
          "midi": 46,
          "name": "A#2",
          "ticks": 18435,
          "time": 214.36046511627907,
          "velocity": 0.3228346456692913
        },
        {
          "duration": 0.19767441860466306,
          "durationTicks": 17,
          "midi": 74,
          "name": "D5",
          "ticks": 18437,
          "time": 214.38372093023256,
          "velocity": 0.44881889763779526
        },
        {
          "duration": 0.023255813953483084,
          "durationTicks": 2,
          "midi": 57,
          "name": "A3",
          "ticks": 18438,
          "time": 214.3953488372093,
          "velocity": 0.3228346456692913
        },
        {
          "duration": 0.13953488372092693,
          "durationTicks": 12,
          "midi": 62,
          "name": "D4",
          "ticks": 18438,
          "time": 214.3953488372093,
          "velocity": 0.41732283464566927
        },
        {
          "duration": 0.05813953488373613,
          "durationTicks": 5,
          "midi": 72,
          "name": "C5",
          "ticks": 18438,
          "time": 214.3953488372093,
          "velocity": 0.2283464566929134
        },
        {
          "duration": 0.15116279069766847,
          "durationTicks": 13,
          "midi": 81,
          "name": "A5",
          "ticks": 18438,
          "time": 214.3953488372093,
          "velocity": 0.11811023622047244
        },
        {
          "duration": 0.06976744186047767,
          "durationTicks": 6,
          "midi": 90,
          "name": "F#6",
          "ticks": 18438,
          "time": 214.3953488372093,
          "velocity": 0.14960629921259844
        },
        {
          "duration": 0.06976744186047767,
          "durationTicks": 6,
          "midi": 98,
          "name": "D7",
          "ticks": 18438,
          "time": 214.3953488372093,
          "velocity": 0.09448818897637795
        },
        {
          "duration": 0.023255813953511506,
          "durationTicks": 2,
          "midi": 58,
          "name": "A#3",
          "ticks": 18440,
          "time": 214.41860465116278,
          "velocity": 0.25196850393700787
        },
        {
          "duration": 0.08139534883721922,
          "durationTicks": 7,
          "midi": 82,
          "name": "A#5",
          "ticks": 18440,
          "time": 214.41860465116278,
          "velocity": 0.07874015748031496
        },
        {
          "duration": 0.023255813953511506,
          "durationTicks": 2,
          "midi": 46,
          "name": "A#2",
          "ticks": 18441,
          "time": 214.43023255813952,
          "velocity": 0.4015748031496063
        },
        {
          "duration": 0.18604651162792152,
          "durationTicks": 16,
          "midi": 77,
          "name": "F5",
          "ticks": 18441,
          "time": 214.43023255813952,
          "velocity": 0.2047244094488189
        },
        {
          "duration": 0.023255813953483084,
          "durationTicks": 2,
          "midi": 46,
          "name": "A#2",
          "ticks": 18444,
          "time": 214.46511627906978,
          "velocity": 0.36220472440944884
        },
        {
          "duration": 0.09302325581393234,
          "durationTicks": 8,
          "midi": 72,
          "name": "C5",
          "ticks": 18444,
          "time": 214.46511627906978,
          "velocity": 0.1968503937007874
        },
        {
          "duration": 0.04651162790696617,
          "durationTicks": 4,
          "midi": 46,
          "name": "A#2",
          "ticks": 18447,
          "time": 214.5,
          "velocity": 0.3779527559055118
        },
        {
          "duration": 0.023255813953483084,
          "durationTicks": 2,
          "midi": 54,
          "name": "F#3",
          "ticks": 18449,
          "time": 214.52325581395348,
          "velocity": 0.3779527559055118
        },
        {
          "duration": 0.08139534883721922,
          "durationTicks": 7,
          "midi": 101,
          "name": "F7",
          "ticks": 18450,
          "time": 214.53488372093022,
          "velocity": 0.14173228346456693
        },
        {
          "duration": 0.08139534883721922,
          "durationTicks": 7,
          "midi": 53,
          "name": "F3",
          "ticks": 18451,
          "time": 214.54651162790697,
          "velocity": 0.3779527559055118
        },
        {
          "duration": 0.06976744186047767,
          "durationTicks": 6,
          "midi": 93,
          "name": "A6",
          "ticks": 18451,
          "time": 214.54651162790697,
          "velocity": 0.11811023622047244
        },
        {
          "duration": 0.023255813953483084,
          "durationTicks": 2,
          "midi": 58,
          "name": "A#3",
          "ticks": 18455,
          "time": 214.59302325581396,
          "velocity": 0.2283464566929134
        },
        {
          "duration": 0.023255813953483084,
          "durationTicks": 2,
          "midi": 46,
          "name": "A#2",
          "ticks": 18456,
          "time": 214.6046511627907,
          "velocity": 0.2677165354330709
        },
        {
          "duration": 0.034883720930224626,
          "durationTicks": 3,
          "midi": 66,
          "name": "F#4",
          "ticks": 18457,
          "time": 214.61627906976744,
          "velocity": 0.2283464566929134
        },
        {
          "duration": 0.25581395348837077,
          "durationTicks": 22,
          "midi": 53,
          "name": "F3",
          "ticks": 18461,
          "time": 214.6627906976744,
          "velocity": 0.4409448818897638
        },
        {
          "duration": 0.40697674418606766,
          "durationTicks": 35,
          "midi": 72,
          "name": "C5",
          "ticks": 18461,
          "time": 214.6627906976744,
          "velocity": 0.2440944881889764
        },
        {
          "duration": 0.08139534883721922,
          "durationTicks": 7,
          "midi": 77,
          "name": "F5",
          "ticks": 18461,
          "time": 214.6627906976744,
          "velocity": 0.11811023622047244
        },
        {
          "duration": 0.1511627906976969,
          "durationTicks": 13,
          "midi": 79,
          "name": "G5",
          "ticks": 18461,
          "time": 214.6627906976744,
          "velocity": 0.36220472440944884
        },
        {
          "duration": 0.08139534883721922,
          "durationTicks": 7,
          "midi": 101,
          "name": "F7",
          "ticks": 18461,
          "time": 214.6627906976744,
          "velocity": 0.2125984251968504
        },
        {
          "duration": 0.12790697674418539,
          "durationTicks": 11,
          "midi": 67,
          "name": "G4",
          "ticks": 18462,
          "time": 214.67441860465115,
          "velocity": 0.2677165354330709
        },
        {
          "duration": 0.2325581395348877,
          "durationTicks": 20,
          "midi": 58,
          "name": "A#3",
          "ticks": 18463,
          "time": 214.6860465116279,
          "velocity": 0.2677165354330709
        },
        {
          "duration": 0.09302325581396076,
          "durationTicks": 8,
          "midi": 102,
          "name": "F#7",
          "ticks": 18463,
          "time": 214.6860465116279,
          "velocity": 0.09448818897637795
        },
        {
          "duration": 0.023255813953483084,
          "durationTicks": 2,
          "midi": 46,
          "name": "A#2",
          "ticks": 18465,
          "time": 214.7093023255814,
          "velocity": 0.36220472440944884
        },
        {
          "duration": 0.06976744186044925,
          "durationTicks": 6,
          "midi": 95,
          "name": "B6",
          "ticks": 18467,
          "time": 214.7325581395349,
          "velocity": 0.11811023622047244
        },
        {
          "duration": 0.06976744186044925,
          "durationTicks": 6,
          "midi": 98,
          "name": "D7",
          "ticks": 18467,
          "time": 214.7325581395349,
          "velocity": 0.09448818897637795
        },
        {
          "duration": 0.023255813953483084,
          "durationTicks": 2,
          "midi": 46,
          "name": "A#2",
          "ticks": 18468,
          "time": 214.74418604651163,
          "velocity": 0.3464566929133858
        },
        {
          "duration": 0.023255813953483084,
          "durationTicks": 2,
          "midi": 46,
          "name": "A#2",
          "ticks": 18471,
          "time": 214.77906976744185,
          "velocity": 0.3464566929133858
        },
        {
          "duration": 0.13953488372095535,
          "durationTicks": 12,
          "midi": 68,
          "name": "G#4",
          "ticks": 18473,
          "time": 214.80232558139534,
          "velocity": 0.2755905511811024
        },
        {
          "duration": 0.13953488372095535,
          "durationTicks": 12,
          "midi": 87,
          "name": "D#6",
          "ticks": 18473,
          "time": 214.80232558139534,
          "velocity": 0.14173228346456693
        },
        {
          "duration": 0.023255813953483084,
          "durationTicks": 2,
          "midi": 46,
          "name": "A#2",
          "ticks": 18474,
          "time": 214.8139534883721,
          "velocity": 0.3700787401574803
        },
        {
          "duration": 0.11627906976741542,
          "durationTicks": 10,
          "midi": 80,
          "name": "G#5",
          "ticks": 18474,
          "time": 214.8139534883721,
          "velocity": 0.33070866141732286
        },
        {
          "duration": 0.09302325581393234,
          "durationTicks": 8,
          "midi": 96,
          "name": "C7",
          "ticks": 18475,
          "time": 214.82558139534885,
          "velocity": 0.12598425196850394
        },
        {
          "duration": 0.09302325581393234,
          "durationTicks": 8,
          "midi": 99,
          "name": "D#7",
          "ticks": 18475,
          "time": 214.82558139534885,
          "velocity": 0.15748031496062992
        },
        {
          "duration": 0.023255813953483084,
          "durationTicks": 2,
          "midi": 46,
          "name": "A#2",
          "ticks": 18477,
          "time": 214.84883720930233,
          "velocity": 0.3700787401574803
        },
        {
          "duration": 0.023255813953483084,
          "durationTicks": 2,
          "midi": 46,
          "name": "A#2",
          "ticks": 18480,
          "time": 214.88372093023256,
          "velocity": 0.3779527559055118
        },
        {
          "duration": 0.023255813953511506,
          "durationTicks": 2,
          "midi": 46,
          "name": "A#2",
          "ticks": 18483,
          "time": 214.91860465116278,
          "velocity": 0.3858267716535433
        },
        {
          "duration": 0.023255813953511506,
          "durationTicks": 2,
          "midi": 59,
          "name": "B3",
          "ticks": 18483,
          "time": 214.91860465116278,
          "velocity": 0.25984251968503935
        },
        {
          "duration": 0.17441860465117998,
          "durationTicks": 15,
          "midi": 79,
          "name": "G5",
          "ticks": 18484,
          "time": 214.93023255813952,
          "velocity": 0.4015748031496063
        },
        {
          "duration": 0.15116279069766847,
          "durationTicks": 13,
          "midi": 67,
          "name": "G4",
          "ticks": 18485,
          "time": 214.9418604651163,
          "velocity": 0.2677165354330709
        },
        {
          "duration": 0.04651162790696617,
          "durationTicks": 4,
          "midi": 46,
          "name": "A#2",
          "ticks": 18486,
          "time": 214.95348837209303,
          "velocity": 0.3937007874015748
        },
        {
          "duration": 0.09302325581393234,
          "durationTicks": 8,
          "midi": 53,
          "name": "F3",
          "ticks": 18487,
          "time": 214.96511627906978,
          "velocity": 0.41732283464566927
        },
        {
          "duration": 0.023255813953483084,
          "durationTicks": 2,
          "midi": 45,
          "name": "A2",
          "ticks": 18490,
          "time": 215,
          "velocity": 0.41732283464566927
        },
        {
          "duration": 0.04651162790699459,
          "durationTicks": 4,
          "midi": 46,
          "name": "A#2",
          "ticks": 18492,
          "time": 215.02325581395348,
          "velocity": 0.36220472440944884
        },
        {
          "duration": 0.023255813953511506,
          "durationTicks": 2,
          "midi": 54,
          "name": "F#3",
          "ticks": 18495,
          "time": 215.0581395348837,
          "velocity": 0.29133858267716534
        },
        {
          "duration": 0.04651162790696617,
          "durationTicks": 4,
          "midi": 53,
          "name": "F3",
          "ticks": 18497,
          "time": 215.08139534883722,
          "velocity": 0.4094488188976378
        },
        {
          "duration": 0.06976744186044925,
          "durationTicks": 6,
          "midi": 66,
          "name": "F#4",
          "ticks": 18498,
          "time": 215.09302325581396,
          "velocity": 0.23622047244094488
        },
        {
          "duration": 0.09302325581396076,
          "durationTicks": 8,
          "midi": 45,
          "name": "A2",
          "ticks": 18499,
          "time": 215.1046511627907,
          "velocity": 0.4645669291338583
        },
        {
          "duration": 0.04651162790696617,
          "durationTicks": 4,
          "midi": 72,
          "name": "C5",
          "ticks": 18500,
          "time": 215.11627906976744,
          "velocity": 0.13385826771653545
        },
        {
          "duration": 0.023255813953483084,
          "durationTicks": 2,
          "midi": 53,
          "name": "F3",
          "ticks": 18502,
          "time": 215.13953488372093,
          "velocity": 0.25984251968503935
        },
        {
          "duration": 0.03488372093025305,
          "durationTicks": 3,
          "midi": 65,
          "name": "F4",
          "ticks": 18504,
          "time": 215.1627906976744,
          "velocity": 0.23622047244094488
        },
        {
          "duration": 0.03488372093025305,
          "durationTicks": 3,
          "midi": 71,
          "name": "B4",
          "ticks": 18504,
          "time": 215.1627906976744,
          "velocity": 0.09448818897637795
        },
        {
          "duration": 0.06976744186047767,
          "durationTicks": 6,
          "midi": 78,
          "name": "F#5",
          "ticks": 18506,
          "time": 215.1860465116279,
          "velocity": 0.08661417322834646
        },
        {
          "duration": 0.023255813953483084,
          "durationTicks": 2,
          "midi": 54,
          "name": "F#3",
          "ticks": 18507,
          "time": 215.19767441860466,
          "velocity": 0.3228346456692913
        },
        {
          "duration": 0.6744186046511516,
          "durationTicks": 58,
          "midi": 74,
          "name": "D5",
          "ticks": 18507,
          "time": 215.19767441860466,
          "velocity": 0.4645669291338583
        },
        {
          "duration": 0.1046511627907023,
          "durationTicks": 9,
          "midi": 45,
          "name": "A2",
          "ticks": 18508,
          "time": 215.2093023255814,
          "velocity": 0.4645669291338583
        },
        {
          "duration": 0.11627906976744384,
          "durationTicks": 10,
          "midi": 62,
          "name": "D4",
          "ticks": 18508,
          "time": 215.2093023255814,
          "velocity": 0.4015748031496063
        },
        {
          "duration": 0.05813953488370771,
          "durationTicks": 5,
          "midi": 71,
          "name": "B4",
          "ticks": 18509,
          "time": 215.22093023255815,
          "velocity": 0.16535433070866143
        },
        {
          "duration": 0.03488372093025305,
          "durationTicks": 3,
          "midi": 67,
          "name": "G4",
          "ticks": 18515,
          "time": 215.2906976744186,
          "velocity": 0.07086614173228346
        },
        {
          "duration": 0.023255813953483084,
          "durationTicks": 2,
          "midi": 57,
          "name": "A3",
          "ticks": 18517,
          "time": 215.3139534883721,
          "velocity": 0.33070866141732286
        },
        {
          "duration": 0.11627906976744384,
          "durationTicks": 10,
          "midi": 79,
          "name": "G5",
          "ticks": 18518,
          "time": 215.32558139534885,
          "velocity": 0.3700787401574803
        },
        {
          "duration": 0.22093023255811772,
          "durationTicks": 19,
          "midi": 55,
          "name": "G3",
          "ticks": 18519,
          "time": 215.3372093023256,
          "velocity": 0.49606299212598426
        },
        {
          "duration": 0.16279069767441,
          "durationTicks": 14,
          "midi": 101,
          "name": "F7",
          "ticks": 18519,
          "time": 215.3372093023256,
          "velocity": 0.2047244094488189
        },
        {
          "duration": 0.034883720930224626,
          "durationTicks": 3,
          "midi": 44,
          "name": "G#2",
          "ticks": 18521,
          "time": 215.36046511627907,
          "velocity": 0.4015748031496063
        },
        {
          "duration": 0.04651162790699459,
          "durationTicks": 4,
          "midi": 62,
          "name": "D4",
          "ticks": 18524,
          "time": 215.3953488372093,
          "velocity": 0.3464566929133858
        },
        {
          "duration": 0.03488372093025305,
          "durationTicks": 3,
          "midi": 72,
          "name": "C5",
          "ticks": 18525,
          "time": 215.40697674418604,
          "velocity": 0.12598425196850394
        },
        {
          "duration": 0.04651162790699459,
          "durationTicks": 4,
          "midi": 43,
          "name": "G2",
          "ticks": 18526,
          "time": 215.41860465116278,
          "velocity": 0.33070866141732286
        },
        {
          "duration": 0.09302325581396076,
          "durationTicks": 8,
          "midi": 60,
          "name": "C4",
          "ticks": 18526,
          "time": 215.41860465116278,
          "velocity": 0.4094488188976378
        },
        {
          "duration": 0.1046511627907023,
          "durationTicks": 9,
          "midi": 84,
          "name": "C6",
          "ticks": 18526,
          "time": 215.41860465116278,
          "velocity": 0.2440944881889764
        },
        {
          "duration": 0.06976744186047767,
          "durationTicks": 6,
          "midi": 93,
          "name": "A6",
          "ticks": 18527,
          "time": 215.43023255813952,
          "velocity": 0.10236220472440945
        },
        {
          "duration": 0.023255813953483084,
          "durationTicks": 2,
          "midi": 43,
          "name": "G2",
          "ticks": 18531,
          "time": 215.47674418604652,
          "velocity": 0.36220472440944884
        },
        {
          "duration": 0.023255813953483084,
          "durationTicks": 2,
          "midi": 65,
          "name": "F4",
          "ticks": 18532,
          "time": 215.48837209302326,
          "velocity": 0.2283464566929134
        },
        {
          "duration": 0.034883720930224626,
          "durationTicks": 3,
          "midi": 43,
          "name": "G2",
          "ticks": 18534,
          "time": 215.51162790697674,
          "velocity": 0.3779527559055118
        },
        {
          "duration": 0.08139534883721922,
          "durationTicks": 7,
          "midi": 62,
          "name": "D4",
          "ticks": 18535,
          "time": 215.52325581395348,
          "velocity": 0.41732283464566927
        },
        {
          "duration": 0.1046511627907023,
          "durationTicks": 9,
          "midi": 81,
          "name": "A5",
          "ticks": 18535,
          "time": 215.52325581395348,
          "velocity": 0.09448818897637795
        },
        {
          "duration": 0.023255813953483084,
          "durationTicks": 2,
          "midi": 43,
          "name": "G2",
          "ticks": 18539,
          "time": 215.56976744186048,
          "velocity": 0.3858267716535433
        },
        {
          "duration": 0.15116279069766847,
          "durationTicks": 13,
          "midi": 77,
          "name": "F5",
          "ticks": 18540,
          "time": 215.58139534883722,
          "velocity": 0.18110236220472442
        },
        {
          "duration": 0.16279069767441,
          "durationTicks": 14,
          "midi": 84,
          "name": "C6",
          "ticks": 18540,
          "time": 215.58139534883722,
          "velocity": 0.2755905511811024
        },
        {
          "duration": 1,
          "durationTicks": 86,
          "midi": 79,
          "name": "G5",
          "ticks": 18541,
          "time": 215.59302325581396,
          "velocity": 0.3700787401574803
        },
        {
          "duration": 0.12790697674418539,
          "durationTicks": 11,
          "midi": 55,
          "name": "G3",
          "ticks": 18542,
          "time": 215.6046511627907,
          "velocity": 0.4094488188976378
        },
        {
          "duration": 0.06976744186044925,
          "durationTicks": 6,
          "midi": 65,
          "name": "F4",
          "ticks": 18542,
          "time": 215.6046511627907,
          "velocity": 0.2283464566929134
        },
        {
          "duration": 0.023255813953483084,
          "durationTicks": 2,
          "midi": 47,
          "name": "B2",
          "ticks": 18543,
          "time": 215.61627906976744,
          "velocity": 0.23622047244094488
        },
        {
          "duration": 0.19767441860466306,
          "durationTicks": 17,
          "midi": 72,
          "name": "C5",
          "ticks": 18544,
          "time": 215.62790697674419,
          "velocity": 0.18110236220472442
        },
        {
          "duration": 0.05813953488373613,
          "durationTicks": 5,
          "midi": 62,
          "name": "D4",
          "ticks": 18545,
          "time": 215.63953488372093,
          "velocity": 0.3700787401574803
        },
        {
          "duration": 0.08139534883721922,
          "durationTicks": 7,
          "midi": 81,
          "name": "A5",
          "ticks": 18546,
          "time": 215.65116279069767,
          "velocity": 0.10236220472440945
        },
        {
          "duration": 0.023255813953483084,
          "durationTicks": 2,
          "midi": 44,
          "name": "G#2",
          "ticks": 18547,
          "time": 215.6627906976744,
          "velocity": 0.36220472440944884
        },
        {
          "duration": 0.023255813953483084,
          "durationTicks": 2,
          "midi": 62,
          "name": "D4",
          "ticks": 18551,
          "time": 215.7093023255814,
          "velocity": 0.33070866141732286
        },
        {
          "duration": 0.08139534883721922,
          "durationTicks": 7,
          "midi": 60,
          "name": "C4",
          "ticks": 18553,
          "time": 215.7325581395349,
          "velocity": 0.30708661417322836
        },
        {
          "duration": 0.05813953488373613,
          "durationTicks": 5,
          "midi": 55,
          "name": "G3",
          "ticks": 18555,
          "time": 215.75581395348837,
          "velocity": 0.14960629921259844
        },
        {
          "duration": 0.023255813953483084,
          "durationTicks": 2,
          "midi": 61,
          "name": "C#4",
          "ticks": 18560,
          "time": 215.8139534883721,
          "velocity": 0.33858267716535434
        },
        {
          "duration": 0.38372093023255616,
          "durationTicks": 33,
          "midi": 101,
          "name": "F7",
          "ticks": 18560,
          "time": 215.8139534883721,
          "velocity": 0.23622047244094488
        },
        {
          "duration": 0.023255813953483084,
          "durationTicks": 2,
          "midi": 43,
          "name": "G2",
          "ticks": 18561,
          "time": 215.82558139534885,
          "velocity": 0.3464566929133858
        },
        {
          "duration": 0.44186046511626387,
          "durationTicks": 38,
          "midi": 67,
          "name": "G4",
          "ticks": 18561,
          "time": 215.82558139534885,
          "velocity": 0.2755905511811024
        },
        {
          "duration": 0.05813953488370771,
          "durationTicks": 5,
          "midi": 62,
          "name": "D4",
          "ticks": 18562,
          "time": 215.8372093023256,
          "velocity": 0.2283464566929134
        },
        {
          "duration": 0.023255813953483084,
          "durationTicks": 2,
          "midi": 44,
          "name": "G#2",
          "ticks": 18563,
          "time": 215.84883720930233,
          "velocity": 0.4094488188976378
        },
        {
          "duration": 0.023255813953483084,
          "durationTicks": 2,
          "midi": 54,
          "name": "F#3",
          "ticks": 18563,
          "time": 215.84883720930233,
          "velocity": 0.33858267716535434
        },
        {
          "duration": 0.08139534883721922,
          "durationTicks": 7,
          "midi": 55,
          "name": "G3",
          "ticks": 18565,
          "time": 215.87209302325581,
          "velocity": 0.3858267716535433
        },
        {
          "duration": 0.13953488372092693,
          "durationTicks": 12,
          "midi": 95,
          "name": "B6",
          "ticks": 18566,
          "time": 215.88372093023256,
          "velocity": 0.10236220472440945
        },
        {
          "duration": 0.034883720930224626,
          "durationTicks": 3,
          "midi": 42,
          "name": "F#2",
          "ticks": 18573,
          "time": 215.96511627906978,
          "velocity": 0.3937007874015748
        },
        {
          "duration": 0.13953488372092693,
          "durationTicks": 12,
          "midi": 74,
          "name": "D5",
          "ticks": 18573,
          "time": 215.96511627906978,
          "velocity": 0.25984251968503935
        },
        {
          "duration": 0.11627906976744384,
          "durationTicks": 10,
          "midi": 55,
          "name": "G3",
          "ticks": 18575,
          "time": 215.98837209302326,
          "velocity": 0.47244094488188976
        },
        {
          "duration": 0.04651162790696617,
          "durationTicks": 4,
          "midi": 60,
          "name": "C4",
          "ticks": 18575,
          "time": 215.98837209302326,
          "velocity": 0.1732283464566929
        },
        {
          "duration": 0.05813953488373613,
          "durationTicks": 5,
          "midi": 99,
          "name": "D#7",
          "ticks": 18578,
          "time": 216.02325581395348,
          "velocity": 0.09448818897637795
        },
        {
          "duration": 0.04651162790699459,
          "durationTicks": 4,
          "midi": 43,
          "name": "G2",
          "ticks": 18580,
          "time": 216.04651162790697,
          "velocity": 0.3858267716535433
        },
        {
          "duration": 0.034883720930224626,
          "durationTicks": 3,
          "midi": 95,
          "name": "B6",
          "ticks": 18582,
          "time": 216.06976744186048,
          "velocity": 0.09448818897637795
        },
        {
          "duration": 0.023255813953483084,
          "durationTicks": 2,
          "midi": 44,
          "name": "G#2",
          "ticks": 18586,
          "time": 216.11627906976744,
          "velocity": 0.47244094488188976
        },
        {
          "duration": 0.023255813953483084,
          "durationTicks": 2,
          "midi": 55,
          "name": "G3",
          "ticks": 18586,
          "time": 216.11627906976744,
          "velocity": 0.3228346456692913
        },
        {
          "duration": 0.48837209302325846,
          "durationTicks": 42,
          "midi": 60,
          "name": "C4",
          "ticks": 18588,
          "time": 216.13953488372093,
          "velocity": 0.31496062992125984
        },
        {
          "duration": 0.06976744186047767,
          "durationTicks": 6,
          "midi": 55,
          "name": "G3",
          "ticks": 18589,
          "time": 216.15116279069767,
          "velocity": 0.2677165354330709
        },
        {
          "duration": 0.38372093023255616,
          "durationTicks": 33,
          "midi": 74,
          "name": "D5",
          "ticks": 18595,
          "time": 216.22093023255815,
          "velocity": 0.23622047244094488
        },
        {
          "duration": 0.24418604651162923,
          "durationTicks": 21,
          "midi": 55,
          "name": "G3",
          "ticks": 18596,
          "time": 216.2325581395349,
          "velocity": 0.4251968503937008
        },
        {
          "duration": 0.023255813953483084,
          "durationTicks": 2,
          "midi": 48,
          "name": "C3",
          "ticks": 18597,
          "time": 216.24418604651163,
          "velocity": 0.3464566929133858
        },
        {
          "duration": 0.023255813953511506,
          "durationTicks": 2,
          "midi": 44,
          "name": "G#2",
          "ticks": 18602,
          "time": 216.30232558139534,
          "velocity": 0.4409448818897638
        },
        {
          "duration": 0.023255813953483084,
          "durationTicks": 2,
          "midi": 48,
          "name": "C3",
          "ticks": 18608,
          "time": 216.37209302325581,
          "velocity": 0.3779527559055118
        },
        {
          "duration": 0.023255813953483084,
          "durationTicks": 2,
          "midi": 48,
          "name": "C3",
          "ticks": 18611,
          "time": 216.40697674418604,
          "velocity": 0.3858267716535433
        },
        {
          "duration": 0.12790697674418539,
          "durationTicks": 11,
          "midi": 55,
          "name": "G3",
          "ticks": 18618,
          "time": 216.48837209302326,
          "velocity": 0.4566929133858268
        },
        {
          "duration": 0.023255813953483084,
          "durationTicks": 2,
          "midi": 44,
          "name": "G#2",
          "ticks": 18620,
          "time": 216.51162790697674,
          "velocity": 0.4330708661417323
        },
        {
          "duration": 0.034883720930224626,
          "durationTicks": 3,
          "midi": 83,
          "name": "B5",
          "ticks": 18625,
          "time": 216.56976744186048,
          "velocity": 0.08661417322834646
        },
        {
          "duration": 0.023255813953483084,
          "durationTicks": 2,
          "midi": 44,
          "name": "G#2",
          "ticks": 18628,
          "time": 216.6046511627907,
          "velocity": 0.3779527559055118
        },
        {
          "duration": 0.034883720930224626,
          "durationTicks": 3,
          "midi": 56,
          "name": "G#3",
          "ticks": 18629,
          "time": 216.61627906976744,
          "velocity": 0.44881889763779526
        },
        {
          "duration": 0.33720930232559,
          "durationTicks": 29,
          "midi": 79,
          "name": "G5",
          "ticks": 18629,
          "time": 216.61627906976744,
          "velocity": 0.14173228346456693
        },
        {
          "duration": 0.38372093023255616,
          "durationTicks": 33,
          "midi": 67,
          "name": "G4",
          "ticks": 18630,
          "time": 216.62790697674419,
          "velocity": 0.2283464566929134
        },
        {
          "duration": 0.1046511627907023,
          "durationTicks": 9,
          "midi": 55,
          "name": "G3",
          "ticks": 18632,
          "time": 216.65116279069767,
          "velocity": 0.44881889763779526
        },
        {
          "duration": 0.023255813953511506,
          "durationTicks": 2,
          "midi": 43,
          "name": "G2",
          "ticks": 18634,
          "time": 216.67441860465115,
          "velocity": 0.3700787401574803
        },
        {
          "duration": 0.023255813953483084,
          "durationTicks": 2,
          "midi": 43,
          "name": "G2",
          "ticks": 18637,
          "time": 216.7093023255814,
          "velocity": 0.33858267716535434
        },
        {
          "duration": 0.5,
          "durationTicks": 43,
          "midi": 74,
          "name": "D5",
          "ticks": 18641,
          "time": 216.75581395348837,
          "velocity": 0.2204724409448819
        },
        {
          "duration": 0.2325581395348877,
          "durationTicks": 20,
          "midi": 55,
          "name": "G3",
          "ticks": 18642,
          "time": 216.7674418604651,
          "velocity": 0.49606299212598426
        },
        {
          "duration": 0.06976744186047767,
          "durationTicks": 6,
          "midi": 60,
          "name": "C4",
          "ticks": 18643,
          "time": 216.77906976744185,
          "velocity": 0.18110236220472442
        },
        {
          "duration": 0.023255813953511506,
          "durationTicks": 2,
          "midi": 48,
          "name": "C3",
          "ticks": 18644,
          "time": 216.7906976744186,
          "velocity": 0.30708661417322836
        },
        {
          "duration": 0.1511627906976969,
          "durationTicks": 13,
          "midi": 83,
          "name": "B5",
          "ticks": 18644,
          "time": 216.7906976744186,
          "velocity": 0.11023622047244094
        },
        {
          "duration": 0.04651162790699459,
          "durationTicks": 4,
          "midi": 99,
          "name": "D#7",
          "ticks": 18645,
          "time": 216.80232558139534,
          "velocity": 0.09448818897637795
        },
        {
          "duration": 0.023255813953483084,
          "durationTicks": 2,
          "midi": 43,
          "name": "G2",
          "ticks": 18647,
          "time": 216.82558139534885,
          "velocity": 0.3858267716535433
        },
        {
          "duration": 0.11627906976744384,
          "durationTicks": 10,
          "midi": 60,
          "name": "C4",
          "ticks": 18650,
          "time": 216.86046511627907,
          "velocity": 0.1968503937007874
        },
        {
          "duration": 0.023255813953483084,
          "durationTicks": 2,
          "midi": 48,
          "name": "C3",
          "ticks": 18657,
          "time": 216.9418604651163,
          "velocity": 0.3228346456692913
        },
        {
          "duration": 0.023255813953483084,
          "durationTicks": 2,
          "midi": 43,
          "name": "G2",
          "ticks": 18660,
          "time": 216.97674418604652,
          "velocity": 0.3858267716535433
        },
        {
          "duration": 0.13953488372092693,
          "durationTicks": 12,
          "midi": 48,
          "name": "C3",
          "ticks": 18662,
          "time": 217,
          "velocity": 0.36220472440944884
        },
        {
          "duration": 0.05813953488370771,
          "durationTicks": 5,
          "midi": 83,
          "name": "B5",
          "ticks": 18662,
          "time": 217,
          "velocity": 0.07874015748031496
        },
        {
          "duration": 0.2093023255814046,
          "durationTicks": 18,
          "midi": 99,
          "name": "D#7",
          "ticks": 18662,
          "time": 217,
          "velocity": 0.2204724409448819
        },
        {
          "duration": 0.25581395348837077,
          "durationTicks": 22,
          "midi": 68,
          "name": "G#4",
          "ticks": 18663,
          "time": 217.01162790697674,
          "velocity": 0.3543307086614173
        },
        {
          "duration": 0.24418604651162923,
          "durationTicks": 21,
          "midi": 87,
          "name": "D#6",
          "ticks": 18663,
          "time": 217.01162790697674,
          "velocity": 0.2677165354330709
        },
        {
          "duration": 0.023255813953483084,
          "durationTicks": 2,
          "midi": 55,
          "name": "G3",
          "ticks": 18664,
          "time": 217.02325581395348,
          "velocity": 0.4094488188976378
        },
        {
          "duration": 0.15116279069766847,
          "durationTicks": 13,
          "midi": 71,
          "name": "B4",
          "ticks": 18664,
          "time": 217.02325581395348,
          "velocity": 0.14960629921259844
        },
        {
          "duration": 0.04651162790699459,
          "durationTicks": 4,
          "midi": 91,
          "name": "G6",
          "ticks": 18664,
          "time": 217.02325581395348,
          "velocity": 0.11023622047244094
        },
        {
          "duration": 0.05813953488373613,
          "durationTicks": 5,
          "midi": 102,
          "name": "F#7",
          "ticks": 18664,
          "time": 217.02325581395348,
          "velocity": 0.14173228346456693
        },
        {
          "duration": 0.17441860465117998,
          "durationTicks": 15,
          "midi": 55,
          "name": "G3",
          "ticks": 18667,
          "time": 217.0581395348837,
          "velocity": 0.4566929133858268
        },
        {
          "duration": 0.023255813953483084,
          "durationTicks": 2,
          "midi": 49,
          "name": "C#3",
          "ticks": 18674,
          "time": 217.13953488372093,
          "velocity": 0.2992125984251969
        },
        {
          "duration": 0.04651162790696617,
          "durationTicks": 4,
          "midi": 91,
          "name": "G6",
          "ticks": 18674,
          "time": 217.13953488372093,
          "velocity": 0.07874015748031496
        },
        {
          "duration": 0.023255813953483084,
          "durationTicks": 2,
          "midi": 44,
          "name": "G#2",
          "ticks": 18680,
          "time": 217.2093023255814,
          "velocity": 0.4015748031496063
        },
        {
          "duration": 0.023255813953483084,
          "durationTicks": 2,
          "midi": 47,
          "name": "B2",
          "ticks": 18684,
          "time": 217.25581395348837,
          "velocity": 0.2283464566929134
        },
        {
          "duration": 0.023255813953483084,
          "durationTicks": 2,
          "midi": 55,
          "name": "G3",
          "ticks": 18684,
          "time": 217.25581395348837,
          "velocity": 0.41732283464566927
        },
        {
          "duration": 0.08139534883721922,
          "durationTicks": 7,
          "midi": 78,
          "name": "F#5",
          "ticks": 18684,
          "time": 217.25581395348837,
          "velocity": 0.11811023622047244
        },
        {
          "duration": 0.38372093023255616,
          "durationTicks": 33,
          "midi": 69,
          "name": "A4",
          "ticks": 18685,
          "time": 217.2674418604651,
          "velocity": 0.36220472440944884
        },
        {
          "duration": 0.034883720930224626,
          "durationTicks": 3,
          "midi": 74,
          "name": "D5",
          "ticks": 18685,
          "time": 217.2674418604651,
          "velocity": 0.16535433070866143
        },
        {
          "duration": 0.06976744186047767,
          "durationTicks": 6,
          "midi": 45,
          "name": "A2",
          "ticks": 18686,
          "time": 217.27906976744185,
          "velocity": 0.4330708661417323
        },
        {
          "duration": 0.08139534883721922,
          "durationTicks": 7,
          "midi": 64,
          "name": "E4",
          "ticks": 18686,
          "time": 217.27906976744185,
          "velocity": 0.25196850393700787
        },
        {
          "duration": 0.03488372093025305,
          "durationTicks": 3,
          "midi": 83,
          "name": "B5",
          "ticks": 18686,
          "time": 217.27906976744185,
          "velocity": 0.07874015748031496
        },
        {
          "duration": 0.05813953488373613,
          "durationTicks": 5,
          "midi": 91,
          "name": "G6",
          "ticks": 18686,
          "time": 217.27906976744185,
          "velocity": 0.11023622047244094
        },
        {
          "duration": 0.05813953488370771,
          "durationTicks": 5,
          "midi": 74,
          "name": "D5",
          "ticks": 18690,
          "time": 217.32558139534885,
          "velocity": 0.09448818897637795
        },
        {
          "duration": 0.034883720930224626,
          "durationTicks": 3,
          "midi": 57,
          "name": "A3",
          "ticks": 18693,
          "time": 217.36046511627907,
          "velocity": 0.2992125984251969
        },
        {
          "duration": 0.034883720930224626,
          "durationTicks": 3,
          "midi": 44,
          "name": "G#2",
          "ticks": 18694,
          "time": 217.37209302325581,
          "velocity": 0.33858267716535434
        },
        {
          "duration": 0.023255813953483084,
          "durationTicks": 2,
          "midi": 58,
          "name": "A#3",
          "ticks": 18696,
          "time": 217.3953488372093,
          "velocity": 0.41732283464566927
        },
        {
          "duration": 0.25581395348837077,
          "durationTicks": 22,
          "midi": 62,
          "name": "D4",
          "ticks": 18696,
          "time": 217.3953488372093,
          "velocity": 0.3228346456692913
        },
        {
          "duration": 0.15116279069766847,
          "durationTicks": 13,
          "midi": 72,
          "name": "C5",
          "ticks": 18696,
          "time": 217.3953488372093,
          "velocity": 0.41732283464566927
        },
        {
          "duration": 0.12790697674418539,
          "durationTicks": 11,
          "midi": 85,
          "name": "C#6",
          "ticks": 18696,
          "time": 217.3953488372093,
          "velocity": 0.10236220472440945
        },
        {
          "duration": 0.09302325581396076,
          "durationTicks": 8,
          "midi": 91,
          "name": "G6",
          "ticks": 18696,
          "time": 217.3953488372093,
          "velocity": 0.1732283464566929
        },
        {
          "duration": 0.24418604651162923,
          "durationTicks": 21,
          "midi": 45,
          "name": "A2",
          "ticks": 18697,
          "time": 217.40697674418604,
          "velocity": 0.4566929133858268
        },
        {
          "duration": 0.11627906976744384,
          "durationTicks": 10,
          "midi": 100,
          "name": "E7",
          "ticks": 18697,
          "time": 217.40697674418604,
          "velocity": 0.14173228346456693
        },
        {
          "duration": 0.034883720930224626,
          "durationTicks": 3,
          "midi": 91,
          "name": "G6",
          "ticks": 18706,
          "time": 217.51162790697674,
          "velocity": 0.09448818897637795
        },
        {
          "duration": 0.034883720930224626,
          "durationTicks": 3,
          "midi": 73,
          "name": "C#5",
          "ticks": 18717,
          "time": 217.63953488372093,
          "velocity": 0.12598425196850394
        },
        {
          "duration": 0.09302325581396076,
          "durationTicks": 8,
          "midi": 81,
          "name": "A5",
          "ticks": 18718,
          "time": 217.65116279069767,
          "velocity": 0.23622047244094488
        },
        {
          "duration": 0.11627906976744384,
          "durationTicks": 10,
          "midi": 88,
          "name": "E6",
          "ticks": 18718,
          "time": 217.65116279069767,
          "velocity": 0.1732283464566929
        },
        {
          "duration": 0.09302325581396076,
          "durationTicks": 8,
          "midi": 100,
          "name": "E7",
          "ticks": 18718,
          "time": 217.65116279069767,
          "velocity": 0.1889763779527559
        },
        {
          "duration": 0.08139534883721922,
          "durationTicks": 7,
          "midi": 103,
          "name": "G7",
          "ticks": 18718,
          "time": 217.65116279069767,
          "velocity": 0.1968503937007874
        },
        {
          "duration": 0.2325581395348877,
          "durationTicks": 20,
          "midi": 57,
          "name": "A3",
          "ticks": 18719,
          "time": 217.6627906976744,
          "velocity": 0.3937007874015748
        },
        {
          "duration": 0.05813953488373613,
          "durationTicks": 5,
          "midi": 62,
          "name": "D4",
          "ticks": 18719,
          "time": 217.6627906976744,
          "velocity": 0.23622047244094488
        },
        {
          "duration": 0.03488372093025305,
          "durationTicks": 3,
          "midi": 79,
          "name": "G5",
          "ticks": 18719,
          "time": 217.6627906976744,
          "velocity": 0.11811023622047244
        },
        {
          "duration": 0.22093023255814614,
          "durationTicks": 19,
          "midi": 85,
          "name": "C#6",
          "ticks": 18720,
          "time": 217.67441860465115,
          "velocity": 0.16535433070866143
        },
        {
          "duration": 0.1860465116278931,
          "durationTicks": 16,
          "midi": 45,
          "name": "A2",
          "ticks": 18723,
          "time": 217.7093023255814,
          "velocity": 0.36220472440944884
        },
        {
          "duration": 0.023255813953483084,
          "durationTicks": 2,
          "midi": 64,
          "name": "E4",
          "ticks": 18723,
          "time": 217.7093023255814,
          "velocity": 0.2283464566929134
        },
        {
          "duration": 0.05813953488370771,
          "durationTicks": 5,
          "midi": 79,
          "name": "G5",
          "ticks": 18724,
          "time": 217.72093023255815,
          "velocity": 0.07086614173228346
        },
        {
          "duration": 0.04651162790696617,
          "durationTicks": 4,
          "midi": 62,
          "name": "D4",
          "ticks": 18727,
          "time": 217.75581395348837,
          "velocity": 0.2677165354330709
        },
        {
          "duration": 0.11627906976744384,
          "durationTicks": 10,
          "midi": 80,
          "name": "G#5",
          "ticks": 18729,
          "time": 217.77906976744185,
          "velocity": 0.2677165354330709
        },
        {
          "duration": 0.08139534883721922,
          "durationTicks": 7,
          "midi": 68,
          "name": "G#4",
          "ticks": 18731,
          "time": 217.80232558139534,
          "velocity": 0.33858267716535434
        },
        {
          "duration": 0.0813953488371908,
          "durationTicks": 7,
          "midi": 62,
          "name": "D4",
          "ticks": 18732,
          "time": 217.8139534883721,
          "velocity": 0.23622047244094488
        },
        {
          "duration": 0.06976744186047767,
          "durationTicks": 6,
          "midi": 64,
          "name": "E4",
          "ticks": 18738,
          "time": 217.88372093023256,
          "velocity": 0.1968503937007874
        },
        {
          "duration": 0.023255813953483084,
          "durationTicks": 2,
          "midi": 56,
          "name": "G#3",
          "ticks": 18740,
          "time": 217.90697674418604,
          "velocity": 0.4330708661417323
        },
        {
          "duration": 0.1046511627907023,
          "durationTicks": 9,
          "midi": 79,
          "name": "G5",
          "ticks": 18741,
          "time": 217.91860465116278,
          "velocity": 0.3937007874015748
        },
        {
          "duration": 0.08139534883721922,
          "durationTicks": 7,
          "midi": 101,
          "name": "F7",
          "ticks": 18741,
          "time": 217.91860465116278,
          "velocity": 0.16535433070866143
        },
        {
          "duration": 0.09302325581396076,
          "durationTicks": 8,
          "midi": 57,
          "name": "A3",
          "ticks": 18742,
          "time": 217.93023255813952,
          "velocity": 0.4015748031496063
        },
        {
          "duration": 0.08139534883721922,
          "durationTicks": 7,
          "midi": 67,
          "name": "G4",
          "ticks": 18742,
          "time": 217.93023255813952,
          "velocity": 0.28346456692913385
        },
        {
          "duration": 0.09302325581393234,
          "durationTicks": 8,
          "midi": 45,
          "name": "A2",
          "ticks": 18743,
          "time": 217.9418604651163,
          "velocity": 0.3858267716535433
        },
        {
          "duration": 0.04651162790696617,
          "durationTicks": 4,
          "midi": 62,
          "name": "D4",
          "ticks": 18745,
          "time": 217.96511627906978,
          "velocity": 0.16535433070866143
        },
        {
          "duration": 0.023255813953483084,
          "durationTicks": 2,
          "midi": 66,
          "name": "F#4",
          "ticks": 18749,
          "time": 218.01162790697674,
          "velocity": 0.25196850393700787
        },
        {
          "duration": 0.17441860465117998,
          "durationTicks": 15,
          "midi": 69,
          "name": "A4",
          "ticks": 18750,
          "time": 218.02325581395348,
          "velocity": 0.2755905511811024
        },
        {
          "duration": 0.13953488372092693,
          "durationTicks": 12,
          "midi": 85,
          "name": "C#6",
          "ticks": 18750,
          "time": 218.02325581395348,
          "velocity": 0.1732283464566929
        },
        {
          "duration": 0.023255813953483084,
          "durationTicks": 2,
          "midi": 56,
          "name": "G#3",
          "ticks": 18751,
          "time": 218.03488372093022,
          "velocity": 0.4409448818897638
        },
        {
          "duration": 0.06976744186047767,
          "durationTicks": 6,
          "midi": 62,
          "name": "D4",
          "ticks": 18751,
          "time": 218.03488372093022,
          "velocity": 0.2440944881889764
        },
        {
          "duration": 0.11627906976744384,
          "durationTicks": 10,
          "midi": 65,
          "name": "F4",
          "ticks": 18751,
          "time": 218.03488372093022,
          "velocity": 0.3543307086614173
        },
        {
          "duration": 0.1046511627907023,
          "durationTicks": 9,
          "midi": 88,
          "name": "E6",
          "ticks": 18751,
          "time": 218.03488372093022,
          "velocity": 0.12598425196850394
        },
        {
          "duration": 0.023255813953511506,
          "durationTicks": 2,
          "midi": 50,
          "name": "D3",
          "ticks": 18752,
          "time": 218.04651162790697,
          "velocity": 0.3228346456692913
        },
        {
          "duration": 0.11627906976744384,
          "durationTicks": 10,
          "midi": 84,
          "name": "C6",
          "ticks": 18752,
          "time": 218.04651162790697,
          "velocity": 0.14960629921259844
        },
        {
          "duration": 0.16279069767443843,
          "durationTicks": 14,
          "midi": 57,
          "name": "A3",
          "ticks": 18753,
          "time": 218.0581395348837,
          "velocity": 0.4330708661417323
        },
        {
          "duration": 0.023255813953483084,
          "durationTicks": 2,
          "midi": 45,
          "name": "A2",
          "ticks": 18754,
          "time": 218.06976744186048,
          "velocity": 0.4015748031496063
        },
        {
          "duration": 0.0813953488371908,
          "durationTicks": 7,
          "midi": 45,
          "name": "A2",
          "ticks": 18757,
          "time": 218.1046511627907,
          "velocity": 0.4330708661417323
        },
        {
          "duration": 0.034883720930224626,
          "durationTicks": 3,
          "midi": 62,
          "name": "D4",
          "ticks": 18758,
          "time": 218.11627906976744,
          "velocity": 0.25984251968503935
        },
        {
          "duration": 0.023255813953483084,
          "durationTicks": 2,
          "midi": 64,
          "name": "E4",
          "ticks": 18761,
          "time": 218.15116279069767,
          "velocity": 0.23622047244094488
        },
        {
          "duration": 0.12790697674418539,
          "durationTicks": 11,
          "midi": 62,
          "name": "D4",
          "ticks": 18763,
          "time": 218.17441860465115,
          "velocity": 0.3858267716535433
        },
        {
          "duration": 0.16279069767443843,
          "durationTicks": 14,
          "midi": 74,
          "name": "D5",
          "ticks": 18763,
          "time": 218.17441860465115,
          "velocity": 0.4015748031496063
        },
        {
          "duration": 0.023255813953511506,
          "durationTicks": 2,
          "midi": 46,
          "name": "A#2",
          "ticks": 18764,
          "time": 218.1860465116279,
          "velocity": 0.3779527559055118
        },
        {
          "duration": 0.05813953488373613,
          "durationTicks": 5,
          "midi": 90,
          "name": "F#6",
          "ticks": 18764,
          "time": 218.1860465116279,
          "velocity": 0.10236220472440945
        },
        {
          "duration": 0.11627906976744384,
          "durationTicks": 10,
          "midi": 45,
          "name": "A2",
          "ticks": 18766,
          "time": 218.2093023255814,
          "velocity": 0.48031496062992124
        },
        {
          "duration": 0.25581395348837077,
          "durationTicks": 22,
          "midi": 76,
          "name": "E5",
          "ticks": 18774,
          "time": 218.30232558139534,
          "velocity": 0.3464566929133858
        },
        {
          "duration": 0.24418604651162923,
          "durationTicks": 21,
          "midi": 85,
          "name": "C#6",
          "ticks": 18774,
          "time": 218.30232558139534,
          "velocity": 0.13385826771653545
        },
        {
          "duration": 0.10465116279067388,
          "durationTicks": 9,
          "midi": 64,
          "name": "E4",
          "ticks": 18775,
          "time": 218.3139534883721,
          "velocity": 0.3858267716535433
        },
        {
          "duration": 0.10465116279067388,
          "durationTicks": 9,
          "midi": 98,
          "name": "D7",
          "ticks": 18776,
          "time": 218.32558139534885,
          "velocity": 0.11023622047244094
        },
        {
          "duration": 0.04651162790696617,
          "durationTicks": 4,
          "midi": 50,
          "name": "D3",
          "ticks": 18777,
          "time": 218.3372093023256,
          "velocity": 0.31496062992125984
        },
        {
          "duration": 0.023255813953483084,
          "durationTicks": 2,
          "midi": 44,
          "name": "G#2",
          "ticks": 18779,
          "time": 218.36046511627907,
          "velocity": 0.33858267716535434
        },
        {
          "duration": 0.12790697674418539,
          "durationTicks": 11,
          "midi": 45,
          "name": "A2",
          "ticks": 18781,
          "time": 218.38372093023256,
          "velocity": 0.4094488188976378
        },
        {
          "duration": 0.03488372093025305,
          "durationTicks": 3,
          "midi": 62,
          "name": "D4",
          "ticks": 18784,
          "time": 218.41860465116278,
          "velocity": 0.33858267716535434
        },
        {
          "duration": 0.09302325581393234,
          "durationTicks": 8,
          "midi": 64,
          "name": "E4",
          "ticks": 18787,
          "time": 218.45348837209303,
          "velocity": 0.4015748031496063
        },
        {
          "duration": 0.034883720930224626,
          "durationTicks": 3,
          "midi": 92,
          "name": "G#6",
          "ticks": 18787,
          "time": 218.45348837209303,
          "velocity": 0.07086614173228346
        },
        {
          "duration": 0.10465116279067388,
          "durationTicks": 9,
          "midi": 98,
          "name": "D7",
          "ticks": 18787,
          "time": 218.45348837209303,
          "velocity": 0.1889763779527559
        },
        {
          "duration": 0.023255813953511506,
          "durationTicks": 2,
          "midi": 45,
          "name": "A2",
          "ticks": 18795,
          "time": 218.54651162790697,
          "velocity": 0.3464566929133858
        },
        {
          "duration": 0.1511627906976969,
          "durationTicks": 13,
          "midi": 65,
          "name": "F4",
          "ticks": 18795,
          "time": 218.54651162790697,
          "velocity": 0.3779527559055118
        },
        {
          "duration": 0.13953488372092693,
          "durationTicks": 12,
          "midi": 84,
          "name": "C6",
          "ticks": 18795,
          "time": 218.54651162790697,
          "velocity": 0.13385826771653545
        },
        {
          "duration": 0.034883720930224626,
          "durationTicks": 3,
          "midi": 62,
          "name": "D4",
          "ticks": 18797,
          "time": 218.56976744186048,
          "velocity": 0.2755905511811024
        },
        {
          "duration": 0.034883720930224626,
          "durationTicks": 3,
          "midi": 50,
          "name": "D3",
          "ticks": 18798,
          "time": 218.58139534883722,
          "velocity": 0.3700787401574803
        },
        {
          "duration": 0.09302325581396076,
          "durationTicks": 8,
          "midi": 45,
          "name": "A2",
          "ticks": 18800,
          "time": 218.6046511627907,
          "velocity": 0.4094488188976378
        },
        {
          "duration": 0.023255813953483084,
          "durationTicks": 2,
          "midi": 62,
          "name": "D4",
          "ticks": 18802,
          "time": 218.62790697674419,
          "velocity": 0.23622047244094488
        },
        {
          "duration": 0.13953488372092693,
          "durationTicks": 12,
          "midi": 79,
          "name": "G5",
          "ticks": 18808,
          "time": 218.69767441860466,
          "velocity": 0.41732283464566927
        },
        {
          "duration": 0.023255813953483084,
          "durationTicks": 2,
          "midi": 42,
          "name": "F#2",
          "ticks": 18809,
          "time": 218.7093023255814,
          "velocity": 0.25984251968503935
        },
        {
          "duration": 0.11627906976744384,
          "durationTicks": 10,
          "midi": 67,
          "name": "G4",
          "ticks": 18809,
          "time": 218.7093023255814,
          "velocity": 0.3228346456692913
        },
        {
          "duration": 0.11627906976744384,
          "durationTicks": 10,
          "midi": 101,
          "name": "F7",
          "ticks": 18809,
          "time": 218.7093023255814,
          "velocity": 0.1968503937007874
        },
        {
          "duration": 0.1046511627907023,
          "durationTicks": 9,
          "midi": 57,
          "name": "A3",
          "ticks": 18810,
          "time": 218.72093023255815,
          "velocity": 0.4409448818897638
        },
        {
          "duration": 0.08139534883721922,
          "durationTicks": 7,
          "midi": 45,
          "name": "A2",
          "ticks": 18812,
          "time": 218.74418604651163,
          "velocity": 0.4409448818897638
        },
        {
          "duration": 0.08139534883721922,
          "durationTicks": 7,
          "midi": 62,
          "name": "D4",
          "ticks": 18812,
          "time": 218.74418604651163,
          "velocity": 0.13385826771653545
        },
        {
          "duration": 0.4186046511627808,
          "durationTicks": 36,
          "midi": 85,
          "name": "C#6",
          "ticks": 18818,
          "time": 218.8139534883721,
          "velocity": 0.15748031496062992
        },
        {
          "duration": 0.034883720930224626,
          "durationTicks": 3,
          "midi": 44,
          "name": "G#2",
          "ticks": 18819,
          "time": 218.82558139534885,
          "velocity": 0.4094488188976378
        },
        {
          "duration": 0.4186046511627808,
          "durationTicks": 36,
          "midi": 57,
          "name": "A3",
          "ticks": 18820,
          "time": 218.8372093023256,
          "velocity": 0.4645669291338583
        },
        {
          "duration": 0.46511627906974695,
          "durationTicks": 40,
          "midi": 62,
          "name": "D4",
          "ticks": 18820,
          "time": 218.8372093023256,
          "velocity": 0.29133858267716534
        },
        {
          "duration": 0.11627906976744384,
          "durationTicks": 10,
          "midi": 88,
          "name": "E6",
          "ticks": 18820,
          "time": 218.8372093023256,
          "velocity": 0.10236220472440945
        },
        {
          "duration": 0.034883720930224626,
          "durationTicks": 3,
          "midi": 50,
          "name": "D3",
          "ticks": 18821,
          "time": 218.84883720930233,
          "velocity": 0.31496062992125984
        },
        {
          "duration": 0.023255813953483084,
          "durationTicks": 2,
          "midi": 44,
          "name": "G#2",
          "ticks": 18824,
          "time": 218.88372093023256,
          "velocity": 0.4015748031496063
        },
        {
          "duration": 0.08139534883721922,
          "durationTicks": 7,
          "midi": 45,
          "name": "A2",
          "ticks": 18826,
          "time": 218.90697674418604,
          "velocity": 0.4251968503937008
        },
        {
          "duration": 0.05813953488370771,
          "durationTicks": 5,
          "midi": 80,
          "name": "G#5",
          "ticks": 18831,
          "time": 218.96511627906978,
          "velocity": 0.30708661417322836
        },
        {
          "duration": 0.034883720930224626,
          "durationTicks": 3,
          "midi": 99,
          "name": "D#7",
          "ticks": 18831,
          "time": 218.96511627906978,
          "velocity": 0.14173228346456693
        },
        {
          "duration": 0.04651162790696617,
          "durationTicks": 4,
          "midi": 68,
          "name": "G#4",
          "ticks": 18832,
          "time": 218.97674418604652,
          "velocity": 0.33858267716535434
        },
        {
          "duration": 0.05813953488370771,
          "durationTicks": 5,
          "midi": 87,
          "name": "D#6",
          "ticks": 18832,
          "time": 218.97674418604652,
          "velocity": 0.1732283464566929
        },
        {
          "duration": 0.06976744186047767,
          "durationTicks": 6,
          "midi": 45,
          "name": "A2",
          "ticks": 18834,
          "time": 219,
          "velocity": 0.3543307086614173
        },
        {
          "duration": 0.19767441860466306,
          "durationTicks": 17,
          "midi": 100,
          "name": "E7",
          "ticks": 18836,
          "time": 219.02325581395348,
          "velocity": 0.2440944881889764
        },
        {
          "duration": 0.2093023255814046,
          "durationTicks": 18,
          "midi": 88,
          "name": "E6",
          "ticks": 18837,
          "time": 219.03488372093022,
          "velocity": 0.2047244094488189
        },
        {
          "duration": 0.18604651162792152,
          "durationTicks": 16,
          "midi": 45,
          "name": "A2",
          "ticks": 18846,
          "time": 219.13953488372093,
          "velocity": 0.4330708661417323
        },
        {
          "duration": 0.15116279069766847,
          "durationTicks": 13,
          "midi": 72,
          "name": "C5",
          "ticks": 18854,
          "time": 219.2325581395349,
          "velocity": 0.41732283464566927
        },
        {
          "duration": 0.12790697674418539,
          "durationTicks": 11,
          "midi": 100,
          "name": "E7",
          "ticks": 18854,
          "time": 219.2325581395349,
          "velocity": 0.2125984251968504
        },
        {
          "duration": 0.1046511627907023,
          "durationTicks": 9,
          "midi": 91,
          "name": "G6",
          "ticks": 18856,
          "time": 219.25581395348837,
          "velocity": 0.09448818897637795
        },
        {
          "duration": 0.023255813953483084,
          "durationTicks": 2,
          "midi": 44,
          "name": "G#2",
          "ticks": 18862,
          "time": 219.32558139534885,
          "velocity": 0.3464566929133858
        },
        {
          "duration": 0.023255813953483084,
          "durationTicks": 2,
          "midi": 55,
          "name": "G3",
          "ticks": 18862,
          "time": 219.32558139534885,
          "velocity": 0.41732283464566927
        },
        {
          "duration": 0.06976744186044925,
          "durationTicks": 6,
          "midi": 83,
          "name": "B5",
          "ticks": 18863,
          "time": 219.3372093023256,
          "velocity": 0.13385826771653545
        },
        {
          "duration": 0.06976744186044925,
          "durationTicks": 6,
          "midi": 87,
          "name": "D#6",
          "ticks": 18863,
          "time": 219.3372093023256,
          "velocity": 0.07874015748031496
        },
        {
          "duration": 0.0813953488371908,
          "durationTicks": 7,
          "midi": 45,
          "name": "A2",
          "ticks": 18864,
          "time": 219.34883720930233,
          "velocity": 0.33858267716535434
        },
        {
          "duration": 0.04651162790696617,
          "durationTicks": 4,
          "midi": 56,
          "name": "G#3",
          "ticks": 18864,
          "time": 219.34883720930233,
          "velocity": 0.4566929133858268
        },
        {
          "duration": 0.06976744186044925,
          "durationTicks": 6,
          "midi": 64,
          "name": "E4",
          "ticks": 18864,
          "time": 219.34883720930233,
          "velocity": 0.1889763779527559
        },
        {
          "duration": 0.4651162790697754,
          "durationTicks": 40,
          "midi": 56,
          "name": "G#3",
          "ticks": 18869,
          "time": 219.40697674418604,
          "velocity": 0.4409448818897638
        },
        {
          "duration": 0.17441860465115155,
          "durationTicks": 15,
          "midi": 85,
          "name": "C#6",
          "ticks": 18874,
          "time": 219.46511627906978,
          "velocity": 0.3228346456692913
        },
        {
          "duration": 0.5116279069767415,
          "durationTicks": 44,
          "midi": 61,
          "name": "C#4",
          "ticks": 18875,
          "time": 219.47674418604652,
          "velocity": 0.3464566929133858
        },
        {
          "duration": 0.034883720930224626,
          "durationTicks": 3,
          "midi": 87,
          "name": "D#6",
          "ticks": 18875,
          "time": 219.47674418604652,
          "velocity": 0.10236220472440945
        },
        {
          "duration": 0.15116279069766847,
          "durationTicks": 13,
          "midi": 101,
          "name": "F7",
          "ticks": 18876,
          "time": 219.48837209302326,
          "velocity": 0.25984251968503935
        },
        {
          "duration": 0.04651162790696617,
          "durationTicks": 4,
          "midi": 92,
          "name": "G#6",
          "ticks": 18878,
          "time": 219.51162790697674,
          "velocity": 0.08661417322834646
        },
        {
          "duration": 0.04651162790699459,
          "durationTicks": 4,
          "midi": 44,
          "name": "G#2",
          "ticks": 18880,
          "time": 219.53488372093022,
          "velocity": 0.4330708661417323
        },
        {
          "duration": 0.034883720930224626,
          "durationTicks": 3,
          "midi": 44,
          "name": "G#2",
          "ticks": 18885,
          "time": 219.59302325581396,
          "velocity": 0.4094488188976378
        },
        {
          "duration": 0.023255813953483084,
          "durationTicks": 2,
          "midi": 44,
          "name": "G#2",
          "ticks": 18891,
          "time": 219.6627906976744,
          "velocity": 0.3700787401574803
        },
        {
          "duration": 0.2325581395348877,
          "durationTicks": 20,
          "midi": 75,
          "name": "D#5",
          "ticks": 18895,
          "time": 219.7093023255814,
          "velocity": 0.2125984251968504
        },
        {
          "duration": 0.023255813953483084,
          "durationTicks": 2,
          "midi": 48,
          "name": "C3",
          "ticks": 18896,
          "time": 219.72093023255815,
          "velocity": 0.3228346456692913
        },
        {
          "duration": 0.12790697674418539,
          "durationTicks": 11,
          "midi": 99,
          "name": "D#7",
          "ticks": 18898,
          "time": 219.74418604651163,
          "velocity": 0.2440944881889764
        },
        {
          "duration": 0.023255813953483084,
          "durationTicks": 2,
          "midi": 49,
          "name": "C#3",
          "ticks": 18900,
          "time": 219.7674418604651,
          "velocity": 0.3228346456692913
        },
        {
          "duration": 0.023255813953511506,
          "durationTicks": 2,
          "midi": 49,
          "name": "C#3",
          "ticks": 18903,
          "time": 219.80232558139534,
          "velocity": 0.36220472440944884
        },
        {
          "duration": 0.1046511627907023,
          "durationTicks": 9,
          "midi": 56,
          "name": "G#3",
          "ticks": 18910,
          "time": 219.88372093023256,
          "velocity": 0.3228346456692913
        },
        {
          "duration": 0.023255813953483084,
          "durationTicks": 2,
          "midi": 49,
          "name": "C#3",
          "ticks": 18918,
          "time": 219.97674418604652,
          "velocity": 0.28346456692913385
        },
        {
          "duration": 0.023255813953483084,
          "durationTicks": 2,
          "midi": 55,
          "name": "G3",
          "ticks": 18919,
          "time": 219.98837209302326,
          "velocity": 0.4094488188976378
        },
        {
          "duration": 0.04651162790696617,
          "durationTicks": 4,
          "midi": 45,
          "name": "A2",
          "ticks": 18920,
          "time": 220,
          "velocity": 0.4330708661417323
        },
        {
          "duration": 0.034883720930224626,
          "durationTicks": 3,
          "midi": 63,
          "name": "D#4",
          "ticks": 18920,
          "time": 220,
          "velocity": 0.2047244094488189
        },
        {
          "duration": 0.12790697674418539,
          "durationTicks": 11,
          "midi": 87,
          "name": "D#6",
          "ticks": 18920,
          "time": 220,
          "velocity": 0.14960629921259844
        },
        {
          "duration": 0.15116279069766847,
          "durationTicks": 13,
          "midi": 99,
          "name": "D#7",
          "ticks": 18920,
          "time": 220,
          "velocity": 0.29133858267716534
        },
        {
          "duration": 0.11627906976744384,
          "durationTicks": 10,
          "midi": 56,
          "name": "G#3",
          "ticks": 18921,
          "time": 220.01162790697674,
          "velocity": 0.3937007874015748
        },
        {
          "duration": 0.09302325581396076,
          "durationTicks": 8,
          "midi": 61,
          "name": "C#4",
          "ticks": 18922,
          "time": 220.02325581395348,
          "velocity": 0.14960629921259844
        },
        {
          "duration": 0.11627906976744384,
          "durationTicks": 10,
          "midi": 44,
          "name": "G#2",
          "ticks": 18924,
          "time": 220.04651162790697,
          "velocity": 0.4645669291338583
        },
        {
          "duration": 0.023255813953483084,
          "durationTicks": 2,
          "midi": 55,
          "name": "G3",
          "ticks": 18931,
          "time": 220.12790697674419,
          "velocity": 0.4015748031496063
        },
        {
          "duration": 0.11627906976744384,
          "durationTicks": 10,
          "midi": 75,
          "name": "D#5",
          "ticks": 18931,
          "time": 220.12790697674419,
          "velocity": 0.14173228346456693
        },
        {
          "duration": 0.1046511627907023,
          "durationTicks": 9,
          "midi": 61,
          "name": "C#4",
          "ticks": 18932,
          "time": 220.13953488372093,
          "velocity": 0.25984251968503935
        },
        {
          "duration": 0.08139534883721922,
          "durationTicks": 7,
          "midi": 79,
          "name": "G5",
          "ticks": 18932,
          "time": 220.13953488372093,
          "velocity": 0.1732283464566929
        },
        {
          "duration": 0.1046511627907023,
          "durationTicks": 9,
          "midi": 84,
          "name": "C6",
          "ticks": 18932,
          "time": 220.13953488372093,
          "velocity": 0.11023622047244094
        },
        {
          "duration": 0.023255813953511506,
          "durationTicks": 2,
          "midi": 44,
          "name": "G#2",
          "ticks": 18935,
          "time": 220.17441860465115,
          "velocity": 0.3858267716535433
        },
        {
          "duration": 0.1046511627907023,
          "durationTicks": 9,
          "midi": 65,
          "name": "F4",
          "ticks": 18942,
          "time": 220.25581395348837,
          "velocity": 0.29133858267716534
        },
        {
          "duration": 0.04651162790699459,
          "durationTicks": 4,
          "midi": 44,
          "name": "G#2",
          "ticks": 18944,
          "time": 220.27906976744185,
          "velocity": 0.4409448818897638
        },
        {
          "duration": 0.023255813953483084,
          "durationTicks": 2,
          "midi": 58,
          "name": "A#3",
          "ticks": 18944,
          "time": 220.27906976744185,
          "velocity": 0.2283464566929134
        },
        {
          "duration": 0.023255813953511506,
          "durationTicks": 2,
          "midi": 57,
          "name": "A3",
          "ticks": 18946,
          "time": 220.30232558139534,
          "velocity": 0.31496062992125984
        },
        {
          "duration": 0.04651162790696617,
          "durationTicks": 4,
          "midi": 45,
          "name": "A2",
          "ticks": 18948,
          "time": 220.32558139534885,
          "velocity": 0.4094488188976378
        },
        {
          "duration": 0.04651162790696617,
          "durationTicks": 4,
          "midi": 58,
          "name": "A#3",
          "ticks": 18948,
          "time": 220.32558139534885,
          "velocity": 0.28346456692913385
        },
        {
          "duration": 0.08139534883721922,
          "durationTicks": 7,
          "midi": 98,
          "name": "D7",
          "ticks": 18951,
          "time": 220.36046511627907,
          "velocity": 0.14173228346456693
        },
        {
          "duration": 0.023255813953483084,
          "durationTicks": 2,
          "midi": 57,
          "name": "A3",
          "ticks": 18952,
          "time": 220.37209302325581,
          "velocity": 0.2677165354330709
        },
        {
          "duration": 0.3139534883721069,
          "durationTicks": 27,
          "midi": 79,
          "name": "G5",
          "ticks": 18953,
          "time": 220.38372093023256,
          "velocity": 0.36220472440944884
        },
        {
          "duration": 0.15116279069766847,
          "durationTicks": 13,
          "midi": 86,
          "name": "D6",
          "ticks": 18953,
          "time": 220.38372093023256,
          "velocity": 0.2283464566929134
        },
        {
          "duration": 0.034883720930224626,
          "durationTicks": 3,
          "midi": 44,
          "name": "G#2",
          "ticks": 18954,
          "time": 220.3953488372093,
          "velocity": 0.4251968503937008
        },
        {
          "duration": 0.023255813953483084,
          "durationTicks": 2,
          "midi": 64,
          "name": "E4",
          "ticks": 18954,
          "time": 220.3953488372093,
          "velocity": 0.2283464566929134
        },
        {
          "duration": 0.30232558139536536,
          "durationTicks": 26,
          "midi": 67,
          "name": "G4",
          "ticks": 18954,
          "time": 220.3953488372093,
          "velocity": 0.23622047244094488
        },
        {
          "duration": 0.12790697674418539,
          "durationTicks": 11,
          "midi": 70,
          "name": "A#4",
          "ticks": 18954,
          "time": 220.3953488372093,
          "velocity": 0.2440944881889764
        },
        {
          "duration": 0.15116279069766847,
          "durationTicks": 13,
          "midi": 101,
          "name": "F7",
          "ticks": 18954,
          "time": 220.3953488372093,
          "velocity": 0.2047244094488189
        },
        {
          "duration": 0.11627906976744384,
          "durationTicks": 10,
          "midi": 58,
          "name": "A#3",
          "ticks": 18955,
          "time": 220.40697674418604,
          "velocity": 0.4251968503937008
        },
        {
          "duration": 0.13953488372092693,
          "durationTicks": 12,
          "midi": 63,
          "name": "D#4",
          "ticks": 18956,
          "time": 220.41860465116278,
          "velocity": 0.29133858267716534
        },
        {
          "duration": 0.12790697674418539,
          "durationTicks": 11,
          "midi": 74,
          "name": "D5",
          "ticks": 18956,
          "time": 220.41860465116278,
          "velocity": 0.15748031496062992
        },
        {
          "duration": 0.023255813953511506,
          "durationTicks": 2,
          "midi": 45,
          "name": "A2",
          "ticks": 18957,
          "time": 220.43023255813952,
          "velocity": 0.41732283464566927
        },
        {
          "duration": 0.023255813953483084,
          "durationTicks": 2,
          "midi": 46,
          "name": "A#2",
          "ticks": 18959,
          "time": 220.45348837209303,
          "velocity": 0.3700787401574803
        },
        {
          "duration": 0.05813953488370771,
          "durationTicks": 5,
          "midi": 51,
          "name": "D#3",
          "ticks": 18960,
          "time": 220.46511627906978,
          "velocity": 0.3543307086614173
        },
        {
          "duration": 0.06976744186044925,
          "durationTicks": 6,
          "midi": 95,
          "name": "B6",
          "ticks": 18961,
          "time": 220.47674418604652,
          "velocity": 0.14960629921259844
        },
        {
          "duration": 0.023255813953483084,
          "durationTicks": 2,
          "midi": 46,
          "name": "A#2",
          "ticks": 18963,
          "time": 220.5,
          "velocity": 0.33070866141732286
        },
        {
          "duration": 0.034883720930224626,
          "durationTicks": 3,
          "midi": 45,
          "name": "A2",
          "ticks": 18965,
          "time": 220.52325581395348,
          "velocity": 0.36220472440944884
        },
        {
          "duration": 0.24418604651162923,
          "durationTicks": 21,
          "midi": 63,
          "name": "D#4",
          "ticks": 18969,
          "time": 220.56976744186048,
          "velocity": 0.3228346456692913
        },
        {
          "duration": 0.034883720930224626,
          "durationTicks": 3,
          "midi": 46,
          "name": "A#2",
          "ticks": 18974,
          "time": 220.62790697674419,
          "velocity": 0.3779527559055118
        },
        {
          "duration": 0.04651162790696617,
          "durationTicks": 4,
          "midi": 95,
          "name": "B6",
          "ticks": 18974,
          "time": 220.62790697674419,
          "velocity": 0.09448818897637795
        },
        {
          "duration": 0.023255813953511506,
          "durationTicks": 2,
          "midi": 51,
          "name": "D#3",
          "ticks": 18978,
          "time": 220.67441860465115,
          "velocity": 0.4330708661417323
        },
        {
          "duration": 0.06976744186047767,
          "durationTicks": 6,
          "midi": 70,
          "name": "A#4",
          "ticks": 18978,
          "time": 220.67441860465115,
          "velocity": 0.09448818897637795
        },
        {
          "duration": 0.11627906976744384,
          "durationTicks": 10,
          "midi": 74,
          "name": "D5",
          "ticks": 18978,
          "time": 220.67441860465115,
          "velocity": 0.1889763779527559
        },
        {
          "duration": 0.034883720930224626,
          "durationTicks": 3,
          "midi": 45,
          "name": "A2",
          "ticks": 18980,
          "time": 220.69767441860466,
          "velocity": 0.4645669291338583
        },
        {
          "duration": 0.10465116279067388,
          "durationTicks": 9,
          "midi": 58,
          "name": "A#3",
          "ticks": 18980,
          "time": 220.69767441860466,
          "velocity": 0.2755905511811024
        },
        {
          "duration": 0.04651162790696617,
          "durationTicks": 4,
          "midi": 68,
          "name": "G#4",
          "ticks": 18980,
          "time": 220.69767441860466,
          "velocity": 0.2283464566929134
        },
        {
          "duration": 0.05813953488370771,
          "durationTicks": 5,
          "midi": 80,
          "name": "G#5",
          "ticks": 18980,
          "time": 220.69767441860466,
          "velocity": 0.29133858267716534
        },
        {
          "duration": 0.05813953488370771,
          "durationTicks": 5,
          "midi": 87,
          "name": "D#6",
          "ticks": 18981,
          "time": 220.7093023255814,
          "velocity": 0.09448818897637795
        },
        {
          "duration": 0.19767441860466306,
          "durationTicks": 17,
          "midi": 67,
          "name": "G4",
          "ticks": 18984,
          "time": 220.74418604651163,
          "velocity": 0.2047244094488189
        },
        {
          "duration": 0.034883720930224626,
          "durationTicks": 3,
          "midi": 82,
          "name": "A#5",
          "ticks": 18984,
          "time": 220.74418604651163,
          "velocity": 0.07086614173228346
        },
        {
          "duration": 0.034883720930224626,
          "durationTicks": 3,
          "midi": 46,
          "name": "A#2",
          "ticks": 18985,
          "time": 220.75581395348837,
          "velocity": 0.4251968503937008
        },
        {
          "duration": 0.32558139534884845,
          "durationTicks": 28,
          "midi": 79,
          "name": "G5",
          "ticks": 18985,
          "time": 220.75581395348837,
          "velocity": 0.2992125984251969
        },
        {
          "duration": 0.03488372093025305,
          "durationTicks": 3,
          "midi": 45,
          "name": "A2",
          "ticks": 18988,
          "time": 220.7906976744186,
          "velocity": 0.3700787401574803
        },
        {
          "duration": 0.023255813953511506,
          "durationTicks": 2,
          "midi": 52,
          "name": "E3",
          "ticks": 18989,
          "time": 220.80232558139534,
          "velocity": 0.3858267716535433
        },
        {
          "duration": 0.03488372093025305,
          "durationTicks": 3,
          "midi": 59,
          "name": "B3",
          "ticks": 18989,
          "time": 220.80232558139534,
          "velocity": 0.1968503937007874
        },
        {
          "duration": 0.034883720930224626,
          "durationTicks": 3,
          "midi": 51,
          "name": "D#3",
          "ticks": 18991,
          "time": 220.82558139534885,
          "velocity": 0.4015748031496063
        },
        {
          "duration": 0.023255813953483084,
          "durationTicks": 2,
          "midi": 46,
          "name": "A#2",
          "ticks": 18992,
          "time": 220.8372093023256,
          "velocity": 0.30708661417322836
        },
        {
          "duration": 0.04651162790699459,
          "durationTicks": 4,
          "midi": 46,
          "name": "A#2",
          "ticks": 18997,
          "time": 220.8953488372093,
          "velocity": 0.3937007874015748
        },
        {
          "duration": 0.4418604651162923,
          "durationTicks": 38,
          "midi": 70,
          "name": "A#4",
          "ticks": 18999,
          "time": 220.91860465116278,
          "velocity": 0.2125984251968504
        },
        {
          "duration": 0.16279069767443843,
          "durationTicks": 14,
          "midi": 86,
          "name": "D6",
          "ticks": 18999,
          "time": 220.91860465116278,
          "velocity": 0.2204724409448819
        },
        {
          "duration": 0.17441860465117998,
          "durationTicks": 15,
          "midi": 74,
          "name": "D5",
          "ticks": 19000,
          "time": 220.93023255813952,
          "velocity": 0.14960629921259844
        },
        {
          "duration": 0.034883720930224626,
          "durationTicks": 3,
          "midi": 45,
          "name": "A2",
          "ticks": 19001,
          "time": 220.9418604651163,
          "velocity": 0.4251968503937008
        },
        {
          "duration": 0.11627906976741542,
          "durationTicks": 10,
          "midi": 58,
          "name": "A#3",
          "ticks": 19001,
          "time": 220.9418604651163,
          "velocity": 0.36220472440944884
        },
        {
          "duration": 0.12790697674418539,
          "durationTicks": 11,
          "midi": 63,
          "name": "D#4",
          "ticks": 19001,
          "time": 220.9418604651163,
          "velocity": 0.3543307086614173
        },
        {
          "duration": 0.023255813953483084,
          "durationTicks": 2,
          "midi": 66,
          "name": "F#4",
          "ticks": 19001,
          "time": 220.9418604651163,
          "velocity": 0.2677165354330709
        },
        {
          "duration": 0.05813953488370771,
          "durationTicks": 5,
          "midi": 89,
          "name": "F6",
          "ticks": 19001,
          "time": 220.9418604651163,
          "velocity": 0.09448818897637795
        },
        {
          "duration": 0.034883720930224626,
          "durationTicks": 3,
          "midi": 77,
          "name": "F5",
          "ticks": 19002,
          "time": 220.95348837209303,
          "velocity": 0.07086614173228346
        },
        {
          "duration": 0.023255813953511506,
          "durationTicks": 2,
          "midi": 46,
          "name": "A#2",
          "ticks": 19010,
          "time": 221.04651162790697,
          "velocity": 0.3700787401574803
        },
        {
          "duration": 0.034883720930224626,
          "durationTicks": 3,
          "midi": 55,
          "name": "G3",
          "ticks": 19012,
          "time": 221.06976744186048,
          "velocity": 0.41732283464566927
        },
        {
          "duration": 0.12790697674418539,
          "durationTicks": 11,
          "midi": 85,
          "name": "C#6",
          "ticks": 19012,
          "time": 221.06976744186048,
          "velocity": 0.13385826771653545
        },
        {
          "duration": 0.25581395348837077,
          "durationTicks": 22,
          "midi": 63,
          "name": "D#4",
          "ticks": 19013,
          "time": 221.08139534883722,
          "velocity": 0.31496062992125984
        },
        {
          "duration": 0.24418604651162923,
          "durationTicks": 21,
          "midi": 77,
          "name": "F5",
          "ticks": 19013,
          "time": 221.08139534883722,
          "velocity": 0.18110236220472442
        },
        {
          "duration": 0.023255813953483084,
          "durationTicks": 2,
          "midi": 45,
          "name": "A2",
          "ticks": 19015,
          "time": 221.1046511627907,
          "velocity": 0.3937007874015748
        },
        {
          "duration": 0.13953488372092693,
          "durationTicks": 12,
          "midi": 58,
          "name": "A#3",
          "ticks": 19016,
          "time": 221.11627906976744,
          "velocity": 0.2755905511811024
        },
        {
          "duration": 0.034883720930224626,
          "durationTicks": 3,
          "midi": 46,
          "name": "A#2",
          "ticks": 19017,
          "time": 221.12790697674419,
          "velocity": 0.36220472440944884
        },
        {
          "duration": 0.05813953488370771,
          "durationTicks": 5,
          "midi": 102,
          "name": "F#7",
          "ticks": 19017,
          "time": 221.12790697674419,
          "velocity": 0.10236220472440945
        },
        {
          "duration": 0.023255813953511506,
          "durationTicks": 2,
          "midi": 46,
          "name": "A#2",
          "ticks": 19021,
          "time": 221.17441860465115,
          "velocity": 0.33858267716535434
        },
        {
          "duration": 0.034883720930224626,
          "durationTicks": 3,
          "midi": 46,
          "name": "A#2",
          "ticks": 19026,
          "time": 221.2325581395349,
          "velocity": 0.3543307086614173
        },
        {
          "duration": 0.023255813953483084,
          "durationTicks": 2,
          "midi": 46,
          "name": "A#2",
          "ticks": 19030,
          "time": 221.27906976744185,
          "velocity": 0.33858267716535434
        },
        {
          "duration": 0.034883720930224626,
          "durationTicks": 3,
          "midi": 74,
          "name": "D5",
          "ticks": 19033,
          "time": 221.3139534883721,
          "velocity": 0.07874015748031496
        },
        {
          "duration": 0.04651162790696617,
          "durationTicks": 4,
          "midi": 57,
          "name": "A3",
          "ticks": 19034,
          "time": 221.32558139534885,
          "velocity": 0.3543307086614173
        },
        {
          "duration": 0.034883720930224626,
          "durationTicks": 3,
          "midi": 45,
          "name": "A2",
          "ticks": 19035,
          "time": 221.3372093023256,
          "velocity": 0.4094488188976378
        },
        {
          "duration": 0.04651162790696617,
          "durationTicks": 4,
          "midi": 44,
          "name": "G#2",
          "ticks": 19038,
          "time": 221.37209302325581,
          "velocity": 0.3937007874015748
        },
        {
          "duration": 0.03488372093025305,
          "durationTicks": 3,
          "midi": 55,
          "name": "G3",
          "ticks": 19041,
          "time": 221.40697674418604,
          "velocity": 0.4015748031496063
        },
        {
          "duration": 0.023255813953511506,
          "durationTicks": 2,
          "midi": 45,
          "name": "A2",
          "ticks": 19042,
          "time": 221.41860465116278,
          "velocity": 0.31496062992125984
        },
        {
          "duration": 0.034883720930224626,
          "durationTicks": 3,
          "midi": 54,
          "name": "F#3",
          "ticks": 19044,
          "time": 221.4418604651163,
          "velocity": 0.4251968503937008
        },
        {
          "duration": 0.06976744186044925,
          "durationTicks": 6,
          "midi": 67,
          "name": "G4",
          "ticks": 19044,
          "time": 221.4418604651163,
          "velocity": 0.12598425196850394
        },
        {
          "duration": 0.04651162790696617,
          "durationTicks": 4,
          "midi": 83,
          "name": "B5",
          "ticks": 19044,
          "time": 221.4418604651163,
          "velocity": 0.11023622047244094
        },
        {
          "duration": 0.034883720930224626,
          "durationTicks": 3,
          "midi": 43,
          "name": "G2",
          "ticks": 19045,
          "time": 221.45348837209303,
          "velocity": 0.31496062992125984
        },
        {
          "duration": 0.05813953488370771,
          "durationTicks": 5,
          "midi": 64,
          "name": "E4",
          "ticks": 19045,
          "time": 221.45348837209303,
          "velocity": 0.25196850393700787
        },
        {
          "duration": 0.06976744186044925,
          "durationTicks": 6,
          "midi": 71,
          "name": "B4",
          "ticks": 19045,
          "time": 221.45348837209303,
          "velocity": 0.12598425196850394
        },
        {
          "duration": 0.04651162790696617,
          "durationTicks": 4,
          "midi": 74,
          "name": "D5",
          "ticks": 19045,
          "time": 221.45348837209303,
          "velocity": 0.14173228346456693
        },
        {
          "duration": 0.023255813953483084,
          "durationTicks": 2,
          "midi": 44,
          "name": "G#2",
          "ticks": 19048,
          "time": 221.48837209302326,
          "velocity": 0.3858267716535433
        },
        {
          "duration": 0.023255813953483084,
          "durationTicks": 2,
          "midi": 53,
          "name": "F3",
          "ticks": 19049,
          "time": 221.5,
          "velocity": 0.3858267716535433
        },
        {
          "duration": 0.05813953488373613,
          "durationTicks": 5,
          "midi": 45,
          "name": "A2",
          "ticks": 19050,
          "time": 221.51162790697674,
          "velocity": 0.41732283464566927
        },
        {
          "duration": 0.034883720930224626,
          "durationTicks": 3,
          "midi": 52,
          "name": "E3",
          "ticks": 19055,
          "time": 221.56976744186048,
          "velocity": 0.28346456692913385
        },
        {
          "duration": 0.034883720930224626,
          "durationTicks": 3,
          "midi": 71,
          "name": "B4",
          "ticks": 19055,
          "time": 221.56976744186048,
          "velocity": 0.10236220472440945
        },
        {
          "duration": 0.22093023255811772,
          "durationTicks": 19,
          "midi": 74,
          "name": "D5",
          "ticks": 19055,
          "time": 221.56976744186048,
          "velocity": 0.4251968503937008
        },
        {
          "duration": 0.22093023255811772,
          "durationTicks": 19,
          "midi": 77,
          "name": "F5",
          "ticks": 19055,
          "time": 221.56976744186048,
          "velocity": 0.25984251968503935
        },
        {
          "duration": 0.13953488372092693,
          "durationTicks": 12,
          "midi": 81,
          "name": "A5",
          "ticks": 19055,
          "time": 221.56976744186048,
          "velocity": 0.09448818897637795
        },
        {
          "duration": 0.034883720930224626,
          "durationTicks": 3,
          "midi": 90,
          "name": "F#6",
          "ticks": 19055,
          "time": 221.56976744186048,
          "velocity": 0.11023622047244094
        },
        {
          "duration": 0.1860465116278931,
          "durationTicks": 16,
          "midi": 62,
          "name": "D4",
          "ticks": 19056,
          "time": 221.58139534883722,
          "velocity": 0.41732283464566927
        },
        {
          "duration": 0.25581395348837077,
          "durationTicks": 22,
          "midi": 65,
          "name": "F4",
          "ticks": 19056,
          "time": 221.58139534883722,
          "velocity": 0.3543307086614173
        },
        {
          "duration": 0.13953488372092693,
          "durationTicks": 12,
          "midi": 84,
          "name": "C6",
          "ticks": 19056,
          "time": 221.58139534883722,
          "velocity": 0.14173228346456693
        },
        {
          "duration": 0.06976744186044925,
          "durationTicks": 6,
          "midi": 93,
          "name": "A6",
          "ticks": 19056,
          "time": 221.58139534883722,
          "velocity": 0.15748031496062992
        },
        {
          "duration": 0.5232558139534831,
          "durationTicks": 45,
          "midi": 72,
          "name": "C5",
          "ticks": 19057,
          "time": 221.59302325581396,
          "velocity": 0.1889763779527559
        },
        {
          "duration": 0.0813953488371908,
          "durationTicks": 7,
          "midi": 53,
          "name": "F3",
          "ticks": 19058,
          "time": 221.6046511627907,
          "velocity": 0.33858267716535434
        },
        {
          "duration": 0.09302325581396076,
          "durationTicks": 8,
          "midi": 102,
          "name": "F#7",
          "ticks": 19058,
          "time": 221.6046511627907,
          "velocity": 0.11811023622047244
        },
        {
          "duration": 0.023255813953483084,
          "durationTicks": 2,
          "midi": 45,
          "name": "A2",
          "ticks": 19059,
          "time": 221.61627906976744,
          "velocity": 0.4015748031496063
        },
        {
          "duration": 0.19767441860466306,
          "durationTicks": 17,
          "midi": 46,
          "name": "A#2",
          "ticks": 19061,
          "time": 221.63953488372093,
          "velocity": 0.3779527559055118
        },
        {
          "duration": 0.034883720930224626,
          "durationTicks": 3,
          "midi": 90,
          "name": "F#6",
          "ticks": 19061,
          "time": 221.63953488372093,
          "velocity": 0.10236220472440945
        },
        {
          "duration": 0.023255813953483084,
          "durationTicks": 2,
          "midi": 53,
          "name": "F3",
          "ticks": 19066,
          "time": 221.69767441860466,
          "velocity": 0.2677165354330709
        },
        {
          "duration": 0.023255813953483084,
          "durationTicks": 2,
          "midi": 62,
          "name": "D4",
          "ticks": 19076,
          "time": 221.8139534883721,
          "velocity": 0.2677165354330709
        },
        {
          "duration": 0.1860465116278931,
          "durationTicks": 16,
          "midi": 76,
          "name": "E5",
          "ticks": 19077,
          "time": 221.82558139534885,
          "velocity": 0.31496062992125984
        },
        {
          "duration": 0.13953488372092693,
          "durationTicks": 12,
          "midi": 64,
          "name": "E4",
          "ticks": 19078,
          "time": 221.8372093023256,
          "velocity": 0.4015748031496063
        },
        {
          "duration": 0.15116279069766847,
          "durationTicks": 13,
          "midi": 79,
          "name": "G5",
          "ticks": 19078,
          "time": 221.8372093023256,
          "velocity": 0.3858267716535433
        },
        {
          "duration": 0.05813953488370771,
          "durationTicks": 5,
          "midi": 92,
          "name": "G#6",
          "ticks": 19079,
          "time": 221.84883720930233,
          "velocity": 0.08661417322834646
        },
        {
          "duration": 0.15116279069766847,
          "durationTicks": 13,
          "midi": 98,
          "name": "D7",
          "ticks": 19079,
          "time": 221.84883720930233,
          "velocity": 0.2992125984251969
        },
        {
          "duration": 0.023255813953483084,
          "durationTicks": 2,
          "midi": 47,
          "name": "B2",
          "ticks": 19080,
          "time": 221.86046511627907,
          "velocity": 0.3228346456692913
        },
        {
          "duration": 0.17441860465115155,
          "durationTicks": 15,
          "midi": 53,
          "name": "F3",
          "ticks": 19080,
          "time": 221.86046511627907,
          "velocity": 0.3700787401574803
        },
        {
          "duration": 0.19767441860466306,
          "durationTicks": 17,
          "midi": 58,
          "name": "A#3",
          "ticks": 19082,
          "time": 221.88372093023256,
          "velocity": 0.31496062992125984
        },
        {
          "duration": 0.19767441860466306,
          "durationTicks": 17,
          "midi": 74,
          "name": "D5",
          "ticks": 19082,
          "time": 221.88372093023256,
          "velocity": 0.16535433070866143
        },
        {
          "duration": 0.023255813953511506,
          "durationTicks": 2,
          "midi": 46,
          "name": "A#2",
          "ticks": 19086,
          "time": 221.93023255813952,
          "velocity": 0.33070866141732286
        },
        {
          "duration": 0.023255813953483084,
          "durationTicks": 2,
          "midi": 46,
          "name": "A#2",
          "ticks": 19089,
          "time": 221.96511627906978,
          "velocity": 0.2992125984251969
        },
        {
          "duration": 0.7790697674418539,
          "durationTicks": 67,
          "midi": 65,
          "name": "F4",
          "ticks": 19090,
          "time": 221.97674418604652,
          "velocity": 0.4330708661417323
        },
        {
          "duration": 0.023255813953483084,
          "durationTicks": 2,
          "midi": 46,
          "name": "A#2",
          "ticks": 19092,
          "time": 222,
          "velocity": 0.3228346456692913
        },
        {
          "duration": 0.023255813953483084,
          "durationTicks": 2,
          "midi": 46,
          "name": "A#2",
          "ticks": 19095,
          "time": 222.03488372093022,
          "velocity": 0.33070866141732286
        },
        {
          "duration": 0.03488372093025305,
          "durationTicks": 3,
          "midi": 53,
          "name": "F3",
          "ticks": 19096,
          "time": 222.04651162790697,
          "velocity": 0.1889763779527559
        },
        {
          "duration": 0.023255813953483084,
          "durationTicks": 2,
          "midi": 45,
          "name": "A2",
          "ticks": 19099,
          "time": 222.08139534883722,
          "velocity": 0.3543307086614173
        },
        {
          "duration": 0.0813953488371908,
          "durationTicks": 7,
          "midi": 101,
          "name": "F7",
          "ticks": 19100,
          "time": 222.09302325581396,
          "velocity": 0.11023622047244094
        },
        {
          "duration": 0.023255813953483084,
          "durationTicks": 2,
          "midi": 43,
          "name": "G2",
          "ticks": 19101,
          "time": 222.1046511627907,
          "velocity": 0.31496062992125984
        },
        {
          "duration": 0.023255813953483084,
          "durationTicks": 2,
          "midi": 61,
          "name": "C#4",
          "ticks": 19101,
          "time": 222.1046511627907,
          "velocity": 0.23622047244094488
        },
        {
          "duration": 0.16279069767441,
          "durationTicks": 14,
          "midi": 99,
          "name": "D#7",
          "ticks": 19101,
          "time": 222.1046511627907,
          "velocity": 0.12598425196850394
        },
        {
          "duration": 0.22093023255814614,
          "durationTicks": 19,
          "midi": 69,
          "name": "A4",
          "ticks": 19102,
          "time": 222.11627906976744,
          "velocity": 0.3543307086614173
        },
        {
          "duration": 0.04651162790696617,
          "durationTicks": 4,
          "midi": 58,
          "name": "A#3",
          "ticks": 19103,
          "time": 222.12790697674419,
          "velocity": 0.25984251968503935
        },
        {
          "duration": 0.06976744186047767,
          "durationTicks": 6,
          "midi": 103,
          "name": "G7",
          "ticks": 19103,
          "time": 222.12790697674419,
          "velocity": 0.10236220472440945
        },
        {
          "duration": 0.034883720930224626,
          "durationTicks": 3,
          "midi": 45,
          "name": "A2",
          "ticks": 19104,
          "time": 222.13953488372093,
          "velocity": 0.36220472440944884
        },
        {
          "duration": 0.05813953488373613,
          "durationTicks": 5,
          "midi": 53,
          "name": "F3",
          "ticks": 19104,
          "time": 222.13953488372093,
          "velocity": 0.29133858267716534
        },
        {
          "duration": 0.13953488372095535,
          "durationTicks": 12,
          "midi": 88,
          "name": "E6",
          "ticks": 19108,
          "time": 222.1860465116279,
          "velocity": 0.11023622047244094
        },
        {
          "duration": 0.023255813953483084,
          "durationTicks": 2,
          "midi": 54,
          "name": "F#3",
          "ticks": 19109,
          "time": 222.19767441860466,
          "velocity": 0.30708661417322836
        },
        {
          "duration": 0.034883720930224626,
          "durationTicks": 3,
          "midi": 60,
          "name": "C4",
          "ticks": 19110,
          "time": 222.2093023255814,
          "velocity": 0.2440944881889764
        },
        {
          "duration": 0.034883720930224626,
          "durationTicks": 3,
          "midi": 97,
          "name": "C#7",
          "ticks": 19110,
          "time": 222.2093023255814,
          "velocity": 0.08661417322834646
        },
        {
          "duration": 0.023255813953483084,
          "durationTicks": 2,
          "midi": 45,
          "name": "A2",
          "ticks": 19114,
          "time": 222.25581395348837,
          "velocity": 0.3779527559055118
        },
        {
          "duration": 0.09302325581396076,
          "durationTicks": 8,
          "midi": 96,
          "name": "C7",
          "ticks": 19114,
          "time": 222.25581395348837,
          "velocity": 0.12598425196850394
        },
        {
          "duration": 0.08139534883721922,
          "durationTicks": 7,
          "midi": 53,
          "name": "F3",
          "ticks": 19116,
          "time": 222.27906976744185,
          "velocity": 0.4251968503937008
        },
        {
          "duration": 0.08139534883721922,
          "durationTicks": 7,
          "midi": 58,
          "name": "A#3",
          "ticks": 19116,
          "time": 222.27906976744185,
          "velocity": 0.31496062992125984
        },
        {
          "duration": 0.05813953488373613,
          "durationTicks": 5,
          "midi": 46,
          "name": "A#2",
          "ticks": 19118,
          "time": 222.30232558139534,
          "velocity": 0.4015748031496063
        },
        {
          "duration": 0.13953488372092693,
          "durationTicks": 12,
          "midi": 69,
          "name": "A4",
          "ticks": 19122,
          "time": 222.34883720930233,
          "velocity": 0.3700787401574803
        },
        {
          "duration": 0.15116279069766847,
          "durationTicks": 13,
          "midi": 101,
          "name": "F7",
          "ticks": 19122,
          "time": 222.34883720930233,
          "velocity": 0.2677165354330709
        },
        {
          "duration": 0.023255813953483084,
          "durationTicks": 2,
          "midi": 59,
          "name": "B3",
          "ticks": 19123,
          "time": 222.36046511627907,
          "velocity": 0.25984251968503935
        },
        {
          "duration": 0.034883720930224626,
          "durationTicks": 3,
          "midi": 88,
          "name": "E6",
          "ticks": 19123,
          "time": 222.36046511627907,
          "velocity": 0.13385826771653545
        },
        {
          "duration": 0.05813953488370771,
          "durationTicks": 5,
          "midi": 97,
          "name": "C#7",
          "ticks": 19123,
          "time": 222.36046511627907,
          "velocity": 0.09448818897637795
        },
        {
          "duration": 0.04651162790696617,
          "durationTicks": 4,
          "midi": 103,
          "name": "G7",
          "ticks": 19124,
          "time": 222.37209302325581,
          "velocity": 0.15748031496062992
        },
        {
          "duration": 0.08139534883721922,
          "durationTicks": 7,
          "midi": 53,
          "name": "F3",
          "ticks": 19126,
          "time": 222.3953488372093,
          "velocity": 0.3464566929133858
        },
        {
          "duration": 0.023255813953483084,
          "durationTicks": 2,
          "midi": 46,
          "name": "A#2",
          "ticks": 19130,
          "time": 222.4418604651163,
          "velocity": 0.25984251968503935
        },
        {
          "duration": 0.034883720930224626,
          "durationTicks": 3,
          "midi": 55,
          "name": "G3",
          "ticks": 19134,
          "time": 222.48837209302326,
          "velocity": 0.4566929133858268
        },
        {
          "duration": 0.12790697674418539,
          "durationTicks": 11,
          "midi": 72,
          "name": "C5",
          "ticks": 19135,
          "time": 222.5,
          "velocity": 0.11023622047244094
        },
        {
          "duration": 0.12790697674418539,
          "durationTicks": 11,
          "midi": 53,
          "name": "F3",
          "ticks": 19137,
          "time": 222.52325581395348,
          "velocity": 0.48031496062992124
        },
        {
          "duration": 0.3604651162790731,
          "durationTicks": 31,
          "midi": 58,
          "name": "A#3",
          "ticks": 19137,
          "time": 222.52325581395348,
          "velocity": 0.3228346456692913
        },
        {
          "duration": 0.04651162790699459,
          "durationTicks": 4,
          "midi": 45,
          "name": "A2",
          "ticks": 19138,
          "time": 222.53488372093022,
          "velocity": 0.4015748031496063
        },
        {
          "duration": 0.034883720930224626,
          "durationTicks": 3,
          "midi": 46,
          "name": "A#2",
          "ticks": 19142,
          "time": 222.58139534883722,
          "velocity": 0.29133858267716534
        },
        {
          "duration": 0.023255813953483084,
          "durationTicks": 2,
          "midi": 45,
          "name": "A2",
          "ticks": 19146,
          "time": 222.62790697674419,
          "velocity": 0.2755905511811024
        },
        {
          "duration": 0.3720930232558146,
          "durationTicks": 32,
          "midi": 70,
          "name": "A#4",
          "ticks": 19146,
          "time": 222.62790697674419,
          "velocity": 0.4094488188976378
        },
        {
          "duration": 0.33720930232559,
          "durationTicks": 29,
          "midi": 101,
          "name": "F7",
          "ticks": 19146,
          "time": 222.62790697674419,
          "velocity": 0.28346456692913385
        },
        {
          "duration": 0.3604651162790731,
          "durationTicks": 31,
          "midi": 76,
          "name": "E5",
          "ticks": 19148,
          "time": 222.65116279069767,
          "velocity": 0.31496062992125984
        },
        {
          "duration": 0.1046511627907023,
          "durationTicks": 9,
          "midi": 53,
          "name": "F3",
          "ticks": 19149,
          "time": 222.6627906976744,
          "velocity": 0.3228346456692913
        },
        {
          "duration": 0.023255813953483084,
          "durationTicks": 2,
          "midi": 46,
          "name": "A#2",
          "ticks": 19153,
          "time": 222.7093023255814,
          "velocity": 0.33858267716535434
        },
        {
          "duration": 0.11627906976744384,
          "durationTicks": 10,
          "midi": 89,
          "name": "F6",
          "ticks": 19155,
          "time": 222.7325581395349,
          "velocity": 0.07874015748031496
        },
        {
          "duration": 0.023255813953483084,
          "durationTicks": 2,
          "midi": 46,
          "name": "A#2",
          "ticks": 19156,
          "time": 222.74418604651163,
          "velocity": 0.31496062992125984
        },
        {
          "duration": 0.1046511627907023,
          "durationTicks": 9,
          "midi": 53,
          "name": "F3",
          "ticks": 19159,
          "time": 222.77906976744185,
          "velocity": 0.4015748031496063
        },
        {
          "duration": 0.023255813953511506,
          "durationTicks": 2,
          "midi": 45,
          "name": "A2",
          "ticks": 19160,
          "time": 222.7906976744186,
          "velocity": 0.3779527559055118
        },
        {
          "duration": 0.04651162790696617,
          "durationTicks": 4,
          "midi": 46,
          "name": "A#2",
          "ticks": 19164,
          "time": 222.8372093023256,
          "velocity": 0.3543307086614173
        },
        {
          "duration": 0.023255813953483084,
          "durationTicks": 2,
          "midi": 46,
          "name": "A#2",
          "ticks": 19169,
          "time": 222.8953488372093,
          "velocity": 0.3543307086614173
        },
        {
          "duration": 0.023255813953483084,
          "durationTicks": 2,
          "midi": 55,
          "name": "G3",
          "ticks": 19169,
          "time": 222.8953488372093,
          "velocity": 0.4251968503937008
        },
        {
          "duration": 0.09302325581396076,
          "durationTicks": 8,
          "midi": 53,
          "name": "F3",
          "ticks": 19172,
          "time": 222.93023255813952,
          "velocity": 0.41732283464566927
        },
        {
          "duration": 0.023255813953483084,
          "durationTicks": 2,
          "midi": 45,
          "name": "A2",
          "ticks": 19173,
          "time": 222.9418604651163,
          "velocity": 0.3700787401574803
        },
        {
          "duration": 0.023255813953483084,
          "durationTicks": 2,
          "midi": 46,
          "name": "A#2",
          "ticks": 19175,
          "time": 222.96511627906978,
          "velocity": 0.3464566929133858
        },
        {
          "duration": 0.023255813953483084,
          "durationTicks": 2,
          "midi": 45,
          "name": "A2",
          "ticks": 19177,
          "time": 222.98837209302326,
          "velocity": 0.29133858267716534
        },
        {
          "duration": 0.034883720930224626,
          "durationTicks": 3,
          "midi": 71,
          "name": "B4",
          "ticks": 19178,
          "time": 223,
          "velocity": 0.12598425196850394
        },
        {
          "duration": 0.023255813953483084,
          "durationTicks": 2,
          "midi": 46,
          "name": "A#2",
          "ticks": 19180,
          "time": 223.02325581395348,
          "velocity": 0.33858267716535434
        },
        {
          "duration": 0.25581395348837077,
          "durationTicks": 22,
          "midi": 65,
          "name": "F4",
          "ticks": 19180,
          "time": 223.02325581395348,
          "velocity": 0.23622047244094488
        },
        {
          "duration": 0.03488372093025305,
          "durationTicks": 3,
          "midi": 45,
          "name": "A2",
          "ticks": 19182,
          "time": 223.04651162790697,
          "velocity": 0.3858267716535433
        },
        {
          "duration": 0.023255813953511506,
          "durationTicks": 2,
          "midi": 53,
          "name": "F3",
          "ticks": 19183,
          "time": 223.0581395348837,
          "velocity": 0.4881889763779528
        },
        {
          "duration": 0.13953488372092693,
          "durationTicks": 12,
          "midi": 53,
          "name": "F3",
          "ticks": 19186,
          "time": 223.09302325581396,
          "velocity": 0.44881889763779526
        },
        {
          "duration": 0.023255813953483084,
          "durationTicks": 2,
          "midi": 58,
          "name": "A#3",
          "ticks": 19187,
          "time": 223.1046511627907,
          "velocity": 0.30708661417322836
        },
        {
          "duration": 0.023255813953483084,
          "durationTicks": 2,
          "midi": 46,
          "name": "A#2",
          "ticks": 19190,
          "time": 223.13953488372093,
          "velocity": 0.33858267716535434
        },
        {
          "duration": 0.4186046511627808,
          "durationTicks": 36,
          "midi": 70,
          "name": "A#4",
          "ticks": 19190,
          "time": 223.13953488372093,
          "velocity": 0.4566929133858268
        },
        {
          "duration": 0.3604651162790731,
          "durationTicks": 31,
          "midi": 101,
          "name": "F7",
          "ticks": 19192,
          "time": 223.1627906976744,
          "velocity": 0.18110236220472442
        },
        {
          "duration": 0.023255813953511506,
          "durationTicks": 2,
          "midi": 46,
          "name": "A#2",
          "ticks": 19193,
          "time": 223.17441860465115,
          "velocity": 0.31496062992125984
        },
        {
          "duration": 0.4651162790697754,
          "durationTicks": 40,
          "midi": 74,
          "name": "D5",
          "ticks": 19193,
          "time": 223.17441860465115,
          "velocity": 0.3464566929133858
        },
        {
          "duration": 0.06976744186047767,
          "durationTicks": 6,
          "midi": 102,
          "name": "F#7",
          "ticks": 19194,
          "time": 223.1860465116279,
          "velocity": 0.11023622047244094
        },
        {
          "duration": 0.09302325581393234,
          "durationTicks": 8,
          "midi": 58,
          "name": "A#3",
          "ticks": 19195,
          "time": 223.19767441860466,
          "velocity": 0.3700787401574803
        },
        {
          "duration": 0.023255813953483084,
          "durationTicks": 2,
          "midi": 46,
          "name": "A#2",
          "ticks": 19196,
          "time": 223.2093023255814,
          "velocity": 0.33858267716535434
        },
        {
          "duration": 0.023255813953483084,
          "durationTicks": 2,
          "midi": 46,
          "name": "A#2",
          "ticks": 19199,
          "time": 223.24418604651163,
          "velocity": 0.3464566929133858
        },
        {
          "duration": 0.034883720930224626,
          "durationTicks": 3,
          "midi": 53,
          "name": "F3",
          "ticks": 19199,
          "time": 223.24418604651163,
          "velocity": 0.2283464566929134
        },
        {
          "duration": 0.023255813953483084,
          "durationTicks": 2,
          "midi": 46,
          "name": "A#2",
          "ticks": 19202,
          "time": 223.27906976744185,
          "velocity": 0.2992125984251969
        },
        {
          "duration": 0.03488372093025305,
          "durationTicks": 3,
          "midi": 55,
          "name": "G3",
          "ticks": 19203,
          "time": 223.2906976744186,
          "velocity": 0.41732283464566927
        },
        {
          "duration": 0.22093023255814614,
          "durationTicks": 19,
          "midi": 77,
          "name": "F5",
          "ticks": 19203,
          "time": 223.2906976744186,
          "velocity": 0.10236220472440945
        },
        {
          "duration": 0.11627906976744384,
          "durationTicks": 10,
          "midi": 65,
          "name": "F4",
          "ticks": 19204,
          "time": 223.30232558139534,
          "velocity": 0.14960629921259844
        },
        {
          "duration": 0.023255813953483084,
          "durationTicks": 2,
          "midi": 45,
          "name": "A2",
          "ticks": 19206,
          "time": 223.32558139534885,
          "velocity": 0.3937007874015748
        },
        {
          "duration": 0.06976744186044925,
          "durationTicks": 6,
          "midi": 53,
          "name": "F3",
          "ticks": 19206,
          "time": 223.32558139534885,
          "velocity": 0.4094488188976378
        },
        {
          "duration": 0.034883720930224626,
          "durationTicks": 3,
          "midi": 46,
          "name": "A#2",
          "ticks": 19212,
          "time": 223.3953488372093,
          "velocity": 0.36220472440944884
        },
        {
          "duration": 0.034883720930224626,
          "durationTicks": 3,
          "midi": 54,
          "name": "F#3",
          "ticks": 19212,
          "time": 223.3953488372093,
          "velocity": 0.33070866141732286
        },
        {
          "duration": 0.06976744186044925,
          "durationTicks": 6,
          "midi": 65,
          "name": "F4",
          "ticks": 19216,
          "time": 223.4418604651163,
          "velocity": 0.2047244094488189
        },
        {
          "duration": 0.023255813953483084,
          "durationTicks": 2,
          "midi": 57,
          "name": "A3",
          "ticks": 19218,
          "time": 223.46511627906978,
          "velocity": 0.33070866141732286
        },
        {
          "duration": 0.0813953488371908,
          "durationTicks": 7,
          "midi": 45,
          "name": "A2",
          "ticks": 19219,
          "time": 223.47674418604652,
          "velocity": 0.4330708661417323
        },
        {
          "duration": 0.023255813953483084,
          "durationTicks": 2,
          "midi": 53,
          "name": "F3",
          "ticks": 19219,
          "time": 223.47674418604652,
          "velocity": 0.2440944881889764
        },
        {
          "duration": 0.034883720930224626,
          "durationTicks": 3,
          "midi": 66,
          "name": "F#4",
          "ticks": 19222,
          "time": 223.51162790697674,
          "velocity": 0.2125984251968504
        },
        {
          "duration": 0.06976744186047767,
          "durationTicks": 6,
          "midi": 83,
          "name": "B5",
          "ticks": 19223,
          "time": 223.52325581395348,
          "velocity": 0.16535433070866143
        },
        {
          "duration": 0.13953488372092693,
          "durationTicks": 12,
          "midi": 67,
          "name": "G4",
          "ticks": 19225,
          "time": 223.54651162790697,
          "velocity": 0.2677165354330709
        },
        {
          "duration": 0.03488372093025305,
          "durationTicks": 3,
          "midi": 87,
          "name": "D#6",
          "ticks": 19225,
          "time": 223.54651162790697,
          "velocity": 0.12598425196850394
        },
        {
          "duration": 0.04651162790699459,
          "durationTicks": 4,
          "midi": 71,
          "name": "B4",
          "ticks": 19226,
          "time": 223.5581395348837,
          "velocity": 0.25196850393700787
        },
        {
          "duration": 0.04651162790696617,
          "durationTicks": 4,
          "midi": 45,
          "name": "A2",
          "ticks": 19227,
          "time": 223.56976744186048,
          "velocity": 0.41732283464566927
        },
        {
          "duration": 0.05813953488370771,
          "durationTicks": 5,
          "midi": 55,
          "name": "G3",
          "ticks": 19227,
          "time": 223.56976744186048,
          "velocity": 0.4881889763779528
        },
        {
          "duration": 0.04651162790696617,
          "durationTicks": 4,
          "midi": 64,
          "name": "E4",
          "ticks": 19227,
          "time": 223.56976744186048,
          "velocity": 0.18110236220472442
        },
        {
          "duration": 0.04651162790696617,
          "durationTicks": 4,
          "midi": 72,
          "name": "C5",
          "ticks": 19230,
          "time": 223.6046511627907,
          "velocity": 0.1889763779527559
        },
        {
          "duration": 0.034883720930224626,
          "durationTicks": 3,
          "midi": 55,
          "name": "G3",
          "ticks": 19233,
          "time": 223.63953488372093,
          "velocity": 0.3543307086614173
        },
        {
          "duration": 0.023255813953483084,
          "durationTicks": 2,
          "midi": 70,
          "name": "A#4",
          "ticks": 19235,
          "time": 223.6627906976744,
          "velocity": 0.23622047244094488
        },
        {
          "duration": 0.2906976744186238,
          "durationTicks": 25,
          "midi": 74,
          "name": "D5",
          "ticks": 19235,
          "time": 223.6627906976744,
          "velocity": 0.30708661417322836
        },
        {
          "duration": 0.2906976744186238,
          "durationTicks": 25,
          "midi": 84,
          "name": "C6",
          "ticks": 19235,
          "time": 223.6627906976744,
          "velocity": 0.2204724409448819
        },
        {
          "duration": 0.03488372093025305,
          "durationTicks": 3,
          "midi": 87,
          "name": "D#6",
          "ticks": 19235,
          "time": 223.6627906976744,
          "velocity": 0.13385826771653545
        },
        {
          "duration": 0.32558139534884845,
          "durationTicks": 28,
          "midi": 91,
          "name": "G6",
          "ticks": 19235,
          "time": 223.6627906976744,
          "velocity": 0.2204724409448819
        },
        {
          "duration": 0.05813953488373613,
          "durationTicks": 5,
          "midi": 100,
          "name": "E7",
          "ticks": 19235,
          "time": 223.6627906976744,
          "velocity": 0.23622047244094488
        },
        {
          "duration": 0.43023255813955075,
          "durationTicks": 37,
          "midi": 76,
          "name": "E5",
          "ticks": 19236,
          "time": 223.67441860465115,
          "velocity": 0.3464566929133858
        },
        {
          "duration": 0.03488372093025305,
          "durationTicks": 3,
          "midi": 43,
          "name": "G2",
          "ticks": 19237,
          "time": 223.6860465116279,
          "velocity": 0.3779527559055118
        },
        {
          "duration": 0.4767441860465169,
          "durationTicks": 41,
          "midi": 72,
          "name": "C5",
          "ticks": 19237,
          "time": 223.6860465116279,
          "velocity": 0.2755905511811024
        },
        {
          "duration": 0.023255813953483084,
          "durationTicks": 2,
          "midi": 44,
          "name": "G#2",
          "ticks": 19240,
          "time": 223.72093023255815,
          "velocity": 0.4330708661417323
        },
        {
          "duration": 0.24418604651162923,
          "durationTicks": 21,
          "midi": 60,
          "name": "C4",
          "ticks": 19240,
          "time": 223.72093023255815,
          "velocity": 0.30708661417322836
        },
        {
          "duration": 0.03488372093025305,
          "durationTicks": 3,
          "midi": 43,
          "name": "G2",
          "ticks": 19247,
          "time": 223.80232558139534,
          "velocity": 0.3700787401574803
        },
        {
          "duration": 0.09302325581396076,
          "durationTicks": 8,
          "midi": 55,
          "name": "G3",
          "ticks": 19251,
          "time": 223.84883720930233,
          "velocity": 0.12598425196850394
        },
        {
          "duration": 0.08139534883721922,
          "durationTicks": 7,
          "midi": 43,
          "name": "G2",
          "ticks": 19252,
          "time": 223.86046511627907,
          "velocity": 0.4015748031496063
        },
        {
          "duration": 0.023255813953483084,
          "durationTicks": 2,
          "midi": 54,
          "name": "F#3",
          "ticks": 19259,
          "time": 223.9418604651163,
          "velocity": 0.3779527559055118
        },
        {
          "duration": 0.034883720930224626,
          "durationTicks": 3,
          "midi": 43,
          "name": "G2",
          "ticks": 19260,
          "time": 223.95348837209303,
          "velocity": 0.33858267716535434
        },
        {
          "duration": 0.24418604651162923,
          "durationTicks": 21,
          "midi": 67,
          "name": "G4",
          "ticks": 19260,
          "time": 223.95348837209303,
          "velocity": 0.14960629921259844
        },
        {
          "duration": 0.1860465116278931,
          "durationTicks": 16,
          "midi": 55,
          "name": "G3",
          "ticks": 19261,
          "time": 223.96511627906978,
          "velocity": 0.5039370078740157
        },
        {
          "duration": 0.034883720930224626,
          "durationTicks": 3,
          "midi": 74,
          "name": "D5",
          "ticks": 19262,
          "time": 223.97674418604652,
          "velocity": 0.09448818897637795
        },
        {
          "duration": 0.16279069767441,
          "durationTicks": 14,
          "midi": 60,
          "name": "C4",
          "ticks": 19265,
          "time": 224.01162790697674,
          "velocity": 0.1968503937007874
        },
        {
          "duration": 0.023255813953483084,
          "durationTicks": 2,
          "midi": 44,
          "name": "G#2",
          "ticks": 19266,
          "time": 224.02325581395348,
          "velocity": 0.4094488188976378
        },
        {
          "duration": 0.4651162790697754,
          "durationTicks": 40,
          "midi": 74,
          "name": "D5",
          "ticks": 19269,
          "time": 224.0581395348837,
          "velocity": 0.4251968503937008
        },
        {
          "duration": 0.04651162790699459,
          "durationTicks": 4,
          "midi": 43,
          "name": "G2",
          "ticks": 19278,
          "time": 224.1627906976744,
          "velocity": 0.4015748031496063
        },
        {
          "duration": 0.04651162790699459,
          "durationTicks": 4,
          "midi": 70,
          "name": "A#4",
          "ticks": 19278,
          "time": 224.1627906976744,
          "velocity": 0.14960629921259844
        },
        {
          "duration": 0.30232558139536536,
          "durationTicks": 26,
          "midi": 93,
          "name": "A6",
          "ticks": 19279,
          "time": 224.17441860465115,
          "velocity": 0.14173228346456693
        },
        {
          "duration": 0.023255813953511506,
          "durationTicks": 2,
          "midi": 60,
          "name": "C4",
          "ticks": 19280,
          "time": 224.1860465116279,
          "velocity": 0.23622047244094488
        },
        {
          "duration": 0.17441860465117998,
          "durationTicks": 15,
          "midi": 89,
          "name": "F6",
          "ticks": 19280,
          "time": 224.1860465116279,
          "velocity": 0.12598425196850394
        },
        {
          "duration": 0.3139534883721069,
          "durationTicks": 27,
          "midi": 101,
          "name": "F7",
          "ticks": 19280,
          "time": 224.1860465116279,
          "velocity": 0.2125984251968504
        },
        {
          "duration": 0.3139534883720785,
          "durationTicks": 27,
          "midi": 77,
          "name": "F5",
          "ticks": 19281,
          "time": 224.19767441860466,
          "velocity": 0.3464566929133858
        },
        {
          "duration": 0.023255813953483084,
          "durationTicks": 2,
          "midi": 44,
          "name": "G#2",
          "ticks": 19282,
          "time": 224.2093023255814,
          "velocity": 0.4015748031496063
        },
        {
          "duration": 0.023255813953483084,
          "durationTicks": 2,
          "midi": 44,
          "name": "G#2",
          "ticks": 19285,
          "time": 224.24418604651163,
          "velocity": 0.4330708661417323
        },
        {
          "duration": 0.05813953488373613,
          "durationTicks": 5,
          "midi": 55,
          "name": "G3",
          "ticks": 19286,
          "time": 224.25581395348837,
          "velocity": 0.25984251968503935
        },
        {
          "duration": 0.023255813953483084,
          "durationTicks": 2,
          "midi": 56,
          "name": "G#3",
          "ticks": 19291,
          "time": 224.3139534883721,
          "velocity": 0.3543307086614173
        },
        {
          "duration": 0.15116279069766847,
          "durationTicks": 13,
          "midi": 67,
          "name": "G4",
          "ticks": 19292,
          "time": 224.32558139534885,
          "velocity": 0.2047244094488189
        },
        {
          "duration": 0.04651162790696617,
          "durationTicks": 4,
          "midi": 44,
          "name": "G#2",
          "ticks": 19293,
          "time": 224.3372093023256,
          "velocity": 0.41732283464566927
        },
        {
          "duration": 0.13953488372092693,
          "durationTicks": 12,
          "midi": 55,
          "name": "G3",
          "ticks": 19293,
          "time": 224.3372093023256,
          "velocity": 0.44881889763779526
        },
        {
          "duration": 0.11627906976744384,
          "durationTicks": 10,
          "midi": 83,
          "name": "B5",
          "ticks": 19293,
          "time": 224.3372093023256,
          "velocity": 0.13385826771653545
        },
        {
          "duration": 0.12790697674418539,
          "durationTicks": 11,
          "midi": 60,
          "name": "C4",
          "ticks": 19294,
          "time": 224.34883720930233,
          "velocity": 0.23622047244094488
        },
        {
          "duration": 0.023255813953511506,
          "durationTicks": 2,
          "midi": 48,
          "name": "C3",
          "ticks": 19301,
          "time": 224.43023255813952,
          "velocity": 0.2677165354330709
        },
        {
          "duration": 0.05813953488373613,
          "durationTicks": 5,
          "midi": 91,
          "name": "G6",
          "ticks": 19301,
          "time": 224.43023255813952,
          "velocity": 0.12598425196850394
        },
        {
          "duration": 0.023255813953483084,
          "durationTicks": 2,
          "midi": 55,
          "name": "G3",
          "ticks": 19306,
          "time": 224.48837209302326,
          "velocity": 0.4251968503937008
        },
        {
          "duration": 0.034883720930224626,
          "durationTicks": 3,
          "midi": 78,
          "name": "F#5",
          "ticks": 19308,
          "time": 224.51162790697674,
          "velocity": 0.2125984251968504
        },
        {
          "duration": 0.023255813953483084,
          "durationTicks": 2,
          "midi": 44,
          "name": "G#2",
          "ticks": 19309,
          "time": 224.52325581395348,
          "velocity": 0.4330708661417323
        },
        {
          "duration": 0.32558139534884845,
          "durationTicks": 28,
          "midi": 55,
          "name": "G3",
          "ticks": 19309,
          "time": 224.52325581395348,
          "velocity": 0.49606299212598426
        },
        {
          "duration": 0.023255813953483084,
          "durationTicks": 2,
          "midi": 75,
          "name": "D#5",
          "ticks": 19309,
          "time": 224.52325581395348,
          "velocity": 0.29133858267716534
        },
        {
          "duration": 0.48837209302325846,
          "durationTicks": 42,
          "midi": 76,
          "name": "E5",
          "ticks": 19311,
          "time": 224.54651162790697,
          "velocity": 0.3543307086614173
        },
        {
          "duration": 0.4767441860465169,
          "durationTicks": 41,
          "midi": 79,
          "name": "G5",
          "ticks": 19311,
          "time": 224.54651162790697,
          "velocity": 0.4330708661417323
        },
        {
          "duration": 0.023255813953511506,
          "durationTicks": 2,
          "midi": 44,
          "name": "G#2",
          "ticks": 19312,
          "time": 224.5581395348837,
          "velocity": 0.4251968503937008
        },
        {
          "duration": 0.25581395348837077,
          "durationTicks": 22,
          "midi": 74,
          "name": "D5",
          "ticks": 19315,
          "time": 224.59302325581396,
          "velocity": 0.1889763779527559
        },
        {
          "duration": 0.24418604651162923,
          "durationTicks": 21,
          "midi": 60,
          "name": "C4",
          "ticks": 19317,
          "time": 224.61627906976744,
          "velocity": 0.3228346456692913
        },
        {
          "duration": 0.023255813953483084,
          "durationTicks": 2,
          "midi": 48,
          "name": "C3",
          "ticks": 19318,
          "time": 224.62790697674419,
          "velocity": 0.3543307086614173
        },
        {
          "duration": 0.034883720930224626,
          "durationTicks": 3,
          "midi": 82,
          "name": "A#5",
          "ticks": 19318,
          "time": 224.62790697674419,
          "velocity": 0.08661417322834646
        },
        {
          "duration": 0.2674418604651123,
          "durationTicks": 23,
          "midi": 83,
          "name": "B5",
          "ticks": 19324,
          "time": 224.69767441860466,
          "velocity": 0.11811023622047244
        },
        {
          "duration": 0.04651162790696617,
          "durationTicks": 4,
          "midi": 82,
          "name": "A#5",
          "ticks": 19325,
          "time": 224.7093023255814,
          "velocity": 0.11811023622047244
        },
        {
          "duration": 0.023255813953483084,
          "durationTicks": 2,
          "midi": 48,
          "name": "C3",
          "ticks": 19326,
          "time": 224.72093023255815,
          "velocity": 0.33858267716535434
        },
        {
          "duration": 0.034883720930224626,
          "durationTicks": 3,
          "midi": 48,
          "name": "C3",
          "ticks": 19329,
          "time": 224.75581395348837,
          "velocity": 0.3700787401574803
        },
        {
          "duration": 0.03488372093025305,
          "durationTicks": 3,
          "midi": 48,
          "name": "C3",
          "ticks": 19333,
          "time": 224.80232558139534,
          "velocity": 0.3937007874015748
        },
        {
          "duration": 0.023255813953483084,
          "durationTicks": 2,
          "midi": 49,
          "name": "C#3",
          "ticks": 19339,
          "time": 224.87209302325581,
          "velocity": 0.36220472440944884
        },
        {
          "duration": 0.023255813953483084,
          "durationTicks": 2,
          "midi": 60,
          "name": "C4",
          "ticks": 19339,
          "time": 224.87209302325581,
          "velocity": 0.25196850393700787
        },
        {
          "duration": 0.09302325581396076,
          "durationTicks": 8,
          "midi": 55,
          "name": "G3",
          "ticks": 19340,
          "time": 224.88372093023256,
          "velocity": 0.33070866141732286
        },
        {
          "duration": 0.05813953488373613,
          "durationTicks": 5,
          "midi": 48,
          "name": "C3",
          "ticks": 19341,
          "time": 224.8953488372093,
          "velocity": 0.3937007874015748
        },
        {
          "duration": 0.023255813953483084,
          "durationTicks": 2,
          "midi": 43,
          "name": "G2",
          "ticks": 19347,
          "time": 224.96511627906978,
          "velocity": 0.4015748031496063
        },
        {
          "duration": 0.05813953488370771,
          "durationTicks": 5,
          "midi": 60,
          "name": "C4",
          "ticks": 19347,
          "time": 224.96511627906978,
          "velocity": 0.2992125984251969
        },
        {
          "duration": 0.034883720930224626,
          "durationTicks": 3,
          "midi": 44,
          "name": "G#2",
          "ticks": 19349,
          "time": 224.98837209302326,
          "velocity": 0.3858267716535433
        },
        {
          "duration": 0.023255813953483084,
          "durationTicks": 2,
          "midi": 55,
          "name": "G3",
          "ticks": 19351,
          "time": 225.01162790697674,
          "velocity": 0.4015748031496063
        },
        {
          "duration": 0.034883720930224626,
          "durationTicks": 3,
          "midi": 78,
          "name": "F#5",
          "ticks": 19352,
          "time": 225.02325581395348,
          "velocity": 0.16535433070866143
        },
        {
          "duration": 0.023255813953483084,
          "durationTicks": 2,
          "midi": 44,
          "name": "G#2",
          "ticks": 19353,
          "time": 225.03488372093022,
          "velocity": 0.44881889763779526
        },
        {
          "duration": 0.04651162790699459,
          "durationTicks": 4,
          "midi": 75,
          "name": "D#5",
          "ticks": 19353,
          "time": 225.03488372093022,
          "velocity": 0.25984251968503935
        },
        {
          "duration": 0.06976744186047767,
          "durationTicks": 6,
          "midi": 55,
          "name": "G3",
          "ticks": 19355,
          "time": 225.0581395348837,
          "velocity": 0.33858267716535434
        },
        {
          "duration": 0.023255813953483084,
          "durationTicks": 2,
          "midi": 43,
          "name": "G2",
          "ticks": 19360,
          "time": 225.11627906976744,
          "velocity": 0.3779527559055118
        },
        {
          "duration": 0.034883720930224626,
          "durationTicks": 3,
          "midi": 54,
          "name": "F#3",
          "ticks": 19361,
          "time": 225.12790697674419,
          "velocity": 0.4330708661417323
        },
        {
          "duration": 0.12790697674418539,
          "durationTicks": 11,
          "midi": 86,
          "name": "D6",
          "ticks": 19361,
          "time": 225.12790697674419,
          "velocity": 0.13385826771653545
        },
        {
          "duration": 0.4767441860465169,
          "durationTicks": 41,
          "midi": 67,
          "name": "G4",
          "ticks": 19362,
          "time": 225.13953488372093,
          "velocity": 0.1968503937007874
        },
        {
          "duration": 0.08139534883721922,
          "durationTicks": 7,
          "midi": 74,
          "name": "D5",
          "ticks": 19362,
          "time": 225.13953488372093,
          "velocity": 0.2047244094488189
        },
        {
          "duration": 0.25581395348837077,
          "durationTicks": 22,
          "midi": 60,
          "name": "C4",
          "ticks": 19363,
          "time": 225.15116279069767,
          "velocity": 0.2440944881889764
        },
        {
          "duration": 0.09302325581396076,
          "durationTicks": 8,
          "midi": 55,
          "name": "G3",
          "ticks": 19364,
          "time": 225.1627906976744,
          "velocity": 0.4251968503937008
        },
        {
          "duration": 0.034883720930224626,
          "durationTicks": 3,
          "midi": 48,
          "name": "C3",
          "ticks": 19368,
          "time": 225.2093023255814,
          "velocity": 0.29133858267716534
        },
        {
          "duration": 0.2906976744185954,
          "durationTicks": 25,
          "midi": 100,
          "name": "E7",
          "ticks": 19369,
          "time": 225.22093023255815,
          "velocity": 0.2677165354330709
        },
        {
          "duration": 0.33720930232559,
          "durationTicks": 29,
          "midi": 76,
          "name": "E5",
          "ticks": 19370,
          "time": 225.2325581395349,
          "velocity": 0.3464566929133858
        },
        {
          "duration": 0.09302325581396076,
          "durationTicks": 8,
          "midi": 84,
          "name": "C6",
          "ticks": 19370,
          "time": 225.2325581395349,
          "velocity": 0.1968503937007874
        },
        {
          "duration": 0.023255813953483084,
          "durationTicks": 2,
          "midi": 71,
          "name": "B4",
          "ticks": 19371,
          "time": 225.24418604651163,
          "velocity": 0.2283464566929134
        },
        {
          "duration": 0.30232558139533694,
          "durationTicks": 26,
          "midi": 72,
          "name": "C5",
          "ticks": 19372,
          "time": 225.25581395348837,
          "velocity": 0.25196850393700787
        },
        {
          "duration": 0.12790697674418539,
          "durationTicks": 11,
          "midi": 74,
          "name": "D5",
          "ticks": 19372,
          "time": 225.25581395348837,
          "velocity": 0.12598425196850394
        },
        {
          "duration": 0.1046511627907023,
          "durationTicks": 9,
          "midi": 55,
          "name": "G3",
          "ticks": 19373,
          "time": 225.2674418604651,
          "velocity": 0.2992125984251969
        },
        {
          "duration": 0.03488372093025305,
          "durationTicks": 3,
          "midi": 91,
          "name": "G6",
          "ticks": 19374,
          "time": 225.27906976744185,
          "velocity": 0.07086614173228346
        },
        {
          "duration": 0.023255813953511506,
          "durationTicks": 2,
          "midi": 48,
          "name": "C3",
          "ticks": 19375,
          "time": 225.2906976744186,
          "velocity": 0.3228346456692913
        },
        {
          "duration": 0.09302325581396076,
          "durationTicks": 8,
          "midi": 83,
          "name": "B5",
          "ticks": 19375,
          "time": 225.2906976744186,
          "velocity": 0.07086614173228346
        },
        {
          "duration": 0.023255813953483084,
          "durationTicks": 2,
          "midi": 48,
          "name": "C3",
          "ticks": 19380,
          "time": 225.34883720930233,
          "velocity": 0.31496062992125984
        },
        {
          "duration": 0.023255813953483084,
          "durationTicks": 2,
          "midi": 56,
          "name": "G#3",
          "ticks": 19382,
          "time": 225.37209302325581,
          "velocity": 0.2440944881889764
        },
        {
          "duration": 0.05813953488373613,
          "durationTicks": 5,
          "midi": 91,
          "name": "G6",
          "ticks": 19384,
          "time": 225.3953488372093,
          "velocity": 0.08661417322834646
        },
        {
          "duration": 0.023255813953483084,
          "durationTicks": 2,
          "midi": 43,
          "name": "G2",
          "ticks": 19385,
          "time": 225.40697674418604,
          "velocity": 0.33858267716535434
        },
        {
          "duration": 0.19767441860466306,
          "durationTicks": 17,
          "midi": 74,
          "name": "D5",
          "ticks": 19385,
          "time": 225.40697674418604,
          "velocity": 0.2204724409448819
        },
        {
          "duration": 0.2093023255814046,
          "durationTicks": 18,
          "midi": 55,
          "name": "G3",
          "ticks": 19386,
          "time": 225.41860465116278,
          "velocity": 0.47244094488188976
        },
        {
          "duration": 0.1046511627907023,
          "durationTicks": 9,
          "midi": 60,
          "name": "C4",
          "ticks": 19386,
          "time": 225.41860465116278,
          "velocity": 0.2440944881889764
        },
        {
          "duration": 0.023255813953483084,
          "durationTicks": 2,
          "midi": 43,
          "name": "G2",
          "ticks": 19393,
          "time": 225.5,
          "velocity": 0.3464566929133858
        },
        {
          "duration": 0.04651162790696617,
          "durationTicks": 4,
          "midi": 91,
          "name": "G6",
          "ticks": 19393,
          "time": 225.5,
          "velocity": 0.07874015748031496
        },
        {
          "duration": 0.023255813953511506,
          "durationTicks": 2,
          "midi": 43,
          "name": "G2",
          "ticks": 19398,
          "time": 225.5581395348837,
          "velocity": 0.3700787401574803
        },
        {
          "duration": 0.03488372093025305,
          "durationTicks": 3,
          "midi": 71,
          "name": "B4",
          "ticks": 19398,
          "time": 225.5581395348837,
          "velocity": 0.2047244094488189
        },
        {
          "duration": 0.04651162790696617,
          "durationTicks": 4,
          "midi": 44,
          "name": "G#2",
          "ticks": 19400,
          "time": 225.58139534883722,
          "velocity": 0.3543307086614173
        },
        {
          "duration": 0.06976744186044925,
          "durationTicks": 6,
          "midi": 70,
          "name": "A#4",
          "ticks": 19400,
          "time": 225.58139534883722,
          "velocity": 0.25196850393700787
        },
        {
          "duration": 0.023255813953483084,
          "durationTicks": 2,
          "midi": 68,
          "name": "G#4",
          "ticks": 19403,
          "time": 225.61627906976744,
          "velocity": 0.2283464566929134
        },
        {
          "duration": 0.034883720930224626,
          "durationTicks": 3,
          "midi": 54,
          "name": "F#3",
          "ticks": 19404,
          "time": 225.62790697674419,
          "velocity": 0.4409448818897638
        },
        {
          "duration": 0.034883720930224626,
          "durationTicks": 3,
          "midi": 42,
          "name": "F#2",
          "ticks": 19405,
          "time": 225.63953488372093,
          "velocity": 0.1889763779527559
        },
        {
          "duration": 0.034883720930224626,
          "durationTicks": 3,
          "midi": 74,
          "name": "D5",
          "ticks": 19405,
          "time": 225.63953488372093,
          "velocity": 0.1968503937007874
        },
        {
          "duration": 0.08139534883721922,
          "durationTicks": 7,
          "midi": 64,
          "name": "E4",
          "ticks": 19408,
          "time": 225.67441860465115,
          "velocity": 0.30708661417322836
        },
        {
          "duration": 0.1046511627907023,
          "durationTicks": 9,
          "midi": 57,
          "name": "A3",
          "ticks": 19409,
          "time": 225.6860465116279,
          "velocity": 0.4566929133858268
        },
        {
          "duration": 0.05813953488373613,
          "durationTicks": 5,
          "midi": 71,
          "name": "B4",
          "ticks": 19409,
          "time": 225.6860465116279,
          "velocity": 0.14960629921259844
        },
        {
          "duration": 0.04651162790699459,
          "durationTicks": 4,
          "midi": 74,
          "name": "D5",
          "ticks": 19409,
          "time": 225.6860465116279,
          "velocity": 0.2125984251968504
        },
        {
          "duration": 0.1279069767442138,
          "durationTicks": 11,
          "midi": 85,
          "name": "C#6",
          "ticks": 19409,
          "time": 225.6860465116279,
          "velocity": 0.14960629921259844
        },
        {
          "duration": 0.09302325581393234,
          "durationTicks": 8,
          "midi": 45,
          "name": "A2",
          "ticks": 19410,
          "time": 225.69767441860466,
          "velocity": 0.4015748031496063
        },
        {
          "duration": 0.04651162790696617,
          "durationTicks": 4,
          "midi": 52,
          "name": "E3",
          "ticks": 19410,
          "time": 225.69767441860466,
          "velocity": 0.2755905511811024
        },
        {
          "duration": 0.034883720930224626,
          "durationTicks": 3,
          "midi": 89,
          "name": "F6",
          "ticks": 19410,
          "time": 225.69767441860466,
          "velocity": 0.10236220472440945
        },
        {
          "duration": 0.22093023255814614,
          "durationTicks": 19,
          "midi": 88,
          "name": "E6",
          "ticks": 19414,
          "time": 225.74418604651163,
          "velocity": 0.2440944881889764
        },
        {
          "duration": 0.09302325581396076,
          "durationTicks": 8,
          "midi": 103,
          "name": "G7",
          "ticks": 19414,
          "time": 225.74418604651163,
          "velocity": 0.18110236220472442
        },
        {
          "duration": 0.4302325581395223,
          "durationTicks": 37,
          "midi": 86,
          "name": "D6",
          "ticks": 19415,
          "time": 225.75581395348837,
          "velocity": 0.2204724409448819
        },
        {
          "duration": 0.4767441860465169,
          "durationTicks": 41,
          "midi": 102,
          "name": "F#7",
          "ticks": 19415,
          "time": 225.75581395348837,
          "velocity": 0.12598425196850394
        },
        {
          "duration": 0.7441860465116292,
          "durationTicks": 64,
          "midi": 74,
          "name": "D5",
          "ticks": 19416,
          "time": 225.7674418604651,
          "velocity": 0.33070866141732286
        },
        {
          "duration": 0.24418604651162923,
          "durationTicks": 21,
          "midi": 62,
          "name": "D4",
          "ticks": 19418,
          "time": 225.7906976744186,
          "velocity": 0.25196850393700787
        },
        {
          "duration": 0.4767441860465169,
          "durationTicks": 41,
          "midi": 57,
          "name": "A3",
          "ticks": 19419,
          "time": 225.80232558139534,
          "velocity": 0.48031496062992124
        },
        {
          "duration": 0.2441860465116008,
          "durationTicks": 21,
          "midi": 45,
          "name": "A2",
          "ticks": 19420,
          "time": 225.8139534883721,
          "velocity": 0.44881889763779526
        },
        {
          "duration": 0.25581395348837077,
          "durationTicks": 22,
          "midi": 62,
          "name": "D4",
          "ticks": 19440,
          "time": 226.04651162790697,
          "velocity": 0.30708661417322836
        },
        {
          "duration": 0.19767441860463464,
          "durationTicks": 17,
          "midi": 50,
          "name": "D3",
          "ticks": 19443,
          "time": 226.08139534883722,
          "velocity": 0.25984251968503935
        },
        {
          "duration": 0.023255813953483084,
          "durationTicks": 2,
          "midi": 49,
          "name": "C#3",
          "ticks": 19460,
          "time": 226.27906976744185,
          "velocity": 0.25196850393700787
        },
        {
          "duration": 0.023255813953483084,
          "durationTicks": 2,
          "midi": 56,
          "name": "G#3",
          "ticks": 19460,
          "time": 226.27906976744185,
          "velocity": 0.36220472440944884
        },
        {
          "duration": 0.023255813953511506,
          "durationTicks": 2,
          "midi": 57,
          "name": "A3",
          "ticks": 19462,
          "time": 226.30232558139534,
          "velocity": 0.33858267716535434
        },
        {
          "duration": 0.19767441860463464,
          "durationTicks": 17,
          "midi": 45,
          "name": "A2",
          "ticks": 19465,
          "time": 226.3372093023256,
          "velocity": 0.4409448818897638
        },
        {
          "duration": 0.2325581395348877,
          "durationTicks": 20,
          "midi": 57,
          "name": "A3",
          "ticks": 19472,
          "time": 226.41860465116278,
          "velocity": 0.44881889763779526
        },
        {
          "duration": 0.12790697674418539,
          "durationTicks": 11,
          "midi": 85,
          "name": "C#6",
          "ticks": 19472,
          "time": 226.41860465116278,
          "velocity": 0.2440944881889764
        },
        {
          "duration": 0.1046511627907023,
          "durationTicks": 9,
          "midi": 88,
          "name": "E6",
          "ticks": 19473,
          "time": 226.43023255813952,
          "velocity": 0.10236220472440945
        },
        {
          "duration": 0.10465116279067388,
          "durationTicks": 9,
          "midi": 62,
          "name": "D4",
          "ticks": 19474,
          "time": 226.4418604651163,
          "velocity": 0.1968503937007874
        },
        {
          "duration": 0.023255813953483084,
          "durationTicks": 2,
          "midi": 44,
          "name": "G#2",
          "ticks": 19482,
          "time": 226.53488372093022,
          "velocity": 0.3700787401574803
        },
        {
          "duration": 0.023255813953511506,
          "durationTicks": 2,
          "midi": 43,
          "name": "G2",
          "ticks": 19484,
          "time": 226.5581395348837,
          "velocity": 0.29133858267716534
        },
        {
          "duration": 0.0813953488371908,
          "durationTicks": 7,
          "midi": 45,
          "name": "A2",
          "ticks": 19487,
          "time": 226.59302325581396,
          "velocity": 0.3779527559055118
        },
        {
          "duration": 0.2325581395348877,
          "durationTicks": 20,
          "midi": 85,
          "name": "C#6",
          "ticks": 19493,
          "time": 226.6627906976744,
          "velocity": 0.16535433070866143
        },
        {
          "duration": 0.023255813953511506,
          "durationTicks": 2,
          "midi": 46,
          "name": "A#2",
          "ticks": 19494,
          "time": 226.67441860465115,
          "velocity": 0.33858267716535434
        },
        {
          "duration": 0.023255813953511506,
          "durationTicks": 2,
          "midi": 56,
          "name": "G#3",
          "ticks": 19494,
          "time": 226.67441860465115,
          "velocity": 0.4881889763779528
        },
        {
          "duration": 0.3604651162790731,
          "durationTicks": 31,
          "midi": 62,
          "name": "D4",
          "ticks": 19494,
          "time": 226.67441860465115,
          "velocity": 0.29133858267716534
        },
        {
          "duration": 0.1046511627907023,
          "durationTicks": 9,
          "midi": 69,
          "name": "A4",
          "ticks": 19494,
          "time": 226.67441860465115,
          "velocity": 0.2440944881889764
        },
        {
          "duration": 0.04651162790699459,
          "durationTicks": 4,
          "midi": 73,
          "name": "C#5",
          "ticks": 19494,
          "time": 226.67441860465115,
          "velocity": 0.09448818897637795
        },
        {
          "duration": 0.023255813953483084,
          "durationTicks": 2,
          "midi": 44,
          "name": "G#2",
          "ticks": 19496,
          "time": 226.69767441860466,
          "velocity": 0.4330708661417323
        },
        {
          "duration": 0.20930232558137618,
          "durationTicks": 18,
          "midi": 57,
          "name": "A3",
          "ticks": 19496,
          "time": 226.69767441860466,
          "velocity": 0.4645669291338583
        },
        {
          "duration": 0.20930232558137618,
          "durationTicks": 18,
          "midi": 45,
          "name": "A2",
          "ticks": 19498,
          "time": 226.72093023255815,
          "velocity": 0.4645669291338583
        },
        {
          "duration": 0.05813953488370771,
          "durationTicks": 5,
          "midi": 93,
          "name": "A6",
          "ticks": 19499,
          "time": 226.7325581395349,
          "velocity": 0.11023622047244094
        },
        {
          "duration": 0.034883720930224626,
          "durationTicks": 3,
          "midi": 70,
          "name": "A#4",
          "ticks": 19501,
          "time": 226.75581395348837,
          "velocity": 0.36220472440944884
        },
        {
          "duration": 0.11627906976744384,
          "durationTicks": 10,
          "midi": 81,
          "name": "A5",
          "ticks": 19503,
          "time": 226.77906976744185,
          "velocity": 0.33070866141732286
        },
        {
          "duration": 0.1046511627907023,
          "durationTicks": 9,
          "midi": 88,
          "name": "E6",
          "ticks": 19503,
          "time": 226.77906976744185,
          "velocity": 0.1968503937007874
        },
        {
          "duration": 0.09302325581396076,
          "durationTicks": 8,
          "midi": 103,
          "name": "G7",
          "ticks": 19503,
          "time": 226.77906976744185,
          "velocity": 0.25196850393700787
        },
        {
          "duration": 0.023255813953483084,
          "durationTicks": 2,
          "midi": 56,
          "name": "G#3",
          "ticks": 19514,
          "time": 226.90697674418604,
          "velocity": 0.33070866141732286
        },
        {
          "duration": 0.11627906976744384,
          "durationTicks": 10,
          "midi": 85,
          "name": "C#6",
          "ticks": 19515,
          "time": 226.91860465116278,
          "velocity": 0.14173228346456693
        },
        {
          "duration": 0.12790697674418539,
          "durationTicks": 11,
          "midi": 57,
          "name": "A3",
          "ticks": 19516,
          "time": 226.93023255813952,
          "velocity": 0.3937007874015748
        },
        {
          "duration": 0.11627906976741542,
          "durationTicks": 10,
          "midi": 45,
          "name": "A2",
          "ticks": 19517,
          "time": 226.9418604651163,
          "velocity": 0.44881889763779526
        },
        {
          "duration": 0.09302325581396076,
          "durationTicks": 8,
          "midi": 67,
          "name": "G4",
          "ticks": 19525,
          "time": 227.03488372093022,
          "velocity": 0.29133858267716534
        },
        {
          "duration": 0.023255813953511506,
          "durationTicks": 2,
          "midi": 46,
          "name": "A#2",
          "ticks": 19527,
          "time": 227.0581395348837,
          "velocity": 0.2677165354330709
        },
        {
          "duration": 0.10465116279067388,
          "durationTicks": 9,
          "midi": 57,
          "name": "A3",
          "ticks": 19528,
          "time": 227.06976744186048,
          "velocity": 0.33858267716535434
        },
        {
          "duration": 0.06976744186044925,
          "durationTicks": 6,
          "midi": 45,
          "name": "A2",
          "ticks": 19529,
          "time": 227.08139534883722,
          "velocity": 0.33070866141732286
        },
        {
          "duration": 0.034883720930224626,
          "durationTicks": 3,
          "midi": 44,
          "name": "G#2",
          "ticks": 19535,
          "time": 227.15116279069767,
          "velocity": 0.3228346456692913
        },
        {
          "duration": 0.1511627906976969,
          "durationTicks": 13,
          "midi": 78,
          "name": "F#5",
          "ticks": 19536,
          "time": 227.1627906976744,
          "velocity": 0.2047244094488189
        },
        {
          "duration": 0.023255813953511506,
          "durationTicks": 2,
          "midi": 55,
          "name": "G3",
          "ticks": 19537,
          "time": 227.17441860465115,
          "velocity": 0.4409448818897638
        },
        {
          "duration": 0.13953488372095535,
          "durationTicks": 12,
          "midi": 66,
          "name": "F#4",
          "ticks": 19537,
          "time": 227.17441860465115,
          "velocity": 0.3464566929133858
        },
        {
          "duration": 0.3720930232558146,
          "durationTicks": 32,
          "midi": 85,
          "name": "C#6",
          "ticks": 19537,
          "time": 227.17441860465115,
          "velocity": 0.2440944881889764
        },
        {
          "duration": 0.04651162790699459,
          "durationTicks": 4,
          "midi": 93,
          "name": "A6",
          "ticks": 19537,
          "time": 227.17441860465115,
          "velocity": 0.14173228346456693
        },
        {
          "duration": 0.05813953488373613,
          "durationTicks": 5,
          "midi": 94,
          "name": "A#6",
          "ticks": 19538,
          "time": 227.1860465116279,
          "velocity": 0.13385826771653545
        },
        {
          "duration": 0.3720930232558146,
          "durationTicks": 32,
          "midi": 57,
          "name": "A3",
          "ticks": 19539,
          "time": 227.19767441860466,
          "velocity": 0.48031496062992124
        },
        {
          "duration": 0.11627906976744384,
          "durationTicks": 10,
          "midi": 62,
          "name": "D4",
          "ticks": 19539,
          "time": 227.19767441860466,
          "velocity": 0.2992125984251969
        },
        {
          "duration": 0.034883720930224626,
          "durationTicks": 3,
          "midi": 44,
          "name": "G#2",
          "ticks": 19542,
          "time": 227.2325581395349,
          "velocity": 0.41732283464566927
        },
        {
          "duration": 0.06976744186047767,
          "durationTicks": 6,
          "midi": 45,
          "name": "A2",
          "ticks": 19545,
          "time": 227.2674418604651,
          "velocity": 0.4251968503937008
        },
        {
          "duration": 0.04651162790699459,
          "durationTicks": 4,
          "midi": 93,
          "name": "A6",
          "ticks": 19548,
          "time": 227.30232558139534,
          "velocity": 0.14173228346456693
        },
        {
          "duration": 0.10465116279067388,
          "durationTicks": 9,
          "midi": 65,
          "name": "F4",
          "ticks": 19549,
          "time": 227.3139534883721,
          "velocity": 0.3464566929133858
        },
        {
          "duration": 0.09302325581393234,
          "durationTicks": 8,
          "midi": 101,
          "name": "F7",
          "ticks": 19549,
          "time": 227.3139534883721,
          "velocity": 0.15748031496062992
        },
        {
          "duration": 0.05813953488370771,
          "durationTicks": 5,
          "midi": 62,
          "name": "D4",
          "ticks": 19550,
          "time": 227.32558139534885,
          "velocity": 0.2283464566929134
        },
        {
          "duration": 0.04651162790696617,
          "durationTicks": 4,
          "midi": 45,
          "name": "A2",
          "ticks": 19553,
          "time": 227.36046511627907,
          "velocity": 0.3228346456692913
        },
        {
          "duration": 0.05813953488373613,
          "durationTicks": 5,
          "midi": 62,
          "name": "D4",
          "ticks": 19556,
          "time": 227.3953488372093,
          "velocity": 0.33070866141732286
        },
        {
          "duration": 0.023255813953511506,
          "durationTicks": 2,
          "midi": 50,
          "name": "D3",
          "ticks": 19558,
          "time": 227.41860465116278,
          "velocity": 0.3700787401574803
        },
        {
          "duration": 0.11627906976741542,
          "durationTicks": 10,
          "midi": 76,
          "name": "E5",
          "ticks": 19560,
          "time": 227.4418604651163,
          "velocity": 0.28346456692913385
        },
        {
          "duration": 0.023255813953483084,
          "durationTicks": 2,
          "midi": 45,
          "name": "A2",
          "ticks": 19561,
          "time": 227.45348837209303,
          "velocity": 0.41732283464566927
        },
        {
          "duration": 0.04651162790696617,
          "durationTicks": 4,
          "midi": 64,
          "name": "E4",
          "ticks": 19562,
          "time": 227.46511627906978,
          "velocity": 0.3700787401574803
        },
        {
          "duration": 0.05813953488370771,
          "durationTicks": 5,
          "midi": 83,
          "name": "B5",
          "ticks": 19562,
          "time": 227.46511627906978,
          "velocity": 0.14173228346456693
        },
        {
          "duration": 0.04651162790696617,
          "durationTicks": 4,
          "midi": 92,
          "name": "G#6",
          "ticks": 19562,
          "time": 227.46511627906978,
          "velocity": 0.10236220472440945
        },
        {
          "duration": 0.11627906976744384,
          "durationTicks": 10,
          "midi": 45,
          "name": "A2",
          "ticks": 19564,
          "time": 227.48837209302326,
          "velocity": 0.4330708661417323
        },
        {
          "duration": 0.034883720930224626,
          "durationTicks": 3,
          "midi": 62,
          "name": "D4",
          "ticks": 19567,
          "time": 227.52325581395348,
          "velocity": 0.2283464566929134
        },
        {
          "duration": 0.023255813953511506,
          "durationTicks": 2,
          "midi": 64,
          "name": "E4",
          "ticks": 19569,
          "time": 227.54651162790697,
          "velocity": 0.29133858267716534
        },
        {
          "duration": 0.12790697674418539,
          "durationTicks": 11,
          "midi": 75,
          "name": "D#5",
          "ticks": 19570,
          "time": 227.5581395348837,
          "velocity": 0.4094488188976378
        },
        {
          "duration": 0.06976744186044925,
          "durationTicks": 6,
          "midi": 63,
          "name": "D#4",
          "ticks": 19571,
          "time": 227.56976744186048,
          "velocity": 0.4409448818897638
        },
        {
          "duration": 0.0813953488371908,
          "durationTicks": 7,
          "midi": 82,
          "name": "A#5",
          "ticks": 19571,
          "time": 227.56976744186048,
          "velocity": 0.14960629921259844
        },
        {
          "duration": 0.04651162790696617,
          "durationTicks": 4,
          "midi": 45,
          "name": "A2",
          "ticks": 19575,
          "time": 227.61627906976744,
          "velocity": 0.44881889763779526
        },
        {
          "duration": 0.023255813953483084,
          "durationTicks": 2,
          "midi": 62,
          "name": "D4",
          "ticks": 19577,
          "time": 227.63953488372093,
          "velocity": 0.33070866141732286
        },
        {
          "duration": 0.034883720930224626,
          "durationTicks": 3,
          "midi": 56,
          "name": "G#3",
          "ticks": 19578,
          "time": 227.65116279069767,
          "velocity": 0.33858267716535434
        },
        {
          "duration": 0.1046511627907023,
          "durationTicks": 9,
          "midi": 44,
          "name": "G#2",
          "ticks": 19579,
          "time": 227.6627906976744,
          "velocity": 0.44881889763779526
        },
        {
          "duration": 0.03488372093025305,
          "durationTicks": 3,
          "midi": 63,
          "name": "D#4",
          "ticks": 19580,
          "time": 227.67441860465115,
          "velocity": 0.4094488188976378
        },
        {
          "duration": 0.023255813953511506,
          "durationTicks": 2,
          "midi": 55,
          "name": "G3",
          "ticks": 19581,
          "time": 227.6860465116279,
          "velocity": 0.36220472440944884
        },
        {
          "duration": 0.11627906976744384,
          "durationTicks": 10,
          "midi": 74,
          "name": "D5",
          "ticks": 19581,
          "time": 227.6860465116279,
          "velocity": 0.3779527559055118
        },
        {
          "duration": 0.09302325581393234,
          "durationTicks": 8,
          "midi": 62,
          "name": "D4",
          "ticks": 19583,
          "time": 227.7093023255814,
          "velocity": 0.4094488188976378
        },
        {
          "duration": 0.034883720930224626,
          "durationTicks": 3,
          "midi": 68,
          "name": "G#4",
          "ticks": 19583,
          "time": 227.7093023255814,
          "velocity": 0.07874015748031496
        },
        {
          "duration": 0.09302325581393234,
          "durationTicks": 8,
          "midi": 81,
          "name": "A5",
          "ticks": 19583,
          "time": 227.7093023255814,
          "velocity": 0.14960629921259844
        },
        {
          "duration": 0.034883720930224626,
          "durationTicks": 3,
          "midi": 57,
          "name": "A3",
          "ticks": 19584,
          "time": 227.72093023255815,
          "velocity": 0.3779527559055118
        },
        {
          "duration": 0.023255813953483084,
          "durationTicks": 2,
          "midi": 45,
          "name": "A2",
          "ticks": 19588,
          "time": 227.7674418604651,
          "velocity": 0.4251968503937008
        },
        {
          "duration": 0.03488372093025305,
          "durationTicks": 3,
          "midi": 45,
          "name": "A2",
          "ticks": 19591,
          "time": 227.80232558139534,
          "velocity": 0.33070866141732286
        },
        {
          "duration": 0.023255813953483084,
          "durationTicks": 2,
          "midi": 56,
          "name": "G#3",
          "ticks": 19593,
          "time": 227.82558139534885,
          "velocity": 0.4330708661417323
        },
        {
          "duration": 0.06976744186044925,
          "durationTicks": 6,
          "midi": 61,
          "name": "C#4",
          "ticks": 19593,
          "time": 227.82558139534885,
          "velocity": 0.3858267716535433
        },
        {
          "duration": 0.023255813953483084,
          "durationTicks": 2,
          "midi": 55,
          "name": "G3",
          "ticks": 19595,
          "time": 227.84883720930233,
          "velocity": 0.4881889763779528
        },
        {
          "duration": 0.09302325581396076,
          "durationTicks": 8,
          "midi": 75,
          "name": "D#5",
          "ticks": 19595,
          "time": 227.84883720930233,
          "velocity": 0.1968503937007874
        },
        {
          "duration": 0.04651162790696617,
          "durationTicks": 4,
          "midi": 83,
          "name": "B5",
          "ticks": 19595,
          "time": 227.84883720930233,
          "velocity": 0.07874015748031496
        },
        {
          "duration": 0.023255813953483084,
          "durationTicks": 2,
          "midi": 45,
          "name": "A2",
          "ticks": 19596,
          "time": 227.86046511627907,
          "velocity": 0.4251968503937008
        },
        {
          "duration": 0.2325581395348877,
          "durationTicks": 20,
          "midi": 56,
          "name": "G#3",
          "ticks": 19597,
          "time": 227.87209302325581,
          "velocity": 0.4330708661417323
        },
        {
          "duration": 0.13953488372092693,
          "durationTicks": 12,
          "midi": 44,
          "name": "G#2",
          "ticks": 19598,
          "time": 227.88372093023256,
          "velocity": 0.47244094488188976
        },
        {
          "duration": 0.023255813953483084,
          "durationTicks": 2,
          "midi": 60,
          "name": "C4",
          "ticks": 19599,
          "time": 227.8953488372093,
          "velocity": 0.25196850393700787
        },
        {
          "duration": 0.09302325581396076,
          "durationTicks": 8,
          "midi": 61,
          "name": "C#4",
          "ticks": 19601,
          "time": 227.91860465116278,
          "velocity": 0.4094488188976378
        },
        {
          "duration": 0.0813953488371908,
          "durationTicks": 7,
          "midi": 75,
          "name": "D#5",
          "ticks": 19604,
          "time": 227.95348837209303,
          "velocity": 0.14960629921259844
        },
        {
          "duration": 0.08139534883721922,
          "durationTicks": 7,
          "midi": 61,
          "name": "C#4",
          "ticks": 19611,
          "time": 228.03488372093022,
          "velocity": 0.36220472440944884
        },
        {
          "duration": 0.03488372093025305,
          "durationTicks": 3,
          "midi": 44,
          "name": "G#2",
          "ticks": 19613,
          "time": 228.0581395348837,
          "velocity": 0.4015748031496063
        },
        {
          "duration": 0.11627906976744384,
          "durationTicks": 10,
          "midi": 44,
          "name": "G#2",
          "ticks": 19617,
          "time": 228.1046511627907,
          "velocity": 0.41732283464566927
        },
        {
          "duration": 0.3720930232558146,
          "durationTicks": 32,
          "midi": 56,
          "name": "G#3",
          "ticks": 19618,
          "time": 228.11627906976744,
          "velocity": 0.4645669291338583
        },
        {
          "duration": 0.4767441860465169,
          "durationTicks": 41,
          "midi": 73,
          "name": "C#5",
          "ticks": 19618,
          "time": 228.11627906976744,
          "velocity": 0.3779527559055118
        },
        {
          "duration": 0.11627906976744384,
          "durationTicks": 10,
          "midi": 75,
          "name": "D#5",
          "ticks": 19619,
          "time": 228.12790697674419,
          "velocity": 0.1732283464566929
        },
        {
          "duration": 0.023255813953511506,
          "durationTicks": 2,
          "midi": 63,
          "name": "D#4",
          "ticks": 19623,
          "time": 228.17441860465115,
          "velocity": 0.2677165354330709
        },
        {
          "duration": 0.09302325581393234,
          "durationTicks": 8,
          "midi": 61,
          "name": "C#4",
          "ticks": 19625,
          "time": 228.19767441860466,
          "velocity": 0.44881889763779526
        },
        {
          "duration": 0.08139534883721922,
          "durationTicks": 7,
          "midi": 44,
          "name": "G#2",
          "ticks": 19628,
          "time": 228.2325581395349,
          "velocity": 0.33070866141732286
        },
        {
          "duration": 0.03488372093025305,
          "durationTicks": 3,
          "midi": 61,
          "name": "C#4",
          "ticks": 19634,
          "time": 228.30232558139534,
          "velocity": 0.28346456692913385
        },
        {
          "duration": 0.023255813953483084,
          "durationTicks": 2,
          "midi": 60,
          "name": "C4",
          "ticks": 19637,
          "time": 228.3372093023256,
          "velocity": 0.2677165354330709
        },
        {
          "duration": 0.06976744186044925,
          "durationTicks": 6,
          "midi": 61,
          "name": "C#4",
          "ticks": 19639,
          "time": 228.36046511627907,
          "velocity": 0.4645669291338583
        },
        {
          "duration": 0.04651162790696617,
          "durationTicks": 4,
          "midi": 45,
          "name": "A2",
          "ticks": 19641,
          "time": 228.38372093023256,
          "velocity": 0.4094488188976378
        },
        {
          "duration": 0.13953488372095535,
          "durationTicks": 12,
          "midi": 44,
          "name": "G#2",
          "ticks": 19645,
          "time": 228.43023255813952,
          "velocity": 0.49606299212598426
        },
        {
          "duration": 0.11627906976744384,
          "durationTicks": 10,
          "midi": 92,
          "name": "G#6",
          "ticks": 19647,
          "time": 228.45348837209303,
          "velocity": 0.12598425196850394
        },
        {
          "duration": 0.16279069767441,
          "durationTicks": 14,
          "midi": 61,
          "name": "C#4",
          "ticks": 19648,
          "time": 228.46511627906978,
          "velocity": 0.3858267716535433
        },
        {
          "duration": 0.11627906976744384,
          "durationTicks": 10,
          "midi": 80,
          "name": "G#5",
          "ticks": 19649,
          "time": 228.47674418604652,
          "velocity": 0.13385826771653545
        },
        {
          "duration": 0.13953488372092693,
          "durationTicks": 12,
          "midi": 68,
          "name": "G#4",
          "ticks": 19652,
          "time": 228.51162790697674,
          "velocity": 0.14960629921259844
        },
        {
          "duration": 0.05813953488373613,
          "durationTicks": 5,
          "midi": 75,
          "name": "D#5",
          "ticks": 19653,
          "time": 228.52325581395348,
          "velocity": 0.11023622047244094
        },
        {
          "duration": 0.06976744186047767,
          "durationTicks": 6,
          "midi": 84,
          "name": "C6",
          "ticks": 19655,
          "time": 228.54651162790697,
          "velocity": 0.10236220472440945
        },
        {
          "duration": 0.04651162790696617,
          "durationTicks": 4,
          "midi": 44,
          "name": "G#2",
          "ticks": 19658,
          "time": 228.58139534883722,
          "velocity": 0.47244094488188976
        },
        {
          "duration": 0.2325581395348877,
          "durationTicks": 20,
          "midi": 74,
          "name": "D5",
          "ticks": 19658,
          "time": 228.58139534883722,
          "velocity": 0.4094488188976378
        },
        {
          "duration": 0.04651162790696617,
          "durationTicks": 4,
          "midi": 62,
          "name": "D4",
          "ticks": 19661,
          "time": 228.61627906976744,
          "velocity": 0.3937007874015748
        },
        {
          "duration": 0.034883720930224626,
          "durationTicks": 3,
          "midi": 55,
          "name": "G3",
          "ticks": 19662,
          "time": 228.62790697674419,
          "velocity": 0.31496062992125984
        },
        {
          "duration": 0.05813953488373613,
          "durationTicks": 5,
          "midi": 44,
          "name": "G#2",
          "ticks": 19663,
          "time": 228.63953488372093,
          "velocity": 0.4251968503937008
        },
        {
          "duration": 0.023255813953511506,
          "durationTicks": 2,
          "midi": 57,
          "name": "A3",
          "ticks": 19666,
          "time": 228.67441860465115,
          "velocity": 0.3700787401574803
        },
        {
          "duration": 0.08139534883721922,
          "durationTicks": 7,
          "midi": 62,
          "name": "D4",
          "ticks": 19666,
          "time": 228.67441860465115,
          "velocity": 0.4251968503937008
        },
        {
          "duration": 0.13953488372095535,
          "durationTicks": 12,
          "midi": 81,
          "name": "A5",
          "ticks": 19667,
          "time": 228.6860465116279,
          "velocity": 0.2755905511811024
        },
        {
          "duration": 0.023255813953483084,
          "durationTicks": 2,
          "midi": 45,
          "name": "A2",
          "ticks": 19668,
          "time": 228.69767441860466,
          "velocity": 0.2440944881889764
        },
        {
          "duration": 0.023255813953483084,
          "durationTicks": 2,
          "midi": 55,
          "name": "G3",
          "ticks": 19668,
          "time": 228.69767441860466,
          "velocity": 0.23622047244094488
        },
        {
          "duration": 0.023255813953483084,
          "durationTicks": 2,
          "midi": 43,
          "name": "G2",
          "ticks": 19671,
          "time": 228.7325581395349,
          "velocity": 0.2283464566929134
        },
        {
          "duration": 0.023255813953483084,
          "durationTicks": 2,
          "midi": 55,
          "name": "G3",
          "ticks": 19672,
          "time": 228.74418604651163,
          "velocity": 0.3700787401574803
        },
        {
          "duration": 0.13953488372092693,
          "durationTicks": 12,
          "midi": 70,
          "name": "A#4",
          "ticks": 19673,
          "time": 228.75581395348837,
          "velocity": 0.2125984251968504
        },
        {
          "duration": 0.11627906976744384,
          "durationTicks": 10,
          "midi": 58,
          "name": "A#3",
          "ticks": 19674,
          "time": 228.7674418604651,
          "velocity": 0.3858267716535433
        },
        {
          "duration": 0.06976744186047767,
          "durationTicks": 6,
          "midi": 79,
          "name": "G5",
          "ticks": 19674,
          "time": 228.7674418604651,
          "velocity": 0.11811023622047244
        },
        {
          "duration": 0.023255813953483084,
          "durationTicks": 2,
          "midi": 44,
          "name": "G#2",
          "ticks": 19675,
          "time": 228.77906976744185,
          "velocity": 0.41732283464566927
        },
        {
          "duration": 0.023255813953483084,
          "durationTicks": 2,
          "midi": 62,
          "name": "D4",
          "ticks": 19675,
          "time": 228.77906976744185,
          "velocity": 0.4015748031496063
        },
        {
          "duration": 0.03488372093025305,
          "durationTicks": 3,
          "midi": 96,
          "name": "C7",
          "ticks": 19675,
          "time": 228.77906976744185,
          "velocity": 0.10236220472440945
        },
        {
          "duration": 0.03488372093025305,
          "durationTicks": 3,
          "midi": 45,
          "name": "A2",
          "ticks": 19677,
          "time": 228.80232558139534,
          "velocity": 0.4409448818897638
        },
        {
          "duration": 0.534883720930253,
          "durationTicks": 46,
          "midi": 63,
          "name": "D#4",
          "ticks": 19677,
          "time": 228.80232558139534,
          "velocity": 0.4566929133858268
        },
        {
          "duration": 0.5116279069767415,
          "durationTicks": 44,
          "midi": 75,
          "name": "D#5",
          "ticks": 19678,
          "time": 228.8139534883721,
          "velocity": 0.4645669291338583
        },
        {
          "duration": 0.48837209302325846,
          "durationTicks": 42,
          "midi": 82,
          "name": "A#5",
          "ticks": 19680,
          "time": 228.8372093023256,
          "velocity": 0.2677165354330709
        },
        {
          "duration": 0.023255813953483084,
          "durationTicks": 2,
          "midi": 51,
          "name": "D#3",
          "ticks": 19682,
          "time": 228.86046511627907,
          "velocity": 0.30708661417322836
        },
        {
          "duration": 0.04651162790696617,
          "durationTicks": 4,
          "midi": 103,
          "name": "G7",
          "ticks": 19682,
          "time": 228.86046511627907,
          "velocity": 0.07086614173228346
        },
        {
          "duration": 0.023255813953483084,
          "durationTicks": 2,
          "midi": 45,
          "name": "A2",
          "ticks": 19683,
          "time": 228.87209302325581,
          "velocity": 0.31496062992125984
        },
        {
          "duration": 0.04651162790699459,
          "durationTicks": 4,
          "midi": 45,
          "name": "A2",
          "ticks": 19686,
          "time": 228.90697674418604,
          "velocity": 0.41732283464566927
        },
        {
          "duration": 0.023255813953483084,
          "durationTicks": 2,
          "midi": 45,
          "name": "A2",
          "ticks": 19692,
          "time": 228.97674418604652,
          "velocity": 0.29133858267716534
        },
        {
          "duration": 0.023255813953483084,
          "durationTicks": 2,
          "midi": 56,
          "name": "G#3",
          "ticks": 19694,
          "time": 229,
          "velocity": 0.3464566929133858
        },
        {
          "duration": 0.023255813953483084,
          "durationTicks": 2,
          "midi": 46,
          "name": "A#2",
          "ticks": 19695,
          "time": 229.01162790697674,
          "velocity": 0.23622047244094488
        },
        {
          "duration": 0.2093023255814046,
          "durationTicks": 18,
          "midi": 70,
          "name": "A#4",
          "ticks": 19696,
          "time": 229.02325581395348,
          "velocity": 0.2992125984251969
        },
        {
          "duration": 0.13953488372092693,
          "durationTicks": 12,
          "midi": 86,
          "name": "D6",
          "ticks": 19696,
          "time": 229.02325581395348,
          "velocity": 0.2283464566929134
        },
        {
          "duration": 0.03488372093025305,
          "durationTicks": 3,
          "midi": 44,
          "name": "G#2",
          "ticks": 19698,
          "time": 229.04651162790697,
          "velocity": 0.4409448818897638
        },
        {
          "duration": 0.11627906976744384,
          "durationTicks": 10,
          "midi": 58,
          "name": "A#3",
          "ticks": 19698,
          "time": 229.04651162790697,
          "velocity": 0.3779527559055118
        },
        {
          "duration": 0.1046511627907023,
          "durationTicks": 9,
          "midi": 79,
          "name": "G5",
          "ticks": 19699,
          "time": 229.0581395348837,
          "velocity": 0.09448818897637795
        },
        {
          "duration": 0.17441860465117998,
          "durationTicks": 15,
          "midi": 91,
          "name": "G6",
          "ticks": 19699,
          "time": 229.0581395348837,
          "velocity": 0.12598425196850394
        },
        {
          "duration": 0.034883720930224626,
          "durationTicks": 3,
          "midi": 45,
          "name": "A2",
          "ticks": 19701,
          "time": 229.08139534883722,
          "velocity": 0.4330708661417323
        },
        {
          "duration": 0.023255813953483084,
          "durationTicks": 2,
          "midi": 51,
          "name": "D#3",
          "ticks": 19704,
          "time": 229.11627906976744,
          "velocity": 0.3464566929133858
        },
        {
          "duration": 0.023255813953483084,
          "durationTicks": 2,
          "midi": 48,
          "name": "C3",
          "ticks": 19705,
          "time": 229.12790697674419,
          "velocity": 0.3464566929133858
        },
        {
          "duration": 0.03488372093025305,
          "durationTicks": 3,
          "midi": 45,
          "name": "A2",
          "ticks": 19708,
          "time": 229.1627906976744,
          "velocity": 0.4015748031496063
        },
        {
          "duration": 0.023255813953483084,
          "durationTicks": 2,
          "midi": 46,
          "name": "A#2",
          "ticks": 19713,
          "time": 229.22093023255815,
          "velocity": 0.30708661417322836
        },
        {
          "duration": 0.023255813953483084,
          "durationTicks": 2,
          "midi": 45,
          "name": "A2",
          "ticks": 19715,
          "time": 229.24418604651163,
          "velocity": 0.30708661417322836
        },
        {
          "duration": 0.023255813953483084,
          "durationTicks": 2,
          "midi": 55,
          "name": "G3",
          "ticks": 19718,
          "time": 229.27906976744185,
          "velocity": 0.4330708661417323
        },
        {
          "duration": 0.023255813953483084,
          "durationTicks": 2,
          "midi": 60,
          "name": "C4",
          "ticks": 19718,
          "time": 229.27906976744185,
          "velocity": 0.2677165354330709
        },
        {
          "duration": 0.43023255813955075,
          "durationTicks": 37,
          "midi": 86,
          "name": "D6",
          "ticks": 19719,
          "time": 229.2906976744186,
          "velocity": 0.2440944881889764
        },
        {
          "duration": 0.05813953488373613,
          "durationTicks": 5,
          "midi": 45,
          "name": "A2",
          "ticks": 19720,
          "time": 229.30232558139534,
          "velocity": 0.4330708661417323
        },
        {
          "duration": 0.04651162790699459,
          "durationTicks": 4,
          "midi": 70,
          "name": "A#4",
          "ticks": 19720,
          "time": 229.30232558139534,
          "velocity": 0.14173228346456693
        },
        {
          "duration": 0.11627906976741542,
          "durationTicks": 10,
          "midi": 58,
          "name": "A#3",
          "ticks": 19721,
          "time": 229.3139534883721,
          "velocity": 0.4409448818897638
        },
        {
          "duration": 0.12790697674418539,
          "durationTicks": 11,
          "midi": 79,
          "name": "G5",
          "ticks": 19721,
          "time": 229.3139534883721,
          "velocity": 0.13385826771653545
        },
        {
          "duration": 0.05813953488370771,
          "durationTicks": 5,
          "midi": 85,
          "name": "C#6",
          "ticks": 19721,
          "time": 229.3139534883721,
          "velocity": 0.11811023622047244
        },
        {
          "duration": 0.04651162790696617,
          "durationTicks": 4,
          "midi": 83,
          "name": "B5",
          "ticks": 19722,
          "time": 229.32558139534885,
          "velocity": 0.23622047244094488
        },
        {
          "duration": 0.04651162790696617,
          "durationTicks": 4,
          "midi": 64,
          "name": "E4",
          "ticks": 19723,
          "time": 229.3372093023256,
          "velocity": 0.4015748031496063
        },
        {
          "duration": 0.023255813953483084,
          "durationTicks": 2,
          "midi": 75,
          "name": "D#5",
          "ticks": 19723,
          "time": 229.3372093023256,
          "velocity": 0.2677165354330709
        },
        {
          "duration": 0.034883720930224626,
          "durationTicks": 3,
          "midi": 88,
          "name": "E6",
          "ticks": 19723,
          "time": 229.3372093023256,
          "velocity": 0.09448818897637795
        },
        {
          "duration": 0.034883720930224626,
          "durationTicks": 3,
          "midi": 51,
          "name": "D#3",
          "ticks": 19726,
          "time": 229.37209302325581,
          "velocity": 0.36220472440944884
        },
        {
          "duration": 0.2093023255814046,
          "durationTicks": 18,
          "midi": 82,
          "name": "A#5",
          "ticks": 19726,
          "time": 229.37209302325581,
          "velocity": 0.2125984251968504
        },
        {
          "duration": 0.1046511627907023,
          "durationTicks": 9,
          "midi": 63,
          "name": "D#4",
          "ticks": 19727,
          "time": 229.38372093023256,
          "velocity": 0.44881889763779526
        },
        {
          "duration": 0.023255813953511506,
          "durationTicks": 2,
          "midi": 57,
          "name": "A3",
          "ticks": 19731,
          "time": 229.43023255813952,
          "velocity": 0.36220472440944884
        },
        {
          "duration": 0.023255813953483084,
          "durationTicks": 2,
          "midi": 44,
          "name": "G#2",
          "ticks": 19732,
          "time": 229.4418604651163,
          "velocity": 0.3464566929133858
        },
        {
          "duration": 0.023255813953483084,
          "durationTicks": 2,
          "midi": 52,
          "name": "E3",
          "ticks": 19732,
          "time": 229.4418604651163,
          "velocity": 0.3858267716535433
        },
        {
          "duration": 0.30232558139533694,
          "durationTicks": 26,
          "midi": 70,
          "name": "A#4",
          "ticks": 19733,
          "time": 229.45348837209303,
          "velocity": 0.23622047244094488
        },
        {
          "duration": 0.034883720930224626,
          "durationTicks": 3,
          "midi": 45,
          "name": "A2",
          "ticks": 19734,
          "time": 229.46511627906978,
          "velocity": 0.4409448818897638
        },
        {
          "duration": 0.32558139534882,
          "durationTicks": 28,
          "midi": 74,
          "name": "D5",
          "ticks": 19734,
          "time": 229.46511627906978,
          "velocity": 0.2755905511811024
        },
        {
          "duration": 0.25581395348837077,
          "durationTicks": 22,
          "midi": 85,
          "name": "C#6",
          "ticks": 19734,
          "time": 229.46511627906978,
          "velocity": 0.14173228346456693
        },
        {
          "duration": 0.023255813953483084,
          "durationTicks": 2,
          "midi": 62,
          "name": "D4",
          "ticks": 19736,
          "time": 229.48837209302326,
          "velocity": 0.3858267716535433
        },
        {
          "duration": 0.023255813953483084,
          "durationTicks": 2,
          "midi": 46,
          "name": "A#2",
          "ticks": 19737,
          "time": 229.5,
          "velocity": 0.3937007874015748
        },
        {
          "duration": 0.034883720930224626,
          "durationTicks": 3,
          "midi": 61,
          "name": "C#4",
          "ticks": 19738,
          "time": 229.51162790697674,
          "velocity": 0.3779527559055118
        },
        {
          "duration": 0.04651162790699459,
          "durationTicks": 4,
          "midi": 46,
          "name": "A#2",
          "ticks": 19741,
          "time": 229.54651162790697,
          "velocity": 0.3937007874015748
        },
        {
          "duration": 0.023255813953511506,
          "durationTicks": 2,
          "midi": 59,
          "name": "B3",
          "ticks": 19742,
          "time": 229.5581395348837,
          "velocity": 0.3543307086614173
        },
        {
          "duration": 0.2325581395348877,
          "durationTicks": 20,
          "midi": 63,
          "name": "D#4",
          "ticks": 19742,
          "time": 229.5581395348837,
          "velocity": 0.33858267716535434
        },
        {
          "duration": 0.10465116279067388,
          "durationTicks": 9,
          "midi": 79,
          "name": "G5",
          "ticks": 19743,
          "time": 229.56976744186048,
          "velocity": 0.07086614173228346
        },
        {
          "duration": 0.034883720930224626,
          "durationTicks": 3,
          "midi": 46,
          "name": "A#2",
          "ticks": 19746,
          "time": 229.6046511627907,
          "velocity": 0.4015748031496063
        },
        {
          "duration": 0.023255813953483084,
          "durationTicks": 2,
          "midi": 46,
          "name": "A#2",
          "ticks": 19750,
          "time": 229.65116279069767,
          "velocity": 0.3858267716535433
        },
        {
          "duration": 0.023255813953511506,
          "durationTicks": 2,
          "midi": 51,
          "name": "D#3",
          "ticks": 19753,
          "time": 229.6860465116279,
          "velocity": 0.3779527559055118
        },
        {
          "duration": 0.034883720930224626,
          "durationTicks": 3,
          "midi": 58,
          "name": "A#3",
          "ticks": 19756,
          "time": 229.72093023255815,
          "velocity": 0.31496062992125984
        },
        {
          "duration": 0.023255813953483084,
          "durationTicks": 2,
          "midi": 51,
          "name": "D#3",
          "ticks": 19757,
          "time": 229.7325581395349,
          "velocity": 0.36220472440944884
        },
        {
          "duration": 0.023255813953483084,
          "durationTicks": 2,
          "midi": 45,
          "name": "A2",
          "ticks": 19759,
          "time": 229.75581395348837,
          "velocity": 0.4015748031496063
        },
        {
          "duration": 0.023255813953483084,
          "durationTicks": 2,
          "midi": 59,
          "name": "B3",
          "ticks": 19759,
          "time": 229.75581395348837,
          "velocity": 0.25984251968503935
        },
        {
          "duration": 0.05813953488373613,
          "durationTicks": 5,
          "midi": 57,
          "name": "A3",
          "ticks": 19761,
          "time": 229.77906976744185,
          "velocity": 0.4251968503937008
        },
        {
          "duration": 0.023255813953511506,
          "durationTicks": 2,
          "midi": 62,
          "name": "D4",
          "ticks": 19762,
          "time": 229.7906976744186,
          "velocity": 0.25984251968503935
        },
        {
          "duration": 0.05813953488373613,
          "durationTicks": 5,
          "midi": 45,
          "name": "A2",
          "ticks": 19763,
          "time": 229.80232558139534,
          "velocity": 0.4094488188976378
        },
        {
          "duration": 0.04651162790699459,
          "durationTicks": 4,
          "midi": 64,
          "name": "E4",
          "ticks": 19763,
          "time": 229.80232558139534,
          "velocity": 0.2047244094488189
        },
        {
          "duration": 0.034883720930224626,
          "durationTicks": 3,
          "midi": 61,
          "name": "C#4",
          "ticks": 19764,
          "time": 229.8139534883721,
          "velocity": 0.2125984251968504
        },
        {
          "duration": 0.023255813953483084,
          "durationTicks": 2,
          "midi": 55,
          "name": "G3",
          "ticks": 19766,
          "time": 229.8372093023256,
          "velocity": 0.4094488188976378
        },
        {
          "duration": 0.034883720930224626,
          "durationTicks": 3,
          "midi": 70,
          "name": "A#4",
          "ticks": 19767,
          "time": 229.84883720930233,
          "velocity": 0.08661417322834646
        },
        {
          "duration": 0.023255813953483084,
          "durationTicks": 2,
          "midi": 56,
          "name": "G#3",
          "ticks": 19770,
          "time": 229.88372093023256,
          "velocity": 0.25984251968503935
        },
        {
          "duration": 0.023255813953483084,
          "durationTicks": 2,
          "midi": 52,
          "name": "E3",
          "ticks": 19772,
          "time": 229.90697674418604,
          "velocity": 0.25984251968503935
        },
        {
          "duration": 0.9186046511628092,
          "durationTicks": 79,
          "midi": 65,
          "name": "F4",
          "ticks": 19773,
          "time": 229.91860465116278,
          "velocity": 0.3858267716535433
        },
        {
          "duration": 0.023255813953511506,
          "durationTicks": 2,
          "midi": 45,
          "name": "A2",
          "ticks": 19774,
          "time": 229.93023255813952,
          "velocity": 0.3779527559055118
        },
        {
          "duration": 0.034883720930224626,
          "durationTicks": 3,
          "midi": 74,
          "name": "D5",
          "ticks": 19776,
          "time": 229.95348837209303,
          "velocity": 0.12598425196850394
        },
        {
          "duration": 0.2674418604651123,
          "durationTicks": 23,
          "midi": 58,
          "name": "A#3",
          "ticks": 19777,
          "time": 229.96511627906978,
          "velocity": 0.4881889763779528
        },
        {
          "duration": 0.034883720930224626,
          "durationTicks": 3,
          "midi": 98,
          "name": "D7",
          "ticks": 19777,
          "time": 229.96511627906978,
          "velocity": 0.07086614173228346
        },
        {
          "duration": 0.011627906976741542,
          "durationTicks": 1,
          "midi": 54,
          "name": "F#3",
          "ticks": 19778,
          "time": 229.97674418604652,
          "velocity": 0.5118110236220472
        },
        {
          "duration": 0.2674418604651123,
          "durationTicks": 23,
          "midi": 53,
          "name": "F3",
          "ticks": 19779,
          "time": 229.98837209302326,
          "velocity": 0.44881889763779526
        },
        {
          "duration": 0.023255813953483084,
          "durationTicks": 2,
          "midi": 46,
          "name": "A#2",
          "ticks": 19780,
          "time": 230,
          "velocity": 0.33858267716535434
        },
        {
          "duration": 0.1046511627907023,
          "durationTicks": 9,
          "midi": 93,
          "name": "A6",
          "ticks": 19780,
          "time": 230,
          "velocity": 0.12598425196850394
        },
        {
          "duration": 0.034883720930224626,
          "durationTicks": 3,
          "midi": 97,
          "name": "C#7",
          "ticks": 19780,
          "time": 230,
          "velocity": 0.09448818897637795
        },
        {
          "duration": 0.12790697674418539,
          "durationTicks": 11,
          "midi": 72,
          "name": "C5",
          "ticks": 19781,
          "time": 230.01162790697674,
          "velocity": 0.14960629921259844
        },
        {
          "duration": 0.66279069767441,
          "durationTicks": 57,
          "midi": 84,
          "name": "C6",
          "ticks": 19781,
          "time": 230.01162790697674,
          "velocity": 0.28346456692913385
        },
        {
          "duration": 0.25581395348837077,
          "durationTicks": 22,
          "midi": 81,
          "name": "A5",
          "ticks": 19782,
          "time": 230.02325581395348,
          "velocity": 0.09448818897637795
        },
        {
          "duration": 0.43023255813955075,
          "durationTicks": 37,
          "midi": 89,
          "name": "F6",
          "ticks": 19782,
          "time": 230.02325581395348,
          "velocity": 0.1889763779527559
        },
        {
          "duration": 0.04651162790699459,
          "durationTicks": 4,
          "midi": 88,
          "name": "E6",
          "ticks": 19784,
          "time": 230.04651162790697,
          "velocity": 0.07874015748031496
        },
        {
          "duration": 0.09302325581393234,
          "durationTicks": 8,
          "midi": 92,
          "name": "G#6",
          "ticks": 19786,
          "time": 230.06976744186048,
          "velocity": 0.11811023622047244
        },
        {
          "duration": 0.023255813953483084,
          "durationTicks": 2,
          "midi": 46,
          "name": "A#2",
          "ticks": 19792,
          "time": 230.13953488372093,
          "velocity": 0.33858267716535434
        },
        {
          "duration": 0.2906976744185954,
          "durationTicks": 25,
          "midi": 88,
          "name": "E6",
          "ticks": 19792,
          "time": 230.13953488372093,
          "velocity": 0.07874015748031496
        },
        {
          "duration": 0.023255813953511506,
          "durationTicks": 2,
          "midi": 46,
          "name": "A#2",
          "ticks": 19795,
          "time": 230.17441860465115,
          "velocity": 0.3464566929133858
        },
        {
          "duration": 0.04651162790696617,
          "durationTicks": 4,
          "midi": 46,
          "name": "A#2",
          "ticks": 19798,
          "time": 230.2093023255814,
          "velocity": 0.3779527559055118
        },
        {
          "duration": 0.034883720930224626,
          "durationTicks": 3,
          "midi": 79,
          "name": "G5",
          "ticks": 19799,
          "time": 230.22093023255815,
          "velocity": 0.14960629921259844
        },
        {
          "duration": 0.034883720930224626,
          "durationTicks": 3,
          "midi": 93,
          "name": "A6",
          "ticks": 19799,
          "time": 230.22093023255815,
          "velocity": 0.12598425196850394
        },
        {
          "duration": 0.034883720930224626,
          "durationTicks": 3,
          "midi": 60,
          "name": "C4",
          "ticks": 19800,
          "time": 230.2325581395349,
          "velocity": 0.3779527559055118
        },
        {
          "duration": 0.16279069767441,
          "durationTicks": 14,
          "midi": 92,
          "name": "G#6",
          "ticks": 19800,
          "time": 230.2325581395349,
          "velocity": 0.08661417322834646
        },
        {
          "duration": 0.27906976744185386,
          "durationTicks": 24,
          "midi": 74,
          "name": "D5",
          "ticks": 19801,
          "time": 230.24418604651163,
          "velocity": 0.14173228346456693
        },
        {
          "duration": 0.023255813953483084,
          "durationTicks": 2,
          "midi": 45,
          "name": "A2",
          "ticks": 19802,
          "time": 230.25581395348837,
          "velocity": 0.4409448818897638
        },
        {
          "duration": 0.17441860465115155,
          "durationTicks": 15,
          "midi": 70,
          "name": "A#4",
          "ticks": 19802,
          "time": 230.25581395348837,
          "velocity": 0.13385826771653545
        },
        {
          "duration": 0.2093023255814046,
          "durationTicks": 18,
          "midi": 53,
          "name": "F3",
          "ticks": 19803,
          "time": 230.2674418604651,
          "velocity": 0.30708661417322836
        },
        {
          "duration": 0.08139534883721922,
          "durationTicks": 7,
          "midi": 58,
          "name": "A#3",
          "ticks": 19803,
          "time": 230.2674418604651,
          "velocity": 0.3779527559055118
        },
        {
          "duration": 0.023255813953483084,
          "durationTicks": 2,
          "midi": 46,
          "name": "A#2",
          "ticks": 19804,
          "time": 230.27906976744185,
          "velocity": 0.4251968503937008
        },
        {
          "duration": 0.17441860465117998,
          "durationTicks": 15,
          "midi": 93,
          "name": "A6",
          "ticks": 19806,
          "time": 230.30232558139534,
          "velocity": 0.14960629921259844
        },
        {
          "duration": 0.023255813953483084,
          "durationTicks": 2,
          "midi": 46,
          "name": "A#2",
          "ticks": 19807,
          "time": 230.3139534883721,
          "velocity": 0.4094488188976378
        },
        {
          "duration": 0.023255813953483084,
          "durationTicks": 2,
          "midi": 46,
          "name": "A#2",
          "ticks": 19810,
          "time": 230.34883720930233,
          "velocity": 0.4094488188976378
        },
        {
          "duration": 0.023255813953483084,
          "durationTicks": 2,
          "midi": 60,
          "name": "C4",
          "ticks": 19811,
          "time": 230.36046511627907,
          "velocity": 0.3543307086614173
        },
        {
          "duration": 0.034883720930224626,
          "durationTicks": 3,
          "midi": 46,
          "name": "A#2",
          "ticks": 19813,
          "time": 230.38372093023256,
          "velocity": 0.41732283464566927
        },
        {
          "duration": 0.023255813953483084,
          "durationTicks": 2,
          "midi": 60,
          "name": "C4",
          "ticks": 19814,
          "time": 230.3953488372093,
          "velocity": 0.3543307086614173
        },
        {
          "duration": 0.023255813953511506,
          "durationTicks": 2,
          "midi": 60,
          "name": "C4",
          "ticks": 19817,
          "time": 230.43023255813952,
          "velocity": 0.33858267716535434
        },
        {
          "duration": 0.023255813953483084,
          "durationTicks": 2,
          "midi": 60,
          "name": "C4",
          "ticks": 19820,
          "time": 230.46511627906978,
          "velocity": 0.3543307086614173
        },
        {
          "duration": 0.034883720930224626,
          "durationTicks": 3,
          "midi": 70,
          "name": "A#4",
          "ticks": 19820,
          "time": 230.46511627906978,
          "velocity": 0.1732283464566929
        },
        {
          "duration": 0.04651162790696617,
          "durationTicks": 4,
          "midi": 42,
          "name": "F#2",
          "ticks": 19822,
          "time": 230.48837209302326,
          "velocity": 0.3464566929133858
        },
        {
          "duration": 0.05813953488370771,
          "durationTicks": 5,
          "midi": 60,
          "name": "C4",
          "ticks": 19823,
          "time": 230.5,
          "velocity": 0.3700787401574803
        },
        {
          "duration": 0.09302325581396076,
          "durationTicks": 8,
          "midi": 53,
          "name": "F3",
          "ticks": 19824,
          "time": 230.51162790697674,
          "velocity": 0.2992125984251969
        },
        {
          "duration": 0.08139534883721922,
          "durationTicks": 7,
          "midi": 41,
          "name": "F2",
          "ticks": 19826,
          "time": 230.53488372093022,
          "velocity": 0.3543307086614173
        },
        {
          "duration": 0.023255813953483084,
          "durationTicks": 2,
          "midi": 60,
          "name": "C4",
          "ticks": 19829,
          "time": 230.56976744186048,
          "velocity": 0.33858267716535434
        },
        {
          "duration": 0.17441860465115155,
          "durationTicks": 15,
          "midi": 58,
          "name": "A#3",
          "ticks": 19832,
          "time": 230.6046511627907,
          "velocity": 0.47244094488188976
        },
        {
          "duration": 0.1046511627907023,
          "durationTicks": 9,
          "midi": 86,
          "name": "D6",
          "ticks": 19834,
          "time": 230.62790697674419,
          "velocity": 0.11023622047244094
        },
        {
          "duration": 0.09302325581396076,
          "durationTicks": 8,
          "midi": 88,
          "name": "E6",
          "ticks": 19834,
          "time": 230.62790697674419,
          "velocity": 0.09448818897637795
        },
        {
          "duration": 0.1046511627907023,
          "durationTicks": 9,
          "midi": 53,
          "name": "F3",
          "ticks": 19835,
          "time": 230.63953488372093,
          "velocity": 0.4094488188976378
        },
        {
          "duration": 0.023255813953483084,
          "durationTicks": 2,
          "midi": 41,
          "name": "F2",
          "ticks": 19837,
          "time": 230.6627906976744,
          "velocity": 0.3228346456692913
        },
        {
          "duration": 0.08139534883721922,
          "durationTicks": 7,
          "midi": 81,
          "name": "A5",
          "ticks": 19837,
          "time": 230.6627906976744,
          "velocity": 0.07874015748031496
        },
        {
          "duration": 0.04651162790696617,
          "durationTicks": 4,
          "midi": 41,
          "name": "F2",
          "ticks": 19840,
          "time": 230.69767441860466,
          "velocity": 0.36220472440944884
        },
        {
          "duration": 0.023255813953483084,
          "durationTicks": 2,
          "midi": 41,
          "name": "F2",
          "ticks": 19847,
          "time": 230.77906976744185,
          "velocity": 0.33070866141732286
        },
        {
          "duration": 0.03488372093025305,
          "durationTicks": 3,
          "midi": 70,
          "name": "A#4",
          "ticks": 19847,
          "time": 230.77906976744185,
          "velocity": 0.11023622047244094
        },
        {
          "duration": 0.03488372093025305,
          "durationTicks": 3,
          "midi": 72,
          "name": "C5",
          "ticks": 19847,
          "time": 230.77906976744185,
          "velocity": 0.07874015748031496
        },
        {
          "duration": 0.04651162790696617,
          "durationTicks": 4,
          "midi": 53,
          "name": "F3",
          "ticks": 19850,
          "time": 230.8139534883721,
          "velocity": 0.14960629921259844
        },
        {
          "duration": 0.034883720930224626,
          "durationTicks": 3,
          "midi": 66,
          "name": "F#4",
          "ticks": 19852,
          "time": 230.8372093023256,
          "velocity": 0.1889763779527559
        },
        {
          "duration": 0.023255813953483084,
          "durationTicks": 2,
          "midi": 45,
          "name": "A2",
          "ticks": 19854,
          "time": 230.86046511627907,
          "velocity": 0.31496062992125984
        },
        {
          "duration": 0.023255813953483084,
          "durationTicks": 2,
          "midi": 55,
          "name": "G3",
          "ticks": 19854,
          "time": 230.86046511627907,
          "velocity": 0.3464566929133858
        },
        {
          "duration": 0.3953488372092977,
          "durationTicks": 34,
          "midi": 77,
          "name": "F5",
          "ticks": 19855,
          "time": 230.87209302325581,
          "velocity": 0.33858267716535434
        },
        {
          "duration": 0.24418604651162923,
          "durationTicks": 21,
          "midi": 58,
          "name": "A#3",
          "ticks": 19856,
          "time": 230.88372093023256,
          "velocity": 0.4094488188976378
        },
        {
          "duration": 0.22093023255814614,
          "durationTicks": 19,
          "midi": 53,
          "name": "F3",
          "ticks": 19857,
          "time": 230.8953488372093,
          "velocity": 0.4015748031496063
        },
        {
          "duration": 0.2674418604651123,
          "durationTicks": 23,
          "midi": 65,
          "name": "F4",
          "ticks": 19857,
          "time": 230.8953488372093,
          "velocity": 0.44881889763779526
        },
        {
          "duration": 0.25581395348837077,
          "durationTicks": 22,
          "midi": 74,
          "name": "D5",
          "ticks": 19857,
          "time": 230.8953488372093,
          "velocity": 0.15748031496062992
        },
        {
          "duration": 0.13953488372095535,
          "durationTicks": 12,
          "midi": 41,
          "name": "F2",
          "ticks": 19860,
          "time": 230.93023255813952,
          "velocity": 0.3779527559055118
        },
        {
          "duration": 0.19767441860466306,
          "durationTicks": 17,
          "midi": 72,
          "name": "C5",
          "ticks": 19860,
          "time": 230.93023255813952,
          "velocity": 0.12598425196850394
        },
        {
          "duration": 0.18604651162792152,
          "durationTicks": 16,
          "midi": 93,
          "name": "A6",
          "ticks": 19869,
          "time": 231.03488372093022,
          "velocity": 0.2440944881889764
        },
        {
          "duration": 0.04651162790696617,
          "durationTicks": 4,
          "midi": 41,
          "name": "F2",
          "ticks": 19873,
          "time": 231.08139534883722,
          "velocity": 0.33858267716535434
        },
        {
          "duration": 0.023255813953483084,
          "durationTicks": 2,
          "midi": 54,
          "name": "F#3",
          "ticks": 19876,
          "time": 231.11627906976744,
          "velocity": 0.36220472440944884
        },
        {
          "duration": 0.023255813953483084,
          "durationTicks": 2,
          "midi": 40,
          "name": "E2",
          "ticks": 19877,
          "time": 231.12790697674419,
          "velocity": 0.2992125984251969
        },
        {
          "duration": 0.15116279069766847,
          "durationTicks": 13,
          "midi": 70,
          "name": "A#4",
          "ticks": 19878,
          "time": 231.13953488372093,
          "velocity": 0.15748031496062992
        },
        {
          "duration": 0.04651162790696617,
          "durationTicks": 4,
          "midi": 84,
          "name": "C6",
          "ticks": 19878,
          "time": 231.13953488372093,
          "velocity": 0.1968503937007874
        },
        {
          "duration": 0.15116279069766847,
          "durationTicks": 13,
          "midi": 86,
          "name": "D6",
          "ticks": 19878,
          "time": 231.13953488372093,
          "velocity": 0.15748031496062992
        },
        {
          "duration": 0.04651162790699459,
          "durationTicks": 4,
          "midi": 75,
          "name": "D#5",
          "ticks": 19879,
          "time": 231.15116279069767,
          "velocity": 0.25984251968503935
        },
        {
          "duration": 0.1046511627907023,
          "durationTicks": 9,
          "midi": 53,
          "name": "F3",
          "ticks": 19880,
          "time": 231.1627906976744,
          "velocity": 0.3779527559055118
        },
        {
          "duration": 0.09302325581396076,
          "durationTicks": 8,
          "midi": 58,
          "name": "A#3",
          "ticks": 19880,
          "time": 231.1627906976744,
          "velocity": 0.33858267716535434
        },
        {
          "duration": 0.1046511627907023,
          "durationTicks": 9,
          "midi": 41,
          "name": "F2",
          "ticks": 19881,
          "time": 231.17441860465115,
          "velocity": 0.3937007874015748
        },
        {
          "duration": 0.1046511627907023,
          "durationTicks": 9,
          "midi": 62,
          "name": "D4",
          "ticks": 19881,
          "time": 231.17441860465115,
          "velocity": 0.3700787401574803
        },
        {
          "duration": 0.05813953488373613,
          "durationTicks": 5,
          "midi": 72,
          "name": "C5",
          "ticks": 19881,
          "time": 231.17441860465115,
          "velocity": 0.10236220472440945
        },
        {
          "duration": 0.0813953488371908,
          "durationTicks": 7,
          "midi": 102,
          "name": "F#7",
          "ticks": 19883,
          "time": 231.19767441860466,
          "velocity": 0.10236220472440945
        },
        {
          "duration": 0.04651162790699459,
          "durationTicks": 4,
          "midi": 54,
          "name": "F#3",
          "ticks": 19889,
          "time": 231.2674418604651,
          "velocity": 0.4015748031496063
        },
        {
          "duration": 0.023255813953483084,
          "durationTicks": 2,
          "midi": 61,
          "name": "C#4",
          "ticks": 19890,
          "time": 231.27906976744185,
          "velocity": 0.3543307086614173
        },
        {
          "duration": 0.03488372093025305,
          "durationTicks": 3,
          "midi": 72,
          "name": "C5",
          "ticks": 19890,
          "time": 231.27906976744185,
          "velocity": 0.11023622047244094
        },
        {
          "duration": 0.1046511627907023,
          "durationTicks": 9,
          "midi": 84,
          "name": "C6",
          "ticks": 19891,
          "time": 231.2906976744186,
          "velocity": 0.1968503937007874
        },
        {
          "duration": 0.19767441860466306,
          "durationTicks": 17,
          "midi": 89,
          "name": "F6",
          "ticks": 19891,
          "time": 231.2906976744186,
          "velocity": 0.2440944881889764
        },
        {
          "duration": 0.11627906976744384,
          "durationTicks": 10,
          "midi": 93,
          "name": "A6",
          "ticks": 19891,
          "time": 231.2906976744186,
          "velocity": 0.18110236220472442
        },
        {
          "duration": 0.09302325581396076,
          "durationTicks": 8,
          "midi": 65,
          "name": "F4",
          "ticks": 19892,
          "time": 231.30232558139534,
          "velocity": 0.3937007874015748
        },
        {
          "duration": 0.0813953488371908,
          "durationTicks": 7,
          "midi": 53,
          "name": "F3",
          "ticks": 19893,
          "time": 231.3139534883721,
          "velocity": 0.30708661417322836
        },
        {
          "duration": 0.023255813953483084,
          "durationTicks": 2,
          "midi": 44,
          "name": "G#2",
          "ticks": 19895,
          "time": 231.3372093023256,
          "velocity": 0.2992125984251969
        },
        {
          "duration": 0.023255813953483084,
          "durationTicks": 2,
          "midi": 45,
          "name": "A2",
          "ticks": 19900,
          "time": 231.3953488372093,
          "velocity": 0.25984251968503935
        },
        {
          "duration": 0.023255813953483084,
          "durationTicks": 2,
          "midi": 53,
          "name": "F3",
          "ticks": 19901,
          "time": 231.40697674418604,
          "velocity": 0.4094488188976378
        },
        {
          "duration": 0.40697674418606766,
          "durationTicks": 35,
          "midi": 58,
          "name": "A#3",
          "ticks": 19901,
          "time": 231.40697674418604,
          "velocity": 0.41732283464566927
        },
        {
          "duration": 0.19767441860466306,
          "durationTicks": 17,
          "midi": 86,
          "name": "D6",
          "ticks": 19901,
          "time": 231.40697674418604,
          "velocity": 0.2677165354330709
        },
        {
          "duration": 0.17441860465117998,
          "durationTicks": 15,
          "midi": 67,
          "name": "G4",
          "ticks": 19902,
          "time": 231.41860465116278,
          "velocity": 0.4015748031496063
        },
        {
          "duration": 0.3953488372093261,
          "durationTicks": 34,
          "midi": 74,
          "name": "D5",
          "ticks": 19902,
          "time": 231.41860465116278,
          "velocity": 0.16535433070866143
        },
        {
          "duration": 0.023255813953511506,
          "durationTicks": 2,
          "midi": 42,
          "name": "F#2",
          "ticks": 19903,
          "time": 231.43023255813952,
          "velocity": 0.33070866141732286
        },
        {
          "duration": 0.20930232558137618,
          "durationTicks": 18,
          "midi": 53,
          "name": "F3",
          "ticks": 19904,
          "time": 231.4418604651163,
          "velocity": 0.30708661417322836
        },
        {
          "duration": 0.023255813953483084,
          "durationTicks": 2,
          "midi": 41,
          "name": "F2",
          "ticks": 19905,
          "time": 231.45348837209303,
          "velocity": 0.3543307086614173
        },
        {
          "duration": 0.22093023255811772,
          "durationTicks": 19,
          "midi": 72,
          "name": "C5",
          "ticks": 19905,
          "time": 231.45348837209303,
          "velocity": 0.12598425196850394
        },
        {
          "duration": 0.16279069767441,
          "durationTicks": 14,
          "midi": 41,
          "name": "F2",
          "ticks": 19908,
          "time": 231.48837209302326,
          "velocity": 0.3228346456692913
        },
        {
          "duration": 0.13953488372092693,
          "durationTicks": 12,
          "midi": 92,
          "name": "G#6",
          "ticks": 19916,
          "time": 231.58139534883722,
          "velocity": 0.2047244094488189
        },
        {
          "duration": 0.12790697674418539,
          "durationTicks": 11,
          "midi": 68,
          "name": "G#4",
          "ticks": 19917,
          "time": 231.59302325581396,
          "velocity": 0.3858267716535433
        },
        {
          "duration": 0.12790697674418539,
          "durationTicks": 11,
          "midi": 87,
          "name": "D#6",
          "ticks": 19917,
          "time": 231.59302325581396,
          "velocity": 0.15748031496062992
        },
        {
          "duration": 0.023255813953483084,
          "durationTicks": 2,
          "midi": 54,
          "name": "F#3",
          "ticks": 19922,
          "time": 231.65116279069767,
          "velocity": 0.2755905511811024
        },
        {
          "duration": 0.023255813953483084,
          "durationTicks": 2,
          "midi": 41,
          "name": "F2",
          "ticks": 19923,
          "time": 231.6627906976744,
          "velocity": 0.2755905511811024
        },
        {
          "duration": 0.1511627906976969,
          "durationTicks": 13,
          "midi": 86,
          "name": "D6",
          "ticks": 19924,
          "time": 231.67441860465115,
          "velocity": 0.23622047244094488
        },
        {
          "duration": 0.11627906976744384,
          "durationTicks": 10,
          "midi": 93,
          "name": "A6",
          "ticks": 19925,
          "time": 231.6860465116279,
          "velocity": 0.1889763779527559
        },
        {
          "duration": 0.023255813953483084,
          "durationTicks": 2,
          "midi": 45,
          "name": "A2",
          "ticks": 19927,
          "time": 231.7093023255814,
          "velocity": 0.23622047244094488
        },
        {
          "duration": 0.05813953488370771,
          "durationTicks": 5,
          "midi": 53,
          "name": "F3",
          "ticks": 19928,
          "time": 231.72093023255815,
          "velocity": 0.25196850393700787
        },
        {
          "duration": 0.09302325581396076,
          "durationTicks": 8,
          "midi": 67,
          "name": "G4",
          "ticks": 19928,
          "time": 231.72093023255815,
          "velocity": 0.3779527559055118
        },
        {
          "duration": 0.05813953488370771,
          "durationTicks": 5,
          "midi": 91,
          "name": "G6",
          "ticks": 19928,
          "time": 231.72093023255815,
          "velocity": 0.09448818897637795
        },
        {
          "duration": 0.023255813953511506,
          "durationTicks": 2,
          "midi": 42,
          "name": "F#2",
          "ticks": 19935,
          "time": 231.80232558139534,
          "velocity": 0.33070866141732286
        },
        {
          "duration": 0.034883720930224626,
          "durationTicks": 3,
          "midi": 52,
          "name": "E3",
          "ticks": 19936,
          "time": 231.8139534883721,
          "velocity": 0.28346456692913385
        },
        {
          "duration": 0.023255813953483084,
          "durationTicks": 2,
          "midi": 66,
          "name": "F#4",
          "ticks": 19936,
          "time": 231.8139534883721,
          "velocity": 0.2992125984251969
        },
        {
          "duration": 0.034883720930224626,
          "durationTicks": 3,
          "midi": 57,
          "name": "A3",
          "ticks": 19938,
          "time": 231.8372093023256,
          "velocity": 0.23622047244094488
        },
        {
          "duration": 0.15116279069766847,
          "durationTicks": 13,
          "midi": 65,
          "name": "F4",
          "ticks": 19938,
          "time": 231.8372093023256,
          "velocity": 0.2755905511811024
        },
        {
          "duration": 0.04651162790696617,
          "durationTicks": 4,
          "midi": 58,
          "name": "A#3",
          "ticks": 19941,
          "time": 231.87209302325581,
          "velocity": 0.2204724409448819
        },
        {
          "duration": 0.03488372093025305,
          "durationTicks": 3,
          "midi": 55,
          "name": "G3",
          "ticks": 19945,
          "time": 231.91860465116278,
          "velocity": 0.3543307086614173
        },
        {
          "duration": 0.023255813953511506,
          "durationTicks": 2,
          "midi": 61,
          "name": "C#4",
          "ticks": 19945,
          "time": 231.91860465116278,
          "velocity": 0.2992125984251969
        },
        {
          "duration": 0.1511627906976969,
          "durationTicks": 13,
          "midi": 74,
          "name": "D5",
          "ticks": 19945,
          "time": 231.91860465116278,
          "velocity": 0.23622047244094488
        },
        {
          "duration": 0.04651162790699459,
          "durationTicks": 4,
          "midi": 96,
          "name": "C7",
          "ticks": 19945,
          "time": 231.91860465116278,
          "velocity": 0.15748031496062992
        },
        {
          "duration": 0.023255813953483084,
          "durationTicks": 2,
          "midi": 43,
          "name": "G2",
          "ticks": 19947,
          "time": 231.9418604651163,
          "velocity": 0.30708661417322836
        },
        {
          "duration": 0.11627906976741542,
          "durationTicks": 10,
          "midi": 62,
          "name": "D4",
          "ticks": 19947,
          "time": 231.9418604651163,
          "velocity": 0.31496062992125984
        },
        {
          "duration": 0.023255813953483084,
          "durationTicks": 2,
          "midi": 54,
          "name": "F#3",
          "ticks": 19948,
          "time": 231.95348837209303,
          "velocity": 0.2755905511811024
        },
        {
          "duration": 0.034883720930224626,
          "durationTicks": 3,
          "midi": 71,
          "name": "B4",
          "ticks": 19948,
          "time": 231.95348837209303,
          "velocity": 0.08661417322834646
        },
        {
          "duration": 0.034883720930224626,
          "durationTicks": 3,
          "midi": 41,
          "name": "F2",
          "ticks": 19954,
          "time": 232.02325581395348,
          "velocity": 0.2440944881889764
        },
        {
          "duration": 0.09302325581396076,
          "durationTicks": 8,
          "midi": 67,
          "name": "G4",
          "ticks": 19955,
          "time": 232.03488372093022,
          "velocity": 0.3779527559055118
        },
        {
          "duration": 0.1046511627907023,
          "durationTicks": 9,
          "midi": 86,
          "name": "D6",
          "ticks": 19955,
          "time": 232.03488372093022,
          "velocity": 0.2677165354330709
        },
        {
          "duration": 0.25581395348837077,
          "durationTicks": 22,
          "midi": 55,
          "name": "G3",
          "ticks": 19956,
          "time": 232.04651162790697,
          "velocity": 0.5354330708661418
        },
        {
          "duration": 0.13953488372092693,
          "durationTicks": 12,
          "midi": 91,
          "name": "G6",
          "ticks": 19956,
          "time": 232.04651162790697,
          "velocity": 0.13385826771653545
        },
        {
          "duration": 0.51162790697677,
          "durationTicks": 44,
          "midi": 72,
          "name": "C5",
          "ticks": 19957,
          "time": 232.0581395348837,
          "velocity": 0.2677165354330709
        },
        {
          "duration": 0.04651162790696617,
          "durationTicks": 4,
          "midi": 42,
          "name": "F#2",
          "ticks": 19958,
          "time": 232.06976744186048,
          "velocity": 0.28346456692913385
        },
        {
          "duration": 0.15116279069766847,
          "durationTicks": 13,
          "midi": 60,
          "name": "C4",
          "ticks": 19958,
          "time": 232.06976744186048,
          "velocity": 0.36220472440944884
        },
        {
          "duration": 0.0813953488371908,
          "durationTicks": 7,
          "midi": 88,
          "name": "E6",
          "ticks": 19958,
          "time": 232.06976744186048,
          "velocity": 0.12598425196850394
        },
        {
          "duration": 0.034883720930224626,
          "durationTicks": 3,
          "midi": 83,
          "name": "B5",
          "ticks": 19959,
          "time": 232.08139534883722,
          "velocity": 0.09448818897637795
        },
        {
          "duration": 0.12790697674418539,
          "durationTicks": 11,
          "midi": 65,
          "name": "F4",
          "ticks": 19964,
          "time": 232.13953488372093,
          "velocity": 0.3464566929133858
        },
        {
          "duration": 0.17441860465117998,
          "durationTicks": 15,
          "midi": 83,
          "name": "B5",
          "ticks": 19964,
          "time": 232.13953488372093,
          "velocity": 0.08661417322834646
        },
        {
          "duration": 0.04651162790696617,
          "durationTicks": 4,
          "midi": 89,
          "name": "F6",
          "ticks": 19964,
          "time": 232.13953488372093,
          "velocity": 0.07874015748031496
        },
        {
          "duration": 0.3720930232558146,
          "durationTicks": 32,
          "midi": 74,
          "name": "D5",
          "ticks": 19968,
          "time": 232.1860465116279,
          "velocity": 0.30708661417322836
        },
        {
          "duration": 0.023255813953483084,
          "durationTicks": 2,
          "midi": 60,
          "name": "C4",
          "ticks": 19972,
          "time": 232.2325581395349,
          "velocity": 0.3779527559055118
        },
        {
          "duration": 0.1046511627907023,
          "durationTicks": 9,
          "midi": 88,
          "name": "E6",
          "ticks": 19975,
          "time": 232.2674418604651,
          "velocity": 0.13385826771653545
        },
        {
          "duration": 0.023255813953511506,
          "durationTicks": 2,
          "midi": 44,
          "name": "G#2",
          "ticks": 19978,
          "time": 232.30232558139534,
          "velocity": 0.36220472440944884
        },
        {
          "duration": 0.023255813953511506,
          "durationTicks": 2,
          "midi": 62,
          "name": "D4",
          "ticks": 19978,
          "time": 232.30232558139534,
          "velocity": 0.3700787401574803
        },
        {
          "duration": 0.15116279069766847,
          "durationTicks": 13,
          "midi": 77,
          "name": "F5",
          "ticks": 19979,
          "time": 232.3139534883721,
          "velocity": 0.2992125984251969
        },
        {
          "duration": 0.034883720930224626,
          "durationTicks": 3,
          "midi": 43,
          "name": "G2",
          "ticks": 19980,
          "time": 232.32558139534885,
          "velocity": 0.2992125984251969
        },
        {
          "duration": 0.22093023255811772,
          "durationTicks": 19,
          "midi": 60,
          "name": "C4",
          "ticks": 19980,
          "time": 232.32558139534885,
          "velocity": 0.4251968503937008
        },
        {
          "duration": 0.12790697674418539,
          "durationTicks": 11,
          "midi": 65,
          "name": "F4",
          "ticks": 19980,
          "time": 232.32558139534885,
          "velocity": 0.3779527559055118
        },
        {
          "duration": 0.13953488372092693,
          "durationTicks": 12,
          "midi": 93,
          "name": "A6",
          "ticks": 19980,
          "time": 232.32558139534885,
          "velocity": 0.15748031496062992
        },
        {
          "duration": 0.05813953488370771,
          "durationTicks": 5,
          "midi": 55,
          "name": "G3",
          "ticks": 19983,
          "time": 232.36046511627907,
          "velocity": 0.2125984251968504
        },
        {
          "duration": 0.08139534883721922,
          "durationTicks": 7,
          "midi": 43,
          "name": "G2",
          "ticks": 19985,
          "time": 232.38372093023256,
          "velocity": 0.3228346456692913
        },
        {
          "duration": 0.0813953488371908,
          "durationTicks": 7,
          "midi": 43,
          "name": "G2",
          "ticks": 19993,
          "time": 232.47674418604652,
          "velocity": 0.29133858267716534
        },
        {
          "duration": 0.023255813953511506,
          "durationTicks": 2,
          "midi": 61,
          "name": "C#4",
          "ticks": 19999,
          "time": 232.54651162790697,
          "velocity": 0.2755905511811024
        },
        {
          "duration": 0.023255813953511506,
          "durationTicks": 2,
          "midi": 45,
          "name": "A2",
          "ticks": 20000,
          "time": 232.5581395348837,
          "velocity": 0.3228346456692913
        },
        {
          "duration": 0.023255813953483084,
          "durationTicks": 2,
          "midi": 59,
          "name": "B3",
          "ticks": 20001,
          "time": 232.56976744186048,
          "velocity": 0.28346456692913385
        },
        {
          "duration": 0.034883720930224626,
          "durationTicks": 3,
          "midi": 43,
          "name": "G2",
          "ticks": 20002,
          "time": 232.58139534883722,
          "velocity": 0.3858267716535433
        },
        {
          "duration": 0.8604651162790731,
          "durationTicks": 74,
          "midi": 79,
          "name": "G5",
          "ticks": 20002,
          "time": 232.58139534883722,
          "velocity": 0.3228346456692913
        },
        {
          "duration": 0.04651162790696617,
          "durationTicks": 4,
          "midi": 60,
          "name": "C4",
          "ticks": 20003,
          "time": 232.59302325581396,
          "velocity": 0.2677165354330709
        },
        {
          "duration": 0.3604651162790731,
          "durationTicks": 31,
          "midi": 67,
          "name": "G4",
          "ticks": 20003,
          "time": 232.59302325581396,
          "velocity": 0.41732283464566927
        },
        {
          "duration": 0.04651162790696617,
          "durationTicks": 4,
          "midi": 86,
          "name": "D6",
          "ticks": 20003,
          "time": 232.59302325581396,
          "velocity": 0.2204724409448819
        },
        {
          "duration": 0.023255813953483084,
          "durationTicks": 2,
          "midi": 54,
          "name": "F#3",
          "ticks": 20004,
          "time": 232.6046511627907,
          "velocity": 0.2677165354330709
        },
        {
          "duration": 0.034883720930224626,
          "durationTicks": 3,
          "midi": 95,
          "name": "B6",
          "ticks": 20004,
          "time": 232.6046511627907,
          "velocity": 0.07874015748031496
        },
        {
          "duration": 0.04651162790696617,
          "durationTicks": 4,
          "midi": 55,
          "name": "G3",
          "ticks": 20006,
          "time": 232.62790697674419,
          "velocity": 0.28346456692913385
        },
        {
          "duration": 0.023255813953483084,
          "durationTicks": 2,
          "midi": 43,
          "name": "G2",
          "ticks": 20007,
          "time": 232.63953488372093,
          "velocity": 0.4015748031496063
        },
        {
          "duration": 0.1046511627907023,
          "durationTicks": 9,
          "midi": 43,
          "name": "G2",
          "ticks": 20010,
          "time": 232.67441860465115,
          "velocity": 0.36220472440944884
        },
        {
          "duration": 0.1511627906976969,
          "durationTicks": 13,
          "midi": 72,
          "name": "C5",
          "ticks": 20010,
          "time": 232.67441860465115,
          "velocity": 0.2047244094488189
        },
        {
          "duration": 0.30232558139536536,
          "durationTicks": 26,
          "midi": 86,
          "name": "D6",
          "ticks": 20010,
          "time": 232.67441860465115,
          "velocity": 0.2677165354330709
        },
        {
          "duration": 0.2558139534883992,
          "durationTicks": 22,
          "midi": 60,
          "name": "C4",
          "ticks": 20011,
          "time": 232.6860465116279,
          "velocity": 0.4015748031496063
        },
        {
          "duration": 0.1279069767442138,
          "durationTicks": 11,
          "midi": 88,
          "name": "E6",
          "ticks": 20011,
          "time": 232.6860465116279,
          "velocity": 0.16535433070866143
        },
        {
          "duration": 0.11627906976744384,
          "durationTicks": 10,
          "midi": 55,
          "name": "G3",
          "ticks": 20013,
          "time": 232.7093023255814,
          "velocity": 0.4881889763779528
        },
        {
          "duration": 0.023255813953511506,
          "durationTicks": 2,
          "midi": 43,
          "name": "G2",
          "ticks": 20020,
          "time": 232.7906976744186,
          "velocity": 0.3464566929133858
        },
        {
          "duration": 0.023255813953483084,
          "durationTicks": 2,
          "midi": 43,
          "name": "G2",
          "ticks": 20023,
          "time": 232.82558139534885,
          "velocity": 0.3464566929133858
        },
        {
          "duration": 0.023255813953483084,
          "durationTicks": 2,
          "midi": 54,
          "name": "F#3",
          "ticks": 20023,
          "time": 232.82558139534885,
          "velocity": 0.2440944881889764
        },
        {
          "duration": 0.023255813953483084,
          "durationTicks": 2,
          "midi": 45,
          "name": "A2",
          "ticks": 20025,
          "time": 232.84883720930233,
          "velocity": 0.3700787401574803
        },
        {
          "duration": 0.023255813953483084,
          "durationTicks": 2,
          "midi": 55,
          "name": "G3",
          "ticks": 20025,
          "time": 232.84883720930233,
          "velocity": 0.2677165354330709
        },
        {
          "duration": 0.023255813953483084,
          "durationTicks": 2,
          "midi": 56,
          "name": "G#3",
          "ticks": 20027,
          "time": 232.87209302325581,
          "velocity": 0.29133858267716534
        },
        {
          "duration": 0.04651162790699459,
          "durationTicks": 4,
          "midi": 55,
          "name": "G3",
          "ticks": 20029,
          "time": 232.8953488372093,
          "velocity": 0.33858267716535434
        },
        {
          "duration": 0.03488372093025305,
          "durationTicks": 3,
          "midi": 43,
          "name": "G2",
          "ticks": 20032,
          "time": 232.93023255813952,
          "velocity": 0.3543307086614173
        },
        {
          "duration": 0.023255813953483084,
          "durationTicks": 2,
          "midi": 56,
          "name": "G#3",
          "ticks": 20033,
          "time": 232.9418604651163,
          "velocity": 0.3858267716535433
        },
        {
          "duration": 0.3953488372092977,
          "durationTicks": 34,
          "midi": 72,
          "name": "C5",
          "ticks": 20034,
          "time": 232.95348837209303,
          "velocity": 0.29133858267716534
        },
        {
          "duration": 0.23255813953485927,
          "durationTicks": 20,
          "midi": 88,
          "name": "E6",
          "ticks": 20034,
          "time": 232.95348837209303,
          "velocity": 0.14173228346456693
        },
        {
          "duration": 0.2325581395348877,
          "durationTicks": 20,
          "midi": 55,
          "name": "G3",
          "ticks": 20035,
          "time": 232.96511627906978,
          "velocity": 0.5275590551181102
        },
        {
          "duration": 0.20930232558137618,
          "durationTicks": 18,
          "midi": 60,
          "name": "C4",
          "ticks": 20035,
          "time": 232.96511627906978,
          "velocity": 0.2992125984251969
        },
        {
          "duration": 0.04651162790696617,
          "durationTicks": 4,
          "midi": 87,
          "name": "D#6",
          "ticks": 20035,
          "time": 232.96511627906978,
          "velocity": 0.1732283464566929
        },
        {
          "duration": 0.023255813953483084,
          "durationTicks": 2,
          "midi": 45,
          "name": "A2",
          "ticks": 20036,
          "time": 232.97674418604652,
          "velocity": 0.29133858267716534
        },
        {
          "duration": 0.06976744186044925,
          "durationTicks": 6,
          "midi": 92,
          "name": "G#6",
          "ticks": 20036,
          "time": 232.97674418604652,
          "velocity": 0.16535433070866143
        },
        {
          "duration": 0.2325581395348877,
          "durationTicks": 20,
          "midi": 86,
          "name": "D6",
          "ticks": 20037,
          "time": 232.98837209302326,
          "velocity": 0.2125984251968504
        },
        {
          "duration": 0.034883720930224626,
          "durationTicks": 3,
          "midi": 68,
          "name": "G#4",
          "ticks": 20039,
          "time": 233.01162790697674,
          "velocity": 0.3464566929133858
        },
        {
          "duration": 0.034883720930224626,
          "durationTicks": 3,
          "midi": 43,
          "name": "G2",
          "ticks": 20040,
          "time": 233.02325581395348,
          "velocity": 0.3228346456692913
        },
        {
          "duration": 0.023255813953483084,
          "durationTicks": 2,
          "midi": 43,
          "name": "G2",
          "ticks": 20045,
          "time": 233.08139534883722,
          "velocity": 0.3464566929133858
        },
        {
          "duration": 0.25581395348837077,
          "durationTicks": 22,
          "midi": 83,
          "name": "B5",
          "ticks": 20046,
          "time": 233.09302325581396,
          "velocity": 0.11811023622047244
        },
        {
          "duration": 0.08139534883721922,
          "durationTicks": 7,
          "midi": 76,
          "name": "E5",
          "ticks": 20049,
          "time": 233.12790697674419,
          "velocity": 0.07086614173228346
        },
        {
          "duration": 0.023255813953511506,
          "durationTicks": 2,
          "midi": 43,
          "name": "G2",
          "ticks": 20053,
          "time": 233.17441860465115,
          "velocity": 0.36220472440944884
        },
        {
          "duration": 0.1046511627907023,
          "durationTicks": 9,
          "midi": 68,
          "name": "G#4",
          "ticks": 20056,
          "time": 233.2093023255814,
          "velocity": 0.33858267716535434
        },
        {
          "duration": 0.1046511627907023,
          "durationTicks": 9,
          "midi": 88,
          "name": "E6",
          "ticks": 20056,
          "time": 233.2093023255814,
          "velocity": 0.16535433070866143
        },
        {
          "duration": 0.09302325581393234,
          "durationTicks": 8,
          "midi": 92,
          "name": "G#6",
          "ticks": 20056,
          "time": 233.2093023255814,
          "velocity": 0.08661417322834646
        },
        {
          "duration": 0.023255813953483084,
          "durationTicks": 2,
          "midi": 44,
          "name": "G#2",
          "ticks": 20057,
          "time": 233.22093023255815,
          "velocity": 0.3858267716535433
        },
        {
          "duration": 0.2325581395348877,
          "durationTicks": 20,
          "midi": 60,
          "name": "C4",
          "ticks": 20057,
          "time": 233.22093023255815,
          "velocity": 0.3779527559055118
        },
        {
          "duration": 0.12790697674418539,
          "durationTicks": 11,
          "midi": 55,
          "name": "G3",
          "ticks": 20058,
          "time": 233.2325581395349,
          "velocity": 0.47244094488188976
        },
        {
          "duration": 0.1046511627907023,
          "durationTicks": 9,
          "midi": 74,
          "name": "D5",
          "ticks": 20058,
          "time": 233.2325581395349,
          "velocity": 0.16535433070866143
        },
        {
          "duration": 0.023255813953483084,
          "durationTicks": 2,
          "midi": 43,
          "name": "G2",
          "ticks": 20059,
          "time": 233.24418604651163,
          "velocity": 0.33070866141732286
        },
        {
          "duration": 0.03488372093025305,
          "durationTicks": 3,
          "midi": 43,
          "name": "G2",
          "ticks": 20062,
          "time": 233.27906976744185,
          "velocity": 0.3464566929133858
        },
        {
          "duration": 0.034883720930224626,
          "durationTicks": 3,
          "midi": 86,
          "name": "D6",
          "ticks": 20068,
          "time": 233.34883720930233,
          "velocity": 0.07874015748031496
        },
        {
          "duration": 0.034883720930224626,
          "durationTicks": 3,
          "midi": 74,
          "name": "D5",
          "ticks": 20069,
          "time": 233.36046511627907,
          "velocity": 0.16535433070866143
        },
        {
          "duration": 0.09302325581396076,
          "durationTicks": 8,
          "midi": 55,
          "name": "G3",
          "ticks": 20070,
          "time": 233.37209302325581,
          "velocity": 0.3937007874015748
        },
        {
          "duration": 0.03488372093025305,
          "durationTicks": 3,
          "midi": 68,
          "name": "G#4",
          "ticks": 20075,
          "time": 233.43023255813952,
          "velocity": 0.31496062992125984
        },
        {
          "duration": 0.034883720930224626,
          "durationTicks": 3,
          "midi": 43,
          "name": "G2",
          "ticks": 20077,
          "time": 233.45348837209303,
          "velocity": 0.33858267716535434
        },
        {
          "duration": 0.023255813953483084,
          "durationTicks": 2,
          "midi": 61,
          "name": "C#4",
          "ticks": 20077,
          "time": 233.45348837209303,
          "velocity": 0.25984251968503935
        },
        {
          "duration": 0.023255813953483084,
          "durationTicks": 2,
          "midi": 54,
          "name": "F#3",
          "ticks": 20078,
          "time": 233.46511627906978,
          "velocity": 0.3779527559055118
        },
        {
          "duration": 0.40697674418603924,
          "durationTicks": 35,
          "midi": 72,
          "name": "C5",
          "ticks": 20078,
          "time": 233.46511627906978,
          "velocity": 0.2677165354330709
        },
        {
          "duration": 0.3604651162790731,
          "durationTicks": 31,
          "midi": 88,
          "name": "E6",
          "ticks": 20078,
          "time": 233.46511627906978,
          "velocity": 0.2047244094488189
        },
        {
          "duration": 0.023255813953483084,
          "durationTicks": 2,
          "midi": 60,
          "name": "C4",
          "ticks": 20079,
          "time": 233.47674418604652,
          "velocity": 0.3228346456692913
        },
        {
          "duration": 0.034883720930224626,
          "durationTicks": 3,
          "midi": 68,
          "name": "G#4",
          "ticks": 20079,
          "time": 233.47674418604652,
          "velocity": 0.31496062992125984
        },
        {
          "duration": 0.1046511627907023,
          "durationTicks": 9,
          "midi": 79,
          "name": "G5",
          "ticks": 20079,
          "time": 233.47674418604652,
          "velocity": 0.14960629921259844
        },
        {
          "duration": 0.2093023255814046,
          "durationTicks": 18,
          "midi": 55,
          "name": "G3",
          "ticks": 20080,
          "time": 233.48837209302326,
          "velocity": 0.4094488188976378
        },
        {
          "duration": 0.034883720930224626,
          "durationTicks": 3,
          "midi": 86,
          "name": "D6",
          "ticks": 20080,
          "time": 233.48837209302326,
          "velocity": 0.09448818897637795
        },
        {
          "duration": 0.08139534883721922,
          "durationTicks": 7,
          "midi": 60,
          "name": "C4",
          "ticks": 20082,
          "time": 233.51162790697674,
          "velocity": 0.2440944881889764
        },
        {
          "duration": 0.023255813953511506,
          "durationTicks": 2,
          "midi": 43,
          "name": "G2",
          "ticks": 20085,
          "time": 233.54651162790697,
          "velocity": 0.4094488188976378
        },
        {
          "duration": 0.023255813953483084,
          "durationTicks": 2,
          "midi": 60,
          "name": "C4",
          "ticks": 20090,
          "time": 233.6046511627907,
          "velocity": 0.25984251968503935
        },
        {
          "duration": 0.034883720930224626,
          "durationTicks": 3,
          "midi": 43,
          "name": "G2",
          "ticks": 20093,
          "time": 233.63953488372093,
          "velocity": 0.41732283464566927
        },
        {
          "duration": 0.04651162790696617,
          "durationTicks": 4,
          "midi": 60,
          "name": "C4",
          "ticks": 20093,
          "time": 233.63953488372093,
          "velocity": 0.2677165354330709
        },
        {
          "duration": 0.03488372093025305,
          "durationTicks": 3,
          "midi": 61,
          "name": "C#4",
          "ticks": 20097,
          "time": 233.6860465116279,
          "velocity": 0.2992125984251969
        },
        {
          "duration": 0.06976744186044925,
          "durationTicks": 6,
          "midi": 60,
          "name": "C4",
          "ticks": 20100,
          "time": 233.72093023255815,
          "velocity": 0.33858267716535434
        },
        {
          "duration": 0.22093023255814614,
          "durationTicks": 19,
          "midi": 92,
          "name": "G#6",
          "ticks": 20100,
          "time": 233.72093023255815,
          "velocity": 0.25984251968503935
        },
        {
          "duration": 0.1046511627907023,
          "durationTicks": 9,
          "midi": 55,
          "name": "G3",
          "ticks": 20101,
          "time": 233.7325581395349,
          "velocity": 0.4881889763779528
        },
        {
          "duration": 0.22093023255814614,
          "durationTicks": 19,
          "midi": 68,
          "name": "G#4",
          "ticks": 20101,
          "time": 233.7325581395349,
          "velocity": 0.3937007874015748
        },
        {
          "duration": 0.19767441860463464,
          "durationTicks": 17,
          "midi": 87,
          "name": "D#6",
          "ticks": 20101,
          "time": 233.7325581395349,
          "velocity": 0.14960629921259844
        },
        {
          "duration": 0.023255813953483084,
          "durationTicks": 2,
          "midi": 44,
          "name": "G#2",
          "ticks": 20102,
          "time": 233.74418604651163,
          "velocity": 0.3937007874015748
        },
        {
          "duration": 0.09302325581396076,
          "durationTicks": 8,
          "midi": 76,
          "name": "E5",
          "ticks": 20102,
          "time": 233.74418604651163,
          "velocity": 0.07086614173228346
        },
        {
          "duration": 0.03488372093025305,
          "durationTicks": 3,
          "midi": 60,
          "name": "C4",
          "ticks": 20107,
          "time": 233.80232558139534,
          "velocity": 0.3228346456692913
        },
        {
          "duration": 0.023255813953483084,
          "durationTicks": 2,
          "midi": 45,
          "name": "A2",
          "ticks": 20111,
          "time": 233.84883720930233,
          "velocity": 0.33858267716535434
        },
        {
          "duration": 0.023255813953483084,
          "durationTicks": 2,
          "midi": 60,
          "name": "C4",
          "ticks": 20112,
          "time": 233.86046511627907,
          "velocity": 0.2283464566929134
        },
        {
          "duration": 0.04651162790696617,
          "durationTicks": 4,
          "midi": 96,
          "name": "C7",
          "ticks": 20114,
          "time": 233.88372093023256,
          "velocity": 0.2204724409448819
        },
        {
          "duration": 0.1046511627907023,
          "durationTicks": 9,
          "midi": 55,
          "name": "G3",
          "ticks": 20115,
          "time": 233.8953488372093,
          "velocity": 0.3779527559055118
        },
        {
          "duration": 0.04651162790699459,
          "durationTicks": 4,
          "midi": 41,
          "name": "F2",
          "ticks": 20116,
          "time": 233.90697674418604,
          "velocity": 0.2283464566929134
        },
        {
          "duration": 0.034883720930224626,
          "durationTicks": 3,
          "midi": 96,
          "name": "C7",
          "ticks": 20119,
          "time": 233.9418604651163,
          "velocity": 0.1968503937007874
        },
        {
          "duration": 0.023255813953483084,
          "durationTicks": 2,
          "midi": 60,
          "name": "C4",
          "ticks": 20120,
          "time": 233.95348837209303,
          "velocity": 0.23622047244094488
        },
        {
          "duration": 0.15116279069766847,
          "durationTicks": 13,
          "midi": 69,
          "name": "A4",
          "ticks": 20120,
          "time": 233.95348837209303,
          "velocity": 0.2992125984251969
        },
        {
          "duration": 0.023255813953483084,
          "durationTicks": 2,
          "midi": 44,
          "name": "G#2",
          "ticks": 20122,
          "time": 233.97674418604652,
          "velocity": 0.33070866141732286
        },
        {
          "duration": 0.20930232558137618,
          "durationTicks": 18,
          "midi": 72,
          "name": "C5",
          "ticks": 20131,
          "time": 234.08139534883722,
          "velocity": 0.4566929133858268
        },
        {
          "duration": 0.09302325581393234,
          "durationTicks": 8,
          "midi": 100,
          "name": "E7",
          "ticks": 20132,
          "time": 234.09302325581396,
          "velocity": 0.2125984251968504
        },
        {
          "duration": 0.25581395348837077,
          "durationTicks": 22,
          "midi": 57,
          "name": "A3",
          "ticks": 20133,
          "time": 234.1046511627907,
          "velocity": 0.4251968503937008
        },
        {
          "duration": 0.22093023255814614,
          "durationTicks": 19,
          "midi": 76,
          "name": "E5",
          "ticks": 20133,
          "time": 234.1046511627907,
          "velocity": 0.11811023622047244
        },
        {
          "duration": 0.3604651162790731,
          "durationTicks": 31,
          "midi": 81,
          "name": "A5",
          "ticks": 20133,
          "time": 234.1046511627907,
          "velocity": 0.14960629921259844
        },
        {
          "duration": 0.5465116279069662,
          "durationTicks": 47,
          "midi": 74,
          "name": "D5",
          "ticks": 20134,
          "time": 234.11627906976744,
          "velocity": 0.28346456692913385
        },
        {
          "duration": 0.05813953488370771,
          "durationTicks": 5,
          "midi": 50,
          "name": "D3",
          "ticks": 20135,
          "time": 234.12790697674419,
          "velocity": 0.4094488188976378
        },
        {
          "duration": 0.06976744186044925,
          "durationTicks": 6,
          "midi": 50,
          "name": "D3",
          "ticks": 20141,
          "time": 234.19767441860466,
          "velocity": 0.3779527559055118
        },
        {
          "duration": 0.04651162790699459,
          "durationTicks": 4,
          "midi": 50,
          "name": "D3",
          "ticks": 20150,
          "time": 234.30232558139534,
          "velocity": 0.3700787401574803
        },
        {
          "duration": 0.06976744186044925,
          "durationTicks": 6,
          "midi": 88,
          "name": "E6",
          "ticks": 20154,
          "time": 234.34883720930233,
          "velocity": 0.2755905511811024
        },
        {
          "duration": 0.05813953488370771,
          "durationTicks": 5,
          "midi": 97,
          "name": "C#7",
          "ticks": 20154,
          "time": 234.34883720930233,
          "velocity": 0.09448818897637795
        },
        {
          "duration": 0.023255813953483084,
          "durationTicks": 2,
          "midi": 43,
          "name": "G2",
          "ticks": 20155,
          "time": 234.36046511627907,
          "velocity": 0.2283464566929134
        },
        {
          "duration": 0.2674418604651123,
          "durationTicks": 23,
          "midi": 50,
          "name": "D3",
          "ticks": 20155,
          "time": 234.36046511627907,
          "velocity": 0.36220472440944884
        },
        {
          "duration": 0.023255813953483084,
          "durationTicks": 2,
          "midi": 57,
          "name": "A3",
          "ticks": 20156,
          "time": 234.37209302325581,
          "velocity": 0.33070866141732286
        },
        {
          "duration": 0.2325581395348877,
          "durationTicks": 20,
          "midi": 78,
          "name": "F#5",
          "ticks": 20157,
          "time": 234.38372093023256,
          "velocity": 0.12598425196850394
        },
        {
          "duration": 0.2674418604651123,
          "durationTicks": 23,
          "midi": 76,
          "name": "E5",
          "ticks": 20158,
          "time": 234.3953488372093,
          "velocity": 0.13385826771653545
        },
        {
          "duration": 0.09302325581396076,
          "durationTicks": 8,
          "midi": 57,
          "name": "A3",
          "ticks": 20159,
          "time": 234.40697674418604,
          "velocity": 0.2204724409448819
        },
        {
          "duration": 0.15116279069766847,
          "durationTicks": 13,
          "midi": 88,
          "name": "E6",
          "ticks": 20165,
          "time": 234.47674418604652,
          "velocity": 0.16535433070866143
        },
        {
          "duration": 0.08139534883721922,
          "durationTicks": 7,
          "midi": 68,
          "name": "G#4",
          "ticks": 20166,
          "time": 234.48837209302326,
          "velocity": 0.3228346456692913
        },
        {
          "duration": 0.08139534883721922,
          "durationTicks": 7,
          "midi": 87,
          "name": "D#6",
          "ticks": 20166,
          "time": 234.48837209302326,
          "velocity": 0.14173228346456693
        },
        {
          "duration": 0.05813953488370771,
          "durationTicks": 5,
          "midi": 96,
          "name": "C7",
          "ticks": 20167,
          "time": 234.5,
          "velocity": 0.07086614173228346
        },
        {
          "duration": 0.05813953488370771,
          "durationTicks": 5,
          "midi": 102,
          "name": "F#7",
          "ticks": 20167,
          "time": 234.5,
          "velocity": 0.07086614173228346
        },
        {
          "duration": 0.09302325581396076,
          "durationTicks": 8,
          "midi": 57,
          "name": "A3",
          "ticks": 20170,
          "time": 234.53488372093022,
          "velocity": 0.2440944881889764
        },
        {
          "duration": 0.12790697674418539,
          "durationTicks": 11,
          "midi": 86,
          "name": "D6",
          "ticks": 20176,
          "time": 234.6046511627907,
          "velocity": 0.30708661417322836
        },
        {
          "duration": 0.1046511627907023,
          "durationTicks": 9,
          "midi": 67,
          "name": "G4",
          "ticks": 20177,
          "time": 234.61627906976744,
          "velocity": 0.41732283464566927
        },
        {
          "duration": 0.023255813953483084,
          "durationTicks": 2,
          "midi": 45,
          "name": "A2",
          "ticks": 20178,
          "time": 234.62790697674419,
          "velocity": 0.4330708661417323
        },
        {
          "duration": 0.034883720930224626,
          "durationTicks": 3,
          "midi": 58,
          "name": "A#3",
          "ticks": 20178,
          "time": 234.62790697674419,
          "velocity": 0.33858267716535434
        },
        {
          "duration": 0.023255813953483084,
          "durationTicks": 2,
          "midi": 44,
          "name": "G#2",
          "ticks": 20180,
          "time": 234.65116279069767,
          "velocity": 0.4251968503937008
        },
        {
          "duration": 0.04651162790699459,
          "durationTicks": 4,
          "midi": 50,
          "name": "D3",
          "ticks": 20180,
          "time": 234.65116279069767,
          "velocity": 0.36220472440944884
        },
        {
          "duration": 0.09302325581396076,
          "durationTicks": 8,
          "midi": 57,
          "name": "A3",
          "ticks": 20181,
          "time": 234.6627906976744,
          "velocity": 0.3700787401574803
        },
        {
          "duration": 0.023255813953483084,
          "durationTicks": 2,
          "midi": 66,
          "name": "F#4",
          "ticks": 20186,
          "time": 234.72093023255815,
          "velocity": 0.28346456692913385
        },
        {
          "duration": 0.034883720930224626,
          "durationTicks": 3,
          "midi": 45,
          "name": "A2",
          "ticks": 20187,
          "time": 234.7325581395349,
          "velocity": 0.33858267716535434
        },
        {
          "duration": 0.023255813953483084,
          "durationTicks": 2,
          "midi": 50,
          "name": "D3",
          "ticks": 20189,
          "time": 234.75581395348837,
          "velocity": 0.29133858267716534
        },
        {
          "duration": 0.1046511627907023,
          "durationTicks": 9,
          "midi": 65,
          "name": "F4",
          "ticks": 20189,
          "time": 234.75581395348837,
          "velocity": 0.33070866141732286
        },
        {
          "duration": 0.19767441860466306,
          "durationTicks": 17,
          "midi": 74,
          "name": "D5",
          "ticks": 20189,
          "time": 234.75581395348837,
          "velocity": 0.29133858267716534
        },
        {
          "duration": 0.09302325581396076,
          "durationTicks": 8,
          "midi": 84,
          "name": "C6",
          "ticks": 20189,
          "time": 234.75581395348837,
          "velocity": 0.15748031496062992
        },
        {
          "duration": 0.1046511627907023,
          "durationTicks": 9,
          "midi": 89,
          "name": "F6",
          "ticks": 20189,
          "time": 234.75581395348837,
          "velocity": 0.2125984251968504
        },
        {
          "duration": 0.023255813953483084,
          "durationTicks": 2,
          "midi": 56,
          "name": "G#3",
          "ticks": 20190,
          "time": 234.7674418604651,
          "velocity": 0.4409448818897638
        },
        {
          "duration": 0.11627906976744384,
          "durationTicks": 10,
          "midi": 62,
          "name": "D4",
          "ticks": 20190,
          "time": 234.7674418604651,
          "velocity": 0.3779527559055118
        },
        {
          "duration": 0.19767441860466306,
          "durationTicks": 17,
          "midi": 81,
          "name": "A5",
          "ticks": 20190,
          "time": 234.7674418604651,
          "velocity": 0.16535433070866143
        },
        {
          "duration": 0.11627906976744384,
          "durationTicks": 10,
          "midi": 88,
          "name": "E6",
          "ticks": 20191,
          "time": 234.77906976744185,
          "velocity": 0.11811023622047244
        },
        {
          "duration": 0.2093023255814046,
          "durationTicks": 18,
          "midi": 57,
          "name": "A3",
          "ticks": 20192,
          "time": 234.7906976744186,
          "velocity": 0.4094488188976378
        },
        {
          "duration": 0.1046511627907023,
          "durationTicks": 9,
          "midi": 78,
          "name": "F#5",
          "ticks": 20192,
          "time": 234.7906976744186,
          "velocity": 0.10236220472440945
        },
        {
          "duration": 0.03488372093025305,
          "durationTicks": 3,
          "midi": 45,
          "name": "A2",
          "ticks": 20193,
          "time": 234.80232558139534,
          "velocity": 0.33070866141732286
        },
        {
          "duration": 0.04651162790696617,
          "durationTicks": 4,
          "midi": 45,
          "name": "A2",
          "ticks": 20197,
          "time": 234.84883720930233,
          "velocity": 0.33070866141732286
        },
        {
          "duration": 0.06976744186047767,
          "durationTicks": 6,
          "midi": 62,
          "name": "D4",
          "ticks": 20201,
          "time": 234.8953488372093,
          "velocity": 0.4094488188976378
        },
        {
          "duration": 0.11627906976744384,
          "durationTicks": 10,
          "midi": 50,
          "name": "D3",
          "ticks": 20204,
          "time": 234.93023255813952,
          "velocity": 0.30708661417322836
        },
        {
          "duration": 0.06976744186044925,
          "durationTicks": 6,
          "midi": 61,
          "name": "C#4",
          "ticks": 20207,
          "time": 234.96511627906978,
          "velocity": 0.4566929133858268
        },
        {
          "duration": 0.27906976744185386,
          "durationTicks": 24,
          "midi": 57,
          "name": "A3",
          "ticks": 20211,
          "time": 235.01162790697674,
          "velocity": 0.48031496062992124
        },
        {
          "duration": 0.13953488372092693,
          "durationTicks": 12,
          "midi": 83,
          "name": "B5",
          "ticks": 20211,
          "time": 235.01162790697674,
          "velocity": 0.23622047244094488
        },
        {
          "duration": 0.25581395348837077,
          "durationTicks": 22,
          "midi": 64,
          "name": "E4",
          "ticks": 20212,
          "time": 235.02325581395348,
          "velocity": 0.4251968503937008
        },
        {
          "duration": 0.12790697674418539,
          "durationTicks": 11,
          "midi": 88,
          "name": "E6",
          "ticks": 20212,
          "time": 235.02325581395348,
          "velocity": 0.1732283464566929
        },
        {
          "duration": 0.023255813953511506,
          "durationTicks": 2,
          "midi": 45,
          "name": "A2",
          "ticks": 20214,
          "time": 235.04651162790697,
          "velocity": 0.29133858267716534
        },
        {
          "duration": 0.03488372093025305,
          "durationTicks": 3,
          "midi": 61,
          "name": "C#4",
          "ticks": 20214,
          "time": 235.04651162790697,
          "velocity": 0.2204724409448819
        },
        {
          "duration": 0.22093023255814614,
          "durationTicks": 19,
          "midi": 81,
          "name": "A5",
          "ticks": 20215,
          "time": 235.0581395348837,
          "velocity": 0.15748031496062992
        },
        {
          "duration": 0.23255813953485927,
          "durationTicks": 20,
          "midi": 50,
          "name": "D3",
          "ticks": 20216,
          "time": 235.06976744186048,
          "velocity": 0.4015748031496063
        },
        {
          "duration": 0.3953488372092977,
          "durationTicks": 34,
          "midi": 74,
          "name": "D5",
          "ticks": 20216,
          "time": 235.06976744186048,
          "velocity": 0.25984251968503935
        },
        {
          "duration": 0.09302325581396076,
          "durationTicks": 8,
          "midi": 83,
          "name": "B5",
          "ticks": 20225,
          "time": 235.17441860465115,
          "velocity": 0.1968503937007874
        },
        {
          "duration": 0.06976744186047767,
          "durationTicks": 6,
          "midi": 102,
          "name": "F#7",
          "ticks": 20225,
          "time": 235.17441860465115,
          "velocity": 0.11023622047244094
        },
        {
          "duration": 0.05813953488373613,
          "durationTicks": 5,
          "midi": 88,
          "name": "E6",
          "ticks": 20226,
          "time": 235.1860465116279,
          "velocity": 0.18110236220472442
        },
        {
          "duration": 0.1046511627907023,
          "durationTicks": 9,
          "midi": 84,
          "name": "C6",
          "ticks": 20233,
          "time": 235.2674418604651,
          "velocity": 0.1732283464566929
        },
        {
          "duration": 0.1046511627907023,
          "durationTicks": 9,
          "midi": 65,
          "name": "F4",
          "ticks": 20234,
          "time": 235.27906976744185,
          "velocity": 0.33070866141732286
        },
        {
          "duration": 0.023255813953511506,
          "durationTicks": 2,
          "midi": 55,
          "name": "G3",
          "ticks": 20235,
          "time": 235.2906976744186,
          "velocity": 0.3700787401574803
        },
        {
          "duration": 0.05813953488373613,
          "durationTicks": 5,
          "midi": 88,
          "name": "E6",
          "ticks": 20236,
          "time": 235.30232558139534,
          "velocity": 0.14173228346456693
        },
        {
          "duration": 0.05813953488373613,
          "durationTicks": 5,
          "midi": 89,
          "name": "F6",
          "ticks": 20236,
          "time": 235.30232558139534,
          "velocity": 0.07874015748031496
        },
        {
          "duration": 0.11627906976741542,
          "durationTicks": 10,
          "midi": 57,
          "name": "A3",
          "ticks": 20237,
          "time": 235.3139534883721,
          "velocity": 0.4409448818897638
        },
        {
          "duration": 0.10465116279067388,
          "durationTicks": 9,
          "midi": 50,
          "name": "D3",
          "ticks": 20238,
          "time": 235.32558139534885,
          "velocity": 0.3937007874015748
        },
        {
          "duration": 0.24418604651162923,
          "durationTicks": 21,
          "midi": 86,
          "name": "D6",
          "ticks": 20246,
          "time": 235.41860465116278,
          "velocity": 0.30708661417322836
        },
        {
          "duration": 0.12790697674418539,
          "durationTicks": 11,
          "midi": 67,
          "name": "G4",
          "ticks": 20247,
          "time": 235.43023255813952,
          "velocity": 0.41732283464566927
        },
        {
          "duration": 0.03488372093025305,
          "durationTicks": 3,
          "midi": 70,
          "name": "A#4",
          "ticks": 20247,
          "time": 235.43023255813952,
          "velocity": 0.16535433070866143
        },
        {
          "duration": 0.11627906976744384,
          "durationTicks": 10,
          "midi": 95,
          "name": "B6",
          "ticks": 20247,
          "time": 235.43023255813952,
          "velocity": 0.11023622047244094
        },
        {
          "duration": 0.12790697674418539,
          "durationTicks": 11,
          "midi": 57,
          "name": "A3",
          "ticks": 20248,
          "time": 235.4418604651163,
          "velocity": 0.4330708661417323
        },
        {
          "duration": 0.034883720930224626,
          "durationTicks": 3,
          "midi": 63,
          "name": "D#4",
          "ticks": 20248,
          "time": 235.4418604651163,
          "velocity": 0.1889763779527559
        },
        {
          "duration": 0.06976744186044925,
          "durationTicks": 6,
          "midi": 45,
          "name": "A2",
          "ticks": 20251,
          "time": 235.47674418604652,
          "velocity": 0.3464566929133858
        },
        {
          "duration": 0.0813953488371908,
          "durationTicks": 7,
          "midi": 62,
          "name": "D4",
          "ticks": 20251,
          "time": 235.47674418604652,
          "velocity": 0.16535433070866143
        },
        {
          "duration": 0.023255813953511506,
          "durationTicks": 2,
          "midi": 46,
          "name": "A#2",
          "ticks": 20258,
          "time": 235.5581395348837,
          "velocity": 0.3228346456692913
        },
        {
          "duration": 0.023255813953511506,
          "durationTicks": 2,
          "midi": 66,
          "name": "F#4",
          "ticks": 20258,
          "time": 235.5581395348837,
          "velocity": 0.2283464566929134
        },
        {
          "duration": 0.16279069767443843,
          "durationTicks": 14,
          "midi": 74,
          "name": "D5",
          "ticks": 20258,
          "time": 235.5581395348837,
          "velocity": 0.31496062992125984
        },
        {
          "duration": 0.023255813953483084,
          "durationTicks": 2,
          "midi": 56,
          "name": "G#3",
          "ticks": 20259,
          "time": 235.56976744186048,
          "velocity": 0.4251968503937008
        },
        {
          "duration": 0.25581395348837077,
          "durationTicks": 22,
          "midi": 62,
          "name": "D4",
          "ticks": 20259,
          "time": 235.56976744186048,
          "velocity": 0.4015748031496063
        },
        {
          "duration": 0.12790697674418539,
          "durationTicks": 11,
          "midi": 69,
          "name": "A4",
          "ticks": 20259,
          "time": 235.56976744186048,
          "velocity": 0.25984251968503935
        },
        {
          "duration": 0.023255813953483084,
          "durationTicks": 2,
          "midi": 50,
          "name": "D3",
          "ticks": 20260,
          "time": 235.58139534883722,
          "velocity": 0.30708661417322836
        },
        {
          "duration": 0.34883720930233153,
          "durationTicks": 30,
          "midi": 57,
          "name": "A3",
          "ticks": 20263,
          "time": 235.61627906976744,
          "velocity": 0.47244094488188976
        },
        {
          "duration": 0.023255813953483084,
          "durationTicks": 2,
          "midi": 45,
          "name": "A2",
          "ticks": 20267,
          "time": 235.6627906976744,
          "velocity": 0.30708661417322836
        },
        {
          "duration": 0.1046511627907023,
          "durationTicks": 9,
          "midi": 50,
          "name": "D3",
          "ticks": 20267,
          "time": 235.6627906976744,
          "velocity": 0.33858267716535434
        },
        {
          "duration": 0.03488372093025305,
          "durationTicks": 3,
          "midi": 88,
          "name": "E6",
          "ticks": 20267,
          "time": 235.6627906976744,
          "velocity": 0.08661417322834646
        },
        {
          "duration": 0.1046511627907023,
          "durationTicks": 9,
          "midi": 67,
          "name": "G4",
          "ticks": 20269,
          "time": 235.6860465116279,
          "velocity": 0.44881889763779526
        },
        {
          "duration": 0.17441860465117998,
          "durationTicks": 15,
          "midi": 86,
          "name": "D6",
          "ticks": 20269,
          "time": 235.6860465116279,
          "velocity": 0.3779527559055118
        },
        {
          "duration": 0.0813953488371908,
          "durationTicks": 7,
          "midi": 95,
          "name": "B6",
          "ticks": 20270,
          "time": 235.69767441860466,
          "velocity": 0.08661417322834646
        },
        {
          "duration": 0.03488372093025305,
          "durationTicks": 3,
          "midi": 87,
          "name": "D#6",
          "ticks": 20277,
          "time": 235.77906976744185,
          "velocity": 0.13385826771653545
        },
        {
          "duration": 0.03488372093025305,
          "durationTicks": 3,
          "midi": 92,
          "name": "G#6",
          "ticks": 20277,
          "time": 235.77906976744185,
          "velocity": 0.12598425196850394
        },
        {
          "duration": 0.03488372093025305,
          "durationTicks": 3,
          "midi": 68,
          "name": "G#4",
          "ticks": 20278,
          "time": 235.7906976744186,
          "velocity": 0.3937007874015748
        },
        {
          "duration": 0.023255813953511506,
          "durationTicks": 2,
          "midi": 50,
          "name": "D3",
          "ticks": 20279,
          "time": 235.80232558139534,
          "velocity": 0.31496062992125984
        },
        {
          "duration": 0.023255813953483084,
          "durationTicks": 2,
          "midi": 61,
          "name": "C#4",
          "ticks": 20281,
          "time": 235.82558139534885,
          "velocity": 0.2283464566929134
        },
        {
          "duration": 0.12790697674418539,
          "durationTicks": 11,
          "midi": 62,
          "name": "D4",
          "ticks": 20283,
          "time": 235.84883720930233,
          "velocity": 0.2440944881889764
        },
        {
          "duration": 0.06976744186044925,
          "durationTicks": 6,
          "midi": 88,
          "name": "E6",
          "ticks": 20283,
          "time": 235.84883720930233,
          "velocity": 0.15748031496062992
        },
        {
          "duration": 0.04651162790696617,
          "durationTicks": 4,
          "midi": 50,
          "name": "D3",
          "ticks": 20284,
          "time": 235.86046511627907,
          "velocity": 0.36220472440944884
        },
        {
          "duration": 0.06976744186047767,
          "durationTicks": 6,
          "midi": 88,
          "name": "E6",
          "ticks": 20290,
          "time": 235.93023255813952,
          "velocity": 0.13385826771653545
        },
        {
          "duration": 0.034883720930224626,
          "durationTicks": 3,
          "midi": 50,
          "name": "D3",
          "ticks": 20291,
          "time": 235.9418604651163,
          "velocity": 0.33858267716535434
        },
        {
          "duration": 0.13953488372092693,
          "durationTicks": 12,
          "midi": 91,
          "name": "G6",
          "ticks": 20292,
          "time": 235.95348837209303,
          "velocity": 0.2992125984251969
        },
        {
          "duration": 0.023255813953483084,
          "durationTicks": 2,
          "midi": 56,
          "name": "G#3",
          "ticks": 20293,
          "time": 235.96511627906978,
          "velocity": 0.36220472440944884
        },
        {
          "duration": 0.15116279069766847,
          "durationTicks": 13,
          "midi": 72,
          "name": "C5",
          "ticks": 20293,
          "time": 235.96511627906978,
          "velocity": 0.3228346456692913
        },
        {
          "duration": 0.11627906976744384,
          "durationTicks": 10,
          "midi": 100,
          "name": "E7",
          "ticks": 20293,
          "time": 235.96511627906978,
          "velocity": 0.18110236220472442
        },
        {
          "duration": 0.04651162790696617,
          "durationTicks": 4,
          "midi": 74,
          "name": "D5",
          "ticks": 20294,
          "time": 235.97674418604652,
          "velocity": 0.13385826771653545
        },
        {
          "duration": 0.023255813953483084,
          "durationTicks": 2,
          "midi": 53,
          "name": "F3",
          "ticks": 20295,
          "time": 235.98837209302326,
          "velocity": 0.30708661417322836
        },
        {
          "duration": 0.08139534883721922,
          "durationTicks": 7,
          "midi": 57,
          "name": "A3",
          "ticks": 20295,
          "time": 235.98837209302326,
          "velocity": 0.3543307086614173
        },
        {
          "duration": 0.023255813953483084,
          "durationTicks": 2,
          "midi": 45,
          "name": "A2",
          "ticks": 20297,
          "time": 236.01162790697674,
          "velocity": 0.31496062992125984
        },
        {
          "duration": 0.03488372093025305,
          "durationTicks": 3,
          "midi": 45,
          "name": "A2",
          "ticks": 20300,
          "time": 236.04651162790697,
          "velocity": 0.3464566929133858
        },
        {
          "duration": 0.034883720930224626,
          "durationTicks": 3,
          "midi": 44,
          "name": "G#2",
          "ticks": 20303,
          "time": 236.08139534883722,
          "velocity": 0.44881889763779526
        },
        {
          "duration": 0.034883720930224626,
          "durationTicks": 3,
          "midi": 55,
          "name": "G3",
          "ticks": 20305,
          "time": 236.1046511627907,
          "velocity": 0.3543307086614173
        },
        {
          "duration": 0.023255813953483084,
          "durationTicks": 2,
          "midi": 44,
          "name": "G#2",
          "ticks": 20307,
          "time": 236.12790697674419,
          "velocity": 0.3779527559055118
        },
        {
          "duration": 0.04651162790699459,
          "durationTicks": 4,
          "midi": 44,
          "name": "G#2",
          "ticks": 20310,
          "time": 236.1627906976744,
          "velocity": 0.4015748031496063
        },
        {
          "duration": 0.3720930232558146,
          "durationTicks": 32,
          "midi": 75,
          "name": "D#5",
          "ticks": 20314,
          "time": 236.2093023255814,
          "velocity": 0.2125984251968504
        },
        {
          "duration": 0.023255813953483084,
          "durationTicks": 2,
          "midi": 62,
          "name": "D4",
          "ticks": 20315,
          "time": 236.22093023255815,
          "velocity": 0.25196850393700787
        },
        {
          "duration": 0.15116279069766847,
          "durationTicks": 13,
          "midi": 92,
          "name": "G#6",
          "ticks": 20315,
          "time": 236.22093023255815,
          "velocity": 0.33858267716535434
        },
        {
          "duration": 0.023255813953483084,
          "durationTicks": 2,
          "midi": 55,
          "name": "G3",
          "ticks": 20316,
          "time": 236.2325581395349,
          "velocity": 0.3700787401574803
        },
        {
          "duration": 0.25581395348837077,
          "durationTicks": 22,
          "midi": 73,
          "name": "C#5",
          "ticks": 20316,
          "time": 236.2325581395349,
          "velocity": 0.4251968503937008
        },
        {
          "duration": 0.2325581395348877,
          "durationTicks": 20,
          "midi": 63,
          "name": "D#4",
          "ticks": 20317,
          "time": 236.24418604651163,
          "velocity": 0.13385826771653545
        },
        {
          "duration": 0.04651162790696617,
          "durationTicks": 4,
          "midi": 44,
          "name": "G#2",
          "ticks": 20318,
          "time": 236.25581395348837,
          "velocity": 0.36220472440944884
        },
        {
          "duration": 0.22093023255814614,
          "durationTicks": 19,
          "midi": 56,
          "name": "G#3",
          "ticks": 20318,
          "time": 236.25581395348837,
          "velocity": 0.3858267716535433
        },
        {
          "duration": 0.04651162790696617,
          "durationTicks": 4,
          "midi": 101,
          "name": "F7",
          "ticks": 20318,
          "time": 236.25581395348837,
          "velocity": 0.07874015748031496
        },
        {
          "duration": 0.09302325581396076,
          "durationTicks": 8,
          "midi": 102,
          "name": "F#7",
          "ticks": 20319,
          "time": 236.2674418604651,
          "velocity": 0.10236220472440945
        },
        {
          "duration": 0.32558139534884845,
          "durationTicks": 28,
          "midi": 87,
          "name": "D#6",
          "ticks": 20321,
          "time": 236.2906976744186,
          "velocity": 0.2992125984251969
        },
        {
          "duration": 0.023255813953483084,
          "durationTicks": 2,
          "midi": 44,
          "name": "G#2",
          "ticks": 20323,
          "time": 236.3139534883721,
          "velocity": 0.36220472440944884
        },
        {
          "duration": 0.034883720930224626,
          "durationTicks": 3,
          "midi": 44,
          "name": "G#2",
          "ticks": 20327,
          "time": 236.36046511627907,
          "velocity": 0.3700787401574803
        },
        {
          "duration": 0.04651162790699459,
          "durationTicks": 4,
          "midi": 44,
          "name": "G#2",
          "ticks": 20332,
          "time": 236.41860465116278,
          "velocity": 0.3779527559055118
        },
        {
          "duration": 0.13953488372092693,
          "durationTicks": 12,
          "midi": 68,
          "name": "G#4",
          "ticks": 20337,
          "time": 236.47674418604652,
          "velocity": 0.4094488188976378
        },
        {
          "duration": 0.034883720930224626,
          "durationTicks": 3,
          "midi": 55,
          "name": "G3",
          "ticks": 20338,
          "time": 236.48837209302326,
          "velocity": 0.4566929133858268
        },
        {
          "duration": 0.24418604651162923,
          "durationTicks": 21,
          "midi": 63,
          "name": "D#4",
          "ticks": 20338,
          "time": 236.48837209302326,
          "velocity": 0.2047244094488189
        },
        {
          "duration": 0.04651162790696617,
          "durationTicks": 4,
          "midi": 92,
          "name": "G#6",
          "ticks": 20338,
          "time": 236.48837209302326,
          "velocity": 0.14173228346456693
        },
        {
          "duration": 0.11627906976744384,
          "durationTicks": 10,
          "midi": 96,
          "name": "C7",
          "ticks": 20338,
          "time": 236.48837209302326,
          "velocity": 0.14960629921259844
        },
        {
          "duration": 0.24418604651162923,
          "durationTicks": 21,
          "midi": 77,
          "name": "F5",
          "ticks": 20339,
          "time": 236.5,
          "velocity": 0.12598425196850394
        },
        {
          "duration": 0.2325581395348877,
          "durationTicks": 20,
          "midi": 73,
          "name": "C#5",
          "ticks": 20340,
          "time": 236.51162790697674,
          "velocity": 0.2283464566929134
        },
        {
          "duration": 0.08139534883721922,
          "durationTicks": 7,
          "midi": 102,
          "name": "F#7",
          "ticks": 20340,
          "time": 236.51162790697674,
          "velocity": 0.14173228346456693
        },
        {
          "duration": 0.2093023255814046,
          "durationTicks": 18,
          "midi": 56,
          "name": "G#3",
          "ticks": 20341,
          "time": 236.52325581395348,
          "velocity": 0.4251968503937008
        },
        {
          "duration": 0.22093023255814614,
          "durationTicks": 19,
          "midi": 49,
          "name": "C#3",
          "ticks": 20342,
          "time": 236.53488372093022,
          "velocity": 0.31496062992125984
        },
        {
          "duration": 0.05813953488373613,
          "durationTicks": 5,
          "midi": 92,
          "name": "G#6",
          "ticks": 20344,
          "time": 236.5581395348837,
          "velocity": 0.15748031496062992
        },
        {
          "duration": 0.11627906976744384,
          "durationTicks": 10,
          "midi": 68,
          "name": "G#4",
          "ticks": 20359,
          "time": 236.7325581395349,
          "velocity": 0.4251968503937008
        },
        {
          "duration": 0.1046511627907023,
          "durationTicks": 9,
          "midi": 87,
          "name": "D#6",
          "ticks": 20359,
          "time": 236.7325581395349,
          "velocity": 0.2755905511811024
        },
        {
          "duration": 0.1046511627907023,
          "durationTicks": 9,
          "midi": 96,
          "name": "C7",
          "ticks": 20359,
          "time": 236.7325581395349,
          "velocity": 0.12598425196850394
        },
        {
          "duration": 0.1046511627907023,
          "durationTicks": 9,
          "midi": 92,
          "name": "G#6",
          "ticks": 20360,
          "time": 236.74418604651163,
          "velocity": 0.07874015748031496
        },
        {
          "duration": 0.023255813953483084,
          "durationTicks": 2,
          "midi": 55,
          "name": "G3",
          "ticks": 20361,
          "time": 236.75581395348837,
          "velocity": 0.4015748031496063
        },
        {
          "duration": 0.09302325581396076,
          "durationTicks": 8,
          "midi": 61,
          "name": "C#4",
          "ticks": 20361,
          "time": 236.75581395348837,
          "velocity": 0.31496062992125984
        },
        {
          "duration": 0.05813953488373613,
          "durationTicks": 5,
          "midi": 49,
          "name": "C#3",
          "ticks": 20362,
          "time": 236.7674418604651,
          "velocity": 0.33070866141732286
        },
        {
          "duration": 0.06976744186047767,
          "durationTicks": 6,
          "midi": 102,
          "name": "F#7",
          "ticks": 20362,
          "time": 236.7674418604651,
          "velocity": 0.14173228346456693
        },
        {
          "duration": 0.08139534883721922,
          "durationTicks": 7,
          "midi": 56,
          "name": "G#3",
          "ticks": 20363,
          "time": 236.77906976744185,
          "velocity": 0.4015748031496063
        },
        {
          "duration": 0.15116279069766847,
          "durationTicks": 13,
          "midi": 79,
          "name": "G5",
          "ticks": 20368,
          "time": 236.8372093023256,
          "velocity": 0.14960629921259844
        },
        {
          "duration": 0.11627906976744384,
          "durationTicks": 10,
          "midi": 86,
          "name": "D6",
          "ticks": 20368,
          "time": 236.8372093023256,
          "velocity": 0.16535433070866143
        },
        {
          "duration": 0.11627906976744384,
          "durationTicks": 10,
          "midi": 67,
          "name": "G4",
          "ticks": 20369,
          "time": 236.84883720930233,
          "velocity": 0.36220472440944884
        },
        {
          "duration": 0.023255813953483084,
          "durationTicks": 2,
          "midi": 50,
          "name": "D3",
          "ticks": 20370,
          "time": 236.86046511627907,
          "velocity": 0.2755905511811024
        },
        {
          "duration": 0.023255813953483084,
          "durationTicks": 2,
          "midi": 58,
          "name": "A#3",
          "ticks": 20370,
          "time": 236.86046511627907,
          "velocity": 0.31496062992125984
        },
        {
          "duration": 0.11627906976744384,
          "durationTicks": 10,
          "midi": 73,
          "name": "C#5",
          "ticks": 20370,
          "time": 236.86046511627907,
          "velocity": 0.16535433070866143
        },
        {
          "duration": 0.12790697674418539,
          "durationTicks": 11,
          "midi": 61,
          "name": "C#4",
          "ticks": 20371,
          "time": 236.87209302325581,
          "velocity": 0.3858267716535433
        },
        {
          "duration": 0.023255813953483084,
          "durationTicks": 2,
          "midi": 55,
          "name": "G3",
          "ticks": 20372,
          "time": 236.88372093023256,
          "velocity": 0.3779527559055118
        },
        {
          "duration": 0.1046511627907023,
          "durationTicks": 9,
          "midi": 56,
          "name": "G#3",
          "ticks": 20374,
          "time": 236.90697674418604,
          "velocity": 0.3700787401574803
        },
        {
          "duration": 0.034883720930224626,
          "durationTicks": 3,
          "midi": 85,
          "name": "C#6",
          "ticks": 20380,
          "time": 236.97674418604652,
          "velocity": 0.13385826771653545
        },
        {
          "duration": 0.04651162790696617,
          "durationTicks": 4,
          "midi": 89,
          "name": "F6",
          "ticks": 20380,
          "time": 236.97674418604652,
          "velocity": 0.07086614173228346
        },
        {
          "duration": 0.023255813953483084,
          "durationTicks": 2,
          "midi": 45,
          "name": "A2",
          "ticks": 20381,
          "time": 236.98837209302326,
          "velocity": 0.31496062992125984
        },
        {
          "duration": 0.11627906976744384,
          "durationTicks": 10,
          "midi": 65,
          "name": "F4",
          "ticks": 20381,
          "time": 236.98837209302326,
          "velocity": 0.3464566929133858
        },
        {
          "duration": 0.04651162790696617,
          "durationTicks": 4,
          "midi": 71,
          "name": "B4",
          "ticks": 20381,
          "time": 236.98837209302326,
          "velocity": 0.09448818897637795
        },
        {
          "duration": 0.023255813953483084,
          "durationTicks": 2,
          "midi": 60,
          "name": "C4",
          "ticks": 20382,
          "time": 237,
          "velocity": 0.25984251968503935
        },
        {
          "duration": 0.023255813953483084,
          "durationTicks": 2,
          "midi": 57,
          "name": "A3",
          "ticks": 20383,
          "time": 237.01162790697674,
          "velocity": 0.23622047244094488
        },
        {
          "duration": 0.08139534883721922,
          "durationTicks": 7,
          "midi": 42,
          "name": "F#2",
          "ticks": 20384,
          "time": 237.02325581395348,
          "velocity": 0.2283464566929134
        },
        {
          "duration": 0.034883720930224626,
          "durationTicks": 3,
          "midi": 61,
          "name": "C#4",
          "ticks": 20384,
          "time": 237.02325581395348,
          "velocity": 0.15748031496062992
        },
        {
          "duration": 0.034883720930224626,
          "durationTicks": 3,
          "midi": 98,
          "name": "D7",
          "ticks": 20388,
          "time": 237.06976744186048,
          "velocity": 0.1889763779527559
        },
        {
          "duration": 0.034883720930224626,
          "durationTicks": 3,
          "midi": 66,
          "name": "F#4",
          "ticks": 20391,
          "time": 237.1046511627907,
          "velocity": 0.1968503937007874
        },
        {
          "duration": 0.023255813953483084,
          "durationTicks": 2,
          "midi": 62,
          "name": "D4",
          "ticks": 20392,
          "time": 237.11627906976744,
          "velocity": 0.33858267716535434
        },
        {
          "duration": 0.15116279069766847,
          "durationTicks": 13,
          "midi": 75,
          "name": "D#5",
          "ticks": 20393,
          "time": 237.12790697674419,
          "velocity": 0.2283464566929134
        },
        {
          "duration": 0.2325581395348877,
          "durationTicks": 20,
          "midi": 86,
          "name": "D6",
          "ticks": 20393,
          "time": 237.12790697674419,
          "velocity": 0.3228346456692913
        },
        {
          "duration": 0.19767441860466306,
          "durationTicks": 17,
          "midi": 63,
          "name": "D#4",
          "ticks": 20394,
          "time": 237.13953488372093,
          "velocity": 0.3858267716535433
        },
        {
          "duration": 0.2325581395348877,
          "durationTicks": 20,
          "midi": 67,
          "name": "G4",
          "ticks": 20394,
          "time": 237.13953488372093,
          "velocity": 0.4251968503937008
        },
        {
          "duration": 0.06976744186047767,
          "durationTicks": 6,
          "midi": 82,
          "name": "A#5",
          "ticks": 20394,
          "time": 237.13953488372093,
          "velocity": 0.10236220472440945
        },
        {
          "duration": 0.034883720930224626,
          "durationTicks": 3,
          "midi": 92,
          "name": "G#6",
          "ticks": 20394,
          "time": 237.13953488372093,
          "velocity": 0.08661417322834646
        },
        {
          "duration": 0.08139534883721922,
          "durationTicks": 7,
          "midi": 70,
          "name": "A#4",
          "ticks": 20395,
          "time": 237.15116279069767,
          "velocity": 0.2283464566929134
        },
        {
          "duration": 0.1046511627907023,
          "durationTicks": 9,
          "midi": 51,
          "name": "D#3",
          "ticks": 20396,
          "time": 237.1627906976744,
          "velocity": 0.3779527559055118
        },
        {
          "duration": 0.08139534883721922,
          "durationTicks": 7,
          "midi": 58,
          "name": "A#3",
          "ticks": 20397,
          "time": 237.17441860465115,
          "velocity": 0.28346456692913385
        },
        {
          "duration": 0.023255813953483084,
          "durationTicks": 2,
          "midi": 47,
          "name": "B2",
          "ticks": 20405,
          "time": 237.2674418604651,
          "velocity": 0.3700787401574803
        },
        {
          "duration": 0.05813953488373613,
          "durationTicks": 5,
          "midi": 71,
          "name": "B4",
          "ticks": 20405,
          "time": 237.2674418604651,
          "velocity": 0.2125984251968504
        },
        {
          "duration": 0.04651162790699459,
          "durationTicks": 4,
          "midi": 51,
          "name": "D#3",
          "ticks": 20407,
          "time": 237.2906976744186,
          "velocity": 0.29133858267716534
        },
        {
          "duration": 0.023255813953483084,
          "durationTicks": 2,
          "midi": 68,
          "name": "G#4",
          "ticks": 20414,
          "time": 237.37209302325581,
          "velocity": 0.4015748031496063
        },
        {
          "duration": 0.17441860465115155,
          "durationTicks": 15,
          "midi": 63,
          "name": "D#4",
          "ticks": 20415,
          "time": 237.38372093023256,
          "velocity": 0.3937007874015748
        },
        {
          "duration": 0.16279069767441,
          "durationTicks": 14,
          "midi": 86,
          "name": "D6",
          "ticks": 20415,
          "time": 237.38372093023256,
          "velocity": 0.2283464566929134
        },
        {
          "duration": 0.034883720930224626,
          "durationTicks": 3,
          "midi": 91,
          "name": "G6",
          "ticks": 20415,
          "time": 237.38372093023256,
          "velocity": 0.11811023622047244
        },
        {
          "duration": 0.023255813953483084,
          "durationTicks": 2,
          "midi": 47,
          "name": "B2",
          "ticks": 20416,
          "time": 237.3953488372093,
          "velocity": 0.25984251968503935
        },
        {
          "duration": 0.023255813953483084,
          "durationTicks": 2,
          "midi": 57,
          "name": "A3",
          "ticks": 20416,
          "time": 237.3953488372093,
          "velocity": 0.41732283464566927
        },
        {
          "duration": 0.16279069767441,
          "durationTicks": 14,
          "midi": 67,
          "name": "G4",
          "ticks": 20416,
          "time": 237.3953488372093,
          "velocity": 0.3937007874015748
        },
        {
          "duration": 0.13953488372092693,
          "durationTicks": 12,
          "midi": 70,
          "name": "A#4",
          "ticks": 20416,
          "time": 237.3953488372093,
          "velocity": 0.23622047244094488
        },
        {
          "duration": 0.1046511627907023,
          "durationTicks": 9,
          "midi": 58,
          "name": "A#3",
          "ticks": 20418,
          "time": 237.41860465116278,
          "velocity": 0.3858267716535433
        },
        {
          "duration": 0.1046511627907023,
          "durationTicks": 9,
          "midi": 51,
          "name": "D#3",
          "ticks": 20419,
          "time": 237.43023255813952,
          "velocity": 0.33858267716535434
        },
        {
          "duration": 0.023255813953483084,
          "durationTicks": 2,
          "midi": 46,
          "name": "A#2",
          "ticks": 20423,
          "time": 237.47674418604652,
          "velocity": 0.2440944881889764
        },
        {
          "duration": 0.023255813953483084,
          "durationTicks": 2,
          "midi": 57,
          "name": "A3",
          "ticks": 20427,
          "time": 237.52325581395348,
          "velocity": 0.2755905511811024
        },
        {
          "duration": 0.04651162790699459,
          "durationTicks": 4,
          "midi": 50,
          "name": "D3",
          "ticks": 20428,
          "time": 237.53488372093022,
          "velocity": 0.29133858267716534
        },
        {
          "duration": 0.04651162790699459,
          "durationTicks": 4,
          "midi": 71,
          "name": "B4",
          "ticks": 20428,
          "time": 237.53488372093022,
          "velocity": 0.15748031496062992
        },
        {
          "duration": 0.05813953488373613,
          "durationTicks": 5,
          "midi": 58,
          "name": "A#3",
          "ticks": 20429,
          "time": 237.54651162790697,
          "velocity": 0.28346456692913385
        },
        {
          "duration": 0.05813953488373613,
          "durationTicks": 5,
          "midi": 87,
          "name": "D#6",
          "ticks": 20429,
          "time": 237.54651162790697,
          "velocity": 0.18110236220472442
        },
        {
          "duration": 0.04651162790699459,
          "durationTicks": 4,
          "midi": 68,
          "name": "G#4",
          "ticks": 20430,
          "time": 237.5581395348837,
          "velocity": 0.3937007874015748
        },
        {
          "duration": 0.034883720930224626,
          "durationTicks": 3,
          "midi": 51,
          "name": "D#3",
          "ticks": 20432,
          "time": 237.58139534883722,
          "velocity": 0.2204724409448819
        },
        {
          "duration": 0.15116279069766847,
          "durationTicks": 13,
          "midi": 67,
          "name": "G4",
          "ticks": 20434,
          "time": 237.6046511627907,
          "velocity": 0.3858267716535433
        },
        {
          "duration": 0.15116279069766847,
          "durationTicks": 13,
          "midi": 86,
          "name": "D6",
          "ticks": 20434,
          "time": 237.6046511627907,
          "velocity": 0.1968503937007874
        },
        {
          "duration": 0.034883720930224626,
          "durationTicks": 3,
          "midi": 62,
          "name": "D4",
          "ticks": 20437,
          "time": 237.63953488372093,
          "velocity": 0.3700787401574803
        },
        {
          "duration": 0.023255813953483084,
          "durationTicks": 2,
          "midi": 56,
          "name": "G#3",
          "ticks": 20439,
          "time": 237.6627906976744,
          "velocity": 0.41732283464566927
        },
        {
          "duration": 0.40697674418606766,
          "durationTicks": 35,
          "midi": 75,
          "name": "D#5",
          "ticks": 20439,
          "time": 237.6627906976744,
          "velocity": 0.28346456692913385
        },
        {
          "duration": 0.4186046511628092,
          "durationTicks": 36,
          "midi": 63,
          "name": "D#4",
          "ticks": 20440,
          "time": 237.67441860465115,
          "velocity": 0.4094488188976378
        },
        {
          "duration": 0.11627906976744384,
          "durationTicks": 10,
          "midi": 82,
          "name": "A#5",
          "ticks": 20440,
          "time": 237.67441860465115,
          "velocity": 0.10236220472440945
        },
        {
          "duration": 0.1046511627907023,
          "durationTicks": 9,
          "midi": 58,
          "name": "A#3",
          "ticks": 20441,
          "time": 237.6860465116279,
          "velocity": 0.3543307086614173
        },
        {
          "duration": 0.10465116279067388,
          "durationTicks": 9,
          "midi": 51,
          "name": "D#3",
          "ticks": 20442,
          "time": 237.69767441860466,
          "velocity": 0.3779527559055118
        },
        {
          "duration": 0.05813953488373613,
          "durationTicks": 5,
          "midi": 68,
          "name": "G#4",
          "ticks": 20447,
          "time": 237.75581395348837,
          "velocity": 0.36220472440944884
        },
        {
          "duration": 0.023255813953483084,
          "durationTicks": 2,
          "midi": 45,
          "name": "A2",
          "ticks": 20452,
          "time": 237.8139534883721,
          "velocity": 0.3464566929133858
        },
        {
          "duration": 0.2674418604651123,
          "durationTicks": 23,
          "midi": 58,
          "name": "A#3",
          "ticks": 20452,
          "time": 237.8139534883721,
          "velocity": 0.4094488188976378
        },
        {
          "duration": 0.22093023255811772,
          "durationTicks": 19,
          "midi": 67,
          "name": "G4",
          "ticks": 20452,
          "time": 237.8139534883721,
          "velocity": 0.3543307086614173
        },
        {
          "duration": 0.2674418604651123,
          "durationTicks": 23,
          "midi": 77,
          "name": "F5",
          "ticks": 20452,
          "time": 237.8139534883721,
          "velocity": 0.16535433070866143
        },
        {
          "duration": 0.22093023255811772,
          "durationTicks": 19,
          "midi": 86,
          "name": "D6",
          "ticks": 20452,
          "time": 237.8139534883721,
          "velocity": 0.23622047244094488
        },
        {
          "duration": 0.20930232558137618,
          "durationTicks": 18,
          "midi": 51,
          "name": "D#3",
          "ticks": 20455,
          "time": 237.84883720930233,
          "velocity": 0.3858267716535433
        },
        {
          "duration": 0.023255813953483084,
          "durationTicks": 2,
          "midi": 46,
          "name": "A#2",
          "ticks": 20475,
          "time": 238.08139534883722,
          "velocity": 0.33070866141732286
        },
        {
          "duration": 0.04651162790696617,
          "durationTicks": 4,
          "midi": 57,
          "name": "A3",
          "ticks": 20475,
          "time": 238.08139534883722,
          "velocity": 0.4094488188976378
        },
        {
          "duration": 0.034883720930224626,
          "durationTicks": 3,
          "midi": 81,
          "name": "A5",
          "ticks": 20475,
          "time": 238.08139534883722,
          "velocity": 0.13385826771653545
        },
        {
          "duration": 0.034883720930224626,
          "durationTicks": 3,
          "midi": 62,
          "name": "D4",
          "ticks": 20476,
          "time": 238.09302325581396,
          "velocity": 0.3464566929133858
        },
        {
          "duration": 0.04651162790696617,
          "durationTicks": 4,
          "midi": 56,
          "name": "G#3",
          "ticks": 20479,
          "time": 238.12790697674419,
          "velocity": 0.41732283464566927
        },
        {
          "duration": 0.023255813953483084,
          "durationTicks": 2,
          "midi": 61,
          "name": "C#4",
          "ticks": 20479,
          "time": 238.12790697674419,
          "velocity": 0.25196850393700787
        },
        {
          "duration": 0.034883720930224626,
          "durationTicks": 3,
          "midi": 44,
          "name": "G#2",
          "ticks": 20480,
          "time": 238.13953488372093,
          "velocity": 0.33858267716535434
        },
        {
          "duration": 0.05813953488373613,
          "durationTicks": 5,
          "midi": 55,
          "name": "G3",
          "ticks": 20483,
          "time": 238.17441860465115,
          "velocity": 0.3543307086614173
        },
        {
          "duration": 0.034883720930224626,
          "durationTicks": 3,
          "midi": 43,
          "name": "G2",
          "ticks": 20485,
          "time": 238.19767441860466,
          "velocity": 0.3779527559055118
        },
        {
          "duration": 0.023255813953483084,
          "durationTicks": 2,
          "midi": 42,
          "name": "F#2",
          "ticks": 20488,
          "time": 238.2325581395349,
          "velocity": 0.3543307086614173
        },
        {
          "duration": 0.023255813953483084,
          "durationTicks": 2,
          "midi": 42,
          "name": "F#2",
          "ticks": 20491,
          "time": 238.2674418604651,
          "velocity": 0.36220472440944884
        },
        {
          "duration": 0.023255813953483084,
          "durationTicks": 2,
          "midi": 53,
          "name": "F3",
          "ticks": 20492,
          "time": 238.27906976744185,
          "velocity": 0.25984251968503935
        },
        {
          "duration": 0.023255813953511506,
          "durationTicks": 2,
          "midi": 41,
          "name": "F2",
          "ticks": 20493,
          "time": 238.2906976744186,
          "velocity": 0.2755905511811024
        },
        {
          "duration": 0.2674418604651123,
          "durationTicks": 23,
          "midi": 81,
          "name": "A5",
          "ticks": 20493,
          "time": 238.2906976744186,
          "velocity": 0.2204724409448819
        },
        {
          "duration": 0.023255813953511506,
          "durationTicks": 2,
          "midi": 57,
          "name": "A3",
          "ticks": 20494,
          "time": 238.30232558139534,
          "velocity": 0.41732283464566927
        },
        {
          "duration": 0.2790697674418823,
          "durationTicks": 24,
          "midi": 77,
          "name": "F5",
          "ticks": 20494,
          "time": 238.30232558139534,
          "velocity": 0.28346456692913385
        },
        {
          "duration": 0.09302325581396076,
          "durationTicks": 8,
          "midi": 88,
          "name": "E6",
          "ticks": 20494,
          "time": 238.30232558139534,
          "velocity": 0.11023622047244094
        },
        {
          "duration": 0.06976744186047767,
          "durationTicks": 6,
          "midi": 96,
          "name": "C7",
          "ticks": 20494,
          "time": 238.30232558139534,
          "velocity": 0.14173228346456693
        },
        {
          "duration": 0.023255813953483084,
          "durationTicks": 2,
          "midi": 43,
          "name": "G2",
          "ticks": 20495,
          "time": 238.3139534883721,
          "velocity": 0.2992125984251969
        },
        {
          "duration": 0.19767441860463464,
          "durationTicks": 17,
          "midi": 62,
          "name": "D4",
          "ticks": 20495,
          "time": 238.3139534883721,
          "velocity": 0.4409448818897638
        },
        {
          "duration": 0.04651162790696617,
          "durationTicks": 4,
          "midi": 58,
          "name": "A#3",
          "ticks": 20496,
          "time": 238.32558139534885,
          "velocity": 0.3543307086614173
        },
        {
          "duration": 0.17441860465115155,
          "durationTicks": 15,
          "midi": 65,
          "name": "F4",
          "ticks": 20496,
          "time": 238.32558139534885,
          "velocity": 0.3543307086614173
        },
        {
          "duration": 0.11627906976744384,
          "durationTicks": 10,
          "midi": 84,
          "name": "C6",
          "ticks": 20496,
          "time": 238.32558139534885,
          "velocity": 0.2125984251968504
        },
        {
          "duration": 0.13953488372092693,
          "durationTicks": 12,
          "midi": 90,
          "name": "F#6",
          "ticks": 20496,
          "time": 238.32558139534885,
          "velocity": 0.09448818897637795
        },
        {
          "duration": 0.034883720930224626,
          "durationTicks": 3,
          "midi": 42,
          "name": "F#2",
          "ticks": 20497,
          "time": 238.3372093023256,
          "velocity": 0.3228346456692913
        },
        {
          "duration": 0.22093023255811772,
          "durationTicks": 19,
          "midi": 53,
          "name": "F3",
          "ticks": 20497,
          "time": 238.3372093023256,
          "velocity": 0.29133858267716534
        },
        {
          "duration": 0.20930232558137618,
          "durationTicks": 18,
          "midi": 75,
          "name": "D#5",
          "ticks": 20498,
          "time": 238.34883720930233,
          "velocity": 0.18110236220472442
        },
        {
          "duration": 0.19767441860466306,
          "durationTicks": 17,
          "midi": 41,
          "name": "F2",
          "ticks": 20500,
          "time": 238.37209302325581,
          "velocity": 0.30708661417322836
        },
        {
          "duration": 0.023255813953483084,
          "durationTicks": 2,
          "midi": 58,
          "name": "A#3",
          "ticks": 20501,
          "time": 238.38372093023256,
          "velocity": 0.31496062992125984
        },
        {
          "duration": 0.023255813953511506,
          "durationTicks": 2,
          "midi": 58,
          "name": "A#3",
          "ticks": 20504,
          "time": 238.41860465116278,
          "velocity": 0.30708661417322836
        },
        {
          "duration": 0.1046511627907023,
          "durationTicks": 9,
          "midi": 58,
          "name": "A#3",
          "ticks": 20508,
          "time": 238.46511627906978,
          "velocity": 0.3543307086614173
        },
        {
          "duration": 0.034883720930224626,
          "durationTicks": 3,
          "midi": 84,
          "name": "C6",
          "ticks": 20508,
          "time": 238.46511627906978,
          "velocity": 0.11811023622047244
        },
        {
          "duration": 0.08139534883721922,
          "durationTicks": 7,
          "midi": 74,
          "name": "D5",
          "ticks": 20516,
          "time": 238.5581395348837,
          "velocity": 0.15748031496062992
        },
        {
          "duration": 0.1511627906976969,
          "durationTicks": 13,
          "midi": 83,
          "name": "B5",
          "ticks": 20516,
          "time": 238.5581395348837,
          "velocity": 0.28346456692913385
        },
        {
          "duration": 0.13953488372092693,
          "durationTicks": 12,
          "midi": 64,
          "name": "E4",
          "ticks": 20517,
          "time": 238.56976744186048,
          "velocity": 0.4566929133858268
        },
        {
          "duration": 0.09302325581393234,
          "durationTicks": 8,
          "midi": 67,
          "name": "G4",
          "ticks": 20517,
          "time": 238.56976744186048,
          "velocity": 0.36220472440944884
        },
        {
          "duration": 0.11627906976741542,
          "durationTicks": 10,
          "midi": 86,
          "name": "D6",
          "ticks": 20517,
          "time": 238.56976744186048,
          "velocity": 0.2204724409448819
        },
        {
          "duration": 0.12790697674418539,
          "durationTicks": 11,
          "midi": 102,
          "name": "F#7",
          "ticks": 20517,
          "time": 238.56976744186048,
          "velocity": 0.18110236220472442
        },
        {
          "duration": 0.2325581395348877,
          "durationTicks": 20,
          "midi": 53,
          "name": "F3",
          "ticks": 20519,
          "time": 238.59302325581396,
          "velocity": 0.3700787401574803
        },
        {
          "duration": 0.2325581395348877,
          "durationTicks": 20,
          "midi": 58,
          "name": "A#3",
          "ticks": 20519,
          "time": 238.59302325581396,
          "velocity": 0.3858267716535433
        },
        {
          "duration": 0.5116279069767415,
          "durationTicks": 44,
          "midi": 77,
          "name": "F5",
          "ticks": 20519,
          "time": 238.59302325581396,
          "velocity": 0.2204724409448819
        },
        {
          "duration": 0.023255813953483084,
          "durationTicks": 2,
          "midi": 44,
          "name": "G#2",
          "ticks": 20520,
          "time": 238.6046511627907,
          "velocity": 0.28346456692913385
        },
        {
          "duration": 0.034883720930224626,
          "durationTicks": 3,
          "midi": 88,
          "name": "E6",
          "ticks": 20522,
          "time": 238.62790697674419,
          "velocity": 0.09448818897637795
        },
        {
          "duration": 0.05813953488373613,
          "durationTicks": 5,
          "midi": 75,
          "name": "D#5",
          "ticks": 20527,
          "time": 238.6860465116279,
          "velocity": 0.10236220472440945
        },
        {
          "duration": 0.0813953488371908,
          "durationTicks": 7,
          "midi": 84,
          "name": "C6",
          "ticks": 20530,
          "time": 238.72093023255815,
          "velocity": 0.12598425196850394
        },
        {
          "duration": 0.25581395348837077,
          "durationTicks": 22,
          "midi": 65,
          "name": "F4",
          "ticks": 20538,
          "time": 238.8139534883721,
          "velocity": 0.4409448818897638
        },
        {
          "duration": 0.12790697674418539,
          "durationTicks": 11,
          "midi": 89,
          "name": "F6",
          "ticks": 20538,
          "time": 238.8139534883721,
          "velocity": 0.2440944881889764
        },
        {
          "duration": 0.023255813953483084,
          "durationTicks": 2,
          "midi": 57,
          "name": "A3",
          "ticks": 20539,
          "time": 238.82558139534885,
          "velocity": 0.3464566929133858
        },
        {
          "duration": 0.1860465116278931,
          "durationTicks": 16,
          "midi": 84,
          "name": "C6",
          "ticks": 20539,
          "time": 238.82558139534885,
          "velocity": 0.2440944881889764
        },
        {
          "duration": 0.034883720930224626,
          "durationTicks": 3,
          "midi": 45,
          "name": "A2",
          "ticks": 20540,
          "time": 238.8372093023256,
          "velocity": 0.3464566929133858
        },
        {
          "duration": 0.0813953488371908,
          "durationTicks": 7,
          "midi": 88,
          "name": "E6",
          "ticks": 20540,
          "time": 238.8372093023256,
          "velocity": 0.18110236220472442
        },
        {
          "duration": 0.1046511627907023,
          "durationTicks": 9,
          "midi": 69,
          "name": "A4",
          "ticks": 20541,
          "time": 238.84883720930233,
          "velocity": 0.2992125984251969
        },
        {
          "duration": 0.034883720930224626,
          "durationTicks": 3,
          "midi": 97,
          "name": "C#7",
          "ticks": 20541,
          "time": 238.84883720930233,
          "velocity": 0.07874015748031496
        },
        {
          "duration": 0.034883720930224626,
          "durationTicks": 3,
          "midi": 52,
          "name": "E3",
          "ticks": 20543,
          "time": 238.87209302325581,
          "velocity": 0.18110236220472442
        },
        {
          "duration": 0.023255813953483084,
          "durationTicks": 2,
          "midi": 41,
          "name": "F2",
          "ticks": 20546,
          "time": 238.90697674418604,
          "velocity": 0.28346456692913385
        },
        {
          "duration": 0.03488372093025305,
          "durationTicks": 3,
          "midi": 93,
          "name": "A6",
          "ticks": 20546,
          "time": 238.90697674418604,
          "velocity": 0.11023622047244094
        },
        {
          "duration": 0.023255813953511506,
          "durationTicks": 2,
          "midi": 60,
          "name": "C4",
          "ticks": 20548,
          "time": 238.93023255813952,
          "velocity": 0.33858267716535434
        },
        {
          "duration": 0.023255813953483084,
          "durationTicks": 2,
          "midi": 55,
          "name": "G3",
          "ticks": 20549,
          "time": 238.9418604651163,
          "velocity": 0.4251968503937008
        },
        {
          "duration": 0.11627906976744384,
          "durationTicks": 10,
          "midi": 58,
          "name": "A#3",
          "ticks": 20551,
          "time": 238.96511627906978,
          "velocity": 0.3858267716535433
        },
        {
          "duration": 0.09302325581396076,
          "durationTicks": 8,
          "midi": 53,
          "name": "F3",
          "ticks": 20552,
          "time": 238.97674418604652,
          "velocity": 0.3228346456692913
        },
        {
          "duration": 0.3604651162790731,
          "durationTicks": 31,
          "midi": 74,
          "name": "D5",
          "ticks": 20555,
          "time": 239.01162790697674,
          "velocity": 0.3464566929133858
        },
        {
          "duration": 0.023255813953511506,
          "durationTicks": 2,
          "midi": 46,
          "name": "A#2",
          "ticks": 20559,
          "time": 239.0581395348837,
          "velocity": 0.33858267716535434
        },
        {
          "duration": 0.023255813953483084,
          "durationTicks": 2,
          "midi": 52,
          "name": "E3",
          "ticks": 20560,
          "time": 239.06976744186048,
          "velocity": 0.33070866141732286
        },
        {
          "duration": 0.3139534883720785,
          "durationTicks": 27,
          "midi": 93,
          "name": "A6",
          "ticks": 20560,
          "time": 239.06976744186048,
          "velocity": 0.30708661417322836
        },
        {
          "duration": 0.06976744186044925,
          "durationTicks": 6,
          "midi": 102,
          "name": "F#7",
          "ticks": 20561,
          "time": 239.08139534883722,
          "velocity": 0.14960629921259844
        },
        {
          "duration": 0.023255813953483084,
          "durationTicks": 2,
          "midi": 51,
          "name": "D#3",
          "ticks": 20563,
          "time": 239.1046511627907,
          "velocity": 0.2755905511811024
        },
        {
          "duration": 0.12790697674418539,
          "durationTicks": 11,
          "midi": 89,
          "name": "F6",
          "ticks": 20563,
          "time": 239.1046511627907,
          "velocity": 0.25196850393700787
        },
        {
          "duration": 0.023255813953483084,
          "durationTicks": 2,
          "midi": 55,
          "name": "G3",
          "ticks": 20564,
          "time": 239.11627906976744,
          "velocity": 0.25984251968503935
        },
        {
          "duration": 0.04651162790699459,
          "durationTicks": 4,
          "midi": 58,
          "name": "A#3",
          "ticks": 20567,
          "time": 239.15116279069767,
          "velocity": 0.18110236220472442
        },
        {
          "duration": 0.023255813953483084,
          "durationTicks": 2,
          "midi": 45,
          "name": "A2",
          "ticks": 20572,
          "time": 239.2093023255814,
          "velocity": 0.30708661417322836
        },
        {
          "duration": 0.17441860465115155,
          "durationTicks": 15,
          "midi": 77,
          "name": "F5",
          "ticks": 20572,
          "time": 239.2093023255814,
          "velocity": 0.15748031496062992
        },
        {
          "duration": 0.24418604651162923,
          "durationTicks": 21,
          "midi": 53,
          "name": "F3",
          "ticks": 20573,
          "time": 239.22093023255815,
          "velocity": 0.44881889763779526
        },
        {
          "duration": 0.11627906976744384,
          "durationTicks": 10,
          "midi": 70,
          "name": "A#4",
          "ticks": 20573,
          "time": 239.22093023255815,
          "velocity": 0.14960629921259844
        },
        {
          "duration": 0.11627906976744384,
          "durationTicks": 10,
          "midi": 58,
          "name": "A#3",
          "ticks": 20576,
          "time": 239.25581395348837,
          "velocity": 0.29133858267716534
        },
        {
          "duration": 0.023255813953483084,
          "durationTicks": 2,
          "midi": 41,
          "name": "F2",
          "ticks": 20577,
          "time": 239.2674418604651,
          "velocity": 0.3228346456692913
        },
        {
          "duration": 0.1046511627907023,
          "durationTicks": 9,
          "midi": 72,
          "name": "C5",
          "ticks": 20577,
          "time": 239.2674418604651,
          "velocity": 0.11811023622047244
        },
        {
          "duration": 0.034883720930224626,
          "durationTicks": 3,
          "midi": 98,
          "name": "D7",
          "ticks": 20577,
          "time": 239.2674418604651,
          "velocity": 0.08661417322834646
        },
        {
          "duration": 0.17441860465117998,
          "durationTicks": 15,
          "midi": 41,
          "name": "F2",
          "ticks": 20580,
          "time": 239.30232558139534,
          "velocity": 0.30708661417322836
        },
        {
          "duration": 0.04651162790696617,
          "durationTicks": 4,
          "midi": 84,
          "name": "C6",
          "ticks": 20584,
          "time": 239.34883720930233,
          "velocity": 0.14173228346456693
        },
        {
          "duration": 0.3720930232558146,
          "durationTicks": 32,
          "midi": 91,
          "name": "G6",
          "ticks": 20585,
          "time": 239.36046511627907,
          "velocity": 0.33858267716535434
        },
        {
          "duration": 0.1046511627907023,
          "durationTicks": 9,
          "midi": 86,
          "name": "D6",
          "ticks": 20586,
          "time": 239.37209302325581,
          "velocity": 0.08661417322834646
        },
        {
          "duration": 0.24418604651162923,
          "durationTicks": 21,
          "midi": 100,
          "name": "E7",
          "ticks": 20586,
          "time": 239.37209302325581,
          "velocity": 0.2677165354330709
        },
        {
          "duration": 0.3720930232558146,
          "durationTicks": 32,
          "midi": 72,
          "name": "C5",
          "ticks": 20587,
          "time": 239.38372093023256,
          "velocity": 0.23622047244094488
        },
        {
          "duration": 0.1046511627907023,
          "durationTicks": 9,
          "midi": 74,
          "name": "D5",
          "ticks": 20587,
          "time": 239.38372093023256,
          "velocity": 0.15748031496062992
        },
        {
          "duration": 0.034883720930224626,
          "durationTicks": 3,
          "midi": 76,
          "name": "E5",
          "ticks": 20587,
          "time": 239.38372093023256,
          "velocity": 0.23622047244094488
        },
        {
          "duration": 0.34883720930233153,
          "durationTicks": 30,
          "midi": 88,
          "name": "E6",
          "ticks": 20587,
          "time": 239.38372093023256,
          "velocity": 0.2440944881889764
        },
        {
          "duration": 0.34883720930233153,
          "durationTicks": 30,
          "midi": 95,
          "name": "B6",
          "ticks": 20587,
          "time": 239.38372093023256,
          "velocity": 0.11811023622047244
        },
        {
          "duration": 0.04651162790699459,
          "durationTicks": 4,
          "midi": 58,
          "name": "A#3",
          "ticks": 20589,
          "time": 239.40697674418604,
          "velocity": 0.2204724409448819
        },
        {
          "duration": 0.05813953488373613,
          "durationTicks": 5,
          "midi": 76,
          "name": "E5",
          "ticks": 20591,
          "time": 239.43023255813952,
          "velocity": 0.18110236220472442
        },
        {
          "duration": 0.023255813953483084,
          "durationTicks": 2,
          "midi": 57,
          "name": "A3",
          "ticks": 20595,
          "time": 239.47674418604652,
          "velocity": 0.3779527559055118
        },
        {
          "duration": 0.06976744186044925,
          "durationTicks": 6,
          "midi": 70,
          "name": "A#4",
          "ticks": 20595,
          "time": 239.47674418604652,
          "velocity": 0.14173228346456693
        },
        {
          "duration": 0.11627906976744384,
          "durationTicks": 10,
          "midi": 53,
          "name": "F3",
          "ticks": 20596,
          "time": 239.48837209302326,
          "velocity": 0.3543307086614173
        },
        {
          "duration": 0.12790697674418539,
          "durationTicks": 11,
          "midi": 93,
          "name": "A6",
          "ticks": 20596,
          "time": 239.48837209302326,
          "velocity": 0.2992125984251969
        },
        {
          "duration": 0.023255813953483084,
          "durationTicks": 2,
          "midi": 42,
          "name": "F#2",
          "ticks": 20597,
          "time": 239.5,
          "velocity": 0.36220472440944884
        },
        {
          "duration": 0.09302325581396076,
          "durationTicks": 8,
          "midi": 41,
          "name": "F2",
          "ticks": 20599,
          "time": 239.52325581395348,
          "velocity": 0.3464566929133858
        },
        {
          "duration": 0.034883720930224626,
          "durationTicks": 3,
          "midi": 97,
          "name": "C#7",
          "ticks": 20599,
          "time": 239.52325581395348,
          "velocity": 0.07874015748031496
        },
        {
          "duration": 0.08139534883721922,
          "durationTicks": 7,
          "midi": 58,
          "name": "A#3",
          "ticks": 20600,
          "time": 239.53488372093022,
          "velocity": 0.28346456692913385
        },
        {
          "duration": 0.023255813953511506,
          "durationTicks": 2,
          "midi": 74,
          "name": "D5",
          "ticks": 20601,
          "time": 239.54651162790697,
          "velocity": 0.2283464566929134
        },
        {
          "duration": 0.04651162790696617,
          "durationTicks": 4,
          "midi": 86,
          "name": "D6",
          "ticks": 20603,
          "time": 239.56976744186048,
          "velocity": 0.07874015748031496
        },
        {
          "duration": 0.04651162790696617,
          "durationTicks": 4,
          "midi": 74,
          "name": "D5",
          "ticks": 20604,
          "time": 239.58139534883722,
          "velocity": 0.2047244094488189
        },
        {
          "duration": 0.13953488372092693,
          "durationTicks": 12,
          "midi": 76,
          "name": "E5",
          "ticks": 20605,
          "time": 239.59302325581396,
          "velocity": 0.11811023622047244
        },
        {
          "duration": 0.023255813953483084,
          "durationTicks": 2,
          "midi": 53,
          "name": "F3",
          "ticks": 20608,
          "time": 239.62790697674419,
          "velocity": 0.4094488188976378
        },
        {
          "duration": 0.023255813953483084,
          "durationTicks": 2,
          "midi": 44,
          "name": "G#2",
          "ticks": 20609,
          "time": 239.63953488372093,
          "velocity": 0.3228346456692913
        },
        {
          "duration": 0.023255813953483084,
          "durationTicks": 2,
          "midi": 58,
          "name": "A#3",
          "ticks": 20609,
          "time": 239.63953488372093,
          "velocity": 0.30708661417322836
        },
        {
          "duration": 0.03488372093025305,
          "durationTicks": 3,
          "midi": 58,
          "name": "A#3",
          "ticks": 20612,
          "time": 239.67441860465115,
          "velocity": 0.15748031496062992
        },
        {
          "duration": 0.023255813953511506,
          "durationTicks": 2,
          "midi": 45,
          "name": "A2",
          "ticks": 20613,
          "time": 239.6860465116279,
          "velocity": 0.25984251968503935
        },
        {
          "duration": 0.023255813953483084,
          "durationTicks": 2,
          "midi": 46,
          "name": "A#2",
          "ticks": 20617,
          "time": 239.7325581395349,
          "velocity": 0.3464566929133858
        },
        {
          "duration": 0.034883720930224626,
          "durationTicks": 3,
          "midi": 75,
          "name": "D#5",
          "ticks": 20617,
          "time": 239.7325581395349,
          "velocity": 0.16535433070866143
        },
        {
          "duration": 0.24418604651162923,
          "durationTicks": 21,
          "midi": 77,
          "name": "F5",
          "ticks": 20617,
          "time": 239.7325581395349,
          "velocity": 0.2204724409448819
        },
        {
          "duration": 0.15116279069766847,
          "durationTicks": 13,
          "midi": 53,
          "name": "F3",
          "ticks": 20618,
          "time": 239.74418604651163,
          "velocity": 0.4330708661417323
        },
        {
          "duration": 0.13953488372092693,
          "durationTicks": 12,
          "midi": 58,
          "name": "A#3",
          "ticks": 20618,
          "time": 239.74418604651163,
          "velocity": 0.3937007874015748
        },
        {
          "duration": 0.04651162790696617,
          "durationTicks": 4,
          "midi": 71,
          "name": "B4",
          "ticks": 20619,
          "time": 239.75581395348837,
          "velocity": 0.14960629921259844
        },
        {
          "duration": 0.17441860465115155,
          "durationTicks": 15,
          "midi": 88,
          "name": "E6",
          "ticks": 20619,
          "time": 239.75581395348837,
          "velocity": 0.12598425196850394
        },
        {
          "duration": 0.04651162790696617,
          "durationTicks": 4,
          "midi": 93,
          "name": "A6",
          "ticks": 20619,
          "time": 239.75581395348837,
          "velocity": 0.14960629921259844
        },
        {
          "duration": 0.023255813953483084,
          "durationTicks": 2,
          "midi": 42,
          "name": "F#2",
          "ticks": 20620,
          "time": 239.7674418604651,
          "velocity": 0.3464566929133858
        },
        {
          "duration": 0.12790697674418539,
          "durationTicks": 11,
          "midi": 41,
          "name": "F2",
          "ticks": 20622,
          "time": 239.7906976744186,
          "velocity": 0.3464566929133858
        },
        {
          "duration": 0.04651162790699459,
          "durationTicks": 4,
          "midi": 98,
          "name": "D7",
          "ticks": 20622,
          "time": 239.7906976744186,
          "velocity": 0.08661417322834646
        },
        {
          "duration": 0.09302325581396076,
          "durationTicks": 8,
          "midi": 74,
          "name": "D5",
          "ticks": 20623,
          "time": 239.80232558139534,
          "velocity": 0.07086614173228346
        },
        {
          "duration": 0.034883720930224626,
          "durationTicks": 3,
          "midi": 60,
          "name": "C4",
          "ticks": 20631,
          "time": 239.8953488372093,
          "velocity": 0.23622047244094488
        },
        {
          "duration": 0.09302325581396076,
          "durationTicks": 8,
          "midi": 70,
          "name": "A#4",
          "ticks": 20631,
          "time": 239.8953488372093,
          "velocity": 0.25196850393700787
        },
        {
          "duration": 0.034883720930224626,
          "durationTicks": 3,
          "midi": 75,
          "name": "D#5",
          "ticks": 20631,
          "time": 239.8953488372093,
          "velocity": 0.2125984251968504
        },
        {
          "duration": 0.3720930232558146,
          "durationTicks": 32,
          "midi": 89,
          "name": "F6",
          "ticks": 20631,
          "time": 239.8953488372093,
          "velocity": 0.2283464566929134
        },
        {
          "duration": 0.09302325581396076,
          "durationTicks": 8,
          "midi": 81,
          "name": "A5",
          "ticks": 20632,
          "time": 239.90697674418604,
          "velocity": 0.14173228346456693
        },
        {
          "duration": 0.3720930232558146,
          "durationTicks": 32,
          "midi": 86,
          "name": "D6",
          "ticks": 20632,
          "time": 239.90697674418604,
          "velocity": 0.30708661417322836
        },
        {
          "duration": 0.1046511627907023,
          "durationTicks": 9,
          "midi": 41,
          "name": "F2",
          "ticks": 20634,
          "time": 239.93023255813952,
          "velocity": 0.3543307086614173
        },
        {
          "duration": 0.023255813953511506,
          "durationTicks": 2,
          "midi": 57,
          "name": "A3",
          "ticks": 20634,
          "time": 239.93023255813952,
          "velocity": 0.2283464566929134
        },
        {
          "duration": 0.3604651162790731,
          "durationTicks": 31,
          "midi": 74,
          "name": "D5",
          "ticks": 20634,
          "time": 239.93023255813952,
          "velocity": 0.3700787401574803
        },
        {
          "duration": 0.023255813953483084,
          "durationTicks": 2,
          "midi": 59,
          "name": "B3",
          "ticks": 20636,
          "time": 239.95348837209303,
          "velocity": 0.23622047244094488
        },
        {
          "duration": 0.023255813953483084,
          "durationTicks": 2,
          "midi": 51,
          "name": "D#3",
          "ticks": 20640,
          "time": 240,
          "velocity": 0.33070866141732286
        },
        {
          "duration": 0.13953488372092693,
          "durationTicks": 12,
          "midi": 58,
          "name": "A#3",
          "ticks": 20640,
          "time": 240,
          "velocity": 0.3937007874015748
        },
        {
          "duration": 0.09302325581396076,
          "durationTicks": 8,
          "midi": 53,
          "name": "F3",
          "ticks": 20643,
          "time": 240.03488372093022,
          "velocity": 0.3937007874015748
        },
        {
          "duration": 0.023255813953511506,
          "durationTicks": 2,
          "midi": 41,
          "name": "F2",
          "ticks": 20644,
          "time": 240.04651162790697,
          "velocity": 0.2677165354330709
        },
        {
          "duration": 0.023255813953483084,
          "durationTicks": 2,
          "midi": 53,
          "name": "F3",
          "ticks": 20652,
          "time": 240.13953488372093,
          "velocity": 0.33070866141732286
        },
        {
          "duration": 0.023255813953483084,
          "durationTicks": 2,
          "midi": 59,
          "name": "B3",
          "ticks": 20652,
          "time": 240.13953488372093,
          "velocity": 0.28346456692913385
        },
        {
          "duration": 0.12790697674418539,
          "durationTicks": 11,
          "midi": 93,
          "name": "A6",
          "ticks": 20653,
          "time": 240.15116279069767,
          "velocity": 0.14960629921259844
        },
        {
          "duration": 0.11627906976744384,
          "durationTicks": 10,
          "midi": 58,
          "name": "A#3",
          "ticks": 20654,
          "time": 240.1627906976744,
          "velocity": 0.31496062992125984
        },
        {
          "duration": 0.06976744186047767,
          "durationTicks": 6,
          "midi": 88,
          "name": "E6",
          "ticks": 20654,
          "time": 240.1627906976744,
          "velocity": 0.08661417322834646
        },
        {
          "duration": 0.023255813953511506,
          "durationTicks": 2,
          "midi": 45,
          "name": "A2",
          "ticks": 20655,
          "time": 240.17441860465115,
          "velocity": 0.31496062992125984
        },
        {
          "duration": 0.1046511627907023,
          "durationTicks": 9,
          "midi": 53,
          "name": "F3",
          "ticks": 20656,
          "time": 240.1860465116279,
          "velocity": 0.30708661417322836
        },
        {
          "duration": 0.023255813953483084,
          "durationTicks": 2,
          "midi": 46,
          "name": "A#2",
          "ticks": 20657,
          "time": 240.19767441860466,
          "velocity": 0.28346456692913385
        },
        {
          "duration": 0.0813953488371908,
          "durationTicks": 7,
          "midi": 81,
          "name": "A5",
          "ticks": 20657,
          "time": 240.19767441860466,
          "velocity": 0.07086614173228346
        },
        {
          "duration": 0.023255813953483084,
          "durationTicks": 2,
          "midi": 46,
          "name": "A#2",
          "ticks": 20660,
          "time": 240.2325581395349,
          "velocity": 0.2677165354330709
        },
        {
          "duration": 0.023255813953483084,
          "durationTicks": 2,
          "midi": 46,
          "name": "A#2",
          "ticks": 20663,
          "time": 240.2674418604651,
          "velocity": 0.2992125984251969
        },
        {
          "duration": 0.05813953488373613,
          "durationTicks": 5,
          "midi": 66,
          "name": "F#4",
          "ticks": 20664,
          "time": 240.27906976744185,
          "velocity": 0.11811023622047244
        },
        {
          "duration": 0.03488372093025305,
          "durationTicks": 3,
          "midi": 47,
          "name": "B2",
          "ticks": 20665,
          "time": 240.2906976744186,
          "velocity": 0.3228346456692913
        },
        {
          "duration": 0.03488372093025305,
          "durationTicks": 3,
          "midi": 54,
          "name": "F#3",
          "ticks": 20665,
          "time": 240.2906976744186,
          "velocity": 0.3700787401574803
        },
        {
          "duration": 0.06976744186044925,
          "durationTicks": 6,
          "midi": 48,
          "name": "C3",
          "ticks": 20668,
          "time": 240.32558139534885,
          "velocity": 0.3464566929133858
        },
        {
          "duration": 0.0813953488371908,
          "durationTicks": 7,
          "midi": 55,
          "name": "G3",
          "ticks": 20668,
          "time": 240.32558139534885,
          "velocity": 0.3937007874015748
        },
        {
          "duration": 0.034883720930224626,
          "durationTicks": 3,
          "midi": 62,
          "name": "D4",
          "ticks": 20668,
          "time": 240.32558139534885,
          "velocity": 0.11811023622047244
        },
        {
          "duration": 0.2906976744185954,
          "durationTicks": 25,
          "midi": 74,
          "name": "D5",
          "ticks": 20673,
          "time": 240.38372093023256,
          "velocity": 0.2755905511811024
        },
        {
          "duration": 0.11627906976744384,
          "durationTicks": 10,
          "midi": 76,
          "name": "E5",
          "ticks": 20674,
          "time": 240.3953488372093,
          "velocity": 0.30708661417322836
        },
        {
          "duration": 0.34883720930233153,
          "durationTicks": 30,
          "midi": 91,
          "name": "G6",
          "ticks": 20674,
          "time": 240.3953488372093,
          "velocity": 0.2992125984251969
        },
        {
          "duration": 0.04651162790699459,
          "durationTicks": 4,
          "midi": 100,
          "name": "E7",
          "ticks": 20674,
          "time": 240.3953488372093,
          "velocity": 0.07874015748031496
        },
        {
          "duration": 0.023255813953483084,
          "durationTicks": 2,
          "midi": 44,
          "name": "G#2",
          "ticks": 20675,
          "time": 240.40697674418604,
          "velocity": 0.2755905511811024
        },
        {
          "duration": 0.25581395348837077,
          "durationTicks": 22,
          "midi": 55,
          "name": "G3",
          "ticks": 20676,
          "time": 240.41860465116278,
          "velocity": 0.5275590551181102
        },
        {
          "duration": 0.33720930232559,
          "durationTicks": 29,
          "midi": 72,
          "name": "C5",
          "ticks": 20676,
          "time": 240.41860465116278,
          "velocity": 0.25196850393700787
        },
        {
          "duration": 0.5116279069767415,
          "durationTicks": 44,
          "midi": 79,
          "name": "G5",
          "ticks": 20676,
          "time": 240.41860465116278,
          "velocity": 0.23622047244094488
        },
        {
          "duration": 0.3139534883721069,
          "durationTicks": 27,
          "midi": 95,
          "name": "B6",
          "ticks": 20676,
          "time": 240.41860465116278,
          "velocity": 0.2204724409448819
        },
        {
          "duration": 0.25581395348837077,
          "durationTicks": 22,
          "midi": 60,
          "name": "C4",
          "ticks": 20677,
          "time": 240.43023255813952,
          "velocity": 0.33070866141732286
        },
        {
          "duration": 0.023255813953483084,
          "durationTicks": 2,
          "midi": 43,
          "name": "G2",
          "ticks": 20679,
          "time": 240.45348837209303,
          "velocity": 0.33070866141732286
        },
        {
          "duration": 0.11627906976744384,
          "durationTicks": 10,
          "midi": 89,
          "name": "F6",
          "ticks": 20686,
          "time": 240.53488372093022,
          "velocity": 0.07086614173228346
        },
        {
          "duration": 0.03488372093025305,
          "durationTicks": 3,
          "midi": 43,
          "name": "G2",
          "ticks": 20687,
          "time": 240.54651162790697,
          "velocity": 0.33858267716535434
        },
        {
          "duration": 0.1860465116278931,
          "durationTicks": 16,
          "midi": 76,
          "name": "E5",
          "ticks": 20689,
          "time": 240.56976744186048,
          "velocity": 0.2440944881889764
        },
        {
          "duration": 0.023255813953483084,
          "durationTicks": 2,
          "midi": 43,
          "name": "G2",
          "ticks": 20692,
          "time": 240.6046511627907,
          "velocity": 0.3464566929133858
        },
        {
          "duration": 0.023255813953483084,
          "durationTicks": 2,
          "midi": 44,
          "name": "G#2",
          "ticks": 20696,
          "time": 240.65116279069767,
          "velocity": 0.3464566929133858
        },
        {
          "duration": 0.06976744186047767,
          "durationTicks": 6,
          "midi": 83,
          "name": "B5",
          "ticks": 20698,
          "time": 240.67441860465115,
          "velocity": 0.11023622047244094
        },
        {
          "duration": 0.023255813953511506,
          "durationTicks": 2,
          "midi": 44,
          "name": "G#2",
          "ticks": 20699,
          "time": 240.6860465116279,
          "velocity": 0.36220472440944884
        },
        {
          "duration": 0.22093023255814614,
          "durationTicks": 19,
          "midi": 55,
          "name": "G3",
          "ticks": 20699,
          "time": 240.6860465116279,
          "velocity": 0.4251968503937008
        },
        {
          "duration": 0.03488372093025305,
          "durationTicks": 3,
          "midi": 86,
          "name": "D6",
          "ticks": 20699,
          "time": 240.6860465116279,
          "velocity": 0.08661417322834646
        },
        {
          "duration": 0.034883720930224626,
          "durationTicks": 3,
          "midi": 62,
          "name": "D4",
          "ticks": 20700,
          "time": 240.69767441860466,
          "velocity": 0.14960629921259844
        },
        {
          "duration": 0.034883720930224626,
          "durationTicks": 3,
          "midi": 43,
          "name": "G2",
          "ticks": 20701,
          "time": 240.7093023255814,
          "velocity": 0.3464566929133858
        },
        {
          "duration": 0.023255813953483084,
          "durationTicks": 2,
          "midi": 43,
          "name": "G2",
          "ticks": 20706,
          "time": 240.7674418604651,
          "velocity": 0.36220472440944884
        },
        {
          "duration": 0.15116279069766847,
          "durationTicks": 13,
          "midi": 72,
          "name": "C5",
          "ticks": 20707,
          "time": 240.77906976744185,
          "velocity": 0.14960629921259844
        },
        {
          "duration": 0.03488372093025305,
          "durationTicks": 3,
          "midi": 43,
          "name": "G2",
          "ticks": 20709,
          "time": 240.80232558139534,
          "velocity": 0.3700787401574803
        },
        {
          "duration": 0.023255813953483084,
          "durationTicks": 2,
          "midi": 43,
          "name": "G2",
          "ticks": 20714,
          "time": 240.86046511627907,
          "velocity": 0.3543307086614173
        },
        {
          "duration": 0.3720930232558146,
          "durationTicks": 32,
          "midi": 74,
          "name": "D5",
          "ticks": 20718,
          "time": 240.90697674418604,
          "velocity": 0.3937007874015748
        },
        {
          "duration": 0.023255813953511506,
          "durationTicks": 2,
          "midi": 53,
          "name": "F3",
          "ticks": 20719,
          "time": 240.91860465116278,
          "velocity": 0.33858267716535434
        },
        {
          "duration": 0.33720930232559,
          "durationTicks": 29,
          "midi": 93,
          "name": "A6",
          "ticks": 20719,
          "time": 240.91860465116278,
          "velocity": 0.29133858267716534
        },
        {
          "duration": 0.023255813953511506,
          "durationTicks": 2,
          "midi": 41,
          "name": "F2",
          "ticks": 20720,
          "time": 240.93023255813952,
          "velocity": 0.2992125984251969
        },
        {
          "duration": 0.023255813953483084,
          "durationTicks": 2,
          "midi": 43,
          "name": "G2",
          "ticks": 20722,
          "time": 240.95348837209303,
          "velocity": 0.3464566929133858
        },
        {
          "duration": 0.3604651162790731,
          "durationTicks": 31,
          "midi": 55,
          "name": "G3",
          "ticks": 20722,
          "time": 240.95348837209303,
          "velocity": 0.4881889763779528
        },
        {
          "duration": 0.023255813953483084,
          "durationTicks": 2,
          "midi": 60,
          "name": "C4",
          "ticks": 20722,
          "time": 240.95348837209303,
          "velocity": 0.30708661417322836
        },
        {
          "duration": 0.30232558139533694,
          "durationTicks": 26,
          "midi": 89,
          "name": "F6",
          "ticks": 20722,
          "time": 240.95348837209303,
          "velocity": 0.2755905511811024
        },
        {
          "duration": 0.04651162790696617,
          "durationTicks": 4,
          "midi": 77,
          "name": "F5",
          "ticks": 20723,
          "time": 240.96511627906978,
          "velocity": 0.16535433070866143
        },
        {
          "duration": 0.04651162790696617,
          "durationTicks": 4,
          "midi": 42,
          "name": "F#2",
          "ticks": 20724,
          "time": 240.97674418604652,
          "velocity": 0.33070866141732286
        },
        {
          "duration": 0.22093023255814614,
          "durationTicks": 19,
          "midi": 96,
          "name": "C7",
          "ticks": 20724,
          "time": 240.97674418604652,
          "velocity": 0.10236220472440945
        },
        {
          "duration": 0.034883720930224626,
          "durationTicks": 3,
          "midi": 43,
          "name": "G2",
          "ticks": 20728,
          "time": 241.02325581395348,
          "velocity": 0.29133858267716534
        },
        {
          "duration": 0.67441860465118,
          "durationTicks": 58,
          "midi": 60,
          "name": "C4",
          "ticks": 20729,
          "time": 241.03488372093022,
          "velocity": 0.4330708661417323
        },
        {
          "duration": 0.023255813953511506,
          "durationTicks": 2,
          "midi": 48,
          "name": "C3",
          "ticks": 20731,
          "time": 241.0581395348837,
          "velocity": 0.2992125984251969
        },
        {
          "duration": 0.13953488372095535,
          "durationTicks": 12,
          "midi": 88,
          "name": "E6",
          "ticks": 20731,
          "time": 241.0581395348837,
          "velocity": 0.15748031496062992
        },
        {
          "duration": 0.023255813953483084,
          "durationTicks": 2,
          "midi": 44,
          "name": "G#2",
          "ticks": 20744,
          "time": 241.2093023255814,
          "velocity": 0.4094488188976378
        },
        {
          "duration": 0.034883720930224626,
          "durationTicks": 3,
          "midi": 76,
          "name": "E5",
          "ticks": 20746,
          "time": 241.2325581395349,
          "velocity": 0.07086614173228346
        },
        {
          "duration": 0.023255813953483084,
          "durationTicks": 2,
          "midi": 42,
          "name": "F#2",
          "ticks": 20748,
          "time": 241.25581395348837,
          "velocity": 0.25984251968503935
        },
        {
          "duration": 0.04651162790696617,
          "durationTicks": 4,
          "midi": 54,
          "name": "F#3",
          "ticks": 20753,
          "time": 241.3139534883721,
          "velocity": 0.4330708661417323
        },
        {
          "duration": 0.23255813953485927,
          "durationTicks": 20,
          "midi": 88,
          "name": "E6",
          "ticks": 20753,
          "time": 241.3139534883721,
          "velocity": 0.14173228346456693
        },
        {
          "duration": 0.23255813953485927,
          "durationTicks": 20,
          "midi": 67,
          "name": "G4",
          "ticks": 20754,
          "time": 241.32558139534885,
          "velocity": 0.16535433070866143
        },
        {
          "duration": 0.12790697674418539,
          "durationTicks": 11,
          "midi": 79,
          "name": "G5",
          "ticks": 20754,
          "time": 241.32558139534885,
          "velocity": 0.25196850393700787
        },
        {
          "duration": 0.38372093023255616,
          "durationTicks": 33,
          "midi": 83,
          "name": "B5",
          "ticks": 20754,
          "time": 241.32558139534885,
          "velocity": 0.1732283464566929
        },
        {
          "duration": 0.023255813953483084,
          "durationTicks": 2,
          "midi": 44,
          "name": "G#2",
          "ticks": 20755,
          "time": 241.3372093023256,
          "velocity": 0.29133858267716534
        },
        {
          "duration": 0.06976744186044925,
          "durationTicks": 6,
          "midi": 55,
          "name": "G3",
          "ticks": 20757,
          "time": 241.36046511627907,
          "velocity": 0.4409448818897638
        },
        {
          "duration": 0.10465116279067388,
          "durationTicks": 9,
          "midi": 100,
          "name": "E7",
          "ticks": 20764,
          "time": 241.4418604651163,
          "velocity": 0.18110236220472442
        },
        {
          "duration": 0.023255813953483084,
          "durationTicks": 2,
          "midi": 43,
          "name": "G2",
          "ticks": 20765,
          "time": 241.45348837209303,
          "velocity": 0.31496062992125984
        },
        {
          "duration": 0.27906976744185386,
          "durationTicks": 24,
          "midi": 91,
          "name": "G6",
          "ticks": 20765,
          "time": 241.45348837209303,
          "velocity": 0.1889763779527559
        },
        {
          "duration": 0.2674418604651123,
          "durationTicks": 23,
          "midi": 98,
          "name": "D7",
          "ticks": 20765,
          "time": 241.45348837209303,
          "velocity": 0.11023622047244094
        },
        {
          "duration": 0.2906976744185954,
          "durationTicks": 25,
          "midi": 79,
          "name": "G5",
          "ticks": 20766,
          "time": 241.46511627906978,
          "velocity": 0.30708661417322836
        },
        {
          "duration": 0.0813953488371908,
          "durationTicks": 7,
          "midi": 76,
          "name": "E5",
          "ticks": 20767,
          "time": 241.47674418604652,
          "velocity": 0.11023622047244094
        },
        {
          "duration": 0.06976744186044925,
          "durationTicks": 6,
          "midi": 55,
          "name": "G3",
          "ticks": 20768,
          "time": 241.48837209302326,
          "velocity": 0.1968503937007874
        },
        {
          "duration": 0.023255813953511506,
          "durationTicks": 2,
          "midi": 42,
          "name": "F#2",
          "ticks": 20774,
          "time": 241.5581395348837,
          "velocity": 0.2677165354330709
        },
        {
          "duration": 0.12790697674418539,
          "durationTicks": 11,
          "midi": 67,
          "name": "G4",
          "ticks": 20776,
          "time": 241.58139534883722,
          "velocity": 0.14173228346456693
        },
        {
          "duration": 0.11627906976744384,
          "durationTicks": 10,
          "midi": 55,
          "name": "G3",
          "ticks": 20777,
          "time": 241.59302325581396,
          "velocity": 0.5039370078740157
        },
        {
          "duration": 0.034883720930224626,
          "durationTicks": 3,
          "midi": 43,
          "name": "G2",
          "ticks": 20781,
          "time": 241.63953488372093,
          "velocity": 0.31496062992125984
        },
        {
          "duration": 0.04651162790699459,
          "durationTicks": 4,
          "midi": 88,
          "name": "E6",
          "ticks": 20783,
          "time": 241.6627906976744,
          "velocity": 0.11023622047244094
        },
        {
          "duration": 0.023255813953511506,
          "durationTicks": 2,
          "midi": 44,
          "name": "G#2",
          "ticks": 20785,
          "time": 241.6860465116279,
          "velocity": 0.3228346456692913
        },
        {
          "duration": 0.034883720930224626,
          "durationTicks": 3,
          "midi": 76,
          "name": "E5",
          "ticks": 20787,
          "time": 241.7093023255814,
          "velocity": 0.13385826771653545
        },
        {
          "duration": 0.09302325581396076,
          "durationTicks": 8,
          "midi": 55,
          "name": "G3",
          "ticks": 20788,
          "time": 241.72093023255815,
          "velocity": 0.4409448818897638
        },
        {
          "duration": 0.09302325581396076,
          "durationTicks": 8,
          "midi": 60,
          "name": "C4",
          "ticks": 20788,
          "time": 241.72093023255815,
          "velocity": 0.2440944881889764
        },
        {
          "duration": 0.034883720930224626,
          "durationTicks": 3,
          "midi": 71,
          "name": "B4",
          "ticks": 20788,
          "time": 241.72093023255815,
          "velocity": 0.14960629921259844
        },
        {
          "duration": 0.023255813953483084,
          "durationTicks": 2,
          "midi": 44,
          "name": "G#2",
          "ticks": 20789,
          "time": 241.7325581395349,
          "velocity": 0.2992125984251969
        },
        {
          "duration": 0.034883720930224626,
          "durationTicks": 3,
          "midi": 42,
          "name": "F#2",
          "ticks": 20791,
          "time": 241.75581395348837,
          "velocity": 0.29133858267716534
        },
        {
          "duration": 0.034883720930224626,
          "durationTicks": 3,
          "midi": 78,
          "name": "F#5",
          "ticks": 20791,
          "time": 241.75581395348837,
          "velocity": 0.11023622047244094
        },
        {
          "duration": 0.03488372093025305,
          "durationTicks": 3,
          "midi": 43,
          "name": "G2",
          "ticks": 20794,
          "time": 241.7906976744186,
          "velocity": 0.30708661417322836
        },
        {
          "duration": 0.034883720930224626,
          "durationTicks": 3,
          "midi": 56,
          "name": "G#3",
          "ticks": 20796,
          "time": 241.8139534883721,
          "velocity": 0.4409448818897638
        },
        {
          "duration": 0.023255813953483084,
          "durationTicks": 2,
          "midi": 61,
          "name": "C#4",
          "ticks": 20796,
          "time": 241.8139534883721,
          "velocity": 0.3464566929133858
        },
        {
          "duration": 0.48837209302325846,
          "durationTicks": 42,
          "midi": 72,
          "name": "C5",
          "ticks": 20797,
          "time": 241.82558139534885,
          "velocity": 0.33858267716535434
        },
        {
          "duration": 0.16279069767441,
          "durationTicks": 14,
          "midi": 79,
          "name": "G5",
          "ticks": 20797,
          "time": 241.82558139534885,
          "velocity": 0.18110236220472442
        },
        {
          "duration": 0.16279069767441,
          "durationTicks": 14,
          "midi": 88,
          "name": "E6",
          "ticks": 20797,
          "time": 241.82558139534885,
          "velocity": 0.18110236220472442
        },
        {
          "duration": 0.023255813953483084,
          "durationTicks": 2,
          "midi": 47,
          "name": "B2",
          "ticks": 20798,
          "time": 241.8372093023256,
          "velocity": 0.28346456692913385
        },
        {
          "duration": 0.2325581395348877,
          "durationTicks": 20,
          "midi": 60,
          "name": "C4",
          "ticks": 20798,
          "time": 241.8372093023256,
          "velocity": 0.41732283464566927
        },
        {
          "duration": 0.12790697674418539,
          "durationTicks": 11,
          "midi": 67,
          "name": "G4",
          "ticks": 20798,
          "time": 241.8372093023256,
          "velocity": 0.1732283464566929
        },
        {
          "duration": 0.11627906976744384,
          "durationTicks": 10,
          "midi": 55,
          "name": "G3",
          "ticks": 20799,
          "time": 241.84883720930233,
          "velocity": 0.5275590551181102
        },
        {
          "duration": 0.09302325581396076,
          "durationTicks": 8,
          "midi": 86,
          "name": "D6",
          "ticks": 20799,
          "time": 241.84883720930233,
          "velocity": 0.09448818897637795
        },
        {
          "duration": 0.06976744186047767,
          "durationTicks": 6,
          "midi": 48,
          "name": "C3",
          "ticks": 20803,
          "time": 241.8953488372093,
          "velocity": 0.2125984251968504
        },
        {
          "duration": 0.06976744186047767,
          "durationTicks": 6,
          "midi": 76,
          "name": "E5",
          "ticks": 20805,
          "time": 241.91860465116278,
          "velocity": 0.1732283464566929
        },
        {
          "duration": 0.05813953488373613,
          "durationTicks": 5,
          "midi": 74,
          "name": "D5",
          "ticks": 20806,
          "time": 241.93023255813952,
          "velocity": 0.11023622047244094
        },
        {
          "duration": 0.023255813953483084,
          "durationTicks": 2,
          "midi": 54,
          "name": "F#3",
          "ticks": 20809,
          "time": 241.96511627906978,
          "velocity": 0.41732283464566927
        },
        {
          "duration": 0.034883720930224626,
          "durationTicks": 3,
          "midi": 42,
          "name": "F#2",
          "ticks": 20810,
          "time": 241.97674418604652,
          "velocity": 0.23622047244094488
        },
        {
          "duration": 0.32558139534882,
          "durationTicks": 28,
          "midi": 91,
          "name": "G6",
          "ticks": 20810,
          "time": 241.97674418604652,
          "velocity": 0.29133858267716534
        },
        {
          "duration": 0.24418604651162923,
          "durationTicks": 21,
          "midi": 55,
          "name": "G3",
          "ticks": 20811,
          "time": 241.98837209302326,
          "velocity": 0.4566929133858268
        },
        {
          "duration": 0.1046511627907023,
          "durationTicks": 9,
          "midi": 100,
          "name": "E7",
          "ticks": 20811,
          "time": 241.98837209302326,
          "velocity": 0.18110236220472442
        },
        {
          "duration": 0.24418604651162923,
          "durationTicks": 21,
          "midi": 95,
          "name": "B6",
          "ticks": 20812,
          "time": 242,
          "velocity": 0.1968503937007874
        },
        {
          "duration": 0.09302325581396076,
          "durationTicks": 8,
          "midi": 76,
          "name": "E5",
          "ticks": 20813,
          "time": 242.01162790697674,
          "velocity": 0.23622047244094488
        },
        {
          "duration": 0.023255813953483084,
          "durationTicks": 2,
          "midi": 48,
          "name": "C3",
          "ticks": 20814,
          "time": 242.02325581395348,
          "velocity": 0.29133858267716534
        },
        {
          "duration": 0.08139534883721922,
          "durationTicks": 7,
          "midi": 48,
          "name": "C3",
          "ticks": 20817,
          "time": 242.0581395348837,
          "velocity": 0.33070866141732286
        },
        {
          "duration": 0.19767441860466306,
          "durationTicks": 17,
          "midi": 60,
          "name": "C4",
          "ticks": 20824,
          "time": 242.13953488372093,
          "velocity": 0.28346456692913385
        },
        {
          "duration": 0.18604651162792152,
          "durationTicks": 16,
          "midi": 76,
          "name": "E5",
          "ticks": 20825,
          "time": 242.15116279069767,
          "velocity": 0.2204724409448819
        },
        {
          "duration": 0.023255813953483084,
          "durationTicks": 2,
          "midi": 50,
          "name": "D3",
          "ticks": 20831,
          "time": 242.22093023255815,
          "velocity": 0.28346456692913385
        },
        {
          "duration": 0.15116279069766847,
          "durationTicks": 13,
          "midi": 74,
          "name": "D5",
          "ticks": 20831,
          "time": 242.22093023255815,
          "velocity": 0.1968503937007874
        },
        {
          "duration": 0.09302325581396076,
          "durationTicks": 8,
          "midi": 83,
          "name": "B5",
          "ticks": 20831,
          "time": 242.22093023255815,
          "velocity": 0.1732283464566929
        },
        {
          "duration": 0.1046511627907023,
          "durationTicks": 9,
          "midi": 55,
          "name": "G3",
          "ticks": 20833,
          "time": 242.24418604651163,
          "velocity": 0.5039370078740157
        },
        {
          "duration": 0.1046511627907023,
          "durationTicks": 9,
          "midi": 79,
          "name": "G5",
          "ticks": 20833,
          "time": 242.24418604651163,
          "velocity": 0.12598425196850394
        },
        {
          "duration": 0.03488372093025305,
          "durationTicks": 3,
          "midi": 43,
          "name": "G2",
          "ticks": 20838,
          "time": 242.30232558139534,
          "velocity": 0.2992125984251969
        },
        {
          "duration": 0.04651162790696617,
          "durationTicks": 4,
          "midi": 61,
          "name": "C#4",
          "ticks": 20841,
          "time": 242.3372093023256,
          "velocity": 0.16535433070866143
        },
        {
          "duration": 0.023255813953483084,
          "durationTicks": 2,
          "midi": 49,
          "name": "C#3",
          "ticks": 20843,
          "time": 242.36046511627907,
          "velocity": 0.29133858267716534
        },
        {
          "duration": 0.023255813953483084,
          "durationTicks": 2,
          "midi": 56,
          "name": "G#3",
          "ticks": 20844,
          "time": 242.37209302325581,
          "velocity": 0.25984251968503935
        },
        {
          "duration": 0.023255813953483084,
          "durationTicks": 2,
          "midi": 50,
          "name": "D3",
          "ticks": 20845,
          "time": 242.38372093023256,
          "velocity": 0.29133858267716534
        },
        {
          "duration": 0.034883720930224626,
          "durationTicks": 3,
          "midi": 57,
          "name": "A3",
          "ticks": 20846,
          "time": 242.3953488372093,
          "velocity": 0.2204724409448819
        },
        {
          "duration": 0.03488372093025305,
          "durationTicks": 3,
          "midi": 56,
          "name": "G#3",
          "ticks": 20849,
          "time": 242.43023255813952,
          "velocity": 0.2125984251968504
        },
        {
          "duration": 0.023255813953483084,
          "durationTicks": 2,
          "midi": 61,
          "name": "C#4",
          "ticks": 20851,
          "time": 242.45348837209303,
          "velocity": 0.25984251968503935
        },
        {
          "duration": 0.034883720930224626,
          "durationTicks": 3,
          "midi": 74,
          "name": "D5",
          "ticks": 20851,
          "time": 242.45348837209303,
          "velocity": 0.11023622047244094
        },
        {
          "duration": 0.023255813953483084,
          "durationTicks": 2,
          "midi": 50,
          "name": "D3",
          "ticks": 20852,
          "time": 242.46511627906978,
          "velocity": 0.3779527559055118
        },
        {
          "duration": 0.7906976744185954,
          "durationTicks": 68,
          "midi": 69,
          "name": "A4",
          "ticks": 20852,
          "time": 242.46511627906978,
          "velocity": 0.3858267716535433
        },
        {
          "duration": 0.2674418604651123,
          "durationTicks": 23,
          "midi": 76,
          "name": "E5",
          "ticks": 20852,
          "time": 242.46511627906978,
          "velocity": 0.28346456692913385
        },
        {
          "duration": 0.034883720930224626,
          "durationTicks": 3,
          "midi": 83,
          "name": "B5",
          "ticks": 20852,
          "time": 242.46511627906978,
          "velocity": 0.10236220472440945
        },
        {
          "duration": 0.034883720930224626,
          "durationTicks": 3,
          "midi": 85,
          "name": "C#6",
          "ticks": 20852,
          "time": 242.46511627906978,
          "velocity": 0.11023622047244094
        },
        {
          "duration": 0.034883720930224626,
          "durationTicks": 3,
          "midi": 45,
          "name": "A2",
          "ticks": 20854,
          "time": 242.48837209302326,
          "velocity": 0.3464566929133858
        },
        {
          "duration": 0.24418604651162923,
          "durationTicks": 21,
          "midi": 57,
          "name": "A3",
          "ticks": 20854,
          "time": 242.48837209302326,
          "velocity": 0.44881889763779526
        },
        {
          "duration": 0.5116279069767415,
          "durationTicks": 44,
          "midi": 86,
          "name": "D6",
          "ticks": 20855,
          "time": 242.5,
          "velocity": 0.25984251968503935
        },
        {
          "duration": 0.023255813953483084,
          "durationTicks": 2,
          "midi": 50,
          "name": "D3",
          "ticks": 20862,
          "time": 242.58139534883722,
          "velocity": 0.29133858267716534
        },
        {
          "duration": 0.023255813953483084,
          "durationTicks": 2,
          "midi": 45,
          "name": "A2",
          "ticks": 20867,
          "time": 242.63953488372093,
          "velocity": 0.25984251968503935
        },
        {
          "duration": 0.023255813953483084,
          "durationTicks": 2,
          "midi": 50,
          "name": "D3",
          "ticks": 20867,
          "time": 242.63953488372093,
          "velocity": 0.29133858267716534
        },
        {
          "duration": 0.25581395348837077,
          "durationTicks": 22,
          "midi": 50,
          "name": "D3",
          "ticks": 20874,
          "time": 242.72093023255815,
          "velocity": 0.36220472440944884
        },
        {
          "duration": 0.034883720930224626,
          "durationTicks": 3,
          "midi": 56,
          "name": "G#3",
          "ticks": 20875,
          "time": 242.7325581395349,
          "velocity": 0.28346456692913385
        },
        {
          "duration": 0.16279069767441,
          "durationTicks": 14,
          "midi": 78,
          "name": "F#5",
          "ticks": 20875,
          "time": 242.7325581395349,
          "velocity": 0.1732283464566929
        },
        {
          "duration": 0.12790697674418539,
          "durationTicks": 11,
          "midi": 76,
          "name": "E5",
          "ticks": 20876,
          "time": 242.74418604651163,
          "velocity": 0.1968503937007874
        },
        {
          "duration": 0.2093023255814046,
          "durationTicks": 18,
          "midi": 57,
          "name": "A3",
          "ticks": 20878,
          "time": 242.7674418604651,
          "velocity": 0.2992125984251969
        },
        {
          "duration": 0.05813953488373613,
          "durationTicks": 5,
          "midi": 93,
          "name": "A6",
          "ticks": 20881,
          "time": 242.80232558139534,
          "velocity": 0.11023622047244094
        },
        {
          "duration": 0.034883720930224626,
          "durationTicks": 3,
          "midi": 71,
          "name": "B4",
          "ticks": 20896,
          "time": 242.97674418604652,
          "velocity": 0.14173228346456693
        },
        {
          "duration": 0.023255813953483084,
          "durationTicks": 2,
          "midi": 56,
          "name": "G#3",
          "ticks": 20898,
          "time": 243,
          "velocity": 0.3228346456692913
        },
        {
          "duration": 0.034883720930224626,
          "durationTicks": 3,
          "midi": 61,
          "name": "C#4",
          "ticks": 20898,
          "time": 243,
          "velocity": 0.25196850393700787
        },
        {
          "duration": 0.09302325581396076,
          "durationTicks": 8,
          "midi": 42,
          "name": "F#2",
          "ticks": 20899,
          "time": 243.01162790697674,
          "velocity": 0.2992125984251969
        },
        {
          "duration": 0.06976744186047767,
          "durationTicks": 6,
          "midi": 57,
          "name": "A3",
          "ticks": 20900,
          "time": 243.02325581395348,
          "velocity": 0.29133858267716534
        },
        {
          "duration": 0.023255813953483084,
          "durationTicks": 2,
          "midi": 64,
          "name": "E4",
          "ticks": 20906,
          "time": 243.09302325581396,
          "velocity": 0.25984251968503935
        },
        {
          "duration": 0.15116279069766847,
          "durationTicks": 13,
          "midi": 62,
          "name": "D4",
          "ticks": 20908,
          "time": 243.11627906976744,
          "velocity": 0.4330708661417323
        },
        {
          "duration": 0.12790697674418539,
          "durationTicks": 11,
          "midi": 57,
          "name": "A3",
          "ticks": 20909,
          "time": 243.12790697674419,
          "velocity": 0.4015748031496063
        },
        {
          "duration": 0.023255813953483084,
          "durationTicks": 2,
          "midi": 45,
          "name": "A2",
          "ticks": 20910,
          "time": 243.13953488372093,
          "velocity": 0.2440944881889764
        },
        {
          "duration": 0.06976744186047767,
          "durationTicks": 6,
          "midi": 88,
          "name": "E6",
          "ticks": 20910,
          "time": 243.13953488372093,
          "velocity": 0.09448818897637795
        },
        {
          "duration": 0.034883720930224626,
          "durationTicks": 3,
          "midi": 44,
          "name": "G#2",
          "ticks": 20920,
          "time": 243.25581395348837,
          "velocity": 0.3700787401574803
        },
        {
          "duration": 0.023255813953483084,
          "durationTicks": 2,
          "midi": 58,
          "name": "A#3",
          "ticks": 20920,
          "time": 243.25581395348837,
          "velocity": 0.36220472440944884
        },
        {
          "duration": 0.03488372093025305,
          "durationTicks": 3,
          "midi": 57,
          "name": "A3",
          "ticks": 20922,
          "time": 243.27906976744185,
          "velocity": 0.4094488188976378
        },
        {
          "duration": 0.05813953488373613,
          "durationTicks": 5,
          "midi": 43,
          "name": "G2",
          "ticks": 20923,
          "time": 243.2906976744186,
          "velocity": 0.2204724409448819
        },
        {
          "duration": 0.05813953488370771,
          "durationTicks": 5,
          "midi": 62,
          "name": "D4",
          "ticks": 20925,
          "time": 243.3139534883721,
          "velocity": 0.12598425196850394
        },
        {
          "duration": 0.05813953488370771,
          "durationTicks": 5,
          "midi": 57,
          "name": "A3",
          "ticks": 20926,
          "time": 243.32558139534885,
          "velocity": 0.25196850393700787
        },
        {
          "duration": 0.023255813953483084,
          "durationTicks": 2,
          "midi": 61,
          "name": "C#4",
          "ticks": 20930,
          "time": 243.37209302325581,
          "velocity": 0.33858267716535434
        },
        {
          "duration": 0.023255813953483084,
          "durationTicks": 2,
          "midi": 55,
          "name": "G3",
          "ticks": 20931,
          "time": 243.38372093023256,
          "velocity": 0.4094488188976378
        },
        {
          "duration": 0.24418604651162923,
          "durationTicks": 21,
          "midi": 74,
          "name": "D5",
          "ticks": 20931,
          "time": 243.38372093023256,
          "velocity": 0.31496062992125984
        },
        {
          "duration": 0.25581395348837077,
          "durationTicks": 22,
          "midi": 62,
          "name": "D4",
          "ticks": 20932,
          "time": 243.3953488372093,
          "velocity": 0.4015748031496063
        },
        {
          "duration": 0.2674418604651123,
          "durationTicks": 23,
          "midi": 69,
          "name": "A4",
          "ticks": 20932,
          "time": 243.3953488372093,
          "velocity": 0.3464566929133858
        },
        {
          "duration": 0.023255813953511506,
          "durationTicks": 2,
          "midi": 45,
          "name": "A2",
          "ticks": 20934,
          "time": 243.41860465116278,
          "velocity": 0.25196850393700787
        },
        {
          "duration": 0.04651162790699459,
          "durationTicks": 4,
          "midi": 50,
          "name": "D3",
          "ticks": 20934,
          "time": 243.41860465116278,
          "velocity": 0.29133858267716534
        },
        {
          "duration": 0.2325581395348877,
          "durationTicks": 20,
          "midi": 57,
          "name": "A3",
          "ticks": 20934,
          "time": 243.41860465116278,
          "velocity": 0.3858267716535433
        },
        {
          "duration": 0.04651162790699459,
          "durationTicks": 4,
          "midi": 88,
          "name": "E6",
          "ticks": 20934,
          "time": 243.41860465116278,
          "velocity": 0.09448818897637795
        },
        {
          "duration": 0.034883720930224626,
          "durationTicks": 3,
          "midi": 50,
          "name": "D3",
          "ticks": 20939,
          "time": 243.47674418604652,
          "velocity": 0.2755905511811024
        },
        {
          "duration": 0.08139534883721922,
          "durationTicks": 7,
          "midi": 88,
          "name": "E6",
          "ticks": 20943,
          "time": 243.52325581395348,
          "velocity": 0.2125984251968504
        },
        {
          "duration": 0.03488372093025305,
          "durationTicks": 3,
          "midi": 50,
          "name": "D3",
          "ticks": 20944,
          "time": 243.53488372093022,
          "velocity": 0.25196850393700787
        },
        {
          "duration": 0.08139534883721922,
          "durationTicks": 7,
          "midi": 103,
          "name": "G7",
          "ticks": 20944,
          "time": 243.53488372093022,
          "velocity": 0.12598425196850394
        },
        {
          "duration": 0.023255813953483084,
          "durationTicks": 2,
          "midi": 45,
          "name": "A2",
          "ticks": 20948,
          "time": 243.58139534883722,
          "velocity": 0.2283464566929134
        },
        {
          "duration": 0.04651162790696617,
          "durationTicks": 4,
          "midi": 50,
          "name": "D3",
          "ticks": 20948,
          "time": 243.58139534883722,
          "velocity": 0.25196850393700787
        },
        {
          "duration": 0.023255813953483084,
          "durationTicks": 2,
          "midi": 75,
          "name": "D#5",
          "ticks": 20953,
          "time": 243.63953488372093,
          "velocity": 0.2283464566929134
        },
        {
          "duration": 0.034883720930224626,
          "durationTicks": 3,
          "midi": 44,
          "name": "G#2",
          "ticks": 20954,
          "time": 243.65116279069767,
          "velocity": 0.3228346456692913
        },
        {
          "duration": 0.023255813953483084,
          "durationTicks": 2,
          "midi": 67,
          "name": "G4",
          "ticks": 20954,
          "time": 243.65116279069767,
          "velocity": 0.25196850393700787
        },
        {
          "duration": 0.023255813953483084,
          "durationTicks": 2,
          "midi": 62,
          "name": "D4",
          "ticks": 20955,
          "time": 243.6627906976744,
          "velocity": 0.2677165354330709
        },
        {
          "duration": 0.11627906976744384,
          "durationTicks": 10,
          "midi": 57,
          "name": "A3",
          "ticks": 20956,
          "time": 243.67441860465115,
          "velocity": 0.4409448818897638
        },
        {
          "duration": 0.09302325581396076,
          "durationTicks": 8,
          "midi": 68,
          "name": "G#4",
          "ticks": 20956,
          "time": 243.67441860465115,
          "velocity": 0.36220472440944884
        },
        {
          "duration": 0.06976744186047767,
          "durationTicks": 6,
          "midi": 99,
          "name": "D#7",
          "ticks": 20956,
          "time": 243.67441860465115,
          "velocity": 0.12598425196850394
        },
        {
          "duration": 0.09302325581396076,
          "durationTicks": 8,
          "midi": 50,
          "name": "D3",
          "ticks": 20957,
          "time": 243.6860465116279,
          "velocity": 0.3700787401574803
        },
        {
          "duration": 0.04651162790699459,
          "durationTicks": 4,
          "midi": 87,
          "name": "D#6",
          "ticks": 20957,
          "time": 243.6860465116279,
          "velocity": 0.10236220472440945
        },
        {
          "duration": 0.0813953488371908,
          "durationTicks": 7,
          "midi": 81,
          "name": "A5",
          "ticks": 20958,
          "time": 243.69767441860466,
          "velocity": 0.08661417322834646
        },
        {
          "duration": 0.1046511627907023,
          "durationTicks": 9,
          "midi": 67,
          "name": "G4",
          "ticks": 20966,
          "time": 243.7906976744186,
          "velocity": 0.4015748031496063
        },
        {
          "duration": 0.1046511627907023,
          "durationTicks": 9,
          "midi": 86,
          "name": "D6",
          "ticks": 20966,
          "time": 243.7906976744186,
          "velocity": 0.23622047244094488
        },
        {
          "duration": 0.023255813953483084,
          "durationTicks": 2,
          "midi": 56,
          "name": "G#3",
          "ticks": 20968,
          "time": 243.8139534883721,
          "velocity": 0.2992125984251969
        },
        {
          "duration": 0.05813953488370771,
          "durationTicks": 5,
          "midi": 43,
          "name": "G2",
          "ticks": 20969,
          "time": 243.82558139534885,
          "velocity": 0.1889763779527559
        },
        {
          "duration": 0.05813953488370771,
          "durationTicks": 5,
          "midi": 57,
          "name": "A3",
          "ticks": 20971,
          "time": 243.84883720930233,
          "velocity": 0.33858267716535434
        },
        {
          "duration": 0.3604651162790731,
          "durationTicks": 31,
          "midi": 62,
          "name": "D4",
          "ticks": 20971,
          "time": 243.84883720930233,
          "velocity": 0.4015748031496063
        },
        {
          "duration": 0.15116279069766847,
          "durationTicks": 13,
          "midi": 66,
          "name": "F#4",
          "ticks": 20975,
          "time": 243.8953488372093,
          "velocity": 0.33070866141732286
        },
        {
          "duration": 0.04651162790699459,
          "durationTicks": 4,
          "midi": 56,
          "name": "G#3",
          "ticks": 20976,
          "time": 243.90697674418604,
          "velocity": 0.41732283464566927
        },
        {
          "duration": 0.38372093023255616,
          "durationTicks": 33,
          "midi": 69,
          "name": "A4",
          "ticks": 20977,
          "time": 243.91860465116278,
          "velocity": 0.23622047244094488
        },
        {
          "duration": 0.11627906976744384,
          "durationTicks": 10,
          "midi": 85,
          "name": "C#6",
          "ticks": 20977,
          "time": 243.91860465116278,
          "velocity": 0.14173228346456693
        },
        {
          "duration": 0.19767441860466306,
          "durationTicks": 17,
          "midi": 88,
          "name": "E6",
          "ticks": 20978,
          "time": 243.93023255813952,
          "velocity": 0.11811023622047244
        },
        {
          "duration": 0.22093023255811772,
          "durationTicks": 19,
          "midi": 50,
          "name": "D3",
          "ticks": 20980,
          "time": 243.95348837209303,
          "velocity": 0.3464566929133858
        },
        {
          "duration": 0.11627906976744384,
          "durationTicks": 10,
          "midi": 57,
          "name": "A3",
          "ticks": 20980,
          "time": 243.95348837209303,
          "velocity": 0.31496062992125984
        },
        {
          "duration": 0.1046511627907023,
          "durationTicks": 9,
          "midi": 65,
          "name": "F4",
          "ticks": 20988,
          "time": 244.04651162790697,
          "velocity": 0.3937007874015748
        },
        {
          "duration": 0.1046511627907023,
          "durationTicks": 9,
          "midi": 84,
          "name": "C6",
          "ticks": 20988,
          "time": 244.04651162790697,
          "velocity": 0.2755905511811024
        },
        {
          "duration": 0.09302325581393234,
          "durationTicks": 8,
          "midi": 57,
          "name": "A3",
          "ticks": 20991,
          "time": 244.08139534883722,
          "velocity": 0.3543307086614173
        },
        {
          "duration": 0.0813953488371908,
          "durationTicks": 7,
          "midi": 76,
          "name": "E5",
          "ticks": 20991,
          "time": 244.08139534883722,
          "velocity": 0.11811023622047244
        },
        {
          "duration": 0.0813953488371908,
          "durationTicks": 7,
          "midi": 78,
          "name": "F#5",
          "ticks": 20992,
          "time": 244.09302325581396,
          "velocity": 0.08661417322834646
        },
        {
          "duration": 0.05813953488373613,
          "durationTicks": 5,
          "midi": 88,
          "name": "E6",
          "ticks": 21000,
          "time": 244.1860465116279,
          "velocity": 0.12598425196850394
        },
        {
          "duration": 0.023255813953483084,
          "durationTicks": 2,
          "midi": 44,
          "name": "G#2",
          "ticks": 21001,
          "time": 244.19767441860466,
          "velocity": 0.29133858267716534
        },
        {
          "duration": 0.10465116279067388,
          "durationTicks": 9,
          "midi": 57,
          "name": "A3",
          "ticks": 21001,
          "time": 244.19767441860466,
          "velocity": 0.47244094488188976
        },
        {
          "duration": 0.11627906976744384,
          "durationTicks": 10,
          "midi": 76,
          "name": "E5",
          "ticks": 21001,
          "time": 244.19767441860466,
          "velocity": 0.2204724409448819
        },
        {
          "duration": 0.023255813953483084,
          "durationTicks": 2,
          "midi": 51,
          "name": "D#3",
          "ticks": 21002,
          "time": 244.2093023255814,
          "velocity": 0.2755905511811024
        },
        {
          "duration": 0.05813953488370771,
          "durationTicks": 5,
          "midi": 83,
          "name": "B5",
          "ticks": 21002,
          "time": 244.2093023255814,
          "velocity": 0.15748031496062992
        },
        {
          "duration": 0.06976744186044925,
          "durationTicks": 6,
          "midi": 102,
          "name": "F#7",
          "ticks": 21002,
          "time": 244.2093023255814,
          "velocity": 0.1732283464566929
        },
        {
          "duration": 0.04651162790696617,
          "durationTicks": 4,
          "midi": 64,
          "name": "E4",
          "ticks": 21003,
          "time": 244.22093023255815,
          "velocity": 0.4015748031496063
        },
        {
          "duration": 0.034883720930224626,
          "durationTicks": 3,
          "midi": 50,
          "name": "D3",
          "ticks": 21006,
          "time": 244.25581395348837,
          "velocity": 0.25984251968503935
        },
        {
          "duration": 0.05813953488373613,
          "durationTicks": 5,
          "midi": 62,
          "name": "D4",
          "ticks": 21008,
          "time": 244.27906976744185,
          "velocity": 0.4251968503937008
        },
        {
          "duration": 0.04651162790699459,
          "durationTicks": 4,
          "midi": 71,
          "name": "B4",
          "ticks": 21010,
          "time": 244.30232558139534,
          "velocity": 0.14960629921259844
        },
        {
          "duration": 0.06976744186044925,
          "durationTicks": 6,
          "midi": 50,
          "name": "D3",
          "ticks": 21011,
          "time": 244.3139534883721,
          "velocity": 0.36220472440944884
        },
        {
          "duration": 0.06976744186044925,
          "durationTicks": 6,
          "midi": 75,
          "name": "D#5",
          "ticks": 21011,
          "time": 244.3139534883721,
          "velocity": 0.2992125984251969
        },
        {
          "duration": 0.05813953488370771,
          "durationTicks": 5,
          "midi": 78,
          "name": "F#5",
          "ticks": 21011,
          "time": 244.3139534883721,
          "velocity": 0.11811023622047244
        },
        {
          "duration": 0.10465116279067388,
          "durationTicks": 9,
          "midi": 81,
          "name": "A5",
          "ticks": 21011,
          "time": 244.3139534883721,
          "velocity": 0.1968503937007874
        },
        {
          "duration": 0.10465116279067388,
          "durationTicks": 9,
          "midi": 88,
          "name": "E6",
          "ticks": 21011,
          "time": 244.3139534883721,
          "velocity": 0.18110236220472442
        },
        {
          "duration": 0.06976744186044925,
          "durationTicks": 6,
          "midi": 91,
          "name": "G6",
          "ticks": 21011,
          "time": 244.3139534883721,
          "velocity": 0.16535433070866143
        },
        {
          "duration": 0.04651162790696617,
          "durationTicks": 4,
          "midi": 63,
          "name": "D#4",
          "ticks": 21013,
          "time": 244.3372093023256,
          "velocity": 0.41732283464566927
        },
        {
          "duration": 0.034883720930224626,
          "durationTicks": 3,
          "midi": 62,
          "name": "D4",
          "ticks": 21017,
          "time": 244.38372093023256,
          "velocity": 0.4015748031496063
        },
        {
          "duration": 0.034883720930224626,
          "durationTicks": 3,
          "midi": 56,
          "name": "G#3",
          "ticks": 21018,
          "time": 244.3953488372093,
          "velocity": 0.31496062992125984
        },
        {
          "duration": 0.04651162790699459,
          "durationTicks": 4,
          "midi": 44,
          "name": "G#2",
          "ticks": 21019,
          "time": 244.40697674418604,
          "velocity": 0.29133858267716534
        },
        {
          "duration": 0.023255813953511506,
          "durationTicks": 2,
          "midi": 60,
          "name": "C4",
          "ticks": 21021,
          "time": 244.43023255813952,
          "velocity": 0.31496062992125984
        },
        {
          "duration": 0.11627906976741542,
          "durationTicks": 10,
          "midi": 74,
          "name": "D5",
          "ticks": 21022,
          "time": 244.4418604651163,
          "velocity": 0.3858267716535433
        },
        {
          "duration": 0.10465116279067388,
          "durationTicks": 9,
          "midi": 81,
          "name": "A5",
          "ticks": 21022,
          "time": 244.4418604651163,
          "velocity": 0.1732283464566929
        },
        {
          "duration": 0.023255813953483084,
          "durationTicks": 2,
          "midi": 61,
          "name": "C#4",
          "ticks": 21023,
          "time": 244.45348837209303,
          "velocity": 0.4251968503937008
        },
        {
          "duration": 0.09302325581393234,
          "durationTicks": 8,
          "midi": 56,
          "name": "G#3",
          "ticks": 21024,
          "time": 244.46511627906978,
          "velocity": 0.4251968503937008
        },
        {
          "duration": 0.06976744186044925,
          "durationTicks": 6,
          "midi": 62,
          "name": "D4",
          "ticks": 21025,
          "time": 244.47674418604652,
          "velocity": 0.4015748031496063
        },
        {
          "duration": 0.04651162790699459,
          "durationTicks": 4,
          "midi": 55,
          "name": "G3",
          "ticks": 21032,
          "time": 244.5581395348837,
          "velocity": 0.4645669291338583
        },
        {
          "duration": 0.51162790697677,
          "durationTicks": 44,
          "midi": 73,
          "name": "C#5",
          "ticks": 21032,
          "time": 244.5581395348837,
          "velocity": 0.3543307086614173
        },
        {
          "duration": 0.26744186046514073,
          "durationTicks": 23,
          "midi": 75,
          "name": "D#5",
          "ticks": 21032,
          "time": 244.5581395348837,
          "velocity": 0.1968503937007874
        },
        {
          "duration": 0.06976744186047767,
          "durationTicks": 6,
          "midi": 77,
          "name": "F5",
          "ticks": 21032,
          "time": 244.5581395348837,
          "velocity": 0.10236220472440945
        },
        {
          "duration": 0.034883720930224626,
          "durationTicks": 3,
          "midi": 71,
          "name": "B4",
          "ticks": 21033,
          "time": 244.56976744186048,
          "velocity": 0.11023622047244094
        },
        {
          "duration": 0.023255813953483084,
          "durationTicks": 2,
          "midi": 49,
          "name": "C#3",
          "ticks": 21034,
          "time": 244.58139534883722,
          "velocity": 0.33858267716535434
        },
        {
          "duration": 0.0813953488371908,
          "durationTicks": 7,
          "midi": 80,
          "name": "G#5",
          "ticks": 21034,
          "time": 244.58139534883722,
          "velocity": 0.11811023622047244
        },
        {
          "duration": 0.05813953488370771,
          "durationTicks": 5,
          "midi": 97,
          "name": "C#7",
          "ticks": 21034,
          "time": 244.58139534883722,
          "velocity": 0.10236220472440945
        },
        {
          "duration": 0.0813953488371908,
          "durationTicks": 7,
          "midi": 61,
          "name": "C#4",
          "ticks": 21035,
          "time": 244.59302325581396,
          "velocity": 0.41732283464566927
        },
        {
          "duration": 0.05813953488370771,
          "durationTicks": 5,
          "midi": 95,
          "name": "B6",
          "ticks": 21035,
          "time": 244.59302325581396,
          "velocity": 0.12598425196850394
        },
        {
          "duration": 0.2093023255814046,
          "durationTicks": 18,
          "midi": 56,
          "name": "G#3",
          "ticks": 21036,
          "time": 244.6046511627907,
          "velocity": 0.4251968503937008
        },
        {
          "duration": 0.034883720930224626,
          "durationTicks": 3,
          "midi": 49,
          "name": "C#3",
          "ticks": 21038,
          "time": 244.62790697674419,
          "velocity": 0.3464566929133858
        },
        {
          "duration": 0.04651162790699459,
          "durationTicks": 4,
          "midi": 61,
          "name": "C#4",
          "ticks": 21043,
          "time": 244.6860465116279,
          "velocity": 0.4566929133858268
        },
        {
          "duration": 0.023255813953483084,
          "durationTicks": 2,
          "midi": 62,
          "name": "D4",
          "ticks": 21047,
          "time": 244.7325581395349,
          "velocity": 0.33070866141732286
        },
        {
          "duration": 0.023255813953483084,
          "durationTicks": 2,
          "midi": 44,
          "name": "G#2",
          "ticks": 21048,
          "time": 244.74418604651163,
          "velocity": 0.36220472440944884
        },
        {
          "duration": 0.13953488372092693,
          "durationTicks": 12,
          "midi": 92,
          "name": "G#6",
          "ticks": 21048,
          "time": 244.74418604651163,
          "velocity": 0.10236220472440945
        },
        {
          "duration": 0.05813953488370771,
          "durationTicks": 5,
          "midi": 97,
          "name": "C#7",
          "ticks": 21048,
          "time": 244.74418604651163,
          "velocity": 0.07086614173228346
        },
        {
          "duration": 0.05813953488370771,
          "durationTicks": 5,
          "midi": 103,
          "name": "G7",
          "ticks": 21048,
          "time": 244.74418604651163,
          "velocity": 0.11023622047244094
        },
        {
          "duration": 0.15116279069766847,
          "durationTicks": 13,
          "midi": 61,
          "name": "C#4",
          "ticks": 21049,
          "time": 244.75581395348837,
          "velocity": 0.41732283464566927
        },
        {
          "duration": 0.023255813953483084,
          "durationTicks": 2,
          "midi": 45,
          "name": "A2",
          "ticks": 21055,
          "time": 244.82558139534885,
          "velocity": 0.3779527559055118
        },
        {
          "duration": 0.023255813953483084,
          "durationTicks": 2,
          "midi": 55,
          "name": "G3",
          "ticks": 21056,
          "time": 244.8372093023256,
          "velocity": 0.44881889763779526
        },
        {
          "duration": 0.20930232558137618,
          "durationTicks": 18,
          "midi": 87,
          "name": "D#6",
          "ticks": 21057,
          "time": 244.84883720930233,
          "velocity": 0.11811023622047244
        },
        {
          "duration": 0.2093023255814046,
          "durationTicks": 18,
          "midi": 56,
          "name": "G#3",
          "ticks": 21058,
          "time": 244.86046511627907,
          "velocity": 0.41732283464566927
        },
        {
          "duration": 0.034883720930224626,
          "durationTicks": 3,
          "midi": 44,
          "name": "G#2",
          "ticks": 21059,
          "time": 244.87209302325581,
          "velocity": 0.36220472440944884
        },
        {
          "duration": 0.023255813953483084,
          "durationTicks": 2,
          "midi": 62,
          "name": "D4",
          "ticks": 21062,
          "time": 244.90697674418604,
          "velocity": 0.28346456692913385
        },
        {
          "duration": 0.05813953488373613,
          "durationTicks": 5,
          "midi": 44,
          "name": "G#2",
          "ticks": 21063,
          "time": 244.91860465116278,
          "velocity": 0.3700787401574803
        },
        {
          "duration": 0.04651162790699459,
          "durationTicks": 4,
          "midi": 89,
          "name": "F6",
          "ticks": 21063,
          "time": 244.91860465116278,
          "velocity": 0.11023622047244094
        },
        {
          "duration": 0.05813953488373613,
          "durationTicks": 5,
          "midi": 61,
          "name": "C#4",
          "ticks": 21064,
          "time": 244.93023255813952,
          "velocity": 0.3228346456692913
        },
        {
          "duration": 0.023255813953483084,
          "durationTicks": 2,
          "midi": 44,
          "name": "G#2",
          "ticks": 21069,
          "time": 244.98837209302326,
          "velocity": 0.4094488188976378
        },
        {
          "duration": 0.1046511627907023,
          "durationTicks": 9,
          "midi": 61,
          "name": "C#4",
          "ticks": 21070,
          "time": 245,
          "velocity": 0.41732283464566927
        },
        {
          "duration": 0.05813953488373613,
          "durationTicks": 5,
          "midi": 89,
          "name": "F6",
          "ticks": 21071,
          "time": 245.01162790697674,
          "velocity": 0.07086614173228346
        },
        {
          "duration": 0.05813953488373613,
          "durationTicks": 5,
          "midi": 44,
          "name": "G#2",
          "ticks": 21072,
          "time": 245.02325581395348,
          "velocity": 0.3779527559055118
        },
        {
          "duration": 0.023255813953483084,
          "durationTicks": 2,
          "midi": 57,
          "name": "A3",
          "ticks": 21076,
          "time": 245.06976744186048,
          "velocity": 0.3228346456692913
        },
        {
          "duration": 0.023255813953483084,
          "durationTicks": 2,
          "midi": 55,
          "name": "G3",
          "ticks": 21078,
          "time": 245.09302325581396,
          "velocity": 0.31496062992125984
        },
        {
          "duration": 0.023255813953483084,
          "durationTicks": 2,
          "midi": 62,
          "name": "D4",
          "ticks": 21079,
          "time": 245.1046511627907,
          "velocity": 0.33070866141732286
        },
        {
          "duration": 0.034883720930224626,
          "durationTicks": 3,
          "midi": 43,
          "name": "G2",
          "ticks": 21080,
          "time": 245.11627906976744,
          "velocity": 0.25984251968503935
        },
        {
          "duration": 0.05813953488370771,
          "durationTicks": 5,
          "midi": 56,
          "name": "G#3",
          "ticks": 21080,
          "time": 245.11627906976744,
          "velocity": 0.25196850393700787
        },
        {
          "duration": 0.2093023255814046,
          "durationTicks": 18,
          "midi": 73,
          "name": "C#5",
          "ticks": 21080,
          "time": 245.11627906976744,
          "velocity": 0.29133858267716534
        },
        {
          "duration": 0.034883720930224626,
          "durationTicks": 3,
          "midi": 89,
          "name": "F6",
          "ticks": 21080,
          "time": 245.11627906976744,
          "velocity": 0.07086614173228346
        },
        {
          "duration": 0.034883720930224626,
          "durationTicks": 3,
          "midi": 61,
          "name": "C#4",
          "ticks": 21081,
          "time": 245.12790697674419,
          "velocity": 0.33858267716535434
        },
        {
          "duration": 0.023255813953483084,
          "durationTicks": 2,
          "midi": 49,
          "name": "C#3",
          "ticks": 21084,
          "time": 245.1627906976744,
          "velocity": 0.2677165354330709
        },
        {
          "duration": 0.023255813953511506,
          "durationTicks": 2,
          "midi": 56,
          "name": "G#3",
          "ticks": 21086,
          "time": 245.1860465116279,
          "velocity": 0.36220472440944884
        },
        {
          "duration": 0.1511627906976969,
          "durationTicks": 13,
          "midi": 61,
          "name": "C#4",
          "ticks": 21086,
          "time": 245.1860465116279,
          "velocity": 0.5118110236220472
        },
        {
          "duration": 0.023255813953483084,
          "durationTicks": 2,
          "midi": 49,
          "name": "C#3",
          "ticks": 21087,
          "time": 245.19767441860466,
          "velocity": 0.33070866141732286
        },
        {
          "duration": 0.05813953488370771,
          "durationTicks": 5,
          "midi": 87,
          "name": "D#6",
          "ticks": 21088,
          "time": 245.2093023255814,
          "velocity": 0.18110236220472442
        },
        {
          "duration": 0.0813953488371908,
          "durationTicks": 7,
          "midi": 89,
          "name": "F6",
          "ticks": 21088,
          "time": 245.2093023255814,
          "velocity": 0.1732283464566929
        },
        {
          "duration": 0.034883720930224626,
          "durationTicks": 3,
          "midi": 92,
          "name": "G#6",
          "ticks": 21089,
          "time": 245.22093023255815,
          "velocity": 0.07874015748031496
        },
        {
          "duration": 0.11627906976744384,
          "durationTicks": 10,
          "midi": 56,
          "name": "G#3",
          "ticks": 21090,
          "time": 245.2325581395349,
          "velocity": 0.4251968503937008
        },
        {
          "duration": 0.09302325581396076,
          "durationTicks": 8,
          "midi": 75,
          "name": "D#5",
          "ticks": 21090,
          "time": 245.2325581395349,
          "velocity": 0.14960629921259844
        },
        {
          "duration": 0.034883720930224626,
          "durationTicks": 3,
          "midi": 44,
          "name": "G#2",
          "ticks": 21091,
          "time": 245.24418604651163,
          "velocity": 0.30708661417322836
        },
        {
          "duration": 0.023255813953511506,
          "durationTicks": 2,
          "midi": 44,
          "name": "G#2",
          "ticks": 21095,
          "time": 245.2906976744186,
          "velocity": 0.2283464566929134
        },
        {
          "duration": 0.27906976744185386,
          "durationTicks": 24,
          "midi": 74,
          "name": "D5",
          "ticks": 21098,
          "time": 245.32558139534885,
          "velocity": 0.4251968503937008
        },
        {
          "duration": 0.023255813953483084,
          "durationTicks": 2,
          "midi": 55,
          "name": "G3",
          "ticks": 21100,
          "time": 245.34883720930233,
          "velocity": 0.25196850393700787
        },
        {
          "duration": 0.023255813953483084,
          "durationTicks": 2,
          "midi": 61,
          "name": "C#4",
          "ticks": 21100,
          "time": 245.34883720930233,
          "velocity": 0.4330708661417323
        },
        {
          "duration": 0.034883720930224626,
          "durationTicks": 3,
          "midi": 96,
          "name": "C7",
          "ticks": 21100,
          "time": 245.34883720930233,
          "velocity": 0.25984251968503935
        },
        {
          "duration": 0.0813953488371908,
          "durationTicks": 7,
          "midi": 102,
          "name": "F#7",
          "ticks": 21100,
          "time": 245.34883720930233,
          "velocity": 0.12598425196850394
        },
        {
          "duration": 0.17441860465115155,
          "durationTicks": 15,
          "midi": 81,
          "name": "A5",
          "ticks": 21101,
          "time": 245.36046511627907,
          "velocity": 0.16535433070866143
        },
        {
          "duration": 0.034883720930224626,
          "durationTicks": 3,
          "midi": 42,
          "name": "F#2",
          "ticks": 21102,
          "time": 245.37209302325581,
          "velocity": 0.30708661417322836
        },
        {
          "duration": 0.06976744186047767,
          "durationTicks": 6,
          "midi": 62,
          "name": "D4",
          "ticks": 21102,
          "time": 245.37209302325581,
          "velocity": 0.4094488188976378
        },
        {
          "duration": 0.05813953488373613,
          "durationTicks": 5,
          "midi": 56,
          "name": "G#3",
          "ticks": 21105,
          "time": 245.40697674418604,
          "velocity": 0.2440944881889764
        },
        {
          "duration": 0.0813953488371908,
          "durationTicks": 7,
          "midi": 102,
          "name": "F#7",
          "ticks": 21109,
          "time": 245.45348837209303,
          "velocity": 0.15748031496062992
        },
        {
          "duration": 0.13953488372092693,
          "durationTicks": 12,
          "midi": 58,
          "name": "A#3",
          "ticks": 21111,
          "time": 245.47674418604652,
          "velocity": 0.4015748031496063
        },
        {
          "duration": 0.0813953488371908,
          "durationTicks": 7,
          "midi": 63,
          "name": "D#4",
          "ticks": 21111,
          "time": 245.47674418604652,
          "velocity": 0.4409448818897638
        },
        {
          "duration": 0.09302325581396076,
          "durationTicks": 8,
          "midi": 87,
          "name": "D#6",
          "ticks": 21111,
          "time": 245.47674418604652,
          "velocity": 0.1732283464566929
        },
        {
          "duration": 0.023255813953483084,
          "durationTicks": 2,
          "midi": 45,
          "name": "A2",
          "ticks": 21114,
          "time": 245.51162790697674,
          "velocity": 0.3700787401574803
        },
        {
          "duration": 0.03488372093025305,
          "durationTicks": 3,
          "midi": 51,
          "name": "D#3",
          "ticks": 21116,
          "time": 245.53488372093022,
          "velocity": 0.3700787401574803
        },
        {
          "duration": 0.023255813953511506,
          "durationTicks": 2,
          "midi": 46,
          "name": "A#2",
          "ticks": 21118,
          "time": 245.5581395348837,
          "velocity": 0.2992125984251969
        },
        {
          "duration": 0.03488372093025305,
          "durationTicks": 3,
          "midi": 62,
          "name": "D4",
          "ticks": 21118,
          "time": 245.5581395348837,
          "velocity": 0.48031496062992124
        },
        {
          "duration": 0.04651162790699459,
          "durationTicks": 4,
          "midi": 81,
          "name": "A5",
          "ticks": 21118,
          "time": 245.5581395348837,
          "velocity": 0.15748031496062992
        },
        {
          "duration": 0.03488372093025305,
          "durationTicks": 3,
          "midi": 102,
          "name": "F#7",
          "ticks": 21118,
          "time": 245.5581395348837,
          "velocity": 0.11023622047244094
        },
        {
          "duration": 0.034883720930224626,
          "durationTicks": 3,
          "midi": 51,
          "name": "D#3",
          "ticks": 21120,
          "time": 245.58139534883722,
          "velocity": 0.3228346456692913
        },
        {
          "duration": 0.034883720930224626,
          "durationTicks": 3,
          "midi": 62,
          "name": "D4",
          "ticks": 21122,
          "time": 245.6046511627907,
          "velocity": 0.4251968503937008
        },
        {
          "duration": 0.27906976744185386,
          "durationTicks": 24,
          "midi": 75,
          "name": "D#5",
          "ticks": 21122,
          "time": 245.6046511627907,
          "velocity": 0.4330708661417323
        },
        {
          "duration": 0.034883720930224626,
          "durationTicks": 3,
          "midi": 45,
          "name": "A2",
          "ticks": 21124,
          "time": 245.62790697674419,
          "velocity": 0.33070866141732286
        },
        {
          "duration": 0.023255813953483084,
          "durationTicks": 2,
          "midi": 71,
          "name": "B4",
          "ticks": 21124,
          "time": 245.62790697674419,
          "velocity": 0.2283464566929134
        },
        {
          "duration": 0.023255813953483084,
          "durationTicks": 2,
          "midi": 55,
          "name": "G3",
          "ticks": 21125,
          "time": 245.63953488372093,
          "velocity": 0.2677165354330709
        },
        {
          "duration": 0.22093023255814614,
          "durationTicks": 19,
          "midi": 63,
          "name": "D#4",
          "ticks": 21125,
          "time": 245.63953488372093,
          "velocity": 0.5118110236220472
        },
        {
          "duration": 0.22093023255814614,
          "durationTicks": 19,
          "midi": 82,
          "name": "A#5",
          "ticks": 21125,
          "time": 245.63953488372093,
          "velocity": 0.1968503937007874
        },
        {
          "duration": 0.2325581395348877,
          "durationTicks": 20,
          "midi": 91,
          "name": "G6",
          "ticks": 21125,
          "time": 245.63953488372093,
          "velocity": 0.25196850393700787
        },
        {
          "duration": 0.08139534883721922,
          "durationTicks": 7,
          "midi": 97,
          "name": "C#7",
          "ticks": 21126,
          "time": 245.65116279069767,
          "velocity": 0.14173228346456693
        },
        {
          "duration": 0.05813953488373613,
          "durationTicks": 5,
          "midi": 52,
          "name": "E3",
          "ticks": 21128,
          "time": 245.67441860465115,
          "velocity": 0.07874015748031496
        },
        {
          "duration": 0.034883720930224626,
          "durationTicks": 3,
          "midi": 78,
          "name": "F#5",
          "ticks": 21133,
          "time": 245.7325581395349,
          "velocity": 0.13385826771653545
        },
        {
          "duration": 0.13953488372092693,
          "durationTicks": 12,
          "midi": 70,
          "name": "A#4",
          "ticks": 21135,
          "time": 245.75581395348837,
          "velocity": 0.1732283464566929
        },
        {
          "duration": 0.023255813953483084,
          "durationTicks": 2,
          "midi": 46,
          "name": "A#2",
          "ticks": 21136,
          "time": 245.7674418604651,
          "velocity": 0.25196850393700787
        },
        {
          "duration": 0.12790697674418539,
          "durationTicks": 11,
          "midi": 58,
          "name": "A#3",
          "ticks": 21136,
          "time": 245.7674418604651,
          "velocity": 0.3543307086614173
        },
        {
          "duration": 0.12790697674418539,
          "durationTicks": 11,
          "midi": 51,
          "name": "D#3",
          "ticks": 21137,
          "time": 245.77906976744185,
          "velocity": 0.3700787401574803
        },
        {
          "duration": 0.05813953488370771,
          "durationTicks": 5,
          "midi": 83,
          "name": "B5",
          "ticks": 21143,
          "time": 245.84883720930233,
          "velocity": 0.13385826771653545
        },
        {
          "duration": 0.034883720930224626,
          "durationTicks": 3,
          "midi": 64,
          "name": "E4",
          "ticks": 21144,
          "time": 245.86046511627907,
          "velocity": 0.48031496062992124
        },
        {
          "duration": 0.034883720930224626,
          "durationTicks": 3,
          "midi": 92,
          "name": "G#6",
          "ticks": 21145,
          "time": 245.87209302325581,
          "velocity": 0.07086614173228346
        },
        {
          "duration": 0.13953488372092693,
          "durationTicks": 12,
          "midi": 63,
          "name": "D#4",
          "ticks": 21147,
          "time": 245.8953488372093,
          "velocity": 0.4881889763779528
        },
        {
          "duration": 0.023255813953483084,
          "durationTicks": 2,
          "midi": 45,
          "name": "A2",
          "ticks": 21148,
          "time": 245.90697674418604,
          "velocity": 0.3228346456692913
        },
        {
          "duration": 0.1046511627907023,
          "durationTicks": 9,
          "midi": 82,
          "name": "A#5",
          "ticks": 21148,
          "time": 245.90697674418604,
          "velocity": 0.13385826771653545
        },
        {
          "duration": 0.13953488372092693,
          "durationTicks": 12,
          "midi": 91,
          "name": "G6",
          "ticks": 21149,
          "time": 245.91860465116278,
          "velocity": 0.2283464566929134
        },
        {
          "duration": 0.06976744186044925,
          "durationTicks": 6,
          "midi": 97,
          "name": "C#7",
          "ticks": 21151,
          "time": 245.9418604651163,
          "velocity": 0.07086614173228346
        },
        {
          "duration": 0.04651162790696617,
          "durationTicks": 4,
          "midi": 58,
          "name": "A#3",
          "ticks": 21152,
          "time": 245.95348837209303,
          "velocity": 0.10236220472440945
        },
        {
          "duration": 0.023255813953483084,
          "durationTicks": 2,
          "midi": 47,
          "name": "B2",
          "ticks": 21157,
          "time": 246.01162790697674,
          "velocity": 0.36220472440944884
        },
        {
          "duration": 0.1046511627907023,
          "durationTicks": 9,
          "midi": 70,
          "name": "A#4",
          "ticks": 21158,
          "time": 246.02325581395348,
          "velocity": 0.2755905511811024
        },
        {
          "duration": 0.08139534883721922,
          "durationTicks": 7,
          "midi": 79,
          "name": "G5",
          "ticks": 21158,
          "time": 246.02325581395348,
          "velocity": 0.14173228346456693
        },
        {
          "duration": 0.03488372093025305,
          "durationTicks": 3,
          "midi": 64,
          "name": "E4",
          "ticks": 21159,
          "time": 246.03488372093022,
          "velocity": 0.3858267716535433
        },
        {
          "duration": 0.04651162790699459,
          "durationTicks": 4,
          "midi": 86,
          "name": "D6",
          "ticks": 21159,
          "time": 246.03488372093022,
          "velocity": 0.14173228346456693
        },
        {
          "duration": 0.05813953488373613,
          "durationTicks": 5,
          "midi": 92,
          "name": "G#6",
          "ticks": 21159,
          "time": 246.03488372093022,
          "velocity": 0.13385826771653545
        },
        {
          "duration": 0.09302325581396076,
          "durationTicks": 8,
          "midi": 51,
          "name": "D#3",
          "ticks": 21160,
          "time": 246.04651162790697,
          "velocity": 0.44881889763779526
        },
        {
          "duration": 0.06976744186047767,
          "durationTicks": 6,
          "midi": 58,
          "name": "A#3",
          "ticks": 21161,
          "time": 246.0581395348837,
          "velocity": 0.2440944881889764
        },
        {
          "duration": 0.15116279069766847,
          "durationTicks": 13,
          "midi": 63,
          "name": "D#4",
          "ticks": 21162,
          "time": 246.06976744186048,
          "velocity": 0.48031496062992124
        },
        {
          "duration": 0.2325581395348877,
          "durationTicks": 20,
          "midi": 51,
          "name": "D#3",
          "ticks": 21169,
          "time": 246.15116279069767,
          "velocity": 0.4094488188976378
        },
        {
          "duration": 0.2325581395348877,
          "durationTicks": 20,
          "midi": 58,
          "name": "A#3",
          "ticks": 21169,
          "time": 246.15116279069767,
          "velocity": 0.3779527559055118
        },
        {
          "duration": 0.17441860465115155,
          "durationTicks": 15,
          "midi": 77,
          "name": "F5",
          "ticks": 21174,
          "time": 246.2093023255814,
          "velocity": 0.16535433070866143
        },
        {
          "duration": 0.1046511627907023,
          "durationTicks": 9,
          "midi": 83,
          "name": "B5",
          "ticks": 21174,
          "time": 246.2093023255814,
          "velocity": 0.18110236220472442
        },
        {
          "duration": 0.0813953488371908,
          "durationTicks": 7,
          "midi": 64,
          "name": "E4",
          "ticks": 21175,
          "time": 246.22093023255815,
          "velocity": 0.44881889763779526
        },
        {
          "duration": 0.06976744186047767,
          "durationTicks": 6,
          "midi": 63,
          "name": "D#4",
          "ticks": 21182,
          "time": 246.30232558139534,
          "velocity": 0.4566929133858268
        },
        {
          "duration": 0.023255813953483084,
          "durationTicks": 2,
          "midi": 61,
          "name": "C#4",
          "ticks": 21189,
          "time": 246.38372093023256,
          "velocity": 0.3937007874015748
        },
        {
          "duration": 0.034883720930224626,
          "durationTicks": 3,
          "midi": 76,
          "name": "E5",
          "ticks": 21189,
          "time": 246.38372093023256,
          "velocity": 0.14173228346456693
        },
        {
          "duration": 0.06976744186047767,
          "durationTicks": 6,
          "midi": 69,
          "name": "A4",
          "ticks": 21190,
          "time": 246.3953488372093,
          "velocity": 0.11811023622047244
        },
        {
          "duration": 0.034883720930224626,
          "durationTicks": 3,
          "midi": 74,
          "name": "D5",
          "ticks": 21190,
          "time": 246.3953488372093,
          "velocity": 0.29133858267716534
        },
        {
          "duration": 0.023255813953483084,
          "durationTicks": 2,
          "midi": 50,
          "name": "D3",
          "ticks": 21191,
          "time": 246.40697674418604,
          "velocity": 0.3228346456692913
        },
        {
          "duration": 0.023255813953483084,
          "durationTicks": 2,
          "midi": 57,
          "name": "A3",
          "ticks": 21191,
          "time": 246.40697674418604,
          "velocity": 0.3700787401574803
        },
        {
          "duration": 0.023255813953483084,
          "durationTicks": 2,
          "midi": 62,
          "name": "D4",
          "ticks": 21191,
          "time": 246.40697674418604,
          "velocity": 0.33070866141732286
        },
        {
          "duration": 0.03488372093025305,
          "durationTicks": 3,
          "midi": 45,
          "name": "A2",
          "ticks": 21192,
          "time": 246.41860465116278,
          "velocity": 0.31496062992125984
        },
        {
          "duration": 0.03488372093025305,
          "durationTicks": 3,
          "midi": 56,
          "name": "G#3",
          "ticks": 21193,
          "time": 246.43023255813952,
          "velocity": 0.5039370078740157
        },
        {
          "duration": 0.023255813953483084,
          "durationTicks": 2,
          "midi": 44,
          "name": "G#2",
          "ticks": 21195,
          "time": 246.45348837209303,
          "velocity": 0.33858267716535434
        },
        {
          "duration": 0.034883720930224626,
          "durationTicks": 3,
          "midi": 55,
          "name": "G3",
          "ticks": 21196,
          "time": 246.46511627906978,
          "velocity": 0.4881889763779528
        },
        {
          "duration": 0.034883720930224626,
          "durationTicks": 3,
          "midi": 66,
          "name": "F#4",
          "ticks": 21198,
          "time": 246.48837209302326,
          "velocity": 0.16535433070866143
        },
        {
          "duration": 0.034883720930224626,
          "durationTicks": 3,
          "midi": 61,
          "name": "C#4",
          "ticks": 21199,
          "time": 246.5,
          "velocity": 0.12598425196850394
        },
        {
          "duration": 0.05813953488373613,
          "durationTicks": 5,
          "midi": 53,
          "name": "F3",
          "ticks": 21202,
          "time": 246.53488372093022,
          "velocity": 0.3937007874015748
        },
        {
          "duration": 0.03488372093025305,
          "durationTicks": 3,
          "midi": 60,
          "name": "C4",
          "ticks": 21202,
          "time": 246.53488372093022,
          "velocity": 0.2204724409448819
        },
        {
          "duration": 0.04651162790699459,
          "durationTicks": 4,
          "midi": 75,
          "name": "D#5",
          "ticks": 21202,
          "time": 246.53488372093022,
          "velocity": 0.15748031496062992
        },
        {
          "duration": 0.04651162790696617,
          "durationTicks": 4,
          "midi": 58,
          "name": "A#3",
          "ticks": 21205,
          "time": 246.56976744186048,
          "velocity": 0.36220472440944884
        },
        {
          "duration": 0.82558139534882,
          "durationTicks": 71,
          "midi": 77,
          "name": "F5",
          "ticks": 21205,
          "time": 246.56976744186048,
          "velocity": 0.2677165354330709
        },
        {
          "duration": 0.034883720930224626,
          "durationTicks": 3,
          "midi": 88,
          "name": "E6",
          "ticks": 21205,
          "time": 246.56976744186048,
          "velocity": 0.07874015748031496
        },
        {
          "duration": 0.034883720930224626,
          "durationTicks": 3,
          "midi": 101,
          "name": "F7",
          "ticks": 21205,
          "time": 246.56976744186048,
          "velocity": 0.07086614173228346
        },
        {
          "duration": 0.06976744186044925,
          "durationTicks": 6,
          "midi": 74,
          "name": "D5",
          "ticks": 21206,
          "time": 246.58139534883722,
          "velocity": 0.14173228346456693
        },
        {
          "duration": 0.023255813953483084,
          "durationTicks": 2,
          "midi": 51,
          "name": "D#3",
          "ticks": 21207,
          "time": 246.59302325581396,
          "velocity": 0.3464566929133858
        },
        {
          "duration": 0.6046511627907023,
          "durationTicks": 52,
          "midi": 53,
          "name": "F3",
          "ticks": 21209,
          "time": 246.61627906976744,
          "velocity": 0.4015748031496063
        },
        {
          "duration": 0.13953488372092693,
          "durationTicks": 12,
          "midi": 70,
          "name": "A#4",
          "ticks": 21209,
          "time": 246.61627906976744,
          "velocity": 0.2125984251968504
        },
        {
          "duration": 0.27906976744185386,
          "durationTicks": 24,
          "midi": 58,
          "name": "A#3",
          "ticks": 21210,
          "time": 246.62790697674419,
          "velocity": 0.47244094488188976
        },
        {
          "duration": 0.08139534883721922,
          "durationTicks": 7,
          "midi": 72,
          "name": "C5",
          "ticks": 21210,
          "time": 246.62790697674419,
          "velocity": 0.16535433070866143
        },
        {
          "duration": 0.34883720930233153,
          "durationTicks": 30,
          "midi": 84,
          "name": "C6",
          "ticks": 21211,
          "time": 246.63953488372093,
          "velocity": 0.3228346456692913
        },
        {
          "duration": 0.2093023255814046,
          "durationTicks": 18,
          "midi": 79,
          "name": "G5",
          "ticks": 21212,
          "time": 246.65116279069767,
          "velocity": 0.14960629921259844
        },
        {
          "duration": 0.5581395348837361,
          "durationTicks": 48,
          "midi": 86,
          "name": "D6",
          "ticks": 21212,
          "time": 246.65116279069767,
          "velocity": 0.25196850393700787
        },
        {
          "duration": 0.2093023255814046,
          "durationTicks": 18,
          "midi": 101,
          "name": "F7",
          "ticks": 21212,
          "time": 246.65116279069767,
          "velocity": 0.11811023622047244
        },
        {
          "duration": 0.023255813953483084,
          "durationTicks": 2,
          "midi": 45,
          "name": "A2",
          "ticks": 21213,
          "time": 246.6627906976744,
          "velocity": 0.41732283464566927
        },
        {
          "duration": 0.5116279069767415,
          "durationTicks": 44,
          "midi": 74,
          "name": "D5",
          "ticks": 21214,
          "time": 246.67441860465115,
          "velocity": 0.2755905511811024
        },
        {
          "duration": 0.023255813953511506,
          "durationTicks": 2,
          "midi": 46,
          "name": "A#2",
          "ticks": 21215,
          "time": 246.6860465116279,
          "velocity": 0.4094488188976378
        },
        {
          "duration": 0.023255813953483084,
          "durationTicks": 2,
          "midi": 46,
          "name": "A#2",
          "ticks": 21221,
          "time": 246.75581395348837,
          "velocity": 0.3779527559055118
        },
        {
          "duration": 0.023255813953511506,
          "durationTicks": 2,
          "midi": 46,
          "name": "A#2",
          "ticks": 21224,
          "time": 246.7906976744186,
          "velocity": 0.3700787401574803
        },
        {
          "duration": 0.023255813953483084,
          "durationTicks": 2,
          "midi": 46,
          "name": "A#2",
          "ticks": 21227,
          "time": 246.82558139534885,
          "velocity": 0.36220472440944884
        },
        {
          "duration": 0.32558139534882,
          "durationTicks": 28,
          "midi": 72,
          "name": "C5",
          "ticks": 21229,
          "time": 246.84883720930233,
          "velocity": 0.23622047244094488
        },
        {
          "duration": 0.023255813953483084,
          "durationTicks": 2,
          "midi": 46,
          "name": "A#2",
          "ticks": 21230,
          "time": 246.86046511627907,
          "velocity": 0.36220472440944884
        },
        {
          "duration": 0.023255813953483084,
          "durationTicks": 2,
          "midi": 45,
          "name": "A2",
          "ticks": 21234,
          "time": 246.90697674418604,
          "velocity": 0.33858267716535434
        },
        {
          "duration": 0.17441860465117998,
          "durationTicks": 15,
          "midi": 60,
          "name": "C4",
          "ticks": 21234,
          "time": 246.90697674418604,
          "velocity": 0.25196850393700787
        },
        {
          "duration": 0.023255813953483084,
          "durationTicks": 2,
          "midi": 46,
          "name": "A#2",
          "ticks": 21238,
          "time": 246.95348837209303,
          "velocity": 0.2677165354330709
        },
        {
          "duration": 0.023255813953483084,
          "durationTicks": 2,
          "midi": 46,
          "name": "A#2",
          "ticks": 21250,
          "time": 247.09302325581396,
          "velocity": 0.3228346456692913
        },
        {
          "duration": 0.023255813953483084,
          "durationTicks": 2,
          "midi": 60,
          "name": "C4",
          "ticks": 21250,
          "time": 247.09302325581396,
          "velocity": 0.25984251968503935
        },
        {
          "duration": 0.2906976744185954,
          "durationTicks": 25,
          "midi": 84,
          "name": "C6",
          "ticks": 21252,
          "time": 247.11627906976744,
          "velocity": 0.2755905511811024
        },
        {
          "duration": 0.023255813953483084,
          "durationTicks": 2,
          "midi": 46,
          "name": "A#2",
          "ticks": 21253,
          "time": 247.12790697674419,
          "velocity": 0.31496062992125984
        },
        {
          "duration": 0.023255813953483084,
          "durationTicks": 2,
          "midi": 46,
          "name": "A#2",
          "ticks": 21256,
          "time": 247.1627906976744,
          "velocity": 0.28346456692913385
        },
        {
          "duration": 0.05813953488373613,
          "durationTicks": 5,
          "midi": 60,
          "name": "C4",
          "ticks": 21256,
          "time": 247.1627906976744,
          "velocity": 0.2440944881889764
        },
        {
          "duration": 0.023255813953511506,
          "durationTicks": 2,
          "midi": 70,
          "name": "A#4",
          "ticks": 21257,
          "time": 247.17441860465115,
          "velocity": 0.4409448818897638
        },
        {
          "duration": 0.023255813953511506,
          "durationTicks": 2,
          "midi": 75,
          "name": "D#5",
          "ticks": 21258,
          "time": 247.1860465116279,
          "velocity": 0.29133858267716534
        },
        {
          "duration": 0.06976744186044925,
          "durationTicks": 6,
          "midi": 46,
          "name": "A#2",
          "ticks": 21259,
          "time": 247.19767441860466,
          "velocity": 0.3464566929133858
        },
        {
          "duration": 0.034883720930224626,
          "durationTicks": 3,
          "midi": 71,
          "name": "B4",
          "ticks": 21259,
          "time": 247.19767441860466,
          "velocity": 0.4094488188976378
        },
        {
          "duration": 0.40697674418603924,
          "durationTicks": 35,
          "midi": 74,
          "name": "D5",
          "ticks": 21260,
          "time": 247.2093023255814,
          "velocity": 0.2047244094488189
        },
        {
          "duration": 0.2093023255814046,
          "durationTicks": 18,
          "midi": 72,
          "name": "C5",
          "ticks": 21262,
          "time": 247.2325581395349,
          "velocity": 0.2283464566929134
        },
        {
          "duration": 0.03488372093025305,
          "durationTicks": 3,
          "midi": 46,
          "name": "A#2",
          "ticks": 21266,
          "time": 247.27906976744185,
          "velocity": 0.36220472440944884
        },
        {
          "duration": 0.09302325581396076,
          "durationTicks": 8,
          "midi": 53,
          "name": "F3",
          "ticks": 21272,
          "time": 247.34883720930233,
          "velocity": 0.11023622047244094
        },
        {
          "duration": 0.04651162790696617,
          "durationTicks": 4,
          "midi": 58,
          "name": "A#3",
          "ticks": 21273,
          "time": 247.36046511627907,
          "velocity": 0.23622047244094488
        },
        {
          "duration": 0.15116279069766847,
          "durationTicks": 13,
          "midi": 79,
          "name": "G5",
          "ticks": 21274,
          "time": 247.37209302325581,
          "velocity": 0.07086614173228346
        },
        {
          "duration": 0.023255813953483084,
          "durationTicks": 2,
          "midi": 46,
          "name": "A#2",
          "ticks": 21276,
          "time": 247.3953488372093,
          "velocity": 0.3228346456692913
        },
        {
          "duration": 0.023255813953511506,
          "durationTicks": 2,
          "midi": 58,
          "name": "A#3",
          "ticks": 21278,
          "time": 247.41860465116278,
          "velocity": 0.23622047244094488
        },
        {
          "duration": 0.05813953488373613,
          "durationTicks": 5,
          "midi": 46,
          "name": "A#2",
          "ticks": 21279,
          "time": 247.43023255813952,
          "velocity": 0.36220472440944884
        },
        {
          "duration": 0.12790697674418539,
          "durationTicks": 11,
          "midi": 53,
          "name": "F3",
          "ticks": 21281,
          "time": 247.45348837209303,
          "velocity": 0.16535433070866143
        },
        {
          "duration": 0.09302325581396076,
          "durationTicks": 8,
          "midi": 58,
          "name": "A#3",
          "ticks": 21284,
          "time": 247.48837209302326,
          "velocity": 0.1889763779527559
        },
        {
          "duration": 0.1046511627907023,
          "durationTicks": 9,
          "midi": 72,
          "name": "C5",
          "ticks": 21284,
          "time": 247.48837209302326,
          "velocity": 0.1968503937007874
        },
        {
          "duration": 0.08139534883721922,
          "durationTicks": 7,
          "midi": 46,
          "name": "A#2",
          "ticks": 21285,
          "time": 247.5,
          "velocity": 0.36220472440944884
        },
        {
          "duration": 0.011627906976741542,
          "durationTicks": 1,
          "midi": 41,
          "name": "F2",
          "ticks": 21294,
          "time": 247.6046511627907,
          "velocity": 0.5118110236220472
        },
        {
          "duration": 0.034883720930224626,
          "durationTicks": 3,
          "midi": 53,
          "name": "F3",
          "ticks": 21296,
          "time": 247.62790697674419,
          "velocity": 0.07874015748031496
        },
        {
          "duration": 0.12790697674418539,
          "durationTicks": 11,
          "midi": 84,
          "name": "C6",
          "ticks": 21296,
          "time": 247.62790697674419,
          "velocity": 0.09448818897637795
        },
        {
          "duration": 0.023255813953483084,
          "durationTicks": 2,
          "midi": 45,
          "name": "A2",
          "ticks": 21298,
          "time": 247.65116279069767,
          "velocity": 0.3464566929133858
        },
        {
          "duration": 0.2906976744186238,
          "durationTicks": 25,
          "midi": 58,
          "name": "A#3",
          "ticks": 21299,
          "time": 247.6627906976744,
          "velocity": 0.15748031496062992
        },
        {
          "duration": 0.1046511627907023,
          "durationTicks": 9,
          "midi": 46,
          "name": "A#2",
          "ticks": 21300,
          "time": 247.67441860465115,
          "velocity": 0.3464566929133858
        },
        {
          "duration": 0.05813953488370771,
          "durationTicks": 5,
          "midi": 53,
          "name": "F3",
          "ticks": 21306,
          "time": 247.74418604651163,
          "velocity": 0.10236220472440945
        },
        {
          "duration": 0.023255813953483084,
          "durationTicks": 2,
          "midi": 45,
          "name": "A2",
          "ticks": 21309,
          "time": 247.77906976744185,
          "velocity": 0.2992125984251969
        },
        {
          "duration": 0.04651162790696617,
          "durationTicks": 4,
          "midi": 70,
          "name": "A#4",
          "ticks": 21313,
          "time": 247.82558139534885,
          "velocity": 0.4330708661417323
        },
        {
          "duration": 0.023255813953483084,
          "durationTicks": 2,
          "midi": 74,
          "name": "D5",
          "ticks": 21313,
          "time": 247.82558139534885,
          "velocity": 0.33070866141732286
        },
        {
          "duration": 0.04651162790696617,
          "durationTicks": 4,
          "midi": 84,
          "name": "C6",
          "ticks": 21313,
          "time": 247.82558139534885,
          "velocity": 0.14960629921259844
        },
        {
          "duration": 0.06976744186044925,
          "durationTicks": 6,
          "midi": 45,
          "name": "A2",
          "ticks": 21314,
          "time": 247.8372093023256,
          "velocity": 0.33858267716535434
        },
        {
          "duration": 0.023255813953483084,
          "durationTicks": 2,
          "midi": 73,
          "name": "C#5",
          "ticks": 21315,
          "time": 247.84883720930233,
          "velocity": 0.23622047244094488
        },
        {
          "duration": 0.04651162790699459,
          "durationTicks": 4,
          "midi": 46,
          "name": "A#2",
          "ticks": 21320,
          "time": 247.90697674418604,
          "velocity": 0.29133858267716534
        },
        {
          "duration": 0.034883720930224626,
          "durationTicks": 3,
          "midi": 52,
          "name": "E3",
          "ticks": 21324,
          "time": 247.95348837209303,
          "velocity": 0.47244094488188976
        },
        {
          "duration": 0.023255813953483084,
          "durationTicks": 2,
          "midi": 46,
          "name": "A#2",
          "ticks": 21325,
          "time": 247.96511627906978,
          "velocity": 0.4251968503937008
        },
        {
          "duration": 0.04651162790696617,
          "durationTicks": 4,
          "midi": 90,
          "name": "F#6",
          "ticks": 21325,
          "time": 247.96511627906978,
          "velocity": 0.1889763779527559
        },
        {
          "duration": 0.11627906976744384,
          "durationTicks": 10,
          "midi": 60,
          "name": "C4",
          "ticks": 21326,
          "time": 247.97674418604652,
          "velocity": 0.31496062992125984
        },
        {
          "duration": 0.023255813953483084,
          "durationTicks": 2,
          "midi": 41,
          "name": "F2",
          "ticks": 21327,
          "time": 247.98837209302326,
          "velocity": 0.5275590551181102
        },
        {
          "duration": 0.023255813953511506,
          "durationTicks": 2,
          "midi": 45,
          "name": "A2",
          "ticks": 21333,
          "time": 248.0581395348837,
          "velocity": 0.2992125984251969
        },
        {
          "duration": 0.13953488372092693,
          "durationTicks": 12,
          "midi": 58,
          "name": "A#3",
          "ticks": 21336,
          "time": 248.09302325581396,
          "velocity": 0.3543307086614173
        },
        {
          "duration": 0.12790697674418539,
          "durationTicks": 11,
          "midi": 46,
          "name": "A#2",
          "ticks": 21339,
          "time": 248.12790697674419,
          "velocity": 0.4094488188976378
        },
        {
          "duration": 0.13953488372092693,
          "durationTicks": 12,
          "midi": 70,
          "name": "A#4",
          "ticks": 21339,
          "time": 248.12790697674419,
          "velocity": 0.3779527559055118
        },
        {
          "duration": 0.08139534883721922,
          "durationTicks": 7,
          "midi": 74,
          "name": "D5",
          "ticks": 21348,
          "time": 248.2325581395349,
          "velocity": 0.4409448818897638
        },
        {
          "duration": 0.034883720930224626,
          "durationTicks": 3,
          "midi": 81,
          "name": "A5",
          "ticks": 21348,
          "time": 248.2325581395349,
          "velocity": 0.18110236220472442
        },
        {
          "duration": 0.04651162790696617,
          "durationTicks": 4,
          "midi": 83,
          "name": "B5",
          "ticks": 21348,
          "time": 248.2325581395349,
          "velocity": 0.2283464566929134
        },
        {
          "duration": 0.30232558139533694,
          "durationTicks": 26,
          "midi": 53,
          "name": "F3",
          "ticks": 21349,
          "time": 248.24418604651163,
          "velocity": 0.4409448818897638
        },
        {
          "duration": 0.48837209302325846,
          "durationTicks": 42,
          "midi": 77,
          "name": "F5",
          "ticks": 21349,
          "time": 248.24418604651163,
          "velocity": 0.28346456692913385
        },
        {
          "duration": 0.034883720930224626,
          "durationTicks": 3,
          "midi": 79,
          "name": "G5",
          "ticks": 21349,
          "time": 248.24418604651163,
          "velocity": 0.07086614173228346
        },
        {
          "duration": 0.034883720930224626,
          "durationTicks": 3,
          "midi": 45,
          "name": "A2",
          "ticks": 21350,
          "time": 248.25581395348837,
          "velocity": 0.3700787401574803
        },
        {
          "duration": 0.08139534883721922,
          "durationTicks": 7,
          "midi": 99,
          "name": "D#7",
          "ticks": 21350,
          "time": 248.25581395348837,
          "velocity": 0.11811023622047244
        },
        {
          "duration": 0.1046511627907023,
          "durationTicks": 9,
          "midi": 100,
          "name": "E7",
          "ticks": 21350,
          "time": 248.25581395348837,
          "velocity": 0.14960629921259844
        },
        {
          "duration": 0.30232558139533694,
          "durationTicks": 26,
          "midi": 102,
          "name": "F#7",
          "ticks": 21350,
          "time": 248.25581395348837,
          "velocity": 0.14173228346456693
        },
        {
          "duration": 0.5,
          "durationTicks": 43,
          "midi": 72,
          "name": "C5",
          "ticks": 21351,
          "time": 248.2674418604651,
          "velocity": 0.2992125984251969
        },
        {
          "duration": 0.023255813953483084,
          "durationTicks": 2,
          "midi": 45,
          "name": "A2",
          "ticks": 21357,
          "time": 248.3372093023256,
          "velocity": 0.25984251968503935
        },
        {
          "duration": 0.04651162790699459,
          "durationTicks": 4,
          "midi": 53,
          "name": "F3",
          "ticks": 21376,
          "time": 248.5581395348837,
          "velocity": 0.25196850393700787
        },
        {
          "duration": 0.023255813953483084,
          "durationTicks": 2,
          "midi": 53,
          "name": "F3",
          "ticks": 21383,
          "time": 248.63953488372093,
          "velocity": 0.29133858267716534
        },
        {
          "duration": 0.03488372093025305,
          "durationTicks": 3,
          "midi": 41,
          "name": "F2",
          "ticks": 21385,
          "time": 248.6627906976744,
          "velocity": 0.31496062992125984
        },
        {
          "duration": 0.04651162790696617,
          "durationTicks": 4,
          "midi": 42,
          "name": "F#2",
          "ticks": 21388,
          "time": 248.69767441860466,
          "velocity": 0.25196850393700787
        },
        {
          "duration": 0.034883720930224626,
          "durationTicks": 3,
          "midi": 56,
          "name": "G#3",
          "ticks": 21392,
          "time": 248.74418604651163,
          "velocity": 0.3937007874015748
        },
        {
          "duration": 0.04651162790699459,
          "durationTicks": 4,
          "midi": 67,
          "name": "G4",
          "ticks": 21394,
          "time": 248.7674418604651,
          "velocity": 0.12598425196850394
        },
        {
          "duration": 0.25581395348837077,
          "durationTicks": 22,
          "midi": 83,
          "name": "B5",
          "ticks": 21394,
          "time": 248.7674418604651,
          "velocity": 0.1968503937007874
        },
        {
          "duration": 0.034883720930224626,
          "durationTicks": 3,
          "midi": 88,
          "name": "E6",
          "ticks": 21394,
          "time": 248.7674418604651,
          "velocity": 0.11023622047244094
        },
        {
          "duration": 0.034883720930224626,
          "durationTicks": 3,
          "midi": 102,
          "name": "F#7",
          "ticks": 21394,
          "time": 248.7674418604651,
          "velocity": 0.09448818897637795
        },
        {
          "duration": 0.08139534883721922,
          "durationTicks": 7,
          "midi": 55,
          "name": "G3",
          "ticks": 21395,
          "time": 248.77906976744185,
          "velocity": 0.5196850393700787
        },
        {
          "duration": 0.30232558139536536,
          "durationTicks": 26,
          "midi": 76,
          "name": "E5",
          "ticks": 21395,
          "time": 248.77906976744185,
          "velocity": 0.2677165354330709
        },
        {
          "duration": 0.12790697674418539,
          "durationTicks": 11,
          "midi": 79,
          "name": "G5",
          "ticks": 21395,
          "time": 248.77906976744185,
          "velocity": 0.14173228346456693
        },
        {
          "duration": 0.023255813953511506,
          "durationTicks": 2,
          "midi": 72,
          "name": "C5",
          "ticks": 21396,
          "time": 248.7906976744186,
          "velocity": 0.23622047244094488
        },
        {
          "duration": 0.7093023255814046,
          "durationTicks": 61,
          "midi": 64,
          "name": "E4",
          "ticks": 21397,
          "time": 248.80232558139534,
          "velocity": 0.3858267716535433
        },
        {
          "duration": 0.04651162790699459,
          "durationTicks": 4,
          "midi": 71,
          "name": "B4",
          "ticks": 21397,
          "time": 248.80232558139534,
          "velocity": 0.2440944881889764
        },
        {
          "duration": 0.4186046511627808,
          "durationTicks": 36,
          "midi": 81,
          "name": "A5",
          "ticks": 21398,
          "time": 248.8139534883721,
          "velocity": 0.07086614173228346
        },
        {
          "duration": 0.04651162790696617,
          "durationTicks": 4,
          "midi": 92,
          "name": "G#6",
          "ticks": 21398,
          "time": 248.8139534883721,
          "velocity": 0.07086614173228346
        },
        {
          "duration": 0.44186046511626387,
          "durationTicks": 38,
          "midi": 72,
          "name": "C5",
          "ticks": 21400,
          "time": 248.8372093023256,
          "velocity": 0.2992125984251969
        },
        {
          "duration": 0.24418604651162923,
          "durationTicks": 21,
          "midi": 74,
          "name": "D5",
          "ticks": 21400,
          "time": 248.8372093023256,
          "velocity": 0.14173228346456693
        },
        {
          "duration": 0.023255813953483084,
          "durationTicks": 2,
          "midi": 53,
          "name": "F3",
          "ticks": 21403,
          "time": 248.87209302325581,
          "velocity": 0.36220472440944884
        },
        {
          "duration": 0.023255813953483084,
          "durationTicks": 2,
          "midi": 43,
          "name": "G2",
          "ticks": 21410,
          "time": 248.95348837209303,
          "velocity": 0.3543307086614173
        },
        {
          "duration": 0.04651162790696617,
          "durationTicks": 4,
          "midi": 93,
          "name": "A6",
          "ticks": 21410,
          "time": 248.95348837209303,
          "velocity": 0.08661417322834646
        },
        {
          "duration": 0.023255813953483084,
          "durationTicks": 2,
          "midi": 52,
          "name": "E3",
          "ticks": 21411,
          "time": 248.96511627906978,
          "velocity": 0.3543307086614173
        },
        {
          "duration": 0.24418604651162923,
          "durationTicks": 21,
          "midi": 67,
          "name": "G4",
          "ticks": 21414,
          "time": 249,
          "velocity": 0.10236220472440945
        },
        {
          "duration": 0.04651162790699459,
          "durationTicks": 4,
          "midi": 93,
          "name": "A6",
          "ticks": 21416,
          "time": 249.02325581395348,
          "velocity": 0.09448818897637795
        },
        {
          "duration": 0.04651162790699459,
          "durationTicks": 4,
          "midi": 55,
          "name": "G3",
          "ticks": 21418,
          "time": 249.04651162790697,
          "velocity": 0.3464566929133858
        },
        {
          "duration": 0.023255813953483084,
          "durationTicks": 2,
          "midi": 55,
          "name": "G3",
          "ticks": 21423,
          "time": 249.1046511627907,
          "velocity": 0.3228346456692913
        },
        {
          "duration": 0.034883720930224626,
          "durationTicks": 3,
          "midi": 93,
          "name": "A6",
          "ticks": 21424,
          "time": 249.11627906976744,
          "velocity": 0.07874015748031496
        },
        {
          "duration": 0.023255813953483084,
          "durationTicks": 2,
          "midi": 55,
          "name": "G3",
          "ticks": 21426,
          "time": 249.13953488372093,
          "velocity": 0.28346456692913385
        },
        {
          "duration": 0.3720930232558146,
          "durationTicks": 32,
          "midi": 55,
          "name": "G3",
          "ticks": 21429,
          "time": 249.17441860465115,
          "velocity": 0.29133858267716534
        },
        {
          "duration": 0.034883720930224626,
          "durationTicks": 3,
          "midi": 74,
          "name": "D5",
          "ticks": 21435,
          "time": 249.24418604651163,
          "velocity": 0.09448818897637795
        },
        {
          "duration": 0.09302325581396076,
          "durationTicks": 8,
          "midi": 83,
          "name": "B5",
          "ticks": 21437,
          "time": 249.2674418604651,
          "velocity": 0.28346456692913385
        },
        {
          "duration": 0.05813953488373613,
          "durationTicks": 5,
          "midi": 86,
          "name": "D6",
          "ticks": 21437,
          "time": 249.2674418604651,
          "velocity": 0.1968503937007874
        },
        {
          "duration": 0.04651162790699459,
          "durationTicks": 4,
          "midi": 71,
          "name": "B4",
          "ticks": 21439,
          "time": 249.2906976744186,
          "velocity": 0.3543307086614173
        },
        {
          "duration": 0.22093023255814614,
          "durationTicks": 19,
          "midi": 74,
          "name": "D5",
          "ticks": 21440,
          "time": 249.30232558139534,
          "velocity": 0.23622047244094488
        },
        {
          "duration": 0.034883720930224626,
          "durationTicks": 3,
          "midi": 48,
          "name": "C3",
          "ticks": 21444,
          "time": 249.34883720930233,
          "velocity": 0.31496062992125984
        },
        {
          "duration": 0.20930232558137618,
          "durationTicks": 18,
          "midi": 72,
          "name": "C5",
          "ticks": 21444,
          "time": 249.34883720930233,
          "velocity": 0.25196850393700787
        },
        {
          "duration": 0.034883720930224626,
          "durationTicks": 3,
          "midi": 48,
          "name": "C3",
          "ticks": 21448,
          "time": 249.3953488372093,
          "velocity": 0.3228346456692913
        },
        {
          "duration": 0.023255813953483084,
          "durationTicks": 2,
          "midi": 48,
          "name": "C3",
          "ticks": 21453,
          "time": 249.45348837209303,
          "velocity": 0.33070866141732286
        },
        {
          "duration": 0.023255813953483084,
          "durationTicks": 2,
          "midi": 48,
          "name": "C3",
          "ticks": 21457,
          "time": 249.5,
          "velocity": 0.33070866141732286
        },
        {
          "duration": 0.11627906976744384,
          "durationTicks": 10,
          "midi": 76,
          "name": "E5",
          "ticks": 21458,
          "time": 249.51162790697674,
          "velocity": 0.29133858267716534
        },
        {
          "duration": 0.023255813953483084,
          "durationTicks": 2,
          "midi": 62,
          "name": "D4",
          "ticks": 21459,
          "time": 249.52325581395348,
          "velocity": 0.25196850393700787
        },
        {
          "duration": 0.06976744186047767,
          "durationTicks": 6,
          "midi": 64,
          "name": "E4",
          "ticks": 21462,
          "time": 249.5581395348837,
          "velocity": 0.4015748031496063
        },
        {
          "duration": 0.05813953488373613,
          "durationTicks": 5,
          "midi": 71,
          "name": "B4",
          "ticks": 21462,
          "time": 249.5581395348837,
          "velocity": 0.25984251968503935
        },
        {
          "duration": 0.0813953488371908,
          "durationTicks": 7,
          "midi": 52,
          "name": "E3",
          "ticks": 21463,
          "time": 249.56976744186048,
          "velocity": 0.4015748031496063
        },
        {
          "duration": 0.05813953488370771,
          "durationTicks": 5,
          "midi": 67,
          "name": "G4",
          "ticks": 21463,
          "time": 249.56976744186048,
          "velocity": 0.12598425196850394
        },
        {
          "duration": 0.32558139534882,
          "durationTicks": 28,
          "midi": 72,
          "name": "C5",
          "ticks": 21466,
          "time": 249.6046511627907,
          "velocity": 0.25984251968503935
        },
        {
          "duration": 0.05813953488370771,
          "durationTicks": 5,
          "midi": 74,
          "name": "D5",
          "ticks": 21467,
          "time": 249.61627906976744,
          "velocity": 0.11023622047244094
        },
        {
          "duration": 0.09302325581396076,
          "durationTicks": 8,
          "midi": 65,
          "name": "F4",
          "ticks": 21468,
          "time": 249.62790697674419,
          "velocity": 0.31496062992125984
        },
        {
          "duration": 0.06976744186047767,
          "durationTicks": 6,
          "midi": 53,
          "name": "F3",
          "ticks": 21470,
          "time": 249.65116279069767,
          "velocity": 0.4645669291338583
        },
        {
          "duration": 0.04651162790699459,
          "durationTicks": 4,
          "midi": 60,
          "name": "C4",
          "ticks": 21471,
          "time": 249.6627906976744,
          "velocity": 0.2125984251968504
        },
        {
          "duration": 0.05813953488373613,
          "durationTicks": 5,
          "midi": 41,
          "name": "F2",
          "ticks": 21472,
          "time": 249.67441860465115,
          "velocity": 0.5196850393700787
        },
        {
          "duration": 0.034883720930224626,
          "durationTicks": 3,
          "midi": 52,
          "name": "E3",
          "ticks": 21476,
          "time": 249.72093023255815,
          "velocity": 0.33858267716535434
        },
        {
          "duration": 0.11627906976744384,
          "durationTicks": 10,
          "midi": 67,
          "name": "G4",
          "ticks": 21476,
          "time": 249.72093023255815,
          "velocity": 0.15748031496062992
        },
        {
          "duration": 0.023255813953511506,
          "durationTicks": 2,
          "midi": 48,
          "name": "C3",
          "ticks": 21483,
          "time": 249.80232558139534,
          "velocity": 0.28346456692913385
        },
        {
          "duration": 0.023255813953511506,
          "durationTicks": 2,
          "midi": 53,
          "name": "F3",
          "ticks": 21483,
          "time": 249.80232558139534,
          "velocity": 0.30708661417322836
        },
        {
          "duration": 0.5,
          "durationTicks": 43,
          "midi": 78,
          "name": "F#5",
          "ticks": 21484,
          "time": 249.8139534883721,
          "velocity": 0.2204724409448819
        },
        {
          "duration": 0.5116279069767415,
          "durationTicks": 44,
          "midi": 62,
          "name": "D4",
          "ticks": 21485,
          "time": 249.82558139534885,
          "velocity": 0.4094488188976378
        },
        {
          "duration": 0.1046511627907023,
          "durationTicks": 9,
          "midi": 55,
          "name": "G3",
          "ticks": 21486,
          "time": 249.8372093023256,
          "velocity": 0.2047244094488189
        },
        {
          "duration": 0.0813953488371908,
          "durationTicks": 7,
          "midi": 69,
          "name": "A4",
          "ticks": 21486,
          "time": 249.8372093023256,
          "velocity": 0.14173228346456693
        },
        {
          "duration": 0.05813953488373613,
          "durationTicks": 5,
          "midi": 70,
          "name": "A#4",
          "ticks": 21493,
          "time": 249.91860465116278,
          "velocity": 0.3937007874015748
        },
        {
          "duration": 0.2093023255814046,
          "durationTicks": 18,
          "midi": 81,
          "name": "A5",
          "ticks": 21493,
          "time": 249.91860465116278,
          "velocity": 0.14960629921259844
        },
        {
          "duration": 0.023255813953511506,
          "durationTicks": 2,
          "midi": 49,
          "name": "C#3",
          "ticks": 21494,
          "time": 249.93023255813952,
          "velocity": 0.33070866141732286
        },
        {
          "duration": 0.10465116279067388,
          "durationTicks": 9,
          "midi": 67,
          "name": "G4",
          "ticks": 21495,
          "time": 249.9418604651163,
          "velocity": 0.16535433070866143
        },
        {
          "duration": 0.09302325581393234,
          "durationTicks": 8,
          "midi": 72,
          "name": "C5",
          "ticks": 21496,
          "time": 249.95348837209303,
          "velocity": 0.14173228346456693
        },
        {
          "duration": 0.06976744186044925,
          "durationTicks": 6,
          "midi": 55,
          "name": "G3",
          "ticks": 21497,
          "time": 249.96511627906978,
          "velocity": 0.14173228346456693
        },
        {
          "duration": 0.33720930232559,
          "durationTicks": 29,
          "midi": 69,
          "name": "A4",
          "ticks": 21498,
          "time": 249.97674418604652,
          "velocity": 0.2283464566929134
        },
        {
          "duration": 0.034883720930224626,
          "durationTicks": 3,
          "midi": 48,
          "name": "C3",
          "ticks": 21499,
          "time": 249.98837209302326,
          "velocity": 0.3464566929133858
        },
        {
          "duration": 0.023255813953511506,
          "durationTicks": 2,
          "midi": 53,
          "name": "F3",
          "ticks": 21504,
          "time": 250.04651162790697,
          "velocity": 0.28346456692913385
        },
        {
          "duration": 0.011627906976769964,
          "durationTicks": 1,
          "midi": 42,
          "name": "F#2",
          "ticks": 21505,
          "time": 250.0581395348837,
          "velocity": 0.5118110236220472
        },
        {
          "duration": 0.011627906976741542,
          "durationTicks": 1,
          "midi": 41,
          "name": "F2",
          "ticks": 21506,
          "time": 250.06976744186048,
          "velocity": 0.5118110236220472
        },
        {
          "duration": 0.023255813953483084,
          "durationTicks": 2,
          "midi": 42,
          "name": "F#2",
          "ticks": 21507,
          "time": 250.08139534883722,
          "velocity": 0.4094488188976378
        },
        {
          "duration": 0.023255813953483084,
          "durationTicks": 2,
          "midi": 49,
          "name": "C#3",
          "ticks": 21511,
          "time": 250.12790697674419,
          "velocity": 0.2992125984251969
        },
        {
          "duration": 0.16279069767441,
          "durationTicks": 14,
          "midi": 72,
          "name": "C5",
          "ticks": 21512,
          "time": 250.13953488372093,
          "velocity": 0.07874015748031496
        },
        {
          "duration": 0.04651162790699459,
          "durationTicks": 4,
          "midi": 55,
          "name": "G3",
          "ticks": 21513,
          "time": 250.15116279069767,
          "velocity": 0.12598425196850394
        },
        {
          "duration": 0.023255813953511506,
          "durationTicks": 2,
          "midi": 49,
          "name": "C#3",
          "ticks": 21516,
          "time": 250.1860465116279,
          "velocity": 0.33858267716535434
        },
        {
          "duration": 0.023255813953483084,
          "durationTicks": 2,
          "midi": 48,
          "name": "C3",
          "ticks": 21518,
          "time": 250.2093023255814,
          "velocity": 0.2992125984251969
        },
        {
          "duration": 0.023255813953483084,
          "durationTicks": 2,
          "midi": 49,
          "name": "C#3",
          "ticks": 21522,
          "time": 250.25581395348837,
          "velocity": 0.33070866141732286
        },
        {
          "duration": 0.023255813953511506,
          "durationTicks": 2,
          "midi": 47,
          "name": "B2",
          "ticks": 21525,
          "time": 250.2906976744186,
          "velocity": 0.25196850393700787
        },
        {
          "duration": 0.04651162790699459,
          "durationTicks": 4,
          "midi": 84,
          "name": "C6",
          "ticks": 21526,
          "time": 250.30232558139534,
          "velocity": 0.28346456692913385
        },
        {
          "duration": 0.034883720930224626,
          "durationTicks": 3,
          "midi": 70,
          "name": "A#4",
          "ticks": 21527,
          "time": 250.3139534883721,
          "velocity": 0.36220472440944884
        },
        {
          "duration": 0.023255813953483084,
          "durationTicks": 2,
          "midi": 83,
          "name": "B5",
          "ticks": 21527,
          "time": 250.3139534883721,
          "velocity": 0.2283464566929134
        },
        {
          "duration": 0.034883720930224626,
          "durationTicks": 3,
          "midi": 94,
          "name": "A#6",
          "ticks": 21527,
          "time": 250.3139534883721,
          "velocity": 0.14173228346456693
        },
        {
          "duration": 0.023255813953483084,
          "durationTicks": 2,
          "midi": 59,
          "name": "B3",
          "ticks": 21528,
          "time": 250.32558139534885,
          "velocity": 0.25984251968503935
        },
        {
          "duration": 0.1860465116278931,
          "durationTicks": 16,
          "midi": 76,
          "name": "E5",
          "ticks": 21528,
          "time": 250.32558139534885,
          "velocity": 0.15748031496062992
        },
        {
          "duration": 0.32558139534882,
          "durationTicks": 28,
          "midi": 60,
          "name": "C4",
          "ticks": 21530,
          "time": 250.34883720930233,
          "velocity": 0.33070866141732286
        },
        {
          "duration": 0.32558139534882,
          "durationTicks": 28,
          "midi": 67,
          "name": "G4",
          "ticks": 21530,
          "time": 250.34883720930233,
          "velocity": 0.2204724409448819
        },
        {
          "duration": 0.06976744186044925,
          "durationTicks": 6,
          "midi": 90,
          "name": "F#6",
          "ticks": 21530,
          "time": 250.34883720930233,
          "velocity": 0.10236220472440945
        },
        {
          "duration": 0.09302325581396076,
          "durationTicks": 8,
          "midi": 91,
          "name": "G6",
          "ticks": 21530,
          "time": 250.34883720930233,
          "velocity": 0.09448818897637795
        },
        {
          "duration": 0.19767441860463464,
          "durationTicks": 17,
          "midi": 97,
          "name": "C#7",
          "ticks": 21530,
          "time": 250.34883720930233,
          "velocity": 0.16535433070866143
        },
        {
          "duration": 0.023255813953483084,
          "durationTicks": 2,
          "midi": 47,
          "name": "B2",
          "ticks": 21531,
          "time": 250.36046511627907,
          "velocity": 0.3464566929133858
        },
        {
          "duration": 0.15116279069766847,
          "durationTicks": 13,
          "midi": 74,
          "name": "D5",
          "ticks": 21532,
          "time": 250.37209302325581,
          "velocity": 0.15748031496062992
        },
        {
          "duration": 0.2093023255814046,
          "durationTicks": 18,
          "midi": 48,
          "name": "C3",
          "ticks": 21533,
          "time": 250.38372093023256,
          "velocity": 0.3700787401574803
        },
        {
          "duration": 0.1046511627907023,
          "durationTicks": 9,
          "midi": 95,
          "name": "B6",
          "ticks": 21533,
          "time": 250.38372093023256,
          "velocity": 0.11023622047244094
        },
        {
          "duration": 0.034883720930224626,
          "durationTicks": 3,
          "midi": 70,
          "name": "A#4",
          "ticks": 21551,
          "time": 250.59302325581396,
          "velocity": 0.30708661417322836
        },
        {
          "duration": 0.023255813953483084,
          "durationTicks": 2,
          "midi": 49,
          "name": "C#3",
          "ticks": 21552,
          "time": 250.6046511627907,
          "velocity": 0.4015748031496063
        },
        {
          "duration": 0.023255813953483084,
          "durationTicks": 2,
          "midi": 47,
          "name": "B2",
          "ticks": 21554,
          "time": 250.62790697674419,
          "velocity": 0.3937007874015748
        },
        {
          "duration": 0.04651162790699459,
          "durationTicks": 4,
          "midi": 61,
          "name": "C#4",
          "ticks": 21558,
          "time": 250.67441860465115,
          "velocity": 0.2755905511811024
        },
        {
          "duration": 0.03488372093025305,
          "durationTicks": 3,
          "midi": 49,
          "name": "C#3",
          "ticks": 21559,
          "time": 250.6860465116279,
          "velocity": 0.3858267716535433
        },
        {
          "duration": 0.023255813953483084,
          "durationTicks": 2,
          "midi": 50,
          "name": "D3",
          "ticks": 21562,
          "time": 250.72093023255815,
          "velocity": 0.3937007874015748
        },
        {
          "duration": 0.034883720930224626,
          "durationTicks": 3,
          "midi": 51,
          "name": "D#3",
          "ticks": 21564,
          "time": 250.74418604651163,
          "velocity": 0.3858267716535433
        },
        {
          "duration": 0.03488372093025305,
          "durationTicks": 3,
          "midi": 52,
          "name": "E3",
          "ticks": 21567,
          "time": 250.77906976744185,
          "velocity": 0.3464566929133858
        },
        {
          "duration": 0.05813953488370771,
          "durationTicks": 5,
          "midi": 59,
          "name": "B3",
          "ticks": 21570,
          "time": 250.8139534883721,
          "velocity": 0.36220472440944884
        },
        {
          "duration": 0.034883720930224626,
          "durationTicks": 3,
          "midi": 76,
          "name": "E5",
          "ticks": 21570,
          "time": 250.8139534883721,
          "velocity": 0.10236220472440945
        },
        {
          "duration": 0.034883720930224626,
          "durationTicks": 3,
          "midi": 65,
          "name": "F4",
          "ticks": 21571,
          "time": 250.82558139534885,
          "velocity": 0.25196850393700787
        },
        {
          "duration": 0.6511627906976685,
          "durationTicks": 56,
          "midi": 74,
          "name": "D5",
          "ticks": 21571,
          "time": 250.82558139534885,
          "velocity": 0.33858267716535434
        },
        {
          "duration": 0.12790697674418539,
          "durationTicks": 11,
          "midi": 78,
          "name": "F#5",
          "ticks": 21571,
          "time": 250.82558139534885,
          "velocity": 0.14173228346456693
        },
        {
          "duration": 0.25581395348837077,
          "durationTicks": 22,
          "midi": 83,
          "name": "B5",
          "ticks": 21572,
          "time": 250.8372093023256,
          "velocity": 0.10236220472440945
        },
        {
          "duration": 0.023255813953483084,
          "durationTicks": 2,
          "midi": 42,
          "name": "F#2",
          "ticks": 21573,
          "time": 250.84883720930233,
          "velocity": 0.36220472440944884
        },
        {
          "duration": 0.023255813953483084,
          "durationTicks": 2,
          "midi": 54,
          "name": "F#3",
          "ticks": 21573,
          "time": 250.84883720930233,
          "velocity": 0.5196850393700787
        },
        {
          "duration": 0.023255813953483084,
          "durationTicks": 2,
          "midi": 67,
          "name": "G4",
          "ticks": 21574,
          "time": 250.86046511627907,
          "velocity": 0.2440944881889764
        },
        {
          "duration": 0.06976744186047767,
          "durationTicks": 6,
          "midi": 55,
          "name": "G3",
          "ticks": 21575,
          "time": 250.87209302325581,
          "velocity": 0.5118110236220472
        },
        {
          "duration": 0.034883720930224626,
          "durationTicks": 3,
          "midi": 66,
          "name": "F#4",
          "ticks": 21576,
          "time": 250.88372093023256,
          "velocity": 0.25984251968503935
        },
        {
          "duration": 0.034883720930224626,
          "durationTicks": 3,
          "midi": 89,
          "name": "F6",
          "ticks": 21576,
          "time": 250.88372093023256,
          "velocity": 0.07086614173228346
        },
        {
          "duration": 0.023255813953483084,
          "durationTicks": 2,
          "midi": 59,
          "name": "B3",
          "ticks": 21578,
          "time": 250.90697674418604,
          "velocity": 0.2992125984251969
        },
        {
          "duration": 0.03488372093025305,
          "durationTicks": 3,
          "midi": 66,
          "name": "F#4",
          "ticks": 21580,
          "time": 250.93023255813952,
          "velocity": 0.3228346456692913
        },
        {
          "duration": 0.034883720930224626,
          "durationTicks": 3,
          "midi": 55,
          "name": "G3",
          "ticks": 21582,
          "time": 250.95348837209303,
          "velocity": 0.4881889763779528
        },
        {
          "duration": 0.13953488372092693,
          "durationTicks": 12,
          "midi": 72,
          "name": "C5",
          "ticks": 21582,
          "time": 250.95348837209303,
          "velocity": 0.2047244094488189
        },
        {
          "duration": 0.023255813953483084,
          "durationTicks": 2,
          "midi": 59,
          "name": "B3",
          "ticks": 21583,
          "time": 250.96511627906978,
          "velocity": 0.28346456692913385
        },
        {
          "duration": 0.034883720930224626,
          "durationTicks": 3,
          "midi": 66,
          "name": "F#4",
          "ticks": 21584,
          "time": 250.97674418604652,
          "velocity": 0.31496062992125984
        },
        {
          "duration": 0.1046511627907023,
          "durationTicks": 9,
          "midi": 47,
          "name": "B2",
          "ticks": 21586,
          "time": 251,
          "velocity": 0.36220472440944884
        },
        {
          "duration": 0.023255813953483084,
          "durationTicks": 2,
          "midi": 55,
          "name": "G3",
          "ticks": 21587,
          "time": 251.01162790697674,
          "velocity": 0.41732283464566927
        },
        {
          "duration": 0.023255813953483084,
          "durationTicks": 2,
          "midi": 64,
          "name": "E4",
          "ticks": 21587,
          "time": 251.01162790697674,
          "velocity": 0.2283464566929134
        },
        {
          "duration": 0.05813953488373613,
          "durationTicks": 5,
          "midi": 87,
          "name": "D#6",
          "ticks": 21588,
          "time": 251.02325581395348,
          "velocity": 0.08661417322834646
        },
        {
          "duration": 0.03488372093025305,
          "durationTicks": 3,
          "midi": 66,
          "name": "F#4",
          "ticks": 21590,
          "time": 251.04651162790697,
          "velocity": 0.33858267716535434
        },
        {
          "duration": 0.04651162790699459,
          "durationTicks": 4,
          "midi": 77,
          "name": "F5",
          "ticks": 21590,
          "time": 251.04651162790697,
          "velocity": 0.09448818897637795
        },
        {
          "duration": 0.034883720930224626,
          "durationTicks": 3,
          "midi": 66,
          "name": "F#4",
          "ticks": 21594,
          "time": 251.09302325581396,
          "velocity": 0.33858267716535434
        },
        {
          "duration": 0.25581395348837077,
          "durationTicks": 22,
          "midi": 59,
          "name": "B3",
          "ticks": 21596,
          "time": 251.11627906976744,
          "velocity": 0.25196850393700787
        },
        {
          "duration": 0.023255813953483084,
          "durationTicks": 2,
          "midi": 67,
          "name": "G4",
          "ticks": 21597,
          "time": 251.12790697674419,
          "velocity": 0.2677165354330709
        },
        {
          "duration": 0.04651162790696617,
          "durationTicks": 4,
          "midi": 53,
          "name": "F3",
          "ticks": 21598,
          "time": 251.13953488372093,
          "velocity": 0.44881889763779526
        },
        {
          "duration": 0.04651162790696617,
          "durationTicks": 4,
          "midi": 66,
          "name": "F#4",
          "ticks": 21598,
          "time": 251.13953488372093,
          "velocity": 0.3464566929133858
        },
        {
          "duration": 0.023255813953483084,
          "durationTicks": 2,
          "midi": 47,
          "name": "B2",
          "ticks": 21599,
          "time": 251.15116279069767,
          "velocity": 0.36220472440944884
        },
        {
          "duration": 0.2093023255814046,
          "durationTicks": 18,
          "midi": 72,
          "name": "C5",
          "ticks": 21600,
          "time": 251.1627906976744,
          "velocity": 0.2992125984251969
        },
        {
          "duration": 0.13953488372095535,
          "durationTicks": 12,
          "midi": 87,
          "name": "D#6",
          "ticks": 21601,
          "time": 251.17441860465115,
          "velocity": 0.1889763779527559
        },
        {
          "duration": 0.06976744186047767,
          "durationTicks": 6,
          "midi": 47,
          "name": "B2",
          "ticks": 21602,
          "time": 251.1860465116279,
          "velocity": 0.36220472440944884
        },
        {
          "duration": 0.023255813953511506,
          "durationTicks": 2,
          "midi": 54,
          "name": "F#3",
          "ticks": 21602,
          "time": 251.1860465116279,
          "velocity": 0.3228346456692913
        },
        {
          "duration": 0.03488372093025305,
          "durationTicks": 3,
          "midi": 65,
          "name": "F4",
          "ticks": 21602,
          "time": 251.1860465116279,
          "velocity": 0.3543307086614173
        },
        {
          "duration": 0.023255813953483084,
          "durationTicks": 2,
          "midi": 53,
          "name": "F3",
          "ticks": 21604,
          "time": 251.2093023255814,
          "velocity": 0.3543307086614173
        },
        {
          "duration": 0.023255813953483084,
          "durationTicks": 2,
          "midi": 67,
          "name": "G4",
          "ticks": 21608,
          "time": 251.25581395348837,
          "velocity": 0.3228346456692913
        },
        {
          "duration": 0.023255813953483084,
          "durationTicks": 2,
          "midi": 47,
          "name": "B2",
          "ticks": 21609,
          "time": 251.2674418604651,
          "velocity": 0.3937007874015748
        },
        {
          "duration": 0.05813953488373613,
          "durationTicks": 5,
          "midi": 53,
          "name": "F3",
          "ticks": 21609,
          "time": 251.2674418604651,
          "velocity": 0.47244094488188976
        },
        {
          "duration": 0.05813953488373613,
          "durationTicks": 5,
          "midi": 66,
          "name": "F#4",
          "ticks": 21611,
          "time": 251.2906976744186,
          "velocity": 0.3543307086614173
        },
        {
          "duration": 0.04651162790696617,
          "durationTicks": 4,
          "midi": 47,
          "name": "B2",
          "ticks": 21614,
          "time": 251.32558139534885,
          "velocity": 0.3937007874015748
        },
        {
          "duration": 0.023255813953483084,
          "durationTicks": 2,
          "midi": 52,
          "name": "E3",
          "ticks": 21614,
          "time": 251.32558139534885,
          "velocity": 0.44881889763779526
        },
        {
          "duration": 0.3720930232558146,
          "durationTicks": 32,
          "midi": 87,
          "name": "D#6",
          "ticks": 21615,
          "time": 251.3372093023256,
          "velocity": 0.1732283464566929
        },
        {
          "duration": 0.13953488372092693,
          "durationTicks": 12,
          "midi": 53,
          "name": "F3",
          "ticks": 21616,
          "time": 251.34883720930233,
          "velocity": 0.47244094488188976
        },
        {
          "duration": 0.023255813953483084,
          "durationTicks": 2,
          "midi": 66,
          "name": "F#4",
          "ticks": 21618,
          "time": 251.37209302325581,
          "velocity": 0.29133858267716534
        },
        {
          "duration": 0.04651162790696617,
          "durationTicks": 4,
          "midi": 70,
          "name": "A#4",
          "ticks": 21618,
          "time": 251.37209302325581,
          "velocity": 0.3858267716535433
        },
        {
          "duration": 0.04651162790696617,
          "durationTicks": 4,
          "midi": 83,
          "name": "B5",
          "ticks": 21618,
          "time": 251.37209302325581,
          "velocity": 0.12598425196850394
        },
        {
          "duration": 0.023255813953511506,
          "durationTicks": 2,
          "midi": 71,
          "name": "B4",
          "ticks": 21622,
          "time": 251.41860465116278,
          "velocity": 0.2677165354330709
        },
        {
          "duration": 0.2790697674418823,
          "durationTicks": 24,
          "midi": 72,
          "name": "C5",
          "ticks": 21623,
          "time": 251.43023255813952,
          "velocity": 0.25196850393700787
        },
        {
          "duration": 0.034883720930224626,
          "durationTicks": 3,
          "midi": 66,
          "name": "F#4",
          "ticks": 21626,
          "time": 251.46511627906978,
          "velocity": 0.3464566929133858
        },
        {
          "duration": 0.023255813953483084,
          "durationTicks": 2,
          "midi": 52,
          "name": "E3",
          "ticks": 21628,
          "time": 251.48837209302326,
          "velocity": 0.4409448818897638
        },
        {
          "duration": 0.023255813953483084,
          "durationTicks": 2,
          "midi": 65,
          "name": "F4",
          "ticks": 21629,
          "time": 251.5,
          "velocity": 0.28346456692913385
        },
        {
          "duration": 0.25581395348837077,
          "durationTicks": 22,
          "midi": 53,
          "name": "F3",
          "ticks": 21630,
          "time": 251.51162790697674,
          "velocity": 0.47244094488188976
        },
        {
          "duration": 0.034883720930224626,
          "durationTicks": 3,
          "midi": 47,
          "name": "B2",
          "ticks": 21631,
          "time": 251.52325581395348,
          "velocity": 0.3543307086614173
        },
        {
          "duration": 0.023255813953483084,
          "durationTicks": 2,
          "midi": 47,
          "name": "B2",
          "ticks": 21635,
          "time": 251.56976744186048,
          "velocity": 0.3858267716535433
        },
        {
          "duration": 0.023255813953483084,
          "durationTicks": 2,
          "midi": 46,
          "name": "A#2",
          "ticks": 21637,
          "time": 251.59302325581396,
          "velocity": 0.36220472440944884
        },
        {
          "duration": 0.034883720930224626,
          "durationTicks": 3,
          "midi": 67,
          "name": "G4",
          "ticks": 21637,
          "time": 251.59302325581396,
          "velocity": 0.2992125984251969
        },
        {
          "duration": 0.04651162790699459,
          "durationTicks": 4,
          "midi": 47,
          "name": "B2",
          "ticks": 21644,
          "time": 251.67441860465115,
          "velocity": 0.36220472440944884
        },
        {
          "duration": 0.023255813953483084,
          "durationTicks": 2,
          "midi": 66,
          "name": "F#4",
          "ticks": 21648,
          "time": 251.72093023255815,
          "velocity": 0.31496062992125984
        },
        {
          "duration": 0.05813953488370771,
          "durationTicks": 5,
          "midi": 72,
          "name": "C5",
          "ticks": 21648,
          "time": 251.72093023255815,
          "velocity": 0.11023622047244094
        },
        {
          "duration": 0.023255813953483084,
          "durationTicks": 2,
          "midi": 41,
          "name": "F2",
          "ticks": 21653,
          "time": 251.77906976744185,
          "velocity": 0.5196850393700787
        },
        {
          "duration": 0.03488372093025305,
          "durationTicks": 3,
          "midi": 52,
          "name": "E3",
          "ticks": 21653,
          "time": 251.77906976744185,
          "velocity": 0.30708661417322836
        },
        {
          "duration": 0.2325581395348877,
          "durationTicks": 20,
          "midi": 65,
          "name": "F4",
          "ticks": 21653,
          "time": 251.77906976744185,
          "velocity": 0.3464566929133858
        },
        {
          "duration": 0.13953488372092693,
          "durationTicks": 12,
          "midi": 87,
          "name": "D#6",
          "ticks": 21653,
          "time": 251.77906976744185,
          "velocity": 0.1732283464566929
        },
        {
          "duration": 0.023255813953511506,
          "durationTicks": 2,
          "midi": 42,
          "name": "F#2",
          "ticks": 21655,
          "time": 251.80232558139534,
          "velocity": 0.4015748031496063
        },
        {
          "duration": 0.19767441860463464,
          "durationTicks": 17,
          "midi": 53,
          "name": "F3",
          "ticks": 21656,
          "time": 251.8139534883721,
          "velocity": 0.47244094488188976
        },
        {
          "duration": 0.023255813953483084,
          "durationTicks": 2,
          "midi": 47,
          "name": "B2",
          "ticks": 21658,
          "time": 251.8372093023256,
          "velocity": 0.2755905511811024
        },
        {
          "duration": 0.1860465116278931,
          "durationTicks": 16,
          "midi": 72,
          "name": "C5",
          "ticks": 21658,
          "time": 251.8372093023256,
          "velocity": 0.25196850393700787
        },
        {
          "duration": 0.023255813953483084,
          "durationTicks": 2,
          "midi": 47,
          "name": "B2",
          "ticks": 21667,
          "time": 251.9418604651163,
          "velocity": 0.33858267716535434
        },
        {
          "duration": 0.19767441860463464,
          "durationTicks": 17,
          "midi": 87,
          "name": "D#6",
          "ticks": 21668,
          "time": 251.95348837209303,
          "velocity": 0.11811023622047244
        },
        {
          "duration": 0.023255813953483084,
          "durationTicks": 2,
          "midi": 52,
          "name": "E3",
          "ticks": 21673,
          "time": 252.01162790697674,
          "velocity": 0.4409448818897638
        },
        {
          "duration": 0.04651162790696617,
          "durationTicks": 4,
          "midi": 70,
          "name": "A#4",
          "ticks": 21673,
          "time": 252.01162790697674,
          "velocity": 0.3779527559055118
        },
        {
          "duration": 0.06976744186047767,
          "durationTicks": 6,
          "midi": 65,
          "name": "F4",
          "ticks": 21674,
          "time": 252.02325581395348,
          "velocity": 0.2755905511811024
        },
        {
          "duration": 0.023255813953483084,
          "durationTicks": 2,
          "midi": 74,
          "name": "D5",
          "ticks": 21674,
          "time": 252.02325581395348,
          "velocity": 0.3543307086614173
        },
        {
          "duration": 0.05813953488373613,
          "durationTicks": 5,
          "midi": 53,
          "name": "F3",
          "ticks": 21675,
          "time": 252.03488372093022,
          "velocity": 0.4645669291338583
        },
        {
          "duration": 0.03488372093025305,
          "durationTicks": 3,
          "midi": 72,
          "name": "C5",
          "ticks": 21677,
          "time": 252.0581395348837,
          "velocity": 0.14173228346456693
        },
        {
          "duration": 0.05813953488370771,
          "durationTicks": 5,
          "midi": 53,
          "name": "F3",
          "ticks": 21681,
          "time": 252.1046511627907,
          "velocity": 0.4566929133858268
        },
        {
          "duration": 0.011627906976741542,
          "durationTicks": 1,
          "midi": 45,
          "name": "A2",
          "ticks": 21686,
          "time": 252.1627906976744,
          "velocity": 0.5118110236220472
        },
        {
          "duration": 0.12790697674418539,
          "durationTicks": 11,
          "midi": 72,
          "name": "C5",
          "ticks": 21686,
          "time": 252.1627906976744,
          "velocity": 0.1732283464566929
        },
        {
          "duration": 0.023255813953511506,
          "durationTicks": 2,
          "midi": 41,
          "name": "F2",
          "ticks": 21687,
          "time": 252.17441860465115,
          "velocity": 0.5118110236220472
        },
        {
          "duration": 0.023255813953483084,
          "durationTicks": 2,
          "midi": 52,
          "name": "E3",
          "ticks": 21693,
          "time": 252.24418604651163,
          "velocity": 0.4409448818897638
        },
        {
          "duration": 0.2093023255814046,
          "durationTicks": 18,
          "midi": 81,
          "name": "A5",
          "ticks": 21694,
          "time": 252.25581395348837,
          "velocity": 0.2283464566929134
        },
        {
          "duration": 0.04651162790696617,
          "durationTicks": 4,
          "midi": 87,
          "name": "D#6",
          "ticks": 21694,
          "time": 252.25581395348837,
          "velocity": 0.14173228346456693
        },
        {
          "duration": 0.04651162790699459,
          "durationTicks": 4,
          "midi": 53,
          "name": "F3",
          "ticks": 21695,
          "time": 252.2674418604651,
          "velocity": 0.4645669291338583
        },
        {
          "duration": 0.09302325581393234,
          "durationTicks": 8,
          "midi": 72,
          "name": "C5",
          "ticks": 21700,
          "time": 252.32558139534885,
          "velocity": 0.2755905511811024
        },
        {
          "duration": 0.06976744186044925,
          "durationTicks": 6,
          "midi": 53,
          "name": "F3",
          "ticks": 21701,
          "time": 252.3372093023256,
          "velocity": 0.4094488188976378
        },
        {
          "duration": 0.023255813953483084,
          "durationTicks": 2,
          "midi": 64,
          "name": "E4",
          "ticks": 21706,
          "time": 252.3953488372093,
          "velocity": 0.2440944881889764
        },
        {
          "duration": 0.023255813953483084,
          "durationTicks": 2,
          "midi": 52,
          "name": "E3",
          "ticks": 21707,
          "time": 252.40697674418604,
          "velocity": 0.4015748031496063
        },
        {
          "duration": 0.04651162790699459,
          "durationTicks": 4,
          "midi": 70,
          "name": "A#4",
          "ticks": 21707,
          "time": 252.40697674418604,
          "velocity": 0.4409448818897638
        },
        {
          "duration": 0.06976744186047767,
          "durationTicks": 6,
          "midi": 74,
          "name": "D5",
          "ticks": 21707,
          "time": 252.40697674418604,
          "velocity": 0.33070866141732286
        },
        {
          "duration": 0.04651162790699459,
          "durationTicks": 4,
          "midi": 87,
          "name": "D#6",
          "ticks": 21707,
          "time": 252.40697674418604,
          "velocity": 0.1968503937007874
        },
        {
          "duration": 0.3720930232558146,
          "durationTicks": 32,
          "midi": 65,
          "name": "F4",
          "ticks": 21708,
          "time": 252.41860465116278,
          "velocity": 0.31496062992125984
        },
        {
          "duration": 0.2093023255814046,
          "durationTicks": 18,
          "midi": 53,
          "name": "F3",
          "ticks": 21709,
          "time": 252.43023255813952,
          "velocity": 0.4566929133858268
        },
        {
          "duration": 0.03488372093025305,
          "durationTicks": 3,
          "midi": 84,
          "name": "C6",
          "ticks": 21709,
          "time": 252.43023255813952,
          "velocity": 0.09448818897637795
        },
        {
          "duration": 0.034883720930224626,
          "durationTicks": 3,
          "midi": 71,
          "name": "B4",
          "ticks": 21710,
          "time": 252.4418604651163,
          "velocity": 0.31496062992125984
        },
        {
          "duration": 0.08139534883721922,
          "durationTicks": 7,
          "midi": 72,
          "name": "C5",
          "ticks": 21718,
          "time": 252.53488372093022,
          "velocity": 0.16535433070866143
        },
        {
          "duration": 0.2325581395348877,
          "durationTicks": 20,
          "midi": 87,
          "name": "D#6",
          "ticks": 21720,
          "time": 252.5581395348837,
          "velocity": 0.13385826771653545
        },
        {
          "duration": 0.034883720930224626,
          "durationTicks": 3,
          "midi": 53,
          "name": "F3",
          "ticks": 21728,
          "time": 252.65116279069767,
          "velocity": 0.4330708661417323
        },
        {
          "duration": 0.03488372093025305,
          "durationTicks": 3,
          "midi": 71,
          "name": "B4",
          "ticks": 21731,
          "time": 252.6860465116279,
          "velocity": 0.2204724409448819
        },
        {
          "duration": 0.09302325581393234,
          "durationTicks": 8,
          "midi": 53,
          "name": "F3",
          "ticks": 21732,
          "time": 252.69767441860466,
          "velocity": 0.49606299212598426
        },
        {
          "duration": 0.06976744186044925,
          "durationTicks": 6,
          "midi": 72,
          "name": "C5",
          "ticks": 21734,
          "time": 252.72093023255815,
          "velocity": 0.1732283464566929
        },
        {
          "duration": 0.03488372093025305,
          "durationTicks": 3,
          "midi": 44,
          "name": "G#2",
          "ticks": 21739,
          "time": 252.77906976744185,
          "velocity": 0.29133858267716534
        },
        {
          "duration": 0.03488372093025305,
          "durationTicks": 3,
          "midi": 71,
          "name": "B4",
          "ticks": 21740,
          "time": 252.7906976744186,
          "velocity": 0.23622047244094488
        },
        {
          "duration": 0.08139534883721922,
          "durationTicks": 7,
          "midi": 53,
          "name": "F3",
          "ticks": 21741,
          "time": 252.80232558139534,
          "velocity": 0.5039370078740157
        },
        {
          "duration": 0.09302325581393234,
          "durationTicks": 8,
          "midi": 42,
          "name": "F#2",
          "ticks": 21742,
          "time": 252.8139534883721,
          "velocity": 0.33858267716535434
        },
        {
          "duration": 0.38372093023255616,
          "durationTicks": 33,
          "midi": 72,
          "name": "C5",
          "ticks": 21744,
          "time": 252.8372093023256,
          "velocity": 0.31496062992125984
        },
        {
          "duration": 0.023255813953483084,
          "durationTicks": 2,
          "midi": 64,
          "name": "E4",
          "ticks": 21747,
          "time": 252.87209302325581,
          "velocity": 0.2992125984251969
        },
        {
          "duration": 0.023255813953483084,
          "durationTicks": 2,
          "midi": 52,
          "name": "E3",
          "ticks": 21748,
          "time": 252.88372093023256,
          "velocity": 0.3937007874015748
        },
        {
          "duration": 0.11627906976744384,
          "durationTicks": 10,
          "midi": 87,
          "name": "D#6",
          "ticks": 21748,
          "time": 252.88372093023256,
          "velocity": 0.1889763779527559
        },
        {
          "duration": 0.3139534883721069,
          "durationTicks": 27,
          "midi": 65,
          "name": "F4",
          "ticks": 21749,
          "time": 252.8953488372093,
          "velocity": 0.3937007874015748
        },
        {
          "duration": 0.06976744186047767,
          "durationTicks": 6,
          "midi": 53,
          "name": "F3",
          "ticks": 21750,
          "time": 252.90697674418604,
          "velocity": 0.4645669291338583
        },
        {
          "duration": 0.023255813953511506,
          "durationTicks": 2,
          "midi": 43,
          "name": "G2",
          "ticks": 21751,
          "time": 252.91860465116278,
          "velocity": 0.25196850393700787
        },
        {
          "duration": 0.023255813953483084,
          "durationTicks": 2,
          "midi": 45,
          "name": "A2",
          "ticks": 21753,
          "time": 252.9418604651163,
          "velocity": 0.31496062992125984
        },
        {
          "duration": 0.023255813953483084,
          "durationTicks": 2,
          "midi": 60,
          "name": "C4",
          "ticks": 21753,
          "time": 252.9418604651163,
          "velocity": 0.25196850393700787
        },
        {
          "duration": 0.2906976744185954,
          "durationTicks": 25,
          "midi": 74,
          "name": "D5",
          "ticks": 21753,
          "time": 252.9418604651163,
          "velocity": 0.25196850393700787
        },
        {
          "duration": 0.023255813953483084,
          "durationTicks": 2,
          "midi": 63,
          "name": "D#4",
          "ticks": 21754,
          "time": 252.95348837209303,
          "velocity": 0.31496062992125984
        },
        {
          "duration": 0.06976744186044925,
          "durationTicks": 6,
          "midi": 81,
          "name": "A5",
          "ticks": 21754,
          "time": 252.95348837209303,
          "velocity": 0.2125984251968504
        },
        {
          "duration": 0.023255813953483084,
          "durationTicks": 2,
          "midi": 59,
          "name": "B3",
          "ticks": 21755,
          "time": 252.96511627906978,
          "velocity": 0.2992125984251969
        },
        {
          "duration": 0.1046511627907023,
          "durationTicks": 9,
          "midi": 79,
          "name": "G5",
          "ticks": 21755,
          "time": 252.96511627906978,
          "velocity": 0.16535433070866143
        },
        {
          "duration": 1.2674418604651123,
          "durationTicks": 109,
          "midi": 62,
          "name": "D4",
          "ticks": 21756,
          "time": 252.97674418604652,
          "velocity": 0.3858267716535433
        },
        {
          "duration": 0.04651162790696617,
          "durationTicks": 4,
          "midi": 53,
          "name": "F3",
          "ticks": 21757,
          "time": 252.98837209302326,
          "velocity": 0.47244094488188976
        },
        {
          "duration": 0.023255813953483084,
          "durationTicks": 2,
          "midi": 43,
          "name": "G2",
          "ticks": 21758,
          "time": 253,
          "velocity": 0.33070866141732286
        },
        {
          "duration": 0.06976744186047767,
          "durationTicks": 6,
          "midi": 101,
          "name": "F7",
          "ticks": 21758,
          "time": 253,
          "velocity": 0.09448818897637795
        },
        {
          "duration": 0.03488372093025305,
          "durationTicks": 3,
          "midi": 53,
          "name": "F3",
          "ticks": 21762,
          "time": 253.04651162790697,
          "velocity": 0.4251968503937008
        },
        {
          "duration": 0.17441860465117998,
          "durationTicks": 15,
          "midi": 87,
          "name": "D#6",
          "ticks": 21762,
          "time": 253.04651162790697,
          "velocity": 0.09448818897637795
        },
        {
          "duration": 0.06976744186044925,
          "durationTicks": 6,
          "midi": 81,
          "name": "A5",
          "ticks": 21764,
          "time": 253.06976744186048,
          "velocity": 0.09448818897637795
        },
        {
          "duration": 0.023255813953483084,
          "durationTicks": 2,
          "midi": 44,
          "name": "G#2",
          "ticks": 21766,
          "time": 253.09302325581396,
          "velocity": 0.30708661417322836
        },
        {
          "duration": 0.023255813953483084,
          "durationTicks": 2,
          "midi": 53,
          "name": "F3",
          "ticks": 21766,
          "time": 253.09302325581396,
          "velocity": 0.36220472440944884
        },
        {
          "duration": 0.023255813953483084,
          "durationTicks": 2,
          "midi": 43,
          "name": "G2",
          "ticks": 21768,
          "time": 253.11627906976744,
          "velocity": 0.2992125984251969
        },
        {
          "duration": 0.023255813953483084,
          "durationTicks": 2,
          "midi": 59,
          "name": "B3",
          "ticks": 21768,
          "time": 253.11627906976744,
          "velocity": 0.2440944881889764
        },
        {
          "duration": 0.034883720930224626,
          "durationTicks": 3,
          "midi": 53,
          "name": "F3",
          "ticks": 21769,
          "time": 253.12790697674419,
          "velocity": 0.3464566929133858
        },
        {
          "duration": 0.03488372093025305,
          "durationTicks": 3,
          "midi": 53,
          "name": "F3",
          "ticks": 21773,
          "time": 253.17441860465115,
          "velocity": 0.33858267716535434
        },
        {
          "duration": 0.09302325581396076,
          "durationTicks": 8,
          "midi": 81,
          "name": "A5",
          "ticks": 21774,
          "time": 253.1860465116279,
          "velocity": 0.18110236220472442
        },
        {
          "duration": 0.023255813953483084,
          "durationTicks": 2,
          "midi": 44,
          "name": "G#2",
          "ticks": 21776,
          "time": 253.2093023255814,
          "velocity": 0.29133858267716534
        },
        {
          "duration": 0.05813953488370771,
          "durationTicks": 5,
          "midi": 66,
          "name": "F#4",
          "ticks": 21776,
          "time": 253.2093023255814,
          "velocity": 0.36220472440944884
        },
        {
          "duration": 0.05813953488370771,
          "durationTicks": 5,
          "midi": 73,
          "name": "C#5",
          "ticks": 21777,
          "time": 253.22093023255815,
          "velocity": 0.25984251968503935
        },
        {
          "duration": 0.023255813953483084,
          "durationTicks": 2,
          "midi": 54,
          "name": "F#3",
          "ticks": 21778,
          "time": 253.2325581395349,
          "velocity": 0.2440944881889764
        },
        {
          "duration": 0.08139534883721922,
          "durationTicks": 7,
          "midi": 65,
          "name": "F4",
          "ticks": 21781,
          "time": 253.2674418604651,
          "velocity": 0.33070866141732286
        },
        {
          "duration": 0.11627906976744384,
          "durationTicks": 10,
          "midi": 72,
          "name": "C5",
          "ticks": 21782,
          "time": 253.27906976744185,
          "velocity": 0.2440944881889764
        },
        {
          "duration": 0.023255813953511506,
          "durationTicks": 2,
          "midi": 44,
          "name": "G#2",
          "ticks": 21783,
          "time": 253.2906976744186,
          "velocity": 0.2992125984251969
        },
        {
          "duration": 0.023255813953483084,
          "durationTicks": 2,
          "midi": 43,
          "name": "G2",
          "ticks": 21785,
          "time": 253.3139534883721,
          "velocity": 0.28346456692913385
        },
        {
          "duration": 0.04651162790696617,
          "durationTicks": 4,
          "midi": 65,
          "name": "F4",
          "ticks": 21789,
          "time": 253.36046511627907,
          "velocity": 0.31496062992125984
        },
        {
          "duration": 0.023255813953483084,
          "durationTicks": 2,
          "midi": 44,
          "name": "G#2",
          "ticks": 21790,
          "time": 253.37209302325581,
          "velocity": 0.2992125984251969
        },
        {
          "duration": 0.06976744186047767,
          "durationTicks": 6,
          "midi": 73,
          "name": "C#5",
          "ticks": 21792,
          "time": 253.3953488372093,
          "velocity": 0.2047244094488189
        },
        {
          "duration": 0.023255813953483084,
          "durationTicks": 2,
          "midi": 44,
          "name": "G#2",
          "ticks": 21793,
          "time": 253.40697674418604,
          "velocity": 0.2992125984251969
        },
        {
          "duration": 0.05813953488373613,
          "durationTicks": 5,
          "midi": 66,
          "name": "F#4",
          "ticks": 21793,
          "time": 253.40697674418604,
          "velocity": 0.3464566929133858
        },
        {
          "duration": 0.03488372093025305,
          "durationTicks": 3,
          "midi": 55,
          "name": "G3",
          "ticks": 21795,
          "time": 253.43023255813952,
          "velocity": 0.2047244094488189
        },
        {
          "duration": 0.034883720930224626,
          "durationTicks": 3,
          "midi": 59,
          "name": "B3",
          "ticks": 21796,
          "time": 253.4418604651163,
          "velocity": 0.18110236220472442
        },
        {
          "duration": 0.034883720930224626,
          "durationTicks": 3,
          "midi": 86,
          "name": "D6",
          "ticks": 21796,
          "time": 253.4418604651163,
          "velocity": 0.18110236220472442
        },
        {
          "duration": 0.023255813953483084,
          "durationTicks": 2,
          "midi": 70,
          "name": "A#4",
          "ticks": 21797,
          "time": 253.45348837209303,
          "velocity": 0.33858267716535434
        },
        {
          "duration": 0.05813953488370771,
          "durationTicks": 5,
          "midi": 84,
          "name": "C6",
          "ticks": 21797,
          "time": 253.45348837209303,
          "velocity": 0.2047244094488189
        },
        {
          "duration": 0.04651162790696617,
          "durationTicks": 4,
          "midi": 99,
          "name": "D#7",
          "ticks": 21797,
          "time": 253.45348837209303,
          "velocity": 0.11023622047244094
        },
        {
          "duration": 0.15116279069766847,
          "durationTicks": 13,
          "midi": 65,
          "name": "F4",
          "ticks": 21798,
          "time": 253.46511627906978,
          "velocity": 0.28346456692913385
        },
        {
          "duration": 0.034883720930224626,
          "durationTicks": 3,
          "midi": 74,
          "name": "D5",
          "ticks": 21798,
          "time": 253.46511627906978,
          "velocity": 0.3937007874015748
        },
        {
          "duration": 0.04651162790696617,
          "durationTicks": 4,
          "midi": 87,
          "name": "D#6",
          "ticks": 21798,
          "time": 253.46511627906978,
          "velocity": 0.1732283464566929
        },
        {
          "duration": 0.7674418604651123,
          "durationTicks": 66,
          "midi": 55,
          "name": "G3",
          "ticks": 21799,
          "time": 253.47674418604652,
          "velocity": 0.33070866141732286
        },
        {
          "duration": 0.023255813953483084,
          "durationTicks": 2,
          "midi": 71,
          "name": "B4",
          "ticks": 21799,
          "time": 253.47674418604652,
          "velocity": 0.25984251968503935
        },
        {
          "duration": 0.11627906976744384,
          "durationTicks": 10,
          "midi": 72,
          "name": "C5",
          "ticks": 21800,
          "time": 253.48837209302326,
          "velocity": 0.25196850393700787
        },
        {
          "duration": 0.04651162790696617,
          "durationTicks": 4,
          "midi": 70,
          "name": "A#4",
          "ticks": 21801,
          "time": 253.5,
          "velocity": 0.1889763779527559
        },
        {
          "duration": 0.023255813953483084,
          "durationTicks": 2,
          "midi": 43,
          "name": "G2",
          "ticks": 21802,
          "time": 253.51162790697674,
          "velocity": 0.2440944881889764
        },
        {
          "duration": 0.06976744186047767,
          "durationTicks": 6,
          "midi": 81,
          "name": "A5",
          "ticks": 21804,
          "time": 253.53488372093022,
          "velocity": 0.11023622047244094
        },
        {
          "duration": 0.023255813953483084,
          "durationTicks": 2,
          "midi": 66,
          "name": "F#4",
          "ticks": 21811,
          "time": 253.61627906976744,
          "velocity": 0.2755905511811024
        },
        {
          "duration": 0.04651162790696617,
          "durationTicks": 4,
          "midi": 73,
          "name": "C#5",
          "ticks": 21811,
          "time": 253.61627906976744,
          "velocity": 0.13385826771653545
        },
        {
          "duration": 0.09302325581396076,
          "durationTicks": 8,
          "midi": 65,
          "name": "F4",
          "ticks": 21815,
          "time": 253.6627906976744,
          "velocity": 0.23622047244094488
        },
        {
          "duration": 0.06976744186047767,
          "durationTicks": 6,
          "midi": 72,
          "name": "C5",
          "ticks": 21815,
          "time": 253.6627906976744,
          "velocity": 0.08661417322834646
        },
        {
          "duration": 0.023255813953483084,
          "durationTicks": 2,
          "midi": 45,
          "name": "A2",
          "ticks": 21820,
          "time": 253.72093023255815,
          "velocity": 0.25196850393700787
        },
        {
          "duration": 0.023255813953483084,
          "durationTicks": 2,
          "midi": 44,
          "name": "G#2",
          "ticks": 21824,
          "time": 253.7674418604651,
          "velocity": 0.25196850393700787
        },
        {
          "duration": 0.023255813953511506,
          "durationTicks": 2,
          "midi": 45,
          "name": "A2",
          "ticks": 21827,
          "time": 253.80232558139534,
          "velocity": 0.2283464566929134
        },
        {
          "duration": 0.04651162790699459,
          "durationTicks": 4,
          "midi": 66,
          "name": "F#4",
          "ticks": 21827,
          "time": 253.80232558139534,
          "velocity": 0.1968503937007874
        },
        {
          "duration": 0.034883720930224626,
          "durationTicks": 3,
          "midi": 42,
          "name": "F#2",
          "ticks": 21834,
          "time": 253.88372093023256,
          "velocity": 0.4015748031496063
        },
        {
          "duration": 0.034883720930224626,
          "durationTicks": 3,
          "midi": 48,
          "name": "C3",
          "ticks": 21845,
          "time": 254.01162790697674,
          "velocity": 0.1889763779527559
        },
        {
          "duration": 0.023255813953483084,
          "durationTicks": 2,
          "midi": 70,
          "name": "A#4",
          "ticks": 21855,
          "time": 254.12790697674419,
          "velocity": 0.3700787401574803
        },
        {
          "duration": 0.034883720930224626,
          "durationTicks": 3,
          "midi": 71,
          "name": "B4",
          "ticks": 21857,
          "time": 254.15116279069767,
          "velocity": 0.23622047244094488
        },
        {
          "duration": 0.011627906976741542,
          "durationTicks": 1,
          "midi": 42,
          "name": "F#2",
          "ticks": 21866,
          "time": 254.25581395348837,
          "velocity": 0.5354330708661418
        },
        {
          "duration": 0.30232558139533694,
          "durationTicks": 26,
          "midi": 62,
          "name": "D4",
          "ticks": 21866,
          "time": 254.25581395348837,
          "velocity": 0.29133858267716534
        },
        {
          "duration": 0.011627906976741542,
          "durationTicks": 1,
          "midi": 41,
          "name": "F2",
          "ticks": 21867,
          "time": 254.2674418604651,
          "velocity": 0.5118110236220472
        },
        {
          "duration": 0.05813953488373613,
          "durationTicks": 5,
          "midi": 91,
          "name": "G6",
          "ticks": 21868,
          "time": 254.27906976744185,
          "velocity": 0.2047244094488189
        },
        {
          "duration": 0.023255813953511506,
          "durationTicks": 2,
          "midi": 41,
          "name": "F2",
          "ticks": 21869,
          "time": 254.2906976744186,
          "velocity": 0.33070866141732286
        },
        {
          "duration": 0.22093023255814614,
          "durationTicks": 19,
          "midi": 55,
          "name": "G3",
          "ticks": 21869,
          "time": 254.2906976744186,
          "velocity": 0.4251968503937008
        },
        {
          "duration": 0.023255813953511506,
          "durationTicks": 2,
          "midi": 43,
          "name": "G2",
          "ticks": 21880,
          "time": 254.41860465116278,
          "velocity": 0.25196850393700787
        },
        {
          "duration": 0.04651162790696617,
          "durationTicks": 4,
          "midi": 74,
          "name": "D5",
          "ticks": 21886,
          "time": 254.48837209302326,
          "velocity": 0.3543307086614173
        },
        {
          "duration": 0.05813953488370771,
          "durationTicks": 5,
          "midi": 65,
          "name": "F4",
          "ticks": 21887,
          "time": 254.5,
          "velocity": 0.30708661417322836
        },
        {
          "duration": 0.023255813953483084,
          "durationTicks": 2,
          "midi": 70,
          "name": "A#4",
          "ticks": 21887,
          "time": 254.5,
          "velocity": 0.4094488188976378
        },
        {
          "duration": 0.05813953488370771,
          "durationTicks": 5,
          "midi": 83,
          "name": "B5",
          "ticks": 21887,
          "time": 254.5,
          "velocity": 0.25196850393700787
        },
        {
          "duration": 0.023255813953483084,
          "durationTicks": 2,
          "midi": 54,
          "name": "F#3",
          "ticks": 21888,
          "time": 254.51162790697674,
          "velocity": 0.49606299212598426
        },
        {
          "duration": 0.034883720930224626,
          "durationTicks": 3,
          "midi": 87,
          "name": "D#6",
          "ticks": 21888,
          "time": 254.51162790697674,
          "velocity": 0.11023622047244094
        },
        {
          "duration": 0.034883720930224626,
          "durationTicks": 3,
          "midi": 71,
          "name": "B4",
          "ticks": 21889,
          "time": 254.52325581395348,
          "velocity": 0.33858267716535434
        },
        {
          "duration": 0.03488372093025305,
          "durationTicks": 3,
          "midi": 53,
          "name": "F3",
          "ticks": 21890,
          "time": 254.53488372093022,
          "velocity": 0.48031496062992124
        },
        {
          "duration": 0.03488372093025305,
          "durationTicks": 3,
          "midi": 64,
          "name": "E4",
          "ticks": 21892,
          "time": 254.5581395348837,
          "velocity": 0.33070866141732286
        },
        {
          "duration": 0.1046511627907023,
          "durationTicks": 9,
          "midi": 55,
          "name": "G3",
          "ticks": 21895,
          "time": 254.59302325581396,
          "velocity": 0.3464566929133858
        },
        {
          "duration": 0.05813953488370771,
          "durationTicks": 5,
          "midi": 62,
          "name": "D4",
          "ticks": 21896,
          "time": 254.6046511627907,
          "velocity": 0.3228346456692913
        },
        {
          "duration": 0.023255813953483084,
          "durationTicks": 2,
          "midi": 50,
          "name": "D3",
          "ticks": 21897,
          "time": 254.61627906976744,
          "velocity": 0.31496062992125984
        },
        {
          "duration": 0.034883720930224626,
          "durationTicks": 3,
          "midi": 49,
          "name": "C#3",
          "ticks": 21899,
          "time": 254.63953488372093,
          "velocity": 0.3228346456692913
        },
        {
          "duration": 0.034883720930224626,
          "durationTicks": 3,
          "midi": 68,
          "name": "G#4",
          "ticks": 21899,
          "time": 254.63953488372093,
          "velocity": 0.07874015748031496
        },
        {
          "duration": 0.03488372093025305,
          "durationTicks": 3,
          "midi": 48,
          "name": "C3",
          "ticks": 21902,
          "time": 254.67441860465115,
          "velocity": 0.33070866141732286
        },
        {
          "duration": 0.034883720930224626,
          "durationTicks": 3,
          "midi": 47,
          "name": "B2",
          "ticks": 21905,
          "time": 254.7093023255814,
          "velocity": 0.3228346456692913
        },
        {
          "duration": 0.0813953488371908,
          "durationTicks": 7,
          "midi": 55,
          "name": "G3",
          "ticks": 21906,
          "time": 254.72093023255815,
          "velocity": 0.29133858267716534
        },
        {
          "duration": 0.04651162790696617,
          "durationTicks": 4,
          "midi": 46,
          "name": "A#2",
          "ticks": 21908,
          "time": 254.74418604651163,
          "velocity": 0.3937007874015748
        },
        {
          "duration": 0.04651162790699459,
          "durationTicks": 4,
          "midi": 64,
          "name": "E4",
          "ticks": 21911,
          "time": 254.77906976744185,
          "velocity": 0.16535433070866143
        },
        {
          "duration": 0.03488372093025305,
          "durationTicks": 3,
          "midi": 71,
          "name": "B4",
          "ticks": 21911,
          "time": 254.77906976744185,
          "velocity": 0.12598425196850394
        },
        {
          "duration": 0.023255813953511506,
          "durationTicks": 2,
          "midi": 44,
          "name": "G#2",
          "ticks": 21913,
          "time": 254.80232558139534,
          "velocity": 0.44881889763779526
        },
        {
          "duration": 0.023255813953483084,
          "durationTicks": 2,
          "midi": 45,
          "name": "A2",
          "ticks": 21915,
          "time": 254.82558139534885,
          "velocity": 0.3858267716535433
        },
        {
          "duration": 0.04651162790696617,
          "durationTicks": 4,
          "midi": 56,
          "name": "G#3",
          "ticks": 21915,
          "time": 254.82558139534885,
          "velocity": 0.2047244094488189
        },
        {
          "duration": 0.04651162790696617,
          "durationTicks": 4,
          "midi": 44,
          "name": "G#2",
          "ticks": 21917,
          "time": 254.84883720930233,
          "velocity": 0.3937007874015748
        },
        {
          "duration": 0.023255813953483084,
          "durationTicks": 2,
          "midi": 70,
          "name": "A#4",
          "ticks": 21920,
          "time": 254.88372093023256,
          "velocity": 0.2283464566929134
        },
        {
          "duration": 0.023255813953483084,
          "durationTicks": 2,
          "midi": 45,
          "name": "A2",
          "ticks": 21921,
          "time": 254.8953488372093,
          "velocity": 0.3937007874015748
        },
        {
          "duration": 0.023255813953483084,
          "durationTicks": 2,
          "midi": 56,
          "name": "G#3",
          "ticks": 21922,
          "time": 254.90697674418604,
          "velocity": 0.2283464566929134
        },
        {
          "duration": 0.034883720930224626,
          "durationTicks": 3,
          "midi": 52,
          "name": "E3",
          "ticks": 21925,
          "time": 254.9418604651163,
          "velocity": 0.2204724409448819
        },
        {
          "duration": 0.034883720930224626,
          "durationTicks": 3,
          "midi": 40,
          "name": "E2",
          "ticks": 21927,
          "time": 254.96511627906978,
          "velocity": 0.25196850393700787
        },
        {
          "duration": 0.034883720930224626,
          "durationTicks": 3,
          "midi": 65,
          "name": "F4",
          "ticks": 21929,
          "time": 254.98837209302326,
          "velocity": 0.14173228346456693
        },
        {
          "duration": 0.023255813953483084,
          "durationTicks": 2,
          "midi": 71,
          "name": "B4",
          "ticks": 21931,
          "time": 255.01162790697674,
          "velocity": 0.25196850393700787
        },
        {
          "duration": 0.023255813953483084,
          "durationTicks": 2,
          "midi": 46,
          "name": "A#2",
          "ticks": 21932,
          "time": 255.02325581395348,
          "velocity": 0.2992125984251969
        },
        {
          "duration": 0.05813953488373613,
          "durationTicks": 5,
          "midi": 75,
          "name": "D#5",
          "ticks": 21932,
          "time": 255.02325581395348,
          "velocity": 0.2677165354330709
        },
        {
          "duration": 0.034883720930224626,
          "durationTicks": 3,
          "midi": 86,
          "name": "D6",
          "ticks": 21932,
          "time": 255.02325581395348,
          "velocity": 0.10236220472440945
        },
        {
          "duration": 0.15116279069766847,
          "durationTicks": 13,
          "midi": 58,
          "name": "A#3",
          "ticks": 21933,
          "time": 255.03488372093022,
          "velocity": 0.4645669291338583
        },
        {
          "duration": 0.2674418604651123,
          "durationTicks": 23,
          "midi": 65,
          "name": "F4",
          "ticks": 21933,
          "time": 255.03488372093022,
          "velocity": 0.3228346456692913
        },
        {
          "duration": 0.5116279069767415,
          "durationTicks": 44,
          "midi": 72,
          "name": "C5",
          "ticks": 21933,
          "time": 255.03488372093022,
          "velocity": 0.2755905511811024
        },
        {
          "duration": 0.08139534883721922,
          "durationTicks": 7,
          "midi": 79,
          "name": "G5",
          "ticks": 21933,
          "time": 255.03488372093022,
          "velocity": 0.16535433070866143
        },
        {
          "duration": 0.05813953488373613,
          "durationTicks": 5,
          "midi": 93,
          "name": "A6",
          "ticks": 21933,
          "time": 255.03488372093022,
          "velocity": 0.11811023622047244
        },
        {
          "duration": 0.023255813953511506,
          "durationTicks": 2,
          "midi": 42,
          "name": "F#2",
          "ticks": 21935,
          "time": 255.0581395348837,
          "velocity": 0.33858267716535434
        },
        {
          "duration": 0.023255813953511506,
          "durationTicks": 2,
          "midi": 53,
          "name": "F3",
          "ticks": 21935,
          "time": 255.0581395348837,
          "velocity": 0.25984251968503935
        },
        {
          "duration": 0.023255813953483084,
          "durationTicks": 2,
          "midi": 74,
          "name": "D5",
          "ticks": 21937,
          "time": 255.08139534883722,
          "velocity": 0.23622047244094488
        },
        {
          "duration": 0.3139534883720785,
          "durationTicks": 27,
          "midi": 53,
          "name": "F3",
          "ticks": 21938,
          "time": 255.09302325581396,
          "velocity": 0.36220472440944884
        },
        {
          "duration": 0.25581395348837077,
          "durationTicks": 22,
          "midi": 75,
          "name": "D#5",
          "ticks": 21938,
          "time": 255.09302325581396,
          "velocity": 0.2283464566929134
        },
        {
          "duration": 0.023255813953483084,
          "durationTicks": 2,
          "midi": 44,
          "name": "G#2",
          "ticks": 21941,
          "time": 255.12790697674419,
          "velocity": 0.4094488188976378
        },
        {
          "duration": 0.023255813953511506,
          "durationTicks": 2,
          "midi": 41,
          "name": "F2",
          "ticks": 21945,
          "time": 255.17441860465115,
          "velocity": 0.33858267716535434
        },
        {
          "duration": 0.1511627906976969,
          "durationTicks": 13,
          "midi": 79,
          "name": "G5",
          "ticks": 21946,
          "time": 255.1860465116279,
          "velocity": 0.09448818897637795
        },
        {
          "duration": 0.13953488372092693,
          "durationTicks": 12,
          "midi": 58,
          "name": "A#3",
          "ticks": 21947,
          "time": 255.19767441860466,
          "velocity": 0.4251968503937008
        },
        {
          "duration": 0.034883720930224626,
          "durationTicks": 3,
          "midi": 86,
          "name": "D6",
          "ticks": 21949,
          "time": 255.22093023255815,
          "velocity": 0.07874015748031496
        },
        {
          "duration": 0.023255813953483084,
          "durationTicks": 2,
          "midi": 45,
          "name": "A2",
          "ticks": 21953,
          "time": 255.2674418604651,
          "velocity": 0.4566929133858268
        },
        {
          "duration": 0.023255813953511506,
          "durationTicks": 2,
          "midi": 45,
          "name": "A2",
          "ticks": 21956,
          "time": 255.30232558139534,
          "velocity": 0.4566929133858268
        },
        {
          "duration": 0.06976744186044925,
          "durationTicks": 6,
          "midi": 74,
          "name": "D5",
          "ticks": 21960,
          "time": 255.34883720930233,
          "velocity": 0.2125984251968504
        },
        {
          "duration": 0.04651162790696617,
          "durationTicks": 4,
          "midi": 58,
          "name": "A#3",
          "ticks": 21961,
          "time": 255.36046511627907,
          "velocity": 0.2992125984251969
        },
        {
          "duration": 0.023255813953483084,
          "durationTicks": 2,
          "midi": 46,
          "name": "A#2",
          "ticks": 21963,
          "time": 255.38372093023256,
          "velocity": 0.41732283464566927
        },
        {
          "duration": 0.023255813953511506,
          "durationTicks": 2,
          "midi": 46,
          "name": "A#2",
          "ticks": 21966,
          "time": 255.41860465116278,
          "velocity": 0.41732283464566927
        },
        {
          "duration": 0.1511627906976969,
          "durationTicks": 13,
          "midi": 53,
          "name": "F3",
          "ticks": 21966,
          "time": 255.41860465116278,
          "velocity": 0.33858267716535434
        },
        {
          "duration": 0.08139534883721922,
          "durationTicks": 7,
          "midi": 75,
          "name": "D#5",
          "ticks": 21966,
          "time": 255.41860465116278,
          "velocity": 0.14173228346456693
        },
        {
          "duration": 0.034883720930224626,
          "durationTicks": 3,
          "midi": 64,
          "name": "E4",
          "ticks": 21972,
          "time": 255.48837209302326,
          "velocity": 0.12598425196850394
        },
        {
          "duration": 0.1046511627907023,
          "durationTicks": 9,
          "midi": 74,
          "name": "D5",
          "ticks": 21973,
          "time": 255.5,
          "velocity": 0.33858267716535434
        },
        {
          "duration": 0.023255813953483084,
          "durationTicks": 2,
          "midi": 46,
          "name": "A#2",
          "ticks": 21975,
          "time": 255.52325581395348,
          "velocity": 0.44881889763779526
        },
        {
          "duration": 0.023255813953511506,
          "durationTicks": 2,
          "midi": 45,
          "name": "A2",
          "ticks": 21977,
          "time": 255.54651162790697,
          "velocity": 0.4251968503937008
        },
        {
          "duration": 0.03488372093025305,
          "durationTicks": 3,
          "midi": 87,
          "name": "D#6",
          "ticks": 21977,
          "time": 255.54651162790697,
          "velocity": 0.15748031496062992
        },
        {
          "duration": 0.04651162790699459,
          "durationTicks": 4,
          "midi": 71,
          "name": "B4",
          "ticks": 21978,
          "time": 255.5581395348837,
          "velocity": 0.41732283464566927
        },
        {
          "duration": 0.03488372093025305,
          "durationTicks": 3,
          "midi": 81,
          "name": "A5",
          "ticks": 21978,
          "time": 255.5581395348837,
          "velocity": 0.14173228346456693
        },
        {
          "duration": 0.03488372093025305,
          "durationTicks": 3,
          "midi": 85,
          "name": "C#6",
          "ticks": 21978,
          "time": 255.5581395348837,
          "velocity": 0.12598425196850394
        },
        {
          "duration": 0.0813953488371908,
          "durationTicks": 7,
          "midi": 58,
          "name": "A#3",
          "ticks": 21979,
          "time": 255.56976744186048,
          "velocity": 0.3543307086614173
        },
        {
          "duration": 0.034883720930224626,
          "durationTicks": 3,
          "midi": 46,
          "name": "A#2",
          "ticks": 21980,
          "time": 255.58139534883722,
          "velocity": 0.4566929133858268
        },
        {
          "duration": 0.06976744186044925,
          "durationTicks": 6,
          "midi": 53,
          "name": "F3",
          "ticks": 21980,
          "time": 255.58139534883722,
          "velocity": 0.2755905511811024
        },
        {
          "duration": 0.32558139534882,
          "durationTicks": 28,
          "midi": 72,
          "name": "C5",
          "ticks": 21982,
          "time": 255.6046511627907,
          "velocity": 0.1732283464566929
        },
        {
          "duration": 0.023255813953483084,
          "durationTicks": 2,
          "midi": 46,
          "name": "A#2",
          "ticks": 21984,
          "time": 255.62790697674419,
          "velocity": 0.41732283464566927
        },
        {
          "duration": 0.05813953488373613,
          "durationTicks": 5,
          "midi": 74,
          "name": "D5",
          "ticks": 21985,
          "time": 255.63953488372093,
          "velocity": 0.1889763779527559
        },
        {
          "duration": 0.023255813953483084,
          "durationTicks": 2,
          "midi": 57,
          "name": "A3",
          "ticks": 21986,
          "time": 255.65116279069767,
          "velocity": 0.3464566929133858
        },
        {
          "duration": 0.05813953488373613,
          "durationTicks": 5,
          "midi": 53,
          "name": "F3",
          "ticks": 21987,
          "time": 255.6627906976744,
          "velocity": 0.25196850393700787
        },
        {
          "duration": 0.05813953488373613,
          "durationTicks": 5,
          "midi": 58,
          "name": "A#3",
          "ticks": 21988,
          "time": 255.67441860465115,
          "velocity": 0.28346456692913385
        },
        {
          "duration": 0.023255813953483084,
          "durationTicks": 2,
          "midi": 46,
          "name": "A#2",
          "ticks": 21990,
          "time": 255.69767441860466,
          "velocity": 0.4330708661417323
        },
        {
          "duration": 0.034883720930224626,
          "durationTicks": 3,
          "midi": 58,
          "name": "A#3",
          "ticks": 21994,
          "time": 255.74418604651163,
          "velocity": 0.2755905511811024
        },
        {
          "duration": 0.33720930232556157,
          "durationTicks": 29,
          "midi": 74,
          "name": "D5",
          "ticks": 21994,
          "time": 255.74418604651163,
          "velocity": 0.2125984251968504
        },
        {
          "duration": 0.023255813953483084,
          "durationTicks": 2,
          "midi": 46,
          "name": "A#2",
          "ticks": 21995,
          "time": 255.75581395348837,
          "velocity": 0.48031496062992124
        },
        {
          "duration": 0.05813953488373613,
          "durationTicks": 5,
          "midi": 53,
          "name": "F3",
          "ticks": 21995,
          "time": 255.75581395348837,
          "velocity": 0.2125984251968504
        },
        {
          "duration": 0.1511627906976969,
          "durationTicks": 13,
          "midi": 46,
          "name": "A#2",
          "ticks": 21998,
          "time": 255.7906976744186,
          "velocity": 0.47244094488188976
        },
        {
          "duration": 0.11627906976744384,
          "durationTicks": 10,
          "midi": 60,
          "name": "C4",
          "ticks": 22001,
          "time": 255.82558139534885,
          "velocity": 0.1732283464566929
        },
        {
          "duration": 0.011627906976741542,
          "durationTicks": 1,
          "midi": 47,
          "name": "B2",
          "ticks": 22011,
          "time": 255.9418604651163,
          "velocity": 0.5118110236220472
        },
        {
          "duration": 0.023255813953483084,
          "durationTicks": 2,
          "midi": 57,
          "name": "A3",
          "ticks": 22011,
          "time": 255.9418604651163,
          "velocity": 0.28346456692913385
        },
        {
          "duration": 0.011627906976741542,
          "durationTicks": 1,
          "midi": 45,
          "name": "A2",
          "ticks": 22012,
          "time": 255.95348837209303,
          "velocity": 0.5669291338582677
        },
        {
          "duration": 0.2674418604651123,
          "durationTicks": 23,
          "midi": 65,
          "name": "F4",
          "ticks": 22012,
          "time": 255.95348837209303,
          "velocity": 0.23622047244094488
        },
        {
          "duration": 0.034883720930224626,
          "durationTicks": 3,
          "midi": 70,
          "name": "A#4",
          "ticks": 22012,
          "time": 255.95348837209303,
          "velocity": 0.08661417322834646
        },
        {
          "duration": 0.011627906976741542,
          "durationTicks": 1,
          "midi": 44,
          "name": "G#2",
          "ticks": 22013,
          "time": 255.96511627906978,
          "velocity": 0.5118110236220472
        },
        {
          "duration": 0.05813953488370771,
          "durationTicks": 5,
          "midi": 58,
          "name": "A#3",
          "ticks": 22013,
          "time": 255.96511627906978,
          "velocity": 0.30708661417322836
        },
        {
          "duration": 0.06976744186044925,
          "durationTicks": 6,
          "midi": 46,
          "name": "A#2",
          "ticks": 22017,
          "time": 256.01162790697674,
          "velocity": 0.48031496062992124
        },
        {
          "duration": 0.10465116279073072,
          "durationTicks": 9,
          "midi": 46,
          "name": "A#2",
          "ticks": 22024,
          "time": 256.09302325581393,
          "velocity": 0.48031496062992124
        },
        {
          "duration": 0.11627906976747227,
          "durationTicks": 10,
          "midi": 74,
          "name": "D5",
          "ticks": 22025,
          "time": 256.1046511627907,
          "velocity": 0.3858267716535433
        },
        {
          "duration": 0.12790697674415696,
          "durationTicks": 11,
          "midi": 58,
          "name": "A#3",
          "ticks": 22033,
          "time": 256.19767441860466,
          "velocity": 0.3700787401574803
        },
        {
          "duration": 0.034883720930224626,
          "durationTicks": 3,
          "midi": 83,
          "name": "B5",
          "ticks": 22033,
          "time": 256.19767441860466,
          "velocity": 0.1732283464566929
        },
        {
          "duration": 0.023255813953483084,
          "durationTicks": 2,
          "midi": 73,
          "name": "C#5",
          "ticks": 22035,
          "time": 256.22093023255815,
          "velocity": 0.29133858267716534
        },
        {
          "duration": 0.09302325581393234,
          "durationTicks": 8,
          "midi": 46,
          "name": "A#2",
          "ticks": 22036,
          "time": 256.2325581395349,
          "velocity": 0.48031496062992124
        },
        {
          "duration": 0.034883720930224626,
          "durationTicks": 3,
          "midi": 69,
          "name": "A4",
          "ticks": 22036,
          "time": 256.2325581395349,
          "velocity": 0.08661417322834646
        },
        {
          "duration": 0.2674418604651123,
          "durationTicks": 23,
          "midi": 65,
          "name": "F4",
          "ticks": 22038,
          "time": 256.25581395348837,
          "velocity": 0.2125984251968504
        },
        {
          "duration": 0.011627906976741542,
          "durationTicks": 1,
          "midi": 40,
          "name": "E2",
          "ticks": 22045,
          "time": 256.33720930232556,
          "velocity": 0.5275590551181102
        },
        {
          "duration": 0.19767441860466306,
          "durationTicks": 17,
          "midi": 58,
          "name": "A#3",
          "ticks": 22045,
          "time": 256.33720930232556,
          "velocity": 0.33070866141732286
        },
        {
          "duration": 0.011627906976741542,
          "durationTicks": 1,
          "midi": 44,
          "name": "G#2",
          "ticks": 22046,
          "time": 256.3488372093023,
          "velocity": 0.5196850393700787
        },
        {
          "duration": 0.023255813953539928,
          "durationTicks": 2,
          "midi": 46,
          "name": "A#2",
          "ticks": 22048,
          "time": 256.3720930232558,
          "velocity": 0.47244094488188976
        },
        {
          "duration": 0.12790697674415696,
          "durationTicks": 11,
          "midi": 46,
          "name": "A#2",
          "ticks": 22051,
          "time": 256.40697674418607,
          "velocity": 0.47244094488188976
        },
        {
          "duration": 0.0813953488371908,
          "durationTicks": 7,
          "midi": 74,
          "name": "D5",
          "ticks": 22053,
          "time": 256.43023255813955,
          "velocity": 0.12598425196850394
        },
        {
          "duration": 0.023255813953483084,
          "durationTicks": 2,
          "midi": 47,
          "name": "B2",
          "ticks": 22062,
          "time": 256.5348837209302,
          "velocity": 0.44881889763779526
        },
        {
          "duration": 0.023255813953483084,
          "durationTicks": 2,
          "midi": 48,
          "name": "C3",
          "ticks": 22064,
          "time": 256.5581395348837,
          "velocity": 0.3937007874015748
        },
        {
          "duration": 0.023255813953483084,
          "durationTicks": 2,
          "midi": 50,
          "name": "D3",
          "ticks": 22067,
          "time": 256.59302325581393,
          "velocity": 0.41732283464566927
        },
        {
          "duration": 0.058139534883764554,
          "durationTicks": 5,
          "midi": 81,
          "name": "A5",
          "ticks": 22067,
          "time": 256.59302325581393,
          "velocity": 0.13385826771653545
        },
        {
          "duration": 0.09302325581398918,
          "durationTicks": 8,
          "midi": 83,
          "name": "B5",
          "ticks": 22067,
          "time": 256.59302325581393,
          "velocity": 0.36220472440944884
        },
        {
          "duration": 0.023255813953483084,
          "durationTicks": 2,
          "midi": 84,
          "name": "C6",
          "ticks": 22067,
          "time": 256.59302325581393,
          "velocity": 0.2755905511811024
        },
        {
          "duration": 0.058139534883764554,
          "durationTicks": 5,
          "midi": 86,
          "name": "D6",
          "ticks": 22067,
          "time": 256.59302325581393,
          "velocity": 0.1968503937007874
        },
        {
          "duration": 0.023255813953539928,
          "durationTicks": 2,
          "midi": 70,
          "name": "A#4",
          "ticks": 22068,
          "time": 256.6046511627907,
          "velocity": 0.3937007874015748
        },
        {
          "duration": 0.11627906976747227,
          "durationTicks": 10,
          "midi": 74,
          "name": "D5",
          "ticks": 22068,
          "time": 256.6046511627907,
          "velocity": 0.2677165354330709
        },
        {
          "duration": 0.03488372093028147,
          "durationTicks": 3,
          "midi": 52,
          "name": "E3",
          "ticks": 22069,
          "time": 256.6162790697674,
          "velocity": 0.5039370078740157
        },
        {
          "duration": 0.023255813953483084,
          "durationTicks": 2,
          "midi": 71,
          "name": "B4",
          "ticks": 22070,
          "time": 256.6279069767442,
          "velocity": 0.25984251968503935
        },
        {
          "duration": 0.41860465116275236,
          "durationTicks": 36,
          "midi": 53,
          "name": "F3",
          "ticks": 22072,
          "time": 256.6511627906977,
          "velocity": 0.49606299212598426
        },
        {
          "duration": 0.04651162790696617,
          "durationTicks": 4,
          "midi": 70,
          "name": "A#4",
          "ticks": 22072,
          "time": 256.6511627906977,
          "velocity": 0.2204724409448819
        },
        {
          "duration": 0.1395348837208985,
          "durationTicks": 12,
          "midi": 72,
          "name": "C5",
          "ticks": 22075,
          "time": 256.6860465116279,
          "velocity": 0.2125984251968504
        },
        {
          "duration": 0.034883720930224626,
          "durationTicks": 3,
          "midi": 45,
          "name": "A2",
          "ticks": 22087,
          "time": 256.8255813953488,
          "velocity": 0.2047244094488189
        },
        {
          "duration": 0.03488372093028147,
          "durationTicks": 3,
          "midi": 58,
          "name": "A#3",
          "ticks": 22091,
          "time": 256.8720930232558,
          "velocity": 0.14960629921259844
        },
        {
          "duration": 0.023255813953483084,
          "durationTicks": 2,
          "midi": 44,
          "name": "G#2",
          "ticks": 22092,
          "time": 256.8837209302326,
          "velocity": 0.4015748031496063
        },
        {
          "duration": 0.023255813953483084,
          "durationTicks": 2,
          "midi": 42,
          "name": "F#2",
          "ticks": 22094,
          "time": 256.90697674418607,
          "velocity": 0.31496062992125984
        },
        {
          "duration": 0.1395348837208985,
          "durationTicks": 12,
          "midi": 87,
          "name": "D#6",
          "ticks": 22094,
          "time": 256.90697674418607,
          "velocity": 0.1968503937007874
        },
        {
          "duration": 0.04651162790696617,
          "durationTicks": 4,
          "midi": 43,
          "name": "G2",
          "ticks": 22101,
          "time": 256.98837209302326,
          "velocity": 0.30708661417322836
        },
        {
          "duration": 0.05813953488370771,
          "durationTicks": 5,
          "midi": 72,
          "name": "C5",
          "ticks": 22103,
          "time": 257.01162790697674,
          "velocity": 0.14173228346456693
        },
        {
          "duration": 0.023255813953483084,
          "durationTicks": 2,
          "midi": 42,
          "name": "F#2",
          "ticks": 22105,
          "time": 257.0348837209302,
          "velocity": 0.33070866141732286
        },
        {
          "duration": 0.8372093023256184,
          "durationTicks": 72,
          "midi": 64,
          "name": "E4",
          "ticks": 22107,
          "time": 257.0581395348837,
          "velocity": 0.4094488188976378
        },
        {
          "duration": 0.11627906976747227,
          "durationTicks": 10,
          "midi": 71,
          "name": "B4",
          "ticks": 22108,
          "time": 257.06976744186045,
          "velocity": 0.2125984251968504
        },
        {
          "duration": 0.023255813953539928,
          "durationTicks": 2,
          "midi": 44,
          "name": "G#2",
          "ticks": 22111,
          "time": 257.1046511627907,
          "velocity": 0.4015748031496063
        },
        {
          "duration": 0.11627906976741542,
          "durationTicks": 10,
          "midi": 55,
          "name": "G3",
          "ticks": 22113,
          "time": 257.1279069767442,
          "velocity": 0.5590551181102362
        },
        {
          "duration": 0.06976744186044925,
          "durationTicks": 6,
          "midi": 74,
          "name": "D5",
          "ticks": 22114,
          "time": 257.13953488372096,
          "velocity": 0.14960629921259844
        },
        {
          "duration": 0.5348837209302246,
          "durationTicks": 46,
          "midi": 86,
          "name": "D6",
          "ticks": 22114,
          "time": 257.13953488372096,
          "velocity": 0.2440944881889764
        },
        {
          "duration": 0.05813953488370771,
          "durationTicks": 5,
          "midi": 72,
          "name": "C5",
          "ticks": 22118,
          "time": 257.1860465116279,
          "velocity": 0.1968503937007874
        },
        {
          "duration": 0.2906976744185954,
          "durationTicks": 25,
          "midi": 79,
          "name": "G5",
          "ticks": 22121,
          "time": 257.22093023255815,
          "velocity": 0.11023622047244094
        },
        {
          "duration": 0.023255813953483084,
          "durationTicks": 2,
          "midi": 71,
          "name": "B4",
          "ticks": 22122,
          "time": 257.2325581395349,
          "velocity": 0.23622047244094488
        },
        {
          "duration": 0.023255813953483084,
          "durationTicks": 2,
          "midi": 45,
          "name": "A2",
          "ticks": 22123,
          "time": 257.24418604651163,
          "velocity": 0.3228346456692913
        },
        {
          "duration": 0.9302325581395507,
          "durationTicks": 80,
          "midi": 67,
          "name": "G4",
          "ticks": 22123,
          "time": 257.24418604651163,
          "velocity": 0.2204724409448819
        },
        {
          "duration": 0.1511627906976969,
          "durationTicks": 13,
          "midi": 72,
          "name": "C5",
          "ticks": 22124,
          "time": 257.25581395348837,
          "velocity": 0.2440944881889764
        },
        {
          "duration": 0.0813953488371908,
          "durationTicks": 7,
          "midi": 88,
          "name": "E6",
          "ticks": 22124,
          "time": 257.25581395348837,
          "velocity": 0.13385826771653545
        },
        {
          "duration": 0.023255813953483084,
          "durationTicks": 2,
          "midi": 44,
          "name": "G#2",
          "ticks": 22126,
          "time": 257.27906976744185,
          "velocity": 0.3700787401574803
        },
        {
          "duration": 0.24418604651162923,
          "durationTicks": 21,
          "midi": 74,
          "name": "D5",
          "ticks": 22126,
          "time": 257.27906976744185,
          "velocity": 0.2125984251968504
        },
        {
          "duration": 0.023255813953483084,
          "durationTicks": 2,
          "midi": 55,
          "name": "G3",
          "ticks": 22127,
          "time": 257.2906976744186,
          "velocity": 0.4015748031496063
        },
        {
          "duration": 0.058139534883764554,
          "durationTicks": 5,
          "midi": 55,
          "name": "G3",
          "ticks": 22130,
          "time": 257.3255813953488,
          "velocity": 0.4015748031496063
        },
        {
          "duration": 0.05813953488370771,
          "durationTicks": 5,
          "midi": 55,
          "name": "G3",
          "ticks": 22136,
          "time": 257.3953488372093,
          "velocity": 0.41732283464566927
        },
        {
          "duration": 0.05813953488370771,
          "durationTicks": 5,
          "midi": 71,
          "name": "B4",
          "ticks": 22137,
          "time": 257.40697674418607,
          "velocity": 0.2283464566929134
        },
        {
          "duration": 0.04651162790696617,
          "durationTicks": 4,
          "midi": 88,
          "name": "E6",
          "ticks": 22138,
          "time": 257.4186046511628,
          "velocity": 0.07874015748031496
        },
        {
          "duration": 0.09302325581393234,
          "durationTicks": 8,
          "midi": 72,
          "name": "C5",
          "ticks": 22141,
          "time": 257.45348837209303,
          "velocity": 0.18110236220472442
        },
        {
          "duration": 0.023255813953483084,
          "durationTicks": 2,
          "midi": 43,
          "name": "G2",
          "ticks": 22143,
          "time": 257.4767441860465,
          "velocity": 0.33858267716535434
        },
        {
          "duration": 0.023255813953483084,
          "durationTicks": 2,
          "midi": 51,
          "name": "D#3",
          "ticks": 22143,
          "time": 257.4767441860465,
          "velocity": 0.4015748031496063
        },
        {
          "duration": 0.023255813953483084,
          "durationTicks": 2,
          "midi": 52,
          "name": "E3",
          "ticks": 22147,
          "time": 257.5232558139535,
          "velocity": 0.4015748031496063
        },
        {
          "duration": 0.16279069767443843,
          "durationTicks": 14,
          "midi": 74,
          "name": "D5",
          "ticks": 22150,
          "time": 257.5581395348837,
          "velocity": 0.23622047244094488
        },
        {
          "duration": 0.023255813953483084,
          "durationTicks": 2,
          "midi": 43,
          "name": "G2",
          "ticks": 22151,
          "time": 257.56976744186045,
          "velocity": 0.33070866141732286
        },
        {
          "duration": 0.023255813953483084,
          "durationTicks": 2,
          "midi": 51,
          "name": "D#3",
          "ticks": 22151,
          "time": 257.56976744186045,
          "velocity": 0.41732283464566927
        },
        {
          "duration": 0.058139534883764554,
          "durationTicks": 5,
          "midi": 72,
          "name": "C5",
          "ticks": 22151,
          "time": 257.56976744186045,
          "velocity": 0.13385826771653545
        },
        {
          "duration": 0.023255813953539928,
          "durationTicks": 2,
          "midi": 52,
          "name": "E3",
          "ticks": 22155,
          "time": 257.6162790697674,
          "velocity": 0.4566929133858268
        },
        {
          "duration": 0.023255813953483084,
          "durationTicks": 2,
          "midi": 71,
          "name": "B4",
          "ticks": 22156,
          "time": 257.6279069767442,
          "velocity": 0.25984251968503935
        },
        {
          "duration": 0.06976744186044925,
          "durationTicks": 6,
          "midi": 87,
          "name": "D#6",
          "ticks": 22156,
          "time": 257.6279069767442,
          "velocity": 0.2755905511811024
        },
        {
          "duration": 0.023255813953483084,
          "durationTicks": 2,
          "midi": 70,
          "name": "A#4",
          "ticks": 22158,
          "time": 257.6511627906977,
          "velocity": 0.33070866141732286
        },
        {
          "duration": 0.034883720930224626,
          "durationTicks": 3,
          "midi": 85,
          "name": "C#6",
          "ticks": 22158,
          "time": 257.6511627906977,
          "velocity": 0.15748031496062992
        },
        {
          "duration": 0.04651162790696617,
          "durationTicks": 4,
          "midi": 88,
          "name": "E6",
          "ticks": 22158,
          "time": 257.6511627906977,
          "velocity": 0.09448818897637795
        },
        {
          "duration": 0.034883720930224626,
          "durationTicks": 3,
          "midi": 84,
          "name": "C6",
          "ticks": 22159,
          "time": 257.66279069767444,
          "velocity": 0.09448818897637795
        },
        {
          "duration": 0.023255813953483084,
          "durationTicks": 2,
          "midi": 70,
          "name": "A#4",
          "ticks": 22161,
          "time": 257.6860465116279,
          "velocity": 0.2283464566929134
        },
        {
          "duration": 0.05813953488370771,
          "durationTicks": 5,
          "midi": 71,
          "name": "B4",
          "ticks": 22163,
          "time": 257.7093023255814,
          "velocity": 0.2755905511811024
        },
        {
          "duration": 0.023255813953483084,
          "durationTicks": 2,
          "midi": 51,
          "name": "D#3",
          "ticks": 22164,
          "time": 257.72093023255815,
          "velocity": 0.4015748031496063
        },
        {
          "duration": 0.034883720930224626,
          "durationTicks": 3,
          "midi": 73,
          "name": "C#5",
          "ticks": 22165,
          "time": 257.7325581395349,
          "velocity": 0.14173228346456693
        },
        {
          "duration": 0.023255813953483084,
          "durationTicks": 2,
          "midi": 51,
          "name": "D#3",
          "ticks": 22167,
          "time": 257.75581395348837,
          "velocity": 0.4251968503937008
        },
        {
          "duration": 0.05813953488370771,
          "durationTicks": 5,
          "midi": 72,
          "name": "C5",
          "ticks": 22168,
          "time": 257.7674418604651,
          "velocity": 0.15748031496062992
        },
        {
          "duration": 0.034883720930224626,
          "durationTicks": 3,
          "midi": 74,
          "name": "D5",
          "ticks": 22168,
          "time": 257.7674418604651,
          "velocity": 0.10236220472440945
        },
        {
          "duration": 0.034883720930224626,
          "durationTicks": 3,
          "midi": 52,
          "name": "E3",
          "ticks": 22169,
          "time": 257.77906976744185,
          "velocity": 0.4409448818897638
        },
        {
          "duration": 0.04651162790696617,
          "durationTicks": 4,
          "midi": 51,
          "name": "D#3",
          "ticks": 22173,
          "time": 257.8255813953488,
          "velocity": 0.4015748031496063
        },
        {
          "duration": 0.04651162790696617,
          "durationTicks": 4,
          "midi": 74,
          "name": "D5",
          "ticks": 22173,
          "time": 257.8255813953488,
          "velocity": 0.11023622047244094
        },
        {
          "duration": 0.27906976744185386,
          "durationTicks": 24,
          "midi": 86,
          "name": "D6",
          "ticks": 22174,
          "time": 257.83720930232556,
          "velocity": 0.1968503937007874
        },
        {
          "duration": 0.058139534883764554,
          "durationTicks": 5,
          "midi": 71,
          "name": "B4",
          "ticks": 22176,
          "time": 257.86046511627904,
          "velocity": 0.18110236220472442
        },
        {
          "duration": 0.023255813953539928,
          "durationTicks": 2,
          "midi": 44,
          "name": "G#2",
          "ticks": 22177,
          "time": 257.8720930232558,
          "velocity": 0.30708661417322836
        },
        {
          "duration": 0.023255813953483084,
          "durationTicks": 2,
          "midi": 51,
          "name": "D#3",
          "ticks": 22180,
          "time": 257.90697674418607,
          "velocity": 0.4251968503937008
        },
        {
          "duration": 0.2093023255814046,
          "durationTicks": 18,
          "midi": 64,
          "name": "E4",
          "ticks": 22182,
          "time": 257.93023255813955,
          "velocity": 0.4251968503937008
        },
        {
          "duration": 0.1627906976743816,
          "durationTicks": 14,
          "midi": 71,
          "name": "B4",
          "ticks": 22182,
          "time": 257.93023255813955,
          "velocity": 0.2755905511811024
        },
        {
          "duration": 0.023255813953483084,
          "durationTicks": 2,
          "midi": 52,
          "name": "E3",
          "ticks": 22184,
          "time": 257.95348837209303,
          "velocity": 0.41732283464566927
        },
        {
          "duration": 0.04651162790696617,
          "durationTicks": 4,
          "midi": 51,
          "name": "D#3",
          "ticks": 22186,
          "time": 257.9767441860465,
          "velocity": 0.4015748031496063
        },
        {
          "duration": 0.06976744186044925,
          "durationTicks": 6,
          "midi": 74,
          "name": "D5",
          "ticks": 22186,
          "time": 257.9767441860465,
          "velocity": 0.10236220472440945
        },
        {
          "duration": 0.023255813953483084,
          "durationTicks": 2,
          "midi": 46,
          "name": "A#2",
          "ticks": 22189,
          "time": 258.01162790697674,
          "velocity": 0.33858267716535434
        },
        {
          "duration": 0.05813953488370771,
          "durationTicks": 5,
          "midi": 41,
          "name": "F2",
          "ticks": 22191,
          "time": 258.0348837209302,
          "velocity": 0.5118110236220472
        },
        {
          "duration": 0.05813953488370771,
          "durationTicks": 5,
          "midi": 52,
          "name": "E3",
          "ticks": 22193,
          "time": 258.0581395348837,
          "velocity": 0.4330708661417323
        },
        {
          "duration": 0.03488372093028147,
          "durationTicks": 3,
          "midi": 51,
          "name": "D#3",
          "ticks": 22198,
          "time": 258.1162790697674,
          "velocity": 0.4330708661417323
        },
        {
          "duration": 0.023255813953483084,
          "durationTicks": 2,
          "midi": 50,
          "name": "D3",
          "ticks": 22201,
          "time": 258.1511627906977,
          "velocity": 0.3937007874015748
        },
        {
          "duration": 0.034883720930224626,
          "durationTicks": 3,
          "midi": 69,
          "name": "A4",
          "ticks": 22202,
          "time": 258.16279069767444,
          "velocity": 0.1968503937007874
        },
        {
          "duration": 0.05813953488370771,
          "durationTicks": 5,
          "midi": 86,
          "name": "D6",
          "ticks": 22202,
          "time": 258.16279069767444,
          "velocity": 0.14173228346456693
        },
        {
          "duration": 0.06976744186044925,
          "durationTicks": 6,
          "midi": 67,
          "name": "G4",
          "ticks": 22204,
          "time": 258.1860465116279,
          "velocity": 0.14960629921259844
        },
        {
          "duration": 0.023255813953483084,
          "durationTicks": 2,
          "midi": 51,
          "name": "D#3",
          "ticks": 22205,
          "time": 258.19767441860466,
          "velocity": 0.33858267716535434
        },
        {
          "duration": 0.18604651162792152,
          "durationTicks": 16,
          "midi": 69,
          "name": "A4",
          "ticks": 22207,
          "time": 258.22093023255815,
          "velocity": 0.3464566929133858
        },
        {
          "duration": 0.05813953488370771,
          "durationTicks": 5,
          "midi": 50,
          "name": "D3",
          "ticks": 22209,
          "time": 258.24418604651163,
          "velocity": 0.4251968503937008
        },
        {
          "duration": 0.034883720930224626,
          "durationTicks": 3,
          "midi": 79,
          "name": "G5",
          "ticks": 22211,
          "time": 258.2674418604651,
          "velocity": 0.13385826771653545
        },
        {
          "duration": 0.11627906976747227,
          "durationTicks": 10,
          "midi": 86,
          "name": "D6",
          "ticks": 22211,
          "time": 258.2674418604651,
          "velocity": 0.15748031496062992
        },
        {
          "duration": 0.0697674418605061,
          "durationTicks": 6,
          "midi": 50,
          "name": "D3",
          "ticks": 22215,
          "time": 258.3139534883721,
          "velocity": 0.4094488188976378
        },
        {
          "duration": 0.05813953488370771,
          "durationTicks": 5,
          "midi": 88,
          "name": "E6",
          "ticks": 22215,
          "time": 258.3139534883721,
          "velocity": 0.07086614173228346
        },
        {
          "duration": 0.023255813953483084,
          "durationTicks": 2,
          "midi": 50,
          "name": "D3",
          "ticks": 22222,
          "time": 258.3953488372093,
          "velocity": 0.47244094488188976
        },
        {
          "duration": 0.034883720930224626,
          "durationTicks": 3,
          "midi": 69,
          "name": "A4",
          "ticks": 22224,
          "time": 258.4186046511628,
          "velocity": 0.13385826771653545
        },
        {
          "duration": 0.023255813953483084,
          "durationTicks": 2,
          "midi": 41,
          "name": "F2",
          "ticks": 22225,
          "time": 258.43023255813955,
          "velocity": 0.5039370078740157
        },
        {
          "duration": 0.034883720930224626,
          "durationTicks": 3,
          "midi": 50,
          "name": "D3",
          "ticks": 22225,
          "time": 258.43023255813955,
          "velocity": 0.3937007874015748
        },
        {
          "duration": 0.034883720930224626,
          "durationTicks": 3,
          "midi": 61,
          "name": "C#4",
          "ticks": 22226,
          "time": 258.4418604651163,
          "velocity": 0.3228346456692913
        },
        {
          "duration": 0.15116279069764005,
          "durationTicks": 13,
          "midi": 69,
          "name": "A4",
          "ticks": 22228,
          "time": 258.4651162790698,
          "velocity": 0.1889763779527559
        },
        {
          "duration": 0.05813953488370771,
          "durationTicks": 5,
          "midi": 50,
          "name": "D3",
          "ticks": 22229,
          "time": 258.4767441860465,
          "velocity": 0.3937007874015748
        },
        {
          "duration": 0.04651162790696617,
          "durationTicks": 4,
          "midi": 102,
          "name": "F#7",
          "ticks": 22229,
          "time": 258.4767441860465,
          "velocity": 0.07086614173228346
        },
        {
          "duration": 0.023255813953483084,
          "durationTicks": 2,
          "midi": 61,
          "name": "C#4",
          "ticks": 22234,
          "time": 258.5348837209302,
          "velocity": 0.31496062992125984
        },
        {
          "duration": 0.04651162790696617,
          "durationTicks": 4,
          "midi": 62,
          "name": "D4",
          "ticks": 22236,
          "time": 258.5581395348837,
          "velocity": 0.25984251968503935
        },
        {
          "duration": 0.034883720930224626,
          "durationTicks": 3,
          "midi": 50,
          "name": "D3",
          "ticks": 22237,
          "time": 258.56976744186045,
          "velocity": 0.33070866141732286
        },
        {
          "duration": 0.03488372093028147,
          "durationTicks": 3,
          "midi": 48,
          "name": "C3",
          "ticks": 22241,
          "time": 258.6162790697674,
          "velocity": 0.4330708661417323
        },
        {
          "duration": 0.03488372093028147,
          "durationTicks": 3,
          "midi": 55,
          "name": "G3",
          "ticks": 22241,
          "time": 258.6162790697674,
          "velocity": 0.2283464566929134
        },
        {
          "duration": 0.034883720930224626,
          "durationTicks": 3,
          "midi": 48,
          "name": "C3",
          "ticks": 22245,
          "time": 258.66279069767444,
          "velocity": 0.36220472440944884
        },
        {
          "duration": 0.034883720930224626,
          "durationTicks": 3,
          "midi": 70,
          "name": "A#4",
          "ticks": 22245,
          "time": 258.66279069767444,
          "velocity": 0.3858267716535433
        },
        {
          "duration": 0.034883720930224626,
          "durationTicks": 3,
          "midi": 74,
          "name": "D5",
          "ticks": 22245,
          "time": 258.66279069767444,
          "velocity": 0.2755905511811024
        },
        {
          "duration": 0.06976744186044925,
          "durationTicks": 6,
          "midi": 83,
          "name": "B5",
          "ticks": 22246,
          "time": 258.6744186046512,
          "velocity": 0.2047244094488189
        },
        {
          "duration": 0.034883720930224626,
          "durationTicks": 3,
          "midi": 88,
          "name": "E6",
          "ticks": 22246,
          "time": 258.6744186046512,
          "velocity": 0.13385826771653545
        },
        {
          "duration": 0.06976744186044925,
          "durationTicks": 6,
          "midi": 87,
          "name": "D#6",
          "ticks": 22247,
          "time": 258.6860465116279,
          "velocity": 0.1968503937007874
        },
        {
          "duration": 0.2325581395348877,
          "durationTicks": 20,
          "midi": 60,
          "name": "C4",
          "ticks": 22248,
          "time": 258.69767441860466,
          "velocity": 0.3464566929133858
        },
        {
          "duration": 0.034883720930224626,
          "durationTicks": 3,
          "midi": 71,
          "name": "B4",
          "ticks": 22248,
          "time": 258.69767441860466,
          "velocity": 0.25196850393700787
        },
        {
          "duration": 0.15116279069764005,
          "durationTicks": 13,
          "midi": 48,
          "name": "C3",
          "ticks": 22249,
          "time": 258.7093023255814,
          "velocity": 0.4566929133858268
        },
        {
          "duration": 0.04651162790696617,
          "durationTicks": 4,
          "midi": 74,
          "name": "D5",
          "ticks": 22250,
          "time": 258.72093023255815,
          "velocity": 0.14173228346456693
        },
        {
          "duration": 0.034883720930224626,
          "durationTicks": 3,
          "midi": 82,
          "name": "A#5",
          "ticks": 22250,
          "time": 258.72093023255815,
          "velocity": 0.12598425196850394
        },
        {
          "duration": 0.0813953488371908,
          "durationTicks": 7,
          "midi": 67,
          "name": "G4",
          "ticks": 22254,
          "time": 258.7674418604651,
          "velocity": 0.2125984251968504
        },
        {
          "duration": 0.023255813953539928,
          "durationTicks": 2,
          "midi": 44,
          "name": "G#2",
          "ticks": 22263,
          "time": 258.8720930232558,
          "velocity": 0.3464566929133858
        },
        {
          "duration": 0.17441860465117998,
          "durationTicks": 15,
          "midi": 67,
          "name": "G4",
          "ticks": 22263,
          "time": 258.8720930232558,
          "velocity": 0.25984251968503935
        },
        {
          "duration": 0.023255813953483084,
          "durationTicks": 2,
          "midi": 45,
          "name": "A2",
          "ticks": 22265,
          "time": 258.8953488372093,
          "velocity": 0.31496062992125984
        },
        {
          "duration": 0.09302325581393234,
          "durationTicks": 8,
          "midi": 48,
          "name": "C3",
          "ticks": 22268,
          "time": 258.93023255813955,
          "velocity": 0.33070866141732286
        },
        {
          "duration": 0.023255813953483084,
          "durationTicks": 2,
          "midi": 59,
          "name": "B3",
          "ticks": 22268,
          "time": 258.93023255813955,
          "velocity": 0.3228346456692913
        },
        {
          "duration": 0.0813953488371908,
          "durationTicks": 7,
          "midi": 76,
          "name": "E5",
          "ticks": 22268,
          "time": 258.93023255813955,
          "velocity": 0.12598425196850394
        },
        {
          "duration": 0.06976744186044925,
          "durationTicks": 6,
          "midi": 91,
          "name": "G6",
          "ticks": 22269,
          "time": 258.9418604651163,
          "velocity": 0.07086614173228346
        },
        {
          "duration": 0.06976744186044925,
          "durationTicks": 6,
          "midi": 97,
          "name": "C#7",
          "ticks": 22269,
          "time": 258.9418604651163,
          "velocity": 0.14960629921259844
        },
        {
          "duration": 0.19767441860466306,
          "durationTicks": 17,
          "midi": 60,
          "name": "C4",
          "ticks": 22270,
          "time": 258.95348837209303,
          "velocity": 0.33070866141732286
        },
        {
          "duration": 0.034883720930224626,
          "durationTicks": 3,
          "midi": 55,
          "name": "G3",
          "ticks": 22271,
          "time": 258.9651162790698,
          "velocity": 0.2440944881889764
        },
        {
          "duration": 0.05813953488370771,
          "durationTicks": 5,
          "midi": 98,
          "name": "D7",
          "ticks": 22271,
          "time": 258.9651162790698,
          "velocity": 0.1968503937007874
        },
        {
          "duration": 0.034883720930224626,
          "durationTicks": 3,
          "midi": 95,
          "name": "B6",
          "ticks": 22272,
          "time": 258.9767441860465,
          "velocity": 0.12598425196850394
        },
        {
          "duration": 0.034883720930224626,
          "durationTicks": 3,
          "midi": 96,
          "name": "C7",
          "ticks": 22272,
          "time": 258.9767441860465,
          "velocity": 0.13385826771653545
        },
        {
          "duration": 0.05813953488370771,
          "durationTicks": 5,
          "midi": 48,
          "name": "C3",
          "ticks": 22277,
          "time": 259.0348837209302,
          "velocity": 0.41732283464566927
        },
        {
          "duration": 0.034883720930224626,
          "durationTicks": 3,
          "midi": 56,
          "name": "G#3",
          "ticks": 22279,
          "time": 259.0581395348837,
          "velocity": 0.2047244094488189
        },
        {
          "duration": 0.04651162790702301,
          "durationTicks": 4,
          "midi": 48,
          "name": "C3",
          "ticks": 22283,
          "time": 259.1046511627907,
          "velocity": 0.4015748031496063
        },
        {
          "duration": 0.058139534883764554,
          "durationTicks": 5,
          "midi": 67,
          "name": "G4",
          "ticks": 22283,
          "time": 259.1046511627907,
          "velocity": 0.2047244094488189
        },
        {
          "duration": 0.04651162790702301,
          "durationTicks": 4,
          "midi": 90,
          "name": "F#6",
          "ticks": 22284,
          "time": 259.1162790697674,
          "velocity": 0.09448818897637795
        },
        {
          "duration": 0.023255813953483084,
          "durationTicks": 2,
          "midi": 49,
          "name": "C#3",
          "ticks": 22287,
          "time": 259.1511627906977,
          "velocity": 0.3858267716535433
        },
        {
          "duration": 0.023255813953483084,
          "durationTicks": 2,
          "midi": 55,
          "name": "G3",
          "ticks": 22287,
          "time": 259.1511627906977,
          "velocity": 0.2440944881889764
        },
        {
          "duration": 0.023255813953483084,
          "durationTicks": 2,
          "midi": 50,
          "name": "D3",
          "ticks": 22289,
          "time": 259.1744186046512,
          "velocity": 0.44881889763779526
        },
        {
          "duration": 0.034883720930224626,
          "durationTicks": 3,
          "midi": 56,
          "name": "G#3",
          "ticks": 22290,
          "time": 259.1860465116279,
          "velocity": 0.4881889763779528
        },
        {
          "duration": 0.3139534883720785,
          "durationTicks": 27,
          "midi": 69,
          "name": "A4",
          "ticks": 22290,
          "time": 259.1860465116279,
          "velocity": 0.29133858267716534
        },
        {
          "duration": 0.25581395348837077,
          "durationTicks": 22,
          "midi": 74,
          "name": "D5",
          "ticks": 22290,
          "time": 259.1860465116279,
          "velocity": 0.28346456692913385
        },
        {
          "duration": 0.5348837209302246,
          "durationTicks": 46,
          "midi": 62,
          "name": "D4",
          "ticks": 22291,
          "time": 259.19767441860466,
          "velocity": 0.41732283464566927
        },
        {
          "duration": 0.15116279069764005,
          "durationTicks": 13,
          "midi": 50,
          "name": "D3",
          "ticks": 22292,
          "time": 259.2093023255814,
          "velocity": 0.4566929133858268
        },
        {
          "duration": 0.9069767441860677,
          "durationTicks": 78,
          "midi": 57,
          "name": "A3",
          "ticks": 22293,
          "time": 259.22093023255815,
          "velocity": 0.4645669291338583
        },
        {
          "duration": 0.5232558139534831,
          "durationTicks": 45,
          "midi": 76,
          "name": "E5",
          "ticks": 22294,
          "time": 259.2325581395349,
          "velocity": 0.1968503937007874
        },
        {
          "duration": 0.04651162790696617,
          "durationTicks": 4,
          "midi": 90,
          "name": "F#6",
          "ticks": 22298,
          "time": 259.27906976744185,
          "velocity": 0.07086614173228346
        },
        {
          "duration": 0.05813953488370771,
          "durationTicks": 5,
          "midi": 102,
          "name": "F#7",
          "ticks": 22298,
          "time": 259.27906976744185,
          "velocity": 0.09448818897637795
        },
        {
          "duration": 0.04651162790702301,
          "durationTicks": 4,
          "midi": 50,
          "name": "D3",
          "ticks": 22306,
          "time": 259.3720930232558,
          "velocity": 0.4566929133858268
        },
        {
          "duration": 0.06976744186044925,
          "durationTicks": 6,
          "midi": 45,
          "name": "A2",
          "ticks": 22311,
          "time": 259.43023255813955,
          "velocity": 0.36220472440944884
        },
        {
          "duration": 0.06976744186044925,
          "durationTicks": 6,
          "midi": 84,
          "name": "C6",
          "ticks": 22317,
          "time": 259.5,
          "velocity": 0.09448818897637795
        },
        {
          "duration": 0.05813953488370771,
          "durationTicks": 5,
          "midi": 45,
          "name": "A2",
          "ticks": 22319,
          "time": 259.5232558139535,
          "velocity": 0.30708661417322836
        },
        {
          "duration": 0.023255813953483084,
          "durationTicks": 2,
          "midi": 50,
          "name": "D3",
          "ticks": 22324,
          "time": 259.5813953488372,
          "velocity": 0.28346456692913385
        },
        {
          "duration": 0.023255813953483084,
          "durationTicks": 2,
          "midi": 44,
          "name": "G#2",
          "ticks": 22330,
          "time": 259.6511627906977,
          "velocity": 0.2440944881889764
        },
        {
          "duration": 0.023255813953483084,
          "durationTicks": 2,
          "midi": 51,
          "name": "D#3",
          "ticks": 22330,
          "time": 259.6511627906977,
          "velocity": 0.23622047244094488
        },
        {
          "duration": 0.04651162790696617,
          "durationTicks": 4,
          "midi": 50,
          "name": "D3",
          "ticks": 22333,
          "time": 259.6860465116279,
          "velocity": 0.30708661417322836
        },
        {
          "duration": 0.04651162790696617,
          "durationTicks": 4,
          "midi": 70,
          "name": "A#4",
          "ticks": 22335,
          "time": 259.7093023255814,
          "velocity": 0.41732283464566927
        },
        {
          "duration": 0.3953488372092693,
          "durationTicks": 34,
          "midi": 81,
          "name": "A5",
          "ticks": 22335,
          "time": 259.7093023255814,
          "velocity": 0.11023622047244094
        },
        {
          "duration": 0.04651162790696617,
          "durationTicks": 4,
          "midi": 83,
          "name": "B5",
          "ticks": 22335,
          "time": 259.7093023255814,
          "velocity": 0.14960629921259844
        },
        {
          "duration": 0.034883720930224626,
          "durationTicks": 3,
          "midi": 49,
          "name": "C#3",
          "ticks": 22337,
          "time": 259.7325581395349,
          "velocity": 0.3858267716535433
        },
        {
          "duration": 0.05813953488370771,
          "durationTicks": 5,
          "midi": 84,
          "name": "C6",
          "ticks": 22337,
          "time": 259.7325581395349,
          "velocity": 0.13385826771653545
        },
        {
          "duration": 0.05813953488370771,
          "durationTicks": 5,
          "midi": 78,
          "name": "F#5",
          "ticks": 22338,
          "time": 259.74418604651163,
          "velocity": 0.14960629921259844
        },
        {
          "duration": 0.2906976744185954,
          "durationTicks": 25,
          "midi": 62,
          "name": "D4",
          "ticks": 22339,
          "time": 259.75581395348837,
          "velocity": 0.4015748031496063
        },
        {
          "duration": 0.0813953488371908,
          "durationTicks": 7,
          "midi": 50,
          "name": "D3",
          "ticks": 22340,
          "time": 259.7674418604651,
          "velocity": 0.4015748031496063
        },
        {
          "duration": 0.05813953488370771,
          "durationTicks": 5,
          "midi": 88,
          "name": "E6",
          "ticks": 22340,
          "time": 259.7674418604651,
          "velocity": 0.10236220472440945
        },
        {
          "duration": 0.023255813953483084,
          "durationTicks": 2,
          "midi": 45,
          "name": "A2",
          "ticks": 22343,
          "time": 259.80232558139534,
          "velocity": 0.3700787401574803
        },
        {
          "duration": 0.04651162790702301,
          "durationTicks": 4,
          "midi": 50,
          "name": "D3",
          "ticks": 22348,
          "time": 259.86046511627904,
          "velocity": 0.3937007874015748
        },
        {
          "duration": 0.17441860465117998,
          "durationTicks": 15,
          "midi": 76,
          "name": "E5",
          "ticks": 22349,
          "time": 259.8720930232558,
          "velocity": 0.10236220472440945
        },
        {
          "duration": 0.034883720930224626,
          "durationTicks": 3,
          "midi": 102,
          "name": "F#7",
          "ticks": 22352,
          "time": 259.90697674418607,
          "velocity": 0.11023622047244094
        },
        {
          "duration": 0.04651162790696617,
          "durationTicks": 4,
          "midi": 90,
          "name": "F#6",
          "ticks": 22353,
          "time": 259.9186046511628,
          "velocity": 0.07874015748031496
        },
        {
          "duration": 0.1627906976743816,
          "durationTicks": 14,
          "midi": 50,
          "name": "D3",
          "ticks": 22355,
          "time": 259.9418604651163,
          "velocity": 0.4330708661417323
        },
        {
          "duration": 0.023255813953483084,
          "durationTicks": 2,
          "midi": 42,
          "name": "F#2",
          "ticks": 22371,
          "time": 260.1279069767442,
          "velocity": 0.49606299212598426
        },
        {
          "duration": 0.453488372092977,
          "durationTicks": 39,
          "midi": 62,
          "name": "D4",
          "ticks": 22371,
          "time": 260.1279069767442,
          "velocity": 0.3779527559055118
        },
        {
          "duration": 0.3720930232557862,
          "durationTicks": 32,
          "midi": 50,
          "name": "D3",
          "ticks": 22372,
          "time": 260.13953488372096,
          "velocity": 0.4251968503937008
        },
        {
          "duration": 0.25581395348837077,
          "durationTicks": 22,
          "midi": 57,
          "name": "A3",
          "ticks": 22372,
          "time": 260.13953488372096,
          "velocity": 0.2125984251968504
        },
        {
          "duration": 0.04651162790702301,
          "durationTicks": 4,
          "midi": 69,
          "name": "A4",
          "ticks": 22389,
          "time": 260.33720930232556,
          "velocity": 0.2992125984251969
        },
        {
          "duration": 0.03488372093028147,
          "durationTicks": 3,
          "midi": 70,
          "name": "A#4",
          "ticks": 22392,
          "time": 260.3720930232558,
          "velocity": 0.3937007874015748
        },
        {
          "duration": 0.03488372093028147,
          "durationTicks": 3,
          "midi": 84,
          "name": "C6",
          "ticks": 22392,
          "time": 260.3720930232558,
          "velocity": 0.2283464566929134
        },
        {
          "duration": 0.11627906976741542,
          "durationTicks": 10,
          "midi": 57,
          "name": "A3",
          "ticks": 22395,
          "time": 260.40697674418607,
          "velocity": 0.30708661417322836
        },
        {
          "duration": 0.011627906976741542,
          "durationTicks": 1,
          "midi": 42,
          "name": "F#2",
          "ticks": 22405,
          "time": 260.5232558139535,
          "velocity": 0.5196850393700787
        },
        {
          "duration": 0.2325581395348877,
          "durationTicks": 20,
          "midi": 69,
          "name": "A4",
          "ticks": 22406,
          "time": 260.5348837209302,
          "velocity": 0.15748031496062992
        },
        {
          "duration": 0.023255813953483084,
          "durationTicks": 2,
          "midi": 42,
          "name": "F#2",
          "ticks": 22407,
          "time": 260.54651162790697,
          "velocity": 0.3700787401574803
        },
        {
          "duration": 0.023255813953483084,
          "durationTicks": 2,
          "midi": 50,
          "name": "D3",
          "ticks": 22407,
          "time": 260.54651162790697,
          "velocity": 0.36220472440944884
        },
        {
          "duration": 0.023255813953483084,
          "durationTicks": 2,
          "midi": 45,
          "name": "A2",
          "ticks": 22410,
          "time": 260.5813953488372,
          "velocity": 0.28346456692913385
        },
        {
          "duration": 0.04651162790702301,
          "durationTicks": 4,
          "midi": 50,
          "name": "D3",
          "ticks": 22411,
          "time": 260.59302325581393,
          "velocity": 0.31496062992125984
        },
        {
          "duration": 0.03488372093028147,
          "durationTicks": 3,
          "midi": 57,
          "name": "A3",
          "ticks": 22413,
          "time": 260.6162790697674,
          "velocity": 0.07086614173228346
        },
        {
          "duration": 0.06976744186044925,
          "durationTicks": 6,
          "midi": 50,
          "name": "D3",
          "ticks": 22416,
          "time": 260.6511627906977,
          "velocity": 0.3937007874015748
        },
        {
          "duration": 0.023255813953483084,
          "durationTicks": 2,
          "midi": 61,
          "name": "C#4",
          "ticks": 22416,
          "time": 260.6511627906977,
          "velocity": 0.29133858267716534
        },
        {
          "duration": 0.1395348837208985,
          "durationTicks": 12,
          "midi": 86,
          "name": "D6",
          "ticks": 22417,
          "time": 260.66279069767444,
          "velocity": 0.23622047244094488
        },
        {
          "duration": 0.034883720930224626,
          "durationTicks": 3,
          "midi": 57,
          "name": "A3",
          "ticks": 22424,
          "time": 260.74418604651163,
          "velocity": 0.11811023622047244
        },
        {
          "duration": 0.034883720930224626,
          "durationTicks": 3,
          "midi": 84,
          "name": "C6",
          "ticks": 22424,
          "time": 260.74418604651163,
          "velocity": 0.13385826771653545
        },
        {
          "duration": 0.1279069767442138,
          "durationTicks": 11,
          "midi": 50,
          "name": "D3",
          "ticks": 22425,
          "time": 260.75581395348837,
          "velocity": 0.3543307086614173
        },
        {
          "duration": 0.43023255813955075,
          "durationTicks": 37,
          "midi": 62,
          "name": "D4",
          "ticks": 22425,
          "time": 260.75581395348837,
          "velocity": 0.4094488188976378
        },
        {
          "duration": 0.034883720930224626,
          "durationTicks": 3,
          "midi": 83,
          "name": "B5",
          "ticks": 22426,
          "time": 260.7674418604651,
          "velocity": 0.2283464566929134
        },
        {
          "duration": 0.023255813953483084,
          "durationTicks": 2,
          "midi": 70,
          "name": "A#4",
          "ticks": 22427,
          "time": 260.77906976744185,
          "velocity": 0.36220472440944884
        },
        {
          "duration": 0.034883720930224626,
          "durationTicks": 3,
          "midi": 85,
          "name": "C#6",
          "ticks": 22427,
          "time": 260.77906976744185,
          "velocity": 0.2204724409448819
        },
        {
          "duration": 0.034883720930224626,
          "durationTicks": 3,
          "midi": 87,
          "name": "D#6",
          "ticks": 22427,
          "time": 260.77906976744185,
          "velocity": 0.13385826771653545
        },
        {
          "duration": 0.05813953488370771,
          "durationTicks": 5,
          "midi": 69,
          "name": "A4",
          "ticks": 22430,
          "time": 260.8139534883721,
          "velocity": 0.2047244094488189
        },
        {
          "duration": 0.04651162790696617,
          "durationTicks": 4,
          "midi": 69,
          "name": "A4",
          "ticks": 22438,
          "time": 260.90697674418607,
          "velocity": 0.07086614173228346
        },
        {
          "duration": 0.023255813953483084,
          "durationTicks": 2,
          "midi": 48,
          "name": "C3",
          "ticks": 22442,
          "time": 260.95348837209303,
          "velocity": 0.2992125984251969
        },
        {
          "duration": 0.06976744186044925,
          "durationTicks": 6,
          "midi": 69,
          "name": "A4",
          "ticks": 22443,
          "time": 260.9651162790698,
          "velocity": 0.1732283464566929
        },
        {
          "duration": 0.023255813953483084,
          "durationTicks": 2,
          "midi": 49,
          "name": "C#3",
          "ticks": 22444,
          "time": 260.9767441860465,
          "velocity": 0.29133858267716534
        },
        {
          "duration": 0.023255813953483084,
          "durationTicks": 2,
          "midi": 50,
          "name": "D3",
          "ticks": 22448,
          "time": 261.0232558139535,
          "velocity": 0.29133858267716534
        },
        {
          "duration": 0.023255813953483084,
          "durationTicks": 2,
          "midi": 57,
          "name": "A3",
          "ticks": 22450,
          "time": 261.04651162790697,
          "velocity": 0.3228346456692913
        },
        {
          "duration": 0.10465116279073072,
          "durationTicks": 9,
          "midi": 81,
          "name": "A5",
          "ticks": 22450,
          "time": 261.04651162790697,
          "velocity": 0.08661417322834646
        },
        {
          "duration": 0.034883720930224626,
          "durationTicks": 3,
          "midi": 44,
          "name": "G#2",
          "ticks": 22451,
          "time": 261.0581395348837,
          "velocity": 0.47244094488188976
        },
        {
          "duration": 0.034883720930224626,
          "durationTicks": 3,
          "midi": 71,
          "name": "B4",
          "ticks": 22451,
          "time": 261.0581395348837,
          "velocity": 0.09448818897637795
        },
        {
          "duration": 0.11627906976747227,
          "durationTicks": 10,
          "midi": 50,
          "name": "D3",
          "ticks": 22452,
          "time": 261.06976744186045,
          "velocity": 0.4251968503937008
        },
        {
          "duration": 0.09302325581398918,
          "durationTicks": 8,
          "midi": 69,
          "name": "A4",
          "ticks": 22456,
          "time": 261.1162790697674,
          "velocity": 0.15748031496062992
        },
        {
          "duration": 0.0697674418605061,
          "durationTicks": 6,
          "midi": 86,
          "name": "D6",
          "ticks": 22456,
          "time": 261.1162790697674,
          "velocity": 0.13385826771653545
        },
        {
          "duration": 0.023255813953483084,
          "durationTicks": 2,
          "midi": 55,
          "name": "G3",
          "ticks": 22460,
          "time": 261.16279069767444,
          "velocity": 0.30708661417322836
        },
        {
          "duration": 0.023255813953483084,
          "durationTicks": 2,
          "midi": 49,
          "name": "C#3",
          "ticks": 22462,
          "time": 261.1860465116279,
          "velocity": 0.36220472440944884
        },
        {
          "duration": 0.023255813953483084,
          "durationTicks": 2,
          "midi": 57,
          "name": "A3",
          "ticks": 22463,
          "time": 261.19767441860466,
          "velocity": 0.25984251968503935
        },
        {
          "duration": 0.04651162790696617,
          "durationTicks": 4,
          "midi": 48,
          "name": "C3",
          "ticks": 22464,
          "time": 261.2093023255814,
          "velocity": 0.3937007874015748
        },
        {
          "duration": 0.034883720930224626,
          "durationTicks": 3,
          "midi": 67,
          "name": "G4",
          "ticks": 22464,
          "time": 261.2093023255814,
          "velocity": 0.15748031496062992
        },
        {
          "duration": 0.023255813953483084,
          "durationTicks": 2,
          "midi": 46,
          "name": "A#2",
          "ticks": 22468,
          "time": 261.25581395348837,
          "velocity": 0.33070866141732286
        },
        {
          "duration": 0.034883720930224626,
          "durationTicks": 3,
          "midi": 62,
          "name": "D4",
          "ticks": 22471,
          "time": 261.2906976744186,
          "velocity": 0.2992125984251969
        },
        {
          "duration": 0.37209302325584304,
          "durationTicks": 32,
          "midi": 76,
          "name": "E5",
          "ticks": 22471,
          "time": 261.2906976744186,
          "velocity": 0.2755905511811024
        },
        {
          "duration": 0.2093023255814046,
          "durationTicks": 18,
          "midi": 57,
          "name": "A3",
          "ticks": 22472,
          "time": 261.30232558139534,
          "velocity": 0.5275590551181102
        },
        {
          "duration": 0.08139534883724764,
          "durationTicks": 7,
          "midi": 78,
          "name": "F#5",
          "ticks": 22472,
          "time": 261.30232558139534,
          "velocity": 0.08661417322834646
        },
        {
          "duration": 0.5,
          "durationTicks": 43,
          "midi": 81,
          "name": "A5",
          "ticks": 22472,
          "time": 261.30232558139534,
          "velocity": 0.2204724409448819
        },
        {
          "duration": 0.06976744186044925,
          "durationTicks": 6,
          "midi": 91,
          "name": "G6",
          "ticks": 22472,
          "time": 261.30232558139534,
          "velocity": 0.15748031496062992
        },
        {
          "duration": 0.034883720930224626,
          "durationTicks": 3,
          "midi": 92,
          "name": "G#6",
          "ticks": 22472,
          "time": 261.30232558139534,
          "velocity": 0.09448818897637795
        },
        {
          "duration": 0.04651162790696617,
          "durationTicks": 4,
          "midi": 102,
          "name": "F#7",
          "ticks": 22472,
          "time": 261.30232558139534,
          "velocity": 0.09448818897637795
        },
        {
          "duration": 0.023255813953483084,
          "durationTicks": 2,
          "midi": 45,
          "name": "A2",
          "ticks": 22473,
          "time": 261.3139534883721,
          "velocity": 0.44881889763779526
        },
        {
          "duration": 0.04651162790696617,
          "durationTicks": 4,
          "midi": 87,
          "name": "D#6",
          "ticks": 22473,
          "time": 261.3139534883721,
          "velocity": 0.15748031496062992
        },
        {
          "duration": 0.05813953488370771,
          "durationTicks": 5,
          "midi": 97,
          "name": "C#7",
          "ticks": 22473,
          "time": 261.3139534883721,
          "velocity": 0.08661417322834646
        },
        {
          "duration": 0.5116279069767415,
          "durationTicks": 44,
          "midi": 74,
          "name": "D5",
          "ticks": 22474,
          "time": 261.3255813953488,
          "velocity": 0.2755905511811024
        },
        {
          "duration": 0.04651162790702301,
          "durationTicks": 4,
          "midi": 64,
          "name": "E4",
          "ticks": 22475,
          "time": 261.33720930232556,
          "velocity": 0.25984251968503935
        },
        {
          "duration": 0.04651162790702301,
          "durationTicks": 4,
          "midi": 89,
          "name": "F6",
          "ticks": 22475,
          "time": 261.33720930232556,
          "velocity": 0.08661417322834646
        },
        {
          "duration": 0.8837209302325846,
          "durationTicks": 76,
          "midi": 45,
          "name": "A2",
          "ticks": 22476,
          "time": 261.3488372093023,
          "velocity": 0.48031496062992124
        },
        {
          "duration": 0.058139534883764554,
          "durationTicks": 5,
          "midi": 83,
          "name": "B5",
          "ticks": 22477,
          "time": 261.36046511627904,
          "velocity": 0.08661417322834646
        },
        {
          "duration": 0.04651162790696617,
          "durationTicks": 4,
          "midi": 62,
          "name": "D4",
          "ticks": 22479,
          "time": 261.3837209302326,
          "velocity": 0.31496062992125984
        },
        {
          "duration": 0.23255813953483084,
          "durationTicks": 20,
          "midi": 85,
          "name": "C#6",
          "ticks": 22479,
          "time": 261.3837209302326,
          "velocity": 0.15748031496062992
        },
        {
          "duration": 0.023255813953483084,
          "durationTicks": 2,
          "midi": 64,
          "name": "E4",
          "ticks": 22482,
          "time": 261.4186046511628,
          "velocity": 0.2992125984251969
        },
        {
          "duration": 0.034883720930224626,
          "durationTicks": 3,
          "midi": 79,
          "name": "G5",
          "ticks": 22483,
          "time": 261.43023255813955,
          "velocity": 0.07874015748031496
        },
        {
          "duration": 0.04651162790696617,
          "durationTicks": 4,
          "midi": 62,
          "name": "D4",
          "ticks": 22484,
          "time": 261.4418604651163,
          "velocity": 0.3464566929133858
        },
        {
          "duration": 0.8837209302325277,
          "durationTicks": 76,
          "midi": 64,
          "name": "E4",
          "ticks": 22487,
          "time": 261.4767441860465,
          "velocity": 0.4094488188976378
        },
        {
          "duration": 0.1627906976743816,
          "durationTicks": 14,
          "midi": 85,
          "name": "C#6",
          "ticks": 22503,
          "time": 261.66279069767444,
          "velocity": 0.14960629921259844
        },
        {
          "duration": 0.05813953488370771,
          "durationTicks": 5,
          "midi": 71,
          "name": "B4",
          "ticks": 22515,
          "time": 261.80232558139534,
          "velocity": 0.4330708661417323
        },
        {
          "duration": 0.05813953488370771,
          "durationTicks": 5,
          "midi": 88,
          "name": "E6",
          "ticks": 22515,
          "time": 261.80232558139534,
          "velocity": 0.1732283464566929
        },
        {
          "duration": 0.25581395348837077,
          "durationTicks": 22,
          "midi": 85,
          "name": "C#6",
          "ticks": 22520,
          "time": 261.86046511627904,
          "velocity": 0.11023622047244094
        },
        {
          "duration": 0.034883720930224626,
          "durationTicks": 3,
          "midi": 86,
          "name": "D6",
          "ticks": 22523,
          "time": 261.8953488372093,
          "velocity": 0.07874015748031496
        },
        {
          "duration": 0.11627906976741542,
          "durationTicks": 10,
          "midi": 74,
          "name": "D5",
          "ticks": 22524,
          "time": 261.90697674418607,
          "velocity": 0.1889763779527559
        },
        {
          "duration": 0.19767441860466306,
          "durationTicks": 17,
          "midi": 73,
          "name": "C#5",
          "ticks": 22533,
          "time": 262.01162790697674,
          "velocity": 0.07874015748031496
        },
        {
          "duration": 0.24418604651162923,
          "durationTicks": 21,
          "midi": 74,
          "name": "D5",
          "ticks": 22551,
          "time": 262.22093023255815,
          "velocity": 0.1889763779527559
        },
        {
          "duration": 0.011627906976741542,
          "durationTicks": 1,
          "midi": 42,
          "name": "F#2",
          "ticks": 22553,
          "time": 262.24418604651163,
          "velocity": 0.5275590551181102
        },
        {
          "duration": 0.33720930232556157,
          "durationTicks": 29,
          "midi": 57,
          "name": "A3",
          "ticks": 22554,
          "time": 262.25581395348837,
          "velocity": 0.2283464566929134
        },
        {
          "duration": 0.023255813953483084,
          "durationTicks": 2,
          "midi": 46,
          "name": "A#2",
          "ticks": 22556,
          "time": 262.27906976744185,
          "velocity": 0.30708661417322836
        },
        {
          "duration": 0.27906976744185386,
          "durationTicks": 24,
          "midi": 45,
          "name": "A2",
          "ticks": 22558,
          "time": 262.30232558139534,
          "velocity": 0.36220472440944884
        },
        {
          "duration": 0.03488372093028147,
          "durationTicks": 3,
          "midi": 62,
          "name": "D4",
          "ticks": 22562,
          "time": 262.3488372093023,
          "velocity": 0.28346456692913385
        },
        {
          "duration": 0.20930232558134776,
          "durationTicks": 18,
          "midi": 62,
          "name": "D4",
          "ticks": 22566,
          "time": 262.3953488372093,
          "velocity": 0.28346456692913385
        },
        {
          "duration": 0.023255813953483084,
          "durationTicks": 2,
          "midi": 70,
          "name": "A#4",
          "ticks": 22572,
          "time": 262.4651162790698,
          "velocity": 0.2992125984251969
        },
        {
          "duration": 0.034883720930224626,
          "durationTicks": 3,
          "midi": 74,
          "name": "D5",
          "ticks": 22573,
          "time": 262.4767441860465,
          "velocity": 0.4015748031496063
        },
        {
          "duration": 0.19767441860466306,
          "durationTicks": 17,
          "midi": 69,
          "name": "A4",
          "ticks": 22581,
          "time": 262.56976744186045,
          "velocity": 0.2283464566929134
        },
        {
          "duration": 0.011627906976741542,
          "durationTicks": 1,
          "midi": 41,
          "name": "F2",
          "ticks": 22584,
          "time": 262.6046511627907,
          "velocity": 0.5433070866141733
        },
        {
          "duration": 0.19767441860466306,
          "durationTicks": 17,
          "midi": 64,
          "name": "E4",
          "ticks": 22584,
          "time": 262.6046511627907,
          "velocity": 0.28346456692913385
        },
        {
          "duration": 0.03488372093028147,
          "durationTicks": 3,
          "midi": 42,
          "name": "F#2",
          "ticks": 22585,
          "time": 262.6162790697674,
          "velocity": 0.5196850393700787
        },
        {
          "duration": 0.12790697674415696,
          "durationTicks": 11,
          "midi": 57,
          "name": "A3",
          "ticks": 22587,
          "time": 262.63953488372096,
          "velocity": 0.12598425196850394
        },
        {
          "duration": 0.023255813953483084,
          "durationTicks": 2,
          "midi": 45,
          "name": "A2",
          "ticks": 22588,
          "time": 262.6511627906977,
          "velocity": 0.2677165354330709
        },
        {
          "duration": 0.023255813953483084,
          "durationTicks": 2,
          "midi": 44,
          "name": "G#2",
          "ticks": 22590,
          "time": 262.6744186046512,
          "velocity": 0.28346456692913385
        },
        {
          "duration": 0.12790697674415696,
          "durationTicks": 11,
          "midi": 45,
          "name": "A2",
          "ticks": 22594,
          "time": 262.72093023255815,
          "velocity": 0.25984251968503935
        },
        {
          "duration": 0.034883720930224626,
          "durationTicks": 3,
          "midi": 62,
          "name": "D4",
          "ticks": 22602,
          "time": 262.8139534883721,
          "velocity": 0.23622047244094488
        },
        {
          "duration": 0.023255813953483084,
          "durationTicks": 2,
          "midi": 61,
          "name": "C#4",
          "ticks": 22605,
          "time": 262.8488372093023,
          "velocity": 0.25984251968503935
        },
        {
          "duration": 0.09302325581398918,
          "durationTicks": 8,
          "midi": 55,
          "name": "G3",
          "ticks": 22606,
          "time": 262.86046511627904,
          "velocity": 0.5826771653543307
        },
        {
          "duration": 0.04651162790702301,
          "durationTicks": 4,
          "midi": 71,
          "name": "B4",
          "ticks": 22606,
          "time": 262.86046511627904,
          "velocity": 0.1889763779527559
        },
        {
          "duration": 0.023255813953483084,
          "durationTicks": 2,
          "midi": 42,
          "name": "F#2",
          "ticks": 22608,
          "time": 262.8837209302326,
          "velocity": 0.28346456692913385
        },
        {
          "duration": 0.034883720930224626,
          "durationTicks": 3,
          "midi": 43,
          "name": "G2",
          "ticks": 22610,
          "time": 262.90697674418607,
          "velocity": 0.25984251968503935
        },
        {
          "duration": 0.034883720930224626,
          "durationTicks": 3,
          "midi": 74,
          "name": "D5",
          "ticks": 22610,
          "time": 262.90697674418607,
          "velocity": 0.09448818897637795
        },
        {
          "duration": 0.034883720930224626,
          "durationTicks": 3,
          "midi": 66,
          "name": "F#4",
          "ticks": 22613,
          "time": 262.9418604651163,
          "velocity": 0.18110236220472442
        },
        {
          "duration": 0.05813953488370771,
          "durationTicks": 5,
          "midi": 54,
          "name": "F#3",
          "ticks": 22614,
          "time": 262.95348837209303,
          "velocity": 0.44881889763779526
        },
        {
          "duration": 0.04651162790696617,
          "durationTicks": 4,
          "midi": 65,
          "name": "F4",
          "ticks": 22616,
          "time": 262.9767441860465,
          "velocity": 0.2125984251968504
        },
        {
          "duration": 0.034883720930224626,
          "durationTicks": 3,
          "midi": 72,
          "name": "C5",
          "ticks": 22617,
          "time": 262.98837209302326,
          "velocity": 0.11811023622047244
        },
        {
          "duration": 0.33720930232556157,
          "durationTicks": 29,
          "midi": 55,
          "name": "G3",
          "ticks": 22619,
          "time": 263.01162790697674,
          "velocity": 0.3700787401574803
        },
        {
          "duration": 0.04651162790696617,
          "durationTicks": 4,
          "midi": 64,
          "name": "E4",
          "ticks": 22620,
          "time": 263.0232558139535,
          "velocity": 0.2204724409448819
        },
        {
          "duration": 0.034883720930224626,
          "durationTicks": 3,
          "midi": 70,
          "name": "A#4",
          "ticks": 22623,
          "time": 263.0581395348837,
          "velocity": 0.07086614173228346
        },
        {
          "duration": 0.034883720930224626,
          "durationTicks": 3,
          "midi": 63,
          "name": "D#4",
          "ticks": 22624,
          "time": 263.06976744186045,
          "velocity": 0.1732283464566929
        },
        {
          "duration": 0.03488372093028147,
          "durationTicks": 3,
          "midi": 62,
          "name": "D4",
          "ticks": 22628,
          "time": 263.1162790697674,
          "velocity": 0.07874015748031496
        },
        {
          "duration": 0.05813953488370771,
          "durationTicks": 5,
          "midi": 61,
          "name": "C#4",
          "ticks": 22631,
          "time": 263.1511627906977,
          "velocity": 0.07086614173228346
        },
        {
          "duration": 0.04651162790696617,
          "durationTicks": 4,
          "midi": 49,
          "name": "C#3",
          "ticks": 22632,
          "time": 263.16279069767444,
          "velocity": 0.1968503937007874
        },
        {
          "duration": 0.04651162790696617,
          "durationTicks": 4,
          "midi": 48,
          "name": "C3",
          "ticks": 22636,
          "time": 263.2093023255814,
          "velocity": 0.2125984251968504
        },
        {
          "duration": 0.05813953488370771,
          "durationTicks": 5,
          "midi": 91,
          "name": "G6",
          "ticks": 22639,
          "time": 263.24418604651163,
          "velocity": 0.11811023622047244
        },
        {
          "duration": 0.034883720930224626,
          "durationTicks": 3,
          "midi": 47,
          "name": "B2",
          "ticks": 22640,
          "time": 263.25581395348837,
          "velocity": 0.1732283464566929
        },
        {
          "duration": 0.034883720930224626,
          "durationTicks": 3,
          "midi": 46,
          "name": "A#2",
          "ticks": 22645,
          "time": 263.3139534883721,
          "velocity": 0.18110236220472442
        },
        {
          "duration": 0.3604651162791015,
          "durationTicks": 31,
          "midi": 86,
          "name": "D6",
          "ticks": 22648,
          "time": 263.3488372093023,
          "velocity": 0.18110236220472442
        },
        {
          "duration": 0.03488372093028147,
          "durationTicks": 3,
          "midi": 65,
          "name": "F4",
          "ticks": 22649,
          "time": 263.36046511627904,
          "velocity": 0.14173228346456693
        },
        {
          "duration": 0.5697674418605061,
          "durationTicks": 49,
          "midi": 74,
          "name": "D5",
          "ticks": 22649,
          "time": 263.36046511627904,
          "velocity": 0.33858267716535434
        },
        {
          "duration": 0.011627906976798386,
          "durationTicks": 1,
          "midi": 57,
          "name": "A3",
          "ticks": 22650,
          "time": 263.3720930232558,
          "velocity": 0.5118110236220472
        },
        {
          "duration": 0.03488372093028147,
          "durationTicks": 3,
          "midi": 71,
          "name": "B4",
          "ticks": 22650,
          "time": 263.3720930232558,
          "velocity": 0.25984251968503935
        },
        {
          "duration": 0.26744186046516916,
          "durationTicks": 23,
          "midi": 82,
          "name": "A#5",
          "ticks": 22650,
          "time": 263.3720930232558,
          "velocity": 0.2677165354330709
        },
        {
          "duration": 0.023255813953483084,
          "durationTicks": 2,
          "midi": 45,
          "name": "A2",
          "ticks": 22651,
          "time": 263.3837209302326,
          "velocity": 0.3858267716535433
        },
        {
          "duration": 0.5232558139534831,
          "durationTicks": 45,
          "midi": 58,
          "name": "A#3",
          "ticks": 22651,
          "time": 263.3837209302326,
          "velocity": 0.48031496062992124
        },
        {
          "duration": 0.22093023255814614,
          "durationTicks": 19,
          "midi": 46,
          "name": "A#2",
          "ticks": 22653,
          "time": 263.40697674418607,
          "velocity": 0.33858267716535434
        },
        {
          "duration": 0.10465116279067388,
          "durationTicks": 9,
          "midi": 101,
          "name": "F7",
          "ticks": 22654,
          "time": 263.4186046511628,
          "velocity": 0.07086614173228346
        },
        {
          "duration": 0.27906976744185386,
          "durationTicks": 24,
          "midi": 62,
          "name": "D4",
          "ticks": 22672,
          "time": 263.6279069767442,
          "velocity": 0.33070866141732286
        },
        {
          "duration": 0.023255813953483084,
          "durationTicks": 2,
          "midi": 45,
          "name": "A2",
          "ticks": 22674,
          "time": 263.6511627906977,
          "velocity": 0.3464566929133858
        },
        {
          "duration": 0.11627906976741542,
          "durationTicks": 10,
          "midi": 46,
          "name": "A#2",
          "ticks": 22676,
          "time": 263.6744186046512,
          "velocity": 0.3779527559055118
        },
        {
          "duration": 0.13953488372095535,
          "durationTicks": 12,
          "midi": 82,
          "name": "A#5",
          "ticks": 22684,
          "time": 263.7674418604651,
          "velocity": 0.18110236220472442
        },
        {
          "duration": 0.1511627906976969,
          "durationTicks": 13,
          "midi": 89,
          "name": "F6",
          "ticks": 22685,
          "time": 263.77906976744185,
          "velocity": 0.16535433070866143
        },
        {
          "duration": 0.09302325581398918,
          "durationTicks": 8,
          "midi": 46,
          "name": "A#2",
          "ticks": 22687,
          "time": 263.80232558139534,
          "velocity": 0.3228346456692913
        },
        {
          "duration": 0.04651162790696617,
          "durationTicks": 4,
          "midi": 58,
          "name": "A#3",
          "ticks": 22697,
          "time": 263.9186046511628,
          "velocity": 0.2755905511811024
        },
        {
          "duration": 0.034883720930224626,
          "durationTicks": 3,
          "midi": 55,
          "name": "G3",
          "ticks": 22705,
          "time": 264.01162790697674,
          "velocity": 0.4409448818897638
        },
        {
          "duration": 0.023255813953483084,
          "durationTicks": 2,
          "midi": 45,
          "name": "A2",
          "ticks": 22706,
          "time": 264.0232558139535,
          "velocity": 0.25196850393700787
        },
        {
          "duration": 0.04651162790696617,
          "durationTicks": 4,
          "midi": 64,
          "name": "E4",
          "ticks": 22706,
          "time": 264.0232558139535,
          "velocity": 0.2047244094488189
        },
        {
          "duration": 0.13953488372095535,
          "durationTicks": 12,
          "midi": 69,
          "name": "A4",
          "ticks": 22706,
          "time": 264.0232558139535,
          "velocity": 0.29133858267716534
        },
        {
          "duration": 0.11627906976747227,
          "durationTicks": 10,
          "midi": 97,
          "name": "C#7",
          "ticks": 22708,
          "time": 264.04651162790697,
          "velocity": 0.07874015748031496
        },
        {
          "duration": 0.11627906976747227,
          "durationTicks": 10,
          "midi": 57,
          "name": "A3",
          "ticks": 22709,
          "time": 264.0581395348837,
          "velocity": 0.41732283464566927
        },
        {
          "duration": 0.023255813953483084,
          "durationTicks": 2,
          "midi": 53,
          "name": "F3",
          "ticks": 22718,
          "time": 264.16279069767444,
          "velocity": 0.33070866141732286
        },
        {
          "duration": 0.034883720930224626,
          "durationTicks": 3,
          "midi": 69,
          "name": "A4",
          "ticks": 22719,
          "time": 264.1744186046512,
          "velocity": 0.14173228346456693
        },
        {
          "duration": 0.17441860465112313,
          "durationTicks": 15,
          "midi": 86,
          "name": "D6",
          "ticks": 22719,
          "time": 264.1744186046512,
          "velocity": 0.09448818897637795
        },
        {
          "duration": 0.2325581395348877,
          "durationTicks": 20,
          "midi": 92,
          "name": "G#6",
          "ticks": 22719,
          "time": 264.1744186046512,
          "velocity": 0.14173228346456693
        },
        {
          "duration": 0.2325581395348877,
          "durationTicks": 20,
          "midi": 58,
          "name": "A#3",
          "ticks": 22721,
          "time": 264.19767441860466,
          "velocity": 0.4094488188976378
        },
        {
          "duration": 0.05813953488370771,
          "durationTicks": 5,
          "midi": 101,
          "name": "F7",
          "ticks": 22721,
          "time": 264.19767441860466,
          "velocity": 0.14960629921259844
        },
        {
          "duration": 0.10465116279067388,
          "durationTicks": 9,
          "midi": 82,
          "name": "A#5",
          "ticks": 22726,
          "time": 264.25581395348837,
          "velocity": 0.11811023622047244
        },
        {
          "duration": 0.034883720930224626,
          "durationTicks": 3,
          "midi": 45,
          "name": "A2",
          "ticks": 22730,
          "time": 264.30232558139534,
          "velocity": 0.3779527559055118
        },
        {
          "duration": 0.19767441860466306,
          "durationTicks": 17,
          "midi": 74,
          "name": "D5",
          "ticks": 22732,
          "time": 264.3255813953488,
          "velocity": 0.1732283464566929
        },
        {
          "duration": 0.058139534883764554,
          "durationTicks": 5,
          "midi": 46,
          "name": "A#2",
          "ticks": 22735,
          "time": 264.36046511627904,
          "velocity": 0.3464566929133858
        },
        {
          "duration": 0.023255813953483084,
          "durationTicks": 2,
          "midi": 45,
          "name": "A2",
          "ticks": 22740,
          "time": 264.4186046511628,
          "velocity": 0.2755905511811024
        },
        {
          "duration": 0.023255813953483084,
          "durationTicks": 2,
          "midi": 55,
          "name": "G3",
          "ticks": 22741,
          "time": 264.43023255813955,
          "velocity": 0.47244094488188976
        },
        {
          "duration": 0.15116279069764005,
          "durationTicks": 13,
          "midi": 80,
          "name": "G#5",
          "ticks": 22741,
          "time": 264.43023255813955,
          "velocity": 0.13385826771653545
        },
        {
          "duration": 0.09302325581393234,
          "durationTicks": 8,
          "midi": 68,
          "name": "G#4",
          "ticks": 22742,
          "time": 264.4418604651163,
          "velocity": 0.1968503937007874
        },
        {
          "duration": 0.011627906976741542,
          "durationTicks": 1,
          "midi": 56,
          "name": "G#3",
          "ticks": 22743,
          "time": 264.45348837209303,
          "velocity": 0.5118110236220472
        },
        {
          "duration": 0.05813953488370771,
          "durationTicks": 5,
          "midi": 46,
          "name": "A#2",
          "ticks": 22744,
          "time": 264.4651162790698,
          "velocity": 0.2677165354330709
        },
        {
          "duration": 0.023255813953483084,
          "durationTicks": 2,
          "midi": 56,
          "name": "G#3",
          "ticks": 22745,
          "time": 264.4767441860465,
          "velocity": 0.4645669291338583
        },
        {
          "duration": 0.023255813953483084,
          "durationTicks": 2,
          "midi": 47,
          "name": "B2",
          "ticks": 22749,
          "time": 264.5232558139535,
          "velocity": 0.2677165354330709
        },
        {
          "duration": 0.1279069767442138,
          "durationTicks": 11,
          "midi": 82,
          "name": "A#5",
          "ticks": 22749,
          "time": 264.5232558139535,
          "velocity": 0.1968503937007874
        },
        {
          "duration": 0.04651162790696617,
          "durationTicks": 4,
          "midi": 74,
          "name": "D5",
          "ticks": 22750,
          "time": 264.5348837209302,
          "velocity": 0.16535433070866143
        },
        {
          "duration": 0.1279069767442138,
          "durationTicks": 11,
          "midi": 89,
          "name": "F6",
          "ticks": 22750,
          "time": 264.5348837209302,
          "velocity": 0.18110236220472442
        },
        {
          "duration": 0.034883720930224626,
          "durationTicks": 3,
          "midi": 45,
          "name": "A2",
          "ticks": 22751,
          "time": 264.54651162790697,
          "velocity": 0.33070866141732286
        },
        {
          "duration": 0.11627906976747227,
          "durationTicks": 10,
          "midi": 70,
          "name": "A#4",
          "ticks": 22751,
          "time": 264.54651162790697,
          "velocity": 0.1889763779527559
        },
        {
          "duration": 0.1279069767442138,
          "durationTicks": 11,
          "midi": 58,
          "name": "A#3",
          "ticks": 22754,
          "time": 264.5813953488372,
          "velocity": 0.3858267716535433
        },
        {
          "duration": 0.034883720930224626,
          "durationTicks": 3,
          "midi": 46,
          "name": "A#2",
          "ticks": 22765,
          "time": 264.7093023255814,
          "velocity": 0.28346456692913385
        },
        {
          "duration": 0.023255813953483084,
          "durationTicks": 2,
          "midi": 45,
          "name": "A2",
          "ticks": 22768,
          "time": 264.74418604651163,
          "velocity": 0.30708661417322836
        },
        {
          "duration": 0.023255813953483084,
          "durationTicks": 2,
          "midi": 46,
          "name": "A#2",
          "ticks": 22772,
          "time": 264.7906976744186,
          "velocity": 0.2755905511811024
        },
        {
          "duration": 0.13953488372095535,
          "durationTicks": 12,
          "midi": 55,
          "name": "G3",
          "ticks": 22773,
          "time": 264.80232558139534,
          "velocity": 0.5511811023622047
        },
        {
          "duration": 0.023255813953483084,
          "durationTicks": 2,
          "midi": 45,
          "name": "A2",
          "ticks": 22774,
          "time": 264.8139534883721,
          "velocity": 0.33858267716535434
        },
        {
          "duration": 0.17441860465117998,
          "durationTicks": 15,
          "midi": 74,
          "name": "D5",
          "ticks": 22774,
          "time": 264.8139534883721,
          "velocity": 0.25196850393700787
        },
        {
          "duration": 0.034883720930224626,
          "durationTicks": 3,
          "midi": 46,
          "name": "A#2",
          "ticks": 22781,
          "time": 264.8953488372093,
          "velocity": 0.2047244094488189
        },
        {
          "duration": 0.25581395348837077,
          "durationTicks": 22,
          "midi": 84,
          "name": "C6",
          "ticks": 22784,
          "time": 264.93023255813955,
          "velocity": 0.15748031496062992
        },
        {
          "duration": 0.023255813953483084,
          "durationTicks": 2,
          "midi": 44,
          "name": "G#2",
          "ticks": 22785,
          "time": 264.9418604651163,
          "velocity": 0.2440944881889764
        },
        {
          "duration": 0.034883720930224626,
          "durationTicks": 3,
          "midi": 54,
          "name": "F#3",
          "ticks": 22785,
          "time": 264.9418604651163,
          "velocity": 0.47244094488188976
        },
        {
          "duration": 0.24418604651162923,
          "durationTicks": 21,
          "midi": 65,
          "name": "F4",
          "ticks": 22785,
          "time": 264.9418604651163,
          "velocity": 0.3779527559055118
        },
        {
          "duration": 0.2674418604651123,
          "durationTicks": 23,
          "midi": 77,
          "name": "F5",
          "ticks": 22785,
          "time": 264.9418604651163,
          "velocity": 0.3858267716535433
        },
        {
          "duration": 0.034883720930224626,
          "durationTicks": 3,
          "midi": 55,
          "name": "G3",
          "ticks": 22788,
          "time": 264.9767441860465,
          "velocity": 0.28346456692913385
        },
        {
          "duration": 0.034883720930224626,
          "durationTicks": 3,
          "midi": 42,
          "name": "F#2",
          "ticks": 22797,
          "time": 265.0813953488372,
          "velocity": 0.2283464566929134
        },
        {
          "duration": 0.11627906976747227,
          "durationTicks": 10,
          "midi": 50,
          "name": "D3",
          "ticks": 22797,
          "time": 265.0813953488372,
          "velocity": 0.4094488188976378
        },
        {
          "duration": 0.1279069767442138,
          "durationTicks": 11,
          "midi": 81,
          "name": "A5",
          "ticks": 22799,
          "time": 265.1046511627907,
          "velocity": 0.09448818897637795
        },
        {
          "duration": 0.11627906976741542,
          "durationTicks": 10,
          "midi": 65,
          "name": "F4",
          "ticks": 22808,
          "time": 265.2093023255814,
          "velocity": 0.2440944881889764
        },
        {
          "duration": 0.09302325581393234,
          "durationTicks": 8,
          "midi": 72,
          "name": "C5",
          "ticks": 22810,
          "time": 265.2325581395349,
          "velocity": 0.07874015748031496
        },
        {
          "duration": 0.04651162790696617,
          "durationTicks": 4,
          "midi": 97,
          "name": "C#7",
          "ticks": 22810,
          "time": 265.2325581395349,
          "velocity": 0.08661417322834646
        },
        {
          "duration": 0.034883720930224626,
          "durationTicks": 3,
          "midi": 44,
          "name": "G#2",
          "ticks": 22811,
          "time": 265.24418604651163,
          "velocity": 0.12598425196850394
        },
        {
          "duration": 0.0813953488371908,
          "durationTicks": 7,
          "midi": 53,
          "name": "F3",
          "ticks": 22811,
          "time": 265.24418604651163,
          "velocity": 0.3228346456692913
        },
        {
          "duration": 0.6627906976744384,
          "durationTicks": 57,
          "midi": 67,
          "name": "G4",
          "ticks": 22818,
          "time": 265.3255813953488,
          "velocity": 0.3464566929133858
        },
        {
          "duration": 0.6627906976744384,
          "durationTicks": 57,
          "midi": 74,
          "name": "D5",
          "ticks": 22818,
          "time": 265.3255813953488,
          "velocity": 0.3464566929133858
        },
        {
          "duration": 0.13953488372095535,
          "durationTicks": 12,
          "midi": 55,
          "name": "G3",
          "ticks": 22819,
          "time": 265.33720930232556,
          "velocity": 0.5196850393700787
        },
        {
          "duration": 0.034883720930224626,
          "durationTicks": 3,
          "midi": 60,
          "name": "C4",
          "ticks": 22827,
          "time": 265.43023255813955,
          "velocity": 0.2677165354330709
        },
        {
          "duration": 0.023255813953483084,
          "durationTicks": 2,
          "midi": 48,
          "name": "C3",
          "ticks": 22828,
          "time": 265.4418604651163,
          "velocity": 0.3700787401574803
        },
        {
          "duration": 0.023255813953483084,
          "durationTicks": 2,
          "midi": 64,
          "name": "E4",
          "ticks": 22829,
          "time": 265.45348837209303,
          "velocity": 0.2283464566929134
        },
        {
          "duration": 0.05813953488370771,
          "durationTicks": 5,
          "midi": 72,
          "name": "C5",
          "ticks": 22830,
          "time": 265.4651162790698,
          "velocity": 0.12598425196850394
        },
        {
          "duration": 0.023255813953483084,
          "durationTicks": 2,
          "midi": 54,
          "name": "F#3",
          "ticks": 22831,
          "time": 265.4767441860465,
          "velocity": 0.4566929133858268
        },
        {
          "duration": 0.2325581395348877,
          "durationTicks": 20,
          "midi": 88,
          "name": "E6",
          "ticks": 22831,
          "time": 265.4767441860465,
          "velocity": 0.25196850393700787
        },
        {
          "duration": 0.2093023255814046,
          "durationTicks": 18,
          "midi": 102,
          "name": "F#7",
          "ticks": 22831,
          "time": 265.4767441860465,
          "velocity": 0.1968503937007874
        },
        {
          "duration": 0.5116279069767415,
          "durationTicks": 44,
          "midi": 64,
          "name": "E4",
          "ticks": 22832,
          "time": 265.48837209302326,
          "velocity": 0.4094488188976378
        },
        {
          "duration": 0.05813953488370771,
          "durationTicks": 5,
          "midi": 83,
          "name": "B5",
          "ticks": 22832,
          "time": 265.48837209302326,
          "velocity": 0.11023622047244094
        },
        {
          "duration": 0.4767441860465169,
          "durationTicks": 41,
          "midi": 48,
          "name": "C3",
          "ticks": 22833,
          "time": 265.5,
          "velocity": 0.3700787401574803
        },
        {
          "duration": 0.33720930232556157,
          "durationTicks": 29,
          "midi": 55,
          "name": "G3",
          "ticks": 22834,
          "time": 265.51162790697674,
          "velocity": 0.3937007874015748
        },
        {
          "duration": 0.058139534883764554,
          "durationTicks": 5,
          "midi": 83,
          "name": "B5",
          "ticks": 22841,
          "time": 265.59302325581393,
          "velocity": 0.11023622047244094
        },
        {
          "duration": 0.13953488372095535,
          "durationTicks": 12,
          "midi": 95,
          "name": "B6",
          "ticks": 22863,
          "time": 265.8488372093023,
          "velocity": 0.1968503937007874
        },
        {
          "duration": 0.13953488372095535,
          "durationTicks": 12,
          "midi": 55,
          "name": "G3",
          "ticks": 22865,
          "time": 265.8720930232558,
          "velocity": 0.3228346456692913
        },
        {
          "duration": 0.058139534883764554,
          "durationTicks": 5,
          "midi": 83,
          "name": "B5",
          "ticks": 22865,
          "time": 265.8720930232558,
          "velocity": 0.12598425196850394
        },
        {
          "duration": 0.034883720930224626,
          "durationTicks": 3,
          "midi": 70,
          "name": "A#4",
          "ticks": 22875,
          "time": 265.98837209302326,
          "velocity": 0.16535433070866143
        },
        {
          "duration": 0.03488372093028147,
          "durationTicks": 3,
          "midi": 45,
          "name": "A2",
          "ticks": 22885,
          "time": 266.1046511627907,
          "velocity": 0.2755905511811024
        },
        {
          "duration": 0.023255813953539928,
          "durationTicks": 2,
          "midi": 56,
          "name": "G#3",
          "ticks": 22886,
          "time": 266.1162790697674,
          "velocity": 0.49606299212598426
        },
        {
          "duration": 0.11627906976747227,
          "durationTicks": 10,
          "midi": 69,
          "name": "A4",
          "ticks": 22886,
          "time": 266.1162790697674,
          "velocity": 0.2283464566929134
        },
        {
          "duration": 0.10465116279067388,
          "durationTicks": 9,
          "midi": 76,
          "name": "E5",
          "ticks": 22887,
          "time": 266.1279069767442,
          "velocity": 0.08661417322834646
        },
        {
          "duration": 0.11627906976741542,
          "durationTicks": 10,
          "midi": 57,
          "name": "A3",
          "ticks": 22888,
          "time": 266.13953488372096,
          "velocity": 0.41732283464566927
        },
        {
          "duration": 0.04651162790696617,
          "durationTicks": 4,
          "midi": 44,
          "name": "G#2",
          "ticks": 22890,
          "time": 266.16279069767444,
          "velocity": 0.14173228346456693
        },
        {
          "duration": 0.023255813953483084,
          "durationTicks": 2,
          "midi": 51,
          "name": "D#3",
          "ticks": 22897,
          "time": 266.24418604651163,
          "velocity": 0.36220472440944884
        },
        {
          "duration": 0.023255813953483084,
          "durationTicks": 2,
          "midi": 61,
          "name": "C#4",
          "ticks": 22898,
          "time": 266.25581395348837,
          "velocity": 0.36220472440944884
        },
        {
          "duration": 0.3837209302325846,
          "durationTicks": 33,
          "midi": 74,
          "name": "D5",
          "ticks": 22898,
          "time": 266.25581395348837,
          "velocity": 0.33070866141732286
        },
        {
          "duration": 0.034883720930224626,
          "durationTicks": 3,
          "midi": 53,
          "name": "F3",
          "ticks": 22899,
          "time": 266.2674418604651,
          "velocity": 0.3464566929133858
        },
        {
          "duration": 0.3139534883720785,
          "durationTicks": 27,
          "midi": 98,
          "name": "D7",
          "ticks": 22899,
          "time": 266.2674418604651,
          "velocity": 0.2125984251968504
        },
        {
          "duration": 0.30232558139533694,
          "durationTicks": 26,
          "midi": 102,
          "name": "F#7",
          "ticks": 22899,
          "time": 266.2674418604651,
          "velocity": 0.2125984251968504
        },
        {
          "duration": 0.04651162790696617,
          "durationTicks": 4,
          "midi": 44,
          "name": "G#2",
          "ticks": 22900,
          "time": 266.27906976744185,
          "velocity": 0.14173228346456693
        },
        {
          "duration": 0.5,
          "durationTicks": 43,
          "midi": 62,
          "name": "D4",
          "ticks": 22900,
          "time": 266.27906976744185,
          "velocity": 0.3700787401574803
        },
        {
          "duration": 0.0697674418605061,
          "durationTicks": 6,
          "midi": 93,
          "name": "A6",
          "ticks": 22903,
          "time": 266.3139534883721,
          "velocity": 0.11023622047244094
        },
        {
          "duration": 0.13953488372095535,
          "durationTicks": 12,
          "midi": 48,
          "name": "C3",
          "ticks": 22906,
          "time": 266.3488372093023,
          "velocity": 0.33070866141732286
        },
        {
          "duration": 0.034883720930224626,
          "durationTicks": 3,
          "midi": 55,
          "name": "G3",
          "ticks": 22918,
          "time": 266.48837209302326,
          "velocity": 0.4881889763779528
        },
        {
          "duration": 0.1279069767442138,
          "durationTicks": 11,
          "midi": 68,
          "name": "G#4",
          "ticks": 22920,
          "time": 266.51162790697674,
          "velocity": 0.1732283464566929
        },
        {
          "duration": 0.11627906976747227,
          "durationTicks": 10,
          "midi": 48,
          "name": "C3",
          "ticks": 22921,
          "time": 266.5232558139535,
          "velocity": 0.13385826771653545
        },
        {
          "duration": 0.13953488372095535,
          "durationTicks": 12,
          "midi": 56,
          "name": "G#3",
          "ticks": 22921,
          "time": 266.5232558139535,
          "velocity": 0.47244094488188976
        },
        {
          "duration": 0.1395348837208985,
          "durationTicks": 12,
          "midi": 93,
          "name": "A6",
          "ticks": 22931,
          "time": 266.63953488372096,
          "velocity": 0.1968503937007874
        },
        {
          "duration": 0.15116279069764005,
          "durationTicks": 13,
          "midi": 98,
          "name": "D7",
          "ticks": 22931,
          "time": 266.63953488372096,
          "velocity": 0.1889763779527559
        },
        {
          "duration": 0.17441860465112313,
          "durationTicks": 15,
          "midi": 74,
          "name": "D5",
          "ticks": 22932,
          "time": 266.6511627906977,
          "velocity": 0.4015748031496063
        },
        {
          "duration": 0.09302325581393234,
          "durationTicks": 8,
          "midi": 55,
          "name": "G3",
          "ticks": 22933,
          "time": 266.66279069767444,
          "velocity": 0.3543307086614173
        },
        {
          "duration": 0.034883720930224626,
          "durationTicks": 3,
          "midi": 44,
          "name": "G#2",
          "ticks": 22934,
          "time": 266.6744186046512,
          "velocity": 0.11023622047244094
        },
        {
          "duration": 0.1279069767442138,
          "durationTicks": 11,
          "midi": 48,
          "name": "C3",
          "ticks": 22941,
          "time": 266.75581395348837,
          "velocity": 0.3779527559055118
        },
        {
          "duration": 0.034883720930224626,
          "durationTicks": 3,
          "midi": 76,
          "name": "E5",
          "ticks": 22944,
          "time": 266.7906976744186,
          "velocity": 0.07874015748031496
        },
        {
          "duration": 0.1627906976743816,
          "durationTicks": 14,
          "midi": 55,
          "name": "G3",
          "ticks": 22953,
          "time": 266.8953488372093,
          "velocity": 0.5511811023622047
        },
        {
          "duration": 0.1395348837208985,
          "durationTicks": 12,
          "midi": 74,
          "name": "D5",
          "ticks": 22953,
          "time": 266.8953488372093,
          "velocity": 0.25984251968503935
        },
        {
          "duration": 0.09302325581393234,
          "durationTicks": 8,
          "midi": 48,
          "name": "C3",
          "ticks": 22955,
          "time": 266.9186046511628,
          "velocity": 0.2204724409448819
        },
        {
          "duration": 0.2325581395348877,
          "durationTicks": 20,
          "midi": 84,
          "name": "C6",
          "ticks": 22965,
          "time": 267.0348837209302,
          "velocity": 0.23622047244094488
        },
        {
          "duration": 0.11627906976747227,
          "durationTicks": 10,
          "midi": 88,
          "name": "E6",
          "ticks": 22965,
          "time": 267.0348837209302,
          "velocity": 0.14173228346456693
        },
        {
          "duration": 0.19767441860466306,
          "durationTicks": 17,
          "midi": 60,
          "name": "C4",
          "ticks": 22966,
          "time": 267.04651162790697,
          "velocity": 0.44881889763779526
        },
        {
          "duration": 0.19767441860466306,
          "durationTicks": 17,
          "midi": 79,
          "name": "G5",
          "ticks": 22966,
          "time": 267.04651162790697,
          "velocity": 0.14173228346456693
        },
        {
          "duration": 0.023255813953483084,
          "durationTicks": 2,
          "midi": 53,
          "name": "F3",
          "ticks": 22967,
          "time": 267.0581395348837,
          "velocity": 0.25984251968503935
        },
        {
          "duration": 0.034883720930224626,
          "durationTicks": 3,
          "midi": 42,
          "name": "F#2",
          "ticks": 22969,
          "time": 267.0813953488372,
          "velocity": 0.18110236220472442
        },
        {
          "duration": 0.034883720930224626,
          "durationTicks": 3,
          "midi": 42,
          "name": "F#2",
          "ticks": 22976,
          "time": 267.16279069767444,
          "velocity": 0.2125984251968504
        },
        {
          "duration": 0.1395348837208985,
          "durationTicks": 12,
          "midi": 50,
          "name": "D3",
          "ticks": 22976,
          "time": 267.16279069767444,
          "velocity": 0.41732283464566927
        },
        {
          "duration": 0.06976744186044925,
          "durationTicks": 6,
          "midi": 103,
          "name": "G7",
          "ticks": 22978,
          "time": 267.1860465116279,
          "velocity": 0.14173228346456693
        },
        {
          "duration": 0.034883720930224626,
          "durationTicks": 3,
          "midi": 61,
          "name": "C#4",
          "ticks": 22983,
          "time": 267.24418604651163,
          "velocity": 0.3937007874015748
        },
        {
          "duration": 0.034883720930224626,
          "durationTicks": 3,
          "midi": 74,
          "name": "D5",
          "ticks": 22985,
          "time": 267.2674418604651,
          "velocity": 0.09448818897637795
        },
        {
          "duration": 0.034883720930224626,
          "durationTicks": 3,
          "midi": 75,
          "name": "D#5",
          "ticks": 22990,
          "time": 267.3255813953488,
          "velocity": 0.12598425196850394
        },
        {
          "duration": 0.058139534883764554,
          "durationTicks": 5,
          "midi": 44,
          "name": "G#2",
          "ticks": 22991,
          "time": 267.33720930232556,
          "velocity": 0.16535433070866143
        },
        {
          "duration": 0.03488372093028147,
          "durationTicks": 3,
          "midi": 51,
          "name": "D#3",
          "ticks": 22994,
          "time": 267.3720930232558,
          "velocity": 0.2677165354330709
        },
        {
          "duration": 0.1627906976743816,
          "durationTicks": 14,
          "midi": 55,
          "name": "G3",
          "ticks": 22997,
          "time": 267.40697674418607,
          "velocity": 0.5511811023622047
        },
        {
          "duration": 0.6860465116278647,
          "durationTicks": 59,
          "midi": 74,
          "name": "D5",
          "ticks": 22997,
          "time": 267.40697674418607,
          "velocity": 0.2677165354330709
        },
        {
          "duration": 0.034883720930224626,
          "durationTicks": 3,
          "midi": 93,
          "name": "A6",
          "ticks": 22997,
          "time": 267.40697674418607,
          "velocity": 0.1732283464566929
        },
        {
          "duration": 0.2906976744185954,
          "durationTicks": 25,
          "midi": 88,
          "name": "E6",
          "ticks": 23000,
          "time": 267.4418604651163,
          "velocity": 0.31496062992125984
        },
        {
          "duration": 0.1395348837208985,
          "durationTicks": 12,
          "midi": 95,
          "name": "B6",
          "ticks": 23000,
          "time": 267.4418604651163,
          "velocity": 0.14960629921259844
        },
        {
          "duration": 0.034883720930224626,
          "durationTicks": 3,
          "midi": 45,
          "name": "A2",
          "ticks": 23001,
          "time": 267.45348837209303,
          "velocity": 0.18110236220472442
        },
        {
          "duration": 0.27906976744185386,
          "durationTicks": 24,
          "midi": 64,
          "name": "E4",
          "ticks": 23001,
          "time": 267.45348837209303,
          "velocity": 0.41732283464566927
        },
        {
          "duration": 0.034883720930224626,
          "durationTicks": 3,
          "midi": 44,
          "name": "G#2",
          "ticks": 23004,
          "time": 267.48837209302326,
          "velocity": 0.09448818897637795
        },
        {
          "duration": 0.2325581395348877,
          "durationTicks": 20,
          "midi": 83,
          "name": "B5",
          "ticks": 23005,
          "time": 267.5,
          "velocity": 0.18110236220472442
        },
        {
          "duration": 0.034883720930224626,
          "durationTicks": 3,
          "midi": 47,
          "name": "B2",
          "ticks": 23009,
          "time": 267.54651162790697,
          "velocity": 0.36220472440944884
        },
        {
          "duration": 0.5465116279069662,
          "durationTicks": 47,
          "midi": 71,
          "name": "B4",
          "ticks": 23009,
          "time": 267.54651162790697,
          "velocity": 0.23622047244094488
        },
        {
          "duration": 0.5116279069767415,
          "durationTicks": 44,
          "midi": 55,
          "name": "G3",
          "ticks": 23012,
          "time": 267.5813953488372,
          "velocity": 0.4566929133858268
        },
        {
          "duration": 0.09302325581398918,
          "durationTicks": 8,
          "midi": 92,
          "name": "G#6",
          "ticks": 23012,
          "time": 267.5813953488372,
          "velocity": 0.07874015748031496
        },
        {
          "duration": 0.5116279069767415,
          "durationTicks": 44,
          "midi": 47,
          "name": "B2",
          "ticks": 23013,
          "time": 267.59302325581393,
          "velocity": 0.36220472440944884
        },
        {
          "duration": 0.0697674418605061,
          "durationTicks": 6,
          "midi": 102,
          "name": "F#7",
          "ticks": 23013,
          "time": 267.59302325581393,
          "velocity": 0.09448818897637795
        },
        {
          "duration": 0.38372093023252773,
          "durationTicks": 33,
          "midi": 65,
          "name": "F4",
          "ticks": 23025,
          "time": 267.7325581395349,
          "velocity": 0.3464566929133858
        },
        {
          "duration": 0.3953488372093261,
          "durationTicks": 34,
          "midi": 84,
          "name": "C6",
          "ticks": 23025,
          "time": 267.7325581395349,
          "velocity": 0.16535433070866143
        },
        {
          "duration": 0.04651162790696617,
          "durationTicks": 4,
          "midi": 62,
          "name": "D4",
          "ticks": 23033,
          "time": 267.8255813953488,
          "velocity": 0.2992125984251969
        },
        {
          "duration": 0.11627906976741542,
          "durationTicks": 10,
          "midi": 62,
          "name": "D4",
          "ticks": 23038,
          "time": 267.8837209302326,
          "velocity": 0.29133858267716534
        },
        {
          "duration": 0.18604651162786467,
          "durationTicks": 16,
          "midi": 81,
          "name": "A5",
          "ticks": 23039,
          "time": 267.8953488372093,
          "velocity": 0.08661417322834646
        },
        {
          "duration": 0.05813953488370771,
          "durationTicks": 5,
          "midi": 62,
          "name": "D4",
          "ticks": 23051,
          "time": 268.0348837209302,
          "velocity": 0.1889763779527559
        },
        {
          "duration": 0.04651162790702301,
          "durationTicks": 4,
          "midi": 71,
          "name": "B4",
          "ticks": 23057,
          "time": 268.1046511627907,
          "velocity": 0.2204724409448819
        },
        {
          "duration": 0.12790697674415696,
          "durationTicks": 11,
          "midi": 57,
          "name": "A3",
          "ticks": 23067,
          "time": 268.22093023255815,
          "velocity": 0.4409448818897638
        },
        {
          "duration": 0.034883720930224626,
          "durationTicks": 3,
          "midi": 75,
          "name": "D#5",
          "ticks": 23067,
          "time": 268.22093023255815,
          "velocity": 0.07086614173228346
        },
        {
          "duration": 0.034883720930224626,
          "durationTicks": 3,
          "midi": 77,
          "name": "F5",
          "ticks": 23067,
          "time": 268.22093023255815,
          "velocity": 0.11811023622047244
        },
        {
          "duration": 0.0813953488371908,
          "durationTicks": 7,
          "midi": 76,
          "name": "E5",
          "ticks": 23070,
          "time": 268.25581395348837,
          "velocity": 0.13385826771653545
        },
        {
          "duration": 0.023255813953483084,
          "durationTicks": 2,
          "midi": 63,
          "name": "D#4",
          "ticks": 23078,
          "time": 268.3488372093023,
          "velocity": 0.30708661417322836
        },
        {
          "duration": 0.5348837209302815,
          "durationTicks": 46,
          "midi": 77,
          "name": "F5",
          "ticks": 23079,
          "time": 268.36046511627904,
          "velocity": 0.28346456692913385
        },
        {
          "duration": 0.32558139534887687,
          "durationTicks": 28,
          "midi": 84,
          "name": "C6",
          "ticks": 23079,
          "time": 268.36046511627904,
          "velocity": 0.16535433070866143
        },
        {
          "duration": 0.03488372093028147,
          "durationTicks": 3,
          "midi": 42,
          "name": "F#2",
          "ticks": 23080,
          "time": 268.3720930232558,
          "velocity": 0.28346456692913385
        },
        {
          "duration": 0.04651162790702301,
          "durationTicks": 4,
          "midi": 62,
          "name": "D4",
          "ticks": 23080,
          "time": 268.3720930232558,
          "velocity": 0.25984251968503935
        },
        {
          "duration": 0.5,
          "durationTicks": 43,
          "midi": 65,
          "name": "F4",
          "ticks": 23080,
          "time": 268.3720930232558,
          "velocity": 0.3543307086614173
        },
        {
          "duration": 0.06976744186044925,
          "durationTicks": 6,
          "midi": 56,
          "name": "G#3",
          "ticks": 23081,
          "time": 268.3837209302326,
          "velocity": 0.29133858267716534
        },
        {
          "duration": 0.023255813953483084,
          "durationTicks": 2,
          "midi": 45,
          "name": "A2",
          "ticks": 23088,
          "time": 268.4651162790698,
          "velocity": 0.36220472440944884
        },
        {
          "duration": 0.2093023255814046,
          "durationTicks": 18,
          "midi": 71,
          "name": "B4",
          "ticks": 23089,
          "time": 268.4767441860465,
          "velocity": 0.14960629921259844
        },
        {
          "duration": 0.10465116279067388,
          "durationTicks": 9,
          "midi": 47,
          "name": "B2",
          "ticks": 23090,
          "time": 268.48837209302326,
          "velocity": 0.3464566929133858
        },
        {
          "duration": 0.023255813953539928,
          "durationTicks": 2,
          "midi": 55,
          "name": "G3",
          "ticks": 23100,
          "time": 268.6046511627907,
          "velocity": 0.48031496062992124
        },
        {
          "duration": 0.10465116279073072,
          "durationTicks": 9,
          "midi": 68,
          "name": "G#4",
          "ticks": 23100,
          "time": 268.6046511627907,
          "velocity": 0.2125984251968504
        },
        {
          "duration": 0.08139534883724764,
          "durationTicks": 7,
          "midi": 75,
          "name": "D#5",
          "ticks": 23100,
          "time": 268.6046511627907,
          "velocity": 0.12598425196850394
        },
        {
          "duration": 0.10465116279067388,
          "durationTicks": 9,
          "midi": 47,
          "name": "B2",
          "ticks": 23102,
          "time": 268.6279069767442,
          "velocity": 0.3228346456692913
        },
        {
          "duration": 0.12790697674415696,
          "durationTicks": 11,
          "midi": 56,
          "name": "G#3",
          "ticks": 23102,
          "time": 268.6279069767442,
          "velocity": 0.47244094488188976
        },
        {
          "duration": 0.19767441860466306,
          "durationTicks": 17,
          "midi": 89,
          "name": "F6",
          "ticks": 23107,
          "time": 268.6860465116279,
          "velocity": 0.36220472440944884
        },
        {
          "duration": 0.05813953488370771,
          "durationTicks": 5,
          "midi": 56,
          "name": "G#3",
          "ticks": 23115,
          "time": 268.77906976744185,
          "velocity": 0.12598425196850394
        },
        {
          "duration": 0.023255813953483084,
          "durationTicks": 2,
          "midi": 45,
          "name": "A2",
          "ticks": 23120,
          "time": 268.83720930232556,
          "velocity": 0.25984251968503935
        },
        {
          "duration": 0.034883720930224626,
          "durationTicks": 3,
          "midi": 47,
          "name": "B2",
          "ticks": 23126,
          "time": 268.90697674418607,
          "velocity": 0.12598425196850394
        },
        {
          "duration": 0.15116279069764005,
          "durationTicks": 13,
          "midi": 55,
          "name": "G3",
          "ticks": 23131,
          "time": 268.9651162790698,
          "velocity": 0.5511811023622047
        },
        {
          "duration": 0.12790697674415696,
          "durationTicks": 11,
          "midi": 74,
          "name": "D5",
          "ticks": 23132,
          "time": 268.9767441860465,
          "velocity": 0.2204724409448819
        },
        {
          "duration": 0.023255813953483084,
          "durationTicks": 2,
          "midi": 61,
          "name": "C#4",
          "ticks": 23142,
          "time": 269.09302325581393,
          "velocity": 0.25984251968503935
        },
        {
          "duration": 0.2093023255814046,
          "durationTicks": 18,
          "midi": 84,
          "name": "C6",
          "ticks": 23143,
          "time": 269.1046511627907,
          "velocity": 0.1889763779527559
        },
        {
          "duration": 0.22093023255814614,
          "durationTicks": 19,
          "midi": 89,
          "name": "F6",
          "ticks": 23143,
          "time": 269.1046511627907,
          "velocity": 0.31496062992125984
        },
        {
          "duration": 0.023255813953539928,
          "durationTicks": 2,
          "midi": 53,
          "name": "F3",
          "ticks": 23144,
          "time": 269.1162790697674,
          "velocity": 0.3858267716535433
        },
        {
          "duration": 0.19767441860466306,
          "durationTicks": 17,
          "midi": 65,
          "name": "F4",
          "ticks": 23144,
          "time": 269.1162790697674,
          "velocity": 0.41732283464566927
        },
        {
          "duration": 0.023255813953483084,
          "durationTicks": 2,
          "midi": 56,
          "name": "G#3",
          "ticks": 23146,
          "time": 269.13953488372096,
          "velocity": 0.25984251968503935
        },
        {
          "duration": 0.13953488372095535,
          "durationTicks": 12,
          "midi": 50,
          "name": "D3",
          "ticks": 23155,
          "time": 269.24418604651163,
          "velocity": 0.3937007874015748
        },
        {
          "duration": 0.023255813953483084,
          "durationTicks": 2,
          "midi": 64,
          "name": "E4",
          "ticks": 23161,
          "time": 269.3139534883721,
          "velocity": 0.25984251968503935
        },
        {
          "duration": 0.06976744186044925,
          "durationTicks": 6,
          "midi": 53,
          "name": "F3",
          "ticks": 23168,
          "time": 269.3953488372093,
          "velocity": 0.2440944881889764
        },
        {
          "duration": 0.1279069767442138,
          "durationTicks": 11,
          "midi": 67,
          "name": "G4",
          "ticks": 23178,
          "time": 269.51162790697674,
          "velocity": 0.2677165354330709
        },
        {
          "duration": 0.4186046511628092,
          "durationTicks": 36,
          "midi": 74,
          "name": "D5",
          "ticks": 23178,
          "time": 269.51162790697674,
          "velocity": 0.2677165354330709
        },
        {
          "duration": 0.6511627906976969,
          "durationTicks": 56,
          "midi": 55,
          "name": "G3",
          "ticks": 23179,
          "time": 269.5232558139535,
          "velocity": 0.49606299212598426
        },
        {
          "duration": 0.17441860465117998,
          "durationTicks": 15,
          "midi": 64,
          "name": "E4",
          "ticks": 23187,
          "time": 269.6162790697674,
          "velocity": 0.3858267716535433
        },
        {
          "duration": 0.023255813953483084,
          "durationTicks": 2,
          "midi": 48,
          "name": "C3",
          "ticks": 23188,
          "time": 269.6279069767442,
          "velocity": 0.41732283464566927
        },
        {
          "duration": 0.15116279069764005,
          "durationTicks": 13,
          "midi": 83,
          "name": "B5",
          "ticks": 23188,
          "time": 269.6279069767442,
          "velocity": 0.18110236220472442
        },
        {
          "duration": 0.2906976744185954,
          "durationTicks": 25,
          "midi": 71,
          "name": "B4",
          "ticks": 23189,
          "time": 269.63953488372096,
          "velocity": 0.2755905511811024
        },
        {
          "duration": 0.1395348837208985,
          "durationTicks": 12,
          "midi": 88,
          "name": "E6",
          "ticks": 23189,
          "time": 269.63953488372096,
          "velocity": 0.25984251968503935
        },
        {
          "duration": 0.023255813953483084,
          "durationTicks": 2,
          "midi": 46,
          "name": "A#2",
          "ticks": 23190,
          "time": 269.6511627906977,
          "velocity": 0.4094488188976378
        },
        {
          "duration": 0.023255813953483084,
          "durationTicks": 2,
          "midi": 59,
          "name": "B3",
          "ticks": 23191,
          "time": 269.66279069767444,
          "velocity": 0.2755905511811024
        },
        {
          "duration": 0.5,
          "durationTicks": 43,
          "midi": 47,
          "name": "B2",
          "ticks": 23192,
          "time": 269.6744186046512,
          "velocity": 0.3700787401574803
        },
        {
          "duration": 0.45348837209303383,
          "durationTicks": 39,
          "midi": 77,
          "name": "F5",
          "ticks": 23201,
          "time": 269.77906976744185,
          "velocity": 0.3228346456692913
        },
        {
          "duration": 0.37209302325584304,
          "durationTicks": 32,
          "midi": 65,
          "name": "F4",
          "ticks": 23202,
          "time": 269.7906976744186,
          "velocity": 0.3543307086614173
        },
        {
          "duration": 0.04651162790696617,
          "durationTicks": 4,
          "midi": 62,
          "name": "D4",
          "ticks": 23212,
          "time": 269.90697674418607,
          "velocity": 0.2992125984251969
        },
        {
          "duration": 0.023255813953483084,
          "durationTicks": 2,
          "midi": 75,
          "name": "D#5",
          "ticks": 23213,
          "time": 269.9186046511628,
          "velocity": 0.25196850393700787
        },
        {
          "duration": 0.2906976744185954,
          "durationTicks": 25,
          "midi": 74,
          "name": "D5",
          "ticks": 23215,
          "time": 269.9418604651163,
          "velocity": 0.3228346456692913
        },
        {
          "duration": 0.2093023255814046,
          "durationTicks": 18,
          "midi": 81,
          "name": "A5",
          "ticks": 23216,
          "time": 269.95348837209303,
          "velocity": 0.12598425196850394
        },
        {
          "duration": 0.04651162790696617,
          "durationTicks": 4,
          "midi": 62,
          "name": "D4",
          "ticks": 23223,
          "time": 270.0348837209302,
          "velocity": 0.23622047244094488
        },
        {
          "duration": 0.04651162790702301,
          "durationTicks": 4,
          "midi": 62,
          "name": "D4",
          "ticks": 23228,
          "time": 270.09302325581393,
          "velocity": 0.18110236220472442
        },
        {
          "duration": 0.04651162790696617,
          "durationTicks": 4,
          "midi": 64,
          "name": "E4",
          "ticks": 23234,
          "time": 270.16279069767444,
          "velocity": 0.2204724409448819
        },
        {
          "duration": 0.04651162790696617,
          "durationTicks": 4,
          "midi": 40,
          "name": "E2",
          "ticks": 23237,
          "time": 270.19767441860466,
          "velocity": 0.1968503937007874
        },
        {
          "duration": 0.023255813953483084,
          "durationTicks": 2,
          "midi": 55,
          "name": "G3",
          "ticks": 23245,
          "time": 270.2906976744186,
          "velocity": 0.3779527559055118
        },
        {
          "duration": 0.10465116279073072,
          "durationTicks": 9,
          "midi": 76,
          "name": "E5",
          "ticks": 23247,
          "time": 270.3139534883721,
          "velocity": 0.11811023622047244
        },
        {
          "duration": 0.09302325581398918,
          "durationTicks": 8,
          "midi": 57,
          "name": "A3",
          "ticks": 23248,
          "time": 270.3255813953488,
          "velocity": 0.4330708661417323
        },
        {
          "duration": 0.034883720930224626,
          "durationTicks": 3,
          "midi": 61,
          "name": "C#4",
          "ticks": 23257,
          "time": 270.43023255813955,
          "velocity": 0.25984251968503935
        },
        {
          "duration": 0.5348837209302246,
          "durationTicks": 46,
          "midi": 65,
          "name": "F4",
          "ticks": 23257,
          "time": 270.43023255813955,
          "velocity": 0.3858267716535433
        },
        {
          "duration": 0.04651162790696617,
          "durationTicks": 4,
          "midi": 53,
          "name": "F3",
          "ticks": 23258,
          "time": 270.4418604651163,
          "velocity": 0.4251968503937008
        },
        {
          "duration": 0.3139534883720785,
          "durationTicks": 27,
          "midi": 84,
          "name": "C6",
          "ticks": 23258,
          "time": 270.4418604651163,
          "velocity": 0.15748031496062992
        },
        {
          "duration": 0.2093023255814046,
          "durationTicks": 18,
          "midi": 89,
          "name": "F6",
          "ticks": 23258,
          "time": 270.4418604651163,
          "velocity": 0.2125984251968504
        },
        {
          "duration": 0.034883720930224626,
          "durationTicks": 3,
          "midi": 53,
          "name": "F3",
          "ticks": 23263,
          "time": 270.5,
          "velocity": 0.07874015748031496
        },
        {
          "duration": 0.13953488372095535,
          "durationTicks": 12,
          "midi": 47,
          "name": "B2",
          "ticks": 23267,
          "time": 270.54651162790697,
          "velocity": 0.2992125984251969
        },
        {
          "duration": 0.034883720930224626,
          "durationTicks": 3,
          "midi": 55,
          "name": "G3",
          "ticks": 23279,
          "time": 270.6860465116279,
          "velocity": 0.5039370078740157
        },
        {
          "duration": 0.1627906976743816,
          "durationTicks": 14,
          "midi": 68,
          "name": "G#4",
          "ticks": 23280,
          "time": 270.69767441860466,
          "velocity": 0.25196850393700787
        },
        {
          "duration": 0.034883720930224626,
          "durationTicks": 3,
          "midi": 87,
          "name": "D#6",
          "ticks": 23280,
          "time": 270.69767441860466,
          "velocity": 0.08661417322834646
        },
        {
          "duration": 0.10465116279067388,
          "durationTicks": 9,
          "midi": 47,
          "name": "B2",
          "ticks": 23282,
          "time": 270.72093023255815,
          "velocity": 0.2204724409448819
        },
        {
          "duration": 0.1395348837208985,
          "durationTicks": 12,
          "midi": 56,
          "name": "G#3",
          "ticks": 23282,
          "time": 270.72093023255815,
          "velocity": 0.4881889763779528
        },
        {
          "duration": 0.1511627906976969,
          "durationTicks": 13,
          "midi": 84,
          "name": "C6",
          "ticks": 23290,
          "time": 270.8139534883721,
          "velocity": 0.1968503937007874
        },
        {
          "duration": 0.03488372093028147,
          "durationTicks": 3,
          "midi": 56,
          "name": "G#3",
          "ticks": 23295,
          "time": 270.8720930232558,
          "velocity": 0.23622047244094488
        },
        {
          "duration": 0.023255813953483084,
          "durationTicks": 2,
          "midi": 45,
          "name": "A2",
          "ticks": 23301,
          "time": 270.9418604651163,
          "velocity": 0.29133858267716534
        },
        {
          "duration": 0.09302325581393234,
          "durationTicks": 8,
          "midi": 47,
          "name": "B2",
          "ticks": 23303,
          "time": 270.9651162790698,
          "velocity": 0.2125984251968504
        },
        {
          "duration": 0.034883720930224626,
          "durationTicks": 3,
          "midi": 64,
          "name": "E4",
          "ticks": 23303,
          "time": 270.9651162790698,
          "velocity": 0.18110236220472442
        },
        {
          "duration": 0.17441860465117998,
          "durationTicks": 15,
          "midi": 55,
          "name": "G3",
          "ticks": 23312,
          "time": 271.06976744186045,
          "velocity": 0.5511811023622047
        },
        {
          "duration": 0.18604651162792152,
          "durationTicks": 16,
          "midi": 74,
          "name": "D5",
          "ticks": 23312,
          "time": 271.06976744186045,
          "velocity": 0.2125984251968504
        },
        {
          "duration": 0.04651162790696617,
          "durationTicks": 4,
          "midi": 47,
          "name": "B2",
          "ticks": 23319,
          "time": 271.1511627906977,
          "velocity": 0.10236220472440945
        },
        {
          "duration": 0.24418604651162923,
          "durationTicks": 21,
          "midi": 89,
          "name": "F6",
          "ticks": 23323,
          "time": 271.19767441860466,
          "velocity": 0.29133858267716534
        },
        {
          "duration": 0.22093023255814614,
          "durationTicks": 19,
          "midi": 65,
          "name": "F4",
          "ticks": 23324,
          "time": 271.2093023255814,
          "velocity": 0.41732283464566927
        },
        {
          "duration": 0.04651162790696617,
          "durationTicks": 4,
          "midi": 71,
          "name": "B4",
          "ticks": 23324,
          "time": 271.2093023255814,
          "velocity": 0.2677165354330709
        },
        {
          "duration": 0.2093023255814046,
          "durationTicks": 18,
          "midi": 84,
          "name": "C6",
          "ticks": 23324,
          "time": 271.2093023255814,
          "velocity": 0.16535433070866143
        },
        {
          "duration": 0.034883720930224626,
          "durationTicks": 3,
          "midi": 41,
          "name": "F2",
          "ticks": 23327,
          "time": 271.24418604651163,
          "velocity": 0.12598425196850394
        },
        {
          "duration": 0.1511627906976969,
          "durationTicks": 13,
          "midi": 93,
          "name": "A6",
          "ticks": 23327,
          "time": 271.24418604651163,
          "velocity": 0.09448818897637795
        },
        {
          "duration": 0.034883720930224626,
          "durationTicks": 3,
          "midi": 42,
          "name": "F#2",
          "ticks": 23330,
          "time": 271.27906976744185,
          "velocity": 0.11023622047244094
        },
        {
          "duration": 0.13953488372095535,
          "durationTicks": 12,
          "midi": 50,
          "name": "D3",
          "ticks": 23336,
          "time": 271.3488372093023,
          "velocity": 0.4330708661417323
        },
        {
          "duration": 0.11627906976741542,
          "durationTicks": 10,
          "midi": 65,
          "name": "F4",
          "ticks": 23348,
          "time": 271.48837209302326,
          "velocity": 0.1889763779527559
        },
        {
          "duration": 0.0813953488371908,
          "durationTicks": 7,
          "midi": 53,
          "name": "F3",
          "ticks": 23349,
          "time": 271.5,
          "velocity": 0.4330708661417323
        },
        {
          "duration": 0.32558139534887687,
          "durationTicks": 28,
          "midi": 67,
          "name": "G4",
          "ticks": 23358,
          "time": 271.6046511627907,
          "velocity": 0.2440944881889764
        },
        {
          "duration": 0.6627906976744384,
          "durationTicks": 57,
          "midi": 74,
          "name": "D5",
          "ticks": 23358,
          "time": 271.6046511627907,
          "velocity": 0.3543307086614173
        },
        {
          "duration": 0.03488372093028147,
          "durationTicks": 3,
          "midi": 44,
          "name": "G#2",
          "ticks": 23359,
          "time": 271.6162790697674,
          "velocity": 0.2992125984251969
        },
        {
          "duration": 0.1279069767442138,
          "durationTicks": 11,
          "midi": 55,
          "name": "G3",
          "ticks": 23359,
          "time": 271.6162790697674,
          "velocity": 0.5196850393700787
        },
        {
          "duration": 0.034883720930224626,
          "durationTicks": 3,
          "midi": 45,
          "name": "A2",
          "ticks": 23362,
          "time": 271.6511627906977,
          "velocity": 0.07874015748031496
        },
        {
          "duration": 0.023255813953483084,
          "durationTicks": 2,
          "midi": 58,
          "name": "A#3",
          "ticks": 23369,
          "time": 271.7325581395349,
          "velocity": 0.4330708661417323
        },
        {
          "duration": 0.04651162790696617,
          "durationTicks": 4,
          "midi": 45,
          "name": "A2",
          "ticks": 23370,
          "time": 271.74418604651163,
          "velocity": 0.33858267716535434
        },
        {
          "duration": 0.0813953488371908,
          "durationTicks": 7,
          "midi": 89,
          "name": "F6",
          "ticks": 23370,
          "time": 271.74418604651163,
          "velocity": 0.14173228346456693
        },
        {
          "duration": 0.023255813953483084,
          "durationTicks": 2,
          "midi": 55,
          "name": "G3",
          "ticks": 23371,
          "time": 271.75581395348837,
          "velocity": 0.4645669291338583
        },
        {
          "duration": 0.06976744186044925,
          "durationTicks": 6,
          "midi": 55,
          "name": "G3",
          "ticks": 23374,
          "time": 271.7906976744186,
          "velocity": 0.41732283464566927
        },
        {
          "duration": 0.2093023255814046,
          "durationTicks": 18,
          "midi": 46,
          "name": "A#2",
          "ticks": 23376,
          "time": 271.8139534883721,
          "velocity": 0.3700787401574803
        },
        {
          "duration": 0.058139534883764554,
          "durationTicks": 5,
          "midi": 55,
          "name": "G3",
          "ticks": 23381,
          "time": 271.8720930232558,
          "velocity": 0.36220472440944884
        },
        {
          "duration": 0.09302325581398918,
          "durationTicks": 8,
          "midi": 89,
          "name": "F6",
          "ticks": 23381,
          "time": 271.8720930232558,
          "velocity": 0.11811023622047244
        },
        {
          "duration": 0.24418604651162923,
          "durationTicks": 21,
          "midi": 62,
          "name": "D4",
          "ticks": 23392,
          "time": 272,
          "velocity": 0.3228346456692913
        },
        {
          "duration": 0.22093023255814614,
          "durationTicks": 19,
          "midi": 58,
          "name": "A#3",
          "ticks": 23394,
          "time": 272.0232558139535,
          "velocity": 0.3700787401574803
        },
        {
          "duration": 0.023255813953483084,
          "durationTicks": 2,
          "midi": 46,
          "name": "A#2",
          "ticks": 23395,
          "time": 272.0348837209302,
          "velocity": 0.28346456692913385
        },
        {
          "duration": 0.25581395348837077,
          "durationTicks": 22,
          "midi": 89,
          "name": "F6",
          "ticks": 23396,
          "time": 272.04651162790697,
          "velocity": 0.18110236220472442
        },
        {
          "duration": 0.17441860465117998,
          "durationTicks": 15,
          "midi": 81,
          "name": "A5",
          "ticks": 23397,
          "time": 272.0581395348837,
          "velocity": 0.13385826771653545
        },
        {
          "duration": 0.058139534883764554,
          "durationTicks": 5,
          "midi": 46,
          "name": "A#2",
          "ticks": 23398,
          "time": 272.06976744186045,
          "velocity": 0.28346456692913385
        },
        {
          "duration": 0.16279069767443843,
          "durationTicks": 14,
          "midi": 82,
          "name": "A#5",
          "ticks": 23402,
          "time": 272.1162790697674,
          "velocity": 0.14173228346456693
        },
        {
          "duration": 0.023255813953483084,
          "durationTicks": 2,
          "midi": 45,
          "name": "A2",
          "ticks": 23405,
          "time": 272.1511627906977,
          "velocity": 0.3464566929133858
        },
        {
          "duration": 0.09302325581393234,
          "durationTicks": 8,
          "midi": 46,
          "name": "A#2",
          "ticks": 23407,
          "time": 272.1744186046512,
          "velocity": 0.3228346456692913
        },
        {
          "duration": 0.034883720930224626,
          "durationTicks": 3,
          "midi": 55,
          "name": "G3",
          "ticks": 23414,
          "time": 272.25581395348837,
          "velocity": 0.3543307086614173
        },
        {
          "duration": 0.04651162790696617,
          "durationTicks": 4,
          "midi": 69,
          "name": "A4",
          "ticks": 23414,
          "time": 272.25581395348837,
          "velocity": 0.2047244094488189
        },
        {
          "duration": 0.023255813953483084,
          "durationTicks": 2,
          "midi": 45,
          "name": "A2",
          "ticks": 23415,
          "time": 272.2674418604651,
          "velocity": 0.28346456692913385
        },
        {
          "duration": 0.023255813953483084,
          "durationTicks": 2,
          "midi": 43,
          "name": "G2",
          "ticks": 23418,
          "time": 272.30232558139534,
          "velocity": 0.29133858267716534
        },
        {
          "duration": 0.023255813953539928,
          "durationTicks": 2,
          "midi": 54,
          "name": "F#3",
          "ticks": 23424,
          "time": 272.3720930232558,
          "velocity": 0.2755905511811024
        },
        {
          "duration": 0.023255813953483084,
          "durationTicks": 2,
          "midi": 46,
          "name": "A#2",
          "ticks": 23425,
          "time": 272.3837209302326,
          "velocity": 0.25984251968503935
        },
        {
          "duration": 0.12790697674415696,
          "durationTicks": 11,
          "midi": 69,
          "name": "A4",
          "ticks": 23427,
          "time": 272.40697674418607,
          "velocity": 0.25196850393700787
        },
        {
          "duration": 0.10465116279067388,
          "durationTicks": 9,
          "midi": 57,
          "name": "A3",
          "ticks": 23428,
          "time": 272.4186046511628,
          "velocity": 0.4330708661417323
        },
        {
          "duration": 0.034883720930224626,
          "durationTicks": 3,
          "midi": 100,
          "name": "E7",
          "ticks": 23430,
          "time": 272.4418604651163,
          "velocity": 0.07086614173228346
        },
        {
          "duration": 0.24418604651162923,
          "durationTicks": 21,
          "midi": 77,
          "name": "F5",
          "ticks": 23438,
          "time": 272.5348837209302,
          "velocity": 0.1889763779527559
        },
        {
          "duration": 0.3837209302325846,
          "durationTicks": 33,
          "midi": 70,
          "name": "A#4",
          "ticks": 23439,
          "time": 272.54651162790697,
          "velocity": 0.2204724409448819
        },
        {
          "duration": 0.04651162790696617,
          "durationTicks": 4,
          "midi": 42,
          "name": "F#2",
          "ticks": 23440,
          "time": 272.5581395348837,
          "velocity": 0.15748031496062992
        },
        {
          "duration": 0.22093023255814614,
          "durationTicks": 19,
          "midi": 58,
          "name": "A#3",
          "ticks": 23441,
          "time": 272.56976744186045,
          "velocity": 0.3937007874015748
        },
        {
          "duration": 0.023255813953483084,
          "durationTicks": 2,
          "midi": 45,
          "name": "A2",
          "ticks": 23448,
          "time": 272.6511627906977,
          "velocity": 0.3858267716535433
        },
        {
          "duration": 0.24418604651162923,
          "durationTicks": 21,
          "midi": 74,
          "name": "D5",
          "ticks": 23449,
          "time": 272.66279069767444,
          "velocity": 0.16535433070866143
        },
        {
          "duration": 0.034883720930224626,
          "durationTicks": 3,
          "midi": 46,
          "name": "A#2",
          "ticks": 23450,
          "time": 272.6744186046512,
          "velocity": 0.33070866141732286
        },
        {
          "duration": 0.0813953488371908,
          "durationTicks": 7,
          "midi": 46,
          "name": "A#2",
          "ticks": 23454,
          "time": 272.72093023255815,
          "velocity": 0.3464566929133858
        },
        {
          "duration": 0.023255813953483084,
          "durationTicks": 2,
          "midi": 45,
          "name": "A2",
          "ticks": 23461,
          "time": 272.80232558139534,
          "velocity": 0.3543307086614173
        },
        {
          "duration": 0.023255813953483084,
          "durationTicks": 2,
          "midi": 55,
          "name": "G3",
          "ticks": 23461,
          "time": 272.80232558139534,
          "velocity": 0.49606299212598426
        },
        {
          "duration": 0.1279069767442138,
          "durationTicks": 11,
          "midi": 68,
          "name": "G#4",
          "ticks": 23462,
          "time": 272.8139534883721,
          "velocity": 0.1732283464566929
        },
        {
          "duration": 0.023255813953483084,
          "durationTicks": 2,
          "midi": 46,
          "name": "A#2",
          "ticks": 23463,
          "time": 272.8255813953488,
          "velocity": 0.25196850393700787
        },
        {
          "duration": 0.023255813953483084,
          "durationTicks": 2,
          "midi": 56,
          "name": "G#3",
          "ticks": 23463,
          "time": 272.8255813953488,
          "velocity": 0.5039370078740157
        },
        {
          "duration": 0.04651162790702301,
          "durationTicks": 4,
          "midi": 89,
          "name": "F6",
          "ticks": 23465,
          "time": 272.8488372093023,
          "velocity": 0.07086614173228346
        },
        {
          "duration": 0.04651162790702301,
          "durationTicks": 4,
          "midi": 46,
          "name": "A#2",
          "ticks": 23466,
          "time": 272.86046511627904,
          "velocity": 0.23622047244094488
        },
        {
          "duration": 0.08139534883724764,
          "durationTicks": 7,
          "midi": 56,
          "name": "G#3",
          "ticks": 23466,
          "time": 272.86046511627904,
          "velocity": 0.47244094488188976
        },
        {
          "duration": 0.023255813953483084,
          "durationTicks": 2,
          "midi": 62,
          "name": "D4",
          "ticks": 23472,
          "time": 272.93023255813955,
          "velocity": 0.2283464566929134
        },
        {
          "duration": 0.034883720930224626,
          "durationTicks": 3,
          "midi": 75,
          "name": "D#5",
          "ticks": 23472,
          "time": 272.93023255813955,
          "velocity": 0.1732283464566929
        },
        {
          "duration": 0.0813953488371908,
          "durationTicks": 7,
          "midi": 82,
          "name": "A#5",
          "ticks": 23472,
          "time": 272.93023255813955,
          "velocity": 0.16535433070866143
        },
        {
          "duration": 0.15116279069764005,
          "durationTicks": 13,
          "midi": 89,
          "name": "F6",
          "ticks": 23472,
          "time": 272.93023255813955,
          "velocity": 0.1732283464566929
        },
        {
          "duration": 0.034883720930224626,
          "durationTicks": 3,
          "midi": 44,
          "name": "G#2",
          "ticks": 23473,
          "time": 272.9418604651163,
          "velocity": 0.2283464566929134
        },
        {
          "duration": 0.023255813953483084,
          "durationTicks": 2,
          "midi": 57,
          "name": "A3",
          "ticks": 23473,
          "time": 272.9418604651163,
          "velocity": 0.4094488188976378
        },
        {
          "duration": 0.1627906976743816,
          "durationTicks": 14,
          "midi": 70,
          "name": "A#4",
          "ticks": 23473,
          "time": 272.9418604651163,
          "velocity": 0.2440944881889764
        },
        {
          "duration": 0.17441860465117998,
          "durationTicks": 15,
          "midi": 58,
          "name": "A#3",
          "ticks": 23477,
          "time": 272.98837209302326,
          "velocity": 0.3543307086614173
        },
        {
          "duration": 0.04651162790696617,
          "durationTicks": 4,
          "midi": 45,
          "name": "A2",
          "ticks": 23479,
          "time": 273.01162790697674,
          "velocity": 0.3464566929133858
        },
        {
          "duration": 0.27906976744185386,
          "durationTicks": 24,
          "midi": 74,
          "name": "D5",
          "ticks": 23482,
          "time": 273.04651162790697,
          "velocity": 0.25196850393700787
        },
        {
          "duration": 0.058139534883764554,
          "durationTicks": 5,
          "midi": 46,
          "name": "A#2",
          "ticks": 23486,
          "time": 273.09302325581393,
          "velocity": 0.25196850393700787
        },
        {
          "duration": 0.023255813953483084,
          "durationTicks": 2,
          "midi": 45,
          "name": "A2",
          "ticks": 23491,
          "time": 273.1511627906977,
          "velocity": 0.2755905511811024
        },
        {
          "duration": 0.023255813953483084,
          "durationTicks": 2,
          "midi": 54,
          "name": "F#3",
          "ticks": 23491,
          "time": 273.1511627906977,
          "velocity": 0.4015748031496063
        },
        {
          "duration": 0.15116279069764005,
          "durationTicks": 13,
          "midi": 67,
          "name": "G4",
          "ticks": 23492,
          "time": 273.16279069767444,
          "velocity": 0.28346456692913385
        },
        {
          "duration": 0.15116279069764005,
          "durationTicks": 13,
          "midi": 55,
          "name": "G3",
          "ticks": 23493,
          "time": 273.1744186046512,
          "velocity": 0.5511811023622047
        },
        {
          "duration": 0.05813953488370771,
          "durationTicks": 5,
          "midi": 45,
          "name": "A2",
          "ticks": 23495,
          "time": 273.19767441860466,
          "velocity": 0.29133858267716534
        },
        {
          "duration": 0.034883720930224626,
          "durationTicks": 3,
          "midi": 61,
          "name": "C#4",
          "ticks": 23495,
          "time": 273.19767441860466,
          "velocity": 0.09448818897637795
        },
        {
          "duration": 0.034883720930224626,
          "durationTicks": 3,
          "midi": 64,
          "name": "E4",
          "ticks": 23495,
          "time": 273.19767441860466,
          "velocity": 0.15748031496062992
        },
        {
          "duration": 0.034883720930224626,
          "durationTicks": 3,
          "midi": 45,
          "name": "A2",
          "ticks": 23502,
          "time": 273.27906976744185,
          "velocity": 0.2755905511811024
        },
        {
          "duration": 0.023255813953483084,
          "durationTicks": 2,
          "midi": 72,
          "name": "C5",
          "ticks": 23505,
          "time": 273.3139534883721,
          "velocity": 0.2440944881889764
        },
        {
          "duration": 0.023255813953483084,
          "durationTicks": 2,
          "midi": 51,
          "name": "D#3",
          "ticks": 23506,
          "time": 273.3255813953488,
          "velocity": 0.29133858267716534
        },
        {
          "duration": 0.25581395348837077,
          "durationTicks": 22,
          "midi": 89,
          "name": "F6",
          "ticks": 23506,
          "time": 273.3255813953488,
          "velocity": 0.2992125984251969
        },
        {
          "duration": 0.22093023255814614,
          "durationTicks": 19,
          "midi": 65,
          "name": "F4",
          "ticks": 23507,
          "time": 273.33720930232556,
          "velocity": 0.4251968503937008
        },
        {
          "duration": 0.12790697674415696,
          "durationTicks": 11,
          "midi": 50,
          "name": "D3",
          "ticks": 23516,
          "time": 273.4418604651163,
          "velocity": 0.41732283464566927
        },
        {
          "duration": 0.034883720930224626,
          "durationTicks": 3,
          "midi": 64,
          "name": "E4",
          "ticks": 23526,
          "time": 273.5581395348837,
          "velocity": 0.2755905511811024
        },
        {
          "duration": 0.023255813953483084,
          "durationTicks": 2,
          "midi": 53,
          "name": "F3",
          "ticks": 23528,
          "time": 273.5813953488372,
          "velocity": 0.48031496062992124
        },
        {
          "duration": 0.0697674418605061,
          "durationTicks": 6,
          "midi": 53,
          "name": "F3",
          "ticks": 23531,
          "time": 273.6162790697674,
          "velocity": 0.41732283464566927
        },
        {
          "duration": 0.08139534883724764,
          "durationTicks": 7,
          "midi": 87,
          "name": "D#6",
          "ticks": 23531,
          "time": 273.6162790697674,
          "velocity": 0.08661417322834646
        },
        {
          "duration": 0.06976744186044925,
          "durationTicks": 6,
          "midi": 72,
          "name": "C5",
          "ticks": 23533,
          "time": 273.63953488372096,
          "velocity": 0.08661417322834646
        },
        {
          "duration": 0.4069767441860108,
          "durationTicks": 35,
          "midi": 67,
          "name": "G4",
          "ticks": 23537,
          "time": 273.6860465116279,
          "velocity": 0.33858267716535434
        },
        {
          "duration": 0.6976744186046631,
          "durationTicks": 60,
          "midi": 74,
          "name": "D5",
          "ticks": 23537,
          "time": 273.6860465116279,
          "velocity": 0.3700787401574803
        },
        {
          "duration": 0.15116279069764005,
          "durationTicks": 13,
          "midi": 55,
          "name": "G3",
          "ticks": 23538,
          "time": 273.69767441860466,
          "velocity": 0.5039370078740157
        },
        {
          "duration": 0.034883720930224626,
          "durationTicks": 3,
          "midi": 96,
          "name": "C7",
          "ticks": 23538,
          "time": 273.69767441860466,
          "velocity": 0.23622047244094488
        },
        {
          "duration": 0.034883720930224626,
          "durationTicks": 3,
          "midi": 60,
          "name": "C4",
          "ticks": 23548,
          "time": 273.8139534883721,
          "velocity": 0.23622047244094488
        },
        {
          "duration": 0.5232558139534831,
          "durationTicks": 45,
          "midi": 48,
          "name": "C3",
          "ticks": 23549,
          "time": 273.8255813953488,
          "velocity": 0.4015748031496063
        },
        {
          "duration": 0.5232558139534831,
          "durationTicks": 45,
          "midi": 83,
          "name": "B5",
          "ticks": 23550,
          "time": 273.83720930232556,
          "velocity": 0.2125984251968504
        },
        {
          "duration": 0.5348837209302815,
          "durationTicks": 46,
          "midi": 64,
          "name": "E4",
          "ticks": 23551,
          "time": 273.8488372093023,
          "velocity": 0.3937007874015748
        },
        {
          "duration": 0.3837209302325846,
          "durationTicks": 33,
          "midi": 55,
          "name": "G3",
          "ticks": 23552,
          "time": 273.86046511627904,
          "velocity": 0.4566929133858268
        },
        {
          "duration": 0.18604651162792152,
          "durationTicks": 16,
          "midi": 102,
          "name": "F#7",
          "ticks": 23552,
          "time": 273.86046511627904,
          "velocity": 0.15748031496062992
        },
        {
          "duration": 0.11627906976741542,
          "durationTicks": 10,
          "midi": 79,
          "name": "G5",
          "ticks": 23575,
          "time": 274.1279069767442,
          "velocity": 0.12598425196850394
        },
        {
          "duration": 0.0813953488371908,
          "durationTicks": 7,
          "midi": 55,
          "name": "G3",
          "ticks": 23586,
          "time": 274.25581395348837,
          "velocity": 0.2755905511811024
        },
        {
          "duration": 0.023255813953483084,
          "durationTicks": 2,
          "midi": 46,
          "name": "A#2",
          "ticks": 23594,
          "time": 274.3488372093023,
          "velocity": 0.25196850393700787
        },
        {
          "duration": 0.04651162790702301,
          "durationTicks": 4,
          "midi": 57,
          "name": "A3",
          "ticks": 23594,
          "time": 274.3488372093023,
          "velocity": 0.14960629921259844
        },
        {
          "duration": 0.03488372093028147,
          "durationTicks": 3,
          "midi": 70,
          "name": "A#4",
          "ticks": 23595,
          "time": 274.36046511627904,
          "velocity": 0.2755905511811024
        },
        {
          "duration": 0.034883720930224626,
          "durationTicks": 3,
          "midi": 44,
          "name": "G#2",
          "ticks": 23602,
          "time": 274.4418604651163,
          "velocity": 0.08661417322834646
        },
        {
          "duration": 0.034883720930224626,
          "durationTicks": 3,
          "midi": 41,
          "name": "F2",
          "ticks": 23605,
          "time": 274.4767441860465,
          "velocity": 0.15748031496062992
        },
        {
          "duration": 0.04651162790696617,
          "durationTicks": 4,
          "midi": 66,
          "name": "F#4",
          "ticks": 23606,
          "time": 274.48837209302326,
          "velocity": 0.2283464566929134
        },
        {
          "duration": 0.12790697674415696,
          "durationTicks": 11,
          "midi": 69,
          "name": "A4",
          "ticks": 23606,
          "time": 274.48837209302326,
          "velocity": 0.2283464566929134
        },
        {
          "duration": 0.11627906976741542,
          "durationTicks": 10,
          "midi": 57,
          "name": "A3",
          "ticks": 23607,
          "time": 274.5,
          "velocity": 0.47244094488188976
        },
        {
          "duration": 0.05813953488370771,
          "durationTicks": 5,
          "midi": 44,
          "name": "G#2",
          "ticks": 23608,
          "time": 274.51162790697674,
          "velocity": 0.23622047244094488
        },
        {
          "duration": 0.03488372093028147,
          "durationTicks": 3,
          "midi": 64,
          "name": "E4",
          "ticks": 23617,
          "time": 274.6162790697674,
          "velocity": 0.25984251968503935
        },
        {
          "duration": 0.034883720930224626,
          "durationTicks": 3,
          "midi": 61,
          "name": "C#4",
          "ticks": 23619,
          "time": 274.63953488372096,
          "velocity": 0.3700787401574803
        },
        {
          "duration": 0.04651162790696617,
          "durationTicks": 4,
          "midi": 89,
          "name": "F6",
          "ticks": 23619,
          "time": 274.63953488372096,
          "velocity": 0.1732283464566929
        },
        {
          "duration": 0.034883720930224626,
          "durationTicks": 3,
          "midi": 53,
          "name": "F3",
          "ticks": 23620,
          "time": 274.6511627906977,
          "velocity": 0.2677165354330709
        },
        {
          "duration": 0.3720930232557862,
          "durationTicks": 32,
          "midi": 74,
          "name": "D5",
          "ticks": 23620,
          "time": 274.6511627906977,
          "velocity": 0.3464566929133858
        },
        {
          "duration": 0.5348837209302246,
          "durationTicks": 46,
          "midi": 93,
          "name": "A6",
          "ticks": 23620,
          "time": 274.6511627906977,
          "velocity": 0.2755905511811024
        },
        {
          "duration": 0.25581395348837077,
          "durationTicks": 22,
          "midi": 102,
          "name": "F#7",
          "ticks": 23621,
          "time": 274.66279069767444,
          "velocity": 0.14960629921259844
        },
        {
          "duration": 0.3720930232557862,
          "durationTicks": 32,
          "midi": 62,
          "name": "D4",
          "ticks": 23622,
          "time": 274.6744186046512,
          "velocity": 0.3228346456692913
        },
        {
          "duration": 0.25581395348837077,
          "durationTicks": 22,
          "midi": 48,
          "name": "C3",
          "ticks": 23627,
          "time": 274.7325581395349,
          "velocity": 0.3464566929133858
        },
        {
          "duration": 0.03488372093028147,
          "durationTicks": 3,
          "midi": 55,
          "name": "G3",
          "ticks": 23638,
          "time": 274.86046511627904,
          "velocity": 0.49606299212598426
        },
        {
          "duration": 0.16279069767443843,
          "durationTicks": 14,
          "midi": 68,
          "name": "G#4",
          "ticks": 23639,
          "time": 274.8720930232558,
          "velocity": 0.2204724409448819
        },
        {
          "duration": 0.1627906976743816,
          "durationTicks": 14,
          "midi": 56,
          "name": "G#3",
          "ticks": 23641,
          "time": 274.8953488372093,
          "velocity": 0.48031496062992124
        },
        {
          "duration": 0.18604651162792152,
          "durationTicks": 16,
          "midi": 74,
          "name": "D5",
          "ticks": 23653,
          "time": 275.0348837209302,
          "velocity": 0.3779527559055118
        },
        {
          "duration": 0.13953488372095535,
          "durationTicks": 12,
          "midi": 98,
          "name": "D7",
          "ticks": 23653,
          "time": 275.0348837209302,
          "velocity": 0.1732283464566929
        },
        {
          "duration": 0.05813953488370771,
          "durationTicks": 5,
          "midi": 55,
          "name": "G3",
          "ticks": 23655,
          "time": 275.0581395348837,
          "velocity": 0.3937007874015748
        },
        {
          "duration": 0.04651162790696617,
          "durationTicks": 4,
          "midi": 44,
          "name": "G#2",
          "ticks": 23656,
          "time": 275.06976744186045,
          "velocity": 0.16535433070866143
        },
        {
          "duration": 0.10465116279073072,
          "durationTicks": 9,
          "midi": 62,
          "name": "D4",
          "ticks": 23656,
          "time": 275.06976744186045,
          "velocity": 0.31496062992125984
        },
        {
          "duration": 0.06976744186044925,
          "durationTicks": 6,
          "midi": 48,
          "name": "C3",
          "ticks": 23662,
          "time": 275.13953488372096,
          "velocity": 0.2755905511811024
        },
        {
          "duration": 0.034883720930224626,
          "durationTicks": 3,
          "midi": 48,
          "name": "C3",
          "ticks": 23669,
          "time": 275.22093023255815,
          "velocity": 0.23622047244094488
        },
        {
          "duration": 0.13953488372095535,
          "durationTicks": 12,
          "midi": 55,
          "name": "G3",
          "ticks": 23673,
          "time": 275.2674418604651,
          "velocity": 0.5511811023622047
        },
        {
          "duration": 0.17441860465117998,
          "durationTicks": 15,
          "midi": 74,
          "name": "D5",
          "ticks": 23673,
          "time": 275.2674418604651,
          "velocity": 0.2283464566929134
        },
        {
          "duration": 0.03488372093028147,
          "durationTicks": 3,
          "midi": 48,
          "name": "C3",
          "ticks": 23680,
          "time": 275.3488372093023,
          "velocity": 0.14173228346456693
        },
        {
          "duration": 0.034883720930224626,
          "durationTicks": 3,
          "midi": 71,
          "name": "B4",
          "ticks": 23683,
          "time": 275.3837209302326,
          "velocity": 0.1732283464566929
        },
        {
          "duration": 0.034883720930224626,
          "durationTicks": 3,
          "midi": 53,
          "name": "F3",
          "ticks": 23688,
          "time": 275.4418604651163,
          "velocity": 0.3700787401574803
        },
        {
          "duration": 0.2325581395348877,
          "durationTicks": 20,
          "midi": 60,
          "name": "C4",
          "ticks": 23688,
          "time": 275.4418604651163,
          "velocity": 0.4330708661417323
        },
        {
          "duration": 0.2093023255814046,
          "durationTicks": 18,
          "midi": 100,
          "name": "E7",
          "ticks": 23688,
          "time": 275.4418604651163,
          "velocity": 0.1968503937007874
        },
        {
          "duration": 0.16279069767443843,
          "durationTicks": 14,
          "midi": 91,
          "name": "G6",
          "ticks": 23693,
          "time": 275.5,
          "velocity": 0.11811023622047244
        },
        {
          "duration": 0.1279069767442138,
          "durationTicks": 11,
          "midi": 50,
          "name": "D3",
          "ticks": 23695,
          "time": 275.5232558139535,
          "velocity": 0.4330708661417323
        },
        {
          "duration": 0.0813953488371908,
          "durationTicks": 7,
          "midi": 78,
          "name": "F#5",
          "ticks": 23695,
          "time": 275.5232558139535,
          "velocity": 0.07874015748031496
        },
        {
          "duration": 0.023255813953483084,
          "durationTicks": 2,
          "midi": 52,
          "name": "E3",
          "ticks": 23707,
          "time": 275.66279069767444,
          "velocity": 0.3700787401574803
        },
        {
          "duration": 0.023255813953483084,
          "durationTicks": 2,
          "midi": 61,
          "name": "C#4",
          "ticks": 23708,
          "time": 275.6744186046512,
          "velocity": 0.25196850393700787
        },
        {
          "duration": 0.034883720930224626,
          "durationTicks": 3,
          "midi": 44,
          "name": "G#2",
          "ticks": 23712,
          "time": 275.72093023255815,
          "velocity": 0.18110236220472442
        },
        {
          "duration": 0.034883720930224626,
          "durationTicks": 3,
          "midi": 53,
          "name": "F3",
          "ticks": 23712,
          "time": 275.72093023255815,
          "velocity": 0.3700787401574803
        },
        {
          "duration": 0.13953488372095535,
          "durationTicks": 12,
          "midi": 55,
          "name": "G3",
          "ticks": 23716,
          "time": 275.7674418604651,
          "velocity": 0.5433070866141733
        },
        {
          "duration": 0.11627906976747227,
          "durationTicks": 10,
          "midi": 86,
          "name": "D6",
          "ticks": 23716,
          "time": 275.7674418604651,
          "velocity": 0.15748031496062992
        },
        {
          "duration": 0.16279069767443843,
          "durationTicks": 14,
          "midi": 74,
          "name": "D5",
          "ticks": 23717,
          "time": 275.77906976744185,
          "velocity": 0.1968503937007874
        },
        {
          "duration": 0.023255813953483084,
          "durationTicks": 2,
          "midi": 44,
          "name": "G#2",
          "ticks": 23720,
          "time": 275.8139534883721,
          "velocity": 0.23622047244094488
        },
        {
          "duration": 0.04651162790702301,
          "durationTicks": 4,
          "midi": 44,
          "name": "G#2",
          "ticks": 23723,
          "time": 275.8488372093023,
          "velocity": 0.15748031496062992
        },
        {
          "duration": 0.04651162790696617,
          "durationTicks": 4,
          "midi": 50,
          "name": "D3",
          "ticks": 23727,
          "time": 275.8953488372093,
          "velocity": 0.4566929133858268
        },
        {
          "duration": 0.034883720930224626,
          "durationTicks": 3,
          "midi": 70,
          "name": "A#4",
          "ticks": 23728,
          "time": 275.90697674418607,
          "velocity": 0.23622047244094488
        },
        {
          "duration": 0.023255813953483084,
          "durationTicks": 2,
          "midi": 58,
          "name": "A#3",
          "ticks": 23730,
          "time": 275.93023255813955,
          "velocity": 0.33070866141732286
        },
        {
          "duration": 0.034883720930224626,
          "durationTicks": 3,
          "midi": 64,
          "name": "E4",
          "ticks": 23731,
          "time": 275.9418604651163,
          "velocity": 0.2283464566929134
        },
        {
          "duration": 0.22093023255814614,
          "durationTicks": 19,
          "midi": 69,
          "name": "A4",
          "ticks": 23731,
          "time": 275.9418604651163,
          "velocity": 0.2283464566929134
        },
        {
          "duration": 0.09302325581393234,
          "durationTicks": 8,
          "midi": 79,
          "name": "G5",
          "ticks": 23731,
          "time": 275.9418604651163,
          "velocity": 0.14960629921259844
        },
        {
          "duration": 0.12790697674415696,
          "durationTicks": 11,
          "midi": 84,
          "name": "C6",
          "ticks": 23731,
          "time": 275.9418604651163,
          "velocity": 0.29133858267716534
        },
        {
          "duration": 0.11627906976741542,
          "durationTicks": 10,
          "midi": 60,
          "name": "C4",
          "ticks": 23732,
          "time": 275.95348837209303,
          "velocity": 0.4330708661417323
        },
        {
          "duration": 0.09302325581393234,
          "durationTicks": 8,
          "midi": 100,
          "name": "E7",
          "ticks": 23732,
          "time": 275.95348837209303,
          "velocity": 0.14960629921259844
        },
        {
          "duration": 0.034883720930224626,
          "durationTicks": 3,
          "midi": 97,
          "name": "C#7",
          "ticks": 23733,
          "time": 275.9651162790698,
          "velocity": 0.07086614173228346
        },
        {
          "duration": 0.33720930232556157,
          "durationTicks": 29,
          "midi": 50,
          "name": "D3",
          "ticks": 23734,
          "time": 275.9767441860465,
          "velocity": 0.4094488188976378
        },
        {
          "duration": 0.034883720930224626,
          "durationTicks": 3,
          "midi": 88,
          "name": "E6",
          "ticks": 23734,
          "time": 275.9767441860465,
          "velocity": 0.12598425196850394
        },
        {
          "duration": 0.034883720930224626,
          "durationTicks": 3,
          "midi": 103,
          "name": "G7",
          "ticks": 23738,
          "time": 276.0232558139535,
          "velocity": 0.11811023622047244
        },
        {
          "duration": 0.034883720930224626,
          "durationTicks": 3,
          "midi": 88,
          "name": "E6",
          "ticks": 23739,
          "time": 276.0348837209302,
          "velocity": 0.11023622047244094
        },
        {
          "duration": 0.023255813953483084,
          "durationTicks": 2,
          "midi": 61,
          "name": "C#4",
          "ticks": 23742,
          "time": 276.06976744186045,
          "velocity": 0.4330708661417323
        },
        {
          "duration": 0.034883720930224626,
          "durationTicks": 3,
          "midi": 97,
          "name": "C#7",
          "ticks": 23742,
          "time": 276.06976744186045,
          "velocity": 0.11023622047244094
        },
        {
          "duration": 0.4767441860465169,
          "durationTicks": 41,
          "midi": 93,
          "name": "A6",
          "ticks": 23744,
          "time": 276.09302325581393,
          "velocity": 0.14960629921259844
        },
        {
          "duration": 0.023255813953483084,
          "durationTicks": 2,
          "midi": 56,
          "name": "G#3",
          "ticks": 23751,
          "time": 276.1744186046512,
          "velocity": 0.4094488188976378
        },
        {
          "duration": 0.10465116279067388,
          "durationTicks": 9,
          "midi": 57,
          "name": "A3",
          "ticks": 23753,
          "time": 276.19767441860466,
          "velocity": 0.3700787401574803
        },
        {
          "duration": 0.11627906976741542,
          "durationTicks": 10,
          "midi": 81,
          "name": "A5",
          "ticks": 23754,
          "time": 276.2093023255814,
          "velocity": 0.10236220472440945
        },
        {
          "duration": 0.034883720930224626,
          "durationTicks": 3,
          "midi": 69,
          "name": "A4",
          "ticks": 23773,
          "time": 276.43023255813955,
          "velocity": 0.2204724409448819
        },
        {
          "duration": 0.17441860465112313,
          "durationTicks": 15,
          "midi": 76,
          "name": "E5",
          "ticks": 23773,
          "time": 276.43023255813955,
          "velocity": 0.2204724409448819
        },
        {
          "duration": 0.1395348837208985,
          "durationTicks": 12,
          "midi": 57,
          "name": "A3",
          "ticks": 23774,
          "time": 276.4418604651163,
          "velocity": 0.49606299212598426
        },
        {
          "duration": 0.12790697674415696,
          "durationTicks": 11,
          "midi": 97,
          "name": "C#7",
          "ticks": 23775,
          "time": 276.45348837209303,
          "velocity": 0.14960629921259844
        },
        {
          "duration": 0.11627906976741542,
          "durationTicks": 10,
          "midi": 50,
          "name": "D3",
          "ticks": 23776,
          "time": 276.4651162790698,
          "velocity": 0.23622047244094488
        },
        {
          "duration": 0.0813953488371908,
          "durationTicks": 7,
          "midi": 85,
          "name": "C#6",
          "ticks": 23781,
          "time": 276.5232558139535,
          "velocity": 0.11023622047244094
        },
        {
          "duration": 0.16279069767443843,
          "durationTicks": 14,
          "midi": 69,
          "name": "A4",
          "ticks": 23805,
          "time": 276.80232558139534,
          "velocity": 0.33858267716535434
        },
        {
          "duration": 0.1279069767442138,
          "durationTicks": 11,
          "midi": 57,
          "name": "A3",
          "ticks": 23806,
          "time": 276.8139534883721,
          "velocity": 0.48031496062992124
        },
        {
          "duration": 0.11627906976747227,
          "durationTicks": 10,
          "midi": 78,
          "name": "F#5",
          "ticks": 23806,
          "time": 276.8139534883721,
          "velocity": 0.11811023622047244
        },
        {
          "duration": 0.11627906976747227,
          "durationTicks": 10,
          "midi": 76,
          "name": "E5",
          "ticks": 23807,
          "time": 276.8255813953488,
          "velocity": 0.18110236220472442
        },
        {
          "duration": 0.058139534883764554,
          "durationTicks": 5,
          "midi": 96,
          "name": "C7",
          "ticks": 23807,
          "time": 276.8255813953488,
          "velocity": 0.07086614173228346
        },
        {
          "duration": 0.11627906976747227,
          "durationTicks": 10,
          "midi": 50,
          "name": "D3",
          "ticks": 23808,
          "time": 276.83720930232556,
          "velocity": 0.2677165354330709
        },
        {
          "duration": 0.034883720930224626,
          "durationTicks": 3,
          "midi": 69,
          "name": "A4",
          "ticks": 23828,
          "time": 277.06976744186045,
          "velocity": 0.30708661417322836
        },
        {
          "duration": 0.1279069767442138,
          "durationTicks": 11,
          "midi": 56,
          "name": "G#3",
          "ticks": 23829,
          "time": 277.0813953488372,
          "velocity": 0.49606299212598426
        },
        {
          "duration": 0.11627906976747227,
          "durationTicks": 10,
          "midi": 78,
          "name": "F#5",
          "ticks": 23829,
          "time": 277.0813953488372,
          "velocity": 0.07874015748031496
        },
        {
          "duration": 0.11627906976747227,
          "durationTicks": 10,
          "midi": 80,
          "name": "G#5",
          "ticks": 23829,
          "time": 277.0813953488372,
          "velocity": 0.13385826771653545
        },
        {
          "duration": 0.0697674418605061,
          "durationTicks": 6,
          "midi": 75,
          "name": "D#5",
          "ticks": 23830,
          "time": 277.09302325581393,
          "velocity": 0.07874015748031496
        },
        {
          "duration": 0.08139534883724764,
          "durationTicks": 7,
          "midi": 50,
          "name": "D3",
          "ticks": 23831,
          "time": 277.1046511627907,
          "velocity": 0.25984251968503935
        },
        {
          "duration": 0.03488372093028147,
          "durationTicks": 3,
          "midi": 84,
          "name": "C6",
          "ticks": 23831,
          "time": 277.1046511627907,
          "velocity": 0.07086614173228346
        },
        {
          "duration": 0.05813953488370771,
          "durationTicks": 5,
          "midi": 74,
          "name": "D5",
          "ticks": 23840,
          "time": 277.2093023255814,
          "velocity": 0.16535433070866143
        },
        {
          "duration": 0.19767441860466306,
          "durationTicks": 17,
          "midi": 65,
          "name": "F4",
          "ticks": 23850,
          "time": 277.3255813953488,
          "velocity": 0.23622047244094488
        },
        {
          "duration": 0.1279069767442138,
          "durationTicks": 11,
          "midi": 53,
          "name": "F3",
          "ticks": 23851,
          "time": 277.33720930232556,
          "velocity": 0.3858267716535433
        },
        {
          "duration": 0.1279069767442138,
          "durationTicks": 11,
          "midi": 60,
          "name": "C4",
          "ticks": 23851,
          "time": 277.33720930232556,
          "velocity": 0.2677165354330709
        },
        {
          "duration": 0.22093023255814614,
          "durationTicks": 19,
          "midi": 76,
          "name": "E5",
          "ticks": 23851,
          "time": 277.33720930232556,
          "velocity": 0.25196850393700787
        },
        {
          "duration": 0.25581395348837077,
          "durationTicks": 22,
          "midi": 87,
          "name": "D#6",
          "ticks": 23851,
          "time": 277.33720930232556,
          "velocity": 0.18110236220472442
        },
        {
          "duration": 0.034883720930224626,
          "durationTicks": 3,
          "midi": 71,
          "name": "B4",
          "ticks": 23861,
          "time": 277.45348837209303,
          "velocity": 0.1889763779527559
        },
        {
          "duration": 0.0813953488371908,
          "durationTicks": 7,
          "midi": 60,
          "name": "C4",
          "ticks": 23863,
          "time": 277.4767441860465,
          "velocity": 0.3700787401574803
        },
        {
          "duration": 0.05813953488370771,
          "durationTicks": 5,
          "midi": 48,
          "name": "C3",
          "ticks": 23864,
          "time": 277.48837209302326,
          "velocity": 0.3858267716535433
        },
        {
          "duration": 0.023255813953483084,
          "durationTicks": 2,
          "midi": 52,
          "name": "E3",
          "ticks": 23864,
          "time": 277.48837209302326,
          "velocity": 0.3700787401574803
        },
        {
          "duration": 0.06976744186044925,
          "durationTicks": 6,
          "midi": 47,
          "name": "B2",
          "ticks": 23869,
          "time": 277.54651162790697,
          "velocity": 0.3700787401574803
        },
        {
          "duration": 0.05813953488370771,
          "durationTicks": 5,
          "midi": 66,
          "name": "F#4",
          "ticks": 23870,
          "time": 277.5581395348837,
          "velocity": 0.10236220472440945
        },
        {
          "duration": 0.0697674418605061,
          "durationTicks": 6,
          "midi": 75,
          "name": "D#5",
          "ticks": 23870,
          "time": 277.5581395348837,
          "velocity": 0.1732283464566929
        },
        {
          "duration": 0.1279069767442138,
          "durationTicks": 11,
          "midi": 62,
          "name": "D4",
          "ticks": 23873,
          "time": 277.59302325581393,
          "velocity": 0.36220472440944884
        },
        {
          "duration": 0.1279069767442138,
          "durationTicks": 11,
          "midi": 69,
          "name": "A4",
          "ticks": 23873,
          "time": 277.59302325581393,
          "velocity": 0.3700787401574803
        },
        {
          "duration": 0.10465116279073072,
          "durationTicks": 9,
          "midi": 85,
          "name": "C#6",
          "ticks": 23874,
          "time": 277.6046511627907,
          "velocity": 0.11811023622047244
        },
        {
          "duration": 0.16279069767443843,
          "durationTicks": 14,
          "midi": 76,
          "name": "E5",
          "ticks": 23875,
          "time": 277.6162790697674,
          "velocity": 0.13385826771653545
        },
        {
          "duration": 0.023255813953483084,
          "durationTicks": 2,
          "midi": 45,
          "name": "A2",
          "ticks": 23876,
          "time": 277.6279069767442,
          "velocity": 0.4330708661417323
        },
        {
          "duration": 0.04651162790696617,
          "durationTicks": 4,
          "midi": 78,
          "name": "F#5",
          "ticks": 23877,
          "time": 277.63953488372096,
          "velocity": 0.11023622047244094
        },
        {
          "duration": 0.034883720930224626,
          "durationTicks": 3,
          "midi": 46,
          "name": "A#2",
          "ticks": 23878,
          "time": 277.6511627906977,
          "velocity": 0.36220472440944884
        },
        {
          "duration": 0.034883720930224626,
          "durationTicks": 3,
          "midi": 45,
          "name": "A2",
          "ticks": 23881,
          "time": 277.6860465116279,
          "velocity": 0.3464566929133858
        },
        {
          "duration": 0.034883720930224626,
          "durationTicks": 3,
          "midi": 79,
          "name": "G5",
          "ticks": 23881,
          "time": 277.6860465116279,
          "velocity": 0.08661417322834646
        },
        {
          "duration": 0.023255813953483084,
          "durationTicks": 2,
          "midi": 60,
          "name": "C4",
          "ticks": 23884,
          "time": 277.72093023255815,
          "velocity": 0.23622047244094488
        },
        {
          "duration": 0.04651162790696617,
          "durationTicks": 4,
          "midi": 65,
          "name": "F4",
          "ticks": 23884,
          "time": 277.72093023255815,
          "velocity": 0.16535433070866143
        },
        {
          "duration": 0.0813953488371908,
          "durationTicks": 7,
          "midi": 87,
          "name": "D#6",
          "ticks": 23885,
          "time": 277.7325581395349,
          "velocity": 0.09448818897637795
        },
        {
          "duration": 0.023255813953483084,
          "durationTicks": 2,
          "midi": 45,
          "name": "A2",
          "ticks": 23888,
          "time": 277.7674418604651,
          "velocity": 0.4015748031496063
        },
        {
          "duration": 0.04651162790696617,
          "durationTicks": 4,
          "midi": 54,
          "name": "F#3",
          "ticks": 23888,
          "time": 277.7674418604651,
          "velocity": 0.31496062992125984
        },
        {
          "duration": 0.2325581395348877,
          "durationTicks": 20,
          "midi": 74,
          "name": "D5",
          "ticks": 23890,
          "time": 277.7906976744186,
          "velocity": 0.3464566929133858
        },
        {
          "duration": 0.034883720930224626,
          "durationTicks": 3,
          "midi": 43,
          "name": "G2",
          "ticks": 23892,
          "time": 277.8139534883721,
          "velocity": 0.3228346456692913
        },
        {
          "duration": 0.08139534883724764,
          "durationTicks": 7,
          "midi": 42,
          "name": "F#2",
          "ticks": 23895,
          "time": 277.8488372093023,
          "velocity": 0.3228346456692913
        },
        {
          "duration": 0.1511627906976969,
          "durationTicks": 13,
          "midi": 67,
          "name": "G4",
          "ticks": 23895,
          "time": 277.8488372093023,
          "velocity": 0.3228346456692913
        },
        {
          "duration": 0.1279069767442138,
          "durationTicks": 11,
          "midi": 55,
          "name": "G3",
          "ticks": 23896,
          "time": 277.86046511627904,
          "velocity": 0.5118110236220472
        },
        {
          "duration": 0.1279069767442138,
          "durationTicks": 11,
          "midi": 99,
          "name": "D#7",
          "ticks": 23896,
          "time": 277.86046511627904,
          "velocity": 0.14173228346456693
        },
        {
          "duration": 0.1279069767442138,
          "durationTicks": 11,
          "midi": 62,
          "name": "D4",
          "ticks": 23897,
          "time": 277.8720930232558,
          "velocity": 0.2047244094488189
        },
        {
          "duration": 0.08139534883724764,
          "durationTicks": 7,
          "midi": 78,
          "name": "F#5",
          "ticks": 23897,
          "time": 277.8720930232558,
          "velocity": 0.07086614173228346
        },
        {
          "duration": 0.05813953488370771,
          "durationTicks": 5,
          "midi": 41,
          "name": "F2",
          "ticks": 23902,
          "time": 277.93023255813955,
          "velocity": 0.30708661417322836
        },
        {
          "duration": 0.09302325581393234,
          "durationTicks": 8,
          "midi": 71,
          "name": "B4",
          "ticks": 23907,
          "time": 277.98837209302326,
          "velocity": 0.25196850393700787
        },
        {
          "duration": 0.023255813953483084,
          "durationTicks": 2,
          "midi": 55,
          "name": "G3",
          "ticks": 23911,
          "time": 278.0348837209302,
          "velocity": 0.30708661417322836
        },
        {
          "duration": 0.05813953488370771,
          "durationTicks": 5,
          "midi": 42,
          "name": "F#2",
          "ticks": 23913,
          "time": 278.0581395348837,
          "velocity": 0.1732283464566929
        },
        {
          "duration": 0.11627906976741542,
          "durationTicks": 10,
          "midi": 50,
          "name": "D3",
          "ticks": 23919,
          "time": 278.1279069767442,
          "velocity": 0.4251968503937008
        },
        {
          "duration": 0.2906976744185954,
          "durationTicks": 25,
          "midi": 74,
          "name": "D5",
          "ticks": 23921,
          "time": 278.1511627906977,
          "velocity": 0.30708661417322836
        },
        {
          "duration": 0.22093023255814614,
          "durationTicks": 19,
          "midi": 69,
          "name": "A4",
          "ticks": 23922,
          "time": 278.16279069767444,
          "velocity": 0.25196850393700787
        },
        {
          "duration": 0.06976744186044925,
          "durationTicks": 6,
          "midi": 78,
          "name": "F#5",
          "ticks": 23930,
          "time": 278.25581395348837,
          "velocity": 0.11811023622047244
        },
        {
          "duration": 0.023255813953483084,
          "durationTicks": 2,
          "midi": 51,
          "name": "D#3",
          "ticks": 23931,
          "time": 278.2674418604651,
          "velocity": 0.4251968503937008
        },
        {
          "duration": 0.1279069767442138,
          "durationTicks": 11,
          "midi": 57,
          "name": "A3",
          "ticks": 23931,
          "time": 278.2674418604651,
          "velocity": 0.44881889763779526
        },
        {
          "duration": 0.1279069767442138,
          "durationTicks": 11,
          "midi": 76,
          "name": "E5",
          "ticks": 23931,
          "time": 278.2674418604651,
          "velocity": 0.1732283464566929
        },
        {
          "duration": 0.034883720930224626,
          "durationTicks": 3,
          "midi": 87,
          "name": "D#6",
          "ticks": 23931,
          "time": 278.2674418604651,
          "velocity": 0.12598425196850394
        },
        {
          "duration": 0.034883720930224626,
          "durationTicks": 3,
          "midi": 102,
          "name": "F#7",
          "ticks": 23932,
          "time": 278.27906976744185,
          "velocity": 0.08661417322834646
        },
        {
          "duration": 0.11627906976747227,
          "durationTicks": 10,
          "midi": 50,
          "name": "D3",
          "ticks": 23933,
          "time": 278.2906976744186,
          "velocity": 0.44881889763779526
        },
        {
          "duration": 0.10465116279073072,
          "durationTicks": 9,
          "midi": 88,
          "name": "E6",
          "ticks": 23933,
          "time": 278.2906976744186,
          "velocity": 0.18110236220472442
        },
        {
          "duration": 0.034883720930224626,
          "durationTicks": 3,
          "midi": 42,
          "name": "F#2",
          "ticks": 23935,
          "time": 278.3139534883721,
          "velocity": 0.25984251968503935
        },
        {
          "duration": 0.034883720930224626,
          "durationTicks": 3,
          "midi": 93,
          "name": "A6",
          "ticks": 23937,
          "time": 278.33720930232556,
          "velocity": 0.10236220472440945
        },
        {
          "duration": 0.034883720930224626,
          "durationTicks": 3,
          "midi": 56,
          "name": "G#3",
          "ticks": 23942,
          "time": 278.3953488372093,
          "velocity": 0.31496062992125984
        },
        {
          "duration": 0.034883720930224626,
          "durationTicks": 3,
          "midi": 57,
          "name": "A3",
          "ticks": 23948,
          "time": 278.4651162790698,
          "velocity": 0.13385826771653545
        },
        {
          "duration": 0.034883720930224626,
          "durationTicks": 3,
          "midi": 55,
          "name": "G3",
          "ticks": 23952,
          "time": 278.51162790697674,
          "velocity": 0.41732283464566927
        },
        {
          "duration": 0.023255813953483084,
          "durationTicks": 2,
          "midi": 48,
          "name": "C3",
          "ticks": 23953,
          "time": 278.5232558139535,
          "velocity": 0.4094488188976378
        },
        {
          "duration": 0.023255813953483084,
          "durationTicks": 2,
          "midi": 70,
          "name": "A#4",
          "ticks": 23953,
          "time": 278.5232558139535,
          "velocity": 0.28346456692913385
        },
        {
          "duration": 0.034883720930224626,
          "durationTicks": 3,
          "midi": 88,
          "name": "E6",
          "ticks": 23953,
          "time": 278.5232558139535,
          "velocity": 0.14960629921259844
        },
        {
          "duration": 0.1511627906976969,
          "durationTicks": 13,
          "midi": 62,
          "name": "D4",
          "ticks": 23954,
          "time": 278.5348837209302,
          "velocity": 0.2677165354330709
        },
        {
          "duration": 0.1511627906976969,
          "durationTicks": 13,
          "midi": 81,
          "name": "A5",
          "ticks": 23954,
          "time": 278.5348837209302,
          "velocity": 0.1968503937007874
        },
        {
          "duration": 0.13953488372095535,
          "durationTicks": 12,
          "midi": 69,
          "name": "A4",
          "ticks": 23955,
          "time": 278.54651162790697,
          "velocity": 0.30708661417322836
        },
        {
          "duration": 0.13953488372095535,
          "durationTicks": 12,
          "midi": 76,
          "name": "E5",
          "ticks": 23955,
          "time": 278.54651162790697,
          "velocity": 0.2283464566929134
        },
        {
          "duration": 0.023255813953483084,
          "durationTicks": 2,
          "midi": 44,
          "name": "G#2",
          "ticks": 23956,
          "time": 278.5581395348837,
          "velocity": 0.44881889763779526
        },
        {
          "duration": 0.1279069767442138,
          "durationTicks": 11,
          "midi": 57,
          "name": "A3",
          "ticks": 23956,
          "time": 278.5581395348837,
          "velocity": 0.3937007874015748
        },
        {
          "duration": 0.1279069767442138,
          "durationTicks": 11,
          "midi": 71,
          "name": "B4",
          "ticks": 23956,
          "time": 278.5581395348837,
          "velocity": 0.2440944881889764
        },
        {
          "duration": 0.023255813953483084,
          "durationTicks": 2,
          "midi": 52,
          "name": "E3",
          "ticks": 23957,
          "time": 278.56976744186045,
          "velocity": 0.2755905511811024
        },
        {
          "duration": 0.023255813953483084,
          "durationTicks": 2,
          "midi": 51,
          "name": "D#3",
          "ticks": 23959,
          "time": 278.59302325581393,
          "velocity": 0.33858267716535434
        },
        {
          "duration": 0.08139534883724764,
          "durationTicks": 7,
          "midi": 45,
          "name": "A2",
          "ticks": 23960,
          "time": 278.6046511627907,
          "velocity": 0.3937007874015748
        },
        {
          "duration": 0.023255813953483084,
          "durationTicks": 2,
          "midi": 44,
          "name": "G#2",
          "ticks": 23967,
          "time": 278.6860465116279,
          "velocity": 0.3700787401574803
        },
        {
          "duration": 0.05813953488370771,
          "durationTicks": 5,
          "midi": 42,
          "name": "F#2",
          "ticks": 23970,
          "time": 278.72093023255815,
          "velocity": 0.25196850393700787
        },
        {
          "duration": 0.023255813953483084,
          "durationTicks": 2,
          "midi": 57,
          "name": "A3",
          "ticks": 23985,
          "time": 278.8953488372093,
          "velocity": 0.3779527559055118
        },
        {
          "duration": 0.12790697674415696,
          "durationTicks": 11,
          "midi": 56,
          "name": "G#3",
          "ticks": 23987,
          "time": 278.9186046511628,
          "velocity": 0.5196850393700787
        },
        {
          "duration": 0.1395348837208985,
          "durationTicks": 12,
          "midi": 72,
          "name": "C5",
          "ticks": 23987,
          "time": 278.9186046511628,
          "velocity": 0.14173228346456693
        },
        {
          "duration": 0.1395348837208985,
          "durationTicks": 12,
          "midi": 75,
          "name": "D#5",
          "ticks": 23987,
          "time": 278.9186046511628,
          "velocity": 0.29133858267716534
        },
        {
          "duration": 0.09302325581393234,
          "durationTicks": 8,
          "midi": 69,
          "name": "A4",
          "ticks": 23988,
          "time": 278.93023255813955,
          "velocity": 0.25196850393700787
        },
        {
          "duration": 0.0813953488371908,
          "durationTicks": 7,
          "midi": 78,
          "name": "F#5",
          "ticks": 23989,
          "time": 278.9418604651163,
          "velocity": 0.11023622047244094
        },
        {
          "duration": 0.0813953488371908,
          "durationTicks": 7,
          "midi": 96,
          "name": "C7",
          "ticks": 23989,
          "time": 278.9418604651163,
          "velocity": 0.08661417322834646
        },
        {
          "duration": 0.023255813953483084,
          "durationTicks": 2,
          "midi": 43,
          "name": "G2",
          "ticks": 23990,
          "time": 278.95348837209303,
          "velocity": 0.3700787401574803
        },
        {
          "duration": 0.09302325581393234,
          "durationTicks": 8,
          "midi": 51,
          "name": "D#3",
          "ticks": 23990,
          "time": 278.95348837209303,
          "velocity": 0.44881889763779526
        },
        {
          "duration": 0.09302325581393234,
          "durationTicks": 8,
          "midi": 62,
          "name": "D4",
          "ticks": 23990,
          "time": 278.95348837209303,
          "velocity": 0.25984251968503935
        },
        {
          "duration": 0.04651162790696617,
          "durationTicks": 4,
          "midi": 98,
          "name": "D7",
          "ticks": 23990,
          "time": 278.95348837209303,
          "velocity": 0.10236220472440945
        },
        {
          "duration": 0.023255813953483084,
          "durationTicks": 2,
          "midi": 44,
          "name": "G#2",
          "ticks": 23992,
          "time": 278.9767441860465,
          "velocity": 0.3700787401574803
        },
        {
          "duration": 0.023255813953483084,
          "durationTicks": 2,
          "midi": 44,
          "name": "G#2",
          "ticks": 23995,
          "time": 279.01162790697674,
          "velocity": 0.3464566929133858
        },
        {
          "duration": 0.04651162790696617,
          "durationTicks": 4,
          "midi": 80,
          "name": "G#5",
          "ticks": 23996,
          "time": 279.0232558139535,
          "velocity": 0.10236220472440945
        },
        {
          "duration": 0.034883720930224626,
          "durationTicks": 3,
          "midi": 43,
          "name": "G2",
          "ticks": 23997,
          "time": 279.0348837209302,
          "velocity": 0.36220472440944884
        },
        {
          "duration": 0.023255813953483084,
          "durationTicks": 2,
          "midi": 69,
          "name": "A4",
          "ticks": 23997,
          "time": 279.0348837209302,
          "velocity": 0.2283464566929134
        },
        {
          "duration": 0.023255813953483084,
          "durationTicks": 2,
          "midi": 70,
          "name": "A#4",
          "ticks": 23999,
          "time": 279.0581395348837,
          "velocity": 0.23622047244094488
        },
        {
          "duration": 0.0697674418605061,
          "durationTicks": 6,
          "midi": 42,
          "name": "F#2",
          "ticks": 24000,
          "time": 279.06976744186045,
          "velocity": 0.25196850393700787
        },
        {
          "duration": 0.15116279069764005,
          "durationTicks": 13,
          "midi": 62,
          "name": "D4",
          "ticks": 24008,
          "time": 279.16279069767444,
          "velocity": 0.33070866141732286
        },
        {
          "duration": 0.034883720930224626,
          "durationTicks": 3,
          "midi": 56,
          "name": "G#3",
          "ticks": 24009,
          "time": 279.1744186046512,
          "velocity": 0.3937007874015748
        },
        {
          "duration": 0.023255813953483084,
          "durationTicks": 2,
          "midi": 50,
          "name": "D3",
          "ticks": 24010,
          "time": 279.1860465116279,
          "velocity": 0.4094488188976378
        },
        {
          "duration": 0.11627906976741542,
          "durationTicks": 10,
          "midi": 67,
          "name": "G4",
          "ticks": 24011,
          "time": 279.19767441860466,
          "velocity": 0.2677165354330709
        },
        {
          "duration": 0.09302325581393234,
          "durationTicks": 8,
          "midi": 55,
          "name": "G3",
          "ticks": 24012,
          "time": 279.2093023255814,
          "velocity": 0.4881889763779528
        },
        {
          "duration": 0.04651162790696617,
          "durationTicks": 4,
          "midi": 43,
          "name": "G2",
          "ticks": 24015,
          "time": 279.24418604651163,
          "velocity": 0.3464566929133858
        },
        {
          "duration": 0.034883720930224626,
          "durationTicks": 3,
          "midi": 54,
          "name": "F#3",
          "ticks": 24020,
          "time": 279.30232558139534,
          "velocity": 0.31496062992125984
        },
        {
          "duration": 0.06976744186044925,
          "durationTicks": 6,
          "midi": 72,
          "name": "C5",
          "ticks": 24020,
          "time": 279.30232558139534,
          "velocity": 0.23622047244094488
        },
        {
          "duration": 0.04651162790696617,
          "durationTicks": 4,
          "midi": 42,
          "name": "F#2",
          "ticks": 24021,
          "time": 279.3139534883721,
          "velocity": 0.30708661417322836
        },
        {
          "duration": 0.034883720930224626,
          "durationTicks": 3,
          "midi": 55,
          "name": "G3",
          "ticks": 24023,
          "time": 279.33720930232556,
          "velocity": 0.28346456692913385
        },
        {
          "duration": 0.04651162790702301,
          "durationTicks": 4,
          "midi": 41,
          "name": "F2",
          "ticks": 24025,
          "time": 279.36046511627904,
          "velocity": 0.25984251968503935
        },
        {
          "duration": 0.0697674418605061,
          "durationTicks": 6,
          "midi": 56,
          "name": "G#3",
          "ticks": 24026,
          "time": 279.3720930232558,
          "velocity": 0.12598425196850394
        },
        {
          "duration": 0.034883720930224626,
          "durationTicks": 3,
          "midi": 71,
          "name": "B4",
          "ticks": 24031,
          "time": 279.43023255813955,
          "velocity": 0.14960629921259844
        },
        {
          "duration": 0.10465116279067388,
          "durationTicks": 9,
          "midi": 76,
          "name": "E5",
          "ticks": 24031,
          "time": 279.43023255813955,
          "velocity": 0.16535433070866143
        },
        {
          "duration": 0.04651162790696617,
          "durationTicks": 4,
          "midi": 77,
          "name": "F5",
          "ticks": 24031,
          "time": 279.43023255813955,
          "velocity": 0.11811023622047244
        },
        {
          "duration": 0.12790697674415696,
          "durationTicks": 11,
          "midi": 84,
          "name": "C6",
          "ticks": 24031,
          "time": 279.43023255813955,
          "velocity": 0.2204724409448819
        },
        {
          "duration": 0.3139534883720785,
          "durationTicks": 27,
          "midi": 87,
          "name": "D#6",
          "ticks": 24031,
          "time": 279.43023255813955,
          "velocity": 0.23622047244094488
        },
        {
          "duration": 0.06976744186044925,
          "durationTicks": 6,
          "midi": 101,
          "name": "F7",
          "ticks": 24031,
          "time": 279.43023255813955,
          "velocity": 0.12598425196850394
        },
        {
          "duration": 0.1395348837208985,
          "durationTicks": 12,
          "midi": 65,
          "name": "F4",
          "ticks": 24032,
          "time": 279.4418604651163,
          "velocity": 0.2204724409448819
        },
        {
          "duration": 0.10465116279067388,
          "durationTicks": 9,
          "midi": 95,
          "name": "B6",
          "ticks": 24032,
          "time": 279.4418604651163,
          "velocity": 0.15748031496062992
        },
        {
          "duration": 0.09302325581393234,
          "durationTicks": 8,
          "midi": 97,
          "name": "C#7",
          "ticks": 24032,
          "time": 279.4418604651163,
          "velocity": 0.1732283464566929
        },
        {
          "duration": 0.04651162790696617,
          "durationTicks": 4,
          "midi": 79,
          "name": "G5",
          "ticks": 24033,
          "time": 279.45348837209303,
          "velocity": 0.12598425196850394
        },
        {
          "duration": 0.11627906976741542,
          "durationTicks": 10,
          "midi": 81,
          "name": "A5",
          "ticks": 24033,
          "time": 279.45348837209303,
          "velocity": 0.09448818897637795
        },
        {
          "duration": 0.023255813953483084,
          "durationTicks": 2,
          "midi": 54,
          "name": "F#3",
          "ticks": 24034,
          "time": 279.4651162790698,
          "velocity": 0.33858267716535434
        },
        {
          "duration": 0.24418604651162923,
          "durationTicks": 21,
          "midi": 60,
          "name": "C4",
          "ticks": 24036,
          "time": 279.48837209302326,
          "velocity": 0.29133858267716534
        },
        {
          "duration": 0.25581395348837077,
          "durationTicks": 22,
          "midi": 48,
          "name": "C3",
          "ticks": 24037,
          "time": 279.5,
          "velocity": 0.4409448818897638
        },
        {
          "duration": 0.04651162790696617,
          "durationTicks": 4,
          "midi": 75,
          "name": "D#5",
          "ticks": 24040,
          "time": 279.5348837209302,
          "velocity": 0.08661417322834646
        },
        {
          "duration": 0.06976744186044925,
          "durationTicks": 6,
          "midi": 98,
          "name": "D7",
          "ticks": 24040,
          "time": 279.5348837209302,
          "velocity": 0.1889763779527559
        },
        {
          "duration": 0.1511627906976969,
          "durationTicks": 13,
          "midi": 67,
          "name": "G4",
          "ticks": 24043,
          "time": 279.56976744186045,
          "velocity": 0.2204724409448819
        },
        {
          "duration": 0.16279069767443843,
          "durationTicks": 14,
          "midi": 76,
          "name": "E5",
          "ticks": 24043,
          "time": 279.56976744186045,
          "velocity": 0.18110236220472442
        },
        {
          "duration": 0.11627906976747227,
          "durationTicks": 10,
          "midi": 82,
          "name": "A#5",
          "ticks": 24045,
          "time": 279.59302325581393,
          "velocity": 0.07086614173228346
        },
        {
          "duration": 0.03488372093028147,
          "durationTicks": 3,
          "midi": 75,
          "name": "D#5",
          "ticks": 24046,
          "time": 279.6046511627907,
          "velocity": 0.07086614173228346
        },
        {
          "duration": 0.08139534883724764,
          "durationTicks": 7,
          "midi": 84,
          "name": "C6",
          "ticks": 24046,
          "time": 279.6046511627907,
          "velocity": 0.1732283464566929
        },
        {
          "duration": 0.0697674418605061,
          "durationTicks": 6,
          "midi": 95,
          "name": "B6",
          "ticks": 24047,
          "time": 279.6162790697674,
          "velocity": 0.12598425196850394
        },
        {
          "duration": 0.04651162790696617,
          "durationTicks": 4,
          "midi": 54,
          "name": "F#3",
          "ticks": 24055,
          "time": 279.7093023255814,
          "velocity": 0.3937007874015748
        },
        {
          "duration": 0.10465116279067388,
          "durationTicks": 9,
          "midi": 74,
          "name": "D5",
          "ticks": 24058,
          "time": 279.74418604651163,
          "velocity": 0.2992125984251969
        },
        {
          "duration": 0.023255813953483084,
          "durationTicks": 2,
          "midi": 43,
          "name": "G2",
          "ticks": 24059,
          "time": 279.75581395348837,
          "velocity": 0.3464566929133858
        },
        {
          "duration": 0.023255813953483084,
          "durationTicks": 2,
          "midi": 55,
          "name": "G3",
          "ticks": 24059,
          "time": 279.75581395348837,
          "velocity": 0.44881889763779526
        },
        {
          "duration": 0.034883720930224626,
          "durationTicks": 3,
          "midi": 71,
          "name": "B4",
          "ticks": 24060,
          "time": 279.7674418604651,
          "velocity": 0.14173228346456693
        },
        {
          "duration": 0.034883720930224626,
          "durationTicks": 3,
          "midi": 56,
          "name": "G#3",
          "ticks": 24061,
          "time": 279.77906976744185,
          "velocity": 0.4094488188976378
        },
        {
          "duration": 0.034883720930224626,
          "durationTicks": 3,
          "midi": 80,
          "name": "G#5",
          "ticks": 24061,
          "time": 279.77906976744185,
          "velocity": 0.10236220472440945
        },
        {
          "duration": 0.034883720930224626,
          "durationTicks": 3,
          "midi": 70,
          "name": "A#4",
          "ticks": 24063,
          "time": 279.80232558139534,
          "velocity": 0.14960629921259844
        },
        {
          "duration": 0.034883720930224626,
          "durationTicks": 3,
          "midi": 65,
          "name": "F4",
          "ticks": 24064,
          "time": 279.8139534883721,
          "velocity": 0.11023622047244094
        },
        {
          "duration": 0.034883720930224626,
          "durationTicks": 3,
          "midi": 72,
          "name": "C5",
          "ticks": 24064,
          "time": 279.8139534883721,
          "velocity": 0.25196850393700787
        },
        {
          "duration": 0.023255813953483084,
          "durationTicks": 2,
          "midi": 53,
          "name": "F3",
          "ticks": 24065,
          "time": 279.8255813953488,
          "velocity": 0.4015748031496063
        },
        {
          "duration": 0.023255813953483084,
          "durationTicks": 2,
          "midi": 55,
          "name": "G3",
          "ticks": 24067,
          "time": 279.8488372093023,
          "velocity": 0.4881889763779528
        },
        {
          "duration": 0.03488372093028147,
          "durationTicks": 3,
          "midi": 71,
          "name": "B4",
          "ticks": 24067,
          "time": 279.8488372093023,
          "velocity": 0.2992125984251969
        },
        {
          "duration": 0.023255813953539928,
          "durationTicks": 2,
          "midi": 54,
          "name": "F#3",
          "ticks": 24069,
          "time": 279.8720930232558,
          "velocity": 0.3464566929133858
        },
        {
          "duration": 0.034883720930224626,
          "durationTicks": 3,
          "midi": 55,
          "name": "G3",
          "ticks": 24075,
          "time": 279.9418604651163,
          "velocity": 0.4645669291338583
        },
        {
          "duration": 0.034883720930224626,
          "durationTicks": 3,
          "midi": 44,
          "name": "G#2",
          "ticks": 24078,
          "time": 279.9767441860465,
          "velocity": 0.41732283464566927
        },
        {
          "duration": 0.023255813953483084,
          "durationTicks": 2,
          "midi": 55,
          "name": "G3",
          "ticks": 24079,
          "time": 279.98837209302326,
          "velocity": 0.33858267716535434
        },
        {
          "duration": 0.023255813953483084,
          "durationTicks": 2,
          "midi": 46,
          "name": "A#2",
          "ticks": 24084,
          "time": 280.04651162790697,
          "velocity": 0.2992125984251969
        },
        {
          "duration": 0.023255813953483084,
          "durationTicks": 2,
          "midi": 56,
          "name": "G#3",
          "ticks": 24086,
          "time": 280.06976744186045,
          "velocity": 0.4645669291338583
        },
        {
          "duration": 0.24418604651162923,
          "durationTicks": 21,
          "midi": 65,
          "name": "F4",
          "ticks": 24087,
          "time": 280.0813953488372,
          "velocity": 0.2677165354330709
        },
        {
          "duration": 0.034883720930224626,
          "durationTicks": 3,
          "midi": 70,
          "name": "A#4",
          "ticks": 24087,
          "time": 280.0813953488372,
          "velocity": 0.14960629921259844
        },
        {
          "duration": 0.5232558139534831,
          "durationTicks": 45,
          "midi": 77,
          "name": "F5",
          "ticks": 24087,
          "time": 280.0813953488372,
          "velocity": 0.28346456692913385
        },
        {
          "duration": 0.2325581395348877,
          "durationTicks": 20,
          "midi": 81,
          "name": "A5",
          "ticks": 24087,
          "time": 280.0813953488372,
          "velocity": 0.10236220472440945
        },
        {
          "duration": 0.24418604651162923,
          "durationTicks": 21,
          "midi": 58,
          "name": "A#3",
          "ticks": 24088,
          "time": 280.09302325581393,
          "velocity": 0.41732283464566927
        },
        {
          "duration": 0.1279069767442138,
          "durationTicks": 11,
          "midi": 84,
          "name": "C6",
          "ticks": 24088,
          "time": 280.09302325581393,
          "velocity": 0.10236220472440945
        },
        {
          "duration": 0.03488372093028147,
          "durationTicks": 3,
          "midi": 95,
          "name": "B6",
          "ticks": 24088,
          "time": 280.09302325581393,
          "velocity": 0.07086614173228346
        },
        {
          "duration": 0.13953488372095535,
          "durationTicks": 12,
          "midi": 41,
          "name": "F2",
          "ticks": 24089,
          "time": 280.1046511627907,
          "velocity": 0.3779527559055118
        },
        {
          "duration": 0.25581395348837077,
          "durationTicks": 22,
          "midi": 75,
          "name": "D#5",
          "ticks": 24089,
          "time": 280.1046511627907,
          "velocity": 0.15748031496062992
        },
        {
          "duration": 0.2093023255814046,
          "durationTicks": 18,
          "midi": 53,
          "name": "F3",
          "ticks": 24090,
          "time": 280.1162790697674,
          "velocity": 0.3937007874015748
        },
        {
          "duration": 0.1627906976743816,
          "durationTicks": 14,
          "midi": 72,
          "name": "C5",
          "ticks": 24092,
          "time": 280.13953488372096,
          "velocity": 0.09448818897637795
        },
        {
          "duration": 0.06976744186044925,
          "durationTicks": 6,
          "midi": 97,
          "name": "C#7",
          "ticks": 24094,
          "time": 280.16279069767444,
          "velocity": 0.07874015748031496
        },
        {
          "duration": 0.023255813953483084,
          "durationTicks": 2,
          "midi": 41,
          "name": "F2",
          "ticks": 24102,
          "time": 280.25581395348837,
          "velocity": 0.36220472440944884
        },
        {
          "duration": 0.023255813953483084,
          "durationTicks": 2,
          "midi": 41,
          "name": "F2",
          "ticks": 24105,
          "time": 280.2906976744186,
          "velocity": 0.3543307086614173
        },
        {
          "duration": 0.04651162790702301,
          "durationTicks": 4,
          "midi": 43,
          "name": "G2",
          "ticks": 24109,
          "time": 280.33720930232556,
          "velocity": 0.41732283464566927
        },
        {
          "duration": 0.04651162790702301,
          "durationTicks": 4,
          "midi": 102,
          "name": "F#7",
          "ticks": 24109,
          "time": 280.33720930232556,
          "velocity": 0.15748031496062992
        },
        {
          "duration": 0.24418604651162923,
          "durationTicks": 21,
          "midi": 81,
          "name": "A5",
          "ticks": 24110,
          "time": 280.3488372093023,
          "velocity": 0.14960629921259844
        },
        {
          "duration": 0.08139534883724764,
          "durationTicks": 7,
          "midi": 101,
          "name": "F7",
          "ticks": 24110,
          "time": 280.3488372093023,
          "velocity": 0.16535433070866143
        },
        {
          "duration": 0.2325581395348877,
          "durationTicks": 20,
          "midi": 70,
          "name": "A#4",
          "ticks": 24111,
          "time": 280.36046511627904,
          "velocity": 0.25984251968503935
        },
        {
          "duration": 0.023255813953539928,
          "durationTicks": 2,
          "midi": 60,
          "name": "C4",
          "ticks": 24112,
          "time": 280.3720930232558,
          "velocity": 0.2440944881889764
        },
        {
          "duration": 0.24418604651162923,
          "durationTicks": 21,
          "midi": 65,
          "name": "F4",
          "ticks": 24112,
          "time": 280.3720930232558,
          "velocity": 0.23622047244094488
        },
        {
          "duration": 0.24418604651162923,
          "durationTicks": 21,
          "midi": 75,
          "name": "D#5",
          "ticks": 24112,
          "time": 280.3720930232558,
          "velocity": 0.1889763779527559
        },
        {
          "duration": 0.09302325581393234,
          "durationTicks": 8,
          "midi": 80,
          "name": "G#5",
          "ticks": 24113,
          "time": 280.3837209302326,
          "velocity": 0.13385826771653545
        },
        {
          "duration": 0.19767441860460622,
          "durationTicks": 17,
          "midi": 53,
          "name": "F3",
          "ticks": 24114,
          "time": 280.3953488372093,
          "velocity": 0.3858267716535433
        },
        {
          "duration": 0.11627906976741542,
          "durationTicks": 10,
          "midi": 84,
          "name": "C6",
          "ticks": 24115,
          "time": 280.40697674418607,
          "velocity": 0.13385826771653545
        },
        {
          "duration": 0.04651162790696617,
          "durationTicks": 4,
          "midi": 41,
          "name": "F2",
          "ticks": 24116,
          "time": 280.4186046511628,
          "velocity": 0.3779527559055118
        },
        {
          "duration": 0.1627906976743816,
          "durationTicks": 14,
          "midi": 58,
          "name": "A#3",
          "ticks": 24118,
          "time": 280.4418604651163,
          "velocity": 0.30708661417322836
        },
        {
          "duration": 0.023255813953483084,
          "durationTicks": 2,
          "midi": 41,
          "name": "F2",
          "ticks": 24121,
          "time": 280.4767441860465,
          "velocity": 0.3543307086614173
        },
        {
          "duration": 0.023255813953483084,
          "durationTicks": 2,
          "midi": 41,
          "name": "F2",
          "ticks": 24125,
          "time": 280.5232558139535,
          "velocity": 0.3543307086614173
        },
        {
          "duration": 0.023255813953483084,
          "durationTicks": 2,
          "midi": 46,
          "name": "A#2",
          "ticks": 24128,
          "time": 280.5581395348837,
          "velocity": 0.36220472440944884
        },
        {
          "duration": 0.03488372093028147,
          "durationTicks": 3,
          "midi": 51,
          "name": "D#3",
          "ticks": 24131,
          "time": 280.59302325581393,
          "velocity": 0.36220472440944884
        },
        {
          "duration": 0.023255813953539928,
          "durationTicks": 2,
          "midi": 57,
          "name": "A3",
          "ticks": 24132,
          "time": 280.6046511627907,
          "velocity": 0.44881889763779526
        },
        {
          "duration": 0.03488372093028147,
          "durationTicks": 3,
          "midi": 66,
          "name": "F#4",
          "ticks": 24133,
          "time": 280.6162790697674,
          "velocity": 0.1732283464566929
        },
        {
          "duration": 0.05813953488370771,
          "durationTicks": 5,
          "midi": 42,
          "name": "F#2",
          "ticks": 24134,
          "time": 280.6279069767442,
          "velocity": 0.41732283464566927
        },
        {
          "duration": 0.023255813953483084,
          "durationTicks": 2,
          "midi": 58,
          "name": "A#3",
          "ticks": 24134,
          "time": 280.6279069767442,
          "velocity": 0.3858267716535433
        },
        {
          "duration": 0.034883720930224626,
          "durationTicks": 3,
          "midi": 41,
          "name": "F2",
          "ticks": 24139,
          "time": 280.6860465116279,
          "velocity": 0.47244094488188976
        },
        {
          "duration": 0.023255813953483084,
          "durationTicks": 2,
          "midi": 42,
          "name": "F#2",
          "ticks": 24142,
          "time": 280.72093023255815,
          "velocity": 0.49606299212598426
        },
        {
          "duration": 0.034883720930224626,
          "durationTicks": 3,
          "midi": 52,
          "name": "E3",
          "ticks": 24142,
          "time": 280.72093023255815,
          "velocity": 0.29133858267716534
        },
        {
          "duration": 0.023255813953483084,
          "durationTicks": 2,
          "midi": 58,
          "name": "A#3",
          "ticks": 24142,
          "time": 280.72093023255815,
          "velocity": 0.2755905511811024
        },
        {
          "duration": 0.034883720930224626,
          "durationTicks": 3,
          "midi": 71,
          "name": "B4",
          "ticks": 24142,
          "time": 280.72093023255815,
          "velocity": 0.18110236220472442
        },
        {
          "duration": 0.06976744186044925,
          "durationTicks": 6,
          "midi": 41,
          "name": "F2",
          "ticks": 24144,
          "time": 280.74418604651163,
          "velocity": 0.5118110236220472
        },
        {
          "duration": 0.034883720930224626,
          "durationTicks": 3,
          "midi": 54,
          "name": "F#3",
          "ticks": 24145,
          "time": 280.75581395348837,
          "velocity": 0.3700787401574803
        },
        {
          "duration": 0.0813953488371908,
          "durationTicks": 7,
          "midi": 58,
          "name": "A#3",
          "ticks": 24147,
          "time": 280.77906976744185,
          "velocity": 0.33858267716535434
        },
        {
          "duration": 0.058139534883764554,
          "durationTicks": 5,
          "midi": 41,
          "name": "F2",
          "ticks": 24151,
          "time": 280.8255813953488,
          "velocity": 0.5118110236220472
        },
        {
          "duration": 0.3023255813953938,
          "durationTicks": 26,
          "midi": 65,
          "name": "F4",
          "ticks": 24155,
          "time": 280.8720930232558,
          "velocity": 0.31496062992125984
        },
        {
          "duration": 0.023255813953483084,
          "durationTicks": 2,
          "midi": 42,
          "name": "F#2",
          "ticks": 24156,
          "time": 280.8837209302326,
          "velocity": 0.4645669291338583
        },
        {
          "duration": 0.17441860465112313,
          "durationTicks": 15,
          "midi": 81,
          "name": "A5",
          "ticks": 24156,
          "time": 280.8837209302326,
          "velocity": 0.12598425196850394
        },
        {
          "duration": 0.2325581395348877,
          "durationTicks": 20,
          "midi": 53,
          "name": "F3",
          "ticks": 24157,
          "time": 280.8953488372093,
          "velocity": 0.5354330708661418
        },
        {
          "duration": 0.17441860465112313,
          "durationTicks": 15,
          "midi": 70,
          "name": "A#4",
          "ticks": 24157,
          "time": 280.8953488372093,
          "velocity": 0.2047244094488189
        },
        {
          "duration": 0.034883720930224626,
          "durationTicks": 3,
          "midi": 74,
          "name": "D5",
          "ticks": 24157,
          "time": 280.8953488372093,
          "velocity": 0.10236220472440945
        },
        {
          "duration": 0.04651162790696617,
          "durationTicks": 4,
          "midi": 87,
          "name": "D#6",
          "ticks": 24158,
          "time": 280.90697674418607,
          "velocity": 0.12598425196850394
        },
        {
          "duration": 0.034883720930224626,
          "durationTicks": 3,
          "midi": 58,
          "name": "A#3",
          "ticks": 24160,
          "time": 280.93023255813955,
          "velocity": 0.2440944881889764
        },
        {
          "duration": 0.17441860465117998,
          "durationTicks": 15,
          "midi": 58,
          "name": "A#3",
          "ticks": 24164,
          "time": 280.9767441860465,
          "velocity": 0.3464566929133858
        },
        {
          "duration": 0.0697674418605061,
          "durationTicks": 6,
          "midi": 74,
          "name": "D5",
          "ticks": 24176,
          "time": 281.1162790697674,
          "velocity": 0.14173228346456693
        },
        {
          "duration": 0.04651162790696617,
          "durationTicks": 4,
          "midi": 87,
          "name": "D#6",
          "ticks": 24177,
          "time": 281.1279069767442,
          "velocity": 0.09448818897637795
        },
        {
          "duration": 0.034883720930224626,
          "durationTicks": 3,
          "midi": 72,
          "name": "C5",
          "ticks": 24178,
          "time": 281.13953488372096,
          "velocity": 0.15748031496062992
        },
        {
          "duration": 0.023255813953483084,
          "durationTicks": 2,
          "midi": 54,
          "name": "F#3",
          "ticks": 24179,
          "time": 281.1511627906977,
          "velocity": 0.44881889763779526
        },
        {
          "duration": 0.023255813953483084,
          "durationTicks": 2,
          "midi": 44,
          "name": "G#2",
          "ticks": 24180,
          "time": 281.16279069767444,
          "velocity": 0.41732283464566927
        },
        {
          "duration": 0.023255813953483084,
          "durationTicks": 2,
          "midi": 52,
          "name": "E3",
          "ticks": 24181,
          "time": 281.1744186046512,
          "velocity": 0.3700787401574803
        },
        {
          "duration": 0.034883720930224626,
          "durationTicks": 3,
          "midi": 42,
          "name": "F#2",
          "ticks": 24182,
          "time": 281.1860465116279,
          "velocity": 0.5039370078740157
        },
        {
          "duration": 0.034883720930224626,
          "durationTicks": 3,
          "midi": 53,
          "name": "F3",
          "ticks": 24183,
          "time": 281.19767441860466,
          "velocity": 0.33858267716535434
        },
        {
          "duration": 0.034883720930224626,
          "durationTicks": 3,
          "midi": 58,
          "name": "A#3",
          "ticks": 24183,
          "time": 281.19767441860466,
          "velocity": 0.28346456692913385
        },
        {
          "duration": 0.10465116279067388,
          "durationTicks": 9,
          "midi": 41,
          "name": "F2",
          "ticks": 24185,
          "time": 281.22093023255815,
          "velocity": 0.5196850393700787
        },
        {
          "duration": 0.023255813953483084,
          "durationTicks": 2,
          "midi": 55,
          "name": "G3",
          "ticks": 24187,
          "time": 281.24418604651163,
          "velocity": 0.3700787401574803
        },
        {
          "duration": 0.04651162790696617,
          "durationTicks": 4,
          "midi": 60,
          "name": "C4",
          "ticks": 24189,
          "time": 281.2674418604651,
          "velocity": 0.2047244094488189
        },
        {
          "duration": 0.023255813953483084,
          "durationTicks": 2,
          "midi": 54,
          "name": "F#3",
          "ticks": 24194,
          "time": 281.3255813953488,
          "velocity": 0.47244094488188976
        },
        {
          "duration": 0.04651162790702301,
          "durationTicks": 4,
          "midi": 58,
          "name": "A#3",
          "ticks": 24195,
          "time": 281.33720930232556,
          "velocity": 0.30708661417322836
        },
        {
          "duration": 0.058139534883764554,
          "durationTicks": 5,
          "midi": 53,
          "name": "F3",
          "ticks": 24196,
          "time": 281.3488372093023,
          "velocity": 0.4645669291338583
        },
        {
          "duration": 0.03488372093028147,
          "durationTicks": 3,
          "midi": 46,
          "name": "A#2",
          "ticks": 24198,
          "time": 281.3720930232558,
          "velocity": 0.2755905511811024
        },
        {
          "duration": 0.17441860465112313,
          "durationTicks": 15,
          "midi": 77,
          "name": "F5",
          "ticks": 24200,
          "time": 281.3953488372093,
          "velocity": 0.25984251968503935
        },
        {
          "duration": 0.023255813953483084,
          "durationTicks": 2,
          "midi": 54,
          "name": "F#3",
          "ticks": 24201,
          "time": 281.40697674418607,
          "velocity": 0.5196850393700787
        },
        {
          "duration": 0.25581395348837077,
          "durationTicks": 22,
          "midi": 65,
          "name": "F4",
          "ticks": 24201,
          "time": 281.40697674418607,
          "velocity": 0.1968503937007874
        },
        {
          "duration": 0.023255813953483084,
          "durationTicks": 2,
          "midi": 46,
          "name": "A#2",
          "ticks": 24202,
          "time": 281.4186046511628,
          "velocity": 0.29133858267716534
        },
        {
          "duration": 0.2325581395348877,
          "durationTicks": 20,
          "midi": 53,
          "name": "F3",
          "ticks": 24203,
          "time": 281.43023255813955,
          "velocity": 0.5354330708661418
        },
        {
          "duration": 0.22093023255814614,
          "durationTicks": 19,
          "midi": 81,
          "name": "A5",
          "ticks": 24203,
          "time": 281.43023255813955,
          "velocity": 0.15748031496062992
        },
        {
          "duration": 0.09302325581393234,
          "durationTicks": 8,
          "midi": 84,
          "name": "C6",
          "ticks": 24203,
          "time": 281.43023255813955,
          "velocity": 0.15748031496062992
        },
        {
          "duration": 0.22093023255814614,
          "durationTicks": 19,
          "midi": 58,
          "name": "A#3",
          "ticks": 24204,
          "time": 281.4418604651163,
          "velocity": 0.4015748031496063
        },
        {
          "duration": 0.22093023255814614,
          "durationTicks": 19,
          "midi": 74,
          "name": "D5",
          "ticks": 24205,
          "time": 281.45348837209303,
          "velocity": 0.14960629921259844
        },
        {
          "duration": 0.0813953488371908,
          "durationTicks": 7,
          "midi": 87,
          "name": "D#6",
          "ticks": 24205,
          "time": 281.45348837209303,
          "velocity": 0.07874015748031496
        },
        {
          "duration": 0.0813953488371908,
          "durationTicks": 7,
          "midi": 100,
          "name": "E7",
          "ticks": 24205,
          "time": 281.45348837209303,
          "velocity": 0.10236220472440945
        },
        {
          "duration": 0.2093023255814046,
          "durationTicks": 18,
          "midi": 72,
          "name": "C5",
          "ticks": 24206,
          "time": 281.4651162790698,
          "velocity": 0.1732283464566929
        },
        {
          "duration": 0.05813953488370771,
          "durationTicks": 5,
          "midi": 97,
          "name": "C#7",
          "ticks": 24206,
          "time": 281.4651162790698,
          "velocity": 0.15748031496062992
        },
        {
          "duration": 0.023255813953483084,
          "durationTicks": 2,
          "midi": 41,
          "name": "F2",
          "ticks": 24209,
          "time": 281.5,
          "velocity": 0.36220472440944884
        },
        {
          "duration": 0.023255813953483084,
          "durationTicks": 2,
          "midi": 41,
          "name": "F2",
          "ticks": 24212,
          "time": 281.5348837209302,
          "velocity": 0.3779527559055118
        },
        {
          "duration": 0.023255813953483084,
          "durationTicks": 2,
          "midi": 41,
          "name": "F2",
          "ticks": 24215,
          "time": 281.56976744186045,
          "velocity": 0.3779527559055118
        },
        {
          "duration": 0.023255813953539928,
          "durationTicks": 2,
          "midi": 46,
          "name": "A#2",
          "ticks": 24218,
          "time": 281.6046511627907,
          "velocity": 0.3858267716535433
        },
        {
          "duration": 0.05813953488370771,
          "durationTicks": 5,
          "midi": 71,
          "name": "B4",
          "ticks": 24224,
          "time": 281.6744186046512,
          "velocity": 0.25984251968503935
        },
        {
          "duration": 0.034883720930224626,
          "durationTicks": 3,
          "midi": 67,
          "name": "G4",
          "ticks": 24225,
          "time": 281.6860465116279,
          "velocity": 0.14960629921259844
        },
        {
          "duration": 0.023255813953483084,
          "durationTicks": 2,
          "midi": 54,
          "name": "F#3",
          "ticks": 24226,
          "time": 281.69767441860466,
          "velocity": 0.4645669291338583
        },
        {
          "duration": 0.04651162790696617,
          "durationTicks": 4,
          "midi": 58,
          "name": "A#3",
          "ticks": 24228,
          "time": 281.72093023255815,
          "velocity": 0.33858267716535434
        },
        {
          "duration": 0.023255813953483084,
          "durationTicks": 2,
          "midi": 42,
          "name": "F#2",
          "ticks": 24229,
          "time": 281.7325581395349,
          "velocity": 0.48031496062992124
        },
        {
          "duration": 0.023255813953483084,
          "durationTicks": 2,
          "midi": 42,
          "name": "F#2",
          "ticks": 24232,
          "time": 281.7674418604651,
          "velocity": 0.5039370078740157
        },
        {
          "duration": 0.034883720930224626,
          "durationTicks": 3,
          "midi": 70,
          "name": "A#4",
          "ticks": 24232,
          "time": 281.7674418604651,
          "velocity": 0.11811023622047244
        },
        {
          "duration": 0.04651162790696617,
          "durationTicks": 4,
          "midi": 42,
          "name": "F#2",
          "ticks": 24237,
          "time": 281.8255813953488,
          "velocity": 0.49606299212598426
        },
        {
          "duration": 0.03488372093028147,
          "durationTicks": 3,
          "midi": 59,
          "name": "B3",
          "ticks": 24240,
          "time": 281.86046511627904,
          "velocity": 0.2125984251968504
        },
        {
          "duration": 0.023255813953539928,
          "durationTicks": 2,
          "midi": 41,
          "name": "F2",
          "ticks": 24241,
          "time": 281.8720930232558,
          "velocity": 0.4409448818897638
        },
        {
          "duration": 0.023255813953483084,
          "durationTicks": 2,
          "midi": 41,
          "name": "F2",
          "ticks": 24244,
          "time": 281.90697674418607,
          "velocity": 0.4015748031496063
        },
        {
          "duration": 0.023255813953483084,
          "durationTicks": 2,
          "midi": 41,
          "name": "F2",
          "ticks": 24247,
          "time": 281.9418604651163,
          "velocity": 0.4330708661417323
        },
        {
          "duration": 0.023255813953483084,
          "durationTicks": 2,
          "midi": 57,
          "name": "A3",
          "ticks": 24247,
          "time": 281.9418604651163,
          "velocity": 0.3543307086614173
        },
        {
          "duration": 0.2093023255814046,
          "durationTicks": 18,
          "midi": 65,
          "name": "F4",
          "ticks": 24247,
          "time": 281.9418604651163,
          "velocity": 0.11811023622047244
        },
        {
          "duration": 0.2093023255814046,
          "durationTicks": 18,
          "midi": 70,
          "name": "A#4",
          "ticks": 24247,
          "time": 281.9418604651163,
          "velocity": 0.2204724409448819
        },
        {
          "duration": 0.17441860465112313,
          "durationTicks": 15,
          "midi": 77,
          "name": "F5",
          "ticks": 24247,
          "time": 281.9418604651163,
          "velocity": 0.1889763779527559
        },
        {
          "duration": 0.17441860465117998,
          "durationTicks": 15,
          "midi": 58,
          "name": "A#3",
          "ticks": 24249,
          "time": 281.9651162790698,
          "velocity": 0.3937007874015748
        },
        {
          "duration": 0.17441860465117998,
          "durationTicks": 15,
          "midi": 74,
          "name": "D5",
          "ticks": 24249,
          "time": 281.9651162790698,
          "velocity": 0.15748031496062992
        },
        {
          "duration": 0.023255813953483084,
          "durationTicks": 2,
          "midi": 41,
          "name": "F2",
          "ticks": 24250,
          "time": 281.9767441860465,
          "velocity": 0.4094488188976378
        },
        {
          "duration": 0.17441860465117998,
          "durationTicks": 15,
          "midi": 81,
          "name": "A5",
          "ticks": 24250,
          "time": 281.9767441860465,
          "velocity": 0.14173228346456693
        },
        {
          "duration": 0.04651162790696617,
          "durationTicks": 4,
          "midi": 66,
          "name": "F#4",
          "ticks": 24265,
          "time": 282.1511627906977,
          "velocity": 0.14960629921259844
        },
        {
          "duration": 0.05813953488370771,
          "durationTicks": 5,
          "midi": 71,
          "name": "B4",
          "ticks": 24265,
          "time": 282.1511627906977,
          "velocity": 0.08661417322834646
        },
        {
          "duration": 0.04651162790696617,
          "durationTicks": 4,
          "midi": 59,
          "name": "B3",
          "ticks": 24266,
          "time": 282.16279069767444,
          "velocity": 0.3543307086614173
        },
        {
          "duration": 0.023255813953483084,
          "durationTicks": 2,
          "midi": 42,
          "name": "F#2",
          "ticks": 24267,
          "time": 282.1744186046512,
          "velocity": 0.4094488188976378
        },
        {
          "duration": 0.034883720930224626,
          "durationTicks": 3,
          "midi": 54,
          "name": "F#3",
          "ticks": 24269,
          "time": 282.19767441860466,
          "velocity": 0.41732283464566927
        },
        {
          "duration": 0.2325581395348877,
          "durationTicks": 20,
          "midi": 74,
          "name": "D5",
          "ticks": 24269,
          "time": 282.19767441860466,
          "velocity": 0.16535433070866143
        },
        {
          "duration": 0.023255813953483084,
          "durationTicks": 2,
          "midi": 43,
          "name": "G2",
          "ticks": 24270,
          "time": 282.2093023255814,
          "velocity": 0.3779527559055118
        },
        {
          "duration": 0.25581395348837077,
          "durationTicks": 22,
          "midi": 60,
          "name": "C4",
          "ticks": 24270,
          "time": 282.2093023255814,
          "velocity": 0.3937007874015748
        },
        {
          "duration": 0.22093023255814614,
          "durationTicks": 19,
          "midi": 82,
          "name": "A#5",
          "ticks": 24270,
          "time": 282.2093023255814,
          "velocity": 0.13385826771653545
        },
        {
          "duration": 0.2093023255814046,
          "durationTicks": 18,
          "midi": 88,
          "name": "E6",
          "ticks": 24270,
          "time": 282.2093023255814,
          "velocity": 0.16535433070866143
        },
        {
          "duration": 0.2325581395348877,
          "durationTicks": 20,
          "midi": 76,
          "name": "E5",
          "ticks": 24271,
          "time": 282.22093023255815,
          "velocity": 0.12598425196850394
        },
        {
          "duration": 0.2093023255814046,
          "durationTicks": 18,
          "midi": 55,
          "name": "G3",
          "ticks": 24272,
          "time": 282.2325581395349,
          "velocity": 0.4409448818897638
        },
        {
          "duration": 0.034883720930224626,
          "durationTicks": 3,
          "midi": 43,
          "name": "G2",
          "ticks": 24273,
          "time": 282.24418604651163,
          "velocity": 0.3464566929133858
        },
        {
          "duration": 0.023255813953483084,
          "durationTicks": 2,
          "midi": 43,
          "name": "G2",
          "ticks": 24278,
          "time": 282.30232558139534,
          "velocity": 0.33858267716535434
        },
        {
          "duration": 0.058139534883764554,
          "durationTicks": 5,
          "midi": 83,
          "name": "B5",
          "ticks": 24284,
          "time": 282.3720930232558,
          "velocity": 0.08661417322834646
        },
        {
          "duration": 0.05813953488370771,
          "durationTicks": 5,
          "midi": 43,
          "name": "G2",
          "ticks": 24286,
          "time": 282.3953488372093,
          "velocity": 0.4015748031496063
        },
        {
          "duration": 0.023255813953483084,
          "durationTicks": 2,
          "midi": 44,
          "name": "G#2",
          "ticks": 24291,
          "time": 282.45348837209303,
          "velocity": 0.4330708661417323
        },
        {
          "duration": 0.22093023255814614,
          "durationTicks": 19,
          "midi": 55,
          "name": "G3",
          "ticks": 24292,
          "time": 282.4651162790698,
          "velocity": 0.5275590551181102
        },
        {
          "duration": 0.023255813953483084,
          "durationTicks": 2,
          "midi": 71,
          "name": "B4",
          "ticks": 24292,
          "time": 282.4651162790698,
          "velocity": 0.2755905511811024
        },
        {
          "duration": 0.22093023255814614,
          "durationTicks": 19,
          "midi": 60,
          "name": "C4",
          "ticks": 24293,
          "time": 282.4767441860465,
          "velocity": 0.3858267716535433
        },
        {
          "duration": 0.24418604651162923,
          "durationTicks": 21,
          "midi": 74,
          "name": "D5",
          "ticks": 24293,
          "time": 282.4767441860465,
          "velocity": 0.2440944881889764
        },
        {
          "duration": 0.023255813953483084,
          "durationTicks": 2,
          "midi": 43,
          "name": "G2",
          "ticks": 24295,
          "time": 282.5,
          "velocity": 0.4409448818897638
        },
        {
          "duration": 0.034883720930224626,
          "durationTicks": 3,
          "midi": 43,
          "name": "G2",
          "ticks": 24298,
          "time": 282.5348837209302,
          "velocity": 0.44881889763779526
        },
        {
          "duration": 0.058139534883764554,
          "durationTicks": 5,
          "midi": 88,
          "name": "E6",
          "ticks": 24301,
          "time": 282.56976744186045,
          "velocity": 0.13385826771653545
        },
        {
          "duration": 0.023255813953483084,
          "durationTicks": 2,
          "midi": 43,
          "name": "G2",
          "ticks": 24303,
          "time": 282.59302325581393,
          "velocity": 0.44881889763779526
        },
        {
          "duration": 0.04651162790696617,
          "durationTicks": 4,
          "midi": 43,
          "name": "G2",
          "ticks": 24306,
          "time": 282.6279069767442,
          "velocity": 0.4566929133858268
        },
        {
          "duration": 0.04651162790696617,
          "durationTicks": 4,
          "midi": 88,
          "name": "E6",
          "ticks": 24308,
          "time": 282.6511627906977,
          "velocity": 0.14173228346456693
        },
        {
          "duration": 0.023255813953483084,
          "durationTicks": 2,
          "midi": 43,
          "name": "G2",
          "ticks": 24311,
          "time": 282.6860465116279,
          "velocity": 0.41732283464566927
        },
        {
          "duration": 0.04651162790696617,
          "durationTicks": 4,
          "midi": 61,
          "name": "C#4",
          "ticks": 24312,
          "time": 282.69767441860466,
          "velocity": 0.2440944881889764
        },
        {
          "duration": 0.034883720930224626,
          "durationTicks": 3,
          "midi": 54,
          "name": "F#3",
          "ticks": 24313,
          "time": 282.7093023255814,
          "velocity": 0.4409448818897638
        },
        {
          "duration": 0.04651162790696617,
          "durationTicks": 4,
          "midi": 71,
          "name": "B4",
          "ticks": 24314,
          "time": 282.72093023255815,
          "velocity": 0.2204724409448819
        },
        {
          "duration": 0.05813953488370771,
          "durationTicks": 5,
          "midi": 55,
          "name": "G3",
          "ticks": 24316,
          "time": 282.74418604651163,
          "velocity": 0.4409448818897638
        },
        {
          "duration": 0.034883720930224626,
          "durationTicks": 3,
          "midi": 60,
          "name": "C4",
          "ticks": 24316,
          "time": 282.74418604651163,
          "velocity": 0.25984251968503935
        },
        {
          "duration": 0.023255813953483084,
          "durationTicks": 2,
          "midi": 43,
          "name": "G2",
          "ticks": 24317,
          "time": 282.75581395348837,
          "velocity": 0.4409448818897638
        },
        {
          "duration": 0.04651162790696617,
          "durationTicks": 4,
          "midi": 74,
          "name": "D5",
          "ticks": 24319,
          "time": 282.77906976744185,
          "velocity": 0.2204724409448819
        },
        {
          "duration": 0.034883720930224626,
          "durationTicks": 3,
          "midi": 69,
          "name": "A4",
          "ticks": 24320,
          "time": 282.7906976744186,
          "velocity": 0.08661417322834646
        },
        {
          "duration": 0.023255813953483084,
          "durationTicks": 2,
          "midi": 44,
          "name": "G#2",
          "ticks": 24321,
          "time": 282.80232558139534,
          "velocity": 0.49606299212598426
        },
        {
          "duration": 0.0697674418605061,
          "durationTicks": 6,
          "midi": 55,
          "name": "G3",
          "ticks": 24322,
          "time": 282.8139534883721,
          "velocity": 0.41732283464566927
        },
        {
          "duration": 0.023255813953539928,
          "durationTicks": 2,
          "midi": 43,
          "name": "G2",
          "ticks": 24326,
          "time": 282.86046511627904,
          "velocity": 0.4330708661417323
        },
        {
          "duration": 0.034883720930224626,
          "durationTicks": 3,
          "midi": 60,
          "name": "C4",
          "ticks": 24328,
          "time": 282.8837209302326,
          "velocity": 0.2992125984251969
        },
        {
          "duration": 0.034883720930224626,
          "durationTicks": 3,
          "midi": 55,
          "name": "G3",
          "ticks": 24329,
          "time": 282.8953488372093,
          "velocity": 0.4330708661417323
        },
        {
          "duration": 0.023255813953483084,
          "durationTicks": 2,
          "midi": 44,
          "name": "G#2",
          "ticks": 24332,
          "time": 282.93023255813955,
          "velocity": 0.44881889763779526
        },
        {
          "duration": 0.24418604651162923,
          "durationTicks": 21,
          "midi": 55,
          "name": "G3",
          "ticks": 24333,
          "time": 282.9418604651163,
          "velocity": 0.5039370078740157
        },
        {
          "duration": 0.034883720930224626,
          "durationTicks": 3,
          "midi": 43,
          "name": "G2",
          "ticks": 24334,
          "time": 282.95348837209303,
          "velocity": 0.3779527559055118
        },
        {
          "duration": 0.04651162790696617,
          "durationTicks": 4,
          "midi": 74,
          "name": "D5",
          "ticks": 24335,
          "time": 282.9651162790698,
          "velocity": 0.13385826771653545
        },
        {
          "duration": 0.16279069767443843,
          "durationTicks": 14,
          "midi": 88,
          "name": "E6",
          "ticks": 24335,
          "time": 282.9651162790698,
          "velocity": 0.2677165354330709
        },
        {
          "duration": 0.2325581395348877,
          "durationTicks": 20,
          "midi": 60,
          "name": "C4",
          "ticks": 24337,
          "time": 282.98837209302326,
          "velocity": 0.41732283464566927
        },
        {
          "duration": 0.25581395348837077,
          "durationTicks": 22,
          "midi": 83,
          "name": "B5",
          "ticks": 24338,
          "time": 283,
          "velocity": 0.1889763779527559
        },
        {
          "duration": 0.034883720930224626,
          "durationTicks": 3,
          "midi": 43,
          "name": "G2",
          "ticks": 24341,
          "time": 283.0348837209302,
          "velocity": 0.4251968503937008
        },
        {
          "duration": 0.13953488372095535,
          "durationTicks": 12,
          "midi": 81,
          "name": "A5",
          "ticks": 24342,
          "time": 283.04651162790697,
          "velocity": 0.09448818897637795
        },
        {
          "duration": 0.12790697674415696,
          "durationTicks": 11,
          "midi": 74,
          "name": "D5",
          "ticks": 24352,
          "time": 283.16279069767444,
          "velocity": 0.2125984251968504
        },
        {
          "duration": 0.04651162790696617,
          "durationTicks": 4,
          "midi": 76,
          "name": "E5",
          "ticks": 24354,
          "time": 283.1860465116279,
          "velocity": 0.10236220472440945
        },
        {
          "duration": 0.023255813953483084,
          "durationTicks": 2,
          "midi": 43,
          "name": "G2",
          "ticks": 24357,
          "time": 283.22093023255815,
          "velocity": 0.4015748031496063
        },
        {
          "duration": 0.023255813953483084,
          "durationTicks": 2,
          "midi": 54,
          "name": "F#3",
          "ticks": 24358,
          "time": 283.2325581395349,
          "velocity": 0.48031496062992124
        },
        {
          "duration": 0.06976744186044925,
          "durationTicks": 6,
          "midi": 55,
          "name": "G3",
          "ticks": 24360,
          "time": 283.25581395348837,
          "velocity": 0.5905511811023622
        },
        {
          "duration": 0.023255813953483084,
          "durationTicks": 2,
          "midi": 60,
          "name": "C4",
          "ticks": 24361,
          "time": 283.2674418604651,
          "velocity": 0.25984251968503935
        },
        {
          "duration": 0.023255813953483084,
          "durationTicks": 2,
          "midi": 43,
          "name": "G2",
          "ticks": 24363,
          "time": 283.2906976744186,
          "velocity": 0.4566929133858268
        },
        {
          "duration": 0.023255813953483084,
          "durationTicks": 2,
          "midi": 43,
          "name": "G2",
          "ticks": 24366,
          "time": 283.3255813953488,
          "velocity": 0.48031496062992124
        },
        {
          "duration": 0.04651162790696617,
          "durationTicks": 4,
          "midi": 56,
          "name": "G#3",
          "ticks": 24366,
          "time": 283.3255813953488,
          "velocity": 0.3858267716535433
        },
        {
          "duration": 0.023255813953483084,
          "durationTicks": 2,
          "midi": 44,
          "name": "G#2",
          "ticks": 24368,
          "time": 283.3488372093023,
          "velocity": 0.49606299212598426
        },
        {
          "duration": 0.03488372093028147,
          "durationTicks": 3,
          "midi": 55,
          "name": "G3",
          "ticks": 24370,
          "time": 283.3720930232558,
          "velocity": 0.4251968503937008
        },
        {
          "duration": 0.034883720930224626,
          "durationTicks": 3,
          "midi": 72,
          "name": "C5",
          "ticks": 24374,
          "time": 283.4186046511628,
          "velocity": 0.14173228346456693
        },
        {
          "duration": 0.33720930232556157,
          "durationTicks": 29,
          "midi": 60,
          "name": "C4",
          "ticks": 24375,
          "time": 283.43023255813955,
          "velocity": 0.4645669291338583
        },
        {
          "duration": 0.034883720930224626,
          "durationTicks": 3,
          "midi": 55,
          "name": "G3",
          "ticks": 24376,
          "time": 283.4418604651163,
          "velocity": 0.3937007874015748
        },
        {
          "duration": 0.023255813953483084,
          "durationTicks": 2,
          "midi": 43,
          "name": "G2",
          "ticks": 24378,
          "time": 283.4651162790698,
          "velocity": 0.3858267716535433
        },
        {
          "duration": 0.18604651162792152,
          "durationTicks": 16,
          "midi": 83,
          "name": "B5",
          "ticks": 24381,
          "time": 283.5,
          "velocity": 0.11023622047244094
        },
        {
          "duration": 0.1279069767442138,
          "durationTicks": 11,
          "midi": 88,
          "name": "E6",
          "ticks": 24381,
          "time": 283.5,
          "velocity": 0.1889763779527559
        },
        {
          "duration": 0.05813953488370771,
          "durationTicks": 5,
          "midi": 48,
          "name": "C3",
          "ticks": 24382,
          "time": 283.51162790697674,
          "velocity": 0.2992125984251969
        },
        {
          "duration": 0.37209302325584304,
          "durationTicks": 32,
          "midi": 55,
          "name": "G3",
          "ticks": 24382,
          "time": 283.51162790697674,
          "velocity": 0.5748031496062992
        },
        {
          "duration": 0.19767441860466306,
          "durationTicks": 17,
          "midi": 79,
          "name": "G5",
          "ticks": 24386,
          "time": 283.5581395348837,
          "velocity": 0.2440944881889764
        },
        {
          "duration": 0.1279069767442138,
          "durationTicks": 11,
          "midi": 74,
          "name": "D5",
          "ticks": 24390,
          "time": 283.6046511627907,
          "velocity": 0.11811023622047244
        },
        {
          "duration": 0.034883720930224626,
          "durationTicks": 3,
          "midi": 43,
          "name": "G2",
          "ticks": 24394,
          "time": 283.6511627906977,
          "velocity": 0.33858267716535434
        },
        {
          "duration": 0.0813953488371908,
          "durationTicks": 7,
          "midi": 76,
          "name": "E5",
          "ticks": 24397,
          "time": 283.6860465116279,
          "velocity": 0.15748031496062992
        },
        {
          "duration": 0.034883720930224626,
          "durationTicks": 3,
          "midi": 48,
          "name": "C3",
          "ticks": 24403,
          "time": 283.75581395348837,
          "velocity": 0.3937007874015748
        },
        {
          "duration": 0.13953488372095535,
          "durationTicks": 12,
          "midi": 74,
          "name": "D5",
          "ticks": 24403,
          "time": 283.75581395348837,
          "velocity": 0.11811023622047244
        },
        {
          "duration": 0.04651162790696617,
          "durationTicks": 4,
          "midi": 71,
          "name": "B4",
          "ticks": 24404,
          "time": 283.7674418604651,
          "velocity": 0.2125984251968504
        },
        {
          "duration": 0.034883720930224626,
          "durationTicks": 3,
          "midi": 43,
          "name": "G2",
          "ticks": 24410,
          "time": 283.83720930232556,
          "velocity": 0.3858267716535433
        },
        {
          "duration": 0.03488372093028147,
          "durationTicks": 3,
          "midi": 60,
          "name": "C4",
          "ticks": 24412,
          "time": 283.86046511627904,
          "velocity": 0.1968503937007874
        },
        {
          "duration": 0.04651162790696617,
          "durationTicks": 4,
          "midi": 55,
          "name": "G3",
          "ticks": 24416,
          "time": 283.90697674418607,
          "velocity": 0.3937007874015748
        },
        {
          "duration": 0.034883720930224626,
          "durationTicks": 3,
          "midi": 62,
          "name": "D4",
          "ticks": 24416,
          "time": 283.90697674418607,
          "velocity": 0.1889763779527559
        },
        {
          "duration": 0.034883720930224626,
          "durationTicks": 3,
          "midi": 43,
          "name": "G2",
          "ticks": 24418,
          "time": 283.93023255813955,
          "velocity": 0.4409448818897638
        },
        {
          "duration": 0.023255813953483084,
          "durationTicks": 2,
          "midi": 59,
          "name": "B3",
          "ticks": 24418,
          "time": 283.93023255813955,
          "velocity": 0.31496062992125984
        },
        {
          "duration": 0.11627906976741542,
          "durationTicks": 10,
          "midi": 74,
          "name": "D5",
          "ticks": 24418,
          "time": 283.93023255813955,
          "velocity": 0.1889763779527559
        },
        {
          "duration": 0.25581395348837077,
          "durationTicks": 22,
          "midi": 72,
          "name": "C5",
          "ticks": 24419,
          "time": 283.9418604651163,
          "velocity": 0.3464566929133858
        },
        {
          "duration": 0.24418604651162923,
          "durationTicks": 21,
          "midi": 67,
          "name": "G4",
          "ticks": 24420,
          "time": 283.95348837209303,
          "velocity": 0.1889763779527559
        },
        {
          "duration": 0.27906976744185386,
          "durationTicks": 24,
          "midi": 55,
          "name": "G3",
          "ticks": 24421,
          "time": 283.9651162790698,
          "velocity": 0.49606299212598426
        },
        {
          "duration": 0.023255813953483084,
          "durationTicks": 2,
          "midi": 43,
          "name": "G2",
          "ticks": 24422,
          "time": 283.9767441860465,
          "velocity": 0.4094488188976378
        },
        {
          "duration": 0.023255813953483084,
          "durationTicks": 2,
          "midi": 61,
          "name": "C#4",
          "ticks": 24423,
          "time": 283.98837209302326,
          "velocity": 0.36220472440944884
        },
        {
          "duration": 0.034883720930224626,
          "durationTicks": 3,
          "midi": 43,
          "name": "G2",
          "ticks": 24425,
          "time": 284.01162790697674,
          "velocity": 0.4330708661417323
        },
        {
          "duration": 0.18604651162792152,
          "durationTicks": 16,
          "midi": 60,
          "name": "C4",
          "ticks": 24425,
          "time": 284.01162790697674,
          "velocity": 0.4094488188976378
        },
        {
          "duration": 0.09302325581393234,
          "durationTicks": 8,
          "midi": 88,
          "name": "E6",
          "ticks": 24425,
          "time": 284.01162790697674,
          "velocity": 0.1968503937007874
        },
        {
          "duration": 0.17441860465117998,
          "durationTicks": 15,
          "midi": 83,
          "name": "B5",
          "ticks": 24426,
          "time": 284.0232558139535,
          "velocity": 0.23622047244094488
        },
        {
          "duration": 0.17441860465117998,
          "durationTicks": 15,
          "midi": 76,
          "name": "E5",
          "ticks": 24427,
          "time": 284.0348837209302,
          "velocity": 0.13385826771653545
        },
        {
          "duration": 0.023255813953483084,
          "durationTicks": 2,
          "midi": 43,
          "name": "G2",
          "ticks": 24430,
          "time": 284.06976744186045,
          "velocity": 0.4330708661417323
        },
        {
          "duration": 0.023255813953483084,
          "durationTicks": 2,
          "midi": 43,
          "name": "G2",
          "ticks": 24435,
          "time": 284.1279069767442,
          "velocity": 0.4330708661417323
        },
        {
          "duration": 0.034883720930224626,
          "durationTicks": 3,
          "midi": 43,
          "name": "G2",
          "ticks": 24438,
          "time": 284.16279069767444,
          "velocity": 0.4409448818897638
        },
        {
          "duration": 0.034883720930224626,
          "durationTicks": 3,
          "midi": 98,
          "name": "D7",
          "ticks": 24438,
          "time": 284.16279069767444,
          "velocity": 0.07874015748031496
        },
        {
          "duration": 0.034883720930224626,
          "durationTicks": 3,
          "midi": 71,
          "name": "B4",
          "ticks": 24441,
          "time": 284.19767441860466,
          "velocity": 0.14960629921259844
        },
        {
          "duration": 0.034883720930224626,
          "durationTicks": 3,
          "midi": 49,
          "name": "C#3",
          "ticks": 24443,
          "time": 284.22093023255815,
          "velocity": 0.36220472440944884
        },
        {
          "duration": 0.04651162790696617,
          "durationTicks": 4,
          "midi": 50,
          "name": "D3",
          "ticks": 24446,
          "time": 284.25581395348837,
          "velocity": 0.3858267716535433
        },
        {
          "duration": 0.034883720930224626,
          "durationTicks": 3,
          "midi": 61,
          "name": "C#4",
          "ticks": 24446,
          "time": 284.25581395348837,
          "velocity": 0.29133858267716534
        },
        {
          "duration": 0.5,
          "durationTicks": 43,
          "midi": 74,
          "name": "D5",
          "ticks": 24447,
          "time": 284.2674418604651,
          "velocity": 0.48031496062992124
        },
        {
          "duration": 0.25581395348837077,
          "durationTicks": 22,
          "midi": 57,
          "name": "A3",
          "ticks": 24448,
          "time": 284.27906976744185,
          "velocity": 0.3779527559055118
        },
        {
          "duration": 0.25581395348837077,
          "durationTicks": 22,
          "midi": 62,
          "name": "D4",
          "ticks": 24449,
          "time": 284.2906976744186,
          "velocity": 0.3937007874015748
        },
        {
          "duration": 0.06976744186044925,
          "durationTicks": 6,
          "midi": 88,
          "name": "E6",
          "ticks": 24449,
          "time": 284.2906976744186,
          "velocity": 0.2283464566929134
        },
        {
          "duration": 0.034883720930224626,
          "durationTicks": 3,
          "midi": 78,
          "name": "F#5",
          "ticks": 24450,
          "time": 284.30232558139534,
          "velocity": 0.08661417322834646
        },
        {
          "duration": 0.034883720930224626,
          "durationTicks": 3,
          "midi": 76,
          "name": "E5",
          "ticks": 24452,
          "time": 284.3255813953488,
          "velocity": 0.08661417322834646
        },
        {
          "duration": 0.19767441860466306,
          "durationTicks": 17,
          "midi": 45,
          "name": "A2",
          "ticks": 24454,
          "time": 284.3488372093023,
          "velocity": 0.3543307086614173
        },
        {
          "duration": 0.3488372093023031,
          "durationTicks": 30,
          "midi": 76,
          "name": "E5",
          "ticks": 24457,
          "time": 284.3837209302326,
          "velocity": 0.2283464566929134
        },
        {
          "duration": 0.034883720930224626,
          "durationTicks": 3,
          "midi": 78,
          "name": "F#5",
          "ticks": 24468,
          "time": 284.51162790697674,
          "velocity": 0.08661417322834646
        },
        {
          "duration": 0.023255813953483084,
          "durationTicks": 2,
          "midi": 55,
          "name": "G3",
          "ticks": 24470,
          "time": 284.5348837209302,
          "velocity": 0.29133858267716534
        },
        {
          "duration": 0.1511627906976969,
          "durationTicks": 13,
          "midi": 81,
          "name": "A5",
          "ticks": 24470,
          "time": 284.5348837209302,
          "velocity": 0.2755905511811024
        },
        {
          "duration": 0.034883720930224626,
          "durationTicks": 3,
          "midi": 43,
          "name": "G2",
          "ticks": 24472,
          "time": 284.5581395348837,
          "velocity": 0.25196850393700787
        },
        {
          "duration": 0.18604651162792152,
          "durationTicks": 16,
          "midi": 62,
          "name": "D4",
          "ticks": 24472,
          "time": 284.5581395348837,
          "velocity": 0.3543307086614173
        },
        {
          "duration": 0.13953488372095535,
          "durationTicks": 12,
          "midi": 57,
          "name": "A3",
          "ticks": 24473,
          "time": 284.56976744186045,
          "velocity": 0.23622047244094488
        },
        {
          "duration": 0.04651162790702301,
          "durationTicks": 4,
          "midi": 42,
          "name": "F#2",
          "ticks": 24475,
          "time": 284.59302325581393,
          "velocity": 0.18110236220472442
        },
        {
          "duration": 0.023255813953483084,
          "durationTicks": 2,
          "midi": 62,
          "name": "D4",
          "ticks": 24491,
          "time": 284.77906976744185,
          "velocity": 0.2992125984251969
        },
        {
          "duration": 0.27906976744185386,
          "durationTicks": 24,
          "midi": 57,
          "name": "A3",
          "ticks": 24492,
          "time": 284.7906976744186,
          "velocity": 0.4645669291338583
        },
        {
          "duration": 0.32558139534887687,
          "durationTicks": 28,
          "midi": 74,
          "name": "D5",
          "ticks": 24493,
          "time": 284.80232558139534,
          "velocity": 0.4330708661417323
        },
        {
          "duration": 0.24418604651162923,
          "durationTicks": 21,
          "midi": 78,
          "name": "F#5",
          "ticks": 24493,
          "time": 284.80232558139534,
          "velocity": 0.16535433070866143
        },
        {
          "duration": 0.2906976744185954,
          "durationTicks": 25,
          "midi": 81,
          "name": "A5",
          "ticks": 24493,
          "time": 284.80232558139534,
          "velocity": 0.3543307086614173
        },
        {
          "duration": 0.034883720930224626,
          "durationTicks": 3,
          "midi": 44,
          "name": "G#2",
          "ticks": 24494,
          "time": 284.8139534883721,
          "velocity": 0.3543307086614173
        },
        {
          "duration": 0.1279069767442138,
          "durationTicks": 11,
          "midi": 62,
          "name": "D4",
          "ticks": 24494,
          "time": 284.8139534883721,
          "velocity": 0.3464566929133858
        },
        {
          "duration": 0.04651162790696617,
          "durationTicks": 4,
          "midi": 88,
          "name": "E6",
          "ticks": 24495,
          "time": 284.8255813953488,
          "velocity": 0.12598425196850394
        },
        {
          "duration": 0.034883720930224626,
          "durationTicks": 3,
          "midi": 97,
          "name": "C#7",
          "ticks": 24496,
          "time": 284.83720930232556,
          "velocity": 0.08661417322834646
        },
        {
          "duration": 0.023255813953483084,
          "durationTicks": 2,
          "midi": 46,
          "name": "A#2",
          "ticks": 24497,
          "time": 284.8488372093023,
          "velocity": 0.2755905511811024
        },
        {
          "duration": 0.023255813953539928,
          "durationTicks": 2,
          "midi": 50,
          "name": "D3",
          "ticks": 24498,
          "time": 284.86046511627904,
          "velocity": 0.25984251968503935
        },
        {
          "duration": 0.03488372093028147,
          "durationTicks": 3,
          "midi": 45,
          "name": "A2",
          "ticks": 24499,
          "time": 284.8720930232558,
          "velocity": 0.28346456692913385
        },
        {
          "duration": 0.04651162790696617,
          "durationTicks": 4,
          "midi": 45,
          "name": "A2",
          "ticks": 24505,
          "time": 284.9418604651163,
          "velocity": 0.25196850393700787
        },
        {
          "duration": 0.18604651162792152,
          "durationTicks": 16,
          "midi": 62,
          "name": "D4",
          "ticks": 24506,
          "time": 284.95348837209303,
          "velocity": 0.4015748031496063
        },
        {
          "duration": 0.12790697674415696,
          "durationTicks": 11,
          "midi": 76,
          "name": "E5",
          "ticks": 24506,
          "time": 284.95348837209303,
          "velocity": 0.1889763779527559
        },
        {
          "duration": 0.023255813953483084,
          "durationTicks": 2,
          "midi": 50,
          "name": "D3",
          "ticks": 24507,
          "time": 284.9651162790698,
          "velocity": 0.23622047244094488
        },
        {
          "duration": 0.034883720930224626,
          "durationTicks": 3,
          "midi": 45,
          "name": "A2",
          "ticks": 24514,
          "time": 285.04651162790697,
          "velocity": 0.4094488188976378
        },
        {
          "duration": 0.0697674418605061,
          "durationTicks": 6,
          "midi": 42,
          "name": "F#2",
          "ticks": 24519,
          "time": 285.1046511627907,
          "velocity": 0.3779527559055118
        },
        {
          "duration": 0.0697674418605061,
          "durationTicks": 6,
          "midi": 56,
          "name": "G#3",
          "ticks": 24520,
          "time": 285.1162790697674,
          "velocity": 0.25984251968503935
        },
        {
          "duration": 0.06976744186044925,
          "durationTicks": 6,
          "midi": 55,
          "name": "G3",
          "ticks": 24526,
          "time": 285.1860465116279,
          "velocity": 0.31496062992125984
        },
        {
          "duration": 0.034883720930224626,
          "durationTicks": 3,
          "midi": 43,
          "name": "G2",
          "ticks": 24527,
          "time": 285.19767441860466,
          "velocity": 0.29133858267716534
        },
        {
          "duration": 0.15116279069764005,
          "durationTicks": 13,
          "midi": 73,
          "name": "C#5",
          "ticks": 24527,
          "time": 285.19767441860466,
          "velocity": 0.2440944881889764
        },
        {
          "duration": 0.12790697674415696,
          "durationTicks": 11,
          "midi": 77,
          "name": "F5",
          "ticks": 24527,
          "time": 285.19767441860466,
          "velocity": 0.2047244094488189
        },
        {
          "duration": 0.11627906976741542,
          "durationTicks": 10,
          "midi": 61,
          "name": "C#4",
          "ticks": 24528,
          "time": 285.2093023255814,
          "velocity": 0.3700787401574803
        },
        {
          "duration": 0.27906976744185386,
          "durationTicks": 24,
          "midi": 68,
          "name": "G#4",
          "ticks": 24528,
          "time": 285.2093023255814,
          "velocity": 0.1889763779527559
        },
        {
          "duration": 0.034883720930224626,
          "durationTicks": 3,
          "midi": 71,
          "name": "B4",
          "ticks": 24528,
          "time": 285.2093023255814,
          "velocity": 0.16535433070866143
        },
        {
          "duration": 0.05813953488370771,
          "durationTicks": 5,
          "midi": 87,
          "name": "D#6",
          "ticks": 24528,
          "time": 285.2093023255814,
          "velocity": 0.12598425196850394
        },
        {
          "duration": 0.04651162790696617,
          "durationTicks": 4,
          "midi": 42,
          "name": "F#2",
          "ticks": 24530,
          "time": 285.2325581395349,
          "velocity": 0.2440944881889764
        },
        {
          "duration": 0.05813953488370771,
          "durationTicks": 5,
          "midi": 49,
          "name": "C#3",
          "ticks": 24530,
          "time": 285.2325581395349,
          "velocity": 0.25196850393700787
        },
        {
          "duration": 0.034883720930224626,
          "durationTicks": 3,
          "midi": 50,
          "name": "D3",
          "ticks": 24535,
          "time": 285.2906976744186,
          "velocity": 0.3700787401574803
        },
        {
          "duration": 0.034883720930224626,
          "durationTicks": 3,
          "midi": 71,
          "name": "B4",
          "ticks": 24538,
          "time": 285.3255813953488,
          "velocity": 0.1968503937007874
        },
        {
          "duration": 0.11627906976747227,
          "durationTicks": 10,
          "midi": 87,
          "name": "D#6",
          "ticks": 24538,
          "time": 285.3255813953488,
          "velocity": 0.2204724409448819
        },
        {
          "duration": 0.023255813953483084,
          "durationTicks": 2,
          "midi": 44,
          "name": "G#2",
          "ticks": 24539,
          "time": 285.33720930232556,
          "velocity": 0.41732283464566927
        },
        {
          "duration": 0.10465116279073072,
          "durationTicks": 9,
          "midi": 61,
          "name": "C#4",
          "ticks": 24539,
          "time": 285.33720930232556,
          "velocity": 0.29133858267716534
        },
        {
          "duration": 0.2674418604651123,
          "durationTicks": 23,
          "midi": 75,
          "name": "D#5",
          "ticks": 24540,
          "time": 285.3488372093023,
          "velocity": 0.30708661417322836
        },
        {
          "duration": 0.023255813953483084,
          "durationTicks": 2,
          "midi": 60,
          "name": "C4",
          "ticks": 24548,
          "time": 285.4418604651163,
          "velocity": 0.3543307086614173
        },
        {
          "duration": 0.15116279069764005,
          "durationTicks": 13,
          "midi": 80,
          "name": "G#5",
          "ticks": 24548,
          "time": 285.4418604651163,
          "velocity": 0.3543307086614173
        },
        {
          "duration": 0.034883720930224626,
          "durationTicks": 3,
          "midi": 55,
          "name": "G3",
          "ticks": 24549,
          "time": 285.45348837209303,
          "velocity": 0.33070866141732286
        },
        {
          "duration": 0.034883720930224626,
          "durationTicks": 3,
          "midi": 71,
          "name": "B4",
          "ticks": 24549,
          "time": 285.45348837209303,
          "velocity": 0.2204724409448819
        },
        {
          "duration": 0.1395348837208985,
          "durationTicks": 12,
          "midi": 73,
          "name": "C#5",
          "ticks": 24549,
          "time": 285.45348837209303,
          "velocity": 0.31496062992125984
        },
        {
          "duration": 0.19767441860466306,
          "durationTicks": 17,
          "midi": 61,
          "name": "C#4",
          "ticks": 24550,
          "time": 285.4651162790698,
          "velocity": 0.3937007874015748
        },
        {
          "duration": 0.04651162790696617,
          "durationTicks": 4,
          "midi": 98,
          "name": "D7",
          "ticks": 24551,
          "time": 285.4767441860465,
          "velocity": 0.10236220472440945
        },
        {
          "duration": 0.06976744186044925,
          "durationTicks": 6,
          "midi": 56,
          "name": "G#3",
          "ticks": 24552,
          "time": 285.48837209302326,
          "velocity": 0.2677165354330709
        },
        {
          "duration": 0.04651162790696617,
          "durationTicks": 4,
          "midi": 89,
          "name": "F6",
          "ticks": 24558,
          "time": 285.5581395348837,
          "velocity": 0.09448818897637795
        },
        {
          "duration": 0.03488372093028147,
          "durationTicks": 3,
          "midi": 42,
          "name": "F#2",
          "ticks": 24563,
          "time": 285.6162790697674,
          "velocity": 0.3779527559055118
        },
        {
          "duration": 0.058139534883764554,
          "durationTicks": 5,
          "midi": 55,
          "name": "G3",
          "ticks": 24563,
          "time": 285.6162790697674,
          "velocity": 0.2125984251968504
        },
        {
          "duration": 0.04651162790696617,
          "durationTicks": 4,
          "midi": 42,
          "name": "F#2",
          "ticks": 24567,
          "time": 285.66279069767444,
          "velocity": 0.25196850393700787
        },
        {
          "duration": 0.023255813953483084,
          "durationTicks": 2,
          "midi": 48,
          "name": "C3",
          "ticks": 24571,
          "time": 285.7093023255814,
          "velocity": 0.29133858267716534
        },
        {
          "duration": 0.5581395348837077,
          "durationTicks": 48,
          "midi": 68,
          "name": "G#4",
          "ticks": 24571,
          "time": 285.7093023255814,
          "velocity": 0.2283464566929134
        },
        {
          "duration": 0.15116279069764005,
          "durationTicks": 13,
          "midi": 73,
          "name": "C#5",
          "ticks": 24571,
          "time": 285.7093023255814,
          "velocity": 0.23622047244094488
        },
        {
          "duration": 0.24418604651162923,
          "durationTicks": 21,
          "midi": 77,
          "name": "F5",
          "ticks": 24571,
          "time": 285.7093023255814,
          "velocity": 0.16535433070866143
        },
        {
          "duration": 0.627906976744157,
          "durationTicks": 54,
          "midi": 61,
          "name": "C#4",
          "ticks": 24572,
          "time": 285.72093023255815,
          "velocity": 0.48031496062992124
        },
        {
          "duration": 0.15116279069764005,
          "durationTicks": 13,
          "midi": 83,
          "name": "B5",
          "ticks": 24572,
          "time": 285.72093023255815,
          "velocity": 0.12598425196850394
        },
        {
          "duration": 0.05813953488370771,
          "durationTicks": 5,
          "midi": 87,
          "name": "D#6",
          "ticks": 24572,
          "time": 285.72093023255815,
          "velocity": 0.08661417322834646
        },
        {
          "duration": 0.09302325581393234,
          "durationTicks": 8,
          "midi": 49,
          "name": "C#3",
          "ticks": 24575,
          "time": 285.75581395348837,
          "velocity": 0.3779527559055118
        },
        {
          "duration": 0.11627906976747227,
          "durationTicks": 10,
          "midi": 56,
          "name": "G#3",
          "ticks": 24583,
          "time": 285.8488372093023,
          "velocity": 0.4645669291338583
        },
        {
          "duration": 0.03488372093028147,
          "durationTicks": 3,
          "midi": 71,
          "name": "B4",
          "ticks": 24584,
          "time": 285.86046511627904,
          "velocity": 0.2125984251968504
        },
        {
          "duration": 0.2790697674419107,
          "durationTicks": 24,
          "midi": 87,
          "name": "D#6",
          "ticks": 24584,
          "time": 285.86046511627904,
          "velocity": 0.2047244094488189
        },
        {
          "duration": 0.19767441860460622,
          "durationTicks": 17,
          "midi": 75,
          "name": "D#5",
          "ticks": 24586,
          "time": 285.8837209302326,
          "velocity": 0.2992125984251969
        },
        {
          "duration": 0.023255813953483084,
          "durationTicks": 2,
          "midi": 44,
          "name": "G#2",
          "ticks": 24587,
          "time": 285.8953488372093,
          "velocity": 0.3937007874015748
        },
        {
          "duration": 0.1395348837208985,
          "durationTicks": 12,
          "midi": 80,
          "name": "G#5",
          "ticks": 24588,
          "time": 285.90697674418607,
          "velocity": 0.25984251968503935
        },
        {
          "duration": 0.034883720930224626,
          "durationTicks": 3,
          "midi": 44,
          "name": "G#2",
          "ticks": 24592,
          "time": 285.95348837209303,
          "velocity": 0.3543307086614173
        },
        {
          "duration": 0.023255813953483084,
          "durationTicks": 2,
          "midi": 57,
          "name": "A3",
          "ticks": 24593,
          "time": 285.9651162790698,
          "velocity": 0.41732283464566927
        },
        {
          "duration": 0.09302325581393234,
          "durationTicks": 8,
          "midi": 56,
          "name": "G#3",
          "ticks": 24595,
          "time": 285.98837209302326,
          "velocity": 0.41732283464566927
        },
        {
          "duration": 0.09302325581393234,
          "durationTicks": 8,
          "midi": 44,
          "name": "G#2",
          "ticks": 24596,
          "time": 286,
          "velocity": 0.4015748031496063
        },
        {
          "duration": 0.023255813953483084,
          "durationTicks": 2,
          "midi": 45,
          "name": "A2",
          "ticks": 24604,
          "time": 286.09302325581393,
          "velocity": 0.4409448818897638
        },
        {
          "duration": 0.13953488372095535,
          "durationTicks": 12,
          "midi": 77,
          "name": "F5",
          "ticks": 24604,
          "time": 286.09302325581393,
          "velocity": 0.2047244094488189
        },
        {
          "duration": 0.058139534883764554,
          "durationTicks": 5,
          "midi": 55,
          "name": "G3",
          "ticks": 24606,
          "time": 286.1162790697674,
          "velocity": 0.33858267716535434
        },
        {
          "duration": 0.023255813953483084,
          "durationTicks": 2,
          "midi": 43,
          "name": "G2",
          "ticks": 24607,
          "time": 286.1279069767442,
          "velocity": 0.3858267716535433
        },
        {
          "duration": 0.05813953488370771,
          "durationTicks": 5,
          "midi": 42,
          "name": "F#2",
          "ticks": 24609,
          "time": 286.1511627906977,
          "velocity": 0.3779527559055118
        },
        {
          "duration": 0.023255813953483084,
          "durationTicks": 2,
          "midi": 54,
          "name": "F#3",
          "ticks": 24616,
          "time": 286.2325581395349,
          "velocity": 0.3464566929133858
        },
        {
          "duration": 0.034883720930224626,
          "durationTicks": 3,
          "midi": 42,
          "name": "F#2",
          "ticks": 24617,
          "time": 286.24418604651163,
          "velocity": 0.3779527559055118
        },
        {
          "duration": 0.023255813953483084,
          "durationTicks": 2,
          "midi": 55,
          "name": "G3",
          "ticks": 24618,
          "time": 286.25581395348837,
          "velocity": 0.2992125984251969
        },
        {
          "duration": 0.05813953488370771,
          "durationTicks": 5,
          "midi": 41,
          "name": "F2",
          "ticks": 24620,
          "time": 286.27906976744185,
          "velocity": 0.29133858267716534
        },
        {
          "duration": 0.04651162790702301,
          "durationTicks": 4,
          "midi": 72,
          "name": "C5",
          "ticks": 24625,
          "time": 286.33720930232556,
          "velocity": 0.29133858267716534
        },
        {
          "duration": 0.023255813953483084,
          "durationTicks": 2,
          "midi": 54,
          "name": "F#3",
          "ticks": 24626,
          "time": 286.3488372093023,
          "velocity": 0.49606299212598426
        },
        {
          "duration": 0.43023255813955075,
          "durationTicks": 37,
          "midi": 60,
          "name": "C4",
          "ticks": 24626,
          "time": 286.3488372093023,
          "velocity": 0.41732283464566927
        },
        {
          "duration": 0.08139534883724764,
          "durationTicks": 7,
          "midi": 67,
          "name": "G4",
          "ticks": 24626,
          "time": 286.3488372093023,
          "velocity": 0.2047244094488189
        },
        {
          "duration": 0.25581395348837077,
          "durationTicks": 22,
          "midi": 76,
          "name": "E5",
          "ticks": 24626,
          "time": 286.3488372093023,
          "velocity": 0.2677165354330709
        },
        {
          "duration": 0.24418604651162923,
          "durationTicks": 21,
          "midi": 82,
          "name": "A#5",
          "ticks": 24626,
          "time": 286.3488372093023,
          "velocity": 0.12598425196850394
        },
        {
          "duration": 0.10465116279073072,
          "durationTicks": 9,
          "midi": 86,
          "name": "D6",
          "ticks": 24626,
          "time": 286.3488372093023,
          "velocity": 0.13385826771653545
        },
        {
          "duration": 0.03488372093028147,
          "durationTicks": 3,
          "midi": 48,
          "name": "C3",
          "ticks": 24627,
          "time": 286.36046511627904,
          "velocity": 0.36220472440944884
        },
        {
          "duration": 0.11627906976747227,
          "durationTicks": 10,
          "midi": 74,
          "name": "D5",
          "ticks": 24627,
          "time": 286.36046511627904,
          "velocity": 0.1889763779527559
        },
        {
          "duration": 0.26744186046516916,
          "durationTicks": 23,
          "midi": 55,
          "name": "G3",
          "ticks": 24628,
          "time": 286.3720930232558,
          "velocity": 0.5354330708661418
        },
        {
          "duration": 0.034883720930224626,
          "durationTicks": 3,
          "midi": 83,
          "name": "B5",
          "ticks": 24632,
          "time": 286.4186046511628,
          "velocity": 0.07086614173228346
        },
        {
          "duration": 0.11627906976741542,
          "durationTicks": 10,
          "midi": 95,
          "name": "B6",
          "ticks": 24632,
          "time": 286.4186046511628,
          "velocity": 0.1732283464566929
        },
        {
          "duration": 0.04651162790696617,
          "durationTicks": 4,
          "midi": 48,
          "name": "C3",
          "ticks": 24634,
          "time": 286.4418604651163,
          "velocity": 0.3937007874015748
        },
        {
          "duration": 0.19767441860466306,
          "durationTicks": 17,
          "midi": 74,
          "name": "D5",
          "ticks": 24646,
          "time": 286.5813953488372,
          "velocity": 0.2283464566929134
        },
        {
          "duration": 0.16279069767443843,
          "durationTicks": 14,
          "midi": 79,
          "name": "G5",
          "ticks": 24648,
          "time": 286.6046511627907,
          "velocity": 0.1968503937007874
        },
        {
          "duration": 0.0697674418605061,
          "durationTicks": 6,
          "midi": 94,
          "name": "A#6",
          "ticks": 24649,
          "time": 286.6162790697674,
          "velocity": 0.07874015748031496
        },
        {
          "duration": 0.09302325581393234,
          "durationTicks": 8,
          "midi": 83,
          "name": "B5",
          "ticks": 24651,
          "time": 286.63953488372096,
          "velocity": 0.11023622047244094
        },
        {
          "duration": 0.023255813953483084,
          "durationTicks": 2,
          "midi": 43,
          "name": "G2",
          "ticks": 24652,
          "time": 286.6511627906977,
          "velocity": 0.3937007874015748
        },
        {
          "duration": 0.04651162790696617,
          "durationTicks": 4,
          "midi": 42,
          "name": "F#2",
          "ticks": 24655,
          "time": 286.6860465116279,
          "velocity": 0.3700787401574803
        },
        {
          "duration": 0.05813953488370771,
          "durationTicks": 5,
          "midi": 55,
          "name": "G3",
          "ticks": 24657,
          "time": 286.7093023255814,
          "velocity": 0.2283464566929134
        },
        {
          "duration": 0.05813953488370771,
          "durationTicks": 5,
          "midi": 88,
          "name": "E6",
          "ticks": 24657,
          "time": 286.7093023255814,
          "velocity": 0.12598425196850394
        },
        {
          "duration": 0.06976744186044925,
          "durationTicks": 6,
          "midi": 41,
          "name": "F2",
          "ticks": 24659,
          "time": 286.7325581395349,
          "velocity": 0.33858267716535434
        },
        {
          "duration": 0.05813953488370771,
          "durationTicks": 5,
          "midi": 54,
          "name": "F#3",
          "ticks": 24662,
          "time": 286.7674418604651,
          "velocity": 0.18110236220472442
        },
        {
          "duration": 0.04651162790696617,
          "durationTicks": 4,
          "midi": 59,
          "name": "B3",
          "ticks": 24663,
          "time": 286.77906976744185,
          "velocity": 0.2047244094488189
        },
        {
          "duration": 0.034883720930224626,
          "durationTicks": 3,
          "midi": 60,
          "name": "C4",
          "ticks": 24667,
          "time": 286.8255813953488,
          "velocity": 0.13385826771653545
        },
        {
          "duration": 0.2674418604651123,
          "durationTicks": 23,
          "midi": 60,
          "name": "C4",
          "ticks": 24672,
          "time": 286.8837209302326,
          "velocity": 0.47244094488188976
        },
        {
          "duration": 0.23255813953483084,
          "durationTicks": 20,
          "midi": 76,
          "name": "E5",
          "ticks": 24672,
          "time": 286.8837209302326,
          "velocity": 0.2204724409448819
        },
        {
          "duration": 0.17441860465112313,
          "durationTicks": 15,
          "midi": 86,
          "name": "D6",
          "ticks": 24672,
          "time": 286.8837209302326,
          "velocity": 0.18110236220472442
        },
        {
          "duration": 0.0813953488371908,
          "durationTicks": 7,
          "midi": 79,
          "name": "G5",
          "ticks": 24673,
          "time": 286.8953488372093,
          "velocity": 0.14173228346456693
        },
        {
          "duration": 0.05813953488370771,
          "durationTicks": 5,
          "midi": 83,
          "name": "B5",
          "ticks": 24673,
          "time": 286.8953488372093,
          "velocity": 0.14960629921259844
        },
        {
          "duration": 0.034883720930224626,
          "durationTicks": 3,
          "midi": 99,
          "name": "D#7",
          "ticks": 24673,
          "time": 286.8953488372093,
          "velocity": 0.11023622047244094
        },
        {
          "duration": 0.2674418604651123,
          "durationTicks": 23,
          "midi": 55,
          "name": "G3",
          "ticks": 24674,
          "time": 286.90697674418607,
          "velocity": 0.48031496062992124
        },
        {
          "duration": 0.25581395348837077,
          "durationTicks": 22,
          "midi": 74,
          "name": "D5",
          "ticks": 24674,
          "time": 286.90697674418607,
          "velocity": 0.1968503937007874
        },
        {
          "duration": 0.023255813953483084,
          "durationTicks": 2,
          "midi": 42,
          "name": "F#2",
          "ticks": 24675,
          "time": 286.9186046511628,
          "velocity": 0.33858267716535434
        },
        {
          "duration": 0.034883720930224626,
          "durationTicks": 3,
          "midi": 43,
          "name": "G2",
          "ticks": 24679,
          "time": 286.9651162790698,
          "velocity": 0.3779527559055118
        },
        {
          "duration": 0.19767441860466306,
          "durationTicks": 17,
          "midi": 88,
          "name": "E6",
          "ticks": 24679,
          "time": 286.9651162790698,
          "velocity": 0.2283464566929134
        },
        {
          "duration": 0.05813953488370771,
          "durationTicks": 5,
          "midi": 94,
          "name": "A#6",
          "ticks": 24685,
          "time": 287.0348837209302,
          "velocity": 0.08661417322834646
        },
        {
          "duration": 0.10465116279073072,
          "durationTicks": 9,
          "midi": 83,
          "name": "B5",
          "ticks": 24686,
          "time": 287.04651162790697,
          "velocity": 0.10236220472440945
        },
        {
          "duration": 0.05813953488370771,
          "durationTicks": 5,
          "midi": 60,
          "name": "C4",
          "ticks": 24698,
          "time": 287.1860465116279,
          "velocity": 0.25984251968503935
        },
        {
          "duration": 0.023255813953483084,
          "durationTicks": 2,
          "midi": 54,
          "name": "F#3",
          "ticks": 24699,
          "time": 287.19767441860466,
          "velocity": 0.25984251968503935
        },
        {
          "duration": 0.034883720930224626,
          "durationTicks": 3,
          "midi": 41,
          "name": "F2",
          "ticks": 24701,
          "time": 287.22093023255815,
          "velocity": 0.29133858267716534
        },
        {
          "duration": 0.13953488372095535,
          "durationTicks": 12,
          "midi": 59,
          "name": "B3",
          "ticks": 24705,
          "time": 287.2674418604651,
          "velocity": 0.4251968503937008
        },
        {
          "duration": 0.04651162790696617,
          "durationTicks": 4,
          "midi": 42,
          "name": "F#2",
          "ticks": 24706,
          "time": 287.27906976744185,
          "velocity": 0.4566929133858268
        },
        {
          "duration": 0.2674418604651123,
          "durationTicks": 23,
          "midi": 75,
          "name": "D#5",
          "ticks": 24706,
          "time": 287.27906976744185,
          "velocity": 0.25196850393700787
        },
        {
          "duration": 0.023255813953483084,
          "durationTicks": 2,
          "midi": 51,
          "name": "D#3",
          "ticks": 24709,
          "time": 287.3139534883721,
          "velocity": 0.3228346456692913
        },
        {
          "duration": 0.04651162790702301,
          "durationTicks": 4,
          "midi": 46,
          "name": "A#2",
          "ticks": 24712,
          "time": 287.3488372093023,
          "velocity": 0.3464566929133858
        },
        {
          "duration": 0.1395348837208985,
          "durationTicks": 12,
          "midi": 94,
          "name": "A#6",
          "ticks": 24717,
          "time": 287.40697674418607,
          "velocity": 0.16535433070866143
        },
        {
          "duration": 0.15116279069764005,
          "durationTicks": 13,
          "midi": 42,
          "name": "F#2",
          "ticks": 24718,
          "time": 287.4186046511628,
          "velocity": 0.3779527559055118
        },
        {
          "duration": 0.25581395348837077,
          "durationTicks": 22,
          "midi": 59,
          "name": "B3",
          "ticks": 24718,
          "time": 287.4186046511628,
          "velocity": 0.3937007874015748
        },
        {
          "duration": 0.06976744186044925,
          "durationTicks": 6,
          "midi": 88,
          "name": "E6",
          "ticks": 24718,
          "time": 287.4186046511628,
          "velocity": 0.11811023622047244
        },
        {
          "duration": 0.11627906976741542,
          "durationTicks": 10,
          "midi": 54,
          "name": "F#3",
          "ticks": 24719,
          "time": 287.43023255813955,
          "velocity": 0.48031496062992124
        },
        {
          "duration": 0.05813953488370771,
          "durationTicks": 5,
          "midi": 97,
          "name": "C#7",
          "ticks": 24719,
          "time": 287.43023255813955,
          "velocity": 0.08661417322834646
        },
        {
          "duration": 0.17441860465117998,
          "durationTicks": 15,
          "midi": 83,
          "name": "B5",
          "ticks": 24722,
          "time": 287.4651162790698,
          "velocity": 0.25196850393700787
        },
        {
          "duration": 0.023255813953539928,
          "durationTicks": 2,
          "midi": 42,
          "name": "F#2",
          "ticks": 24734,
          "time": 287.6046511627907,
          "velocity": 0.3543307086614173
        },
        {
          "duration": 0.023255813953483084,
          "durationTicks": 2,
          "midi": 42,
          "name": "F#2",
          "ticks": 24737,
          "time": 287.63953488372096,
          "velocity": 0.33858267716535434
        },
        {
          "duration": 0.023255813953483084,
          "durationTicks": 2,
          "midi": 44,
          "name": "G#2",
          "ticks": 24739,
          "time": 287.66279069767444,
          "velocity": 0.4015748031496063
        },
        {
          "duration": 0.06976744186044925,
          "durationTicks": 6,
          "midi": 54,
          "name": "F#3",
          "ticks": 24741,
          "time": 287.6860465116279,
          "velocity": 0.3779527559055118
        },
        {
          "duration": 0.06976744186044925,
          "durationTicks": 6,
          "midi": 59,
          "name": "B3",
          "ticks": 24742,
          "time": 287.69767441860466,
          "velocity": 0.2125984251968504
        },
        {
          "duration": 0.023255813953483084,
          "durationTicks": 2,
          "midi": 41,
          "name": "F2",
          "ticks": 24743,
          "time": 287.7093023255814,
          "velocity": 0.36220472440944884
        },
        {
          "duration": 0.04651162790696617,
          "durationTicks": 4,
          "midi": 41,
          "name": "F2",
          "ticks": 24746,
          "time": 287.74418604651163,
          "velocity": 0.31496062992125984
        },
        {
          "duration": 0.4186046511628092,
          "durationTicks": 36,
          "midi": 71,
          "name": "B4",
          "ticks": 24750,
          "time": 287.7906976744186,
          "velocity": 0.4251968503937008
        },
        {
          "duration": 0.3837209302325846,
          "durationTicks": 33,
          "midi": 66,
          "name": "F#4",
          "ticks": 24751,
          "time": 287.80232558139534,
          "velocity": 0.33858267716535434
        },
        {
          "duration": 0.13953488372095535,
          "durationTicks": 12,
          "midi": 75,
          "name": "D#5",
          "ticks": 24751,
          "time": 287.80232558139534,
          "velocity": 0.2047244094488189
        },
        {
          "duration": 0.11627906976747227,
          "durationTicks": 10,
          "midi": 81,
          "name": "A5",
          "ticks": 24751,
          "time": 287.80232558139534,
          "velocity": 0.11023622047244094
        },
        {
          "duration": 0.10465116279073072,
          "durationTicks": 9,
          "midi": 59,
          "name": "B3",
          "ticks": 24752,
          "time": 287.8139534883721,
          "velocity": 0.3858267716535433
        },
        {
          "duration": 0.2325581395348877,
          "durationTicks": 20,
          "midi": 94,
          "name": "A#6",
          "ticks": 24752,
          "time": 287.8139534883721,
          "velocity": 0.14960629921259844
        },
        {
          "duration": 0.08139534883724764,
          "durationTicks": 7,
          "midi": 47,
          "name": "B2",
          "ticks": 24754,
          "time": 287.83720930232556,
          "velocity": 0.2755905511811024
        },
        {
          "duration": 0.023255813953483084,
          "durationTicks": 2,
          "midi": 48,
          "name": "C3",
          "ticks": 24762,
          "time": 287.93023255813955,
          "velocity": 0.31496062992125984
        },
        {
          "duration": 0.023255813953483084,
          "durationTicks": 2,
          "midi": 55,
          "name": "G3",
          "ticks": 24762,
          "time": 287.93023255813955,
          "velocity": 0.5039370078740157
        },
        {
          "duration": 0.12790697674415696,
          "durationTicks": 11,
          "midi": 59,
          "name": "B3",
          "ticks": 24762,
          "time": 287.93023255813955,
          "velocity": 0.4251968503937008
        },
        {
          "duration": 0.11627906976741542,
          "durationTicks": 10,
          "midi": 54,
          "name": "F#3",
          "ticks": 24764,
          "time": 287.95348837209303,
          "velocity": 0.49606299212598426
        },
        {
          "duration": 0.023255813953483084,
          "durationTicks": 2,
          "midi": 42,
          "name": "F#2",
          "ticks": 24770,
          "time": 288.0232558139535,
          "velocity": 0.31496062992125984
        },
        {
          "duration": 0.023255813953483084,
          "durationTicks": 2,
          "midi": 47,
          "name": "B2",
          "ticks": 24770,
          "time": 288.0232558139535,
          "velocity": 0.3228346456692913
        },
        {
          "duration": 0.023255813953483084,
          "durationTicks": 2,
          "midi": 42,
          "name": "F#2",
          "ticks": 24773,
          "time": 288.0581395348837,
          "velocity": 0.33070866141732286
        },
        {
          "duration": 0.11627906976747227,
          "durationTicks": 10,
          "midi": 59,
          "name": "B3",
          "ticks": 24774,
          "time": 288.06976744186045,
          "velocity": 0.4015748031496063
        },
        {
          "duration": 0.09302325581398918,
          "durationTicks": 8,
          "midi": 54,
          "name": "F#3",
          "ticks": 24775,
          "time": 288.0813953488372,
          "velocity": 0.48031496062992124
        },
        {
          "duration": 0.034883720930224626,
          "durationTicks": 3,
          "midi": 73,
          "name": "C#5",
          "ticks": 24775,
          "time": 288.0813953488372,
          "velocity": 0.09448818897637795
        },
        {
          "duration": 0.034883720930224626,
          "durationTicks": 3,
          "midi": 44,
          "name": "G#2",
          "ticks": 24783,
          "time": 288.1744186046512,
          "velocity": 0.4015748031496063
        },
        {
          "duration": 0.023255813953483084,
          "durationTicks": 2,
          "midi": 55,
          "name": "G3",
          "ticks": 24783,
          "time": 288.1744186046512,
          "velocity": 0.3858267716535433
        },
        {
          "duration": 0.034883720930224626,
          "durationTicks": 3,
          "midi": 56,
          "name": "G#3",
          "ticks": 24785,
          "time": 288.19767441860466,
          "velocity": 0.4094488188976378
        },
        {
          "duration": 0.04651162790696617,
          "durationTicks": 4,
          "midi": 53,
          "name": "F3",
          "ticks": 24788,
          "time": 288.2325581395349,
          "velocity": 0.30708661417322836
        },
        {
          "duration": 0.034883720930224626,
          "durationTicks": 3,
          "midi": 55,
          "name": "G3",
          "ticks": 24792,
          "time": 288.27906976744185,
          "velocity": 0.3779527559055118
        },
        {
          "duration": 0.023255813953483084,
          "durationTicks": 2,
          "midi": 39,
          "name": "D#2",
          "ticks": 24793,
          "time": 288.2906976744186,
          "velocity": 0.2677165354330709
        },
        {
          "duration": 0.034883720930224626,
          "durationTicks": 3,
          "midi": 93,
          "name": "A6",
          "ticks": 24794,
          "time": 288.30232558139534,
          "velocity": 0.18110236220472442
        },
        {
          "duration": 0.0697674418605061,
          "durationTicks": 6,
          "midi": 71,
          "name": "B4",
          "ticks": 24795,
          "time": 288.3139534883721,
          "velocity": 0.14960629921259844
        },
        {
          "duration": 0.04651162790696617,
          "durationTicks": 4,
          "midi": 57,
          "name": "A3",
          "ticks": 24796,
          "time": 288.3255813953488,
          "velocity": 0.3228346456692913
        },
        {
          "duration": 0.023255813953483084,
          "durationTicks": 2,
          "midi": 44,
          "name": "G#2",
          "ticks": 24797,
          "time": 288.33720930232556,
          "velocity": 0.4645669291338583
        },
        {
          "duration": 0.05813953488370771,
          "durationTicks": 5,
          "midi": 59,
          "name": "B3",
          "ticks": 24801,
          "time": 288.3837209302326,
          "velocity": 0.3228346456692913
        },
        {
          "duration": 0.023255813953483084,
          "durationTicks": 2,
          "midi": 42,
          "name": "F#2",
          "ticks": 24804,
          "time": 288.4186046511628,
          "velocity": 0.33858267716535434
        },
        {
          "duration": 0.5930232558139323,
          "durationTicks": 51,
          "midi": 70,
          "name": "A#4",
          "ticks": 24805,
          "time": 288.43023255813955,
          "velocity": 0.2677165354330709
        },
        {
          "duration": 0.05813953488370771,
          "durationTicks": 5,
          "midi": 74,
          "name": "D5",
          "ticks": 24805,
          "time": 288.43023255813955,
          "velocity": 0.11023622047244094
        },
        {
          "duration": 0.11627906976741542,
          "durationTicks": 10,
          "midi": 84,
          "name": "C6",
          "ticks": 24805,
          "time": 288.43023255813955,
          "velocity": 0.12598425196850394
        },
        {
          "duration": 0.2906976744185954,
          "durationTicks": 25,
          "midi": 87,
          "name": "D#6",
          "ticks": 24805,
          "time": 288.43023255813955,
          "velocity": 0.14173228346456693
        },
        {
          "duration": 0.023255813953483084,
          "durationTicks": 2,
          "midi": 55,
          "name": "G3",
          "ticks": 24806,
          "time": 288.4418604651163,
          "velocity": 0.4881889763779528
        },
        {
          "duration": 0.48837209302325846,
          "durationTicks": 42,
          "midi": 77,
          "name": "F5",
          "ticks": 24806,
          "time": 288.4418604651163,
          "velocity": 0.33070866141732286
        },
        {
          "duration": 0.5116279069767415,
          "durationTicks": 44,
          "midi": 81,
          "name": "A5",
          "ticks": 24806,
          "time": 288.4418604651163,
          "velocity": 0.14960629921259844
        },
        {
          "duration": 0.22093023255814614,
          "durationTicks": 19,
          "midi": 58,
          "name": "A#3",
          "ticks": 24808,
          "time": 288.4651162790698,
          "velocity": 0.33858267716535434
        },
        {
          "duration": 0.05813953488370771,
          "durationTicks": 5,
          "midi": 98,
          "name": "D7",
          "ticks": 24808,
          "time": 288.4651162790698,
          "velocity": 0.16535433070866143
        },
        {
          "duration": 0.023255813953483084,
          "durationTicks": 2,
          "midi": 41,
          "name": "F2",
          "ticks": 24809,
          "time": 288.4767441860465,
          "velocity": 0.2992125984251969
        },
        {
          "duration": 0.22093023255814614,
          "durationTicks": 19,
          "midi": 53,
          "name": "F3",
          "ticks": 24809,
          "time": 288.4767441860465,
          "velocity": 0.3937007874015748
        },
        {
          "duration": 0.17441860465117998,
          "durationTicks": 15,
          "midi": 41,
          "name": "F2",
          "ticks": 24812,
          "time": 288.51162790697674,
          "velocity": 0.3228346456692913
        },
        {
          "duration": 0.3139534883720785,
          "durationTicks": 27,
          "midi": 74,
          "name": "D5",
          "ticks": 24827,
          "time": 288.6860465116279,
          "velocity": 0.33858267716535434
        },
        {
          "duration": 0.023255813953483084,
          "durationTicks": 2,
          "midi": 42,
          "name": "F#2",
          "ticks": 24829,
          "time": 288.7093023255814,
          "velocity": 0.3779527559055118
        },
        {
          "duration": 0.04651162790696617,
          "durationTicks": 4,
          "midi": 55,
          "name": "G3",
          "ticks": 24829,
          "time": 288.7093023255814,
          "velocity": 0.4330708661417323
        },
        {
          "duration": 0.04651162790696617,
          "durationTicks": 4,
          "midi": 79,
          "name": "G5",
          "ticks": 24829,
          "time": 288.7093023255814,
          "velocity": 0.13385826771653545
        },
        {
          "duration": 0.24418604651162923,
          "durationTicks": 21,
          "midi": 65,
          "name": "F4",
          "ticks": 24830,
          "time": 288.72093023255815,
          "velocity": 0.18110236220472442
        },
        {
          "duration": 0.24418604651162923,
          "durationTicks": 21,
          "midi": 58,
          "name": "A#3",
          "ticks": 24832,
          "time": 288.74418604651163,
          "velocity": 0.3779527559055118
        },
        {
          "duration": 0.034883720930224626,
          "durationTicks": 3,
          "midi": 41,
          "name": "F2",
          "ticks": 24833,
          "time": 288.75581395348837,
          "velocity": 0.33070866141732286
        },
        {
          "duration": 0.023255813953483084,
          "durationTicks": 2,
          "midi": 54,
          "name": "F#3",
          "ticks": 24833,
          "time": 288.75581395348837,
          "velocity": 0.25984251968503935
        },
        {
          "duration": 0.023255813953483084,
          "durationTicks": 2,
          "midi": 41,
          "name": "F2",
          "ticks": 24837,
          "time": 288.80232558139534,
          "velocity": 0.3228346456692913
        },
        {
          "duration": 0.17441860465117998,
          "durationTicks": 15,
          "midi": 53,
          "name": "F3",
          "ticks": 24838,
          "time": 288.8139534883721,
          "velocity": 0.4330708661417323
        },
        {
          "duration": 0.023255813953483084,
          "durationTicks": 2,
          "midi": 41,
          "name": "F2",
          "ticks": 24840,
          "time": 288.83720930232556,
          "velocity": 0.3228346456692913
        },
        {
          "duration": 0.023255813953539928,
          "durationTicks": 2,
          "midi": 41,
          "name": "F2",
          "ticks": 24843,
          "time": 288.8720930232558,
          "velocity": 0.31496062992125984
        },
        {
          "duration": 0.023255813953483084,
          "durationTicks": 2,
          "midi": 41,
          "name": "F2",
          "ticks": 24847,
          "time": 288.9186046511628,
          "velocity": 0.30708661417322836
        },
        {
          "duration": 0.05813953488370771,
          "durationTicks": 5,
          "midi": 87,
          "name": "D#6",
          "ticks": 24847,
          "time": 288.9186046511628,
          "velocity": 0.09448818897637795
        },
        {
          "duration": 0.04651162790696617,
          "durationTicks": 4,
          "midi": 66,
          "name": "F#4",
          "ticks": 24851,
          "time": 288.9651162790698,
          "velocity": 0.09448818897637795
        },
        {
          "duration": 0.023255813953483084,
          "durationTicks": 2,
          "midi": 54,
          "name": "F#3",
          "ticks": 24853,
          "time": 288.98837209302326,
          "velocity": 0.49606299212598426
        },
        {
          "duration": 0.034883720930224626,
          "durationTicks": 3,
          "midi": 42,
          "name": "F#2",
          "ticks": 24854,
          "time": 289,
          "velocity": 0.4566929133858268
        },
        {
          "duration": 0.04651162790696617,
          "durationTicks": 4,
          "midi": 58,
          "name": "A#3",
          "ticks": 24854,
          "time": 289,
          "velocity": 0.3858267716535433
        },
        {
          "duration": 0.034883720930224626,
          "durationTicks": 3,
          "midi": 53,
          "name": "F3",
          "ticks": 24855,
          "time": 289.01162790697674,
          "velocity": 0.4645669291338583
        },
        {
          "duration": 0.034883720930224626,
          "durationTicks": 3,
          "midi": 41,
          "name": "F2",
          "ticks": 24857,
          "time": 289.0348837209302,
          "velocity": 0.4330708661417323
        },
        {
          "duration": 0.023255813953483084,
          "durationTicks": 2,
          "midi": 48,
          "name": "C3",
          "ticks": 24858,
          "time": 289.04651162790697,
          "velocity": 0.3543307086614173
        },
        {
          "duration": 0.023255813953483084,
          "durationTicks": 2,
          "midi": 54,
          "name": "F#3",
          "ticks": 24858,
          "time": 289.04651162790697,
          "velocity": 0.4015748031496063
        },
        {
          "duration": 0.05813953488370771,
          "durationTicks": 5,
          "midi": 71,
          "name": "B4",
          "ticks": 24858,
          "time": 289.04651162790697,
          "velocity": 0.14173228346456693
        },
        {
          "duration": 0.023255813953483084,
          "durationTicks": 2,
          "midi": 55,
          "name": "G3",
          "ticks": 24860,
          "time": 289.06976744186045,
          "velocity": 0.4094488188976378
        },
        {
          "duration": 0.034883720930224626,
          "durationTicks": 3,
          "midi": 66,
          "name": "F#4",
          "ticks": 24860,
          "time": 289.06976744186045,
          "velocity": 0.09448818897637795
        },
        {
          "duration": 0.023255813953483084,
          "durationTicks": 2,
          "midi": 58,
          "name": "A#3",
          "ticks": 24861,
          "time": 289.0813953488372,
          "velocity": 0.2755905511811024
        },
        {
          "duration": 0.03488372093028147,
          "durationTicks": 3,
          "midi": 54,
          "name": "F#3",
          "ticks": 24862,
          "time": 289.09302325581393,
          "velocity": 0.31496062992125984
        },
        {
          "duration": 0.023255813953539928,
          "durationTicks": 2,
          "midi": 41,
          "name": "F2",
          "ticks": 24863,
          "time": 289.1046511627907,
          "velocity": 0.5039370078740157
        },
        {
          "duration": 0.023255813953483084,
          "durationTicks": 2,
          "midi": 42,
          "name": "F#2",
          "ticks": 24865,
          "time": 289.1279069767442,
          "velocity": 0.5039370078740157
        },
        {
          "duration": 0.023255813953483084,
          "durationTicks": 2,
          "midi": 52,
          "name": "E3",
          "ticks": 24865,
          "time": 289.1279069767442,
          "velocity": 0.29133858267716534
        },
        {
          "duration": 0.09302325581393234,
          "durationTicks": 8,
          "midi": 41,
          "name": "F2",
          "ticks": 24867,
          "time": 289.1511627906977,
          "velocity": 0.49606299212598426
        },
        {
          "duration": 0.034883720930224626,
          "durationTicks": 3,
          "midi": 54,
          "name": "F#3",
          "ticks": 24870,
          "time": 289.1860465116279,
          "velocity": 0.3464566929133858
        },
        {
          "duration": 0.023255813953483084,
          "durationTicks": 2,
          "midi": 56,
          "name": "G#3",
          "ticks": 24873,
          "time": 289.22093023255815,
          "velocity": 0.4094488188976378
        },
        {
          "duration": 0.3139534883720785,
          "durationTicks": 27,
          "midi": 70,
          "name": "A#4",
          "ticks": 24874,
          "time": 289.2325581395349,
          "velocity": 0.25984251968503935
        },
        {
          "duration": 0.22093023255814614,
          "durationTicks": 19,
          "midi": 77,
          "name": "F5",
          "ticks": 24874,
          "time": 289.2325581395349,
          "velocity": 0.1732283464566929
        },
        {
          "duration": 0.023255813953483084,
          "durationTicks": 2,
          "midi": 42,
          "name": "F#2",
          "ticks": 24875,
          "time": 289.24418604651163,
          "velocity": 0.4645669291338583
        },
        {
          "duration": 0.2325581395348877,
          "durationTicks": 20,
          "midi": 58,
          "name": "A#3",
          "ticks": 24875,
          "time": 289.24418604651163,
          "velocity": 0.4094488188976378
        },
        {
          "duration": 0.2325581395348877,
          "durationTicks": 20,
          "midi": 75,
          "name": "D#5",
          "ticks": 24875,
          "time": 289.24418604651163,
          "velocity": 0.18110236220472442
        },
        {
          "duration": 0.22093023255814614,
          "durationTicks": 19,
          "midi": 81,
          "name": "A5",
          "ticks": 24875,
          "time": 289.24418604651163,
          "velocity": 0.10236220472440945
        },
        {
          "duration": 0.09302325581393234,
          "durationTicks": 8,
          "midi": 84,
          "name": "C6",
          "ticks": 24875,
          "time": 289.24418604651163,
          "velocity": 0.14960629921259844
        },
        {
          "duration": 0.13953488372095535,
          "durationTicks": 12,
          "midi": 53,
          "name": "F3",
          "ticks": 24876,
          "time": 289.25581395348837,
          "velocity": 0.41732283464566927
        },
        {
          "duration": 0.023255813953483084,
          "durationTicks": 2,
          "midi": 41,
          "name": "F2",
          "ticks": 24877,
          "time": 289.2674418604651,
          "velocity": 0.44881889763779526
        },
        {
          "duration": 0.06976744186044925,
          "durationTicks": 6,
          "midi": 41,
          "name": "F2",
          "ticks": 24880,
          "time": 289.30232558139534,
          "velocity": 0.4409448818897638
        },
        {
          "duration": 0.058139534883764554,
          "durationTicks": 5,
          "midi": 100,
          "name": "E7",
          "ticks": 24882,
          "time": 289.3255813953488,
          "velocity": 0.07086614173228346
        },
        {
          "duration": 0.023255813953483084,
          "durationTicks": 2,
          "midi": 41,
          "name": "F2",
          "ticks": 24887,
          "time": 289.3837209302326,
          "velocity": 0.4251968503937008
        },
        {
          "duration": 0.023255813953483084,
          "durationTicks": 2,
          "midi": 41,
          "name": "F2",
          "ticks": 24890,
          "time": 289.4186046511628,
          "velocity": 0.4251968503937008
        },
        {
          "duration": 0.04651162790696617,
          "durationTicks": 4,
          "midi": 41,
          "name": "F2",
          "ticks": 24893,
          "time": 289.45348837209303,
          "velocity": 0.4645669291338583
        },
        {
          "duration": 0.023255813953483084,
          "durationTicks": 2,
          "midi": 51,
          "name": "D#3",
          "ticks": 24895,
          "time": 289.4767441860465,
          "velocity": 0.33070866141732286
        },
        {
          "duration": 0.034883720930224626,
          "durationTicks": 3,
          "midi": 42,
          "name": "F#2",
          "ticks": 24897,
          "time": 289.5,
          "velocity": 0.47244094488188976
        },
        {
          "duration": 0.06976744186044925,
          "durationTicks": 6,
          "midi": 53,
          "name": "F3",
          "ticks": 24898,
          "time": 289.51162790697674,
          "velocity": 0.5118110236220472
        },
        {
          "duration": 0.04651162790696617,
          "durationTicks": 4,
          "midi": 60,
          "name": "C4",
          "ticks": 24902,
          "time": 289.5581395348837,
          "velocity": 0.1889763779527559
        },
        {
          "duration": 0.08139534883724764,
          "durationTicks": 7,
          "midi": 66,
          "name": "F#4",
          "ticks": 24906,
          "time": 289.6046511627907,
          "velocity": 0.12598425196850394
        },
        {
          "duration": 0.03488372093028147,
          "durationTicks": 3,
          "midi": 42,
          "name": "F#2",
          "ticks": 24907,
          "time": 289.6162790697674,
          "velocity": 0.3937007874015748
        },
        {
          "duration": 0.023255813953539928,
          "durationTicks": 2,
          "midi": 60,
          "name": "C4",
          "ticks": 24907,
          "time": 289.6162790697674,
          "velocity": 0.23622047244094488
        },
        {
          "duration": 0.023255813953483084,
          "durationTicks": 2,
          "midi": 41,
          "name": "F2",
          "ticks": 24910,
          "time": 289.6511627906977,
          "velocity": 0.44881889763779526
        },
        {
          "duration": 0.023255813953483084,
          "durationTicks": 2,
          "midi": 42,
          "name": "F#2",
          "ticks": 24912,
          "time": 289.6744186046512,
          "velocity": 0.4566929133858268
        },
        {
          "duration": 0.05813953488370771,
          "durationTicks": 5,
          "midi": 58,
          "name": "A#3",
          "ticks": 24912,
          "time": 289.6744186046512,
          "velocity": 0.3700787401574803
        },
        {
          "duration": 0.034883720930224626,
          "durationTicks": 3,
          "midi": 53,
          "name": "F3",
          "ticks": 24913,
          "time": 289.6860465116279,
          "velocity": 0.2992125984251969
        },
        {
          "duration": 0.18604651162792152,
          "durationTicks": 16,
          "midi": 41,
          "name": "F2",
          "ticks": 24915,
          "time": 289.7093023255814,
          "velocity": 0.4566929133858268
        },
        {
          "duration": 0.023255813953483084,
          "durationTicks": 2,
          "midi": 60,
          "name": "C4",
          "ticks": 24917,
          "time": 289.7325581395349,
          "velocity": 0.25984251968503935
        },
        {
          "duration": 0.023255813953483084,
          "durationTicks": 2,
          "midi": 52,
          "name": "E3",
          "ticks": 24918,
          "time": 289.74418604651163,
          "velocity": 0.28346456692913385
        },
        {
          "duration": 0.27906976744185386,
          "durationTicks": 24,
          "midi": 77,
          "name": "F5",
          "ticks": 24918,
          "time": 289.74418604651163,
          "velocity": 0.2992125984251969
        },
        {
          "duration": 0.04651162790696617,
          "durationTicks": 4,
          "midi": 98,
          "name": "D7",
          "ticks": 24918,
          "time": 289.74418604651163,
          "velocity": 0.1889763779527559
        },
        {
          "duration": 0.2674418604651123,
          "durationTicks": 23,
          "midi": 65,
          "name": "F4",
          "ticks": 24919,
          "time": 289.75581395348837,
          "velocity": 0.25984251968503935
        },
        {
          "duration": 0.05813953488370771,
          "durationTicks": 5,
          "midi": 70,
          "name": "A#4",
          "ticks": 24919,
          "time": 289.75581395348837,
          "velocity": 0.2125984251968504
        },
        {
          "duration": 0.24418604651162923,
          "durationTicks": 21,
          "midi": 58,
          "name": "A#3",
          "ticks": 24920,
          "time": 289.7674418604651,
          "velocity": 0.3779527559055118
        },
        {
          "duration": 0.17441860465117998,
          "durationTicks": 15,
          "midi": 74,
          "name": "D5",
          "ticks": 24920,
          "time": 289.7674418604651,
          "velocity": 0.08661417322834646
        },
        {
          "duration": 0.2325581395348877,
          "durationTicks": 20,
          "midi": 81,
          "name": "A5",
          "ticks": 24920,
          "time": 289.7674418604651,
          "velocity": 0.11811023622047244
        },
        {
          "duration": 0.06976744186044925,
          "durationTicks": 6,
          "midi": 84,
          "name": "C6",
          "ticks": 24920,
          "time": 289.7674418604651,
          "velocity": 0.13385826771653545
        },
        {
          "duration": 0.05813953488370771,
          "durationTicks": 5,
          "midi": 80,
          "name": "G#5",
          "ticks": 24921,
          "time": 289.77906976744185,
          "velocity": 0.12598425196850394
        },
        {
          "duration": 0.13953488372095535,
          "durationTicks": 12,
          "midi": 87,
          "name": "D#6",
          "ticks": 24921,
          "time": 289.77906976744185,
          "velocity": 0.14960629921259844
        },
        {
          "duration": 0.17441860465117998,
          "durationTicks": 15,
          "midi": 72,
          "name": "C5",
          "ticks": 24925,
          "time": 289.8255813953488,
          "velocity": 0.11811023622047244
        },
        {
          "duration": 0.04651162790696617,
          "durationTicks": 4,
          "midi": 98,
          "name": "D7",
          "ticks": 24925,
          "time": 289.8255813953488,
          "velocity": 0.16535433070866143
        },
        {
          "duration": 0.023255813953483084,
          "durationTicks": 2,
          "midi": 41,
          "name": "F2",
          "ticks": 24932,
          "time": 289.90697674418607,
          "velocity": 0.4251968503937008
        },
        {
          "duration": 0.023255813953483084,
          "durationTicks": 2,
          "midi": 41,
          "name": "F2",
          "ticks": 24935,
          "time": 289.9418604651163,
          "velocity": 0.4251968503937008
        },
        {
          "duration": 0.023255813953483084,
          "durationTicks": 2,
          "midi": 41,
          "name": "F2",
          "ticks": 24938,
          "time": 289.9767441860465,
          "velocity": 0.41732283464566927
        },
        {
          "duration": 0.034883720930224626,
          "durationTicks": 3,
          "midi": 41,
          "name": "F2",
          "ticks": 24941,
          "time": 290.01162790697674,
          "velocity": 0.44881889763779526
        },
        {
          "duration": 0.023255813953483084,
          "durationTicks": 2,
          "midi": 42,
          "name": "F#2",
          "ticks": 24944,
          "time": 290.04651162790697,
          "velocity": 0.3937007874015748
        },
        {
          "duration": 0.06976744186044925,
          "durationTicks": 6,
          "midi": 53,
          "name": "F3",
          "ticks": 24944,
          "time": 290.04651162790697,
          "velocity": 0.5196850393700787
        },
        {
          "duration": 0.03488372093028147,
          "durationTicks": 3,
          "midi": 58,
          "name": "A#3",
          "ticks": 24948,
          "time": 290.09302325581393,
          "velocity": 0.25984251968503935
        },
        {
          "duration": 0.058139534883764554,
          "durationTicks": 5,
          "midi": 51,
          "name": "D#3",
          "ticks": 24950,
          "time": 290.1162790697674,
          "velocity": 0.33070866141732286
        },
        {
          "duration": 0.034883720930224626,
          "durationTicks": 3,
          "midi": 57,
          "name": "A3",
          "ticks": 24951,
          "time": 290.1279069767442,
          "velocity": 0.25196850393700787
        },
        {
          "duration": 0.023255813953483084,
          "durationTicks": 2,
          "midi": 40,
          "name": "E2",
          "ticks": 24952,
          "time": 290.13953488372096,
          "velocity": 0.3228346456692913
        },
        {
          "duration": 0.034883720930224626,
          "durationTicks": 3,
          "midi": 66,
          "name": "F#4",
          "ticks": 24953,
          "time": 290.1511627906977,
          "velocity": 0.11023622047244094
        },
        {
          "duration": 0.04651162790696617,
          "durationTicks": 4,
          "midi": 41,
          "name": "F2",
          "ticks": 24954,
          "time": 290.16279069767444,
          "velocity": 0.4409448818897638
        },
        {
          "duration": 0.023255813953483084,
          "durationTicks": 2,
          "midi": 52,
          "name": "E3",
          "ticks": 24955,
          "time": 290.1744186046512,
          "velocity": 0.3543307086614173
        },
        {
          "duration": 0.034883720930224626,
          "durationTicks": 3,
          "midi": 54,
          "name": "F#3",
          "ticks": 24959,
          "time": 290.22093023255815,
          "velocity": 0.4251968503937008
        },
        {
          "duration": 0.04651162790696617,
          "durationTicks": 4,
          "midi": 58,
          "name": "A#3",
          "ticks": 24960,
          "time": 290.2325581395349,
          "velocity": 0.2755905511811024
        },
        {
          "duration": 0.06976744186044925,
          "durationTicks": 6,
          "midi": 41,
          "name": "F2",
          "ticks": 24961,
          "time": 290.24418604651163,
          "velocity": 0.4409448818897638
        },
        {
          "duration": 0.11627906976747227,
          "durationTicks": 10,
          "midi": 74,
          "name": "D5",
          "ticks": 24964,
          "time": 290.27906976744185,
          "velocity": 0.08661417322834646
        },
        {
          "duration": 0.17441860465117998,
          "durationTicks": 15,
          "midi": 58,
          "name": "A#3",
          "ticks": 24965,
          "time": 290.2906976744186,
          "velocity": 0.4566929133858268
        },
        {
          "duration": 0.034883720930224626,
          "durationTicks": 3,
          "midi": 66,
          "name": "F#4",
          "ticks": 24965,
          "time": 290.2906976744186,
          "velocity": 0.14960629921259844
        },
        {
          "duration": 0.0813953488371908,
          "durationTicks": 7,
          "midi": 77,
          "name": "F5",
          "ticks": 24965,
          "time": 290.2906976744186,
          "velocity": 0.1889763779527559
        },
        {
          "duration": 0.13953488372095535,
          "durationTicks": 12,
          "midi": 81,
          "name": "A5",
          "ticks": 24965,
          "time": 290.2906976744186,
          "velocity": 0.15748031496062992
        },
        {
          "duration": 0.11627906976747227,
          "durationTicks": 10,
          "midi": 98,
          "name": "D7",
          "ticks": 24965,
          "time": 290.2906976744186,
          "velocity": 0.1732283464566929
        },
        {
          "duration": 0.1279069767442138,
          "durationTicks": 11,
          "midi": 87,
          "name": "D#6",
          "ticks": 24967,
          "time": 290.3139534883721,
          "velocity": 0.11811023622047244
        },
        {
          "duration": 0.023255813953483084,
          "durationTicks": 2,
          "midi": 41,
          "name": "F2",
          "ticks": 24968,
          "time": 290.3255813953488,
          "velocity": 0.44881889763779526
        },
        {
          "duration": 0.11627906976747227,
          "durationTicks": 10,
          "midi": 89,
          "name": "F6",
          "ticks": 24970,
          "time": 290.3488372093023,
          "velocity": 0.2047244094488189
        },
        {
          "duration": 0.1511627906976969,
          "durationTicks": 13,
          "midi": 41,
          "name": "F2",
          "ticks": 24971,
          "time": 290.36046511627904,
          "velocity": 0.4330708661417323
        },
        {
          "duration": 0.034883720930224626,
          "durationTicks": 3,
          "midi": 54,
          "name": "F#3",
          "ticks": 24982,
          "time": 290.48837209302326,
          "velocity": 0.4645669291338583
        },
        {
          "duration": 0.023255813953483084,
          "durationTicks": 2,
          "midi": 42,
          "name": "F#2",
          "ticks": 24984,
          "time": 290.51162790697674,
          "velocity": 0.3858267716535433
        },
        {
          "duration": 0.034883720930224626,
          "durationTicks": 3,
          "midi": 61,
          "name": "C#4",
          "ticks": 24984,
          "time": 290.51162790697674,
          "velocity": 0.2440944881889764
        },
        {
          "duration": 0.023255813953483084,
          "durationTicks": 2,
          "midi": 55,
          "name": "G3",
          "ticks": 24985,
          "time": 290.5232558139535,
          "velocity": 0.48031496062992124
        },
        {
          "duration": 0.023255813953483084,
          "durationTicks": 2,
          "midi": 54,
          "name": "F#3",
          "ticks": 24987,
          "time": 290.54651162790697,
          "velocity": 0.49606299212598426
        },
        {
          "duration": 0.37209302325584304,
          "durationTicks": 32,
          "midi": 74,
          "name": "D5",
          "ticks": 24987,
          "time": 290.54651162790697,
          "velocity": 0.25196850393700787
        },
        {
          "duration": 0.034883720930224626,
          "durationTicks": 3,
          "midi": 81,
          "name": "A5",
          "ticks": 24987,
          "time": 290.54651162790697,
          "velocity": 0.12598425196850394
        },
        {
          "duration": 0.023255813953483084,
          "durationTicks": 2,
          "midi": 60,
          "name": "C4",
          "ticks": 24988,
          "time": 290.5581395348837,
          "velocity": 0.3464566929133858
        },
        {
          "duration": 0.24418604651162923,
          "durationTicks": 21,
          "midi": 55,
          "name": "G3",
          "ticks": 24989,
          "time": 290.56976744186045,
          "velocity": 0.5826771653543307
        },
        {
          "duration": 0.2674418604651123,
          "durationTicks": 23,
          "midi": 72,
          "name": "C5",
          "ticks": 24989,
          "time": 290.56976744186045,
          "velocity": 0.3543307086614173
        },
        {
          "duration": 0.2093023255814046,
          "durationTicks": 18,
          "midi": 60,
          "name": "C4",
          "ticks": 24991,
          "time": 290.59302325581393,
          "velocity": 0.4251968503937008
        },
        {
          "duration": 0.24418604651162923,
          "durationTicks": 21,
          "midi": 79,
          "name": "G5",
          "ticks": 25000,
          "time": 290.69767441860466,
          "velocity": 0.2047244094488189
        },
        {
          "duration": 0.04651162790696617,
          "durationTicks": 4,
          "midi": 76,
          "name": "E5",
          "ticks": 25006,
          "time": 290.7674418604651,
          "velocity": 0.07874015748031496
        },
        {
          "duration": 0.04651162790696617,
          "durationTicks": 4,
          "midi": 83,
          "name": "B5",
          "ticks": 25006,
          "time": 290.7674418604651,
          "velocity": 0.10236220472440945
        },
        {
          "duration": 0.034883720930224626,
          "durationTicks": 3,
          "midi": 43,
          "name": "G2",
          "ticks": 25008,
          "time": 290.7906976744186,
          "velocity": 0.33070866141732286
        },
        {
          "duration": 0.034883720930224626,
          "durationTicks": 3,
          "midi": 82,
          "name": "A#5",
          "ticks": 25009,
          "time": 290.80232558139534,
          "velocity": 0.12598425196850394
        },
        {
          "duration": 0.04651162790696617,
          "durationTicks": 4,
          "midi": 56,
          "name": "G#3",
          "ticks": 25010,
          "time": 290.8139534883721,
          "velocity": 0.4251968503937008
        },
        {
          "duration": 0.034883720930224626,
          "durationTicks": 3,
          "midi": 77,
          "name": "F5",
          "ticks": 25011,
          "time": 290.8255813953488,
          "velocity": 0.09448818897637795
        },
        {
          "duration": 0.2325581395348877,
          "durationTicks": 20,
          "midi": 60,
          "name": "C4",
          "ticks": 25012,
          "time": 290.83720930232556,
          "velocity": 0.3937007874015748
        },
        {
          "duration": 0.18604651162792152,
          "durationTicks": 16,
          "midi": 83,
          "name": "B5",
          "ticks": 25013,
          "time": 290.8488372093023,
          "velocity": 0.12598425196850394
        },
        {
          "duration": 0.0697674418605061,
          "durationTicks": 6,
          "midi": 55,
          "name": "G3",
          "ticks": 25014,
          "time": 290.86046511627904,
          "velocity": 0.30708661417322836
        },
        {
          "duration": 0.023255813953539928,
          "durationTicks": 2,
          "midi": 43,
          "name": "G2",
          "ticks": 25015,
          "time": 290.8720930232558,
          "velocity": 0.3937007874015748
        },
        {
          "duration": 0.034883720930224626,
          "durationTicks": 3,
          "midi": 88,
          "name": "E6",
          "ticks": 25016,
          "time": 290.8837209302326,
          "velocity": 0.11023622047244094
        },
        {
          "duration": 0.04651162790696617,
          "durationTicks": 4,
          "midi": 43,
          "name": "G2",
          "ticks": 25018,
          "time": 290.90697674418607,
          "velocity": 0.3858267716535433
        },
        {
          "duration": 0.15116279069764005,
          "durationTicks": 13,
          "midi": 76,
          "name": "E5",
          "ticks": 25019,
          "time": 290.9186046511628,
          "velocity": 0.15748031496062992
        },
        {
          "duration": 0.023255813953483084,
          "durationTicks": 2,
          "midi": 43,
          "name": "G2",
          "ticks": 25023,
          "time": 290.9651162790698,
          "velocity": 0.4094488188976378
        },
        {
          "duration": 0.034883720930224626,
          "durationTicks": 3,
          "midi": 43,
          "name": "G2",
          "ticks": 25027,
          "time": 291.01162790697674,
          "velocity": 0.4094488188976378
        },
        {
          "duration": 0.03488372093028147,
          "durationTicks": 3,
          "midi": 44,
          "name": "G#2",
          "ticks": 25034,
          "time": 291.09302325581393,
          "velocity": 0.4409448818897638
        },
        {
          "duration": 0.08139534883724764,
          "durationTicks": 7,
          "midi": 55,
          "name": "G3",
          "ticks": 25034,
          "time": 291.09302325581393,
          "velocity": 0.48031496062992124
        },
        {
          "duration": 0.023255813953539928,
          "durationTicks": 2,
          "midi": 61,
          "name": "C#4",
          "ticks": 25035,
          "time": 291.1046511627907,
          "velocity": 0.28346456692913385
        },
        {
          "duration": 0.023255813953483084,
          "durationTicks": 2,
          "midi": 45,
          "name": "A2",
          "ticks": 25038,
          "time": 291.13953488372096,
          "velocity": 0.3858267716535433
        },
        {
          "duration": 0.034883720930224626,
          "durationTicks": 3,
          "midi": 62,
          "name": "D4",
          "ticks": 25039,
          "time": 291.1511627906977,
          "velocity": 0.18110236220472442
        },
        {
          "duration": 0.034883720930224626,
          "durationTicks": 3,
          "midi": 55,
          "name": "G3",
          "ticks": 25044,
          "time": 291.2093023255814,
          "velocity": 0.25196850393700787
        },
        {
          "duration": 0.023255813953483084,
          "durationTicks": 2,
          "midi": 44,
          "name": "G#2",
          "ticks": 25046,
          "time": 291.2325581395349,
          "velocity": 0.47244094488188976
        },
        {
          "duration": 0.034883720930224626,
          "durationTicks": 3,
          "midi": 54,
          "name": "F#3",
          "ticks": 25047,
          "time": 291.24418604651163,
          "velocity": 0.4094488188976378
        },
        {
          "duration": 0.04651162790696617,
          "durationTicks": 4,
          "midi": 72,
          "name": "C5",
          "ticks": 25047,
          "time": 291.24418604651163,
          "velocity": 0.13385826771653545
        },
        {
          "duration": 0.034883720930224626,
          "durationTicks": 3,
          "midi": 74,
          "name": "D5",
          "ticks": 25047,
          "time": 291.24418604651163,
          "velocity": 0.09448818897637795
        },
        {
          "duration": 0.034883720930224626,
          "durationTicks": 3,
          "midi": 67,
          "name": "G4",
          "ticks": 25048,
          "time": 291.25581395348837,
          "velocity": 0.10236220472440945
        },
        {
          "duration": 0.023255813953483084,
          "durationTicks": 2,
          "midi": 61,
          "name": "C#4",
          "ticks": 25049,
          "time": 291.2674418604651,
          "velocity": 0.25984251968503935
        },
        {
          "duration": 0.034883720930224626,
          "durationTicks": 3,
          "midi": 55,
          "name": "G3",
          "ticks": 25050,
          "time": 291.27906976744185,
          "velocity": 0.4015748031496063
        },
        {
          "duration": 0.04651162790696617,
          "durationTicks": 4,
          "midi": 43,
          "name": "G2",
          "ticks": 25051,
          "time": 291.2906976744186,
          "velocity": 0.44881889763779526
        },
        {
          "duration": 0.034883720930224626,
          "durationTicks": 3,
          "midi": 60,
          "name": "C4",
          "ticks": 25051,
          "time": 291.2906976744186,
          "velocity": 0.25984251968503935
        },
        {
          "duration": 0.27906976744185386,
          "durationTicks": 24,
          "midi": 72,
          "name": "C5",
          "ticks": 25054,
          "time": 291.3255813953488,
          "velocity": 0.3937007874015748
        },
        {
          "duration": 0.27906976744185386,
          "durationTicks": 24,
          "midi": 60,
          "name": "C4",
          "ticks": 25055,
          "time": 291.33720930232556,
          "velocity": 0.49606299212598426
        },
        {
          "duration": 0.24418604651162923,
          "durationTicks": 21,
          "midi": 79,
          "name": "G5",
          "ticks": 25055,
          "time": 291.33720930232556,
          "velocity": 0.2125984251968504
        },
        {
          "duration": 0.25581395348837077,
          "durationTicks": 22,
          "midi": 83,
          "name": "B5",
          "ticks": 25055,
          "time": 291.33720930232556,
          "velocity": 0.2204724409448819
        },
        {
          "duration": 0.2674418604651123,
          "durationTicks": 23,
          "midi": 88,
          "name": "E6",
          "ticks": 25055,
          "time": 291.33720930232556,
          "velocity": 0.2204724409448819
        },
        {
          "duration": 0.03488372093028147,
          "durationTicks": 3,
          "midi": 43,
          "name": "G2",
          "ticks": 25056,
          "time": 291.3488372093023,
          "velocity": 0.4094488188976378
        },
        {
          "duration": 0.2209302325580893,
          "durationTicks": 19,
          "midi": 74,
          "name": "D5",
          "ticks": 25060,
          "time": 291.3953488372093,
          "velocity": 0.1732283464566929
        },
        {
          "duration": 0.023255813953483084,
          "durationTicks": 2,
          "midi": 43,
          "name": "G2",
          "ticks": 25061,
          "time": 291.40697674418607,
          "velocity": 0.4015748031496063
        },
        {
          "duration": 0.023255813953483084,
          "durationTicks": 2,
          "midi": 43,
          "name": "G2",
          "ticks": 25069,
          "time": 291.5,
          "velocity": 0.4251968503937008
        },
        {
          "duration": 0.04651162790702301,
          "durationTicks": 4,
          "midi": 71,
          "name": "B4",
          "ticks": 25078,
          "time": 291.6046511627907,
          "velocity": 0.2283464566929134
        },
        {
          "duration": 0.16279069767443843,
          "durationTicks": 14,
          "midi": 55,
          "name": "G3",
          "ticks": 25079,
          "time": 291.6162790697674,
          "velocity": 0.5669291338582677
        },
        {
          "duration": 0.023255813953483084,
          "durationTicks": 2,
          "midi": 45,
          "name": "A2",
          "ticks": 25080,
          "time": 291.6279069767442,
          "velocity": 0.3700787401574803
        },
        {
          "duration": 0.06976744186044925,
          "durationTicks": 6,
          "midi": 60,
          "name": "C4",
          "ticks": 25080,
          "time": 291.6279069767442,
          "velocity": 0.33070866141732286
        },
        {
          "duration": 0.04651162790696617,
          "durationTicks": 4,
          "midi": 43,
          "name": "G2",
          "ticks": 25082,
          "time": 291.6511627906977,
          "velocity": 0.4330708661417323
        },
        {
          "duration": 0.04651162790696617,
          "durationTicks": 4,
          "midi": 74,
          "name": "D5",
          "ticks": 25085,
          "time": 291.6860465116279,
          "velocity": 0.1732283464566929
        },
        {
          "duration": 0.023255813953483084,
          "durationTicks": 2,
          "midi": 42,
          "name": "F#2",
          "ticks": 25086,
          "time": 291.69767441860466,
          "velocity": 0.41732283464566927
        },
        {
          "duration": 0.023255813953483084,
          "durationTicks": 2,
          "midi": 60,
          "name": "C4",
          "ticks": 25087,
          "time": 291.7093023255814,
          "velocity": 0.2440944881889764
        },
        {
          "duration": 0.034883720930224626,
          "durationTicks": 3,
          "midi": 71,
          "name": "B4",
          "ticks": 25088,
          "time": 291.72093023255815,
          "velocity": 0.11811023622047244
        },
        {
          "duration": 0.034883720930224626,
          "durationTicks": 3,
          "midi": 43,
          "name": "G2",
          "ticks": 25092,
          "time": 291.7674418604651,
          "velocity": 0.49606299212598426
        },
        {
          "duration": 0.04651162790696617,
          "durationTicks": 4,
          "midi": 56,
          "name": "G#3",
          "ticks": 25093,
          "time": 291.77906976744185,
          "velocity": 0.3228346456692913
        },
        {
          "duration": 0.05813953488370771,
          "durationTicks": 5,
          "midi": 60,
          "name": "C4",
          "ticks": 25093,
          "time": 291.77906976744185,
          "velocity": 0.29133858267716534
        },
        {
          "duration": 0.04651162790696617,
          "durationTicks": 4,
          "midi": 43,
          "name": "G2",
          "ticks": 25096,
          "time": 291.8139534883721,
          "velocity": 0.49606299212598426
        },
        {
          "duration": 0.023255813953539928,
          "durationTicks": 2,
          "midi": 44,
          "name": "G#2",
          "ticks": 25100,
          "time": 291.86046511627904,
          "velocity": 0.44881889763779526
        },
        {
          "duration": 0.22093023255814614,
          "durationTicks": 19,
          "midi": 60,
          "name": "C4",
          "ticks": 25100,
          "time": 291.86046511627904,
          "velocity": 0.33070866141732286
        },
        {
          "duration": 0.24418604651162923,
          "durationTicks": 21,
          "midi": 67,
          "name": "G4",
          "ticks": 25100,
          "time": 291.86046511627904,
          "velocity": 0.1732283464566929
        },
        {
          "duration": 0.22093023255814614,
          "durationTicks": 19,
          "midi": 55,
          "name": "G3",
          "ticks": 25101,
          "time": 291.8720930232558,
          "velocity": 0.33070866141732286
        },
        {
          "duration": 0.2325581395348877,
          "durationTicks": 20,
          "midi": 88,
          "name": "E6",
          "ticks": 25101,
          "time": 291.8720930232558,
          "velocity": 0.1968503937007874
        },
        {
          "duration": 0.023255813953483084,
          "durationTicks": 2,
          "midi": 43,
          "name": "G2",
          "ticks": 25102,
          "time": 291.8837209302326,
          "velocity": 0.4566929133858268
        },
        {
          "duration": 0.20930232558134776,
          "durationTicks": 18,
          "midi": 83,
          "name": "B5",
          "ticks": 25103,
          "time": 291.8953488372093,
          "velocity": 0.14960629921259844
        },
        {
          "duration": 0.023255813953483084,
          "durationTicks": 2,
          "midi": 43,
          "name": "G2",
          "ticks": 25106,
          "time": 291.93023255813955,
          "velocity": 0.4566929133858268
        },
        {
          "duration": 0.023255813953483084,
          "durationTicks": 2,
          "midi": 43,
          "name": "G2",
          "ticks": 25114,
          "time": 292.0232558139535,
          "velocity": 0.48031496062992124
        },
        {
          "duration": 0.03488372093028147,
          "durationTicks": 3,
          "midi": 56,
          "name": "G#3",
          "ticks": 25120,
          "time": 292.09302325581393,
          "velocity": 0.47244094488188976
        },
        {
          "duration": 0.023255813953539928,
          "durationTicks": 2,
          "midi": 44,
          "name": "G#2",
          "ticks": 25121,
          "time": 292.1046511627907,
          "velocity": 0.4881889763779528
        },
        {
          "duration": 0.04651162790702301,
          "durationTicks": 4,
          "midi": 60,
          "name": "C4",
          "ticks": 25122,
          "time": 292.1162790697674,
          "velocity": 0.2992125984251969
        },
        {
          "duration": 0.04651162790702301,
          "durationTicks": 4,
          "midi": 71,
          "name": "B4",
          "ticks": 25122,
          "time": 292.1162790697674,
          "velocity": 0.2440944881889764
        },
        {
          "duration": 0.09302325581393234,
          "durationTicks": 8,
          "midi": 55,
          "name": "G3",
          "ticks": 25123,
          "time": 292.1279069767442,
          "velocity": 0.5984251968503937
        },
        {
          "duration": 0.023255813953483084,
          "durationTicks": 2,
          "midi": 42,
          "name": "F#2",
          "ticks": 25128,
          "time": 292.1860465116279,
          "velocity": 0.2677165354330709
        },
        {
          "duration": 0.023255813953483084,
          "durationTicks": 2,
          "midi": 61,
          "name": "C#4",
          "ticks": 25129,
          "time": 292.19767441860466,
          "velocity": 0.2283464566929134
        },
        {
          "duration": 0.04651162790696617,
          "durationTicks": 4,
          "midi": 55,
          "name": "G3",
          "ticks": 25132,
          "time": 292.2325581395349,
          "velocity": 0.4645669291338583
        },
        {
          "duration": 0.034883720930224626,
          "durationTicks": 3,
          "midi": 42,
          "name": "F#2",
          "ticks": 25133,
          "time": 292.24418604651163,
          "velocity": 0.41732283464566927
        },
        {
          "duration": 0.2906976744185954,
          "durationTicks": 25,
          "midi": 74,
          "name": "D5",
          "ticks": 25133,
          "time": 292.24418604651163,
          "velocity": 0.25196850393700787
        },
        {
          "duration": 0.023255813953483084,
          "durationTicks": 2,
          "midi": 61,
          "name": "C#4",
          "ticks": 25136,
          "time": 292.27906976744185,
          "velocity": 0.2755905511811024
        },
        {
          "duration": 0.06976744186044925,
          "durationTicks": 6,
          "midi": 72,
          "name": "C5",
          "ticks": 25136,
          "time": 292.27906976744185,
          "velocity": 0.1968503937007874
        },
        {
          "duration": 0.2906976744185954,
          "durationTicks": 25,
          "midi": 55,
          "name": "G3",
          "ticks": 25137,
          "time": 292.2906976744186,
          "velocity": 0.5984251968503937
        },
        {
          "duration": 0.023255813953483084,
          "durationTicks": 2,
          "midi": 43,
          "name": "G2",
          "ticks": 25140,
          "time": 292.3255813953488,
          "velocity": 0.30708661417322836
        },
        {
          "duration": 0.023255813953539928,
          "durationTicks": 2,
          "midi": 42,
          "name": "F#2",
          "ticks": 25143,
          "time": 292.36046511627904,
          "velocity": 0.29133858267716534
        },
        {
          "duration": 0.16279069767443843,
          "durationTicks": 14,
          "midi": 88,
          "name": "E6",
          "ticks": 25143,
          "time": 292.36046511627904,
          "velocity": 0.14960629921259844
        },
        {
          "duration": 0.023255813953539928,
          "durationTicks": 2,
          "midi": 60,
          "name": "C4",
          "ticks": 25144,
          "time": 292.3720930232558,
          "velocity": 0.28346456692913385
        },
        {
          "duration": 0.1511627906976969,
          "durationTicks": 13,
          "midi": 72,
          "name": "C5",
          "ticks": 25144,
          "time": 292.3720930232558,
          "velocity": 0.3228346456692913
        },
        {
          "duration": 0.1395348837208985,
          "durationTicks": 12,
          "midi": 76,
          "name": "E5",
          "ticks": 25145,
          "time": 292.3837209302326,
          "velocity": 0.12598425196850394
        },
        {
          "duration": 0.09302325581393234,
          "durationTicks": 8,
          "midi": 83,
          "name": "B5",
          "ticks": 25145,
          "time": 292.3837209302326,
          "velocity": 0.1732283464566929
        },
        {
          "duration": 0.15116279069764005,
          "durationTicks": 13,
          "midi": 60,
          "name": "C4",
          "ticks": 25147,
          "time": 292.40697674418607,
          "velocity": 0.3700787401574803
        },
        {
          "duration": 0.023255813953483084,
          "durationTicks": 2,
          "midi": 42,
          "name": "F#2",
          "ticks": 25152,
          "time": 292.4651162790698,
          "velocity": 0.33070866141732286
        },
        {
          "duration": 0.05813953488370771,
          "durationTicks": 5,
          "midi": 48,
          "name": "C3",
          "ticks": 25155,
          "time": 292.5,
          "velocity": 0.3464566929133858
        },
        {
          "duration": 0.04651162790696617,
          "durationTicks": 4,
          "midi": 71,
          "name": "B4",
          "ticks": 25157,
          "time": 292.5232558139535,
          "velocity": 0.2204724409448819
        },
        {
          "duration": 0.023255813953483084,
          "durationTicks": 2,
          "midi": 49,
          "name": "C#3",
          "ticks": 25160,
          "time": 292.5581395348837,
          "velocity": 0.33858267716535434
        },
        {
          "duration": 0.034883720930224626,
          "durationTicks": 3,
          "midi": 40,
          "name": "E2",
          "ticks": 25161,
          "time": 292.56976744186045,
          "velocity": 0.2440944881889764
        },
        {
          "duration": 0.023255813953483084,
          "durationTicks": 2,
          "midi": 62,
          "name": "D4",
          "ticks": 25163,
          "time": 292.59302325581393,
          "velocity": 0.30708661417322836
        },
        {
          "duration": 0.7209302325581461,
          "durationTicks": 62,
          "midi": 74,
          "name": "D5",
          "ticks": 25163,
          "time": 292.59302325581393,
          "velocity": 0.3543307086614173
        },
        {
          "duration": 0.03488372093028147,
          "durationTicks": 3,
          "midi": 88,
          "name": "E6",
          "ticks": 25163,
          "time": 292.59302325581393,
          "velocity": 0.11023622047244094
        },
        {
          "duration": 0.04651162790702301,
          "durationTicks": 4,
          "midi": 50,
          "name": "D3",
          "ticks": 25164,
          "time": 292.6046511627907,
          "velocity": 0.44881889763779526
        },
        {
          "duration": 0.03488372093028147,
          "durationTicks": 3,
          "midi": 70,
          "name": "A#4",
          "ticks": 25164,
          "time": 292.6046511627907,
          "velocity": 0.14960629921259844
        },
        {
          "duration": 0.16279069767443843,
          "durationTicks": 14,
          "midi": 81,
          "name": "A5",
          "ticks": 25164,
          "time": 292.6046511627907,
          "velocity": 0.28346456692913385
        },
        {
          "duration": 0.29069767441865224,
          "durationTicks": 25,
          "midi": 57,
          "name": "A3",
          "ticks": 25165,
          "time": 292.6162790697674,
          "velocity": 0.48031496062992124
        },
        {
          "duration": 0.1511627906976969,
          "durationTicks": 13,
          "midi": 76,
          "name": "E5",
          "ticks": 25165,
          "time": 292.6162790697674,
          "velocity": 0.23622047244094488
        },
        {
          "duration": 0.6395348837208985,
          "durationTicks": 55,
          "midi": 62,
          "name": "D4",
          "ticks": 25166,
          "time": 292.6279069767442,
          "velocity": 0.4566929133858268
        },
        {
          "duration": 0.2906976744185954,
          "durationTicks": 25,
          "midi": 78,
          "name": "F#5",
          "ticks": 25166,
          "time": 292.6279069767442,
          "velocity": 0.11811023622047244
        },
        {
          "duration": 0.034883720930224626,
          "durationTicks": 3,
          "midi": 45,
          "name": "A2",
          "ticks": 25167,
          "time": 292.63953488372096,
          "velocity": 0.4251968503937008
        },
        {
          "duration": 0.023255813953483084,
          "durationTicks": 2,
          "midi": 45,
          "name": "A2",
          "ticks": 25171,
          "time": 292.6860465116279,
          "velocity": 0.3937007874015748
        },
        {
          "duration": 0.04651162790696617,
          "durationTicks": 4,
          "midi": 45,
          "name": "A2",
          "ticks": 25176,
          "time": 292.74418604651163,
          "velocity": 0.4015748031496063
        },
        {
          "duration": 0.023255813953483084,
          "durationTicks": 2,
          "midi": 50,
          "name": "D3",
          "ticks": 25176,
          "time": 292.74418604651163,
          "velocity": 0.3543307086614173
        },
        {
          "duration": 0.06976744186044925,
          "durationTicks": 6,
          "midi": 45,
          "name": "A2",
          "ticks": 25181,
          "time": 292.80232558139534,
          "velocity": 0.41732283464566927
        },
        {
          "duration": 0.023255813953483084,
          "durationTicks": 2,
          "midi": 50,
          "name": "D3",
          "ticks": 25183,
          "time": 292.8255813953488,
          "velocity": 0.3543307086614173
        },
        {
          "duration": 0.03488372093028147,
          "durationTicks": 3,
          "midi": 76,
          "name": "E5",
          "ticks": 25187,
          "time": 292.8720930232558,
          "velocity": 0.07086614173228346
        },
        {
          "duration": 0.023255813953483084,
          "durationTicks": 2,
          "midi": 45,
          "name": "A2",
          "ticks": 25188,
          "time": 292.8837209302326,
          "velocity": 0.3858267716535433
        },
        {
          "duration": 0.04651162790696617,
          "durationTicks": 4,
          "midi": 50,
          "name": "D3",
          "ticks": 25188,
          "time": 292.8837209302326,
          "velocity": 0.3700787401574803
        },
        {
          "duration": 0.034883720930224626,
          "durationTicks": 3,
          "midi": 71,
          "name": "B4",
          "ticks": 25190,
          "time": 292.90697674418607,
          "velocity": 0.13385826771653545
        },
        {
          "duration": 0.04651162790696617,
          "durationTicks": 4,
          "midi": 85,
          "name": "C#6",
          "ticks": 25190,
          "time": 292.90697674418607,
          "velocity": 0.08661417322834646
        },
        {
          "duration": 0.09302325581393234,
          "durationTicks": 8,
          "midi": 45,
          "name": "A2",
          "ticks": 25191,
          "time": 292.9186046511628,
          "velocity": 0.4330708661417323
        },
        {
          "duration": 0.023255813953483084,
          "durationTicks": 2,
          "midi": 55,
          "name": "G3",
          "ticks": 25191,
          "time": 292.9186046511628,
          "velocity": 0.3543307086614173
        },
        {
          "duration": 0.05813953488370771,
          "durationTicks": 5,
          "midi": 69,
          "name": "A4",
          "ticks": 25192,
          "time": 292.93023255813955,
          "velocity": 0.08661417322834646
        },
        {
          "duration": 0.04651162790696617,
          "durationTicks": 4,
          "midi": 56,
          "name": "G#3",
          "ticks": 25194,
          "time": 292.95348837209303,
          "velocity": 0.16535433070866143
        },
        {
          "duration": 0.1279069767442138,
          "durationTicks": 11,
          "midi": 45,
          "name": "A2",
          "ticks": 25200,
          "time": 293.0232558139535,
          "velocity": 0.41732283464566927
        },
        {
          "duration": 0.22093023255814614,
          "durationTicks": 19,
          "midi": 81,
          "name": "A5",
          "ticks": 25202,
          "time": 293.04651162790697,
          "velocity": 0.15748031496062992
        },
        {
          "duration": 0.058139534883764554,
          "durationTicks": 5,
          "midi": 76,
          "name": "E5",
          "ticks": 25205,
          "time": 293.0813953488372,
          "velocity": 0.07086614173228346
        },
        {
          "duration": 0.034883720930224626,
          "durationTicks": 3,
          "midi": 71,
          "name": "B4",
          "ticks": 25211,
          "time": 293.1511627906977,
          "velocity": 0.2204724409448819
        },
        {
          "duration": 0.034883720930224626,
          "durationTicks": 3,
          "midi": 44,
          "name": "G#2",
          "ticks": 25213,
          "time": 293.1744186046512,
          "velocity": 0.3858267716535433
        },
        {
          "duration": 0.04651162790696617,
          "durationTicks": 4,
          "midi": 50,
          "name": "D3",
          "ticks": 25213,
          "time": 293.1744186046512,
          "velocity": 0.3858267716535433
        },
        {
          "duration": 0.04651162790696617,
          "durationTicks": 4,
          "midi": 57,
          "name": "A3",
          "ticks": 25214,
          "time": 293.1860465116279,
          "velocity": 0.2283464566929134
        },
        {
          "duration": 0.034883720930224626,
          "durationTicks": 3,
          "midi": 45,
          "name": "A2",
          "ticks": 25218,
          "time": 293.2325581395349,
          "velocity": 0.3700787401574803
        },
        {
          "duration": 0.034883720930224626,
          "durationTicks": 3,
          "midi": 44,
          "name": "G#2",
          "ticks": 25221,
          "time": 293.2674418604651,
          "velocity": 0.3858267716535433
        },
        {
          "duration": 0.05813953488370771,
          "durationTicks": 5,
          "midi": 62,
          "name": "D4",
          "ticks": 25222,
          "time": 293.27906976744185,
          "velocity": 0.2047244094488189
        },
        {
          "duration": 0.023255813953483084,
          "durationTicks": 2,
          "midi": 57,
          "name": "A3",
          "ticks": 25223,
          "time": 293.2906976744186,
          "velocity": 0.3228346456692913
        },
        {
          "duration": 0.023255813953483084,
          "durationTicks": 2,
          "midi": 58,
          "name": "A#3",
          "ticks": 25225,
          "time": 293.3139534883721,
          "velocity": 0.23622047244094488
        },
        {
          "duration": 0.058139534883764554,
          "durationTicks": 5,
          "midi": 45,
          "name": "A2",
          "ticks": 25226,
          "time": 293.3255813953488,
          "velocity": 0.3779527559055118
        },
        {
          "duration": 0.034883720930224626,
          "durationTicks": 3,
          "midi": 56,
          "name": "G#3",
          "ticks": 25231,
          "time": 293.3837209302326,
          "velocity": 0.33070866141732286
        },
        {
          "duration": 0.034883720930224626,
          "durationTicks": 3,
          "midi": 44,
          "name": "G#2",
          "ticks": 25234,
          "time": 293.4186046511628,
          "velocity": 0.4330708661417323
        },
        {
          "duration": 0.04651162790696617,
          "durationTicks": 4,
          "midi": 50,
          "name": "D3",
          "ticks": 25234,
          "time": 293.4186046511628,
          "velocity": 0.3937007874015748
        },
        {
          "duration": 0.034883720930224626,
          "durationTicks": 3,
          "midi": 45,
          "name": "A2",
          "ticks": 25239,
          "time": 293.4767441860465,
          "velocity": 0.3464566929133858
        },
        {
          "duration": 0.40697674418606766,
          "durationTicks": 35,
          "midi": 74,
          "name": "D5",
          "ticks": 25243,
          "time": 293.5232558139535,
          "velocity": 0.3858267716535433
        },
        {
          "duration": 0.1511627906976969,
          "durationTicks": 13,
          "midi": 62,
          "name": "D4",
          "ticks": 25244,
          "time": 293.5348837209302,
          "velocity": 0.3543307086614173
        },
        {
          "duration": 0.04651162790696617,
          "durationTicks": 4,
          "midi": 78,
          "name": "F#5",
          "ticks": 25244,
          "time": 293.5348837209302,
          "velocity": 0.13385826771653545
        },
        {
          "duration": 0.1279069767442138,
          "durationTicks": 11,
          "midi": 69,
          "name": "A4",
          "ticks": 25245,
          "time": 293.54651162790697,
          "velocity": 0.2047244094488189
        },
        {
          "duration": 0.05813953488370771,
          "durationTicks": 5,
          "midi": 57,
          "name": "A3",
          "ticks": 25246,
          "time": 293.5581395348837,
          "velocity": 0.4094488188976378
        },
        {
          "duration": 0.023255813953483084,
          "durationTicks": 2,
          "midi": 50,
          "name": "D3",
          "ticks": 25247,
          "time": 293.56976744186045,
          "velocity": 0.3700787401574803
        },
        {
          "duration": 0.09302325581398918,
          "durationTicks": 8,
          "midi": 88,
          "name": "E6",
          "ticks": 25247,
          "time": 293.56976744186045,
          "velocity": 0.1968503937007874
        },
        {
          "duration": 0.19767441860466306,
          "durationTicks": 17,
          "midi": 55,
          "name": "G3",
          "ticks": 25251,
          "time": 293.6162790697674,
          "velocity": 0.5354330708661418
        },
        {
          "duration": 0.32558139534887687,
          "durationTicks": 28,
          "midi": 83,
          "name": "B5",
          "ticks": 25251,
          "time": 293.6162790697674,
          "velocity": 0.15748031496062992
        },
        {
          "duration": 0.18604651162786467,
          "durationTicks": 16,
          "midi": 79,
          "name": "G5",
          "ticks": 25255,
          "time": 293.66279069767444,
          "velocity": 0.2204724409448819
        },
        {
          "duration": 0.034883720930224626,
          "durationTicks": 3,
          "midi": 50,
          "name": "D3",
          "ticks": 25257,
          "time": 293.6860465116279,
          "velocity": 0.3779527559055118
        },
        {
          "duration": 0.09302325581393234,
          "durationTicks": 8,
          "midi": 42,
          "name": "F#2",
          "ticks": 25258,
          "time": 293.69767441860466,
          "velocity": 0.3700787401574803
        },
        {
          "duration": 0.1511627906976969,
          "durationTicks": 13,
          "midi": 62,
          "name": "D4",
          "ticks": 25267,
          "time": 293.80232558139534,
          "velocity": 0.3228346456692913
        },
        {
          "duration": 0.023255813953483084,
          "durationTicks": 2,
          "midi": 47,
          "name": "B2",
          "ticks": 25268,
          "time": 293.8139534883721,
          "velocity": 0.30708661417322836
        },
        {
          "duration": 0.023255813953483084,
          "durationTicks": 2,
          "midi": 56,
          "name": "G#3",
          "ticks": 25268,
          "time": 293.8139534883721,
          "velocity": 0.48031496062992124
        },
        {
          "duration": 0.034883720930224626,
          "durationTicks": 3,
          "midi": 71,
          "name": "B4",
          "ticks": 25268,
          "time": 293.8139534883721,
          "velocity": 0.25196850393700787
        },
        {
          "duration": 0.11627906976747227,
          "durationTicks": 10,
          "midi": 81,
          "name": "A5",
          "ticks": 25268,
          "time": 293.8139534883721,
          "velocity": 0.13385826771653545
        },
        {
          "duration": 0.023255813953483084,
          "durationTicks": 2,
          "midi": 44,
          "name": "G#2",
          "ticks": 25271,
          "time": 293.8488372093023,
          "velocity": 0.33070866141732286
        },
        {
          "duration": 0.023255813953539928,
          "durationTicks": 2,
          "midi": 57,
          "name": "A3",
          "ticks": 25272,
          "time": 293.86046511627904,
          "velocity": 0.4881889763779528
        },
        {
          "duration": 0.04651162790696617,
          "durationTicks": 4,
          "midi": 45,
          "name": "A2",
          "ticks": 25275,
          "time": 293.8953488372093,
          "velocity": 0.28346456692913385
        },
        {
          "duration": 0.023255813953483084,
          "durationTicks": 2,
          "midi": 57,
          "name": "A3",
          "ticks": 25277,
          "time": 293.9186046511628,
          "velocity": 0.36220472440944884
        },
        {
          "duration": 0.023255813953483084,
          "durationTicks": 2,
          "midi": 48,
          "name": "C3",
          "ticks": 25279,
          "time": 293.9418604651163,
          "velocity": 0.36220472440944884
        },
        {
          "duration": 0.11627906976741542,
          "durationTicks": 10,
          "midi": 55,
          "name": "G3",
          "ticks": 25279,
          "time": 293.9418604651163,
          "velocity": 0.3937007874015748
        },
        {
          "duration": 0.034883720930224626,
          "durationTicks": 3,
          "midi": 71,
          "name": "B4",
          "ticks": 25280,
          "time": 293.95348837209303,
          "velocity": 0.10236220472440945
        },
        {
          "duration": 0.09302325581393234,
          "durationTicks": 8,
          "midi": 74,
          "name": "D5",
          "ticks": 25280,
          "time": 293.95348837209303,
          "velocity": 0.11811023622047244
        },
        {
          "duration": 0.034883720930224626,
          "durationTicks": 3,
          "midi": 50,
          "name": "D3",
          "ticks": 25281,
          "time": 293.9651162790698,
          "velocity": 0.3700787401574803
        },
        {
          "duration": 0.04651162790696617,
          "durationTicks": 4,
          "midi": 43,
          "name": "G2",
          "ticks": 25282,
          "time": 293.9767441860465,
          "velocity": 0.33858267716535434
        },
        {
          "duration": 0.023255813953483084,
          "durationTicks": 2,
          "midi": 50,
          "name": "D3",
          "ticks": 25286,
          "time": 294.0232558139535,
          "velocity": 0.2283464566929134
        },
        {
          "duration": 0.18604651162792152,
          "durationTicks": 16,
          "midi": 74,
          "name": "D5",
          "ticks": 25289,
          "time": 294.0581395348837,
          "velocity": 0.2283464566929134
        },
        {
          "duration": 0.08139534883724764,
          "durationTicks": 7,
          "midi": 62,
          "name": "D4",
          "ticks": 25290,
          "time": 294.06976744186045,
          "velocity": 0.33070866141732286
        },
        {
          "duration": 0.5116279069767415,
          "durationTicks": 44,
          "midi": 81,
          "name": "A5",
          "ticks": 25290,
          "time": 294.06976744186045,
          "velocity": 0.3543307086614173
        },
        {
          "duration": 0.5116279069767415,
          "durationTicks": 44,
          "midi": 69,
          "name": "A4",
          "ticks": 25291,
          "time": 294.0813953488372,
          "velocity": 0.33858267716535434
        },
        {
          "duration": 0.058139534883764554,
          "durationTicks": 5,
          "midi": 50,
          "name": "D3",
          "ticks": 25292,
          "time": 294.09302325581393,
          "velocity": 0.3464566929133858
        },
        {
          "duration": 0.058139534883764554,
          "durationTicks": 5,
          "midi": 57,
          "name": "A3",
          "ticks": 25292,
          "time": 294.09302325581393,
          "velocity": 0.4330708661417323
        },
        {
          "duration": 0.5116279069767415,
          "durationTicks": 44,
          "midi": 76,
          "name": "E5",
          "ticks": 25292,
          "time": 294.09302325581393,
          "velocity": 0.25196850393700787
        },
        {
          "duration": 0.023255813953483084,
          "durationTicks": 2,
          "midi": 56,
          "name": "G#3",
          "ticks": 25297,
          "time": 294.1511627906977,
          "velocity": 0.4645669291338583
        },
        {
          "duration": 0.034883720930224626,
          "durationTicks": 3,
          "midi": 71,
          "name": "B4",
          "ticks": 25297,
          "time": 294.1511627906977,
          "velocity": 0.11023622047244094
        },
        {
          "duration": 0.17441860465112313,
          "durationTicks": 15,
          "midi": 57,
          "name": "A3",
          "ticks": 25299,
          "time": 294.1744186046512,
          "velocity": 0.49606299212598426
        },
        {
          "duration": 0.04651162790696617,
          "durationTicks": 4,
          "midi": 61,
          "name": "C#4",
          "ticks": 25299,
          "time": 294.1744186046512,
          "velocity": 0.3700787401574803
        },
        {
          "duration": 0.023255813953483084,
          "durationTicks": 2,
          "midi": 45,
          "name": "A2",
          "ticks": 25301,
          "time": 294.19767441860466,
          "velocity": 0.4094488188976378
        },
        {
          "duration": 0.034883720930224626,
          "durationTicks": 3,
          "midi": 50,
          "name": "D3",
          "ticks": 25305,
          "time": 294.24418604651163,
          "velocity": 0.41732283464566927
        },
        {
          "duration": 0.13953488372095535,
          "durationTicks": 12,
          "midi": 45,
          "name": "A2",
          "ticks": 25311,
          "time": 294.3139534883721,
          "velocity": 0.4251968503937008
        },
        {
          "duration": 0.2325581395348877,
          "durationTicks": 20,
          "midi": 57,
          "name": "A3",
          "ticks": 25315,
          "time": 294.36046511627904,
          "velocity": 0.49606299212598426
        },
        {
          "duration": 0.04651162790696617,
          "durationTicks": 4,
          "midi": 85,
          "name": "C#6",
          "ticks": 25323,
          "time": 294.45348837209303,
          "velocity": 0.18110236220472442
        },
        {
          "duration": 0.06976744186044925,
          "durationTicks": 6,
          "midi": 50,
          "name": "D3",
          "ticks": 25324,
          "time": 294.4651162790698,
          "velocity": 0.41732283464566927
        },
        {
          "duration": 0.04651162790696617,
          "durationTicks": 4,
          "midi": 50,
          "name": "D3",
          "ticks": 25331,
          "time": 294.54651162790697,
          "velocity": 0.33858267716535434
        },
        {
          "duration": 0.023255813953483084,
          "durationTicks": 2,
          "midi": 56,
          "name": "G#3",
          "ticks": 25335,
          "time": 294.59302325581393,
          "velocity": 0.3464566929133858
        },
        {
          "duration": 0.023255813953539928,
          "durationTicks": 2,
          "midi": 50,
          "name": "D3",
          "ticks": 25336,
          "time": 294.6046511627907,
          "velocity": 0.2755905511811024
        },
        {
          "duration": 0.03488372093028147,
          "durationTicks": 3,
          "midi": 57,
          "name": "A3",
          "ticks": 25337,
          "time": 294.6162790697674,
          "velocity": 0.1889763779527559
        },
        {
          "duration": 0.023255813953483084,
          "durationTicks": 2,
          "midi": 42,
          "name": "F#2",
          "ticks": 25338,
          "time": 294.6279069767442,
          "velocity": 0.2440944881889764
        },
        {
          "duration": 0.023255813953483084,
          "durationTicks": 2,
          "midi": 43,
          "name": "G2",
          "ticks": 25340,
          "time": 294.6511627906977,
          "velocity": 0.2677165354330709
        },
        {
          "duration": 0.06976744186044925,
          "durationTicks": 6,
          "midi": 55,
          "name": "G3",
          "ticks": 25341,
          "time": 294.66279069767444,
          "velocity": 0.5196850393700787
        },
        {
          "duration": 0.04651162790696617,
          "durationTicks": 4,
          "midi": 83,
          "name": "B5",
          "ticks": 25342,
          "time": 294.6744186046512,
          "velocity": 0.11023622047244094
        },
        {
          "duration": 0.05813953488370771,
          "durationTicks": 5,
          "midi": 79,
          "name": "G5",
          "ticks": 25343,
          "time": 294.6860465116279,
          "velocity": 0.1732283464566929
        },
        {
          "duration": 0.04651162790696617,
          "durationTicks": 4,
          "midi": 71,
          "name": "B4",
          "ticks": 25344,
          "time": 294.69767441860466,
          "velocity": 0.15748031496062992
        },
        {
          "duration": 0.023255813953483084,
          "durationTicks": 2,
          "midi": 60,
          "name": "C4",
          "ticks": 25345,
          "time": 294.7093023255814,
          "velocity": 0.2283464566929134
        },
        {
          "duration": 0.034883720930224626,
          "durationTicks": 3,
          "midi": 77,
          "name": "F5",
          "ticks": 25345,
          "time": 294.7093023255814,
          "velocity": 0.10236220472440945
        },
        {
          "duration": 0.2325581395348877,
          "durationTicks": 20,
          "midi": 50,
          "name": "D3",
          "ticks": 25348,
          "time": 294.74418604651163,
          "velocity": 0.47244094488188976
        },
        {
          "duration": 0.034883720930224626,
          "durationTicks": 3,
          "midi": 57,
          "name": "A3",
          "ticks": 25348,
          "time": 294.74418604651163,
          "velocity": 0.44881889763779526
        },
        {
          "duration": 0.10465116279067388,
          "durationTicks": 9,
          "midi": 76,
          "name": "E5",
          "ticks": 25348,
          "time": 294.74418604651163,
          "velocity": 0.12598425196850394
        },
        {
          "duration": 0.22093023255814614,
          "durationTicks": 19,
          "midi": 81,
          "name": "A5",
          "ticks": 25349,
          "time": 294.75581395348837,
          "velocity": 0.18110236220472442
        },
        {
          "duration": 0.3488372093023031,
          "durationTicks": 30,
          "midi": 83,
          "name": "B5",
          "ticks": 25349,
          "time": 294.75581395348837,
          "velocity": 0.14173228346456693
        },
        {
          "duration": 0.023255813953483084,
          "durationTicks": 2,
          "midi": 57,
          "name": "A3",
          "ticks": 25352,
          "time": 294.7906976744186,
          "velocity": 0.4330708661417323
        },
        {
          "duration": 0.023255813953483084,
          "durationTicks": 2,
          "midi": 55,
          "name": "G3",
          "ticks": 25355,
          "time": 294.8255813953488,
          "velocity": 0.3858267716535433
        },
        {
          "duration": 0.023255813953483084,
          "durationTicks": 2,
          "midi": 55,
          "name": "G3",
          "ticks": 25362,
          "time": 294.90697674418607,
          "velocity": 0.33070866141732286
        },
        {
          "duration": 0.023255813953483084,
          "durationTicks": 2,
          "midi": 55,
          "name": "G3",
          "ticks": 25367,
          "time": 294.9651162790698,
          "velocity": 0.4094488188976378
        },
        {
          "duration": 0.023255813953483084,
          "durationTicks": 2,
          "midi": 48,
          "name": "C3",
          "ticks": 25368,
          "time": 294.9767441860465,
          "velocity": 0.41732283464566927
        },
        {
          "duration": 0.05813953488370771,
          "durationTicks": 5,
          "midi": 78,
          "name": "F#5",
          "ticks": 25369,
          "time": 294.98837209302326,
          "velocity": 0.11811023622047244
        },
        {
          "duration": 0.05813953488370771,
          "durationTicks": 5,
          "midi": 88,
          "name": "E6",
          "ticks": 25369,
          "time": 294.98837209302326,
          "velocity": 0.14173228346456693
        },
        {
          "duration": 0.06976744186044925,
          "durationTicks": 6,
          "midi": 50,
          "name": "D3",
          "ticks": 25370,
          "time": 295,
          "velocity": 0.44881889763779526
        },
        {
          "duration": 0.17441860465117998,
          "durationTicks": 15,
          "midi": 81,
          "name": "A5",
          "ticks": 25371,
          "time": 295.01162790697674,
          "velocity": 0.14960629921259844
        },
        {
          "duration": 0.034883720930224626,
          "durationTicks": 3,
          "midi": 55,
          "name": "G3",
          "ticks": 25373,
          "time": 295.0348837209302,
          "velocity": 0.3464566929133858
        },
        {
          "duration": 0.058139534883764554,
          "durationTicks": 5,
          "midi": 88,
          "name": "E6",
          "ticks": 25376,
          "time": 295.06976744186045,
          "velocity": 0.09448818897637795
        },
        {
          "duration": 0.0697674418605061,
          "durationTicks": 6,
          "midi": 50,
          "name": "D3",
          "ticks": 25377,
          "time": 295.0813953488372,
          "velocity": 0.4251968503937008
        },
        {
          "duration": 0.0697674418605061,
          "durationTicks": 6,
          "midi": 69,
          "name": "A4",
          "ticks": 25378,
          "time": 295.09302325581393,
          "velocity": 0.07874015748031496
        },
        {
          "duration": 0.023255813953483084,
          "durationTicks": 2,
          "midi": 50,
          "name": "D3",
          "ticks": 25386,
          "time": 295.1860465116279,
          "velocity": 0.4094488188976378
        },
        {
          "duration": 0.034883720930224626,
          "durationTicks": 3,
          "midi": 88,
          "name": "E6",
          "ticks": 25386,
          "time": 295.1860465116279,
          "velocity": 0.07874015748031496
        },
        {
          "duration": 0.38372093023252773,
          "durationTicks": 33,
          "midi": 65,
          "name": "F4",
          "ticks": 25390,
          "time": 295.2325581395349,
          "velocity": 0.33858267716535434
        },
        {
          "duration": 0.18604651162792152,
          "durationTicks": 16,
          "midi": 72,
          "name": "C5",
          "ticks": 25391,
          "time": 295.24418604651163,
          "velocity": 0.2204724409448819
        },
        {
          "duration": 0.0813953488371908,
          "durationTicks": 7,
          "midi": 57,
          "name": "A3",
          "ticks": 25392,
          "time": 295.25581395348837,
          "velocity": 0.44881889763779526
        },
        {
          "duration": 0.034883720930224626,
          "durationTicks": 3,
          "midi": 70,
          "name": "A#4",
          "ticks": 25392,
          "time": 295.25581395348837,
          "velocity": 0.14960629921259844
        },
        {
          "duration": 0.06976744186044925,
          "durationTicks": 6,
          "midi": 99,
          "name": "D#7",
          "ticks": 25394,
          "time": 295.27906976744185,
          "velocity": 0.10236220472440945
        },
        {
          "duration": 0.034883720930224626,
          "durationTicks": 3,
          "midi": 53,
          "name": "F3",
          "ticks": 25398,
          "time": 295.3255813953488,
          "velocity": 0.3858267716535433
        },
        {
          "duration": 0.034883720930224626,
          "durationTicks": 3,
          "midi": 45,
          "name": "A2",
          "ticks": 25399,
          "time": 295.33720930232556,
          "velocity": 0.3858267716535433
        },
        {
          "duration": 0.023255813953483084,
          "durationTicks": 2,
          "midi": 53,
          "name": "F3",
          "ticks": 25405,
          "time": 295.40697674418607,
          "velocity": 0.33858267716535434
        },
        {
          "duration": 0.05813953488370771,
          "durationTicks": 5,
          "midi": 45,
          "name": "A2",
          "ticks": 25406,
          "time": 295.4186046511628,
          "velocity": 0.3858267716535433
        },
        {
          "duration": 0.04651162790696617,
          "durationTicks": 4,
          "midi": 53,
          "name": "F3",
          "ticks": 25408,
          "time": 295.4418604651163,
          "velocity": 0.3858267716535433
        },
        {
          "duration": 0.034883720930224626,
          "durationTicks": 3,
          "midi": 44,
          "name": "G#2",
          "ticks": 25411,
          "time": 295.4767441860465,
          "velocity": 0.47244094488188976
        },
        {
          "duration": 0.034883720930224626,
          "durationTicks": 3,
          "midi": 50,
          "name": "D3",
          "ticks": 25415,
          "time": 295.5232558139535,
          "velocity": 0.3937007874015748
        },
        {
          "duration": 0.0813953488371908,
          "durationTicks": 7,
          "midi": 57,
          "name": "A3",
          "ticks": 25415,
          "time": 295.5232558139535,
          "velocity": 0.3779527559055118
        },
        {
          "duration": 0.023255813953483084,
          "durationTicks": 2,
          "midi": 45,
          "name": "A2",
          "ticks": 25417,
          "time": 295.54651162790697,
          "velocity": 0.3779527559055118
        },
        {
          "duration": 0.023255813953483084,
          "durationTicks": 2,
          "midi": 44,
          "name": "G#2",
          "ticks": 25421,
          "time": 295.59302325581393,
          "velocity": 0.3543307086614173
        },
        {
          "duration": 0.023255813953539928,
          "durationTicks": 2,
          "midi": 58,
          "name": "A#3",
          "ticks": 25422,
          "time": 295.6046511627907,
          "velocity": 0.4015748031496063
        },
        {
          "duration": 0.18604651162792152,
          "durationTicks": 16,
          "midi": 74,
          "name": "D5",
          "ticks": 25422,
          "time": 295.6046511627907,
          "velocity": 0.31496062992125984
        },
        {
          "duration": 0.1279069767442138,
          "durationTicks": 11,
          "midi": 81,
          "name": "A5",
          "ticks": 25422,
          "time": 295.6046511627907,
          "velocity": 0.11023622047244094
        },
        {
          "duration": 0.13953488372095535,
          "durationTicks": 12,
          "midi": 62,
          "name": "D4",
          "ticks": 25423,
          "time": 295.6162790697674,
          "velocity": 0.3937007874015748
        },
        {
          "duration": 0.11627906976741542,
          "durationTicks": 10,
          "midi": 57,
          "name": "A3",
          "ticks": 25424,
          "time": 295.6279069767442,
          "velocity": 0.4251968503937008
        },
        {
          "duration": 0.04651162790696617,
          "durationTicks": 4,
          "midi": 45,
          "name": "A2",
          "ticks": 25429,
          "time": 295.6860465116279,
          "velocity": 0.3464566929133858
        },
        {
          "duration": 0.04651162790696617,
          "durationTicks": 4,
          "midi": 50,
          "name": "D3",
          "ticks": 25429,
          "time": 295.6860465116279,
          "velocity": 0.3464566929133858
        },
        {
          "duration": 0.023255813953483084,
          "durationTicks": 2,
          "midi": 48,
          "name": "C3",
          "ticks": 25433,
          "time": 295.7325581395349,
          "velocity": 0.3700787401574803
        },
        {
          "duration": 0.5465116279069662,
          "durationTicks": 47,
          "midi": 76,
          "name": "E5",
          "ticks": 25434,
          "time": 295.74418604651163,
          "velocity": 0.2992125984251969
        },
        {
          "duration": 0.3837209302325846,
          "durationTicks": 33,
          "midi": 71,
          "name": "B4",
          "ticks": 25435,
          "time": 295.75581395348837,
          "velocity": 0.31496062992125984
        },
        {
          "duration": 0.09302325581393234,
          "durationTicks": 8,
          "midi": 98,
          "name": "D7",
          "ticks": 25435,
          "time": 295.75581395348837,
          "velocity": 0.14173228346456693
        },
        {
          "duration": 0.11627906976747227,
          "durationTicks": 10,
          "midi": 64,
          "name": "E4",
          "ticks": 25436,
          "time": 295.7674418604651,
          "velocity": 0.3543307086614173
        },
        {
          "duration": 0.023255813953483084,
          "durationTicks": 2,
          "midi": 44,
          "name": "G#2",
          "ticks": 25437,
          "time": 295.77906976744185,
          "velocity": 0.31496062992125984
        },
        {
          "duration": 0.04651162790696617,
          "durationTicks": 4,
          "midi": 100,
          "name": "E7",
          "ticks": 25437,
          "time": 295.77906976744185,
          "velocity": 0.11811023622047244
        },
        {
          "duration": 0.04651162790696617,
          "durationTicks": 4,
          "midi": 42,
          "name": "F#2",
          "ticks": 25440,
          "time": 295.8139534883721,
          "velocity": 0.2677165354330709
        },
        {
          "duration": 0.04651162790696617,
          "durationTicks": 4,
          "midi": 52,
          "name": "E3",
          "ticks": 25440,
          "time": 295.8139534883721,
          "velocity": 0.3228346456692913
        },
        {
          "duration": 0.3372093023256184,
          "durationTicks": 29,
          "midi": 102,
          "name": "F#7",
          "ticks": 25440,
          "time": 295.8139534883721,
          "velocity": 0.2440944881889764
        },
        {
          "duration": 0.058139534883764554,
          "durationTicks": 5,
          "midi": 78,
          "name": "F#5",
          "ticks": 25444,
          "time": 295.86046511627904,
          "velocity": 0.14960629921259844
        },
        {
          "duration": 0.1279069767442138,
          "durationTicks": 11,
          "midi": 57,
          "name": "A3",
          "ticks": 25445,
          "time": 295.8720930232558,
          "velocity": 0.41732283464566927
        },
        {
          "duration": 0.13953488372095535,
          "durationTicks": 12,
          "midi": 74,
          "name": "D5",
          "ticks": 25445,
          "time": 295.8720930232558,
          "velocity": 0.3543307086614173
        },
        {
          "duration": 0.058139534883764554,
          "durationTicks": 5,
          "midi": 100,
          "name": "E7",
          "ticks": 25445,
          "time": 295.8720930232558,
          "velocity": 0.07874015748031496
        },
        {
          "duration": 0.11627906976741542,
          "durationTicks": 10,
          "midi": 62,
          "name": "D4",
          "ticks": 25446,
          "time": 295.8837209302326,
          "velocity": 0.3700787401574803
        },
        {
          "duration": 0.023255813953483084,
          "durationTicks": 2,
          "midi": 46,
          "name": "A#2",
          "ticks": 25447,
          "time": 295.8953488372093,
          "velocity": 0.29133858267716534
        },
        {
          "duration": 0.04651162790696617,
          "durationTicks": 4,
          "midi": 51,
          "name": "D#3",
          "ticks": 25448,
          "time": 295.90697674418607,
          "velocity": 0.4094488188976378
        },
        {
          "duration": 0.023255813953483084,
          "durationTicks": 2,
          "midi": 44,
          "name": "G#2",
          "ticks": 25449,
          "time": 295.9186046511628,
          "velocity": 0.3228346456692913
        },
        {
          "duration": 0.023255813953483084,
          "durationTicks": 2,
          "midi": 51,
          "name": "D#3",
          "ticks": 25454,
          "time": 295.9767441860465,
          "velocity": 0.36220472440944884
        },
        {
          "duration": 0.04651162790696617,
          "durationTicks": 4,
          "midi": 45,
          "name": "A2",
          "ticks": 25455,
          "time": 295.98837209302326,
          "velocity": 0.4645669291338583
        },
        {
          "duration": 0.13953488372095535,
          "durationTicks": 12,
          "midi": 64,
          "name": "E4",
          "ticks": 25455,
          "time": 295.98837209302326,
          "velocity": 0.28346456692913385
        },
        {
          "duration": 0.034883720930224626,
          "durationTicks": 3,
          "midi": 56,
          "name": "G#3",
          "ticks": 25457,
          "time": 296.01162790697674,
          "velocity": 0.3543307086614173
        },
        {
          "duration": 0.034883720930224626,
          "durationTicks": 3,
          "midi": 43,
          "name": "G2",
          "ticks": 25459,
          "time": 296.0348837209302,
          "velocity": 0.3543307086614173
        },
        {
          "duration": 0.08139534883724764,
          "durationTicks": 7,
          "midi": 52,
          "name": "E3",
          "ticks": 25461,
          "time": 296.0581395348837,
          "velocity": 0.2992125984251969
        },
        {
          "duration": 0.04651162790696617,
          "durationTicks": 4,
          "midi": 42,
          "name": "F#2",
          "ticks": 25462,
          "time": 296.06976744186045,
          "velocity": 0.2755905511811024
        },
        {
          "duration": 0.10465116279067388,
          "durationTicks": 9,
          "midi": 57,
          "name": "A3",
          "ticks": 25468,
          "time": 296.13953488372096,
          "velocity": 0.4015748031496063
        },
        {
          "duration": 0.12790697674415696,
          "durationTicks": 11,
          "midi": 62,
          "name": "D4",
          "ticks": 25468,
          "time": 296.13953488372096,
          "velocity": 0.33070866141732286
        },
        {
          "duration": 0.023255813953483084,
          "durationTicks": 2,
          "midi": 44,
          "name": "G#2",
          "ticks": 25471,
          "time": 296.1744186046512,
          "velocity": 0.3700787401574803
        },
        {
          "duration": 0.04651162790696617,
          "durationTicks": 4,
          "midi": 81,
          "name": "A5",
          "ticks": 25475,
          "time": 296.22093023255815,
          "velocity": 0.11811023622047244
        },
        {
          "duration": 0.3139534883720785,
          "durationTicks": 27,
          "midi": 77,
          "name": "F5",
          "ticks": 25478,
          "time": 296.25581395348837,
          "velocity": 0.33070866141732286
        },
        {
          "duration": 0.023255813953483084,
          "durationTicks": 2,
          "midi": 45,
          "name": "A2",
          "ticks": 25479,
          "time": 296.2674418604651,
          "velocity": 0.3464566929133858
        },
        {
          "duration": 0.13953488372095535,
          "durationTicks": 12,
          "midi": 57,
          "name": "A3",
          "ticks": 25479,
          "time": 296.2674418604651,
          "velocity": 0.49606299212598426
        },
        {
          "duration": 0.2906976744185954,
          "durationTicks": 25,
          "midi": 65,
          "name": "F4",
          "ticks": 25479,
          "time": 296.2674418604651,
          "velocity": 0.3543307086614173
        },
        {
          "duration": 0.023255813953483084,
          "durationTicks": 2,
          "midi": 70,
          "name": "A#4",
          "ticks": 25479,
          "time": 296.2674418604651,
          "velocity": 0.23622047244094488
        },
        {
          "duration": 0.034883720930224626,
          "durationTicks": 3,
          "midi": 72,
          "name": "C5",
          "ticks": 25479,
          "time": 296.2674418604651,
          "velocity": 0.11023622047244094
        },
        {
          "duration": 0.023255813953483084,
          "durationTicks": 2,
          "midi": 62,
          "name": "D4",
          "ticks": 25481,
          "time": 296.2906976744186,
          "velocity": 0.2440944881889764
        },
        {
          "duration": 0.17441860465117998,
          "durationTicks": 15,
          "midi": 74,
          "name": "D5",
          "ticks": 25481,
          "time": 296.2906976744186,
          "velocity": 0.3464566929133858
        },
        {
          "duration": 0.09302325581398918,
          "durationTicks": 8,
          "midi": 72,
          "name": "C5",
          "ticks": 25483,
          "time": 296.3139534883721,
          "velocity": 0.12598425196850394
        },
        {
          "duration": 0.04651162790696617,
          "durationTicks": 4,
          "midi": 45,
          "name": "A2",
          "ticks": 25484,
          "time": 296.3255813953488,
          "velocity": 0.3779527559055118
        },
        {
          "duration": 0.023255813953483084,
          "durationTicks": 2,
          "midi": 51,
          "name": "D#3",
          "ticks": 25485,
          "time": 296.33720930232556,
          "velocity": 0.4015748031496063
        },
        {
          "duration": 0.03488372093028147,
          "durationTicks": 3,
          "midi": 62,
          "name": "D4",
          "ticks": 25486,
          "time": 296.3488372093023,
          "velocity": 0.07874015748031496
        },
        {
          "duration": 0.04651162790702301,
          "durationTicks": 4,
          "midi": 98,
          "name": "D7",
          "ticks": 25487,
          "time": 296.36046511627904,
          "velocity": 0.09448818897637795
        },
        {
          "duration": 0.023255813953483084,
          "durationTicks": 2,
          "midi": 45,
          "name": "A2",
          "ticks": 25491,
          "time": 296.40697674418607,
          "velocity": 0.3700787401574803
        },
        {
          "duration": 0.05813953488370771,
          "durationTicks": 5,
          "midi": 57,
          "name": "A3",
          "ticks": 25492,
          "time": 296.4186046511628,
          "velocity": 0.4330708661417323
        },
        {
          "duration": 0.04651162790696617,
          "durationTicks": 4,
          "midi": 61,
          "name": "C#4",
          "ticks": 25496,
          "time": 296.4651162790698,
          "velocity": 0.2440944881889764
        },
        {
          "duration": 0.034883720930224626,
          "durationTicks": 3,
          "midi": 87,
          "name": "D#6",
          "ticks": 25496,
          "time": 296.4651162790698,
          "velocity": 0.13385826771653545
        },
        {
          "duration": 0.023255813953483084,
          "durationTicks": 2,
          "midi": 56,
          "name": "G#3",
          "ticks": 25497,
          "time": 296.4767441860465,
          "velocity": 0.4330708661417323
        },
        {
          "duration": 0.06976744186044925,
          "durationTicks": 6,
          "midi": 74,
          "name": "D5",
          "ticks": 25498,
          "time": 296.48837209302326,
          "velocity": 0.15748031496062992
        },
        {
          "duration": 0.023255813953483084,
          "durationTicks": 2,
          "midi": 55,
          "name": "G3",
          "ticks": 25499,
          "time": 296.5,
          "velocity": 0.4566929133858268
        },
        {
          "duration": 0.023255813953483084,
          "durationTicks": 2,
          "midi": 47,
          "name": "B2",
          "ticks": 25501,
          "time": 296.5232558139535,
          "velocity": 0.3858267716535433
        },
        {
          "duration": 0.034883720930224626,
          "durationTicks": 3,
          "midi": 72,
          "name": "C5",
          "ticks": 25501,
          "time": 296.5232558139535,
          "velocity": 0.11023622047244094
        },
        {
          "duration": 0.05813953488370771,
          "durationTicks": 5,
          "midi": 78,
          "name": "F#5",
          "ticks": 25502,
          "time": 296.5348837209302,
          "velocity": 0.1968503937007874
        },
        {
          "duration": 0.0697674418605061,
          "durationTicks": 6,
          "midi": 66,
          "name": "F#4",
          "ticks": 25504,
          "time": 296.5581395348837,
          "velocity": 0.28346456692913385
        },
        {
          "duration": 0.023255813953483084,
          "durationTicks": 2,
          "midi": 42,
          "name": "F#2",
          "ticks": 25505,
          "time": 296.56976744186045,
          "velocity": 0.4566929133858268
        },
        {
          "duration": 0.023255813953483084,
          "durationTicks": 2,
          "midi": 41,
          "name": "F2",
          "ticks": 25507,
          "time": 296.59302325581393,
          "velocity": 0.4094488188976378
        },
        {
          "duration": 0.023255813953483084,
          "durationTicks": 2,
          "midi": 55,
          "name": "G3",
          "ticks": 25507,
          "time": 296.59302325581393,
          "velocity": 0.48031496062992124
        },
        {
          "duration": 0.034883720930224626,
          "durationTicks": 3,
          "midi": 55,
          "name": "G3",
          "ticks": 25512,
          "time": 296.6511627906977,
          "velocity": 0.41732283464566927
        },
        {
          "duration": 0.023255813953483084,
          "durationTicks": 2,
          "midi": 44,
          "name": "G#2",
          "ticks": 25514,
          "time": 296.6744186046512,
          "velocity": 0.3779527559055118
        },
        {
          "duration": 0.023255813953483084,
          "durationTicks": 2,
          "midi": 55,
          "name": "G3",
          "ticks": 25516,
          "time": 296.69767441860466,
          "velocity": 0.2283464566929134
        },
        {
          "duration": 0.034883720930224626,
          "durationTicks": 3,
          "midi": 40,
          "name": "E2",
          "ticks": 25518,
          "time": 296.72093023255815,
          "velocity": 0.2755905511811024
        },
        {
          "duration": 0.023255813953483084,
          "durationTicks": 2,
          "midi": 45,
          "name": "A2",
          "ticks": 25522,
          "time": 296.7674418604651,
          "velocity": 0.4094488188976378
        },
        {
          "duration": 0.30232558139533694,
          "durationTicks": 26,
          "midi": 70,
          "name": "A#4",
          "ticks": 25523,
          "time": 296.77906976744185,
          "velocity": 0.25984251968503935
        },
        {
          "duration": 0.2674418604651123,
          "durationTicks": 23,
          "midi": 75,
          "name": "D#5",
          "ticks": 25524,
          "time": 296.7906976744186,
          "velocity": 0.2204724409448819
        },
        {
          "duration": 0.27906976744185386,
          "durationTicks": 24,
          "midi": 77,
          "name": "F5",
          "ticks": 25524,
          "time": 296.7906976744186,
          "velocity": 0.28346456692913385
        },
        {
          "duration": 0.18604651162792152,
          "durationTicks": 16,
          "midi": 88,
          "name": "E6",
          "ticks": 25524,
          "time": 296.7906976744186,
          "velocity": 0.1968503937007874
        },
        {
          "duration": 0.18604651162792152,
          "durationTicks": 16,
          "midi": 98,
          "name": "D7",
          "ticks": 25524,
          "time": 296.7906976744186,
          "velocity": 0.25984251968503935
        },
        {
          "duration": 0.4651162790697754,
          "durationTicks": 40,
          "midi": 53,
          "name": "F3",
          "ticks": 25525,
          "time": 296.80232558139534,
          "velocity": 0.4409448818897638
        },
        {
          "duration": 0.24418604651162923,
          "durationTicks": 21,
          "midi": 58,
          "name": "A#3",
          "ticks": 25526,
          "time": 296.8139534883721,
          "velocity": 0.33070866141732286
        },
        {
          "duration": 0.19767441860466306,
          "durationTicks": 17,
          "midi": 92,
          "name": "G#6",
          "ticks": 25527,
          "time": 296.8255813953488,
          "velocity": 0.11023622047244094
        },
        {
          "duration": 0.023255813953483084,
          "durationTicks": 2,
          "midi": 41,
          "name": "F2",
          "ticks": 25528,
          "time": 296.83720930232556,
          "velocity": 0.4409448818897638
        },
        {
          "duration": 0.023255813953539928,
          "durationTicks": 2,
          "midi": 41,
          "name": "F2",
          "ticks": 25531,
          "time": 296.8720930232558,
          "velocity": 0.4094488188976378
        },
        {
          "duration": 0.023255813953483084,
          "durationTicks": 2,
          "midi": 46,
          "name": "A#2",
          "ticks": 25537,
          "time": 296.9418604651163,
          "velocity": 0.4330708661417323
        },
        {
          "duration": 0.11627906976741542,
          "durationTicks": 10,
          "midi": 72,
          "name": "C5",
          "ticks": 25537,
          "time": 296.9418604651163,
          "velocity": 0.12598425196850394
        },
        {
          "duration": 0.27906976744185386,
          "durationTicks": 24,
          "midi": 98,
          "name": "D7",
          "ticks": 25541,
          "time": 296.98837209302326,
          "velocity": 0.2677165354330709
        },
        {
          "duration": 0.023255813953483084,
          "durationTicks": 2,
          "midi": 66,
          "name": "F#4",
          "ticks": 25546,
          "time": 297.04651162790697,
          "velocity": 0.25984251968503935
        },
        {
          "duration": 0.034883720930224626,
          "durationTicks": 3,
          "midi": 57,
          "name": "A3",
          "ticks": 25547,
          "time": 297.0581395348837,
          "velocity": 0.4094488188976378
        },
        {
          "duration": 0.24418604651162923,
          "durationTicks": 21,
          "midi": 75,
          "name": "D#5",
          "ticks": 25548,
          "time": 297.06976744186045,
          "velocity": 0.25196850393700787
        },
        {
          "duration": 0.2674418604651123,
          "durationTicks": 23,
          "midi": 77,
          "name": "F5",
          "ticks": 25549,
          "time": 297.0813953488372,
          "velocity": 0.30708661417322836
        },
        {
          "duration": 0.10465116279073072,
          "durationTicks": 9,
          "midi": 93,
          "name": "A6",
          "ticks": 25549,
          "time": 297.0813953488372,
          "velocity": 0.09448818897637795
        },
        {
          "duration": 0.25581395348837077,
          "durationTicks": 22,
          "midi": 58,
          "name": "A#3",
          "ticks": 25550,
          "time": 297.09302325581393,
          "velocity": 0.3779527559055118
        },
        {
          "duration": 0.08139534883724764,
          "durationTicks": 7,
          "midi": 80,
          "name": "G#5",
          "ticks": 25550,
          "time": 297.09302325581393,
          "velocity": 0.11023622047244094
        },
        {
          "duration": 0.19767441860466306,
          "durationTicks": 17,
          "midi": 81,
          "name": "A5",
          "ticks": 25550,
          "time": 297.09302325581393,
          "velocity": 0.1889763779527559
        },
        {
          "duration": 0.023255813953539928,
          "durationTicks": 2,
          "midi": 45,
          "name": "A2",
          "ticks": 25551,
          "time": 297.1046511627907,
          "velocity": 0.4015748031496063
        },
        {
          "duration": 0.10465116279067388,
          "durationTicks": 9,
          "midi": 72,
          "name": "C5",
          "ticks": 25553,
          "time": 297.1279069767442,
          "velocity": 0.10236220472440945
        },
        {
          "duration": 0.023255813953483084,
          "durationTicks": 2,
          "midi": 45,
          "name": "A2",
          "ticks": 25554,
          "time": 297.13953488372096,
          "velocity": 0.3937007874015748
        },
        {
          "duration": 0.034883720930224626,
          "durationTicks": 3,
          "midi": 46,
          "name": "A#2",
          "ticks": 25556,
          "time": 297.16279069767444,
          "velocity": 0.3858267716535433
        },
        {
          "duration": 0.15116279069764005,
          "durationTicks": 13,
          "midi": 84,
          "name": "C6",
          "ticks": 25556,
          "time": 297.16279069767444,
          "velocity": 0.11023622047244094
        },
        {
          "duration": 0.023255813953483084,
          "durationTicks": 2,
          "midi": 46,
          "name": "A#2",
          "ticks": 25560,
          "time": 297.2093023255814,
          "velocity": 0.4015748031496063
        },
        {
          "duration": 0.023255813953483084,
          "durationTicks": 2,
          "midi": 46,
          "name": "A#2",
          "ticks": 25563,
          "time": 297.24418604651163,
          "velocity": 0.4015748031496063
        },
        {
          "duration": 0.023255813953483084,
          "durationTicks": 2,
          "midi": 46,
          "name": "A#2",
          "ticks": 25567,
          "time": 297.2906976744186,
          "velocity": 0.3858267716535433
        },
        {
          "duration": 0.034883720930224626,
          "durationTicks": 3,
          "midi": 45,
          "name": "A2",
          "ticks": 25569,
          "time": 297.3139534883721,
          "velocity": 0.41732283464566927
        },
        {
          "duration": 0.023255813953483084,
          "durationTicks": 2,
          "midi": 53,
          "name": "F3",
          "ticks": 25569,
          "time": 297.3139534883721,
          "velocity": 0.30708661417322836
        },
        {
          "duration": 0.023255813953483084,
          "durationTicks": 2,
          "midi": 54,
          "name": "F#3",
          "ticks": 25571,
          "time": 297.33720930232556,
          "velocity": 0.4566929133858268
        },
        {
          "duration": 0.023255813953483084,
          "durationTicks": 2,
          "midi": 71,
          "name": "B4",
          "ticks": 25572,
          "time": 297.3488372093023,
          "velocity": 0.23622047244094488
        },
        {
          "duration": 0.058139534883764554,
          "durationTicks": 5,
          "midi": 41,
          "name": "F2",
          "ticks": 25574,
          "time": 297.3720930232558,
          "velocity": 0.3543307086614173
        },
        {
          "duration": 0.03488372093028147,
          "durationTicks": 3,
          "midi": 53,
          "name": "F3",
          "ticks": 25574,
          "time": 297.3720930232558,
          "velocity": 0.47244094488188976
        },
        {
          "duration": 0.023255813953539928,
          "durationTicks": 2,
          "midi": 58,
          "name": "A#3",
          "ticks": 25574,
          "time": 297.3720930232558,
          "velocity": 0.3543307086614173
        },
        {
          "duration": 0.023255813953483084,
          "durationTicks": 2,
          "midi": 57,
          "name": "A3",
          "ticks": 25576,
          "time": 297.3953488372093,
          "velocity": 0.2440944881889764
        },
        {
          "duration": 0.04651162790696617,
          "durationTicks": 4,
          "midi": 55,
          "name": "G3",
          "ticks": 25579,
          "time": 297.43023255813955,
          "velocity": 0.4094488188976378
        },
        {
          "duration": 0.04651162790696617,
          "durationTicks": 4,
          "midi": 71,
          "name": "B4",
          "ticks": 25579,
          "time": 297.43023255813955,
          "velocity": 0.13385826771653545
        },
        {
          "duration": 0.034883720930224626,
          "durationTicks": 3,
          "midi": 74,
          "name": "D5",
          "ticks": 25580,
          "time": 297.4418604651163,
          "velocity": 0.07874015748031496
        },
        {
          "duration": 0.05813953488370771,
          "durationTicks": 5,
          "midi": 41,
          "name": "F2",
          "ticks": 25582,
          "time": 297.4651162790698,
          "velocity": 0.4409448818897638
        },
        {
          "duration": 0.32558139534882,
          "durationTicks": 28,
          "midi": 53,
          "name": "F3",
          "ticks": 25587,
          "time": 297.5232558139535,
          "velocity": 0.5039370078740157
        },
        {
          "duration": 0.05813953488370771,
          "durationTicks": 5,
          "midi": 58,
          "name": "A#3",
          "ticks": 25587,
          "time": 297.5232558139535,
          "velocity": 0.29133858267716534
        },
        {
          "duration": 0.034883720930224626,
          "durationTicks": 3,
          "midi": 41,
          "name": "F2",
          "ticks": 25588,
          "time": 297.5348837209302,
          "velocity": 0.4015748031496063
        },
        {
          "duration": 0.2093023255814046,
          "durationTicks": 18,
          "midi": 81,
          "name": "A5",
          "ticks": 25592,
          "time": 297.5813953488372,
          "velocity": 0.18110236220472442
        },
        {
          "duration": 0.11627906976747227,
          "durationTicks": 10,
          "midi": 88,
          "name": "E6",
          "ticks": 25593,
          "time": 297.59302325581393,
          "velocity": 0.1968503937007874
        },
        {
          "duration": 0.25581395348837077,
          "durationTicks": 22,
          "midi": 70,
          "name": "A#4",
          "ticks": 25595,
          "time": 297.6162790697674,
          "velocity": 0.2440944881889764
        },
        {
          "duration": 0.0697674418605061,
          "durationTicks": 6,
          "midi": 80,
          "name": "G#5",
          "ticks": 25595,
          "time": 297.6162790697674,
          "velocity": 0.11811023622047244
        },
        {
          "duration": 0.1395348837208985,
          "durationTicks": 12,
          "midi": 58,
          "name": "A#3",
          "ticks": 25596,
          "time": 297.6279069767442,
          "velocity": 0.3543307086614173
        },
        {
          "duration": 0.20930232558134776,
          "durationTicks": 18,
          "midi": 72,
          "name": "C5",
          "ticks": 25598,
          "time": 297.6511627906977,
          "velocity": 0.10236220472440945
        },
        {
          "duration": 0.06976744186044925,
          "durationTicks": 6,
          "midi": 75,
          "name": "D#5",
          "ticks": 25598,
          "time": 297.6511627906977,
          "velocity": 0.2677165354330709
        },
        {
          "duration": 0.023255813953483084,
          "durationTicks": 2,
          "midi": 41,
          "name": "F2",
          "ticks": 25599,
          "time": 297.66279069767444,
          "velocity": 0.3464566929133858
        },
        {
          "duration": 0.023255813953483084,
          "durationTicks": 2,
          "midi": 75,
          "name": "D#5",
          "ticks": 25605,
          "time": 297.7325581395349,
          "velocity": 0.2283464566929134
        },
        {
          "duration": 0.06976744186044925,
          "durationTicks": 6,
          "midi": 60,
          "name": "C4",
          "ticks": 25609,
          "time": 297.77906976744185,
          "velocity": 0.16535433070866143
        },
        {
          "duration": 0.04651162790696617,
          "durationTicks": 4,
          "midi": 74,
          "name": "D5",
          "ticks": 25613,
          "time": 297.8255813953488,
          "velocity": 0.18110236220472442
        },
        {
          "duration": 0.023255813953483084,
          "durationTicks": 2,
          "midi": 54,
          "name": "F#3",
          "ticks": 25615,
          "time": 297.8488372093023,
          "velocity": 0.3543307086614173
        },
        {
          "duration": 0.023255813953539928,
          "durationTicks": 2,
          "midi": 42,
          "name": "F#2",
          "ticks": 25617,
          "time": 297.8720930232558,
          "velocity": 0.28346456692913385
        },
        {
          "duration": 0.023255813953483084,
          "durationTicks": 2,
          "midi": 52,
          "name": "E3",
          "ticks": 25618,
          "time": 297.8837209302326,
          "velocity": 0.4409448818897638
        },
        {
          "duration": 0.034883720930224626,
          "durationTicks": 3,
          "midi": 58,
          "name": "A#3",
          "ticks": 25619,
          "time": 297.8953488372093,
          "velocity": 0.29133858267716534
        },
        {
          "duration": 0.034883720930224626,
          "durationTicks": 3,
          "midi": 53,
          "name": "F3",
          "ticks": 25620,
          "time": 297.90697674418607,
          "velocity": 0.3937007874015748
        },
        {
          "duration": 0.04651162790696617,
          "durationTicks": 4,
          "midi": 57,
          "name": "A3",
          "ticks": 25622,
          "time": 297.93023255813955,
          "velocity": 0.3464566929133858
        },
        {
          "duration": 0.034883720930224626,
          "durationTicks": 3,
          "midi": 58,
          "name": "A#3",
          "ticks": 25625,
          "time": 297.9651162790698,
          "velocity": 0.2992125984251969
        },
        {
          "duration": 0.023255813953483084,
          "durationTicks": 2,
          "midi": 40,
          "name": "E2",
          "ticks": 25626,
          "time": 297.9767441860465,
          "velocity": 0.41732283464566927
        },
        {
          "duration": 0.04651162790696617,
          "durationTicks": 4,
          "midi": 66,
          "name": "F#4",
          "ticks": 25626,
          "time": 297.9767441860465,
          "velocity": 0.08661417322834646
        },
        {
          "duration": 0.034883720930224626,
          "durationTicks": 3,
          "midi": 53,
          "name": "F3",
          "ticks": 25627,
          "time": 297.98837209302326,
          "velocity": 0.3228346456692913
        },
        {
          "duration": 0.05813953488370771,
          "durationTicks": 5,
          "midi": 41,
          "name": "F2",
          "ticks": 25628,
          "time": 298,
          "velocity": 0.4409448818897638
        },
        {
          "duration": 0.04651162790696617,
          "durationTicks": 4,
          "midi": 71,
          "name": "B4",
          "ticks": 25630,
          "time": 298.0232558139535,
          "velocity": 0.16535433070866143
        },
        {
          "duration": 0.034883720930224626,
          "durationTicks": 3,
          "midi": 54,
          "name": "F#3",
          "ticks": 25632,
          "time": 298.04651162790697,
          "velocity": 0.36220472440944884
        },
        {
          "duration": 0.023255813953483084,
          "durationTicks": 2,
          "midi": 40,
          "name": "E2",
          "ticks": 25635,
          "time": 298.0813953488372,
          "velocity": 0.3700787401574803
        },
        {
          "duration": 0.023255813953483084,
          "durationTicks": 2,
          "midi": 53,
          "name": "F3",
          "ticks": 25635,
          "time": 298.0813953488372,
          "velocity": 0.33858267716535434
        },
        {
          "duration": 0.03488372093028147,
          "durationTicks": 3,
          "midi": 41,
          "name": "F2",
          "ticks": 25637,
          "time": 298.1046511627907,
          "velocity": 0.3937007874015748
        },
        {
          "duration": 0.2674418604651123,
          "durationTicks": 23,
          "midi": 58,
          "name": "A#3",
          "ticks": 25637,
          "time": 298.1046511627907,
          "velocity": 0.49606299212598426
        },
        {
          "duration": 0.2790697674419107,
          "durationTicks": 24,
          "midi": 77,
          "name": "F5",
          "ticks": 25638,
          "time": 298.1162790697674,
          "velocity": 0.2755905511811024
        },
        {
          "duration": 0.17441860465117998,
          "durationTicks": 15,
          "midi": 100,
          "name": "E7",
          "ticks": 25638,
          "time": 298.1162790697674,
          "velocity": 0.11023622047244094
        },
        {
          "duration": 0.27906976744185386,
          "durationTicks": 24,
          "midi": 65,
          "name": "F4",
          "ticks": 25639,
          "time": 298.1279069767442,
          "velocity": 0.2992125984251969
        },
        {
          "duration": 0.23255813953483084,
          "durationTicks": 20,
          "midi": 80,
          "name": "G#5",
          "ticks": 25639,
          "time": 298.1279069767442,
          "velocity": 0.12598425196850394
        },
        {
          "duration": 0.24418604651157239,
          "durationTicks": 21,
          "midi": 82,
          "name": "A#5",
          "ticks": 25639,
          "time": 298.1279069767442,
          "velocity": 0.1732283464566929
        },
        {
          "duration": 0.04651162790696617,
          "durationTicks": 4,
          "midi": 98,
          "name": "D7",
          "ticks": 25639,
          "time": 298.1279069767442,
          "velocity": 0.07874015748031496
        },
        {
          "duration": 0.034883720930224626,
          "durationTicks": 3,
          "midi": 84,
          "name": "C6",
          "ticks": 25641,
          "time": 298.1511627906977,
          "velocity": 0.07874015748031496
        },
        {
          "duration": 0.04651162790696617,
          "durationTicks": 4,
          "midi": 88,
          "name": "E6",
          "ticks": 25641,
          "time": 298.1511627906977,
          "velocity": 0.11023622047244094
        },
        {
          "duration": 0.023255813953483084,
          "durationTicks": 2,
          "midi": 45,
          "name": "A2",
          "ticks": 25642,
          "time": 298.16279069767444,
          "velocity": 0.3543307086614173
        },
        {
          "duration": 0.023255813953483084,
          "durationTicks": 2,
          "midi": 53,
          "name": "F3",
          "ticks": 25643,
          "time": 298.1744186046512,
          "velocity": 0.2677165354330709
        },
        {
          "duration": 0.023255813953483084,
          "durationTicks": 2,
          "midi": 46,
          "name": "A#2",
          "ticks": 25644,
          "time": 298.1860465116279,
          "velocity": 0.33070866141732286
        },
        {
          "duration": 0.034883720930224626,
          "durationTicks": 3,
          "midi": 98,
          "name": "D7",
          "ticks": 25644,
          "time": 298.1860465116279,
          "velocity": 0.07874015748031496
        },
        {
          "duration": 0.1627906976743816,
          "durationTicks": 14,
          "midi": 53,
          "name": "F3",
          "ticks": 25646,
          "time": 298.2093023255814,
          "velocity": 0.25984251968503935
        },
        {
          "duration": 0.023255813953483084,
          "durationTicks": 2,
          "midi": 46,
          "name": "A#2",
          "ticks": 25647,
          "time": 298.22093023255815,
          "velocity": 0.31496062992125984
        },
        {
          "duration": 0.023255813953483084,
          "durationTicks": 2,
          "midi": 46,
          "name": "A#2",
          "ticks": 25650,
          "time": 298.25581395348837,
          "velocity": 0.30708661417322836
        },
        {
          "duration": 0.034883720930224626,
          "durationTicks": 3,
          "midi": 46,
          "name": "A#2",
          "ticks": 25653,
          "time": 298.2906976744186,
          "velocity": 0.3228346456692913
        },
        {
          "duration": 0.05813953488370771,
          "durationTicks": 5,
          "midi": 74,
          "name": "D5",
          "ticks": 25655,
          "time": 298.3139534883721,
          "velocity": 0.10236220472440945
        },
        {
          "duration": 0.023255813953483084,
          "durationTicks": 2,
          "midi": 46,
          "name": "A#2",
          "ticks": 25658,
          "time": 298.3488372093023,
          "velocity": 0.25984251968503935
        },
        {
          "duration": 0.023255813953539928,
          "durationTicks": 2,
          "midi": 42,
          "name": "F#2",
          "ticks": 25660,
          "time": 298.3720930232558,
          "velocity": 0.25196850393700787
        },
        {
          "duration": 0.023255813953539928,
          "durationTicks": 2,
          "midi": 57,
          "name": "A3",
          "ticks": 25660,
          "time": 298.3720930232558,
          "velocity": 0.41732283464566927
        },
        {
          "duration": 0.034883720930224626,
          "durationTicks": 3,
          "midi": 60,
          "name": "C4",
          "ticks": 25663,
          "time": 298.40697674418607,
          "velocity": 0.2125984251968504
        },
        {
          "duration": 0.023255813953483084,
          "durationTicks": 2,
          "midi": 52,
          "name": "E3",
          "ticks": 25664,
          "time": 298.4186046511628,
          "velocity": 0.3779527559055118
        },
        {
          "duration": 0.034883720930224626,
          "durationTicks": 3,
          "midi": 44,
          "name": "G#2",
          "ticks": 25665,
          "time": 298.43023255813955,
          "velocity": 0.33070866141732286
        },
        {
          "duration": 0.023255813953483084,
          "durationTicks": 2,
          "midi": 53,
          "name": "F3",
          "ticks": 25666,
          "time": 298.4418604651163,
          "velocity": 0.33858267716535434
        },
        {
          "duration": 0.023255813953483084,
          "durationTicks": 2,
          "midi": 53,
          "name": "F3",
          "ticks": 25669,
          "time": 298.4767441860465,
          "velocity": 0.3858267716535433
        },
        {
          "duration": 0.04651162790696617,
          "durationTicks": 4,
          "midi": 54,
          "name": "F#3",
          "ticks": 25673,
          "time": 298.5232558139535,
          "velocity": 0.3543307086614173
        },
        {
          "duration": 0.034883720930224626,
          "durationTicks": 3,
          "midi": 45,
          "name": "A2",
          "ticks": 25678,
          "time": 298.5813953488372,
          "velocity": 0.33858267716535434
        },
        {
          "duration": 0.023255813953483084,
          "durationTicks": 2,
          "midi": 53,
          "name": "F3",
          "ticks": 25678,
          "time": 298.5813953488372,
          "velocity": 0.4094488188976378
        },
        {
          "duration": 0.2674418604651123,
          "durationTicks": 23,
          "midi": 58,
          "name": "A#3",
          "ticks": 25680,
          "time": 298.6046511627907,
          "velocity": 0.4409448818897638
        },
        {
          "duration": 0.1627906976743816,
          "durationTicks": 14,
          "midi": 77,
          "name": "F5",
          "ticks": 25683,
          "time": 298.63953488372096,
          "velocity": 0.2755905511811024
        },
        {
          "duration": 0.2209302325580893,
          "durationTicks": 19,
          "midi": 81,
          "name": "A5",
          "ticks": 25683,
          "time": 298.63953488372096,
          "velocity": 0.2440944881889764
        },
        {
          "duration": 0.034883720930224626,
          "durationTicks": 3,
          "midi": 98,
          "name": "D7",
          "ticks": 25683,
          "time": 298.63953488372096,
          "velocity": 0.11023622047244094
        },
        {
          "duration": 0.04651162790696617,
          "durationTicks": 4,
          "midi": 75,
          "name": "D#5",
          "ticks": 25684,
          "time": 298.6511627906977,
          "velocity": 0.14960629921259844
        },
        {
          "duration": 0.15116279069764005,
          "durationTicks": 13,
          "midi": 53,
          "name": "F3",
          "ticks": 25685,
          "time": 298.66279069767444,
          "velocity": 0.49606299212598426
        },
        {
          "duration": 0.10465116279067388,
          "durationTicks": 9,
          "midi": 74,
          "name": "D5",
          "ticks": 25688,
          "time": 298.69767441860466,
          "velocity": 0.1968503937007874
        },
        {
          "duration": 0.034883720930224626,
          "durationTicks": 3,
          "midi": 54,
          "name": "F#3",
          "ticks": 25699,
          "time": 298.8255813953488,
          "velocity": 0.2440944881889764
        },
        {
          "duration": 0.11627906976747227,
          "durationTicks": 10,
          "midi": 66,
          "name": "F#4",
          "ticks": 25699,
          "time": 298.8255813953488,
          "velocity": 0.2440944881889764
        },
        {
          "duration": 0.04651162790702301,
          "durationTicks": 4,
          "midi": 41,
          "name": "F2",
          "ticks": 25702,
          "time": 298.86046511627904,
          "velocity": 0.2677165354330709
        },
        {
          "duration": 0.023255813953483084,
          "durationTicks": 2,
          "midi": 55,
          "name": "G3",
          "ticks": 25704,
          "time": 298.8837209302326,
          "velocity": 0.33858267716535434
        },
        {
          "duration": 0.023255813953483084,
          "durationTicks": 2,
          "midi": 48,
          "name": "C3",
          "ticks": 25705,
          "time": 298.8953488372093,
          "velocity": 0.41732283464566927
        },
        {
          "duration": 0.5697674418604493,
          "durationTicks": 49,
          "midi": 74,
          "name": "D5",
          "ticks": 25705,
          "time": 298.8953488372093,
          "velocity": 0.2755905511811024
        },
        {
          "duration": 0.034883720930224626,
          "durationTicks": 3,
          "midi": 77,
          "name": "F5",
          "ticks": 25705,
          "time": 298.8953488372093,
          "velocity": 0.1968503937007874
        },
        {
          "duration": 0.24418604651162923,
          "durationTicks": 21,
          "midi": 83,
          "name": "B5",
          "ticks": 25706,
          "time": 298.90697674418607,
          "velocity": 0.2125984251968504
        },
        {
          "duration": 0.24418604651162923,
          "durationTicks": 21,
          "midi": 76,
          "name": "E5",
          "ticks": 25707,
          "time": 298.9186046511628,
          "velocity": 0.1889763779527559
        },
        {
          "duration": 0.5232558139534831,
          "durationTicks": 45,
          "midi": 79,
          "name": "G5",
          "ticks": 25707,
          "time": 298.9186046511628,
          "velocity": 0.1968503937007874
        },
        {
          "duration": 0.17441860465112313,
          "durationTicks": 15,
          "midi": 82,
          "name": "A#5",
          "ticks": 25707,
          "time": 298.9186046511628,
          "velocity": 0.14960629921259844
        },
        {
          "duration": 0.22093023255814614,
          "durationTicks": 19,
          "midi": 55,
          "name": "G3",
          "ticks": 25709,
          "time": 298.9418604651163,
          "velocity": 0.44881889763779526
        },
        {
          "duration": 0.2093023255814046,
          "durationTicks": 18,
          "midi": 72,
          "name": "C5",
          "ticks": 25709,
          "time": 298.9418604651163,
          "velocity": 0.3464566929133858
        },
        {
          "duration": 0.034883720930224626,
          "durationTicks": 3,
          "midi": 43,
          "name": "G2",
          "ticks": 25713,
          "time": 298.98837209302326,
          "velocity": 0.4094488188976378
        },
        {
          "duration": 0.023255813953483084,
          "durationTicks": 2,
          "midi": 43,
          "name": "G2",
          "ticks": 25718,
          "time": 299.04651162790697,
          "velocity": 0.41732283464566927
        },
        {
          "duration": 0.034883720930224626,
          "durationTicks": 3,
          "midi": 43,
          "name": "G2",
          "ticks": 25721,
          "time": 299.0813953488372,
          "velocity": 0.4251968503937008
        },
        {
          "duration": 0.023255813953483084,
          "durationTicks": 2,
          "midi": 43,
          "name": "G2",
          "ticks": 25726,
          "time": 299.13953488372096,
          "velocity": 0.4094488188976378
        },
        {
          "duration": 0.023255813953483084,
          "durationTicks": 2,
          "midi": 42,
          "name": "F#2",
          "ticks": 25728,
          "time": 299.16279069767444,
          "velocity": 0.36220472440944884
        },
        {
          "duration": 0.034883720930224626,
          "durationTicks": 3,
          "midi": 56,
          "name": "G#3",
          "ticks": 25728,
          "time": 299.16279069767444,
          "velocity": 0.4251968503937008
        },
        {
          "duration": 0.06976744186044925,
          "durationTicks": 6,
          "midi": 77,
          "name": "F5",
          "ticks": 25728,
          "time": 299.16279069767444,
          "velocity": 0.14173228346456693
        },
        {
          "duration": 0.18604651162786467,
          "durationTicks": 16,
          "midi": 82,
          "name": "A#5",
          "ticks": 25728,
          "time": 299.16279069767444,
          "velocity": 0.14960629921259844
        },
        {
          "duration": 0.10465116279067388,
          "durationTicks": 9,
          "midi": 100,
          "name": "E7",
          "ticks": 25728,
          "time": 299.16279069767444,
          "velocity": 0.13385826771653545
        },
        {
          "duration": 0.25581395348837077,
          "durationTicks": 22,
          "midi": 83,
          "name": "B5",
          "ticks": 25729,
          "time": 299.1744186046512,
          "velocity": 0.28346456692913385
        },
        {
          "duration": 0.05813953488370771,
          "durationTicks": 5,
          "midi": 84,
          "name": "C6",
          "ticks": 25729,
          "time": 299.1744186046512,
          "velocity": 0.08661417322834646
        },
        {
          "duration": 0.023255813953483084,
          "durationTicks": 2,
          "midi": 44,
          "name": "G#2",
          "ticks": 25730,
          "time": 299.1860465116279,
          "velocity": 0.3700787401574803
        },
        {
          "duration": 0.05813953488370771,
          "durationTicks": 5,
          "midi": 61,
          "name": "C#4",
          "ticks": 25730,
          "time": 299.1860465116279,
          "velocity": 0.25196850393700787
        },
        {
          "duration": 0.22093023255814614,
          "durationTicks": 19,
          "midi": 55,
          "name": "G3",
          "ticks": 25731,
          "time": 299.19767441860466,
          "velocity": 0.5196850393700787
        },
        {
          "duration": 0.2325581395348877,
          "durationTicks": 20,
          "midi": 72,
          "name": "C5",
          "ticks": 25731,
          "time": 299.19767441860466,
          "velocity": 0.30708661417322836
        },
        {
          "duration": 0.0813953488371908,
          "durationTicks": 7,
          "midi": 88,
          "name": "E6",
          "ticks": 25732,
          "time": 299.2093023255814,
          "velocity": 0.14960629921259844
        },
        {
          "duration": 0.18604651162792152,
          "durationTicks": 16,
          "midi": 76,
          "name": "E5",
          "ticks": 25734,
          "time": 299.2325581395349,
          "velocity": 0.11811023622047244
        },
        {
          "duration": 0.17441860465117998,
          "durationTicks": 15,
          "midi": 62,
          "name": "D4",
          "ticks": 25735,
          "time": 299.24418604651163,
          "velocity": 0.23622047244094488
        },
        {
          "duration": 0.034883720930224626,
          "durationTicks": 3,
          "midi": 43,
          "name": "G2",
          "ticks": 25741,
          "time": 299.3139534883721,
          "velocity": 0.2755905511811024
        },
        {
          "duration": 0.08139534883724764,
          "durationTicks": 7,
          "midi": 88,
          "name": "E6",
          "ticks": 25741,
          "time": 299.3139534883721,
          "velocity": 0.14173228346456693
        },
        {
          "duration": 0.023255813953483084,
          "durationTicks": 2,
          "midi": 43,
          "name": "G2",
          "ticks": 25749,
          "time": 299.40697674418607,
          "velocity": 0.29133858267716534
        },
        {
          "duration": 0.034883720930224626,
          "durationTicks": 3,
          "midi": 60,
          "name": "C4",
          "ticks": 25751,
          "time": 299.43023255813955,
          "velocity": 0.2755905511811024
        },
        {
          "duration": 0.1395348837208985,
          "durationTicks": 12,
          "midi": 55,
          "name": "G3",
          "ticks": 25753,
          "time": 299.45348837209303,
          "velocity": 0.4015748031496063
        },
        {
          "duration": 0.034883720930224626,
          "durationTicks": 3,
          "midi": 62,
          "name": "D4",
          "ticks": 25755,
          "time": 299.4767441860465,
          "velocity": 0.10236220472440945
        },
        {
          "duration": 0.023255813953483084,
          "durationTicks": 2,
          "midi": 42,
          "name": "F#2",
          "ticks": 25756,
          "time": 299.48837209302326,
          "velocity": 0.44881889763779526
        },
        {
          "duration": 0.023255813953483084,
          "durationTicks": 2,
          "midi": 60,
          "name": "C4",
          "ticks": 25759,
          "time": 299.5232558139535,
          "velocity": 0.23622047244094488
        },
        {
          "duration": 0.04651162790696617,
          "durationTicks": 4,
          "midi": 71,
          "name": "B4",
          "ticks": 25759,
          "time": 299.5232558139535,
          "velocity": 0.09448818897637795
        },
        {
          "duration": 0.04651162790696617,
          "durationTicks": 4,
          "midi": 42,
          "name": "F#2",
          "ticks": 25762,
          "time": 299.5581395348837,
          "velocity": 0.3228346456692913
        },
        {
          "duration": 0.023255813953483084,
          "durationTicks": 2,
          "midi": 48,
          "name": "C3",
          "ticks": 25764,
          "time": 299.5813953488372,
          "velocity": 0.23622047244094488
        },
        {
          "duration": 0.03488372093028147,
          "durationTicks": 3,
          "midi": 43,
          "name": "G2",
          "ticks": 25766,
          "time": 299.6046511627907,
          "velocity": 0.3858267716535433
        },
        {
          "duration": 0.09302325581398918,
          "durationTicks": 8,
          "midi": 55,
          "name": "G3",
          "ticks": 25766,
          "time": 299.6046511627907,
          "velocity": 0.5118110236220472
        },
        {
          "duration": 0.03488372093028147,
          "durationTicks": 3,
          "midi": 74,
          "name": "D5",
          "ticks": 25766,
          "time": 299.6046511627907,
          "velocity": 0.11811023622047244
        },
        {
          "duration": 0.023255813953483084,
          "durationTicks": 2,
          "midi": 60,
          "name": "C4",
          "ticks": 25768,
          "time": 299.6279069767442,
          "velocity": 0.2440944881889764
        },
        {
          "duration": 0.023255813953483084,
          "durationTicks": 2,
          "midi": 43,
          "name": "G2",
          "ticks": 25770,
          "time": 299.6511627906977,
          "velocity": 0.25984251968503935
        },
        {
          "duration": 0.034883720930224626,
          "durationTicks": 3,
          "midi": 61,
          "name": "C#4",
          "ticks": 25770,
          "time": 299.6511627906977,
          "velocity": 0.3464566929133858
        },
        {
          "duration": 0.023255813953483084,
          "durationTicks": 2,
          "midi": 44,
          "name": "G#2",
          "ticks": 25772,
          "time": 299.6744186046512,
          "velocity": 0.28346456692913385
        },
        {
          "duration": 0.27906976744185386,
          "durationTicks": 24,
          "midi": 72,
          "name": "C5",
          "ticks": 25772,
          "time": 299.6744186046512,
          "velocity": 0.4015748031496063
        },
        {
          "duration": 0.0813953488371908,
          "durationTicks": 7,
          "midi": 88,
          "name": "E6",
          "ticks": 25772,
          "time": 299.6744186046512,
          "velocity": 0.2283464566929134
        },
        {
          "duration": 0.034883720930224626,
          "durationTicks": 3,
          "midi": 98,
          "name": "D7",
          "ticks": 25772,
          "time": 299.6744186046512,
          "velocity": 0.08661417322834646
        },
        {
          "duration": 0.25581395348837077,
          "durationTicks": 22,
          "midi": 60,
          "name": "C4",
          "ticks": 25773,
          "time": 299.6860465116279,
          "velocity": 0.4645669291338583
        },
        {
          "duration": 0.19767441860466306,
          "durationTicks": 17,
          "midi": 83,
          "name": "B5",
          "ticks": 25773,
          "time": 299.6860465116279,
          "velocity": 0.2047244094488189
        },
        {
          "duration": 0.023255813953483084,
          "durationTicks": 2,
          "midi": 44,
          "name": "G#2",
          "ticks": 25775,
          "time": 299.7093023255814,
          "velocity": 0.36220472440944884
        },
        {
          "duration": 0.2325581395348877,
          "durationTicks": 20,
          "midi": 55,
          "name": "G3",
          "ticks": 25775,
          "time": 299.7093023255814,
          "velocity": 0.47244094488188976
        },
        {
          "duration": 0.2325581395348877,
          "durationTicks": 20,
          "midi": 74,
          "name": "D5",
          "ticks": 25776,
          "time": 299.72093023255815,
          "velocity": 0.16535433070866143
        },
        {
          "duration": 0.023255813953483084,
          "durationTicks": 2,
          "midi": 43,
          "name": "G2",
          "ticks": 25779,
          "time": 299.75581395348837,
          "velocity": 0.4094488188976378
        },
        {
          "duration": 0.06976744186044925,
          "durationTicks": 6,
          "midi": 88,
          "name": "E6",
          "ticks": 25781,
          "time": 299.77906976744185,
          "velocity": 0.13385826771653545
        },
        {
          "duration": 0.034883720930224626,
          "durationTicks": 3,
          "midi": 43,
          "name": "G2",
          "ticks": 25783,
          "time": 299.80232558139534,
          "velocity": 0.4094488188976378
        },
        {
          "duration": 0.08139534883724764,
          "durationTicks": 7,
          "midi": 43,
          "name": "G2",
          "ticks": 25787,
          "time": 299.8488372093023,
          "velocity": 0.4094488188976378
        },
        {
          "duration": 0.0697674418605061,
          "durationTicks": 6,
          "midi": 88,
          "name": "E6",
          "ticks": 25788,
          "time": 299.86046511627904,
          "velocity": 0.11023622047244094
        },
        {
          "duration": 0.023255813953483084,
          "durationTicks": 2,
          "midi": 44,
          "name": "G#2",
          "ticks": 25794,
          "time": 299.93023255813955,
          "velocity": 0.4251968503937008
        },
        {
          "duration": 0.034883720930224626,
          "durationTicks": 3,
          "midi": 71,
          "name": "B4",
          "ticks": 25796,
          "time": 299.95348837209303,
          "velocity": 0.16535433070866143
        },
        {
          "duration": 0.023255813953483084,
          "durationTicks": 2,
          "midi": 57,
          "name": "A3",
          "ticks": 25797,
          "time": 299.9651162790698,
          "velocity": 0.3464566929133858
        },
        {
          "duration": 0.06976744186044925,
          "durationTicks": 6,
          "midi": 55,
          "name": "G3",
          "ticks": 25800,
          "time": 300,
          "velocity": 0.4566929133858268
        },
        {
          "duration": 0.023255813953483084,
          "durationTicks": 2,
          "midi": 42,
          "name": "F#2",
          "ticks": 25801,
          "time": 300.01162790697674,
          "velocity": 0.3937007874015748
        },
        {
          "duration": 0.05813953488370771,
          "durationTicks": 5,
          "midi": 71,
          "name": "B4",
          "ticks": 25805,
          "time": 300.0581395348837,
          "velocity": 0.1732283464566929
        },
        {
          "duration": 0.04651162790696617,
          "durationTicks": 4,
          "midi": 56,
          "name": "G#3",
          "ticks": 25806,
          "time": 300.06976744186045,
          "velocity": 0.3858267716535433
        },
        {
          "duration": 0.034883720930224626,
          "durationTicks": 3,
          "midi": 62,
          "name": "D4",
          "ticks": 25807,
          "time": 300.0813953488372,
          "velocity": 0.11023622047244094
        },
        {
          "duration": 0.06976744186044925,
          "durationTicks": 6,
          "midi": 55,
          "name": "G3",
          "ticks": 25811,
          "time": 300.1279069767442,
          "velocity": 0.48031496062992124
        },
        {
          "duration": 0.32558139534882,
          "durationTicks": 28,
          "midi": 60,
          "name": "C4",
          "ticks": 25811,
          "time": 300.1279069767442,
          "velocity": 0.4645669291338583
        },
        {
          "duration": 0.2093023255814046,
          "durationTicks": 18,
          "midi": 88,
          "name": "E6",
          "ticks": 25816,
          "time": 300.1860465116279,
          "velocity": 0.2440944881889764
        },
        {
          "duration": 0.2093023255814046,
          "durationTicks": 18,
          "midi": 79,
          "name": "G5",
          "ticks": 25817,
          "time": 300.19767441860466,
          "velocity": 0.1889763779527559
        },
        {
          "duration": 0.27906976744185386,
          "durationTicks": 24,
          "midi": 83,
          "name": "B5",
          "ticks": 25817,
          "time": 300.19767441860466,
          "velocity": 0.2755905511811024
        },
        {
          "duration": 0.034883720930224626,
          "durationTicks": 3,
          "midi": 42,
          "name": "F#2",
          "ticks": 25818,
          "time": 300.2093023255814,
          "velocity": 0.2755905511811024
        },
        {
          "duration": 0.18604651162792152,
          "durationTicks": 16,
          "midi": 55,
          "name": "G3",
          "ticks": 25821,
          "time": 300.24418604651163,
          "velocity": 0.4094488188976378
        },
        {
          "duration": 0.034883720930224626,
          "durationTicks": 3,
          "midi": 43,
          "name": "G2",
          "ticks": 25823,
          "time": 300.2674418604651,
          "velocity": 0.25196850393700787
        },
        {
          "duration": 0.023255813953483084,
          "durationTicks": 2,
          "midi": 43,
          "name": "G2",
          "ticks": 25836,
          "time": 300.4186046511628,
          "velocity": 0.2283464566929134
        },
        {
          "duration": 0.023255813953483084,
          "durationTicks": 2,
          "midi": 44,
          "name": "G#2",
          "ticks": 25838,
          "time": 300.4418604651163,
          "velocity": 0.3464566929133858
        },
        {
          "duration": 0.10465116279067388,
          "durationTicks": 9,
          "midi": 55,
          "name": "G3",
          "ticks": 25838,
          "time": 300.4418604651163,
          "velocity": 0.44881889763779526
        },
        {
          "duration": 0.05813953488370771,
          "durationTicks": 5,
          "midi": 88,
          "name": "E6",
          "ticks": 25838,
          "time": 300.4418604651163,
          "velocity": 0.09448818897637795
        },
        {
          "duration": 0.023255813953483084,
          "durationTicks": 2,
          "midi": 59,
          "name": "B3",
          "ticks": 25839,
          "time": 300.45348837209303,
          "velocity": 0.25196850393700787
        },
        {
          "duration": 0.04651162790696617,
          "durationTicks": 4,
          "midi": 45,
          "name": "A2",
          "ticks": 25840,
          "time": 300.4651162790698,
          "velocity": 0.3700787401574803
        },
        {
          "duration": 0.04651162790696617,
          "durationTicks": 4,
          "midi": 69,
          "name": "A4",
          "ticks": 25840,
          "time": 300.4651162790698,
          "velocity": 0.09448818897637795
        },
        {
          "duration": 0.034883720930224626,
          "durationTicks": 3,
          "midi": 80,
          "name": "G#5",
          "ticks": 25840,
          "time": 300.4651162790698,
          "velocity": 0.16535433070866143
        },
        {
          "duration": 0.04651162790696617,
          "durationTicks": 4,
          "midi": 60,
          "name": "C4",
          "ticks": 25841,
          "time": 300.4767441860465,
          "velocity": 0.2440944881889764
        },
        {
          "duration": 0.034883720930224626,
          "durationTicks": 3,
          "midi": 74,
          "name": "D5",
          "ticks": 25841,
          "time": 300.4767441860465,
          "velocity": 0.09448818897637795
        },
        {
          "duration": 0.04651162790696617,
          "durationTicks": 4,
          "midi": 42,
          "name": "F#2",
          "ticks": 25844,
          "time": 300.51162790697674,
          "velocity": 0.3779527559055118
        },
        {
          "duration": 0.023255813953483084,
          "durationTicks": 2,
          "midi": 54,
          "name": "F#3",
          "ticks": 25847,
          "time": 300.54651162790697,
          "velocity": 0.4015748031496063
        },
        {
          "duration": 0.09302325581398918,
          "durationTicks": 8,
          "midi": 74,
          "name": "D5",
          "ticks": 25848,
          "time": 300.5581395348837,
          "velocity": 0.18110236220472442
        },
        {
          "duration": 0.023255813953483084,
          "durationTicks": 2,
          "midi": 55,
          "name": "G3",
          "ticks": 25849,
          "time": 300.56976744186045,
          "velocity": 0.4094488188976378
        },
        {
          "duration": 0.04651162790702301,
          "durationTicks": 4,
          "midi": 43,
          "name": "G2",
          "ticks": 25851,
          "time": 300.59302325581393,
          "velocity": 0.3779527559055118
        },
        {
          "duration": 0.09302325581398918,
          "durationTicks": 8,
          "midi": 71,
          "name": "B4",
          "ticks": 25851,
          "time": 300.59302325581393,
          "velocity": 0.1732283464566929
        },
        {
          "duration": 0.3139534883721353,
          "durationTicks": 27,
          "midi": 55,
          "name": "G3",
          "ticks": 25853,
          "time": 300.6162790697674,
          "velocity": 0.5669291338582677
        },
        {
          "duration": 0.023255813953483084,
          "durationTicks": 2,
          "midi": 44,
          "name": "G#2",
          "ticks": 25855,
          "time": 300.63953488372096,
          "velocity": 0.41732283464566927
        },
        {
          "duration": 0.023255813953483084,
          "durationTicks": 2,
          "midi": 43,
          "name": "G2",
          "ticks": 25857,
          "time": 300.66279069767444,
          "velocity": 0.3228346456692913
        },
        {
          "duration": 0.05813953488370771,
          "durationTicks": 5,
          "midi": 60,
          "name": "C4",
          "ticks": 25858,
          "time": 300.6744186046512,
          "velocity": 0.33858267716535434
        },
        {
          "duration": 0.034883720930224626,
          "durationTicks": 3,
          "midi": 44,
          "name": "G#2",
          "ticks": 25859,
          "time": 300.6860465116279,
          "velocity": 0.28346456692913385
        },
        {
          "duration": 0.034883720930224626,
          "durationTicks": 3,
          "midi": 74,
          "name": "D5",
          "ticks": 25861,
          "time": 300.7093023255814,
          "velocity": 0.15748031496062992
        },
        {
          "duration": 0.04651162790696617,
          "durationTicks": 4,
          "midi": 76,
          "name": "E5",
          "ticks": 25862,
          "time": 300.72093023255815,
          "velocity": 0.09448818897637795
        },
        {
          "duration": 0.17441860465117998,
          "durationTicks": 15,
          "midi": 88,
          "name": "E6",
          "ticks": 25862,
          "time": 300.72093023255815,
          "velocity": 0.2283464566929134
        },
        {
          "duration": 0.023255813953483084,
          "durationTicks": 2,
          "midi": 44,
          "name": "G#2",
          "ticks": 25863,
          "time": 300.7325581395349,
          "velocity": 0.25196850393700787
        },
        {
          "duration": 0.16279069767443843,
          "durationTicks": 14,
          "midi": 60,
          "name": "C4",
          "ticks": 25864,
          "time": 300.74418604651163,
          "velocity": 0.3228346456692913
        },
        {
          "duration": 0.034883720930224626,
          "durationTicks": 3,
          "midi": 81,
          "name": "A5",
          "ticks": 25864,
          "time": 300.74418604651163,
          "velocity": 0.09448818897637795
        },
        {
          "duration": 0.023255813953483084,
          "durationTicks": 2,
          "midi": 43,
          "name": "G2",
          "ticks": 25870,
          "time": 300.8139534883721,
          "velocity": 0.2677165354330709
        },
        {
          "duration": 0.023255813953483084,
          "durationTicks": 2,
          "midi": 71,
          "name": "B4",
          "ticks": 25871,
          "time": 300.8255813953488,
          "velocity": 0.25196850393700787
        },
        {
          "duration": 0.023255813953539928,
          "durationTicks": 2,
          "midi": 44,
          "name": "G#2",
          "ticks": 25874,
          "time": 300.86046511627904,
          "velocity": 0.33070866141732286
        },
        {
          "duration": 0.04651162790702301,
          "durationTicks": 4,
          "midi": 74,
          "name": "D5",
          "ticks": 25874,
          "time": 300.86046511627904,
          "velocity": 0.15748031496062992
        },
        {
          "duration": 0.03488372093028147,
          "durationTicks": 3,
          "midi": 83,
          "name": "B5",
          "ticks": 25875,
          "time": 300.8720930232558,
          "velocity": 0.12598425196850394
        },
        {
          "duration": 0.023255813953483084,
          "durationTicks": 2,
          "midi": 43,
          "name": "G2",
          "ticks": 25876,
          "time": 300.8837209302326,
          "velocity": 0.29133858267716534
        },
        {
          "duration": 0.023255813953483084,
          "durationTicks": 2,
          "midi": 42,
          "name": "F#2",
          "ticks": 25878,
          "time": 300.90697674418607,
          "velocity": 0.23622047244094488
        },
        {
          "duration": 0.05813953488370771,
          "durationTicks": 5,
          "midi": 57,
          "name": "A3",
          "ticks": 25881,
          "time": 300.9418604651163,
          "velocity": 0.31496062992125984
        },
        {
          "duration": 0.023255813953483084,
          "durationTicks": 2,
          "midi": 43,
          "name": "G2",
          "ticks": 25886,
          "time": 301,
          "velocity": 0.2755905511811024
        },
        {
          "duration": 0.023255813953483084,
          "durationTicks": 2,
          "midi": 58,
          "name": "A#3",
          "ticks": 25886,
          "time": 301,
          "velocity": 0.3937007874015748
        },
        {
          "duration": 0.22093023255814614,
          "durationTicks": 19,
          "midi": 78,
          "name": "F#5",
          "ticks": 25887,
          "time": 301.01162790697674,
          "velocity": 0.23622047244094488
        },
        {
          "duration": 0.2325581395348877,
          "durationTicks": 20,
          "midi": 81,
          "name": "A5",
          "ticks": 25887,
          "time": 301.01162790697674,
          "velocity": 0.2992125984251969
        },
        {
          "duration": 0.1511627906976969,
          "durationTicks": 13,
          "midi": 88,
          "name": "E6",
          "ticks": 25887,
          "time": 301.01162790697674,
          "velocity": 0.18110236220472442
        },
        {
          "duration": 0.22093023255814614,
          "durationTicks": 19,
          "midi": 57,
          "name": "A3",
          "ticks": 25888,
          "time": 301.0232558139535,
          "velocity": 0.47244094488188976
        },
        {
          "duration": 0.05813953488370771,
          "durationTicks": 5,
          "midi": 84,
          "name": "C6",
          "ticks": 25888,
          "time": 301.0232558139535,
          "velocity": 0.14960629921259844
        },
        {
          "duration": 0.2325581395348877,
          "durationTicks": 20,
          "midi": 74,
          "name": "D5",
          "ticks": 25889,
          "time": 301.0348837209302,
          "velocity": 0.25984251968503935
        },
        {
          "duration": 0.2093023255814046,
          "durationTicks": 18,
          "midi": 76,
          "name": "E5",
          "ticks": 25889,
          "time": 301.0348837209302,
          "velocity": 0.14960629921259844
        },
        {
          "duration": 0.2093023255814046,
          "durationTicks": 18,
          "midi": 50,
          "name": "D3",
          "ticks": 25890,
          "time": 301.04651162790697,
          "velocity": 0.3937007874015748
        },
        {
          "duration": 0.034883720930224626,
          "durationTicks": 3,
          "midi": 66,
          "name": "F#4",
          "ticks": 25890,
          "time": 301.04651162790697,
          "velocity": 0.14173228346456693
        },
        {
          "duration": 0.04651162790696617,
          "durationTicks": 4,
          "midi": 56,
          "name": "G#3",
          "ticks": 25907,
          "time": 301.24418604651163,
          "velocity": 0.2755905511811024
        },
        {
          "duration": 0.17441860465117998,
          "durationTicks": 15,
          "midi": 57,
          "name": "A3",
          "ticks": 25911,
          "time": 301.2906976744186,
          "velocity": 0.2755905511811024
        },
        {
          "duration": 0.19767441860466306,
          "durationTicks": 17,
          "midi": 74,
          "name": "D5",
          "ticks": 25911,
          "time": 301.2906976744186,
          "velocity": 0.36220472440944884
        },
        {
          "duration": 0.16279069767443843,
          "durationTicks": 14,
          "midi": 81,
          "name": "A5",
          "ticks": 25911,
          "time": 301.2906976744186,
          "velocity": 0.1732283464566929
        },
        {
          "duration": 0.04651162790696617,
          "durationTicks": 4,
          "midi": 96,
          "name": "C7",
          "ticks": 25911,
          "time": 301.2906976744186,
          "velocity": 0.07874015748031496
        },
        {
          "duration": 0.19767441860466306,
          "durationTicks": 17,
          "midi": 62,
          "name": "D4",
          "ticks": 25912,
          "time": 301.30232558139534,
          "velocity": 0.4015748031496063
        },
        {
          "duration": 0.08139534883724764,
          "durationTicks": 7,
          "midi": 44,
          "name": "G#2",
          "ticks": 25913,
          "time": 301.3139534883721,
          "velocity": 0.2125984251968504
        },
        {
          "duration": 0.034883720930224626,
          "durationTicks": 3,
          "midi": 56,
          "name": "G#3",
          "ticks": 25926,
          "time": 301.4651162790698,
          "velocity": 0.1889763779527559
        },
        {
          "duration": 0.13953488372095535,
          "durationTicks": 12,
          "midi": 69,
          "name": "A4",
          "ticks": 25931,
          "time": 301.5232558139535,
          "velocity": 0.25984251968503935
        },
        {
          "duration": 0.2674418604651123,
          "durationTicks": 23,
          "midi": 81,
          "name": "A5",
          "ticks": 25931,
          "time": 301.5232558139535,
          "velocity": 0.25984251968503935
        },
        {
          "duration": 0.17441860465117998,
          "durationTicks": 15,
          "midi": 84,
          "name": "C6",
          "ticks": 25931,
          "time": 301.5232558139535,
          "velocity": 0.2283464566929134
        },
        {
          "duration": 0.2325581395348877,
          "durationTicks": 20,
          "midi": 88,
          "name": "E6",
          "ticks": 25931,
          "time": 301.5232558139535,
          "velocity": 0.14960629921259844
        },
        {
          "duration": 0.0813953488371908,
          "durationTicks": 7,
          "midi": 50,
          "name": "D3",
          "ticks": 25932,
          "time": 301.5348837209302,
          "velocity": 0.3700787401574803
        },
        {
          "duration": 0.023255813953483084,
          "durationTicks": 2,
          "midi": 55,
          "name": "G3",
          "ticks": 25932,
          "time": 301.5348837209302,
          "velocity": 0.33070866141732286
        },
        {
          "duration": 0.24418604651162923,
          "durationTicks": 21,
          "midi": 62,
          "name": "D4",
          "ticks": 25932,
          "time": 301.5348837209302,
          "velocity": 0.41732283464566927
        },
        {
          "duration": 0.25581395348837077,
          "durationTicks": 22,
          "midi": 76,
          "name": "E5",
          "ticks": 25932,
          "time": 301.5348837209302,
          "velocity": 0.2283464566929134
        },
        {
          "duration": 0.09302325581398918,
          "durationTicks": 8,
          "midi": 86,
          "name": "D6",
          "ticks": 25932,
          "time": 301.5348837209302,
          "velocity": 0.14173228346456693
        },
        {
          "duration": 0.11627906976747227,
          "durationTicks": 10,
          "midi": 102,
          "name": "F#7",
          "ticks": 25932,
          "time": 301.5348837209302,
          "velocity": 0.1889763779527559
        },
        {
          "duration": 0.2325581395348877,
          "durationTicks": 20,
          "midi": 78,
          "name": "F#5",
          "ticks": 25934,
          "time": 301.5581395348837,
          "velocity": 0.09448818897637795
        },
        {
          "duration": 0.023255813953483084,
          "durationTicks": 2,
          "midi": 57,
          "name": "A3",
          "ticks": 25936,
          "time": 301.5813953488372,
          "velocity": 0.2755905511811024
        },
        {
          "duration": 0.16279069767443843,
          "durationTicks": 14,
          "midi": 57,
          "name": "A3",
          "ticks": 25939,
          "time": 301.6162790697674,
          "velocity": 0.33070866141732286
        },
        {
          "duration": 0.1627906976743816,
          "durationTicks": 14,
          "midi": 50,
          "name": "D3",
          "ticks": 25940,
          "time": 301.6279069767442,
          "velocity": 0.3937007874015748
        },
        {
          "duration": 0.04651162790696617,
          "durationTicks": 4,
          "midi": 102,
          "name": "F#7",
          "ticks": 25945,
          "time": 301.6860465116279,
          "velocity": 0.07874015748031496
        },
        {
          "duration": 0.04651162790696617,
          "durationTicks": 4,
          "midi": 98,
          "name": "D7",
          "ticks": 25949,
          "time": 301.7325581395349,
          "velocity": 0.10236220472440945
        },
        {
          "duration": 0.023255813953483084,
          "durationTicks": 2,
          "midi": 56,
          "name": "G#3",
          "ticks": 25953,
          "time": 301.77906976744185,
          "velocity": 0.3543307086614173
        },
        {
          "duration": 0.06976744186044925,
          "durationTicks": 6,
          "midi": 61,
          "name": "C#4",
          "ticks": 25953,
          "time": 301.77906976744185,
          "velocity": 0.3543307086614173
        },
        {
          "duration": 0.04651162790702301,
          "durationTicks": 4,
          "midi": 62,
          "name": "D4",
          "ticks": 25961,
          "time": 301.8720930232558,
          "velocity": 0.10236220472440945
        },
        {
          "duration": 0.023255813953483084,
          "durationTicks": 2,
          "midi": 45,
          "name": "A2",
          "ticks": 25965,
          "time": 301.9186046511628,
          "velocity": 0.2992125984251969
        },
        {
          "duration": 0.034883720930224626,
          "durationTicks": 3,
          "midi": 55,
          "name": "G3",
          "ticks": 25965,
          "time": 301.9186046511628,
          "velocity": 0.3464566929133858
        },
        {
          "duration": 0.06976744186044925,
          "durationTicks": 6,
          "midi": 92,
          "name": "G#6",
          "ticks": 25965,
          "time": 301.9186046511628,
          "velocity": 0.15748031496062992
        },
        {
          "duration": 0.10465116279067388,
          "durationTicks": 9,
          "midi": 102,
          "name": "F#7",
          "ticks": 25965,
          "time": 301.9186046511628,
          "velocity": 0.18110236220472442
        },
        {
          "duration": 0.2674418604651123,
          "durationTicks": 23,
          "midi": 61,
          "name": "C#4",
          "ticks": 25966,
          "time": 301.93023255813955,
          "velocity": 0.4645669291338583
        },
        {
          "duration": 0.1627906976743816,
          "durationTicks": 14,
          "midi": 68,
          "name": "G#4",
          "ticks": 25966,
          "time": 301.93023255813955,
          "velocity": 0.14173228346456693
        },
        {
          "duration": 0.17441860465112313,
          "durationTicks": 15,
          "midi": 83,
          "name": "B5",
          "ticks": 25966,
          "time": 301.93023255813955,
          "velocity": 0.14960629921259844
        },
        {
          "duration": 0.09302325581393234,
          "durationTicks": 8,
          "midi": 85,
          "name": "C#6",
          "ticks": 25966,
          "time": 301.93023255813955,
          "velocity": 0.15748031496062992
        },
        {
          "duration": 0.034883720930224626,
          "durationTicks": 3,
          "midi": 93,
          "name": "A6",
          "ticks": 25967,
          "time": 301.9418604651163,
          "velocity": 0.14173228346456693
        },
        {
          "duration": 0.04651162790696617,
          "durationTicks": 4,
          "midi": 49,
          "name": "C#3",
          "ticks": 25971,
          "time": 301.98837209302326,
          "velocity": 0.2992125984251969
        },
        {
          "duration": 0.05813953488370771,
          "durationTicks": 5,
          "midi": 55,
          "name": "G3",
          "ticks": 25975,
          "time": 302.0348837209302,
          "velocity": 0.4409448818897638
        },
        {
          "duration": 0.023255813953483084,
          "durationTicks": 2,
          "midi": 45,
          "name": "A2",
          "ticks": 25976,
          "time": 302.04651162790697,
          "velocity": 0.33070866141732286
        },
        {
          "duration": 0.034883720930224626,
          "durationTicks": 3,
          "midi": 81,
          "name": "A5",
          "ticks": 25976,
          "time": 302.04651162790697,
          "velocity": 0.14173228346456693
        },
        {
          "duration": 0.24418604651162923,
          "durationTicks": 21,
          "midi": 87,
          "name": "D#6",
          "ticks": 25976,
          "time": 302.04651162790697,
          "velocity": 0.15748031496062992
        },
        {
          "duration": 0.023255813953483084,
          "durationTicks": 2,
          "midi": 44,
          "name": "G#2",
          "ticks": 25978,
          "time": 302.06976744186045,
          "velocity": 0.3464566929133858
        },
        {
          "duration": 0.08139534883724764,
          "durationTicks": 7,
          "midi": 98,
          "name": "D7",
          "ticks": 25979,
          "time": 302.0813953488372,
          "velocity": 0.07086614173228346
        },
        {
          "duration": 0.2093023255814046,
          "durationTicks": 18,
          "midi": 56,
          "name": "G#3",
          "ticks": 25980,
          "time": 302.09302325581393,
          "velocity": 0.33070866141732286
        },
        {
          "duration": 0.09302325581398918,
          "durationTicks": 8,
          "midi": 75,
          "name": "D#5",
          "ticks": 25980,
          "time": 302.09302325581393,
          "velocity": 0.12598425196850394
        },
        {
          "duration": 0.09302325581398918,
          "durationTicks": 8,
          "midi": 44,
          "name": "G#2",
          "ticks": 25981,
          "time": 302.1046511627907,
          "velocity": 0.33858267716535434
        },
        {
          "duration": 0.04651162790702301,
          "durationTicks": 4,
          "midi": 102,
          "name": "F#7",
          "ticks": 25982,
          "time": 302.1162790697674,
          "velocity": 0.09448818897637795
        },
        {
          "duration": 0.06976744186044925,
          "durationTicks": 6,
          "midi": 83,
          "name": "B5",
          "ticks": 25983,
          "time": 302.1279069767442,
          "velocity": 0.14173228346456693
        },
        {
          "duration": 0.1395348837208985,
          "durationTicks": 12,
          "midi": 92,
          "name": "G#6",
          "ticks": 25988,
          "time": 302.1860465116279,
          "velocity": 0.1968503937007874
        },
        {
          "duration": 0.0813953488371908,
          "durationTicks": 7,
          "midi": 63,
          "name": "D#4",
          "ticks": 25989,
          "time": 302.19767441860466,
          "velocity": 0.2204724409448819
        },
        {
          "duration": 0.12790697674415696,
          "durationTicks": 11,
          "midi": 89,
          "name": "F6",
          "ticks": 25989,
          "time": 302.19767441860466,
          "velocity": 0.10236220472440945
        },
        {
          "duration": 0.06976744186044925,
          "durationTicks": 6,
          "midi": 95,
          "name": "B6",
          "ticks": 25990,
          "time": 302.2093023255814,
          "velocity": 0.07086614173228346
        },
        {
          "duration": 0.023255813953483084,
          "durationTicks": 2,
          "midi": 49,
          "name": "C#3",
          "ticks": 25995,
          "time": 302.2674418604651,
          "velocity": 0.3464566929133858
        },
        {
          "duration": 0.023255813953483084,
          "durationTicks": 2,
          "midi": 48,
          "name": "C3",
          "ticks": 25997,
          "time": 302.2906976744186,
          "velocity": 0.29133858267716534
        },
        {
          "duration": 0.034883720930224626,
          "durationTicks": 3,
          "midi": 55,
          "name": "G3",
          "ticks": 25998,
          "time": 302.30232558139534,
          "velocity": 0.31496062992125984
        },
        {
          "duration": 0.10465116279073072,
          "durationTicks": 9,
          "midi": 61,
          "name": "C#4",
          "ticks": 25998,
          "time": 302.30232558139534,
          "velocity": 0.33070866141732286
        },
        {
          "duration": 0.04651162790696617,
          "durationTicks": 4,
          "midi": 42,
          "name": "F#2",
          "ticks": 26006,
          "time": 302.3953488372093,
          "velocity": 0.16535433070866143
        },
        {
          "duration": 0.034883720930224626,
          "durationTicks": 3,
          "midi": 48,
          "name": "C3",
          "ticks": 26011,
          "time": 302.45348837209303,
          "velocity": 0.31496062992125984
        },
        {
          "duration": 0.11627906976741542,
          "durationTicks": 10,
          "midi": 61,
          "name": "C#4",
          "ticks": 26011,
          "time": 302.45348837209303,
          "velocity": 0.36220472440944884
        },
        {
          "duration": 0.15116279069764005,
          "durationTicks": 13,
          "midi": 68,
          "name": "G#4",
          "ticks": 26011,
          "time": 302.45348837209303,
          "velocity": 0.15748031496062992
        },
        {
          "duration": 0.17441860465117998,
          "durationTicks": 15,
          "midi": 83,
          "name": "B5",
          "ticks": 26011,
          "time": 302.45348837209303,
          "velocity": 0.13385826771653545
        },
        {
          "duration": 0.09302325581393234,
          "durationTicks": 8,
          "midi": 85,
          "name": "C#6",
          "ticks": 26011,
          "time": 302.45348837209303,
          "velocity": 0.12598425196850394
        },
        {
          "duration": 0.04651162790696617,
          "durationTicks": 4,
          "midi": 92,
          "name": "G#6",
          "ticks": 26011,
          "time": 302.45348837209303,
          "velocity": 0.11023622047244094
        },
        {
          "duration": 0.05813953488370771,
          "durationTicks": 5,
          "midi": 102,
          "name": "F#7",
          "ticks": 26011,
          "time": 302.45348837209303,
          "velocity": 0.13385826771653545
        },
        {
          "duration": 0.034883720930224626,
          "durationTicks": 3,
          "midi": 93,
          "name": "A6",
          "ticks": 26012,
          "time": 302.4651162790698,
          "velocity": 0.11023622047244094
        },
        {
          "duration": 0.06976744186044925,
          "durationTicks": 6,
          "midi": 49,
          "name": "C#3",
          "ticks": 26016,
          "time": 302.51162790697674,
          "velocity": 0.4094488188976378
        },
        {
          "duration": 0.034883720930224626,
          "durationTicks": 3,
          "midi": 62,
          "name": "D4",
          "ticks": 26021,
          "time": 302.56976744186045,
          "velocity": 0.3228346456692913
        },
        {
          "duration": 0.2325581395348877,
          "durationTicks": 20,
          "midi": 73,
          "name": "C#5",
          "ticks": 26021,
          "time": 302.56976744186045,
          "velocity": 0.33858267716535434
        },
        {
          "duration": 0.11627906976747227,
          "durationTicks": 10,
          "midi": 87,
          "name": "D#6",
          "ticks": 26021,
          "time": 302.56976744186045,
          "velocity": 0.11811023622047244
        },
        {
          "duration": 0.034883720930224626,
          "durationTicks": 3,
          "midi": 55,
          "name": "G3",
          "ticks": 26022,
          "time": 302.5813953488372,
          "velocity": 0.3858267716535433
        },
        {
          "duration": 0.2674418604651123,
          "durationTicks": 23,
          "midi": 75,
          "name": "D#5",
          "ticks": 26022,
          "time": 302.5813953488372,
          "velocity": 0.31496062992125984
        },
        {
          "duration": 0.023255813953483084,
          "durationTicks": 2,
          "midi": 49,
          "name": "C#3",
          "ticks": 26023,
          "time": 302.59302325581393,
          "velocity": 0.4566929133858268
        },
        {
          "duration": 0.0697674418605061,
          "durationTicks": 6,
          "midi": 98,
          "name": "D7",
          "ticks": 26023,
          "time": 302.59302325581393,
          "velocity": 0.1889763779527559
        },
        {
          "duration": 0.45348837209303383,
          "durationTicks": 39,
          "midi": 61,
          "name": "C#4",
          "ticks": 26024,
          "time": 302.6046511627907,
          "velocity": 0.4881889763779528
        },
        {
          "duration": 0.24418604651162923,
          "durationTicks": 21,
          "midi": 80,
          "name": "G#5",
          "ticks": 26024,
          "time": 302.6046511627907,
          "velocity": 0.2047244094488189
        },
        {
          "duration": 0.10465116279073072,
          "durationTicks": 9,
          "midi": 56,
          "name": "G#3",
          "ticks": 26025,
          "time": 302.6162790697674,
          "velocity": 0.2677165354330709
        },
        {
          "duration": 0.04651162790696617,
          "durationTicks": 4,
          "midi": 49,
          "name": "C#3",
          "ticks": 26026,
          "time": 302.6279069767442,
          "velocity": 0.4251968503937008
        },
        {
          "duration": 0.06976744186044925,
          "durationTicks": 6,
          "midi": 77,
          "name": "F5",
          "ticks": 26026,
          "time": 302.6279069767442,
          "velocity": 0.08661417322834646
        },
        {
          "duration": 0.034883720930224626,
          "durationTicks": 3,
          "midi": 49,
          "name": "C#3",
          "ticks": 26032,
          "time": 302.69767441860466,
          "velocity": 0.3700787401574803
        },
        {
          "duration": 0.09302325581393234,
          "durationTicks": 8,
          "midi": 89,
          "name": "F6",
          "ticks": 26033,
          "time": 302.7093023255814,
          "velocity": 0.16535433070866143
        },
        {
          "duration": 0.09302325581393234,
          "durationTicks": 8,
          "midi": 56,
          "name": "G#3",
          "ticks": 26035,
          "time": 302.7325581395349,
          "velocity": 0.2755905511811024
        },
        {
          "duration": 0.06976744186044925,
          "durationTicks": 6,
          "midi": 49,
          "name": "C#3",
          "ticks": 26036,
          "time": 302.74418604651163,
          "velocity": 0.33070866141732286
        },
        {
          "duration": 0.023255813953483084,
          "durationTicks": 2,
          "midi": 44,
          "name": "G#2",
          "ticks": 26043,
          "time": 302.8255813953488,
          "velocity": 0.29133858267716534
        },
        {
          "duration": 0.11627906976747227,
          "durationTicks": 10,
          "midi": 83,
          "name": "B5",
          "ticks": 26044,
          "time": 302.83720930232556,
          "velocity": 0.14960629921259844
        },
        {
          "duration": 0.11627906976747227,
          "durationTicks": 10,
          "midi": 85,
          "name": "C#6",
          "ticks": 26044,
          "time": 302.83720930232556,
          "velocity": 0.16535433070866143
        },
        {
          "duration": 0.04651162790702301,
          "durationTicks": 4,
          "midi": 93,
          "name": "A6",
          "ticks": 26044,
          "time": 302.83720930232556,
          "velocity": 0.11023622047244094
        },
        {
          "duration": 0.023255813953539928,
          "durationTicks": 2,
          "midi": 42,
          "name": "F#2",
          "ticks": 26046,
          "time": 302.86046511627904,
          "velocity": 0.25196850393700787
        },
        {
          "duration": 0.06976744186044925,
          "durationTicks": 6,
          "midi": 49,
          "name": "C#3",
          "ticks": 26048,
          "time": 302.8837209302326,
          "velocity": 0.31496062992125984
        },
        {
          "duration": 0.023255813953483084,
          "durationTicks": 2,
          "midi": 55,
          "name": "G3",
          "ticks": 26054,
          "time": 302.95348837209303,
          "velocity": 0.3228346456692913
        },
        {
          "duration": 0.023255813953483084,
          "durationTicks": 2,
          "midi": 44,
          "name": "G#2",
          "ticks": 26057,
          "time": 302.98837209302326,
          "velocity": 0.3228346456692913
        },
        {
          "duration": 0.023255813953483084,
          "durationTicks": 2,
          "midi": 55,
          "name": "G3",
          "ticks": 26064,
          "time": 303.06976744186045,
          "velocity": 0.28346456692913385
        },
        {
          "duration": 0.2325581395348877,
          "durationTicks": 20,
          "midi": 67,
          "name": "G4",
          "ticks": 26066,
          "time": 303.09302325581393,
          "velocity": 0.1732283464566929
        },
        {
          "duration": 0.03488372093028147,
          "durationTicks": 3,
          "midi": 72,
          "name": "C5",
          "ticks": 26066,
          "time": 303.09302325581393,
          "velocity": 0.1889763779527559
        },
        {
          "duration": 0.18604651162792152,
          "durationTicks": 16,
          "midi": 91,
          "name": "G6",
          "ticks": 26066,
          "time": 303.09302325581393,
          "velocity": 0.11023622047244094
        },
        {
          "duration": 0.03488372093028147,
          "durationTicks": 3,
          "midi": 99,
          "name": "D#7",
          "ticks": 26066,
          "time": 303.09302325581393,
          "velocity": 0.13385826771653545
        },
        {
          "duration": 0.058139534883764554,
          "durationTicks": 5,
          "midi": 55,
          "name": "G3",
          "ticks": 26067,
          "time": 303.1046511627907,
          "velocity": 0.4409448818897638
        },
        {
          "duration": 0.25581395348837077,
          "durationTicks": 22,
          "midi": 74,
          "name": "D5",
          "ticks": 26067,
          "time": 303.1046511627907,
          "velocity": 0.25196850393700787
        },
        {
          "duration": 0.2325581395348877,
          "durationTicks": 20,
          "midi": 83,
          "name": "B5",
          "ticks": 26067,
          "time": 303.1046511627907,
          "velocity": 0.14173228346456693
        },
        {
          "duration": 0.023255813953539928,
          "durationTicks": 2,
          "midi": 48,
          "name": "C3",
          "ticks": 26068,
          "time": 303.1162790697674,
          "velocity": 0.4566929133858268
        },
        {
          "duration": 0.04651162790696617,
          "durationTicks": 4,
          "midi": 92,
          "name": "G#6",
          "ticks": 26069,
          "time": 303.1279069767442,
          "velocity": 0.1889763779527559
        },
        {
          "duration": 0.1627906976743816,
          "durationTicks": 14,
          "midi": 72,
          "name": "C5",
          "ticks": 26070,
          "time": 303.13953488372096,
          "velocity": 0.2047244094488189
        },
        {
          "duration": 0.023255813953483084,
          "durationTicks": 2,
          "midi": 48,
          "name": "C3",
          "ticks": 26071,
          "time": 303.1511627906977,
          "velocity": 0.4566929133858268
        },
        {
          "duration": 0.023255813953483084,
          "durationTicks": 2,
          "midi": 60,
          "name": "C4",
          "ticks": 26073,
          "time": 303.1744186046512,
          "velocity": 0.30708661417322836
        },
        {
          "duration": 0.023255813953483084,
          "durationTicks": 2,
          "midi": 62,
          "name": "D4",
          "ticks": 26073,
          "time": 303.1744186046512,
          "velocity": 0.25984251968503935
        },
        {
          "duration": 0.0813953488371908,
          "durationTicks": 7,
          "midi": 82,
          "name": "A#5",
          "ticks": 26073,
          "time": 303.1744186046512,
          "velocity": 0.11023622047244094
        },
        {
          "duration": 0.1627906976743816,
          "durationTicks": 14,
          "midi": 48,
          "name": "C3",
          "ticks": 26074,
          "time": 303.1860465116279,
          "velocity": 0.4566929133858268
        },
        {
          "duration": 0.1627906976743816,
          "durationTicks": 14,
          "midi": 55,
          "name": "G3",
          "ticks": 26074,
          "time": 303.1860465116279,
          "velocity": 0.33858267716535434
        },
        {
          "duration": 0.034883720930224626,
          "durationTicks": 3,
          "midi": 92,
          "name": "G#6",
          "ticks": 26078,
          "time": 303.2325581395349,
          "velocity": 0.08661417322834646
        },
        {
          "duration": 0.023255813953483084,
          "durationTicks": 2,
          "midi": 62,
          "name": "D4",
          "ticks": 26081,
          "time": 303.2674418604651,
          "velocity": 0.2440944881889764
        },
        {
          "duration": 0.04651162790696617,
          "durationTicks": 4,
          "midi": 62,
          "name": "D4",
          "ticks": 26084,
          "time": 303.30232558139534,
          "velocity": 0.25196850393700787
        },
        {
          "duration": 0.19767441860466306,
          "durationTicks": 17,
          "midi": 72,
          "name": "C5",
          "ticks": 26087,
          "time": 303.33720930232556,
          "velocity": 0.3779527559055118
        },
        {
          "duration": 0.03488372093028147,
          "durationTicks": 3,
          "midi": 48,
          "name": "C3",
          "ticks": 26089,
          "time": 303.36046511627904,
          "velocity": 0.28346456692913385
        },
        {
          "duration": 0.17441860465117998,
          "durationTicks": 15,
          "midi": 60,
          "name": "C4",
          "ticks": 26089,
          "time": 303.36046511627904,
          "velocity": 0.41732283464566927
        },
        {
          "duration": 0.1511627906976969,
          "durationTicks": 13,
          "midi": 91,
          "name": "G6",
          "ticks": 26089,
          "time": 303.36046511627904,
          "velocity": 0.25196850393700787
        },
        {
          "duration": 0.03488372093028147,
          "durationTicks": 3,
          "midi": 55,
          "name": "G3",
          "ticks": 26090,
          "time": 303.3720930232558,
          "velocity": 0.36220472440944884
        },
        {
          "duration": 0.1511627906976969,
          "durationTicks": 13,
          "midi": 79,
          "name": "G5",
          "ticks": 26090,
          "time": 303.3720930232558,
          "velocity": 0.2204724409448819
        },
        {
          "duration": 0.0697674418605061,
          "durationTicks": 6,
          "midi": 94,
          "name": "A#6",
          "ticks": 26090,
          "time": 303.3720930232558,
          "velocity": 0.07874015748031496
        },
        {
          "duration": 0.04651162790696617,
          "durationTicks": 4,
          "midi": 42,
          "name": "F#2",
          "ticks": 26093,
          "time": 303.40697674418607,
          "velocity": 0.2677165354330709
        },
        {
          "duration": 0.05813953488370771,
          "durationTicks": 5,
          "midi": 55,
          "name": "G3",
          "ticks": 26094,
          "time": 303.4186046511628,
          "velocity": 0.2125984251968504
        },
        {
          "duration": 0.11627906976747227,
          "durationTicks": 10,
          "midi": 48,
          "name": "C3",
          "ticks": 26110,
          "time": 303.6046511627907,
          "velocity": 0.4094488188976378
        },
        {
          "duration": 0.023255813953539928,
          "durationTicks": 2,
          "midi": 62,
          "name": "D4",
          "ticks": 26110,
          "time": 303.6046511627907,
          "velocity": 0.25984251968503935
        },
        {
          "duration": 0.03488372093028147,
          "durationTicks": 3,
          "midi": 91,
          "name": "G6",
          "ticks": 26110,
          "time": 303.6046511627907,
          "velocity": 0.11023622047244094
        },
        {
          "duration": 0.0697674418605061,
          "durationTicks": 6,
          "midi": 92,
          "name": "G#6",
          "ticks": 26110,
          "time": 303.6046511627907,
          "velocity": 0.16535433070866143
        },
        {
          "duration": 0.24418604651162923,
          "durationTicks": 21,
          "midi": 67,
          "name": "G4",
          "ticks": 26111,
          "time": 303.6162790697674,
          "velocity": 0.1732283464566929
        },
        {
          "duration": 0.0697674418605061,
          "durationTicks": 6,
          "midi": 82,
          "name": "A#5",
          "ticks": 26111,
          "time": 303.6162790697674,
          "velocity": 0.1732283464566929
        },
        {
          "duration": 0.24418604651162923,
          "durationTicks": 21,
          "midi": 83,
          "name": "B5",
          "ticks": 26111,
          "time": 303.6162790697674,
          "velocity": 0.1732283464566929
        },
        {
          "duration": 0.10465116279067388,
          "durationTicks": 9,
          "midi": 55,
          "name": "G3",
          "ticks": 26112,
          "time": 303.6279069767442,
          "velocity": 0.3858267716535433
        },
        {
          "duration": 0.24418604651157239,
          "durationTicks": 21,
          "midi": 74,
          "name": "D5",
          "ticks": 26112,
          "time": 303.6279069767442,
          "velocity": 0.2677165354330709
        },
        {
          "duration": 0.23255813953483084,
          "durationTicks": 20,
          "midi": 60,
          "name": "C4",
          "ticks": 26113,
          "time": 303.63953488372096,
          "velocity": 0.5275590551181102
        },
        {
          "duration": 0.10465116279067388,
          "durationTicks": 9,
          "midi": 88,
          "name": "E6",
          "ticks": 26113,
          "time": 303.63953488372096,
          "velocity": 0.10236220472440945
        },
        {
          "duration": 0.1627906976743816,
          "durationTicks": 14,
          "midi": 89,
          "name": "F6",
          "ticks": 26113,
          "time": 303.63953488372096,
          "velocity": 0.11811023622047244
        },
        {
          "duration": 0.18604651162786467,
          "durationTicks": 16,
          "midi": 79,
          "name": "G5",
          "ticks": 26116,
          "time": 303.6744186046512,
          "velocity": 0.2283464566929134
        },
        {
          "duration": 0.034883720930224626,
          "durationTicks": 3,
          "midi": 48,
          "name": "C3",
          "ticks": 26121,
          "time": 303.7325581395349,
          "velocity": 0.3700787401574803
        },
        {
          "duration": 0.13953488372095535,
          "durationTicks": 12,
          "midi": 55,
          "name": "G3",
          "ticks": 26124,
          "time": 303.7674418604651,
          "velocity": 0.33070866141732286
        },
        {
          "duration": 0.023255813953483084,
          "durationTicks": 2,
          "midi": 48,
          "name": "C3",
          "ticks": 26129,
          "time": 303.8255813953488,
          "velocity": 0.28346456692913385
        },
        {
          "duration": 0.023255813953539928,
          "durationTicks": 2,
          "midi": 45,
          "name": "A2",
          "ticks": 26132,
          "time": 303.86046511627904,
          "velocity": 0.33070866141732286
        },
        {
          "duration": 0.04651162790702301,
          "durationTicks": 4,
          "midi": 59,
          "name": "B3",
          "ticks": 26133,
          "time": 303.8720930232558,
          "velocity": 0.28346456692913385
        },
        {
          "duration": 0.023255813953483084,
          "durationTicks": 2,
          "midi": 54,
          "name": "F#3",
          "ticks": 26136,
          "time": 303.90697674418607,
          "velocity": 0.2677165354330709
        },
        {
          "duration": 0.034883720930224626,
          "durationTicks": 3,
          "midi": 60,
          "name": "C4",
          "ticks": 26137,
          "time": 303.9186046511628,
          "velocity": 0.15748031496062992
        },
        {
          "duration": 0.2325581395348877,
          "durationTicks": 20,
          "midi": 83,
          "name": "B5",
          "ticks": 26143,
          "time": 303.98837209302326,
          "velocity": 0.25196850393700787
        },
        {
          "duration": 0.48837209302325846,
          "durationTicks": 42,
          "midi": 66,
          "name": "F#4",
          "ticks": 26144,
          "time": 304,
          "velocity": 0.31496062992125984
        },
        {
          "duration": 0.023255813953483084,
          "durationTicks": 2,
          "midi": 55,
          "name": "G3",
          "ticks": 26145,
          "time": 304.01162790697674,
          "velocity": 0.25984251968503935
        },
        {
          "duration": 0.10465116279073072,
          "durationTicks": 9,
          "midi": 59,
          "name": "B3",
          "ticks": 26146,
          "time": 304.0232558139535,
          "velocity": 0.3543307086614173
        },
        {
          "duration": 0.034883720930224626,
          "durationTicks": 3,
          "midi": 91,
          "name": "G6",
          "ticks": 26146,
          "time": 304.0232558139535,
          "velocity": 0.11023622047244094
        },
        {
          "duration": 0.06976744186044925,
          "durationTicks": 6,
          "midi": 47,
          "name": "B2",
          "ticks": 26147,
          "time": 304.0348837209302,
          "velocity": 0.31496062992125984
        },
        {
          "duration": 0.26744186046516916,
          "durationTicks": 23,
          "midi": 75,
          "name": "D#5",
          "ticks": 26154,
          "time": 304.1162790697674,
          "velocity": 0.2204724409448819
        },
        {
          "duration": 0.04651162790702301,
          "durationTicks": 4,
          "midi": 81,
          "name": "A5",
          "ticks": 26154,
          "time": 304.1162790697674,
          "velocity": 0.12598425196850394
        },
        {
          "duration": 0.023255813953483084,
          "durationTicks": 2,
          "midi": 44,
          "name": "G#2",
          "ticks": 26155,
          "time": 304.1279069767442,
          "velocity": 0.33070866141732286
        },
        {
          "duration": 0.12790697674415696,
          "durationTicks": 11,
          "midi": 54,
          "name": "F#3",
          "ticks": 26156,
          "time": 304.13953488372096,
          "velocity": 0.5433070866141733
        },
        {
          "duration": 0.11627906976741542,
          "durationTicks": 10,
          "midi": 59,
          "name": "B3",
          "ticks": 26156,
          "time": 304.13953488372096,
          "velocity": 0.3937007874015748
        },
        {
          "duration": 0.0813953488371908,
          "durationTicks": 7,
          "midi": 42,
          "name": "F#2",
          "ticks": 26158,
          "time": 304.16279069767444,
          "velocity": 0.2992125984251969
        },
        {
          "duration": 0.023255813953483084,
          "durationTicks": 2,
          "midi": 60,
          "name": "C4",
          "ticks": 26166,
          "time": 304.25581395348837,
          "velocity": 0.33858267716535434
        },
        {
          "duration": 0.13953488372095535,
          "durationTicks": 12,
          "midi": 83,
          "name": "B5",
          "ticks": 26166,
          "time": 304.25581395348837,
          "velocity": 0.2125984251968504
        },
        {
          "duration": 0.11627906976741542,
          "durationTicks": 10,
          "midi": 93,
          "name": "A6",
          "ticks": 26166,
          "time": 304.25581395348837,
          "velocity": 0.1968503937007874
        },
        {
          "duration": 0.034883720930224626,
          "durationTicks": 3,
          "midi": 102,
          "name": "F#7",
          "ticks": 26167,
          "time": 304.2674418604651,
          "velocity": 0.14960629921259844
        },
        {
          "duration": 0.023255813953483084,
          "durationTicks": 2,
          "midi": 55,
          "name": "G3",
          "ticks": 26168,
          "time": 304.27906976744185,
          "velocity": 0.33070866141732286
        },
        {
          "duration": 0.04651162790696617,
          "durationTicks": 4,
          "midi": 59,
          "name": "B3",
          "ticks": 26168,
          "time": 304.27906976744185,
          "velocity": 0.31496062992125984
        },
        {
          "duration": 0.10465116279073072,
          "durationTicks": 9,
          "midi": 101,
          "name": "F7",
          "ticks": 26168,
          "time": 304.27906976744185,
          "velocity": 0.10236220472440945
        },
        {
          "duration": 0.034883720930224626,
          "durationTicks": 3,
          "midi": 42,
          "name": "F#2",
          "ticks": 26170,
          "time": 304.30232558139534,
          "velocity": 0.3228346456692913
        },
        {
          "duration": 0.023255813953483084,
          "durationTicks": 2,
          "midi": 47,
          "name": "B2",
          "ticks": 26172,
          "time": 304.3255813953488,
          "velocity": 0.31496062992125984
        },
        {
          "duration": 0.023255813953539928,
          "durationTicks": 2,
          "midi": 47,
          "name": "B2",
          "ticks": 26175,
          "time": 304.36046511627904,
          "velocity": 0.33858267716535434
        },
        {
          "duration": 0.04651162790696617,
          "durationTicks": 4,
          "midi": 61,
          "name": "C#4",
          "ticks": 26179,
          "time": 304.40697674418607,
          "velocity": 0.13385826771653545
        },
        {
          "duration": 0.023255813953483084,
          "durationTicks": 2,
          "midi": 46,
          "name": "A#2",
          "ticks": 26181,
          "time": 304.43023255813955,
          "velocity": 0.30708661417322836
        },
        {
          "duration": 0.034883720930224626,
          "durationTicks": 3,
          "midi": 55,
          "name": "G3",
          "ticks": 26181,
          "time": 304.43023255813955,
          "velocity": 0.16535433070866143
        },
        {
          "duration": 0.034883720930224626,
          "durationTicks": 3,
          "midi": 47,
          "name": "B2",
          "ticks": 26185,
          "time": 304.4767441860465,
          "velocity": 0.14173228346456693
        },
        {
          "duration": 0.25581395348837077,
          "durationTicks": 22,
          "midi": 83,
          "name": "B5",
          "ticks": 26187,
          "time": 304.5,
          "velocity": 0.2440944881889764
        },
        {
          "duration": 0.5,
          "durationTicks": 43,
          "midi": 66,
          "name": "F#4",
          "ticks": 26188,
          "time": 304.51162790697674,
          "velocity": 0.31496062992125984
        },
        {
          "duration": 0.06976744186044925,
          "durationTicks": 6,
          "midi": 91,
          "name": "G6",
          "ticks": 26188,
          "time": 304.51162790697674,
          "velocity": 0.11023622047244094
        },
        {
          "duration": 0.13953488372095535,
          "durationTicks": 12,
          "midi": 47,
          "name": "B2",
          "ticks": 26189,
          "time": 304.5232558139535,
          "velocity": 0.3700787401574803
        },
        {
          "duration": 0.034883720930224626,
          "durationTicks": 3,
          "midi": 55,
          "name": "G3",
          "ticks": 26200,
          "time": 304.6511627906977,
          "velocity": 0.5196850393700787
        },
        {
          "duration": 0.06976744186044925,
          "durationTicks": 6,
          "midi": 81,
          "name": "A5",
          "ticks": 26200,
          "time": 304.6511627906977,
          "velocity": 0.18110236220472442
        },
        {
          "duration": 0.11627906976741542,
          "durationTicks": 10,
          "midi": 82,
          "name": "A#5",
          "ticks": 26200,
          "time": 304.6511627906977,
          "velocity": 0.10236220472440945
        },
        {
          "duration": 0.034883720930224626,
          "durationTicks": 3,
          "midi": 94,
          "name": "A#6",
          "ticks": 26200,
          "time": 304.6511627906977,
          "velocity": 0.10236220472440945
        },
        {
          "duration": 0.20930232558134776,
          "durationTicks": 18,
          "midi": 88,
          "name": "E6",
          "ticks": 26201,
          "time": 304.66279069767444,
          "velocity": 0.11811023622047244
        },
        {
          "duration": 0.2325581395348877,
          "durationTicks": 20,
          "midi": 59,
          "name": "B3",
          "ticks": 26202,
          "time": 304.6744186046512,
          "velocity": 0.4251968503937008
        },
        {
          "duration": 0.2093023255814046,
          "durationTicks": 18,
          "midi": 73,
          "name": "C#5",
          "ticks": 26202,
          "time": 304.6744186046512,
          "velocity": 0.10236220472440945
        },
        {
          "duration": 0.09302325581393234,
          "durationTicks": 8,
          "midi": 54,
          "name": "F#3",
          "ticks": 26203,
          "time": 304.6860465116279,
          "velocity": 0.48031496062992124
        },
        {
          "duration": 0.023255813953483084,
          "durationTicks": 2,
          "midi": 45,
          "name": "A2",
          "ticks": 26207,
          "time": 304.7325581395349,
          "velocity": 0.36220472440944884
        },
        {
          "duration": 0.10465116279067388,
          "durationTicks": 9,
          "midi": 93,
          "name": "A6",
          "ticks": 26209,
          "time": 304.75581395348837,
          "velocity": 0.18110236220472442
        },
        {
          "duration": 0.09302325581393234,
          "durationTicks": 8,
          "midi": 95,
          "name": "B6",
          "ticks": 26211,
          "time": 304.77906976744185,
          "velocity": 0.07874015748031496
        },
        {
          "duration": 0.034883720930224626,
          "durationTicks": 3,
          "midi": 42,
          "name": "F#2",
          "ticks": 26212,
          "time": 304.7906976744186,
          "velocity": 0.2992125984251969
        },
        {
          "duration": 0.0813953488371908,
          "durationTicks": 7,
          "midi": 54,
          "name": "F#3",
          "ticks": 26212,
          "time": 304.7906976744186,
          "velocity": 0.3937007874015748
        },
        {
          "duration": 0.05813953488370771,
          "durationTicks": 5,
          "midi": 101,
          "name": "F7",
          "ticks": 26214,
          "time": 304.8139534883721,
          "velocity": 0.07874015748031496
        },
        {
          "duration": 0.023255813953483084,
          "durationTicks": 2,
          "midi": 44,
          "name": "G#2",
          "ticks": 26216,
          "time": 304.83720930232556,
          "velocity": 0.3937007874015748
        },
        {
          "duration": 0.03488372093028147,
          "durationTicks": 3,
          "midi": 42,
          "name": "F#2",
          "ticks": 26218,
          "time": 304.86046511627904,
          "velocity": 0.2440944881889764
        },
        {
          "duration": 0.023255813953483084,
          "durationTicks": 2,
          "midi": 41,
          "name": "F2",
          "ticks": 26221,
          "time": 304.8953488372093,
          "velocity": 0.2677165354330709
        },
        {
          "duration": 0.023255813953483084,
          "durationTicks": 2,
          "midi": 45,
          "name": "A2",
          "ticks": 26223,
          "time": 304.9186046511628,
          "velocity": 0.4330708661417323
        },
        {
          "duration": 0.034883720930224626,
          "durationTicks": 3,
          "midi": 91,
          "name": "G6",
          "ticks": 26223,
          "time": 304.9186046511628,
          "velocity": 0.07874015748031496
        },
        {
          "duration": 0.0813953488371908,
          "durationTicks": 7,
          "midi": 59,
          "name": "B3",
          "ticks": 26224,
          "time": 304.93023255813955,
          "velocity": 0.2440944881889764
        },
        {
          "duration": 0.023255813953483084,
          "durationTicks": 2,
          "midi": 47,
          "name": "B2",
          "ticks": 26225,
          "time": 304.9418604651163,
          "velocity": 0.33858267716535434
        },
        {
          "duration": 0.023255813953483084,
          "durationTicks": 2,
          "midi": 47,
          "name": "B2",
          "ticks": 26229,
          "time": 304.98837209302326,
          "velocity": 0.31496062992125984
        },
        {
          "duration": 0.09302325581398918,
          "durationTicks": 8,
          "midi": 52,
          "name": "E3",
          "ticks": 26235,
          "time": 305.0581395348837,
          "velocity": 0.18110236220472442
        },
        {
          "duration": 0.023255813953539928,
          "durationTicks": 2,
          "midi": 41,
          "name": "F2",
          "ticks": 26240,
          "time": 305.1162790697674,
          "velocity": 0.28346456692913385
        },
        {
          "duration": 0.04651162790696617,
          "durationTicks": 4,
          "midi": 70,
          "name": "A#4",
          "ticks": 26242,
          "time": 305.13953488372096,
          "velocity": 0.18110236220472442
        },
        {
          "duration": 0.05813953488370771,
          "durationTicks": 5,
          "midi": 74,
          "name": "D5",
          "ticks": 26242,
          "time": 305.13953488372096,
          "velocity": 0.16535433070866143
        },
        {
          "duration": 0.023255813953483084,
          "durationTicks": 2,
          "midi": 55,
          "name": "G3",
          "ticks": 26243,
          "time": 305.1511627906977,
          "velocity": 0.49606299212598426
        },
        {
          "duration": 0.034883720930224626,
          "durationTicks": 3,
          "midi": 66,
          "name": "F#4",
          "ticks": 26243,
          "time": 305.1511627906977,
          "velocity": 0.2204724409448819
        },
        {
          "duration": 0.3139534883720785,
          "durationTicks": 27,
          "midi": 81,
          "name": "A5",
          "ticks": 26243,
          "time": 305.1511627906977,
          "velocity": 0.25196850393700787
        },
        {
          "duration": 0.18604651162786467,
          "durationTicks": 16,
          "midi": 41,
          "name": "F2",
          "ticks": 26244,
          "time": 305.16279069767444,
          "velocity": 0.4645669291338583
        },
        {
          "duration": 0.034883720930224626,
          "durationTicks": 3,
          "midi": 92,
          "name": "G#6",
          "ticks": 26244,
          "time": 305.16279069767444,
          "velocity": 0.07874015748031496
        },
        {
          "duration": 0.15116279069764005,
          "durationTicks": 13,
          "midi": 98,
          "name": "D7",
          "ticks": 26244,
          "time": 305.16279069767444,
          "velocity": 0.23622047244094488
        },
        {
          "duration": 0.25581395348837077,
          "durationTicks": 22,
          "midi": 77,
          "name": "F5",
          "ticks": 26245,
          "time": 305.1744186046512,
          "velocity": 0.2283464566929134
        },
        {
          "duration": 0.22093023255814614,
          "durationTicks": 19,
          "midi": 65,
          "name": "F4",
          "ticks": 26246,
          "time": 305.1860465116279,
          "velocity": 0.1889763779527559
        },
        {
          "duration": 0.25581395348837077,
          "durationTicks": 22,
          "midi": 58,
          "name": "A#3",
          "ticks": 26247,
          "time": 305.19767441860466,
          "velocity": 0.4015748031496063
        },
        {
          "duration": 0.27906976744185386,
          "durationTicks": 24,
          "midi": 75,
          "name": "D#5",
          "ticks": 26247,
          "time": 305.19767441860466,
          "velocity": 0.1732283464566929
        },
        {
          "duration": 0.1511627906976969,
          "durationTicks": 13,
          "midi": 84,
          "name": "C6",
          "ticks": 26251,
          "time": 305.24418604651163,
          "velocity": 0.11023622047244094
        },
        {
          "duration": 0.08139534883724764,
          "durationTicks": 7,
          "midi": 98,
          "name": "D7",
          "ticks": 26259,
          "time": 305.33720930232556,
          "velocity": 0.11811023622047244
        },
        {
          "duration": 0.023255813953539928,
          "durationTicks": 2,
          "midi": 41,
          "name": "F2",
          "ticks": 26261,
          "time": 305.36046511627904,
          "velocity": 0.4409448818897638
        },
        {
          "duration": 0.023255813953483084,
          "durationTicks": 2,
          "midi": 41,
          "name": "F2",
          "ticks": 26264,
          "time": 305.3953488372093,
          "velocity": 0.4330708661417323
        },
        {
          "duration": 0.04651162790696617,
          "durationTicks": 4,
          "midi": 53,
          "name": "F3",
          "ticks": 26266,
          "time": 305.4186046511628,
          "velocity": 0.3464566929133858
        },
        {
          "duration": 0.04651162790696617,
          "durationTicks": 4,
          "midi": 41,
          "name": "F2",
          "ticks": 26267,
          "time": 305.43023255813955,
          "velocity": 0.4409448818897638
        },
        {
          "duration": 0.04651162790696617,
          "durationTicks": 4,
          "midi": 98,
          "name": "D7",
          "ticks": 26267,
          "time": 305.43023255813955,
          "velocity": 0.14960629921259844
        },
        {
          "duration": 0.2674418604651123,
          "durationTicks": 23,
          "midi": 77,
          "name": "F5",
          "ticks": 26268,
          "time": 305.4418604651163,
          "velocity": 0.28346456692913385
        },
        {
          "duration": 0.023255813953483084,
          "durationTicks": 2,
          "midi": 54,
          "name": "F#3",
          "ticks": 26270,
          "time": 305.4651162790698,
          "velocity": 0.4330708661417323
        },
        {
          "duration": 0.0813953488371908,
          "durationTicks": 7,
          "midi": 74,
          "name": "D5",
          "ticks": 26270,
          "time": 305.4651162790698,
          "velocity": 0.11811023622047244
        },
        {
          "duration": 0.19767441860466306,
          "durationTicks": 17,
          "midi": 41,
          "name": "F2",
          "ticks": 26272,
          "time": 305.48837209302326,
          "velocity": 0.44881889763779526
        },
        {
          "duration": 0.04651162790696617,
          "durationTicks": 4,
          "midi": 98,
          "name": "D7",
          "ticks": 26272,
          "time": 305.48837209302326,
          "velocity": 0.11811023622047244
        },
        {
          "duration": 0.2093023255814046,
          "durationTicks": 18,
          "midi": 58,
          "name": "A#3",
          "ticks": 26273,
          "time": 305.5,
          "velocity": 0.30708661417322836
        },
        {
          "duration": 0.06976744186044925,
          "durationTicks": 6,
          "midi": 87,
          "name": "D#6",
          "ticks": 26274,
          "time": 305.51162790697674,
          "velocity": 0.11811023622047244
        },
        {
          "duration": 0.0697674418605061,
          "durationTicks": 6,
          "midi": 75,
          "name": "D#5",
          "ticks": 26282,
          "time": 305.6046511627907,
          "velocity": 0.14960629921259844
        },
        {
          "duration": 0.034883720930224626,
          "durationTicks": 3,
          "midi": 97,
          "name": "C#7",
          "ticks": 26286,
          "time": 305.6511627906977,
          "velocity": 0.08661417322834646
        },
        {
          "duration": 0.034883720930224626,
          "durationTicks": 3,
          "midi": 74,
          "name": "D5",
          "ticks": 26288,
          "time": 305.6744186046512,
          "velocity": 0.13385826771653545
        },
        {
          "duration": 0.023255813953483084,
          "durationTicks": 2,
          "midi": 40,
          "name": "E2",
          "ticks": 26289,
          "time": 305.6860465116279,
          "velocity": 0.4094488188976378
        },
        {
          "duration": 0.023255813953483084,
          "durationTicks": 2,
          "midi": 51,
          "name": "D#3",
          "ticks": 26290,
          "time": 305.69767441860466,
          "velocity": 0.4094488188976378
        },
        {
          "duration": 0.034883720930224626,
          "durationTicks": 3,
          "midi": 41,
          "name": "F2",
          "ticks": 26291,
          "time": 305.7093023255814,
          "velocity": 0.41732283464566927
        },
        {
          "duration": 0.05813953488370771,
          "durationTicks": 5,
          "midi": 53,
          "name": "F3",
          "ticks": 26292,
          "time": 305.72093023255815,
          "velocity": 0.48031496062992124
        },
        {
          "duration": 0.023255813953483084,
          "durationTicks": 2,
          "midi": 58,
          "name": "A#3",
          "ticks": 26293,
          "time": 305.7325581395349,
          "velocity": 0.30708661417322836
        },
        {
          "duration": 0.023255813953483084,
          "durationTicks": 2,
          "midi": 44,
          "name": "G#2",
          "ticks": 26298,
          "time": 305.7906976744186,
          "velocity": 0.4094488188976378
        },
        {
          "duration": 0.023255813953483084,
          "durationTicks": 2,
          "midi": 40,
          "name": "E2",
          "ticks": 26300,
          "time": 305.8139534883721,
          "velocity": 0.3700787401574803
        },
        {
          "duration": 0.023255813953483084,
          "durationTicks": 2,
          "midi": 53,
          "name": "F3",
          "ticks": 26300,
          "time": 305.8139534883721,
          "velocity": 0.3464566929133858
        },
        {
          "duration": 0.034883720930224626,
          "durationTicks": 3,
          "midi": 60,
          "name": "C4",
          "ticks": 26301,
          "time": 305.8255813953488,
          "velocity": 0.23622047244094488
        },
        {
          "duration": 0.034883720930224626,
          "durationTicks": 3,
          "midi": 41,
          "name": "F2",
          "ticks": 26302,
          "time": 305.83720930232556,
          "velocity": 0.41732283464566927
        },
        {
          "duration": 0.04651162790702301,
          "durationTicks": 4,
          "midi": 53,
          "name": "F3",
          "ticks": 26305,
          "time": 305.8720930232558,
          "velocity": 0.4645669291338583
        },
        {
          "duration": 0.10465116279067388,
          "durationTicks": 9,
          "midi": 41,
          "name": "F2",
          "ticks": 26306,
          "time": 305.8837209302326,
          "velocity": 0.4881889763779528
        },
        {
          "duration": 0.023255813953483084,
          "durationTicks": 2,
          "midi": 58,
          "name": "A#3",
          "ticks": 26307,
          "time": 305.8953488372093,
          "velocity": 0.25196850393700787
        },
        {
          "duration": 0.04651162790696617,
          "durationTicks": 4,
          "midi": 71,
          "name": "B4",
          "ticks": 26310,
          "time": 305.93023255813955,
          "velocity": 0.18110236220472442
        },
        {
          "duration": 0.2674418604651123,
          "durationTicks": 23,
          "midi": 58,
          "name": "A#3",
          "ticks": 26311,
          "time": 305.9418604651163,
          "velocity": 0.49606299212598426
        },
        {
          "duration": 0.2674418604651123,
          "durationTicks": 23,
          "midi": 77,
          "name": "F5",
          "ticks": 26311,
          "time": 305.9418604651163,
          "velocity": 0.1732283464566929
        },
        {
          "duration": 0.12790697674415696,
          "durationTicks": 11,
          "midi": 98,
          "name": "D7",
          "ticks": 26311,
          "time": 305.9418604651163,
          "velocity": 0.2047244094488189
        },
        {
          "duration": 0.2906976744185954,
          "durationTicks": 25,
          "midi": 65,
          "name": "F4",
          "ticks": 26312,
          "time": 305.95348837209303,
          "velocity": 0.31496062992125984
        },
        {
          "duration": 0.04651162790696617,
          "durationTicks": 4,
          "midi": 100,
          "name": "E7",
          "ticks": 26312,
          "time": 305.95348837209303,
          "velocity": 0.10236220472440945
        },
        {
          "duration": 0.0813953488371908,
          "durationTicks": 7,
          "midi": 74,
          "name": "D5",
          "ticks": 26313,
          "time": 305.9651162790698,
          "velocity": 0.16535433070866143
        },
        {
          "duration": 0.27906976744185386,
          "durationTicks": 24,
          "midi": 81,
          "name": "A5",
          "ticks": 26313,
          "time": 305.9651162790698,
          "velocity": 0.2755905511811024
        },
        {
          "duration": 0.05813953488370771,
          "durationTicks": 5,
          "midi": 88,
          "name": "E6",
          "ticks": 26313,
          "time": 305.9651162790698,
          "velocity": 0.08661417322834646
        },
        {
          "duration": 0.16279069767443843,
          "durationTicks": 14,
          "midi": 72,
          "name": "C5",
          "ticks": 26319,
          "time": 306.0348837209302,
          "velocity": 0.14173228346456693
        },
        {
          "duration": 0.05813953488370771,
          "durationTicks": 5,
          "midi": 41,
          "name": "F2",
          "ticks": 26320,
          "time": 306.04651162790697,
          "velocity": 0.25196850393700787
        },
        {
          "duration": 0.058139534883764554,
          "durationTicks": 5,
          "midi": 74,
          "name": "D5",
          "ticks": 26324,
          "time": 306.09302325581393,
          "velocity": 0.08661417322834646
        },
        {
          "duration": 0.058139534883764554,
          "durationTicks": 5,
          "midi": 98,
          "name": "D7",
          "ticks": 26324,
          "time": 306.09302325581393,
          "velocity": 0.11023622047244094
        },
        {
          "duration": 0.023255813953539928,
          "durationTicks": 2,
          "midi": 41,
          "name": "F2",
          "ticks": 26326,
          "time": 306.1162790697674,
          "velocity": 0.2283464566929134
        },
        {
          "duration": 0.05813953488370771,
          "durationTicks": 5,
          "midi": 53,
          "name": "F3",
          "ticks": 26336,
          "time": 306.2325581395349,
          "velocity": 0.4409448818897638
        },
        {
          "duration": 0.023255813953483084,
          "durationTicks": 2,
          "midi": 42,
          "name": "F#2",
          "ticks": 26337,
          "time": 306.24418604651163,
          "velocity": 0.33858267716535434
        },
        {
          "duration": 0.034883720930224626,
          "durationTicks": 3,
          "midi": 57,
          "name": "A3",
          "ticks": 26340,
          "time": 306.27906976744185,
          "velocity": 0.2755905511811024
        },
        {
          "duration": 0.034883720930224626,
          "durationTicks": 3,
          "midi": 41,
          "name": "F2",
          "ticks": 26341,
          "time": 306.2906976744186,
          "velocity": 0.29133858267716534
        },
        {
          "duration": 0.04651162790702301,
          "durationTicks": 4,
          "midi": 54,
          "name": "F#3",
          "ticks": 26345,
          "time": 306.33720930232556,
          "velocity": 0.30708661417322836
        },
        {
          "duration": 0.0697674418605061,
          "durationTicks": 6,
          "midi": 41,
          "name": "F2",
          "ticks": 26347,
          "time": 306.36046511627904,
          "velocity": 0.3779527559055118
        },
        {
          "duration": 0.04651162790696617,
          "durationTicks": 4,
          "midi": 54,
          "name": "F#3",
          "ticks": 26352,
          "time": 306.4186046511628,
          "velocity": 0.3779527559055118
        },
        {
          "duration": 0.023255813953483084,
          "durationTicks": 2,
          "midi": 42,
          "name": "F#2",
          "ticks": 26353,
          "time": 306.43023255813955,
          "velocity": 0.36220472440944884
        },
        {
          "duration": 0.023255813953483084,
          "durationTicks": 2,
          "midi": 59,
          "name": "B3",
          "ticks": 26354,
          "time": 306.4418604651163,
          "velocity": 0.33070866141732286
        },
        {
          "duration": 0.034883720930224626,
          "durationTicks": 3,
          "midi": 78,
          "name": "F#5",
          "ticks": 26355,
          "time": 306.45348837209303,
          "velocity": 0.18110236220472442
        },
        {
          "duration": 0.023255813953483084,
          "durationTicks": 2,
          "midi": 57,
          "name": "A3",
          "ticks": 26356,
          "time": 306.4651162790698,
          "velocity": 0.49606299212598426
        },
        {
          "duration": 0.25581395348837077,
          "durationTicks": 22,
          "midi": 65,
          "name": "F4",
          "ticks": 26356,
          "time": 306.4651162790698,
          "velocity": 0.29133858267716534
        },
        {
          "duration": 0.04651162790696617,
          "durationTicks": 4,
          "midi": 98,
          "name": "D7",
          "ticks": 26356,
          "time": 306.4651162790698,
          "velocity": 0.11811023622047244
        },
        {
          "duration": 0.2325581395348877,
          "durationTicks": 20,
          "midi": 70,
          "name": "A#4",
          "ticks": 26357,
          "time": 306.4767441860465,
          "velocity": 0.2047244094488189
        },
        {
          "duration": 0.034883720930224626,
          "durationTicks": 3,
          "midi": 74,
          "name": "D5",
          "ticks": 26357,
          "time": 306.4767441860465,
          "velocity": 0.11811023622047244
        },
        {
          "duration": 0.24418604651162923,
          "durationTicks": 21,
          "midi": 58,
          "name": "A#3",
          "ticks": 26358,
          "time": 306.48837209302326,
          "velocity": 0.47244094488188976
        },
        {
          "duration": 0.05813953488370771,
          "durationTicks": 5,
          "midi": 80,
          "name": "G#5",
          "ticks": 26358,
          "time": 306.48837209302326,
          "velocity": 0.10236220472440945
        },
        {
          "duration": 0.24418604651162923,
          "durationTicks": 21,
          "midi": 81,
          "name": "A5",
          "ticks": 26358,
          "time": 306.48837209302326,
          "velocity": 0.2283464566929134
        },
        {
          "duration": 0.18604651162792152,
          "durationTicks": 16,
          "midi": 53,
          "name": "F3",
          "ticks": 26360,
          "time": 306.51162790697674,
          "velocity": 0.33858267716535434
        },
        {
          "duration": 0.04651162790696617,
          "durationTicks": 4,
          "midi": 41,
          "name": "F2",
          "ticks": 26362,
          "time": 306.5348837209302,
          "velocity": 0.3858267716535433
        },
        {
          "duration": 0.034883720930224626,
          "durationTicks": 3,
          "midi": 98,
          "name": "D7",
          "ticks": 26362,
          "time": 306.5348837209302,
          "velocity": 0.11811023622047244
        },
        {
          "duration": 0.023255813953483084,
          "durationTicks": 2,
          "midi": 41,
          "name": "F2",
          "ticks": 26367,
          "time": 306.59302325581393,
          "velocity": 0.3700787401574803
        },
        {
          "duration": 0.16279069767443843,
          "durationTicks": 14,
          "midi": 74,
          "name": "D5",
          "ticks": 26367,
          "time": 306.59302325581393,
          "velocity": 0.13385826771653545
        },
        {
          "duration": 0.023255813953483084,
          "durationTicks": 2,
          "midi": 41,
          "name": "F2",
          "ticks": 26370,
          "time": 306.6279069767442,
          "velocity": 0.36220472440944884
        },
        {
          "duration": 0.034883720930224626,
          "durationTicks": 3,
          "midi": 41,
          "name": "F2",
          "ticks": 26373,
          "time": 306.66279069767444,
          "velocity": 0.3543307086614173
        },
        {
          "duration": 0.034883720930224626,
          "durationTicks": 3,
          "midi": 57,
          "name": "A3",
          "ticks": 26379,
          "time": 306.7325581395349,
          "velocity": 0.41732283464566927
        },
        {
          "duration": 0.023255813953483084,
          "durationTicks": 2,
          "midi": 42,
          "name": "F#2",
          "ticks": 26380,
          "time": 306.74418604651163,
          "velocity": 0.3779527559055118
        },
        {
          "duration": 0.023255813953483084,
          "durationTicks": 2,
          "midi": 60,
          "name": "C4",
          "ticks": 26382,
          "time": 306.7674418604651,
          "velocity": 0.2283464566929134
        },
        {
          "duration": 0.034883720930224626,
          "durationTicks": 3,
          "midi": 53,
          "name": "F3",
          "ticks": 26383,
          "time": 306.77906976744185,
          "velocity": 0.4409448818897638
        },
        {
          "duration": 0.023255813953483084,
          "durationTicks": 2,
          "midi": 39,
          "name": "D#2",
          "ticks": 26387,
          "time": 306.8255813953488,
          "velocity": 0.2755905511811024
        },
        {
          "duration": 0.023255813953483084,
          "durationTicks": 2,
          "midi": 54,
          "name": "F#3",
          "ticks": 26387,
          "time": 306.8255813953488,
          "velocity": 0.33858267716535434
        },
        {
          "duration": 0.023255813953483084,
          "durationTicks": 2,
          "midi": 48,
          "name": "C3",
          "ticks": 26388,
          "time": 306.83720930232556,
          "velocity": 0.3937007874015748
        },
        {
          "duration": 0.023255813953483084,
          "durationTicks": 2,
          "midi": 53,
          "name": "F3",
          "ticks": 26389,
          "time": 306.8488372093023,
          "velocity": 0.36220472440944884
        },
        {
          "duration": 0.023255813953483084,
          "durationTicks": 2,
          "midi": 41,
          "name": "F2",
          "ticks": 26392,
          "time": 306.8837209302326,
          "velocity": 0.33858267716535434
        },
        {
          "duration": 0.023255813953483084,
          "durationTicks": 2,
          "midi": 41,
          "name": "F2",
          "ticks": 26399,
          "time": 306.9651162790698,
          "velocity": 0.3543307086614173
        },
        {
          "duration": 0.023255813953483084,
          "durationTicks": 2,
          "midi": 59,
          "name": "B3",
          "ticks": 26399,
          "time": 306.9651162790698,
          "velocity": 0.36220472440944884
        },
        {
          "duration": 0.19767441860466306,
          "durationTicks": 17,
          "midi": 65,
          "name": "F4",
          "ticks": 26400,
          "time": 306.9767441860465,
          "velocity": 0.2283464566929134
        },
        {
          "duration": 0.18604651162792152,
          "durationTicks": 16,
          "midi": 77,
          "name": "F5",
          "ticks": 26400,
          "time": 306.9767441860465,
          "velocity": 0.2677165354330709
        },
        {
          "duration": 0.22093023255814614,
          "durationTicks": 19,
          "midi": 81,
          "name": "A5",
          "ticks": 26400,
          "time": 306.9767441860465,
          "velocity": 0.23622047244094488
        },
        {
          "duration": 0.2325581395348877,
          "durationTicks": 20,
          "midi": 58,
          "name": "A#3",
          "ticks": 26401,
          "time": 306.98837209302326,
          "velocity": 0.49606299212598426
        },
        {
          "duration": 0.11627906976741542,
          "durationTicks": 10,
          "midi": 74,
          "name": "D5",
          "ticks": 26402,
          "time": 307,
          "velocity": 0.11023622047244094
        },
        {
          "duration": 0.0813953488371908,
          "durationTicks": 7,
          "midi": 98,
          "name": "D7",
          "ticks": 26402,
          "time": 307,
          "velocity": 0.07874015748031496
        },
        {
          "duration": 0.13953488372095535,
          "durationTicks": 12,
          "midi": 53,
          "name": "F3",
          "ticks": 26404,
          "time": 307.0232558139535,
          "velocity": 0.48031496062992124
        },
        {
          "duration": 0.05813953488370771,
          "durationTicks": 5,
          "midi": 87,
          "name": "D#6",
          "ticks": 26404,
          "time": 307.0232558139535,
          "velocity": 0.07874015748031496
        },
        {
          "duration": 0.034883720930224626,
          "durationTicks": 3,
          "midi": 53,
          "name": "F3",
          "ticks": 26417,
          "time": 307.1744186046512,
          "velocity": 0.36220472440944884
        },
        {
          "duration": 0.023255813953483084,
          "durationTicks": 2,
          "midi": 47,
          "name": "B2",
          "ticks": 26420,
          "time": 307.2093023255814,
          "velocity": 0.28346456692913385
        },
        {
          "duration": 0.034883720930224626,
          "durationTicks": 3,
          "midi": 54,
          "name": "F#3",
          "ticks": 26420,
          "time": 307.2093023255814,
          "velocity": 0.48031496062992124
        },
        {
          "duration": 0.034883720930224626,
          "durationTicks": 3,
          "midi": 55,
          "name": "G3",
          "ticks": 26423,
          "time": 307.24418604651163,
          "velocity": 0.4251968503937008
        },
        {
          "duration": 0.3139534883720785,
          "durationTicks": 27,
          "midi": 74,
          "name": "D5",
          "ticks": 26423,
          "time": 307.24418604651163,
          "velocity": 0.2755905511811024
        },
        {
          "duration": 0.034883720930224626,
          "durationTicks": 3,
          "midi": 62,
          "name": "D4",
          "ticks": 26424,
          "time": 307.25581395348837,
          "velocity": 0.25196850393700787
        },
        {
          "duration": 0.4186046511628092,
          "durationTicks": 36,
          "midi": 83,
          "name": "B5",
          "ticks": 26424,
          "time": 307.25581395348837,
          "velocity": 0.1968503937007874
        },
        {
          "duration": 0.034883720930224626,
          "durationTicks": 3,
          "midi": 99,
          "name": "D#7",
          "ticks": 26424,
          "time": 307.25581395348837,
          "velocity": 0.18110236220472442
        },
        {
          "duration": 0.2674418604651123,
          "durationTicks": 23,
          "midi": 72,
          "name": "C5",
          "ticks": 26425,
          "time": 307.2674418604651,
          "velocity": 0.2125984251968504
        },
        {
          "duration": 0.10465116279067388,
          "durationTicks": 9,
          "midi": 77,
          "name": "F5",
          "ticks": 26425,
          "time": 307.2674418604651,
          "velocity": 0.15748031496062992
        },
        {
          "duration": 0.04651162790696617,
          "durationTicks": 4,
          "midi": 43,
          "name": "G2",
          "ticks": 26426,
          "time": 307.27906976744185,
          "velocity": 0.4566929133858268
        },
        {
          "duration": 0.023255813953483084,
          "durationTicks": 2,
          "midi": 56,
          "name": "G#3",
          "ticks": 26426,
          "time": 307.27906976744185,
          "velocity": 0.3858267716535433
        },
        {
          "duration": 0.1279069767442138,
          "durationTicks": 11,
          "midi": 82,
          "name": "A#5",
          "ticks": 26426,
          "time": 307.27906976744185,
          "velocity": 0.15748031496062992
        },
        {
          "duration": 0.034883720930224626,
          "durationTicks": 3,
          "midi": 90,
          "name": "F#6",
          "ticks": 26426,
          "time": 307.27906976744185,
          "velocity": 0.08661417322834646
        },
        {
          "duration": 0.023255813953483084,
          "durationTicks": 2,
          "midi": 60,
          "name": "C4",
          "ticks": 26427,
          "time": 307.2906976744186,
          "velocity": 0.31496062992125984
        },
        {
          "duration": 0.023255813953483084,
          "durationTicks": 2,
          "midi": 60,
          "name": "C4",
          "ticks": 26430,
          "time": 307.3255813953488,
          "velocity": 0.3228346456692913
        },
        {
          "duration": 0.22093023255814614,
          "durationTicks": 19,
          "midi": 79,
          "name": "G5",
          "ticks": 26430,
          "time": 307.3255813953488,
          "velocity": 0.13385826771653545
        },
        {
          "duration": 0.023255813953483084,
          "durationTicks": 2,
          "midi": 43,
          "name": "G2",
          "ticks": 26432,
          "time": 307.3488372093023,
          "velocity": 0.47244094488188976
        },
        {
          "duration": 0.10465116279073072,
          "durationTicks": 9,
          "midi": 76,
          "name": "E5",
          "ticks": 26434,
          "time": 307.3720930232558,
          "velocity": 0.08661417322834646
        },
        {
          "duration": 0.04651162790702301,
          "durationTicks": 4,
          "midi": 88,
          "name": "E6",
          "ticks": 26434,
          "time": 307.3720930232558,
          "velocity": 0.10236220472440945
        },
        {
          "duration": 0.034883720930224626,
          "durationTicks": 3,
          "midi": 43,
          "name": "G2",
          "ticks": 26435,
          "time": 307.3837209302326,
          "velocity": 0.48031496062992124
        },
        {
          "duration": 0.023255813953483084,
          "durationTicks": 2,
          "midi": 60,
          "name": "C4",
          "ticks": 26435,
          "time": 307.3837209302326,
          "velocity": 0.3228346456692913
        },
        {
          "duration": 0.023255813953483084,
          "durationTicks": 2,
          "midi": 60,
          "name": "C4",
          "ticks": 26438,
          "time": 307.4186046511628,
          "velocity": 0.3543307086614173
        },
        {
          "duration": 0.023255813953483084,
          "durationTicks": 2,
          "midi": 43,
          "name": "G2",
          "ticks": 26440,
          "time": 307.4418604651163,
          "velocity": 0.48031496062992124
        },
        {
          "duration": 0.04651162790696617,
          "durationTicks": 4,
          "midi": 88,
          "name": "E6",
          "ticks": 26442,
          "time": 307.4651162790698,
          "velocity": 0.08661417322834646
        },
        {
          "duration": 0.034883720930224626,
          "durationTicks": 3,
          "midi": 43,
          "name": "G2",
          "ticks": 26443,
          "time": 307.4767441860465,
          "velocity": 0.48031496062992124
        },
        {
          "duration": 0.023255813953483084,
          "durationTicks": 2,
          "midi": 60,
          "name": "C4",
          "ticks": 26443,
          "time": 307.4767441860465,
          "velocity": 0.3464566929133858
        },
        {
          "duration": 0.023255813953483084,
          "durationTicks": 2,
          "midi": 60,
          "name": "C4",
          "ticks": 26446,
          "time": 307.51162790697674,
          "velocity": 0.3543307086614173
        },
        {
          "duration": 0.034883720930224626,
          "durationTicks": 3,
          "midi": 44,
          "name": "G#2",
          "ticks": 26447,
          "time": 307.5232558139535,
          "velocity": 0.47244094488188976
        },
        {
          "duration": 0.023255813953483084,
          "durationTicks": 2,
          "midi": 62,
          "name": "D4",
          "ticks": 26448,
          "time": 307.5348837209302,
          "velocity": 0.2992125984251969
        },
        {
          "duration": 0.0813953488371908,
          "durationTicks": 7,
          "midi": 100,
          "name": "E7",
          "ticks": 26448,
          "time": 307.5348837209302,
          "velocity": 0.2125984251968504
        },
        {
          "duration": 0.05813953488370771,
          "durationTicks": 5,
          "midi": 88,
          "name": "E6",
          "ticks": 26449,
          "time": 307.54651162790697,
          "velocity": 0.10236220472440945
        },
        {
          "duration": 0.24418604651162923,
          "durationTicks": 21,
          "midi": 43,
          "name": "G2",
          "ticks": 26450,
          "time": 307.5581395348837,
          "velocity": 0.4881889763779528
        },
        {
          "duration": 0.2325581395348877,
          "durationTicks": 20,
          "midi": 60,
          "name": "C4",
          "ticks": 26450,
          "time": 307.5581395348837,
          "velocity": 0.3937007874015748
        },
        {
          "duration": 0.22093023255814614,
          "durationTicks": 19,
          "midi": 76,
          "name": "E5",
          "ticks": 26450,
          "time": 307.5581395348837,
          "velocity": 0.2125984251968504
        },
        {
          "duration": 0.04651162790696617,
          "durationTicks": 4,
          "midi": 66,
          "name": "F#4",
          "ticks": 26451,
          "time": 307.56976744186045,
          "velocity": 0.08661417322834646
        },
        {
          "duration": 0.11627906976747227,
          "durationTicks": 10,
          "midi": 79,
          "name": "G5",
          "ticks": 26451,
          "time": 307.56976744186045,
          "velocity": 0.11811023622047244
        },
        {
          "duration": 0.1395348837208985,
          "durationTicks": 12,
          "midi": 74,
          "name": "D5",
          "ticks": 26461,
          "time": 307.6860465116279,
          "velocity": 0.15748031496062992
        },
        {
          "duration": 0.034883720930224626,
          "durationTicks": 3,
          "midi": 54,
          "name": "F#3",
          "ticks": 26469,
          "time": 307.77906976744185,
          "velocity": 0.48031496062992124
        },
        {
          "duration": 0.11627906976747227,
          "durationTicks": 10,
          "midi": 71,
          "name": "B4",
          "ticks": 26469,
          "time": 307.77906976744185,
          "velocity": 0.33070866141732286
        },
        {
          "duration": 0.023255813953483084,
          "durationTicks": 2,
          "midi": 61,
          "name": "C#4",
          "ticks": 26471,
          "time": 307.80232558139534,
          "velocity": 0.25196850393700787
        },
        {
          "duration": 0.11627906976747227,
          "durationTicks": 10,
          "midi": 55,
          "name": "G3",
          "ticks": 26472,
          "time": 307.8139534883721,
          "velocity": 0.5275590551181102
        },
        {
          "duration": 0.0697674418605061,
          "durationTicks": 6,
          "midi": 60,
          "name": "C4",
          "ticks": 26473,
          "time": 307.8255813953488,
          "velocity": 0.2283464566929134
        },
        {
          "duration": 0.04651162790702301,
          "durationTicks": 4,
          "midi": 42,
          "name": "F#2",
          "ticks": 26475,
          "time": 307.8488372093023,
          "velocity": 0.4094488188976378
        },
        {
          "duration": 0.03488372093028147,
          "durationTicks": 3,
          "midi": 74,
          "name": "D5",
          "ticks": 26477,
          "time": 307.8720930232558,
          "velocity": 0.10236220472440945
        },
        {
          "duration": 0.034883720930224626,
          "durationTicks": 3,
          "midi": 42,
          "name": "F#2",
          "ticks": 26482,
          "time": 307.93023255813955,
          "velocity": 0.4094488188976378
        },
        {
          "duration": 0.023255813953483084,
          "durationTicks": 2,
          "midi": 56,
          "name": "G#3",
          "ticks": 26482,
          "time": 307.93023255813955,
          "velocity": 0.4094488188976378
        },
        {
          "duration": 0.06976744186044925,
          "durationTicks": 6,
          "midi": 55,
          "name": "G3",
          "ticks": 26484,
          "time": 307.95348837209303,
          "velocity": 0.4645669291338583
        },
        {
          "duration": 0.30232558139533694,
          "durationTicks": 26,
          "midi": 60,
          "name": "C4",
          "ticks": 26489,
          "time": 308.01162790697674,
          "velocity": 0.47244094488188976
        },
        {
          "duration": 0.023255813953483084,
          "durationTicks": 2,
          "midi": 44,
          "name": "G#2",
          "ticks": 26490,
          "time": 308.0232558139535,
          "velocity": 0.33858267716535434
        },
        {
          "duration": 0.19767441860466306,
          "durationTicks": 17,
          "midi": 88,
          "name": "E6",
          "ticks": 26490,
          "time": 308.0232558139535,
          "velocity": 0.25984251968503935
        },
        {
          "duration": 0.2906976744185954,
          "durationTicks": 25,
          "midi": 67,
          "name": "G4",
          "ticks": 26491,
          "time": 308.0348837209302,
          "velocity": 0.1732283464566929
        },
        {
          "duration": 0.1511627906976969,
          "durationTicks": 13,
          "midi": 74,
          "name": "D5",
          "ticks": 26491,
          "time": 308.0348837209302,
          "velocity": 0.13385826771653545
        },
        {
          "duration": 0.27906976744185386,
          "durationTicks": 24,
          "midi": 79,
          "name": "G5",
          "ticks": 26491,
          "time": 308.0348837209302,
          "velocity": 0.1889763779527559
        },
        {
          "duration": 0.2906976744185954,
          "durationTicks": 25,
          "midi": 83,
          "name": "B5",
          "ticks": 26491,
          "time": 308.0348837209302,
          "velocity": 0.25984251968503935
        },
        {
          "duration": 0.034883720930224626,
          "durationTicks": 3,
          "midi": 102,
          "name": "F#7",
          "ticks": 26491,
          "time": 308.0348837209302,
          "velocity": 0.10236220472440945
        },
        {
          "duration": 0.023255813953483084,
          "durationTicks": 2,
          "midi": 43,
          "name": "G2",
          "ticks": 26493,
          "time": 308.0581395348837,
          "velocity": 0.3228346456692913
        },
        {
          "duration": 0.2325581395348877,
          "durationTicks": 20,
          "midi": 55,
          "name": "G3",
          "ticks": 26493,
          "time": 308.0581395348837,
          "velocity": 0.5118110236220472
        },
        {
          "duration": 0.023255813953483084,
          "durationTicks": 2,
          "midi": 43,
          "name": "G2",
          "ticks": 26496,
          "time": 308.09302325581393,
          "velocity": 0.3543307086614173
        },
        {
          "duration": 0.023255813953483084,
          "durationTicks": 2,
          "midi": 43,
          "name": "G2",
          "ticks": 26499,
          "time": 308.1279069767442,
          "velocity": 0.36220472440944884
        },
        {
          "duration": 0.10465116279067388,
          "durationTicks": 9,
          "midi": 43,
          "name": "G2",
          "ticks": 26502,
          "time": 308.16279069767444,
          "velocity": 0.3543307086614173
        },
        {
          "duration": 0.034883720930224626,
          "durationTicks": 3,
          "midi": 88,
          "name": "E6",
          "ticks": 26509,
          "time": 308.24418604651163,
          "velocity": 0.11023622047244094
        },
        {
          "duration": 0.034883720930224626,
          "durationTicks": 3,
          "midi": 71,
          "name": "B4",
          "ticks": 26513,
          "time": 308.2906976744186,
          "velocity": 0.2440944881889764
        },
        {
          "duration": 0.023255813953483084,
          "durationTicks": 2,
          "midi": 44,
          "name": "G#2",
          "ticks": 26514,
          "time": 308.30232558139534,
          "velocity": 0.36220472440944884
        },
        {
          "duration": 0.13953488372095535,
          "durationTicks": 12,
          "midi": 55,
          "name": "G3",
          "ticks": 26516,
          "time": 308.3255813953488,
          "velocity": 0.49606299212598426
        },
        {
          "duration": 0.034883720930224626,
          "durationTicks": 3,
          "midi": 74,
          "name": "D5",
          "ticks": 26516,
          "time": 308.3255813953488,
          "velocity": 0.12598425196850394
        },
        {
          "duration": 0.023255813953483084,
          "durationTicks": 2,
          "midi": 42,
          "name": "F#2",
          "ticks": 26522,
          "time": 308.3953488372093,
          "velocity": 0.41732283464566927
        },
        {
          "duration": 0.04651162790696617,
          "durationTicks": 4,
          "midi": 74,
          "name": "D5",
          "ticks": 26522,
          "time": 308.3953488372093,
          "velocity": 0.13385826771653545
        },
        {
          "duration": 0.04651162790696617,
          "durationTicks": 4,
          "midi": 60,
          "name": "C4",
          "ticks": 26523,
          "time": 308.40697674418607,
          "velocity": 0.16535433070866143
        },
        {
          "duration": 0.034883720930224626,
          "durationTicks": 3,
          "midi": 44,
          "name": "G#2",
          "ticks": 26528,
          "time": 308.4651162790698,
          "velocity": 0.33858267716535434
        },
        {
          "duration": 0.023255813953483084,
          "durationTicks": 2,
          "midi": 53,
          "name": "F3",
          "ticks": 26528,
          "time": 308.4651162790698,
          "velocity": 0.31496062992125984
        },
        {
          "duration": 0.05813953488370771,
          "durationTicks": 5,
          "midi": 55,
          "name": "G3",
          "ticks": 26530,
          "time": 308.48837209302326,
          "velocity": 0.47244094488188976
        },
        {
          "duration": 0.04651162790696617,
          "durationTicks": 4,
          "midi": 43,
          "name": "G2",
          "ticks": 26531,
          "time": 308.5,
          "velocity": 0.3700787401574803
        },
        {
          "duration": 0.32558139534882,
          "durationTicks": 28,
          "midi": 60,
          "name": "C4",
          "ticks": 26531,
          "time": 308.5,
          "velocity": 0.47244094488188976
        },
        {
          "duration": 0.034883720930224626,
          "durationTicks": 3,
          "midi": 80,
          "name": "G#5",
          "ticks": 26532,
          "time": 308.51162790697674,
          "velocity": 0.1968503937007874
        },
        {
          "duration": 0.09302325581393234,
          "durationTicks": 8,
          "midi": 84,
          "name": "C6",
          "ticks": 26532,
          "time": 308.51162790697674,
          "velocity": 0.12598425196850394
        },
        {
          "duration": 0.3488372093023031,
          "durationTicks": 30,
          "midi": 83,
          "name": "B5",
          "ticks": 26533,
          "time": 308.5232558139535,
          "velocity": 0.25984251968503935
        },
        {
          "duration": 0.11627906976747227,
          "durationTicks": 10,
          "midi": 79,
          "name": "G5",
          "ticks": 26534,
          "time": 308.5348837209302,
          "velocity": 0.1732283464566929
        },
        {
          "duration": 0.22093023255814614,
          "durationTicks": 19,
          "midi": 55,
          "name": "G3",
          "ticks": 26536,
          "time": 308.5581395348837,
          "velocity": 0.48031496062992124
        },
        {
          "duration": 0.058139534883764554,
          "durationTicks": 5,
          "midi": 86,
          "name": "D6",
          "ticks": 26537,
          "time": 308.56976744186045,
          "velocity": 0.10236220472440945
        },
        {
          "duration": 0.023255813953539928,
          "durationTicks": 2,
          "midi": 43,
          "name": "G2",
          "ticks": 26540,
          "time": 308.6046511627907,
          "velocity": 0.4330708661417323
        },
        {
          "duration": 0.2093023255814046,
          "durationTicks": 18,
          "midi": 88,
          "name": "E6",
          "ticks": 26540,
          "time": 308.6046511627907,
          "velocity": 0.18110236220472442
        },
        {
          "duration": 0.034883720930224626,
          "durationTicks": 3,
          "midi": 91,
          "name": "G6",
          "ticks": 26544,
          "time": 308.6511627906977,
          "velocity": 0.07874015748031496
        },
        {
          "duration": 0.034883720930224626,
          "durationTicks": 3,
          "midi": 43,
          "name": "G2",
          "ticks": 26548,
          "time": 308.69767441860466,
          "velocity": 0.4409448818897638
        },
        {
          "duration": 0.10465116279067388,
          "durationTicks": 9,
          "midi": 79,
          "name": "G5",
          "ticks": 26549,
          "time": 308.7093023255814,
          "velocity": 0.16535433070866143
        },
        {
          "duration": 0.06976744186044925,
          "durationTicks": 6,
          "midi": 89,
          "name": "F6",
          "ticks": 26552,
          "time": 308.74418604651163,
          "velocity": 0.07874015748031496
        },
        {
          "duration": 0.04651162790696617,
          "durationTicks": 4,
          "midi": 43,
          "name": "G2",
          "ticks": 26556,
          "time": 308.7906976744186,
          "velocity": 0.4251968503937008
        },
        {
          "duration": 0.023255813953483084,
          "durationTicks": 2,
          "midi": 61,
          "name": "C#4",
          "ticks": 26559,
          "time": 308.8255813953488,
          "velocity": 0.29133858267716534
        },
        {
          "duration": 0.034883720930224626,
          "durationTicks": 3,
          "midi": 72,
          "name": "C5",
          "ticks": 26560,
          "time": 308.83720930232556,
          "velocity": 0.11811023622047244
        },
        {
          "duration": 0.03488372093028147,
          "durationTicks": 3,
          "midi": 60,
          "name": "C4",
          "ticks": 26561,
          "time": 308.8488372093023,
          "velocity": 0.25196850393700787
        },
        {
          "duration": 0.023255813953539928,
          "durationTicks": 2,
          "midi": 44,
          "name": "G#2",
          "ticks": 26562,
          "time": 308.86046511627904,
          "velocity": 0.4251968503937008
        },
        {
          "duration": 0.0697674418605061,
          "durationTicks": 6,
          "midi": 55,
          "name": "G3",
          "ticks": 26562,
          "time": 308.86046511627904,
          "velocity": 0.5039370078740157
        },
        {
          "duration": 0.034883720930224626,
          "durationTicks": 3,
          "midi": 61,
          "name": "C#4",
          "ticks": 26564,
          "time": 308.8837209302326,
          "velocity": 0.2283464566929134
        },
        {
          "duration": 0.023255813953483084,
          "durationTicks": 2,
          "midi": 48,
          "name": "C3",
          "ticks": 26566,
          "time": 308.90697674418607,
          "velocity": 0.2755905511811024
        },
        {
          "duration": 0.034883720930224626,
          "durationTicks": 3,
          "midi": 64,
          "name": "E4",
          "ticks": 26566,
          "time": 308.90697674418607,
          "velocity": 0.07874015748031496
        },
        {
          "duration": 0.034883720930224626,
          "durationTicks": 3,
          "midi": 81,
          "name": "A5",
          "ticks": 26567,
          "time": 308.9186046511628,
          "velocity": 0.13385826771653545
        },
        {
          "duration": 0.09302325581393234,
          "durationTicks": 8,
          "midi": 55,
          "name": "G3",
          "ticks": 26570,
          "time": 308.95348837209303,
          "velocity": 0.4251968503937008
        },
        {
          "duration": 0.034883720930224626,
          "durationTicks": 3,
          "midi": 70,
          "name": "A#4",
          "ticks": 26570,
          "time": 308.95348837209303,
          "velocity": 0.1889763779527559
        },
        {
          "duration": 0.0813953488371908,
          "durationTicks": 7,
          "midi": 74,
          "name": "D5",
          "ticks": 26570,
          "time": 308.95348837209303,
          "velocity": 0.16535433070866143
        },
        {
          "duration": 0.034883720930224626,
          "durationTicks": 3,
          "midi": 66,
          "name": "F#4",
          "ticks": 26573,
          "time": 308.98837209302326,
          "velocity": 0.08661417322834646
        },
        {
          "duration": 0.023255813953483084,
          "durationTicks": 2,
          "midi": 71,
          "name": "B4",
          "ticks": 26573,
          "time": 308.98837209302326,
          "velocity": 0.31496062992125984
        },
        {
          "duration": 0.04651162790696617,
          "durationTicks": 4,
          "midi": 72,
          "name": "C5",
          "ticks": 26575,
          "time": 309.01162790697674,
          "velocity": 0.30708661417322836
        },
        {
          "duration": 0.023255813953483084,
          "durationTicks": 2,
          "midi": 61,
          "name": "C#4",
          "ticks": 26578,
          "time": 309.04651162790697,
          "velocity": 0.3228346456692913
        },
        {
          "duration": 0.034883720930224626,
          "durationTicks": 3,
          "midi": 77,
          "name": "F5",
          "ticks": 26579,
          "time": 309.0581395348837,
          "velocity": 0.09448818897637795
        },
        {
          "duration": 0.034883720930224626,
          "durationTicks": 3,
          "midi": 79,
          "name": "G5",
          "ticks": 26579,
          "time": 309.0581395348837,
          "velocity": 0.10236220472440945
        },
        {
          "duration": 0.13953488372095535,
          "durationTicks": 12,
          "midi": 88,
          "name": "E6",
          "ticks": 26579,
          "time": 309.0581395348837,
          "velocity": 0.15748031496062992
        },
        {
          "duration": 0.1511627906976969,
          "durationTicks": 13,
          "midi": 60,
          "name": "C4",
          "ticks": 26580,
          "time": 309.06976744186045,
          "velocity": 0.4566929133858268
        },
        {
          "duration": 0.08139534883724764,
          "durationTicks": 7,
          "midi": 55,
          "name": "G3",
          "ticks": 26581,
          "time": 309.0813953488372,
          "velocity": 0.5039370078740157
        },
        {
          "duration": 0.0697674418605061,
          "durationTicks": 6,
          "midi": 83,
          "name": "B5",
          "ticks": 26582,
          "time": 309.09302325581393,
          "velocity": 0.07874015748031496
        },
        {
          "duration": 0.10465116279067388,
          "durationTicks": 9,
          "midi": 74,
          "name": "D5",
          "ticks": 26586,
          "time": 309.13953488372096,
          "velocity": 0.14960629921259844
        },
        {
          "duration": 0.04651162790696617,
          "durationTicks": 4,
          "midi": 55,
          "name": "G3",
          "ticks": 26589,
          "time": 309.1744186046512,
          "velocity": 0.44881889763779526
        },
        {
          "duration": 0.023255813953483084,
          "durationTicks": 2,
          "midi": 48,
          "name": "C3",
          "ticks": 26590,
          "time": 309.1860465116279,
          "velocity": 0.2677165354330709
        },
        {
          "duration": 0.034883720930224626,
          "durationTicks": 3,
          "midi": 48,
          "name": "C3",
          "ticks": 26593,
          "time": 309.22093023255815,
          "velocity": 0.2755905511811024
        },
        {
          "duration": 0.023255813953483084,
          "durationTicks": 2,
          "midi": 57,
          "name": "A3",
          "ticks": 26597,
          "time": 309.2674418604651,
          "velocity": 0.25984251968503935
        },
        {
          "duration": 0.13953488372095535,
          "durationTicks": 12,
          "midi": 74,
          "name": "D5",
          "ticks": 26597,
          "time": 309.2674418604651,
          "velocity": 0.11023622047244094
        },
        {
          "duration": 0.034883720930224626,
          "durationTicks": 3,
          "midi": 84,
          "name": "C6",
          "ticks": 26599,
          "time": 309.2906976744186,
          "velocity": 0.12598425196850394
        },
        {
          "duration": 0.034883720930224626,
          "durationTicks": 3,
          "midi": 90,
          "name": "F#6",
          "ticks": 26599,
          "time": 309.2906976744186,
          "velocity": 0.10236220472440945
        },
        {
          "duration": 0.023255813953483084,
          "durationTicks": 2,
          "midi": 56,
          "name": "G#3",
          "ticks": 26601,
          "time": 309.3139534883721,
          "velocity": 0.49606299212598426
        },
        {
          "duration": 0.023255813953483084,
          "durationTicks": 2,
          "midi": 62,
          "name": "D4",
          "ticks": 26602,
          "time": 309.3255813953488,
          "velocity": 0.2283464566929134
        },
        {
          "duration": 0.023255813953483084,
          "durationTicks": 2,
          "midi": 50,
          "name": "D3",
          "ticks": 26603,
          "time": 309.33720930232556,
          "velocity": 0.3228346456692913
        },
        {
          "duration": 0.27906976744185386,
          "durationTicks": 24,
          "midi": 69,
          "name": "A4",
          "ticks": 26603,
          "time": 309.33720930232556,
          "velocity": 0.1968503937007874
        },
        {
          "duration": 0.023255813953483084,
          "durationTicks": 2,
          "midi": 56,
          "name": "G#3",
          "ticks": 26604,
          "time": 309.3488372093023,
          "velocity": 0.4645669291338583
        },
        {
          "duration": 0.24418604651162923,
          "durationTicks": 21,
          "midi": 76,
          "name": "E5",
          "ticks": 26605,
          "time": 309.36046511627904,
          "velocity": 0.14173228346456693
        },
        {
          "duration": 0.023255813953539928,
          "durationTicks": 2,
          "midi": 78,
          "name": "F#5",
          "ticks": 26605,
          "time": 309.36046511627904,
          "velocity": 0.2283464566929134
        },
        {
          "duration": 0.2209302325580893,
          "durationTicks": 19,
          "midi": 50,
          "name": "D3",
          "ticks": 26607,
          "time": 309.3837209302326,
          "velocity": 0.2992125984251969
        },
        {
          "duration": 0.453488372092977,
          "durationTicks": 39,
          "midi": 57,
          "name": "A3",
          "ticks": 26609,
          "time": 309.40697674418607,
          "velocity": 0.4330708661417323
        },
        {
          "duration": 0.5813953488371908,
          "durationTicks": 50,
          "midi": 81,
          "name": "A5",
          "ticks": 26610,
          "time": 309.4186046511628,
          "velocity": 0.2992125984251969
        },
        {
          "duration": 0.15116279069764005,
          "durationTicks": 13,
          "midi": 62,
          "name": "D4",
          "ticks": 26611,
          "time": 309.43023255813955,
          "velocity": 0.4251968503937008
        },
        {
          "duration": 0.16279069767443843,
          "durationTicks": 14,
          "midi": 98,
          "name": "D7",
          "ticks": 26624,
          "time": 309.5813953488372,
          "velocity": 0.3228346456692913
        },
        {
          "duration": 0.1279069767442138,
          "durationTicks": 11,
          "midi": 78,
          "name": "F#5",
          "ticks": 26626,
          "time": 309.6046511627907,
          "velocity": 0.14960629921259844
        },
        {
          "duration": 0.03488372093028147,
          "durationTicks": 3,
          "midi": 63,
          "name": "D#4",
          "ticks": 26627,
          "time": 309.6162790697674,
          "velocity": 0.2677165354330709
        },
        {
          "duration": 0.15116279069764005,
          "durationTicks": 13,
          "midi": 50,
          "name": "D3",
          "ticks": 26629,
          "time": 309.63953488372096,
          "velocity": 0.3858267716535433
        },
        {
          "duration": 0.23255813953483084,
          "durationTicks": 20,
          "midi": 76,
          "name": "E5",
          "ticks": 26629,
          "time": 309.63953488372096,
          "velocity": 0.1732283464566929
        },
        {
          "duration": 0.09302325581393234,
          "durationTicks": 8,
          "midi": 88,
          "name": "E6",
          "ticks": 26629,
          "time": 309.63953488372096,
          "velocity": 0.1732283464566929
        },
        {
          "duration": 0.04651162790696617,
          "durationTicks": 4,
          "midi": 50,
          "name": "D3",
          "ticks": 26643,
          "time": 309.80232558139534,
          "velocity": 0.3543307086614173
        },
        {
          "duration": 0.16279069767443843,
          "durationTicks": 14,
          "midi": 88,
          "name": "E6",
          "ticks": 26647,
          "time": 309.8488372093023,
          "velocity": 0.2283464566929134
        },
        {
          "duration": 0.023255813953539928,
          "durationTicks": 2,
          "midi": 56,
          "name": "G#3",
          "ticks": 26648,
          "time": 309.86046511627904,
          "velocity": 0.2677165354330709
        },
        {
          "duration": 0.08139534883724764,
          "durationTicks": 7,
          "midi": 103,
          "name": "G7",
          "ticks": 26649,
          "time": 309.8720930232558,
          "velocity": 0.08661417322834646
        },
        {
          "duration": 0.10465116279067388,
          "durationTicks": 9,
          "midi": 57,
          "name": "A3",
          "ticks": 26650,
          "time": 309.8837209302326,
          "velocity": 0.3779527559055118
        },
        {
          "duration": 0.04651162790696617,
          "durationTicks": 4,
          "midi": 50,
          "name": "D3",
          "ticks": 26651,
          "time": 309.8953488372093,
          "velocity": 0.3779527559055118
        },
        {
          "duration": 0.023255813953483084,
          "durationTicks": 2,
          "midi": 45,
          "name": "A2",
          "ticks": 26658,
          "time": 309.9767441860465,
          "velocity": 0.33858267716535434
        },
        {
          "duration": 0.034883720930224626,
          "durationTicks": 3,
          "midi": 56,
          "name": "G#3",
          "ticks": 26659,
          "time": 309.98837209302326,
          "velocity": 0.3464566929133858
        },
        {
          "duration": 0.034883720930224626,
          "durationTicks": 3,
          "midi": 62,
          "name": "D4",
          "ticks": 26659,
          "time": 309.98837209302326,
          "velocity": 0.18110236220472442
        },
        {
          "duration": 0.023255813953483084,
          "durationTicks": 2,
          "midi": 46,
          "name": "A#2",
          "ticks": 26660,
          "time": 310,
          "velocity": 0.3543307086614173
        },
        {
          "duration": 0.10465116279073072,
          "durationTicks": 9,
          "midi": 45,
          "name": "A2",
          "ticks": 26662,
          "time": 310.0232558139535,
          "velocity": 0.3937007874015748
        },
        {
          "duration": 0.023255813953483084,
          "durationTicks": 2,
          "midi": 68,
          "name": "G#4",
          "ticks": 26662,
          "time": 310.0232558139535,
          "velocity": 0.2440944881889764
        },
        {
          "duration": 0.04651162790702301,
          "durationTicks": 4,
          "midi": 67,
          "name": "G4",
          "ticks": 26669,
          "time": 310.1046511627907,
          "velocity": 0.25984251968503935
        },
        {
          "duration": 0.023255813953483084,
          "durationTicks": 2,
          "midi": 44,
          "name": "G#2",
          "ticks": 26673,
          "time": 310.1511627906977,
          "velocity": 0.3228346456692913
        },
        {
          "duration": 0.034883720930224626,
          "durationTicks": 3,
          "midi": 71,
          "name": "B4",
          "ticks": 26673,
          "time": 310.1511627906977,
          "velocity": 0.2125984251968504
        },
        {
          "duration": 0.034883720930224626,
          "durationTicks": 3,
          "midi": 50,
          "name": "D3",
          "ticks": 26674,
          "time": 310.16279069767444,
          "velocity": 0.3228346456692913
        },
        {
          "duration": 0.06976744186044925,
          "durationTicks": 6,
          "midi": 57,
          "name": "A3",
          "ticks": 26674,
          "time": 310.16279069767444,
          "velocity": 0.33070866141732286
        },
        {
          "duration": 0.04651162790696617,
          "durationTicks": 4,
          "midi": 45,
          "name": "A2",
          "ticks": 26675,
          "time": 310.1744186046512,
          "velocity": 0.31496062992125984
        },
        {
          "duration": 0.034883720930224626,
          "durationTicks": 3,
          "midi": 45,
          "name": "A2",
          "ticks": 26680,
          "time": 310.2325581395349,
          "velocity": 0.31496062992125984
        },
        {
          "duration": 0.034883720930224626,
          "durationTicks": 3,
          "midi": 61,
          "name": "C#4",
          "ticks": 26680,
          "time": 310.2325581395349,
          "velocity": 0.3228346456692913
        },
        {
          "duration": 0.1395348837208985,
          "durationTicks": 12,
          "midi": 68,
          "name": "G#4",
          "ticks": 26680,
          "time": 310.2325581395349,
          "velocity": 0.3937007874015748
        },
        {
          "duration": 0.1395348837208985,
          "durationTicks": 12,
          "midi": 87,
          "name": "D#6",
          "ticks": 26680,
          "time": 310.2325581395349,
          "velocity": 0.31496062992125984
        },
        {
          "duration": 0.10465116279067388,
          "durationTicks": 9,
          "midi": 102,
          "name": "F#7",
          "ticks": 26681,
          "time": 310.24418604651163,
          "velocity": 0.16535433070866143
        },
        {
          "duration": 0.18604651162792152,
          "durationTicks": 16,
          "midi": 74,
          "name": "D5",
          "ticks": 26682,
          "time": 310.25581395348837,
          "velocity": 0.33070866141732286
        },
        {
          "duration": 0.05813953488370771,
          "durationTicks": 5,
          "midi": 78,
          "name": "F#5",
          "ticks": 26682,
          "time": 310.25581395348837,
          "velocity": 0.14173228346456693
        },
        {
          "duration": 0.04651162790696617,
          "durationTicks": 4,
          "midi": 71,
          "name": "B4",
          "ticks": 26683,
          "time": 310.2674418604651,
          "velocity": 0.2204724409448819
        },
        {
          "duration": 0.24418604651162923,
          "durationTicks": 21,
          "midi": 62,
          "name": "D4",
          "ticks": 26684,
          "time": 310.27906976744185,
          "velocity": 0.44881889763779526
        },
        {
          "duration": 0.11627906976747227,
          "durationTicks": 10,
          "midi": 57,
          "name": "A3",
          "ticks": 26685,
          "time": 310.2906976744186,
          "velocity": 0.44881889763779526
        },
        {
          "duration": 0.09302325581398918,
          "durationTicks": 8,
          "midi": 81,
          "name": "A5",
          "ticks": 26685,
          "time": 310.2906976744186,
          "velocity": 0.11023622047244094
        },
        {
          "duration": 0.023255813953483084,
          "durationTicks": 2,
          "midi": 45,
          "name": "A2",
          "ticks": 26686,
          "time": 310.30232558139534,
          "velocity": 0.23622047244094488
        },
        {
          "duration": 0.04651162790702301,
          "durationTicks": 4,
          "midi": 45,
          "name": "A2",
          "ticks": 26691,
          "time": 310.36046511627904,
          "velocity": 0.25984251968503935
        },
        {
          "duration": 0.023255813953539928,
          "durationTicks": 2,
          "midi": 67,
          "name": "G4",
          "ticks": 26692,
          "time": 310.3720930232558,
          "velocity": 0.25984251968503935
        },
        {
          "duration": 0.034883720930224626,
          "durationTicks": 3,
          "midi": 50,
          "name": "D3",
          "ticks": 26693,
          "time": 310.3837209302326,
          "velocity": 0.1889763779527559
        },
        {
          "duration": 0.05813953488370771,
          "durationTicks": 5,
          "midi": 68,
          "name": "G#4",
          "ticks": 26694,
          "time": 310.3953488372093,
          "velocity": 0.2125984251968504
        },
        {
          "duration": 0.04651162790696617,
          "durationTicks": 4,
          "midi": 56,
          "name": "G#3",
          "ticks": 26695,
          "time": 310.40697674418607,
          "velocity": 0.3464566929133858
        },
        {
          "duration": 0.034883720930224626,
          "durationTicks": 3,
          "midi": 50,
          "name": "D3",
          "ticks": 26697,
          "time": 310.43023255813955,
          "velocity": 0.31496062992125984
        },
        {
          "duration": 0.16279069767443843,
          "durationTicks": 14,
          "midi": 67,
          "name": "G4",
          "ticks": 26703,
          "time": 310.5,
          "velocity": 0.3937007874015748
        },
        {
          "duration": 0.1279069767442138,
          "durationTicks": 11,
          "midi": 86,
          "name": "D6",
          "ticks": 26704,
          "time": 310.51162790697674,
          "velocity": 0.3700787401574803
        },
        {
          "duration": 0.023255813953483084,
          "durationTicks": 2,
          "midi": 50,
          "name": "D3",
          "ticks": 26705,
          "time": 310.5232558139535,
          "velocity": 0.25984251968503935
        },
        {
          "duration": 0.034883720930224626,
          "durationTicks": 3,
          "midi": 71,
          "name": "B4",
          "ticks": 26706,
          "time": 310.5348837209302,
          "velocity": 0.16535433070866143
        },
        {
          "duration": 0.18604651162792152,
          "durationTicks": 16,
          "midi": 74,
          "name": "D5",
          "ticks": 26706,
          "time": 310.5348837209302,
          "velocity": 0.33070866141732286
        },
        {
          "duration": 0.023255813953483084,
          "durationTicks": 2,
          "midi": 49,
          "name": "C#3",
          "ticks": 26707,
          "time": 310.54651162790697,
          "velocity": 0.2677165354330709
        },
        {
          "duration": 0.11627906976747227,
          "durationTicks": 10,
          "midi": 57,
          "name": "A3",
          "ticks": 26707,
          "time": 310.54651162790697,
          "velocity": 0.4330708661417323
        },
        {
          "duration": 0.2093023255814046,
          "durationTicks": 18,
          "midi": 62,
          "name": "D4",
          "ticks": 26707,
          "time": 310.54651162790697,
          "velocity": 0.4251968503937008
        },
        {
          "duration": 0.10465116279073072,
          "durationTicks": 9,
          "midi": 81,
          "name": "A5",
          "ticks": 26708,
          "time": 310.5581395348837,
          "velocity": 0.10236220472440945
        },
        {
          "duration": 0.04651162790702301,
          "durationTicks": 4,
          "midi": 50,
          "name": "D3",
          "ticks": 26711,
          "time": 310.59302325581393,
          "velocity": 0.25196850393700787
        },
        {
          "duration": 0.023255813953483084,
          "durationTicks": 2,
          "midi": 43,
          "name": "G2",
          "ticks": 26717,
          "time": 310.66279069767444,
          "velocity": 0.23622047244094488
        },
        {
          "duration": 0.023255813953483084,
          "durationTicks": 2,
          "midi": 54,
          "name": "F#3",
          "ticks": 26719,
          "time": 310.6860465116279,
          "velocity": 0.28346456692913385
        },
        {
          "duration": 0.04651162790696617,
          "durationTicks": 4,
          "midi": 42,
          "name": "F#2",
          "ticks": 26720,
          "time": 310.69767441860466,
          "velocity": 0.2283464566929134
        },
        {
          "duration": 0.33720930232556157,
          "durationTicks": 29,
          "midi": 65,
          "name": "F4",
          "ticks": 26726,
          "time": 310.7674418604651,
          "velocity": 0.3858267716535433
        },
        {
          "duration": 0.30232558139533694,
          "durationTicks": 26,
          "midi": 84,
          "name": "C6",
          "ticks": 26726,
          "time": 310.7674418604651,
          "velocity": 0.15748031496062992
        },
        {
          "duration": 0.023255813953483084,
          "durationTicks": 2,
          "midi": 44,
          "name": "G#2",
          "ticks": 26728,
          "time": 310.7906976744186,
          "velocity": 0.25196850393700787
        },
        {
          "duration": 0.19767441860466306,
          "durationTicks": 17,
          "midi": 74,
          "name": "D5",
          "ticks": 26728,
          "time": 310.7906976744186,
          "velocity": 0.3700787401574803
        },
        {
          "duration": 0.17441860465117998,
          "durationTicks": 15,
          "midi": 62,
          "name": "D4",
          "ticks": 26729,
          "time": 310.80232558139534,
          "velocity": 0.4330708661417323
        },
        {
          "duration": 0.1511627906976969,
          "durationTicks": 13,
          "midi": 69,
          "name": "A4",
          "ticks": 26729,
          "time": 310.80232558139534,
          "velocity": 0.18110236220472442
        },
        {
          "duration": 0.11627906976747227,
          "durationTicks": 10,
          "midi": 81,
          "name": "A5",
          "ticks": 26729,
          "time": 310.80232558139534,
          "velocity": 0.2204724409448819
        },
        {
          "duration": 0.13953488372095535,
          "durationTicks": 12,
          "midi": 88,
          "name": "E6",
          "ticks": 26729,
          "time": 310.80232558139534,
          "velocity": 0.11023622047244094
        },
        {
          "duration": 0.1279069767442138,
          "durationTicks": 11,
          "midi": 57,
          "name": "A3",
          "ticks": 26730,
          "time": 310.8139534883721,
          "velocity": 0.4094488188976378
        },
        {
          "duration": 0.04651162790696617,
          "durationTicks": 4,
          "midi": 45,
          "name": "A2",
          "ticks": 26736,
          "time": 310.8837209302326,
          "velocity": 0.2204724409448819
        },
        {
          "duration": 0.04651162790696617,
          "durationTicks": 4,
          "midi": 71,
          "name": "B4",
          "ticks": 26742,
          "time": 310.95348837209303,
          "velocity": 0.13385826771653545
        },
        {
          "duration": 0.034883720930224626,
          "durationTicks": 3,
          "midi": 50,
          "name": "D3",
          "ticks": 26744,
          "time": 310.9767441860465,
          "velocity": 0.4094488188976378
        },
        {
          "duration": 0.034883720930224626,
          "durationTicks": 3,
          "midi": 57,
          "name": "A3",
          "ticks": 26749,
          "time": 311.0348837209302,
          "velocity": 0.33070866141732286
        },
        {
          "duration": 0.023255813953483084,
          "durationTicks": 2,
          "midi": 61,
          "name": "C#4",
          "ticks": 26750,
          "time": 311.04651162790697,
          "velocity": 0.29133858267716534
        },
        {
          "duration": 0.023255813953483084,
          "durationTicks": 2,
          "midi": 46,
          "name": "A#2",
          "ticks": 26752,
          "time": 311.06976744186045,
          "velocity": 0.33858267716535434
        },
        {
          "duration": 0.023255813953483084,
          "durationTicks": 2,
          "midi": 56,
          "name": "G#3",
          "ticks": 26752,
          "time": 311.06976744186045,
          "velocity": 0.3858267716535433
        },
        {
          "duration": 0.10465116279073072,
          "durationTicks": 9,
          "midi": 62,
          "name": "D4",
          "ticks": 26752,
          "time": 311.06976744186045,
          "velocity": 0.2992125984251969
        },
        {
          "duration": 0.09302325581398918,
          "durationTicks": 8,
          "midi": 81,
          "name": "A5",
          "ticks": 26752,
          "time": 311.06976744186045,
          "velocity": 0.07874015748031496
        },
        {
          "duration": 0.09302325581398918,
          "durationTicks": 8,
          "midi": 45,
          "name": "A2",
          "ticks": 26754,
          "time": 311.09302325581393,
          "velocity": 0.31496062992125984
        },
        {
          "duration": 0.12790697674415696,
          "durationTicks": 11,
          "midi": 84,
          "name": "C6",
          "ticks": 26762,
          "time": 311.1860465116279,
          "velocity": 0.2047244094488189
        },
        {
          "duration": 0.023255813953483084,
          "durationTicks": 2,
          "midi": 55,
          "name": "G3",
          "ticks": 26763,
          "time": 311.19767441860466,
          "velocity": 0.41732283464566927
        },
        {
          "duration": 0.11627906976741542,
          "durationTicks": 10,
          "midi": 65,
          "name": "F4",
          "ticks": 26763,
          "time": 311.19767441860466,
          "velocity": 0.4094488188976378
        },
        {
          "duration": 0.2093023255814046,
          "durationTicks": 18,
          "midi": 81,
          "name": "A5",
          "ticks": 26763,
          "time": 311.19767441860466,
          "velocity": 0.29133858267716534
        },
        {
          "duration": 0.11627906976741542,
          "durationTicks": 10,
          "midi": 89,
          "name": "F6",
          "ticks": 26763,
          "time": 311.19767441860466,
          "velocity": 0.25984251968503935
        },
        {
          "duration": 0.0813953488371908,
          "durationTicks": 7,
          "midi": 103,
          "name": "G7",
          "ticks": 26763,
          "time": 311.19767441860466,
          "velocity": 0.11811023622047244
        },
        {
          "duration": 0.2093023255814046,
          "durationTicks": 18,
          "midi": 50,
          "name": "D3",
          "ticks": 26764,
          "time": 311.2093023255814,
          "velocity": 0.3779527559055118
        },
        {
          "duration": 0.10465116279067388,
          "durationTicks": 9,
          "midi": 69,
          "name": "A4",
          "ticks": 26764,
          "time": 311.2093023255814,
          "velocity": 0.2125984251968504
        },
        {
          "duration": 0.034883720930224626,
          "durationTicks": 3,
          "midi": 71,
          "name": "B4",
          "ticks": 26764,
          "time": 311.2093023255814,
          "velocity": 0.12598425196850394
        },
        {
          "duration": 0.2906976744185954,
          "durationTicks": 25,
          "midi": 74,
          "name": "D5",
          "ticks": 26764,
          "time": 311.2093023255814,
          "velocity": 0.2755905511811024
        },
        {
          "duration": 0.11627906976741542,
          "durationTicks": 10,
          "midi": 88,
          "name": "E6",
          "ticks": 26764,
          "time": 311.2093023255814,
          "velocity": 0.2047244094488189
        },
        {
          "duration": 0.05813953488370771,
          "durationTicks": 5,
          "midi": 102,
          "name": "F#7",
          "ticks": 26764,
          "time": 311.2093023255814,
          "velocity": 0.14173228346456693
        },
        {
          "duration": 0.09302325581393234,
          "durationTicks": 8,
          "midi": 57,
          "name": "A3",
          "ticks": 26766,
          "time": 311.2325581395349,
          "velocity": 0.47244094488188976
        },
        {
          "duration": 0.034883720930224626,
          "durationTicks": 3,
          "midi": 78,
          "name": "F#5",
          "ticks": 26772,
          "time": 311.30232558139534,
          "velocity": 0.09448818897637795
        },
        {
          "duration": 0.11627906976747227,
          "durationTicks": 10,
          "midi": 67,
          "name": "G4",
          "ticks": 26773,
          "time": 311.3139534883721,
          "velocity": 0.3779527559055118
        },
        {
          "duration": 0.023255813953483084,
          "durationTicks": 2,
          "midi": 58,
          "name": "A#3",
          "ticks": 26774,
          "time": 311.3255813953488,
          "velocity": 0.33070866141732286
        },
        {
          "duration": 0.034883720930224626,
          "durationTicks": 3,
          "midi": 76,
          "name": "E5",
          "ticks": 26774,
          "time": 311.3255813953488,
          "velocity": 0.11811023622047244
        },
        {
          "duration": 0.11627906976747227,
          "durationTicks": 10,
          "midi": 57,
          "name": "A3",
          "ticks": 26776,
          "time": 311.3488372093023,
          "velocity": 0.4566929133858268
        },
        {
          "duration": 0.0697674418605061,
          "durationTicks": 6,
          "midi": 88,
          "name": "E6",
          "ticks": 26776,
          "time": 311.3488372093023,
          "velocity": 0.12598425196850394
        },
        {
          "duration": 0.04651162790696617,
          "durationTicks": 4,
          "midi": 66,
          "name": "F#4",
          "ticks": 26783,
          "time": 311.43023255813955,
          "velocity": 0.13385826771653545
        },
        {
          "duration": 0.023255813953483084,
          "durationTicks": 2,
          "midi": 45,
          "name": "A2",
          "ticks": 26784,
          "time": 311.4418604651163,
          "velocity": 0.4330708661417323
        },
        {
          "duration": 0.0813953488371908,
          "durationTicks": 7,
          "midi": 71,
          "name": "B4",
          "ticks": 26785,
          "time": 311.45348837209303,
          "velocity": 0.1968503937007874
        },
        {
          "duration": 0.023255813953483084,
          "durationTicks": 2,
          "midi": 46,
          "name": "A#2",
          "ticks": 26786,
          "time": 311.4651162790698,
          "velocity": 0.3228346456692913
        },
        {
          "duration": 0.023255813953483084,
          "durationTicks": 2,
          "midi": 49,
          "name": "C#3",
          "ticks": 26787,
          "time": 311.4767441860465,
          "velocity": 0.3700787401574803
        },
        {
          "duration": 0.034883720930224626,
          "durationTicks": 3,
          "midi": 62,
          "name": "D4",
          "ticks": 26788,
          "time": 311.48837209302326,
          "velocity": 0.11023622047244094
        },
        {
          "duration": 0.023255813953483084,
          "durationTicks": 2,
          "midi": 50,
          "name": "D3",
          "ticks": 26789,
          "time": 311.5,
          "velocity": 0.33070866141732286
        },
        {
          "duration": 0.04651162790696617,
          "durationTicks": 4,
          "midi": 55,
          "name": "G3",
          "ticks": 26790,
          "time": 311.51162790697674,
          "velocity": 0.2125984251968504
        },
        {
          "duration": 0.034883720930224626,
          "durationTicks": 3,
          "midi": 76,
          "name": "E5",
          "ticks": 26794,
          "time": 311.5581395348837,
          "velocity": 0.16535433070866143
        },
        {
          "duration": 0.023255813953483084,
          "durationTicks": 2,
          "midi": 57,
          "name": "A3",
          "ticks": 26796,
          "time": 311.5813953488372,
          "velocity": 0.2992125984251969
        },
        {
          "duration": 0.023255813953539928,
          "durationTicks": 2,
          "midi": 55,
          "name": "G3",
          "ticks": 26798,
          "time": 311.6046511627907,
          "velocity": 0.2992125984251969
        },
        {
          "duration": 0.023255813953483084,
          "durationTicks": 2,
          "midi": 71,
          "name": "B4",
          "ticks": 26806,
          "time": 311.69767441860466,
          "velocity": 0.2283464566929134
        },
        {
          "duration": 0.023255813953483084,
          "durationTicks": 2,
          "midi": 57,
          "name": "A3",
          "ticks": 26807,
          "time": 311.7093023255814,
          "velocity": 0.3464566929133858
        },
        {
          "duration": 0.19767441860466306,
          "durationTicks": 17,
          "midi": 74,
          "name": "D5",
          "ticks": 26807,
          "time": 311.7093023255814,
          "velocity": 0.4330708661417323
        },
        {
          "duration": 0.2325581395348877,
          "durationTicks": 20,
          "midi": 62,
          "name": "D4",
          "ticks": 26808,
          "time": 311.72093023255815,
          "velocity": 0.4566929133858268
        },
        {
          "duration": 0.10465116279067388,
          "durationTicks": 9,
          "midi": 76,
          "name": "E5",
          "ticks": 26808,
          "time": 311.72093023255815,
          "velocity": 0.09448818897637795
        },
        {
          "duration": 0.0813953488371908,
          "durationTicks": 7,
          "midi": 88,
          "name": "E6",
          "ticks": 26808,
          "time": 311.72093023255815,
          "velocity": 0.14173228346456693
        },
        {
          "duration": 0.12790697674415696,
          "durationTicks": 11,
          "midi": 98,
          "name": "D7",
          "ticks": 26808,
          "time": 311.72093023255815,
          "velocity": 0.2677165354330709
        },
        {
          "duration": 0.12790697674415696,
          "durationTicks": 11,
          "midi": 102,
          "name": "F#7",
          "ticks": 26808,
          "time": 311.72093023255815,
          "velocity": 0.12598425196850394
        },
        {
          "duration": 0.1395348837208985,
          "durationTicks": 12,
          "midi": 50,
          "name": "D3",
          "ticks": 26809,
          "time": 311.7325581395349,
          "velocity": 0.3858267716535433
        },
        {
          "duration": 0.06976744186044925,
          "durationTicks": 6,
          "midi": 69,
          "name": "A4",
          "ticks": 26809,
          "time": 311.7325581395349,
          "velocity": 0.12598425196850394
        },
        {
          "duration": 0.13953488372095535,
          "durationTicks": 12,
          "midi": 81,
          "name": "A5",
          "ticks": 26810,
          "time": 311.74418604651163,
          "velocity": 0.30708661417322836
        },
        {
          "duration": 0.034883720930224626,
          "durationTicks": 3,
          "midi": 57,
          "name": "A3",
          "ticks": 26811,
          "time": 311.75581395348837,
          "velocity": 0.1732283464566929
        },
        {
          "duration": 0.05813953488370771,
          "durationTicks": 5,
          "midi": 57,
          "name": "A3",
          "ticks": 26815,
          "time": 311.80232558139534,
          "velocity": 0.31496062992125984
        },
        {
          "duration": 0.023255813953539928,
          "durationTicks": 2,
          "midi": 44,
          "name": "G#2",
          "ticks": 26820,
          "time": 311.86046511627904,
          "velocity": 0.2755905511811024
        },
        {
          "duration": 0.023255813953539928,
          "durationTicks": 2,
          "midi": 55,
          "name": "G3",
          "ticks": 26821,
          "time": 311.8720930232558,
          "velocity": 0.31496062992125984
        },
        {
          "duration": 0.05813953488370771,
          "durationTicks": 5,
          "midi": 42,
          "name": "F#2",
          "ticks": 26823,
          "time": 311.8953488372093,
          "velocity": 0.2047244094488189
        },
        {
          "duration": 0.023255813953483084,
          "durationTicks": 2,
          "midi": 48,
          "name": "C3",
          "ticks": 26828,
          "time": 311.95348837209303,
          "velocity": 0.33858267716535434
        },
        {
          "duration": 0.15116279069764005,
          "durationTicks": 13,
          "midi": 78,
          "name": "F#5",
          "ticks": 26828,
          "time": 311.95348837209303,
          "velocity": 0.13385826771653545
        },
        {
          "duration": 0.18604651162792152,
          "durationTicks": 16,
          "midi": 69,
          "name": "A4",
          "ticks": 26829,
          "time": 311.9651162790698,
          "velocity": 0.4015748031496063
        },
        {
          "duration": 0.12790697674415696,
          "durationTicks": 11,
          "midi": 76,
          "name": "E5",
          "ticks": 26829,
          "time": 311.9651162790698,
          "velocity": 0.2283464566929134
        },
        {
          "duration": 0.17441860465117998,
          "durationTicks": 15,
          "midi": 88,
          "name": "E6",
          "ticks": 26829,
          "time": 311.9651162790698,
          "velocity": 0.23622047244094488
        },
        {
          "duration": 0.1395348837208985,
          "durationTicks": 12,
          "midi": 57,
          "name": "A3",
          "ticks": 26830,
          "time": 311.9767441860465,
          "velocity": 0.4251968503937008
        },
        {
          "duration": 0.12790697674415696,
          "durationTicks": 11,
          "midi": 74,
          "name": "D5",
          "ticks": 26830,
          "time": 311.9767441860465,
          "velocity": 0.28346456692913385
        },
        {
          "duration": 0.034883720930224626,
          "durationTicks": 3,
          "midi": 93,
          "name": "A6",
          "ticks": 26830,
          "time": 311.9767441860465,
          "velocity": 0.08661417322834646
        },
        {
          "duration": 0.19767441860466306,
          "durationTicks": 17,
          "midi": 62,
          "name": "D4",
          "ticks": 26831,
          "time": 311.98837209302326,
          "velocity": 0.3464566929133858
        },
        {
          "duration": 0.05813953488370771,
          "durationTicks": 5,
          "midi": 97,
          "name": "C#7",
          "ticks": 26831,
          "time": 311.98837209302326,
          "velocity": 0.07874015748031496
        },
        {
          "duration": 0.04651162790696617,
          "durationTicks": 4,
          "midi": 50,
          "name": "D3",
          "ticks": 26832,
          "time": 312,
          "velocity": 0.29133858267716534
        },
        {
          "duration": 0.06976744186044925,
          "durationTicks": 6,
          "midi": 93,
          "name": "A6",
          "ticks": 26835,
          "time": 312.0348837209302,
          "velocity": 0.14960629921259844
        },
        {
          "duration": 0.0697674418605061,
          "durationTicks": 6,
          "midi": 50,
          "name": "D3",
          "ticks": 26837,
          "time": 312.0581395348837,
          "velocity": 0.31496062992125984
        },
        {
          "duration": 0.023255813953539928,
          "durationTicks": 2,
          "midi": 44,
          "name": "G#2",
          "ticks": 26842,
          "time": 312.1162790697674,
          "velocity": 0.2283464566929134
        },
        {
          "duration": 0.023255813953539928,
          "durationTicks": 2,
          "midi": 56,
          "name": "G#3",
          "ticks": 26842,
          "time": 312.1162790697674,
          "velocity": 0.23622047244094488
        },
        {
          "duration": 0.034883720930224626,
          "durationTicks": 3,
          "midi": 43,
          "name": "G2",
          "ticks": 26844,
          "time": 312.13953488372096,
          "velocity": 0.16535433070866143
        },
        {
          "duration": 0.023255813953483084,
          "durationTicks": 2,
          "midi": 56,
          "name": "G#3",
          "ticks": 26849,
          "time": 312.19767441860466,
          "velocity": 0.2283464566929134
        },
        {
          "duration": 0.04651162790696617,
          "durationTicks": 4,
          "midi": 55,
          "name": "G3",
          "ticks": 26851,
          "time": 312.22093023255815,
          "velocity": 0.29133858267716534
        },
        {
          "duration": 0.0813953488371908,
          "durationTicks": 7,
          "midi": 71,
          "name": "B4",
          "ticks": 26851,
          "time": 312.22093023255815,
          "velocity": 0.11023622047244094
        },
        {
          "duration": 0.023255813953483084,
          "durationTicks": 2,
          "midi": 42,
          "name": "F#2",
          "ticks": 26853,
          "time": 312.24418604651163,
          "velocity": 0.2755905511811024
        },
        {
          "duration": 0.04651162790696617,
          "durationTicks": 4,
          "midi": 42,
          "name": "F#2",
          "ticks": 26856,
          "time": 312.27906976744185,
          "velocity": 0.23622047244094488
        },
        {
          "duration": 0.023255813953483084,
          "durationTicks": 2,
          "midi": 60,
          "name": "C4",
          "ticks": 26860,
          "time": 312.3255813953488,
          "velocity": 0.4015748031496063
        },
        {
          "duration": 0.023255813953483084,
          "durationTicks": 2,
          "midi": 75,
          "name": "D#5",
          "ticks": 26860,
          "time": 312.3255813953488,
          "velocity": 0.29133858267716534
        },
        {
          "duration": 0.034883720930224626,
          "durationTicks": 3,
          "midi": 80,
          "name": "G#5",
          "ticks": 26861,
          "time": 312.33720930232556,
          "velocity": 0.12598425196850394
        },
        {
          "duration": 0.13953488372095535,
          "durationTicks": 12,
          "midi": 87,
          "name": "D#6",
          "ticks": 26861,
          "time": 312.33720930232556,
          "velocity": 0.3464566929133858
        },
        {
          "duration": 0.11627906976747227,
          "durationTicks": 10,
          "midi": 102,
          "name": "F#7",
          "ticks": 26861,
          "time": 312.33720930232556,
          "velocity": 0.1732283464566929
        },
        {
          "duration": 0.03488372093028147,
          "durationTicks": 3,
          "midi": 50,
          "name": "D3",
          "ticks": 26862,
          "time": 312.3488372093023,
          "velocity": 0.2677165354330709
        },
        {
          "duration": 0.1279069767442138,
          "durationTicks": 11,
          "midi": 62,
          "name": "D4",
          "ticks": 26862,
          "time": 312.3488372093023,
          "velocity": 0.3858267716535433
        },
        {
          "duration": 0.13953488372095535,
          "durationTicks": 12,
          "midi": 68,
          "name": "G#4",
          "ticks": 26862,
          "time": 312.3488372093023,
          "velocity": 0.3779527559055118
        },
        {
          "duration": 0.08139534883724764,
          "durationTicks": 7,
          "midi": 81,
          "name": "A5",
          "ticks": 26862,
          "time": 312.3488372093023,
          "velocity": 0.18110236220472442
        },
        {
          "duration": 0.0697674418605061,
          "durationTicks": 6,
          "midi": 96,
          "name": "C7",
          "ticks": 26862,
          "time": 312.3488372093023,
          "velocity": 0.08661417322834646
        },
        {
          "duration": 0.10465116279073072,
          "durationTicks": 9,
          "midi": 57,
          "name": "A3",
          "ticks": 26863,
          "time": 312.36046511627904,
          "velocity": 0.4094488188976378
        },
        {
          "duration": 0.0813953488371908,
          "durationTicks": 7,
          "midi": 50,
          "name": "D3",
          "ticks": 26866,
          "time": 312.3953488372093,
          "velocity": 0.25984251968503935
        },
        {
          "duration": 0.034883720930224626,
          "durationTicks": 3,
          "midi": 60,
          "name": "C4",
          "ticks": 26873,
          "time": 312.4767441860465,
          "velocity": 0.23622047244094488
        },
        {
          "duration": 0.05813953488370771,
          "durationTicks": 5,
          "midi": 68,
          "name": "G#4",
          "ticks": 26875,
          "time": 312.5,
          "velocity": 0.1968503937007874
        },
        {
          "duration": 0.04651162790696617,
          "durationTicks": 4,
          "midi": 42,
          "name": "F#2",
          "ticks": 26878,
          "time": 312.5348837209302,
          "velocity": 0.16535433070866143
        },
        {
          "duration": 0.034883720930224626,
          "durationTicks": 3,
          "midi": 58,
          "name": "A#3",
          "ticks": 26882,
          "time": 312.5813953488372,
          "velocity": 0.36220472440944884
        },
        {
          "duration": 0.034883720930224626,
          "durationTicks": 3,
          "midi": 63,
          "name": "D#4",
          "ticks": 26882,
          "time": 312.5813953488372,
          "velocity": 0.3464566929133858
        },
        {
          "duration": 0.19767441860466306,
          "durationTicks": 17,
          "midi": 74,
          "name": "D5",
          "ticks": 26883,
          "time": 312.59302325581393,
          "velocity": 0.3700787401574803
        },
        {
          "duration": 0.1279069767442138,
          "durationTicks": 11,
          "midi": 67,
          "name": "G4",
          "ticks": 26884,
          "time": 312.6046511627907,
          "velocity": 0.3543307086614173
        },
        {
          "duration": 0.03488372093028147,
          "durationTicks": 3,
          "midi": 71,
          "name": "B4",
          "ticks": 26884,
          "time": 312.6046511627907,
          "velocity": 0.12598425196850394
        },
        {
          "duration": 0.1279069767442138,
          "durationTicks": 11,
          "midi": 81,
          "name": "A5",
          "ticks": 26884,
          "time": 312.6046511627907,
          "velocity": 0.2125984251968504
        },
        {
          "duration": 0.03488372093028147,
          "durationTicks": 3,
          "midi": 101,
          "name": "F7",
          "ticks": 26884,
          "time": 312.6046511627907,
          "velocity": 0.10236220472440945
        },
        {
          "duration": 0.11627906976747227,
          "durationTicks": 10,
          "midi": 57,
          "name": "A3",
          "ticks": 26885,
          "time": 312.6162790697674,
          "velocity": 0.44881889763779526
        },
        {
          "duration": 0.24418604651162923,
          "durationTicks": 21,
          "midi": 62,
          "name": "D4",
          "ticks": 26885,
          "time": 312.6162790697674,
          "velocity": 0.3779527559055118
        },
        {
          "duration": 0.0697674418605061,
          "durationTicks": 6,
          "midi": 88,
          "name": "E6",
          "ticks": 26885,
          "time": 312.6162790697674,
          "velocity": 0.15748031496062992
        },
        {
          "duration": 0.023255813953483084,
          "durationTicks": 2,
          "midi": 44,
          "name": "G#2",
          "ticks": 26887,
          "time": 312.63953488372096,
          "velocity": 0.2992125984251969
        },
        {
          "duration": 0.04651162790696617,
          "durationTicks": 4,
          "midi": 45,
          "name": "A2",
          "ticks": 26889,
          "time": 312.66279069767444,
          "velocity": 0.25196850393700787
        },
        {
          "duration": 0.023255813953483084,
          "durationTicks": 2,
          "midi": 50,
          "name": "D3",
          "ticks": 26894,
          "time": 312.72093023255815,
          "velocity": 0.2677165354330709
        },
        {
          "duration": 0.04651162790696617,
          "durationTicks": 4,
          "midi": 56,
          "name": "G#3",
          "ticks": 26895,
          "time": 312.7325581395349,
          "velocity": 0.33858267716535434
        },
        {
          "duration": 0.034883720930224626,
          "durationTicks": 3,
          "midi": 71,
          "name": "B4",
          "ticks": 26896,
          "time": 312.74418604651163,
          "velocity": 0.15748031496062992
        },
        {
          "duration": 0.023255813953483084,
          "durationTicks": 2,
          "midi": 50,
          "name": "D3",
          "ticks": 26897,
          "time": 312.75581395348837,
          "velocity": 0.23622047244094488
        },
        {
          "duration": 0.05813953488370771,
          "durationTicks": 5,
          "midi": 42,
          "name": "F#2",
          "ticks": 26898,
          "time": 312.7674418604651,
          "velocity": 0.1889763779527559
        },
        {
          "duration": 0.0813953488371908,
          "durationTicks": 7,
          "midi": 57,
          "name": "A3",
          "ticks": 26899,
          "time": 312.77906976744185,
          "velocity": 0.1968503937007874
        },
        {
          "duration": 0.03488372093028147,
          "durationTicks": 3,
          "midi": 48,
          "name": "C3",
          "ticks": 26906,
          "time": 312.86046511627904,
          "velocity": 0.29133858267716534
        },
        {
          "duration": 0.11627906976747227,
          "durationTicks": 10,
          "midi": 57,
          "name": "A3",
          "ticks": 26907,
          "time": 312.8720930232558,
          "velocity": 0.4409448818897638
        },
        {
          "duration": 0.11627906976741542,
          "durationTicks": 10,
          "midi": 62,
          "name": "D4",
          "ticks": 26908,
          "time": 312.8837209302326,
          "velocity": 0.3937007874015748
        },
        {
          "duration": 0.3139534883720785,
          "durationTicks": 27,
          "midi": 65,
          "name": "F4",
          "ticks": 26908,
          "time": 312.8837209302326,
          "velocity": 0.3700787401574803
        },
        {
          "duration": 0.3139534883720785,
          "durationTicks": 27,
          "midi": 84,
          "name": "C6",
          "ticks": 26908,
          "time": 312.8837209302326,
          "velocity": 0.2440944881889764
        },
        {
          "duration": 0.05813953488370771,
          "durationTicks": 5,
          "midi": 88,
          "name": "E6",
          "ticks": 26908,
          "time": 312.8837209302326,
          "velocity": 0.11811023622047244
        },
        {
          "duration": 0.2906976744185954,
          "durationTicks": 25,
          "midi": 89,
          "name": "F6",
          "ticks": 26908,
          "time": 312.8837209302326,
          "velocity": 0.25984251968503935
        },
        {
          "duration": 0.023255813953483084,
          "durationTicks": 2,
          "midi": 45,
          "name": "A2",
          "ticks": 26911,
          "time": 312.9186046511628,
          "velocity": 0.2440944881889764
        },
        {
          "duration": 0.023255813953483084,
          "durationTicks": 2,
          "midi": 50,
          "name": "D3",
          "ticks": 26911,
          "time": 312.9186046511628,
          "velocity": 0.23622047244094488
        },
        {
          "duration": 0.023255813953483084,
          "durationTicks": 2,
          "midi": 58,
          "name": "A#3",
          "ticks": 26919,
          "time": 313.01162790697674,
          "velocity": 0.3937007874015748
        },
        {
          "duration": 0.22093023255814614,
          "durationTicks": 19,
          "midi": 69,
          "name": "A4",
          "ticks": 26919,
          "time": 313.01162790697674,
          "velocity": 0.2755905511811024
        },
        {
          "duration": 0.2093023255814046,
          "durationTicks": 18,
          "midi": 81,
          "name": "A5",
          "ticks": 26919,
          "time": 313.01162790697674,
          "velocity": 0.3228346456692913
        },
        {
          "duration": 0.04651162790696617,
          "durationTicks": 4,
          "midi": 102,
          "name": "F#7",
          "ticks": 26919,
          "time": 313.01162790697674,
          "velocity": 0.15748031496062992
        },
        {
          "duration": 0.17441860465117998,
          "durationTicks": 15,
          "midi": 62,
          "name": "D4",
          "ticks": 26920,
          "time": 313.0232558139535,
          "velocity": 0.3543307086614173
        },
        {
          "duration": 0.18604651162792152,
          "durationTicks": 16,
          "midi": 57,
          "name": "A3",
          "ticks": 26921,
          "time": 313.0348837209302,
          "velocity": 0.4094488188976378
        },
        {
          "duration": 0.04651162790696617,
          "durationTicks": 4,
          "midi": 50,
          "name": "D3",
          "ticks": 26923,
          "time": 313.0581395348837,
          "velocity": 0.33858267716535434
        },
        {
          "duration": 0.034883720930224626,
          "durationTicks": 3,
          "midi": 102,
          "name": "F#7",
          "ticks": 26925,
          "time": 313.0813953488372,
          "velocity": 0.07086614173228346
        },
        {
          "duration": 0.04651162790702301,
          "durationTicks": 4,
          "midi": 88,
          "name": "E6",
          "ticks": 26926,
          "time": 313.09302325581393,
          "velocity": 0.09448818897637795
        },
        {
          "duration": 0.10465116279073072,
          "durationTicks": 9,
          "midi": 50,
          "name": "D3",
          "ticks": 26928,
          "time": 313.1162790697674,
          "velocity": 0.3464566929133858
        },
        {
          "duration": 0.023255813953483084,
          "durationTicks": 2,
          "midi": 45,
          "name": "A2",
          "ticks": 26930,
          "time": 313.13953488372096,
          "velocity": 0.25984251968503935
        },
        {
          "duration": 0.06976744186044925,
          "durationTicks": 6,
          "midi": 78,
          "name": "F#5",
          "ticks": 26931,
          "time": 313.1511627906977,
          "velocity": 0.1968503937007874
        },
        {
          "duration": 0.04651162790696617,
          "durationTicks": 4,
          "midi": 76,
          "name": "E5",
          "ticks": 26933,
          "time": 313.1744186046512,
          "velocity": 0.11811023622047244
        },
        {
          "duration": 0.034883720930224626,
          "durationTicks": 3,
          "midi": 102,
          "name": "F#7",
          "ticks": 26933,
          "time": 313.1744186046512,
          "velocity": 0.09448818897637795
        },
        {
          "duration": 0.034883720930224626,
          "durationTicks": 3,
          "midi": 64,
          "name": "E4",
          "ticks": 26935,
          "time": 313.19767441860466,
          "velocity": 0.3700787401574803
        },
        {
          "duration": 0.034883720930224626,
          "durationTicks": 3,
          "midi": 56,
          "name": "G#3",
          "ticks": 26937,
          "time": 313.22093023255815,
          "velocity": 0.3779527559055118
        },
        {
          "duration": 0.023255813953483084,
          "durationTicks": 2,
          "midi": 49,
          "name": "C#3",
          "ticks": 26938,
          "time": 313.2325581395349,
          "velocity": 0.3228346456692913
        },
        {
          "duration": 0.023255813953483084,
          "durationTicks": 2,
          "midi": 62,
          "name": "D4",
          "ticks": 26939,
          "time": 313.24418604651163,
          "velocity": 0.3700787401574803
        },
        {
          "duration": 0.034883720930224626,
          "durationTicks": 3,
          "midi": 55,
          "name": "G3",
          "ticks": 26940,
          "time": 313.25581395348837,
          "velocity": 0.44881889763779526
        },
        {
          "duration": 0.034883720930224626,
          "durationTicks": 3,
          "midi": 44,
          "name": "G#2",
          "ticks": 26941,
          "time": 313.2674418604651,
          "velocity": 0.3543307086614173
        },
        {
          "duration": 0.023255813953483084,
          "durationTicks": 2,
          "midi": 61,
          "name": "C#4",
          "ticks": 26941,
          "time": 313.2674418604651,
          "velocity": 0.3779527559055118
        },
        {
          "duration": 0.04651162790696617,
          "durationTicks": 4,
          "midi": 42,
          "name": "F#2",
          "ticks": 26944,
          "time": 313.30232558139534,
          "velocity": 0.33858267716535434
        },
        {
          "duration": 0.023255813953483084,
          "durationTicks": 2,
          "midi": 41,
          "name": "F2",
          "ticks": 26948,
          "time": 313.3488372093023,
          "velocity": 0.3228346456692913
        },
        {
          "duration": 0.11627906976741542,
          "durationTicks": 10,
          "midi": 58,
          "name": "A#3",
          "ticks": 26954,
          "time": 313.4186046511628,
          "velocity": 0.33070866141732286
        },
        {
          "duration": 0.023255813953483084,
          "durationTicks": 2,
          "midi": 45,
          "name": "A2",
          "ticks": 26955,
          "time": 313.43023255813955,
          "velocity": 0.4015748031496063
        },
        {
          "duration": 0.034883720930224626,
          "durationTicks": 3,
          "midi": 46,
          "name": "A#2",
          "ticks": 26957,
          "time": 313.45348837209303,
          "velocity": 0.30708661417322836
        },
        {
          "duration": 0.36046511627904465,
          "durationTicks": 31,
          "midi": 74,
          "name": "D5",
          "ticks": 26957,
          "time": 313.45348837209303,
          "velocity": 0.18110236220472442
        },
        {
          "duration": 0.023255813953483084,
          "durationTicks": 2,
          "midi": 46,
          "name": "A#2",
          "ticks": 26961,
          "time": 313.5,
          "velocity": 0.3464566929133858
        },
        {
          "duration": 0.023255813953483084,
          "durationTicks": 2,
          "midi": 53,
          "name": "F3",
          "ticks": 26961,
          "time": 313.5,
          "velocity": 0.36220472440944884
        },
        {
          "duration": 0.034883720930224626,
          "durationTicks": 3,
          "midi": 78,
          "name": "F#5",
          "ticks": 26963,
          "time": 313.5232558139535,
          "velocity": 0.14960629921259844
        },
        {
          "duration": 0.034883720930224626,
          "durationTicks": 3,
          "midi": 53,
          "name": "F3",
          "ticks": 26964,
          "time": 313.5348837209302,
          "velocity": 0.3228346456692913
        },
        {
          "duration": 0.023255813953483084,
          "durationTicks": 2,
          "midi": 59,
          "name": "B3",
          "ticks": 26964,
          "time": 313.5348837209302,
          "velocity": 0.25984251968503935
        },
        {
          "duration": 0.034883720930224626,
          "durationTicks": 3,
          "midi": 70,
          "name": "A#4",
          "ticks": 26964,
          "time": 313.5348837209302,
          "velocity": 0.08661417322834646
        },
        {
          "duration": 0.034883720930224626,
          "durationTicks": 3,
          "midi": 57,
          "name": "A3",
          "ticks": 26966,
          "time": 313.5581395348837,
          "velocity": 0.3464566929133858
        },
        {
          "duration": 0.023255813953483084,
          "durationTicks": 2,
          "midi": 47,
          "name": "B2",
          "ticks": 26968,
          "time": 313.5813953488372,
          "velocity": 0.4330708661417323
        },
        {
          "duration": 0.023255813953483084,
          "durationTicks": 2,
          "midi": 61,
          "name": "C#4",
          "ticks": 26968,
          "time": 313.5813953488372,
          "velocity": 0.33070866141732286
        },
        {
          "duration": 0.023255813953483084,
          "durationTicks": 2,
          "midi": 50,
          "name": "D3",
          "ticks": 26972,
          "time": 313.6279069767442,
          "velocity": 0.4015748031496063
        },
        {
          "duration": 0.034883720930224626,
          "durationTicks": 3,
          "midi": 57,
          "name": "A3",
          "ticks": 26973,
          "time": 313.63953488372096,
          "velocity": 0.31496062992125984
        },
        {
          "duration": 0.43023255813955075,
          "durationTicks": 37,
          "midi": 76,
          "name": "E5",
          "ticks": 26980,
          "time": 313.72093023255815,
          "velocity": 0.07086614173228346
        },
        {
          "duration": 0.034883720930224626,
          "durationTicks": 3,
          "midi": 58,
          "name": "A#3",
          "ticks": 26981,
          "time": 313.7325581395349,
          "velocity": 0.29133858267716534
        },
        {
          "duration": 0.034883720930224626,
          "durationTicks": 3,
          "midi": 58,
          "name": "A#3",
          "ticks": 26987,
          "time": 313.80232558139534,
          "velocity": 0.25984251968503935
        },
        {
          "duration": 0.023255813953483084,
          "durationTicks": 2,
          "midi": 46,
          "name": "A#2",
          "ticks": 26991,
          "time": 313.8488372093023,
          "velocity": 0.36220472440944884
        },
        {
          "duration": 0.03488372093028147,
          "durationTicks": 3,
          "midi": 58,
          "name": "A#3",
          "ticks": 26993,
          "time": 313.8720930232558,
          "velocity": 0.2677165354330709
        },
        {
          "duration": 0.023255813953483084,
          "durationTicks": 2,
          "midi": 46,
          "name": "A#2",
          "ticks": 27000,
          "time": 313.95348837209303,
          "velocity": 0.3543307086614173
        },
        {
          "duration": 0.25581395348837077,
          "durationTicks": 22,
          "midi": 46,
          "name": "A#2",
          "ticks": 27006,
          "time": 314.0232558139535,
          "velocity": 0.30708661417322836
        },
        {
          "duration": 0.13953488372095535,
          "durationTicks": 12,
          "midi": 53,
          "name": "F3",
          "ticks": 27006,
          "time": 314.0232558139535,
          "velocity": 0.15748031496062992
        },
        {
          "duration": 0.17441860465117998,
          "durationTicks": 15,
          "midi": 74,
          "name": "D5",
          "ticks": 27013,
          "time": 314.1046511627907,
          "velocity": 0.12598425196850394
        },
        {
          "duration": 1.197674418604663,
          "durationTicks": 103,
          "midi": 62,
          "name": "D4",
          "ticks": 27014,
          "time": 314.1162790697674,
          "velocity": 0.2125984251968504
        },
        {
          "duration": 0.10465116279067388,
          "durationTicks": 9,
          "midi": 53,
          "name": "F3",
          "ticks": 27019,
          "time": 314.1744186046512,
          "velocity": 0.11811023622047244
        },
        {
          "duration": 0.023255813953483084,
          "durationTicks": 2,
          "midi": 47,
          "name": "B2",
          "ticks": 27028,
          "time": 314.27906976744185,
          "velocity": 0.28346456692913385
        },
        {
          "duration": 0.023255813953483084,
          "durationTicks": 2,
          "midi": 54,
          "name": "F#3",
          "ticks": 27028,
          "time": 314.27906976744185,
          "velocity": 0.3937007874015748
        },
        {
          "duration": 0.034883720930224626,
          "durationTicks": 3,
          "midi": 67,
          "name": "G4",
          "ticks": 27029,
          "time": 314.2906976744186,
          "velocity": 0.14960629921259844
        },
        {
          "duration": 0.034883720930224626,
          "durationTicks": 3,
          "midi": 55,
          "name": "G3",
          "ticks": 27030,
          "time": 314.30232558139534,
          "velocity": 0.4330708661417323
        },
        {
          "duration": 0.023255813953483084,
          "durationTicks": 2,
          "midi": 45,
          "name": "A2",
          "ticks": 27031,
          "time": 314.3139534883721,
          "velocity": 0.3228346456692913
        },
        {
          "duration": 0.034883720930224626,
          "durationTicks": 3,
          "midi": 68,
          "name": "G#4",
          "ticks": 27032,
          "time": 314.3255813953488,
          "velocity": 0.10236220472440945
        },
        {
          "duration": 0.7906976744186522,
          "durationTicks": 68,
          "midi": 46,
          "name": "A#2",
          "ticks": 27033,
          "time": 314.33720930232556,
          "velocity": 0.29133858267716534
        },
        {
          "duration": 0.023255813953483084,
          "durationTicks": 2,
          "midi": 56,
          "name": "G#3",
          "ticks": 27033,
          "time": 314.33720930232556,
          "velocity": 0.4015748031496063
        },
        {
          "duration": 0.04651162790702301,
          "durationTicks": 4,
          "midi": 65,
          "name": "F4",
          "ticks": 27033,
          "time": 314.33720930232556,
          "velocity": 0.07086614173228346
        },
        {
          "duration": 0.29069767441865224,
          "durationTicks": 25,
          "midi": 57,
          "name": "A3",
          "ticks": 27035,
          "time": 314.36046511627904,
          "velocity": 0.3858267716535433
        },
        {
          "duration": 0.04651162790696617,
          "durationTicks": 4,
          "midi": 56,
          "name": "G#3",
          "ticks": 27060,
          "time": 314.6511627906977,
          "velocity": 0.2440944881889764
        },
        {
          "duration": 0.17441860465117998,
          "durationTicks": 15,
          "midi": 68,
          "name": "G#4",
          "ticks": 27065,
          "time": 314.7093023255814,
          "velocity": 0.12598425196850394
        },
        {
          "duration": 0.24418604651162923,
          "durationTicks": 21,
          "midi": 56,
          "name": "G#3",
          "ticks": 27067,
          "time": 314.7325581395349,
          "velocity": 0.3464566929133858
        },
        {
          "duration": 0.023255813953483084,
          "durationTicks": 2,
          "midi": 54,
          "name": "F#3",
          "ticks": 27096,
          "time": 315.06976744186045,
          "velocity": 0.3700787401574803
        },
        {
          "duration": 0.25581395348837077,
          "durationTicks": 22,
          "midi": 55,
          "name": "G3",
          "ticks": 27098,
          "time": 315.09302325581393,
          "velocity": 0.4330708661417323
        },
        {
          "duration": 0.15116279069764005,
          "durationTicks": 13,
          "midi": 46,
          "name": "A#2",
          "ticks": 27102,
          "time": 315.13953488372096,
          "velocity": 0.2283464566929134
        },
        {
          "duration": 0.10465116279073072,
          "durationTicks": 9,
          "midi": 45,
          "name": "A2",
          "ticks": 27115,
          "time": 315.2906976744186,
          "velocity": 0.2047244094488189
        },
        {
          "duration": 0.17441860465117998,
          "durationTicks": 15,
          "midi": 65,
          "name": "F4",
          "ticks": 27122,
          "time": 315.3720930232558,
          "velocity": 0.11811023622047244
        },
        {
          "duration": 0.17441860465117998,
          "durationTicks": 15,
          "midi": 72,
          "name": "C5",
          "ticks": 27122,
          "time": 315.3720930232558,
          "velocity": 0.12598425196850394
        },
        {
          "duration": 0.11627906976741542,
          "durationTicks": 10,
          "midi": 53,
          "name": "F3",
          "ticks": 27123,
          "time": 315.3837209302326,
          "velocity": 0.25984251968503935
        },
        {
          "duration": 0.05813953488370771,
          "durationTicks": 5,
          "midi": 60,
          "name": "C4",
          "ticks": 27133,
          "time": 315.5,
          "velocity": 0.18110236220472442
        },
        {
          "duration": 0.1279069767442138,
          "durationTicks": 11,
          "midi": 48,
          "name": "C3",
          "ticks": 27134,
          "time": 315.51162790697674,
          "velocity": 0.3937007874015748
        },
        {
          "duration": 0.11627906976747227,
          "durationTicks": 10,
          "midi": 55,
          "name": "G3",
          "ticks": 27139,
          "time": 315.56976744186045,
          "velocity": 0.47244094488188976
        },
        {
          "duration": 1.569767441860506,
          "durationTicks": 135,
          "midi": 71,
          "name": "B4",
          "ticks": 27142,
          "time": 315.6046511627907,
          "velocity": 0.2440944881889764
        },
        {
          "duration": 1.8139534883720785,
          "durationTicks": 156,
          "midi": 64,
          "name": "E4",
          "ticks": 27145,
          "time": 315.63953488372096,
          "velocity": 0.3858267716535433
        },
        {
          "duration": 0.15116279069764005,
          "durationTicks": 13,
          "midi": 102,
          "name": "F#7",
          "ticks": 27146,
          "time": 315.6511627906977,
          "velocity": 0.10236220472440945
        },
        {
          "duration": 0.023255813953483084,
          "durationTicks": 2,
          "midi": 59,
          "name": "B3",
          "ticks": 27147,
          "time": 315.66279069767444,
          "velocity": 0.2755905511811024
        },
        {
          "duration": 0.04651162790696617,
          "durationTicks": 4,
          "midi": 59,
          "name": "B3",
          "ticks": 27152,
          "time": 315.72093023255815,
          "velocity": 0.23622047244094488
        },
        {
          "duration": 0.04651162790696617,
          "durationTicks": 4,
          "midi": 59,
          "name": "B3",
          "ticks": 27157,
          "time": 315.77906976744185,
          "velocity": 0.2204724409448819
        },
        {
          "duration": 0.023255813953483084,
          "durationTicks": 2,
          "midi": 48,
          "name": "C3",
          "ticks": 27158,
          "time": 315.7906976744186,
          "velocity": 0.30708661417322836
        },
        {
          "duration": 0.03488372093028147,
          "durationTicks": 3,
          "midi": 59,
          "name": "B3",
          "ticks": 27163,
          "time": 315.8488372093023,
          "velocity": 0.1968503937007874
        },
        {
          "duration": 0.023255813953539928,
          "durationTicks": 2,
          "midi": 51,
          "name": "D#3",
          "ticks": 27164,
          "time": 315.86046511627904,
          "velocity": 0.3543307086614173
        },
        {
          "duration": 0.023255813953483084,
          "durationTicks": 2,
          "midi": 48,
          "name": "C3",
          "ticks": 27166,
          "time": 315.8837209302326,
          "velocity": 0.31496062992125984
        },
        {
          "duration": 0.023255813953483084,
          "durationTicks": 2,
          "midi": 53,
          "name": "F3",
          "ticks": 27168,
          "time": 315.90697674418607,
          "velocity": 0.33858267716535434
        },
        {
          "duration": 0.034883720930224626,
          "durationTicks": 3,
          "midi": 59,
          "name": "B3",
          "ticks": 27169,
          "time": 315.9186046511628,
          "velocity": 0.15748031496062992
        },
        {
          "duration": 0.04651162790696617,
          "durationTicks": 4,
          "midi": 48,
          "name": "C3",
          "ticks": 27171,
          "time": 315.9418604651163,
          "velocity": 0.3228346456692913
        },
        {
          "duration": 0.034883720930224626,
          "durationTicks": 3,
          "midi": 59,
          "name": "B3",
          "ticks": 27175,
          "time": 315.98837209302326,
          "velocity": 0.11811023622047244
        },
        {
          "duration": 1.2790697674418539,
          "durationTicks": 110,
          "midi": 48,
          "name": "C3",
          "ticks": 27176,
          "time": 316,
          "velocity": 0.3228346456692913
        },
        {
          "duration": 0.034883720930224626,
          "durationTicks": 3,
          "midi": 59,
          "name": "B3",
          "ticks": 27181,
          "time": 316.0581395348837,
          "velocity": 0.09448818897637795
        },
        {
          "duration": 0.17441860465117998,
          "durationTicks": 15,
          "midi": 50,
          "name": "D3",
          "ticks": 27310,
          "time": 317.5581395348837,
          "velocity": 0.3779527559055118
        },
        {
          "duration": 0.7209302325581461,
          "durationTicks": 62,
          "midi": 74,
          "name": "D5",
          "ticks": 27314,
          "time": 317.6046511627907,
          "velocity": 0.2755905511811024
        },
        {
          "duration": 0.1395348837208985,
          "durationTicks": 12,
          "midi": 65,
          "name": "F4",
          "ticks": 27319,
          "time": 317.66279069767444,
          "velocity": 0.11811023622047244
        },
        {
          "duration": 0.034883720930224626,
          "durationTicks": 3,
          "midi": 48,
          "name": "C3",
          "ticks": 27325,
          "time": 317.7325581395349,
          "velocity": 0.4094488188976378
        },
        {
          "duration": 0.034883720930224626,
          "durationTicks": 3,
          "midi": 71,
          "name": "B4",
          "ticks": 27325,
          "time": 317.7325581395349,
          "velocity": 0.31496062992125984
        },
        {
          "duration": 1.0697674418604493,
          "durationTicks": 92,
          "midi": 84,
          "name": "C6",
          "ticks": 27325,
          "time": 317.7325581395349,
          "velocity": 0.2992125984251969
        },
        {
          "duration": 0.023255813953483084,
          "durationTicks": 2,
          "midi": 61,
          "name": "C#4",
          "ticks": 27327,
          "time": 317.75581395348837,
          "velocity": 0.2755905511811024
        },
        {
          "duration": 1.3139534883720785,
          "durationTicks": 113,
          "midi": 72,
          "name": "C5",
          "ticks": 27327,
          "time": 317.75581395348837,
          "velocity": 0.33858267716535434
        },
        {
          "duration": 0.6511627906976969,
          "durationTicks": 56,
          "midi": 50,
          "name": "D3",
          "ticks": 27331,
          "time": 317.80232558139534,
          "velocity": 0.4251968503937008
        },
        {
          "duration": 0.023255813953483084,
          "durationTicks": 2,
          "midi": 61,
          "name": "C#4",
          "ticks": 27356,
          "time": 318.09302325581393,
          "velocity": 0.2992125984251969
        },
        {
          "duration": 0.1511627906976969,
          "durationTicks": 13,
          "midi": 90,
          "name": "F#6",
          "ticks": 27357,
          "time": 318.1046511627907,
          "velocity": 0.08661417322834646
        },
        {
          "duration": 0.06976744186044925,
          "durationTicks": 6,
          "midi": 67,
          "name": "G4",
          "ticks": 27387,
          "time": 318.45348837209303,
          "velocity": 0.1732283464566929
        },
        {
          "duration": 0.05813953488370771,
          "durationTicks": 5,
          "midi": 55,
          "name": "G3",
          "ticks": 27388,
          "time": 318.4651162790698,
          "velocity": 0.4881889763779528
        },
        {
          "duration": 0.04651162790696617,
          "durationTicks": 4,
          "midi": 86,
          "name": "D6",
          "ticks": 27388,
          "time": 318.4651162790698,
          "velocity": 0.11811023622047244
        },
        {
          "duration": 0.034883720930224626,
          "durationTicks": 3,
          "midi": 89,
          "name": "F6",
          "ticks": 27388,
          "time": 318.4651162790698,
          "velocity": 0.11811023622047244
        },
        {
          "duration": 0.33720930232556157,
          "durationTicks": 29,
          "midi": 50,
          "name": "D3",
          "ticks": 27393,
          "time": 318.5232558139535,
          "velocity": 0.2283464566929134
        },
        {
          "duration": 0.023255813953483084,
          "durationTicks": 2,
          "midi": 56,
          "name": "G#3",
          "ticks": 27393,
          "time": 318.5232558139535,
          "velocity": 0.3700787401574803
        },
        {
          "duration": 0.2674418604651123,
          "durationTicks": 23,
          "midi": 57,
          "name": "A3",
          "ticks": 27395,
          "time": 318.54651162790697,
          "velocity": 0.36220472440944884
        },
        {
          "duration": 0.04651162790696617,
          "durationTicks": 4,
          "midi": 56,
          "name": "G#3",
          "ticks": 27418,
          "time": 318.8139534883721,
          "velocity": 0.29133858267716534
        },
        {
          "duration": 0.16279069767443843,
          "durationTicks": 14,
          "midi": 68,
          "name": "G#4",
          "ticks": 27422,
          "time": 318.86046511627904,
          "velocity": 0.14960629921259844
        },
        {
          "duration": 0.3720930232557862,
          "durationTicks": 32,
          "midi": 50,
          "name": "D3",
          "ticks": 27424,
          "time": 318.8837209302326,
          "velocity": 0.1732283464566929
        },
        {
          "duration": 0.24418604651162923,
          "durationTicks": 21,
          "midi": 56,
          "name": "G#3",
          "ticks": 27424,
          "time": 318.8837209302326,
          "velocity": 0.3858267716535433
        },
        {
          "duration": 0.30232558139533694,
          "durationTicks": 26,
          "midi": 55,
          "name": "G3",
          "ticks": 27456,
          "time": 319.25581395348837,
          "velocity": 0.4251968503937008
        },
        {
          "duration": 0.10465116279073072,
          "durationTicks": 9,
          "midi": 53,
          "name": "F3",
          "ticks": 27483,
          "time": 319.56976744186045,
          "velocity": 0.30708661417322836
        },
        {
          "duration": 0.023255813953483084,
          "durationTicks": 2,
          "midi": 56,
          "name": "G#3",
          "ticks": 27492,
          "time": 319.6744186046512,
          "velocity": 0.2992125984251969
        },
        {
          "duration": 0.12790697674415696,
          "durationTicks": 11,
          "midi": 43,
          "name": "G2",
          "ticks": 27494,
          "time": 319.69767441860466,
          "velocity": 0.4409448818897638
        },
        {
          "duration": 0.023255813953483084,
          "durationTicks": 2,
          "midi": 50,
          "name": "D3",
          "ticks": 27499,
          "time": 319.75581395348837,
          "velocity": 0.3858267716535433
        },
        {
          "duration": 0.023255813953483084,
          "durationTicks": 2,
          "midi": 51,
          "name": "D#3",
          "ticks": 27501,
          "time": 319.77906976744185,
          "velocity": 0.4094488188976378
        },
        {
          "duration": 0.17441860465117998,
          "durationTicks": 15,
          "midi": 50,
          "name": "D3",
          "ticks": 27505,
          "time": 319.8255813953488,
          "velocity": 0.4645669291338583
        },
        {
          "duration": 0.3023255813953938,
          "durationTicks": 26,
          "midi": 78,
          "name": "F#5",
          "ticks": 27505,
          "time": 319.8255813953488,
          "velocity": 0.16535433070866143
        },
        {
          "duration": 0.1511627906976969,
          "durationTicks": 13,
          "midi": 86,
          "name": "D6",
          "ticks": 27505,
          "time": 319.8255813953488,
          "velocity": 0.11811023622047244
        },
        {
          "duration": 0.023255813953539928,
          "durationTicks": 2,
          "midi": 43,
          "name": "G2",
          "ticks": 27509,
          "time": 319.8720930232558,
          "velocity": 0.3858267716535433
        },
        {
          "duration": 0.4651162790697754,
          "durationTicks": 40,
          "midi": 71,
          "name": "B4",
          "ticks": 27509,
          "time": 319.8720930232558,
          "velocity": 0.12598425196850394
        },
        {
          "duration": 0.3488372093023031,
          "durationTicks": 30,
          "midi": 43,
          "name": "G2",
          "ticks": 27512,
          "time": 319.90697674418607,
          "velocity": 0.31496062992125984
        },
        {
          "duration": 0.10465116279067388,
          "durationTicks": 9,
          "midi": 59,
          "name": "B3",
          "ticks": 27519,
          "time": 319.98837209302326,
          "velocity": 0.23622047244094488
        },
        {
          "duration": 0.8953488372093261,
          "durationTicks": 77,
          "midi": 50,
          "name": "D3",
          "ticks": 27525,
          "time": 320.0581395348837,
          "velocity": 0.3700787401574803
        },
        {
          "duration": 0.05813953488370771,
          "durationTicks": 5,
          "midi": 78,
          "name": "F#5",
          "ticks": 27541,
          "time": 320.24418604651163,
          "velocity": 0.09448818897637795
        },
        {
          "duration": 0.0813953488371908,
          "durationTicks": 7,
          "midi": 78,
          "name": "F#5",
          "ticks": 27555,
          "time": 320.40697674418607,
          "velocity": 0.09448818897637795
        },
        {
          "duration": 0.34883720930235995,
          "durationTicks": 30,
          "midi": 43,
          "name": "G2",
          "ticks": 27587,
          "time": 320.77906976744185,
          "velocity": 0.16535433070866143
        },
        {
          "duration": 0.5813953488371908,
          "durationTicks": 50,
          "midi": 50,
          "name": "D3",
          "ticks": 27606,
          "time": 321,
          "velocity": 0.1968503937007874
        },
        {
          "duration": 0.10465116279067388,
          "durationTicks": 9,
          "midi": 58,
          "name": "A#3",
          "ticks": 27672,
          "time": 321.7674418604651,
          "velocity": 0.25196850393700787
        },
        {
          "duration": 0.023255813953483084,
          "durationTicks": 2,
          "midi": 45,
          "name": "A2",
          "ticks": 27673,
          "time": 321.77906976744185,
          "velocity": 0.3858267716535433
        },
        {
          "duration": 0.023255813953483084,
          "durationTicks": 2,
          "midi": 46,
          "name": "A#2",
          "ticks": 27677,
          "time": 321.8255813953488,
          "velocity": 0.3228346456692913
        },
        {
          "duration": 0.023255813953483084,
          "durationTicks": 2,
          "midi": 53,
          "name": "F3",
          "ticks": 27679,
          "time": 321.8488372093023,
          "velocity": 0.33070866141732286
        },
        {
          "duration": 0.023255813953483084,
          "durationTicks": 2,
          "midi": 46,
          "name": "A#2",
          "ticks": 27682,
          "time": 321.8837209302326,
          "velocity": 0.2992125984251969
        },
        {
          "duration": 0.04651162790696617,
          "durationTicks": 4,
          "midi": 57,
          "name": "A3",
          "ticks": 27682,
          "time": 321.8837209302326,
          "velocity": 0.3543307086614173
        },
        {
          "duration": 0.023255813953483084,
          "durationTicks": 2,
          "midi": 45,
          "name": "A2",
          "ticks": 27684,
          "time": 321.90697674418607,
          "velocity": 0.3937007874015748
        },
        {
          "duration": 0.023255813953483084,
          "durationTicks": 2,
          "midi": 47,
          "name": "B2",
          "ticks": 27686,
          "time": 321.93023255813955,
          "velocity": 0.4409448818897638
        },
        {
          "duration": 0.023255813953483084,
          "durationTicks": 2,
          "midi": 60,
          "name": "C4",
          "ticks": 27686,
          "time": 321.93023255813955,
          "velocity": 0.30708661417322836
        },
        {
          "duration": 0.023255813953483084,
          "durationTicks": 2,
          "midi": 48,
          "name": "C3",
          "ticks": 27688,
          "time": 321.95348837209303,
          "velocity": 0.44881889763779526
        },
        {
          "duration": 0.023255813953483084,
          "durationTicks": 2,
          "midi": 58,
          "name": "A#3",
          "ticks": 27688,
          "time": 321.95348837209303,
          "velocity": 0.2992125984251969
        },
        {
          "duration": 0.023255813953483084,
          "durationTicks": 2,
          "midi": 61,
          "name": "C#4",
          "ticks": 27688,
          "time": 321.95348837209303,
          "velocity": 0.33070866141732286
        },
        {
          "duration": 0.8837209302325277,
          "durationTicks": 76,
          "midi": 74,
          "name": "D5",
          "ticks": 27689,
          "time": 321.9651162790698,
          "velocity": 0.30708661417322836
        },
        {
          "duration": 0.034883720930224626,
          "durationTicks": 3,
          "midi": 57,
          "name": "A3",
          "ticks": 27690,
          "time": 321.9767441860465,
          "velocity": 0.33070866141732286
        },
        {
          "duration": 0.5581395348837077,
          "durationTicks": 48,
          "midi": 62,
          "name": "D4",
          "ticks": 27692,
          "time": 322,
          "velocity": 0.4094488188976378
        },
        {
          "duration": 0.04651162790696617,
          "durationTicks": 4,
          "midi": 57,
          "name": "A3",
          "ticks": 27695,
          "time": 322.0348837209302,
          "velocity": 0.2677165354330709
        },
        {
          "duration": 0.03488372093028147,
          "durationTicks": 3,
          "midi": 58,
          "name": "A#3",
          "ticks": 27701,
          "time": 322.1046511627907,
          "velocity": 0.2440944881889764
        },
        {
          "duration": 0.023255813953539928,
          "durationTicks": 2,
          "midi": 50,
          "name": "D3",
          "ticks": 27702,
          "time": 322.1162790697674,
          "velocity": 0.3779527559055118
        },
        {
          "duration": 0.05813953488370771,
          "durationTicks": 5,
          "midi": 57,
          "name": "A3",
          "ticks": 27707,
          "time": 322.1744186046512,
          "velocity": 0.2125984251968504
        },
        {
          "duration": 0.023255813953483084,
          "durationTicks": 2,
          "midi": 50,
          "name": "D3",
          "ticks": 27711,
          "time": 322.22093023255815,
          "velocity": 0.3700787401574803
        },
        {
          "duration": 0.034883720930224626,
          "durationTicks": 3,
          "midi": 57,
          "name": "A3",
          "ticks": 27713,
          "time": 322.24418604651163,
          "velocity": 0.1968503937007874
        },
        {
          "duration": 0.023255813953483084,
          "durationTicks": 2,
          "midi": 50,
          "name": "D3",
          "ticks": 27714,
          "time": 322.25581395348837,
          "velocity": 0.36220472440944884
        },
        {
          "duration": 0.3953488372093261,
          "durationTicks": 34,
          "midi": 46,
          "name": "A#2",
          "ticks": 27720,
          "time": 322.3255813953488,
          "velocity": 0.3228346456692913
        },
        {
          "duration": 0.034883720930224626,
          "durationTicks": 3,
          "midi": 57,
          "name": "A3",
          "ticks": 27721,
          "time": 322.33720930232556,
          "velocity": 0.25984251968503935
        },
        {
          "duration": 0.058139534883764554,
          "durationTicks": 5,
          "midi": 53,
          "name": "F3",
          "ticks": 27722,
          "time": 322.3488372093023,
          "velocity": 0.2047244094488189
        },
        {
          "duration": 1.1046511627907307,
          "durationTicks": 95,
          "midi": 62,
          "name": "D4",
          "ticks": 27742,
          "time": 322.5813953488372,
          "velocity": 0.2283464566929134
        },
        {
          "duration": 0.058139534883764554,
          "durationTicks": 5,
          "midi": 53,
          "name": "F3",
          "ticks": 27743,
          "time": 322.59302325581393,
          "velocity": 0.13385826771653545
        },
        {
          "duration": 0.04651162790696617,
          "durationTicks": 4,
          "midi": 55,
          "name": "G3",
          "ticks": 27755,
          "time": 322.7325581395349,
          "velocity": 0.5039370078740157
        },
        {
          "duration": 0.023255813953483084,
          "durationTicks": 2,
          "midi": 45,
          "name": "A2",
          "ticks": 27756,
          "time": 322.74418604651163,
          "velocity": 0.31496062992125984
        },
        {
          "duration": 0.33720930232556157,
          "durationTicks": 29,
          "midi": 46,
          "name": "A#2",
          "ticks": 27758,
          "time": 322.7674418604651,
          "velocity": 0.28346456692913385
        },
        {
          "duration": 0.034883720930224626,
          "durationTicks": 3,
          "midi": 56,
          "name": "G#3",
          "ticks": 27759,
          "time": 322.77906976744185,
          "velocity": 0.4094488188976378
        },
        {
          "duration": 0.24418604651162923,
          "durationTicks": 21,
          "midi": 57,
          "name": "A3",
          "ticks": 27762,
          "time": 322.8139534883721,
          "velocity": 0.3779527559055118
        },
        {
          "duration": 0.2093023255814046,
          "durationTicks": 18,
          "midi": 85,
          "name": "C#6",
          "ticks": 27763,
          "time": 322.8255813953488,
          "velocity": 0.07874015748031496
        },
        {
          "duration": 0.023255813953539928,
          "durationTicks": 2,
          "midi": 45,
          "name": "A2",
          "ticks": 27787,
          "time": 323.1046511627907,
          "velocity": 0.23622047244094488
        },
        {
          "duration": 0.023255813953539928,
          "durationTicks": 2,
          "midi": 55,
          "name": "G3",
          "ticks": 27787,
          "time": 323.1046511627907,
          "velocity": 0.4330708661417323
        },
        {
          "duration": 0.16279069767443843,
          "durationTicks": 14,
          "midi": 68,
          "name": "G#4",
          "ticks": 27788,
          "time": 323.1162790697674,
          "velocity": 0.16535433070866143
        },
        {
          "duration": 0.13953488372095535,
          "durationTicks": 12,
          "midi": 84,
          "name": "C6",
          "ticks": 27788,
          "time": 323.1162790697674,
          "velocity": 0.13385826771653545
        },
        {
          "duration": 0.0697674418605061,
          "durationTicks": 6,
          "midi": 90,
          "name": "F#6",
          "ticks": 27788,
          "time": 323.1162790697674,
          "velocity": 0.07874015748031496
        },
        {
          "duration": 0.2674418604651123,
          "durationTicks": 23,
          "midi": 56,
          "name": "G#3",
          "ticks": 27789,
          "time": 323.1279069767442,
          "velocity": 0.44881889763779526
        },
        {
          "duration": 0.33720930232556157,
          "durationTicks": 29,
          "midi": 46,
          "name": "A#2",
          "ticks": 27791,
          "time": 323.1511627906977,
          "velocity": 0.2440944881889764
        },
        {
          "duration": 0.27906976744185386,
          "durationTicks": 24,
          "midi": 55,
          "name": "G3",
          "ticks": 27819,
          "time": 323.4767441860465,
          "velocity": 0.4881889763779528
        },
        {
          "duration": 0.034883720930224626,
          "durationTicks": 3,
          "midi": 47,
          "name": "B2",
          "ticks": 27821,
          "time": 323.5,
          "velocity": 0.1889763779527559
        },
        {
          "duration": 0.09302325581398918,
          "durationTicks": 8,
          "midi": 46,
          "name": "A#2",
          "ticks": 27826,
          "time": 323.5581395348837,
          "velocity": 0.2125984251968504
        },
        {
          "duration": 0.06976744186044925,
          "durationTicks": 6,
          "midi": 45,
          "name": "A2",
          "ticks": 27834,
          "time": 323.6511627906977,
          "velocity": 0.16535433070866143
        },
        {
          "duration": 0.05813953488370771,
          "durationTicks": 5,
          "midi": 53,
          "name": "F3",
          "ticks": 27844,
          "time": 323.7674418604651,
          "velocity": 0.11811023622047244
        },
        {
          "duration": 0.04651162790696617,
          "durationTicks": 4,
          "midi": 44,
          "name": "G#2",
          "ticks": 27849,
          "time": 323.8255813953488,
          "velocity": 0.3937007874015748
        },
        {
          "duration": 0.11627906976747227,
          "durationTicks": 10,
          "midi": 57,
          "name": "A3",
          "ticks": 27850,
          "time": 323.83720930232556,
          "velocity": 0.3543307086614173
        },
        {
          "duration": 0.09302325581398918,
          "durationTicks": 8,
          "midi": 45,
          "name": "A2",
          "ticks": 27853,
          "time": 323.8720930232558,
          "velocity": 0.33858267716535434
        },
        {
          "duration": 0.023255813953483084,
          "durationTicks": 2,
          "midi": 52,
          "name": "E3",
          "ticks": 27857,
          "time": 323.9186046511628,
          "velocity": 0.2755905511811024
        },
        {
          "duration": 0.12790697674415696,
          "durationTicks": 11,
          "midi": 55,
          "name": "G3",
          "ticks": 27860,
          "time": 323.95348837209303,
          "velocity": 0.48031496062992124
        },
        {
          "duration": 0.8488372093023031,
          "durationTicks": 73,
          "midi": 74,
          "name": "D5",
          "ticks": 27860,
          "time": 323.95348837209303,
          "velocity": 0.16535433070866143
        },
        {
          "duration": 0.034883720930224626,
          "durationTicks": 3,
          "midi": 45,
          "name": "A2",
          "ticks": 27862,
          "time": 323.9767441860465,
          "velocity": 0.33070866141732286
        },
        {
          "duration": 0.023255813953483084,
          "durationTicks": 2,
          "midi": 46,
          "name": "A#2",
          "ticks": 27865,
          "time": 324.01162790697674,
          "velocity": 0.31496062992125984
        },
        {
          "duration": 0.32558139534882,
          "durationTicks": 28,
          "midi": 60,
          "name": "C4",
          "ticks": 27865,
          "time": 324.01162790697674,
          "velocity": 0.28346456692913385
        },
        {
          "duration": 0.7441860465116292,
          "durationTicks": 64,
          "midi": 64,
          "name": "E4",
          "ticks": 27866,
          "time": 324.0232558139535,
          "velocity": 0.2755905511811024
        },
        {
          "duration": 0.04651162790696617,
          "durationTicks": 4,
          "midi": 79,
          "name": "G5",
          "ticks": 27866,
          "time": 324.0232558139535,
          "velocity": 0.10236220472440945
        },
        {
          "duration": 0.45348837209303383,
          "durationTicks": 39,
          "midi": 83,
          "name": "B5",
          "ticks": 27866,
          "time": 324.0232558139535,
          "velocity": 0.16535433070866143
        },
        {
          "duration": 0.7790697674418539,
          "durationTicks": 67,
          "midi": 45,
          "name": "A2",
          "ticks": 27867,
          "time": 324.0348837209302,
          "velocity": 0.31496062992125984
        },
        {
          "duration": 0.03488372093028147,
          "durationTicks": 3,
          "midi": 52,
          "name": "E3",
          "ticks": 27873,
          "time": 324.1046511627907,
          "velocity": 0.3779527559055118
        },
        {
          "duration": 0.04651162790696617,
          "durationTicks": 4,
          "midi": 55,
          "name": "G3",
          "ticks": 27878,
          "time": 324.16279069767444,
          "velocity": 0.3779527559055118
        },
        {
          "duration": 0.023255813953483084,
          "durationTicks": 2,
          "midi": 52,
          "name": "E3",
          "ticks": 27881,
          "time": 324.19767441860466,
          "velocity": 0.36220472440944884
        },
        {
          "duration": 0.034883720930224626,
          "durationTicks": 3,
          "midi": 55,
          "name": "G3",
          "ticks": 27891,
          "time": 324.3139534883721,
          "velocity": 0.33070866141732286
        },
        {
          "duration": 0.03488372093028147,
          "durationTicks": 3,
          "midi": 60,
          "name": "C4",
          "ticks": 27894,
          "time": 324.3488372093023,
          "velocity": 0.2047244094488189
        },
        {
          "duration": 0.023255813953483084,
          "durationTicks": 2,
          "midi": 52,
          "name": "E3",
          "ticks": 27900,
          "time": 324.4186046511628,
          "velocity": 0.2992125984251969
        },
        {
          "duration": 0.034883720930224626,
          "durationTicks": 3,
          "midi": 60,
          "name": "C4",
          "ticks": 27908,
          "time": 324.51162790697674,
          "velocity": 0.14960629921259844
        },
        {
          "duration": 0.09302325581398918,
          "durationTicks": 8,
          "midi": 60,
          "name": "C4",
          "ticks": 27912,
          "time": 324.5581395348837,
          "velocity": 0.14173228346456693
        },
        {
          "duration": 0.034883720930224626,
          "durationTicks": 3,
          "midi": 60,
          "name": "C4",
          "ticks": 27921,
          "time": 324.66279069767444,
          "velocity": 0.10236220472440945
        },
        {
          "duration": 0.0813953488371908,
          "durationTicks": 7,
          "midi": 60,
          "name": "C4",
          "ticks": 27925,
          "time": 324.7093023255814,
          "velocity": 0.09448818897637795
        },
        {
          "duration": 0.13953488372095535,
          "durationTicks": 12,
          "midi": 53,
          "name": "F3",
          "ticks": 27932,
          "time": 324.7906976744186,
          "velocity": 0.3858267716535433
        },
        {
          "duration": 0.2325581395348877,
          "durationTicks": 20,
          "midi": 45,
          "name": "A2",
          "ticks": 27935,
          "time": 324.8255813953488,
          "velocity": 0.28346456692913385
        },
        {
          "duration": 0.8604651162790447,
          "durationTicks": 74,
          "midi": 64,
          "name": "E4",
          "ticks": 27943,
          "time": 324.9186046511628,
          "velocity": 0.2755905511811024
        },
        {
          "duration": 0.6976744186046631,
          "durationTicks": 60,
          "midi": 60,
          "name": "C4",
          "ticks": 27956,
          "time": 325.06976744186045,
          "velocity": 0.2677165354330709
        },
        {
          "duration": 0.04651162790702301,
          "durationTicks": 4,
          "midi": 48,
          "name": "C3",
          "ticks": 27958,
          "time": 325.09302325581393,
          "velocity": 0.36220472440944884
        },
        {
          "duration": 0.034883720930224626,
          "durationTicks": 3,
          "midi": 48,
          "name": "C3",
          "ticks": 27975,
          "time": 325.2906976744186,
          "velocity": 0.3543307086614173
        },
        {
          "duration": 0.023255813953483084,
          "durationTicks": 2,
          "midi": 47,
          "name": "B2",
          "ticks": 27984,
          "time": 325.3953488372093,
          "velocity": 0.3464566929133858
        },
        {
          "duration": 0.023255813953483084,
          "durationTicks": 2,
          "midi": 49,
          "name": "C#3",
          "ticks": 27986,
          "time": 325.4186046511628,
          "velocity": 0.30708661417322836
        },
        {
          "duration": 0.034883720930224626,
          "durationTicks": 3,
          "midi": 48,
          "name": "C3",
          "ticks": 27991,
          "time": 325.4767441860465,
          "velocity": 0.3464566929133858
        },
        {
          "duration": 0.034883720930224626,
          "durationTicks": 3,
          "midi": 48,
          "name": "C3",
          "ticks": 27995,
          "time": 325.5232558139535,
          "velocity": 0.33858267716535434
        },
        {
          "duration": 0.023255813953483084,
          "durationTicks": 2,
          "midi": 47,
          "name": "B2",
          "ticks": 28008,
          "time": 325.6744186046512,
          "velocity": 0.3228346456692913
        },
        {
          "duration": 0.023255813953483084,
          "durationTicks": 2,
          "midi": 47,
          "name": "B2",
          "ticks": 28012,
          "time": 325.72093023255815,
          "velocity": 0.3228346456692913
        },
        {
          "duration": 0.023255813953483084,
          "durationTicks": 2,
          "midi": 46,
          "name": "A#2",
          "ticks": 28017,
          "time": 325.77906976744185,
          "velocity": 0.2755905511811024
        },
        {
          "duration": 0.05813953488370771,
          "durationTicks": 5,
          "midi": 45,
          "name": "A2",
          "ticks": 28019,
          "time": 325.80232558139534,
          "velocity": 0.2677165354330709
        },
        {
          "duration": 0.4186046511628092,
          "durationTicks": 36,
          "midi": 50,
          "name": "D3",
          "ticks": 28024,
          "time": 325.86046511627904,
          "velocity": 0.4330708661417323
        },
        {
          "duration": 1,
          "durationTicks": 86,
          "midi": 74,
          "name": "D5",
          "ticks": 28025,
          "time": 325.8720930232558,
          "velocity": 0.30708661417322836
        },
        {
          "duration": 0.6627906976744384,
          "durationTicks": 57,
          "midi": 69,
          "name": "A4",
          "ticks": 28033,
          "time": 325.9651162790698,
          "velocity": 0.29133858267716534
        },
        {
          "duration": 0.2674418604651123,
          "durationTicks": 23,
          "midi": 76,
          "name": "E5",
          "ticks": 28034,
          "time": 325.9767441860465,
          "velocity": 0.28346456692913385
        },
        {
          "duration": 0.023255813953483084,
          "durationTicks": 2,
          "midi": 57,
          "name": "A3",
          "ticks": 28036,
          "time": 326,
          "velocity": 0.23622047244094488
        },
        {
          "duration": 0.023255813953483084,
          "durationTicks": 2,
          "midi": 56,
          "name": "G#3",
          "ticks": 28038,
          "time": 326.0232558139535,
          "velocity": 0.2283464566929134
        },
        {
          "duration": 0.25581395348837077,
          "durationTicks": 22,
          "midi": 83,
          "name": "B5",
          "ticks": 28042,
          "time": 326.06976744186045,
          "velocity": 0.11023622047244094
        },
        {
          "duration": 0.84883720930236,
          "durationTicks": 73,
          "midi": 81,
          "name": "A5",
          "ticks": 28043,
          "time": 326.0813953488372,
          "velocity": 0.36220472440944884
        },
        {
          "duration": 0.8837209302325846,
          "durationTicks": 76,
          "midi": 57,
          "name": "A3",
          "ticks": 28044,
          "time": 326.09302325581393,
          "velocity": 0.2677165354330709
        },
        {
          "duration": 0.058139534883764554,
          "durationTicks": 5,
          "midi": 42,
          "name": "F#2",
          "ticks": 28045,
          "time": 326.1046511627907,
          "velocity": 0.14960629921259844
        },
        {
          "duration": 0.10465116279073072,
          "durationTicks": 9,
          "midi": 103,
          "name": "G7",
          "ticks": 28045,
          "time": 326.1046511627907,
          "velocity": 0.11023622047244094
        },
        {
          "duration": 0.12790697674415696,
          "durationTicks": 11,
          "midi": 100,
          "name": "E7",
          "ticks": 28047,
          "time": 326.1279069767442,
          "velocity": 0.15748031496062992
        },
        {
          "duration": 0.1395348837208985,
          "durationTicks": 12,
          "midi": 97,
          "name": "C#7",
          "ticks": 28048,
          "time": 326.13953488372096,
          "velocity": 0.11023622047244094
        },
        {
          "duration": 0.3953488372092693,
          "durationTicks": 34,
          "midi": 90,
          "name": "F#6",
          "ticks": 28054,
          "time": 326.2093023255814,
          "velocity": 0.10236220472440945
        },
        {
          "duration": 0.17441860465117998,
          "durationTicks": 15,
          "midi": 88,
          "name": "E6",
          "ticks": 28059,
          "time": 326.2674418604651,
          "velocity": 0.14960629921259844
        },
        {
          "duration": 0.18604651162792152,
          "durationTicks": 16,
          "midi": 76,
          "name": "E5",
          "ticks": 28060,
          "time": 326.27906976744185,
          "velocity": 0.2677165354330709
        },
        {
          "duration": 2.1162790697674723,
          "durationTicks": 182,
          "midi": 50,
          "name": "D3",
          "ticks": 28067,
          "time": 326.36046511627904,
          "velocity": 0.3228346456692913
        },
        {
          "duration": 0.16279069767443843,
          "durationTicks": 14,
          "midi": 64,
          "name": "E4",
          "ticks": 28077,
          "time": 326.4767441860465,
          "velocity": 0.1889763779527559
        },
        {
          "duration": 0.18604651162792152,
          "durationTicks": 16,
          "midi": 76,
          "name": "E5",
          "ticks": 28080,
          "time": 326.51162790697674,
          "velocity": 0.25196850393700787
        },
        {
          "duration": 0.2093023255814046,
          "durationTicks": 18,
          "midi": 76,
          "name": "E5",
          "ticks": 28101,
          "time": 326.75581395348837,
          "velocity": 0.2204724409448819
        },
        {
          "duration": 0.19767441860466306,
          "durationTicks": 17,
          "midi": 76,
          "name": "E5",
          "ticks": 28125,
          "time": 327.0348837209302,
          "velocity": 0.1889763779527559
        },
        {
          "duration": 0.1279069767442138,
          "durationTicks": 11,
          "midi": 64,
          "name": "E4",
          "ticks": 28126,
          "time": 327.04651162790697,
          "velocity": 0.13385826771653545
        },
        {
          "duration": 0.09302325581398918,
          "durationTicks": 8,
          "midi": 74,
          "name": "D5",
          "ticks": 28129,
          "time": 327.0813953488372,
          "velocity": 0.07874015748031496
        },
        {
          "duration": 0.19767441860466306,
          "durationTicks": 17,
          "midi": 76,
          "name": "E5",
          "ticks": 28149,
          "time": 327.3139534883721,
          "velocity": 0.15748031496062992
        },
        {
          "duration": 0.13953488372095535,
          "durationTicks": 12,
          "midi": 64,
          "name": "E4",
          "ticks": 28170,
          "time": 327.5581395348837,
          "velocity": 0.09448818897637795
        },
        {
          "duration": 0.1395348837208985,
          "durationTicks": 12,
          "midi": 76,
          "name": "E5",
          "ticks": 28178,
          "time": 327.6511627906977,
          "velocity": 0.09448818897637795
        }
      ],
      "endOfTrackTicks": 28249
    }
  ]
}