{
  "header": {
    "keySignatures": [],
    "meta": [],
    "name": "",
    "ppq": 43,
    "tempos": [
      {
        "bpm": 120,
        "ticks": 0
      }
    ],
    "timeSignatures": []
  },
  "tracks": [
    {
      "channel": 0,
      "controlChanges": {},
      "pitchBends": [],
      "instrument": {
        "family": "piano",
        "number": 0,
        "name": "acoustic grand piano"
      },
      "name": "",
      "notes": [
        {
          "duration": 0.5581395348837209,
          "durationTicks": 48,
          "midi": 64,
          "name": "E4",
          "ticks": 0,
          "time": 0,
          "velocity": 0.15748031496062992
        },
        {
          "duration": 0.5581395348837209,
          "durationTicks": 48,
          "midi": 76,
          "name": "E5",
          "ticks": 0,
          "time": 0,
          "velocity": 0.1968503937007874
        },
        {
          "duration": 0.10465116279069764,
          "durationTicks": 9,
          "midi": 66,
          "name": "F#4",
          "ticks": 54,
          "time": 0.627906976744186,
          "velocity": 0.2047244094488189
        },
        {
          "duration": 0.03488372093023262,
          "durationTicks": 3,
          "midi": 67,
          "name": "G4",
          "ticks": 63,
          "time": 0.7325581395348837,
          "velocity": 0.23622047244094488
        },
        {
          "duration": 0.16279069767441856,
          "durationTicks": 14,
          "midi": 68,
          "name": "G#4",
          "ticks": 66,
          "time": 0.7674418604651163,
          "velocity": 0.2125984251968504
        },
        {
          "duration": 0.11627906976744196,
          "durationTicks": 10,
          "midi": 69,
          "name": "A4",
          "ticks": 80,
          "time": 0.9302325581395349,
          "velocity": 0.25984251968503935
        },
        {
          "duration": 0.13953488372093026,
          "durationTicks": 12,
          "midi": 68,
          "name": "G#4",
          "ticks": 90,
          "time": 1.0465116279069768,
          "velocity": 0.2440944881889764
        },
        {
          "duration": 0.0348837209302324,
          "durationTicks": 3,
          "midi": 67,
          "name": "G4",
          "ticks": 102,
          "time": 1.186046511627907,
          "velocity": 0.14960629921259844
        },
        {
          "duration": 1.2093023255813953,
          "durationTicks": 104,
          "midi": 66,
          "name": "F#4",
          "ticks": 109,
          "time": 1.2674418604651163,
          "velocity": 0.2125984251968504
        },
        {
          "duration": 0.0348837209302324,
          "durationTicks": 3,
          "midi": 44,
          "name": "G#2",
          "ticks": 110,
          "time": 1.2790697674418605,
          "velocity": 0.09448818897637795
        },
        {
          "duration": 0.34883720930232553,
          "durationTicks": 30,
          "midi": 52,
          "name": "E3",
          "ticks": 112,
          "time": 1.302325581395349,
          "velocity": 0.11023622047244094
        },
        {
          "duration": 0.08139534883720922,
          "durationTicks": 7,
          "midi": 69,
          "name": "A4",
          "ticks": 117,
          "time": 1.3604651162790697,
          "velocity": 0.10236220472440945
        },
        {
          "duration": 0.6046511627906974,
          "durationTicks": 52,
          "midi": 63,
          "name": "D#4",
          "ticks": 223,
          "time": 2.5930232558139537,
          "velocity": 0.11811023622047244
        },
        {
          "duration": 0.6046511627906974,
          "durationTicks": 52,
          "midi": 75,
          "name": "D#5",
          "ticks": 223,
          "time": 2.5930232558139537,
          "velocity": 0.16535433070866143
        },
        {
          "duration": 0.19767441860465107,
          "durationTicks": 17,
          "midi": 54,
          "name": "F#3",
          "ticks": 225,
          "time": 2.616279069767442,
          "velocity": 0.1968503937007874
        },
        {
          "duration": 0.04651162790697683,
          "durationTicks": 4,
          "midi": 82,
          "name": "A#5",
          "ticks": 232,
          "time": 2.697674418604651,
          "velocity": 0.07086614173228346
        },
        {
          "duration": 0.10465116279069786,
          "durationTicks": 9,
          "midi": 64,
          "name": "E4",
          "ticks": 281,
          "time": 3.2674418604651163,
          "velocity": 0.2204724409448819
        },
        {
          "duration": 0.034883720930232176,
          "durationTicks": 3,
          "midi": 77,
          "name": "F5",
          "ticks": 289,
          "time": 3.36046511627907,
          "velocity": 0.11811023622047244
        },
        {
          "duration": 0.2558139534883721,
          "durationTicks": 22,
          "midi": 66,
          "name": "F#4",
          "ticks": 292,
          "time": 3.395348837209302,
          "velocity": 0.2125984251968504
        },
        {
          "duration": 0.09302325581395365,
          "durationTicks": 8,
          "midi": 67,
          "name": "G4",
          "ticks": 314,
          "time": 3.6511627906976742,
          "velocity": 0.1968503937007874
        },
        {
          "duration": 0.15116279069767424,
          "durationTicks": 13,
          "midi": 66,
          "name": "F#4",
          "ticks": 322,
          "time": 3.744186046511628,
          "velocity": 0.18110236220472442
        },
        {
          "duration": 0.04651162790697683,
          "durationTicks": 4,
          "midi": 65,
          "name": "F4",
          "ticks": 335,
          "time": 3.895348837209302,
          "velocity": 0.11811023622047244
        },
        {
          "duration": 1.3023255813953485,
          "durationTicks": 112,
          "midi": 64,
          "name": "E4",
          "ticks": 343,
          "time": 3.988372093023256,
          "velocity": 0.1732283464566929
        },
        {
          "duration": 1.2906976744186043,
          "durationTicks": 111,
          "midi": 76,
          "name": "E5",
          "ticks": 343,
          "time": 3.988372093023256,
          "velocity": 0.18110236220472442
        },
        {
          "duration": 1.162790697674419,
          "durationTicks": 100,
          "midi": 47,
          "name": "B2",
          "ticks": 351,
          "time": 4.0813953488372094,
          "velocity": 0.10236220472440945
        },
        {
          "duration": 0.22093023255813993,
          "durationTicks": 19,
          "midi": 61,
          "name": "C#4",
          "ticks": 457,
          "time": 5.313953488372093,
          "velocity": 0.14960629921259844
        },
        {
          "duration": 0.03488372093023262,
          "durationTicks": 3,
          "midi": 52,
          "name": "E3",
          "ticks": 463,
          "time": 5.383720930232558,
          "velocity": 0.11023622047244094
        },
        {
          "duration": 0.3488372093023253,
          "durationTicks": 30,
          "midi": 61,
          "name": "C#4",
          "ticks": 483,
          "time": 5.616279069767442,
          "velocity": 0.14173228346456693
        },
        {
          "duration": 0.11627906976744207,
          "durationTicks": 10,
          "midi": 63,
          "name": "D#4",
          "ticks": 516,
          "time": 6,
          "velocity": 0.15748031496062992
        },
        {
          "duration": 0.10465116279069786,
          "durationTicks": 9,
          "midi": 75,
          "name": "D#5",
          "ticks": 517,
          "time": 6.011627906976744,
          "velocity": 0.1889763779527559
        },
        {
          "duration": 0.5116279069767442,
          "durationTicks": 44,
          "midi": 64,
          "name": "E4",
          "ticks": 526,
          "time": 6.116279069767442,
          "velocity": 0.1968503937007874
        },
        {
          "duration": 0.03488372093023262,
          "durationTicks": 3,
          "midi": 44,
          "name": "G#2",
          "ticks": 567,
          "time": 6.593023255813954,
          "velocity": 0.10236220472440945
        },
        {
          "duration": 0.03488372093023262,
          "durationTicks": 3,
          "midi": 45,
          "name": "A2",
          "ticks": 570,
          "time": 6.627906976744186,
          "velocity": 0.11023622047244094
        },
        {
          "duration": 0.41860465116279055,
          "durationTicks": 36,
          "midi": 75,
          "name": "D#5",
          "ticks": 573,
          "time": 6.662790697674419,
          "velocity": 0.15748031496062992
        },
        {
          "duration": 0.40697674418604635,
          "durationTicks": 35,
          "midi": 63,
          "name": "D#4",
          "ticks": 574,
          "time": 6.674418604651163,
          "velocity": 0.18110236220472442
        },
        {
          "duration": 0.3139534883720927,
          "durationTicks": 27,
          "midi": 45,
          "name": "A2",
          "ticks": 577,
          "time": 6.709302325581396,
          "velocity": 0.08661417322834646
        },
        {
          "duration": 0.04651162790697683,
          "durationTicks": 4,
          "midi": 87,
          "name": "D#6",
          "ticks": 612,
          "time": 7.116279069767442,
          "velocity": 0.07874015748031496
        },
        {
          "duration": 0.7441860465116275,
          "durationTicks": 64,
          "midi": 63,
          "name": "D#4",
          "ticks": 617,
          "time": 7.174418604651163,
          "velocity": 0.11811023622047244
        },
        {
          "duration": 0.6162790697674412,
          "durationTicks": 53,
          "midi": 59,
          "name": "B3",
          "ticks": 685,
          "time": 7.965116279069767,
          "velocity": 0.11023622047244094
        },
        {
          "duration": 0.40697674418604723,
          "durationTicks": 35,
          "midi": 83,
          "name": "B5",
          "ticks": 685,
          "time": 7.965116279069767,
          "velocity": 0.12598425196850394
        },
        {
          "duration": 0.20930232558139572,
          "durationTicks": 18,
          "midi": 87,
          "name": "D#6",
          "ticks": 686,
          "time": 7.976744186046512,
          "velocity": 0.07086614173228346
        },
        {
          "duration": 0.22093023255813904,
          "durationTicks": 19,
          "midi": 54,
          "name": "F#3",
          "ticks": 688,
          "time": 8,
          "velocity": 0.1968503937007874
        },
        {
          "duration": 0.08139534883720856,
          "durationTicks": 7,
          "midi": 71,
          "name": "B4",
          "ticks": 741,
          "time": 8.616279069767442,
          "velocity": 0.10236220472440945
        },
        {
          "duration": 0.08139534883721034,
          "durationTicks": 7,
          "midi": 59,
          "name": "B3",
          "ticks": 742,
          "time": 8.627906976744185,
          "velocity": 0.14173228346456693
        },
        {
          "duration": 0.04651162790697683,
          "durationTicks": 4,
          "midi": 72,
          "name": "C5",
          "ticks": 748,
          "time": 8.69767441860465,
          "velocity": 0.10236220472440945
        },
        {
          "duration": 0.12790697674418716,
          "durationTicks": 11,
          "midi": 61,
          "name": "C#4",
          "ticks": 752,
          "time": 8.744186046511627,
          "velocity": 0.1889763779527559
        },
        {
          "duration": 0.1860465116279073,
          "durationTicks": 16,
          "midi": 61,
          "name": "C#4",
          "ticks": 764,
          "time": 8.883720930232558,
          "velocity": 0.12598425196850394
        },
        {
          "duration": 0.04651162790697683,
          "durationTicks": 4,
          "midi": 60,
          "name": "C4",
          "ticks": 780,
          "time": 9.069767441860465,
          "velocity": 0.13385826771653545
        },
        {
          "duration": 0.03488372093023173,
          "durationTicks": 3,
          "midi": 58,
          "name": "A#3",
          "ticks": 786,
          "time": 9.13953488372093,
          "velocity": 0.11811023622047244
        },
        {
          "duration": 0.04651162790697683,
          "durationTicks": 4,
          "midi": 57,
          "name": "A3",
          "ticks": 789,
          "time": 9.174418604651162,
          "velocity": 0.12598425196850394
        },
        {
          "duration": 0.03488372093023351,
          "durationTicks": 3,
          "midi": 56,
          "name": "G#3",
          "ticks": 793,
          "time": 9.220930232558139,
          "velocity": 0.11811023622047244
        },
        {
          "duration": 0.3139534883720927,
          "durationTicks": 27,
          "midi": 56,
          "name": "G#3",
          "ticks": 799,
          "time": 9.290697674418604,
          "velocity": 0.11811023622047244
        },
        {
          "duration": 0.1627906976744189,
          "durationTicks": 14,
          "midi": 84,
          "name": "C6",
          "ticks": 799,
          "time": 9.290697674418604,
          "velocity": 0.10236220472440945
        },
        {
          "duration": 0.7558139534883708,
          "durationTicks": 65,
          "midi": 68,
          "name": "G#4",
          "ticks": 806,
          "time": 9.372093023255815,
          "velocity": 0.1732283464566929
        },
        {
          "duration": 0.5697674418604652,
          "durationTicks": 49,
          "midi": 64,
          "name": "E4",
          "ticks": 916,
          "time": 10.651162790697674,
          "velocity": 0.18110236220472442
        },
        {
          "duration": 0.5813953488372103,
          "durationTicks": 50,
          "midi": 76,
          "name": "E5",
          "ticks": 916,
          "time": 10.651162790697674,
          "velocity": 0.18110236220472442
        },
        {
          "duration": 0.1976744186046524,
          "durationTicks": 17,
          "midi": 56,
          "name": "G#3",
          "ticks": 920,
          "time": 10.69767441860465,
          "velocity": 0.08661417322834646
        },
        {
          "duration": 0.12790697674418539,
          "durationTicks": 11,
          "midi": 66,
          "name": "F#4",
          "ticks": 972,
          "time": 11.30232558139535,
          "velocity": 0.2204724409448819
        },
        {
          "duration": 0.24418604651162745,
          "durationTicks": 21,
          "midi": 76,
          "name": "E5",
          "ticks": 976,
          "time": 11.348837209302326,
          "velocity": 0.09448818897637795
        },
        {
          "duration": 0.10465116279069697,
          "durationTicks": 9,
          "midi": 64,
          "name": "E4",
          "ticks": 982,
          "time": 11.418604651162791,
          "velocity": 0.11023622047244094
        },
        {
          "duration": 0.04651162790697683,
          "durationTicks": 4,
          "midi": 67,
          "name": "G4",
          "ticks": 983,
          "time": 11.430232558139535,
          "velocity": 0.2440944881889764
        },
        {
          "duration": 0.19767441860465063,
          "durationTicks": 17,
          "midi": 68,
          "name": "G#4",
          "ticks": 987,
          "time": 11.476744186046512,
          "velocity": 0.2125984251968504
        },
        {
          "duration": 0.09302325581395365,
          "durationTicks": 8,
          "midi": 69,
          "name": "A4",
          "ticks": 1004,
          "time": 11.674418604651162,
          "velocity": 0.2204724409448819
        },
        {
          "duration": 0.13953488372093048,
          "durationTicks": 12,
          "midi": 68,
          "name": "G#4",
          "ticks": 1014,
          "time": 11.790697674418604,
          "velocity": 0.2125984251968504
        },
        {
          "duration": 1.1744186046511622,
          "durationTicks": 101,
          "midi": 66,
          "name": "F#4",
          "ticks": 1029,
          "time": 11.965116279069768,
          "velocity": 0.2047244094488189
        },
        {
          "duration": 0.04651162790697683,
          "durationTicks": 4,
          "midi": 85,
          "name": "C#6",
          "ticks": 1036,
          "time": 12.046511627906977,
          "velocity": 0.07874015748031496
        },
        {
          "duration": 0.1976744186046524,
          "durationTicks": 17,
          "midi": 57,
          "name": "A3",
          "ticks": 1037,
          "time": 12.05813953488372,
          "velocity": 0.11811023622047244
        },
        {
          "duration": 0.08139534883721034,
          "durationTicks": 7,
          "midi": 61,
          "name": "C#4",
          "ticks": 1141,
          "time": 13.267441860465116,
          "velocity": 0.07874015748031496
        },
        {
          "duration": 0.4534883720930232,
          "durationTicks": 39,
          "midi": 83,
          "name": "B5",
          "ticks": 1145,
          "time": 13.313953488372093,
          "velocity": 0.2125984251968504
        },
        {
          "duration": 0.4418604651162781,
          "durationTicks": 38,
          "midi": 71,
          "name": "B4",
          "ticks": 1146,
          "time": 13.325581395348838,
          "velocity": 0.11811023622047244
        },
        {
          "duration": 0.16279069767441712,
          "durationTicks": 14,
          "midi": 54,
          "name": "F#3",
          "ticks": 1148,
          "time": 13.348837209302326,
          "velocity": 0.2204724409448819
        },
        {
          "duration": 0.04651162790697683,
          "durationTicks": 4,
          "midi": 82,
          "name": "A#5",
          "ticks": 1151,
          "time": 13.383720930232558,
          "velocity": 0.07086614173228346
        },
        {
          "duration": 0.09302325581395365,
          "durationTicks": 8,
          "midi": 61,
          "name": "C#4",
          "ticks": 1153,
          "time": 13.406976744186046,
          "velocity": 0.11811023622047244
        },
        {
          "duration": 0.25581395348837255,
          "durationTicks": 22,
          "midi": 75,
          "name": "D#5",
          "ticks": 1157,
          "time": 13.453488372093023,
          "velocity": 0.07086614173228346
        },
        {
          "duration": 0.04651162790697683,
          "durationTicks": 4,
          "midi": 82,
          "name": "A#5",
          "ticks": 1159,
          "time": 13.476744186046512,
          "velocity": 0.07086614173228346
        },
        {
          "duration": 0.06976744186046524,
          "durationTicks": 6,
          "midi": 61,
          "name": "C#4",
          "ticks": 1170,
          "time": 13.604651162790697,
          "velocity": 0.11811023622047244
        },
        {
          "duration": 0.12790697674418716,
          "durationTicks": 11,
          "midi": 61,
          "name": "C#4",
          "ticks": 1182,
          "time": 13.744186046511627,
          "velocity": 0.07874015748031496
        },
        {
          "duration": 0.604651162790697,
          "durationTicks": 52,
          "midi": 66,
          "name": "F#4",
          "ticks": 1203,
          "time": 13.988372093023257,
          "velocity": 0.2047244094488189
        },
        {
          "duration": 0.03488372093023173,
          "durationTicks": 3,
          "midi": 85,
          "name": "C#6",
          "ticks": 1208,
          "time": 14.046511627906977,
          "velocity": 0.07086614173228346
        },
        {
          "duration": 0.11627906976744207,
          "durationTicks": 10,
          "midi": 75,
          "name": "D#5",
          "ticks": 1210,
          "time": 14.069767441860465,
          "velocity": 0.10236220472440945
        },
        {
          "duration": 0.10465116279069875,
          "durationTicks": 9,
          "midi": 66,
          "name": "F#4",
          "ticks": 1258,
          "time": 14.627906976744185,
          "velocity": 0.1889763779527559
        },
        {
          "duration": 0.04651162790697683,
          "durationTicks": 4,
          "midi": 67,
          "name": "G4",
          "ticks": 1267,
          "time": 14.732558139534884,
          "velocity": 0.2283464566929134
        },
        {
          "duration": 0.9651162790697665,
          "durationTicks": 83,
          "midi": 68,
          "name": "G#4",
          "ticks": 1271,
          "time": 14.779069767441861,
          "velocity": 0.2204724409448819
        },
        {
          "duration": 0.12790697674418539,
          "durationTicks": 11,
          "midi": 52,
          "name": "E3",
          "ticks": 1281,
          "time": 14.895348837209303,
          "velocity": 0.07086614173228346
        },
        {
          "duration": 0.04651162790697683,
          "durationTicks": 4,
          "midi": 68,
          "name": "G#4",
          "ticks": 1357,
          "time": 15.779069767441861,
          "velocity": 0.10236220472440945
        },
        {
          "duration": 0.325581395348836,
          "durationTicks": 28,
          "midi": 68,
          "name": "G#4",
          "ticks": 1370,
          "time": 15.930232558139535,
          "velocity": 0.16535433070866143
        },
        {
          "duration": 0.03488372093023173,
          "durationTicks": 3,
          "midi": 67,
          "name": "G4",
          "ticks": 1434,
          "time": 16.674418604651162,
          "velocity": 0.1732283464566929
        },
        {
          "duration": 0.1976744186046524,
          "durationTicks": 17,
          "midi": 68,
          "name": "G#4",
          "ticks": 1437,
          "time": 16.709302325581394,
          "velocity": 0.2440944881889764
        },
        {
          "duration": 0.3139534883720927,
          "durationTicks": 27,
          "midi": 71,
          "name": "B4",
          "ticks": 1460,
          "time": 16.976744186046513,
          "velocity": 0.2125984251968504
        },
        {
          "duration": 0.27906976744186096,
          "durationTicks": 24,
          "midi": 90,
          "name": "F#6",
          "ticks": 1461,
          "time": 16.988372093023255,
          "velocity": 0.10236220472440945
        },
        {
          "duration": 0.6395348837209305,
          "durationTicks": 55,
          "midi": 45,
          "name": "A2",
          "ticks": 1490,
          "time": 17.325581395348838,
          "velocity": 0.18110236220472442
        },
        {
          "duration": 0.08139534883720856,
          "durationTicks": 7,
          "midi": 69,
          "name": "A4",
          "ticks": 1490,
          "time": 17.325581395348838,
          "velocity": 0.11811023622047244
        },
        {
          "duration": 0.5348837209302317,
          "durationTicks": 46,
          "midi": 73,
          "name": "C#5",
          "ticks": 1490,
          "time": 17.325581395348838,
          "velocity": 0.2047244094488189
        },
        {
          "duration": 0.25581395348837077,
          "durationTicks": 22,
          "midi": 52,
          "name": "E3",
          "ticks": 1497,
          "time": 17.406976744186046,
          "velocity": 0.07086614173228346
        },
        {
          "duration": 0.03488372093023173,
          "durationTicks": 3,
          "midi": 69,
          "name": "A4",
          "ticks": 1498,
          "time": 17.41860465116279,
          "velocity": 0.15748031496062992
        },
        {
          "duration": 0.15116279069767558,
          "durationTicks": 13,
          "midi": 64,
          "name": "E4",
          "ticks": 1500,
          "time": 17.441860465116278,
          "velocity": 0.07086614173228346
        },
        {
          "duration": 0.11627906976744029,
          "durationTicks": 10,
          "midi": 75,
          "name": "D#5",
          "ticks": 1545,
          "time": 17.96511627906977,
          "velocity": 0.28346456692913385
        },
        {
          "duration": 0.5,
          "durationTicks": 43,
          "midi": 76,
          "name": "E5",
          "ticks": 1555,
          "time": 18.08139534883721,
          "velocity": 0.23622047244094488
        },
        {
          "duration": 0.08139534883720856,
          "durationTicks": 7,
          "midi": 75,
          "name": "D#5",
          "ticks": 1603,
          "time": 18.63953488372093,
          "velocity": 0.2125984251968504
        },
        {
          "duration": 0.13953488372093048,
          "durationTicks": 12,
          "midi": 54,
          "name": "F#3",
          "ticks": 1609,
          "time": 18.709302325581394,
          "velocity": 0.1968503937007874
        },
        {
          "duration": 0.10465116279069875,
          "durationTicks": 9,
          "midi": 76,
          "name": "E5",
          "ticks": 1610,
          "time": 18.72093023255814,
          "velocity": 0.18110236220472442
        },
        {
          "duration": 0.08139534883721211,
          "durationTicks": 7,
          "midi": 71,
          "name": "B4",
          "ticks": 1613,
          "time": 18.75581395348837,
          "velocity": 0.08661417322834646
        },
        {
          "duration": 0.29069767441860606,
          "durationTicks": 25,
          "midi": 73,
          "name": "C#5",
          "ticks": 1636,
          "time": 19.023255813953487,
          "velocity": 0.11811023622047244
        },
        {
          "duration": 0.09302325581395365,
          "durationTicks": 8,
          "midi": 66,
          "name": "F#4",
          "ticks": 1663,
          "time": 19.337209302325583,
          "velocity": 0.07086614173228346
        },
        {
          "duration": 0.27906976744186096,
          "durationTicks": 24,
          "midi": 71,
          "name": "B4",
          "ticks": 1664,
          "time": 19.348837209302324,
          "velocity": 0.25984251968503935
        },
        {
          "duration": 0.24418604651162923,
          "durationTicks": 21,
          "midi": 90,
          "name": "F#6",
          "ticks": 1665,
          "time": 19.36046511627907,
          "velocity": 0.14173228346456693
        },
        {
          "duration": 0.10465116279069875,
          "durationTicks": 9,
          "midi": 73,
          "name": "C#5",
          "ticks": 1693,
          "time": 19.686046511627907,
          "velocity": 0.1732283464566929
        },
        {
          "duration": 0.27906976744186096,
          "durationTicks": 24,
          "midi": 75,
          "name": "D#5",
          "ticks": 1704,
          "time": 19.813953488372093,
          "velocity": 0.2440944881889764
        },
        {
          "duration": 0.7441860465116292,
          "durationTicks": 64,
          "midi": 73,
          "name": "C#5",
          "ticks": 1722,
          "time": 20.023255813953487,
          "velocity": 0.25196850393700787
        },
        {
          "duration": 0.16279069767441712,
          "durationTicks": 14,
          "midi": 61,
          "name": "C#4",
          "ticks": 1725,
          "time": 20.058139534883722,
          "velocity": 0.10236220472440945
        },
        {
          "duration": 0.09302325581395365,
          "durationTicks": 8,
          "midi": 75,
          "name": "D#5",
          "ticks": 1743,
          "time": 20.267441860465116,
          "velocity": 0.09448818897637795
        },
        {
          "duration": 0.06976744186046702,
          "durationTicks": 6,
          "midi": 75,
          "name": "D#5",
          "ticks": 1762,
          "time": 20.488372093023255,
          "velocity": 0.07086614173228346
        },
        {
          "duration": 0.06976744186046346,
          "durationTicks": 6,
          "midi": 73,
          "name": "C#5",
          "ticks": 1788,
          "time": 20.790697674418606,
          "velocity": 0.16535433070866143
        },
        {
          "duration": 0.18604651162790375,
          "durationTicks": 16,
          "midi": 73,
          "name": "C#5",
          "ticks": 1796,
          "time": 20.88372093023256,
          "velocity": 0.16535433070866143
        },
        {
          "duration": 0.06976744186046702,
          "durationTicks": 6,
          "midi": 73,
          "name": "C#5",
          "ticks": 1816,
          "time": 21.11627906976744,
          "velocity": 0.11811023622047244
        },
        {
          "duration": 0.03488372093023173,
          "durationTicks": 3,
          "midi": 73,
          "name": "C#5",
          "ticks": 1826,
          "time": 21.232558139534884,
          "velocity": 0.07086614173228346
        },
        {
          "duration": 0.5581395348837184,
          "durationTicks": 48,
          "midi": 61,
          "name": "C#4",
          "ticks": 1835,
          "time": 21.337209302325583,
          "velocity": 0.08661417322834646
        },
        {
          "duration": 0.4883720930232549,
          "durationTicks": 42,
          "midi": 64,
          "name": "E4",
          "ticks": 1985,
          "time": 23.08139534883721,
          "velocity": 0.16535433070866143
        },
        {
          "duration": 0.4883720930232549,
          "durationTicks": 42,
          "midi": 76,
          "name": "E5",
          "ticks": 1985,
          "time": 23.08139534883721,
          "velocity": 0.2047244094488189
        },
        {
          "duration": 0.46511627906976827,
          "durationTicks": 40,
          "midi": 83,
          "name": "B5",
          "ticks": 1985,
          "time": 23.08139534883721,
          "velocity": 0.10236220472440945
        },
        {
          "duration": 0.08139534883720856,
          "durationTicks": 7,
          "midi": 66,
          "name": "F#4",
          "ticks": 2034,
          "time": 23.651162790697676,
          "velocity": 0.1732283464566929
        },
        {
          "duration": 0.08139534883720856,
          "durationTicks": 7,
          "midi": 78,
          "name": "F#5",
          "ticks": 2034,
          "time": 23.651162790697676,
          "velocity": 0.1732283464566929
        },
        {
          "duration": 0.03488372093023173,
          "durationTicks": 3,
          "midi": 67,
          "name": "G4",
          "ticks": 2041,
          "time": 23.732558139534884,
          "velocity": 0.1889763779527559
        },
        {
          "duration": 0.16279069767442067,
          "durationTicks": 14,
          "midi": 68,
          "name": "G#4",
          "ticks": 2044,
          "time": 23.767441860465116,
          "velocity": 0.1968503937007874
        },
        {
          "duration": 0.05813953488371837,
          "durationTicks": 5,
          "midi": 69,
          "name": "A4",
          "ticks": 2058,
          "time": 23.930232558139537,
          "velocity": 0.18110236220472442
        },
        {
          "duration": 0.23255813953488413,
          "durationTicks": 20,
          "midi": 68,
          "name": "G#4",
          "ticks": 2063,
          "time": 23.988372093023255,
          "velocity": 0.1889763779527559
        },
        {
          "duration": 0.03488372093023173,
          "durationTicks": 3,
          "midi": 57,
          "name": "A3",
          "ticks": 2077,
          "time": 24.151162790697676,
          "velocity": 0.12598425196850394
        },
        {
          "duration": 0.15116279069767558,
          "durationTicks": 13,
          "midi": 57,
          "name": "A3",
          "ticks": 2083,
          "time": 24.22093023255814,
          "velocity": 0.13385826771653545
        },
        {
          "duration": 0.7093023255813975,
          "durationTicks": 61,
          "midi": 66,
          "name": "F#4",
          "ticks": 2086,
          "time": 24.25581395348837,
          "velocity": 0.16535433070866143
        },
        {
          "duration": 0.7209302325581426,
          "durationTicks": 62,
          "midi": 78,
          "name": "F#5",
          "ticks": 2086,
          "time": 24.25581395348837,
          "velocity": 0.1732283464566929
        },
        {
          "duration": 0.13953488372093048,
          "durationTicks": 12,
          "midi": 52,
          "name": "E3",
          "ticks": 2124,
          "time": 24.697674418604652,
          "velocity": 0.08661417322834646
        },
        {
          "duration": 0.09302325581395365,
          "durationTicks": 8,
          "midi": 57,
          "name": "A3",
          "ticks": 2142,
          "time": 24.906976744186046,
          "velocity": 0.11023622047244094
        },
        {
          "duration": 0.046511627906973274,
          "durationTicks": 4,
          "midi": 45,
          "name": "A2",
          "ticks": 2148,
          "time": 24.976744186046513,
          "velocity": 0.08661417322834646
        },
        {
          "duration": 0.25581395348837077,
          "durationTicks": 22,
          "midi": 80,
          "name": "G#5",
          "ticks": 2151,
          "time": 25.011627906976745,
          "velocity": 0.2204724409448819
        },
        {
          "duration": 0.24418604651162923,
          "durationTicks": 21,
          "midi": 68,
          "name": "G#4",
          "ticks": 2152,
          "time": 25.023255813953487,
          "velocity": 0.1732283464566929
        },
        {
          "duration": 0.4186046511627879,
          "durationTicks": 36,
          "midi": 61,
          "name": "C#4",
          "ticks": 2179,
          "time": 25.337209302325583,
          "velocity": 0.14960629921259844
        },
        {
          "duration": 0.27906976744186096,
          "durationTicks": 24,
          "midi": 52,
          "name": "E3",
          "ticks": 2181,
          "time": 25.36046511627907,
          "velocity": 0.09448818897637795
        },
        {
          "duration": 0.27906976744186096,
          "durationTicks": 24,
          "midi": 57,
          "name": "A3",
          "ticks": 2181,
          "time": 25.36046511627907,
          "velocity": 0.10236220472440945
        },
        {
          "duration": 0.09302325581395365,
          "durationTicks": 8,
          "midi": 57,
          "name": "A3",
          "ticks": 2206,
          "time": 25.651162790697676,
          "velocity": 0.08661417322834646
        },
        {
          "duration": 0.23255813953488413,
          "durationTicks": 20,
          "midi": 57,
          "name": "A3",
          "ticks": 2219,
          "time": 25.802325581395348,
          "velocity": 0.11811023622047244
        },
        {
          "duration": 0.3837209302325597,
          "durationTicks": 33,
          "midi": 63,
          "name": "D#4",
          "ticks": 2219,
          "time": 25.802325581395348,
          "velocity": 0.2047244094488189
        },
        {
          "duration": 0.43023255813953654,
          "durationTicks": 37,
          "midi": 75,
          "name": "D#5",
          "ticks": 2219,
          "time": 25.802325581395348,
          "velocity": 0.2204724409448819
        },
        {
          "duration": 0.03488372093023173,
          "durationTicks": 3,
          "midi": 44,
          "name": "G#2",
          "ticks": 2244,
          "time": 26.093023255813954,
          "velocity": 0.10236220472440945
        },
        {
          "duration": 0.09302325581395365,
          "durationTicks": 8,
          "midi": 52,
          "name": "E3",
          "ticks": 2245,
          "time": 26.1046511627907,
          "velocity": 0.09448818897637795
        },
        {
          "duration": 0.09302325581395365,
          "durationTicks": 8,
          "midi": 45,
          "name": "A2",
          "ticks": 2247,
          "time": 26.127906976744185,
          "velocity": 0.08661417322834646
        },
        {
          "duration": 0.23255813953488413,
          "durationTicks": 20,
          "midi": 64,
          "name": "E4",
          "ticks": 2255,
          "time": 26.22093023255814,
          "velocity": 0.2125984251968504
        },
        {
          "duration": 0.25581395348837077,
          "durationTicks": 22,
          "midi": 52,
          "name": "E3",
          "ticks": 2256,
          "time": 26.232558139534884,
          "velocity": 0.11023622047244094
        },
        {
          "duration": 0.26744186046511587,
          "durationTicks": 23,
          "midi": 76,
          "name": "E5",
          "ticks": 2256,
          "time": 26.232558139534884,
          "velocity": 0.2204724409448819
        },
        {
          "duration": 0.22093023255813904,
          "durationTicks": 19,
          "midi": 83,
          "name": "B5",
          "ticks": 2256,
          "time": 26.232558139534884,
          "velocity": 0.09448818897637795
        },
        {
          "duration": 0.26744186046511587,
          "durationTicks": 23,
          "midi": 57,
          "name": "A3",
          "ticks": 2279,
          "time": 26.5,
          "velocity": 0.1889763779527559
        },
        {
          "duration": 0.10465116279069875,
          "durationTicks": 9,
          "midi": 66,
          "name": "F#4",
          "ticks": 2279,
          "time": 26.5,
          "velocity": 0.1732283464566929
        },
        {
          "duration": 0.10465116279069875,
          "durationTicks": 9,
          "midi": 78,
          "name": "F#5",
          "ticks": 2279,
          "time": 26.5,
          "velocity": 0.2204724409448819
        },
        {
          "duration": 0.1976744186046524,
          "durationTicks": 17,
          "midi": 52,
          "name": "E3",
          "ticks": 2286,
          "time": 26.58139534883721,
          "velocity": 0.08661417322834646
        },
        {
          "duration": 0.03488372093023173,
          "durationTicks": 3,
          "midi": 67,
          "name": "G4",
          "ticks": 2288,
          "time": 26.6046511627907,
          "velocity": 0.18110236220472442
        },
        {
          "duration": 0.03488372093023173,
          "durationTicks": 3,
          "midi": 86,
          "name": "D6",
          "ticks": 2288,
          "time": 26.6046511627907,
          "velocity": 0.11811023622047244
        },
        {
          "duration": 0.3023255813953476,
          "durationTicks": 26,
          "midi": 68,
          "name": "G#4",
          "ticks": 2291,
          "time": 26.63953488372093,
          "velocity": 0.2204724409448819
        },
        {
          "duration": 0.24418604651162568,
          "durationTicks": 21,
          "midi": 57,
          "name": "A3",
          "ticks": 2316,
          "time": 26.930232558139537,
          "velocity": 0.1889763779527559
        },
        {
          "duration": 0.034883720930235285,
          "durationTicks": 3,
          "midi": 69,
          "name": "A4",
          "ticks": 2317,
          "time": 26.941860465116278,
          "velocity": 0.2283464566929134
        },
        {
          "duration": 0.20930232558139394,
          "durationTicks": 18,
          "midi": 52,
          "name": "E3",
          "ticks": 2319,
          "time": 26.96511627906977,
          "velocity": 0.11811023622047244
        },
        {
          "duration": 0.2093023255813975,
          "durationTicks": 18,
          "midi": 68,
          "name": "G#4",
          "ticks": 2325,
          "time": 27.03488372093023,
          "velocity": 0.2047244094488189
        },
        {
          "duration": 0.3837209302325597,
          "durationTicks": 33,
          "midi": 45,
          "name": "A2",
          "ticks": 2337,
          "time": 27.174418604651162,
          "velocity": 0.1968503937007874
        },
        {
          "duration": 0.15116279069767558,
          "durationTicks": 13,
          "midi": 57,
          "name": "A3",
          "ticks": 2338,
          "time": 27.186046511627907,
          "velocity": 0.2125984251968504
        },
        {
          "duration": 0.04651162790697683,
          "durationTicks": 4,
          "midi": 52,
          "name": "E3",
          "ticks": 2342,
          "time": 27.232558139534884,
          "velocity": 0.09448818897637795
        },
        {
          "duration": 0.03488372093023173,
          "durationTicks": 3,
          "midi": 52,
          "name": "E3",
          "ticks": 2347,
          "time": 27.290697674418606,
          "velocity": 0.07086614173228346
        },
        {
          "duration": 0.04651162790697683,
          "durationTicks": 4,
          "midi": 80,
          "name": "G#5",
          "ticks": 2348,
          "time": 27.302325581395348,
          "velocity": 0.10236220472440945
        },
        {
          "duration": 0.23255813953488413,
          "durationTicks": 20,
          "midi": 68,
          "name": "G#4",
          "ticks": 2349,
          "time": 27.313953488372093,
          "velocity": 0.18110236220472442
        },
        {
          "duration": 0.04651162790697683,
          "durationTicks": 4,
          "midi": 52,
          "name": "E3",
          "ticks": 2351,
          "time": 27.337209302325583,
          "velocity": 0.11023622047244094
        },
        {
          "duration": 0.13953488372093048,
          "durationTicks": 12,
          "midi": 52,
          "name": "E3",
          "ticks": 2357,
          "time": 27.406976744186046,
          "velocity": 0.07086614173228346
        },
        {
          "duration": 0.03488372093023173,
          "durationTicks": 3,
          "midi": 53,
          "name": "F3",
          "ticks": 2369,
          "time": 27.546511627906977,
          "velocity": 0.07874015748031496
        },
        {
          "duration": 0.5232558139534902,
          "durationTicks": 45,
          "midi": 64,
          "name": "E4",
          "ticks": 2376,
          "time": 27.627906976744185,
          "velocity": 0.14173228346456693
        },
        {
          "duration": 0.5232558139534902,
          "durationTicks": 45,
          "midi": 76,
          "name": "E5",
          "ticks": 2376,
          "time": 27.627906976744185,
          "velocity": 0.1889763779527559
        },
        {
          "duration": 0.5116279069767451,
          "durationTicks": 44,
          "midi": 83,
          "name": "B5",
          "ticks": 2376,
          "time": 27.627906976744185,
          "velocity": 0.09448818897637795
        },
        {
          "duration": 0.37209302325581106,
          "durationTicks": 32,
          "midi": 59,
          "name": "B3",
          "ticks": 2378,
          "time": 27.651162790697676,
          "velocity": 0.12598425196850394
        },
        {
          "duration": 0.1744186046511622,
          "durationTicks": 15,
          "midi": 54,
          "name": "F#3",
          "ticks": 2380,
          "time": 27.674418604651162,
          "velocity": 0.11023622047244094
        },
        {
          "duration": 0.29069767441860606,
          "durationTicks": 25,
          "midi": 54,
          "name": "F#3",
          "ticks": 2404,
          "time": 27.953488372093023,
          "velocity": 0.23622047244094488
        },
        {
          "duration": 0.1860465116279073,
          "durationTicks": 16,
          "midi": 59,
          "name": "B3",
          "ticks": 2421,
          "time": 28.151162790697676,
          "velocity": 0.14173228346456693
        },
        {
          "duration": 0.09302325581395365,
          "durationTicks": 8,
          "midi": 78,
          "name": "F#5",
          "ticks": 2424,
          "time": 28.186046511627907,
          "velocity": 0.18110236220472442
        },
        {
          "duration": 0.03488372093023173,
          "durationTicks": 3,
          "midi": 79,
          "name": "G5",
          "ticks": 2431,
          "time": 28.267441860465116,
          "velocity": 0.11023622047244094
        },
        {
          "duration": 0.03488372093023173,
          "durationTicks": 3,
          "midi": 67,
          "name": "G4",
          "ticks": 2432,
          "time": 28.27906976744186,
          "velocity": 0.1889763779527559
        },
        {
          "duration": 0.15116279069767558,
          "durationTicks": 13,
          "midi": 80,
          "name": "G#5",
          "ticks": 2434,
          "time": 28.302325581395348,
          "velocity": 0.14173228346456693
        },
        {
          "duration": 0.1744186046511622,
          "durationTicks": 15,
          "midi": 54,
          "name": "F#3",
          "ticks": 2435,
          "time": 28.313953488372093,
          "velocity": 0.2440944881889764
        },
        {
          "duration": 0.15116279069767558,
          "durationTicks": 13,
          "midi": 68,
          "name": "G#4",
          "ticks": 2435,
          "time": 28.313953488372093,
          "velocity": 0.18110236220472442
        },
        {
          "duration": 0.10465116279069875,
          "durationTicks": 9,
          "midi": 81,
          "name": "A5",
          "ticks": 2447,
          "time": 28.453488372093023,
          "velocity": 0.13385826771653545
        },
        {
          "duration": 0.16279069767441712,
          "durationTicks": 14,
          "midi": 59,
          "name": "B3",
          "ticks": 2448,
          "time": 28.46511627906977,
          "velocity": 0.10236220472440945
        },
        {
          "duration": 0.06976744186046346,
          "durationTicks": 6,
          "midi": 69,
          "name": "A4",
          "ticks": 2448,
          "time": 28.46511627906977,
          "velocity": 0.16535433070866143
        },
        {
          "duration": 0.1976744186046524,
          "durationTicks": 17,
          "midi": 68,
          "name": "G#4",
          "ticks": 2454,
          "time": 28.53488372093023,
          "velocity": 0.1968503937007874
        },
        {
          "duration": 0.06976744186046346,
          "durationTicks": 6,
          "midi": 55,
          "name": "G3",
          "ticks": 2471,
          "time": 28.732558139534884,
          "velocity": 0.18110236220472442
        },
        {
          "duration": 0.779069767441861,
          "durationTicks": 67,
          "midi": 66,
          "name": "F#4",
          "ticks": 2473,
          "time": 28.75581395348837,
          "velocity": 0.16535433070866143
        },
        {
          "duration": 0.7674418604651159,
          "durationTicks": 66,
          "midi": 78,
          "name": "F#5",
          "ticks": 2473,
          "time": 28.75581395348837,
          "velocity": 0.1732283464566929
        },
        {
          "duration": 0.23255813953488413,
          "durationTicks": 20,
          "midi": 56,
          "name": "G#3",
          "ticks": 2512,
          "time": 29.209302325581394,
          "velocity": 0.16535433070866143
        },
        {
          "duration": 0.03488372093023173,
          "durationTicks": 3,
          "midi": 55,
          "name": "G3",
          "ticks": 2535,
          "time": 29.476744186046513,
          "velocity": 0.11023622047244094
        },
        {
          "duration": 0.24418604651162923,
          "durationTicks": 21,
          "midi": 68,
          "name": "G#4",
          "ticks": 2544,
          "time": 29.58139534883721,
          "velocity": 0.1968503937007874
        },
        {
          "duration": 0.27906976744186096,
          "durationTicks": 24,
          "midi": 80,
          "name": "G#5",
          "ticks": 2544,
          "time": 29.58139534883721,
          "velocity": 0.23622047244094488
        },
        {
          "duration": 0.05813953488372192,
          "durationTicks": 5,
          "midi": 68,
          "name": "G#4",
          "ticks": 2567,
          "time": 29.848837209302324,
          "velocity": 0.08661417322834646
        },
        {
          "duration": 0.39534883720930125,
          "durationTicks": 34,
          "midi": 61,
          "name": "C#4",
          "ticks": 2572,
          "time": 29.906976744186046,
          "velocity": 0.1889763779527559
        },
        {
          "duration": 0.25581395348837077,
          "durationTicks": 22,
          "midi": 56,
          "name": "G#3",
          "ticks": 2578,
          "time": 29.976744186046513,
          "velocity": 0.16535433070866143
        },
        {
          "duration": 0.1860465116279073,
          "durationTicks": 16,
          "midi": 73,
          "name": "C#5",
          "ticks": 2597,
          "time": 30.197674418604652,
          "velocity": 0.1968503937007874
        },
        {
          "duration": 0.3720930232558146,
          "durationTicks": 32,
          "midi": 63,
          "name": "D#4",
          "ticks": 2612,
          "time": 30.372093023255815,
          "velocity": 0.1889763779527559
        },
        {
          "duration": 0.10465116279069875,
          "durationTicks": 9,
          "midi": 56,
          "name": "G#3",
          "ticks": 2638,
          "time": 30.674418604651162,
          "velocity": 0.08661417322834646
        },
        {
          "duration": 0.27906976744186096,
          "durationTicks": 24,
          "midi": 83,
          "name": "B5",
          "ticks": 2647,
          "time": 30.77906976744186,
          "velocity": 0.2125984251968504
        },
        {
          "duration": 0.25581395348837077,
          "durationTicks": 22,
          "midi": 71,
          "name": "B4",
          "ticks": 2648,
          "time": 30.790697674418606,
          "velocity": 0.07874015748031496
        },
        {
          "duration": 0.13953488372093048,
          "durationTicks": 12,
          "midi": 73,
          "name": "C#5",
          "ticks": 2649,
          "time": 30.802325581395348,
          "velocity": 0.11811023622047244
        },
        {
          "duration": 0.13953488372093048,
          "durationTicks": 12,
          "midi": 56,
          "name": "G#3",
          "ticks": 2650,
          "time": 30.813953488372093,
          "velocity": 0.09448818897637795
        },
        {
          "duration": 0.26744186046511587,
          "durationTicks": 23,
          "midi": 61,
          "name": "C#4",
          "ticks": 2650,
          "time": 30.813953488372093,
          "velocity": 0.11023622047244094
        },
        {
          "duration": 0.29069767441860606,
          "durationTicks": 25,
          "midi": 80,
          "name": "G#5",
          "ticks": 2672,
          "time": 31.069767441860463,
          "velocity": 0.2047244094488189
        },
        {
          "duration": 0.29069767441860606,
          "durationTicks": 25,
          "midi": 68,
          "name": "G#4",
          "ticks": 2673,
          "time": 31.08139534883721,
          "velocity": 0.2047244094488189
        },
        {
          "duration": 0.10465116279069875,
          "durationTicks": 9,
          "midi": 81,
          "name": "A5",
          "ticks": 2697,
          "time": 31.36046511627907,
          "velocity": 0.18110236220472442
        },
        {
          "duration": 0.09302325581395365,
          "durationTicks": 8,
          "midi": 69,
          "name": "A4",
          "ticks": 2698,
          "time": 31.372093023255815,
          "velocity": 0.18110236220472442
        },
        {
          "duration": 0.1744186046511622,
          "durationTicks": 15,
          "midi": 68,
          "name": "G#4",
          "ticks": 2706,
          "time": 31.46511627906977,
          "velocity": 0.2047244094488189
        },
        {
          "duration": 0.22093023255813904,
          "durationTicks": 19,
          "midi": 56,
          "name": "G#3",
          "ticks": 2713,
          "time": 31.546511627906977,
          "velocity": 0.14960629921259844
        },
        {
          "duration": 0.13953488372093048,
          "durationTicks": 12,
          "midi": 84,
          "name": "C6",
          "ticks": 2713,
          "time": 31.546511627906977,
          "velocity": 0.07086614173228346
        },
        {
          "duration": 0.05813953488372192,
          "durationTicks": 5,
          "midi": 73,
          "name": "C#5",
          "ticks": 2716,
          "time": 31.58139534883721,
          "velocity": 0.07086614173228346
        },
        {
          "duration": 0.09302325581395365,
          "durationTicks": 8,
          "midi": 68,
          "name": "G#4",
          "ticks": 2724,
          "time": 31.674418604651162,
          "velocity": 0.15748031496062992
        },
        {
          "duration": 0.03488372093023173,
          "durationTicks": 3,
          "midi": 55,
          "name": "G3",
          "ticks": 2734,
          "time": 31.790697674418606,
          "velocity": 0.15748031496062992
        },
        {
          "duration": 0.2790697674418645,
          "durationTicks": 24,
          "midi": 68,
          "name": "G#4",
          "ticks": 2735,
          "time": 31.802325581395348,
          "velocity": 0.18110236220472442
        },
        {
          "duration": 0.24418604651162568,
          "durationTicks": 21,
          "midi": 56,
          "name": "G#3",
          "ticks": 2737,
          "time": 31.825581395348838,
          "velocity": 0.11023622047244094
        },
        {
          "duration": 0.06976744186046346,
          "durationTicks": 6,
          "midi": 55,
          "name": "G3",
          "ticks": 2758,
          "time": 32.06976744186046,
          "velocity": 0.16535433070866143
        },
        {
          "duration": 0.5465116279069733,
          "durationTicks": 47,
          "midi": 76,
          "name": "E5",
          "ticks": 2768,
          "time": 32.18604651162791,
          "velocity": 0.1889763779527559
        },
        {
          "duration": 0.5348837209302317,
          "durationTicks": 46,
          "midi": 64,
          "name": "E4",
          "ticks": 2769,
          "time": 32.19767441860465,
          "velocity": 0.14173228346456693
        },
        {
          "duration": 0.19767441860465595,
          "durationTicks": 17,
          "midi": 54,
          "name": "F#3",
          "ticks": 2772,
          "time": 32.23255813953488,
          "velocity": 0.23622047244094488
        },
        {
          "duration": 0.22093023255813904,
          "durationTicks": 19,
          "midi": 59,
          "name": "B3",
          "ticks": 2786,
          "time": 32.395348837209305,
          "velocity": 0.10236220472440945
        },
        {
          "duration": 0.23255813953488058,
          "durationTicks": 20,
          "midi": 54,
          "name": "F#3",
          "ticks": 2797,
          "time": 32.52325581395349,
          "velocity": 0.14960629921259844
        },
        {
          "duration": 0.1046511627906952,
          "durationTicks": 9,
          "midi": 66,
          "name": "F#4",
          "ticks": 2818,
          "time": 32.76744186046512,
          "velocity": 0.1889763779527559
        },
        {
          "duration": 0.03488372093023173,
          "durationTicks": 3,
          "midi": 79,
          "name": "G5",
          "ticks": 2827,
          "time": 32.872093023255815,
          "velocity": 0.07874015748031496
        },
        {
          "duration": 0.15116279069766847,
          "durationTicks": 13,
          "midi": 68,
          "name": "G#4",
          "ticks": 2829,
          "time": 32.895348837209305,
          "velocity": 0.16535433070866143
        },
        {
          "duration": 0.09302325581395365,
          "durationTicks": 8,
          "midi": 81,
          "name": "A5",
          "ticks": 2841,
          "time": 33.03488372093023,
          "velocity": 0.07874015748031496
        },
        {
          "duration": 0.05813953488372192,
          "durationTicks": 5,
          "midi": 69,
          "name": "A4",
          "ticks": 2842,
          "time": 33.04651162790697,
          "velocity": 0.14173228346456693
        },
        {
          "duration": 0.11627906976743674,
          "durationTicks": 10,
          "midi": 54,
          "name": "F#3",
          "ticks": 2845,
          "time": 33.08139534883721,
          "velocity": 0.14173228346456693
        },
        {
          "duration": 0.24418604651162923,
          "durationTicks": 21,
          "midi": 68,
          "name": "G#4",
          "ticks": 2847,
          "time": 33.104651162790695,
          "velocity": 0.14960629921259844
        },
        {
          "duration": 0.046511627906973274,
          "durationTicks": 4,
          "midi": 59,
          "name": "B3",
          "ticks": 2856,
          "time": 33.2093023255814,
          "velocity": 0.10236220472440945
        },
        {
          "duration": 0.03488372093023173,
          "durationTicks": 3,
          "midi": 57,
          "name": "A3",
          "ticks": 2864,
          "time": 33.30232558139535,
          "velocity": 0.07874015748031496
        },
        {
          "duration": 0.720930232558139,
          "durationTicks": 62,
          "midi": 66,
          "name": "F#4",
          "ticks": 2870,
          "time": 33.372093023255815,
          "velocity": 0.16535433070866143
        },
        {
          "duration": 0.720930232558139,
          "durationTicks": 62,
          "midi": 78,
          "name": "F#5",
          "ticks": 2870,
          "time": 33.372093023255815,
          "velocity": 0.1732283464566929
        },
        {
          "duration": 0.2093023255813975,
          "durationTicks": 18,
          "midi": 52,
          "name": "E3",
          "ticks": 2874,
          "time": 33.41860465116279,
          "velocity": 0.08661417322834646
        },
        {
          "duration": 0.08139534883721211,
          "durationTicks": 7,
          "midi": 57,
          "name": "A3",
          "ticks": 2906,
          "time": 33.7906976744186,
          "velocity": 0.13385826771653545
        },
        {
          "duration": 0.17441860465115866,
          "durationTicks": 15,
          "midi": 52,
          "name": "E3",
          "ticks": 2929,
          "time": 34.05813953488372,
          "velocity": 0.11811023622047244
        },
        {
          "duration": 0.06976744186046346,
          "durationTicks": 6,
          "midi": 57,
          "name": "A3",
          "ticks": 2934,
          "time": 34.116279069767444,
          "velocity": 0.07874015748031496
        },
        {
          "duration": 0.22093023255813904,
          "durationTicks": 19,
          "midi": 68,
          "name": "G#4",
          "ticks": 2938,
          "time": 34.16279069767442,
          "velocity": 0.1889763779527559
        },
        {
          "duration": 0.22093023255813904,
          "durationTicks": 19,
          "midi": 80,
          "name": "G#5",
          "ticks": 2938,
          "time": 34.16279069767442,
          "velocity": 0.2125984251968504
        },
        {
          "duration": 0.4534883720930196,
          "durationTicks": 39,
          "midi": 61,
          "name": "C#4",
          "ticks": 2963,
          "time": 34.45348837209303,
          "velocity": 0.15748031496062992
        },
        {
          "duration": 0.4418604651162781,
          "durationTicks": 38,
          "midi": 73,
          "name": "C#5",
          "ticks": 2963,
          "time": 34.45348837209303,
          "velocity": 0.15748031496062992
        },
        {
          "duration": 0.27906976744186096,
          "durationTicks": 24,
          "midi": 52,
          "name": "E3",
          "ticks": 2969,
          "time": 34.52325581395349,
          "velocity": 0.09448818897637795
        },
        {
          "duration": 0.04651162790698038,
          "durationTicks": 4,
          "midi": 57,
          "name": "A3",
          "ticks": 3005,
          "time": 34.94186046511628,
          "velocity": 0.18110236220472442
        },
        {
          "duration": 0.418604651162795,
          "durationTicks": 36,
          "midi": 75,
          "name": "D#5",
          "ticks": 3005,
          "time": 34.94186046511628,
          "velocity": 0.2204724409448819
        },
        {
          "duration": 0.3488372093023244,
          "durationTicks": 30,
          "midi": 63,
          "name": "D#4",
          "ticks": 3006,
          "time": 34.95348837209303,
          "velocity": 0.1889763779527559
        },
        {
          "duration": 0.17441860465116577,
          "durationTicks": 15,
          "midi": 57,
          "name": "A3",
          "ticks": 3010,
          "time": 35,
          "velocity": 0.14960629921259844
        },
        {
          "duration": 0.15116279069767558,
          "durationTicks": 13,
          "midi": 57,
          "name": "A3",
          "ticks": 3027,
          "time": 35.19767441860465,
          "velocity": 0.12598425196850394
        },
        {
          "duration": 0.22093023255813904,
          "durationTicks": 19,
          "midi": 76,
          "name": "E5",
          "ticks": 3042,
          "time": 35.372093023255815,
          "velocity": 0.1968503937007874
        },
        {
          "duration": 0.2093023255813975,
          "durationTicks": 18,
          "midi": 64,
          "name": "E4",
          "ticks": 3043,
          "time": 35.383720930232556,
          "velocity": 0.14960629921259844
        },
        {
          "duration": 0.13953488372093403,
          "durationTicks": 12,
          "midi": 83,
          "name": "B5",
          "ticks": 3043,
          "time": 35.383720930232556,
          "velocity": 0.07086614173228346
        },
        {
          "duration": 0.03488372093023173,
          "durationTicks": 3,
          "midi": 66,
          "name": "F#4",
          "ticks": 3062,
          "time": 35.604651162790695,
          "velocity": 0.08661417322834646
        },
        {
          "duration": 0.081395348837205,
          "durationTicks": 7,
          "midi": 52,
          "name": "E3",
          "ticks": 3066,
          "time": 35.651162790697676,
          "velocity": 0.08661417322834646
        },
        {
          "duration": 0.1046511627907023,
          "durationTicks": 9,
          "midi": 66,
          "name": "F#4",
          "ticks": 3067,
          "time": 35.66279069767442,
          "velocity": 0.18110236220472442
        },
        {
          "duration": 0.1046511627907023,
          "durationTicks": 9,
          "midi": 78,
          "name": "F#5",
          "ticks": 3067,
          "time": 35.66279069767442,
          "velocity": 0.1889763779527559
        },
        {
          "duration": 0.046511627906973274,
          "durationTicks": 4,
          "midi": 67,
          "name": "G4",
          "ticks": 3076,
          "time": 35.76744186046512,
          "velocity": 0.1889763779527559
        },
        {
          "duration": 0.03488372093023173,
          "durationTicks": 3,
          "midi": 86,
          "name": "D6",
          "ticks": 3076,
          "time": 35.76744186046512,
          "velocity": 0.07874015748031496
        },
        {
          "duration": 0.3604651162790731,
          "durationTicks": 31,
          "midi": 68,
          "name": "G#4",
          "ticks": 3080,
          "time": 35.81395348837209,
          "velocity": 0.2047244094488189
        },
        {
          "duration": 0.2674418604651194,
          "durationTicks": 23,
          "midi": 87,
          "name": "D#6",
          "ticks": 3080,
          "time": 35.81395348837209,
          "velocity": 0.07874015748031496
        },
        {
          "duration": 0.25581395348837077,
          "durationTicks": 22,
          "midi": 52,
          "name": "E3",
          "ticks": 3106,
          "time": 36.116279069767444,
          "velocity": 0.16535433070866143
        },
        {
          "duration": 0.03488372093023173,
          "durationTicks": 3,
          "midi": 69,
          "name": "A4",
          "ticks": 3111,
          "time": 36.174418604651166,
          "velocity": 0.09448818897637795
        },
        {
          "duration": 0.30232558139534405,
          "durationTicks": 26,
          "midi": 68,
          "name": "G#4",
          "ticks": 3114,
          "time": 36.2093023255814,
          "velocity": 0.1732283464566929
        },
        {
          "duration": 0.12790697674418539,
          "durationTicks": 11,
          "midi": 45,
          "name": "A2",
          "ticks": 3127,
          "time": 36.36046511627907,
          "velocity": 0.14173228346456693
        },
        {
          "duration": 0.27906976744186096,
          "durationTicks": 24,
          "midi": 52,
          "name": "E3",
          "ticks": 3129,
          "time": 36.383720930232556,
          "velocity": 0.12598425196850394
        },
        {
          "duration": 0.2093023255813975,
          "durationTicks": 18,
          "midi": 45,
          "name": "A2",
          "ticks": 3139,
          "time": 36.5,
          "velocity": 0.11023622047244094
        },
        {
          "duration": 0.11627906976744384,
          "durationTicks": 10,
          "midi": 68,
          "name": "G#4",
          "ticks": 3142,
          "time": 36.53488372093023,
          "velocity": 0.15748031496062992
        },
        {
          "duration": 0.2906976744186096,
          "durationTicks": 25,
          "midi": 54,
          "name": "F#3",
          "ticks": 3159,
          "time": 36.73255813953488,
          "velocity": 0.25196850393700787
        },
        {
          "duration": 0.27906976744186096,
          "durationTicks": 24,
          "midi": 59,
          "name": "B3",
          "ticks": 3161,
          "time": 36.75581395348837,
          "velocity": 0.11811023622047244
        },
        {
          "duration": 0.5,
          "durationTicks": 43,
          "midi": 64,
          "name": "E4",
          "ticks": 3161,
          "time": 36.75581395348837,
          "velocity": 0.16535433070866143
        },
        {
          "duration": 0.5,
          "durationTicks": 43,
          "midi": 76,
          "name": "E5",
          "ticks": 3161,
          "time": 36.75581395348837,
          "velocity": 0.2047244094488189
        },
        {
          "duration": 0.30232558139534405,
          "durationTicks": 26,
          "midi": 83,
          "name": "B5",
          "ticks": 3162,
          "time": 36.76744186046512,
          "velocity": 0.09448818897637795
        },
        {
          "duration": 0.04651162790698038,
          "durationTicks": 4,
          "midi": 54,
          "name": "F#3",
          "ticks": 3185,
          "time": 37.03488372093023,
          "velocity": 0.11023622047244094
        },
        {
          "duration": 0.11627906976744384,
          "durationTicks": 10,
          "midi": 59,
          "name": "B3",
          "ticks": 3187,
          "time": 37.05813953488372,
          "velocity": 0.11811023622047244
        },
        {
          "duration": 0.03488372093023173,
          "durationTicks": 3,
          "midi": 53,
          "name": "F3",
          "ticks": 3198,
          "time": 37.18604651162791,
          "velocity": 0.10236220472440945
        },
        {
          "duration": 0.2093023255813975,
          "durationTicks": 18,
          "midi": 54,
          "name": "F#3",
          "ticks": 3201,
          "time": 37.22093023255814,
          "velocity": 0.2204724409448819
        },
        {
          "duration": 0.4767441860465169,
          "durationTicks": 41,
          "midi": 59,
          "name": "B3",
          "ticks": 3210,
          "time": 37.325581395348834,
          "velocity": 0.12598425196850394
        },
        {
          "duration": 0.04651162790698038,
          "durationTicks": 4,
          "midi": 67,
          "name": "G4",
          "ticks": 3218,
          "time": 37.41860465116279,
          "velocity": 0.2204724409448819
        },
        {
          "duration": 0.16279069767441712,
          "durationTicks": 14,
          "midi": 68,
          "name": "G#4",
          "ticks": 3222,
          "time": 37.46511627906977,
          "velocity": 0.1889763779527559
        },
        {
          "duration": 0.06976744186046346,
          "durationTicks": 6,
          "midi": 87,
          "name": "D#6",
          "ticks": 3222,
          "time": 37.46511627906977,
          "velocity": 0.09448818897637795
        },
        {
          "duration": 0.13953488372093403,
          "durationTicks": 12,
          "midi": 54,
          "name": "F#3",
          "ticks": 3223,
          "time": 37.47674418604651,
          "velocity": 0.2283464566929134
        },
        {
          "duration": 0.27906976744186096,
          "durationTicks": 24,
          "midi": 68,
          "name": "G#4",
          "ticks": 3237,
          "time": 37.63953488372093,
          "velocity": 0.2047244094488189
        },
        {
          "duration": 0.8139534883720927,
          "durationTicks": 70,
          "midi": 66,
          "name": "F#4",
          "ticks": 3261,
          "time": 37.91860465116279,
          "velocity": 0.18110236220472442
        },
        {
          "duration": 0.8139534883720927,
          "durationTicks": 70,
          "midi": 78,
          "name": "F#5",
          "ticks": 3261,
          "time": 37.91860465116279,
          "velocity": 0.1889763779527559
        },
        {
          "duration": 0.2093023255813904,
          "durationTicks": 18,
          "midi": 56,
          "name": "G#3",
          "ticks": 3264,
          "time": 37.95348837209303,
          "velocity": 0.10236220472440945
        },
        {
          "duration": 0.2674418604651194,
          "durationTicks": 23,
          "midi": 61,
          "name": "C#4",
          "ticks": 3268,
          "time": 38,
          "velocity": 0.07874015748031496
        },
        {
          "duration": 0.12790697674418539,
          "durationTicks": 11,
          "midi": 61,
          "name": "C#4",
          "ticks": 3322,
          "time": 38.627906976744185,
          "velocity": 0.12598425196850394
        },
        {
          "duration": 0.081395348837205,
          "durationTicks": 7,
          "midi": 76,
          "name": "E5",
          "ticks": 3324,
          "time": 38.651162790697676,
          "velocity": 0.07086614173228346
        },
        {
          "duration": 0.09302325581395365,
          "durationTicks": 8,
          "midi": 76,
          "name": "E5",
          "ticks": 3333,
          "time": 38.75581395348837,
          "velocity": 0.11023622047244094
        },
        {
          "duration": 0.23255813953488058,
          "durationTicks": 20,
          "midi": 80,
          "name": "G#5",
          "ticks": 3335,
          "time": 38.77906976744186,
          "velocity": 0.2204724409448819
        },
        {
          "duration": 0.2674418604651194,
          "durationTicks": 23,
          "midi": 64,
          "name": "E4",
          "ticks": 3336,
          "time": 38.7906976744186,
          "velocity": 0.11023622047244094
        },
        {
          "duration": 0.2093023255813975,
          "durationTicks": 18,
          "midi": 68,
          "name": "G#4",
          "ticks": 3336,
          "time": 38.7906976744186,
          "velocity": 0.1968503937007874
        },
        {
          "duration": 0.23255813953488058,
          "durationTicks": 20,
          "midi": 73,
          "name": "C#5",
          "ticks": 3337,
          "time": 38.80232558139535,
          "velocity": 0.09448818897637795
        },
        {
          "duration": 0.2093023255813904,
          "durationTicks": 18,
          "midi": 61,
          "name": "C#4",
          "ticks": 3340,
          "time": 38.83720930232558,
          "velocity": 0.08661417322834646
        },
        {
          "duration": 0.06976744186046346,
          "durationTicks": 6,
          "midi": 68,
          "name": "G#4",
          "ticks": 3356,
          "time": 39.02325581395349,
          "velocity": 0.07874015748031496
        },
        {
          "duration": 0.2325581395348877,
          "durationTicks": 20,
          "midi": 56,
          "name": "G#3",
          "ticks": 3360,
          "time": 39.06976744186046,
          "velocity": 0.08661417322834646
        },
        {
          "duration": 0.081395348837205,
          "durationTicks": 7,
          "midi": 64,
          "name": "E4",
          "ticks": 3361,
          "time": 39.08139534883721,
          "velocity": 0.07086614173228346
        },
        {
          "duration": 0.3720930232558146,
          "durationTicks": 32,
          "midi": 73,
          "name": "C#5",
          "ticks": 3362,
          "time": 39.093023255813954,
          "velocity": 0.14960629921259844
        },
        {
          "duration": 0.2674418604651194,
          "durationTicks": 23,
          "midi": 61,
          "name": "C#4",
          "ticks": 3363,
          "time": 39.104651162790695,
          "velocity": 0.14173228346456693
        },
        {
          "duration": 0.04651162790698038,
          "durationTicks": 4,
          "midi": 55,
          "name": "G3",
          "ticks": 3395,
          "time": 39.47674418604651,
          "velocity": 0.14173228346456693
        },
        {
          "duration": 0.058139534883714816,
          "durationTicks": 5,
          "midi": 61,
          "name": "C#4",
          "ticks": 3396,
          "time": 39.48837209302326,
          "velocity": 0.11811023622047244
        },
        {
          "duration": 0.22093023255813904,
          "durationTicks": 19,
          "midi": 56,
          "name": "G#3",
          "ticks": 3399,
          "time": 39.52325581395349,
          "velocity": 0.10236220472440945
        },
        {
          "duration": 0.5232558139534902,
          "durationTicks": 45,
          "midi": 75,
          "name": "D#5",
          "ticks": 3400,
          "time": 39.53488372093023,
          "velocity": 0.1889763779527559
        },
        {
          "duration": 0.03488372093023173,
          "durationTicks": 3,
          "midi": 76,
          "name": "E5",
          "ticks": 3400,
          "time": 39.53488372093023,
          "velocity": 0.10236220472440945
        },
        {
          "duration": 0.36046511627906597,
          "durationTicks": 31,
          "midi": 63,
          "name": "D#4",
          "ticks": 3402,
          "time": 39.55813953488372,
          "velocity": 0.1968503937007874
        },
        {
          "duration": 0.24418604651162923,
          "durationTicks": 21,
          "midi": 71,
          "name": "B4",
          "ticks": 3435,
          "time": 39.94186046511628,
          "velocity": 0.07086614173228346
        },
        {
          "duration": 0.25581395348837077,
          "durationTicks": 22,
          "midi": 83,
          "name": "B5",
          "ticks": 3435,
          "time": 39.94186046511628,
          "velocity": 0.1889763779527559
        },
        {
          "duration": 0.046511627906973274,
          "durationTicks": 4,
          "midi": 54,
          "name": "F#3",
          "ticks": 3456,
          "time": 40.18604651162791,
          "velocity": 0.14960629921259844
        },
        {
          "duration": 0.36046511627906597,
          "durationTicks": 31,
          "midi": 68,
          "name": "G#4",
          "ticks": 3458,
          "time": 40.2093023255814,
          "velocity": 0.2283464566929134
        },
        {
          "duration": 0.1046511627906952,
          "durationTicks": 9,
          "midi": 61,
          "name": "C#4",
          "ticks": 3482,
          "time": 40.48837209302326,
          "velocity": 0.10236220472440945
        },
        {
          "duration": 0.05813953488372192,
          "durationTicks": 5,
          "midi": 69,
          "name": "A4",
          "ticks": 3489,
          "time": 40.56976744186046,
          "velocity": 0.1732283464566929
        },
        {
          "duration": 0.30232558139534405,
          "durationTicks": 26,
          "midi": 56,
          "name": "G#3",
          "ticks": 3493,
          "time": 40.616279069767444,
          "velocity": 0.18110236220472442
        },
        {
          "duration": 0.19767441860464885,
          "durationTicks": 17,
          "midi": 68,
          "name": "G#4",
          "ticks": 3494,
          "time": 40.627906976744185,
          "velocity": 0.1889763779527559
        },
        {
          "duration": 0.08139534883721211,
          "durationTicks": 7,
          "midi": 61,
          "name": "C#4",
          "ticks": 3495,
          "time": 40.63953488372093,
          "velocity": 0.09448818897637795
        },
        {
          "duration": 0.09302325581395365,
          "durationTicks": 8,
          "midi": 81,
          "name": "A5",
          "ticks": 3510,
          "time": 40.81395348837209,
          "velocity": 0.10236220472440945
        },
        {
          "duration": 0.05813953488372192,
          "durationTicks": 5,
          "midi": 69,
          "name": "A4",
          "ticks": 3511,
          "time": 40.825581395348834,
          "velocity": 0.14173228346456693
        },
        {
          "duration": 0.19767441860465595,
          "durationTicks": 17,
          "midi": 68,
          "name": "G#4",
          "ticks": 3516,
          "time": 40.883720930232556,
          "velocity": 0.1889763779527559
        },
        {
          "duration": 0.06976744186046346,
          "durationTicks": 6,
          "midi": 56,
          "name": "G#3",
          "ticks": 3520,
          "time": 40.93023255813954,
          "velocity": 0.08661417322834646
        },
        {
          "duration": 0.08139534883721211,
          "durationTicks": 7,
          "midi": 73,
          "name": "C#5",
          "ticks": 3532,
          "time": 41.06976744186046,
          "velocity": 0.07086614173228346
        },
        {
          "duration": 0.06976744186047057,
          "durationTicks": 6,
          "midi": 56,
          "name": "G#3",
          "ticks": 3551,
          "time": 41.2906976744186,
          "velocity": 0.15748031496062992
        },
        {
          "duration": 0.5116279069767486,
          "durationTicks": 44,
          "midi": 80,
          "name": "G#5",
          "ticks": 3556,
          "time": 41.348837209302324,
          "velocity": 0.1968503937007874
        },
        {
          "duration": 0.5,
          "durationTicks": 43,
          "midi": 68,
          "name": "G#4",
          "ticks": 3557,
          "time": 41.36046511627907,
          "velocity": 0.2047244094488189
        },
        {
          "duration": 0.16279069767441712,
          "durationTicks": 14,
          "midi": 73,
          "name": "C#5",
          "ticks": 3557,
          "time": 41.36046511627907,
          "velocity": 0.08661417322834646
        },
        {
          "duration": 0.15116279069767558,
          "durationTicks": 13,
          "midi": 56,
          "name": "G#3",
          "ticks": 3558,
          "time": 41.372093023255815,
          "velocity": 0.12598425196850394
        },
        {
          "duration": 0.03488372093023173,
          "durationTicks": 3,
          "midi": 55,
          "name": "G3",
          "ticks": 3576,
          "time": 41.58139534883721,
          "velocity": 0.11023622047244094
        },
        {
          "duration": 0.03488372093023173,
          "durationTicks": 3,
          "midi": 55,
          "name": "G3",
          "ticks": 3603,
          "time": 41.895348837209305,
          "velocity": 0.12598425196850394
        },
        {
          "duration": 0.581395348837205,
          "durationTicks": 50,
          "midi": 81,
          "name": "A5",
          "ticks": 3603,
          "time": 41.895348837209305,
          "velocity": 0.2047244094488189
        },
        {
          "duration": 0.5697674418604635,
          "durationTicks": 49,
          "midi": 69,
          "name": "A4",
          "ticks": 3604,
          "time": 41.906976744186046,
          "velocity": 0.2125984251968504
        },
        {
          "duration": 0.05813953488372192,
          "durationTicks": 5,
          "midi": 55,
          "name": "G3",
          "ticks": 3618,
          "time": 42.06976744186046,
          "velocity": 0.12598425196850394
        },
        {
          "duration": 0.1046511627906952,
          "durationTicks": 9,
          "midi": 54,
          "name": "F#3",
          "ticks": 3654,
          "time": 42.48837209302326,
          "velocity": 0.2047244094488189
        },
        {
          "duration": 0.09302325581395365,
          "durationTicks": 8,
          "midi": 69,
          "name": "A4",
          "ticks": 3655,
          "time": 42.5,
          "velocity": 0.2047244094488189
        },
        {
          "duration": 0.03488372093023173,
          "durationTicks": 3,
          "midi": 44,
          "name": "G#2",
          "ticks": 3656,
          "time": 42.51162790697674,
          "velocity": 0.15748031496062992
        },
        {
          "duration": 0.03488372093023173,
          "durationTicks": 3,
          "midi": 70,
          "name": "A#4",
          "ticks": 3663,
          "time": 42.593023255813954,
          "velocity": 0.2204724409448819
        },
        {
          "duration": 0.02325581395349019,
          "durationTicks": 2,
          "midi": 82,
          "name": "A#5",
          "ticks": 3663,
          "time": 42.593023255813954,
          "velocity": 0.23622047244094488
        },
        {
          "duration": 0.06976744186046346,
          "durationTicks": 6,
          "midi": 69,
          "name": "A4",
          "ticks": 3665,
          "time": 42.616279069767444,
          "velocity": 0.08661417322834646
        },
        {
          "duration": 0.6395348837209269,
          "durationTicks": 55,
          "midi": 83,
          "name": "B5",
          "ticks": 3665,
          "time": 42.616279069767444,
          "velocity": 0.2125984251968504
        },
        {
          "duration": 0.6279069767441854,
          "durationTicks": 54,
          "midi": 71,
          "name": "B4",
          "ticks": 3666,
          "time": 42.627906976744185,
          "velocity": 0.1968503937007874
        },
        {
          "duration": 0.27906976744186096,
          "durationTicks": 24,
          "midi": 90,
          "name": "F#6",
          "ticks": 3666,
          "time": 42.627906976744185,
          "velocity": 0.10236220472440945
        },
        {
          "duration": 0.03488372093023173,
          "durationTicks": 3,
          "midi": 66,
          "name": "F#4",
          "ticks": 3669,
          "time": 42.66279069767442,
          "velocity": 0.07086614173228346
        },
        {
          "duration": 0.04651162790698038,
          "durationTicks": 4,
          "midi": 54,
          "name": "F#3",
          "ticks": 3672,
          "time": 42.69767441860465,
          "velocity": 0.08661417322834646
        },
        {
          "duration": 0.08139534883721211,
          "durationTicks": 7,
          "midi": 54,
          "name": "F#3",
          "ticks": 3691,
          "time": 42.91860465116279,
          "velocity": 0.2283464566929134
        },
        {
          "duration": 0.12790697674418539,
          "durationTicks": 11,
          "midi": 54,
          "name": "F#3",
          "ticks": 3715,
          "time": 43.19767441860465,
          "velocity": 0.2677165354330709
        },
        {
          "duration": 0.06976744186046346,
          "durationTicks": 6,
          "midi": 81,
          "name": "A5",
          "ticks": 3727,
          "time": 43.33720930232558,
          "velocity": 0.08661417322834646
        },
        {
          "duration": 0.06976744186046346,
          "durationTicks": 6,
          "midi": 57,
          "name": "A3",
          "ticks": 3728,
          "time": 43.348837209302324,
          "velocity": 0.09448818897637795
        },
        {
          "duration": 0.15116279069767558,
          "durationTicks": 13,
          "midi": 85,
          "name": "C#6",
          "ticks": 3730,
          "time": 43.372093023255815,
          "velocity": 0.1889763779527559
        },
        {
          "duration": 0.12790697674418539,
          "durationTicks": 11,
          "midi": 73,
          "name": "C#5",
          "ticks": 3733,
          "time": 43.406976744186046,
          "velocity": 0.13385826771653545
        },
        {
          "duration": 0.05813953488372192,
          "durationTicks": 5,
          "midi": 54,
          "name": "F#3",
          "ticks": 3735,
          "time": 43.43023255813954,
          "velocity": 0.1732283464566929
        },
        {
          "duration": 0.09302325581395365,
          "durationTicks": 8,
          "midi": 54,
          "name": "F#3",
          "ticks": 3741,
          "time": 43.5,
          "velocity": 0.16535433070866143
        },
        {
          "duration": 0.11627906976744384,
          "durationTicks": 10,
          "midi": 54,
          "name": "F#3",
          "ticks": 3754,
          "time": 43.651162790697676,
          "velocity": 0.2204724409448819
        },
        {
          "duration": 0.38372093023255616,
          "durationTicks": 33,
          "midi": 64,
          "name": "E4",
          "ticks": 3757,
          "time": 43.68604651162791,
          "velocity": 0.1968503937007874
        },
        {
          "duration": 0.046511627906973274,
          "durationTicks": 4,
          "midi": 61,
          "name": "C#4",
          "ticks": 3762,
          "time": 43.74418604651163,
          "velocity": 0.07086614173228346
        },
        {
          "duration": 0.05813953488372192,
          "durationTicks": 5,
          "midi": 54,
          "name": "F#3",
          "ticks": 3766,
          "time": 43.7906976744186,
          "velocity": 0.15748031496062992
        },
        {
          "duration": 0.03488372093023173,
          "durationTicks": 3,
          "midi": 54,
          "name": "F#3",
          "ticks": 3772,
          "time": 43.86046511627907,
          "velocity": 0.1732283464566929
        },
        {
          "duration": 0.046511627906973274,
          "durationTicks": 4,
          "midi": 61,
          "name": "C#4",
          "ticks": 3772,
          "time": 43.86046511627907,
          "velocity": 0.08661417322834646
        },
        {
          "duration": 0.4767441860465098,
          "durationTicks": 41,
          "midi": 61,
          "name": "C#4",
          "ticks": 3787,
          "time": 44.03488372093023,
          "velocity": 0.14173228346456693
        },
        {
          "duration": 0.05813953488372192,
          "durationTicks": 5,
          "midi": 53,
          "name": "F3",
          "ticks": 3790,
          "time": 44.06976744186046,
          "velocity": 0.11811023622047244
        },
        {
          "duration": 0.3953488372092977,
          "durationTicks": 34,
          "midi": 78,
          "name": "F#5",
          "ticks": 3794,
          "time": 44.116279069767444,
          "velocity": 0.15748031496062992
        },
        {
          "duration": 0.3488372093023244,
          "durationTicks": 30,
          "midi": 54,
          "name": "F#3",
          "ticks": 3795,
          "time": 44.127906976744185,
          "velocity": 0.2440944881889764
        },
        {
          "duration": 0.11627906976744384,
          "durationTicks": 10,
          "midi": 85,
          "name": "C#6",
          "ticks": 3795,
          "time": 44.127906976744185,
          "velocity": 0.14960629921259844
        },
        {
          "duration": 0.03488372093023173,
          "durationTicks": 3,
          "midi": 85,
          "name": "C#6",
          "ticks": 3808,
          "time": 44.27906976744186,
          "velocity": 0.08661417322834646
        },
        {
          "duration": 0.03488372093023173,
          "durationTicks": 3,
          "midi": 43,
          "name": "G2",
          "ticks": 3815,
          "time": 44.36046511627907,
          "velocity": 0.07086614173228346
        },
        {
          "duration": 0.22093023255813904,
          "durationTicks": 19,
          "midi": 54,
          "name": "F#3",
          "ticks": 3826,
          "time": 44.48837209302326,
          "velocity": 0.2440944881889764
        },
        {
          "duration": 0.2325581395348877,
          "durationTicks": 20,
          "midi": 80,
          "name": "G#5",
          "ticks": 3828,
          "time": 44.51162790697674,
          "velocity": 0.2125984251968504
        },
        {
          "duration": 0.22093023255813904,
          "durationTicks": 19,
          "midi": 68,
          "name": "G#4",
          "ticks": 3829,
          "time": 44.52325581395349,
          "velocity": 0.2047244094488189
        },
        {
          "duration": 0.03488372093023173,
          "durationTicks": 3,
          "midi": 44,
          "name": "G#2",
          "ticks": 3849,
          "time": 44.75581395348837,
          "velocity": 0.2125984251968504
        },
        {
          "duration": 0.058139534883714816,
          "durationTicks": 5,
          "midi": 66,
          "name": "F#4",
          "ticks": 3850,
          "time": 44.76744186046512,
          "velocity": 0.07086614173228346
        },
        {
          "duration": 0.3953488372092977,
          "durationTicks": 34,
          "midi": 75,
          "name": "D#5",
          "ticks": 3850,
          "time": 44.76744186046512,
          "velocity": 0.1732283464566929
        },
        {
          "duration": 0.1046511627906952,
          "durationTicks": 9,
          "midi": 69,
          "name": "A4",
          "ticks": 3851,
          "time": 44.77906976744186,
          "velocity": 0.2047244094488189
        },
        {
          "duration": 0.02325581395349019,
          "durationTicks": 2,
          "midi": 45,
          "name": "A2",
          "ticks": 3852,
          "time": 44.7906976744186,
          "velocity": 0.2440944881889764
        },
        {
          "duration": 0.03488372093023173,
          "durationTicks": 3,
          "midi": 55,
          "name": "G3",
          "ticks": 3852,
          "time": 44.7906976744186,
          "velocity": 0.13385826771653545
        },
        {
          "duration": 0.3720930232558146,
          "durationTicks": 32,
          "midi": 44,
          "name": "G#2",
          "ticks": 3854,
          "time": 44.81395348837209,
          "velocity": 0.2440944881889764
        },
        {
          "duration": 0.046511627906973274,
          "durationTicks": 4,
          "midi": 82,
          "name": "A#5",
          "ticks": 3859,
          "time": 44.872093023255815,
          "velocity": 0.1889763779527559
        },
        {
          "duration": 0.5465116279069804,
          "durationTicks": 47,
          "midi": 71,
          "name": "B4",
          "ticks": 3862,
          "time": 44.906976744186046,
          "velocity": 0.2047244094488189
        },
        {
          "duration": 0.11627906976743674,
          "durationTicks": 10,
          "midi": 51,
          "name": "D#3",
          "ticks": 3866,
          "time": 44.95348837209303,
          "velocity": 0.07874015748031496
        },
        {
          "duration": 0.046511627906973274,
          "durationTicks": 4,
          "midi": 80,
          "name": "G#5",
          "ticks": 3867,
          "time": 44.96511627906977,
          "velocity": 0.07086614173228346
        },
        {
          "duration": 0.1860465116279073,
          "durationTicks": 16,
          "midi": 56,
          "name": "G#3",
          "ticks": 3889,
          "time": 45.22093023255814,
          "velocity": 0.2125984251968504
        },
        {
          "duration": 0.06976744186046346,
          "durationTicks": 6,
          "midi": 75,
          "name": "D#5",
          "ticks": 3897,
          "time": 45.31395348837209,
          "velocity": 0.07874015748031496
        },
        {
          "duration": 0.15116279069767558,
          "durationTicks": 13,
          "midi": 63,
          "name": "D#4",
          "ticks": 3898,
          "time": 45.325581395348834,
          "velocity": 0.08661417322834646
        },
        {
          "duration": 0.03488372093023173,
          "durationTicks": 3,
          "midi": 55,
          "name": "G3",
          "ticks": 3910,
          "time": 45.46511627906977,
          "velocity": 0.25984251968503935
        },
        {
          "duration": 0.15116279069767558,
          "durationTicks": 13,
          "midi": 56,
          "name": "G#3",
          "ticks": 3913,
          "time": 45.5,
          "velocity": 0.2677165354330709
        },
        {
          "duration": 0.25581395348837077,
          "durationTicks": 22,
          "midi": 73,
          "name": "C#5",
          "ticks": 3923,
          "time": 45.616279069767444,
          "velocity": 0.1968503937007874
        },
        {
          "duration": 0.17441860465116577,
          "durationTicks": 15,
          "midi": 71,
          "name": "B4",
          "ticks": 3924,
          "time": 45.627906976744185,
          "velocity": 0.07086614173228346
        },
        {
          "duration": 0.05813953488372192,
          "durationTicks": 5,
          "midi": 56,
          "name": "G#3",
          "ticks": 3927,
          "time": 45.66279069767442,
          "velocity": 0.15748031496062992
        },
        {
          "duration": 0.43023255813953654,
          "durationTicks": 37,
          "midi": 63,
          "name": "D#4",
          "ticks": 3929,
          "time": 45.68604651162791,
          "velocity": 0.11023622047244094
        },
        {
          "duration": 0.16279069767442422,
          "durationTicks": 14,
          "midi": 59,
          "name": "B3",
          "ticks": 3933,
          "time": 45.73255813953488,
          "velocity": 0.13385826771653545
        },
        {
          "duration": 0.09302325581395365,
          "durationTicks": 8,
          "midi": 73,
          "name": "C#5",
          "ticks": 3949,
          "time": 45.91860465116279,
          "velocity": 0.13385826771653545
        },
        {
          "duration": 0.09302325581395365,
          "durationTicks": 8,
          "midi": 85,
          "name": "C#6",
          "ticks": 3949,
          "time": 45.91860465116279,
          "velocity": 0.14960629921259844
        },
        {
          "duration": 0.1860465116279073,
          "durationTicks": 16,
          "midi": 44,
          "name": "G#2",
          "ticks": 3951,
          "time": 45.94186046511628,
          "velocity": 0.13385826771653545
        },
        {
          "duration": 0.19767441860464885,
          "durationTicks": 17,
          "midi": 56,
          "name": "G#3",
          "ticks": 3951,
          "time": 45.94186046511628,
          "velocity": 0.1732283464566929
        },
        {
          "duration": 0.03488372093023173,
          "durationTicks": 3,
          "midi": 74,
          "name": "D5",
          "ticks": 3957,
          "time": 46.01162790697674,
          "velocity": 0.18110236220472442
        },
        {
          "duration": 0.7441860465116292,
          "durationTicks": 64,
          "midi": 75,
          "name": "D#5",
          "ticks": 3960,
          "time": 46.04651162790697,
          "velocity": 0.2755905511811024
        },
        {
          "duration": 0.05813953488372192,
          "durationTicks": 5,
          "midi": 56,
          "name": "G#3",
          "ticks": 3970,
          "time": 46.16279069767442,
          "velocity": 0.10236220472440945
        },
        {
          "duration": 0.30232558139534405,
          "durationTicks": 26,
          "midi": 56,
          "name": "G#3",
          "ticks": 3977,
          "time": 46.24418604651163,
          "velocity": 0.2204724409448819
        },
        {
          "duration": 0.19767441860465595,
          "durationTicks": 17,
          "midi": 44,
          "name": "G#2",
          "ticks": 3989,
          "time": 46.383720930232556,
          "velocity": 0.11023622047244094
        },
        {
          "duration": 0.11627906976743674,
          "durationTicks": 10,
          "midi": 56,
          "name": "G#3",
          "ticks": 4009,
          "time": 46.616279069767444,
          "velocity": 0.2047244094488189
        },
        {
          "duration": 0.17441860465116577,
          "durationTicks": 15,
          "midi": 44,
          "name": "G#2",
          "ticks": 4016,
          "time": 46.69767441860465,
          "velocity": 0.11811023622047244
        },
        {
          "duration": 0.03488372093023173,
          "durationTicks": 3,
          "midi": 55,
          "name": "G3",
          "ticks": 4022,
          "time": 46.76744186046512,
          "velocity": 0.18110236220472442
        },
        {
          "duration": 0.2674418604651123,
          "durationTicks": 23,
          "midi": 71,
          "name": "B4",
          "ticks": 4023,
          "time": 46.77906976744186,
          "velocity": 0.2047244094488189
        },
        {
          "duration": 0.11627906976744384,
          "durationTicks": 10,
          "midi": 90,
          "name": "F#6",
          "ticks": 4024,
          "time": 46.7906976744186,
          "velocity": 0.11811023622047244
        },
        {
          "duration": 0.03488372093023173,
          "durationTicks": 3,
          "midi": 68,
          "name": "G#4",
          "ticks": 4029,
          "time": 46.848837209302324,
          "velocity": 0.11023622047244094
        },
        {
          "duration": 0.03488372093023173,
          "durationTicks": 3,
          "midi": 57,
          "name": "A3",
          "ticks": 4037,
          "time": 46.94186046511628,
          "velocity": 0.08661417322834646
        },
        {
          "duration": 0.04651162790698038,
          "durationTicks": 4,
          "midi": 69,
          "name": "A4",
          "ticks": 4046,
          "time": 47.04651162790697,
          "velocity": 0.25196850393700787
        },
        {
          "duration": 0.5,
          "durationTicks": 43,
          "midi": 80,
          "name": "G#5",
          "ticks": 4048,
          "time": 47.06976744186046,
          "velocity": 0.2204724409448819
        },
        {
          "duration": 0.8604651162790731,
          "durationTicks": 74,
          "midi": 68,
          "name": "G#4",
          "ticks": 4050,
          "time": 47.093023255813954,
          "velocity": 0.25984251968503935
        },
        {
          "duration": 0.15116279069767558,
          "durationTicks": 13,
          "midi": 52,
          "name": "E3",
          "ticks": 4051,
          "time": 47.104651162790695,
          "velocity": 0.10236220472440945
        },
        {
          "duration": 0.2674418604651194,
          "durationTicks": 23,
          "midi": 57,
          "name": "A3",
          "ticks": 4086,
          "time": 47.51162790697674,
          "velocity": 0.1889763779527559
        },
        {
          "duration": 0.27906976744186096,
          "durationTicks": 24,
          "midi": 61,
          "name": "C#4",
          "ticks": 4087,
          "time": 47.52325581395349,
          "velocity": 0.08661417322834646
        },
        {
          "duration": 0.15116279069767558,
          "durationTicks": 13,
          "midi": 73,
          "name": "C#5",
          "ticks": 4087,
          "time": 47.52325581395349,
          "velocity": 0.09448818897637795
        },
        {
          "duration": 0.1279069767441925,
          "durationTicks": 11,
          "midi": 52,
          "name": "E3",
          "ticks": 4089,
          "time": 47.54651162790697,
          "velocity": 0.07086614173228346
        },
        {
          "duration": 0.40697674418604635,
          "durationTicks": 35,
          "midi": 57,
          "name": "A3",
          "ticks": 4114,
          "time": 47.83720930232558,
          "velocity": 0.25984251968503935
        },
        {
          "duration": 0.22093023255813904,
          "durationTicks": 19,
          "midi": 52,
          "name": "E3",
          "ticks": 4126,
          "time": 47.97674418604651,
          "velocity": 0.13385826771653545
        },
        {
          "duration": 0.48837209302325135,
          "durationTicks": 42,
          "midi": 68,
          "name": "G#4",
          "ticks": 4143,
          "time": 48.174418604651166,
          "velocity": 0.2283464566929134
        },
        {
          "duration": 0.418604651162795,
          "durationTicks": 36,
          "midi": 45,
          "name": "A2",
          "ticks": 4148,
          "time": 48.23255813953488,
          "velocity": 0.1732283464566929
        },
        {
          "duration": 0.03488372093023884,
          "durationTicks": 3,
          "midi": 53,
          "name": "F3",
          "ticks": 4148,
          "time": 48.23255813953488,
          "velocity": 0.12598425196850394
        },
        {
          "duration": 0.1046511627907023,
          "durationTicks": 9,
          "midi": 64,
          "name": "E4",
          "ticks": 4148,
          "time": 48.23255813953488,
          "velocity": 0.07086614173228346
        },
        {
          "duration": 0.09302325581395365,
          "durationTicks": 8,
          "midi": 45,
          "name": "A2",
          "ticks": 4185,
          "time": 48.66279069767442,
          "velocity": 0.15748031496062992
        },
        {
          "duration": 0.04651162790698038,
          "durationTicks": 4,
          "midi": 69,
          "name": "A4",
          "ticks": 4185,
          "time": 48.66279069767442,
          "velocity": 0.2047244094488189
        },
        {
          "duration": 0.22093023255813904,
          "durationTicks": 19,
          "midi": 52,
          "name": "E3",
          "ticks": 4186,
          "time": 48.674418604651166,
          "velocity": 0.10236220472440945
        },
        {
          "duration": 0.13953488372093403,
          "durationTicks": 12,
          "midi": 68,
          "name": "G#4",
          "ticks": 4196,
          "time": 48.7906976744186,
          "velocity": 0.18110236220472442
        },
        {
          "duration": 0.03488372093023173,
          "durationTicks": 3,
          "midi": 55,
          "name": "G3",
          "ticks": 4205,
          "time": 48.895348837209305,
          "velocity": 0.13385826771653545
        },
        {
          "duration": 0.03488372093023884,
          "durationTicks": 3,
          "midi": 52,
          "name": "E3",
          "ticks": 4207,
          "time": 48.91860465116279,
          "velocity": 0.13385826771653545
        },
        {
          "duration": 0.046511627906973274,
          "durationTicks": 4,
          "midi": 69,
          "name": "A4",
          "ticks": 4208,
          "time": 48.93023255813954,
          "velocity": 0.1889763779527559
        },
        {
          "duration": 0.1046511627906952,
          "durationTicks": 9,
          "midi": 52,
          "name": "E3",
          "ticks": 4211,
          "time": 48.96511627906977,
          "velocity": 0.09448818897637795
        },
        {
          "duration": 0.1046511627906952,
          "durationTicks": 9,
          "midi": 69,
          "name": "A4",
          "ticks": 4221,
          "time": 49.08139534883721,
          "velocity": 0.1968503937007874
        },
        {
          "duration": 0.1046511627906952,
          "durationTicks": 9,
          "midi": 81,
          "name": "A5",
          "ticks": 4221,
          "time": 49.08139534883721,
          "velocity": 0.1968503937007874
        },
        {
          "duration": 0.13953488372093403,
          "durationTicks": 12,
          "midi": 80,
          "name": "G#5",
          "ticks": 4233,
          "time": 49.22093023255814,
          "velocity": 0.2125984251968504
        },
        {
          "duration": 0.1279069767441925,
          "durationTicks": 11,
          "midi": 68,
          "name": "G#4",
          "ticks": 4234,
          "time": 49.23255813953488,
          "velocity": 0.1732283464566929
        },
        {
          "duration": 0.03488372093023173,
          "durationTicks": 3,
          "midi": 45,
          "name": "A2",
          "ticks": 4243,
          "time": 49.33720930232558,
          "velocity": 0.1968503937007874
        },
        {
          "duration": 0.1860465116279073,
          "durationTicks": 16,
          "midi": 54,
          "name": "F#3",
          "ticks": 4243,
          "time": 49.33720930232558,
          "velocity": 0.2677165354330709
        },
        {
          "duration": 0.03488372093023173,
          "durationTicks": 3,
          "midi": 87,
          "name": "D#6",
          "ticks": 4247,
          "time": 49.383720930232556,
          "velocity": 0.07086614173228346
        },
        {
          "duration": 0.03488372093023173,
          "durationTicks": 3,
          "midi": 46,
          "name": "A#2",
          "ticks": 4248,
          "time": 49.395348837209305,
          "velocity": 0.12598425196850394
        },
        {
          "duration": 0.19767441860464885,
          "durationTicks": 17,
          "midi": 85,
          "name": "C#6",
          "ticks": 4248,
          "time": 49.395348837209305,
          "velocity": 0.09448818897637795
        },
        {
          "duration": 0.3139534883720927,
          "durationTicks": 27,
          "midi": 47,
          "name": "B2",
          "ticks": 4253,
          "time": 49.45348837209303,
          "velocity": 0.11811023622047244
        },
        {
          "duration": 0.24418604651162923,
          "durationTicks": 21,
          "midi": 54,
          "name": "F#3",
          "ticks": 4268,
          "time": 49.627906976744185,
          "velocity": 0.23622047244094488
        },
        {
          "duration": 0.03488372093023173,
          "durationTicks": 3,
          "midi": 46,
          "name": "A#2",
          "ticks": 4280,
          "time": 49.76744186046512,
          "velocity": 0.12598425196850394
        },
        {
          "duration": 0.13953488372093403,
          "durationTicks": 12,
          "midi": 47,
          "name": "B2",
          "ticks": 4290,
          "time": 49.883720930232556,
          "velocity": 0.09448818897637795
        },
        {
          "duration": 0.16279069767441712,
          "durationTicks": 14,
          "midi": 66,
          "name": "F#4",
          "ticks": 4307,
          "time": 50.08139534883721,
          "velocity": 0.15748031496062992
        },
        {
          "duration": 0.03488372093023884,
          "durationTicks": 3,
          "midi": 47,
          "name": "B2",
          "ticks": 4312,
          "time": 50.13953488372093,
          "velocity": 0.07874015748031496
        },
        {
          "duration": 0.23255813953488058,
          "durationTicks": 20,
          "midi": 71,
          "name": "B4",
          "ticks": 4313,
          "time": 50.151162790697676,
          "velocity": 0.11811023622047244
        },
        {
          "duration": 0.17441860465115866,
          "durationTicks": 15,
          "midi": 54,
          "name": "F#3",
          "ticks": 4315,
          "time": 50.174418604651166,
          "velocity": 0.1889763779527559
        },
        {
          "duration": 0.1860465116279073,
          "durationTicks": 16,
          "midi": 47,
          "name": "B2",
          "ticks": 4320,
          "time": 50.23255813953488,
          "velocity": 0.09448818897637795
        },
        {
          "duration": 0.418604651162795,
          "durationTicks": 36,
          "midi": 59,
          "name": "B3",
          "ticks": 4325,
          "time": 50.2906976744186,
          "velocity": 0.14173228346456693
        },
        {
          "duration": 0.03488372093023173,
          "durationTicks": 3,
          "midi": 53,
          "name": "F3",
          "ticks": 4339,
          "time": 50.45348837209303,
          "velocity": 0.15748031496062992
        },
        {
          "duration": 0.4534883720930196,
          "durationTicks": 39,
          "midi": 76,
          "name": "E5",
          "ticks": 4340,
          "time": 50.46511627906977,
          "velocity": 0.18110236220472442
        },
        {
          "duration": 0.4418604651162781,
          "durationTicks": 38,
          "midi": 64,
          "name": "E4",
          "ticks": 4341,
          "time": 50.47674418604651,
          "velocity": 0.14960629921259844
        },
        {
          "duration": 0.1046511627906952,
          "durationTicks": 9,
          "midi": 54,
          "name": "F#3",
          "ticks": 4342,
          "time": 50.48837209302326,
          "velocity": 0.11811023622047244
        },
        {
          "duration": 0.08139534883721211,
          "durationTicks": 7,
          "midi": 78,
          "name": "F#5",
          "ticks": 4344,
          "time": 50.51162790697674,
          "velocity": 0.07086614173228346
        },
        {
          "duration": 0.046511627906973274,
          "durationTicks": 4,
          "midi": 66,
          "name": "F#4",
          "ticks": 4380,
          "time": 50.93023255813954,
          "velocity": 0.09448818897637795
        },
        {
          "duration": 0.2093023255813904,
          "durationTicks": 18,
          "midi": 54,
          "name": "F#3",
          "ticks": 4385,
          "time": 50.98837209302326,
          "velocity": 0.2755905511811024
        },
        {
          "duration": 0.09302325581395365,
          "durationTicks": 8,
          "midi": 78,
          "name": "F#5",
          "ticks": 4387,
          "time": 51.01162790697674,
          "velocity": 0.1968503937007874
        },
        {
          "duration": 0.17441860465115866,
          "durationTicks": 15,
          "midi": 59,
          "name": "B3",
          "ticks": 4388,
          "time": 51.02325581395349,
          "velocity": 0.09448818897637795
        },
        {
          "duration": 0.03488372093023173,
          "durationTicks": 3,
          "midi": 67,
          "name": "G4",
          "ticks": 4394,
          "time": 51.093023255813954,
          "velocity": 0.23622047244094488
        },
        {
          "duration": 0.40697674418604635,
          "durationTicks": 35,
          "midi": 68,
          "name": "G#4",
          "ticks": 4397,
          "time": 51.127906976744185,
          "velocity": 0.2125984251968504
        },
        {
          "duration": 0.11627906976744384,
          "durationTicks": 10,
          "midi": 87,
          "name": "D#6",
          "ticks": 4399,
          "time": 51.151162790697676,
          "velocity": 0.07874015748031496
        },
        {
          "duration": 0.779069767441861,
          "durationTicks": 67,
          "midi": 66,
          "name": "F#4",
          "ticks": 4434,
          "time": 51.55813953488372,
          "velocity": 0.2204724409448819
        },
        {
          "duration": 0.7093023255813975,
          "durationTicks": 61,
          "midi": 45,
          "name": "A2",
          "ticks": 4437,
          "time": 51.593023255813954,
          "velocity": 0.36220472440944884
        },
        {
          "duration": 0.05813953488372192,
          "durationTicks": 5,
          "midi": 52,
          "name": "E3",
          "ticks": 4449,
          "time": 51.73255813953488,
          "velocity": 0.08661417322834646
        },
        {
          "duration": 0.03488372093023173,
          "durationTicks": 3,
          "midi": 45,
          "name": "A2",
          "ticks": 4504,
          "time": 52.372093023255815,
          "velocity": 0.11023622047244094
        },
        {
          "duration": 0.19767441860464885,
          "durationTicks": 17,
          "midi": 68,
          "name": "G#4",
          "ticks": 4506,
          "time": 52.395348837209305,
          "velocity": 0.2283464566929134
        },
        {
          "duration": 0.1860465116279073,
          "durationTicks": 16,
          "midi": 87,
          "name": "D#6",
          "ticks": 4507,
          "time": 52.406976744186046,
          "velocity": 0.13385826771653545
        },
        {
          "duration": 0.03488372093023173,
          "durationTicks": 3,
          "midi": 45,
          "name": "A2",
          "ticks": 4509,
          "time": 52.43023255813954,
          "velocity": 0.11023622047244094
        },
        {
          "duration": 0.22093023255813904,
          "durationTicks": 19,
          "midi": 45,
          "name": "A2",
          "ticks": 4515,
          "time": 52.5,
          "velocity": 0.15748031496062992
        },
        {
          "duration": 0.3953488372093048,
          "durationTicks": 34,
          "midi": 61,
          "name": "C#4",
          "ticks": 4534,
          "time": 52.72093023255814,
          "velocity": 0.14960629921259844
        },
        {
          "duration": 0.40697674418604635,
          "durationTicks": 35,
          "midi": 85,
          "name": "C#6",
          "ticks": 4534,
          "time": 52.72093023255814,
          "velocity": 0.15748031496062992
        },
        {
          "duration": 1.0930232558139537,
          "durationTicks": 94,
          "midi": 45,
          "name": "A2",
          "ticks": 4535,
          "time": 52.73255813953488,
          "velocity": 0.2204724409448819
        },
        {
          "duration": 0.08139534883721211,
          "durationTicks": 7,
          "midi": 52,
          "name": "E3",
          "ticks": 4540,
          "time": 52.7906976744186,
          "velocity": 0.07874015748031496
        },
        {
          "duration": 0.03488372093023173,
          "durationTicks": 3,
          "midi": 52,
          "name": "E3",
          "ticks": 4548,
          "time": 52.883720930232556,
          "velocity": 0.08661417322834646
        },
        {
          "duration": 0.03488372093023173,
          "durationTicks": 3,
          "midi": 52,
          "name": "E3",
          "ticks": 4554,
          "time": 52.95348837209303,
          "velocity": 0.07874015748031496
        },
        {
          "duration": 0.3720930232558146,
          "durationTicks": 32,
          "midi": 87,
          "name": "D#6",
          "ticks": 4571,
          "time": 53.151162790697676,
          "velocity": 0.1732283464566929
        },
        {
          "duration": 0.3720930232558146,
          "durationTicks": 32,
          "midi": 63,
          "name": "D#4",
          "ticks": 4572,
          "time": 53.16279069767442,
          "velocity": 0.1968503937007874
        },
        {
          "duration": 0.3372093023255829,
          "durationTicks": 29,
          "midi": 82,
          "name": "A#5",
          "ticks": 4572,
          "time": 53.16279069767442,
          "velocity": 0.13385826771653545
        },
        {
          "duration": 0.27906976744186096,
          "durationTicks": 24,
          "midi": 76,
          "name": "E5",
          "ticks": 4608,
          "time": 53.58139534883721,
          "velocity": 0.2283464566929134
        },
        {
          "duration": 0.2093023255813975,
          "durationTicks": 18,
          "midi": 64,
          "name": "E4",
          "ticks": 4609,
          "time": 53.593023255813954,
          "velocity": 0.2047244094488189
        },
        {
          "duration": 0.1046511627907023,
          "durationTicks": 9,
          "midi": 66,
          "name": "F#4",
          "ticks": 4631,
          "time": 53.848837209302324,
          "velocity": 0.2204724409448819
        },
        {
          "duration": 0.023255813953483084,
          "durationTicks": 2,
          "midi": 45,
          "name": "A2",
          "ticks": 4632,
          "time": 53.86046511627907,
          "velocity": 0.28346456692913385
        },
        {
          "duration": 1.0348837209302317,
          "durationTicks": 89,
          "midi": 45,
          "name": "A2",
          "ticks": 4635,
          "time": 53.895348837209305,
          "velocity": 0.30708661417322836
        },
        {
          "duration": 0.03488372093023173,
          "durationTicks": 3,
          "midi": 67,
          "name": "G4",
          "ticks": 4640,
          "time": 53.95348837209303,
          "velocity": 0.2204724409448819
        },
        {
          "duration": 0.2906976744186025,
          "durationTicks": 25,
          "midi": 68,
          "name": "G#4",
          "ticks": 4643,
          "time": 53.98837209302326,
          "velocity": 0.2204724409448819
        },
        {
          "duration": 0.11627906976743674,
          "durationTicks": 10,
          "midi": 76,
          "name": "E5",
          "ticks": 4646,
          "time": 54.02325581395349,
          "velocity": 0.07086614173228346
        },
        {
          "duration": 0.06976744186046346,
          "durationTicks": 6,
          "midi": 76,
          "name": "E5",
          "ticks": 4663,
          "time": 54.22093023255814,
          "velocity": 0.07874015748031496
        },
        {
          "duration": 0.06976744186046346,
          "durationTicks": 6,
          "midi": 69,
          "name": "A4",
          "ticks": 4668,
          "time": 54.27906976744186,
          "velocity": 0.18110236220472442
        },
        {
          "duration": 0.046511627906973274,
          "durationTicks": 4,
          "midi": 52,
          "name": "E3",
          "ticks": 4670,
          "time": 54.30232558139535,
          "velocity": 0.14173228346456693
        },
        {
          "duration": 0.38372093023255616,
          "durationTicks": 33,
          "midi": 68,
          "name": "G#4",
          "ticks": 4675,
          "time": 54.36046511627907,
          "velocity": 0.25196850393700787
        },
        {
          "duration": 0.1860465116279073,
          "durationTicks": 16,
          "midi": 52,
          "name": "E3",
          "ticks": 4677,
          "time": 54.383720930232556,
          "velocity": 0.08661417322834646
        },
        {
          "duration": 0.03488372093023173,
          "durationTicks": 3,
          "midi": 54,
          "name": "F#3",
          "ticks": 4727,
          "time": 54.96511627906977,
          "velocity": 0.11811023622047244
        },
        {
          "duration": 0.046511627906973274,
          "durationTicks": 4,
          "midi": 47,
          "name": "B2",
          "ticks": 4729,
          "time": 54.98837209302326,
          "velocity": 0.23622047244094488
        },
        {
          "duration": 0.05813953488372192,
          "durationTicks": 5,
          "midi": 35,
          "name": "B1",
          "ticks": 4731,
          "time": 55.01162790697674,
          "velocity": 0.18110236220472442
        },
        {
          "duration": 0.05813953488372192,
          "durationTicks": 5,
          "midi": 54,
          "name": "F#3",
          "ticks": 4731,
          "time": 55.01162790697674,
          "velocity": 0.12598425196850394
        },
        {
          "duration": 0.48837209302325846,
          "durationTicks": 42,
          "midi": 64,
          "name": "E4",
          "ticks": 4734,
          "time": 55.04651162790697,
          "velocity": 0.1732283464566929
        },
        {
          "duration": 0.03488372093023173,
          "durationTicks": 3,
          "midi": 53,
          "name": "F3",
          "ticks": 4736,
          "time": 55.06976744186046,
          "velocity": 0.11023622047244094
        },
        {
          "duration": 0.3720930232558146,
          "durationTicks": 32,
          "midi": 35,
          "name": "B1",
          "ticks": 4737,
          "time": 55.08139534883721,
          "velocity": 0.18110236220472442
        },
        {
          "duration": 0.2093023255813975,
          "durationTicks": 18,
          "midi": 59,
          "name": "B3",
          "ticks": 4741,
          "time": 55.127906976744185,
          "velocity": 0.10236220472440945
        },
        {
          "duration": 0.3953488372092977,
          "durationTicks": 34,
          "midi": 47,
          "name": "B2",
          "ticks": 4743,
          "time": 55.151162790697676,
          "velocity": 0.2204724409448819
        },
        {
          "duration": 0.1046511627906952,
          "durationTicks": 9,
          "midi": 54,
          "name": "F#3",
          "ticks": 4767,
          "time": 55.43023255813954,
          "velocity": 0.2283464566929134
        },
        {
          "duration": 0.03488372093023173,
          "durationTicks": 3,
          "midi": 35,
          "name": "B1",
          "ticks": 4773,
          "time": 55.5,
          "velocity": 0.15748031496062992
        },
        {
          "duration": 0.16279069767441712,
          "durationTicks": 14,
          "midi": 66,
          "name": "F#4",
          "ticks": 4776,
          "time": 55.53488372093023,
          "velocity": 0.23622047244094488
        },
        {
          "duration": 0.2325581395348877,
          "durationTicks": 20,
          "midi": 35,
          "name": "B1",
          "ticks": 4777,
          "time": 55.54651162790697,
          "velocity": 0.14960629921259844
        },
        {
          "duration": 0.09302325581395365,
          "durationTicks": 8,
          "midi": 54,
          "name": "F#3",
          "ticks": 4777,
          "time": 55.54651162790697,
          "velocity": 0.12598425196850394
        },
        {
          "duration": 0.1046511627907023,
          "durationTicks": 9,
          "midi": 59,
          "name": "B3",
          "ticks": 4787,
          "time": 55.66279069767442,
          "velocity": 0.07874015748031496
        },
        {
          "duration": 0.03488372093023173,
          "durationTicks": 3,
          "midi": 67,
          "name": "G4",
          "ticks": 4790,
          "time": 55.69767441860465,
          "velocity": 0.2125984251968504
        },
        {
          "duration": 0.4534883720930267,
          "durationTicks": 39,
          "midi": 68,
          "name": "G#4",
          "ticks": 4793,
          "time": 55.73255813953488,
          "velocity": 0.2125984251968504
        },
        {
          "duration": 0.1279069767441925,
          "durationTicks": 11,
          "midi": 87,
          "name": "D#6",
          "ticks": 4793,
          "time": 55.73255813953488,
          "velocity": 0.07086614173228346
        },
        {
          "duration": 0.2674418604651194,
          "durationTicks": 23,
          "midi": 47,
          "name": "B2",
          "ticks": 4800,
          "time": 55.81395348837209,
          "velocity": 0.14173228346456693
        },
        {
          "duration": 0.24418604651162923,
          "durationTicks": 21,
          "midi": 35,
          "name": "B1",
          "ticks": 4802,
          "time": 55.83720930232558,
          "velocity": 0.12598425196850394
        },
        {
          "duration": 0.13953488372092693,
          "durationTicks": 12,
          "midi": 54,
          "name": "F#3",
          "ticks": 4804,
          "time": 55.86046511627907,
          "velocity": 0.12598425196850394
        },
        {
          "duration": 0.02325581395349019,
          "durationTicks": 2,
          "midi": 36,
          "name": "C2",
          "ticks": 4828,
          "time": 56.13953488372093,
          "velocity": 0.2440944881889764
        },
        {
          "duration": 2.360465116279073,
          "durationTicks": 203,
          "midi": 37,
          "name": "C#2",
          "ticks": 4830,
          "time": 56.16279069767442,
          "velocity": 0.25196850393700787
        },
        {
          "duration": 0.7906976744186096,
          "durationTicks": 68,
          "midi": 66,
          "name": "F#4",
          "ticks": 4833,
          "time": 56.19767441860465,
          "velocity": 0.2125984251968504
        },
        {
          "duration": 0.38372093023256326,
          "durationTicks": 33,
          "midi": 56,
          "name": "G#3",
          "ticks": 4841,
          "time": 56.2906976744186,
          "velocity": 0.1732283464566929
        },
        {
          "duration": 0.40697674418604635,
          "durationTicks": 35,
          "midi": 56,
          "name": "G#3",
          "ticks": 4878,
          "time": 56.72093023255814,
          "velocity": 0.16535433070866143
        },
        {
          "duration": 0.081395348837205,
          "durationTicks": 7,
          "midi": 61,
          "name": "C#4",
          "ticks": 4901,
          "time": 56.98837209302326,
          "velocity": 0.10236220472440945
        },
        {
          "duration": 0.16279069767441712,
          "durationTicks": 14,
          "midi": 68,
          "name": "G#4",
          "ticks": 4907,
          "time": 57.05813953488372,
          "velocity": 0.2047244094488189
        },
        {
          "duration": 0.15116279069767558,
          "durationTicks": 13,
          "midi": 80,
          "name": "G#5",
          "ticks": 4907,
          "time": 57.05813953488372,
          "velocity": 0.2047244094488189
        },
        {
          "duration": 0.16279069767441712,
          "durationTicks": 14,
          "midi": 87,
          "name": "D#6",
          "ticks": 4907,
          "time": 57.05813953488372,
          "velocity": 0.14960629921259844
        },
        {
          "duration": 0.06976744186047057,
          "durationTicks": 6,
          "midi": 61,
          "name": "C#4",
          "ticks": 4914,
          "time": 57.13953488372093,
          "velocity": 0.07874015748031496
        },
        {
          "duration": 0.40697674418604635,
          "durationTicks": 35,
          "midi": 85,
          "name": "C#6",
          "ticks": 4934,
          "time": 57.372093023255815,
          "velocity": 0.12598425196850394
        },
        {
          "duration": 0.3953488372092977,
          "durationTicks": 34,
          "midi": 61,
          "name": "C#4",
          "ticks": 4936,
          "time": 57.395348837209305,
          "velocity": 0.16535433070866143
        },
        {
          "duration": 0.2093023255813975,
          "durationTicks": 18,
          "midi": 84,
          "name": "C6",
          "ticks": 4940,
          "time": 57.44186046511628,
          "velocity": 0.08661417322834646
        },
        {
          "duration": 0.2674418604651123,
          "durationTicks": 23,
          "midi": 56,
          "name": "G#3",
          "ticks": 4941,
          "time": 57.45348837209303,
          "velocity": 0.11811023622047244
        },
        {
          "duration": 0.03488372093023173,
          "durationTicks": 3,
          "midi": 73,
          "name": "C#5",
          "ticks": 4970,
          "time": 57.7906976744186,
          "velocity": 0.07874015748031496
        },
        {
          "duration": 0.3953488372092977,
          "durationTicks": 34,
          "midi": 63,
          "name": "D#4",
          "ticks": 4974,
          "time": 57.83720930232558,
          "velocity": 0.2125984251968504
        },
        {
          "duration": 0.38372093023255616,
          "durationTicks": 33,
          "midi": 87,
          "name": "D#6",
          "ticks": 4974,
          "time": 57.83720930232558,
          "velocity": 0.1889763779527559
        },
        {
          "duration": 0.3720930232558146,
          "durationTicks": 32,
          "midi": 82,
          "name": "A#5",
          "ticks": 4975,
          "time": 57.848837209302324,
          "velocity": 0.14173228346456693
        },
        {
          "duration": 0.15116279069767558,
          "durationTicks": 13,
          "midi": 56,
          "name": "G#3",
          "ticks": 5001,
          "time": 58.151162790697676,
          "velocity": 0.16535433070866143
        },
        {
          "duration": 0.24418604651162923,
          "durationTicks": 21,
          "midi": 83,
          "name": "B5",
          "ticks": 5010,
          "time": 58.25581395348837,
          "velocity": 0.12598425196850394
        },
        {
          "duration": 0.24418604651162212,
          "durationTicks": 21,
          "midi": 71,
          "name": "B4",
          "ticks": 5011,
          "time": 58.26744186046512,
          "velocity": 0.09448818897637795
        },
        {
          "duration": 0.2093023255813975,
          "durationTicks": 18,
          "midi": 76,
          "name": "E5",
          "ticks": 5012,
          "time": 58.27906976744186,
          "velocity": 0.07874015748031496
        },
        {
          "duration": 0.1046511627906952,
          "durationTicks": 9,
          "midi": 61,
          "name": "C#4",
          "ticks": 5025,
          "time": 58.43023255813954,
          "velocity": 0.08661417322834646
        },
        {
          "duration": 0.3139534883720927,
          "durationTicks": 27,
          "midi": 56,
          "name": "G#3",
          "ticks": 5036,
          "time": 58.55813953488372,
          "velocity": 0.1732283464566929
        },
        {
          "duration": 0.4534883720930196,
          "durationTicks": 39,
          "midi": 68,
          "name": "G#4",
          "ticks": 5036,
          "time": 58.55813953488372,
          "velocity": 0.2677165354330709
        },
        {
          "duration": 0.4418604651162781,
          "durationTicks": 38,
          "midi": 87,
          "name": "D#6",
          "ticks": 5036,
          "time": 58.55813953488372,
          "velocity": 0.16535433070866143
        },
        {
          "duration": 0.1860465116279073,
          "durationTicks": 16,
          "midi": 61,
          "name": "C#4",
          "ticks": 5038,
          "time": 58.58139534883721,
          "velocity": 0.11811023622047244
        },
        {
          "duration": 1.0697674418604635,
          "durationTicks": 92,
          "midi": 37,
          "name": "C#2",
          "ticks": 5039,
          "time": 58.593023255813954,
          "velocity": 0.2204724409448819
        },
        {
          "duration": 0.2093023255813904,
          "durationTicks": 18,
          "midi": 56,
          "name": "G#3",
          "ticks": 5076,
          "time": 59.02325581395349,
          "velocity": 0.1968503937007874
        },
        {
          "duration": 0.5348837209302317,
          "durationTicks": 46,
          "midi": 68,
          "name": "G#4",
          "ticks": 5077,
          "time": 59.03488372093023,
          "velocity": 0.2283464566929134
        },
        {
          "duration": 0.2674418604651123,
          "durationTicks": 23,
          "midi": 87,
          "name": "D#6",
          "ticks": 5081,
          "time": 59.08139534883721,
          "velocity": 0.09448818897637795
        },
        {
          "duration": 0.03488372093023173,
          "durationTicks": 3,
          "midi": 54,
          "name": "F#3",
          "ticks": 5097,
          "time": 59.26744186046512,
          "velocity": 0.09448818897637795
        },
        {
          "duration": 0.12790697674418539,
          "durationTicks": 11,
          "midi": 73,
          "name": "C#5",
          "ticks": 5111,
          "time": 59.43023255813954,
          "velocity": 0.08661417322834646
        },
        {
          "duration": 0.06976744186046346,
          "durationTicks": 6,
          "midi": 55,
          "name": "G3",
          "ticks": 5123,
          "time": 59.56976744186046,
          "velocity": 0.1732283464566929
        },
        {
          "duration": 0.05813953488372192,
          "durationTicks": 5,
          "midi": 54,
          "name": "F#3",
          "ticks": 5129,
          "time": 59.63953488372093,
          "velocity": 0.1732283464566929
        },
        {
          "duration": 0.5,
          "durationTicks": 43,
          "midi": 64,
          "name": "E4",
          "ticks": 5133,
          "time": 59.68604651162791,
          "velocity": 0.18110236220472442
        },
        {
          "duration": 0.5,
          "durationTicks": 43,
          "midi": 76,
          "name": "E5",
          "ticks": 5133,
          "time": 59.68604651162791,
          "velocity": 0.1968503937007874
        },
        {
          "duration": 0.023255813953483084,
          "durationTicks": 2,
          "midi": 47,
          "name": "B2",
          "ticks": 5135,
          "time": 59.7093023255814,
          "velocity": 0.23622047244094488
        },
        {
          "duration": 0.19767441860464885,
          "durationTicks": 17,
          "midi": 54,
          "name": "F#3",
          "ticks": 5136,
          "time": 59.72093023255814,
          "velocity": 0.25196850393700787
        },
        {
          "duration": 0.05813953488372192,
          "durationTicks": 5,
          "midi": 35,
          "name": "B1",
          "ticks": 5137,
          "time": 59.73255813953488,
          "velocity": 0.1889763779527559
        },
        {
          "duration": 0.03488372093023884,
          "durationTicks": 3,
          "midi": 48,
          "name": "C3",
          "ticks": 5137,
          "time": 59.73255813953488,
          "velocity": 0.18110236220472442
        },
        {
          "duration": 0.1860465116279073,
          "durationTicks": 16,
          "midi": 35,
          "name": "B1",
          "ticks": 5143,
          "time": 59.80232558139535,
          "velocity": 0.18110236220472442
        },
        {
          "duration": 0.25581395348837077,
          "durationTicks": 22,
          "midi": 47,
          "name": "B2",
          "ticks": 5147,
          "time": 59.848837209302324,
          "velocity": 0.2440944881889764
        },
        {
          "duration": 0.1046511627906952,
          "durationTicks": 9,
          "midi": 35,
          "name": "B1",
          "ticks": 5160,
          "time": 60,
          "velocity": 0.16535433070866143
        },
        {
          "duration": 0.3488372093023244,
          "durationTicks": 30,
          "midi": 47,
          "name": "B2",
          "ticks": 5171,
          "time": 60.127906976744185,
          "velocity": 0.2047244094488189
        },
        {
          "duration": 0.16279069767441712,
          "durationTicks": 14,
          "midi": 54,
          "name": "F#3",
          "ticks": 5171,
          "time": 60.127906976744185,
          "velocity": 0.1732283464566929
        },
        {
          "duration": 0.11627906976744384,
          "durationTicks": 10,
          "midi": 35,
          "name": "B1",
          "ticks": 5172,
          "time": 60.13953488372093,
          "velocity": 0.16535433070866143
        },
        {
          "duration": 0.081395348837205,
          "durationTicks": 7,
          "midi": 66,
          "name": "F#4",
          "ticks": 5181,
          "time": 60.24418604651163,
          "velocity": 0.2204724409448819
        },
        {
          "duration": 0.081395348837205,
          "durationTicks": 7,
          "midi": 85,
          "name": "C#6",
          "ticks": 5181,
          "time": 60.24418604651163,
          "velocity": 0.10236220472440945
        },
        {
          "duration": 0.12790697674418539,
          "durationTicks": 11,
          "midi": 35,
          "name": "B1",
          "ticks": 5183,
          "time": 60.26744186046512,
          "velocity": 0.15748031496062992
        },
        {
          "duration": 0.04651162790698038,
          "durationTicks": 4,
          "midi": 67,
          "name": "G4",
          "ticks": 5188,
          "time": 60.325581395348834,
          "velocity": 0.2440944881889764
        },
        {
          "duration": 0.04651162790698038,
          "durationTicks": 4,
          "midi": 86,
          "name": "D6",
          "ticks": 5188,
          "time": 60.325581395348834,
          "velocity": 0.11811023622047244
        },
        {
          "duration": 0.19767441860464885,
          "durationTicks": 17,
          "midi": 68,
          "name": "G#4",
          "ticks": 5192,
          "time": 60.372093023255815,
          "velocity": 0.2204724409448819
        },
        {
          "duration": 0.15116279069766847,
          "durationTicks": 13,
          "midi": 54,
          "name": "F#3",
          "ticks": 5194,
          "time": 60.395348837209305,
          "velocity": 0.28346456692913385
        },
        {
          "duration": 0.11627906976744384,
          "durationTicks": 10,
          "midi": 35,
          "name": "B1",
          "ticks": 5196,
          "time": 60.41860465116279,
          "velocity": 0.15748031496062992
        },
        {
          "duration": 0.15116279069767558,
          "durationTicks": 13,
          "midi": 54,
          "name": "F#3",
          "ticks": 5208,
          "time": 60.55813953488372,
          "velocity": 0.1732283464566929
        },
        {
          "duration": 0.17441860465116577,
          "durationTicks": 15,
          "midi": 35,
          "name": "B1",
          "ticks": 5209,
          "time": 60.56976744186046,
          "velocity": 0.14960629921259844
        },
        {
          "duration": 0.09302325581395365,
          "durationTicks": 8,
          "midi": 69,
          "name": "A4",
          "ticks": 5209,
          "time": 60.56976744186046,
          "velocity": 0.2204724409448819
        },
        {
          "duration": 0.09302325581395365,
          "durationTicks": 8,
          "midi": 47,
          "name": "B2",
          "ticks": 5211,
          "time": 60.593023255813954,
          "velocity": 0.1732283464566929
        },
        {
          "duration": 0.17441860465116577,
          "durationTicks": 15,
          "midi": 68,
          "name": "G#4",
          "ticks": 5217,
          "time": 60.66279069767442,
          "velocity": 0.23622047244094488
        },
        {
          "duration": 0.04651162790698038,
          "durationTicks": 4,
          "midi": 47,
          "name": "B2",
          "ticks": 5220,
          "time": 60.69767441860465,
          "velocity": 0.14960629921259844
        },
        {
          "duration": 0.7906976744186025,
          "durationTicks": 68,
          "midi": 45,
          "name": "A2",
          "ticks": 5229,
          "time": 60.80232558139535,
          "velocity": 0.31496062992125984
        },
        {
          "duration": 0.7674418604651123,
          "durationTicks": 66,
          "midi": 66,
          "name": "F#4",
          "ticks": 5234,
          "time": 60.86046511627907,
          "velocity": 0.18110236220472442
        },
        {
          "duration": 0.1046511627906952,
          "durationTicks": 9,
          "midi": 52,
          "name": "E3",
          "ticks": 5257,
          "time": 61.127906976744185,
          "velocity": 0.07874015748031496
        },
        {
          "duration": 0.06976744186046346,
          "durationTicks": 6,
          "midi": 52,
          "name": "E3",
          "ticks": 5286,
          "time": 61.46511627906977,
          "velocity": 0.11811023622047244
        },
        {
          "duration": 0.05813953488372192,
          "durationTicks": 5,
          "midi": 45,
          "name": "A2",
          "ticks": 5299,
          "time": 61.616279069767444,
          "velocity": 0.08661417322834646
        },
        {
          "duration": 0.03488372093023173,
          "durationTicks": 3,
          "midi": 67,
          "name": "G4",
          "ticks": 5300,
          "time": 61.627906976744185,
          "velocity": 0.07874015748031496
        },
        {
          "duration": 0.15116279069767558,
          "durationTicks": 13,
          "midi": 68,
          "name": "G#4",
          "ticks": 5307,
          "time": 61.7093023255814,
          "velocity": 0.1889763779527559
        },
        {
          "duration": 0.15116279069767558,
          "durationTicks": 13,
          "midi": 87,
          "name": "D#6",
          "ticks": 5307,
          "time": 61.7093023255814,
          "velocity": 0.12598425196850394
        },
        {
          "duration": 0.22093023255813904,
          "durationTicks": 19,
          "midi": 45,
          "name": "A2",
          "ticks": 5308,
          "time": 61.72093023255814,
          "velocity": 0.07086614173228346
        },
        {
          "duration": 0.13953488372093403,
          "durationTicks": 12,
          "midi": 57,
          "name": "A3",
          "ticks": 5314,
          "time": 61.7906976744186,
          "velocity": 0.09448818897637795
        },
        {
          "duration": 0.40697674418604635,
          "durationTicks": 35,
          "midi": 61,
          "name": "C#4",
          "ticks": 5331,
          "time": 61.98837209302326,
          "velocity": 0.14173228346456693
        },
        {
          "duration": 0.3953488372092977,
          "durationTicks": 34,
          "midi": 85,
          "name": "C#6",
          "ticks": 5331,
          "time": 61.98837209302326,
          "velocity": 0.11811023622047244
        },
        {
          "duration": 0.2093023255813975,
          "durationTicks": 18,
          "midi": 52,
          "name": "E3",
          "ticks": 5332,
          "time": 62,
          "velocity": 0.16535433070866143
        },
        {
          "duration": 0.2558139534883779,
          "durationTicks": 22,
          "midi": 45,
          "name": "A2",
          "ticks": 5333,
          "time": 62.01162790697674,
          "velocity": 0.1732283464566929
        },
        {
          "duration": 0.15116279069767558,
          "durationTicks": 13,
          "midi": 52,
          "name": "E3",
          "ticks": 5353,
          "time": 62.24418604651163,
          "velocity": 0.1732283464566929
        },
        {
          "duration": 0.09302325581395365,
          "durationTicks": 8,
          "midi": 57,
          "name": "A3",
          "ticks": 5355,
          "time": 62.26744186046512,
          "velocity": 0.10236220472440945
        },
        {
          "duration": 0.1046511627906952,
          "durationTicks": 9,
          "midi": 45,
          "name": "A2",
          "ticks": 5356,
          "time": 62.27906976744186,
          "velocity": 0.16535433070866143
        },
        {
          "duration": 0.16279069767441712,
          "durationTicks": 14,
          "midi": 57,
          "name": "A3",
          "ticks": 5369,
          "time": 62.43023255813954,
          "velocity": 0.10236220472440945
        },
        {
          "duration": 0.3953488372093048,
          "durationTicks": 34,
          "midi": 45,
          "name": "A2",
          "ticks": 5370,
          "time": 62.44186046511628,
          "velocity": 0.2047244094488189
        },
        {
          "duration": 0.3953488372093048,
          "durationTicks": 34,
          "midi": 75,
          "name": "D#5",
          "ticks": 5370,
          "time": 62.44186046511628,
          "velocity": 0.16535433070866143
        },
        {
          "duration": 0.3372093023255829,
          "durationTicks": 29,
          "midi": 82,
          "name": "A#5",
          "ticks": 5370,
          "time": 62.44186046511628,
          "velocity": 0.14960629921259844
        },
        {
          "duration": 0.3488372093023244,
          "durationTicks": 30,
          "midi": 63,
          "name": "D#4",
          "ticks": 5371,
          "time": 62.45348837209303,
          "velocity": 0.2047244094488189
        },
        {
          "duration": 0.2093023255813975,
          "durationTicks": 18,
          "midi": 64,
          "name": "E4",
          "ticks": 5405,
          "time": 62.848837209302324,
          "velocity": 0.2047244094488189
        },
        {
          "duration": 0.25581395348837077,
          "durationTicks": 22,
          "midi": 45,
          "name": "A2",
          "ticks": 5408,
          "time": 62.883720930232556,
          "velocity": 0.2204724409448819
        },
        {
          "duration": 0.09302325581395365,
          "durationTicks": 8,
          "midi": 66,
          "name": "F#4",
          "ticks": 5429,
          "time": 63.127906976744185,
          "velocity": 0.2204724409448819
        },
        {
          "duration": 0.3953488372093048,
          "durationTicks": 34,
          "midi": 45,
          "name": "A2",
          "ticks": 5432,
          "time": 63.16279069767442,
          "velocity": 0.2677165354330709
        },
        {
          "duration": 0.15116279069767558,
          "durationTicks": 13,
          "midi": 52,
          "name": "E3",
          "ticks": 5435,
          "time": 63.19767441860465,
          "velocity": 0.07874015748031496
        },
        {
          "duration": 0.04651162790698038,
          "durationTicks": 4,
          "midi": 67,
          "name": "G4",
          "ticks": 5437,
          "time": 63.22093023255814,
          "velocity": 0.2283464566929134
        },
        {
          "duration": 0.03488372093023173,
          "durationTicks": 3,
          "midi": 86,
          "name": "D6",
          "ticks": 5437,
          "time": 63.22093023255814,
          "velocity": 0.11023622047244094
        },
        {
          "duration": 0.3139534883720927,
          "durationTicks": 27,
          "midi": 68,
          "name": "G#4",
          "ticks": 5441,
          "time": 63.26744186046512,
          "velocity": 0.2283464566929134
        },
        {
          "duration": 0.15116279069766847,
          "durationTicks": 13,
          "midi": 87,
          "name": "D#6",
          "ticks": 5441,
          "time": 63.26744186046512,
          "velocity": 0.08661417322834646
        },
        {
          "duration": 0.6511627906976756,
          "durationTicks": 56,
          "midi": 45,
          "name": "A2",
          "ticks": 5468,
          "time": 63.58139534883721,
          "velocity": 0.25196850393700787
        },
        {
          "duration": 0.22093023255813904,
          "durationTicks": 19,
          "midi": 52,
          "name": "E3",
          "ticks": 5468,
          "time": 63.58139534883721,
          "velocity": 0.13385826771653545
        },
        {
          "duration": 0.046511627906973274,
          "durationTicks": 4,
          "midi": 69,
          "name": "A4",
          "ticks": 5468,
          "time": 63.58139534883721,
          "velocity": 0.1732283464566929
        },
        {
          "duration": 0.3720930232558146,
          "durationTicks": 32,
          "midi": 68,
          "name": "G#4",
          "ticks": 5472,
          "time": 63.627906976744185,
          "velocity": 0.1968503937007874
        },
        {
          "duration": 0.08139534883721211,
          "durationTicks": 7,
          "midi": 52,
          "name": "E3",
          "ticks": 5493,
          "time": 63.872093023255815,
          "velocity": 0.08661417322834646
        },
        {
          "duration": 0.03488372093023884,
          "durationTicks": 3,
          "midi": 53,
          "name": "F3",
          "ticks": 5526,
          "time": 64.25581395348837,
          "velocity": 0.09448818897637795
        },
        {
          "duration": 0.48837209302325846,
          "durationTicks": 42,
          "midi": 64,
          "name": "E4",
          "ticks": 5527,
          "time": 64.26744186046511,
          "velocity": 0.18110236220472442
        },
        {
          "duration": 0.48837209302325846,
          "durationTicks": 42,
          "midi": 76,
          "name": "E5",
          "ticks": 5527,
          "time": 64.26744186046511,
          "velocity": 0.1889763779527559
        },
        {
          "duration": 0.05813953488372192,
          "durationTicks": 5,
          "midi": 54,
          "name": "F#3",
          "ticks": 5530,
          "time": 64.30232558139535,
          "velocity": 0.09448818897637795
        },
        {
          "duration": 0.9651162790697612,
          "durationTicks": 83,
          "midi": 35,
          "name": "B1",
          "ticks": 5531,
          "time": 64.31395348837209,
          "velocity": 0.18110236220472442
        },
        {
          "duration": 0.27906976744186807,
          "durationTicks": 24,
          "midi": 47,
          "name": "B2",
          "ticks": 5538,
          "time": 64.3953488372093,
          "velocity": 0.2204724409448819
        },
        {
          "duration": 0.19767441860464885,
          "durationTicks": 17,
          "midi": 54,
          "name": "F#3",
          "ticks": 5562,
          "time": 64.67441860465117,
          "velocity": 0.1968503937007874
        },
        {
          "duration": 0.40697674418605345,
          "durationTicks": 35,
          "midi": 59,
          "name": "B3",
          "ticks": 5565,
          "time": 64.70930232558139,
          "velocity": 0.14173228346456693
        },
        {
          "duration": 0.09302325581396076,
          "durationTicks": 8,
          "midi": 78,
          "name": "F#5",
          "ticks": 5575,
          "time": 64.82558139534883,
          "velocity": 0.16535433070866143
        },
        {
          "duration": 0.08139534883721922,
          "durationTicks": 7,
          "midi": 66,
          "name": "F#4",
          "ticks": 5576,
          "time": 64.83720930232558,
          "velocity": 0.1968503937007874
        },
        {
          "duration": 0.034883720930224626,
          "durationTicks": 3,
          "midi": 67,
          "name": "G4",
          "ticks": 5583,
          "time": 64.9186046511628,
          "velocity": 0.2440944881889764
        },
        {
          "duration": 0.034883720930224626,
          "durationTicks": 3,
          "midi": 86,
          "name": "D6",
          "ticks": 5583,
          "time": 64.9186046511628,
          "velocity": 0.11023622047244094
        },
        {
          "duration": 0.03488372093023884,
          "durationTicks": 3,
          "midi": 53,
          "name": "F3",
          "ticks": 5586,
          "time": 64.95348837209302,
          "velocity": 0.11023622047244094
        },
        {
          "duration": 0.3953488372093119,
          "durationTicks": 34,
          "midi": 68,
          "name": "G#4",
          "ticks": 5586,
          "time": 64.95348837209302,
          "velocity": 0.2125984251968504
        },
        {
          "duration": 0.22093023255814614,
          "durationTicks": 19,
          "midi": 54,
          "name": "F#3",
          "ticks": 5590,
          "time": 65,
          "velocity": 0.11811023622047244
        },
        {
          "duration": 0.12790697674418539,
          "durationTicks": 11,
          "midi": 87,
          "name": "D#6",
          "ticks": 5591,
          "time": 65.01162790697674,
          "velocity": 0.07874015748031496
        },
        {
          "duration": 0.15116279069766847,
          "durationTicks": 13,
          "midi": 49,
          "name": "C#3",
          "ticks": 5621,
          "time": 65.36046511627907,
          "velocity": 0.2283464566929134
        },
        {
          "duration": 0.8837209302325562,
          "durationTicks": 76,
          "midi": 37,
          "name": "C#2",
          "ticks": 5622,
          "time": 65.37209302325581,
          "velocity": 0.2440944881889764
        },
        {
          "duration": 0.03488372093023884,
          "durationTicks": 3,
          "midi": 55,
          "name": "G3",
          "ticks": 5623,
          "time": 65.38372093023256,
          "velocity": 0.2047244094488189
        },
        {
          "duration": 0.7674418604651123,
          "durationTicks": 66,
          "midi": 66,
          "name": "F#4",
          "ticks": 5623,
          "time": 65.38372093023256,
          "velocity": 0.2204724409448819
        },
        {
          "duration": 0.32558139534884845,
          "durationTicks": 28,
          "midi": 85,
          "name": "C#6",
          "ticks": 5624,
          "time": 65.3953488372093,
          "velocity": 0.10236220472440945
        },
        {
          "duration": 0.15116279069766847,
          "durationTicks": 13,
          "midi": 61,
          "name": "C#4",
          "ticks": 5685,
          "time": 66.1046511627907,
          "velocity": 0.13385826771653545
        },
        {
          "duration": 0.12790697674418539,
          "durationTicks": 11,
          "midi": 73,
          "name": "C#5",
          "ticks": 5686,
          "time": 66.11627906976744,
          "velocity": 0.13385826771653545
        },
        {
          "duration": 0.06976744186047767,
          "durationTicks": 6,
          "midi": 76,
          "name": "E5",
          "ticks": 5689,
          "time": 66.15116279069767,
          "velocity": 0.07086614173228346
        },
        {
          "duration": 0.24418604651162923,
          "durationTicks": 21,
          "midi": 80,
          "name": "G#5",
          "ticks": 5690,
          "time": 66.16279069767442,
          "velocity": 0.1732283464566929
        },
        {
          "duration": 0.1860465116279073,
          "durationTicks": 16,
          "midi": 68,
          "name": "G#4",
          "ticks": 5695,
          "time": 66.22093023255815,
          "velocity": 0.2047244094488189
        },
        {
          "duration": 0.1860465116279073,
          "durationTicks": 16,
          "midi": 87,
          "name": "D#6",
          "ticks": 5696,
          "time": 66.23255813953489,
          "velocity": 0.11811023622047244
        },
        {
          "duration": 0.30232558139535115,
          "durationTicks": 26,
          "midi": 83,
          "name": "B5",
          "ticks": 5697,
          "time": 66.24418604651163,
          "velocity": 0.14173228346456693
        },
        {
          "duration": 0.2674418604651265,
          "durationTicks": 23,
          "midi": 37,
          "name": "C#2",
          "ticks": 5699,
          "time": 66.26744186046511,
          "velocity": 0.1968503937007874
        },
        {
          "duration": 0.24418604651162923,
          "durationTicks": 21,
          "midi": 73,
          "name": "C#5",
          "ticks": 5700,
          "time": 66.27906976744185,
          "velocity": 0.08661417322834646
        },
        {
          "duration": 0.43023255813953654,
          "durationTicks": 37,
          "midi": 37,
          "name": "C#2",
          "ticks": 5723,
          "time": 66.54651162790698,
          "velocity": 0.18110236220472442
        },
        {
          "duration": 0.3953488372092977,
          "durationTicks": 34,
          "midi": 61,
          "name": "C#4",
          "ticks": 5723,
          "time": 66.54651162790698,
          "velocity": 0.1968503937007874
        },
        {
          "duration": 0.40697674418603924,
          "durationTicks": 35,
          "midi": 73,
          "name": "C#5",
          "ticks": 5723,
          "time": 66.54651162790698,
          "velocity": 0.2047244094488189
        },
        {
          "duration": 0.3720930232558146,
          "durationTicks": 32,
          "midi": 56,
          "name": "G#3",
          "ticks": 5724,
          "time": 66.55813953488372,
          "velocity": 0.18110236220472442
        },
        {
          "duration": 0.3488372093023173,
          "durationTicks": 30,
          "midi": 87,
          "name": "D#6",
          "ticks": 5760,
          "time": 66.97674418604652,
          "velocity": 0.18110236220472442
        },
        {
          "duration": 0.3604651162790731,
          "durationTicks": 31,
          "midi": 63,
          "name": "D#4",
          "ticks": 5761,
          "time": 66.98837209302326,
          "velocity": 0.2125984251968504
        },
        {
          "duration": 0.38372093023255616,
          "durationTicks": 33,
          "midi": 82,
          "name": "A#5",
          "ticks": 5761,
          "time": 66.98837209302326,
          "velocity": 0.1889763779527559
        },
        {
          "duration": 0.6046511627907023,
          "durationTicks": 52,
          "midi": 37,
          "name": "C#2",
          "ticks": 5762,
          "time": 67,
          "velocity": 0.18110236220472442
        },
        {
          "duration": 0.38372093023255616,
          "durationTicks": 33,
          "midi": 56,
          "name": "G#3",
          "ticks": 5783,
          "time": 67.24418604651163,
          "velocity": 0.1889763779527559
        },
        {
          "duration": 0.25581395348837077,
          "durationTicks": 22,
          "midi": 83,
          "name": "B5",
          "ticks": 5794,
          "time": 67.37209302325581,
          "velocity": 0.2440944881889764
        },
        {
          "duration": 0.24418604651162923,
          "durationTicks": 21,
          "midi": 71,
          "name": "B4",
          "ticks": 5795,
          "time": 67.38372093023256,
          "velocity": 0.10236220472440945
        },
        {
          "duration": 0.04651162790698038,
          "durationTicks": 4,
          "midi": 55,
          "name": "G3",
          "ticks": 5818,
          "time": 67.65116279069767,
          "velocity": 0.23622047244094488
        },
        {
          "duration": 0.3720930232558146,
          "durationTicks": 32,
          "midi": 68,
          "name": "G#4",
          "ticks": 5818,
          "time": 67.65116279069767,
          "velocity": 0.2440944881889764
        },
        {
          "duration": 0.3372093023255758,
          "durationTicks": 29,
          "midi": 87,
          "name": "D#6",
          "ticks": 5820,
          "time": 67.67441860465117,
          "velocity": 0.14173228346456693
        },
        {
          "duration": 0.3604651162790731,
          "durationTicks": 31,
          "midi": 37,
          "name": "C#2",
          "ticks": 5822,
          "time": 67.69767441860465,
          "velocity": 0.1889763779527559
        },
        {
          "duration": 0.05813953488372192,
          "durationTicks": 5,
          "midi": 56,
          "name": "G#3",
          "ticks": 5822,
          "time": 67.69767441860465,
          "velocity": 0.11023622047244094
        },
        {
          "duration": 0.05813953488372192,
          "durationTicks": 5,
          "midi": 56,
          "name": "G#3",
          "ticks": 5837,
          "time": 67.87209302325581,
          "velocity": 0.07874015748031496
        },
        {
          "duration": 0.04651162790698038,
          "durationTicks": 4,
          "midi": 81,
          "name": "A5",
          "ticks": 5849,
          "time": 68.01162790697674,
          "velocity": 0.07086614173228346
        },
        {
          "duration": 0.08139534883721922,
          "durationTicks": 7,
          "midi": 69,
          "name": "A4",
          "ticks": 5850,
          "time": 68.02325581395348,
          "velocity": 0.25196850393700787
        },
        {
          "duration": 0.6860465116279073,
          "durationTicks": 59,
          "midi": 37,
          "name": "C#2",
          "ticks": 5854,
          "time": 68.06976744186046,
          "velocity": 0.15748031496062992
        },
        {
          "duration": 0.16279069767442422,
          "durationTicks": 14,
          "midi": 87,
          "name": "D#6",
          "ticks": 5856,
          "time": 68.09302325581395,
          "velocity": 0.13385826771653545
        },
        {
          "duration": 0.13953488372092693,
          "durationTicks": 12,
          "midi": 68,
          "name": "G#4",
          "ticks": 5860,
          "time": 68.13953488372093,
          "velocity": 0.2125984251968504
        },
        {
          "duration": 0.09302325581396076,
          "durationTicks": 8,
          "midi": 88,
          "name": "E6",
          "ticks": 5870,
          "time": 68.25581395348837,
          "velocity": 0.07874015748031496
        },
        {
          "duration": 0.15116279069768268,
          "durationTicks": 13,
          "midi": 68,
          "name": "G#4",
          "ticks": 5876,
          "time": 68.32558139534883,
          "velocity": 0.2125984251968504
        },
        {
          "duration": 0.03488372093023884,
          "durationTicks": 3,
          "midi": 55,
          "name": "G3",
          "ticks": 5877,
          "time": 68.33720930232558,
          "velocity": 0.2047244094488189
        },
        {
          "duration": 0.081395348837205,
          "durationTicks": 7,
          "midi": 87,
          "name": "D#6",
          "ticks": 5880,
          "time": 68.37209302325581,
          "velocity": 0.08661417322834646
        },
        {
          "duration": 0.22093023255813193,
          "durationTicks": 19,
          "midi": 56,
          "name": "G#3",
          "ticks": 5883,
          "time": 68.40697674418605,
          "velocity": 0.18110236220472442
        },
        {
          "duration": 0.25581395348837077,
          "durationTicks": 22,
          "midi": 80,
          "name": "G#5",
          "ticks": 5913,
          "time": 68.75581395348837,
          "velocity": 0.14173228346456693
        },
        {
          "duration": 0.2906976744186096,
          "durationTicks": 25,
          "midi": 68,
          "name": "G#4",
          "ticks": 5914,
          "time": 68.76744186046511,
          "velocity": 0.2204724409448819
        },
        {
          "duration": 0.2906976744186096,
          "durationTicks": 25,
          "midi": 87,
          "name": "D#6",
          "ticks": 5914,
          "time": 68.76744186046511,
          "velocity": 0.15748031496062992
        },
        {
          "duration": 0.1046511627907023,
          "durationTicks": 9,
          "midi": 49,
          "name": "C#3",
          "ticks": 5919,
          "time": 68.82558139534883,
          "velocity": 0.18110236220472442
        },
        {
          "duration": 0.24418604651161502,
          "durationTicks": 21,
          "midi": 37,
          "name": "C#2",
          "ticks": 5921,
          "time": 68.84883720930233,
          "velocity": 0.2125984251968504
        },
        {
          "duration": 0.15116279069766847,
          "durationTicks": 13,
          "midi": 56,
          "name": "G#3",
          "ticks": 5922,
          "time": 68.86046511627907,
          "velocity": 0.18110236220472442
        },
        {
          "duration": 0.03488372093023884,
          "durationTicks": 3,
          "midi": 55,
          "name": "G3",
          "ticks": 5935,
          "time": 69.01162790697674,
          "velocity": 0.14173228346456693
        },
        {
          "duration": 0.03488372093023884,
          "durationTicks": 3,
          "midi": 55,
          "name": "G3",
          "ticks": 5940,
          "time": 69.06976744186046,
          "velocity": 0.12598425196850394
        },
        {
          "duration": 0.1860465116279073,
          "durationTicks": 16,
          "midi": 37,
          "name": "C#2",
          "ticks": 5944,
          "time": 69.11627906976744,
          "velocity": 0.16535433070866143
        },
        {
          "duration": 0.05813953488372192,
          "durationTicks": 5,
          "midi": 37,
          "name": "C#2",
          "ticks": 5962,
          "time": 69.32558139534883,
          "velocity": 0.2047244094488189
        },
        {
          "duration": 0.24418604651162923,
          "durationTicks": 21,
          "midi": 69,
          "name": "A4",
          "ticks": 5963,
          "time": 69.33720930232558,
          "velocity": 0.25196850393700787
        },
        {
          "duration": 0.19767441860464885,
          "durationTicks": 17,
          "midi": 88,
          "name": "E6",
          "ticks": 5964,
          "time": 69.34883720930233,
          "velocity": 0.11811023622047244
        },
        {
          "duration": 0.03488372093023884,
          "durationTicks": 3,
          "midi": 55,
          "name": "G3",
          "ticks": 5967,
          "time": 69.38372093023256,
          "velocity": 0.2283464566929134
        },
        {
          "duration": 0.2906976744185954,
          "durationTicks": 25,
          "midi": 37,
          "name": "C#2",
          "ticks": 5969,
          "time": 69.40697674418605,
          "velocity": 0.1968503937007874
        },
        {
          "duration": 0.06976744186046346,
          "durationTicks": 6,
          "midi": 56,
          "name": "G#3",
          "ticks": 5978,
          "time": 69.51162790697674,
          "velocity": 0.08661417322834646
        },
        {
          "duration": 0.06976744186046346,
          "durationTicks": 6,
          "midi": 36,
          "name": "C2",
          "ticks": 5994,
          "time": 69.69767441860465,
          "velocity": 0.16535433070866143
        },
        {
          "duration": 0.023255813953483084,
          "durationTicks": 2,
          "midi": 41,
          "name": "F2",
          "ticks": 6014,
          "time": 69.93023255813954,
          "velocity": 0.2755905511811024
        },
        {
          "duration": 0.034883720930224626,
          "durationTicks": 3,
          "midi": 69,
          "name": "A4",
          "ticks": 6014,
          "time": 69.93023255813954,
          "velocity": 0.2440944881889764
        },
        {
          "duration": 0.034883720930224626,
          "durationTicks": 3,
          "midi": 88,
          "name": "E6",
          "ticks": 6014,
          "time": 69.93023255813954,
          "velocity": 0.13385826771653545
        },
        {
          "duration": 0.48837209302325846,
          "durationTicks": 42,
          "midi": 42,
          "name": "F#2",
          "ticks": 6016,
          "time": 69.95348837209302,
          "velocity": 0.28346456692913385
        },
        {
          "duration": 0.03488372093023884,
          "durationTicks": 3,
          "midi": 70,
          "name": "A#4",
          "ticks": 6017,
          "time": 69.96511627906976,
          "velocity": 0.25984251968503935
        },
        {
          "duration": 0.03488372093023884,
          "durationTicks": 3,
          "midi": 89,
          "name": "F6",
          "ticks": 6017,
          "time": 69.96511627906976,
          "velocity": 0.09448818897637795
        },
        {
          "duration": 0.6627906976744242,
          "durationTicks": 57,
          "midi": 71,
          "name": "B4",
          "ticks": 6020,
          "time": 70,
          "velocity": 0.23622047244094488
        },
        {
          "duration": 0.05813953488372192,
          "durationTicks": 5,
          "midi": 90,
          "name": "F#6",
          "ticks": 6021,
          "time": 70.01162790697674,
          "velocity": 0.07874015748031496
        },
        {
          "duration": 0.10465116279068809,
          "durationTicks": 9,
          "midi": 61,
          "name": "C#4",
          "ticks": 6040,
          "time": 70.23255813953489,
          "velocity": 0.07086614173228346
        },
        {
          "duration": 0.27906976744186807,
          "durationTicks": 24,
          "midi": 42,
          "name": "F#2",
          "ticks": 6059,
          "time": 70.45348837209302,
          "velocity": 0.2440944881889764
        },
        {
          "duration": 0.081395348837205,
          "durationTicks": 7,
          "midi": 69,
          "name": "A4",
          "ticks": 6061,
          "time": 70.47674418604652,
          "velocity": 0.08661417322834646
        },
        {
          "duration": 0.081395348837205,
          "durationTicks": 7,
          "midi": 82,
          "name": "A#5",
          "ticks": 6084,
          "time": 70.74418604651163,
          "velocity": 0.08661417322834646
        },
        {
          "duration": 0.4418604651162781,
          "durationTicks": 38,
          "midi": 42,
          "name": "F#2",
          "ticks": 6085,
          "time": 70.75581395348837,
          "velocity": 0.25196850393700787
        },
        {
          "duration": 0.25581395348837077,
          "durationTicks": 22,
          "midi": 73,
          "name": "C#5",
          "ticks": 6092,
          "time": 70.83720930232558,
          "velocity": 0.23622047244094488
        },
        {
          "duration": 0.13953488372094114,
          "durationTicks": 12,
          "midi": 54,
          "name": "F#3",
          "ticks": 6119,
          "time": 71.15116279069767,
          "velocity": 0.2755905511811024
        },
        {
          "duration": 0.38372093023255616,
          "durationTicks": 33,
          "midi": 64,
          "name": "E4",
          "ticks": 6121,
          "time": 71.17441860465117,
          "velocity": 0.2047244094488189
        },
        {
          "duration": 0.2093023255813904,
          "durationTicks": 18,
          "midi": 73,
          "name": "C#5",
          "ticks": 6121,
          "time": 71.17441860465117,
          "velocity": 0.11811023622047244
        },
        {
          "duration": 0.3604651162790731,
          "durationTicks": 31,
          "midi": 83,
          "name": "B5",
          "ticks": 6121,
          "time": 71.17441860465117,
          "velocity": 0.18110236220472442
        },
        {
          "duration": 1.0697674418604635,
          "durationTicks": 92,
          "midi": 42,
          "name": "F#2",
          "ticks": 6124,
          "time": 71.20930232558139,
          "velocity": 0.2204724409448819
        },
        {
          "duration": 0.19767441860464885,
          "durationTicks": 17,
          "midi": 57,
          "name": "A3",
          "ticks": 6144,
          "time": 71.44186046511628,
          "velocity": 0.10236220472440945
        },
        {
          "duration": 0.04651162790696617,
          "durationTicks": 4,
          "midi": 61,
          "name": "C#4",
          "ticks": 6153,
          "time": 71.54651162790698,
          "velocity": 0.07086614173228346
        },
        {
          "duration": 0.034883720930224626,
          "durationTicks": 3,
          "midi": 53,
          "name": "F3",
          "ticks": 6158,
          "time": 71.6046511627907,
          "velocity": 0.08661417322834646
        },
        {
          "duration": 0.38372093023255616,
          "durationTicks": 33,
          "midi": 66,
          "name": "F#4",
          "ticks": 6158,
          "time": 71.6046511627907,
          "velocity": 0.25196850393700787
        },
        {
          "duration": 0.3720930232558146,
          "durationTicks": 32,
          "midi": 85,
          "name": "C#6",
          "ticks": 6158,
          "time": 71.6046511627907,
          "velocity": 0.2125984251968504
        },
        {
          "duration": 0.45348837209303383,
          "durationTicks": 39,
          "midi": 61,
          "name": "C#4",
          "ticks": 6162,
          "time": 71.65116279069767,
          "velocity": 0.11811023622047244
        },
        {
          "duration": 0.22093023255814614,
          "durationTicks": 19,
          "midi": 68,
          "name": "G#4",
          "ticks": 6194,
          "time": 72.02325581395348,
          "velocity": 0.1889763779527559
        },
        {
          "duration": 0.2093023255814046,
          "durationTicks": 18,
          "midi": 87,
          "name": "D#6",
          "ticks": 6194,
          "time": 72.02325581395348,
          "velocity": 0.16535433070866143
        },
        {
          "duration": 0.22093023255814614,
          "durationTicks": 19,
          "midi": 66,
          "name": "F#4",
          "ticks": 6205,
          "time": 72.15116279069767,
          "velocity": 0.13385826771653545
        },
        {
          "duration": 0.05813953488372192,
          "durationTicks": 5,
          "midi": 69,
          "name": "A4",
          "ticks": 6213,
          "time": 72.24418604651163,
          "velocity": 0.15748031496062992
        },
        {
          "duration": 0.03488372093023884,
          "durationTicks": 3,
          "midi": 43,
          "name": "G2",
          "ticks": 6216,
          "time": 72.27906976744185,
          "velocity": 0.25196850393700787
        },
        {
          "duration": 0.05813953488372192,
          "durationTicks": 5,
          "midi": 88,
          "name": "E6",
          "ticks": 6218,
          "time": 72.30232558139535,
          "velocity": 0.11023622047244094
        },
        {
          "duration": 0.17441860465116577,
          "durationTicks": 15,
          "midi": 44,
          "name": "G#2",
          "ticks": 6219,
          "time": 72.31395348837209,
          "velocity": 0.3228346456692913
        },
        {
          "duration": 0.06976744186046346,
          "durationTicks": 6,
          "midi": 69,
          "name": "A4",
          "ticks": 6219,
          "time": 72.31395348837209,
          "velocity": 0.2204724409448819
        },
        {
          "duration": 0.5697674418604635,
          "durationTicks": 49,
          "midi": 71,
          "name": "B4",
          "ticks": 6227,
          "time": 72.40697674418605,
          "velocity": 0.2204724409448819
        },
        {
          "duration": 0.24418604651162923,
          "durationTicks": 21,
          "midi": 90,
          "name": "F#6",
          "ticks": 6228,
          "time": 72.4186046511628,
          "velocity": 0.07874015748031496
        },
        {
          "duration": 0.11627906976742963,
          "durationTicks": 10,
          "midi": 51,
          "name": "D#3",
          "ticks": 6233,
          "time": 72.47674418604652,
          "velocity": 0.13385826771653545
        },
        {
          "duration": 0.16279069767442422,
          "durationTicks": 14,
          "midi": 44,
          "name": "G#2",
          "ticks": 6241,
          "time": 72.56976744186046,
          "velocity": 0.15748031496062992
        },
        {
          "duration": 0.05813953488372192,
          "durationTicks": 5,
          "midi": 68,
          "name": "G#4",
          "ticks": 6243,
          "time": 72.59302325581395,
          "velocity": 0.10236220472440945
        },
        {
          "duration": 0.22093023255813193,
          "durationTicks": 19,
          "midi": 68,
          "name": "G#4",
          "ticks": 6255,
          "time": 72.73255813953489,
          "velocity": 0.14960629921259844
        },
        {
          "duration": 0.1046511627907023,
          "durationTicks": 9,
          "midi": 44,
          "name": "G#2",
          "ticks": 6257,
          "time": 72.75581395348837,
          "velocity": 0.08661417322834646
        },
        {
          "duration": 0.25581395348837077,
          "durationTicks": 22,
          "midi": 63,
          "name": "D#4",
          "ticks": 6257,
          "time": 72.75581395348837,
          "velocity": 0.07874015748031496
        },
        {
          "duration": 0.19767441860464885,
          "durationTicks": 17,
          "midi": 59,
          "name": "B3",
          "ticks": 6265,
          "time": 72.84883720930233,
          "velocity": 0.11023622047244094
        },
        {
          "duration": 0.04651162790698038,
          "durationTicks": 4,
          "midi": 51,
          "name": "D#3",
          "ticks": 6266,
          "time": 72.86046511627907,
          "velocity": 0.10236220472440945
        },
        {
          "duration": 0.034883720930224626,
          "durationTicks": 3,
          "midi": 51,
          "name": "D#3",
          "ticks": 6271,
          "time": 72.9186046511628,
          "velocity": 0.09448818897637795
        },
        {
          "duration": 0.11627906976742963,
          "durationTicks": 10,
          "midi": 56,
          "name": "G#3",
          "ticks": 6281,
          "time": 73.03488372093024,
          "velocity": 0.1732283464566929
        },
        {
          "duration": 0.27906976744186807,
          "durationTicks": 24,
          "midi": 63,
          "name": "D#4",
          "ticks": 6290,
          "time": 73.13953488372093,
          "velocity": 0.07874015748031496
        },
        {
          "duration": 0.03488372093023884,
          "durationTicks": 3,
          "midi": 55,
          "name": "G3",
          "ticks": 6291,
          "time": 73.15116279069767,
          "velocity": 0.2047244094488189
        },
        {
          "duration": 0.27906976744185386,
          "durationTicks": 24,
          "midi": 73,
          "name": "C#5",
          "ticks": 6292,
          "time": 73.16279069767442,
          "velocity": 0.2283464566929134
        },
        {
          "duration": 0.3372093023255758,
          "durationTicks": 29,
          "midi": 75,
          "name": "D#5",
          "ticks": 6292,
          "time": 73.16279069767442,
          "velocity": 0.18110236220472442
        },
        {
          "duration": 0.1860465116279073,
          "durationTicks": 16,
          "midi": 56,
          "name": "G#3",
          "ticks": 6294,
          "time": 73.18604651162791,
          "velocity": 0.1732283464566929
        },
        {
          "duration": 0.03488372093023884,
          "durationTicks": 3,
          "midi": 51,
          "name": "D#3",
          "ticks": 6296,
          "time": 73.20930232558139,
          "velocity": 0.07874015748031496
        },
        {
          "duration": 0.034883720930224626,
          "durationTicks": 3,
          "midi": 44,
          "name": "G#2",
          "ticks": 6315,
          "time": 73.43023255813954,
          "velocity": 0.13385826771653545
        },
        {
          "duration": 0.03488372093023884,
          "durationTicks": 3,
          "midi": 73,
          "name": "C#5",
          "ticks": 6318,
          "time": 73.46511627906976,
          "velocity": 0.1889763779527559
        },
        {
          "duration": 0.3488372093023173,
          "durationTicks": 30,
          "midi": 44,
          "name": "G#2",
          "ticks": 6320,
          "time": 73.48837209302326,
          "velocity": 0.1732283464566929
        },
        {
          "duration": 0.03488372093023884,
          "durationTicks": 3,
          "midi": 74,
          "name": "D5",
          "ticks": 6321,
          "time": 73.5,
          "velocity": 0.2125984251968504
        },
        {
          "duration": 0.8837209302325562,
          "durationTicks": 76,
          "midi": 75,
          "name": "D#5",
          "ticks": 6324,
          "time": 73.53488372093024,
          "velocity": 0.2755905511811024
        },
        {
          "duration": 0.11627906976744384,
          "durationTicks": 10,
          "midi": 51,
          "name": "D#3",
          "ticks": 6376,
          "time": 74.13953488372093,
          "velocity": 0.11811023622047244
        },
        {
          "duration": 0.05813953488370771,
          "durationTicks": 5,
          "midi": 56,
          "name": "G#3",
          "ticks": 6383,
          "time": 74.22093023255815,
          "velocity": 0.09448818897637795
        },
        {
          "duration": 0.27906976744186807,
          "durationTicks": 24,
          "midi": 71,
          "name": "B4",
          "ticks": 6386,
          "time": 74.25581395348837,
          "velocity": 0.2283464566929134
        },
        {
          "duration": 0.24418604651162923,
          "durationTicks": 21,
          "midi": 90,
          "name": "F#6",
          "ticks": 6387,
          "time": 74.26744186046511,
          "velocity": 0.12598425196850394
        },
        {
          "duration": 0.04651162790698038,
          "durationTicks": 4,
          "midi": 56,
          "name": "G#3",
          "ticks": 6391,
          "time": 74.31395348837209,
          "velocity": 0.10236220472440945
        },
        {
          "duration": 0.15116279069768268,
          "durationTicks": 13,
          "midi": 57,
          "name": "A3",
          "ticks": 6398,
          "time": 74.3953488372093,
          "velocity": 0.1732283464566929
        },
        {
          "duration": 0.034883720930224626,
          "durationTicks": 3,
          "midi": 69,
          "name": "A4",
          "ticks": 6411,
          "time": 74.54651162790698,
          "velocity": 0.23622047244094488
        },
        {
          "duration": 0.13953488372092693,
          "durationTicks": 12,
          "midi": 57,
          "name": "A3",
          "ticks": 6412,
          "time": 74.55813953488372,
          "velocity": 0.14173228346456693
        },
        {
          "duration": 0.5116279069767415,
          "durationTicks": 44,
          "midi": 80,
          "name": "G#5",
          "ticks": 6412,
          "time": 74.55813953488372,
          "velocity": 0.14173228346456693
        },
        {
          "duration": 0.6395348837209269,
          "durationTicks": 55,
          "midi": 87,
          "name": "D#6",
          "ticks": 6412,
          "time": 74.55813953488372,
          "velocity": 0.1968503937007874
        },
        {
          "duration": 0.7325581395348877,
          "durationTicks": 63,
          "midi": 45,
          "name": "A2",
          "ticks": 6413,
          "time": 74.56976744186046,
          "velocity": 0.28346456692913385
        },
        {
          "duration": 0.8953488372093119,
          "durationTicks": 77,
          "midi": 68,
          "name": "G#4",
          "ticks": 6414,
          "time": 74.5813953488372,
          "velocity": 0.25984251968503935
        },
        {
          "duration": 0.081395348837205,
          "durationTicks": 7,
          "midi": 33,
          "name": "A1",
          "ticks": 6416,
          "time": 74.6046511627907,
          "velocity": 0.11023622047244094
        },
        {
          "duration": 0.13953488372092693,
          "durationTicks": 12,
          "midi": 52,
          "name": "E3",
          "ticks": 6426,
          "time": 74.72093023255815,
          "velocity": 0.1732283464566929
        },
        {
          "duration": 0.04651162790696617,
          "durationTicks": 4,
          "midi": 33,
          "name": "A1",
          "ticks": 6427,
          "time": 74.73255813953489,
          "velocity": 0.07874015748031496
        },
        {
          "duration": 0.03488372093023884,
          "durationTicks": 3,
          "midi": 56,
          "name": "G#3",
          "ticks": 6436,
          "time": 74.83720930232558,
          "velocity": 0.10236220472440945
        },
        {
          "duration": 0.1046511627907023,
          "durationTicks": 9,
          "midi": 52,
          "name": "E3",
          "ticks": 6439,
          "time": 74.87209302325581,
          "velocity": 0.2047244094488189
        },
        {
          "duration": 0.03488372093023884,
          "durationTicks": 3,
          "midi": 32,
          "name": "G#1",
          "ticks": 6440,
          "time": 74.88372093023256,
          "velocity": 0.07086614173228346
        },
        {
          "duration": 0.22093023255813193,
          "durationTicks": 19,
          "midi": 52,
          "name": "E3",
          "ticks": 6454,
          "time": 75.04651162790698,
          "velocity": 0.11811023622047244
        },
        {
          "duration": 0.3953488372092977,
          "durationTicks": 34,
          "midi": 45,
          "name": "A2",
          "ticks": 6477,
          "time": 75.31395348837209,
          "velocity": 0.1968503937007874
        },
        {
          "duration": 0.9651162790697612,
          "durationTicks": 83,
          "midi": 68,
          "name": "G#4",
          "ticks": 6493,
          "time": 75.5,
          "velocity": 0.2440944881889764
        },
        {
          "duration": 0.034883720930224626,
          "durationTicks": 3,
          "midi": 45,
          "name": "A2",
          "ticks": 6512,
          "time": 75.72093023255815,
          "velocity": 0.13385826771653545
        },
        {
          "duration": 0.23255813953487348,
          "durationTicks": 20,
          "midi": 57,
          "name": "A3",
          "ticks": 6512,
          "time": 75.72093023255815,
          "velocity": 0.2283464566929134
        },
        {
          "duration": 0.3720930232558146,
          "durationTicks": 32,
          "midi": 45,
          "name": "A2",
          "ticks": 6516,
          "time": 75.76744186046511,
          "velocity": 0.1968503937007874
        },
        {
          "duration": 0.08139534883721922,
          "durationTicks": 7,
          "midi": 57,
          "name": "A3",
          "ticks": 6549,
          "time": 76.15116279069767,
          "velocity": 0.11811023622047244
        },
        {
          "duration": 0.5930232558139465,
          "durationTicks": 51,
          "midi": 45,
          "name": "A2",
          "ticks": 6550,
          "time": 76.16279069767442,
          "velocity": 0.2204724409448819
        },
        {
          "duration": 0.03488372093023884,
          "durationTicks": 3,
          "midi": 52,
          "name": "E3",
          "ticks": 6574,
          "time": 76.44186046511628,
          "velocity": 0.12598425196850394
        },
        {
          "duration": 0.034883720930224626,
          "durationTicks": 3,
          "midi": 52,
          "name": "E3",
          "ticks": 6578,
          "time": 76.48837209302326,
          "velocity": 0.10236220472440945
        },
        {
          "duration": 0.15116279069768268,
          "durationTicks": 13,
          "midi": 69,
          "name": "A4",
          "ticks": 6585,
          "time": 76.56976744186046,
          "velocity": 0.25196850393700787
        },
        {
          "duration": 0.11627906976744384,
          "durationTicks": 10,
          "midi": 88,
          "name": "E6",
          "ticks": 6587,
          "time": 76.59302325581395,
          "velocity": 0.13385826771653545
        },
        {
          "duration": 0.06976744186046346,
          "durationTicks": 6,
          "midi": 68,
          "name": "G#4",
          "ticks": 6600,
          "time": 76.74418604651163,
          "velocity": 0.16535433070866143
        },
        {
          "duration": 0.06976744186046346,
          "durationTicks": 6,
          "midi": 87,
          "name": "D#6",
          "ticks": 6601,
          "time": 76.75581395348837,
          "velocity": 0.13385826771653545
        },
        {
          "duration": 0.023255813953483084,
          "durationTicks": 2,
          "midi": 46,
          "name": "A#2",
          "ticks": 6609,
          "time": 76.84883720930233,
          "velocity": 0.25196850393700787
        },
        {
          "duration": 0.15116279069766847,
          "durationTicks": 13,
          "midi": 54,
          "name": "F#3",
          "ticks": 6609,
          "time": 76.84883720930233,
          "velocity": 0.2047244094488189
        },
        {
          "duration": 0.04651162790698038,
          "durationTicks": 4,
          "midi": 87,
          "name": "D#6",
          "ticks": 6610,
          "time": 76.86046511627907,
          "velocity": 0.07086614173228346
        },
        {
          "duration": 0.3953488372092977,
          "durationTicks": 34,
          "midi": 85,
          "name": "C#6",
          "ticks": 6611,
          "time": 76.87209302325581,
          "velocity": 0.1889763779527559
        },
        {
          "duration": 0.2674418604651123,
          "durationTicks": 23,
          "midi": 59,
          "name": "B3",
          "ticks": 6612,
          "time": 76.88372093023256,
          "velocity": 0.11811023622047244
        },
        {
          "duration": 1.2325581395348877,
          "durationTicks": 106,
          "midi": 66,
          "name": "F#4",
          "ticks": 6612,
          "time": 76.88372093023256,
          "velocity": 0.2440944881889764
        },
        {
          "duration": 0.03488372093023884,
          "durationTicks": 3,
          "midi": 47,
          "name": "B2",
          "ticks": 6613,
          "time": 76.8953488372093,
          "velocity": 0.2440944881889764
        },
        {
          "duration": 0.034883720930224626,
          "durationTicks": 3,
          "midi": 36,
          "name": "C2",
          "ticks": 6614,
          "time": 76.90697674418605,
          "velocity": 0.1732283464566929
        },
        {
          "duration": 0.03488372093023884,
          "durationTicks": 3,
          "midi": 35,
          "name": "B1",
          "ticks": 6617,
          "time": 76.94186046511628,
          "velocity": 0.15748031496062992
        },
        {
          "duration": 0.03488372093023884,
          "durationTicks": 3,
          "midi": 47,
          "name": "B2",
          "ticks": 6618,
          "time": 76.95348837209302,
          "velocity": 0.1968503937007874
        },
        {
          "duration": 0.04651162790698038,
          "durationTicks": 4,
          "midi": 35,
          "name": "B1",
          "ticks": 6622,
          "time": 77,
          "velocity": 0.14960629921259844
        },
        {
          "duration": 0.04651162790698038,
          "durationTicks": 4,
          "midi": 47,
          "name": "B2",
          "ticks": 6622,
          "time": 77,
          "velocity": 0.1889763779527559
        },
        {
          "duration": 0.04651162790698038,
          "durationTicks": 4,
          "midi": 35,
          "name": "B1",
          "ticks": 6627,
          "time": 77.05813953488372,
          "velocity": 0.14960629921259844
        },
        {
          "duration": 0.05813953488372192,
          "durationTicks": 5,
          "midi": 35,
          "name": "B1",
          "ticks": 6632,
          "time": 77.11627906976744,
          "velocity": 0.16535433070866143
        },
        {
          "duration": 0.05813953488372192,
          "durationTicks": 5,
          "midi": 47,
          "name": "B2",
          "ticks": 6633,
          "time": 77.12790697674419,
          "velocity": 0.18110236220472442
        },
        {
          "duration": 0.3604651162790731,
          "durationTicks": 31,
          "midi": 54,
          "name": "F#3",
          "ticks": 6634,
          "time": 77.13953488372093,
          "velocity": 0.28346456692913385
        },
        {
          "duration": 0.03488372093023884,
          "durationTicks": 3,
          "midi": 35,
          "name": "B1",
          "ticks": 6639,
          "time": 77.19767441860465,
          "velocity": 0.11811023622047244
        },
        {
          "duration": 0.081395348837205,
          "durationTicks": 7,
          "midi": 47,
          "name": "B2",
          "ticks": 6639,
          "time": 77.19767441860465,
          "velocity": 0.16535433070866143
        },
        {
          "duration": 0.5930232558139465,
          "durationTicks": 51,
          "midi": 35,
          "name": "B1",
          "ticks": 6643,
          "time": 77.24418604651163,
          "velocity": 0.16535433070866143
        },
        {
          "duration": 0.24418604651162923,
          "durationTicks": 21,
          "midi": 47,
          "name": "B2",
          "ticks": 6648,
          "time": 77.30232558139535,
          "velocity": 0.1732283464566929
        },
        {
          "duration": 0.04651162790698038,
          "durationTicks": 4,
          "midi": 85,
          "name": "C#6",
          "ticks": 6648,
          "time": 77.30232558139535,
          "velocity": 0.08661417322834646
        },
        {
          "duration": 0.12790697674418539,
          "durationTicks": 11,
          "midi": 54,
          "name": "F#3",
          "ticks": 6670,
          "time": 77.55813953488372,
          "velocity": 0.1889763779527559
        },
        {
          "duration": 0.2674418604651123,
          "durationTicks": 23,
          "midi": 59,
          "name": "B3",
          "ticks": 6682,
          "time": 77.69767441860465,
          "velocity": 0.08661417322834646
        },
        {
          "duration": 0.03488372093023884,
          "durationTicks": 3,
          "midi": 36,
          "name": "C2",
          "ticks": 6699,
          "time": 77.8953488372093,
          "velocity": 0.11023622047244094
        },
        {
          "duration": 0.05813953488372192,
          "durationTicks": 5,
          "midi": 47,
          "name": "B2",
          "ticks": 6704,
          "time": 77.95348837209302,
          "velocity": 0.1889763779527559
        },
        {
          "duration": 0.034883720930224626,
          "durationTicks": 3,
          "midi": 53,
          "name": "F3",
          "ticks": 6707,
          "time": 77.98837209302326,
          "velocity": 0.15748031496062992
        },
        {
          "duration": 0.09302325581394655,
          "durationTicks": 8,
          "midi": 35,
          "name": "B1",
          "ticks": 6711,
          "time": 78.03488372093024,
          "velocity": 0.14173228346456693
        },
        {
          "duration": 0.034883720930224626,
          "durationTicks": 3,
          "midi": 47,
          "name": "B2",
          "ticks": 6711,
          "time": 78.03488372093024,
          "velocity": 0.1889763779527559
        },
        {
          "duration": 0.15116279069768268,
          "durationTicks": 13,
          "midi": 47,
          "name": "B2",
          "ticks": 6716,
          "time": 78.09302325581395,
          "velocity": 0.2204724409448819
        },
        {
          "duration": 0.05813953488372192,
          "durationTicks": 5,
          "midi": 35,
          "name": "B1",
          "ticks": 6720,
          "time": 78.13953488372093,
          "velocity": 0.12598425196850394
        },
        {
          "duration": 0.4418604651162781,
          "durationTicks": 38,
          "midi": 66,
          "name": "F#4",
          "ticks": 6724,
          "time": 78.18604651162791,
          "velocity": 0.14960629921259844
        },
        {
          "duration": 0.23255813953487348,
          "durationTicks": 20,
          "midi": 54,
          "name": "F#3",
          "ticks": 6755,
          "time": 78.54651162790698,
          "velocity": 0.30708661417322836
        },
        {
          "duration": 0.17441860465116577,
          "durationTicks": 15,
          "midi": 73,
          "name": "C#5",
          "ticks": 6801,
          "time": 79.0813953488372,
          "velocity": 0.1889763779527559
        },
        {
          "duration": 0.15116279069768268,
          "durationTicks": 13,
          "midi": 85,
          "name": "C#6",
          "ticks": 6802,
          "time": 79.09302325581395,
          "velocity": 0.1968503937007874
        },
        {
          "duration": 0.12790697674418539,
          "durationTicks": 11,
          "midi": 61,
          "name": "C#4",
          "ticks": 6803,
          "time": 79.1046511627907,
          "velocity": 0.2047244094488189
        },
        {
          "duration": 0.05813953488372192,
          "durationTicks": 5,
          "midi": 89,
          "name": "F6",
          "ticks": 6804,
          "time": 79.11627906976744,
          "velocity": 0.07874015748031496
        },
        {
          "duration": 0.9767441860465027,
          "durationTicks": 84,
          "midi": 45,
          "name": "A2",
          "ticks": 6808,
          "time": 79.16279069767442,
          "velocity": 0.1968503937007874
        },
        {
          "duration": 0.17441860465116577,
          "durationTicks": 15,
          "midi": 76,
          "name": "E5",
          "ticks": 6816,
          "time": 79.25581395348837,
          "velocity": 0.25984251968503935
        },
        {
          "duration": 0.13953488372094114,
          "durationTicks": 12,
          "midi": 64,
          "name": "E4",
          "ticks": 6817,
          "time": 79.26744186046511,
          "velocity": 0.2047244094488189
        },
        {
          "duration": 0.081395348837205,
          "durationTicks": 7,
          "midi": 75,
          "name": "D#5",
          "ticks": 6830,
          "time": 79.4186046511628,
          "velocity": 0.1889763779527559
        },
        {
          "duration": 0.05813953488372192,
          "durationTicks": 5,
          "midi": 63,
          "name": "D#4",
          "ticks": 6831,
          "time": 79.43023255813954,
          "velocity": 0.2047244094488189
        },
        {
          "duration": 0.06976744186046346,
          "durationTicks": 6,
          "midi": 82,
          "name": "A#5",
          "ticks": 6831,
          "time": 79.43023255813954,
          "velocity": 0.07086614173228346
        },
        {
          "duration": 0.06976744186046346,
          "durationTicks": 6,
          "midi": 64,
          "name": "E4",
          "ticks": 6836,
          "time": 79.48837209302326,
          "velocity": 0.25196850393700787
        },
        {
          "duration": 0.1860465116279073,
          "durationTicks": 16,
          "midi": 83,
          "name": "B5",
          "ticks": 6837,
          "time": 79.5,
          "velocity": 0.10236220472440945
        },
        {
          "duration": 0.15116279069768268,
          "durationTicks": 13,
          "midi": 64,
          "name": "E4",
          "ticks": 6843,
          "time": 79.56976744186046,
          "velocity": 0.2755905511811024
        },
        {
          "duration": 0.3720930232558146,
          "durationTicks": 32,
          "midi": 61,
          "name": "C#4",
          "ticks": 6857,
          "time": 79.73255813953489,
          "velocity": 0.18110236220472442
        },
        {
          "duration": 0.3720930232558146,
          "durationTicks": 32,
          "midi": 85,
          "name": "C#6",
          "ticks": 6857,
          "time": 79.73255813953489,
          "velocity": 0.2047244094488189
        },
        {
          "duration": 0.2674418604651123,
          "durationTicks": 23,
          "midi": 73,
          "name": "C#5",
          "ticks": 6891,
          "time": 80.12790697674419,
          "velocity": 0.2047244094488189
        },
        {
          "duration": 0.2674418604651265,
          "durationTicks": 23,
          "midi": 61,
          "name": "C#4",
          "ticks": 6892,
          "time": 80.13953488372093,
          "velocity": 0.1889763779527559
        },
        {
          "duration": 0.11627906976742963,
          "durationTicks": 10,
          "midi": 75,
          "name": "D#5",
          "ticks": 6915,
          "time": 80.40697674418605,
          "velocity": 0.2204724409448819
        },
        {
          "duration": 0.10465116279068809,
          "durationTicks": 9,
          "midi": 63,
          "name": "D#4",
          "ticks": 6916,
          "time": 80.4186046511628,
          "velocity": 0.1732283464566929
        },
        {
          "duration": 0.10465116279068809,
          "durationTicks": 9,
          "midi": 82,
          "name": "A#5",
          "ticks": 6916,
          "time": 80.4186046511628,
          "velocity": 0.11023622047244094
        },
        {
          "duration": 0.06976744186046346,
          "durationTicks": 6,
          "midi": 64,
          "name": "E4",
          "ticks": 6934,
          "time": 80.62790697674419,
          "velocity": 0.10236220472440945
        },
        {
          "duration": 0.15116279069766847,
          "durationTicks": 13,
          "midi": 83,
          "name": "B5",
          "ticks": 6938,
          "time": 80.67441860465117,
          "velocity": 0.25196850393700787
        },
        {
          "duration": 0.12790697674418539,
          "durationTicks": 11,
          "midi": 71,
          "name": "B4",
          "ticks": 6940,
          "time": 80.69767441860465,
          "velocity": 0.14173228346456693
        },
        {
          "duration": 0.66279069767441,
          "durationTicks": 57,
          "midi": 80,
          "name": "G#5",
          "ticks": 6953,
          "time": 80.84883720930233,
          "velocity": 0.2677165354330709
        },
        {
          "duration": 0.6279069767441854,
          "durationTicks": 54,
          "midi": 68,
          "name": "G#4",
          "ticks": 6954,
          "time": 80.86046511627907,
          "velocity": 0.18110236220472442
        },
        {
          "duration": 0.04651162790698038,
          "durationTicks": 4,
          "midi": 85,
          "name": "C#6",
          "ticks": 7008,
          "time": 81.48837209302326,
          "velocity": 0.07874015748031496
        },
        {
          "duration": 0.27906976744185386,
          "durationTicks": 24,
          "midi": 57,
          "name": "A3",
          "ticks": 7009,
          "time": 81.5,
          "velocity": 0.13385826771653545
        },
        {
          "duration": 0.1046511627907023,
          "durationTicks": 9,
          "midi": 61,
          "name": "C#4",
          "ticks": 7009,
          "time": 81.5,
          "velocity": 0.1732283464566929
        },
        {
          "duration": 0.7790697674418539,
          "durationTicks": 67,
          "midi": 45,
          "name": "A2",
          "ticks": 7012,
          "time": 81.53488372093024,
          "velocity": 0.2204724409448819
        },
        {
          "duration": 0.13953488372092693,
          "durationTicks": 12,
          "midi": 64,
          "name": "E4",
          "ticks": 7024,
          "time": 81.67441860465117,
          "velocity": 0.1889763779527559
        },
        {
          "duration": 0.16279069767441,
          "durationTicks": 14,
          "midi": 76,
          "name": "E5",
          "ticks": 7024,
          "time": 81.67441860465117,
          "velocity": 0.2204724409448819
        },
        {
          "duration": 0.08139534883721922,
          "durationTicks": 7,
          "midi": 63,
          "name": "D#4",
          "ticks": 7038,
          "time": 81.83720930232558,
          "velocity": 0.15748031496062992
        },
        {
          "duration": 0.09302325581396076,
          "durationTicks": 8,
          "midi": 75,
          "name": "D#5",
          "ticks": 7038,
          "time": 81.83720930232558,
          "velocity": 0.1968503937007874
        },
        {
          "duration": 0.034883720930224626,
          "durationTicks": 3,
          "midi": 83,
          "name": "B5",
          "ticks": 7045,
          "time": 81.9186046511628,
          "velocity": 0.07874015748031496
        },
        {
          "duration": 0.2093023255814046,
          "durationTicks": 18,
          "midi": 76,
          "name": "E5",
          "ticks": 7048,
          "time": 81.95348837209302,
          "velocity": 0.2204724409448819
        },
        {
          "duration": 0.11627906976744384,
          "durationTicks": 10,
          "midi": 64,
          "name": "E4",
          "ticks": 7049,
          "time": 81.96511627906976,
          "velocity": 0.2204724409448819
        },
        {
          "duration": 0.03488372093023884,
          "durationTicks": 3,
          "midi": 65,
          "name": "F4",
          "ticks": 7059,
          "time": 82.0813953488372,
          "velocity": 0.11023622047244094
        },
        {
          "duration": 0.3604651162790731,
          "durationTicks": 31,
          "midi": 61,
          "name": "C#4",
          "ticks": 7062,
          "time": 82.11627906976744,
          "velocity": 0.14960629921259844
        },
        {
          "duration": 0.3488372093023173,
          "durationTicks": 30,
          "midi": 73,
          "name": "C#5",
          "ticks": 7062,
          "time": 82.11627906976744,
          "velocity": 0.14960629921259844
        },
        {
          "duration": 0.34883720930233153,
          "durationTicks": 30,
          "midi": 85,
          "name": "C#6",
          "ticks": 7063,
          "time": 82.12790697674419,
          "velocity": 0.1732283464566929
        },
        {
          "duration": 0.25581395348837077,
          "durationTicks": 22,
          "midi": 73,
          "name": "C#5",
          "ticks": 7096,
          "time": 82.51162790697674,
          "velocity": 0.2125984251968504
        },
        {
          "duration": 0.2093023255814046,
          "durationTicks": 18,
          "midi": 61,
          "name": "C#4",
          "ticks": 7097,
          "time": 82.52325581395348,
          "velocity": 0.18110236220472442
        },
        {
          "duration": 0.13953488372094114,
          "durationTicks": 12,
          "midi": 63,
          "name": "D#4",
          "ticks": 7118,
          "time": 82.76744186046511,
          "velocity": 0.18110236220472442
        },
        {
          "duration": 0.11627906976744384,
          "durationTicks": 10,
          "midi": 75,
          "name": "D#5",
          "ticks": 7118,
          "time": 82.76744186046511,
          "velocity": 0.2125984251968504
        },
        {
          "duration": 0.11627906976744384,
          "durationTicks": 10,
          "midi": 82,
          "name": "A#5",
          "ticks": 7119,
          "time": 82.77906976744185,
          "velocity": 0.11023622047244094
        },
        {
          "duration": 0.05813953488372192,
          "durationTicks": 5,
          "midi": 76,
          "name": "E5",
          "ticks": 7133,
          "time": 82.94186046511628,
          "velocity": 0.07874015748031496
        },
        {
          "duration": 0.034883720930224626,
          "durationTicks": 3,
          "midi": 64,
          "name": "E4",
          "ticks": 7136,
          "time": 82.97674418604652,
          "velocity": 0.12598425196850394
        },
        {
          "duration": 0.12790697674418539,
          "durationTicks": 11,
          "midi": 83,
          "name": "B5",
          "ticks": 7141,
          "time": 83.03488372093024,
          "velocity": 0.2677165354330709
        },
        {
          "duration": 0.11627906976744384,
          "durationTicks": 10,
          "midi": 71,
          "name": "B4",
          "ticks": 7142,
          "time": 83.04651162790698,
          "velocity": 0.14960629921259844
        },
        {
          "duration": 0.5813953488372192,
          "durationTicks": 50,
          "midi": 68,
          "name": "G#4",
          "ticks": 7156,
          "time": 83.20930232558139,
          "velocity": 0.1968503937007874
        },
        {
          "duration": 0.6395348837209411,
          "durationTicks": 55,
          "midi": 80,
          "name": "G#5",
          "ticks": 7156,
          "time": 83.20930232558139,
          "velocity": 0.29133858267716534
        },
        {
          "duration": 0.09302325581396076,
          "durationTicks": 8,
          "midi": 61,
          "name": "C#4",
          "ticks": 7208,
          "time": 83.81395348837209,
          "velocity": 0.12598425196850394
        },
        {
          "duration": 0.13953488372092693,
          "durationTicks": 12,
          "midi": 73,
          "name": "C#5",
          "ticks": 7208,
          "time": 83.81395348837209,
          "velocity": 0.15748031496062992
        },
        {
          "duration": 0.13953488372092693,
          "durationTicks": 12,
          "midi": 76,
          "name": "E5",
          "ticks": 7220,
          "time": 83.95348837209302,
          "velocity": 0.23622047244094488
        },
        {
          "duration": 0.1046511627907023,
          "durationTicks": 9,
          "midi": 64,
          "name": "E4",
          "ticks": 7221,
          "time": 83.96511627906976,
          "velocity": 0.1968503937007874
        },
        {
          "duration": 0.09302325581396076,
          "durationTicks": 8,
          "midi": 63,
          "name": "D#4",
          "ticks": 7232,
          "time": 84.09302325581395,
          "velocity": 0.18110236220472442
        },
        {
          "duration": 0.09302325581396076,
          "durationTicks": 8,
          "midi": 75,
          "name": "D#5",
          "ticks": 7232,
          "time": 84.09302325581395,
          "velocity": 0.2047244094488189
        },
        {
          "duration": 0.034883720930224626,
          "durationTicks": 3,
          "midi": 76,
          "name": "E5",
          "ticks": 7239,
          "time": 84.17441860465117,
          "velocity": 0.12598425196850394
        },
        {
          "duration": 0.17441860465115155,
          "durationTicks": 15,
          "midi": 76,
          "name": "E5",
          "ticks": 7243,
          "time": 84.22093023255815,
          "velocity": 0.1968503937007874
        },
        {
          "duration": 0.12790697674418539,
          "durationTicks": 11,
          "midi": 64,
          "name": "E4",
          "ticks": 7244,
          "time": 84.23255813953489,
          "velocity": 0.2283464566929134
        },
        {
          "duration": 0.34883720930233153,
          "durationTicks": 30,
          "midi": 61,
          "name": "C#4",
          "ticks": 7253,
          "time": 84.33720930232558,
          "velocity": 0.13385826771653545
        },
        {
          "duration": 0.3139534883720927,
          "durationTicks": 27,
          "midi": 73,
          "name": "C#5",
          "ticks": 7256,
          "time": 84.37209302325581,
          "velocity": 0.1889763779527559
        },
        {
          "duration": 0.3139534883720927,
          "durationTicks": 27,
          "midi": 85,
          "name": "C#6",
          "ticks": 7257,
          "time": 84.38372093023256,
          "velocity": 0.1968503937007874
        },
        {
          "duration": 0.418604651162795,
          "durationTicks": 36,
          "midi": 76,
          "name": "E5",
          "ticks": 7275,
          "time": 84.59302325581395,
          "velocity": 0.11023622047244094
        },
        {
          "duration": 0.24418604651162923,
          "durationTicks": 21,
          "midi": 64,
          "name": "E4",
          "ticks": 7278,
          "time": 84.62790697674419,
          "velocity": 0.14960629921259844
        },
        {
          "duration": 0.27906976744185386,
          "durationTicks": 24,
          "midi": 73,
          "name": "C#5",
          "ticks": 7286,
          "time": 84.72093023255815,
          "velocity": 0.23622047244094488
        },
        {
          "duration": 0.25581395348837077,
          "durationTicks": 22,
          "midi": 61,
          "name": "C#4",
          "ticks": 7287,
          "time": 84.73255813953489,
          "velocity": 0.1889763779527559
        },
        {
          "duration": 0.2325581395348877,
          "durationTicks": 20,
          "midi": 89,
          "name": "F6",
          "ticks": 7288,
          "time": 84.74418604651163,
          "velocity": 0.07874015748031496
        },
        {
          "duration": 0.081395348837205,
          "durationTicks": 7,
          "midi": 64,
          "name": "E4",
          "ticks": 7303,
          "time": 84.9186046511628,
          "velocity": 0.07086614173228346
        },
        {
          "duration": 0.13953488372092693,
          "durationTicks": 12,
          "midi": 75,
          "name": "D#5",
          "ticks": 7310,
          "time": 85,
          "velocity": 0.2125984251968504
        },
        {
          "duration": 0.1046511627907023,
          "durationTicks": 9,
          "midi": 82,
          "name": "A#5",
          "ticks": 7311,
          "time": 85.01162790697674,
          "velocity": 0.08661417322834646
        },
        {
          "duration": 0.11627906976744384,
          "durationTicks": 10,
          "midi": 63,
          "name": "D#4",
          "ticks": 7312,
          "time": 85.02325581395348,
          "velocity": 0.2204724409448819
        },
        {
          "duration": 0.12790697674418539,
          "durationTicks": 11,
          "midi": 76,
          "name": "E5",
          "ticks": 7322,
          "time": 85.13953488372093,
          "velocity": 0.18110236220472442
        },
        {
          "duration": 0.12790697674418539,
          "durationTicks": 11,
          "midi": 64,
          "name": "E4",
          "ticks": 7325,
          "time": 85.17441860465117,
          "velocity": 0.15748031496062992
        },
        {
          "duration": 0.10465116279068809,
          "durationTicks": 9,
          "midi": 83,
          "name": "B5",
          "ticks": 7335,
          "time": 85.29069767441861,
          "velocity": 0.11023622047244094
        },
        {
          "duration": 0.11627906976744384,
          "durationTicks": 10,
          "midi": 64,
          "name": "E4",
          "ticks": 7337,
          "time": 85.31395348837209,
          "velocity": 0.10236220472440945
        },
        {
          "duration": 0.27906976744185386,
          "durationTicks": 24,
          "midi": 80,
          "name": "G#5",
          "ticks": 7347,
          "time": 85.43023255813954,
          "velocity": 0.2755905511811024
        },
        {
          "duration": 0.3953488372092977,
          "durationTicks": 34,
          "midi": 68,
          "name": "G#4",
          "ticks": 7348,
          "time": 85.44186046511628,
          "velocity": 0.18110236220472442
        },
        {
          "duration": 0.09302325581394655,
          "durationTicks": 8,
          "midi": 85,
          "name": "C#6",
          "ticks": 7395,
          "time": 85.98837209302326,
          "velocity": 0.14173228346456693
        },
        {
          "duration": 0.04651162790698038,
          "durationTicks": 4,
          "midi": 57,
          "name": "A3",
          "ticks": 7396,
          "time": 86,
          "velocity": 0.2047244094488189
        },
        {
          "duration": 0.081395348837205,
          "durationTicks": 7,
          "midi": 76,
          "name": "E5",
          "ticks": 7396,
          "time": 86,
          "velocity": 0.08661417322834646
        },
        {
          "duration": 0.05813953488372192,
          "durationTicks": 5,
          "midi": 58,
          "name": "A#3",
          "ticks": 7403,
          "time": 86.0813953488372,
          "velocity": 0.23622047244094488
        },
        {
          "duration": 0.03488372093023884,
          "durationTicks": 3,
          "midi": 86,
          "name": "D6",
          "ticks": 7404,
          "time": 86.09302325581395,
          "velocity": 0.10236220472440945
        },
        {
          "duration": 0.16279069767442422,
          "durationTicks": 14,
          "midi": 78,
          "name": "F#5",
          "ticks": 7407,
          "time": 86.12790697674419,
          "velocity": 0.10236220472440945
        },
        {
          "duration": 0.22093023255814614,
          "durationTicks": 19,
          "midi": 71,
          "name": "B4",
          "ticks": 7408,
          "time": 86.13953488372093,
          "velocity": 0.09448818897637795
        },
        {
          "duration": 0.03488372093023884,
          "durationTicks": 3,
          "midi": 59,
          "name": "B3",
          "ticks": 7414,
          "time": 86.20930232558139,
          "velocity": 0.13385826771653545
        },
        {
          "duration": 0.24418604651162923,
          "durationTicks": 21,
          "midi": 54,
          "name": "F#3",
          "ticks": 7421,
          "time": 86.29069767441861,
          "velocity": 0.2283464566929134
        },
        {
          "duration": 0.1860465116279073,
          "durationTicks": 16,
          "midi": 59,
          "name": "B3",
          "ticks": 7421,
          "time": 86.29069767441861,
          "velocity": 0.14960629921259844
        },
        {
          "duration": 0.1046511627907023,
          "durationTicks": 9,
          "midi": 64,
          "name": "E4",
          "ticks": 7436,
          "time": 86.46511627906976,
          "velocity": 0.2125984251968504
        },
        {
          "duration": 0.04651162790698038,
          "durationTicks": 4,
          "midi": 65,
          "name": "F4",
          "ticks": 7445,
          "time": 86.56976744186046,
          "velocity": 0.2125984251968504
        },
        {
          "duration": 0.24418604651162923,
          "durationTicks": 21,
          "midi": 78,
          "name": "F#5",
          "ticks": 7448,
          "time": 86.6046511627907,
          "velocity": 0.1968503937007874
        },
        {
          "duration": 0.22093023255813193,
          "durationTicks": 19,
          "midi": 66,
          "name": "F#4",
          "ticks": 7449,
          "time": 86.61627906976744,
          "velocity": 0.25984251968503935
        },
        {
          "duration": 0.034883720930224626,
          "durationTicks": 3,
          "midi": 84,
          "name": "C6",
          "ticks": 7469,
          "time": 86.84883720930233,
          "velocity": 0.07874015748031496
        },
        {
          "duration": 0.5930232558139465,
          "durationTicks": 51,
          "midi": 73,
          "name": "C#5",
          "ticks": 7471,
          "time": 86.87209302325581,
          "velocity": 0.23622047244094488
        },
        {
          "duration": 0.2325581395348877,
          "durationTicks": 20,
          "midi": 64,
          "name": "E4",
          "ticks": 7473,
          "time": 86.8953488372093,
          "velocity": 0.1968503937007874
        },
        {
          "duration": 0.2325581395348877,
          "durationTicks": 20,
          "midi": 76,
          "name": "E5",
          "ticks": 7473,
          "time": 86.8953488372093,
          "velocity": 0.1968503937007874
        },
        {
          "duration": 0.24418604651162923,
          "durationTicks": 21,
          "midi": 61,
          "name": "C#4",
          "ticks": 7475,
          "time": 86.9186046511628,
          "velocity": 0.14173228346456693
        },
        {
          "duration": 0.13953488372094114,
          "durationTicks": 12,
          "midi": 75,
          "name": "D#5",
          "ticks": 7495,
          "time": 87.15116279069767,
          "velocity": 0.2204724409448819
        },
        {
          "duration": 0.09302325581394655,
          "durationTicks": 8,
          "midi": 82,
          "name": "A#5",
          "ticks": 7497,
          "time": 87.17441860465117,
          "velocity": 0.07086614173228346
        },
        {
          "duration": 0.04651162790698038,
          "durationTicks": 4,
          "midi": 63,
          "name": "D#4",
          "ticks": 7499,
          "time": 87.19767441860465,
          "velocity": 0.2125984251968504
        },
        {
          "duration": 0.03488372093023884,
          "durationTicks": 3,
          "midi": 63,
          "name": "D#4",
          "ticks": 7504,
          "time": 87.25581395348837,
          "velocity": 0.2047244094488189
        },
        {
          "duration": 0.05813953488372192,
          "durationTicks": 5,
          "midi": 61,
          "name": "C#4",
          "ticks": 7509,
          "time": 87.31395348837209,
          "velocity": 0.16535433070866143
        },
        {
          "duration": 0.22093023255814614,
          "durationTicks": 19,
          "midi": 61,
          "name": "C#4",
          "ticks": 7521,
          "time": 87.45348837209302,
          "velocity": 0.25984251968503935
        },
        {
          "duration": 0.2674418604651123,
          "durationTicks": 23,
          "midi": 71,
          "name": "B4",
          "ticks": 7540,
          "time": 87.67441860465117,
          "velocity": 0.14960629921259844
        },
        {
          "duration": 0.25581395348837077,
          "durationTicks": 22,
          "midi": 87,
          "name": "D#6",
          "ticks": 7540,
          "time": 87.67441860465117,
          "velocity": 0.11023622047244094
        },
        {
          "duration": 0.23255813953487348,
          "durationTicks": 20,
          "midi": 59,
          "name": "B3",
          "ticks": 7544,
          "time": 87.72093023255815,
          "velocity": 0.2283464566929134
        },
        {
          "duration": 0.04651162790698038,
          "durationTicks": 4,
          "midi": 73,
          "name": "C#5",
          "ticks": 7551,
          "time": 87.80232558139535,
          "velocity": 0.07086614173228346
        },
        {
          "duration": 0.06976744186046346,
          "durationTicks": 6,
          "midi": 61,
          "name": "C#4",
          "ticks": 7571,
          "time": 88.03488372093024,
          "velocity": 0.1889763779527559
        },
        {
          "duration": 0.04651162790696617,
          "durationTicks": 4,
          "midi": 62,
          "name": "D4",
          "ticks": 7577,
          "time": 88.1046511627907,
          "velocity": 0.2440944881889764
        },
        {
          "duration": 0.12790697674418539,
          "durationTicks": 11,
          "midi": 63,
          "name": "D#4",
          "ticks": 7581,
          "time": 88.15116279069767,
          "velocity": 0.25984251968503935
        },
        {
          "duration": 0.04651162790698038,
          "durationTicks": 4,
          "midi": 62,
          "name": "D4",
          "ticks": 7592,
          "time": 88.27906976744185,
          "velocity": 0.18110236220472442
        },
        {
          "duration": 0.03488372093023884,
          "durationTicks": 3,
          "midi": 44,
          "name": "G#2",
          "ticks": 7595,
          "time": 88.31395348837209,
          "velocity": 0.18110236220472442
        },
        {
          "duration": 0.27906976744185386,
          "durationTicks": 24,
          "midi": 45,
          "name": "A2",
          "ticks": 7598,
          "time": 88.34883720930233,
          "velocity": 0.2047244094488189
        },
        {
          "duration": 0.081395348837205,
          "durationTicks": 7,
          "midi": 61,
          "name": "C#4",
          "ticks": 7599,
          "time": 88.36046511627907,
          "velocity": 0.15748031496062992
        },
        {
          "duration": 0.034883720930224626,
          "durationTicks": 3,
          "midi": 85,
          "name": "C#6",
          "ticks": 7605,
          "time": 88.43023255813954,
          "velocity": 0.07874015748031496
        },
        {
          "duration": 0.1046511627907023,
          "durationTicks": 9,
          "midi": 80,
          "name": "G#5",
          "ticks": 7606,
          "time": 88.44186046511628,
          "velocity": 0.07086614173228346
        },
        {
          "duration": 0.1046511627907023,
          "durationTicks": 9,
          "midi": 68,
          "name": "G#4",
          "ticks": 7607,
          "time": 88.45348837209302,
          "velocity": 0.07874015748031496
        },
        {
          "duration": 0.12790697674418539,
          "durationTicks": 11,
          "midi": 76,
          "name": "E5",
          "ticks": 7610,
          "time": 88.48837209302326,
          "velocity": 0.2125984251968504
        },
        {
          "duration": 0.09302325581394655,
          "durationTicks": 8,
          "midi": 64,
          "name": "E4",
          "ticks": 7611,
          "time": 88.5,
          "velocity": 0.2047244094488189
        },
        {
          "duration": 0.04651162790696617,
          "durationTicks": 4,
          "midi": 92,
          "name": "G#6",
          "ticks": 7614,
          "time": 88.53488372093024,
          "velocity": 0.07086614173228346
        },
        {
          "duration": 0.2906976744185954,
          "durationTicks": 25,
          "midi": 52,
          "name": "E3",
          "ticks": 7620,
          "time": 88.6046511627907,
          "velocity": 0.12598425196850394
        },
        {
          "duration": 0.09302325581394655,
          "durationTicks": 8,
          "midi": 83,
          "name": "B5",
          "ticks": 7620,
          "time": 88.6046511627907,
          "velocity": 0.08661417322834646
        },
        {
          "duration": 0.09302325581394655,
          "durationTicks": 8,
          "midi": 75,
          "name": "D#5",
          "ticks": 7621,
          "time": 88.61627906976744,
          "velocity": 0.2047244094488189
        },
        {
          "duration": 0.06976744186046346,
          "durationTicks": 6,
          "midi": 63,
          "name": "D#4",
          "ticks": 7622,
          "time": 88.62790697674419,
          "velocity": 0.23622047244094488
        },
        {
          "duration": 0.06976744186046346,
          "durationTicks": 6,
          "midi": 82,
          "name": "A#5",
          "ticks": 7622,
          "time": 88.62790697674419,
          "velocity": 0.07874015748031496
        },
        {
          "duration": 0.40697674418603924,
          "durationTicks": 35,
          "midi": 45,
          "name": "A2",
          "ticks": 7626,
          "time": 88.67441860465117,
          "velocity": 0.09448818897637795
        },
        {
          "duration": 0.04651162790698038,
          "durationTicks": 4,
          "midi": 64,
          "name": "E4",
          "ticks": 7628,
          "time": 88.69767441860465,
          "velocity": 0.2204724409448819
        },
        {
          "duration": 0.11627906976744384,
          "durationTicks": 10,
          "midi": 64,
          "name": "E4",
          "ticks": 7634,
          "time": 88.76744186046511,
          "velocity": 0.2283464566929134
        },
        {
          "duration": 0.03488372093023884,
          "durationTicks": 3,
          "midi": 80,
          "name": "G#5",
          "ticks": 7635,
          "time": 88.77906976744185,
          "velocity": 0.07086614173228346
        },
        {
          "duration": 0.04651162790698038,
          "durationTicks": 4,
          "midi": 83,
          "name": "B5",
          "ticks": 7644,
          "time": 88.88372093023256,
          "velocity": 0.09448818897637795
        },
        {
          "duration": 0.3604651162790731,
          "durationTicks": 31,
          "midi": 85,
          "name": "C#6",
          "ticks": 7645,
          "time": 88.8953488372093,
          "velocity": 0.1889763779527559
        },
        {
          "duration": 0.3488372093023173,
          "durationTicks": 30,
          "midi": 61,
          "name": "C#4",
          "ticks": 7646,
          "time": 88.90697674418605,
          "velocity": 0.16535433070866143
        },
        {
          "duration": 0.05813953488372192,
          "durationTicks": 5,
          "midi": 76,
          "name": "E5",
          "ticks": 7650,
          "time": 88.95348837209302,
          "velocity": 0.11811023622047244
        },
        {
          "duration": 0.1046511627907023,
          "durationTicks": 9,
          "midi": 64,
          "name": "E4",
          "ticks": 7655,
          "time": 89.01162790697674,
          "velocity": 0.15748031496062992
        },
        {
          "duration": 0.06976744186046346,
          "durationTicks": 6,
          "midi": 76,
          "name": "E5",
          "ticks": 7666,
          "time": 89.13953488372093,
          "velocity": 0.07874015748031496
        },
        {
          "duration": 0.06976744186046346,
          "durationTicks": 6,
          "midi": 64,
          "name": "E4",
          "ticks": 7670,
          "time": 89.18604651162791,
          "velocity": 0.08661417322834646
        },
        {
          "duration": 0.24418604651162923,
          "durationTicks": 21,
          "midi": 64,
          "name": "E4",
          "ticks": 7678,
          "time": 89.27906976744185,
          "velocity": 0.1732283464566929
        },
        {
          "duration": 0.22093023255813193,
          "durationTicks": 19,
          "midi": 73,
          "name": "C#5",
          "ticks": 7679,
          "time": 89.29069767441861,
          "velocity": 0.14173228346456693
        },
        {
          "duration": 0.24418604651162923,
          "durationTicks": 21,
          "midi": 85,
          "name": "C#6",
          "ticks": 7679,
          "time": 89.29069767441861,
          "velocity": 0.16535433070866143
        },
        {
          "duration": 0.19767441860464885,
          "durationTicks": 17,
          "midi": 61,
          "name": "C#4",
          "ticks": 7680,
          "time": 89.30232558139535,
          "velocity": 0.15748031496062992
        },
        {
          "duration": 0.16279069767442422,
          "durationTicks": 14,
          "midi": 63,
          "name": "D#4",
          "ticks": 7699,
          "time": 89.52325581395348,
          "velocity": 0.1732283464566929
        },
        {
          "duration": 0.10465116279068809,
          "durationTicks": 9,
          "midi": 75,
          "name": "D#5",
          "ticks": 7700,
          "time": 89.53488372093024,
          "velocity": 0.1889763779527559
        },
        {
          "duration": 0.081395348837205,
          "durationTicks": 7,
          "midi": 66,
          "name": "F#4",
          "ticks": 7702,
          "time": 89.55813953488372,
          "velocity": 0.08661417322834646
        },
        {
          "duration": 0.034883720930224626,
          "durationTicks": 3,
          "midi": 64,
          "name": "E4",
          "ticks": 7716,
          "time": 89.72093023255815,
          "velocity": 0.10236220472440945
        },
        {
          "duration": 0.13953488372092693,
          "durationTicks": 12,
          "midi": 71,
          "name": "B4",
          "ticks": 7723,
          "time": 89.80232558139535,
          "velocity": 0.2204724409448819
        },
        {
          "duration": 0.13953488372092693,
          "durationTicks": 12,
          "midi": 83,
          "name": "B5",
          "ticks": 7723,
          "time": 89.80232558139535,
          "velocity": 0.25984251968503935
        },
        {
          "duration": 0.5930232558139608,
          "durationTicks": 51,
          "midi": 68,
          "name": "G#4",
          "ticks": 7737,
          "time": 89.96511627906976,
          "velocity": 0.2204724409448819
        },
        {
          "duration": 0.5,
          "durationTicks": 43,
          "midi": 80,
          "name": "G#5",
          "ticks": 7738,
          "time": 89.97674418604652,
          "velocity": 0.2677165354330709
        },
        {
          "duration": 0.13953488372094114,
          "durationTicks": 12,
          "midi": 87,
          "name": "D#6",
          "ticks": 7747,
          "time": 90.0813953488372,
          "velocity": 0.07086614173228346
        },
        {
          "duration": 0.13953488372092693,
          "durationTicks": 12,
          "midi": 61,
          "name": "C#4",
          "ticks": 7787,
          "time": 90.54651162790698,
          "velocity": 0.1968503937007874
        },
        {
          "duration": 0.5581395348837219,
          "durationTicks": 48,
          "midi": 45,
          "name": "A2",
          "ticks": 7794,
          "time": 90.62790697674419,
          "velocity": 0.13385826771653545
        },
        {
          "duration": 0.16279069767441,
          "durationTicks": 14,
          "midi": 68,
          "name": "G#4",
          "ticks": 7802,
          "time": 90.72093023255815,
          "velocity": 0.12598425196850394
        },
        {
          "duration": 0.12790697674418539,
          "durationTicks": 11,
          "midi": 76,
          "name": "E5",
          "ticks": 7802,
          "time": 90.72093023255815,
          "velocity": 0.1889763779527559
        },
        {
          "duration": 0.11627906976744384,
          "durationTicks": 10,
          "midi": 64,
          "name": "E4",
          "ticks": 7803,
          "time": 90.73255813953489,
          "velocity": 0.15748031496062992
        },
        {
          "duration": 0.17441860465116577,
          "durationTicks": 15,
          "midi": 63,
          "name": "D#4",
          "ticks": 7815,
          "time": 90.87209302325581,
          "velocity": 0.1889763779527559
        },
        {
          "duration": 0.12790697674418539,
          "durationTicks": 11,
          "midi": 75,
          "name": "D#5",
          "ticks": 7815,
          "time": 90.87209302325581,
          "velocity": 0.2047244094488189
        },
        {
          "duration": 0.09302325581394655,
          "durationTicks": 8,
          "midi": 68,
          "name": "G#4",
          "ticks": 7826,
          "time": 91,
          "velocity": 0.09448818897637795
        },
        {
          "duration": 0.2093023255814046,
          "durationTicks": 18,
          "midi": 76,
          "name": "E5",
          "ticks": 7828,
          "time": 91.02325581395348,
          "velocity": 0.2047244094488189
        },
        {
          "duration": 0.17441860465116577,
          "durationTicks": 15,
          "midi": 64,
          "name": "E4",
          "ticks": 7830,
          "time": 91.04651162790698,
          "velocity": 0.2125984251968504
        },
        {
          "duration": 0.6511627906976827,
          "durationTicks": 56,
          "midi": 61,
          "name": "C#4",
          "ticks": 7844,
          "time": 91.20930232558139,
          "velocity": 0.2204724409448819
        },
        {
          "duration": 0.33720930232559,
          "durationTicks": 29,
          "midi": 85,
          "name": "C#6",
          "ticks": 7844,
          "time": 91.20930232558139,
          "velocity": 0.1889763779527559
        },
        {
          "duration": 0.04651162790698038,
          "durationTicks": 4,
          "midi": 64,
          "name": "E4",
          "ticks": 7868,
          "time": 91.48837209302326,
          "velocity": 0.07874015748031496
        },
        {
          "duration": 0.03488372093023884,
          "durationTicks": 3,
          "midi": 76,
          "name": "E5",
          "ticks": 7877,
          "time": 91.59302325581395,
          "velocity": 0.07874015748031496
        },
        {
          "duration": 0.06976744186047767,
          "durationTicks": 6,
          "midi": 85,
          "name": "C#6",
          "ticks": 7877,
          "time": 91.59302325581395,
          "velocity": 0.11023622047244094
        },
        {
          "duration": 0.12790697674418539,
          "durationTicks": 11,
          "midi": 64,
          "name": "E4",
          "ticks": 7883,
          "time": 91.66279069767442,
          "velocity": 0.15748031496062992
        },
        {
          "duration": 0.15116279069768268,
          "durationTicks": 13,
          "midi": 85,
          "name": "C#6",
          "ticks": 7887,
          "time": 91.70930232558139,
          "velocity": 0.15748031496062992
        },
        {
          "duration": 0.17441860465115155,
          "durationTicks": 15,
          "midi": 75,
          "name": "D#5",
          "ticks": 7899,
          "time": 91.84883720930233,
          "velocity": 0.23622047244094488
        },
        {
          "duration": 0.16279069767441,
          "durationTicks": 14,
          "midi": 63,
          "name": "D#4",
          "ticks": 7900,
          "time": 91.86046511627907,
          "velocity": 0.1968503937007874
        },
        {
          "duration": 0.11627906976744384,
          "durationTicks": 10,
          "midi": 82,
          "name": "A#5",
          "ticks": 7901,
          "time": 91.87209302325581,
          "velocity": 0.09448818897637795
        },
        {
          "duration": 0.034883720930224626,
          "durationTicks": 3,
          "midi": 64,
          "name": "E4",
          "ticks": 7916,
          "time": 92.04651162790698,
          "velocity": 0.12598425196850394
        },
        {
          "duration": 0.17441860465115155,
          "durationTicks": 15,
          "midi": 83,
          "name": "B5",
          "ticks": 7921,
          "time": 92.1046511627907,
          "velocity": 0.25984251968503935
        },
        {
          "duration": 0.13953488372092693,
          "durationTicks": 12,
          "midi": 71,
          "name": "B4",
          "ticks": 7924,
          "time": 92.13953488372093,
          "velocity": 0.16535433070866143
        },
        {
          "duration": 0.5581395348837219,
          "durationTicks": 48,
          "midi": 80,
          "name": "G#5",
          "ticks": 7935,
          "time": 92.26744186046511,
          "velocity": 0.2992125984251969
        },
        {
          "duration": 0.5813953488372192,
          "durationTicks": 50,
          "midi": 68,
          "name": "G#4",
          "ticks": 7936,
          "time": 92.27906976744185,
          "velocity": 0.2440944881889764
        },
        {
          "duration": 0.05813953488372192,
          "durationTicks": 5,
          "midi": 87,
          "name": "D#6",
          "ticks": 7940,
          "time": 92.32558139534883,
          "velocity": 0.07874015748031496
        },
        {
          "duration": 0.12790697674418539,
          "durationTicks": 11,
          "midi": 61,
          "name": "C#4",
          "ticks": 7985,
          "time": 92.84883720930233,
          "velocity": 0.18110236220472442
        },
        {
          "duration": 0.05813953488372192,
          "durationTicks": 5,
          "midi": 64,
          "name": "E4",
          "ticks": 7995,
          "time": 92.96511627906976,
          "velocity": 0.13385826771653545
        },
        {
          "duration": 0.17441860465116577,
          "durationTicks": 15,
          "midi": 49,
          "name": "C#3",
          "ticks": 7999,
          "time": 93.01162790697674,
          "velocity": 0.11811023622047244
        },
        {
          "duration": 0.12790697674418539,
          "durationTicks": 11,
          "midi": 76,
          "name": "E5",
          "ticks": 8001,
          "time": 93.03488372093024,
          "velocity": 0.15748031496062992
        },
        {
          "duration": 0.10465116279068809,
          "durationTicks": 9,
          "midi": 64,
          "name": "E4",
          "ticks": 8002,
          "time": 93.04651162790698,
          "velocity": 0.18110236220472442
        },
        {
          "duration": 0.081395348837205,
          "durationTicks": 7,
          "midi": 83,
          "name": "B5",
          "ticks": 8002,
          "time": 93.04651162790698,
          "velocity": 0.08661417322834646
        },
        {
          "duration": 0.09302325581394655,
          "durationTicks": 8,
          "midi": 75,
          "name": "D#5",
          "ticks": 8014,
          "time": 93.18604651162791,
          "velocity": 0.18110236220472442
        },
        {
          "duration": 0.30232558139535115,
          "durationTicks": 26,
          "midi": 56,
          "name": "G#3",
          "ticks": 8015,
          "time": 93.19767441860465,
          "velocity": 0.15748031496062992
        },
        {
          "duration": 0.06976744186046346,
          "durationTicks": 6,
          "midi": 63,
          "name": "D#4",
          "ticks": 8015,
          "time": 93.19767441860465,
          "velocity": 0.16535433070866143
        },
        {
          "duration": 0.04651162790698038,
          "durationTicks": 4,
          "midi": 64,
          "name": "E4",
          "ticks": 8021,
          "time": 93.26744186046511,
          "velocity": 0.1732283464566929
        },
        {
          "duration": 0.16279069767442422,
          "durationTicks": 14,
          "midi": 64,
          "name": "E4",
          "ticks": 8027,
          "time": 93.33720930232558,
          "velocity": 0.23622047244094488
        },
        {
          "duration": 0.38372093023255616,
          "durationTicks": 33,
          "midi": 73,
          "name": "C#5",
          "ticks": 8040,
          "time": 93.48837209302326,
          "velocity": 0.2125984251968504
        },
        {
          "duration": 0.6511627906976685,
          "durationTicks": 56,
          "midi": 61,
          "name": "C#4",
          "ticks": 8041,
          "time": 93.5,
          "velocity": 0.2204724409448819
        },
        {
          "duration": 0.4186046511627808,
          "durationTicks": 36,
          "midi": 76,
          "name": "E5",
          "ticks": 8061,
          "time": 93.73255813953489,
          "velocity": 0.1889763779527559
        },
        {
          "duration": 0.13953488372092693,
          "durationTicks": 12,
          "midi": 64,
          "name": "E4",
          "ticks": 8062,
          "time": 93.74418604651163,
          "velocity": 0.16535433070866143
        },
        {
          "duration": 0.15116279069768268,
          "durationTicks": 13,
          "midi": 64,
          "name": "E4",
          "ticks": 8075,
          "time": 93.8953488372093,
          "velocity": 0.16535433070866143
        },
        {
          "duration": 0.15116279069768268,
          "durationTicks": 13,
          "midi": 85,
          "name": "C#6",
          "ticks": 8085,
          "time": 94.01162790697674,
          "velocity": 0.11023622047244094
        },
        {
          "duration": 0.09302325581396076,
          "durationTicks": 8,
          "midi": 75,
          "name": "D#5",
          "ticks": 8097,
          "time": 94.15116279069767,
          "velocity": 0.1968503937007874
        },
        {
          "duration": 0.11627906976744384,
          "durationTicks": 10,
          "midi": 82,
          "name": "A#5",
          "ticks": 8097,
          "time": 94.15116279069767,
          "velocity": 0.08661417322834646
        },
        {
          "duration": 0.034883720930224626,
          "durationTicks": 3,
          "midi": 64,
          "name": "E4",
          "ticks": 8098,
          "time": 94.16279069767442,
          "velocity": 0.2283464566929134
        },
        {
          "duration": 0.4186046511627808,
          "durationTicks": 36,
          "midi": 76,
          "name": "E5",
          "ticks": 8104,
          "time": 94.23255813953489,
          "velocity": 0.18110236220472442
        },
        {
          "duration": 0.04651162790698038,
          "durationTicks": 4,
          "midi": 63,
          "name": "D#4",
          "ticks": 8105,
          "time": 94.24418604651163,
          "velocity": 0.13385826771653545
        },
        {
          "duration": 0.1860465116279073,
          "durationTicks": 16,
          "midi": 64,
          "name": "E4",
          "ticks": 8111,
          "time": 94.31395348837209,
          "velocity": 0.16535433070866143
        },
        {
          "duration": 0.10465116279068809,
          "durationTicks": 9,
          "midi": 83,
          "name": "B5",
          "ticks": 8120,
          "time": 94.4186046511628,
          "velocity": 0.1732283464566929
        },
        {
          "duration": 0.034883720930224626,
          "durationTicks": 3,
          "midi": 68,
          "name": "G#4",
          "ticks": 8131,
          "time": 94.54651162790698,
          "velocity": 0.07086614173228346
        },
        {
          "duration": 0.5116279069767415,
          "durationTicks": 44,
          "midi": 80,
          "name": "G#5",
          "ticks": 8131,
          "time": 94.54651162790698,
          "velocity": 0.2755905511811024
        },
        {
          "duration": 0.1046511627907023,
          "durationTicks": 9,
          "midi": 64,
          "name": "E4",
          "ticks": 8133,
          "time": 94.56976744186046,
          "velocity": 0.09448818897637795
        },
        {
          "duration": 0.38372093023257037,
          "durationTicks": 33,
          "midi": 68,
          "name": "G#4",
          "ticks": 8135,
          "time": 94.59302325581395,
          "velocity": 0.14173228346456693
        },
        {
          "duration": 0.08139534883721922,
          "durationTicks": 7,
          "midi": 57,
          "name": "A3",
          "ticks": 8183,
          "time": 95.15116279069767,
          "velocity": 0.18110236220472442
        },
        {
          "duration": 0.04651162790696617,
          "durationTicks": 4,
          "midi": 85,
          "name": "C#6",
          "ticks": 8184,
          "time": 95.16279069767442,
          "velocity": 0.08661417322834646
        },
        {
          "duration": 0.04651162790696617,
          "durationTicks": 4,
          "midi": 70,
          "name": "A#4",
          "ticks": 8189,
          "time": 95.22093023255815,
          "velocity": 0.11023622047244094
        },
        {
          "duration": 0.034883720930224626,
          "durationTicks": 3,
          "midi": 58,
          "name": "A#3",
          "ticks": 8190,
          "time": 95.23255813953489,
          "velocity": 0.2047244094488189
        },
        {
          "duration": 0.034883720930224626,
          "durationTicks": 3,
          "midi": 86,
          "name": "D6",
          "ticks": 8190,
          "time": 95.23255813953489,
          "velocity": 0.07086614173228346
        },
        {
          "duration": 0.7906976744186096,
          "durationTicks": 68,
          "midi": 47,
          "name": "B2",
          "ticks": 8191,
          "time": 95.24418604651163,
          "velocity": 0.13385826771653545
        },
        {
          "duration": 0.2906976744186096,
          "durationTicks": 25,
          "midi": 59,
          "name": "B3",
          "ticks": 8193,
          "time": 95.26744186046511,
          "velocity": 0.2125984251968504
        },
        {
          "duration": 0.11627906976744384,
          "durationTicks": 10,
          "midi": 54,
          "name": "F#3",
          "ticks": 8212,
          "time": 95.48837209302326,
          "velocity": 0.14173228346456693
        },
        {
          "duration": 0.09302325581396076,
          "durationTicks": 8,
          "midi": 64,
          "name": "E4",
          "ticks": 8221,
          "time": 95.59302325581395,
          "velocity": 0.2125984251968504
        },
        {
          "duration": 0.03488372093023884,
          "durationTicks": 3,
          "midi": 65,
          "name": "F4",
          "ticks": 8229,
          "time": 95.68604651162791,
          "velocity": 0.2047244094488189
        },
        {
          "duration": 0.12790697674418539,
          "durationTicks": 11,
          "midi": 54,
          "name": "F#3",
          "ticks": 8231,
          "time": 95.70930232558139,
          "velocity": 0.12598425196850394
        },
        {
          "duration": 0.22093023255813193,
          "durationTicks": 19,
          "midi": 66,
          "name": "F#4",
          "ticks": 8232,
          "time": 95.72093023255815,
          "velocity": 0.25984251968503935
        },
        {
          "duration": 0.04651162790698038,
          "durationTicks": 4,
          "midi": 65,
          "name": "F4",
          "ticks": 8251,
          "time": 95.94186046511628,
          "velocity": 0.2047244094488189
        },
        {
          "duration": 0.27906976744186807,
          "durationTicks": 24,
          "midi": 76,
          "name": "E5",
          "ticks": 8258,
          "time": 96.02325581395348,
          "velocity": 0.2125984251968504
        },
        {
          "duration": 0.23255813953487348,
          "durationTicks": 20,
          "midi": 54,
          "name": "F#3",
          "ticks": 8259,
          "time": 96.03488372093024,
          "velocity": 0.2283464566929134
        },
        {
          "duration": 0.23255813953487348,
          "durationTicks": 20,
          "midi": 64,
          "name": "E4",
          "ticks": 8260,
          "time": 96.04651162790698,
          "velocity": 0.2204724409448819
        },
        {
          "duration": 0.05813953488372192,
          "durationTicks": 5,
          "midi": 59,
          "name": "B3",
          "ticks": 8273,
          "time": 96.19767441860465,
          "velocity": 0.11023622047244094
        },
        {
          "duration": 0.08139534883721922,
          "durationTicks": 7,
          "midi": 59,
          "name": "B3",
          "ticks": 8280,
          "time": 96.27906976744185,
          "velocity": 0.14960629921259844
        },
        {
          "duration": 0.13953488372092693,
          "durationTicks": 12,
          "midi": 75,
          "name": "D#5",
          "ticks": 8284,
          "time": 96.32558139534883,
          "velocity": 0.2125984251968504
        },
        {
          "duration": 0.1046511627907023,
          "durationTicks": 9,
          "midi": 82,
          "name": "A#5",
          "ticks": 8284,
          "time": 96.32558139534883,
          "velocity": 0.07874015748031496
        },
        {
          "duration": 0.15116279069768268,
          "durationTicks": 13,
          "midi": 63,
          "name": "D#4",
          "ticks": 8285,
          "time": 96.33720930232558,
          "velocity": 0.1889763779527559
        },
        {
          "duration": 0.06976744186046346,
          "durationTicks": 6,
          "midi": 59,
          "name": "B3",
          "ticks": 8289,
          "time": 96.38372093023256,
          "velocity": 0.15748031496062992
        },
        {
          "duration": 0.15116279069766847,
          "durationTicks": 13,
          "midi": 73,
          "name": "C#5",
          "ticks": 8298,
          "time": 96.48837209302326,
          "velocity": 0.2125984251968504
        },
        {
          "duration": 0.19767441860464885,
          "durationTicks": 17,
          "midi": 61,
          "name": "C#4",
          "ticks": 8300,
          "time": 96.51162790697674,
          "velocity": 0.2125984251968504
        },
        {
          "duration": 0.10465116279068809,
          "durationTicks": 9,
          "midi": 54,
          "name": "F#3",
          "ticks": 8313,
          "time": 96.66279069767442,
          "velocity": 0.11811023622047244
        },
        {
          "duration": 0.1860465116279073,
          "durationTicks": 16,
          "midi": 73,
          "name": "C#5",
          "ticks": 8317,
          "time": 96.70930232558139,
          "velocity": 0.14173228346456693
        },
        {
          "duration": 0.2906976744186096,
          "durationTicks": 25,
          "midi": 59,
          "name": "B3",
          "ticks": 8327,
          "time": 96.82558139534883,
          "velocity": 0.18110236220472442
        },
        {
          "duration": 0.2674418604651265,
          "durationTicks": 23,
          "midi": 83,
          "name": "B5",
          "ticks": 8328,
          "time": 96.83720930232558,
          "velocity": 0.13385826771653545
        },
        {
          "duration": 0.08139534883721922,
          "durationTicks": 7,
          "midi": 87,
          "name": "D#6",
          "ticks": 8328,
          "time": 96.83720930232558,
          "velocity": 0.10236220472440945
        },
        {
          "duration": 0.13953488372092693,
          "durationTicks": 12,
          "midi": 54,
          "name": "F#3",
          "ticks": 8336,
          "time": 96.93023255813954,
          "velocity": 0.15748031496062992
        },
        {
          "duration": 0.11627906976742963,
          "durationTicks": 10,
          "midi": 78,
          "name": "F#5",
          "ticks": 8340,
          "time": 96.97674418604652,
          "velocity": 0.07086614173228346
        },
        {
          "duration": 0.1046511627907023,
          "durationTicks": 9,
          "midi": 73,
          "name": "C#5",
          "ticks": 8359,
          "time": 97.19767441860465,
          "velocity": 0.2047244094488189
        },
        {
          "duration": 0.081395348837205,
          "durationTicks": 7,
          "midi": 61,
          "name": "C#4",
          "ticks": 8361,
          "time": 97.22093023255815,
          "velocity": 0.1889763779527559
        },
        {
          "duration": 0.04651162790698038,
          "durationTicks": 4,
          "midi": 62,
          "name": "D4",
          "ticks": 8368,
          "time": 97.30232558139535,
          "velocity": 0.18110236220472442
        },
        {
          "duration": 0.04651162790698038,
          "durationTicks": 4,
          "midi": 74,
          "name": "D5",
          "ticks": 8368,
          "time": 97.30232558139535,
          "velocity": 0.2047244094488189
        },
        {
          "duration": 0.06976744186046346,
          "durationTicks": 6,
          "midi": 63,
          "name": "D#4",
          "ticks": 8372,
          "time": 97.34883720930233,
          "velocity": 0.18110236220472442
        },
        {
          "duration": 0.05813953488372192,
          "durationTicks": 5,
          "midi": 82,
          "name": "A#5",
          "ticks": 8372,
          "time": 97.34883720930233,
          "velocity": 0.07874015748031496
        },
        {
          "duration": 0.15116279069768268,
          "durationTicks": 13,
          "midi": 61,
          "name": "C#4",
          "ticks": 8382,
          "time": 97.46511627906976,
          "velocity": 0.2047244094488189
        },
        {
          "duration": 0.2325581395348877,
          "durationTicks": 20,
          "midi": 45,
          "name": "A2",
          "ticks": 8387,
          "time": 97.52325581395348,
          "velocity": 0.25984251968503935
        },
        {
          "duration": 0.16279069767442422,
          "durationTicks": 14,
          "midi": 64,
          "name": "E4",
          "ticks": 8391,
          "time": 97.56976744186046,
          "velocity": 0.2204724409448819
        },
        {
          "duration": 0.12790697674418539,
          "durationTicks": 11,
          "midi": 76,
          "name": "E5",
          "ticks": 8395,
          "time": 97.61627906976744,
          "velocity": 0.2204724409448819
        },
        {
          "duration": 0.1046511627907023,
          "durationTicks": 9,
          "midi": 75,
          "name": "D#5",
          "ticks": 8406,
          "time": 97.74418604651163,
          "velocity": 0.2283464566929134
        },
        {
          "duration": 0.081395348837205,
          "durationTicks": 7,
          "midi": 63,
          "name": "D#4",
          "ticks": 8407,
          "time": 97.75581395348837,
          "velocity": 0.23622047244094488
        },
        {
          "duration": 0.24418604651162923,
          "durationTicks": 21,
          "midi": 45,
          "name": "A2",
          "ticks": 8409,
          "time": 97.77906976744185,
          "velocity": 0.25984251968503935
        },
        {
          "duration": 0.1860465116279073,
          "durationTicks": 16,
          "midi": 64,
          "name": "E4",
          "ticks": 8414,
          "time": 97.83720930232558,
          "velocity": 0.25984251968503935
        },
        {
          "duration": 0.12790697674418539,
          "durationTicks": 11,
          "midi": 83,
          "name": "B5",
          "ticks": 8419,
          "time": 97.8953488372093,
          "velocity": 0.13385826771653545
        },
        {
          "duration": 0.2093023255814046,
          "durationTicks": 18,
          "midi": 73,
          "name": "C#5",
          "ticks": 8430,
          "time": 98.02325581395348,
          "velocity": 0.1968503937007874
        },
        {
          "duration": 0.19767441860464885,
          "durationTicks": 17,
          "midi": 61,
          "name": "C#4",
          "ticks": 8431,
          "time": 98.03488372093024,
          "velocity": 0.2047244094488189
        },
        {
          "duration": 0.15116279069766847,
          "durationTicks": 13,
          "midi": 45,
          "name": "A2",
          "ticks": 8432,
          "time": 98.04651162790698,
          "velocity": 0.2755905511811024
        },
        {
          "duration": 0.3720930232558146,
          "durationTicks": 32,
          "midi": 45,
          "name": "A2",
          "ticks": 8450,
          "time": 98.25581395348837,
          "velocity": 0.25196850393700787
        },
        {
          "duration": 0.24418604651162923,
          "durationTicks": 21,
          "midi": 73,
          "name": "C#5",
          "ticks": 8467,
          "time": 98.45348837209302,
          "velocity": 0.1968503937007874
        },
        {
          "duration": 0.2906976744186096,
          "durationTicks": 25,
          "midi": 85,
          "name": "C#6",
          "ticks": 8467,
          "time": 98.45348837209302,
          "velocity": 0.2125984251968504
        },
        {
          "duration": 0.2325581395348877,
          "durationTicks": 20,
          "midi": 61,
          "name": "C#4",
          "ticks": 8468,
          "time": 98.46511627906976,
          "velocity": 0.2204724409448819
        },
        {
          "duration": 0.081395348837205,
          "durationTicks": 7,
          "midi": 52,
          "name": "E3",
          "ticks": 8482,
          "time": 98.62790697674419,
          "velocity": 0.10236220472440945
        },
        {
          "duration": 0.24418604651162923,
          "durationTicks": 21,
          "midi": 45,
          "name": "A2",
          "ticks": 8483,
          "time": 98.63953488372093,
          "velocity": 0.30708661417322836
        },
        {
          "duration": 0.10465116279068809,
          "durationTicks": 9,
          "midi": 75,
          "name": "D#5",
          "ticks": 8491,
          "time": 98.73255813953489,
          "velocity": 0.2125984251968504
        },
        {
          "duration": 0.09302325581394655,
          "durationTicks": 8,
          "midi": 63,
          "name": "D#4",
          "ticks": 8492,
          "time": 98.74418604651163,
          "velocity": 0.2204724409448819
        },
        {
          "duration": 0.04651162790698038,
          "durationTicks": 4,
          "midi": 52,
          "name": "E3",
          "ticks": 8499,
          "time": 98.82558139534883,
          "velocity": 0.07874015748031496
        },
        {
          "duration": 0.1046511627907023,
          "durationTicks": 9,
          "midi": 76,
          "name": "E5",
          "ticks": 8503,
          "time": 98.87209302325581,
          "velocity": 0.15748031496062992
        },
        {
          "duration": 0.1046511627907023,
          "durationTicks": 9,
          "midi": 64,
          "name": "E4",
          "ticks": 8504,
          "time": 98.88372093023256,
          "velocity": 0.2047244094488189
        },
        {
          "duration": 0.2674418604651123,
          "durationTicks": 23,
          "midi": 45,
          "name": "A2",
          "ticks": 8507,
          "time": 98.9186046511628,
          "velocity": 0.23622047244094488
        },
        {
          "duration": 0.11627906976744384,
          "durationTicks": 10,
          "midi": 83,
          "name": "B5",
          "ticks": 8514,
          "time": 99,
          "velocity": 0.2677165354330709
        },
        {
          "duration": 0.08139534883721922,
          "durationTicks": 7,
          "midi": 71,
          "name": "B4",
          "ticks": 8516,
          "time": 99.02325581395348,
          "velocity": 0.16535433070866143
        },
        {
          "duration": 0.034883720930224626,
          "durationTicks": 3,
          "midi": 52,
          "name": "E3",
          "ticks": 8523,
          "time": 99.1046511627907,
          "velocity": 0.07874015748031496
        },
        {
          "duration": 0.03488372093023884,
          "durationTicks": 3,
          "midi": 52,
          "name": "E3",
          "ticks": 8527,
          "time": 99.15116279069767,
          "velocity": 0.14173228346456693
        },
        {
          "duration": 0.5813953488372192,
          "durationTicks": 50,
          "midi": 80,
          "name": "G#5",
          "ticks": 8527,
          "time": 99.15116279069767,
          "velocity": 0.23622047244094488
        },
        {
          "duration": 0.25581395348837077,
          "durationTicks": 22,
          "midi": 45,
          "name": "A2",
          "ticks": 8533,
          "time": 99.22093023255815,
          "velocity": 0.2755905511811024
        },
        {
          "duration": 0.4418604651162781,
          "durationTicks": 38,
          "midi": 68,
          "name": "G#4",
          "ticks": 8539,
          "time": 99.29069767441861,
          "velocity": 0.18110236220472442
        },
        {
          "duration": 0.24418604651162923,
          "durationTicks": 21,
          "midi": 45,
          "name": "A2",
          "ticks": 8556,
          "time": 99.48837209302326,
          "velocity": 0.2755905511811024
        },
        {
          "duration": 0.03488372093023884,
          "durationTicks": 3,
          "midi": 54,
          "name": "F#3",
          "ticks": 8574,
          "time": 99.69767441860465,
          "velocity": 0.07086614173228346
        },
        {
          "duration": 0.11627906976744384,
          "durationTicks": 10,
          "midi": 61,
          "name": "C#4",
          "ticks": 8579,
          "time": 99.75581395348837,
          "velocity": 0.2047244094488189
        },
        {
          "duration": 0.11627906976744384,
          "durationTicks": 10,
          "midi": 85,
          "name": "C#6",
          "ticks": 8579,
          "time": 99.75581395348837,
          "velocity": 0.16535433070866143
        },
        {
          "duration": 0.2093023255814046,
          "durationTicks": 18,
          "midi": 47,
          "name": "B2",
          "ticks": 8581,
          "time": 99.77906976744185,
          "velocity": 0.2283464566929134
        },
        {
          "duration": 0.034883720930224626,
          "durationTicks": 3,
          "midi": 35,
          "name": "B1",
          "ticks": 8582,
          "time": 99.79069767441861,
          "velocity": 0.14173228346456693
        },
        {
          "duration": 0.06976744186046346,
          "durationTicks": 6,
          "midi": 54,
          "name": "F#3",
          "ticks": 8585,
          "time": 99.82558139534883,
          "velocity": 0.08661417322834646
        },
        {
          "duration": 0.03488372093023884,
          "durationTicks": 3,
          "midi": 35,
          "name": "B1",
          "ticks": 8586,
          "time": 99.83720930232558,
          "velocity": 0.13385826771653545
        },
        {
          "duration": 0.081395348837205,
          "durationTicks": 7,
          "midi": 68,
          "name": "G#4",
          "ticks": 8589,
          "time": 99.87209302325581,
          "velocity": 0.07874015748031496
        },
        {
          "duration": 0.10465116279068809,
          "durationTicks": 9,
          "midi": 76,
          "name": "E5",
          "ticks": 8592,
          "time": 99.90697674418605,
          "velocity": 0.1968503937007874
        },
        {
          "duration": 0.10465116279068809,
          "durationTicks": 9,
          "midi": 64,
          "name": "E4",
          "ticks": 8593,
          "time": 99.9186046511628,
          "velocity": 0.2204724409448819
        },
        {
          "duration": 0.05813953488372192,
          "durationTicks": 5,
          "midi": 35,
          "name": "B1",
          "ticks": 8594,
          "time": 99.93023255813954,
          "velocity": 0.12598425196850394
        },
        {
          "duration": 0.05813953488372192,
          "durationTicks": 5,
          "midi": 92,
          "name": "G#6",
          "ticks": 8594,
          "time": 99.93023255813954,
          "velocity": 0.07086614173228346
        },
        {
          "duration": 0.034883720930224626,
          "durationTicks": 3,
          "midi": 36,
          "name": "C2",
          "ticks": 8599,
          "time": 99.98837209302326,
          "velocity": 0.13385826771653545
        },
        {
          "duration": 0.081395348837205,
          "durationTicks": 7,
          "midi": 78,
          "name": "F#5",
          "ticks": 8600,
          "time": 100,
          "velocity": 0.08661417322834646
        },
        {
          "duration": 0.081395348837205,
          "durationTicks": 7,
          "midi": 59,
          "name": "B3",
          "ticks": 8604,
          "time": 100.04651162790698,
          "velocity": 0.09448818897637795
        },
        {
          "duration": 0.06976744186046346,
          "durationTicks": 6,
          "midi": 63,
          "name": "D#4",
          "ticks": 8604,
          "time": 100.04651162790698,
          "velocity": 0.1889763779527559
        },
        {
          "duration": 0.06976744186046346,
          "durationTicks": 6,
          "midi": 75,
          "name": "D#5",
          "ticks": 8604,
          "time": 100.04651162790698,
          "velocity": 0.1889763779527559
        },
        {
          "duration": 0.22093023255813193,
          "durationTicks": 19,
          "midi": 47,
          "name": "B2",
          "ticks": 8605,
          "time": 100.05813953488372,
          "velocity": 0.16535433070866143
        },
        {
          "duration": 0.17441860465116577,
          "durationTicks": 15,
          "midi": 64,
          "name": "E4",
          "ticks": 8610,
          "time": 100.11627906976744,
          "velocity": 0.23622047244094488
        },
        {
          "duration": 0.04651162790696617,
          "durationTicks": 4,
          "midi": 54,
          "name": "F#3",
          "ticks": 8614,
          "time": 100.16279069767442,
          "velocity": 0.08661417322834646
        },
        {
          "duration": 0.09302325581394655,
          "durationTicks": 8,
          "midi": 83,
          "name": "B5",
          "ticks": 8614,
          "time": 100.16279069767442,
          "velocity": 0.07086614173228346
        },
        {
          "duration": 0.3720930232558146,
          "durationTicks": 32,
          "midi": 61,
          "name": "C#4",
          "ticks": 8628,
          "time": 100.32558139534883,
          "velocity": 0.2440944881889764
        },
        {
          "duration": 0.10465116279068809,
          "durationTicks": 9,
          "midi": 47,
          "name": "B2",
          "ticks": 8630,
          "time": 100.34883720930233,
          "velocity": 0.12598425196850394
        },
        {
          "duration": 0.13953488372092693,
          "durationTicks": 12,
          "midi": 47,
          "name": "B2",
          "ticks": 8641,
          "time": 100.47674418604652,
          "velocity": 0.2047244094488189
        },
        {
          "duration": 0.13953488372092693,
          "durationTicks": 12,
          "midi": 35,
          "name": "B1",
          "ticks": 8642,
          "time": 100.48837209302326,
          "velocity": 0.13385826771653545
        },
        {
          "duration": 0.1046511627907023,
          "durationTicks": 9,
          "midi": 54,
          "name": "F#3",
          "ticks": 8651,
          "time": 100.59302325581395,
          "velocity": 0.07874015748031496
        },
        {
          "duration": 0.25581395348837077,
          "durationTicks": 22,
          "midi": 47,
          "name": "B2",
          "ticks": 8654,
          "time": 100.62790697674419,
          "velocity": 0.2204724409448819
        },
        {
          "duration": 0.05813953488372192,
          "durationTicks": 5,
          "midi": 35,
          "name": "B1",
          "ticks": 8656,
          "time": 100.65116279069767,
          "velocity": 0.16535433070866143
        },
        {
          "duration": 0.27906976744185386,
          "durationTicks": 24,
          "midi": 85,
          "name": "C#6",
          "ticks": 8664,
          "time": 100.74418604651163,
          "velocity": 0.16535433070866143
        },
        {
          "duration": 0.15116279069768268,
          "durationTicks": 13,
          "midi": 35,
          "name": "B1",
          "ticks": 8665,
          "time": 100.75581395348837,
          "velocity": 0.14960629921259844
        },
        {
          "duration": 0.2325581395348877,
          "durationTicks": 20,
          "midi": 73,
          "name": "C#5",
          "ticks": 8665,
          "time": 100.75581395348837,
          "velocity": 0.15748031496062992
        },
        {
          "duration": 0.25581395348837077,
          "durationTicks": 22,
          "midi": 61,
          "name": "C#4",
          "ticks": 8666,
          "time": 100.76744186046511,
          "velocity": 0.25196850393700787
        },
        {
          "duration": 0.03488372093023884,
          "durationTicks": 3,
          "midi": 48,
          "name": "C3",
          "ticks": 8676,
          "time": 100.88372093023256,
          "velocity": 0.14173228346456693
        },
        {
          "duration": 0.12790697674418539,
          "durationTicks": 11,
          "midi": 54,
          "name": "F#3",
          "ticks": 8678,
          "time": 100.90697674418605,
          "velocity": 0.14960629921259844
        },
        {
          "duration": 0.25581395348837077,
          "durationTicks": 22,
          "midi": 47,
          "name": "B2",
          "ticks": 8679,
          "time": 100.9186046511628,
          "velocity": 0.23622047244094488
        },
        {
          "duration": 0.04651162790698038,
          "durationTicks": 4,
          "midi": 35,
          "name": "B1",
          "ticks": 8682,
          "time": 100.95348837209302,
          "velocity": 0.10236220472440945
        },
        {
          "duration": 0.03488372093023884,
          "durationTicks": 3,
          "midi": 35,
          "name": "B1",
          "ticks": 8687,
          "time": 101.01162790697674,
          "velocity": 0.09448818897637795
        },
        {
          "duration": 0.08139534883721922,
          "durationTicks": 7,
          "midi": 75,
          "name": "D#5",
          "ticks": 8688,
          "time": 101.02325581395348,
          "velocity": 0.1968503937007874
        },
        {
          "duration": 0.06976744186046346,
          "durationTicks": 6,
          "midi": 63,
          "name": "D#4",
          "ticks": 8689,
          "time": 101.03488372093024,
          "velocity": 0.2047244094488189
        },
        {
          "duration": 0.06976744186046346,
          "durationTicks": 6,
          "midi": 82,
          "name": "A#5",
          "ticks": 8689,
          "time": 101.03488372093024,
          "velocity": 0.11023622047244094
        },
        {
          "duration": 0.03488372093023884,
          "durationTicks": 3,
          "midi": 35,
          "name": "B1",
          "ticks": 8694,
          "time": 101.09302325581395,
          "velocity": 0.09448818897637795
        },
        {
          "duration": 0.11627906976744384,
          "durationTicks": 10,
          "midi": 64,
          "name": "E4",
          "ticks": 8699,
          "time": 101.15116279069767,
          "velocity": 0.1732283464566929
        },
        {
          "duration": 0.09302325581394655,
          "durationTicks": 8,
          "midi": 54,
          "name": "F#3",
          "ticks": 8700,
          "time": 101.16279069767442,
          "velocity": 0.14960629921259844
        },
        {
          "duration": 0.23255813953487348,
          "durationTicks": 20,
          "midi": 47,
          "name": "B2",
          "ticks": 8705,
          "time": 101.22093023255815,
          "velocity": 0.2125984251968504
        },
        {
          "duration": 0.1046511627907023,
          "durationTicks": 9,
          "midi": 83,
          "name": "B5",
          "ticks": 8710,
          "time": 101.27906976744185,
          "velocity": 0.2204724409448819
        },
        {
          "duration": 0.09302325581394655,
          "durationTicks": 8,
          "midi": 71,
          "name": "B4",
          "ticks": 8711,
          "time": 101.29069767441861,
          "velocity": 0.18110236220472442
        },
        {
          "duration": 0.09302325581394655,
          "durationTicks": 8,
          "midi": 35,
          "name": "B1",
          "ticks": 8712,
          "time": 101.30232558139535,
          "velocity": 0.07874015748031496
        },
        {
          "duration": 0.5930232558139465,
          "durationTicks": 51,
          "midi": 68,
          "name": "G#4",
          "ticks": 8722,
          "time": 101.4186046511628,
          "velocity": 0.18110236220472442
        },
        {
          "duration": 0.581395348837205,
          "durationTicks": 50,
          "midi": 80,
          "name": "G#5",
          "ticks": 8722,
          "time": 101.4186046511628,
          "velocity": 0.2440944881889764
        },
        {
          "duration": 0.06976744186046346,
          "durationTicks": 6,
          "midi": 59,
          "name": "B3",
          "ticks": 8725,
          "time": 101.45348837209302,
          "velocity": 0.11023622047244094
        },
        {
          "duration": 0.1046511627907023,
          "durationTicks": 9,
          "midi": 47,
          "name": "B2",
          "ticks": 8729,
          "time": 101.5,
          "velocity": 0.2047244094488189
        },
        {
          "duration": 0.19767441860464885,
          "durationTicks": 17,
          "midi": 35,
          "name": "B1",
          "ticks": 8730,
          "time": 101.51162790697674,
          "velocity": 0.13385826771653545
        },
        {
          "duration": 0.06976744186047767,
          "durationTicks": 6,
          "midi": 54,
          "name": "F#3",
          "ticks": 8737,
          "time": 101.59302325581395,
          "velocity": 0.11811023622047244
        },
        {
          "duration": 0.11627906976744384,
          "durationTicks": 10,
          "midi": 47,
          "name": "B2",
          "ticks": 8740,
          "time": 101.62790697674419,
          "velocity": 0.2125984251968504
        },
        {
          "duration": 0.09302325581394655,
          "durationTicks": 8,
          "midi": 54,
          "name": "F#3",
          "ticks": 8748,
          "time": 101.72093023255815,
          "velocity": 0.11023622047244094
        },
        {
          "duration": 0.15116279069768268,
          "durationTicks": 13,
          "midi": 47,
          "name": "B2",
          "ticks": 8751,
          "time": 101.75581395348837,
          "velocity": 0.2204724409448819
        },
        {
          "duration": 0.04651162790696617,
          "durationTicks": 4,
          "midi": 48,
          "name": "C3",
          "ticks": 8764,
          "time": 101.90697674418605,
          "velocity": 0.12598425196850394
        },
        {
          "duration": 0.034883720930224626,
          "durationTicks": 3,
          "midi": 36,
          "name": "C2",
          "ticks": 8766,
          "time": 101.93023255813954,
          "velocity": 0.07086614173228346
        },
        {
          "duration": 0.03488372093023884,
          "durationTicks": 3,
          "midi": 64,
          "name": "E4",
          "ticks": 8772,
          "time": 102,
          "velocity": 0.08661417322834646
        },
        {
          "duration": 0.17441860465116577,
          "durationTicks": 15,
          "midi": 61,
          "name": "C#4",
          "ticks": 8773,
          "time": 102.01162790697674,
          "velocity": 0.1968503937007874
        },
        {
          "duration": 0.23255813953487348,
          "durationTicks": 20,
          "midi": 56,
          "name": "G#3",
          "ticks": 8775,
          "time": 102.03488372093024,
          "velocity": 0.16535433070866143
        },
        {
          "duration": 0.09302325581394655,
          "durationTicks": 8,
          "midi": 37,
          "name": "C#2",
          "ticks": 8777,
          "time": 102.05813953488372,
          "velocity": 0.13385826771653545
        },
        {
          "duration": 0.10465116279068809,
          "durationTicks": 9,
          "midi": 64,
          "name": "E4",
          "ticks": 8787,
          "time": 102.17441860465117,
          "velocity": 0.2047244094488189
        },
        {
          "duration": 0.12790697674418539,
          "durationTicks": 11,
          "midi": 76,
          "name": "E5",
          "ticks": 8787,
          "time": 102.17441860465117,
          "velocity": 0.2125984251968504
        },
        {
          "duration": 0.09302325581394655,
          "durationTicks": 8,
          "midi": 37,
          "name": "C#2",
          "ticks": 8788,
          "time": 102.18604651162791,
          "velocity": 0.11811023622047244
        },
        {
          "duration": 0.081395348837205,
          "durationTicks": 7,
          "midi": 63,
          "name": "D#4",
          "ticks": 8798,
          "time": 102.30232558139535,
          "velocity": 0.2047244094488189
        },
        {
          "duration": 0.081395348837205,
          "durationTicks": 7,
          "midi": 75,
          "name": "D#5",
          "ticks": 8798,
          "time": 102.30232558139535,
          "velocity": 0.2047244094488189
        },
        {
          "duration": 0.25581395348837077,
          "durationTicks": 22,
          "midi": 49,
          "name": "C#3",
          "ticks": 8801,
          "time": 102.33720930232558,
          "velocity": 0.14960629921259844
        },
        {
          "duration": 0.2093023255813904,
          "durationTicks": 18,
          "midi": 37,
          "name": "C#2",
          "ticks": 8802,
          "time": 102.34883720930233,
          "velocity": 0.18110236220472442
        },
        {
          "duration": 0.04651162790698038,
          "durationTicks": 4,
          "midi": 64,
          "name": "E4",
          "ticks": 8805,
          "time": 102.38372093023256,
          "velocity": 0.2047244094488189
        },
        {
          "duration": 0.22093023255814614,
          "durationTicks": 19,
          "midi": 76,
          "name": "E5",
          "ticks": 8805,
          "time": 102.38372093023256,
          "velocity": 0.2440944881889764
        },
        {
          "duration": 0.2674418604651265,
          "durationTicks": 23,
          "midi": 64,
          "name": "E4",
          "ticks": 8811,
          "time": 102.45348837209302,
          "velocity": 0.2204724409448819
        },
        {
          "duration": 0.034883720930224626,
          "durationTicks": 3,
          "midi": 83,
          "name": "B5",
          "ticks": 8819,
          "time": 102.54651162790698,
          "velocity": 0.07086614173228346
        },
        {
          "duration": 0.05813953488372192,
          "durationTicks": 5,
          "midi": 36,
          "name": "C2",
          "ticks": 8822,
          "time": 102.5813953488372,
          "velocity": 0.1732283464566929
        },
        {
          "duration": 0.2325581395348877,
          "durationTicks": 20,
          "midi": 73,
          "name": "C#5",
          "ticks": 8823,
          "time": 102.59302325581395,
          "velocity": 0.1889763779527559
        },
        {
          "duration": 0.255813953488385,
          "durationTicks": 22,
          "midi": 85,
          "name": "C#6",
          "ticks": 8823,
          "time": 102.59302325581395,
          "velocity": 0.1889763779527559
        },
        {
          "duration": 0.1046511627907023,
          "durationTicks": 9,
          "midi": 49,
          "name": "C#3",
          "ticks": 8825,
          "time": 102.61627906976744,
          "velocity": 0.12598425196850394
        },
        {
          "duration": 0.19767441860464885,
          "durationTicks": 17,
          "midi": 61,
          "name": "C#4",
          "ticks": 8825,
          "time": 102.61627906976744,
          "velocity": 0.1732283464566929
        },
        {
          "duration": 0.11627906976744384,
          "durationTicks": 10,
          "midi": 37,
          "name": "C#2",
          "ticks": 8827,
          "time": 102.63953488372093,
          "velocity": 0.18110236220472442
        },
        {
          "duration": 0.11627906976744384,
          "durationTicks": 10,
          "midi": 37,
          "name": "C#2",
          "ticks": 8838,
          "time": 102.76744186046511,
          "velocity": 0.15748031496062992
        },
        {
          "duration": 0.06976744186047767,
          "durationTicks": 6,
          "midi": 64,
          "name": "E4",
          "ticks": 8839,
          "time": 102.77906976744185,
          "velocity": 0.11023622047244094
        },
        {
          "duration": 0.03488372093023884,
          "durationTicks": 3,
          "midi": 60,
          "name": "C4",
          "ticks": 8842,
          "time": 102.81395348837209,
          "velocity": 0.07874015748031496
        },
        {
          "duration": 0.04651162790698038,
          "durationTicks": 4,
          "midi": 61,
          "name": "C#4",
          "ticks": 8846,
          "time": 102.86046511627907,
          "velocity": 0.07086614173228346
        },
        {
          "duration": 0.11627906976742963,
          "durationTicks": 10,
          "midi": 49,
          "name": "C#3",
          "ticks": 8850,
          "time": 102.90697674418605,
          "velocity": 0.11811023622047244
        },
        {
          "duration": 0.09302325581396076,
          "durationTicks": 8,
          "midi": 37,
          "name": "C#2",
          "ticks": 8853,
          "time": 102.94186046511628,
          "velocity": 0.1732283464566929
        },
        {
          "duration": 0.25581395348837077,
          "durationTicks": 22,
          "midi": 61,
          "name": "C#4",
          "ticks": 8859,
          "time": 103.01162790697674,
          "velocity": 0.25196850393700787
        },
        {
          "duration": 0.12790697674418539,
          "durationTicks": 11,
          "midi": 37,
          "name": "C#2",
          "ticks": 8862,
          "time": 103.04651162790698,
          "velocity": 0.15748031496062992
        },
        {
          "duration": 0.2325581395348877,
          "durationTicks": 20,
          "midi": 85,
          "name": "C#6",
          "ticks": 8863,
          "time": 103.05813953488372,
          "velocity": 0.14173228346456693
        },
        {
          "duration": 0.05813953488372192,
          "durationTicks": 5,
          "midi": 49,
          "name": "C#3",
          "ticks": 8878,
          "time": 103.23255813953489,
          "velocity": 0.11811023622047244
        },
        {
          "duration": 0.04651162790698038,
          "durationTicks": 4,
          "midi": 37,
          "name": "C#2",
          "ticks": 8879,
          "time": 103.24418604651163,
          "velocity": 0.12598425196850394
        },
        {
          "duration": 0.12790697674418539,
          "durationTicks": 11,
          "midi": 49,
          "name": "C#3",
          "ticks": 8884,
          "time": 103.30232558139535,
          "velocity": 0.11023622047244094
        },
        {
          "duration": 0.09302325581394655,
          "durationTicks": 8,
          "midi": 75,
          "name": "D#5",
          "ticks": 8884,
          "time": 103.30232558139535,
          "velocity": 0.2125984251968504
        },
        {
          "duration": 0.081395348837205,
          "durationTicks": 7,
          "midi": 82,
          "name": "A#5",
          "ticks": 8884,
          "time": 103.30232558139535,
          "velocity": 0.08661417322834646
        },
        {
          "duration": 0.17441860465116577,
          "durationTicks": 15,
          "midi": 37,
          "name": "C#2",
          "ticks": 8885,
          "time": 103.31395348837209,
          "velocity": 0.11023622047244094
        },
        {
          "duration": 0.081395348837205,
          "durationTicks": 7,
          "midi": 63,
          "name": "D#4",
          "ticks": 8885,
          "time": 103.31395348837209,
          "velocity": 0.2047244094488189
        },
        {
          "duration": 0.11627906976744384,
          "durationTicks": 10,
          "midi": 76,
          "name": "E5",
          "ticks": 8896,
          "time": 103.44186046511628,
          "velocity": 0.2047244094488189
        },
        {
          "duration": 0.1046511627907023,
          "durationTicks": 9,
          "midi": 64,
          "name": "E4",
          "ticks": 8897,
          "time": 103.45348837209302,
          "velocity": 0.1732283464566929
        },
        {
          "duration": 0.034883720930224626,
          "durationTicks": 3,
          "midi": 56,
          "name": "G#3",
          "ticks": 8899,
          "time": 103.47674418604652,
          "velocity": 0.07086614173228346
        },
        {
          "duration": 0.04651162790698038,
          "durationTicks": 4,
          "midi": 61,
          "name": "C#4",
          "ticks": 8900,
          "time": 103.48837209302326,
          "velocity": 0.08661417322834646
        },
        {
          "duration": 0.22093023255814614,
          "durationTicks": 19,
          "midi": 49,
          "name": "C#3",
          "ticks": 8901,
          "time": 103.5,
          "velocity": 0.12598425196850394
        },
        {
          "duration": 0.16279069767442422,
          "durationTicks": 14,
          "midi": 37,
          "name": "C#2",
          "ticks": 8903,
          "time": 103.52325581395348,
          "velocity": 0.11023622047244094
        },
        {
          "duration": 0.05813953488372192,
          "durationTicks": 5,
          "midi": 65,
          "name": "F4",
          "ticks": 8908,
          "time": 103.5813953488372,
          "velocity": 0.15748031496062992
        },
        {
          "duration": 0.04651162790698038,
          "durationTicks": 4,
          "midi": 37,
          "name": "C#2",
          "ticks": 8918,
          "time": 103.69767441860465,
          "velocity": 0.10236220472440945
        },
        {
          "duration": 0.3139534883720927,
          "durationTicks": 27,
          "midi": 80,
          "name": "G#5",
          "ticks": 8919,
          "time": 103.70930232558139,
          "velocity": 0.2283464566929134
        },
        {
          "duration": 0.2674418604651123,
          "durationTicks": 23,
          "midi": 68,
          "name": "G#4",
          "ticks": 8920,
          "time": 103.72093023255815,
          "velocity": 0.1889763779527559
        },
        {
          "duration": 0.04651162790696617,
          "durationTicks": 4,
          "midi": 73,
          "name": "C#5",
          "ticks": 8920,
          "time": 103.72093023255815,
          "velocity": 0.07086614173228346
        },
        {
          "duration": 0.1046511627907023,
          "durationTicks": 9,
          "midi": 49,
          "name": "C#3",
          "ticks": 8925,
          "time": 103.77906976744185,
          "velocity": 0.09448818897637795
        },
        {
          "duration": 0.09302325581394655,
          "durationTicks": 8,
          "midi": 37,
          "name": "C#2",
          "ticks": 8927,
          "time": 103.80232558139535,
          "velocity": 0.09448818897637795
        },
        {
          "duration": 0.081395348837205,
          "durationTicks": 7,
          "midi": 37,
          "name": "C#2",
          "ticks": 8937,
          "time": 103.9186046511628,
          "velocity": 0.14173228346456693
        },
        {
          "duration": 0.06976744186046346,
          "durationTicks": 6,
          "midi": 37,
          "name": "C#2",
          "ticks": 8948,
          "time": 104.04651162790698,
          "velocity": 0.2283464566929134
        },
        {
          "duration": 0.034883720930224626,
          "durationTicks": 3,
          "midi": 56,
          "name": "G#3",
          "ticks": 8948,
          "time": 104.04651162790698,
          "velocity": 0.09448818897637795
        },
        {
          "duration": 0.15116279069766847,
          "durationTicks": 13,
          "midi": 37,
          "name": "C#2",
          "ticks": 8955,
          "time": 104.12790697674419,
          "velocity": 0.2125984251968504
        },
        {
          "duration": 0.034883720930224626,
          "durationTicks": 3,
          "midi": 55,
          "name": "G3",
          "ticks": 8958,
          "time": 104.16279069767442,
          "velocity": 0.1889763779527559
        },
        {
          "duration": 0.034883720930224626,
          "durationTicks": 3,
          "midi": 55,
          "name": "G3",
          "ticks": 8963,
          "time": 104.22093023255815,
          "velocity": 0.16535433070866143
        },
        {
          "duration": 0.10465116279068809,
          "durationTicks": 9,
          "midi": 69,
          "name": "A4",
          "ticks": 8969,
          "time": 104.29069767441861,
          "velocity": 0.1732283464566929
        },
        {
          "duration": 0.10465116279068809,
          "durationTicks": 9,
          "midi": 85,
          "name": "C#6",
          "ticks": 8969,
          "time": 104.29069767441861,
          "velocity": 0.18110236220472442
        },
        {
          "duration": 0.023255813953483084,
          "durationTicks": 2,
          "midi": 48,
          "name": "C3",
          "ticks": 8975,
          "time": 104.36046511627907,
          "velocity": 0.2283464566929134
        },
        {
          "duration": 0.05813953488372192,
          "durationTicks": 5,
          "midi": 54,
          "name": "F#3",
          "ticks": 8976,
          "time": 104.37209302325581,
          "velocity": 0.23622047244094488
        },
        {
          "duration": 0.15116279069768268,
          "durationTicks": 13,
          "midi": 47,
          "name": "B2",
          "ticks": 8977,
          "time": 104.38372093023256,
          "velocity": 0.23622047244094488
        },
        {
          "duration": 0.05813953488372192,
          "durationTicks": 5,
          "midi": 58,
          "name": "A#3",
          "ticks": 8978,
          "time": 104.3953488372093,
          "velocity": 0.15748031496062992
        },
        {
          "duration": 0.04651162790696617,
          "durationTicks": 4,
          "midi": 35,
          "name": "B1",
          "ticks": 8979,
          "time": 104.40697674418605,
          "velocity": 0.13385826771653545
        },
        {
          "duration": 0.034883720930224626,
          "durationTicks": 3,
          "midi": 86,
          "name": "D6",
          "ticks": 8979,
          "time": 104.40697674418605,
          "velocity": 0.07086614173228346
        },
        {
          "duration": 0.04651162790696617,
          "durationTicks": 4,
          "midi": 35,
          "name": "B1",
          "ticks": 8985,
          "time": 104.47674418604652,
          "velocity": 0.11811023622047244
        },
        {
          "duration": 0.24418604651162923,
          "durationTicks": 21,
          "midi": 78,
          "name": "F#5",
          "ticks": 8986,
          "time": 104.48837209302326,
          "velocity": 0.14173228346456693
        },
        {
          "duration": 0.04651162790698038,
          "durationTicks": 4,
          "midi": 54,
          "name": "F#3",
          "ticks": 8987,
          "time": 104.5,
          "velocity": 0.07874015748031496
        },
        {
          "duration": 0.03488372093023884,
          "durationTicks": 3,
          "midi": 36,
          "name": "C2",
          "ticks": 8989,
          "time": 104.52325581395348,
          "velocity": 0.11811023622047244
        },
        {
          "duration": 0.16279069767442422,
          "durationTicks": 14,
          "midi": 47,
          "name": "B2",
          "ticks": 8995,
          "time": 104.59302325581395,
          "velocity": 0.2047244094488189
        },
        {
          "duration": 0.081395348837205,
          "durationTicks": 7,
          "midi": 54,
          "name": "F#3",
          "ticks": 8997,
          "time": 104.61627906976744,
          "velocity": 0.11811023622047244
        },
        {
          "duration": 0.034883720930224626,
          "durationTicks": 3,
          "midi": 35,
          "name": "B1",
          "ticks": 9002,
          "time": 104.67441860465117,
          "velocity": 0.07874015748031496
        },
        {
          "duration": 0.10465116279068809,
          "durationTicks": 9,
          "midi": 76,
          "name": "E5",
          "ticks": 9007,
          "time": 104.73255813953489,
          "velocity": 0.2283464566929134
        },
        {
          "duration": 0.09302325581396076,
          "durationTicks": 8,
          "midi": 64,
          "name": "E4",
          "ticks": 9009,
          "time": 104.75581395348837,
          "velocity": 0.25196850393700787
        },
        {
          "duration": 0.05813953488372192,
          "durationTicks": 5,
          "midi": 47,
          "name": "B2",
          "ticks": 9010,
          "time": 104.76744186046511,
          "velocity": 0.07086614173228346
        },
        {
          "duration": 0.05813953488372192,
          "durationTicks": 5,
          "midi": 77,
          "name": "F5",
          "ticks": 9016,
          "time": 104.83720930232558,
          "velocity": 0.2125984251968504
        },
        {
          "duration": 0.04651162790696617,
          "durationTicks": 4,
          "midi": 65,
          "name": "F4",
          "ticks": 9017,
          "time": 104.84883720930233,
          "velocity": 0.25984251968503935
        },
        {
          "duration": 0.03488372093023884,
          "durationTicks": 3,
          "midi": 47,
          "name": "B2",
          "ticks": 9019,
          "time": 104.87209302325581,
          "velocity": 0.11023622047244094
        },
        {
          "duration": 0.1860465116279073,
          "durationTicks": 16,
          "midi": 66,
          "name": "F#4",
          "ticks": 9021,
          "time": 104.8953488372093,
          "velocity": 0.31496062992125984
        },
        {
          "duration": 0.05813953488372192,
          "durationTicks": 5,
          "midi": 47,
          "name": "B2",
          "ticks": 9024,
          "time": 104.93023255813954,
          "velocity": 0.10236220472440945
        },
        {
          "duration": 0.09302325581396076,
          "durationTicks": 8,
          "midi": 47,
          "name": "B2",
          "ticks": 9032,
          "time": 105.02325581395348,
          "velocity": 0.13385826771653545
        },
        {
          "duration": 0.06976744186046346,
          "durationTicks": 6,
          "midi": 35,
          "name": "B1",
          "ticks": 9034,
          "time": 105.04651162790698,
          "velocity": 0.09448818897637795
        },
        {
          "duration": 0.03488372093023884,
          "durationTicks": 3,
          "midi": 65,
          "name": "F4",
          "ticks": 9037,
          "time": 105.0813953488372,
          "velocity": 0.23622047244094488
        },
        {
          "duration": 0.2674418604651123,
          "durationTicks": 23,
          "midi": 83,
          "name": "B5",
          "ticks": 9041,
          "time": 105.12790697674419,
          "velocity": 0.09448818897637795
        },
        {
          "duration": 0.23255813953487348,
          "durationTicks": 20,
          "midi": 64,
          "name": "E4",
          "ticks": 9044,
          "time": 105.16279069767442,
          "velocity": 0.2204724409448819
        },
        {
          "duration": 0.2674418604651123,
          "durationTicks": 23,
          "midi": 76,
          "name": "E5",
          "ticks": 9044,
          "time": 105.16279069767442,
          "velocity": 0.23622047244094488
        },
        {
          "duration": 0.2674418604651123,
          "durationTicks": 23,
          "midi": 47,
          "name": "B2",
          "ticks": 9045,
          "time": 105.17441860465117,
          "velocity": 0.2125984251968504
        },
        {
          "duration": 0.11627906976744384,
          "durationTicks": 10,
          "midi": 54,
          "name": "F#3",
          "ticks": 9045,
          "time": 105.17441860465117,
          "velocity": 0.1732283464566929
        },
        {
          "duration": 0.2325581395348877,
          "durationTicks": 20,
          "midi": 35,
          "name": "B1",
          "ticks": 9047,
          "time": 105.19767441860465,
          "velocity": 0.16535433070866143
        },
        {
          "duration": 0.16279069767441,
          "durationTicks": 14,
          "midi": 63,
          "name": "D#4",
          "ticks": 9066,
          "time": 105.4186046511628,
          "velocity": 0.2047244094488189
        },
        {
          "duration": 0.24418604651162923,
          "durationTicks": 21,
          "midi": 47,
          "name": "B2",
          "ticks": 9070,
          "time": 105.46511627906976,
          "velocity": 0.25196850393700787
        },
        {
          "duration": 0.05813953488372192,
          "durationTicks": 5,
          "midi": 35,
          "name": "B1",
          "ticks": 9071,
          "time": 105.47674418604652,
          "velocity": 0.14173228346456693
        },
        {
          "duration": 0.11627906976744384,
          "durationTicks": 10,
          "midi": 54,
          "name": "F#3",
          "ticks": 9072,
          "time": 105.48837209302326,
          "velocity": 0.2047244094488189
        },
        {
          "duration": 0.22093023255814614,
          "durationTicks": 19,
          "midi": 61,
          "name": "C#4",
          "ticks": 9080,
          "time": 105.5813953488372,
          "velocity": 0.1968503937007874
        },
        {
          "duration": 0.2325581395348877,
          "durationTicks": 20,
          "midi": 85,
          "name": "C#6",
          "ticks": 9080,
          "time": 105.5813953488372,
          "velocity": 0.2125984251968504
        },
        {
          "duration": 0.03488372093023884,
          "durationTicks": 3,
          "midi": 35,
          "name": "B1",
          "ticks": 9081,
          "time": 105.59302325581395,
          "velocity": 0.13385826771653545
        },
        {
          "duration": 0.05813953488372192,
          "durationTicks": 5,
          "midi": 35,
          "name": "B1",
          "ticks": 9085,
          "time": 105.63953488372093,
          "velocity": 0.12598425196850394
        },
        {
          "duration": 0.034883720930224626,
          "durationTicks": 3,
          "midi": 47,
          "name": "B2",
          "ticks": 9092,
          "time": 105.72093023255815,
          "velocity": 0.14960629921259844
        },
        {
          "duration": 0.03488372093023884,
          "durationTicks": 3,
          "midi": 47,
          "name": "B2",
          "ticks": 9096,
          "time": 105.76744186046511,
          "velocity": 0.14173228346456693
        },
        {
          "duration": 0.13953488372092693,
          "durationTicks": 12,
          "midi": 47,
          "name": "B2",
          "ticks": 9105,
          "time": 105.87209302325581,
          "velocity": 0.14960629921259844
        },
        {
          "duration": 0.5697674418604635,
          "durationTicks": 49,
          "midi": 59,
          "name": "B3",
          "ticks": 9105,
          "time": 105.87209302325581,
          "velocity": 0.23622047244094488
        },
        {
          "duration": 0.5465116279069804,
          "durationTicks": 47,
          "midi": 83,
          "name": "B5",
          "ticks": 9105,
          "time": 105.87209302325581,
          "velocity": 0.16535433070866143
        },
        {
          "duration": 0.25581395348837077,
          "durationTicks": 22,
          "midi": 87,
          "name": "D#6",
          "ticks": 9105,
          "time": 105.87209302325581,
          "velocity": 0.11811023622047244
        },
        {
          "duration": 0.06976744186046346,
          "durationTicks": 6,
          "midi": 35,
          "name": "B1",
          "ticks": 9111,
          "time": 105.94186046511628,
          "velocity": 0.08661417322834646
        },
        {
          "duration": 0.04651162790698038,
          "durationTicks": 4,
          "midi": 36,
          "name": "C2",
          "ticks": 9117,
          "time": 106.01162790697674,
          "velocity": 0.11023622047244094
        },
        {
          "duration": 0.11627906976744384,
          "durationTicks": 10,
          "midi": 47,
          "name": "B2",
          "ticks": 9120,
          "time": 106.04651162790698,
          "velocity": 0.15748031496062992
        },
        {
          "duration": 0.09302325581394655,
          "durationTicks": 8,
          "midi": 35,
          "name": "B1",
          "ticks": 9121,
          "time": 106.05813953488372,
          "velocity": 0.11811023622047244
        },
        {
          "duration": 0.12790697674418539,
          "durationTicks": 11,
          "midi": 47,
          "name": "B2",
          "ticks": 9131,
          "time": 106.17441860465117,
          "velocity": 0.15748031496062992
        },
        {
          "duration": 0.04651162790698038,
          "durationTicks": 4,
          "midi": 54,
          "name": "F#3",
          "ticks": 9131,
          "time": 106.17441860465117,
          "velocity": 0.09448818897637795
        },
        {
          "duration": 0.13953488372094114,
          "durationTicks": 12,
          "midi": 54,
          "name": "F#3",
          "ticks": 9139,
          "time": 106.26744186046511,
          "velocity": 0.1889763779527559
        },
        {
          "duration": 0.13953488372092693,
          "durationTicks": 12,
          "midi": 47,
          "name": "B2",
          "ticks": 9143,
          "time": 106.31395348837209,
          "velocity": 0.2283464566929134
        },
        {
          "duration": 0.16279069767441,
          "durationTicks": 14,
          "midi": 35,
          "name": "B1",
          "ticks": 9146,
          "time": 106.34883720930233,
          "velocity": 0.16535433070866143
        },
        {
          "duration": 0.04651162790696617,
          "durationTicks": 4,
          "midi": 47,
          "name": "B2",
          "ticks": 9157,
          "time": 106.47674418604652,
          "velocity": 0.1968503937007874
        },
        {
          "duration": 0.03488372093023884,
          "durationTicks": 3,
          "midi": 34,
          "name": "A#1",
          "ticks": 9161,
          "time": 106.52325581395348,
          "velocity": 0.12598425196850394
        },
        {
          "duration": 0.03488372093023884,
          "durationTicks": 3,
          "midi": 46,
          "name": "A#2",
          "ticks": 9161,
          "time": 106.52325581395348,
          "velocity": 0.2125984251968504
        },
        {
          "duration": 0.12790697674418539,
          "durationTicks": 11,
          "midi": 73,
          "name": "C#5",
          "ticks": 9164,
          "time": 106.55813953488372,
          "velocity": 0.1732283464566929
        },
        {
          "duration": 0.30232558139535115,
          "durationTicks": 26,
          "midi": 45,
          "name": "A2",
          "ticks": 9165,
          "time": 106.56976744186046,
          "velocity": 0.31496062992125984
        },
        {
          "duration": 0.1046511627907023,
          "durationTicks": 9,
          "midi": 61,
          "name": "C#4",
          "ticks": 9165,
          "time": 106.56976744186046,
          "velocity": 0.23622047244094488
        },
        {
          "duration": 0.034883720930224626,
          "durationTicks": 3,
          "midi": 64,
          "name": "E4",
          "ticks": 9168,
          "time": 106.6046511627907,
          "velocity": 0.11811023622047244
        },
        {
          "duration": 0.04651162790696617,
          "durationTicks": 4,
          "midi": 83,
          "name": "B5",
          "ticks": 9168,
          "time": 106.6046511627907,
          "velocity": 0.08661417322834646
        },
        {
          "duration": 0.03488372093023884,
          "durationTicks": 3,
          "midi": 52,
          "name": "E3",
          "ticks": 9176,
          "time": 106.69767441860465,
          "velocity": 0.12598425196850394
        },
        {
          "duration": 0.1046511627907023,
          "durationTicks": 9,
          "midi": 64,
          "name": "E4",
          "ticks": 9177,
          "time": 106.70930232558139,
          "velocity": 0.25196850393700787
        },
        {
          "duration": 0.09302325581394655,
          "durationTicks": 8,
          "midi": 68,
          "name": "G#4",
          "ticks": 9180,
          "time": 106.74418604651163,
          "velocity": 0.07086614173228346
        },
        {
          "duration": 0.06976744186046346,
          "durationTicks": 6,
          "midi": 52,
          "name": "E3",
          "ticks": 9181,
          "time": 106.75581395348837,
          "velocity": 0.09448818897637795
        },
        {
          "duration": 0.1046511627907023,
          "durationTicks": 9,
          "midi": 63,
          "name": "D#4",
          "ticks": 9186,
          "time": 106.81395348837209,
          "velocity": 0.1889763779527559
        },
        {
          "duration": 0.04651162790698038,
          "durationTicks": 4,
          "midi": 82,
          "name": "A#5",
          "ticks": 9190,
          "time": 106.86046511627907,
          "velocity": 0.08661417322834646
        },
        {
          "duration": 0.25581395348837077,
          "durationTicks": 22,
          "midi": 45,
          "name": "A2",
          "ticks": 9194,
          "time": 106.90697674418605,
          "velocity": 0.25196850393700787
        },
        {
          "duration": 0.3139534883720927,
          "durationTicks": 27,
          "midi": 76,
          "name": "E5",
          "ticks": 9195,
          "time": 106.9186046511628,
          "velocity": 0.2204724409448819
        },
        {
          "duration": 0.12790697674418539,
          "durationTicks": 11,
          "midi": 64,
          "name": "E4",
          "ticks": 9200,
          "time": 106.97674418604652,
          "velocity": 0.25196850393700787
        },
        {
          "duration": 0.06976744186046346,
          "durationTicks": 6,
          "midi": 83,
          "name": "B5",
          "ticks": 9203,
          "time": 107.01162790697674,
          "velocity": 0.07874015748031496
        },
        {
          "duration": 0.3372093023255758,
          "durationTicks": 29,
          "midi": 73,
          "name": "C#5",
          "ticks": 9211,
          "time": 107.1046511627907,
          "velocity": 0.14173228346456693
        },
        {
          "duration": 0.3372093023255758,
          "durationTicks": 29,
          "midi": 85,
          "name": "C#6",
          "ticks": 9211,
          "time": 107.1046511627907,
          "velocity": 0.14173228346456693
        },
        {
          "duration": 0.3488372093023173,
          "durationTicks": 30,
          "midi": 61,
          "name": "C#4",
          "ticks": 9212,
          "time": 107.11627906976744,
          "velocity": 0.23622047244094488
        },
        {
          "duration": 0.11627906976744384,
          "durationTicks": 10,
          "midi": 45,
          "name": "A2",
          "ticks": 9217,
          "time": 107.17441860465117,
          "velocity": 0.18110236220472442
        },
        {
          "duration": 0.034883720930224626,
          "durationTicks": 3,
          "midi": 83,
          "name": "B5",
          "ticks": 9217,
          "time": 107.17441860465117,
          "velocity": 0.07874015748031496
        },
        {
          "duration": 0.05813953488372192,
          "durationTicks": 5,
          "midi": 83,
          "name": "B5",
          "ticks": 9223,
          "time": 107.24418604651163,
          "velocity": 0.14173228346456693
        },
        {
          "duration": 0.418604651162795,
          "durationTicks": 36,
          "midi": 45,
          "name": "A2",
          "ticks": 9229,
          "time": 107.31395348837209,
          "velocity": 0.2992125984251969
        },
        {
          "duration": 0.06976744186046346,
          "durationTicks": 6,
          "midi": 83,
          "name": "B5",
          "ticks": 9230,
          "time": 107.32558139534883,
          "velocity": 0.14173228346456693
        },
        {
          "duration": 0.05813953488372192,
          "durationTicks": 5,
          "midi": 83,
          "name": "B5",
          "ticks": 9239,
          "time": 107.43023255813954,
          "velocity": 0.12598425196850394
        },
        {
          "duration": 0.05813953488372192,
          "durationTicks": 5,
          "midi": 74,
          "name": "D5",
          "ticks": 9240,
          "time": 107.44186046511628,
          "velocity": 0.11811023622047244
        },
        {
          "duration": 0.04651162790698038,
          "durationTicks": 4,
          "midi": 86,
          "name": "D6",
          "ticks": 9241,
          "time": 107.45348837209302,
          "velocity": 0.11811023622047244
        },
        {
          "duration": 0.03488372093023884,
          "durationTicks": 3,
          "midi": 62,
          "name": "D4",
          "ticks": 9242,
          "time": 107.46511627906976,
          "velocity": 0.14960629921259844
        },
        {
          "duration": 0.2093023255813904,
          "durationTicks": 18,
          "midi": 61,
          "name": "C#4",
          "ticks": 9245,
          "time": 107.5,
          "velocity": 0.2283464566929134
        },
        {
          "duration": 0.06976744186046346,
          "durationTicks": 6,
          "midi": 64,
          "name": "E4",
          "ticks": 9252,
          "time": 107.5813953488372,
          "velocity": 0.08661417322834646
        },
        {
          "duration": 0.03488372093023884,
          "durationTicks": 3,
          "midi": 62,
          "name": "D4",
          "ticks": 9263,
          "time": 107.70930232558139,
          "velocity": 0.12598425196850394
        },
        {
          "duration": 0.19767441860464885,
          "durationTicks": 17,
          "midi": 73,
          "name": "C#5",
          "ticks": 9265,
          "time": 107.73255813953489,
          "velocity": 0.10236220472440945
        },
        {
          "duration": 0.9883720930232585,
          "durationTicks": 85,
          "midi": 61,
          "name": "C#4",
          "ticks": 9266,
          "time": 107.74418604651163,
          "velocity": 0.2047244094488189
        },
        {
          "duration": 0.24418604651162923,
          "durationTicks": 21,
          "midi": 45,
          "name": "A2",
          "ticks": 9267,
          "time": 107.75581395348837,
          "velocity": 0.31496062992125984
        },
        {
          "duration": 0.06976744186046346,
          "durationTicks": 6,
          "midi": 64,
          "name": "E4",
          "ticks": 9272,
          "time": 107.81395348837209,
          "velocity": 0.11023622047244094
        },
        {
          "duration": 0.023255813953483084,
          "durationTicks": 2,
          "midi": 46,
          "name": "A#2",
          "ticks": 9288,
          "time": 108,
          "velocity": 0.2283464566929134
        },
        {
          "duration": 0.25581395348837077,
          "durationTicks": 22,
          "midi": 45,
          "name": "A2",
          "ticks": 9290,
          "time": 108.02325581395348,
          "velocity": 0.28346456692913385
        },
        {
          "duration": 0.08139534883721922,
          "durationTicks": 7,
          "midi": 52,
          "name": "E3",
          "ticks": 9295,
          "time": 108.0813953488372,
          "velocity": 0.07874015748031496
        },
        {
          "duration": 0.2325581395348877,
          "durationTicks": 20,
          "midi": 45,
          "name": "A2",
          "ticks": 9315,
          "time": 108.31395348837209,
          "velocity": 0.28346456692913385
        },
        {
          "duration": 0.1860465116279073,
          "durationTicks": 16,
          "midi": 45,
          "name": "A2",
          "ticks": 9339,
          "time": 108.59302325581395,
          "velocity": 0.18110236220472442
        },
        {
          "duration": 0.09302325581394655,
          "durationTicks": 8,
          "midi": 64,
          "name": "E4",
          "ticks": 9352,
          "time": 108.74418604651163,
          "velocity": 0.11811023622047244
        },
        {
          "duration": 0.25581395348837077,
          "durationTicks": 22,
          "midi": 61,
          "name": "C#4",
          "ticks": 9353,
          "time": 108.75581395348837,
          "velocity": 0.1968503937007874
        },
        {
          "duration": 0.23255813953487348,
          "durationTicks": 20,
          "midi": 47,
          "name": "B2",
          "ticks": 9361,
          "time": 108.84883720930233,
          "velocity": 0.25196850393700787
        },
        {
          "duration": 0.04651162790698038,
          "durationTicks": 4,
          "midi": 54,
          "name": "F#3",
          "ticks": 9368,
          "time": 108.93023255813954,
          "velocity": 0.11811023622047244
        },
        {
          "duration": 0.12790697674418539,
          "durationTicks": 11,
          "midi": 64,
          "name": "E4",
          "ticks": 9377,
          "time": 109.03488372093024,
          "velocity": 0.23622047244094488
        },
        {
          "duration": 0.2674418604651123,
          "durationTicks": 23,
          "midi": 47,
          "name": "B2",
          "ticks": 9385,
          "time": 109.12790697674419,
          "velocity": 0.2204724409448819
        },
        {
          "duration": 0.03488372093023884,
          "durationTicks": 3,
          "midi": 54,
          "name": "F#3",
          "ticks": 9385,
          "time": 109.12790697674419,
          "velocity": 0.07086614173228346
        },
        {
          "duration": 0.03488372093023884,
          "durationTicks": 3,
          "midi": 35,
          "name": "B1",
          "ticks": 9387,
          "time": 109.15116279069767,
          "velocity": 0.16535433070866143
        },
        {
          "duration": 0.06976744186046346,
          "durationTicks": 6,
          "midi": 63,
          "name": "D#4",
          "ticks": 9390,
          "time": 109.18604651162791,
          "velocity": 0.1889763779527559
        },
        {
          "duration": 0.4418604651162781,
          "durationTicks": 38,
          "midi": 73,
          "name": "C#5",
          "ticks": 9393,
          "time": 109.22093023255815,
          "velocity": 0.1889763779527559
        },
        {
          "duration": 0.1860465116279073,
          "durationTicks": 16,
          "midi": 64,
          "name": "E4",
          "ticks": 9396,
          "time": 109.25581395348837,
          "velocity": 0.1968503937007874
        },
        {
          "duration": 0.05813953488372192,
          "durationTicks": 5,
          "midi": 54,
          "name": "F#3",
          "ticks": 9399,
          "time": 109.29069767441861,
          "velocity": 0.10236220472440945
        },
        {
          "duration": 0.12790697674418539,
          "durationTicks": 11,
          "midi": 76,
          "name": "E5",
          "ticks": 9400,
          "time": 109.30232558139535,
          "velocity": 0.2125984251968504
        },
        {
          "duration": 0.06976744186046346,
          "durationTicks": 6,
          "midi": 35,
          "name": "B1",
          "ticks": 9402,
          "time": 109.32558139534883,
          "velocity": 0.10236220472440945
        },
        {
          "duration": 0.06976744186047767,
          "durationTicks": 6,
          "midi": 92,
          "name": "G#6",
          "ticks": 9403,
          "time": 109.33720930232558,
          "velocity": 0.07874015748031496
        },
        {
          "duration": 0.03488372093023884,
          "durationTicks": 3,
          "midi": 34,
          "name": "A#1",
          "ticks": 9408,
          "time": 109.3953488372093,
          "velocity": 0.10236220472440945
        },
        {
          "duration": 0.30232558139533694,
          "durationTicks": 26,
          "midi": 47,
          "name": "B2",
          "ticks": 9409,
          "time": 109.40697674418605,
          "velocity": 0.2125984251968504
        },
        {
          "duration": 0.04651162790698038,
          "durationTicks": 4,
          "midi": 35,
          "name": "B1",
          "ticks": 9411,
          "time": 109.43023255813954,
          "velocity": 0.11811023622047244
        },
        {
          "duration": 0.418604651162795,
          "durationTicks": 36,
          "midi": 61,
          "name": "C#4",
          "ticks": 9411,
          "time": 109.43023255813954,
          "velocity": 0.2047244094488189
        },
        {
          "duration": 0.05813953488372192,
          "durationTicks": 5,
          "midi": 35,
          "name": "B1",
          "ticks": 9416,
          "time": 109.48837209302326,
          "velocity": 0.09448818897637795
        },
        {
          "duration": 0.13953488372092693,
          "durationTicks": 12,
          "midi": 35,
          "name": "B1",
          "ticks": 9422,
          "time": 109.55813953488372,
          "velocity": 0.14173228346456693
        },
        {
          "duration": 0.2674418604651123,
          "durationTicks": 23,
          "midi": 47,
          "name": "B2",
          "ticks": 9437,
          "time": 109.73255813953489,
          "velocity": 0.25196850393700787
        },
        {
          "duration": 0.081395348837205,
          "durationTicks": 7,
          "midi": 54,
          "name": "F#3",
          "ticks": 9437,
          "time": 109.73255813953489,
          "velocity": 0.09448818897637795
        },
        {
          "duration": 0.12790697674418539,
          "durationTicks": 11,
          "midi": 35,
          "name": "B1",
          "ticks": 9439,
          "time": 109.75581395348837,
          "velocity": 0.16535433070866143
        },
        {
          "duration": 0.22093023255813193,
          "durationTicks": 19,
          "midi": 61,
          "name": "C#4",
          "ticks": 9448,
          "time": 109.86046511627907,
          "velocity": 0.2204724409448819
        },
        {
          "duration": 0.03488372093023884,
          "durationTicks": 3,
          "midi": 35,
          "name": "B1",
          "ticks": 9451,
          "time": 109.8953488372093,
          "velocity": 0.16535433070866143
        },
        {
          "duration": 0.04651162790698038,
          "durationTicks": 4,
          "midi": 35,
          "name": "B1",
          "ticks": 9455,
          "time": 109.94186046511628,
          "velocity": 0.15748031496062992
        },
        {
          "duration": 0.034883720930224626,
          "durationTicks": 3,
          "midi": 36,
          "name": "C2",
          "ticks": 9459,
          "time": 109.98837209302326,
          "velocity": 0.13385826771653545
        },
        {
          "duration": 0.2906976744185954,
          "durationTicks": 25,
          "midi": 47,
          "name": "B2",
          "ticks": 9463,
          "time": 110.03488372093024,
          "velocity": 0.2283464566929134
        },
        {
          "duration": 0.12790697674418539,
          "durationTicks": 11,
          "midi": 54,
          "name": "F#3",
          "ticks": 9465,
          "time": 110.05813953488372,
          "velocity": 0.18110236220472442
        },
        {
          "duration": 0.8720930232558146,
          "durationTicks": 75,
          "midi": 61,
          "name": "C#4",
          "ticks": 9468,
          "time": 110.09302325581395,
          "velocity": 0.2125984251968504
        },
        {
          "duration": 0.081395348837205,
          "durationTicks": 7,
          "midi": 54,
          "name": "F#3",
          "ticks": 9487,
          "time": 110.31395348837209,
          "velocity": 0.13385826771653545
        },
        {
          "duration": 0.25581395348837077,
          "durationTicks": 22,
          "midi": 47,
          "name": "B2",
          "ticks": 9490,
          "time": 110.34883720930233,
          "velocity": 0.2204724409448819
        },
        {
          "duration": 0.19767441860464885,
          "durationTicks": 17,
          "midi": 35,
          "name": "B1",
          "ticks": 9492,
          "time": 110.37209302325581,
          "velocity": 0.14960629921259844
        },
        {
          "duration": 0.03488372093023884,
          "durationTicks": 3,
          "midi": 36,
          "name": "C2",
          "ticks": 9509,
          "time": 110.56976744186046,
          "velocity": 0.10236220472440945
        },
        {
          "duration": 0.05813953488372192,
          "durationTicks": 5,
          "midi": 54,
          "name": "F#3",
          "ticks": 9510,
          "time": 110.5813953488372,
          "velocity": 0.08661417322834646
        },
        {
          "duration": 0.25581395348837077,
          "durationTicks": 22,
          "midi": 47,
          "name": "B2",
          "ticks": 9515,
          "time": 110.63953488372093,
          "velocity": 0.2125984251968504
        },
        {
          "duration": 0.06976744186046346,
          "durationTicks": 6,
          "midi": 35,
          "name": "B1",
          "ticks": 9528,
          "time": 110.79069767441861,
          "velocity": 0.14173228346456693
        },
        {
          "duration": 0.1046511627907023,
          "durationTicks": 9,
          "midi": 54,
          "name": "F#3",
          "ticks": 9535,
          "time": 110.87209302325581,
          "velocity": 0.1889763779527559
        },
        {
          "duration": 0.10465116279068809,
          "durationTicks": 9,
          "midi": 47,
          "name": "B2",
          "ticks": 9539,
          "time": 110.9186046511628,
          "velocity": 0.1889763779527559
        },
        {
          "duration": 0.081395348837205,
          "durationTicks": 7,
          "midi": 35,
          "name": "B1",
          "ticks": 9540,
          "time": 110.93023255813954,
          "velocity": 0.14960629921259844
        },
        {
          "duration": 0.05813953488372192,
          "durationTicks": 5,
          "midi": 48,
          "name": "C3",
          "ticks": 9548,
          "time": 111.02325581395348,
          "velocity": 0.15748031496062992
        },
        {
          "duration": 0.04651162790696617,
          "durationTicks": 4,
          "midi": 36,
          "name": "C2",
          "ticks": 9549,
          "time": 111.03488372093024,
          "velocity": 0.1889763779527559
        },
        {
          "duration": 0.04651162790696617,
          "durationTicks": 4,
          "midi": 54,
          "name": "F#3",
          "ticks": 9549,
          "time": 111.03488372093024,
          "velocity": 0.07874015748031496
        },
        {
          "duration": 0.16279069767441,
          "durationTicks": 14,
          "midi": 73,
          "name": "C#5",
          "ticks": 9549,
          "time": 111.03488372093024,
          "velocity": 0.1889763779527559
        },
        {
          "duration": 0.22093023255813193,
          "durationTicks": 19,
          "midi": 61,
          "name": "C#4",
          "ticks": 9550,
          "time": 111.04651162790698,
          "velocity": 0.2125984251968504
        },
        {
          "duration": 0.08139534883721922,
          "durationTicks": 7,
          "midi": 37,
          "name": "C#2",
          "ticks": 9553,
          "time": 111.0813953488372,
          "velocity": 0.2047244094488189
        },
        {
          "duration": 0.081395348837205,
          "durationTicks": 7,
          "midi": 64,
          "name": "E4",
          "ticks": 9557,
          "time": 111.12790697674419,
          "velocity": 0.10236220472440945
        },
        {
          "duration": 0.2325581395348877,
          "durationTicks": 20,
          "midi": 49,
          "name": "C#3",
          "ticks": 9563,
          "time": 111.19767441860465,
          "velocity": 0.15748031496062992
        },
        {
          "duration": 0.06976744186046346,
          "durationTicks": 6,
          "midi": 64,
          "name": "E4",
          "ticks": 9565,
          "time": 111.22093023255815,
          "velocity": 0.11023622047244094
        },
        {
          "duration": 0.11627906976744384,
          "durationTicks": 10,
          "midi": 76,
          "name": "E5",
          "ticks": 9571,
          "time": 111.29069767441861,
          "velocity": 0.18110236220472442
        },
        {
          "duration": 0.11627906976744384,
          "durationTicks": 10,
          "midi": 64,
          "name": "E4",
          "ticks": 9572,
          "time": 111.30232558139535,
          "velocity": 0.2204724409448819
        },
        {
          "duration": 0.1046511627907023,
          "durationTicks": 9,
          "midi": 68,
          "name": "G#4",
          "ticks": 9575,
          "time": 111.33720930232558,
          "velocity": 0.10236220472440945
        },
        {
          "duration": 0.06976744186046346,
          "durationTicks": 6,
          "midi": 63,
          "name": "D#4",
          "ticks": 9584,
          "time": 111.44186046511628,
          "velocity": 0.16535433070866143
        },
        {
          "duration": 0.04651162790698038,
          "durationTicks": 4,
          "midi": 49,
          "name": "C#3",
          "ticks": 9585,
          "time": 111.45348837209302,
          "velocity": 0.11023622047244094
        },
        {
          "duration": 0.034883720930224626,
          "durationTicks": 3,
          "midi": 55,
          "name": "G3",
          "ticks": 9587,
          "time": 111.47674418604652,
          "velocity": 0.11811023622047244
        },
        {
          "duration": 0.1860465116279073,
          "durationTicks": 16,
          "midi": 37,
          "name": "C#2",
          "ticks": 9589,
          "time": 111.5,
          "velocity": 0.1732283464566929
        },
        {
          "duration": 0.03488372093023884,
          "durationTicks": 3,
          "midi": 61,
          "name": "C#4",
          "ticks": 9590,
          "time": 111.51162790697674,
          "velocity": 0.12598425196850394
        },
        {
          "duration": 0.13953488372092693,
          "durationTicks": 12,
          "midi": 56,
          "name": "G#3",
          "ticks": 9592,
          "time": 111.53488372093024,
          "velocity": 0.09448818897637795
        },
        {
          "duration": 0.15116279069766847,
          "durationTicks": 13,
          "midi": 64,
          "name": "E4",
          "ticks": 9593,
          "time": 111.54651162790698,
          "velocity": 0.2204724409448819
        },
        {
          "duration": 1.1627906976744242,
          "durationTicks": 100,
          "midi": 61,
          "name": "C#4",
          "ticks": 9607,
          "time": 111.70930232558139,
          "velocity": 0.2440944881889764
        },
        {
          "duration": 0.5232558139534973,
          "durationTicks": 45,
          "midi": 85,
          "name": "C#6",
          "ticks": 9607,
          "time": 111.70930232558139,
          "velocity": 0.14173228346456693
        },
        {
          "duration": 0.11627906976744384,
          "durationTicks": 10,
          "midi": 37,
          "name": "C#2",
          "ticks": 9609,
          "time": 111.73255813953489,
          "velocity": 0.14960629921259844
        },
        {
          "duration": 0.034883720930224626,
          "durationTicks": 3,
          "midi": 39,
          "name": "D#2",
          "ticks": 9619,
          "time": 111.84883720930233,
          "velocity": 0.10236220472440945
        },
        {
          "duration": 0.05813953488372192,
          "durationTicks": 5,
          "midi": 83,
          "name": "B5",
          "ticks": 9619,
          "time": 111.84883720930233,
          "velocity": 0.11023622047244094
        },
        {
          "duration": 0.16279069767442422,
          "durationTicks": 14,
          "midi": 49,
          "name": "C#3",
          "ticks": 9621,
          "time": 111.87209302325581,
          "velocity": 0.11811023622047244
        },
        {
          "duration": 0.15116279069768268,
          "durationTicks": 13,
          "midi": 37,
          "name": "C#2",
          "ticks": 9622,
          "time": 111.88372093023256,
          "velocity": 0.16535433070866143
        },
        {
          "duration": 0.04651162790698038,
          "durationTicks": 4,
          "midi": 83,
          "name": "B5",
          "ticks": 9628,
          "time": 111.95348837209302,
          "velocity": 0.10236220472440945
        },
        {
          "duration": 0.16279069767441,
          "durationTicks": 14,
          "midi": 56,
          "name": "G#3",
          "ticks": 9635,
          "time": 112.03488372093024,
          "velocity": 0.07874015748031496
        },
        {
          "duration": 0.12790697674418539,
          "durationTicks": 11,
          "midi": 49,
          "name": "C#3",
          "ticks": 9636,
          "time": 112.04651162790698,
          "velocity": 0.14960629921259844
        },
        {
          "duration": 0.2325581395348877,
          "durationTicks": 20,
          "midi": 37,
          "name": "C#2",
          "ticks": 9637,
          "time": 112.05813953488372,
          "velocity": 0.2204724409448819
        },
        {
          "duration": 0.1046511627907023,
          "durationTicks": 9,
          "midi": 64,
          "name": "E4",
          "ticks": 9637,
          "time": 112.05813953488372,
          "velocity": 0.12598425196850394
        },
        {
          "duration": 0.034883720930224626,
          "durationTicks": 3,
          "midi": 83,
          "name": "B5",
          "ticks": 9642,
          "time": 112.11627906976744,
          "velocity": 0.07086614173228346
        },
        {
          "duration": 0.1279069767441996,
          "durationTicks": 11,
          "midi": 64,
          "name": "E4",
          "ticks": 9656,
          "time": 112.27906976744185,
          "velocity": 0.09448818897637795
        },
        {
          "duration": 0.24418604651162923,
          "durationTicks": 21,
          "midi": 37,
          "name": "C#2",
          "ticks": 9661,
          "time": 112.33720930232558,
          "velocity": 0.1889763779527559
        },
        {
          "duration": 0.2093023255813904,
          "durationTicks": 18,
          "midi": 56,
          "name": "G#3",
          "ticks": 9662,
          "time": 112.34883720930233,
          "velocity": 0.11811023622047244
        },
        {
          "duration": 0.2093023255814046,
          "durationTicks": 18,
          "midi": 37,
          "name": "C#2",
          "ticks": 9688,
          "time": 112.65116279069767,
          "velocity": 0.15748031496062992
        },
        {
          "duration": 0.2093023255814046,
          "durationTicks": 18,
          "midi": 49,
          "name": "C#3",
          "ticks": 9688,
          "time": 112.65116279069767,
          "velocity": 0.1968503937007874
        },
        {
          "duration": 0.22093023255813193,
          "durationTicks": 19,
          "midi": 56,
          "name": "G#3",
          "ticks": 9689,
          "time": 112.66279069767442,
          "velocity": 0.11023622047244094
        },
        {
          "duration": 0.04651162790696617,
          "durationTicks": 4,
          "midi": 64,
          "name": "E4",
          "ticks": 9705,
          "time": 112.84883720930233,
          "velocity": 0.08661417322834646
        },
        {
          "duration": 0.17441860465116577,
          "durationTicks": 15,
          "midi": 61,
          "name": "C#4",
          "ticks": 9709,
          "time": 112.8953488372093,
          "velocity": 0.2204724409448819
        },
        {
          "duration": 0.09302325581394655,
          "durationTicks": 8,
          "midi": 37,
          "name": "C#2",
          "ticks": 9712,
          "time": 112.93023255813954,
          "velocity": 0.11811023622047244
        },
        {
          "duration": 0.09302325581394655,
          "durationTicks": 8,
          "midi": 49,
          "name": "C#3",
          "ticks": 9712,
          "time": 112.93023255813954,
          "velocity": 0.18110236220472442
        },
        {
          "duration": 0.09302325581394655,
          "durationTicks": 8,
          "midi": 37,
          "name": "C#2",
          "ticks": 9723,
          "time": 113.05813953488372,
          "velocity": 0.1968503937007874
        },
        {
          "duration": 0.09302325581394655,
          "durationTicks": 8,
          "midi": 56,
          "name": "G#3",
          "ticks": 9723,
          "time": 113.05813953488372,
          "velocity": 0.11023622047244094
        },
        {
          "duration": 0.06976744186046346,
          "durationTicks": 6,
          "midi": 71,
          "name": "B4",
          "ticks": 9732,
          "time": 113.16279069767442,
          "velocity": 0.11811023622047244
        },
        {
          "duration": 0.06976744186046346,
          "durationTicks": 6,
          "midi": 83,
          "name": "B5",
          "ticks": 9732,
          "time": 113.16279069767442,
          "velocity": 0.12598425196850394
        },
        {
          "duration": 0.04651162790698038,
          "durationTicks": 4,
          "midi": 87,
          "name": "D#6",
          "ticks": 9734,
          "time": 113.18604651162791,
          "velocity": 0.08661417322834646
        },
        {
          "duration": 0.06976744186046346,
          "durationTicks": 6,
          "midi": 49,
          "name": "C#3",
          "ticks": 9737,
          "time": 113.22093023255815,
          "velocity": 0.11811023622047244
        },
        {
          "duration": 0.06976744186046346,
          "durationTicks": 6,
          "midi": 56,
          "name": "G#3",
          "ticks": 9738,
          "time": 113.23255813953489,
          "velocity": 0.11811023622047244
        },
        {
          "duration": 0.04651162790696617,
          "durationTicks": 4,
          "midi": 60,
          "name": "C4",
          "ticks": 9738,
          "time": 113.23255813953489,
          "velocity": 0.2204724409448819
        },
        {
          "duration": 0.04651162790696617,
          "durationTicks": 4,
          "midi": 84,
          "name": "C6",
          "ticks": 9738,
          "time": 113.23255813953489,
          "velocity": 0.15748031496062992
        },
        {
          "duration": 0.034883720930224626,
          "durationTicks": 3,
          "midi": 37,
          "name": "C#2",
          "ticks": 9739,
          "time": 113.24418604651163,
          "velocity": 0.07086614173228346
        },
        {
          "duration": 0.1046511627907023,
          "durationTicks": 9,
          "midi": 73,
          "name": "C#5",
          "ticks": 9741,
          "time": 113.26744186046511,
          "velocity": 0.11811023622047244
        },
        {
          "duration": 0.08139534883721922,
          "durationTicks": 7,
          "midi": 61,
          "name": "C#4",
          "ticks": 9742,
          "time": 113.27906976744185,
          "velocity": 0.1889763779527559
        },
        {
          "duration": 0.12790697674418539,
          "durationTicks": 11,
          "midi": 37,
          "name": "C#2",
          "ticks": 9743,
          "time": 113.29069767441861,
          "velocity": 0.07874015748031496
        },
        {
          "duration": 0.05813953488372192,
          "durationTicks": 5,
          "midi": 55,
          "name": "G3",
          "ticks": 9744,
          "time": 113.30232558139535,
          "velocity": 0.14173228346456693
        },
        {
          "duration": 0.06976744186046346,
          "durationTicks": 6,
          "midi": 54,
          "name": "F#3",
          "ticks": 9749,
          "time": 113.36046511627907,
          "velocity": 0.14960629921259844
        },
        {
          "duration": 0.05813953488372192,
          "durationTicks": 5,
          "midi": 60,
          "name": "C4",
          "ticks": 9749,
          "time": 113.36046511627907,
          "velocity": 0.23622047244094488
        },
        {
          "duration": 0.034883720930224626,
          "durationTicks": 3,
          "midi": 55,
          "name": "G3",
          "ticks": 9755,
          "time": 113.43023255813954,
          "velocity": 0.2204724409448819
        },
        {
          "duration": 0.06976744186046346,
          "durationTicks": 6,
          "midi": 47,
          "name": "B2",
          "ticks": 9756,
          "time": 113.44186046511628,
          "velocity": 0.2283464566929134
        },
        {
          "duration": 0.09302325581396076,
          "durationTicks": 8,
          "midi": 54,
          "name": "F#3",
          "ticks": 9758,
          "time": 113.46511627906976,
          "velocity": 0.18110236220472442
        },
        {
          "duration": 0.03488372093023884,
          "durationTicks": 3,
          "midi": 35,
          "name": "B1",
          "ticks": 9762,
          "time": 113.51162790697674,
          "velocity": 0.08661417322834646
        },
        {
          "duration": 0.17441860465116577,
          "durationTicks": 15,
          "midi": 47,
          "name": "B2",
          "ticks": 9763,
          "time": 113.52325581395348,
          "velocity": 0.2440944881889764
        },
        {
          "duration": 0.05813953488372192,
          "durationTicks": 5,
          "midi": 35,
          "name": "B1",
          "ticks": 9767,
          "time": 113.56976744186046,
          "velocity": 0.09448818897637795
        },
        {
          "duration": 0.04651162790698038,
          "durationTicks": 4,
          "midi": 35,
          "name": "B1",
          "ticks": 9774,
          "time": 113.65116279069767,
          "velocity": 0.09448818897637795
        },
        {
          "duration": 0.09302325581394655,
          "durationTicks": 8,
          "midi": 54,
          "name": "F#3",
          "ticks": 9781,
          "time": 113.73255813953489,
          "velocity": 0.09448818897637795
        },
        {
          "duration": 0.04651162790698038,
          "durationTicks": 4,
          "midi": 47,
          "name": "B2",
          "ticks": 9785,
          "time": 113.77906976744185,
          "velocity": 0.11811023622047244
        },
        {
          "duration": 0.12790697674418539,
          "durationTicks": 11,
          "midi": 47,
          "name": "B2",
          "ticks": 9792,
          "time": 113.86046511627907,
          "velocity": 0.2204724409448819
        },
        {
          "duration": 0.11627906976744384,
          "durationTicks": 10,
          "midi": 54,
          "name": "F#3",
          "ticks": 9792,
          "time": 113.86046511627907,
          "velocity": 0.30708661417322836
        },
        {
          "duration": 0.04651162790698038,
          "durationTicks": 4,
          "midi": 82,
          "name": "A#5",
          "ticks": 9794,
          "time": 113.88372093023256,
          "velocity": 0.11023622047244094
        },
        {
          "duration": 0.03488372093023884,
          "durationTicks": 3,
          "midi": 67,
          "name": "G4",
          "ticks": 9800,
          "time": 113.95348837209302,
          "velocity": 0.13385826771653545
        },
        {
          "duration": 0.2325581395348877,
          "durationTicks": 20,
          "midi": 68,
          "name": "G#4",
          "ticks": 9803,
          "time": 113.98837209302326,
          "velocity": 0.12598425196850394
        },
        {
          "duration": 0.023255813953483084,
          "durationTicks": 2,
          "midi": 55,
          "name": "G3",
          "ticks": 9804,
          "time": 114,
          "velocity": 0.2283464566929134
        },
        {
          "duration": 0.023255813953483084,
          "durationTicks": 2,
          "midi": 55,
          "name": "G3",
          "ticks": 9808,
          "time": 114.04651162790698,
          "velocity": 0.25196850393700787
        },
        {
          "duration": 0.081395348837205,
          "durationTicks": 7,
          "midi": 36,
          "name": "C2",
          "ticks": 9810,
          "time": 114.06976744186046,
          "velocity": 0.18110236220472442
        },
        {
          "duration": 0.05813953488372192,
          "durationTicks": 5,
          "midi": 48,
          "name": "C3",
          "ticks": 9810,
          "time": 114.06976744186046,
          "velocity": 0.18110236220472442
        },
        {
          "duration": 0.023255813953497295,
          "durationTicks": 2,
          "midi": 55,
          "name": "G3",
          "ticks": 9812,
          "time": 114.09302325581395,
          "velocity": 0.2440944881889764
        },
        {
          "duration": 0.081395348837205,
          "durationTicks": 7,
          "midi": 47,
          "name": "B2",
          "ticks": 9815,
          "time": 114.12790697674419,
          "velocity": 0.2125984251968504
        },
        {
          "duration": 0.023255813953497295,
          "durationTicks": 2,
          "midi": 55,
          "name": "G3",
          "ticks": 9816,
          "time": 114.13953488372093,
          "velocity": 0.25196850393700787
        },
        {
          "duration": 0.03488372093023884,
          "durationTicks": 3,
          "midi": 35,
          "name": "B1",
          "ticks": 9817,
          "time": 114.15116279069767,
          "velocity": 0.18110236220472442
        },
        {
          "duration": 0.034883720930224626,
          "durationTicks": 3,
          "midi": 35,
          "name": "B1",
          "ticks": 9823,
          "time": 114.22093023255815,
          "velocity": 0.1889763779527559
        },
        {
          "duration": 0.30232558139535115,
          "durationTicks": 26,
          "midi": 54,
          "name": "F#3",
          "ticks": 9826,
          "time": 114.25581395348837,
          "velocity": 0.3543307086614173
        },
        {
          "duration": 0.05813953488372192,
          "durationTicks": 5,
          "midi": 36,
          "name": "C2",
          "ticks": 9828,
          "time": 114.27906976744185,
          "velocity": 0.2125984251968504
        },
        {
          "duration": 0.05813953488372192,
          "durationTicks": 5,
          "midi": 78,
          "name": "F#5",
          "ticks": 9828,
          "time": 114.27906976744185,
          "velocity": 0.08661417322834646
        },
        {
          "duration": 0.2325581395348877,
          "durationTicks": 20,
          "midi": 82,
          "name": "A#5",
          "ticks": 9830,
          "time": 114.30232558139535,
          "velocity": 0.10236220472440945
        },
        {
          "duration": 0.023255813953497295,
          "durationTicks": 2,
          "midi": 48,
          "name": "C3",
          "ticks": 9833,
          "time": 114.33720930232558,
          "velocity": 0.23622047244094488
        },
        {
          "duration": 0.034883720930224626,
          "durationTicks": 3,
          "midi": 36,
          "name": "C2",
          "ticks": 9834,
          "time": 114.34883720930233,
          "velocity": 0.1968503937007874
        },
        {
          "duration": 0.04651162790698038,
          "durationTicks": 4,
          "midi": 47,
          "name": "B2",
          "ticks": 9835,
          "time": 114.36046511627907,
          "velocity": 0.2440944881889764
        },
        {
          "duration": 0.023255813953483084,
          "durationTicks": 2,
          "midi": 47,
          "name": "B2",
          "ticks": 9840,
          "time": 114.4186046511628,
          "velocity": 0.2283464566929134
        },
        {
          "duration": 0.03488372093023884,
          "durationTicks": 3,
          "midi": 35,
          "name": "B1",
          "ticks": 9843,
          "time": 114.45348837209302,
          "velocity": 0.1732283464566929
        },
        {
          "duration": 0.03488372093023884,
          "durationTicks": 3,
          "midi": 35,
          "name": "B1",
          "ticks": 9847,
          "time": 114.5,
          "velocity": 0.16535433070866143
        },
        {
          "duration": 0.04651162790696617,
          "durationTicks": 4,
          "midi": 36,
          "name": "C2",
          "ticks": 9850,
          "time": 114.53488372093024,
          "velocity": 0.14173228346456693
        },
        {
          "duration": 0.3372093023255758,
          "durationTicks": 29,
          "midi": 64,
          "name": "E4",
          "ticks": 9856,
          "time": 114.6046511627907,
          "velocity": 0.14960629921259844
        },
        {
          "duration": 0.05813953488372192,
          "durationTicks": 5,
          "midi": 52,
          "name": "E3",
          "ticks": 9859,
          "time": 114.63953488372093,
          "velocity": 0.18110236220472442
        },
        {
          "duration": 0.16279069767442422,
          "durationTicks": 14,
          "midi": 80,
          "name": "G#5",
          "ticks": 9863,
          "time": 114.68604651162791,
          "velocity": 0.07874015748031496
        },
        {
          "duration": 0.09302325581394655,
          "durationTicks": 8,
          "midi": 35,
          "name": "B1",
          "ticks": 9867,
          "time": 114.73255813953489,
          "velocity": 0.16535433070866143
        },
        {
          "duration": 0.11627906976744384,
          "durationTicks": 10,
          "midi": 59,
          "name": "B3",
          "ticks": 9867,
          "time": 114.73255813953489,
          "velocity": 0.10236220472440945
        },
        {
          "duration": 0.03488372093023884,
          "durationTicks": 3,
          "midi": 36,
          "name": "C2",
          "ticks": 9875,
          "time": 114.82558139534883,
          "velocity": 0.15748031496062992
        },
        {
          "duration": 0.05813953488372192,
          "durationTicks": 5,
          "midi": 35,
          "name": "B1",
          "ticks": 9878,
          "time": 114.86046511627907,
          "velocity": 0.16535433070866143
        },
        {
          "duration": 0.04651162790698038,
          "durationTicks": 4,
          "midi": 47,
          "name": "B2",
          "ticks": 9879,
          "time": 114.87209302325581,
          "velocity": 0.2125984251968504
        },
        {
          "duration": 0.034883720930224626,
          "durationTicks": 3,
          "midi": 35,
          "name": "B1",
          "ticks": 9884,
          "time": 114.93023255813954,
          "velocity": 0.15748031496062992
        },
        {
          "duration": 0.04651162790698038,
          "durationTicks": 4,
          "midi": 54,
          "name": "F#3",
          "ticks": 9886,
          "time": 114.95348837209302,
          "velocity": 0.2283464566929134
        },
        {
          "duration": 0.09302325581396076,
          "durationTicks": 8,
          "midi": 66,
          "name": "F#4",
          "ticks": 9891,
          "time": 115.01162790697674,
          "velocity": 0.15748031496062992
        },
        {
          "duration": 0.1046511627907023,
          "durationTicks": 9,
          "midi": 47,
          "name": "B2",
          "ticks": 9892,
          "time": 115.02325581395348,
          "velocity": 0.1732283464566929
        },
        {
          "duration": 0.08139534883721922,
          "durationTicks": 7,
          "midi": 82,
          "name": "A#5",
          "ticks": 9892,
          "time": 115.02325581395348,
          "velocity": 0.11023622047244094
        },
        {
          "duration": 0.10465116279068809,
          "durationTicks": 9,
          "midi": 54,
          "name": "F#3",
          "ticks": 9893,
          "time": 115.03488372093024,
          "velocity": 0.23622047244094488
        },
        {
          "duration": 0.034883720930224626,
          "durationTicks": 3,
          "midi": 67,
          "name": "G4",
          "ticks": 9899,
          "time": 115.1046511627907,
          "velocity": 0.15748031496062992
        },
        {
          "duration": 0.03488372093023884,
          "durationTicks": 3,
          "midi": 48,
          "name": "C3",
          "ticks": 9901,
          "time": 115.12790697674419,
          "velocity": 0.08661417322834646
        },
        {
          "duration": 0.32558139534883423,
          "durationTicks": 28,
          "midi": 68,
          "name": "G#4",
          "ticks": 9902,
          "time": 115.13953488372093,
          "velocity": 0.18110236220472442
        },
        {
          "duration": 0.1860465116279073,
          "durationTicks": 16,
          "midi": 47,
          "name": "B2",
          "ticks": 9908,
          "time": 115.20930232558139,
          "velocity": 0.1889763779527559
        },
        {
          "duration": 0.03488372093023884,
          "durationTicks": 3,
          "midi": 56,
          "name": "G#3",
          "ticks": 9923,
          "time": 115.38372093023256,
          "velocity": 0.11811023622047244
        },
        {
          "duration": 0.32558139534883423,
          "durationTicks": 28,
          "midi": 71,
          "name": "B4",
          "ticks": 9926,
          "time": 115.4186046511628,
          "velocity": 0.1732283464566929
        },
        {
          "duration": 0.3139534883720927,
          "durationTicks": 27,
          "midi": 83,
          "name": "B5",
          "ticks": 9927,
          "time": 115.43023255813954,
          "velocity": 0.1732283464566929
        },
        {
          "duration": 0.16279069767441,
          "durationTicks": 14,
          "midi": 87,
          "name": "D#6",
          "ticks": 9927,
          "time": 115.43023255813954,
          "velocity": 0.08661417322834646
        },
        {
          "duration": 0.2674418604651123,
          "durationTicks": 23,
          "midi": 59,
          "name": "B3",
          "ticks": 9928,
          "time": 115.44186046511628,
          "velocity": 0.23622047244094488
        },
        {
          "duration": 0.03488372093023884,
          "durationTicks": 3,
          "midi": 47,
          "name": "B2",
          "ticks": 9929,
          "time": 115.45348837209302,
          "velocity": 0.14960629921259844
        },
        {
          "duration": 0.08139534883721922,
          "durationTicks": 7,
          "midi": 54,
          "name": "F#3",
          "ticks": 9929,
          "time": 115.45348837209302,
          "velocity": 0.14960629921259844
        },
        {
          "duration": 0.03488372093023884,
          "durationTicks": 3,
          "midi": 47,
          "name": "B2",
          "ticks": 9933,
          "time": 115.5,
          "velocity": 0.14173228346456693
        },
        {
          "duration": 0.04651162790698038,
          "durationTicks": 4,
          "midi": 46,
          "name": "A#2",
          "ticks": 9941,
          "time": 115.59302325581395,
          "velocity": 0.11811023622047244
        },
        {
          "duration": 0.06976744186046346,
          "durationTicks": 6,
          "midi": 87,
          "name": "D#6",
          "ticks": 9945,
          "time": 115.63953488372093,
          "velocity": 0.11023622047244094
        },
        {
          "duration": 1.058139534883722,
          "durationTicks": 91,
          "midi": 64,
          "name": "E4",
          "ticks": 9948,
          "time": 115.67441860465117,
          "velocity": 0.29133858267716534
        },
        {
          "duration": 0.05813953488370771,
          "durationTicks": 5,
          "midi": 59,
          "name": "B3",
          "ticks": 9952,
          "time": 115.72093023255815,
          "velocity": 0.18110236220472442
        },
        {
          "duration": 0.38372093023255616,
          "durationTicks": 33,
          "midi": 52,
          "name": "E3",
          "ticks": 9954,
          "time": 115.74418604651163,
          "velocity": 0.18110236220472442
        },
        {
          "duration": 0.19767441860464885,
          "durationTicks": 17,
          "midi": 45,
          "name": "A2",
          "ticks": 9956,
          "time": 115.76744186046511,
          "velocity": 0.25984251968503935
        },
        {
          "duration": 0.09302325581394655,
          "durationTicks": 8,
          "midi": 59,
          "name": "B3",
          "ticks": 9964,
          "time": 115.86046511627907,
          "velocity": 0.2125984251968504
        },
        {
          "duration": 0.2674418604651265,
          "durationTicks": 23,
          "midi": 59,
          "name": "B3",
          "ticks": 9973,
          "time": 115.96511627906976,
          "velocity": 0.1889763779527559
        },
        {
          "duration": 0.1046511627907023,
          "durationTicks": 9,
          "midi": 45,
          "name": "A2",
          "ticks": 9976,
          "time": 116,
          "velocity": 0.2047244094488189
        },
        {
          "duration": 0.30232558139535115,
          "durationTicks": 26,
          "midi": 45,
          "name": "A2",
          "ticks": 9986,
          "time": 116.11627906976744,
          "velocity": 0.29133858267716534
        },
        {
          "duration": 0.3720930232558146,
          "durationTicks": 32,
          "midi": 59,
          "name": "B3",
          "ticks": 9999,
          "time": 116.26744186046511,
          "velocity": 0.2047244094488189
        },
        {
          "duration": 0.1046511627907023,
          "durationTicks": 9,
          "midi": 45,
          "name": "A2",
          "ticks": 10014,
          "time": 116.44186046511628,
          "velocity": 0.16535433070866143
        },
        {
          "duration": 0.418604651162795,
          "durationTicks": 36,
          "midi": 45,
          "name": "A2",
          "ticks": 10027,
          "time": 116.59302325581395,
          "velocity": 0.29133858267716534
        },
        {
          "duration": 0.03488372093023884,
          "durationTicks": 3,
          "midi": 52,
          "name": "E3",
          "ticks": 10031,
          "time": 116.63953488372093,
          "velocity": 0.11023622047244094
        },
        {
          "duration": 0.09302325581394655,
          "durationTicks": 8,
          "midi": 52,
          "name": "E3",
          "ticks": 10035,
          "time": 116.68604651162791,
          "velocity": 0.09448818897637795
        },
        {
          "duration": 0.034883720930224626,
          "durationTicks": 3,
          "midi": 65,
          "name": "F4",
          "ticks": 10039,
          "time": 116.73255813953489,
          "velocity": 0.1968503937007874
        },
        {
          "duration": 0.034883720930224626,
          "durationTicks": 3,
          "midi": 76,
          "name": "E5",
          "ticks": 10039,
          "time": 116.73255813953489,
          "velocity": 0.13385826771653545
        },
        {
          "duration": 0.17441860465116577,
          "durationTicks": 15,
          "midi": 64,
          "name": "E4",
          "ticks": 10042,
          "time": 116.76744186046511,
          "velocity": 0.25196850393700787
        },
        {
          "duration": 0.1860465116279073,
          "durationTicks": 16,
          "midi": 59,
          "name": "B3",
          "ticks": 10048,
          "time": 116.83720930232558,
          "velocity": 0.14173228346456693
        },
        {
          "duration": 0.03488372093023884,
          "durationTicks": 3,
          "midi": 65,
          "name": "F4",
          "ticks": 10057,
          "time": 116.94186046511628,
          "velocity": 0.2125984251968504
        },
        {
          "duration": 0.16279069767441,
          "durationTicks": 14,
          "midi": 64,
          "name": "E4",
          "ticks": 10060,
          "time": 116.97674418604652,
          "velocity": 0.23622047244094488
        },
        {
          "duration": 0.12790697674418539,
          "durationTicks": 11,
          "midi": 45,
          "name": "A2",
          "ticks": 10065,
          "time": 117.03488372093024,
          "velocity": 0.2440944881889764
        },
        {
          "duration": 0.03488372093023884,
          "durationTicks": 3,
          "midi": 65,
          "name": "F4",
          "ticks": 10074,
          "time": 117.13953488372093,
          "velocity": 0.1968503937007874
        },
        {
          "duration": 0.03488372093023884,
          "durationTicks": 3,
          "midi": 76,
          "name": "E5",
          "ticks": 10074,
          "time": 117.13953488372093,
          "velocity": 0.11023622047244094
        },
        {
          "duration": 0.4767441860465027,
          "durationTicks": 41,
          "midi": 64,
          "name": "E4",
          "ticks": 10077,
          "time": 117.17441860465117,
          "velocity": 0.23622047244094488
        },
        {
          "duration": 0.2674418604651123,
          "durationTicks": 23,
          "midi": 45,
          "name": "A2",
          "ticks": 10078,
          "time": 117.18604651162791,
          "velocity": 0.29133858267716534
        },
        {
          "duration": 0.081395348837205,
          "durationTicks": 7,
          "midi": 59,
          "name": "B3",
          "ticks": 10082,
          "time": 117.23255813953489,
          "velocity": 0.14173228346456693
        },
        {
          "duration": 0.05813953488372192,
          "durationTicks": 5,
          "midi": 59,
          "name": "B3",
          "ticks": 10098,
          "time": 117.4186046511628,
          "velocity": 0.11811023622047244
        },
        {
          "duration": 0.2325581395348877,
          "durationTicks": 20,
          "midi": 45,
          "name": "A2",
          "ticks": 10104,
          "time": 117.48837209302326,
          "velocity": 0.2992125984251969
        },
        {
          "duration": 0.081395348837205,
          "durationTicks": 7,
          "midi": 52,
          "name": "E3",
          "ticks": 10104,
          "time": 117.48837209302326,
          "velocity": 0.07874015748031496
        },
        {
          "duration": 0.04651162790698038,
          "durationTicks": 4,
          "midi": 59,
          "name": "B3",
          "ticks": 10116,
          "time": 117.62790697674419,
          "velocity": 0.12598425196850394
        },
        {
          "duration": 0.24418604651162923,
          "durationTicks": 21,
          "midi": 64,
          "name": "E4",
          "ticks": 10121,
          "time": 117.68604651162791,
          "velocity": 0.15748031496062992
        },
        {
          "duration": 0.2674418604651265,
          "durationTicks": 23,
          "midi": 71,
          "name": "B4",
          "ticks": 10123,
          "time": 117.70930232558139,
          "velocity": 0.11811023622047244
        },
        {
          "duration": 0.15116279069768268,
          "durationTicks": 13,
          "midi": 87,
          "name": "D#6",
          "ticks": 10123,
          "time": 117.70930232558139,
          "velocity": 0.07874015748031496
        },
        {
          "duration": 0.2674418604651123,
          "durationTicks": 23,
          "midi": 59,
          "name": "B3",
          "ticks": 10124,
          "time": 117.72093023255815,
          "velocity": 0.2125984251968504
        },
        {
          "duration": 0.05813953488372192,
          "durationTicks": 5,
          "midi": 45,
          "name": "A2",
          "ticks": 10129,
          "time": 117.77906976744185,
          "velocity": 0.31496062992125984
        },
        {
          "duration": 0.03488372093023884,
          "durationTicks": 3,
          "midi": 46,
          "name": "A#2",
          "ticks": 10134,
          "time": 117.83720930232558,
          "velocity": 0.14173228346456693
        },
        {
          "duration": 0.023255813953497295,
          "durationTicks": 2,
          "midi": 44,
          "name": "G#2",
          "ticks": 10138,
          "time": 117.88372093023256,
          "velocity": 0.30708661417322836
        },
        {
          "duration": 0.03488372093023884,
          "durationTicks": 3,
          "midi": 53,
          "name": "F3",
          "ticks": 10138,
          "time": 117.88372093023256,
          "velocity": 0.1732283464566929
        },
        {
          "duration": 0.05813953488370771,
          "durationTicks": 5,
          "midi": 45,
          "name": "A2",
          "ticks": 10140,
          "time": 117.90697674418605,
          "velocity": 0.31496062992125984
        },
        {
          "duration": 0.05813953488372192,
          "durationTicks": 5,
          "midi": 54,
          "name": "F#3",
          "ticks": 10141,
          "time": 117.9186046511628,
          "velocity": 0.16535433070866143
        },
        {
          "duration": 0.081395348837205,
          "durationTicks": 7,
          "midi": 54,
          "name": "F#3",
          "ticks": 10149,
          "time": 118.01162790697674,
          "velocity": 0.23622047244094488
        },
        {
          "duration": 0.7674418604651123,
          "durationTicks": 66,
          "midi": 59,
          "name": "B3",
          "ticks": 10149,
          "time": 118.01162790697674,
          "velocity": 0.23622047244094488
        },
        {
          "duration": 0.8604651162790731,
          "durationTicks": 74,
          "midi": 63,
          "name": "D#4",
          "ticks": 10150,
          "time": 118.02325581395348,
          "velocity": 0.1968503937007874
        },
        {
          "duration": 0.06976744186046346,
          "durationTicks": 6,
          "midi": 82,
          "name": "A#5",
          "ticks": 10150,
          "time": 118.02325581395348,
          "velocity": 0.13385826771653545
        },
        {
          "duration": 0.034883720930224626,
          "durationTicks": 3,
          "midi": 47,
          "name": "B2",
          "ticks": 10152,
          "time": 118.04651162790698,
          "velocity": 0.23622047244094488
        },
        {
          "duration": 0.2325581395348877,
          "durationTicks": 20,
          "midi": 35,
          "name": "B1",
          "ticks": 10154,
          "time": 118.06976744186046,
          "velocity": 0.13385826771653545
        },
        {
          "duration": 0.33720930232559,
          "durationTicks": 29,
          "midi": 47,
          "name": "B2",
          "ticks": 10156,
          "time": 118.09302325581395,
          "velocity": 0.2204724409448819
        },
        {
          "duration": 0.12790697674418539,
          "durationTicks": 11,
          "midi": 35,
          "name": "B1",
          "ticks": 10175,
          "time": 118.31395348837209,
          "velocity": 0.11811023622047244
        },
        {
          "duration": 0.25581395348837077,
          "durationTicks": 22,
          "midi": 47,
          "name": "B2",
          "ticks": 10187,
          "time": 118.45348837209302,
          "velocity": 0.1889763779527559
        },
        {
          "duration": 0.24418604651162923,
          "durationTicks": 21,
          "midi": 35,
          "name": "B1",
          "ticks": 10188,
          "time": 118.46511627906976,
          "velocity": 0.14173228346456693
        },
        {
          "duration": 0.13953488372094114,
          "durationTicks": 12,
          "midi": 54,
          "name": "F#3",
          "ticks": 10188,
          "time": 118.46511627906976,
          "velocity": 0.1732283464566929
        },
        {
          "duration": 0.13953488372092693,
          "durationTicks": 12,
          "midi": 35,
          "name": "B1",
          "ticks": 10211,
          "time": 118.73255813953489,
          "velocity": 0.14960629921259844
        },
        {
          "duration": 0.19767441860464885,
          "durationTicks": 17,
          "midi": 47,
          "name": "B2",
          "ticks": 10211,
          "time": 118.73255813953489,
          "velocity": 0.2677165354330709
        },
        {
          "duration": 0.09302325581394655,
          "durationTicks": 8,
          "midi": 54,
          "name": "F#3",
          "ticks": 10212,
          "time": 118.74418604651163,
          "velocity": 0.12598425196850394
        },
        {
          "duration": 0.034883720930224626,
          "durationTicks": 3,
          "midi": 35,
          "name": "B1",
          "ticks": 10226,
          "time": 118.90697674418605,
          "velocity": 0.1968503937007874
        },
        {
          "duration": 0.25581395348837077,
          "durationTicks": 22,
          "midi": 71,
          "name": "B4",
          "ticks": 10226,
          "time": 118.90697674418605,
          "velocity": 0.14173228346456693
        },
        {
          "duration": 0.19767441860464885,
          "durationTicks": 17,
          "midi": 35,
          "name": "B1",
          "ticks": 10230,
          "time": 118.95348837209302,
          "velocity": 0.1968503937007874
        },
        {
          "duration": 0.19767441860464885,
          "durationTicks": 17,
          "midi": 47,
          "name": "B2",
          "ticks": 10230,
          "time": 118.95348837209302,
          "velocity": 0.2440944881889764
        },
        {
          "duration": 0.12790697674418539,
          "durationTicks": 11,
          "midi": 78,
          "name": "F#5",
          "ticks": 10231,
          "time": 118.96511627906976,
          "velocity": 0.07874015748031496
        },
        {
          "duration": 0.03488372093023884,
          "durationTicks": 3,
          "midi": 36,
          "name": "C2",
          "ticks": 10247,
          "time": 119.15116279069767,
          "velocity": 0.14173228346456693
        },
        {
          "duration": 0.03488372093023884,
          "durationTicks": 3,
          "midi": 46,
          "name": "A#2",
          "ticks": 10247,
          "time": 119.15116279069767,
          "velocity": 0.1732283464566929
        },
        {
          "duration": 0.17441860465116577,
          "durationTicks": 15,
          "midi": 71,
          "name": "B4",
          "ticks": 10251,
          "time": 119.19767441860465,
          "velocity": 0.10236220472440945
        },
        {
          "duration": 0.11627906976744384,
          "durationTicks": 10,
          "midi": 87,
          "name": "D#6",
          "ticks": 10251,
          "time": 119.19767441860465,
          "velocity": 0.08661417322834646
        },
        {
          "duration": 0.34883720930233153,
          "durationTicks": 30,
          "midi": 64,
          "name": "E4",
          "ticks": 10252,
          "time": 119.20930232558139,
          "velocity": 0.2047244094488189
        },
        {
          "duration": 0.05813953488372192,
          "durationTicks": 5,
          "midi": 47,
          "name": "B2",
          "ticks": 10255,
          "time": 119.24418604651163,
          "velocity": 0.09448818897637795
        },
        {
          "duration": 0.3139534883720927,
          "durationTicks": 27,
          "midi": 59,
          "name": "B3",
          "ticks": 10260,
          "time": 119.30232558139535,
          "velocity": 0.15748031496062992
        },
        {
          "duration": 0.11627906976742963,
          "durationTicks": 10,
          "midi": 54,
          "name": "F#3",
          "ticks": 10264,
          "time": 119.34883720930233,
          "velocity": 0.12598425196850394
        },
        {
          "duration": 0.03488372093023884,
          "durationTicks": 3,
          "midi": 35,
          "name": "B1",
          "ticks": 10272,
          "time": 119.44186046511628,
          "velocity": 0.10236220472440945
        },
        {
          "duration": 0.034883720930224626,
          "durationTicks": 3,
          "midi": 47,
          "name": "B2",
          "ticks": 10276,
          "time": 119.48837209302326,
          "velocity": 0.14173228346456693
        },
        {
          "duration": 0.081395348837205,
          "durationTicks": 7,
          "midi": 54,
          "name": "F#3",
          "ticks": 10276,
          "time": 119.48837209302326,
          "velocity": 0.1732283464566929
        },
        {
          "duration": 0.081395348837205,
          "durationTicks": 7,
          "midi": 35,
          "name": "B1",
          "ticks": 10278,
          "time": 119.51162790697674,
          "velocity": 0.11023622047244094
        },
        {
          "duration": 0.04651162790696617,
          "durationTicks": 4,
          "midi": 47,
          "name": "B2",
          "ticks": 10280,
          "time": 119.53488372093024,
          "velocity": 0.12598425196850394
        },
        {
          "duration": 0.034883720930224626,
          "durationTicks": 3,
          "midi": 63,
          "name": "D#4",
          "ticks": 10282,
          "time": 119.55813953488372,
          "velocity": 0.08661417322834646
        },
        {
          "duration": 0.5697674418604635,
          "durationTicks": 49,
          "midi": 54,
          "name": "F#3",
          "ticks": 10287,
          "time": 119.61627906976744,
          "velocity": 0.33858267716535434
        },
        {
          "duration": 0.24418604651162923,
          "durationTicks": 21,
          "midi": 71,
          "name": "B4",
          "ticks": 10287,
          "time": 119.61627906976744,
          "velocity": 0.12598425196850394
        },
        {
          "duration": 0.16279069767442422,
          "durationTicks": 14,
          "midi": 87,
          "name": "D#6",
          "ticks": 10288,
          "time": 119.62790697674419,
          "velocity": 0.07874015748031496
        },
        {
          "duration": 0.09302325581396076,
          "durationTicks": 8,
          "midi": 35,
          "name": "B1",
          "ticks": 10289,
          "time": 119.63953488372093,
          "velocity": 0.14960629921259844
        },
        {
          "duration": 0.40697674418605345,
          "durationTicks": 35,
          "midi": 59,
          "name": "B3",
          "ticks": 10289,
          "time": 119.63953488372093,
          "velocity": 0.25984251968503935
        },
        {
          "duration": 0.09302325581394655,
          "durationTicks": 8,
          "midi": 63,
          "name": "D#4",
          "ticks": 10297,
          "time": 119.73255813953489,
          "velocity": 0.08661417322834646
        },
        {
          "duration": 0.03488372093023884,
          "durationTicks": 3,
          "midi": 47,
          "name": "B2",
          "ticks": 10300,
          "time": 119.76744186046511,
          "velocity": 0.11023622047244094
        },
        {
          "duration": 0.17441860465116577,
          "durationTicks": 15,
          "midi": 35,
          "name": "B1",
          "ticks": 10306,
          "time": 119.83720930232558,
          "velocity": 0.12598425196850394
        },
        {
          "duration": 0.16279069767441,
          "durationTicks": 14,
          "midi": 47,
          "name": "B2",
          "ticks": 10307,
          "time": 119.84883720930233,
          "velocity": 0.14960629921259844
        },
        {
          "duration": 0.09302325581394655,
          "durationTicks": 8,
          "midi": 47,
          "name": "B2",
          "ticks": 10323,
          "time": 120.03488372093024,
          "velocity": 0.12598425196850394
        },
        {
          "duration": 0.04651162790698038,
          "durationTicks": 4,
          "midi": 35,
          "name": "B1",
          "ticks": 10326,
          "time": 120.06976744186046,
          "velocity": 0.08661417322834646
        },
        {
          "duration": 0.05813953488372192,
          "durationTicks": 5,
          "midi": 82,
          "name": "A#5",
          "ticks": 10326,
          "time": 120.06976744186046,
          "velocity": 0.10236220472440945
        },
        {
          "duration": 0.05813953488372192,
          "durationTicks": 5,
          "midi": 36,
          "name": "C2",
          "ticks": 10330,
          "time": 120.11627906976744,
          "velocity": 0.13385826771653545
        },
        {
          "duration": 0.03488372093023884,
          "durationTicks": 3,
          "midi": 67,
          "name": "G4",
          "ticks": 10332,
          "time": 120.13953488372093,
          "velocity": 0.11811023622047244
        },
        {
          "duration": 0.13953488372092693,
          "durationTicks": 12,
          "midi": 37,
          "name": "C#2",
          "ticks": 10335,
          "time": 120.17441860465117,
          "velocity": 0.15748031496062992
        },
        {
          "duration": 0.12790697674418539,
          "durationTicks": 11,
          "midi": 68,
          "name": "G#4",
          "ticks": 10335,
          "time": 120.17441860465117,
          "velocity": 0.14960629921259844
        },
        {
          "duration": 0.023255813953497295,
          "durationTicks": 2,
          "midi": 55,
          "name": "G3",
          "ticks": 10337,
          "time": 120.19767441860465,
          "velocity": 0.2440944881889764
        },
        {
          "duration": 0.03488372093023884,
          "durationTicks": 3,
          "midi": 55,
          "name": "G3",
          "ticks": 10344,
          "time": 120.27906976744185,
          "velocity": 0.1889763779527559
        },
        {
          "duration": 0.023255813953483084,
          "durationTicks": 2,
          "midi": 55,
          "name": "G3",
          "ticks": 10350,
          "time": 120.34883720930233,
          "velocity": 0.2283464566929134
        },
        {
          "duration": 0.023255813953483084,
          "durationTicks": 2,
          "midi": 37,
          "name": "C#2",
          "ticks": 10351,
          "time": 120.36046511627907,
          "velocity": 0.2283464566929134
        },
        {
          "duration": 0.04651162790698038,
          "durationTicks": 4,
          "midi": 56,
          "name": "G#3",
          "ticks": 10352,
          "time": 120.37209302325581,
          "velocity": 0.2204724409448819
        },
        {
          "duration": 0.3720930232558146,
          "durationTicks": 32,
          "midi": 71,
          "name": "B4",
          "ticks": 10353,
          "time": 120.38372093023256,
          "velocity": 0.10236220472440945
        },
        {
          "duration": 0.19767441860464885,
          "durationTicks": 17,
          "midi": 37,
          "name": "C#2",
          "ticks": 10354,
          "time": 120.3953488372093,
          "velocity": 0.2047244094488189
        },
        {
          "duration": 0.04651162790698038,
          "durationTicks": 4,
          "midi": 87,
          "name": "D#6",
          "ticks": 10357,
          "time": 120.43023255813954,
          "velocity": 0.10236220472440945
        },
        {
          "duration": 0.8139534883720927,
          "durationTicks": 70,
          "midi": 59,
          "name": "B3",
          "ticks": 10358,
          "time": 120.44186046511628,
          "velocity": 0.2204724409448819
        },
        {
          "duration": 0.05813953488372192,
          "durationTicks": 5,
          "midi": 87,
          "name": "D#6",
          "ticks": 10365,
          "time": 120.52325581395348,
          "velocity": 0.10236220472440945
        },
        {
          "duration": 0.03488372093023884,
          "durationTicks": 3,
          "midi": 87,
          "name": "D#6",
          "ticks": 10375,
          "time": 120.63953488372093,
          "velocity": 0.07086614173228346
        },
        {
          "duration": 0.11627906976744384,
          "durationTicks": 10,
          "midi": 37,
          "name": "C#2",
          "ticks": 10376,
          "time": 120.65116279069767,
          "velocity": 0.11811023622047244
        },
        {
          "duration": 0.034883720930224626,
          "durationTicks": 3,
          "midi": 87,
          "name": "D#6",
          "ticks": 10382,
          "time": 120.72093023255815,
          "velocity": 0.08661417322834646
        },
        {
          "duration": 0.11627906976744384,
          "durationTicks": 10,
          "midi": 37,
          "name": "C#2",
          "ticks": 10388,
          "time": 120.79069767441861,
          "velocity": 0.18110236220472442
        },
        {
          "duration": 0.3488372093023173,
          "durationTicks": 30,
          "midi": 63,
          "name": "D#4",
          "ticks": 10388,
          "time": 120.79069767441861,
          "velocity": 0.16535433070866143
        },
        {
          "duration": 0.2906976744185954,
          "durationTicks": 25,
          "midi": 75,
          "name": "D#5",
          "ticks": 10388,
          "time": 120.79069767441861,
          "velocity": 0.2047244094488189
        },
        {
          "duration": 0.1046511627907023,
          "durationTicks": 9,
          "midi": 37,
          "name": "C#2",
          "ticks": 10400,
          "time": 120.93023255813954,
          "velocity": 0.12598425196850394
        },
        {
          "duration": 0.2093023255813904,
          "durationTicks": 18,
          "midi": 49,
          "name": "C#3",
          "ticks": 10409,
          "time": 121.03488372093024,
          "velocity": 0.18110236220472442
        },
        {
          "duration": 0.1860465116279073,
          "durationTicks": 16,
          "midi": 64,
          "name": "E4",
          "ticks": 10423,
          "time": 121.19767441860465,
          "velocity": 0.2125984251968504
        },
        {
          "duration": 0.30232558139535115,
          "durationTicks": 26,
          "midi": 83,
          "name": "B5",
          "ticks": 10423,
          "time": 121.19767441860465,
          "velocity": 0.15748031496062992
        },
        {
          "duration": 0.24418604651162923,
          "durationTicks": 21,
          "midi": 37,
          "name": "C#2",
          "ticks": 10427,
          "time": 121.24418604651163,
          "velocity": 0.18110236220472442
        },
        {
          "duration": 0.04651162790698038,
          "durationTicks": 4,
          "midi": 56,
          "name": "G#3",
          "ticks": 10428,
          "time": 121.25581395348837,
          "velocity": 0.11811023622047244
        },
        {
          "duration": 0.06976744186046346,
          "durationTicks": 6,
          "midi": 56,
          "name": "G#3",
          "ticks": 10433,
          "time": 121.31395348837209,
          "velocity": 0.14173228346456693
        },
        {
          "duration": 0.05813953488372192,
          "durationTicks": 5,
          "midi": 59,
          "name": "B3",
          "ticks": 10438,
          "time": 121.37209302325581,
          "velocity": 0.13385826771653545
        },
        {
          "duration": 0.05813953488372192,
          "durationTicks": 5,
          "midi": 63,
          "name": "D#4",
          "ticks": 10440,
          "time": 121.3953488372093,
          "velocity": 0.13385826771653545
        },
        {
          "duration": 0.32558139534884845,
          "durationTicks": 28,
          "midi": 75,
          "name": "D#5",
          "ticks": 10440,
          "time": 121.3953488372093,
          "velocity": 0.1889763779527559
        },
        {
          "duration": 0.04651162790698038,
          "durationTicks": 4,
          "midi": 71,
          "name": "B4",
          "ticks": 10446,
          "time": 121.46511627906976,
          "velocity": 0.08661417322834646
        },
        {
          "duration": 0.2093023255813904,
          "durationTicks": 18,
          "midi": 63,
          "name": "D#4",
          "ticks": 10448,
          "time": 121.48837209302326,
          "velocity": 0.2204724409448819
        },
        {
          "duration": 0.11627906976744384,
          "durationTicks": 10,
          "midi": 49,
          "name": "C#3",
          "ticks": 10450,
          "time": 121.51162790697674,
          "velocity": 0.11811023622047244
        },
        {
          "duration": 0.06976744186046346,
          "durationTicks": 6,
          "midi": 82,
          "name": "A#5",
          "ticks": 10450,
          "time": 121.51162790697674,
          "velocity": 0.07086614173228346
        },
        {
          "duration": 0.081395348837205,
          "durationTicks": 7,
          "midi": 37,
          "name": "C#2",
          "ticks": 10453,
          "time": 121.54651162790698,
          "velocity": 0.14173228346456693
        },
        {
          "duration": 0.13953488372092693,
          "durationTicks": 12,
          "midi": 59,
          "name": "B3",
          "ticks": 10454,
          "time": 121.55813953488372,
          "velocity": 0.16535433070866143
        },
        {
          "duration": 0.12790697674418539,
          "durationTicks": 11,
          "midi": 37,
          "name": "C#2",
          "ticks": 10462,
          "time": 121.65116279069767,
          "velocity": 0.1732283464566929
        },
        {
          "duration": 0.11627906976744384,
          "durationTicks": 10,
          "midi": 37,
          "name": "C#2",
          "ticks": 10475,
          "time": 121.80232558139535,
          "velocity": 0.1968503937007874
        },
        {
          "duration": 0.09302325581396076,
          "durationTicks": 8,
          "midi": 61,
          "name": "C#4",
          "ticks": 10476,
          "time": 121.81395348837209,
          "velocity": 0.10236220472440945
        },
        {
          "duration": 0.08139534883721922,
          "durationTicks": 7,
          "midi": 56,
          "name": "G#3",
          "ticks": 10478,
          "time": 121.83720930232558,
          "velocity": 0.10236220472440945
        },
        {
          "duration": 0.034883720930224626,
          "durationTicks": 3,
          "midi": 36,
          "name": "C2",
          "ticks": 10485,
          "time": 121.9186046511628,
          "velocity": 0.1968503937007874
        },
        {
          "duration": 0.023255813953483084,
          "durationTicks": 2,
          "midi": 55,
          "name": "G3",
          "ticks": 10485,
          "time": 121.9186046511628,
          "velocity": 0.25196850393700787
        },
        {
          "duration": 0.05813953488372192,
          "durationTicks": 5,
          "midi": 66,
          "name": "F#4",
          "ticks": 10485,
          "time": 121.9186046511628,
          "velocity": 0.13385826771653545
        },
        {
          "duration": 0.05813953488372192,
          "durationTicks": 5,
          "midi": 82,
          "name": "A#5",
          "ticks": 10485,
          "time": 121.9186046511628,
          "velocity": 0.11023622047244094
        },
        {
          "duration": 0.03488372093023884,
          "durationTicks": 3,
          "midi": 54,
          "name": "F#3",
          "ticks": 10487,
          "time": 121.94186046511628,
          "velocity": 0.30708661417322836
        },
        {
          "duration": 0.1046511627907023,
          "durationTicks": 9,
          "midi": 37,
          "name": "C#2",
          "ticks": 10488,
          "time": 121.95348837209302,
          "velocity": 0.1968503937007874
        },
        {
          "duration": 0.11627906976744384,
          "durationTicks": 10,
          "midi": 73,
          "name": "C#5",
          "ticks": 10488,
          "time": 121.95348837209302,
          "velocity": 0.07874015748031496
        },
        {
          "duration": 0.04651162790696617,
          "durationTicks": 4,
          "midi": 67,
          "name": "G4",
          "ticks": 10490,
          "time": 121.97674418604652,
          "velocity": 0.13385826771653545
        },
        {
          "duration": 0.034883720930224626,
          "durationTicks": 3,
          "midi": 54,
          "name": "F#3",
          "ticks": 10491,
          "time": 121.98837209302326,
          "velocity": 0.23622047244094488
        },
        {
          "duration": 0.2906976744186096,
          "durationTicks": 25,
          "midi": 68,
          "name": "G#4",
          "ticks": 10494,
          "time": 122.02325581395348,
          "velocity": 0.1889763779527559
        },
        {
          "duration": 0.06976744186046346,
          "durationTicks": 6,
          "midi": 56,
          "name": "G#3",
          "ticks": 10497,
          "time": 122.05813953488372,
          "velocity": 0.1968503937007874
        },
        {
          "duration": 0.2093023255814046,
          "durationTicks": 18,
          "midi": 49,
          "name": "C#3",
          "ticks": 10500,
          "time": 122.09302325581395,
          "velocity": 0.18110236220472442
        },
        {
          "duration": 0.2093023255813904,
          "durationTicks": 18,
          "midi": 37,
          "name": "C#2",
          "ticks": 10502,
          "time": 122.11627906976744,
          "velocity": 0.14173228346456693
        },
        {
          "duration": 0.05813953488372192,
          "durationTicks": 5,
          "midi": 73,
          "name": "C#5",
          "ticks": 10502,
          "time": 122.11627906976744,
          "velocity": 0.07086614173228346
        },
        {
          "duration": 0.12790697674418539,
          "durationTicks": 11,
          "midi": 83,
          "name": "B5",
          "ticks": 10502,
          "time": 122.11627906976744,
          "velocity": 0.08661417322834646
        },
        {
          "duration": 0.09302325581396076,
          "durationTicks": 8,
          "midi": 56,
          "name": "G#3",
          "ticks": 10504,
          "time": 122.13953488372093,
          "velocity": 0.16535433070866143
        },
        {
          "duration": 0.2325581395348877,
          "durationTicks": 20,
          "midi": 64,
          "name": "E4",
          "ticks": 10518,
          "time": 122.30232558139535,
          "velocity": 0.23622047244094488
        },
        {
          "duration": 0.06976744186046346,
          "durationTicks": 6,
          "midi": 49,
          "name": "C#3",
          "ticks": 10525,
          "time": 122.38372093023256,
          "velocity": 0.11023622047244094
        },
        {
          "duration": 0.04651162790698038,
          "durationTicks": 4,
          "midi": 54,
          "name": "F#3",
          "ticks": 10534,
          "time": 122.48837209302326,
          "velocity": 0.11023622047244094
        },
        {
          "duration": 0.03488372093023884,
          "durationTicks": 3,
          "midi": 38,
          "name": "D2",
          "ticks": 10535,
          "time": 122.5,
          "velocity": 0.14960629921259844
        },
        {
          "duration": 0.06976744186046346,
          "durationTicks": 6,
          "midi": 37,
          "name": "C#2",
          "ticks": 10538,
          "time": 122.53488372093024,
          "velocity": 0.15748031496062992
        },
        {
          "duration": 0.15116279069766847,
          "durationTicks": 13,
          "midi": 66,
          "name": "F#4",
          "ticks": 10539,
          "time": 122.54651162790698,
          "velocity": 0.23622047244094488
        },
        {
          "duration": 0.03488372093023884,
          "durationTicks": 3,
          "midi": 48,
          "name": "C3",
          "ticks": 10542,
          "time": 122.5813953488372,
          "velocity": 0.07086614173228346
        },
        {
          "duration": 0.06976744186046346,
          "durationTicks": 6,
          "midi": 47,
          "name": "B2",
          "ticks": 10545,
          "time": 122.61627906976744,
          "velocity": 0.2677165354330709
        },
        {
          "duration": 0.11627906976744384,
          "durationTicks": 10,
          "midi": 54,
          "name": "F#3",
          "ticks": 10548,
          "time": 122.65116279069767,
          "velocity": 0.2125984251968504
        },
        {
          "duration": 0.25581395348837077,
          "durationTicks": 22,
          "midi": 47,
          "name": "B2",
          "ticks": 10552,
          "time": 122.69767441860465,
          "velocity": 0.2677165354330709
        },
        {
          "duration": 0.03488372093023884,
          "durationTicks": 3,
          "midi": 67,
          "name": "G4",
          "ticks": 10552,
          "time": 122.69767441860465,
          "velocity": 0.2283464566929134
        },
        {
          "duration": 0.19767441860464885,
          "durationTicks": 17,
          "midi": 68,
          "name": "G#4",
          "ticks": 10555,
          "time": 122.73255813953489,
          "velocity": 0.2047244094488189
        },
        {
          "duration": 0.04651162790698038,
          "durationTicks": 4,
          "midi": 67,
          "name": "G4",
          "ticks": 10572,
          "time": 122.93023255813954,
          "velocity": 0.2440944881889764
        },
        {
          "duration": 0.05813953488372192,
          "durationTicks": 5,
          "midi": 47,
          "name": "B2",
          "ticks": 10575,
          "time": 122.96511627906976,
          "velocity": 0.18110236220472442
        },
        {
          "duration": 0.04651162790696617,
          "durationTicks": 4,
          "midi": 66,
          "name": "F#4",
          "ticks": 10576,
          "time": 122.97674418604652,
          "velocity": 0.2047244094488189
        },
        {
          "duration": 0.3139534883720927,
          "durationTicks": 27,
          "midi": 78,
          "name": "F#5",
          "ticks": 10580,
          "time": 123.02325581395348,
          "velocity": 0.18110236220472442
        },
        {
          "duration": 0.30232558139533694,
          "durationTicks": 26,
          "midi": 66,
          "name": "F#4",
          "ticks": 10581,
          "time": 123.03488372093024,
          "velocity": 0.2283464566929134
        },
        {
          "duration": 0.11627906976744384,
          "durationTicks": 10,
          "midi": 47,
          "name": "B2",
          "ticks": 10582,
          "time": 123.04651162790698,
          "velocity": 0.23622047244094488
        },
        {
          "duration": 0.034883720930224626,
          "durationTicks": 3,
          "midi": 35,
          "name": "B1",
          "ticks": 10587,
          "time": 123.1046511627907,
          "velocity": 0.07874015748031496
        },
        {
          "duration": 0.10465116279068809,
          "durationTicks": 9,
          "midi": 47,
          "name": "B2",
          "ticks": 10593,
          "time": 123.17441860465117,
          "velocity": 0.14173228346456693
        },
        {
          "duration": 0.2093023255813904,
          "durationTicks": 18,
          "midi": 54,
          "name": "F#3",
          "ticks": 10597,
          "time": 123.22093023255815,
          "velocity": 0.25984251968503935
        },
        {
          "duration": 0.06976744186046346,
          "durationTicks": 6,
          "midi": 35,
          "name": "B1",
          "ticks": 10598,
          "time": 123.23255813953489,
          "velocity": 0.13385826771653545
        },
        {
          "duration": 0.1046511627907023,
          "durationTicks": 9,
          "midi": 47,
          "name": "B2",
          "ticks": 10606,
          "time": 123.32558139534883,
          "velocity": 0.15748031496062992
        },
        {
          "duration": 0.03488372093023884,
          "durationTicks": 3,
          "midi": 36,
          "name": "C2",
          "ticks": 10612,
          "time": 123.3953488372093,
          "velocity": 0.10236220472440945
        },
        {
          "duration": 0.19767441860464885,
          "durationTicks": 17,
          "midi": 64,
          "name": "E4",
          "ticks": 10614,
          "time": 123.4186046511628,
          "velocity": 0.2204724409448819
        },
        {
          "duration": 0.05813953488372192,
          "durationTicks": 5,
          "midi": 54,
          "name": "F#3",
          "ticks": 10616,
          "time": 123.44186046511628,
          "velocity": 0.09448818897637795
        },
        {
          "duration": 0.1046511627907023,
          "durationTicks": 9,
          "midi": 47,
          "name": "B2",
          "ticks": 10618,
          "time": 123.46511627906976,
          "velocity": 0.2047244094488189
        },
        {
          "duration": 0.16279069767441,
          "durationTicks": 14,
          "midi": 35,
          "name": "B1",
          "ticks": 10620,
          "time": 123.48837209302326,
          "velocity": 0.13385826771653545
        },
        {
          "duration": 0.12790697674418539,
          "durationTicks": 11,
          "midi": 54,
          "name": "F#3",
          "ticks": 10623,
          "time": 123.52325581395348,
          "velocity": 0.15748031496062992
        },
        {
          "duration": 0.034883720930224626,
          "durationTicks": 3,
          "midi": 63,
          "name": "D#4",
          "ticks": 10631,
          "time": 123.61627906976744,
          "velocity": 0.1889763779527559
        },
        {
          "duration": 0.03488372093023884,
          "durationTicks": 3,
          "midi": 45,
          "name": "A2",
          "ticks": 10633,
          "time": 123.63953488372093,
          "velocity": 0.12598425196850394
        },
        {
          "duration": 0.04651162790698038,
          "durationTicks": 4,
          "midi": 62,
          "name": "D4",
          "ticks": 10634,
          "time": 123.65116279069767,
          "velocity": 0.14960629921259844
        },
        {
          "duration": 0.04651162790698038,
          "durationTicks": 4,
          "midi": 72,
          "name": "C5",
          "ticks": 10643,
          "time": 123.75581395348837,
          "velocity": 0.09448818897637795
        },
        {
          "duration": 0.03488372093023884,
          "durationTicks": 3,
          "midi": 60,
          "name": "C4",
          "ticks": 10644,
          "time": 123.76744186046511,
          "velocity": 0.1889763779527559
        },
        {
          "duration": 0.3604651162790731,
          "durationTicks": 31,
          "midi": 61,
          "name": "C#4",
          "ticks": 10647,
          "time": 123.80232558139535,
          "velocity": 0.2283464566929134
        },
        {
          "duration": 0.3139534883720927,
          "durationTicks": 27,
          "midi": 76,
          "name": "E5",
          "ticks": 10679,
          "time": 124.17441860465117,
          "velocity": 0.2204724409448819
        },
        {
          "duration": 0.30232558139535115,
          "durationTicks": 26,
          "midi": 64,
          "name": "E4",
          "ticks": 10680,
          "time": 124.18604651162791,
          "velocity": 0.2440944881889764
        },
        {
          "duration": 0.04651162790698038,
          "durationTicks": 4,
          "midi": 66,
          "name": "F#4",
          "ticks": 10708,
          "time": 124.51162790697674,
          "velocity": 0.12598425196850394
        },
        {
          "duration": 0.09302325581396076,
          "durationTicks": 8,
          "midi": 66,
          "name": "F#4",
          "ticks": 10714,
          "time": 124.5813953488372,
          "velocity": 0.2677165354330709
        },
        {
          "duration": 0.11627906976744384,
          "durationTicks": 10,
          "midi": 54,
          "name": "F#3",
          "ticks": 10718,
          "time": 124.62790697674419,
          "velocity": 0.13385826771653545
        },
        {
          "duration": 0.04651162790696617,
          "durationTicks": 4,
          "midi": 79,
          "name": "G5",
          "ticks": 10721,
          "time": 124.66279069767442,
          "velocity": 0.13385826771653545
        },
        {
          "duration": 0.034883720930224626,
          "durationTicks": 3,
          "midi": 67,
          "name": "G4",
          "ticks": 10722,
          "time": 124.67441860465117,
          "velocity": 0.25984251968503935
        },
        {
          "duration": 0.15116279069768268,
          "durationTicks": 13,
          "midi": 68,
          "name": "G#4",
          "ticks": 10725,
          "time": 124.70930232558139,
          "velocity": 0.25196850393700787
        },
        {
          "duration": 0.03488372093023884,
          "durationTicks": 3,
          "midi": 41,
          "name": "F2",
          "ticks": 10739,
          "time": 124.87209302325581,
          "velocity": 0.3858267716535433
        },
        {
          "duration": 0.04651162790698038,
          "durationTicks": 4,
          "midi": 55,
          "name": "G3",
          "ticks": 10739,
          "time": 124.87209302325581,
          "velocity": 0.16535433070866143
        },
        {
          "duration": 0.34883720930233153,
          "durationTicks": 30,
          "midi": 71,
          "name": "B4",
          "ticks": 10741,
          "time": 124.8953488372093,
          "velocity": 0.23622047244094488
        },
        {
          "duration": 0.34883720930233153,
          "durationTicks": 30,
          "midi": 83,
          "name": "B5",
          "ticks": 10741,
          "time": 124.8953488372093,
          "velocity": 0.2992125984251969
        },
        {
          "duration": 0.023255813953483084,
          "durationTicks": 2,
          "midi": 43,
          "name": "G2",
          "ticks": 10743,
          "time": 124.9186046511628,
          "velocity": 0.3228346456692913
        },
        {
          "duration": 0.12790697674418539,
          "durationTicks": 11,
          "midi": 54,
          "name": "F#3",
          "ticks": 10743,
          "time": 124.9186046511628,
          "velocity": 0.29133858267716534
        },
        {
          "duration": 0.03488372093023884,
          "durationTicks": 3,
          "midi": 42,
          "name": "F#2",
          "ticks": 10747,
          "time": 124.96511627906976,
          "velocity": 0.33070866141732286
        },
        {
          "duration": 0.13953488372092693,
          "durationTicks": 12,
          "midi": 42,
          "name": "F#2",
          "ticks": 10751,
          "time": 125.01162790697674,
          "velocity": 0.29133858267716534
        },
        {
          "duration": 0.04651162790696617,
          "durationTicks": 4,
          "midi": 57,
          "name": "A3",
          "ticks": 10754,
          "time": 125.04651162790698,
          "velocity": 0.07086614173228346
        },
        {
          "duration": 0.10465116279068809,
          "durationTicks": 9,
          "midi": 42,
          "name": "F#2",
          "ticks": 10764,
          "time": 125.16279069767442,
          "velocity": 0.2283464566929134
        },
        {
          "duration": 0.09302325581394655,
          "durationTicks": 8,
          "midi": 72,
          "name": "C5",
          "ticks": 10771,
          "time": 125.24418604651163,
          "velocity": 0.2125984251968504
        },
        {
          "duration": 0.023255813953483084,
          "durationTicks": 2,
          "midi": 42,
          "name": "F#2",
          "ticks": 10777,
          "time": 125.31395348837209,
          "velocity": 0.25196850393700787
        },
        {
          "duration": 0.1860465116279073,
          "durationTicks": 16,
          "midi": 83,
          "name": "B5",
          "ticks": 10778,
          "time": 125.32558139534883,
          "velocity": 0.2440944881889764
        },
        {
          "duration": 0.17441860465116577,
          "durationTicks": 15,
          "midi": 71,
          "name": "B4",
          "ticks": 10779,
          "time": 125.33720930232558,
          "velocity": 0.1732283464566929
        },
        {
          "duration": 0.10465116279068809,
          "durationTicks": 9,
          "midi": 42,
          "name": "F#2",
          "ticks": 10780,
          "time": 125.34883720930233,
          "velocity": 0.28346456692913385
        },
        {
          "duration": 0.12790697674418539,
          "durationTicks": 11,
          "midi": 42,
          "name": "F#2",
          "ticks": 10790,
          "time": 125.46511627906976,
          "velocity": 0.23622047244094488
        },
        {
          "duration": 0.1046511627907023,
          "durationTicks": 9,
          "midi": 72,
          "name": "C5",
          "ticks": 10794,
          "time": 125.51162790697674,
          "velocity": 0.14960629921259844
        },
        {
          "duration": 0.03488372093023884,
          "durationTicks": 3,
          "midi": 41,
          "name": "F2",
          "ticks": 10801,
          "time": 125.59302325581395,
          "velocity": 0.23622047244094488
        },
        {
          "duration": 0.17441860465115155,
          "durationTicks": 15,
          "midi": 83,
          "name": "B5",
          "ticks": 10802,
          "time": 125.6046511627907,
          "velocity": 0.14173228346456693
        },
        {
          "duration": 0.06976744186046346,
          "durationTicks": 6,
          "midi": 54,
          "name": "F#3",
          "ticks": 10803,
          "time": 125.61627906976744,
          "velocity": 0.1889763779527559
        },
        {
          "duration": 0.12790697674418539,
          "durationTicks": 11,
          "midi": 42,
          "name": "F#2",
          "ticks": 10804,
          "time": 125.62790697674419,
          "velocity": 0.2283464566929134
        },
        {
          "duration": 0.05813953488372192,
          "durationTicks": 5,
          "midi": 71,
          "name": "B4",
          "ticks": 10809,
          "time": 125.68604651162791,
          "velocity": 0.10236220472440945
        },
        {
          "duration": 0.2674418604651123,
          "durationTicks": 23,
          "midi": 42,
          "name": "F#2",
          "ticks": 10818,
          "time": 125.79069767441861,
          "velocity": 0.3464566929133858
        },
        {
          "duration": 0.034883720930224626,
          "durationTicks": 3,
          "midi": 72,
          "name": "C5",
          "ticks": 10818,
          "time": 125.79069767441861,
          "velocity": 0.07874015748031496
        },
        {
          "duration": 0.19767441860464885,
          "durationTicks": 17,
          "midi": 57,
          "name": "A3",
          "ticks": 10823,
          "time": 125.84883720930233,
          "velocity": 0.08661417322834646
        },
        {
          "duration": 0.09302325581396076,
          "durationTicks": 8,
          "midi": 42,
          "name": "F#2",
          "ticks": 10843,
          "time": 126.0813953488372,
          "velocity": 0.1732283464566929
        },
        {
          "duration": 0.11627906976744384,
          "durationTicks": 10,
          "midi": 49,
          "name": "C#3",
          "ticks": 10843,
          "time": 126.0813953488372,
          "velocity": 0.1732283464566929
        },
        {
          "duration": 0.034883720930224626,
          "durationTicks": 3,
          "midi": 42,
          "name": "F#2",
          "ticks": 10855,
          "time": 126.22093023255815,
          "velocity": 0.1889763779527559
        },
        {
          "duration": 0.11627906976742963,
          "durationTicks": 10,
          "midi": 54,
          "name": "F#3",
          "ticks": 10855,
          "time": 126.22093023255815,
          "velocity": 0.2755905511811024
        },
        {
          "duration": 0.04651162790698038,
          "durationTicks": 4,
          "midi": 42,
          "name": "F#2",
          "ticks": 10859,
          "time": 126.26744186046511,
          "velocity": 0.2125984251968504
        },
        {
          "duration": 0.16279069767442422,
          "durationTicks": 14,
          "midi": 42,
          "name": "F#2",
          "ticks": 10864,
          "time": 126.32558139534883,
          "velocity": 0.25196850393700787
        },
        {
          "duration": 0.15116279069766847,
          "durationTicks": 13,
          "midi": 42,
          "name": "F#2",
          "ticks": 10879,
          "time": 126.5,
          "velocity": 0.31496062992125984
        },
        {
          "duration": 0.081395348837205,
          "durationTicks": 7,
          "midi": 71,
          "name": "B4",
          "ticks": 10888,
          "time": 126.6046511627907,
          "velocity": 0.1968503937007874
        },
        {
          "duration": 0.081395348837205,
          "durationTicks": 7,
          "midi": 83,
          "name": "B5",
          "ticks": 10888,
          "time": 126.6046511627907,
          "velocity": 0.2677165354330709
        },
        {
          "duration": 0.2674418604651123,
          "durationTicks": 23,
          "midi": 42,
          "name": "F#2",
          "ticks": 10893,
          "time": 126.66279069767442,
          "velocity": 0.29133858267716534
        },
        {
          "duration": 0.03488372093023884,
          "durationTicks": 3,
          "midi": 72,
          "name": "C5",
          "ticks": 10895,
          "time": 126.68604651162791,
          "velocity": 0.2125984251968504
        },
        {
          "duration": 0.12790697674418539,
          "durationTicks": 11,
          "midi": 73,
          "name": "C#5",
          "ticks": 10898,
          "time": 126.72093023255815,
          "velocity": 0.2440944881889764
        },
        {
          "duration": 0.12790697674418539,
          "durationTicks": 11,
          "midi": 57,
          "name": "A3",
          "ticks": 10902,
          "time": 126.76744186046511,
          "velocity": 0.1732283464566929
        },
        {
          "duration": 0.034883720930224626,
          "durationTicks": 3,
          "midi": 72,
          "name": "C5",
          "ticks": 10909,
          "time": 126.84883720930233,
          "velocity": 0.13385826771653545
        },
        {
          "duration": 0.7906976744185954,
          "durationTicks": 68,
          "midi": 71,
          "name": "B4",
          "ticks": 10914,
          "time": 126.90697674418605,
          "velocity": 0.18110236220472442
        },
        {
          "duration": 0.8023255813953369,
          "durationTicks": 69,
          "midi": 83,
          "name": "B5",
          "ticks": 10914,
          "time": 126.90697674418605,
          "velocity": 0.2440944881889764
        },
        {
          "duration": 0.081395348837205,
          "durationTicks": 7,
          "midi": 42,
          "name": "F#2",
          "ticks": 10917,
          "time": 126.94186046511628,
          "velocity": 0.2283464566929134
        },
        {
          "duration": 0.11627906976744384,
          "durationTicks": 10,
          "midi": 42,
          "name": "F#2",
          "ticks": 10926,
          "time": 127.04651162790698,
          "velocity": 0.28346456692913385
        },
        {
          "duration": 0.05813953488372192,
          "durationTicks": 5,
          "midi": 55,
          "name": "G3",
          "ticks": 10929,
          "time": 127.0813953488372,
          "velocity": 0.2992125984251969
        },
        {
          "duration": 0.05813953488372192,
          "durationTicks": 5,
          "midi": 56,
          "name": "G#3",
          "ticks": 10934,
          "time": 127.13953488372093,
          "velocity": 0.18110236220472442
        },
        {
          "duration": 0.04651162790698038,
          "durationTicks": 4,
          "midi": 44,
          "name": "G#2",
          "ticks": 10940,
          "time": 127.20930232558139,
          "velocity": 0.3543307086614173
        },
        {
          "duration": 0.19767441860464885,
          "durationTicks": 17,
          "midi": 44,
          "name": "G#2",
          "ticks": 10945,
          "time": 127.26744186046511,
          "velocity": 0.36220472440944884
        },
        {
          "duration": 0.13953488372094114,
          "durationTicks": 12,
          "midi": 44,
          "name": "G#2",
          "ticks": 10967,
          "time": 127.52325581395348,
          "velocity": 0.23622047244094488
        },
        {
          "duration": 0.09302325581394655,
          "durationTicks": 8,
          "midi": 44,
          "name": "G#2",
          "ticks": 10981,
          "time": 127.68604651162791,
          "velocity": 0.1889763779527559
        },
        {
          "duration": 0.09302325581396076,
          "durationTicks": 8,
          "midi": 66,
          "name": "F#4",
          "ticks": 10989,
          "time": 127.77906976744185,
          "velocity": 0.25984251968503935
        },
        {
          "duration": 0.034883720930224626,
          "durationTicks": 3,
          "midi": 79,
          "name": "G5",
          "ticks": 10996,
          "time": 127.86046511627907,
          "velocity": 0.11023622047244094
        },
        {
          "duration": 0.03488372093023884,
          "durationTicks": 3,
          "midi": 67,
          "name": "G4",
          "ticks": 10997,
          "time": 127.87209302325581,
          "velocity": 0.25984251968503935
        },
        {
          "duration": 0.15116279069766847,
          "durationTicks": 13,
          "midi": 80,
          "name": "G#5",
          "ticks": 10999,
          "time": 127.8953488372093,
          "velocity": 0.11811023622047244
        },
        {
          "duration": 0.13953488372091272,
          "durationTicks": 12,
          "midi": 68,
          "name": "G#4",
          "ticks": 11000,
          "time": 127.90697674418605,
          "velocity": 0.2677165354330709
        },
        {
          "duration": 0.12790697674418539,
          "durationTicks": 11,
          "midi": 44,
          "name": "G#2",
          "ticks": 11006,
          "time": 127.97674418604652,
          "velocity": 0.2047244094488189
        },
        {
          "duration": 0.7906976744185954,
          "durationTicks": 68,
          "midi": 71,
          "name": "B4",
          "ticks": 11014,
          "time": 128.06976744186048,
          "velocity": 0.1968503937007874
        },
        {
          "duration": 0.7325581395348593,
          "durationTicks": 63,
          "midi": 83,
          "name": "B5",
          "ticks": 11014,
          "time": 128.06976744186048,
          "velocity": 0.2440944881889764
        },
        {
          "duration": 0.27906976744185386,
          "durationTicks": 24,
          "midi": 44,
          "name": "G#2",
          "ticks": 11018,
          "time": 128.11627906976744,
          "velocity": 0.33858267716535434
        },
        {
          "duration": 0.11627906976744384,
          "durationTicks": 10,
          "midi": 56,
          "name": "G#3",
          "ticks": 11043,
          "time": 128.40697674418604,
          "velocity": 0.10236220472440945
        },
        {
          "duration": 0.0813953488371908,
          "durationTicks": 7,
          "midi": 44,
          "name": "G#2",
          "ticks": 11047,
          "time": 128.45348837209303,
          "velocity": 0.18110236220472442
        },
        {
          "duration": 0.034883720930224626,
          "durationTicks": 3,
          "midi": 55,
          "name": "G3",
          "ticks": 11053,
          "time": 128.52325581395348,
          "velocity": 0.18110236220472442
        },
        {
          "duration": 0.06976744186044925,
          "durationTicks": 6,
          "midi": 45,
          "name": "A2",
          "ticks": 11060,
          "time": 128.6046511627907,
          "velocity": 0.14173228346456693
        },
        {
          "duration": 0.11627906976744384,
          "durationTicks": 10,
          "midi": 56,
          "name": "G#3",
          "ticks": 11060,
          "time": 128.6046511627907,
          "velocity": 0.11023622047244094
        },
        {
          "duration": 0.12790697674418539,
          "durationTicks": 11,
          "midi": 44,
          "name": "G#2",
          "ticks": 11068,
          "time": 128.69767441860466,
          "velocity": 0.2125984251968504
        },
        {
          "duration": 0.06976744186047767,
          "durationTicks": 6,
          "midi": 66,
          "name": "F#4",
          "ticks": 11088,
          "time": 128.93023255813952,
          "velocity": 0.25196850393700787
        },
        {
          "duration": 0.023255813953483084,
          "durationTicks": 2,
          "midi": 44,
          "name": "G#2",
          "ticks": 11093,
          "time": 128.98837209302326,
          "velocity": 0.23622047244094488
        },
        {
          "duration": 0.04651162790696617,
          "durationTicks": 4,
          "midi": 67,
          "name": "G4",
          "ticks": 11094,
          "time": 129,
          "velocity": 0.2283464566929134
        },
        {
          "duration": 0.04651162790696617,
          "durationTicks": 4,
          "midi": 56,
          "name": "G#3",
          "ticks": 11095,
          "time": 129.01162790697674,
          "velocity": 0.14960629921259844
        },
        {
          "duration": 0.2325581395348877,
          "durationTicks": 20,
          "midi": 80,
          "name": "G#5",
          "ticks": 11097,
          "time": 129.03488372093022,
          "velocity": 0.16535433070866143
        },
        {
          "duration": 0.18604651162792152,
          "durationTicks": 16,
          "midi": 68,
          "name": "G#4",
          "ticks": 11098,
          "time": 129.04651162790697,
          "velocity": 0.2204724409448819
        },
        {
          "duration": 0.17441860465117998,
          "durationTicks": 15,
          "midi": 59,
          "name": "B3",
          "ticks": 11099,
          "time": 129.0581395348837,
          "velocity": 0.13385826771653545
        },
        {
          "duration": 0.13953488372092693,
          "durationTicks": 12,
          "midi": 44,
          "name": "G#2",
          "ticks": 11101,
          "time": 129.08139534883722,
          "velocity": 0.1889763779527559
        },
        {
          "duration": 0.22093023255811772,
          "durationTicks": 19,
          "midi": 75,
          "name": "D#5",
          "ticks": 11101,
          "time": 129.08139534883722,
          "velocity": 0.11023622047244094
        },
        {
          "duration": 0.06976744186047767,
          "durationTicks": 6,
          "midi": 51,
          "name": "D#3",
          "ticks": 11107,
          "time": 129.15116279069767,
          "velocity": 0.11811023622047244
        },
        {
          "duration": 0.034883720930224626,
          "durationTicks": 3,
          "midi": 51,
          "name": "D#3",
          "ticks": 11114,
          "time": 129.2325581395349,
          "velocity": 0.10236220472440945
        },
        {
          "duration": 0.034883720930224626,
          "durationTicks": 3,
          "midi": 67,
          "name": "G4",
          "ticks": 11114,
          "time": 129.2325581395349,
          "velocity": 0.1732283464566929
        },
        {
          "duration": 0.3720930232558146,
          "durationTicks": 32,
          "midi": 78,
          "name": "F#5",
          "ticks": 11116,
          "time": 129.25581395348837,
          "velocity": 0.18110236220472442
        },
        {
          "duration": 0.08139534883721922,
          "durationTicks": 7,
          "midi": 44,
          "name": "G#2",
          "ticks": 11117,
          "time": 129.2674418604651,
          "velocity": 0.1732283464566929
        },
        {
          "duration": 0.34883720930233153,
          "durationTicks": 30,
          "midi": 66,
          "name": "F#4",
          "ticks": 11117,
          "time": 129.2674418604651,
          "velocity": 0.25984251968503935
        },
        {
          "duration": 0.03488372093025305,
          "durationTicks": 3,
          "midi": 51,
          "name": "D#3",
          "ticks": 11118,
          "time": 129.27906976744185,
          "velocity": 0.15748031496062992
        },
        {
          "duration": 0.034883720930224626,
          "durationTicks": 3,
          "midi": 44,
          "name": "G#2",
          "ticks": 11127,
          "time": 129.38372093023256,
          "velocity": 0.18110236220472442
        },
        {
          "duration": 0.11627906976744384,
          "durationTicks": 10,
          "midi": 69,
          "name": "A4",
          "ticks": 11130,
          "time": 129.41860465116278,
          "velocity": 0.11023622047244094
        },
        {
          "duration": 0.06976744186047767,
          "durationTicks": 6,
          "midi": 44,
          "name": "G#2",
          "ticks": 11131,
          "time": 129.43023255813952,
          "velocity": 0.13385826771653545
        },
        {
          "duration": 0.023255813953511506,
          "durationTicks": 2,
          "midi": 46,
          "name": "A#2",
          "ticks": 11141,
          "time": 129.54651162790697,
          "velocity": 0.28346456692913385
        },
        {
          "duration": 0.2674418604651123,
          "durationTicks": 23,
          "midi": 45,
          "name": "A2",
          "ticks": 11143,
          "time": 129.56976744186048,
          "velocity": 0.3700787401574803
        },
        {
          "duration": 0.04651162790696617,
          "durationTicks": 4,
          "midi": 67,
          "name": "G4",
          "ticks": 11147,
          "time": 129.61627906976744,
          "velocity": 0.25984251968503935
        },
        {
          "duration": 0.08139534883721922,
          "durationTicks": 7,
          "midi": 86,
          "name": "D6",
          "ticks": 11148,
          "time": 129.62790697674419,
          "velocity": 0.07874015748031496
        },
        {
          "duration": 0.023255813953511506,
          "durationTicks": 2,
          "midi": 67,
          "name": "G4",
          "ticks": 11152,
          "time": 129.67441860465115,
          "velocity": 0.2440944881889764
        },
        {
          "duration": 0.7093023255813762,
          "durationTicks": 61,
          "midi": 66,
          "name": "F#4",
          "ticks": 11154,
          "time": 129.69767441860466,
          "velocity": 0.25196850393700787
        },
        {
          "duration": 0.034883720930224626,
          "durationTicks": 3,
          "midi": 52,
          "name": "E3",
          "ticks": 11155,
          "time": 129.7093023255814,
          "velocity": 0.07086614173228346
        },
        {
          "duration": 0.1860465116278931,
          "durationTicks": 16,
          "midi": 45,
          "name": "A2",
          "ticks": 11178,
          "time": 129.97674418604652,
          "velocity": 0.2125984251968504
        },
        {
          "duration": 0.13953488372092693,
          "durationTicks": 12,
          "midi": 45,
          "name": "A2",
          "ticks": 11204,
          "time": 130.27906976744185,
          "velocity": 0.2204724409448819
        },
        {
          "duration": 0.18604651162792152,
          "durationTicks": 16,
          "midi": 57,
          "name": "A3",
          "ticks": 11216,
          "time": 130.41860465116278,
          "velocity": 0.13385826771653545
        },
        {
          "duration": 0.26744186046514073,
          "durationTicks": 23,
          "midi": 45,
          "name": "A2",
          "ticks": 11217,
          "time": 130.43023255813952,
          "velocity": 0.2677165354330709
        },
        {
          "duration": 0.6627906976744384,
          "durationTicks": 57,
          "midi": 66,
          "name": "F#4",
          "ticks": 11217,
          "time": 130.43023255813952,
          "velocity": 0.2204724409448819
        },
        {
          "duration": 0.19767441860466306,
          "durationTicks": 17,
          "midi": 73,
          "name": "C#5",
          "ticks": 11217,
          "time": 130.43023255813952,
          "velocity": 0.09448818897637795
        },
        {
          "duration": 0.0813953488371908,
          "durationTicks": 7,
          "midi": 52,
          "name": "E3",
          "ticks": 11221,
          "time": 130.47674418604652,
          "velocity": 0.10236220472440945
        },
        {
          "duration": 0.09302325581396076,
          "durationTicks": 8,
          "midi": 45,
          "name": "A2",
          "ticks": 11243,
          "time": 130.7325581395349,
          "velocity": 0.11811023622047244
        },
        {
          "duration": 0.27906976744185386,
          "durationTicks": 24,
          "midi": 57,
          "name": "A3",
          "ticks": 11251,
          "time": 130.82558139534885,
          "velocity": 0.1889763779527559
        },
        {
          "duration": 0.12790697674418539,
          "durationTicks": 11,
          "midi": 45,
          "name": "A2",
          "ticks": 11253,
          "time": 130.84883720930233,
          "velocity": 0.2755905511811024
        },
        {
          "duration": 0.05813953488370771,
          "durationTicks": 5,
          "midi": 52,
          "name": "E3",
          "ticks": 11253,
          "time": 130.84883720930233,
          "velocity": 0.13385826771653545
        },
        {
          "duration": 0.1046511627907023,
          "durationTicks": 9,
          "midi": 52,
          "name": "E3",
          "ticks": 11259,
          "time": 130.91860465116278,
          "velocity": 0.14960629921259844
        },
        {
          "duration": 0.5465116279069662,
          "durationTicks": 47,
          "midi": 45,
          "name": "A2",
          "ticks": 11265,
          "time": 130.98837209302326,
          "velocity": 0.33858267716535434
        },
        {
          "duration": 0.04651162790699459,
          "durationTicks": 4,
          "midi": 52,
          "name": "E3",
          "ticks": 11279,
          "time": 131.15116279069767,
          "velocity": 0.14960629921259844
        },
        {
          "duration": 0.034883720930224626,
          "durationTicks": 3,
          "midi": 52,
          "name": "E3",
          "ticks": 11284,
          "time": 131.2093023255814,
          "velocity": 0.11811023622047244
        },
        {
          "duration": 0.2325581395348877,
          "durationTicks": 20,
          "midi": 61,
          "name": "C#4",
          "ticks": 11290,
          "time": 131.27906976744185,
          "velocity": 0.07086614173228346
        },
        {
          "duration": 0.034883720930224626,
          "durationTicks": 3,
          "midi": 56,
          "name": "G#3",
          "ticks": 11310,
          "time": 131.51162790697674,
          "velocity": 0.13385826771653545
        },
        {
          "duration": 0.2790697674418823,
          "durationTicks": 24,
          "midi": 63,
          "name": "D#4",
          "ticks": 11312,
          "time": 131.53488372093022,
          "velocity": 0.2047244094488189
        },
        {
          "duration": 0.4651162790697754,
          "durationTicks": 40,
          "midi": 75,
          "name": "D#5",
          "ticks": 11312,
          "time": 131.53488372093022,
          "velocity": 0.23622047244094488
        },
        {
          "duration": 0.1046511627907023,
          "durationTicks": 9,
          "midi": 82,
          "name": "A#5",
          "ticks": 11313,
          "time": 131.54651162790697,
          "velocity": 0.08661417322834646
        },
        {
          "duration": 0.09302325581393234,
          "durationTicks": 8,
          "midi": 45,
          "name": "A2",
          "ticks": 11315,
          "time": 131.56976744186048,
          "velocity": 0.2440944881889764
        },
        {
          "duration": 0.03488372093025305,
          "durationTicks": 3,
          "midi": 47,
          "name": "B2",
          "ticks": 11325,
          "time": 131.6860465116279,
          "velocity": 0.14173228346456693
        },
        {
          "duration": 0.034883720930224626,
          "durationTicks": 3,
          "midi": 34,
          "name": "A#1",
          "ticks": 11326,
          "time": 131.69767441860466,
          "velocity": 0.11023622047244094
        },
        {
          "duration": 0.034883720930224626,
          "durationTicks": 3,
          "midi": 46,
          "name": "A#2",
          "ticks": 11328,
          "time": 131.72093023255815,
          "velocity": 0.1968503937007874
        },
        {
          "duration": 0.034883720930224626,
          "durationTicks": 3,
          "midi": 35,
          "name": "B1",
          "ticks": 11330,
          "time": 131.74418604651163,
          "velocity": 0.13385826771653545
        },
        {
          "duration": 0.05813953488370771,
          "durationTicks": 5,
          "midi": 82,
          "name": "A#5",
          "ticks": 11336,
          "time": 131.8139534883721,
          "velocity": 0.11023622047244094
        },
        {
          "duration": 0.17441860465115155,
          "durationTicks": 15,
          "midi": 63,
          "name": "D#4",
          "ticks": 11337,
          "time": 131.82558139534885,
          "velocity": 0.2125984251968504
        },
        {
          "duration": 0.25581395348837077,
          "durationTicks": 22,
          "midi": 47,
          "name": "B2",
          "ticks": 11338,
          "time": 131.8372093023256,
          "velocity": 0.2677165354330709
        },
        {
          "duration": 0.19767441860463464,
          "durationTicks": 17,
          "midi": 54,
          "name": "F#3",
          "ticks": 11339,
          "time": 131.84883720930233,
          "velocity": 0.2283464566929134
        },
        {
          "duration": 0.11627906976744384,
          "durationTicks": 10,
          "midi": 64,
          "name": "E4",
          "ticks": 11352,
          "time": 132,
          "velocity": 0.2283464566929134
        },
        {
          "duration": 0.11627906976744384,
          "durationTicks": 10,
          "midi": 47,
          "name": "B2",
          "ticks": 11361,
          "time": 132.1046511627907,
          "velocity": 0.11811023622047244
        },
        {
          "duration": 0.13953488372092693,
          "durationTicks": 12,
          "midi": 63,
          "name": "D#4",
          "ticks": 11362,
          "time": 132.11627906976744,
          "velocity": 0.1889763779527559
        },
        {
          "duration": 0.04651162790699459,
          "durationTicks": 4,
          "midi": 35,
          "name": "B1",
          "ticks": 11367,
          "time": 132.17441860465115,
          "velocity": 0.08661417322834646
        },
        {
          "duration": 0.04651162790696617,
          "durationTicks": 4,
          "midi": 54,
          "name": "F#3",
          "ticks": 11371,
          "time": 132.22093023255815,
          "velocity": 0.09448818897637795
        },
        {
          "duration": 0.11627906976744384,
          "durationTicks": 10,
          "midi": 64,
          "name": "E4",
          "ticks": 11374,
          "time": 132.25581395348837,
          "velocity": 0.2047244094488189
        },
        {
          "duration": 0.11627906976744384,
          "durationTicks": 10,
          "midi": 47,
          "name": "B2",
          "ticks": 11375,
          "time": 132.2674418604651,
          "velocity": 0.15748031496062992
        },
        {
          "duration": 0.12790697674418539,
          "durationTicks": 11,
          "midi": 54,
          "name": "F#3",
          "ticks": 11383,
          "time": 132.36046511627907,
          "velocity": 0.2440944881889764
        },
        {
          "duration": 0.15116279069766847,
          "durationTicks": 13,
          "midi": 63,
          "name": "D#4",
          "ticks": 11384,
          "time": 132.37209302325581,
          "velocity": 0.2125984251968504
        },
        {
          "duration": 0.034883720930224626,
          "durationTicks": 3,
          "midi": 36,
          "name": "C2",
          "ticks": 11396,
          "time": 132.51162790697674,
          "velocity": 0.11811023622047244
        },
        {
          "duration": 0.12790697674418539,
          "durationTicks": 11,
          "midi": 54,
          "name": "F#3",
          "ticks": 11396,
          "time": 132.51162790697674,
          "velocity": 0.25984251968503935
        },
        {
          "duration": 0.12790697674418539,
          "durationTicks": 11,
          "midi": 64,
          "name": "E4",
          "ticks": 11397,
          "time": 132.52325581395348,
          "velocity": 0.2440944881889764
        },
        {
          "duration": 0.11627906976744384,
          "durationTicks": 10,
          "midi": 47,
          "name": "B2",
          "ticks": 11398,
          "time": 132.53488372093022,
          "velocity": 0.1889763779527559
        },
        {
          "duration": 0.08139534883721922,
          "durationTicks": 7,
          "midi": 35,
          "name": "B1",
          "ticks": 11399,
          "time": 132.54651162790697,
          "velocity": 0.14960629921259844
        },
        {
          "duration": 0.13953488372092693,
          "durationTicks": 12,
          "midi": 63,
          "name": "D#4",
          "ticks": 11408,
          "time": 132.65116279069767,
          "velocity": 0.15748031496062992
        },
        {
          "duration": 0.25581395348837077,
          "durationTicks": 22,
          "midi": 35,
          "name": "B1",
          "ticks": 11409,
          "time": 132.6627906976744,
          "velocity": 0.1968503937007874
        },
        {
          "duration": 0.04651162790699459,
          "durationTicks": 4,
          "midi": 54,
          "name": "F#3",
          "ticks": 11410,
          "time": 132.67441860465115,
          "velocity": 0.14960629921259844
        },
        {
          "duration": 0.04651162790699459,
          "durationTicks": 4,
          "midi": 47,
          "name": "B2",
          "ticks": 11411,
          "time": 132.6860465116279,
          "velocity": 0.2677165354330709
        },
        {
          "duration": 0.16279069767441,
          "durationTicks": 14,
          "midi": 47,
          "name": "B2",
          "ticks": 11416,
          "time": 132.74418604651163,
          "velocity": 0.23622047244094488
        },
        {
          "duration": 0.09302325581396076,
          "durationTicks": 8,
          "midi": 54,
          "name": "F#3",
          "ticks": 11418,
          "time": 132.7674418604651,
          "velocity": 0.07874015748031496
        },
        {
          "duration": 0.11627906976744384,
          "durationTicks": 10,
          "midi": 64,
          "name": "E4",
          "ticks": 11420,
          "time": 132.7906976744186,
          "velocity": 0.2047244094488189
        },
        {
          "duration": 0.7325581395348877,
          "durationTicks": 63,
          "midi": 63,
          "name": "D#4",
          "ticks": 11430,
          "time": 132.90697674418604,
          "velocity": 0.1968503937007874
        },
        {
          "duration": 0.10465116279067388,
          "durationTicks": 9,
          "midi": 35,
          "name": "B1",
          "ticks": 11433,
          "time": 132.9418604651163,
          "velocity": 0.12598425196850394
        },
        {
          "duration": 0.10465116279067388,
          "durationTicks": 9,
          "midi": 54,
          "name": "F#3",
          "ticks": 11433,
          "time": 132.9418604651163,
          "velocity": 0.14960629921259844
        },
        {
          "duration": 0.12790697674418539,
          "durationTicks": 11,
          "midi": 54,
          "name": "F#3",
          "ticks": 11445,
          "time": 133.08139534883722,
          "velocity": 0.2440944881889764
        },
        {
          "duration": 0.11627906976744384,
          "durationTicks": 10,
          "midi": 47,
          "name": "B2",
          "ticks": 11446,
          "time": 133.09302325581396,
          "velocity": 0.23622047244094488
        },
        {
          "duration": 0.1046511627907023,
          "durationTicks": 9,
          "midi": 35,
          "name": "B1",
          "ticks": 11448,
          "time": 133.11627906976744,
          "velocity": 0.11811023622047244
        },
        {
          "duration": 0.13953488372092693,
          "durationTicks": 12,
          "midi": 54,
          "name": "F#3",
          "ticks": 11467,
          "time": 133.3372093023256,
          "velocity": 0.2755905511811024
        },
        {
          "duration": 0.034883720930224626,
          "durationTicks": 3,
          "midi": 36,
          "name": "C2",
          "ticks": 11472,
          "time": 133.3953488372093,
          "velocity": 0.11811023622047244
        },
        {
          "duration": 0.034883720930224626,
          "durationTicks": 3,
          "midi": 47,
          "name": "B2",
          "ticks": 11478,
          "time": 133.46511627906978,
          "velocity": 0.11811023622047244
        },
        {
          "duration": 0.15116279069766847,
          "durationTicks": 13,
          "midi": 54,
          "name": "F#3",
          "ticks": 11480,
          "time": 133.48837209302326,
          "velocity": 0.25984251968503935
        },
        {
          "duration": 0.05813953488373613,
          "durationTicks": 5,
          "midi": 47,
          "name": "B2",
          "ticks": 11482,
          "time": 133.51162790697674,
          "velocity": 0.2755905511811024
        },
        {
          "duration": 0.04651162790696617,
          "durationTicks": 4,
          "midi": 47,
          "name": "B2",
          "ticks": 11488,
          "time": 133.58139534883722,
          "velocity": 0.23622047244094488
        },
        {
          "duration": 0.3139534883721069,
          "durationTicks": 27,
          "midi": 59,
          "name": "B3",
          "ticks": 11492,
          "time": 133.62790697674419,
          "velocity": 0.11023622047244094
        },
        {
          "duration": 0.11627906976744384,
          "durationTicks": 10,
          "midi": 47,
          "name": "B2",
          "ticks": 11493,
          "time": 133.63953488372093,
          "velocity": 0.1968503937007874
        },
        {
          "duration": 0.034883720930224626,
          "durationTicks": 3,
          "midi": 45,
          "name": "A2",
          "ticks": 11512,
          "time": 133.86046511627907,
          "velocity": 0.2125984251968504
        },
        {
          "duration": 0.09302325581393234,
          "durationTicks": 8,
          "midi": 47,
          "name": "B2",
          "ticks": 11520,
          "time": 133.95348837209303,
          "velocity": 0.15748031496062992
        },
        {
          "duration": 0.034883720930224626,
          "durationTicks": 3,
          "midi": 54,
          "name": "F#3",
          "ticks": 11520,
          "time": 133.95348837209303,
          "velocity": 0.11023622047244094
        },
        {
          "duration": 0.03488372093025305,
          "durationTicks": 3,
          "midi": 54,
          "name": "F#3",
          "ticks": 11528,
          "time": 134.04651162790697,
          "velocity": 0.12598425196850394
        },
        {
          "duration": 0.1046511627907023,
          "durationTicks": 9,
          "midi": 54,
          "name": "F#3",
          "ticks": 11532,
          "time": 134.09302325581396,
          "velocity": 0.2440944881889764
        },
        {
          "duration": 0.12790697674418539,
          "durationTicks": 11,
          "midi": 76,
          "name": "E5",
          "ticks": 11534,
          "time": 134.11627906976744,
          "velocity": 0.15748031496062992
        },
        {
          "duration": 0.13953488372092693,
          "durationTicks": 12,
          "midi": 64,
          "name": "E4",
          "ticks": 11535,
          "time": 134.12790697674419,
          "velocity": 0.2283464566929134
        },
        {
          "duration": 0.05813953488373613,
          "durationTicks": 5,
          "midi": 42,
          "name": "F#2",
          "ticks": 11540,
          "time": 134.1860465116279,
          "velocity": 0.14173228346456693
        },
        {
          "duration": 0.04651162790696617,
          "durationTicks": 4,
          "midi": 42,
          "name": "F#2",
          "ticks": 11546,
          "time": 134.25581395348837,
          "velocity": 0.11811023622047244
        },
        {
          "duration": 0.08139534883721922,
          "durationTicks": 7,
          "midi": 63,
          "name": "D#4",
          "ticks": 11547,
          "time": 134.2674418604651,
          "velocity": 0.2204724409448819
        },
        {
          "duration": 0.034883720930224626,
          "durationTicks": 3,
          "midi": 42,
          "name": "F#2",
          "ticks": 11555,
          "time": 134.36046511627907,
          "velocity": 0.1968503937007874
        },
        {
          "duration": 0.09302325581396076,
          "durationTicks": 8,
          "midi": 61,
          "name": "C#4",
          "ticks": 11559,
          "time": 134.40697674418604,
          "velocity": 0.1968503937007874
        },
        {
          "duration": 0.08139534883721922,
          "durationTicks": 7,
          "midi": 85,
          "name": "C#6",
          "ticks": 11559,
          "time": 134.40697674418604,
          "velocity": 0.14173228346456693
        },
        {
          "duration": 0.034883720930224626,
          "durationTicks": 3,
          "midi": 49,
          "name": "C#3",
          "ticks": 11563,
          "time": 134.45348837209303,
          "velocity": 0.11023622047244094
        },
        {
          "duration": 0.034883720930224626,
          "durationTicks": 3,
          "midi": 41,
          "name": "F2",
          "ticks": 11568,
          "time": 134.51162790697674,
          "velocity": 0.15748031496062992
        },
        {
          "duration": 0.06976744186047767,
          "durationTicks": 6,
          "midi": 54,
          "name": "F#3",
          "ticks": 11570,
          "time": 134.53488372093022,
          "velocity": 0.1889763779527559
        },
        {
          "duration": 0.03488372093025305,
          "durationTicks": 3,
          "midi": 42,
          "name": "F#2",
          "ticks": 11571,
          "time": 134.54651162790697,
          "velocity": 0.16535433070866143
        },
        {
          "duration": 0.04651162790699459,
          "durationTicks": 4,
          "midi": 49,
          "name": "C#3",
          "ticks": 11580,
          "time": 134.65116279069767,
          "velocity": 0.08661417322834646
        },
        {
          "duration": 0.1046511627907023,
          "durationTicks": 9,
          "midi": 54,
          "name": "F#3",
          "ticks": 11581,
          "time": 134.6627906976744,
          "velocity": 0.1889763779527559
        },
        {
          "duration": 0.12790697674418539,
          "durationTicks": 11,
          "midi": 73,
          "name": "C#5",
          "ticks": 11581,
          "time": 134.6627906976744,
          "velocity": 0.1889763779527559
        },
        {
          "duration": 0.11627906976744384,
          "durationTicks": 10,
          "midi": 61,
          "name": "C#4",
          "ticks": 11582,
          "time": 134.67441860465115,
          "velocity": 0.16535433070866143
        },
        {
          "duration": 0.1511627906976969,
          "durationTicks": 13,
          "midi": 63,
          "name": "D#4",
          "ticks": 11593,
          "time": 134.80232558139534,
          "velocity": 0.18110236220472442
        },
        {
          "duration": 0.16279069767443843,
          "durationTicks": 14,
          "midi": 82,
          "name": "A#5",
          "ticks": 11593,
          "time": 134.80232558139534,
          "velocity": 0.14173228346456693
        },
        {
          "duration": 0.09302325581393234,
          "durationTicks": 8,
          "midi": 54,
          "name": "F#3",
          "ticks": 11595,
          "time": 134.82558139534885,
          "velocity": 0.07874015748031496
        },
        {
          "duration": 0.03488372093025305,
          "durationTicks": 3,
          "midi": 41,
          "name": "F2",
          "ticks": 11602,
          "time": 134.90697674418604,
          "velocity": 0.10236220472440945
        },
        {
          "duration": 0.034883720930224626,
          "durationTicks": 3,
          "midi": 54,
          "name": "F#3",
          "ticks": 11608,
          "time": 134.97674418604652,
          "velocity": 0.13385826771653545
        },
        {
          "duration": 0.11627906976744384,
          "durationTicks": 10,
          "midi": 64,
          "name": "E4",
          "ticks": 11609,
          "time": 134.98837209302326,
          "velocity": 0.2125984251968504
        },
        {
          "duration": 0.09302325581396076,
          "durationTicks": 8,
          "midi": 88,
          "name": "E6",
          "ticks": 11609,
          "time": 134.98837209302326,
          "velocity": 0.08661417322834646
        },
        {
          "duration": 0.04651162790699459,
          "durationTicks": 4,
          "midi": 42,
          "name": "F#2",
          "ticks": 11613,
          "time": 135.03488372093022,
          "velocity": 0.15748031496062992
        },
        {
          "duration": 0.09302325581396076,
          "durationTicks": 8,
          "midi": 42,
          "name": "F#2",
          "ticks": 11619,
          "time": 135.1046511627907,
          "velocity": 0.14173228346456693
        },
        {
          "duration": 0.11627906976744384,
          "durationTicks": 10,
          "midi": 63,
          "name": "D#4",
          "ticks": 11621,
          "time": 135.12790697674419,
          "velocity": 0.2125984251968504
        },
        {
          "duration": 0.12790697674418539,
          "durationTicks": 11,
          "midi": 42,
          "name": "F#2",
          "ticks": 11632,
          "time": 135.25581395348837,
          "velocity": 0.2440944881889764
        },
        {
          "duration": 0.13953488372092693,
          "durationTicks": 12,
          "midi": 61,
          "name": "C#4",
          "ticks": 11632,
          "time": 135.25581395348837,
          "velocity": 0.2047244094488189
        },
        {
          "duration": 0.13953488372092693,
          "durationTicks": 12,
          "midi": 42,
          "name": "F#2",
          "ticks": 11644,
          "time": 135.3953488372093,
          "velocity": 0.2677165354330709
        },
        {
          "duration": 0.2325581395348877,
          "durationTicks": 20,
          "midi": 42,
          "name": "F#2",
          "ticks": 11657,
          "time": 135.54651162790697,
          "velocity": 0.31496062992125984
        },
        {
          "duration": 0.12790697674418539,
          "durationTicks": 11,
          "midi": 73,
          "name": "C#5",
          "ticks": 11657,
          "time": 135.54651162790697,
          "velocity": 0.1889763779527559
        },
        {
          "duration": 0.11627906976744384,
          "durationTicks": 10,
          "midi": 61,
          "name": "C#4",
          "ticks": 11658,
          "time": 135.5581395348837,
          "velocity": 0.1889763779527559
        },
        {
          "duration": 0.05813953488370771,
          "durationTicks": 5,
          "midi": 63,
          "name": "D#4",
          "ticks": 11672,
          "time": 135.72093023255815,
          "velocity": 0.18110236220472442
        },
        {
          "duration": 0.05813953488370771,
          "durationTicks": 5,
          "midi": 87,
          "name": "D#6",
          "ticks": 11672,
          "time": 135.72093023255815,
          "velocity": 0.10236220472440945
        },
        {
          "duration": 0.05813953488373613,
          "durationTicks": 5,
          "midi": 61,
          "name": "C#4",
          "ticks": 11678,
          "time": 135.7906976744186,
          "velocity": 0.15748031496062992
        },
        {
          "duration": 0.023255813953483084,
          "durationTicks": 2,
          "midi": 53,
          "name": "F3",
          "ticks": 11680,
          "time": 135.8139534883721,
          "velocity": 0.2283464566929134
        },
        {
          "duration": 0.20930232558137618,
          "durationTicks": 18,
          "midi": 42,
          "name": "F#2",
          "ticks": 11681,
          "time": 135.82558139534885,
          "velocity": 0.2677165354330709
        },
        {
          "duration": 0.12790697674418539,
          "durationTicks": 11,
          "midi": 54,
          "name": "F#3",
          "ticks": 11682,
          "time": 135.8372093023256,
          "velocity": 0.30708661417322836
        },
        {
          "duration": 0.08139534883721922,
          "durationTicks": 7,
          "midi": 61,
          "name": "C#4",
          "ticks": 11684,
          "time": 135.86046511627907,
          "velocity": 0.1732283464566929
        },
        {
          "duration": 0.06976744186047767,
          "durationTicks": 6,
          "midi": 63,
          "name": "D#4",
          "ticks": 11697,
          "time": 136.01162790697674,
          "velocity": 0.1732283464566929
        },
        {
          "duration": 0.06976744186047767,
          "durationTicks": 6,
          "midi": 82,
          "name": "A#5",
          "ticks": 11697,
          "time": 136.01162790697674,
          "velocity": 0.10236220472440945
        },
        {
          "duration": 0.05813953488373613,
          "durationTicks": 5,
          "midi": 87,
          "name": "D#6",
          "ticks": 11697,
          "time": 136.01162790697674,
          "velocity": 0.10236220472440945
        },
        {
          "duration": 0.11627906976744384,
          "durationTicks": 10,
          "midi": 42,
          "name": "F#2",
          "ticks": 11703,
          "time": 136.08139534883722,
          "velocity": 0.2047244094488189
        },
        {
          "duration": 0.05813953488370771,
          "durationTicks": 5,
          "midi": 54,
          "name": "F#3",
          "ticks": 11707,
          "time": 136.12790697674419,
          "velocity": 0.2125984251968504
        },
        {
          "duration": 0.12790697674418539,
          "durationTicks": 11,
          "midi": 64,
          "name": "E4",
          "ticks": 11708,
          "time": 136.13953488372093,
          "velocity": 0.2204724409448819
        },
        {
          "duration": 0.04651162790699459,
          "durationTicks": 4,
          "midi": 55,
          "name": "G3",
          "ticks": 11712,
          "time": 136.1860465116279,
          "velocity": 0.1732283464566929
        },
        {
          "duration": 0.04651162790696617,
          "durationTicks": 4,
          "midi": 42,
          "name": "F#2",
          "ticks": 11716,
          "time": 136.2325581395349,
          "velocity": 0.10236220472440945
        },
        {
          "duration": 0.12790697674418539,
          "durationTicks": 11,
          "midi": 66,
          "name": "F#4",
          "ticks": 11720,
          "time": 136.27906976744185,
          "velocity": 0.2283464566929134
        },
        {
          "duration": 0.023255813953483084,
          "durationTicks": 2,
          "midi": 44,
          "name": "G#2",
          "ticks": 11730,
          "time": 136.3953488372093,
          "velocity": 0.33070866141732286
        },
        {
          "duration": 0.03488372093025305,
          "durationTicks": 3,
          "midi": 67,
          "name": "G4",
          "ticks": 11731,
          "time": 136.40697674418604,
          "velocity": 0.11811023622047244
        },
        {
          "duration": 0.03488372093025305,
          "durationTicks": 3,
          "midi": 56,
          "name": "G#3",
          "ticks": 11732,
          "time": 136.41860465116278,
          "velocity": 0.14960629921259844
        },
        {
          "duration": 0.16279069767443843,
          "durationTicks": 14,
          "midi": 44,
          "name": "G#2",
          "ticks": 11733,
          "time": 136.43023255813952,
          "velocity": 0.33070866141732286
        },
        {
          "duration": 0.10465116279067388,
          "durationTicks": 9,
          "midi": 68,
          "name": "G#4",
          "ticks": 11734,
          "time": 136.4418604651163,
          "velocity": 0.23622047244094488
        },
        {
          "duration": 0.03488372093025305,
          "durationTicks": 3,
          "midi": 51,
          "name": "D#3",
          "ticks": 11744,
          "time": 136.5581395348837,
          "velocity": 0.14173228346456693
        },
        {
          "duration": 0.17441860465117998,
          "durationTicks": 15,
          "midi": 66,
          "name": "F#4",
          "ticks": 11744,
          "time": 136.5581395348837,
          "velocity": 0.2440944881889764
        },
        {
          "duration": 0.04651162790696617,
          "durationTicks": 4,
          "midi": 44,
          "name": "G#2",
          "ticks": 11749,
          "time": 136.61627906976744,
          "velocity": 0.16535433070866143
        },
        {
          "duration": 0.06976744186047767,
          "durationTicks": 6,
          "midi": 44,
          "name": "G#2",
          "ticks": 11754,
          "time": 136.67441860465115,
          "velocity": 0.14960629921259844
        },
        {
          "duration": 0.06976744186044925,
          "durationTicks": 6,
          "midi": 64,
          "name": "E4",
          "ticks": 11759,
          "time": 136.7325581395349,
          "velocity": 0.2047244094488189
        },
        {
          "duration": 0.034883720930224626,
          "durationTicks": 3,
          "midi": 45,
          "name": "A2",
          "ticks": 11760,
          "time": 136.74418604651163,
          "velocity": 0.14173228346456693
        },
        {
          "duration": 0.12790697674418539,
          "durationTicks": 11,
          "midi": 44,
          "name": "G#2",
          "ticks": 11763,
          "time": 136.77906976744185,
          "velocity": 0.2047244094488189
        },
        {
          "duration": 0.03488372093025305,
          "durationTicks": 3,
          "midi": 55,
          "name": "G3",
          "ticks": 11765,
          "time": 136.80232558139534,
          "velocity": 0.2283464566929134
        },
        {
          "duration": 0.12790697674418539,
          "durationTicks": 11,
          "midi": 63,
          "name": "D#4",
          "ticks": 11765,
          "time": 136.80232558139534,
          "velocity": 0.2440944881889764
        },
        {
          "duration": 0.1046511627907023,
          "durationTicks": 9,
          "midi": 44,
          "name": "G#2",
          "ticks": 11776,
          "time": 136.93023255813952,
          "velocity": 0.16535433070866143
        },
        {
          "duration": 0.03488372093025305,
          "durationTicks": 3,
          "midi": 64,
          "name": "E4",
          "ticks": 11776,
          "time": 136.93023255813952,
          "velocity": 0.2440944881889764
        },
        {
          "duration": 0.06976744186047767,
          "durationTicks": 6,
          "midi": 64,
          "name": "E4",
          "ticks": 11783,
          "time": 137.01162790697674,
          "velocity": 0.2204724409448819
        },
        {
          "duration": 0.12790697674418539,
          "durationTicks": 11,
          "midi": 44,
          "name": "G#2",
          "ticks": 11787,
          "time": 137.0581395348837,
          "velocity": 0.15748031496062992
        },
        {
          "duration": 0.1046511627907023,
          "durationTicks": 9,
          "midi": 66,
          "name": "F#4",
          "ticks": 11793,
          "time": 137.12790697674419,
          "velocity": 0.2440944881889764
        },
        {
          "duration": 0.2325581395348877,
          "durationTicks": 20,
          "midi": 56,
          "name": "G#3",
          "ticks": 11801,
          "time": 137.22093023255815,
          "velocity": 0.2677165354330709
        },
        {
          "duration": 0.05813953488370771,
          "durationTicks": 5,
          "midi": 51,
          "name": "D#3",
          "ticks": 11803,
          "time": 137.24418604651163,
          "velocity": 0.14960629921259844
        },
        {
          "duration": 0.05813953488373613,
          "durationTicks": 5,
          "midi": 84,
          "name": "C6",
          "ticks": 11804,
          "time": 137.25581395348837,
          "velocity": 0.09448818897637795
        },
        {
          "duration": 0.2093023255814046,
          "durationTicks": 18,
          "midi": 44,
          "name": "G#2",
          "ticks": 11805,
          "time": 137.2674418604651,
          "velocity": 0.25196850393700787
        },
        {
          "duration": 0.16279069767443843,
          "durationTicks": 14,
          "midi": 66,
          "name": "F#4",
          "ticks": 11818,
          "time": 137.41860465116278,
          "velocity": 0.23622047244094488
        },
        {
          "duration": 0.09302325581393234,
          "durationTicks": 8,
          "midi": 59,
          "name": "B3",
          "ticks": 11820,
          "time": 137.4418604651163,
          "velocity": 0.15748031496062992
        },
        {
          "duration": 0.06976744186047767,
          "durationTicks": 6,
          "midi": 44,
          "name": "G#2",
          "ticks": 11827,
          "time": 137.52325581395348,
          "velocity": 0.10236220472440945
        },
        {
          "duration": 0.06976744186044925,
          "durationTicks": 6,
          "midi": 64,
          "name": "E4",
          "ticks": 11833,
          "time": 137.59302325581396,
          "velocity": 0.2047244094488189
        },
        {
          "duration": 0.06976744186044925,
          "durationTicks": 6,
          "midi": 83,
          "name": "B5",
          "ticks": 11833,
          "time": 137.59302325581396,
          "velocity": 0.09448818897637795
        },
        {
          "duration": 0.034883720930224626,
          "durationTicks": 3,
          "midi": 55,
          "name": "G3",
          "ticks": 11836,
          "time": 137.62790697674419,
          "velocity": 0.08661417322834646
        },
        {
          "duration": 0.32558139534884845,
          "durationTicks": 28,
          "midi": 75,
          "name": "D#5",
          "ticks": 11838,
          "time": 137.65116279069767,
          "velocity": 0.23622047244094488
        },
        {
          "duration": 0.06976744186047767,
          "durationTicks": 6,
          "midi": 84,
          "name": "C6",
          "ticks": 11839,
          "time": 137.6627906976744,
          "velocity": 0.07086614173228346
        },
        {
          "duration": 0.16279069767443843,
          "durationTicks": 14,
          "midi": 44,
          "name": "G#2",
          "ticks": 11840,
          "time": 137.67441860465115,
          "velocity": 0.2047244094488189
        },
        {
          "duration": 0.06976744186044925,
          "durationTicks": 6,
          "midi": 63,
          "name": "D#4",
          "ticks": 11844,
          "time": 137.72093023255815,
          "velocity": 0.1732283464566929
        },
        {
          "duration": 0.03488372093025305,
          "durationTicks": 3,
          "midi": 64,
          "name": "E4",
          "ticks": 11850,
          "time": 137.7906976744186,
          "velocity": 0.18110236220472442
        },
        {
          "duration": 0.05813953488370771,
          "durationTicks": 5,
          "midi": 44,
          "name": "G#2",
          "ticks": 11855,
          "time": 137.84883720930233,
          "velocity": 0.1732283464566929
        },
        {
          "duration": 0.11627906976744384,
          "durationTicks": 10,
          "midi": 64,
          "name": "E4",
          "ticks": 11855,
          "time": 137.84883720930233,
          "velocity": 0.1968503937007874
        },
        {
          "duration": 0.04651162790699459,
          "durationTicks": 4,
          "midi": 56,
          "name": "G#3",
          "ticks": 11861,
          "time": 137.91860465116278,
          "velocity": 0.08661417322834646
        },
        {
          "duration": 0.09302325581393234,
          "durationTicks": 8,
          "midi": 44,
          "name": "G#2",
          "ticks": 11864,
          "time": 137.95348837209303,
          "velocity": 0.2440944881889764
        },
        {
          "duration": 0.1046511627907023,
          "durationTicks": 9,
          "midi": 66,
          "name": "F#4",
          "ticks": 11865,
          "time": 137.96511627906978,
          "velocity": 0.2440944881889764
        },
        {
          "duration": 0.16279069767441,
          "durationTicks": 14,
          "midi": 68,
          "name": "G#4",
          "ticks": 11874,
          "time": 138.06976744186048,
          "velocity": 0.2283464566929134
        },
        {
          "duration": 0.2674418604651123,
          "durationTicks": 23,
          "midi": 44,
          "name": "G#2",
          "ticks": 11875,
          "time": 138.08139534883722,
          "velocity": 0.2992125984251969
        },
        {
          "duration": 0.023255813953483084,
          "durationTicks": 2,
          "midi": 55,
          "name": "G3",
          "ticks": 11878,
          "time": 138.11627906976744,
          "velocity": 0.25984251968503935
        },
        {
          "duration": 0.11627906976744384,
          "durationTicks": 10,
          "midi": 66,
          "name": "F#4",
          "ticks": 11889,
          "time": 138.24418604651163,
          "velocity": 0.2440944881889764
        },
        {
          "duration": 0.17441860465115155,
          "durationTicks": 15,
          "midi": 68,
          "name": "G#4",
          "ticks": 11901,
          "time": 138.38372093023256,
          "velocity": 0.25984251968503935
        },
        {
          "duration": 0.1046511627907023,
          "durationTicks": 9,
          "midi": 44,
          "name": "G#2",
          "ticks": 11902,
          "time": 138.3953488372093,
          "velocity": 0.12598425196850394
        },
        {
          "duration": 0.08139534883721922,
          "durationTicks": 7,
          "midi": 44,
          "name": "G#2",
          "ticks": 11913,
          "time": 138.52325581395348,
          "velocity": 0.1889763779527559
        },
        {
          "duration": 0.11627906976744384,
          "durationTicks": 10,
          "midi": 71,
          "name": "B4",
          "ticks": 11915,
          "time": 138.54651162790697,
          "velocity": 0.16535433070866143
        },
        {
          "duration": 0.13953488372092693,
          "durationTicks": 12,
          "midi": 83,
          "name": "B5",
          "ticks": 11915,
          "time": 138.54651162790697,
          "velocity": 0.2755905511811024
        },
        {
          "duration": 0.034883720930224626,
          "durationTicks": 3,
          "midi": 45,
          "name": "A2",
          "ticks": 11920,
          "time": 138.6046511627907,
          "velocity": 0.14960629921259844
        },
        {
          "duration": 0.2674418604651123,
          "durationTicks": 23,
          "midi": 45,
          "name": "A2",
          "ticks": 11925,
          "time": 138.6627906976744,
          "velocity": 0.36220472440944884
        },
        {
          "duration": 0.03488372093025305,
          "durationTicks": 3,
          "midi": 52,
          "name": "E3",
          "ticks": 11927,
          "time": 138.6860465116279,
          "velocity": 0.12598425196850394
        },
        {
          "duration": 0.10465116279067388,
          "durationTicks": 9,
          "midi": 85,
          "name": "C#6",
          "ticks": 11928,
          "time": 138.69767441860466,
          "velocity": 0.15748031496062992
        },
        {
          "duration": 0.1860465116278931,
          "durationTicks": 16,
          "midi": 73,
          "name": "C#5",
          "ticks": 11929,
          "time": 138.7093023255814,
          "velocity": 0.2440944881889764
        },
        {
          "duration": 0.10465116279067388,
          "durationTicks": 9,
          "midi": 71,
          "name": "B4",
          "ticks": 11939,
          "time": 138.82558139534885,
          "velocity": 0.09448818897637795
        },
        {
          "duration": 0.10465116279067388,
          "durationTicks": 9,
          "midi": 83,
          "name": "B5",
          "ticks": 11939,
          "time": 138.82558139534885,
          "velocity": 0.18110236220472442
        },
        {
          "duration": 0.1860465116278931,
          "durationTicks": 16,
          "midi": 61,
          "name": "C#4",
          "ticks": 11940,
          "time": 138.8372093023256,
          "velocity": 0.07874015748031496
        },
        {
          "duration": 0.034883720930224626,
          "durationTicks": 3,
          "midi": 52,
          "name": "E3",
          "ticks": 11944,
          "time": 138.88372093023256,
          "velocity": 0.11023622047244094
        },
        {
          "duration": 0.13953488372095535,
          "durationTicks": 12,
          "midi": 52,
          "name": "E3",
          "ticks": 11948,
          "time": 138.93023255813952,
          "velocity": 0.14960629921259844
        },
        {
          "duration": 0.12790697674418539,
          "durationTicks": 11,
          "midi": 45,
          "name": "A2",
          "ticks": 11949,
          "time": 138.9418604651163,
          "velocity": 0.2047244094488189
        },
        {
          "duration": 0.1046511627907023,
          "durationTicks": 9,
          "midi": 68,
          "name": "G#4",
          "ticks": 11951,
          "time": 138.96511627906978,
          "velocity": 0.2125984251968504
        },
        {
          "duration": 0.32558139534882,
          "durationTicks": 28,
          "midi": 57,
          "name": "A3",
          "ticks": 11960,
          "time": 139.06976744186048,
          "velocity": 0.16535433070866143
        },
        {
          "duration": 0.12790697674418539,
          "durationTicks": 11,
          "midi": 66,
          "name": "F#4",
          "ticks": 11961,
          "time": 139.08139534883722,
          "velocity": 0.23622047244094488
        },
        {
          "duration": 0.12790697674418539,
          "durationTicks": 11,
          "midi": 45,
          "name": "A2",
          "ticks": 11962,
          "time": 139.09302325581396,
          "velocity": 0.2047244094488189
        },
        {
          "duration": 0.13953488372092693,
          "durationTicks": 12,
          "midi": 68,
          "name": "G#4",
          "ticks": 11973,
          "time": 139.22093023255815,
          "velocity": 0.2283464566929134
        },
        {
          "duration": 0.04651162790696617,
          "durationTicks": 4,
          "midi": 45,
          "name": "A2",
          "ticks": 11974,
          "time": 139.2325581395349,
          "velocity": 0.18110236220472442
        },
        {
          "duration": 0.034883720930224626,
          "durationTicks": 3,
          "midi": 53,
          "name": "F3",
          "ticks": 11974,
          "time": 139.2325581395349,
          "velocity": 0.14960629921259844
        },
        {
          "duration": 0.09302325581396076,
          "durationTicks": 8,
          "midi": 33,
          "name": "A1",
          "ticks": 11985,
          "time": 139.36046511627907,
          "velocity": 0.10236220472440945
        },
        {
          "duration": 0.11627906976744384,
          "durationTicks": 10,
          "midi": 71,
          "name": "B4",
          "ticks": 11985,
          "time": 139.36046511627907,
          "velocity": 0.15748031496062992
        },
        {
          "duration": 0.12790697674418539,
          "durationTicks": 11,
          "midi": 83,
          "name": "B5",
          "ticks": 11985,
          "time": 139.36046511627907,
          "velocity": 0.25984251968503935
        },
        {
          "duration": 0.09302325581396076,
          "durationTicks": 8,
          "midi": 45,
          "name": "A2",
          "ticks": 11988,
          "time": 139.3953488372093,
          "velocity": 0.16535433070866143
        },
        {
          "duration": 0.04651162790696617,
          "durationTicks": 4,
          "midi": 52,
          "name": "E3",
          "ticks": 11995,
          "time": 139.47674418604652,
          "velocity": 0.08661417322834646
        },
        {
          "duration": 0.2674418604651123,
          "durationTicks": 23,
          "midi": 45,
          "name": "A2",
          "ticks": 11999,
          "time": 139.52325581395348,
          "velocity": 0.23622047244094488
        },
        {
          "duration": 0.09302325581396076,
          "durationTicks": 8,
          "midi": 73,
          "name": "C#5",
          "ticks": 11999,
          "time": 139.52325581395348,
          "velocity": 0.23622047244094488
        },
        {
          "duration": 0.06976744186047767,
          "durationTicks": 6,
          "midi": 33,
          "name": "A1",
          "ticks": 12000,
          "time": 139.53488372093022,
          "velocity": 0.10236220472440945
        },
        {
          "duration": 0.06976744186044925,
          "durationTicks": 6,
          "midi": 80,
          "name": "G#5",
          "ticks": 12017,
          "time": 139.7325581395349,
          "velocity": 0.07086614173228346
        },
        {
          "duration": 0.10465116279067388,
          "durationTicks": 9,
          "midi": 45,
          "name": "A2",
          "ticks": 12024,
          "time": 139.8139534883721,
          "velocity": 0.18110236220472442
        },
        {
          "duration": 0.0813953488371908,
          "durationTicks": 7,
          "midi": 68,
          "name": "G#4",
          "ticks": 12025,
          "time": 139.82558139534885,
          "velocity": 0.2440944881889764
        },
        {
          "duration": 0.11627906976741542,
          "durationTicks": 10,
          "midi": 66,
          "name": "F#4",
          "ticks": 12035,
          "time": 139.9418604651163,
          "velocity": 0.2204724409448819
        },
        {
          "duration": 0.11627906976744384,
          "durationTicks": 10,
          "midi": 45,
          "name": "A2",
          "ticks": 12036,
          "time": 139.95348837209303,
          "velocity": 0.18110236220472442
        },
        {
          "duration": 0.22093023255811772,
          "durationTicks": 19,
          "midi": 57,
          "name": "A3",
          "ticks": 12037,
          "time": 139.96511627906978,
          "velocity": 0.18110236220472442
        },
        {
          "duration": 0.13953488372092693,
          "durationTicks": 12,
          "midi": 68,
          "name": "G#4",
          "ticks": 12048,
          "time": 140.09302325581396,
          "velocity": 0.25196850393700787
        },
        {
          "duration": 0.11627906976744384,
          "durationTicks": 10,
          "midi": 45,
          "name": "A2",
          "ticks": 12049,
          "time": 140.1046511627907,
          "velocity": 0.25196850393700787
        },
        {
          "duration": 0.05813953488373613,
          "durationTicks": 5,
          "midi": 52,
          "name": "E3",
          "ticks": 12053,
          "time": 140.15116279069767,
          "velocity": 0.10236220472440945
        },
        {
          "duration": 0.023255813953483084,
          "durationTicks": 2,
          "midi": 44,
          "name": "G#2",
          "ticks": 12059,
          "time": 140.22093023255815,
          "velocity": 0.2440944881889764
        },
        {
          "duration": 0.11627906976744384,
          "durationTicks": 10,
          "midi": 71,
          "name": "B4",
          "ticks": 12060,
          "time": 140.2325581395349,
          "velocity": 0.15748031496062992
        },
        {
          "duration": 0.13953488372092693,
          "durationTicks": 12,
          "midi": 83,
          "name": "B5",
          "ticks": 12060,
          "time": 140.2325581395349,
          "velocity": 0.25984251968503935
        },
        {
          "duration": 0.12790697674418539,
          "durationTicks": 11,
          "midi": 45,
          "name": "A2",
          "ticks": 12061,
          "time": 140.24418604651163,
          "velocity": 0.2440944881889764
        },
        {
          "duration": 0.2325581395348877,
          "durationTicks": 20,
          "midi": 45,
          "name": "A2",
          "ticks": 12074,
          "time": 140.3953488372093,
          "velocity": 0.25196850393700787
        },
        {
          "duration": 0.24418604651162923,
          "durationTicks": 21,
          "midi": 61,
          "name": "C#4",
          "ticks": 12074,
          "time": 140.3953488372093,
          "velocity": 0.12598425196850394
        },
        {
          "duration": 0.19767441860466306,
          "durationTicks": 17,
          "midi": 73,
          "name": "C#5",
          "ticks": 12074,
          "time": 140.3953488372093,
          "velocity": 0.2677165354330709
        },
        {
          "duration": 0.13953488372092693,
          "durationTicks": 12,
          "midi": 52,
          "name": "E3",
          "ticks": 12078,
          "time": 140.4418604651163,
          "velocity": 0.10236220472440945
        },
        {
          "duration": 0.1046511627907023,
          "durationTicks": 9,
          "midi": 45,
          "name": "A2",
          "ticks": 12098,
          "time": 140.67441860465115,
          "velocity": 0.1968503937007874
        },
        {
          "duration": 0.19767441860466306,
          "durationTicks": 17,
          "midi": 75,
          "name": "D#5",
          "ticks": 12099,
          "time": 140.6860465116279,
          "velocity": 0.33858267716535434
        },
        {
          "duration": 0.04651162790699459,
          "durationTicks": 4,
          "midi": 46,
          "name": "A#2",
          "ticks": 12107,
          "time": 140.77906976744185,
          "velocity": 0.18110236220472442
        },
        {
          "duration": 0.11627906976744384,
          "durationTicks": 10,
          "midi": 47,
          "name": "B2",
          "ticks": 12111,
          "time": 140.82558139534885,
          "velocity": 0.18110236220472442
        },
        {
          "duration": 0.06976744186047767,
          "durationTicks": 6,
          "midi": 76,
          "name": "E5",
          "ticks": 12116,
          "time": 140.88372093023256,
          "velocity": 0.14960629921259844
        },
        {
          "duration": 0.4186046511627808,
          "durationTicks": 36,
          "midi": 66,
          "name": "F#4",
          "ticks": 12122,
          "time": 140.95348837209303,
          "velocity": 0.15748031496062992
        },
        {
          "duration": 0.7906976744185954,
          "durationTicks": 68,
          "midi": 76,
          "name": "E5",
          "ticks": 12123,
          "time": 140.96511627906978,
          "velocity": 0.3228346456692913
        },
        {
          "duration": 0.6279069767441854,
          "durationTicks": 54,
          "midi": 59,
          "name": "B3",
          "ticks": 12124,
          "time": 140.97674418604652,
          "velocity": 0.1732283464566929
        },
        {
          "duration": 0.034883720930224626,
          "durationTicks": 3,
          "midi": 47,
          "name": "B2",
          "ticks": 12125,
          "time": 140.98837209302326,
          "velocity": 0.2125984251968504
        },
        {
          "duration": 0.2325581395348877,
          "durationTicks": 20,
          "midi": 35,
          "name": "B1",
          "ticks": 12126,
          "time": 141,
          "velocity": 0.1889763779527559
        },
        {
          "duration": 0.04651162790699459,
          "durationTicks": 4,
          "midi": 47,
          "name": "B2",
          "ticks": 12129,
          "time": 141.03488372093022,
          "velocity": 0.1968503937007874
        },
        {
          "duration": 0.34883720930233153,
          "durationTicks": 30,
          "midi": 47,
          "name": "B2",
          "ticks": 12134,
          "time": 141.09302325581396,
          "velocity": 0.2125984251968504
        },
        {
          "duration": 0.12790697674418539,
          "durationTicks": 11,
          "midi": 35,
          "name": "B1",
          "ticks": 12147,
          "time": 141.24418604651163,
          "velocity": 0.16535433070866143
        },
        {
          "duration": 0.2093023255814046,
          "durationTicks": 18,
          "midi": 35,
          "name": "B1",
          "ticks": 12159,
          "time": 141.38372093023256,
          "velocity": 0.14173228346456693
        },
        {
          "duration": 0.09302325581396076,
          "durationTicks": 8,
          "midi": 54,
          "name": "F#3",
          "ticks": 12160,
          "time": 141.3953488372093,
          "velocity": 0.14960629921259844
        },
        {
          "duration": 0.05813953488370771,
          "durationTicks": 5,
          "midi": 54,
          "name": "F#3",
          "ticks": 12175,
          "time": 141.56976744186048,
          "velocity": 0.12598425196850394
        },
        {
          "duration": 0.09302325581396076,
          "durationTicks": 8,
          "midi": 35,
          "name": "B1",
          "ticks": 12178,
          "time": 141.6046511627907,
          "velocity": 0.14173228346456693
        },
        {
          "duration": 0.12790697674418539,
          "durationTicks": 11,
          "midi": 54,
          "name": "F#3",
          "ticks": 12183,
          "time": 141.6627906976744,
          "velocity": 0.2677165354330709
        },
        {
          "duration": 0.0813953488371908,
          "durationTicks": 7,
          "midi": 35,
          "name": "B1",
          "ticks": 12187,
          "time": 141.7093023255814,
          "velocity": 0.11023622047244094
        },
        {
          "duration": 0.09302325581396076,
          "durationTicks": 8,
          "midi": 76,
          "name": "E5",
          "ticks": 12192,
          "time": 141.7674418604651,
          "velocity": 0.2992125984251969
        },
        {
          "duration": 0.08139534883721922,
          "durationTicks": 7,
          "midi": 35,
          "name": "B1",
          "ticks": 12195,
          "time": 141.80232558139534,
          "velocity": 0.11811023622047244
        },
        {
          "duration": 0.05813953488370771,
          "durationTicks": 5,
          "midi": 54,
          "name": "F#3",
          "ticks": 12197,
          "time": 141.82558139534885,
          "velocity": 0.07874015748031496
        },
        {
          "duration": 0.023255813953483084,
          "durationTicks": 2,
          "midi": 77,
          "name": "F5",
          "ticks": 12200,
          "time": 141.86046511627907,
          "velocity": 0.29133858267716534
        },
        {
          "duration": 0.4418604651162923,
          "durationTicks": 38,
          "midi": 78,
          "name": "F#5",
          "ticks": 12202,
          "time": 141.88372093023256,
          "velocity": 0.3543307086614173
        },
        {
          "duration": 0.04651162790699459,
          "durationTicks": 4,
          "midi": 35,
          "name": "B1",
          "ticks": 12203,
          "time": 141.8953488372093,
          "velocity": 0.10236220472440945
        },
        {
          "duration": 0.18604651162792152,
          "durationTicks": 16,
          "midi": 54,
          "name": "F#3",
          "ticks": 12203,
          "time": 141.8953488372093,
          "velocity": 0.2283464566929134
        },
        {
          "duration": 0.0813953488371908,
          "durationTicks": 7,
          "midi": 35,
          "name": "B1",
          "ticks": 12208,
          "time": 141.95348837209303,
          "velocity": 0.08661417322834646
        },
        {
          "duration": 0.10465116279067388,
          "durationTicks": 9,
          "midi": 47,
          "name": "B2",
          "ticks": 12208,
          "time": 141.95348837209303,
          "velocity": 0.14960629921259844
        },
        {
          "duration": 0.034883720930224626,
          "durationTicks": 3,
          "midi": 48,
          "name": "C3",
          "ticks": 12218,
          "time": 142.06976744186048,
          "velocity": 0.14960629921259844
        },
        {
          "duration": 0.04651162790696617,
          "durationTicks": 4,
          "midi": 47,
          "name": "B2",
          "ticks": 12222,
          "time": 142.11627906976744,
          "velocity": 0.30708661417322836
        },
        {
          "duration": 0.48837209302325846,
          "durationTicks": 42,
          "midi": 35,
          "name": "B1",
          "ticks": 12225,
          "time": 142.15116279069767,
          "velocity": 0.14960629921259844
        },
        {
          "duration": 0.7558139534883708,
          "durationTicks": 65,
          "midi": 47,
          "name": "B2",
          "ticks": 12227,
          "time": 142.17441860465115,
          "velocity": 0.2677165354330709
        },
        {
          "duration": 0.09302325581393234,
          "durationTicks": 8,
          "midi": 79,
          "name": "G5",
          "ticks": 12240,
          "time": 142.32558139534885,
          "velocity": 0.28346456692913385
        },
        {
          "duration": 0.9069767441860392,
          "durationTicks": 78,
          "midi": 61,
          "name": "C#4",
          "ticks": 12243,
          "time": 142.36046511627907,
          "velocity": 0.11023622047244094
        },
        {
          "duration": 0.11627906976744384,
          "durationTicks": 10,
          "midi": 78,
          "name": "F#5",
          "ticks": 12248,
          "time": 142.41860465116278,
          "velocity": 0.31496062992125984
        },
        {
          "duration": 0.11627906976744384,
          "durationTicks": 10,
          "midi": 79,
          "name": "G5",
          "ticks": 12258,
          "time": 142.53488372093022,
          "velocity": 0.28346456692913385
        },
        {
          "duration": 0.11627906976744384,
          "durationTicks": 10,
          "midi": 78,
          "name": "F#5",
          "ticks": 12268,
          "time": 142.65116279069767,
          "velocity": 0.25984251968503935
        },
        {
          "duration": 0.18604651162792152,
          "durationTicks": 16,
          "midi": 35,
          "name": "B1",
          "ticks": 12270,
          "time": 142.67441860465115,
          "velocity": 0.11023622047244094
        },
        {
          "duration": 0.1046511627907023,
          "durationTicks": 9,
          "midi": 79,
          "name": "G5",
          "ticks": 12278,
          "time": 142.7674418604651,
          "velocity": 0.1968503937007874
        },
        {
          "duration": 0.2093023255814046,
          "durationTicks": 18,
          "midi": 35,
          "name": "B1",
          "ticks": 12287,
          "time": 142.87209302325581,
          "velocity": 0.10236220472440945
        },
        {
          "duration": 0.11627906976744384,
          "durationTicks": 10,
          "midi": 78,
          "name": "F#5",
          "ticks": 12287,
          "time": 142.87209302325581,
          "velocity": 0.16535433070866143
        },
        {
          "duration": 0.06976744186047767,
          "durationTicks": 6,
          "midi": 79,
          "name": "G5",
          "ticks": 12300,
          "time": 143.02325581395348,
          "velocity": 0.11023622047244094
        },
        {
          "duration": 0.1046511627907023,
          "durationTicks": 9,
          "midi": 78,
          "name": "F#5",
          "ticks": 12306,
          "time": 143.09302325581396,
          "velocity": 0.08661417322834646
        },
        {
          "duration": 0.16279069767441,
          "durationTicks": 14,
          "midi": 76,
          "name": "E5",
          "ticks": 12318,
          "time": 143.2325581395349,
          "velocity": 0.29133858267716534
        },
        {
          "duration": 0.1046511627907023,
          "durationTicks": 9,
          "midi": 95,
          "name": "B6",
          "ticks": 12319,
          "time": 143.24418604651163,
          "velocity": 0.09448818897637795
        },
        {
          "duration": 0.034883720930224626,
          "durationTicks": 3,
          "midi": 48,
          "name": "C3",
          "ticks": 12329,
          "time": 143.36046511627907,
          "velocity": 0.14960629921259844
        },
        {
          "duration": 0.12790697674418539,
          "durationTicks": 11,
          "midi": 75,
          "name": "D#5",
          "ticks": 12332,
          "time": 143.3953488372093,
          "velocity": 0.2440944881889764
        },
        {
          "duration": 0.04651162790699459,
          "durationTicks": 4,
          "midi": 48,
          "name": "C3",
          "ticks": 12334,
          "time": 143.41860465116278,
          "velocity": 0.15748031496062992
        },
        {
          "duration": 0.034883720930224626,
          "durationTicks": 3,
          "midi": 48,
          "name": "C3",
          "ticks": 12340,
          "time": 143.48837209302326,
          "velocity": 0.14960629921259844
        },
        {
          "duration": 0.25581395348837077,
          "durationTicks": 22,
          "midi": 73,
          "name": "C#5",
          "ticks": 12343,
          "time": 143.52325581395348,
          "velocity": 0.1732283464566929
        },
        {
          "duration": 0.04651162790699459,
          "durationTicks": 4,
          "midi": 48,
          "name": "C3",
          "ticks": 12345,
          "time": 143.54651162790697,
          "velocity": 0.15748031496062992
        },
        {
          "duration": 0.4651162790697754,
          "durationTicks": 40,
          "midi": 56,
          "name": "G#3",
          "ticks": 12346,
          "time": 143.5581395348837,
          "velocity": 0.2125984251968504
        },
        {
          "duration": 0.03488372093025305,
          "durationTicks": 3,
          "midi": 48,
          "name": "C3",
          "ticks": 12357,
          "time": 143.6860465116279,
          "velocity": 0.08661417322834646
        },
        {
          "duration": 0.2906976744185954,
          "durationTicks": 25,
          "midi": 64,
          "name": "E4",
          "ticks": 12361,
          "time": 143.7325581395349,
          "velocity": 0.09448818897637795
        },
        {
          "duration": 0.034883720930224626,
          "durationTicks": 3,
          "midi": 48,
          "name": "C3",
          "ticks": 12363,
          "time": 143.75581395348837,
          "velocity": 0.12598425196850394
        },
        {
          "duration": 0.2790697674418823,
          "durationTicks": 24,
          "midi": 73,
          "name": "C#5",
          "ticks": 12367,
          "time": 143.80232558139534,
          "velocity": 0.2047244094488189
        },
        {
          "duration": 0.034883720930224626,
          "durationTicks": 3,
          "midi": 48,
          "name": "C3",
          "ticks": 12369,
          "time": 143.82558139534885,
          "velocity": 0.12598425196850394
        },
        {
          "duration": 0.034883720930224626,
          "durationTicks": 3,
          "midi": 48,
          "name": "C3",
          "ticks": 12374,
          "time": 143.88372093023256,
          "velocity": 0.10236220472440945
        },
        {
          "duration": 0.034883720930224626,
          "durationTicks": 3,
          "midi": 48,
          "name": "C3",
          "ticks": 12380,
          "time": 143.95348837209303,
          "velocity": 0.08661417322834646
        },
        {
          "duration": 0.24418604651162923,
          "durationTicks": 21,
          "midi": 68,
          "name": "G#4",
          "ticks": 12396,
          "time": 144.13953488372093,
          "velocity": 0.25984251968503935
        },
        {
          "duration": 0.19767441860466306,
          "durationTicks": 17,
          "midi": 87,
          "name": "D#6",
          "ticks": 12396,
          "time": 144.13953488372093,
          "velocity": 0.11811023622047244
        },
        {
          "duration": 0.04651162790696617,
          "durationTicks": 4,
          "midi": 87,
          "name": "D#6",
          "ticks": 12417,
          "time": 144.38372093023256,
          "velocity": 0.14173228346456693
        },
        {
          "duration": 0.11627906976744384,
          "durationTicks": 10,
          "midi": 54,
          "name": "F#3",
          "ticks": 12418,
          "time": 144.3953488372093,
          "velocity": 0.28346456692913385
        },
        {
          "duration": 0.034883720930224626,
          "durationTicks": 3,
          "midi": 68,
          "name": "G#4",
          "ticks": 12418,
          "time": 144.3953488372093,
          "velocity": 0.2204724409448819
        },
        {
          "duration": 0.03488372093025305,
          "durationTicks": 3,
          "midi": 42,
          "name": "F#2",
          "ticks": 12420,
          "time": 144.41860465116278,
          "velocity": 0.14173228346456693
        },
        {
          "duration": 0.04651162790699459,
          "durationTicks": 4,
          "midi": 69,
          "name": "A4",
          "ticks": 12421,
          "time": 144.43023255813952,
          "velocity": 0.2440944881889764
        },
        {
          "duration": 0.34883720930233153,
          "durationTicks": 30,
          "midi": 42,
          "name": "F#2",
          "ticks": 12424,
          "time": 144.46511627906978,
          "velocity": 0.1889763779527559
        },
        {
          "duration": 0.20930232558137618,
          "durationTicks": 18,
          "midi": 70,
          "name": "A#4",
          "ticks": 12425,
          "time": 144.47674418604652,
          "velocity": 0.2440944881889764
        },
        {
          "duration": 0.19767441860463464,
          "durationTicks": 17,
          "midi": 89,
          "name": "F6",
          "ticks": 12425,
          "time": 144.47674418604652,
          "velocity": 0.07874015748031496
        },
        {
          "duration": 0.04651162790699459,
          "durationTicks": 4,
          "midi": 70,
          "name": "A#4",
          "ticks": 12451,
          "time": 144.77906976744185,
          "velocity": 0.07086614173228346
        },
        {
          "duration": 0.38372093023255616,
          "durationTicks": 33,
          "midi": 42,
          "name": "F#2",
          "ticks": 12455,
          "time": 144.82558139534885,
          "velocity": 0.16535433070866143
        },
        {
          "duration": 0.12790697674418539,
          "durationTicks": 11,
          "midi": 54,
          "name": "F#3",
          "ticks": 12455,
          "time": 144.82558139534885,
          "velocity": 0.18110236220472442
        },
        {
          "duration": 0.16279069767441,
          "durationTicks": 14,
          "midi": 85,
          "name": "C#6",
          "ticks": 12455,
          "time": 144.82558139534885,
          "velocity": 0.15748031496062992
        },
        {
          "duration": 0.2325581395348877,
          "durationTicks": 20,
          "midi": 66,
          "name": "F#4",
          "ticks": 12456,
          "time": 144.8372093023256,
          "velocity": 0.2440944881889764
        },
        {
          "duration": 0.11627906976744384,
          "durationTicks": 10,
          "midi": 61,
          "name": "C#4",
          "ticks": 12490,
          "time": 145.2325581395349,
          "velocity": 0.16535433070866143
        },
        {
          "duration": 0.09302325581396076,
          "durationTicks": 8,
          "midi": 80,
          "name": "G#5",
          "ticks": 12491,
          "time": 145.24418604651163,
          "velocity": 0.10236220472440945
        },
        {
          "duration": 0.09302325581396076,
          "durationTicks": 8,
          "midi": 44,
          "name": "G#2",
          "ticks": 12493,
          "time": 145.2674418604651,
          "velocity": 0.2125984251968504
        },
        {
          "duration": 0.09302325581396076,
          "durationTicks": 8,
          "midi": 44,
          "name": "G#2",
          "ticks": 12502,
          "time": 145.37209302325581,
          "velocity": 0.2125984251968504
        },
        {
          "duration": 0.13953488372092693,
          "durationTicks": 12,
          "midi": 63,
          "name": "D#4",
          "ticks": 12503,
          "time": 145.38372093023256,
          "velocity": 0.2125984251968504
        },
        {
          "duration": 0.12790697674418539,
          "durationTicks": 11,
          "midi": 82,
          "name": "A#5",
          "ticks": 12504,
          "time": 145.3953488372093,
          "velocity": 0.16535433070866143
        },
        {
          "duration": 0.3139534883721069,
          "durationTicks": 27,
          "midi": 83,
          "name": "B5",
          "ticks": 12517,
          "time": 145.54651162790697,
          "velocity": 0.12598425196850394
        },
        {
          "duration": 0.40697674418606766,
          "durationTicks": 35,
          "midi": 64,
          "name": "E4",
          "ticks": 12518,
          "time": 145.5581395348837,
          "velocity": 0.1968503937007874
        },
        {
          "duration": 0.5116279069767415,
          "durationTicks": 44,
          "midi": 45,
          "name": "A2",
          "ticks": 12520,
          "time": 145.58139534883722,
          "velocity": 0.25196850393700787
        },
        {
          "duration": 0.40697674418603924,
          "durationTicks": 35,
          "midi": 66,
          "name": "F#4",
          "ticks": 12553,
          "time": 145.96511627906978,
          "velocity": 0.28346456692913385
        },
        {
          "duration": 0.25581395348837077,
          "durationTicks": 22,
          "midi": 85,
          "name": "C#6",
          "ticks": 12553,
          "time": 145.96511627906978,
          "velocity": 0.2047244094488189
        },
        {
          "duration": 0.25581395348837077,
          "durationTicks": 22,
          "midi": 47,
          "name": "B2",
          "ticks": 12571,
          "time": 146.17441860465115,
          "velocity": 0.10236220472440945
        },
        {
          "duration": 0.1046511627907023,
          "durationTicks": 9,
          "midi": 85,
          "name": "C#6",
          "ticks": 12577,
          "time": 146.24418604651163,
          "velocity": 0.16535433070866143
        },
        {
          "duration": 0.25581395348837077,
          "durationTicks": 22,
          "midi": 71,
          "name": "B4",
          "ticks": 12590,
          "time": 146.3953488372093,
          "velocity": 0.11023622047244094
        },
        {
          "duration": 0.2674418604651123,
          "durationTicks": 23,
          "midi": 83,
          "name": "B5",
          "ticks": 12590,
          "time": 146.3953488372093,
          "velocity": 0.25984251968503935
        },
        {
          "duration": 0.12790697674418539,
          "durationTicks": 11,
          "midi": 47,
          "name": "B2",
          "ticks": 12594,
          "time": 146.4418604651163,
          "velocity": 0.07086614173228346
        },
        {
          "duration": 0.16279069767441,
          "durationTicks": 14,
          "midi": 66,
          "name": "F#4",
          "ticks": 12600,
          "time": 146.51162790697674,
          "velocity": 0.14173228346456693
        },
        {
          "duration": 0.1046511627907023,
          "durationTicks": 9,
          "midi": 61,
          "name": "C#4",
          "ticks": 12613,
          "time": 146.6627906976744,
          "velocity": 0.09448818897637795
        },
        {
          "duration": 0.40697674418606766,
          "durationTicks": 35,
          "midi": 68,
          "name": "G#4",
          "ticks": 12614,
          "time": 146.67441860465115,
          "velocity": 0.2755905511811024
        },
        {
          "duration": 0.3953488372093261,
          "durationTicks": 34,
          "midi": 87,
          "name": "D#6",
          "ticks": 12614,
          "time": 146.67441860465115,
          "velocity": 0.15748031496062992
        },
        {
          "duration": 0.4651162790697754,
          "durationTicks": 40,
          "midi": 61,
          "name": "C#4",
          "ticks": 12632,
          "time": 146.88372093023256,
          "velocity": 0.10236220472440945
        },
        {
          "duration": 0.05813953488370771,
          "durationTicks": 5,
          "midi": 81,
          "name": "A5",
          "ticks": 12648,
          "time": 147.06976744186048,
          "velocity": 0.11811023622047244
        },
        {
          "duration": 0.05813953488370771,
          "durationTicks": 5,
          "midi": 88,
          "name": "E6",
          "ticks": 12648,
          "time": 147.06976744186048,
          "velocity": 0.13385826771653545
        },
        {
          "duration": 0.034883720930224626,
          "durationTicks": 3,
          "midi": 69,
          "name": "A4",
          "ticks": 12649,
          "time": 147.08139534883722,
          "velocity": 0.2047244094488189
        },
        {
          "duration": 0.3139534883720785,
          "durationTicks": 27,
          "midi": 68,
          "name": "G#4",
          "ticks": 12652,
          "time": 147.11627906976744,
          "velocity": 0.25984251968503935
        },
        {
          "duration": 0.15116279069766847,
          "durationTicks": 13,
          "midi": 87,
          "name": "D#6",
          "ticks": 12653,
          "time": 147.12790697674419,
          "velocity": 0.15748031496062992
        },
        {
          "duration": 0.2093023255814046,
          "durationTicks": 18,
          "midi": 64,
          "name": "E4",
          "ticks": 12663,
          "time": 147.24418604651163,
          "velocity": 0.14960629921259844
        },
        {
          "duration": 0.1046511627907023,
          "durationTicks": 9,
          "midi": 87,
          "name": "D#6",
          "ticks": 12667,
          "time": 147.2906976744186,
          "velocity": 0.13385826771653545
        },
        {
          "duration": 0.16279069767443843,
          "durationTicks": 14,
          "midi": 76,
          "name": "E5",
          "ticks": 12711,
          "time": 147.80232558139534,
          "velocity": 0.28346456692913385
        },
        {
          "duration": 0.0813953488371908,
          "durationTicks": 7,
          "midi": 95,
          "name": "B6",
          "ticks": 12712,
          "time": 147.8139534883721,
          "velocity": 0.11023622047244094
        },
        {
          "duration": 0.034883720930224626,
          "durationTicks": 3,
          "midi": 48,
          "name": "C3",
          "ticks": 12713,
          "time": 147.82558139534885,
          "velocity": 0.09448818897637795
        },
        {
          "duration": 0.2325581395348877,
          "durationTicks": 20,
          "midi": 49,
          "name": "C#3",
          "ticks": 12717,
          "time": 147.87209302325581,
          "velocity": 0.07086614173228346
        },
        {
          "duration": 0.15116279069766847,
          "durationTicks": 13,
          "midi": 75,
          "name": "D#5",
          "ticks": 12725,
          "time": 147.96511627906978,
          "velocity": 0.30708661417322836
        },
        {
          "duration": 0.11627906976744384,
          "durationTicks": 10,
          "midi": 73,
          "name": "C#5",
          "ticks": 12736,
          "time": 148.09302325581396,
          "velocity": 0.15748031496062992
        },
        {
          "duration": 0.1046511627907023,
          "durationTicks": 9,
          "midi": 85,
          "name": "C#6",
          "ticks": 12736,
          "time": 148.09302325581396,
          "velocity": 0.1732283464566929
        },
        {
          "duration": 0.11627906976744384,
          "durationTicks": 10,
          "midi": 56,
          "name": "G#3",
          "ticks": 12742,
          "time": 148.1627906976744,
          "velocity": 0.09448818897637795
        },
        {
          "duration": 0.33720930232556157,
          "durationTicks": 29,
          "midi": 61,
          "name": "C#4",
          "ticks": 12755,
          "time": 148.3139534883721,
          "velocity": 0.07086614173228346
        },
        {
          "duration": 0.034883720930224626,
          "durationTicks": 3,
          "midi": 83,
          "name": "B5",
          "ticks": 12755,
          "time": 148.3139534883721,
          "velocity": 0.07874015748031496
        },
        {
          "duration": 0.25581395348837077,
          "durationTicks": 22,
          "midi": 73,
          "name": "C#5",
          "ticks": 12759,
          "time": 148.36046511627907,
          "velocity": 0.1732283464566929
        },
        {
          "duration": 0.22093023255814614,
          "durationTicks": 19,
          "midi": 85,
          "name": "C#6",
          "ticks": 12760,
          "time": 148.37209302325581,
          "velocity": 0.18110236220472442
        },
        {
          "duration": 0.34883720930233153,
          "durationTicks": 30,
          "midi": 68,
          "name": "G#4",
          "ticks": 12787,
          "time": 148.6860465116279,
          "velocity": 0.2677165354330709
        },
        {
          "duration": 0.13953488372092693,
          "durationTicks": 12,
          "midi": 87,
          "name": "D#6",
          "ticks": 12788,
          "time": 148.69767441860466,
          "velocity": 0.10236220472440945
        },
        {
          "duration": 0.034883720930224626,
          "durationTicks": 3,
          "midi": 87,
          "name": "D#6",
          "ticks": 12812,
          "time": 148.97674418604652,
          "velocity": 0.09448818897637795
        },
        {
          "duration": 0.11627906976744384,
          "durationTicks": 10,
          "midi": 54,
          "name": "F#3",
          "ticks": 12813,
          "time": 148.98837209302326,
          "velocity": 0.2677165354330709
        },
        {
          "duration": 0.8255813953488484,
          "durationTicks": 71,
          "midi": 42,
          "name": "F#2",
          "ticks": 12815,
          "time": 149.01162790697674,
          "velocity": 0.1968503937007874
        },
        {
          "duration": 0.034883720930224626,
          "durationTicks": 3,
          "midi": 81,
          "name": "A5",
          "ticks": 12816,
          "time": 149.02325581395348,
          "velocity": 0.10236220472440945
        },
        {
          "duration": 0.2325581395348877,
          "durationTicks": 20,
          "midi": 70,
          "name": "A#4",
          "ticks": 12819,
          "time": 149.0581395348837,
          "velocity": 0.2440944881889764
        },
        {
          "duration": 0.15116279069766847,
          "durationTicks": 13,
          "midi": 89,
          "name": "F6",
          "ticks": 12820,
          "time": 149.06976744186048,
          "velocity": 0.07874015748031496
        },
        {
          "duration": 0.15116279069766847,
          "durationTicks": 13,
          "midi": 54,
          "name": "F#3",
          "ticks": 12836,
          "time": 149.25581395348837,
          "velocity": 0.2047244094488189
        },
        {
          "duration": 0.04651162790696617,
          "durationTicks": 4,
          "midi": 70,
          "name": "A#4",
          "ticks": 12845,
          "time": 149.36046511627907,
          "velocity": 0.07874015748031496
        },
        {
          "duration": 0.24418604651162923,
          "durationTicks": 21,
          "midi": 66,
          "name": "F#4",
          "ticks": 12849,
          "time": 149.40697674418604,
          "velocity": 0.25984251968503935
        },
        {
          "duration": 0.16279069767443843,
          "durationTicks": 14,
          "midi": 85,
          "name": "C#6",
          "ticks": 12849,
          "time": 149.40697674418604,
          "velocity": 0.16535433070866143
        },
        {
          "duration": 0.1046511627907023,
          "durationTicks": 9,
          "midi": 85,
          "name": "C#6",
          "ticks": 12886,
          "time": 149.8372093023256,
          "velocity": 0.11811023622047244
        },
        {
          "duration": 0.09302325581396076,
          "durationTicks": 8,
          "midi": 61,
          "name": "C#4",
          "ticks": 12887,
          "time": 149.84883720930233,
          "velocity": 0.1732283464566929
        },
        {
          "duration": 0.12790697674418539,
          "durationTicks": 11,
          "midi": 44,
          "name": "G#2",
          "ticks": 12891,
          "time": 149.8953488372093,
          "velocity": 0.08661417322834646
        },
        {
          "duration": 0.16279069767441,
          "durationTicks": 14,
          "midi": 82,
          "name": "A#5",
          "ticks": 12898,
          "time": 149.97674418604652,
          "velocity": 0.1968503937007874
        },
        {
          "duration": 0.16279069767441,
          "durationTicks": 14,
          "midi": 75,
          "name": "D#5",
          "ticks": 12899,
          "time": 149.98837209302326,
          "velocity": 0.15748031496062992
        },
        {
          "duration": 0.15116279069766847,
          "durationTicks": 13,
          "midi": 63,
          "name": "D#4",
          "ticks": 12900,
          "time": 150,
          "velocity": 0.1968503937007874
        },
        {
          "duration": 0.33720930232559,
          "durationTicks": 29,
          "midi": 83,
          "name": "B5",
          "ticks": 12912,
          "time": 150.13953488372093,
          "velocity": 0.1968503937007874
        },
        {
          "duration": 0.2906976744186238,
          "durationTicks": 25,
          "midi": 64,
          "name": "E4",
          "ticks": 12913,
          "time": 150.15116279069767,
          "velocity": 0.25984251968503935
        },
        {
          "duration": 0.023255813953483084,
          "durationTicks": 2,
          "midi": 44,
          "name": "G#2",
          "ticks": 12914,
          "time": 150.1627906976744,
          "velocity": 0.25984251968503935
        },
        {
          "duration": 0.4767441860465169,
          "durationTicks": 41,
          "midi": 45,
          "name": "A2",
          "ticks": 12916,
          "time": 150.1860465116279,
          "velocity": 0.2755905511811024
        },
        {
          "duration": 0.06976744186044925,
          "durationTicks": 6,
          "midi": 63,
          "name": "D#4",
          "ticks": 12938,
          "time": 150.4418604651163,
          "velocity": 0.18110236220472442
        },
        {
          "duration": 0.40697674418603924,
          "durationTicks": 35,
          "midi": 63,
          "name": "D#4",
          "ticks": 12945,
          "time": 150.52325581395348,
          "velocity": 0.2755905511811024
        },
        {
          "duration": 0.2674418604651123,
          "durationTicks": 23,
          "midi": 82,
          "name": "A#5",
          "ticks": 12945,
          "time": 150.52325581395348,
          "velocity": 0.2047244094488189
        },
        {
          "duration": 0.19767441860466306,
          "durationTicks": 17,
          "midi": 47,
          "name": "B2",
          "ticks": 12965,
          "time": 150.75581395348837,
          "velocity": 0.15748031496062992
        },
        {
          "duration": 0.12790697674418539,
          "durationTicks": 11,
          "midi": 83,
          "name": "B5",
          "ticks": 12968,
          "time": 150.7906976744186,
          "velocity": 0.13385826771653545
        },
        {
          "duration": 0.06976744186044925,
          "durationTicks": 6,
          "midi": 61,
          "name": "C#4",
          "ticks": 12982,
          "time": 150.95348837209303,
          "velocity": 0.2047244094488189
        },
        {
          "duration": 0.06976744186044925,
          "durationTicks": 6,
          "midi": 85,
          "name": "C#6",
          "ticks": 12982,
          "time": 150.95348837209303,
          "velocity": 0.14173228346456693
        },
        {
          "duration": 0.034883720930224626,
          "durationTicks": 3,
          "midi": 47,
          "name": "B2",
          "ticks": 12983,
          "time": 150.96511627906978,
          "velocity": 0.14960629921259844
        },
        {
          "duration": 0.11627906976744384,
          "durationTicks": 10,
          "midi": 54,
          "name": "F#3",
          "ticks": 12983,
          "time": 150.96511627906978,
          "velocity": 0.11811023622047244
        },
        {
          "duration": 0.13953488372092693,
          "durationTicks": 12,
          "midi": 47,
          "name": "B2",
          "ticks": 12987,
          "time": 151.01162790697674,
          "velocity": 0.14960629921259844
        },
        {
          "duration": 0.034883720930224626,
          "durationTicks": 3,
          "midi": 62,
          "name": "D4",
          "ticks": 12988,
          "time": 151.02325581395348,
          "velocity": 0.2125984251968504
        },
        {
          "duration": 0.034883720930224626,
          "durationTicks": 3,
          "midi": 86,
          "name": "D6",
          "ticks": 12988,
          "time": 151.02325581395348,
          "velocity": 0.12598425196850394
        },
        {
          "duration": 0.18604651162792152,
          "durationTicks": 16,
          "midi": 63,
          "name": "D#4",
          "ticks": 12991,
          "time": 151.0581395348837,
          "velocity": 0.2440944881889764
        },
        {
          "duration": 0.12790697674418539,
          "durationTicks": 11,
          "midi": 87,
          "name": "D#6",
          "ticks": 12991,
          "time": 151.0581395348837,
          "velocity": 0.07086614173228346
        },
        {
          "duration": 0.1046511627907023,
          "durationTicks": 9,
          "midi": 82,
          "name": "A#5",
          "ticks": 12994,
          "time": 151.09302325581396,
          "velocity": 0.11023622047244094
        },
        {
          "duration": 0.04651162790699459,
          "durationTicks": 4,
          "midi": 48,
          "name": "C3",
          "ticks": 12999,
          "time": 151.15116279069767,
          "velocity": 0.11811023622047244
        },
        {
          "duration": 0.7674418604651123,
          "durationTicks": 66,
          "midi": 61,
          "name": "C#4",
          "ticks": 13007,
          "time": 151.24418604651163,
          "velocity": 0.25196850393700787
        },
        {
          "duration": 0.30232558139533694,
          "durationTicks": 26,
          "midi": 85,
          "name": "C#6",
          "ticks": 13007,
          "time": 151.24418604651163,
          "velocity": 0.12598425196850394
        },
        {
          "duration": 0.5465116279069946,
          "durationTicks": 47,
          "midi": 49,
          "name": "C#3",
          "ticks": 13010,
          "time": 151.27906976744185,
          "velocity": 0.14173228346456693
        },
        {
          "duration": 0.2093023255814046,
          "durationTicks": 18,
          "midi": 64,
          "name": "E4",
          "ticks": 13055,
          "time": 151.80232558139534,
          "velocity": 0.11811023622047244
        },
        {
          "duration": 0.12790697674418539,
          "durationTicks": 11,
          "midi": 49,
          "name": "C#3",
          "ticks": 13062,
          "time": 151.88372093023256,
          "velocity": 0.10236220472440945
        },
        {
          "duration": 0.15116279069766847,
          "durationTicks": 13,
          "midi": 76,
          "name": "E5",
          "ticks": 13105,
          "time": 152.38372093023256,
          "velocity": 0.28346456692913385
        },
        {
          "duration": 0.08139534883721922,
          "durationTicks": 7,
          "midi": 95,
          "name": "B6",
          "ticks": 13106,
          "time": 152.3953488372093,
          "velocity": 0.09448818897637795
        },
        {
          "duration": 0.2790697674418823,
          "durationTicks": 24,
          "midi": 49,
          "name": "C#3",
          "ticks": 13108,
          "time": 152.41860465116278,
          "velocity": 0.1889763779527559
        },
        {
          "duration": 0.15116279069766847,
          "durationTicks": 13,
          "midi": 75,
          "name": "D#5",
          "ticks": 13118,
          "time": 152.53488372093022,
          "velocity": 0.25984251968503935
        },
        {
          "duration": 0.12790697674418539,
          "durationTicks": 11,
          "midi": 73,
          "name": "C#5",
          "ticks": 13129,
          "time": 152.6627906976744,
          "velocity": 0.16535433070866143
        },
        {
          "duration": 0.4302325581395223,
          "durationTicks": 37,
          "midi": 56,
          "name": "G#3",
          "ticks": 13132,
          "time": 152.69767441860466,
          "velocity": 0.2125984251968504
        },
        {
          "duration": 0.48837209302325846,
          "durationTicks": 42,
          "midi": 49,
          "name": "C#3",
          "ticks": 13133,
          "time": 152.7093023255814,
          "velocity": 0.11811023622047244
        },
        {
          "duration": 0.33720930232556157,
          "durationTicks": 29,
          "midi": 64,
          "name": "E4",
          "ticks": 13144,
          "time": 152.8372093023256,
          "velocity": 0.10236220472440945
        },
        {
          "duration": 0.05813953488370771,
          "durationTicks": 5,
          "midi": 73,
          "name": "C#5",
          "ticks": 13145,
          "time": 152.84883720930233,
          "velocity": 0.07874015748031496
        },
        {
          "duration": 0.25581395348837077,
          "durationTicks": 22,
          "midi": 73,
          "name": "C#5",
          "ticks": 13155,
          "time": 152.96511627906978,
          "velocity": 0.2204724409448819
        },
        {
          "duration": 0.04651162790696617,
          "durationTicks": 4,
          "midi": 55,
          "name": "G3",
          "ticks": 13176,
          "time": 153.2093023255814,
          "velocity": 0.13385826771653545
        },
        {
          "duration": 0.33720930232559,
          "durationTicks": 29,
          "midi": 68,
          "name": "G#4",
          "ticks": 13180,
          "time": 153.25581395348837,
          "velocity": 0.25984251968503935
        },
        {
          "duration": 0.17441860465117998,
          "durationTicks": 15,
          "midi": 87,
          "name": "D#6",
          "ticks": 13181,
          "time": 153.2674418604651,
          "velocity": 0.11811023622047244
        },
        {
          "duration": 0.1511627906976969,
          "durationTicks": 13,
          "midi": 51,
          "name": "D#3",
          "ticks": 13183,
          "time": 153.2906976744186,
          "velocity": 0.11811023622047244
        },
        {
          "duration": 0.04651162790699459,
          "durationTicks": 4,
          "midi": 54,
          "name": "F#3",
          "ticks": 13204,
          "time": 153.53488372093022,
          "velocity": 0.16535433070866143
        },
        {
          "duration": 0.03488372093025305,
          "durationTicks": 3,
          "midi": 87,
          "name": "D#6",
          "ticks": 13205,
          "time": 153.54651162790697,
          "velocity": 0.07874015748031496
        },
        {
          "duration": 0.22093023255814614,
          "durationTicks": 19,
          "midi": 70,
          "name": "A#4",
          "ticks": 13211,
          "time": 153.61627906976744,
          "velocity": 0.23622047244094488
        },
        {
          "duration": 0.18604651162792152,
          "durationTicks": 16,
          "midi": 89,
          "name": "F6",
          "ticks": 13212,
          "time": 153.62790697674419,
          "velocity": 0.10236220472440945
        },
        {
          "duration": 0.13953488372092693,
          "durationTicks": 12,
          "midi": 42,
          "name": "F#2",
          "ticks": 13215,
          "time": 153.6627906976744,
          "velocity": 0.09448818897637795
        },
        {
          "duration": 0.1860465116278931,
          "durationTicks": 16,
          "midi": 42,
          "name": "F#2",
          "ticks": 13229,
          "time": 153.82558139534885,
          "velocity": 0.11811023622047244
        },
        {
          "duration": 0.06976744186047767,
          "durationTicks": 6,
          "midi": 70,
          "name": "A#4",
          "ticks": 13237,
          "time": 153.91860465116278,
          "velocity": 0.08661417322834646
        },
        {
          "duration": 0.16279069767441,
          "durationTicks": 14,
          "midi": 85,
          "name": "C#6",
          "ticks": 13242,
          "time": 153.97674418604652,
          "velocity": 0.18110236220472442
        },
        {
          "duration": 0.1046511627907023,
          "durationTicks": 9,
          "midi": 54,
          "name": "F#3",
          "ticks": 13243,
          "time": 153.98837209302326,
          "velocity": 0.15748031496062992
        },
        {
          "duration": 0.15116279069766847,
          "durationTicks": 13,
          "midi": 66,
          "name": "F#4",
          "ticks": 13243,
          "time": 153.98837209302326,
          "velocity": 0.25196850393700787
        },
        {
          "duration": 0.2093023255814046,
          "durationTicks": 18,
          "midi": 66,
          "name": "F#4",
          "ticks": 13257,
          "time": 154.15116279069767,
          "velocity": 0.10236220472440945
        },
        {
          "duration": 0.04651162790699459,
          "durationTicks": 4,
          "midi": 58,
          "name": "A#3",
          "ticks": 13258,
          "time": 154.1627906976744,
          "velocity": 0.07874015748031496
        },
        {
          "duration": 0.24418604651162923,
          "durationTicks": 21,
          "midi": 42,
          "name": "F#2",
          "ticks": 13259,
          "time": 154.17441860465115,
          "velocity": 0.11023622047244094
        },
        {
          "duration": 0.1279069767442138,
          "durationTicks": 11,
          "midi": 54,
          "name": "F#3",
          "ticks": 13260,
          "time": 154.1860465116279,
          "velocity": 0.14173228346456693
        },
        {
          "duration": 0.1046511627907023,
          "durationTicks": 9,
          "midi": 61,
          "name": "C#4",
          "ticks": 13279,
          "time": 154.40697674418604,
          "velocity": 0.14960629921259844
        },
        {
          "duration": 0.1046511627907023,
          "durationTicks": 9,
          "midi": 80,
          "name": "G#5",
          "ticks": 13279,
          "time": 154.40697674418604,
          "velocity": 0.11811023622047244
        },
        {
          "duration": 0.13953488372095535,
          "durationTicks": 12,
          "midi": 82,
          "name": "A#5",
          "ticks": 13292,
          "time": 154.5581395348837,
          "velocity": 0.2047244094488189
        },
        {
          "duration": 0.09302325581393234,
          "durationTicks": 8,
          "midi": 63,
          "name": "D#4",
          "ticks": 13293,
          "time": 154.56976744186048,
          "velocity": 0.2204724409448819
        },
        {
          "duration": 0.3720930232558146,
          "durationTicks": 32,
          "midi": 83,
          "name": "B5",
          "ticks": 13304,
          "time": 154.69767441860466,
          "velocity": 0.1889763779527559
        },
        {
          "duration": 0.5,
          "durationTicks": 43,
          "midi": 45,
          "name": "A2",
          "ticks": 13306,
          "time": 154.72093023255815,
          "velocity": 0.2440944881889764
        },
        {
          "duration": 0.3720930232558146,
          "durationTicks": 32,
          "midi": 64,
          "name": "E4",
          "ticks": 13306,
          "time": 154.72093023255815,
          "velocity": 0.2440944881889764
        },
        {
          "duration": 0.2325581395348877,
          "durationTicks": 20,
          "midi": 88,
          "name": "E6",
          "ticks": 13306,
          "time": 154.72093023255815,
          "velocity": 0.11023622047244094
        },
        {
          "duration": 0.6860465116278931,
          "durationTicks": 59,
          "midi": 66,
          "name": "F#4",
          "ticks": 13339,
          "time": 155.1046511627907,
          "velocity": 0.28346456692913385
        },
        {
          "duration": 0.3953488372092977,
          "durationTicks": 34,
          "midi": 85,
          "name": "C#6",
          "ticks": 13339,
          "time": 155.1046511627907,
          "velocity": 0.1968503937007874
        },
        {
          "duration": 0.22093023255811772,
          "durationTicks": 19,
          "midi": 47,
          "name": "B2",
          "ticks": 13357,
          "time": 155.3139534883721,
          "velocity": 0.12598425196850394
        },
        {
          "duration": 0.2674418604651123,
          "durationTicks": 23,
          "midi": 71,
          "name": "B4",
          "ticks": 13376,
          "time": 155.53488372093022,
          "velocity": 0.15748031496062992
        },
        {
          "duration": 0.2674418604651123,
          "durationTicks": 23,
          "midi": 83,
          "name": "B5",
          "ticks": 13376,
          "time": 155.53488372093022,
          "velocity": 0.2204724409448819
        },
        {
          "duration": 0.17441860465117998,
          "durationTicks": 15,
          "midi": 47,
          "name": "B2",
          "ticks": 13377,
          "time": 155.54651162790697,
          "velocity": 0.12598425196850394
        },
        {
          "duration": 0.16279069767443843,
          "durationTicks": 14,
          "midi": 54,
          "name": "F#3",
          "ticks": 13377,
          "time": 155.54651162790697,
          "velocity": 0.14960629921259844
        },
        {
          "duration": 0.03488372093025305,
          "durationTicks": 3,
          "midi": 48,
          "name": "C3",
          "ticks": 13399,
          "time": 155.80232558139534,
          "velocity": 0.07874015748031496
        },
        {
          "duration": 0.40697674418606766,
          "durationTicks": 35,
          "midi": 68,
          "name": "G#4",
          "ticks": 13399,
          "time": 155.80232558139534,
          "velocity": 0.29133858267716534
        },
        {
          "duration": 0.38372093023255616,
          "durationTicks": 33,
          "midi": 87,
          "name": "D#6",
          "ticks": 13400,
          "time": 155.8139534883721,
          "velocity": 0.15748031496062992
        },
        {
          "duration": 0.0813953488371908,
          "durationTicks": 7,
          "midi": 81,
          "name": "A5",
          "ticks": 13433,
          "time": 156.19767441860466,
          "velocity": 0.13385826771653545
        },
        {
          "duration": 0.0813953488371908,
          "durationTicks": 7,
          "midi": 88,
          "name": "E6",
          "ticks": 13433,
          "time": 156.19767441860466,
          "velocity": 0.16535433070866143
        },
        {
          "duration": 0.05813953488370771,
          "durationTicks": 5,
          "midi": 69,
          "name": "A4",
          "ticks": 13434,
          "time": 156.2093023255814,
          "velocity": 0.2440944881889764
        },
        {
          "duration": 0.3139534883721069,
          "durationTicks": 27,
          "midi": 68,
          "name": "G#4",
          "ticks": 13439,
          "time": 156.2674418604651,
          "velocity": 0.2755905511811024
        },
        {
          "duration": 0.27906976744185386,
          "durationTicks": 24,
          "midi": 87,
          "name": "D#6",
          "ticks": 13440,
          "time": 156.27906976744185,
          "velocity": 0.1732283464566929
        },
        {
          "duration": 0.0813953488371908,
          "durationTicks": 7,
          "midi": 54,
          "name": "F#3",
          "ticks": 13444,
          "time": 156.32558139534885,
          "velocity": 0.12598425196850394
        },
        {
          "duration": 0.11627906976744384,
          "durationTicks": 10,
          "midi": 64,
          "name": "E4",
          "ticks": 13451,
          "time": 156.40697674418604,
          "velocity": 0.07874015748031496
        },
        {
          "duration": 0.1860465116278931,
          "durationTicks": 16,
          "midi": 68,
          "name": "G#4",
          "ticks": 13467,
          "time": 156.59302325581396,
          "velocity": 0.1889763779527559
        },
        {
          "duration": 0.15116279069766847,
          "durationTicks": 13,
          "midi": 76,
          "name": "E5",
          "ticks": 13501,
          "time": 156.98837209302326,
          "velocity": 0.2755905511811024
        },
        {
          "duration": 0.09302325581396076,
          "durationTicks": 8,
          "midi": 95,
          "name": "B6",
          "ticks": 13502,
          "time": 157,
          "velocity": 0.10236220472440945
        },
        {
          "duration": 0.22093023255814614,
          "durationTicks": 19,
          "midi": 75,
          "name": "D#5",
          "ticks": 13514,
          "time": 157.13953488372093,
          "velocity": 0.30708661417322836
        },
        {
          "duration": 0.4767441860465169,
          "durationTicks": 41,
          "midi": 73,
          "name": "C#5",
          "ticks": 13526,
          "time": 157.27906976744185,
          "velocity": 0.2204724409448819
        },
        {
          "duration": 0.18604651162792152,
          "durationTicks": 16,
          "midi": 56,
          "name": "G#3",
          "ticks": 13527,
          "time": 157.2906976744186,
          "velocity": 0.10236220472440945
        },
        {
          "duration": 0.25581395348837077,
          "durationTicks": 22,
          "midi": 61,
          "name": "C#4",
          "ticks": 13548,
          "time": 157.53488372093022,
          "velocity": 0.11023622047244094
        },
        {
          "duration": 0.034883720930224626,
          "durationTicks": 3,
          "midi": 72,
          "name": "C5",
          "ticks": 13566,
          "time": 157.74418604651163,
          "velocity": 0.07874015748031496
        },
        {
          "duration": 0.2674418604651123,
          "durationTicks": 23,
          "midi": 68,
          "name": "G#4",
          "ticks": 13573,
          "time": 157.82558139534885,
          "velocity": 0.2677165354330709
        },
        {
          "duration": 0.2325581395348877,
          "durationTicks": 20,
          "midi": 87,
          "name": "D#6",
          "ticks": 13574,
          "time": 157.8372093023256,
          "velocity": 0.14173228346456693
        },
        {
          "duration": 0.09302325581396076,
          "durationTicks": 8,
          "midi": 51,
          "name": "D#3",
          "ticks": 13582,
          "time": 157.93023255813952,
          "velocity": 0.07874015748031496
        },
        {
          "duration": 0.04651162790696617,
          "durationTicks": 4,
          "midi": 68,
          "name": "G#4",
          "ticks": 13597,
          "time": 158.1046511627907,
          "velocity": 0.1968503937007874
        },
        {
          "duration": 0.04651162790696617,
          "durationTicks": 4,
          "midi": 87,
          "name": "D#6",
          "ticks": 13597,
          "time": 158.1046511627907,
          "velocity": 0.11023622047244094
        },
        {
          "duration": 0.08139534883721922,
          "durationTicks": 7,
          "midi": 54,
          "name": "F#3",
          "ticks": 13601,
          "time": 158.15116279069767,
          "velocity": 0.14960629921259844
        },
        {
          "duration": 0.04651162790699459,
          "durationTicks": 4,
          "midi": 69,
          "name": "A4",
          "ticks": 13601,
          "time": 158.15116279069767,
          "velocity": 0.25984251968503935
        },
        {
          "duration": 0.22093023255814614,
          "durationTicks": 19,
          "midi": 82,
          "name": "A#5",
          "ticks": 13604,
          "time": 158.1860465116279,
          "velocity": 0.14960629921259844
        },
        {
          "duration": 0.19767441860463464,
          "durationTicks": 17,
          "midi": 70,
          "name": "A#4",
          "ticks": 13605,
          "time": 158.19767441860466,
          "velocity": 0.23622047244094488
        },
        {
          "duration": 0.09302325581393234,
          "durationTicks": 8,
          "midi": 70,
          "name": "A#4",
          "ticks": 13628,
          "time": 158.46511627906978,
          "velocity": 0.09448818897637795
        },
        {
          "duration": 0.13953488372095535,
          "durationTicks": 12,
          "midi": 66,
          "name": "F#4",
          "ticks": 13636,
          "time": 158.5581395348837,
          "velocity": 0.23622047244094488
        },
        {
          "duration": 0.13953488372095535,
          "durationTicks": 12,
          "midi": 85,
          "name": "C#6",
          "ticks": 13636,
          "time": 158.5581395348837,
          "velocity": 0.1968503937007874
        },
        {
          "duration": 0.10465116279067388,
          "durationTicks": 9,
          "midi": 54,
          "name": "F#3",
          "ticks": 13637,
          "time": 158.56976744186048,
          "velocity": 0.1968503937007874
        },
        {
          "duration": 0.04651162790696617,
          "durationTicks": 4,
          "midi": 65,
          "name": "F4",
          "ticks": 13648,
          "time": 158.69767441860466,
          "velocity": 0.1968503937007874
        },
        {
          "duration": 0.11627906976744384,
          "durationTicks": 10,
          "midi": 54,
          "name": "F#3",
          "ticks": 13653,
          "time": 158.75581395348837,
          "velocity": 0.07874015748031496
        },
        {
          "duration": 0.11627906976744384,
          "durationTicks": 10,
          "midi": 61,
          "name": "C#4",
          "ticks": 13671,
          "time": 158.96511627906978,
          "velocity": 0.2047244094488189
        },
        {
          "duration": 0.11627906976744384,
          "durationTicks": 10,
          "midi": 44,
          "name": "G#2",
          "ticks": 13675,
          "time": 159.01162790697674,
          "velocity": 0.15748031496062992
        },
        {
          "duration": 0.1860465116278931,
          "durationTicks": 16,
          "midi": 63,
          "name": "D#4",
          "ticks": 13683,
          "time": 159.1046511627907,
          "velocity": 0.23622047244094488
        },
        {
          "duration": 0.16279069767441,
          "durationTicks": 14,
          "midi": 82,
          "name": "A#5",
          "ticks": 13683,
          "time": 159.1046511627907,
          "velocity": 0.1968503937007874
        },
        {
          "duration": 0.30232558139536536,
          "durationTicks": 26,
          "midi": 83,
          "name": "B5",
          "ticks": 13698,
          "time": 159.27906976744185,
          "velocity": 0.23622047244094488
        },
        {
          "duration": 0.2674418604651123,
          "durationTicks": 23,
          "midi": 64,
          "name": "E4",
          "ticks": 13699,
          "time": 159.2906976744186,
          "velocity": 0.29133858267716534
        },
        {
          "duration": 0.4186046511628092,
          "durationTicks": 36,
          "midi": 45,
          "name": "A2",
          "ticks": 13700,
          "time": 159.30232558139534,
          "velocity": 0.2204724409448819
        },
        {
          "duration": 0.03488372093025305,
          "durationTicks": 3,
          "midi": 63,
          "name": "D#4",
          "ticks": 13722,
          "time": 159.5581395348837,
          "velocity": 0.1968503937007874
        },
        {
          "duration": 0.05813953488370771,
          "durationTicks": 5,
          "midi": 64,
          "name": "E4",
          "ticks": 13726,
          "time": 159.6046511627907,
          "velocity": 0.2125984251968504
        },
        {
          "duration": 0.40697674418606766,
          "durationTicks": 35,
          "midi": 63,
          "name": "D#4",
          "ticks": 13731,
          "time": 159.6627906976744,
          "velocity": 0.25196850393700787
        },
        {
          "duration": 0.2790697674418823,
          "durationTicks": 24,
          "midi": 82,
          "name": "A#5",
          "ticks": 13731,
          "time": 159.6627906976744,
          "velocity": 0.1968503937007874
        },
        {
          "duration": 0.2674418604651123,
          "durationTicks": 23,
          "midi": 87,
          "name": "D#6",
          "ticks": 13731,
          "time": 159.6627906976744,
          "velocity": 0.11811023622047244
        },
        {
          "duration": 0.34883720930233153,
          "durationTicks": 30,
          "midi": 47,
          "name": "B2",
          "ticks": 13751,
          "time": 159.8953488372093,
          "velocity": 0.14173228346456693
        },
        {
          "duration": 0.12790697674418539,
          "durationTicks": 11,
          "midi": 59,
          "name": "B3",
          "ticks": 13754,
          "time": 159.93023255813952,
          "velocity": 0.1889763779527559
        },
        {
          "duration": 0.10465116279067388,
          "durationTicks": 9,
          "midi": 83,
          "name": "B5",
          "ticks": 13755,
          "time": 159.9418604651163,
          "velocity": 0.10236220472440945
        },
        {
          "duration": 0.04651162790696617,
          "durationTicks": 4,
          "midi": 78,
          "name": "F#5",
          "ticks": 13760,
          "time": 160,
          "velocity": 0.08661417322834646
        },
        {
          "duration": 0.06976744186044925,
          "durationTicks": 6,
          "midi": 73,
          "name": "C#5",
          "ticks": 13768,
          "time": 160.09302325581396,
          "velocity": 0.14173228346456693
        },
        {
          "duration": 0.06976744186044925,
          "durationTicks": 6,
          "midi": 85,
          "name": "C#6",
          "ticks": 13768,
          "time": 160.09302325581396,
          "velocity": 0.16535433070866143
        },
        {
          "duration": 0.06976744186044925,
          "durationTicks": 6,
          "midi": 61,
          "name": "C#4",
          "ticks": 13769,
          "time": 160.1046511627907,
          "velocity": 0.2204724409448819
        },
        {
          "duration": 0.03488372093025305,
          "durationTicks": 3,
          "midi": 74,
          "name": "D5",
          "ticks": 13774,
          "time": 160.1627906976744,
          "velocity": 0.09448818897637795
        },
        {
          "duration": 0.023255813953511506,
          "durationTicks": 2,
          "midi": 62,
          "name": "D4",
          "ticks": 13775,
          "time": 160.17441860465115,
          "velocity": 0.2440944881889764
        },
        {
          "duration": 0.13953488372092693,
          "durationTicks": 12,
          "midi": 63,
          "name": "D#4",
          "ticks": 13777,
          "time": 160.19767441860466,
          "velocity": 0.2677165354330709
        },
        {
          "duration": 0.13953488372092693,
          "durationTicks": 12,
          "midi": 82,
          "name": "A#5",
          "ticks": 13777,
          "time": 160.19767441860466,
          "velocity": 0.13385826771653545
        },
        {
          "duration": 0.6744186046511516,
          "durationTicks": 58,
          "midi": 61,
          "name": "C#4",
          "ticks": 13793,
          "time": 160.38372093023256,
          "velocity": 0.25196850393700787
        },
        {
          "duration": 0.5232558139535115,
          "durationTicks": 45,
          "midi": 49,
          "name": "C#3",
          "ticks": 13797,
          "time": 160.43023255813952,
          "velocity": 0.11811023622047244
        },
        {
          "duration": 0.11627906976744384,
          "durationTicks": 10,
          "midi": 64,
          "name": "E4",
          "ticks": 13851,
          "time": 161.0581395348837,
          "velocity": 0.08661417322834646
        },
        {
          "duration": 0.13953488372092693,
          "durationTicks": 12,
          "midi": 78,
          "name": "F#5",
          "ticks": 13890,
          "time": 161.51162790697674,
          "velocity": 0.15748031496062992
        },
        {
          "duration": 0.22093023255814614,
          "durationTicks": 19,
          "midi": 50,
          "name": "D3",
          "ticks": 13891,
          "time": 161.52325581395348,
          "velocity": 0.2283464566929134
        },
        {
          "duration": 0.13953488372092693,
          "durationTicks": 12,
          "midi": 66,
          "name": "F#4",
          "ticks": 13891,
          "time": 161.52325581395348,
          "velocity": 0.2047244094488189
        },
        {
          "duration": 0.023255813953483084,
          "durationTicks": 2,
          "midi": 40,
          "name": "E2",
          "ticks": 13892,
          "time": 161.53488372093022,
          "velocity": 0.28346456692913385
        },
        {
          "duration": 0.05813953488373613,
          "durationTicks": 5,
          "midi": 81,
          "name": "A5",
          "ticks": 13893,
          "time": 161.54651162790697,
          "velocity": 0.07086614173228346
        },
        {
          "duration": 0.18604651162792152,
          "durationTicks": 16,
          "midi": 38,
          "name": "D2",
          "ticks": 13894,
          "time": 161.5581395348837,
          "velocity": 0.2992125984251969
        },
        {
          "duration": 0.3604651162790731,
          "durationTicks": 31,
          "midi": 57,
          "name": "A3",
          "ticks": 13894,
          "time": 161.5581395348837,
          "velocity": 0.14960629921259844
        },
        {
          "duration": 0.09302325581393234,
          "durationTicks": 8,
          "midi": 64,
          "name": "E4",
          "ticks": 13906,
          "time": 161.69767441860466,
          "velocity": 0.1889763779527559
        },
        {
          "duration": 0.09302325581393234,
          "durationTicks": 8,
          "midi": 83,
          "name": "B5",
          "ticks": 13906,
          "time": 161.69767441860466,
          "velocity": 0.09448818897637795
        },
        {
          "duration": 0.04651162790699459,
          "durationTicks": 4,
          "midi": 62,
          "name": "D4",
          "ticks": 13913,
          "time": 161.77906976744185,
          "velocity": 0.11811023622047244
        },
        {
          "duration": 0.11627906976744384,
          "durationTicks": 10,
          "midi": 74,
          "name": "D5",
          "ticks": 13917,
          "time": 161.82558139534885,
          "velocity": 0.14173228346456693
        },
        {
          "duration": 0.12790697674418539,
          "durationTicks": 11,
          "midi": 86,
          "name": "D6",
          "ticks": 13917,
          "time": 161.82558139534885,
          "velocity": 0.14960629921259844
        },
        {
          "duration": 0.1046511627907023,
          "durationTicks": 9,
          "midi": 62,
          "name": "D4",
          "ticks": 13918,
          "time": 161.8372093023256,
          "velocity": 0.1732283464566929
        },
        {
          "duration": 0.04651162790699459,
          "durationTicks": 4,
          "midi": 50,
          "name": "D3",
          "ticks": 13926,
          "time": 161.93023255813952,
          "velocity": 0.15748031496062992
        },
        {
          "duration": 0.12790697674418539,
          "durationTicks": 11,
          "midi": 38,
          "name": "D2",
          "ticks": 13928,
          "time": 161.95348837209303,
          "velocity": 0.25984251968503935
        },
        {
          "duration": 0.06976744186044925,
          "durationTicks": 6,
          "midi": 61,
          "name": "C#4",
          "ticks": 13930,
          "time": 161.97674418604652,
          "velocity": 0.1968503937007874
        },
        {
          "duration": 0.33720930232559,
          "durationTicks": 29,
          "midi": 57,
          "name": "A3",
          "ticks": 13931,
          "time": 161.98837209302326,
          "velocity": 0.14960629921259844
        },
        {
          "duration": 0.30232558139533694,
          "durationTicks": 26,
          "midi": 62,
          "name": "D4",
          "ticks": 13939,
          "time": 162.08139534883722,
          "velocity": 0.25196850393700787
        },
        {
          "duration": 0.034883720930224626,
          "durationTicks": 3,
          "midi": 37,
          "name": "C#2",
          "ticks": 13962,
          "time": 162.34883720930233,
          "velocity": 0.2125984251968504
        },
        {
          "duration": 0.034883720930224626,
          "durationTicks": 3,
          "midi": 57,
          "name": "A3",
          "ticks": 13962,
          "time": 162.34883720930233,
          "velocity": 0.1732283464566929
        },
        {
          "duration": 0.1046511627907023,
          "durationTicks": 9,
          "midi": 38,
          "name": "D2",
          "ticks": 13965,
          "time": 162.38372093023256,
          "velocity": 0.2125984251968504
        },
        {
          "duration": 0.11627906976744384,
          "durationTicks": 10,
          "midi": 85,
          "name": "C#6",
          "ticks": 13965,
          "time": 162.38372093023256,
          "velocity": 0.11811023622047244
        },
        {
          "duration": 0.13953488372092693,
          "durationTicks": 12,
          "midi": 57,
          "name": "A3",
          "ticks": 13966,
          "time": 162.3953488372093,
          "velocity": 0.15748031496062992
        },
        {
          "duration": 0.1046511627907023,
          "durationTicks": 9,
          "midi": 73,
          "name": "C#5",
          "ticks": 13966,
          "time": 162.3953488372093,
          "velocity": 0.12598425196850394
        },
        {
          "duration": 0.04651162790699459,
          "durationTicks": 4,
          "midi": 61,
          "name": "C#4",
          "ticks": 13968,
          "time": 162.41860465116278,
          "velocity": 0.2283464566929134
        },
        {
          "duration": 0.034883720930224626,
          "durationTicks": 3,
          "midi": 61,
          "name": "C#4",
          "ticks": 13973,
          "time": 162.47674418604652,
          "velocity": 0.1889763779527559
        },
        {
          "duration": 0.13953488372092693,
          "durationTicks": 12,
          "midi": 74,
          "name": "D5",
          "ticks": 13976,
          "time": 162.51162790697674,
          "velocity": 0.2125984251968504
        },
        {
          "duration": 0.04651162790696617,
          "durationTicks": 4,
          "midi": 81,
          "name": "A5",
          "ticks": 13976,
          "time": 162.51162790697674,
          "velocity": 0.11023622047244094
        },
        {
          "duration": 0.04651162790699459,
          "durationTicks": 4,
          "midi": 56,
          "name": "G#3",
          "ticks": 13978,
          "time": 162.53488372093022,
          "velocity": 0.1732283464566929
        },
        {
          "duration": 0.034883720930224626,
          "durationTicks": 3,
          "midi": 62,
          "name": "D4",
          "ticks": 13982,
          "time": 162.58139534883722,
          "velocity": 0.14173228346456693
        },
        {
          "duration": 0.45348837209303383,
          "durationTicks": 39,
          "midi": 61,
          "name": "C#4",
          "ticks": 13985,
          "time": 162.61627906976744,
          "velocity": 0.1968503937007874
        },
        {
          "duration": 0.04651162790696617,
          "durationTicks": 4,
          "midi": 55,
          "name": "G3",
          "ticks": 13987,
          "time": 162.63953488372093,
          "velocity": 0.2047244094488189
        },
        {
          "duration": 0.2093023255814046,
          "durationTicks": 18,
          "midi": 73,
          "name": "C#5",
          "ticks": 13988,
          "time": 162.65116279069767,
          "velocity": 0.1968503937007874
        },
        {
          "duration": 0.1511627906976969,
          "durationTicks": 13,
          "midi": 37,
          "name": "C#2",
          "ticks": 13991,
          "time": 162.6860465116279,
          "velocity": 0.2283464566929134
        },
        {
          "duration": 0.27906976744185386,
          "durationTicks": 24,
          "midi": 56,
          "name": "G#3",
          "ticks": 13993,
          "time": 162.7093023255814,
          "velocity": 0.11811023622047244
        },
        {
          "duration": 0.2674418604651123,
          "durationTicks": 23,
          "midi": 75,
          "name": "D#5",
          "ticks": 14004,
          "time": 162.8372093023256,
          "velocity": 0.08661417322834646
        },
        {
          "duration": 0.034883720930224626,
          "durationTicks": 3,
          "midi": 68,
          "name": "G#4",
          "ticks": 14024,
          "time": 163.06976744186048,
          "velocity": 0.07086614173228346
        },
        {
          "duration": 0.16279069767441,
          "durationTicks": 14,
          "midi": 49,
          "name": "C#3",
          "ticks": 14026,
          "time": 163.09302325581396,
          "velocity": 0.2283464566929134
        },
        {
          "duration": 0.04651162790696617,
          "durationTicks": 4,
          "midi": 80,
          "name": "G#5",
          "ticks": 14027,
          "time": 163.1046511627907,
          "velocity": 0.14173228346456693
        },
        {
          "duration": 0.1860465116278931,
          "durationTicks": 16,
          "midi": 84,
          "name": "C6",
          "ticks": 14027,
          "time": 163.1046511627907,
          "velocity": 0.1889763779527559
        },
        {
          "duration": 0.25581395348837077,
          "durationTicks": 22,
          "midi": 56,
          "name": "G#3",
          "ticks": 14029,
          "time": 163.12790697674419,
          "velocity": 0.2755905511811024
        },
        {
          "duration": 0.09302325581396076,
          "durationTicks": 8,
          "midi": 37,
          "name": "C#2",
          "ticks": 14032,
          "time": 163.1627906976744,
          "velocity": 0.18110236220472442
        },
        {
          "duration": 0.1046511627907023,
          "durationTicks": 9,
          "midi": 61,
          "name": "C#4",
          "ticks": 14048,
          "time": 163.34883720930233,
          "velocity": 0.14960629921259844
        },
        {
          "duration": 0.034883720930224626,
          "durationTicks": 3,
          "midi": 37,
          "name": "C#2",
          "ticks": 14052,
          "time": 163.3953488372093,
          "velocity": 0.07086614173228346
        },
        {
          "duration": 0.05813953488373613,
          "durationTicks": 5,
          "midi": 80,
          "name": "G#5",
          "ticks": 14052,
          "time": 163.3953488372093,
          "velocity": 0.11023622047244094
        },
        {
          "duration": 0.04651162790696617,
          "durationTicks": 4,
          "midi": 56,
          "name": "G#3",
          "ticks": 14056,
          "time": 163.4418604651163,
          "velocity": 0.11811023622047244
        },
        {
          "duration": 0.19767441860463464,
          "durationTicks": 17,
          "midi": 68,
          "name": "G#4",
          "ticks": 14057,
          "time": 163.45348837209303,
          "velocity": 0.18110236220472442
        },
        {
          "duration": 0.034883720930224626,
          "durationTicks": 3,
          "midi": 55,
          "name": "G3",
          "ticks": 14060,
          "time": 163.48837209302326,
          "velocity": 0.2283464566929134
        },
        {
          "duration": 0.04651162790696617,
          "durationTicks": 4,
          "midi": 73,
          "name": "C#5",
          "ticks": 14060,
          "time": 163.48837209302326,
          "velocity": 0.09448818897637795
        },
        {
          "duration": 0.034883720930224626,
          "durationTicks": 3,
          "midi": 61,
          "name": "C#4",
          "ticks": 14062,
          "time": 163.51162790697674,
          "velocity": 0.07874015748031496
        },
        {
          "duration": 0.12790697674418539,
          "durationTicks": 11,
          "midi": 37,
          "name": "C#2",
          "ticks": 14063,
          "time": 163.52325581395348,
          "velocity": 0.1968503937007874
        },
        {
          "duration": 0.17441860465117998,
          "durationTicks": 15,
          "midi": 56,
          "name": "G#3",
          "ticks": 14063,
          "time": 163.52325581395348,
          "velocity": 0.2992125984251969
        },
        {
          "duration": 0.11627906976744384,
          "durationTicks": 10,
          "midi": 84,
          "name": "C6",
          "ticks": 14063,
          "time": 163.52325581395348,
          "velocity": 0.15748031496062992
        },
        {
          "duration": 0.08139534883721922,
          "durationTicks": 7,
          "midi": 71,
          "name": "B4",
          "ticks": 14076,
          "time": 163.67441860465115,
          "velocity": 0.11811023622047244
        },
        {
          "duration": 0.06976744186047767,
          "durationTicks": 6,
          "midi": 87,
          "name": "D#6",
          "ticks": 14076,
          "time": 163.67441860465115,
          "velocity": 0.07086614173228346
        },
        {
          "duration": 0.05813953488370771,
          "durationTicks": 5,
          "midi": 59,
          "name": "B3",
          "ticks": 14079,
          "time": 163.7093023255814,
          "velocity": 0.15748031496062992
        },
        {
          "duration": 0.04651162790699459,
          "durationTicks": 4,
          "midi": 69,
          "name": "A4",
          "ticks": 14086,
          "time": 163.7906976744186,
          "velocity": 0.10236220472440945
        },
        {
          "duration": 0.19767441860463464,
          "durationTicks": 17,
          "midi": 50,
          "name": "D3",
          "ticks": 14088,
          "time": 163.8139534883721,
          "velocity": 0.16535433070866143
        },
        {
          "duration": 0.3488372093023031,
          "durationTicks": 30,
          "midi": 62,
          "name": "D4",
          "ticks": 14088,
          "time": 163.8139534883721,
          "velocity": 0.23622047244094488
        },
        {
          "duration": 0.0813953488371908,
          "durationTicks": 7,
          "midi": 66,
          "name": "F#4",
          "ticks": 14088,
          "time": 163.8139534883721,
          "velocity": 0.1968503937007874
        },
        {
          "duration": 0.034883720930224626,
          "durationTicks": 3,
          "midi": 56,
          "name": "G#3",
          "ticks": 14089,
          "time": 163.82558139534885,
          "velocity": 0.25196850393700787
        },
        {
          "duration": 0.40697674418603924,
          "durationTicks": 35,
          "midi": 57,
          "name": "A3",
          "ticks": 14092,
          "time": 163.86046511627907,
          "velocity": 0.2125984251968504
        },
        {
          "duration": 0.12790697674418539,
          "durationTicks": 11,
          "midi": 38,
          "name": "D2",
          "ticks": 14094,
          "time": 163.88372093023256,
          "velocity": 0.1889763779527559
        },
        {
          "duration": 0.13953488372092693,
          "durationTicks": 12,
          "midi": 76,
          "name": "E5",
          "ticks": 14100,
          "time": 163.95348837209303,
          "velocity": 0.1732283464566929
        },
        {
          "duration": 0.04651162790696617,
          "durationTicks": 4,
          "midi": 62,
          "name": "D4",
          "ticks": 14122,
          "time": 164.2093023255814,
          "velocity": 0.11811023622047244
        },
        {
          "duration": 0.13953488372092693,
          "durationTicks": 12,
          "midi": 50,
          "name": "D3",
          "ticks": 14124,
          "time": 164.2325581395349,
          "velocity": 0.08661417322834646
        },
        {
          "duration": 0.034883720930224626,
          "durationTicks": 3,
          "midi": 61,
          "name": "C#4",
          "ticks": 14126,
          "time": 164.25581395348837,
          "velocity": 0.13385826771653545
        },
        {
          "duration": 0.05813953488373613,
          "durationTicks": 5,
          "midi": 73,
          "name": "C#5",
          "ticks": 14127,
          "time": 164.2674418604651,
          "velocity": 0.14960629921259844
        },
        {
          "duration": 0.25581395348837077,
          "durationTicks": 22,
          "midi": 69,
          "name": "A4",
          "ticks": 14128,
          "time": 164.27906976744185,
          "velocity": 0.14960629921259844
        },
        {
          "duration": 0.12790697674418539,
          "durationTicks": 11,
          "midi": 38,
          "name": "D2",
          "ticks": 14129,
          "time": 164.2906976744186,
          "velocity": 0.1732283464566929
        },
        {
          "duration": 0.06976744186047767,
          "durationTicks": 6,
          "midi": 57,
          "name": "A3",
          "ticks": 14129,
          "time": 164.2906976744186,
          "velocity": 0.13385826771653545
        },
        {
          "duration": 0.1860465116278931,
          "durationTicks": 16,
          "midi": 62,
          "name": "D4",
          "ticks": 14132,
          "time": 164.32558139534885,
          "velocity": 0.23622047244094488
        },
        {
          "duration": 0.03488372093025305,
          "durationTicks": 3,
          "midi": 62,
          "name": "D4",
          "ticks": 14152,
          "time": 164.5581395348837,
          "velocity": 0.18110236220472442
        },
        {
          "duration": 0.13953488372092693,
          "durationTicks": 12,
          "midi": 76,
          "name": "E5",
          "ticks": 14153,
          "time": 164.56976744186048,
          "velocity": 0.1889763779527559
        },
        {
          "duration": 0.11627906976744384,
          "durationTicks": 10,
          "midi": 64,
          "name": "E4",
          "ticks": 14154,
          "time": 164.58139534883722,
          "velocity": 0.2047244094488189
        },
        {
          "duration": 0.1046511627907023,
          "durationTicks": 9,
          "midi": 38,
          "name": "D2",
          "ticks": 14155,
          "time": 164.59302325581396,
          "velocity": 0.12598425196850394
        },
        {
          "duration": 0.1046511627907023,
          "durationTicks": 9,
          "midi": 38,
          "name": "D2",
          "ticks": 14165,
          "time": 164.7093023255814,
          "velocity": 0.14960629921259844
        },
        {
          "duration": 0.034883720930224626,
          "durationTicks": 3,
          "midi": 56,
          "name": "G#3",
          "ticks": 14166,
          "time": 164.72093023255815,
          "velocity": 0.18110236220472442
        },
        {
          "duration": 0.09302325581396076,
          "durationTicks": 8,
          "midi": 80,
          "name": "G#5",
          "ticks": 14167,
          "time": 164.7325581395349,
          "velocity": 0.14960629921259844
        },
        {
          "duration": 0.034883720930224626,
          "durationTicks": 3,
          "midi": 57,
          "name": "A3",
          "ticks": 14169,
          "time": 164.75581395348837,
          "velocity": 0.16535433070866143
        },
        {
          "duration": 0.03488372093025305,
          "durationTicks": 3,
          "midi": 56,
          "name": "G#3",
          "ticks": 14172,
          "time": 164.7906976744186,
          "velocity": 0.11811023622047244
        },
        {
          "duration": 0.08139534883721922,
          "durationTicks": 7,
          "midi": 66,
          "name": "F#4",
          "ticks": 14179,
          "time": 164.87209302325581,
          "velocity": 0.2125984251968504
        },
        {
          "duration": 0.034883720930224626,
          "durationTicks": 3,
          "midi": 65,
          "name": "F4",
          "ticks": 14186,
          "time": 164.95348837209303,
          "velocity": 0.11811023622047244
        },
        {
          "duration": 0.24418604651162923,
          "durationTicks": 21,
          "midi": 76,
          "name": "E5",
          "ticks": 14188,
          "time": 164.97674418604652,
          "velocity": 0.23622047244094488
        },
        {
          "duration": 0.22093023255814614,
          "durationTicks": 19,
          "midi": 64,
          "name": "E4",
          "ticks": 14189,
          "time": 164.98837209302326,
          "velocity": 0.1968503937007874
        },
        {
          "duration": 0.2093023255814046,
          "durationTicks": 18,
          "midi": 83,
          "name": "B5",
          "ticks": 14190,
          "time": 165,
          "velocity": 0.11023622047244094
        },
        {
          "duration": 0.13953488372092693,
          "durationTicks": 12,
          "midi": 92,
          "name": "G#6",
          "ticks": 14190,
          "time": 165,
          "velocity": 0.09448818897637795
        },
        {
          "duration": 0.08139534883721922,
          "durationTicks": 7,
          "midi": 36,
          "name": "C2",
          "ticks": 14193,
          "time": 165.03488372093022,
          "velocity": 0.1889763779527559
        },
        {
          "duration": 0.1046511627907023,
          "durationTicks": 9,
          "midi": 36,
          "name": "C2",
          "ticks": 14201,
          "time": 165.12790697674419,
          "velocity": 0.18110236220472442
        },
        {
          "duration": 0.24418604651162923,
          "durationTicks": 21,
          "midi": 66,
          "name": "F#4",
          "ticks": 14213,
          "time": 165.2674418604651,
          "velocity": 0.2440944881889764
        },
        {
          "duration": 0.04651162790699459,
          "durationTicks": 4,
          "midi": 39,
          "name": "D#2",
          "ticks": 14224,
          "time": 165.3953488372093,
          "velocity": 0.16535433070866143
        },
        {
          "duration": 0.10465116279067388,
          "durationTicks": 9,
          "midi": 51,
          "name": "D#3",
          "ticks": 14228,
          "time": 165.4418604651163,
          "velocity": 0.16535433070866143
        },
        {
          "duration": 0.034883720930224626,
          "durationTicks": 3,
          "midi": 39,
          "name": "D#2",
          "ticks": 14232,
          "time": 165.48837209302326,
          "velocity": 0.14960629921259844
        },
        {
          "duration": 0.24418604651162923,
          "durationTicks": 21,
          "midi": 68,
          "name": "G#4",
          "ticks": 14239,
          "time": 165.56976744186048,
          "velocity": 0.2440944881889764
        },
        {
          "duration": 0.38372093023255616,
          "durationTicks": 33,
          "midi": 80,
          "name": "G#5",
          "ticks": 14239,
          "time": 165.56976744186048,
          "velocity": 0.25984251968503935
        },
        {
          "duration": 0.023255813953483084,
          "durationTicks": 2,
          "midi": 39,
          "name": "D#2",
          "ticks": 14240,
          "time": 165.58139534883722,
          "velocity": 0.2677165354330709
        },
        {
          "duration": 0.3604651162790731,
          "durationTicks": 31,
          "midi": 40,
          "name": "E2",
          "ticks": 14242,
          "time": 165.6046511627907,
          "velocity": 0.33858267716535434
        },
        {
          "duration": 0.13953488372092693,
          "durationTicks": 12,
          "midi": 68,
          "name": "G#4",
          "ticks": 14261,
          "time": 165.82558139534885,
          "velocity": 0.28346456692913385
        },
        {
          "duration": 0.034883720930224626,
          "durationTicks": 3,
          "midi": 54,
          "name": "F#3",
          "ticks": 14266,
          "time": 165.88372093023256,
          "velocity": 0.1732283464566929
        },
        {
          "duration": 0.03488372093025305,
          "durationTicks": 3,
          "midi": 54,
          "name": "F#3",
          "ticks": 14270,
          "time": 165.93023255813952,
          "velocity": 0.13385826771653545
        },
        {
          "duration": 0.13953488372092693,
          "durationTicks": 12,
          "midi": 40,
          "name": "E2",
          "ticks": 14274,
          "time": 165.97674418604652,
          "velocity": 0.30708661417322836
        },
        {
          "duration": 0.15116279069766847,
          "durationTicks": 13,
          "midi": 82,
          "name": "A#5",
          "ticks": 14275,
          "time": 165.98837209302326,
          "velocity": 0.2992125984251969
        },
        {
          "duration": 0.1046511627907023,
          "durationTicks": 9,
          "midi": 70,
          "name": "A#4",
          "ticks": 14276,
          "time": 166,
          "velocity": 0.13385826771653545
        },
        {
          "duration": 0.023255813953483084,
          "durationTicks": 2,
          "midi": 39,
          "name": "D#2",
          "ticks": 14286,
          "time": 166.11627906976744,
          "velocity": 0.2992125984251969
        },
        {
          "duration": 0.023255813953483084,
          "durationTicks": 2,
          "midi": 40,
          "name": "E2",
          "ticks": 14288,
          "time": 166.13953488372093,
          "velocity": 0.2992125984251969
        },
        {
          "duration": 0.09302325581396076,
          "durationTicks": 8,
          "midi": 71,
          "name": "B4",
          "ticks": 14288,
          "time": 166.13953488372093,
          "velocity": 0.1732283464566929
        },
        {
          "duration": 0.09302325581396076,
          "durationTicks": 8,
          "midi": 83,
          "name": "B5",
          "ticks": 14288,
          "time": 166.13953488372093,
          "velocity": 0.25196850393700787
        },
        {
          "duration": 0.06976744186047767,
          "durationTicks": 6,
          "midi": 82,
          "name": "A#5",
          "ticks": 14289,
          "time": 166.15116279069767,
          "velocity": 0.09448818897637795
        },
        {
          "duration": 0.09302325581396076,
          "durationTicks": 8,
          "midi": 54,
          "name": "F#3",
          "ticks": 14290,
          "time": 166.1627906976744,
          "velocity": 0.30708661417322836
        },
        {
          "duration": 0.034883720930224626,
          "durationTicks": 3,
          "midi": 46,
          "name": "A#2",
          "ticks": 14293,
          "time": 166.19767441860466,
          "velocity": 0.1968503937007874
        },
        {
          "duration": 0.034883720930224626,
          "durationTicks": 3,
          "midi": 45,
          "name": "A2",
          "ticks": 14299,
          "time": 166.2674418604651,
          "velocity": 0.2440944881889764
        },
        {
          "duration": 0.19767441860466306,
          "durationTicks": 17,
          "midi": 82,
          "name": "A#5",
          "ticks": 14299,
          "time": 166.2674418604651,
          "velocity": 0.25196850393700787
        },
        {
          "duration": 0.09302325581396076,
          "durationTicks": 8,
          "midi": 70,
          "name": "A#4",
          "ticks": 14300,
          "time": 166.27906976744185,
          "velocity": 0.14173228346456693
        },
        {
          "duration": 0.24418604651162923,
          "durationTicks": 21,
          "midi": 54,
          "name": "F#3",
          "ticks": 14302,
          "time": 166.30232558139534,
          "velocity": 0.1732283464566929
        },
        {
          "duration": 0.023255813953483084,
          "durationTicks": 2,
          "midi": 45,
          "name": "A2",
          "ticks": 14304,
          "time": 166.32558139534885,
          "velocity": 0.25196850393700787
        },
        {
          "duration": 0.1046511627907023,
          "durationTicks": 9,
          "midi": 68,
          "name": "G#4",
          "ticks": 14313,
          "time": 166.43023255813952,
          "velocity": 0.1968503937007874
        },
        {
          "duration": 0.10465116279067388,
          "durationTicks": 9,
          "midi": 42,
          "name": "F#2",
          "ticks": 14314,
          "time": 166.4418604651163,
          "velocity": 0.08661417322834646
        },
        {
          "duration": 0.10465116279067388,
          "durationTicks": 9,
          "midi": 66,
          "name": "F#4",
          "ticks": 14325,
          "time": 166.56976744186048,
          "velocity": 0.2047244094488189
        },
        {
          "duration": 0.034883720930224626,
          "durationTicks": 3,
          "midi": 45,
          "name": "A2",
          "ticks": 14328,
          "time": 166.6046511627907,
          "velocity": 0.25984251968503935
        },
        {
          "duration": 0.034883720930224626,
          "durationTicks": 3,
          "midi": 54,
          "name": "F#3",
          "ticks": 14328,
          "time": 166.6046511627907,
          "velocity": 0.18110236220472442
        },
        {
          "duration": 0.034883720930224626,
          "durationTicks": 3,
          "midi": 53,
          "name": "F3",
          "ticks": 14331,
          "time": 166.63953488372093,
          "velocity": 0.18110236220472442
        },
        {
          "duration": 0.034883720930224626,
          "durationTicks": 3,
          "midi": 45,
          "name": "A2",
          "ticks": 14332,
          "time": 166.65116279069767,
          "velocity": 0.25196850393700787
        },
        {
          "duration": 0.0813953488371908,
          "durationTicks": 7,
          "midi": 68,
          "name": "G#4",
          "ticks": 14337,
          "time": 166.7093023255814,
          "velocity": 0.2283464566929134
        },
        {
          "duration": 0.11627906976744384,
          "durationTicks": 10,
          "midi": 54,
          "name": "F#3",
          "ticks": 14338,
          "time": 166.72093023255815,
          "velocity": 0.07874015748031496
        },
        {
          "duration": 0.06976744186044925,
          "durationTicks": 6,
          "midi": 66,
          "name": "F#4",
          "ticks": 14349,
          "time": 166.84883720930233,
          "velocity": 0.2125984251968504
        },
        {
          "duration": 0.0813953488371908,
          "durationTicks": 7,
          "midi": 78,
          "name": "F#5",
          "ticks": 14349,
          "time": 166.84883720930233,
          "velocity": 0.2125984251968504
        },
        {
          "duration": 0.03488372093025305,
          "durationTicks": 3,
          "midi": 68,
          "name": "G#4",
          "ticks": 14356,
          "time": 166.93023255813952,
          "velocity": 0.14173228346456693
        },
        {
          "duration": 0.023255813953483084,
          "durationTicks": 2,
          "midi": 45,
          "name": "A2",
          "ticks": 14360,
          "time": 166.97674418604652,
          "velocity": 0.2755905511811024
        },
        {
          "duration": 0.15116279069766847,
          "durationTicks": 13,
          "midi": 68,
          "name": "G#4",
          "ticks": 14361,
          "time": 166.98837209302326,
          "velocity": 0.2204724409448819
        },
        {
          "duration": 0.08139534883721922,
          "durationTicks": 7,
          "midi": 45,
          "name": "A2",
          "ticks": 14363,
          "time": 167.01162790697674,
          "velocity": 0.25196850393700787
        },
        {
          "duration": 0.034883720930224626,
          "durationTicks": 3,
          "midi": 54,
          "name": "F#3",
          "ticks": 14364,
          "time": 167.02325581395348,
          "velocity": 0.11811023622047244
        },
        {
          "duration": 0.13953488372092693,
          "durationTicks": 12,
          "midi": 82,
          "name": "A#5",
          "ticks": 14373,
          "time": 167.12790697674419,
          "velocity": 0.2440944881889764
        },
        {
          "duration": 0.034883720930224626,
          "durationTicks": 3,
          "midi": 37,
          "name": "C#2",
          "ticks": 14374,
          "time": 167.13953488372093,
          "velocity": 0.13385826771653545
        },
        {
          "duration": 0.12790697674418539,
          "durationTicks": 11,
          "midi": 54,
          "name": "F#3",
          "ticks": 14374,
          "time": 167.13953488372093,
          "velocity": 0.09448818897637795
        },
        {
          "duration": 0.06976744186047767,
          "durationTicks": 6,
          "midi": 70,
          "name": "A#4",
          "ticks": 14374,
          "time": 167.13953488372093,
          "velocity": 0.09448818897637795
        },
        {
          "duration": 0.13953488372092693,
          "durationTicks": 12,
          "midi": 44,
          "name": "G#2",
          "ticks": 14385,
          "time": 167.2674418604651,
          "velocity": 0.1732283464566929
        },
        {
          "duration": 0.2674418604651123,
          "durationTicks": 23,
          "midi": 68,
          "name": "G#4",
          "ticks": 14385,
          "time": 167.2674418604651,
          "velocity": 0.23622047244094488
        },
        {
          "duration": 0.2325581395348877,
          "durationTicks": 20,
          "midi": 61,
          "name": "C#4",
          "ticks": 14419,
          "time": 167.6627906976744,
          "velocity": 0.2125984251968504
        },
        {
          "duration": 0.04651162790699459,
          "durationTicks": 4,
          "midi": 44,
          "name": "G#2",
          "ticks": 14421,
          "time": 167.6860465116279,
          "velocity": 0.16535433070866143
        },
        {
          "duration": 0.13953488372092693,
          "durationTicks": 12,
          "midi": 56,
          "name": "G#3",
          "ticks": 14425,
          "time": 167.7325581395349,
          "velocity": 0.18110236220472442
        },
        {
          "duration": 0.06976744186047767,
          "durationTicks": 6,
          "midi": 44,
          "name": "G#2",
          "ticks": 14426,
          "time": 167.74418604651163,
          "velocity": 0.13385826771653545
        },
        {
          "duration": 0.13953488372092693,
          "durationTicks": 12,
          "midi": 61,
          "name": "C#4",
          "ticks": 14454,
          "time": 168.06976744186048,
          "velocity": 0.2047244094488189
        },
        {
          "duration": 0.05813953488373613,
          "durationTicks": 5,
          "midi": 44,
          "name": "G#2",
          "ticks": 14460,
          "time": 168.13953488372093,
          "velocity": 0.13385826771653545
        },
        {
          "duration": 0.04651162790696617,
          "durationTicks": 4,
          "midi": 44,
          "name": "G#2",
          "ticks": 14466,
          "time": 168.2093023255814,
          "velocity": 0.07874015748031496
        },
        {
          "duration": 0.09302325581396076,
          "durationTicks": 8,
          "midi": 63,
          "name": "D#4",
          "ticks": 14467,
          "time": 168.22093023255815,
          "velocity": 0.18110236220472442
        },
        {
          "duration": 0.09302325581396076,
          "durationTicks": 8,
          "midi": 75,
          "name": "D#5",
          "ticks": 14467,
          "time": 168.22093023255815,
          "velocity": 0.2204724409448819
        },
        {
          "duration": 0.09302325581396076,
          "durationTicks": 8,
          "midi": 82,
          "name": "A#5",
          "ticks": 14467,
          "time": 168.22093023255815,
          "velocity": 0.14173228346456693
        },
        {
          "duration": 0.38372093023255616,
          "durationTicks": 33,
          "midi": 64,
          "name": "E4",
          "ticks": 14478,
          "time": 168.34883720930233,
          "velocity": 0.23622047244094488
        },
        {
          "duration": 0.38372093023255616,
          "durationTicks": 33,
          "midi": 83,
          "name": "B5",
          "ticks": 14478,
          "time": 168.34883720930233,
          "velocity": 0.13385826771653545
        },
        {
          "duration": 0.32558139534882,
          "durationTicks": 28,
          "midi": 92,
          "name": "G#6",
          "ticks": 14479,
          "time": 168.36046511627907,
          "velocity": 0.09448818897637795
        },
        {
          "duration": 0.034883720930224626,
          "durationTicks": 3,
          "midi": 55,
          "name": "G3",
          "ticks": 14481,
          "time": 168.38372093023256,
          "velocity": 0.12598425196850394
        },
        {
          "duration": 0.19767441860466306,
          "durationTicks": 17,
          "midi": 37,
          "name": "C#2",
          "ticks": 14484,
          "time": 168.41860465116278,
          "velocity": 0.2125984251968504
        },
        {
          "duration": 0.24418604651162923,
          "durationTicks": 21,
          "midi": 68,
          "name": "G#4",
          "ticks": 14502,
          "time": 168.62790697674419,
          "velocity": 0.10236220472440945
        },
        {
          "duration": 0.06976744186047767,
          "durationTicks": 6,
          "midi": 76,
          "name": "E5",
          "ticks": 14514,
          "time": 168.7674418604651,
          "velocity": 0.1968503937007874
        },
        {
          "duration": 0.06976744186047767,
          "durationTicks": 6,
          "midi": 64,
          "name": "E4",
          "ticks": 14515,
          "time": 168.77906976744185,
          "velocity": 0.18110236220472442
        },
        {
          "duration": 0.04651162790699459,
          "durationTicks": 4,
          "midi": 83,
          "name": "B5",
          "ticks": 14516,
          "time": 168.7906976744186,
          "velocity": 0.07874015748031496
        },
        {
          "duration": 0.16279069767441,
          "durationTicks": 14,
          "midi": 49,
          "name": "C#3",
          "ticks": 14518,
          "time": 168.8139534883721,
          "velocity": 0.18110236220472442
        },
        {
          "duration": 0.04651162790696617,
          "durationTicks": 4,
          "midi": 77,
          "name": "F5",
          "ticks": 14520,
          "time": 168.8372093023256,
          "velocity": 0.1732283464566929
        },
        {
          "duration": 0.2674418604651123,
          "durationTicks": 23,
          "midi": 56,
          "name": "G#3",
          "ticks": 14521,
          "time": 168.84883720930233,
          "velocity": 0.16535433070866143
        },
        {
          "duration": 0.6395348837209269,
          "durationTicks": 55,
          "midi": 61,
          "name": "C#4",
          "ticks": 14521,
          "time": 168.84883720930233,
          "velocity": 0.18110236220472442
        },
        {
          "duration": 0.034883720930224626,
          "durationTicks": 3,
          "midi": 65,
          "name": "F4",
          "ticks": 14521,
          "time": 168.84883720930233,
          "velocity": 0.2125984251968504
        },
        {
          "duration": 0.11627906976744384,
          "durationTicks": 10,
          "midi": 37,
          "name": "C#2",
          "ticks": 14522,
          "time": 168.86046511627907,
          "velocity": 0.18110236220472442
        },
        {
          "duration": 0.2906976744185954,
          "durationTicks": 25,
          "midi": 66,
          "name": "F#4",
          "ticks": 14524,
          "time": 168.88372093023256,
          "velocity": 0.23622047244094488
        },
        {
          "duration": 0.06976744186047767,
          "durationTicks": 6,
          "midi": 85,
          "name": "C#6",
          "ticks": 14524,
          "time": 168.88372093023256,
          "velocity": 0.10236220472440945
        },
        {
          "duration": 0.17441860465117998,
          "durationTicks": 15,
          "midi": 68,
          "name": "G#4",
          "ticks": 14548,
          "time": 169.1627906976744,
          "velocity": 0.1732283464566929
        },
        {
          "duration": 0.03488372093025305,
          "durationTicks": 3,
          "midi": 65,
          "name": "F4",
          "ticks": 14549,
          "time": 169.17441860465115,
          "velocity": 0.1968503937007874
        },
        {
          "duration": 0.09302325581393234,
          "durationTicks": 8,
          "midi": 75,
          "name": "D#5",
          "ticks": 14552,
          "time": 169.2093023255814,
          "velocity": 0.08661417322834646
        },
        {
          "duration": 0.034883720930224626,
          "durationTicks": 3,
          "midi": 56,
          "name": "G#3",
          "ticks": 14554,
          "time": 169.2325581395349,
          "velocity": 0.12598425196850394
        },
        {
          "duration": 0.1046511627907023,
          "durationTicks": 9,
          "midi": 80,
          "name": "G#5",
          "ticks": 14554,
          "time": 169.2325581395349,
          "velocity": 0.2440944881889764
        },
        {
          "duration": 0.16279069767441,
          "durationTicks": 14,
          "midi": 49,
          "name": "C#3",
          "ticks": 14555,
          "time": 169.24418604651163,
          "velocity": 0.14960629921259844
        },
        {
          "duration": 0.04651162790696617,
          "durationTicks": 4,
          "midi": 37,
          "name": "C#2",
          "ticks": 14556,
          "time": 169.25581395348837,
          "velocity": 0.16535433070866143
        },
        {
          "duration": 0.12790697674418539,
          "durationTicks": 11,
          "midi": 37,
          "name": "C#2",
          "ticks": 14561,
          "time": 169.3139534883721,
          "velocity": 0.15748031496062992
        },
        {
          "duration": 0.034883720930224626,
          "durationTicks": 3,
          "midi": 56,
          "name": "G#3",
          "ticks": 14562,
          "time": 169.32558139534885,
          "velocity": 0.07874015748031496
        },
        {
          "duration": 0.15116279069766847,
          "durationTicks": 13,
          "midi": 81,
          "name": "A5",
          "ticks": 14562,
          "time": 169.32558139534885,
          "velocity": 0.1889763779527559
        },
        {
          "duration": 0.1046511627907023,
          "durationTicks": 9,
          "midi": 69,
          "name": "A4",
          "ticks": 14566,
          "time": 169.37209302325581,
          "velocity": 0.1968503937007874
        },
        {
          "duration": 0.11627906976744384,
          "durationTicks": 10,
          "midi": 54,
          "name": "F#3",
          "ticks": 14568,
          "time": 169.3953488372093,
          "velocity": 0.13385826771653545
        },
        {
          "duration": 0.12790697674418539,
          "durationTicks": 11,
          "midi": 80,
          "name": "G#5",
          "ticks": 14578,
          "time": 169.51162790697674,
          "velocity": 0.25196850393700787
        },
        {
          "duration": 0.18604651162792152,
          "durationTicks": 16,
          "midi": 68,
          "name": "G#4",
          "ticks": 14579,
          "time": 169.52325581395348,
          "velocity": 0.15748031496062992
        },
        {
          "duration": 0.08139534883721922,
          "durationTicks": 7,
          "midi": 44,
          "name": "G#2",
          "ticks": 14581,
          "time": 169.54651162790697,
          "velocity": 0.2204724409448819
        },
        {
          "duration": 0.04651162790696617,
          "durationTicks": 4,
          "midi": 43,
          "name": "G2",
          "ticks": 14588,
          "time": 169.62790697674419,
          "velocity": 0.11023622047244094
        },
        {
          "duration": 0.4767441860465169,
          "durationTicks": 41,
          "midi": 63,
          "name": "D#4",
          "ticks": 14603,
          "time": 169.80232558139534,
          "velocity": 0.2047244094488189
        },
        {
          "duration": 0.11627906976741542,
          "durationTicks": 10,
          "midi": 82,
          "name": "A#5",
          "ticks": 14604,
          "time": 169.8139534883721,
          "velocity": 0.16535433070866143
        },
        {
          "duration": 0.22093023255814614,
          "durationTicks": 19,
          "midi": 56,
          "name": "G#3",
          "ticks": 14607,
          "time": 169.84883720930233,
          "velocity": 0.18110236220472442
        },
        {
          "duration": 0.04651162790699459,
          "durationTicks": 4,
          "midi": 44,
          "name": "G#2",
          "ticks": 14612,
          "time": 169.90697674418604,
          "velocity": 0.07086614173228346
        },
        {
          "duration": 0.19767441860463464,
          "durationTicks": 17,
          "midi": 68,
          "name": "G#4",
          "ticks": 14627,
          "time": 170.08139534883722,
          "velocity": 0.14173228346456693
        },
        {
          "duration": 0.3139534883720785,
          "durationTicks": 27,
          "midi": 80,
          "name": "G#5",
          "ticks": 14627,
          "time": 170.08139534883722,
          "velocity": 0.15748031496062992
        },
        {
          "duration": 0.2674418604651123,
          "durationTicks": 23,
          "midi": 84,
          "name": "C6",
          "ticks": 14627,
          "time": 170.08139534883722,
          "velocity": 0.11023622047244094
        },
        {
          "duration": 0.034883720930224626,
          "durationTicks": 3,
          "midi": 44,
          "name": "G#2",
          "ticks": 14628,
          "time": 170.09302325581396,
          "velocity": 0.2047244094488189
        },
        {
          "duration": 0.1046511627907023,
          "durationTicks": 9,
          "midi": 44,
          "name": "G#2",
          "ticks": 14632,
          "time": 170.13953488372093,
          "velocity": 0.1889763779527559
        },
        {
          "duration": 0.06976744186047767,
          "durationTicks": 6,
          "midi": 51,
          "name": "D#3",
          "ticks": 14635,
          "time": 170.17441860465115,
          "velocity": 0.11023622047244094
        },
        {
          "duration": 0.3139534883720785,
          "durationTicks": 27,
          "midi": 56,
          "name": "G#3",
          "ticks": 14639,
          "time": 170.22093023255815,
          "velocity": 0.2204724409448819
        },
        {
          "duration": 0.04651162790696617,
          "durationTicks": 4,
          "midi": 44,
          "name": "G#2",
          "ticks": 14662,
          "time": 170.48837209302326,
          "velocity": 0.11811023622047244
        },
        {
          "duration": 0.09302325581396076,
          "durationTicks": 8,
          "midi": 50,
          "name": "D3",
          "ticks": 14676,
          "time": 170.65116279069767,
          "velocity": 0.16535433070866143
        },
        {
          "duration": 0.16279069767443843,
          "durationTicks": 14,
          "midi": 66,
          "name": "F#4",
          "ticks": 14676,
          "time": 170.65116279069767,
          "velocity": 0.23622047244094488
        },
        {
          "duration": 0.15116279069766847,
          "durationTicks": 13,
          "midi": 78,
          "name": "F#5",
          "ticks": 14676,
          "time": 170.65116279069767,
          "velocity": 0.2440944881889764
        },
        {
          "duration": 0.023255813953511506,
          "durationTicks": 2,
          "midi": 38,
          "name": "D2",
          "ticks": 14679,
          "time": 170.6860465116279,
          "velocity": 0.23622047244094488
        },
        {
          "duration": 0.05813953488373613,
          "durationTicks": 5,
          "midi": 56,
          "name": "G#3",
          "ticks": 14679,
          "time": 170.6860465116279,
          "velocity": 0.14960629921259844
        },
        {
          "duration": 0.034883720930224626,
          "durationTicks": 3,
          "midi": 38,
          "name": "D2",
          "ticks": 14682,
          "time": 170.72093023255815,
          "velocity": 0.23622047244094488
        },
        {
          "duration": 0.1046511627907023,
          "durationTicks": 9,
          "midi": 69,
          "name": "A4",
          "ticks": 14682,
          "time": 170.72093023255815,
          "velocity": 0.11023622047244094
        },
        {
          "duration": 0.06976744186044925,
          "durationTicks": 6,
          "midi": 94,
          "name": "A#6",
          "ticks": 14683,
          "time": 170.7325581395349,
          "velocity": 0.07874015748031496
        },
        {
          "duration": 0.09302325581396076,
          "durationTicks": 8,
          "midi": 62,
          "name": "D4",
          "ticks": 14684,
          "time": 170.74418604651163,
          "velocity": 0.1889763779527559
        },
        {
          "duration": 0.11627906976744384,
          "durationTicks": 10,
          "midi": 50,
          "name": "D3",
          "ticks": 14685,
          "time": 170.75581395348837,
          "velocity": 0.16535433070866143
        },
        {
          "duration": 0.3604651162790731,
          "durationTicks": 31,
          "midi": 57,
          "name": "A3",
          "ticks": 14685,
          "time": 170.75581395348837,
          "velocity": 0.2047244094488189
        },
        {
          "duration": 0.023255813953483084,
          "durationTicks": 2,
          "midi": 38,
          "name": "D2",
          "ticks": 14686,
          "time": 170.7674418604651,
          "velocity": 0.2283464566929134
        },
        {
          "duration": 0.04651162790699459,
          "durationTicks": 4,
          "midi": 38,
          "name": "D2",
          "ticks": 14689,
          "time": 170.80232558139534,
          "velocity": 0.2440944881889764
        },
        {
          "duration": 0.10465116279067388,
          "durationTicks": 9,
          "midi": 76,
          "name": "E5",
          "ticks": 14691,
          "time": 170.82558139534885,
          "velocity": 0.11023622047244094
        },
        {
          "duration": 0.0813953488371908,
          "durationTicks": 7,
          "midi": 64,
          "name": "E4",
          "ticks": 14692,
          "time": 170.8372093023256,
          "velocity": 0.2125984251968504
        },
        {
          "duration": 0.034883720930224626,
          "durationTicks": 3,
          "midi": 39,
          "name": "D#2",
          "ticks": 14693,
          "time": 170.84883720930233,
          "velocity": 0.1968503937007874
        },
        {
          "duration": 0.19767441860466306,
          "durationTicks": 17,
          "midi": 62,
          "name": "D4",
          "ticks": 14699,
          "time": 170.91860465116278,
          "velocity": 0.2755905511811024
        },
        {
          "duration": 0.12790697674418539,
          "durationTicks": 11,
          "midi": 38,
          "name": "D2",
          "ticks": 14715,
          "time": 171.1046511627907,
          "velocity": 0.1968503937007874
        },
        {
          "duration": 0.1046511627907023,
          "durationTicks": 9,
          "midi": 73,
          "name": "C#5",
          "ticks": 14716,
          "time": 171.11627906976744,
          "velocity": 0.1968503937007874
        },
        {
          "duration": 0.2906976744186238,
          "durationTicks": 25,
          "midi": 57,
          "name": "A3",
          "ticks": 14720,
          "time": 171.1627906976744,
          "velocity": 0.2204724409448819
        },
        {
          "duration": 0.04651162790699459,
          "durationTicks": 4,
          "midi": 61,
          "name": "C#4",
          "ticks": 14720,
          "time": 171.1627906976744,
          "velocity": 0.25196850393700787
        },
        {
          "duration": 0.04651162790696617,
          "durationTicks": 4,
          "midi": 62,
          "name": "D4",
          "ticks": 14724,
          "time": 171.2093023255814,
          "velocity": 0.16535433070866143
        },
        {
          "duration": 0.2325581395348877,
          "durationTicks": 20,
          "midi": 74,
          "name": "D5",
          "ticks": 14725,
          "time": 171.22093023255815,
          "velocity": 0.1732283464566929
        },
        {
          "duration": 0.13953488372092693,
          "durationTicks": 12,
          "midi": 86,
          "name": "D6",
          "ticks": 14728,
          "time": 171.25581395348837,
          "velocity": 0.1732283464566929
        },
        {
          "duration": 0.04651162790696617,
          "durationTicks": 4,
          "midi": 62,
          "name": "D4",
          "ticks": 14736,
          "time": 171.34883720930233,
          "velocity": 0.07086614173228346
        },
        {
          "duration": 0.04651162790699459,
          "durationTicks": 4,
          "midi": 50,
          "name": "D3",
          "ticks": 14743,
          "time": 171.43023255813952,
          "velocity": 0.07086614173228346
        },
        {
          "duration": 0.034883720930224626,
          "durationTicks": 3,
          "midi": 37,
          "name": "C#2",
          "ticks": 14748,
          "time": 171.48837209302326,
          "velocity": 0.11023622047244094
        },
        {
          "duration": 0.05813953488370771,
          "durationTicks": 5,
          "midi": 57,
          "name": "A3",
          "ticks": 14749,
          "time": 171.5,
          "velocity": 0.15748031496062992
        },
        {
          "duration": 0.04651162790696617,
          "durationTicks": 4,
          "midi": 62,
          "name": "D4",
          "ticks": 14749,
          "time": 171.5,
          "velocity": 0.09448818897637795
        },
        {
          "duration": 0.17441860465117998,
          "durationTicks": 15,
          "midi": 50,
          "name": "D3",
          "ticks": 14751,
          "time": 171.52325581395348,
          "velocity": 0.14960629921259844
        },
        {
          "duration": 0.023255813953483084,
          "durationTicks": 2,
          "midi": 37,
          "name": "C#2",
          "ticks": 14752,
          "time": 171.53488372093022,
          "velocity": 0.2283464566929134
        },
        {
          "duration": 0.11627906976744384,
          "durationTicks": 10,
          "midi": 85,
          "name": "C#6",
          "ticks": 14753,
          "time": 171.54651162790697,
          "velocity": 0.12598425196850394
        },
        {
          "duration": 0.1511627906976969,
          "durationTicks": 13,
          "midi": 38,
          "name": "D2",
          "ticks": 14754,
          "time": 171.5581395348837,
          "velocity": 0.2204724409448819
        },
        {
          "duration": 0.1046511627907023,
          "durationTicks": 9,
          "midi": 73,
          "name": "C#5",
          "ticks": 14754,
          "time": 171.5581395348837,
          "velocity": 0.15748031496062992
        },
        {
          "duration": 0.0813953488371908,
          "durationTicks": 7,
          "midi": 61,
          "name": "C#4",
          "ticks": 14756,
          "time": 171.58139534883722,
          "velocity": 0.1732283464566929
        },
        {
          "duration": 0.1046511627907023,
          "durationTicks": 9,
          "midi": 62,
          "name": "D4",
          "ticks": 14765,
          "time": 171.6860465116279,
          "velocity": 0.18110236220472442
        },
        {
          "duration": 0.1511627906976969,
          "durationTicks": 13,
          "midi": 74,
          "name": "D5",
          "ticks": 14765,
          "time": 171.6860465116279,
          "velocity": 0.1889763779527559
        },
        {
          "duration": 0.08139534883721922,
          "durationTicks": 7,
          "midi": 56,
          "name": "G#3",
          "ticks": 14770,
          "time": 171.74418604651163,
          "velocity": 0.2125984251968504
        },
        {
          "duration": 0.4302325581395223,
          "durationTicks": 37,
          "midi": 61,
          "name": "C#4",
          "ticks": 14779,
          "time": 171.84883720930233,
          "velocity": 0.2204724409448819
        },
        {
          "duration": 0.16279069767441,
          "durationTicks": 14,
          "midi": 37,
          "name": "C#2",
          "ticks": 14780,
          "time": 171.86046511627907,
          "velocity": 0.1889763779527559
        },
        {
          "duration": 0.1860465116278931,
          "durationTicks": 16,
          "midi": 56,
          "name": "G#3",
          "ticks": 14787,
          "time": 171.9418604651163,
          "velocity": 0.09448818897637795
        },
        {
          "duration": 0.15116279069766847,
          "durationTicks": 13,
          "midi": 75,
          "name": "D#5",
          "ticks": 14803,
          "time": 172.12790697674419,
          "velocity": 0.08661417322834646
        },
        {
          "duration": 0.08139534883721922,
          "durationTicks": 7,
          "midi": 68,
          "name": "G#4",
          "ticks": 14804,
          "time": 172.13953488372093,
          "velocity": 0.11023622047244094
        },
        {
          "duration": 0.06976744186047767,
          "durationTicks": 6,
          "midi": 56,
          "name": "G#3",
          "ticks": 14806,
          "time": 172.1627906976744,
          "velocity": 0.07874015748031496
        },
        {
          "duration": 0.034883720930224626,
          "durationTicks": 3,
          "midi": 48,
          "name": "C3",
          "ticks": 14814,
          "time": 172.25581395348837,
          "velocity": 0.15748031496062992
        },
        {
          "duration": 0.13953488372092693,
          "durationTicks": 12,
          "midi": 37,
          "name": "C#2",
          "ticks": 14815,
          "time": 172.2674418604651,
          "velocity": 0.1732283464566929
        },
        {
          "duration": 0.023255813953483084,
          "durationTicks": 2,
          "midi": 54,
          "name": "F#3",
          "ticks": 14815,
          "time": 172.2674418604651,
          "velocity": 0.2440944881889764
        },
        {
          "duration": 0.17441860465117998,
          "durationTicks": 15,
          "midi": 84,
          "name": "C6",
          "ticks": 14816,
          "time": 172.27906976744185,
          "velocity": 0.15748031496062992
        },
        {
          "duration": 0.023255813953511506,
          "durationTicks": 2,
          "midi": 55,
          "name": "G3",
          "ticks": 14817,
          "time": 172.2906976744186,
          "velocity": 0.2677165354330709
        },
        {
          "duration": 0.05813953488373613,
          "durationTicks": 5,
          "midi": 68,
          "name": "G#4",
          "ticks": 14818,
          "time": 172.30232558139534,
          "velocity": 0.11023622047244094
        },
        {
          "duration": 0.034883720930224626,
          "durationTicks": 3,
          "midi": 56,
          "name": "G#3",
          "ticks": 14819,
          "time": 172.3139534883721,
          "velocity": 0.18110236220472442
        },
        {
          "duration": 0.09302325581393234,
          "durationTicks": 8,
          "midi": 80,
          "name": "G#5",
          "ticks": 14821,
          "time": 172.3372093023256,
          "velocity": 0.13385826771653545
        },
        {
          "duration": 0.06976744186044925,
          "durationTicks": 6,
          "midi": 56,
          "name": "G#3",
          "ticks": 14823,
          "time": 172.36046511627907,
          "velocity": 0.12598425196850394
        },
        {
          "duration": 0.05813953488370771,
          "durationTicks": 5,
          "midi": 56,
          "name": "G#3",
          "ticks": 14834,
          "time": 172.48837209302326,
          "velocity": 0.13385826771653545
        },
        {
          "duration": 0.08139534883721922,
          "durationTicks": 7,
          "midi": 73,
          "name": "C#5",
          "ticks": 14839,
          "time": 172.54651162790697,
          "velocity": 0.10236220472440945
        },
        {
          "duration": 0.03488372093025305,
          "durationTicks": 3,
          "midi": 80,
          "name": "G#5",
          "ticks": 14840,
          "time": 172.5581395348837,
          "velocity": 0.07086614173228346
        },
        {
          "duration": 0.023255813953483084,
          "durationTicks": 2,
          "midi": 55,
          "name": "G3",
          "ticks": 14842,
          "time": 172.58139534883722,
          "velocity": 0.23622047244094488
        },
        {
          "duration": 0.06976744186044925,
          "durationTicks": 6,
          "midi": 56,
          "name": "G#3",
          "ticks": 14844,
          "time": 172.6046511627907,
          "velocity": 0.1889763779527559
        },
        {
          "duration": 0.023255813953511506,
          "durationTicks": 2,
          "midi": 55,
          "name": "G3",
          "ticks": 14851,
          "time": 172.6860465116279,
          "velocity": 0.23622047244094488
        },
        {
          "duration": 0.1046511627907023,
          "durationTicks": 9,
          "midi": 84,
          "name": "C6",
          "ticks": 14851,
          "time": 172.6860465116279,
          "velocity": 0.1968503937007874
        },
        {
          "duration": 0.23255813953485927,
          "durationTicks": 20,
          "midi": 49,
          "name": "C#3",
          "ticks": 14852,
          "time": 172.69767441860466,
          "velocity": 0.2125984251968504
        },
        {
          "duration": 0.10465116279067388,
          "durationTicks": 9,
          "midi": 68,
          "name": "G#4",
          "ticks": 14852,
          "time": 172.69767441860466,
          "velocity": 0.10236220472440945
        },
        {
          "duration": 0.13953488372092693,
          "durationTicks": 12,
          "midi": 37,
          "name": "C#2",
          "ticks": 14855,
          "time": 172.7325581395349,
          "velocity": 0.14173228346456693
        },
        {
          "duration": 0.08139534883721922,
          "durationTicks": 7,
          "midi": 56,
          "name": "G#3",
          "ticks": 14859,
          "time": 172.77906976744185,
          "velocity": 0.18110236220472442
        },
        {
          "duration": 0.04651162790696617,
          "durationTicks": 4,
          "midi": 56,
          "name": "G#3",
          "ticks": 14867,
          "time": 172.87209302325581,
          "velocity": 0.18110236220472442
        },
        {
          "duration": 0.06976744186047767,
          "durationTicks": 6,
          "midi": 71,
          "name": "B4",
          "ticks": 14867,
          "time": 172.87209302325581,
          "velocity": 0.10236220472440945
        },
        {
          "duration": 0.06976744186047767,
          "durationTicks": 6,
          "midi": 87,
          "name": "D#6",
          "ticks": 14867,
          "time": 172.87209302325581,
          "velocity": 0.07874015748031496
        },
        {
          "duration": 0.04651162790699459,
          "durationTicks": 4,
          "midi": 59,
          "name": "B3",
          "ticks": 14870,
          "time": 172.90697674418604,
          "velocity": 0.1889763779527559
        },
        {
          "duration": 0.17441860465115155,
          "durationTicks": 15,
          "midi": 62,
          "name": "D4",
          "ticks": 14877,
          "time": 172.98837209302326,
          "velocity": 0.2047244094488189
        },
        {
          "duration": 0.24418604651162923,
          "durationTicks": 21,
          "midi": 50,
          "name": "D3",
          "ticks": 14878,
          "time": 173,
          "velocity": 0.2047244094488189
        },
        {
          "duration": 0.06976744186047767,
          "durationTicks": 6,
          "midi": 66,
          "name": "F#4",
          "ticks": 14879,
          "time": 173.01162790697674,
          "velocity": 0.18110236220472442
        },
        {
          "duration": 0.11627906976744384,
          "durationTicks": 10,
          "midi": 38,
          "name": "D2",
          "ticks": 14883,
          "time": 173.0581395348837,
          "velocity": 0.1968503937007874
        },
        {
          "duration": 0.10465116279067388,
          "durationTicks": 9,
          "midi": 69,
          "name": "A4",
          "ticks": 14884,
          "time": 173.06976744186048,
          "velocity": 0.09448818897637795
        },
        {
          "duration": 0.09302325581396076,
          "durationTicks": 8,
          "midi": 76,
          "name": "E5",
          "ticks": 14890,
          "time": 173.13953488372093,
          "velocity": 0.1889763779527559
        },
        {
          "duration": 0.09302325581396076,
          "durationTicks": 8,
          "midi": 64,
          "name": "E4",
          "ticks": 14892,
          "time": 173.1627906976744,
          "velocity": 0.1732283464566929
        },
        {
          "duration": 0.19767441860463464,
          "durationTicks": 17,
          "midi": 57,
          "name": "A3",
          "ticks": 14896,
          "time": 173.2093023255814,
          "velocity": 0.1732283464566929
        },
        {
          "duration": 0.06976744186047767,
          "durationTicks": 6,
          "midi": 62,
          "name": "D4",
          "ticks": 14904,
          "time": 173.30232558139534,
          "velocity": 0.18110236220472442
        },
        {
          "duration": 0.06976744186047767,
          "durationTicks": 6,
          "midi": 86,
          "name": "D6",
          "ticks": 14904,
          "time": 173.30232558139534,
          "velocity": 0.07086614173228346
        },
        {
          "duration": 0.2093023255814046,
          "durationTicks": 18,
          "midi": 50,
          "name": "D3",
          "ticks": 14914,
          "time": 173.41860465116278,
          "velocity": 0.11811023622047244
        },
        {
          "duration": 0.24418604651162923,
          "durationTicks": 21,
          "midi": 74,
          "name": "D5",
          "ticks": 14914,
          "time": 173.41860465116278,
          "velocity": 0.1968503937007874
        },
        {
          "duration": 0.04651162790696617,
          "durationTicks": 4,
          "midi": 57,
          "name": "A3",
          "ticks": 14916,
          "time": 173.4418604651163,
          "velocity": 0.09448818897637795
        },
        {
          "duration": 0.034883720930224626,
          "durationTicks": 3,
          "midi": 38,
          "name": "D2",
          "ticks": 14917,
          "time": 173.45348837209303,
          "velocity": 0.2047244094488189
        },
        {
          "duration": 0.19767441860463464,
          "durationTicks": 17,
          "midi": 69,
          "name": "A4",
          "ticks": 14918,
          "time": 173.46511627906978,
          "velocity": 0.12598425196850394
        },
        {
          "duration": 0.11627906976744384,
          "durationTicks": 10,
          "midi": 38,
          "name": "D2",
          "ticks": 14923,
          "time": 173.52325581395348,
          "velocity": 0.1968503937007874
        },
        {
          "duration": 0.05813953488373613,
          "durationTicks": 5,
          "midi": 74,
          "name": "D5",
          "ticks": 14936,
          "time": 173.67441860465115,
          "velocity": 0.11023622047244094
        },
        {
          "duration": 0.03488372093025305,
          "durationTicks": 3,
          "midi": 53,
          "name": "F3",
          "ticks": 14937,
          "time": 173.6860465116279,
          "velocity": 0.11023622047244094
        },
        {
          "duration": 0.11627906976744384,
          "durationTicks": 10,
          "midi": 64,
          "name": "E4",
          "ticks": 14938,
          "time": 173.69767441860466,
          "velocity": 0.2047244094488189
        },
        {
          "duration": 0.04651162790696617,
          "durationTicks": 4,
          "midi": 57,
          "name": "A3",
          "ticks": 14942,
          "time": 173.74418604651163,
          "velocity": 0.08661417322834646
        },
        {
          "duration": 0.05813953488373613,
          "durationTicks": 5,
          "midi": 38,
          "name": "D2",
          "ticks": 14944,
          "time": 173.7674418604651,
          "velocity": 0.12598425196850394
        },
        {
          "duration": 0.10465116279067388,
          "durationTicks": 9,
          "midi": 62,
          "name": "D4",
          "ticks": 14948,
          "time": 173.8139534883721,
          "velocity": 0.11023622047244094
        },
        {
          "duration": 0.034883720930224626,
          "durationTicks": 3,
          "midi": 57,
          "name": "A3",
          "ticks": 14951,
          "time": 173.84883720930233,
          "velocity": 0.13385826771653545
        },
        {
          "duration": 0.06976744186044925,
          "durationTicks": 6,
          "midi": 80,
          "name": "G#5",
          "ticks": 14952,
          "time": 173.86046511627907,
          "velocity": 0.10236220472440945
        },
        {
          "duration": 0.034883720930224626,
          "durationTicks": 3,
          "midi": 56,
          "name": "G#3",
          "ticks": 14954,
          "time": 173.88372093023256,
          "velocity": 0.08661417322834646
        },
        {
          "duration": 0.04651162790696617,
          "durationTicks": 4,
          "midi": 68,
          "name": "G#4",
          "ticks": 14954,
          "time": 173.88372093023256,
          "velocity": 0.11023622047244094
        },
        {
          "duration": 0.04651162790696617,
          "durationTicks": 4,
          "midi": 38,
          "name": "D2",
          "ticks": 14959,
          "time": 173.9418604651163,
          "velocity": 0.14960629921259844
        },
        {
          "duration": 0.06976744186047767,
          "durationTicks": 6,
          "midi": 66,
          "name": "F#4",
          "ticks": 14964,
          "time": 174,
          "velocity": 0.2047244094488189
        },
        {
          "duration": 0.2325581395348877,
          "durationTicks": 20,
          "midi": 64,
          "name": "E4",
          "ticks": 14976,
          "time": 174.13953488372093,
          "velocity": 0.2283464566929134
        },
        {
          "duration": 0.034883720930224626,
          "durationTicks": 3,
          "midi": 36,
          "name": "C2",
          "ticks": 14981,
          "time": 174.19767441860466,
          "velocity": 0.16535433070866143
        },
        {
          "duration": 0.034883720930224626,
          "durationTicks": 3,
          "midi": 37,
          "name": "C#2",
          "ticks": 14987,
          "time": 174.2674418604651,
          "velocity": 0.16535433070866143
        },
        {
          "duration": 0.03488372093025305,
          "durationTicks": 3,
          "midi": 36,
          "name": "C2",
          "ticks": 14990,
          "time": 174.30232558139534,
          "velocity": 0.15748031496062992
        },
        {
          "duration": 0.034883720930224626,
          "durationTicks": 3,
          "midi": 36,
          "name": "C2",
          "ticks": 14995,
          "time": 174.36046511627907,
          "velocity": 0.18110236220472442
        },
        {
          "duration": 0.04651162790696617,
          "durationTicks": 4,
          "midi": 50,
          "name": "D3",
          "ticks": 14996,
          "time": 174.37209302325581,
          "velocity": 0.1968503937007874
        },
        {
          "duration": 0.24418604651162923,
          "durationTicks": 21,
          "midi": 78,
          "name": "F#5",
          "ticks": 14999,
          "time": 174.40697674418604,
          "velocity": 0.1732283464566929
        },
        {
          "duration": 0.2325581395348877,
          "durationTicks": 20,
          "midi": 66,
          "name": "F#4",
          "ticks": 15000,
          "time": 174.41860465116278,
          "velocity": 0.1968503937007874
        },
        {
          "duration": 0.04651162790699459,
          "durationTicks": 4,
          "midi": 54,
          "name": "F#3",
          "ticks": 15001,
          "time": 174.43023255813952,
          "velocity": 0.2204724409448819
        },
        {
          "duration": 0.023255813953483084,
          "durationTicks": 2,
          "midi": 39,
          "name": "D#2",
          "ticks": 15006,
          "time": 174.48837209302326,
          "velocity": 0.23622047244094488
        },
        {
          "duration": 0.04651162790699459,
          "durationTicks": 4,
          "midi": 39,
          "name": "D#2",
          "ticks": 15012,
          "time": 174.5581395348837,
          "velocity": 0.2204724409448819
        },
        {
          "duration": 0.034883720930224626,
          "durationTicks": 3,
          "midi": 38,
          "name": "D2",
          "ticks": 15019,
          "time": 174.63953488372093,
          "velocity": 0.2125984251968504
        },
        {
          "duration": 0.034883720930224626,
          "durationTicks": 3,
          "midi": 67,
          "name": "G4",
          "ticks": 15020,
          "time": 174.65116279069767,
          "velocity": 0.2204724409448819
        },
        {
          "duration": 0.03488372093025305,
          "durationTicks": 3,
          "midi": 53,
          "name": "F3",
          "ticks": 15021,
          "time": 174.6627906976744,
          "velocity": 0.11023622047244094
        },
        {
          "duration": 0.03488372093025305,
          "durationTicks": 3,
          "midi": 39,
          "name": "D#2",
          "ticks": 15022,
          "time": 174.67441860465115,
          "velocity": 0.2204724409448819
        },
        {
          "duration": 0.03488372093025305,
          "durationTicks": 3,
          "midi": 66,
          "name": "F#4",
          "ticks": 15023,
          "time": 174.6860465116279,
          "velocity": 0.07086614173228346
        },
        {
          "duration": 0.3604651162790731,
          "durationTicks": 31,
          "midi": 40,
          "name": "E2",
          "ticks": 15025,
          "time": 174.7093023255814,
          "velocity": 0.2992125984251969
        },
        {
          "duration": 0.3720930232558146,
          "durationTicks": 32,
          "midi": 68,
          "name": "G#4",
          "ticks": 15026,
          "time": 174.72093023255815,
          "velocity": 0.28346456692913385
        },
        {
          "duration": 0.2093023255814046,
          "durationTicks": 18,
          "midi": 87,
          "name": "D#6",
          "ticks": 15028,
          "time": 174.74418604651163,
          "velocity": 0.07874015748031496
        },
        {
          "duration": 0.034883720930224626,
          "durationTicks": 3,
          "midi": 53,
          "name": "F3",
          "ticks": 15046,
          "time": 174.95348837209303,
          "velocity": 0.2204724409448819
        },
        {
          "duration": 0.034883720930224626,
          "durationTicks": 3,
          "midi": 54,
          "name": "F#3",
          "ticks": 15049,
          "time": 174.98837209302326,
          "velocity": 0.2283464566929134
        },
        {
          "duration": 0.03488372093025305,
          "durationTicks": 3,
          "midi": 54,
          "name": "F#3",
          "ticks": 15053,
          "time": 175.03488372093022,
          "velocity": 0.1889763779527559
        },
        {
          "duration": 0.06976744186044925,
          "durationTicks": 6,
          "midi": 40,
          "name": "E2",
          "ticks": 15057,
          "time": 175.08139534883722,
          "velocity": 0.2755905511811024
        },
        {
          "duration": 0.11627906976744384,
          "durationTicks": 10,
          "midi": 68,
          "name": "G#4",
          "ticks": 15060,
          "time": 175.11627906976744,
          "velocity": 0.11811023622047244
        },
        {
          "duration": 0.11627906976744384,
          "durationTicks": 10,
          "midi": 82,
          "name": "A#5",
          "ticks": 15062,
          "time": 175.13953488372093,
          "velocity": 0.29133858267716534
        },
        {
          "duration": 0.1046511627907023,
          "durationTicks": 9,
          "midi": 70,
          "name": "A#4",
          "ticks": 15063,
          "time": 175.15116279069767,
          "velocity": 0.14960629921259844
        },
        {
          "duration": 0.023255813953483084,
          "durationTicks": 2,
          "midi": 40,
          "name": "E2",
          "ticks": 15064,
          "time": 175.1627906976744,
          "velocity": 0.2677165354330709
        },
        {
          "duration": 0.03488372093025305,
          "durationTicks": 3,
          "midi": 39,
          "name": "D#2",
          "ticks": 15066,
          "time": 175.1860465116279,
          "velocity": 0.25984251968503935
        },
        {
          "duration": 0.08139534883721922,
          "durationTicks": 7,
          "midi": 82,
          "name": "A#5",
          "ticks": 15073,
          "time": 175.2674418604651,
          "velocity": 0.1732283464566929
        },
        {
          "duration": 0.023255813953483084,
          "durationTicks": 2,
          "midi": 53,
          "name": "F3",
          "ticks": 15074,
          "time": 175.27906976744185,
          "velocity": 0.2755905511811024
        },
        {
          "duration": 0.08139534883721922,
          "durationTicks": 7,
          "midi": 71,
          "name": "B4",
          "ticks": 15075,
          "time": 175.2906976744186,
          "velocity": 0.14173228346456693
        },
        {
          "duration": 0.08139534883721922,
          "durationTicks": 7,
          "midi": 83,
          "name": "B5",
          "ticks": 15075,
          "time": 175.2906976744186,
          "velocity": 0.2125984251968504
        },
        {
          "duration": 0.023255813953511506,
          "durationTicks": 2,
          "midi": 46,
          "name": "A#2",
          "ticks": 15076,
          "time": 175.30232558139534,
          "velocity": 0.29133858267716534
        },
        {
          "duration": 0.06976744186047767,
          "durationTicks": 6,
          "midi": 54,
          "name": "F#3",
          "ticks": 15076,
          "time": 175.30232558139534,
          "velocity": 0.29133858267716534
        },
        {
          "duration": 0.023255813953483084,
          "durationTicks": 2,
          "midi": 45,
          "name": "A2",
          "ticks": 15078,
          "time": 175.32558139534885,
          "velocity": 0.2992125984251969
        },
        {
          "duration": 0.023255813953483084,
          "durationTicks": 2,
          "midi": 45,
          "name": "A2",
          "ticks": 15082,
          "time": 175.37209302325581,
          "velocity": 0.25196850393700787
        },
        {
          "duration": 0.034883720930224626,
          "durationTicks": 3,
          "midi": 53,
          "name": "F3",
          "ticks": 15082,
          "time": 175.37209302325581,
          "velocity": 0.2204724409448819
        },
        {
          "duration": 0.32558139534884845,
          "durationTicks": 28,
          "midi": 54,
          "name": "F#3",
          "ticks": 15085,
          "time": 175.40697674418604,
          "velocity": 0.23622047244094488
        },
        {
          "duration": 0.03488372093025305,
          "durationTicks": 3,
          "midi": 45,
          "name": "A2",
          "ticks": 15086,
          "time": 175.41860465116278,
          "velocity": 0.2755905511811024
        },
        {
          "duration": 0.08139534883721922,
          "durationTicks": 7,
          "midi": 70,
          "name": "A#4",
          "ticks": 15087,
          "time": 175.43023255813952,
          "velocity": 0.12598425196850394
        },
        {
          "duration": 0.12790697674418539,
          "durationTicks": 11,
          "midi": 82,
          "name": "A#5",
          "ticks": 15087,
          "time": 175.43023255813952,
          "velocity": 0.23622047244094488
        },
        {
          "duration": 0.0813953488371908,
          "durationTicks": 7,
          "midi": 68,
          "name": "G#4",
          "ticks": 15099,
          "time": 175.56976744186048,
          "velocity": 0.1889763779527559
        },
        {
          "duration": 0.05813953488370771,
          "durationTicks": 5,
          "midi": 42,
          "name": "F#2",
          "ticks": 15104,
          "time": 175.62790697674419,
          "velocity": 0.08661417322834646
        },
        {
          "duration": 0.12790697674418539,
          "durationTicks": 11,
          "midi": 66,
          "name": "F#4",
          "ticks": 15111,
          "time": 175.7093023255814,
          "velocity": 0.25984251968503935
        },
        {
          "duration": 0.034883720930224626,
          "durationTicks": 3,
          "midi": 45,
          "name": "A2",
          "ticks": 15112,
          "time": 175.72093023255815,
          "velocity": 0.2992125984251969
        },
        {
          "duration": 0.09302325581396076,
          "durationTicks": 8,
          "midi": 54,
          "name": "F#3",
          "ticks": 15114,
          "time": 175.74418604651163,
          "velocity": 0.25196850393700787
        },
        {
          "duration": 0.023255813953483084,
          "durationTicks": 2,
          "midi": 45,
          "name": "A2",
          "ticks": 15116,
          "time": 175.7674418604651,
          "velocity": 0.2677165354330709
        },
        {
          "duration": 0.023255813953483084,
          "durationTicks": 2,
          "midi": 45,
          "name": "A2",
          "ticks": 15120,
          "time": 175.8139534883721,
          "velocity": 0.2440944881889764
        },
        {
          "duration": 0.09302325581393234,
          "durationTicks": 8,
          "midi": 68,
          "name": "G#4",
          "ticks": 15122,
          "time": 175.8372093023256,
          "velocity": 0.2125984251968504
        },
        {
          "duration": 0.11627906976744384,
          "durationTicks": 10,
          "midi": 54,
          "name": "F#3",
          "ticks": 15123,
          "time": 175.84883720930233,
          "velocity": 0.18110236220472442
        },
        {
          "duration": 0.06976744186044925,
          "durationTicks": 6,
          "midi": 78,
          "name": "F#5",
          "ticks": 15134,
          "time": 175.97674418604652,
          "velocity": 0.2047244094488189
        },
        {
          "duration": 0.04651162790696617,
          "durationTicks": 4,
          "midi": 66,
          "name": "F#4",
          "ticks": 15135,
          "time": 175.98837209302326,
          "velocity": 0.18110236220472442
        },
        {
          "duration": 0.08139534883721922,
          "durationTicks": 7,
          "midi": 54,
          "name": "F#3",
          "ticks": 15138,
          "time": 176.02325581395348,
          "velocity": 0.11023622047244094
        },
        {
          "duration": 0.04651162790699459,
          "durationTicks": 4,
          "midi": 80,
          "name": "G#5",
          "ticks": 15139,
          "time": 176.03488372093022,
          "velocity": 0.07874015748031496
        },
        {
          "duration": 0.04651162790696617,
          "durationTicks": 4,
          "midi": 53,
          "name": "F3",
          "ticks": 15145,
          "time": 176.1046511627907,
          "velocity": 0.16535433070866143
        },
        {
          "duration": 0.15116279069766847,
          "durationTicks": 13,
          "midi": 68,
          "name": "G#4",
          "ticks": 15145,
          "time": 176.1046511627907,
          "velocity": 0.2440944881889764
        },
        {
          "duration": 0.09302325581396076,
          "durationTicks": 8,
          "midi": 45,
          "name": "A2",
          "ticks": 15146,
          "time": 176.11627906976744,
          "velocity": 0.28346456692913385
        },
        {
          "duration": 0.1046511627907023,
          "durationTicks": 9,
          "midi": 82,
          "name": "A#5",
          "ticks": 15156,
          "time": 176.2325581395349,
          "velocity": 0.2125984251968504
        },
        {
          "duration": 0.08139534883721922,
          "durationTicks": 7,
          "midi": 70,
          "name": "A#4",
          "ticks": 15157,
          "time": 176.24418604651163,
          "velocity": 0.14173228346456693
        },
        {
          "duration": 0.034883720930224626,
          "durationTicks": 3,
          "midi": 53,
          "name": "F3",
          "ticks": 15169,
          "time": 176.38372093023256,
          "velocity": 0.07086614173228346
        },
        {
          "duration": 0.27906976744185386,
          "durationTicks": 24,
          "midi": 68,
          "name": "G#4",
          "ticks": 15169,
          "time": 176.38372093023256,
          "velocity": 0.23622047244094488
        },
        {
          "duration": 0.19767441860466306,
          "durationTicks": 17,
          "midi": 64,
          "name": "E4",
          "ticks": 15179,
          "time": 176.5,
          "velocity": 0.07086614173228346
        },
        {
          "duration": 0.034883720930224626,
          "durationTicks": 3,
          "midi": 52,
          "name": "E3",
          "ticks": 15199,
          "time": 176.7325581395349,
          "velocity": 0.13385826771653545
        },
        {
          "duration": 0.05813953488373613,
          "durationTicks": 5,
          "midi": 44,
          "name": "G#2",
          "ticks": 15205,
          "time": 176.80232558139534,
          "velocity": 0.2125984251968504
        },
        {
          "duration": 0.2325581395348877,
          "durationTicks": 20,
          "midi": 61,
          "name": "C#4",
          "ticks": 15208,
          "time": 176.8372093023256,
          "velocity": 0.1889763779527559
        },
        {
          "duration": 0.06976744186047767,
          "durationTicks": 6,
          "midi": 44,
          "name": "G#2",
          "ticks": 15211,
          "time": 176.87209302325581,
          "velocity": 0.1889763779527559
        },
        {
          "duration": 0.17441860465115155,
          "durationTicks": 15,
          "midi": 56,
          "name": "G#3",
          "ticks": 15211,
          "time": 176.87209302325581,
          "velocity": 0.2125984251968504
        },
        {
          "duration": 0.04651162790696617,
          "durationTicks": 4,
          "midi": 44,
          "name": "G#2",
          "ticks": 15220,
          "time": 176.97674418604652,
          "velocity": 0.11811023622047244
        },
        {
          "duration": 0.04651162790699459,
          "durationTicks": 4,
          "midi": 44,
          "name": "G#2",
          "ticks": 15225,
          "time": 177.03488372093022,
          "velocity": 0.12598425196850394
        },
        {
          "duration": 0.12790697674418539,
          "durationTicks": 11,
          "midi": 75,
          "name": "D#5",
          "ticks": 15226,
          "time": 177.04651162790697,
          "velocity": 0.07086614173228346
        },
        {
          "duration": 0.11627906976744384,
          "durationTicks": 10,
          "midi": 56,
          "name": "G#3",
          "ticks": 15234,
          "time": 177.13953488372093,
          "velocity": 0.14960629921259844
        },
        {
          "duration": 0.27906976744185386,
          "durationTicks": 24,
          "midi": 44,
          "name": "G#2",
          "ticks": 15244,
          "time": 177.25581395348837,
          "velocity": 0.28346456692913385
        },
        {
          "duration": 0.11627906976744384,
          "durationTicks": 10,
          "midi": 61,
          "name": "C#4",
          "ticks": 15244,
          "time": 177.25581395348837,
          "velocity": 0.15748031496062992
        },
        {
          "duration": 0.1046511627907023,
          "durationTicks": 9,
          "midi": 63,
          "name": "D#4",
          "ticks": 15257,
          "time": 177.40697674418604,
          "velocity": 0.1732283464566929
        },
        {
          "duration": 0.1046511627907023,
          "durationTicks": 9,
          "midi": 75,
          "name": "D#5",
          "ticks": 15257,
          "time": 177.40697674418604,
          "velocity": 0.2047244094488189
        },
        {
          "duration": 0.43023255813955075,
          "durationTicks": 37,
          "midi": 64,
          "name": "E4",
          "ticks": 15268,
          "time": 177.53488372093022,
          "velocity": 0.2440944881889764
        },
        {
          "duration": 0.05813953488373613,
          "durationTicks": 5,
          "midi": 83,
          "name": "B5",
          "ticks": 15269,
          "time": 177.54651162790697,
          "velocity": 0.11023622047244094
        },
        {
          "duration": 0.04651162790699459,
          "durationTicks": 4,
          "midi": 45,
          "name": "A2",
          "ticks": 15270,
          "time": 177.5581395348837,
          "velocity": 0.2992125984251969
        },
        {
          "duration": 0.04651162790699459,
          "durationTicks": 4,
          "midi": 52,
          "name": "E3",
          "ticks": 15270,
          "time": 177.5581395348837,
          "velocity": 0.1732283464566929
        },
        {
          "duration": 0.1046511627907023,
          "durationTicks": 9,
          "midi": 69,
          "name": "A4",
          "ticks": 15273,
          "time": 177.59302325581396,
          "velocity": 0.14960629921259844
        },
        {
          "duration": 0.7790697674418539,
          "durationTicks": 67,
          "midi": 45,
          "name": "A2",
          "ticks": 15275,
          "time": 177.61627906976744,
          "velocity": 0.3543307086614173
        },
        {
          "duration": 0.06976744186047767,
          "durationTicks": 6,
          "midi": 52,
          "name": "E3",
          "ticks": 15276,
          "time": 177.62790697674419,
          "velocity": 0.08661417322834646
        },
        {
          "duration": 0.20930232558137618,
          "durationTicks": 18,
          "midi": 52,
          "name": "E3",
          "ticks": 15283,
          "time": 177.7093023255814,
          "velocity": 0.07086614173228346
        },
        {
          "duration": 0.19767441860466306,
          "durationTicks": 17,
          "midi": 83,
          "name": "B5",
          "ticks": 15287,
          "time": 177.75581395348837,
          "velocity": 0.11023622047244094
        },
        {
          "duration": 0.034883720930224626,
          "durationTicks": 3,
          "midi": 64,
          "name": "E4",
          "ticks": 15309,
          "time": 178.01162790697674,
          "velocity": 0.16535433070866143
        },
        {
          "duration": 0.4186046511628092,
          "durationTicks": 36,
          "midi": 63,
          "name": "D#4",
          "ticks": 15312,
          "time": 178.04651162790697,
          "velocity": 0.2440944881889764
        },
        {
          "duration": 0.17441860465117998,
          "durationTicks": 15,
          "midi": 82,
          "name": "A#5",
          "ticks": 15312,
          "time": 178.04651162790697,
          "velocity": 0.10236220472440945
        },
        {
          "duration": 0.09302325581393234,
          "durationTicks": 8,
          "midi": 52,
          "name": "E3",
          "ticks": 15314,
          "time": 178.06976744186048,
          "velocity": 0.08661417322834646
        },
        {
          "duration": 0.04651162790696617,
          "durationTicks": 4,
          "midi": 69,
          "name": "A4",
          "ticks": 15328,
          "time": 178.2325581395349,
          "velocity": 0.11811023622047244
        },
        {
          "duration": 0.03488372093025305,
          "durationTicks": 3,
          "midi": 53,
          "name": "F3",
          "ticks": 15332,
          "time": 178.27906976744185,
          "velocity": 0.15748031496062992
        },
        {
          "duration": 0.12790697674418539,
          "durationTicks": 11,
          "midi": 69,
          "name": "A4",
          "ticks": 15335,
          "time": 178.3139534883721,
          "velocity": 0.13385826771653545
        },
        {
          "duration": 0.05813953488370771,
          "durationTicks": 5,
          "midi": 59,
          "name": "B3",
          "ticks": 15339,
          "time": 178.36046511627907,
          "velocity": 0.08661417322834646
        },
        {
          "duration": 0.2790697674418823,
          "durationTicks": 24,
          "midi": 45,
          "name": "A2",
          "ticks": 15345,
          "time": 178.43023255813952,
          "velocity": 0.2125984251968504
        },
        {
          "duration": 0.09302325581393234,
          "durationTicks": 8,
          "midi": 59,
          "name": "B3",
          "ticks": 15348,
          "time": 178.46511627906978,
          "velocity": 0.2204724409448819
        },
        {
          "duration": 0.04651162790699459,
          "durationTicks": 4,
          "midi": 33,
          "name": "A1",
          "ticks": 15355,
          "time": 178.54651162790697,
          "velocity": 0.11023622047244094
        },
        {
          "duration": 0.05813953488370771,
          "durationTicks": 5,
          "midi": 69,
          "name": "A4",
          "ticks": 15359,
          "time": 178.59302325581396,
          "velocity": 0.07086614173228346
        },
        {
          "duration": 0.09302325581396076,
          "durationTicks": 8,
          "midi": 33,
          "name": "A1",
          "ticks": 15360,
          "time": 178.6046511627907,
          "velocity": 0.11811023622047244
        },
        {
          "duration": 0.034883720930224626,
          "durationTicks": 3,
          "midi": 64,
          "name": "E4",
          "ticks": 15360,
          "time": 178.6046511627907,
          "velocity": 0.08661417322834646
        },
        {
          "duration": 0.023255813953483084,
          "durationTicks": 2,
          "midi": 58,
          "name": "A#3",
          "ticks": 15363,
          "time": 178.63953488372093,
          "velocity": 0.25984251968503935
        },
        {
          "duration": 0.023255813953483084,
          "durationTicks": 2,
          "midi": 44,
          "name": "G#2",
          "ticks": 15369,
          "time": 178.7093023255814,
          "velocity": 0.25196850393700787
        },
        {
          "duration": 0.3604651162790731,
          "durationTicks": 31,
          "midi": 45,
          "name": "A2",
          "ticks": 15371,
          "time": 178.7325581395349,
          "velocity": 0.28346456692913385
        },
        {
          "duration": 0.12790697674418539,
          "durationTicks": 11,
          "midi": 64,
          "name": "E4",
          "ticks": 15371,
          "time": 178.7325581395349,
          "velocity": 0.2047244094488189
        },
        {
          "duration": 0.04651162790696617,
          "durationTicks": 4,
          "midi": 71,
          "name": "B4",
          "ticks": 15373,
          "time": 178.75581395348837,
          "velocity": 0.14173228346456693
        },
        {
          "duration": 0.034883720930224626,
          "durationTicks": 3,
          "midi": 87,
          "name": "D#6",
          "ticks": 15374,
          "time": 178.7674418604651,
          "velocity": 0.07874015748031496
        },
        {
          "duration": 0.3139534883721069,
          "durationTicks": 27,
          "midi": 52,
          "name": "E3",
          "ticks": 15377,
          "time": 178.80232558139534,
          "velocity": 0.14173228346456693
        },
        {
          "duration": 0.04651162790699459,
          "durationTicks": 4,
          "midi": 60,
          "name": "C4",
          "ticks": 15377,
          "time": 178.80232558139534,
          "velocity": 0.18110236220472442
        },
        {
          "duration": 0.6395348837209269,
          "durationTicks": 55,
          "midi": 61,
          "name": "C#4",
          "ticks": 15381,
          "time": 178.84883720930233,
          "velocity": 0.2440944881889764
        },
        {
          "duration": 0.16279069767443843,
          "durationTicks": 14,
          "midi": 64,
          "name": "E4",
          "ticks": 15387,
          "time": 178.91860465116278,
          "velocity": 0.18110236220472442
        },
        {
          "duration": 0.06976744186047767,
          "durationTicks": 6,
          "midi": 69,
          "name": "A4",
          "ticks": 15397,
          "time": 179.03488372093022,
          "velocity": 0.09448818897637795
        },
        {
          "duration": 0.40697674418603924,
          "durationTicks": 35,
          "midi": 45,
          "name": "A2",
          "ticks": 15405,
          "time": 179.12790697674419,
          "velocity": 0.28346456692913385
        },
        {
          "duration": 0.22093023255814614,
          "durationTicks": 19,
          "midi": 52,
          "name": "E3",
          "ticks": 15408,
          "time": 179.1627906976744,
          "velocity": 0.14173228346456693
        },
        {
          "duration": 0.16279069767441,
          "durationTicks": 14,
          "midi": 76,
          "name": "E5",
          "ticks": 15412,
          "time": 179.2093023255814,
          "velocity": 0.08661417322834646
        },
        {
          "duration": 0.11627906976741542,
          "durationTicks": 10,
          "midi": 64,
          "name": "E4",
          "ticks": 15421,
          "time": 179.3139534883721,
          "velocity": 0.15748031496062992
        },
        {
          "duration": 0.12790697674418539,
          "durationTicks": 11,
          "midi": 61,
          "name": "C#4",
          "ticks": 15439,
          "time": 179.52325581395348,
          "velocity": 0.2047244094488189
        },
        {
          "duration": 0.034883720930224626,
          "durationTicks": 3,
          "midi": 45,
          "name": "A2",
          "ticks": 15443,
          "time": 179.56976744186048,
          "velocity": 0.12598425196850394
        },
        {
          "duration": 0.09302325581393234,
          "durationTicks": 8,
          "midi": 52,
          "name": "E3",
          "ticks": 15443,
          "time": 179.56976744186048,
          "velocity": 0.13385826771653545
        },
        {
          "duration": 0.03488372093025305,
          "durationTicks": 3,
          "midi": 44,
          "name": "G#2",
          "ticks": 15451,
          "time": 179.6627906976744,
          "velocity": 0.16535433070866143
        },
        {
          "duration": 0.12790697674418539,
          "durationTicks": 11,
          "midi": 75,
          "name": "D#5",
          "ticks": 15454,
          "time": 179.69767441860466,
          "velocity": 0.1889763779527559
        },
        {
          "duration": 0.12790697674418539,
          "durationTicks": 11,
          "midi": 63,
          "name": "D#4",
          "ticks": 15455,
          "time": 179.7093023255814,
          "velocity": 0.1968503937007874
        },
        {
          "duration": 0.06976744186044925,
          "durationTicks": 6,
          "midi": 66,
          "name": "F#4",
          "ticks": 15456,
          "time": 179.72093023255815,
          "velocity": 0.10236220472440945
        },
        {
          "duration": 0.06976744186044925,
          "durationTicks": 6,
          "midi": 71,
          "name": "B4",
          "ticks": 15456,
          "time": 179.72093023255815,
          "velocity": 0.09448818897637795
        },
        {
          "duration": 0.0813953488371908,
          "durationTicks": 7,
          "midi": 82,
          "name": "A#5",
          "ticks": 15456,
          "time": 179.72093023255815,
          "velocity": 0.09448818897637795
        },
        {
          "duration": 0.3953488372092977,
          "durationTicks": 34,
          "midi": 76,
          "name": "E5",
          "ticks": 15465,
          "time": 179.82558139534885,
          "velocity": 0.2125984251968504
        },
        {
          "duration": 0.40697674418603924,
          "durationTicks": 35,
          "midi": 47,
          "name": "B2",
          "ticks": 15466,
          "time": 179.8372093023256,
          "velocity": 0.2440944881889764
        },
        {
          "duration": 0.22093023255811772,
          "durationTicks": 19,
          "midi": 54,
          "name": "F#3",
          "ticks": 15466,
          "time": 179.8372093023256,
          "velocity": 0.30708661417322836
        },
        {
          "duration": 0.023255813953483084,
          "durationTicks": 2,
          "midi": 64,
          "name": "E4",
          "ticks": 15466,
          "time": 179.8372093023256,
          "velocity": 0.2283464566929134
        },
        {
          "duration": 0.3604651162790731,
          "durationTicks": 31,
          "midi": 35,
          "name": "B1",
          "ticks": 15468,
          "time": 179.86046511627907,
          "velocity": 0.16535433070866143
        },
        {
          "duration": 0.15116279069766847,
          "durationTicks": 13,
          "midi": 64,
          "name": "E4",
          "ticks": 15469,
          "time": 179.87209302325581,
          "velocity": 0.2125984251968504
        },
        {
          "duration": 0.17441860465117998,
          "durationTicks": 15,
          "midi": 64,
          "name": "E4",
          "ticks": 15483,
          "time": 180.03488372093022,
          "velocity": 0.16535433070866143
        },
        {
          "duration": 0.0813953488371908,
          "durationTicks": 7,
          "midi": 66,
          "name": "F#4",
          "ticks": 15498,
          "time": 180.2093023255814,
          "velocity": 0.14173228346456693
        },
        {
          "duration": 0.04651162790696617,
          "durationTicks": 4,
          "midi": 54,
          "name": "F#3",
          "ticks": 15501,
          "time": 180.24418604651163,
          "velocity": 0.14960629921259844
        },
        {
          "duration": 0.25581395348837077,
          "durationTicks": 22,
          "midi": 47,
          "name": "B2",
          "ticks": 15502,
          "time": 180.25581395348837,
          "velocity": 0.23622047244094488
        },
        {
          "duration": 0.3720930232558146,
          "durationTicks": 32,
          "midi": 75,
          "name": "D#5",
          "ticks": 15502,
          "time": 180.25581395348837,
          "velocity": 0.1968503937007874
        },
        {
          "duration": 0.3604651162790731,
          "durationTicks": 31,
          "midi": 63,
          "name": "D#4",
          "ticks": 15503,
          "time": 180.2674418604651,
          "velocity": 0.1889763779527559
        },
        {
          "duration": 0.09302325581396076,
          "durationTicks": 8,
          "midi": 82,
          "name": "A#5",
          "ticks": 15503,
          "time": 180.2674418604651,
          "velocity": 0.12598425196850394
        },
        {
          "duration": 0.2093023255814046,
          "durationTicks": 18,
          "midi": 35,
          "name": "B1",
          "ticks": 15506,
          "time": 180.30232558139534,
          "velocity": 0.14173228346456693
        },
        {
          "duration": 0.08139534883721922,
          "durationTicks": 7,
          "midi": 66,
          "name": "F#4",
          "ticks": 15511,
          "time": 180.36046511627907,
          "velocity": 0.10236220472440945
        },
        {
          "duration": 0.034883720930224626,
          "durationTicks": 3,
          "midi": 58,
          "name": "A#3",
          "ticks": 15536,
          "time": 180.65116279069767,
          "velocity": 0.14173228346456693
        },
        {
          "duration": 0.2674418604651123,
          "durationTicks": 23,
          "midi": 71,
          "name": "B4",
          "ticks": 15536,
          "time": 180.65116279069767,
          "velocity": 0.1732283464566929
        },
        {
          "duration": 0.03488372093025305,
          "durationTicks": 3,
          "midi": 59,
          "name": "B3",
          "ticks": 15539,
          "time": 180.6860465116279,
          "velocity": 0.13385826771653545
        },
        {
          "duration": 0.20930232558137618,
          "durationTicks": 18,
          "midi": 35,
          "name": "B1",
          "ticks": 15541,
          "time": 180.7093023255814,
          "velocity": 0.11811023622047244
        },
        {
          "duration": 0.04651162790696617,
          "durationTicks": 4,
          "midi": 59,
          "name": "B3",
          "ticks": 15543,
          "time": 180.7325581395349,
          "velocity": 0.12598425196850394
        },
        {
          "duration": 0.16279069767441,
          "durationTicks": 14,
          "midi": 66,
          "name": "F#4",
          "ticks": 15544,
          "time": 180.74418604651163,
          "velocity": 0.09448818897637795
        },
        {
          "duration": 0.0813953488371908,
          "durationTicks": 7,
          "midi": 59,
          "name": "B3",
          "ticks": 15551,
          "time": 180.82558139534885,
          "velocity": 0.1968503937007874
        },
        {
          "duration": 0.03488372093025305,
          "durationTicks": 3,
          "midi": 36,
          "name": "C2",
          "ticks": 15559,
          "time": 180.91860465116278,
          "velocity": 0.14173228346456693
        },
        {
          "duration": 0.05813953488373613,
          "durationTicks": 5,
          "midi": 71,
          "name": "B4",
          "ticks": 15560,
          "time": 180.93023255813952,
          "velocity": 0.12598425196850394
        },
        {
          "duration": 0.05813953488370771,
          "durationTicks": 5,
          "midi": 87,
          "name": "D#6",
          "ticks": 15561,
          "time": 180.9418604651163,
          "velocity": 0.11023622047244094
        },
        {
          "duration": 0.04651162790696617,
          "durationTicks": 4,
          "midi": 59,
          "name": "B3",
          "ticks": 15562,
          "time": 180.95348837209303,
          "velocity": 0.16535433070866143
        },
        {
          "duration": 0.06976744186044925,
          "durationTicks": 6,
          "midi": 66,
          "name": "F#4",
          "ticks": 15562,
          "time": 180.95348837209303,
          "velocity": 0.07086614173228346
        },
        {
          "duration": 0.3720930232558146,
          "durationTicks": 32,
          "midi": 47,
          "name": "B2",
          "ticks": 15563,
          "time": 180.96511627906978,
          "velocity": 0.25196850393700787
        },
        {
          "duration": 0.20930232558137618,
          "durationTicks": 18,
          "midi": 54,
          "name": "F#3",
          "ticks": 15563,
          "time": 180.96511627906978,
          "velocity": 0.29133858267716534
        },
        {
          "duration": 0.034883720930224626,
          "durationTicks": 3,
          "midi": 73,
          "name": "C#5",
          "ticks": 15564,
          "time": 180.97674418604652,
          "velocity": 0.07086614173228346
        },
        {
          "duration": 0.34883720930233153,
          "durationTicks": 30,
          "midi": 35,
          "name": "B1",
          "ticks": 15566,
          "time": 181,
          "velocity": 0.13385826771653545
        },
        {
          "duration": 0.034883720930224626,
          "durationTicks": 3,
          "midi": 60,
          "name": "C4",
          "ticks": 15566,
          "time": 181,
          "velocity": 0.2125984251968504
        },
        {
          "duration": 0.034883720930224626,
          "durationTicks": 3,
          "midi": 73,
          "name": "C#5",
          "ticks": 15568,
          "time": 181.02325581395348,
          "velocity": 0.12598425196850394
        },
        {
          "duration": 0.09302325581396076,
          "durationTicks": 8,
          "midi": 61,
          "name": "C#4",
          "ticks": 15569,
          "time": 181.03488372093022,
          "velocity": 0.1968503937007874
        },
        {
          "duration": 0.20930232558137618,
          "durationTicks": 18,
          "midi": 85,
          "name": "C#6",
          "ticks": 15574,
          "time": 181.09302325581396,
          "velocity": 0.10236220472440945
        },
        {
          "duration": 0.3139534883720785,
          "durationTicks": 27,
          "midi": 71,
          "name": "B4",
          "ticks": 15575,
          "time": 181.1046511627907,
          "velocity": 0.10236220472440945
        },
        {
          "duration": 0.09302325581396076,
          "durationTicks": 8,
          "midi": 73,
          "name": "C#5",
          "ticks": 15579,
          "time": 181.15116279069767,
          "velocity": 0.07086614173228346
        },
        {
          "duration": 0.18604651162792152,
          "durationTicks": 16,
          "midi": 61,
          "name": "C#4",
          "ticks": 15590,
          "time": 181.27906976744185,
          "velocity": 0.2283464566929134
        },
        {
          "duration": 0.24418604651162923,
          "durationTicks": 21,
          "midi": 54,
          "name": "F#3",
          "ticks": 15599,
          "time": 181.38372093023256,
          "velocity": 0.30708661417322836
        },
        {
          "duration": 0.023255813953483084,
          "durationTicks": 2,
          "midi": 47,
          "name": "B2",
          "ticks": 15600,
          "time": 181.3953488372093,
          "velocity": 0.2283464566929134
        },
        {
          "duration": 0.2093023255814046,
          "durationTicks": 18,
          "midi": 47,
          "name": "B2",
          "ticks": 15603,
          "time": 181.43023255813952,
          "velocity": 0.18110236220472442
        },
        {
          "duration": 0.15116279069766847,
          "durationTicks": 13,
          "midi": 61,
          "name": "C#4",
          "ticks": 15607,
          "time": 181.47674418604652,
          "velocity": 0.1889763779527559
        },
        {
          "duration": 0.30232558139533694,
          "durationTicks": 26,
          "midi": 71,
          "name": "B4",
          "ticks": 15620,
          "time": 181.62790697674419,
          "velocity": 0.14173228346456693
        },
        {
          "duration": 0.2790697674418823,
          "durationTicks": 24,
          "midi": 61,
          "name": "C#4",
          "ticks": 15624,
          "time": 181.67441860465115,
          "velocity": 0.29133858267716534
        },
        {
          "duration": 0.09302325581396076,
          "durationTicks": 8,
          "midi": 80,
          "name": "G#5",
          "ticks": 15625,
          "time": 181.6860465116279,
          "velocity": 0.07086614173228346
        },
        {
          "duration": 0.034883720930224626,
          "durationTicks": 3,
          "midi": 35,
          "name": "B1",
          "ticks": 15628,
          "time": 181.72093023255815,
          "velocity": 0.11811023622047244
        },
        {
          "duration": 0.034883720930224626,
          "durationTicks": 3,
          "midi": 36,
          "name": "C2",
          "ticks": 15631,
          "time": 181.75581395348837,
          "velocity": 0.10236220472440945
        },
        {
          "duration": 0.19767441860466306,
          "durationTicks": 17,
          "midi": 47,
          "name": "B2",
          "ticks": 15635,
          "time": 181.80232558139534,
          "velocity": 0.2047244094488189
        },
        {
          "duration": 0.09302325581396076,
          "durationTicks": 8,
          "midi": 66,
          "name": "F#4",
          "ticks": 15635,
          "time": 181.80232558139534,
          "velocity": 0.14960629921259844
        },
        {
          "duration": 0.2906976744185954,
          "durationTicks": 25,
          "midi": 54,
          "name": "F#3",
          "ticks": 15636,
          "time": 181.8139534883721,
          "velocity": 0.2992125984251969
        },
        {
          "duration": 0.11627906976744384,
          "durationTicks": 10,
          "midi": 35,
          "name": "B1",
          "ticks": 15640,
          "time": 181.86046511627907,
          "velocity": 0.10236220472440945
        },
        {
          "duration": 0.12790697674418539,
          "durationTicks": 11,
          "midi": 75,
          "name": "D#5",
          "ticks": 15648,
          "time": 181.95348837209303,
          "velocity": 0.2047244094488189
        },
        {
          "duration": 0.0813953488371908,
          "durationTicks": 7,
          "midi": 63,
          "name": "D#4",
          "ticks": 15649,
          "time": 181.96511627906978,
          "velocity": 0.15748031496062992
        },
        {
          "duration": 0.05813953488370771,
          "durationTicks": 5,
          "midi": 82,
          "name": "A#5",
          "ticks": 15649,
          "time": 181.96511627906978,
          "velocity": 0.08661417322834646
        },
        {
          "duration": 0.034883720930224626,
          "durationTicks": 3,
          "midi": 46,
          "name": "A#2",
          "ticks": 15652,
          "time": 182,
          "velocity": 0.15748031496062992
        },
        {
          "duration": 0.4186046511627808,
          "durationTicks": 36,
          "midi": 64,
          "name": "E4",
          "ticks": 15658,
          "time": 182.06976744186048,
          "velocity": 0.23622047244094488
        },
        {
          "duration": 0.023255813953483084,
          "durationTicks": 2,
          "midi": 44,
          "name": "G#2",
          "ticks": 15659,
          "time": 182.08139534883722,
          "velocity": 0.25196850393700787
        },
        {
          "duration": 0.3720930232558146,
          "durationTicks": 32,
          "midi": 45,
          "name": "A2",
          "ticks": 15661,
          "time": 182.1046511627907,
          "velocity": 0.2677165354330709
        },
        {
          "duration": 0.34883720930233153,
          "durationTicks": 30,
          "midi": 83,
          "name": "B5",
          "ticks": 15661,
          "time": 182.1046511627907,
          "velocity": 0.07874015748031496
        },
        {
          "duration": 0.27906976744185386,
          "durationTicks": 24,
          "midi": 69,
          "name": "A4",
          "ticks": 15665,
          "time": 182.15116279069767,
          "velocity": 0.15748031496062992
        },
        {
          "duration": 0.2906976744185954,
          "durationTicks": 25,
          "midi": 52,
          "name": "E3",
          "ticks": 15669,
          "time": 182.19767441860466,
          "velocity": 0.07874015748031496
        },
        {
          "duration": 0.034883720930224626,
          "durationTicks": 3,
          "midi": 44,
          "name": "G#2",
          "ticks": 15693,
          "time": 182.47674418604652,
          "velocity": 0.25984251968503935
        },
        {
          "duration": 0.4186046511627808,
          "durationTicks": 36,
          "midi": 45,
          "name": "A2",
          "ticks": 15696,
          "time": 182.51162790697674,
          "velocity": 0.2992125984251969
        },
        {
          "duration": 0.034883720930224626,
          "durationTicks": 3,
          "midi": 64,
          "name": "E4",
          "ticks": 15696,
          "time": 182.51162790697674,
          "velocity": 0.2047244094488189
        },
        {
          "duration": 0.08139534883721922,
          "durationTicks": 7,
          "midi": 63,
          "name": "D#4",
          "ticks": 15699,
          "time": 182.54651162790697,
          "velocity": 0.2283464566929134
        },
        {
          "duration": 0.08139534883721922,
          "durationTicks": 7,
          "midi": 82,
          "name": "A#5",
          "ticks": 15699,
          "time": 182.54651162790697,
          "velocity": 0.11023622047244094
        },
        {
          "duration": 0.25581395348837077,
          "durationTicks": 22,
          "midi": 69,
          "name": "A4",
          "ticks": 15704,
          "time": 182.6046511627907,
          "velocity": 0.14173228346456693
        },
        {
          "duration": 0.3139534883721069,
          "durationTicks": 27,
          "midi": 63,
          "name": "D#4",
          "ticks": 15707,
          "time": 182.63953488372093,
          "velocity": 0.28346456692913385
        },
        {
          "duration": 0.04651162790699459,
          "durationTicks": 4,
          "midi": 82,
          "name": "A#5",
          "ticks": 15730,
          "time": 182.90697674418604,
          "velocity": 0.10236220472440945
        },
        {
          "duration": 0.18604651162792152,
          "durationTicks": 16,
          "midi": 59,
          "name": "B3",
          "ticks": 15732,
          "time": 182.93023255813952,
          "velocity": 0.2677165354330709
        },
        {
          "duration": 0.27906976744185386,
          "durationTicks": 24,
          "midi": 45,
          "name": "A2",
          "ticks": 15733,
          "time": 182.9418604651163,
          "velocity": 0.30708661417322836
        },
        {
          "duration": 0.24418604651162923,
          "durationTicks": 21,
          "midi": 87,
          "name": "D#6",
          "ticks": 15735,
          "time": 182.96511627906978,
          "velocity": 0.07874015748031496
        },
        {
          "duration": 0.09302325581396076,
          "durationTicks": 8,
          "midi": 64,
          "name": "E4",
          "ticks": 15748,
          "time": 183.11627906976744,
          "velocity": 0.14960629921259844
        },
        {
          "duration": 0.15116279069766847,
          "durationTicks": 13,
          "midi": 59,
          "name": "B3",
          "ticks": 15749,
          "time": 183.12790697674419,
          "velocity": 0.25984251968503935
        },
        {
          "duration": 0.06976744186047767,
          "durationTicks": 6,
          "midi": 69,
          "name": "A4",
          "ticks": 15749,
          "time": 183.12790697674419,
          "velocity": 0.08661417322834646
        },
        {
          "duration": 0.034883720930224626,
          "durationTicks": 3,
          "midi": 87,
          "name": "D#6",
          "ticks": 15759,
          "time": 183.24418604651163,
          "velocity": 0.11023622047244094
        },
        {
          "duration": 0.03488372093025305,
          "durationTicks": 3,
          "midi": 60,
          "name": "C4",
          "ticks": 15762,
          "time": 183.27906976744185,
          "velocity": 0.2047244094488189
        },
        {
          "duration": 0.06976744186047767,
          "durationTicks": 6,
          "midi": 64,
          "name": "E4",
          "ticks": 15763,
          "time": 183.2906976744186,
          "velocity": 0.1889763779527559
        },
        {
          "duration": 0.34883720930233153,
          "durationTicks": 30,
          "midi": 45,
          "name": "A2",
          "ticks": 15764,
          "time": 183.30232558139534,
          "velocity": 0.2440944881889764
        },
        {
          "duration": 0.34883720930233153,
          "durationTicks": 30,
          "midi": 52,
          "name": "E3",
          "ticks": 15764,
          "time": 183.30232558139534,
          "velocity": 0.1968503937007874
        },
        {
          "duration": 0.7558139534883708,
          "durationTicks": 65,
          "midi": 61,
          "name": "C#4",
          "ticks": 15765,
          "time": 183.3139534883721,
          "velocity": 0.25196850393700787
        },
        {
          "duration": 0.05813953488373613,
          "durationTicks": 5,
          "midi": 69,
          "name": "A4",
          "ticks": 15783,
          "time": 183.52325581395348,
          "velocity": 0.07874015748031496
        },
        {
          "duration": 0.023255813953483084,
          "durationTicks": 2,
          "midi": 44,
          "name": "G#2",
          "ticks": 15794,
          "time": 183.65116279069767,
          "velocity": 0.30708661417322836
        },
        {
          "duration": 0.03488372093025305,
          "durationTicks": 3,
          "midi": 52,
          "name": "E3",
          "ticks": 15795,
          "time": 183.6627906976744,
          "velocity": 0.11023622047244094
        },
        {
          "duration": 0.2906976744186238,
          "durationTicks": 25,
          "midi": 45,
          "name": "A2",
          "ticks": 15796,
          "time": 183.67441860465115,
          "velocity": 0.33070866141732286
        },
        {
          "duration": 0.12790697674418539,
          "durationTicks": 11,
          "midi": 64,
          "name": "E4",
          "ticks": 15806,
          "time": 183.7906976744186,
          "velocity": 0.12598425196850394
        },
        {
          "duration": 0.06976744186044925,
          "durationTicks": 6,
          "midi": 76,
          "name": "E5",
          "ticks": 15820,
          "time": 183.95348837209303,
          "velocity": 0.08661417322834646
        },
        {
          "duration": 0.06976744186047767,
          "durationTicks": 6,
          "midi": 45,
          "name": "A2",
          "ticks": 15826,
          "time": 184.02325581395348,
          "velocity": 0.13385826771653545
        },
        {
          "duration": 0.12790697674418539,
          "durationTicks": 11,
          "midi": 61,
          "name": "C#4",
          "ticks": 15833,
          "time": 184.1046511627907,
          "velocity": 0.2047244094488189
        },
        {
          "duration": 0.1046511627907023,
          "durationTicks": 9,
          "midi": 45,
          "name": "A2",
          "ticks": 15836,
          "time": 184.13953488372093,
          "velocity": 0.15748031496062992
        },
        {
          "duration": 0.04651162790696617,
          "durationTicks": 4,
          "midi": 64,
          "name": "E4",
          "ticks": 15841,
          "time": 184.19767441860466,
          "velocity": 0.13385826771653545
        },
        {
          "duration": 0.08139534883721922,
          "durationTicks": 7,
          "midi": 53,
          "name": "F3",
          "ticks": 15844,
          "time": 184.2325581395349,
          "velocity": 0.1889763779527559
        },
        {
          "duration": 0.04651162790696617,
          "durationTicks": 4,
          "midi": 45,
          "name": "A2",
          "ticks": 15846,
          "time": 184.25581395348837,
          "velocity": 0.16535433070866143
        },
        {
          "duration": 0.034883720930224626,
          "durationTicks": 3,
          "midi": 59,
          "name": "B3",
          "ticks": 15847,
          "time": 184.2674418604651,
          "velocity": 0.07874015748031496
        },
        {
          "duration": 0.13953488372092693,
          "durationTicks": 12,
          "midi": 75,
          "name": "D#5",
          "ticks": 15847,
          "time": 184.2674418604651,
          "velocity": 0.16535433070866143
        },
        {
          "duration": 0.1046511627907023,
          "durationTicks": 9,
          "midi": 63,
          "name": "D#4",
          "ticks": 15848,
          "time": 184.27906976744185,
          "velocity": 0.18110236220472442
        },
        {
          "duration": 0.09302325581396076,
          "durationTicks": 8,
          "midi": 82,
          "name": "A#5",
          "ticks": 15848,
          "time": 184.27906976744185,
          "velocity": 0.08661417322834646
        },
        {
          "duration": 0.3953488372092977,
          "durationTicks": 34,
          "midi": 54,
          "name": "F#3",
          "ticks": 15851,
          "time": 184.3139534883721,
          "velocity": 0.2677165354330709
        },
        {
          "duration": 0.43023255813955075,
          "durationTicks": 37,
          "midi": 64,
          "name": "E4",
          "ticks": 15857,
          "time": 184.38372093023256,
          "velocity": 0.2283464566929134
        },
        {
          "duration": 0.03488372093025305,
          "durationTicks": 3,
          "midi": 46,
          "name": "A#2",
          "ticks": 15859,
          "time": 184.40697674418604,
          "velocity": 0.15748031496062992
        },
        {
          "duration": 0.03488372093025305,
          "durationTicks": 3,
          "midi": 83,
          "name": "B5",
          "ticks": 15860,
          "time": 184.41860465116278,
          "velocity": 0.07874015748031496
        },
        {
          "duration": 0.3488372093023031,
          "durationTicks": 30,
          "midi": 35,
          "name": "B1",
          "ticks": 15862,
          "time": 184.4418604651163,
          "velocity": 0.09448818897637795
        },
        {
          "duration": 0.034883720930224626,
          "durationTicks": 3,
          "midi": 46,
          "name": "A#2",
          "ticks": 15864,
          "time": 184.46511627906978,
          "velocity": 0.14173228346456693
        },
        {
          "duration": 0.1046511627907023,
          "durationTicks": 9,
          "midi": 71,
          "name": "B4",
          "ticks": 15866,
          "time": 184.48837209302326,
          "velocity": 0.11811023622047244
        },
        {
          "duration": 0.09302325581396076,
          "durationTicks": 8,
          "midi": 59,
          "name": "B3",
          "ticks": 15880,
          "time": 184.65116279069767,
          "velocity": 0.11811023622047244
        },
        {
          "duration": 0.023255813953483084,
          "durationTicks": 2,
          "midi": 54,
          "name": "F#3",
          "ticks": 15896,
          "time": 184.8372093023256,
          "velocity": 0.2283464566929134
        },
        {
          "duration": 0.05813953488370771,
          "durationTicks": 5,
          "midi": 82,
          "name": "A#5",
          "ticks": 15897,
          "time": 184.84883720930233,
          "velocity": 0.11811023622047244
        },
        {
          "duration": 0.38372093023255616,
          "durationTicks": 33,
          "midi": 75,
          "name": "D#5",
          "ticks": 15898,
          "time": 184.86046511627907,
          "velocity": 0.1889763779527559
        },
        {
          "duration": 0.40697674418603924,
          "durationTicks": 35,
          "midi": 47,
          "name": "B2",
          "ticks": 15899,
          "time": 184.87209302325581,
          "velocity": 0.18110236220472442
        },
        {
          "duration": 0.04651162790696617,
          "durationTicks": 4,
          "midi": 54,
          "name": "F#3",
          "ticks": 15899,
          "time": 184.87209302325581,
          "velocity": 0.2047244094488189
        },
        {
          "duration": 0.3953488372092977,
          "durationTicks": 34,
          "midi": 63,
          "name": "D#4",
          "ticks": 15899,
          "time": 184.87209302325581,
          "velocity": 0.1889763779527559
        },
        {
          "duration": 0.11627906976744384,
          "durationTicks": 10,
          "midi": 71,
          "name": "B4",
          "ticks": 15899,
          "time": 184.87209302325581,
          "velocity": 0.11023622047244094
        },
        {
          "duration": 0.09302325581396076,
          "durationTicks": 8,
          "midi": 66,
          "name": "F#4",
          "ticks": 15910,
          "time": 185,
          "velocity": 0.07086614173228346
        },
        {
          "duration": 0.19767441860466306,
          "durationTicks": 17,
          "midi": 71,
          "name": "B4",
          "ticks": 15924,
          "time": 185.1627906976744,
          "velocity": 0.2047244094488189
        },
        {
          "duration": 0.023255813953483084,
          "durationTicks": 2,
          "midi": 53,
          "name": "F3",
          "ticks": 15933,
          "time": 185.2674418604651,
          "velocity": 0.25196850393700787
        },
        {
          "duration": 0.12790697674418539,
          "durationTicks": 11,
          "midi": 66,
          "name": "F#4",
          "ticks": 15934,
          "time": 185.27906976744185,
          "velocity": 0.11811023622047244
        },
        {
          "duration": 0.19767441860466306,
          "durationTicks": 17,
          "midi": 54,
          "name": "F#3",
          "ticks": 15935,
          "time": 185.2906976744186,
          "velocity": 0.2992125984251969
        },
        {
          "duration": 0.1860465116278931,
          "durationTicks": 16,
          "midi": 47,
          "name": "B2",
          "ticks": 15939,
          "time": 185.3372093023256,
          "velocity": 0.12598425196850394
        },
        {
          "duration": 0.16279069767441,
          "durationTicks": 14,
          "midi": 59,
          "name": "B3",
          "ticks": 15939,
          "time": 185.3372093023256,
          "velocity": 0.14960629921259844
        },
        {
          "duration": 0.1860465116278931,
          "durationTicks": 16,
          "midi": 35,
          "name": "B1",
          "ticks": 15940,
          "time": 185.34883720930233,
          "velocity": 0.11023622047244094
        },
        {
          "duration": 0.17441860465117998,
          "durationTicks": 15,
          "midi": 71,
          "name": "B4",
          "ticks": 15944,
          "time": 185.3953488372093,
          "velocity": 0.16535433070866143
        },
        {
          "duration": 0.04651162790699459,
          "durationTicks": 4,
          "midi": 59,
          "name": "B3",
          "ticks": 15955,
          "time": 185.52325581395348,
          "velocity": 0.23622047244094488
        },
        {
          "duration": 0.19767441860463464,
          "durationTicks": 17,
          "midi": 54,
          "name": "F#3",
          "ticks": 15959,
          "time": 185.56976744186048,
          "velocity": 0.25984251968503935
        },
        {
          "duration": 0.034883720930224626,
          "durationTicks": 3,
          "midi": 60,
          "name": "C4",
          "ticks": 15959,
          "time": 185.56976744186048,
          "velocity": 0.1968503937007874
        },
        {
          "duration": 0.12790697674418539,
          "durationTicks": 11,
          "midi": 78,
          "name": "F#5",
          "ticks": 15959,
          "time": 185.56976744186048,
          "velocity": 0.12598425196850394
        },
        {
          "duration": 0.3488372093023031,
          "durationTicks": 30,
          "midi": 47,
          "name": "B2",
          "ticks": 15960,
          "time": 185.58139534883722,
          "velocity": 0.1968503937007874
        },
        {
          "duration": 0.32558139534882,
          "durationTicks": 28,
          "midi": 35,
          "name": "B1",
          "ticks": 15962,
          "time": 185.6046511627907,
          "velocity": 0.16535433070866143
        },
        {
          "duration": 0.1046511627907023,
          "durationTicks": 9,
          "midi": 61,
          "name": "C#4",
          "ticks": 15962,
          "time": 185.6046511627907,
          "velocity": 0.1968503937007874
        },
        {
          "duration": 0.12790697674418539,
          "durationTicks": 11,
          "midi": 71,
          "name": "B4",
          "ticks": 15962,
          "time": 185.6046511627907,
          "velocity": 0.11811023622047244
        },
        {
          "duration": 0.09302325581396076,
          "durationTicks": 8,
          "midi": 78,
          "name": "F#5",
          "ticks": 15979,
          "time": 185.80232558139534,
          "velocity": 0.09448818897637795
        },
        {
          "duration": 0.27906976744185386,
          "durationTicks": 24,
          "midi": 59,
          "name": "B3",
          "ticks": 15993,
          "time": 185.96511627906978,
          "velocity": 0.2283464566929134
        },
        {
          "duration": 0.034883720930224626,
          "durationTicks": 3,
          "midi": 46,
          "name": "A#2",
          "ticks": 15994,
          "time": 185.97674418604652,
          "velocity": 0.14960629921259844
        },
        {
          "duration": 0.023255813953483084,
          "durationTicks": 2,
          "midi": 53,
          "name": "F3",
          "ticks": 15995,
          "time": 185.98837209302326,
          "velocity": 0.25984251968503935
        },
        {
          "duration": 0.04651162790696617,
          "durationTicks": 4,
          "midi": 35,
          "name": "B1",
          "ticks": 15997,
          "time": 186.01162790697674,
          "velocity": 0.11811023622047244
        },
        {
          "duration": 0.24418604651162923,
          "durationTicks": 21,
          "midi": 47,
          "name": "B2",
          "ticks": 15997,
          "time": 186.01162790697674,
          "velocity": 0.1732283464566929
        },
        {
          "duration": 0.19767441860466306,
          "durationTicks": 17,
          "midi": 54,
          "name": "F#3",
          "ticks": 15997,
          "time": 186.01162790697674,
          "velocity": 0.3228346456692913
        },
        {
          "duration": 0.034883720930224626,
          "durationTicks": 3,
          "midi": 35,
          "name": "B1",
          "ticks": 16002,
          "time": 186.06976744186048,
          "velocity": 0.11023622047244094
        },
        {
          "duration": 0.06976744186044925,
          "durationTicks": 6,
          "midi": 82,
          "name": "A#5",
          "ticks": 16005,
          "time": 186.1046511627907,
          "velocity": 0.08661417322834646
        },
        {
          "duration": 0.09302325581396076,
          "durationTicks": 8,
          "midi": 35,
          "name": "B1",
          "ticks": 16007,
          "time": 186.12790697674419,
          "velocity": 0.09448818897637795
        },
        {
          "duration": 0.03488372093025305,
          "durationTicks": 3,
          "midi": 67,
          "name": "G4",
          "ticks": 16012,
          "time": 186.1860465116279,
          "velocity": 0.14960629921259844
        },
        {
          "duration": 0.17441860465115155,
          "durationTicks": 15,
          "midi": 68,
          "name": "G#4",
          "ticks": 16015,
          "time": 186.22093023255815,
          "velocity": 0.14173228346456693
        },
        {
          "duration": 0.05813953488373613,
          "durationTicks": 5,
          "midi": 59,
          "name": "B3",
          "ticks": 16019,
          "time": 186.2674418604651,
          "velocity": 0.2204724409448819
        },
        {
          "duration": 0.19767441860466306,
          "durationTicks": 17,
          "midi": 73,
          "name": "C#5",
          "ticks": 16020,
          "time": 186.27906976744185,
          "velocity": 0.07874015748031496
        },
        {
          "duration": 0.1046511627907023,
          "durationTicks": 9,
          "midi": 47,
          "name": "B2",
          "ticks": 16021,
          "time": 186.2906976744186,
          "velocity": 0.12598425196850394
        },
        {
          "duration": 0.3139534883720785,
          "durationTicks": 27,
          "midi": 59,
          "name": "B3",
          "ticks": 16025,
          "time": 186.3372093023256,
          "velocity": 0.2992125984251969
        },
        {
          "duration": 0.034883720930224626,
          "durationTicks": 3,
          "midi": 55,
          "name": "G3",
          "ticks": 16028,
          "time": 186.37209302325581,
          "velocity": 0.25196850393700787
        },
        {
          "duration": 0.034883720930224626,
          "durationTicks": 3,
          "midi": 46,
          "name": "A#2",
          "ticks": 16030,
          "time": 186.3953488372093,
          "velocity": 0.1968503937007874
        },
        {
          "duration": 0.22093023255814614,
          "durationTicks": 19,
          "midi": 54,
          "name": "F#3",
          "ticks": 16031,
          "time": 186.40697674418604,
          "velocity": 0.2992125984251969
        },
        {
          "duration": 0.09302325581396076,
          "durationTicks": 8,
          "midi": 35,
          "name": "B1",
          "ticks": 16033,
          "time": 186.43023255813952,
          "velocity": 0.12598425196850394
        },
        {
          "duration": 0.17441860465117998,
          "durationTicks": 15,
          "midi": 47,
          "name": "B2",
          "ticks": 16033,
          "time": 186.43023255813952,
          "velocity": 0.1968503937007874
        },
        {
          "duration": 0.08139534883721922,
          "durationTicks": 7,
          "midi": 35,
          "name": "B1",
          "ticks": 16042,
          "time": 186.53488372093022,
          "velocity": 0.14960629921259844
        },
        {
          "duration": 0.05813953488370771,
          "durationTicks": 5,
          "midi": 48,
          "name": "C3",
          "ticks": 16048,
          "time": 186.6046511627907,
          "velocity": 0.12598425196850394
        },
        {
          "duration": 0.05813953488370771,
          "durationTicks": 5,
          "midi": 36,
          "name": "C2",
          "ticks": 16049,
          "time": 186.61627906976744,
          "velocity": 0.14960629921259844
        },
        {
          "duration": 0.06976744186047767,
          "durationTicks": 6,
          "midi": 49,
          "name": "C#3",
          "ticks": 16055,
          "time": 186.6860465116279,
          "velocity": 0.1732283464566929
        },
        {
          "duration": 0.023255813953511506,
          "durationTicks": 2,
          "midi": 60,
          "name": "C4",
          "ticks": 16055,
          "time": 186.6860465116279,
          "velocity": 0.23622047244094488
        },
        {
          "duration": 0.09302325581396076,
          "durationTicks": 8,
          "midi": 73,
          "name": "C#5",
          "ticks": 16055,
          "time": 186.6860465116279,
          "velocity": 0.14960629921259844
        },
        {
          "duration": 0.5348837209302246,
          "durationTicks": 46,
          "midi": 68,
          "name": "G#4",
          "ticks": 16056,
          "time": 186.69767441860466,
          "velocity": 0.14173228346456693
        },
        {
          "duration": 0.32558139534882,
          "durationTicks": 28,
          "midi": 61,
          "name": "C#4",
          "ticks": 16057,
          "time": 186.7093023255814,
          "velocity": 0.25196850393700787
        },
        {
          "duration": 0.13953488372092693,
          "durationTicks": 12,
          "midi": 84,
          "name": "C6",
          "ticks": 16057,
          "time": 186.7093023255814,
          "velocity": 0.07874015748031496
        },
        {
          "duration": 0.16279069767441,
          "durationTicks": 14,
          "midi": 56,
          "name": "G#3",
          "ticks": 16061,
          "time": 186.75581395348837,
          "velocity": 0.11023622047244094
        },
        {
          "duration": 0.27906976744185386,
          "durationTicks": 24,
          "midi": 49,
          "name": "C#3",
          "ticks": 16062,
          "time": 186.7674418604651,
          "velocity": 0.11811023622047244
        },
        {
          "duration": 0.03488372093025305,
          "durationTicks": 3,
          "midi": 62,
          "name": "D4",
          "ticks": 16085,
          "time": 187.03488372093022,
          "velocity": 0.14173228346456693
        },
        {
          "duration": 0.24418604651162923,
          "durationTicks": 21,
          "midi": 61,
          "name": "C#4",
          "ticks": 16088,
          "time": 187.06976744186048,
          "velocity": 0.2755905511811024
        },
        {
          "duration": 0.09302325581393234,
          "durationTicks": 8,
          "midi": 49,
          "name": "C#3",
          "ticks": 16089,
          "time": 187.08139534883722,
          "velocity": 0.1732283464566929
        },
        {
          "duration": 0.04651162790696617,
          "durationTicks": 4,
          "midi": 37,
          "name": "C#2",
          "ticks": 16093,
          "time": 187.12790697674419,
          "velocity": 0.15748031496062992
        },
        {
          "duration": 0.2093023255814046,
          "durationTicks": 18,
          "midi": 56,
          "name": "G#3",
          "ticks": 16095,
          "time": 187.15116279069767,
          "velocity": 0.11023622047244094
        },
        {
          "duration": 0.17441860465117998,
          "durationTicks": 15,
          "midi": 37,
          "name": "C#2",
          "ticks": 16098,
          "time": 187.1860465116279,
          "velocity": 0.11811023622047244
        },
        {
          "duration": 0.16279069767441,
          "durationTicks": 14,
          "midi": 49,
          "name": "C#3",
          "ticks": 16099,
          "time": 187.19767441860466,
          "velocity": 0.15748031496062992
        },
        {
          "duration": 0.5232558139534831,
          "durationTicks": 45,
          "midi": 61,
          "name": "C#4",
          "ticks": 16111,
          "time": 187.3372093023256,
          "velocity": 0.29133858267716534
        },
        {
          "duration": 0.05813953488373613,
          "durationTicks": 5,
          "midi": 49,
          "name": "C#3",
          "ticks": 16115,
          "time": 187.38372093023256,
          "velocity": 0.09448818897637795
        },
        {
          "duration": 0.2674418604651123,
          "durationTicks": 23,
          "midi": 76,
          "name": "E5",
          "ticks": 16117,
          "time": 187.40697674418604,
          "velocity": 0.10236220472440945
        },
        {
          "duration": 0.09302325581396076,
          "durationTicks": 8,
          "midi": 83,
          "name": "B5",
          "ticks": 16117,
          "time": 187.40697674418604,
          "velocity": 0.11023622047244094
        },
        {
          "duration": 0.1046511627907023,
          "durationTicks": 9,
          "midi": 64,
          "name": "E4",
          "ticks": 16118,
          "time": 187.41860465116278,
          "velocity": 0.12598425196850394
        },
        {
          "duration": 0.19767441860466306,
          "durationTicks": 17,
          "midi": 49,
          "name": "C#3",
          "ticks": 16127,
          "time": 187.52325581395348,
          "velocity": 0.1732283464566929
        },
        {
          "duration": 0.1511627906976969,
          "durationTicks": 13,
          "midi": 37,
          "name": "C#2",
          "ticks": 16130,
          "time": 187.5581395348837,
          "velocity": 0.2125984251968504
        },
        {
          "duration": 0.03488372093025305,
          "durationTicks": 3,
          "midi": 55,
          "name": "G3",
          "ticks": 16130,
          "time": 187.5581395348837,
          "velocity": 0.1968503937007874
        },
        {
          "duration": 0.034883720930224626,
          "durationTicks": 3,
          "midi": 68,
          "name": "G#4",
          "ticks": 16131,
          "time": 187.56976744186048,
          "velocity": 0.07874015748031496
        },
        {
          "duration": 0.11627906976744384,
          "durationTicks": 10,
          "midi": 56,
          "name": "G#3",
          "ticks": 16133,
          "time": 187.59302325581396,
          "velocity": 0.12598425196850394
        },
        {
          "duration": 0.1046511627907023,
          "durationTicks": 9,
          "midi": 37,
          "name": "C#2",
          "ticks": 16144,
          "time": 187.72093023255815,
          "velocity": 0.18110236220472442
        },
        {
          "duration": 0.06976744186044925,
          "durationTicks": 6,
          "midi": 56,
          "name": "G#3",
          "ticks": 16144,
          "time": 187.72093023255815,
          "velocity": 0.07874015748031496
        },
        {
          "duration": 0.09302325581396076,
          "durationTicks": 8,
          "midi": 76,
          "name": "E5",
          "ticks": 16148,
          "time": 187.7674418604651,
          "velocity": 0.08661417322834646
        },
        {
          "duration": 0.034883720930224626,
          "durationTicks": 3,
          "midi": 55,
          "name": "G3",
          "ticks": 16154,
          "time": 187.8372093023256,
          "velocity": 0.2440944881889764
        },
        {
          "duration": 0.3953488372092977,
          "durationTicks": 34,
          "midi": 64,
          "name": "E4",
          "ticks": 16154,
          "time": 187.8372093023256,
          "velocity": 0.09448818897637795
        },
        {
          "duration": 0.3720930232558146,
          "durationTicks": 32,
          "midi": 37,
          "name": "C#2",
          "ticks": 16157,
          "time": 187.87209302325581,
          "velocity": 0.16535433070866143
        },
        {
          "duration": 0.38372093023255616,
          "durationTicks": 33,
          "midi": 56,
          "name": "G#3",
          "ticks": 16157,
          "time": 187.87209302325581,
          "velocity": 0.14173228346456693
        },
        {
          "duration": 0.08139534883721922,
          "durationTicks": 7,
          "midi": 73,
          "name": "C#5",
          "ticks": 16157,
          "time": 187.87209302325581,
          "velocity": 0.08661417322834646
        },
        {
          "duration": 0.25581395348837077,
          "durationTicks": 22,
          "midi": 61,
          "name": "C#4",
          "ticks": 16168,
          "time": 188,
          "velocity": 0.14173228346456693
        },
        {
          "duration": 0.05813953488373613,
          "durationTicks": 5,
          "midi": 73,
          "name": "C#5",
          "ticks": 16192,
          "time": 188.27906976744185,
          "velocity": 0.07874015748031496
        },
        {
          "duration": 0.4767441860465169,
          "durationTicks": 41,
          "midi": 61,
          "name": "C#4",
          "ticks": 16193,
          "time": 188.2906976744186,
          "velocity": 0.1968503937007874
        },
        {
          "duration": 0.22093023255814614,
          "durationTicks": 19,
          "midi": 37,
          "name": "C#2",
          "ticks": 16194,
          "time": 188.30232558139534,
          "velocity": 0.18110236220472442
        },
        {
          "duration": 0.23255813953485927,
          "durationTicks": 20,
          "midi": 56,
          "name": "G#3",
          "ticks": 16195,
          "time": 188.3139534883721,
          "velocity": 0.1732283464566929
        },
        {
          "duration": 0.04651162790696617,
          "durationTicks": 4,
          "midi": 66,
          "name": "F#4",
          "ticks": 16201,
          "time": 188.38372093023256,
          "velocity": 0.2125984251968504
        },
        {
          "duration": 0.05813953488373613,
          "durationTicks": 5,
          "midi": 79,
          "name": "G5",
          "ticks": 16204,
          "time": 188.41860465116278,
          "velocity": 0.07874015748031496
        },
        {
          "duration": 0.04651162790699459,
          "durationTicks": 4,
          "midi": 67,
          "name": "G4",
          "ticks": 16205,
          "time": 188.43023255813952,
          "velocity": 0.2440944881889764
        },
        {
          "duration": 0.03488372093025305,
          "durationTicks": 3,
          "midi": 86,
          "name": "D6",
          "ticks": 16205,
          "time": 188.43023255813952,
          "velocity": 0.07874015748031496
        },
        {
          "duration": 0.22093023255814614,
          "durationTicks": 19,
          "midi": 68,
          "name": "G#4",
          "ticks": 16209,
          "time": 188.47674418604652,
          "velocity": 0.2677165354330709
        },
        {
          "duration": 0.12790697674418539,
          "durationTicks": 11,
          "midi": 87,
          "name": "D#6",
          "ticks": 16209,
          "time": 188.47674418604652,
          "velocity": 0.12598425196850394
        },
        {
          "duration": 0.26744186046514073,
          "durationTicks": 23,
          "midi": 76,
          "name": "E5",
          "ticks": 16216,
          "time": 188.5581395348837,
          "velocity": 0.07874015748031496
        },
        {
          "duration": 0.09302325581393234,
          "durationTicks": 8,
          "midi": 37,
          "name": "C#2",
          "ticks": 16218,
          "time": 188.58139534883722,
          "velocity": 0.1732283464566929
        },
        {
          "duration": 0.23255813953485927,
          "durationTicks": 20,
          "midi": 83,
          "name": "B5",
          "ticks": 16228,
          "time": 188.69767441860466,
          "velocity": 0.29133858267716534
        },
        {
          "duration": 0.034883720930224626,
          "durationTicks": 3,
          "midi": 49,
          "name": "C#3",
          "ticks": 16229,
          "time": 188.7093023255814,
          "velocity": 0.10236220472440945
        },
        {
          "duration": 0.20930232558137618,
          "durationTicks": 18,
          "midi": 71,
          "name": "B4",
          "ticks": 16229,
          "time": 188.7093023255814,
          "velocity": 0.13385826771653545
        },
        {
          "duration": 0.2093023255814046,
          "durationTicks": 18,
          "midi": 37,
          "name": "C#2",
          "ticks": 16232,
          "time": 188.74418604651163,
          "velocity": 0.1968503937007874
        },
        {
          "duration": 0.1046511627907023,
          "durationTicks": 9,
          "midi": 68,
          "name": "G#4",
          "ticks": 16233,
          "time": 188.75581395348837,
          "velocity": 0.12598425196850394
        },
        {
          "duration": 0.13953488372092693,
          "durationTicks": 12,
          "midi": 56,
          "name": "G#3",
          "ticks": 16234,
          "time": 188.7674418604651,
          "velocity": 0.09448818897637795
        },
        {
          "duration": 0.5813953488371908,
          "durationTicks": 50,
          "midi": 73,
          "name": "C#5",
          "ticks": 16241,
          "time": 188.84883720930233,
          "velocity": 0.2755905511811024
        },
        {
          "duration": 0.08139534883721922,
          "durationTicks": 7,
          "midi": 68,
          "name": "G#4",
          "ticks": 16247,
          "time": 188.91860465116278,
          "velocity": 0.13385826771653545
        },
        {
          "duration": 0.034883720930224626,
          "durationTicks": 3,
          "midi": 55,
          "name": "G3",
          "ticks": 16251,
          "time": 188.96511627906978,
          "velocity": 0.16535433070866143
        },
        {
          "duration": 0.32558139534884845,
          "durationTicks": 28,
          "midi": 37,
          "name": "C#2",
          "ticks": 16256,
          "time": 189.02325581395348,
          "velocity": 0.18110236220472442
        },
        {
          "duration": 0.09302325581396076,
          "durationTicks": 8,
          "midi": 68,
          "name": "G#4",
          "ticks": 16256,
          "time": 189.02325581395348,
          "velocity": 0.11811023622047244
        },
        {
          "duration": 0.4418604651162923,
          "durationTicks": 38,
          "midi": 61,
          "name": "C#4",
          "ticks": 16257,
          "time": 189.03488372093022,
          "velocity": 0.2047244094488189
        },
        {
          "duration": 0.0813953488371908,
          "durationTicks": 7,
          "midi": 68,
          "name": "G#4",
          "ticks": 16284,
          "time": 189.34883720930233,
          "velocity": 0.11811023622047244
        },
        {
          "duration": 0.06976744186047767,
          "durationTicks": 6,
          "midi": 37,
          "name": "C#2",
          "ticks": 16287,
          "time": 189.38372093023256,
          "velocity": 0.12598425196850394
        },
        {
          "duration": 0.05813953488370771,
          "durationTicks": 5,
          "midi": 73,
          "name": "C#5",
          "ticks": 16293,
          "time": 189.45348837209303,
          "velocity": 0.25196850393700787
        },
        {
          "duration": 0.25581395348837077,
          "durationTicks": 22,
          "midi": 56,
          "name": "G#3",
          "ticks": 16294,
          "time": 189.46511627906978,
          "velocity": 0.13385826771653545
        },
        {
          "duration": 0.09302325581396076,
          "durationTicks": 8,
          "midi": 37,
          "name": "C#2",
          "ticks": 16299,
          "time": 189.52325581395348,
          "velocity": 0.07086614173228346
        },
        {
          "duration": 0.12790697674418539,
          "durationTicks": 11,
          "midi": 73,
          "name": "C#5",
          "ticks": 16299,
          "time": 189.52325581395348,
          "velocity": 0.23622047244094488
        },
        {
          "duration": 0.034883720930224626,
          "durationTicks": 3,
          "midi": 74,
          "name": "D5",
          "ticks": 16310,
          "time": 189.65116279069767,
          "velocity": 0.15748031496062992
        },
        {
          "duration": 0.16279069767443843,
          "durationTicks": 14,
          "midi": 37,
          "name": "C#2",
          "ticks": 16311,
          "time": 189.6627906976744,
          "velocity": 0.2125984251968504
        },
        {
          "duration": 0.13953488372095535,
          "durationTicks": 12,
          "midi": 73,
          "name": "C#5",
          "ticks": 16313,
          "time": 189.6860465116279,
          "velocity": 0.18110236220472442
        },
        {
          "duration": 0.33720930232559,
          "durationTicks": 29,
          "midi": 76,
          "name": "E5",
          "ticks": 16313,
          "time": 189.6860465116279,
          "velocity": 0.1889763779527559
        },
        {
          "duration": 0.06976744186044925,
          "durationTicks": 6,
          "midi": 83,
          "name": "B5",
          "ticks": 16316,
          "time": 189.72093023255815,
          "velocity": 0.07086614173228346
        },
        {
          "duration": 0.04651162790696617,
          "durationTicks": 4,
          "midi": 74,
          "name": "D5",
          "ticks": 16325,
          "time": 189.82558139534885,
          "velocity": 0.13385826771653545
        },
        {
          "duration": 0.22093023255811772,
          "durationTicks": 19,
          "midi": 37,
          "name": "C#2",
          "ticks": 16326,
          "time": 189.8372093023256,
          "velocity": 0.2047244094488189
        },
        {
          "duration": 0.13953488372092693,
          "durationTicks": 12,
          "midi": 56,
          "name": "G#3",
          "ticks": 16327,
          "time": 189.84883720930233,
          "velocity": 0.2125984251968504
        },
        {
          "duration": 0.1046511627907023,
          "durationTicks": 9,
          "midi": 73,
          "name": "C#5",
          "ticks": 16333,
          "time": 189.91860465116278,
          "velocity": 0.14960629921259844
        },
        {
          "duration": 0.08139534883721922,
          "durationTicks": 7,
          "midi": 56,
          "name": "G#3",
          "ticks": 16340,
          "time": 190,
          "velocity": 0.16535433070866143
        },
        {
          "duration": 0.034883720930224626,
          "durationTicks": 3,
          "midi": 49,
          "name": "C#3",
          "ticks": 16348,
          "time": 190.09302325581396,
          "velocity": 0.15748031496062992
        },
        {
          "duration": 0.20930232558137618,
          "durationTicks": 18,
          "midi": 73,
          "name": "C#5",
          "ticks": 16348,
          "time": 190.09302325581396,
          "velocity": 0.2283464566929134
        },
        {
          "duration": 0.034883720930224626,
          "durationTicks": 3,
          "midi": 55,
          "name": "G3",
          "ticks": 16350,
          "time": 190.11627906976744,
          "velocity": 0.1732283464566929
        },
        {
          "duration": 0.2093023255814046,
          "durationTicks": 18,
          "midi": 61,
          "name": "C#4",
          "ticks": 16351,
          "time": 190.12790697674419,
          "velocity": 0.15748031496062992
        },
        {
          "duration": 0.11627906976744384,
          "durationTicks": 10,
          "midi": 68,
          "name": "G#4",
          "ticks": 16351,
          "time": 190.12790697674419,
          "velocity": 0.08661417322834646
        },
        {
          "duration": 0.11627906976744384,
          "durationTicks": 10,
          "midi": 49,
          "name": "C#3",
          "ticks": 16358,
          "time": 190.2093023255814,
          "velocity": 0.14173228346456693
        }
      ],
      "endOfTrackTicks": 16369
    }
  ]
}